<svg width="460" height="455" fill="none" xmlns="http://www.w3.org/2000/svg"><g clip-path="url('#clip0_32_612')" fill-rule="evenodd" clip-rule="evenodd"><path d="M228.223 144.954c5.397-1.496 11.602-1.323 17.14-.94 5.624.39 11.66 1.056 16.938 3.16 4.587 1.83 8.456 4.905 10.811 9.312 1.94 3.624 2.848 7.595 3.419 11.632.232 1.65.427 3.307.612 4.963l.382 3.448c.148 1.318.279 2.306.542 3.778.724 4.067 1.732 7.465 3.983 10.426 5.454 7.165 14.357 9.563 22.454 12.621 5.181 1.958 9.283 5.478 10.422 11.135 1.099 5.456 42.856 51.237 46.954 55.098l.113.103c3.18 2.869 2.806 8.261 3.251 12.197a1164.174 1164.174 0 0 1 7.33 139.586l-.017 1.91c-.04 4.282-.007 8.583-.199 12.863-.185 4.111-1.426 8.227-5.229 10.375-3.524 1.99-7.979 1.814-11.916 2.012l-.236.012c-4.224.232-8.45.423-12.68.579-17.185.638-34.384.706-51.58.626-34.112-.156-68.259-.908-102.338 1.005-8.689.488-36.383-2.475-45.042-1.631-8.278.807-1.177 4.874-6.289 4.607-16.818-.881-32.768-4.642-48.879-9.169-2.015-.566-3.553-2.523-3.528-4.638a2218.273 2218.273 0 0 1 7.684-158.569l.33-3.843c.427-4.954.672-9.999 1.646-14.885.962-4.832 3.144-9.021 6.308-12.766 2.838-3.358 34.984-29.652 42.728-34.631 7.408-4.765 15.19-8.785 22.798-13.202 3.166-1.837 6.206-1.177 8.909-3.431 1.426-1.19 22.11-9.2 27.69-11.844l.164-.078c4.271-2.053 8.201-4.279 11.154-7.829.988-1.19 2.929-8.686 2.933-11.083.006-4.279-.317-8.787.971-12.932 1.54-4.956 5.255-8.587 10.267-9.977Zm9.152 110.336-33.052 64.486h21.493l-15.407 35.828h33.831l-12 50.185 68.629-86.013h-25.753l25.753-33.866h-17.863l17.863-28.681-63.494-1.939Z" fill="#FDFBF5"/><path d="M348.398 291.549c-.076.076-.156.154-.232.234a3.83 3.83 0 0 0 .232-.383v.149Zm-64.232-18.785c-2.968 3.801-6.109 11.531-8.993 15.398-.414.554-.819 1.11-1.22 1.67-1.198 1.677.401 4.243 2.369 4.137 3.932-.225 7.862-.492 11.789-.802-8.069 9.01-14.768 20.201-22.179 29.746-.502.639-.996 1.283-1.491 1.927-1.876 2.45.004 3.562 2.567 2.901l1.591-.405c3.726-.958 7.451-1.916 11.177-2.87 2.061-.531 4.133-1.188 6.222-1.593.86-.166 1.683-.029 2.495.015-.39.596-.937 1.67-1.046 1.835a663.285 663.285 0 0 1-3.675 5.674 475.94 475.94 0 0 1-7.317 10.914c-9.761 14.011-20.287 27.386-30.723 40.887a517.67 517.67 0 0 1-7.996 10.085c.012-.021.019-.041.032-.06l7.314-14.267c4.635-9.036 9.226-18.099 13.909-27.112.241-.47.487-.939.732-1.409.971-1.868-.624-3.806-2.62-3.412a327.586 327.586 0 0 0-28.907 7.081c-.428.457-1.059.592-1.621.482-.383.114-.767.224-1.151.34.116-.241.238-.479.354-.719-.39-.339-.582-.865-.329-1.52 5.479-14.167 12.994-27.843 21.897-40.369a55.34 55.34 0 0 0-1.076.023c-9.772.264-19.359 1.669-28.777 4.337-.044-.874.481-2.226.766-2.87 1.141-2.572 2.451-5.083 3.675-7.613l7.519-15.594c2.45-5.078 4.88-10.173 7.186-15.323 1.209-2.7 2.418-5.403 3.624-8.107.983-2.203 1.758-4.419 2.574-6.673 2.393.704 33.131.856 40.603 1.376 1.83.13 3.667.246 5.501.347 1.462.084 3.523.405 4.531-.918l.382.322c-3.317 3.975-6.498 8.059-9.688 12.139ZM164.158 198.9l.449-.205c.076.108.171.209.266.31.241.246.477.51.726.752-.482-.282-.963-.567-1.441-.857Zm214.816 226.147c-.278-5.864-.586-11.727-.917-17.589-.65-11.462-1.321-22.922-2.216-34.366-1.82-23.191-3.514-46.373-6.242-69.48-1.144-9.685-2.743-19.298-4.346-28.915l.62-.552c-.222 2.631 3.344 4.299 5.112 1.673.133-.196.261-.392.39-.597 1.53-2.479 5.057-14.64 4.812-15.67-.443-1.856-1.671-3.505-2.631-5.139a338.841 338.841 0 0 0-2.546-4.274 202.574 202.574 0 0 0-5.335-8.395c-3.836-5.689-8.028-11.153-12.969-15.93-5.112-4.949-10.981-9.017-17.042-12.707a112.233 112.233 0 0 0-8.977-4.874c-3.019-1.472-6.325-3.102-9.578-3.94-.187-.047-.375.21-.206.347a44.216 44.216 0 0 0 2.687 1.948c-2.491-.867-5.057-1.489-7.643-1.712-5.009-1.761-10.078-3.376-15.063-5.215-4.899-1.811-9.728-3.846-12.984-8.135-2.784-3.668-4.544-8.153-5.898-12.523-1.485-4.817-2.076-9.822-3.448-14.649-.109-.39-.748-.434-.833 0-.979 5.063-.935 10.754-.377 15.864.586 5.36 2.092 10.62 5.369 14.978 3.808 5.065 8.974 7.887 14.785 10.135 4.689 1.82 9.436 3.671 14.236 5.297a57.78 57.78 0 0 1-1.916 1.211 77.272 77.272 0 0 1-8.078 4.16c-5.053 2.258-10.375 3.949-15.728 5.32-9.966 2.543-20.183 3.836-30.456 4.004-20.558.342-41.343-3.972-60.145-12.302-5.293-2.346-10.462-4.925-15.58-7.633a340.386 340.386 0 0 1-4.802-2.576c.133-.007.268-.019.399-.032a59.496 59.496 0 0 0 10.551-1.999c7.075-2 13.854-5.118 20.514-8.189 5.648-2.605 11.464-5.569 14.914-10.994 1.842-2.901 2.69-6.306 3.377-9.638.768-3.708 1.671-7.436 2.23-11.182.196-1.311-.097-3.086-1.502-3.707-.563-.245-1.025-.447-1.656-.447-1.394 0-2.823 1.015-3.156 2.407-.823 3.472-1.321 7.042-1.968 10.551-.559 3.033-1.068 6.202-2.703 8.869-2.856 4.672-8.456 7.062-13.186 9.337-5.997 2.881-11.997 5.689-18.229 8.027a92.258 92.258 0 0 1-8.365 2.728c.113-.696.016-1.429-.393-1.98-.684-.91-1.458-1.513-2.338-2.208-.957-.758-2.242-1.152-3.369-.817 0 .004-.006 0-.006 0a2.326 2.326 0 0 0-1.485.177 479.887 479.887 0 0 0-4.836 2.249c-23.171 10.921-45.685 23.75-62.734 43.286a109.377 109.377 0 0 0-6.916 8.833c-2.097 2.966-4.69 6.185-5.27 9.862-.048.307.399.447.475.133.137-.567.321-1.123.551-1.662a8.089 8.089 0 0 0 .223 5.204c.798 2.06 2.266 3.425 4.118 3.968-1.86 8.164-3.109 16.438-4.113 24.802-1.443 12.052-2.467 24.133-3.237 36.246-1.544 24.173-2.23 48.465-1.73 72.682.138 6.844.372 13.689.726 20.53.177 3.421.369 6.837.59 10.257.216 3.364.04 7.071 2.967 8.845l.114.395c.71 2.482 3.878 1.686 4.177-.568l.011-.076c2.396-1.832 2.034-4.882 1.856-7.806-.19-3.159-.39-6.314-.56-9.469-.317-6.052-.596-12.106-.838-18.161a1106.824 1106.824 0 0 1-.836-35.951c-.177-23.971 1.205-47.905 2.844-71.808.686-9.999 1.49-19.955 1.736-29.951 1.281-.668 1.673-2.566 1.032-3.846 15.175 10.373 29.257 22.775 40.563 37.19 1.886 2.41 3.693 4.88 5.418 7.408.563.821 1.095 1.674 1.635 2.527-.523 2.378-.928 4.796-1.458 7.077-1.093 4.712-1.555 9.602-2.183 14.39-1.273 9.727-2.167 19.54-2.927 29.319-1.493 19.312-2.603 38.62-2.951 57.987-.194 10.954-.451 21.976.03 32.925-.357 2.14 1.567 4.233 3.58 4.503a4.102 4.102 0 0 0 4.183-2.157c5.494.683 11.133.998 16.591 1.038 7.354.051 14.707.043 22.063-.113 14.711-.322 29.42-.7 44.129-1.138l88.253-2.616 24.473-.724c3.679-.108 8.266.952 11.166-1.892a5.494 5.494 0 0 0 1.157-1.682c.867.217 1.932.004 2.502-.668 1.065-1.26 1.848-2.426 1.808-4.173-.038-1.634-.486-3.355-.72-4.974a774.379 774.379 0 0 1-1.272-9.118 962.833 962.833 0 0 1-2.234-18.057c-1.405-12.316-2.682-24.662-3.679-37.02-1.977-24.438-2.534-49.004-2.465-73.518.007-2.193.019-4.386.03-6.58.093.116.194.225.302.318.088.076.177.152.265.234 1.028.905 2.739 1.371 3.973.514 1.513-.982 2.559-2.454 3.739-3.787a160.767 160.767 0 0 1 3.808-4.108 204.062 204.062 0 0 1 7.715-7.601c.213-.198.426-.398.639-.592.015 7.802.008 15.601.217 23.4.313 11.585.939 23.159 1.513 34.728 1.141 22.908 2.323 45.809 3.458 68.714.318 6.393.62 12.792.938 19.186.159 3.198.317 6.397.469 9.598l.242 5.194c.087 1.86-.029 3.848.597 5.614 1.425 4.041 7.587 4.612 8.773 0 .742-2.894.171-6.243.04-9.211-.137-2.93-.274-5.864-.414-8.796Z" fill="#171619"/><path d="M317.145 62.937c-4.138-14.965-19.952-21.492-34.195-22.53-38.565-4.017-77.818 17.523-94.915 52.447-13.684 26.52-14.114 54.379 15.304 69.521 1.607.887 3.284 1.835 4.998 2.696 1.489 1.386 3.021 2.719 4.694 3.838 16.019 10.554 35.681 15.118 54.734 14.128 28.131-.568 38.175-19.693 44.321-44.22 6.481-24.416 10.107-50.912 5.059-75.88Z" fill="#FDFBF5"/><path d="M335.611 203.98c-1.314-3.979-2.96-7.838-4.499-11.738a43.249 43.249 0 0 1-.598-5.879c-.213-7.058 1.104-14.175 2.583-21.048 3.004-13.968 6.188-27.791 7.787-42.015 2.856-25.444 1.158-51.902-10.393-75.13-10.01-20.12-26.972-36.575-48.882-42.738-6.477-1.824-13.143-2.83-19.856-3.231-.831-.134-1.66-.261-2.485-.387C249.932.405 240.481-.299 231.044.31c-15.648 1.01-31.15 5.514-44.182 14.424-13.122 8.974-22.445 21.553-26.784 36.9-4.513 15.962-4.129 33.25-11.924 48.217-2.3 4.421-4.988 8.625-7.551 12.897-6.8 7.603-14.183 16.054-15.802 26.505-1.996 12.919 5.422 23.836 12.443 33.915 6.346 9.103 14.958 21.675 8.427 32.882-3.079 5.287-8.017 9.242-11.724 14.062-3.844 5.008-6.844 10.754-8.395 16.894-2.911 11.533-.232 23.552 7.555 32.566 4.057 4.693 9.266 7.794 14.905 10.214 5.772 2.47 11.412 4.815 16.182 9.021 2.183 1.919 4.179 4.025 6.065 6.23a47.596 47.596 0 0 0 6.118 7.69c2.543 2.595 7.523-.958 5.19-4.014l-.513-.67c-1.708-2.229-3.422-4.459-5.219-6.616-5.354-8.499-7.415-18.904-4.753-28.832a35.812 35.812 0 0 1 2.873-7.336c.258.673.538 1.335.836 1.992 1.156 2.544 2.78 5.556 4.844 8.132.08 1.767.344 3.518.86 5.232 3.18 10.628 13.815 15.871 23.406 19.951.942.402 1.869.789 2.78 1.171 2.508 1.049 5.158-2.528 3.595-4.685a39.223 39.223 0 0 1-1.184-1.733c-4.499-6.978-6.639-15.325-5.426-23.638 1.277-8.792 6.45-16.067 11.587-23.049 5.044-6.865 10.462-13.87 12.721-22.246 2.498-9.251.224-18.474-3.631-26.988-3.531-7.791-8.234-14.973-12.177-22.551a87.737 87.737 0 0 0 4.178 3.913c1.615 1.416 3.272 3.037 5.185 4.034 1.416.737 2.833-1.028 1.713-2.222-1.474-1.568-3.358-2.781-4.993-4.181a102.808 102.808 0 0 1-4.579-4.177 93.126 93.126 0 0 1-5.251-5.523 87.361 87.361 0 0 1-3.352-10.523c-1.224-4.836-2.358-9.983-2.27-14.998.089-5.142 2.757-8.745 6.306-12.197 1.504-1.462 3.023-2.907 4.538-4.354 3.228-2.374 6.272-5.025 9.23-7.669a261.042 261.042 0 0 0 15.234-14.82 257.562 257.562 0 0 0 3.878-4.174 210.63 210.63 0 0 0 12.747-14.354 60.15 60.15 0 0 0 11.428-5.655c-1.566 1.592-3.15 3.16-4.724 4.741-3.506 3.526-7.148 7.068-11.213 9.939-.418.299-.166.933.35.83 5.169-1.034 10.003-2.757 14.519-5.5 4.591-2.794 8.635-6.588 12.41-10.396 2.137-.964 4.198-2.209 6.082-3.431l.3-.198c-1.855 5.893-4.577 12.564-10.382 14.664-.188.069-.176.383.048.371 4.89-.287 8.819-2.492 11.922-5.704a79.401 79.401 0 0 0 7.148-5.78 85.307 85.307 0 0 0 6.266-6.398c-2.768 5.491-5.867 10.863-8.924 16.17-.161.282.177.667.466.47 6.455-4.38 11.35-10.029 15.354-16.71a84.074 84.074 0 0 0 1.707-2.99 110.738 110.738 0 0 1-1.355 4.7c-.879 2.821-1.746 5.647-2.626 8.467a44.56 44.56 0 0 1-1.688 4.464c-.455 1.046-1.05 2.087-1.143 3.233-.005.077.078.126.143.11 2.574-.647 4.971-3.586 6.804-5.406a29.922 29.922 0 0 0 2.859-3.304c.164 6.763.276 13.528.128 20.312-.278 12.457-1.08 24.911-2.109 37.33-.908 10.977-1.58 22.498-7.692 32.038-4.732 7.386-12.403 12.496-20.737 14.971a38.73 38.73 0 0 1-2.217.594c-12.067 2.869-24.084-.381-34.751-6.127-3.205-1.727-5.945 2.957-2.852 4.884 11.576 7.22 26.247 9.678 39.35 6.443-.412 15.504 7.213 30.212 14.8 43.363 4.246 7.36 8.495 14.671 11.497 22.651 2.545 6.776 4.277 13.807 4.859 21.037.69 8.524.011 17.095-1.177 25.545-.064.459-.129.922-.198 1.381-.264 1.814 1.364 3.335 3.126 2.406 7.797-4.105 11.158-12.853 13.201-20.942a151.579 151.579 0 0 0 3.934-23.081 70.18 70.18 0 0 1 2.585 9.006c.094.437.181.877.27 1.315.506 2.565 4.379 2.382 4.997 0 .112-.43.22-.86.321-1.295 3.194-12.937 4.053-26.43 2.365-39.657-.886-6.957-2.369-13.823-4.57-20.483" fill="#171619"/><path d="M276.866 152.974a16.36 16.36 0 0 1-6.871-5.295 3.185 3.185 0 0 1-.642-2.47c.144-.889.669-1.692 1.384-2.233.716-.541 1.614-.807 2.481-.672.754.118 1.503.531 2.099 1.39l.123.171a10.832 10.832 0 0 0 3.966 3.334 8.929 8.929 0 0 0 4.909.864c3.304-.373 5.579-2.163 8-4.594.3-.307.6-.623.901-.944.176-.273.441-.476.749-.577a1.636 1.636 0 0 1 1.844.632c.184.272.291.609.257.997-.223 2.519-1.537 4.766-3.404 6.531-2.074 1.961-4.823 3.317-7.41 3.793-2.85.523-5.755.148-8.386-.927Zm9.732-38.856c3.032 1.848 7.654 6.155 4.391 10.734-3.842 4.036-9.37-.592-12.095-2.686-2.526-1.623-5.366 2.551-3.022 4.445 19.692 14.606 27.682-12.01 12.26-14.664-1.7-.293-2.329 1.599-1.534 2.171Zm-35.285-16.99c.334-4.167 6.669-5.114 7.3-.99.563 3.694-.101 7.089-1.762 10.415-1.586 3.176-5.574 1.695-5.877-1.199-.405-3.879.13-5.632.339-8.225Zm48.222-1.844c.884-1.16 2.16-1.95 3.686-1.505 4.774 1.4 3.367 8.189 1.691 11.495-.911 1.793-3.856 2.248-5.187.668-2.167-2.576-3.207-7.722-.448-10.262.074-.13.157-.263.258-.396Zm-42.751-16.39.755-.133c2.333-.404 5.232-.792 6.882 1.085.876.998 1.177 2.85 0 3.804-2.068 1.676-4.357 1.029-6.836 1.17a27.152 27.152 0 0 0-5.976 1.02c-4.319 1.238-7.838 3.494-11.526 5.973-.483.323-.978-.295-.747-.749 2.129-4.179 6.254-7.61 10.387-9.702 2.208-1.118 4.62-2.043 7.061-2.468Zm38.399-1.871.578.118c6.282 1.313 14.441 3.941 17.415 10.123.114.874-.006 1.06-.103 1.183l-.032.041c-.082.105-.145.248-.523.368a15.812 15.812 0 0 1-.319-.08c-1.363-.358-2.441-.851-3.485-1.363l-1.133-.558c-1.314-.648-2.639-1.268-4.044-1.727a47.55 47.55 0 0 0-9.209-2.037 3.776 3.776 0 0 1-1.848-.705 2.783 2.783 0 0 1-1.034-1.574c-.221-.89-.156-1.562.319-2.365a2.998 2.998 0 0 1 1.458-1.259 3.414 3.414 0 0 1 1.96-.165Z" fill="#171619"/></g><defs><clipPath id="clip0_32_612"><path fill="#fff" d="M0 0h460v455H0z"/></clipPath></defs></svg>