<svg width="460" height="440" fill="none" xmlns="http://www.w3.org/2000/svg"><path fill-rule="evenodd" clip-rule="evenodd" d="M221.407 172.649c9.415-7.176 33.047-10.402 43.096-3.493 9.922 6.938 11.004 18.158 15.628 28.481 4.363-2.059 11.569.89 12.834 4.941 1.569 1.913 1.639 7.283 2.72 9.852 47.076 7.501 54.222 44.24 59.888 85.949 7.497 42.323 24.513 84.555 17.125 128.107a25.049 25.049 0 0 1 2.424 4.358c1.681 2.865-.485 6.918-3.877 6.761-4.388-.385-8.735-.912-13.146-1.077-12.226-.424-24.462-.374-36.694-.218l-1.667.021c-61.639.768-123.275 2.282-184.916 2.683-2.236.003-3.33-2.003-3.032-3.985.601-3.986 1.159-7.976 1.742-11.966-14.58 3.856-30.08 4.826-44.618.406-1.017-1.037 2.37-.475 2.907-.632-13.38-9.152-9.385-28.434-8.199-42.322 7.37-47.585 9.968-100.234 38.442-140.838 12.32-16.573 30.379-29.691 51.132-32.644l.578-.078c6.066-.811 12.83-1.071 18.135-4.377 5.968-4.768 8.509-13.579 14.787-13.662 2.072-.027 4.894 2.599 7.928 4.382.226-3.921 2.337-7.23 2.803-10.27l.038-.26c.486-3.544-.18-6.734 3.942-10.119Zm101.168 126.987c-13.229-9.201-47.402-4.577-48.184-4.062-1.724 1.134-2.466 1.234-3.397 2.707-.919.121-1.839.248-2.756.38-1.843.601-.479 2.87 1.649 2.061-1.279 5.525 2.488 9.455 3.988 14.917.485 1.774.016 4.964 0 6.775.144 2.312 2.697 5.042 2.271 7.359-1.511 8.242-9.717 16.281-6.259 24.274 2.293 4.514 9.186 6.817 13.769 8.35 9.495 3.649 26.04-.137 31.556-8.35 2.944-4.38 6.352-15.431 8.107-18.859l.39-5.437c.958-13.517 1.812-28.067-1.134-30.115Z" fill="#FDFBF5"/><path fill-rule="evenodd" clip-rule="evenodd" d="M204.391 188.119c.913-.809 2.265.208 1.684 1.303-1.303 2.458-2.641 4.786-4.392 6.959-1.061 1.318-2.198 2.565-3.35 3.797 2.957 2.559 5.493 5.738 7.886 8.718 3.062 3.81 5.957 7.781 9.394 11.268 3.39 3.439 7.139 5.843 11.669 7.445l.916.318c4.554 1.6 9.418 3.76 11.985 8.075.506.851-.513 1.902-1.37 1.371-4.458-2.763-9.698-3.32-14.552-5.146-4.688-1.763-8.776-4.477-12.387-7.944-3.606-3.458-6.633-7.394-9.79-11.247-3.123-3.809-6.484-7.064-10.177-10.286-5.7 3.838-12.206 5.509-18.821 7.149l-.722.179c-6.625 1.641-13.213 3.547-19.425 6.406-5.478 2.52-10.866 5.529-15.33 9.629-4.736 4.353-8.424 9.911-11.798 15.346-7.548 12.161-12.855 25.484-17.527 38.969a402.631 402.631 0 0 0-12.206 42.81 302.38 302.38 0 0 0-4.137 22.249 332.744 332.744 0 0 0-1.431 10.814c-.446 3.858-.549 7.826-1.733 11.534-.505 1.59-1.702 2.251-2.9 2.193l-.243 3.047c-.323 4.06-.624 8.123-.725 12.208-.168 6.795-.092 13.571.397 20.349l.068.925c.383 4.949 1.24 10.509 4.959 14.132 3.848 3.752 9.769 4.933 14.957 5 12.083.157 23.714-5.558 34.408-10.572a372.334 372.334 0 0 0 32.18-17.112 489.438 489.438 0 0 0 15.791-9.805 421.597 421.597 0 0 0 7.599-5.039c1.44-.979 2.805-2.05 4.272-2.919-.718-.67-1.039-1.721-.438-2.641-4.238-3.684-6.002-10.255-6.21-15.575-.166-4.291.466-8.572.964-12.824.251-2.146.56-4.286.885-6.419.126-.844.224-1.747.372-2.637a349.581 349.581 0 0 1-35.289 16.884 279.796 279.796 0 0 1-18.818 6.954l-1.289.425c-6.023 1.974-12.189 3.838-18.417 4.965-.332.062-.602-.432-.247-.587 6.069-2.68 12.347-4.942 18.506-7.411l1.01-.412a2.212 2.212 0 0 1-.361-.052c-3.612-.872-7.196-2.218-10.74-3.351-3.287-1.051-6.982-1.71-10.054-3.296-.236-.123-.105-.452.126-.468 3.454-.24 7.203.768 10.591 1.362l1.272.222c2.13.376 4.311.781 6.432 1.308.076-.71.473-1.425 1.038-1.844 6.214-4.608 5.583-13.912 6.249-20.774l.493-5.095c.866-8.915 1.783-17.831 3.176-26.68.074-.471.805-.336.809.11.072 10.97-.756 21.888-1.171 32.839l-.064 1.798c-.229 6.759-.409 13.776-4.66 18.976.594-.349 1.397-.349 1.879.226.592.704.933 1.495.922 2.272a605.51 605.51 0 0 0 11.475-4.955c12.238-5.427 24.22-11.502 35.884-18.073 1.257-.708 2.45-.151 3.071.781l.09-.013.045-.004.09-.003h.009c1.643-.903 3.88-.26 5.289 1.056.042.04.076.083.114.125a18.876 18.876 0 0 0 4.96-3.255c3.094-2.807 5.715-6.276 7.998-9.757 4.208-6.41 7.78-13.538 13.464-18.814 4.616-4.286 10.34-6.956 16.345-8.63a.612.612 0 0 1 .164-.488c.309-.316.529-.426.926-.233a.142.142 0 0 1 .065.06l.585-1.002c.32-.544.648-1.093.762-1.236a91.117 91.117 0 0 1 2.097-2.547c1.208-1.414 2.583-2.808 4.177-3.789 3.489-2.146 7.157-.932 10.746.242 2.168.708 4.327 1.439 6.491 2.16l.224.072c1.613.519 3.501.974 4.222 2.684a3.5 3.5 0 0 1 .196 2.061c15.325-3.899 32.345-2.107 47.3 2.471.574.177 1.146.649 1.267 1.27 1.713 8.796 2.477 17.817 1.701 26.761-.668 7.724-2.378 15.29-5.598 22.359l-.184.4c-3.027 6.551-7.825 14.628-15.152 16.682-4.424 1.239-9.316.509-13.828.282-4.385-.223-8.868-.253-13.211-.943-3.869-.616-7.259-2.352-9.648-5.5-2.064-2.717-3.148-6-4.038-9.266-.408.13-.813.269-1.212.424-1.68.658-3.104 1.718-4.391 2.966-2.719 2.635-4.827 5.836-7.672 8.35-2.576 2.278-5.509 4.048-8.657 5.41-6.521 2.821-13.518 3.948-20.415 5.442l-.482.105c-5.193 1.141-10.493 2.541-15.077 5.249-.091.796-.452 1.546-1.033 2.037.807.761 1.15 1.964.44 3.093-1.985 3.153-5.404 4.947-8.472 6.963l-.199.131a370.608 370.608 0 0 1-28.208 17.031c-10.391 5.685-21.007 11.045-31.814 15.908.65 3.195.412 6.488.899 9.705l.074.458c.21 1.194-.072 2.191-.893 2.972l-.087.079v-.011l-.076.073-.025.021.007-.007a2.88 2.88 0 0 1-.29.237l-.127.081c-.792.48-1.81.475-2.621.05l-.09-.05-.157-.089c-1.07-.617-1.809-2.144-1.365-3.356 1.092-2.98 1.504-6.162 2.511-9.163l-.799.358-1.053.461c-11.395 4.931-24.05 9.085-36.465 5.722-5.486-1.485-10.612-4.63-13.358-9.752-2.7-5.041-3.081-10.895-3.224-16.504a133.024 133.024 0 0 1 1.105-20.811c.612-4.606 1.354-9.298 2.495-13.857a3.44 3.44 0 0 1-1.134-2.184c-.54-4.355.404-8.881.982-13.211.563-4.23 1.186-8.451 1.892-12.658a435.985 435.985 0 0 1 5-25.374c3.426-14.946 7.95-29.625 13.393-43.956l.479-1.248c5.032-13.097 10.857-25.914 18.971-37.42 3.881-5.505 7.983-10.496 13.465-14.464 5.139-3.715 10.934-6.392 16.914-8.437 5.987-2.046 12.141-3.419 18.404-4.272 6.359-.867 13.072-1.398 19.005-4.009-.75-1.346-.108-3.165 1.156-4.001 4.251-2.811 8.182-6.468 11.991-9.848Zm136.068 122.244c.177-.271.601-.099.522.22-2.067 8.479-4.007 16.975-5.274 25.614-2.289 15.595-1.867 31.393-1.681 47.103l.009.811c.098 8.462.231 16.924.509 25.383.143 4.275.421 8.592.269 12.869-.083 2.321-.7 4.516-.919 6.808-.191 2.005-.021 4.039.074 6.047.065 1.335-1.902 1.277-2.038 0l-.169-1.652c-.224-2.092-.498-4.171-1.183-6.172-.823-2.408-1.218-4.772-1.503-7.301-.439-3.874-.634-7.787-.802-11.686l-.115-2.699c-.706-16.303-.681-32.682.46-48.967l.085-1.163c1.13-15.393 3.09-32.026 11.756-45.215Zm-44.067-97.02c-.541-.222-.351-1.038.248-.896l1.086.259c7.968 1.911 15.793 3.981 23.23 7.535 7.442 3.558 13.742 8.869 18.749 15.398 9.731 12.694 13.776 28.121 16.969 43.532 3.547 17.127 6.778 34.315 10.357 51.434l.665 3.19c3.31 15.945 6.438 31.9 8.742 48.033l.166 1.17c2.323 16.592 3.72 33.757 1.184 50.392-.5 3.291-5.971 2.471-5.758-.78.619-9.399 1.061-18.75.633-28.17a298.752 298.752 0 0 0-2.626-28.144c-1.108-7.861-2.76-15.624-4.22-23.422l-.23-1.232c-1.223-6.632-2.483-13.257-3.741-19.883l-1.881-9.921c-2.82-14.855-5.693-29.723-8.941-44.484l-.193-.869c-3.177-14.202-7.861-29.078-17.393-40.356-9.674-11.445-23.52-17.208-37.046-22.786Zm-35.148 150.638c.233-.52 1.046-.463 1.296 0 .981 1.81 1.089 4.12 1.275 6.164l.02.21c.234 2.494.444 4.998.572 7.499.242 4.749.357 9.49.343 14.246a290.333 290.333 0 0 1-.376 14.605l-.072 1.303c-.238 4.228-.641 8.944-2.648 12.641-.729 1.344-2.713.949-3.135-.41-1.385-4.45-.673-9.726-.32-14.283l.277-3.557c.272-3.556.534-7.113.74-10.675.283-4.871.516-9.746.74-14.619.074-1.584.153-3.167.236-4.751l.128-2.373c.109-1.987.1-4.165.924-6Zm-155.648 6.305.614-.592c1.881-1.843 4.258-4.682 7.04-4.505 1.108.071 1.814.992 1.585 2.084-.491 2.334-2.87 3.546-4.583 4.971-1.878 1.561-3.645 3.23-5.41 4.915a105.161 105.161 0 0 0-4.542 4.615l-.548.596c-.527.574-4.278 3.972-3.872 4.853l.022.04c.111.168-.076.399-.262.341-1.621-.513-1.52-1.902-.908-3.31 1.177-2.706 3.238-5.21 5.038-7.52a63.353 63.353 0 0 1 5.826-6.488Zm161.519-67.856c-1.253-2.964-5.869-2.903-8.488-2.724-6.597.446-13.736 2.117-19.606 5.204-6.085 3.199-10.184 8.327-13.852 13.996l-.172.268c-3.576 5.563-7.02 12.148-12.617 15.972-2.852 1.949-6.181 3.73-9.641 4.499a1.757 1.757 0 0 1-1.126.869l-.235.054c-.986.219-2.516.459-3.839.315.009.648.003 1.291.02 1.903.045 1.76.065 3.524.065 5.284.001 3.684-.197 7.378-.044 11.063.137 3.26.598 6.667 2.161 9.58 1.146 2.139 2.661 3.553 4.487 4.904 4.495-2.742 9.576-4.414 14.735-5.672 6.238-1.519 12.624-2.532 18.722-4.593 2.933-.993 5.754-2.29 8.31-4.055 2.713-1.871 4.784-4.405 6.916-6.883l.333-.385c2.176-2.498 4.549-4.888 7.625-6.242 2.646-1.165 6.137-1.373 8.451-3.179 1.211-.945 1.313-2.314 1.441-3.718-1.484.212-3.053-.128-4.531-.301l-.765-.091c-1.397-.166-2.764-.348-4.139-.704-.255-.067-.255-.452 0-.518 1.626-.419 3.238-.598 4.904-.795l.392-.049c1.507-.197 3.092-.497 4.572-.164a12.514 12.514 0 0 1 1.186-2.943c.754-1.358 2.182-2.897 2.375-4.483a2.6 2.6 0 0 0-.274-1.452l-.078-.143a1.197 1.197 0 0 0-.366-.442c-.018.022-.058.045-.139.07-1.139.36-2.132-.198-2.659-1.058-2.238.278-4.679.184-6.778.278l-2.121.103c-2.267.103-4.637.148-6.767-.309-.298-.065-.386-.56-.088-.688 2.617-1.12 5.794-1.477 8.597-1.909 1.567-.24 3.144-.425 4.715-.636 1.045-.141 2.155-.374 3.238-.43 2.717-3.385 1.253-8.726-2.527-10.183-1.377.607-2.616.254-4.121.124a50.395 50.395 0 0 0-4.514-.209c-3.022.012-6.224.809-9.215.466-.488-.056-.939-.705-.455-1.1 2.291-1.871 5.572-2.48 8.48-2.879l.601-.082c.975-.128 2.161-.314 3.39-.424.278-.544.778-.954 1.527-1.057.222-.03.446-.047.67-.067l-.004-.021c1.827-.089 1.748-3.179 1.248-4.364Zm-125.109 57.806c-.033.05-.068.097-.106.143l-.058.067.3-.121-.138-.089h.002Zm156.998-64.43c-7.693-.827-15.395-.652-23.11-.429-.617 2.019-2.765 3.74-4.846 3.805 1.63 2.484 1.798 5.845.655 8.479 2.428.966 4.518 2.704 5.787 5.178 1.76 3.428 1.529 7.245-.209 10.413 1.483 1.346 2.359 3.531 2.272 5.59-.099 2.296-1.466 4.258-2.601 6.16-1.227 2.055-1.269 3.865-1.646 6.168-.552 3.37-2.823 5.413-5.744 6.69l.155.612c.753 2.936 1.69 6.031 3.843 8.177 2.769 2.762 7.065 2.737 10.724 2.91l.177.009c3.35.168 6.699.365 10.049.555l2.512.14c3.856.212 7.56.237 10.708-2.313 5.139-4.167 8.663-11.06 10.892-17.163 4.68-12.81 4.736-26.868 2.588-40.21-7.206-2.325-14.682-3.961-22.206-4.771Zm-63.967 21.254.056.004c1.585.181 2.671 1.465 3.059 2.987.564 2.213.287 4.214 1.641 6.212 1.394 2.056 2.249 3.701 2.451 6.239.084 1.044.046 2.086.278 3.108l.168.716c.179.764.325 1.499.237 2.319-.081.748-.444 1.331-1.195 1.571-2.441.782-4.327-1.02-4.957-3.298-.545-1.967.182-4.311-.586-6.159-.426-1.024-1.212-1.88-1.656-2.912a9.531 9.531 0 0 1-.731-3.2c-.133-2.101 1.722-4.626.686-6.53-.22-.406.031-1.069.549-1.057Zm-32.435-21.683c1.653-.336 3.529-1.108 5.159-.466.839.33 1.252 1.352.545 2.064-1.229 1.234-3.016 1.302-4.673 1.593l-.145.025c-1.958.364-3.92.709-5.884 1.034a274.266 274.266 0 0 1-11.119 1.614c-3.818.474-7.647.894-11.481 1.212l-1.483.121c-3.239.261-6.609.456-9.787-.041-.462-.072-.387-.746 0-.863 3.482-1.055 7.299-1.337 10.899-1.785 3.826-.475 7.648-.977 11.456-1.571a402.066 402.066 0 0 0 11.388-1.94c1.712-.318 3.419-.651 5.125-.997Zm59.664-3.387c-1.451-.515-3.049-1.275-4.621-1.021-2.711.439-5.124 3.084-7.271 4.825l1.078-.21c5.514-1.06 12.816-2.203 17.446 1.306.011-.02.02-.04.034-.059.374-.569.807-1.012 1.278-1.498.045-.043.09-.086.132-.132l.256-.271-.583-.202c-1.249-.442-2.729-1.013-2.962-1.096l-.016-.006c-1.594-.54-3.188-1.074-4.771-1.636Zm-45.305-115.698c-.227-2.921 4.314-2.897 4.54 0 .491 6.325-.932 12.591-3.993 18.138-.022.04-.047.076-.07.114a88.96 88.96 0 0 0 5.83 2.809 85.79 85.79 0 0 0 7.736 2.935c2.376.766 5.302 1.067 7.298 2.659 4.211 3.357 2.628 10.322 1.82 14.838l-.127.711c-.404 2.323-.695 4.707.284 6.938 1.045 2.381 3.157 4.147 5.041 5.852l.381.345c1.672 1.523 3.58 3.374 4.803 5.439 1.12-2.314 2.643-4.205 4.255-6.335 1.15-1.519.33-2.021-.495-3.504-.796-1.428-1.184-2.951-.935-4.582.459-3.009 2.861-5.182 5.253-6.817 2.825-1.927 5.978-3.356 8.899-5.149 6-3.687 11.843-7.901 17.106-12.581.147-.128.398.042.282.217-4.159 6.333-9.034 11.804-15.027 16.449-2.431 1.882-4.984 3.445-7.554 5.087l-.738.475c-1.033.668-2.32 1.564-2.786 2.702-.469 1.145.533 2.01 1.071 2.96 1.711 3.013.886 5.825-1.143 8.381l-.094.117c-2.016 2.488-3.545 4.8-4.274 7.977-1.571 6.826.615 13.933 2.904 20.34l.092.253c1.239 3.453 2.554 6.881 3.63 10.389l.296.97c.975 3.229 1.773 6.412.679 9.732-.372 1.129-1.91 1.396-2.549.332-2.252-3.746-2.814-8.254-4.227-12.372-1.377-4.016-2.957-7.957-4.287-11.988-1.713-5.19-2.859-10.776-2.237-16.22-.018-.033-.038-.062-.054-.096l-.435-.954c-1.189-2.584-2.337-4.84-4.498-6.901-2.255-2.15-4.702-4.052-6.477-6.653-3.852-5.649-1.469-11.935-1.003-18.112l.052-.759c.085-1.282.132-3.025-.706-3.914-.942-.999-3.149-1.254-4.399-1.696-3.229-1.144-6.409-2.477-9.44-4.077-2.884-1.523-5.679-3.206-8.28-5.177l-1.319-.993c-2.08-1.571-4.237-3.287-5.632-5.428-.161-.245.112-.643.404-.525 2.327.946 4.455 2.451 6.632 3.759.034-.08.074-.161.117-.241 2.695-4.882 3.804-10.292 3.374-15.844Zm74.356 33.448c.927-2.547 5.155-2.35 4.985.675-.128 2.325-1.113 4.422-2.014 6.532l-.098.225a41.961 41.961 0 0 1-3.29 6.279c-2.457 3.851-5.336 7.425-8.41 10.799-2.787 3.058-6.444 4.929-10.659 4.619-1.776-.132-3.568-.584-5.124-1.472-1.849-1.055-3.858-4.223-6.215-3.456-.228.074-.441-.26-.244-.419 2.722-2.194 5.812 1.209 8.419 2.029 3.928 1.235 7.958-.13 10.485-3.309 2.639-3.318 5.069-7.034 7.287-10.648a51.208 51.208 0 0 0 3.042-5.7c.897-1.982 1.101-4.135 1.836-6.154Zm-6.331-15.667c-.113-.353.322-.687.63-.486 1.789 1.165 3.34 2.705 4.989 4.056a249.998 249.998 0 0 0 5.549 4.411c2.729 2.106-.437 5.984-2.839 3.683-3.289-3.148-6.892-7.264-8.329-11.664Zm-9.821-12.324c.726-2.805 5.025-1.648 4.399 1.125l-.022.083c-1.186 4.581.504 9.242 4.112 12.212l.132.108c2.282 1.828-.951 5.023-3.211 3.214-4.932-3.952-6.984-10.666-5.41-16.742Z" fill="#000"/><path fill-rule="evenodd" clip-rule="evenodd" d="M312.498 92.441c-1.416-11.307-5.861-23.313-10.538-33.856-10.517-22.289-34.589-25.357-56.17-29.953-21.296-3.103-43.848-5.906-64.823.288-11.791 2.89-16.397 16.95-14.536 28.043 1.063 6.913 4.206 13.457 6.886 19.863 5.329 13.157 8.708 27.244 8.715 41.488-.367 9.309-1.679 19.935 9.007 23.878 10.17 5.063 11.029 18.786 23.764 26.571 5.148 10.44 19.173 11.36 29.269 13.782a195.725 195.725 0 0 0 19.303 2.704c18.733 2.402 33.72-3.033 43.527-19.739 6.563-10.167 11.449-21.906 10.242-34.228-1.202-12.976-3.206-25.883-4.646-38.84Z" fill="#FDFBF5"/><path fill-rule="evenodd" clip-rule="evenodd" d="M245.953 1.545c1.07-1.214 2.718-.797 3.718.162.65.192 1.282.477 1.877.856 1.345-.173 2.757-.173 4.078-.126.32-.179.662-.34 1.036-.477 2.67-.975 5.034-.48 6.984.827.939-.888 2.124-1.446 3.639-1.362 1.352.074 2.316.712 3.141 1.55a5.01 5.01 0 0 1 3.812-2.153c2.318-.166 4.545.764 6.392 2.204 1.075-1.234 2.543-1.944 4.177-1.951a6.998 6.998 0 0 1 3.236.191 8.848 8.848 0 0 1 3.836 2.388c1.648-1.578 3.664-2.714 5.989-2.548 3.009.216 5.502 2.43 6.662 5.156 2.036.817 3.916 1.982 5.488 3.644.083.086.164.178.247.27a7.957 7.957 0 0 1 2.345 1.339c2.224 1.853 2.72 4.534 1.984 7.158.102.42.191.849.27 1.275 2.082.316 3.973 1.52 5.049 3.48 1.473 2.687 1.182 6.229-.412 8.795a11.849 11.849 0 0 1-2.532 2.845c1.105 2.51.576 5.51-1.206 7.541a9.776 9.776 0 0 1-1.567 1.906c.663 2.597-.514 5.276-2.864 6.665l-.201.502-.102.25c-.028.107-.06.21-.091.313a5.12 5.12 0 0 1-.96 2.679c-1.233 1.747-2.76 2.885-3.57 4.924l-.08.213c-.348.965-1.473 1.645-2.431 1.347 5.319 10.935 8.106 23.102 10.021 35.023.955 5.948 1.692 11.918 2.289 17.909l.587 5.966c.514 5.303.973 10.624.976 15.945.008 12.037-3.433 23.615-10.815 33.193-6.982 9.055-16.863 15.617-28.026 18.202-11.523 2.664-25.043 1.614-35.377-4.485-3.047-1.794-.377-6.109 2.722-4.666 5.87 2.735 11.834 4.765 18.339 5.218a47.125 47.125 0 0 0 18.713-2.423c9.95-3.44 18.416-10.643 23.858-19.614 2.68-4.42 4.623-9.219 5.655-14.289 1.287-6.319 1.092-12.85.621-19.251l-.034-.435c-.934-12.332-2.166-24.739-4.156-36.945-1.76-10.796-4.465-21.373-7.978-31.717a18.926 18.926 0 0 0-4.561-2.977 326.736 326.736 0 0 0-36.19.477 301.001 301.001 0 0 0-30.642 3.688l-1.087.192c-2.246.399-4.74.628-6.856 1.535-1.816.777-2.552 2.274-3.009 4.113-1.151 4.654-1.326 9.746-1.521 14.518-.192 4.666.24 9.369-.134 14.016-.316 3.891-1.312 7.874-4.191 10.688-1.506 1.472-3.359 2.278-5.098 3.396-1.126.722-1.603 1.466-1.456 2.803.312 2.924 2.664 6.607.021 9.112-.465.439-1.269.495-1.727 0-1.09-1.186-2.598-2.093-3.89-3.05a.518.518 0 0 1 .523-.895c.809.364 1.632.792 2.475 1.165-1.861-1.533-4.507-2.286-6.713-2.732a12.027 12.027 0 0 0-3.429-.183 64.062 64.062 0 0 1-5.961 2.446c-3.917 3.195-5.787 8.392-4.971 13.473.446 2.805 1.738 5.855 4.175 7.494 2.888 1.938 6.755 1.105 9.874 2.545 2.922 1.347 4.698 4.069 6.029 6.887l.556 1.172c1.234 2.597 2.505 5.126 4.193 7.489 1.951 2.738 4.343 5.196 6.951 7.308a35.42 35.42 0 0 0 4.009 2.778l.381.225c1.41.829 2.421 1.619 2.516 3.371.031.61-.354 1.168-.85 1.484-2.135 1.357-4.26-.339-6.036-1.522a43.752 43.752 0 0 1-5.449-4.276 42.117 42.117 0 0 1-8.167-10.326c-1.635-2.917-2.565-7.021-5.151-9.28-1.578-1.378-3.809-1.389-5.782-1.642-1.834-.237-3.568-.618-5.2-1.523-6.639-3.692-8.516-12.627-6.941-19.534a20.65 20.65 0 0 1 1.102-3.39c-2.472.413-5.248-2.144-4.244-4.725.076-.195.162-.378.247-.566a8.507 8.507 0 0 1-3.523-4.824 7.687 7.687 0 0 1-.195-3.284 5.291 5.291 0 0 1-1.859-2.157c-1.313-.606-2.477-1.515-3.17-2.814-.962-1.79-.84-3.439-.108-4.923-.104-.189-.202-.38-.296-.573-2.69-1.707-4.567-4.646-4.351-7.906a8.039 8.039 0 0 1 .746-2.931 9.929 9.929 0 0 1-.099-.336c-2.25-1.147-4.111-3.028-4.775-5.54-.662-2.529.119-5.047 1.682-6.986-2.288-1.677-3.664-4.016-2.83-7.556a9.356 9.356 0 0 1 1.946-3.85.902.902 0 0 0-.018-.104l-.217-.166c-2.823-2.23-4.447-5.075-2.713-8.572.777-1.572 1.887-2.668 3.192-3.39l.065-.206c-.935-2.005-1.251-4.23-.607-6.57.525-1.927 1.773-3.462 3.367-4.481a9.426 9.426 0 0 1 .081-2.782 7.027 7.027 0 0 1 2.341-4.194 7.53 7.53 0 0 1 .168-.655 11.787 11.787 0 0 1 2.076-3.853c.734-.889 1.557-1.214 2.565-1.248a9.209 9.209 0 0 1 .148-2.496c.516-2.603 2.171-5.05 4.622-6.161a5.917 5.917 0 0 1 3.089-.479c.87-1.832 2.567-3.16 4.653-3.446a7.841 7.841 0 0 1 2.262-.004c.392-.184.8-.347 1.227-.497.282-.099.569-.191.854-.281a8.927 8.927 0 0 1 3.719-2.733 7.01 7.01 0 0 1 5-.04l.491-.103c.77-1.336 1.998-2.37 3.886-2.84 2.143-.53 4.343.21 6.029 1.558.007 0 .016 0 .027-.004.881-1.974 2.386-3.349 4.915-3.251 1.576.06 2.998.843 4.096 1.958.61-.078 1.22-.145 1.834-.215a16.112 16.112 0 0 1 2.166-2.106c1.305-1.048 3.001-.963 3.962.511.211.32.404.645.599.97l.881-.061c1.038-1.402 2.453-2.349 4.39-2.424 1.776-.073 3.043.796 4.007 2.015.785-.02 1.576-.036 2.365-.047a14.384 14.384 0 0 1 3.238-2.781c.946-.596 2.341-.394 3.108.4.518.539 1 1.103 1.448 1.686a7.908 7.908 0 0 1 4.381-2.475v-.001Zm-56.125 121.223c1.78-1.015 4.175.085 5.899.946 2.101 1.051 4.188 2.635 5.473 4.621 1.749 2.702-2.365 4.885-4.208 2.461-1.131-1.492-2.036-2.996-3.407-4.302-1.255-1.199-3.074-1.999-3.797-3.58-.025-.054-.018-.116.04-.146Zm1.251-65.602.034-.096c.506-1.387-1.704-1.987-2.205-.61-.762 2.085.115 4.352 2.171 5.252.571.25 1.222.162 1.567-.412.289-.482.153-1.319-.412-1.566-1.155-.506-1.545-1.402-1.155-2.568Zm-19.043-3.88c1.106-.976-.516-2.592-1.618-1.619-1.028.909-1.79 2.14-1.592 3.559.203 1.445 1.291 2.467 2.482 3.188 1.264.764 2.416-1.216 1.156-1.978l-.143-.087c-.527-.329-1.146-.78-1.236-1.427-.094-.686.487-1.224.951-1.636Zm6.281-17.244.08-.058c1.188-.849.047-2.836-1.155-1.978-1.102.788-1.986 1.812-2.08 3.222-.09 1.373.607 2.56 1.518 3.524 1.015 1.075 2.63-.547 1.619-1.618-.987-1.044-1.18-2.182.018-3.092Z" fill="#000"/><path fill-rule="evenodd" clip-rule="evenodd" d="M281.178 151.724c.585-1.019 1.934-1.962 3.165-1.817 5.521.648 5.512 7.349 3.38 11.261-1.889 3.468-5.803 5.506-9.718 5.208-4.114-.313-7.619-2.735-9.161-6.586-1.021-2.548-1.492-7.253 1.222-8.964.051-.032.134-.025.174.022 1.301 1.515 1.352 3.789 2.491 5.476 1.059 1.57 2.705 2.865 4.633 3.065 1.441.15 2.897-.37 3.461-1.665.305-.699.269-1.08.155-1.561l-.105-.419c-.361-1.466-.522-2.583.303-4.02Zm1.477-29.389c2.879 1.752 7.267 5.837 4.17 10.181-3.647 3.831-8.898-.561-11.484-2.546-2.399-1.541-5.094 2.418-2.868 4.215 18.695 13.856 26.281-11.392 11.639-13.911-1.612-.277-2.212 1.519-1.457 2.061Zm-30.41-12.015c1.767-2.656 5.802-2.265 6.776.885.527 1.707-.202 3.24-.164 4.945.033 1.44-.063 3.044-.504 4.438-1.005 3.179-3.861 5.424-7.24 5.332-3.368-.094-6.334-2.227-7.745-5.233-1.415-3.018-1.116-6.139-.083-9.208.05-.146.244-.218.359-.094 1.222 1.299 2.116 2.672 3.042 4.127l.947 1.491c.726 1.123 1.778 2.559 3.132 2.469l.202-.02c.377-.033.32.041.61-.472.134-.236.109-.679.174-.959l.023-.094-.013-.052a5.989 5.989 0 0 1-.079-.834l-.005-.098c-.098-2.075-.685-4.743.568-6.623Zm44.805 1.766c-.317-3.396 4.451-4.149 6.036-1.636.827 1.309 1.069 2.955 1.251 4.515l.085.739c.188 1.602.264 3.267-.431 4.761-1.094 2.354-3.473 3.596-6.038 3.399a7.351 7.351 0 0 1-5.865-3.767c-1.05-1.928-2.096-5.688-.819-7.698a.218.218 0 0 1 .337-.044c1.206 1.073 1.403 3.027 2.119 4.424.74 1.439 1.861 2.843 3.562 3.061 1.624.21 2.247-.681 1.832-2.232-.536-2.003-1.867-3.365-2.069-5.522Zm-43.516-21.953.78-.298c2.671-1.011 6.339-2.178 8.511-.003 1.341 1.34 1.595 3.316.639 4.952-1.159 1.983-3.239 2.032-5.246 2.323a27.67 27.67 0 0 0-6.729 1.864c-2.395 1.015-4.617 2.28-6.794 3.69-2.071 1.342-4.132 3.537-6.609 3.95-.101.017-.216-.027-.242-.139-.563-2.424 1-4.81 2.396-6.7 1.687-2.29 3.733-4.17 6.018-5.853 2.207-1.627 4.727-2.803 7.276-3.786Zm48.532 8.62.239-.042c1.621-.271 3.088-.208 4.308 1.076.934.979 1.293 2.249.849 3.546-.41 1.196-1.327 2.41-2.657 2.661-4.493.845-9.468.704-13.982.065-2.067-.293-4.15-.652-6.163-1.218l-.924-.269c-1.68-.48-3.603-.982-4.823-2.218-.439-.444-.186-1.08.339-1.286 2.129-.834 5.045-.392 7.316-.457 2.644-.083 5.284-.265 7.914-.545 2.566-.268 5.052-.85 7.584-1.314Z" fill="#000"/><path fill-rule="evenodd" clip-rule="evenodd" d="M248.679 161.587c3.087-7.241 9.827-12.562 17.585-14.509 5.697-1.423 11.677-1.378 17.484-.813 3.043.295 6.307.535 9.175 1.667 2.449.967 4.444 2.793 5.946 4.937 1.785 2.541 3 5.449 3.853 8.429.121.425.235.851.342 1.281-.372 2.249-1.159 4.163-3.24 5.578-2.031 1.38-4.454 1.945-6.869 2.146-.229-.11-.455-.226-.677-.351-3.763-2.158-6.411-7.255-11.162-6.565-4.24.615-7.031 5.956-9.552 9.087-8.092.944-16.179-1.491-22.764-6.123a13.43 13.43 0 0 1-.121-4.764m59.885-5.492a31.453 31.453 0 0 0-2.43-5.24 29.78 29.78 0 0 0-13.924-12.36c-13.775-5.903-31.598-1.741-42.722 7.942-3.8 3.311-7.643 8.175-8.805 13.407a1.946 1.946 0 0 0-.944.504c-8.038-5.066-16.314-9.939-22.791-16.96-4.704-5.103-7.975-11.141-9.978-17.775-.165-.546-1.044-.466-1.017.139l.022.423c-.083-.26-.478-.127-.509.126-1.077 8.059-2.426 16.605-1.184 24.707.742 4.834 2.935 8.372 5.868 12.194 3.143 4.097 6.699 7.906 10.336 11.56 2.309 2.319 4.718 4.994 7.545 6.696 3.287 1.976 7.015 3.477 10.522 5.001a136.274 136.274 0 0 0 10.881 4.239c7.377 2.5 15.001 4.227 22.76 4.984 6.211.603 13.31 1.261 19.263-1.078 4.561-1.792 8.244-5.033 11.166-8.93 3.179-4.247 5.693-9.084 7.083-14.183 1.444-5.298-.839-14.544-1.142-15.396" fill="#000"/></svg>