<svg width="460" height="364" fill="none" xmlns="http://www.w3.org/2000/svg"><path fill-rule="evenodd" clip-rule="evenodd" d="M213.106 124.476c9.439.467 24.137 4.515 24.873 7.103 1.147 4.041-1.319 19.192 2.805 27.353 1.758 3.478 8.434 3.166 11.02 4.3 8.655 3.789 34.276 10.98 39.56 20.032 2.117 3.627 15.123 48.626 22.034 71.584a66.651 66.651 0 0 0 2.615 7.198l.352-1.721c2.818-13.876 4.227-22.277 4.227-25.201 0-4.57-3.642-23.847 0-28.75 3.606-4.854 12.296-8.823 16.208-8.901l.116-.002c2.568 0 4.795-.802 6.683-2.408l2.768-1.393c14.081-7.071 22.31-10.949 24.681-11.636 3.787-1.095 10.23 1.238 7.009 4.742-2.149 2.335-7.546 6.466-16.192 12.394l-3.26 2.591.394.205c4.213 2.22 6.69 4.089 7.432 5.606.764 1.563.398 3.412-1.101 5.547l.227.223c1.894 1.859 2.842 3.108 2.842 3.743v3.102c1.884 2.761 2.356 5.064 1.413 6.909-.942 1.844-2.436 3.443-4.482 4.794-1.506 3.967-3.302 6.79-5.385 8.47-2.081 1.681-5.681 3.079-10.797 4.196l-4.629 11.076-3.752 15.562-1.891 17.364.549.397c2.545 1.853 4.174 3.228 4.174 4.649 0 2.212-10.264 54.243-26.234 56.572-3.453.505-21.365-1.967-27.246-6.753l.087.517c1.383 8.362 1.09 12.705-.879 13.029-24.201 3.97-92.932 5.196-206.196 3.68-.675-60.151 2.373-100.212 9.14-120.18 17.311-51.071 36.397-68.514 43.073-70.008 5.848-1.309 26.129-9.386 31.798-11.529 3.7-1.399 4.493-5.595 8.711-5.595l.341.002c4.078.041 7.694.77 9.727-1.329 5.331-5.507 3.842-13.132 6.053-20.431 1.22-4.022 9.548-7.675 21.132-7.103Z" fill="#FDFBF5"/><path fill-rule="evenodd" clip-rule="evenodd" d="M187.173 138.897c.554-1.099 2.025-.956 2.996-.457 2.911 2.127-.135 6.256-.941 8.854-2.07 5.04-5.668 9.964-10.635 12.321.413 5.01.879 10.008 1.051 15.034 6.35 7.88 17.054 10.757 26.557 12.969 14.925 4.13 31.77-4.332 36.807-19.093-5.734-3.26-7.589-11.794-5.878-17.75.149-.417.796-.603 1.026-.135 1.571 3.231 1.362 7.172 3.146 10.365 17.132 1.641 39.239 8.109 50.463 21.971 4.973 6.934 6.943 15.954 9.393 23.993 5.227 16.57 9.391 33.475 14.517 50.063l.604-3.138c1.656-8.646 3.161-17.409 2.043-26.201l-.02-.42c-.367-6.997-2.554-19.999 2.868-24.721 4.905-3.751 12.011-6.765 18.166-5.036 10.952-4.877 20.406-13.089 32.072-16.289 3.59-.738 8.756.137 7.906 5.01-2.351 8.524-12.201 11.833-18.932 16.228 4.316 1.17 9.576 6.422 6.204 11.001-.022.066-.049.13-.08.192 2.733 1.212 3.117 4.26 2.446 6.872-.069.691-.25.099.155.724 3.086 2.912 1.723 11.027-2.926 11.302.305 3.846-2.164 7.582-5.292 9.679-3.369 2.259-8.242 2.358-11.033 5.45-6.551 11.558-8.81 25.204-9.525 38.438 4.319 1.619 8.193 6.454 4.27 10.558-.078.009-.155.018-.233.025-2.275 6.073-3.153 12.547-4.356 18.889-1.85 10.823-6.673 20.759-12.831 29.775-7.121 11.934-26.272 10.042-35.919 2.339.039 2.022.371 4.03-.274 5.983-.956 2.107-3.283 1.197-3.514-.879-5.1 2.871-6.301-6.602-.632-5.101-.436-6.848-.689-13.705-.893-20.564-6.418 2.079-6.696-8.577-.13-6.446l-.008-2.946c-.049-22.586.201-45.251 3.18-67.659.276-1.675.742-3.297 1.014-4.963.029-.173.299-.124.299.041.461 31.373-1.588 62.812.55 94.197 1.779.541 2.489 2.585 3.807 3.777 2.926 2.701 6.911 4.017 10.807 4.476 10.909 1.531 15.619-1.803 20.478-11.292-2.192 1.465-5.152-1.122-3.816-3.441l.042-.071c1.386-2.458 5.303-.985 4.808 1.767 4.885-7.827 7.442-16.652 9.33-25.607l.254-1.07c.919-3.802 2.109-8.159 4.313-11.598-13.44-3.427-26.589-13.871-28.693-28.2-3.413 10.728-8.035 21.215-12.442 31.65-1.36 3.628-1.928 7.528-3.879 10.894-.454.779-1.604.578-1.86-.243-1.755-7.848 3.561-15.313 6.322-22.379 2.253-3.993 8.724-22.226 12.735-22.271-4.508-19.768-10.519-39.387-16.244-58.909-5.537-26.358-16.819-31.442-40.718-39.742 4.31 21.982 23.992 43.26 13.518 66.316l-.254.598c-1.071 2.542-1.96 5.103-1.213 7.893.727 2.708 2.378 5.058 3.701 7.493 7.391 13.754 2.303 29.818-.554 44.142-3.611 16.796-7.176 33.61-10.907 50.381-.736 3.345-1.213 6.793-2.323 10.036-.574 1.672-3.436 1.514-3.25-.439.353-3.786 1.415-7.48 2.193-11.199 4.647-24.078 10.933-47.871 14.931-72.053 2.571-17.901-7.552-20.652-7.173-32.219 1.376-5.916 5.017-11.194 4.808-17.499.81-19.296-13.238-35.217-14.972-53.985l-3.063-1.092a473.353 473.353 0 0 1-4.583-1.666c8.021 56.132 5.586 113.49 1.577 169.9-.819 2.602-.04 20.785-3.476 19.172-.173 1.015-.711 2.014-1.885 2.009-10.65.098-21.305.267-31.955.393-5.125-.473-12.166 1.485-16.523-1.473-5.031-1.436-5.611-15.071-6.956-19.929l-.523-3.535c-8.55-57.749-16.201-116.687-10.055-175.009-8.551.33-10.314 9.562-10.949 16.285-1.585 14.837-11.166 27.616-11.626 42.624a25.428 25.428 0 0 0 2.103 10.512c3.858 8.191 10.533 17.659 5.546 26.807-5.901 7.121-5.39 8.996-3.224 17.797 6.089 29.094 16.205 57.063 25.826 85.114-2.09 10.903-14.665-29.573-15.848-32.624-5.567 2.8-8.607-6.494-2.222-7.156-4.101-13.735-7.876-27.573-11.017-41.564l-.083-.394c-1.388-6.463-4.118-14.032.491-19.767 11.888-12.028-7.853-25.473-5.362-40.045-2.15 1.595-5.407-.083-5.357-2.762-.097-3.017 3.952-4.562 5.901-2.261 2.003-11.822 8.974-22.143 11.083-33.931l.097-.554c.715-4.165.915-8.549 2.96-12.346-2.784 1.81-5.749 3.272-8.798 4.562 5.453 4.556-5.104 8.715-4.231 1.677-29.897 8.654-36.657 20.724-47.632 48.442 2.051-1.993 5.563.587 4.336 3.129-.98 2.679-5.252 1.895-5.25-.96l-.5 1.195c-6.657 15.926-12.715 32.238-15.76 49.281 5.973-.843 4.452 8.708-.96 6.015-2.171 15.159-2.205 30.53-1.94 45.81 5.037-2.643 5.189 6.339.05 3.778.186 12.522.463 25.044.67 37.566.041 2.664-4.068 2.652-4.132 0-.48-19.241-1.355-38.515-.939-57.762-.391-33.405 9.206-65.601 23.506-95.523 12.652-34.454 30.129-38.372 62.284-48.39 2.968-4.409 9.308-8.579 14.483-5.809 2.894-4.676 4.365-10.216 6.506-15.197Zm-55.092 120.081c.121-.425.727-.318.747.101.269 5.405.029 10.844-.34 16.272-.224 3.314-.5 6.624-.734 9.915a949.803 949.803 0 0 0-1.496 26.075 3.675 3.675 0 0 1 3.909.718l.092.09c.354.322.618.731.767 1.186.21.407.319.842.317 1.307l-.001.117a3.72 3.72 0 0 1-1.827 3.189 3.673 3.673 0 0 1-1.863.503c-.072.006-.143.014-.215.017a2.723 2.723 0 0 1-1.386-.308l-.065-.02a914.07 914.07 0 0 0-.393 13.245c-.087 3.849-.204 7.697-.282 11.546l-.035 1.925-.071 4.254c-.023 1.75-.012 3.426-.605 5.076l-.072.191c-.428 1.101-.761 2.635-1.905 3.247-.915.49-2.146.309-2.671-.644-.44-.798-.058-1.945.594-2.484-.014-.035-.032-.067-.049-.104-.101-.292-.253-.568-.344-.862-.285-.935-.207-1.929-.21-2.9 0-1.71.058-3.422.103-5.131.101-3.639.218-7.273.36-10.908.482-12.193 1.388-24.384 2.427-36.543l.352-4.104c.47-5.457.956-10.919 1.645-16.349.03-.259.064-.518.099-.779-.367-.184-.7-.43-.984-.726-1.092-1.146-1.755-2.861-2.376-4.338l-.143-.336c-.675-1.577-1.296-3.171-1.616-4.865l-.031-.154c-.146-.721-.436-1.999.33-2.348.399-.182.65-.052.78.347a.167.167 0 0 1 .004.08.17.17 0 0 1-.03.075c.315.483.807.934 1.118 1.382l1.065 1.524.526.765c.667.982 1.38 1.922 2.117 2.85.578-4.073 1.288-8.129 2.392-12.094Zm43.661 90.749c1.332-1.045 3.5-.477 3.5 1.449 0 1.935-2.172 2.493-3.5 1.449l-.066-.049-.063-.051c-.724-.566-.748-2.039-.055-2.653l.055-.044c.042-.037.085-.069.129-.101Zm-58.015-3.763.115.001c.603 0 1.163.154 1.684.457.227.172.451.347.678.523.414.415.699.907.859 1.475l.119.888c.016.46-.076.888-.288 1.289a2.528 2.528 0 0 1-.69 1.075 2.457 2.457 0 0 1-1.075.69 2.47 2.47 0 0 1-1.174.292l-.113-.002a3.276 3.276 0 0 1-1.687-.458c-.229-.172-.453-.347-.68-.522a3.347 3.347 0 0 1-.859-1.476c-.038-.294-.076-.592-.119-.888-.016-.46.081-.888.288-1.287.138-.414.368-.775.69-1.076.293-.32.664-.559 1.077-.691.365-.192.758-.29 1.175-.29Zm151.682-6.166.85.114c.813.185 1.468.785 1.905 1.469.233.367.359.763.379 1.186.095.422.075.847-.058 1.272a2.395 2.395 0 0 1-.571 1.086 2.26 2.26 0 0 1-.339.416c-.267.443-.669.735-1.083 1.034a2.27 2.27 0 0 1-1.138.362 1.557 1.557 0 0 1-.813 0 2.285 2.285 0 0 1-1.135-.362l-.618-.48c-.18-.21-.35-.429-.509-.655l-.313-.743c-.192-.594-.098-1.118.006-1.712.016-.098.042-.195.077-.288l.071-.189c.187-.493.286-.66.616-1.089l.126-.169c.063-.083.129-.166.202-.239.207-.215.502-.393.735-.577a3.21 3.21 0 0 1 1.61-.436Zm-110.012-2.076.107.002c.471.003.912.12 1.32.356l.532.413c.322.326.547.708.675 1.153.027.233.061.467.092.698.013.359-.062.697-.226 1.011a1.95 1.95 0 0 1-.541.842c-.231.25-.521.437-.844.542-.28.148-.592.226-.909.227l-.099-.003c-.472 0-.914-.12-1.322-.356l-.53-.41a2.636 2.636 0 0 1-.675-1.156c-.029-.233-.061-.464-.092-.697-.015-.36.061-.698.225-1.009.108-.324.286-.606.542-.842.236-.257.518-.439.843-.542a1.96 1.96 0 0 1 .902-.229Zm-21.385-1.072c.678-.006 1.365.186 1.917.577.54.383.948.795 1.21 1.414.071.169.143.335.204.504.28.742.33 1.488-.055 2.213-.372.704-1.176 1.011-1.895 1.223-.609.181-1.3.21-1.905-.006a4.652 4.652 0 0 1-.868-.387c-.51-.314-.784-.687-1.125-1.147a2.868 2.868 0 0 1-.398-1.473c0-.528.131-1.017.398-1.474a2.941 2.941 0 0 1 2.517-1.444Zm-34.346.626c.855 0 1.607.396 2.122 1.063.522.678.712 1.522.482 2.361-.242.888-.977 1.666-1.888 1.89-.675.166-1.226.16-1.896.046-.567-.098-1.001-.436-1.435-.785-.496-.405-.649-1.145-.568-1.741.077-.597.353-.985.772-1.34l.003-.009-.155.12c.058-.051.116-.106.175-.161.018-.033.035-.069.05-.105a2.718 2.718 0 0 1 2.338-1.339Zm199.469-9.821a2.684 2.684 0 0 1 1.412 0c.347.081.648.241.905.477.26.169.471.385.631.655l.052.09c.37.629.428 1.349.268 2.05-.196.865-.994 1.654-1.856 1.858l-.029.004-.029.008c-.34.111-.705.127-1.054.046a1.94 1.94 0 0 1-.981-.314 3.189 3.189 0 0 1-.95-.947 1.977 1.977 0 0 1-.314-.986 1.362 1.362 0 0 1 0-.7 1.98 1.98 0 0 1 .314-.986l.415-.536.043-.035a2.65 2.65 0 0 1 1.173-.684Zm-32.624-17.157c4.248 0 4.242 6.595 0 6.595-4.247 0-4.241-6.595 0-6.595Zm-155.528-.833a2.518 2.518 0 0 1 1.339.058c.268.113.534.227.801.336l.679.526c.127.107.189.224.305.376l.146.19c.21.282.215.342.446.945a3.27 3.27 0 0 1-.805 3.142l-.092.093c-.294.32-.665.559-1.078.694a1.65 1.65 0 0 1-.847.227 2.53 2.53 0 0 1-1.337-.058l-.801-.338-.681-.525-.524-.681-.168-.399-.168-.401-.121-.892a2.525 2.525 0 0 1 .288-1.293c.081-.282.224-.532.431-.739a1.66 1.66 0 0 1 .603-.603c.207-.209.457-.352.739-.431.262-.154.544-.227.845-.227Zm210.107-4.712c.355-.013.684.062.99.223.106.037.21.081.309.133a2.6 2.6 0 0 1 .935.931c.187.298.291.619.308.965.069.313.063.629-.022.942l-.027.094a2.508 2.508 0 0 1-.37.784 2.538 2.538 0 0 1-.862.837c-.389.225-.83.345-1.279.347-.917 0-1.709-.497-2.192-1.259-.067-.106-.106-.243-.155-.353-.041-.104-.11-.236-.145-.356a2.634 2.634 0 0 1 0-1.382c.081-.338.233-.632.463-.882.183-.28.433-.51.728-.668a2.6 2.6 0 0 1 1.203-.354l.116-.002Zm-179.355-3.226a2.69 2.69 0 0 1 1.339-.029l.111.029c.356.085.665.246.93.486.294.195.532.452.704.768a2.744 2.744 0 0 1 0 2.756 2.726 2.726 0 0 1-.982.979l-.357.172c-.287.185-.618.29-.959.305a1.292 1.292 0 0 1-.687 0 1.268 1.268 0 0 1-.652-.175 1.266 1.266 0 0 1-.57-.334 1.916 1.916 0 0 1-.664-.723l-.261-.619-.092-.688.092-.684.141-.337a2.722 2.722 0 0 1 1.905-1.906h.002Zm160.691-5.47a2.688 2.688 0 0 1 1.413-.065c.317 0 .616.082.891.244.302.083.561.232.782.453.385.25.686.581.91.992l.355.847c.215.548.137 1.355.008 1.907a2.624 2.624 0 0 1-.623 1.186 1.736 1.736 0 0 1-.625.626 2.624 2.624 0 0 1-1.039.583l-.107.029-.04.011c-.006.003-.012.003-.018.003-.005.003-.011.003-.014.003a2.373 2.373 0 0 1-.48.067 2.691 2.691 0 0 1-1.413-.064l-.842-.356c-.239-.183-.478-.367-.716-.552l-.554-.717a2.613 2.613 0 0 1-.418-1.316 1.768 1.768 0 0 1 0-.941c0-.32.081-.615.239-.891a2.65 2.65 0 0 1 .733-1.141c.239-.186.477-.37.716-.551l.842-.357ZM99.761 284.45c.489-.134.978-.134 1.467 0l.658.276c.324.175.58.411.775.712.245.267.411.581.495.94.192.494.169 1.275.016 1.778a3.435 3.435 0 0 1-.848 1.451c-.685.708-1.734.912-2.663.698a2.318 2.318 0 0 1-.72-.311c-.703-.434-1.176-1.194-1.173-2.033 0-.09.006-.182.019-.273a2.047 2.047 0 0 1-.054-.577l.097-.733.006-.018a2.734 2.734 0 0 1 1.803-1.878l.105-.032h.017Zm244.509-72.807c-.885-7.261-4.213-15.074-14.364-10.809l-.754.282c-2.511.952-5.439 2.202-6.967 4.4-1.053 1.514-.697 4.448-.843 6.215-.661 5.745-.307 11.482.383 17.205.89 13.409-1.928 27.303-7.538 39.49 5.615 9.09 13.129 17.569 23.379 21.356.434-10.333 2.455-20.48 4.609-30.563l.084-.441c.861-4.547 1.291-9.215 4.276-12.997 6.072-6.595 14.423-2.862 18.419-13.458-.841-.425-.376-1.878.635-1.599 3.504.623 4.073-5.877 1.675-7.443-2.499-1.525.017-4.338-1.046-6.37-.594-.874-1.875-.903-2.454-1.913-1.539-3.711 6.158-6.09-2.893-10.275-1.853-.66-3.923-.25-5.791-.258-2.749.257-4.933 2.196-7.447 2.805 2.738 7.09-4.168 13.918-10.4 8.255-3.393 3.207-7.186 10.519 1.06 7.11 4.035-2.694 7.509-6.178 12.193-7.838l.098-.03c1.739-.569 9.348-4.27 8.971-1.068-2.85 2.754-7.551 2.72-10.851 4.955-4.577 2.117-7.503 7.249-12.982 7.178-1.262 7.674 7.44 3.004 10.681.888l.898-.487c4.572-2.472 9.211-4.761 14.541-4.791 1.472-.01 1.465 2.259 0 2.279-6.946.043-12.601 4.389-18.42 7.62-.574 4.478 5.983 2.517 8.469 1.856 2.609-.366 6.798-3.189 9.08-1.698.892 2.295-3.036 2.125-4.404 2.821 6.246 3.001.773 4.891-.9.279l-.491.168c-4.181 1.405-14.322 4.3-13.115-2.788-1.53.678-3.397 1.083-5.087.707-4.218 6.241-10.945 3.826-1.167-.428-2.203-1.026-2.939-4.985-.822-6.458-7.698-.471-1.984-8.551 1.202-11.243-.298-.3-.586-.61-.863-.929a16.975 16.975 0 0 1-5.833 1.594c-1.976.18-2.416-3.186-.467-3.462 2.091-.295 4.016-.853 5.856-1.904 2.79-1.204 3.741 3.975 6.532 4.158 1.523.302 2.554-1.034 2.858-2.371Zm-64.799 66.821c.675 0 1.273.282 1.762.73.489.446.701 1.118.73 1.76a1.89 1.89 0 0 1-.215.963 1.862 1.862 0 0 1-.515.801 2.575 2.575 0 0 1-1.762.73c-.674 0-1.273-.282-1.763-.73-.489-.451-.699-1.119-.73-1.764a1.912 1.912 0 0 1 .215-.959c.091-.278.238-.523.445-.734l.07-.067a2.567 2.567 0 0 1 1.763-.73Zm20.423-15.376.107.001a3.148 3.148 0 0 1 1.591.431c.215.166.428.328.64.494a3.15 3.15 0 0 1 .809 3.07 2.19 2.19 0 0 1-.36.902 3.148 3.148 0 0 1-1.115 1.111 3.075 3.075 0 0 1-1.565.424 3.09 3.09 0 0 1-2.676-1.535 2.15 2.15 0 0 1-.363-.902 3.147 3.147 0 0 1 .728-2.986l.081-.084a2.353 2.353 0 0 1 1.016-.653 2.346 2.346 0 0 1 1.107-.273Zm-155.859.173c.235-.065.482-.065.716 0 .358.017.691.123.999.317.181.143.363.283.544.422l.158.191c.338.412.347.481.606 1.11.108.35.123.7.046 1.05 0 .237-.061.457-.178.661-.06.22-.178.421-.34.581a1.315 1.315 0 0 1-.47.473c-.253.23-.552.389-.894.471l-.698.093c-.09-.012-.184-.026-.276-.035a1.997 1.997 0 0 1-.317-.035l-.107-.023-.096-.026a2.065 2.065 0 0 1-.369-.149 1.38 1.38 0 0 1-.594-.347 2.038 2.038 0 0 1-.693-.756l-.046-.105a1.903 1.903 0 0 1-.152-.346 1.288 1.288 0 0 1-.169-.626 1.887 1.887 0 0 1 .017-.887l.029-.098.25-.594c.129-.201.266-.405.441-.57a6.9 6.9 0 0 1 .506-.395l.089-.06c.308-.194.642-.3.998-.317Zm-39.064-4.636c.466-1.84 2.877-2.419 4.19-1.106 1.311 1.313.732 3.726-1.104 4.192l-.212.053a2.414 2.414 0 0 1-2.917-1.699 2.397 2.397 0 0 1-.009-1.233l.052-.207Zm222.406-14.996c-.014-.182.221-.247.338-.139 1.561 1.4 2.556 3.08 4.451 4.166 1.906 1.089 3.869 1.002 5.855 1.704a.727.727 0 0 1 .511.69.72.72 0 0 1-.511.69c-3.759 1.313-10.359-3.139-10.644-7.111Zm-176.612-.285a2.392 2.392 0 0 1 1.258-.055c.284 0 .549.07.793.213.268.075.498.211.696.405.236.141.425.331.568.567.279.306.466.663.563 1.071l.11.839-.11.841a44.49 44.49 0 0 0-.318.752l-.29.392c-.233.313-.271.316-.84.74-.364.23-.755.356-1.174.373a1.572 1.572 0 0 1-.839 0c-.282 0-.547-.072-.793-.215a1.585 1.585 0 0 1-.697-.405 2.391 2.391 0 0 1-.81-.885 52.71 52.71 0 0 1-.318-.752l-.113-.841.113-.839.006-.026c.149-.525.415-.982.798-1.368l.629-.487c.245-.158.501-.239.767-.32h.001Zm151.261.629a2.631 2.631 0 0 1 2.54.67c.658.66.917 1.642.67 2.539a2.626 2.626 0 0 1-2.621 1.921 2.551 2.551 0 0 1-1.264-.344l-.504-.393a1.862 1.862 0 0 1-.52-.807 1.864 1.864 0 0 1-.217-.966l-.003-.061a.932.932 0 0 1 .045-.367c0-.127.02-.25.052-.37a2.62 2.62 0 0 1 1.822-1.822Zm-193.498-8.78c.288-.011.556.048.806.181.26.082.493.232.675.434.206.189.348.416.433.675.133.25.191.519.182.807 0 .379-.098.734-.285 1.057l-.331.425c-.26.263-.568.44-.924.542l-.207.07a1.88 1.88 0 0 1-.92.075 1.868 1.868 0 0 1-.914-.343 1.74 1.74 0 0 1-.632-.632l-.178-.422a2.883 2.883 0 0 1-.064-.506c0-.023 0-.042-.003-.065 0-.126.038-.434.07-.561.072-.266.216-.519.384-.732.141-.224.337-.399.575-.529l.021-.016.025-.016c.073-.053.153-.105.23-.16a2.083 2.083 0 0 1 1.057-.284Zm167.325-2.303a2.85 2.85 0 0 1 1.449.393l.045.02c.429.251.786.609 1.034 1.04a2.856 2.856 0 0 1 0 2.835c-.248.431-.605.79-1.034 1.04-.014.01-.03.016-.045.022a2.862 2.862 0 0 1-3.933-1.051 2.888 2.888 0 0 1-.384-1.428 2.882 2.882 0 0 1 2.868-2.871Zm-134.563-3.749.087-.001a1.84 1.84 0 0 1 .959.216c.308.101.576.273.805.515l.472.396.138.112.066.057c.318.321.536.696.658 1.132.039.25.071.496.097.746.071.647-.311 1.313-.732 1.773a1.93 1.93 0 0 1-.806.519 1.899 1.899 0 0 1-.967.213c-.704-.062-1.369-.21-1.875-.755-.059-.064-.114-.133-.172-.201l-.405-.466a2.487 2.487 0 0 1-.638-1.1c-.034-.224-.061-.444-.092-.664-.029-.665.296-1.288.73-1.762.4-.437 1.081-.705 1.675-.73Zm-16.358-6.827c3.37 0 3.364 5.23 0 5.23-3.366 0-3.358-5.23 0-5.23Zm169.43-7.332.106.001a3.084 3.084 0 0 1 1.563.425l.627.483c.383.39.649.842.797 1.369.036.274.073.55.111.823.017.428-.075.827-.269 1.197a2.313 2.313 0 0 1-.639.997 2.297 2.297 0 0 1-.997.64 2.326 2.326 0 0 1-1.193.268 3.076 3.076 0 0 1-1.565-.425c-.21-.161-.417-.323-.629-.483a3.118 3.118 0 0 1-.757-1.247l-.036-.12-.113-.827a2.326 2.326 0 0 1 .268-1.193c.123-.387.338-.716.638-.999.283-.302.617-.515.999-.638a2.31 2.31 0 0 1 1.089-.271Zm-15.178-9.791c.301-.009.58.052.842.189.27.087.503.239.701.451.417.333.673 1.001.673 1.543s-.256 1.209-.673 1.543c-.268.267-.599.46-.963.56l-.58.078c-.564.027-1.138-.268-1.54-.638a12.498 12.498 0 0 0-.239-.221c-.365-.337-.525-.84-.548-1.322-.01-.25.046-.498.163-.72.074-.231.206-.439.385-.604.081-.071.159-.146.239-.219a2.354 2.354 0 0 1 1.54-.64Zm96.166-17.44c2.128-2.595.889-4.442-2.31-3.799-5.513.745-10.7 4.231-15.554 6.73-5.299 2.799-10.759 5.11-16.164 7.741 2.23 1.37 3.89 3.514 5.156 5.961 2.53-1.922 5.763-2.841 8.918-2.961 5.725-5.486 15.207-6.742 19.954-13.672Zm-251.549 8.616a3.41 3.41 0 0 1 1.624.409l.107.06.693.539c.338.311.574.679.714 1.104.214.41.311.853.294 1.327a2.62 2.62 0 0 1-.294 1.323 2.57 2.57 0 0 1-.714 1.106c-.194.25-.445.452-.731.587-.276.112-.548.229-.824.346-.307.098-.664.11-.997.127a3.36 3.36 0 0 1-1.696-.46l-.68-.525a2.544 2.544 0 0 1-.696-1.085 2.49 2.49 0 0 1-.291-1.181l.003-.115c0-.026 0-.055.003-.084.038-.306.081-.609.123-.915.107-.448.311-.839.615-1.17.074-.151.182-.283.316-.385a3.42 3.42 0 0 1 1.515-.887c.305-.038.609-.08.914-.121h.002Zm150.346-8.591.098.002c.439 0 .844.11 1.22.326l.489.379c.3.302.509.658.621 1.068l.089.641c.009.335-.06.643-.212.931a1.816 1.816 0 0 1-.498.778 1.79 1.79 0 0 1-.778.5 1.802 1.802 0 0 1-.931.207 2.36 2.36 0 0 1-1.217-.331c-.163-.123-.327-.25-.49-.376a2.406 2.406 0 0 1-.589-.965l-.03-.101-.086-.643a1.776 1.776 0 0 1 .207-.929c.096-.303.265-.562.498-.78.221-.236.48-.402.778-.498.259-.137.537-.206.831-.209Zm-131.408-3.512.112.002a3.544 3.544 0 0 1 1.802.489c.24.184.48.37.72.559.444.443.748.968.92 1.575l.126.947c.02.492-.085.949-.307 1.374-.143.445-.39.827-.739 1.151a2.65 2.65 0 0 1-1.148.736 2.658 2.658 0 0 1-1.374.309 3.52 3.52 0 0 1-1.8-.487l-.723-.558a3.617 3.617 0 0 1-.917-1.576l-.127-.949a2.673 2.673 0 0 1 .308-1.375c.143-.442.388-.827.736-1.147a2.628 2.628 0 0 1 1.15-.741 2.694 2.694 0 0 1 1.261-.309Zm119.982-8.914c.294-.078.589-.078.883 0 .44.018.853.152 1.235.394l.672.52c.415.407.716.917.871 1.478l.116.872c.016.451-.078.872-.282 1.261-.121.375-.322.7-.6.982l-.105.105a2.5 2.5 0 0 1-1.068.687 1.625 1.625 0 0 1-.839.227c-.439.1-.897.08-1.325-.058-.262-.114-.528-.224-.793-.335l-.086-.047c-1-.548-1.619-1.697-1.619-2.822 0-1.126.619-2.276 1.619-2.824.031-.012.055-.029.086-.046a2.462 2.462 0 0 1 1.235-.394Z" fill="#000"/><path fill-rule="evenodd" clip-rule="evenodd" d="M222.304 22.37c48.77 1.545 51.712 24.725 51.712 63.599 0 38.872-25.301 63.369-34.617 67.646-9.316 4.278-33.845 22.65-55.983 14.184-22.136-8.467-15.725-44.237-15.725-59.607 0-15.369 5.842-87.367 54.613-85.822Z" fill="#FDFBF5"/><path fill-rule="evenodd" clip-rule="evenodd" d="M242.089 140.848c-8.955 5.002-19.211 5.197-28.845 2.049-5.778-1.884-11.075-4.796-16.034-8.278-4.313-3.031-8.161-6.394-11.975-9.964-3.14-6.928-5.936-13.843-7.245-21.382-1.174-6.767-1.329-13.793.032-20.547 10.064-8.285 20.067-16.636 30.056-25.014 5.08-4.274 10.196-8.503 15.35-12.687 2.621-2.121 5.218-4.274 7.828-6.405l1.29-1.049c5.393 3.949 11.174 7.333 16.526 11.348a113.206 113.206 0 0 1 8.123 6.7 104.715 104.715 0 0 1 3.986 3.818c1.186 1.193 2.33 2.905 4.012 3.356.231.061.447.074.651.046 2.248 19.698 3.846 40.971-5.787 58.863-4.202 7.804-10.161 14.781-17.968 19.146Zm-58.264 7.24c-1.233-1.13.605-2.96 1.833-1.834 7.715 7.07 17.799 10.818 27.985 12.552 1.644.28.943 2.779-.689 2.502-10.635-1.812-21.087-5.851-29.129-13.22Zm-9.256 10.848c-1.472-.79-.161-3.028 1.309-2.24 6.01 3.225 12.601 4.9 19.288 6.032 1.644.278.943 2.777-.689 2.501-6.914-1.169-13.698-2.961-19.908-6.293Zm24.459-109.273c4.988-4.48 10.346-8.74 16.008-12.334 5.728-3.64 11.986-5.814 18.748-5.867-.472.38-.923.801-1.38 1.192-1.276 1.094-2.551 2.194-3.824 3.29-2.548 2.193-5.1 4.387-7.615 6.616-4.951 4.397-9.919 8.77-14.859 13.178a814.886 814.886 0 0 0-27.883 26.026c.049-.218.101-.436.151-.652 3.011-12.58 11.2-22.96 20.654-31.45ZM238.12 32.01c.032-.097.055-.192.067-.282 12.979 1.692 23.818 11.248 27.401 23.827-.312.434-.483.951-.419 1.499l.098.828c-.445-.44-.902-.851-1.29-1.242a106.405 106.405 0 0 0-3.978-3.828 101.616 101.616 0 0 0-8.721-7.126c-5.298-3.852-11.032-7.394-17.348-9.24.415-.341.829-.682 1.248-1.018 1.247-1.016 2.404-1.852 2.942-3.418Zm23.265-13.452c-7.968-8.713-19.001-15.093-30.619-17.311-11.096-2.12-22.583-.723-33.065 3.398-21.934 8.625-39.241 27.589-47.345 49.566-4.724 12.802-6.273 26.84-4.853 40.391 1.411 13.491 5.473 27.424 12.861 38.902a36.787 36.787 0 0 0 2.196 3.034c-.347 3.963-1.669 7.847-3.748 11.225-.112.181-.23.359-.347.537-2.13 1.596-4.341 3.094-6.497 4.641-1.87 1.339-3.719 2.714-5.477 4.197-1.659 1.402-3.587 2.962-4.71 4.852-.92 1.55-1.296 3.656-.04 5.132 1.514 1.779 4.08 1.152 6.13 1.152.177 0 .353.005.526.006.617.388 1.252.738 1.866 1.063a2473.908 2473.908 0 0 0 18.687 9.797c12.431 6.461 24.808 13.182 37.493 19.132 5.879 2.759 12.171 5.171 18.755 5.162 6.176-.009 11.759-2.464 16.581-6.196 5.496-4.251 10.091-9.65 14.549-14.941a262.465 262.465 0 0 0 5.243-6.432c3.291-1.1 6.558-1.421 9.494.699 2.355 1.703 5.46-.612 5.515-3.168.02-.896-.019-1.792-.117-2.683-.589-5.447-3.253-10.376-6.254-14.946a220.15 220.15 0 0 0-5.103-7.387 71.09 71.09 0 0 1-1.199-1.732c6.977-10.278 12.51-21.675 15.914-33.584 3.573-12.531 4.788-25.526 3.992-38.512-1.225-19.9-6.682-40.963-20.428-55.994Z" fill="#000"/><path fill-rule="evenodd" clip-rule="evenodd" d="M244.905 126.443c-2.387.692-4.948.753-7.382.04-2.207-.649-4.472-2.074-6.097-3.963-1.443-1.675-2.377-3.712-2.34-5.888a.958.958 0 0 1 .228-.616 1.078 1.078 0 0 1 1.241-.286.885.885 0 0 1 .442.434c.25.329.498.652.748.965 2.007 2.481 3.95 4.334 6.968 4.998a8.475 8.475 0 0 0 4.773-.349 10.23 10.23 0 0 0 4.197-2.95c.515-.599 1.121-.844 1.714-.849.674-.004 1.339.309 1.839.809.493.492.822 1.16.853 1.858.026.613-.175 1.253-.706 1.825a14.35 14.35 0 0 1-6.478 3.972Zm-.072-31.06c2.446 1.49 6.175 4.96 3.543 8.65-3.098 3.252-7.56-.477-9.758-2.165-2.038-1.307-4.33 2.056-2.439 3.582 15.887 11.768 22.333-9.677 9.892-11.815-1.37-.236-1.879 1.288-1.238 1.749Zm-22.89-6.547c-.787-.503-1.711-.676-2.736-.21-.802.365-2.207 1.58-3.186 3.179-.668 1.092-1.142 2.374-1.044 3.71a.833.833 0 0 1-.271.708 1.067 1.067 0 0 1-.592.262 1.528 1.528 0 0 1-.622-.055.936.936 0 0 1-.616-.53c-.684-1.82-.39-3.851.379-5.683 1.035-2.472 2.915-4.543 4.148-5.212 2.109-1.142 4.595-1.194 6.707-.03 1.798.99 2.922 2.59 4.04 4.222.238.346.474.69.718 1.03.488.676.537 1.347.348 1.924-.21.639-.745 1.177-1.412 1.46-.618.26-1.335.297-1.97.028-.535-.225-1.027-.667-1.339-1.414-.524-1.26-1.397-2.65-2.552-3.389Zm39.942 2.803c-.54.28-.96.365-1.558.186a2.203 2.203 0 0 1-.913-.545 1.843 1.843 0 0 1-.508-.919 3.756 3.756 0 0 0-1.319-2.198 2.64 2.64 0 0 0-2.105-.554c-.868.146-1.695.703-2.266 1.36a5.076 5.076 0 0 0-.489.717c-.282.463-.555.894-.942 1.236a.922.922 0 0 1-.583.22.895.895 0 0 1-.259-.041c-.865-.869-1.03-1.527-1.003-2.18.029-.685.299-1.38.736-2.025 1.023-1.52 2.965-2.763 4.276-3.046 1.796-.386 3.579.077 5.008 1.08 1.471 1.033 2.561 2.636 2.9 4.443.082.434.048.904-.118 1.312-.162.41-.466.75-.857.954Zm-35.983-18.987c-1.077 1.049-2.353 1.212-3.643 1.357-.716.082-1.288.146-1.851.273-1.548.35-3.078.876-4.474 1.636-1.459.791-3.049 1.748-4.192 2.973a20.77 20.77 0 0 0-.785.903c-.235.28-.46.548-.698.807-.273.3-.532.61-.79.922a4.227 4.227 0 0 0-.224.394 7.862 7.862 0 0 1-.466.85c-.179.301-.276.384-.359.422a.743.743 0 0 1-.397.075.67.67 0 0 1-.342-.165c-.552-.468-.716-1.237-.699-2.051.026-1.235.481-2.605.901-3.446.977-1.956 2.332-3.989 3.961-5.446 1.858-1.666 3.892-2.927 6.227-3.795 1.452-.542 3.131-1.037 4.713-.975 1.138.047 2.225.384 3.122 1.23.551.52.816 1.257.816 1.994 0 .753-.274 1.51-.82 2.04v.001Zm38.173 9.618a.58.58 0 0 1-.268.237.62.62 0 0 1-.851-.424c-.715-3.143-2.105-5.481-5.068-6.99-1.459-.742-3.136-1.213-4.724-1.589-.46-.11-.948-.18-1.439-.253-1.538-.224-3.088-.481-4.092-1.726a3.32 3.32 0 0 1-.713-2.584 2.745 2.745 0 0 1 1.493-2.036c2.182-1.13 4.892-.022 7.095.922l.481.205c2.155.91 4.12 2.111 5.735 3.83 1.281 1.362 2.469 3.376 2.946 5.449.399 1.724.305 3.483-.595 4.958v.001Z" fill="#000"/><path fill-rule="evenodd" clip-rule="evenodd" d="M267.569 100.907c-4.861 2.342-11.647-1.114-14.917-4.735-1.19-1.317-2.107-5.09-1.65-7.481 1.241-6.479 5.9-10.368 10.819-11.695 6.819-1.84 13.681 2.823 12.88 8.326-.757 5.216-1.908 12.782-7.132 15.585ZM234.47 88.462c-.39 7.06-6.055 13.239-12.828 15.069-10.911 3.047-16.304-4.628-18.746-12.895-.244-.822-.814-3.33.718-5.481 6.021-8.46 20.672-7.019 27.988-4.695 2.142 2.048 3.018 5.008 2.868 8.002m38.383-12.178-.009.013-.075-.046.084.033Zm9.131.817c-.635-7.19-23.175-4.437-25.81-3.848-7.192 2.117-13.405 7.876-21.447 5.345-8.331-9.294-36.388-6.629-42.269-1.895-1.114-.437-2.468-.202-3.902.21-7.367-.266-40.997 2.276-34.118 11.683 1.044.724 2.087-.013 2.116-1.505 35.859-12.953 32.382-.821 36.635-2.239.649.188 1.327.306 1.92.43 3.292 1.06 4.408.733 4.842 4.43 2.979 28.548 40.973 18.695 37.858-4.722 3.084-.17 5.783-1.504 9.046-.2 2.265 22.058 20.006 22.949 25.345 15.302 4.026-5.308 2.429-13.317 7.965-17.493 2.184 1.83 2.325-4.345 1.819-5.498" fill="#000"/></svg>