<svg width="460" height="448" fill="none" xmlns="http://www.w3.org/2000/svg"><g clip-path="url('#clip0_32_184')" fill-rule="evenodd" clip-rule="evenodd"><path d="M312.053 253.228c-3.253-1.16-6.388-2.502-9.245-4.475-8.235-6.136-13.604-15.371-18.677-24.12-7.147-12.724-12.237-26.284-15.757-40.429-1.512-6.079-2.027-13.125-5.461-18.514-7.789-11.281-30.628-9.819-42.755-7.839-8.121 1.439-9.8 10.538-11.644 17.27-1.535 5.595-2.541 11.251-3.385 16.984-2.009 1.322-4.274 2.395-6.436 3.331-23.545 7.228-27.684 20.628-36.677 41.328-15.19 30.086-56.408 41.868-62.634 77.473-4.011 23.509 7.396 45.624 19.157 65.165 10.953 21.348 26.244 31.593 50.595 26.55 22.841-5.13 44.791-13.71 67.231-20.341 10.867-2.676 21.718-9.633 33.151-7.208 23.555 5.297 47.757 7.786 71.899 7.1 33.893 1.371 33.888-31.195 30.409-56.416-2.436-39.249-22.211-64.452-59.771-75.859Z" fill="#FDFBF5"/><path d="M314.319 310.022c2.832 1.876 5.215 4.718 7.126 7.71a738.374 738.374 0 0 1-23.904-2.882 75.975 75.975 0 0 1 3.167-1.932c3.92-2.211 9.232-5.793 13.611-2.896Zm-132.637 23.626c-1.462-.574-2.028-2.807-2.599-4.087-1.787-4.013-3.418-8.096-5.116-12.149 6.445-1.838 12.712-3.878 19.388-4.86 7.177-1.052 14.463-1.307 21.707-1.071 14.674.479 29.211 2.881 43.639 5.454 14.409 2.573 28.819 5.043 43.329 6.982 14.217 1.899 28.479 3.29 42.766 4.509 2.777.237 7.406 1.236 9.639-.95 1.767-1.731 1.824-4.927-.387-6.334-1.378-.878-3.374-.891-4.949-1.095a98.374 98.374 0 0 0-5.966-.557c-.812-.053-1.626-.103-2.438-.153 6.525-2.462 13.339-3.806 20.412-3.431.398 2.432 2.202 4.936 3.187 6.943 1.724 3.502 3.066 7.048 3.947 10.855 1.842 7.962 1.922 16.223 1.403 24.343-.479 6.769-1.506 14.257-6.811 19.053-4.015 3.628-9.68 4.973-14.937 5.396-6.11.491-12.314-.034-18.373-.854-8.496-1.15-17.034-2.67-25.363-4.709-16.133-3.948-31.598-10.231-45.866-18.748-6.959-4.154-13.597-8.826-20.65-12.821-7.188-4.072-14.835-7.231-22.865-9.192-8.988-2.194-18.382-3.131-27.619-2.59-1.603.094-3.919.676-5.478.066Zm-10.414-4.076c.945 3.068 1.667 6.57 3.683 9.148 1.996 2.554 5.009 3.457 8.129 3.684 3.762.273 7.569.098 11.339.238 7.734.287 15.361 1.545 22.755 3.852 6.888 2.15 13.284 5.502 19.445 9.223 5.697 3.44 11.225 7.135 16.924 10.565-1.516.695-3.016 1.447-4.523 2.104a414.67 414.67 0 0 1-9.541 3.994c-6.302 2.55-12.631 5.037-19.025 7.349a451.182 451.182 0 0 1-39.259 12.203c-6.326 1.655-12.741 3.587-19.312 3.862-5.827.243-11.225-1.405-15.924-4.874-9.748-7.193-17.503-17.578-23.772-27.82a131.507 131.507 0 0 1-9.663-19.09 147.272 147.272 0 0 1-3.703-10.173 154.807 154.807 0 0 1-1.482-4.863c-.206-.717-.403-1.436-.598-2.154 9.968-3.045 20.053-5.793 30.376-7.319 5.511-.817 11.096-1.228 16.668-1.168 2.765.029 5.529.179 8.28.465 1.481.153 2.956.351 4.424.596.607.101 1.231.25 1.856.36a699.6 699.6 0 0 0 2.923 9.818Zm206.039-13.035c.537-1.087.764-2.157.957-3.341.146-.905.536-2.175.195-3.348-.383-1.315-1.423-2.489-2.17-3.609a3091.894 3091.894 0 0 1-7.404-11.162c-6.7-10.141-13.355-20.31-20.021-30.473-5.913-9.019-11.729-18.12-17.825-27.018-5.211-7.61-10.892-15.093-18.025-21.01-9.019-7.483-19.76-11.007-30.978-13.759-1.226-1.272-2.862-1.967-4.612-1.825-2.472-2.807-4.436-4.768-5.326-8.336-.428-1.709-.293-6.512-1.956-7.524-1.975-1.201-3.007.389-3.551 2.181-1.823 5.997.269 14.058 5.083 20.066-2.028 7.016-4.718 16.988-9.514 22.609-5.137 6.02-12.24 7.894-19.905 8.017-14.615.236-29.214-5.203-40.363-14.626-3.388-2.866-6.535-6.065-9.383-9.467-2.135-2.553-4.661-6.492-6.332-9.469 0-1.161-1.368-2.374 12.564-3.313 13.931-.937 14.988-20.034 15.298-22.634.252-2.111 1.323-5.387-.163-7.108-.631-.731-1.924-.848-2.723-.351-1.507.937-2.004 3.332-2.477 4.959-.663 2.28-2.834 16.429-6.945 18.067-1.926.766-4.133.78-6.169.922-2.516.176-5.035.306-7.539.598-.924.109-1.932.407-2.843.415-.593.006-1.205-.282-1.778-.484-1.934-.685-3.867-.172-5.86.096-17.619 2.37-35.761 7.78-50.79 17.516-13.246 8.581-22.578 20.92-28.736 35.347-6.282 14.724-9.884 30.645-12.902 46.32a334.734 334.734 0 0 0-2.652 15.822c-.734 5.115-1.65 10.344-1.87 15.513-.087 2.044.401 3.942 1.152 5.811.846 2.102 2.845 2.931 4.763 3.912a64.337 64.337 0 0 0 13.224 5.011 101.753 101.753 0 0 1 7.037 15.868c-.701 1.391-.716 3.467-.85 4.819-.335 3.368-.478 6.752-.508 10.134-.06 6.778.347 13.549.666 20.318.324 6.863 1.4 33.947 1.575 37.254.136 2.568-.047 6.162 1.304 8.442 2.078 3.507 7.205 3.39 9.58.547 59.007 12.699 169.923 8.874 214.595 2.484 5.812-.832 3.985.091 5.464-1.379 1.108-1.105 2.053-2.995 2.36-4.514.41-2.028-.252-3.864-1.411-5.504-1.22-1.726-1.442-4.519-1.896-6.57-1.071-4.849-1.603-26.147-2.103-28.507-.156-.734-.306-1.512-.489-2.29 8.195.777 16.732.777 24.528-1.966 4.421-1.557 8.543-4 11.717-7.49 3.842-4.225 5.98-9.544 7.08-15.096 1.418-7.16 1.719-14.575 1.441-21.853-.388-8.602-1.812-17.323-5.349-25.221a13.223 13.223 0 0 0 2.835-3.801Z" fill="#000"/><path d="M174.598 37.756c1.942-2.087 4.427-3.642 7.143-4.139-2.483 1.242-4.91 2.536-7.143 4.14Zm-3.806 17.995a29.075 29.075 0 0 1-.647-4.802c.435.66 1.128 1.102 1.907 1.33a25 25 0 0 0-1.26 3.472Zm129.991 24.935c-2.243-9.344-12.704-27.317-15.177-30.776-2.685-8.566 11.959-15.435 3.994-22.133-3.604-3.022-8.37-4.092-12.84-5.164-30.952-7.441-64.208-3.688-92.915 9.996-4.367-.92-8.916.878-12.091 4.036-14.918 15.01 5.412 42.095 9.858 59.017 7.627 18.87-8.085 22.044-6.4 38.01 1.309 8.247 9.654 10.428 16.697 11.673 1.127.265 2.636.305 3 1.5 1.142 6.971 5.053 13.614 10.305 18.125-.46 1.361-.11 3.014 1.51 4.21 14.672 10.916 33.172 16.379 51.47 15.396 21.809-1.169 33.087-13.684 35.809-16.906 15.046-20.343 13.248-47.183 10.179-71.427-2.139-16.889.572.997-3.399-15.557Z" fill="#FDFBF5"/><path d="M233.538 2.933c.686-2.145 2.626-3.435 4.848-3.169 1.966.233 4.071 2.186 3.831 4.343-.044.416-.104.806-.175 1.174l.009.003h.008l-.047.143a7.499 7.499 0 0 1-.649 1.882 203.483 203.483 0 0 0-1.112 3.353 7.063 7.063 0 0 1 1.603.109c.562-1.44 1.127-2.877 1.689-4.32.603-1.542 1.027-3.522 2.219-4.714 1.523-1.523 4.168-1.838 6.026-.75 1.963 1.147 2.663 3.187 2.236 5.374-.216 1.115-.961 1.89-1.881 2.378l-.099.052-.71 1.68a6.02 6.02 0 0 1 .686-.252 5.592 5.592 0 0 1 1.125-.213c1.01-1.834 2.124-3.615 3.273-5.363 1.322-2.01 3.907-2.865 6.076-1.594 1.94 1.136 2.982 4.122 1.592 6.083a118.645 118.645 0 0 0-3.043 4.541c.169.03.337.068.499.117.076-.102.154-.203.236-.304 1.076-1.335 2.326-2.337 3.611-3.447 1.202-1.042 1.757-2.68 3.337-3.472 1.989-.994 4.387-.518 5.571 1.462 2.539 4.242-1.723 7.34-4.45 9.908a66.918 66.918 0 0 1 7.372-4.005c1.424-.656 2.869-1.29 4.337-1.838 2.177-.81 3.938-.55 5.725.957.798.675 1.193 2.149.826 3.131-.711 1.883-1.835 3.026-3.805 3.57-1.386.383-2.805.641-4.191 1.043-2.323.667-4.578 1.481-6.766 2.497.158.098.308.203.447.323a61.652 61.652 0 0 1 4.966-1.377 63.83 63.83 0 0 1 8.424-1.364l.941-.088c3.396-.326 7.479-.928 9.564 2.326.685 1.073.759 2.843 0 3.904-1.454 2.04-2.901 2.445-5.305 2.483 2.367.251 4.731.562 7.083.926 1.623.247 3.243.528 4.859.84l.805.157c1.968.394 4.163.623 5.851 1.763 3.686 2.49 1.955 7.339-2.128 7.856-1.973.248-4.165-.588-6.101-.978a126.018 126.018 0 0 0-5.665-1.005 97.533 97.533 0 0 0-2.947-.413c2.004.289 3.993.698 5.929 1.275l.539.163c3.743 1.142 8.796 2.961 9.965 6.966.707 2.434-1.229 4.557-3.573 4.7-2.181.13-3.998-1.171-5.847-2.131-1.35-.698-2.72-1.219-4.174-1.665a47.859 47.859 0 0 0-4.576-1.155c1.303.72 2.574 1.51 3.792 2.394l.56.415c3.242 2.417 8.183 6.16 7.041 10.691-.36 1.429-1.95 2.794-3.478 2.648-3.979-.371-6.174-4.613-9.174-6.885a37.949 37.949 0 0 0-2.541-1.748c4.548 5.43 8.167 11.708 10.92 18.192 6.05 14.264 7.906 27.475 7.951 42.811l.001.476c.007 8.46-.184 17.075-1.007 25.497-.764 7.781-2.165 15.462-5.691 22.508-5.906 11.817-17.417 21.019-30.112 24.522-14.126 3.9-29.915.851-41.486-8.148-2.952-2.296.963-7.279 3.977-5.16 12.045 8.455 27.619 11.134 41.442 5.41 10.964-4.537 19.792-14.298 23.535-25.538 2.381-7.149 3.075-14.774 3.926-22.226l.056-.495c.899-7.793 1.419-15.639 1.412-23.484-.011-14.569-2.101-26.562-8.504-39.777a70.055 70.055 0 0 0-11.585-17.033c-1.417.289-2.922-.116-4.353-.27-.73-.079-1.461-.154-2.191-.221.746.483 1.479.985 2.197 1.499l.943.681c2.954 2.117 6.698 4.528 5.94 8.62-.206 1.106-1.307 2.123-2.375 2.374-3.87.922-6.53-2.843-9.143-5.078-2.275-1.942-4.653-3.682-7.076-5.426-.552-.394-1.105-.788-1.664-1.178a63.366 63.366 0 0 1 1.532 1.861l.736.934c2.225 2.788 5.435 6.412 3.452 10.027-.562 1.02-1.76 1.699-2.922 1.676-3.993-.082-5.581-4.62-7.454-7.485-1.611-2.456-3.359-4.77-5.17-7.084-.498-.634-1-1.267-1.509-1.901a156.718 156.718 0 0 0-24.955 3.319c-5.64 1.218-11.188 2.798-16.695 4.526l-.458.146c-2.98.96-6.051 2.19-8.198 4.298-.307 1.452-.073 2.984.221 4.435l.229 1.11c.941 4.643 1.583 9.2 1.103 13.967-.498 4.916-1.977 9.338-3.782 13.905-.855 2.153-1.739 1.763-2.043 4.073-.232 1.759-.088 3.576.071 5.35l.133 1.504c.332 3.94.5 8.237-2.08 11.488-.4.498-1.258.3-1.544-.199a6.552 6.552 0 0 0-.363-.575c-1.243-1.803-3.149-2.83-5.33-3.227-.277-.05-.169-.421.064-.451 1.842-.218 3.588.243 5.072 1.196-.703-2.435-6.15-1.251-7.939-.777l-.062.016c-2.233.599-4.346 1.575-6.208 2.956-3.745 2.775-5.911 7.102-5.802 11.764.109 4.581 2.472 8.816 6.533 11.009 1.959 1.058 4.188 1.567 6.406 1.546 2.314-.023 4.374-1.04 6.693-.896 1.34.082 2.367 1.522 1.592 2.779a6.355 6.355 0 0 1-1.97 2.005c1.899 4.384 4.323 8.566 7.117 12.424a40.876 40.876 0 0 0 5.229 5.922c1.505 1.409 4.77 3.042 4.585 5.393-.064.848-.502 1.364-1.273 1.68-2.399.981-5.317-2.399-6.922-4.03l-.128-.129c-2-1.994-3.824-4.2-5.413-6.54-2.817-4.156-4.565-8.84-5.289-13.759-3.847 1.159-8.941.071-12.08-1.35-9.867-4.463-13.092-17.765-7.095-26.622a17.308 17.308 0 0 1 4.27-4.365 4.05 4.05 0 0 1-1.008-.778c-1.678-1.785-2.865-4.112-4.042-6.26l-.142-.257a103.457 103.457 0 0 1-2.956-5.759l-.344-.732c-2.064-4.444-3.873-6.387-5.345-11.06-1.416-4.507-2.532-9.1-3.255-13.773l-.192-1.237c-.419-2.711-.814-5.61-.509-8.364-2.101.687-4.214 1.11-6.293.08-1.371-.68-2.128-2.66-1.659-4.081a5.65 5.65 0 0 1 1.633-2.513 5.92 5.92 0 0 1-1.191-.802l-.311-.27c-1.259-1.095-1.349-3.176-.585-4.549.075-.131.15-.266.221-.397.727-1.302 2.229-2.153 3.713-2.13.239.003.479.003.722 0-.692-.154-1.37-.39-2.015-.788-2.907-1.789-2.539-6.638.978-7.493 1.476-.356 3.105-.21 4.731.173-.06-.034-.12-.068-.18-.105-1.228-.754-2.259-2.228-2.142-3.74.127-1.672.666-2.864 2.142-3.742 1.281-.757 3.094-.828 4.368 0a36.764 36.764 0 0 1 3.229 2.382c-1.045-1.287-1.952-2.685-2.319-4.17-.453-1.85.304-3.863 1.967-4.838 1.326-.776 2.727-.69 3.978-.09a4.218 4.218 0 0 1 .813-2.839c1.318-1.8 3.716-2.835 5.802-1.522.273.172.641.468.997.832-.694-2.209-.068-4.526 2.296-5.524 1.442-.611 3.393-.303 4.645.75-.794-4.301 5.547-7.463 8.011-3.019a44.364 44.364 0 0 1 1.608 3.151l.183.408.019-.007-.125-.298-.13-.299c-.684-1.593-1.558-3.25-1.798-4.98-.351-2.557.788-4.983 3.566-5.359 1.436-.195 3.032.458 3.995 1.598-.522-3.968 3.906-6.851 7.094-3.889 1.508 1.403 2.315 3.454 3.273 5.254.544 1.016 1.097 2.029 1.641 3.049.139-.165.288-.33.445-.491-.805-2.415-1.43-4.89-1.959-7.38-.502-2.348.67-4.786 3.091-5.45 2.198-.607 4.952.75 5.443 3.095.344 1.65.753 3.281 1.202 4.904.307-.075.61-.127.91-.165.026-.305.055-.611.085-.916l.119-1.085c.262-2.479.526-5.308 1.819-7.415 2.207-3.6 7.863-2.108 7.923 2.149.034 2.201-.861 4.384-1.173 6.563a30.187 30.187 0 0 0-.257 2.868c.602-3.187 1.43-6.334 2.388-9.431.113-.372.232-.743.349-1.114Zm-48.8 122.921c4.963-.768 9.499 2.002 12.44 5.884.536.708.183 1.711-.299 2.307-.35.438-.818.491-1.346.559-.607.078-1.374-.414-1.64-.943-1.892-3.779-5.266-6.169-9.155-7.638-.071-.027-.094-.155 0-.169Zm6.878-67.729.151-.161c1.003-1.043-.583-2.636-1.591-1.59-1.058 1.1-1.764 2.436-2.441 3.79-.645 1.292 1.293 2.433 1.941 1.136l.295-.589c.464-.916.957-1.821 1.645-2.586Zm-13.937-2.14c1.424-.24.82-2.409-.597-2.17-1.837.31-3.666.662-5.502.973-1.423.24-.82 2.408.598 2.17 1.836-.31 3.665-.663 5.501-.973Zm84.794-14.806c-1.375-.46-1.965 1.713-.598 2.17 1.89.631 3.764 1.278 5.559 2.154 1.294.633 2.434-1.307 1.133-1.943-1.967-.961-4.02-1.688-6.094-2.38Zm-85.119-2.916c-1.343-.538-1.926 1.638-.597 2.17l4.855 1.943c1.342.538 1.926-1.637.597-2.169l-4.855-1.944Zm102.071-5.283-.178-.112c-1.218-.79-2.345 1.157-1.134 1.943.711.461 1.574.774 2.225 1.323l.136.121c1.052.994 2.644-.594 1.589-1.591-.771-.729-1.746-1.135-2.638-1.684Z" fill="#000"/><path d="M242.138 149.844c4.587-5.336 12.312-5.708 18.713-4.374 4.106.857 8.105 2.283 12.277 2.812 1.948.247 3.916.321 5.879.286 1.927-.037 3.858-.426 5.78-.353.295.01.406.399.151.557-2.637 1.62-6.186 2.14-9.298 2.457.009.231.023.456.055.646.085.51.163 1.015.225 1.528.142 1.155.3 2.307.458 3.46.31 2.269.408 4.61.954 6.84l.095.371c.128.468.156.891.114 1.272l.126-.057.4-.195.263-.122c.955-.446 1.869-.768 2.995-.66.856.081 1.574.665 1.579 1.581.022 4.109-5.509 5.429-8.672 6.217l-.927.227c-4.028.985-8.138 1.846-12.28 2.053-6.646.33-14.114-1.506-18.461-6.902-4.057-5.036-4.8-12.555-.426-17.644Zm30.179 17.261c-.696-6.184-8.289-6.525-10.473-2.603-.97-5.467-15.307-.472-14.186.615 4.25 4.12 10.698 4.491 16.241 3.728 2.824-.388 5.649-1.02 8.418-1.74Zm-8.425-16.211-1.908-.275-.752-.105c-4.732-.633-10.053-.961-13.945 2.076a6.721 6.721 0 0 0-2.517 4.108c3.68-.546 7.375-.963 11.081-1.309l1.011-.094c2.319-.21 4.636-.43 6.954-.661l1.645-.166 1.645-.172c.58-.061 4.483-.261 5.217-.126.078-.66.181-2.089.345-2.731-2.773.094-5.533-.112-8.289-.479l-.487-.066Zm8.787-27.646c2.828 1.721 7.138 5.735 4.096 10.002-3.582 3.763-8.74-.552-11.28-2.502-2.357-1.513-5.004 2.376-2.818 4.141 18.364 13.612 25.816-11.19 11.433-13.666-1.583-.271-2.172 1.493-1.431 2.025Zm5.062 7.252.137-.075.044-.028c.08-.052.03-.046-.151.018l-.136.047v.096c.035-.021.072-.037.106-.058Zm-36.227-15.293v-.086c.006-2.39 1.396-7.85 4.835-7.85 2.148 0 3.452 3.716 3.678 7.545l.008.156c.1 2.383-.553 7.587-3.686 7.587-3.166 0-4.803-4.929-4.835-7.352Zm50.628-.751v-.083c-.005-2.392-1.396-7.852-4.835-7.852-2.094 0-3.387 3.533-3.66 7.259l-.018.287c-.136 2.302.474 7.744 3.678 7.744 3.166 0 4.803-4.931 4.835-7.355Zm-48.667-23.49c2.807-.427 6.523.384 7.832 3.241.583 1.273-.107 2.68-1.576 2.75-3.552.171-6.738-.62-9.855 1.692-1.34.995-2.47 2.373-3.415 3.747l-.358.523-.298.431c-.642.946-1.25 1.974-1.156 3.115.028.338-.317.659-.644.645-2.044-.084-2.264-2.648-1.994-4.188.5-2.859 1.881-5.542 3.796-7.703 2.012-2.27 4.666-3.796 7.668-4.253Zm38.654 3.47c1.937-1.246 4.412-1.725 6.678-1.541 4.47.36 11.97 4.164 10.982 9.63-.305 1.685-2.647 2.575-4.027 1.64-1.484-1.006-1.844-2.568-2.948-3.882-.881-1.05-1.998-1.81-3.193-2.456-1.179-.638-2.543-1.025-3.88-1.166l-.223-.021c-.805-.069-4.871-.05-4.273 1.469.117.297-.325.532-.529.308-1.246-1.38.165-3.179 1.413-3.982Z" fill="#000"/></g><defs><clipPath id="clip0_32_184"><path fill="#fff" d="M0 0h460v448H0z"/></clipPath></defs></svg>