<svg width="300" height="221" fill="none" xmlns="http://www.w3.org/2000/svg"><g clip-path="url('#clip0_32_4')"><path d="M298.977 202.516c-.275-.183-.585-.225-.907-.239-.831-.038-1.663-.081-2.494-.126-3.286-.178-6.57-.411-9.864-.301-.952.032-1.904.036-2.854.084-.616.031-1.162-.092-1.633-.5 0-.143-.015-.263.002-.378.293-2.025.185-4.029-.269-6.023-.334-1.466-.673-2.934-.944-4.413-.551-3.005-1.359-5.942-2.26-8.855-.528-1.708-1.379-3.284-2.076-4.922-1.479-3.47-3.29-6.764-5.216-9.999-1.647-2.766-3.485-5.388-5.779-7.672-1.242-1.237-2.612-2.308-4.042-3.311-.328-.23-.682-.408-1.091-.428-.474-.024-.904.265-1.012.666-.109.403.029.752.424 1.01.331.216.687.394 1.01.62 2.763 1.93 5.04 4.339 6.934 7.114 1.027 1.505 1.973 3.063 2.888 4.64 1.691 2.917 3.126 5.955 4.543 9.011 1.359 2.932 2.307 5.977 3.039 9.104.397 1.696.77 3.397 1.153 5.096.638 2.827 1.264 5.655.768 8.584-.033.193-.02.395-.02.594a6.459 6.459 0 0 1-.265 1.876c-.186.605-.322 1.225-.499 1.833-.321 1.109-.753 2.158-1.444 3.106-.608.834-1.292 1.605-1.911 2.427-1.618 2.147-3.767 3.596-6.139 4.764-.141.07-.285.139-.435.186-.83.263-1.664.512-2.493.779-.604.195-1.216.339-1.845.437-1.607.249-3.233.339-4.84.559-4.109.561-8.227.555-12.345.272-4.547-.313-9.087-.721-13.63-1.092-.71-.059-1.418-.152-2.129-.218-2.091-.196-4.182-.39-6.274-.58-3.197-.289-6.392-.615-9.594-.849-3.874-.284-7.759-.409-11.627-.778-1.933-.184-3.874-.3-5.791-.623-1.523-.256-3.048-.501-4.566-.787-2.964-.56-5.848-1.393-8.625-2.589a18.31 18.31 0 0 1-4.442-2.723c-1.431-1.182-2.312-2.714-2.66-4.517-.195-1.007-.306-2.046-.223-3.078.176-2.18.205-4.353-.099-6.525-.101-.719-.032-1.414.381-2.057.189-.295.293-.648.411-.984.303-.868.891-1.481 1.677-1.926a6.722 6.722 0 0 1 2.347-.798c3.002-.443 6.014-.383 9.018-.104 2.88.268 5.746.671 8.622.983 1.102.12 2.213.172 3.322.221 2.042.091 3.817-.581 5.306-1.973.261-.244.514-.33.848-.296.71.074 1.419.171 2.131.196 3.049.106 5.947.84 8.742 2.031.255.108.512.219.778.289.488.128.946-.058 1.128-.427.185-.376.065-.863-.352-1.143a6.594 6.594 0 0 0-1.249-.678c-2.934-1.137-5.939-1.964-9.121-1.961-.356.001-.714-.009-1.07-.032-.495-.031-.549-.089-.568-.546-.004-.119.011-.239.002-.357-.152-2.084-.971-3.811-2.674-5.086a12.615 12.615 0 0 0-3.333-1.793c-.82-.293-1.652-.554-2.464-.866-2.776-1.066-5.419-2.423-8.064-3.768-1.841-.937-3.73-1.733-5.708-2.324-3.805-1.137-7.71-1.792-11.633-2.342-3.021-.424-6.049-.804-9.091-1.05-.667-.054-1.333-.126-1.976-.187-.052-.114-.108-.185-.113-.258-.044-.633-.09-1.266-.116-1.899-.268-6.501-.243-13.003-.057-19.505.079-2.774.188-5.547.28-8.32.025-.753.009-1.509.066-2.259.13-1.737.188-3.477.57-5.193.392-1.762 1.329-3.112 2.78-4.134a26.57 26.57 0 0 1 1.784-1.18c2.331-1.373 4.45-3.032 6.514-4.769a26.387 26.387 0 0 0 6.282-7.69c.684-1.262 1.18-2.578 1.359-4.024.19-1.538.273-3.08.32-4.624.022-.747-.075-1.506-.189-2.248-.171-1.114-.731-1.993-1.732-2.568-.828-.476-1.691-.866-2.619-1.096-.7-.173-1.341-.472-1.956-.842-.557-.335-.833-.775-.799-1.462.081-1.624.155-3.246.413-4.855.232-1.447.45-2.896.67-4.345.065-.431.108-.866.178-1.296.042-.255.179-.433.475-.42.238.012.476.022.714.024 3.013.026 6.031.106 9.038-.091 3.128-.206 6.259-.245 9.388-.363a45.475 45.475 0 0 1 5.23.12c.797.062 1.557.29 2.342.392 1.156.15 1.902-.315 2.285-1.415.132-.379.194-.767.207-1.165.056-1.665.088-3.329-.189-4.983-.13-.78-.205-1.571-.315-2.356-.335-2.393-.582-4.8-1.075-7.168-.911-4.381-1.819-8.763-2.752-13.14-.52-2.439-1.078-4.868-1.918-7.227-.384-1.079-.586-2.218-.689-3.366-.301-3.355-.594-6.71-1.135-10.04-.63-3.88-1.553-7.684-2.95-11.362-.933-2.455-2.114-4.786-3.807-6.818-3.261-3.912-7.045-7.168-11.709-9.333-2.738-1.272-5.571-2.24-8.496-2.985C169 1.469 164.872.8 160.638.873c-2.462.042-4.903.229-7.324.716-3.004.606-5.856 1.648-8.668 2.844-3.915 1.664-7.406 3.958-10.386 6.987-2.176 2.21-4.081 4.639-5.368 7.498-.293.65-.568 1.31-.908 1.935-.872 1.603-1.609 3.267-2.303 4.952-1.268 3.082-2.388 6.21-2.866 9.53-.095.66-.205 1.32-.309 1.985-.43.086-.815.166-1.201.237a8.526 8.526 0 0 0-4.216 2.067c-3.026 2.715-4.217 6.144-3.778 10.154.184 1.675.782 3.217 1.728 4.7a3.994 3.994 0 0 0-.878.794c-2.255 2.817-4.42 5.7-6.422 8.703a25.842 25.842 0 0 0-2.021 3.63 9.752 9.752 0 0 0-.768 2.49c-.429 2.657.825 4.846 3.049 5.855a11.3 11.3 0 0 0 3.299.934c1.652.205 3.307.379 4.958.584.99.123 1.977.129 2.965-.001.587-.077 1.175-.147 1.801-.081.266.67.524 1.332.792 1.99.994 2.438 2.506 4.483 4.607 6.088a21.82 21.82 0 0 0 3.618 2.27 12.736 12.736 0 0 0 4.677 1.256c2.7.207 5.39.18 7.987-.76.366-.132.737-.233 1.109-.194.154.279.05.503-.016.72-.163.53-.346 1.053-.513 1.582-.586 1.864-.981 3.756-.818 5.729.008.103-.051.212-.077.31-.215.073-.397.154-.588.197-.596.134-.849.544-.899 1.107a63.348 63.348 0 0 0-.135 1.898 6.458 6.458 0 0 0 .265 2.232c.438 1.479 1.188 2.072 2.721 2.213 1.19.11 2.377.025 3.566.028 3.61.006 7.212-.199 10.812-.45a22.96 22.96 0 0 1 2.157-.076c.05.676-.068 1.247-.159 1.828-.156.992-.064.953-1.06 1.02-.469.032-.939.138-1.396.26a5.316 5.316 0 0 0-1.703.821c-2.379 1.686-2.877 4.779-1.149 7.131 1.537 2.094 4.443 3.071 7.008 2.371 1.099-.3 2.065-.821 2.817-1.679 1.115-1.271 1.557-2.728 1.154-4.409-.289-1.203-.939-2.169-1.865-2.966a5.823 5.823 0 0 0-1.613-.992c-.311-.126-.429-.296-.395-.621.091-.867.167-1.736.253-2.603.022-.23.164-.345.391-.358.119-.008.238-.017.356-.022 3.921-.178 7.843-.352 11.763-.534a99.79 99.79 0 0 0 2.731-.172c.274-.02.553-.061.816-.138.617-.183 1.014-.577 1.149-1.232.089-.432.115-.864.106-1.3-.03-1.327-.065-1.341 1.15-.753.143.07.281.147.424.215.906.432 1.34 1.13 1.418 2.151.146 1.91-.032 3.797-.22 5.691-.121 1.212-.543 2.307-1.111 3.36a24.514 24.514 0 0 1-5.814 7.155c-2.031 1.715-4.125 3.341-6.415 4.703-.681.404-1.34.849-1.979 1.317-1.725 1.265-2.856 2.921-3.343 5.03-.441 1.906-.558 3.842-.647 5.781-.115 2.534-.15 5.071-.251 7.607-.301 7.53-.346 15.063-.031 22.595.017.396.023.793.056 1.188.058.696-.112.706-.618.689-1.63-.056-3.245.118-4.858.323-.275.034-.552.082-.828.082-.299-.001-.602.22-.894.009-.031-.089-.076-.162-.08-.237-.173-3.167-.454-6.328-.387-9.505.035-1.665.009-3.331.021-4.996.013-1.904.019-3.807.061-5.71.099-4.52.127-9.04-.071-13.557a16.447 16.447 0 0 0-.331-2.711c-.681-3.191-2.279-5.786-5.034-7.632-1.352-.906-2.753-1.722-4.174-2.508-2.395-1.325-4.194-3.226-5.506-5.606-1.486-2.699-2.314-5.545-1.926-8.666.098-.786.116-1.581.176-2.372.037-.479.016-.956-.121-1.415-.237-.792-1.023-1.049-1.698-.556-.222.162-.405.377-.598.574-1.385 1.421-2.669 2.933-3.925 4.466-.904 1.102-1.808 2.208-2.534 3.444-.411.701-.659 1.448-.623 2.259.024.552.077 1.113.204 1.649.664 2.821 1.869 5.369 3.794 7.569 1.57 1.795 3.262 3.46 5.035 5.051 1.866 1.673 3.581 3.479 4.888 5.641.451.745.947 1.464 1.435 2.186.131.192.293.374.474.521.281.229.576.218.88.028.303-.19.444-.479.363-.807-.073-.301-.223-.59-.378-.862-.452-.791-.933-1.566-1.385-2.356a16.137 16.137 0 0 0-2.097-2.877 41.108 41.108 0 0 0-3.12-3.1 51.975 51.975 0 0 1-4.533-4.544c-1.66-1.884-2.734-4.046-3.395-6.459-.398-1.453-.21-2.695.719-3.897a109.441 109.441 0 0 1 4.075-4.962c.121-.139.228-.337.521-.23-.033.42-.05.854-.106 1.283a11.201 11.201 0 0 0 .18 3.905c1.096 4.922 3.506 8.97 7.953 11.608.51.303 1.027.596 1.547.884 1.006.557 1.969 1.181 2.922 1.824 2.034 1.371 3.291 3.282 3.934 5.618.317 1.149.456 2.33.498 3.523.136 3.845.143 7.692.063 11.537-.1 4.798-.069 9.595-.09 14.393-.004 1.109.075 2.218.128 3.327.067 1.386.155 2.771.217 4.157.02.47-.029.525-.524.6-1.605.246-3.206.544-4.82.694-3.161.292-6.296.726-9.401 1.378-2.247.471-4.481 1.007-6.737 1.433-1.633.308-3.292.473-4.937.724-.978.149-1.947.35-2.924.509-2.267.37-4.538.719-6.805 1.092-2.11.347-4.22.694-6.323 1.084-.679.126-.87-.091-1.074-.621-.357-.923-.697-1.852-1.049-2.776-.183-.48-.365-.962-.572-1.433-.319-.724-.668-1.435-.99-2.158-1.076-2.417-2.529-4.57-4.465-6.386-1.69-1.585-3.69-2.587-5.933-3.088-2.921-.654-5.88-.812-8.866-.594-1.702.125-3.389.351-5.08.568-2.557.329-5.06.93-7.582 1.44-.154.031-.314.061-.456.124-.333.15-.557.549-.508.865.062.396.4.697.826.712.197.007.398-.006.593-.034.744-.109 1.489-.217 2.23-.345 2.42-.419 4.835-.857 7.277-1.144 3.321-.389 6.626-.494 9.951.036 3.078.49 5.575 1.869 7.58 4.258 1.897 2.259 2.937 4.958 4.105 7.597.4.903.712 1.845 1.05 2.774.074.203.279.388.129.662-.411.243-.905.214-1.363.318-1.582.36-3.109.942-4.722 1.179a1.477 1.477 0 0 0-.546.219c-.496.314-.443 1.115.081 1.382.218.11.445.156.69.115.547-.093 1.098-.164 1.641-.273 1.823-.367 3.619-.863 5.462-1.147a171.32 171.32 0 0 0 5.733-1.006c3.503-.665 7.03-1.181 10.554-1.718a6.374 6.374 0 0 1 1.95-.021c-.373 1.349-.466 2.684-.554 4.023a26.63 26.63 0 0 0 .492 7.094c.48 2.366.946 4.738 1.863 6.988.013.03-.003.072-.01.148-.495.087-.997.209-1.507.259-2.89.286-5.7.964-8.471 1.789-1.937.576-3.815 1.327-5.516 2.45-.329.217-.67.437-.941.717-.714.738-.714 1.554-.04 2.338.344.399.779.663 1.271.848.711.268 1.447.383 2.2.466 1.138.126 2.295.104 3.409.418.15.235.389.121.592.151.142.007.286-.017.425.032-.14-.036-.284-.02-.426-.024-.21.017-.433-.051-.626.091-2.354.324-4.708.649-7.062.971-1.727.237-3.452.487-5.182.701-2.319.289-4.641.559-6.963.819-2.639.295-5.276.595-7.919.847-2.288.218-4.583.351-6.872.557-4.898.44-9.808.672-14.72.857-6.97.264-13.945.358-20.906.919-4.384.353-8.788.349-13.18-.155-2.588-.297-4.938-1.102-6.97-2.742a33.086 33.086 0 0 1-2.23-1.964c-2.373-2.292-4.122-5.004-5.316-8.075a4.307 4.307 0 0 1-.242-.915c-.23-1.527-.494-3.052-.651-4.587-.162-1.575-.307-3.155-.223-4.747.205-3.887.708-7.731 1.625-11.515.55-2.276 1.236-4.508 2.414-6.553 2.237-3.881 4.976-7.339 8.516-10.129 1.276-1.006 2.52-2.054 3.768-3.094 2.025-1.687 3.8-3.602 5.12-5.894.908-1.574 2.185-2.691 3.836-3.408.11-.047.21-.112.317-.162a9.86 9.86 0 0 0 2.802-1.978c.674-.671 1.34-1.351 2.022-2.014 1.436-1.397 3.114-2.26 5.14-2.47 1.652-.171 3.303-.396 4.903-.888a6.886 6.886 0 0 0 2.578-1.423c.655-.579 1.276-1.195 1.769-1.919 1.56-2.294 3.089-4.608 4.288-7.117.46-.964.865-1.955 1.304-2.929.857-1.895 2.016-3.576 3.457-5.084 1.893-1.98 4.131-3.444 6.59-4.594 3.012-1.41 6.111-2.598 9.269-3.649 3.665-1.22 7.418-1.96 11.259-2.303 2.841-.253 5.684-.499 8.519-.814 2.684-.299 5.366-.465 8.068-.402 2.181.052 4.357.146 6.527.372.278.029.549.056.816-.069.274-.128.442-.327.477-.629.041-.343-.057-.642-.37-.809a1.99 1.99 0 0 0-.671-.223c-1.455-.179-2.908-.411-4.369-.491-4.126-.227-8.238.009-12.34.495-2.164.257-4.335.446-6.505.643-2.448.222-4.883.514-7.28 1.086-5.102 1.218-9.978 3.061-14.708 5.308-.642.305-1.272.644-1.884 1.006-4.007 2.371-7.06 5.604-8.84 9.945-1.27 3.097-2.987 5.938-4.856 8.696-.332.49-.717.948-1.11 1.391-.868.977-1.94 1.579-3.23 1.872-1.317.3-2.649.492-3.985.638-2.254.247-4.17 1.182-5.83 2.687-.44.399-.866.816-1.271 1.251-1.2 1.287-2.532 2.37-4.16 3.1-1.664.747-2.999 1.913-3.912 3.521-.078.137-.18.261-.26.398-1.229 2.069-2.83 3.815-4.665 5.354a188.72 188.72 0 0 1-3.857 3.171c-2.376 1.886-4.436 4.072-6.235 6.507-2.133 2.885-3.908 5.955-4.849 9.457a63.112 63.112 0 0 0-2.12 14.069 20.043 20.043 0 0 0 .114 3.088c.06.511.086 1.027.115 1.541.02.361-.019.416-.398.429a277.62 277.62 0 0 1-4.279.127c-4.795.1-9.591.192-14.387.288v1.903c6.025-.119 12.05-.243 18.074-.346.417-.007.914-.225 1.25.109.284.283.148.755.228 1.138.164.775.332 1.548.499 2.322.736.955.986 2.152 1.574 3.18 2.212 3.863 5.178 6.994 9.068 9.197 1.213.687 2.544 1.08 3.924 1.308 1.762.293 3.537.445 5.32.545 3.53.197 7.054.038 10.577-.175 1.82-.109 3.636-.312 5.456-.384 6.854-.27 13.71-.483 20.565-.761 2.653-.107 5.304-.3 7.951-.508 3.2-.252 6.398-.546 9.594-.849 2.604-.247 5.208-.498 7.804-.812 3.343-.404 6.679-.873 10.017-1.315 3.85-.508 7.696-1.047 11.565-1.396 1.175-.106 2.355-.303 3.546-.045 1.547.337 3.102.636 4.657.938 2.488.482 4.976.96 7.467 1.428 1.867.351 3.717.793 5.61 1.012 3.459.398 6.88.317 10.246-.684a33.911 33.911 0 0 1 4.515-1.02c2.918-.448 5.86-.368 8.785-.174 2.17.143 4.336.413 6.491.757.689.111 1.14.327 1.437.991.527 1.177 1.379 2.122 2.378 2.928 1.3 1.047 2.683 1.961 4.21 2.655a35.479 35.479 0 0 0 4.206 1.622c4.484 1.385 9.088 2.147 13.747 2.61 1.302.13 2.608.217 3.912.317 1.739.134 3.476.314 5.218.382 2.814.108 5.616.375 8.422.59 1.027.079 2.057.141 3.082.24 2.722.265 5.44.575 8.164.811 2.487.215 4.969.473 7.465.605 2.927.155 5.843.525 8.768.737 2.807.204 5.621.326 8.438.177 2.613-.138 5.206-.49 7.809-.738 2.708-.259 5.272-.994 7.72-2.16 1.656-.789 3.181-1.77 4.513-3.044 1.266-1.212 2.302-2.614 3.383-3.982 1.101-1.393 1.8-2.971 2.19-4.696.07-.309.157-.614.241-.919.256-.919.257-.913 1.171-.892 1.11.025 2.221.089 3.329.05 3.414-.12 6.817.094 10.221.29.87.05 1.742.067 2.614.091.322.008.631-.059.906-.241a.848.848 0 0 0 .002-1.405ZM198.605 77.538c.015-.067.09-.127.149-.177 1.523-1.295 2.314-3.037 2.628-4.922.474-2.848.605-5.737.33-8.627-.045-.47-.176-.93-.253-1.397-.031-.187-.065-.42.172-.495.251-.078.342.13.397.323.183.647.367 1.298.381 1.974.02 1.027.005 2.055.005 3.082.004 1.502-.029 3.003-.221 4.498-.237 1.846-.935 3.5-1.978 5.02-.337.49-.735.937-1.316 1.159-.11.042-.249.018-.292-.11a.619.619 0 0 1-.002-.328Zm-3.218-32.869c.116-.075.321.095.393.334.526 1.747.829 3.542 1.115 5.338.305 1.914.592 3.831.849 5.752.146 1.097.261 2.203.313 3.308.128 2.729.313 5.456.268 8.19-.013.79-.103 1.578-.163 2.367-.009.117-.016.256-.081.34-.059.075-.195.108-.301.12-.048.006-.144-.078-.154-.133a2.435 2.435 0 0 1-.051-.582c.116-1.74.071-3.483.036-5.668-.12-2.84-.199-6.13-.72-9.38-.481-3.004-.816-6.037-1.582-8.993-.049-.19-.065-.39-.085-.587-.015-.159.013-.309.163-.406Zm-80.456 30.038a1.701 1.701 0 0 1-1.052-.033c-1.657-.574-3.189-2.658-3.218-4.426.042-.457.112-.961.291-1.453.341-.938.833-1.793 1.374-2.624.324-.498.652-.993.964-1.498.357-.578.574-1.213.736-1.87.044-.18.087-.396.354-.402.194-.005.291.214.228.57a5.422 5.422 0 0 1-.633 1.782 54.616 54.616 0 0 1-1.112 1.826 16.412 16.412 0 0 0-1.18 2.192c-.668 1.537-.298 2.856.779 4.043.212.233.456.44.701.642.5.411 1.043.714 1.73.635.187-.022.314.138.322.284.009.148-.123.284-.284.332Zm76.075-28.805c.024-.18.157-.311.305-.305.147.005.28.152.301.32.039.313.065.629.079.945.035.79.061 1.581.091 2.372h.02c.034.75.071 1.501.099 2.252.009.237-.002.475-.013.712-.008.172-.1.328-.264.348-.236.03-.324-.157-.368-.36-.008-.038-.017-.078-.018-.117-.082-2.016-.163-4.033-.243-6.05-.002-.038.006-.078.011-.117Zm-8.371-7.266c.01-.073.045-.163.1-.203.05-.038.149-.04.214-.02.07.022.136.08.186.137.646.75 1.284 1.506 1.933 2.253 1.286 1.477 2.053 3.163 2.21 5.137.11 1.387.104 2.77.036 4.153-.244 5.022-.511 10.044-.738 15.066-.08 1.779-.137 3.563.079 5.34.014.117.015.236.013.354-.003.182-.098.3-.278.315-.187.015-.293-.13-.326-.277a4.456 4.456 0 0 1-.11-.821c-.032-.87-.076-1.742-.062-2.612.041-2.493.05-4.989.253-7.477.049-.592.06-1.187.089-1.78h-.009c.124-2.254.244-4.507.372-6.76a57.87 57.87 0 0 0 .075-4.75c-.051-2.008-.687-3.799-1.991-5.34-.588-.696-1.178-1.39-1.756-2.093-.145-.177-.329-.356-.29-.622Zm-8.66 29.822c.427-2.62 1.076-5.192 1.667-7.777 1.112-4.862 1.464-9.786 1.194-14.759-.09-1.661-.18-3.324-.331-4.98-.165-1.814-.388-3.623-.611-5.431-.189-1.532-.418-3.06-.619-4.59-.025-.19.006-.387.024-.58.009-.098.083-.136.178-.11.072.02.189.034.203.077.11.334.231.669.288 1.014.169 1.015.337 2.032.455 3.054.296 2.557.72 5.1.844 7.676.103 2.137.229 4.273.311 5.775.032 5.052-.408 9.415-1.447 13.713-.54 2.232-1.072 4.466-1.452 6.731-.236 1.407-.425 2.823-.128 4.253.105.506.247.995.446 1.472.487 1.165 1.337 1.959 2.512 2.375.593.21 1.219.355 1.842.45 2.045.31 4.102.339 6.165.187 2.094-.153 4.189-.297 6.284-.44.195-.013.396-.007.588.026.105.018.222.099.184.247-.019.07-.056.174-.107.19-.223.07-.452.142-.684.163-1.223.11-2.446.224-3.671.3-2.57.156-5.139.426-7.715.113-.589-.072-1.18-.141-1.765-.244-2.588-.456-4.306-1.879-4.773-4.998-.194-1.302-.093-2.61.118-3.907Zm-49.447-31.532c.055-.472.124-.943.211-1.41.163-.885.152-.918.94-1.322 1.493-.765 3.026-.862 4.563-.113.825.403 1.527.987 2.22 1.58.271.231.533.483.835.665.536.325 1.142.107 1.38-.445a.736.736 0 0 0-.018-.683c-.076-.137-.153-.286-.267-.387-1.038-.92-2.084-1.822-3.331-2.468-1.501-.776-3.042-.762-4.623-.362-.263.067-.521.148-.922.263.028-.724.269-1.225.444-1.741 1.287-3.797 2.885-7.453 4.924-10.91.36-.613.641-1.267 1.094-1.832.452-.565.965-.878 1.708-.895.949-.021 1.896-.132 2.845-.195 1.988-.133 3.959.093 5.928.31 1.731.19 3.461.407 5.186.652a65.895 65.895 0 0 1 20.308 6.322c.531.265.87.602 1.097 1.15.856 2.064 1.288 4.234 1.712 6.411.776 3.985 1.039 8.01.991 12.06-.013 1.15.002 2.3-.012 3.449-.004.416-.074.462-.501.468-.08.001-.159-.003-.238-.005l-11.173-.272c-.871-.022-1.743-.036-2.615-.06-.784-.021-.8-.022-.932-.738a10.145 10.145 0 0 0-.759-2.368c-1.791-3.942-5.91-6.648-10.571-6.175-2.899.293-5.252 1.652-7.032 3.976-.144.188-.3.375-.406.584-.184.365-.452.433-.854.474-1.496.151-2.984.38-4.473.593-.687.098-.69.114-.982-.503-.408-.864-.894-1.676-1.514-2.406-1.239-1.462-2.776-2.456-4.63-2.958-.565-.152-.592-.191-.533-.71Zm22.735 5.596c-.139.191-.296.37-.456.544a3659.017 3659.017 0 0 1-5.321 5.744 3.318 3.318 0 0 1-.44.39c-.105.078-.227.035-.323-.042-.1-.081-.149-.199-.083-.311.099-.169.21-.336.342-.479 1.878-2.033 3.759-4.064 5.644-6.091a1.56 1.56 0 0 1 .374-.281c.054-.03.159-.015.218.02.06.035.093.12.156.208-.032.089-.047.21-.111.298Zm.888 3.427a.762.762 0 0 1 .403-.2c.082-.014.185.103.246.142.079.221-.014.359-.118.473-.345.38-.699.753-1.055 1.123-.52.542-1.043 1.081-1.569 1.617-.11.112-.235.21-.362.302-.104.076-.239.079-.317-.015-.066-.08-.123-.221-.097-.31.041-.144.136-.284.241-.395.87-.918 1.744-1.832 2.628-2.737Zm-3.565 7.853c1.124-1.226 2.258-2.443 3.389-3.662 1.051-1.133 2.1-2.266 3.156-3.393.186-.2.343-.437.626-.53.126-.04.37.095.36.217.033.178-.072.303-.175.419-.368.414-.739.827-1.116 1.232-1.836 1.97-3.674 3.939-5.511 5.908-.081.087-.155.182-.24.264-.192.184-.349.457-.687.334-.217-.08-.151-.408.198-.789Zm-20.719-.098c.586-.797 1.172-1.595 1.76-2.39.776-1.05 1.552-2.1 2.334-3.147.14-.186.252-.402.483-.509.117-.054.378.042.395.24-.009.04-.012.164-.066.258a6.72 6.72 0 0 1-.4.589c-1.269 1.72-2.538 3.44-3.812 5.155-.162.218-.291.482-.58.57a.283.283 0 0 1-.218-.038.335.335 0 0 1-.108-.198c-.04-.216.096-.372.212-.53Zm-.926-3.492c-.095.127-.223.226-.444.152-.045-.066-.129-.152-.164-.255-.021-.06.017-.16.06-.22.735-1.03 1.475-2.056 2.219-3.08.041-.057.127-.096.199-.111.072-.016.183-.02.223.023.074.079.174.216.149.291-.153.458-.49.807-.767 1.19a196.69 196.69 0 0 1-1.475 2.01Zm-5.182 20.211c-.252.067-.371-.115-.419-.304-.125-.495-.258-.994-.317-1.5-.123-1.055-.334-2.103-.306-3.174-.023-.47-.111-.942-.002-1.411.038-.164.141-.28.323-.275.195.006.257.14.245.31-.051.713.06 1.414.126 2.12.107 1.138.246 2.27.488 3.388.033.154.055.313.054.469-.001.15-.002.327-.192.377Zm.304-21.014c-.119.158-.237.316-.368.464-.132.15-.293.285-.502.151-.216-.138-.165-.325-.047-.507.043-.066.087-.132.134-.195 1.896-2.522 3.791-5.045 5.691-7.564.116-.153.273-.278.42-.406.091-.08.365.031.401.223-.008.04-.005.166-.059.256-.122.202-.271.388-.413.577l-5.257 7.002Zm42.83 64.527a.655.655 0 0 1-.223.071c-1.94.316-3.773-1.226-3.746-3.167.017-.176-.01-.385.144-.537a.284.284 0 0 1 .202-.079c.066.008.164.068.177.123.037.15.042.309.052.465.114 1.75 1.361 2.411 2.619 2.523.232.02.47-.016.705-.019.175-.002.314.076.324.26.009.169-.117.28-.254.36Zm1.045-1.573c.113.045.185.131.157.303-.072.038-.164.122-.26.128-.158.011-.267-.195-.191-.331.066-.117.176-.147.294-.1Zm3.968-10.95c-.135.077-.283.154-.434.175-.667.093-1.334.193-2.005.241-2.648.189-5.297.352-7.945.539-1.541.109-3.081.244-4.063.323-1.986.134-3.409.124-4.826-.114-.628-.105-1.241-.267-1.811-.549-.731-.361-1.152-.965-1.197-1.784-.026-.471.013-.948.05-1.42.007-.085.135-.21.225-.229.189-.04.282.113.304.275.021.154-.001.314-.003.472-.002.198-.017.397-.002.594.064.832.46 1.41 1.283 1.666.875.272 1.769.449 2.683.471.989.024 1.983.035 2.97-.03 2.451-.163 4.898-.378 7.348-.561 1.501-.112 3.004-.197 4.506-.309.67-.05 1.338-.142 2.008-.202a5.98 5.98 0 0 1 .825-.014c.128.007.189.138.187.258-.002.069-.047.166-.103.198Zm3.509-.299c-.162.017-.282-.068-.285-.258-.002-.141.106-.17.185-.201.153-.044.269.036.29.127.033.139-.005.313-.19.332Zm7.214-16.831c-.304 1.715-.619 3.429-.904 5.148-.266 1.605-.427 3.222-.411 4.851.004.468-.041.62-.586.642-4.198.17-8.401.286-12.592.57-4.272.291-8.547.496-12.824.681-1.263.055-2.521.26-3.78.405-1.098.126-1.11.114-1.167-1.008a9.892 9.892 0 0 1 .34-3.179c.425-1.523.761-3.074 1.343-4.552.236-.599.358-1.217.218-1.861-.087-.402-.383-.62-.782-.535-.385.082-.757.226-1.139.33-1.488.403-2.978.802-4.468 1.199-.191.05-.387.098-.583.108-1.901.09-3.801.176-5.688-.195-1.095-.215-2.151-.54-3.127-1.084a30.811 30.811 0 0 1-1.932-1.164c-2.354-1.549-4.048-3.63-5.087-6.262-.892-2.259-1.483-4.595-1.907-6.976-.571-3.206-.86-6.44-.926-9.696-.021-1.07.077-2.128.179-3.261.398.03.738.067 1.078.08.357.013.715.024 1.07-.003.354-.027.705-.1 1.056-.157.341-.055.68-.116 1.028-.176.016.356-.221.542-.335.784-.6 1.281-.557 2.528.189 3.738.576.933 1.336 1.665 2.344 2.121.217.098.426.212.648.295.919.34 1.482 1.026 1.856 1.897.109.253.186.524.322.761.189.33.581.493.905.425a.961.961 0 0 0 .754-.819c.039-.322-.034-.626-.151-.928-.504-1.306-1.303-2.347-2.605-2.947-.323-.149-.65-.29-.971-.444-.628-.298-1.099-.769-1.46-1.355-.468-.76-.428-1.51.104-2.214.286-.378.623-.718.946-1.066 1.438-1.553 2.676-3.246 3.46-5.223.918-2.314 1.381-4.705 1.004-7.206a8.403 8.403 0 0 1-.044-.354c-.024-.23.063-.376.309-.402.631-.066 1.261-.149 1.893-.197.661-.051 1.325-.118 2.044-.085-.104.653-.199 1.228-.286 1.805-.656 4.369 1.905 9.866 7.545 11.509 6.113 1.78 11.813-2.245 12.794-7.913.068-.39.144-.778.216-1.168.193-.2.441-.13.667-.125 4.518.11 9.037.224 13.555.339.198.005.398.002.592.033.223.036.334.185.315.418l-.008.118c-.239 2.844-.31 5.7-.665 8.535-.76 6.058-1.748 12.072-3.57 17.918-.165.529-.377 1.042-.56 1.565-.118.336-.266.67-.323 1.017-.126.767-.001 1.406.595 2.051.886.96 1.941 1.483 3.158 1.754 1.704.381 3.438.564 5.175.718.391.035.796-.022 1.157.156.122.198.057.39.022.584Zm-.868 119.319c-.307.202-.621.087-.908.023-2.639-.587-5.312-.854-8.012-.878-1.188-.011-2.376-.038-3.564-.018-2.589.046-5.13.472-7.599 1.221-4.127 1.253-8.275 1.195-12.455.392-3.109-.597-6.217-1.194-9.321-1.813-3.646-.726-7.312-1.359-10.89-2.395-2.029-.588-4.124-.755-6.214-.94a9.029 9.029 0 0 1-1.636-.272c-.19-.054-.361-.131-.46-.366a12.828 12.828 0 0 1 2.25-1.281c2.209-1.004 4.542-1.601 6.893-2.158 1.855-.438 3.748-.612 5.62-.931 2.924-.498 5.875-.867 8.737-1.681a169.237 169.237 0 0 0 5.673-1.725c2.339-.756 4.728-1.296 7.138-1.758 3.104-.596 6.069-.315 8.826 1.349.541.327 1.091.641 1.634.966.747.447 1.486.908 2.237 1.349 1.971 1.157 4.098 1.658 6.377 1.455 1.774-.159 3.546-.347 5.419-.532.234 1.533.314 3.033.19 4.533-.141 1.705-.183 3.401.063 5.098.016.112.002.229.002.362Zm.785-13.914c-.092.219-.173.443-.268.66-.587 1.333-.277 1.167-1.88 1.423-1.484.238-2.993.324-4.492.459a8.46 8.46 0 0 1-5.131-1.149c-.854-.499-1.698-1.017-2.541-1.534-1.455-.891-2.942-1.722-4.583-2.217a12.478 12.478 0 0 0-5.174-.43c-2.955.362-5.844 1.02-8.688 1.892-2.079.638-4.154 1.291-6.244 1.892-1.597.459-3.232.773-4.872 1.047-.273.046-.552.058-.826.098-.313.045-.541-.042-.654-.36-.197-.559-.463-1.102-.59-1.676-.485-2.202-.977-4.406-1.365-6.627-.204-1.165-.2-2.367-.274-3.348.093-2.066.147-3.927.648-5.741.096-.346.234-.526.603-.614a232.259 232.259 0 0 1 11.26-2.399c2.42-.449 4.863-.66 7.302-.936 1.848-.209 3.682-.541 5.523-.812 2.116-.313 4.234-.615 6.372-.728.435-.023.873-.03 1.307-.004 2.057.126 4.116.223 6.167.412 2.09.193 4.176.444 6.254.739 2.351.334 4.7.696 7.034 1.134 2.879.54 5.732 1.204 8.443 2.356.619.264 1.233.539 1.837.834 1.811.888 3.613 1.796 5.426 2.682a41.29 41.29 0 0 0 5.498 2.213c1.175.378 2.27.913 3.265 1.659 1 .751 1.577 1.732 1.85 2.945.229 1.019-.116 1.81-.872 2.421-.81.654-1.728 1.099-2.807 1.156-1.432.075-2.852-.054-4.27-.211-2.913-.322-5.817-.747-8.736-.989-3.001-.249-6.015-.313-9.015.138-1.355.204-2.603.651-3.73 1.436a4.928 4.928 0 0 0-1.777 2.179Z" fill="#000"/><path d="M138.125 73.423a6.124 6.124 0 0 0-1.17-.802c-1.103-.597-2.3-.82-3.548-.812-.395.027-.794.025-1.184.086-1.316.208-2.525.664-3.473 1.645-1.283 1.33-1.332 3.085-.143 4.502.546.652 1.237 1.106 2.011 1.432 1.583.667 3.226.76 4.889.411a5.795 5.795 0 0 0 2.457-1.132c1.835-1.464 1.914-3.758.161-5.33Zm-1.038 4.274c-.436.289-.931.395-1.464.425-.222-.019-.46-.05-.529-.337a.576.576 0 0 1 .22-.624c.501-.388 1.055-.48 1.66-.287.167.053.278.17.32.316.06.205-.035.392-.207.507Zm60.572 27.213c3.379-.063 6.727.277 10.072.71 5.233.677 10.381 1.77 15.466 3.152a35.98 35.98 0 0 1 7.286 2.845c1.893.992 3.805 1.952 5.62 3.087 4.781 2.988 8.697 6.852 11.765 11.582 1.081 1.667 2.011 3.409 2.731 5.262.445 1.143.931 2.272 1.341 3.428a52.514 52.514 0 0 1 2.357 9.189c.26 1.603.555 3.2.805 4.804.123.782.196 1.573.256 2.363.021.268-.029.557-.113.814-.123.377-.443.551-.822.583-.375.032-.775-.273-.89-.658a2.225 2.225 0 0 1-.079-.467c-.173-2.376-.663-4.704-1.031-7.051-.43-2.748-1.138-5.425-1.976-8.066a44.464 44.464 0 0 0-2.431-6.057c-1.594-3.265-3.721-6.163-6.273-8.756-2.834-2.88-6.075-5.175-9.645-7.06-2.843-1.5-5.716-2.9-8.803-3.825-2.352-.705-4.751-1.226-7.144-1.763-3.869-.87-7.787-1.456-11.727-1.88-3.952-.425-7.913-.43-11.875-.119-1.106.086-2.212.176-3.316.285-.484.048-.533.109-.515.605.045 1.19.094 2.381-.096 3.561-.332 2.072-.596 4.171-1.33 6.144-1.911 5.135-5.367 8.802-10.527 10.781-.295.113-.607.184-.915.256-.332.077-.632-.045-.895-.23-.51-.358-.488-1.04.025-1.405.235-.167.503-.237.776-.276.316-.046.622-.106.911-.25 2.624-1.307 4.917-2.986 6.658-5.414 1.564-2.18 2.505-4.564 2.923-7.188.106-.665.283-1.318.387-1.982.173-1.099.235-2.207.172-3.32a13.925 13.925 0 0 1-.026-1.308c.04-.956.362-1.384 1.3-1.565a54.164 54.164 0 0 1 3.403-.526c2.05-.266 4.115-.242 6.175-.285Z" fill="#000"/><path d="M133.791 14.931c-.025-.283.193-.422.345-.59 2.846-3.155 6.119-5.745 9.997-7.533 3.101-1.43 6.264-2.677 9.638-3.318 1.638-.31 3.281-.567 4.949-.606 2.457-.056 4.914-.104 7.362.223 2.124.283 4.211.74 6.292 1.237 3.446.821 6.745 2.02 9.884 3.679 2.73 1.444 5.095 3.343 7.257 5.522.14.14.264.296.407.433 2.783 2.671 4.585 5.935 5.82 9.552 1.09 3.195 1.857 6.466 2.414 9.793.386 2.308.59 4.636.87 6.956.029.234.024.472.035.695-.271.148-.381-.054-.501-.186-.913-1.009-1.978-1.823-3.146-2.515-1.227-.728-2.425-1.506-3.663-2.214-4.028-2.307-7.839-4.955-11.744-7.456-5.251-3.363-10.709-6.33-16.491-8.684-4.198-1.71-8.538-2.915-12.998-3.718-3.084-.555-6.189-.91-9.303-1.236a34.04 34.04 0 0 0-4.271-.2c-.793.017-1.585.033-2.368.188-.253.05-.53.152-.785-.022Z" fill="#D42488"/><path d="M146.931 34.152c-1.138.067-2.262.248-3.221.983-.156.12-.321.239-.5.315a.853.853 0 0 1-1.05-.307c-.215-.314-.207-.664.052-.987.122-.153.272-.288.429-.405 1.898-1.407 3.987-1.87 6.281-1.22 1.392.395 2.61 1.127 3.734 2.022.342.272.652.578.822.998.179.443.061.873-.327 1.147-.355.249-.725.239-1.092-.059-.184-.148-.323-.35-.506-.5-1.345-1.094-2.807-1.923-4.622-1.987Z" fill="#020202"/><path d="M190.534 21.448c-.006.404-.212.666-.575.817-.344.144-.629.004-.862-.224a2.682 2.682 0 0 1-.417-.573c-.789-1.349-1.825-2.49-2.982-3.522-1.89-1.687-3.8-3.352-5.701-5.028-1.254-1.105-2.592-2.082-4.149-2.727a2.358 2.358 0 0 1-.603-.368c-.262-.22-.327-.685-.151-.983.173-.295.45-.468.789-.429.27.032.537.134.793.236 1.405.56 2.724 1.276 3.89 2.25.851.71 1.698 1.426 2.529 2.16a570.339 570.339 0 0 1 4.162 3.72 16.67 16.67 0 0 1 2.443 2.745c.251.353.447.745.66 1.123.14.248.18.522.174.803Zm-12.047.635c.067.021.239.036.361.122 1.218.86 2.648 1.24 4.008 1.769 1.661.646 3.327 1.276 4.951 2.014 2.157.982 3.983 2.428 5.679 4.054.254.243.457.545.664.833.191.266.257.576.223.903a.81.81 0 0 1-1.143.654c-.263-.117-.452-.316-.639-.521-2.037-2.244-4.5-3.852-7.317-4.945a208.114 208.114 0 0 1-4.959-1.997c-.729-.304-1.451-.636-2.11-1.085-.384-.262-.632-.596-.601-1.085.026-.415.379-.734.883-.716Zm-10.461-9.753c.544.006 1.051.092 1.524.308.682.312 1.369.616 2.03.97a26.764 26.764 0 0 0 4.574 1.938c2.352.744 4.474 1.978 6.564 3.261.199.122.387.282.537.46.245.292.324.629.13.99-.196.364-.591.565-1.001.428-.371-.124-.723-.314-1.069-.502-.936-.511-1.858-1.048-2.797-1.553a18.035 18.035 0 0 0-3.275-1.37 20.46 20.46 0 0 1-4.749-2.118c-.437-.268-.897-.5-1.356-.731a3.438 3.438 0 0 0-1.355-.382c-.62-.04-.954-.383-.941-.844.013-.464.389-.791.972-.844.078-.007.158-.008.212-.011Zm-8.226-1.877c-1.319-.289-2.636.056-3.936.388a15.137 15.137 0 0 1-3.883.457c-1.227-.01-2.452.1-3.681-.05a24.608 24.608 0 0 1-3.725-.738 3.569 3.569 0 0 1-.664-.253c-.406-.21-.582-.608-.466-.985a.87.87 0 0 1 1.035-.581c.695.158 1.388.315 2.092.437.786.137 1.573.21 2.365.222 1.387.021 2.774.005 4.162.002.801 0 1.564-.227 2.34-.385a80.781 80.781 0 0 1 2.684-.51 3.811 3.811 0 0 1 1.766.105c.226.07.452.15.659.26.346.184.517.482.465.883-.05.394-.372.692-.808.746-.117.014-.237.002-.405.002Zm13.956 10.753c-.709-.017-1.319-.196-1.92-.391-3.058-.992-6.023-2.199-8.784-3.865-1.119-.674-2.214-1.392-3.456-1.833-.345-.123-.63-.319-.786-.677-.121-.28-.108-.535.053-.789.196-.307.492-.387.825-.342.153.02.297.103.447.153 1.245.415 2.423.978 3.544 1.653 2.454 1.477 5.068 2.601 7.759 3.56.746.266 1.503.494 2.284.635.232.042.467.1.683.191.412.173.642.569.579.934-.065.382-.386.679-.821.745-.156.024-.316.021-.407.026Zm-1.314-9.205c-.368-.008-.695-.148-1.015-.309-.743-.374-1.485-.75-2.229-1.123-2.561-1.284-5.255-2.203-8.03-2.895-.345-.086-.696-.17-1.021-.307-.422-.179-.623-.589-.527-.957a.87.87 0 0 1 1.007-.633 72.16 72.16 0 0 1 2.787.592c2.491.564 4.814 1.567 7.085 2.707.602.302 1.206.6 1.799.92.276.15.547.324.783.53a.851.851 0 0 1 .231.975c-.137.321-.47.513-.87.5Z" fill="#010001"/><path d="M196.919 29.866c-.002.012-.005.133-.041.245-.102.32-.292.563-.644.626-.336.06-.649-.01-.843-.304-.172-.262-.301-.554-.429-.842-.642-1.451-1.341-2.872-2.225-4.195a2.37 2.37 0 0 1-.282-.519c-.111-.323-.05-.626.211-.868s.687-.29.988-.075c.19.135.363.309.502.496a22.907 22.907 0 0 1 2.561 4.41c.128.292.23.593.202 1.026Z" fill="#020001"/><path d="M146.005 39.78c-1.717-.008-3.28.484-4.692 1.455-2.785 1.913-4.264 5.666-3.152 9.382 1.205 4.03 5.399 7.02 10.02 6.003 3.184-.702 5.959-3.275 6.349-7.294.495-5.094-3.484-9.517-8.525-9.547Zm2.549 5.968c.081-.013.184.104.246.143.078.22-.015.359-.118.473-.345.38-.7.753-1.056 1.123a183.88 183.88 0 0 1-1.569 1.617 2.937 2.937 0 0 1-.361.302c-.104.076-.24.078-.317-.015-.066-.08-.124-.221-.098-.31.042-.144.137-.284.241-.395.87-.918 1.745-1.832 2.628-2.737a.767.767 0 0 1 .404-.201Zm-7.509 3.452c-.105.078-.226.035-.322-.043-.1-.08-.15-.198-.083-.31.099-.169.209-.336.341-.479 1.878-2.034 3.76-4.064 5.644-6.091a1.56 1.56 0 0 1 .374-.281c.054-.031.159-.015.218.02.061.035.093.119.156.208-.031.089-.047.21-.11.298-.139.19-.296.37-.457.544a3704.16 3704.16 0 0 1-5.321 5.744 3.27 3.27 0 0 1-.44.39Zm10.897-2.348c-.368.415-.739.827-1.117 1.233-1.836 1.97-3.674 3.939-5.511 5.908-.081.087-.154.181-.24.263-.192.185-.348.458-.687.334-.217-.079-.15-.408.199-.788 1.124-1.226 2.258-2.443 3.389-3.662 1.05-1.133 2.1-2.266 3.155-3.393.187-.2.344-.437.626-.53.126-.04.37.095.36.217.034.178-.071.303-.174.419ZM128.65 42.43c-2.444-3.58-7.105-4.133-10.358-1.28-2.158 1.892-3.079 4.343-3.19 7.132.067 1.92.52 3.693 1.625 5.27 2.524 3.602 7.189 4.137 10.456 1.199a8.784 8.784 0 0 0 2.477-3.71c1.048-3.03.814-5.94-1.01-8.611Zm-10.955 7.444c-.133.15-.293.285-.503.15-.215-.137-.165-.325-.047-.506.044-.066.087-.132.134-.195 1.896-2.522 3.791-5.045 5.692-7.564.116-.153.273-.278.419-.406.092-.08.365.031.402.223-.009.04-.005.166-.06.256-.122.202-.27.387-.412.576-1.752 2.335-3.504 4.669-5.257 7.002-.119.158-.238.316-.368.464Zm4.801.49c-.044-.065-.128-.151-.164-.254-.02-.06.018-.16.06-.22.736-1.03 1.475-2.056 2.219-3.08a.353.353 0 0 1 .2-.111c.072-.016.183-.02.222.023.074.079.174.216.149.291-.153.458-.489.807-.767 1.19-.487.673-.978 1.343-1.475 2.01-.095.127-.222.226-.444.152Zm6.276-2.207a6.522 6.522 0 0 1-.4.589c-1.268 1.72-2.537 3.439-3.811 5.154-.163.218-.292.483-.58.57a.281.281 0 0 1-.218-.037.33.33 0 0 1-.108-.198c-.041-.217.096-.372.212-.53a828.737 828.737 0 0 1 4.094-5.537c.139-.186.251-.402.482-.509.117-.054.378.042.395.24-.009.039-.011.164-.066.258Zm33.808 61.169c-1.539-1.153-3.253-1.4-5.02-.543-2.251 1.093-2.309 3.58-.9 5.052.957.999 2.139 1.454 3.748 1.423.121-.014.486-.011.825-.101 1.345-.356 2.386-1.078 2.703-2.521.306-1.396-.283-2.505-1.356-3.31Zm-1.687 4.611a.66.66 0 0 1-.224.071c-1.939.316-3.772-1.226-3.745-3.167.016-.176-.011-.385.143-.537a.284.284 0 0 1 .203-.079c.065.008.163.068.177.123.037.15.041.309.051.465.114 1.75 1.362 2.411 2.619 2.522.233.021.47-.016.706-.019.175-.002.314.077.323.261.01.169-.117.28-.253.36Zm1.202-1.27c-.073.038-.164.122-.26.128-.158.01-.267-.195-.191-.331.065-.117.176-.147.294-.1.112.045.185.131.157.303Z" fill="#D42488"/></g><defs><clipPath id="clip0_32_4"><path fill="#fff" transform="translate(0 .598)" d="M0 0h300v220.051H0z"/></clipPath></defs></svg>