<svg width="460" height="416" fill="none" xmlns="http://www.w3.org/2000/svg"><path fill-rule="evenodd" clip-rule="evenodd" d="M89.206 407.785c-7.113-.344-4.252-12.782-3.742-17.35 5.632-16.686 4.308-34.89 6.523-52.378 1.38-16.326 3.153-32.6 4.644-48.914 2.929-33.113 23.964-100.525 47.967-111.366 3.023-13.265 15.512-25.645 31.312-25.645 10.777-12.753 23.749-21.729 40.387-19.917 6.874.313 13.543 7.603 20.13 9.011 3.689.509 36.426-.8 42.983 3.093 4.566 2.345 8.69 6.678 7.347 12.193-2.143 6.684 4.517-.548 18.409 6.585 28.328 17.008 11.399 39.763 10.65 40.466 17.678 24.59 33.127 44.536 40.277 74.591 4.634 22.313 4.111 45.346 7.993 67.774 1.371 7.777 3.474 15.287 5.749 22.838 2.465 9.884 3.664 34.515 5.024 34.737 2.476.614-1.432 5.696-4.054 5.7-72.738 12.063-146.623.499-219.75-1.39-20.61-.715-41.241-.881-61.849-.028Z" fill="#FDFBF5"/><path fill-rule="evenodd" clip-rule="evenodd" d="M199.452 205.733a.258.258 0 0 0-.259-.239.258.258 0 0 0-.258.239l-.512 4.956c-.626 6.054-1.227 12.095-1.664 18.176a469.933 469.933 0 0 0-1.082 22.765c-.612 26.469-.732 52.953-.784 79.43-6.012-.416-12.026-.807-18.042-1.173l-6.202-.376-2.552-.157c-1.725-.106-3.685-.542-4.891.987-.484.611-.726 1.407-.275 2.133 1.039 1.675 2.633 1.615 4.438 1.688 1.702.068 3.402.136 5.104.201 3.648.142 7.294.275 10.943.377 3.827.109 7.654.195 11.482.26.038 11.179.502 22.342 1.002 33.507l.226 5.025c.612 13.586 1.27 27.185 2.206 40.755.077 1.11 1.648 1.109 1.725 0 1.054-15.281 1.749-30.595 2.437-45.897.491-11.091.8-22.189.929-33.291.506.004 1.012.011 1.517.012 14.366.063 28.726.126 43.091-.008a.343.343 0 0 0-.065.094c-1.038 2.453-1.138 5.583-1.111 8.215a40.372 40.372 0 0 0 1.13 8.939c2.493 10.521 8.92 19.941 16.242 27.732l.239.252c1.728 1.825 3.709 3.658 4.768 5.981 1.084 2.373 1.46 5.148 1.995 7.697l.063.294 2.09 9.65c.662 3.064.852 7.535 3.279 9.746 2.265 2.064 5.263.986 6.329-1.671.833-2.073.004-4.351-.489-6.423l-3.862-16.226c-.635-2.646-1.328-5.31-2.697-7.688-1.403-2.434-3.459-4.199-5.558-6.005a68.814 68.814 0 0 1-10.705-11.574c-3.084-4.237-5.718-8.908-7.567-13.82a49.923 49.923 0 0 1-2.207-7.589c-.496-2.442-.493-4.974-1.024-7.39-.037-.167-.178-.282-.338-.333.038-.108-.021-.254-.173-.263l-11.747-.755c-10.443-.674-20.885-1.363-31.317-2.154l-1.843-.132c.142-14.809.02-29.62-.248-44.434-.244-13.585-.249-27.173-.653-40.757-.202-6.741-.634-13.466-1.117-20.194-.493-6.88-1.282-13.703-1.993-20.562Zm110.307 78.768c.125-.754-.824-1.223-1.263-.532-5 7.882-7.413 16.444-8.431 25.67-.897 8.141-.632 16.398-.186 24.562.477 8.705 1.033 17.408 1.596 26.11l.866 13.343 2.169 33.451c.156 2.392.698 4.568 2.759 5.681.262.218.533.413.85.583 1.114.594 2.591.294 3.234-.848l-.258.169c-.226.143.028-.056.758-.592l.618-.801a5.035 5.035 0 0 0 .854-2.145c.179-1.25-.052-2.62-.134-3.875l-1.424-21.935c-1.106-17.053-2.397-34.101-3.371-51.161-.453-7.953-.77-15.911-.555-23.878.214-7.921.618-15.977 1.916-23.802h.002Zm-43.276-146.836-.278-.047c-9.936-1.651-20.739-1.341-29.819 3.447-.075.038-.042.164.043.16l2.922-.117c9.253-.362 18.477-.576 27.575 1.597l.932.225c3.275.799 6.697 1.777 9.329 3.939 2.516 2.069 3.769 5.258 4.972 8.195l.161.389c1.223 2.898 2.77 5.649 5.447 7.463 3.467 2.349 7.642 2.062 11.619 2.38 7.003.562 12.728 5.637 15.578 11.846 1.725 3.76 2.46 7.975 2.607 12.088.075 2.092.085 4.267-.194 6.347-.089.665-.911 3.087-1.331 3.03-.932-.131-1.782.355-2.073 1.1a153.732 153.732 0 0 0-7.113-6.463 136.714 136.714 0 0 0-19.561-13.922c-5.272-3.084-10.836-6.137-16.594-8.448.466-.013.927.094 1.341.308.192.1.38-.139.23-.297-1.813-1.908-3.988-2.18-6.178-1.672a59.617 59.617 0 0 0-1.405-.428c-.234-.068-.349.254-.159.378l.538.343c-2.39.801-4.737 2.375-6.594 3.616-5.336 3.564-10.033 7.923-14.794 12.199l-.866.777c-4.192 3.741-8.488 7.376-13.251 10.376-2.491 1.572-5.11 3.024-7.855 4.105-2.356.928-6.19 1.511-7.295 4.001-.979 1.191-.569 2.709.579 3.512 1.937 2.131 5.81.753 8.118-.134a54.747 54.747 0 0 0 8.049-3.864c4.989-2.93 9.591-6.57 13.878-10.444 4.477-4.046 8.699-8.345 13.054-12.518 1.887-1.809 3.728-3.659 5.618-5.465l.95-.898c.963-.904 2.338-2.314 3.807-3.167 2.768 1.65 5.578 3.233 8.32 4.927 3.828 2.363 7.544 4.896 11.202 7.512a171.399 171.399 0 0 1 19.913 16.728c11.361 11.092 21.042 23.758 29.498 37.167l.645 1.022c4.805 7.676 9.348 15.599 12.571 24.081 3.546 9.334 5.27 19.148 6.206 29.056.93 9.836 1.244 19.722 2.282 29.55 1.066 10.078 3.166 19.934 5.554 29.772l.57 2.332c2.16 8.811 4.39 17.622 5.502 26.64.592 4.818.949 9.701.869 14.557-.082 4.885-.85 9.661-1.469 14.494-.237 1.852 1.586 3.398 3.216 3.642 1.877.282 3.486-.914 4.07-2.655 1.817-5.43 2.148-11.433 2.091-17.133-.058-5.786-.797-11.534-1.835-17.221-2.045-11.185-5.2-22.138-7.84-33.19a197.963 197.963 0 0 1-4.726-29.477c-.875-10.353-1.397-20.74-2.991-31.019-1.572-10.147-4.53-19.839-8.993-29.09-4.065-8.425-9.129-16.354-14.439-24.04-6.45-9.332-13.534-18.213-21.45-26.305a4.373 4.373 0 0 0 2.112-.679c2.052-1.279 3.007-3.781 3.301-6.065.688-5.347.523-10.927-.854-16.153-2.217-8.43-7.975-15.922-16.318-18.96-2.149-.783-4.433-1.069-6.708-1.125-2.16-.054-4.519.228-6.603-.456-3.317-1.091-4.738-4.996-5.984-7.956l-.057-.136c-1.598-3.773-3.514-7.007-6.973-9.363-3.691-2.514-8.315-3.656-12.669-4.394Zm-94.407 14.92c-2.984-1.036-6.718-.096-9.638.808-3.252 1.008-6.259 2.866-8.836 5.07a26.67 26.67 0 0 0-6.554 8.405l-.152.308c-1.449 2.978-3.101 7.062-2.369 10.331.02.091.044.18.071.269-5.923 2.916-11.393 6.567-16.158 11.194-5.547 5.39-10.246 11.522-14.22 18.147-15.787 26.311-18.566 57.912-20.432 87.918l-.465 7.608c-1.012 16.43-2.197 32.82-5.273 49.022l-.225 1.17c-3.291 16.964-8 34.057-7.523 51.46.143 5.214 7.85 5.178 8.075 0 .842-19.492 5.39-38.312 8.472-57.5 5.422-33.756 2.704-68.559 10.387-101.977 3.014-13.115 7.683-25.836 14.352-37.543 3.293-5.784 7.061-11.372 11.476-16.36 3.798-4.293 7.745-8.425 12.184-12.034 1.418 1.421 4.253.697 4.993-1.374.509-1.424.361-3.086.687-4.577a22.81 22.81 0 0 1 1.277-4.058 26.728 26.728 0 0 1 4.618-7.188 29.623 29.623 0 0 1 6.976-5.718c2.629-1.569 5.505-2.037 8.277-3.182.094-.039.103-.164 0-.199Zm-11.599 180.408a.17.17 0 0 0-.029-.085.156.156 0 0 0-.158-.065.152.152 0 0 0-.08.04c-1.045.963-1.679 2.345-2.45 3.531a72.322 72.322 0 0 1-2.799 4.006c-1.96 2.611-4.143 5.071-6.342 7.482a90.269 90.269 0 0 1-6.487 6.416c-2.452 2.194-5.197 4.151-7.424 6.581-4.646 5.068-5.397 12.025-6.376 18.557l-.108.707a397.69 397.69 0 0 0-1.615 11.658c-.235 1.892-.47 3.788-.66 5.686l-.06.602c-.17 1.858-.216 3.743.851 5.368 1.142 1.737 3.742 2.345 5.285.681 2.655-2.863 2.157-7.946 2.502-11.627.286-3.044.61-6.085.972-9.121l.185-1.518c.427-3.452.773-6.976 1.563-10.37.696-2.987 2.024-5.243 4.203-7.409 2.194-2.18 4.474-4.217 6.5-6.565a64.865 64.865 0 0 0 5.831-7.95c1.493-2.383 2.692-4.979 3.788-7.57l.183-.433c1.059-2.526 2.806-5.817 2.725-8.602Zm-38.321-108.564c-.023-.353-.544-.359-.552 0l-.192 9.097c-.507 24.433-.193 48.924-2.646 73.273-1.157 11.48-3.286 22.792-5.749 34.058-1.262 5.764-2.586 11.513-3.842 17.279-1.225 5.618-2.538 11.264-3.51 16.935-.955 5.573-1.81 11.189-2.194 16.833l-.047.737c-.165 2.735-.954 6.757.553 9.18 1.63 2.626 4.756 2.673 6.505.165 1.641-2.352 1.233-6.539 1.522-9.345.29-2.862.611-5.721.962-8.576.69-5.566 1.601-11.12 2.547-16.648 1.972-11.513 4.831-22.88 6.943-34.376 2.163-11.778 3.7-23.639 3.766-35.631.065-12.093-1.216-24.163-1.862-36.232a3153.118 3153.118 0 0 0-2.204-36.749Zm115.455-75.996c-.657-2.21-2.972-3.59-5.232-2.97-2.07.569-3.779 3.081-2.97 5.23.883 2.345 2.426 4.345 3.728 6.478 1.202 1.969 2.956 3.52 4.181 5.454l-1.35 1.454c-.674.726-1.352 1.447-2.037 2.156l-2.353 2.437a232.074 232.074 0 0 1-5.574 5.608c-5.576 5.378-11.242 10.578-17.487 15.183a106.296 106.296 0 0 1-4.328 3.066l-.55.364c-1.011.661-2.138 1.312-3.359 1.199-2.965-.271-5.647-3.421-7.685-5.381l-.106-.103c-5.053-4.805-9.73-10.058-13.819-15.707a116.476 116.476 0 0 1-2.645-3.823c1.978-2.309 1.506-6.816 1.615-9.616.077-1.969.082-3.938.094-5.909l.006-.397c.022-1.276.08-2.5-.748-3.548-.047-.061-.148-.059-.209-.028-1.134.594-1.482 1.59-1.967 2.704l-.05.117c-.589 1.338-1.154 2.689-1.723 4.037-.598 1.41-1.147 2.841-1.701 4.267a81.17 81.17 0 0 0-.745 2.001c-.148.428-.3.853-.455 1.279l-.038.031c-.206.176-.38.361-.532.551-.632.317-1.134.893-1.371 1.741-.514 1.843.549 3.346 1.497 4.81 3.85 5.946 8.238 11.612 13.118 16.752a111.445 111.445 0 0 0 7.626 7.307l.463.4c2.383 2.049 4.972 3.989 8.155 4.468 3.727.56 6.758-1.292 9.612-3.425l.284-.214a158.512 158.512 0 0 0 7.919-6.381c5.234-4.516 10.213-9.366 14.631-14.687 4.298-5.176 8.547-10.963 11.197-17.192.16-.378-.263-.777-.596-.46a94.313 94.313 0 0 0-3.77 3.846c-.035-1.936.322-3.888.124-5.836-.242-2.367-.173-4.984-.85-7.263Z" fill="#000"/><path fill-rule="evenodd" clip-rule="evenodd" d="M143.432 99.771c2.308-16.649 7.587-32.812 8.345-49.709l1.352-21.692c.17-4.518 6.04-6.042 8.282-2.04 5.094-5.649 14.218-4.818 21.178-4.646 40.975 1.452 79.914 29.148 93.98 67.765.338.921.236 1.901-.146 2.777 6.556 21.858-16.631 35.931-32.444 45.677-6.415 6.777-13.955 12.408-22.469 16.264a78.861 78.861 0 0 1-31.519 7.42c-2.375.054-3.801-1.866-3.974-3.853-3.453-.804-9.36.124-11.186-3.412-20.819-9.041-34.385-31.954-31.399-54.55Z" fill="#FDFBF5"/><path fill-rule="evenodd" clip-rule="evenodd" d="M153.172 40.733c.059-.54-.722-.557-.882-.12-1.319 3.595-2.688 7.164-3.733 10.848-1.007 3.552-1.734 7.183-2.469 10.8a316.794 316.794 0 0 0-3.134 18.111c-1.852-1.445-4.277-1.577-6.559-.453-1.072.53-1.481 1.926-1.223 3.009.205.869.458 1.734.759 2.58a6.813 6.813 0 0 0-1.594 2.09c-1.052 2.134-.712 4.373.23 6.41-.071.12-.143.243-.211.372-1.364 2.648-.634 5.021.364 7.607.746 1.932.33 4.11 1.94 5.571a14.843 14.843 0 0 0 2.621 4.979c.279.508.694.917 1.189 1.219.109 2.844.439 5.675.986 8.468 2.188 10.883 9.134 20.58 17.73 27.421 8.413 6.692 18.292 10.691 28.953 11.985 5.176.628 10.36.43 15.494-.467l.64-.113c4.737-.86 10.47-2.283 13.745-5.855 1.723-1.879.716-6.014-2.329-5.624-1.613.208-3.017.465-4.538 1.061-1.185.465-2.371.912-3.587 1.292-2.331.724-4.741 1.29-7.159 1.603a47.796 47.796 0 0 1-15.259-.505c-9.06-1.786-17.863-5.907-24.737-12.112-7.992-7.213-12.676-16.55-13.366-27.316-.767-11.992.618-24.271 1.768-36.2a367.536 367.536 0 0 1 2.27-18.567c.894-6.027 1.43-12.044 2.091-18.094ZM223.896 2.01l-.386-.06c-15.385-2.34-31.573-2.174-46.033 4.174a52.777 52.777 0 0 0-8.039 4.389c-1.831-.192-3.67-.347-5.477-.371-2.275-.03-4.495 1.15-4.774 3.45-2.13.265-4.094 1.049-5.348 2.617a5.05 5.05 0 0 0-.983 2.055c-1.31.308-2.594.783-3.813 1.408-1.479.761-2.333 2.88-1.81 4.448.119.354.257.701.411 1.041l.118.255-.069.095c-1.182 1.898-.361 4.39 1.449 5.523 1.359.85 2.875 1.527 4.436 1.854a33.957 33.957 0 0 0-.342 1.893c-.038.257.293.44.441.186 0 0-.559 1.74-1.403 3.658-.331.754.729 1.424 1.135.661 1.075-2.03 1.74-4.112 2.716-6.206a7.6 7.6 0 0 0 2.665-.658 2.951 2.951 0 0 0 1.305-1.21c.019.02.03.047.049.073 2.904 3.734 8.58 5.043 12.967 6.225 4.711 1.271 9.533 2.055 14.373 2.631 8.451 1.005 16.966 1.193 25.458 1.583l1.686.08c3.448 3.026 7.89 4.904 12.446 5.477 2.546.308 5.126.181 7.629-.374a7.736 7.736 0 0 0 3.415 2.028c.231 4.82 2.921 9.384 6.984 12.044l-.071.286c-1.011 4.117-.997 8.616 2.623 11.476a8.81 8.81 0 0 0 1.589.993l-.124.285c-1.869 4.37-2.466 9.196 1.049 12.82 1.425 1.47 3.927 1.122 4.997-.563l.052-.086c.059-.1.122-.196.185-.296a.892.892 0 0 0 .456.451c1.336.575 1.869.152 3.089-.44a18.986 18.986 0 0 1 3.53-1.285c.975-.256 1.968-.44 2.97-.548 6.279 2.399 10.334 9.758 9.371 16.664-.523 3.761-2.589 7.485-6.188 9.045-1.575.684-3.427.971-5.131.74-2.308-.313-4.082-1.765-6.47-.935-.943.327-1.532 1.067-1.582 2.079-.085 1.589.477 2.782 1.427 3.665-1.674 1.398-3.025 3.341-4.479 4.89-1.819 1.939-3.662 3.879-5.627 5.667a50.093 50.093 0 0 1-5.919 4.669l-.219.145c-2.62 1.706-5.92 3.219-6.045 6.784-.04 1.075.611 2.06 1.494 2.608 3.302 2.046 6.894-.64 9.481-2.608a58.513 58.513 0 0 0 3.03-2.461 4.328 4.328 0 0 0 2.101-.383c.477-.211.943-.447 1.395-.707 1.483.372 2.882.045 4.033-.731 1.661.407 3.42.456 4.913.128a8.24 8.24 0 0 0 3.589-1.81c2.099.668 4.429.545 6.498-.726 1.239-.761 2.208-1.847 2.736-3.117.28-.431.436-.932.451-1.446v-.206c1.803.042 3.61-.578 5.005-2.004a6.923 6.923 0 0 0 1.977-4.605 9.047 9.047 0 0 0 4.737-3.2c2.091-2.702 2.37-6.039 1.295-9.02.07-.157.133-.317.188-.48 1.667-2.352 2.768-5.188 2.679-8.033a7.413 7.413 0 0 0-.156-1.306c1.641-.872 2.848-2.404 2.975-4.35a5.764 5.764 0 0 0-1.439-4.151 7.258 7.258 0 0 0 .549-3.653 7.105 7.105 0 0 0-1.267-3.33 5.08 5.08 0 0 0-.057-1.031c.066-.341.122-.696.15-1.055.313-3.945-2.411-7.398-5.727-9.219-.871-.478-1.815-.868-2.758-1.2-.684-.243-1.714-.323-2.317-.767.025-.02-.226-.343-.27-.515-.047-.214-.099-.423-.125-.641-.099-.912-.025-1.85-.007-2.768.082-4.158-.047-8.334-.486-12.47-.814-7.668-2.819-15.17-6.728-21.871-3.279-5.615-7.77-10.36-12.918-14.292-10.257-7.831-23.056-12.09-35.71-14.055Zm47.532 95.363c1.334-3.207-4.951-3.238-6.612-3.087l-.05.005c-3.741.373-9.587 2.171-11.119 5.944-.632 1.562 1.242 3.256 2.742 2.742 1.469-.503 2.293-1.582 3.473-2.528.31-.246.629-.48.958-.701-.171.55-.448 1.058-.833 1.438l-.091.085c-1.81 1.626 1.429 4.18 2.631 2.028a5.708 5.708 0 0 0 .695-3.703 4.086 4.086 0 0 0-.313-1.07c.122-.06.237-.124.359-.182l.214-.1c1.442-.653 7.589-3.22 7.54-.925-.007.254.324.254.406.054Z" fill="#000"/><path fill-rule="evenodd" clip-rule="evenodd" d="M184.961 132.638a14.982 14.982 0 0 0 6.296-4.841 2.904 2.904 0 0 0 .589-2.258c-.132-.813-.613-1.548-1.268-2.042-.657-.495-1.479-.739-2.274-.615-.691.108-1.378.486-1.923 1.271l-.113.157a9.921 9.921 0 0 1-3.635 3.048 8.18 8.18 0 0 1-4.498.79c-3.028-.341-5.113-1.977-7.331-4.201-.275-.28-.55-.569-.826-.863a1.302 1.302 0 0 0-.686-.528 1.51 1.51 0 0 0-1.69.578 1.383 1.383 0 0 0-.235.913c.204 2.303 1.408 4.357 3.118 5.971 1.901 1.793 4.42 3.033 6.791 3.468 2.612.479 5.274.136 7.685-.848Zm-8.918-35.53c-2.779 1.69-7.014 5.629-4.025 9.816 3.521 3.691 8.588-.542 11.084-2.457 2.315-1.483 4.918 2.333 2.77 4.066-18.045 13.355-25.367-10.983-11.235-13.41 1.557-.268 2.134 1.463 1.406 1.985Zm32.334-15.535c-.306-3.81-6.111-4.676-6.69-.905-.515 3.377.093 6.482 1.615 9.523 1.453 2.904 5.108 1.55 5.385-1.097.372-3.546-.118-5.15-.31-7.52Zm-44.19-1.687c-.81-1.06-1.979-1.782-3.378-1.375-4.374 1.28-3.085 7.488-1.548 10.51.834 1.64 3.533 2.056 4.752.611 1.986-2.355 2.939-7.061.411-9.384a3.277 3.277 0 0 0-.237-.362ZM203.363 64.9l-.691-.122c-2.138-.37-4.795-.724-6.307.992-.803.913-1.078 2.606 0 3.479 1.896 1.532 3.993.94 6.265 1.069 1.854.106 3.691.419 5.476.933 3.958 1.132 7.182 3.195 10.562 5.461.443.296.896-.27.685-.684-1.951-3.821-5.732-6.959-9.519-8.872-2.023-1.022-4.234-1.868-6.471-2.256Zm-35.188-1.712-.529.108c-5.756 1.202-13.234 3.604-15.959 9.257-.104.8.006.97.095 1.081l.029.039c.075.095.133.226.479.336l.293-.073c1.249-.328 2.237-.779 3.193-1.247l1.039-.51c1.203-.592 2.418-1.16 3.705-1.58a43.655 43.655 0 0 1 8.439-1.862 3.468 3.468 0 0 0 1.694-.644 2.55 2.55 0 0 0 .947-1.44c.202-.813.143-1.428-.292-2.162a2.743 2.743 0 0 0-1.337-1.151 3.133 3.133 0 0 0-1.796-.152Z" fill="#000"/><path fill-rule="evenodd" clip-rule="evenodd" d="M175.034 150.719s16.338 2.401 23.652-.992c7.291-3.381 14.383-6.653 20.996-11.132 6.777-4.589 12.526-10.039 16.629-17.013 3.817-6.491 6.99-13.378 10.185-20.212.186-.4 2.021-4.37 2.669-5.701.996-2.063 3.913-1.416 3.913 1.788 0 3.205.143 27.473-5.458 37.019-5.054 8.621-13.619 14.645-22.129 19.904-9.415 5.814-21.922 12.099-33.155 13.759-10.166 1.501-21.767-2.715-29.129-9.666-7.695-7.27-9.875-17.145-13.845-26.602-.889-2.115 2.256-3.39 3.179-1.311 1.737 3.916 22.493 20.159 22.493 20.159Z" fill="#000"/><path fill-rule="evenodd" clip-rule="evenodd" d="M145.028 91.614c1.04 2.832 2.625 5.78 4.563 8.163 7.836 6.635 15.453 2.962 19.318-6.03 1.471-6.357-2.432-13.202-6.564-17.877-5.97-5.982-15.714-2.843-18.458 4.269-.167.923-.268 1.84-.315 2.758.055 2.977.414 5.52 1.456 8.35m75.334-5.344c-10.324-12.277-29.641-12.935-29.148 5.962 2.218 23.919 39.567 18.049 29.148-5.962Zm-78.581-10.242c.363-.615.765-1.207 1.202-1.772.162-.098.254-.953.85-1.015 7.96-8.78 21.944-3.8 26.996 4.95a14.214 14.214 0 0 1 2.23 3.769c4.979-.914 10.783-.737 15.413 1.144 4.591-11.986 18.491-13.056 27.652-7.934 5.697 2.801 9.39 8.666 14.932 11.89 13.024.938 27.005-1.98 39.794 1.286 10.087 2.096 1.655 7.202-.036 3.795-12.06-3.562-26.345-.552-38.866-1.354-1.302 2.2-3.798 4.002-6.286 3.925-2.688 23.816-37.427 19.867-38.625-1.303-1.359-2.149-3.049-4.205-5.469-5.544-.927-.191-1.822-.44-2.639-.827-1.399-.197-3.553.395-4.838 1.558-4.406 26.427-29.786 23.349-34.321.199-.09-.092-.343-.437-.536-.99-1.553-2.053-5.352-2.816-4.746-6.28.542-3.465 4.918-3.423 7.293-5.497Z" fill="#000"/></svg>