<svg width="300" height="284" fill="none" xmlns="http://www.w3.org/2000/svg"><path d="m68.537 65.764-14.82-5.143c4.458-1 10.516-1.3 18.74-.397a27.437 27.437 0 0 0-4.17 12.834l.25-7.294ZM54.319 99.572c0-2.799-8.402-17.145-11.316-22.037l25.271-4.144c-.115 4.784 1.447 10.164 6.949 14.807l-7.993 4.918s.474 10.599 1.223 25.745a34.771 34.771 0 0 1-13.96-3.605c-.097-8.941-.174-14.922-.174-15.684Zm27.052 134.95a4.474 4.474 0 0 0 .23 2.472c-5.743.617-11.515.921-17.291.91-23.51 0-42.576-4.746-42.576-10.606 0-4.982 13.789-9.158 32.367-10.298 1.05-14.185.788-61.154.5-91.241a44.876 44.876 0 0 0 14.333 2.696c.378 7.371.8 15.389 1.255 23.536-6.206 2.209-10.541 5.936-9.69 8.331.032.092.072.18.122.263l-.026.006a14.93 14.93 0 0 0 1.256 7.839c.352.711.941 2.274 1.697 4.336l-.007.429s-4.38 9.261-2.459 9.203a16.184 16.184 0 0 0 4.227-.903s.077 3.612 1.844 3.612c0 0-.153 3.766 2.152 3.842 0 0-.82 3.837 1.383 4.612h1.153l.205-.25c.282.519.564 1.012.846 1.473v.006c.698 9.382 1.396 17.234 2.055 22.236 14.967.96 26.751 3.894 30.6 7.627-7.384 1.864-23.465 6.321-24.176 9.869Z" fill="#000"/><path d="M54.58 125.819a49.526 49.526 0 0 1-16.92-10.209 55.969 55.969 0 0 1-11.827-15.943 59.013 59.013 0 0 1-5.705-19.052 46.95 46.95 0 0 1-.427-4.977l-.083-2.497c-.02-.833.03-1.666.043-2.498.124-3.33.51-6.645 1.154-9.914a58.626 58.626 0 0 1 7.144-18.536 55.465 55.465 0 0 1 13.006-14.932 48.564 48.564 0 0 1 17.632-8.907 45.991 45.991 0 0 1 19.758-.8 46.891 46.891 0 0 1 18.308 7.634 52.616 52.616 0 0 1 13.899 14.239 61.64 61.64 0 0 1 4.974 57.476 56.732 56.732 0 0 1-10.945 16.623 49.555 49.555 0 0 1-16.257 11.371 45.376 45.376 0 0 1-19.402 3.622l.003-.128c6.6.04 13.13-1.355 19.138-4.087a49.48 49.48 0 0 0 15.789-11.465c8.951-9.589 14.125-22.389 15.061-35.401a62.06 62.06 0 0 0-1.633-19.446 57.344 57.344 0 0 0-7.734-17.901 53.087 53.087 0 0 0-13.457-14.098 46.045 46.045 0 0 0-17.873-7.75 44.275 44.275 0 0 0-19.515.547 46 46 0 0 0-17.47 8.818 51.356 51.356 0 0 0-7.045 6.874 55.19 55.19 0 0 0-5.621 8.072 58.436 58.436 0 0 0-6.719 18.379 62.588 62.588 0 0 0-1.078 9.748c-.006.818-.052 1.636-.027 2.453l.096 2.453c.015 1.638.227 3.261.396 4.888a57.956 57.956 0 0 0 5.473 18.76A56.488 56.488 0 0 0 38.12 115.12a51.23 51.23 0 0 0 16.502 10.577l-.044.121Z" fill="#000"/><path d="M54.518 115.198a8.718 8.718 0 0 1 1.816.365c.29.082.575.17.853.277.284.093.559.212.82.357.513.329 1.044.628 1.592.895a5.797 5.797 0 0 0 1.77.358 17.81 17.81 0 0 1 1.802.156c.593.071 1.185.122 1.768.232 1.197.216 2.373.537 3.515.959l-.006.128a9.68 9.68 0 0 1-3.711.266 11.886 11.886 0 0 1-1.808-.399 9.701 9.701 0 0 1-1.736-.663 8.437 8.437 0 0 0-1.718-.643c-.591-.149-1.235-.153-1.842-.288a6.45 6.45 0 0 1-1.694-.724 6.29 6.29 0 0 1-1.478-1.161l.057-.115Z" fill="#000"/><path d="M109.713 72.79a53.286 53.286 0 0 1-1.817 14.08 49.865 49.865 0 0 1-5.502 13.124l.05-.172v.006l.001.09-.051.083a43.618 43.618 0 0 1-8.627 10.339 37.96 37.96 0 0 1-11.589 6.943 34.61 34.61 0 0 1-26.459-1.031 42.19 42.19 0 0 1-5.864-3.34 44.01 44.01 0 0 1-5.189-4.292 44.636 44.636 0 0 1-4.481-5.013c-.651-.912-1.325-1.81-1.93-2.754-.584-.956-1.21-1.887-1.73-2.88a52.462 52.462 0 0 1-6.586-25.792 53.08 53.08 0 0 1 1.72-13.348 45.796 45.796 0 0 1 2.16-6.4l.654-1.56c.212-.524.491-1.016.734-1.525l.755-1.516c.269-.496.562-.98.846-1.468a45.311 45.311 0 0 1 8.486-10.524 38.505 38.505 0 0 1 11.45-7.24 35.083 35.083 0 0 1 26.608.08 39.253 39.253 0 0 1 11.353 7.351 44.29 44.29 0 0 1 8.317 10.594l.046.08-.001.083v.007l-.045-.164a50.3 50.3 0 0 1 5.04 12.663 53.397 53.397 0 0 1 1.651 13.496Zm-.128 0a53.19 53.19 0 0 0-1.794-13.425 48.908 48.908 0 0 0-5.323-12.407l-.044-.071-.001-.093v-.006l.044.164a44.174 44.174 0 0 0-8.46-10.151 38.11 38.11 0 0 0-11.14-6.935 33.763 33.763 0 0 0-25.616-.004 37.272 37.272 0 0 0-11.115 6.914 44.106 44.106 0 0 0-8.334 10.178c-.279.475-.578.94-.847 1.42l-.762 1.469c-.245.493-.527.97-.743 1.478l-.665 1.517a44.804 44.804 0 0 0-2.223 6.24 52.258 52.258 0 0 0-1.912 13.111 52.952 52.952 0 0 0 1.386 13.21 50.381 50.381 0 0 0 4.829 12.383 46.218 46.218 0 0 0 3.665 5.559 44.053 44.053 0 0 0 4.477 4.921 39.264 39.264 0 0 0 5.193 4.139 41.45 41.45 0 0 0 5.83 3.151 34.873 34.873 0 0 0 25.752.657c8.286-3.015 15.255-9.132 20.059-16.554l-.05.173v-.006l.001-.098.048-.075a48.998 48.998 0 0 0 5.798-12.85 53.074 53.074 0 0 0 1.947-14.01Z" fill="#000"/><path d="M84.908 91.451c9.974 0 18.06-8.085 18.06-18.06 0-9.974-8.086-18.06-18.06-18.06-9.975 0-18.06 8.086-18.06 18.06 0 9.974 8.085 18.06 18.06 18.06ZM175.128 46.213a10.277 10.277 0 0 0-2.545 3.23 15.637 15.637 0 0 0-1.389 3.889l-.204 1.015-.126 1.028c-.109.683-.088 1.379-.135 2.066-.009.69.031 1.382.044 2.072l.202 2.063.004.041-.007.042c-.547 3.125-1.093 6.267-1.403 9.41-.085.772-.115 1.55-.091 2.326.063.774.183 1.543.357 2.3.343 1.528.834 3.02 1.466 4.452a18.336 18.336 0 0 0 5.566 7.343 14.636 14.636 0 0 0 8.613 2.888l.273.004.147.237c2.37 3.809 4.717 7.625 6.972 11.512.56.977 1.118 1.95 1.641 2.963.13.254.264.502.383.778l.184.404c.061.169.116.368.162.553l.009.036-.001.1a.69.69 0 0 1-.033.191.808.808 0 0 1-.163.29 1.13 1.13 0 0 1-.325.254c-.161.084-.33.15-.505.197-.292.08-.589.143-.889.189-2.283.331-4.497.422-6.72.653-2.208.191-4.4.527-6.564 1.006a19.485 19.485 0 0 0-3.11.988c-.988.43-1.915.986-2.759 1.655-3.435 2.686-5.959 6.465-8.271 10.248-2.311 3.814-4.373 7.788-6.34 11.805a235.026 235.026 0 0 0-2.892 6.059c-.962 2.021-1.862 4.071-2.779 6.114a724.763 724.763 0 0 0-10.317 24.813l-.065.167-.174-.042c-3.137-.757-6.239-1.617-9.329-2.528a295.414 295.414 0 0 1-9.217-2.899 237.887 237.887 0 0 1-9.105-3.242c-3.019-1.128-5.995-2.366-8.962-3.628l.146.033-19.369-.349.365-.852a9.182 9.182 0 0 1 1.492 2.253c.386.794.69 1.625.907 2.481.425 1.703.581 3.462.462 5.213a23.288 23.288 0 0 1-.937 5.119c-.53 1.673-1.168 3.21-1.527 4.805a8.753 8.753 0 0 0 0 4.679 3.373 3.373 0 0 0 1.283 1.684c.592.394 1.3.572 2.008.507.342-.027.63-.18.576-.21.105-.219.228-.43.368-.63.11-.157.21-.32.301-.487.332-.715.567-1.47.698-2.247.321-1.618.506-3.297.67-4.971l.033-.331.29-.168 5.447-3.166.39-.227.362.286c7.762 6.122 15.677 12.115 23.999 17.43 2.09 1.308 4.198 2.595 6.372 3.726l1.633.845 1.669.733c.279.119.555.252.836.358l.852.272c.563.204 1.14.364 1.728.48 2.33.556 4.753.599 7.101.125a13.211 13.211 0 0 0 3.275-1.318 15.782 15.782 0 0 0 2.817-2.193c.863-.858 1.67-1.77 2.416-2.732a26.03 26.03 0 0 0 2.121-2.979c1.314-2.081 2.56-4.228 3.812-6.363 2.487-4.285 4.956-8.582 7.408-12.893l14.61-25.914.068-.122.092.101 2.126 2.33-.094.087-2.178-2.281.161-.02a2364.25 2364.25 0 0 1-14.103 26.2c-2.389 4.346-4.771 8.697-7.23 13.008-1.236 2.154-2.459 4.308-3.771 6.433a27.364 27.364 0 0 1-2.159 3.095 29.733 29.733 0 0 1-2.482 2.859 16.927 16.927 0 0 1-3.017 2.39 14.386 14.386 0 0 1-3.588 1.485c-2.522.54-5.132.524-7.647-.048-.63-.12-1.25-.289-1.853-.506l-.92-.294c-.298-.111-.582-.247-.874-.37l-1.736-.759-1.672-.861c-2.227-1.153-4.358-2.449-6.473-3.766-4.212-2.661-8.285-5.513-12.301-8.44a316.777 316.777 0 0 1-11.835-9.062l.752.059-5.465 3.136.322-.498c-.177 1.697-.37 3.394-.719 5.101a9.91 9.91 0 0 1-.834 2.585c-.237.442-.526.78-.646 1.055l-.03.06c-.03.057-.062.111-.098.164a1.068 1.068 0 0 1-.222.242 1.62 1.62 0 0 1-.431.255c-.253.104-.52.169-.791.193a4.332 4.332 0 0 1-2.826-.719 4.608 4.608 0 0 1-1.745-2.293 9.87 9.87 0 0 1-.017-5.36c.202-.847.453-1.682.753-2.5.3-.823.545-1.582.821-2.376a23.1 23.1 0 0 0 .937-4.857 15.717 15.717 0 0 0-.372-4.877c-.19-.791-.461-1.56-.808-2.296a8.388 8.388 0 0 0-1.273-1.994l-.788-.886 1.153.034 19.364.573.077.002.07.031c2.94 1.291 5.892 2.558 8.888 3.721a212.28 212.28 0 0 0 9.041 3.345 202.983 202.983 0 0 0 9.174 2.972c3.078.923 6.176 1.797 9.292 2.564l-.24.125c3.358-8.309 6.663-16.641 10.237-24.863 1.774-4.117 3.567-8.227 5.499-12.277 1.91-4.059 3.92-8.078 6.196-11.964a65.46 65.46 0 0 1 3.69-5.676 25.428 25.428 0 0 1 4.712-4.958 13.53 13.53 0 0 1 2.98-1.803 20.625 20.625 0 0 1 3.282-1.06c2.21-.502 4.45-.857 6.707-1.062 2.232-.245 4.501-.355 6.655-.647a6.71 6.71 0 0 0 .756-.155c.096-.024.189-.058.278-.101.028-.014.038-.028.009.004a.306.306 0 0 0-.058.11.519.519 0 0 0-.017.089c0 .015.001.031.004.046l-.007-.014a1.97 1.97 0 0 1-.084-.249l-.163-.361c-.101-.24-.232-.486-.356-.731a74.025 74.025 0 0 0-1.598-2.925c-2.218-3.877-4.544-7.708-6.886-11.52l.42.24a15.639 15.639 0 0 1-9.171-3.14 19.09 19.09 0 0 1-5.749-7.779 24.941 24.941 0 0 1-1.449-4.622 12.765 12.765 0 0 1-.212-4.856c.364-3.187.939-6.318 1.578-9.444l-.003.083-.156-2.102c.004-.703-.02-1.406.007-2.108.064-.701.061-1.406.188-2.1l.154-1.043.232-1.03a15.956 15.956 0 0 1 1.508-3.923 10.452 10.452 0 0 1 2.675-3.226l.072.106Z" fill="#000"/><path d="M99.96 172.639a7.32 7.32 0 0 0 1.611-1.152c.5-.467.928-1.005 1.272-1.597a5.859 5.859 0 0 0 .73-1.942c.133-.702.162-1.42.087-2.13.182.707.26 1.438.231 2.168a6.335 6.335 0 0 1-.471 2.181 7.777 7.777 0 0 1-1.139 1.967 8.312 8.312 0 0 1-1.685 1.618l-.635-1.113Zm43.327-1.59a7.125 7.125 0 0 1 4.234-.006c.685.24 1.3.647 1.786 1.186.47.536.824 1.164 1.039 1.844.391 1.337.52 2.737.381 4.122a27.038 27.038 0 0 1-.649 4.069c.267-1.344.43-2.707.489-4.077a10.6 10.6 0 0 0-.523-4.007 4.188 4.188 0 0 0-2.675-2.681 6.607 6.607 0 0 0-3.872.154l-.21-.604Zm28.771-38.431a17.503 17.503 0 0 0 1.692 2.997 18.827 18.827 0 0 0 2.176 2.621 19.956 19.956 0 0 0 2.591 2.214 32.102 32.102 0 0 0 2.917 1.851c-.55-.185-1.103-.38-1.64-.612a13.798 13.798 0 0 1-1.553-.823 14.183 14.183 0 0 1-2.771-2.18 13.746 13.746 0 0 1-2.141-2.805 10.461 10.461 0 0 1-1.271-3.263Z" fill="#000"/><path d="M254.055 141.148c-3.227-16.83-21.671-45.88-35.044-40.347-13.372 5.534-8.53 25.592-8.53 25.592s.23 22.133-12.22 22.364c-12.449.23-6.935-41.007-6.935-41.007s-1.134-4.412-5.745-1.876c-4.611 2.536-3.112 11.643-1.614 21.556 1.499 9.914 0 14.871 0 14.871-6.519 25.867 8.531 33.2 9.684 34.333.608.596 4.649 8.396 8.319 15.601 8.088-4.329 12.322-7.544 12.43-7.973.231-.922 1.384-41.961 1.384-41.961s-10.83-28.653 4.188-35.121a13.244 13.244 0 0 1 15.037 3.561c6.801 7.666 18.547 23.619 14.205 38.477 0 0-3.689 5.994-10.144 1.844 0 0-2.921 38.426-3.536 45.803-.614 7.378-12.001 11.726-12.001 11.726l2.165.57c15.908-3.458 37.58 0 37.58 0-.692-1.844-5.995-51.182-9.223-68.013Z" fill="#000"/><path d="M202 192.291c-3.356 1.895-6.795 3.641-10.278 5.297-3.484 1.653-7.033 3.167-10.61 4.612a192.782 192.782 0 0 1-10.851 4.023 260.585 260.585 0 0 1-11.044 3.464l.189-.096-5.922 4.71-5.955 4.668-5.962 4.66-1.497 1.156a15.14 15.14 0 0 1-1.597 1.124c-1.128.688-2.384 1.066-3.367 1.688a5.44 5.44 0 0 0-2.085 2.782l-1.39 3.509c-.917 2.336-1.875 4.691-2.76 7.015a15.234 15.234 0 0 0-.119 1.824l-.029 1.887.002 3.781c.018 2.521.053 5.042.103 7.564l-.069-.143a2.776 2.776 0 0 0 1.849.633 2.112 2.112 0 0 0 1.555-1.084 9.195 9.195 0 0 0 .87-1.913c.232-.672.429-1.356.591-2.049a51.324 51.324 0 0 0 1.197-8.485l.002-.028.008-.03 1.006-3.468.283-.975.298.978c.823 2.703 1.678 5.407 2.654 8.048.248.658.503 1.315.792 1.938.127.295.281.577.461.843.089.183.398.289.704.384 1.342.303 2.715.44 4.09.41l.129.001.109.067 1.854 1.137.109.067.07.139a7.979 7.979 0 0 0 2.387 2.842 4.757 4.757 0 0 0 3.417.861 9.848 9.848 0 0 0 3.549-1.253 11.127 11.127 0 0 0 2.899-2.392l-.094.557a2.233 2.233 0 0 0-.749-.899 2.46 2.46 0 0 0-1.164-.416 4.38 4.38 0 0 0-1.346.087c-.228.066-.457.12-.685.192l-.679.256-.734.276-.111-.755-1.185-8.065-.054-.366.304-.24a48.968 48.968 0 0 0 4.713-4.302 52.141 52.141 0 0 0 4.152-4.854 36.64 36.64 0 0 0 3.3-5.42 23.713 23.713 0 0 0 1.87-5.981l.041-.246.171-.151c4.181-3.667 8.464-7.19 12.928-10.501a118.503 118.503 0 0 1 6.837-4.776 47.573 47.573 0 0 1 7.35-4.036l.065-.027.051-.005a34.577 34.577 0 0 1 7.479.201 42.09 42.09 0 0 1 3.67.626c1.218.246 2.42.571 3.596.972 2.336.77 4.674 1.539 7.027 2.255 1.176.358 2.356.705 3.543 1.024.593.158 1.189.31 1.787.442.3.064.6.125.902.17.289.062.588.071.88.028l.051.117a2.48 2.48 0 0 1-.952.013 14.726 14.726 0 0 1-.918-.143 41.003 41.003 0 0 1-1.811-.384c-1.201-.28-2.395-.589-3.585-.909a246.08 246.08 0 0 1-7.107-2.036 28.288 28.288 0 0 0-3.55-.873 41.4 41.4 0 0 0-3.621-.532 33.83 33.83 0 0 0-7.261-.037l.116-.031a47.636 47.636 0 0 0-7.128 4.057 116.919 116.919 0 0 0-6.708 4.828 220.983 220.983 0 0 0-6.469 5.166 231.423 231.423 0 0 0-6.3 5.368l.213-.396a24.991 24.991 0 0 1-1.965 6.364 37.953 37.953 0 0 1-3.416 5.654 47.496 47.496 0 0 1-4.278 4.989 49.866 49.866 0 0 1-4.895 4.396l.25-.606 1.121 8.074-.845-.479.776-.285c.265-.083.541-.147.811-.22a5.573 5.573 0 0 1 1.738-.094 3.65 3.65 0 0 1 1.714.641c.527.37.935.886 1.174 1.483l.123.305-.217.252a11.888 11.888 0 0 1-3.261 2.655 10.955 10.955 0 0 1-3.976 1.326 5.88 5.88 0 0 1-2.186-.157 6.107 6.107 0 0 1-1.954-.951 8.911 8.911 0 0 1-2.655-3.276l.179.206-1.835-1.169.239.069a17.499 17.499 0 0 1-4.335-.52 3.749 3.749 0 0 1-.557-.22c-.095-.049-.192-.117-.286-.177a2.187 2.187 0 0 1-.248-.27 5.481 5.481 0 0 1-.548-1.021 28.98 28.98 0 0 1-.782-2.008c-.944-2.69-1.748-5.407-2.526-8.139l.58.003-1.068 3.449.01-.058a57.423 57.423 0 0 1-1.304 8.552c-.17.706-.376 1.402-.616 2.086a9.643 9.643 0 0 1-.926 1.995 2.532 2.532 0 0 1-.786.851 2.526 2.526 0 0 1-1.084.408 3.154 3.154 0 0 1-2.133-.737l-.067-.052-.002-.092-.164-7.569-.036-3.787.013-1.896a15.47 15.47 0 0 1 .114-1.949c.851-2.406 1.747-4.749 2.619-7.129l1.317-3.558a6.254 6.254 0 0 1 2.328-3.199c1.144-.746 2.34-1.119 3.354-1.776.998-.634 1.95-1.501 2.943-2.275l5.918-4.719 5.924-4.711 5.958-4.668.087-.068.102-.028c7.4-2.076 14.7-4.472 21.901-7.188a234.554 234.554 0 0 0 10.679-4.353c3.529-1.529 7.002-3.186 10.441-4.917l.061.113Zm36.749-41.232c.095-3.834.231-7.663.436-11.491.102-1.914.221-3.827.39-5.737.079-.955.18-1.908.301-2.859.071-.474.118-.952.221-1.421.048-.235.086-.472.142-.704l.214-.687-.194.691c-.05.234-.081.472-.122.707-.09.47-.124.949-.181 1.423-.096.952-.17 1.906-.221 2.862a166.34 166.34 0 0 0-.231 5.737 396.158 396.158 0 0 0-.114 11.484l-.641-.005Zm-21.091 51.564a30.223 30.223 0 0 0 3.44-1.718 20.285 20.285 0 0 0 3.101-2.184 13.268 13.268 0 0 0 2.45-2.84 11.061 11.061 0 0 0 1.307-3.557 8.331 8.331 0 0 1-.871 3.8 11.138 11.138 0 0 1-2.466 3.08 16.155 16.155 0 0 1-6.961 3.419Zm8.102 6.524c.032-.036-.028-.071-.001-.062l.071-.013.143-.024.286-.047.573-.086 1.15-.148a42.409 42.409 0 0 1 2.31-.204 47.916 47.916 0 0 1 4.643-.078c3.125.063 6.221.62 9.172 1.649a16.407 16.407 0 0 1 4.171 2.234 11.83 11.83 0 0 1 3.17 3.577c.395.695.727 1.425.992 2.179.266.727.521 1.459.77 2.194a72.206 72.206 0 0 1 1.347 4.457 41.258 41.258 0 0 1 1.497 9.226c.2 3.162-.284 6.331-1.42 9.289a15.776 15.776 0 0 1-5.939 7.236 19.632 19.632 0 0 1-4.173 2.14 30.811 30.811 0 0 1-4.475 1.316l-.026.006h-.029l-7.608-.042a507.876 507.876 0 0 0-7.609-.001l.086-.402a50.605 50.605 0 0 0 10.132 3.039c3.444.718 6.986.834 10.47.341a18.59 18.59 0 0 0 2.529-.589 51.462 51.462 0 0 0 2.491-.875c1.655-.605 3.267-1.312 4.853-2.066a41.847 41.847 0 0 0 4.567-2.593 31.055 31.055 0 0 0 4.133-3.189 25.206 25.206 0 0 0 3.415-3.894 19.302 19.302 0 0 0 2.327-4.581c.29-.807.522-1.634.697-2.473.087-.418.148-.84.183-1.265.039-.424.129-.841.127-1.271a25.45 25.45 0 0 0-.363-5.156c-1.199-6.87-4.21-13.412-7.656-19.494l.357.265a79.777 79.777 0 0 0-9.246-1.736 96.938 96.938 0 0 0-9.409-.742 73.787 73.787 0 0 0-9.437.326l-2.351.258c-.78.11-1.555.254-2.335.38l-1.168.195-1.11.243c-.735.15-1.52.291-2.307.481Zm-.125.028c1.527-.5 3.078-.923 4.648-1.266.776-.159 1.551-.336 2.332-.48l2.355-.357a69.664 69.664 0 0 1 9.508-.619 82.807 82.807 0 0 1 9.524.525c3.172.347 6.321.883 9.43 1.603l.228.054.129.21a71.201 71.201 0 0 1 4.851 9.586 49.432 49.432 0 0 1 3.108 10.319c.324 1.796.454 3.621.387 5.445-.003.458-.101.917-.149 1.375-.044.458-.115.914-.213 1.365a19.727 19.727 0 0 1-.771 2.639 20.535 20.535 0 0 1-2.528 4.857 26.438 26.438 0 0 1-3.631 4.063 36.617 36.617 0 0 1-9.057 5.842c-1.633.743-3.287 1.436-4.979 2.018-.844.3-1.693.566-2.555.824-.875.245-1.766.428-2.666.55-3.575.412-7.194.21-10.701-.598a56.11 56.11 0 0 1-10.195-3.204l-.953-.407 1.038.006c2.536.015 5.072.022 7.608-.001l7.609-.042-.056.006a29 29 0 0 0 4.351-1.405 19.034 19.034 0 0 0 3.975-2.18 14.894 14.894 0 0 0 5.432-6.986 21.726 21.726 0 0 0 1.241-8.87 46.026 46.026 0 0 0-1.437-8.996 67.263 67.263 0 0 0-1.281-4.406 25.1 25.1 0 0 0-1.635-4.209 13.061 13.061 0 0 0-6.767-5.548 30.205 30.205 0 0 0-8.909-1.862 47.636 47.636 0 0 0-4.599-.11c-.768.016-1.535.054-2.303.102l-1.15.086-.574.055-.287.031-.143.017-.071.008a.167.167 0 0 1-.077-.004.182.182 0 0 1-.067-.036ZM96.668 188.456a36.535 36.535 0 0 1 3.344-2.725c.572-.435 1.164-.831 1.754-1.245.619-.41 1.267-.775 1.938-1.094a14.076 14.076 0 0 1 8.622-.981c-1.434.236-2.829.456-4.182.793-.675.175-1.344.35-1.992.587-.653.214-1.292.47-1.913.764-.627.282-1.236.599-1.825.952-.619.351-1.229.727-1.863 1.061a36.742 36.742 0 0 1-3.883 1.888Z" fill="#000"/><path d="M128.51 245.338a35.33 35.33 0 0 1-9.925 3.463 39.95 39.95 0 0 1-10.546.68 44.34 44.34 0 0 1-10.363-2.059 50.22 50.22 0 0 1-9.707-4.101 21.465 21.465 0 0 1-4.292-3.077 10.976 10.976 0 0 1-1.7-2.051 5.553 5.553 0 0 1-.901-2.539c-.045-.466 0-.936.131-1.384a3.07 3.07 0 0 1 .795-1.166 10.82 10.82 0 0 1 2.172-1.575 41.612 41.612 0 0 1 4.77-2.276 152.69 152.69 0 0 1 20.095-6.153l-.025 1.321a29.207 29.207 0 0 1-4.295-1.674 31.354 31.354 0 0 1-3.983-2.255 28.854 28.854 0 0 1-6.766-6.131 24.585 24.585 0 0 1-2.513-3.824c-.368-.668-.69-1.36-.962-2.073l-.438-1.053-.373-1.067a32.044 32.044 0 0 1-1.207-4.363 12.251 12.251 0 0 1-.15-4.516l.126.018a12.726 12.726 0 0 0 .477 4.395c.397 1.432.875 2.84 1.434 4.216a27.22 27.22 0 0 0 4.453 7.572 29.757 29.757 0 0 0 6.64 5.716 34.246 34.246 0 0 0 3.849 2.127 28.202 28.202 0 0 0 4.061 1.598l.017.004a.68.68 0 0 1-.042 1.316c-3.385.783-6.775 1.603-10.128 2.538-3.358.919-6.694 1.916-9.97 3.072a38.075 38.075 0 0 0-4.773 2.026c-.761.379-1.473.852-2.118 1.406a2.38 2.38 0 0 0-.7.949 3.24 3.24 0 0 0-.128 1.205c.07.839.346 1.649.803 2.356.444.733.99 1.398 1.624 1.975a20.993 20.993 0 0 0 4.258 2.926 48.787 48.787 0 0 0 9.745 3.578 61.732 61.732 0 0 0 10.166 1.931 44.429 44.429 0 0 0 20.329-3.164l.06.113Zm24.089-53.103c3.049.03 6.094.219 9.124.566 1.519.139 3.023.382 4.535.577 1.505.237 3.01.479 4.509.751 2.995.561 5.977 1.193 8.927 1.96a88.354 88.354 0 0 1 8.743 2.666c-5.996-1.097-11.935-2.286-17.902-3.367-2.977-.565-5.963-1.08-8.951-1.601-2.987-.534-5.985-.992-8.985-1.552Z" fill="#000"/><path d="M109.191 223.763c1.984.482 3.925 1.061 5.856 1.664 1.934.594 3.847 1.242 5.762 1.88l5.719 1.968c1.915.634 3.799 1.321 5.779 1.799a24.212 24.212 0 0 1-6.058-.84c-1.981-.476-3.923-1.079-5.851-1.715-1.918-.666-3.822-1.368-5.692-2.157a59.092 59.092 0 0 1-5.515-2.599Zm3.689-26.149a167.1 167.1 0 0 0 10.924 3.185c3.674.937 7.374 1.771 11.102 2.437.933.154 1.865.324 2.799.463l2.821.415c1.896.321 3.763.79 5.585 1.404a28.228 28.228 0 0 1 5.283 2.371 17.073 17.073 0 0 1 4.526 3.746l-1.001.801a15.882 15.882 0 0 0-4.108-3.59 27.338 27.338 0 0 0-5.019-2.423 35.694 35.694 0 0 0-5.407-1.52l-2.798-.493c-.938-.167-1.869-.364-2.803-.545-3.725-.775-7.411-1.715-11.063-2.757a167.443 167.443 0 0 1-10.841-3.494Zm83 41.519c.785.694 1.346 1.271 1.978 1.768.312.257.639.495.981.711.348.25.742.439 1.19.749a2.824 2.824 0 0 1-1.554.195 2.83 2.83 0 0 1-1.422-.66 3.352 3.352 0 0 1-.955-1.236 2.625 2.625 0 0 1-.218-1.527Z" fill="#000"/><path d="M180.158 242.316a219.392 219.392 0 0 0 3.544-3.875 45.192 45.192 0 0 0 1.683-2 6.21 6.21 0 0 1 .888-1.034c.35-.305.74-.56 1.159-.76a10.985 10.985 0 0 1 5.302-.878c1.775.145 3.53.478 5.235.993 3.394.901 6.757 1.89 10.122 2.877 3.36 1.015 6.725 1.971 10.053 3.17l2.47.95c.863.333 1.679.778 2.425 1.325a6.794 6.794 0 0 1 2.615 4.837 16.5 16.5 0 0 1-.383 5.366 6.159 6.159 0 0 1-1.017 2.562 8.313 8.313 0 0 1-1.929 1.934 17.747 17.747 0 0 1-4.796 2.321 35.647 35.647 0 0 1-5.13 1.277 50.664 50.664 0 0 1-5.238.639c-.439.032-.878.058-1.323.067a1.396 1.396 0 0 0-1.03.469 8.12 8.12 0 0 0-1.447 2.093 32.207 32.207 0 0 0-1.951 4.834 41.973 41.973 0 0 0-1.305 5.045 2.909 2.909 0 0 0-.025 1.168c.109.359.326.677.621.909a5.903 5.903 0 0 1 1.914 1.98c.101.23.176.472.221.719.017.122.024.244.035.366.018.136.016.274-.005.409a1.46 1.46 0 0 1-.136.443c-.075.13-.167.25-.274.355a2.16 2.16 0 0 1-.668.44 8.435 8.435 0 0 1-2.721.525c-3.566.181-7.074-.285-10.514-.219-.427.005-.825.057-1.348.047a4.067 4.067 0 0 1-1.479-.311 4.596 4.596 0 0 1-2.165-2.008 12.317 12.317 0 0 1-1.045-2.551 8.429 8.429 0 0 0-.401-1.123c-.019-.046-.085-.092.03-.004a.61.61 0 0 0 .124.044.222.222 0 0 0 .063.001h-.047l-.185-.004a6.128 6.128 0 0 1-.728-.074 4.483 4.483 0 0 1-1.444-.469 2.77 2.77 0 0 1-1.178-1.186 2.952 2.952 0 0 1-.269-1.624c.049-.464.129-.924.238-1.378.415-1.766.985-3.403 1.362-5.077.2-.826.353-1.663.459-2.507l.065-.629.104-.714c.087-.456.201-.907.34-1.35a38.072 38.072 0 0 1 2.049-4.944c1.522-3.178 3.29-6.247 4.76-9.348a1.13 1.13 0 0 0 .091-.832 1.676 1.676 0 0 0-.58-.74 7.056 7.056 0 0 0-2.166-1.03 24.732 24.732 0 0 0-5.033-.923l.36-.112a23.307 23.307 0 0 1-6.167 3.267 31.93 31.93 0 0 1-6.781 1.423 40.237 40.237 0 0 1-6.89.024 42.952 42.952 0 0 1-6.782-1.072l.031-.124c2.235.434 4.501.688 6.777.76a45.528 45.528 0 0 0 6.787-.278 31.14 31.14 0 0 0 6.551-1.586 23.451 23.451 0 0 0 5.82-3.245l.167-.126.193.013c1.794.105 3.572.397 5.305.871a8.131 8.131 0 0 1 2.569 1.185c.457.326.808.78 1.009 1.304a2.382 2.382 0 0 1-.109 1.727c-.725 1.647-1.563 3.182-2.365 4.741a155.966 155.966 0 0 0-2.358 4.672 36.873 36.873 0 0 0-1.955 4.763c-.122.393-.222.793-.299 1.197l-.084.586-.067.679a22.895 22.895 0 0 1-.479 2.661c-.413 1.741-1.014 3.417-1.416 5.059-.1.397-.175.8-.224 1.206a1.68 1.68 0 0 0 .129.936 2.176 2.176 0 0 0 1.685.991c.191.033.383.054.577.065l.143.004.036.001c.048.003.096.008.143.017a.733.733 0 0 1 .275.099c.194.118.349.289.447.493.198.435.358.886.482 1.348.216.804.522 1.58.91 2.316a3.43 3.43 0 0 0 1.588 1.534c.341.145.705.225 1.076.238.352.017.829-.025 1.278-.023 3.57.009 7.045.513 10.491.431a7.734 7.734 0 0 0 2.429-.381c.343-.149.607-.342.626-.595l.015-.102-.009-.144-.017-.288a2.512 2.512 0 0 0-.149-.538c-.268-.704-.98-1.155-1.679-1.773a2.49 2.49 0 0 1-.794-1.258 3.503 3.503 0 0 1 .047-1.438 42.198 42.198 0 0 1 1.45-5.091 34.363 34.363 0 0 1 2.033-4.882 8.501 8.501 0 0 1 1.553-2.193c.175-.162.371-.301.582-.412.115-.052.235-.093.358-.123.121-.019.243-.03.365-.031a24.77 24.77 0 0 0 1.302-.054 45.023 45.023 0 0 0 5.185-.684 35.402 35.402 0 0 0 5.045-1.319 16.676 16.676 0 0 0 4.566-2.366 6.12 6.12 0 0 0 2.542-4.129c.35-1.67.425-3.386.222-5.08-.054-.413-.175-.808-.268-1.207a6.658 6.658 0 0 0-.483-1.109 5.1 5.1 0 0 0-1.555-1.794c-1.283-.974-3.006-1.434-4.628-2.076-6.597-2.224-13.328-4.262-20.037-6.217a24.447 24.447 0 0 0-5.042-1.11 10.31 10.31 0 0 0-4.982.67c-.378.167-.733.38-1.058.634a5.673 5.673 0 0 0-.858.921 45.4 45.4 0 0 1-1.79 1.945 110.595 110.595 0 0 1-3.745 3.696l-.091-.09Z" fill="#000"/><path d="M184.198 265.416a9.298 9.298 0 0 1 2.365 1.365 5.69 5.69 0 0 1 1.777 2.221 3.606 3.606 0 0 1-.163 3.005 6.983 6.983 0 0 1-1.914 2.2l-.317-1.104c.527.055 1.049.15 1.562.283a7.57 7.57 0 0 1 1.508.545c.517.242.986.579 1.38.993.43.455.71 1.031.802 1.65l-.873-.462a5.513 5.513 0 0 1 1.26-.371 5.617 5.617 0 0 1 1.282-.074c.433.025.859.112 1.266.26.406.144.79.341 1.143.587l-.578.083c.382-.36.843-.626 1.346-.778.47-.151.963-.214 1.456-.187.476.027.945.121 1.394.28.221.077.433.173.645.266l.604.334-.658-.186c-.225-.037-.441-.098-.662-.127a5.62 5.62 0 0 0-1.309-.036 4.067 4.067 0 0 0-1.209.331 2.81 2.81 0 0 0-.934.682l-.223.268-.355-.185a3.933 3.933 0 0 0-.952-.384 3.742 3.742 0 0 0-1.01-.118 4.55 4.55 0 0 0-1.963.442l-.705.355-.169-.816a1.914 1.914 0 0 0-.507-.958 3.375 3.375 0 0 0-1.032-.703 7.49 7.49 0 0 0-1.273-.474 9.413 9.413 0 0 0-1.35-.273l-1.551-.187 1.234-.917a6.264 6.264 0 0 0 1.691-1.743c.204-.323.336-.686.388-1.064a2.672 2.672 0 0 0-.084-1.128 5.496 5.496 0 0 0-1.302-2.128 13.116 13.116 0 0 0-2.01-1.747Zm14.006-7.954c.23 1.25.3 2.523.207 3.79a17.09 17.09 0 0 1-.644 3.769 10.36 10.36 0 0 1-1.738 3.491 4.505 4.505 0 0 1-3.358 1.862 5.737 5.737 0 0 0 2.537-2.433c.292-.511.544-1.044.753-1.593.226-.553.42-1.118.579-1.694.358-1.147.615-2.338.885-3.536.256-1.203.496-2.417.779-3.656Zm7.513 4.426c-.012-1.015.048-2.03.179-3.037.11-.997.279-1.979.448-2.96.194-.976.384-1.951.619-2.918a75.6 75.6 0 0 1 .752-2.927c.23 1.003.31 2.035.239 3.062a22.147 22.147 0 0 1-.351 3.016 25.764 25.764 0 0 1-.734 2.936 16.038 16.038 0 0 1-1.152 2.828Zm-30.741-40.123a5.564 5.564 0 0 0-.05 1.989 2.85 2.85 0 0 0 .764 1.467 5.2 5.2 0 0 0 .666.592c.257.175.525.354.803.531.296.149.575.352.884.512a8.2 8.2 0 0 1 .929.563 7.195 7.195 0 0 1-1.108.04 7.559 7.559 0 0 1-1.099-.189 6.172 6.172 0 0 1-1.063-.433 4.084 4.084 0 0 1-.95-.745 2.995 2.995 0 0 1-.829-2.313 2.935 2.935 0 0 1 1.053-2.014Zm-69.781-25.745a5.501 5.501 0 0 1 1.943-1.038 7.116 7.116 0 0 1 4.403.027 6.677 6.677 0 0 1 1.954 1.011c-.71-.193-1.384-.408-2.079-.527a10.9 10.9 0 0 0-2.077-.206 10.666 10.666 0 0 0-2.08.178c-.702.126-1.393.311-2.064.555ZM86.313 241.776l7.51-2.643-6.99 3.813-.52-1.17ZM81.992 237.686l7.51-2.643-6.989 3.813-.52-1.17ZM93.746 245.451l4.93-1.831-4.341 2.969-.589-1.138ZM99.273 246.868l5.223-.606-4.921 1.852-.302-1.246ZM135.809 239.508a20.46 20.46 0 0 1 .329-4.668c.142-.77.391-1.517.74-2.219a2.908 2.908 0 0 1 1.671-1.547 2.818 2.818 0 0 0-1.527 1.617 8.18 8.18 0 0 0-.568 2.202 20.022 20.022 0 0 0-.007 4.558l-.638.057Zm8.713 12.191a61.644 61.644 0 0 1-1.205-4.097 48.724 48.724 0 0 1-.897-4.164 23.25 23.25 0 0 1-.373-4.246 9.056 9.056 0 0 1 .266-2.118 3.285 3.285 0 0 1 1.078-1.797 3.213 3.213 0 0 0-.922 1.833 8.81 8.81 0 0 0-.102 2.077c.1 1.392.328 2.772.68 4.123a47.786 47.786 0 0 0 1.191 4.017 60.42 60.42 0 0 0 1.479 3.911l-1.195.461ZM146.324 252.621l.641-10.26.64 10.26h-1.281ZM60.617 160.585a5.095 5.095 0 0 0 2.282 1.238c.844.202 1.716.27 2.582.2.869-.039 1.733-.156 2.582-.347a19.336 19.336 0 0 0 2.5-.691l.039-.012c1.161-.423 2.357-.722 3.49-1.217a33.378 33.378 0 0 0 3.315-1.597 20.357 20.357 0 0 0 3.003-2.045 6.555 6.555 0 0 0 2.064-2.649 1.403 1.403 0 0 0-.139-1.29 2.521 2.521 0 0 0-1.265-.846 9.954 9.954 0 0 0-3.528-.481c-2.49.072-4.962.456-7.357 1.143a23.561 23.561 0 0 1 7.319-1.972 10.437 10.437 0 0 1 3.913.304 3.508 3.508 0 0 1 1.835 1.179 2.589 2.589 0 0 1 .38 2.29 5.107 5.107 0 0 1-1.01 1.854c-.42.517-.887.995-1.392 1.429-.99.839-2.067 1.57-3.213 2.18a26.99 26.99 0 0 1-3.494 1.598c-.6.222-1.202.432-1.822.594l-1.844.518.038-.011c-.88.254-1.777.446-2.684.574a15.48 15.48 0 0 1-2.73.143 8.57 8.57 0 0 1-2.688-.513 4.723 4.723 0 0 1-2.176-1.573Z" fill="#000"/><path d="M83.213 152.753a3.766 3.766 0 0 1 1.647.886c.479.408.915.864 1.3 1.36.388.488.74 1.002 1.058 1.538.33.527.595 1.085.873 1.636l-.127-.181.007.006.093.091.057.148c.242.636.436 1.289.656 1.932.202.65.4 1.301.58 1.959.18.657.344 1.32.493 1.988.14.672.28 1.343.363 2.034-.367-.592-.673-1.205-.982-1.818-.3-.615-.584-1.236-.851-1.863a59.48 59.48 0 0 1-.766-1.894c-.228-.641-.482-1.272-.689-1.92l.15.239-.006-.007-.084-.087-.043-.094c-.242-.541-.508-1.069-.757-1.604a41.046 41.046 0 0 0-.82-1.565c-.287-.513-.6-1.01-.938-1.491a5.163 5.163 0 0 0-1.214-1.293Zm-11.432 4.529a.96.96 0 0 1-.837-1.432.96.96 0 0 1 .495-.427l7.746-2.953a.962.962 0 0 1 1.238.556.961.961 0 0 1-.554 1.239l-7.746 2.953a.952.952 0 0 1-.342.064Zm139.93-70.468 1.085 4.046c.386 1.324.771 2.638 1.277 3.892a16.04 16.04 0 0 0 1.836 3.55 7.082 7.082 0 0 0 3.102 2.499 5.476 5.476 0 0 1-3.868-1.857 11.531 11.531 0 0 1-2.262-3.726 18.899 18.899 0 0 1-1.06-4.154 17.126 17.126 0 0 1-.11-4.25Z" fill="#000"/><path d="M175.438 41.78s-3.843 6.61.922 4.38c4.765-2.228 5.995 6.226 25.207 1.615 0 0 1.845 27.358 8.608 19.827 6.763-7.531 10.913-1.23 9.529 2.613-1.383 3.843-8.607 5.072-9.529 6.148-.923 1.076-2.921 13.065 3.074 11.067 5.994-1.998 9.683-10.452 11.527-19.06 0 0 3.689-4.457 12.297 2.152 8.607 6.61 36.581 11.835 43.958-1.383 7.378-13.218 16.293-18.137 17.676-17.06 0 0-20.75-4.15-27.974 3.688-7.224 7.839-28.435-2.306-29.203-3.381-.769-1.076-6.917-2.767-15.063 2.612 0 0-4.457-20.442-24.131-20.903-19.674-.461-26.898 7.685-26.898 7.685Zm10.058 48.468c.773.067 1.549.08 2.323.04a19.177 19.177 0 0 0 2.353-.262 15.694 15.694 0 0 0 2.31-.576c.762-.25 1.5-.567 2.208-.944-.659.472-1.357.888-2.087 1.241-.736.358-1.498.659-2.279.9-.785.248-1.584.446-2.394.595a17.82 17.82 0 0 1-2.492.286l.058-1.28ZM170.684 55.19a4.509 4.509 0 0 1 1.255-1.083 6.11 6.11 0 0 1 1.489-.64 4.88 4.88 0 0 1 1.651-.187 2.307 2.307 0 0 1 1.589.643c-.508.07-1.007.19-1.491.36l-1.407.417c-.476.134-.965.25-1.472.344a7.967 7.967 0 0 1-1.614.146Z" fill="#000"/><path d="M184.198 53.75a15.703 15.703 0 0 1 3.61-.917 19.522 19.522 0 0 1 3.729-.191c1.262.044 2.513.257 3.719.632a7.37 7.37 0 0 1 3.236 1.916 14.83 14.83 0 0 0-3.47-.944 30.007 30.007 0 0 0-3.545-.326c-2.388-.132-4.791-.06-7.279-.17Zm-8.531 21.69a9.713 9.713 0 0 0 1.946 2.677 2.27 2.27 0 0 0 1.215.567c.451.022.898-.084 1.29-.306a41.814 41.814 0 0 0 2.932-1.638c.965-.59 1.922-1.204 2.915-1.837a11.287 11.287 0 0 1-2.327 2.644 14.921 14.921 0 0 1-2.944 1.974 3.458 3.458 0 0 1-2.042.36 3.053 3.053 0 0 1-1.749-1.066 5.726 5.726 0 0 1-1.236-3.374Zm3.228-20.25a9.907 9.907 0 0 1 .919 4.113 4.374 4.374 0 0 1-.557 2.248 4.428 4.428 0 0 1-.38.491l-.335.373c-.22.248-.431.5-.626.759a6.88 6.88 0 0 0-1.606 3.345 6.557 6.557 0 0 0 .817 3.773 5.53 5.53 0 0 1-1.688-2.71 5.266 5.266 0 0 1-.126-1.12 5.642 5.642 0 0 1 .455-2.204c.304-.67.687-1.3 1.143-1.877.226-.281.464-.549.705-.807l.364-.38c.141-.138.165-.21.267-.308a3.88 3.88 0 0 0 .574-1.66 22.39 22.39 0 0 0 .074-4.036Zm-8.789 9.718a7.653 7.653 0 0 1 2.744-.868c.454-.064.906-.102 1.364-.121.463-.017.915-.007 1.453-.006a2.72 2.72 0 0 1-1.206.982 5.027 5.027 0 0 1-1.43.413c-.485.07-.977.077-1.464.022a4.178 4.178 0 0 1-1.461-.422Zm15.859-3.454c1.022.149 2.005.236 2.99.334.984.087 1.964.179 2.948.249.982.1 1.971.155 2.963.273 1.011.087 2.016.23 3.011.43-.982.301-1.995.492-3.019.57a18.768 18.768 0 0 1-3.062.002 15.857 15.857 0 0 1-3.029-.546 8.317 8.317 0 0 1-2.802-1.312ZM30.434 79.916l-.042-.33a54.955 54.955 0 0 1-.424-6.797 52.26 52.26 0 0 1 3.57-19.181l.112-.287 20.17 6.998-.21.605-19.588-6.796a51.662 51.662 0 0 0-3.414 18.661 54.33 54.33 0 0 0 .38 6.387l11.96-1.957.103.632-12.617 2.065Zm56.244-10.059-7.71-2.56 4.722-38.13.393.171c7.714 3.369 14.263 9.346 18.939 17.288l.044.075v.197l-.06.083-16.328 22.876Zm-7.01-3.001 6.764 2.244 15.934-22.324c-4.52-7.603-10.784-13.358-18.146-16.677l-4.551 36.757Zm4.358 49.419-2.372-34.426 7.58-2.927 13.204 20.807v.191l-.048.078a41.466 41.466 0 0 1-17.945 16.088l-.419.189Zm-1.7-33.998 2.276 33.033a40.89 40.89 0 0 0 17.14-15.484L88.975 79.71l-6.65 2.568ZM1.608 60.865A77.538 77.538 0 0 1 8.55 33.1a56.565 56.565 0 0 1 17.918-22.353l1.5-1.024c.49-.354 1-.682 1.525-.982l3.164-1.78c1.09-.522 2.2-1.006 3.298-1.51l.826-.373c.28-.113.569-.205.852-.308l1.71-.601 1.71-.601c.574-.184 1.166-.31 1.748-.468 1.172-.288 2.332-.63 3.513-.873a59.284 59.284 0 0 1 7.158-.976l1.8-.14a17.858 17.858 0 0 1 1.8-.095h3.605c.6.005 1.202-.014 1.801.012l1.796.13 3.59.264c2.381.271 4.745.685 7.114 1.02 2.344.49 4.68 1.007 7.012 1.527l-7.066-1.191c-2.376-.24-4.741-.556-7.116-.73l-3.568-.17-1.782-.085c-.594-.012-1.19.022-1.783.031l-3.564.089c-.594.015-1.186.061-1.775.137l-1.77.182c-2.373.161-4.688.694-7.024 1.079-1.156.248-2.29.593-3.436.884-.57.16-1.149.287-1.71.472l-1.668.602-1.667.602c-.277.102-.558.194-.831.306l-.804.373c-1.069.501-2.148.982-3.208 1.499L30.146 9.81c-1.018.596-1.951 1.325-2.934 1.976a51.582 51.582 0 0 0-10.242 9.72A64.814 64.814 0 0 0 9.435 33.52a80.021 80.021 0 0 0-5.053 13.321A82.498 82.498 0 0 0 1.61 60.865Z" fill="#000"/><path d="M24.155 26.762a62.235 62.235 0 0 1 19.273-14.856A51.236 51.236 0 0 1 55.001 7.77a46.844 46.844 0 0 1 12.266-1.082c4.119.179 8.194.92 12.113 2.2a52.347 52.347 0 0 1 11.176 5.09 73.784 73.784 0 0 1 9.949 7.137c1.53 1.348 2.992 2.77 4.488 4.149a355.09 355.09 0 0 1 4.186 4.44 488.328 488.328 0 0 1-4.419-4.194c-1.556-1.303-3.075-2.646-4.655-3.91a73.775 73.775 0 0 0-10.04-6.767l-1.32-.735-.66-.367-.685-.32-2.733-1.281a12.33 12.33 0 0 0-1.39-.58l-1.41-.533-1.41-.532c-.467-.185-.96-.29-1.44-.44A44.753 44.753 0 0 0 67.21 7.966a49.711 49.711 0 0 0-23.358 4.825 69.338 69.338 0 0 0-19.696 13.97ZM1.608 70.291c.183 2.872.431 5.724.744 8.557.16 1.418.334 2.832.547 4.24l.319 2.109.39 2.095c.108.703.289 1.389.43 2.084.144.696.303 1.387.495 2.069.182.683.339 1.377.543 2.055.221.672.432 1.347.639 2.026a39.172 39.172 0 0 0 3.579 7.734 25.77 25.77 0 0 1-4.515-7.383 44.785 44.785 0 0 1-2.427-8.344 60.01 60.01 0 0 1-.992-8.607c-.154-2.88-.07-5.769.248-8.635Zm83.23 64.578a184.3 184.3 0 0 0 7.822-3.551c1.283-.622 2.559-1.257 3.815-1.926l1.883-1.003 1.845-1.066c.628-.335 1.215-.734 1.823-1.099a30.559 30.559 0 0 0 1.786-1.154c.584-.4 1.186-.779 1.757-1.197.56-.432 1.127-.856 1.699-1.277a39.232 39.232 0 0 0 6.101-5.949 25.778 25.778 0 0 1-5.459 6.715 44.849 44.849 0 0 1-7.06 5.066 60.054 60.054 0 0 1-7.787 3.801 52.831 52.831 0 0 1-8.225 2.64ZM125.8 53.245a6.797 6.797 0 0 1 3.661-3.44 10.443 10.443 0 0 1 5.101-.532c3.391.44 6.674 1.365 9.982 2.012.819.172 1.646.304 2.478.393a7.13 7.13 0 0 0 2.426-.083c.185-.054.368-.118.546-.192.173-.08.316-.202.479-.297.184-.125.371-.273.567-.388.204-.105.415-.196.631-.271a5.992 5.992 0 0 1 2.633-.148c1.685.292 3.342.726 4.953 1.298l4.815 1.648c-1.648-.408-3.273-.9-4.907-1.347a30.327 30.327 0 0 0-4.917-1.11 6.005 6.005 0 0 0-2.4.183c-.182.067-.36.145-.532.236-.166.1-.311.221-.477.334-.19.14-.388.266-.594.38a5.627 5.627 0 0 1-.649.237 7.662 7.662 0 0 1-2.629.13 24.992 24.992 0 0 1-2.547-.376c-3.334-.708-6.6-1.617-9.925-2.153a10.107 10.107 0 0 0-4.923.337 6.839 6.839 0 0 0-3.772 3.149Zm-12.27 12.6a6.8 6.8 0 0 1 3.661-3.44 10.446 10.446 0 0 1 5.101-.531c3.391.439 6.674 1.364 9.982 2.011.819.173 1.646.304 2.478.393a7.128 7.128 0 0 0 2.426-.083c.186-.054.368-.118.546-.192.173-.08.316-.201.479-.296.184-.125.371-.274.567-.389.204-.105.415-.196.631-.271a5.993 5.993 0 0 1 2.634-.148c1.684.292 3.341.727 4.952 1.299l4.815 1.647c-1.648-.407-3.273-.9-4.907-1.347a30.36 30.36 0 0 0-4.916-1.11 6.002 6.002 0 0 0-2.4.184 4.248 4.248 0 0 0-.533.235c-.166.101-.311.222-.477.334-.19.14-.388.266-.594.38a5.738 5.738 0 0 1-.648.238 7.674 7.674 0 0 1-2.63.129 24.964 24.964 0 0 1-2.547-.375c-3.334-.708-6.6-1.618-9.924-2.154a10.109 10.109 0 0 0-4.923.338 6.84 6.84 0 0 0-3.773 3.148Zm15.676 12.6a6.798 6.798 0 0 1 3.661-3.44 10.445 10.445 0 0 1 5.101-.531c3.391.44 6.674 1.364 9.982 2.011.819.173 1.646.304 2.478.394a7.126 7.126 0 0 0 2.426-.084c.185-.054.368-.118.546-.192.173-.079.316-.201.478-.296.185-.125.371-.273.568-.388.204-.106.414-.197.631-.272a5.997 5.997 0 0 1 2.633-.148c1.685.293 3.342.727 4.953 1.299l4.814 1.647c-1.647-.407-3.272-.9-4.906-1.347a30.337 30.337 0 0 0-4.917-1.11 6.001 6.001 0 0 0-2.4.184c-.182.066-.36.145-.532.235-.166.101-.311.222-.477.334-.19.14-.389.267-.595.38a5.649 5.649 0 0 1-.648.238 7.67 7.67 0 0 1-2.629.13 24.993 24.993 0 0 1-2.547-.376c-3.334-.708-6.6-1.617-9.925-2.153a10.107 10.107 0 0 0-4.923.337 6.84 6.84 0 0 0-3.772 3.148Zm-12.892 9.209a6.797 6.797 0 0 1 3.661-3.44 10.441 10.441 0 0 1 5.101-.532c3.391.44 6.674 1.364 9.982 2.011.819.173 1.646.304 2.478.394a7.131 7.131 0 0 0 2.426-.083c.185-.055.367-.119.546-.193.173-.079.316-.2.478-.296.184-.125.371-.273.568-.388.204-.106.414-.196.631-.272a5.992 5.992 0 0 1 2.633-.148c1.685.293 3.342.727 4.953 1.3l4.814 1.647c-1.647-.408-3.272-.9-4.906-1.348a30.348 30.348 0 0 0-4.917-1.11 6.007 6.007 0 0 0-2.4.184c-.182.066-.36.145-.532.235-.166.102-.311.222-.477.334-.19.14-.389.267-.595.38a5.612 5.612 0 0 1-.648.238 7.664 7.664 0 0 1-2.629.13 24.992 24.992 0 0 1-2.547-.376c-3.334-.708-6.6-1.617-9.925-2.153a10.107 10.107 0 0 0-4.923.337 6.839 6.839 0 0 0-3.772 3.149Zm19.136 10.018a6.799 6.799 0 0 1 3.66-3.44c1.63-.598 3.383-.78 5.101-.531 3.392.44 6.675 1.364 9.983 2.011.819.173 1.646.304 2.478.394a7.121 7.121 0 0 0 2.426-.084c.185-.054.367-.118.546-.192.173-.08.315-.201.478-.296.184-.125.371-.274.568-.388.203-.106.414-.197.631-.272a5.991 5.991 0 0 1 2.633-.148c1.685.293 3.342.727 4.953 1.3l4.814 1.646c-1.647-.407-3.272-.9-4.906-1.347a30.381 30.381 0 0 0-4.917-1.11 6.001 6.001 0 0 0-2.4.184 4.3 4.3 0 0 0-.532.235c-.166.101-.311.222-.477.334-.19.14-.389.267-.595.38a5.611 5.611 0 0 1-.648.238 7.672 7.672 0 0 1-2.63.13 25.034 25.034 0 0 1-2.547-.376c-3.334-.708-6.599-1.618-9.924-2.153a10.111 10.111 0 0 0-4.923.337 6.839 6.839 0 0 0-3.772 3.148Zm-32.706 8.269a6.802 6.802 0 0 1 3.661-3.44 10.444 10.444 0 0 1 5.101-.532c3.392.44 6.675 1.365 9.983 2.012a25.29 25.29 0 0 0 2.478.393 7.139 7.139 0 0 0 2.426-.083c.185-.054.367-.118.546-.192.173-.08.315-.202.478-.297.184-.125.371-.273.568-.388.203-.106.414-.196.631-.271a5.978 5.978 0 0 1 2.633-.148 30.23 30.23 0 0 1 4.953 1.298l4.814 1.648c-1.647-.408-3.272-.901-4.906-1.348a30.433 30.433 0 0 0-4.917-1.109 6.005 6.005 0 0 0-2.4.183c-.182.066-.36.145-.532.236-.166.101-.311.221-.477.333-.19.14-.389.267-.595.381a5.517 5.517 0 0 1-.648.237 7.67 7.67 0 0 1-2.629.13 25.154 25.154 0 0 1-2.548-.376c-3.334-.708-6.599-1.617-9.924-2.153a10.113 10.113 0 0 0-4.923.337 6.843 6.843 0 0 0-3.773 3.149Zm17.026 10.776a6.798 6.798 0 0 1 3.661-3.439 10.43 10.43 0 0 1 5.101-.532c3.391.439 6.674 1.364 9.982 2.011.819.173 1.646.304 2.478.394a7.138 7.138 0 0 0 2.426-.083 5.28 5.28 0 0 0 .546-.193c.173-.079.316-.201.478-.296.185-.125.372-.273.568-.388.204-.106.415-.197.631-.272a5.997 5.997 0 0 1 2.634-.148c1.684.293 3.341.727 4.952 1.299l4.815 1.647c-1.648-.407-3.273-.9-4.907-1.347a30.41 30.41 0 0 0-4.917-1.109 5.987 5.987 0 0 0-2.4.183c-.182.066-.36.145-.532.235-.166.101-.311.222-.477.334-.19.14-.388.267-.595.381-.21.092-.427.171-.647.237a7.676 7.676 0 0 1-2.63.129 24.853 24.853 0 0 1-2.547-.375c-3.334-.708-6.6-1.617-9.925-2.153a10.109 10.109 0 0 0-4.922.337 6.839 6.839 0 0 0-3.773 3.148Zm-54.953 59.539s7.187-.525 17.562-5.827l3.074 6.839s-11.006 7.535-17.895 6.19l-2.74-7.202Z" fill="#000"/><path d="M63.547 172.766c.619 1.749 1.332 3.458 2.07 5.157l2.26 5.074c.764 1.687 1.54 3.369 2.33 5.044l2.366 5.024-.023-.044.861 1.464.078.132.002.167v.006l-.088-.314a17.84 17.84 0 0 0 2.06 2.762c.353.389.77.715 1.233.965.189.102.398.162.613.175.227.012.577.001.86.003 2.345.058 4.69-.134 6.995-.571a18.16 18.16 0 0 0 6.358-2.666 21.62 21.62 0 0 0 5.044-4.82l-.077.268c-.127-2.004-.39-4.024-.688-6.028-.305-2.007-.734-3.994-1.232-5.97.34.959.68 1.924.948 2.909.282.982.535 1.972.76 2.969a50.107 50.107 0 0 1 1.022 6.062l.014.139-.092.13a21.691 21.691 0 0 1-5.07 5.247 18.597 18.597 0 0 1-6.721 2.969 32.335 32.335 0 0 1-7.26.633c-.314-.005-.563.006-.932-.012a2.737 2.737 0 0 1-1.097-.309 5.815 5.815 0 0 1-1.576-1.231 17.351 17.351 0 0 1-2.186-2.996l-.09-.15.001-.164v-.006l.08.298-.83-1.482-.015-.027-.007-.017c-1.535-3.386-2.953-6.815-4.34-10.26a110.217 110.217 0 0 1-1.975-5.211 53.582 53.582 0 0 1-1.656-5.319Z" fill="#000"/></svg>