<svg width="300" height="334" fill="none" xmlns="http://www.w3.org/2000/svg"><g clip-path="url('#clip0_32_751')"><path fill-rule="evenodd" clip-rule="evenodd" d="m292.228 183.559-12.781 1.254c-20.406 1.56-40.803 4.816-61.052 6.77-.504-.82-1.49-.685-2.09-.116-2.02-.176-4.285-1.721-6.115-.114-.06-.009-.119-.018-.178-.024-3.26-6.255-5.513-12.928-7.699-19.609-1.395-4.108-3.272-8.084-6.742-10.843-5.92-4.11-19.487-12.446-26.44-12.094-.116-1.246-.695-2.529-1.648-3.358 2.1-3.581-6.297-5.917-6.889-5.502.38-11.962-5.247-22.352-17.652-24.735-11.115-2.316-26.924-2.705-32.901 8.912-.658-.073-7.374-.108-8.025-.036-1.01-1.28-12.106 10.849-7.559 15.071-40.66 17.989-63.778 15.842-75.032 66.415-1.522 4.75-1.633 9.949-3.24 14.594-5.715 13.348-10.351 27.563-11.505 42.087-2.787.713-3.107 5.628.12 6.339 1.234.272 2.265.643 3.164 1.347-.703 11.902 2.175 39.092 3.989 39.009 3.698 11.77 20.192 15.092 31.87 10.955-2.013 3.788 0 6.169 0 8.194 42.019 1.59 87.962.673 129.969 2.855 5.374-.077 11.026 1.32 16.326.515 3.231-.775 3.237-5.857-.041-6.486l14.325-3.112c-.321-.12 5.905-4.262 10.611-12.001 4.379-8.656 1.398-19.106 3.382-28.524 15.5-1.268 31.254-1.81 46.583-4.435 2.09 6.255 11.139-1.225 14.014-4.234l-.011-.014c1.393-.38 2.508-1.685 2.546-3.229.976-1.395 1.181-3.362.245-4.709 4.29-24.76 10.831-50.04 13.195-75.031a5.279 5.279 0 0 0 2.289-1.116l-.053-.053c1.129-1.261 1.35-3.437-.536-4.509-1.519-.864-2.789-.595-4.439-.433Z" fill="#FDFBF5"/><path fill-rule="evenodd" clip-rule="evenodd" d="M110.812 121.402c1.267-3.182 5.546-1.944 5.069 1.398-.286 2.002-1.383 4.117-2.367 5.872-.803 1.429-1.718 2.823-2.958 3.893 2.209 2.061 4.5 4.047 6.85 5.93a84.029 84.029 0 0 0 8.049 5.694c2.443 1.528 4.998 2.882 7.301 4.626 2.143 1.621 4.093 3.569 5.086 6.114 1.058 2.709.599 5.508-.181 8.216l-.089.306c-.795 2.683-2.173 5.916-.263 8.445.972 1.286 2.386 2.197 3.606 3.226a28.004 28.004 0 0 1 3.038 2.977c2.036 2.328 3.693 4.949 4.738 7.867l.093.266c.896 2.584 1.551 5.749.341 8.286-.348.728-1.468.492-1.663-.217-.44-1.604-.416-3.284-.785-4.911-.384-1.693-1.022-3.298-1.857-4.817-1.613-2.94-3.798-5.452-6.381-7.574l-.772-.628c-2.014-1.654-3.864-3.407-4.274-6.144-.436-2.927.736-5.715 1.49-8.486.525-1.931.696-3.781.129-5.526-.694 1.132-1.64 2.207-2.389 3.166-1.491 1.91-2.995 3.809-4.496 5.711a133.624 133.624 0 0 0-4.47 5.964c-.64.909-1.273 1.824-1.903 2.739-.474.688-1.135 1.375-1.652 2.077.126.376.116.809-.112 1.117-2.739 3.702-6.639-4.024-7.656-5.977-2.07-3.976-3.611-8.199-5.69-12.174-2.152-4.121-4.604-8.131-7.335-11.894-1.653-2.274-3.506-4.412-5.017-6.76-3.562 3.23-8.249 5.396-12.554 7.359-4.73 2.157-9.644 3.919-14.493 5.792l-1.433.556c-8.355 3.262-16.916 6.844-23.86 12.637-8.162 6.808-12.99 16.297-16.585 26.122-4.138 11.312-7.561 22.928-10.752 34.538a625.626 625.626 0 0 0-4.64 17.892c-1.283 5.274-2.347 10.6-3.833 15.82 3.014-.107 6.45 1.06 9.024 1.396 11.725 1.535 23.293 3.982 34.364 8.219 1.367.524 1.763 1.889 1.465 2.996.789-.221 1.577-.447 2.365-.669-.864-1.324-.451-3.691-.383-5.159l.004-.1c.07-1.956.282-3.914.42-5.866.261-3.72.602-7.414 1.056-11.115l.115-.924c.514-4.024.894-8.074 1.454-12.092l.067-.459a54.616 54.616 0 0 0-.91-3.056c-.876-2.692-2.112-5.228-3.194-7.836-.128-.306.31-.483.514-.299 1.834 1.65 3.29 3.743 4.46 5.931l.06-.309.133-.658c.33-1.602.73-3.29 1.714-4.59.104-.137.311-.167.41 0 .941 1.593 1.047 3.61 1.191 5.423.164 2.049.185 4.126.156 6.182-.056 4.017-.34 8.046-.565 12.056-.222 3.942-.656 7.834-1.216 11.736l-.107.733c-.273 1.857-.498 3.738-.859 5.583l-.102.503c-.193.915-.311 2.204-.696 3.275 9.888-2.757 19.79-5.452 29.712-8.1 7.17-1.914 14.349-3.799 21.524-5.697.378-.682.85-1.32 1.439-1.889 1.938-1.878 4.507-2.715 6.864-1.271.19.119.207.418 0 .532-.452.247-.904.5-1.349.764l4.309-1.168c3.22-.872 6.479-1.964 9.776-2.572 6.07-2.996 12.6-5.165 18.995-7.308l.753-.256c3.275-1.115 6.662-2.366 10.046-2.985 2.477-.453 5.383.093 6.379 2.632 1.261.83 2.447 1.807 3.593 2.768.827.694 1.621 1.433 2.428 2.151l.148.13c.659.572 1.182.956 1.344 1.867.084.47-.216 1.107-.796 1.045-1.775-.191-3.219-2.25-4.424-3.478-.93-.95-1.868-1.933-2.717-2.976-.494.268-1.173.22-1.488-.377-1.634-3.094-6.11-.949-8.586-.216l-3.547 1.05a755.304 755.304 0 0 0-5.318 1.593c-4.865 1.477-9.705 3.13-14.614 4.487.439.483.378 1.341-.456 1.669-3.842 1.508-8.057 2.287-12.05 3.322-2.52.654-5.039 1.312-7.557 1.973a6.2 6.2 0 0 0-.873 2.411c-.48 3.388.446 7.296 1.349 10.572l.137.49c.741 2.633 1.833 5.862 4.105 7.525a4.027 4.027 0 0 0 1.973.751c4.448-2.29 8.895-4.579 13.345-6.865.825-.422 1.587.152 1.772.832a29.173 29.173 0 0 0 4.561-1.146c2.395-.815 4.266-2.367 6.512-3.44 4.347-2.077 8.784.475 12.677 2.413l.896.441c1.745.847 5.376 2.473 6.212.158.81-2.241-1.75-4.636-3.404-5.644-1.97-1.203-4.266-1.845-6.494-2.382a40.723 40.723 0 0 0-3.854-.738c-1.47-.206-2.987-.175-4.402-.653-.702-.235-.811-1.352 0-1.537 2.178-.496 4.777.045 7.049.599l1.188.292c2.289.562 4.601 1.266 6.687 2.387 1.515.815 3.117 2.055 4.162 3.57.908-.843 2.038-.815 3.214-.501l.64.176c1.055.294 1.909.494 2.936.292.137-.747.277-1.495.425-2.242a537.552 537.552 0 0 1 4.837-21.94 517.889 517.889 0 0 1 10.571-37.259l.4-1.228c.918-2.811 1.658-5.872 3.14-8.455 1.401-2.441 3.645-3.849 6.311-4.593 3.025-.846 6.206-1.288 9.293-1.858.688-.127 1.379-.248 2.068-.373-.582-1.052-1.017-2.246-1.408-3.162l-.07-.159c-.841-1.918-1.597-3.871-2.327-5.835l-.545-1.476c-1.318-3.555-2.678-7.051-4.531-10.375-1.95-3.499-4.538-6.359-7.762-8.726-6.575-4.827-14.501-7.289-20.879-12.449-.261-.21.073-.572.339-.437 4.306 2.163 8.955 3.634 13.434 5.396l.884.349c3.54 1.403 7.136 2.932 10.199 5.204 3.417 2.535 6.108 5.682 8.131 9.424 1.993 3.689 3.268 7.818 4.673 11.758l.377 1.051c.567 1.574 1.153 3.143 1.823 4.676.534 1.216 1.529 2.604 1.981 3.993 1.237-.214 2.472-.429 3.711-.635a594.922 594.922 0 0 1 81.101-7.879c1.062-.03 1.613.984 1.456 1.912-2.608 15.423-4.926 30.898-7.468 46.332a2872.919 2872.919 0 0 1-3.401 20.195c-.586 3.408-1.265 6.804-1.82 10.218-.449 2.756-.776 5.535-1.545 8.227-.692 2.415-1.753 4.743-3.494 6.586-1.877 1.985-4.497 2.946-7.135 3.4-6.696 1.153-13.564 1.623-20.315 2.392l-35.937 4.089c.525 4.773.565 9.474.323 14.304l-.137 2.636c-.113 2.121-.247 4.244-.55 6.344-.383 2.632-1.588 4.861-3.362 6.828-1.628 1.806-3.607 3.348-5.532 4.825-1.998 1.532-4.061 3.013-6.411 3.96l-.304.122c-2.062.805-5.927 2.05-8.744 1.595.368 1.844 1.081 3.83.448 5.655-.292.847-1.401 1.271-2.08.549-1.345-1.43-1.451-3.318-1.768-5.183a147.333 147.333 0 0 1-.872-5.841c-.491-3.776-.874-7.585-.99-11.393-.12-3.91-.073-7.825.137-11.731.108-2.005.243-4.01.497-6.002.109-.85.219-1.701.346-2.548.047-.31.098-.617.153-.925l-3.226.364c-4.946.552-9.894 1.052-14.876 1.128a1.6 1.6 0 0 1-1.34-.651c-.315.516-.866.884-1.654.881-6.955-.026-13.433-2.301-19.759-4.982-3.189-1.352-6.329-2.814-9.523-4.156-2.982-1.251-6.168-2.143-9.077-3.552l-7.645 4.01a3.303 3.303 0 0 1-.203.541c-.499 1.015-1.48 1.567-2.482 1.982a5.985 5.985 0 0 1-2.929.422c-5.797 3.039-11.596 6.074-17.4 9.103l-5.802 3.026c-11.564 6.022-23.082 12.142-34.719 18.022l-.857.432c-4.02 2.015-8.335 4.058-12.795 5.583-.08 1.129-.03 2.228.065 3.422l.023.262c.133 1.411.418 3.181-.715 4.186-.59.524-1.642.525-2.043-.263-.727-1.43-.074-3.683.156-5.237a14.92 14.92 0 0 1 .33-1.671c-5.114 1.523-10.383 2.26-15.586 1.406-5.067-.832-8.99-4.024-12.154-7.928a36.077 36.077 0 0 1-6.984-14.07c-1.448-5.857-1.543-11.906-1.509-17.905.036-6.389.273-12.809 1.05-19.156-.852-.201-1.796-.373-2.656-.314-.426.682-1.252.969-2 .882-1.623 1.79 2.496 3.621 3.812 4.08.458.158.409.901-.119.878l-.332-.015c-2.034-.108-4.135-.455-5.331-2.345-.959-1.517-.67-3.312.472-4.547.754-7.136 2.558-14.084 4.237-21.045 1.648-6.832 3.48-13.621 5.422-20.376l.87-3.023c3.059-10.589 6.255-21.265 10.473-31.436 2.106-5.077 4.532-10.061 7.821-14.489 3.066-4.127 6.686-7.658 10.846-10.676 7.756-5.623 16.857-9.022 25.8-12.258l.4-.146c4.634-1.676 9.257-3.373 13.838-5.189 4.052-1.606 7.933-3.644 11.966-5.273a21.062 21.062 0 0 1-.38-.722l-.075.062-.038.03c-.407.281-1.003.143-1.337-.172-.944-.891-.624-1.88.005-2.803l.082-.119c.771-1.078 1.458-2.219 2.17-3.337l.444-.701c1.194-1.868 2.448-3.748 4.04-5.293a8.709 8.709 0 0 1 2.397-1.651c-.073-.154.568-.47.75-.31 2.709-.991 5.825-.784 8.778-.511m106.406 162.622-3.765.428c-4.143.472-8.287.928-12.432 1.38l-9.002.978c-.024.513-.086 1.015-.098 1.402a858.502 858.502 0 0 0-.144 5.997c-.083 4.007.009 8.018.273 12.018.256 3.875.592 7.75 1.116 11.601l.106.768.062.405c.428.041.847.244 1.196.661.761.909 3.518.025 4.596-.357 1.771-.632 3.437-1.696 4.976-2.764 1.503-1.042 2.856-2.257 4.157-3.538l1.063-1.053c1.058-1.051 2.117-2.172 2.766-3.495.879-1.794.992-3.996 1.251-5.95.318-2.404.695-4.807 1.094-7.198m-106.525-36.511-.391.103c-14.188 3.77-28.355 7.651-42.586 11.256-7.043 1.783-14.119 3.438-21.17 5.187l-1.142.285c-5.563 1.407-11.193 3.1-15.453 7.135-.157.148-.385-.08-.237-.239 4.591-4.886 11.12-6.956 17.39-8.749 1.159-.332 2.32-.657 3.478-.986-8.526-3.04-17.187-5.685-26.047-7.571-2.282-.486-4.59-.843-6.87-1.33-1.59-.34-3.143-.833-4.716-1.241l-1.238-.311-.016 3.911c-.02 5.541-.01 11.077.272 16.616l.053 1.025c.33 6.165.845 12.458 3.032 18.271 1.777 4.723 4.61 9.172 8.315 12.613 1.875 1.741 3.89 3.095 6.382 3.764 2.313.621 4.737.695 7.115.528 11.406-.795 21.56-6.992 31.468-12.123a27719.334 27719.334 0 0 1 48.639-25.141 7.818 7.818 0 0 1-1.227-1.034c-2.175-2.247-3.324-5.323-4.078-8.302-.802-3.171-1.281-6.57-1.337-9.842m21.006 22.417c.143-.076.31.02.315.182.051 1.238-.634 2.461-1.145 3.578l-.054.119a75.85 75.85 0 0 1-2.007 4.09 199.75 199.75 0 0 1-4.395 7.954c-3.067 5.265-6.478 10.307-10.507 14.891-.911 1.035-2.408-.292-1.824-1.407 2.817-5.374 6.1-10.449 9.48-15.479 1.692-2.519 3.384-5.04 5.091-7.547a137.592 137.592 0 0 1 2.176-3.115l.448-.614m170.69-104.136a592.418 592.418 0 0 0-42.627 2.814 585.317 585.317 0 0 0-47.534 6.866l-1.632.307c-2.72.515-6.044.728-8.466 2.181-2.553 1.534-3.244 4.736-4.094 7.376a584.065 584.065 0 0 0-2.919 9.345 698.12 698.12 0 0 0-10.265 37.488c-1.521 6.248-2.871 12.53-4.293 18.802-1.264 5.571-2.659 11.079-4.115 16.594.179-.139.399-.245.665-.302 7.235-1.539 14.62-2.208 21.962-3.059l.711-.082c7.596-.894 15.193-1.781 22.793-2.636l50.324-5.659c2.967-.335 6.146-.38 9.035-1.177 4.91-1.354 6.061-6.845 6.886-11.218l.024-.132c2.484-13.212 4.461-26.538 6.779-39.783m-118.009 48.691c-1.954-.13-4.628-1.919-6.111-1.791.779 1.306 1.13 2.796.682 4.386-1.248 4.426-6.893 2.136-9.612.784-2.228-1.109-4.381-2.466-6.849-2.985-2.795-.589-4.689.523-7.052 1.804a20.826 20.826 0 0 1-6.225 2.2c-1.155.209-2.253.23-3.349.15-.065.053-.14.103-.224.148l-.579.303c2.619.12 5.289.929 7.726 1.669 2.527.767 5.007 1.692 7.474 2.638l2.428.933c5.987 2.293 12.184 4.47 18.663 4.451.466-.002.848.128 1.149.338m-9.052-28.896c1.931-.238 3.712.016 5.254 1.273 1.86 1.515 3.11 4.028 5.783 4.194.78.048.962 1.143.187 1.373-1.99.589-3.603-.488-4.959-1.886l-.911-.953c-1.34-1.388-2.576-2.461-4.851-2.378-2.435.089-4.874.651-7.293.938-2.741.325-5.481.6-8.231.839-.129.011-.15-.19-.03-.219l3.079-.767m10.109-10.307.318-.031c2.804-.273 5.367-.284 7.869 1.224l.481.291c2.256 1.372 4.714 2.987 6.125 5.21.23.363-.151.79-.537.699-2.713-.653-4.696-2.642-6.977-4.132-2.56-1.671-5.204-1.396-8.123-1.136-2.826.251-5.651.597-8.45 1.067-2.63.444-5.268 1.141-7.923 1.364v-.006c-.304 0-.476-.456-.167-.611 2.695-1.345 5.818-1.982 8.75-2.598m93.779-29.048c-.271-1.295 1.323-1.896 2.062-.868l.157.217c1.595 2.186 3.905 4.931 3.787 7.712 1.403.031 2.857.883 3.404 2.149.253.586.338 1.281.282 2 1.276.098 2.667.936 3.446 1.75 1.293 1.352 1.394 3.262.467 4.841-2.021 3.443-6.436 4.694-10.165 4.974l-.133.01c-3.849.267-9.397.195-12.038-3.109-2.546-3.187.268-5.767 3.155-7.169-.751-.686-1.141-1.669-.775-2.707.642-1.824 2.911-2.528 4.191-3.796 1.564-1.545 2.596-3.666 2.184-5.883m2.091 2.682c-.423 1.845-1.467 3.534-2.919 4.871-.556.511-1.163.967-1.809 1.358l-.078.045c-.573.321-1.981.924-1.874 1.647.112.741 2.407 1.902 3.033 1.903.142 0 .223.222.077.287-1.134.501-2.124.716-3.231.186-.742.756-1.46 1.539-2.174 2.314-1.259 1.373-.829 2.821.661 3.844 2.393 1.642 6.028 1.601 8.82 1.482 2.809-.12 5.813-.747 8.006-2.619l.096-.083c1.194-1.061 2.283-2.858.457-3.88-.716-.4-1.489-.376-2.168-.571-.636 1.246-1.667 2.244-2.924 2.436-1.017.155-1.717-1.123-.792-1.734l.208-.128c1.16-.742 2.152-1.884 2.125-3.371-.017-1.032-1.459-2.335-2.398-1.365l-.042.046c-.786.886-2.17-.231-1.653-1.212l.024-.044m-184.68-56.734c-.004-.221.308-.303.417-.113 1.824 3.21 2.777 7.143 3.748 10.679 1.018 3.703 1.84 7.444 2.577 11.212 1.495 7.63 2.291 15.218 2.345 22.995.007 1.11-1.801 1.406-1.978.268-1.175-7.565-2.3-15.138-3.484-22.701-.596-3.804-1.289-7.593-1.952-11.386m16.38-5.364c-.133-.443.51-.59.675-.186 3.66 8.985 4.9 19.167 2.55 28.647-.36 1.45-2.483.822-2.212-.61m46.196-35.835c-.02-.331.411-.383.574-.156 1.732 2.444 2.453 5.717 5.495 6.98 1.519.631 3.228.521 4.57 1.585.898.713 1.586 1.837.912 2.916-.217.349-.824.524-1.12.145-.43-.552-.658-1.213-1.242-1.626-.825-.583-1.937-.62-2.882-.894-1.223-.354-2.3-.976-3.183-1.896m25.847-47.813c.179-.091.35-.033.464.123.164.22.144.433-.056.584.267.547.582 1.913.627 2.112.183.808.377 1.61.58 2.411.41 1.616.77 3.246 1.18 4.862a63.066 63.066 0 0 0 1.53 5.082c.037.109.078.219.12.332l.067.169.015-.027c.118-.184.362-.055.334.14-.027.18-.064.357-.095.535l.061.16c.377 1.015.635 2.085-.057 2.982-.258.335-.543.534-.898.592-.57 1.877-1.284 3.719-2.049 5.488l-.223.517c-1.126 2.581-2.325 5.129-4.117 7.326-1.955 2.399-4.645 4.038-6.348 6.667-.793 1.223-1.345 2.508-1.791 3.89l-.17.524c-.317.977-.683 1.923-1.6 2.497a.81.81 0 0 1-.966-.125c-1.878-1.988.088-5.7 1.222-7.624 1.575-2.676 3.854-4.389 6.135-6.408 2.46-2.176 4.029-5.087 5.547-7.955.93-1.757 1.828-3.552 2.773-5.317-.988-.873-1.304-2.606-1.639-3.811l-.029-.109a42.817 42.817 0 0 1-1.27-5.897 32.498 32.498 0 0 1-.308-5.719l.02-.49m4.611 5.589c-.217-.299.144-.638.442-.576 1.821.377 3.599 1.478 5.233 2.369l.173.095c1.304.703 2.616 1.564 3.301 2.929.744 1.484.682 3.194.58 4.808l-.008.151c-.124 1.935-.145 3.945-.554 5.844-.21.973-1.09 1.247-1.843 1.017-.897 2.828-3.412 4.912-5.251 7.144-2.343 2.847-1.902 6.689-1.656 10.116.099 1.387-1.627 1.781-2.516 1.042l-2.049-1.702-1.021-.854a76.779 76.779 0 0 1-.866-.741l-.426-.377c-.189-.171-1.025-1.105-1.27-1.143-.592-.094-1.998 1.466-2.48 1.956l-.06.061a25.225 25.225 0 0 0-2.488 2.857c-.139.187-.413.031-.313-.183a25.565 25.565 0 0 1 2.421-4.172l.19-.262c.627-.845 1.469-2.338 2.578-2.588 1.351-.305 2.701 1.052 3.686 1.805l.062.046c.469.352.931.709 1.392 1.069-.048-2.551.274-5.129 1.592-7.329.929-1.551 2.321-2.7 3.511-4.031 1.326-1.484 2.018-3.309 3.219-4.855a.907.907 0 0 1 .597-.34c.047-1.242.23-2.496.372-3.726l.041-.367c.142-1.336.48-2.967-.174-4.218-.617-1.181-2.034-2.015-3.083-2.817l-.858-.665m-61.526-16.484a6.689 6.689 0 0 0-1.524 1.204c-1.462 1.551-2.508 3.482-3.525 5.339-.548 1.001-1.076 2.012-1.629 3.01-.24.434-.487.863-.737 1.292-.116.198-.457.59-.628.833.189.264.384.525.583.782.076.099 5.322 5.815 7.151 8.051 2.8 3.426 5.303 7.046 7.442 10.919 2.095 3.792 3.691 7.809 5.631 11.675.972 1.936 2.056 3.858 3.439 5.534.054.065.11.127.165.192.527-1.426 1.88-2.954 2.544-3.831l.062-.082c1.507-2.031 3.099-4.001 4.724-5.937a157.716 157.716 0 0 1 4.566-5.2l.586-.637c1.086-1.173 2.466-2.93 4.058-3.768a7.733 7.733 0 0 0-.595-.901c-1.49-1.947-3.597-3.361-5.674-4.636l-1.349-.82c-5.08-3.096-10.083-6.337-14.493-10.361-2.333-2.128-4.635-4.359-6.597-6.841l-.693-.878m4.971-6.472c-2.38.2-4.949.152-7.148.927 1.955 1.848 3.813 3.844 5.721 5.723.17-1.271.517-2.526.812-3.766" fill="#000"/><path fill-rule="evenodd" clip-rule="evenodd" d="M134.373 6.535c16.942 0 34.465 13.134 40.675 21.515 5.221 7.046 8.033 38.91 8.033 60.444 0 4.503 2.485 12.993 1.76 17.301-2.658 15.786-14.234 29.025-37.149 29.025-22.914 0-39.345-9.084-56.376-33.474-8.264 0-12.27-6.338-12.327-16.34-.059-10.004 7.976-13.643 7.976-13.643S84.1 31.89 91.315 21.612c7.216-10.277 26.117-15.077 43.058-15.077Z" fill="#FDFBF5"/><path fill-rule="evenodd" clip-rule="evenodd" d="M127.248.953c10.697-1.084 21.179-.173 31.72 1.71.805.146 1.263.674 1.432 1.31 4.966.227 9.936.59 14.895.862 1.799.099 2.82 1.877 1.999 3.483-.163.319-.334.63-.507.94l.218-.072c1.491-.479 3.103-.715 4.556.045 1.85.967 2.575 3.1 2.166 5.064a7.77 7.77 0 0 1-.48 1.45 6.184 6.184 0 0 1 1.22.036c2.16.287 3.766 1.943 3.879 4.148.168 3.33-1.978 6.709-4.506 9.093.368.755.507 1.644.355 2.546-.304 1.781-1.616 2.848-3.137 3.544.634 2.014.934 4.12.757 6.273-.059.719-.688 1.312-1.35 1.458 2.471 6.808 3.723 14.117 4.622 21.24.643 5.067.959 10.164.997 15.27.019 2.304-.019 4.613-.115 6.918l-.04.864c-.119 2.492-.126 5.109-.573 7.574 1.528 2.6 2.142 5.826 2.402 8.737.322 3.605-.188 7.324-1.325 10.752-4.29 12.958-17.24 21.134-30.245 23.259-12.04 1.967-25.971-.68-33.006-11.617-.111-.174.124-.316.261-.202 5.035 4.093 10.874 5.919 17.218 6.808 10.968 1.535 23.296-1.067 32.098-7.967 4.225-3.313 7.271-8.135 8.611-13.325.684-2.652.92-5.419.65-8.148-.274-2.77-1.5-5.134-2.272-7.75-.26-.884.014-1.705.555-2.29.151-2.124.509-4.267.646-6.385.153-2.41.245-4.817.279-7.228.062-5.001-.147-10.012-.568-14.993-.77-9.12-2.813-18.018-4.012-27.06-.445.398-1.082.562-1.749.214l-.069-.038-.364-.209c-.022 0-.044.003-.065.006-2.492.242-5.076-.104-7.463-.848a21.932 21.932 0 0 1-6.886-3.56c-.394 1.997-.558 4.014-.561 6.05-.003 1.27-1.349 1.93-2.418 1.387a100.83 100.83 0 0 1-13.551-8.293c-.501 2.57-1.003 5.139-1.507 7.71-.195.992-1.456 1.392-2.265.92a28.708 28.708 0 0 1-8.256-7.233c-.451.863-.904 1.727-1.36 2.588l-.687 1.29c-.676 1.27-1.584 2.672-3.067 3.078-1.569.43-2.88-.588-3.407-2.009a24.535 24.535 0 0 1-.448-1.352c-1.337 3.053-2.847 6.038-4.553 8.885-2.56 4.27-5.633 8.074-8.698 11.978-.931 1.185-2.524.053-2.652-1.098a66.58 66.58 0 0 1-.191-2.036c-1.785 3.604-3.649 7.174-5.679 10.64l.291 1.14c.838 3.365 1.532 6.754 2.289 10.137.245 1.092-.336 2.653-1.611 2.838-1.524.224-2.964 1.002-4.525.466-1.702-.584-2.038-2.055-2.842-3.449a5.622 5.622 0 0 0-.548-.775l-.05.065c-.125.165-.424-.014-.35-.202l.088-.218c-.69-.732-1.516-1.344-2.275-2-1.804-.305-3.834.028-5.078.762-2.831 1.67-4.132 5.114-4.159 8.281-.032 3.707 1.116 7.872 3.055 11.04.854 1.395 2.024 2.653 3.569 3.272 1.534.614 3.196.423 4.756 1.002 1.032.386 1.668 1.53 1.045 2.57-.043.071-.09.137-.135.206l.464.616c.319.426.652.884.963 1.36.794.912 1.628 1.793 2.438 2.691 1.494 1.656 2.944 3.357 4.414 5.036 1.389 1.586 2.856 3.074 4.369 4.54 1.429 1.387 3.214 2.554 4.526 4.035 1.277 1.444 1.624 3.965-.477 4.801-2.324.927-4.381-1.246-5.946-2.695l-.066-.06c-2.867-2.639-5.458-5.655-7.514-8.976-2.038 1.387-4.984 1.519-7.013.133-1.068-.73-1.887-1.957-2.285-3.29-.375.083-.75.133-1.116.127-.188.11-.377.216-.568.315-1.513.788-3.372.436-4.064-1.238-.63-1.521.02-3.248.587-4.712l.117-.302c.322-.836.678-1.745 1.12-2.602-1.23-.925-2.28-2.075-3.17-3.38-2.986-4.403-4.478-10.84-3.819-16.091.397-3.17 1.886-6.453 4.323-8.59l-.089-.232c-.683-1.734-1.304-3.474-1.706-5.306-.472-2.142-.702-4.363-.91-6.544-.442-4.608-.323-9.32.265-13.91 1.104-8.639 3.903-17.12 8.87-24.308-1.408-1.687-2.524-3.671-1.942-5.954.266-1.047.871-2.04 1.784-2.641.504-.33 1.104-.382 1.609-.656l.151-.084c.222-.129.052-.115-.08-.716-.522-2.4-.09-4.718 2.551-5.515 2.486-.749 4.837.842 6.307 2.737 3.85-2.731 8.922-4.16 13.383-5.375 5.072-1.376 10.276-2.235 15.5-2.766ZM85.673 81.435c-.018-1.954 1.834-3.16 3.658-2.84 1.224.213 2.246.944 3.204 1.7l.468.37c1.168.916 2.51 1.904 3.204 3.203 1.021 1.916-1.135 4.494-3.15 3.152-1.381-.927-2.267-2.41-3.173-3.789l-.094-.142c-.411-.617-.772-1.274-1.337-1.77l-.121-.107c-.186-.158-.385-.302-.624-.37-.462-.132-1.318.053-1.522.603l-.018.057c-.075.276-.492.217-.495-.067Z" fill="#000"/><path fill-rule="evenodd" clip-rule="evenodd" d="M162.969 108.491c-2.026.797-4.418.984-6.508.307-1.999-.65-3.814-2.093-4.912-3.909-.978-1.618-1.387-3.537-.808-5.45.027-.091.117-.15.203-.173.473.43.766.858 1.058 1.283.492.717.984 1.428 1.662 2.042.985.892 2.312 1.616 3.63 1.856a5.77 5.77 0 0 0 3.764-.59c.703-.375 1.271-.878 1.833-1.381.611-.549 1.214-1.107 2.058-1.416.676-.248 1.385-.039 1.93.377.586.446 1.009 1.145.985 1.875-.036 1.133-.531 2.077-1.25 2.857-.973 1.053-2.348 1.813-3.645 2.322Zm-2.404-28.215c2.252 1.37 5.686 4.564 3.262 7.96-2.853 2.994-6.961-.438-8.985-1.991-1.877-1.203-3.987 1.892-2.245 3.296 14.628 10.832 20.564-8.906 9.108-10.874-1.262-.218-1.731 1.186-1.14 1.61Zm-23.699-18.978c3.071-.147 5.777 1.232 8.703 1.859 2.705.58 5.37.231 7.999-.506 4.268-1.196 6.034 5.34 1.824 6.613-3.067.927-6.295.992-9.442.514-2.795-.425-5.138-1.786-7.803-2.578-2.286-.68-4.977-.398-7.392-.078l-.937.127c-1.393.187-2.794.376-4.174.648-1.197.237-2.392.67-3.614.72-.138.006-.255-.174-.168-.295 1.418-1.948 4.154-3.486 6.33-4.512l.148-.069c2.685-1.252 5.535-2.3 8.526-2.444Zm-1.125 14.37-.002-.067c.005-1.903 1.113-6.248 3.852-6.248 1.711 0 2.751 2.957 2.93 6.005l.006.125c.08 1.894-.441 6.037-2.936 6.037-2.521 0-3.825-3.924-3.85-5.852Zm40.327 0V75.6c-.005-1.903-1.113-6.248-3.852-6.248-1.668 0-2.697 2.812-2.915 5.777l-.015.228c-.108 1.832.378 6.162 2.93 6.162 2.523 0 3.825-3.924 3.852-5.852Zm-.043-16.688.197.004c3.2.111 6.492 2.008 7.348 5.193.043.166-.16.277-.281.163-2.633-2.464-6.172-.11-8.807 1.125l-.969.447c-3.397 1.581-7.262 3.44-11.035 2.262-1.79-.56-2.929-2.4-2.417-4.26.454-1.655 2.451-3.046 4.181-2.449l.078.029c1.405.538 3.134-.007 4.584-.544l1.194-.448c1.916-.728 3.843-1.542 5.927-1.522Z" fill="#000"/><path fill="#FDFBF5" d="M231.199 214.018h35.004v35.004h-35.004z"/></g><defs><clipPath id="clip0_32_751"><path fill="#fff" transform="translate(0 .027)" d="M0 0h300v333.14H0z"/></clipPath></defs></svg>