<svg width="460" height="386" fill="none" xmlns="http://www.w3.org/2000/svg"><path fill-rule="evenodd" clip-rule="evenodd" d="M213.105 146.553c9.44.466 24.138 4.516 24.872 7.105 1.148 4.042-1.317 19.198 2.807 27.363 1.758 3.479 8.433 3.167 11.02 4.301 8.655 3.791 34.276 10.984 39.558 20.04 2.117 3.628 15.125 48.643 22.036 71.609a66.41 66.41 0 0 0 2.615 7.201l.351-1.722c2.819-13.881 4.227-22.285 4.227-25.21 0-4.571-3.643-23.856 0-28.76 3.607-4.856 12.298-8.826 16.207-8.904l.118-.002c2.566 0 4.795-.803 6.683-2.409l2.768-1.394c14.081-7.073 22.308-10.953 24.681-11.64 3.787-1.096 10.23 1.238 7.008 4.743-2.148 2.336-7.545 6.469-16.192 12.399l-3.259 2.592.392.205c4.215 2.221 6.692 4.09 7.433 5.608.765 1.564.399 3.413-1.1 5.549l.227.223c1.894 1.86 2.842 3.109 2.842 3.744v3.103c1.884 2.763 2.355 5.066 1.413 6.913-.942 1.844-2.436 3.443-4.482 4.795-1.507 3.969-3.302 6.793-5.385 8.473-2.083 1.682-5.681 3.08-10.797 4.197l-4.631 11.08-3.751 15.568-1.89 17.37.549.398c2.543 1.854 4.174 3.229 4.174 4.65 0 2.213-10.264 54.263-26.234 56.593-3.453.505-21.365-1.967-27.246-6.756l.087.518c1.383 8.365 1.09 12.71-.879 13.033-24.201 3.972-92.932 5.198-206.196 3.682-.675-60.173 2.373-100.249 9.14-120.224 17.311-51.09 36.397-68.539 43.071-70.033 5.85-1.31 26.131-9.389 31.8-11.533 3.7-1.4 4.493-5.597 8.71-5.597l.342.001c4.078.042 7.694.771 9.725-1.329 5.333-5.509 3.842-13.136 6.055-20.438 1.218-4.024 9.548-7.678 21.131-7.105Z" fill="#FDFBF5"/><path fill-rule="evenodd" clip-rule="evenodd" d="M187.173 160.978c.554-1.099 2.025-.956 2.996-.457 2.911 2.128-.135 6.258-.941 8.858-2.072 5.041-5.668 9.967-10.635 12.325.412 5.012.878 10.012 1.051 15.039 6.348 7.884 17.054 10.761 26.557 12.974 14.925 4.131 31.77-4.334 36.807-19.1-5.734-3.261-7.589-11.799-5.878-17.756.147-.417.796-.603 1.026-.135 1.571 3.232 1.361 7.174 3.146 10.368 17.13 1.642 39.239 8.112 50.462 21.979 4.974 6.937 6.944 15.96 9.394 24.002 5.227 16.576 9.391 33.487 14.517 50.082l.604-3.14c1.657-8.65 3.161-17.415 2.041-26.211l-.019-.42c-.366-7-2.554-20.006 2.869-24.729 4.905-3.752 12.011-6.768 18.166-5.039 10.952-4.878 20.406-13.093 32.072-16.294 3.59-.739 8.754.136 7.906 5.012-2.351 8.526-12.201 11.836-18.934 16.233 4.316 1.171 9.579 6.424 6.206 11.005-.023.066-.05.13-.081.192 2.734 1.212 3.118 4.262 2.446 6.875-.068.691-.249.098.156.725 3.086 2.912 1.723 11.031-2.926 11.305.304 3.848-2.164 7.585-5.292 9.682-3.369 2.261-8.243 2.359-11.033 5.453-6.551 11.562-8.81 25.213-9.525 38.452 4.319 1.619 8.193 6.456 4.27 10.561-.078.01-.155.019-.233.025-2.275 6.076-3.153 12.552-4.356 18.896-1.851 10.827-6.673 20.767-12.831 29.786-7.121 11.938-26.272 10.046-35.919 2.34.039 2.023.371 4.032-.276 5.985-.954 2.107-3.282 1.197-3.512-.879-5.1 2.871-6.301-6.605-.632-5.103-.436-6.85-.689-13.71-.894-20.572-6.417 2.08-6.695-8.58-.129-6.448l-.008-2.947c-.049-22.594.201-45.267 3.18-67.684.274-1.675.742-3.298 1.014-4.964.029-.174.299-.124.299.041.461 31.384-1.588 62.835.55 94.23 1.779.542 2.489 2.586 3.807 3.779 2.926 2.702 6.909 4.019 10.807 4.478 10.909 1.531 15.619-1.803 20.478-11.297-2.191 1.466-5.152-1.121-3.817-3.442l.043-.07c1.386-2.459 5.303-.986 4.808 1.767 4.885-7.829 7.44-16.658 9.33-25.616l.254-1.071c.919-3.803 2.109-8.161 4.313-11.602-13.442-3.428-26.589-13.876-28.693-28.21-3.413 10.732-8.035 21.223-12.442 31.662-1.362 3.629-1.928 7.53-3.879 10.897-.454.78-1.604.579-1.86-.242-1.755-7.852 3.561-15.319 6.322-22.388 2.253-3.995 8.722-22.234 12.735-22.278-4.508-19.776-10.52-39.402-16.246-58.931-5.535-26.368-16.817-31.454-40.717-39.756 4.311 21.99 23.993 43.275 13.519 66.339l-.254.599c-1.071 2.543-1.96 5.104-1.213 7.896.725 2.708 2.379 5.059 3.701 7.495 7.391 13.76 2.303 29.829-.554 44.158-3.611 16.803-7.176 33.622-10.908 50.399-.735 3.347-1.212 6.795-2.322 10.04-.574 1.672-3.436 1.514-3.25-.439.353-3.788 1.416-7.483 2.193-11.203 4.646-24.086 10.933-47.889 14.93-72.079 2.572-17.908-7.551-20.66-7.174-32.231 1.376-5.917 5.019-11.198 4.81-17.506.808-19.302-13.239-35.229-14.972-54.004l-3.063-1.092a431.584 431.584 0 0 1-4.583-1.667c8.021 56.153 5.586 113.531 1.575 169.962-.819 2.603-.04 20.793-3.474 19.178-.173 1.016-.713 2.015-1.885 2.011-10.652.098-21.305.267-31.957.393-5.123-.473-12.164 1.485-16.521-1.474-5.033-1.436-5.611-15.076-6.956-19.936l-.524-3.536c-8.549-57.77-16.2-116.73-10.054-175.072-8.551.33-10.314 9.565-10.949 16.29-1.586 14.843-11.166 27.627-11.626 42.64a25.44 25.44 0 0 0 2.103 10.515c3.858 8.194 10.533 17.666 5.544 26.817-5.899 7.124-5.388 8.999-3.224 17.803 6.092 29.105 16.207 57.084 25.828 85.145-2.09 10.907-14.665-29.583-15.848-32.635-5.567 2.8-8.607-6.497-2.224-7.16-4.099-13.739-7.874-27.582-11.015-41.578l-.084-.394c-1.388-6.466-4.119-14.037.492-19.774 11.886-12.033-7.853-25.483-5.364-40.06-2.15 1.596-5.405-.083-5.355-2.763-.097-3.018 3.952-4.564 5.901-2.262 2.003-11.826 8.973-22.151 11.083-33.943l.095-.554c.715-4.167.917-8.553 2.962-12.351-2.784 1.811-5.749 3.274-8.798 4.564 5.453 4.558-5.105 8.719-4.233 1.678-29.895 8.657-36.653 20.731-47.63 48.459 2.051-1.993 5.563.588 4.334 3.131-.978 2.679-5.25 1.895-5.248-.961l-.5 1.196c-6.657 15.931-12.715 32.249-15.76 49.298 5.973-.844 4.452 8.711-.96 6.018-2.171 15.164-2.205 30.541-1.94 45.826 5.037-2.644 5.189 6.341.048 3.78.188 12.525.463 25.053.672 37.578.041 2.666-4.068 2.654-4.132 0-.48-19.247-1.355-38.528-.939-57.782-.391-33.417 9.206-65.624 23.505-95.558 12.653-34.466 30.13-38.386 62.285-48.407 2.968-4.41 9.308-8.582 14.482-5.812 2.895-4.677 4.365-10.219 6.507-15.202Zm-55.092 120.124c.121-.425.727-.317.746.102.27 5.406.03 10.848-.339 16.278-.224 3.315-.5 6.626-.733 9.918a946.74 946.74 0 0 0-1.497 26.084 3.68 3.68 0 0 1 3.908.719l.093.09c.354.323.617.731.765 1.187.212.406.319.842.319 1.307l-.001.117a3.711 3.711 0 0 1-1.827 3.19c-.578.335-1.196.5-1.863.504-.072.006-.144.013-.215.016a2.713 2.713 0 0 1-1.386-.308l-.065-.02a915.183 915.183 0 0 0-.393 13.25c-.087 3.851-.204 7.699-.282 11.55l-.035 1.926-.071 4.255c-.023 1.751-.012 3.427-.607 5.079l-.07.19c-.428 1.102-.761 2.636-1.907 3.249-.913.489-2.144.308-2.669-.645-.44-.798-.058-1.946.592-2.484-.012-.036-.03-.068-.047-.105-.101-.291-.253-.568-.344-.862-.285-.935-.207-1.929-.21-2.901 0-1.711.057-3.424.103-5.133.101-3.64.218-7.276.359-10.911.481-12.198 1.389-24.394 2.428-36.557l.352-4.105c.47-5.459.956-10.924 1.643-16.355l.101-.78a3.606 3.606 0 0 1-.986-.726c-1.09-1.146-1.753-2.862-2.374-4.34l-.143-.336c-.675-1.577-1.296-3.172-1.616-4.866l-.031-.155c-.147-.721-.436-2 .328-2.348.399-.183.652-.052.782.347a.167.167 0 0 1 .004.08.175.175 0 0 1-.03.075c.313.483.806.934 1.117 1.383l1.066 1.523.526.766c.667.982 1.38 1.923 2.117 2.852.578-4.075 1.288-8.132 2.392-12.1Zm43.661 90.782c1.332-1.045 3.5-.477 3.5 1.451 0 1.935-2.172 2.493-3.5 1.448l-.066-.049-.064-.05c-.723-.567-.747-2.04-.054-2.654l.054-.044c.043-.037.084-.069.13-.102Zm-58.015-3.764.115.001c.601 0 1.163.154 1.684.458.227.172.451.347.678.523.414.414.699.907.859 1.475l.119.888a2.53 2.53 0 0 1-.288 1.289 2.527 2.527 0 0 1-.69 1.076 2.468 2.468 0 0 1-1.077.691 2.467 2.467 0 0 1-1.172.291l-.115-.001a3.285 3.285 0 0 1-1.687-.459c-.227-.172-.451-.347-.678-.522a3.347 3.347 0 0 1-.859-1.476c-.038-.295-.076-.592-.119-.889-.015-.46.081-.888.288-1.287.137-.415.367-.775.69-1.076a2.491 2.491 0 0 1 1.077-.692c.365-.192.758-.29 1.175-.29Zm151.682-6.168.85.114c.813.185 1.466.785 1.905 1.47.233.367.359.763.379 1.186.093.422.073.847-.058 1.272a2.418 2.418 0 0 1-.571 1.087c-.097.152-.21.291-.34.416-.266.443-.668.735-1.082 1.034a2.26 2.26 0 0 1-1.138.362 1.557 1.557 0 0 1-.813 0 2.263 2.263 0 0 1-1.135-.362l-.618-.48c-.18-.21-.35-.429-.509-.656l-.314-.742c-.192-.594-.097-1.119.007-1.713.016-.098.042-.195.077-.288l.071-.189c.185-.493.285-.66.616-1.09l.126-.169a2.28 2.28 0 0 1 .202-.239c.207-.215.502-.393.735-.577a3.21 3.21 0 0 1 1.61-.436Zm-110.012-2.076.108.001c.469.003.911.12 1.319.356l.53.413c.325.327.549.709.675 1.154.029.233.061.467.094.698.015.352-.063.701-.227 1.012a1.957 1.957 0 0 1-.542.842c-.23.25-.519.436-.842.542-.28.149-.592.227-.909.227l-.098-.003c-.473 0-.915-.12-1.323-.356l-.53-.41a2.634 2.634 0 0 1-.675-1.157 43.045 43.045 0 0 0-.094-.697c-.012-.36.062-.698.227-1.009.108-.324.286-.607.542-.843.236-.256.518-.439.842-.542a1.97 1.97 0 0 1 .903-.228Zm-21.385-1.073c.677-.006 1.365.186 1.917.577.539.384.947.795 1.21 1.415.071.169.142.335.204.503.278.743.33 1.489-.055 2.215-.372.704-1.176 1.011-1.895 1.223-.609.181-1.3.21-1.905-.006a4.652 4.652 0 0 1-.868-.387c-.51-.315-.786-.687-1.126-1.148a2.869 2.869 0 0 1-.399-1.473c0-.528.133-1.018.399-1.475a2.939 2.939 0 0 1 2.518-1.444Zm-34.348.626c.856 0 1.607.396 2.123 1.064.521.678.713 1.522.483 2.361-.242.889-.979 1.667-1.89 1.891-.673.166-1.224.16-1.895.046-.568-.098-1-.436-1.434-.786-.497-.405-.649-1.144-.568-1.741.077-.597.353-.986.772-1.34l.003-.009-.157.119c.058-.05.117-.106.177-.161a1.11 1.11 0 0 0 .05-.104 2.707 2.707 0 0 1 2.336-1.34Zm199.469-9.825a2.713 2.713 0 0 1 1.414 0c.347.082.648.241.904.478.259.168.472.385.632.655l.052.09c.37.63.428 1.349.268 2.051-.196.865-.994 1.654-1.856 1.858l-.029.005-.029.007c-.34.111-.705.127-1.054.047a1.931 1.931 0 0 1-.981-.315 3.163 3.163 0 0 1-.949-.947 1.972 1.972 0 0 1-.315-.987 1.362 1.362 0 0 1 0-.7 1.97 1.97 0 0 1 .315-.986l.414-.536.043-.035a2.651 2.651 0 0 1 1.171-.685Zm-32.622-17.163c4.248 0 4.242 6.597 0 6.597-4.247 0-4.241-6.597 0-6.597Zm-155.528-.833a2.518 2.518 0 0 1 1.339.058c.268.113.534.227.799.336l.681.526c.126.108.189.224.305.376l.146.191c.21.282.215.342.446.945a3.27 3.27 0 0 1-.805 3.143l-.092.094a2.54 2.54 0 0 1-1.078.693 1.646 1.646 0 0 1-.847.227 2.53 2.53 0 0 1-1.337-.058l-.801-.338-.681-.524-.524-.682-.169-.399-.169-.402-.119-.892a2.525 2.525 0 0 1 .288-1.293c.081-.283.224-.533.429-.74.151-.253.352-.454.605-.603.207-.209.457-.351.739-.431.261-.154.544-.227.844-.227h.001Zm210.107-4.713c.353-.014.684.061.988.222.107.037.212.082.311.134.393.23.704.541.935.931.187.298.291.619.306.966.071.313.065.629-.02.942l-.027.093a2.57 2.57 0 0 1-.37.785 2.57 2.57 0 0 1-.862.838 2.592 2.592 0 0 1-1.281.346c-.917 0-1.707-.497-2.19-1.26-.067-.105-.107-.242-.155-.353-.043-.104-.11-.236-.147-.356a2.634 2.634 0 0 1 0-1.382c.081-.338.235-.633.465-.883.184-.281.426-.505.728-.667a2.601 2.601 0 0 1 1.203-.355l.116-.001Zm-179.355-3.228a2.7 2.7 0 0 1 1.339-.029l.111.029c.356.085.665.246.93.487.294.195.532.451.702.767a2.74 2.74 0 0 1 0 2.758 2.7 2.7 0 0 1-.981.979l-.356.172a1.916 1.916 0 0 1-.959.305 1.292 1.292 0 0 1-.687 0 1.268 1.268 0 0 1-.652-.175 1.266 1.266 0 0 1-.57-.334 1.923 1.923 0 0 1-.664-.723l-.263-.62-.09-.688.09-.684.143-.338a2.733 2.733 0 0 1 1.905-1.906h.002Zm160.691-5.472c.457-.148.945-.17 1.413-.065.317 0 .615.082.891.244.302.083.56.232.781.453.385.25.687.582.911.993l.356.847c.214.548.136 1.355.007 1.908a2.624 2.624 0 0 1-.623 1.186 1.736 1.736 0 0 1-.625.626 2.612 2.612 0 0 1-1.039.583l-.109.029-.038.011c-.006.003-.012.003-.02.003-.003.003-.009.003-.012.003a2.315 2.315 0 0 1-.48.068 2.681 2.681 0 0 1-1.413-.065l-.842-.356c-.241-.182-.477-.366-.716-.552l-.554-.717a2.594 2.594 0 0 1-.418-1.317 1.764 1.764 0 0 1 0-.94c0-.321.081-.616.239-.892.141-.438.393-.832.733-1.142.239-.185.475-.37.716-.551.282-.121.563-.241.842-.357ZM99.761 306.584c.489-.134.978-.134 1.467 0l.657.276c.325.175.581.411.776.712.245.267.411.582.495.941.191.494.169 1.275.016 1.778a3.438 3.438 0 0 1-.848 1.452c-.685.708-1.734.912-2.665.698a2.31 2.31 0 0 1-.719-.311c-.702-.434-1.176-1.194-1.172-2.034 0-.09.006-.182.019-.273a2.104 2.104 0 0 1-.056-.577l.099-.733.006-.019a2.742 2.742 0 0 1 1.802-1.878l.107-.032h.016Zm244.509-72.833c-.885-7.263-4.213-15.079-14.364-10.813l-.754.282c-2.513.952-5.439 2.203-6.968 4.402-1.052 1.514-.696 4.449-.842 6.216-.661 5.748-.307 11.487.383 17.212.89 13.414-1.928 27.313-7.538 39.504 5.615 9.093 13.129 17.575 23.379 21.364.434-10.337 2.455-20.487 4.607-30.575l.086-.44c.861-4.549 1.292-9.219 4.276-13.002 6.071-6.597 14.422-2.863 18.417-13.463-.839-.425-.375-1.878.637-1.599 3.504.623 4.073-5.879 1.675-7.446-2.5-1.526.017-4.34-1.048-6.372-.592-.875-1.873-.904-2.452-1.914-1.539-3.712 6.158-6.092-2.893-10.279-1.853-.66-3.923-.25-5.791-.258-2.749.257-4.933 2.196-7.447 2.806 2.738 7.093-4.168 13.924-10.401 8.258-3.392 3.209-7.185 10.523 1.061 7.113 4.034-2.695 7.508-6.18 12.193-7.841l.098-.03c1.74-.57 9.348-4.271 8.971-1.069-2.85 2.755-7.55 2.721-10.851 4.957-4.577 2.118-7.503 7.252-12.982 7.181-1.263 7.676 7.439 3.005 10.68.888l.899-.488c4.57-2.472 9.211-4.762 14.541-4.792 1.471-.009 1.465 2.26 0 2.28-6.946.043-12.601 4.391-18.42 7.623-.574 4.479 5.981 2.518 8.469 1.857 2.609-.367 6.798-3.191 9.08-1.699.892 2.296-3.036 2.125-4.404 2.822 6.244 3.002.773 4.893-.901.279l-.49.168c-4.182 1.405-14.322 4.301-13.115-2.789-1.53.679-3.397 1.084-5.089.708-4.216 6.243-10.943 3.827-1.165-.428-2.204-1.027-2.941-4.988-.824-6.461-7.696-.471-1.982-8.554 1.204-11.248a18.91 18.91 0 0 1-.863-.928 16.988 16.988 0 0 1-5.833 1.594c-1.976.18-2.417-3.187-.467-3.463 2.091-.295 4.016-.854 5.856-1.905 2.789-1.205 3.741 3.976 6.532 4.159 1.523.302 2.553-1.034 2.858-2.371Zm-64.799 66.845c.675 0 1.273.282 1.762.73.489.447.701 1.119.73 1.76.012.344-.058.666-.215.964a1.862 1.862 0 0 1-.515.801 2.582 2.582 0 0 1-1.762.731c-.674 0-1.273-.283-1.763-.731-.489-.451-.7-1.119-.73-1.765-.014-.333.06-.664.215-.959.091-.278.238-.523.443-.733l.072-.068a2.567 2.567 0 0 1 1.763-.73Zm20.422-15.382.108.001a3.139 3.139 0 0 1 1.591.432c.213.165.428.328.638.494a3.138 3.138 0 0 1 .811 3.071 2.19 2.19 0 0 1-.36.902 3.148 3.148 0 0 1-1.115 1.111 3.076 3.076 0 0 1-1.565.425 3.115 3.115 0 0 1-2.676-1.536 2.15 2.15 0 0 1-.363-.902 3.135 3.135 0 0 1 .728-2.987l.081-.084a2.352 2.352 0 0 1 1.014-.654 2.365 2.365 0 0 1 1.108-.273Zm-155.859.173c.235-.064.483-.064.717 0 .358.017.691.123.997.318l.546.422.158.19c.338.413.347.482.606 1.111.108.35.123.7.046 1.05 0 .238-.061.457-.179.661a1.3 1.3 0 0 1-.339.582 1.318 1.318 0 0 1-.471.473c-.252.23-.551.389-.894.471l-.697.093c-.09-.012-.184-.026-.276-.035a2.022 2.022 0 0 1-.319-.035l-.104-.023-.097-.026a1.993 1.993 0 0 1-.369-.149 1.37 1.37 0 0 1-.594-.347 2.033 2.033 0 0 1-.693-.757l-.046-.104a1.821 1.821 0 0 1-.153-.347 1.284 1.284 0 0 1-.168-.626 1.887 1.887 0 0 1 .017-.887l.029-.098.249-.594c.13-.201.267-.405.44-.571.107-.093.364-.295.508-.394l.089-.06a2.02 2.02 0 0 1 .997-.318Zm-39.065-4.638c.468-1.84 2.879-2.42 4.192-1.106 1.311 1.314.732 3.728-1.104 4.194l-.212.052a2.408 2.408 0 0 1-2.926-2.932l.052-.208h-.002Zm222.408-15.001c-.014-.182.22-.247.336-.139 1.563 1.401 2.557 3.081 4.453 4.168 1.906 1.089 3.869 1.002 5.855 1.705a.718.718 0 0 1 .507.69.723.723 0 0 1-.507.689c-3.759 1.314-10.359-3.139-10.644-7.113Zm-176.613-.285a2.39 2.39 0 0 1 1.257-.055c.286 0 .553.07.793.213.27.075.5.212.698.405.236.141.425.332.568.568.277.305.466.663.563 1.071l.11.84-.11.841c-.108.248-.215.501-.318.752l-.29.392c-.234.313-.271.317-.84.74-.364.23-.755.356-1.174.373a1.553 1.553 0 0 1-.839 0 1.56 1.56 0 0 1-.794-.215 1.582 1.582 0 0 1-.696-.405 2.391 2.391 0 0 1-.81-.885 64.657 64.657 0 0 1-.318-.752l-.113-.841.113-.84.006-.026c.149-.525.415-.982.798-1.369l.629-.486a2.92 2.92 0 0 1 .767-.321Zm151.26.629a2.635 2.635 0 0 1 2.54.671c.66.66.919 1.642.672 2.54a2.626 2.626 0 0 1-2.621 1.921 2.54 2.54 0 0 1-1.264-.344l-.506-.393a1.867 1.867 0 0 1-.518-.807 1.87 1.87 0 0 1-.217-.967l-.003-.061a.932.932 0 0 1 .045-.367c0-.127.02-.25.052-.37a2.63 2.63 0 0 1 1.82-1.823Zm-193.496-8.783c.288-.01.556.048.806.181.26.082.492.232.674.435.207.188.349.416.434.675.133.25.191.519.181.807 0 .379-.097.734-.284 1.058l-.331.425c-.26.262-.568.44-.924.541l-.207.071a1.88 1.88 0 0 1-.92.075 1.869 1.869 0 0 1-.914-.344 1.74 1.74 0 0 1-.632-.632l-.178-.422a2.87 2.87 0 0 1-.064-.506c0-.023 0-.042-.005-.065 0-.126.04-.434.072-.561.071-.266.216-.519.384-.732.141-.225.335-.399.575-.53l.021-.015.025-.017c.073-.052.153-.105.23-.16a2.076 2.076 0 0 1 1.055-.284h.002Zm167.325-2.303c.518 0 1.001.133 1.448.393a.305.305 0 0 1 .046.02 2.846 2.846 0 0 1 1.409 2.458 2.856 2.856 0 0 1-1.409 2.459.211.211 0 0 1-.046.021 2.869 2.869 0 0 1-2.895 0 2.892 2.892 0 0 1-1.421-2.48c0-1.013.547-1.97 1.421-2.478a2.84 2.84 0 0 1 1.447-.393Zm-134.565-3.751.089-.001a1.83 1.83 0 0 1 .959.216c.307.101.576.273.803.516l.474.396.138.112c.023.018.045.037.066.056.318.321.534.697.658 1.133.039.25.071.496.097.746.071.647-.311 1.313-.733 1.774a1.92 1.92 0 0 1-.805.519 1.899 1.899 0 0 1-.967.213c-.704-.062-1.371-.21-1.875-.755-.06-.065-.115-.134-.172-.201l-.405-.467a2.495 2.495 0 0 1-.64-1.1l-.09-.665c-.029-.664.294-1.287.73-1.761.4-.438 1.081-.706 1.673-.731Zm-16.356-6.829c3.37 0 3.364 5.232 0 5.232-3.366 0-3.358-5.232 0-5.232Zm169.43-7.336.106.002a3.084 3.084 0 0 1 1.563.425l.627.483c.383.39.649.843.797 1.369.036.275.073.551.111.824.017.429-.075.828-.269 1.197a2.329 2.329 0 0 1-.639.998 2.29 2.29 0 0 1-.997.64 2.316 2.316 0 0 1-1.193.268 3.076 3.076 0 0 1-1.565-.425l-.629-.483a3.122 3.122 0 0 1-.757-1.248l-.037-.119-.114-.828a2.347 2.347 0 0 1 .27-1.193c.123-.387.338-.717.638-1a2.32 2.32 0 0 1 .999-.638c.337-.18.701-.27 1.089-.272Zm-15.178-9.794c.301-.009.58.052.842.189.268.088.502.239.699.451.419.333.675 1.002.675 1.544s-.256 1.209-.675 1.544c-.266.267-.598.46-.961.56l-.58.078c-.564.026-1.138-.268-1.54-.638-.081-.075-.158-.149-.239-.221-.367-.338-.525-.841-.548-1.323a1.43 1.43 0 0 1 .161-.72 1.41 1.41 0 0 1 .387-.604c.081-.071.158-.146.239-.22a2.359 2.359 0 0 1 1.54-.64Zm96.166-17.446c2.128-2.596.889-4.444-2.312-3.801-5.51.746-10.698 4.233-15.552 6.733-5.299 2.8-10.759 5.112-16.164 7.743 2.23 1.371 3.888 3.516 5.156 5.964 2.528-1.923 5.761-2.842 8.918-2.962 5.725-5.488 15.207-6.745 19.954-13.677Zm-251.551 8.619a3.416 3.416 0 0 1 1.626.41l.107.06.693.538c.338.312.574.68.714 1.105.214.41.311.854.294 1.328.02.459-.082.915-.294 1.323-.14.428-.376.795-.714 1.106a2.02 2.02 0 0 1-.731.588 53.22 53.22 0 0 0-.824.345c-.307.098-.664.111-.997.127a3.36 3.36 0 0 1-1.696-.46l-.68-.525a2.53 2.53 0 0 1-.697-1.085 2.509 2.509 0 0 1-.292-1.181l.003-.116c0-.026 0-.055.005-.084.038-.305.081-.609.123-.915.107-.448.311-.839.615-1.171.074-.15.181-.282.314-.385a3.433 3.433 0 0 1 1.517-.887c.304-.038.609-.08.914-.121Zm150.348-8.594.098.002c.437 0 .842.11 1.22.326l.487.379c.303.303.51.659.623 1.069l.087.641a1.84 1.84 0 0 1-.21.932 1.802 1.802 0 0 1-.5.778 1.783 1.783 0 0 1-.776.5 1.802 1.802 0 0 1-.931.207 2.36 2.36 0 0 1-1.217-.331c-.163-.123-.329-.25-.49-.376a2.403 2.403 0 0 1-.589-.966l-.03-.101-.088-.643a1.821 1.821 0 0 1 .207-.93c.097-.298.269-.567.5-.78.212-.23.48-.402.778-.498.259-.137.537-.206.831-.209Zm-131.409-3.513.113.002a3.55 3.55 0 0 1 1.802.489c.24.184.48.37.72.559.444.443.748.968.92 1.576l.126.947c.02.492-.085.95-.307 1.375a2.641 2.641 0 0 1-.739 1.151 2.642 2.642 0 0 1-1.148.737 2.657 2.657 0 0 1-1.374.308 3.537 3.537 0 0 1-1.802-.486c-.239-.186-.479-.373-.721-.559a3.636 3.636 0 0 1-.919-1.576l-.125-.95a2.681 2.681 0 0 1 .306-1.375 2.68 2.68 0 0 1 .737-1.148 2.628 2.628 0 0 1 1.15-.741 2.7 2.7 0 0 1 1.261-.309Zm119.981-8.918c.296-.078.591-.078.885 0 .44.019.853.152 1.235.395l.67.52c.009.009.02.018.029.032.405.408.687.892.842 1.446l.118.873c.016.451-.078.872-.282 1.262a2.506 2.506 0 0 1-.6.982l-.107.104a2.48 2.48 0 0 1-1.066.688 1.625 1.625 0 0 1-.839.227c-.439.1-.897.08-1.325-.059a62.958 62.958 0 0 0-.794-.334l-.085-.048c-1.001-.548-1.619-1.697-1.619-2.822 0-1.126.618-2.277 1.619-2.825.029-.012.055-.029.085-.046a2.469 2.469 0 0 1 1.234-.395Z" fill="#000"/><path fill-rule="evenodd" clip-rule="evenodd" d="M259.608 26.846c-17.325-5.088-76.91.128-78.382 1.231-2.411 2.004-14.14 8.369-15.965 9.822-16.501 17.506-.77 43.502-1.98 64.622.077 7.491-3.113 14.331-4.578 21.537-.62 3.777-.483 7.683 1.483 11.074 3.459 6.059 10.759 7.287 16.698 9.73 2.954 1.274 5.715 3.079 8.245 5.055 17.04 15.087 26.523 25.419 51.385 22.016.128 1.188 1.18 2.354 2.483 1.823 3.053-1.243 6.083-2.562 9.161-3.743.658 1.589 2.55 2.041 3.83.639l.008.011c5.699-4.629 9.324-10.956 12.015-17.73a74.367 74.367 0 0 0 4.606-12.185 2.14 2.14 0 0 0-.005-1.265c5.439-18.761 7.451-38.535 6.02-58.014-.289-4.02-1.049-8.092-.862-12.127.169-3.646 1.738-7.096 2.935-10.492 6.168-14.437-3.261-27.458-17.097-32.004Z" fill="#FDFBF5"/><path fill-rule="evenodd" clip-rule="evenodd" d="m261.788 3.406.184-.142c1.998-1.57 3.882-3.625 6.698-2.855 2.311.633 3.477 2.548 3.972 4.859a50.507 50.507 0 0 0 2.055-2.287c1.815-2.14 5.869-1.03 6.41 1.698 1.095 5.494 1.15 11.086.084 16.59a35.258 35.258 0 0 1-.576 2.485 45.28 45.28 0 0 0 3.358-4.759c1.1-1.807 3.582-.911 3.754 1.018.044.5.07 1.005.078 1.515.774.273 1.308 1.07 1.104 2.05a148.291 148.291 0 0 1-4.274 15.931c2.76-1.466 5.855-2.334 8.768-1.3 4.627 1.648 5.73 6.7 4.825 11.05-1.136 5.47-4.715 10.045-9.328 13.046a73.14 73.14 0 0 0-1.604 2.501 19.296 19.296 0 0 1-1.319 6.989c-.985 2.487-2.723 4.64-4.861 6.273-.751 1.638-2.742 2.835-4.489 2.504l-.092-.019-.003.003a71.818 71.818 0 0 1 1.165 4.842c2.585 12.566 1.277 25.644-1.081 38.137l-.075.399c-2.117 11.119-4.578 22.633-9.365 32.957-4.328 9.335-11.667 17.544-22.156 19.58-12.339 2.397-25.997-1.401-36.609-7.734-3.847-2.298-.321-8.349 3.509-6.015a54.243 54.243 0 0 0 17.883 6.959c5.936 1.154 12.575 1.546 18.269-.848 7.929-3.334 12.641-11.479 15.621-19.146 1.756-4.524 3.072-9.195 4.297-13.885 1.577-6.03 3.049-12.098 4.154-18.235 2.058-11.445 2.725-23.333.547-34.812a71.066 71.066 0 0 0-2.955-10.888 6.095 6.095 0 0 1-.563-.833c-1.339-2.348-2.262-5.019-3.258-7.559a54.753 54.753 0 0 0-2.834-4.395 39.531 39.531 0 0 1-4.27-3.761c3.83-2.483 7.21-5.59 9.641-9.55.402-.652.147-1.277-.328-1.628-1.942 2.43-4.456 4.49-7.1 6.315a34.323 34.323 0 0 1-4.342 3.146 40.621 40.621 0 0 1-3.267.488c-3.049.346-6.115.216-9.147-.19-6.558-.874-34.295-8.521-45.986-5.548-2.436.618-3.585 2.805-4.874 4.858a15.693 15.693 0 0 1-4.249 4.481l-.19.134c-3.338 2.313-10.048 9.63-12.87 16.16-3.641 8.43-7.139 33.693-5.529 33.911 4.212.571 6.546 2.788 9.977 5.17.227.155.094.577-.198.47-2.265-.818-4.714-1.302-7.09-1.696-2.147-.361-4.41-.425-6.483.344-3.183 1.18-4.735 3.848-5.373 6.859a18.52 18.52 0 0 0-.373 3.622v.353c0 3.835.715 8.086 3.497 10.916a7.782 7.782 0 0 0 4.465 2.238c1.837.247 2.971-.584 4.659-1.015 1.945-.497 3.461.784 3.28 2.456.411.359.809.738 1.205 1.125v.001l.003.002c.259.116.506.273.73.46.365.312.674.652.92 1.019.548.107 1.073.411 1.504.97a48.96 48.96 0 0 1 2.469 3.484 324.365 324.365 0 0 1 4.06 4.378c1.61 1.774 3.179 3.588 4.757 5.391l.79.901c.851.97 1.701 1.94 2.549 2.913l.255.285c.853.958 1.508 1.664 1.6 3.042.064 1.022-1.034 1.715-1.945 1.482-1.404-.362-2.055-1.465-2.896-2.56l-1.271-1.631-1.195-1.536c-.594-.766-1.193-1.529-1.789-2.29-.179 1.404-1.662 2.535-3.016 2.598l-.316.013c-3.181.106-7.046-.344-9.467-2.589a9.778 9.778 0 0 1-4.112 2.484c-3.791 1.182-7.667-.91-9.199-4.093a14.109 14.109 0 0 1-9.54.594c-1.853-.543-2.492-2.854-1.202-4.268l.058-.062.015-.017a2.184 2.184 0 0 1-.437-1.233c-.029-.561.381-1.155.296-1.68-.322-1.997-3.576-.517-4.61-.084a1.595 1.595 0 0 1-.555.127c-1.6.466-3.339-1.636-2.5-3.373 1.874-3.878 3.705-7.787 5.604-11.66-.24.082-.483.154-.729.217-3.412.877-7.55-.804-6.763-4.92.182-.966 1.058-1.628 1.924-1.927 1.692-.583 2.962-.161 4.264-.706 1.47-.611 3.002-1.73 4.292-2.784a22.468 22.468 0 0 0 3.619-3.752c.422-1.989 1.151-3.889 2.316-5.523.072-.099.143-.195.218-.29-7.48-1.785-6.502-9.15-9.801-15.675l-.279-.542c-2.241-4.364-4.196-9.288-3.067-14.258.202-.88.494-1.72.869-2.505-.598.075-1.202.143-1.802.212-1.377.155-2.776-1.622-2.228-2.93a22.466 22.466 0 0 1 4.448-6.821c-2.313-.062-4.629-.062-6.918-.327-2.162-.25-4.432-1.433-4.366-3.929.067-2.377 2.152-4.177 4.084-5.337a23.299 23.299 0 0 1 7.045-6.202 13.635 13.635 0 0 0-1.641-.267l-.281-.024c-1.558-.123-2.957-.553-4.371-1.203-1.264-.584-1.243-2.356-.417-3.248 2.671-2.891 6.673-1.949 9.788-.293a8.468 8.468 0 0 0-.713-.795l-.158-.15c-1.531-1.427.767-3.714 2.291-2.293.482.448.913.936 1.298 1.453l.036-.076c2.016-4.09 4.962-7.75 8.448-10.686l.819-.681c6.289-5.257 8.227-7.749 16.588-6.974-.356-1.52-.322-3.23-.241-4.638l.011-.188c.32-5.287 2.268-11.616 7.42-13.99 1.339-.614 2.854.39 2.498 1.924a25.733 25.733 0 0 1-.934 3.172 35.687 35.687 0 0 1 3.608-3.308c5.204-4.153 12.158-7.723 18.998-6.556 3.758.646 6.707 3.008 9.853 4.98 3.163 1.984 6.695 3.16 10.399 3.586 5.175.597 10.368-.003 15.484-.951 3.516-1.534 6.928-3.33 10.26-5.266a56.977 56.977 0 0 0 5.923-3.929Zm-91.874 114.829a7.12 7.12 0 0 1 3.421-.003c2.835.713 5.473 3.087 5.638 6.081.074 1.352-1.013 2.648-2.277 2.994-1.433.396-2.664-.305-3.5-1.427-.897-1.2-1.121-2.501-2.219-3.591l-.254-.247c-.935-.893-2.346-2.049-3.642-1.841-.19.029-.333-.231-.138-.335 1.055-.577 1.748-1.32 2.971-1.631Zm14.727-14.099c.5-.408 1.161.071.925.66l-.019.041c-.592 1.251.104 2.721.824 3.769.618.904-.551 1.764-1.374 1.375-2.313-1.1-2.194-4.353-.356-5.845Zm8.457-37.614c-.043-.306.363-.431.466-.13 1.727 5.018 2.222 9.46 1.942 14.767l-.028.471c-.305 5.11-1.199 10.52-4.288 14.718-.717.97-2.181.399-1.945-.82.949-4.882 2.773-9.516 3.483-14.456.742-5.164 1.075-9.385.37-14.55Zm-16.132 18.237c.253-1.34 2.311-2.717 3.351-1.371.35.457-.061 1.018-.483 1.187-.396.155-.749-.058-1.138.019a1.026 1.026 0 0 0-.696.53l-.033.058c-.305.583-1.109.148-1.001-.422Zm-.842-10.67c.739-1.369 2.44-2.24 3.894-1.389.48.283.291 1.104-.291 1.078l-.346-.016c-1.036-.037-2.075-.015-2.946.642-.195.145-.408-.13-.311-.315Zm2.596-37.38c-4.144-1.865-8.265-.182-11.648 2.444-.281.216-.416.471-.445.726 2.258-.881 4.664-1.458 6.963-1.934a38.268 38.268 0 0 1 5.678-.758 1.128 1.128 0 0 0-.548-.479Z" fill="#000"/><path fill-rule="evenodd" clip-rule="evenodd" d="M236.981 148.769a13.19 13.19 0 0 1-5.543-4.268 2.576 2.576 0 0 1-.519-1.99c.117-.717.54-1.365 1.117-1.8.578-.436 1.302-.651 2.002-.542.608.095 1.213.428 1.693 1.12l.099.138a8.73 8.73 0 0 0 3.2 2.687 7.202 7.202 0 0 0 3.96.697c2.666-.301 4.502-1.743 6.454-3.703.242-.247.485-.502.727-.761a1.14 1.14 0 0 1 .604-.465 1.324 1.324 0 0 1 1.488.509c.149.22.235.491.207.804-.179 2.031-1.239 3.842-2.745 5.264-1.674 1.581-3.891 2.674-5.979 3.057-2.299.422-4.643.12-6.765-.747Zm7.851-31.319c2.446 1.49 6.175 4.961 3.543 8.652-3.1 3.254-7.56-.477-9.758-2.165-2.038-1.308-4.329 2.056-2.438 3.583 15.886 11.773 22.332-9.68 9.891-11.82-1.371-.236-1.879 1.29-1.238 1.75Zm-28.466-13.694c.27-3.359 5.38-4.122 5.889-.798.454 2.978-.081 5.714-1.421 8.395-1.28 2.56-4.497 1.366-4.741-.967-.327-3.126.104-4.539.273-6.63Zm38.903-1.487c.713-.934 1.742-1.571 2.974-1.212 3.851 1.128 2.716 6.6 1.364 9.265-.735 1.445-3.111 1.812-4.185.538-1.748-2.076-2.587-6.224-.361-8.272.059-.104.127-.211.208-.319Zm-34.489-13.21.609-.107c1.882-.326 4.221-.639 5.552.874.707.805.949 2.298 0 3.067-1.669 1.35-3.515.828-5.515.942-1.633.093-3.25.37-4.821.822-3.485.998-6.324 2.817-9.299 4.815-.39.26-.788-.238-.603-.603 1.718-3.369 5.046-6.135 8.381-7.821 1.78-.9 3.727-1.647 5.696-1.989Zm30.978-1.508.467.095c5.067 1.058 11.65 3.176 14.049 8.16.092.704-.005.854-.083.952l-.026.034c-.066.084-.117.2-.422.296a13.5 13.5 0 0 1-.258-.064c-1.099-.289-1.969-.686-2.811-1.099l-.914-.45c-1.06-.521-2.129-1.022-3.262-1.391a38.38 38.38 0 0 0-7.43-1.643 3.05 3.05 0 0 1-1.491-.567 2.244 2.244 0 0 1-.834-1.27c-.178-.716-.126-1.258.258-1.906a2.412 2.412 0 0 1 1.176-1.014 2.756 2.756 0 0 1 1.581-.133Z" fill="#000"/></svg>