<svg width="460" height="440" fill="none" xmlns="http://www.w3.org/2000/svg"><path fill-rule="evenodd" clip-rule="evenodd" d="M359.127 275.44c-1.258-3.451.578-6.894 1.597-10.233 3.617-11.577 7.568-23.156 13.155-33.953 2.117-3.614-1.366-8.043-5.402-7.025-6.907.967-14.03.197-20.95-.231-2.531-6.545-9.286-9.262-14.603-13.032-6.032-3.763-11.899-8.089-18.174-11.388-.348-3.119-4.131-3.892-6.443-1.662-6.352-3.95-13.97-3.216-20.779-5.805-5.174-8.361-5.562-17.154-6.931-25.219-.599-3.517.036-6.909-2.368-10.044-8.072-11.352-39.968-16.275-51.729-9.548-6.33-3.947-6.483 3.203-7.487 7.615-1.119 2.207-1.723 4.708-1.536 7.341-6.799 14.2-22.356 20.619-36.288 25.821-1.748-1.683-4.246-1.469-5.909-.078-12.075 2.624-23.795 7.239-33.914 14.443-11.495 3.362-19.589 12.709-25.444 22.732-.644 1.056-.797 2.133-.609 3.123-18 26.383-26.591 57.968-27.8 89.867-11.575 6.947 5.502 69.348 9.48 82.303l.01-.006c2.58 4.566 5.508 17.595 11.963 16.586 4.428 5.007 11.485 4.022 17.492 4.406-.977 3.754-.496 8.049.669 11.757 1.377 4.414 8.138 4.564 9.097-.25 59.837 11.625 121.231 2.351 181.74 4.095 17.496.125 34.989.666 52.443 1.912 2.457.176 4.949-2.336 4.781-4.782-3.752-39.915-7.275-92.424-11.472-131.948-.994-9.014-1.782-18.126-4.589-26.797Z" fill="#FDFBF5"/><path fill-rule="evenodd" clip-rule="evenodd" d="M219.998 149.763c.173-.468.872-.405.885.119.276 11.223-2.519 24.939-11.5 32.518-4.612 3.892-10.707 5.673-16.305 7.719l-.631.233-9.892 3.684c-2.623.978-5.452 2.481-7.769 1.099 1.875 4.649 3.449 9.427 5.733 13.907 2.841 5.577 6.279 10.68 10.485 15.321 16.663 18.386 43.036 23.995 66.703 18.608 12.185-2.775 24.045-8.032 32.36-17.621 6.318-7.29 9.948-17.072 10.804-26.722a2.1 2.1 0 0 1-.782-.021c-2.994-.653-6.017-2.258-8.651-3.833l-.254-.152c-2.536-1.525-5.178-3.274-6.998-5.644-1.807-2.355-3.703-10.034-3.703-10.034-.517-2.887-1.002-8.638-.918-11.555.007-.276 1.229-.439 1.359-.153 1.129 2.478 1.495 7.92 2.366 10.498l.174.515c.932 2.692 1.729 5.97 3.657 8.145 3.624 4.087 9.088 5.817 13.964 7.867.351-4.619 7.728-4.511 7.635.306-.006.262-.017.521-.027.782.584.32 1.142.685 1.665 1.038l.512.346c1.931 1.314 3.878 2.563 5.935 3.678 3.981 2.158 8.199 3.869 12.279 5.828a62.605 62.605 0 0 1 11.594 7.17 59.88 59.88 0 0 1 4.856 4.244l.417.411c1.466 1.459 3.373 3.091 4.208 5.009.184.424 1.106 1.406 1.606 1.44 7.754.507 15.489 1.225 23.194 2.302 1.994.278 2.784 1.306 2.045 2.968-2.532 5.713-12.451 28.524-15.089 34.645.309 4.498-.108 9.794.17 14.292.406 6.564.938 13.127 1.574 19.675 2.283 23.418 5.739 46.722 8.864 70.038 1.562 11.67 2.989 23.355 4.396 35.044a429.393 429.393 0 0 1 2.301 25.173l.132 2.194c.186 2.762.608 5.4-1.102 7.77-.774 1.075-2.545 1.681-3.564.46-1.28-1.535-1.758-2.684-1.879-4.7-.095-1.544-.117-3.097-.187-4.641a468.75 468.75 0 0 0-.567-10.05 934.35 934.35 0 0 0-1.549-20.06c-2.07-23.425-6.008-46.673-8.627-70.041a510.053 510.053 0 0 1-2.756-35.428 342.206 342.206 0 0 1-.28-17.751c.023-2.211.127-4.412.279-6.608a646.937 646.937 0 0 1-12.364 26.451l-1.023 2.063c-2.733 5.505-5.54 11.032-8.824 16.222l-.566.884c-1.33 2.109-3.148 5.433-5.576 6.099-1.691.464-3.755.137-5.49.104-1.72-.034-3.442-.039-5.161-.109a25.213 25.213 0 0 1-5.631-.835 6.019 6.019 0 0 1-.869-.288c-1.877 3.072-5.068 5.412-8.33 6.775-2.612 1.09-5.35 1.84-8.093 2.532l-.967.243c-2.94.732-6.303 1.081-7.962 3.92l-.385.657c-1.233 2.095-2.415 3.933-4.456 5.434-2.196 1.617-4.798 2.633-7.391 3.425-2.653.81-5.369 1.431-8.064 2.095l-.735.182c-1.778.445-3.574.853-5.343 1.338-.76.2-1.515.425-2.261.674-.867.297-1.496.763-2.18 1.268-.615 2.147-3.242 3.313-5.401 3.163a6.766 6.766 0 0 1-3.078-1.028c-1.617 1.376-3.396 2.609-5.044 3.883a738.987 738.987 0 0 1-21.479 16 562.014 562.014 0 0 1-26.557 17.85 710.889 710.889 0 0 1-11.365 7.078l.407.149.809.307c1.913.714 4.043 1.866 4.413 4.098.295 1.768-.694 2.987-2.44 3.203-2.077.257-3.693-1.21-4.986-2.611-.569-.617-1.209-1.19-1.756-1.826a3.904 3.904 0 0 1-.544-.873 242.962 242.962 0 0 1-11.456 6.379l-.968.498c-9.602 4.91-18.949 10.288-28.633 15.058-2.524 1.244-5.606 2.59-8.814 3.508.852 3.301.837 6.926.86 10.276.019 3.265-5.171 3.25-5.061 0l.053-1.569c.095-2.639.248-5.378.875-7.946-9.458 1.569-18.907-1.84-20.666-2.864-1.942-1.129-3.705-2.934-5.171-4.612-3.14-3.587-5.318-7.887-7.25-12.212-4.14-9.264-7.074-19.166-9.218-29.07-7.905-36.512-4.505-75.59 8.334-110.59a210.6 210.6 0 0 1 11.333-25.541l.54-1.018c4.329-8.151 9.142-16.271 15.256-23.209 6.367-7.223 14.223-12.843 22.774-17.204a121.635 121.635 0 0 1 12.858-5.607c.705-.263 1.415-.5 2.127-.723 4.574-2.917 10.125-5.705 15.678-5.596.339.001.665.132.911.366.269.047.536.104.803.181.593.173 1.218.82 1.133 1.486l-.029.222a1.78 1.78 0 0 1-.07.314c.199.03.394.078.585.142 5.313-1.499 10.54-3.793 15.726-5.645l1.18-.416c4.342-1.522 8.799-3.014 12.36-6.025 3.545-2.995 6.21-6.875 8.136-11.07 2.373-5.167 3.435-10.767 5.384-16.072Zm106.379 272.571c1.051-.782 2.296.126 2.69 1.094 1.291 3.18.653 8.118-1.169 10.929-1.886 2.911-6.405 1.762-6.515-1.766-.114-3.676 2.024-8.047 4.994-10.257Zm10.866-87.768c.094-.413.736-.409.833 0 .875 3.729.856 7.745 1.112 11.569l.03.424c.309 4.218.568 8.446.752 12.671a1681.282 1681.282 0 0 0 2.059 37.281 23.795 23.795 0 0 1 2.676-1.278c1.38-.557 2.725-.621 4.21-.606a2.978 2.978 0 0 1 2.928 3.379c-.261 1.927-1.958 2.752-3.722 2.478-1.952-.305-3.912-.778-5.884-.975.22 3.182.445 6.366.686 9.546.32 4.21.734 8.416 1.028 12.627.027.402.057.805.087 1.208 1.176-.611 2.424-.924 3.839-1.31l.369-.102c2.053-.591 4.252-1.406 6.154-.025 1.276.928 1.532 2.457.473 3.682-1.604 1.857-3.981 1.497-6.197 1.403l-1.193-.044c-1.125-.043-2.161-.115-3.201-.399.192 2.743.292 5.499-.045 8.202-.182 1.461-2.106 1.845-2.616.354-1.331-3.896-1.606-8.098-2.092-12.179-.455-3.813-.731-7.651-1.029-11.481l-.091-1.147a773.991 773.991 0 0 1-1.596-25.291c-.39-8.436-.63-16.878-.72-25.323-.044-3.835.021-7.685.17-11.52l.048-1.151c.172-3.943.053-8.128.932-11.993Zm-175.824 88.39c.051-.539.483-1.209 1.125-1.124.591.076 1.201.04 1.786.136.773.129 1.396.585 2.113.873 1.169.467 2.442.708 3.641 1.09 2.248.718 3.473 3.084 2.541 5.293-.979 2.324-3.439 2.85-5.564 1.876-1.676-.769-2.926-1.997-4.053-3.417l-.318-.407c-.487-.61-1.038-1.291-1.241-2.031-.199-.721-.1-1.556-.03-2.289Zm109.233-10.922c2.801-.393 5.193.562 7.784 1.465l.21.074c2.636.911 6.485 1.539 7.837 4.238.815 1.628.182 3.79-1.737 4.271-3.039.763-5.765-1.46-8.278-2.955l-.133-.078c-2.424-1.419-4.928-2.614-6.477-5.065-.413-.653-.055-1.83.794-1.95Zm-97.76-222.672a105.49 105.49 0 0 1-3.363.687c-4.264 2.285-8.402 4.655-12.803 6.692-4.671 2.159-9.324 4.389-13.762 7.003-8.962 5.278-16.35 12.141-22.454 20.555-10.546 14.532-18.39 31.292-24.006 48.295a202.928 202.928 0 0 0-3.875 13.243c2.019-1.868 4.41-3.015 7.09-3.998 1.137-.416 2.55.288 3.126 1.272.259.441.405.879.379 1.395-.061 1.144-.805 2.444-2.032 2.669-2.864.528-5.65 1.556-8.41 2.459a1.28 1.28 0 0 1-1.066-.076 197.83 197.83 0 0 0-5.064 35.379c-.509 10.121-.2 20.267.922 30.339.858-.386 1.699-.75 2.64-.967a43.454 43.454 0 0 0 3.616-1.021c3.44-1.128 5.007 4.547 1.492 5.412a41.87 41.87 0 0 1-3.958.786c-1.161.17-2.188.094-3.282-.084a189.97 189.97 0 0 0 3.433 18.681l.322 1.346c1.89 7.86 4.095 15.791 7.283 23.217 1.562 3.643 3.632 7.102 6.187 10.14 1.256 1.493 2.652 2.773 4.171 3.986 1.263 1.011 5.564 3.201 10.659 3.201 5.092 0 6.471-.483 9.041-1.367 5.082-1.749 9.906-4.541 14.673-7.028l.492-.255a563.221 563.221 0 0 0 6.301-3.313c-.265-2.133.199-3.926 1.311-5.898 1.202-2.132 4.182-1.07 4.403 1.111l.008.083c.034.492.115.994.218 1.494 14.001-7.668 27.706-15.874 41.193-24.424a809.27 809.27 0 0 0 25.75-17.019 586.818 586.818 0 0 0 19.087-13.718c.898-.672 1.778-1.378 2.678-2.054-.215-.27-.428-.543-.638-.818-3.362-4.401-5.542-9.646-6.629-15.058-.657-3.265-.974-6.655-1.07-9.983l-.042-1.448c-.066-2.44-.085-4.991.366-7.356-.612.337-1.237.667-1.86 1.019a2127.1 2127.1 0 0 1-6.714 3.788 534.279 534.279 0 0 1-13.548 7.391c-8.142 4.267-16.363 8.323-24.808 11.96l-4.108 1.769c-7.131 3.067-14.318 6.078-21.733 8.358a185.391 185.391 0 0 1-12.637 3.365l1.714 2.008c1.163 1.363 1.184 3.317-.303 4.464-1.46 1.128-3.42.659-4.393-.839l-1.777-2.729a4.893 4.893 0 0 1-.716-1.706c-1.956.409-3.915.802-5.877 1.181l-3.712.708c-5.303 1.024-10.445 3.05-15.186 5.643-1.647.901-2.106-.85-.359-2.069 5.104-3.568 11.058-5.588 17.202-7.282l.301-.083a333.087 333.087 0 0 0 6.75-1.927 9.502 9.502 0 0 1-.361-2.841c.062-2.276.265-4.56.384-6.834.254-4.773.578-9.532.957-14.297.145-1.836.31-3.676.496-5.516-1.203-.645-2.243-1.501-3.584-1.923l-.227-.066c-1.435-.386-.951-2.235.324-2.394a10.268 10.268 0 0 1 3.443.166c.176.04.343.082.504.131.208-1.704.441-3.404.705-5.092.697-4.465 1.191-9.167 2.642-13.457.108-.318.579-.431.753-.098 2.112 4.017 2.186 8.944 2.425 13.417l.028.535c.28 4.88.297 9.807.208 14.693a570.944 570.944 0 0 1-.492 15.092c-.091 2.025-.087 4.127-.434 6.065 12.568-4.085 24.913-8.974 36.746-14.763 8.35-4.084 16.62-8.33 24.803-12.737 4.099-2.207 8.216-4.38 12.311-6.595 1.436-.778 2.869-1.556 4.301-2.338l2.15-1.171c2.011-1.096 3.689-2.189 6.032-2.266a2.296 2.296 0 0 1 1.769.799c1.258-.892 2.714-1.441 4.24-1.428a288.003 288.003 0 0 1 7.059-9.402l1.792-2.279c3.102-3.935 6.388-7.927 10.345-10.922 1.767-1.336 3.708-2.337 5.734-3.166a3.033 3.033 0 0 1-1.359-.737c-1.934-1.792-2.201-5.124-2.595-7.626-.407-2.595-.25-4.918.153-7.506.157-1.005 1.822-1.215 2.229-.291.857 1.948 1.764 3.812 2.542 5.781l.231.594c.837 2.217 2.619 4.549 2.5 6.953a3.059 3.059 0 0 1-.593 1.694c1.701-.564 3.425-1.068 5.123-1.592 5.345-1.651 10.709-3.256 16.158-4.537 1.449-.341 2.907-.657 4.369-.949.767-3.638 1.884-7.21 3.201-10.717-1.246-.638-2.053-1.709-3.129-2.662-1.004-.893-1.695-1.978-2.553-3.004-.78-.931-.341-2.614 1.061-2.559l.397.015c1.455.069 2.862.22 4.18.898l.47.242c.644.333 1.348.717 1.975 1.17a230.71 230.71 0 0 1 2.536-5.609l1.12-2.394c2.903-6.23 5.797-12.696 9.439-18.498 1.619-2.578 3.775-4.189 6.869-4.439 3.186-.255 6.498.076 9.688.19 3.699.132 7.396.289 11.091.482-.947-.991-1.811-2.095-2.764-3.047a56.833 56.833 0 0 0-5-4.458c-3.469-2.735-7.286-4.991-11.248-6.934-3.964-1.942-8.045-3.636-11.767-6.034-2.354-1.518-4.458-3.43-6.379-5.497-1.208 13.038-7.505 25.151-16.965 34.252-9.826 9.451-23.404 14.645-36.686 16.852-13.549 2.255-27.689 1.427-40.65-3.282a71.489 71.489 0 0 1-18.806-10.246c-.063.378-.139.751-.288 1.103a7.48 7.48 0 0 1-.722 1.291l-.498.729c-.309.461-.641.907-.992 1.336-.864 1.028-2.088 1.479-3.406 1.475-2.524-.01-4.435-2.484-3.757-4.931.428-1.539 1.341-2.465 2.767-3.067.45-.191.909-.35 1.373-.507l.346-.117c.466-.159.928-.313 1.411-.4a62.968 62.968 0 0 1-7.467-7.789c-7.053-8.79-14.01-21.1-11.652-32.773.042-.201.222-.328.417-.358a3.763 3.763 0 0 1 1.17-2.145c-.4-.105-.806-.187-1.216-.244Zm73.241 201.83c1.396-.776 2.839 1.069 1.704 2.209l-1.695 1.696c-1.574 1.58-3.104 3.176-4.45 4.978l-.326.439c-1.818 2.472-3.756 5.338-6.733 6.262-3.602 1.117-7.065-3.269-4.979-6.474 1.822-2.801 5.331-3.858 8.356-5.016 2.861-1.094 5.447-2.607 8.123-4.094Zm-116.199-12.923c.822-1.075 2.96-.509 2.4 1.011-1.821 4.936-2.563 11.668-7.161 14.946-1.485 1.058-3.815.572-5.038-.649-1.387-1.388-1.443-3.343-.648-5.035.966-2.066 3.348-3.563 5.019-5.136l.15-.144c1.795-1.743 3.736-2.975 5.278-4.993Zm192.216 5.68c1.466-.63 5.284-1.858 6.415-.405a.813.813 0 0 1 .134.175c.277.482.318 1.162 0 1.641-1.318 1.982-2.691 3.46-4.566 4.87l-.21.155c-2.04 1.501-3.959 3.262-6.444 3.939-3.447.937-5.854-3.377-3.433-5.896 1.95-2.029 4.926-3.083 7.509-4.215l.595-.264Zm-138.398-28.204c-.576-1.041.602-2.318 1.669-1.667 3.043 1.859 6.589 3.254 10.005 4.257 1.385.405 2.631 1.808 2.529 3.32l-.015.229c-.042.534-.116 1.064-.455 1.509-1.191 1.556-2.894 2.156-4.712 1.234-4.053-2.052-6.828-4.92-9.021-8.882Zm88.94-3.155c-.074-.437.246-.776.693-.691 2.57.486 4.945 1.728 7.153 3.157 1.186.765 2.328 1.606 3.51 2.38 1.46.954 2.005 1.743 2.221 3.494.142 1.157-.937 2.213-1.928 2.533-2.699.87-5.792-1.986-7.619-3.841l-.083-.083c-1.913-1.952-3.493-4.257-3.947-6.949Zm77.238-3.031c-.587-1.582 1.434-2.894 2.754-2.116 1.244.731 2.595 1.338 3.767 2.177 1.08.77 2.062 1.685 3.097 2.519l.511.405c1.896 1.524 5.026 5.295 2.314 7.481-2.579 2.082-6.002-.575-7.735-2.519l-.121-.138c-.996-1.151-2.225-2.403-2.947-3.746-.682-1.267-1.144-2.719-1.64-4.063Zm-25.453-122.517c-3.232.626-4.551 4.617-5.912 7.218-3.212 6.136-6.167 12.385-9.135 18.643-.913 1.925-1.803 3.865-2.699 5.799a3.234 3.234 0 0 1-.208.449c-1.839 3.958-3.733 7.89-5.945 11.647a102.27 102.27 0 0 1 6.104-.958c-.102-1.923 1.214-4.497 1.866-6.118l.055-.136c.812-2.075 1.664-5.344 3.755-6.421.697-.359 1.443.091 1.496.858.159 2.285-2.075 4.899-3.168 6.837a139.451 139.451 0 0 0-1.932 3.544c-.235.444-.432.884-.672 1.275a85.748 85.748 0 0 1 3.166-.289l.69-.048c3.922-.257 8.087-.331 11.63 1.602 3.288 1.794 4.97 5.622 3.163 9.108-2.25 4.345-7.204 4.92-11.562 5.272-5.443.439-10.898 1.232-16.301 2.005-5.591.798-10.855 2.86-16.362 3.918-.511.098-.83-.572-.36-.858 4.343-2.642 9.623-4.098 14.479-5.58l.394-.119c2.633-.808 5.209-1.734 7.934-2.192 2.645-.445 5.305-.806 7.973-1.081l.26-.024c2.937-.247 10.432-.161 10.115-4.511-.21-2.877-4.888-3.375-7.024-3.409-9.794-.157-19.656 2.442-28.962 5.226l-2.078.623c-3.813 1.147-7.627 2.326-11.367 3.67-4.237 1.524-7.576 3.897-10.661 7.148-3.423 3.602-6.737 7.287-10.286 10.768a407.555 407.555 0 0 1-6.79 6.491 7.028 7.028 0 0 0-1.216 2.338c-.483 1.592-.371 3.074-.189 4.709.46 4.132.562 8.308 1.138 12.427.534 3.816 1.282 7.772 2.867 11.312a20.785 20.785 0 0 0 2.375 4.011l.75.975c.328.424.693.888 1.078 1.325.564-.689 1.381-1.136 2.329-1.024 2.016.236 3.601.18 5.578-.282 1.532-.36 3.051-.778 4.574-1.166 2.992-.765 6.013-1.46 8.975-2.336l.51-.153c2.208-.676 4.416-1.524 6.254-2.95 2.134-1.656 2.791-4.045 4.373-6.11 3.375-4.41 10.67-4.317 15.611-5.527 4.197-1.026 8.239-2.646 11.144-5.692l.169-.18c-.129-.545.079-1.158.585-1.438l.11-.063c.189-.104.402-.157.617-.151.269-.396.531-.805.766-1.24.195-.358.681-.095.617.259-.038.212-.091.419-.14.627 2.814-.725 5.905-.587 8.761-.585l3.708-.013c.643-.008 1.599-.04 1.684-.078l.087-.04c.231-.1-.096.067.065-.147.178-.237.352-.477.524-.718a57.959 57.959 0 0 0 1.766-2.638c-6.209 1.58-12.643 2.564-18.982 3.386-6.803.88-13.695 1.492-20.556 1.497-1.892.004-1.875-2.852 0-2.924 7.267-.277 14.496-.663 21.714-1.594a186.141 186.141 0 0 0 15.416-2.662l1.065-.23c.668-.148 2.555-.362 3.475-.979l.542-.931c-.089-1.091-2.86-.945-3.512-.945-1.841-.004-3.685.011-5.528.015-3.686.012-7.369-.021-11.057-.051-7.363-.059-14.756-.316-22.113-.002-1.786.076-2.724-2.788-.959-3.541 7.794-3.328 16.445-4.049 24.767-5.073 4.377-.538 8.754-1.159 13.032-2.247l1.059-.269c2.688-.689 5.655-1.528 7.919-3.171-3.402-1.374-7.631-1.217-11.156-1.412l-.27-.015a245.37 245.37 0 0 0-14.83-.466c-10.121-.015-20.244.345-30.354.824-.254.011-.307-.388-.061-.441 10.392-2.268 20.953-3.36 31.587-3.528a248.61 248.61 0 0 1 14.855.21l1.816.085c4.218.181 8.899.231 12.43 2.777.538.388.822.884.865 1.408 4.735-9.434 9.106-19.065 13.496-28.634 3.413-7.439 6.699-14.942 10.235-22.323l1.146-2.389c1.532-3.185 3.104-6.373 4.849-9.443-6.523-.873-13.082-1.477-19.644-1.94-5.981-.422-25.493-1.359-28.372-.801Zm-2.888 102.254c.743-.413 1.883-.076 2.067.84.136.684.369 1.441.369 2.139 0 .839-.299 1.748-.458 2.565-.368 1.884-.821 3.413-1.777 5.09-.6 1.051-1.809 1.763-3.025 1.734-.962-.021-1.816-.28-2.477-1.024-.79-.893-1.333-2.205-.9-3.407 1.137-3.15 3.228-6.286 6.201-7.937Zm-157.769-3.14c1.741-3.05 5.866-5.774 9.466-5.503 5.406.405 6.51 7.681 1.275 9.419-3.129 1.037-7.432-.028-10.171-1.736a1.625 1.625 0 0 1-.57-2.18Zm-55.562-10.415c-.396-.574.257-1.23.846-1.102 1.307.288 2.716.413 3.997.803 1.308.397 2.577 1.06 3.875 1.514 2.719.952 5.625 1.429 8.257 2.58 1.051.46 1.879 1.982 1.781 3.106l-.025.262c-.057.558-.155 1.045-.466 1.554-.837 1.366-2.498 2.072-4.063 1.652-2.907-.78-5.744-2.784-8.221-4.45l-.458-.305c-1.084-.711-2.247-1.457-3.12-2.375-.909-.958-1.657-2.153-2.403-3.239Zm99.871-11.085c-.335-1.204 1.165-2.001 2.038-1.187 1.744 1.626 3.57 3.135 5.278 4.801l.116.113c1.223 1.231 3.006 3.601 1.413 5.193-2.04 2.038-4.881-.987-5.976-2.563-1.386-2.001-2.219-4.017-2.869-6.357Zm133.564-9.956c-2.589 2.742-6.577 4.003-10.09 5.048-4.165 1.236-8.455 1.976-12.751 2.584-4.151.587-8.268 1.113-12.354 1.787 3.089.037 6.18.06 9.262.117 3.555.064 7.108.14 10.663.244 2.587.074 5.625-.28 8.085.682.443.172.856.412 1.218.704a307.093 307.093 0 0 0 5.967-11.166Zm-159.706-25.642c2.701-.857 5.242-1.997 8.106-1.701.763.077 1.307.819.892 1.552-1.356 2.389-3.564 3.736-5.739 5.334l-.189.142a70.329 70.329 0 0 1-7.521 4.833c-4.454 2.498-8.447-4.653-3.947-6.752 2.707-1.263 5.55-2.503 8.398-3.408Zm48.655-6.208c4.135.27 8.267.456 12.406.623 4.795.194 3.183 7.571-.822 6.08-3.959-1.477-7.915-2.933-11.908-4.309-1.215-.42-1.119-2.415.247-2.398l.077.004Zm-106.045-13.126c1.072-.075 2.153.159 3.225.264l1.142.109c2.354.235 4.561.523 6.807 1.481 4.142 1.768 1.917 8.425-2.242 8.273-3.072-.113-5.701-1.432-8.296-2.97-2.269-1.342-3.659-3.022-5.191-5.131-.508-.699.199-1.482.89-1.552 1.218-.123 2.447-.388 3.665-.474Zm207.634-13.596a27.098 27.098 0 0 1-4.95 11.774c-1.288 1.754-3.552 1.821-4.828 0-1.807-2.575-.693-5.524.668-7.996l.402-.725c.61-1.085 1.545-2.669 2.615-3.763l.018-.112c.573-4.476 6.78-3.583 6.075.822Zm-167.227-27.443c1.03-.928 2.928-.65 3.263.861.468 2.116.752 4.499.445 6.648-.164 1.162-.227 2.47-.685 3.555-.493 1.166-1.44 2.063-2.33 2.939-1.78 1.751-5.536 1.172-6.011-1.586l-.061-.339c-.24-1.304-.549-2.699-.193-3.994.269-.977.869-1.97 1.364-2.877l.104-.193c.994-1.848 2.542-3.61 4.104-5.014Zm144.883 4.501.373.004c2.877.057 8.136.757 8.164 4.312.006.836-.613 1.705-1.446 1.898-1.72.398-2.832-.617-4.057-1.645a12.49 12.49 0 0 0-3.385-1.991c-1.31-.52-1.225-2.58.351-2.578Z" fill="#000"/><path fill-rule="evenodd" clip-rule="evenodd" d="M319 108.884c-2.51-18.102-8.248-35.676-9.072-54.046l-1.47-23.586c-.185-4.912-6.566-6.568-9.004-2.218-5.537-6.14-15.456-5.238-23.022-5.05-44.546 1.578-86.877 31.69-102.169 73.677-.367 1.001-.256 2.067.159 3.019-7.127 23.765 18.08 39.065 35.271 49.662 6.974 7.369 15.171 13.491 24.426 17.683a85.75 85.75 0 0 0 34.265 8.068c2.582.058 4.133-2.029 4.32-4.189 3.754-.875 10.177.134 12.161-3.71 22.633-9.83 37.381-34.742 34.135-59.31Z" fill="#FDFBF5"/><path fill-rule="evenodd" clip-rule="evenodd" d="M308.408 44.694c-.064-.587.784-.605.958-.13 1.434 3.908 2.921 7.789 4.057 11.794 1.097 3.862 1.885 7.81 2.684 11.742a340.569 340.569 0 0 1 3.407 19.692c2.015-1.572 4.65-1.715 7.131-.493 1.165.576 1.612 2.094 1.331 3.271a26.266 26.266 0 0 1-.827 2.806 7.372 7.372 0 0 1 1.734 2.271c1.143 2.32.775 4.755-.25 6.97.078.13.156.265.228.405 1.483 2.879.689 5.459-.394 8.27-.811 2.101-.358 4.469-2.108 6.057a16.11 16.11 0 0 1-2.852 5.414 3.573 3.573 0 0 1-1.29 1.325 59.738 59.738 0 0 1-1.074 9.207c-2.379 11.832-9.928 22.376-19.273 29.813-9.146 7.276-19.886 11.624-31.475 13.031-5.629.683-11.263.467-16.845-.508l-.695-.123c-5.151-.935-11.383-2.481-14.945-6.366-1.871-2.042-.777-6.538 2.534-6.114 1.754.226 3.28.506 4.932 1.153 1.288.506 2.579.992 3.901 1.405 2.533.787 5.152 1.402 7.783 1.743a51.951 51.951 0 0 0 16.589-.549c9.848-1.942 19.416-6.422 26.892-13.169 8.687-7.842 13.78-17.994 14.528-29.699.835-13.038-.67-26.389-1.92-39.36a397.827 397.827 0 0 0-2.47-20.185c-.97-6.553-1.553-13.095-2.271-19.673ZM231.522 2.593l.42-.065c16.726-2.544 34.322-2.364 50.044 4.537a57.362 57.362 0 0 1 8.738 4.772c1.989-.208 3.991-.376 5.955-.403 2.471-.032 4.884 1.251 5.189 3.752 2.317.288 4.451 1.14 5.815 2.845a5.492 5.492 0 0 1 1.068 2.234 18.3 18.3 0 0 1 4.146 1.53c1.608.828 2.536 3.132 1.968 4.837-.131.385-.28.762-.447 1.132l-.129.277.076.104c1.284 2.063.392 4.772-1.578 6.004-1.476.924-3.125 1.66-4.82 2.016.14.681.267 1.365.371 2.057.04.28-.32.48-.479.203 0 0 .608 1.893 1.524 3.977.36.82-.793 1.548-1.232.72-1.169-2.208-1.893-4.472-2.953-6.749a8.25 8.25 0 0 1-2.898-.715 3.22 3.22 0 0 1-1.42-1.316c-.019.023-.033.051-.051.08-3.158 4.06-9.328 5.483-14.097 6.769-5.121 1.381-10.364 2.233-15.625 2.86-9.188 1.092-18.447 1.296-27.676 1.72l-1.834.087c-3.748 3.29-8.577 5.333-13.532 5.955a24.617 24.617 0 0 1-8.293-.407 8.412 8.412 0 0 1-3.711 2.206c-.253 5.241-3.176 10.202-7.594 13.095l.079.31c1.097 4.477 1.084 9.368-2.852 12.478a9.632 9.632 0 0 1-1.727 1.079l.134.31c2.032 4.752 2.682 9.999-1.14 13.94-1.549 1.597-4.269 1.219-5.432-.614l-.057-.092c-.064-.11-.134-.214-.2-.322a.98.98 0 0 1-.496.49c-1.453.625-2.035.165-3.358-.479a20.677 20.677 0 0 0-3.838-1.397 22.108 22.108 0 0 0-3.229-.596c-6.825 2.608-11.235 10.61-10.187 18.119.568 4.088 2.814 8.137 6.727 9.833 1.712.744 3.724 1.057 5.578.805 2.507-.341 4.437-1.92 7.034-1.017 1.024.356 1.665 1.161 1.719 2.26.093 1.729-.518 3.025-1.553 3.985 1.822 1.52 3.29 3.632 4.872 5.317 1.975 2.109 3.981 4.218 6.117 6.162a54.396 54.396 0 0 0 6.434 5.076l.238.157c2.849 1.855 6.436 3.5 6.572 7.377.044 1.168-.664 2.239-1.625 2.836-3.589 2.224-7.494-.697-10.306-2.836a63.574 63.574 0 0 1-3.294-2.677 4.687 4.687 0 0 1-2.284-.416 15.982 15.982 0 0 1-1.517-.769c-1.612.406-3.133.05-4.385-.795-1.805.443-3.717.496-5.34.141a8.968 8.968 0 0 1-3.902-1.969c-2.282.727-4.814.592-7.064-.789-1.349-.828-2.4-2.009-2.974-3.389a3.034 3.034 0 0 1-.49-1.573v-.223c-1.961.045-3.927-.629-5.442-2.179a7.529 7.529 0 0 1-2.149-5.006 9.85 9.85 0 0 1-5.15-3.48c-2.273-2.937-2.576-6.566-1.407-9.807a6.139 6.139 0 0 1-.205-.522c-1.812-2.557-3.011-5.641-2.913-8.734.012-.481.076-.952.171-1.42-1.784-.948-3.097-2.614-3.237-4.73a6.27 6.27 0 0 1 1.565-4.513 7.88 7.88 0 0 1-.595-3.97 7.728 7.728 0 0 1 1.377-3.622c-.017-.375.004-.75.062-1.12a10.353 10.353 0 0 1-.163-1.148c-.341-4.289 2.62-8.043 6.226-10.023.947-.52 1.971-.944 2.996-1.304.744-.265 1.865-.352 2.521-.835-.029-.02.246-.372.291-.56.053-.233.11-.46.139-.696.106-.992.026-2.013.007-3.01-.089-4.52.051-9.061.527-13.557.884-8.338 3.066-16.495 7.314-23.78 3.566-6.105 8.447-11.263 14.046-15.54 11.149-8.513 25.064-13.143 38.82-15.28Zm-51.673 103.683c-1.452-3.487 5.381-3.521 7.188-3.356l.053.005c4.066.405 10.424 2.361 12.089 6.463.687 1.698-1.35 3.539-2.983 2.981-1.597-.547-2.491-1.721-3.773-2.749a16.855 16.855 0 0 0-1.043-.762c.189.598.488 1.15.905 1.563l.098.093c1.968 1.768-1.551 4.545-2.856 2.205a6.203 6.203 0 0 1-.757-4.026c.064-.418.176-.799.341-1.164-.133-.065-.26-.135-.39-.197l-.235-.11c-1.567-.71-8.248-3.5-8.195-1.005.005.276-.353.276-.442.059Z" fill="#000"/><path fill-rule="evenodd" clip-rule="evenodd" d="M273.849 144.618a16.29 16.29 0 0 1-6.845-5.265 3.16 3.16 0 0 1-.64-2.455c.144-.884.666-1.682 1.378-2.22.714-.538 1.608-.803 2.472-.668.752.117 1.498.528 2.091 1.382l.123.17a10.777 10.777 0 0 0 3.951 3.314 8.896 8.896 0 0 0 4.89.86c3.292-.371 5.559-2.15 7.97-4.568.299-.304.598-.619.897-.939.176-.27.44-.473.747-.573a1.638 1.638 0 0 1 1.837.628c.183.271.29.606.255.992-.221 2.505-1.53 4.738-3.39 6.493-2.066 1.95-4.805 3.297-7.382 3.77-2.839.521-5.733.148-8.354-.921Zm9.695-38.631c3.02 1.838 7.625 6.12 4.375 10.673-3.828 4.013-9.336-.589-12.05-2.671-2.517-1.613-5.346 2.536-3.011 4.42 19.617 14.52 27.578-11.941 12.214-14.579-1.693-.292-2.32 1.59-1.528 2.157Zm-35.152-16.89c.333-4.143 6.644-5.084 7.273-.984.56 3.672-.101 7.047-1.756 10.354-1.579 3.157-5.553 1.685-5.854-1.192-.403-3.856.129-5.6.337-8.178Zm48.04-1.834c.881-1.153 2.151-1.938 3.672-1.495 4.756 1.39 3.354 8.141 1.684 11.427-.907 1.783-3.841 2.236-5.167.664-2.159-2.56-3.195-7.677-.447-10.202.074-.129.157-.261.258-.394Zm-42.589-16.294.752-.132c2.324-.402 5.212-.788 6.856 1.078.873.992 1.172 2.834 0 3.782-2.061 1.666-4.341 1.023-6.811 1.163a27.079 27.079 0 0 0-5.952 1.014c-4.303 1.23-7.809 3.474-11.483 5.938-.481.322-.974-.293-.745-.744 2.122-4.154 6.231-7.566 10.349-9.646 2.199-1.11 4.602-2.03 7.034-2.453Zm38.254-1.86.575.117c6.258 1.306 14.387 3.918 17.349 10.064.114.869-.006 1.054-.102 1.176l-.033.041c-.081.104-.144.246-.52.366a15.16 15.16 0 0 1-.319-.08c-1.358-.356-2.431-.846-3.471-1.355l-1.129-.555c-1.309-.643-2.629-1.26-4.028-1.717a47.457 47.457 0 0 0-9.175-2.025 3.767 3.767 0 0 1-1.841-.7 2.774 2.774 0 0 1-1.03-1.566c-.22-.884-.155-1.552.318-2.35a2.982 2.982 0 0 1 1.453-1.252 3.408 3.408 0 0 1 1.953-.165Z" fill="#000"/><path fill-rule="evenodd" clip-rule="evenodd" d="M319.351 108.424c-4.858 5.02-12.968 6.459-19.43 3.767-16.597-6.932-8.474-28.554 4.325-34.362 1.599-.397 3.735-1.344 5.682-1.557.176-.088.559.162 1.023-.074 14.114 1.575 17.328 23.48 8.4 32.226m-53.529 1.285c-5.449 7.226-15.578 9.455-23.854 6.096-16.35-6.438-10.551-25.611.636-33.13 23.629-8.878 33.389 13.712 23.218 27.034Zm-35.443-16.01-.046-.017.26-.115-.087.218c-.042-.029-.08-.063-.127-.086m100.22-7.81c-1.334.002-3.262.222-4.366 1.147-2.723-9.182-12.775-17.68-21.517-11.484-6.884 2.215-11.992 7.123-14.896 13.648-5.235-3.112-13.466-1.783-18.005 2.334-2.974-9.82-10.29-13.26-18.999-13.77-9.505-1.555-18.979 7.675-21.935 15.08-2.458-.28-6.131-1.062-8.443.454-15.008-3.935-41.247-6.105-44.298-3.918-2.174.833-3.367 5.966-.329 6.243 2.646-.377-.311-3.76 2.358-4.13 14.214-.881 28.011 1.981 42.075 3.183 1.256 1.689 5.313 2.253 7.478 1.575-3.409 12.559 3.949 21.106 14.973 23.665 17.074 3.92 31.926-11.35 27.462-27.231 5.173-2.575 11.122-2.461 16.754-1.108-9.415 34.642 46.386 33.088 37.672-3.354 5.8 2.885 7.059-1.753 4.016-2.334" fill="#000"/></svg>