<svg width="460" height="481" fill="none" xmlns="http://www.w3.org/2000/svg"><path fill-rule="evenodd" clip-rule="evenodd" d="M82.472 447.554a1361.55 1361.55 0 0 1 2.292-34.523c1.814-22.903 4.191-45.825 8.147-68.465 3.903-22.337 9.366-44.058 17.234-65.345 3.65-9.874 7.604-18.3 13.34-27.176 5.422-8.395 12.343-14.082 20.965-19.148 7.768-4.566 16.792-12.486 24.242-17.598 3.111-2.135 9.51-1.992 11.642-5.149 2.794-4.134.983-10.462 3.798-14.582 3.218-4.712 7.728-8.371 12.812-11.03 5.55-3.76 12.085-5.463 18.64-5.228 9.663-.587 19.395 2.492 25.601 10.364 3.096 3.928 4.903 8.461 5.153 13.479.066 1.305-.353 2.335-1.043 3.078.408.546.816 1.094 1.221 1.646 1.268-1.881 4.235-2.882 6.211-1.462a87.104 87.104 0 0 0 20.833 11.048c1.728-.818 3.816-.439 5.294.896a11.82 11.82 0 0 0 1.903 1.395 87.714 87.714 0 0 0 8.331 1.841c.882.151 1.63.651 2.196 1.328.84-.787 1.995-1.164 3.285-.672 14.888 5.679 28.947 14.502 39.633 26.454 11.84 13.244 18.058 29.717 22.794 46.594 5.123 18.267 8.399 36.992 11.149 55.747 2.786 19.003 5.533 38.081 7.45 57.194 1.079 10.758 1.491 21.611 1.002 32.414a161.098 161.098 0 0 1-1.52 16.129c-.184 1.252-.375 2.692-.684 4.132a1.613 1.613 0 0 1 1.815 1.113c.078.248.094.511.049.766-1.324 8.838-12 11.412-19.364 12.429-12.046 1.664-24.155 2.587-36.316 2.659-11.951.07-23.899-.699-35.828-1.385-12.224-.706-24.452-1.414-36.68-2.131-48.987-2.874-97.976-5.717-146.963-8.591-4.476-.263-9.586-.62-13.421-3.216-5.254-3.562-5.524-9.222-5.213-15.005Z" fill="#FDFBF5"/><path fill-rule="evenodd" clip-rule="evenodd" d="M321.279 348.699c.171-.32-.224-.605-.485-.375-5.947 5.222-9.06 13.609-9.713 21.362-.691 8.221.289 16.732.664 24.95.417 9.154.79 18.309 1.301 27.46.515 9.282 1.074 18.561 1.552 27.846l1.073 20.884c.114 2.226-.134 4.963.721 7.041 1.323 3.22 5.251 2.721 6.077.031l.026-.09.073.059c.73-2.426.184-5.307.061-7.814l-1.125-22.818c-.794-16.129-1.504-32.26-2.357-48.385l-.29-5.375a1021.57 1021.57 0 0 1-.951-21.687l-.081-2.411c-.233-7.264-.047-14.121 3.456-20.678h-.002ZM177.118 214.805c-3.315-.316-5.816.783-8.824 1.942-1.31.504-2.551 1.087-3.809 1.69-1.573.756-2.584 2.091-3.553 3.501l-.518.761c-4.037 5.918-6.75 12.744-9.815 19.185-3.582 7.536-7.2 15.055-10.707 22.626l-1.73 3.731a674.82 674.82 0 0 0-2.577 5.603l-1.469 3.258c-1.474 3.305-2.798 6.801-.695 10.21 1.954 3.17 5.419 5.623 8.164 8.074l6.869 6.135c-4.735 4.744-7.912 10.717-9.781 17.121-2.653-1.105-5.894-1.318-8.636-1.796-3.842-.671-4.313 5.149-.688 5.079 2.679-.053 5.818.221 8.565-.344a53.966 53.966 0 0 0-1.044 6.385c-1.153 11.23 1.369 22.524 3.998 33.39l.217.892c2.856 11.761 5.564 23.552 7.987 35.409a885.865 885.865 0 0 1 6.553 35.79c1.972 12.186 3.37 24.44 4.871 36.693.226 1.853 1.394 3.442 3.44 3.442 1.706 0 3.656-1.592 3.441-3.442-1.548-13.341-3.745-26.614-5.927-39.863-3.759-22.819-8.49-45.439-13.932-67.912l-.95-3.913c-2.448-10.149-4.671-20.606-3.443-31.075 1.002-8.525 4.563-17.614 11.603-22.909l.213-.16c1.645-1.206 2.278-3.514.658-5.102l-3.095-3.033-6.197-6.053-1.248-1.223a118.378 118.378 0 0 0-3.167-3.01c-.653-.592-2.421-1.723-2.55-2.7-.085-.636.669-1.754.974-2.341l1.399-2.826c.794-1.611 1.563-3.233 2.338-4.853 1.609-3.356 3.238-6.702 4.811-10.075l9.445-20.253c2.664-5.716 5.038-11.747 8.522-17.03l.686-1.028c.573-.868 1.08-1.703 1.443-2.764.347-1.019.785-2.138 1.43-3.01 1.507-2.043 4.391-3.202 6.805-3.63.349-.063.222-.544-.077-.572Zm72.643-5.32c-.209 0-.241.3-.048.357 2.912.877 5.693 2.289 7.962 4.331 1.086.976 2.18 2.085 2.851 3.398.241.502.41 1.035.502 1.585l.033.186c.173.994.421 1.548.926 2.344l.087.136c2.884 4.458 4.906 9.408 6.753 14.365l4.026 10.809 4.022 10.811 3.888 10.449c.717 1.923 1.452 3.837 2.187 5.753.32.83.662 1.654.954 2.494.041.114.166.805.263.973l-.033.057c-.81 1.366-2.974 2.508-4.2 3.499l-4.224 3.417c-3.011 2.436-6.1 4.805-9.019 7.35-1.834 1.598-.693 4.459 1.353 5.126 3.427 1.118 6.787 2.457 10.164 3.72 1.364.512 2.785.957 4.132 1.519l.822.355c.32.146.165.144.152.736-.012.62-.187 1.267-.288 1.877a1088.297 1088.297 0 0 1-3.616 20.614c-4.504 24.257-9.881 48.335-16.015 72.227-3.099 12.067-6.421 24.075-9.588 36.123-3.158 12.015-7.314 23.859-11.283 35.628-1.12 3.319 4.14 4.748 5.232 1.444 4.573-13.842 8.757-27.804 13.077-41.724 7.676-24.733 13.726-50.005 19.075-75.335a1064.734 1064.734 0 0 0 8.498-44.986l.583-3.524c.399-2.513.625-5.13-1.325-7.118-1.907-1.94-5.177-2.628-7.684-3.538l-.184-.068c-1.594-.596-3.2-1.169-4.801-1.762 2.356-1.857 4.687-3.756 7.04-5.612 1.895-1.498 3.824-2.966 5.693-4.498 1.544-1.263 2.8-2.887 2.96-4.941.165-2.102-.736-4.049-1.46-5.976l-.07-.186a570.636 570.636 0 0 0-2.158-5.763l-4.533-11.861c-2.879-7.537-5.638-15.135-8.667-22.612-1.199-2.961-2.504-5.873-4.048-8.67a49.646 49.646 0 0 0-2.408-3.943c-.973-1.429-1.855-2.124-3.36-2.911-2.409-1.26-4.298-3.372-6.716-4.671-2.373-1.274-4.814-1.954-7.507-1.984Zm-7.816-13.447c-.092-.159-.335-.087-.338.093-.063 3.746.827 7.573 1.373 11.276.549 3.719.726 7.641 1.522 11.319.017.171.049.34.096.505l.038.127c.335 1.03 1.208 1.903 2.278 2.176a150.316 150.316 0 0 0-.919 5.617c-.46 3.233-.877 6.469-1.289 9.706l-.493 3.885c-.465 3.663-.917 7.326-1.364 10.989-1.136.477-2.296.87-3.485 1.209-2.735.785-5.537 1.103-8.36 1.381-5.75.562-11.544.825-17.315 1.145l-1.237.07c-6.487.372-13.009.438-19.48-.228a67.66 67.66 0 0 1-9.52-1.67c-1.59-.399-3.136-.996-4.722-1.386-.528-.129-.996-.429-1.524-.747a1.662 1.662 0 0 0-.991-.607l-.116-.02-.115-.016-.039-.019.002.013a3.4 3.4 0 0 0-.923-.004 584.017 584.017 0 0 0-.399-8.569c-.423-7.67-1.588-15.671-.031-23.274.051-.256-.296-.346-.386-.107-3.054 8.049-2.71 16.85-2.864 25.321-.151 8.286-.059 16.576-.019 24.864-.593.252-1.121.594-1.54 1.075-.838.96-1.079 2.628 0 3.555.461.394.992.697 1.566.894.03 7.199.081 14.398.153 21.597-1.368 1.058-1.495 3.569.051 4.612.259 23.315.682 46.63 1.033 69.94l.736 48.906c.097 6.517.259 13.032.318 19.548l-.046.018-.164.075c-.274.129-.682.337-.766.55a.251.251 0 0 0-.024.123 2.341 2.341 0 0 0-1.28.64c-.95.905-.757 2.266 0 3.185l.202.247c.473.573 1.368.794 2.1.676-.008 4.068-.033 8.136-.021 12.201.004 1.242.024 2.485.045 3.726l.051 2.979c.035 1.699.186 3.858 1.925 4.623 1.961.86 3.722.154 4.516-1.839.215-.541.169-1.045.09-1.578.024-.803.151-1.732.134-2.477l-.064-3.106c-.011-.478-.029-.956-.044-1.436l.057.007c6.972.339 13.995.173 20.98.17l3.105.003c2.593.014 5.186-.023 7.777-.11l.971-.042c1.937-.09 3.974-.12 5.983-.293a315.619 315.619 0 0 0-.708 6.196c-.202 1.96 1.818 3.624 3.622 3.624 2.141 0 3.367-1.684 3.623-3.624 1.21-9.156 1.706-18.397 2.862-27.558 1.035-8.205 1.934-16.428 2.846-24.648l.305-2.742c3.347-29.916 6.575-59.845 9.684-89.786l1.444-13.996c1.458-14.108 2.927-28.218 4.164-42.346.704-8.076 1.362-16.157 1.973-24.241.45-5.94.733-11.848.917-17.777.726-.746 1.09-1.839.768-2.966a32.516 32.516 0 0 0-.638-1.964l.043-1.925c.011-.607-.605-.921-1.1-.82-.897-2.174-1.884-4.329-2.709-6.482-1.335-3.485-2.434-7.238-4.32-10.463Zm74.526 37.66c-13.951-8.748-30.555-15.042-47.186-14.366-.379.017-.483.592-.092.681 8.871 1.982 17.84 4.396 26.237 7.909a99.329 99.329 0 0 1 23.566 13.973c13.16 10.521 23.39 24.207 30.125 39.634 3.945 9.036 6.71 18.576 9.125 28.12 2.556 10.1 4.662 20.31 6.414 30.58 3.458 20.288 5.472 40.799 6.544 61.347 1.09 20.9.64 41.816 1.417 62.72.135 3.621 5.307 3.551 5.57 0 1.763-23.768.787-47.912-.843-71.661-1.464-21.351-4.023-42.656-8.142-63.662l-.358-1.82c-3.852-19.435-8.497-39.341-17.806-56.943-7.948-15.025-20.22-27.509-34.571-36.512Zm-193.71 92.887a.22.22 0 0 0-.421 0c-1.59 4.453-1.647 9.481-2.07 14.175l-.033.361c-.406 4.284-.711 8.573-.994 12.865l-.107 1.609c-1.138 17.508-2.562 34.997-4.708 52.413-2.137 17.352-5.029 34.582-8.154 51.777-.349 1.914.498 3.864 2.505 4.415 1.769.487 4.039-.603 4.412-2.506 1.941-9.871 3.511-19.753 4.91-29.709 2.47-17.53 4.3-35.144 5.487-52.807a527.04 527.04 0 0 0 1.105-26.63 178.71 178.71 0 0 0-.261-12.38l-.051-.95c-.243-4.213-.219-8.617-1.62-12.633Zm150.734 111.518c-.188-.101-.418.107-.3.3 2.702 4.393 6.355 8.179 9.886 11.914 3.693 3.902 7.294 7.922 11.061 11.748 2.72 2.762 7.099-1.695 4.228-4.231-4.041-3.564-8.261-6.953-12.372-10.437l-1.798-1.525c-3.369-2.85-6.838-5.673-10.705-7.769Zm-128.293-2.199c.202-.385-.259-.697-.571-.444-2.179 1.775-4.133 3.89-6.236 5.76a107.366 107.366 0 0 1-6.465 5.268 122.728 122.728 0 0 1-6.847 4.857c-1.941 1.276-3.941 2.296-5.973 3.356-.941.121-1.812.583-2.511 1.46-1.103 1.386-1.218 3.999.311 5.202l.274.215c1.785 1.405 3.904 1.576 5.662 0 1.963-1.758 3.818-3.692 5.702-5.552l.566-.555a106.599 106.599 0 0 0 5.862-6.127l1.688-1.92c3.126-3.569 6.384-7.416 8.538-11.52Zm10.037-205.803c.362-.239.138-.887-.309-.732l-.821.283c-3.429 1.194-6.956 2.516-10.068 4.351-3.346 1.973-6.434 4.321-9.387 6.842-6.106 5.219-11.303 11.635-15.718 18.323-8.862 13.418-14.342 28.787-18.765 44.164-4.719 16.397-8.35 33.146-11.316 49.942a602.909 602.909 0 0 0-6.866 51.562 437.673 437.673 0 0 0-1.511 25.551c-.13 4.391-.127 8.779-.09 13.172.01 1.129.002 2.258-.011 3.387l-.042 3.387c-.024 2.143-.28 4.393.228 6.486.82 3.369 6.384 2.74 6.202-.702.167-1.146.174-2.33.13-3.516.027-.156.056-.312.087-.467a1.9 1.9 0 0 0-.166-1.24 53.13 53.13 0 0 1-.062-1.69 154.2 154.2 0 0 1 .027-6.774c.142-4.768.313-9.534.513-14.299.367-9.526.93-19.044 1.686-28.547 2.684-33.063 8.35-66.313 17.867-98.12 4.421-14.772 10.517-29.271 19.256-42.035a110.944 110.944 0 0 1 13.11-15.759c4.883-4.888 10.265-9.75 16.026-13.569Zm65.86 213.134-.66 4.774a879.249 879.249 0 0 0-.965 7.166c-2.106-.289-4.259-.408-6.288-.588-3.552-.315-7.127-.467-10.69-.615-7.365-.305-14.768-.831-22.143-.794-.075 0-.147.006-.217.011l-.366-9.421 5.18-.007c4.39-.007 8.778-.046 13.168-.083 3.952-.035 7.906-.04 11.86-.121l1.693-.04c2.996-.081 6.307.086 9.428-.282Zm-41.764-13.674c.218.027.437.045.656.056 1.026.044 2.059.012 3.086.022 2.186.018 4.373.033 6.559.033 4.373 0 8.746.025 13.118.079 4.502.055 9 .132 13.502.141 2.178-.005 4.357-.044 6.535-.116a540.014 540.014 0 0 1-1.129 9.29c-3.386-.457-7.028-.226-10.337-.257l-.43-.005c-4.514-.078-9.035-.021-13.553-.015-4.647.005-9.294.02-13.941.057l-3.818.033-.008-.193a503.729 503.729 0 0 1-.24-9.125Zm45.134-14.832c-.423 3.659-.82 7.326-1.224 10.991a17.986 17.986 0 0 0-.82-.107c-2.181-.233-4.367-.42-6.555-.561-4.37-.27-8.739-.413-13.116-.531-4.5-.121-9.002-.213-13.504-.278a318.668 318.668 0 0 0-6.559-.011c-1.025.006-2.062-.025-3.086.043-.123.009-.239.022-.355.035l-.077-5.504-.042-2.749c3.38.208 6.818.128 10.194.128l.78.002c4.244.02 8.489-.038 12.733-.127 4.376-.076 8.75-.247 13.118-.514 1.766-.112 3.53-.264 5.289-.458l.88-.102c.767-.09 1.555-.163 2.344-.257ZM178.781 399.2c8.142.647 16.239.917 24.403.996l1.224.011c7.213.056 14.487.354 21.717.162l-1.298 11.252c-1.035-.047-2.075-.049-3.088-.086-2.059-.074-4.11-.092-6.169-.098-4.245-.009-8.489.028-12.732.021a831.5 831.5 0 0 1-13.119-.166c-3.546-.068-7.129-.334-10.684-.325l-.254-11.767Zm-.343-16.002c.943.314 2.057.335 3.277.39l3.153.156c1.459.072 2.921.14 4.382.193 4.871.178 9.741.346 14.612.5 4.993.158 10.008.25 15 .094 2.44-.073 4.877-.21 7.309-.41.603-.05 1.217-.083 1.833-.127-.568 4.969-1.138 9.939-1.71 14.908-7.195-.885-14.446-1.434-21.634-2.348l-6.498-.832c-6.496-.829-12.985-1.644-19.506-2.329l-.218-10.195Zm-.348-16.178c1.384.342 2.962.325 4.292.408l.245.018c2.519.18 5.043.296 7.568.348 4.948.123 9.899.184 14.849.213l2.976.018c3.967.024 7.932.035 11.901-.058 2.544-.07 5.087-.174 7.629-.311.763-.039 1.542-.065 2.323-.103-.531 4.704-1.07 9.407-1.605 14.113-.836-.134-1.676-.235-2.476-.369a127.834 127.834 0 0 0-6.161-.872c-4.473-.535-8.967-.921-13.462-1.247-4.612-.335-9.23-.618-13.844-.941l-3.266-.232c-1.09-.075-2.178-.149-3.268-.215-1.861-.114-4.024.014-5.87-.39a2.68 2.68 0 0 0-1.61-.138l-.221-10.242Zm-.419-18.939c.48.609 1.195.929 2.048 1.039 4.443.576 9 .669 13.48.941l.788.05c4.627.305 9.256.544 13.884.791 4.756.252 9.511.458 14.271.623 2.023.067 4.048.084 6.073.053l.868-.012c.831-.015 1.7-.013 2.573-.041-.483 4.399-.97 8.799-1.465 13.196-.889-.096-1.777-.169-2.639-.261-2.543-.269-5.083-.535-7.631-.736-4.827-.38-9.66-.61-14.496-.849-4.949-.245-9.901-.409-14.85-.64-2.4-.103-4.798-.261-7.191-.473-1.678-.154-3.669-.724-5.419-.515-.095-4.389-.195-8.777-.294-13.166Zm-.39-16.964c.078.123.169.236.272.337 1.956 1.934 4.366 1.784 6.958 1.988l.16.013c2.539.213 5.081.417 7.623.599 5.085.368 10.177.625 15.269.853 5.209.236 10.452.396 15.667.291 3.34-.07 6.836-.057 10.242-.383-.522 4.846-1.047 9.689-1.579 14.535-.957-.18-1.921-.32-2.834-.464-2.302-.362-4.605-.726-6.919-.993a768.174 768.174 0 0 0-13.883-1.48c-3.963-.384-7.924-.774-11.889-1.127l-2.381-.204c-4.731-.399-9.522-1.056-14.268-1.153-.783-.017-1.667.41-2.116 1.083-.105-4.632-.213-9.264-.322-13.895Zm-.329-13.734c1.208.147 2.511.064 3.625.101 2.82.092 5.64.177 8.458.261l16.917.498c5.761.171 11.541.298 17.304.217 2.533-.036 5.079-.04 7.614-.178l.843-.051c1.043-.07 2.322-.079 3.572-.206l-1.474 13.675c-3.39-.491-6.884-.673-10.245-.961l-.719-.063c-4.955-.452-9.937-.752-14.902-1.089-5.096-.343-10.182-.763-15.268-1.191a880.478 880.478 0 0 1-7.625-.662l-.315-.031c-2.401-.25-4.656-.784-6.783.632a2.207 2.207 0 0 0-.72.793c-.094-3.915-.184-7.83-.282-11.745Zm-.393-15.96c10.303.416 20.607.73 30.917.87 5.803.077 11.599.022 17.403-.099a136.59 136.59 0 0 0 7.568-.366l.941-.076c1.197-.101 2.452-.174 3.702-.294-.516 4.702-1.029 9.404-1.538 14.108-1.23-.23-2.515-.335-3.594-.473l-.245-.033c-2.678-.367-5.382-.583-8.073-.82-5.241-.461-10.509-.759-15.765-1.013-5.38-.259-10.765-.478-16.147-.719l-5.384-.241-2.691-.116-3.844-.16c-.632-.025-1.291-.11-1.923-.079l-.18-.024-.224-.025a2.444 2.444 0 0 0-.554-.324l-.119-.046-.25-10.07Zm62.22-15.124c-.477 4.233-.952 8.468-1.419 12.701-1.468-.168-2.956-.26-4.358-.387-2.829-.253-5.673-.476-8.509-.606l-5.673-.263a1098.09 1098.09 0 0 0-11.344-.484 2116.945 2116.945 0 0 1-31.057-1.34l-.226-8.616c.498.534 1.215.883 2.158.881 10.864-.029 21.737.035 32.599-.145 5.438-.09 10.87-.221 16.3-.5a92.454 92.454 0 0 0 7.967-.78c1.125-.156 2.357-.268 3.562-.461Zm1.739-15.083c-.511 4.336-1.012 8.674-1.505 13.012-1.349-.241-2.743-.37-4.002-.541-2.704-.367-5.425-.662-8.149-.814-5.299-.302-10.603-.453-15.912-.565-10.862-.231-21.735-.23-32.599-.316-1.02-.007-1.777.397-2.276 1-.075-2.708-.154-5.415-.237-8.124 1.05-.11 2.09-.266 3.054-.335 2.957-.205 5.919-.395 8.88-.566 6.181-.35 12.363-.659 18.548-.927 6.186-.273 12.373-.527 18.561-.761l2.705-.099c4.304-.16 8.679-.363 12.932-.964Zm1.945-16.329c-.531 4.391-1.055 8.782-1.577 13.175l-.158 1.361c-5.175-1.007-10.629-1.302-15.847-1.524a408.834 408.834 0 0 0-18.561-.381c-6.188.02-12.366.166-18.548.421-3.09.129-6.178.276-9.266.443-.85.046-1.844.023-2.868.037-.024-.689-.042-1.381-.066-2.07-.094-2.795-.186-5.592-.281-8.387 2.088 1.073 4.803 1.506 6.902 1.963l.239.054c3.465.778 7.004 1.283 10.54 1.59 6.947.607 13.966.381 20.905-.206l1.215-.104c6.094-.53 12.412-1.199 18.32-2.709 2.814-.717 5.722-1.723 8.244-3.181.272-.157.541-.318.807-.482Zm-58.674-52.185c-.061-.239-.416-.293-.533-.07-.82 1.559-1.127 3.431-1.695 5.103-.614 1.798-1.186 3.607-1.862 5.384a73.886 73.886 0 0 1-5.068 10.709c-1.969 3.402 3.542 5.83 4.99 2.106 1.497-3.843 2.726-7.819 3.469-11.879.364-1.982.688-3.992.792-6.006.09-1.728.333-3.661-.093-5.347Z" fill="#000"/><path fill-rule="evenodd" clip-rule="evenodd" d="M172.753 74.196c25.542-20.776 66.474-27.522 93.816-6.561 21.245 19.67 30.037 75.567 26.278 103.655-1.046 18.016-14.8 38.436-34.989 32.738-3.429-.337-6.758-1.653-10.217-1.927-4.14-.479-8.309-.486-12.441.097-9 1.274-16.978 6.057-25.715 8.293-16.21 4.149-34.296 1.357-48.249-7.986-46.108-30.338-25.222-98.948 11.517-128.309Z" fill="#FDFBF5"/><path fill-rule="evenodd" clip-rule="evenodd" d="M176.155 210.99a66.483 66.483 0 0 1-1.417-.509c-.031.11-.081.213-.14.316-.066.162-.132.322-.206.48a5.617 5.617 0 0 0 1.763-.287m.949-201.327c.209-.468.45-.92.722-1.355-.66.213-1.322.51-1.919.89.404.136.8.292 1.197.465Zm100.891 61.47.081-.013a6.54 6.54 0 0 0-1.645-2.425c-.121-.113-.254-.217-.382-.326a19.989 19.989 0 0 1 1.948 2.764M93.389 167.652c.336-3.241.783-6.47 1.34-9.68.54-3.075.994-6.363 2.559-9.092 1.553-2.716 3.11-5.354 4.959-7.745a33.345 33.345 0 0 0-.917-3.291c-1.746-5.326-3.467-12.087.163-17.036.844-1.145 1.872-2.023 3.05-2.817.5-.338 1.331-.644 1.715-1.111.272-.331.178-.152.191-.314.066-.879-1.992-2.733-2.474-3.43-.901-1.287-1.572-2.734-2.084-4.216-2.028-5.861-.649-12.315.569-18.188.646-3.114 1.355-6.234 1.589-9.413.218-2.985-.19-5.9-.431-8.87-.233-2.93-.171-5.954 1.083-8.666a9.55 9.55 0 0 1 2.673-3.396c1.103-.89 2.478-1.407 3.553-2.294 1.072-.882.765-2.076.486-3.295-.385-1.655-.87-3.3-.918-5.01-.084-2.98 1.131-5.885 3.03-8.138 1.957-2.328 4.753-3.904 7.775-4.257 1.383-.163 2.741.114 4.116.017 1.361-.092 1.655-.772 1.912-2.017.59-2.85.349-5.664 1.75-8.321 1.243-2.363 3.454-3.965 5.897-4.91 4.476-1.732 9.684-1.375 14.408-.353 2.787-8.209 11.491-13.59 20.053-13.657 1.337-2.27 3.602-3.963 6.184-4.96 4.272-1.651 8.796-.686 13.247-.686h.02c.445-.028.892-.04 1.338-.036.421-.024.841-.06 1.259-.105 5.065-.598 10.074-2.674 15.092-.64 2.237.904 4.015 2.298 5.142 4.08 1.696.462 3.371.991 5.013 1.606 7.119.183 14.172 4.005 17.772 10.198 5.068-.576 10.568.399 13.919 4.542a11.826 11.826 0 0 1 1.998 3.69c3.417 1.106 6.579 3.077 8.649 6.045 1.888 2.709 2.252 6.212.974 9.12 3.052 2.211 5.434 5.378 6.583 9.116a13.95 13.95 0 0 1 .353 6.855 23.43 23.43 0 0 1 8.757 3.908c2.776 2.019 6.239 5.235 6.423 8.937a6.51 6.51 0 0 1-.019.814c6.107-.43 12.335.607 16.462 5.506 3.099 3.678 4.447 8.411 3.619 12.721 7.267 1.477 14.136 5.278 18.929 10.897 3.483 4.085 6.579 9.278 6.393 14.838a13.617 13.617 0 0 1-1.13 4.921v.004c.29.548.588 1.158.876 1.807 4.502 3.15 7.772 8.092 9.614 13.536 1.486 4.412 2.421 10.14.833 14.629a10.627 10.627 0 0 1-.904 1.927c.299.32.582.638.858.961 3.033 3.548 6.105 8.018 5.895 12.902-.086 1.968-.816 3.946-2.007 5.57 4.195 4.255 7.574 9.626 7.239 15.623-.289 5.221-3.151 10.522-7.636 13.028.75 4.022-.252 8.266-3.382 11.407a12.17 12.17 0 0 1-5.352 3.155c-.435 4.737-4.637 8.551-9.099 9.647-.831.206-1.663.329-2.489.388-4.016 1.971-8.805 1.745-12.902-.062a13.255 13.255 0 0 1-4.614 3.685 14.96 14.96 0 0 1-2.346.912c-5.785 1.714-11.72-.609-16.779-3.321-.166-.087-.464-.195-.726-.316-.699.781-1.975 1.555-2.638 1.936-2.254 1.294-5.008 1.896-7.592 1.725-3.033-.203-5.71-1.205-8.188-2.632a9.32 9.32 0 0 1-1.092.118c-2.329.123-4.406-.614-6.275-1.78-1.234.164-2.5.147-3.782-.077-2.823.717-5.573-.425-7.783-2.24-.979-.804-1.807-1.749-2.691-2.65-.921-.938-1.619-1.155-2.695-1.784-2.544-1.489-2.851-5.262-1.748-7.991a3.953 3.953 0 0 1-.331-1.6c.009-5.154 2.381-9.88 5.294-14.003 1.302-1.839 2.714-3.639 4.265-5.27 1.246-1.311 2.996-3.437 4.842-3.969a8.2 8.2 0 0 1 .346-.24c-.357-1.253-.567-2.527-.478-3.829a7.885 7.885 0 0 1 1.215-3.685 26.253 26.253 0 0 1-2.831-14.573c-1.886-2.679-3.316-5.636-4.053-8.876-.455-2.007-.716-4.118-.681-6.173.017-.988.377-2.235.385-3.257-.056.324-.475-.883-.636-1.183-1.874-3.477-4.276-6.189-4.677-10.29-.233-2.398.335-5.048 1.77-7.015-.919-3.63-.908-7.528.541-10.991.385-.927.835-1.825 1.347-2.689-.237-.722-.454-1.452-.733-2.111l-.327-.788a26.683 26.683 0 0 1-2.855-2.939c-1.824-2.203-3.219-4.73-3.394-7.64-.086-1.459.256-2.852.68-4.237.186-.625.3-1.32.521-1.931.123-.338.423-.684.527-1.002l.059-.175a1.24 1.24 0 0 1-.027-.327c-.004-1.396-.186-2.758-.195-4.105a11.244 11.244 0 0 1-4.563 2.818c-3.522 1.13-7.197.62-10.314-1.126-3.357 2.299-7.127 4.382-11.081 5.219-2.349.496-4.702.292-7.059.6-2.342.305-4.606 1.327-6.812 2.125-4.91 1.775-9.807 3.597-14.73 5.327-3.978 1.396-8.281 2.503-12.445 1.718-1.169 1.802-2.687 3.328-4.632 4.446a13.745 13.745 0 0 1-4.506 1.606c-1.397.237-3.037.143-4.171 1.103-1.106.934-1.798 2.324-2.792 3.374a14.526 14.526 0 0 1-3.906 2.924 15.428 15.428 0 0 1-3.515 1.285c.116 2.653.195 5.308.237 7.963.057 5.776.035 11.55.112 17.326.077 5.755.261 11.511.563 17.259.288 5.395.693 10.809 1.978 16.072 4.264 17.462 20.237 29.964 38.117 30.601 5.309.191 10.563-.556 15.64-2.119 5.257-1.62 9.952-4.954 15.344-5.98 1.41-.265 2.737 1.155 1.93 2.518-1.392 2.344-3.081 3.775-5.392 5.185-2.419 1.473-5.114 2.565-7.774 3.522a54.076 54.076 0 0 1-15.262 3.058 48.628 48.628 0 0 1-11.818-.8c-.272.835-.754 1.647-1.118 2.42-.055.114-.237.035-.202-.081.051-.165.089-.334.112-.506-1.305 1.703-3.32 2.88-5.392 3.452a11.945 11.945 0 0 1-4.511.356 13.387 13.387 0 0 1-1.406-.235c-1.529 1.341-3.487 2.234-5.452 2.681.336 2.052-.677 4.29-3.026 4.873-.987.245-1.934.248-2.882.16a11.8 11.8 0 0 1-2.462.828c-1.138.248-2.496-.07-3.354-.894-.471.331-.91.559-1.344 1.083-1.792 2.163-5.651.44-5.822-2.059-.568 0-1.138.009-1.709.027l-.412.191c-2.497 1.161-5.083 2.176-7.846 1.264a7.183 7.183 0 0 1-1.397-.631c-1.945.175-3.864.178-5.838-.458a9.24 9.24 0 0 1-3.171-1.762c-3.046.896-6.257 1.299-9.287.192-2.268-.828-4.094-2.133-5.378-3.856a11.624 11.624 0 0 1-5.76-1.341c-3.075-1.592-5.231-4.621-6.733-7.655-3.31-6.697-5.267-13.891-6.035-21.311-.757-7.306.322-14.573 1.083-21.838" fill="#000"/><path fill-rule="evenodd" clip-rule="evenodd" d="M187.44 183.097a15.804 15.804 0 0 0 6.644-5.114 3.083 3.083 0 0 0 .621-2.385c-.14-.858-.647-1.634-1.338-2.157-.693-.522-1.561-.779-2.399-.649-.73.114-1.454.513-2.03 1.343l-.119.165a10.463 10.463 0 0 1-3.835 3.22 8.633 8.633 0 0 1-4.746.835c-3.195-.361-5.395-2.089-7.735-4.437a54.853 54.853 0 0 1-.872-.912 1.373 1.373 0 0 0-.724-.558 1.587 1.587 0 0 0-1.783.611 1.46 1.46 0 0 0-.248.963c.215 2.433 1.485 4.603 3.29 6.308 2.006 1.894 4.664 3.203 7.166 3.663 2.755.506 5.564.143 8.108-.896Zm-9.41-37.527c-2.932 1.785-7.4 5.945-4.246 10.367 3.715 3.899 9.061-.572 11.695-2.594 2.443-1.567 5.189 2.464 2.923 4.293-19.041 14.106-26.767-11.599-11.855-14.163 1.643-.283 2.252 1.545 1.483 2.097Zm34.118-16.409c-.323-4.025-6.448-4.939-7.059-.956-.544 3.568.098 6.846 1.704 10.059 1.533 3.067 5.39 1.636 5.682-1.159.392-3.745-.125-5.439-.327-7.944Zm-46.627-1.781c-.855-1.12-2.088-1.883-3.564-1.453-4.616 1.351-3.256 7.909-1.634 11.101.88 1.732 3.728 2.172 5.014.646 2.096-2.488 3.101-7.459.434-9.912a3.318 3.318 0 0 0-.25-.382Zm41.337-15.829-.73-.129c-2.256-.39-5.059-.765-6.655 1.048-.847.964-1.137 2.753 0 3.674 2 1.618 4.214.993 6.611 1.129 1.956.112 3.894.443 5.777.986 4.177 1.195 7.579 3.374 11.145 5.768.467.313.945-.285.723-.722-2.059-4.037-6.048-7.35-10.044-9.371-2.134-1.08-4.467-1.973-6.827-2.383Zm-37.129-1.808-.559.114c-6.073 1.269-13.963 3.806-16.838 9.777-.11.844.005 1.024.099 1.142l.031.041c.079.101.14.239.506.354.103-.024.206-.05.309-.077 1.318-.345 2.36-.822 3.369-1.316l1.096-.539c1.27-.625 2.551-1.225 3.91-1.668a46.05 46.05 0 0 1 8.904-1.968 3.655 3.655 0 0 0 1.787-.68 2.69 2.69 0 0 0 1-1.521c.213-.858.151-1.508-.309-2.284a2.897 2.897 0 0 0-1.41-1.215 3.299 3.299 0 0 0-1.895-.16Z" fill="#000"/></svg>