<svg width="460" height="432" fill="none" xmlns="http://www.w3.org/2000/svg"><g clip-path="url('#clip0_32_297')" fill-rule="evenodd" clip-rule="evenodd"><path d="M97.005 424.964c45.697 6.941 92.223 7.29 138.299 4.769 18.235-1.365 36.527-1.612 54.749.135 10.766.801 57.973 4.409 61.829-5.235-2.427-51.351-7.344-103.139-22.425-152.527-6.204-17.536-11.532-32.091-23.638-46.602-3.814-3.962-12.043-12.272-16.758-14.981-4.084-2.349-5.791-1.511-8.137-5.477-2.33-4.379-4.05-11.694-7.358-14.786-3.371-3.146-8.364-2.021-14.553-1.008 1.137-15.365-5.955-19.279-15.727-22.202-17.177-6.556-34.139-3.262-38.462 17.647-8.016 0-12.518 3.45-17.386 6.765-1.99 1.355-.606 4.806-2.983 5.872-4.397 1.565-12.169 1.181-16.401 3.108-19.255 8.763-36.402 21.469-47.664 40.027-25.248 39.618-42.589 123.078-39.589 170.036-1.314 2.062.503 5.018.967 7.236.583 1.928 2.472 3.211 4.444 2.992 2.751 2.96 7.006 3.618 10.793 4.231Z" fill="#FDFBF5"/><path d="M309.981 183.515c-.28-.156-.033-.558.248-.426 13.553 6.359 23.949 17.514 31.265 30.402 7.575 13.344 11.891 28.496 15.615 43.305l.134.535c3.968 15.842 7.342 31.848 10.38 47.893 3.078 16.248 5.549 32.598 7.535 49.014.982 8.116 1.86 16.247 2.542 24.395.342 4.072.652 8.146.93 12.223.113 1.63.217 3.262.306 4.892l.065 1.225c.056 1.11.189 2.222-.086 3.318-.237.945-.737 1.799-1.177 2.666-.869 1.713-3.254 1.43-4.191 0l-.271-.417c-.621-.96-1.138-1.854-1.333-3.048-.189-1.157-.195-2.37-.28-3.539-.155-2.151-.288-4.305-.439-6.456a790.437 790.437 0 0 0-1.069-13.578c-.78-8.929-1.618-17.85-2.646-26.754a860.688 860.688 0 0 0-6.819-47.306c-2.641-15.335-5.979-30.515-9.461-45.677l-.36-1.567c-6.097-26.471-15.492-56.955-40.888-71.1ZM165.632 287.166c.099-.265.528-.326.601 0 .912 4.109 1.001 8.343 1.142 12.552.138 4.151.133 8.321.071 12.475-.223 15.266-.642 30.519-1.005 45.784-.182 7.634-.351 15.269-.48 22.905-.049 2.865-.093 5.728-.126 8.593l-.043 3.777c-.021 1.67-.064 3.32-.268 4.988-.134 1.098-.42 2.144-1.026 3.085-.431.667-1.043 1.007-1.639 1.46l-.113.086c-.762.603-1.565.606-2.318 0l-.22-.174c-.72-.562-1.343-1.003-1.805-1.895-.639-1.239-.741-2.585-.849-3.95-.166-2.071-.056-4.173-.035-6.25.043-4.165.099-8.331.174-12.497.268-15.276.798-30.553 1.765-45.803.455-7.181 1.073-14.387 1.901-21.54l.157-1.341c.252-2.105.48-4.247.738-6.396a47.126 47.126 0 0 1-10.129-9.73c-.213-.275.138-.661.394-.394 2.952 3.055 6.336 5.493 10.083 7.408.613-4.499 1.457-8.974 3.03-13.143Zm64.377-136.17c.053-.041.136-.057.186 0 .827.967.66 2.443.687 3.666l.003.115c.06 1.789.071 3.573.065 5.362l-.019 5.7c-.003.783-.066 1.599-.026 2.386l.021.305a1.88 1.88 0 0 1 .491 1.736c-.027.831-.461 1.523-1.095 1.958l1.356 1.923 1.358 1.923c2.798 3.969 5.627 7.903 8.574 11.761a160.52 160.52 0 0 0 9.57 11.362 189.545 189.545 0 0 0 5.013 5.249c.692.697 1.404 1.376 2.106 2.064l.699.69c.414.414.933.823 1.208 1.346.161.309.197 1.071.255 1.197.518 1.137-.366 2.951-1.833 2.383l.067-.043c.266-.187.096-.189-.514-.008-.377 0-.748-.091-1.082-.265l-.101-.057c-.476-.24-.899-.706-1.283-1.08l-.097-.091c-.882-.826-1.721-1.703-2.567-2.567a147.256 147.256 0 0 1-5.158-5.531 173.79 173.79 0 0 1-9.475-11.738c-3.046-4.119-5.876-8.45-8.311-12.959a90.613 90.613 0 0 1-2.581-5.22c-1.581-.508-1.947-2.188-1.838-4.081-.583-1.359-1.108-2.744-1.419-4.159-.043-.195.207-.378.356-.209.507.575.974 1.187 1.424 1.814.271-1.327.614-2.55.776-3.328l.701-3.439c-3.949-.205-8.273 1.416-10.995 4.256-.148.74-.715 1.27-1.27 1.96a11.972 11.972 0 0 0-1.599 2.605c-.916 2.056-.399 5.084-2.174 6.592a1.73 1.73 0 0 1-.606.333c.842 4.131.46 8.682.442 12.873v.367c.003 4.69-.153 9.384-.335 14.069l-.183 4.638c-.239 6.185-.394 12.373.207 18.525a137.65 137.65 0 0 1 14.418-11.164l1.63-1.089c1.95-1.309 3.95-2.654 6.086-3.591 2.794-1.226 5.453-.804 8.15.452 2.687 1.253 5.295 2.706 7.931 4.063 2.68 1.379 5.366 2.747 8.051 4.119 1.778.909 4.384 1.728 5.689 3.401.083-.369.18-.738.293-1.107a2.437 2.437 0 0 1 .235-1.743c4.382-8.053 8.437-16.298 12.464-24.534 2.039-4.169 3.976-8.386 6.018-12.55l1.985-4.058 1-2.024c.5-1.01 1.021-2.009 1.528-3.017.214-.426.482-.848.69-1.278l.1-.215c.005-.012.485-1.524.114-1.38l-.031.016c-.191.108-.343-.131-.219-.283.525-.65 1.257-.074 1.556.526.826 1.655-.687 4.252-1.27 5.838l-.031.087c-1.806 5.115-3.853 10.133-5.949 15.132-4.018 9.588-8.336 19.027-12.642 28.484l-.051.162c.918-.705 1.899-1.344 2.738-1.966 2.119-1.569 4.3-3.061 6.477-4.548a210.82 210.82 0 0 1 12.261-7.723l.835-.488c2.083-1.213 4.146-2.198 6.616-1.834 2.296.339 4.432 1.572 6.506 2.575l.214.103 6.409 3.047a258.362 258.362 0 0 0-2.2-8.161 296.926 296.926 0 0 0-10.398-30.13l-.579-1.428c-.783-1.96-1.565-4.098-3.807-4.701-2.24-.604-4.809.292-6.857-.986-.186-.116-.162-.424.063-.48l1.263-.318c2.372-.591 5.154-1.185 7.397-.61 2.441.625 4.461 2.674 5.644 4.804 1.318 2.37 2.247 5.022 3.245 7.547l.159.399a293.05 293.05 0 0 1 3.307 8.629 291.332 291.332 0 0 1 5.769 17.549 332.33 332.33 0 0 1 2.398 8.576c.22.824.583 1.826.879 2.868.341.333.664.704.967 1.126.502.701.141 1.524-.484 1.944-.023.719-.182 1.394-.564 1.971-1.489 2.26-5.422 1.679-5.263-1.358.024-.465.205-.909.48-1.285l-.009-.061-.031-.111c-.682-.327-1.368-.692-2.091-1.049l-6.727-3.325c-1.949-.962-4.107-2.449-6.275-2.817-2.02-.342-4.15 1.164-5.885 2.071l-.113.059a640.14 640.14 0 0 0-12.508 6.612c-2.025 1.094-4.025 2.233-6.042 3.34-1.687.925-3.506 2.254-5.402 2.775-.81.631-1.772.547-2.545.07.353 2.188.331 4.434.441 6.67.145 2.99.167 5.989.215 8.985l.02 1.122c.127 6.62.195 13.242.22 19.864.089 23.579-.171 47.165-.232 70.742-.03 11.847-.265 23.704-.573 35.547-.13 5.018-.404 10.03-.698 15.04l-.161 2.734c-.344 5.766-.546 11.595-1.614 17.285-.139.741-1.394.759-1.518 0-.982-6.097-1.037-12.325-1.226-18.493l-.039-1.232a528.394 528.394 0 0 1-.313-19.864c.084-23.589.698-47.161 1.198-70.744.254-11.848.423-23.702.815-35.545.195-5.927.417-11.85.68-17.774.118-2.644.231-5.287.406-7.929l.08-1.132c.054-.738.099-1.466.152-2.189-2.386.872-4.57-.744-6.715-1.848-2.475-1.272-4.949-2.547-7.424-3.818l-2.477-1.267-4.959-2.531c-2.231-1.139-3.952-2.272-6.332-.937-8.578 4.813-16.461 11.216-23.603 17.936-1.371 1.289-4.265.942-4.611-1.218-1.483-9.225-.581-18.585.176-27.84l.278-3.435c.337-4.103.707-8.206 1.197-12.294.22-1.827.438-3.654.68-5.48l.186-1.367c.301-2.163.5-4.313 1.144-6.387a1.492 1.492 0 0 1-.575-.339c-1.937-1.839-1.003-5.028-.119-7.213.872-2.158 2.204-4.041 3.871-5.663a2.11 2.11 0 0 1 1.391-.593c4.041-2.677 8.473-4.013 13.087-2.552.129-.62.262-1.238.401-1.855l.142-.617c.36-1.531.492-4.06 1.813-5.085Zm41.416 241.783a3.668 3.668 0 0 1 3.546.938 3.68 3.68 0 0 1 .943 1.647 3.68 3.68 0 0 1-.006 1.898 3.64 3.64 0 0 1-2.414 2.506l-.132.04-.204.086a3.571 3.571 0 0 1-1.886 0 3.56 3.56 0 0 1-2.478-4.365l.086-.205a3.621 3.621 0 0 1 .937-1.607 3.64 3.64 0 0 1 1.608-.938Zm74.458-124.959c.206-.236.54.067.411.318-1.952 3.83-4.129 7.631-6.268 11.364.17 1.034.341 2.06.536 3.06.833 4.261 1.855 8.447 2.52 12.75 2.392 15.468 3.634 31.103 4.7 46.71 1.07 15.662 1.206 31.332 1.366 47.025.015 1.36-1.031 2.941-2.433 3.197-.643.118-1.123.094-1.764 0-1.458-.215-2.371-1.887-2.433-3.197a981.722 981.722 0 0 0-1.633-26.287c-1.156-15.526-1.862-31.092-2.796-46.633l-.328-5.431c-.353-5.886-.676-11.776-.782-17.669-.069-3.906.14-7.811.012-11.712-.119-3.599-.485-7.515.31-11.053.029-.133.238-.166.299-.04.825 1.738 1.348 3.628 1.752 5.554 2.127-2.689 4.293-5.387 6.531-7.956Zm-139.352-95.124c.298-.022.288.427 0 .46-4.174.485-8.207 2.183-12.149 3.628l-.338.122c-3.983 1.445-7.866 3.125-11.603 5.129-7.306 3.916-14.015 8.965-19.947 14.746-23.682 23.076-34.473 56.354-42.382 87.626-4.394 17.375-7.518 35.042-9.543 52.847a398.667 398.667 0 0 0-2.523 40.115 507.016 507.016 0 0 0-.033 6.977c0 1.068.19 2.41-.095 3.444-.265.959-1.01 1.804-1.561 2.602-.654.948-1.83.899-2.492 0l-.245-.326c-.707-.938-1.397-1.835-1.498-3.06-.109-1.314-.033-2.668-.038-3.989-.01-2.658.023-5.317.076-7.975.103-5.094.303-10.189.601-15.276a388.014 388.014 0 0 1 3.03-30.87 405.568 405.568 0 0 1 11.326-53.933c4.702-16.692 10.27-33.334 18.203-48.795 7.368-14.356 17.032-27.71 29.784-37.743 5.928-4.665 12.384-8.555 19.344-11.483 3.51-1.476 7.195-2.682 10.944-3.369 3.708-.68 7.399-.584 11.139-.877Zm65.612 190.58c.663-.005 1.401.141 1.969.507l.76.587c.205.263.41.528.614.794.474.619.536 1.619.439 2.357a2.765 2.765 0 0 1-.439 1.374l-.578.748c-.556.453-1.018.776-1.692.993a2.774 2.774 0 0 1-1.028.121l-.111-.007.066.008-.117-.013a9.047 9.047 0 0 1-.331-.036c-.075-.008-.151-.015-.226-.025a1.187 1.187 0 0 0-.215-.002c-.856.08-1.715-.405-2.321-.961-.548-.503-1.038-1.568-.962-2.322l.033-.315c.031-.442.143-.874.33-1.276.218-.519.525-.978.942-1.365.798-.742 1.773-1.16 2.867-1.167Zm-2.645-38.926c1.134-1.237 3.082-1.328 4.49-.58.342.182.657.475.96.72.762.616 1.06 1.727 1.103 2.662.041.925-.447 2.024-1.103 2.663l-.159.154c-.392.38-.954.713-1.503.814-.884.162-1.628.157-2.451-.191a3.773 3.773 0 0 1-1.733-1.429l-.066-.111a1.395 1.395 0 0 1-.081-.139l-.037-.073c-.788-1.516-.576-3.232.58-4.49Zm.587-39.132a2.927 2.927 0 0 1 1.535-.068 1.9 1.9 0 0 1 .972.263c.326.091.609.255.849.495.288.171.519.401.691.69.339.371.569.808.688 1.309l.138 1.023-.138 1.023-.389.92-.321.417a1.931 1.931 0 0 1-.693.692c-.184.185-.404.33-.646.426a3.615 3.615 0 0 1-3.013.534 3.551 3.551 0 0 1-2.487-2.486l-.07-.48c-.089-.647-.102-1.004.08-1.825.101-.378.246-.741.434-1.084.521-.915 1.37-1.543 2.37-1.849Zm44.434-28.15c1.469-.012 2.938-.009 4.407.008l1.103.015c1.844.028 3.426-.162 4.876 1.119 1.053.928.588 2.487-.411 3.187-1.515 1.059-3.414.526-5.154.411a230.21 230.21 0 0 0-5.51-.308 260.614 260.614 0 0 0-10.68-.277c-3.556-.01-7.112.014-10.667.075-3.616.059-7.381.397-10.977.021-.493-.051-.606-.7-.118-.869 3.388-1.173 7.201-1.552 10.75-2 3.659-.459 7.331-.793 11.012-1.003 3.785-.217 7.576-.353 11.369-.379Zm-44.44-11.514.121.003a3.793 3.793 0 0 1 1.816.455l.121.068.776.599c.475.48.805 1.044.987 1.693l.136 1.021c.021.528-.09 1.02-.33 1.478a2.889 2.889 0 0 1-.793 1.235c-.347.374-.76.639-1.235.793-.418.22-.884.335-1.358.332l-.12-.001a3.828 3.828 0 0 1-1.936-.525l-.778-.599a3.83 3.83 0 0 1-.985-1.693l-.137-1.02a2.87 2.87 0 0 1 .331-1.479c.154-.475.419-.887.791-1.235.348-.374.76-.639 1.235-.793a2.871 2.871 0 0 1 1.358-.332Zm11.374-90.132c.826-1.197 2.324-.132 2.111.831.056 2.703.194 5.327.809 7.975.282 1.212.651 2.427 1.221 3.537l.238.467c.737 1.456 1.308 2.828.316 4.426-.467.753-1.313 1.317-2.228 1.277-4.063-.175-4.621-5.829-4.868-8.987-.255-3.25.537-6.823 2.401-9.526Z" fill="#000"/><path d="M323.439 83.118c-1.325-21.758-8.386-46.425-29.164-57.108-45.806-18.384-106.033 27.912-109.222 75.208-1.111 16.191 7.878 33.882 24.303 38.382 3.652 4.839 9.176 7.793 14.626 10.359 64.929 33.686 106.871 6.304 99.457-66.84Z" fill="#FDFBF5"/><path d="M338.234 69.584a503.945 503.945 0 0 0-7.268-18.972c-2.483-6.107-4.727-12.347-7.811-18.166C304.736-2.3 271.241-2.3 253.926 2.24c-8.978-3.868-25.796-2.778-35.145.713-15.136 5.652-33.586 27.884-39.896 37.872-13.927 22.055-22.619 51.409-13.368 76.893 1.209 3.33 2.752 6.415 4.487 9.389a36.67 36.67 0 0 1-3.747 4.265c-4.144 4.101-8.288 8.065-11.867 12.691-3.56 4.596-6.507 9.483-8.704 14.87-4.139 10.164-4.338 21.669 1.134 31.366 4.764 8.438 13.199 14.72 22.702 15.319.489.068.977.131 1.467.179a27.486 27.486 0 0 0 4.548 5.65c5.369 5.106 18.167 7.726 25.467 7.895.374.301.752.601 1.131.899 4.465 3.515 9.152 7.062 14.281 9.562 3.472 1.697 8.027 3.113 11.651 1.89 1.644 1.098 4.341.868 5.97-.031 2.681-1.476 4.859-4.136 6.184-6.857 3.215-6.607 2.442-13.838 1.618-20.896-.911-7.797-1.785-15.597-2.674-23.394-.696-6.097-1.422-12.295-3.277-18.169-.958-3.042-2.213-5.967-3.838-8.716a1.415 1.415 0 0 0-.031-.678c-.531-1.73-1.629-2.635-2.93-3.81-.17-.151-.337-.305-.5-.462a15.875 15.875 0 0 0-2.093-2.014c-.286-.291-.57-.584-.853-.879-2.354-2.466-4.579-5.058-6.554-7.835-1.918-2.694-3.649-5.506-5.297-8.371-1.675-2.913-2.785-6.128-4.455-9.02a.452.452 0 0 0-.71-.091c-.519.535-.851 1.129-.788 1.756l-.259.038c-.099-.945-.968-1.714-2.152-1.508-1.768.308-3.224.424-4.757-.163.27-1.788.519-3.58.764-5.374.447-3.302.864-6.614 1.22-9.927.864.207 1.722.503 2.561.882a12.295 12.295 0 0 1 3.291 2.14c.951.875 1.61 2.054 2.77 2.663 1.336.695 2.949-.455 2.557-1.966-.793-3.054-5.288-4.803-8.07-5.381a12.882 12.882 0 0 0-2.906-.261c.328-3.131.591-6.269.79-9.41a15.904 15.904 0 0 1 6.727-.542c.742.59 1.483 1.175 2.2 1.766a443.29 443.29 0 0 1 7.388 6.22c1.329 1.143 2.986.009 2.763-1.61-1.826-13.27 6.303-23.828 15.821-32.006 10.535-9.056 29.689-10.11 42.217-25.797 5.772 1.175 18.654 4.662 23.972 13.135 7.442 11.871 6.47 22.508 7.036 35.977.568 13.477 2.009 27.534-1.053 40.823-2.821 12.254-10.465 22.723-22.322 27.536a47.93 47.93 0 0 1-.888.346c-6.132 2.312-12.823 2.966-19.273 1.749-7.139-1.35-13.099-4.617-19.038-8.636-.343-.228-.845.24-.585.583 7.828 10.375 23.204 13.843 35.401 11.104.571-.13 1.137-.27 1.7-.424-2.728 7.846-2.178 16.458 1.375 24.097 2.137 4.596 5.397 8.573 9.367 11.711 4.376 3.456 9.805 6.248 12.841 11.099 2.78 4.445 1.955 9.44-2.806 12.009-1.199.65-1.661 2.752-.472 3.676.455.349.909.706 1.374 1.056 2.666 2.012 9.987 5.789 11.172 5.93 10.529 1.247 17.608-6.483 22.146-15.602 5.326-10.704 3.942-23.747-1.929-33.94-4.707-8.178-13.98-16.238-10.293-26.588 1.315-3.698 4.005-6.849 6.618-9.696 2.98-3.242 6.184-6.279 9.041-9.637 2.841-3.333 5.359-6.961 6.765-11.145 2.053-6.114 1.032-12.724-.51-18.829-3.306-13.103-7.598-26.03-12.169-38.74Z" fill="#000"/><path d="M279.258 137.991a14.234 14.234 0 0 1-5.984-4.603 2.76 2.76 0 0 1-.559-2.146c.126-.773.583-1.471 1.205-1.941.624-.47 1.406-.702 2.161-.585.657.103 1.309.462 1.828 1.209l.107.148a9.423 9.423 0 0 0 3.454 2.898 7.78 7.78 0 0 0 4.275.752c2.877-.325 4.859-1.88 6.967-3.994.261-.266.523-.541.784-.821a1.24 1.24 0 0 1 .653-.501 1.428 1.428 0 0 1 1.606.549c.16.237.253.53.223.868-.194 2.189-1.338 4.142-2.964 5.676-1.806 1.705-4.2 2.883-6.453 3.297-2.482.455-5.012.129-7.303-.806Zm8.475-33.776c2.641 1.607 6.666 5.351 3.825 9.331-3.347 3.509-8.161-.514-10.534-2.335-2.2-1.41-4.673 2.218-2.632 3.865 17.149 12.695 24.108-10.44 10.677-12.748-1.48-.254-2.028 1.391-1.336 1.887Zm-30.728-14.768c.291-3.623 5.807-4.445 6.357-.86.49 3.21-.088 6.161-1.535 9.053-1.38 2.76-4.854 1.473-5.117-1.043-.353-3.371.112-4.895.295-7.15ZM299 87.844c.769-1.008 1.88-1.695 3.21-1.308 4.157 1.217 2.932 7.118 1.472 9.992-.793 1.559-3.358 1.954-4.517.58-1.887-2.239-2.793-6.712-.391-8.92.065-.113.138-.228.226-.344Zm-37.231-14.247.658-.116c2.031-.35 4.556-.688 5.993.944.763.867 1.025 2.477 0 3.306-1.801 1.457-3.795.894-5.954 1.017-1.762.1-3.507.398-5.203.887-3.762 1.075-6.826 3.037-10.038 5.191-.421.282-.851-.256-.651-.65 1.854-3.633 5.447-6.615 9.046-8.434 1.923-.972 4.024-1.776 6.149-2.145Zm33.441-1.627.503.103c5.47 1.142 12.576 3.426 15.166 8.8.099.76-.005.921-.09 1.027l-.028.037c-.071.09-.126.215-.455.32a13.123 13.123 0 0 1-.278-.07c-1.187-.311-2.126-.74-3.035-1.185l-.987-.485c-1.144-.563-2.298-1.102-3.521-1.501a41.463 41.463 0 0 0-8.02-1.771 3.29 3.29 0 0 1-1.609-.613 2.418 2.418 0 0 1-.901-1.368c-.192-.773-.136-1.357.278-2.056a2.603 2.603 0 0 1 1.27-1.094 2.977 2.977 0 0 1 1.707-.144Z" fill="#000"/></g><defs><clipPath id="clip0_32_297"><path fill="#fff" d="M0 0h460v432H0z"/></clipPath></defs></svg>