<svg width="236" height="236" fill="none" xmlns="http://www.w3.org/2000/svg"><path d="M117.643 118.044V.415c21.815 0 43.201 6.069 61.766 17.527l-61.766 100.102Z" fill="#5347D3"/><path d="m117.643 118.044 61.766-100.102c55.276 34.118 72.432 106.593 38.32 161.878-28.486 46.165-84.844 66.86-136.43 50.096l36.344-111.872Z" fill="#3D03B7"/><path d="M117.643 118.044 81.299 229.916C19.523 209.841-14.284 143.48 5.788 81.695a117.707 117.707 0 0 1 9.149-20.966l102.706 57.315Z" fill="#A09CCE"/><path d="M117.643 118.044 14.937 60.729A117.611 117.611 0 0 1 77.11 7.622l40.534 110.422Z" fill="#443F7D"/><path d="M117.643 118.044 77.109 7.622A117.593 117.593 0 0 1 117.643.415v117.629Z" fill="#11096B"/></svg>