<svg width="257" height="263" fill="none" xmlns="http://www.w3.org/2000/svg"><g clip-path="url('#clip0_8_552')"><path d="M47.08 235.72h.8V239h-7.84v-3.28h1.2l-.32-1.6H38.2l-.32 1.6h1.2V239h-6.84v-3.28h.8l3.38-12.28h7.28l3.38 12.28ZM38.64 232h1.84l-.82-3.98h-.2l-.82 3.98Zm16.553 7.28c-2.094 0-3.714-.46-4.86-1.38-1.134-.92-1.7-2.413-1.7-4.48v-6.7h-1v-3.28h7.4v3.28h-.8v7.72c0 .44.093.767.28.98.2.2.493.3.88.3.386 0 .673-.1.86-.3.2-.213.3-.54.3-.98v-7.72h-.8v-3.28h6.86v3.28h-1v6.7c0 2.067-.554 3.56-1.66 4.48-1.107.92-2.694 1.38-4.76 1.38Zm14.344 0c-1.28 0-2.493-.107-3.64-.32-1.133-.227-2.006-.48-2.62-.76v-3.96h4.4c0 .413.094.713.28.9.187.187.527.28 1.02.28.414 0 .707-.06.88-.18.187-.133.28-.327.28-.58a.682.682 0 0 0-.26-.54c-.173-.16-.473-.32-.9-.48l-1.72-.6c-1.48-.56-2.546-1.22-3.2-1.98-.64-.76-.96-1.787-.96-3.08 0-1.573.514-2.767 1.54-3.58 1.04-.827 2.767-1.24 5.18-1.24 1.16 0 2.247.12 3.26.36 1.027.227 1.854.533 2.48.92v3.58h-4c0-.667-.413-1-1.24-1-.4 0-.686.053-.86.16-.16.093-.24.267-.24.52a.63.63 0 0 0 .28.54c.2.133.52.273.96.42l1.74.6c1.414.48 2.44 1.107 3.08 1.88.654.76.98 1.76.98 3 0 1.693-.573 2.973-1.72 3.84-1.133.867-2.8 1.3-5 1.3Zm22.197-11h-3.44v-1.56h-1.28v9h1.4V239h-8.4v-3.28h1.4v-9h-1.28v1.56h-3.44v-4.84h15.04v4.84Zm.686 7.44h1v-9h-1v-3.28h9.18c1.72 0 3.033.353 3.94 1.06.906.707 1.36 1.853 1.36 3.44 0 .893-.18 1.667-.54 2.32-.36.653-.874 1.107-1.54 1.36l.02.2c1.28.2 1.92.987 1.92 2.36v1.54h.94V239h-6.34v-4.7c0-.52-.08-.913-.24-1.18-.147-.267-.387-.447-.72-.54-.32-.093-.78-.14-1.38-.14v3.28h1.32V239h-7.92v-3.28Zm7.68-5.72c.386 0 .673-.1.86-.3.2-.213.3-.54.3-.98V228c0-.44-.1-.76-.3-.96-.187-.213-.474-.32-.86-.32h-1.08V230h1.08Zm22.996 5.72h.8V239h-7.84v-3.28h1.2l-.32-1.6h-2.72l-.32 1.6h1.2V239h-6.84v-3.28h.8l3.38-12.28h7.28l3.38 12.28Zm-8.44-3.72h1.84l-.82-3.98h-.2l-.82 3.98Zm9.873 7v-3.28h1v-9h-1v-3.28h8.44v3.28h-1.84v9h1.8v-1.84h3.98V239h-12.38Zm13.066 0v-3.28h1v-9h-1v-3.28h7.6v3.28h-1v9h1V239h-7.6Zm23.079-3.28h.8V239h-7.84v-3.28h1.2l-.32-1.6h-2.72l-.32 1.6h1.2V239h-6.84v-3.28h.8l3.38-12.28h7.28l3.38 12.28Zm-8.44-3.72h1.84l-.82-3.98h-.2l-.82 3.98Z" fill="#E55933"/><path d="M38.6 263.28c-1.28 0-2.493-.107-3.64-.32-1.133-.227-2.007-.48-2.62-.76v-3.96h4.4c0 .413.093.713.28.9.187.187.527.28 1.02.28.413 0 .707-.06.88-.18.187-.133.28-.327.28-.58a.682.682 0 0 0-.26-.54c-.173-.16-.473-.32-.9-.48l-1.72-.6c-1.48-.56-2.547-1.22-3.2-1.98-.64-.76-.96-1.787-.96-3.08 0-1.573.513-2.767 1.54-3.58 1.04-.827 2.767-1.24 5.18-1.24 1.16 0 2.247.12 3.26.36 1.027.227 1.853.533 2.48.92v3.58h-4c0-.667-.413-1-1.24-1-.4 0-.687.053-.86.16-.16.093-.24.267-.24.52a.63.63 0 0 0 .28.54c.2.133.52.273.96.42l1.74.6c1.413.48 2.44 1.107 3.08 1.88.653.76.98 1.76.98 3 0 1.693-.573 2.973-1.72 3.84-1.133.867-2.8 1.3-5 1.3Zm15.626-15.84h6.14v3.28h-.8l-3.86 6.92v2.08h1V263h-7.6v-3.28h1v-2.08l-3.98-6.92h-.8v-3.28h7.74v3.28h-.7l1.18 3.1h.2l1.18-3.1h-.7v-3.28Zm6.787 12.28h1v-8.98h-1v-3.3h8.12c2.227 0 3.994.613 5.3 1.84 1.32 1.213 1.98 3.193 1.98 5.94 0 2.747-.66 4.733-1.98 5.96-1.306 1.213-3.073 1.82-5.3 1.82h-8.12v-3.28Zm7.76 0c.454 0 .794-.12 1.02-.36.227-.24.34-.613.34-1.12v-6.04c0-.987-.453-1.48-1.36-1.48h-1.16v9h1.16Zm19.835-12.28h6.56v3.28h-1V263h-5.62l-5.86-9.02v5.74h.96V263h-6.56v-3.28h1v-9h-1v-3.28h7.22l5.26 8.02v-4.74h-.96v-3.28ZM95.934 263v-3.28h1v-9h-1v-3.28h13.5v6.04h-4.48v-2.76h-2.42v3.16h1.76v2.28h-1.76v3.56h2.42v-3.16h4.48V263h-13.5Zm22.998-15.56h6.14v3.28h-.8l-3.86 6.92v2.08h1V263h-7.6v-3.28h1v-2.08l-3.98-6.92h-.8v-3.28h7.74v3.28h-.7l1.18 3.1h.2l1.18-3.1h-.7v-3.28Z" fill="#171619"/><path d="M113.67 16.047v-.209l.361-.46-.873-.588.198-.46.244-.122.891.03.058-.204-.064-.553-.175-.344.163-.238.565.029.629.407.826.04.582.42.355.052 2.771-.186.826.262 1.019-.698.867.017.355.675-.215.466.343-.35.047-.15-.128-.752.122-.227.844-.302.664.244.419-.035-.245-.029-.448-.332-.07-.296.047-1.846.355-.558-.955-.71-.32-.454-.262-.163-.477-.088-.902.152-.78.419-.123-.012-.611-.611-.122-.42-.663-.354-.594.052-.041-.07.693-.826.698-.32.67.657.477 1.13.244.023.192-.35-.273-.85-.291-.523.221-.052.6.203.407-.215 1.03.861.064.28 1.001 1.28.344.076.291-.227.646-.966.273.023.495.53.949 1.717.233.186.431.128.355-.239h.314l.32.466.896.378.431.012.309-.099.611-.332.233-.314.686.116.07.198-.436.25-.099.152.029.157.198.186.454.192.349-.163.186-.244.146-.023.855.652-.075.122.087.518.122.099 1.031-.152.325.134.6.053.524-.064.466-.355.622-.035.629.873.797.413.547.454.687.064.245.11-.035-.122.256-.663.39-.39.326-.14.367.163.937-.11.483-.39-.146-.082-.361.215-.064-.157.134-.483.582-.157.431.012.803-.64-.023-.449.233.006.215.25-.192.309-1.077.914.268.314-.728.745-.029.204.123.302.296.28.321-.14.093-.262.518-.425.879-.256-.536.675.216.326.465-.215.111.192-.507.733.175.431.186.175.262-.169.477-.052.088.15.436-.04.338-.262.442-1.123-.169-.221-.599.075-.384-.163-.029-.157.657-.652 1.071-.716.705-.128-.146.483.396 1.112.448.652.285-.006.245-.174-.018-.14-.413-.151.035-.123.512-.128.641.326.646.873-1.1.769-.373.43-.64 1.03-.146.78-.797-.296-.064.43.39.722-.006.623-.105.611-.442.664-.058-.204-.513.175.024-1.147-.099-.099-.198.047-.25.675-.542.471-.256.018-.087-.25-.309-.123-.657.256-.419.344-.227.39.017.18.256.198-.169.378-.279.233-.117.728.274.809.245.134.349-.088.273-.308-.035.483-.198.675-.401.617-.175 1.17-.174.338-.734.494-.832 1.077-.512.885-.012.471-.792.536-.256-.006.39 1.13.268.401.419.355.809.291 1.147.733.588.536 1.694.879.18.157.151.797.35.408 1.571.75.646.536.588.64 1.671.07.669.35 1.467 1.041.751.32.349-.011.652.215.576.285.768 1.223.897.762v63.765l-42.758.006-8.423-.006-5.652.041-.034-59.138V30.471l.564.186.605.524-.069 1.187.104.128.414-.512-.239-1.577.07-.146.652.18.815.414 1.303 1.455.053.314.349-.133-.431-.565-.232-.483-.082-.483.14-.274.07-.436.972.169.401-.134.507-.49-1.13.356-.57-.367-.454-.594-.105-.302.233-.117.501-.052.413-.291.023-.14-.71.239-.757-.14-.535-.308-.611-.582.075-.518.379-.722.39-.518 1.519-.955.343-1.618-.035-.297.297-1.17.448-.465.059.407.221.128.611-.11.774-.524.635-.67-.064-.238-.396-.542-.216-.18-.215-.047-.052-.14.058-1.14.105-.285.262-.117.087.163.186.087.239-.052.407-.29.163-.356-.058-.856.064-.215.978-.437.582.664.559-.04-.536-.158-.18-.68.169-.414.046-.512-.192-.146.309-.128.896.285.803 1.356Zm.396-4.505-.617-.512-1.158-.477-1.164-.914-.472-1.24-.338-1.251.047-.472.134-.104.879.768.262.425.832.262.885-.21.343-.32.664.285.739-.57.192-.018.128.437.326.466.029-.163-.215-.542.075-.32.42-.332.925.373.699.92.052.483-1.612 1.693-.204.03-.78.5-1.071.803Zm37.595 14.441.099-.163.274-.017-.163.815-.332.128-.873-.233-.751.11-1.607-.401.222-1.112-.047-.477.146-.541.18-.309.856-.163.203-.157-.18-.408.53-.442.273.018-.046.296-.245.17.233.674.599.105.21-.221-.064-.221.116-.157.21-.059.186.134.047.239-.623.64-.332.216-.39.867.012.6.18.156.844.129.233-.216Zm-40.54-15.087-1.048-.401-1.461.372-.349-.07-.099-.157-.047-.169.35-.634.291.175.238.011.233-.227-.017-.89-.105-.274.518-.902.559-.117.931 2.329.448.116.472.425-.146.32-.768.093Zm37.979-2.45.023-.297.856-1.24.541-1.094.285-.151-.308 1.187-1.03 1.443-.14.129-.227.023Zm-24.691-.716-.186-.198-.221-.611-.187-1.065.484-.187.302.996-.011.628-.181.437Zm28.172 28.98-.361-.267-.396-.588.116-.338.361-.355.286.355.238.774-.163.414-.081.006Zm-5.39-12.793.017-.233-.203-.355-.163.11.099.31h-.268l-.099-.123.058-.541.553-.437.268.047.279.378-.087.413-.21.338-.244.093Zm-.117-13.97v-.296l.577-.46.477-.023.838-.652-.058.32-.635.483-1.199.629Zm2.16 25.564-.163-.081.128-.547.361-.245.18.082-.11.716-.396.075Z" fill="#171619" stroke="#fff" stroke-width=".5"/><path d="m8.422 105.23.111-.215.006-.856-1.415-1.495-.75-1.409-.687-1.74-.67-.408-.57-1.618-.052-.308.07-.629-.39-.646-.798-.931-.227-.664-.035-1.368.256-.663.14-.85.541-1.746.437-.873.896-.705.157-.588.088-.785-.14-.908.367-1.118-.07-.663-.344-.95-.518-.733-.093-.553.908-1.839.844-2.427.611-.908.373-.21.465-.081.082.163-.314.594-.309 1.787.408.86-.198 1.258.273.28 1.38-.582.174-.728.384-.984 1.042-1.81.163-.559 1.845-1.024.693-.052 1.217-.606 1.303-.5 1.06-1.252.384-.297.797-.343.751-1.13 1.484-.692.163-.43.402-.222.384-.046 1.048-.373.826-.512.64-.541.513.11.274.274.279.075 1.205-.646.622.216.204.232.443.198.471.088.402-.006 1.763-.361 1.042-.454 1.385-1.333.693-.413.087.169.268.005 1.962-.326.71.041.908-.303.943-1.129.186-.506.635-.483.686-.064 1.549.384.93.36 1.287-.663 2.87-.419.617-.204 3.422-1.426.943-.489 1.578-1.315 1.338-1.81.955-2.055.873-1.176-.076-.535.227-.5.152-.146.413.099.314-.169.466-.372.337-.495.39-.192 1.322-1.042.192-.466-.035-.36-.186-.175-.5-.14-.286-.425-.07-1.246-.373-.966.018-1.286.198-.786.518-.89.774-.734.43-.273.804-.006-.32-.716.268-.361.174-.07.14.134h.151l.71-.245.064-.186-.163-.238.152-.635.18-.203.332-.07.332-.367.035-.361.133-.215.449-.163.43.43-.133.17-.315-.036-.21.728.402.547.483.303.129.5 1.21 2.264 1.554 2.486.14.541.116-.576-.215-.42.023-.517.35-1.06-.286-.873.117-.5.401-.012.804.972.465.42.227.098.157-.087-.244-.117-.291-.36-.227-.908.6-.687-.21-.11-.483.145-.1-.07-.308-.658-.692-.75.035-.717-.71.012-.484-.437.431-.017.931.21.431-.652.053-.338-.065-.256-.704-.14-.227-.203-.017-.577.087-.186.984-.215.506.395-.14.309-.326.087.676.71.331.07.012-.256.454-.617.768.11.338.152.169.11.227.542.174.122.652.035.326-.372.576.279.652.064.95-.134.674.297.361-.151-.489-.047-.745-.35-.518-.121-.332-.024-.518.152h-.39l-.11-.117-.157-.704.343-.78.256-.058.303.46.471-.326-.046-.6.186-.68.71-.717-.355-.145-.343.099-.513.873-.296.006-.553-.478-.18-1.28.54-1.24.198-.087.588.337.472-.244.11-.163-.07-1.252.268-.064 1.31.67.512.495 1.188.576-.664-.588-.035-.146.303-.553-.134-.14-.541-.005-.63.233-.069-.373.233-.326.244-.116.18.116.251-.43-.198-.053-.826.547-.175-.006-.186-.494.204-.262.273-.128.373.11.133-.04.332-.233-.093-.221.378-.268.437.983.11.07.065-.28-.082-.558.745.437.018.232.25.123.588-.03.128-.122-.11-.093-.193.018-.169-.152.187-.18-.687-.489-.623-.309.21-.244.168-.058-.675-1.001.681-.972.588-.49.332.14 1.269.03.064-.792-.122-.762.081-.437.163-.122.698.331-.547 2.317.117-.122.39-1.345.762.39-.116.699.122.227.373.232.558-.622.297-.21.18-1.111.484-.984.023-.408-.413-1.059-.402-.256.314-.07.507.076.436.22-.052.49-.326.14.215.71.268.075.338.344.163-.256-.117-.344.25-.582.618-.489.448-.064-.297.728.716.925.204.058.651-.686.542-.984-.274-1.14.71-.286.617-.146.39.315.361.465-.11.245.448.553.157-.25.006-.21.553-.023 1.158.372.605.856.867.582 1.892 2.63.274-.133 1.07.92.117.634-.302.437-.449 1.513.064.687-.04 1.24-.332.663.302-.175.175-.244.221-1.432.315.128.477.472.186.617.03-.629-.426-.74-.203-.814.721-.99.129.024.168.832.6.017.064-.296-.25-.454-.198-.856.937-.268 2.933.734v15.651l.035 59.131-.075 40.873-1.31.57-1.508.879-2.345 1.065-1.077.431-1.735.337-2.543.984-1.327.233-2.765.128-1.816-.175-1.391-.401-.699.343-.61-.134-1.049.571-1.839 1.513-.448.198-.896.192-1.939 1.071-.733.658-.838.506-2.171.355-.763.303-.582.477-.53.675-.657 1.909-.297 1.252-.605.425-.57.599-.216.431-.006.204-.28.308-.948.646-1.089-.081-.163.064-.378.512-.291.221-.43.14-.426-1.001-.523-.221-1.095.372-.727-.105-.862.035-.116.117-.902.093-.5-.099-.356.14-.227.261-.07.385-.838.087-.245-.082.134-.285-.186-.657-.367-.472-.128-.047-.489.088-.349.332-.512.145-1.63-.588-.39-.029-.791-.017-1.799.314h-1.193l-.448.239-1.59.221-.78.431-1.035-.262-1.566-.082-1.21.373-.466.512-.774.413-.332.378-.524.92-.087.466-.897.879-.739.436-.82-.291-1.06-.099-1.088.739-.129.192.222.245-.222.25-.512.315-1.018.331-.373.384-.192.507-.67.5-1.262.676-1.543.279-.023.157.151.163.873.192-.39.221-.477-.087-.472-.372-.36-.134-.396.023-.198.14-.146.529-.483-.384-1.269-.535-2.415-.012-.332.309-.145.005-.938-.302-.774.122-.896-.256-1.537-1.025-1.536-.355-.379-.89-.628-.728-1.048-1.071-.96-.64-1.147-.6-.46-.052-.46.111-.29.378-.717-.762.006-.658-.332-2.352-.023-1.315.274-1.269.268.076.39.582.75.32.6-.053.512-.186.21-.122 1.787-2.573-.274-2.118-.471-2.329.145-.506.483-.6-.023.239-.361.402-.012.302.256.728.175.262.116-.082-.011-.407.29-1.071-.185-1.874.145-.961-.11-.716.034-1.496-.238-1.309-.152-.413-1.542-2.812-.437-1.304-.366-.849-.902-1.572-.763-1.95.047-.198-.198-1.478-.42-1.444-.127-.11.029-2.823.227-1.322-.315-1.1-.163-.262-.099-.675-.331-.786-1.362-1.618-.175-.529-.046-1.176-.513-1.036-1.234-1.845-.477-.291-.489-.699-.378-1.705.081-.53.21-.495-.122-.739-.309-1.077-.861-1.787-.873-1.635-1.35-1.95-1.927-2.049-.356-1.123.291-.582-.04-.646.023-.169.122-.087.105 1.362.192.395.198-1.117.937 1.158.128.378.076 1.194.145.43.466.594.198.041.017-.181.408-.279.268.064.454-.675.034-1.199-.454-.606-.867-.57-.64-.664-.367-1.513-.64-1.036.11-.576.385-.611.18.134.588 1.059.67.576.232.658-.151.826-.175.192.018.594.186.541.32.03.215-.233.507-.978.332 1.641.174.448.699.938.791-.623.17-.565-.193-.273-.122-.495.215-1.356.221.104Zm-6.536 1.007-.186-.151-.938-1.42-.471-.949L0 102.623l.04-.611.251-.361.314.075-.128.309.024.192.745 2.13.64 1.164.128.46-.128.256Zm71.506-72.035-.053-.18-.337-.315.052-.29.157-.251.413-.169.548.914-.78.29ZM15.552 70.15l-.215-.18-.157.15-.046-.052.005-.355.646-.873.21-.128.076.04.087.46-.03.204-.366.57-.21.164Zm61.734-41.128-.332-.18.04-.496.146-.372.297-.309.291.326-.145.71-.227.111-.07.21ZM228.33 178.122l-.734-.373-.838-1.251-.169-.46.012-1.071.303-1.49 1.659-1.223.739.419.332.39.582.216.39.25-.286.256-.588-.081-.471.227-.303.419-.361 1.449.14 1.601-.046.227-.361.495Z" fill="#171619" stroke="#fff" stroke-width=".5"/><path d="m234.238 190.618-11.205-5.646-.57-.046.512-.885.064-.564-.582-1.188-.402-.512-.326-2.573-.687-.436-1.059-.454-.541.209-.891-.169-.588.099-.588.734-.57.052-1.059.373-.85-.059-1.409-.442-.564-.442-.652-.099-.396.052-.221.233-.664.285-1.309-.116-1.805-.344-.442-.186-.745-.716-.46-.361-.157-.017-.478.105-.552.302-.553-.052-.216-.175h-.774l-.792.204-.116.14-.221.803.099.792-1.118.314-.244-.064-.78-.454-1.327-1.554-.326-.745-.146-.152-.361-.116-.64-.57-.489-.676-1.082-.576-.972-.739-.449-.163-.262.058-.39-.291-.104-.163.145-.442-.244-.379-.512-.128-.472-.291-.291-.64-.169-.96.152-.763.005-.483-.081-.122-1.345-.734-.943-.064-.745-.302-.087-.21-.396-.262-.361.123-.11.157-.204.902-.285.361-.536-.105-.215-.25.017-.152-.337-.902-.547-.506-.029-1.095-.879-1.478-.507-.349-.727-.332-.99.204-.937-.245-.559.216-.355.489-.308.163-.111-.152-.704-.43-1.036-.484-1.089-.081-.192-.052-.296-.292.029-37.077.75-.005 12.689.005h36.798l.483-.238.739-.926 2.02-1.717.699-.192.163.029.099.21.552.163 1.945-.169.908-.349.855-.105.175.041.483.5.436.297 1.054.029.955-.198 1.594.728 1.613 1.391.075 1.094.256.571.14.064.309-.076.302-.32.571-1.164 1.088-.483.233.448.39.186 1.211-.582.203-1.17-.57-1.292.611-.483.71-.349 1.258-.414.256-.174.128-.326.361-.303.279.041.413.425 1.036.227 1.182-.122 1.042.069.483-.64.844-.157.692-.268.472-.384.454.413.087.472-.203 1.554.116.815.291.396-.116 1.443-.996 1.304-.698 2.049.174.506-.704 4.011-.308 1.175-1.176 3.306-.082 1.95.099.355.221.029.111.449-.646 2.165-.122.855-.664 2.195-.559 1.141-1.28 1.618-.291.756.186.984-.076 1.042-1.1.931-.471.547-.972.606-.053.32.158.338-1.211.424-.891.46-.902 1.356-.599 1.485-.14.116-.32.023-.297.239-.064.343.268.239-.204.809-.722.966-.273 2.038-.152.547-.227.174-.366-.04-.495.197.349.094.256.238-.512.833-.57.424-.565.833-.594 1.729.256.314-.314 1.432-.407.256-.128.442.221.646.442.46-.099.512-.169.146-.209-.227.076-.157-.088-.355-.169-.018-.401.25-.047.257.163.395-.355.396-.675.373-.343.646-.035.326-.466 1.35-.32.518-1.222 2.678-.158 1.332-.011 1.688-.367.478-.338 1.874-.36 1.31-.402 1.012.029 1.147.629.728.081.547-.006.262-.186-.059-.268.198.012.92.21.896Zm-5.547-12.991.046-.233-.14-1.601.361-1.443.303-.425.477-.227.588.081.28-.25-.39-.25-.583-.21-.331-.395-.74-.42-1.658 1.223-.303 1.49-.012 1.077.169.459.844 1.252.151.128.635.215.303-.471Z" fill="#171619" stroke="#fff" stroke-width=".5"/><path d="m147.849 164.891-.629 1.013-.512.227-.542.926-.651.407-.39.774-.449 1.356.158.076.279-.035.844-.594.087.402-.099 1.508-.302.128-.169-.321-.53-.587-.378-.233-.396.058-.279.658-.227-.006-.239-.46-.832-1.088-.938-.967-.494-.395-.204-.064-.652.227.25-.693.361-.518.029.477.827.885.332.227.628-.204-.64-.256-.081-.239-.035-.197.104-.233-.279-1.572-.483-1.286-.076-.862-.425-.657-1.012-1.141-1.217-.99.175-.727-.064-.524-.315-.896-.64-1.322-.722-.279-1.17.186-.5.285-.384-.43.005-.192-.465-1.24-.769-1.746.507.034.25.233.087.379.431-.588.128-.384-.128-.664-.448-.634-.396-.344-.18-.029-1.001.314-.408.39-.238-.046.011-.606.181-.413.32.128.105-.174-.786-1.095-.635-.372-.395-.355.069-.274-.43-.134-.158.128-.093.379-.518.326-2.014-.14-.192-.047-.442-.477-.582-.209-.891-.844-.302-.163-1.269-.152-.606.123-.471.436-.547.192-.396.029-.436-.11-1.066-1.077-1.629-1.182-2.556-1.321-1.367-.512-.21.023-.646.524-1.065.413-.32.041-3.353-.25-.722.023-1.344.105-.617.157-3.83.326-1.455.238.034-40.848 5.652-.041 8.423.006 42.758-.006h18.957l.018 21.274-.029 37.077-.163-.215-.024 31.664-.739-.076-.5.151-.46-.017-1.065-.57-1.101-1.106-.745-1.508-.739-1.123-.454-.32-.355.017-1.135-1.525-.396-.791.198-.408-.017-.32-.297-.739.116-.728.449-.372.244-.629-.006-1.053-.233-.833-1.106-2.695-1.746-2.328-1.152-1.24-.675-.547.308.099 1.723 1.508 1.141 1.565.483.996-.07-.542-.291-.82-.239-.355-.75-.868-2.201-2.107-.011-.687.39-.157.477.414-.058.972.099.133.593-.064.163-.675.076-1.03-.105-.739-.908-.448-.489.483-.349.104-.372-.017-.32.14-.129.314.064.204.361.116.123.151-.286.367-1.705-.145-.448.186-.379.46-.343.238-2.282.123-.518-.39.379-.67.838-.419.966-1.042.18-1.018-.075-.268.064-.489.308-.675-.209-1.246.145-.687-.052-.337-.384-.664-1.013-1.24-.349-1.257-.803-1.368-.152.035-.384.897.169.337-.093.32-.6.617-.221.763-.087 1.42-.798 2.596-.006.64-.465.379-.897-.408-.459-.116-.245.046-1.187.449-.268.436-.151.099-.879-.134-.489.431-.361.134-.204-.099-.18-.303.233-.378.43-.425.152-.367.104-1.082.297-.437.53.21.541-.146.559-.035.111.175.541.244.314-.169.128-.32.28-1.827-.111-1.426.076-1.415-.262-.96.093-.128h.308l.187-.361.32-1.059.052-.548 1.106-1.414.71-.698.268-.076.105-.274-.204-.89-.64-1.228.192-.571.361-.256.337-.134.408-.011.174-.14-.046-.384-.192-.367-.344-.145-.366-1.665-.332-.739-.175-.903-.337-.256-.053 1.217.146.081.145.256.041.798-.209 1.082-.332.018-.804.256-.675.733-.652 1.298-.035.623-.116.349-.954 1.787-.431.361-.769.029-.448-.273-.413.617.116.081-.244.256-1.793.949-1.053.827-.361.372-.035.245-.314.593Zm10.145 11.746.96.262.309.419.006.408-.46.413-.751-.367-1.013-.075-.89.419-.117.163.082.535-.181.181-.826.407-.617-.629-.833-.157-.232.076-.07.285-.181.105-.751-.07-.832.128-1.187.035-.204-.338-.896-.745-.03-.273.297-.873 2.317-.687.495-.006.593-.14 1.246-.553 1.321.111.373.355-.006.629.087.116.606.082.622.355.373.029.39-.6Z" fill="#171619" stroke="#fff" stroke-width=".5"/><path d="m231.717 192.388-.768.378-.931.093-3.056.018-1.059.151-1.042-.041-1.17.082-2.183.646-1.292.64-1.38 1.048-1.065.995-1.007 1.001-1.536 1.787-.606.536-1.414.18-1.385.349-.495-.157-.576.035-.262.111-.222.331.705 1.287.727-.513.134-.488.227.104.093 2.189-.372.471-.198.099-.297-.139-.175-.262-.459-1.205-.664-.833-.489-.209-.308.099-.088.25-.622-.052-.513-1.036.152-.245-.198-.372-.559-.088-.437.291-.32.053-.262-.152-.948-.96.104-.751.559-.233.221-.39-.442-1.012-.262-.169-1.193.087-.268.897-1.152 1.187-.559.111-.256-.041-.885-1.03h.751l.663-.297.926-1.63-.204-.751-.78-1.205-.366-.186-.588.268-.844.809-1.036.774-.891.093-.111.111.035.291.873.151.489-.169.291-.215.437.122.093.233-.07.355-.326.5-.157.117-.541-.128-.972.209-.204.123-1.903 1.286-1.386 1.705-.698.192-.233.163-.14.356-.82.605-.239-.064-.39-.46-.355-.21-1.31-.419-.296-.302-.536-.332-.483-.064-1.065-.431-1.694-1.309-.984-.39-.698.168-.117.134-.57-.011-.617-.355-.617-.513-.908-.198-.442-.005-.454.128-.373.314v.25l.192.379-.5.139-.739-.361-.548-.663-1.1-1.03-.564-.373-.856-.396.023-31.664.163.216.297.291.192.052 1.089.082 1.036.483.704.43.111.152.308-.163.355-.489.559-.215.937.244.99-.204.727.332.507.349.878 1.479.03 1.094.547.506.337.903-.017.151.215.25.536.105.285-.361.204-.902.11-.157.361-.123.396.262.087.21.745.303.943.064 1.345.733.081.122-.006.483-.151.763.169.96.291.641.471.291.513.128.244.378-.146.442.105.163.39.291.262-.058.448.163.972.739 1.083.577.489.675.64.57.361.117.146.151.326.745 1.327 1.554.78.454.244.064 1.118-.314-.099-.792.221-.803.116-.14.792-.204h.774l.215.175.553.053.553-.303.478-.105.157.018.46.36.745.716.442.187 1.804.343 1.31.116.663-.285.222-.233.395-.052.652.099.565.442 1.409.443.849.058 1.06-.373.57-.052.588-.733.588-.099.89.168.542-.209 1.059.454.687.436.326 2.573.401.512.583 1.188-.064.564-.513.885.571.047 11.204 5.646-.494.314-.722.064-.71 1.083-.571.291Zm-26.681 5.558-.454-.174-.082-.367.157-.518 1.013.209.256.303-.07.117-.407.005-.413.425Zm-.012 1.118-.215-.262-.309-.134-.978.082.018-.088.442-.431.588-.116.169.111.338.809-.053.029ZM234.238 81.576v.104l.39.373-.326-1.124-.413-.85.005-.32.245-.646.25-.326.28-.075.221.093.483.745.285.809.768.314 1.001.687.716.326-.366-.867-.006-.512.175-.356.459.082.449.67-.187.43.047.332.855 1.216-.401 2.719.355.733-.076.978.419.85.513.279.471.07.18.413.431.326.303.873.448.245h.21l.296.21.67.826.43.128.338.267-.099.158.041.192.174.07.309-.303.012-.373.151-.145.279.081.658.757.92.82.483 1.438.768 1.258.92.704.89.35.315.36.186.448.064.833 1.036 1.717.867.262.623.04.245 1.025-.076.617-.256.262.035.815.139.39.21.197.192.053.338.826.908.414.023.168-.303.658-.413 1.688.116.454.158 2.078.174.425.087 2.485-.39.123-.384.541.192.966.693.536.512.64.396 1.356.536.751.186.506-.14.949.314.792.291.407-.471.384-.693.268-.844.157-.483.64-1.042-.069-1.181.122-1.036-.227-.414-.425-.279-.041-.361.303-.128.326-.256.174-1.257.414-.71.349-.611.483.57 1.292-.204 1.17-1.21.582-.39-.186-.233-.448-1.089.483-.57 1.164-.303.32-.308.076-.14-.064-.256-.571-.076-1.094-1.612-1.391-1.595-.728-.954.198-1.054-.029-.437-.297-.483-.5-.174-.041-.856.105-.908.349-1.944.169-.553-.163-.099-.21-.163-.029-.698.192-2.02 1.717-.739.926-.483.238h-36.816l-12.688-.005-.757.017-.012-21.268h-18.957V41.454l1.228 1.001.605.233 1.24.297.966-.058.303.221.983.413 1.06.152.826 1.146.134.85.32.617.303.297.483.169.635.075.622.414.513.518 1.251.36.431.257.611.547.25.105.716.04 1.671-.302.867-.32.541-.292.873-.675.478-.169.331-.605.355-1.374.093-.983 1.502-1.95.582-1.316.187-.954.704-1.851-.163-1.1.378-2.41 1.1-2.52.198-.798-.623-1.71-.285-1.834.093-.536.361-.925.047-.722-.14-.506-.634-.757-.053-.78.46-1.91.925-1.798-.069-.285-.291-.326-.286-1.118.053-.186.081-.145.646-.408.245-.297.308-.855.379.116.203.35.006.517.268.408.052-.274-.355-1.036-.279-.204-.768-1.152.186-.151-.122-.093-.414-.03-.052.379.198.268-.367.116-.221-.099.012-.146.593-1.286.553-.762-.099-.221.286-.815.273-.408.274-.122.157.768.675-.134.052-.157-.512-.5-.023-.262.14-.745.972-2.794.227-1.426-.128-1.124.058-.157.233-.169 1.001-.174.355-.472.285-.716.471-.017.594.28-.198.302-.419.384-.046.588.401-.512.227.017.856.728.273.6.489 1.99-.163.768.175 1.31-.047.75.687.606.437.035.413-.186.181.07.424.465-.611.984-.128.541-.029.705.326.093.198-.053.559.274.174.192.024.675.279.291.239.024.43.326-.349.809-.081.68.273.14.623-.07.064.128-.099 1.415.146 1.327.046.233.25.238.163.35-.052.605-.355 1.49.448 1.164.536.565.081 1.047.245.868.285.61.215.234.454.244.786.006.896-.698 1.781-.815.262-.588.251.058.395.594-.075.617.302.82.396.472.955.366.431.03.395.878 1.56.705.693.541-.041.384-.477.844.023.384.25.414.082.483-.256.75.355.705.343 1.17v1.181l.32.32.332.775-.105 1.338-.238.332-.041.675.058.193.332.21 2.159 2.694.21-.175.588-.099.151.187-.489.925.029.204.449.768.494 1.158.338 1.24.116.914-.116.629.093.675-.041.436-.582 1.234.047.635 1.28 1.676.769.291-.047.74-.285.663-.082.704.059.221.366.49.553.43.157.303.74.483.564.268.693.017.774.774.431.018.751.244.425.402.721.151 1.129-.087.094-.198-.286-.495.361.413.611 1.1.251 1.281.151.309.32.343.344.081.291-.07-.099-.54.046-.234.384.006.187.198.075.74.303.285.378.163.792-.035.78.227.5.605-.203.082.052.18.373.46.5.407.332-.145.023-.396-.198-.18.088-.233.436.163.955.855.605.11.215.298.402 1.129.239.064.192.535-.355-.087-.303-.309-.256-.122-.308.128-.466.577.39 1.047.762.798.454.314.676.239.838.652.343.436-.064.5.221.839.315.268.244.803.361.634.361.344-.082 1.286.577 2.06.436 1.06.402.576.273.221.018.693-.192.291.425-.215.337-.28.157-.262.99 1.229Zm19.615 22.222-.273-.058-.257-.343-.343-1.252.338-.826.425-.704-.006-.6-.088-.151.262-.547.658-.53.291-.57.053-.309-.065-.239-.378-.617-.122-.07.239-.442.541-.355.052 1.42.146.32.302.198.064.245L254.15 102l-.279.914.093.564-.111.32Zm-88.042-60.993-.064-.385.169-.669.361-.5.529-.402 1.095-.134.343-.186 1.217.198.034.384-.273.128-.413.087-.274-.221-.582.233.093.203-.39.647-.704.267-.914.17-.227.18Zm76.325 47.082-.343-.32-.245-.541-.424-.384-.245-.547-.058-.478.279-.064.885.559.122.204.408.78.075.535-.168.204-.286.052Zm-31.198-35.663-.437-.168-.122-.606-.279-.378-.291-.14-.157-.29.262-.065.896.42.524.756-.186.361-.21.11Zm44.97 63.195-.111-.245.035-.605.245-1.386.244-.058.437.076-.419 1.385-.134.798-.297.035Zm.116-2.608-.419-1.176v-.954l.541-.297.14.105-.326 1.234.064 1.088ZM184.99 4.057l-.396-.32-.029-.402.378-.25.262-.052.309.465-.041.239-.303.075-.18.245Zm.611-3.225-.437-.186-.133-.21.244-.372.349-.064.21.099.145.256-.378.477ZM167.58 45.331l-.18-.379.646-.605.326.233.105.483-.745-.018-.152.286ZM214.896 241.263l-.524.262-.116-.262-.815-.128-.547-.413-.536-.117-1.379-.069-.134-.093-.093-.251-.181-.052-.762.233-.454-.152-.67-1.053.373-.262.698.105.344.186.477.099.012-.571-.449-.372-.244.442-1.682-.215-.14-.099-.692-1.414-.833-1.328-.134-.133-.396.017-.325-.524-.233-.495-.437-1.612-.273-.297-.321-.093-.395-2.549.046-.483.117-.152.168.303 1.112.85.274 1.269.524-1.467-.332-.233-.262.023-1.123-1.234-.123-.349.012-.512-.093-.384-.402-.821-.821-.774-.634-1.123-1.7-4.174.059-.297-.175-.884-.192-.361-.116-.838.512-.466.011-.966.385-.256 1.414.168.826.612 1.002-.163.384.326 1.286.419 2.107 1.251 2.026.955 1.338.122.594-.181.547.309-.029-.291.495-.524.448-.157.332.105.14.553.331.168.53-.011-.186-.268-.443-.099-.128-.122-.029-.402.285-.262.967-.436.82.273 1.322-.267.384.343.454-.274.634-1.1.14-.087.402-.099.151.221.658.297.221-.012.401-.232.204-.344.111-.506.128-.14.268.012.413.192.896.663.332.437.349.786-.401 1.432.046.43.262.344.023.634-.273 1.001.041.716.215.623-.314 1.7.209 1.862.384.623.035.966-.332.472-.227-.192-.029-.204.169-.215.076-.559-.448-1.205-.274-.448-.733 1.455-.478 3.452-.285.291-.093.488.07.885-.454.472-.256.861.087.14.274-.018-.117-.25.186-.14.402.245.163.32.035.599-.239.158-.099.75.338.763-.058.489-.157.012-.449-.396-.454.198-.238.355-.582-.722-.414-.844-.081-.413.349-.623.204-.058.151.139.029.21-.099.204.39.419.542-.041.198-.169-.466-.815-1.478-.902-.216.035-.349.262.122.588.198.431-.169.337-.623.204-.145-.361.122-.076-.093-.873-.57-.366.198.5-.14.897-.367.448-.169.628.128.606-.093.564-.215.14-.221-.029-.507-.326-.459-.541-.088-.548-.134-.052-.134.215-.005.582.797.728-.256.64-.332.518-.314.914-.093.629-.134.116Zm7.66-28.311-.571-.314-.163-.617.035-.175-.721-1.356-.903-.803.769-1.013.541-.233 1.251 1.67.233.169.483.128.053.239.297 1.624-.024.221-.174.163-.798.146-.308.151Zm-26.583-1.135-.221-.163-.082-.425.117-.087v-.571l-.361-.471.017-.448.111-1.322.495-.366.076-.216-.065-.471.268-.076.565.344.262.378.087 1.333.151.855-.058.449-.192.43-1.17.827Zm27.91 3.027-.018-.402-.11-.163-1.467.186-.565-.244.012-.32.419-.344.431-.023.442.134.885-.448.861 1.024-.011.087-.437.169-.442.344Zm-6.548 25.511-.402-.186-.402.087-.331-.692 1.117-1.38.408 1.065-.28 1.013-.11.093Zm73.153 108.886-.28-.029-.005-.897.36-1.618.123-.291.314-.186-.093 1.088-.361 1.211-.058.722Zm-72.781-111.057-.436-.914.407-.71.25.384.227 1.054-.017.099-.431.087Zm4.127-4.389.029-1.14.367-.28.326.029.285.559-.029.087-.442.006-.536.739Zm-19.749-17.077-.111-.082-.029-.401.378-.448.571.651-.809.28Z" fill="#171619" stroke="#fff" stroke-width=".5"/></g><defs><clipPath id="clip0_8_552"><path fill="#fff" d="M0 0h257v263H0z"/></clipPath></defs></svg>