<svg width="218" height="239" fill="none" xmlns="http://www.w3.org/2000/svg"><g clip-path="url('#clip0_8_549')"><path d="M67.4 205.72h1v-9h-1v-3.28h9.18c1.667 0 2.967.34 3.9 1.02.933.68 1.4 1.653 1.4 2.92 0 .787-.187 1.453-.56 2-.373.533-.813.94-1.32 1.22a5.153 5.153 0 0 1-1.44.54v.2c.947.093 1.8.393 2.56.9s1.14 1.413 1.14 2.72c0 1.4-.527 2.427-1.58 3.08-1.053.64-2.42.96-4.1.96H67.4v-3.28Zm7.68-5.72c.387 0 .673-.1.86-.3.2-.213.3-.54.3-.98V198c0-.44-.1-.76-.3-.96-.187-.213-.473-.32-.86-.32H74V200h1.08Zm.14 5.72c.387 0 .673-.1.86-.3.2-.213.3-.54.3-.98v-.88c0-.44-.1-.76-.3-.96-.187-.213-.473-.32-.86-.32H74v3.44h1.22Zm7.688 3.28v-3.28h1v-9h-1v-3.28h13.5v6.04h-4.48v-2.76h-2.42v3.16h1.76v2.28h-1.76v3.56h2.42v-3.16h4.48V209h-13.5Zm14.258 0v-3.28h1v-9h-1v-3.28h8.44v3.28h-1.84v9h1.8v-1.84h3.98V209h-12.38Zm28.146-5h-1v4c-.587.333-1.447.633-2.58.9-1.12.253-2.333.38-3.64.38-2.493 0-4.447-.653-5.86-1.96-1.413-1.32-2.12-3.353-2.12-6.1 0-2.813.7-4.86 2.1-6.14 1.413-1.28 3.427-1.92 6.04-1.92 1.267 0 2.453.133 3.56.4 1.107.267 1.94.567 2.5.9v4.78h-5v-.94c0-.56-.12-.96-.36-1.2-.227-.253-.593-.38-1.1-.38-.507 0-.88.127-1.12.38-.227.24-.34.64-.34 1.2v5.84c0 .56.113.967.34 1.22.24.24.613.36 1.12.36.507 0 .873-.12 1.1-.36.24-.253.36-.66.36-1.22V204h-1.08v-2.98h7.08V204Zm.565 5v-3.28h1v-9h-1v-3.28h7.6v3.28h-1v9h1V209h-7.6Zm15.878.28c-2.093 0-3.713-.46-4.86-1.38-1.133-.92-1.7-2.413-1.7-4.48v-6.7h-1v-3.28h7.4v3.28h-.8v7.72c0 .44.093.767.28.98.2.2.493.3.88.3s.673-.1.86-.3c.2-.213.3-.54.3-.98v-7.72h-.8v-3.28h6.86v3.28h-1v6.7c0 2.067-.553 3.56-1.66 4.48-1.107.92-2.693 1.38-4.76 1.38Zm30.205-12.56h-1v9h1V209h-7.56v-3.28h.96v-7l-3.4 10.28H159l-3.5-10.18v6.9h.96V209h-6.56v-3.28h1v-9h-1v-3.28h9.16l2.08 6.24 2-6.24h8.82v3.28Z" fill="#E55933"/><path d="m135.791 4.443-.87.415.04 1.534-1.282-.56.209-.965.543.577.478-.705-.458-.307 1.34.011ZM126.385 0l3.211 1.734.255 2.034-1.207 1.084.412 2.202.92-.073-.633.514-3.448-1.355-.09 1.526 5.253.487 1.206-.74 1.81 2.138 4.71-4.594.186-2.115 1.241-1.554.943 1.23 1.862.116 1.479 3.538-1.839 3.475 3.397 4.11.153 2.955 1.587.479 2.106-.98 2.273 1.502-.829 3.32.65.587-1.184 1.322-.119 2.347 2.619 3.286.079 2.961-1.569 1.57-1.596-.601-.693 1.543-1.499.188-.459.082-1.601.098-1.969 2.848-4.693.986-.136 1.575-1.63 2.042-.876-.974-1.755.777h-.264l-1.833 1.352-4.53.948-1.468-2.486-1.737 1.28-1.564-.143-2.03 2.442.56-1.412-1.302-.922-4.435 1.279-.339 1.566-.914.189-1.845-1.207-1.139 1.056-2.251-1.413-.592 1.529-1.511-1.262-3.254.902-.322-1.352-.925-.304.411-1.468-2.065 1.262.186-.94-3.736-1.45-2.309.51-.423-.562-1.128.93-1.242-.66.436-1.575-.662-.296-.661-3.573 2.07-1.857 2.06.647 3.713-1.02.971-2.629-.04-2.54-.711-.351.412-1.311-1.23-.377-.806-4.278 1.81-2.69-2.353-1.618-.58-3.547-1.821-1.044-1.184-1.902 6.698-.288.435 1.694 2.297.296 2.72-.803-2.674-5.079.711-1.842-1.044-.504 5.348-2.828 3.672-.372.525.821-.972 2.123.305 2.347 2.25-.838 3.623.875 1.642-.333-.102-1.633 1.462-.667 3.356-4.293L126.385 0ZM87.784 71.138l3.097-2.117 1.38 2.108 1.599-.18 2.239 1.744.841-.934h2.5l.45-1.83 1.18.31-.591-1.038.585-.551.943 1.545 1.212.027V69.11l6.805-2.373-.05 1.163 1.845 1.308.038-1.006 2.764-.71 1.175-1.503.484 2.027 1.711-.133 1.195-1.157-1.015-1.485.293-2.385 2.834.873 1.052-.57.227.605.536-1.166 1.993-.409 1.772.737 1.207 1.923 1.279.081.011 1.137 3.562-.504h.429l-.006 1.688 1.053.588 3.205-2.392 2.118 1.76-.198 1.558-1.325.754 1.346 1.873-.885.74.058 2.671-1.062 2.034-1.818-.427-1.346 1.775-1.621-.142.084.612-6.396 1.853.218.992-1.201-1-1.499 1.125-.543-1.923-1.163.212-.49 1.241-2.268-1.09-.496 1.232.777 2.33-1.38.55-2.466-.806-1.45.682.163 1.763-3.701 1.372-.621-1.259-1.444.241-.508.812.174-2.7-1.117.365-2.143-.94-3.048.238-1.459 1.64.174-2.136-1.822.018-1.664-2.373-1.48-.02.346-1.906-2.99-.681.246-2.025-1.326-1.357-2.178 2.645-2.08-.035-.852-1.818.156-4.38 1.068-.284-.722-.096ZM106.216 54.034l.226.169.4 1.508-.829.998 2.105 1.4.85 2.61-1.375.883.221.632.896.099 1.07 1.157-.8.07-.734.313-4.412 2.053-2.865-.96-1.575-3.292-1.314.392-1.911-.963-.142.142-.035-.107.571-.74.162-.8 1.45-.073-.144-2.735.945-1.401.972-.9.31-.18.807-.57.362-.079 2.097.383 1.204-1.34.731.537.577.391.18.403Z" fill="#171619" stroke="#fff" stroke-width=".5"/><path d="m51.647 65.706 1.93.899 2.51-.598.186 2.747 3.86.133.83.88.31.098 2.675-4.571 1.856-.864.232 1.29 2.512-1.21-.276.891 1.207 2.091 2.019-.206 1.592.766 2.309-.853.913 1.662-.333 2.01 1.235 1.688 2.399.186h.377l5.038-1.12.496.641 1.462-1.83v.206l.8.499.723.099-1.068.284-.156 4.377.852 1.818 2.083.035 2.178-2.645 1.326 1.357-.25 2.022 2.99.681-.345 1.906 1.48.017 1.664 2.376 1.822-.018-.174 2.135 1.461-1.639 3.046-.237 2.143.94 1.117-.363-.174 2.7.508-.815 1.444-.238.621 1.256 3.701-1.372-1.094 3.4v.292l.22.928 1.749-.902-.452.54.763 1.77-1.581 2.844 2.584 1.485-.774 1.917-1.056.354 1.152 1.149-.92.432-.496 1.984.775 2.715-4.226.942-.841-1.128-1.19.018-1.325 2.053-3.153-.528-.275 1.331-1.587.398-.615 1.444-1.694-.159-2.34 1.899 3.245 2.527 1.224-1.381.549.316h.554l.8.58-.046.299-.113 1.442h-.198l.131 2.497-1.912 1.372 2.173 3.994-.835 1.273.269 5.067 1.062.368.27 4.177 1.696 3.544-.67 1.407-4.62-.998-2.358-1.407-6.439 1.146-.162-1.233-2.805-.751 1.134-1.891-1.468-1.618 1.355-2.515 1.868-.104 2.088-1.744-1.862-3.167.157-2.422-2.634-.043.067.615-1.485-.633 1.5-2.598-.244-4.377 1.247-.29 2.726-3.22-.716-1.699-1.726-.29-.879-1.215-.705 1.25.98 1.47-1.67.026-1.169-4.005-1.175-.917-1.116.264-2.924-4.24-2.12 1.438-.757-.475-.293.6-.046-.635-3.701 1.894-2.93-2.213-1.354-.044-.667.786-.377-.934-3.397.273-.777.696-.238 2.645-1.169-.644.496 1.224-.548.143-1.946-2.608-.864-3.077.937-2.938-.847-4.716-2.939-3.484-1.427.487-.823-.876-3.843 1.17-.258-1.01 1.287-2.204-2.488-.85-1.546 2.364-.58-.345-3.443 1.7-.824-1.132-3.944-1.804-.71-1.265.005-5.006-2.24-5.56 1.468-1.633-.698-1.137.44-1.102-3.82-1.98.352-.96-1.219-1.912 2.393-.908 2.393 1.273 2.465-.31 1.056 3.005 1.993 1.067 2.619-3.271 1.569-.232v-.349l1.441-1.316ZM17.96 71.083l.395-.516-1.63-2.001.591-.49-.536-.862 1.505-.873.496.49.017-.641.978.774 1.494-.365-.035-.676 2.262-.809-1.337-1.764 3.594-1.505.812.676-.351 1.79 1.18.249-.591.624-2.382 1.975-2.105.594.356 1.175-2.041 3.394-2.672-1.239ZM177.687 61.735l.453 2.616-1.039 2.155 1.79.952.275.035.775-.72.716.534.079.25h2.16l2.036 2.923 2.24-.276 1.224.641 1.58-2.259-1.032-1.86 1.401.401 2.508-1.047 1.091.827 2.239-.151 1.218.977-.113 2.277.345-.847 4.012.534 3.747 6.314-.798.737.841.951-.382.522 1.163-.586 4.005.577-1.433 3.316-1.027-.096-2.775 2.889.127 1.354.998.458-.426.914 1.093.505 1.021 2.265 2.489-.876 4.53 1.459-.574 2.343 1.769.697.25 1.627-1.987 4.971 3.724 3.95-.168 1.129-2.37.713-.07.908-1.63-1.648-1.415.334-1.534 4.545-3.652.87-1.027 1.717-1.16.203-.536 1.265 1.354 3.35-2.523.641-.734 1.905 1.18 1.027-.812 1.082-1.514-.528.711-1.14-.664-1.528-1.813-.433-.084 1.32-1.065.261-1.682-.94-.371-1.711.534-1.987-1.184.026-.168-9.565-1.514-.566-.226-.835-6.584-1.508-.641 1.772 1.015 1.154-1.354 2.924h.298l1.726.133-2.216 1.645-1.723-.308-.209.871-.467-.914-1.821-.273-2.433.563 1.406-3.478-1.317-.026-1.223-2.459 1.015-2.486-2.808.105.252-1.059-2.459-.238-2.251-2.433-3.182.58-1.389-2.869-2.477 1.555-2.68-1.96-.795 1.502h.891l.435 1.006-2.048 1.966-2.358-.794-3.057 2.047-.913-1.136.324-1.396-2.938-.864-.757-1.157.786-1.917-2.134-3.632-1.976.92-.71-1.265.577-.461-1.54-.264-.273-1.087.711-.816-1.404.743-1.235-.92-.119-1.406-3.217-.23.983-.69-.316-1.763-1.157-2.462-2.724-2.643.293-2.137 1.062-2.033-.058-2.672.885-.74-1.346-1.873 1.325-.754.197-1.558 1.494.917-.139 1.404 1.439 1.52 1.754-.178 3.661 1.181.864-.78-.722-.917.377-.835 3.138.577.473-.835 1.128 1.032 1.004-1.166 1.586 1.076 2.512-2.621 2.143-.169 1.738 2.576 1.653-.087.789-1.645.876 1.305 2.651-1.615.142-1.497.319.163 4.362-1.63 2.454-2.706 1.812.124.128-.675.316.008Z" fill="#171619" stroke="#fff" stroke-width=".5"/><path d="m182.812 65.572 1.41 1.094 2.053-.757.282.899 1.998-1.317.389 1.236 1.032 1.859-1.58 2.256-1.224-.64-2.239.275-2.037-2.924h-2.16l-.079-.25-.716-.533-.774.72-.276-.035-1.79-.952 3.211-.214 1.619-1.958.881 1.241Zm-14.038-45.519 1.253 1.178.227 3.814 5.104 2.164.366 1.14 6.027.124.661 2.872 2.639-1.445 1.709 2.135-2.555 2.375 1.258 1.793-2.036.583.244 2.694-1.474-.107-.884 2.552 1.021.957-.56 2.271-2.555 3.173.435.662 1.276-.43.357.868-1.946 3.643-1.309-.099-1.194 2.613-1.897.847.249 3.93 2.19 1.363-.131.676-1.809-.124-2.454 2.706-4.362 1.627-.322-.16-.142 1.494-2.651 1.618-.876-1.308-.789 1.645-1.654.09-1.737-2.579-2.143.168-2.512 2.622-1.587-1.076-1.003 1.163-1.128-1.03-.473.836-3.144-.571-.377.835.722.916-.864.784-3.663-1.18 1.087-2.356-1.021-.525.351-1.395.47-.606-.377-1.993 2.404-2.013-.4-.017-.864-.473.345-2.993 1.033-2.72 1.253.168.524-2.373-1.067-.885-1.772.044-.174-.74-1.151.438-1.169.662-.769-1.108-.728.42-1.241-2.303 1.908-1.554.186-2.297 2.572-1.019-.507-2.102.621-.313.118.768 1.596-.777-2.274-2.291-2.144.27.186 2.067-1.421.806-.795-.884-1.157.412-.751-1.735-1.619.412 1.63-2.042.137-1.575 4.692-.986 1.97-2.848 1.601-.099.458-.08 1.5-.19.693-1.542 1.595.6 1.569-1.57-.078-2.96-2.619-3.287.119-2.346 1.183-1.323 5.54-.145.56-1.096 4.034 1.079 3.869-3.428 1.72.45 1.067 1.571ZM160.824 100.168l2.048-1.966-.435-1.007h-.89l.794-1.502 2.68 1.96 2.477-1.554 1.389 2.868 3.182-.58 2.251 2.434 2.459.238-.252 1.058 2.808-.104-1.015 2.485 1.224 2.46 1.316.026-1.406 3.478 2.433-.563 1.822.273.466.913.209-.87 1.723.308 2.216-1.645-1.726-.133h-.298l1.354-2.924-1.015-1.154.641-1.772 6.584 1.508.226.835 1.514.566.168 9.565 1.184-.026-.534 1.987-3.275.905-.319 3.625-3.596 1.72-.54 2.991-1.867 1.647.855 1.079-.551 1.569-2.297 1.427.983 2.782-1.705 1.54-1.743.22-.734 3.89-1.546 1.502 2.749 1.781-.536 1.012-1.096-.444.298 1.352-.765.307.638.54-1.001.968.78 3.942 1.912-.374 2.352 4.188-.223 2.152 2.16-.278 1.16 1.453-1.16 2.825 2.561 1.105-.255 2.312-1.076.182-.696 2.335-1.476 1.085.22.757 1.021-.052.006 1.186-1.659 1.804-1.384.67-3.216-1.442-.754 1.979-5.43-1.085-1.923 1.978-.243 1.845-1.094-1.335-1.998-.632-.85 1.143-3.167.684-.717.955-1.261-1.784.957-.789-.073-1.05-1.331-1.12.734-1.308-.955-.235-.507-2.221-4.542-3.031-.574 1.209-1.401.502-.435-1.589 1.424-2.129-3.133-3.347-.525-.366-1.343.992-2.114-.905-2.213.209-.232-1.946-1.966.2-1.874-4.301-1.694.104-3.164-1.804-.717-1.552-1.508-.13 1.085-1.943.084-2.547 3.849-2.628-.798-.838 1.645-1.671 2.688-.925-1.229-1.224.22-2.045-2.352-2.1-2.883.351.101-1.453-2.131-2.784.867.13.481-1.496.807.568 1.737-1.348.252-1.981.763-.044-.441-.974.775-3.078.58 2.614 7.036-.308 3.875-1.473v-.351l-1.511-1.43 2.369-1.299-.191-.958-2.065-2.468.377-.502-.98-.237.699-.827-2.184-.949 2.822-.948-.363-.977 1.604-.801.853.606 1.021-.519 4.603-3.695-.311-2.442-1.342-.165-.92 1.081-.333-.8 2.917-1.877-.751-1.348 1.117-1.422-.395-1.041Z" fill="#171619" stroke="#fff" stroke-width=".5"/><path d="m114.775 85.817-.163-1.763 1.451-.682 2.465.806 1.381-.55-.778-2.33.496-1.232 2.268 1.09.49-1.241 1.164-.212.542 1.923 1.499-1.125 1.201 1-.217-.992 6.395-1.853-.084-.612 1.621.142 1.346-1.775 1.819.427-.293 2.137 2.723 2.642 1.157 2.463.317 1.763-.984.69 3.217.23.119 1.406 1.235.92 1.404-.743-.71.815.272 1.088 1.54.264-.577.461.711 1.265 1.975-.92 2.135 3.632-.786 1.917.757 1.157 2.938.864-.325 1.395.913 1.137 3.057-2.047 2.358.794.395 1.042-1.117 1.421.752 1.348-2.918 1.877.333.801.92-1.082 1.343.165.31 2.442-4.603 3.695-1.021.519-.853-.606-1.604.801.363.977-2.822.949 2.184.948-.699.827.98.237-.377.502 2.065 2.468.192.958-2.37 1.299 1.511 1.43v.351l-3.875 1.473-7.036.308-.58-2.614-.775 3.078.441.974-.763.044-.252 1.981-1.737 1.348-.807-.568-.481 1.497-.867-.131 2.131 2.784-.101 1.454 2.883-.351 2.352 2.1-.22 2.044 1.23 1.224-2.689.925-1.645 1.671.798.838-3.849 2.628-.084 2.547-1.085 1.943-2.245 1.256-4.376-.522 1.314-2.312-1.564-4.11.769-.026 1.552-3.709-2.309-3.382-3.182-.868-.078-.928.185-1.198 1.427-1.032.084-2.75 1.213-1.084-1.189-2.358 1.015-.192.734-3.016 1.18 1.192-.244-2.782 1.613-1.491-1.099-1.424-2.326-.113-.496-1.247-3.6 2.793-.71 2.184-3.199 2.335-.766 1.621 1.099 1.349-.873 2.216.49 2.628-5.336.768-3.2 1.532-.936 1.627-5.131.777.673-1.407-1.7-3.544-.27-4.176-1.061-.369-.27-5.067.835-1.27-2.172-3.997 1.911-1.369-.127-2.497h.197l.113-1.442.044-.298-.801-.583h-.554l-.545-.317-1.224 1.381-3.246-2.523 2.341-1.903 1.694.16.615-1.445 1.583-.394.279-1.332 3.152.528 1.326-2.053 1.192-.018.841 1.129 4.226-.943-.774-2.715.495-1.984.92-.435-1.149-1.145 1.053-.354.775-1.917-2.585-1.482 1.581-2.846-.763-1.769.453-.54-1.749.903-.221-.929v-.293l1.094-3.396ZM95.507 13.267l1.822 1.044.583 3.547 2.352 1.621-1.813 2.689.81 4.278 1.229.377-.412 1.311.711.351.038 2.538-.97 2.628-3.712 1.023-2.059-.646-2.07 1.856.66 3.573.659.296-.435 1.575 1.241.661 1.128-.928.424.563-.209 1.665-.818.348.615 1.172-1.952 1.627-.609.017-1.517-.554-.887 1.885.75 2.556.288.66-1.343 1.277-2.486-1.314.276 2.1-1.343.83.789.928-.322 1.174-2.425 3.37 1.564.34-.38 4.017-2.628 1.778-.96-.728-.705 1.102-2.083-.916-.968 1.548 1.128 2.356-1.636.275-.499-.026-1.026-.25-.914-1.661-2.306.852-1.592-.763-2.019.204-1.21-2.092.28-.887-2.513 1.21-.232-1.291-1.856.864-2.674 4.57-.31-.098-.83-.881-3.857-.134-.186-2.747-2.512.598-1.929-.9 3.498-3.41-1.241-1.647.705-.998-3.35-2.886 1.465-2.668-1.065-.908-1.526.89-.93-.623 1-1.187-.435-1.081 1.456-.01-.71-.962 1.206-.197-2.628-1.242 1.697-.803-.98-1.36 1.444-2.225-1.473-2.953h.339l.8-.742-.609-.592-5.873-4.029 2.419-1.612 2.053-3.904-1.42-2.315-1.44-.493 1.36-.997-.991-2.21 1.746-.853-.914-3.373 2.654 2.688 5.569-.107-.655-3.704 1.253.279 1.392-.972 1.116.71.51-1.72 5.889 2.71 4.632 1.134 1.02.702-.252 3.657 3.791.296 1.636-1.07-.026 2.038 2.3-1.769.44.702 1.28-.368 3.196-2.599 2.605.11 6.015-4.516 3.892-5.25Z" fill="#171619" stroke="#fff" stroke-width=".5"/><path d="m137.534 41.864 1.619-.411.751 1.734 1.157-.412.795.885 1.421-.807-.186-2.068 2.144-.27 2.274 2.292-1.596.777-.119-.768-.62.313.507 2.103-2.572 1.018-.186 2.297-1.908 1.555 1.241 2.302.728-.42.769 1.108 1.168-.661 1.152-.438.174.74 1.772-.044 1.067.884-.525 2.373-1.252-.168-1.033 2.72-.345 2.993.864.473.4.017-2.404 2.013.377 1.993-.47.606-.351 1.395 1.021.525-1.088 2.355-1.754.177-1.439-1.52.142-1.403-1.496-.917-2.115-1.76-3.205 2.392-1.055-.586.005-1.69h-.429l-3.559.507-.011-1.14-1.282-.08-1.207-1.924-1.772-.74-1.993.41-.536 1.165-.226-.606-1.056.569-2.831-.873-.293 2.384 1.015 1.485-1.195 1.157-1.708.133-.484-2.027-1.175 1.503-2.764.71-.041 1.004-1.844-1.308.052-1.166-6.805 2.375v1.11l-1.212-.025-.943-1.546-.585.551.591 1.041-1.18-.31-.453 1.83h-2.5l-.84.934-2.24-1.74-1.598.177-1.384-2.106-3.097 2.114-.8-.499v-.205l-1.463 1.83-.496-.641-5.038 1.12h-.377l-2.398-.186-1.236-1.688.334-2.01 1.026.25.496.025 1.636-.275-1.128-2.355.972-1.55 2.082.917.705-1.102.96.731 2.628-1.78.377-4.018-1.564-.34 2.425-3.37.322-1.177-.789-.928 1.343-.83-.275-2.097 2.488 1.311 1.343-1.276-.287-.661-.751-2.556.884-1.885 1.517.554.61-.017 1.951-1.627-.615-1.172.818-.348.21-1.665 2.308-.51 3.736 1.45-.186.94 2.065-1.262-.412 1.468.925.304.322 1.352 3.255-.902 1.511 1.261.591-1.528 2.251 1.412 1.14-1.056 1.845 1.207.913-.188.34-1.567 4.434-1.279 1.303.923-.56 1.412 2.03-2.442 1.563.142 1.738-1.279 1.467 2.486 4.531-.949 1.833-1.351h.264l1.755-.778.884.99ZM101.427 53.66l-.363.082-.806.57-.31.18-.972.903-.948 1.4.148 2.736-1.45.072-.163.8-.568.74.034.108.142-.142 1.912.962 1.314-.391 1.575 3.295 2.865.96 4.412-2.057.734-.31.8-.072-1.073-1.158-.896-.098-.221-.633 1.378-.881-.853-2.61-2.105-1.402.829-.997-.4-1.509-.406-.571-.575-.392-.733-.536-1.201 1.337-2.1-.386ZM46.522 11.915l.9 3.072L46 16.707l.963 1.171-.502.351.79 2.086.913 3.373-1.746.853.992 2.21-1.36.997 1.438.493 1.422 2.315-2.054 3.904-2.419 1.612 5.873 4.03.61.59-.801.743h-.34l1.474 2.953-1.444 2.224.98 1.36-1.697.804 2.628 1.242-1.207.197.711.963-1.456.009.435 1.081-1 1.187.93.623 1.526-.89 1.065.908-1.465 2.668 3.35 2.886-.705.998 1.241 1.647-3.498 3.41-1.45 1.3v.345l-1.569.233-2.619 3.271-1.99-1.067-1.055-3.005-2.466.31-2.392-1.27-2.393.905-1.535-3.014-1.386.32-.786-.668-1.601 1.932-1.32-.705-1.473.98-.806-.382.591-.624-1.177-.25.348-1.789-.812-.676-3.594 1.506 1.337 1.76-2.262.81.035.678-1.497.363-.975-.775-.017.641-.496-.487-1.508.87.536.864-.591.488 1.63 2-.395.514-.887-1.377-1.636.623-1.59-.969-.519-2.178-3.155-3.71-.067-1.569-2.544-.292-.519-.749-1.88.856-1.093-3.182-.922-.133.713-1.38-.188-2.945-.128-1.363-.92-.563 2.347-2.474-1.395-3.834-1.882-1.1L0 36.995l12.434-6.957L29.97 17.849l6.07-2.619-.794-1.9.942-1.047-.673.74.882 1.1.8-.514-.986 1.244.569-.47.09.984.389-1.108.553.368-.377-.612.946.244-.406-1.37-.432.279.676-.632-1.332-.325 1.398.345.285 1.746 7.952-2.387Z" fill="#171619" stroke="#fff" stroke-width=".5"/><path d="M64.4 235.72h1v-9h-1v-3.28h9.18c1.667 0 2.967.34 3.9 1.02.933.68 1.4 1.653 1.4 2.92 0 .787-.187 1.453-.56 2-.373.533-.813.94-1.32 1.22a5.153 5.153 0 0 1-1.44.54v.2c.947.093 1.8.393 2.56.9s1.14 1.413 1.14 2.72c0 1.4-.527 2.427-1.58 3.08-1.053.64-2.42.96-4.1.96H64.4v-3.28Zm7.68-5.72c.387 0 .673-.1.86-.3.2-.213.3-.54.3-.98V228c0-.44-.1-.76-.3-.96-.187-.213-.473-.32-.86-.32H71V230h1.08Zm.14 5.72c.387 0 .673-.1.86-.3.2-.213.3-.54.3-.98v-.88c0-.44-.1-.76-.3-.96-.187-.213-.473-.32-.86-.32H71v3.44h1.22Zm7.688 0h1v-9h-1v-3.28h9.18c1.72 0 3.033.353 3.94 1.06.906.707 1.36 1.853 1.36 3.44 0 .893-.18 1.667-.54 2.32-.36.653-.873 1.107-1.54 1.36l.02.2c1.28.2 1.92.987 1.92 2.36v1.54h.94V239h-6.34v-4.7c0-.52-.08-.913-.24-1.18-.147-.267-.387-.447-.72-.54-.32-.093-.78-.14-1.38-.14v3.28h1.32V239h-7.92v-3.28Zm7.68-5.72c.387 0 .673-.1.86-.3.2-.213.3-.54.3-.98V228c0-.44-.1-.76-.3-.96-.187-.213-.473-.32-.86-.32h-1.08V230h1.08Zm15.112 9.28c-2.093 0-3.713-.46-4.86-1.38-1.133-.92-1.7-2.413-1.7-4.48v-6.7h-1v-3.28h7.4v3.28h-.8v7.72c0 .44.094.767.28.98.2.2.494.3.88.3.387 0 .674-.1.86-.3.2-.213.3-.54.3-.98v-7.72h-.8v-3.28h6.86v3.28h-1v6.7c0 2.067-.553 3.56-1.66 4.48-1.106.92-2.693 1.38-4.76 1.38Zm14.345 0c-1.28 0-2.493-.107-3.64-.32-1.133-.227-2.006-.48-2.62-.76v-3.96h4.4c0 .413.094.713.28.9.187.187.527.28 1.02.28.414 0 .707-.06.88-.18.187-.133.28-.327.28-.58a.68.68 0 0 0-.26-.54c-.173-.16-.473-.32-.9-.48l-1.72-.6c-1.48-.56-2.546-1.22-3.2-1.98-.64-.76-.96-1.787-.96-3.08 0-1.573.514-2.767 1.54-3.58 1.04-.827 2.767-1.24 5.18-1.24 1.16 0 2.247.12 3.26.36 1.027.227 1.854.533 2.48.92v3.58h-4c0-.667-.413-1-1.24-1-.4 0-.686.053-.86.16-.16.093-.24.267-.24.52a.63.63 0 0 0 .28.54c.2.133.52.273.96.42l1.74.6c1.414.48 2.44 1.107 3.08 1.88.654.76.98 1.76.98 3 0 1.693-.573 2.973-1.72 3.84-1.133.867-2.8 1.3-5 1.3Zm13.477 0c-1.28 0-2.493-.107-3.64-.32-1.133-.227-2.007-.48-2.62-.76v-3.96h4.4c0 .413.093.713.28.9.187.187.527.28 1.02.28.413 0 .707-.06.88-.18.187-.133.28-.327.28-.58a.683.683 0 0 0-.26-.54c-.173-.16-.473-.32-.9-.48l-1.72-.6c-1.48-.56-2.547-1.22-3.2-1.98-.64-.76-.96-1.787-.96-3.08 0-1.573.513-2.767 1.54-3.58 1.04-.827 2.767-1.24 5.18-1.24 1.16 0 2.247.12 3.26.36 1.027.227 1.853.533 2.48.92v3.58h-4c0-.667-.413-1-1.24-1-.4 0-.687.053-.86.16-.16.093-.24.267-.24.52 0 .227.093.407.28.54.2.133.52.273.96.42l1.74.6c1.413.48 2.44 1.107 3.08 1.88.653.76.98 1.76.98 3 0 1.693-.573 2.973-1.72 3.84-1.133.867-2.8 1.3-5 1.3Zm7.276-.28v-3.28h1v-9h-1v-3.28h13.5v6.04h-4.48v-2.76h-2.42v3.16h1.76v2.28h-1.76v3.56h2.42v-3.16h4.48V239h-13.5Zm14.258 0v-3.28h1v-9h-1v-3.28h8.44v3.28h-1.84v9h1.8v-1.84h3.98V239h-12.38Zm19.267.28c-1.28 0-2.494-.107-3.64-.32-1.134-.227-2.007-.48-2.62-.76v-3.96h4.4c0 .413.093.713.28.9.186.187.526.28 1.02.28.413 0 .706-.06.88-.18.186-.133.28-.327.28-.58a.683.683 0 0 0-.26-.54c-.174-.16-.474-.32-.9-.48l-1.72-.6c-1.48-.56-2.547-1.22-3.2-1.98-.64-.76-.96-1.787-.96-3.08 0-1.573.513-2.767 1.54-3.58 1.04-.827 2.766-1.24 5.18-1.24 1.16 0 2.246.12 3.26.36 1.026.227 1.853.533 2.48.92v3.58h-4c0-.667-.414-1-1.24-1-.4 0-.687.053-.86.16-.16.093-.24.267-.24.52 0 .227.093.407.28.54.2.133.52.273.96.42l1.74.6c1.413.48 2.44 1.107 3.08 1.88.653.76.98 1.76.98 3 0 1.693-.574 2.973-1.72 3.84-1.134.867-2.8 1.3-5 1.3Z" fill="#171619"/></g><defs><clipPath id="clip0_8_549"><path fill="#fff" d="M0 0h218v239H0z"/></clipPath></defs></svg>