<svg width="482" height="224" fill="none" xmlns="http://www.w3.org/2000/svg"><path d="M192.442 178.34h-13.179a.196.196 0 0 1-.079-.016.196.196 0 0 1-.066-.044.227.227 0 0 1-.045-.066.213.213 0 0 1-.015-.079v-5.963a3.856 3.856 0 0 0-2.314.068l-.081.053a6.44 6.44 0 0 1-3.054.673c-2.249 0-4.01-.859-4.01-1.956 0-1.098 1.761-1.957 4.01-1.957a6.513 6.513 0 0 1 3.063.678l.095.062c.74.252 1.539.272 2.291.06v-1.527a.19.19 0 0 1 .015-.078.19.19 0 0 1 .044-.067.189.189 0 0 1 .067-.045.196.196 0 0 1 .157 0 .208.208 0 0 1 .112.112c.01.025.015.051.015.078v1.654a.204.204 0 0 1-.106.179 4.08 4.08 0 0 1-2.749.015.275.275 0 0 1-.049-.023l-.105-.071a6.11 6.11 0 0 0-2.85-.617c-2.153 0-3.6.8-3.6 1.547 0 .747 1.447 1.546 3.6 1.546a6.03 6.03 0 0 0 2.849-.618l.116-.069a4.012 4.012 0 0 1 2.789-.002.213.213 0 0 1 .077.075.213.213 0 0 1 .028.104v5.884h12.974c.054 0 .106.022.145.06a.207.207 0 0 1 0 .29.204.204 0 0 1-.145.06Zm17.817 0h-13.571a.205.205 0 1 1 0-.41h13.366v-13.841h-8.805a.2.2 0 0 1-.145-.06.204.204 0 0 1 0-.29.205.205 0 0 1 .145-.06h9.01c.027 0 .053.005.078.016a.2.2 0 0 1 .111.111.188.188 0 0 1 .016.078v14.251a.206.206 0 0 1-.205.205Z" fill="#000"/><path d="M231.824 171.009c0 .97 1.71 1.75 3.81 1.75a6.289 6.289 0 0 0 2.95-.64l.12-.07a3.956 3.956 0 0 1 2.55-.02v6.11h-31v-6.09a3.835 3.835 0 0 0-2.58 0l-.12.07a6.289 6.289 0 0 1-2.95.64c-2.1 0-3.81-.78-3.81-1.75 0-.96 1.71-1.75 3.81-1.75a6.308 6.308 0 0 1 2.96.65l.11.07a3.896 3.896 0 0 0 2.58 0v-6.09h13.26c1.17-.45 0-1.19 0-1.19l-.16-.06c-.86-.32-1.4-.81-1.4-1.35 0-.97 1.7-1.75 3.8-1.75 2.1 0 3.81.78 3.81 1.75 0 .55-.55 1.04-1.42 1.36l-.14.05s-1.18.74 0 1.19h13.25v6.1a3.91 3.91 0 0 1-2.55-.01l-.11-.07a6.335 6.335 0 0 0-2.96-.65c-2.1 0-3.81.78-3.81 1.75ZM210.254 178.239v14.25h-13.31c-1.08-.45.06-1.16.06-1.16l.15-.05c.86-.32 1.41-.81 1.41-1.36 0-.97-1.7-1.75-3.8-1.75-2.1 0-3.81.78-3.81 1.75 0 .55.55 1.03 1.4 1.36l.16.05s1.13.71.07 1.16h-13.32v-6.09a3.926 3.926 0 0 0-2.59 0l-.11.07a6.289 6.289 0 0 1-2.95.64c-2.11 0-3.81-.78-3.81-1.75 0-.96 1.7-1.75 3.81-1.75a6.213 6.213 0 0 1 2.96.66l.1.06a3.926 3.926 0 0 0 2.59 0v-6.09h13.25l.1-.04c.95.45-.14 1.13-.14 1.13l-.14.05c-.86.32-1.41.81-1.41 1.36 0 .97 1.7 1.75 3.8 1.75 2.1 0 3.81-.78 3.81-1.75 0-.55-.55-1.04-1.4-1.36l-.16-.05s-1.11-.7-.1-1.15l.13.06h13.25Zm48.646-.059c-1.015.45.097 1.147.097 1.147l.157.055c.858.32 1.402.809 1.402 1.356 0 .967-1.704 1.75-3.806 1.75-2.103 0-3.807-.783-3.807-1.75 0-.55.55-1.042 1.414-1.361l.145-.05s1.088-.678.133-1.131l-.096.042h-13.25v6.094a3.904 3.904 0 0 1-2.587 0l-.106-.068a6.23 6.23 0 0 0-2.962-.65c-2.102 0-3.806.783-3.806 1.75 0 .966 1.704 1.75 3.806 1.75a6.243 6.243 0 0 0 2.951-.645l.117-.072a3.904 3.904 0 0 1 2.587 0v6.093h30.994v-14.252h-13.252l-.131-.058Z" fill="#000"/><path d="M210.254 206.974h-30.99a.191.191 0 0 1-.078-.016.2.2 0 0 1-.111-.111.191.191 0 0 1-.016-.078v-5.963a3.891 3.891 0 0 0-2.32.067l-.065.049c-.95.469-2 .7-3.06.672-2.251 0-4.015-.859-4.015-1.955s1.764-1.955 4.015-1.955a6.527 6.527 0 0 1 3.06.677l.091.061a3.86 3.86 0 0 0 2.294.06v-5.963a.206.206 0 0 1 .205-.205h13.21a.224.224 0 0 1 .28.1.19.19 0 0 1 .014.147.183.183 0 0 1-.094.113l-.05.021a.457.457 0 0 1-.11.029h-13.045v5.885a.204.204 0 0 1-.106.179 4.082 4.082 0 0 1-2.754.015.189.189 0 0 1-.051-.026l-.1-.07a6.134 6.134 0 0 0-2.844-.613c-2.156 0-3.605.799-3.605 1.545 0 .746 1.448 1.545 3.605 1.545a6.118 6.118 0 0 0 2.85-.613l.1-.065a4.063 4.063 0 0 1 2.799-.007.2.2 0 0 1 .077.076.199.199 0 0 1 .029.104v5.885h30.58v-13.84h-13.045a.202.202 0 0 1-.09-.021l-.061-.03a.206.206 0 0 1 .027-.378.206.206 0 0 1 .156.011l.016.008h13.202a.204.204 0 0 1 .205.205v14.25a.191.191 0 0 1-.016.078.2.2 0 0 1-.111.111.188.188 0 0 1-.078.016Z" fill="#000"/><path d="M231.824 199.669c0 .97 1.71 1.76 3.81 1.76a6.295 6.295 0 0 0 2.95-.65l.12-.07a3.923 3.923 0 0 1 2.55-.01v6.07h-31v-6.09a3.909 3.909 0 0 0-2.58 0l-.12.07a6.289 6.289 0 0 1-2.95.64c-2.1 0-3.81-.78-3.81-1.75 0-.96 1.71-1.75 3.81-1.75a6.308 6.308 0 0 1 2.96.65l.11.07a3.896 3.896 0 0 0 2.58 0v-6.09h13.26c1.17-.45 0-1.19 0-1.19l-.16-.05c-.86-.33-1.4-.81-1.4-1.36 0-.97 1.7-1.75 3.8-1.75 2.1 0 3.81.78 3.81 1.75 0 .55-.55 1.04-1.42 1.36l-.14.05s-1.18.74 0 1.19h13.25v6.13a3.916 3.916 0 0 1-2.55-.01l-.11-.06a6.19 6.19 0 0 0-2.96-.66c-2.1 0-3.81.79-3.81 1.75Z" fill="#000"/><path d="M272.284 207.004h-31a.208.208 0 0 1-.078-.015.22.22 0 0 1-.067-.045.214.214 0 0 1-.06-.145v-5.995a.205.205 0 0 1 .175-.31.296.296 0 0 1 .171.067.2.2 0 0 1 .064.148v5.885h30.59v-13.84h-30.59v5.885a.197.197 0 0 1-.064.148.296.296 0 0 1-.171.067.213.213 0 0 1-.104-.028.213.213 0 0 1-.075-.077.21.21 0 0 1 .004-.208v-5.992a.21.21 0 0 1 .127-.189.191.191 0 0 1 .078-.016h31c.027 0 .054.005.079.016a.203.203 0 0 1 .126.189v14.25a.213.213 0 0 1-.015.079.21.21 0 0 1-.19.126Zm-17.82-28.66h-13.17a.191.191 0 0 1-.078-.016.2.2 0 0 1-.111-.111.188.188 0 0 1-.016-.078v-5.96a3.968 3.968 0 0 0-2.319.064l-.082.053a6.524 6.524 0 0 1-3.053.668c-2.252 0-4.016-.859-4.016-1.955s1.764-1.955 4.016-1.955a6.526 6.526 0 0 1 3.059.677l.119.074a3.906 3.906 0 0 0 2.276.038v-5.954c0-.027.005-.054.016-.078a.2.2 0 0 1 .111-.111.191.191 0 0 1 .078-.016h9.43a.2.2 0 0 1 .191.126.213.213 0 0 1 0 .158.2.2 0 0 1-.191.126h-9.225v5.885a.205.205 0 0 1-.108.181 4.094 4.094 0 0 1-2.752.013l-.154-.091a6.112 6.112 0 0 0-2.851-.618c-1.954 0-3.605.707-3.605 1.545s1.651 1.545 3.605 1.545a6.113 6.113 0 0 0 2.851-.613l.116-.069a4.12 4.12 0 0 1 2.744-.027.147.147 0 0 1 .039.021.19.19 0 0 1 .084.075c.021.032.031.07.031.108v5.885h12.965a.2.2 0 0 1 .191.126c.01.025.016.052.016.079a.214.214 0 0 1-.061.146.2.2 0 0 1-.146.059Zm17.044-.004h-12.801a.204.204 0 0 1-.145-.35.209.209 0 0 1 .145-.06h12.801c.054 0 .107.022.145.06a.207.207 0 0 1 0 .29.203.203 0 0 1-.145.06Zm-64.811-29.308c5.203-.158 10.407-.226 15.61-.341l15.609-.195c10.407-.116 20.813-.105 31.219-.164 10.407.055 20.813.05 31.219.161l15.61.196c5.203.116 10.406.184 15.609.343-5.203.159-10.406.227-15.609.344l-15.61.195c-10.406.112-20.812.106-31.219.161-10.406-.059-20.812-.048-31.219-.163l-15.609-.195c-5.203-.116-10.407-.184-15.61-.342Zm-88.418-85.906a50.401 50.401 0 0 1-6.823-.505.49.49 0 0 1-.183-.062c-1.089-.63-6.556-3.847-7.259-5.254a6.686 6.686 0 0 0-3.494-2.196c-2.64-.863-7.064-1.23-13.15 1.912a.502.502 0 0 1-.727-.5c.05-.441 1.313-10.794 9.626-12.872.092-.015 2.96-.452 4.514-6.204 1.672-6.183 4.858-8.221 7.185-9.708l.258-.166c2.128-1.368 4.656-7.243 5.156-10.913.55-4.034 6.896-14.536 18.619-15.398 10.002-.733 23.359 6.413 25.141 10.824a2.182 2.182 0 0 1-.519 2.627 95.001 95.001 0 0 1-21.899 20.777v15.204a10.526 10.526 0 0 1-3.096 8.228c-2.833 2.8-7.308 4.206-13.349 4.206Zm-6.59-1.482c9.196 1.247 15.669.09 19.236-3.435a9.654 9.654 0 0 0 2.803-7.455l-.004-15.532c0-.082.02-.162.058-.235a.506.506 0 0 1 .162-.18 93.601 93.601 0 0 0 21.899-20.725.446.446 0 0 1 .089-.095 1.178 1.178 0 0 0 .283-1.53c-1.643-4.066-14.686-10.891-24.141-10.2-10.996.81-17.199 10.854-17.701 14.535-.477 3.498-2.956 9.916-5.606 11.62l-.26.166c-2.312 1.479-5.188 3.319-6.758 9.128-1.751 6.478-5.162 6.91-5.307 6.925-6.181 1.55-8.131 8.51-8.644 11.063 5.94-2.823 10.342-2.412 13.032-1.536a7.439 7.439 0 0 1 4.078 2.7c.436.872 4.353 3.375 6.781 4.786Zm37.224 86.754-.012.01c-.12.208-.23.414-.354.624l.366-.634Z" fill="#000"/><path d="M180.714 105.759c-1.26-1.76-2.01-14.63-2.01-14.63-1.77-30.52-23.62-35.48-23.62-35.48a6.395 6.395 0 0 1-1.1 1.05c-4.42 3.28-13.12 1.77-13.12 1.77s-4.03 1.26-5.42 6.81c-1.39 5.55 1.01 21.69-2.27 20.81-3.28-.88-10.61-.77-11.17-23.47 0 0 .01-.08.04-.22a41.537 41.537 0 0 1-10.52-.27s-6.39-3.7-7.06-5.05c-.68-1.34-6.9-5.88-17.32-.5 0 0-10.59.97-21.82 13.2-11.23 12.23-23.08 35.73-25.6 80.79l8.72 2.57c.04-4.7.29-9.39.67-14.07a149.887 149.887 0 0 1 2.74-18.94c1.39-6.2 3.1-12.48 6.37-17.98a49.977 49.977 0 0 0-3.24 8.93c-.85 3.05-1.52 6.15-2.08 9.26-1.1 6.24-1.87 12.54-2.4 18.85-.55 6.32-.85 12.66-.96 19-.05 3.17-.02 6.34.15 9.51.07 1.58.16 3.16.36 4.73.093.786.226 1.567.4 2.34.083.385.197.763.34 1.13.084.205.184.402.3.59l.05.05c.105.105.222.195.35.27 0 0 30.54-12.16 52.46-22.87-.05-2.51-.02-5.01-.03-7.5l-.11-7.49c-.19-4.99-.33-9.97-.78-14.93-.36-4.96-.96-9.91-1.78-14.82-.4-2.45-.897-4.887-1.49-7.31a48.644 48.644 0 0 0-2.2-7.14 56.07 56.07 0 0 1 4.75 14.25c.56 2.45.93 4.94 1.32 7.42.3 2.49.62 4.99.8 7.49.22 2.5.31 5.01.41 7.51.08 2.51.07 5.02.05 7.52l-.29 7.51c-.22 2.5-.39 5-.65 7.49 0 0 2.32 3.74 26.79-.88 0 0 17.67-4.06 18.16-4.65 10.96-19.18 6.18-33.06 6.18-33.06a69.145 69.145 0 0 1-1-7.28c-.24-2.44-.35-4.88-.41-7.33-.04-2.45 0-4.9.19-7.35.131-2.462.54-4.901 1.22-7.27-.16 2.45-.14 4.87-.13 7.3.03 2.43.06 4.86.12 7.29.07 4.87.19 9.73.01 14.64 6.65 1.26 25.63-9.59 25.63-9.59Zm-88.65-23.69a8.296 8.296 0 0 0-1.18-1.19l-1.25-1.09c-.44-.34-.92-.62-1.38-.93a16.648 16.648 0 0 0-6.12-2.37 22.856 22.856 0 0 0-6.61-.25c-2.223.214-4.416.67-6.54 1.36a23.053 23.053 0 0 1 6.48-1.9 22.153 22.153 0 0 1 6.8.1 16.253 16.253 0 0 1 6.29 2.62 16.885 16.885 0 0 1 4.64 4.89l-1.13-1.24Z" fill="#000"/><path d="m122.046 62.4 2.307-.457c.745-.237 1.502-.44 2.228-.716a13.816 13.816 0 0 0 3.971-2.351 9.912 9.912 0 0 0 2.589-3.715 9.679 9.679 0 0 0 .649-4.416l-.003-.054c-.116-5.156-.146-10.313-.224-15.47a.634.634 0 0 1 .266-.53l.025-.017c2.052-1.463 4.082-2.956 6.009-4.58 1.952-1.59 3.808-3.296 5.63-5.031a93.247 93.247 0 0 0 5.26-5.412 73.462 73.462 0 0 0 4.753-5.807.644.644 0 0 1 .064-.076l.097-.098a.756.756 0 0 0 .269-.526 1.857 1.857 0 0 0-.269-.841 8.208 8.208 0 0 0-1.607-1.855 25.225 25.225 0 0 0-4.39-3.011 41.538 41.538 0 0 0-10.051-3.923 28.773 28.773 0 0 0-5.285-.812 16.316 16.316 0 0 0-2.634.065 16.66 16.66 0 0 0-2.597.433c-.855.2-1.697.459-2.517.774-.815.336-1.607.723-2.372 1.16a19.614 19.614 0 0 0-4.227 3.193 22.655 22.655 0 0 0-3.359 4.126 12.755 12.755 0 0 0-1.972 4.775 24.588 24.588 0 0 1-1.702 5.467 18.458 18.458 0 0 1-2.982 4.946c-.171.187-.371.362-.556.54-.209.158-.451.347-.645.467l-1.156.733a13.92 13.92 0 0 0-2.083 1.634 12.933 12.933 0 0 0-2.923 4.374 23.352 23.352 0 0 0-.891 2.556c-.268.917-.612 1.81-1.03 2.669a9.904 9.904 0 0 1-1.657 2.385 4.897 4.897 0 0 1-2.601 1.52l.054-.01a10.547 10.547 0 0 0-3.588 1.64 12.51 12.51 0 0 0-2.772 2.886 18.908 18.908 0 0 0-1.872 3.604 20.085 20.085 0 0 0-1.111 3.938c.16-1.366.458-2.712.89-4.017a17.654 17.654 0 0 1 1.735-3.76 13.053 13.053 0 0 1 2.766-3.13 11.224 11.224 0 0 1 3.763-1.913l.054-.01a4.236 4.236 0 0 0 2.03-1.36 9.233 9.233 0 0 0 1.403-2.213c.369-.814.67-1.658.898-2.523.235-.915.524-1.816.864-2.7a14.184 14.184 0 0 1 3.078-4.858c.682-.683 1.427-1.3 2.225-1.843l1.166-.782c.195-.13.309-.238.469-.357.141-.15.289-.28.426-.438a17.133 17.133 0 0 0 2.587-4.59 25.29 25.29 0 0 0 1.483-5.13c.071-.492.175-.98.311-1.46.139-.475.31-.941.512-1.394.383-.888.833-1.747 1.344-2.57a24.393 24.393 0 0 1 3.585-4.484 21.44 21.44 0 0 1 4.565-3.508 22.547 22.547 0 0 1 2.593-1.295 21.244 21.244 0 0 1 2.768-.88 18.745 18.745 0 0 1 2.861-.501c.963-.108 1.934-.14 2.902-.095 1.91.095 3.807.369 5.666.818a41.544 41.544 0 0 1 10.525 4.179 27.04 27.04 0 0 1 4.705 3.294 9.909 9.909 0 0 1 1.971 2.352c.316.544.484 1.16.487 1.79a2.604 2.604 0 0 1-.937 1.873l.161-.175a74.506 74.506 0 0 1-4.939 5.936 95.624 95.624 0 0 1-5.4 5.463 89.776 89.776 0 0 1-5.843 4.98c-2 1.598-4.102 3.063-6.222 4.493l.291-.547c-.077 5.156-.108 10.313-.224 15.469l-.003-.053a10.389 10.389 0 0 1-.893 4.782 10.507 10.507 0 0 1-2.902 3.818 13.703 13.703 0 0 1-4.191 2.239c-.752.24-1.529.4-2.289.596l-2.336.327Z" fill="#000"/><path d="M156.253 14.44c-.003.103-.133.23-.213.366l-.275.39-.558.775c-.371.518-.77 1.013-1.158 1.518a91.048 91.048 0 0 1-2.43 2.946 84.47 84.47 0 0 1-5.247 5.558c-1.833 1.77-3.701 3.517-5.695 5.11-1.965 1.634-4.033 3.136-6.124 4.607l.26-.488c.008 2.578.054 5.156.032 7.735l-.042 7.734-.004-.07c.1 1.668-.202 3.336-.881 4.863a10.675 10.675 0 0 1-2.936 3.894 14.112 14.112 0 0 1-4.241 2.292c-.759.25-1.541.422-2.31.627l-2.353.37.233-.214-.045.22.004-.056.141 3.683c.077 1.225.202 2.447.301 3.672a39.655 39.655 0 0 0 1.489 7.184 14.203 14.203 0 0 0 3.574 6.206 8.153 8.153 0 0 0 3.063 1.732 16.85 16.85 0 0 0 1.755.437l.462.104.228.05a.673.673 0 0 1 .127.01c.142-.005.256-.09.391-.277a8.76 8.76 0 0 0 .631-3.374c.052-1.211.052-2.435.039-3.661-.029-2.454-.128-4.918-.133-7.4.002-1.241.032-2.487.14-3.747.092-1.293.377-2.566.848-3.774a9.696 9.696 0 0 1 5.325-5.681.514.514 0 0 1 .266-.032l.072.01c2.239.32 4.506.393 6.761.215a11.098 11.098 0 0 0 6.077-2.097 7.453 7.453 0 0 0 1.878-2.552 15.898 15.898 0 0 0 1.129-3.14c.56-2.201.88-4.456.956-6.726a.668.668 0 0 1 .457-.61l.015-.003c.326-.061.62-.235.832-.49.211-.256.326-.578.325-.91a5.351 5.351 0 0 0-.416-2.357l-.013-.033a.55.55 0 0 1-.033-.26l.74-6.328c.341-2.07.497-4.163.467-6.26a23.318 23.318 0 0 0-1.18-6.143 26.458 26.458 0 0 0-1.198-2.92c-.236-.47-.479-.94-.743-1.396l-.407-.68-.215-.331-.112-.163-.055-.081c-.009-.01 0-.024-.001-.053Zm-.003-.14a22.805 22.805 0 0 1 4.668 11.857 36.13 36.13 0 0 1-.241 6.426l-.573 6.332-.046-.293c.195.455.346.927.45 1.41.115.5.156 1.014.12 1.525a2.652 2.652 0 0 1-2.035 2.519l.472-.613a30.819 30.819 0 0 1-.868 7.073 17.37 17.37 0 0 1-1.213 3.415 8.854 8.854 0 0 1-2.221 3.022 12.478 12.478 0 0 1-6.873 2.469 28.658 28.658 0 0 1-7.148-.264l.338-.022a7.359 7.359 0 0 0-2.694 1.89 9.457 9.457 0 0 0-1.807 2.913c-.916 2.14-.91 4.592-.989 7.037-.048 2.447-.003 4.91-.027 7.386a52.972 52.972 0 0 1-.141 3.727 20.76 20.76 0 0 1-.236 1.882 5.384 5.384 0 0 1-.663 1.912 1.37 1.37 0 0 1-1.12.63 4.072 4.072 0 0 1-.332-.043l-.22-.057-.437-.113a18.724 18.724 0 0 1-1.814-.514 8.863 8.863 0 0 1-3.264-1.973 15.543 15.543 0 0 1-3.602-6.528 42.9 42.9 0 0 1-1.451-7.283c-.116-1.23-.26-2.46-.354-3.691l-.195-3.701a.199.199 0 0 1 .003-.05l.002-.007.043-.226a.265.265 0 0 1 .212-.212l.02-.003 2.289-.413c.738-.228 1.489-.42 2.208-.686a13.385 13.385 0 0 0 3.922-2.296 9.683 9.683 0 0 0 3.215-7.975l-.002-.03-.002-.041-.042-7.734c-.022-2.58.024-5.157.032-7.735a.602.602 0 0 1 .26-.49c2.081-1.421 4.144-2.877 6.108-4.464a108.583 108.583 0 0 0 5.778-4.901c1.879-1.693 3.655-3.495 5.412-5.318a90.774 90.774 0 0 0 2.567-2.801c.851-.972 1.602-1.89 2.491-2.947Z" fill="#000"/><path d="M142.488 28.916a21.368 21.368 0 0 1 5.912-.123c1.978.184 3.909.71 5.708 1.552a78.22 78.22 0 0 0-5.785-.856c-1.932-.22-3.868-.368-5.835-.573Zm6.701 6.642a1.05 1.05 0 0 0 0-2.102 1.053 1.053 0 0 0 0 2.102Zm12.99-5.213a23.28 23.28 0 0 0-2.361.08l-2.35.174.264-.178a7.86 7.86 0 0 0-.492 2.213 7.943 7.943 0 0 0 .132 2.277c.179.757.436 1.493.765 2.197.158.358.338.706.539 1.042.213.3.446.7.855.706-.43.103-.775-.288-1.044-.56a6.014 6.014 0 0 1-.724-.992 8.759 8.759 0 0 1-1.005-2.245 7.393 7.393 0 0 1 .409-4.908l.003-.006a.3.3 0 0 1 .262-.172 27.075 27.075 0 0 1 2.384.035c.797.03 1.589.143 2.363.337Z" fill="#000"/><path d="M158.963 35.747a1.05 1.05 0 0 0 .72-1.781 1.055 1.055 0 0 0-.72-.321 1.055 1.055 0 0 0-1.015 1.051 1.053 1.053 0 0 0 1.015 1.051Zm-9.269 11.245 2.208 1.192c.715.385 1.463.706 2.234.959a2.028 2.028 0 0 0 2.039-.17 3.961 3.961 0 0 0 .689-2.233 3.189 3.189 0 0 1-.272 2.587 1.791 1.791 0 0 1-1.299.661 3.929 3.929 0 0 1-1.358-.174 8.788 8.788 0 0 1-2.312-1.162 11.07 11.07 0 0 1-1.929-1.66Zm2.333-6.999c-.036.546-.032 1.095.011 1.64a4.56 4.56 0 0 0 .493 1.513 1.48 1.48 0 0 1-.804-.515 1.736 1.736 0 0 1-.384-.915 1.919 1.919 0 0 1 .684-1.723Zm-17.803 10.699c.636.606 1.22 1.266 1.746 1.971l.779 1.019c.259.351.539.686.838 1.003a2.734 2.734 0 0 1-1.227-.618 5.88 5.88 0 0 1-.944-.974 6.424 6.424 0 0 1-1.192-2.401Zm25.296-7.879c.466 2.78.74 5.546 1.091 8.297.174 1.372.346 2.747.594 4.099.118.676.27 1.345.456 2.005.157.672.44 1.309.833 1.876a7.378 7.378 0 0 1-2.048-3.699 27.1 27.1 0 0 1-.827-4.158 36.819 36.819 0 0 1-.099-8.42ZM42.78 151.473a42.798 42.798 0 0 1-.34 5.814 42.354 42.354 0 0 1-1.036 5.73c-.02-1.943.094-3.886.34-5.813a43 43 0 0 1 1.037-5.731Zm6.372 12.891c-3.16-.333-6.314-.704-9.463-1.112l.242-.121a84.624 84.624 0 0 0-3.478 8.209 134.973 134.973 0 0 0-2.757 8.494c-.785 2.871-1.53 5.758-2.132 8.677-.628 2.915-1.118 5.857-1.594 8.809.259-2.976.598-5.953 1.144-8.896.48-2.956 1.189-5.87 1.958-8.764a87.43 87.43 0 0 1 2.769-8.548 65.123 65.123 0 0 1 3.673-8.209.244.244 0 0 1 .102-.099.242.242 0 0 1 .14-.022c3.137.494 6.268 1.022 9.396 1.582Zm4.212 12.213a53.078 53.078 0 0 0 2.059 7.914 35.242 35.242 0 0 0 3.353 7.408 28.275 28.275 0 0 0 5.135 6.234 30.218 30.218 0 0 0 6.662 4.536 28.779 28.779 0 0 0 15.675 2.692c.663-.1 1.338-.12 1.99-.285l1.966-.427 3.943-1.083c2.62-.759 5.229-1.555 7.819-2.41a252.022 252.022 0 0 0 15.353-5.658c5.054-2.059 10.021-4.327 14.954-6.667 4.932-2.344 9.787-4.854 14.588-7.464 4.812-2.592 9.543-5.334 14.23-8.148l-.022.015a29.157 29.157 0 0 1 9.772-4.124 37.875 37.875 0 0 1 10.549-.923c3.541.173 7.044.802 10.424 1.87.823.276 1.664.496 2.517.66a5.841 5.841 0 0 0 2.492-.135 2.679 2.679 0 0 0 1.709-1.555 5.6 5.6 0 0 0 .279-2.453v-.01a.347.347 0 0 1 .1-.25 13.692 13.692 0 0 0 1.542-1.84 9.776 9.776 0 0 0 1.149-2.087 5.698 5.698 0 0 0 .441-2.257 4.25 4.25 0 0 0-.711-2.102.402.402 0 0 1 .117-.556l.038-.022a12.597 12.597 0 0 0 2.803-1.941 6.171 6.171 0 0 0 1.824-2.711c.067-.255.114-.515.138-.778-.011-.271.014-.501-.024-.815a39.392 39.392 0 0 1-.119-1.789c-.072-1.218-.03-2.44.127-3.65a.388.388 0 0 1 .098-.207l.032-.036a18.925 18.925 0 0 0 4.376-7.69 9.087 9.087 0 0 0 .132-4.302 4.012 4.012 0 0 0-.291-1.03 9.703 9.703 0 0 0-.41-.991 7.638 7.638 0 0 0-1.186-1.709 3.54 3.54 0 0 0-3.636-.729 3.5 3.5 0 0 0-1.535 1.153 17.872 17.872 0 0 0-1.166 1.871 45.001 45.001 0 0 0-1.965 4.096 6.886 6.886 0 0 1-3.407 3.622 8.809 8.809 0 0 1-4.885.591 11.776 11.776 0 0 1-4.592-1.581 12.703 12.703 0 0 1-5.685-7.646c-.105-.394-.167-.797-.251-1.196l-.136-1.214-.158-2.278a56.706 56.706 0 0 0-.536-4.511 21.384 21.384 0 0 0-1.086-4.299 4.418 4.418 0 0 0-1.02-1.646.999.999 0 0 0-1.298-.059l-.216.082a2.255 2.255 0 0 0-.368.175c-.153.09-.3.189-.44.297a6.589 6.589 0 0 0-.807.795 10.728 10.728 0 0 0-1.289 2.002 20.783 20.783 0 0 0-1.595 4.671 43.306 43.306 0 0 0-.827 4.956c-.166.871-.278 1.757-.497 2.616l-.405 1.268a7.075 7.075 0 0 1-.474 1.24 23.05 23.05 0 0 1-6.388 8.26 34.225 34.225 0 0 1-8.882 5.392c-.016.007-.033.012-.049.017-8.473 2.261-17 4.268-25.616 5.881-4.309.794-8.642 1.49-13.016 1.863a54.73 54.73 0 0 1-6.579.209 17.114 17.114 0 0 1-1.645-.118 13.883 13.883 0 0 1-1.634-.246 6.042 6.042 0 0 1-2.997-1.349.07.07 0 0 1-.001-.099.07.07 0 0 1 .1.001 5.891 5.891 0 0 0 2.942 1.225c.534.098 1.074.165 1.615.199.541.053 1.084.072 1.629.073 2.18.005 4.358-.122 6.523-.38 4.334-.505 8.638-1.26 12.923-2.105 8.561-1.729 17.053-3.855 25.454-6.224l-.05.016a33.133 33.133 0 0 0 8.466-5.31 21.734 21.734 0 0 0 5.917-7.856c.182-.366.327-.75.434-1.146l.371-1.169c.2-.791.296-1.606.453-2.408.182-1.725.464-3.438.844-5.131a22.24 22.24 0 0 1 1.698-4.991 12.2 12.2 0 0 1 1.473-2.291 8.01 8.01 0 0 1 1.012-.997 4.086 4.086 0 0 1 1.416-.758l-.216.082a2.849 2.849 0 0 1 1.484-.4 2.414 2.414 0 0 1 1.481.61 5.73 5.73 0 0 1 1.428 2.203c.555 1.49.952 3.035 1.185 4.608a58.29 58.29 0 0 1 .561 4.628c.066.772.121 1.544.166 2.316l.113 1.073c.074.352.125.709.216 1.058a11.256 11.256 0 0 0 4.987 6.797 10.379 10.379 0 0 0 4.041 1.419 7.471 7.471 0 0 0 4.138-.45 5.528 5.528 0 0 0 2.761-2.929 45.9 45.9 0 0 1 2.044-4.189c.384-.701.813-1.377 1.283-2.023a4.73 4.73 0 0 1 3.397-1.839 4.72 4.72 0 0 1 3.633 1.313 9.711 9.711 0 0 1 1.978 9.195 19.902 19.902 0 0 1-4.747 8.1l.13-.242a19.06 19.06 0 0 0-.155 3.418c.02.583.047 1.165.093 1.748.02.318.025.636.013.954a5.599 5.599 0 0 1-.184.959 6.997 6.997 0 0 1-2.105 3.077 13.36 13.36 0 0 1-3.032 2.037l.155-.577c.494.753.776 1.625.816 2.525 0 .876-.18 1.743-.528 2.547-.328.786-.75 1.529-1.258 2.213a14.376 14.376 0 0 1-1.655 1.916l.101-.26a6.2 6.2 0 0 1-.364 2.742 3.27 3.27 0 0 1-2.092 1.856 6.388 6.388 0 0 1-2.741.117 19.942 19.942 0 0 1-2.585-.691 40.862 40.862 0 0 0-10.302-1.905 35.195 35.195 0 0 0-10.42.906 28.739 28.739 0 0 0-9.559 4.103l-.016.012-.007.004c-9.338 5.71-18.806 11.238-28.63 16.109a215.023 215.023 0 0 1-30.392 12.533 223.797 223.797 0 0 1-7.88 2.37l-3.978 1.063-2.046.431c-.68.165-1.381.184-2.07.282a28.014 28.014 0 0 1-8.321-.312 30.75 30.75 0 0 1-7.876-2.666 29.053 29.053 0 0 1-11.913-11.269 35.752 35.752 0 0 1-3.188-7.601 53.248 53.248 0 0 1-1.844-8.01.069.069 0 0 1 .013-.052.07.07 0 0 1 .046-.028.077.077 0 0 1 .05.015.072.072 0 0 1 .029.046Z" fill="#000"/><path d="M199.635 149.649a20.903 20.903 0 0 0 3.74-1.555 9.407 9.407 0 0 0 3.063-2.447l.007-.009a.354.354 0 0 1 .493-.07.352.352 0 0 1 .127.368.338.338 0 0 1-.059.124l-.019.024a9.908 9.908 0 0 1-3.458 2.325 21.03 21.03 0 0 1-3.894 1.24Zm-44.864-16.637c.358 1.032.77 2.03 1.193 3.015.427.979.908 1.933 1.437 2.861a20.15 20.15 0 0 0 1.815 2.611c.702.812 1.484 1.55 2.336 2.203a8.936 8.936 0 0 1-2.737-1.831 13.272 13.272 0 0 1-2.02-2.631 15.748 15.748 0 0 1-2.024-6.228Zm24.553-26.483c.68 1.25 1.321 2.51 1.991 3.76l-.411.16c-.55-1.3-1.08-2.6-1.58-3.92Zm17.64 32.69a5.914 5.914 0 0 1-1.709-1.6c-.49-.6-.951-1.24-1.401-1.88-.52-.77-1.009-1.55-1.489-2.34l.609-.25c.42.78.85 1.56 1.3 2.33.38.67.77 1.34 1.19 1.99a6.798 6.798 0 0 0 1.5 1.75Zm138.089-54.257a24.454 24.454 0 0 0-3.126-8.078 5.575 5.575 0 0 0-3.005-2.645 8.996 8.996 0 0 0-4.112-.06c-1.413.233-2.831.615-4.302.892-.751.155-1.513.248-2.279.28a4.774 4.774 0 0 1-2.432-.497 4.316 4.316 0 0 1-1.788-1.793 7.538 7.538 0 0 1-.743-2.264c-.069-.367-.118-.771-.18-1.057a3.075 3.075 0 0 0-.369-.833 8.797 8.797 0 0 0-1.277-1.606l.352-.903a.02.02 0 0 0-.01-.006c-.004-.002-.007-.002-.011-.002a.023.023 0 0 0-.011.003l-.009.007c.006 0 .044-.025.065-.034.067-.036.13-.078.189-.126.145-.113.283-.235.414-.365.277-.266.546-.558.808-.857a36.375 36.375 0 0 0 1.518-1.864l.566.554a1.525 1.525 0 0 1-.28.125l-.197.037c-.133.025-.239.025-.36.037-.229.012-.455.016-.676.013-.443-.004-.88-.022-1.316-.05-.872-.048-1.736-.13-2.604-.21a.284.284 0 0 1-.234-.175 10.175 10.175 0 0 0-.454-1.032c-.17-.316-.372-.684-.599-.773-.676-.26-1.463-.428-2.202-.635a20.52 20.52 0 0 1-2.272-.694.852.852 0 0 1-.442-.581 1.7 1.7 0 0 1-.002-.663c.076-.4.202-.788.375-1.156a27.836 27.836 0 0 1 2.424-4.014 7.458 7.458 0 0 0 1.015-1.986 4.13 4.13 0 0 0 .172-2.085l.011.033a18.095 18.095 0 0 1-1-3.905 34.172 34.172 0 0 1-.378-3.976 62.37 62.37 0 0 1 .191-7.96.646.646 0 0 1 .549-.58.643.643 0 0 1 .69.401l.011.03a42.502 42.502 0 0 0 2.759 5.679 31.969 31.969 0 0 0 3.638 5.107 14.429 14.429 0 0 0 4.792 3.707 7.985 7.985 0 0 0 5.769.304l-.451.542c.16-.894.419-1.768.771-2.606a5.768 5.768 0 0 1 1.648-2.321 5.25 5.25 0 0 1 .678-.401c.255-.088.517-.156.783-.204.264-.01.527.002.789.032.247.044.489.115.721.21.231.07.449.176.646.315l.599.37c.352.288.689.59 1.026.888.05.044.088.099.113.16a26.208 26.208 0 0 1 1.101 3.429c.304 1.169.47 2.369.495 3.576a4.582 4.582 0 0 1-1.201 3.43 4.08 4.08 0 0 1-3.5.679.06.06 0 0 1-.02-.02.057.057 0 0 1-.011-.024c-.002-.01-.003-.018-.002-.027a.075.075 0 0 1 .028-.044.07.07 0 0 1 .049-.014 3.94 3.94 0 0 0 3.169-.85 4.134 4.134 0 0 0 .834-3.115 14.859 14.859 0 0 0-.648-3.372 25.329 25.329 0 0 0-1.222-3.232l.113.16-.944-.752-.5-.285a1.497 1.497 0 0 0-.505-.228 1.726 1.726 0 0 0-1.854.255 4.584 4.584 0 0 0-1.208 1.869 11.073 11.073 0 0 0-.612 2.319.676.676 0 0 1-.443.538l-.008.003a9.212 9.212 0 0 1-6.784-.232 15.138 15.138 0 0 1-5.327-4.068 30.594 30.594 0 0 1-3.745-5.402 43.672 43.672 0 0 1-2.751-5.935l1.25-.151a68.986 68.986 0 0 0-.401 7.792c.002 1.298.069 2.594.201 3.885a16.81 16.81 0 0 0 .779 3.759l.01.027.001.007a6.085 6.085 0 0 1-1.446 4.58 25.94 25.94 0 0 0-2.443 3.892c-.162.33-.283.68-.359 1.04-.072.35-.03.682.216.8.712.256 1.438.469 2.175.638.755.2 1.489.357 2.273.62.385.224.689.564.867.972.192.349.364.709.515 1.078l-.234-.174a53.09 53.09 0 0 0 2.583.086c.43.004.858 0 1.28-.017a9.55 9.55 0 0 0 .624-.043c.094-.015.204-.022.282-.043l.121-.028c.015-.01.007-.01.019-.003l.514.312a.173.173 0 0 1 .077.105.167.167 0 0 1-.02.129l-.005.008a34.794 34.794 0 0 1-1.462 1.99 14.97 14.97 0 0 1-.818.956c-.151.163-.31.317-.478.462-.096.084-.198.16-.308.226-.159.11-.346.174-.539.185l.354-.903a9.8 9.8 0 0 1 1.544 1.76c.241.356.424.748.542 1.16.103.43.145.757.221 1.109a4.266 4.266 0 0 0 1.925 3.173 6.357 6.357 0 0 0 3.921.165c1.42-.237 2.85-.594 4.34-.812a9.285 9.285 0 0 1 4.601.227c.377.139.74.315 1.083.527.33.226.635.487.912.777.272.278.517.582.732.906.228.304.418.63.614.953a17.95 17.95 0 0 1 1.737 4.118c.427 1.418.72 2.872.875 4.344a.087.087 0 0 1-.003.028.11.11 0 0 1-.013.024.058.058 0 0 1-.021.017.079.079 0 0 1-.026.008.077.077 0 0 1-.049-.015.077.077 0 0 1-.028-.043Z" fill="#000"/><path d="M362.994 52.159c-1.14-3.28-9.21-12.23-11.6-13.3 0 0-.25-10.03-3.91-12.55 0 0 8.83-7.44-1.26-13.75 0 0-8.71-4.03-8.96 6.94 0 0-20.68-2.27-30.14 14.63 0 0 6.01 18.7 17.78 15.22 0 0 1.18-8.37 6.65-3.45 0 0 4.87 9.92-1.52 11.52a9.815 9.815 0 0 0-.92 6.89c.92 3.87-.6 9.3-.6 9.3s-3.86 13.74 7.49 11.34c11.35-2.39 29.26-8.57 32.41-21.06 0 0-4.29-8.45-5.42-11.73Zm-20.06-30.77a7.578 7.578 0 0 1 1.53 1.24c.505.466.816 1.105.87 1.79a5.231 5.231 0 0 0-1.38-1.2c-.51-.33-1.01-.66-1.54-.97a27.382 27.382 0 0 1-3.13-2.12 8.876 8.876 0 0 1 3.65 1.26Zm6.74 22.22a18.986 18.986 0 0 1-3.74 4.39 25.515 25.515 0 0 1-4.75 3.21 24.35 24.35 0 0 1-5.3 2.09c1.7-.83 3.32-1.78 4.91-2.76a37.552 37.552 0 0 0 4.49-3.29 24.717 24.717 0 0 0 3.73-4.06 17.846 17.846 0 0 0 2.34-5.04 12.87 12.87 0 0 1-1.68 5.46Z" fill="#000"/><path d="M308.639 49.388a5.378 5.378 0 0 1 2.173-1.888 4.782 4.782 0 0 1 1.411-.433 2.87 2.87 0 0 1 1.461.177 9.562 9.562 0 0 0-2.567.886c-.813.388-1.595.846-2.478 1.258Zm3.153 3.7a1.055 1.055 0 0 0 1.015-1.05 1.053 1.053 0 0 0-1.015-1.052 1.05 1.05 0 0 0-.72 1.781c.189.196.448.311.72.321Zm56.626 10.768a44.827 44.827 0 0 1 14.045 3.238 60.388 60.388 0 0 1 12.725 6.87 73.5 73.5 0 0 1 19.48 21.175l1.87 3.092 1.737 3.168c.608 1.042 1.116 2.134 1.653 3.213.515 1.088 1.104 2.143 1.56 3.259.966 2.206 1.949 4.408 2.771 6.674.906 2.235 1.652 4.527 2.413 6.814.402 1.138.735 2.296 1.063 3.455l1.001 3.476c.606 2.334 1.147 4.689 1.702 7.037l2.279 14.265a.364.364 0 0 1-.282.413l-10.281 2.256-10.297 2.186-10.297 2.186-10.309 2.13a.034.034 0 0 1-.026-.005.034.034 0 0 1-.01-.048.03.03 0 0 1 .021-.015l10.247-2.411 10.26-2.354 10.26-2.353 10.275-2.285-.282.414-2.224-14.255c-.533-2.337-1.061-4.676-1.635-7.005l-.943-3.476c-.308-1.161-.622-2.32-1.004-3.459a105.508 105.508 0 0 0-11.762-26.22 83.313 83.313 0 0 0-8.803-11.37 71.628 71.628 0 0 0-10.783-9.47 59.869 59.869 0 0 0-12.532-6.972 56.914 56.914 0 0 0-6.818-2.278 38.63 38.63 0 0 0-7.076-1.275.035.035 0 0 1-.025-.01.035.035 0 0 1-.01-.024.041.041 0 0 1 .011-.025.04.04 0 0 1 .026-.01Z" fill="#000"/><path d="M428.589 150.481a30.453 30.453 0 0 1 1.468 4.674c.393 1.587.656 3.204.786 4.835a30.093 30.093 0 0 1-1.468-4.674 30.533 30.533 0 0 1-.786-4.835Zm-63.073-57.836a29.747 29.747 0 0 1 3.242-5.606 28.816 28.816 0 0 1 4.389-4.809 18.893 18.893 0 0 1 5.608-3.344 15.51 15.51 0 0 1 3.191-.73 13.548 13.548 0 0 1 3.244.112 15.043 15.043 0 0 0-6.242 1.121 19.802 19.802 0 0 0-5.347 3.374 32.034 32.034 0 0 0-4.417 4.601 47.413 47.413 0 0 0-3.668 5.281Zm37.582-4.54a18.125 18.125 0 0 1 3.237 3.116A20.634 20.634 0 0 1 408.813 95a17.107 17.107 0 0 1 1.532 4.258c.331 1.471.439 2.983.32 4.485-.139-.741-.138-1.484-.331-2.204l-.209-1.085-.302-1.062a23.073 23.073 0 0 0-1.634-4.075 30.38 30.38 0 0 0-2.28-3.769 33.985 33.985 0 0 0-2.811-3.443Zm-39.536 12.137a328.917 328.917 0 0 1-3.191 7.57c-1.106 2.503-2.166 5.028-3.315 7.512l-3.395 7.475a297.084 297.084 0 0 1-3.536 7.409l-.18-.682 8.731 6.54c2.916 2.172 5.89 4.263 8.874 6.339 2.975 2.088 6.001 4.106 9.011 6.146 3.021 2.024 6.008 4.096 9.001 6.161l-.845.089a114.016 114.016 0 0 0 7.43-9.577c2.318-3.314 4.53-6.705 6.515-10.225a83.887 83.887 0 0 0 5.205-10.932 53.272 53.272 0 0 0 2.944-11.752.084.084 0 0 1 .008-.027.068.068 0 0 1 .041-.034c.009-.003.018-.004.028-.003a.074.074 0 0 1 .045.024.07.07 0 0 1 .018.048 45.505 45.505 0 0 1-2.196 12.055 76.472 76.472 0 0 1-4.883 11.286 97.564 97.564 0 0 1-6.509 10.423 109.538 109.538 0 0 1-7.7 9.583.642.642 0 0 1-.845.089c-2.935-2.145-5.875-4.284-8.782-6.469-2.917-2.171-5.819-4.363-8.77-6.485-2.943-2.134-5.897-4.252-8.908-6.291l-9.051-6.09a.535.535 0 0 1-.191-.656l.011-.026a293.737 293.737 0 0 1 3.399-7.472l3.542-7.407c1.163-2.477 2.415-4.912 3.621-7.369a326.688 326.688 0 0 1 3.746-7.311.069.069 0 0 1 .091-.031.067.067 0 0 1 .036.038.072.072 0 0 1 0 .052Zm-42.138-25.939a735.007 735.007 0 0 1-3.091 16.465c-1.103 5.474-2.221 10.946-3.494 16.387-.643 2.716-1.326 5.437-2.173 8.103l-2.562 7.975a62.515 62.515 0 0 0-2.068 8.094 23.367 23.367 0 0 0-.382 4.14c.016 1.374.281 2.735.782 4.015l-.353.004a23.736 23.736 0 0 1 5.42-7.367 24.97 24.97 0 0 1 7.724-4.934c.71-.293 1.455-.494 2.181-.745.368-.112.727-.257 1.101-.34l1.129-.232c.755-.138 1.501-.346 2.264-.425l2.294-.201a14.221 14.221 0 0 1 2.298-.04l2.299.063c1.523.146 3.037.386 4.555.576l-.412.426c-1.057-5-1.883-10.037-2.609-15.091a103.177 103.177 0 0 1-1.239-15.252c0-.004 0-.009.002-.013a.044.044 0 0 1 .008-.011c.003-.004.007-.006.011-.008.005-.002.009-.002.014-.002.009 0 .018.004.024.01.007.007.01.015.011.024.054 2.549.31 5.085.595 7.614.277 2.531.651 5.052 1.048 7.567.398 2.515.849 5.022 1.326 7.524.487 2.499.982 5 1.506 7.487a.366.366 0 0 1-.051.269.355.355 0 0 1-.34.16l-.021-.003c-1.494-.18-2.984-.412-4.48-.551l-2.253-.054a13.723 13.723 0 0 0-2.248.047l-2.243.183c-.746.069-1.473.268-2.211.395l-1.103.216c-.367.078-.716.218-1.075.323-.709.239-1.438.428-2.132.707a25.44 25.44 0 0 0-7.599 4.717 23.298 23.298 0 0 0-5.44 7.108l-.007.016a.188.188 0 0 1-.345-.012 11.721 11.721 0 0 1-.733-4.169 26.69 26.69 0 0 1 .441-4.183 76.986 76.986 0 0 1 2.079-8.123c.812-2.673 1.661-5.333 2.42-8.016.782-2.676 1.387-5.392 1.981-8.12l7.082-32.736a.034.034 0 0 1 .015-.023c.007-.005.017-.007.026-.005a.034.034 0 0 1 .022.015c.006.007.007.017.006.026Z" fill="#000"/><path d="M309.285 137.635c.251 1.087.553 2.148.87 3.197.312 1.043.7 2.062 1.159 3.049a11.569 11.569 0 0 0 1.688 2.732 7.387 7.387 0 0 0 2.573 1.943 5.69 5.69 0 0 1-2.971-1.569 9.297 9.297 0 0 1-1.924-2.81 14.559 14.559 0 0 1-1.052-3.208 14.828 14.828 0 0 1-.343-3.334Zm30-11.443a31.153 31.153 0 0 1 4.295 2.484 30.862 30.862 0 0 1 3.902 3.064 30.835 30.835 0 0 1-4.295-2.484 31.19 31.19 0 0 1-3.902-3.064Zm-79.62 43.551a6.802 6.802 0 0 1 1.661-1.269 2.993 2.993 0 0 1 2.099-.368 2.89 2.89 0 0 1 1.685 1.397c.17.321.323.653.462.988l.321 1.029a.352.352 0 0 1-.498.416.357.357 0 0 1-.172-.207l-.008-.028-.008-.036-.218-.983a11.59 11.59 0 0 0-.342-.929 2.454 2.454 0 0 0-1.32-1.31 2.728 2.728 0 0 0-1.926.19 6.709 6.709 0 0 0-1.736 1.11Zm-8.015.967a48.752 48.752 0 0 0 3.05-4.326c.47-.748.9-1.521 1.286-2.316a7.916 7.916 0 0 0 .82-2.51 7.98 7.98 0 0 1-.66 2.58 24.497 24.497 0 0 1-1.142 2.42 48.94 48.94 0 0 1-2.794 4.572.341.341 0 0 1-.098.095.346.346 0 0 1-.485-.102.351.351 0 0 1 .005-.389l.013-.018.005-.006Zm-1.526-2.702 6.682-11.219-6.071 11.561a.353.353 0 0 1-.206.171.354.354 0 0 1-.438-.23.354.354 0 0 1 .023-.267l.01-.016Zm3.272-9.471 4.419-6.114-3.833 6.498a.344.344 0 0 1-.351.17.353.353 0 0 1-.232-.137.341.341 0 0 1-.066-.26.353.353 0 0 1 .045-.13l.018-.027Z" fill="#000"/><path d="M55.549 185.39c-8.841 4.609-17.742 9.096-26.615 13.642l-13.351 6.73-13.361 6.711-.503-2.173 14.955-.187 14.955-.115 29.909-.162c19.94-.084 39.88-.062 59.821.221l29.91.339 14.955.172 14.955.1c19.94.092 39.88-.04 59.82-.179l59.819-.704 29.91-.261 29.91-.164c39.879-.287 79.759-.294 119.64-.018l-.807 2.977-23.663-14.113c-7.898-4.686-15.748-9.455-23.616-14.193l-23.58-14.254-23.511-14.373a.172.172 0 0 1-.078-.106.174.174 0 0 1 .255-.196l24.034 13.48 23.965 13.598c7.98 4.547 15.978 9.062 23.929 13.659l23.881 13.74a1.596 1.596 0 0 1-.777 2.977h-.029c-39.88.379-79.759.457-119.64.234l-29.91-.101-29.91-.198-59.82-.577c-19.941-.098-39.881-.187-59.82-.053l-14.955.131-14.955.204-29.91.401c-19.939.326-39.88.39-59.82.347l-29.91-.098-14.954-.084-14.956-.155h-.026a1.142 1.142 0 0 1-.476-2.173l13.514-6.396 13.525-6.375c9.045-4.192 18.06-8.443 27.137-12.57a.177.177 0 0 1 .132-.006.177.177 0 0 1 .107.22.174.174 0 0 1-.085.101ZM1.72 222.29l59.82-.511 59.82-.294 119.64-.244 119.64.241 59.82.294 59.82.514-59.82.514-59.82.295-119.64.241-119.64-.245-59.82-.294-59.82-.511Z" fill="#000"/><path d="M350.239 130.41a67.243 67.243 0 0 1-12.968 14.916 51.972 51.972 0 0 1-17.09 10.132 45.939 45.939 0 0 1-9.777 2.188 48.207 48.207 0 0 1-5.011.265l-2.488-.078-2.469.008-19.749.077a.717.717 0 0 1-.285-.059c-5.33-2.329-10.667-4.655-16.019-6.921-1.325-.552-2.708-1.152-3.987-1.623l-.215-.075c-.034.004-.017.022-.027.007a1.215 1.215 0 0 0-.3.105 3.899 3.899 0 0 0-.776.498 9.571 9.571 0 0 0-1.445 1.429 14.118 14.118 0 0 0-3.246 7.518.736.736 0 0 1-.111.314 77.08 77.08 0 0 0-1.76 2.853 20.738 20.738 0 0 0-1.439 2.932c-.18.469-.302.957-.365 1.455-.03.449.051.898.237 1.307a34.238 34.238 0 0 1 1.631 3.001c.055.143.063.3.025.448l-.002.005a7.08 7.08 0 0 0-.202 1.945c.011.628.157 1.245.427 1.812.26.533.689.966 1.221 1.23.565.286 1.18.46 1.812.513l-.139.001a18.273 18.273 0 0 0 2.755-.595c.904-.26 1.783-.602 2.625-1.022.821-.41 1.585-.926 2.271-1.536a6.818 6.818 0 0 0 1.53-2.135.707.707 0 0 1 1.322.081l.005.017a9.816 9.816 0 0 0 2.133 3.713 9.323 9.323 0 0 0 3.549 2.409 12.32 12.32 0 0 0 4.323.633c.74-.017 1.483-.146 2.225-.211l2.205-.492.025-.005a.748.748 0 0 1 .373.012 118.61 118.61 0 0 0 13.454 3.043c4.544.777 9.124 1.325 13.724 1.641 9.192.678 18.434.224 27.516-1.352a86.318 86.318 0 0 0 13.281-3.609l3.208-1.247 3.131-1.422c1.069-.425 2.06-1.005 3.089-1.514a33.46 33.46 0 0 0 3.016-1.659 61.561 61.561 0 0 0 11.061-8.214l2.494-2.401c.783-.847 1.538-1.721 2.31-2.582l1.153-1.297 1.049-1.381 2.101-2.767-1.989 2.851-.996 1.427-1.102 1.347c-.74.894-1.464 1.803-2.218 2.688l-2.413 2.519a62.422 62.422 0 0 1-10.864 8.766 58.504 58.504 0 0 1-12.548 6.202 87.565 87.565 0 0 1-13.509 3.67 113.743 113.743 0 0 1-27.866 1.372 138.526 138.526 0 0 1-13.863-1.657 119.873 119.873 0 0 1-13.641-3.087l.397.007-2.347.523c-.806.076-1.604.211-2.415.23a13.694 13.694 0 0 1-4.852-.72 10.72 10.72 0 0 1-4.097-2.779 11.128 11.128 0 0 1-2.457-4.318l1.327.098a8.179 8.179 0 0 1-1.871 2.627 11.77 11.77 0 0 1-2.593 1.759c-.917.459-1.874.832-2.859 1.116a19.46 19.46 0 0 1-3.001.644l-.015.002a.468.468 0 0 1-.124-.001 6.31 6.31 0 0 1-2.356-.678 4.102 4.102 0 0 1-1.797-1.82 5.79 5.79 0 0 1-.581-2.399 8.384 8.384 0 0 1 .256-2.382l.023.453c-.374-.992-1.021-1.766-1.608-2.948a4.144 4.144 0 0 1-.356-1.992 7.558 7.558 0 0 1 .446-1.826 21.908 21.908 0 0 1 1.541-3.15 76.773 76.773 0 0 1 1.8-2.918l-.11.314a15.502 15.502 0 0 1 3.569-8.284 10.961 10.961 0 0 1 1.655-1.632c.325-.265.681-.49 1.06-.67.231-.111.479-.187.733-.222.173-.008.346.002.517.029l.301.1c1.453.533 2.739 1.099 4.1 1.665 5.367 2.272 10.702 4.597 16.038 6.929l-.284-.059 19.791-.076 2.473-.008 2.452.077a46.587 46.587 0 0 0 4.855-.257 43.479 43.479 0 0 0 9.47-2.132 56.788 56.788 0 0 0 17.014-9.442 69.5 69.5 0 0 0 7.242-6.651 64.62 64.62 0 0 0 6.261-7.618Zm-169.322-19.928a43.98 43.98 0 0 1-2.1 1.011l.111-.257c.45.967.863 1.949 1.271 2.932.421.979.803 1.972 1.148 2.981.351 1.006.675 2.023 1.044 3.023.37.998.782 1.98 1.205 2.958 1.758 3.884 3.43 7.803 4.846 11.823l-.374-.162a90.244 90.244 0 0 1 4.283-1.424.033.033 0 0 1 .026.002.03.03 0 0 1 .017.018.039.039 0 0 1 0 .026.035.035 0 0 1-.017.019 86.155 86.155 0 0 1-4.097 1.895.278.278 0 0 1-.366-.143l-.008-.019c-1.727-3.896-3.198-7.894-4.584-11.926a60.69 60.69 0 0 0-1.152-2.98c-.417-.98-.879-1.942-1.314-2.915a39.65 39.65 0 0 1-1.209-2.956 75.799 75.799 0 0 1-1.087-3.006l-.006-.018a.19.19 0 0 1 .117-.239 45.472 45.472 0 0 1 2.22-.708.033.033 0 0 1 .026.002c.007.004.014.01.017.018a.039.039 0 0 1 0 .026.035.035 0 0 1-.017.019Zm12.044 22.635c1.983-.841 3.954-1.709 5.946-2.527l5.971-2.46c3.988-1.624 7.981-3.233 12.007-4.761l-.151.349-2.26-5.974-2.304-5.955c-1.572-3.957-3.203-7.89-4.827-11.826l.295.127c-4.083 1.69-8.174 3.359-12.274 5.006l-.015.007a.3.3 0 0 1-.194.009 1.633 1.633 0 0 1-.701-.343 1.425 1.425 0 0 1-.427-.687 2.116 2.116 0 0 1-.058-.735 2.89 2.89 0 0 1 .141-.694.282.282 0 0 1 .047-.089l.007-.009c.394-.5.612-1.117.622-1.754a2.262 2.262 0 0 0-.728-1.64 3.525 3.525 0 0 0-3.651-.482 3.598 3.598 0 0 0-2.368 2.853c-.028.316.01.633.11.934.099.301.26.578.47.814.45.481 1.048.798 1.698.898l.013.003a.175.175 0 0 1 .063.022c.411.215.752.542.985.943.117.225.166.478.141.73a1.512 1.512 0 0 1-.263.673.194.194 0 0 1-.099.082l-.007.003a623.358 623.358 0 0 1-9.823 3.688.039.039 0 0 1-.026-.002.037.037 0 0 1-.018-.019.039.039 0 0 1 0-.026.035.035 0 0 1 .018-.018 517.45 517.45 0 0 1 9.678-4.053l-.107.085a.84.84 0 0 0 .068-.91 1.967 1.967 0 0 0-.785-.704l.076.025a3.487 3.487 0 0 1-2.042-1.024 2.944 2.944 0 0 1-.791-2.186 4.162 4.162 0 0 1 2.747-3.471 4.237 4.237 0 0 1 4.41.609 2.997 2.997 0 0 1 .97 2.164 3.534 3.534 0 0 1-.78 2.211l.054-.098a1.874 1.874 0 0 0-.078.987.739.739 0 0 0 .592.534l-.209.015c4.112-1.615 8.234-3.207 12.366-4.773l.006-.002a.223.223 0 0 1 .289.129c1.519 3.978 3.032 7.958 4.603 11.915l2.411 5.914 2.455 5.896a.262.262 0 0 1-.142.346h-.001l-.008.003c-3.977 1.649-7.987 3.216-12.003 4.769l-6.033 2.305c-2.01.771-4.041 1.491-6.06 2.239a.033.033 0 0 1-.026-.001.039.039 0 0 1-.019-.019.036.036 0 0 1 .001-.027.037.037 0 0 1 .018-.019v.001Zm247.467 54.87-40.041-23.961 33.735-5.297s8.324 10.089 6.306 29.258Z" fill="#000"/></svg>