<svg width="236" height="236" fill="none" xmlns="http://www.w3.org/2000/svg"><path d="M118 118.126V.494c64.97 0 117.63 52.665 117.63 117.632 0 24.841-7.86 49.045-22.46 69.142L118 118.126Z" fill="#AD1C3F"/><path d="m118.01 118.122 95.17 69.143C176 238.428 105.03 251.044 52.5 215.827l65.51-97.705Z" fill="#FDE3DF"/><path d="m118 118.122-65.5 97.705a117.593 117.593 0 0 1-51.2-82.961L118 118.122Z" fill="#E6BFCE"/><path d="M118 118.128 1.29 132.871a117.595 117.595 0 0 1 15.84-75.257L118 118.128Z" fill="#CF9BBD"/><path d="M118 118.129 17.13 57.614A117.35 117.35 0 0 1 34.3 35.475L118 118.13Z" fill="#B977AC"/><path d="M118 118.126 34.3 35.471a117.991 117.991 0 0 1 21.92-17.45L118 118.126Z" fill="#A2539B"/><path d="M118 118.137 56.22 18.033a117.563 117.563 0 0 1 25.43-11.77L118 118.137Z" fill="#8B2F8A"/><path d="M118 118.122 81.65 6.247A117.843 117.843 0 0 1 99.6 1.938L118 118.122Z" fill="#D770A1"/><path d="M118 118.126 99.6 1.942C105.68.978 111.84.494 118 .494v117.632Z" fill="#E496B6"/></svg>