<svg width="262" height="262" fill="none" xmlns="http://www.w3.org/2000/svg"><path d="M131.223 131.159V.755c72.019 0 130.403 58.384 130.403 130.404 0 70.923-56.683 128.842-127.589 130.373l-2.814-130.373Z" fill="#EA346C"/><path d="m131.223 131.159 2.814 130.373a130.404 130.404 0 0 1-84.321-28.581l81.507-101.792Z" fill="#FEC2D4"/><path d="M131.223 131.159 49.716 232.951a130.471 130.471 0 0 1-17.855-17.339l99.362-84.453Z" fill="#C53B65"/><path d="m131.222 131.159-99.36 84.453a130.407 130.407 0 0 1-29.339-63.439l128.699-21.014Z" fill="#FF7AA3"/><path d="M131.223 131.159 2.524 152.173A130.438 130.438 0 0 1 .875 127.34l130.348 3.819Z" fill="#8A2A47"/><path d="M131.223 131.159.875 127.34a130.415 130.415 0 0 1 17.751-61.963l112.597 65.782Z" fill="#C53B65"/><path d="M131.223 131.159 18.627 65.377a130.396 130.396 0 0 1 25.27-31.064l87.326 96.846Z" fill="#EA346C"/><path d="M131.224 131.159 43.897 34.313A130.402 130.402 0 0 1 131.224.755v130.404Z" fill="#FF709C"/></svg>