<svg width="192" height="240" fill="none" xmlns="http://www.w3.org/2000/svg"><g clip-path="url('#clip0_8_555')"><path d="m151.656 65.833 1.087-.541-.302-.8.428-.37-.227-.187.418-1.572.738-.427.999-1.726-.226-.703 1.822-3.244-.252-.58-.823.127-.533-.376.42-.496-.304-.409.421-1.502-.358-.575.577.114-.898-.525 1.307-.064.694-.49 1.124-2.132-.508-.047-.302-.588.942-1.493-.857-.806.141-.285-1.391-.459-.352.86-.628.349.141-.535-.484-.088-.012-.56.575-.367-.581.07-.026-.31-1.224-.377-.142-.794.452.004.154-.56.547.1.458-2.178.403-.24.367 1.426 2.192.639-.044.363.459.244 1.646-.5 1.105.718.544-.49.76-1.926 1.244-.06.037.26.767-.447.942.645.879-.487 2.076 1.357 1.819.478-1.087 1.227-.776 2.03-1.532.898-.104.7-1.627 1.603-.509 1.129.079 1.372-.49.484-.468 1.891.16 1.326-.672.5-.349 1.574-1.168 1.986-.094 1.696.687 1.217-.857 1.815-.352 1.949.239.885-.474.709 1.039 1.805-.107.557-1.099.702.412.225-.431.142.176.433-.295.304-.744-.25-.139.288.453.18-.902.753-.754-.177-1.111.385-.145-.347-.81-.089.414-.97-.904-.175.138-.42-.744-1.322-1.053-.18.528-1.351-.122-.993-1.26-.936-.964-.225-.393-.768ZM70.738 106.194l.305.408.883-.136.703.528-.305.93.789.8.741-.895.37.405 1.577-.181.877 1.49.399-.313.66.411-.594.933 2.252.791-.484.578.886.434-.773 1.04-.37.019-.123.921.66.338-.654.927.798.291-.377.417-.066.006.691.608 1.35.151-.442.367.914 1.585-.493.284.053.219.367 1.42-.376.11.364.588-1.02.658.053.601-.883.278.23 1.028-1.197 1.038-.984.253.079.569-.77.835.126.37-1.159.667-.44-.129.462.683.006 1.122.494.329.075 1.117-1.43.072-.137.301-.274-.712-.314.054-.352 1.297 1.062.651-.575 1.525-.694.12.418.164.113.677-.418.206-.951-.31.116.591-.54.066-.23.832-.995.68-.924-1.018-.483.458-1.238-.015-.245.496-1.668.357-.185.342-.908-.569-.512.126-.458.769-.387-.525-.93.734.268.812-.223.374-1.043-.598.361-.452-.562-.551-.776 1.015-1.09-.196-.782.756.694.532-.289.192.198.867-.43.032.414 1.284-.719.544.1.948-.518.212.029.446.42.048.114.597.8-.246 1.053.259.038.696.354-.086.625 1.37-.618.161-.02.939.868-.619-.038 1.315.433.468-.989.807.377.556-.418.933-.31-.076.069.826-.648-.054-.373.917-.613.263.17 1.116-1.052.263-.355.569.088 1.274-.603.298.185 1.211-1.062.901-.628.064-.829-.57-.597.883-1.649-1.911-.7-.211-.29-1.278-2.468.262-2.23-1.265-.364.288-.28-.487-.848-.357-.44.208-.606-.446.5-.895-.955.427-.126 1.183-1.121-.316-.43-.753.766-.705.424-1.104-.085-1.233-1.91-.645-.36.101-.177.692-.417-.041-.208-.99-1.369.19-.107-.613-.644-.367-.022-.421 1.58-.269.877-.806 2.003-3.871 1.95-10.222.522-6.084.823-2.11 2.472.421-.179-.788-.672-.319.465-.007-1.74-1.461-.851 1.522-.186 1.439-.198-.329 1.364-15.62.813-1.509.437-.323.276.699-.503.089.33.022-.176.348 3.42 3.087 1.49 5.034 1.24 1.218-.958-2.236-.61-3.672 1.562.133.107-.481.292.933 1.825.336.301 1.711.016.082.232.711.267-.49.33.063.31.529.444-.089.28.516.885.379.616.089.725-.595.572.427.094-.768.534-.238-.302-.221.355-.702.622-.456 1.03.389.528-1.018 1.184-.677-.245-1.347.374-1.078.534-.181-.192-.42.368.322.653-.816.666-.003.226-.705.723-.519.084-1.518.71-.009.83-1.417Zm-9.2 44.093-.075-1.129-.122-.06.05.68-.38.155.314.303.214.051Zm-.499-.041-.09.069-.255.611.245.553.543-.392-.323-.797-.076-.051-.044.007ZM92.256 92.803l.233-.958.323-.003.49-.876 1.646-.304.647.256 1.018-.651-.142-.784-.486-.273.383-.581-.336-.377.455-.237.299.244-.048-.605 1.009-.54.185-.51.59.541.49-.341.622.174.971-1.284 1.441-.038.349.835 1.847 1.426.904-.775 1.015.63.421-.548.54-.025.471 1.192 1.357-.714-.173-.646.644-.028-.107-.715.475.133.176.914 1.281 2.002.072 1.208.829.38.437-.24.393.822 1.055-.092.647.591-.308 1.202.113 1.322.258.025-.757.111-.619.867-.085.022-.113.015-1.514.658.531 1.443-.204.964.371.44-.211.664.336 1.021-.565.487-1.125.07-.103.743.804.829-.509.297.091 1.063-.436.42 1.196 1.24-.047.629.609 1.12 1.436.999.666 1.537-.28 1.117-.967.762.198 1.135.568-.781.49.076.424.819.032-.398.659.25.132-.418.945-.123-.116-.354.44-.165.71.066.509.579.813-.19.427.595-.468.345.512.303-.282.5.474.345.653-.345.713.965-.562 1.157.129.775-.283.168-.167-.491-.64-.139.326.554v.167l-.358-.025-.32.554.43.74-1.086.319.226.857-1.159.183-.892 1.667-1.59.013-.081.715-.368.253-.229-.241.075.396-.508-.285-.337 1.075-.81.449-.336-.066.094-.449-.436.139-.632-.667-.232-.69-1.002.174.088-.515-.565-.456-.475.101-.066.918-1.441.306-.798-1.641-.022-.803-.575-.617-1.115.892-.571-.162-.076.886-.575.465-.788-.759-.289.699h-.075l-.06.591-.345-.073-.343.693-.091 1.556-.747 1.313-.588-.655-.326-1.499.333-.234-.217-.361-.421.079-.374-1.568-1.13.341.018-1.037-.486-.541-1.725 1.765-.056.993-.66.711.135.614-.791.572-.205.706-1.715.186-.336-.55-.411.038-1.02.335-.164.595-.44-.383-.154-1.05-.38-.019.547-1.692-1.05-1.565.155-.867-.54-1.021.518-.136.11.028.433-.364-.578-1.084.97-.412.085-1.018.688-.528-.411-.294-.088-.75 2.16-2.144-.144-1.401 1.722.781.621-.411-.53-.506.395-2.524-.735-.781.324-.838.465-.025.025-1.275-1.765-2.16.888-.768.057-.013.415.057.835-.936.1-.81.616-.288-.129-1.186-.672-.964.204-1.306-1.09-2.36-.662-.303-.132.246-.44-.917-.298.402-.817-.623.412-.55-.606-.174-.092-.728Z" fill="#FDFBF5" stroke="#171619" stroke-width=".5"/><path d="m126.947 64.953-.487-1.066-.439.067-.117.417-.377-.243.44-.617-.257-.395-.795-.035.32-.512-.21-.339-1.212-.35-1.583-.102-.556.443.242.753-3.132.132-.283.712-.628-.101-.238-.82-.412.092.097.506-.458-.354-.163.089-.582.569-.653-.386-.201.402-.524-.339-1.429.26.241-.987-.245-.427-.188.446-.371-.082-.163-.408.427-.218-.647-.57-.405-1.445-.672-.288.113-.654-.443-.165.11.354-.726.316-.48-.98-.672.105.553-.807-.271-.136.239-.712-.543-.3.129-.326-1.09-1.3-.487-.193-.5.348-.182-.623-.502-.192-.145.543-.377.051-2.544-.057-.483.468-.732-.205-.418 1.069.418 1.088-.559.84-.873.462-.004.399 1.206.585-.175.338.257-.019.182.857.977.851-.33.203.374.914-.433.509-.079.066-1.036.728-.176.759.48.341-.094 1.227-2.264.576-.05.787.398-.066.622.75.355.714-.22.898.521.573-1.51.433v-.07l-.164.244 1.078 1.936-.823 1.926 1.485 1.48.638 2.707-.166 1.094.782.778.022 1.306-.393.924.258 1.069-.494 1.088.349.835 1.847 1.426.904-.775 1.015.63.421-.548.54-.025.471 1.192 1.357-.714-.173-.646.644-.028-.107-.715.475.133.176.914 1.281 2.002.072 1.208.829.38.437-.24.393.822 1.055-.092.647.591-.308 1.202.113 1.322.258.025-.757.111-.619.867-.113 1.163 1.074.222.217.632 1.479-.56.983.472.384-.39.235.317.374-.187-.06.55.333.042 1.269-.56.43-2.078.691-.025.591.56.842-.5.65.538.248-.67.556-.099.399.522-.406.373.739.484-.217.73.506.424.282-.076 2.101-6.49.126.34.437-.266.948.581 1.432-.376.016-.288.496.256.387.905 1.024.221.122-.32 1.216-.262.05-.484-.804-.328-.016-.81.6-.37-.11-.547.594-.519-.603-.901-.035-.829-.418-.025.399-.775-.832-.86 1.806-.48-.823-.535-.044-.459-.911.095-.458-1-.39.21-.125-.95.832-.667-.559-.265.11-.43 1.319-.636.707-1.199-.007-.098.641-2.672.408-.282-.606-.256h-.044l.343-.474-.151-1.01-.05-.03-.541.037h-.081l.084-1.12-.936-.271.538-.247-.267-.076.15-.345.644.026.635-1.12-.729-1.448-.606.686-.292-.203-.223.272-.632-.357-.716.636.101-.883-1.118-.581.066-.548-.795.658-.832-.424.094-.525-.415.057-.009-.354-.785.475-.126-1.48-.565-.102.998-.797-.502-1.145h-.173ZM20.174 74.267l.39.472.79-.02.23.674 1.018.291-.176.538-2.13-.316-.323-.956.2-.683Zm.301-29.039.066.706 1.75-.715v.961l.96-.06.101.465-.515.389 1.498.487-.216.69 1.67 1.429-.062 1.06 1.41.78-.349.617.368-.155.506.886-.113-.886.719.21.948-1.541 1.056-.452-.195-.446.669-.152.226.465 1.322-1.177.456.402-.697.958.301.2.92-.68.427 1.135-.179.73.368-1.201.22.686.373-.829.34.345-.358-.648 1.363-.108.138.775.521.342-.235.215.55.55-.164.961.267-.607.342.117-.628-1.262.512.276-.176-.421-.675-.142.198-.336-.465-.382.543-.968 1.932-.573.1.652-.427.819 1.178.674 2.683-.601 1.086 2.875.877.556.879-.158 1.307-1.483 2.396.705-.144 1.85.468 1.692-.73 1.234.293 1.236.053.05.757 3.878-1.806.75-1.193 3.675-1.52-.44-.324-.566-1.18-.14.075.63-1.945.769-.493 1.05-2.61.019-1.237.724-.239-.437-1.416.854-.214 2.271-.773.218-.081.617-.28-.443-.782.351-.7-.42-.245 1.069-1.1.091-.282-.401-.45.56-.49-.039-.081-.816.791-.12-.895-.503-3.989.737-1.25-1.296-.675-.003-.346-.51-.197.257-.264-.5.063.484-1.348-.041-.06 1.081.629.873-.672-.085-.409-1.088.358-.3-.188-.987-1.781-1.746-.97-.013-.07-.484-1.143.291-.961-1.322-1.979-.24-.634-.563-1.659.278-.615-.854.267-.47-.377.167-.465-1.022-.56.373.19.563-.87.228-.84-.556-.53.287-.584 1.177-2.296.003.122-1.787-.82-1.458-1.168-.838-.76.104-.826-.563-1.363-.202.392-.088-.1-.412 3.885-.831 1.454.347.493-.796-.63-1.455-1.93-.69-.458.133-.782 1.215-.173-1.262.377-.288-1.02-.104-.089-.497.764-.05-.022-.956.512-.202-.305.746.267.367.468-.538-.04.601.662-.31.697.43 1.187-.455.607.348.508-.661-.339.285-1.168-.31.449-.307-.377-.18.176-.446-.716.711-.569.032.258-.348-.795.31.757-1.116-.308-.247-2.396 1.132-.961-.335-.346.471-.85.041-.23-.63.374-.413-.437-.61.446-1.063-.207-.952.612-.804 1.558-.401.06-.547.55.123.279-.772.562.313 1.275-.32-.461-.34 1.18-.45.654.25.003.614 1.313-.361-.355-.136.471-.56 1.128-.167.53.38.079-.59.594-.426.081.313.402-.31-.022 1.056.525.225.078-.715.025.49 1.009.27-.117-.576.308-.497.142.272-.038-.367 1.872.658.468-.193-.192.737.462-.544.537.316-.022-1.078.455-.411-.467-.24.229-.757-.26-.218.42.288.656-.949.17.377.141-.342.277.437.405-.105-.167.453.556-.042 1.018-.759.741.08.512-.665Z" fill="#FDFBF5" stroke="#171619" stroke-width=".5"/><path d="m82.102 43.79.807.995-.226.402.685.614-.22 1.559.59.285-.65.872.459.279-.132.47.832 1.01.638-.007-.079.74 1.018.465-.148.797.336.92.89.52.788-.33-.032 1.006.647.089.138.75-.395 1.043.191.43 2.49-.206-.153-.344.386.091.283-.645.556.24-.006.658.697-.272.07-.13.31-.278.408.497.59-.155.255 1.1 1.219.665.006 1.151-.449.047-.515.8 1.508-.335 1.906.345.635-.43-.233-.42.346.262.47-.3.268.761.609-.515.923-.136 1.206.585-.175.339.257-.02.182.858.977.85-.33.203.374.914-.433.509-.079.066-1.036.728-.176.759.48.341-.094 1.227-2.264.576-.05.788.398-.067.622.75.355.714-.22.898.521.573-1.51.433v-.07l-.164.244 1.078 1.936-.823 1.926 1.485 1.48.638 2.707-.166 1.094.782.778.022 1.306-.393.924.258 1.069-.494 1.088-1.441.038-.97 1.284-.623-.174-.49.341-.59-.54-.185.509-1.009.54.047.605-.298-.244-.455.237.336.377-.383.582.486.272.142.784-1.018.651-.647-.256-1.646.304-.49.876-.323.003-.233.958-1.093-.164-1.41.35-1.429-.629-1.822.33-.731-.586-.462.12.163.472-.405.667-.565-.534-.745.575-.248-.632-.842.547-.248-.649-1.441 1.531-.801-1.018-.531.091-.126.446-1.108.108-.123-.462-.405.098.239-.32.2-.606-.797-.282-.085-1.113-.669-.56-.955.01-.069-.586-1.354-.651-.235-.538.458-1.233-.191-.626-1.272-1.19-.245-1.157-1.197-1.024-.166-1.354-.965-.648-.65.028.4.94-1.21-.032-.873.563-.955-.383-.544.36-.42-1.15.28-.153-.126-1.015-.453.165-.301-.557-.87.24.282-.626-.238-.455-.258.272-.355-.12.07-.342-.783.114-.342-.863.298-2.265 1.37-1.932-.384-.342.896-1.951.06-.525-.418-.23.518-1.114-.016-.165 1.976.677.251-.161-.503-.797.245-.465.861.474.192-.5 1.72-.524.3-.411-.302.091-.132-.572.534-.661.977-.294-.12-.317.993-.951-.107-1.335.38-.218.28.458.053-.854.436-.155-.395-.898.308-.854-.588-.145-.047-.655.644-.047.028-.433-.414-.092.36-.086.13-.578.844-.108-1.539-1.088.424-.38-.55-.93.236-.553-.662-.208.191-.45 1.878-.992.808-1.335-.522-.715.4-.93-1.923-1.749-.044-1.148.628-.35.167-.55 1.466-.197h.27l.7-.655.68.234.081-.85 1.316.623 1.432-.064.522-.395-.135-1.06 1.281-.746-.16-1.028.694-.332ZM125.571 19.289l.792.357-.374.348.057.648-.274-.278-.405.746.277.55-.673 1.411 1.288 1.205-.537.87.361.955-.301.54 1.875-.141 1.291.755.939 1.408 1.36-.05.798.847-.23.863.443-.398.625.29-1.74 1.51-.358-.558-.929.13-.264-.56-.402-.031-.292 1.005-.022.12-.384.722.679.86.053.775-.499.338.314.49-.616.219-.377 1.154.409.322-.076.396-1.297.743.534.563-.688.484.848 2.324-.509.943.566-.282.361.24-.028.608-.519.187.588.199-.302.69-1.017.423-.057.057-.279.933.326.512-.609.873 1.558 1.126-.142 2.508.761-.335.182.72.625.01 1.209 1.329 1.514.37 1.831 1.704-.986.63.631.234-.198.945.685-.49.59.165.839 1.454.295-.35.55.47-.16.516.6.152.552.711-.64.367-.129 1.395-.556.449.895.17.333.643.713.202.141 1.582.776-.453.493.971-.006.503-.44-.123-.374.69.079.366-.876-.142-.248.768-.66-.016-.195.813.427.63-.235 1.208-1.225.243-.383-.686-.547.67-1.501-.028-.496 1.357-.223.272-.632-.358-.716.636.101-.882-1.118-.582.066-.547-.795.657-.832-.424.094-.524-.415.056-.009-.354-.785.475-.126-1.48-.565-.102.998-.797-.502-1.144h-.173l-.487-1.066-.439.066-.117.418-.377-.244.44-.617-.257-.395-.795-.035.32-.512-.21-.339-1.212-.35-1.583-.102-.556.443.241.753-3.131.133-.283.711-.628-.101-.239-.82-.411.093.097.506-.458-.355-.164.089-.581.57-.653-.387-.201.402-.524-.338-1.43.259.242-.987-.245-.427-.188.446-.371-.082-.163-.408.427-.218-.647-.57-.405-1.445-.672-.288.113-.654-.443-.165.11.354-.726.317-.48-.98-.672.104.552-.807-.27-.136.239-.711-.543-.3.128-.327-1.089-1.3-.487-.192-.5.348-.182-.623-.411-1.775.71-.211-.409-.74.971-.273-.211-.569.641-.383-.16-.294.757-.234-.512-.322.182-.266-1.084.221.223-2.036-.961-.402.638-.632-.521-.364 1.093-.105-.026-.758.56-1.193.552-.05.044-.494.383-.07-.169-.344 1.143-1.075-.352-.58-.854.124.022-.465.669-.338-.487-.848.28-.616 1.08.164.566-.332.009-.446-.446.086-.207-.601-.217.196-.371-.317.318-.44-.431-1.58 1.731-.86.958.23.056-.711.889-.535.468.591 1.005.345.019-1.572.399-.145-.355-1.237.496-.357-.386-.411.368-.532-.71-1.027.229-.32.964.095.148-.91.766-.424.845-1.177-.572-.465.616-1.793.031-.724-.496-.2.189-.917 1.014-.212 1.778.646 1.975-1.003 1.235-.18-.167-1.44.289-.587 1.593-1.496.147.294ZM176.946 180.686l.381-.848.888-.092.563-.714-1.354-.465-.399.253-.088-.725-.886.345-.031-.31-.597-.022.936-.632-.242-.453.779-.164.154-.367-.427-.221.49-.095-.129-.57.321-.221-.717-.667-.38.443-1.451.249.201-.724-.399-.531.729-.06.154-.772 1.137-.655-.619-1.103-.531.208-.615-.604-.408.117.056-.414-.361.104.468-.398-.424-.057.261-.604-.534-.563 2.019-.519-.449-.632-.729-.057.139-.781-.811.281-.107-.73.839-.2-.044-.528.647.019-.088-.481.412-.471-.406-.171.233-.657.7-.171-.182-.784.254-.269.022.414.362-.18.439.316.173-.867.845-.104.851-.68 1.081.095.59-.357-.034-.627.873-.626 1.265-.066 1.002 1.044.6-1.057-.031-1.05-.43-.68.402-.582-.239-.61.512-.43-.276-1.249 1.083-.31.528.446.383 3.206-.613 2.347 1.131 2.258.339 6.246-.122 1.623-1.79 2.641-.33 5.395-.575.234.163.269-.606-.206-.383.563.116.373.399-.525.666.187-.336.617-.908.499.063 1.158-.722.379-.183.51.735-.26-.078.256-.503.826-.537.041-.298-.49-.829-.032.355-.759-.66-.114.123-.642-.522.427-.534-.582-.198.282-.823-.266-.574-.613-.437.113.145-.509-.867-.155.223-.335-.384-.319Z" fill="#FDFBF5" stroke="#171619" stroke-width=".5"/><path d="m139.259 63.8.631-1.006.355.18-.421.588.283.044.694-.401.484-.92 1.244-.31.031.021.145 1.012.722.573v.101l2.412-.56.6.37.559 1.098 1.63-1.18.559.823 2.469 1.6.393.768.964.225 1.259.936.123.993-.528 1.35 1.052.18.745 1.323-.138.42-1.951.174.245.785-.804.401-.798 1.55 1.791-.39.424.206.088.55-.591.178-.179.579-.697.145.16.86-1.486 1.367.23.135-.261.304-1.775 1.287.214.598-1.278 1.113-1.624.358-.848.885.421.75-.434 1.467.28.712-4.457 3.782.603.598-1.096 1.569-.104.885-2.544 2.869-1.881.072-.151-.917-.876-.281-.048-.39-1.356 1.443-.852.079.022-.971-.499.003-.166-.617-.267.709-.553-1.132.204-.228-1.015-.585.201-.63.123-.319 1.215-.262.051-.484-.804-.33-.016-.809.6-.37-.11-.547.594-.519-.604-.901-.034-.829-.418-.025.399-.775-.832-.86 1.806-.48-.823-.535-.044-.459-.911.095-.459-1-.389.21-.126-.95.833-.667-.559-.265.11-.43 1.319-.636.706-1.199-.006-.098.641-2.672.408-.281-.606-.257h-.044l.342-.474-.15-1.009-.051-.032-.54.038h-.082l.085-1.12-.936-.271.537-.247-.267-.076.151-.344.644.025.635-1.12-.729-1.448-.606.686-.292-.202.496-1.357 1.501.028.547-.67.383.686 1.225-.243.235-1.209-.427-.629.195-.813.659.016.249-.768.876.142-.079-.367.374-.69.44.124.006-.503ZM84.737 37.973l.471.152-.163.588.12-.003.235.39.637-.197 1.04.452 1.548-.262 1.03-.69 1.169.937.625-.317.189.563.684-.17.368-.535.571.769.227-.234.847.262-.075.26.336-.15.572.463-.176.227.546.13.264-.493.405.891.644-.572 1.32.949.967-.718.568.528 1.527-.424.245.408.279-.408.751.127.044-.636.892.218.678 1.12-.304.756 1.093.793.173.67.524-.195.314.81.503-.405.201 1.122.816.231.201.452.314-.29.026.758-1.093.105.521.364-.638.632.961.402-.223 2.037 1.084-.222-.182.266.512.322-.757.234.16.294-.641.383.211.57-.971.271.409.74-.71.212.411 1.775-.502-.193-.145.544-.377.05-2.544-.057-.484.468-.731-.205-.418 1.069.418 1.088-.559.84-.874.463-.003.398-.923.136-.61.516-.266-.763-.472.3-.345-.262.232.421-.634.43-1.907-.345-1.507.336.515-.8.449-.048-.006-1.151-1.219-.664-.254-1.1-.59.154-.41-.496-.31.278-.07.13-.696.272.006-.658-.556-.24-.283.645-.386-.092.154.345-2.49.205-.192-.43.395-1.044-.138-.75-.647-.088.031-1.005-.788.329-.889-.52-.336-.92.148-.797-1.018-.464.079-.74-.638.006-.832-1.009.132-.471-.459-.279.65-.872-.59-.285.22-1.56-.685-.613.226-.401-.807-.997-.113-.534.345-.228-.634.054.107-.762-.396-.788.524.057.277-.696.141.323h.07l1.256-.323 1.058-2.919ZM101.403 125.973l.747-1.31.091-1.556.343-.692.345.073.06-.592h.075l.289-.699.785.759.578-.465.076-.882.571.161 1.112-.892.575.617.022.807.798 1.638 1.441-.304.063-.917.474-.101.566.455-.085.513 1.002-.171.229.689.631.668.437-.14-.094.45.336.066.543 2.755.647.433.465 1.809 1.052 1.224-.37.256.1 1.322 1.068-.323 1.662 1.31.901-1.341.857-.149.048 1.025.552.133.198-1.009.679-.098 1.878 1.337.308 1.006.446.022.185.49-.013 1.93.861.287.757 1.395-.399.019.003.456-2.249 1.752.336.395-.713 2.16.198.724-1.146-.392-.713.18-.776 1.325.597.209-.135.418-1.671.974-.261-.351.129.49-1.068.522-.138.711-1.244-.465-.207-.42.261-.408-.418-.377-1.759.133-3.229 2.619-1.052.307-1.79 2.087.062-.313-.084.291-2.246-.37.116.379-2.095 1.715-1.281 2.084-.493 1.635.219.831-.414 3.818.239 2.909 1.221.427-.144.598.575.841-1.153.165-.594-.845-.961.136-.26-.297-.384.459-1.02-.045-.798.832-.584-.215-.767.345-.298.326.26.812-1.24-.313-.606.452-.628-.129-.641-.943-2.296-.79-.722.395-.6-.139-.914 1.085-.899.249-.69-.604-.384-1.252-.697.066-.754-.673-1.231-.143.122-1.078.628-.329 1.078-.111.411-.623.952-.031.317-.788 2.164-.035.17-.319-1.197-1.252-1.052.319-1.184-.436.163-.313-.873-.851.21-.519 1.451-.322-.081-1.057-.6-.227.308-.393.637.029-.483-.819.207-.44-.572-.322.283-.314-.145-.79-.483-.367-.33.319-.506-.793-.003.249-.876-.101-.986-.699.207-.607-.462-.873.606-.734-.175-.493 1.19.006-.157-.923.66-.901.552.838.302-.449.075.006.848.212.635-.487.458.718 1.275-.374.578.589.088-.86.478-.51 1.803.785.461-.351 2.29.085.788-.705.082-.829-.766-.914.392-1.692.97.275.46.554 1.969-.734.21-.632.817-.345.989.291.038-2.571 1.953.379.468-.288-.182-.601.383-.575 1.031.009.188-1.002 1.084-.902.088-.48-.776-.589-.487.149-.283-.512-.465.183-.411-.455.776-.275.169-.914.493-.206-.131-.569-2.058.186.34-.74-.905-.262-.116-.557-.409.234.434-.835-.452-1.009.326-1.372-1.017-1.183.248-1.034-1.341-1.578Zm-13.484 39.463.697.186-.314-.705-.383.519ZM77.884 93.464l.405-.098.123.462 1.108-.108.126-.446.53-.091.802 1.018 1.441-1.53.249.648.841-.547.248.632.745-.575.565.534.405-.667-.163-.472.462-.12.731.585 1.822-.329 1.43.63 1.41-.351 1.093.164.09.728.607.173-.412.55.817.624.298-.402.44.917.132-.246.663.303 1.09 2.36-.205 1.306.673.964.128 1.186-.615.288-.1.81-.836.936-.415-.057-.056.013-.89.768 1.766 2.16-.025 1.275-.465.025-.323.838.734.781-.395 2.524.53.506-.621.411-1.722-.781.145 1.401-2.161 2.144.088.75.411.294-.688.528-.084 1.018-.97.412.577 1.084-.433.364-.11-.028-.519.136-.983.031-.493.405-.518-.468-1.382 1.015-.672-.269-1.357-1.689-1.313-.022-.1-.322-1.175.499-.914-1.584.443-.367-1.35-.152-.695-.604.066-.009.38-.418-.8-.291.653-.923-.66-.342.122-.92.371-.019.773-1.04-.886-.434.48-.579-2.251-.79.593-.933-.66-.411-.395.313-.88-1.49-1.576.181-.37-.405-.739.895-.791-.8.304-.93-.703-.528-.883.136-.302-.408 1.103-.978-.04-.787.922.237.572-1.714-.195-.917.914.167.849-.895-.29-.762-.527-.42-.34.262-.571-.604.267-.863-.32-.51.483-.265-.703-1.417.757-.354.672-1.085 1.344.158.56-1.562 1.06.284.359-.797.27.092Z" fill="#FDFBF5" stroke="#171619" stroke-width=".5"/><path d="m133.179 30.535.48.667.226 1.408 1.093-.649.717.459.402-.864 1.35.228.355-.49.836.414.411.886 1.272.107.201.857.782.07.408-.392.352.272.352-.797 1.457-.42 1.64 1.087.835-.332 1.668 1.107-.22.383.798.737-.44.373 1.341 1.347-.119.424.374.183.085.677.367-.047-.157.62.352.461 1.263.222.345-.554-.311-.639 1.307-.202 1.24.645.226 1.537.622-.832.754.709 1.159-.19.625.3.421-.572.474.006.032-.563 1.039-.243-.116.38.76-.086.446 1.426 1.348.484.072.386-.76 1.926-.544.49-1.105-.718-1.646.5-.459-.243.044-.364-2.192-.639-.367-1.426-.402.24-.459 2.179-.546-.101-.154.56-.453-.004.142.794 1.225.377.025.31.581-.07-.575.367.013.56.483.088-.141.535.628-.348.352-.86 1.391.458-.141.285.857.806-.942 1.493.302.588.509.048-1.125 2.131-.694.49-1.307.064.899.525-.578-.114.358.575-.421 1.503.305.408-.421.496.534.377.823-.127.251.579-1.822 3.245.226.702-.999 1.727-.738.426-.417 1.572.226.187-.427.37.301.8-1.087.54-2.468-1.6-.559-.822-1.63 1.18-.56-1.098-.599-.37-2.413.56v-.101l-.722-.572-.145-1.013-.031-.022-1.244.31-.483.92-.695.402-.282-.044.421-.588-.355-.18-.632 1.005-.493-.97-.775.452-.142-1.582-.713-.202-.333-.642-.895-.17.556-.45.129-1.395.641-.367-.553-.711-.6-.152.16-.516-.55-.47-.295.35-.838-1.454-.591-.165-.685.49.198-.945-.631-.234.986-.63-1.831-1.704-1.514-.37-1.209-1.329-.625-.01-.182-.72-.76.335.141-2.508-1.558-1.126.609-.873-.326-.512.279-.933.057-.057 1.018-.424.301-.69-.587-.198.518-.187.028-.607-.361-.24-.565.28.508-.942-.848-2.324.688-.484-.534-.563 1.297-.743.076-.395-.408-.323.376-1.154.616-.219-.314-.49.499-.338-.053-.775-.678-.86.383-.721.022-.12.292-1.006.402.031.264.56.929-.13.358.557 1.74-1.508.296.319ZM61.08 150.239l.076.051.323.797-.543.392-.245-.553.254-.611.091-.069.044-.007Zm.384-1.081.075 1.129-.217-.054-.314-.304.38-.155-.05-.68.126.064Zm19.944-30.111 1.175-.5.1.322 1.313.023 1.357 1.692.672.268 1.382-1.015.518.468.497-.405.98-.031.54 1.021-.154.867 1.049 1.562-.547 1.695.384.016.153 1.05.437.383.166-.595 1.021-.335.415-.038.333.55 1.715-.186.204-.702.791-.573-.132-.613.66-.715.053-.99 1.728-1.765.487.541-.02 1.038 1.132-.342.373 1.569.421-.083.217.361-.333.234.33 1.499.584.651 1.354 1.566-.248 1.034 1.017 1.183-.326 1.373.452 1.008-.434.835.409-.234.116.557.905.262-.34.74 2.058-.186.132.569-.494.206-.169.914-.776.275.411.455.465-.183.283.512.487-.148.776.588-.088.48-1.084.902-.188 1.002-1.031-.009-.383.575.182.601-.468.288-1.953-.379-.038 2.571-.989-.291-.817.345-.21.632-1.97.734-.458-.554-.97-.275-.393 1.692.766.914-.082.829-.788.705-2.29-.085-.461.351-1.803-.785-.478.51-.088.86-.578-.588-1.275.373-.458-.718-.635.487-.848-.212-.075-.006-.302.449-.552-.838-.66.901.157.924-1.19-.007.175.494-.606.733.462.873-.207.607.986.699.876.102.003-.25.506.793.33-.319.484.367.144.791-.283.313.572.322-.207.44.483.819-.637-.029-.308.393.6.227.082 1.057-1.451.322-.21.519.872.851-.163.313 1.184.436 1.052-.319 1.197 1.252-.17.32-2.164.034-.317.788-.952.031-.411.624-1.078.11.076-.243-.87-.041.129-.475-1.781-.174-.635-.518-.92.072-.028.664-.525.203-1.052-2.068-1.636-.152-.798.341-1.175-1.42-1.243.032-.308-.342-.446.294-2.843-1.293-.644.398.145.608-.33.389.283.136-.32.363.467.506-.031.63-1.024-.26-2.28.266-.814-.591-.857.901-.453-.753-1.086-.376-2.325.927-.712-.13-.154-.449-.569-.149-.625-1.284-.358.196-1.63-1.113-.185-1.211.603-.298-.088-1.274.355-.569 1.052-.263-.17-1.116.613-.263.373-.917.647.054-.069-.826.311.076.418-.933-.377-.556.99-.807-.434-.468.038-1.315-.867.619.019-.939.619-.161-.625-1.37-.355.086-.038-.696-1.052-.259-.801.246-.113-.597-.421-.048-.029-.446.519-.212-.1-.948.719-.544-.415-1.284.43-.032-.198-.866.29-.193-.695-.532.782-.756 1.09.197.776-1.016.562.551-.361.452 1.043.598.223-.374-.267-.812.93-.734.386.525.458-.769.512-.126.908.569.185-.341 1.668-.358.245-.496 1.238.015.483-.458.924 1.018.995-.68.23-.831.54-.067-.116-.591.951.31.418-.206-.113-.677-.418-.164.694-.12.575-1.525-1.061-.651.351-1.297.314-.054.274.712.138-.301 1.429-.072-.075-1.117-.493-.329-.007-1.122-.462-.683.44.129 1.16-.667-.127-.37.77-.835-.079-.569.984-.253 1.2-1.041-.23-1.028.883-.278-.054-.601 1.021-.658-.364-.588.377-.111-.368-1.42-.053-.218.474-.284ZM95.925.708l.166 1.095.757 1.148-.543.575.122 1.455.465.772 1.144.044.93 1.784.68.031.78.636.6-1.237 2.588-.787.521 1.34.905.488-.28.901.682 2.755 1.102.683.93-.316.358-.55.575.199-.239.746 1.407-.18.679.81-.022 1.78.65 1.322.515-.946 1.338-.019.675.516 1.599-.658.675.987.531.152.27.933.386-.007-.062-.632.603.35.166.396-.917.816.056 1.018-.345.604.936.013.393 1.3-.914.43-.239 1.395-.729.215-1.391-.494.022-1.034-1.235.709-.201-.576-2.054-.658-.662.326-.057.49-.594.092-.914-.604-.691.746-1.658-.38-.446.425-.672.031-.248-.37-1.125.427-1.02-.841-1.043-.13-.566.358-.662-.152-.735.582-.082-1.161-1.442.686.434-1.375-.666-.298-.292-.022-.047.936-1.668-.654.025-.547-.33-.054-.251.588-.242-.553-.436.053-.814 1.04-.556-.451.154-.899 1.395-.835-.569-.733-.587-.086-.622.576-.342-.664-.07.531-.744-.323-1.573.788-.261-.395-.578.183-.116-1.053-1.7-.73-.188-.238.437-.452-.236-.196-.506.402-1.35-1.01-1.822.633-.305-.455-1.143-.993.421-2.834.631.515-.766-1.154-.179-3.235.053-.304.12.497.235-.326.258-1.477-.424-1.398 1.046-.31 1.09-1.211 1.642-.538-.383-.072 3.31-.86.167.214.691-.714-.145.373.403.386.216-.76.107.244L93.202.62l.361.262L95.699 0l.226.708ZM37.307 27.992l.622.42.459-.24.358.554 2.691.642-.063.468.164-.446 1.58-.224.182-.582 2.714.015.47 1.806-.339-.12-.229.841.006-.281-.336.063-.15.699 1.862 2.834-.455 1.46.612-.562.509.376.537-.923 1.426-.152 2.739.974 4.711.32 1.498.812.468-.167.27.408L62.5 36.1l1.674-1.537 1.26-.534-1.47-.064 2.273-.035.531 1.867-.383.483.364.39-.182.262.694-.275.274.234v.427l-.823.32.964.755-.123 1.132.626.256-.425.69.249.617-.682.452 1.05.74-.833 2.068.901.664 1.275.089.39-.37.116.417.34-.117-.07.459.343.006-.352.443 1.922 1.29.207.589-.6.61.544.23.025.513.584-.01.047 1.149 1.922 1.749-.398.93.52.711-.803 1.338-1.881.993-.192.449.663.206-.236.553.55.93-.424.38-.78.116-1.099-1.486-.191.604-1.348-.31-.6-1.208-.131.227-1.137-.458-.13-2.03-1.06-1.107-2.04.458.164.316-1.118.649-.173.61-.77-.389-.653.45.004-1.512-1.254-.114-.351-1.06.367-.344-.807-.706-.547-.012.1.553-.392.573-.65-.298-.418.756-.568-.51-1.476.02-.537.708-1.307.573-.157-.813-.33.335-.54-.101.22.465-.603.275-.245-.579-.456.2-.411-.87-.83.054-.609-.408-.63.553-.855-.373-2.397-.705-1.306 1.483-.88.158-.876-.557-1.087-2.874.776.284.016-.348.267.294.845-.398.939.209-.757-.532.33-.325-.798.404-1.586-1.821-.057-1.487-.521-.265.958-1.926-.286-.187.066-1.698.69.12-.728-.354-.232.759-.283-.762-.195-3.596.61-.06-.613-.26-.16.497-1.05-2.394-1.337-.886-.5-2.644-.518-.61.616-.743-.104-1.218-.348-.563-.94-.323.17-1.037Z" fill="#FDFBF5" stroke="#171619" stroke-width=".5"/><path d="m80.49 21.13.93-.118.048.623 3.385 3.11.29 1.457.675 1.066-.478-.02-.785 1.39.223.284.59-.285-.706 1.025.31.424-.266.825h-.057l.682.895-.405.693.358.29.191-.448.403.158-.24.683-.125.082-.631 1.177.336.034-.239.247.515.55.148 1.5.411.344-.194.573-.406-.529-.634.155-.072.661-1.062 2.92-1.256.322-.07.003-.14-.322-.277.699-.525-.057.396.787-.107.76.635-.052-.349.228.116.535-.694.332.16 1.03-1.281.744.135 1.06-.521.398-1.432.063-1.32-.623-.078.85-.679-.233-.7.655h-.27l-1.467.192-.166.55-.629.355-.584.01-.025-.513-.543-.23.6-.611-.208-.588-1.922-1.29.352-.444-.343-.006.07-.458-.34.117-.116-.418-.39.37-1.274-.088-.902-.665.833-2.068-1.05-.74.682-.452-.248-.617.424-.69-.625-.255.122-1.133-.964-.755.823-.32v-.427l-.273-.234-.694.275.182-.262-.365-.39.384-.483-.531-1.866.129-.358-.308.24-2.051-.635-.622-.803 1.127-2.739-.38-.51.412.19.675-1.059 1.693-.683 3.257-2.226 2.425-.374 2.44-1.04.77.225.851-.386.132.36-.085-.398 1.398-.67 2.387-1.946ZM33.098 81.184l.515.364-.185.648.977.497.094 1.046-.763-1.217-.694-.029-.506-.61-.088-.642.65-.057ZM48.57 52.36l.854.373.632-.553.61.408.828-.054.412.87.455-.2.245.58.603-.276-.22-.465.54.101.33-.335.157.813 1.307-.572.537-.709 1.476-.019.569.51.417-.757.65.298.393-.573-.1-.553.546.013.807.705-.367.344.352 1.06 1.253.114-.003 1.512.653-.45.77.39.172-.611 1.119-.648-.164-.317 2.039-.458 1.061 1.107.129 2.03 1.137.459.132-.228.6 1.208 1.347.31.192-.604 1.1 1.486.778-.117 1.54 1.088-.846.108-.125.579-.365.085.415.092-.029.436-.643.048.047.654.584.146-.308.854.396.898-.437.155-.053.854-.28-.459-.376.218.103 1.338-.992.952.122.316-.977.294-.534.662.132.572.302-.092-.295.411-1.725.522-.191.5-.861-.475-.245.465.503.797-.255.165-1.972-.677.015.164-.518 1.114.418.227-.06.528-.895 1.949.383.344-1.37 1.933-.298 2.264-.464-.212-.346.288-.38 1.417-.653-.272-.562.895-.65-.31.477-.639-.54-.095-.267.272-.798-.221-1.706.278-.144.471-.961.257.282-.541-.458-.038-.804.373.166.607-.719.683-.93-.12-.574.37-.949-.41-.848.682-.569-.088.424.24-.191.31.396.013-.151.208.675.257-.301.692.725.86h.054l.518.351h.091l.342.225-.26.243.012.08-.031.711.829 1.053-.305.266.556.436-.282.516.559.278-.17.88.305.819-.569.227.512 1.246-.427 1.091.273.12.192-.423.867.55-1.41 1.293-.657-.16-.314.442-1.376-.67-.056-.083-.245.468-.478-.177-.584.313-.386-.234.411-.92-1.614.402-.277.616-.533.013-1.119.032-.053.853-1.43-1.214.265.813-.625-.968-1.621-.003-.61-1.167-1.752-.307-2.145-1.42-.566-2.214-1.187-1.67-2.531-2.375-.13-1.29.541-.047-.116-.326L36 82.329l.063-.775.66-.383-1.577-1.654-1.922-.344 1.055-.687-.066-1.844-.524-.113-1.144.72-.992-.875-.732.386-1.476-.614.471-.354.038-.573-.7-.695 1.312-.952.006-.472.45-.56.282.402 1.1-.091.245-1.07.7.421.782-.35.28.442.081-.617.773-.218.214-2.27 1.416-.855.239.437 1.237-.724 2.61-.02.493-1.05 1.945-.768-.076-.63 1.181.14.324.566 1.52.44 1.193-3.675 1.806-.75-.757-3.877-.053-.05-.292-1.237.729-1.234-.468-1.692.144-1.85Z" fill="#FDFBF5" stroke="#171619" stroke-width=".5"/><path d="m83.745 15.095.185.149.305.455 1.821-.632 1.351 1.009.506-.402.235.196-.436.452.188.237 1.7.73.116 1.054.577-.183.261.395 1.574-.788.744.323.07-.531.342.664.621-.576.588.086.568.733-1.394.835-.154.899.556.452.813-1.04.437-.054.242.553.25-.588.33.053-.024.548 1.667.654.047-.936.293.022.666.297-.434 1.376 1.442-.686.081 1.16.735-.581.663.151.565-.357 1.043.13 1.021.841 1.124-.427.248.37.673-.032.446-.423 1.658.38.691-.747.914.604.594-.092.056-.49.663-.326 2.054.658.201.576 1.234-.709-.022 1.034 1.392.494.728-.215 1.163.417-.189.914.496.203-.031.724-.616 1.793.572.465-.845 1.173-.769.424-.145.91-.967-.094-.23.32.71 1.027-.367.532.383.41-.493.358.355 1.237-.399.145-.019 1.572-1.008-.345-.465-.588-.889.534-.056.712-.958-.23-1.728.86.427 1.58-.314.44.368.317.216-.2.211.604.446-.085-.01.446-.568.332-1.081-.161-.279.616.487.848-.669.338-.022.465.854-.123.355.575-1.143 1.079.169.342-.383.072-.044.494-.553.05-.556 1.19-.314.29-.204-.452-.816-.23-.201-1.123-.506.401-.314-.81-.525.197-.172-.67-1.097-.795.305-.756-.678-1.12-.892-.217-.044.635-.751-.126-.28.411-.245-.411-1.523.427-.568-.528-.97.714-1.317-.948-.644.572-.405-.892-.264.494-.546-.13.176-.228-.569-.462-.34.15.08-.26-.849-.263-.226.231-.571-.765-.368.534-.685.171-.188-.563-.625.316-1.168-.936-1.03.693-1.55.26-1.036-.45-.637.196-.236-.389-.12.003.164-.588-.47-.152.071-.66.635-.156.405.529.195-.573-.412-.345-.147-1.499-.516-.55.24-.247-.337-.035.631-1.176.126-.082.239-.683-.402-.159-.192.45-.358-.291.405-.693-.681-.895h.056l.267-.825-.31-.424.706-1.025-.59.285-.224-.285.786-1.388.477.019-.675-1.066-.29-1.458-3.385-3.109-.047-.623-.93.117.968-.901.92-2.012.6-.199.251.607.93.25.38-.278-1.948-1.759.214-1.786.93.047ZM44.173 99.843l1.2 1.015 1.011.193.022 1.038.65 1.299-.58 1.133-.497-1.528-1.536-1.372-.27-1.778Zm-1.347-3.96.477.443-.61.089.252.477 1.15-.493-.346.313.185.234.782-.142 1.492.873-.753.376-1.989-1.12-.936.004-.367-.788.663-.265Zm5.141-1.119.534-.013.277-.616 1.614-.402-.412.92.387.234.584-.313.477.177.245-.468.057.082 1.376.671.314-.443.656.161 1.41-1.293-.866-.55-.192.424-.273-.12.427-1.092-.512-1.246.568-.227-.304-.82.17-.879-.56-.278.283-.516-.556-.436.305-.266-.83-1.053.032-.712-.013-.079.261-.243-.342-.225h-.092l-.518-.35h-.053l-.726-.86.302-.694-.675-.256.15-.208-.395-.013.191-.31-.424-.24.569.088.848-.683.948.411.575-.37.93.12.719-.683-.166-.607.804-.373.458.038-.283.54.962-.256.144-.47 1.706-.28.797.222.267-.272.54.095-.477.639.65.31.563-.895.653.272.38-1.417.345-.288.465.212.343.864.782-.114-.07.341.355.12.258-.272.239.456-.283.626.87-.237.302.556.452-.164.122 1.015-.276.155.42 1.148.544-.36.955.382.876-.563 1.206.032-.395-.94.65-.025.964.649.166 1.35 1.197 1.025.245 1.157 1.272 1.19.189.626-.459 1.233.236.538 1.353.648.073.585.951-.006.672.556.085 1.114.798.284-.201.604-.239.32-.27-.092-.358.797-1.058-.281-.56 1.562-1.344-.158-.672 1.085-.757.354.704 1.417-.484.265.324.51-.268.863.572.604.34-.263.527.421.286.762-.848.895-.914-.171.195.918-.572 1.714-.924-.237.038.79-1.102.977-.845 1.433-.71.01-.085 1.518-.722.518-.226.706-.666.003-.653.816-.368-.323.192.421-.534.18-.374 1.078.245 1.348-1.184.677-.528 1.018-1.03-.389-.622.455-.355.702.302.222-.534.237-.095.768-.571-.426-.726.594-.615-.088-.886-.38-.28-.515-.442.088-.311-.528-.33-.063-.267.49-.233-.712-.015-.082-.302-1.711-1.825-.335-.292-.933-.106.481-1.562-.133-.518-1.825-.841-1.24-1.96-1.274-.698-1.164-2.374-1.385-.355.076.15.382-.19-.379-.02-1.752 1.35-.317-.59-.945.83-.108.521-.917-.33-.705.286-.079-.07-.56-.47-.449.882.006-.637-1.74-.544-.217.186-.386-.588-.206.308-.364-.741.225-.405-.348.487-.908 1.174-.914-.301-.803.232-.275ZM127.597 130.065l.129.146.914.559.009.108-.621.294-.475 1.24-1.272-.215-.204-.826.474-.863.113-.203.101-.053.217-.051.402-.326.053.14.135.015.025.035Zm4.573 21.885.443-.749-.386-.452.361-.241-.845-1.189-1.052.588-2.327.07-1.043-1.806-.65-.123-.343.49.157-.443-.314.187-.27-.642.217.797-.644-.345.43.506-.722.285.6-.042-.211.216.56.36.502-.44-1.049.952-3.317-.585-.314-.367.424-.746-.747-.541-3.952-.145.139-.712 1.068-.522-.129-.49.26.351 1.671-.974.135-.417-.596-.209.775-1.325.713-.18 1.147.392-.198-.725.713-2.16-.336-.395 2.249-1.752-.003-.455.399-.019-.757-1.395-.861-.288.013-1.929-.186-.49-.446-.022-.308-1.006.016-1.088 1.8.307.396 1.568 3.14-1.464.635.55.553-.585.207-.098-.192 1.518 1.012.38.254-.367.638.443.744-.133.386.256-.025.822.685.064.254.591 1.128-.244.785-1.072.493.43-.11.317.616.076.053-.313-.515-.146.563-.449.003-1.294h-.515l-.139-.616-.373-.101.276-.5-1.062.06-.345-.376-.368.24-.819-.68-.148-.92.754.107.273-.326-.436-.192-.085-.943 2.035.509.188-.525.462-.041-.873-.762.663-1.246-.063-.734 1.121.234.264-.424.525.159.533-.68-.411-.295.368-.977.728.241.892-.26.38-.389-.402-.43.889-.569.506.36 1.011-.891 1.479.227.575-.405.839.352.031-1.563-.461-.269.015-.831-1.558-.323.537-1.935.632.23.512-.281.411.983 1.125.339.464-.057-.081-.702.392-.304.409.177.474-.446.688.276.553 1.676.923.104.088 2.015 1.467 1.018.609.117.33-.335 1.131.715-.296.632.993 1.948-1.486.111.069 1.059-1.463 1.654.295.886.917.923-.725.152-.07 1.082 1.398 1.505.157.81 2.353.629 1.196 1.104.83-.098.188.563.876.057.079-.332 2.45-.351.238-.497.616.038-.229.794.628.86-.12.759-.555.25-.139.99-1.112.588-.113.832-.797.424.452 1.638-1.621 1.154-.876.117-.075.658-.233-.55-.141.383-.811-.07-.433.696-.678-.045-.459 1.196.305.629-.314.184-.299-.525-.779.645-.292-.288-.694.161-.336.506.258.307-.852 1.227-1.328.364-.575-.256-.374 1.347-1.847 1.36 1.599.101-.418.427.208.778-.512.234.066.342-.34.17-.775-.559-.845.686-1.461.117-.267 1.041-1.171-.624-1.137.111-.478.889.066.689-.782-.038.446-.275-.066-.626-1.344.019-.258-.497-.961.067-.062-.402-.522.399.867.616-.738-.196-.415.579-.405-.057-.462-.338.198-.832-.543-.016.072-.408-1.005-.085-.119-.649-.842-.12-.232.478-.892-.977-.478.316-2.07-.323Z" fill="#FDFBF5" stroke="#171619" stroke-width=".5"/><path d="m113.366 95.533-.113 1.163 1.074.222.217.632 1.479-.556.983.471.384-.389.235.316.371-.186-.06.547.333.044 1.269-.56.43-2.08.691-.026.591.56.838-.497.65.538.249-.674.556-.098.402.522-.406.373.738.484-.216.73.509.424.279-.079 2.101-6.486.126.335.437-.266.945.586 1.432-.38.016-.288.499.256.383.905 1.024.221-.201.63 1.015.585-.207.228.552 1.132.267-.709.167.617.499-.003-.019.97.852-.078 1.356-1.442.048.388.876.282.151.917 1.881-.073 2.547-2.865 1.373.933-.883 1.553.292.645-1.881.652-.201.38.392.284-.483 1.002 1.231-.443.996.228 2.176-1.613.186-.585-.638.089-.166-.987-.359-.158.418-.914 3.477-1.84 2.126.043 1.8.522-.644 1.36 1.225 1.41-.791 1.45-.091 1.248 1.322.247-.298 1.44.769-.308 1.338 2.081.085.585-.622.968-1.087.588-1.209.073-.173 2.091 1.411 1.385 1.102.221-.298.971.301 1.55.71.193-.069.417.659.048.192.68.949.509-1.006 1.461.324 1.331-.851.823-.892-.155-.732.939-.685.025-.003.589-.575.177-1.058-.601-1.781.92-.688-.275-.474.446-.408-.177-.393.303.082.702-.465.057-1.125-.338-.411-.984-.512.282-.631-.231-.537 1.936 1.557.322-.015.832.461.269-.031 1.562-.839-.351-.574.405-1.48-.228-1.011.892-.506-.361-.889.57.402.43-.38.389-.892.259-.728-.24-.368.977.412.294-.534.68-.525-.158-.264.424-1.121-.234.063.733-.663 1.246.873.763-.461.041-.189.525-2.035-.509.085.942.436.193-.273.326-.754-.108.148.921.82.679.367-.24.346.376 1.061-.06-.276.5.374.101.138.617h.515l-.003 1.293-.562.45.515.145-.054.313-.615-.076.11-.316-.494-.43-.785 1.072-1.127.244-.255-.592-.684-.063.025-.822-.387-.257-.744.133-.638-.443-.254.367-1.011-.379.191-1.518-.207.098-.553.585-.634-.55-3.141 1.464-.396-1.569-1.8-.307-.015 1.088-1.879-1.337-.678.098-.198 1.009-.553-.133-.047-1.025-.857.149-.902 1.341-1.661-1.31-1.068.323-.101-1.322.371-.256-1.052-1.224-.465-1.809-.647-.433-.543-2.755.81-.449.336-1.075.509.281-.076-.392.23.24.367-.253.085-.715 1.589-.015.889-1.667 1.159-.183-.226-.858 1.087-.319-.431-.74.321-.553.358.025v-.168l-.327-.553.638.139.166.49.283-.168-.129-.774.562-1.155-.713-.967-.628.344-.502-.344.282-.5-.512-.304.468-.344-.427-.595-.813.19-.509-.579-.713-.066-.437.161.117.357-.946.124-.132.417-.656-.247-.032.396-.427-.816-.49-.079-.565.781-.198-1.136.967-.759.28-1.116-.666-1.54-1.435-1-.613-1.116.047-.629-1.196-1.243.436-.421-.091-1.062.512-.301-.804-.829.101-.74 1.127-.069.566-.487-.337-1.022.211-.664-.371-.44.204-.964-.53-1.442 1.514-.658.113-.016.1-.01Zm13.393 34.712-.101.054-.113.203-.474.863.204.825 1.272.215.474-1.239.622-.294-.009-.108-.914-.56-.157-.183-.135-.016-.054-.139-.402.326-.213.053Z" fill="#FDFBF5" stroke="#171619" stroke-width=".5"/><path d="M49.4 232.72h1v-9h-1v-3.28h8.78c1.72 0 3.033.373 3.94 1.12.907.733 1.36 1.927 1.36 3.58s-.453 2.853-1.36 3.6c-.907.733-2.22 1.1-3.94 1.1H56v2.88h1.92V236H49.4v-3.28Zm7.28-5.72c.773 0 1.16-.427 1.16-1.28V225c0-.44-.1-.76-.3-.96-.187-.213-.473-.32-.86-.32H56V227h.68Zm20.173 5.72h.8V236h-7.84v-3.28h1.2l-.32-1.6h-2.72l-.32 1.6h1.2V236h-6.84v-3.28h.8l3.38-12.28h7.28l3.38 12.28Zm-8.44-3.72h1.84l-.82-3.98h-.2l-.82 3.98Zm9.874 3.72h1v-9h-1v-3.28h9.18c1.72 0 3.033.353 3.94 1.06.906.707 1.36 1.853 1.36 3.44 0 .893-.18 1.667-.54 2.32-.36.653-.874 1.107-1.54 1.36l.02.2c1.28.2 1.92.987 1.92 2.36v1.54h.94V236h-6.34v-4.7c0-.52-.08-.913-.24-1.18-.147-.267-.387-.447-.72-.54-.32-.093-.78-.14-1.38-.14v3.28h1.32V236h-7.92v-3.28Zm7.68-5.72c.386 0 .673-.1.86-.3.2-.213.3-.54.3-.98V225c0-.44-.1-.76-.3-.96-.187-.213-.474-.32-.86-.32h-1.08V227h1.08Zm8.316 9v-3.28h1v-9h-1v-3.28h7.6v3.28h-1v9h1V236h-7.6Zm14.598.28c-1.28 0-2.493-.107-3.64-.32-1.133-.227-2.006-.48-2.62-.76v-3.96h4.4c0 .413.094.713.28.9.187.187.527.28 1.02.28.414 0 .707-.06.88-.18.187-.133.28-.327.28-.58a.68.68 0 0 0-.26-.54c-.173-.16-.473-.32-.9-.48l-1.72-.6c-1.48-.56-2.546-1.22-3.2-1.98-.64-.76-.96-1.787-.96-3.08 0-1.573.514-2.767 1.54-3.58 1.04-.827 2.767-1.24 5.18-1.24 1.16 0 2.247.12 3.26.36 1.027.227 1.854.533 2.48.92v3.58h-4c0-.667-.413-1-1.24-1-.4 0-.686.053-.86.16-.16.093-.24.267-.24.52a.63.63 0 0 0 .28.54c.2.133.52.273.96.42l1.74.6c1.414.48 2.44 1.107 3.08 1.88.654.76.98 1.76.98 3 0 1.693-.573 2.973-1.72 3.84-1.133.867-2.8 1.3-5 1.3Z" fill="#EA346C"/><path d="M49.36 212v-2.952h.9v-8.1h-.9v-2.952h10.764v4.662h-3.186v-1.71H55.3v2.988h2.718v2.052H55.3v3.06h2.358V212H49.36Zm11.373-2.952h.9v-8.1h-.9v-2.952h8.262c1.548 0 2.73.318 3.546.954.816.636 1.224 1.668 1.224 3.096 0 .804-.162 1.5-.486 2.088-.324.588-.786.996-1.386 1.224l.018.18c1.152.18 1.728.888 1.728 2.124v1.386h.846V212h-5.706v-4.23c0-.468-.072-.822-.216-1.062-.132-.24-.348-.402-.648-.486-.288-.084-.702-.126-1.242-.126v2.952h1.188V212h-7.128v-2.952Zm6.912-5.148c.348 0 .606-.09.774-.27.18-.192.27-.486.27-.882v-.648c0-.396-.09-.684-.27-.864-.168-.192-.426-.288-.774-.288h-.972v2.952h.972Zm20.697 5.148h.72V212h-7.056v-2.952h1.08l-.288-1.44H80.35l-.288 1.44h1.08V212h-6.156v-2.952h.72l3.041-11.052H85.3l3.042 11.052Zm-7.596-3.348h1.656l-.739-3.582h-.18l-.737 3.582ZM100 197.996h5.903v2.952h-.9V212h-5.058l-5.273-8.118v5.166h.864V212h-5.904v-2.952h.9v-8.1h-.9v-2.952h6.497l4.734 7.218v-4.266h-.864v-2.952Zm13.578 14.256c-2.268 0-4.02-.576-5.256-1.728-1.224-1.152-1.836-2.994-1.836-5.526 0-4.836 2.352-7.254 7.056-7.254 1.14 0 2.196.138 3.168.414.984.276 1.716.582 2.196.918v4.5h-4.32v-1.296c0-.456-.102-.792-.306-1.008-.204-.216-.51-.324-.918-.324-.408 0-.714.108-.918.324-.204.216-.306.552-.306 1.008v5.436c0 .456.102.792.306 1.008.204.216.51.324.918.324.408 0 .714-.108.918-.324.204-.216.306-.552.306-1.008v-1.458h4.32v4.662c-.492.336-1.224.642-2.196.918-.96.276-2.004.414-3.132.414Zm6.007-.252v-2.952h.9v-8.1h-.9v-2.952h12.15v5.436h-4.032v-2.484h-2.178v2.844h1.584v2.052h-1.584v3.204h2.178v-2.844h4.032V212h-12.15Z" fill="#FDFBF5"/></g><defs><clipPath id="clip0_8_555"><path fill="#fff" d="M0 0h192v240H0z"/></clipPath></defs></svg>