<svg width="263" height="262" fill="none" xmlns="http://www.w3.org/2000/svg"><path d="M131.4 130.983V.579c72.02 0 130.41 58.384 130.41 130.404S203.42 261.386 131.4 261.386 1 203.003 1 130.983c0-23.889 6.56-47.319 18.97-67.732l111.43 67.732Z" fill="#67C587" stroke="#fff"/><path d="M131.4 130.983 19.97 63.251a130.387 130.387 0 0 1 31.76-35.5l79.67 103.232Z" fill="#EAF6ED" stroke="#fff"/><path d="M131.401 130.983 51.731 27.751a130.434 130.434 0 0 1 34.02-18.92l45.65 122.152Z" fill="#C9EAD4" stroke="#fff"/><path d="M131.4 130.983 85.75 8.831a130.33 130.33 0 0 1 30.56-7.375l15.09 129.527Z" fill="#A9DEBA" stroke="#fff"/><path d="M131.401 130.983 116.311 1.456c2.51-.292 5.019-.511 7.529-.658l7.561 130.185Z" fill="#88D1A1" stroke="#fff"/><path d="M131.4 130.983 123.84.799c2.52-.147 5.04-.22 7.56-.22v130.404Z" fill="#59AA76" stroke="#fff"/></svg>