<svg width="237" height="322" fill="none" xmlns="http://www.w3.org/2000/svg"><path d="m56.685 223.502.178.62-.44-.172-.624.213.31-.311-.193-.409.769.059Zm7.819-53.222 1.788.101.874-.201.218-.371.179.009.489-.608-.274-.552.659-.625.775.323.465-.391.35.403.42-.056.267-.395-.385-.397.419-.516-.043-.62-.637-.563-.096.786-.47-.012-.278-.424.576-.294-1.526-.281.532-.16-.148-.709.708-.021.397-.29.394.266.652-.578.64.59.428-.513.45-.053.2.694.648-.054.324.65-.102-.887.212-.234.305.125 1.305-.38-.077.531-.04.468.061.569-.381.164.298.249-.332.56.554.501.163-.053.283-.128.034-.673.637-.317.332 1.147h.182l.326-.643.898-.608-.089.285.748.539-.062 1.471.487.276.335.934-.588.474.117.501-.723.644.936.29.107-.64.668-.581.326.154-.335.578.428-.015.012.258h.08l-.219 1.749.268.258 1.788-.026.218-.534.607-.394-.419-.359.505-.495.517.347-.123.658.738.074-.424.534.424.797-.332.03-.21.433.776.29.55 1.213-1.07.486.317.828-.326-.042-.074.291.138.37.631.178-.197.65.49.587-.447.507-.197-.377-.28.495.462.169-.277.148.4 1.044-.265-.006-.036.341.609.193.252.424.222-.131.381.798.388-.243.57.418.144.557-.597.309-.302.513.367.326.44-.057-.311.457.538.374-.227.649.846-.068.547.471.524-.047.154.679.489.107v.355l.274-.05.209.326.148-.154-.167.498.259-.059.243.619.415.244-.255.139.372.483-.667.323.603.484-.003.86-.505.441.418.362.01.554-.554.356.237.653-.4.142.301.418-.23.273.597.528.335-.202-.175.196.538.587-.225.151.462.439-.588.483-1.058.261.304-.329-.073-.495.304-.083-.588-.131-.39.89-.539.373-.505-1.023-.612.11-.69-.498.087.483-.33.163-.03.43 1.323 1.607-.48.148-.09.398.389.714-.231.611.181.566-1.49.327-.15.142.283.024-.009.394-1.13.46-.252.501-.75.074-.511-.632-.847.653-.507-.128-.182.611.271.237-1.394 1.444.09.412.464.015-.019.454 1.317 1.856-.018 1.358.868 2.893.544.543.167 1.076v.433l-.084.154.025.187-.51 2.013-.54.217v.519l.453.43-.024.64-.268.727.19.139-.553.373.095.3.437-.216-.274.604.302-.302-.083.291.692.916-.348-.069-.114.33-.452-.107-.541.474 1.067.762-.034 1.145.462.498-.175.676-.37.323-.409-.202-.283.949-.24-1.014-.655.024-.077-.323-.542.166-.686.809-2.2-.738-.413.282-.015.124-.295.406-.484.063.059.344-.81.631-.932.291-.93-.276-.378.243-.529.602-.23.931-2.638-.466-5.468-2.591-1.892-.631-1.382-.172-2.431 1.052-.859-.934.013-.4.437.056-.031-.273-1.043-.275-.194-.685-.754.542-.012.324.781.364-.338.549-1.283-.531.181-.631-.462-.336.182-.459.372-.104-.35-.462-.573.243-.197-.801-.581-.43-.194.335.154.418-.456.404-.224-1.121-.813-.024-.181-.234-.105.4.283.344-.474-.086-.624.391-.711.024-.68.836.095.492-.938.671.289.418-.299.278.773.549.44-.074.157.501-.046-.297.403.229.64-.086-.006-.436.277.083.077-.279.689.131.495-.285.456.697-.243.278-.133-.406-.252.258.172.827-.572.516-.286-.172.157-.441-.976-.454-.23.439-1.004.444.212.487.419-.128-.04.315-1.086.311-.662-.308-.29.311-1.165-.205-.684-1.017-.624-.157-.597.294-.419-.448-.784.732-1.087.353-.39.679-.425-.19-.945.389-1.188-.202-.32.389-.593-.178-.407-1.035-1.366-.018-.51.848-2.029.7-.501-.11-.643-.697 1.012-.127-.277-.587.403-.383-.366.252-.517-.103-.535.498-.582-.341-.468-1.195-.861-.83-.213-.985.714-1.017-.357-1.278.637-1.74-.107-1.062.492-.51.028-.94.769-1.165-.28-.824-.754-.931.145-2.437 1.76-2.859.523-2.271 1.012-.72-.24-1.907.619-1.681.086-1.041.739-.696-.117-1.975.766-1.625.982-.602 1.464-1.711.154-1.005.859-.092.273-.729.724-.086.449-.385 1.17-2.921.947-1.512.686-.255 1.016-.839.258-.537.29-1.147.916-1.349.179-1.966.726-1.45-.388.021.105-.463 1.917-1.74-.748-.86.933-1.207.04-.631-.517.433-.216-.226.64-.578.24-.975-1.267-.442.406-.596-.939-2.405.139-.877.495-.17.542.178 1.68 2.008.69-.492.224.094.163-.376-.406-2.002 1.904-.394-.092.436-.123-.403-.224.157.538.563-.332.629.486.783-.062.379.607.501-.004-.077 1.271.27.502-.371-.105.543.286.409.29-.267 1.021-.053.028.525-.459.516-.286.02-.187-.501-.527.445.237.999-.71.679.261.394.326-.314.357.359.862-.756.16-.655.212.183.726-.518-.369-.418.179-.427.267.056-.046-.614.665-.184.781.371.419-.317.08-.143.283-.486.68.119.136.474.381-.21-1.05-1.397.029-.308.187.412.332.029.022-.495Z" fill="#FDFBF5" stroke="#171619" stroke-width=".5"/><path d="m82.915 142.727.603-.309-.034-.272.738-.825.674.623.16-.282.48.282.077-.267.48-.071.093.409.455.279.01.59.467-.059.908.575.55-.009.136.845.606.797.268-.035-.21.222.62.19-.358.498.21.442 1.12-.231.412.833h.145l.218-.054-.006.593.4-.133.055.285.345-.46.237.05.335.771.748.125-.15.765.236.442-.252.628.323-.006-.181.246.243.416-.265.103.2.454.43.21.58-.204.704.531h.102l.329.216.255-.199.034-1.177.742.291.624-.303.419.413.47-.196-.021-.91-.668-.116h-.107l-.053-.362-.634-.047-.566-.661-.51-.155.249-.696-.299-.045.056-.545.753.186.619-.785.375.157.526-.386.591.134.274-.252.296.474.332-.193.148-.056.39-.104.961 1.317.252-.048-.08-.471.849.157.142.474.806-.231.071-.4.517-.039.052.519.391-.118.391.667-.48.904.249.418.708.145-.127.321.284-.095.095-.59 1.105.723.101-.599h.08l-.178-.142.347-.371-.157-.91.293.024-.289-.454.452-.258-.52-1.18.175-.901-.366-.549-.009-.88.769-.187.077.282.219-.41.397-.041-.016-.525.502-.065-.022-.297 1.668.282.194.353-.108.234-.298-.071.006 1.468.594.373-.151.353.428-.359.357.054-.074.874.815.143.028.622.745-.311.221-.433.437-.086.609.457 1.634-.442.117.19.49-.386.48.095-.216-.258.394.128.136-.273.892.501v.388l1.932-1.002.588.46-.08.367.296-.13.366.338-.114 1.115.391-.107.96.845.021-.184.871-.047.179.456.48.341-.123.273.412.635-.828.391-.123.383.695.486.456-.083.188.732.286-.08.166.421.277.015-.157.13.523.762-.421.774.104.97.625.439.326-.089.529.616-.274.531 1.108.16.206.596.197-.204.588.652.646.044.028.318.566.074.022.522.554-.309.578.409.182.27-.557.682.138.371 1.363.448.059.584-1.034 1.292.009.534-.455.071-.2.73.154.708-1.388.75.034.534.75 1.136.893.477.671.021.123 1.986.637-.044.575 2.372.622.329.292-.169.151.258-.206 1.349.455.691.009.545 1.003.285.961.866.449 1.384 1.332.069.668.439-.009-.602 1.218.18 1.231 1.112.434.045.095 1.144.401.024.144.38.394.112.132.546.511.281-.052.457 1.185.857.132 1.023 1.117.67 1.052-.136 2.044 1.868.193 1.924 1.804 1.304.252-.035-.006-.756.471-.149.957.11.554.937.4-.332-.127.302.954 1.676.874.074.428-.243.511 1.456.566.16.428.91-.188.492.68.264-.889 1.61.341.394.499.086-.489.205.209 2.197-.453.519.01.611-.622.572-.218-.285-.24.309.052.604-.323.504-1.29-.557-.227-.4-.936-.522-.643.184-1.271-.845-.049.409-.594.548-.498-.228-.231.169.366 1.32-.615 1.565.249.744-.554 1.592-1.499 1.379-1.547.94-1.438-.065-3.154 1.055-1.243 1.358-1.714.22-.443.975-.945.599-.27.658-.542-.091-.169.486.252 1.026 1.748 1.616.452 1.479.773.187.163.474.314-.106 1.283 2.635-1.483 2.165.292.225-.683 1.139.397.356.852.086.889-.442 1.247 1.023-.071.477.425.979-.708.922.172.4-.557.314.302.398-.514.75.308.367-.025.842-.855.786-.176-.424-.397-.178-.114.303-1.157-.635-.52-.691-.569-.237-.114-.454-.991-.255-.317-.717.339-.67.523-.196-1.283-1.082.464-.623-.477.261-.535-.459-1-.063-.616.35-.864-.068-.57 1.121-.76-.092-.778.308-1.169-1.405.018-.549-1.419.306-.618-.356-1.585.498-.274-.421.453-1.088-.243-.276-.739.863-1.003.332.723 1.735.055.886-.55.151.058-.37-.766.24-1.496-.377-.806.249-.234-.427-.64.326-1.221-.011-1.133.332-.221.56-1.216-.261-2.342.202-.52-.294-.046.392-.594.05-.314 1.483-.304.29-1.302.276-1.44-.228-.966 1.141.461.128.274.646-1.652-.128-.914.617-.028.546-.415.29-.874.057.569-.917-.932-.16-1.53.602-.237.439-2.726-.05-.139-.463.274-.427-1.071-1.135.124-.27-1.299-.042.07-.545.878-.315-.585-.667-2.142.638-.369-.561-1.25-.287-.085-.406-1.8-.267-.514.975-.954-.035-1.333-.573.499-.827-.837.024-.154.201.437.641-.419 1.417.237.516.499.222.135 1.213-.77.614-.008.821-.776.148-1.298 1.969-1.905.964-.631-.172-.492.196.064-.727.69-.454-.296-.426.739-1.519-.194-.16-.28.232-.588-.368-.363.682-.914-.175-.385.543-.55-1.572.677-.465-.228-.697-.76-.35-.225-.602-.84.128-.268-.413.163-.145-.594-.519.105-.688-.147.321-.831.142-.779-.516-.148.554-1.154-.554.234-.863-.51-.453-.773.323-.502 1.399-2.667-.4.23-.931.53-.602.378-.243.93.279.935-.291.81-.632-.06-.343.484-.063.292-.406.016-.124.412-.285 2.2.738.686-.806.542-.166.077.326.652-.024.243 1.011.284-.946.412.202.366-.323.178-.676-.464-.501.034-1.142-1.068-.762.541-.474.45.106.114-.329.35.069-.692-.92.083-.287-.302.302.274-.605-.437.217-.095-.3.554-.373-.194-.14.268-.726.024-.64-.452-.43v-.519l.539-.217.51-2.013-.024-.187.086-.154v-.436l-.166-1.073-.545-.543-.865-2.893.019-1.358-1.317-1.857.018-.453-.467-.015-.087-.412 1.394-1.444-.27-.24.181-.611.505.13.846-.655.51.632.752-.074.255-.502 1.13-.459.006-.394-.283-.024.15-.142 1.49-.327-.179-.566.228-.614-.388-.714.09-.395.48-.148-1.324-1.61.028-.43.33-.163-.087-.483.692.498.613-.11.504 1.023.539-.373.39-.893.588.134-.301.083.07.492-.304.329 1.058-.261.588-.48-.461-.442.224-.151-.538-.584.175-.196-.335.204-.597-.53.23-.273-.3-.418.4-.142-.238-.653.554-.356-.006-.554-.422-.362.508-.442.003-.856-.603-.487.67-.323-.375-.486.259-.139-.415-.244-.244-.619-.258.059.166-.498-.145.154-.212-.329-.27.05v-.355l-.49-.107-.154-.679-.523.047-.548-.471-.846.068.228-.649-.539-.374.314-.459-.44.059-.366-.326.302-.513.597-.309-.142-.554-.572-.418-.385.243-.382-.801-.221.131-.252-.424-.613-.193.037-.341.268.006-.4-1.044.277-.148-.462-.169.28-.495.197.377.443-.507-.49-.587.198-.65-.628-.178-.141-.37.077-.291.323.042-.317-.828 1.07-.486-.55-1.216-.776-.29.21-.43.335-.03-.425-.797.425-.534-.739-.077.123-.658-.52-.344-.501.492.418.359-.606.397-.218.534-1.785.023-.27-.257.218-1.747h-.08l-.016-.258-.428.015.336-.578-.323-.154-.668.581-.108.637-.935-.29.72-.641-.114-.501.588-.474-.336-.934-.486-.276.062-1.471-.748-.539.09-.285-.9.608-.325.643h-.179l-.335-1.147-.637.317-.034.673-.28.128-.163.053-.554-.501.332-.56-.298-.246.381-.164-.061-.569.043-.471.077-.531-1.305.38-.305-.125-.215.234.101.887-.32-.653-.649.054-.2-.694-.45.053-.427.513-.64-.59-.652.578-.394-.266-.4.293-.708.021.15.709-.532.16 1.527.281-.576.294.277.424.471.012.095-.786.634.56.043.623-.418.516.385.394-.265.398-.422.053-.35-.403-.465.388-.776-.323-.661.626.277.554-.49.608-.178-.009-.218.371-.874.201-1.788-.101-.382-.673-.323-.053-.003-.498.69-.635-.238-1.515.751-.219-.114-.383.496-.785-.794-.522.532-.682-.135-.403-.733.136-.252-.762.166-.851-.412.433-.23-.22.162-.201-.495.062-.062-.658.339-.018-.539-1.266-.092-1.975.148-.415.464-.041-.295-.32-.108-1.053-1.025-.225.431-.617-.015-.664.418-.575 1.967-.445.686.279-.052.744.772-1.032-.102-.329.693-.326.652.311 1.09.154.363-.216.246.264.566.006.628 1.203.621.175 1.536-.299-.09-1.492.253-.124.15-.48-.027-.039-.563-.273.04-.48.298-.181-.4-.804.102-.447.819.498.67-.231.13.32 1.6-.347.021-.222-.547-.282.326-.608.929-.29.883-.851.006-.934-.267-.424.563-2.055.375.19.416-.19.126.353.978.483.243-.391.219.302.388-.116 1.123-.602.781-1.117.388-.146.462-1.464ZM150.274 77.408l.022.012.218-.1-.021.411.701.418-.498 1.15.212.481.822.142.634.525.034.682.994.225-.154.332.56.036-.902 1.8.24.172.483-.395 1.145.745-.108-.4 1.139.761-.382.338-.286-.065.348.16.009.072-.095.011-.111.19.135.338-.194.308-.84.416.262.35-.526.266-.49.848-.218-.22.141-.963-.289-.175-.44.237-.298-.566-1.071.122-.022-.33-1.098.128-.262-.741-.911.305-.006 1.053-.609-.056-.046-.324-.314-.008-.529-.68-.453.226-.304-.095-.145-.317-.452.367-.493-.006-.064-.48-.397-.038-1.139.465-.175.3.249.038-.751.145-.105.006.194-.243-.674-.37-.095-.05-.141-.004.123-.323.52-.486-.256-.35.163-.896.963-.963-.47-.32-.508.085.194-1.022.366-.083.154-.685-.486-.362.689-.382 1.034.34-.296-.59.376-.658.843.018-.052-.4.424-.057.007-.587.523.107-.006.887.984.163.68-.76.566.374.416-.445.514-.026-.397-.362.172-.207.28-.158.117.033-.071.16Z" fill="#FDFBF5" stroke="#171619" stroke-width=".5"/><path d="m106.938 63.22 2.468.353.086-.89.468-.047.382.19.44-.166.166.424.624.195.567-.148.474-.4-.117-.41.326-.456-.311-1.393.705-.14.775-.821.797-.151 1.191.388.058.454.881-.303.824.08.243-.361-.667-.534 1.249.142.631-.89 1.111.205.486-.871.406.192.557-.281-.111-1.062.84-.527-.258-.68.668.137.046.658.578.083.779-.53.354.684.323-.11.037-.32.834-.178.547 1.106 1.019-.133 1.612.88.013.505.677.305.335.804 1.572-.457 1.573.637 1.102-.31.289.15-.203.49.354.219 1.409.089-.351.744.612.392 1.518-.442.603.676.501-.448.502-.047-.169.237.378.044-.049-.246.554-.19.31.273-.729.543.317-.113.32.516.582-.145.664-.902.751-.154.173-.418.378-.053-.021-.638.492.006.4-.46.658.021.391.857.539.199.286-1.26 1.074-.762.754.237.437-.142.501 1.109.382-.193-.034-.053.674-1.107-.037-.423.348-.012.154.302.43-.107.351-1.05.385.19-.123-1.05.16-.426.363.044.28-.403-.12-.661.705-.471.775.103.139-.996 1.581-1.26.502-.136.708.38.726-.371.197-.38-.945-.546.36-1.42.585 1.296 1.067.424-.04.97.776.646-.28.714.311.294 1.652-.403.889.154.111.522.683.083.696-.958 1.151.593.554-.047.283-.344.332.201.095 1.27-.366.921-1.88 1.937-.631 1.135 1.203-.148 1.031.394.976-.163.03-.534.757-.296.311-.792.597.039 1.253-.653.178 1.655.363.08.148.41-.846 1.657-.539.34-.175 1.204.381.635-.455 1.963-.382.821-1.664 1.515-2.256 1.337.32 2.396-.742 1.447.376.43 1.495.246 1.185 1.302 1.428.75 2.209 2.772 2.607 1.637.803 1.135-.671 1.195.579 1.329-1.053 1.509-.603.264-.292 1.183.532 2.042.431.62-.163.564.341.507 1.874.54.505.616-.148.845-.409.38.375.785-.486.848.04.836 1.511 1.557-.268.347.053.685-.656.898.142.303-.32.51.301 1.028-.504 1.258-1.659 1.411-.381.863.317.682.769.284.446 2.123 1.351 1.145.385.854.147 1.604-.68.762-.652-.478.132.587-.474.765-1.258.089-.373-.655-.56-.261-.455.231-.126.41-1.64.053-.136.436-1.157.032-.905.706-.175.46-.169-.246-.012-.143-1.059-.489-.474.139-.631-.355-1.492-.119-.16.338.215.267-.683.074-.212.697-.397.16.268.471-1.068.033.56.928-.489.296.163.504-.576.413.219.258-.456.044-.111.652-.547-.1.015-.513-.246-.095-1.037.504-1.4-.143-.299.457-.711-.03-.193.238-.133-.238-.504.258-1.456-.444-.172.216-1.219.018-.16-.448-.372-.041-.496.471-.123-.368-.274-.014-.067-.599-1.117-.306.203-.201-.532-.418-.499.317.135-.362-.55-.578-.462.519.049.329-1.074-.347.105.326-.831.445-.012.385-.489-.053.123.468-1.028-.341-.419-1.212-.092.376-.262-.127.545-.685-.406-.732.046-.507.329-.024.117-.958-.434-1.005-.815-.356.345-.753-.767-.812-.689.347-.665-1.133 1.874-1.168.247-.243-.157-.558.646-.172-.646-.868.23-.187-.329-.519.296-1.148-.804-1.527.597-.136-.264-.578-.369-.065-.757.421-.782-.095-.259-.279.216.003.123-.605-1.422.015.037-.652-.372-.063.04-.382-.757-.125-.597.365-.056-.207-.667-.03-.145-1.002-1.274.157-.477-.733-1.652-.773-.299-.021-.224.56-.591.08-.04.297-1.422-.107-.077-.519-.889-.34-.219-.603-.353-.032-.219.53-.301.024-.902-.818-.591-.14-.898-1.363-.739-.371-.268-.86-.849-1.126.169-.475.385.006.015-.84.982-.506-.736-.208.24-.157-.523-.373.61-1.981.603-.925-.486-.596.43-.38-.233-.252.147-.637-.523-.246.446-.279-.154-.21.834-1.465-.437-.33.425-.263-1.169.314-.219-.278.203-.158-.538-.655-.477.635-.643.154-.36-.558.449-.58-.366-.211-.539.281.705-1.378-.2-1.578.64.199.532-.323.037-.297.12-1.322-.338-.25.101-.459-.35-.234.064-.27-.234.06.456-.813-.256-.45.225-.908.575-.053.157-.475-.474-1.76-.646-.203-.126-.314-1.354.792-.037-1.266-.234.542-1.751-.424-.846.454-1.757-.593-.437-.46-.689-.008-.237-.368.517-.61-.083-.363-1.139-.258-.861-.892-.933.365-.338-.964-.994-.11.271-.836-.776.071-1.015-.551-.757.151-1.09-.946-2.243.724-1.289-1.343-.139-.724Zm43.01 14.152-.172.208.397.361-.514.027-.416.445-.566-.374-.68.76-.985-.16.007-.89-.524-.107-.006.587-.424.056.052.4-.843-.017-.376.658.296.59-1.034-.341-.689.385.486.36-.154.684-.369.083-.194 1.023.511-.086.467.32-.963.967-.163.895.256.35-.517.487-.124.323.142.003.095.05.674.37-.194.244.105-.006.751-.145-.249-.042.175-.3 1.139-.462.397.039.064.483.489.006.453-.368.144.314.305.095.452-.225.53.679.31.009.047.32.609.06.006-1.053.911-.306.261.742 1.099-.128.019.326 1.07-.121.302.566.44-.237.286.175-.141.963.218.22.489-.845.523-.27-.261-.35.84-.415.194-.308-.132-.341.11-.19.096-.012-.01-.071-.347-.16.286.065.381-.338-1.138-.762.108.4-1.145-.74-.483.393-.24-.169.901-1.802-.56-.036.154-.332-.994-.225-.034-.682-.633-.525-.825-.142-.212-.48.498-1.151-.702-.415.019-.412-.219.1.053-.171-.117-.03-.16.21-.108-.059ZM52.481 59.938l.222-.03 1.018.605.48-.26.404.157-.379.646.61.012.249.596 1.061-.1.437-.315.114.26.45-.103.282.516 1.702-.012.2.216.058.276.373.439.034.098.984-.033.607-.62.757.81-.69.323.296.519.52.077-.536.394.053.783.313.427-.858.691-.046.323-.797-.003-.554-.821-.018.581-.847.045-.874-.6-.107-.438-.324.465-.732-.03-.252-.477.101-.67-.873-.462.07-.386-.769-1.118-.218-.898-2.13-.96-.083-.101-.477-.75.154-.11.015.038Zm.597-11.987 1.416.403.446-.368.588.09-.053-.256h.339l-.834 1.115.212.563.33.06-.127.848.231.442-.35.602-.505.367-.403-.276-.24.205-.524-1.08.163-.103.265.035.025-.72.148.14-.367-.374.031-.786-.21-.027-.058.41-.523-1.29ZM76.791 49.495l.803-2.38.028.468.477.148.058.581.714.24 1.065-1.156.314-.934 1.418.193.394-1.106 1.305.1.25-.838-.2-.202.258-.308.794.222.932-.803.499.246-.028.222-.2.463-.493.163.05.433-.32.4.809.454.277.495-.154.3.594.15-.603.682.154.845-.942.4.219 1.61.501.333.465-.276.584 1.219 1.013.96.661.101-.347.49-.877.423-.487.756h-1.261l-2.403-2.128-.087.521-.541.012.203.374-.892.59-.847-.37-.517.444-.172-.065.277-.62-.338-.652-.831.551.009.279-1.071-1.053-.062-.922-.415.054.05-.285-.44-.3.298-.355-.253-.656.179-.406-.871-.106ZM71.326 108.816l.88-.311-.086.637.354.282.68-.406.498.474 1.102-.356.228.828 1.021.96-.221.285-.957-.501-.071.43.4.557-.462.092-.344-.382.304.845-.692.498 1.12 1.402-.305.724.33.854-.302.394-.99.119-.373.661.348.252-.163.27-.727-.152.588.67.843.608.542-.023-.03.421.775-.202 1.255.694.67-.341.087-.91-.655.518-.727-1.337.794-.207.56-.522.542.077-.059-.679.45-.113.4.282.021.569.493.365-.284-1.299.545.276.074-.285.382-.083.563.745-.05.53-.061.632.459 1.046-.179.377.585.205.064.477 1.631.178-.163.753.6.317-.178.495.867.335.511-.163.188.404.335-.137.591.59.81.202-.687 1.038.188.768-.25.385-.645-1.207-.908.415 1.08.688-.576.952.179.468-.259.282 1.265.73.188.275-.428.223.222.323-1.133.45-.535-.527-.33.192-1.243-.272-.387.946.418.418.043.548.397.134-.668.216-.095-.178-.24.267-1.212-.231.07.56.21-.276.455.03-.317.709.79-.413.758.641-.062.326.231-.024.025.232-.742.501-.021.519.326-.131-.216.546-.412-.077-.175.338-.311-.137-.126-.044-.437.32-.179.643.191.771-.541-.012-.08.451.329.101.03.495-.621.996.283.341-.858.709-.053.886 1.637.324.154-.353-.37-.457.093-.314.92-.27 1.05.157.56 1.441-.653-.027-.237.38.474 1.628-.443.788.062.389-.462 1.465-.388.145-.781 1.118-1.124.602-.387.115-.219-.302-.243.391-.978-.483-.126-.353-.416.19-.375-.19-.563 2.055.267.424-.006.934-.883.851-.93.29-.326.608.548.282-.021.222-1.6.347-.13-.32-.67.231-.82-.498-.1.448.4.803-.3.181-.04.48.564.273.028.039-.151.48-.252.125.089 1.491-1.536.299-.621-.175-.628-1.203-.566-.006-.246-.264-.364.216-1.089-.154-.652-.311-.692.326.101.329-.772 1.032.052-.744-.686-.279-1.967.445-.418.575.015.664-.43.617 1.024.225.108 1.053.295.32-.464.041-.148.416.092 1.974.539 1.266-.339.018.062.658.495-.062-.163.202.231.219.412-.433-.166.851.252.762.733-.136.135.403-.532.682.794.522-.496.785.114.383-.75.219.236 1.515-.689.635.003.498.323.053.382.674-.056.498-.332-.027-.188-.415-.027.308 1.049 1.397-.382.213-.135-.474-.68-.119-.283.489-.08.143-.419.314-.781-.371-.665.184.046.611-.264-.053-.179.424.366.418-.723.519-.212-.181-.163.652-.862.756-.357-.359-.33.318-.26-.395.71-.679-.237-.999.53-.445.187.504.286-.02.459-.516-.028-.528-1.021.053-.29.267-.286-.409.105-.543-.499.371-1.27-.27v.08l-.607-.504.065-.379-.486-.783.329-.626-.535-.566.224-.157.123.406.093-.436-1.905.395.406 2.001-.163.379-.225-.097-.69.492-1.68-2.007-.54-.178-.496.169-.754-1.243-.486-1.912 1.544-.872.81-1.171-.148-.202-.942.015-.858-1.586.101-.964-.781-.631.2-1.174-.646-1.72-1.524-1.489-1.187-.231-2.82.922-1.393.756-1.64.178-.357-.249-.277-.954-1.56-1.311.578-.762.687-.009-.139-.427.41-.842.624.371.35-.208.555.552-.173-.925.222-.294-.945-.715-.025-.391.53-.356.003-.281.708-.187.08-.285.698-.246.043-.296.474.587.403.056.394-.626-.08-.103-.523-.496.283-.397.726-.041.133.32.517.032.249-1.138-.323-.311-.016-.499-.584-.163.089-.459-.33-.786-.27-.024-.056-.308-.538.03.123-.469-.714.027-.43-.341.424-.35.055-.344-.255-.107.692-.456-.637-1.011.333-1.112.947-.97.539.549.63.163.635-.516.317-1.432-.502-.311.27-.671-.593-.812.29-.768.84-1.447-.736-1.343.077-.305.123-.039 2.483-2.683.483-.033.293.62h1.03l1.44-1.693.545-.036-.197-.664.163-.741.388-.098-.065-.216 1.225-1.29-.357-.73-.274.092.428-.685-.48-.495.499-.513.59-.178 1.94.252.538-.397.707-.059-.378-.403h-.074l-.022-.421 1.219-1.195-.212-.653.39-.305-.513-.3-.268-.972.172-.338-.283-.341-.588-.071-1.889.872-.754-.911 1.234-1.77.33-.231.34.13.09-.468.443-.139-.092-.341.341-.175.73.127 1.403-.554.67.062.352.335.713-.46.92.107.179-1.156-.542-.095-.006-.54-.55-1.008 2.498-1.097.406.466.739-.021.283.243-.252.898.338.632.8-.172.45.213.473-.679.64.199.16-.931.773-.264.363-.465.495.012.157-1.175 1.105-1.171-.68-.711 1.668-.463.566-.513Z" fill="#FDFBF5" stroke="#171619" stroke-width=".5"/><path d="m156.801 29.986.597 1.367.683.794 2.816 1.54 4.111 3.972-.822.477.573.404-.028 1.07-3.437-.222-.914.818-1 .151-.336-.243.391.08.209-.314-.492-.498-.335.996-.643.095-1.031-.33.203-.684 1.197-.22.784-.97-.304-1.307-.505-.498.24-.759 1.083.003-.113 1.747.166-.727.326-.148.775-.018-.237.362.585.282.139-1.356-.145-.874-.437-.297-.228.33-.218-1.041-.486-.673-1.188.023-.053.662.508.462-.135.389-.209-.164.123-.438-.44.708-.776.398-.135-.436.52-.789-.456-.305-1.123.94-.597-.024-.064-.359.338-.26.495-1.35.062-.884-.431-.136-.664-.8-.148-.688.745-.475.461.217Zm-13.306-4.537-.197.187-.157-.329.247-.116.107.258Zm7.767-.273-.055.2-.111-.208.477-.54.077.294-.388.255Zm-16.137-3.637.496.426-1.053-.032.287-.45.27.055Zm4.767-.454.317.169-.769.112.092-.29.36.009Zm2.074-.17-1.566.413.535-.37.64-.027.305-.413.086.398Zm-10.229-1.1-.286.27.917.644 2.056.365 4.871-.098.191.584-.988.424-1.015-.222-.419.406-.326-.243-.973.014-.304-.521-.619.015-.48.735-.569-.24.031-.312-.446.6-.757.112.418.394-.129.29-.111-.242-.637-.006-.538.302-.105.214.311.305.369-.436.246.208 1.031-.036.923-.534.009-.607.77-.101.138.267-.529.127.117.448-.323.471.206.024.265-.925.276-.003.102.866.311.05.181-.403.444.374.378-.795.495 1.681 1.361-.774.307-1.067.53-.398 1.258-.415.431-.397.4.08-.077 1.257.434.525.603-.026.274.438-.336.718.241.842.529.622-.2.602.572.442.625-.293.268.246-.687.53.84-.42.563.836 1.438.177.717 1.643.873.068-.6.137-.452.563 1.163-.534.616.309-.28-.463.461.228-.046.448-.123-.148-.554.42.034.232.554-.37-.062.302.437.311.76 1.613.64.024-.467-.976.273-.26 2.635-.534 1.363-1.002.326.092.105.216-.404.151.05.27.674.421.323-.121.092.637.945.697-.265 1.115-.28.15.117.392-.717.596.252.012.074.412.649.623.779.356.44 1.109.492.03.653.868-.234.397-.732.318-.351.7-.44.038.012.382-.379.166.225.531.686.027.923 1.245.345-.083 1.031 1.056 2.616 1.034 1.24-.068.323.214.963-.828.698.41-.018.575-1 .89 1.123.2.154.303-.209.644.271.172.018.854.643.542-.188 2.337.376 1.218.535.433.757 4.35.385.759-1.253.652-.596-.038-.311.791-.757.297-.031.534-.976.162-1.03-.394-1.204.148.631-1.135 1.88-1.936.367-.922-.096-1.27-.332-.201-.283.344-.554.047-1.151-.593-.695.958-.684-.083-.11-.522-.89-.154-1.652.403-.311-.293.28-.715-.775-.646.04-.97-1.068-.424-.585-1.295-.36 1.42.945.545-.197.38-.726.37-.708-.38-.502.137-1.581 1.26-.139.997-.775-.104-.705.471.12.661-.28.404-.363-.045-.16.427.123 1.05-.385-.19-.35 1.05-.431.106-.154-.302-.348.012.037.424-.674 1.106.034.053-.381.193-.502-1.109-.437.142-.754-.237-1.074.762-.286 1.26-.539-.198-.39-.857-.659-.021-.4.46-.492-.006.021.637-.378.053-.173.419-.75.154-.665.901-.582.145-.32-.516-.317.113.73-.543-.311-.272-.554.19.049.246-.378-.045.169-.237-.502.047-.501.448-.603-.676-1.517.442-.613-.392.351-.744-1.409-.089-.354-.22.203-.488-.289-.152-1.102.312-1.572-.638-1.573.457-.335-.804-.677-.305-.013-.504-1.612-.88-1.018.133-.548-1.106-.834.178-.037.32-.323.11-.354-.685-.779.53-.578-.083-.046-.658-.668-.136.258.679-.84.528.111 1.061-.557.282-.406-.193-.486.872-1.111-.205-.631.89-1.249-.143.668.534-.244.362-.824-.08-.88.302-.059-.454-1.191-.388-.797.151-.775.822-.705.139.311 1.393-.326.457.117.41-.474.4-.566.148-.625-.196-.166-.424-.44.166-.382-.19-.467.048-.087.89-2.468-.353-.818-.683-.816.229-.187-.658.44-.718-2.102-1.052-1.209-2.067-.348-.042-.44-1.666-.732-.03-.625-.441-1.622 1.384-1.48-.75.062-.344-.456-.127-.788-.863-2.046.202.41-.573.335-2.262.403-.22.766.17.188-.712 1.068-.151.603-.869.741-.098-.206-.225.379-.688-.225-1.029.32-.053.228.373 1.181-.213.367-1.844.449-.614-.2-1.16-.431-.166.059-.299-1.425-.086-.754-.59-.13-.555-.916-.447.083-.543.209-.762-.48-1.877.45-.679.575-.115.304-.566.548-.11.705-.878.624.306-.187.263.166.285 1.061-.305-1.412-.48.203-1.08 2.653-1.586 2.766-.288.554.866 1.009.14-.332.898.289.652.609.125.924-.887.64.8.732-.041-.04.457.539.278.098.427.462.08-.29-.465.702-.534.055-1.26-.224.133-.16-.219-.36.35-.019-1.272-.338.427.083.744-.665-.38-.225.22.459.038h-.412l-.25-.483.207-.682 1.203-.667.846.015-.446 1.572.44.195.194-.563-.182-.264.382-.652.467-.208-.283-.38.597.19.465-.264.148-.943.791-.426.07-.448-.415-.406-1.437 1.76-.083-.815.609-.7.988-.376 1.394-1.456 1.52-.068 1.757.306 3.216-1.059 2.231-.187 1.19-1.734 2.945-1.883 1.416-2.642 1.138-1.301.659-1.785.618-.27Zm12.075-3.907.197.946-.203-.774.006.744-.215-.468.126-.362-.615.537.104 1.476-.834 1.234-.16 1.346-.083-.6.739-2.641.024-1.05.468-.438.446.05Zm5.595-2.645-.071.753-.702.29-.329.573.305 1.133.547.673.822.26 3.376-.477.864.682.006 1.065-2.021 1.77-.019.943.76 1.411 1.157.113 1.108 1.488.733.433-.502.172-.403.759.089 1.186-.274.222-.504-.492.483.125-.145-.525-.815.273-.287-.315 1.059-.616.083-.326-.637-.113-1.206.439 1.311-.706.16-.424-.791.122-.566.575-.61-.747-.618.415-.982-.057-1.6 1.275-.692 1.192.095-.43-.745.303.105.75.142-.56.292.335.48-.356.271.34.135.505-.64.551-1.988-.943.61.17.24-1.07-.49.402.207.261-1.001.137-.96-.8-.378.269-.12-.854-1.053.474.299-.714.578.118-1.381-1.034.255-1.249 1.345-.16.474.261.788-.534-.468-.124-.126-.436.455-.151-.409.068-.416-.833-1.203.234.554-1.076-1.058.453-.062-.186.945-1.444 1.129.246-.089.65-.708-.007-.077.288.32.279.136-.413.904-.118-.409-.142.769-.38-.831-.18.056-.816-.628.249-.566-.16-.502-1.24 1.96-.284.868.424-.021.652.323.246.147-.344-.286-.913 1.127-.887.283.128-.597.904.332.11.388-.471.754 1.307-.031.836.585.217.169.513.428-.356.597.035.212-1.533-.437-.981.357.027.031-.24-.428.106.018.356-.883-.012-.403-.557-.628-.163-.452-1.329-.815.68.104.346-1.763.771.788-1.877.018-.93-1.123.672.209.97-1.508 1.183.074-.374 1.034-.874.025-1.323.532-.655.856-.548 2.791-.309Z" fill="#FDFBF5" stroke="#171619" stroke-width=".5"/><path d="m19.577 48.16-1.126.105-.733.367.81.528-.274.374-.274-.418-.446.314-1.046-.827.089-.522 1.772-.602 1.228.682Zm1.859-1.61-.348.173.443.027-.406.192.16.276-.505-.015-.154-.519.81-.133Zm-1.653.028.471.228-.44.116-.07-.745.04.4Zm5.01-1.213.332.296-4.536.33 4.204-.626Zm5.022-1.233.234.278-.948.279-.16-.17.095.194-.504.112-1.213-.062-.261.246-.517-.276-.283.333-.302-.33.982-.51 2.877-.094Zm16.392-.187.44.213-.643.068-.13.362-.67-.024.375-.536.628-.083Zm-15.1-.122.631.113.092.453-1.535-.263.812-.303Zm3.474-.75.948.14.08.296-2.308.098-.126.593-.07-.208-.034.246-.711-.035.28-.97 1.941-.16Zm8.506-.077.203.525-.332-.208.129-.317Zm.074-.32-.182.237-.172-.133.209-.4.145.296Zm-5.74-.332 1.847.326-1.179.373-1.187-.16-.253.421-.283-.083.296-.711.76-.166Zm3.392-.424 1.468.643-1.85-.418-.21.465-.374-.412.966-.278Zm9.391-1.056-.606.08.462-.5.277.04-.133.38Zm6.167-2.058-.028.347.474.27-.126.314.354.294-.16-.516 1.095 1.067 2.413.407 2.474-.552-.31-1.052 4.018-.166 2.052.839.988 1.292 1.206 2.372 1.567 1.415.874 2.446 2.415 1.651 1.117.264.871.104-.178.406.252.655-.299.356.437.303-.049.281.416-.05.061.922 1.071 1.05-.01-.28.832-.55.338.652-.277.62.17.062.52-.442.846.37.889-.593-.203-.373.544-.009.084-.522 2.403 2.129h1.262l.486-.756.877-.424.443.273.923.03 2.4 1.583 1.56.441.302-.136 2.046-.202.788.863.455.128-.061.344 1.48.75 1.622-1.385.624.442.733.03.44 1.666.347.042 1.21 2.066 2.102 1.053-.44.717.187.658.816-.228.818.682.111.735 1.289 1.344 2.244-.724 1.089.946.757-.151 1.015.551-.766.747-.064.407-.917-.208-.327 1.408.191.632-.895.208-1.019.919-1.794.83-.354.107-.077-.457-1.015.297-.354-.55-1.274-.224-1.123.213.009-.46-1.843.042-.268.119-.083.723-.926.987-.84-.091-.308.31-.261-.316-1.982.427-.216 1.835.72 1.124.105 1.052.594-.077.255.688v.074l1.527 2.559 1.11-.433-.092.617-.624.447-.041.68 1.391 2.238-.187-.02-.443-.155-.61.228-.218 1.02 1.597 1.868-.009.356.218-.053.176.148.778.335-.126.587-.634.359-1.037.083 1.031 1.165.003.083-.477.391.317.54.477.122.123.78h.175l.348.388-.197.276-.905.252-.31.406.113.631.801.152-.296 1.189h-.169l-1.142.88-.68.071-.074.261.631.267-.117.893-1.615-.095-1.059.403-2.53-.098-1.012.267.145.465-.619.528-.486.06-.104-.247-.631.318.45.916.411-.083.302.593.582.009-.745.59.025.528.676.376.019.546-.326.599-1.087.684-.067.285.255.107-.252.756.32 1.293.732.347.096.682.71.762.013 1.274.603.804-.495.125.132.278-.859.261.194.397-.28-.014.09.688.523.26-.176.522-.994-.637-.883.708-.819.066-.473-.576-1.216-.581h-.117l-1.117.143.2.566v.178l-.738 1.337-.69.133-.169.62-1.037.32-.24.383-.33-.006-.282-.463-.462.493.157.198-.255.525-.628.065.243.368-.72.027h-.126l-.6-.128-.231.504-.43-.578-.16.501-.56.012-.182.471-1.425.893.049-.531-.563-.744-.382.083-.073.285-.545-.276.283 1.298-.496-.364-.018-.57-.4-.284-.452.115.058.677-.541-.075-.56.522-.794.205.723 1.34.658-.519-.089.907-.67.341-1.253-.693-.776.201.031-.418-.541.021-.844-.608-.587-.67.726.151.163-.27-.348-.255.373-.661.993-.118.302-.395-.326-.857.301-.723-1.117-1.403.69-.498-.302-.845.345.383.461-.092-.397-.558.071-.429.954.501.222-.285-1.019-.958-.228-.83-1.101.359-.502-.478-.68.407-.354-.282.083-.634-.88.311-1.495-.104.52-1.56-.283-.548.144-.397-.378-.329 1.397-1.554-.37-.629.28-.483-.16-.323.527-.599-1.074.169-.856-.285-.726.332.376-.827-.059-.812-1.323-.736.058-.361-.258-.101.418-.368-.203-.42-1.12-.028-.175.404-.437-.146-.213-.471.398-.477-.293-.22.302-.281-.403-.691-.04-.715.409-.35-.773-.86-.409.086.496-.762-.102-.311-.47-.296-.798.139-.415-.166.028-.255-1.139.412.203-1.112-.71-.726.393.157.154-.175.17.385.424-.03-.154-1.245.336.11.467-.338-.785-.57-1.249-.411.123-.33-.267-.171.397-.187.24-1.243.4-.142.172-.445.618.178.776-.993-.056-.501.539-.504.019-.552-.271.003.003-.418-.311-.255.83-1.017-.732-.646-.923-.086-.769 1.331-.69.214.164.557-.868.498-.108.445-.858-.116-.126.344-.616.154-1.283-.287-.825.317-.443-.338-.366.119-.052-.742.255-.31-.258-.413-.047-1.892-.255-.486-.345.083-.39-.436-1.853 1.011-1.068-.403-.852.61-.068.956-.748.522-.344-.184-.705.192-1.181-.444.018.747.348.27-.105.682 1.53.587.972.69.517 1.442-.212.86.175 1.25-.505.985.511.637.948.291-.93.907-1.172.567-.068.791-.67.015-.625-.436-.582.175-.517-.22.031-.287-1.243.86-.594 1.05-.81-.075-1.082.546-1.247-.353-1.006 1.023-1.21-.468-.667-1.011 1.714-.988.699.024-.167-1.112.068-.252.459-.089-.385-.41-1.372-.002-.536-.394-.148-.48.502-.674-.025-1.135.619-.113-.496-.581.006-.486 1.176-.22-.85-.794-.23-.92-.917-.507-.886.35-.739-.074-1.846-.869-.483-1.6-1.582-.68-.843 1.323.75.32-.615 1.227.219.178-1.185.232-1.705 1.097-.19.569-.81.142-.461.659-.911.243-.366.483-2.77-.074-.646.16-.425.557-.738.045-.705-.982-.03-.504.913-1.918.013-.658-.296-.807-.45-.05-.494-.866-.388-1.183-.96 1.005-1.736-.439.003-.29-1.886-.113-1.172-.75.138-1.067-.49-.982.684.134.21-.445.811-.01-.929-.79.132-.834-.273-.356.778-.667 2.388-.169 1.234.498.75-.278 1.309.43.273-.312.33-5.195.409-.895-.099-.353 1.875-2.897.673-2.013-.313-3.365-.354-.252-.077-.525.468-1.127.467-.139-.366-.326.185-.311-.166-1.388.375-.584.332-1.83 1.237-.056-5.772-.673-.345-.886.261-.422.293-3.163.455-.691-.295-.904.43.765.656.003.21.323.245-.315-1.034-.017-.35-.84.507.588.188-.454.548.664-.08-.397.446-.033.406-.53-.523-.193-.538-.985 1.153-1.111.133-.472-.028.22 1.782-1.527 2.286-.537.305.196 2.046-.072.865.389 3.499-1.029.006-.516.006.626 2.016-.344.553-.753-.486.865 2-.364 2.25.329-.117.812.452 1.287.563-.172.496.472.227-.294.145.175-.354.148.311.475.268-.113-.24.157.147.501.911 1.791-.227.397.261-.148-.344.685-1.173.427-.668-.145.056.919.692.981.71-.258.333.154.966 1.397.862.205.43-.247.903-1.633-.059-2.02-1.625.033.296-1.95.754-.938.495-.207.606.172.899 1.2 1.584.683.773.074.295-.261-.009.311.637.344.11.46-.162.103.523 1.08.24-.205.403.276.505-.368.35-.602-.23-.442.126-.848-.33-.059-.212-.563.834-1.115h-.338l.052.255-.588-.089-.446.368-1.416-.404-.738-1.577-.025-1.248 1.231-2.974.059-.878 1.255-2.105 1.505-.365Zm-1.376 23.015.219.898.77 1.118-.072.385.874.463-.101.67.252.477.733.03.323-.465.107.438.874.6.847-.045.018-.581.554.82.797.004.046-.323.858-.691-.313-.427-.053-.783.536-.394-.52-.077-.296-.52.69-.322-.757-.81-.607.62-.984.032-.034-.097-.373-.44-.058-.275-.2-.216-1.702.012-.283-.516-.449.103-.114-.26-.437.314-1.062.1-.249-.595-.609-.012.379-.647-.404-.157-.48.261-1.018-.605-.24-.009-.154.11.477.75.083.101 2.133.96Zm-2.27-24.15.276.373-.59.104.086-.51.227.033Zm-.985-1.068.224.09-.717.55-.236-.109.384-.602.345.071Z" fill="#FDFBF5" stroke="#171619" stroke-width=".5"/><path d="m24.494 90.61.739-.044.424-.557.647-.16 2.77.074.365-.483.911-.243.465-.662.806-.139.194-.572 1.705-1.094 1.184-.235-.221-.178.615-1.227-.75-.32.843-1.323 1.578.68.483 1.6 1.847.87.738.073.886-.35.917.508.231.919.85.794-1.176.22-.006.489.495.581-.618.113.024 1.138-.504.673.15.48.536.392 1.372.003.385.41-.459.088-.067.252.166 1.112-.698-.024-1.715.988.668 1.014 1.21.468 1.006-1.023 1.25.35 1.082-.546.81.075.593-1.05 1.244-.86-.034.29.517.217.581-.175.628.436.671-.015.065-.791 1.172-.567.926-.907-.948-.288-.51-.637.504-.984-.175-1.252.215-.86-.517-1.44-.972-.691-1.53-.587.105-.685-.348-.267-.018-.75 1.182.444.707-.19.345.181.748-.521.064-.955.853-.608 1.07.4 1.853-1.008.39.436.349-.083.255.486.046 1.892.262.412-.256.312.05.74.366-.118.443.338.825-.317 1.283.287.615-.157.123-.34.859.112.108-.445.867-.498-.163-.554.69-.214.769-1.331.923.086.732.646-.83 1.02.313.252-.003.418.271-.003-.018.549-.539.504.059.501-.776.993-.622-.177-.172.444-.4.143-.24 1.242-.397.187.268.172-.123.329 1.25.415.784.57-.471.337-.335-.113.154 1.249-.425.03-.166-.386-.154.178-.394-.157.71.723-.202 1.112 1.141-.41-.027.256.415.166.797-.14.47.297.102.311-.492.762.406-.086.773.857-.41.35.04.715.403.69-.298.282.292.22-.4.477.213.471.436.146.179-.407 1.12.03.2.421-.418.368.258.1-.058.362 1.323.736.058.812-.378.827.73-.332.855.285 1.073-.169-.526.599.16.323-.28.48.373.629-1.4 1.554.378.329-.142.4.284.546-.52 1.559 1.495.104-.566.513-1.668.462.68.712-1.105 1.171-.157 1.174-.495-.012-.363.466-.773.264-.16.931-.64-.199-.473.679-.45-.213-.8.172-.338-.632.252-.898-.283-.243-.739.02-.406-.465-2.498 1.097.55 1.008.007.54.541.094-.178 1.157-.92-.107-.714.46-.351-.335-.671-.063-1.403.555-.73-.128-.341.175.092.341-.443.14-.09.468-.34-.13-.33.231-1.234 1.77.754.91 1.89-.872.587.072.283.341-.172.338.268.972.514.3-.391.305.212.652-1.218 1.195.021.421h.074l.378.403-.707.06-.539.397-1.939-.252-.59.178-.499.513.48.495-.428.685.274-.092.357.729-1.224 1.29.064.217-.388.098-.163.741.197.664-.544.035-1.44 1.694h-1.031l-.293-.62-.483.032-2.483 2.684-.123.038-.077.306.735 1.343-.84 1.447-.914-.629-.36.326-.375-.053-.043-.91-1.379-1.415.182-1.47-.175-.629-.225-.222-.81.243-.649-.893-1.07-.225.433-1.361-1.126-.433-.526.552-.591.175.48.513-.2 1.023.25.652-.66-.181-.516.712-.825.186.379.359-.167.816-.32.388-1.08.083-.154.777-.824-.202-.576.276-.003.243-1.695.563-1.166-.252-.339.623.29.486-.352.573.105.344-.474.332-2.403.474-.228-.747-.243.744-.332.326-.36-.05-.133.412-.618-.353-.508.78-.665-.599-1.138 1.23-.48.244-.846-.119.012.786-.954.186.277.294-.163.314.32.119-.08 1.011-.834.471-.88-.572-.24-.584-1.093.557.413.424-.443.537.547.166.234.415-.255.836.634.715-.065.246-.4-.101-1.51.822-.635-1.015-.603.777-.338-.302.095-.569-.428-.033-.037-.377-1.867.822-.456.634-.612.057.138-.724-.286-.305-.286.261-.345-.783-.514.145.17.667.224-.041.028.708.326.181.012.291-.406.015-.104-.653-1.13-1.049.69-1.667-.087-.542-.615-.234.2-.786-1.575-.489-.865.293-.354-.759-.382-.169.148-.305-.348-.154-.043-.454.963-.967.357.033.499-1.112-1.391-.193-.406.196.135-.175-.292-.317.277-.246-1.222-2.04-1.477-.255-.135.273.055-.753-.508-.507.194-.362-1.03-.679.212-.395.397.223.397-.386-.117-.919.723-.299.357.278.295-.794-.274-.587.388-.854-.794-.018-.686-.371-.283-.684.39-.795-1.135.142-.264-.267-1.099.395.138-.816-.501-.489-.274-.883.945-.552.455.937.437-.021.403-1.097.61-.575.649-.264.935-1.026 1.631-.682-.68-.471.83-.394-.325-.247-1.287.73-.347-.062-.286-1.415.353-.124-.277-.573 1.007-.945.895-1.747.474-.098.65-.824-.234-.744.23-.415-.387.018.344-2.18-.197-1.224-1.04-1.533-1.363-1.308.495-1.53-1.649-.545-.117-1.023.345-.282-.991-.646-.748-.018.01-.373.664-.448.025-.525-.323-.098.058-.365-.606-.447.243-.146-.262-.192.317-.38 1.013.033 1.003-.893.692.475 1.305.252-.037-.605-.502-.753-.649-.211.265-.29.985.02.843.988 1.335-.157.376.175.129.557.948.042.187.382.757.276.163-.78-.452-.317.09-.347.784.477.348-.198.387.361 1.459-.937 2.751-1.014.936.564 1.098-.925.212-.902.563-.169.05-.688-1.511-1.269-1.299-.35.133-.951.84-.146.473-1.33 1.85-.063 1.012-1.708.853-.157.667-1.364 1.037-.039.514-.456Z" fill="#FDFBF5" stroke="#171619" stroke-width=".5"/><path d="m11.576 148.473.406-.015-.012-.29-.326-.181-.028-.709-.224.042-.17-.668.514-.145.345.783.286-.261.286.305-.138.724.612-.057.456-.634 1.867-.821.037.376.428.033-.095.569.338.303.603-.777.634 1.014 1.511-.822.4.101.065-.246-.634-.714.255-.837-.233-.415-.548-.166.443-.536-.413-.424 1.093-.558.24.584.88.573.834-.472.08-1.011-.32-.118.163-.315-.277-.293.954-.187-.012-.786.846.119.48-.243 1.138-1.231.665.599.508-.78.618.353.133-.412.36.05.332-.326.243-.744.228.747 2.403-.474.474-.332-.105-.344.351-.572-.289-.487.338-.622 1.167.252 1.695-.564.003-.243.576-.276.825.202.153-.777 1.08-.083.32-.388.167-.816-.379-.358.825-.187.517-.712.658.181-.249-.652.2-1.023-.48-.513.59-.175.527-.551 1.126.432-.434 1.361 1.071.226.65.892.809-.243.224.222.176.629-.182 1.471 1.379 1.414.043.91.375.054.36-.327.914.629-.289.768.594.812-.27.67.5.312-.316 1.432-.634.516-.63-.163-.54-.549-.947.97-.333 1.112.638 1.011-.693.456.256.107-.056.344-.425.35.431.341.714-.027-.123.469.539-.03.055.308.27.024.33.786-.09.459.585.163.016.498.323.312-.25 1.138-.516-.032-.133-.32-.726.041-.283.397.523.496.08.103-.394.626-.403-.056-.474-.588-.043.297-.698.246-.08.285-.708.187-.003.281-.53.356.025.391.945.715-.222.293.173.926-.554-.552-.351.208-.625-.371-.409.842.139.427-.687.009-.578.762 1.56 1.31.277.955.357.249 1.64-.178 1.394-.756 2.819-.922 1.188.231 1.523 1.489.646 1.72-.2 1.174.782.631-.102.964.858 1.586.942-.015.148.202-.81 1.171-1.544.872.486 1.912.754 1.243-.139.877.939 2.405-.406.596 1.27.442-.24.975-.64.578.216.226.514-.43-.037.631-.932 1.204.747.86-1.92 1.74-.105.463.388-.021-.726 1.45-.178 1.966-.914 1.349-.29 1.147-.258.537-1.016.839-.135-.299-.505.252-.098-.294-.702.074-1.298-.421-.813-.697-1.47-.385-.84-.872-.275.466-.615-.199-.434.436-1.415-.925-.542.554-.612.083-.059-.37-.23.157-.502-.205.034.255-.456.137-.79-.288-.034-.525-.616-.293-.71.092-.702-.496-.551-.963-.12-1.091-1.145.124.142-.554-1.53.358-.037.377-1.295-1.367.142-.513-.274-.43.372-.566.314.285.012-.365.37-.258-.151-.27.526.018.44-.457.301-2.191-.67.16-.237-.444-1.259-.279-.028-.795-.744-.489-.083-.362.772-.338.366-.504-.508-.29.164-.955.415-.166-.108-.308-.55-.089-.145-1.367-1.046.542-.028-.299-.526-.006-.234-.267-.046-.379-.973.089-.421-.312-.234.181-.557-.866-.634-.302-.84.545.114-.406-.76.267-.228-.258-.219.629-.67-.098-.339.43-.277-.184-.554.717-.483-.228-1.243.982-.735.109-.394.522-.111-.35-.443.134-.222-.211-.074.347-.307-.077-.49.379.025.276-.52-.074-.354-.569-.88.394-.892-.489-.397.166-.447-.299-.255.157-.73-.235-.436-.601.47-.158-.089-.468.868-.753.394-1.047-.212-.391 1.498-1.323-.197-.367.394.106-.317-.762.345-.394-.234-.818.434-.555-.314.238-.803-.614-.803.347-.643-.315-.702-.854-.772.365-.206-.886-.293.071-1.24-.973-.05-.56-.258-.139.096-.771-.336-.149-.135.205-.157-.593-.27.43-.16-.943-.595-.356.271-.29-.274-.166.182-.285-.302-.205-.123-.871-.295.003.397-.386-.314-.021.13-.524.254-.039-.15-.774.538-.685-.41-.344.16-.432.149-.276.203.172.621-.315-.47-1.123.187-.424.403-.068.357-.576 1.268-.29.237-.309-.13-.483.493-.768.462-.059.532.537.025-.306.821-.237Z" fill="#FDFBF5" stroke="#171619" stroke-width=".5"/><path d="m11.078 171.045.729.235.255-.158.447.3.396-.166.893.489.88-.394.354.569.52.074-.025-.276.49-.379.307.077.074-.347.222.211.443-.134.11.35.394-.522.736-.11 1.243-.981.483.228.554-.717.277.184.338-.43.671.098.219-.629.227.258.76-.267-.113.406.84-.545.634.302.557.866.234-.181.421.311.973-.089.046.38.233.267.527.006.027.299 1.047-.542.144 1.367.551.088.108.309-.416.166-.163.955.508.29-.366.504-.773.338.084.362.744.489.028.795 1.259.278.236.445.671-.16-.301 2.191-.44.457-.526-.018.15.27-.369.258-.012.365-.314-.285-.372.566.273.43-.141.513 1.295 1.367-.009.433-.714-.009-.634.824-.941-.433-.948.424-.268-.436-.526.285-.619-.623-.421.08.172-.376-.292-.095-.336.208.167.492-.662.522-.554-1.631.136-.611-.428.092-.76-.643-.259.201-.67-.593-.64.406-.64-.394-.438.291.471.922-.52.797-1.092-.447-.806.127-.53-.664.385-.54-.148-.355-.557.068-.123-.973-.563-.264.181-.61-1.098-.623-.51-.566.064-.41-.477-.338-.059-.261.474.187.246-.468-.347-.086.052-.486-.902-.487.244-.658-2.422-1.485-.696.35-.51-.187-.213-1.735.459-.605ZM126.866 125.637l-.154-.297-.871-.13-.258-.543.385-.036.046-.266-.856-.303.33-1.23-.751.038-.006-.246.264.006.326-.756-.083-.691-.197-.611-.48-.243.13-.59-.487-1.073.967-.255-.031-1.272-.434-.38.265-.124-.222-.661.308-.35-.169-.35-.484.006-.172-.89.495-.154.071-.424.57-.29-.305-.997.886-.865-.071-.329 1.145.068 1.009-.573-.107-.177 1.72.118.341-.824.342.234.415-.133.096.335.403-.415.634.222.803-.726.283.213.619-.246-.327.474 1.065-.575.551-1.067 1.569.525 1.437-1.139.367.308.058.546.502-.294.138.582.594-.075.268.347.123-.344.415-.032-.108-.418.191.038.117.033-.006-.217.64.146.228.809.575-.264.665 1.133.689-.347.766.815-.341.751.815.355.434 1.005-.12.958-.329.024-.043.51.406.732-.548.682.262.128.092-.377.419 1.21 1.027.344-.12-.469.49.054.012-.386.831-.445-.105-.326 1.074.347-.049-.329.461-.522.551.578-.135.362.498-.317.53.418-.2.202 1.114.305.067.599.274.015.123.367.496-.468.372.041.16.448 1.222-.021.172-.216 1.456.445.504-.258.132.24.194-.24.714.029.299-.453 1.4.142 1.037-.507.246.095-.018.513.547.101.114-.653.456-.047-.219-.255.576-.412-.164-.504.49-.297-.56-.928 1.071-.035-.268-.472.397-.16.212-.697.683-.071-.212-.267.16-.341 1.492.119.631.356.474-.14 1.062.487.012.142.166.246.176-.46.904-.708 1.157-.033.136-.436 1.64-.053.126-.409.455-.231.564.26.372.656 1.255-.089.474-.765-.129-.587.652.474-.369.602.486 1.085 1.145.24 1.126.851 1.311.205.637.418.425.833-.28.964.181.916.28.169-.083.964 1.265 2.087-.975 3.371.067 1.189-.304.148-.056 1.207-.944 2.325-.271.142.043.614-.274.098-.191.957-1.52 1.678.145.413-.551 1.438-.582.044-.449-.29-.431.204-.283-.572-.357.089-1.363-.59.338-1.177.308-.238-.049-.779-1.311.539-.345-.151.647-2.025-.674-.706-.582.187-.068-.394-.643-.163.059-.73-.179.694-.741-.382-.877.519-.487-.247-.064-.349-.382-.193-.461.193-.705-.493-.289.478h-.277l.243.356-.099.385-.4.181-.015.631.474.315.809-.237.065.34-.496.229.271.175-.123.157 1.693.554-.2 1.139-.727-.11-.015.273-.892.261-.727-.332-.652.228-.185.813-2.655 1.016-.228.419-.926.237-.788-.469-.692.359-.336.516-.726-.086-.262.726.222.724-.711.056-.108.451-1.547-.243-.72.258-.271-.199-.385.489-.837-.427-1.215.641-.868-.137-.628.273.323.842-.578.703.221.424-.56.264-.578.803-1.01-.388-.486-.893-.363-.103.092.67-1.009.599-.049.815-.628.145-.243-.519-.612.006-1.019 2.627-1.12-.097-.126-.35-.905.557-1.052-.299-.219 1.817-.794.872-.757.201.105.273-2.511-1.675-.178.842-.296-.531-1.172.498-.566 1.041-.659-.578-3.145.59-.498.771.052.631-.409-.16-.53.395-.203.557-.631.024-.003.857-.553.237-.357.664.141.602-.572.009.083.673-.231.347.302.436-.302.32.265.255-.92-.119-.296-.584.369-.714-1.061-.739.114-.373.406.237-.219-.599-1.061-.053-.022-.991-.298-.477-1.637.122-.179-.457-.871.047-.021.184-.96-.845-.391.107.114-1.115-.366-.338-.296.131.08-.368-.588-.46.09-.264-.56-.103-.083-.374.72-.4.341.246-.206-.51.526-.472-.655-.652-.009-.43-.853.178-.354-.605.29-.433.861-.124-.061-.839 1.197-.727-.09-.352.376-.383.36.282-.332.293.67.632-.36.768.197.51.542-.018.394-.145.07-.608.434-.068.437.332.757-.279-.043-.219-.489.02.268-1.367.8.484.184-.75 1.25.252.03-.427 1.016-.567.062-.619-1.145-.303-.157-.658.378-.341-.144-.282-.782-.026.249-.833.554.145.437-.644-.04-.234-.652.048-.065-.937.557.311.213-.436.209.255-.065-.409.179.317.8-.115.021-.427.508-.487.566.155.256-.282.073.557.413-.106.067-.644.767-.895.529.056-.068-.282.268-.151.335.214 1.637-.282.351.202.299-.499-.594-.598-.317-1.699-.631.311-.954-.394.28-.205-.04-.543-.477-.074-.151.288-.076-1.373-.336-.095-.329.009-.249-.525-.917.261-.32-.29-.625.13-.096-.459-.39-.232-1.059.395Z" fill="#FDFBF5" stroke="#171619" stroke-width=".5"/><path d="m113.447 65.918.775-.07-.271.835.994.11.339.967.932-.365.862.892 1.138.258.083.362-.514.61.237.368.69.01.437.459 1.754.596.849-.454 1.748.424.234-.542.037 1.263 1.354-.789.126.314.646.205.474 1.758-.157.475-.576.053-.224.907.258.45-.455.816.237-.059-.065.27.351.234-.102.46.339.249-.12 1.32-.037.296-.529.323-.64-.199.2 1.578-.708 1.378.538-.281.367.21-.45.581.363.558.644-.154.477-.635.538.658-.2.157.219.279 1.169-.317-.425.264.434.329-.834 1.462.154.21-.446.279.523.246-.148.637.234.252-.431.383.487.593-.604.928-.609 1.98.523.374-.243.154.736.208-.982.507-.015.842-.385-.009-.169.474.849 1.127.268.86.741.374.899 1.363.588.137.904.818.299-.024.218-.53.354.035.222.6.889.34.077.516 1.422.107.04-.297.59-.08.225-.56.299.024 1.652.773.477.733 1.277-.157.145 1.002.664.032.059.208.597-.365.757.125-.04.382.372.063-.034.649 1.422-.015-.123.605-.216-.003.259.279.785.095.757-.421.369.062.264.578-.6.136.804 1.53-.293 1.148.329.519-.23.186.643.866-.643.175.157.555-.25.243-1.874 1.168-.575.264-.228-.81-.64-.145.006.217-.117-.033-.19-.039.107.418-.415.033-.123.344-.268-.347-.594.074-.138-.581-.502.294-.058-.546-.367-.308-1.437 1.138-1.569-.525-.551 1.068-1.065.575.327-.474-.619.246-.283-.214-.803.727-.634-.223-.403.415-.095-.335-.416.134-.341-.234-.342.824-1.72-.119.108.178-1.01.572-1.145-.068.071.329-.886.866.305.996-.57.291-.07.424-.496.154.173.89.483-.006.169.349-.308.35.222.662-.265.124.434.38.031 1.272-.967.255.487 1.073-.13.59.48.243.197.611.084.691-.327.756-.264-.006.006.246.751-.039-.33 1.231.856.302-.046.267-.385.036.259.542.87.131.154.296-.652 1.56.723-.048.083.579-.889 1.085-.293.637.194.226-.489.483-.015-.661-.447.035-.147-.471-.357.471-1.462-.525-1.449.309-.203-.712-.723-.071.006-.857-.517-.317-.582.145-.461-.815-1.813.219-.455-.172-.317.338-.517-.765-.622-.098-.046-.661-.582-.548-.615-.027-.391.427-.206-.421-.683-.205-.563.472-1.142.012-.471-.356.105-.436-.299-.545.37-.081.301-.489-.283-.13-.015-.673-.348.009-.169-.522-1.022.163-.012-.397-.48-.098.274-.739.332.255.382-.207.827-1.432.333-.151-1.185-1.097.24-.285-.551-.089-.061-1.103-1.025-.133-.492-.754-1.41.416-.018-.282-.52-.228-.597.305-.948.003-1.579-.807-.233.282-1.13.083.366-.225-.873-.217-.068-.919-.016-.095.21-.498-.93-1.15.403-.519-.683-.59-.292.086.01-.181-.105-.549h-.105l.16-.714.692.32.133-.344-.44-.237.144-.228-.701.183-.57-.64-.741.302-.145-.492-.91-.299-.21.231-1.046-.009-.6-.8-.013-1.275-.71-.762-.096-.682-.732-.347-.32-1.293.252-.756-.255-.107.068-.281 1.086-.685.326-.599-.019-.546-.676-.376-.025-.531.745-.59-.582-.009-.299-.593-.412.083-.45-.916.632-.317.104.243.487-.057.618-.527-.145-.466 1.013-.267 2.53.098 1.06-.403 1.616.095.117-.893-.631-.267.074-.26.68-.072 1.142-.88h.169l.296-1.19-.8-.15-.114-.632.314-.406.901-.252.197-.276-.348-.388h-.178l-.12-.78-.48-.119-.314-.54.477-.39-.006-.084-1.028-1.168 1.037-.083.634-.356.123-.587-.778-.335-.176-.148-.218.053.009-.356-1.597-1.868.218-1.02.61-.228.443.154.187.021-1.39-2.239.04-.678.624-.448.093-.617-1.111.433-1.527-2.559v-.074l-.255-.688-.594.077-.105-1.052-.72-1.124.216-1.835 1.981-.427.259.317.308-.311.843.092.926-.988.086-.723.268-.119 1.843-.038-.009.46 1.123-.214 1.274.225.354.549 1.015-.297.08.457.354-.107 1.794-.83 1.019-.92.895-.207-.19-.632.326-1.408.92.205.064-.407.767-.747ZM56.635 33.135l-.418.29.382.048-.191.471-.354-.492.274-.4.307.083Zm-4.31-12.391.4.062-.09.252.412.412-.597.495-.504-.444-.317-.828.388-.453.307.504Zm50.979-2.523 1.729.311 1.167.557 1.652 3.303-1.298-.32-.991.16-.037-.228h.68l-.76-.258-.462.285.391.16-.182.21-1.129-.02-.502-.235.139-.738-.292-.495-.443-.142-.822.29.486.475-.772-.445.031-1.332.375-.833.615-.776.425.07Zm-50.81-.086-.28 1.269-.36-1.557.64.288Zm6.372-.617.388.193-.28.133-.64-.285.532-.041Zm-2.181-.172-.12 1.032-.363.172.301.083-.13.267.26.3-.28-.25-.355.477-1.024.107-.548-.673-.019-.664 2.278-.851Zm-2.94-.679.392.661-.508.039-.782-.644.899-.056Zm3.561-1.992-.169.385-.345-.098.102-.278.412-.01Zm-1.437-.596-.314.601-1.23.178-.715.54-.356-.264.23-.34 1.871-.43.523-.478-.009.193Zm1.123-.881-.24.445-.529-.06.566-.66.203.275Zm-6.625 1.494-.034.267.41.113-.382.157.295.267-.744.133-1.37-1.838 1.376-1.527-.422.81.453 1.28.418.338Zm2.794-3.81 1.203.344-.073.54.317.347-.628 1.278-1.628-.015-1.668-.703-.074-.581.631-.91 1.92-.3Zm-1.714-9.666.545.178-1.363.042.089.296.526.066.25.61-1.14.57-.572.975.342 2.248 1.102.687 3.406-.31.674-.374V5.79l.874-.023.923.575.945.05.714-.438.938.302.76-.252.96.074 1.988.996 1.893-.032 1.775.738.274 1.322.459-.062.418.35.225-.199.745.243.763-1.224.526-.142.538 1.031-.006.715.603-1.124.625.006.335-.492 1.09-.614.338-.637.474-.018-.443.91.301.593 3.702 1.118 1.182 1.426.45.018.36-.62.218.267-.003-1.103 1.006.581.618 1.993.96 1.055-.061.457-.132-.626-.57.143.219.818.501-.261-.393.296.384.107-.141 3.457-1.231 1.554-1.856.946-.71-.003.636.85.939-.141.366-.297-.175-.03 3.97-.723 1.461.952-.588.664.4 1.477-.575.163-.126.533-.237-.032.283 1.023-.474.842.637-.65.37.128-.305-.17.169-.918.341-.175-.046-.4.668-1.133 1.046-.134.32-.43.545-.139 1.44.38 1.625 1.105 2.335.843 2.031 1.91 1.69-.253 2.766-2.247 1.72.065-.769.136.902.246 1.061-.305.169-.445.48-.22-.067.31.181-.176.262.208-.117.495-.969.88.049-.27-.425.012.089.28.204-.075.412 4.815-2.767 1.85-1.6 1.78-.981-.14-.216-.549-.36 1.023-.775.84.652 1.604 1.674.21.283.41-.049.64.419.077-.203 1.08 1.412.48-1.062.305-.166-.285.188-.264-.625-.305-.704.878-.548.11-.305.566-.575.115-.45.68.48 1.876-.209.762-.083.543.917.447.13.555.753.59 1.425.086-.058.3.43.165.2 1.16-.449.613-.366 1.845-1.182.213-.228-.373-.32.053.225 1.029-.378.688.206.225-.742.098-.603.868-1.068.152-.187.711-.767-.169-.403.22-.335 2.262-.41.572-.301.137-1.56-.442-2.4-1.584-.924-.03-.443-.272.348-.49-.661-.1-1.01-.96-.585-1.222-.467.276-.502-.33-.218-1.612.944-.4-.153-.846.603-.679-.597-.151.154-.3-.277-.492-.81-.456.32-.4-.049-.433.492-.163.197-.463.028-.222-.498-.247-.933.804-.794-.222-.258.308.203.202-.252.839-1.305-.101-.39 1.106-1.423-.193-.313.934-1.065 1.156-.711-.24-.061-.58-.474-.146-.028-.472-.803 2.384-1.117-.264-2.416-1.651-.874-2.446-1.566-1.415-1.206-2.372-.988-1.292-2.053-.84-4.018.167-.305-.552-.643-.22-.982-1.156-.452-1.444-.41-.43.4-.314-.418.24-.535-.892-.554-.03 1.461-.69.813.157-.154.326.258-.003.01-.243.123.23.49-.118.522-.705-.018-.196-.496-.033.388-.175-.59-.69.236-.075-.268-.002-.369-1.201-.625-.083-.701.46.074-.336-.12.341-.96-1.681.63-1.945-.033-1.652-.253-.278-.837.332-.76-.353-.69.098-.624.723-.646-.29-.837-1.186.17.625-.407-.352.357.584-.563-.736.526-1.5.28-.08-.132.344.517.216.261-.45.69-.134-.29.11.305-.587-.31.169-.41-.172-.095.22-.843-.149.246-.625 3.985-.828.984.229.973-.64.769-.98.81-.171.113-.442.582.237.261-.21-.409.121-.523-.237.065-.593-.431-.712-.483.282-.564 1.358-.273-.083.163.107-.548.302-1.03-.02-.755-.327.231-.51-.24-.406 1.345-1.12-.08-1.009.24-.922.206-.018-.443-.154.188-.394-.287.38-1.012.014-.09-.222.911-.457-.295.071-.455-1.212-1.36-.881-.148-.987-.945-.463-.077-.216.357-.232-.25-1.002-1.735-2.315-.132-1.409-1.708.045-1.908 1.147-.723-.388-.255-.552-.471-.121-.108.504-.674.444-.033 3.594-.348-.33.32-5.25 1.923-4.646.348-.19.495.216Z" fill="#FDFBF5" stroke="#171619" stroke-width=".5"/><path d="m95.833 108.959 1.046.009.21-.232.91.3.145.492.741-.302.57.64.701-.184-.145.228.441.238-.133.344-.692-.321-.16.715h.105l.104.548-.01.181.293-.086.683.59-.403.519.93 1.151-.21.498.016.095.067.919.874.216-.366.226 1.129-.083.234-.282 1.579.806.948-.003.597-.305.52.228.018.282 1.409-.415.493.753 1.025.133.061 1.103.551.089-.24.285 1.185 1.097-.333.151-.828 1.432-.381.208-.332-.255-.274.738.48.098.012.397 1.022-.163.169.522.348-.009.015.673.283.131-.301.489-.37.08.299.546-.105.435.471.356 1.142-.012.563-.471.683.205.206.421.391-.427.615.026.582.549.046.661.622.098.517.765.317-.338.455.172 1.812-.22.462.816.582-.146.517.318-.007.857.724.071.203.711 1.449-.308 1.462.525.357-.472.147.472.447-.036.015.661.489-.483-.194-.225.293-.638.889-1.085-.083-.578-.723.047.652-1.559 1.059-.395.39.232.096.459.625-.13.32.29.917-.261.249.525.329-.009.335.095.077 1.373.151-.288.477.075.04.542-.28.205.954.394.631-.311.317 1.699.594.599-.299.498-.351-.202-1.637.282-.335-.214-.268.152.068.281-.529-.056-.767.895-.067.644-.413.106-.073-.557-.256.282-.566-.154-.508.486-.021.427-.8.115-.179-.317.065.409-.21-.255-.212.436-.557-.311.065.937.652-.048.04.235-.437.643-.554-.145-.249.833.782.027.144.281-.378.341.157.658 1.144.303-.061.62-1.016.566-.03.427-1.25-.252-.184.75-.8-.483-.268 1.367.489-.021.043.219-.757.279-.437-.332-.434.068-.07.608-.394.145-.542.018-.197-.51.36-.768-.671-.632.333-.293-.36-.282-.376.383.09.353-1.197.726.061.839-.861.125-.29.432.354.605.853-.178.009.43.655.653-.526.471.206.51-.341-.246-.72.4.083.374.56.104-.09.264-1.932 1.002v-.389l-.892-.501-.136.273-.394-.128.216.258-.48-.094-.49.385-.117-.19-1.634.442-.609-.457-.437.086-.221.433-.745.312-.028-.623-.815-.142.074-.875-.357-.053-.428.358.151-.352-.594-.374-.006-1.468.298.071.108-.234-.194-.353-1.668-.281.022.296-.502.065.016.525-.397.042-.219.409-.077-.282-.769.187.009.881.366.548-.175.901.52 1.181-.452.258.289.453-.292-.024.156.911-.347.37.178.143h-.08l-.101.599-1.105-.724-.095.59-.284.095.127-.32-.708-.145-.249-.419.48-.904-.391-.667-.391.119-.052-.519-.517.038-.071.401-.806.231-.142-.475-.849-.157.08.472-.252.047-.96-1.316-.391.103-.148.057-.332.193-.296-.475-.274.252-.59-.133-.527.385-.375-.157-.619.786-.753-.187-.056.546.299.044-.25.697.511.154.566.661.634.048.053.361h.107l.668.116.022.91-.471.196-.419-.412-.624.302-.742-.29-.034 1.177-.255.198-.33-.216h-.101l-.705-.531-.578.205-.431-.211-.2-.453.265-.104-.243-.415.181-.246-.323.006.252-.629-.237-.442.151-.765-.748-.124-.335-.771-.237-.051-.345.46-.055-.285-.4.134.006-.593-.218.053h-.145l-.412-.833-1.12.231-.21-.442.357-.498-.618-.189.209-.223-.268.036-.606-.798-.135-.845-.551.009-.908-.575-.468.059-.009-.59-.455-.279-.093-.409-.48.071-.077.267-.48-.281-.16.281-.674-.622-.738.824.034.273-.603.308-.062-.388.443-.789-.474-1.628.237-.379.653.026-.56-1.441-1.05-.157-.92.27-.092.314.37.457-.155.353-1.637-.323.052-.887.86-.709-.284-.341.621-.996-.03-.495-.33-.101.08-.45.542.011-.19-.771.178-.643.437-.32.126.044.31.137.176-.338.413.077.215-.546-.326.131.021-.519.742-.501-.025-.232-.23.024.061-.326-.757-.64-.79.412.316-.709-.455-.03-.21.276-.07-.56 1.212.231.24-.267.096.178.667-.216-.397-.134-.043-.548-.418-.418.387-.946 1.244.273.329-.193.535.528 1.133-.451-.222-.323.428-.223-.188-.275-1.265-.73.259-.281-.179-.469.576-.952-1.08-.687.907-.416.647 1.207.249-.385-.188-.768.687-1.038-.81-.202-.59-.59-.336.137-.188-.403-.51.163-.868-.335.178-.496-.6-.317.163-.753-1.63-.178-.065-.477-.585-.205.178-.376-.458-1.047.061-.632 1.425-.889.179-.471.56-.012.16-.501.43.575.234-.504.6.127h.124l.72-.026-.243-.371.627-.065.256-.525-.157-.199.465-.492.283.463.329.006.243-.383 1.037-.32.17-.62.689-.133.738-1.338v-.18l-.2-.567 1.117-.142h.117l1.212.581.474.578.822-.068.883-.709.994.638.175-.522-.526-.261-.086-.688.28.015-.194-.4.856-.261-.133-.279.496-.124Z" fill="#FDFBF5" stroke="#171619" stroke-width=".5"/><path d="M61.48 281h-1v4c-.587.333-1.447.633-2.58.9-1.12.253-2.333.38-3.64.38-2.493 0-4.447-.653-5.86-1.96-1.413-1.32-2.12-3.353-2.12-6.1 0-2.813.7-4.86 2.1-6.14 1.413-1.28 3.427-1.92 6.04-1.92 1.267 0 2.453.133 3.56.4 1.107.267 1.94.567 2.5.9v4.78h-5v-.94c0-.56-.12-.96-.36-1.2-.227-.253-.593-.38-1.1-.38-.507 0-.88.127-1.12.38-.227.24-.34.64-.34 1.2v5.84c0 .56.113.967.34 1.22.24.24.613.36 1.12.36.507 0 .873-.12 1.1-.36.24-.253.36-.66.36-1.22V281H54.4v-2.98h7.08V281Zm.565 5v-3.28h1v-9h-1v-3.28h13.5v6.04h-4.48v-2.76h-2.42v3.16h1.76v2.28h-1.76v3.56h2.42v-3.16h4.48V286h-13.5Zm14.257-3.28h1v-9h-1v-3.28h9.18c1.72 0 3.034.353 3.94 1.06.907.707 1.36 1.853 1.36 3.44 0 .893-.18 1.667-.54 2.32-.36.653-.873 1.107-1.54 1.36l.02.2c1.28.2 1.92.987 1.92 2.36v1.54h.94V286h-6.34v-4.7c0-.52-.08-.913-.24-1.18-.146-.267-.386-.447-.72-.54-.32-.093-.78-.14-1.38-.14v3.28h1.32V286h-7.92v-3.28Zm7.68-5.72c.387 0 .674-.1.86-.3.2-.213.3-.54.3-.98V275c0-.44-.1-.76-.3-.96-.186-.213-.473-.32-.86-.32h-1.08V277h1.08Zm30.376-3.28h-1v9h1V286h-7.56v-3.28h.96v-7l-3.4 10.28h-2.96l-3.5-10.18v6.9h.96V286h-6.56v-3.28h1v-9h-1v-3.28h9.16l2.08 6.24 2-6.24h8.82v3.28Zm15.472 9h.8V286h-7.84v-3.28h1.2l-.32-1.6h-2.72l-.32 1.6h1.2V286h-6.84v-3.28h.8l3.38-12.28h7.28l3.38 12.28Zm-8.44-3.72h1.84l-.82-3.98h-.2l-.82 3.98Zm21.393-8.56h6.56v3.28h-1V286h-5.62l-5.86-9.02v5.74h.96V286h-6.56v-3.28h1v-9h-1v-3.28h7.22l5.26 8.02v-4.74h-.96v-3.28Zm16.068 0h6.14v3.28h-.8l-3.86 6.92v2.08h1V286h-7.6v-3.28h1v-2.08l-3.98-6.92h-.8v-3.28h7.74v3.28h-.7l1.18 3.1h.2l1.18-3.1h-.7v-3.28Z" fill="#FDFBF5"/><path d="M47.4 309.72h1v-9h-1v-3.28h9.18c1.667 0 2.967.34 3.9 1.02.933.68 1.4 1.653 1.4 2.92 0 .787-.187 1.453-.56 2-.373.533-.813.94-1.32 1.22a5.153 5.153 0 0 1-1.44.54v.2c.947.093 1.8.393 2.56.9s1.14 1.413 1.14 2.72c0 1.4-.527 2.427-1.58 3.08-1.053.64-2.42.96-4.1.96H47.4v-3.28Zm7.68-5.72c.387 0 .673-.1.86-.3.2-.213.3-.54.3-.98V302c0-.44-.1-.76-.3-.96-.187-.213-.473-.32-.86-.32H54V304h1.08Zm.14 5.72c.387 0 .673-.1.86-.3.2-.213.3-.54.3-.98v-.88c0-.44-.1-.76-.3-.96-.187-.213-.473-.32-.86-.32H54v3.44h1.22Zm7.688 3.28v-3.28h1v-9h-1v-3.28h13.5v6.04h-4.48v-2.76h-2.42v3.16h1.76v2.28h-1.76v3.56h2.42v-3.16h4.48V313h-13.5Zm14.258-3.28h1v-9h-1v-3.28h9.18c1.72 0 3.033.353 3.94 1.06.906.707 1.36 1.853 1.36 3.44 0 .893-.18 1.667-.54 2.32-.36.653-.874 1.107-1.54 1.36l.02.2c1.28.2 1.92.987 1.92 2.36v1.54h.94V313h-6.34v-4.7c0-.52-.08-.913-.24-1.18-.147-.267-.387-.447-.72-.54-.32-.093-.78-.14-1.38-.14v3.28h1.32V313h-7.92v-3.28Zm7.68-5.72c.386 0 .673-.1.86-.3.2-.213.3-.54.3-.98V302c0-.44-.1-.76-.3-.96-.187-.213-.474-.32-.86-.32h-1.08V304h1.08Zm8.316 9v-3.28h1v-9h-1v-3.28h8.44v3.28h-1.84v9h1.8v-1.84h3.98V313h-12.38Zm13.066 0v-3.28h1v-9h-1v-3.28h7.6v3.28h-1v9h1V313h-7.6Zm19.919-15.56h6.56v3.28h-1V313h-5.62l-5.86-9.02v5.74h.96V313h-6.56v-3.28h1v-9h-1v-3.28h7.22l5.26 8.02v-4.74h-.96v-3.28Z" fill="#EA346C"/></svg>