<svg width="189" height="330" fill="none" xmlns="http://www.w3.org/2000/svg"><path d="M73.48 300h-1v4c-.587.333-1.447.633-2.58.9-1.12.253-2.333.38-3.64.38-2.493 0-4.447-.653-5.86-1.96-1.413-1.32-2.12-3.353-2.12-6.1 0-2.813.7-4.86 2.1-6.14 1.413-1.28 3.427-1.92 6.04-1.92 1.267 0 2.453.133 3.56.4 1.107.267 1.94.567 2.5.9v4.78h-5v-.94c0-.56-.12-.96-.36-1.2-.227-.253-.593-.38-1.1-.38-.507 0-.88.127-1.12.38-.227.24-.34.64-.34 1.2v5.84c0 .56.113.967.34 1.22.24.24.613.36 1.12.36.507 0 .873-.12 1.1-.36.24-.253.36-.66.36-1.22V300H66.4v-2.98h7.08V300Zm16.564-7.28h-1v9h1V305h-7.56v-3.28h.96v-3.3h-2.8v3.3h.96V305h-7.56v-3.28h1v-9h-1v-3.28h7.56v3.28h-.96v3.04h2.8v-3.04h-.96v-3.28h7.56v3.28Zm15.477 9h.8V305h-7.84v-3.28h1.2l-.32-1.6h-2.72l-.32 1.6h1.2V305h-6.84v-3.28h.8l3.38-12.28h7.28l3.38 12.28Zm-8.44-3.72h1.84l-.82-3.98h-.2l-.82 3.98Zm21.394-8.56h6.56v3.28h-1V305h-5.62l-5.86-9.02v5.74h.96V305h-6.56v-3.28h1v-9h-1v-3.28h7.22l5.26 8.02v-4.74h-.96v-3.28Zm22.007 12.28h.8V305h-7.84v-3.28h1.2l-.32-1.6h-2.72l-.32 1.6h1.2V305h-6.84v-3.28h.8l3.38-12.28h7.28l3.38 12.28Zm-8.44-3.72h1.84l-.82-3.98h-.2l-.82 3.98Z" fill="#E55933"/><path d="m149.768 103.54-.26-.04-.222-.077-.978-.564-.208-.075-.236-.042-.227.01-.431.098-1.029.428-.15.112-.145.159-.077.281-.028.232.164.18.126.18.073.21-.007.244-.192.337-.274.734-.344.672-.842 1.09-.169.351-.072.318.047.236.07.225.091.185.236.351.461.414.145.152.096.192.054.227-.054.252-.149.208-.365.138h-.274l-.234-.072-.377-.211-.208-.058-.243.079-.237.188-.449.694-.311.651-.456 1.324-.059.232-.025.243v.231l.058.22.117.169.162.126.795.382.157.145.103.184.028.225-.113.213-.201.175-.43.145-.3.073-.259.133-.171.18-.091.347.025.252.157.435.087.466v.257l-.087.468.026.213.098.143.164.124.194.084.456.131.478.059.21-.007.983-.141.919-.234 1.266-.154.266.019.227.063.209.089.182.114.145.152.449.695.087.215.058.489-.018.255-.04.232-.166.168-.267.117-1.303.056-.267.05-.215.133-.124.276-.021.255.276 1.729.098.178.033.187.005.227-.059.243-.393.241-.683.185-1.689.194-.737.007-.468-.047-.508-.374-.914-.894-.384-.475-.601-.582-1.474-.95-.672-.292-.893-.291-1.027-.187-.866.019-1.869.655-.33.192-.43.304-.625.573-.199.314-.072.295.039.233.003.248-.04.234-.452.749-.089.229-.126.185-.332.105-.241.134-.18.309-.265.276-.334.22-.711.142-.407.01-.321-.047-.217-.068-1.004-.468-.222-.072-.274-.007-1.465.491-.386.044h-.318l-.465-.098-.248.126-.279.276-.837 1.839-.889.896 2.395.637.829.402 5.853 4.719.498.599.492.781 1.808 4.256.115.453.18 1.526.135.428.103.225 1.03 1.644.337.356.386.299.416.176.449.107.943.143.311.11.496.313.234.319.157.432.058.539 1.006 2.786 2.77 4.772.496 1.226.059.237.131 2.519.077.353.182.508.169.269.185.192 1.551.781 1.148.323.286.145.332.206.529.452.241.287.157.265.189 1.261-.007.559-.171 1.289-.709 2.244-.051.496v.245l.194 1.329.183 2.267-.103.751-.113.178-.318.727-.267.843-.079.477v.358l.072.213.176.98.098 1.2-.04.669-.077.442-.105.22-.358.506-.59.575-.161.124-.744.7-.201.341-.227.496-.391 1.104-.119.548-.026.416.138.454.19.377.128.159.157.133.183.108.638.224.405.192.328.255.273.302.227.363.169.395.241 1.815-.026.48-.07.337-.131.166-.143.133-1.656.967-.171.131-.566.584-.124.16-.143.147-.124.168-.138.15-.122.164-.199.487-.664 2.489-.131.79-.019.532.124.154.216.061 1.239-.089.216.04.208.07.189.11.143.145.103.187.117.447.171.98.065.227.07.197.223.36.295.29.533.337.189.201.183.281.171.594.018.384-.032.348-1.215 3.697-.098.194-.227.353-.131.157-.135.142-.672.499-.709.416-1.885.725-.188.239.227.447.286.809.089.744-.206.534-.304.557-.145.753.044.711.262.438 1.982 1.506.748.229 2.883-.072.732.101.536.315.891.742 1.46.861.171.299.063.342-.11 3.869.325-.638.131-.183.292-.316.789-.582.739-.405.409-.133.424-.084.288-.017.032-.007 3.416.159 3.28.74.58.285.347.264.423.45 1.479 4.047.472.587.468.353.587.37.906.351.601.299.344.239.164.131.142.157.124.206.073.292-.117.241-.131.157-.84.25-.889.608-.002.003 2.096.152 8.022-.915 1.701-.59 1.333-1.253.365-.787.435-1.972.061-.872.194-.826 1.037-2.066.489-.739 2.133-2.298 1.441-1.123 1.905-1.029.269-.101.023-.007h.002l.108-1.485-.496-.669-3.479-.398-.578-.297-.451-.524-.55-.856-.323-.372-.316-.171-.313-.131-.335-.246-.65-.933-1.1-3.388-3.205-.014-.858-.231-.543-.412-1.369-1.652-1.055-.671-2.075-1.027-.887-.91-.664-1.023-.503-1.003-.262-1.039.059-.87.016-.255.264-.541.295-.395.026-.396-.538-.526-.382-.08-1.172.038-.395-.04-.37-.671-.592-.438-.549-.505-.237-.884.365-2.136-.042-.686-.355-.683-.613-.583-.735-.407-.721-.152-.278-.372-1.214-2.271-.515-.396-.402-.241-.136-.404.283-.892.887-1.483.098-.714-.494-.896-1.195-.926-.482-.648.613-.19.618-.046 1.771-.464.542-.301.803-1.458.03-1.841-.187-1.907.145-1.658 1.011-2.539.39-1.965.562-1.556.051-.917-.673-2.777-.276-.369-1.547.573-.835.15-.763-.103-1.326-1.177-.676-1.865-.208-2.089.159-2.461.152-.522.262-.454.425-.414.55-.248.674-.184.569-.293.238-.571-.012-1.151.131-1.315.539-.863 1.214.206-.117-.828.091-2.218-.381-2.424.035-2.54-.031-.206-.411-2.808.032-1.579-.021-.814-.386-1.584-.156-1.995-.223-1.041.208-.302.333-.255.229-.55-.075-.587-.29-.363-.325-.316-.173-.447.046-.547.218-.166.321-.04.35-.168 1.4-1.264.704-.463 1.855-.826.671-.421.319-.645-.167-1.044-.156-.145-.503-.082-.164-.145-.028-.201.035-.426-.103-.622.012-.487-.092-.44-1.609-1.342-.543-1.608-.734-1.562-2.754-1.299-1.095-.793-1.015-.943-.716-.833-1.682-1.151-1.671-2.346-1.233-2.665-.266-1.56h-.031l-1.637-.227-.26.016-1.338.272-.253.023h-.262Z" fill="#171619" stroke="#fff" stroke-width=".5"/><path d="m166.385 230.646.003-.002.889-.608.84-.25.131-.157.117-.241-.073-.293-.124-.205-.143-.157-.163-.131-.344-.239-.602-.299-.905-.351-.587-.37-.468-.353-.473-.587-1.478-4.048-.424-.449-.346-.264-.58-.286-3.28-.739-3.416-.159-.032.007-.288.016-.424.085-.409.133-.739.405-.789.582-.292.316-.131.183-.325.638-1.82 2.073-.644.606-.554.344-.237.079-.332.024-.262-.04-.227-.089-.168-.122-.438-.416-.266-.304-.555-.859-.131-.173-.182-.178-1.154-.496-.182-.107-.339-.246-.3-.278-.243-.33-.559-1.172-.157-.18-.267-.171-.542-.052h-.583l-.494.099-.306.091-1.516 1.027-.498.243-.326.103-.145.017-.142-.059-.286-.337-.208-.161-.269-.145-.456-.164-.246.049-.159.154-.688 2.466-.166.251-.318.259-1.769.721-.224.145-.162.196-.465.978-.452 1.631-.402.823-.108.174-.126.163-.215.213-.302.239-.59.353-.386.105-.323.024-.442-.15-.358-.217-.159-.134-.145-.147-.22-.157-.276-.124-.484-.07-.271.065-.225.115-.798.962-.248.189-.355.22-.719.349-.409.138-.342.079-1.05-.04-.423-.063-.763-.295-.199-.093-.648-.236-.386-.216-.145-.149-.082-.19v-.728l-.264-.163-.471-.056-1.813.138-.423.077-.36.119-.103.056-.11.082-.066.133-.047.131-.18.927-.004.363.018.231.033.185.096.321 1.56 3.083.623.94.362.288.417.194.227.071.657.341.58.412.267.276.189.243.665 1.495.639 2.251h.002l.26-.129 1.902-.239 9.016-2.924.667-.061.369-.131.246-.196.547-.55.197-.117 3.341-1.128.678-.692.466-.763.587-.622 1.635-.47 1.156-1.081.643-.435 2.812-.763.798-.571.353-.124 1.016-.044.21-.122.213-.246.51-.203 1.002-.234 1.806-.096 12.967.947ZM50.244 273.765l1.123-.044.566-.229 2.896-.37.594-.241.632-.603 1.016-1.449.671-.594 3.221-1.446 2.885-.823.393-.033.37-.072.02-.199-.074-.281.093-.309 1.212-1.34.513-.391 2.877-1.425.173-.157.265-.301.096-.335-.293-.634.066-.341.52-.415.715-.177.74.053.603.279.03-.019-.002-.009-.36-2.737.016-.45.166-1.029.138-.473.183-.43.823-1.532.262-.316.16-.129.172-.121.183-.099.187-.075.419-.121.215-.033.58.009.232-.023.222-.049.185-.07.175-.103.171-.117.15-.143.517-.641 1.256-.978.133-.145.02-.232-.13-.32-.432-.498-.276-.262-1.699-1.086-1.373-1.245-.538-.627-.145-.243-.133-.316-.293-.933-.15-.311-.182-.241-.353-.342-.26-.175-.262-.136-.424-.166-.344-.255-.15-.15-.673-.814-.271-.739-.127-.496-.018-.246.018-.253.087-.488.13-.45.1-.191.133-.153.184-.095.195-.059.18-.105.124-.155.21-.341.052-.173-.021-.19-.047-.201-.4-.613-.534-.573-.561-.489-.756-.428-.4-.176-.449-.145-.515-.086-1.01-.019-.246-.047-.218-.077-.198-.103-.485-.393-.192-.105-.217-.089-.26-.038-.255-.011-.484.054-.43.116-1.4.557-.224.031-.234-.017-.204-.22-.17-.369-.145-.849-.014-.445.04-.381.266-.679.23-.905.053-.463-.033-.845.028-.25.073-.222.105-.181.131-.163.29-.295.117-.157.017-.22-.092-.252-.309-.241-.538-.244-.166-.175-.1-.262-.038-.454.054-.646.17-.76.027-.25-.094-.377-.215-.438-.571-.79-.316-.356-.267-.232-.212-.084-.983-.238-.215-.096-.192-.108-.756-.587-.14-.138-.117-.134-1.904-2.758-.793-.826-.171-.114-.162-.131-.638-.335-1.322-.554-.18-.099-.148-.114-.154-.192-.454-1.132-.138-.258-.421-.451-.351-.232-.861-.292-.227-.049-.337-.115-.685-.323-1.235-.828-.162-.168-.318-.529-.117-.335-.066-.271-.053-.545.025-.531.078-.506.063-.222.2-.25.328-.265.714-.386 1.144-.46.517-.368.686-.634.299-.419.213-.629-.976.042-.323-.047-.26-.114-.259-.295-.129-.248-.093-.241-.185-.678-.084-.206-.333-.524-.15-.143-.172-.122-.204-.091-3.081-.716-.379-.187-.108-.189-.051-.218-.012-.257.059-.522.802-2.386v-.23l-.02-.219-.031-.141-.054-.168-.12-.15-.2-.129-.333-.054-.332.052-.9.309h-.321l-.262-.061-1.294-.798-.407-.182-.213-.063-.248-.012-.231.11-.225.203-.227.487-.108.337-.425 2.952-.117.463-.157.44-.201.424-.134.206-.543.526-.159.11-.379.185-.222.065-.264.026-.3-.002-.374-.045-.23-.149-.1-.106.129-1.01-.328-.012-.379-.192-.55-.4-.467-.262-.213-.068-.248-.047-1.156-.058-.234-.045-.236-.098-.197-.182-1.864-3.973-.176-.196-.255-.185-.489-.218-.84-.245-.205-.085-.204-.128-.199-.194-.222-.302-.173-.447-.18-.849-.164-.232-.267-.22-.552-.269-.39-.098-.354-.045-1.588.131-.543-.004-.463-.12-.192-.098-1.643-1.261-.393-.189-1.137-.307-.206-.107-.168-.131-.13-.213.02-.297-.042-.354-.103-.409-.283-.676-.105-.428-.045-.361.03-.257.061-.229.342-.807.045-.223-.01-.236-.13-.444-.085-.199-.063-.222-.04-.232-.019-.751-.07-.271-.65-1.446-.209-.894-.998-1.853-.47-.536-.62-.547-1.276-.707-.631-.259-.461-.105-.454.093-1.59.653-.219.054-.236.009-.524-.051-.264-.103-.25-.143-.321-.253-.19-.196-.147-.187-.442-.796-.285-.861-.436-2.218-.04-.142-.516.322-4.848 8.338-.704 1.631-.059 1.53.183.428.526.679.567 1.097.098.281-.826 2.323-.227.276-.774.428-.305.444-.058.712 3.317 14.935.499.606.121.15 1.238 1.132.894 2.358 1.275 7.047.61 1.511 1.617 2.966.512 1.53.108 1.526-.41 4.819 2.728-.234-.423 2.639.227 1.093.992.554.823-.103 1.366-.828.684-.274 2.994.775.538.437.33.552.16.683.097 2.211.747 3.02 1.146 2.693.18.758-.107.737-.417.531-.557.103-1.417-.26-.274 2.611.12.585.584.845.187.486-.02.361-.179.882.033.386.133.145.555.475.23.271-.403.793-.601.428-.964.141-1.673-.066h-.002l-.908.414-1.51.241-1.166.489.112 1.158-.459.138-.86.363-.555.077-.225-.159-.514-.744-.25-.248-.908-.267-3.007-.021-.477.073-.39.154-.293.075-.183.695.667.152 5.83 1.79 6.055 1.064 5.481.417 6.918 2.353 7.11 1.467 4.363 1.708.232.257.184.323.073.309.17.374.405.243.887.377 1.79 1.432.393.414-.045.194.473.047.636.194.34.049.545.152.098.382-.045.472.12.433.304.278.255.056Z" fill="#171619" stroke="#fff" stroke-width=".5"/><path d="m142.382 171.451-.351-.066-.496-.199-.921-.477-.424-.164-.468-.117-10.621-.414-2.414.433-.756.269-.323.253-.292.287-.831 1.051-.267.269-.517.428-.503.304-2.089.702-.47.206-.316.187-.288.295-.133.21-.461.513-.397.119-5.615.105-.639.134-.473.409-7.551 10.584-.347.297-.269.168-.215.073-3.032.426-.92.341-1.02.487-.427.304-.272.267-.164.416-.114.459-.024.25.014.248.047.229.08.204.213.36.257.328.295.29.982.76.148.138.135.159.227.346.188.386.109.45.012.222-.014.145-.15.274-.269.339-1.179 1.174-.236.34-.1.189-.202.278-5.449 5.65-1.8 2.838-.64 1.692-.489 1.845-.095.576-.11.325-.232.473-.185.255-.173.196-.325.253-.94.538-.085.171.066.133.128.155.11.173.075.213.026.241v.259l-.08.52-.1.332-.475.807-.103.232.03.187.066.17-.028.41.098.136.183.053.177.122.108.171-.014.262-.157.145-.52.147-.142.166-.07.237-.045.25-.292.931-.12.269-.357.597-.319.877-.04.292v.036l-.053.229-.257.554-.056.197.014.178.084.128.152.005.178-.033.206.012.15.098.13.152.017.571-.763 1.502 1.378.732 1.233.461.199.176.114.191 1.31 2.848.613 1.055.223.243.103.077.266.07.382.035 3.626-.051.302.033.388.082.627.208.325.178.412.301.274.092.379.032 1.04-.126.515-.115.475-.06.821.082 4.085.891.215.089.485.121.898.007 7.096-.57 1.125.18 1.888.737-.096-.321-.033-.185-.018-.231.004-.363.18-.926.047-.131.066-.134.11-.082.103-.056.36-.119.423-.077 1.813-.138.471.056.264.164v.727l.082.19.145.149.386.216.648.236.199.094.763.294.423.064 1.05.039.342-.079.409-.138.719-.349.355-.22.248-.189.798-.962.225-.114.271-.066.484.07.276.124.22.157.145.147.159.134.358.217.442.15.323-.023.386-.106.59-.353.302-.239.215-.212.126-.164.108-.173.402-.824.452-1.63.465-.978.162-.197.224-.145 1.769-.72.318-.26.166-.25.688-2.466.159-.155.246-.049.456.164.269.145.208.161.286.337.142.059.145-.017.326-.103.498-.243 1.516-1.027.306-.091.494-.098h.583l.542.051.267.171.157.18.559 1.172.243.33.3.278.339.246.182.108 1.154.496.182.177.131.174.555.858.266.304.438.417.168.121.227.089.262.04.332-.023.237-.08.554-.344.644-.606 1.82-2.073.11-3.869-.064-.342-.17-.299-1.46-.861-.892-.742-.535-.315-.733-.101-2.882.072-.748-.229-1.982-1.506-.262-.438-.044-.711.145-.753.304-.557.206-.534-.089-.744-.286-.809-.227-.447.188-.239 1.885-.725.709-.416.671-.499.136-.142.131-.157.227-.353.098-.194 1.215-3.697.032-.348-.018-.384-.171-.594-.183-.281-.189-.201-.534-.337-.294-.29-.223-.361-.07-.196-.065-.227-.171-.98-.117-.447-.103-.187-.143-.145-.189-.11-.208-.07-.216-.04-1.24.089-.215-.061-.124-.154.019-.532.131-.79.664-2.49.199-.486.122-.164.138-.15.124-.168.143-.147.124-.16.566-.584.171-.131 1.656-.967.143-.133.131-.166.07-.337.026-.48-.241-1.815-.169-.395-.227-.363-.274-.302-.327-.255-.405-.192-.638-.224-.183-.108-.157-.133-.128-.159-.19-.377-.138-.454.026-.416.119-.548.391-1.104.227-.496.201-.341.744-.7.161-.124.59-.575.358-.506.105-.22.077-.442.04-.669-.098-1.2-.176-.98-.072-.213v-.358l.079-.477.267-.843.318-.727.113-.178.102-.751-.182-2.267-1.975-.7-.28-.016-.3.026-.645.276-.758.456-.613.253-.234.054-.293.007Z" fill="#171619" stroke="#fff" stroke-width=".5"/><path d="m53.917 215.812-.218-.255-.191-.505-.62-3.278.088-.269.124-.215.143-.147.084-.19.04-.243-.065-.613.016-.272.068-.229.19-.398.06-.205.023-.22-.03-.195-.086-.297-.503-.299-1.942-.091-.213.629-.3.419-.685.634-.517.367-1.144.461-.714.386-.327.264-.201.251-.063.222-.078.505-.025.531.053.545.066.272.117.334.318.529.161.168 1.236.829.685.322.337.115.227.049.86.293.352.231.42.452.139.257.454 1.132.154.192.148.115.18.098 1.322.555.638.334.162.131.17.115.794.826 1.904 2.758.117.133.14.138.756.588.192.107.215.096.983.239.212.084.267.232.316.355.57.791.216.437.094.377-.026.25-.17.761-.055.645.038.454.1.262.166.176.538.243.31.241.09.253-.016.22-.117.156-.29.295-.13.164-.106.18-.073.222-.028.251.033.844-.054.463-.23.906-.266.678-.04.382.015.444.145.849.17.37.204.22.234.016.224-.03 1.4-.557.43-.117.484-.054.255.012.26.037.217.089.192.105.485.394.198.102.218.078.246.046 1.01.019.515.087.45.145.4.175.755.428.561.489.534.573.4.613.046.202.022.189-.052.173-.21.342-.124.154-.18.106-.195.058-.185.096-.133.152-.098.192-.131.449-.087.489-.019.253.02.245.126.496.271.74.674.814.15.149.343.255.424.166.262.136.26.176.353.341.182.241.15.311.292.934.134.316.145.243.538.627 1.373 1.245 1.699 1.085.276.262.432.498.13.321-.02.231-.133.146-1.256.977-.517.641-.15.143-.17.117-.176.103-.185.07-.222.049-.232.024-.58-.01-.215.033-.419.122-.187.075-.183.098-.173.122-.159.128-.262.316-.823 1.532-.183.431-.138.473-.166 1.029-.016.449.36 2.737.002.01v-.003l.711-.51.948-.358 2.924-.416 1.523-.746.78-.253.425-.021.868.054.426-.033.456-.185.973-.58.452-.126 2.735-.082.86-.178 1.664-.753.859-.506.374-.365.444-.62 4.385-1.89.671-.18.693-.061.517-.428.334-.094.152.382.213.376.498.021 1.011-.257 1.039-.072.397-.138.286-.363.615.547.964.042 3.126-.456.631-.397.999-1.18 2.454-2.016.538-.201 2.174-1.526.348.599.698-.224.68-.517.309-.305.503-.004 2.939-.728 1.506-.926.566-.587.22-.651.328-.475 3.088-2.59.515-.25-.639-2.251-.664-1.494-.19-.244-.267-.276-.58-.412-.657-.341-.227-.07-.417-.194-.362-.288-.623-.941-1.56-3.083-1.888-.737-1.125-.18-7.096.571-.898-.007-.485-.122-.215-.089-4.085-.891-.821-.082-.475.061-.514.114-1.041.127-.38-.033-.273-.091-.412-.302-.325-.178-.627-.208-.388-.082-.302-.033-3.626.052-.382-.035-.266-.071-.103-.077-.223-.243-.613-1.055-1.31-2.847-.114-.192-.2-.176-1.232-.461-1.378-.732-.05.215-.053.078-.091.093-.288.197-.068.201-.04.206-.053.147-.11-.019-.129-.138-.129-.07-.22.049-.344.246-.196.089-.218.07-.224.002-.18-.032-.117-.216-.087-.212-.065-.239-.092-.192-.168-.103-.283.038-.234.058-.239-.009-.224-.089-.281-.213-.96-.253-.338.005-.244.065-.14.141-.19.082-.212.042-.242.009-.797.148-.145.159-.117.166-.129.124-.37.061-.17.07-.192.061-.468-.012-.407.089-.082.138.026.171.065.173.019.201-.239.566-.112.161-.178.078-.203-.019-.377-.131-.384-.178-.671-.395-.162-.274-.014-.208.169-.103.196-.026.169-.049.082-.133-.003-.195-.098-.222-.173-.234-.33-.323-.248-.152-.678-.124-.4-.133-.23.028-.21.049-.227.021-.452-.014-.39.117-.241.005-.337-.124-.522-.028-.447.082-.947.065-.466.094-.288-.007-.213.077-.27.016-.382-.086-.634-.332-.356-.141-.28-.164-.202-.332-.206-.203-1.146-.464-.46-.021-.59-.124-.148-.131-.124-.25-.145-.157-.907-.458-.197-.169-.07-.304-.005-.213.012-.147.051-.243.061-.19.007-.203-.084-.19-.57-.26-.44-.042-.2.026-.154.08-.253.252-.156.099-.197.072-.28.002-.342-.056-.534-.259-.273.011-.183.101-.103.175-.126.141-.199.009-.264-.077-.382-.346-.683-.868-.154-.155-.166-.056-.183.007-.26-.222-.262-.447-.596-1.663-.204-.363-.269-.105-.215.016-.33.119-.133.012ZM32.113 104.955l-1.692-1.846-.889-.477-.325-.065-.126-.068-.122-.183-.252.134.198.667 1.935 11.903 1.933 11.896-.288.648-1.888 1.116-.573.194-.485-.051-.533-.253-.346-.021-.27.253-.294.566-.178.669.103.536.555 1.223.27 1.016-.037.739-.416.55-.866.442-2.508.842-.771.552-1.919 2.22-.685.581-.059-.138-.213-.241-.28-.185-.265.03-.122.311-.182 3.168-.138.468-.335.363-.935.566-.36.344-.036.212.122.55-.01.23-.163.278-.421.515-.164.278-3.034 6.525-.562 1.717-2.056 12.989.04.496.264.592.28.348.188.344-.03.578-.373.824-1.927 2.419-.213.425-.347 2.118-.212.299-2.083.681-.046.03-.028.019.04.143.435 2.218.285.86.442.796.147.187.19.197.32.252.25.143.265.103.524.051.236-.009.218-.054 1.59-.653.455-.093.46.105.632.26 1.275.706.62.548.47.536 1 1.852.208.894.65 1.446.07.271.019.751.04.232.063.222.084.199.131.444.01.237-.045.222-.341.807-.061.229-.03.258.044.36.105.428.283.676.103.41.042.353-.02.297.13.213.168.131.206.108 1.137.306.393.19 1.643 1.261.192.098.463.119.543.005 1.588-.131.353.044.391.098.552.27.267.219.164.232.18.849.173.447.222.302.199.194.204.129.205.084.84.246.49.217.254.185.176.197 1.864 3.972.197.182.236.099.234.044 1.156.059.248.046.213.068.468.262.55.4.378.192.328.012.072-.409v-.197l-.063-.218-.14-.14-.438-.152-.166-.117-.091-.164.007-.213.087-.184.231-.291.005-.177-.16-.307.015-.171.325-.503.133-.444.103-.215.15-.185.23-.194.208-.459.117-.201.166-.171.233-.182.274-.377.15-.143.166-.124.126-.161.162-.417.133-.182-.014-.192-.06-.194-.204-.36-.038-.204.045-.203.096-.181.229-.332.033-.187-.073-.173-.126-.15-.543-.332-.143-.143-.072-.206-.059-.748-.086-.197-.157-.128-.39-.155-.125-.149-.04-.23.022-.245.145-.714.023-.239.045-.194.119-.121.327.03 1.044.243.554.052.396-.059.47-.119.863-.337.412-.21.278-.181.143-.152.124-.154.208-.414.169-.468.056-.241.306-2.459.134-.447.093-.192.129-.177.14-.148.204-.147.245-.143.38-.159.238-.133.157-.148.042-.187-.06-.182-.115-.178-.157-.154-.171-.117-.21-.101-.485-.133-.823-.096-2.127-.054-1.502.428-.25.023-.227-.016-.222-.096.007-.143.046-.191.08-.22.133-.157.173-.11.393-.18.183-.105.482-.394.143-.149.24-.339.312-.267.133-.155.089-.201.105-.187.127-.154.11-.166.049-.195-.026-.671.054-.204.18-.367.047-.196.1-.174.01-.477.063-.203.1-.18 2.653-2.92.515-.346.271-.085.337-.021.604.099.29.149.192.183.08.206.116.432.085.206.123.162.417.056 5.121-.29.812-.288 1.15-.657 1.143-.836.57-.624.985-1.329.454-.454.29-.131.421-.11.89-.1.449-.096.332-.101.161-.129.117-.17.3-.852.037-.218-.105-.673.033-.232.08-.208.324-.562.042-.201-.002-.147-.12-.084-2.065-.52-.421-.154-.349-.243-1.109-1.205-1.588-1.317-.166-.085-.192-.014-.152.014-1.565.314-.241.007-.22-.059-.183-.096-.163-.14-.936-1.095-.169-.121-.212-.085-.237-.046h-.51l-.503.049-.5-.066-.216-.07-.175-.082-.108-.082-.03-.138.014-.208.047-.232.166-.407.06-.21v-.737l.04-.244.059-.208.262-.299.103-.183.129-.458.081-.208.103-.192.068-.225.045-.253.063-.219.323-.129.55.005 1.981.311.62-.073.25-.124.351-.276.288-.063 1.034.021.346-.056.318-.021.244.044.468.279.29.091.397.04 1.57-.056.239-.05.428-.156.924-.23.28-.014.284.047.346.199.16.227.081.262.103 1.86.1.479.083.197.116.171.377.196.674.215.926.522.496.403.393.467.148.143.21.115.265.042.41-.075.278-.079.87-.335.224-.056.258-.017.292.033.646.302.337.094.388.028.693-.085.334-.131.243-.154.288-.304.653-1.081.44-.437.36-.218.215-.075.304-.035.976-.016.412-.078.46-.161.136-.239.054-.257-.03-.255-.239-.919-.323-.824-.058-.217-.003-.22.059-.164.056-.101.115-.131 1.24-.903 1.696-1.013.322-.259.513-.656 1.373-2.199.29-.308.157-.134.363-.206.212-.086.213-.063.232-.035.302.046.379.131.601.37.288.248.201.225.194.376.304.842.075.447.09 2.057.097.409.157.395.098.188.241.341.225.265.227.191.327.115.473.122.983.128.907.026.931-.143.812.005.239-.049.234-.08.194-.084.215-.068.456-.065.23-.068.266-.052.389-.018.631-.136.475-.033.782-.199.168-.121.117-.171.157-.437.1-.195.127-.159.3-.283.526-.353.13-.152.232-.351.127-.15.266-.084.372.002 1.203.171.21.087.372.386.209.11.327-.003.512-.105.216-.009.208.068.323.414.187.163.215.094.398-.005.557-.061.479.029.206-.029.292-.248.206-.1.286-.038.369.01.276-.028.269.039.443.263.374.161.578.147.311.035.22.087.063.161.124.152.175.066.251-.08.171-.14.142-.175.199-.396.11-.119.164-.035.262.217.306.05.237-.036.622-.559.372-.206.859-.294.191-.099.162-.119.337.061.489.281 1.017.858.733.761.963 1.572.751 1.827.431.72.271.302.265.183.365.187 1.284.402 4.384.777 5.926 2.183.227.105.234.145.819 1.05 1.869 3.327 10.621.414.468.117.424.164.921.477.496.199.351.066.293-.007.234-.054.613-.253.758-.456.645-.276.3-.026.281.017 1.974.699-.194-1.329v-.245l.051-.496.709-2.244.171-1.289.007-.559-.189-1.261-.157-.265-.241-.287-.529-.452-.332-.206-.286-.145-1.148-.323-1.551-.781-.185-.192-.169-.269-.182-.508-.077-.353-.131-2.519-.059-.237-.496-1.226-2.77-4.772-1.006-2.786-.058-.539-.157-.432-.234-.319-.496-.313-.311-.11-.943-.143-.449-.107-.416-.176-.386-.299-.337-.356-1.03-1.644-.103-.225-.135-.428-.18-1.526-.115-.453-1.808-4.256-.492-.781-.498-.599-5.853-4.719-.829-.402-2.395-.637-.447.15-.756.044-1.717-.264-.777-.271-2.335-1.367-4.351-3.535-.124-.166-.14-.154-.129-.166-.143-.148-.484-.662-.69-.732-.323-.255-.196-.093-.232-.073-.271-.047-.948.063-.938.181-.424.025-.533-.032-.809-.134-.524-.03-.239.023-.187.033-.134.049-.126.073-.14.105-.274.299-.526.7-.279.299-.304.274-.18.105-.194.092-.611.194-.402.184-.382.223-.353.285-.124.136-.12.164-.104.177-.667 1.771-.204.377-.269.321-.62.573-.337.236-.199.087-1.342.325-.384.154-.187.112-.157.139-.126.189-.099.187-.08.22-.048.241-.033.267v.273l.082.466.175.377.447.718.162.377.058.215.045.227.014 1.024-.038.269-.065.248-.129.204-.182.152-.204.098-.17.11-.132.101-.077.093-.36.709-.253.337-.213.363-.138.107-.206-.042-.316-.227-.283-.159-.432-.119-.302-.173-.236-.386-4.476-12.57-.442-.761-.573-.75-1.151-.758-.43-.403-.22-.302.055-.217.094-.199.112-.178.265-.339.292-.29.166-.124.302-.281.126-.145.131-.175.096-.19.073-.229.037-.253.028-1.394.045-.248.065-.222.201-.394.248-.329 2.153-1.949.248-.3.437-.821.152-.43.038-.239v-.231l-.021-.204-.166-.681-.616-1.42-.203-.938-.227-.646-.222-.161-.356-.103h-.891l-.641-.056-.899-.183-.725-.234-.356-.187-2.093-1.413-.618-.517-.381-.416-.162-.131-.292-.29-.166-.129-.389-.187-.48-.127-.519-.03-2.257.087-1.027.145-.683.444-.152.143-.136.161-.11.185-.091.206-.064.22-.24 1.247-.097.203-.135.155-.169.128-.365.209-.804.351-.48.107-1.03.105-.425-.018-2.492-.492-.33.003-.521.149-.293.136-.22.164-.117.168-.098.197-.138.437-.105.204-.129.159-.297.253-.538.138-1.233.552-3.13-1.004-1.713.744-.547.721-.356.828-.187.889-.056.91.117 2.552-.117.798-.18.494-.227.414-.585.699-.21.403.08.374.184.346.103.328.082.779.231.725.354.592.453.381 1.596.269 1.61-.133 1.307.306.702 1.587.028.765-.145.751-.42.575-.792.229-.905-.201-1.675-.828-1.018-.105-.872.423-.69.791-.52.763-.358.341-.69 1.161-.27.271-.175.117-4.005.823-1.827.033-1.52-.374-.728-.697-1.086-1.83-1.286-.674-1.184-1.48-.594-.562-.641-.36-.557-.41-.398-.566-.332-2.664-.393-1.509-.508-.934-.065-.386-.18-.355-.789-.258-.18-.271-.262-.632-.51-.632-.34-.692.251-.798-.758-1.481-.1-.432-.23-.361-1.004-.615-.229-.461-.358-.968-1.577-1.224-1.22-2.318-.574-.581-.173-.067-.22-.015-.173.029-.035.053Z" fill="#171619" stroke="#fff" stroke-width=".5"/><path d="m86.604 158.691-.907-.026-.983-.128-.473-.122-.327-.115-.227-.191-.225-.265-.24-.341-.099-.188-.157-.395-.098-.409-.089-2.057-.075-.447-.304-.842-.194-.376-.201-.225-.288-.248-.601-.37-.38-.131-.301-.046-.232.035-.213.063-.212.086-.363.206-.157.134-.29.308-1.373 2.2-.513.655-.322.259-1.696 1.013-1.24.903-.115.131-.056.101-.059.164.003.22.058.217.323.824.239.919.03.255-.054.257-.135.239-.461.161-.412.078-.976.016-.304.035-.215.075-.36.218-.44.437-.653 1.081-.288.304-.243.154-.334.131-.693.085-.388-.028-.337-.094-.646-.302-.292-.032-.258.016-.224.056-.87.335-.279.079-.41.075-.264-.042-.21-.115-.148-.142-.393-.468-.496-.403-.926-.521-.674-.216-.377-.196-.117-.171-.081-.197-.1-.479-.104-1.86-.082-.262-.159-.227-.346-.199-.283-.047-.28.014-.925.23-.428.156-.239.05-1.57.056-.397-.04-.29-.091-.468-.279-.244-.044-.318.021-.346.056-1.034-.021-.288.063-.35.276-.251.124-.62.073-1.982-.311-.55-.005-.322.129-.063.219-.045.253-.068.225-.103.192-.081.208-.13.458-.102.183-.262.299-.059.208-.04.244v.737l-.06.21-.166.407-.047.232-.014.208.03.138.108.082.175.082.216.07.5.066.503-.049h.51l.236.046.213.085.169.121.936 1.095.163.14.183.096.22.059.24-.007 1.566-.314.152-.014.192.014.166.085 1.588 1.317 1.11 1.205.348.243.421.154 2.066.52.12.084.002.147-.043.201-.325.562-.08.208-.032.232.105.674-.037.217-.3.852-.117.17-.161.129-.332.101-.45.096-.889.1-.42.11-.29.131-.455.454-.985 1.329-.57.625-1.142.835-1.151.657-.812.288-5.121.29-.416-.056-.124-.162-.085-.205-.117-.433-.08-.206-.191-.183-.29-.149-.604-.099-.337.021-.27.085-.516.346-2.653 2.92-.1.18-.063.203-.01.478-.1.173-.047.196-.18.367-.054.204.026.671-.05.195-.11.166-.126.154-.105.187-.089.201-.133.155-.311.267-.241.339-.143.15-.482.393-.182.105-.394.18-.173.11-.133.157-.08.22-.046.191-.007.143.222.096.227.016.25-.023 1.502-.428 2.127.054.823.096.484.133.211.101.17.117.158.154.114.178.061.182-.042.187-.157.148-.238.133-.38.159-.245.143-.204.147-.14.148-.129.178-.093.191-.134.447-.306 2.459-.056.241-.169.468-.208.414-.124.154-.143.152-.278.181-.412.21-.863.337-.47.119-.396.059-.554-.052-1.044-.243-.327-.03-.12.121-.044.194-.023.239-.145.714-.021.245.04.23.123.149.391.155.157.128.087.197.058.749.072.205.143.143.543.332.126.15.073.173-.033.187-.23.333-.095.18-.045.203.038.204.203.36.061.194.014.192-.133.183-.162.416-.126.161-.166.124-.15.143-.273.377-.234.182-.166.171-.117.201-.209.459-.229.194-.15.185-.103.215-.133.444-.325.503-.014.171.159.307-.005.177-.231.291-.087.184-.007.213.091.164.166.117.438.152.14.14.063.218v.197l-.072.409-.129 1.011.1.105.23.15.374.044.3.002.264-.025.223-.066.378-.185.16-.11.542-.526.134-.206.2-.423.158-.44.117-.463.425-2.953.108-.337.227-.486.224-.204.232-.11.248.012.213.063.407.183 1.294.797.262.061h.32l.901-.309.332-.051.332.054.202.128.119.15.054.169.03.14.021.22v.229l-.802 2.386-.059.522.012.257.051.218.108.189.38.188 3.08.716.204.091.173.121.15.143.332.524.084.206.185.679.093.24.13.248.259.295.26.115.322.047.976-.042 1.942.091.503.299.086.297.03.195-.023.219-.06.206-.19.398-.068.229-.016.272.065.613-.04.243-.084.189-.143.148-.123.215-.09.269.62 3.278.192.505.218.255.133-.012.33-.119.215-.016.27.105.203.363.596 1.663.263.447.26.222.182-.007.166.056.154.155.683.868.382.346.264.077.199-.009.126-.141.103-.175.183-.101.273-.012.534.26.341.056.281-.002.197-.073.156-.098.253-.252.154-.08.2-.026.44.042.57.26.084.19-.007.203-.06.19-.052.243-.012.147.005.213.07.304.197.169.907.458.145.157.124.25.148.131.59.124.46.021 1.147.464.205.203.201.332.281.164.356.141.634.332.381.086.272-.016.213-.077.287.007.466-.094.947-.065.447-.082.522.028.337.124.24-.005.391-.117.452.014.227-.021.21-.049.23-.028.4.133.678.124.248.152.33.323.173.234.098.222.003.195-.082.133-.169.049-.196.026-.168.103.013.208.162.274.671.395.384.178.377.131.203.019.178-.078.112-.161.239-.566-.019-.201-.065-.174-.026-.17.082-.138.407-.089.468.011.192-.06.17-.071.37-.06.129-.124.117-.166.145-.16.798-.147.24-.009.213-.042.19-.082.14-.141.244-.065.339-.005.959.253.28.213.225.089.239.009.234-.059.283-.037.168.103.092.192.065.238.087.213.117.216.18.032.224-.002.218-.07.197-.089.343-.246.22-.049.129.07.129.138.11.019.053-.147.04-.206.068-.201.288-.197.091-.093.054-.078.049-.215.763-1.502-.017-.571-.13-.152-.15-.098-.206-.012-.178.033-.152-.005-.084-.128-.014-.178.056-.197.257-.554.054-.229v-.035l.04-.293.318-.877.358-.597.12-.269.291-.931.045-.25.07-.237.143-.166.52-.147.156-.145.014-.262-.108-.171-.177-.122-.183-.053-.098-.136.028-.409-.066-.171-.03-.187.103-.232.475-.807.1-.332.08-.52v-.259l-.026-.241-.075-.213-.11-.173-.128-.155-.066-.133.085-.171.94-.538.325-.253.173-.196.185-.255.232-.473.11-.325.096-.575.489-1.846.638-1.692 1.802-2.838 5.448-5.649.201-.279.101-.189.236-.34 1.179-1.174.27-.339.149-.274.014-.145-.011-.222-.11-.449-.188-.386-.226-.347-.136-.159-.148-.138-.982-.76-.295-.29-.257-.328-.213-.36-.08-.204-.046-.229-.014-.248.023-.25.114-.459.164-.416.272-.267.428-.304 1.02-.487.919-.341 3.032-.426.215-.072.269-.169.347-.297 7.552-10.584.472-.409.639-.134 5.615-.105.397-.119.461-.513.134-.21.287-.295.316-.187.47-.206 2.09-.702.503-.304.517-.428.266-.269.831-1.051.292-.287.323-.253.756-.269 2.414-.433-1.869-3.327-.819-1.05-.234-.145-.227-.105-5.926-2.183-4.384-.777-1.284-.402-.365-.187-.265-.183-.271-.302-.431-.72-.751-1.827-.963-1.572-.733-.761-1.017-.858-.489-.281-.337-.061-.162.119-.191.099-.859.294-.372.206-.622.559-.237.036-.306-.05-.262-.217-.164.035-.11.119-.199.396-.142.175-.171.14-.25.08-.176-.066-.124-.152-.063-.161-.22-.087-.311-.035-.578-.147-.374-.161-.443-.262-.269-.04-.276.028-.369-.01-.286.038-.206.1-.292.248-.206.029-.479-.029-.557.061-.398.005-.215-.094-.187-.163-.323-.414-.208-.068-.216.009-.512.105-.328.003-.208-.11-.372-.386-.21-.087-1.203-.171-.372-.002-.266.084-.127.15-.231.351-.131.152-.527.353-.3.283-.126.159-.1.195-.157.437-.117.171-.168.121-.782.199-.475.033-.631.136-.389.019-.266.051-.23.068-.456.065-.215.068-.194.084-.234.08-.239.049-.812-.005-.93.143ZM78.269 7.209l-.524-.206-5.311-.166-.73.232-.302.75-.491.279-6.53.065-9.194.092-9.454.093-10.162.1-8.203.085-3.942.04-.921.01-.017-.455-3.624-.068.059.248-.115.305.25.818.462.758.252.82-.236.98-.566.627-.67.514-.566.655-.308.892-.466 1.983-.707 1.159-.151.975-.23.407-.449.447-.129.255.1.433.043.192h.084l.18.035.195.093.121.19v.276l-.093.19-.117.163-.258.7-.563 1.022-.12.423.178.817 1.261 2.248.1.421.07.91.113.42.194.25.569.568.124.201.128.835.328.54 1.476 1.306.517.267.683.114 1.027.026.164.185-.182.4-.384.403-.46.182-.546.042-.407.148-.323.261-.3.396-.287.624-.21.873v.896l.34.695.368.161.43.05.359.088.15.286.102.486.272.101.367-.012.405.155.418.26.274.128.143.227.023.55-.138.566-.313.377-.85.671-.55.88-.02.849.44 1.928v3.656l.205.866.955 1.439.271.767-.049 1.093-.39 1.937.182 1.076.999 1.619.12.416-.267.435-1.453 1.631-.704 1.425-.157.893.288.885.343.383.23.04.234-.026.367.185.213.344.051.39.136.392.32.248 4.754-.655.3-.117.348-.237.349-.4.199-.278.24-.412.13-.173.2-.147.272-.134.763-.178.29-.117.22-.17.213-.351.262-.791.1-.199.232-.34.157-.142.252-.152.34-.154.645-.185.63-.115 2.091-.03.503-.075 3.893-1.212.239-.026 3.731.279.257-.028 1.355-.4.498-.073.566-.012 1.11.085.493.112 1.02.14 1.59-.056 5.47-1.221 2.726.175.531-.046.674-.129h.161l2.344.3 1.02-.029.258-.142.248-.241.348-.606.272-.344.381-.279.98-.294.201-.099.153-.175.138-.276.084-.468.159-.468.06-.353.015-.293-.042-.25-.068-.222-.349-.524-.063-.197-.014-.22.016-.217-.058-.725.03-.248.171-.454V50.7l.089-.194.129-.183.192-.166.341-.163.27-.073.56-.325.235-.012.25.019.239.049.252-.007.225-.094.147-.178.042-.334-.124-.17-.2-.12-.707-.176-.11-.105.046-.13.262-.1.527-.09.206-.061.206-.04.208.04.411.156.256.036.248.004.2-.011.183-.054.536-.279.444-.163.169-.15.108-.248-.174-.309-.318-.344-3.203-2.859-.264-.31.012-.28.121-.29.681-1.242.094-.292.044-.255.108-1.656.108-.503.081-.23.234-.453.405-.567.522-.533 1.684-1.252.592-.59.26-.343.835-1.586.564-.733.15-.126.196-.112.314-.09.287-.034.288-.005.562.059.902.36 1.519.795 1.352.435.293-.27.049-.242.065-.702-.1-.863-.22-.753-.183-.36-.196-.237-.398-.182-.232-.026-.208.042-.18.108-.4.472-.138.12-.117.053h-.098l-.099-.07-.428-.39-.358-.204-.325-.248-.143-.152-.1-.19-.138-.449-.035-.245.08-.4.02-.274-.11-.288-.154-.15-.587-.302-.23-.056-.498-.06-.201-.082-.133-.129-.176-.234-.122-.124-.152-.117-.206-.087-.159-.133-.1-.192-.08-.215-.093-.199-.138-.156-.2-.092-.259-.03-.25-.01-.25-.044-.167-.12-.124-.172-.159-.424-.1-.192-.084-.208-.064-.227-.24-1.509-.076-.22-.182-.386-.042-.292-.014-.393.213-1.21.124-.419.154-.348.39-.454.28-.22.252-.145.405-.185.231-.173.597-.711.582-.526.064-.178.037-.253.019-.545.077-.374.309-.421.631-.461.145-.152.19-.108.222-.075.197-.173.152-.285.019-1.788-.061-.243-.021-.243.056-.237.166-.313.091-.351.017-.576-.075-.662.22-.84.828-1.85Z" fill="#171619" stroke="#fff" stroke-width=".5"/><path d="m125.407 1-.117.692.166.4.094.387-.33.636-.531.522-2.108 1.548-.756-.907-.795-.646h-.812l-.807 1.03-.194.622-.094.97-.229.454-.496.407-1.107.527-.393.491v.005l-.105.11-.126.093-.136.075-.147.047-1.638-.056-.873.093-.603.227-.389.714-.306 1.05-.426.966-.737.46-2.016-1.954.126-.3.313-.34.18-.34-.248-.3-.39-.038-.295.11-.187-.04-.056-.484-.295-.004-4.787-.09v-.009l-.217-.306-.237-.096-.248.105-.24.297-.899.15-.94 1.041-.733.103.281-.585-.44.017-.215-.136-.292-.58-.319-.222-.355-.073-5.793-.46-1.193.184-.37.65-5.064-.046-5.346-.054-1.053-.194-1.394-.548-.421-.166-.829 1.85-.22.84.075.663-.016.575-.091.35-.166.314-.056.237.02.243.061.243-.018 1.788-.152.285-.197.173-.222.075-.19.108-.145.152-.631.46-.31.422-.076.374-.02.545-.037.253-.063.178-.582.526-.597.711-.231.173-.405.185-.253.145-.278.22-.39.454-.155.349-.124.418-.213 1.21.014.393.042.292.182.386.075.22.241 1.51.063.226.085.208.1.192.16.424.123.173.166.12.25.044.251.009.26.03.199.092.138.156.093.2.08.214.1.192.16.134.205.086.152.117.122.124.175.234.134.129.201.082.498.06.23.057.587.301.154.15.11.288-.02.274-.08.4.035.245.138.45.1.189.143.152.325.248.358.204.428.39.099.07h.098l.117-.053.138-.12.4-.472.18-.108.208-.042.232.026.398.182.196.236.183.36.22.754.1.863-.065.702-.05.241-.292.272.07.38.138.401.112.183.143.147.178.117.194.105.166.126.14.155.16.42.103.188.159.133.222.064.241.03.225.063.19.1.17.13.748.416.211.082.257.04.672-.026.28.03.197.115.098.19.08.212.19.117.261.012.567-.323.271-.236.182-.255.064-.236.037-.258.007-.276-.05-.524-.306-1.436-.014-.25.012-.237.054-.225.087-.206.231-.35.3-.288 1.452-.714.32-.273.197-.267.18-.711.188-.41.119-.17.145-.157.152-.138.353-.227 4.406-1.643.486-.116.314-.022.454.059.563.159.539.06.243.055.194.103.175.121.267.094.377.04.636-.02.257.108.057.157-.092.162-.208.231-.01.007-.008.012-.501.5-.098.16.002.177.166.087.276-.04.442-.224.459-.351.126-.148.201-.168.005-.005 1.661-1.511.117-.178.094-.206.152-.437.114-.169.192-.22.091-.133.066-.185.042-.468.058-.227.185-.17.279-.148.461-.184.262-.169.194-.19.091-.212.096-.796.077-.224.267-.14.426-.071 2.522.058.36.108.25.143.108.19.061.208-.021.224-.089.183-.138.14-.092.16-.037.19.037.216.101.176.157.14.173.12.159.135.117.178.07.22.045.243-.007.262-.04.243-.068.232-.087.208-.128.169-.435.447-.085.194-.018.215.079.19.152.088.18-.026.365-.285.227.056.164.131.206.099.248-.014.381-.26.204-.213.269-.407.199-.138.273-.096 1.371-.012.627.22.244-.02.257-.1.529-.423.259-.142.279-.078.463.005.264.091.202.134.182.089.246-.024.25-.112.285-.283.148-.218.089-.213.255-1.31.084-.215.1-.194.127-.17.171-.125.208-.05.283.087.178.146.306.31.187.101.239.054.76.066.283-.01 1.027-.278 1.94-.868.348-.044.319-.211.547-.183 4.293-.917 2.033-.166 2.66-1.375.809-.2.019-.004.145-.604.222-1.79.321-.743.592-.758.858-.585.363-.349.077-.454-.215-.84-.033-.416.91-4.297.204-.403.337-.355.369-.237.293-.292.1-.538.12-1.516-.134-1.324-.634-1.004-1.403-.538-.791.014-1.427.379-.77.08-.772-.2-.854-.477-.697-.648-.313-.706L125.407 1Z" fill="#171619" stroke="#fff" stroke-width=".5"/><path d="m145.641 33.882-.121-.15-2.141-4.012-.667-.711-2.222-1.406-.346-.42-.492-.95-.332-.4-.381-.235-1.315-.438-.379-.26-.262-.257-.3-.201-.97-.124-.501-.131-.461-.222-.37-.31-.43-.884.028-.89.257-1.082-.018.005-.81.199-2.66 1.375-2.033.167-4.293.917-.547.182-.318.21-.349.045-1.939.868-1.027.279-.284.009-.76-.066-.239-.053-.187-.101-.306-.311-.178-.145-.283-.087-.208.05-.171.123-.126.171-.101.194-.084.216-.255 1.31-.089.212-.147.218-.286.283-.25.112-.246.024-.182-.09-.202-.132-.264-.092-.463-.004-.279.077-.259.143-.529.423-.257.098-.244.021-.627-.22-1.371.012-.273.096-.199.138-.269.407-.204.213-.381.26-.248.014-.206-.098-.164-.131-.227-.057-.365.286-.18.026-.152-.09-.079-.189.018-.215.085-.194.435-.447.128-.169.087-.208.068-.231.04-.244.007-.262-.045-.243-.07-.22-.117-.178-.159-.135-.173-.12-.157-.14-.1-.176-.038-.215.038-.192.091-.159.138-.14.089-.183.021-.224-.061-.208-.108-.19-.25-.143-.36-.107-2.522-.059-.426.07-.267.14-.077.225-.096.796-.091.213-.194.19-.262.168-.461.184-.279.148-.184.17-.059.228-.042.468-.066.184-.091.134-.192.22-.114.168-.152.438-.094.205-.117.178-1.661 1.511-.005.005-.201.169-.126.147-.459.35-.442.226-.276.04-.166-.087-.002-.178.098-.16.5-.5.01-.012.01-.006.207-.232.092-.162-.056-.156-.258-.108-.636.019-.377-.04-.266-.094-.176-.121-.194-.103-.243-.054-.538-.06-.564-.16-.454-.058-.314.02-.486.118-4.406 1.642-.353.227-.152.138-.145.157-.12.17-.186.41-.18.711-.197.267-.32.274-1.453.713-.3.288-.231.35-.087.207-.054.224-.011.236.014.25.306 1.437.05.524-.008.276-.037.258-.063.236-.183.255-.271.236-.566.323-.263-.012-.189-.116-.08-.213-.098-.19-.196-.115-.281-.03-.671.026-.258-.04-.21-.082-.749-.416-.17-.129-.19-.1-.225-.064-.24-.03-.223-.063-.16-.134-.102-.187-.16-.42-.14-.155-.166-.127-.194-.105-.178-.117-.142-.147-.113-.183-.138-.4-.07-.381-1.352-.435-1.518-.796-.903-.36-.562-.058-.288.004-.287.035-.314.09-.197.111-.15.127-.563.732-.835 1.586-.26.344-.592.59-1.684 1.251-.522.534-.405.566-.234.454-.082.229-.107.503-.108 1.656-.044.255-.094.293-.68 1.242-.122.29-.012.279.264.31 3.203 2.86.318.343.174.31-.108.247-.168.15-.445.164-.536.278-.182.054-.201.012-.248-.005-.255-.035-.412-.157-.208-.04-.206.04-.206.06-.526.092-.263.098-.046.131.11.106.706.175.201.12.124.17-.042.335-.147.178-.225.093-.252.007-.24-.049-.25-.019-.233.012-.562.325-.269.073-.341.164-.192.166-.129.182-.089.194v.005l-.17.454-.031.248.058.725-.016.218.014.22.063.196.349.524.068.222.042.25-.014.293-.061.353-.16.468-.083.468-.138.276-.152.176-.202.098-.98.295-.381.278-.272.344-.348.606-.248.241-.258.143-1.02.028-2.344-.3h-.161l-.674.129-.531.047-2.725-.176-5.47 1.221-1.591.057-1.02-.14-.494-.113-1.109-.084-.566.011-.498.073-1.355.4-.257.028-3.731-.278-.24.025-3.892 1.212-.503.075-2.091.03-.63.115-.645.185-.34.154-.252.153-.157.142-.232.34-.1.198-.262.791-.213.351-.22.17-.29.118-.763.178-.271.133-.201.147-.13.173-.24.412-.199.279-.349.4-.348.236-.3.117-4.753.655.135.108-.538.465-.36.625-.208.697-.066.685.075.693.218.44 1.504 1.378 1.516 1.923.568.725.045.606-.171 1.361.054.33.208.714v1.15l-.213.724-.5.318-.574.269-.433.566-.067.805.33.655.594.44.734.164.66.364-.056.81-.503.81-1.331.701-.491.772-.733 1.507-.893.924-.178.353-.08 2.13-.173.668-.395.602.41.234.268.28.332.232.58.098 1.08.052 1.059.24 1.062.567.271.685.045.868.655 1.996.25.192.283.042.234.1.096.368.052.73.856 2.966-.047.583-.444.248-.312.28-.107.543.203.335.01.014.379-.178.252-.134.122.183.126.068.325.065.89.478 1.691 1.845.035-.053.173-.028.22.014.173.067.573.581 1.222 2.318 1.576 1.224.358.968.23.461 1.003.615.23.361.1.432.758 1.481-.25.798.339.693.51.631.262.632.18.271.789.258.18.355.065.386.508.934.393 1.509.332 2.664.398.566.557.41.64.36.595.562 1.184 1.481 1.286.673 1.086 1.83.727.697 1.521.374 1.827-.032 4.006-.824.175-.117.27-.271.69-1.161.357-.341.52-.763.69-.791.872-.423 1.018.105 1.675.828.905.201.791-.229.421-.575.145-.751-.028-.765-.702-1.586-1.307-.307-1.61.133-1.596-.269-.453-.381-.354-.592-.231-.725-.082-.779-.103-.328-.185-.346-.08-.374.211-.403.585-.699.227-.414.18-.494.117-.798-.117-2.552.056-.91.187-.889.356-.828.547-.721 1.713-.744 3.13 1.004 1.233-.552.538-.138.297-.253.129-.159.105-.204.138-.437.099-.197.117-.168.22-.164.292-.135.522-.15.33-.003 2.491.492.426.018 1.03-.105.479-.107.805-.351.364-.209.169-.128.136-.155.096-.203.24-1.247.064-.22.09-.206.11-.185.137-.161.152-.143.683-.444 1.027-.145 2.257-.087.52.03.48.127.388.187.166.129.292.29.162.131.381.416.618.517 2.094 1.413.355.187.725.234.899.183.64.056h.892l.356.103.222.161.227.646.203.938.616 1.42.166.681.02.204v.231l-.037.239-.152.43-.437.821-.248.3-2.152 1.949-.248.33-.202.393-.065.222-.045.248-.028 1.394-.037.253-.073.229-.096.19-.13.175-.127.145-.302.281-.166.124-.292.29-.265.339-.112.178-.093.199-.057.217.22.302.43.403 1.152.758.573.751.442.76 4.476 12.57.236.386.302.173.433.119.283.159.315.227.206.043.138-.108.213-.363.253-.337.36-.708.077-.094.131-.101.171-.11.204-.098.182-.152.129-.203.065-.248.038-.269-.014-1.025-.045-.227-.058-.215-.162-.377-.447-.718-.175-.377-.082-.465v-.274l.033-.267.049-.241.08-.22.098-.187.126-.189.157-.138.187-.113.384-.154 1.343-.325.198-.087.337-.236.62-.573.27-.321.203-.377.667-1.771.105-.177.12-.164.123-.136.354-.285.381-.222.402-.185.611-.194.194-.092.18-.105.304-.274.279-.299.526-.7.274-.299.14-.105.127-.073.133-.049.187-.033.239-.023.524.03.809.134.534.032.423-.025.938-.181.948-.063.271.047.232.073.196.093.323.255.69.732.484.663.143.147.129.166.14.154.124.167 4.352 3.535 2.334 1.366.777.271 1.717.265.756-.045.447-.15.889-.896.837-1.839.279-.276.248-.126.465.098h.318l.386-.044 1.465-.491.274.007.222.072 1.004.468.217.068.321.047.407-.01.711-.142.335-.22.264-.276.18-.309.241-.134.332-.105.127-.185.088-.229.452-.749.04-.233-.003-.248-.039-.234.072-.295.199-.314.625-.573.43-.304.33-.192 1.869-.655.866-.019 1.027.188.894.29.671.292 1.474.95.601.582.384.475.915.894.507.374.468.047.737-.007 1.689-.194.683-.185.393-.241.059-.243-.005-.227-.033-.187-.098-.178-.276-1.729.021-.255.124-.276.215-.133.267-.049 1.303-.057.267-.117.166-.168.04-.232.018-.255-.058-.489-.087-.215-.449-.695-.145-.152-.182-.114-.209-.089-.226-.063-.267-.019-1.266.154-.919.234-.983.141-.21.007-.478-.059-.456-.131-.194-.084-.164-.124-.098-.143-.026-.213.087-.468v-.257l-.087-.465-.157-.436-.025-.252.091-.347.171-.18.259-.133.3-.073.43-.145.202-.175.112-.213-.028-.225-.103-.184-.157-.145-.795-.382-.162-.126-.117-.169-.058-.219v-.232l.026-.243.058-.232.456-1.324.311-.651.45-.694.236-.187.243-.08.208.058.377.211.234.073h.274l.365-.138.149-.209.054-.252-.054-.227-.096-.192-.145-.152-.461-.414-.236-.351-.091-.185-.07-.225-.047-.236.073-.318.168-.351.842-1.09.344-.672.274-.734.192-.337.007-.243-.073-.211-.126-.18-.164-.18.028-.232.077-.281.145-.159.15-.112 1.029-.428.431-.098.227-.01.236.042.208.075.978.564.223.077.259.04h.262l.253-.023 1.338-.272.26-.016 1.637.227h.031l-.091-.543.285-.402.529-.101.498.194.449.955.44-.489.281-.711-.225-.169.442-.147.389.054.425.131.546.088.463-.222.147-.561.061-.665.213-.528.005-.007.924-1.334-.527-2.08-2.026-3.455v-.005h-.009l-.564-1.32.433-1.302.711-1.32.222-1.373-.004-.665.264-.409.952-.854.508-.868-.012-.678-.521-1.523.039-.84.342-.407.472-.279.426-.44.176-.535.068-1.25.39-2.156-.259-1-.761-.669-1.249-.428-.03-.044-.01-.042.01-.04.276-.477.095-.438-.072-.419-.269-.379-2.232-.816-.788-.131-1.689.096-.946.168-.638.281-.209.337-.128.86-.164.364-.32.27-1.921.675-.782.156-.779-.084-.191-.57.343-.487-.294-.681.002-.606 1.752-.356.655-.257.538-.372.16-.442-.37-.461-.592-.03-1.072.2-.437-.186-.416-.295-.307-.27-.105-.123-.014-.272.196-1.2.103-.271 2.115.236 1.011-.058.751-.494.575.381.775.132.68-.195.293-.585-.36-.884-.833-.161-1.703.437-1.311-.14-.669-.894-.03-1.247.601-1.21 1.119 1.182.706.393.753-.094.438-.526.117-.744-.094-.776-.196-.628-.281-.423-.299-.332-.22-.461-.061-.793.9-3.313.012-.484-.189-1.71.086-.594.339-.649.539-.584.292-.262.026-.351-.286-.843-.503-1.01-.068-.286.082-.395.143-.264.023-.272-.248-.419.735-.142.65.11.468-.124.028-.131.15-.707-.124-.863-.339-.283-.463-.113-.534-.343-.411-1.105.222-3.022-.07-1.437.304-.573.119-.7.201-.654 1.032-.773-.859-.713-.402-.194-1.844.309-.584.007.367-.866-.44-.68-.716-.651-.472-.774.058-.365.14-.452-.018-.473-.414-.418-.431-.099-.381.122-.393.194-.477.124-.403-.056-1.116-.442-.11.124-.114.28-.178.251-.321.033Z" fill="#171619" stroke="#fff" stroke-width=".5"/><path d="M73.08 325.72h.8V329h-7.84v-3.28h1.2l-.32-1.6H64.2l-.32 1.6h1.2V329h-6.84v-3.28h.8l3.38-12.28h7.28l3.38 12.28ZM64.64 322h1.84l-.82-3.98h-.2l-.82 3.98Zm17.028 7.28c-2.52 0-4.467-.64-5.84-1.92-1.36-1.28-2.04-3.327-2.04-6.14 0-5.373 2.613-8.06 7.84-8.06 1.266 0 2.44.153 3.52.46 1.093.307 1.907.647 2.44 1.02v5h-4.8v-1.44c0-.507-.114-.88-.34-1.12-.227-.24-.567-.36-1.02-.36-.453 0-.793.12-1.02.36-.227.24-.34.613-.34 1.12v6.04c0 .507.113.88.34 1.12.227.24.567.36 1.02.36.453 0 .793-.12 1.02-.36.227-.24.34-.613.34-1.12v-1.62h4.8v5.18c-.547.373-1.36.713-2.44 1.02-1.067.307-2.227.46-3.48.46Zm14.433 0c-2.52 0-4.466-.64-5.84-1.92-1.36-1.28-2.04-3.327-2.04-6.14 0-5.373 2.614-8.06 7.84-8.06 1.267 0 2.44.153 3.52.46 1.094.307 1.907.647 2.44 1.02v5h-4.8v-1.44c0-.507-.113-.88-.34-1.12-.226-.24-.566-.36-1.02-.36-.453 0-.793.12-1.02.36-.226.24-.34.613-.34 1.12v6.04c0 .507.114.88.34 1.12.227.24.567.36 1.02.36.454 0 .794-.12 1.02-.36.227-.24.34-.613.34-1.12v-1.62h4.8v5.18c-.546.373-1.36.713-2.44 1.02-1.066.307-2.226.46-3.48.46Zm6.674-3.56h1v-9h-1v-3.28h9.18c1.72 0 3.033.353 3.94 1.06.907.707 1.36 1.853 1.36 3.44 0 .893-.18 1.667-.54 2.32-.36.653-.873 1.107-1.54 1.36l.02.2c1.28.2 1.92.987 1.92 2.36v1.54h.94V329h-6.34v-4.7c0-.52-.08-.913-.24-1.18-.147-.267-.387-.447-.72-.54-.32-.093-.78-.14-1.38-.14v3.28h1.32V329h-7.92v-3.28Zm7.68-5.72c.387 0 .673-.1.86-.3.2-.213.3-.54.3-.98V318c0-.44-.1-.76-.3-.96-.187-.213-.473-.32-.86-.32h-1.08V320h1.08Zm22.996 5.72h.8V329h-7.84v-3.28h1.2l-.32-1.6h-2.72l-.32 1.6h1.2V329h-6.84v-3.28h.8l3.38-12.28h7.28l3.38 12.28Zm-8.44-3.72h1.84l-.82-3.98h-.2l-.82 3.98Z" fill="#171619"/></svg>