<svg width="223" height="285" fill="none" xmlns="http://www.w3.org/2000/svg"><path d="m114.529 192.335-.152.034.092-.075.06.041Zm1.143-1.13.144.255-.046.114.124-.152.437.22-.071.296-.598 1.143-.312-.204.248-.486-.13-.008-.463-.625-.258.252-.002.268-.176.039.136-.235-.184-.314.104-.128-.052-.158.144-.15.074.05-.078-.161.168-.01.032.081.084-.081.016.082.18-.056.088.151-.102-.233.223.06.154-.076.026-.186.09.252Zm.116-.51-.032-.038.038.012-.006.026Zm.338-.148.195.108-.113.084.044.112h.111l-.032.172.146.319-.245.178-.15-.086-.006-.141-.012.089-.282-.239-.138-.392.482-.204Zm.038-.723-.038-.044.05-.042-.012.086Zm-1.035-.637-.056-.018.06-.014-.004.032Zm.669-.034.14.018-.066.127.17.322-.038.082-.154-.046.036-.126-.296-.184-.15.21-.291-.148.09-.281.157.078.26-.124.142.072Zm-.897.127.084-.028.012.226-.22.196.296-.09.068.08-.068.05.249.054-.02.12.094-.166.144.026.098.749.194.022-.032.094-.216-.032-.05.104.078.104-1.087.046.068-.39-.268.008-.145-.118.012-.505.129-.152-.125-.204.313-.16.296-.401.156.114-.06.253Zm1.668-.845.2.008-.118.196.1-.048.022.176.212.102-.172.074-.232-.104-.006.126.288-.004-.044.086.176-.076-.082.11.11.062.016-.24.294.112.239-.086.55.194-.708.815-.064.254.088.163-.541.72-.288.134-.16-.164-.002-.232-.149-.032.067-.172-.107-.034-.038-.138.101-.032.012-.165-.041.145-.238-.024v-.155l.21-.132-.088-.212.114-.152-.088-.05-.01-.274-.062.17-.082-.154.04-.473-.074-.07-.048.22-.166-.092.098-.164-.066-.19-.15-.096v-.11l.57-.088.317.096Z" fill="#FDFBF5" stroke="#171619" stroke-width=".5"/><path d="m110.969 204.066.02-.054-.076.022.056.032Zm-.096-.35.008-.03-.044.006.036.024Zm-.052.002-.036-.038-.028.012.064.026Zm-.688-.601-.079-.042.072.136-.082.078.481-.002.304.148.08-.05-.096-.27-.116.076-.564-.074Zm-2.673-.072.06-.06-.032-.042-.028.102Zm-.256-.136.056-.026-.076-.038.02.064Zm.232.064-.052-.15-.084.044.136.106Zm-.188-.16v-.04l-.016.034.016.006Zm.248-.04-.032-.064-.044.076.076-.012Zm.108-.188.016-.123-.048.103.032.02Zm.156-.151-.08-.174.004.13.076.044Zm.104-.098.12-.132-.16.094.04.038Zm.281-.094-.133-.058.026.036.107.022Zm.498-.324-.034-.138-.038.142.11.09-.038-.094Zm2.394-.381-.002-.054-.186.063.188-.009Zm-.168-.042-.028-.032h-.05l.078.032Zm-1.838.004-.04-.058-.178.074.074.299.144-.315Zm1.866-.042v-.028h-.028l.028.028Zm.248-.04.006-.058-.038.02.032.038Zm.765-.232.132-.124.02-.32-.164-.092-.152.532-.224-.054-.036-.086-.024.16-.104-.086.152.154.056.501.092.024.248-.295.004-.314Zm1.598-2.3.052-.1-.08.036.028.064Zm-4.29-17.663-.381.09-4.156-.024-.62 2.448-1.926-1.151-.751 1.275 2.19 1.29-1.834 3.997-9.983 3.576 14.906 10.456.052.182.168-.028.084.184.233.038.14-.236-.124.104-.116-.094-.048-.12.1.068.1-.244-.14.034-.056-.114.136-.266.292-.052-.196.012.072-.193.128-.042-.128-.076.156-.094.08.102.144-.292.072.032-.008.19.19-.312.099.106.124-.056-.341-.158-.2-.457.052-.046.353.303.18-.076.064.12.056-.106.044.1.306-.351.487-.054-.116-.24.2.178.2-.032.054.152-.122-.032-.22.23-.052.285.084.082-.239.24.201-.086.142.2-.114-.022-.006.132-.116-.094-.101.184.022.181.083.046.062-.07.022.086.032-.062.184.188.378-.124.635.21.466-.048-.272-.969.096-.276-.118.17-.054-.541-.222-.146.022-.308.032.072h.308l-.03.182.286-.138.09.046.11-.32.229.026-.084-.371.104-.07.212.118.096-.274.28.286.024.215.08.04.281-.885.408-.409.04-.452-.196-.088.248.042.132-.108.068-.309-.052-.098-.06.102.044-.428.18.054.045-.07.048.13.096-.06.1.078.084.28-.064.311.104.016.208-.953.977-2.383-.012-.258-.264-.018.3-.022.304-1.073.551-.927-.306-.208.248-.486-.13-.008-.463-.625-.258.252-.002.268-.368.091.2-.343-.156-.342-.044-.965-.277-.356.145-.329-.053-.204-.272-.196-.224.164.032-.446-.38-.465.052-.324-.144-.04-.065-.142.057-.092-.405-.299-.116-.34-.216-.082-.349-.451-.42-.206-.496-.564-.257.06-.116-.06-.098.082-.388-.339-.038-.34.26-.166-.012-.132-.148-.084.226-.108-.016-.597-.366.082-.325-.256-.064-.407-.132-.108.066-.182.074.008.016-.797-.122-.314-.116-.026.092-.711-.17-.192-.238-.068-.156-.47Z" fill="#FDFBF5" stroke="#171619" stroke-width=".5"/><path d="m93.749 169.514-.15-.122-.389.022-.118.168-.412.006-.093-.12-.61.256-.176-.364-.389-.328-.414-.551-.246-.014-.295-.188-.606-.627-.629-1.077-.985-1.265-2.072-1.515-.112-.291-.21.389-.469-.006-.374.352-2.705 1.444-.686-.233-.423 1.834-.464.348-.489 3.838-.332.022-.026 1.998-.396.148-.217-.238-.358-.158-.216.13-2.06.132.412 2.589-.534.24v.526l-.098.129-.365.048-1.533 1.671v.429l.254-.08.234.086.19-.054.076.108-.194.7-.218.237.054.176.304.002.993-.246.299.09.244.306.478.058.145.168.33.108.334 1.498.46 1.127 13.264 9.303 9.981-3.578 1.834-3.993-2.188-1.29.749-1.279 1.928 1.155 3.133-12.442-.447-.154-.272.044-.15-.13-.116.168-.11.012-.243-.416-.172.082-.048-.147-.158-.006-.114-.448-.31.108-.173.23-.302.145-.046.188-.12-.05-.022-.161-.362-.034-.317-.198-.012-.19-.178.066-.166-.078-.681.114-.228.266-.154.024-.725-.118-.104.116-.336.087-.425-.125-.602.381-.323.068-.11-.152-.138.136-.586.168-.155-.152.199-.032.03-.124-.583-.086-.114-.096-.775-.017-.566-.224-.213.098-.628.052-.078-.214-.375-.334-.694-.128.016-.22-.294.076-.205-.229-.406-.012-.354-.136ZM122.218 177.796l-.02-.024-.02.004.04.02Zm.22-.568.119-.15-.145.052.026.098Zm-.308-.156.006-.122-.044.128-.282.07.224.096.096-.172Zm.461-.144.004-.057-.026.025.022.032Zm-.261.028-.088-.261-.04.192.128.069Zm3.878-7.434.104-.178-.128.144.024.034Zm.184-.108-.016-.142-.12-.168.136.31Zm-.316-.108-.024-.294-.048.162.072.132Zm.056-.627-.048-.224.156-.594-.196.616.072.381.016-.179Zm.124-1.141.008-.29-.072.102.064.188Zm.292-1.343-.012-.1-.044.054.056.046Zm-.088-.114v-.03l-.028.008.028.022Zm-.128-.406-.116-.038.108.132.008-.094Zm-.168-.014-.012-.139-.084.002.096.137Zm.34-.119.064-.172-.036-.04-.028.212Zm-.176-.102.048-.14-.048.032v.108Zm.04-.212.104-.144-.108.098.004.046Zm.196-.244.121-.222-.048.006-.073.216Zm.012-.146.017-.112-.033.08.016.032Zm-.076-.026-.04-.108-.128.12.168-.012Zm-.272-.122.008-.076-.052.054.044.022Zm.068-.111-.036-.066-.016.044.052.022Zm.112-.194-.008-.15-.056.427.124-.141-.06-.136Zm-.044-.204-5.723-8.086-13.433 15.209-2.527 9.984 4.156.024.381-.09.156.47.238.068.17.192-.092.711.116.026.122.314-.016.797-.074-.008-.066.182.132.109.064.406.325.256.366-.082.016.597-.226.108.148.084.012.132-.26.166.038.34.388.339.098-.082.116.06.257-.06.496.564.42.206.349.451.216.082.116.34.312.182.101.351.144.04-.052.324.38.465-.032.446.224-.164.268.194.133-.15-.117-.22.305-.144.296-.401.208.22.22-.074.163.147.26-.125.176.046-.062-.186.128-.118-.07-.19-.128-.032-.018-.174.57-.088.369.064.042-.307.088.101.266-.129.072-.238.108-.014.004.076-.292.523.16.17-.036.174.08.136.243.062.202-.084.318.17.406-.246 1.154-2.478.284-1.135.52-1.372-.092-.338-.212.062-.316-.104.316.072.212-.062.04-.451-.112-.25-.356-.078-.144-.136-.156.164-.061-.076-.148.242-.26.036-.088-.154-.112.086-.052-.248-.264-.21.204-.056.128.144.26-.096-.104-.05-.02-.148-.464-.02-.173-.261.004-.166.289-.214.024.094-.136.04.02.196-.08-.026.088.303.124-.022.04-.123.036.073.448-.051.601.581.452.016.685-1.315.512-1.516.813-1.683-.044-.385-.26-.076-.108-.144-.224.208.168-.256-.188-.088.108-.11-.05-.316.078-.071.132.061.15-.139-.106-.21.931-.358-.26.38.188.371-.044.246.122.03-.088.072-.194-.046-.223.166-.044.226.104.03.639-.558.144.022.01-.11.21-.034.006-.101.567-.284 1.329-.927.236-.652-.116-.183.044-.498-.22-.37.072-.355.264-.45-.072.026.028-.136-.132-.182.245.194.46-.559-.024-.666-.112-.255.38-.396-.072-.274.072-.213.172-.178.277-.098.016-.222.188-.232.336-.086.212-.173.109.069.072-.179-.089-.178-.368.325-.36-.053-.317.077-.132.35-.22.148-.056.28-.108.04-.084-.116-.152.176.092.066-.136.095-.036-.569.172-.17-.084.042.096-.913-.052-.474.156-.057.044-.462-.236.072.004-.178.152-.116.128.178.152-.472-.428.236-.076-.174.068-.101.096.061.048-.455.044.266h.104l.12-.496.052-.06-.02.126.12-.284-.032-.118.188-.177-.04-.076-.064.048.048-.238-.26-.486-.092.15-.052-.162-.108-.044.096-.086-.04-.161.172.014-.016-.154-.128-.038.08-.028-.024-.204.096.194.136-.192-.036-.308-.044.092-.104-.056-.16-.287.172.01-.056-.28.216.032.048-.072ZM137.119 155.797l.124.048-.012.132-.162-.084-.01-.134.06.038Zm1.397-.182-.112.01.136-.16-.024.15Zm-.466-.188-.034-.056.048.032-.014.024Zm.57.022-.004-.112.06.034-.056.078Zm-.586-.287.188-.016-.251.098-.032-.128.095.046Zm-.273-.166.084.038-.034.082-.136-.064.086-.056Zm-.402.02-.04-.042.024-.006.016.048Zm3.339-.164.469.831-.04.108-.893.044-1.089.691-.016-.679.068.006.02-.306.112-.152.436.054-.22-.215.168-.184.457-.01.072-.1.044.094.18-.192.168-.056.064.066Zm-1.509.062.156-.166-.052.116-.104.05Zm-.076-.152.016-.048.06-.006-.076.054Zm.068-.196.004.048-.14.016.136-.064Zm2.33-.072-.052-.044.044.004.008.04Zm.192-.03-.036-.038-.004-.042.04.08Zm.877-.088.096-.01.028.098-.192-.102.068.014Zm-.26-.038.304.724-.296.303-.365.674-.332.182-.396-.018-.116-.154.172-.232.028.094.056-.124.232-.108.364.112.177-.336-.193.148-.2-.126-.208.054-.128-.07-.369-.515-.152-.602.285.04.16.154.024-.058.056.156h.196l-.128.358.152.096.06-.066-.116-.084.256-.316-.052-.138.184.012.161.204-.177.178.108.138.265-.16-.094-.096.082-.212-.156-.164.074-.092.082.044Zm.092-1.224-.024-.01.012-.024.012.034Zm1.619-.034-.254-.014-.054-.154.242-.044.118.108-.052.104Zm-1.447-.368.068.094-.276.12.064-.194.144-.02Zm.817-.028-.144.018.05-.094.094.076Zm1.057-.182.062.08-.084-.016.022-.064Zm-1.672-.673-.074-.046.056-.052.018.098Zm.016-.138.05.03-.052-.002.002-.028Zm2.863.282.152-.068.128.154-.232.102-.304-.14-.04-.104.1-.08.02-.216.108.072-.044.204.112.076Zm-1.732-.366.144.112-.182.324-.328.03-.32.327-.217.008.167.156-.079.09-.332.014-.23-.138-.03-.284-.26-.071.074-.196.33-.112.114.008-.032.178.22.163.02-.389.269.088.202-.19.276-.08-.012-.072.206.034Zm.641-.671.234.08-.04-.11.1-.022.341.343-.053-.165.109-.036.246.217-.102.092.292-.044-.152-.157.062-.028.182.153.3.064.044.182-.256.28-.04-.122-.2.126-.08-.272-.509-.024-.196.344-.104.004.232.146.056.18-.084.185.188.124-.196.168-.384-.056.1-.084-.112-.028-.02-.208.17-.07-.044-.095-.054.115-.112-.01-.028-.107-.1.034.096.141-.24.114.184.046-.405.146-.228-.024.156-.07.098-.218-.11-.006.096-.415.215-.014-.177-.29.337-.124.118-.228-.106-.081.144-.248.032.072Zm.504.024-.058-.058.052-.05.006.108Zm-.104-.048-.05-.072.052.022-.002.05Zm-2.678-.068.036.052-.132.01.044-.204.052.142Zm4.614-.905.124.034.104.211-.252-.135.024-.11Zm-.472-.336-.076.086.008-.094.068.008Zm-.429-.204.112.036-.016.138-.108.024-.044-.1-.04.094-.204-.034.156-.056.044-.122.1.02Zm.589.124-.104-.146.12-.108-.016.254Zm1.846.392-.457.549-.128.022.481-.703.616-.608-.512.74Zm-.533-.833.036.035-.14-.053.104.018Zm-.26-.062.1.05-.136-.026.036-.024Zm.084-.034.008.04-.084-.028.076-.012Zm-1.578.064.004.087.185-.077.048.127-.653.076.112-.213.06.052.06-.098.128.046.072-.078-.016.078Zm1.446-.042-.04-.044.052-.004-.012.048Zm.809-.196.06.07-.1.154.04-.224Zm-.253.032-.048-.04.1-.006-.052.046Zm-1.569.004-.024.078-.068-.086.072-.084.02.092Zm.444-.348-.052-.034.072-.06-.02.094Zm.497-.044-.044-.102.052.064-.008.038Zm2.206-.064-.376.368.266-.424.11.056Zm-2.599-.062-.088.026.04-.056.048.03Zm.521.022.004-.068.068-.012-.072.08Zm-.324-.11-.04-.046.064-.04-.024.086Zm-.269-.082.028.094-.108.036-.004-.114.084-.016Zm2.747.01-.202.088.088-.116.114.028Zm-2.763-.127.068.02-.08.059.012-.079Zm3.191-.018-.012-.016.024-.014-.012.03Zm-.388.267.162-.297.082.004-.244.293Zm-2.47-.178.048-.121h.128l-.176.121Zm2.786-.109-.016-.014.056-.024-.04.038Zm.167-.254.068-.154.07.012-.138.142Zm.504-.769.068.042-.184.079.116-.121Zm.789-.372-1.071.983.526-.679.371-.198.078-.134.096.028Zm.036-.028-.016-.028.032-.034-.016.062Zm.204-.232-.016-.012.022-.036-.006.048Zm-.26.004-.016-.036.05-.066-.034.102Zm.304-.094.062-.166v.07l-.062.096Zm.457-.313-.033-.006.057-.068-.024.074Zm.184-.358-.02-.006.018-.046.002.052Zm.028-.072-.024-.004-.004-.026.028.03Zm.376-.535-.216.275.116-.287.264-.132-.164.144Zm.104-.154-.036-.12.06.08-.024.04Zm-1.774 1.38.069.004-.131.216-.458.356-.056.118.068.04-.162.181-.072.03-.126-.175-.229.101-.006.08.223-.07v.09l.16.076.096-.072-.577.518-.2.391-.234.06-.316.42-.004.176-.197.134-.04.22-.012-.136h-.152l-.172.281-.348.272-.048-.38.152-.179-.048-.308-.249-.084-.06.086-.048-.13-.132.142-.12-.04.06.13-.124.05.04.114-.248-.048.108-.112h-.104v-.12l.14.008-.012-.104.184-.116-.076-.288.068-.099-.268.211.048-.231-.104.081.012-.221-.348.198.12-.27-.096-.034.116-.154-.325.222-.152-.002-.1.21-.268.217-.084-.034-.032.16-.108-.066.004.12-.197.052.036.148-.328.302.024-.108-.292.266-.124-.034-.04.123-.076-.125-.072.253-.117-.239-.338.175-.072-.052-.444.304-.086-.05.016.166-.119-.006.05.15-.076.078.086.066-.088.012.006.227-.044-.183-.094-.002-.066.154-.16.079.022.11-.232.384-.196-.106-.016.122-.171.122-.1-.128.078-.15-.068-.104-.304.148-.06-.28-.132-.112.152-.123-.136-.33.082-.216.094.022-.048-.477.08-.026-.216-.248.104-.022.312-.522.062.084.028-.124.103.04-.021-.233.173-.06.076.078.052-.154.332-.252.072.036-.028-.122.11-.094-.132-.268-.084-.006-.094.23-.338.302-.167-.034-.068.106-.092-.194.004.17-.136.132.094.044-.222.108.068.057-.148-.006-.12-.135.092.219.144.038-.086.162-.09.026-.164-.134.094.154-.118.018-.257.326.073.016.004.256.144.038-.128.277.084.188-.144.166.008.17-.073-.126.044.2-.24.453.136.072.016.228.072.004-.056.254.089.195-.077.126-.128-.133-.06.123.088.09-.116.032-.092-.014-.124-.275.128-.2-.408-.37.048-.048-.116-.012.14-.166.096.056-.096-.118.152.008.052-.213-.312-.022-.112-.32-.357-.022.1-.154-.152.028-.056.166-.116-.016.16-.066-.316.004-.096-.122.124-.252-.12.022-.012-.413-.188.417-.237-.076.068-.191-.092-.242-.216-.112.012-.194-.096.194.172.3-.048.088-.212-.024.012-.082-.364.016.088-.048-.116.006.064-.146-.12.13-.127-.164-.326-.014-.02-.118-.08.106-.15-.054-.022-.124-.094.174.326.11.136.09-.048.08.096-.022.132.153.353.114-.1.12.18-.008.236.136.176-.044.244.172-.044.078.205.016.172.166-.016.082-.168-.028-.089.122-.512.024-.084.143.388-.046.22.106.153-.187.252.115.204-.056.06-.111.212.04-.06.713-.252-.188v-.094l-.204.01.132.102-.18.13.308.118.076.222-.272-.14-.144.201-.457.112.361.024v.112l.316-.295.012.115-.176.13.14.046.124-.122.112.058.06-.06-.044.264.168-.124.165.244-.037.763.157.616-.06.495.08.542.132.219-.457-.179-.076-.278-.052.084-.104-.07-.096.08.044-.268-.132-.062-.032.188-.236.096.188.052.08.194-.452-.024.376.193-.088.022.048.076-.18-.056-.128.172.308.012-.541.142.116-.112-.112-.016-.436.2.268-.244-.432-.06-.367.188-.026-.1-.096-.004-.112.138.108-.006.088.126-.372.304-.064-.314-.132.11-.008-.194.082-.06-.122.022-.116.276-.1.006-.183-.134-.06-.378-.038.356-.118-.16-.144.006-.088-.354-.042.15-.096-.201-.299-.194.023-.092-.205.04.361.275.248.432-.016.204-.058-.082-.13.226-.197.022-.126-.11.104.164h.295l.1.112.198-.21.086.22.348.165-.256-.102-.112.236.222.11.102.222.032-.06.055.23-.199-.264-.45-.17.084-.194-.098-.088-.09.132-.122-.034-.032-.12-.144-.008.2.312-.19-.042-.039-.096-.266.204.25.102.014.3.129-.06.31.106.018-.152.637.274.138.507-.04.156.156.022.024.184.17-.002-.106.182-.192.01.056.111.172-.024-.184.116-.004.128-.184.17.172-.11.092.096-.028-.252.128.01.18-.231-.02-.17.106-.048-.072-.28.182.098-.028-.22.136.226.285.084.148.284-.016.393-.923.733-.166.482-.465-.012-.278.136-1.341.238-4.465-1.411-3.825.012v-2.991l-.833-4.322 13.909-6.376 13.193-1.121-.849.83-.54.863-.26.136-.841.943-.178.098-.155.289Z" fill="#FDFBF5" stroke="#171619" stroke-width=".5"/><path d="m73.801 140.63-.576-.006-.127-.252-.192.056-.358-.214-.25.09-.19-.064-.585.288-1.043-.256-.971.839.572.566 1.003 1.968-.804.337-.225-.059-.092.089-.234-.05-.532.078-.155-.157-.494.363.3.698-.214.004-.232.343-.705-.699-.476.681-.283.118-.927.094-.378.653.084.124-.052.18.104.082-.122.142.246.108.148.25-.052.537-.144.072.363.589.242.128.096.228.98.042.21.262.361.174.225.353.07.352.404.242.196-.046.1.092.93.093 1.831 1.223 1.664.638.164.163-.036.156.154.092.29-.014.605.546.546.152.863-.124.68.188.173.337.324.136.014.086-.212-.024-.196.116-.386.541-.198.102.066.698-.129.321-.086.022.04.142h-.302l-.176.23-.282-.084v.116l-.165.078-.116-.16-.098.016-.122.22-.17.058 5.045 5.87.574 1.107.253.288.204.579.412.038.177.386-.12.347.07.392.326.407.592.156L85 164.239l.374-.352.469.006.21-.388.112.29 2.072 1.515.985 1.266.629 1.077.606.626.294.188.247.014.414.551.389.328.176.365.61-.257.092.121.42-.011.11-.164-.532-.39-.096-.378h-.24l-.3-.807-.206-.074.076-.222-.216-.033.042-.21-.155-.112.024-.158-.232-.118.072-.206-.094-.413-.17-.148.084-.31.188-.18-.8-1.778-.193-.723-.31-.28.016-.14-.11-.088-.3-.975-.177-.076-.144-.417.138-.162-.312-.146-.024-.388-.198-.355.016-.176-.204-.076-.122-.246-.163-.086-.274-1.181-.43-.067-.14-.224-.179.002-.084-.162-.192-.038-.228-.893-.266-.032-.26-.296-.227.008-.544-.348-.455-.063-.144-.116-.042-.216-.128-.052.058-.28-.218-.114-.06-.168-.213-.006-.094-.223-.152.008-.132-.712-.106-.068.126-.159-.21-.152-.102-.398-.126-.126.028-.224-.427-.135-.136-.296-1.135.385-.038-.479-.176-.21.126-1.199-.128-.291.022-.186-.094-.246-.238-.062.096-.206-.094-.072.04-.161-.096-.082.026-.106-.165-.1.036-.096-.324-.731.024-.246-.12-.176.192-.581-.246-.014.018-.214-.162-.468.046-.124-.262-.074-.069-.143.14-.288-.238-.14-.644-.681-.174-.356.052-.226.216-.002.076-.271-.21-.818-.202-.074.05-.383-.125-.174-.196-.002-.018-.328-.388-.335.056-.124-.63-1.181-.23-.13-.141-.214-.2.05-.256.234.068.29-.315.271-.138-.076-.214-.437-.09.082-.068-.078-.21.054-.02.791-.437.396-.344-.7-.036-.479-.194.048-.283-.466-.368-.09-.026-.198-.396.288-.106-.02.023-.142-.352.004.12-.116-.238-.099.084-.126-.086-.054ZM64.862 135.105l-.322-.275.15-.082-.126-.232-.18.106-.369-.638-.358.084-.757.536-.37-.272-.633.116-.676-.224-.23-.228.6-.649-.459-.25-.408-.02-.218.234.23.408-.484.062-.263-.126-.054.254-.178.016-.042.173-.37-.104.068.168-.849-.471-.136.224.134.141-.282.41-.413-.18-.174.294-.366-.064-.174.583-.567-.026.046.162-.142.128-.002.212-.489.737.187.044-.058.042.126.104.07-.032.34.494.148-.04.705.549.735.172.402-.07.25.074.249-.156.332.162.16-.06.11.214.298.154.44.062.137.067-.07.094.885.372.258-.016.282.212.044-.096-.302-.31-.09-.377-.392-.22-.14-.344-.207-.222.707-.661.783-.32.076-.094-.2-.451.444-.158.15.382.447-.174 1.029.224-.072-.142.088-.224.114.006.092-.15.214-.096.08.034.012-.256Z" fill="#FDFBF5" stroke="#171619" stroke-width=".5"/><path d="m49.475 130.853.247 2.528-5.888 6.31.633 1.398.032.272-.13.412-.123-.026-.202.345.016.122-.154.032-.068.568-.098.052.346.989-.14.082-.024.174-.176-.12-.054.106-.136-.014.19.187.042.202-.054.108-.118-.05.012.148-.12.078-.077.483-.206.164.203.084-.008.118-.299.356.024.076.234.04.002.311.21-.072.053.264.13.146.024.306-.11.405-.134-.01-.01.266-.213-.004.343.376-.2.15.182.445-.104.21.074.22-.086.237.006.692-.189.663v.865l-.56.002v.428l30.422 17.063 3.025 2.056.384 2.408 2.06-.132.22-.13.354.158.21.236.3-.062.105-.092.024-1.99.332-.022.489-3.838.464-.348.423-1.834-.233-.33-.07-.392.12-.347-.176-.386-.412-.038-.204-.579-.252-.288-.575-1.107-5.045-5.87.17-.058.122-.22.098-.016.117.16.164-.078v-.116l.282.084.176-.23h.302l-.04-.142.087-.022.128-.321-.066-.698.198-.103.386-.54.196-.116.213.024-.014-.086-.325-.136-.172-.337-.68-.188-.864.124-.546-.152-.605-.546-.29.014-.154-.093.036-.156-.164-.162-1.664-.638-1.832-1.224-.928-.092-.1-.092-.197.046-.378-.22-.096-.374-.225-.353-.362-.174-.208-.262-.995-.046-.078-.218-.238-.127-.365-.584.145-.102.046-.519-.149-.25-.246-.108.122-.142-.104-.082.052-.18-.084-.125.21-.246-.018-.144.186-.278-.176-.06.123-.232-.17-.087-.057-.138.05-.294-.11-.052-.178.134-.466-.18-2.631-3.53-.336-.17-.09-.162.072-.534.22-.277-.078-.156.14-.296-.613-.288.068-.126-.266-.039-.27.061-.785.612-.134-.194.292-1.377-.426-.058-.43-.213-.115-.218-.16.06-.326-.162-.254.156-.25-.074-.403.07-.815-.204-.624-.517-.149.04-.34-.494-.07.032-.126-.104.058-.042-.186-.044.08-.136-.124-.21-3.392-.661.449-.631.462-1.687-.89-.669-3.11-1.465Z" fill="#FDFBF5" stroke="#171619" stroke-width=".5"/><path d="m68.43 125.546-.275.024-.102.136-.1.919-.444-.044-.2.314.532.174.515.641.808.512.132.29-.22.157.12.144.165-.064-.008.176.192.238.346-.382.244.332-.582.302.032.144.45.057.423.238.458.286.296.426-.61.447-.933 1.205-.901-.925-.35-.108-.25.036-.46.242-.277-.092-.377.084-.4.313-.084.216-.256.206.226.45-.134.385.04.194-.397.517-.132.042.086.21-.13.066-.002.292-.228.042-.116.144-.308.044-.034.219-.185.024.016.238-.15.034-.016.27-.08-.034-.214.096-.092.15-.114-.006-.088.225.072.142-1.03-.225-.446.175-.15-.383-.444.158.2.451-.076.094-.783.32-.707.661.206.222.14.344.393.221.09.376.302.31-.044.096-.282-.212-.258.016-.885-.372-.236 1.275.134.194.11-.036.683-.58.37-.068.158.05-.068.126.613.288-.14.296.078.157-.22.276-.057.574.142.193.269.1 2.63 3.529.467.18.148-.124.126.024.004.429.186.108-.122.232.176.076.927-.094.282-.118.477-.681.705.699.232-.343.214-.004-.3-.698.494-.363.154.157.533-.078.234.05.092-.089.224.059.803-.333-1-1.972-.573-.566.9-.831.397.02.717.228.584-.288.19.064.26-.09.349.214.192-.056.126.252.64.034-.067.142.246.117-.132.098.37.008-.02.152.128-.004.363-.276.026.198.368.09.282.466.197-.044.034.475.344.7.436-.396.02-.791.21-.054.069.078.09-.082.214.437.152.074.3-.269-.068-.29.07-.102.387-.182-.07-.22-.345-.261-.388-.648-.224-.024-.148-.204.302-.199.504.152.767-.206.138-.306.377-.332.404-.134-.13-.173-.182-.885-.116.027-.036-.173-.43-.534-.193-.124-.402.04-.147-.293-.116-.034-.378-.983-.522-.902.034-.117-.47-.402-.81-1.415-.256-.144-.292.102-.06-1.226 2.887-.168 1.167.991.206-.684.212-.251.038-.202.21-.038.3-.428.095-.845-.06-.22.382-.247-.068-.082.12-.052-.204-.204-.256-.016.114-.11.064.06-.148-.304.01-.146.104-.02-.036-.133-.158-.092-.004-.164-.08.014.016-.206-.095.052-.096-.212-.224-.076.128-.134-.086-.179.124-.32.104-.05-.002-.21.255-.24-.066-.12.156-.071-.074-.42-.23.048-.099-.152-.176-.024-.246.206-.05-.276-.196.32-.168.102-.585.018-.33-.917-.174-.054-.165.114-.34.016-.174.061-.17.246-.165-.016-.011.53-.193.128-.132.337-.142.032-.23-.108-.118.066-.096-.132h-.12l-.063.264-.41.056-.072.146-.276.034.066.132-.08.152-.447.046-.1-.11-.172.184-.118-.024-.26.257.014.328-.265.088-.096-.292-.24-.054-.2.15-.459-.372.046-.207-.54-.114-.124-.156-.288.072-.259-.098-.022-.216-.284.116-.266-.084-.098.11-.07-.142-.287-.122h-.67l-.11-.082.053-.098-.11.006-.19-.407-.102-.046-.004-.24-.378-.354-.108.02Z" fill="#FDFBF5" stroke="#171619" stroke-width=".5"/><path d="m53.858 128.264.166.086.144-.056.194.156-.112.261.15.116.1.276v.348l.182.082-.196 1.222.08.38-.426.763-.062-.028-.445.538-.62 2.266-.449.631 3.392.661.124.21.408-.601.002-.212.142-.128-.026-.186.547.05.174-.583.366.064.174-.294.413.18.282-.41-.134-.14.136-.225.849.471-.068-.168.37.104.042-.172.178-.016.054-.255.263.127.484-.063-.23-.408.218-.234.409.02.458.25-.6.649.392.306.52.146.627-.116.37.272.757-.536.358-.084.369.638.18-.106.126.232-.15.083.322.274.128-.024.01-.262.184-.024.035-.219.308-.044.116-.144.26-.084-.03-.25.13-.066-.086-.21.132-.042.4-.533-.043-.178.134-.385-.226-.45.712-.723.405-.096.278.092.458-.242.263-.032.338.104.9.925.4-.456-.275-.054-.196-.243-.104.04-.192-.094-.199-.262-.094.04-.91-.983-.409.164-.25-.142-.35.328-.425.169-.33-.167-.048.197-.405.19-.438-.11-.188.096-.14-.24-.183-.109-.406-.042-.292-.156-.42.156-.281-.058-.29-.39-.853-.691-.29-.066-.207-.354-.852-.553-.105-.3-.286-.034-.116-.3-.14.03-.074-.11-.258-.052-.12-.157-.389-.092-.272-.27-.365-.146-.632-.455-.527-.05-.184-.266-.37-.236-.689-.833-.28-.126-.263.186-.164-.064-.84.821.206.484-.653-.066.078.449.162.258-.218.501-.504.342.136.144-.316.178ZM15.528 123.163l-.662-.268-.34.034.013.172-.086-.04-.546.194-.34.727-.123.833-.172.266-.36.02-.095.058.087.102-.425.29.026.165-.12.036.194.082.126.236-.406.404-.252.623-.623-.487-.837-.454-.09.054.132.266-.222.309-.903.176-.028.128-.32.076-.422-.559-.683-.462-.274-.07-.365-.579-.396-.282-.206-.342-.217.294-.254-.104-.132.23-.154.016-.168-.126-.337.248-.066-.116-.256.208-.204-.1-.316.086-.32.403H1.33l.136 3.978 1.638.026.178.166.088.558.172.138.253-.074.448-.364.204.028 12.941 7.287-.84-3.573-.31-.05-.04-.233-.36-.244.023-.204-.443-.294.05-.215-.124-.588-.148-.192-.142-.479.06-.264-.405-.438-.128-.659 1.033-.991-.186-.054-.284-1.295.256-3.422.254-.494-.126-.801Z" fill="#FDFBF5" stroke="#171619" stroke-width=".5"/><path d="m60.526 122.052-.52-.03-.313-.288-.13.036-.542-.307-.135-.192-.514-.082-.64.102-.253-.1-.254.1-.303.319.033.682-.119.551.038 1.003.29 1.265.291.338-.298.014.082.153-.036.374.37.236.184.266.527.05.633.455.364.146.272.27.389.092.12.157.258.052.074.11.122-.042.134.312.286.034.105.3.852.553.207.354.29.066.853.691.338.406.232.042.42-.156.293.156.406.042.183.108.14.241.188-.096.438.11.405-.19.048-.197.33.167.424-.169.35-.328.251.142.408-.164.911.983.094-.04.199.262.192.094.104-.04.196.242.274.055.535-.749.61-.447-.296-.426-.458-.286-.423-.239-.45-.056-.032-.144.582-.302-.244-.332-.346.382-.192-.238.008-.176-.165.064-.12-.145.22-.156-.132-.29-.808-.512-.515-.641-.532-.174.2-.315.444.045.096-.907.106-.149-.118-.108-.118-.516.102-.062.184.062-.162-.144.066-.056-.178-.341-.132-.06.096-.076-.104-.262-.098.01-.04-.1.032-.224-.154-.297.018-.188-.222.11-.27.315-.259-.503-.406.074-.046-.266-.148-.092-.006-.272-.293-.002-.058.112-.226-.062-.354.11-.267-.048-.174-.086-.036-.185-.799-.348-.21-.308-.436-.066-.22-.136-.387-.01-.188-.165-1.311.569-.002.098-.705.006ZM20.019 119.884l-.259.19-1.64.665-.314.272-.945.336-.368.517-.474.08-.355.587-.158.732.148.701-.254.494-.256 3.422.284 1.295.356-.004.509.158 6.747-1.675-1.384-2.331-.426-.244-.319-.012-.216-.29-.17.022-.68-.435-.343-.336-.234-.066-.078-.268-.26-.12-.265.058-.166-.299.254-.164.27.084-.053-.358.126-.402.316-.323.064-.232.218-.17.106.01.389.48.074-.168.12.17.128-.098.066-.288-.234-.206.06-.1-.178-.221.23-.674-.02-.339-.416-.45Z" fill="#FDFBF5" stroke="#171619" stroke-width=".5"/><path d="m36.585 121.97-.19.935-.245.224-.098.346-.216.101-.162.342-.352-.374-.519-.253-.282-1.669-3.814 1.135.59 1.529 2.087 1.674-.455.384-.434.142-.16.189-.05.306-.16.164-.147.01.012.19-.116.084-.004.136-.042-.066-.144.036-.152.105.026.14-.182-.002-.008.164-.124.032.074.242-.093.038.043.28-.1.273-.349.044-.102.176-.404.054-.24.31-.225-.206-.09.256-.09-.14-.126.142-.124-.054-.07.096.056.082-.345.12-.098.205h-.15l-.588.334.006.068-.189-.038-.066.152-.188.028-.03.102-.178-.012-3.153-2.552-1.386-.32-6.746 1.675-.57-.146-1.142 1.037.088.555.445.542-.06.264.142.479.148.192.124.589-.05.214.443.294-.023.204.36.245.04.232.31.05.84 3.573 25.409 14.324v-.428l.56-.002v-.865l.188-.663-.006-.692.087-.237-.075-.22.105-.21-.182-.444.2-.151-.343-.376.212.004.01-.266.135.01.11-.405-.024-.306-.13-.146-.052-.264-.21.072-.003-.311-.234-.04-.024-.076.298-.356.008-.118-.202-.084.206-.164.077-.483.12-.078-.012-.148.118.05.054-.108-.042-.202-.19-.186.136.014.054-.107.176.121.024-.175.14-.082-.346-.989.098-.052.068-.568.154-.032-.016-.122.202-.345.122.026.13-.412-.032-.272-.632-1.398 5.888-6.31-.247-2.528-1.427-2.725-1.181.406-.208-.358-.17-.002.086-.144-.405-.721-.234-.707.602-.646.055-.389-.163-.128.2-.256-.622-.426-.152-.605-.224-.048-.833-.725-.054-.728-1.38.786-.35-.308-1.305 1.017-.34-.174.01-.18-.763-.939-.303.016.056-.14-.068-.128.787-.038.69.61.643-.707-.712-1.449-.215-.03-.072-.106-.57-.074-.298-.411-1.157-.648.154-.439-.058-.12-.429.2-.06-.382-.23-.03-.56 1.618-.675-.116-.427.442-.144.01-.012.544-.372.495Z" fill="#FDFBF5" stroke="#171619" stroke-width=".5"/><path d="m23.806 119.85-.37-.048.014-.252.134-.106.092-.651-.254-.547-.25-.142-.375.309-.642.278-.601.476-.713.367-.454.104-.369.246.417.45.02.339-.23.674.178.221-.06.1.234.206-.066.288-.128.098-.12-.17-.074.168-.389-.48-.106-.01-.218.17-.064.232-.316.323-.127.402.054.358-.27-.084-.254.164.166.299.264-.058.26.12.079.268.234.066.342.336.681.435.17-.022.216.29.319.012.426.244 1.384 2.331-.025-.181.127-.192.148.05-.086-.532.208-.044.254.16.937-1.043-.87-1.886.177-.176.3-.106-.338-.719.004-.222.16-.292-.124-.233.1-.328-.29-.637.094-.562-.062-.122.074-.05-.094-.239.166-.292-.094-.158Z" fill="#FDFBF5" stroke="#171619" stroke-width=".5"/><path d="m29.335 117.996-.134.198-.36.166-.55-.146-.325.13-.544-.042-.28.665-.189.212.23.094-.038.173-.68.12-.068-.11-.066.03-.095-.241-.118.04-.182-.148-.16.044-.164-.194-.132.182-.052-.086-.268-.04-.293.182-.104-.032-.052.132-.256-.014-.212.345-.297.03-.12.098.074.228-.166.288.094.239-.074.05.062.122-.094.562.296.683-.106.282.124.273-.16.252v.238l.334.703-.3.106-.178.176.87 1.886-.936 1.043-.254-.16-.208.044.086.532-.148-.05-.127.192.024.181 1.386.32 3.16 2.556.171.008.03-.102.188-.028.066-.152.189.038-.006-.068.588-.334.146.004.102-.208.345-.121-.056-.082.07-.096.124.054.126-.142.09.14.066-.25.106.124.12-.024.022.1.24-.31.405-.054.102-.176.348-.044.1-.273-.042-.28.092-.038-.074-.242.125-.032.008-.164.182.002-.026-.14.152-.105.144-.036.042.066.004-.136.116-.084-.012-.19.146-.01.16-.164.05-.306.16-.189.435-.142.454-.384-2.086-1.674-.59-1.529 3.814-1.135-2.713-4.459-.843.797-.18-.106-.188.078-.206-.064-.094.08-.962.048ZM12.441 115.84l-1.221.687-1.97 1.683-.328.154-.273-.038-.236-.208-.849-1.513-5.845-.006-.393 2.354-.162 2.142.166 4.815h3.055l.32-.403.317-.086.204.1.256-.208.066.116.337-.248.168.126.154-.016.132-.23.254.104.217-.294.206.342.396.282.365.579.274.07.682.462.423.559.32-.076.028-.128.903-.176.222-.309-.132-.266.09-.054.837.454.623.487.252-.623.406-.404-.126-.236-.194-.082.12-.036-.026-.165.425-.29-.087-.102.095-.058.36-.02.172-.266.122-.833.417-.797.556-.084-.014-.172.34-.034.663.268.136-.633.354-.586.475-.08.368-.517.945-.336.315-.272.698-.345.941-.32.627-.436.454-.104.713-.367.6-.476.643-.279.375-.308.036-.13-.213-.298-.152.27-.274.066-.058.108-.242-.076-.499.128-.402-.082-.012-.182-.299.008.02-.358-.42.174-.124.154-.048-.094-.38-.054-.087.064-.088-.108-.678-.084-.022-.337-.243-.394-.248.058-.158-.126.048-.128-.144-.002-.054-.178.148-.036-.092-.173-.084.02-.25-.264-.174.076-.11-.482-.966-.629-3.481.274-.98.551ZM81.4 118.37l-.158-.044v-.182l-.256-.022-.158-.184.014-.152-.23-.106.142-.427-.136-.088.1-.262-.166-.204-.26.138-.06.322-.11.088.021.245-.282.144-.128.282-.275.022-.102.092.044.066-.542.481-.346.206-.51.046-.377-.072-.16.102-.243-.008-.148-.144-.378-.1-.238-.235-.403-.094-.632-.652-.573-.11-.34-.287-.619-.178-4.925-4.178 2.315 5.151.024.505-.075.2.105.128-.078.646.118.257-.04.306.354.36.114.403.46.224.093.34.122.11-.146.357.228.304-.305.701.109.366-.072.346.104.161-.014.414.172.07.178.272-.454-.114-.207.088-.02.116-.46-.054-.394.293-.359.014-.5.23-.124-.038-.022.1-.203.108-.636-.104-.197-.284-.84.122-.18.448.02.148.37-.05.376.345.018.256.467.631.662-.004.287.122.07.142.098-.11.266.084.284-.116.022.216.259.098.288-.072.124.156.54.114-.046.206.459.373.2-.15.24.054.097.292.264-.088-.014-.329.26-.256.118.024.172-.184.1.11.447-.046.08-.152-.066-.132.276-.034.072-.146.41-.056.063-.265h.12l.096.133.118-.067.23.109.142-.032.132-.337.193-.128.012-.53.164.016.17-.247.174-.06.34-.016.165-.114.174.054.33.917.585-.018.168-.102.196-.32.05.276.246-.206.176.024.119.156.08-.074.662.012.227-.14-.07-.174.08-.249.176-.07-.038-.22.244-.19.248-.585-.076-.416-.246.01.092-.455-.182-.092-.036-.712.578-.433-.424-.548-.36-.283.094-.552-.108-.387.638-1.401.383-.502.068-.247-.149-.032Z" fill="#FDFBF5" stroke="#171619" stroke-width=".5"/><path d="m71.34 120.08.034-.318-.118-.257.079-.646-.105-.128.074-.2-.024-.505-2.314-5.151-2.05 5.309.004.174-.124.1.006.179-.12.082-.376-.012.04.808-.305.179.128.306-.432.542.062.413-.12.242.314.499.174-.006.195.204.012.264-.088.028-.035.21.09.124-.151.04.008.285.148.092.046.266.406-.074.268.504.26-.316.225-.108-.02.186.154.297-.032.224.04.1.098-.01.104.262-.096.076.132.06.178.341-.066.056.162.134-.188-.052-.098.076.216.6.18-.586.841-.122.197.284.636.104.202-.108.022-.1.125.038.5-.23.358-.014.395-.293.46.054.02-.116.206-.088.455.114-.178-.272-.172-.07.013-.414-.104-.161.073-.346-.109-.366.305-.701-.229-.304.147-.357-.122-.11-.093-.34-.46-.224-.114-.403-.348-.348ZM91.51 111.348l-.282-.115-.332.117-.197-.056-.25.266-.695-.487-.338.088-.408-.28-.43.657-.157-.038-.168.212-.424-.178-.58.368-.177.429-.1.056-.02.326-.182.002-.07.132-.16.052-.079.741-.384.68-.006.233-.38.088-.16.338-.435.378-.248.067-.269-.095-.862.03-.413-.15-.538-.018-.088.393-.26.482.121.25-.124.064-.154.345.122.21-.21.19.136.262-.09.091-.1.602-.262.284-.34.066-.073.299-.346.422-.638 1.39.108.398-.096.544.362.291.424.548-.578.433.036.712.182.092-.092.455.246-.01.076.416-.248.585-.244.19.038.22-.177.07-.08.241.067.186-.24.142-.515.004.074.42-.156.07.066.12-.248.231-.005.22-.104.05-.124.32.09.168-.128.159.22.062.096.212.095-.052-.016.206.086-.006-.002.156.196.206-.124.074.156.415-.064-.06-.114.11.244.012.118.074-.012.096.108.008-.118.082.068.082-.382.246.06.221-.094.845-.3.428-.21.038-.039.202-.212.25-.206.685-1.167-.991-2.887.168.06 1.225.414-.084.32.379.317.726.526.689.25.15-.033.116.114.097.088.366.32.44.379.983.116.034.142.291.414-.034.457.424.194.402.116-.026.182.885.13.172-.404.134-.377.333-.138.306-.766.206-.505-.152-.302.198.148.205.224.024.389.648.186.214.146.03.222.451.23.13.63 1.181-.055.124.388.335.018.328.197.002.124.174-.05.382.202.075.21.818-.076.271-.216.002-.052.226.174.356.644.681.239.14-.14.288.068.142.262.074-.046.125.162.468-.018.214.246.014-.192.581.12.176-.024.246.324.731-.036.096.165.1-.026.106.096.082-.04.16.094.073-.096.206.238.062.094.246-.022.186.128.291-.126 1.199.176.21.038.478 1.135-.384.136.296.427.134-.028.225.126.126.102.398.21.152-.126.158.106.069.132.712.152-.008.094.222.213.006.06.169.218.114-.058.28.128.052.042.216.144.116.455.062.544.349.226-.008.26.296.267.032.228.893.192.038.084.162.178-.002.14.224.431.066.274 1.182.163.086.122.246.204.076-.016.176.198.354.024.389.312.146-.138.162.144.417.177.076.3.975.11.088-.016.14.31.28.192.723.8 1.767-.191.199-.08.302.17.148.094.413-.076.198.236.126-.024.158.155.112-.043.21.217.032-.076.223.206.074.3.806h.24l.096.379.533.39.396-.022.48.254.415.014.212.231.307-.068-.004.228.67.112.375.334.078.214.628-.052.213-.098.566.225.775.016.114.096.583.086-.03.124-.199.032.135.15.29-.036.454-.266.11.152.323-.068.602-.381.425.125.336-.087.104-.116.725.118.154-.024.214-.262.663-.116.198.076.178-.066.02.196.32.196.297.012-8.977-12.636.392.148.773-.094.583-.354.056-.144.312-.212.096-.239.368-.086.299-.186.232.024.116-.25.148-.024 4.403-8.525-1.136-4.23.509-.174.316-.344-.925-12.917-2.474-5.435-7.918-13.717Z" fill="#FDFBF5" stroke="#171619" stroke-width=".5"/><path d="m98.205 111.225-.332.06-.751-.234-.48-.406-.147.28-.506-.172-.17.136-.195.004-.54-.466-.2.084-.667-.317-.292-.034-.24.309-.03.226-.209-.002.018.236-.222.17-.615-.072-.156.319-.47.202-.41-.293-.08.093 7.917 13.717 2.474 5.435.925 12.917-.316.344-.509.174 1.136 4.23-4.403 8.525-.148.024-.116.25-.232-.024-.299.186-.368.086-.096.239-.312.212-.056.144-.583.354-.773.094-.392-.148 9.049 12.668.004.147.148.038.018-.176.302-.145.172-.23.329-.106.096.446.158.006.048.147.172-.082.242.416.111-.012.116-.168.15.13.264-.046.18.108.241-.014.026.146 13.455-15.285 5.789 8.182.237-.274-.145-.12-.17.084.14-.437.397-.042.056.251-.096.116.07.064-.212.204.116.046-.084.064.046.088-.177.058.149-.012-.052.156.068.038.744-1.099.573-.57-.048-.118.2-.261.42-.346.997-.578-.22.224-.752.41-.193.256-.176.002-.134.277 1.247-.907 1.428-.737 1.223-.476 1.103-.191-.461-.18-.67.329-.313-.056-.002-.159.221-.048.152-.376.13.158.086-.028-.156-.216.178.08.076-.124.238-.016-.016-.092.082.058-.016.156.137.062-.01-.206.202.046.126.17-.148.226.052.06.164.012.262.241.31.036.441.284.601.174.144.014.656-.426.715-.831 1.105-.775-1.343.238-4.459-1.409-3.829.01v-2.991l-.899-4.677-.152-.29v-.404l-.219-.417.068-.47-.038-1.47-.49-.79-.106-1.195.262-.799-.252-.531.034-1.057-.118-.735-.214-.428-.569-.671-.194-.9-.358-.673-.329-.07-.642.398-.125-.068-.022-.1.135-.042-.123-.35.064-.144-.114-.063.094-.396-.062-.166-.132-.046-.052-.421-.258-.43.114-.1-.108-.284-.142.02-.026-.267.216-.374-.148-.094-.142-.495.14-.128-.102-.152.144-.146-.032-.176.142-.104-.064-.15-.146-.05.132-.291-.252-.034.094-.096-.088-.136.096-.232-.188-.05-.036-.206-.189-.002.024-.185-.364-.51-.14-.463-.218-.116-.024-.152-.146.034-.081-.074-.13-1.029-.146-.034-.102-.226.074-.128-.178-.14.088-.179-.274-.286-.012-.426-.178-.022-.074-.102.116-.221-.136-.246.174-.074-.156-.114-.109.028.03-.366-.248.144-.01-.232.19-.199-.116-.18-.238-.032.076-.204-.256-.368.082-.102-.118-.093.192-.116-.166-.218.156-.438-.198-.13-.054.196h-.098l.028-.13-.122-.157.212.016-.04-.388-.192-.172.128-.132-.337-.012.177-.216-.183-.008.044-.237-.298-.082-.074-.108.148-.086-.146-.162.17-.068-.03-.18.164-.08-.32-.133-.054-.178.122.026.022-.448-.148-.024.052-.2-.104.07-.09-.138-.048-.201.086-.204-.188.016-.03-.228-.19.026.044-.194-.263-.457.15-.332-.22-.036-.182-.196-.13.08-.194-.182-.022-.168-.156.122-.679-.042.064-.189-.138.073-.012-.145-.14-.082.016-.456-.211.114-.072-.2-.182.032-.038-.222.134-.026.012-.099-.424-.302-.144-.188-.004-.234-.188-.11-.036-.381.13-.272-.319-.228-.002-.152-.094.084-.074-.054.066-.601-.24-.004.034-.23-.116-.076-.006-.292-.098-.069.104-.142-.08-.104.054-.106-.144-.036.046-.098-.088-.212-.138.056-.054-.148-.325-.16-.38-.773-.148.086-.19-.154-.103.19-.162.038.096-.322-.148-.094-.242-.581-.154.02-.036-.104-.226-.054-.147-.168-.048-.239-.284-.21-.166-.016-.352-.402-.417.014-.124.1-.068-.14-.256.042-.433-.557-.162.116-.034-.176-.27.148-.104-.204-.186.018.064-.246-.291-.25-.166.132-.19-.07-.268.102-.138-.08-.359.186-.054-.156-.164.06-.378-.066-.022-.168-.251.044-.226.21-.384-.148-.256.03-.145-.206-.572.072-.026-.215-.258.024-.01-.21-.369-.24-.076-.202-.476-.465-.176-.37-.587.146-.314-.214-.257.25-.116-.004-.08-.124-.214.208-.3-.008-.1.467-.245.074-.328.264-.146-.022-.22-.246-.411.194-1.295-.038-.967-.298-.356-.201ZM68.966 112.875l-3.547-2.286-.136.352-.945-1.037.008-.25-.116.178-.159-.02-.234.238-.542.783-.957.457.14 1.263.206.214.256.092-.044.531.247.08-.197.809.093.212-.209.338-.26.138.152.315-.208.496-.483-.228-1.671-.491-.178-.224-.283.106-.342-1.133.25-.002.38-.398-.25-.457.059-.228-.611-.156v-.643l-.767.062-.516.16-.034-.108-.22.231-.727.174-.102.144-1.067.328.568.427h-.144l.066.222-1.39 2.522-.123.465.144.436-.248.329.586.332-.16.284.556.643-.034.51.277.078.03.345-.186.682.132.168.156 1.011.2.107.008.286.348.546.147.125.053-.081-.041-.688.328-.373.254-.1.252.1.63-.104.525.084.135.193.542.306.13-.036.313.288 1.225.024.002-.098 1.305-.569.194.165.386.01.22.136.437.066.21.308.8.348.035.185.174.086.267.048.354-.11.226.062.058-.112.44-.046-.087-.129.034-.21.088-.028-.022-.288-.184-.18-.175.006-.306-.445.112-.296-.062-.412.433-.543-.129-.306.305-.178-.04-.809.376.012.12-.082-.006-.178.124-.1-.004-.175 2.05-5.309ZM13.456 110.158l-.1.11-.869.181-.506.25-.977.721 1.437 4.42.981-.551 3.481-.274.965.629.11.482.175-.076.25.264.084-.02.092.173-.148.036.054.178.144.002-.048.128.158.126.248-.058.243.394.022.337.678.084.088.108.087-.064.38.054.048.094.124-.154.42-.174-.018.36.227-.034.082.038.004.172.586.082.31-.132.249.074.052-.106.274-.066.182-.262-.082-1.055.887-.885.108-1.199.112-.377.179-.14.63-.142.489-.911.188.148.344.056.166-.07.403.066.06-.122.348.118.228.182.07.387.265-.008.094.142.164.014.058.228.27.214.01.195.176.086.557.01.308.21.57-.248-.235-.885-.002-.321-.691-.004-.128-.218-.182.016.086-.178-.144-.244-.143.156-.34-.643-.336-.018-.2-.26v-.779l-.109-.602-.302-.168-.244-.056-.647.098-.192.16-1.03-.713.021.461-.13.102-.074.268-.387.24-.126.232-.312-.664-.865-.12-.348-.191.008.095-.22-.004-.282.154-.237-.108.046.082-.63.114-.076-.066.026-.132-1.892.034-.353-.113-.106-.2.539-.736-.24.04-.18.218-.125.018-.324.344-.126.286-.358-.076-.169.317-.15-.174-.144.022-.246-.385-.254.076-.137.228-.278-.018-.144.113.072-.319-.556.078-.507-.276h-.472l-.2-.26-.3.222.063.17-.192.479-.134.094-.216.084-.074-.096.032-.391-.163-.006-.144.128-.268-.13Z" fill="#FDFBF5" stroke="#171619" stroke-width=".5"/><path d="m31.482 109.342.054.134-.48.272-.197.593.406 1.075-.436.18-.613.462-.612-.016-.66-.456-.56.254-1.072.144.2.261.336.018.34.642.143-.156.144.244-.086.178.182-.016.128.219.69.004.199 1.275-.539.178-.3-.21-.552-.01-.179-.084-.012-.196-.27-.215-.058-.228-.164-.014-.094-.142-.265.008-.07-.386-.572-.301-.064.122-.403-.066-.166.07-.344-.056-.188-.148-.489.911-.63.142-.179.14-.112.377-.108 1.199-.887.885.082 1.055.183.276-.032.154.246.132.254.547-.23 1.021.36.036.14-.164.297-.03.212-.345.256.014.052-.132.104.032.293-.182.268.04.052.086.13-.182.166.194.16-.044.183.148.118-.04.094.241.066-.03.068.11.68-.12.038-.173-.23-.094.189-.212.28-.665.544.043.325-.131.52.151.383-.165.218-.252.324.064 1.049-.158.19.104.833-.795-.773-1.259 1.137-.494.669-.175.436.023.072-.211.867.453-.064.422.236.092.225-.608.19.112.058.208.138-.096.18.102.215-.122.017-.242.285-.086.224-.705-.038-.591.114-.034.048-.214.194-.106-.158-.066.098-.449-.314.034-.14-.268-.156-.018h-.3l-.285.168-.202-.238-.056-.354.034-.136.104.008.382-.401-.17-.232.012-.14.176-.068.329-.401-.112-.136.076-.078-.124-.284-.44-.072-.555-.495-.781.014-.413-.478-.136-.008-.05.146-.697-.136-.392.094-.024-.088.254-.096-.11-.15-.606.038ZM86.533 109.46l-.188-.142-.316-.056-.472-.413-.375-.012-.078-.138-.186.198-.192-.03-.245.391-.108-.06-.178.15-.304-.076-.216.052-.29-.507-.139-.03-.118-.166-.426-.154-.679.042-.274.414.204.136-.176.221-.158.022.042.152-.12.254-.387.026-.336-.088-.164.577-.152-.002-.219-.165-.384.032-.078.137-.036.234.28.77-.256.723.11.078-.068.084.112.159-1.213.82-.242-.15-.132.088-.19-.056-.373.637-.11-.006-.238.23-.991.168-.349-.066-.076.244-.368-.084-.07-.104-.309-.026-.196-.222-.238-.004-.238-.224-1.265-.036-4.399-.607 4.925 4.178.619.178.34.287.573.11.632.652.403.094.238.235.378.1.148.144.243.008.16-.102.376.072.51-.046.347-.206.542-.481-.044-.066.103-.092.274-.022.128-.282.282-.144-.022-.245.11-.088.06-.322.26-.138.167.204-.1.262.136.088-.126.453.214.08-.014.152.158.184.274.036-.034.134.102.106h.399l.392-.318.1-.602.09-.091-.136-.262.21-.19-.122-.21.154-.344.124-.065-.122-.25.26-.482.105-.411.522.036.413.151.862-.031.269.095.248-.066.434-.379.16-.338.381-.088.006-.232.384-.681.078-.741.16-.052.07-.132.183-.002.02-.326.1-.056.176-.429.587-.37.43.178.156-.21.158.036.053-.176.216-.175.16-.304-.17-.072.054-.112-.297-.4-.64-.203-.11-.002-.094.137-.309-.233-.046-.244-.158-.042.058-.112-.33-.136-.292.088-.14-.09ZM55.952 112.915l-.075.022-.418-.911-1.285-.1-.186-.216-.144-.028.106-.216-.259-.246.287-.471.296-.22.162-.254 1.355-.086-.296-.663-.71.256-.203-.488-.016-.325-.288-.534-1.051.44-.218-.728-.961-1.104-.427.975-.36.123-.448.516.464.272-.208.128-.292-.01.008.145-.137.048-.142-.135-.012.113-.426-.339-.182-.402-.112-.038-.249.154.184.637-.86.298-.08.218-.102.01-.017-.144-.428.26-.08.411-.236.008-.094.568-.088.08.072.705-.11.633-.369-.046v-.153l-.126-.046-.426.623.23 1.303.128.186.096-.032.456.899-.706.329.276 1.647.136-.262.369.072.272-.06.238 1.017.338-.33.349-.131.054.377.432.042.54-.262.11.336.251.182.02.35.114.087.07.292-.048.424.17.21.007.519.128.132-.032.202.094.156-.114.151.144.42-.084.402.156.13.768-.16.069.837.3.355.723-.141.18-.284.014.22.128.064-.064.147.164.118.058.242-.14.08.436.869-.456.298.29.691.533 1.84-.195.246.04.372-.148.791.199.236.316-.178-.136-.144.504-.343.218-.5-.162-.258-.078-.449.653.066-.206-.484.84-.821.165.064.262-.186.28.126.689.833.036-.374-.082-.153.298-.014-.29-.338-.29-1.265.01-1.414-.481-.638-.022-.318-.2-.107-.156-1.011-.133-.168.187-.682-.03-.345-.277-.078.034-.51-.556-.643.16-.284-.587-.333.249-.328-.144-.436.124-.465 1.39-2.522-.067-.222h.144l-.568-.427ZM21.282 105.864l-.445.072-.216-.224-.172.184-.192-.048-.147.098-.14-.076-.282.319-.596-.058-.102.04.091.128.006.312-.21-.046-.298.134-.092-.042-.765.473-.188-.121-.008-.14-.414.184-.249.004-.002.171-.174-.068-.262.258-.124-.166-.254.064-.519-.054-1.029.278.012.222-.276.172-.21-.008-.152.15.106.341-.002.496-.123.066-.056.507-.28.258.124.194-.186.22.268.131.144-.128.163.006-.032.39.074.096.216-.084.134-.094.192-.479-.064-.17.3-.222.2.26h.473l.507.276.556-.078-.078.319.15-.112.278.018.137-.229.254-.076.246.385.144-.022-.16-.449.068-.19.298-.042.1.258.961-.809.543.012.026-.204.204-.278-.016-.174.222-.294-.006-.741.457-.324.046-.129.617-.236.204-.881Z" fill="#FDFBF5" stroke="#171619" stroke-width=".5"/><path d="m47.906 110.291.192-.967-.198-.597.284-.643.352-.464-.066-.32-.154-.415-.806-1.219-.677-.512-.487.126.11.162.233.078.04.342-.993.273-.413 2.528-.442-.042.138 1.107-.372.396-.845-.366-.218-.33-.685-.202-.184-.575-.649.054.004-.418-.09-.193-.41-.154-.215.515.923.981.044.152-.176.58-.4.701-.435.425.008.108-.2.088-.344-.679-.122.07-.353-.31-1.1 1.671-.293-.388-.332.23.01 1.011-.357.605.165.05-.339.601-.584-.089-.187-.162-.052-.788.137-.255-.465-.75-.268-.263-.09-.272.018-.4-.409-.044-.38.146-.182-.403-.328.401-.177.068-.012.14.17.232-.382.401-.104-.008-.034.128.056.362.202.238.285-.168h.3l.156.018.14.268.314-.034-.098.449.159.066-.195.106-.048.214-.114.034.038.591-.098.43-.126.274-.284.087-.018.242-.215.122-.18-.102-.138.096-.058-.208-.19-.112-.224.608-.237-.092.065-.422-.867-.453-.072.21-.437-.022-.669.175-1.137.494 3.49 5.724.278 1.663.519.252.372.367.138-.328.22-.107.094-.342.249-.228.212-1.043.37-.449-.014-.476.15-.016.427-.442.674.116.56-1.618.231.03.06.382.429-.2.058.12-.154.439 1.157.648.298.411.809.156.76 1.503-.642.707-.69-.61-.788.038.069.128-.057.14.303-.016.763.939-.01.18.34.174 1.305-1.017.35.308 1.38-.786.054.728.833.725.224.048.152.605.623.426-.2.256.162.128-.055.389-.602.646.234.707.405.721-.087.144.17.002.209.358 1.181-.406 1.427 2.725 3.11 1.465.89.669.158-.579.445-.538.062.028.426-.763-.08-.38.225-1.056-.029-.166-.182-.082-.1-.624-.15-.116.112-.261-.194-.156-.144.056-.166-.086-.198-.236.148-.791-.04-.372.194-.247-.533-1.839-.29-.691.456-.298-.436-.869.14-.08-.058-.242-.164-.119.066-.142-.13-.068-.014-.22-.18.284-.723.14-.3-.354-.068-.837-.77.16-.157-.134.086-.398-.144-.42.114-.151-.094-.156.032-.202-.129-.132-.005-.519-.17-.21.047-.424-.07-.293-.114-.086-.02-.35-.25-.182-.11-.336-.54.262-.433-.042-.054-.377-.349.131-.338.33-.238-1.017-.272.06-.369-.072-.136.262-.276-1.648.707-.328-.457-.899-.096.032-.128-.186-.23-1.303.426-.623.126.046v.152l.369.047.11-.633-.072-.705.088-.08.094-.568ZM10.183 103.714l-.174.176-.106-.16-.46-.112-.934.082-.468-.158-.274.036-.25.476-.595.027-.064.564-.024-.15-.295-.164-.256-.379-.34-.116-.02.216-.383.629-.442.308-.01.457-.21.664.13.217.044.618-.222.395.04-.207-.104-.002-.17.235-.087-.046-.306.136.038.296-.154.286-.478 1.816-.455.537-1.38-.02.635 2.07-.69 4.158 5.845.006.85 1.513.236.208.272.038.328-.154 1.97-1.683 1.221-.687-1.437-4.42.977-.721.506-.25.87-.18.255-.287-.094-.238.28-.258.057-.507.122-.066.002-.496-.106-.341.108-.106-.104-.106.112-.154-.315-.126.163-.096.046-.19-.277-.221-.338.287-.218-.124-.108.244-.165-.186-.094.114.155.122-.163.092-.04.18-.274-.07-.118.062.006-.204.124-.05-.42-.156-.046-.152.296-.01.204-.145.004-.266-.298-.12-.61.232-.233-.13.196-.084.14-.226-.316-.377.206-.306.305-.094-.133-.234-.326.116-.554.535-.315.11.132-.535-.158-.44.287-.096.066-.551-.239-.276.149-.2-.527-.425ZM19.784 98.928l1.12.864.003.195.337.36.656 1.197-.04.967-.14.25-.236-.058.176.833.663 1.504-.44-.014-.275.682-.272-.006-.238.711.088.116-.108.216-.617.236-.046.129-.457.324.006.741-.222.294.016.174-.204.278-.026.205-.543-.012-.96.808-.1-.258-.335.07-.03.168.226.611.09.002.165-.314.354.078.126-.287.324-.344.124-.018.18-.218.24-.04-.538.736.106.201.353.112 1.892-.034-.026.132.076.066.63-.114-.046-.082.237.108.282-.154.22.004-.008-.094.348.19.865.12.312.665.127-.233.386-.24.074-.268.13-.102-.022-.461 1.031.713.192-.16.647-.098.248.056.298.168.109.603v.778l1.073-.144.558-.254.66.456.613.016.613-.462.436-.18-.406-1.075.196-.593.48-.272-.674-1.732-.152-.076-.204.144-.305-.508-.698-.317.082-1.015-.737-.35-1.598-2.326-.602-1.003-.354-.831-.727-1.051.412-.65.108-.841-.18.158-.334.072-.244-.178-.237-.026-.202-.195-.136.31-1.085-.448-3.884.315ZM87.92 105.864l-.516-.346-.65-.244-.012-1.878-.389-.15-2.306-6.753-4.709 2.114-4.794 1.614.002.25-.108.16.006.813.084.366.262.004.09.817-.448.665-.509-.006-.056.076-.106.184.062.172-.056.543-.212.302-1.458-.38-.728-.297-.567.032.002.245-.5.256-.042.17-.255.18.144.144-.378.785.01.22-.3.08.09.163-.619.09-.528.544-.036.485-.51.604-.109-.14-.26.052-.03.377-.21.138-.687.354-.7.156-.28.21-.584.032-.45.331.302.322.142.388.425.339-.02.142.098.09 3.45 2.196 4.398.607 1.265.036.238.224.238.004.197.222.308.026.07.104.368.084.076-.244.349.066.99-.168.239-.23.11.006.372-.637.19.056.133-.088.242.15 1.213-.82-.112-.159.068-.084-.11-.078.256-.722-.28-.771.036-.234.078-.137.384-.032.219.165.152.002.164-.577.336.088.387-.026.12-.254-.042-.152.158-.022.176-.221-.204-.136.35-.442.603-.014.426.154.118.166.138.03.287.503.226-.048.11.084.254-.032.068-.118.153.052.244-.391.192.03.196-.196.068.136.374.012.473.413.316.056.319.232.272-.092.36.14-.056.114.152.034.056.256.299.225.098-.135.11.002.64.203.297.4-.054.112.354.128.214.22.339-.088.71.493.227-.262.214.05.344-.112-.184-.145.042-.226-.138-.188.014-.286-.132-.104.016-.157-.43-.244-.049-.156-.396-.322-.004-.359-.252-.124.096-.332-.174.01-.002-.14-.325-.176.1-.375-.432-.336-.192-.931-.629-.44-.248-.343Z" fill="#FDFBF5" stroke="#171619" stroke-width=".5"/><path d="m11.438 95.126-.184-.629-.244-.01-.11.207-.127.016-.356-.35-.262.035-.208-.126-.877.26-.16.887.116.479-.69.328-.035.753-.5.22-.215-.066-.098.122-.312-.06-.104.14-.296-.054-.169.124-.124.302-.178-.024-.504.407-.28.038-.213.558-.018.413-.18.282.124.124-.124.144.074.589-.623.482.004.611.205.264.176.689-.172.568-.55.477-.28.026.025.248-.198.148-.008.202-.182.107.032.254-.329.154-.07.28-.346.287.006.1-1.832 2.49-.042.222.775 2.527 1.38.02.454-.537.478-1.816.154-.286-.038-.296.306-.136.087.046.17-.234.104.002-.04.206.222-.395-.044-.618-.13-.216.21-.665v-.438l.452-.327.383-.628.02-.217.34.116.256.379.295.164.024.15.064-.564.594-.026.25-.477.123-.03.62.152.955-.078.439.108.106.16.428-.412.058-.384.225-.13.094-.375.426-.234-.897-.615-.354-.024-.353-.38.359-.234.022-.413.566-.1-.094-.654.455-.183-.349-.656-.458-.489.174-.34-.138-.228-.01-.277.186-.18.084-.618.68-.315-.157-.434.13-.174-.25-.779.384-.054.182.104.036-.186ZM52.574 92.902l-.308.166-1.377 2.428-1.2 1.16-1.12.292-.259.26.369 1.327-1.296 2.779-.91 2.244.622 1.245-.262.351.676.512.807 1.219.154.415.066.32-.352.464-.284.643.198.597-.192.967.236-.008.08-.411.428-.26.017.144.102-.01.08-.218.86-.298-.184-.637.249-.154.112.038.182.402.426.339.012-.113.142.135.137-.048-.008-.145.292.01.208-.128-.464-.272.448-.516.36-.123.427-.975.96 1.104.219.728 1.051-.44.288.534.016.325.203.488.71-.256.297.663-1.396.108-.705.923.259.246-.106.216.42.274 1.195.07.419.911 1.14-.35.103-.144.726-.174.22-.231.035.108.516-.16.767-.062v.643l.61.156-.057.228.25.457-.38.398-.25.002.342 1.133.282-.106.178.224 1.672.491.482.228.208-.497-.152-.314.26-.138.209-.338-.093-.212.197-.809-.247-.08.044-.531-.256-.092-.206-.214-.132-1.285.949-.435.542-.783.235-.238.158.02.116-.178-.008.25.945 1.037.156-.494-.424-.339-.143-.388-.302-.322.45-.331.583-.032.28-.21.701-.156.687-.354.21-.138.03-.377.26-.052.108.14.51-.604.037-.485.528-.544.619-.09-.09-.163.3-.08-.01-.22.379-.785-.145-.144.255-.18.042-.17.224-.064.048-.224.116-.076-.042-1.276-.276-.212.026-.264-.186-.1-.153-.509-.168-.074-.116-.568.012-.329.22-.362-.008-.525.192-.228-10.101-1.085.054-.624.33-.323.09.07.042-.27.068.022.082-.174.24-.04.077-.573.158.014.048-.094.07-1.273.094-.28-.242.096-.118.192-.215-.234-.334.136-.414-.084-.5-1.05.06-.095-.197-.112-.368-1.112-.447-.27-.744.22-.429.67-.526.213-.423-.062-.356.082-3.744-.004.126-.666Z" fill="#FDFBF5" stroke="#171619" stroke-width=".5"/><path d="m23.134 92.087-.11.558.232.184.056.515.27.132.222.35.227.117.07.26-.064.374-.389.05-.13.106.042.138-.176-.066-.132.177-.258-.2-.283.182-.404-.233-.39.157-.173-.083-.178.247-.216-.014-.144.306.148.312-.064.164-.392.327-.29-.118-.209.164-.428-.012-.056.182-.255.112-.14.234-.126.655-.306.156-.34.34.222.269-.265.04-.648.416-.09.324-.229.237-.2.068-.08.268-.15.148-.11.076-.132-.04-.1.106-.163-.06-.262.439-.262.04.054.228-.228.238-.477.182-.228-.054-.084-.198-.188.138-.032.262-.22-.148-.26.104-.043.511-.174-.218-.072-.511-.3-.036-.228-.242-.267.176-.112.364-.693-.3-.3-.53-.444.304-.417.118-.606-.26-.337.146-.19.198-.156-.052-.26.078-.022.413-.359.234.353.38.354.024.897.615-.426.234-.095.374-.224.13-.058.385-.254.236.527.425-.149.2.239.276-.067.551-.286.096.158.44-.142.507.317-.077.554-.536.335-.12.132.234-.305.094-.206.306.316.377-.14.226-.196.084.232.13.61-.232.3.12-.005.266-.204.145-.296.01.046.152.42.156-.124.05-.006.204.118-.062.274.07.04-.18.163-.092-.155-.122.095-.114.164.186.108-.244.218.124.338-.287.275.213-.044.198-.165.092.317.13-.112.154.104.106.254-.036.276-.172-.012-.222.679-.226 1.123-.062.124.166.262-.259.174.069.002-.171.249-.004.43-.186-.008.142.188.12.765-.472.092.042.299-.134.21.046-.006-.312-.086-.133.252-.066.446.087.277-.317.14.076.146-.098.192.048.172-.184.216.224.445-.072.054-.162.272.006.274-.683.44.014-.662-1.503-.176-.833.236.058.14-.25.04-.967-.656-1.197-.337-.36-.003-.195-1.12-.865.915-1.069-.144-.128.625.284.478-.31.41-.052.243-.3.354-.106.07-.122.585.442.236-.34-.032-.214.324.09-.014.14.216-.058.127.084.308-.016.354-.346.19.124.195-.245.64-.178-.096-.092.072-.15.02-1.32-.142.007-.028-1.742-.312-.054-.108.052-.01.14-.253-.7.014-.507-.218.132-.366-.182-.092-.248-.547-.12-.088.066-.164-.063-.016.085-.276.038-.12.138Z" fill="#FDFBF5" stroke="#171619" stroke-width=".5"/><path d="m29.976 90.95-.214.492-.39-.236-.487.825-.25-.475-.3-.126-.176-.276-.299-.112-.64.422-.633-.11-.362.096-.138-.052-.215.106-.54-.036-.032.136-.206.115-.075.274.087.148-.085.1-.014.507.253.7.01-.14.108-.052.312.054.028 1.742.142-.006-.02 1.319-.072.15.094.104-.276.006-.362.16-.195.245-.19-.124-.354.346-.308.016-.126-.084-.217.058.014-.14-.324-.09.032.214-.236.34-.585-.442-.07.122-.354.106-.242.3-.41.052-.48.31-.624-.284.144.128-.915 1.07 3.884-.315 1.085.449.136-.31.203.194.236.026.244.178.334-.072.18-.159-.107.841-.413.651.727 1.051.354.831.603 1.003 1.597 2.326.737.35-.082 1.015.699.317.304.508.204-.144.152.076.62 1.598.607-.038.11.15-.254.096.024.088.393-.094.696.136.05-.146.136.008.073-.629.296-.016-.068-.218.136-.276-.106-.154.028-.199.64.455.023-.935.316-.703-.044-.408-.244-.298-.163-.053-.012-.2-.226.152-.87.012.558-.74-.246-.106-.447.124-.396-.521.188-.146-.07-.11.164-.276.01-.573-.11-.14.034-.567-.264-.168-.064-.202-.23-.188.268-.412-.06-.417-.329-.362-.03-.423.056-1.117.329-1.665-1.428-2.299 1.88.022.014-.16-.222-.318.142-.68.098-.11-.136-1.044-.336-.028.22-.767-.09-.358-.637.02.254-.498-1.08-.15.09-.605-.67-.122-.137.164-.369-.18ZM108.785 91.68l-1.233 1.274-.238.51-.449.515-.444.838-.08.605-.553.292-.126.315-.807.03-.082.182-.236.098-.633-.214-.402.42-.15.02-.05.37-.206.113-.068.306-.475-.034-.17.096-.753-.144-.28.45-.306.14-.701.092-.092-.112-.23.016-.69.393-.35.564-.822.81-.214-.081-.088-.162-.307.1-.232-.128-.072.078.032.192-.256-.036-.092.128-.213-.074-.654.02.296.288 1.584 6.05.024.387-.405.482-.064.204-.084 1.063.07.897.12.323.008.37.319.865-.032.204.254.132-.1.176.152.122 1.203.471 1.415.066.411-.194.22.246.146.022.328-.264.245-.074.1-.467.3.008.214-.208.08.124.116.004.257-.25.314.214.587-.146.176.37.476.465.076.202.369.24.01.21.258-.024.044.221.555-.078.144.206.256-.03.384.148.227-.21.25-.044.022.168.378.066.164-.06.054.156.359-.186.138.08.268-.102.19.07.166-.132.291.25-.064.246.186-.018.104.204.27-.148.034.176.162-.116.433.557.256-.042.068.14.124-.1.417-.014.352.402.166.016.284.21.049.239.146.168.226.054.036.104.154-.02.242.58.148.095-.096.322.163-.038.102-.19.19.154.148-.086.38.772.325.161.054.148.138-.056.088.212-.046.098.144.036-.054.106.08.104-.104.142.098.068.006.293.116.076-.034.23.24.004-.066.601.074.054.094-.084.002.152.319.228-.13.272.036.381.188.11.004.234.144.188.424.302-.012.099-.134.026.038.222.182-.032.073.2.21-.114-.016.456.14.082.012.144.138-.072-.064.189.679.042.156-.122.022.168.194.182.13-.08.182.196.22.036-.15.332.263.457-.044.194.19-.026.03.228.188-.016-.086.204.048.201.09.138.104-.07-.052.2.148.024-.022.448-.122-.026.054.178.32.133-.164.08.03.18-.17.068.146.162-.148.086.074.108.298.082-.044.237.183.008-.177.216.337.012-.128.132.192.172.04.388-.212-.016.122.157-.028.13h.098l.054-.197.198.131-.156.438.166.218-.192.116.118.092-.082.103.256.368-.076.204.238.032.116.18-.19.199.01.232.249-.144-.03.366.108-.028.156.114-.174.074.136.246-.116.221.074.102.178.022.012.426.274.286-.088.179.178.14-.074.128.102.226.146.034.131 1.029.08.074.146-.034.024.152.218.116.14.463.364.51-.024.185.189.002.036.206.188.05-.096.232.088.136-.094.096.252.034-.132.291.146.05.064.15-.142.104.032.176-.144.146.102.152-.14.128.142.495.148.094-.216.374.026.267.142-.02.108.284-.114.1.258.43.052.421.132.046.063.166-.095.396.115.062-.065.145.123.35-.135.042.022.1.125.068.642-.398.329.07.358.672.194.901.569.671.214.428.118.735-.034 1.057.252.531-.262.798.106 1.196.491.79.038 1.47-.069.47.219.417v.404l.22.645 13.909-6.376 13.191-1.12.004-1.223-11.403-15.383-.012-25.889-.29.232-1.177.581-.651.628-.468.271-1.79.498-.426.208-.335.363-.388.108-.425.841-.22.14-.034.254-.684.527-.711-.015-.152.147-.191-.002-.178.204-.422-.008-.637-.21-.384.362-.134.308-.246-.102-.423.228-.957-.076-.478.128-.541-.26-.877-.05-1.96-1.065-1.451-1.467-.655-.335-1.371-1.001-.935-.126-.679-.216-.702-.4-.779-.647-.607.074-.49-.376-1.011-.112-.495-.25-.256-.339-.586-.276-.177-.36-.692-.717-.489-.695-.376-.869-.637-.534-1.019-1.454-.626-2.002-.687-1.535-.108-.565-.258-.36-.379-.29-2.05.824-.921.579-.298.334Z" fill="#FDFBF5" stroke="#171619" stroke-width=".5"/><path d="m14.389 86.828-.066 1.003-.995-.429-.008.323-.479.714-.196.509-.292 2.098-.298.54-.282.227-.08.736-.647.425.012.144-.168.14.124.348-.323.154-.218-.012-.056.197-.052-.084-.082.035-.106.243-.196.132.174.124.262-.036.357.35.126-.016.11-.206.244.01.19.527-.042.288-.182-.104-.385.054.25.779-.13.174.159.434-.68.314-.085.62-.066.125-.114.002.004.329.138.228-.174.34.436.459.365.618-.07.146-.379.104.074.519.545-.122.45.25.425-.12.444-.304.3.53.693.3.112-.364.266-.176.229.242.344.078.028.469.174.218.036-.507.267-.108.22.148.032-.262.188-.138.084.198.228.054.477-.182.228-.238-.054-.228.262-.04.262-.439.162.06.1-.106.133.04.11-.076.15-.148.08-.268.2-.068.229-.237.09-.324.648-.416.265-.04-.225-.265.343-.344.306-.156.076-.246-.05-.186.11-.075.128-.378.21-.074.145-.24.386.028.208-.164.11.094.248.002.385-.429-.144-.344.144-.314.216.014.178-.247.172.082.39-.156.391.23.154-.02.138-.16.179.203.144-.012.072-.167.176.066-.042-.138.13-.106.382-.042.07-.382-.074-.266-.222-.11-.222-.35-.192-.04-.142-.201.008-.407-.237-.192.115-.55-.655.118.012-.096-.416.144-.129.142-.338.048-.186.344-.102-.036-1.165.575-1.212.426.06-.314-.516-1.373.272-.3-.024-.129-.268-.266-.336.062-.583-.34-1.704-2.425.209-.51-.623-.208-.376-.282-.665-.84Z" fill="#FDFBF5" stroke="#171619" stroke-width=".5"/><path d="m19.18 84.635-.178.459-.339.346-.384-.026-.14.088-.47-.078-1.47.248-.152.327-.503.394-1.155.435.665.838.376.283.623.208-.208.51 1.703 2.425.583.34.336-.062.268.266.024.128-.272.3.517 1.374-.06.314 1.21-.426 1.166-.575.102.036.188-.346.337-.046.128-.142.416-.144-.012.096.655-.118.12-.138.276-.038.022-.087.757.099.186.32.324.132.285-.216-.084-.166.07-.267.21-.122.046-.142.526.042.215-.106.138.052.362-.096.633.11.64-.422.299.112.176.276.3.126.25.475.487-.825.39.236.214-.492-.322-.04-.076-.325.06-.062-.134-.032.052-.112.254-.118-.194-.543.346-.054.01-.196-.86-.3-.825-.543-.655-.282-.474-.83-.327-.027-.846-1.263-.16-.378-.56.312-.143-.086-.601.096-.078.282-.829-.506-.13-.186.184-.233-.428-.396-.218-.382-.38-.069-.423.229-1.32-.116.093-.643-1.812.488Z" fill="#FDFBF5" stroke="#171619" stroke-width=".5"/><path d="m36.845 84.902-.068-.238.136-.263-.09-.006-.146-.232.032-.713-1.137.317-.625.462-.454-.062-.19-.166-.64.126-3.767 3.065-.622.312-3.45-1.66.16.38.847 1.262.326.026.475.831.655.282.824.543.861.3-.01.197-.346.054.194.542-.254.118-.052.112.134.032-.06.062.076.325.322.04.369.18.138-.164.668.122-.09.605 1.081.15-.254.498.639-.018.084.459-.216.664.336.028.136 1.043-.098.11-.142.681.222.318-.014.16-1.88-.022 1.428 2.299-.329 1.665-.056 1.117.03.423.329.362.06.417-.269.412.23.188.065.202.264.169-.034.566.11.14-.01.573-.164.276.07.11-.188.146.396.521.447-.124.246.106-.559.74.871-.012.226-.152.012.201.162.052.207.298 2.184-.01-.068-.393.592-.466-.032-.444-.236-.483.136-.857-.084-.186.23-.795-.472-.358-.046.104-.15-.144-.176.012-.23-.166-.035-.16-.134.006-.108-.253.11-.338-.142-.204-.03-.419-.124-.092.024-.186-.288-.426-.014-.419-.359-.156-.024-.276-.19-.206-.006-.437.21-.368.006-.342-.298-.243-.038-.188.018-.242.246-.406-.076-.561.398-.11-.03-.138.108-.02-.038-.062.163-.22-.092-.41-.215-.343.112-.134.159-.797.078-.048-.068-.445.172-.218-.126-.102-.004-.188.136-.1-.347-.276-.056-.285.059-.797.14-.04.074-.156-.129-.686.129-.149-.016-.366.078-.078-.126-.226.224-.455-.038-.178.11-.092.134.028.016-.096.172-.046.032-.176.102-.02-.062-.074.138-.227-.074-.208.113-.32.124-.032.008-.156.178-.174.116-.002.04-.473.176-.416-.116-.07.052-.495-.07-.44-.124-.078.146-.463-.1-.236.094-.162Z" fill="#FDFBF5" stroke="#171619" stroke-width=".5"/><path d="m36.931 81.397.07.19-.096.128.102.098-.192.042-.06.222.068.048-.228.356-.068.405.244.396-.108.453.078.006-.084.142.02.28.146.232.09.006-.136.263.068.238-.094.162.1.236-.146.463.124.078.07.44-.052.495.116.07-.176.416-.04.473-.256.13-.04.194-.13.04-.019.206-.084.044.072.188-.146.31.062.08-.102.02-.032.177-.172.046-.016.096-.134-.028-.11.092.038.178-.224.455.126.226-.078.078.016.367-.129.148.129.686-.074.156-.14.04-.059.797.056.285.347.276-.136.1.004.188.126.102-.172.218.068.445-.078.048-.159.797-.112.134.215.342.092.41-.163.22.038.063-.108.02.03.138-.398.11.076.56-.246.407-.018.242.038.188.298.243-.006.342-.21.368.006.437.19.206.024.276.359.156.014.419.288.426-.024.186.124.093.03.418.142.204-.11.338.108.253.134-.006.034.16.23.166.177-.012.15.144.046-.104.472.358-.23.795.084.186-.136.857.236.483.032.444-.592.467.068.392-2.146.01.044.408-.317.703-.022.935-.64-.455-.028.199.106.154-.136.276.068.218-.297.016-.072.629.413.478.78-.014.555.495.44.072.125.284-.076.078.294.539.38-.146.409.044-.018.4.09.272.268.263.464.75-.136.255.052.788.178.159.22-.018.219.14.154-.03.338-.601-.164-.05.357-.605-.01-1.011.332-.23.292.389 1.101-1.672.353.31.122-.07.344.679.208-.094-.016-.102.427-.415.226-.388.244-.457.112-.486-.965-1.093.215-.515.41.155.09.192-.004.418.649-.054.184.575.684.202.219.33.845.366.372-.396-.138-1.107.442.042.413-2.528.993-.273-.04-.342-.233-.078-.11-.162.487-.126.262-.351-.623-1.245.911-2.244 1.295-2.779-.368-1.327.258-.26 1.121-.293 1.2-1.159 1.377-2.428.308-.166-.568-.46-.317-.037-.312-.258-.23-.354-.306.034-.145-.102-.184-.445.048-.402-.13-.132-.296-.026-.088-.153-.246-.054-.195-.54-.47.038-2.86-3.596-1.548.03-6.098-9.893-.313.4.068.27.269.129-.209 1.279-.152.188-.324.86-.428.215-.375.49.076.273-.336.404.026.337ZM81.725 84.573l.058 1.374 1.655 2.184.333 5.61.658.49-.608.036-.062-.116-.459-.25h-.17l.01-.108-.09-.029-.08.073.044.152-.59.456-.17.304-.27.065-.357.25-.08.17-.475.366-.484-.536-.233-.108-.09.17.054.108-.572.376-.08.16.044.279-.25.196-.851.152-.315-.116-.322.108-.222-.072-.459.43-.294-.25-.368.082-.19.41-.323.197-.292.012-.238.214-.022.134.088.042-.18.31-.283-.057-.258.172-.446.06-.055.314-.468.036-.248-.14-.262.254-.793-.218-.012-.254-.278.016-.15-.106-.467.26-.38-.056-.08.074-.657.058-.334-.22-.19.012-.03-.246-.19-.028-.023-.419-.204-.484-.22-.09-.629-1.414-.222-.31-.282-.148-.353-.397-.212.012-.538.473-.275-.042-.08-.1-.674.076-.133-.178-.19-.029-.014-.158-.302.03-.166-.144-.078-.228-.138-.108-.15.052-.157-.132-.596.166-.058.266-.233-.128-1.547.555-.65.01-.275-.2-.142.502-.07 1.273-.048.094-.158-.014-.077.573-.24.04-.082.174-.068-.022-.042.27-.09-.07-.33.323-.054.624 10.101 1.085-.192.228.008.525-.22.362-.012.329.116.568.168.074.152.509.187.1-.026.264.276.212-.014.819.088.254-.196.503.276-.192-.002-.245.567-.032.728.297 1.458.38.212-.302.056-.543-.062-.172.106-.184.056-.076.508.006.449-.665-.09-.817-.262-.004-.085-.366-.005-.813.108-.16-.002-.25 4.794-1.614 4.709-2.114 2.306 6.753.389.15.011 1.878.956.432.37.296.09.205.629.44.192.931.432.336-.1.375.324.176.002.14.175-.01-.097.332.253.124.004.359.396.322.048.156.43.244-.016.157.133.104-.014.286.138.188-.026.25.312.215.132.014.074-.09.317.28.17-.006.394-.184.156-.319.633.06.204-.158-.018-.236.208.002.03-.226.24-.309.293.035.666.316.2-.084.541.466.194-.004.17-.136.507.172.146-.28.48.406.751.235.333-.06-.152-.123.1-.176-.255-.132.032-.204-.318-.865-.194-1.241.08-1.412.064-.204.404-.482-.023-.387-1.584-6.05-.296-.288.654-.02.213.074.092-.128.256.036-.032-.192.072-.078.232.128.306-.1.089.162.214.08.822-.809.35-.564.689-.392.231-.016.092.112.7-.093.307-.14.28-.45.753.144.17-.096.474.034.068-.306.207-.112.05-.37.15-.02.402-.421.633.214.236-.098.082-.182.801-.026.132-.319.553-.292.08-.605.444-.838.449-.515.238-.51 1.517-1.598.935-.588 2.048-.823-3.729-9.473 3.461-1.19-.174-.046-.453-.418-.318-.052-.104-.246-.146-.01-.028-.175-.252-.216-.563-.815-.384-.182-.143-.184-.112.02-.102-.226-.156-.002-.506-.377-.187-.001-.708-.425-.335-.052-.67-1.121-.204-.757-.523-.787.014-.23-.272-.486-.381-.234-.202-.24h-.138l-.532-.495-.103-.273-.184-.108-.382-.67-.306-.206-.513-.645-.092-.364.068-.249-.174-.264.022-.326-.456-.555-11.596 6.73-.87 3.682-7.894 6.296Z" fill="#FDFBF5" stroke="#171619" stroke-width=".5"/><path d="m57.533 59.525-.556.11-.18-.082.074.667-.119.256.022.224-.284-.058-.266.25-.296.515-.189.128-.068-.098-.112.53.026-.384-.104.114-.074-.152-.162-.052-.064.314-.202.066-.16-.184.002.915 2.456 1.183-.018.52-.325.261.145.284-.094.202.044.267-.229.122.018.39-.38.11-.51.4-.403.189-.526.156-.004-.13-.305.322-.152.018-.154.499-.312.338.092.919-.25.182-.129.349-.088.02.026.468-.12.008-.02.096.056.26-.084.355-.164.146-.06.208.194-.204-.006.644.07.098-.11.4.05.161-.248.128-.016.18-.234.134.01.539.12-.068.1.134-.11.218.08.07-.044.14-.16-.02.044.2.116.2.204.015-.08.27-.14.01.074.104-.054.15-.12.034.086.07-.026.165-.18-.124.15.214-.034.09.164-.21.074.234-.228.13.104.05-.01.1-.258.194-.016.195-.11.08.03.18-.335.114.026.4-.15.108.02.18-.18.205.01.3-.168.418.07.155-.24.046-.135-.12-.13.054-.184.354.004.27-.428.469-.329.768h-.17l-.258-.504-.056-.314.11-.425-.16-.218-.178.158.044.314-.385.026-.02-.144-.802.717-.075.18-.046.623.077.276-.22.368.04.12.594-.12.593.623.16.056.672-.18.553.549.194.05.016.14.395-.08.154.278.12-.104.11.094-.166.598-.1-.01-.313.187-.05.158-.254.086-.026.218-.218.166-.09.194-.305.118.229.097.03.154.32.12.264-.194.104.03-.044.264.304.338.055.22v.145l-.145.064-.154-.205-.314-.114-.294-.24-.08.13-.185-.084.02.144h-.1l-.066.125.325.24.19-.165v.259l.164.2-.07.194-.08.01-.034-.12-.274.114-.095.136.049.52-.189.149.09.044.014.224.529-.268.474.274-.18.629.23.562-.15.539.134.264-.07.12.02.489.24.564-.007.345.11.016.014.364-.216-.038-.055-.388-.124-.056.116.366-.054.264-.498.683-.515.364.056.262.145.102.306-.033.23.354.312.258.317.036.528.388-.086.74 3.744.003.356-.082.423.062.526-.214.428-.669.745-.22.447.27.368 1.112.196.112-.06.096.5 1.049.237-.008.068.096.434-.142.114.056.04.18.127-.016.062-.176.23-.096.066-.227.268.205.365.038.154-.099.132.05.562-.142.985-.412.233.128.058-.266.614-.168.138.134.15-.052.139.108.078.228.166.144.302-.03.014.158.19.028.133.179.674-.076.08.1.275.042.538-.473.174-.028.39.413.283.148.222.31.629 1.413.22.09.204.485.022.418.19.028.03.247.19-.012.335.22.657-.058.08-.074.38.056.466-.26.15.106.279-.016.012.254.793.218.262-.254.248.14.469-.036.054-.314.446-.06.258-.173.283.058.18-.31-.088-.042.022-.134.238-.214.292-.012.322-.196.19-.41.37-.083.293.25.459-.43.222.072.322-.108.315.116.85-.152.25-.196-.043-.279.08-.16.572-.376-.054-.108.09-.17.233.108.484.536.474-.366.08-.17.359-.25.268-.065.17-.304.59-.456-.043-.153.08-.072.09.029-.01.108h.17l.459.25.062.116.608-.036-.658-.49-.333-5.61-1.655-2.184-.058-1.374.108-2.484-1.972-1.443-.19.666-.335.1-.178-.042-.468.176-.23-.11-.183.199-.092-.087-.416.013-.218.12-.535.004-.526.164-.195-.082-.334.156-.086-.112-.465.344h-.144l-.022.134-.296.016-.172-.308-.212.466-.16.06.054-.112-.1-.18-.387-.326-1.774-3.165-.524-.663-1.85-3.099-.89-.466-.804-2.269-.43-.08-.246-.35-.827-.605-.226-.576-1.658-.48-1.792-.039-1.143-.8-.514.168-.172-.026.106-.807-.022-.827-.145-.01.05-.512-.244-.621-.122-.703-.622-1.245-.447-.418-1.737-4.833-.405.046ZM25.33 57.343l-.226.416-.227.945.11.517-.056.476-.23.47-.39.307-.209.054-.166-.516-.552-1.027-.076-.483-.164-.074-.116.134-.309 1.666.503.709-.014.19-.255.182.06.422-.81-.658-.609-.333.04-.048-.404.056-.445.257-.406.58.042.499.44 1.313.595 1.451.649 1.224.522 1.883-.572.585.386 1.29.016.374.839 1.129-.507 1.72-.254 3.465-.913 1.783-.438.257-.204-.016-.157.236-.31-.068-.124.396-.34.188-.102 1.482-.36-.004-1.04.73.31.86-.216.252.733 1.033.048.752-.2.18 1.77-.432-.093.643 1.32.116.422-.228.38.068.219.382.428.396-.184.233.13.186.829.506.078-.282.6-.096.145.086.558-.312 3.45 1.66.622-.313 3.768-3.065.639-.126.19.166.454.062.625-.462 1.137-.317.062-.168-.09-.23-.14-.046.072-.024-.084-.296.29-.547-.064-.072.076-.244.176-.01-.102-.098.096-.14-.09-.067-.006-.448.284-.264.052-.188-.08-.21.212-.2-.017-.109.184-.196.434-.224.318-.851.152-.188.209-1.28-.268-.128-.069-.27.32-.414-.598-.134-.849-.723-.442-.022-.563-.325-.26-.274-.59-.182-.015.076-.186-.034-.308-.264-.376.138-.82-.302-.36-.034-.284.086-.096-.23-.282-.273-.186-.038-.008-.124-.074.03-.012-.158-.27-.094.115-.18-.1-.08.084-.195-.098-.23-.278-.054-.01-.1-.152-.038-1.534-1.541.139-.299.146-.084-.116-.364-.037-.921-1.065-3.55-.336-1.413-.609-1.197-.198-.238-.582-.393.09-.548-.266-.669.166-.589-.182-.418-.047-.504.095-.851-1.013-2.142-.277-.228-.47.043-.052-.11-.14.579ZM109.202 40.32l-.273.325-.096.302.04.284.237.396.292 2.369.204.226.068.442.1 3.714-.454.344-.695.353-.799.79-.026.137-.919.644-1.097.08-.198.287-.278.146-.236.96-.935.02.018 2.902-.271.222-.084.446-.246.288.15.277-1.335 2.186-1.764.486.274 1.29.513 1.311.136.803-.066.54.094.599-.2.658.244 1.366-.048 1.093.365 1.08.624.734-.022.326.174.264-.068.248.104.38.501.63.306.206.382.67.185.108.102.273.532.494h.138l.597.497.258.464-.014.23.523.787.204.757.671 1.12.334.053.709.424.186.002.506.377.156.002.103.226.112-.02.142.184.384.182.563.815.252.216.028.175.146.01.104.246.319.052.452.418.174.046-3.461 1.19 2.472 6.436 1.259 3.035.379.29.258.36.108.565.687 1.535.626 2.002 1.019 1.454.637.534.376.87.489.694.693.716.17.355.592.282.257.338.494.251 1.011.112.49.376.607-.074.779.647.703.4.678.216.935.126 1.371 1.001.655.335 1.451 1.467 1.96 1.065.877.05.541.26.478-.128.957.076.423-.228.246.102.134-.308.384-.362.637.21.422.008.179-.204.19.002.152-.146.711.014.684-.527.034-.254.22-.14.425-.841.388-.108.335-.363.426-.208 1.79-.498.468-.271.651-.628 1.177-.581.29-.232.002-34.33-.927.043-.598-.287-.789-.664-.677-.787-.076-.216-.508-.064-.671-.539-.47-.196-.473-.066-.258-.204-.192-.413-.657-.532-.024-.174-.21-.249.04-.196-.132-.46-.549-.26-.526-.687-.074-.323-.233-.178.109-.218-.315-.31-.006-.443-.44-.576.06-.156-.17-.139-.152-.772-.367-.649-.136-.633-.37-.414-.028-.142.15-.08.098-.216.152-.054.018-.693-.344-.174-.002-.206-.232-.1.224-.237-.2-.132.08-.312-.092-.086.052-.273-.07-.332-4.469-2.056-1.742-2.05-2.772-3.033-5.149-2.188-.232-6.71-3.32 3.349-1.129.7-.254-.134-.3.124-.477-.07-.032.104-.134-.052-.148.15-.246-.035-.321.12-.238-.099-.064.093-.116-.09-.106.06-.046-.173-.222.112-.089-.122-.2.07-.544-.1-.807.04-.356-.116Z" fill="#FDFBF5" stroke="#171619" stroke-width=".5"/><path d="m155.296 30.196-1.101.15-.078-.16-.254-.168-.46.232-.101.265-.178.114-.142-.036.038-.118-.13-.137-.106.133-.226-.006-.064.16-.094-.074-.151.068-.116-.096-.282.086-.188-.048-.024.158-.383.014-.486-.316-.134.114-.136-.022-.048.162-.453-.172-.082.212-.498.184-.211-.12.014.066-.232-.042-.176-.182-.07.028.038.13h-.296l-.014-.142-.062.086-.311-.108-.13.074-.142-.062-.072.104-.1-.202-.178.192-.309-.052.016.082-.176.078-.006.194-.562-.184-.13.038-.347-.302-.486-.182.11-.102-.238-.047.04-.092-.219-.192-.214.016-.098-.27.112-.126-.416-.196-.04-.145-.212-.044-.122-.356-.331-.308-.14-.299-.228-.002-.042-.134-.178-.04-.409-.574-.354-.032-.124-.277-.401-.33-.987-.27-.134-.527-.252-.19-.028-.424-.354-.28-.251-.015-.148-.4-.218-.066-.04.078-.863-.41-.194-.279-.486.02-.241.355-.372.242-.525.064-.056.122-5.937 2.408-.135.179-.15-.042-3.631 1.48-.2-.107-.119.042-.13.264-.548.373-.711.274-5.063 2.659-1.85 4 .233 6.71 5.149 2.188 2.772 3.033 1.742 2.05 4.468 2.056.07.332-.052.273.092.086-.08.312.201.132-.225.236.233.1.002.207.344.174-.018.693-.152.054-.098.216-.15.08.028.142.37.414.136.633.366.649.153.772.17.139-.06.156.44.576.006.443.314.31-.108.218.233.178.074.323.526.686.549.26.132.461-.04.196.21.248.024.175.657.532.192.413.258.204.472.066.471.196.671.539.508.064.076.216.677.787.789.664.598.287.927-.043.012-12.932 6.719-6.593L161 30.204l-.156-.096-.293.17-.038.13-.194.075-.076-.086-.054.14-.22-.016-.006.204-.08.054-.158-.134-.128.008-.016.18-.137-.154-.062.094-.1-.05.008-.164-.44-.002-.084-.22.096-.05-.11-.045.006-.17-.136.094-.139-.096-.126.174-.378-.004-.036-.212-.284-.064-.118.074.002-.196-.059.15-.178-.036-.086-.126-.094.168-.41.106-.092.18-.108-.106-.117.353-.116-.174-.306.042-.25-.259-.14.036V30l-.08.14-.111-.096-.1.152ZM43.806 20.575l.03 24.386.456.266.769.118.368.206.234.018.085-.278.118.144-.02.54-.235.726.233.444.016.917-.088.202-.15.056v.72l-.355 1.138.114-.01-.006.136.154-.104-.062.244 1.155-.028.619.27.038-.074.192.034.257.157.14-.108.002-.215.306 1.15.254.332.333.084.926.486.285.04.424.48.29.743.46.757.047.523.144.324.378.29-.27.547.088.889.3.428.383.056.428.689.413.286.198.68.112.09-.114 1.48.352.877.387.15.136-.156.368-.05.118-.134.363.352.202-.066.086-.32.214.21.112-.108-.034.379.112-.531.068.098.189-.128.296-.515.266-.25.284.058-.022-.224.118-.256-.074-.667.289.076.852-.15 1.738 4.833.447.418.622 1.245.122.703.245.62-.05.513.144.01.022.827-.106.807.172.026.514-.168 1.143.8 1.792.038 1.658.48.226.578.827.604.246.35.43.08.803 2.269.891.466 1.85 3.1.524.662 1.774 3.165.386.326.1.18-.053.112.16-.06.212-.466.172.308.296-.016.022-.134h.144l.465-.344.086.112.334-.156.195.082.526-.164.535-.004.218-.12.416-.012.092.086.183-.199.23.11.468-.176.178.042.335-.1.19-.666 1.972 1.443-.108 2.484 7.893-6.296.871-3.681 11.595-6.73-.168-.179-.366-1.101.05-1.073-.244-1.387.2-.637-.094-.599.066-.54-.136-.803-.513-1.311-.274-1.29 1.764-.486 1.335-2.186-.15-.276.246-.289.084-.446.27-.222-.018-2.901.935-.02.237-.961.278-.146.198-.286 1.097-.08.919-.645.026-.136.799-.791.695-.353.454-.344-.1-3.713-.068-.443-.204-.226-.293-2.368-.236-.397-.04-.284.096-.302.272-.325-.52-.168-.483.158-.816-.212-.683.062-.056-.282-.212.07-.549-.232.008-.182-.418-.03-.513-.23-.356-.343-.176-.004-.01.17-.467.2-.356-.14-.104.092-.2-.002-.056.23-.205-.088-.106-.162-.088.108-.394.08-.03-.082-.236-.052-.181.096.01.203-1.085.062-3.813-1.198-.519-1.038-.112-.056-.202.093.084.225-.22.342-1.081-.408-.243.154-.462-.024-.38-.28-.207-.493-.25-.192-.372.092.128.186.004.262-1.496.495-5.333-.364-.917.19-.142.11-1.89-1.672-.884-.903-1.426-.79-3.039-2.024-6.867-4.887-.062.036-5.65-3.696-.12.034-.368-.27-.462-.72-.254-.117-.258.034-.345-.582-.084.026-.226-.216-.234.276-.229-.17-.096.046-.382-.35-.537-.053.004-.108-1.005-.432-.6-.136-.715-.363-3.275.172-.372-.01-.343-.236-.362-.01-1.588.19-5.667-.124-.336-.134-.28.126-3.628-.1Z" fill="#FDFBF5" stroke="#171619" stroke-width=".5"/><path d="m28.619 1-1.944 3.095-16.588 14.062-7.465 7.109 1.115.887.37.724-.324.43.264.553.356.164.227.329-.057.622-.61.194.042.373.39.118.49.535.57.306-.299 1.195-.564.33-.057.48.79-.212.788.039.162-.195.805-.032.196.607v.41l-.917-.016-.334.427-.194.064.008.138.702.1.034.24-.5.188.128.127.989-.337.156.198.082-.132.25-.062.435.741.81.7-.103.527.432-.827.59-.16.325.006.598.579.067.268 1.033.32.166.146-.198 1.16.068.662-.11 1.201-.551.549-.54.056-.157-.066.048.182.51.649.047.338-.184.314-.168.078-.014.857.572.567.37 1.207.155 2.006.106.17.44.19.24.469.37-.192.687.246.235.516.324.277.038 1.521.218.385.216 1.563.821.37.268.803.785.092.192-.302.2.254.495.204.246.589.213-.06.134.124.344 1.455-.178 1.045.29.277.182.566.633.703.436.743.309.256.216-.038.024-.338.274-.072.078.102.315 1.429.382.002.31.88.11.01-.032.281-.208.102.609.333.81.658-.06-.422.255-.182.014-.19-.503-.71.234-1.443.149-.338.21.064.1.545.75 1.493.485-.318.284-.533.056-.476-.11-.517.55-1.888.565.014.277.229 1.013 2.142-.095.85.047.505.182.419-.166.588.266.669-.09.548.582.393.198.238.54.983.536 2.08.818 2.616.183.881-.03.52.116.365-.146.084-.139.299 1.534 1.541.152.038.01.1.278.054.098.23-.084.195.1.08-.116.18.27.094.013.158.074-.03.008.124.186.038.282.273.096.23.285-.086.36.034.819.302.376-.138.308.264.186.034.014-.076.591.182.26.275.563.324.442.022.85.722.598.135 6.09 9.907 1.547-.03 2.86 3.596.471-.038.195.54.246.054.088.153.296.026.124.126-.042.408.128.182.515-.364.498-.683.054-.264-.116-.366.124.056.054.388.217.038-.014-.364-.11-.016.008-.345-.24-.564-.02-.489.07-.12-.135-.264.15-.539-.23-.562.18-.629-.474-.274-.529.268-.014-.224-.09-.044.189-.148-.049-.52.095-.137.274-.114.034.12.08-.01.07-.194-.164-.2v-.258l-.19.164-.325-.24.066-.125h.1l-.02-.144.185.084.08-.13.294.24.314.114.154.205.145-.064V84.6l-.054-.22-.305-.339.044-.264-.104-.03-.264.194-.32-.12-.03-.154-.229-.097.305-.118.09-.194.218-.166.026-.218.254-.086.05-.158.313-.187.1.01.166-.598-.11-.094-.12.104-.154-.278-.395.08-.016-.14-.194-.05-.553-.55-.672.181-.16-.056-.593-.623-.595.12-.04-.12.22-.368-.075-.276.045-.623.075-.18.802-.717.02.144.385-.026-.044-.314.178-.158.16.218-.11.425.056.314.258.504h.17l.329-.768.428-.469-.004-.27.184-.354.13-.054.135.12.24-.046-.07-.155.168-.418-.01-.3.18-.204-.02-.18.15-.109-.026-.4.334-.114-.03-.18.11-.08.017-.195.258-.194.01-.1-.104-.05.228-.13-.074-.234-.164.21.034-.09-.15-.214.18.124.026-.165-.086-.07.12-.034.054-.15-.074-.104.14-.01.08-.27-.204-.014-.116-.2-.044-.2.16.02.044-.14-.08-.07.11-.219-.1-.134-.12.068-.01-.538.234-.135.016-.18.248-.128-.05-.16.11-.4-.07-.099.006-.644-.194.204.06-.208.164-.146.084-.355-.056-.26.02-.096.12-.008-.026-.469.088-.02.129-.348.25-.182-.092-.919.312-.338.154-.499.152-.018.305-.322.004.13.526-.156.403-.188.51-.4.394-.129-.032-.372.229-.122-.044-.266.094-.203-.145-.284.325-.26.018-.52-2.456-1.184-.002-.915-.197-.166-.124.132-.368.05-.136.156-.429-.194-.31-.833.114-1.48-.112-.09-.198-.68-.413-.286-.428-.689-.382-.056-.3-.428-.089-.89.266-.554-.374-.282-.144-.324-.05-.535-.457-.745-.26-.7-.416-.489-1.582-.644-.254-.333-.306-1.149-.002.215-.14.108-.257-.157-.192-.034-.038.074-.618-.27-1.156.028.062-.244-.154.104.006-.136-.114.01.354-1.137v-.72l.15-.057.089-.202-.016-.917-.233-.444.235-.725.02-.54-.118-.145-.084.279-.235-.019-.368-.206-.769-.118-.456-.266-.03-24.386-2.134-1.844-.102-.728.21-.887-2.747-3.091-.006-6.294 1.003-1.238.044-.506-.188-.393-.322-.186-.219-.62.05-.405.249-.202.216-.35.128-.018.086-.343-.018-.248-.158.032-.278-.202-.014-.112-.367-.022-.068-.128-.27-.11-.192.052-.27-.209-.189-.026.032.183-.394-.199-.064-.178.072-.048-.09-.102-.076.084-.026-.09-.168.02-.036-.11-.123.096-.042-.086-.102.114.004-.288-.136.02.02-.12-.36-.004-.184.126-.197-.088-.164.104-.318-.06-.076-.126-.39.226-.283.036.044-.238-.084-.056.012-.176-.222.004-.012.102-.086.006-.216-.17.054-.079-.1-.096-.555-.148-1.5-.136L28.62 1Z" fill="#FDFBF5" stroke="#171619" stroke-width=".5"/><path d="M41.92 251.44h6.56v3.28h-1V267h-5.62L36 257.98v5.74h.96V267H30.4v-3.28h1v-9h-1v-3.28h7.22l5.26 8.02v-4.74h-.96v-3.28Zm22.008 12.28h.8V267h-7.84v-3.28h1.2l-.32-1.6h-2.72l-.32 1.6h1.2V267h-6.84v-3.28h.8l3.38-12.28h7.28l3.38 12.28Zm-8.44-3.72h1.84l-.82-3.98h-.2l-.82 3.98Zm9.873 7v-3.28h1v-9h-1v-3.28h7.6v3.28h-1v9h1V267h-7.6Zm8.398-3.28h1v-9h-1v-3.28h9.18c1.72 0 3.034.353 3.94 1.06.907.707 1.36 1.853 1.36 3.44 0 .893-.18 1.667-.54 2.32-.36.653-.873 1.107-1.54 1.36l.02.2c1.28.2 1.92.987 1.92 2.36v1.54h.94V267H82.7v-4.7c0-.52-.08-.913-.24-1.18-.146-.267-.386-.447-.72-.54-.32-.093-.78-.14-1.38-.14v3.28h1.32V267h-7.92v-3.28Zm7.68-5.72c.387 0 .674-.1.86-.3.2-.213.3-.54.3-.98V256c0-.44-.1-.76-.3-.96-.186-.213-.473-.32-.86-.32h-1.08V258h1.08Zm15.837 9.28c-2.44 0-4.327-.64-5.66-1.92-1.32-1.28-1.98-3.327-1.98-6.14 0-2.813.66-4.86 1.98-6.14 1.333-1.28 3.22-1.92 5.66-1.92s4.319.64 5.639 1.92c1.334 1.28 2 3.327 2 6.14 0 2.813-.666 4.86-2 6.14-1.32 1.28-3.2 1.92-5.64 1.92Zm0-3.56c.453 0 .793-.12 1.02-.36.226-.24.34-.613.34-1.12v-6.04c0-.507-.114-.88-.34-1.12-.227-.24-.567-.36-1.02-.36-.454 0-.794.12-1.02.36-.227.24-.34.613-.34 1.12v6.04c0 .52.113.9.34 1.14.226.227.566.34 1.02.34Zm8.319 0h1v-9h-1v-3.28h9.18c1.667 0 2.967.34 3.9 1.02.934.68 1.4 1.653 1.4 2.92 0 .787-.186 1.453-.56 2-.373.533-.813.94-1.32 1.22a5.146 5.146 0 0 1-1.44.54v.2c.947.093 1.8.393 2.56.9s1.14 1.413 1.14 2.72c0 1.4-.526 2.427-1.58 3.08-1.053.64-2.42.96-4.1.96h-9.18v-3.28Zm7.68-5.72c.387 0 .674-.1.86-.3.2-.213.3-.54.3-.98V256c0-.44-.1-.76-.3-.96-.186-.213-.473-.32-.86-.32h-1.08V258h1.08Zm.14 5.72c.387 0 .674-.1.86-.3.2-.213.3-.54.3-.98v-.88c0-.44-.1-.76-.3-.96-.186-.213-.473-.32-.86-.32h-1.22v3.44h1.22Zm7.688 3.28v-3.28h1v-9h-1v-3.28h7.6v3.28h-1v9h1V267h-7.6Z" fill="#EA346C"/><path d="M47.38 236.72h1V240h-5.46l-3-6.2-.92.76v2.16h.96V240H32.4v-3.28h1v-9h-1v-3.28h7.56v3.28H39v2.64l3.1-2.64h-1.26v-3.28h7.44v3.28h-1l-3.34 2.76 3.44 6.24ZM49.1 240v-3.28h1v-9h-1v-3.28h13.5v6.04h-4.48v-2.76H55.7v3.16h1.76v2.28H55.7v3.56h2.42v-3.16h4.48V240H49.1Zm25.777-15.56h6.56v3.28h-1V240h-5.62l-5.86-9.02v5.74h.96V240h-6.56v-3.28h1v-9h-1v-3.28h7.22l5.26 8.02v-4.74h-.96v-3.28Zm16.068 0h6.14v3.28h-.8l-3.86 6.92v2.08h1V240h-7.6v-3.28h1v-2.08l-3.98-6.92h-.8v-3.28h7.74v3.28h-.7l1.18 3.1h.2l1.18-3.1h-.7v-3.28Zm18.674 12.28h.8V240h-7.84v-3.28h1.2l-.32-1.6h-2.72l-.32 1.6h1.2V240h-6.84v-3.28h.8l3.38-12.28h7.28l3.38 12.28Zm-8.44-3.72h1.84l-.82-3.98h-.2l-.82 3.98Z" fill="#FDFBF5"/></svg>