<svg width="309" height="417" fill="none" xmlns="http://www.w3.org/2000/svg"><path fill-rule="evenodd" clip-rule="evenodd" d="M250.595 324.25a640.34 640.34 0 0 1-3.016-18.623 509.89 509.89 0 0 1-1.236-8.873c-.266-2.075-.672-4.447.739-5.984 1.987-2.163 3.792-4.015 4.035-7.113.228-2.915-.757-6.093-1.373-8.923-1.293-5.935-2.902-11.794-4.68-17.6-1.807-5.899-3.787-11.741-5.797-17.572-1.878-5.453-3.684-10.954-6.131-16.186-4.644-9.927-12.499-17.278-22.208-22.187-2.414-1.222-7.339-5.579-9.861-6.555-2.32-.897-2.311 1.722-4.594.736-1.824-.789-3.523-1.842-4.544-3.602-1.11-1.914-3.891-4.59-4.315-6.816-.897-4.72.075-8.737-3.295-12.289-2.989-3.155-7.009-5.317-11.167-6.476-9.151-2.553-21.352-.769-26.872 7.733-2.637 4.061-3.558 8.968-7.116 12.283-3.107 2.893-2.411 4.87-6.435 6.361-.228.085-6.404-1.24-6.632-1.155-4.402-.942-8.608 1.695-12.647 3.225-6.02 2.281-11.752 5.25-17.136 8.778-10.86 7.114-20.159 16.353-27.826 26.807-7.73 10.541-13.728 22.355-18 34.703a132.731 132.731 0 0 0-2.79 9.1c-.46 1.716-.952 3.495-.39 5.251.457 1.437 1.476 2.508 2.672 3.37 1.623 1.168 4.876 1.928 4.813 4.278-.049 1.788-.655 3.668-.951 5.435-.352 2.103-.642 4.219-.931 6.331-1.316 9.615-2.34 19.286-2.794 28.983-.447 9.548-.816 19.292-.155 28.837.044.63.232 1.207.535 1.696-.284.109-.304.635.047.71l.74.157a3.25 3.25 0 0 0 1.884.647c.498.015.995.039 1.494.064 5.249 1.097 10.498 2.134 15.817 2.919a394.72 394.72 0 0 0 19.454 2.365c13.364 1.298 26.625.868 40.008.168a511.954 511.954 0 0 1 40.091-.516c13.387.349 26.771.932 40.161 1.17 14.961.265 29.897-.143 44.814-1.332 2.046-.163 3.311-1.79 2.907-3.821-2.416-12.172-5.155-24.261-7.319-36.484Z" fill="#FDFBF5"/><path fill-rule="evenodd" clip-rule="evenodd" d="M121.923 191.108c1.383-.06 2.794.164 4.174.3.12.012.166.197.03.226-2.469.516-4.913 1.221-7.339 1.938l-1.039.307c-2.734.81-5.391 1.645-8.039 2.724-5.277 2.152-10.29 5.055-14.904 8.39-17.765 12.846-30.623 32.293-38.737 52.427a143.112 143.112 0 0 0-6.624 20.946c-.097.409-.517 1.458-.286 1.876.203.371.994.6 1.36.792l1.242.643c2.42 1.247 6.45 3.298 6.856 3.498l.63.311c10.312 5.055 21.33 9.342 32.935 9.638l.09-.991c.518-5.479 1.198-10.986 2.678-16.296.08-.286.443-.19.477.064.825 6.287.56 12.622.272 18.937-.51 11.186-1.186 22.367-1.79 33.547-.3 5.594-.69 11.183-1.042 16.774-.352 5.601-.465 11.338-1.27 16.894-.18 1.238-1.63 1.911-2.728 1.781-1.215-.145-2.15-1.215-2.155-2.443-.015-3.235.392-6.511.618-9.739.214-3.067.444-6.133.681-9.198.863-11.188 1.854-22.364 2.773-33.547.326-3.967.678-7.929 1.038-11.892-12.292-.397-23.776-4.95-34.733-10.271-.158 3.601-.54 7.196-.911 10.782-1.035 10.005-1.948 20.008-2.63 30.046a612.594 612.594 0 0 0-.816 15.222 463.435 463.435 0 0 0-.323 9.983l-.038 1.906c-.03 1.207-.152 2.327-1.17 3.206-1.03.893-2.425.941-3.447 0-1.368-1.26-1.126-2.975-1.086-4.667.1-4.28.262-8.558.483-12.834.514-9.965 1.539-19.891 2.878-29.777l.524-3.816c.976-7.094 2.047-14.35 4.23-21.183-.848-.423-1.695-.849-2.541-1.277-1.498-.758-3.046-1.47-4.503-2.306-1.154-.664-2.15-1.576-2.472-2.919-.359-1.498.19-3.136.554-4.596l.032-.129c.357-1.471.742-2.936 1.147-4.394a144.914 144.914 0 0 1 6.063-17.367c4.768-11.325 10.922-22.083 18.441-31.811 6.767-8.757 14.761-16.698 24.13-22.653 4.581-2.911 9.464-5.302 14.625-6.992 2.413-.791 5.038-1.478 7.565-1.76a59.712 59.712 0 0 1 4.096-.3h.001Zm24.512-17.945c1.644-1.764 4.91.062 4.12 2.399-1.857 5.501-4.813 10.518-9.427 14.132-4.338 3.396-9.51 5.604-15.081 5.133a.334.334 0 0 1-.112-.031l.479.651c3.769 5.098 7.744 10.125 12.537 14.293 9.763 8.489 23.056 13.068 35.892 9.811 10.098-2.563 18.996-10.549 21.612-20.727a2.072 2.072 0 0 1-1.309.12c-2.093-.454-4.166-2.657-5.517-4.236a20.074 20.074 0 0 1-3.438-5.637c-1.53-3.815-2.021-8.727.069-12.422.258-.456.852-.201.904.244l.078.694c.403 3.463.905 6.813 2.539 9.972.798 1.544 1.756 3.053 2.923 4.346.624.693 1.3 1.354 2.03 1.934.712.567 1.573.975 2.212 1.625l.116.123.004-.022c.161-1.37 1.122-1.975 2.064-1.937.91.036 1.98.438 2.393.63l.04.018c6.351 3.049 12.202 7.023 17.707 11.433 11.385 9.119 19.915 21.04 24.049 35.078 2.028 6.891 3.192 13.99 4.421 21.056l.756 4.329c1.147 6.524 2.428 13.176 5.018 19.244.669 1.569.153 3.041-1.489 3.659-2.05.768-4.107 1.519-6.17 2.254 1.012 4.342 1.629 8.835 2.388 13.198 1.611 9.276 3.587 18.492 5.281 27.755.865 4.737 1.647 9.49 2.512 14.226.416 2.28.851 4.559 1.273 6.839.228 1.229.434 2.462.652 3.694l.037.205c.125.648.282 1.32.103 1.97-.204.741-.783 1.265-1.299 1.797-.425.437-1.039.44-1.561.202l-.171-.08c-.931-.435-1.659-.869-1.989-1.919-.209-.664-.285-1.413-.421-2.098-.261-1.311-.51-2.625-.744-3.943a962.58 962.58 0 0 1-1.375-7.917l-.417-2.472c-1.435-8.523-2.796-17.096-3.484-25.709-.306-3.82-.629-7.637-.956-11.456l-.244-2.863c-.311-3.625-.689-7.34-.743-11.015l-1.232.438-6.014 2.126c-1.493.528-3.39 1.607-4.996 1.41-.785-.096-1.384-.343-1.846-.792a410.68 410.68 0 0 0 2.302 23.38c.909 7.063 1.917 14.118 3.107 21.138a528.68 528.68 0 0 0 1.854 10.415 413.78 413.78 0 0 0 1.018 5.192c.174.862.381 1.725.518 2.595.155.994-.119 1.607-.675 2.427-.457.672-1.371 1.018-2.111.553-.982-.615-1.493-1.149-1.781-2.27-.263-1.018-.422-2.081-.624-3.112-.375-1.904-.737-3.81-1.087-5.717a374.618 374.618 0 0 1-2.006-12.006c-2.121-14.135-3.466-28.39-4.146-42.669a379.384 379.384 0 0 1-.38-21.146c.031-3.615.15-7.239.405-10.844.26-3.65.798-7.227 1.278-10.842.017-.128.197-.134.205 0 .228 4.053.584 8.1.759 12.164.167 3.876.24 7.759.373 11.638.175 5.098.417 10.2.736 15.297.579-.634 1.454-1 2.328-.858 1.267-.265 2.63-.929 3.837-1.333l4.552-1.52c2.391-.802 4.787-1.59 7.187-2.363-2.148-7.223-3.618-14.554-4.873-21.99l-.56-3.345c-1.109-6.585-2.305-13.172-4.312-19.548a62.526 62.526 0 0 0-9.462-18.578c-4.13-5.561-9.157-10.459-14.331-15.039-4.43-3.922-9.17-7.462-13.688-11.276.047.252.057.53.016.837-.961 7.031-4.629 13.579-9.741 18.449-10.269 9.786-25.471 11.815-38.615 7.227-12.714-4.438-23.955-14.949-27.927-27.957-.068-.221.23-.31.35-.147.219.303.442.604.663.906a.295.295 0 0 1 .043-.188.292.292 0 0 1 .153-.119c4.634-1.79 9.184-4.327 12.657-7.917a27.293 27.293 0 0 0 4.337-5.871 23.61 23.61 0 0 0 1.461-3.18l.102-.284c.485-1.373.89-2.773 1.904-3.861Z" fill="#000"/><path fill-rule="evenodd" clip-rule="evenodd" d="M170.977 59.565c15.445 0 34.788 17.62 40.449 25.116 4.76 6.304 4.087 38.778 4.087 58.041 0 4.028-1.821 11.654-2.483 15.507-2.421 14.122-12.976 25.965-33.866 25.965-17.009 0-30.099-5.388-42.757-19.168-2.887-3.143-16.991 8.111-19.875 4.058-7.534 0-13.833-70.392.958-91.504 14.792-21.114 38.042-18.015 53.487-18.015Z" fill="#FDFBF5"/><path fill-rule="evenodd" clip-rule="evenodd" d="M124.556 64.523c8.925-8.12 20.814-12.026 32.81-11.738 6.213.151 12.403 1.334 18.271 3.36 2.935 1.018 5.777 2.346 8.494 3.848.979.539 1.883 1.171 2.752 1.843l.216.168h.003c2.331.838 4.412 2.343 6.299 4.102 3.784-.301 7.598.039 11.256 1.206 5.092 1.627 9.805 4.605 13.116 8.834 3.856 4.925 5.138 10.898 4.681 17.064l-.085 1.048c-.452 5.448-1.262 12.453-5.733 16.032a3.48 3.48 0 0 1-1.104.605c2.88 4.933 5.244 10.412 6.658 15.945 5.4 21.132 1.249 43.171-5.244 63.54-.533 1.678-3.071 2.793-4.362 1.153-2.307-2.932-5.659-5.169-9.428-5.587-2.326-.259-4.641.21-6.838-.846a6.242 6.242 0 0 1-2.293-1.924 29.6 29.6 0 0 1-11.67 1.908c-6.503-.267-13.456-2.519-17.93-7.459-.718-.792-.901-1.683-.735-2.486a9.654 9.654 0 0 1 1.73-.443c5.674 3.345 11.929 5.579 18.651 5.72 3.884.081 7.672-.462 10.821-2.887a15.365 15.365 0 0 0 1.888-1.731c6.584-4.236 11.227-11.43 13.434-19.137 2.057-7.187 1.803-14.67 1.097-22.042l-.374-3.889c-.543-5.71-1.048-11.437-1.189-17.169l.042-.003c1.391-.09 1.401-2.267 0-2.176-3.623.234-7.218-.361-10.83-.101-.03-1.708-.154-3.408-.654-5.054-.288-.941-1.925-1.127-2.099 0-.232 1.506-.317 3.005-.343 4.519-5.404-.072-10.804-.528-16.21-.34-.997-1.063-1.315-2.95-1.781-4.261a66.538 66.538 0 0 0-.207-.577 30.86 30.86 0 0 1-1.755 5.503l-1.326.004c-7.523.036-15.198.262-22.543 1.823-.511-.392-.815-1.075-.898-1.697-.531-4.041-1.292-7.974-2.64-11.825l-.192-.543a3.722 3.722 0 0 1-.05-.144c-.993 1.603-2.179 3.098-3.471 4.489a45.392 45.392 0 0 1-2.38 2.366c-.795.884-1.618 1.755-2.416 2.642.032.161.059.324.081.492a24.44 24.44 0 0 1 .09 5.553 26.647 26.647 0 0 1-2.78 9.534l-.049.299c-.229 1.395-.556 2.837-1.321 3.887a9.935 9.935 0 0 1 2.114 3.763c.38 1.263-1.367 2.357-2.272 1.323a10.573 10.573 0 0 0-2.397-2.041c-.056.075-.156.112-.268.049-2.445-1.358-6.599-.947-9.042.332-3.039 1.588-4.223 4.85-3.887 8.155.324 3.158 1.706 6.849 4.385 8.467 1.23.743 2.186.806 3.493.449.417-.113.935-.461 1.156-.633l.219-.176c.856-.676 1.653-1.139 2.664-1.157 1.034-.322 2.071.124 2.467 1.208l.024.07c.186.552.523 1.246.449 2.09-.075.902-.49 1.724-1.107 2.385-.107.116-.22.228-.337.334 10.635 11.515 12.001 29.457 6.547 43.841a44.288 44.288 0 0 1-.753 1.872c-.912 2.116-4.42 1.46-4.867-.637a46.927 46.927 0 0 0-1.454-5.274l-.145-.42c-.323-.924-.626-1.857-.952-2.782l-.033-.106-.04-.144-.552 1.205-1.679 3.637c-.786 1.698-3.281.775-3.374-.861l-.002-.055a29.024 29.024 0 0 0-1.151-7.394l-.219.272c-3.273 4.048-7.115 7.841-12.386 8.775-1.321.233-2.817-1.148-1.909-2.484.376-.552.738-1.118 1.081-1.692a10.8 10.8 0 0 1-.836-.43c-1.999-1.122-3.663-2.722-5.04-4.537-2.919-3.845-3.963-8.687-4.219-13.426-.272-5.008.169-10.287 1.537-15.119.593-2.089 1.395-4.094 2.323-6.039-.064-.173-.129-.347-.191-.522a79.366 79.366 0 0 1-2.505-8.531 83.164 83.164 0 0 1-2.205-17.825c-.164-10.725 1.686-21.622 5.583-31.624 4.026-10.314 10.082-20.251 18.322-27.746h-.002Zm-5.012 93.775c-.739-1.164-2.589-.115-1.903 1.057l.026.042c1.171 1.847 1.721 3.947 2.396 6.007.432 1.324 2.536.758 2.099-.581l-.147-.446c-.67-2.088-1.283-4.21-2.472-6.079h.001Zm6.438-22.218.49-.238c1.55-.739 2.907-1.242 4.737-.597 2.451.862 5.076 3.607 3.419 6.27-.609.982-1.691 1.373-2.806 1.142-1.88-.389-2.366-2.083-3.32-3.473l-.164-.235c-.582-.841-1.317-2.003-2.286-2.334-.22-.076-.313-.418-.07-.535Zm1.381-56.54.158-.143c1.054-.93-.491-2.464-1.539-1.539-4.793 4.234-6.457 10.864-8.943 16.513-.558 1.271 1.317 2.38 1.879 1.1 2.372-5.392 3.945-11.84 8.446-15.932l-.001.001Zm57.595-1.853c-1.251-.565-2.347 1.257-1.143 1.857l.045.022c4.232 1.913 6.033 6.242 7.757 10.263.55 1.284 2.424.178 1.88-1.097l-.312-.72c-1.798-4.145-3.897-8.366-8.227-10.325Zm6.635-2.618c-1.328-.46-1.897 1.641-.58 2.1 3.587 1.249 6.049 3.942 8.124 7.021.778 1.154 2.663.065 1.877-1.099-2.41-3.574-5.271-6.574-9.421-8.022Z" fill="#000"/><path fill-rule="evenodd" clip-rule="evenodd" d="M184.307 165.093a11.08 11.08 0 0 1-4.653-3.579 2.165 2.165 0 0 1-.435-1.669c.098-.602.453-1.145.938-1.51.485-.366 1.093-.546 1.68-.454.511.079 1.018.359 1.421.939l.084.116a7.33 7.33 0 0 0 2.686 2.253 6.056 6.056 0 0 0 3.324.585c2.238-.252 3.779-1.462 5.418-3.106.203-.207.407-.421.61-.638a.964.964 0 0 1 .507-.39 1.109 1.109 0 0 1 1.249.427c.125.184.197.412.174.675-.151 1.702-1.04 3.221-2.305 4.414-1.404 1.326-3.266 2.242-5.018 2.564-1.93.354-3.898.1-5.68-.627Zm6.591-26.266c2.054 1.25 5.184 4.161 2.974 7.257-2.602 2.728-6.346-.401-8.191-1.816-1.711-1.097-3.634 1.724-2.047 3.005 13.336 9.873 18.747-8.119 8.303-9.913-1.151-.198-1.577 1.081-1.039 1.467Zm-23.896-11.484c.227-2.817 4.517-3.457 4.944-.669.381 2.497-.068 4.791-1.193 7.04-1.074 2.147-3.775 1.145-3.98-.811-.274-2.622.088-3.807.229-5.56Zm32.658-1.247c.598-.784 1.462-1.318 2.496-1.017 3.233.946 2.28 5.536 1.145 7.77-.617 1.212-2.611 1.52-3.513.452-1.467-1.742-2.172-5.221-.303-6.937.05-.088.106-.178.175-.268Zm-28.952-11.079.511-.09c1.58-.273 3.543-.535 4.661.734.593.674.796 1.926 0 2.571-1.401 1.133-2.951.695-4.63.79a18.45 18.45 0 0 0-4.047.69c-2.925.837-5.308 2.362-7.806 4.038-.327.218-.662-.2-.506-.506 1.442-2.825 4.236-5.145 7.035-6.559 1.495-.755 3.128-1.381 4.782-1.668Zm26.005-1.265.391.08c4.254.888 9.78 2.664 11.793 6.843.078.591-.003.717-.069.799l-.022.028c-.055.071-.098.168-.354.249l-.216-.054c-.923-.242-1.653-.576-2.36-.922l-.768-.377c-.889-.437-1.787-.857-2.738-1.167a32.145 32.145 0 0 0-6.237-1.377 2.558 2.558 0 0 1-1.251-.477 1.884 1.884 0 0 1-.701-1.064c-.149-.601-.105-1.055.217-1.598.242-.407.589-.689.987-.851a2.31 2.31 0 0 1 1.328-.112Z" fill="#000"/></svg>