<svg width="1009" height="431" fill="none" xmlns="http://www.w3.org/2000/svg"><path d="M201 352h-81v41h81v-41ZM302 338h-81v55h81v-55ZM403 328h-81v65h81v-65ZM504 283h-81v110h81V283ZM605 193h-81v200h81V193ZM706 123h-81v270h81V123ZM807 223h-81v170h81V223ZM908 293h-81v100h81V293ZM1009 334h-81v59h81v-59Z" fill="#9CFFF8"/><path d="M134.38 416.32c-4.54 0-6.02 3.48-4.18 6l.44-.26c-1.12-1.64-.72-3.88 1.72-3.52 3.76.56 5.12 5.38.38 6.32-2.14.44-3.38 1.96-3.38 5.14h.54c0-.96.36-2 1.54-2 1.38 0 2.54 2.14 5.06 2.14 2.96 0 3.5-2.2 3.5-3.22 0-1.04-.58-1.74-1.32-2.36l-.36.34c.52.38.68 1.6-.32 1.6-.92 0-1.74-1.3-3.56-1.52 2.88-.9 5.24-2.76 4.5-5.5-.52-1.9-2.3-3.16-4.56-3.16Zm15.74 0c-3.74 0-6.78 3.08-6.78 6.9 0 3.82 3.04 6.92 6.78 6.92 3.76 0 6.78-3.1 6.78-6.92s-3.02-6.9-6.78-6.9Zm3.38 12.34c-1.14.7-3.6-1.14-5.46-4.14-1.86-3-2.44-6-1.3-6.72 1.16-.72 3.58 1.14 5.46 4.14 1.86 2.98 2.44 6 1.3 6.72Zm6.848-6.96c1.2 0 2.48-.26 3.66-.76V430h4.38v-13.56h-.5c-.92 3.1-4.5 4.74-7.54 4.78v.48Zm13.347-2.48c0 1.72 1.42 3.3 1.22 4.44-.12.58-.72.78-1.52.8h-.2v.48h5.62V430h4.38v-5.06h1.48v-.48h-1.48v-8.02h-.5c0 4.6-.52 8.02-3.88 8.02h-1.48c1.14-.38 1.96-1.04 1.96-2.2 0-1.56-1.3-3.28-1.22-4.56.04-.74.54-.96 1.42-.96v-.46c-2.66 0-5.8.18-5.8 2.94ZM336.38 416.32c-4.54 0-6.02 3.48-4.18 6l.44-.26c-1.12-1.64-.72-3.88 1.72-3.52 3.76.56 5.12 5.38.38 6.32-2.14.44-3.38 1.96-3.38 5.14h.54c0-.96.36-2 1.54-2 1.38 0 2.54 2.14 5.06 2.14 2.96 0 3.5-2.2 3.5-3.22 0-1.04-.58-1.74-1.32-2.36l-.36.34c.52.38.68 1.6-.32 1.6-.92 0-1.74-1.3-3.56-1.52 2.88-.9 5.24-2.76 4.5-5.5-.52-1.9-2.3-3.16-4.56-3.16Zm15.74 0c-3.74 0-6.78 3.08-6.78 6.9 0 3.82 3.04 6.92 6.78 6.92 3.76 0 6.78-3.1 6.78-6.92s-3.02-6.9-6.78-6.9Zm3.38 12.34c-1.14.7-3.6-1.14-5.46-4.14-1.86-3-2.44-6-1.3-6.72 1.16-.72 3.58 1.14 5.46 4.14 1.86 2.98 2.44 6 1.3 6.72Zm6.848-6.96c1.2 0 2.48-.26 3.66-.76V430h4.38v-13.56h-.5c-.92 3.1-4.5 4.74-7.54 4.78v.48Zm16.707-4.16c1.86 0 2.32 3.84 5.3 3.84s3.6-2.76 3.3-4.96h-.44c0 .88-.22 1.44-1.2 1.44-1 0-2.04-1.54-4.02-1.54-5.74 0-7.04 4.34-6.74 7.8.32 3.54 2.76 6.02 6.52 6.02 3.74 0 6.5-1.54 6.5-4.26 0-2.74-2.76-4.12-6.5-4.12-2.12 0-3.18.76-3.52 2-1.16-3.1-1.36-6.22.8-6.22Zm.86 9.56c-1.58-2.46-1.3-3.9-.26-4.54 1.14-.72 2.56-.02 3.96 2.24 1.42 2.26 1.44 3.82.28 4.54-1.14.72-2.48.1-3.98-2.24ZM235.38 416.32c-4.54 0-6.02 3.48-4.18 6l.44-.26c-1.12-1.64-.72-3.88 1.72-3.52 3.76.56 5.12 5.38.38 6.32-2.14.44-3.38 1.96-3.38 5.14h.54c0-.96.36-2 1.54-2 1.38 0 2.54 2.14 5.06 2.14 2.96 0 3.5-2.2 3.5-3.22 0-1.04-.58-1.74-1.32-2.36l-.36.34c.52.38.68 1.6-.32 1.6-.92 0-1.74-1.3-3.56-1.52 2.88-.9 5.24-2.76 4.5-5.5-.52-1.9-2.3-3.16-4.56-3.16Zm15.74 0c-3.74 0-6.78 3.08-6.78 6.9 0 3.82 3.04 6.92 6.78 6.92 3.76 0 6.78-3.1 6.78-6.92s-3.02-6.9-6.78-6.9Zm3.38 12.34c-1.14.7-3.6-1.14-5.46-4.14-1.86-3-2.44-6-1.3-6.72 1.16-.72 3.58 1.14 5.46 4.14 1.86 2.98 2.44 6 1.3 6.72Zm6.848-6.96c1.2 0 2.48-.26 3.66-.76V430h4.38v-13.56h-.5c-.92 3.1-4.5 4.74-7.54 4.78v.48Zm13.542 3c.26-.42 1.12-1.26 2.32-1.2 1.3.06 2.5.7 3.32 1.92 1.8 2.66.1 4.26-2.08 4.26-1.38 0-3.08-.54-4.18-1.3l-.3.38c1.04.8 2.82 1.38 4.72 1.38 3.74 0 6.5-1.46 6.5-3.8s-2.76-3.7-6.5-3.66c-2.14 0-3.2.74-3.8 1.42.06-1.06.22-1.98.42-2.94.12-.66.26-1.34.36-2.12.52 1.76 1.66 2.46 3.1 2.46 1.58 0 2.34-1.54 3.34-1.54.98 0 1.04 1.2.52 1.58l.36.34c.74-.62 1.32-1.52 1.32-2.56 0-1.02-.6-3-2.76-3-2.22 0-2.84 2.12-4.22 2.12s-1.5-1.04-1.5-2h-.48v.28c-.02 1.82-.28 3.1-.5 4.36-.22 1.16-.42 2.24-.42 3.62h.46ZM740.38 416.32c-4.54 0-6.02 3.48-4.18 6l.44-.26c-1.12-1.64-.72-3.88 1.72-3.52 3.76.56 5.12 5.38.38 6.32-2.14.44-3.38 1.96-3.38 5.14h.54c0-.96.36-2 1.54-2 1.38 0 2.54 2.14 5.06 2.14 2.96 0 3.5-2.2 3.5-3.22 0-1.04-.58-1.74-1.32-2.36l-.36.34c.52.38.68 1.6-.32 1.6-.92 0-1.74-1.3-3.56-1.52 2.88-.9 5.24-2.76 4.5-5.5-.52-1.9-2.3-3.16-4.56-3.16Zm15.74 0c-3.74 0-6.78 3.08-6.78 6.9 0 3.82 3.04 6.92 6.78 6.92 3.76 0 6.78-3.1 6.78-6.92s-3.02-6.9-6.78-6.9Zm3.38 12.34c-1.14.7-3.6-1.14-5.46-4.14-1.86-3-2.44-6-1.3-6.72 1.16-.72 3.58 1.14 5.46 4.14 1.86 2.98 2.44 6 1.3 6.72Zm12.513-12.34c-4.54 0-6.02 3.48-4.18 6l.44-.26c-1.12-1.64-.72-3.88 1.72-3.52 3.76.56 5.12 5.38.38 6.32-2.14.44-3.38 1.96-3.38 5.14h.54c0-.96.36-2 1.54-2 1.38 0 2.54 2.14 5.06 2.14 2.96 0 3.5-2.2 3.5-3.22 0-1.04-.58-1.74-1.32-2.36l-.36.34c.52.38.68 1.6-.32 1.6-.92 0-1.74-1.3-3.56-1.52 2.88-.9 5.24-2.76 4.5-5.5-.52-1.9-2.3-3.16-4.56-3.16Zm15.74 0c-3.74 0-6.78 3.08-6.78 6.9 0 3.82 3.04 6.92 6.78 6.92 3.76 0 6.78-3.1 6.78-6.92s-3.02-6.9-6.78-6.9Zm3.38 12.34c-1.14.7-3.6-1.14-5.46-4.14-1.86-3-2.44-6-1.3-6.72 1.16-.72 3.58 1.14 5.46 4.14 1.86 2.98 2.44 6 1.3 6.72ZM942.38 416.32c-4.54 0-6.02 3.48-4.18 6l.44-.26c-1.12-1.64-.72-3.88 1.72-3.52 3.76.56 5.12 5.38.38 6.32-2.14.44-3.38 1.96-3.38 5.14h.54c0-.96.36-2 1.54-2 1.38 0 2.54 2.14 5.06 2.14 2.96 0 3.5-2.2 3.5-3.22 0-1.04-.58-1.74-1.32-2.36l-.36.34c.52.38.68 1.6-.32 1.6-.92 0-1.74-1.3-3.56-1.52 2.88-.9 5.24-2.76 4.5-5.5-.52-1.9-2.3-3.16-4.56-3.16Zm15.74 0c-3.74 0-6.78 3.08-6.78 6.9 0 3.82 3.04 6.92 6.78 6.92 3.76 0 6.78-3.1 6.78-6.92s-3.02-6.9-6.78-6.9Zm3.38 12.34c-1.14.7-3.6-1.14-5.46-4.14-1.86-3-2.44-6-1.3-6.72 1.16-.72 3.58 1.14 5.46 4.14 1.86 2.98 2.44 6 1.3 6.72Zm12.51-12.34c-4.54 0-6.02 3.48-4.18 6l.44-.26c-1.12-1.64-.72-3.88 1.72-3.52 3.76.56 5.12 5.38.38 6.32-2.14.44-3.38 1.96-3.38 5.14h.54c0-.96.36-2 1.54-2 1.38 0 2.54 2.14 5.06 2.14 2.96 0 3.5-2.2 3.5-3.22 0-1.04-.58-1.74-1.32-2.36l-.36.34c.52.38.68 1.6-.32 1.6-.92 0-1.74-1.3-3.56-1.52 2.88-.9 5.24-2.76 4.5-5.5-.52-1.9-2.3-3.16-4.56-3.16Zm15.37 0c-4.54 0-6.02 3.48-4.18 6l.44-.26c-1.12-1.64-.72-3.88 1.72-3.52 3.76.56 5.12 5.38.38 6.32-2.14.44-3.38 1.96-3.38 5.14h.54c0-.96.36-2 1.54-2 1.38 0 2.54 2.14 5.06 2.14 2.96 0 3.5-2.2 3.5-3.22 0-1.04-.58-1.74-1.32-2.36l-.36.34c.52.38.68 1.6-.32 1.6-.92 0-1.74-1.3-3.56-1.52 2.88-.9 5.24-2.76 4.5-5.5-.52-1.9-2.3-3.16-4.56-3.16ZM841.38 416.32c-4.54 0-6.02 3.48-4.18 6l.44-.26c-1.12-1.64-.72-3.88 1.72-3.52 3.76.56 5.12 5.38.38 6.32-2.14.44-3.38 1.96-3.38 5.14h.54c0-.96.36-2 1.54-2 1.38 0 2.54 2.14 5.06 2.14 2.96 0 3.5-2.2 3.5-3.22 0-1.04-.58-1.74-1.32-2.36l-.36.34c.52.38.68 1.6-.32 1.6-.92 0-1.74-1.3-3.56-1.52 2.88-.9 5.24-2.76 4.5-5.5-.52-1.9-2.3-3.16-4.56-3.16Zm15.74 0c-3.74 0-6.78 3.08-6.78 6.9 0 3.82 3.04 6.92 6.78 6.92 3.76 0 6.78-3.1 6.78-6.92s-3.02-6.9-6.78-6.9Zm3.38 12.34c-1.14.7-3.6-1.14-5.46-4.14-1.86-3-2.44-6-1.3-6.72 1.16-.72 3.58 1.14 5.46 4.14 1.86 2.98 2.44 6 1.3 6.72Zm12.51-12.34c-4.54 0-6.02 3.48-4.18 6l.44-.26c-1.12-1.64-.72-3.88 1.72-3.52 3.76.56 5.12 5.38.38 6.32-2.14.44-3.38 1.96-3.38 5.14h.54c0-.96.36-2 1.54-2 1.38 0 2.54 2.14 5.06 2.14 2.96 0 3.5-2.2 3.5-3.22 0-1.04-.58-1.74-1.32-2.36l-.36.34c.52.38.68 1.6-.32 1.6-.92 0-1.74-1.3-3.56-1.52 2.88-.9 5.24-2.76 4.5-5.5-.52-1.9-2.3-3.16-4.56-3.16Zm8.69 5.38c1.2 0 2.48-.26 3.66-.76V430h4.38v-13.56h-.5c-.92 3.1-4.5 4.74-7.54 4.78v.48ZM437.38 416.32c-4.54 0-6.02 3.48-4.18 6l.44-.26c-1.12-1.64-.72-3.88 1.72-3.52 3.76.56 5.12 5.38.38 6.32-2.14.44-3.38 1.96-3.38 5.14h.54c0-.96.36-2 1.54-2 1.38 0 2.54 2.14 5.06 2.14 2.96 0 3.5-2.2 3.5-3.22 0-1.04-.58-1.74-1.32-2.36l-.36.34c.52.38.68 1.6-.32 1.6-.92 0-1.74-1.3-3.56-1.52 2.88-.9 5.24-2.76 4.5-5.5-.52-1.9-2.3-3.16-4.56-3.16Zm15.74 0c-3.74 0-6.78 3.08-6.78 6.9 0 3.82 3.04 6.92 6.78 6.92 3.76 0 6.78-3.1 6.78-6.92s-3.02-6.9-6.78-6.9Zm3.38 12.34c-1.14.7-3.6-1.14-5.46-4.14-1.86-3-2.44-6-1.3-6.72 1.16-.72 3.58 1.14 5.46 4.14 1.86 2.98 2.44 6 1.3 6.72Zm6.848-6.96c1.2 0 2.48-.26 3.66-.76V430h4.38v-13.56h-.5c-.92 3.1-4.5 4.74-7.54 4.78v.48Zm19.372 8.3c0-3.78-1.86-5.42.32-7.16 1.46-1.14 3.4-2.78 3.4-6.4h-.5v.14c-.04.92-.4 1.86-1.7 1.86-1.38 0-2.06-2.12-5.04-2.12-2.7 0-3.18 2.18-3.18 3.22 0 1.02.6 1.72 1.34 2.34l.36-.34c-.52-.38-.48-1.58.52-1.58s1.96 1.54 3.96 1.54c.78 0 1.62-.22 2.32-.7-.54.68-1.18 1.22-1.76 1.68-2.32 1.82-4.8 4.4-4.8 7.52h4.76ZM639.38 416.32c-4.54 0-6.02 3.48-4.18 6l.44-.26c-1.12-1.64-.72-3.88 1.72-3.52 3.76.56 5.12 5.38.38 6.32-2.14.44-3.38 1.96-3.38 5.14h.54c0-.96.36-2 1.54-2 1.38 0 2.54 2.14 5.06 2.14 2.96 0 3.5-2.2 3.5-3.22 0-1.04-.58-1.74-1.32-2.36l-.36.34c.52.38.68 1.6-.32 1.6-.92 0-1.74-1.3-3.56-1.52 2.88-.9 5.24-2.76 4.5-5.5-.52-1.9-2.3-3.16-4.56-3.16Zm15.74 0c-3.74 0-6.78 3.08-6.78 6.9 0 3.82 3.04 6.92 6.78 6.92 3.76 0 6.78-3.1 6.78-6.92s-3.02-6.9-6.78-6.9Zm3.38 12.34c-1.14.7-3.6-1.14-5.46-4.14-1.86-3-2.44-6-1.3-6.72 1.16-.72 3.58 1.14 5.46 4.14 1.86 2.98 2.44 6 1.3 6.72Zm6.848-6.96c1.2 0 2.48-.26 3.66-.76V430h4.38v-13.56h-.5c-.92 3.1-4.5 4.74-7.54 4.78v.48Zm22.087 7.22c-1.86 0-2.32-3.84-5.3-3.84s-3.6 2.76-3.3 4.94h.44c0-.88.22-1.44 1.22-1.44.98 0 2.02 1.56 4 1.56 5.74 0 7.04-4.34 6.74-7.82-.32-3.52-2.76-6-6.52-6-3.74 0-6.5 1.52-6.5 4.26 0 2.72 2.76 4.12 6.5 4.12 2.1 0 3.16-.76 3.52-1.98 1.14 3.08 1.36 6.2-.8 6.2Zm-.58-5.02c-1.16.72-2.58.02-3.98-2.24-1.42-2.26-1.42-3.84-.28-4.54 1.14-.72 2.56-.16 3.98 2.24 1.5 2.52 1.3 3.9.28 4.54ZM538.38 416.32c-4.54 0-6.02 3.48-4.18 6l.44-.26c-1.12-1.64-.72-3.88 1.72-3.52 3.76.56 5.12 5.38.38 6.32-2.14.44-3.38 1.96-3.38 5.14h.54c0-.96.36-2 1.54-2 1.38 0 2.54 2.14 5.06 2.14 2.96 0 3.5-2.2 3.5-3.22 0-1.04-.58-1.74-1.32-2.36l-.36.34c.52.38.68 1.6-.32 1.6-.92 0-1.74-1.3-3.56-1.52 2.88-.9 5.24-2.76 4.5-5.5-.52-1.9-2.3-3.16-4.56-3.16Zm15.74 0c-3.74 0-6.78 3.08-6.78 6.9 0 3.82 3.04 6.92 6.78 6.92 3.76 0 6.78-3.1 6.78-6.92s-3.02-6.9-6.78-6.9Zm3.38 12.34c-1.14.7-3.6-1.14-5.46-4.14-1.86-3-2.44-6-1.3-6.72 1.16-.72 3.58 1.14 5.46 4.14 1.86 2.98 2.44 6 1.3 6.72Zm6.848-6.96c1.2 0 2.48-.26 3.66-.76V430h4.38v-13.56h-.5c-.92 3.1-4.5 4.74-7.54 4.78v.48Zm12.847 4.7c0 2.52 2.48 3.74 5.12 3.74 3.76 0 6.52-1.36 6.52-3.88 0-1.96-1.5-3.2-3.12-4.2 1.32-.58 2.1-1.52 2.1-2.68 0-1.98-1.6-3.06-4.02-3.06-3.74 0-5.64 1.22-5.64 3.74 0 1.22.48 2.16 1.2 2.94-1.44.66-2.16 1.76-2.16 3.4Zm8.08 1.26c.1.78-.22 2-2.74 2-2.18 0-4.84-.98-4.84-3.26 0-1.72.96-2.6 2-3.04 2.02 1.88 5.36 2.72 5.58 4.3Zm-3.6-8.76c-.22-1.16.28-2.14 2.22-2.14 1.84 0 3.44.88 3.44 2.62 0 1.24-1.04 1.96-2.18 2.34-1.66-.96-3.28-1.74-3.48-2.82Z" fill="#EA346C"/><path d="M98 11.5a4.5 4.5 0 1 0-9 0v378a4.5 4.5 0 0 0 9 0v-378Z" fill="#fff"/><path d="M93.5 19a9.5 9.5 0 1 0 0-19 9.5 9.5 0 0 0 0 19Z" fill="#FDFBF5"/><path d="M93.5 135.5a5 5 0 1 0 0-10 5 5 0 0 0 0 10Z" stroke="#FDFBF5" stroke-width="9"/><path d="M93.5 261a9.5 9.5 0 0 0 9.5-9.5 9.5 9.5 0 0 0-9.5-9.5 9.5 9.5 0 0 0-9.5 9.5 9.5 9.5 0 0 0 9.5 9.5ZM93.5 394a9.5 9.5 0 0 0 9.5-9.5 9.5 9.5 0 0 0-9.5-9.5 9.5 9.5 0 0 0-9.5 9.5 9.5 9.5 0 0 0 9.5 9.5Z" fill="#FDFBF5"/><path d="M.18 10.71c0-.86.125-1.62.375-2.28.26-.66.68-1.28 1.26-1.86.58-.59 1.38-1.2 2.4-1.83.3-.19.51-.35.63-.48a.703.703 0 0 0 .195-.495c0-.41-.295-.615-.885-.615-.44 0-.945.115-1.515.345-.57.23-1.085.52-1.545.87L.21 1.17C.85.85 1.585.58 2.415.36A9.341 9.341 0 0 1 4.92.015C6.3.015 7.37.32 8.13.93c.76.61 1.14 1.475 1.14 2.595 0 .6-.135 1.13-.405 1.59-.26.45-.58.83-.96 1.14-.37.31-.855.665-1.455 1.065-.67.44-1.165.82-1.485 1.14-.31.31-.465.67-.465 1.08h1.815v-.855H9.39V12H.18v-1.29Zm18.05 1.5c-1.69 0-2.994-.48-3.914-1.44-.91-.96-1.365-2.495-1.365-4.605 0-2.11.455-3.645 1.365-4.605C15.236.6 16.54.12 18.23.12s2.99.48 3.9 1.44c.92.96 1.38 2.495 1.38 4.605 0 1.95-.425 3.445-1.275 4.485-.84 1.04-2.175 1.56-4.005 1.56Zm0-2.67c.68 0 1.02-.37 1.02-1.11V3.9c0-.74-.34-1.11-1.02-1.11-.68 0-1.02.37-1.02 1.11v4.53c0 .74.34 1.11 1.02 1.11Zm13.988 2.67c-1.69 0-2.995-.48-3.915-1.44-.91-.96-1.365-2.495-1.365-4.605 0-2.11.455-3.645 1.365-4.605.92-.96 2.225-1.44 3.915-1.44s2.99.48 3.9 1.44c.92.96 1.38 2.495 1.38 4.605 0 1.95-.425 3.445-1.275 4.485-.84 1.04-2.175 1.56-4.005 1.56Zm0-2.67c.68 0 1.02-.37 1.02-1.11V3.9c0-.74-.34-1.11-1.02-1.11-.68 0-1.02.37-1.02 1.11v4.53c0 .74.34 1.11 1.02 1.11Zm13.986 2.67c-1.69 0-2.995-.48-3.915-1.44-.91-.96-1.365-2.495-1.365-4.605 0-2.11.455-3.645 1.365-4.605.92-.96 2.225-1.44 3.915-1.44s2.99.48 3.9 1.44c.92.96 1.38 2.495 1.38 4.605 0 1.95-.425 3.445-1.275 4.485-.84 1.04-2.175 1.56-4.005 1.56Zm0-2.67c.68 0 1.02-.37 1.02-1.11V3.9c0-.74-.34-1.11-1.02-1.11-.68 0-1.02.37-1.02 1.11v4.53c0 .74.34 1.11 1.02 1.11ZM.66 133v-2.46H2.1v-6.75H.21v-1.695l3.33-.765h2.52v9.21h1.26V133H.66Zm16.282-7.71c1.12 0 1.975.33 2.565.99.59.66.885 1.555.885 2.685 0 .85-.195 1.595-.585 2.235-.38.64-.95 1.135-1.71 1.485-.76.35-1.68.525-2.76.525-.73 0-1.46-.08-2.19-.24-.73-.17-1.38-.375-1.95-.615v-3.195c1.3.61 2.48.915 3.54.915.55 0 .96-.11 1.23-.33.27-.23.405-.585.405-1.065 0-.35-.08-.625-.24-.825-.16-.2-.415-.3-.765-.3-.27 0-.49.07-.66.21-.16.13-.29.32-.39.57h-3.15l.645-7.005h7.98v2.91h-4.98l-.135 1.545c.63-.33 1.385-.495 2.265-.495Zm12.155 7.92c-1.69 0-2.995-.48-3.915-1.44-.91-.96-1.365-2.495-1.365-4.605 0-2.11.455-3.645 1.365-4.605.92-.96 2.225-1.44 3.915-1.44s2.99.48 3.9 1.44c.92.96 1.38 2.495 1.38 4.605 0 1.95-.425 3.445-1.275 4.485-.84 1.04-2.175 1.56-4.005 1.56Zm0-2.67c.68 0 1.02-.37 1.02-1.11v-4.53c0-.74-.34-1.11-1.02-1.11-.68 0-1.02.37-1.02 1.11v4.53c0 .74.34 1.11 1.02 1.11Zm13.987 2.67c-1.69 0-2.995-.48-3.915-1.44-.91-.96-1.365-2.495-1.365-4.605 0-2.11.455-3.645 1.365-4.605.92-.96 2.225-1.44 3.915-1.44s2.99.48 3.9 1.44c.92.96 1.38 2.495 1.38 4.605 0 1.95-.425 3.445-1.275 4.485-.84 1.04-2.175 1.56-4.005 1.56Zm0-2.67c.68 0 1.02-.37 1.02-1.11v-4.53c0-.74-.34-1.11-1.02-1.11-.68 0-1.02.37-1.02 1.11v4.53c0 .74.34 1.11 1.02 1.11ZM.66 254v-2.46H2.1v-6.75H.21v-1.695l3.33-.765h2.52v9.21h1.26V254H.66Zm15.667.21c-1.69 0-2.995-.48-3.915-1.44-.91-.96-1.365-2.495-1.365-4.605 0-2.11.455-3.645 1.365-4.605.92-.96 2.225-1.44 3.915-1.44s2.99.48 3.9 1.44c.92.96 1.38 2.495 1.38 4.605 0 1.95-.425 3.445-1.275 4.485-.84 1.04-2.175 1.56-4.005 1.56Zm0-2.67c.68 0 1.02-.37 1.02-1.11v-4.53c0-.74-.34-1.11-1.02-1.11-.68 0-1.02.37-1.02 1.11v4.53c0 .74.34 1.11 1.02 1.11Zm13.986 2.67c-1.69 0-2.995-.48-3.915-1.44-.91-.96-1.365-2.495-1.365-4.605 0-2.11.455-3.645 1.365-4.605.92-.96 2.225-1.44 3.915-1.44s2.99.48 3.9 1.44c.92.96 1.38 2.495 1.38 4.605 0 1.95-.425 3.445-1.275 4.485-.84 1.04-2.175 1.56-4.005 1.56Zm0-2.67c.68 0 1.02-.37 1.02-1.11v-4.53c0-.74-.34-1.11-1.02-1.11-.68 0-1.02.37-1.02 1.11v4.53c0 .74.34 1.11 1.02 1.11Zm13.987 2.67c-1.69 0-2.995-.48-3.915-1.44-.91-.96-1.365-2.495-1.365-4.605 0-2.11.455-3.645 1.365-4.605.92-.96 2.225-1.44 3.915-1.44s2.99.48 3.9 1.44c.92.96 1.38 2.495 1.38 4.605 0 1.95-.425 3.445-1.275 4.485-.84 1.04-2.175 1.56-4.005 1.56Zm0-2.67c.68 0 1.02-.37 1.02-1.11v-4.53c0-.74-.34-1.11-1.02-1.11-.68 0-1.02.37-1.02 1.11v4.53c0 .74.34 1.11 1.02 1.11ZM12.856 388.224c-1.803 0-3.195-.512-4.176-1.536-.971-1.024-1.456-2.661-1.456-4.912s.485-3.888 1.456-4.912c.98-1.024 2.373-1.536 4.176-1.536s3.189.512 4.16 1.536c.98 1.024 1.472 2.661 1.472 4.912 0 2.08-.453 3.675-1.36 4.784-.896 1.109-2.32 1.664-4.272 1.664Zm0-2.848c.725 0 1.088-.395 1.088-1.184v-4.832c0-.789-.363-1.184-1.088-1.184-.725 0-1.088.395-1.088 1.184v4.832c0 .789.363 1.184 1.088 1.184Z" fill="#fff"/></svg>