<svg width="282" height="318" fill="none" xmlns="http://www.w3.org/2000/svg"><path d="M11.92 280.44h6.56v3.28h-1V296h-5.62L6 286.98v5.74h.96V296H.4v-3.28h1v-9h-1v-3.28h7.22l5.26 8.02v-4.74h-.96v-3.28ZM19.248 296v-3.28h1v-9h-1v-3.28h13.5v6.04h-4.48v-2.76h-2.42v3.16h1.76v2.28h-1.76v3.56h2.42v-3.16h4.48V296h-13.5Zm29.177-10.72h-3.44v-1.56h-1.28v9h1.4V296h-8.4v-3.28h1.4v-9h-1.28v1.56h-3.44v-4.84h15.04v4.84Zm16.686-1.56h-1v9h1V296h-7.56v-3.28h.96v-3.3h-2.8v3.3h.96V296h-7.56v-3.28h1v-9h-1v-3.28h7.56v3.28h-.96v3.04h2.8v-3.04h-.96v-3.28h7.56v3.28Zm.797 12.28v-3.28h1v-9h-1v-3.28h13.5v6.04h-4.48v-2.76h-2.42v3.16h1.76v2.28h-1.76v3.56h2.42v-3.16h4.48V296h-13.5Zm14.258-3.28h1v-9h-1v-3.28h9.18c1.72 0 3.033.353 3.94 1.06.906.707 1.36 1.853 1.36 3.44 0 .893-.18 1.667-.54 2.32-.36.653-.874 1.107-1.54 1.36l.02.2c1.28.2 1.92.987 1.92 2.36v1.54h.94V296h-6.34v-4.7c0-.52-.08-.913-.24-1.18-.147-.267-.387-.447-.72-.54-.32-.093-.78-.14-1.38-.14v3.28h1.32V296h-7.92v-3.28Zm7.68-5.72c.386 0 .673-.1.86-.3.2-.213.3-.54.3-.98V285c0-.44-.1-.76-.3-.96-.187-.213-.474-.32-.86-.32h-1.08V287h1.08Zm8.316 9v-3.28h1v-9h-1v-3.28h8.44v3.28h-1.84v9h1.8v-1.84h3.98V296h-12.38Zm27.746-3.28h.8V296h-7.84v-3.28h1.2l-.32-1.6h-2.72l-.32 1.6h1.2V296h-6.84v-3.28h.8l3.38-12.28h7.28l3.38 12.28Zm-8.44-3.72h1.84l-.82-3.98h-.2l-.82 3.98Zm21.393-8.56h6.56v3.28h-1V296h-5.62l-5.86-9.02v5.74h.96V296h-6.56v-3.28h1v-9h-1v-3.28h7.22l5.26 8.02v-4.74h-.96v-3.28Zm7.328 12.28h1v-8.98h-1v-3.3h8.12c2.227 0 3.993.613 5.3 1.84 1.32 1.213 1.98 3.193 1.98 5.94 0 2.747-.66 4.733-1.98 5.96-1.307 1.213-3.073 1.82-5.3 1.82h-8.12v-3.28Zm7.76 0c.453 0 .793-.12 1.02-.36.227-.24.34-.613.34-1.12v-6.04c0-.987-.453-1.48-1.36-1.48h-1.16v9h1.16Zm14.514 3.56c-1.28 0-2.493-.107-3.64-.32-1.133-.227-2.006-.48-2.62-.76v-3.96h4.4c0 .413.094.713.28.9.187.187.527.28 1.02.28.414 0 .707-.06.88-.18.187-.133.28-.327.28-.58a.68.68 0 0 0-.26-.54c-.173-.16-.473-.32-.9-.48l-1.72-.6c-1.48-.56-2.546-1.22-3.2-1.98-.64-.76-.96-1.787-.96-3.08 0-1.573.514-2.767 1.54-3.58 1.04-.827 2.767-1.24 5.18-1.24 1.16 0 2.247.12 3.26.36 1.027.227 1.854.533 2.48.92v3.58h-4c0-.667-.413-1-1.24-1-.4 0-.686.053-.86.16-.16.093-.24.267-.24.52a.63.63 0 0 0 .28.54c.2.133.52.273.96.42l1.74.6c1.414.48 2.44 1.107 3.08 1.88.654.76.98 1.76.98 3 0 1.693-.573 2.973-1.72 3.84-1.133.867-2.8 1.3-5 1.3Z" fill="#E55933"/><path d="M15.08 313.72h.8V317H8.04v-3.28h1.2l-.32-1.6H6.2l-.32 1.6h1.2V317H.24v-3.28h.8l3.38-12.28h7.28l3.38 12.28ZM6.64 310h1.84l-.82-3.98h-.2L6.64 310Zm31.933-5.28h-1v9h1V317h-7.56v-3.28h.96v-7l-3.4 10.28h-2.96l-3.5-10.18v6.9h.96V317h-6.56v-3.28h1v-9h-1v-3.28h9.16l2.08 6.24 2-6.24h8.82v3.28Zm6.992 12.56c-1.28 0-2.493-.107-3.64-.32-1.133-.227-2.007-.48-2.62-.76v-3.96h4.4c0 .413.093.713.28.9.187.187.526.28 1.02.28.413 0 .706-.06.88-.18.187-.133.28-.327.28-.58a.682.682 0 0 0-.26-.54c-.174-.16-.474-.32-.9-.48l-1.72-.6c-1.48-.56-2.547-1.22-3.2-1.98-.64-.76-.96-1.787-.96-3.08 0-1.573.513-2.767 1.54-3.58 1.04-.827 2.767-1.24 5.18-1.24 1.16 0 2.247.12 3.26.36 1.027.227 1.853.533 2.48.92v3.58h-4c0-.667-.413-1-1.24-1-.4 0-.687.053-.86.16-.16.093-.24.267-.24.52a.63.63 0 0 0 .28.54c.2.133.52.273.96.42l1.74.6c1.413.48 2.44 1.107 3.08 1.88.653.76.98 1.76.98 3 0 1.693-.573 2.973-1.72 3.84-1.133.867-2.8 1.3-5 1.3Zm22.196-11h-3.44v-1.56h-1.28v9h1.4V317h-8.4v-3.28h1.4v-9h-1.28v1.56h-3.44v-4.84h15.04v4.84Zm.686 10.72v-3.28h1v-9h-1v-3.28h13.5v6.04h-4.48v-2.76h-2.42v3.16h1.76v2.28h-1.76v3.56h2.42v-3.16h4.48V317h-13.5Zm14.258-3.28h1v-9h-1v-3.28h9.18c1.72 0 3.033.353 3.94 1.06.906.707 1.36 1.853 1.36 3.44 0 .893-.18 1.667-.54 2.32-.36.653-.874 1.107-1.54 1.36l.02.2c1.28.2 1.92.987 1.92 2.36v1.54h.94V317h-6.34v-4.7c0-.52-.08-.913-.24-1.18-.147-.267-.387-.447-.72-.54-.32-.093-.78-.14-1.38-.14v3.28h1.32V317h-7.92v-3.28Zm7.68-5.72c.386 0 .673-.1.86-.3.2-.213.3-.54.3-.98V306c0-.44-.1-.76-.3-.96-.187-.213-.474-.32-.86-.32h-1.08V308h1.08Zm8.316 5.72h1v-8.98h-1v-3.3h8.12c2.226 0 3.993.613 5.3 1.84 1.32 1.213 1.98 3.193 1.98 5.94 0 2.747-.66 4.733-1.98 5.96-1.307 1.213-3.074 1.82-5.3 1.82h-8.12v-3.28Zm7.76 0c.453 0 .793-.12 1.02-.36.226-.24.34-.613.34-1.12v-6.04c0-.987-.454-1.48-1.36-1.48h-1.16v9h1.16Zm22.389 0h.8V317h-7.84v-3.28h1.2l-.32-1.6h-2.72l-.32 1.6h1.2V317h-6.84v-3.28h.8l3.38-12.28h7.28l3.38 12.28Zm-8.44-3.72h1.84l-.82-3.98h-.2l-.82 3.98Zm31.933-5.28h-1v9h1V317h-7.56v-3.28h.96v-7l-3.4 10.28h-2.96l-3.5-10.18v6.9h.96V317h-6.56v-3.28h1v-9h-1v-3.28h9.16l2.08 6.24 2-6.24h8.82v3.28Z" fill="#171619"/><path d="m220.714 52.948 1.821.673.845-2.224.492-.152.156-1.416 1.017-2.7.114-.752.412-.408.45-.745.26-.088.299-.311.092-.85.114-.222.652-.278.92-.618.072-.134.471-.122.588-.564.038-.39 1.127-.22 1.123-.365.597.008.559-.143 1.804.787.467.025.445.862-.025.223.252.008.984 1.72.48 1.337.845-.366.159.025.291.496v.42l.206.808h.555l.857.753.332.441.299.114.446 1.227.294.232.151.521.286.143.017.761 2.746-1.249 1.143-.31 2.763.146.525.353.333.476 2.863 2.939 1.316 1.513 1.051.984 3.793 4.327 3.166 3.187 1.896 2.615 3.448 5.21.08-.021.563.58 1.405.374-1.888 4.588 1.581.168.206.778.248-.022.984 1.443.172.063.261.374.181.055.269-.152.075.042-.168.517-.059.627 1.337-.067-1.391 3.153.008 1.24-1.177 16.798.054.252-.925 1.094-.407-.253-.492.021-1.077-.26-.336-.232-.177-.26-.807.054-.618-.416-.517-.164-.459.484-.525-.055-.442.446-.504-.063-.618.172-.522-.227-.13-.156-.589.013-.189-.669-.719-.206-.176.03-.337-.248-1.051.109-.475-.395-.711.437-.534-.021-.223.097-.988-.37-.269.063-.685.416-1.001-.164-.21-.239-.685.075-.223-.197-.358-.021-.5.1-.378.207-.219.349-.606-.219-.365.273-.139-.197-.589.252-.904.963-.265.403-.626.307-.252.45-.766-.046.24-.677-.134-.227.428-.471-.096-.219-.139-.046.34-.774-2.27-.79-4.049-1.926-4.247.955-.546.307-1.989 1.639-.046.206.147 1.27.206.614.185 1.833-.097.19h-.156l-.033-.232-.152-.012-.113-.274-.299-.021-.18-.336h-.421l-.399-.177-.425-.021-.139.118-.504-.055-.076-.172-.277-.109.012-.274-.294-.155-.257.811-.214.227-.732.219-.391-.063-.399-.252-.223-.286.021-.425-.181-.176-.071-.249-.185.337-.4.294-.046.252-.193.156-.602-.307-.21.383-.635-.021-.164.281-.601.32-.093-.025-.058-.303h-.169l-.243-.328-.034-.353-.198-.337.063-.449-.286-.404-.109-.534-.42-.526.067-.143-.294-.218-.206.021-.135-.143-.038-.227-.605-.362-.168-.218-.518-.185-.492-.442-.021-.492.181-.219-.227-.39-.399.02-.824.391-.509.034-.24.353-.223.03-.193-.11-.408-.555-.244-.033-.294.37-.181.033-.336-.218-.227-.307-.475-.034-.392-.294-.353-.593-.365.034-.505-.253-.072-.151-.189.067-.597-.34-.071-.286-.53.197-.357.013-.358.492-.853-.1-.16-.186-.513.21-.32-.66-.218-.206-.084.055-.227-.143-.413-.547-.34-1.181-.753-1.644-1.345-3.465.302-.526.143-.1 1.531-.37 1.291-.648.08-.53 2.169-2.4-.433-.438-1.261-1.736-.475-.265-2.359-2.746-.332-.437-.147-.43-.509-.66 2.804-2.165 2.792-1.795 1.77-2.464.845-.668.307-.597.484-.307.42-.034 2.733.265 2.09 2.144 3.94-2.817 2.321-4.394-4.352-6.76.29-3.756-3.969-1.5.542-1.48ZM161.53 115.051l-.265-.097-.021-.219.134-.142.169-.875.866-2.065.517-.512 1.097-.534.139-.253-.013-.218-.765-2.359-3.691-5.946.151-.109 3.721 5.945.786 2.544-.168.534-1.253.589-.391.437-.883 2.149-.13 1.131Zm18.938-33.852.664.13.525.518.455-.185-.413-1.24 1.333.407 2.41 2.439.412 1.594.248-.143.593 1.055.899.79.013.21h1.219l.139.097.786.143.585.286 1.303.9.391.547.677.58.4.252.239.013 1.283 1.22.239.373.471 1.215.673 2.326.467.24.227.395v.382l.134-.012.219.176.286.635.013.383-.173.285-.214.034-.379.45-.618.429-.752.853.025.375.16.185.286.033.008-.151.887.349.458.034.644.218 1.059.929 1.085.295.791.786.168.273.012.164-.344.404-1.497.996-2.203.48-.101.239-1.531.862-.984.122-.332-.361-.534-.206-3.919.862-.344.143-.181.294-3.944-.013-.025 2.885 1.568-.021.614.109 2.834 3.023.206.622.525 3.003-.458 2.039-.412.601-.172 1.047-.421 1.156.009.206-.127.131-.466-.152-.185.089-.93 1.774-.021.122.379.555-.732 1.068-.139.425-1.295 1.274-.525.315-1.417 1.308-.24.067-.08.151-1.038.837-.173-.013-.252-.227-.139.034-.037.151.113.206-.341.274-.159.273-.48.349-.731.294-.559.543-.627.185-.618-.013-1.816 1.556-.32-.337-.24-.075-1.648.782-.454.37-.307-.379-.227-.033-.963.206-.168.164-.778 1.206-2.203 6.808-.446 1.215-.244.349-7.391 2.115-.984.378-1.291-1.106-3.381-3.342-1.602-1.585-1.955-1.291-4.091-1.03-4.625.79-.454-.261-.488-.609.093-.089-.114-.206.454-.412-.593-.563-.172-.013-.072.089-.054-.097.206-.227.071-.294-.113-2.107-.686-1.303.013-.644 2.275-1.37.34-.783 3.019-1.782.787-.021.306-.164.206-.143.408-.719 1.346-.829 8.594-6.054.673-.097.412-.24 2.573-2.312.126-.416-.214-.37-.038-.513-.172.096-.24-.012.059-.581.252-.067.059.164.08-.176.307-.089.311-.281.593-1.375.433-.568 2.022-.122.282-.122 2.254-2.153.071-.109-.273-.294.231-.232.24.219-.101.076.08.067 1.883-1.934 4.453-1.291.627-.559h.193l.66-.656-2.102-3.389-1.19-.875-.025-.096.244-.089-.312-.403-.42.075.114-11.23 4.444-7.232.412-.252 2.628-.328.193-.034.068-.139Z" fill="#171619" stroke="#fff" stroke-width=".5"/><path d="m170.978 81.935.042.143-.139.013-.593-.232.092-.1h.387l.211.176Zm-2.721-.492-.294-.13.071-.055.219.076v.11h.004Zm-8.09-13.047-.092-.11.067-.218.114.13-.089.198Zm-.58-4.41-.126-.366.055-.076.126.374-.055.067Zm-1.888-9.129.173.32.248.1.298-.075.353.366.148.651.433.841-1.283-.088-.138-.4-.438-.63-.147-.984.038-.088.315-.013Zm-2.337.067.088.32-.059.143-.231-.076-.274.164-.185-.055-1.724.497-5.461 4.814-.034.286-.311.252-.152-.11-.231.19.307.122.24-.19.046.056-.252.21-.412-.122-2.363 2.052-.274-.366 2.317-2.031-.038-.244.307-.164-.248.21.042.143 6.219-5.487.282-.155 1.69-.463.042-.076.214.13.253-.066.059-.101.143.117Zm-17.446-25.858 1.762.332.093.055.08.5-.307.19-.206.29-.299-.135.126.231-.277-.11-.526-.02-.992.277-.513.522-.82.567-1.106.509-2.455.866-1.19.589-.118.265.433 1.042-.126.156-.379.067-.113.143-.034.589.181.075-.126.413-1.623.664-.904.975-.408.198-.9-.076-.563.101-1.219.665-.333.02-.218-.176-.328-.622.008-.32 3.768-2.384.571-.509 1.409-1.652 1.013-.82 3.911-2.666.904-.256 1.324-.555h.5Zm4.68 1.934-.214.311-.278.046-.353.454-.151.055-.299-.143-.374.067.008-.222.24-.021.139-.169-.173-.31-.286-.09.631-.621.067-.169.614-.445.387-.5.227-.144.4-.02.197.399-.046.332-.366.723-.37.467Zm3.192-11.45-.043-.088.152-.176-.109.265Zm66.626-1.891-1.551 2.262.054 1.413.341 1 .227.358.479.399 2.195.601.286.156.248.378.185.702.295.358.466-.055.778-.546 1.106.265 1.219.534-.353 3.077.025.101.627.143.172.265-.391.454-.58.21-.206.332-.034.387-.197.232-.08.466-.101.08-.517-.155-.492.29-.118 1.278.227.656-.034.387h-.185l-.159.168-.173-.223-.126.013-.172.353-.286.256.033.312-.113.23-.404.156.194.278-.042.168-.299.244.093.311-.026.542-1.152.19.185.698.547.433.105.534.286.386-.105.497-.215.244-.1.412-.312.52-.433.354-.239.379-.4.046-.197.134-.093.589-.437.42-.105.354-.854 1.572-.185 1.165-.105 2.8 1.19 1.484.837.74 2.19.333 1.838-.076.971.521.488.475.391.619 1.597.639-.538 1.48 3.965 1.5-.286 3.755 4.352 6.762-2.321 4.393-3.94 2.818-2.089-2.145-2.733-.265-.421.034-.487.307-.307.593-.846.672-1.77 2.464-2.796 1.791-2.8 2.166-.82.694-.807.517-.358.034-.332.184-.252.265-.299.055-.866-.1-.752.306.218 1.097-.134.24-1.005.614-.564.231-.298-.605-.757.1-.551.186-.206.176-.219.013-.285-.055-.341-.307-.252-.054-.311-.846-.387-.571-.206-.846-.9.198-.294.198-.08.164.071.416-.618-.252-.319.13-.694.088-.025.232-.274.13.101.185-.08.122-.012.55-.597.396-.341.517-.58.362-.253.395-1.391.66-.32-.034-.614-.327-.311.012-.239-.143-.627.021-.357-.185-.261.24h-.16l-.147-.45-.811-.463-.101-.163-1.59 1.11-.248.142-.412-1.593-2.409-2.439-1.333-.408.412 1.24-.454.186-.526-.517-.664-.13.046-.472-.168.185h-.126l-.114-.143-.206.198-.159-.164.025-.328-.16-.13-.87-.13-.808.041.135-.382-.088-.034-.148.442-.227.042-.012.23-.215-.176-.492.055-.037-.143-.265-.21.159-.13-.033-.749-.744-.55-.433.108-1.346.925-.929-.13-1.19.273-.16.299-.139.715-.147.155-.79.463-.95.198-.328-.043-1.476-.571-2.754-1.274-1.691-.505-.437-.034-.206.101-.046.253-.639.054-.95.32-.593-.21-1.237-.715-1.017-1.098-.858-.626-.34-.395.105-.21-.047-.11-.311-.055-.458-.756.311-.274.198-.395.66-.761.946-.429.273-.273.686-.19.365-.517.068-1.122-.135-.231-.218-1.51-.366-.441.353-.307.227.067.172-.122-.033-.1-.244.02.025-.1.261-.022.101.13.092-.1-.008-.77.059-.076.134.144-.008-.123-.206-.306-.025-.274-.215.076-.105-.067.492-.122.067-.509-.357-1.333-.139-.155-.126-.476.034-.23-.135-.076-.093-.585.026-1.08-.173-.198.581-.98-.139-.218.16-.917-.169.055-.42-.22.08-.495-.185-.11.067-.121h.24l.046-.463.088.156.093-.021-.206-.606.118-1.047-.198.74-.034.862-.252.177-.172-.19-.026-.374-.252-.53-.185-.298-.467-.42-.105-.652.093-.088h.42l.08.285.265.013v-.286l.282-.02.206.331.307-.042-.311-.74-.24-.277-.194-.43-.126-.495.093-.375-.093-.441-.605-1.316-.114-.055-.248.055-1.669 1.568-.467.223-.113.21-.198-.02-.185-.619.088-.1.139.088.387-.122.261-.177 1.858-1.8.126-.176.185-.896-.138-.244.037-.134 1.077-.652.567-.74.379-1.362.185-2.48.206-.93-.021-.467-.358-.197-.088-.244.24-.244.08-.231.479-.265.08-.278-.101-.067.534-1.627.311-.576.265-.8.677-1.084.996-.887 1.312-1.484.547-.223.786-.61.799-.454.151-.19.719-.399.652-.799 1.203-1.11.403-1.13 1.85-1.868 1.876-.967.824-.176 2.502-.946.618-.122.597-.299.445-.02.719-.522 4.159-2.435 1.539-.6.626-.367.282-.054.181-.19.971-.256.765-.534 1.438-.799 1.013-.332.379-.412.71-.202.299-.19-.719-1.034.046-.1.185.256.147-.155.127.277-.093.143.378.534.539.088.412-.235.963.134 1.917-.567.79-.358.812-.109.101-.21.181.189.992-.177 1.77-.567 1.791-.143 1.724-.311 1.072.29.118-.29.135.29.281-.433.135.201.614.021 2.174.392 2.64-1.25.446-.033.525.442Zm-44.258-3.97-.773.068-.072.134.114.135 1.774-.244.265.034.151.302-.197.77-1.026.588-.311.089-.467.1-.126-.054.059-.088-.072-.055-.113.088-.152-.046-.778.601-1.164.602-.618-.089-.354-.323-.046.277.173.303-.009.366-.647-.156-.534-.391-.366-.067-.046.143.079.088.82.58 1.03.391-.126.156-.197-.143-.181.055-.147.168.126.109-.185.122-.627.143-2.749-.088-.879.054-1.039.27-.546.243-1.253 1.278-.778.522-.454.176-.332.021-.598.434-.786-.29-.16.31-.424.21h-.332l-.194.27-.059.265-.597-.068-.618-.235-.664.235-.58-.176-1.039.912-.046-.109-.265-.122-1.098.135-.277.378.034.534-.093.08.101.19-.231.033-.253-.202h-.273l-.105.168-.328.177-.378.513-.345.168-.294.366-.787-.19-1.026-.655-.092-.156-.185-.925v-.454l.374-.467 1.06-.933.66-.98.26-.656h.08l-.071.332.113-.012.072-.425.286-.332-.034-.08-.256.03.193-.135 7.081-1.325 1.278-.31.181.155.345-.047 6.475-2.106.311-.311 1.299-.366 4.02-1.615 1.312-.244.698.013.327.067.114.143-.013.244-.126.156-1.274.176Zm35.618-1.412.113.891-.168-.29-.198.256-.5.244-.214.278-.366-.177-.139-.622.387-.568.517.046.517-.121.051.063Zm-22.516-.026 3.561-.143 4.491-.513.95.169 4.726-.244 2.468.1.454.08.282.278-.135.27-.248.134-.672.143-1.564-.055-.581.088-1.408-.122-.934.434-.311.256-1.059.27-.206-.022-.551.27-1.842.399-.105.113-1.842.513-1.232-.067-.651.113-.068-.054-.037.39-.135.144-.147-.08.118-.088.021-.547-1.316-.08-1.237-.311-.672.046-.244.168-.215.513-.929.715-1.005.303-.559.303-.837.046-.012.366-.194.155-.387-.113-.962-.648-.938-.433-.492-.56-.597-.958-.021-.668.286-1.405.286-.48.319-.255.4-.143.639-.013 1.417.567 2.333.547 1.594.11Zm28.436-5.487.597.114.652.614.904.155.992.047 4.869-.669 2.708-.256 2.43-.101.122.189-.105.277-1.06.547-.63.27-.698.121-1.506.723-.811.147-.446.56-1.665.782-.437.1-1.316.034-1.531.345.341.412-.025.114-.328-.202-.147-.27h-1.779l.008.434-.138.012-.068-.424-.454.088-.126.29-.172.08.172.235-.568-.08-.18.143.18.257-.126.1-.025.19.215.303-.4.08-.597-.223-.353.034-.471.634-.219.034-.265-.114-.021-.088.169-.48.113-.924.219-.757.479-.938.597-.87 1.299-1.16.333-.135-.101-.156-2.502-.58-.492 1.249-.294.021-.139-.088.046-.404.458-1.06h.82l1.472.244ZM190.605 115.9l.904-.336 1.034.917.883 1.101.467.795.694 1.471.21.677.504-.231.261.24.845-.631.391-.097.576.829 2.897-2.998.719-.252.282-.227.185-.328.412.227.261.033 1.278 1.005.425 1.034.34.513.53.434 1.005.449.567.686.181.534.08 1.185-.067 1.026.256.337.526.391.988 1.459.378 1.089.038.403-.37 1.434-.294.589-.021 1.022-.143.302-.177.198-1.215.467-1.32.252-.265.366-.013.391.122.252.152.13.53.118.21.177.092.227-.366.303-.672.206-.168.286.088 1.097-.093 1.064-.109.769-.265.328-.008.215.66.088.227.5.038 1.182.445.143.694.008.139.252.189.606.345.488.055 1.051.634.782.19.824.37.328-.383.551v.424l.757.173.374.269.824-.076.034.219-.114.378-.466.303-.139.357.181.694.45.328.567.139.177.315-.017.345.143.13.122-.13.013-.193-.24-.282-.126-.358.26.11.051-.101-.139-.105.156-.282.302.324.063-.639.093-.379.092-.046.299.034.273-.118.433.13.732-.033.971.727 1.026.139.459.172.458-.008.181.138.878-.075.644.185.033-.316.438.152.155-.215.77-.206.054.173.202.042.046.185.206.185 1.375.012.534-.151.585-.025.038-.921.441-.29.265-.046.135-.29 1.257-.076.74-.316.378.185.858-.054 1.085.13-.021.543.466.66.274.782 1.341 1.404.547 1.106.395.151.437.021.135.131.029.597.366.824.223.29.643.315.219.215.227.075 1.27-.454 2.644.433 2.393-.487.046-.11.202.122.021.173.412.172.13.261.295.206-.215.441.046.177.56.517.559-.42.281-.097.114-.349.16-.13.353.109.324.454.328-.572.277.021 1.371.723.185.173.122.357-.013.261-.214.315.185.097-.013.593.088.302-.088.694-.706 1.135.979.455 1.451.269 1.14.529 2.997-.021-.285 2.237-.232.366-.059-.151-.168-.063-.387.365.059.282.316.303.012.303-.824 1.026-2.83.475.148.281-.038.324-.421.875-.227.096-.025.421.101.118-.009 1.261h1.817l2.586 1.24.647.572.219.446.454.181 2.262 1.854.004.399.122.139 1.203.185.214.69-.067.752.219.862-.127.467-.193.341-.883.033-.328.311-.698.248-.185 1.38.013.916-.698.711.151.172-1.055 1.291-1.22.505-.012.378-.135.139-.984.345-.319.588-.627.303-1.101-.87-.215-.236-.046-.42-.164.084-.135-.055-.235-.58-.332-.009-.32-.193-.323.097-2.649 1.257-.425.441-.236.021-.332-.117-3.077 1.03-.799.551-.492.471-.194.012-.294-.399-.505.206-.492.525-.66.429-.757.316-.626.437-.193.185-.013.311-.282.399-1.349.362-.572.336-.358-.13-.672-.904-.295-.248-.357.294-.82.408-.21-.172-.122-.601-.719-.24-.173-.257-1.097-.096-.341-.312-.147.064.055.281-.261.732.046.147 1.022.82.492.126.034.172-.509.711-.004.408.298.622-.033.076-.253-.067.219.744-.059.172-.214.072-1.119-.74-1.034-.03-.42-.193.092-.29-.252-.635-.48-.429-1.984-.261-1.228.118-.34-1.535-.173-.109.08-.32-.715-.344-.332-.042-.231-.227-.505-.076-.294.118-.29.386-.534.164-1.081-.021-.29-.096-1.219.147-.32-.076-.824-.483-.929-.955-.046-.429.508-.096-.164-.194.021-.227-1.425-1.085-.088.202-.791-.496-1.518.261-.45.344-.491-.386-.24.471-.215-.127-.134.127.029.281-.332.269 1.03.021.707.505.462.214.366 1.022.042.593 1.295 1.043-.025.643.147 1.48-1.425-.513-.997-.214-1.144.042-.857-.194-.547-.269-1.047-.933-.757-.475-.365.677-.434.185.156.353-.063.235-.791.442-.559.517-.218-.227-.787.29-.34.677-.782.395-.967.109-.623-.235-.508-.042-.551-.345-1.077 1.333.883.685-.214.278-.097-.076-.092.097-.156-.118-.08.067-.105-.096-.122.139.042.214 1.131.61.244.433.686.534.029.151-.24.151.152.16-.253.492.215.442.416-.013.303.206.197-.067.072.109-.437.442-.072.567.458.526-.033.311-2.031 1.509-.227.068-.139.18-.004.534h-.252l-.068.207-.147.075-.765.051-.273-.286-.013-.194-.282-.248-.471-.235h-.285l-.219-1.203-1.257-1.606-.421-.076-1.379.181-.025.248.362 1.321-.375.395-.996-.181-3.002.332-1.611.416-.971-.008-.458-.097-.547-.269-.391-.332-.349-.559.076-.063-.181-.311-.505-.513-.298-.173-1.278-.214-.32-.311-.475-.816-.505-.484-1.244-.214-.711-.45-.458-.677-.395-1.169-.438-.483-.34-.097-.833.021-.378-.151-1.114-.728-.845-.206-.808.164-1.177.084-.299.257-.491.815-.429.131-1.384-.345-1.021-1.017-.412-.215h-.249l-.647.278-.24.462-.096.61-.286.408-.366.26-.833.202-.433.063-.925-.084-.664-.277-.614-.871-.21-.139-.547.009-.206.172-.332.602-.786 1.009-1.157 1.963-.412 1.371-.063 1.409-.256.449-.337.244-2.102.967-1.337.921-.311.021-.891-.319-.74-.068-.471.164-.513.429-.425.139-.488-.185-.689-.618-.48-.206-.378-.042-1.564.34-1.32-.319-.862.033-2.351.598-.025-.783.769-.643.295-.437-.311-.269-.122-.278.029-.429.198-.567-.047-.311-1.517-.74-.673-.698-.332-.173-.404-.063-.387.168-.647.69-.471.063-.24-.097-.584-.643-.295-.622-.332-.227.009-.299-.156-.16-1.783-.815-.513-.45-.357-.871-.391-.281.996.021.433-2.094-1.429-.194-.4-.664.143-.593-.244-.782.173-.181.757.665 1.686-.042.643.256.219-.248.752-.299.248-.235-.458-.282-.168-.366.105-.365.547-.269.807-.009.462-.261.442-.655.071-.526.19-.151.395.122.433-.11.715.173.151-.29.122-.917.921-1.707.315.147-.042-.677.854-1.236-.055-.269.193-.042 1.922-3.663.912.593.854.185.357-.088.475-.42.585-1.131.286-.354.504-.13.526.311.778.807.74.4.845.227 1.076.139 1.03.689.568.034.812-.412.66-.85.525-.365.564-.089.967.206.635-.042 2.089-.799.875-.74.437-.239 1.817.357 1.173-.13.382.097.909.55.437.4 2.148.794.48.766.479.378.517.223 1.724.441 1.127.757.669-.593.382.215-.029-.551.395-.097.004-.643-.29-.702-.013-.29.173-.269.071-.454-.672-.795-.148-.883-.286-.446-.416-.084-.534-.496-.273-.29-.059-.69-.113-.185-.206-.227-.16.173-.652-.711.366-.008.088-1.888-1.265-.475.088-.745-.509-.218.236-.635.164-1.59-.072-.147.193-.799-.109-.845-.185-.008-.219-.261-.054-.778-.252-.172.126-.303-.114-.618-.45.067.034.206-.143.03-.172-.202-.593.151.046.278.202.067.004.152.168.138-.185.433.358.097-.034.282-.046.214-.539-.16-.214.379.442.181-.64.681-.555-.118-.588.042-.173.585-.782.008-.563.198-1.144-.681-.042-.207-.265-.063-.126-.143.719-.916.959-.606-.089-1.122.581-.564.033-.206-.466-.302 1.375.143v-.152l-.278-.151.013-.37-.324-.105-.307-.379.151.03.093-.606.727-.105.324-.626-.896-.446-.046-.16.126-.631-.685-.021-.538-.235.092-.727-.189-.064.042-.227-.433-.185-.034-.164-2.539-.344-1.06-.379.055-.391-.109-.647-.219-.219.286-.227.5.151.273-.227.173-.832-.021-.639-2.721-2.22.766-3.293.984-.378 7.391-2.115.248-.349.446-1.215 2.203-6.807.778-1.207.164-.16.967-.21.227.033.303.383.454-.37 1.648-.782.24.076.32.336 1.816-1.556.618.013.627-.185.559-.547.731-.29.48-.349.159-.273.341-.269-.113-.21.037-.152.143-.033.253.231.172.008 1.039-.836.079-.152.24-.067 1.417-1.304.526-.315 1.295-1.274.138-.425.736-1.068-.382-.555.021-.121.933-1.775.185-.088.467.155.126-.13-.008-.21.42-1.152.172-1.047.412-.601.459-2.04Z" fill="#171619" stroke="#fff" stroke-width=".5"/><path d="m252.262 12.508.273.177.311-.034.854-.79.218-.08 1.157.466.138.392-.025.31-.139.236-1.156-.235-.046.21 1.038.256-.071.303-.538-.1-.068.176.879.21.454-.055.501.135.046-.223-.538-.1-.105-.123.281-1.068 1.304.412 1.471 1.405-.033.525-.526 1.48-.071 1.56.374.378.593 1.014-.181.29.24.1.088.203-.088 1.169.378 1.135-.021.534.374 1.657.139.235h.42l1.211 1.076.282.366.332.046v.19l-.248.054-.147.534.694.223.181.257.227-.034.811.299.219.168.366-.013.353.11 1.059.512.354.08.458.42.471.278 1.089.42.87-.033.425.143.16.177 1.967-.047.278-.4.757-.142.248-.278h.181l.012.29-.181.055-.403.543-.391.298-.139.988.118.787-.534 1.475.033.42.24.123.034.31.193.224.479.231.169.198.264.033.122.232.858.033.311-.11.009.177.08.021 1.042.047.677.5.787.21.458-.176.618.466.786.143.181.156 1.203.298.105.101.126-.109-.093-.256.198-.488.227 1.564-.025.5.277.841.088 1.985-.1.332-.421.488-.105.277 1.224.896.021.256-1.039.467-.551.021-.71 1.35-.021.277-.173.345-.025 1.064-.42.773-.232.156.265 1.846 1.199.883-.139 3.679.866 7.3.34.87-.538.672-1.648 5.765-.101.651-5.104 8.464-1.106 1.417-.147.32.332 1.24-1.337.068.059-.627.168-.517-.072-.042-.273.156-.181-.055-.26-.374-.173-.068-.984-1.438-.248.021-.206-.782-1.585-.164 1.888-4.587-1.404-.374-.564-.585-.08.021-3.448-5.21-1.896-2.61-3.166-3.187-3.793-4.327-1.051-.984-1.316-1.514-2.859-2.938-.332-.476-.526-.353-2.762-.143-1.144.311-2.75 1.25-.012-.762-.286-.143-.151-.521-.295-.232-.445-1.227-.299-.11-.332-.441-.858-.753h-.551l-.206-.807v-.42l-.294-.497-.16-.02-.845.365-.479-1.341-.984-1.716-.252-.012.025-.223-.446-.866-.467-.021-1.803-.787-.56.144-.597-.013-1.122.366-1.123.223-.038.386-.584.564-.471.122-.072.134-.916.623-.652.277-.114.223-.092.853-.299.312-.26.088-.454.74-.412.408-.114.752-1.017 2.7-.152 1.417-.492.155-.845 2.22-1.825-.672-1.598-.64-.391-.618-.487-.475-.972-.521-1.837.076-2.191-.333-.836-.74-1.19-1.484.105-2.8.185-1.165.853-1.572.106-.353.437-.421.092-.589.198-.134.399-.046.24-.379.433-.353.311-.521.101-.413.215-.243.092-.5-.286-.387-.105-.535-.547-.433-.185-.698 1.153-.189.025-.542-.093-.311.299-.244.042-.168-.194-.278.404-.156.114-.23-.034-.312.286-.256.172-.354.126-.012.173.223.16-.169h.185l.033-.386-.227-.656.118-1.279.492-.29.517.156.101-.08.08-.467.197-.23.034-.388.206-.332.58-.21.391-.454-.172-.265-.627-.143-.025-.101.353-3.078-1.219-.534-1.106-.265-.778.547-.466.055-.295-.358-.185-.702-.248-.378-.286-.156-2.194-.601-.48-.4-.227-.357-.34-1-.055-1.413 1.551-2.263.24-.134.345-.034.113.11-.126.143.034.168.265.012 2.527-.744.647-.046.56.168 2.182 1.224.332.222.559.837h.101l.963-.601.757-.681 2.022-.925 1.884-.724 2.796-.466 8.27-.946 1.998-.58 1.177-.467 1.013-.56 1.876-.748 3.145-1.026 2.993-.37h.724l1.681.547.766.48Zm-25.51-7.047.311.055-.033.277-.904-.122-.711.047-.092-.177.117-.19.374-.033.938.143Zm11.878-.647h.391l.072.08-.034.121-.227.101.055.223-.072.08-.916-.336-.152-.236.059-.176.446-.055.378.198Zm1.976-1.9.034.134-.08.088-.605-.202-.332.08-.038.235.391.337-.021.244-1.363-.648-.273-.054-.803.155-.16-.21.025-.177.391-.47.425-.123 1.438.156.971.454Zm-8.19-.27.605.046.471.202 1.14.95-.013.156-.227.034-.858-.278-.265.046-.344-.424-.08.012-.139.19.126.445-.126.236-.664.012-.333-.13-.357.244.252.29-.046.244-.328.223-.584-.169-.299-.243-.147-.883-.786-.56-.274-.412-.042-.815.366-1.06.252.034.286.97 2.414.64ZM190.739 198.32l.375-.396-.362-1.32.025-.248 1.379-.181.421.076 1.257 1.606.219 1.203h.286l.471.235.281.248.013.194.273.286.765-.051.148-.076.067-.206h.252l.118.602 2.535.063.745.546 1.425.614.387.395.21.505.134.097.148-.131.319.248.034.169-.122.311-.526-.063-.151.063-.332.206-.08.307.118.71.26.307.047.332.021.375-.32.386.16.652-.046.442.159.395.53.34.913.257 1.564.622.092.194.4-.139.151.118v.18h.58l1.371.341-.013.656-.206.332-.147.072-.387 1.551-.117.021-.387 1.186-.253-.118.005.782-.185.908 1.03.728.967.832.416.799.719.791 1.081.95.412.504.63 1.577.526 1.039.673.445.752.673.951 1.665-.013 2.224.332.749.345 1.333-.311 2.258.021.412-.269.025-.08.126-.025 1.926-.501 2.926 1.321-.063-.009.189-.778 1.279.787 2.712-2.363 2.178-.026.147.19.479-1.611.349-.017.37-.365.416-.215.459-.025.487-.307.488-.034.404-.731 1.114-.925 1.177-.375.879-.046.353-2.527 2.788-.883.542.942 2.01-.084.16-.748-.042-.345.168-.021.151.189 1.153.231 2.724.593 1.152.425.139.706.029.194-.189.252-.042.437-.286.635-.668 2.847-1.375.424.244.681.613-2.737 1.27-.08.126 2.292 1.43.05.168-.815.564-.034.441-.261-.008-.181.105-.542-.055-1.081.404-.21-.105-.303.168-.193.286-.929.475-1.013.181-.257.719-.156.084.043.328-.156.029-.189-.231-.076.404-.227.092-.21.265-.765.244-.274.189-.088.538-.824.955-.77.588-.74.223-.294-.181-.101.257-.298.042-.265.399-.787.606-.399.799-.618.223.109.34-.353.559-.366.316.034.273-.156.286.093.231-.118.215.013.706-.425.273-.32.072.127.593-.253.084-.189-.189-.538-.013-.505.181-.105-.559-.647-.909-.433-1.412-.354-.413-1.48 1.371-1.757.244.118.656.794.971-.109.526-.227.021-.038.189.425 1.076.395.497.702.328-.017.622.618.273-.159.74.067.757-.685.761.311.61.479.029 1.072-.429.862-.685 1.312-.294.101.021.126.281.505.349.159.286.408-.096.152-.16.407-.156 2.885-.097.088.202-.752 1.951-.148.24-.513.412.766.475-.026.471.219 1.467 1.505.429.253.202.357-.126.29.273-.076.517.867.093.298-.21.194.021.584.189.362.399.172-.323.219-.105-.093.42-.408.273-.084.324-.273.265-.454 1.724.113.589.492.706.32.778-.173.244-.105.525-.172.084-.063.198-.286.328-.198 1.417-.315-.042-.77-.505-.134-.441-1.854.937-.446.156-.147-.029-.046 1.459.227.344.185.084-.009.202.273.631-.231.198-.122-.009.114.324-.618.601-.358.576-.155.093-.32.084-.252-.231-.45-.211-.273-.302-.269-.042-.32.243-.336.522-.055.63.854.253.517.391.273.605 1.85 1.136.013.168-.446.87-.227.189.286.681-.311-.012-.997.231-1.333-.042-.239-.092-.055-.4-.277-.315-.711-.168-1.926.618-.542.462-.496.16-.038-.421-.147-.042-.572.063-.294.358-.812-.589.008-.597-.252-.702-1.585.816-.698.723-.118-.03-.286-1.017-.878.568h-.652l-.429.227-.462.096-1.085-1.53-.488.273-.092-.034-.564-1.488-.668.114-1.359 1.564-.357.66h-.757l-.559-.387-.353.441-.74.127-.379.353-.437-.072-.227-.189-.328-.008.055-.4.845-1.156.319-.997-.029-.273-.576-1.186.013-.218.437-.622-.013-.198-.378-.597-.892-.076-.105-.42h-.378l-.168-.177-.379.042-.538-.252-.088-.139.088-.147-.055-.198-.264-.307-.16.063.126-.555-.467-.588.114-.168-.215-.105-.012-.337-.152-.218.059-.337.118-.126-.118-.378.16-.274-.067-.496.059-.113-.127-.181.48-.408-.253-.315.173-.232.328-.054 1.177-.745h.559l.24-.706.597-.538.219-.324.147-1.211.206-.307.504-.105.694.4.345-.177.206-.391v-.778l.193-.58.799-1.009.375-1.178.723-.361-.017-.442-.181-.378-.219-.202-.466-.084-.534.467-.505.126-.454-.244-.059-.538.879-1.043.231-.589.719-.403.639-1.072.391-.349.156-.286.067-.261-.063-1.013.614-1.14.042-.265-.269-.462-.858-.358-.08-.307.446-.727.446-1.076.054-1.039.101-.168h.37l.799.425.4-.084.168-.215.017-.282-.24-.908.16-.277.349-.274.046-.189-.168-.403-.425-.526-.025-.32.378-.37.518-.134.979.391.446-.391.08-.181.092-.601-.273-.404-.265-.113-.727-.013-.324-.189-.093-.412.106-.383.946-1.16.239-.118.871-.105.307-.963.651-.454-1.24-.963.088-.37-.282-.236-.037-.336-.307-.231-.24-.383-.542.509-.131.412h-.159l-.358-.349-.126-.013-.261.375-.311.176-.298.021-.568.48-.357.092-.16-.391.067-.231.198-.215v-.315l-.198-.042-.021-.244-.307.063-.071-.315.004-.181.433-.126.055-.109-.328-.072.168-.572-.618-.635-.833-.159-.58-.349-.265.21-.059.16-.248-.127-.277.169-.282-.105-.093.126-.559.012-.517.4-.526-.189-.109-.127-.252-.033-.059.126-.168-.009-.223-.231-.82.24-.105-.198-.24-.117-.525-.043-.366.093-.421-.677-.021-.177.16-.117-.151-.37-.778-.404-5.067-2.064 1.943-.593-.013.231 1.691-.849.306-1.821.101-2.598 2.96-4.214 13.514-4.217 3.906-3.347-4.032-6.874-.782-4.445-.509-1.299-.979-6.752 3.531.693 1.119.887 2.19-.227 2.044-.66 2.334-.958.811.647.824 1.026.387-.374.126-.021.194.16.193-.181.172-.021.026-.118-.307-.353-.198-.446-.008-1.795-.698-1.026-.198-.492-.093-.723.038-.997-.21-.727-1.673-1.636-1.464-.895-.193-.215-.105-.534.504-1.017.013-.492-.425-.194h-.723l-.239-.244-.03-.365.526-.812-.463-1.841-.143-1.295-.256-.236-.959-.408-1.842-.248-.399-.097-.715-.353-.462-.588-.143-1.115-.307-1.265-.85-.803Z" fill="#171619" stroke="#fff" stroke-width=".5"/><path d="m133.283 191.517.391.277.357.87.513.45 1.783.816.151.16-.008.298.332.227.294.623.585.643.24.097.47-.063.648-.686.387-.172.408.063.332.172.673.698 1.517.74.047.312-.198.567-.025.429.122.278.311.269-.294.437-.774.643.025.782 2.351-.601.866-.034 1.316.32 1.564-.345.378.042.48.202.693.622.488.181.425-.139.513-.429.471-.159.74.063.891.319.311-.021 1.337-.921 2.103-.962.332-.248.26-.45.059-1.405.412-1.37 1.157-1.964.786-1.009.332-.601.206-.173.547-.012.214.138.614.871.664.277.925.084.434-.063.832-.206.366-.256.286-.408.101-.614.239-.462.648-.278h.248l.412.214 1.026 1.022 1.383.345.425-.13.492-.816.298-.257 1.178-.084.807-.159.845.201 1.119.732.378.151.832-.021.341.097.437.484.391 1.168.459.677.71.45 1.245.215.504.483.471.816.32.311 1.278.215.299.172.504.513.181.311-.072.063.345.559.391.333.547.269.458.096.971.013 1.611-.421 3.002-.332.996.181.854.803.307 1.266.139 1.114.466.589.711.353.399.097 1.842.248.959.408.26.235.139 1.295.467 1.842-.526.811.026.366.239.244h.723l.425.193-.013.492-.504 1.018.105.534.193.214 1.464.9 1.669 1.636.214.727-.038.992.093.728.202.492.698 1.026.008 1.795.198.45.307.353-.025.118-.173.021-.193.181-.194-.16-.126.021-.387.374-.824-1.026-.811-.652-2.334.963-2.043.66-2.191.223-1.118-.887-3.532-.694.979 6.753.513 1.299.778 4.444 4.033 6.875-3.907 3.347-13.513 4.217-2.96 4.213-.101 2.599-.307 1.825-1.691.849.013-.231-1.942.592-.253-.222-.298-2.069.092-.828-.088-.404.092-.118-.033-.286.092-.277-.101-.522-.777-.55-1.165-1.262-.492-.677-.244-.614-1.703-.479-.399-.034-.034.139-.298.278-.181.542-.694.635-1.619.307-.206.626-.374.042-1.093 1.455-2.3-.551-2.456-.719-.092.085.012.306-.239.614-.341.286-1.476-.021-1.349.168-2.01-.508-1.59.542-.264-.118-.606-.584.992-3.734-.092-.265-2.603-1.686-1.736.572-.745.585-1.875-.572-.172-3.473-.488-.417-.286-.382-.218-.606-.265-.37-2.75-3.073 1.408-2.851.757-1.287-1.745-4.133-1.871-.054-.328-.085-.471-.811.034-.702-.299-.126-.193.054-.753.618-.319.585-.412.361-.24.661.172 1.223-.353.521.042.492-2.615 2.216-.412.416-1.922 2.523-.025-.361-.197.012-.047.223.173.194-.425.193-.479-.139.673-.181-.152-.193-.252.076-.08-.202-.412-.299-.101-.458-.425-.404-.134-.328-.215-.012-.18.244-.148-.286-.391-.076.08-.256-.206.054-.046.147-.58-.147-.047.147-.479.404v.257l-.067.012-.467-.16.009-.298-.4-.034-.202-.139-.34.286-.492-.222-3.141.626-.698-.299-.467-.34-.181-.458.013-.459-.118-.492.173-.328.218-.063.724-.063.172.341.341.139.676.075.799.299.358.244.471.096.513.265.008.202.538-.013-.012-.126-.198-.105.42-.361-.058-.055-.446.181-.58-.042-.055-.084-.294-1.237.033-.458-.172-.82.008-.16.295-.222.344-.522.059-.319.118.202.231.075.366-.332-.66-.5.252-.925.105-.972-.248-.138-1.076-.181-.122-.278-.072-.693-.168-.236-1.202-.492-.513.055-.387-.084-.252-.383-.551-.063-.803.181-.16.265-.366.054-.248.333.009.277-.232.458-1.072.564-.525 1.055-.366.257-.025.307-.812.193-.286.883-.399.736-.581.126-1.143.66.16 1.863-.686.223-.492-.181-.799.416-.731-.374-3.541-.66-2.653.988-.357-2.767 1.144-2.502-.707-1.034-3.326.521-.546-.084-.374.063-.665.694-1.438.257-3.658 2.022-.24.042-.306.383.357.126.593-.013.294.467-.071.479.197.181-.117.236h-.265l.147.508h-.24l-.08.244-.42.467.567 1.392 2.607 3.435-.365.437.344.723-.605-.117-1.838.925-.765.138-.374-.033-1.097-.278-1.237-.042-.365-1.766-.148-.235-3.864.117-.227-.668-.42-.055-.219-.479.135-.126-.026-.627.173-.202-.021-.555-.32-1.53.26-.521.54-.488-.329-.534-2.523-5.975-.87-1.833-.013-.82.433-1.299-.046-.105.74-1.985.08-.458-.042-.61-.071-.286-.518-.887-2.194-2.691-.265-.673-.047-.416.089-.963.48-1.038.756-.749 1.829-.803.706-1.324 1.804.214 1.598-.374.912-.408 1.312-.278 1.383-.643.585-.34.584-.61.454-.749.16-.693.833-.824.193-.429.374-.013.185-.483.438-.278.912-.858 4.995 1.67 1.463.151 4.991-1.371 1.052-.845 4.192-1.198 2.014-1.426 1.471-1.307.845-.934.299-.471.643-1.942 1.03-1.224.997-.538.925-.298.9-.055 1.698.256.732-.159.391-.16 1.03-.74 1.203-1.245 1.568-.782.744-.172h1.098l1.934.429 2.262.349Zm-4.974 39.553.008.202.332-.021-.117.084.067.117.252-.021-.277.425-.185.055.037.286-.138.063-.114-.375.088-.117-.033-.202-.215.181-.058-.118.105-.118-.047-.16-.365.223.248.299-.148.235.08.105-.046.307-.134-.021-.249.215.774.16.173.403.391-.097.172.194.231-.328v-.278l-.16.009.148-.223.122.063.147-.126-.139-.042.059-.147-.265-.055.008.139-.126.021-.054-.147-.08.075-.08-.34.408.042-.026-.286-.117-.063-.139.075.025-.193.118-.076.113.097.253-.298.147-.042.092.222.055-.147.286-.084-.038-.16.114-.096-.148-.244-.071.193-.24.118-.845.105-.399-.088Zm1.118.639.025.118.446-.055-.298-.244-.034.126-.139.055Zm-3.33 2.275.059-.085-.072-.096-.168.223.181-.042Zm-1.757 1.084.008-.126-.126.021.012.118.106-.013Zm4.637.833-.067-.543-.32.16-.353.034.248.244-.277.235.769-.13ZM140.309 135.006l-.408-.294-.055-.143.425.219.105.151-.067.067Zm-5.185-.664-.071-.055.092-.151.24.013-.261.193Zm2.628-1.577-.092-.021-.009-.13.118.013-.017.138Zm-3.658-.769-.101.021-.008-.13.181-.055-.072.164Zm3.234-28.676-.072-.021.042-.218.03.239Zm15.914-6.357 3.625 1.61 2.981 3.154-.152.109-2.947-3.12-3.461-1.51-.87.089-.298-.088.113-.152 1.009-.092Zm-39.687-30.53-.253.13-1.177-.1-.631.054-1.404.34-.711.387.009.156.332.19-.231.23-.585-.042-.298-.23-.068-.333.072-.387.307-.32.66-.365.618-.551.458-.11h.48l.937.198 1.438.517.047.236Zm23.298 3.582-.068.231-.172-.033-.66.53-.122.273-.038.77.618-.11 1.716 3.267.168.088.248.79 2.224 4.365-.639 7.686.513.034.282.492.365 1.526.984.9.227.349.652.647.492.165.744.012.593-.395.24-.21.82-1.35.866-.021 1.013.13.286.164.421.076.231.273.483.231.375.013.168-.143.151.076.799-.24.181.21-.631.143-.021.089.904-.055.446.383.332.13.261.933-.194.253.147.307-.138.294.092.647.168.11-.046.458.858.656.403.034.042.109-.079.11-.425-.152-.147.143.054.437-.34.198-.152.24-.47.02-.059.068.126.109-.341.067-.021.11.332.273-.101.164-.105-.097-.185.013-.492.429-.883.143-.121.096-.181-.067-.467.11-.168.458-.046.874-.48 1.741-.332.492-1.551.866-.425.416-.206.492-.559.013-.614.143-.48.273-.979 1.039-.98.096-1.144.274-.218-.341.126-.458-.4-.601-.904.067-.752-.677-.353-.492-.925.273-.492.505-.173-.143.089-.143-.194.122-.378-.034-.055.261.101.143-.206-.067.059-.383-.307-.37-.391.013-.488.525-.471.076-.239.231-.446.219-.185.424-.034.677.24 1.346-.055.315.126.177-.059.231.122.286-.18.425.185.534.319.534-.033.218.34.972-.105.698.803.752.072.479.731 1.312-.046.644.307.328.399.849.059.492.286.5.294.013-.071.425.454.369.278.926-.665 1.143-.206.122-.113.219-.227.067-.24-.097-.198.261-.046.601.08.547.488.568.046.163-.088.307-.686.076-.458-.13-.803.403-.294-.172.231.555.248.097-.034.143.105.075.333-.445.277-.013.172.122-.34.698-.038.664.16.438-.114.445.114.143h.403l.286.131.433-.089.774.198.585-.034.105-.143.126-1.37.147-.349.261-.282.151-.034.055-.143-.101-.567.101-.24-.614-2.334.08-.109.126.013.639 2.203.517.479.055.219.786.021.454-.088.286.054.055.131-.665.252-.344.349-.568.076-.458.479h-.492l-.198 1.35-.454.698-.105.143h-.185l-.038-.143.093-.185-.089-.055-.193.282-.294.151-.169.437-.088.631-.24.303-.138.458-.648-.13-.227.088-.151.097-.358.651-.572.227-.353.392-.513 1.433-.307.11-.172.26h-.341l-.08.11.181.281-.113.295.033.172-.185.315-.151.055-.399-.248-.215-.336-.471.088-.719.412-.584-.652-.147.034-.379-.379-.298.349.197.522.48.067.592.488-.071.109-.277.034.058.218-.218.228-.009-.375-.193-.075h-.198l-.159.302.294.295.446.13.248.357.399.11.114.315.357.227.198.349.344.336.375.152.613.042.375-.37.546-.067.471.458-.059.391-.353.185v.219l.185.185.311-.034-.122-.248.055-.042.597.227 1.005-.206.685.118.539-.391.958.143.673.424.584.522.711.109.5.248.32-.088.214.172.488.61.454.26 4.625-.79 4.091 1.03 1.956 1.291 1.602 1.585-1.989 1.421-1.943-.349-.631.576-.391-.172-1.063 2.191-1.459 1.299-.042 2.472-.169.866-.525 1.236-1.312 2.435h-1.173l-3.381-.248-.117-.475.752-.391.48-.433.353-.627-.837-1.669-.799-.446-.206.4-2.855.075-.853-.239-1.35-.661.008-.618-.273-.302 1.392-.627-.917-.9.021-.378-.26-.824-.354.315-.218-.075-.105-.228.021-.466-.232-.24-.008-.399-.307-.639h.471l.214-.295.505-.206.513-.012.071-.48.539-.281.193-.043.092.089v.239l.219.11-.088-.509-.231-.324-.24-.021-.32.227-.147-.151-.517.618-.631-.53-.298.088-.185.501-.215-.185-.168.467-.248.063-.088.281h-.295l-.571-1.345-.412-.173-.694-.021-.341.097-.534.379-.374.618-.198.109-1.084-.172-.253.075-.534-.294-.504.219.088.941-.332.118-.219.194-.08.315-.344.088-.215.391.009.316-.286.239-1.779-.088-.227.097-.845.042-.273.109-.513.425-.169.164-.319.672-1.06.846-1.253.576-.332-.063-.706.063-.694-.152-.652.282-.387.563-.58.454-.614.139-.811.522-.517.651-.387-.294.08-.193-.034-.391-.24-.53.093-1.236-1.299-.206-.631.26-.488.509-.088-.063-.168.109-1.266.076-2.157 1.257-1.362.097-.946-.118-.992-.391-.707.24-.979-.227-.455-.37-.067-.551.038-.206.547-.681.525-2.754-.122-.858 1.316-1.333.618-1.345.009-.274.437-1.152.538-.782-1.631-.694-.181.013-.9.248-.42.782-4.516-2.039 3.692-9.36.752-2.186.265-1.144.093-1.396.34-.466-.252-.719.526-1.131.765-2.136.811-3.97.892-5.525.42-4.183.517-3.414.026-.787.365-2.472.627-5.575.597-2.817.387-1.01.572-1.11 1.122-3.809 1.543-6.164.345-1.593.294-5.946.227-.959.48-.925.366-.45.231-.1.963-.177.374.11.517-.253 1.077.055-.055.244.24-.13.18.109-.046.121-.151-.088-.135.244.072.307.168.19.139.012.046.265h.071l.488-.13-.055-.32.286-.219-.088-.189-.202.143-.118-.32.648-.13.193.442-.025.42-.647 1.388-.185.912.105.1.025.253h.172l.047.32.74 1.66.185.253 4.351 2.497 2.162-.572.752-.496 1.337-.559-.067-.197.24-.022.845-1.068.181-.395.105-.584.63-.564.854-.21.437.013.993-.463.773.219.559-.11.48-.23.172.163.118-.042.265.274.752-.564-.088-.13.101-.13 7.606-6.59.274.367-7.438 6.504ZM125.244 45.97l.306-.101.232.21.513.707.765 1.484-.059.387-.185.02-.092.3-.135-.367-.172 3.452.134 1.018-.012.774-.261.794-.294.11-.799.672-.089.374-.437.265-.059 1.14-.525.719-.185.563-.232.219-.101-.164-.374.307.042.198-.294.428-.286.164-.517.21-.938.043-.172.143-1.791 2.329.008.198.294.176-.193.278h-.534l-.219-.253-.18.13-.446-.277h-.353l-.984-.462-.173.143.181.088.072.332.773.307.101.231.438.278.067.143-.194.012-.445-.21.059.088-.778.333.008.122.194.033-.021.088-.665.22-.551-.09-.407.232.159.055-.185.21-.248-.034-.546-.508-.585-1.182-.231-1.202.105-2.052.425-2.174.34-1.148.631-1.547 1.27-2.389 1.968-3.149.71-.95 2.161-3.532.904-1.106.803-.71.614-.232h.168l.253.177.42.719.286.19.341.74-.034.617.072.4.164.269ZM207.697 79.278l.509.66.147.429.332.437 2.359 2.746.475.265 1.261 1.736.433.437-2.169 2.401-.08.53-1.291.648-1.531.37-.142.1-.303.526 1.345 3.465.753 1.644.34 1.181.413.547.227.143.084-.055.218.206.32.66.513-.21.16.185.853.101.358-.492.357-.013.53-.197.071.286.597.34.189-.067.072.151.505.253.365-.034.354.593.391.294.475.034.227.307.336.218.181-.033.294-.37.244.033.408.555.193.11.223-.03.24-.353.509-.034.824-.39.399-.022.227.391-.181.219.021.492.492.442.518.185.168.218.605.362.038.227.135.143.206-.021.294.218-.067.143.42.526.109.534.286.404-.063.449.198.337.034.353.243.328h.169l.059.303.092.025.601-.32.164-.281.635.021.21-.383.602.307.193-.156.046-.252.4-.294.185-.336.071.248.181.176-.021.425.223.286.399.252.391.063.732-.219.214-.227.257-.811.294.155-.012.274.277.109.076.173.504.054.139-.118.425.021.399.177h.421l.18.336.299.021.114.274.151.012.034.232h.155l.097-.19-.185-1.833-.206-.614-.147-1.269.046-.207 1.989-1.639.546-.307 4.247-.955 4.049 1.926 2.271.79-.341.774.139.046.096.219-.428.471.134.227-.24.677.766.046.122.021.277.45.181.097.345.668-.181 1.279-.231.786-.042.862 3.153 2.783-.908.341-.383.021-.45-.185-.365.021-.648-.164-.336 1.127-.341.273-.025.164-2.317-.471 1.657 3.461-.471 3.758 1.068.82.408.24.399.076 1.758 1.349.55.227 1.098.328 3.927-.143.757.177.403-.042-.004 1.022.686-.143 2.939.849 2.258.841.449-.164.938-.917.248-.378.732-1.69.74-.522.332.425.038.282.546 1.307.547 2.275.744.677.959 2.174-.021.198.378-.022.681.27.274-.16.193.084.004.336.341.526.652 1.976-.047 2.317-1.118 1.564-.118.74-.475.702.046.534-.159.53-.484.967-.214.198-.534 1.194-.047.323.021.488.148.467-.013.273-.088.063.033.488.379.404.685 1.568 1.333 1.488-.294.682-1.443.933-1.11.076-.201.159-.173-.172-.832-.227-.585.13-.168-.067-.458.231-.051.236-.319.273.046.702-.307.803-.362.476-.588 1.265-.681 1.043-.131.097-1.148.227-1.61.235-.13.206-.059.509-1.493 1.387-.631 2.822-1.118 1.08-2.388.248h-3.927l-2.998.021-1.14-.529-1.45-.269-.98-.455.706-1.135.089-.694-.089-.302.013-.593-.185-.097.214-.315.013-.261-.122-.357-.185-.173-1.371-.723-.277-.021-.328.572-.324-.454-.353-.11-.16.131-.113.349-.282.097-.559.42-.56-.517-.046-.177.215-.441-.295-.206-.13-.261-.412-.172-.021-.173-.202-.122-.046.11-2.393.487-2.644-.433-1.27.454-.227-.075-.219-.215-.643-.315-.223-.29-.366-.824-.029-.597-.135-.131-.437-.021-.395-.151-.547-1.106-1.341-1.404-.273-.782-.467-.66.021-.543-1.085-.13-.858.054-.378-.185-.74.316-1.257.075-.135.291-.265.046-.441.29-.038.921-.585.025-.533.151-1.375-.012-.206-.185-.047-.185-.202-.042-.054-.173-.77.206-.155.215-.437-.152-.034.316-.643-.185-.879.075-.181-.138-.458.008-.459-.172-1.026-.139-.971-.727-.731.033-.434-.13-.273.118-.298-.034-.093.046-.092.379-.063.639-.303-.324-.156.282.139.105-.05.101-.261-.11.126.358.24.281-.013.194-.122.13-.143-.13.017-.345-.177-.315-.567-.139-.45-.328-.181-.694.139-.357.467-.303.113-.378-.034-.219-.824.076-.374-.269-.757-.173v-.424l.383-.551-.37-.328-.189-.824-.635-.782-.055-1.051-.345-.488-.189-.606-.139-.252-.693-.008-.446-.143-.038-1.182-.227-.5-.66-.089.008-.214.265-.328.11-.769.092-1.064-.088-1.098.168-.285.673-.206.365-.303-.092-.227-.21-.177-.53-.118-.151-.13-.122-.252.012-.391.265-.366 1.32-.252 1.216-.467.176-.198.143-.302.021-1.022.294-.589.37-1.434-.037-.403-.379-1.089-.988-1.459-.525-.391-.257-.337.067-1.026-.08-1.185-.18-.534-.568-.686-1.005-.45-.53-.433-.34-.513-.425-1.034-1.278-1.005-.261-.033-.412-.227-.185.327-.282.228-.719.252-2.897 2.998-.576-.829-.391.097-.845.631-.26-.24-.505.231-.21-.677-.694-1.471-.467-.795-.883-1.101-1.034-.917-.904.336-.526-2.998-.206-.622-2.834-3.027-.609-.11-1.573.026.025-2.885 3.949.009.18-.295.345-.143 3.919-.862.53.206.336.362.984-.122 1.53-.862.097-.239 2.203-.484 1.497-.992.349-.404-.017-.168-.164-.273-.794-.787-1.081-.294-1.059-.929-.648-.219-.458-.034-.883-.349-.009.152-.286-.034-.159-.185-.026-.374.753-.854.618-.424.379-.45.214-.034.172-.286-.012-.382-.286-.635-.223-.173-.13.009v-.383l-.227-.395-.467-.24-.673-2.325-.471-1.215-.239-.374-1.283-1.215-.24-.013-.399-.252-.681-.58-.391-.551-1.304-.9-.584-.282-.786-.143-.139-.1h-1.219l-.013-.207-.9-.79-.593-1.056 1.594-1.11.097.169.811.458.147.45h.16l.261-.24.357.185.627-.02.239.142.311-.013.614.333.32.03 1.392-.657.252-.395.576-.362.34-.517.602-.395.012-.55.08-.123-.101-.185.274-.13.025-.232.694-.088.319-.13.618.252-.075-.42.084-.164.29-.198.9-.198.206.846.386.572.312.845.252.054.34.311.286.055.219-.013.206-.176.551-.185.761-.101.298.605.564-.23 1.005-.615.134-.244-.218-1.097.752-.307.862.097.303-.055.252-.26.332-.19.358-.033.807-.513.816-.694Z" fill="#171619" stroke="#fff" stroke-width=".5"/><path d="m119.53 147.288.706-.067.332.067 1.249-.576 1.06-.845.319-.673.164-.164.513-.42.273-.11.845-.042.228-.096 1.774.084.286-.24-.004-.311.21-.391.349-.088.08-.316.218-.193.332-.118-.088-.946.509-.214.53.29.252-.076 1.085.173.202-.106.37-.618.534-.382.34-.097.69.021.412.177.572 1.341h.294l.088-.282.244-.063.168-.467.211.185.189-.5.298-.084.631.53.521-.618.143.151.32-.227.24.021.235.324.084.513-.219-.11v-.239l-.092-.089-.193.047-.539.281-.075.476-.509.012-.509.206-.21.294h-.475l.307.64.008.399.231.24-.021.466.11.227.218.076.354-.315.256.824-.017.378.917.9-1.392.631.273.303-.004.618 1.35.66.849.239 2.855-.075.206-.404.799.446.841 1.669-.353.627-.48.433-.752.391.118.475 3.38.248h1.173l1.312-2.435.526-1.236.164-.866.042-2.472 1.454-1.3 1.064-2.19.395.172.631-.572 1.943.345 1.989-1.421 3.38 3.343 1.291 1.106-.765 3.292 2.72 2.22.021.639-.172.832-.274.227-.5-.151-.286.227.219.219.109.647-.055.391 1.06.379 2.54.345.033.164.433.185-.042.227.189.063-.092.727.538.236.685.021-.126.63.047.16.895.446-.324.626-.727.105-.092.606-.152-.03.307.379.324.105-.013.37.278.151v.152l-1.375-.143.467.302-.034.206-.58.564.088 1.123-.959.605-.719.917.126.143.265.063.042.206 1.144.681.563-.198.783-.008.172-.585.589-.042.555.118.639-.681-.442-.181.215-.378.538.159.046-.214.034-.282-.358-.096.185-.434-.168-.138-.004-.152-.202-.067-.046-.277.593-.152.172.202.143-.029-.034-.206.45-.068.114.618-.126.303.252.173.055.777.218.261.185.008.11.846-.194.798.072.148-.164 1.589-.236.635.509.219-.088.744 1.265.475-.088 1.888-.366.008.652.711.16-.173.206.227.113.185.059.69.273.29.534.496.417.084.286.446.147.883.673.795-.072.454-.172.269.012.29.29.702-.004.644-.395.096.029.551-.382-.214-.669.592-1.127-.756-1.724-.442-.517-.223-.479-.378-.479-.765-2.149-.795-.437-.4-.908-.55-.383-.097-1.173.13-1.817-.357-.437.24-.874.74-2.09.798-.635.043-.967-.206-.563.088-.526.366-.66.849-.812.412-.567-.034-1.03-.689-1.077-.139-.845-.227-.74-.399-.778-.808-.525-.311-.505.13-.286.354-.584 1.131-.475.42-.358.088-.853-.185-.913-.592-.429-.282-1.185-.202-.48-.282-.332-.698-.147-1.11-.172-.323-.867-.509-.664-.248-.505-.16-.761-.042-.702.202-1.274.626-.231.345-1.177.925-.433.475-.173.517-.345.475-.672.076-1.026-.807-.505-.097-.265.051-.605.357-.866 1.228-.379.26-.508-.033-1.005-.4h-.37l-.455.476-.445 1.063-.505.635-1.299.337-.618.054-.69.236-.542-2.124-.463-.374-.168-.584-.5-.311-.782-.896-.694-.98.261-.117-.425-.581-.509-.172-.588-.786 2.665-.661.059-.138-.542-1.047-.429.227-1.102-.042-.407.29-.745.076-.185-.606v-.387l.585-.42-.114-.812.48-.353.857-1.337 1.098-.832 1.391-.509.337-.69-2.069.021-.656.164.025-.576-.374-.45-.117-.529-.114-1.644.038-.98-2.275-1.636.109-.441.816-.366.135-.866.378-.551.534-.227.622-.122.387-.202.156.635.37.294 1.299.173.479-.076.034-.118.299-.143-.249-1.698 1.367-.53.017-.151-2.229-1.548-1.005-.357-1.9-2.098-.135-.337-.45.021-.109-.571.013-1.064-.471-.778-.025-.715ZM75.658 240.45l.181.013.013-.16.067.042.307.66-.118.084-.652.063-.82-.361-.206-.236.5-.328.598.084.13.139Zm-39.195-4.188 1.236.396-.089.256.08.055.169-.076.067.084.387.013.66.778.4.138.693.021.378.105.105.202.4.105.088.202 1.657.48 3.015.479.327.382.047.194.151.063.046.193 1.073.703.513.723.639.063.517-.168 1.631.328.068.21-.265.214-.038.391.698.37.252.013.025-.118-.126-1.148.055-.147 1.282.034.24.298.488.265.639.097-.194.21-.012.194.487.946.14-.076-.186-.606.227-.096-.16-.522.198.021-.059.148.114.349.197-.106.148-.391.147.013-.101.147.126.147.513.076.513.32 1.698-.042.446-.564.147-.404.993-.298.286-.37 1.19-.82.718-.307 1.094-.235.038-.097.5-.16.218.034.14-.126.327.256.089-.437-.072-.168.227-.446.046-.648.366-.395-.155-.361-.068-.938.694-.98 1.085.097.16.223 1.656.256-.134.223.16.16.172-.076.26.438.232.084.273.979-.113.076.08.265h.273l.504 1.085.391.479 1.888.118.87.147 1.556 1.358 1.165 1.383.685.391-.731-.954-.353-.774.719-.277.42-.021.206.147.206.425H77l.294.21.357.509-.033.201.126.021.172-.264-.294-.257-.139-.32 1.043.055-.16-.168-.917-.168-.16-.16 1.506-.076.513.118-.278-.277-1.282-.009-.58-.181-.551-.946.034-.487.437-.139.273.096.412-.348.248-.055.181 1.295.959.563.47.084-.756-.395-.408-.361-.126-.299.012-.542.127-.118.18.139.072.445.071-.912.265-.299h.56l.454.194.193-.013.47.362.274.904.408.681.71.786-.95 1.447-3.401 4.393-4.516 3.415-1.224.794-.264.265-.858.446-.227.404-1.224.285-.185-.084-.214-.361-.273.223-.5.201-.24-.403-.438.012-.837.467-.31.349-.32.126-.328.307-.126-.16-.593.984-.95.169-.026.306-.273.509-.727.055-.333.105-.008.139-.446.138-.197-.466-.32-.362-.202.341-.387.021-.206.349.089.466-.198.034-.248.341-.723.328-.374-.139-.135.168-.353.181-.135-.328-.386-.446.773-.593.194-.382-.391-.656-.58.298-1.35.963-.467-.286-.168.126-.147-.063-.312.169-.386-.16-.467.361-.454.105-.854-.382-.34-.055-.072.084.093.349-.06.055-.331-.278-.135-.285-.378-.097-.101-.202-.072-1.198.068-1.791.407-1.123-.092-.147-.5-.126-.614-.551-.299-.126-.113.243-.286.148-.332-.223-.366-.711-.26-.16-.262.139-1.648-.391-.425.168-1.471-.424-.16-.097-.231-.454-.706-.013-.173-.286-1.232-.723h-.845l-.307.21-.95-.563-.307.034-.194-.328-1.841-.976-.66.786.32.572-.253.181.113.286-.117.202-.206-.202-.219.055-.298-.257-.021-.147-.572-.286-.219.084-.088.278-.206.147-.753-.097-.34.723-.366.055-.5-.5-.652.126.807 4.36-3.019.362-1.997.138-.4-.042-.95-.361-.265.021-.185-.984-.113-.147-.48-.454-.479.306-.273-.563-.707-.446-.387-.765-.584-.147-.24-.299.4-.328-.013-.605-.117-.189-.585-.404-.26-.66.597-.32-1.123-1.328-.017-.189 1.678-1.901-.122-.954-.572-.745-.055-.328.093-.786-.551-1.064.332-.479.572-.404.008.169.118-.013.038-.214 1.202-.438 1.544-.778.55-.084.08.328.299.097.059-.214.824-.257.32-.256.979-.139.971-.32.387-.18.055-.181.366-.021.664-.585.744-.075.299.126 1.11.105.42.147.05.294Zm10.549-11.941.072.084-.249-.063-.126-.151h.194l.109.13Zm-.782-1.043-.126-.042.147-.042-.021.084Zm-.143-.458-.055.063-.054-.105.071-.202.038.244Zm1.846-.013-.034.097-.071-.042-.055-.16.214-.403-.054.508Zm.265-.479v.151l-.093-.332.152-.172.067.118-.126.235Zm-2.149-.286h-.092l.172-.105.147-.319.06.277-.287.147Zm4.777-1.089.32.034.117-.084.328.223-.513.117-1.072-.021.008-.265.105-.138.231-.021.476.155Zm7.496-.256-.15-.013v-.076l.205-.214.105.151-.16.152Zm-6.513.008-.424-.235.034-.055.18-.042.307.126-.096.206Zm-.575-.298.071.353-.727-.076-.181-.181.605-.181h.173l.059.085Zm-5.622-.097.286.126.26.256.135.299.025.404-.185-.055-.172.534-.126-.097-.122-.597-.278-.618.013-.319.164.067Zm-.64-.32-.054.063-.16-.382.232.033-.017.286Zm-.34-.723.135.021.042.202-.173-.105-.248.033.026-.126.218-.025Zm33.04-4.873-.231-.063.147-.055.084.118Zm-21.897-16.129.55.538 1.905.601.677-.13 1.35-1.715 1.026-.61 1.278-.332 1.232.172.946.858 2.54.567.184.278.265 1.148 1.098 1.556.1 2.077.215.845.584 1.026.48.193 2.926.236 1.257.449 1.253-.033.98.105 3.049 2.313 2.17 1.496 1.244.408-.707 1.325-1.829.803-.757.748-.479 1.039-.088.963.046.416.265.673 2.195 2.691.517.887.071.286.043.609-.08.459-.74 1.984.046.105-.433 1.3.012.82.87 1.833 2.523 5.975.329.534-.539.487-.26.522.32 1.53.02.555-.172.202.025.626-.135.127.22.479.42.055.227.668-2.397.105.134-.235.034-.576-.82-1.363-1.21-.555-.438.085-.147-.417-.286-.265-.597.063-.538.349-.374.139h-.308l-1.025.627h-.438l-.757-.147-.538-.32-1.602-.286-1.597-.597-.169-.042-.088.076-.4-.459-.727-.214-.694-.702.013-.16-.34-.479.23-.362-1.071-.332-.068-.458-.105-.043-.122.19-.98-.467-.327-.362-.366-.012-.114-.202-.24-.118-.1-.235-.698-.48-.379-.639-.378-.235-.866.605-.774.063-1.093.757-.526-.256-.092.054.071.543-.298.063.277.66.013.374-.379.702-.16.703-.16.185-.024.307-.173.172-.757 2.127-.466.223-1.484-.445-.568.298-.332.349-.5-.034-.32.278-.538.076-.328.172-1.131.076-.055.126-.286-.097-.706-.862-.66-.458-.08-.168-.963-.627.113-.458-.82-.055-.719-.466-.626.349h-.643l-.198-.097-.387-.32-.353-1.236-.332.034-.307-.66-.698-.694-1.018-.82-.47-.257-2.044-.084-.374.354-.034.319-.4.236-.18.075-.425-.063-.307.118-.34-.084-.505.126-.492-.395-.034-.82-.23.033-.043.883-.332-.096v-.349l-.139.286-.08-.034.038-.307-.1-.034-.089.265-.021.084.706.341v.084l-.584-.139-.391.084-.021.181-.147-.096-.32.172-.345-.172-.168-.396-.584-.563-.391.034-.114-.194-.95-.66-.618-.584-.311-.404-.95-1.812-.64-.917-.677-.652-.412-.105-1.79-1.312-.699-.937-.328-.181-.117-.341-.261-.151.092-.862.299-.82 1.43-.832 1.429-1.144 1.064-.685 1.644-.984.534-.181.879-.673 1.808-.929.618-.118.786.181.593-.042.723.151.757.513.286-.012 2.047-.778.904-.202.312-.193.252-1.304.038-.803.113-.063-.067-.244-.16-.034-.134-.159.479-.084.252-.396 1.337-1.379-.1-.202.327-.084.404-.887-.215-.269.068-.084.26-.013.013-1.211-.984-.311-.765-.63-.719-1.115-.214-.651-.101-.652.025-.727.513-1.199.55-.984.38-.416.39-.172 1.329-.438.719-.042 2.09-.857 1.715-.013 1.758.353.285-1.329.286-.407.518-.282Zm-2.326 6.879.227.054v.105l-.34-.096-.072-.32-.307.055-.298.214-.24.555.101.181-1.968 1.337-.39.236-1.922.672-.021 1.186.332.042-.126.45-.366.013-.55 1.337.134.033.218-.256.026.151-.606.665.614.319-.093.063-.571-.256-.215.193.105.458-.151.278-.059-.105.072-.215-.387-.319-.614.534-.013.084.114.055-.152.084-.046.311-.105.055.013.151-.14.223-.18 1.581.139-.042-.042.244.353-.257.013.214.66-.138.752.513h.198l.16.29.773.012.614-.382.48.075.294-.256.79-.021.181-.223.8.173.424-.404 1.244-.118.265-.244.526-.012.706.244.774-.257h.311l.26.332 1.283.236.71.756 1.098 1.914.219-.194.038.202-.248.097.046.151h.126l.092.383.274.5.151.042-.08.332-.437.278-1.14.319-.744 1.005-.534.173-.248-.105-.488-.513-.1-.299-.627-.425-1.156.265-.787.639-1.097-.256-.059.063-.891-.521-.677-.085-.105.106-.093-.076-1.778 1.034-.408.492-.971.66-.455.778-.206.126-.332-.748.185-.639.194.096.227.703.067-.021-.046-.265-.16-.223-.013-.244-.193-.139-.24-.82-.639-.895.8-1.047-.068-.042-.16.193-.513.749-.273.063-.48-.299-.445-.513-.652-.319-.093-.215-.227.097-.294-.181-.525-1.333-.047-.311.114-.055.054-.193-.513.126-.765.404.118.992.135.244.58.555-.034.214.379.375.046.193.568.244.765.618.24.063.592 1.236.4 1.186.891 1.312.26.223v.244l.106-.194.227.416-.147-.382.214.126-.046-.118.9-.181-.194-.084-.593.063-.193-.256.618-.265.366-.383.517-.105.034-.075-.215-.16-.046-.202.425-.791.08-.491.744-.48.32.021-.181.429.206-.013.08-.298 1.597-.034 1.358.181.539-.181.15-.256.173-.076.627-.097.105-.138.799-.034.353.063.488.278.139.214-.021.16.23.202.791.159.206-.096-.059-.299.248-.151.127.012.121.341 1.052-.29.593.202.15-.152.186.126.105-.256.366-.013.332-.214.408.181.538-.021.193.265.072.534.147.311.584.841 1.03-.45.774.139 1.485.534.66.332.134-.042-.042.479.105.383h.206l-.071-.854.48.299.344.042.278.563.218.034.046.126.812.563.366.383.492-.151.227.353-.135.445.151.492.14.084.159.32v.172l-.198.341.06.063-.114.139.147.147.139.446.172.084.467.672.1-.033.08.126-.08.055.547.853.345.013.597 1.299.63.147 1.565.988.034-.075.138.033.248.383.379.055 1.017-.173.34-.319 1.077-.564.32-.021.147-.193 1.282.223.198.105.126.201.328.097.732-.054-.202-2.057.151-.512-.386-2.91-2.86-1.291-.24-.404-.025-.256.375-.77-.513-.424-.126-.311-.766-.055-.24-.118-.184.236-.307.075-.105-.012-.413-.459-.559.215-1.61-.063-.072-.097-.584.034-.055-.194-1.143-.084-.194-.223.118-.18-.185-.055.046-.084-.1-.105-.253.021-.34-.908.1-.173-.42-.374-.16.063-.113-.126-.038-.5-1.11-.202-.438-.244.181-.5-.424-.631-.707-.299-.265-.34-.412-.236-.912-.138-.366-.492.025-.555.425-.652.803-.084-.008-.084.445-.173.215.097.424-.278.278.106 1.038-.77.518-.034.479-.512.366-.097.168.063.067-.151.866-.27.526.173.353-.055.824.173.206.222.206.568.173-.084.134.063.42.429-.088-.299.72.013 1.156-.236.227.181.55-.042.08.076.114-.311.774-.118.033-.235h-.307l-.008-.085.437-.243-.025-.387-.311-.021-.311.202-.206-.118-.34.223-1.969-.055-.643-1.295-.56-.45-.23-.012-.253-.202-.054-1.11.092-.16.294.118v-.341l.997-.879.677.021 1.21.353.472.236.34.298.93.408 1.139.694-.046-.555-.286-.504-.71-.417-.055.131-.198.054-1.064-.664-.092-.139.197-.374-.038-.076-.147-.012-.307.429-.891-.312.059-.13-.135-.105.025-.076.181.118 1.203-.084.025-.215-.227-.033.013-.105-.14-.084-.71.075-.345.202-.041-.063.306-.181.652-.063.08-.172h.088l.013.13.197.021.047-.172.151-.097-.298-.79-.198-.152-.139-.269-.408.257-2.333.353-.913.63.08.215.64.652-.114.319h-.311l-.152.332.181.084-.008.127-.105.13-.14-.013-.024.311-.913.568-.139.353-.647.686-.79.386-.627-.277-.673.353-.117.202-.9.332-.963.526-1.093.021-.374.319-1.119.072-.492-.269-.837-.875h-.185l-.412-.845-.16-.151-.105.012-.34.534-.408.131.008-.131-.353-.033-.24.096-1.278-.395-.08-.151 1.51-1.337.492-.194-.55.139-1.498 1.345-.34.106.033-1.018-.328-.597.072-.151-.173-.665-.252-.16-.332-.555.034-.47-1.165-1.102-.18-.084-.54.172-1.643-.845.088-.29-.038-.353-.344-.513-.299-.16-.42-.063-.425.055.03.248Z" fill="#171619" stroke="#fff" stroke-width=".5"/><path d="m89.508 202.104.446.387.126-.063.194.054.071.202.467.248.02.16-1.218.055-.455-.118-.458-.505.644-.407.163-.013Zm-4.978-3.343.534.013 1.699.42 2.207.997 1.06.345.366.193.033.345-1.539.601-1.093-.042-.811-.202-1.043-.61-2.094-1.438-.147-.18.059-.311.273-.16.496.029Zm14.94-62.115 4.515 2.039.42-.782.9-.248.181-.013 1.631.694-.538.782-.437 1.152-.008.274-.618 1.345-1.317 1.333.122.858-.525 2.754-.547.681-.038.206.068.551.454.37.979.227.707-.24.992.391.946.118 1.362-.097 2.157-1.257 1.266-.076.168-.109.089.063.487-.509.631-.26 1.299.206-.092 1.236.239.53.034.391-.08.193.387.294.517-.651.812-.522.613-.138.581-.454.387-.564.651-.282.694.152.025.715.471.777-.012 1.06.105.576.454-.021.134.336 1.905 2.098 1.005.358 2.228 1.547-.021.152-1.362.529.248 1.699-.298.139-.034.117-.479.076-1.3-.172-.374-.29-.151-.639-.387.206-.626.117-.534.227-.379.551-.134.866-.82.366-.105.442 2.274 1.631-.038.984.114 1.64.118.53.374.454-.025.571.66-.159 2.068-.021-.34.689-1.392.509-1.097.832-.858 1.338-.479.357.113.807-.584.421v.387l.185.605.744-.076.408-.29 1.106.042.424-.227.547 1.047-.059.139-2.67.656.593.786.505.172.424.581-.261.117.694.98.787.896.5.311.168.58.467.379.538 2.119.694-.236.618-.054 1.299-.333.505-.635.445-1.067.454-.476h.375l1.005.4.504.033.379-.26.866-1.228.605-.357.265-.055.505.097 1.026.807.672-.076.345-.475.172-.517.434-.475 1.177-.925.231-.345 1.27-.626.706-.206.757.042.505.159.664.248.866.505.173.324.147 1.11.332.702.479.282 1.186.206.433.281-1.922 3.663-.193.042.055.269-.854 1.236.042.677-.311-.151-.925 1.711-.118.912-.151.29-.711-.172-.433.109-.399-.117-.185.151-.072.525-.437.656-.467.257-.803.013-.546.269-.105.365.168.366.458.282-.248.235-.753.303-.218.248-.644-.256-1.681.042-.757-.665-.173.181.248.786-.147.593.4.665 1.429.193-.433 2.094-.996-.021-2.25-.332-1.934-.429h-1.097l-.745.172-1.568.782-1.202 1.245-1.031.74-.391.16-.731.16-1.699-.257-.9.055-.925.298-.996.538-1.03 1.224-.644 1.943-.298.47-.845.934-1.472 1.308-2.014 1.425-4.192 1.198-1.051.845-4.991 1.371-1.463-.151-4.995-1.67-.913.858-.437.278-.185.483-.374.013-.194.429-.832.824-.16.694-.454.748-.585.61-.584.34-1.383.644-1.312.277-.913.408-1.597.374-1.804-.214-1.245-.408-2.17-1.497-3.048-2.313-.98-.105-1.252.034-1.258-.45-2.926-.235-.48-.194-.584-1.026-.214-.845-.101-2.077-1.098-1.556-.264-1.148-.185-.277-2.54-.568-.946-.857-1.232-.173-1.278.332-1.026.61-1.35 1.716-.677.13-1.904-.601-.551-.539.87-.449.345-.333.605-1.576.181-.526-.046-.256-.677-1.653-.021-.664.513-.795.593-.462.626-.131.95-.366.766-.021.572-.151 1.942-.912 1.997-.761.753-.194 1.37.021.665.311.286.269-.597-.117-.093.471.866.525.425.505.328.139.093-.097-.228-.269.009-.194.294.076.215-.16.117.089.665-.774-.105-.118.067-.118.513-.407.504-.227.034-.375-.299-.71-1.976-2.935-.168-.4.105-.815.32-.463.765-1.635.219-.16-.046-.332-.505-.442-.374-.16-.248.408.012.463-.172-.173h-.072l-.025.194-.088-.034-.168-.29-.433-.139-.295.236-.134-.055-.354.215-.445.042-.231-.11-.127-.227.072-.58.95-3.36.021-.883-.092-.075-.24.118v-.581l.408-.946.286-.214.47.076.472-.703.18-.063.618.282.118-.088.492-.013.454.29.833.332.4.333 1.404-1.241.958-.647.564-.484.307-.42.412-.29.74-1.249.845-1.165 5.13-5.945 1.438-1.838.012-.164.16-.042.286.24.31-.463-.087-.054-.261.323-.139-.117-.02-.194 1.37-1.404.458-.336 1.085-1.178 2.96-3.796 1.997-2.935 2.57-4.474 1.862-3.469 3.17-6.967Zm-29.168 53.26-.652.795.113.109-.126.374.042.227-.218-.042.071.181-.105.118.093.084-.042.105.105.034.31-.324.468.248.626.568 2.422 1.085.824.613 1.942.967 1.266.85 1.842.61-.046.084.113.084.168-.042 1.45 1.585.892.773.787.534.16.345 1.143 1.413.32.29 1.463.921.626.13 1.085.77 1.165.45.878.159 2.435.131.467-.055.197-.181.139-.235.008-.374.185-.013.42-1.404-.512-.29-.021-.139-.139.075-2.615-1.53-2.317-1.072v-.097l-.172-.042-.009.097-2.779-.837-1.602-.601-.492-.374-.732-1.031-.08-.201.102-.106.008-.677-1.013-1.126-.95-.526-.598-.042-.332.139-.252-.11-1.35-1.644-.265-.138-.18-.236-.534.076-.413-.076-.138.042-.101.194-.168.021-.665-.042-.286-.215.047-.353-.22-.055-.134.442-.252-.324-1.585-.559-.5-.471-.5-.786-.951.45-.206.269-.13-.072Z" fill="#171619" stroke="#fff" stroke-width=".5"/></svg>