<svg width="303" height="253" fill="none" xmlns="http://www.w3.org/2000/svg"><g clip-path="url('#clip0_32_1513')" fill="#000"><path d="M181.925 63.136s-2.568-1.54-4.964 1.198c0 0-4.28-6.08-22.426-.815 0 0 2.397 4.581 4.109 4.581 1.712 0-3.253 7.875-7.875 7.532 0 0-7.874 11.47-1.883 22.597 5.906 10.967 10.148 14.45 16.005 7.337.18-.221.38-.424.599-.606 1.684-1.389 9.142-7.165 11.785-2.858.563.956.724 2.097.448 3.172-1.207 5.053-6.848 23.663-23.188 16.236 0 0-19.041-7.141-14.55-24.057a21.122 21.122 0 0 1 2.073-4.919 13.209 13.209 0 0 0 .978-10.42 10.442 10.442 0 0 0-4.368-5.926c-2.063-1.287-4.782-1.862-6.842 1.736a9.962 9.962 0 0 0-1.304 4.911c-.004 1.577.289 3.51 1.588 4.438l-1.588 3.081a21.06 21.06 0 0 0-3.282-4.838 14.391 14.391 0 0 1-4.024-8.216c-.582-4.923.118-12.274 5.984-20.84 0 0 7.875-15.749 22.597-15.407 14.721.343 27.389 4.28 30.128 22.083Z"/><path d="M157.273 83.678a27.544 27.544 0 0 1 7.803-.642c1.319.065 2.628.264 3.907.592a7.906 7.906 0 0 1 3.526 1.762 11.973 11.973 0 0 0-3.679-1.036 39.062 39.062 0 0 0-3.809-.37c-2.56-.158-5.133-.17-7.748-.305Zm24.651-.244a7.02 7.02 0 0 0-2.544 1.402 3.234 3.234 0 0 0-1.174 2.366 7.42 7.42 0 0 0 .721 2.688l1.119 2.752a16.651 16.651 0 0 1 1.432 5.9 4.482 4.482 0 0 1-.291 1.57c-.205.508-.54.954-.972 1.291a4.677 4.677 0 0 1-2.941.699 4.883 4.883 0 0 0 2.643-1.057 3.098 3.098 0 0 0 .818-2.498 11.382 11.382 0 0 0-.575-2.798 36.692 36.692 0 0 0-.999-2.76c-.351-.921-.732-1.838-1.074-2.782-.164-.476-.331-.951-.459-1.454a4.08 4.08 0 0 1-.16-1.606 3.682 3.682 0 0 1 1.624-2.675 6.402 6.402 0 0 1 2.832-1.038Z"/><path d="M181.923 63.137c.321 1.918.559 3.847.716 5.787.178 1.936.288 3.878.33 5.826.031 1.948.002 3.899-.151 5.852a16.695 16.695 0 0 1-1.312 5.782.3.3 0 0 1-.043.063 23.422 23.422 0 0 0-1.689 2.037 8.279 8.279 0 0 0-.693 1.124 1.994 1.994 0 0 0-.254 1.266 1.943 1.943 0 0 1 .07-1.341c.158-.429.349-.844.573-1.241.447-.793.964-1.544 1.544-2.245l-.042.062c.331-.876.552-1.79.657-2.72.149-.94.209-1.898.279-2.853.113-1.918.133-3.847.144-5.777 0-3.864-.085-7.734-.129-11.622Zm-10.271 33.552c-.18.371-.326.759-.436 1.157a2.482 2.482 0 0 0-.071 1.136c.053.376.217.727.471 1.009.269.311.568.595.892.847a5.749 5.749 0 0 1-.61-.218 3.3 3.3 0 0 1-.545-.376 2.05 2.05 0 0 1-.676-1.183c-.06-.455.008-.918.196-1.337.176-.4.443-.755.779-1.035Zm-39.543-9.415a9.15 9.15 0 0 1 1.401 2.464c.18.454.31.927.388 1.409.042.253.059.509.05.765l-.005.197.012.107a.377.377 0 0 0 .044.2c.147.314.406.56.726.69.381.195.781.347 1.195.453.879.237 1.783.368 2.694.39a5.663 5.663 0 0 1-2.831.34c-.5-.051-.989-.177-1.451-.372a2.207 2.207 0 0 1-1.227-1.177 1.206 1.206 0 0 1-.088-.475l-.004-.24.008-.15c.01-.207.006-.415-.014-.621a9.56 9.56 0 0 0-.205-1.303c-.194-.88-.45-1.764-.693-2.677Zm-1.588 3.08a18.885 18.885 0 0 1-1.606 3.984 19.674 19.674 0 0 1-2.413 3.59 13.723 13.723 0 0 1-3.281 2.868 8.397 8.397 0 0 1-4.127 1.256 11.958 11.958 0 0 0 3.713-1.872 18.461 18.461 0 0 0 2.971-2.869 32.992 32.992 0 0 0 2.502-3.35c.768-1.175 1.53-2.366 2.241-3.606Zm12.544 40.058a15.204 15.204 0 0 0 3.047-1.784 25.984 25.984 0 0 0 2.658-2.278c.86-.794 1.631-1.682 2.432-2.55l1.165-1.346c.38-.459.758-.922 1.176-1.365-.239.555-.516 1.091-.792 1.631-.313.515-.621 1.038-.965 1.537-.694 1-1.484 1.93-2.357 2.778a14.924 14.924 0 0 1-2.915 2.214 8.34 8.34 0 0 1-3.449 1.163Z"/><path d="M125.94 97.618a13.872 13.872 0 0 0-3.118-3.296 1.956 1.956 0 0 0-1.882-.4 2.818 2.818 0 0 0-1.146 1.63 12.22 12.22 0 0 0-.503 2.178c-.051.368-.097.75-.13 1.105.002.337.032.732.066 1.1a25.83 25.83 0 0 0 .836 4.464 32.486 32.486 0 0 0 3.476 8.466 38.763 38.763 0 0 0 5.606 7.287 78.39 78.39 0 0 0 3.337 3.164c1.182.975 2.31 2.022 3.54 2.917.594.479 1.248.868 1.867 1.307.656.377 1.286.805 1.969 1.125a18.107 18.107 0 0 0 4.181 1.639c2.908.771 5.998.447 8.682-.912a17.216 17.216 0 0 0 6.565-6.176.05.05 0 0 1 .028-.024.05.05 0 0 1 .036.004.044.044 0 0 1 .022.028.047.047 0 0 1-.001.035 16.17 16.17 0 0 1-6.299 6.789 12.43 12.43 0 0 1-4.507 1.511 13.23 13.23 0 0 1-4.757-.302 17.272 17.272 0 0 1-4.413-1.716c-.708-.351-1.35-.806-2.021-1.212-.63-.464-1.297-.882-1.894-1.385-1.253-.941-2.35-2.04-3.509-3.072-.591-.504-1.092-1.104-1.635-1.657-.523-.574-1.089-1.105-1.575-1.711a59.456 59.456 0 0 1-5.504-7.47 36.908 36.908 0 0 1-3.952-8.421 21.918 21.918 0 0 1-.91-4.607c-.026-.4-.05-.775-.041-1.21.045-.411.101-.794.164-1.188.126-.787.324-1.56.592-2.31a3.258 3.258 0 0 1 1.58-1.951c.427-.168.9-.177 1.333-.027.394.135.762.336 1.088.595a12.234 12.234 0 0 1 2.911 3.654.054.054 0 0 1 .006.017c0 .007 0 .013-.002.019a.036.036 0 0 1-.008.016.055.055 0 0 1-.014.013.052.052 0 0 1-.035.004.053.053 0 0 1-.029-.02Zm-44.069 12.936a7.357 7.357 0 0 1 3.28 1.961c.929.916 1.672 2.003 2.188 3.201.517 1.192.808 2.469.858 3.767.024.639-.008 1.279-.098 1.912a10.451 10.451 0 0 1-.496 1.843c-.222-.619-.322-1.216-.485-1.799-.175-.58-.28-1.157-.475-1.709a26.566 26.566 0 0 0-1.138-3.218 23.108 23.108 0 0 0-1.572-3.011 29.027 29.027 0 0 0-2.062-2.947Zm4.362 23.966c.385 4.439.573 8.877.692 13.314.13 4.438.145 8.874.136 13.311-.046 4.436-.117 8.873-.304 13.308-.175 4.436-.421 8.871-.866 13.305-.388-4.44-.577-8.877-.695-13.315-.13-4.437-.144-8.874-.133-13.311.048-4.436.12-8.872.307-13.308.176-4.435.42-8.871.863-13.304Zm91.549-29.327a240.4 240.4 0 0 1 10.785 7.16 265.47 265.47 0 0 1 5.254 3.785l2.585 1.975c.453.34.88.713 1.277 1.118l.615.641.517.655a48.95 48.95 0 0 1 3.658 5.435 223.565 223.565 0 0 1 3.225 5.629 375.924 375.924 0 0 0 6.382 11.254 288.144 288.144 0 0 0 3.348 5.531l1.701 2.746a14.446 14.446 0 0 0 1.786 2.509c.725.71 1.588 1.414 2.338 2.299a5.475 5.475 0 0 1 1.513 3.416 5.096 5.096 0 0 1-1.597 3.452 16.86 16.86 0 0 1-1.289 1.174c-.402.325-.793.665-1.176 1.017a32.715 32.715 0 0 0-2.198 2.248 71.286 71.286 0 0 1-2.262 2.372 52.25 52.25 0 0 1-4.944 4.352 28.155 28.155 0 0 1-5.744 3.443 13.364 13.364 0 0 1-3.352.928 7.807 7.807 0 0 1-3.609-.314.78.78 0 0 1-.443-.344l-.007-.01a76.952 76.952 0 0 0-2.403-3.698 67.045 67.045 0 0 0-2.609-3.569 40.07 40.07 0 0 0-2.922-3.296 9.996 9.996 0 0 0-3.57-2.47l-.007-.002a.106.106 0 0 1-.056-.048.103.103 0 0 1 .037-.132.099.099 0 0 1 .071-.013 9.69 9.69 0 0 1 3.999 2.125 29.88 29.88 0 0 1 3.295 3.108 61.247 61.247 0 0 1 5.624 7.07l-.449-.354a8.35 8.35 0 0 0 5.599-.815 26.232 26.232 0 0 0 5.243-3.31 56.997 56.997 0 0 0 4.779-4.155 70.32 70.32 0 0 0 2.259-2.245 34.996 34.996 0 0 1 2.383-2.308c.421-.366.852-.722 1.298-1.062.404-.337.787-.625 1.125-.968a3.566 3.566 0 0 0 1.204-2.203 3.897 3.897 0 0 0-1.004-2.391c-.613-.788-1.386-1.502-2.137-2.36a8.159 8.159 0 0 1-.555-.703l-.433-.734-.78-1.431-1.525-2.855a274.994 274.994 0 0 0-3.083-5.683c-2.104-3.758-4.322-7.454-6.724-11.029-2.382-3.57-4.798-7.184-7.378-10.482l-.488-.609-.509-.52a9.428 9.428 0 0 0-1.131-1.03l-2.514-1.998-5.076-3.985a360.336 360.336 0 0 1-10.044-8.154.1.1 0 0 1-.035-.065.106.106 0 0 1 .018-.071.106.106 0 0 1 .062-.039.104.104 0 0 1 .073.013Z"/><path d="M191.168 137.487c-1.751 6.579-3.404 13.174-4.784 19.794a77.187 77.187 0 0 0-1.485 9.952c-.095 1.609-.104 3.386-.246 5.108a29.556 29.556 0 0 1-.878 5.199 27.694 27.694 0 0 1-4.961 9.24c-1.029 1.372-2.119 2.699-3.139 4.032-.491.662-.989 1.319-1.43 2.027-.473.683-.9 1.402-1.326 2.123a84.208 84.208 0 0 0-4.484 9.058c-1.384 3.094-2.577 6.274-3.744 9.473a83.214 83.214 0 0 1 6.864-19.289 34.586 34.586 0 0 1 2.719-4.445c1.008-1.394 2.041-2.725 3.014-4.101a26.333 26.333 0 0 0 4.562-8.654c.429-1.583.716-3.201.859-4.835.159-1.667.154-3.294.307-5.076a67.55 67.55 0 0 1 1.851-10.154 158.228 158.228 0 0 1 6.301-19.452Zm75.444 89.084a1.503 1.503 0 0 1-1.501-1.499 1.5 1.5 0 0 1 1.499-1.501l34.918-.046h.002a1.506 1.506 0 0 1 1.061.438 1.507 1.507 0 0 1 .001 2.122 1.492 1.492 0 0 1-1.06.44l-34.918.046h-.002ZM44.482 225.575l-44.027.416.028 3 44.027-.416-.028-3Z"/><path d="M166.517 90.069a1.426 1.426 0 0 0 0-2.853 1.427 1.427 0 0 0 0 2.853Zm37.754 147.883a46.13 46.13 0 0 0 16.691 7.068 38.09 38.09 0 0 0 9.011.646 39.671 39.671 0 0 0 8.892-1.509 55.406 55.406 0 0 0 16.158-7.984 28.169 28.169 0 0 0 3.487-2.777 37.171 37.171 0 0 0 3.062-3.275 41.115 41.115 0 0 0 4.922-7.474l-.096.404.001-.01v-.021a.868.868 0 0 1 .094-.381 42.374 42.374 0 0 0 2.878-7.224 38.18 38.18 0 0 0 1.408-7.673l.004-.054.006-.035c.015-.052-.003-.027.014.066l-.008-.158a36.335 36.335 0 0 0-2.168-15.493 37.207 37.207 0 0 0-8.53-13.146 38.972 38.972 0 0 0-28.145-11.265 38.96 38.96 0 0 0-27.701 12.317 39.532 39.532 0 0 0-8.176 13.192 41.032 41.032 0 0 0-2.49 15.499.109.109 0 0 1-.028.074.104.104 0 0 1-.072.032.107.107 0 0 1-.106-.094 37.935 37.935 0 0 1 1.501-15.922 38.585 38.585 0 0 1 7.981-14.05 39.109 39.109 0 0 1 13.071-9.658 38.548 38.548 0 0 1 15.9-3.436 38.818 38.818 0 0 1 29.009 12.594 41.678 41.678 0 0 1 8.371 13.644 42.833 42.833 0 0 1 2.677 15.812l-.008-.157a.94.94 0 0 1-.006.366l.01-.09a38.935 38.935 0 0 1-1.058 8.02 36.847 36.847 0 0 1-2.716 7.644l.094-.403v.01a.844.844 0 0 1-.087.388l-.008.017a37.63 37.63 0 0 1-5.154 7.829 38.773 38.773 0 0 1-3.248 3.388 31.801 31.801 0 0 1-3.73 2.879 54.518 54.518 0 0 1-16.754 7.918 38.693 38.693 0 0 1-18.449.451 45.165 45.165 0 0 1-16.621-7.8.105.105 0 0 1-.041-.065.104.104 0 0 1 .082-.119.102.102 0 0 1 .076.015Z"/><path d="M213.092 171.881c-.274.736-.505 1.481-.737 2.223a63.928 63.928 0 0 0-.651 2.236c-.222.74-.402 1.494-.579 2.249l-.579 2.243.029-.188a.759.759 0 0 1-.211.51.79.79 0 0 1-.556.241l.729-.554c-.421 2.172-.941 4.309-1.384 6.467-.406 2.166-.815 4.333-1.158 6.515-.356 2.18-.71 4.362-1.008 6.561-.341 2.194-.662 4.398-1.045 6.608a56.373 56.373 0 0 1-.197-6.715c.038-2.242.191-4.48.46-6.707.279-2.224.616-4.447 1.106-6.64.223-1.101.522-2.187.829-3.268.309-1.082.594-2.168.928-3.24l.729-.554a.76.76 0 0 0-.7.49.737.737 0 0 0-.047.241l.029-.188c.553-1.48 1.063-2.965 1.718-4.403a25.838 25.838 0 0 1 2.295-4.127Zm38.815 0a40.828 40.828 0 0 1 3.361 7.392c.484 1.271.827 2.583 1.245 3.877.371 1.306.679 2.628 1.019 3.945a102.322 102.322 0 0 1 2.279 16.109c.342 5.41.346 10.837.013 16.248-.166 2.701-.469 5.392-.727 8.081-.415 2.675-.775 5.351-1.251 8.009.044-2.707.216-5.393.312-8.082l.168-8.061a225.067 225.067 0 0 1-.011-4.025l.007-2.011-.072-2.009-.106-4.016-.248-4.008a146.772 146.772 0 0 0-1.827-15.937l-.772-3.939c-.309-1.299-.558-2.62-.925-3.907a51.391 51.391 0 0 0-2.465-7.666Zm-20.285 52.83a9.064 9.064 0 0 0 1.56-2.1c-.01.9-.03 1.79-.05 2.69-.13 6.5-.38 13-.75 19.5-.37-6.5-.62-13-.75-19.5 0-.2-.01-.39-.01-.59Zm.27-6.43s.66-.79 1.38-1.83c-.01 1.01-.02 2.03-.04 3.04a3.919 3.919 0 0 0-1.34-1.21Zm1.45-13.45v1.92l-.03 4.71a8.31 8.31 0 0 0-1.86.37l-.03-5.08v-1.92c.04-12.69.22-25.37.96-38.06.73 12.69.92 25.37.96 38.06Z"/><path d="M196.917 189.537a81.44 81.44 0 0 1 17.336-5.483 95.372 95.372 0 0 1 18.146-1.927c3.051-.091 6.096.154 9.14.324 1.515.169 3.026.389 4.538.581.754.107 1.513.184 2.263.314l2.237.48a75.12 75.12 0 0 1 17.264 5.711 190.57 190.57 0 0 1-4.347-1.297l-2.158-.663c-.722-.21-1.469-.337-2.2-.509l-4.388-1.021c-1.473-.282-2.96-.495-4.436-.745l-2.217-.363c-.741-.098-1.489-.157-2.233-.237-1.491-.145-2.978-.317-4.468-.438-2.992-.111-5.978-.339-8.973-.217-5.996.052-11.98.545-17.903 1.477l-4.44.769c-1.469.31-2.949.587-4.415.926-2.947.626-5.853 1.426-8.746 2.318Zm34.576 38.415 9.198-1.187c3.042-.429 6.078-.885 9.095-1.432 3.02-.518 6.029-1.131 9.032-1.775 1.487-.375 2.988-.713 4.497-1.045l1.138-.233 1.118-.291a71.756 71.756 0 0 1 2.272-.537c-.688.356-1.386.702-2.092 1.038-.699.346-1.417.654-2.149.922a156.483 156.483 0 0 1-4.399 1.595 72.64 72.64 0 0 1-9.084 2.217 65.242 65.242 0 0 1-18.626.728Zm-38.12-22.16c1.97-.12 3.94-.22 5.91-.3-.537.143-1.065.32-1.58.53-1.45-.07-2.89-.15-4.33-.23Zm78.02 0c-6.5.37-13 .62-19.5.75-6.19.14-12.37.19-18.55.21h-1.92c-.78 0-1.55-.01-2.33-.01.08-.83-.33-1.38-1.49-1.44a4.345 4.345 0 0 0-2.82.94c-.18.14-.38.29-.61.46a721.45 721.45 0 0 1-18.2-.35 1.62 1.62 0 0 0-.62-1.1c8.69-.3 17.38-.39 26.07-.42h1.92c6.18.02 12.36.07 18.55.21 6.5.12 13 .37 19.5.75Z"/><path d="M209.813 180.621v.004l-.003.003-.003.002-.004.001a25.82 25.82 0 0 0-2.15 5.51c-.01.02-.01.05-.02.07-.75 2.89-.38 3.42-1.37 6.27-.56 1.61-1.06 2.54-.78 3.87a15.41 15.41 0 0 0 1.01 2.43c.12.25.24.52.38.82.69 1.52.86 1.88.71 2.34-.19.56-.63.63-1.44 1.12a5.995 5.995 0 0 0-.81.57c-.48.361-.922.77-1.32 1.22a16.843 16.843 0 0 0-8.55 2.23c-.62.35-1.29.7-2.01 1.07h-.01c-.03-.43-.04-.86-.06-1.29-.01-.36-.01-.71-.01-1.07a38.895 38.895 0 0 1 3.54-16.26l.01-.01h.01a37.875 37.875 0 0 1 3.36-5.91c4.35-4.24 9.04-6.44 10.6-6.43a.662.662 0 0 1 .47.14c.35.35-.49 1.31-1.55 3.3Zm61.58 25.17c0 .33 0 .66-.02.99 0 .28-.02.55-.03.83 0 .05-.01.1-.01.15a8.155 8.155 0 0 1-.05.87 38.597 38.597 0 0 1-3.89 14.37.33.33 0 0 1-.09.04v.01a2.647 2.647 0 0 1-.83.24 2.385 2.385 0 0 1-1.86-.62c-.01-.01-.02-.03-.04-.04-.81-.89-.16-2.13-.42-3.99-.22-1.54-1.03-2.63-2.64-4.8a21.965 21.965 0 0 0-2.34-2.8c-.59-.57-1.14-.92-1.53-.76-.49.22-.64 1.26-.46 2.02.27 1.14 1.19 1.24 1.39 2.16.27 1.21-.96 2.61-2.01 3.25a4.079 4.079 0 0 1-4.02.31c-1.44-.84-1.4-2.63-2.17-2.63-.61.01-1.15 1.13-1.24 2.01a2.8 2.8 0 0 0 1.39 2.79c.99.42 1.63-.45 2.79 0a2.086 2.086 0 0 1 1.39 1.55c.05.95-1.25 1.69-2.94 2.63-1.93 1.07-2.53 1.02-4.8 2.17-.22.11-.42.21-.61.31-.887.409-1.72.926-2.48 1.54-1.56 1.28-1.41 1.85-2.94 3.1a7.616 7.616 0 0 1-3.56 1.86c-1.21.2-1.46-.17-3.56-.31a14.213 14.213 0 0 0-1.43-.03c-.919.012-1.837.073-2.75.18-1.068.106-2.128.29-3.17.55 5.36-2.73 6.07-6.86 3.84-7.84 0 0 6.34-4.81 1.59-7.62 0 0 7.68-9.14-.99-6.28a8.834 8.834 0 0 0-2.04 1.01c-.27.17-.58.38-.93.6l-1.03-2.62v-.01c2.03-2.76 3.39-5.55.7-5.68a4.347 4.347 0 0 0-2.82.94c-.62.47-1.51 1.13-2.63 1.89l-2.27-2.34a6.485 6.485 0 0 1-.93-2.78 7.87 7.87 0 0 1 2.32-5.88 10.993 10.993 0 0 1 5.26-3.1 10.32 10.32 0 0 1 4.96-.62c.28.05.58.11.89.19.98.23 1.99.57 2.51.74a9.484 9.484 0 0 0 2.79.78c1.26.06 1.61-.32 2.16 0 .69.38.58 1.18 1.09 3.09.51 1.89.93 3.49 2.01 3.87.81.28 1.25-.38 2.17 0 .6.25.6.61 1.54 1.55.83.82 1.25 1.23 1.86 1.39a2.939 2.939 0 0 0 3.1-1.24c.12-.21.34-.65.15-2.47-.23-2.3-.34-3.45-1.08-4.18-.9-.89-1.6-.24-3.72-.93-2.43-.79-2.25-1.89-4.95-2.94-1.81-.7-2.29-.37-3.71-1.24-1.15-.7-2.61-2-2.33-2.79.31-.84 2.31-.19 3.1-1.39.62-.93-.24-1.84.46-3.1.41-.72 1.26-1.41 1.86-1.23.66.19.41 1.26 1.24 2.63a6.116 6.116 0 0 0 3.25 2.47c1.01.37 2.26.83 3.25.16.88-.59 1.37-1.94.93-2.63-.57-.89-2.3-.13-2.79-.93a1.534 1.534 0 0 1 .01-1.21 2.803 2.803 0 0 1 1.85-1.89c.51-.08 1.03.11 4.03 2.63.16.14.32.27.46.39l.01.01c1.59 1.35 1.88 1.65 2.47 1.62.196-.012.388-.056.57-.13.316-.132.607-.318.86-.55a7.476 7.476 0 0 0 1.66-2.42c.51-1.18.31-1.66.62-1.86.72-.46 3.29 1.08 5.99 3.85a36.658 36.658 0 0 1 2.04 3.88 38.715 38.715 0 0 1 3.46 13.52c.03.45.05.91.07 1.37.01.45.02.91.02 1.37ZM157.274-.069c.56 2.275.99 4.58 1.289 6.903.33 2.309.544 4.626.735 6.944.154 2.321.283 4.644.295 6.976a61.115 61.115 0 0 1-.265 7.018 61.254 61.254 0 0 1-1.291-6.903c-.33-2.308-.544-4.625-.732-6.944-.152-2.321-.28-4.644-.292-6.976a62.03 62.03 0 0 1 .261-7.017Zm14.419 29.76a66.818 66.818 0 0 1 1.985-7.01c.754-2.3 1.617-4.555 2.501-6.803.918-2.233 1.859-4.457 2.909-6.638a65.95 65.95 0 0 1 3.43-6.428 66.052 66.052 0 0 1-1.982 7.011c-.755 2.3-1.617 4.555-2.503 6.802-.921 2.233-1.862 4.457-2.913 6.637a66.55 66.55 0 0 1-3.427 6.43Zm-36.33-24.48a56.852 56.852 0 0 1 3.372 5.81c1.033 1.977 1.959 4 2.863 6.032.871 2.047 1.718 4.104 2.459 6.208a56.1 56.1 0 0 1 1.944 6.43 56.143 56.143 0 0 1-3.375-5.808c-1.033-1.977-1.958-4-2.861-6.033-.868-2.048-1.715-4.105-2.456-6.209a56.74 56.74 0 0 1-1.946-6.43ZM42.229 167.786a18.221 18.221 0 0 0-2.724-.477 2.89 2.89 0 0 0-1.292.13c-.393.142-.27.574-.052.95a9.96 9.96 0 0 0 1.807 2.013 30.15 30.15 0 0 0 2.115 1.765.311.311 0 0 1 .058.434.317.317 0 0 1-.287.119 9.332 9.332 0 0 1-5.108-2.245 7.724 7.724 0 0 1-1.779-2.235 4.967 4.967 0 0 1-.502-1.405c-.055-.286-.05-.58.017-.863.05-.181.14-.349.263-.491.038-.07.074-.093.13-.201.835-1.518 1.547-3.236 2.272-4.883l2.128-5.012c.713-1.674 1.436-3.328 2.047-5.024.63-1.694 1.141-3.411 1.733-5.144l1.735-5.181c.59-1.722 1.313-3.398 1.962-5.098a101.13 101.13 0 0 1 9.926-19.417 45.23 45.23 0 0 1 7.098-8.343c.34-.309.672-.628 1.02-.928l1.091-.849a22.753 22.753 0 0 1 2.269-1.588 16.415 16.415 0 0 1 5.169-2.225l-.103.024a41.645 41.645 0 0 1 9.605-1.669c3.22-.262 6.445-.345 9.665-.348 3.22 0 6.438.063 9.653.187 3.214.152 6.421.345 9.633.608l-.338.114a35.635 35.635 0 0 0 3.428-4.08l1.605-2.177a6.812 6.812 0 0 1 1.978-1.998 7.63 7.63 0 0 1 5.423-.82 13.41 13.41 0 0 1 5.05 2.027c.006.004.012.01.016.015a.048.048 0 0 1 .008.02.04.04 0 0 1 0 .022.05.05 0 0 1-.008.02.06.06 0 0 1-.036.023.06.06 0 0 1-.042-.008 13.184 13.184 0 0 0-5.041-1.75 7.406 7.406 0 0 0-5.041.945 6.174 6.174 0 0 0-1.745 1.894l-1.542 2.244a32.202 32.202 0 0 1-3.447 4.299.398.398 0 0 1-.307.117l-.03-.002a281.867 281.867 0 0 0-9.604-.409 265.416 265.416 0 0 0-9.608-.139c-3.202.009-6.398.141-9.582.34a40.688 40.688 0 0 0-9.35 1.505l-.068.017-.035.007a16.767 16.767 0 0 0-4.819 2.007 21.88 21.88 0 0 0-2.23 1.481l-1.081.799c-.347.284-.678.588-1.018.881a23.313 23.313 0 0 0-1.973 1.838c-.619.654-1.278 1.272-1.865 1.957-1.148 1.392-2.35 2.746-3.359 4.251a81.726 81.726 0 0 0-9.945 19.27c-.592 1.715-1.256 3.404-1.788 5.138l-1.562 5.211c-.533 1.723-.985 3.514-1.62 5.229-.606 1.731-1.322 3.416-2.016 5.092-.692 1.682-1.435 3.343-2.17 5.008-.762 1.667-1.455 3.311-2.392 4.967a2.705 2.705 0 0 1-.26.357c.006.055-.041.018-.042.109a1.255 1.255 0 0 0-.003.487c.076.403.211.792.401 1.155a7.517 7.517 0 0 0 1.557 2.041 8.624 8.624 0 0 0 4.655 2.21l-.228.554a30.488 30.488 0 0 1-2.105-1.868 10.023 10.023 0 0 1-1.788-2.214 1.825 1.825 0 0 1-.218-.748.73.73 0 0 1 .482-.685 3.11 3.11 0 0 1 1.453-.087c.925.138 1.837.346 2.73.622a.067.067 0 0 1 .02.01.07.07 0 0 1 .013.017.054.054 0 0 1 .005.042.056.056 0 0 1-.067.039Z"/><path d="M233.19 216.395c.44-.652.833-1.335 1.176-2.043a6 6 0 0 0 .402-1.086c.115-.345.121-.717.018-1.066a.892.892 0 0 0-.795-.511 3.81 3.81 0 0 0-1.118.036c-.763.138-1.511.35-2.234.633-.715.303-1.393.685-2.023 1.14-.659.443-1.333.868-2.014 1.282-.684.411-1.375.812-2.094 1.176a9.408 9.408 0 0 1-2.307.894.358.358 0 0 1-.385-.177.36.36 0 0 1 .052-.42l.016-.018a56.264 56.264 0 0 0 4.654-5.513l-.089.269-.001-.01a.434.434 0 0 1 .081-.258l.007-.01a23.02 23.02 0 0 0 1.24-1.914 6.3 6.3 0 0 0 .803-1.979c.094-.682-.126-.889-.818-.987a3.543 3.543 0 0 0-1.959.399 5.184 5.184 0 0 0-.885.59c-.312.245-.629.475-.948.702-.64.452-1.261.927-1.917 1.36a58.754 58.754 0 0 1-4.002 2.484 39.621 39.621 0 0 1-8.701 3.716 23.844 23.844 0 0 1-4.736.802 16.179 16.179 0 0 1-4.856-.482.747.747 0 0 1-.541-.847.736.736 0 0 1 .149-.332l.012-.014 3.796-4.756 1.865-2.341a.926.926 0 0 0 .13-.798.852.852 0 0 0-.189-.34 1.393 1.393 0 0 0-.174-.152.836.836 0 0 0-.167-.095 1.08 1.08 0 0 0-.463-.079 15.82 15.82 0 0 0-2.151.101c-.961.109-1.909.318-2.827.623-.459.161-.909.3-1.376.475-.445.177-.882.377-1.31.598l-2.679 1.443a.771.771 0 0 1-.358.092h-.032l.376-.09c-5.043 2.519-10.131 4.742-14.929 7.516l-1.805 1.052a19.576 19.576 0 0 1-6.121 2.308c-1.43.288-2.884.429-4.342.421-1.48-.01-2.86-.186-4.249-.287l-16.7-1.398-16.695-1.466c-11.13-.962-22.261-1.943-33.396-2.796l-4.175-.274a52.29 52.29 0 0 0-2.072-.089 2.504 2.504 0 0 1-1.192-.278c-.349-.2-.65-.475-.88-.805a10.499 10.499 0 0 1-1.468-4.068 37.307 37.307 0 0 1-.503-4.198c-.285-5.598-.186-11.21.295-16.795l.22.321c-3.845-1.182-7.687-2.396-11.421-3.905a118.782 118.782 0 0 1-11.004-4.972c-3.579-1.845-7.066-3.865-10.527-5.892-3.462-2.007-6.954-4.017-10.747-5.051l.657-.499a811.44 811.44 0 0 0 .702 33.189c.24 5.526.547 11.049 1 16.554.097 1.378.235 2.751.364 4.125.121 1.376.264 2.747.43 4.115.158 1.372.28 2.751.534 4.045.245 1.309.61 2.594 1.087 3.838 1.979 5 5.567 9.198 10.198 11.932a28.287 28.287 0 0 0 7.368 3.116c1.296.345 2.613.604 3.943.777 1.339.165 2.735.274 4.1.414l4.116.395 4.127.267c2.749.215 5.505.274 8.26.386 2.754.126 5.511.075 8.267.122 2.756-.068 5.514-.059 8.267-.206a231.557 231.557 0 0 0 32.848-3.702c5.414-1.005 10.86-2.151 16.339-3.062 5.478-.928 10.968-1.706 16.461-2.451 10.984-1.504 21.988-2.781 32.975-4.152 5.488-.703 10.987-1.391 16.413-2.365l2.019-.408c.674-.133 1.301-.353 1.956-.523a37.064 37.064 0 0 0 1.861-.799 14.855 14.855 0 0 0 1.738-1.035 8.19 8.19 0 0 0 2.66-2.919 3.367 3.367 0 0 0 .393-1.846 1.735 1.735 0 0 0-.987-1.415.256.256 0 0 1-.143-.187.248.248 0 0 1 .075-.222l.016-.015a21.313 21.313 0 0 0 1.712-1.579 7.57 7.57 0 0 0 1.296-1.907 2.85 2.85 0 0 0 .179-2.177 3.414 3.414 0 0 0-1.511-1.65.12.12 0 0 1-.037-.034.125.125 0 0 1-.024-.096.12.12 0 0 1 .017-.048l.011-.015 1.396-1.805.005-.006a.102.102 0 0 1 .066-.038.105.105 0 0 1 .073.019.1.1 0 0 1 .021.139l-1.364 1.856-.033-.194c.74.38 1.331.999 1.676 1.757a3.195 3.195 0 0 1-.129 2.441 8.003 8.003 0 0 1-1.313 2.045 21.595 21.595 0 0 1-1.738 1.685l-.052-.424a2.274 2.274 0 0 1 1.332 1.799c.079.746-.057 1.5-.393 2.171a8.804 8.804 0 0 1-2.789 3.235 15.68 15.68 0 0 1-1.799 1.134c-.634.311-1.279.613-1.932.888-.678.199-1.359.451-2.039.603l-2.043.464c-5.46 1.077-10.945 1.859-16.429 2.659l-32.902 4.616c-5.474.801-10.944 1.636-16.377 2.616-2.722.458-5.425 1.045-8.133 1.57-2.706.559-5.425 1.138-8.157 1.646a233.614 233.614 0 0 1-33.126 3.809c-11.12.502-22.261.165-33.33-1.007-1.389-.152-2.754-.265-4.162-.447a32.591 32.591 0 0 1-4.196-.853 30.256 30.256 0 0 1-7.862-3.382 26.087 26.087 0 0 1-10.913-12.941 23.89 23.89 0 0 1-1.149-4.15c-.267-1.427-.381-2.812-.528-4.191-.151-1.384-.278-2.768-.38-4.153-.112-1.384-.233-2.768-.313-4.154-.384-5.54-.62-11.082-.79-16.624a757.636 757.636 0 0 1-.272-33.256v-.01a.515.515 0 0 1 .658-.489c3.972 1.146 7.482 3.249 10.923 5.302 3.444 2.07 6.865 4.151 10.42 5.997 3.55 1.85 7.193 3.518 10.913 4.997 3.706 1.52 7.523 2.747 11.346 3.944a.314.314 0 0 1 .219.321 114.482 114.482 0 0 0-.217 16.691c.096 1.38.27 2.754.521 4.114a9.903 9.903 0 0 0 1.356 3.75c.17.243.39.446.647.594.255.129.54.19.825.178.71.014 1.42.034 2.114.076l4.19.235c11.159.665 22.304 1.45 33.452 2.233l16.718 1.2 16.709 1.311c1.396.096 2.796.261 4.111.26 1.338 0 2.672-.136 3.982-.407a19.311 19.311 0 0 0 3.804-1.21c.61-.267 1.206-.567 1.784-.898l1.821-1.045c4.902-2.791 10.086-5.017 15.051-7.459l.012-.006a.83.83 0 0 1 .364-.084h.009l-.379.092 2.691-1.427c.475-.24.962-.461 1.462-.655.484-.179 1.004-.34 1.504-.509a15.538 15.538 0 0 1 3.112-.661c.53-.058 1.061-.093 1.592-.102.278-.003.505-.007.815.006.35.003.697.075 1.02.213.173.076.337.172.489.287.141.106.272.224.392.355.252.281.435.618.534.983a2.507 2.507 0 0 1-.364 2.104l-1.941 2.41-3.831 4.735-.38-1.193c1.429.373 2.904.537 4.38.489a22.478 22.478 0 0 0 4.45-.685 38.278 38.278 0 0 0 8.462-3.462 56.966 56.966 0 0 0 3.957-2.369c.648-.414 1.269-.873 1.906-1.308.318-.219.633-.44.936-.67a6.307 6.307 0 0 1 1.065-.68 4.59 4.59 0 0 1 2.557-.468 2.045 2.045 0 0 1 1.368.658 1.85 1.85 0 0 1 .316 1.507 7.142 7.142 0 0 1-.958 2.31 21.9 21.9 0 0 1-1.338 1.968l.087-.268v.024a.423.423 0 0 1-.089.256 57.055 57.055 0 0 1-4.866 5.486l-.317-.614a16.421 16.421 0 0 0 4.209-1.878 51.88 51.88 0 0 0 2.028-1.221 10.853 10.853 0 0 1 2.14-1.134 12.456 12.456 0 0 1 2.35-.603 4.21 4.21 0 0 1 1.248.004 1.254 1.254 0 0 1 1.059.773c.119.418.103.864-.045 1.273a6.356 6.356 0 0 1-.457 1.126 16.819 16.819 0 0 1-1.261 2.035.102.102 0 0 1-.139.024.1.1 0 0 1-.041-.063.096.096 0 0 1 .015-.074Z"/><path d="M222.457 216.95c-1.508.885-3.03 1.7-4.596 2.449a26.063 26.063 0 0 1-4.842 1.847 25.782 25.782 0 0 0 4.576-2.336 61.093 61.093 0 0 0 4.241-2.882l.008-.006a.554.554 0 0 1 .779.117.558.558 0 0 1-.166.811Zm9.767 1.784a151.097 151.097 0 0 1-7.886 5.036c-1.344.789-2.697 1.565-4.097 2.256-.695.356-1.407.677-2.134.96a7.61 7.61 0 0 1-1.11.371 4.484 4.484 0 0 1-1.151.178 4.437 4.437 0 0 0 1.132-.245 7.564 7.564 0 0 0 1.075-.432c.703-.324 1.39-.683 2.057-1.077 1.345-.768 2.644-1.618 3.931-2.482a149.256 149.256 0 0 0 7.525-5.462l.005-.004a.557.557 0 0 1 .68.882l-.027.019Zm-1.563 7.598a26.754 26.754 0 0 1-3.168 1.994 32.056 32.056 0 0 1-3.347 1.584 30.334 30.334 0 0 1-7.084 1.948 29.99 29.99 0 0 0 6.855-2.455 31.086 31.086 0 0 0 3.15-1.794 26.153 26.153 0 0 0 2.881-2.13l.017-.015a.566.566 0 0 1 .615-.079.548.548 0 0 1 .28.323.566.566 0 0 1-.031.426.563.563 0 0 1-.168.198Zm-27.048-41.8a.514.514 0 0 1-.237-.06.49.49 0 0 1-.18-.164l-4.318-6.522a.508.508 0 0 1-.073-.375.503.503 0 0 1 .59-.391.5.5 0 0 1 .317.214l4.318 6.521c.073.111.099.246.073.376a.502.502 0 0 1-.49.401Zm22.229-16.3a.498.498 0 0 1-.417-.224l-4.318-6.521a.492.492 0 0 1 .14-.694.512.512 0 0 1 .556.002.507.507 0 0 1 .138.139l4.318 6.521a.501.501 0 0 1-.417.777Z"/></g><defs><clipPath id="clip0_32_1513"><path fill="#fff" d="M0 0h303v253H0z"/></clipPath></defs></svg>