<svg width="378" height="406" fill="none" xmlns="http://www.w3.org/2000/svg"><g clip-path="url('#clip0_32_1412')"><path d="M183.812 188.406c.344 5.955.496 11.91.635 17.865.047 5.955.198 11.91.102 17.865l-.834-.834c6.061.101 12.121.358 18.182.483 3.03.058 6.061.069 9.091.035 3.03-.02 6.061-.051 9.091-.142l9.091-.242 9.091-.173c6.061-.049 12.121-.157 18.182-.159l-1.032 1.032c-.024-6.95.095-13.9.236-20.851.048-3.475.17-6.95.275-10.425.095-3.475.252-6.95.424-10.425a.104.104 0 0 1 .03-.066.097.097 0 0 1 .067-.026c.025 0 .049.009.067.026a.099.099 0 0 1 .03.066c.172 3.475.329 6.95.424 10.425.105 3.475.227 6.95.275 10.425.141 6.951.26 13.901.237 20.851a1.036 1.036 0 0 1-1.033 1.033c-6.061-.002-12.121-.11-18.182-.16l-9.091-.173-9.091-.242c-3.03-.091-6.061-.122-9.091-.141-3.03-.038-6.061-.026-9.091.035-6.061.125-12.121.381-18.182.482a.818.818 0 0 1-.834-.806v-.028c-.096-5.955.055-11.91.102-17.865.139-5.955.291-11.91.635-17.865a.099.099 0 0 1 .03-.065.097.097 0 0 1 .067-.026c.025 0 .048.009.066.026a.1.1 0 0 1 .031.065Zm72.534-27.34c-.167-1.608-.243-3.216-.366-4.824-.09-1.608-.168-3.216-.223-4.824l.686.686c-6.061.214-12.122.301-18.182-.087a160.299 160.299 0 0 0-18.182-.089c-6.061.329-12.121.401-18.182.502-6.061.082-12.122-.059-18.182-.285l.727-.727-.262 5.327c-.039.888-.114 1.776-.169 2.664-.057.888-.12 1.776-.2 2.664a.095.095 0 0 1-.096.088.095.095 0 0 1-.097-.088c-.079-.888-.142-1.776-.199-2.664-.056-.888-.13-1.776-.17-2.664l-.262-5.327a.694.694 0 0 1 .657-.725h.005l.066-.003c6.06-.226 12.121-.366 18.182-.285 6.06.101 12.121.173 18.182.503 6.057.314 12.128.284 18.182-.089 6.06-.388 12.121-.302 18.182-.088l.048.002a.663.663 0 0 1 .638.685 228.885 228.885 0 0 1-.223 4.824c-.123 1.608-.199 3.216-.366 4.824a.098.098 0 0 1-.162.063.101.101 0 0 1-.032-.063Z" fill="#FDFBF5"/><path d="M220.082 151.417v72.72M256.446 187.777h-54.415" stroke="#FDFBF5" stroke-width="2.903" stroke-miterlimit="10"/><path d="M220.986 151.687a.337.337 0 0 1-.168.062l-.084.01-.138.019-.275.037-.552.063c-.367.031-.736.067-1.104.086-.736.037-1.474.068-2.21.056a38.619 38.619 0 0 1-4.419-.265 34.887 34.887 0 0 1-4.388-.774 20.75 20.75 0 0 1-4.265-1.471 16.427 16.427 0 0 1-3.841-2.521 9.955 9.955 0 0 1-2.734-3.733 7.554 7.554 0 0 1-.256-4.565 15.015 15.015 0 0 1 1.598-4.272 8.874 8.874 0 0 1 3.396-3.413 8.132 8.132 0 0 1 4.936-.864c1.642.231 3.213.818 4.605 1.72a16.439 16.439 0 0 1 3.558 3.125 25.944 25.944 0 0 1 4.438 7.925 35.568 35.568 0 0 1 1.249 4.279c.154.73.283 1.441.418 2.188.14.855.165 1.667.236 2.308Zm-.22-.176c-.313-.759-.671-1.348-.915-1.893l-.886-1.967-.928-1.94c-.335-.632-.644-1.273-.982-1.894a34.817 34.817 0 0 0-4.673-6.844 12.387 12.387 0 0 0-6.313-4.198 6.82 6.82 0 0 0-6.651 2.525 10.118 10.118 0 0 0-1.94 3.636 5.356 5.356 0 0 0 .168 3.966 6.779 6.779 0 0 0 2.818 2.834 20.483 20.483 0 0 0 3.804 1.6c1.315.441 2.659.823 4.009 1.228 1.357.382 2.739.71 4.129 1.037l4.208.926 2.126.453 1.068.235.536.122.268.061.134.03c.016.005.061.01.052.016a.061.061 0 0 0-.027.028.064.064 0 0 0-.005.039Z" fill="#FDFBF5"/><path d="M219.414 151.511a.073.073 0 0 0-.005-.039.071.071 0 0 0-.028-.029c-.008-.005.037-.01.052-.015l.134-.03.269-.061.535-.123 1.069-.234 2.126-.453 4.208-.926c1.39-.327 2.772-.656 4.129-1.037 1.35-.405 2.693-.787 4.009-1.228a20.483 20.483 0 0 0 3.804-1.6 6.779 6.779 0 0 0 2.818-2.834 5.356 5.356 0 0 0 .168-3.966 10.125 10.125 0 0 0-1.94-3.636 6.822 6.822 0 0 0-6.651-2.525 12.387 12.387 0 0 0-6.313 4.198 34.774 34.774 0 0 0-4.673 6.844c-.338.621-.648 1.262-.982 1.894l-.928 1.94-.886 1.967c-.244.545-.603 1.134-.915 1.893Zm-.221.176c.071-.641.097-1.453.237-2.308.135-.747.264-1.458.418-2.188.326-1.451.743-2.88 1.249-4.279a25.962 25.962 0 0 1 4.437-7.925 16.444 16.444 0 0 1 3.559-3.125 11.378 11.378 0 0 1 4.605-1.72 8.133 8.133 0 0 1 4.936.864 8.887 8.887 0 0 1 3.396 3.413 15.015 15.015 0 0 1 1.598 4.272 7.555 7.555 0 0 1-.257 4.565 9.953 9.953 0 0 1-2.733 3.733 16.412 16.412 0 0 1-3.842 2.521 20.73 20.73 0 0 1-4.265 1.471c-1.444.351-2.91.61-4.387.774a38.619 38.619 0 0 1-4.419.265 33.25 33.25 0 0 1-2.21-.056c-.368-.019-.737-.055-1.104-.086l-.552-.063-.276-.037-.137-.019-.084-.01a.344.344 0 0 1-.169-.062Z" fill="#FDFBF5"/><path d="m229.23 150.376 6.004-1.711c1.987-.567 3.943-1.188 5.925-1.744a38.466 38.466 0 0 0 5.905-1.899 23.582 23.582 0 0 0 5.232-3.323 17.636 17.636 0 0 1 12.187-3.92c2.206.149 4.355.764 6.306 1.804a10.67 10.67 0 0 1 2.641 1.983 5.623 5.623 0 0 1 1.495 2.905l-.188.047a7.991 7.991 0 0 0-4.594-3.554 18.568 18.568 0 0 0-5.781-1.124 21.868 21.868 0 0 0-2.952.047l-1.475.163-1.454.311c-.492.086-.948.295-1.43.426l-.716.221-.692.289c-.458.202-.947.35-1.396.581l-1.355.697c-1.844 1.012-3.682 2.061-5.551 3.01a60.752 60.752 0 0 1-5.662 2.86 30.796 30.796 0 0 1-6.109 1.682 27.85 27.85 0 0 1-6.321.442l-.019-.193Z" fill="#FDFBF5"/><path d="m230.785 151.304 5.089-3.617c1.684-1.197 3.321-2.435 5.003-3.62a38.408 38.408 0 0 0 4.935-3.76 23.637 23.637 0 0 0 3.824-4.878 17.626 17.626 0 0 1 10.181-7.76 15.628 15.628 0 0 1 6.546-.403c1.095.164 2.159.498 3.152.988a5.631 5.631 0 0 1 2.378 2.241l-.161.106a7.997 7.997 0 0 0-5.517-1.818 18.56 18.56 0 0 0-5.825.869c-.944.28-1.869.624-2.767 1.029l-1.336.646-1.268.778c-.435.245-.795.594-1.205.878l-.602.448-.556.503c-.364.343-.775.646-1.121 1.013l-1.045 1.11c-1.402 1.569-2.784 3.17-4.23 4.689a60.607 60.607 0 0 1-4.383 4.584 30.782 30.782 0 0 1-5.199 3.624 27.858 27.858 0 0 1-5.811 2.525l-.082-.175ZM317.006 131.047v-.252c.077-.068.155-.145.232-.213l-.232.465Zm21.542 22.771c.03-.068.049-.126.078-.193.058-.049.126-.087.184-.136l-.262.329Z" fill="#FDFBF5"/><path d="M367.843 88.3c-9.194-43.773-27.233-45.06-27.233-45.06a116.815 116.815 0 0 1 1.877 3.813.348.348 0 0 1 .01.242l-.02.039a22.126 22.126 0 0 1-3.968 6.765 37.208 37.208 0 0 1-5.661 5.39 54.651 54.651 0 0 1-6.445 4.365 59.648 59.648 0 0 1-6.949 3.464l-.048.02a.646.646 0 0 1-.891-.62c.116-2.942.262-5.884.552-8.826-1.026.484-1.626.745-1.626.745l-.9 10.617-8.023 69.563c1.413-1.413 2.875-2.777 4.326-4.151 1.365-1.317 2.768-2.584 4.162-3.871-.029-4.239.058-8.468.222-12.698.194-4.316.436-8.632.823-12.939.397-4.306.861-8.603 1.577-12.88.155-1.065.397-2.13.591-3.194.183-1.065.445-2.12.725-3.175.136-.522.252-1.055.407-1.577l.493-1.549a19.071 19.071 0 0 1 1.268-2.99 26.71 26.71 0 0 0-.851 3.107l-.32 1.567c-.097.533-.155 1.065-.232 1.597-.319 2.12-.552 4.258-.765 6.388-.445 4.277-.716 8.564-1.035 12.851a422.337 422.337 0 0 0-.416 6.446l-.407 6.436-.803 12.89-.01.058a.573.573 0 0 1-.222.416c-1.568 1.23-3.136 2.468-4.733 3.668-1.596 1.21-3.174 2.429-4.8 3.6-5.274 7.501-42.282 26.769-42.282 26.769s3.697 12.697 6.755 12.426c25.791-2.245 32.295-5.806 32.295-5.806v17.729c2.429 20.981 68.092-3.842 68.092-3.842L367.843 88.3Zm-39.031-19.288a14.282 14.282 0 0 1 5.197-2.778 10.45 10.45 0 0 1 5.971.049 10.735 10.735 0 0 1 4.888 3.106 19.934 19.934 0 0 0-5.217-1.635 12.234 12.234 0 0 0-5.129.339 20.444 20.444 0 0 0-4.839 2.148 44.02 44.02 0 0 0-4.538 3.194 14.622 14.622 0 0 1 3.667-4.423Zm9.93 74.006a16.092 16.092 0 0 1-1.2 4.664 18.824 18.824 0 0 1-2.371 4.239 14.34 14.34 0 0 1-3.523 3.436 8.847 8.847 0 0 1-4.616 1.577 19.216 19.216 0 0 0 3.677-2.758 30.595 30.595 0 0 0 2.913-3.407c1.82-2.419 3.349-5.061 5.12-7.751ZM352 114.691c-.571 3.426-1.045 6.881-1.897 10.249-.396 1.693-.716 3.406-1.19 5.08l-1.432 5.013c-.252.833-.475 1.675-.755 2.497l-.861 2.458-1.742 4.917c-.571 1.635-1.317 3.213-1.975 4.819l-2.032 4.791a.823.823 0 0 1-.261.329 95.605 95.605 0 0 1-8.255 5.371c-.62.367-1.249.726-1.878 1.074 2.874 2.042 5.623 4.065 8.536 5.778a42.477 42.477 0 0 0 4.829 2.438 28.348 28.348 0 0 0 5.294 1.481 12.546 12.546 0 0 1-5.749-.039 20.007 20.007 0 0 1-5.361-2.216 24.952 24.952 0 0 1-4.558-3.474 21.86 21.86 0 0 1-3.243-3.823 114.652 114.652 0 0 1-6.513 3.416 116.817 116.817 0 0 1-8.961 3.949c-3.02 1.229-6.117 2.274-9.223 3.232 3.019-1.219 6.039-2.429 8.971-3.813 2.952-1.355 5.836-2.845 8.691-4.374a150.371 150.371 0 0 0 8.39-4.897c2.662-1.684 5.313-3.445 7.801-5.323 1.258-3.126 2.555-6.242 3.755-9.377l1.683-4.868.842-2.429c.271-.813.484-1.646.726-2.478l1.433-4.945c.484-1.646.793-3.329 1.209-4.994.842-3.329 1.355-6.726 1.994-10.104a134.692 134.692 0 0 0 1.529-20.516 86.565 86.565 0 0 0-2.332-20.478 58.937 58.937 0 0 1 2.438 10.093l.397 2.575.291 2.584c.212 1.722.29 3.455.387 5.197A117.878 117.878 0 0 1 352 114.69Zm-10.287-67.55-1.103-3.9c-5.875 6.803-17.314 12.638-21.543 14.651.319 2.584.532 5.178.706 7.762.813-.445 1.636-.92 2.439-1.403a68.624 68.624 0 0 0 3.242-1.965 85.323 85.323 0 0 0 6.233-4.297 50.068 50.068 0 0 0 5.642-4.955 26.784 26.784 0 0 0 4.384-5.894 99.497 99.497 0 0 1-1.103-3.9l1.103 3.9Zm-30.098 321.251c-.832-1.2-1.664-2.4-2.574-3.552 9.581-2.729 13.8-5.555 15.658-7.606a4.122 4.122 0 0 1 2.197.551 6.386 6.386 0 0 1 1.694 1.442c.502.568.946 1.184 1.326 1.839.236.365.453.743.648 1.132-1.413.378-2.826.765-4.229 1.191a178.557 178.557 0 0 0-5.062 1.568c-1.683.522-3.348 1.122-5.022 1.693a155.584 155.584 0 0 0-4.636 1.742Z" fill="#FDFBF5"/><path d="M338.305 377.093a21.411 21.411 0 0 0-1.18-1.858 10.253 10.253 0 0 0-1.423-1.675 5.63 5.63 0 0 0-1.384-.987c-.039.029-.068.068-.106.097a17.417 17.417 0 0 1-3.658 2.4 25.737 25.737 0 0 1-4.026 1.616c-1.379.429-2.79.743-4.22.939a67.478 67.478 0 0 1-9.329 4.936 78.851 78.851 0 0 1 2.206 3.522c1.926-.764 3.871-1.49 5.817-2.196 2.051-.726 4.113-1.452 6.184-2.11 2.071-.697 4.151-1.316 6.242-1.965 1.829-.532 3.648-1.064 5.487-1.558a39.848 39.848 0 0 0-.61-1.161Zm39.331 7.916s-4.259-4.771-3.407-8.69a11.07 11.07 0 0 0 .319-3.039c-.203-3.126-1.2-8.71-5.7-7.791h-.009c-5.536 4.868-12.969 5.1-19.23 4.016a22.583 22.583 0 0 0 4.694 4.849 9.347 9.347 0 0 0 2.816 1.403c.244.08.493.144.745.194l.745.106c.252.02.503-.009.755 0 .254.008.508-.018.755-.077a6.84 6.84 0 0 0 4.897-3.31 23.625 23.625 0 0 0 2.632-6.223 14.032 14.032 0 0 1-1.326 6.978 8.623 8.623 0 0 1-2.351 2.961 7.207 7.207 0 0 1-3.581 1.51 7.945 7.945 0 0 1-3.842-.397 9.633 9.633 0 0 1-3.194-1.974 13.729 13.729 0 0 1-3.745-6.02 48.719 48.719 0 0 1-8.584-2.361 85.205 85.205 0 0 1-4.191 2.12 9.808 9.808 0 0 1-2.4 3.203 5.317 5.317 0 0 1 1.568.706c.66.424 1.264.928 1.8 1.5a16.152 16.152 0 0 1 1.491 1.771c.473.625.903 1.281 1.287 1.965a.666.666 0 0 1 .082.253.68.68 0 0 1-.344.676.278.278 0 0 1-.096.039l-.068.029c-2.042.764-4.104 1.471-6.165 2.177-2.071.678-4.142 1.374-6.232 1.994-2.081.658-4.171 1.248-6.271 1.839-2.11.58-4.22 1.132-6.349 1.635l-.058.01a.405.405 0 0 1-.465-.232c-.571-1.413-1.132-2.826-1.635-4.268h-.01a52.75 52.75 0 0 1-9.649 3.193 8.412 8.412 0 0 0-6.822 7.762 6.04 6.04 0 0 0 1.403 4.268 5.894 5.894 0 0 0 4.2 1.926c4.471.212 17.081.261 27.707-4.975a21.32 21.32 0 0 1 10.733-1.016c5.884 1.016 40.946-.406 37.095-8.71Zm-10.965.542c-1.345.397-2.7.765-4.065 1.084a115.364 115.364 0 0 1-8.245 1.587c-2.78.449-5.58.756-8.391.92-1.452.058-2.768.038-4.142.145a47.719 47.719 0 0 0-4.074.445 51.356 51.356 0 0 0-7.984 1.829c-2.673.902-5.41 1.6-8.188 2.09a98.87 98.87 0 0 1-16.703 1.491c5.516-.794 11.013-1.733 16.403-2.962a80.401 80.401 0 0 0 3.997-1.054c1.336-.368 2.555-.823 3.92-1.297a50.382 50.382 0 0 1 8.264-2.013 48.1 48.1 0 0 1 4.249-.416c.435-.029.89-.049 1.336-.059-1.849-1.461-1.259-5.235 1.751-5.235 2.991 0 3.581 3.697 1.81 5.187 2.506-.077 5.032-.329 7.558-.571 2.758-.29 5.517-.619 8.265-1.016a95.926 95.926 0 0 0 4.113-.648c.677-.146 1.374-.262 2.032-.446a8.954 8.954 0 0 0 1.007-.271c.336-.092.658-.229.958-.406a13.613 13.613 0 0 1-3.871 1.616Zm-29.372-20.004v-8.361l-2.845-.755h-.01l-8.313-2.187v.01c.019.135.097 1.287-1.433 2.98a3.909 3.909 0 0 1 2.42.029 6.548 6.548 0 0 1 2.168 1.249 12.51 12.51 0 0 1 1.722 1.79c.513.656.972 1.352 1.375 2.081a.74.74 0 0 1-.397 1.055l-.078.029c-1.664.59-3.329 1.18-5.013 1.713a160.543 160.543 0 0 1-5.061 1.577c-1.694.523-3.397.968-5.1 1.452-1.713.435-3.426.871-5.158 1.268l-.078.019a.452.452 0 0 1-.503-.252c-.678-1.451-1.355-2.903-1.955-4.403-2.719.774-5.874 1.548-9.523 2.284a5.34 5.34 0 0 0-3.929 3.232c-.01.039-.029.078-.039.116a5.372 5.372 0 0 0 5.12 7.152h21.639a68.72 68.72 0 0 0 3.997-1.548 40.343 40.343 0 0 0 3.813-1.82 21.247 21.247 0 0 0 3.484-2.303 10.733 10.733 0 0 0 2.652-3.106l.019-.029a.336.336 0 0 1 .165-.146 84.8 84.8 0 0 1 4.587-1.538 39.277 39.277 0 0 1-3.726-1.588Zm-5.468 6.959c-3.745 0-3.736-5.807 0-5.807 3.745 0 3.736 5.807 0 5.807ZM288.257 23.65a20.51 20.51 0 0 0 .918 7.52 27.757 27.757 0 0 0 1.624 3.437c.574 1.22.96 2.52 1.144 3.856.18 1.364.116 2.748-.191 4.088a14.139 14.139 0 0 1-.99 2.88l-.222.456-.165.385a2.037 2.037 0 0 0-.229 1.274c.029.127.1.166.193.254.085.021.138.068.233.093.107.014.193.055.312.06a4.014 4.014 0 0 0 1.522-.168c.456-.12.878-.341 1.235-.65a.95.95 0 0 1 1.513.168 56.662 56.662 0 0 0 2.792 4.27 32.427 32.427 0 0 0 3.184 3.912 12.53 12.53 0 0 0 1.82 1.574c.306.202.629.376.965.522.357.14.725.249 1.101.325a8.523 8.523 0 0 0 4.659-.214 8.028 8.028 0 0 0 3.758-2.806 14.733 14.733 0 0 0 2.281-4.405 42.33 42.33 0 0 0 1.727-10.144c.115 1.739.121 3.483.018 5.222a26.524 26.524 0 0 1-.741 5.223l-.388 1.28-.196.642c-.083.209-.185.411-.277.617l-.569 1.235c-.226.399-.474.785-.743 1.156a9.481 9.481 0 0 1-4.301 3.52 10.233 10.233 0 0 1-5.591.435 8.312 8.312 0 0 1-1.4-.372 7.066 7.066 0 0 1-1.332-.686 14.313 14.313 0 0 1-2.131-1.796 42.843 42.843 0 0 1-6.27-8.58l1.512.168a4.72 4.72 0 0 1-2.11 1.172 5.428 5.428 0 0 1-2.286.185 3.395 3.395 0 0 1-1.268-.452 2.948 2.948 0 0 1-.571-.545 2.131 2.131 0 0 1-.343-.717c-.176-.832-.05-1.7.355-2.448a12.284 12.284 0 0 0 1.771-6.988 13.07 13.07 0 0 0-.815-3.565c-.218-.587-.486-1.11-.758-1.748a12.024 12.024 0 0 1-.614-1.897 18.87 18.87 0 0 1-.136-7.748Z" fill="#FDFBF5"/><path d="M302.775 12.233s-9.84 12.826-16.409 10.81c0 0-11.214-1.352 2.702-10.81 13.917-9.458 14.728-7.971 14.728-7.971s4.323-.27 5.539-1.757c1.216-1.486 16.754-6.35 21.618 7.026a71.17 71.17 0 0 1 0 7.701 38.685 38.685 0 0 1 2.702 18.78s-9.052 2.703-15.267-3.107c0 0-2.702-11.484-7.972-2.972 0 0-5.555 4.188-7.641-17.7Z" fill="#FDFBF5"/><path d="M316.631 37.364c.291-.276.513-.615.648-.992.139-.353.257-.714.352-1.081l.317-1.158a6.95 6.95 0 0 1 .44-1.228c.358.836.42 1.77.175 2.645a3.182 3.182 0 0 1-.657 1.238 1.473 1.473 0 0 1-1.275.576Zm1.757 21.273a5.37 5.37 0 0 0-.611-1.335 7.04 7.04 0 0 0-.898-1.05c-.659-.677-1.432-1.265-2.198-2.033.54.031 1.069.173 1.552.417a4.76 4.76 0 0 1 1.331.932c.404.397.711.882.895 1.418.184.54.158 1.129-.071 1.65Zm15.267-22.624c.466.772.974 1.519 1.52 2.237a38.312 38.312 0 0 0 1.593 1.965c.55.638 1.131 1.259 1.719 1.914.294.327.599.655.894 1.01.323.35.622.723.895 1.116a7.955 7.955 0 0 1-1.425-.328 10.594 10.594 0 0 1-1.309-.605 8.747 8.747 0 0 1-2.238-1.842 7.882 7.882 0 0 1-1.479-2.538 4.91 4.91 0 0 1-.17-2.93Zm-66.74 131.106a4.908 4.908 0 0 0-2.645-3.7 12.77 12.77 0 0 0-4.501-1.499 40.716 40.716 0 0 0-9.548-.152c-1.593.129-3.196.233-4.712.505-.366.06-.729.14-1.086.238-.256.062-.5.166-.721.308a.63.63 0 0 0 .046-.094.378.378 0 0 0 .001-.221c-.033-.07.009.031.103.114.252.221.528.411.824.568a14.814 14.814 0 0 0 4.31 1.553 25.05 25.05 0 0 0 4.729.326l.059.001c.063.001.125.02.177.055.536.28.96.735 1.203 1.288a1.11 1.11 0 0 1-.219 1.073c-.2.22-.442.399-.71.526a4.338 4.338 0 0 1-1.513.437c-.501.068-.994.088-1.485.116-1.964.09-3.914.061-5.865.044-3.902-.055-7.798-.108-11.703-.233l.101-.001a2.568 2.568 0 0 0-.993.407 1.1 1.1 0 0 0-.462.711 3.344 3.344 0 0 0 .668 2.078.752.752 0 0 1-.168.99l-.068.054a1.6 1.6 0 0 0-.509.709.876.876 0 0 0 .111.707 4.803 4.803 0 0 0 1.756 1.47l.236 1.348a1.629 1.629 0 0 0-.08.204.659.659 0 0 0-.014.23.95.95 0 0 0 .311.505 5.09 5.09 0 0 0 1.708.953l.594 1.093c.009-.03 0 .141.021.221.018.104.049.205.093.301.099.212.244.4.423.55.212.181.447.332.699.451.288.125.584.231.886.316l-.241-.038 4.952.158c1.651.048 3.301.138 4.951.212l2.446.13a21.872 21.872 0 0 0 2.344-.152 32.664 32.664 0 0 0 2.381-.351 11.745 11.745 0 0 0 2.174-.567l.083-.034.034-.012a344.247 344.247 0 0 1 6.808-1.889l6.816-1.866-.152.466a46.23 46.23 0 0 1-1.535-2.488 34.231 34.231 0 0 1-1.375-2.57 24.441 24.441 0 0 1-1.133-2.687 10.469 10.469 0 0 1-.61-2.862Zm.193.001c.084.953.3 1.889.642 2.782.326.905.721 1.783 1.181 2.628a34.283 34.283 0 0 0 3.124 4.839.295.295 0 0 1-.131.459l-.02.008-6.629 2.445a371.023 371.023 0 0 1-6.637 2.423l.116-.046c-.832.349-1.698.609-2.585.776-.834.179-1.667.324-2.509.44a19.78 19.78 0 0 1-2.595.211 6.317 6.317 0 0 1-.74-.041l-.524-.011-1.239-.032c-1.651-.044-3.303-.073-4.953-.144l-4.951-.198-.029-.001a.85.85 0 0 1-.212-.037 8.607 8.607 0 0 1-1.211-.473 5.06 5.06 0 0 1-1.154-.796 3.566 3.566 0 0 1-.879-1.251 3.197 3.197 0 0 1-.209-.775c-.043-.297-.037-.6.017-.896l.594 1.093a6.74 6.74 0 0 1-2.359-1.457 2.731 2.731 0 0 1-.782-1.564 2.476 2.476 0 0 1 .531-1.807l.236 1.348a5.99 5.99 0 0 1-2.362-2.238 2.551 2.551 0 0 1-.15-2.006 3.125 3.125 0 0 1 1.175-1.482l-.235 1.043a7.215 7.215 0 0 1-.626-1.433 3.35 3.35 0 0 1-.087-1.757 2.486 2.486 0 0 1 1.117-1.498 3.777 3.777 0 0 1 1.608-.526h.009a.413.413 0 0 1 .093-.001c3.865.381 7.748.727 11.632.848 1.941.059 3.888.07 5.813-.06a6.625 6.625 0 0 0 2.68-.591c.17-.086.32-.208.439-.357a.257.257 0 0 0 .038-.295 1.935 1.935 0 0 0-.844-.714l.235.055a25.684 25.684 0 0 1-4.952.02 14.581 14.581 0 0 1-4.879-1.417 5.786 5.786 0 0 1-1.193-.769 1.989 1.989 0 0 1-.6-.857 1.345 1.345 0 0 1 .004-.816 1.46 1.46 0 0 1 .376-.594 3.503 3.503 0 0 1 1.439-.744c.421-.121.848-.219 1.279-.295a34.09 34.09 0 0 1 4.944-.372 37.43 37.43 0 0 1 9.767 1.035 15.38 15.38 0 0 1 4.523 1.923 5.379 5.379 0 0 1 2.664 3.975Z" fill="#FDFBF5"/><path d="M251.641 172.603a47.183 47.183 0 0 1-9.716.96 36.39 36.39 0 0 1-4.893-.312 15.32 15.32 0 0 1-4.731-1.287c1.582.314 3.188.493 4.801.535 1.605.07 3.213.108 4.825.097 3.225.018 6.452-.067 9.714.007Zm-17.993 3.668c2.829-.048 5.619.15 8.406.346l4.172.334c.695.056 1.39.108 2.084.14a8.294 8.294 0 0 0 2.082-.059 11.28 11.28 0 0 1-4.185.674c-1.414.043-2.822-.026-4.225-.124a49.108 49.108 0 0 1-8.334-1.311Zm2.268 3.359a45.663 45.663 0 0 1 7.055-.169c2.347.082 4.684.348 6.99.797a51.383 51.383 0 0 1-14.045-.628Z" fill="#FDFBF5"/><path d="m317.238 130.582-.232.465v-.252c.077-.068.155-.145.232-.213Zm21.572 22.907-.262.329c.03-.068.049-.126.078-.193.058-.049.126-.087.184-.136Z" fill="#fff"/><path d="m367.947 188.042 1.232 7.042c.407 2.349.686 4.718 1.035 7.078.18 1.18.32 2.364.439 3.552l.378 3.56c.248 2.375.343 4.764.522 7.147.239 4.788.178 9.585-.183 14.365a52.048 52.048 0 0 1-1.123 7.15 28.248 28.248 0 0 1-1.027 3.513 16.13 16.13 0 0 1-.72 1.717c-.132.29-.28.571-.445.843a5.8 5.8 0 0 1-.587.868l.202-.568c.557 9.592 1.22 19.179 1.689 28.776l.755 14.392.651 14.399c.454 9.598.814 19.201 1.344 28.794l.75 14.393.86 14.387a.367.367 0 0 1-.036.172 20.246 20.246 0 0 1-4.586 6.149.364.364 0 0 1-.241.094h-.017l.248-.094a19.362 19.362 0 0 1-3.488 2.427 20.82 20.82 0 0 1-3.961 1.543 26.374 26.374 0 0 1-8.414.735 41.41 41.41 0 0 1-8.307-1.416 49.308 49.308 0 0 1-7.938-2.883.677.677 0 0 1-.386-.602v-.028l-.074-9.726 1.038.736c-.98.351-2 .576-3.036.671l-.055.003h-.022l.063-.002a15.152 15.152 0 0 1-8.817-2.236.845.845 0 0 1-.421-.727v-.022l.42.739a18.076 18.076 0 0 1-.977-.62l-.475-.339c-.16-.121-.303-.23-.48-.379a.843.843 0 0 1-.296-.569l-.002-.019-3.377-38.976-3.163-38.994-2.92-39.015-1.382-19.513-1.283-19.522a.105.105 0 0 1 .023-.07.098.098 0 0 1 .136-.011c.019.016.032.04.034.065l1.942 19.467 1.844 19.476 3.529 38.964 3.288 38.983 3.073 39.002-.298-.588.381.304.417.305c.283.198.573.389.87.57l.012.007a.847.847 0 0 1 .408.733v.009l-.421-.74a13.503 13.503 0 0 0 7.81 2.119h.012l.05-.002h.01l-.067.003a10.84 10.84 0 0 0 2.654-.548l.012-.004a.781.781 0 0 1 .833.221.777.777 0 0 1 .193.519l-.073 9.726-.387-.63a47.98 47.98 0 0 0 7.634 2.953 40.2 40.2 0 0 0 8.046 1.549 25.37 25.37 0 0 0 8.111-.555 19.923 19.923 0 0 0 3.808-1.402 18.625 18.625 0 0 0 3.372-2.255l.011-.009a.364.364 0 0 1 .238-.085h.009l-.248.094a18.991 18.991 0 0 0 4.472-5.89l-.035.171-.762-14.392-.871-14.386c-.55-9.592-1.271-19.175-1.898-28.763l-.97-14.381-.865-14.386c-.612-9.589-1.03-19.189-1.553-28.783a.766.766 0 0 1 .154-.506l.048-.062c.311-.421.579-.871.801-1.345.254-.509.479-1.034.672-1.569a26.468 26.468 0 0 0 1.003-3.33 56.78 56.78 0 0 0 1.176-6.94c.456-4.713.617-9.449.482-14.182a237.71 237.71 0 0 0-.959-14.218c-.27-2.362-.469-4.735-.797-7.092l-.942-7.079a.104.104 0 0 1 .017-.072.099.099 0 0 1 .063-.039.098.098 0 0 1 .071.017.1.1 0 0 1 .04.062Z" fill="#FDFBF5"/><path d="M322.313 198.335c.841 6.542 1.56 13.095 2.343 19.642l2.142 19.66c1.408 13.109 2.642 26.234 3.972 39.351 1.174 13.131 2.431 26.254 3.527 39.393l1.605 19.711c.464 6.578.995 13.149 1.401 19.731-.843-6.541-1.561-13.094-2.346-19.641l-2.143-19.66c-1.402-13.109-2.644-26.234-3.968-39.351-1.169-13.132-2.433-26.254-3.523-39.393l-1.606-19.712c-.466-6.577-.997-13.148-1.404-19.731Zm37.375-7.623a63.606 63.606 0 0 1 1.185 4.896c.341 1.639.649 3.282.907 4.931.281 1.646.495 3.3.721 4.953.193 1.657.404 3.312.543 4.976l-.382-.624c.716.533 1.447 1.043 2.149 1.596.705.549 1.423 1.078 2.114 1.647a66.51 66.51 0 0 1 4.086 3.503 66.268 66.268 0 0 1-4.761-2.509c-.784-.433-1.541-.905-2.31-1.359-.773-.449-1.516-.941-2.275-1.41a.804.804 0 0 1-.369-.548l-.013-.076c-.273-1.648-.475-3.304-.694-4.957-.186-1.658-.385-3.315-.517-4.98-.154-1.661-.259-3.33-.33-5.002a64.021 64.021 0 0 1-.054-5.037Zm-17.284 4.688c.817 7.257 1.511 14.524 2.271 21.785l2.069 21.802c1.359 14.536 2.545 29.087 3.826 43.63 1.125 14.555 2.333 29.104 3.379 43.666l1.532 21.846c.44 7.288.946 14.57 1.328 21.863-.819-7.257-1.513-14.523-2.274-21.785l-2.069-21.802c-1.355-14.536-2.547-29.086-3.823-43.63-1.12-14.556-2.335-29.104-3.376-43.666l-1.533-21.846c-.441-7.288-.947-14.57-1.33-21.863ZM289.69 29.266a5.956 5.956 0 0 1 1.773-.848 8.014 8.014 0 0 1 1.94-.345 6.673 6.673 0 0 1 1.985.212c.652.174 1.249.511 1.734.98a16.064 16.064 0 0 0-1.861-.235 21.669 21.669 0 0 0-1.815.009c-1.22.048-2.436.194-3.756.227Zm4.985 5.091a1.455 1.455 0 0 0 0-2.903 1.45 1.45 0 0 0-.994 2.46c.261.272.618.43.994.443Zm11.608 15.739a3.77 3.77 0 0 1-3.509 3.75 3.761 3.761 0 0 1-3.964-4.33 3.759 3.759 0 0 1 7.473.58Zm0 0a3.256 3.256 0 0 0-1.04-2.4 3.267 3.267 0 0 0-2.469-.865 3.274 3.274 0 0 0-2.772 4.552 3.27 3.27 0 0 0 3.85 1.88 3.275 3.275 0 0 0 1.356-.733 3.326 3.326 0 0 0 1.075-2.434Zm-169.36 32.95a3.564 3.564 0 0 1-.359-.03c.03-.066.056-.134.078-.203l.281.232Zm13.142-11.672a11.793 11.793 0 0 0-.407-3.416l.494.377c.039 1.014.01 2.029-.087 3.039Zm-1.636 24.6c.155 1.626.291 3.252.397 4.878l-.842-9.387c.184 1.5.3 3 .445 4.51Z" fill="#FDFBF5"/><path d="M156.888 76.126c-.261-1.559-.774-3.243-6.678-7.752a23.02 23.02 0 0 1 .194 4.239 50.208 50.208 0 0 1-.445 4.654c-.194 1.549-.513 3.078-.833 4.607-.3 1.403-.677 2.787-1.045 4.18-.019.059-.029.107-.048.165.044.11.08.224.106.34.01 0 .01.009.01.019.019.038.029.087.048.135.049.213.107.416.145.629.088.407.155.813.213 1.23.126.812.223 1.635.31 2.447a92.88 92.88 0 0 1 .329 4.907c.058 1.636.097 3.271.116 4.907 0 1.626 0 3.261-.058 4.897 7.771 1.742 14.333-3.62 14.333-3.62l-6.697-25.984Zm-5.042 28.597a1.452 1.452 0 0 1 0-2.903 1.448 1.448 0 0 1 1.4 1.452 1.453 1.453 0 0 1-1.4 1.451Zm4.761-.929a1.45 1.45 0 0 1 0-2.903 1.452 1.452 0 0 1 0 2.903Zm4.878-1.626a1.452 1.452 0 0 1 0-2.903 1.452 1.452 0 0 1 0 2.903Zm-21.346-53.507c.343 1.444.497 2.847.703 4.235a29.3 29.3 0 0 0 .36 2.045c.118.686.397 1.334.812 1.892a2.86 2.86 0 0 1-1.525-1.645 8.533 8.533 0 0 1-.604-2.153 10.686 10.686 0 0 1 .254-4.374Zm19.559 1.184a1.455 1.455 0 0 0 1.402-1.452 1.454 1.454 0 0 0-1.402-1.451 1.45 1.45 0 0 0-1.402 1.451 1.451 1.451 0 0 0 1.402 1.452Zm-17.684-7.053a1.453 1.453 0 0 0 0-2.903 1.45 1.45 0 0 0-.994 2.46c.261.271.618.43.994.443Zm20.261 12.845a1.087 1.087 0 0 0 1.051-1.089 1.086 1.086 0 0 0-1.051-1.088 1.088 1.088 0 0 0-.746 1.845c.196.203.463.322.746.332Zm-6.596 1.196c.746.607 1.316 1.208 1.935 1.745.303.272.619.51.948.751.367.237.746.454 1.136.65a2.28 2.28 0 0 1-1.447.038 3.587 3.587 0 0 1-1.275-.712 4.24 4.24 0 0 1-.883-1.117 3.173 3.173 0 0 1-.414-1.355Zm1.206-13.128a5.442 5.442 0 0 1 1.841.052 6.974 6.974 0 0 1 1.76.56 5.367 5.367 0 0 1 1.542 1.08c.46.447.77 1.026.885 1.657a8.498 8.498 0 0 0-1.364-1.073 13.952 13.952 0 0 0-1.479-.79c-1.018-.5-2.088-.905-3.185-1.486Zm-31.606 67.858a106.172 106.172 0 0 0 2.744 18.736 29.737 29.737 0 0 0 1.51 4.412 8.224 8.224 0 0 0 2.6 3.534 509.63 509.63 0 0 0 7.705 5.546c5.179 3.638 10.453 7.145 15.887 10.355 2.724 1.592 5.457 3.163 8.275 4.542a36.41 36.41 0 0 0 8.69 3.202l-.131-.011c1.34.011 2.702-.008 4.037-.086a22.539 22.539 0 0 0 1.968-.192 4.97 4.97 0 0 0 .859-.196l.09-.028.148-.057c.097-.041.197-.074.298-.102.199-.056.401-.098.606-.124a7.486 7.486 0 0 1 2.234.15c.695.131 1.362.293 2.027.448a65.47 65.47 0 0 0 3.979.832c1.341.246 2.689.484 4.036.772 1.394.239 2.75.66 4.034 1.252a2.1 2.1 0 0 1 .507.402c.095.11.167.239.209.379.026.094.046.19.061.287.068.354.109.714.123 1.075a3.448 3.448 0 0 1-.601 2.177 3.913 3.913 0 0 1-1.82 1.291 8.688 8.688 0 0 1-2.084.453 40.925 40.925 0 0 1-4.129.131c-.683-.004-1.368-.026-2.027.004-.66.037-1.312.131-1.369.65a1.857 1.857 0 0 0-.027.434c.006.126.041.25.103.36.157.262.36.493.6.682a9.92 9.92 0 0 0 1.67 1.067 32.354 32.354 0 0 0 3.718 1.609c1.256.496 2.55.889 3.869 1.178a35.22 35.22 0 0 0 3.989.687c.324.033.65.046.976.038a3.977 3.977 0 0 1 1.11.069c.771.147 1.461.57 1.942 1.189.25.345.387.758.394 1.183a2.53 2.53 0 0 1-.313 1.172 5.57 5.57 0 0 1-1.475 1.646l.082-.617c.312.422.565.884.752 1.374.205.512.292 1.064.253 1.615a2.567 2.567 0 0 1-.729 1.568 4.049 4.049 0 0 1-1.381.876l.309-.61c.126.498.163 1.015.109 1.525a2.988 2.988 0 0 1-.575 1.504 2.796 2.796 0 0 1-1.344.933 4.753 4.753 0 0 1-1.496.237.43.43 0 0 1-.088-.006l-.019-.004-3.626-.619.564-1.072c.269.267.501.57.69.899.111.195.193.405.242.624.07.305.029.625-.115.903a1.703 1.703 0 0 1-1.276.786c-.36.058-.724.08-1.089.067a.56.56 0 0 1-.146-.021l-.021-.006a90.428 90.428 0 0 1-5.655-1.85 98.772 98.772 0 0 1-5.536-2.176 48.767 48.767 0 0 1-10.474-5.845l.176.109c-8.407-3.869-16.862-7.762-25.394-11.198-.533-.219-1.062-.395-1.593-.595-.269-.104-.514-.16-.771-.244l-.85-.257c-1.197-.386-2.261-.825-3.347-1.281a201.76 201.76 0 0 1-6.389-2.847c-4.215-1.97-8.398-3.997-12.529-6.136a271.32 271.32 0 0 1-6.149-3.305 28.565 28.565 0 0 1-5.883-4.028 25.765 25.765 0 0 1-7.562-11.953 150.263 150.263 0 0 1-4.622-27.498.096.096 0 0 1 .051-.094.092.092 0 0 1 .036-.011.097.097 0 0 1 .07.022c.02.015.032.038.035.063.635 4.592 1.43 9.162 2.355 13.696.87 4.533 1.992 9.014 3.362 13.422a24.869 24.869 0 0 0 7.366 11.115 26.84 26.84 0 0 0 5.643 3.7 241.914 241.914 0 0 0 6.168 3.166 397.393 397.393 0 0 0 12.492 6.037c2.101.962 4.211 1.908 6.331 2.791 1.053.439 2.14.874 3.151 1.195l.816.244c.295.092.615.173.888.277.555.206 1.128.395 1.668.615 4.372 1.698 8.572 3.661 12.807 5.576a952.394 952.394 0 0 1 12.616 5.904.9.9 0 0 1 .168.103l.008.007a49.726 49.726 0 0 0 10.009 5.77 108.172 108.172 0 0 0 10.928 4.186l-.168-.028c.27.018.54.011.808-.022.247-.02.397-.146.339-.086-.01.104.019-.071-.104-.281a3.09 3.09 0 0 0-.447-.618l-.023-.024a.633.633 0 0 1 .587-1.049l3.608.721-.106-.01a2.45 2.45 0 0 0 1.983-.679c.214-.277.347-.608.385-.956a3.39 3.39 0 0 0-.048-1.132l-.008-.034a.496.496 0 0 1 .318-.576 2.029 2.029 0 0 0 1.53-1.589 3.758 3.758 0 0 0-.76-2.356l-.014-.02a.44.44 0 0 1 .096-.596c.511-.36.947-.816 1.281-1.344a1.35 1.35 0 0 0 .01-1.51c-.362-.473-.88-.8-1.462-.922a2.962 2.962 0 0 0-.924-.067 8.1 8.1 0 0 1-1.068-.05 35.314 35.314 0 0 1-4.07-.737 18.048 18.048 0 0 1-2.006-.542 55.204 55.204 0 0 1-1.939-.696 33.03 33.03 0 0 1-3.776-1.676 10.514 10.514 0 0 1-1.763-1.151 3.076 3.076 0 0 1-.747-.844 1.423 1.423 0 0 1-.18-.614 2.43 2.43 0 0 1 .033-.584 1.25 1.25 0 0 1 .829-.961 3.857 3.857 0 0 1 1.096-.196c.704-.04 1.385-.025 2.066-.029 1.357-.002 2.721-.041 4.05-.176a4.77 4.77 0 0 0 3.37-1.485 2.605 2.605 0 0 0 .428-1.704 6.498 6.498 0 0 0-.14-.953 1.678 1.678 0 0 0-.051-.212l-.043-.061a1.392 1.392 0 0 0-.305-.216 15.793 15.793 0 0 0-3.799-1.034c-1.332-.242-2.678-.439-4.029-.644a65.827 65.827 0 0 1-4.06-.723 13.208 13.208 0 0 0-3.821-.461 2.804 2.804 0 0 0-.393.093 1.186 1.186 0 0 0-.183.069l-.241.095c-.364.136-.74.237-1.123.301a23.63 23.63 0 0 1-2.099.268 61.768 61.768 0 0 1-4.145.21.56.56 0 0 1-.108-.007l-.023-.004a25.392 25.392 0 0 1-4.721-1.34c-1.52-.559-2.986-1.221-4.436-1.908-2.885-1.4-5.705-2.911-8.424-4.579-5.455-3.309-10.715-6.895-15.876-10.61a212.195 212.195 0 0 1-7.625-5.734 6.934 6.934 0 0 1-.962-.866 8.333 8.333 0 0 1-.775-1.028 13.59 13.59 0 0 1-1.141-2.206 30.807 30.807 0 0 1-1.441-4.625 68.637 68.637 0 0 1-1.453-9.458 109.018 109.018 0 0 1-.488-9.523.097.097 0 0 1 .096-.097.1.1 0 0 1 .097.092Z" fill="#FDFBF5"/><path d="M160.638 103.959c1.897 4.152 3.908 8.219 5.974 12.257 2.091 4.023 4.203 8.03 6.461 11.957a238.57 238.57 0 0 0 3.407 5.878l1.736 2.923 1.782 2.896c2.359 3.878 4.861 7.663 7.273 11.548a111.19 111.19 0 0 1-8.533-10.715 137.18 137.18 0 0 1-7.349-11.577 134.384 134.384 0 0 1-6.136-12.266 87.021 87.021 0 0 1-4.615-12.901Zm-17.169 14.498a418.637 418.637 0 0 1 7.694 10.172c2.524 3.413 5.001 6.855 7.491 10.283 2.494 3.426 4.981 6.854 7.525 10.23 1.277 1.684 2.555 3.365 3.898 4.987a49.382 49.382 0 0 0 2.057 2.384 14.787 14.787 0 0 0 2.268 2.099l.036.024a.245.245 0 0 1 .086.105 126.436 126.436 0 0 1 1.525 3.818 121.502 121.502 0 0 1-2.061-3.557l.121.129a22.316 22.316 0 0 1-4.988-4.148 86.503 86.503 0 0 1-4.259-4.797c-2.723-3.289-5.288-6.692-7.756-10.16a244.436 244.436 0 0 1-7.13-10.585 186.98 186.98 0 0 1-6.507-10.984Zm42.754 60.421c2.656.669 5.243 1.407 7.859 2.038 1.306.318 2.617.597 3.936.857 1.323.229 2.648.445 4.014.588a20.494 20.494 0 0 1-8.178-.505 29.663 29.663 0 0 1-7.631-2.978Zm-1.395 3.501c1.334.531 2.667 1.021 3.992 1.515 1.331.478 2.662.941 4.008 1.348 1.341.43 2.705.763 4.074 1.086 1.376.301 2.765.529 4.192.722a16.996 16.996 0 0 1-4.317.023 24.783 24.783 0 0 1-4.232-.906 26.196 26.196 0 0 1-7.717-3.788Zm-1.105 2.337a58.463 58.463 0 0 1 5.525 2.502l2.681 1.356c.898.445 1.784.899 2.734 1.289a9.554 9.554 0 0 1-3.023-.591 21.925 21.925 0 0 1-2.825-1.189 24.01 24.01 0 0 1-5.092-3.367Zm-46.442-50.506c.215 1.356.249 2.735.101 4.101a15.34 15.34 0 0 1-.861 4.01 15.383 15.383 0 0 1-.102-4.1c.109-1.369.398-2.718.862-4.011Zm-3.117-83.952a93.838 93.838 0 0 1-10.393 5.215c-3.532 1.58-7.107 3.053-10.696 4.485-7.205 2.43-13.176 7.491-18.194 13.322-4.979 5.89-8.81 12.645-12.353 19.46a287.019 287.019 0 0 0-5.122 10.336 218.213 218.213 0 0 0-2.368 5.258c-.781 1.75-1.55 3.524-2.26 5.283l.063-.53-.01-.057.02.053c.02.052.044.103.073.151.065.121.138.238.217.351.184.254.386.495.604.721.473.482.973.936 1.498 1.36a31.07 31.07 0 0 0 3.472 2.398c1.226.722 2.45 1.476 3.726 2.146l3.825 2.06c.023.011.04.032.048.056a.1.1 0 0 1-.006.075.097.097 0 0 1-.113.048c-1.4-.4-2.798-.822-4.163-1.341-1.363-.519-2.732-1.053-4.05-1.709a32.549 32.549 0 0 1-3.867-2.23 13.231 13.231 0 0 1-1.791-1.468 8.566 8.566 0 0 1-.82-.913 5.359 5.359 0 0 1-.375-.558 2.614 2.614 0 0 1-.173-.333 1.772 1.772 0 0 1-.082-.198 1.71 1.71 0 0 1-.085-.317.907.907 0 0 1 .05-.501l.013-.03c1.468-3.624 3.094-7.131 4.834-10.604 1.724-3.474 3.544-6.901 5.511-10.245A172.836 172.836 0 0 1 94.395 72.88a66.128 66.128 0 0 1 7.902-8.592 30.298 30.298 0 0 1 4.764-3.511 31.8 31.8 0 0 1 5.392-2.413l10.827-4.09 5.417-2.035c1.803-.674 3.622-1.359 5.36-2.141l.018-.008a.098.098 0 0 1 .071-.004.094.094 0 0 1 .053.046.09.09 0 0 1 .008.07.093.093 0 0 1-.042.057ZM68.136 124.55a46.331 46.331 0 0 0-3.922 5.595l-1.724 2.958-1.593 3.029c-.549 1-.987 2.058-1.486 3.084-.47 1.04-1.001 2.05-1.419 3.113l-1.31 3.161a54.596 54.596 0 0 0-1.253 3.184l-1.185 3.209c-.4 1.069-.798 2.137-1.127 3.23-.69 2.175-1.407 4.341-2.072 6.522l-1.806 6.602a50.5 50.5 0 0 0-.83 3.32l-.764 3.336c-1.088 4.432-1.87 8.931-2.742 13.41l-.322 1.68-.256 1.693-.512 3.385-1.02 6.77c-.497 4.538-1.05 9.072-1.502 13.612l-1.06 13.635a321.812 321.812 0 0 1-.82 13.74c-.357 4.574-.837 9.142-1.51 13.69a98.273 98.273 0 0 1-2.84 13.505 596.264 596.264 0 0 0-3.515 13.257c-1.11 4.435-2.17 8.882-3.11 13.355l-2.707 13.456-2.691 13.463-2.612 13.477-.17-.355a130.42 130.42 0 0 0 27.607 9.339 153.056 153.056 0 0 0 28.906 3.731c4.86.174 9.723.034 14.57-.267 4.846-.334 9.666-.948 14.452-1.751a141.844 141.844 0 0 0 27.96-7.899l-.607.894-.066-21.884.026-21.884c.024-14.589.008-29.178.116-43.767l.291-43.768c.107-14.589.305-29.178.498-43.767a.097.097 0 0 1 .194 0c.194 14.589.391 29.178.498 43.767l.291 43.768c.108 14.589.093 29.178.116 43.767l.026 21.884-.066 21.884v.009a.957.957 0 0 1-.607.885 143.642 143.642 0 0 1-28.381 7.831c-4.856.755-9.742 1.307-14.645 1.58-4.904.239-9.816.314-14.718.073a153.363 153.363 0 0 1-29.073-4.151c-4.76-1.156-9.472-2.509-14.095-4.124a115.743 115.743 0 0 1-13.599-5.566.33.33 0 0 1-.17-.356c1.8-8.973 3.564-17.954 5.293-26.942 1.745-8.979 3.395-17.996 5.507-26.916a542.936 542.936 0 0 1 3.288-13.342 96.785 96.785 0 0 0 2.58-13.387c1.118-9.042 1.766-18.17 2.081-27.285a309.826 309.826 0 0 1 7.763-54.45l.823-3.342c.262-1.116.552-2.226.89-3.324l1.924-6.61c.706-2.184 1.463-4.351 2.192-6.527.35-1.093.768-2.162 1.188-3.23l1.245-3.21c.395-1.077.858-2.128 1.336-3.172l1.406-3.143c.449-1.055 1.013-2.059 1.514-3.091.53-1.018.998-2.066 1.578-3.058l1.687-3 1.814-2.924a46.595 46.595 0 0 1 4.106-5.524.098.098 0 0 1 .168.059.095.095 0 0 1-.023.069l-.004.005Z" fill="#FDFBF5"/><path d="M70.664 124.487c.295-1.68.77-3.324 1.414-4.903a23.655 23.655 0 0 1 2.313-4.548 23.683 23.683 0 0 1-1.413 4.903 23.932 23.932 0 0 1-2.314 4.548Zm56.832-30.246c1.726-2.302 3.43-4.563 5.042-6.88 1.598-2.325 3.136-4.679 4.539-7.113 1.439-2.413 2.736-4.907 3.988-7.435 1.238-2.538 2.379-5.128 3.551-7.756a39.929 39.929 0 0 1-2.162 8.349 49.376 49.376 0 0 1-8.725 14.874 40.128 40.128 0 0 1-6.233 5.96Z" fill="#FDFBF5"/><path d="M68.063 124.487c2.622.03 5.243-.129 7.842-.477a42.747 42.747 0 0 0 7.529-1.693 36.856 36.856 0 0 0 7.082-3.005 57.111 57.111 0 0 0 6.584-4.276 24.24 24.24 0 0 1-5.793 5.562 27.613 27.613 0 0 1-3.499 2.075 33.452 33.452 0 0 1-3.792 1.489 28.776 28.776 0 0 1-7.991 1.348 23.893 23.893 0 0 1-7.962-1.023Zm66.043 41.157v159.847l-3.465-3.697a.116.116 0 0 0-.077-.038.125.125 0 0 0-.051-.002.133.133 0 0 0-.047.021.122.122 0 0 0-.048.087l-1.442 7.346-4.684-5.304a.278.278 0 0 0-.128-.081.277.277 0 0 0-.28.08.283.283 0 0 0-.066.137l-1.51 7.558-4.461-6a.359.359 0 0 0-.164-.126.381.381 0 0 0-.504.213l-3.377 8.226-4.326-7.065a.55.55 0 0 0-.261-.203.49.49 0 0 0-.62.31l-2.758 8.274-4.471-7.394a.48.48 0 0 0-.242-.213.512.512 0 0 0-.668.281l-3.435 8.323-4.868-8.362a.464.464 0 0 0-.441-.228.46.46 0 0 0-.392.306l-3.106 8.535-4.268-8.7a.36.36 0 0 0-.32-.202.356.356 0 0 0-.252.105.346.346 0 0 0-.076.117l-3.504 8.68-3.91-9.058a.27.27 0 0 0-.116-.116.219.219 0 0 0-.09-.026.225.225 0 0 0-.092.011.246.246 0 0 0-.081.046.237.237 0 0 0-.056.075l-4.23 8.507-3.6-9.068a.122.122 0 0 0-.067-.068.143.143 0 0 0-.11-.014.138.138 0 0 0-.084.073l-4.238 7.897-2.962-8.614a.25.25 0 0 0-.106-.135.24.24 0 0 0-.18-.018.241.241 0 0 0-.14.115l-3.929 6.958-2.942-7.829a.398.398 0 0 0-.305-.244.374.374 0 0 0-.283.074.369.369 0 0 0-.099.112l-3.542 5.874-2.1-7.481a.422.422 0 0 0-.194-.252.443.443 0 0 0-.6.146l-3.445 5.845-1.79-7.152a.445.445 0 0 0-.136-.203.383.383 0 0 0-.13-.07.387.387 0 0 0-.29.032.374.374 0 0 0-.112.096l-4.51 5.449-1.587-7.007a.278.278 0 0 0-.087-.165.29.29 0 0 0-.407.029l-4.519 5.188-1.878-6.881a.12.12 0 0 0-.038-.078.141.141 0 0 0-.101-.03.152.152 0 0 0-.051.015.147.147 0 0 0-.042.035l-3.87 5.013 4.867-24.775c2.042-10.384 4.616-20.652 7.375-30.872 3.667-13.52 4.403-39.195 4.403-39.195a353.936 353.936 0 0 1 4.074-36.698l.368-2.148s48.03-2.294 68.954-35.043l21.32 10.819Z" fill="#FDFBF5"/><path d="M34.648 327.601a143.71 143.71 0 0 1-5.613-1.752l4.258-4.742 1.355 6.494Zm1.848.542c-.222-.068-.445-.126-.667-.194l4.103-4.897 1.587 6.494c-1.674-.445-3.358-.91-5.023-1.403Zm11.294 3a312.887 312.887 0 0 1-4.916-1.229l3.097-5.158 1.82 6.387Zm2.7.639a56.783 56.783 0 0 1-1.19-.281l3.136-5.294 2.593 6.552c-1.52-.31-3.029-.639-4.539-.977Zm12.04 2.38a187.502 187.502 0 0 1-6.05-1.113l3.417-6.29 2.632 7.403Zm2.138.339a31.86 31.86 0 0 1-.958-.155l3.755-7.094 3.136 8.091a201.996 201.996 0 0 1-5.933-.842Zm14.314 1.684a135.718 135.718 0 0 1-7.114-.678l3.775-7.442 3.406 8.12h-.067Zm8.351.406a134.2 134.2 0 0 1-6.822-.309l3.135-7.481 3.687 7.79Zm6.04-.009a107.99 107.99 0 0 1-4.298.029l2.768-7.433 4.2 7.307c-.89.039-1.78.077-2.67.097Zm11.603-.852c-2.303.281-4.616.494-6.939.639l2.981-7.152 3.958 6.513Zm2.729-.358c-.3.039-.61.087-.91.126l2.4-7.249 3.842 6.146c-1.771.367-3.548.693-5.332.977Zm14.033-3.223a90.595 90.595 0 0 1-7.017 1.868l2.923-7.413 4.21 5.507c-.039.009-.078.029-.116.038Zm6.958-2.584a76.08 76.08 0 0 1-5.749 2.188l1.317-7.065 4.432 4.877ZM28.28 325.607a183.267 183.267 0 0 1-5.516-1.926l3.89-4.761 1.626 6.687Zm105.826.078v1.393a86.613 86.613 0 0 1-4.694 2.178l1.22-7.104 3.474 3.533Z" fill="#FDFBF5"/><path d="M129.307 329.817a.244.244 0 0 1-.194.107h-.009a84.076 84.076 0 0 1-7.065 3.126 91.783 91.783 0 0 1-14.081 3.803 110.836 110.836 0 0 1-14.526 1.558c-4.867.155-9.738.058-14.594-.29a166.534 166.534 0 0 1-28.704-4.878 173.065 173.065 0 0 1-21.514-7.045h-.01a.216.216 0 0 1-.145-.058l-.01-.01a138.37 138.37 0 0 1-5.69-2.448l-.01.009a.028.028 0 0 1-.008.012.023.023 0 0 1-.012.008.036.036 0 0 1-.028 0l-2.604 13.248s53.325 27.863 114.004 3.755v-13.539a64.063 64.063 0 0 1-4.8 2.642Zm-104.684 6.416a1.45 1.45 0 0 1-1.4-1.451 1.454 1.454 0 0 1 1.4-1.452 1.454 1.454 0 0 1 .993 2.46 1.45 1.45 0 0 1-.993.443Zm7.49 2.962a1.455 1.455 0 0 1-.993-2.461c.261-.27.617-.429.994-.442a1.453 1.453 0 0 1 0 2.903Zm8.014 2.961a1.45 1.45 0 0 1-1.401-1.451 1.452 1.452 0 0 1 1.4-1.452 1.45 1.45 0 0 1 1.402 1.452 1.45 1.45 0 0 1-1.401 1.451Zm8.361 2.613a1.45 1.45 0 0 1-1.4-1.451 1.452 1.452 0 0 1 1.4-1.452 1.45 1.45 0 0 1 1.401 1.452 1.452 1.452 0 0 1-1.4 1.451Zm8.884 1.742a1.45 1.45 0 0 1-1.4-1.451 1.453 1.453 0 0 1 1.4-1.452 1.45 1.45 0 0 1 1.402 1.452 1.45 1.45 0 0 1-1.402 1.451Zm9.059 1.045a1.45 1.45 0 0 1-1.401-1.451 1.452 1.452 0 0 1 1.4-1.452 1.454 1.454 0 0 1 .994 2.46 1.45 1.45 0 0 1-.993.443Zm9.232.523a1.45 1.45 0 0 1-1.4-1.452 1.45 1.45 0 0 1 1.4-1.451 1.45 1.45 0 0 1 .994 2.46 1.45 1.45 0 0 1-.994.443Zm9.93 0a1.45 1.45 0 0 1-1.401-1.452 1.45 1.45 0 0 1 1.4-1.451 1.45 1.45 0 0 1 .994 2.46 1.45 1.45 0 0 1-.993.443Zm10.8 0a1.45 1.45 0 0 1-1.4-1.452 1.45 1.45 0 0 1 1.4-1.451 1.45 1.45 0 0 1 1.401 1.451 1.452 1.452 0 0 1-1.401 1.452Zm9.581-1.045a1.455 1.455 0 0 1-.994-2.461c.262-.27.618-.429.994-.443a1.455 1.455 0 0 1 .994 2.461c-.262.271-.618.43-.994.443Zm10.103-2.265a1.448 1.448 0 0 1-1.4-1.451 1.454 1.454 0 0 1 1.4-1.452 1.45 1.45 0 0 1 0 2.903Zm8.014-2.264a1.455 1.455 0 0 1-.994-2.461 1.46 1.46 0 0 1 .994-.443 1.453 1.453 0 0 1 0 2.904Zm8.187-2.439a1.455 1.455 0 0 1-.994-2.461c.262-.27.618-.429.994-.442.376.013.732.172.994.442a1.455 1.455 0 0 1 0 2.018c-.262.271-.618.43-.994.443Zm15.504-256.092-.039-.252.039.252Zm1.258 19.317-.213-2.439a166.883 166.883 0 0 0-.397-4.877c-.145-1.51-.261-3.01-.445-4.51-.01-.116-.02-.233-.039-.349a48.963 48.963 0 0 0-.329-2.4c-.068-.396-.126-.793-.222-1.17-.039-.204-.088-.388-.136-.572l-.077-.27a.563.563 0 0 1-.049-.155l-.029-.165c-5.865 20.255-18.929 46.54-18.929 46.54 2.38 1.742 13.306 1.21 13.306 1.21-.89-2.574-.116-8.391.504-12.02a9.118 9.118 0 0 1 2.245-4.616 22.952 22.952 0 0 0 4.035-6.678c.487-2.192.769-4.424.842-6.668v-.029c-.029-.28-.048-.551-.067-.832Zm-15.891 28.956a1.455 1.455 0 0 1-.994-2.461c.262-.27.618-.429.994-.443a1.457 1.457 0 0 1 1.401 1.452 1.452 1.452 0 0 1-1.401 1.452Zm4.878 0a1.457 1.457 0 0 1-1.402-1.452 1.456 1.456 0 0 1 1.402-1.452 1.453 1.453 0 0 1 0 2.904Zm4.364-12.717a5.452 5.452 0 0 1-1.355.697 4.285 4.285 0 0 1-1.539.242 2.368 2.368 0 0 1-1.471-.513 9.976 9.976 0 0 0 2.701-.648 28.52 28.52 0 0 1 2.738-.852c-.284.425-.649.79-1.074 1.074Zm5.691-33.475c-.02.058-.029.106-.049.164.045.11.08.224.107.34-.02-.175-.039-.35-.058-.504ZM149.181 127c-.015 2.012-.136 3.981-.28 5.942l-.439 5.85c-.145 1.942-.295 3.879-.349 5.815a39.88 39.88 0 0 0 .156 5.865 15.003 15.003 0 0 1-1.665-5.803 31.15 31.15 0 0 1-.071-6.022c.151-1.992.444-3.971.879-5.922.406-1.96.999-3.877 1.769-5.725Zm-1.865 43.919c.674 7.603 1.314 15.206 1.919 22.808l1.807 22.804c.594 7.599 1.242 15.191 1.946 22.776.377 3.788.753 7.576 1.217 11.345.242 1.883.495 3.764.815 5.623.147.935.322 1.857.524 2.766.18.873.44 1.728.776 2.554l.037.087a.64.64 0 0 1 .019.46 16.176 16.176 0 0 1-1.575 3.31c-.633 1.05-1.42 2-2.333 2.819a8.49 8.49 0 0 1-6.82 2.275 42.15 42.15 0 0 1-1.755-.277l-.84-.144-.848-.063a10.288 10.288 0 0 0-3.374.312 9.467 9.467 0 0 0-5.508 3.888 9.34 9.34 0 0 1 5.371-4.354 10.894 10.894 0 0 1 3.529-.535l.897.015.89.099c.61.079 1.159.121 1.71.169.274.038.552.039.826.002l.821-.055.796-.184.396-.094.377-.157a7.672 7.672 0 0 0 2.707-1.78 11.524 11.524 0 0 0 2.003-2.629 14.87 14.87 0 0 0 1.337-3.027l.056.547a15.486 15.486 0 0 1-.991-2.875c-.24-.946-.45-1.892-.628-2.837-.367-1.893-.653-3.788-.933-5.684a272.253 272.253 0 0 1-1.372-11.39c-.799-7.599-1.376-15.213-1.913-22.827l-.696-11.427-.551-11.434c-.314-7.625-.545-15.253-.639-22.886ZM101.119 66.2a47.1 47.1 0 0 1 5.278-7.522 53.865 53.865 0 0 1 6.519-6.532 49.082 49.082 0 0 1 3.731-2.77 31.155 31.155 0 0 1 4.082-2.261 17.197 17.197 0 0 1 9.056-1.736 23.883 23.883 0 0 0-8.368 3.08 52.063 52.063 0 0 0-7.264 5.173c-2.304 1.905-4.494 3.963-6.653 6.07a338.187 338.187 0 0 0-6.381 6.497Z" fill="#FDFBF5"/><path d="M95.216 349.977a27.458 27.458 0 0 1-1.372 8.81c-.447 1.439-1.072 2.809-1.534 4.156a24.06 24.06 0 0 0-1.043 4.166c-.425 2.773-.224 5.739 1.416 7.846a10.207 10.207 0 0 0 7.061 3.55c1.396.119 2.802.031 4.172-.262a36.807 36.807 0 0 1 4.478-.53 37.485 37.485 0 0 1 8.935.587 35.901 35.901 0 0 1 8.48 2.754c1.348.634 2.634 1.42 3.931 2.02a20.9 20.9 0 0 0 4.133 1.328c2.843.588 5.756.757 8.648.503a24.124 24.124 0 0 0 8.263-2.021 5.66 5.66 0 0 0 2.82-2.403c.418-.92-.094-1.985-1.081-2.886a14.624 14.624 0 0 0-3.451-2.256c-1.28-.636-2.593-1.161-3.97-1.709-2.749-1.072-5.497-2.147-8.229-3.283-2.74-1.117-5.471-2.272-8.145-3.628a23.534 23.534 0 0 1-7.396-5.28 28.767 28.767 0 0 1-4.356-7.883l-.011-.027a.314.314 0 0 1-.019-.073c-.286-2.326-.6-4.647-.858-6.977a.094.094 0 0 1 .019-.069.096.096 0 0 1 .061-.038.102.102 0 0 1 .07.015c.02.014.035.035.04.059.522 2.286.988 4.582 1.482 6.872l-.03-.099a28.385 28.385 0 0 0 4.625 7.286 18.59 18.59 0 0 0 3.307 2.636 37.319 37.319 0 0 0 3.826 2.006c5.316 2.374 10.903 4.35 16.369 6.565a39.557 39.557 0 0 1 4.135 1.842 16.381 16.381 0 0 1 3.867 2.669c.294.301.571.618.83.95.257.37.473.767.645 1.184a3.657 3.657 0 0 1-.058 2.847 7.144 7.144 0 0 1-3.761 3.234 24.587 24.587 0 0 1-8.918 1.825 32.096 32.096 0 0 1-8.933-.998 24.282 24.282 0 0 1-4.219-1.562c-1.361-.68-2.577-1.482-3.898-2.105a28.922 28.922 0 0 0-8.337-2.595 33.609 33.609 0 0 0-8.712-.084c-1.44.166-2.867.42-4.275.761-1.499.42-3.059.585-4.612.487a11.273 11.273 0 0 1-8.286-4.2 9.142 9.142 0 0 1-1.722-4.468 15.407 15.407 0 0 1 .214-4.641c.294-1.491.73-2.95 1.305-4.357.558-1.422 1.264-2.698 1.78-4.052a30.96 30.96 0 0 0 2.121-8.479.097.097 0 0 1 .034-.066.1.1 0 0 1 .071-.022.094.094 0 0 1 .062.031c.016.017.026.04.026.064Z" fill="#FDFBF5"/><path d="M154.69 380.479s-2.415 6.413-19.806 4.602c-.723-6.478 8.334-14.747 8.334-14.747-1.561-3.345-12.933-5.58-12.933-5.58-6.912-.451-12.09 14.068-12.09 14.068s-.227.106-1.394-.245c-8.144-2.446-20.672 4.367-25-3.387 0 0-2.209 3.059 2.362 6.738l-2.407 5.24h15.786l5.518-2.341v-4.348s14.912 5.205 22.577 7.526c9.114 2.759 22.492-.837 19.053-7.526ZM29.58 340.967a36.155 36.155 0 0 1-1.593 15.301 21.981 21.981 0 0 1-3.813 6.89c-.843 1.058-1.688 1.898-2.497 2.9l-2.426 2.926c-3.198 3.943-6.431 7.885-9.593 11.884a211.585 211.585 0 0 0-9.13 12.268l.052-.226a7.62 7.62 0 0 0 1.998 3.753 6.066 6.066 0 0 0 3.758 1.713c.35.044.705.058 1.058.042l1.067-.097a19.66 19.66 0 0 0 2.101-.498c.68-.27 1.372-.486 2.035-.794l1.971-.974-.2.151a420.614 420.614 0 0 1 10.03-10.765c3.402-3.539 6.823-7.053 10.504-10.356a65.403 65.403 0 0 1 2.851-2.417l.781-.572c.269-.214.557-.402.861-.561l.5-.264.25-.127.185-.077c.255-.092.504-.201.744-.328a17.008 17.008 0 0 0 5.284-4.465 20.8 20.8 0 0 0 3.435-6.158 20.163 20.163 0 0 0 1.023-7.052v-.061c.123-.948.223-1.908.297-2.865.098-.951.11-1.908.035-2.86l-.002-.008a.098.098 0 0 1 .019-.07.094.094 0 0 1 .06-.037c.025-.005.05 0 .07.014.021.013.036.034.041.058.19.961.278 1.939.262 2.918.01.973-.006 1.941-.046 2.916v-.06a19.85 19.85 0 0 1-3.921 14.254 20.407 20.407 0 0 1-2.548 2.846 15.706 15.706 0 0 1-3.128 2.312 7.636 7.636 0 0 1-.918.447l-.238.102-.154.094-.304.178a3.98 3.98 0 0 0-.663.456l-.692.525a63.61 63.61 0 0 0-2.708 2.383 221.84 221.84 0 0 0-5.29 5.035c-1.748 1.703-3.5 3.407-5.227 5.137l-10.317 10.435-.045.045a.493.493 0 0 1-.155.106l-2.128.918c-.719.284-1.481.478-2.216.718-.763.18-1.536.316-2.314.407l-1.186.043a7.174 7.174 0 0 1-1.189-.107 6.937 6.937 0 0 1-4.172-2.163 8.52 8.52 0 0 1-2.067-4.173.279.279 0 0 1 .047-.218l.006-.008a635.72 635.72 0 0 0 8.816-12.519c2.927-4.184 5.837-8.39 9.067-12.369 1.561-2.005 3.37-3.933 5.011-5.809a21.69 21.69 0 0 0 3.764-6.304 35.915 35.915 0 0 0 1.992-7.237c.445-2.497.683-5.026.712-7.561v-.007a.096.096 0 0 1 .092-.095.093.093 0 0 1 .068.024c.018.016.03.038.033.063Z" fill="#FDFBF5"/><path d="M.275 392.958s-2.947 13.397 13.397 12.593c0 0 9.467-.892 18.22-19.916 0 0 4.108-8.388 5.894-8.794v6.382l8.396-.178 7.502-7.503-2.448-20.532a21.309 21.309 0 0 1-10.77 17.049c-10.718 6.341-17.104 16.645-25.56 24.65 0 0-12.13 7.056-14.63-3.751Z" fill="#FDFBF5"/><path d="M7.209 383.33s8.977-2.584 14.061 6.693l6.884-7.024s-5.973-11.468-16.122-6.158c0 0-3.784.702-4.823 6.489ZM127.495 94.24a68.031 68.031 0 0 1 1.796 7.939l.687 3.95c.111.652.239 1.301.382 1.927.063.315.138.622.221.909.061.207.136.409.225.606l.144.606a.607.607 0 0 1-.289.671 49.673 49.673 0 0 1-8.842 3.948 44.828 44.828 0 0 1-9.403 2.127c-3.2.377-6.439.28-9.611-.287a26.271 26.271 0 0 1-8.909-3.402 27.395 27.395 0 0 0 9.005 2.799c3.118.392 6.276.341 9.379-.153a46.137 46.137 0 0 0 9.076-2.393 49.248 49.248 0 0 0 8.433-4.031l-.145 1.277a3.56 3.56 0 0 1-.702-1.183c-.14-.35-.258-.693-.361-1.032-.199-.683-.34-1.36-.482-2.035a40.613 40.613 0 0 1-.577-4.063 41.403 41.403 0 0 1-.027-8.18Z" fill="#FDFBF5"/><path d="M136.564 83.015c-1.093-.106-1.074-.522-2.168-1.248-8.381-5.575-10.335-26.807-10.335-26.807l-.107-.262a776.645 776.645 0 0 1-13.287 5.284c-20.904 8.1-38.856 53.257-38.856 53.257s.522 3.61 14.42 9.116c0 0 4.945-2.913 11.738-7.258l.004-.001.003-.002.002-.003a.01.01 0 0 0 .001-.004c15.494 5.536 32.246-4.935 32.246-4.935-1.064-1.065-2.071-9.03-2.729-15.91 0 0-.145-.426-.145-.446-.281-1.655-.542-3.32-.765-4.994l-.667-4.935a22.369 22.369 0 0 0-4.113-8.575 13.959 13.959 0 0 0-7.549-5.245c-.377-.077-.755-.194-1.142-.252l-1.171-.096a13.888 13.888 0 0 0-2.371.038 5.498 5.498 0 0 0-1.19.165l-1.181.213c-.784.174-1.519.493-2.294.745a12.582 12.582 0 0 0-6.464 7.026 30.945 30.945 0 0 0-1.694 9.726c-.116 1.655-.194 3.31-.33 4.994a26.768 26.768 0 0 1-.841 5.08 27.12 27.12 0 0 1-4.394 9.165.08.08 0 0 1-.026.029.095.095 0 0 1-.037.014.086.086 0 0 1-.072-.023.094.094 0 0 1-.036-.053.09.09 0 0 1 .007-.063 42.353 42.353 0 0 0 3.097-9.407 34.16 34.16 0 0 0 .59-4.858c.087-1.665.203-3.358.435-5.042a44.36 44.36 0 0 1 1.017-4.994c.251-.823.445-1.645.774-2.439.145-.397.27-.803.426-1.2l.513-1.17a16.204 16.204 0 0 1 6.561-7.733 15.145 15.145 0 0 1 10.229-1.636c.884.17 1.747.433 2.575.784.414.18.818.383 1.209.61a7.65 7.65 0 0 1 1.152.687l1.094.784c.338.29.648.61.977.91l.484.464.435.503c.281.339.591.658.852 1.016a21.156 21.156 0 0 1 3.987 9.63c.029.474.058.92.058 1.326l.029 1.248.049 2.507c.019 1.654.019 3.3-.02 4.964 4.549-4.016 7.946-7.761 9.02-10.694Zm-33.204 30.243a1.452 1.452 0 0 1 0-2.903 1.452 1.452 0 0 1 0 2.903Zm7.142.174a1.448 1.448 0 0 1-.993-.443 1.448 1.448 0 0 1 0-2.017c.261-.271.617-.43.993-.443a1.452 1.452 0 0 1 0 2.903Zm7.316-1.393a1.453 1.453 0 0 1 0-2.904 1.455 1.455 0 0 1 .994 2.461 1.453 1.453 0 0 1-.994.443Zm6.62-2.439a1.453 1.453 0 0 1 0-2.903c.376.013.732.172.993.443a1.448 1.448 0 0 1 0 2.017 1.453 1.453 0 0 1-.993.443Zm-24.223-5.168c1.209.155 2.419.281 3.619.368 2.407.209 4.824.283 7.239.222a31.903 31.903 0 0 0 7.123-.9 15.143 15.143 0 0 0 3.339-1.277 10.763 10.763 0 0 0 2.903-2.129 9.632 9.632 0 0 1-2.661 2.535 15.363 15.363 0 0 1-3.368 1.588 26.058 26.058 0 0 1-7.307 1.151 43.285 43.285 0 0 1-7.345-.455 43.952 43.952 0 0 1-7.162-1.577c1.21.174 2.41.358 3.62.474Zm-3.3 4.703a1.454 1.454 0 0 1 0 2.904 1.454 1.454 0 0 1-.994-2.461c.261-.27.617-.429.994-.443Zm-21.775 5.168a1.45 1.45 0 0 1-1.401-1.451 1.452 1.452 0 0 1 1.4-1.452 1.45 1.45 0 0 1 1.402 1.452 1.45 1.45 0 0 1-1.401 1.451Zm5.4 3.484a1.45 1.45 0 0 1-1.4-1.451 1.452 1.452 0 0 1 1.4-1.452 1.45 1.45 0 0 1 1.4 1.452 1.452 1.452 0 0 1-1.4 1.451Zm5.923 2.439a1.45 1.45 0 0 1-1.401-1.452 1.452 1.452 0 0 1 1.4-1.451 1.45 1.45 0 0 1 1.401 1.451 1.452 1.452 0 0 1-1.4 1.452ZM149.65 67.952c.568 2.853.642 5.782.22 8.66a70.815 70.815 0 0 1-1.634 8.542 150.975 150.975 0 0 1-5.32 16.5 246.707 246.707 0 0 1-6.792 15.915 209.186 209.186 0 0 1-7.946 15.358l6.563-15.966c2.168-5.32 4.335-10.635 6.368-15.997 2.058-5.351 3.991-10.746 5.677-16.211.816-2.738 1.585-5.493 2.153-8.29.665-2.784.905-5.654.711-8.51Z" fill="#FDFBF5"/><path d="M150.21 68.373a.194.194 0 0 0-.058-.039c0-.125 0-.26-.009-.387.029.145.048.28.067.426Z" fill="#fff"/><path d="M168.185 34.237a36.478 36.478 0 0 0-5.026-6.997 24.759 24.759 0 0 0-3.18-2.845c-.547-.454-1.165-.805-1.747-1.204-.622-.335-1.221-.71-1.871-.983a18.5 18.5 0 0 0-16.185.347 19.667 19.667 0 0 0-6.385 5.284 25.78 25.78 0 0 0-4.053 7.283 12.428 12.428 0 0 0-.072 8 13.656 13.656 0 0 0 4.798 6.499l-.393-.102a7.235 7.235 0 0 0 4.041-2.022 20.457 20.457 0 0 0 3.232-3.648l.422.733a2.504 2.504 0 0 1-1.527-.473 2.759 2.759 0 0 1-.924-1.236 5.406 5.406 0 0 1-.207-2.827 6.435 6.435 0 0 1 3.001-4.51 5.44 5.44 0 0 1 2.643-.858 3.58 3.58 0 0 1 2.62 1.033c.357.36.594.82.679 1.32.011.13.016.263.014.395l-.004.291c.014.199.05.395.106.586.268.79.711 1.51 1.298 2.102l-.115-.072c1.642.53 3.367.753 5.09.657a16.996 16.996 0 0 0 5.015-1.205 24.594 24.594 0 0 0 4.514-2.564 26.64 26.64 0 0 0 3.912-3.387.534.534 0 0 1 .751-.025c.094.089.153.209.167.338a16.312 16.312 0 0 1-.723 7.337 26.565 26.565 0 0 1-1.553 3.333 15.839 15.839 0 0 0-1.434 3.064 6.072 6.072 0 0 0 .146 3.15 17.106 17.106 0 0 0 1.313 3.16l.406.838c.068.15.134.322.199.504.032.118.061.238.085.358a1.27 1.27 0 0 1-.087.676c-.146.31-.391.56-.696.714a3.118 3.118 0 0 1-.58.238 6.76 6.76 0 0 1-1.008.21 23.042 23.042 0 0 1-3.741.135l.882-.57a25.635 25.635 0 0 1-3.643 6.33 11.876 11.876 0 0 1-2.812 2.58 6.633 6.633 0 0 1-3.94.923 16.77 16.77 0 0 1-7.022-2.44l-.776-.454-.379-.227-.188-.113c-.056-.032-.082-.036-.123-.057a1.923 1.923 0 0 0-1.12-.127 6.856 6.856 0 0 0-2.726 1.19l-.823-1.845a7.885 7.885 0 0 1 1.694-.082c.524.024 1.046.082 1.562.174a16.57 16.57 0 0 1 2.964.836 23.168 23.168 0 0 1 5.251 2.95 49.068 49.068 0 0 1 4.545 3.745c.748.695 1.43 1.457 2.04 2.277a6.557 6.557 0 0 1 1.25 3.024l-.016-.076 3.2 13.034 3.11 13.056.008.031a.456.456 0 0 1-.172.47 19.208 19.208 0 0 1-3.369 1.982 20.552 20.552 0 0 1-3.653 1.287 16.378 16.378 0 0 1-3.828.506 15.132 15.132 0 0 1-3.815-.442.094.094 0 0 1-.06-.041.094.094 0 0 1-.015-.071.095.095 0 0 1 .109-.078l.008.001c1.239.221 2.5.289 3.756.203a15.77 15.77 0 0 0 3.679-.681 19.885 19.885 0 0 0 3.456-1.42 20.154 20.154 0 0 0 3.113-2.004l-.165.501-3.587-12.933-3.499-12.956-.015-.067-.001-.01a4.675 4.675 0 0 0-.987-2.227c-.558-.711-1.18-1.37-1.856-1.97a51.494 51.494 0 0 0-4.405-3.535 21.187 21.187 0 0 0-4.809-2.642 15.19 15.19 0 0 0-2.589-.707 9.958 9.958 0 0 0-1.303-.148 6.472 6.472 0 0 0-1.184.04l-.087.013a1.022 1.022 0 0 1-1.139-1.312 1.02 1.02 0 0 1 .403-.547 8.766 8.766 0 0 1 3.677-1.571 3.972 3.972 0 0 1 2.31.324l.271.138.189.114.374.225.742.435a15.186 15.186 0 0 0 6.115 2.252 4.68 4.68 0 0 0 2.813-.594 10.016 10.016 0 0 0 2.368-2.136 23.856 23.856 0 0 0 3.425-5.782l.009-.022a.916.916 0 0 1 .873-.548c1.139.066 2.282.04 3.417-.075.252-.03.502-.077.748-.141.086-.023.17-.054.251-.092.056-.018.035-.052-.053.115a.498.498 0 0 0-.038.238.259.259 0 0 1-.018-.078c-.036-.099-.072-.208-.125-.331l-.358-.782a18.674 18.674 0 0 1-1.348-3.485 7.615 7.615 0 0 1-.071-3.93c.077-.332.191-.653.34-.958.125-.292.268-.577.427-.852l.885-1.572a25.29 25.29 0 0 0 1.584-3.106 15.124 15.124 0 0 0 .887-6.782l.917.312a27.551 27.551 0 0 1-4.179 3.412 25.445 25.445 0 0 1-4.75 2.512 18.346 18.346 0 0 1-5.251 1.187 14.67 14.67 0 0 1-5.335-.748.275.275 0 0 1-.116-.073 6.05 6.05 0 0 1-1.427-2.378 3.534 3.534 0 0 1-.122-.715l.002-.369c-.008-.088-.001-.176-.013-.265a1.874 1.874 0 0 0-.528-.99 2.98 2.98 0 0 0-2.176-.829 4.701 4.701 0 0 0-2.317.79 5.74 5.74 0 0 0-2.586 4.08c-.135.8-.051 1.621.24 2.378a1.64 1.64 0 0 0 1.622 1.087.473.473 0 0 1 .426.727l-.004.007a22.56 22.56 0 0 1-1.515 2.083 18.395 18.395 0 0 1-1.756 1.895 11.281 11.281 0 0 1-2.099 1.6 6.436 6.436 0 0 1-2.629.895.614.614 0 0 1-.394-.103 14.957 14.957 0 0 1-3.349-3.102 9.217 9.217 0 0 1-.678-.918 7.903 7.903 0 0 1-.614-.968l-.547-1.013c-.15-.353-.282-.716-.422-1.075a13.68 13.68 0 0 1-.053-9.06 25.448 25.448 0 0 1 4.401-7.803 21.274 21.274 0 0 1 6.986-5.619 19.124 19.124 0 0 1 8.714-2.047c3.005.022 5.963.74 8.644 2.099a21.782 21.782 0 0 1 6.858 5.536 33.626 33.626 0 0 1 4.663 7.384.096.096 0 0 1-.117.133.098.098 0 0 1-.055-.044ZM43.79 189.832l4.278-5.176a.104.104 0 0 1 .028-.023.104.104 0 0 1 .035-.01.088.088 0 0 1 .036.004.081.081 0 0 1 .032.017l.003.002 4.666 4.072-.199.022 4.609-6.47a.194.194 0 0 1 .121-.076.191.191 0 0 1 .14.032l6.032 4.206-.342.073 3.719-6.381a.278.278 0 0 1 .274-.134.28.28 0 0 1 .1.035l.009.005 5.731 3.522-.443.133 3.078-6.703a.35.35 0 0 1 .456-.17l6.44 2.838-.53.272 1.315-6.595a.423.423 0 0 1 .495-.331l.065.019.007.002 6.49 2.464-.63.362 1.061-6.688a.484.484 0 0 1 .192-.313.472.472 0 0 1 .357-.086l.049.01 6.404 1.686-.606.467c-.008-2.15.008-4.299.032-6.449v-.009a.446.446 0 0 1 .453-.443l.035.002 6.795.609-.418.422-.463-6.128-.001-.01a.304.304 0 0 1 .072-.218.306.306 0 0 1 .205-.103l.027-.001 5.934.102-.202.213-.19-6.463a.044.044 0 0 1 .013-.034.045.045 0 0 1 .033-.015.044.044 0 0 1 .034.012c.01.008.015.02.016.032l.498 6.446a.192.192 0 0 1-.047.144.196.196 0 0 1-.135.069l-.011.001h-.009l-5.934.102.304-.332.63 6.114a.385.385 0 0 1-.407.423l-.011-.001-6.806-.484.488-.45c.024 2.15.04 4.299.031 6.449a.485.485 0 0 1-.482.483.468.468 0 0 1-.124-.016l-6.404-1.69.597-.388-1.087 6.683a.464.464 0 0 1-.53.389.568.568 0 0 1-.1-.027l-6.458-2.546.567-.31-1.396 6.578a.38.38 0 0 1-.162.242c-.084.056-.187.076-.286.056a.47.47 0 0 1-.082-.026l-6.41-2.903.454-.17-3.146 6.672a.307.307 0 0 1-.443.132l-5.696-3.58.382-.094-3.784 6.342a.235.235 0 0 1-.235.116.266.266 0 0 1-.087-.03l-.02-.013-5.974-4.286.26-.043-4.694 6.408a.135.135 0 0 1-.087.055.132.132 0 0 1-.1-.023l-.012-.01-4.611-4.134.133-.01-4.346 5.118a.047.047 0 0 1-.033.017.048.048 0 0 1-.041-.079Z" fill="#FDFBF5"/><path d="m127.049 128.248 3.035.694-.086.098-1.547-3.958a.103.103 0 0 1-.007-.042c0-.014.003-.028.009-.041a.104.104 0 0 1 .024-.035.101.101 0 0 1 .035-.023l.023-.006 3.285-.583-.103.187-1.65-3.872a.165.165 0 0 1-.001-.131.164.164 0 0 1 .091-.092l.021-.008 3.352-.986-.132.264-1.424-3.647a.24.24 0 0 1-.016-.088.236.236 0 0 1 .147-.211.49.49 0 0 1 .041-.011l3.044-.631-.194.319-1.154-3.912a.285.285 0 0 1 .162-.336l3.162-1.326-.181.333-.784-4.065a.326.326 0 0 1 .187-.357l3.151-1.437-.169.468-1.676-3.386a.368.368 0 0 1 .241-.521l3.217-.846-.275.502-1.337-3.955a.43.43 0 0 1-.022-.163.438.438 0 0 1 .143-.29.422.422 0 0 1 .143-.081l.02-.006.008-.003 3.518-.985-.307.59-1.376-3.735a.48.48 0 0 1 .283-.614l.004-.002.007-.002 2.491-.883-.299.642-1.539-4.057a.479.479 0 0 1 .01-.38.509.509 0 0 1 .276-.26l.042-.014 3.487-.983-.308.668-1.903-4.288-.003-.008a.425.425 0 0 1-.009-.331.43.43 0 0 1 .299-.264l3.664-.917-.274.505c-.485-1.496-1.007-2.996-1.62-4.43l-.007-.017a.305.305 0 0 1-.003-.239.317.317 0 0 1 .167-.17l.004-.002 2.64-1.08-.14.335-1.552-4.31-.002-.007a.142.142 0 0 1-.002-.091.143.143 0 0 1 .055-.073l2.764-1.9a.05.05 0 0 1 .036-.007.051.051 0 0 1 .031.019c.007.01.01.023.009.035a.05.05 0 0 1-.019.032l-2.648 2.057.05-.171 1.767 4.226a.255.255 0 0 1-.129.33l-.011.005-2.596 1.184.161-.428a41.047 41.047 0 0 1 1.792 4.454.386.386 0 0 1-.242.495l-.022.007-.01.003-3.642 1 .287-.604 1.991 4.247a.48.48 0 0 1-.119.567.488.488 0 0 1-.181.1l-.009.002-3.48 1.005.328-.654 1.535 4.059a.489.489 0 0 1-.01.376.486.486 0 0 1-.273.26l-.017.005-2.499.86.295-.619 1.322 3.755.002.007a.457.457 0 0 1-.275.574l-.035.01-3.534.93.292-.542 1.275 3.976.002.005a.389.389 0 0 1-.252.49l-.025.007-3.228.804.241-.521 1.634 3.407a.35.35 0 0 1-.049.381.344.344 0 0 1-.107.082l-.014.006-3.168 1.399.186-.357.734 4.074a.303.303 0 0 1-.031.198.304.304 0 0 1-.149.134l-3.179 1.287.162-.335 1.105 3.926c.01.032.013.065.009.098a.256.256 0 0 1-.179.216l-.024.005-3.053.589.172-.31 1.363 3.669a.2.2 0 0 1-.112.257l-.02.007-3.367.93.111-.23 1.585 3.899a.135.135 0 0 1-.071.178l-.032.009-3.294.529.084-.146 1.482 3.983a.093.093 0 0 1 .005.029.096.096 0 0 1-.007.028.053.053 0 0 1-.016.023.078.078 0 0 1-.024.016.086.086 0 0 1-.045.003l-3.023-.744a.05.05 0 0 1-.03-.022.05.05 0 0 1-.005-.036.046.046 0 0 1 .021-.03.046.046 0 0 1 .036-.006ZM137.156 268.64a1.454 1.454 0 0 0 1.402-1.451 1.452 1.452 0 0 0-1.402-1.452 1.45 1.45 0 0 0-1.402 1.452 1.452 1.452 0 0 0 1.402 1.451Zm6.271-1.045a1.452 1.452 0 0 0 0-2.903 1.454 1.454 0 0 0-.994 2.461c.261.271.618.429.994.442Zm5.749-.697a1.45 1.45 0 0 0 1.402-1.451 1.45 1.45 0 0 0-1.402-1.452 1.455 1.455 0 0 0-1.403 1.452 1.456 1.456 0 0 0 1.403 1.451Zm2.787-5.051a1.455 1.455 0 0 0 1.402-1.452 1.454 1.454 0 0 0-1.402-1.452 1.45 1.45 0 0 0-1.402 1.452 1.45 1.45 0 0 0 1.402 1.452Zm-3.096-135.268-5.078.562.1-.224 4.466 5.852a.262.262 0 0 1-.029.351.262.262 0 0 1-.11.062l-.009.003-6.519 1.785.167-.596 5.81 5.795a.48.48 0 0 1-.201.803l-.017.005c-2.158.64-4.334 1.213-6.517 1.758l.222-.678a172.011 172.011 0 0 1 4.926 6.907.054.054 0 0 1 .007.035.05.05 0 0 1-.018.031.05.05 0 0 1-.034.01.052.052 0 0 1-.032-.016 159.85 159.85 0 0 1-5.525-6.438.427.427 0 0 1 .202-.672l.021-.006c2.151-.664 4.309-1.3 6.486-1.869l-.218.808-5.626-5.974-.007-.007a.362.362 0 0 1-.097-.255.356.356 0 0 1 .112-.248.366.366 0 0 1 .159-.087l6.565-1.607-.148.416-4.263-6.001a.14.14 0 0 1 .026-.196.156.156 0 0 1 .075-.028l5.095-.377a.05.05 0 0 1 .035.011.05.05 0 0 1 .017.032.048.048 0 0 1-.011.035.048.048 0 0 1-.032.018Z" fill="#FDFBF5"/><path d="m146.148 170.509-7.505 3.333.011-.157 9.184 5.626a.149.149 0 0 1 .065.088.152.152 0 0 1 .002.056.163.163 0 0 1-.019.052.149.149 0 0 1-.045.045l-8.085 5.324-.007-.324 8.732 5.104a.243.243 0 0 1 .117.24.23.23 0 0 1-.076.144l-6.94 6.453-.021-.424 7.745 5.782a.307.307 0 0 1 .116.326.318.318 0 0 1-.084.146l-6.538 6.524-.033-.522 7.417 5.657a.38.38 0 0 1 .024.586l-7.018 6.425-.013-.641 8.091 6.693a.477.477 0 0 1 .065.663l-6.458 8.021-.103-.699 7.677 5.249a.481.481 0 0 1 .086.723l-6.846 7.467-.073-.6 8.345 5.735.004.003a.3.3 0 0 1 .084.086.303.303 0 0 1 .043.232.303.303 0 0 1-.142.2l-7.632 4.608.045-.356 7.216 7.733a.045.045 0 0 1 .013.035.047.047 0 0 1-.014.033.052.052 0 0 1-.035.014.05.05 0 0 1-.034-.015l-7.477-7.48a.217.217 0 0 1-.049-.074.214.214 0 0 1 0-.173.217.217 0 0 1 .049-.074l.039-.031.006-.004 7.548-4.744-.011.521-8.446-5.585a.394.394 0 0 1-.112-.55l.032-.043.006-.007 6.723-7.579.086.723-7.675-5.253a.491.491 0 0 1-.201-.308.476.476 0 0 1 .076-.361l.022-.03 6.469-8.013.065.662-8.028-6.77a.43.43 0 0 1-.151-.286.425.425 0 0 1 .138-.355l7.077-6.361.024.585-7.375-5.712a.343.343 0 0 1-.065-.485l.032-.037 6.588-6.475.032.472-7.703-5.839a.275.275 0 0 1-.021-.424l6.988-6.401.041.385-8.681-5.191a.191.191 0 0 1-.068-.26.196.196 0 0 1 .061-.064l8.137-5.243.003.241-9.128-5.718a.08.08 0 0 1-.025-.023.104.104 0 0 1-.015-.032.082.082 0 0 1-.001-.035.096.096 0 0 1 .012-.032.085.085 0 0 1 .04-.035l7.538-3.259a.052.052 0 0 1 .037-.001.053.053 0 0 1 .027.026.048.048 0 0 1 0 .037.043.043 0 0 1-.025.026v.001Z" fill="#FDFBF5"/><path d="m22.744 323.556-.039.155c-.01 0-.01-.001-.019-.01a.06.06 0 0 1-.01-.068l.068-.077Z" fill="#FCFCFC"/></g><defs><clipPath id="clip0_32_1412"><path fill="#fff" d="M0 0h378v406H0z"/></clipPath></defs></svg>