<svg width="263" height="272" fill="none" xmlns="http://www.w3.org/2000/svg"><path d="M45.4 250.72h1v-9h-1v-3.28h9.18c1.667 0 2.967.34 3.9 1.02.933.68 1.4 1.653 1.4 2.92 0 .787-.187 1.453-.56 2-.373.533-.813.94-1.32 1.22a5.153 5.153 0 0 1-1.44.54v.2c.947.093 1.8.393 2.56.9s1.14 1.413 1.14 2.72c0 1.4-.527 2.427-1.58 3.08-1.053.64-2.42.96-4.1.96H45.4v-3.28Zm7.68-5.72c.387 0 .673-.1.86-.3.2-.213.3-.54.3-.98V243c0-.44-.1-.76-.3-.96-.187-.213-.473-.32-.86-.32H52V245h1.08Zm.14 5.72c.387 0 .673-.1.86-.3.2-.213.3-.54.3-.98v-.88c0-.44-.1-.76-.3-.96-.187-.213-.473-.32-.86-.32H52v3.44h1.22Zm22.368 0h.8V254h-7.84v-3.28h1.2l-.32-1.6h-2.72l-.32 1.6h1.2V254h-6.84v-3.28h.8l3.38-12.28h7.28l3.38 12.28Zm-8.44-3.72h1.84l-.82-3.98h-.2l-.82 3.98Zm9.873 3.72h1v-9h-1v-3.28h9.18c1.72 0 3.033.353 3.94 1.06.907.707 1.36 1.853 1.36 3.44 0 .893-.18 1.667-.54 2.32-.36.653-.873 1.107-1.54 1.36l.02.2c1.28.2 1.92.987 1.92 2.36v1.54h.94V254h-6.34v-4.7c0-.52-.08-.913-.24-1.18-.147-.267-.387-.447-.72-.54-.32-.093-.78-.14-1.38-.14v3.28h1.32V254h-7.92v-3.28Zm7.68-5.72c.387 0 .673-.1.86-.3.2-.213.3-.54.3-.98V243c0-.44-.1-.76-.3-.96-.187-.213-.473-.32-.86-.32h-1.08V245h1.08Zm16.076 9.28c-2.52 0-4.466-.64-5.84-1.92-1.36-1.28-2.04-3.327-2.04-6.14 0-5.373 2.613-8.06 7.84-8.06 1.267 0 2.44.153 3.52.46 1.094.307 1.907.647 2.44 1.02v5h-4.8v-1.44c0-.507-.113-.88-.34-1.12-.226-.24-.566-.36-1.02-.36-.453 0-.793.12-1.02.36-.227.24-.34.613-.34 1.12v6.04c0 .507.113.88.34 1.12.227.24.567.36 1.02.36.454 0 .794-.12 1.02-.36.227-.24.34-.613.34-1.12v-1.62h4.8v5.18c-.546.373-1.36.713-2.44 1.02-1.066.307-2.226.46-3.48.46Zm6.674-.28v-3.28h1v-9h-1v-3.28h13.5v6.04h-4.48v-2.76h-2.42v3.16h1.76v2.28h-1.76v3.56h2.42v-3.16h4.48V254h-13.5Zm14.258 0v-3.28h1v-9h-1v-3.28h8.44v3.28h-1.84v9h1.8v-1.84h3.98V254h-12.38Zm20.586.28c-2.44 0-4.327-.64-5.66-1.92-1.32-1.28-1.98-3.327-1.98-6.14 0-2.813.66-4.86 1.98-6.14 1.333-1.28 3.22-1.92 5.66-1.92s4.32.64 5.64 1.92c1.333 1.28 2 3.327 2 6.14 0 2.813-.667 4.86-2 6.14-1.32 1.28-3.2 1.92-5.64 1.92Zm0-3.56c.453 0 .793-.12 1.02-.36.227-.24.34-.613.34-1.12v-6.04c0-.507-.113-.88-.34-1.12-.227-.24-.567-.36-1.02-.36-.453 0-.793.12-1.02.36-.227.24-.34.613-.34 1.12v6.04c0 .52.113.9.34 1.14.227.227.567.34 1.02.34Zm19.84-12.28h6.56v3.28h-1V254h-5.62l-5.86-9.02v5.74h.96V254h-6.56v-3.28h1v-9h-1v-3.28h7.22l5.26 8.02v-4.74h-.96v-3.28Zm22.008 12.28h.8V254h-7.84v-3.28h1.2l-.32-1.6h-2.72l-.321 1.6h1.201V254h-6.84v-3.28h.8l3.38-12.28h7.28l3.38 12.28Zm-8.44-3.72h1.84l-.82-3.98h-.2l-.82 3.98Z" fill="#EA346C"/><path d="m139.68 167.065-.007.426-.865.341-.31.673-1.21.307-1.541-1.801-1.042-.78-.936-.16-1.147.693-.95-.6.247.24-.31-.213-1.583.433-1.183 2.155-.478.486-1.013.381-1.344.04-.824-.541-.668.234-1.414-1.294-1.021.32-5.27-.367-1.619.354-.506.54-1.056.46-1.154-.073-.887-.634.078.154-.634.08-.886-.661-1.056-.06-.387.387-.724-.073-.268.307-.387-.414-.338.18-1.287-.56-2.337.634-2.146-.501-.696.547-1.485.207-2.787.073-1.28-.253-.409.353.029-.26-1.886 2.675-.422.407-1.352.46-.633 1.214-1.998.513-2.09-.487-1.133.014-1.802 1.053-1.435.194-1.421.794-.43-.02-.809.887-.542 1.494-1.301 1.76-.437 1.674-.492-.026-.409-.487-.76.073-.422.774.324 1.587-.647.46-.416-.086-2.322 1.06-.696-.94-.817-.414-.696.14-1.07-.62-.366.22-1.21-1.501-1.084-.867-2.28.054-1.308-2.308-.732-.26-.711-1.574-.704-.607-1.386-2.901-.549-.107.732-.34-.225.22.246.067.042-.214-.084.28.366.667.091-.26.057.167.52-.867.162-.614-.176-.306-.703.033-.648-.847-.429.12.197-.12-.352-.153.063.32-.351-.354-.26.24-.697-.427-.936-2.347 1.632-1.234-.78-.434-.909-2.08-1.576-1.781-4.482-2.821-1.956-.854-1.33-.994.422.64 1.555 1.208-2.125-1.741-.457-.054.274.281-.24-.014-1.892-.82-5.186.38-.697.527-.682-.254-.212-1.107-.351-.447.225-.533-.394-.834.02-1.807-.435-.44.351-.214-.464-1.154.12-.393-.402-.254-.147-.56-.38-.04-.233-.7.296-.134.07-1.033.957-.994.648-2.495.528-.153 1.787-1.721.373-1.28.5-.674-.064-1.267 1.09-.467 1.387-.007.078-.593.471-.32.774.56 1.034-.087.401-1.861.662-1.147-.267-.14.02-.34.648-.767 1.633.694.97-.027-.309 1.521.739-.014.021.287.443.18.507-.207 1.365.234.394-.18.486.487.302.346.085.888.464-.134h.225l1.365.5.219-.14-.113-.407.514-.386-.176-.214.725-.066.872.213.197.767.52.42.092.033.437.421.985.166.26.274.725-.067.394.494 1.245-1.007 1.253-.307 1.879.06.345-1.187.5-.481-.402-.486.056-.387.873-.621.056-.526.5-.374.992-.067.345-.253.485.113.55-.373.794.353.029.487-.183-.24-.218.113.182.361-.872.527.133.927.542.153 1.359-1.287.999.146.133-.426.725-.294-.105-.513.246-.441.07-.033.028-1.334-.914-1.52.31-.854-.521-.474.02-.367.711-1.107.507-.306h.675l.092-.481 1.302-.833-.078-.174.275-.447.33.174-.154-.334.436-.687 1.196.114-.063-.34.366-.427.682-.334.62-.733.176.173.105-.42.155.253.07-.233.233.18-.007-.354.33-.04.028-.053-.323-.894 1.653.24.985-.513.697.287.148.52 1.105.287 1.323-.054.358 1.634 2.886.941.084.447.718.113.83.594.549.847.155-.187.366.12.14.333.338-.12 1.682 1.874 3.16 1.334.344-.086-.176-.754.26-.46 2.562.48 4.131.253 1.132-.133.472-.42.134-.527.471-.133.352-.107.802.26.19-.233 2.196.707.513-.254.113-1 .267-.047.598.207.148.747 1.154.253.845-.2.921-.787-.028-.453.078-.207.921-.28.106.046.851.494 2.674.427 1.359-.887 1.224 1.594.162-.987.528-.421 1.168.007.443.38.38-.533.443-.227.148.173v-.226l.746-.341.077-.286.141.113.204-.513 1.816.847 1.259-.414h.176l.605.52-.077 1.761 1.717.414-.042 2.187.837.367.113.48-.352 1.121.14.72-2.047 2.354.528.294h.246l1.752.88 1.562.134.781.52.88 1.487 1.541 1.134.922-.274.753.627.422-.233.781.34.309-.26.345.14.12-.007.141.174-.401.527-.261 1.527.261 1.1-.331.614.211 1.094.127.127 2.871 4.401.689.481-.028-.414 1.443.247 2.082 1.547-.942.467-.62 1.094-1.752 1.801-.943 3.555-.985 1.807.092.914-.205.28h-.64l-.507.84-.443.087-.246.313.077.927-.753.341-.436.627ZM143.769 45.052l.197.367 1.316-.02 1.006.927 1.196-.207 1.844 1.22.464.088.366-.107.225-.2 1.766.1.535-.6-.063-.327.837-1.468.655-.62-.113-.733-.197.02-.591-.014-.274-.814-.62-.486.134-1.328-.478-.96.492-1.314-.141-.44 1.33-1.527-.098-.4-.465-.18.345-1.121 1.239-1.247-.233-1.188.451-.826.675.353.401-.167h.099l.028-.713.83-.527-.394-.307.423.013.084-.907 2.153.027.007-1.08.268-.234 1.083-.073.887-.988.429.007.007-.427.683-.053.323-.594-.232-.3.078-1.174.703-.526.057-.84.661-.474 1.105.046-.162.567.676.434.351-.147.394.594 1.049.72.028.62.633-.006.021.606.296.107.162-.373.302-.014.043-.433.429-.407 1.182.807.605-.307.493.154.703-.887.416.073.239-.374 1.048.707.289-.053.091.354.971.533.521-.273 1.042 1.907.71.073.134.554.887.247.457-.107.12-.293.682.126.521-.453.69.1.928-.307.275-.347 1.597.52.078.554.584.487.506-.24.085-.527.668-.48 1.196.82 1.084-.227.732.207.204-.28 1.133.193.197-.26 1.224.354.078.173.155.094.429.546.19.894 1.182.28-.486 1.634.176.254-.302-.127-.254.3-.028.347.373.187-.478.44-.24-.173-.211.213 1.042 2.468-.436.46.9.347-.57.366.458.367-1.183 3.255-.084.4.324.214-.401.32.169.82-.613 1.727-.274.16v1.008l-.232.413-.085-.26-.38.12-.246.66-.345-.14-.471.7.851.44-.218.047-.063.76.281.341-.507.207-.014.28-.464-.02-.232.767-.57-.014-.584.507-.296.86-1.316.168-.063.62-.218-.194-1.112 1.474-.028.454.612.7-.148.774 1 .16.499-.22.373 1.427-.957 1.26-1.062.14.239.808-.662 1.34 1.014 1.007-.493.594.401.287-.077.347.415.627-.148 1.007-.274-.034-.035.314-.803.04-.506 1.58-.788.18-.12.467-.633-.173-.24.267.007.954.359.06.211.646-.239.307.261-.12-.007.3.26-.14.626.48-.345.127.423.807-.036.187.24.147-.767 1.213.021.134-.275.714.732 1.487-.837.807-.099.467-1.006.293-.035.32-.275-.206.176.38-.436.347-.746-.194-1.295.847-.225-.073-.225-.674-.007-.073-.38-.114-.38.02-.767.06-.866-.386-.682-.574-.014-.413-.992.033-.662 1.027-.112 1.18-1.359.734-.429-.46-.936.333.183 1.248.873.246.591-.166-.134 2.274.458.374.084.533-1.182.454-.246.36 1.147 1.3.105.527-1.119.607-.52.82-.444-.02-.211.274.331.72-.83.48-1.267.367-.978-.56-.669 2.701-.584.26-.352.547.254.774-.31-.087-.964.707-1.386-.04-.514 1.227-1.034.394-.035 1.26.788 1-1.429.801-.809-.58.211-.42-.239-.654.169-.507-.31-.593-.225.186-1.063-.567-1.597.054-.387.253-.457-.093-.155.247-.331-.22-.443-.968 1.562-.606.232-.314-.119-.46-1.344-1.027-1.865-.087v-.68l-.57-.334-.31-.7-.119-.287-.021-.213-.38.307.007 1.187-.317.133-.345.287-.436-.2-.345.133-.211-.12-.901-.12.204-1.267-.675.273-.669-.427-.612.3-2.836-2.847-.57.773-.169-.58.176-.38.43-.033-.465-.507-.112-.06-.936-1.12-.514-.194.021-.254.155-.213.169.147.767-1.28.992-.528-.176-1.12.169-.96.373-.374 1.435.7 1-.813-.338-.42.528-1.721-.465-1.228.38-.5.049-.84-.337-.827-.317-.06-.915-1.134.239-1.147-.175-.387-.606-.507-.218-.327-2.716-2.668-.985-.313-.901-.814-.239.067-.936-.927-1.787.567-.521-.6-1.245-.294-.556-2.521.387-1.047-.12-.494.739-.407.45-1.794 1.239.434-.155.76.281.287 1.724-.553.021-.327-.323-.087.035-.9-.528-.594.275-1.434-.535-.834.035-.48 1.309.02.521-.847.168-.093.261-.014.302-.56.971-.053-.063-.567.704-.914-.641-.293.085-.414-.964-.86.647-.914.028-.64-.703-1.24-.035-1.535.211-.987ZM67.25 4.375l.233.42.95.293-.162.354.415.24.211.587 1.506.287-.295.246-.155-.16.091.42.24-.18-.226.354.45.053.163-.22.33.194.542-.394.486.254 1.442-.12.43.206 1.681-.266.36.62.309-.227 1.485.107 1.52 1.534 1.759-.26 2.11.653 1.675-.1.993.48.675-.08.07.314.423-.147 2.237.787 1.464.307 2.04.033.022.327-.528.6.415 1.088-.098.847-.5.24-.084-.44-1.014-.334-.5.8-1.843.26.19.56-.338 1.161-.774-.127-.626.254-.098-.047-.43.053-.584-1.093-.809-.26-1.013.646-.612.928-.472-.274-1.027.087-.507 1.947-.732-.026-.147-.28-1.133.526-.057.12-2.21.24-.365-.386-.479-.014-.295.207-.134.914-1.696-.133-.267.833-2.71-.327-1.062-.573-.718.38-.752 1.374.056.4-.816.167-.697.02-.38-.434-.535.014.056-.334-.506.027-.83-.674-.331-1.127-.887.247-1.154-.5-.33 1.087-.76.293-.76-.68-.725.013-.247.914-.71-.173-.387-.474-.212.227-.598-.12-.077-.347-.52-.334-.275.44-.45.08.077.434-.352.074-.232.733-.268-.107-.169.28-.492-.246-.127.006.092.62.732.087-.007.574-.81.16-.246.34-.415-.2-.62.367-1.308-.293-1.464.066-.668.134-.718.867-.253-.027.035-.4-.978-.387-.324-.307.099-.773-.662-.754-.718-.02-.893-1.147-.036.987-.288.013-.479-.62.303-.514.31.16-.022-.653.521-.627.472.3.38-.42h.436l.788-.774.134-.513-.64-.707-.556.126.035.234-1.035.613-.352-.053-.45-.76.296-.56-.106-.387-.577-.107-.176-.38-.21.22-.782-.747-.183-.594.19-.894-.76.04-.577-.673.042-1.02-.169-.34-.415.22-.345-.2.085-.454-.028-.087.007-.627 1.33.067.267-.7.655-.434.436-.634-.197-.246.218-.54.492.04-.478-.367.042-.374 1.035.087.422-.367.112.14.036-.307 1.048.134.246.286.472-.326.823.407 1.246-.294.408.447.267-.36.676.086.922-.306.154.253.289-.093.07.28 1.084-.02.169.253 1.16-.08.057-.54.81.447.633-.18.788.227 1.893-.674.225-.42.443.387.225-.167.113.313.281-.16-.007.374.528-.114.866.354 1.85-.827.45.387.732-.167.36-.374-.184-.093.62-.227v-.433l.654-.014.422-.313.021-.474.303-.026Z" fill="#FDFBF5" stroke="#171619" stroke-width=".5"/><path d="m116.248 15.773-.422-1.347.767-.34.33.173-.38.7.021.7-.316.114Zm-5.784-7.81.014.28.689-.18.218.413.423-.073.274.527 1.351.233.134.52-.563.114.528.68.337-.207.859.2.816-.186-.035.48.415-.233 1.436.32.654.82.767.267-.077 1.294-.641.08-.352.367-.295-.62-1.027.466-.303-.26-.528.194-.176-.2-.14.56-.838.193-.295.594-.978.253.154.474.127.187.324 1.867-1.415.007-1.562-.474-.577.06-.162-.453-.732-.294-.64.927-.014.114-.401.56-.929.38-.232.5h-1.26l-.499-.233.112 1.214-.809-.007-.507.654-.675.34-.697 1.687.317.554.823-.087-.049.38 1.253-1.374.703.66-.682.728-.852-.32.324.56-.584-.007.492.2-.288.367-.028.14.774.22.162-.9.527.24.409 1.093-.113.854-.788.307-.577-.44-.338.9-.387-.14-.901.374-.084-.254h-.324l-.112-1.534-.296.294.099.3-.324.153.091.28-.394.187.057.393-.676.107-.338-.727-.957.047-.64-.507-.028-.28.471-.407.43.127.197-.6-.43-.34-.957.653-.471-.3.05-1.32-.282-.147-.043-.994-2.075-.434-1.028-1.514-1.196-.673-.289.547-.816-.174-.725.674-.9-.407-.62.467-.851-.227-1.013.133-.099-.853-.443-.014-.007-.473-1.26-.667-.359-.587.31-.787-.324-.407.24-.207.429-.053.098.047.627-.254.774.127.337-1.16-.19-.56 1.844-.26.5-.801 1.013.333.084.44.5-.24.098-.847-.415-1.087.528-.6-.021-.327.788.114 1-.234.689.187.873-.367.31.4.815.027 2.013-.327 1.203-.44.577-.487.521.12.148-.293.239.286.267-.393 1.042.267-.254-.087.655-.734 2.048-.206.506-.4.521.08-.042.346.443.26-.746.16-.633.474-.007.267.457.153-.077.567.176-.36.084.18.443-.267-.246-.273.26-.027.099-.393.514-.047-.472-.234.711.027.239-.367.648-.04.816-.58.598.04.514-.4Zm-10.028 17.074.028-.034h.014l.254.12.077.52-.239.16-.19-.546.056-.22Zm-1.09.08.105.107-.021.113-.211.08-.134-.173-.028-.067.014-.06.07-.027.205.027Z" fill="#FDFBF5" stroke="#171619" stroke-width=".5"/><path d="m122.848 30.373.232.273-.358-.133.126-.14Zm-.992.093-.134.067.021-.114.05-.073-.014-.087-.007-.026.19-.02-.014.133-.092.12Zm3.138-4.415.057-.033 1.759-.194 1.682.7.774-.126.267.487.584-.3-.295.953-.282.314-.211-.094-.169.46.612.694 1.042-.38.105.927-.591.18-.119-.26-1.555.047-.444-.607-.865-.04-.268.293-.943-.1-.337-.787-.753-.253-.859-.76.577-1.028.113-.313.07.113.049.107Zm-25.796-.94.148.013.063.027.042.073-.021.113-.211.08-.134-.173-.028-.067.014-.06.07-.027.057.02Zm1.421-.04.12.053.077.52-.239.16-.19-.547.084-.253h.014l.134.066Zm-52.156-2.255.978.387-.035.4.253.027.718-.867.668-.134 1.464-.066 1.309.293.619-.367.415.2.246-.34.81-.16.007-.573-.732-.087-.092-.62.127-.007.493.247.169-.28.267.106.232-.733.352-.074-.078-.433.45-.08.275-.44.521.333.077.347.599.12.21-.227.388.474.71.173.247-.914.724-.013.76.68.76-.293.331-1.087 1.154.5.887-.247.33 1.127.83.674.507-.027-.056.334.535-.014.38.434.697-.02.816-.167-.056-.4.752-1.374.718-.38 1.063.574 2.709.326.267-.833 1.696.133.134-.914.295-.206.479.013.366.387 2.21-.24.056-.12 1.133-.527.147.28.732.027.507-1.948 1.027-.087.472.274.612-.927 1.013-.647.81.26.583 1.094-.239.206.324.407-.31.787.36.587 1.259.667.007.474.443.013.099.854 1.013-.134.851.227.62-.467.9.407.725-.674.816.174.289-.547 1.196.674 1.027 1.514 2.076.433.043.994.281.147-.05 1.32.472.3.957-.653.429.34-.197.6-.429-.127-.471.407.028.28.64.507.957-.047.338.727.675-.106-.056-.394.394-.186-.091-.28.323-.154-.098-.3.295-.294.113 1.534h.324l.084.254.901-.374.387.14.338-.9.577.44.788-.307.119-.86-.408-1.094-.527-.24-.162.9-.774-.22.028-.14.288-.367-.492-.2.584.007-.324-.56.852.32.682-.727-.704-.66-1.252 1.374.049-.38-.823.086-.317-.553.697-1.688.675-.34.465-.654.809.007-.113-1.214.5.234h1.26l.232-.5.929-.38.401-.56.014-.114.64-.927.732.293.162.454.577-.06 1.562.473 1.414-.007 3.139-1.594.598.654 1.041-.147.458.28-.746 1.214.549.354.204-.134.141.307-.437.574.317.173-.014.934-.669.193.598.367 1.598.1.471.534-.091.267 1.182.787-.753.74-1.386.22-1.084-.46.042-.4-1.513-.38-1.161 1.674 1.351 1.367.183-.034-.295-.273.577-.747.654.307.739-.867.197.513-.957 1.668.648.38-.444.78 1.879-.193.127.64.485-.033v.086l.697.82.957-.093.535.347.098.58-.049.047.204.467.591.253-.478.427-.261-.166-.267.2-.655-.48-.703.086-.43-.233-.26.306-1.252-.213.443 1.274-.289.067-.548.793-.563.287.183.22.668-.127.31.234-.078.633-.366.374.936 1.027-.316.527.126 1.327-.485-.633.077-.48-.429-.014-.078.747.395.007.408.607-.887.22.155.567.112.08-.218.3.331 1.647-.274.794-.479.387 1.83 2.7 1.843-.053.415 1.188v.193l.613.56.584-.52.844-.16.296-1.58.049-.167.338-.374.422.154.309-.174.542.52-.049.487-.901 1.248.211.566.796-.146.577.44.935-.234.831.26.626-1.373.626-.427.036-1.087.534.173.535-.207.324-.507 2.301-.2.739.334.267 1.033.633-.34 2.055.107-.021.46-.612.334 1.013 1.487-.253.207.162.827 1.878.433.113.107.521.48.352-.02 2.047-1.16.028 1.527.711 1.24-.035.648-.64.907.957.86-.085.413.641.294-.704.914.063.567-.964.053-.302.567-.261.013-.162.094-.52.847-1.316-.02-.035.48.527.834-.267 1.434.528.6-.035.9.323.087-.021.333-1.724.547-.281-.287.154-.76-1.245-.433-.45 1.794-.739.413.126.487-.387 1.047.556 2.528 1.246.293.521.6-.212.801.31.854-.176.22-1.464-1.2-.816.813-.999-.327-.584.68-.57-.08-.591.334-.64-.694-1.183.674-.253-.354-.718-.12-.267-.893-.514-.107-.155-.68-.387-.307-.717.54-.401-.253.295-.687-.809-.154.542-.327.07-.607-.76.207-.317-.567-1.196-.273-.169-.527-.837.02-.31.454-.788-.074-.901-.407-.077-1.04-.725-.254-.64.314-.204.513-1.302.087-.823.36-2.4-.713-.893.26-.409.873-.344-.42-.345.434-.626-.08-.233.22-1.111-.114-.373-.36.295.674-.084.767-.767-.04-.415.747-.775.32-.175.153-.043.034-.218-.067h-.218l-.957.12-.809.547-.866 1.26-1.203.701-.774 1.254-2.153.82-.556.92-.31.06-.788 3.335-.943.14-.809-.28-.514 1.06-1.224 1.428-.443-.207-.289.074-1.013.153-.422.307-.296-.1-.549.34-.035.4-.267.254.83.213.232.587-.211.914-.612.333-.113.36.225 1.648-.478.687.359.62-1.914.1-.394.487.07.873-.422.22.12.507-.887.147-.479-.687-.38.06.338 1.16-.76.821.17.82-.367.18-1.217.447-.739-.24-.127-.993-.302-.26.112-.507-.78.206-.395.26-.851-.333-.26.513.19.474-1.26.834-.056.12-.901.587-.106.82-1.323.56-.183.047-.218-1.16-.943.193-.4.62-.205-.073-.788.834-.563.14-.598.08-.19-.56-.964-.08-.127-.027-.732.073-.422-.12-.133-.053-.62-1.134-.035-1.274.514-1.094-1.626.24-.823 1.02-.492.227h-1.014l-.155-.046-.232-.14-.288-.14-.556-.114-.141-.667-.549-.1-.148-.473-.633-.514-.894-.047-.513.32-.521-.14-.204-.253.345-.6-.486-.887-1.611.94-.486.974-1.098-.334-.196-.126-.521-.354-.092-.12.042-.493-1.674-.394.422-.193-.07-.32.246-.187-.218-.1.344-.12-.372-.247-.092-.033-.718-.32.233-.474-.55.14-.253-.527-1.393-.694-2.252 1.241-.267.26-.127.474-.936.093-.436.654-.464-.027-1.563.747-.323.514.112.693-.577.487-1.47.14-.521.507-.5-.64-.739.7-.541-.227h-.338l-.07.174-.535-.12-.612-.494.077-.734 1.33-.773.204-.807-1.049-1.067-.218-.94.978-1.495-.098-.913-.795-.44.922-2.175-.676-2.208.274-1.26-.19-.887.486-.087v-.347l-.155-.533-.739-.454-.21-1.16-1.197-1.248-.204-.62.317-.22 1.048.274.985-.234 1-1.547-.26-.754 1.343-1.187.148-.654.81-.907.935.074.183-.26.324.386.992-.88.197.26.359-.087.267-.2-.176-.346.788-.22.605-1.148.725-.273-.302-.24.056-.374.415-.206.317.353.661-.2-.302-.574.703-.553-.175-.4 2.188-2.995-.26-.554-.556-.22-1.197-1.28-2.814-.62-.268.393-.802.267-.95-.707.028-.927-.373-.5 1.007-3.015-1.056-.36.479-1.16-.795-.828-.613.627-1.506.18-.992-.22-.45-1.034-.528-.14-.577 1.14-2.181-.02-.275-.56-.457-.133-.106-.52.514-.78-.26-.674-.648.06-.457-.58.563-.26.302-.914.683-.18.162-1.054.83-.42.289-.6.802-.294.886.474.043-.374-.099-.2 1.14-1.58.106-1.521-.634-.187-.274-.367-.753-.113-.408-.434.014-.053.464-.507-.133-.614.288-.346-.295-.64-.599.16-1.435-.828-.584.08-.282.587-1.203-.313-.352-.027-.387-.02.317-.527-.12-.587.592-.753-.268-.307.028-.807.81-.374-.732-1.274.64-.7.732-.047.246-.713.471.327 1.31-1.148-.036-.353.52-.527-.555-1.24.704-.194-.127-.607.33-.22Z" fill="#FDFBF5" stroke="#171619" stroke-width=".5"/><path d="m97.277 77.153.422-.307 1.013-.154.289-.073.443.207-.267.52.253 1.034-1.309.467-.316.026-.317-.086-.155-.527-.366.006-.83-.213.267-.253 1.19-.067-.317-.58Zm14.08-11.692h.218l.219.067.042-.034.176-.153.774-.32.415-.747.767.04.084-.767-.295-.674.373.36 1.112.114.232-.22.626.08.345-.434.345.42.408-.873.894-.26 2.399.713.823-.36 1.302-.087.204-.513.641-.314.724.254.078 1.04.9.407.789.073.309-.453.838-.02.168.527 1.197.273.316.567.76-.207-.07.607-.542.327.809.153-.295.687.401.254.718-.54.387.306.154.68.514.107.268.894.717.12.254.354 1.182-.674.64.694.591-.334.57.08.584-.68.999.327.817-.814 1.463 1.2.176-.22-.309-.853.211-.8 1.787-.56.936.926.239-.066.901.813.985.314 2.716 2.674.218.32.613.507.176.394-.24 1.14.915 1.14.317.06.337.828-.049.84-.38.5.465 1.234-.528 1.714.338.427-1 .807-1.435-.7-.373.373-.176.96.176 1.115-.992.526-.767 1.281-.162-.147-.162.214-.021.247.514.193.936 1.12.119.067.465.507-.43.033-.175.38.168.574.577-.774 2.836 2.848.612-.3.669.427.675-.273-.211 1.267-.007.46.838.573-.197.18.858 1.815 1.872.227.035.066.507.154 1.583-.38.443.967-1.21.5-.127.387.275.466-.064.287-.323 2.235-1.126 1.614.246.933-.309.454-.676.193-.514-.233-.549-.194-.654.527-1.119 2.094-1.105.634.338.06.071 1.094-.247.107.169.42-.19.467-.288.1.161.54.444.06-.141.16h.422l-.126.434h.429l-.183.213.267-.14.05-.04.133.407-.274.006.352.12-.036.321-.084.04.471-.327.043.107.042.22.035-.434.486.107-.204.207.471.033v.293l.331-.026.591.513.162-.193.126.033.662.234h.112l.401.046.113.054.64.233.226-.22.872.454-.366 2.234-1.407 2.414-.148 1.407.711.501 1.569 2.227 2.118-.126.619-.361.788.134.212.793.464.394-.225.867.246.74-.098.907-.634.281.88 1.767-.908.914-1.224.02-1.717-1.274-.071-.634-1.28-.373-.964.287-.233.106-1.787 1.387-.457-.613-.359.12-1.203 1.127-.078 1.554-.668.447-.19.627.33 1.207.036 2.481-2.125 1.507-1.52-.013-.437-.667-.007-.093.183-.354-.359-.333-.316.253-.507-.4-.486.04-.021.307-.471-.093.211.306-2.392 1.348-1.401.373-1.245-.567-.352.247-.253.44-.669.894-1.886.78-1.041 2.194-1.204.948-.19.94-1.562-.133-1.752-.881h-.246l-.528-.293 2.048-2.355-.141-.72.352-1.12-.113-.481-.837-.366.042-2.188-1.717-.414.078-1.76-.606-.521h-.175l-1.26.414-1.816-.847-.204.513-.14-.113-.078.287-.746.34v.227l-.147-.174-.444.227-.38.534-.443-.38-1.168-.007-.528.42-.162.987-1.224-1.594-1.358.887-2.674-.427-.852-.493-.105-.047-.922.28-.077.207.028.453-.922.787-.844.201-1.154-.254-.148-.747-.598-.207-.268.047-.112 1.001-.514.253-2.196-.707-.189.233-.803-.26-.352.107-.471.133-.134.527-.471.42-1.133.134-4.131-.254-2.561-.48-.26.46.176.754-.345.087-3.16-1.334-1.681-1.874-.338.12-.176-.287-.366-.073-.155.186-.549-.847-.83-.593-.718-.114-.084-.446-2.885-.941-.36-1.634-1.322.053-1.105-.286-.148-.521-.696-.286 1.104-.287 1.049-2.848.373-.52 1.267.093.31-1.247-1.394-.6-.324.08-.781-2.288 1.611.594.796-.287.063-.034.12-.366-.331-.22-.197-.074-.366-.653.654-1.414h.134l.472-.807 1.33.133 1.73.647-1.125-1.04-.113-.801-.352-.193-.542-1.601 1.02-.193.043-.847.675-1.388-.387-.613-.936.653-.147.06-.57.527-1.091.2-.05.047-.682.44-1.54-.56-2.056-2.188-.563-.12-1.379-1.607-.323-.273-.57-.641.88-1.04-.008-.22.408-1.474-.661-.927.274-.154-.148-.96-.76.08-.893 1.06-1.034-.166-.078-1.608.514-.813-.788-.7-1.556.333.796-2.488-.07-2.728.64-.373.133.053.422.12.732-.073.127.026.964.08.19.56.598-.08.563-.14.788-.833.204.073.401-.62.943-.193.218 1.16.183-.047 1.323-.56.106-.82.9-.587.057-.12 1.26-.834-.19-.473.26-.514.851.334.394-.26.781-.207-.112.507.302.26.127.993.739.24 1.217-.446.936.4.303-.4 1.491-.494.05-.507.985-.7.098-.7.423.246.126 1.668.317-.02.218.307.26-.194.183.334.479-.34.436-.934 1.105-.534.922.734-.028.433.816.087.577-.553.929.393-.035.32.654.62.732-.086.077.56.359-.34.31.3h.746l.76.7.541-.38.69.907.535.147.429-.34.619.353.408-.247.092.307 1.048.514-.274 1.267-1.231.96-.31-.1-.253.747-.43.194.099.2.155.046-.078.16-.443-.186.105.333-.232.174.035-.44-.485.446-.45-.193-.465.587-.141-.273-.366.066-.379.28.14.187-.014.093.148.314 1.168.42.802-.767.127-.073.246-.467.669-.34.239.146 1.351-.46-.218-.493.288-.067.542-.534 1.309-.18.274-.653.697.18.408-.2.035.28.423-.22.548.26.416-.467-.036-.474.845-.146.577.667.528.126.176-.22 1.196-.066.267-.527h.049l.359-.214.12.62.76.074.675-.24.62-.8-.81-.84.127-.508.387.14-.331-.747.141-.9-.394-1.16-.253-.26-.732.513-.422.7-.437-.313.282-1.514.76-.914-.218-.42.422-.874-.471-.814-.824-.066-.049-1.714-.605-.6-.634.06-.112.046-.479-.027.24-.813-.894-.607.176-.387-.31-.314.261-.133.028-.267.112-.24-.45.367-.464-.22-.134-.76-.401-.327-.225.52-.338-.273-.352.146-.021-.073-.45-.273.619-.948-.31-.193.071-.62v-.074l-.338-.433-.894-.1.816-1.3-.112-.534.612-.374-.366-.613.331-.007.521-1.928.38-.326-.831-.98.253-.941-1.217-.28-.401-.994-.57-.32.056-.367ZM217.485 34.208l-1.069-.16.619-.867.099.686.351.34Zm21.455 7.716.289.5.711.1-.141.147.823.894-.288.574.007.947-.19-.027.443.827.401.1.056.474-.295.193-.155.987-.499.334-.099.48-.493.14-.372.5-.57-.08-1.112 1.614-1.295.527-.802 1.014-2.266.667-.5.36-.267.62-4.665 1.9-2.843 1.782-2.083.833-1.436 1.788-.534 1.24.267-1.067-.387.807-.31.034-.028.186.324-.093-.507.847-.591.447-1.78.533-1.675.08-1.189.6-1.006.014-1.387.42-.267.314.12-.24-4.293.886-2.195 1.128-1.858.12-1.02.613-.176.054.155-.247-.683.24-.704 1.074-.858-.48-1.464.246-1.238.567-2.4 2.255-1.33 1.927-.767.48-.197.554-.781.453.584.847.985.034-.76-.54.535-.027 1.196 1.4 1.26.3-.964.974-1.71.854-1.576 1.914-.95.14-.5-.567.317.167-.028-.38.76.48.232-.153-.359-.227 1.239-.18.605-1.034-.985-.133-.592.36-1.182.107.064.273-.226-.14-1.041 1.16-.471 1.068-1.45-.587.091-.727-.788-.58-1.196-.14-1.119-.494-.288-.374.387-1.087-.141-.053-.056-.06-.19-.18-.444.053h-.105l-.218-.753-.542.2-.528-.234-.176-.387.275.207.035-.32.999-.287.106-.467.837-.807-.732-1.487.275-.72-.022-.134.767-1.214-.232-.146.028-.18-.422-.807.352-.127-.626-.48-.268.133.007-.3-.26.127.232-.314-.211-.64-.359-.067v-.954l.24-.266.633.173.119-.467.789-.18.506-1.58.802-.04.043-.314.274.033.148-1.007-.415-.627.077-.347-.401-.286.493-.6-1.021-1.001.669-1.34-.24-.801 1.056-.147.957-1.254-.373-1.433-.507.22-.999-.16.148-.774-.612-.7.028-.454 1.112-1.474.211.2.063-.62 1.316-.167.296-.854.584-.513.577.02.232-.767.464.02.014-.28.507-.207-.274-.347.063-.76.218-.047-.851-.44.471-.7.345.133.246-.66.38-.12.092.26.232-.414v-1.007l.267-.16.612-1.727-.169-.814.402-.32-.324-.214.084-.4 1.183-3.261-.451-.367.57-.367-.901-.346.437-.46-1.042-2.468.204-.214.24.173.485-.44-.373-.186.028-.354.254-.3.302.127-.183-.254.493-1.634-1.182-.28-.19-.894-.43-.546-.147-.094-.078-.167h.275l.119-.427-.359-1.007-.401-.133.472-.5-.415-.187.485-.54-.225-.82.957-.574 1.295.613.499-.086 1.014.313 1.344.92.654-.406.45.473 1.19.14.633-.186.95.833.091.647.683.487 1.175-.473.436.313 1.971-.107-.106.394.697.34.014.5.485.347.113.727.464.54-.309.514.33.38-.569.734.689-.087.345.72-.929.667.415.207.141.927 1.956.127.225-.6.338.2.366-.447 1.126.006.267-.907.627.334.408-.28.746.36.746-.1.682.22.802.807 1.028-.093.084.56.345.193.134.98 1.013.834 1.323-.347.148-.373.45-.16.162-.634.584-.333.879.193 1.063-.547.704.38.443-.086.682.513 1.542.287.028.434.907.867 1.133.166.247-.493.436-.113 1.822.433.05-.453-.423-.7.345.013.05-.407.837-.407.746-.127.436.334.936-.667.239-.48.38.113.239-.32.873.267.563-.634.38.407 1.393-.194.887 1.174.654-.293 1.042.066-.31.167.19.274-.338.586.261.08-.218.22.147.488.458.213.14.394.648-.38.443.513.317-.247.373.36.689.14-.675.387.239.46-.429-.046.204.506-.169.3-.486.007.183.374-.675-.327-.183.474-.732-.347-.204-.46-.626.406-.437 1.04.19 1.708Z" fill="#FDFBF5" stroke="#171619" stroke-width=".5"/><path d="m47.653 86.844.613.5.534.113.07-.166.346-.007.541.227.74-.7.499.64.514-.514 1.477-.14.577-.487-.112-.694.33-.513 1.556-.747.471.027.436-.654.936-.093.127-.474.267-.26 2.245-1.247 1.393.693.254.534.549-.14-.233.474.718.32.084.033.38.247-.351.12.225.106-.254.187.078.32-.422.187 1.674.4-.042.494.085.12.52.353.197.127 1.098.334.486-.967 1.618-.94.486.886-.345.6.204.254.514.14.513-.32.894.046.633.514.148.474.549.1.14.666.556.114.289.14.232.14.148.047 1.02-.007.493-.227.823-1.02 1.626-.24-.514 1.094.035 1.273.62 1.134-.641.374.078 2.728-.796 2.48 1.555-.333.796.694-.514.82.077 1.608 1.035.166.893-1.06.753-.08.148.954-.274.153.661.927-.408 1.474.007.227-.88 1.04.57.64.324.274 1.38 1.607.555.12 2.055 2.188 1.548.56.683-.433.042-.047 1.098-.2.563-.527.154-.06.93-.654.393.614-.675 1.387-.043.847-1.02.2.542 1.594.352.194.112.807 1.126 1.04-1.73-.647-1.33-.133-.48.8h-.126l-.654 1.414.366.66.197.074.33.22-.12.367-.063.033-.795.287-1.611-.594.774 2.281.323-.08 1.394.6-.31 1.248-1.266-.087-.366.513-1.049 2.848-1.105.287-.985.514-1.653-.24.33.893-.028.054-.33.04.007.353-.233-.18-.077.234-.155-.254-.105.42-.17-.173-.619.74-.682.327-.366.427.063.34-1.196-.12-.43.687.156.333-.331-.173-.274.447.077.173-1.302.834-.091.48h-.676l-.507.307-.71 1.1-.021.374.52.473-.31.854.916 1.514-.029 1.334-.07.04-.246.434.105.513-.725.294-.133.426-.992-.153-1.366 1.294-.541-.153-.134-.928.872-.526-.19-.361.219-.106.182.24-.028-.487-.795-.354-.556.374-.485-.113-.345.253-.992.067-.5.373-.056.527-.873.62-.056.387.401.48-.5.487-.344 1.187-1.872-.06-1.252.307-1.253 1.007-.394-.493-.725.066-.253-.273-.985-.167-.437-.42-.098-.033-.514-.42-.197-.767-.872-.214-.718.067.169.207-.514.393.113.4-.226.14-1.365-.5h-.225l-.464.133-.085-.893-.302-.347-.486-.487-.394.18-1.365-.227-.514.2-.436-.18-.021-.286-.739.006.303-1.52-.965.026-1.632-.693-.105-.32-.395.04-.302.313-.17-.167-.611.16-.324.467-.725-.066-.316.34-1.028-1.334-.302-1.094-.324-.087-1.935-2.581-.14-.64-.697-.454-.352.087.717-.874-.5-.073.367-1.487 1.14-1.854-.535-.341.232-1.974.957-.513 1.541-1.568.64-.08.606-.847.542-.24.12-.36-.346-.66 1.837-2.721-.176-.681-.514-.92-.851-.534-1.429.407-.584-.207-.176-.313.247-1.134-1.563-.533-.492-.461-.155-.907.31-.633-1.429-1.328-.31-1.053.451-.807.091-1.081-1.006-.647-.316.147-.31-.213-.183-.928-.746-.106-.71-1.001-.606-.273-.528-1.567-.281-.187 1.611.053 2.316.5 1.611-.613 1.977.32.437-.24 1.118.127.986-.307.767-2.388-.176-.934.619-.273.837-.927.057-1.428.316-.26.092-1.053.4-.754-1.456-2.288-1.154-.22-.584-1.614.359-.947.873-.26.246-.473.809.08.844-.327ZM8.55 40.163l.352.394-.443-.113.091-.28Zm-.168-1.04.4.547-.316.387.169-.314-.253-.62Zm-.064-3.495-.464.987-.014-.647.253-.42.225.08Zm-1.787-2.187.274.34-.197.166-.077-.506Zm2.667-2.181.091.233.26-.067.085.494-.302.053.077.447-.19.027-.148-.22.204.046-.169-.213.204-.414-.436-.26.324-.126ZM27.353 2.274l.443-.72.24.153.442-.273.176.253-.232.72.401.627-.471-.293-.028.833-.26.08.365.307-.64.027.478.26.563-.347-.31-.613.627-.114.176.347.338-.113-.437-.374.352-.16-.035-.233 1.703-.614.697-.654L31.905 1l.507.42-.732.96.38.147.162-.413.697-.16.162.773.415.107-.141.96.24.554.119-.66.359-.234-.155-.466.514.04.028-.507.633-.16.19.333.88-.02-.17.4 2.309.92.373.988.802.82-.253.22.337-.1.838.467-.204.373-.268-.026.366.147-.176.146.45-.467 1.415.394.971-.2 1.323.147.12.493-.31.427-.063 1.174-.655.433-.267.7-1.33-.066-.014.62.035.087-.084.453.344.2.409-.22.175.3-.042 1.021.577.674.76-.04-.19.893.183.594.781.747.211-.22.176.38.577.107.106.387-.296.56.45.76.352.053 1.035-.613-.035-.234.556-.126.64.707-.134.513-.788.774h-.436l-.38.42-.472-.3-.52.627.02.653-.309-.16-.302.514.478.62.289-.013.035-.987.894 1.147.717.02.662.754-.099.773.324.307-.324.207.127.607-.704.193.556 1.24-.52.528.035.353-1.31 1.147-.47-.327-.247.714-.732.047-.64.7.732 1.274-.81.373-.028.807.268.307-.592.754.12.587-.317.527.387.02.352.026 1.204.314.281-.587.584-.08 1.436.827.598-.16.295.64-.288.347.134.614-.465.506-.014.054.408.433.753.114.274.367.634.186-.106 1.52-1.14 1.582.099.2-.042.373-.887-.473-.802.293-.289.6-.83.42-.162 1.054-.683.18-.302.914-.563.26.457.58.648-.06.26.674-.514.78.106.52-.493.56-1.175.034-.366-.6-.59-.314-1.14.147-.205.934.247.567-.401.927-2.231.887-.795.053-.19-.253-1.105 1.04-.493-1.274-.83-.226-.661.74-1.626.26.211-.92.324-.28-1.429-.094-.809-.587-.704.36-.4-.146-.599.373-.865.094-.83.693-.24-.26.113-1.467-.338-.12-.359 1.18-1.084.127-.69 1.014-.794.347-1.38.186-.71-.233-.113-1.367-.598.073-.288-.914 1.034-1.72.633-.58.788-.248.078-.786-.563-.78-1.33.28-.289-2.102-.492.507-.444-.146-.21.413-1.162.46-.26.467-.612-.14-.352.334-.802.106-.366-.246-1.478.06-.098.4-.38.2-1.654.133-.471.48-.162.674-1.541.914-.204.713-1.239.56-.95 1.134-.197-.326-.155-2.348.24-.667-.472-2.701.408.013.55-.427.316.387.197-.093.098-.58-.59-.4.527-.007.14-.754.711-.433.303-.654.422-.02-.253.053.232.12 1.541-1.427.943-.06-.288-.534.302-.833-.408-.24-.077.66-.458.28.028.58-1.013.374-.105-.32-.26.046-.12.374-.528.327-.345-.127-.183.407-.401-.314-.33.194-.48-.24-.147.36-.183-.08.33-1.44.48.753.274-.007-.057-.834-.352-.613h.676l.303.267.612-.294.563-1.094 1.4-1.033-.577.166-.169-.46-1.59 1.274-.767-.32-.465.407-.809-.754.17-.5-.261-.534-.507-.127-.274.28-.331-.313.12-.4.921-.033-.042-.307.387-.187.303.707-.317.267.056.34.528-.36.465.327-.275-.807.443-.287-.239-.314.17-.553-.303.247-.198-.767.387-.214-.288-.06.07-.333.662-.1.563-.534-.24-.327.444-.807-.275-.14-.661.407-.338-.227.176-.487-.535-.526.007.64-.218-.107-.197.467.443.347-.394.153.021.487-.584-.1.26-.54-.506-.154-.71.767.337.52-.605.047-.204.367-.493.1-.02.747-1.035.44.183-.994-.422-.453-.345.24-.324-.247.95-1.44.352-1.854h.267l.458-.76.598-.128.626-.98.289-.113.464.48-.267-.474.07-.567.654-.34-.295-.02-.183.307-.338-.453-.07.8-.317.127-.126-.234-.57.68-.36-.353-.02.367-.648-.074-.07-.52-.43.38-.429-.026.289.473-.788.754-.204-.387-.345.02-.338-.934-.31-.16.824-.613-.07-.48-.402-.06-.38-.714.415-.86-.633-.107-.654-1.127.21 1.02-.513-.033-.225-.6-.26.013-.014.353-.599.24-.07.9-.232-.24.084-.48L1 22.683l.084-.447.563-.82v-.747l.26.12.127-.214-.556-.147-.415-1.134.444.267.337-.153.022-1.007.682.107.035-.674.69.62.422-.807.732-.267-.774.154-.014-.614-.352.707-.394-.127-.197-.813.288.173.36-.287.112-.647.352.227.133-.327.289.127.098-.18.943.413.746-.293.563-.987.296.407.316-.307.676.04-.042.314.359-.167.218-.5h.31l-.317-.06-.507.586.127-.32-.282-.733-.464.026-.289-.34.655-.473.549.3.056-.294.338.02-.057-.713.69.233.07-.253.486.08.112-.64 1.042 1.02 1.506.327 1.9-.787.978.287.429-.12.457-.3.282-.781.352.153.4-.186.388-.574.535.334.14-.5.338.546-.38.127.366.22.05.567-.057-.267.668-.127.219-.78-.324-.067.098-.386.824-.234.232.52.598.06.31.44-.078.354.81.594-.064-.354.225.114-.373-.42.204-.254-.218-.734.289-.413.619-.04.021-.207-.457-.14-.394.233-.268-.273-.556.267-.4-.44-.711-.22.253-.047-.155-.214.767-.22.092.207.232-.28.5.26.52-.093.387-.314-.063-.273.253.14.162-.467-1.337.627.021-.24-.324.073.036-.387-.401.654-.556.167-.387-.247-.423.293-.162-.16.556-.814-.168-.553.612-.394-.556-.653.246-.207.345.334.654-.034 1.316-1.1.085-.5.654.093-.021.487.274-.927.577-.14.345-.654.127.727.296-.153.351.266-.4-.4h.358l-.021-.28-.394.007.26-1.12.563-.234.627.22.921-.594.028-.32.423.067ZM143.557 46.04l-2.047 1.16-.352.02-.521-.48-.112-.107-1.879-.434-.162-.827.253-.206-1.013-1.488.612-.333.021-.46-2.054-.107-.634.34-.267-1.034-.739-.333-2.301.2-.324.507-.534.207-.535-.174-.035 1.087-.627.427-.626 1.374-.83-.26-.936.233-.577-.44-.795.147-.211-.567.9-1.247.049-.487-.541-.52-.31.173-.422-.153-.338.373-.049.167-.289 1.554-.844.16-.584.52-.612-.56v-.193l-.416-1.188-1.843.054-1.83-2.701.479-.387.274-.794-.33-1.647.218-.3-.113-.08-.155-.567.887-.22-.408-.607-.394-.007.077-.747.429.013-.077.48.485.634-.126-1.327.316-.527-.935-1.027.365-.374.078-.633-.31-.234-.668.127-.183-.22.563-.287.549-.794.288-.066-.443-1.274 1.252.213.261-.306.429.233.704-.087.654.48.267-.2.261.167.478-.427.289.22.014.507.443-.08-.028.514-.394.233.056.267.366.354.078-.32.232.093.443-.374.289-1.034.464.007 1.105.66-.19 1.341-.253.58.541-.22-.021.4.422.16.19.494.796-.487.197.754.478-.527.739.253-.127-.293.535-.587-.091.72.717.1.542-.253.521.173.422.407.901.207.134.327.26-.06-.07-.28.161-.074.563.274.014-.254.197.053.134.24.12.26.661.114-.042.254.528.166-.028.187.563-.053.295.26.324-.26.823-.04-.12.5.711.754-.169.533.373.08.971-.627.43.147.492.253.092.44.436-.006.204.32.246-.14.078.66.872.294-.042.887.345.06.063-.227.577.26.113.487 1.857.387.282.5.422-.007-.387.474.373.52-.401.267-.317.173-.781-.433-.478.307-.788-.354-1.302 1.654-.261.647.134.687.866.654.168-.114-.19.967Zm-21.856-15.527.036-.094.049-.073-.014-.087-.007-.026.19-.02-.014.133-.092.107-.134.066-.014-.006Zm1.028-.027.119-.107.233.274-.359-.134v-.033h.007ZM97.277 77.153l.317.573-1.19.067.035-.4.55-.34.288.1Zm14.08-11.692-.028.387.57.32.401.994 1.218.28-.254.94.831.98-.38.327-.521 1.928-.331.007.366.613-.612.374.113.533-.817 1.3.894.1.338.434v.074l-.071.62.31.193-.619.948.45.273.021.073.352-.146.338.273.225-.52.401.327.134.76.464.22.451-.367-.113.24-.028.267-.26.134.309.313-.176.387.894.607-.239.813.478.027.113-.047.633-.06.605.6.049 1.715.824.066.471.814-.422.874.218.42-.76.914-.281 1.514.436.313.422-.7.732-.514.253.26.394 1.16-.14.901.33.747-.387-.14-.126.507.809.84-.619.8-.676.24-.76-.073-.119-.62-.359.214h-.05l-.267.527-1.196.066-.176.22-.528-.126-.577-.667-.844.146.035.474-.415.467-.549-.26-.422.22-.036-.28-.408.2-.696-.18-.275.653-1.309.18-.541.534-.289.067.218.493-1.351.46-.239-.146-.669.34-.246.467-.127.073-.802.767-1.168-.42-.148-.314.014-.093-.14-.187.38-.28.366-.067.14.274.465-.587.45.193.486-.447-.035.44.232-.173-.106-.333.443.187.078-.16-.155-.047-.098-.2.429-.194.253-.747.31.1 1.231-.96.275-1.267-1.049-.514-.091-.307-.408.247-.62-.353-.429.34-.535-.147-.689-.907-.542.38-.76-.7h-.746l-.31-.3-.359.34-.077-.56-.732.086-.654-.62.035-.32-.929-.393-.577.553-.816-.087.028-.433-.922-.734-1.105.534-.436.933-.478.34-.183-.333-.26.194-.219-.307-.316.02-.127-1.668-.422-.246-.099.7-.985.7-.05.507-1.491.494-.303.4-.936-.4.366-.18-.168-.82.76-.821-.338-1.16.38-.06.478.686.908-.1-.12-.507.423-.22-.07-.873.393-.487 1.914-.1-.359-.62.479-.688-.225-1.647.112-.36.612-.334.212-.913-.233-.587.366-.007.155.527.317.087.316-.027 1.31-.467-.254-1.034.267-.52 1.225-1.427.513-1.06.81.28.943-.14.788-3.335.309-.06.556-.92 2.153-.821.774-1.254 1.204-.7.865-1.26.809-.548.95-.153ZM165.048 145.522l-.141.787.401 1.367-.492-1.287.232-.867Zm-.162-.714-.042.401.366.306-.38-.273-.148-.4.204-.034Zm-30.568-5.709.19-.94 1.204-.947 1.041-2.195 1.886-.78.668-.894.254-.44.352-.247 1.245.567 1.4-.373 2.393-1.347-.211-.307.471.093.021-.307.486-.04.507.401.316-.254.359.334-.183.353.007.093.436.667 1.52.014 2.125-1.508-.035-2.481-.33-1.207.19-.627.668-.447.077-1.554 1.204-1.127.359-.12.457.614 1.787-1.387.233-.107.964-.287 1.28.374.071.633 1.717 1.274.485 1.901-.457 1.167.225.614-1.513 1.353.281.141-.133 1.954 2.04.22.423 1.014-.423 1.9-.942 1.468.119 1.033 2.245 4.049 1.386 1.394.915.44.401-.053.267 1.3-.689-.647-.373.941-.781.64-.31.654 1.168 1.467 1.196.607.416-.527.295.467.282-.027-.634.727-1.168.267-.718.46-.478-.227-.612.154-.809.56-.824-.153-.084-.181.401-.053-.563-.127-.183-.28.183-.213-.366-.074.099.454-.387-.093-.289.293-.964-.253-.697.36-.323.38.309.407-1.062-.16-.106-.42-.619-.434-.802-.06-.218.433-1.344-.113-1.422 1.267-1.126.467-.52 1.461-.627-.194-.816.614-.647.1-.613.587-2.082-1.547-1.443-.247.028.413-.689-.48-2.871-4.402-.127-.126-.211-1.094.331-.614-.261-1.1.261-1.528.401-.527-.141-.173-.12.007-.344-.14-.31.26-.781-.34-.422.233-.753-.627-.922.274-1.541-1.134-.88-1.488-.746-.54Z" fill="#FDFBF5" stroke="#171619" stroke-width=".5"/><path d="m147.449 12.992.57.12-.127.594.429.773.612.054.38-.72-.119-.234.936-.14.992.56.957-.033.57.513v1.554l-.373.287-.246 1.24-1.126.974.633 1.04 1.654.44.183-1.64.471-.46.936-.127-.746 1.214.887.634.936-.214 1.33.694.049.4.535-.393.64.587 1.323.2.295.433 1.014.527.725-.253.19.22 1.667.093 1.042-.42.464.56-.127.267.247.373-1.105-.046-.662.473-.056.84-.703.527-.078 1.174.232.3-.323.594-.683.053-.007.427-.429-.006-.887.987-1.084.073-.267.233-.007 1.081-2.153-.027-.085.907-.422-.013.394.307-.83.527-.028.713h-.099l-.401.167-.675-.353-.451.827.232 1.187-1.238 1.247-.345 1.12.465.18.098.4-1.33 1.528.141.44-.493 1.314.479.96-.134 1.328.619.487.275.813.591.014.197-.02.113.733-.655.62-.837 1.468.063.327-.535.6-1.766-.1-.225.2-.366.107-.464-.087-1.844-1.22-1.196.206-1.007-.927-1.315.02-.197-.367-.169.12-.866-.66-.134-.68.254-.654 1.309-1.647.781.353.478-.306.781.433.317-.173.401-.267-.373-.52.387-.474h-.422l-.289-.5-1.857-.387-.113-.487-.577-.26-.063.22-.345-.06.042-.88-.872-.294-.071-.66-.246.14-.204-.313-.429.006-.099-.447-.492-.253-.423-.147-.971.627-.373-.08.176-.533-.718-.754.12-.5-.823.04-.324.26-.295-.26-.563.06.021-.187-.521-.173.042-.254-.668-.113-.12-.254-.127-.24-.204-.053-.014.253-.563-.273-.169.073.078.28-.26.06-.134-.32-.901-.206-.422-.407-.014-.514.584-.173-.078-1.981-.499-.194-.563.934-.204-.48-.528.02-.169-.72.324.08.591-.827.69-.387.612.147.211.326-.176.22 1.703-.433.063-.394-.084-.24-.331.134-.246-1.26.133-.388 1.049-.233-.345-.947.908-1.334-.183-1.12-.155-.214.225.007.028-.714.521-.633.563.353 1.02-.12.444-.2.246-.634.992-.167.211-.433-.26-.82.387-.407.049-.227.106-.407 1.245-.607.859-.94-.338-.434.12-1.774.612.414.112-.58.282.486.225-.287.162-.033.901-.52.035-.76.211-.227.042-.047.289.027.633-.334.718-.333.774.02ZM206.705 122.425l.338.527.303-.066.112.593.725.574.26.113.746-.44.31.534-.225.4-.936-.034-.711-.573-.753-.167-1.21 1.021-.092-1.815.31-.366.176.16.408-.207.127-.814.112.56Zm-.323-1.147.197.514-.296-.234.099-.28Zm2.167-7.443.422.554.894.066-.12.18.225.087-.351.094-.064.293.633.82-.696.287-.078.6-.893.14-.064.641-.211.066.169.181-.352-.04-.64.787-.38-.107-.007.327-.324-.301-.028.307-.338-.013-.316.627.056 1.04-.415-.246-.26.273-.514-.92-.465.333-.035-.24-.38.107v-.314l-.506-.086-.458.54-.457-.36-.211-.727.436-.861-.401-.447.267-.373.303.193 1.175-.146-.422-.467.267-.387-.091-.52.922-.507.33-.48.324.266.246-.4.549.04.141-.333.302.26.894-.68.204.273.19-.354.528-.073Zm27.155-1.087.429.14-.373.254.021.48-.704-.014-.084-.8.282.427-.043-.274.394.14.078-.353Zm-11.928-9.891-.527.354.661-.621-.134.267Zm16.875-8.744-.19.367-.908.487-.45-.087-.395.66-.358-.286-.233.247.064.553.408.44 1.886-.74-.282.207.148.48-.352.48-1.055.14-.014.714.365.62.535.467 1.619.654 1.442-.72.366-.694 1.647 1.047.506-.04-.119.58.499.174-.443.233-.014 1.147-.274-.013-.092.513-.556-.053-.267.353-.155.747.345.247-.486.094-.204.566-.689.301.154.093-1.013 1.134-.246 1.68-.239-.233.119.22-.591 1.087h-.218l.141.134-.873.273-.316.58-.472-.08-1.428 1.428-.43.08-.703-1.034-.528-.14.063-.52-.591-.567-.549-.04-.309.293-.57-.32-.915-.047-.127.26-.422-.253-.373.1-.887-1.034.099-.82-.479-.807.507-.814-1.506-1.194-.682.034.176-.147-.204-.027-.176.434.316-.1-.147.2-.5-.154-.303.487-.978.167.148.294-.26.146-.204 1.114-.62-.347-.274.154.056-.587-.436-.334.45-.28-.528-.447-.626.327.064-.333h-.324l-.345.393.007-.313-.485.04.513-.34-.338.053-.492-.48.19-.947 2.026-1.121 1.281-1.167.521.027.591-.387.64-.934.831-.387.112-.46.24-.153.225.2.119-.467 1.45-.68.056-.367 1.288-.127.169-.32 1.562-.68.281-.394.627.273 1.147-.68-.078.18.437-.066-.022.306.627-.366.506.086.873-.653.288-.027-.126.227.739-.214Zm18.302 2.595-2.526-1.574-1.45-.527-1.147.373-1.449.014.19-1.868-.676.074-.133-.514.598-.734.851-.153.598-.04.444.327.232-.4.858.28 1.014-.34.408.32.675-.394-.14-.48.33.073-.119.62.211.354.57-.44-.12.874.26-.2-.07-.754.683.147-.226.613.402.294.253-.24.197.92.035-.467.239.38h.957l-.274.094.218.253-.225.42.281.114-.084.306.288-.113.099.914.429.327.042.426.324.094-.324.147-.274-.487-.739-.12.746.347.211.38-.07.78-.598.547-1.232-.374-.767-.593Z" fill="#FDFBF5" stroke="#171619" stroke-width=".5"/><path d="m125.825 9.617.633-.247.225.667.908.58.866-.246.549.607.316-.074.331.314.415-.214.246.42.76-.08.922 1.014 2.027.92 1.379.087 1.048-.4.423.174.063-.194.246.474.634.186 2.42-.86.753.134-.035-.247.605-.314.873.04 1.294-1.067 1.112-.4.162.82-.485.28.935.187.401.334.113.773-.633.334-.289-.027-.042.04-.211.227-.035.767-.901.52-.162.034-.225.28-.281-.48-.113.573-.612-.407-.12 1.774.338.434-.859.934-1.245.607-.099.406-.049.227-.387.4.261.82-.205.434-.999.167-.246.627-.443.2-1.021.12-.563-.354-.527.634-.029.714-.232-.007.155.213.183 1.12-.908 1.335.345.947-1.048.233-.134.387.239 1.267.331-.14.091.24-.063.394-1.703.433.183-.22-.218-.326-.605-.147-.69.387-.591.833-.324-.086.169.727.528-.02.204.48.563-.934.5.187.077 1.987-.584.174.014.507-.521-.174-.541.254-.718-.1.091-.72-.535.586.127.294-.739-.254-.478.527-.197-.754-.795.487-.19-.493-.423-.16.022-.4-.542.22.253-.58.19-1.341-1.105-.66-.464-.007-.289 1.034-.443.373-.232-.093-.078.32-.366-.354-.056-.266.394-.234.028-.513-.443.08-.014-.507-.289-.22-.591-.254-.204-.467.05-.046-.099-.58-.535-.347-.957.093-.696-.82v-.087l-.486.033-.127-.64-1.878.194.443-.78-.647-.381.957-1.667-.197-.514-.739.867-.655-.307-.577.747.296.274-.183.033-1.351-1.367 1.161-1.674 1.513.38-.043.4 1.084.46 1.386-.22.753-.74-1.182-.787.092-.267-.472-.534-1.597-.1-.598-.366.668-.194.014-.933-.316-.174.436-.574-.141-.306-.204.133-.549-.353.746-1.214-.457-.28-1.042.146-.598-.653-3.138 1.594-.324-1.868-.127-.186-.154-.474.978-.253.295-.594.838-.193.14-.56.176.2.528-.194.303.26 1.027-.467.296.62.351-.366.641-.08.077-1.294.493-.04.225.287.134-.494h.225l.971.607.274-.187-.211.18.451.334.119-.567-.436-.634.619-.22.654-.747.451.007-.007-.58 2.632.14.45-.354Zm-9.577 6.156-.422-1.347.767-.34.33.173-.38.7.022.7-.317.114Zm8.571 10.024.049.014.07.113.113.093 1.759-.193 1.682.7.774-.126.267.487.584-.3-.295.953-.282.314-.211-.094-.169.46.613.694 1.041-.38.106.927-.592.18-.119-.26-1.555.047-.444-.607-.865-.04-.268.293-.942-.1-.338-.787-.753-.253-.859-.76.577-1.028.057-.347ZM151.347 89.798l.901.12.218.12.338-.133.436.2.345-.287.316-.133-.007-1.187.38-.307.021.213.12.287.303.7.57.334.007.68 1.857.087 1.351 1.027.12.46-.232.314-1.562.606-1.584.38-.506-.153-.035-.067-1.872-.226-.859-1.814.197-.18-.837-.574.014-.467Zm5.925 4.069.338.22.148-.247.457.1.387-.26 1.597-.047 1.063.567.225-.187.31.594-.169.507.239.653-.211.42.809.58 1.429-.8-.796-1.007.043-1.253 1.027-.394.514-1.234 1.379.047.964-.707.31.087-.254-.774.352-.547.584-.26.676-2.708.971.56 1.273-.367.831-.473-.331-.72.211-.274.443.02.521-.827 1.112-.607-.106-.527-1.147-1.307.247-.36 1.182-.447-.085-.54-.457-.374.134-2.274-.584.167-.873-.254-.183-1.247.936-.333.429.46 1.358-.727.113-1.18.654-1.028.993-.033.021.413.682.574.866.387.767-.06.38-.02.38.12.007.073.225.667.225.08 1.295-.847.746.187.436-.347.528.234.542-.2.218.753h.105l.444-.053.19.18.056.06.141.053-.387 1.087.288.374 1.119.493 1.196.14.788.58-.091.728 1.449.587-.71 1.527-.035-.18-1.084 1.574-.176 1.014-1.583 1.934-.746.54-.401 1.054-1.386.84-.929 2.201-1.865 1.16-1.049 2.762-1.132 1.3-.345.027-1.872 2.935-.577 1.874-.985 1.047-1.098 2.281.035 1.427-.267-.193.239.387-.317.14.592 2.447 1.709 3.388-.436.287.042.727 1.478 3.462 2.653 2.761 2.787.587-.303.093.134.2.098-.193v.26l1.464.7-.282.26.155.454.366.32.267-.1.19.647-.985.367-.626.92-.394-.14-.598.32-.472.627.176.334-.654-.24-.373.373-.619-.113-.507.286-.661.921.246.373-.894.887-1.034-.26-.415.454-2.182.653-1.696 1.054-.548.894.007 1.194-.817-.227-.837.827.183-.387-.429.194-.296 1.2.204 1.794-.281.32-1.344.027-.415.4-.528 1.641-.085 2.268-.387.593-.626.2-.415 1.274-.591.314-.218 1.147-.401.053-.915-.44-1.386-1.394-2.245-4.048-.12-1.034.943-1.467.422-1.901-.422-1.014-2.041-.22.134-1.954-.281-.14 1.513-1.354-.226-.614.458-1.167-.486-1.901 1.225-.02.907-.914-.879-1.767.633-.28.099-.907-.247-.741.226-.867-.465-.393-.211-.794-.788-.133-.619.36-2.118.127-1.57-2.228-.71-.5.147-1.407 1.408-2.415.366-2.234-.873-.454-.225.221-.64-.234-.113-.053-.401-.047h-.113l-.661-.233-.127-.034-.162.194-.591-.514-.33.027v-.294l-.472-.033.204-.207-.485-.106-.036.433-.042-.22-.042-.107-.471.327.084-.04.035-.32-.352-.12.275-.007-.134-.407-.049.04-.268.14.183-.213h-.429l.127-.434h-.422l.14-.16-.443-.06-.162-.54.289-.1.19-.467-.169-.42.246-.107-.07-1.093-.338-.061 1.105-.633 1.119-2.094.654-.527.549.193.514.234.675-.194.31-.453-.247-.934 1.126-1.614.324-2.234.063-.287-.274-.467.127-.387 1.252-.533Z" fill="#FDFBF5" stroke="#171619" stroke-width=".5"/><path d="M49.6 228.28c-1.28 0-2.493-.107-3.64-.32-1.133-.227-2.007-.48-2.62-.76v-3.96h4.4c0 .413.093.713.28.9.187.187.527.28 1.02.28.413 0 .707-.06.88-.18.187-.133.28-.327.28-.58a.682.682 0 0 0-.26-.54c-.173-.16-.473-.32-.9-.48l-1.72-.6c-1.48-.56-2.547-1.22-3.2-1.98-.64-.76-.96-1.787-.96-3.08 0-1.573.513-2.767 1.54-3.58 1.04-.827 2.767-1.24 5.18-1.24 1.16 0 2.247.12 3.26.36 1.027.227 1.853.533 2.48.92v3.58h-4c0-.667-.413-1-1.24-1-.4 0-.687.053-.86.16-.16.093-.24.267-.24.52a.63.63 0 0 0 .28.54c.2.133.52.273.96.42l1.74.6c1.413.48 2.44 1.107 3.08 1.88.653.76.98 1.76.98 3 0 1.693-.573 2.973-1.72 3.84-1.133.867-2.8 1.3-5 1.3Zm7.277-3.56h1v-9h-1v-3.28h8.78c1.72 0 3.033.373 3.94 1.12.906.733 1.36 1.927 1.36 3.58s-.454 2.853-1.36 3.6c-.907.733-2.22 1.1-3.94 1.1h-2.18v2.88h1.92V228h-8.52v-3.28Zm7.28-5.72c.773 0 1.16-.427 1.16-1.28V217c0-.44-.1-.76-.3-.96-.187-.213-.474-.32-.86-.32h-.68V219h.68Zm20.173 5.72h.8V228h-7.84v-3.28h1.2l-.32-1.6h-2.72l-.32 1.6h1.2V228h-6.84v-3.28h.8l3.38-12.28h7.28l3.38 12.28ZM75.89 221h1.84l-.82-3.98h-.2l-.82 3.98Zm9.873 7v-3.28h1v-9h-1v-3.28h7.6v3.28h-1v9h1V228h-7.6Zm19.919-15.56h6.56v3.28h-1V228h-5.62l-5.86-9.02v5.74h.96V228h-6.56v-3.28h1v-9h-1v-3.28h7.22l5.26 8.02v-4.74h-.96v-3.28Z" fill="#FDFBF5"/></svg>