<svg width="500" height="606" fill="none" xmlns="http://www.w3.org/2000/svg"><g clip-path="url('#clip0_32_3090')"><path d="m375.579 513.219 4.477-86.129c1.39-7.622 2.636-15.243 3.955-22.865l3.723-22.895c2.477-15.272 4.766-30.559 7.07-45.861 2.246-15.301 4.477-30.603 6.548-45.919l3.101-22.995c.898-7.318 1.869-14.621 2.709-21.938a56.66 56.66 0 0 0 2.188-.681l.029.231.188 2.145c.13 1.42.174 2.854.232 4.289.159 2.854.203 5.723.29 8.593.101 5.723.144 11.461.159 17.199.072 11.462.058 22.934-.044 34.414-.13 22.938-.246 45.876-.507 68.814l-.478 68.842-.174 34.414v34.414c-27.352-2.449-33.466-4.072-33.466-4.072Zm-47.447-241.39a33.02 33.02 0 0 0 4.36-8.245c1.131-2.898 2.101-5.854 2.985-8.839 1.767-5.955 3.173-11.998 4.448-18.054 1.246-6.086 2.361-12.172 3.259-18.301a269.427 269.427 0 0 0 2.188-18.461s10.75-6.332 13.734-9.317c2.101-2.101 5.94-2.333 8.041-2.275a4.348 4.348 0 0 0 3.376-1.333 2 2 0 0 0-.421-3.333 4.26 4.26 0 0 0-2.767-.768c-2.564.145-8.243.638-10.923 2.391a24.12 24.12 0 0 1 2.883-1.999c30.859-7.637 81.58-1.942 81.58-1.942s.913 6.68 2.289 18.895a73.227 73.227 0 0 0-4.622-7.433c-.826-1.174-1.651-2.348-2.506-3.507a42.655 42.655 0 0 0-2.782-3.463 15.315 15.315 0 0 0 1.246 4.347 22.544 22.544 0 0 0 2.173 3.912 23.318 23.318 0 0 0 2.883 3.42 15.545 15.545 0 0 0 3.608 2.724c5.201 45.731 17.168 169.041 13.618 308.885a94.413 94.413 0 0 1-47.737 8.158c.449-11.462.739-22.938 1.101-34.399l.797-34.414c.493-22.938.739-45.89 1.014-68.828.102-22.953.218-45.905 0-68.857-.13-11.476-.304-22.938-.608-34.414-.174-5.738-.396-11.476-.666-17.214-.174-2.855-.29-5.724-.537-8.593-.115-1.435-.217-2.855-.42-4.289l-.26-2.13-.044-.246c.652-.217 1.304-.435 1.956-.667 1.941-.739 3.868-1.507 5.751-2.405a43.635 43.635 0 0 0 5.52-3.014 47.252 47.252 0 0 0-6.142 1.362c-2 .565-3.956 1.246-5.912 1.927-1.926.739-3.853 1.493-5.751 2.347a69.86 69.86 0 0 0-5.607 2.797 30.578 30.578 0 0 0 6.201-1.13c.565-.145 1.116-.319 1.666-.478-1.304 7.23-2.492 14.49-3.752 21.735l-3.724 22.894c-2.477 15.273-4.766 30.56-7.07 45.861-2.231 15.302-4.476 30.603-6.548 45.934l-3.086 22.996c-.956 7.665-1.985 15.33-2.868 23.024l-14.285 85.303s-46.115 10.216-76.727.406c0 0 26.281-146.002 39.088-240.97Zm82.638-64.162c.173 3.318.376 6.622.724 9.926.319 3.303.724 6.607 1.347 9.882.319-3.333.406-6.651.42-9.969.015-3.318-.101-6.637-.231-9.941-.189-3.318-.391-6.621-.725-9.925-.333-3.304-.739-6.593-1.362-9.882-.304 3.332-.391 6.65-.405 9.969-.015 3.318.087 6.636.232 9.94Zm.173-21.75a1.7 1.7 0 0 0 1.641-1.702 1.706 1.706 0 0 0-1.641-1.703 1.706 1.706 0 0 0-1.641 1.703 1.702 1.702 0 0 0 1.641 1.702Zm-59.964 27.024a41.24 41.24 0 0 0 4.694-1.188 28.2 28.2 0 0 0 8.605-4.651 23.495 23.495 0 0 0 6.042-7.752 18.818 18.818 0 0 0 1.985-9.419 28.465 28.465 0 0 1-3.535 8.593 28.89 28.89 0 0 1-5.94 6.839 30.716 30.716 0 0 1-3.738 2.594 33.707 33.707 0 0 1-4.057 2.144c-.696.342-1.412.642-2.144.899l-2.187.855c-1.493.478-2.999.913-4.521 1.478a67.446 67.446 0 0 0 4.796-.392Zm-16.009-9.592c.029-2.217-.015-4.13-.145-5.723l2.26 1.463a12.832 12.832 0 0 0 8.287.84 803.624 803.624 0 0 0-3.912 18.142l-3.752 18.156a673.401 673.401 0 0 1-3.941 18.069c-.724 2.985-1.463 5.984-2.318 8.94a39.213 39.213 0 0 1-3.317 8.593c4.042-29.98 6.737-54.874 6.838-68.48Zm4.187-24.532a17.872 17.872 0 0 1 5.404-12.157c5.418-3.043 1.709 5.622 1.506 6.115.073-.073.377-.391.884-.84.319-1.58.609-3.246.884-4.956l.043-.261c.783-4.926 1.449-10.317 1.985-15.954a.609.609 0 0 1 .015-.159 99.391 99.391 0 0 0-3.695-31.704c-2.144-8.288-6.939-8.564-6.939-8.564l-28.976 32.24 27.759 32.661a6.278 6.278 0 0 1 1.13 3.579Z" fill="#000"/><path d="M.102 349.51s22.847 60.018 65.296 51.86a53.494 53.494 0 0 1 13.097-.825c8.62-4.782 17.139-9.694 25.672-14.577 8.519-4.927 16.965-9.926 25.281-15.157 8.359-5.159 16.545-10.578 24.455-16.345 1.985-1.449 3.999-2.854 5.882-4.419 1.898-1.536 3.883-2.985 5.723-4.594l5.534-4.868c1.681-1.768 3.4-3.526 5.158-5.275-5.738 8.086-13.228 14.766-20.921 20.953-1.926 1.55-3.853 3.115-5.881 4.535l-6.013 4.347c-4.1 2.768-8.2 5.521-12.401 8.129-8.403 5.202-16.965 10.129-25.731 14.664-8.75 4.579-17.645 8.825-26.758 12.607 39.145 2.187 80.45 42.644 84.854 51.439 4.897 9.795 102.037-94.692 124.29-160.564 6.592-19.504 23.847-53.44 47.042-87.578.11-.156.207-.321.289-.493.493-.87 1.261-2.449 2.115-4.26l-2.26-1.464a12.206 12.206 0 0 1-3.288-4.158c-.753.855-1.261 1.362-1.261 1.362s-40-29.386-48.983-40.007c-8.982-10.607 0-21.228 0-21.228s26.527-41.225 40.001-54.686a33.462 33.462 0 0 1 15.458-8.23c-30.83 5.999-103.384 31.168-179.937 136.946C55.605 347.496.102 349.51.102 349.51Zm467.315 250.317c-1.043-.044-2.086-.073-3.115-.16 13.358 1.362 29.7-.449 34.596-15.765a17.867 17.867 0 0 0-4.418-5.115 3.364 3.364 0 0 0-2.599-.89 3.367 3.367 0 0 0-2.4 1.339 24.888 24.888 0 0 0-3.36 5.637c-1.029 2.058-2.072 4.158-3.275 6.245a19.979 19.979 0 0 1-4.853 5.666 14.915 14.915 0 0 1-6.969 2.738 27.74 27.74 0 0 1-3.607.305Z" fill="#000"/><path d="M392.601 558.849c1.304-1.71 2.477-4.782 2.752-10.317.696-13.81 10.75-6.072 10.75-6.072 17.11 9.057 21.804-4.97 23.079-7.187 1.275-2.202 11.952-3.449 16.197 3.159a21.954 21.954 0 0 0 5.636 5.39 19.67 19.67 0 0 0-5.578 1.536 25.878 25.878 0 0 0-5.056 2.811 18.022 18.022 0 0 0-4.23 4.101 7.999 7.999 0 0 0-1.884 5.607 14.82 14.82 0 0 1 3.55-4.1c1.347-1.145 2.782-2.217 4.259-3.26l4.462-3.188c1.507-1.087 2.999-2.203 4.477-3.492a80.966 80.966 0 0 0 10.33 6.115c-1.897-.01-3.776.37-5.52 1.115a18.284 18.284 0 0 0-4.853 2.927 15.48 15.48 0 0 0-3.666 4.376 12.214 12.214 0 0 0-1.666 5.405c1.275-1.435 2.26-2.84 3.506-4.072a39.98 39.98 0 0 1 3.695-3.492c2.593-2.217 5.432-4.1 8.504-6.259a103.552 103.552 0 0 0 4.679 2.231c2.217.696 4.289 1.42 6.215 2.145a18.631 18.631 0 0 0-5.403 2.216 23.175 23.175 0 0 0-4.665 3.565 17.417 17.417 0 0 0-3.535 4.825 9.765 9.765 0 0 0-1.029 5.869 24.43 24.43 0 0 1 2.955-4.666 42.729 42.729 0 0 1 3.651-3.97c2.536-2.594 5.346-4.956 8.041-7.839 31.018 11.664 27.527 26.111 27.527 26.111a28.843 28.843 0 0 1-.869 3.463 14.912 14.912 0 0 0-3.521-6.202 5.523 5.523 0 0 0-3.637-1.695 5.72 5.72 0 0 0-3.824 1.594 12.749 12.749 0 0 0-2.42 2.927c-.666 1.043-1.217 2.043-1.811 3.071-1.13 2.059-2.173 4.116-3.346 6.028a17.61 17.61 0 0 1-4.042 4.985c-.421.29-.812.637-1.261.913l-1.391.753a21.474 21.474 0 0 1-3.085 1.03 60.955 60.955 0 0 1-13.634 1.086 57.364 57.364 0 0 1-18.819-8.868c-14.734-10.331-31.192-9.781-42.232-15.678a15.255 15.255 0 0 0-.695-.377 9.759 9.759 0 0 1-4.666-6.712 9.773 9.773 0 0 1 2.073-7.908Zm20.688 1.811a72.41 72.41 0 0 0 5.52 3.84 70.456 70.456 0 0 0 5.853 3.289 40.167 40.167 0 0 0 6.287 2.608 41.411 41.411 0 0 0-5.085-4.521 72.591 72.591 0 0 0-5.519-3.84 69.96 69.96 0 0 0-5.853-3.289 39.626 39.626 0 0 0-6.288-2.608 40.269 40.269 0 0 0 5.085 4.521Z" fill="#000"/><path d="M464.301 599.667c-.348-.029-.696-.073-1.043-.101.202.014.391.043.594.072.145.014.304.029.449.029Zm-4.506-.638c.174.043.363.072.551.116.376.073.753.13 1.13.174-.565-.087-1.13-.174-1.681-.29Z" fill="#fff"/><path d="M429.18 535.28c-.123-2.989-.347-5.911-.42-8.839a49.26 49.26 0 0 1 .42-8.778 19.304 19.304 0 0 0-1.552 8.808 29.615 29.615 0 0 0 1.552 8.809Zm-30.582 5.466c.531-2.054.91-4.133 1.255-6.217.355-2.083.608-4.179.83-6.28.192-2.104.368-4.211.405-6.327a50.918 50.918 0 0 0-.174-6.346l-.696 6.287-.663 6.274c-.192 2.094-.415 4.186-.564 6.288-.164 2.1-.325 4.202-.393 6.321ZM413.68 17.425a53.233 53.233 0 0 0 1.199 9.983c.409 1.586.67 3.206.781 4.84a37.309 37.309 0 0 1-.028 4.97c.558-1.605.865-3.286.912-4.984a18.445 18.445 0 0 0-.557-5.067c-.713-3.242-1.37-6.507-2.307-9.742Z" fill="#000"/><path d="M416.715 27.977s-8.375-2.475-11.664 2.77c0 0-3.685-.735-5.414 1.043a10.404 10.404 0 0 0-12.32.227s-.527 8.784 6.427 9.093c0 0 7.084-1.405 6.032-7.926 0 0 1.262-2.437 5.414-1.045 0 0 3 7.93 8.057 5.317 5.057-2.613 3.468-9.479 3.468-9.479Zm-10.932 46.73a70.042 70.042 0 0 0-7.969 1.251 62.335 62.335 0 0 0-8.039 2.11l-1.438.514 1.037.92c1.805 1.6 3.7 3.111 5.396 4.817a71.214 71.214 0 0 1 4.824 5.374l.288.345.499-.236c1.4-.663 2.805-1.317 4.175-2.032l4.091-2.178a111.82 111.82 0 0 0 4.055-2.24c1.338-.771 2.65-1.586 3.96-2.404l1.791-1.118-1.848-.83a113.039 113.039 0 0 0-10.822-4.294Zm-.024.225c3.37 2.289 6.596 4.23 9.857 6.047l-.058-1.948c-1.365.724-2.728 1.45-4.066 2.221-1.343.763-2.66 1.57-3.97 2.387l-3.936 2.448c-1.305.827-2.576 1.715-3.851 2.594l.786.11a71.532 71.532 0 0 1-5.243-4.967c-1.659-1.742-3.12-3.677-4.671-5.523l-.401 1.433a57.563 57.563 0 0 0 7.742-1.972c2.568-.808 5.142-1.693 7.811-2.83Z" fill="#000"/><path d="m389.991 78.901 10.068 10.34-7.544 8.437-16.352-12.35 13.828-6.427ZM410.295 50.55a32.798 32.798 0 0 0-2.661 5.774c-.725 2-1.296 4.053-1.707 6.14a37.376 37.376 0 0 0-.741 6.335 30.877 30.877 0 0 0 .393 6.348c.104-1.062.057-2.11.191-3.157a39.32 39.32 0 0 1 .285-3.126c.255-2.073.553-4.137.983-6.179.394-2.048.889-4.077 1.423-6.1a108.156 108.156 0 0 1 1.834-6.034Zm-27.896.398c-.114 1.752-.319 3.476-.554 5.182a33.265 33.265 0 0 1-1.069 5.015 17.474 17.474 0 0 1-2.014 4.623 11.838 11.838 0 0 1-3.604 3.571 9.015 9.015 0 0 0 4.324-3.056 14.172 14.172 0 0 0 2.38-4.816c.5-1.709.789-3.472.861-5.252a22.41 22.41 0 0 0-.324-5.267Zm33.682 29.15c2.668 1.014 5.316 2.049 7.879 3.27a82.582 82.582 0 0 1 7.555 3.871 74.69 74.69 0 0 1 13.693 9.826 134.35 134.35 0 0 1 22.261 25.645 70.752 70.752 0 0 1 4.228 7.376c.299.613.545 1.251.736 1.905a15.43 15.43 0 0 1 .243 6.135 15.39 15.39 0 0 1-.786 2.933l-.45.972-1.746 3.91c-1.175 2.601-2.272 5.233-3.409 7.849-4.566 10.455-8.652 21.092-12.423 31.875l.442-.296a23.491 23.491 0 0 0-3.233.468l-3.132.661-3.119.66a23.327 23.327 0 0 1-3.131.48v.227a23.72 23.72 0 0 0 3.204-.275l3.16-.49 3.149-.489a22.872 22.872 0 0 1 3.102-.287l.3.001.142-.297c4.914-10.319 9.512-20.784 13.631-31.43 1.034-2.66 2.108-5.304 3.104-7.978l1.511-4.004.364-1.006a16.868 16.868 0 0 0 .071-9.89 12.643 12.643 0 0 0-.903-2.041c-1.364-2.55-2.873-4.975-4.457-7.36-3.178-4.754-6.447-9.445-9.937-13.995a94.288 94.288 0 0 0-11.562-12.772 64.55 64.55 0 0 0-6.825-5.362 71.768 71.768 0 0 0-7.476-4.347 84.016 84.016 0 0 0-7.893-3.472 74.155 74.155 0 0 0-8.228-2.49l-.065.217Z" fill="#000"/><path d="M425.252 93.21c1.048 7.405 2.293 14.767 3.605 22.115 1.335 7.343 2.691 14.68 4.374 21.956 1.622 7.287 3.267 14.575 4.387 21.955a235.287 235.287 0 0 1 1.563 11.078c.218 1.85.417 3.702.575 5.55a40.67 40.67 0 0 1 .213 5.406l.927-.82c-6.822-.314-13.642-.475-20.465-.64a561.346 561.346 0 0 0-20.477-.134 512.95 512.95 0 0 0-20.482.632c-3.412.209-6.823.45-10.23.796a84.515 84.515 0 0 0-5.095.687 15.178 15.178 0 0 0-4.962 1.439l.126.188a8.083 8.083 0 0 1 2.403-.656 34.651 34.651 0 0 1 2.52-.304c1.689-.156 3.388-.225 5.086-.297 3.396-.15 6.8-.195 10.205-.209 6.807-.087 13.62-.004 20.433.045l40.889.266.907.006.021-.827a32.851 32.851 0 0 0-.499-5.755c-.272-1.86-.597-3.703-.915-5.547l-2-11.031c-1.391-7.338-2.448-14.733-3.583-22.119-1.079-7.396-2.561-14.717-4.108-22.023-1.576-7.3-3.256-14.578-5.196-21.802l-.222.045Zm21.656 144.554a16.1 16.1 0 0 0 4.406-5.2 32.26 32.26 0 0 0 1.501-3.098l.652-1.598.523-1.636a54.354 54.354 0 0 0 2.25-13.479c.096-2.272.049-4.542.014-6.807-.204-2.255-.266-4.521-.595-6.757-.326-2.235-.638-4.47-1.092-6.676-.51-2.2-1.011-4.395-1.641-6.559-.006 2.267.116 4.502.229 6.732l.25 6.676.106 6.644c-.05 2.205-.023 4.415-.163 6.609l-.179 3.292c-.06 1.097-.249 2.176-.336 3.269-.076 1.099-.25 2.176-.433 3.254-.164 1.083-.338 2.162-.587 3.224a29.86 29.86 0 0 1-4.905 12.11Z" fill="#000"/><path d="M445.946 223.477a5.563 5.563 0 0 0 3.741-1.578 7.068 7.068 0 0 0 1.901-3.392c.465-2.421.541-4.9.223-7.345l-.898-14.421.128 14.443c.18 2.349.001 4.711-.529 7.006a5.856 5.856 0 0 1-1.695 2.763 4.262 4.262 0 0 1-2.796 1.077l-.075 1.447Zm-83.449 381.58c1.204.111 2.415.136 3.622.073a14.895 14.895 0 0 0 7.215-2.014 19.891 19.891 0 0 0 5.39-5.144c1.42-1.957 2.665-3.942 3.911-5.883a24.37 24.37 0 0 1 3.912-5.275 3.796 3.796 0 0 1 2.448-1.087 3.888 3.888 0 0 1 2.565 1.145 18.342 18.342 0 0 1 3.882 5.55c-6.432 14.678-22.76 14.866-35.871 12.2.956.16 1.941.291 2.926.435Zm-70.265-48.339c1.463-1.579 2.941-4.521 3.782-9.983 2.1-13.664 11.314-4.97 11.314-4.97 16.096 10.751 22.195-2.725 23.688-4.797 1.477-2.072 12.242-2.217 15.791 4.782a22.207 22.207 0 0 0 5.042 5.926 19.541 19.541 0 0 0-5.679.971 26.497 26.497 0 0 0-5.317 2.275 18.335 18.335 0 0 0-4.636 3.652 8.106 8.106 0 0 0-2.449 5.39 15.15 15.15 0 0 1 3.956-3.709c1.463-1 2.984-1.927 4.563-2.811l4.767-2.725c1.608-.927 3.201-1.883 4.81-3.028a81.98 81.98 0 0 0 9.634 7.129 13.945 13.945 0 0 0-5.578.551 18.542 18.542 0 0 0-5.129 2.434 15.923 15.923 0 0 0-4.099 3.971 12.203 12.203 0 0 0-2.188 5.215c1.405-1.304 2.535-2.607 3.897-3.694a39.514 39.514 0 0 1 4.028-3.101c2.81-1.942 5.809-3.536 9.083-5.361a101.197 101.197 0 0 0 4.434 2.695c2.129.927 4.129 1.84 5.983 2.768a18.78 18.78 0 0 0-5.621 1.651 23.447 23.447 0 0 0-4.998 3.072 17.025 17.025 0 0 0-3.999 4.448 9.701 9.701 0 0 0-1.623 5.724 24.31 24.31 0 0 1 3.419-4.347 43.109 43.109 0 0 1 4.028-3.564c2.796-2.319 5.824-4.391 8.794-6.984 29.671 14.736 24.731 28.763 24.731 28.763a26.177 26.177 0 0 1-1.218 3.361 14.963 14.963 0 0 0-2.868-6.535 5.5 5.5 0 0 0-3.434-2.058 5.81 5.81 0 0 0-3.984 1.203 13.067 13.067 0 0 0-2.694 2.666c-.768.971-1.406 1.913-2.101 2.869-1.347 1.927-2.593 3.883-3.955 5.666a17.57 17.57 0 0 1-4.52 4.55c-.45.246-.884.55-1.348.782l-1.463.609a24.771 24.771 0 0 1-3.173.71 61.47 61.47 0 0 1-13.705-.319 57.52 57.52 0 0 1-17.791-10.722c-13.619-11.767-30.048-12.897-40.421-19.881-.232-.145-.449-.304-.652-.449a9.744 9.744 0 0 1-3.377-11.284 9.747 9.747 0 0 1 2.276-3.511Zm20.399 3.898a75.423 75.423 0 0 0 5.1 4.376 73.147 73.147 0 0 0 5.49 3.869 40.796 40.796 0 0 0 5.984 3.231 42.185 42.185 0 0 0-4.593-5.014 75.942 75.942 0 0 0-5.099-4.376 70.5 70.5 0 0 0-5.491-3.868 39.052 39.052 0 0 0-5.998-3.246 41.163 41.163 0 0 0 4.607 5.028Z" fill="#000"/><path d="M358.307 604.362c.217.044.449.102.667.16.159.029.304.058.463.072a30.191 30.191 0 0 1-1.13-.232Zm3.187-49.542.015.015.001-.006.003-.004.005-.004.005-.001h-.029Zm-9.648-7.143.014.014.001-.005.003-.005c.002-.001.003-.003.005-.003l.006-.001h-.029Z" fill="#fff"/><path d="m333.773 540.746-.682-5.898c-.212-1.96-.441-3.913-.604-5.868-.197-1.953-.281-3.908-.317-5.86a20.343 20.343 0 0 1 .624-5.825 13.951 13.951 0 0 0-1.495 5.79 34.68 34.68 0 0 0 .06 5.994 51.81 51.81 0 0 0 .875 5.906 44.754 44.754 0 0 0 1.539 5.761Zm-33.744 3.071c.688-2.252 1.237-4.534 1.758-6.822.533-2.286.968-4.591 1.383-6.9.389-2.314.764-4.631 1.017-6.967.293-2.333.464-4.68.513-7.032-.489 2.303-.931 4.6-1.374 6.899-.455 2.297-.859 4.601-1.272 6.905-.386 2.309-.792 4.614-1.12 6.935-.343 2.318-.675 4.639-.905 6.982ZM416.808 17.832s-2.901 3.1-5.324-5.089c0 0-1.415-3.622-5.787-.676 0 0-3.12 1.917-4.63-1.143a3.802 3.802 0 0 0-2.76-1.29 3.81 3.81 0 0 0-2.823 1.145s-1.004 1.003-3.318-.07c-2.315-1.074-6.085-3.658-7.65-1.745-1.565 1.913.601 3-1.237 5.192-1.839 2.19-4.004 1.604-3.404 4.103.601 2.499-1.346 4.099-1.054 6.528.293 2.43 1.195 16.49 3.132 17.802a30.597 30.597 0 0 1 5.186 5.704c.804 1.024 6.497 1.76 8.097-.307a12.98 12.98 0 0 1 4.188-3.278s3.259-2.534 5.673-.968c0 0 4.948-2.703 7.997 1.208 0 0 2.359.015 2.618-1.917.125-1.937.099-3.88-.079-5.813 0 0 1.202-.522 1.241 6.9.039 7.423-3.788 19.848-4.478 20.47-.691.62-6.538 4.366-18.762.519-12.225-3.847-14.146-11.032-14.732-12.88a87.93 87.93 0 0 1-1.141-11.427c-.04-1.401.418-7.87-3.655-11.477 0 0-2.672-2.644-4.033-1.203 0 0-2.851-5.143-2.046-14.325a6.271 6.271 0 0 1 2.487-4.468l.389-.287a5.847 5.847 0 0 0 2.249-3.72 3.778 3.778 0 0 1 1.458-2.496 3.773 3.773 0 0 1 2.799-.727c5.424.06 8.764-1.665 10.427-1.085 1.663.58 9.095-3.374 15.811 1.575a32.727 32.727 0 0 0 10.192 5.606c1.272.676 7.292 4.69 2.969 9.639Z" fill="#000"/><path d="M370.073 28.12a3.394 3.394 0 0 0-1.384 2.164c-.139.9-.014 1.822.361 2.653a45.382 45.382 0 0 1 1.536 4.731 13.277 13.277 0 0 0 2.508 4.537 4.712 4.712 0 0 0 2.264 1.428c.87.185 1.777.029 2.534-.438a3.53 3.53 0 0 1-2.364-.092 4.573 4.573 0 0 1-1.759-1.47 16.425 16.425 0 0 1-2.113-4.337c-.292-.778-.488-1.537-.76-2.379a14.426 14.426 0 0 0-1.05-2.359 3.81 3.81 0 0 1 .227-4.438Zm39.501 3.927a1.248 1.248 0 0 1 0-2.497 1.25 1.25 0 0 1 0 2.497Zm-15.449 2.044a1.248 1.248 0 0 1 0-2.496 1.25 1.25 0 0 1 0 2.496Zm20.778-9.416a11.885 11.885 0 0 0-5.438-.053 11.3 11.3 0 0 0-2.606.92 6.712 6.712 0 0 0-2.153 1.728 26.497 26.497 0 0 1 5-1.54c1.695-.375 3.412-.642 5.197-1.055Zm-15.661 3.14a14.94 14.94 0 0 0-5.988-.72 11.12 11.12 0 0 0-5.736 1.892 48.33 48.33 0 0 1 5.821-.762c1.94-.152 3.883-.213 5.903-.41Zm8.132 11.098c-.269.38-.583.725-.937 1.028-.319.27-.662.511-1.025.718-.722.441-1.541.762-2.45 1.304a3.554 3.554 0 0 0 1.535.166 3.857 3.857 0 0 0 1.494-.496 3.17 3.17 0 0 0 1.142-1.152c.285-.47.371-1.034.241-1.568ZM372.526 28.14a46.027 46.027 0 0 0 7.253 2.486c2.47.675 4.992 1.14 7.54 1.39a45.446 45.446 0 0 0-7.253-2.486 45.982 45.982 0 0 0-7.54-1.39Zm19.99 69.537s22.144 44.901 22.394 55.922l-7.465 10.536-14.229-8.904s-3.754-48.166-.7-57.554Zm-46.396 75.118a10.95 10.95 0 0 0 1.829-4.522c.065-.442.05-.892-.043-1.329a1.5 1.5 0 0 0-.977-1.165 2.099 2.099 0 0 0-1.347.19c-.39.157-.745.352-1.107.538l-.013.007-.012.01a19.906 19.906 0 0 0-2.456 2.471 15.527 15.527 0 0 0-1.812 2.994 14.18 14.18 0 0 0-1.099 6.822l.007-.028-.004.12h.113l.024-.054.007-.027c.171-.554.3-1.104.444-1.647.179-.537.297-1.08.478-1.606.32-1.064.745-2.08 1.137-3.104a22.946 22.946 0 0 1 1.437-2.975 10.293 10.293 0 0 1 1.945-2.696l-.025.017c.638-.371 1.533-.701 2.053-.42.426.236.307 1.049.241 1.757-.189 1.487-.638 3.011-.925 4.604l.105.043Z" fill="#000"/><path d="M354.134 179.884c1.818-1.636 3.601-3.313 5.47-4.818.45-.372.93-.707 1.433-1.004.219-.131.459-.225.71-.277l.88-.169a28.849 28.849 0 0 1 3.552-.434c1.197-.073 2.43-.03 3.67-.157a2.13 2.13 0 0 0 1.737-.867 1.921 1.921 0 0 0 .146-1.919 4.92 4.92 0 0 0-2.825-2.438 14.705 14.705 0 0 0-3.638-.888l.375.552c.17-.554.207-1.14.107-1.711a2.33 2.33 0 0 0-.329-.87 2.34 2.34 0 0 0-.64-.675 4.919 4.919 0 0 0-3.27-.568 20.065 20.065 0 0 0-5.883 1.812 30.506 30.506 0 0 0-5.201 3.166 28.832 28.832 0 0 0-4.416 4.13l.08.08a44.611 44.611 0 0 1 4.818-3.518 36.217 36.217 0 0 1 5.202-2.79 25.702 25.702 0 0 1 5.54-1.753 3.97 3.97 0 0 1 2.54.287 1.963 1.963 0 0 1 .631 2.16l-.121.53.496.023c1.193.025 2.377.206 3.523.539.568.135 1.101.39 1.564.747.462.358.843.81 1.117 1.326a1.527 1.527 0 0 1-.142 1.559 1.524 1.524 0 0 1-1.437.619c-1.199.005-2.407-.159-3.651-.202-1.248-.059-2.5.028-3.728.26-.309.046-.61.126-.914.195a3.332 3.332 0 0 0-.974.416c-.537.342-1.047.726-1.523 1.149a38.555 38.555 0 0 0-4.982 5.431l.083.077Z" fill="#000"/><path d="m354.12 179.9.016-.013-.01.009a55.522 55.522 0 0 1 9.245-3.196 21.86 21.86 0 0 1 4.813-.859 11.064 11.064 0 0 1 2.439.123c.374.02.74.115 1.077.278.337.162.639.39.887.67.292.516-.18 1.259-.678 1.728a3.314 3.314 0 0 1-1.938.815 19.406 19.406 0 0 0-4.984.737 20.75 20.75 0 0 0-8.61 5.058l.071.088a32.115 32.115 0 0 1 8.868-3.982 24.652 24.652 0 0 1 4.77-.84 4.037 4.037 0 0 0 2.462-1.241c.325-.344.572-.755.721-1.205a1.649 1.649 0 0 0-.158-1.492c-.65-.638-1.521-1-2.432-1.01a20.292 20.292 0 0 0-2.502-.094 28.789 28.789 0 0 0-5.004.305 21.753 21.753 0 0 0-9.11 4.016l-.01.008-.001.001-.012.016.08.08Z" fill="#000"/><path d="M331.485 193.488a11.695 11.695 0 0 0 5.616 6.091 12.11 12.11 0 0 0 4.123 1.126c1.421.112 2.851 0 4.237-.333l.092-.022.049-.032 9.814-6.543c.813-.554 1.634-1.099 2.433-1.685.804-.564 1.553-1.324 2.284-1.804a11.211 11.211 0 0 1 5.396-1.388c.476-.022.952-.021 1.43-.006a5.92 5.92 0 0 0 1.604-.123 4.42 4.42 0 0 0 2.762-1.811c.384-.52.561-1.163.499-1.806a2.724 2.724 0 0 0-.931-1.592 4.586 4.586 0 0 0-3.043-1.202 37.912 37.912 0 0 0-5.937.765 14.94 14.94 0 0 0-5.533 2.122l-.026.049c-.004-.018.028-.049.044-.043v.114c.031.007.077-.037.073-.071l-.027.048a17.452 17.452 0 0 1 5.594-1.493 48.934 48.934 0 0 1 5.763-.407c1.649.07 3.608 1.594 2.525 2.835a3.43 3.43 0 0 1-2.03 1.362c-.43.106-.874.152-1.317.136a19.065 19.065 0 0 0-1.511.05 11.258 11.258 0 0 0-5.79 1.799c-.856.674-1.423 1.395-2.191 2.01-.751.618-1.507 1.241-2.306 1.806a83.892 83.892 0 0 1-10.037 6.1l.14-.054a13.798 13.798 0 0 1-7.816-.706 12.161 12.161 0 0 1-3.325-2.185 13.607 13.607 0 0 1-2.554-3.151l-.104.044Zm33.664-26.707a31.597 31.597 0 0 0-4.117 1.156 28.139 28.139 0 0 0-3.9 1.686 14.506 14.506 0 0 0-6.182 5.61 14.233 14.233 0 0 1 6.431-5.101 27.542 27.542 0 0 1 3.906-1.384 30.822 30.822 0 0 1 4.032-.846l-.17-1.121Z" fill="#000"/><path d="m347.872 167.369.083-.36.002-.01c.585-2.686 1.109-5.4 1.504-8.131.202-1.365.38-2.735.533-4.108l.209-2.063.159-1.971.014-.097a93.738 93.738 0 0 0-1.139-21.921c-.617-3.63-1.443-7.169-2.401-10.744a16.524 16.524 0 0 0-2.434-5.215 7.97 7.97 0 0 0-5.104-3.361l-.417-.065-.345.379c-4.864 5.341-9.725 10.686-14.509 16.1l-7.207 8.093-7.132 8.161-.456.522.442.505 14.112 16.132 13.98 16.244-.018-.024a6.74 6.74 0 0 1 .89 5.129 17.316 17.316 0 0 1-1.955 5.118 41.638 41.638 0 0 1-6.733 8.821l.598-.046c-11.459-8.71-22.835-17.557-33.836-26.811-2.738-2.325-5.457-4.673-8.105-7.078a95.42 95.42 0 0 1-3.886-3.676c-.656-.61-1.221-1.272-1.817-1.916-.288-.326-.607-.639-.871-.976l-.755-1.027a15.582 15.582 0 0 1-2.271-4.467 14.889 14.889 0 0 1-.519-4.93 17.97 17.97 0 0 1 3.722-9.206l.068-.087.025-.039a933.537 933.537 0 0 1 11.806-17.795c3.994-5.894 8.112-11.7 12.251-17.484 4.173-5.754 8.423-11.472 13.08-16.791 1.208-1.27 2.359-2.645 3.637-3.778a26.865 26.865 0 0 1 4.169-3.088 38.24 38.24 0 0 1 9.657-4.046l-.151.02.028-.001.085-.001.067-.019a63.611 63.611 0 0 1 12.169-1.976 73.403 73.403 0 0 1 12.394.186l.032-.224a73.862 73.862 0 0 0-12.461-.718c-4.19.072-8.36.596-12.437 1.565l.151-.02h-.097l-.083.02a39.599 39.599 0 0 0-10.124 3.902 28.43 28.43 0 0 0-4.505 3.137c-1.423 1.2-2.581 2.56-3.854 3.846-4.836 5.326-9.203 10.993-13.503 16.702-4.304 5.707-8.374 11.577-12.428 17.453a945.985 945.985 0 0 0-11.904 17.809l.093-.125a20.198 20.198 0 0 0-4.175 10.589 17.151 17.151 0 0 0 .664 5.752 17.809 17.809 0 0 0 2.641 5.092l.859 1.139c.295.367.624.685.935 1.03.634.672 1.249 1.372 1.92 1.983a102.443 102.443 0 0 0 3.998 3.709c2.696 2.423 5.496 4.706 8.295 6.986 11.251 9.047 22.81 17.654 34.491 26.102l.329.238.269-.284a53.236 53.236 0 0 0 3.666-4.339 37.351 37.351 0 0 0 3.1-4.761 18.006 18.006 0 0 0 1.99-5.365 7.418 7.418 0 0 0-1.052-5.648l-.009-.013-.01-.011-13.778-16.416-13.646-16.529-.014 1.027 7.356-7.959 7.281-8.027c4.873-5.334 9.671-10.735 14.465-16.14l-.761.314a4.905 4.905 0 0 1 2.003.867 8.316 8.316 0 0 1 1.737 1.702 14.746 14.746 0 0 1 2.197 4.61c.979 3.444 1.799 7.007 2.523 10.534a94.92 94.92 0 0 1 1.729 21.58l.014-.096a6.062 6.062 0 0 0-.037.617l-.018.506-.045 1.026-.121 2.053a110.511 110.511 0 0 1-.357 4.099 167.064 167.064 0 0 1-1.101 8.173l.002-.009-.063.364.22.056Z" fill="#000"/><path d="M375.124 69.448a100.625 100.625 0 0 0 7.079 5.482 80.491 80.491 0 0 0 7.297 4.734l.109-1.586c-2.235 1.22-4.425 2.538-6.69 3.697a72.56 72.56 0 0 1-6.986 3.059l.632.126-3.395-4.238c-1.143-1.403-2.339-2.756-3.534-4.111a252.803 252.803 0 0 0-7.284-8.023l-.835 1.9 13.607-1.04Zm.064-.218-13.673-1.01-2.7-.2 1.865 2.1c2.4 2.701 4.854 5.352 7.363 7.952 1.247 1.307 2.492 2.616 3.79 3.876l3.928 3.75.317.302.315-.177a72.684 72.684 0 0 1 6.842-3.368c2.345-.985 4.765-1.809 7.139-2.73l1.476-.574-1.367-1.013a85.164 85.164 0 0 0-7.539-4.829c-2.562-1.5-5.159-2.888-7.756-4.079Zm58.026 63.994a45.552 45.552 0 0 0 3.883 3.039c1.3.875 2.475 1.923 3.494 3.113a11.217 11.217 0 0 1 2.461 4.039 9.496 9.496 0 0 1 .256 4.75c-.783 3.066-1.791 6.271-2.489 9.443a83.952 83.952 0 0 0-1.558 9.717l.142.033a83.582 83.582 0 0 0 2.92-9.397c.392-1.589.706-3.195 1.031-4.8a32.58 32.58 0 0 0 .743-4.912 17.612 17.612 0 0 0-.593-4.964 14.02 14.02 0 0 0-1.962-4.651 10.957 10.957 0 0 0-3.844-3.319 45.47 45.47 0 0 0-4.407-2.214l-.077.123Z" fill="#000"/></g><defs><clipPath id="clip0_32_3090"><path fill="#fff" transform="matrix(-1 0 0 1 500 0)" d="M0 0h500v606H0z"/></clipPath></defs></svg>