<svg width="460" height="455" viewBox="0 0 460 455" fill="none" xmlns="http://www.w3.org/2000/svg">
<g clip-path="url(#clip0_32_612)">
<path fill-rule="evenodd" clip-rule="evenodd" d="M228.223 144.954C233.62 143.458 239.825 143.631 245.363 144.014C250.987 144.404 257.023 145.07 262.301 147.174C266.888 149.004 270.757 152.079 273.112 156.486C275.052 160.11 275.96 164.081 276.531 168.118C276.763 169.768 276.958 171.425 277.143 173.081L277.525 176.529C277.673 177.847 277.804 178.835 278.067 180.307C278.791 184.374 279.799 187.772 282.05 190.733C287.504 197.898 296.407 200.296 304.504 203.354C309.685 205.312 313.787 208.832 314.926 214.489C316.025 219.945 357.782 265.726 361.88 269.587L361.993 269.69C365.173 272.559 364.799 277.951 365.244 281.887C366.688 294.682 367.922 307.501 368.943 320.337C371.619 353.981 372.83 387.725 372.574 421.473L372.557 423.383C372.517 427.665 372.55 431.966 372.358 436.246C372.173 440.357 370.932 444.473 367.129 446.621C363.605 448.611 359.15 448.435 355.213 448.633L354.977 448.645C350.753 448.877 346.527 449.068 342.297 449.224C325.112 449.862 307.913 449.93 290.717 449.85C256.605 449.694 222.458 448.942 188.379 450.855C179.69 451.343 151.996 448.38 143.337 449.224C135.059 450.031 142.16 454.098 137.048 453.831C120.23 452.95 104.28 449.189 88.1694 444.662C86.1542 444.096 84.6162 442.139 84.6409 440.024C85.3096 387.092 87.8727 334.202 92.3253 281.455L92.6542 277.612C93.082 272.658 93.3272 267.613 94.3006 262.727C95.2626 257.895 97.4451 253.706 100.609 249.961C103.447 246.603 135.593 220.309 143.337 215.33C150.745 210.565 158.527 206.545 166.135 202.128C169.301 200.291 172.341 200.951 175.044 198.697C176.47 197.507 197.154 189.497 202.734 186.853L202.898 186.775C207.169 184.722 211.099 182.496 214.052 178.946C215.04 177.756 216.981 170.26 216.985 167.863C216.991 163.584 216.668 159.076 217.956 154.931C219.496 149.975 223.211 146.344 228.223 144.954V144.954ZM237.375 255.29L204.323 319.776H225.816L210.409 355.604H244.24L232.24 405.789L300.869 319.776H275.116L300.869 285.91H283.006L300.869 257.229L237.375 255.29Z" fill="#FDFBF5"/>
<path fill-rule="evenodd" clip-rule="evenodd" d="M348.398 291.549C348.322 291.625 348.242 291.703 348.166 291.783C348.253 291.657 348.329 291.53 348.398 291.4V291.549ZM284.166 272.764C281.198 276.565 278.057 284.295 275.173 288.162C274.759 288.716 274.354 289.272 273.953 289.832C272.755 291.509 274.354 294.075 276.322 293.969C280.254 293.744 284.184 293.477 288.111 293.167C280.042 302.177 273.343 313.368 265.932 322.913C265.43 323.552 264.936 324.196 264.441 324.84C262.565 327.29 264.445 328.402 267.008 327.741L268.599 327.336C272.325 326.378 276.05 325.42 279.776 324.466C281.837 323.935 283.909 323.278 285.998 322.873C286.858 322.707 287.681 322.844 288.493 322.888C288.103 323.484 287.556 324.558 287.447 324.723C286.23 326.622 285.006 328.514 283.772 330.397C281.383 334.069 278.944 337.707 276.455 341.311C266.694 355.322 256.168 368.697 245.732 382.198C243.108 385.593 240.443 388.955 237.736 392.283C237.748 392.262 237.755 392.242 237.768 392.223L245.082 377.956C249.717 368.92 254.308 359.857 258.991 350.844C259.232 350.374 259.478 349.905 259.723 349.435C260.694 347.567 259.099 345.629 257.103 346.023C247.365 347.944 237.72 350.307 228.196 353.104C227.768 353.561 227.137 353.696 226.575 353.586C226.192 353.7 225.808 353.81 225.424 353.926C225.54 353.685 225.662 353.447 225.778 353.207C225.388 352.868 225.196 352.342 225.449 351.687C230.928 337.52 238.443 323.844 247.346 311.318C246.988 311.322 246.629 311.33 246.27 311.341C236.498 311.605 226.911 313.01 217.493 315.678C217.449 314.804 217.974 313.452 218.259 312.808C219.4 310.236 220.71 307.725 221.934 305.195L229.453 289.601C231.903 284.523 234.333 279.428 236.639 274.278C237.848 271.578 239.057 268.875 240.263 266.171C241.246 263.968 242.021 261.752 242.837 259.498C245.23 260.202 275.968 260.354 283.44 260.874C285.27 261.004 287.107 261.12 288.941 261.221C290.403 261.305 292.464 261.626 293.472 260.303L293.854 260.625C290.537 264.6 287.356 268.684 284.166 272.764V272.764ZM164.158 198.9L164.607 198.695C164.683 198.803 164.778 198.904 164.873 199.005C165.114 199.251 165.35 199.515 165.599 199.757C165.117 199.475 164.636 199.19 164.158 198.9ZM378.974 425.047C378.696 419.183 378.388 413.32 378.057 407.458C377.407 395.996 376.736 384.536 375.841 373.092C374.021 349.901 372.327 326.719 369.599 303.612C368.455 293.927 366.856 284.314 365.253 274.697L365.873 274.145C365.651 276.776 369.217 278.444 370.985 275.818C371.118 275.622 371.246 275.426 371.375 275.221C372.905 272.742 376.432 260.581 376.187 259.551C375.744 257.695 374.516 256.046 373.556 254.412C372.717 252.982 371.869 251.554 371.01 250.138C369.3 247.296 367.522 244.497 365.675 241.743C361.839 236.054 357.647 230.59 352.706 225.813C347.594 220.864 341.725 216.796 335.664 213.106C332.747 211.346 329.751 209.719 326.687 208.232C323.668 206.76 320.362 205.13 317.109 204.292C316.922 204.245 316.734 204.502 316.903 204.639C317.767 205.322 318.67 205.966 319.59 206.587C317.099 205.72 314.533 205.098 311.947 204.875C306.938 203.114 301.869 201.499 296.884 199.66C291.985 197.849 287.156 195.814 283.9 191.525C281.116 187.857 279.356 183.372 278.002 179.002C276.517 174.185 275.926 169.18 274.554 164.353C274.445 163.963 273.806 163.919 273.721 164.353C272.742 169.416 272.786 175.107 273.344 180.217C273.93 185.577 275.436 190.837 278.713 195.195C282.521 200.26 287.687 203.082 293.498 205.33C298.187 207.15 302.934 209.001 307.734 210.627C307.107 211.036 306.472 211.447 305.818 211.838C303.209 213.382 300.512 214.771 297.74 215.998C292.687 218.256 287.365 219.947 282.012 221.318C272.046 223.861 261.829 225.154 251.556 225.322C230.998 225.664 210.213 221.35 191.411 213.02C186.118 210.674 180.949 208.095 175.831 205.387C174.234 204.542 172.626 203.689 171.029 202.811C171.162 202.804 171.297 202.792 171.428 202.779C174.998 202.432 178.53 201.763 181.979 200.78C189.054 198.78 195.833 195.662 202.493 192.591C208.141 189.986 213.957 187.022 217.407 181.597C219.249 178.696 220.097 175.291 220.784 171.959C221.552 168.251 222.455 164.523 223.014 160.777C223.21 159.466 222.917 157.691 221.512 157.07C220.949 156.825 220.487 156.623 219.856 156.623C218.462 156.623 217.033 157.638 216.7 159.03C215.877 162.502 215.379 166.072 214.732 169.581C214.173 172.614 213.664 175.783 212.029 178.45C209.173 183.122 203.573 185.512 198.843 187.787C192.846 190.668 186.846 193.476 180.614 195.814C177.871 196.856 175.079 197.766 172.249 198.542C172.362 197.846 172.265 197.113 171.856 196.562C171.172 195.652 170.398 195.049 169.518 194.354C168.561 193.596 167.276 193.202 166.149 193.537C166.149 193.541 166.143 193.537 166.143 193.537C165.642 193.431 165.12 193.493 164.658 193.714C163.042 194.455 161.432 195.203 159.822 195.963C136.651 206.884 114.137 219.713 97.0879 239.249C94.633 242.073 92.3245 245.021 90.1715 248.082C88.0746 251.048 85.4814 254.267 84.9016 257.944C84.854 258.251 85.3008 258.391 85.3768 258.077C85.5137 257.51 85.6981 256.954 85.9282 256.415C85.4265 258.127 85.5047 259.956 86.1506 261.619C86.9491 263.679 88.4168 265.044 90.2685 265.587C88.4092 273.751 87.1601 282.025 86.1563 290.389C84.7133 302.441 83.6886 314.522 82.9187 326.635C81.3749 350.808 80.6886 375.1 81.1886 399.317C81.3274 406.161 81.5612 413.006 81.9149 419.847C82.0917 423.268 82.2837 426.684 82.5042 430.104C82.7209 433.468 82.5441 437.175 85.4719 438.949L85.586 439.344C86.2951 441.826 89.4643 441.03 89.7628 438.776L89.7742 438.7C92.1696 436.868 91.8084 433.818 91.6297 430.894C91.4396 427.735 91.24 424.58 91.0708 421.425C90.7532 415.373 90.4737 409.319 90.2323 403.264C89.7588 391.285 89.4799 379.3 89.3958 367.313C89.219 343.342 90.6012 319.408 92.2399 295.505C92.9263 285.506 93.7304 275.55 93.9757 265.554C95.2571 264.886 95.6487 262.988 95.008 261.708C110.183 272.081 124.265 284.483 135.571 298.898C137.457 301.308 139.264 303.778 140.989 306.306C141.552 307.127 142.084 307.98 142.624 308.833C142.101 311.211 141.696 313.629 141.166 315.91C140.073 320.622 139.611 325.512 138.983 330.3C137.71 340.027 136.816 349.84 136.056 359.619C134.563 378.931 133.453 398.239 133.105 417.606C132.911 428.56 132.654 439.582 133.135 450.531C132.778 452.671 134.702 454.764 136.715 455.034C137.549 455.147 138.397 455.001 139.146 454.615C139.894 454.229 140.505 453.622 140.898 452.877C146.392 453.56 152.031 453.875 157.489 453.915C164.843 453.966 172.196 453.958 179.552 453.802C194.263 453.48 208.972 453.102 223.681 452.664L311.934 450.048L336.407 449.324C340.086 449.216 344.673 450.276 347.573 447.432C348.071 446.94 348.457 446.365 348.73 445.75C349.597 445.967 350.662 445.754 351.232 445.082C352.297 443.822 353.08 442.656 353.04 440.909C353.002 439.275 352.554 437.554 352.32 435.935C351.878 432.899 351.454 429.859 351.048 426.817C350.248 420.805 349.5 414.784 348.814 408.76C347.409 396.444 346.132 384.098 345.135 371.74C343.158 347.302 342.601 322.736 342.67 298.222C342.677 296.029 342.689 293.836 342.7 291.642C342.793 291.758 342.894 291.867 343.002 291.96C343.09 292.036 343.179 292.112 343.267 292.194C344.295 293.099 346.006 293.565 347.24 292.708C348.753 291.726 349.799 290.254 350.979 288.921C352.225 287.529 353.494 286.16 354.787 284.813C357.291 282.211 359.864 279.677 362.502 277.212C362.715 277.014 362.928 276.814 363.141 276.62C363.156 284.422 363.149 292.221 363.358 300.02C363.671 311.605 364.297 323.179 364.871 334.748C366.012 357.656 367.194 380.557 368.329 403.462C368.647 409.855 368.949 416.254 369.267 422.648C369.426 425.846 369.584 429.045 369.736 432.246L369.978 437.44C370.065 439.3 369.949 441.288 370.575 443.054C372 447.095 378.162 447.666 379.348 443.054C380.09 440.16 379.519 436.811 379.388 433.843C379.251 430.913 379.114 427.979 378.974 425.047V425.047Z" fill="#171619"/>
<path fill-rule="evenodd" clip-rule="evenodd" d="M317.145 62.937C313.007 47.9719 297.193 41.4451 282.95 40.4074C244.385 36.3901 205.132 57.9296 188.035 92.8538C174.351 119.374 173.921 147.233 203.339 162.375C204.946 163.262 206.623 164.21 208.337 165.071C209.826 166.457 211.358 167.79 213.031 168.909C229.05 179.463 248.712 184.027 267.765 183.037C295.896 182.469 305.94 163.344 312.086 138.817C318.567 114.401 322.193 87.9055 317.145 62.937Z" fill="#FDFBF5"/>
<path fill-rule="evenodd" clip-rule="evenodd" d="M335.611 203.98C334.297 200.001 332.651 196.142 331.112 192.242C330.779 190.299 330.579 188.334 330.514 186.363C330.301 179.305 331.618 172.188 333.097 165.315C336.101 151.347 339.285 137.524 340.884 123.3C343.74 97.8555 342.042 71.3981 330.491 48.1698C320.481 28.0507 303.519 11.5948 281.609 5.4317C275.132 3.60771 268.466 2.60241 261.753 2.20068C260.922 2.0674 260.093 1.93984 259.268 1.81418C249.932 0.405247 240.481 -0.299219 231.044 0.310047C215.396 1.31914 199.894 5.82391 186.862 14.7344C173.74 23.7078 164.417 36.2872 160.078 51.6331C155.565 67.5959 155.949 84.8838 148.154 99.8508C145.854 104.272 143.166 108.476 140.603 112.748C133.803 120.351 126.42 128.802 124.801 139.253C122.805 152.172 130.223 163.089 137.244 173.168C143.59 182.271 152.202 194.843 145.671 206.05C142.592 211.337 137.654 215.292 133.947 220.112C130.103 225.12 127.103 230.866 125.552 237.006C122.641 248.539 125.32 260.558 133.107 269.572C137.164 274.265 142.373 277.366 148.012 279.786C153.784 282.256 159.424 284.601 164.194 288.807C166.377 290.726 168.373 292.832 170.259 295.037C172.028 297.805 174.078 300.382 176.377 302.727C178.92 305.322 183.9 301.769 181.567 298.713L181.054 298.043C179.346 295.814 177.632 293.584 175.835 291.427C170.481 282.928 168.42 272.523 171.082 262.595C171.774 260.016 172.746 257.569 173.955 255.259C174.213 255.932 174.493 256.594 174.791 257.251C175.947 259.795 177.571 262.807 179.635 265.383C179.715 267.15 179.979 268.901 180.495 270.615C183.675 281.243 194.31 286.486 203.901 290.566C204.843 290.968 205.77 291.355 206.681 291.737C209.189 292.786 211.839 289.209 210.276 287.052C209.866 286.485 209.471 285.907 209.092 285.319C204.593 278.341 202.453 269.994 203.666 261.681C204.943 252.889 210.116 245.614 215.253 238.632C220.297 231.767 225.715 224.762 227.974 216.386C230.472 207.135 228.198 197.912 224.343 189.398C220.812 181.607 216.109 174.425 212.166 166.847C213.516 168.197 214.909 169.501 216.344 170.76C217.959 172.176 219.616 173.797 221.529 174.794C222.945 175.531 224.362 173.766 223.242 172.572C221.768 171.004 219.884 169.791 218.249 168.391C216.681 167.045 215.154 165.652 213.67 164.214C211.845 162.445 210.093 160.603 208.419 158.691C207.081 155.257 205.961 151.743 205.067 148.168C203.843 143.332 202.709 138.185 202.797 133.17C202.886 128.028 205.554 124.425 209.103 120.973C210.607 119.511 212.126 118.066 213.641 116.619C216.869 114.245 219.913 111.594 222.871 108.95C228.148 104.219 233.23 99.2744 238.105 94.1294C239.411 92.7529 240.706 91.363 241.983 89.956C246.448 85.3677 250.701 80.5781 254.73 75.602C258.729 74.1275 262.559 72.2319 266.158 69.9473C264.592 71.539 263.008 73.1079 261.434 74.6881C257.928 78.2143 254.286 81.7556 250.221 84.6268C249.803 84.9257 250.055 85.5597 250.571 85.4569C255.74 84.4231 260.574 82.7 265.09 79.9564C269.681 77.1633 273.725 73.3687 277.5 69.5608C279.637 68.5974 281.698 67.3522 283.582 66.1299L283.882 65.9318C282.027 71.8246 279.305 78.4961 273.5 80.5961C273.312 80.6647 273.324 80.9788 273.548 80.9674C278.438 80.6799 282.367 78.4751 285.47 75.2631C287.962 73.4761 290.349 71.546 292.618 69.4827C294.817 67.4614 296.909 65.3261 298.884 63.0854C296.116 68.5764 293.017 73.9475 289.96 79.2557C289.799 79.5375 290.137 79.9221 290.426 79.7241C296.881 75.345 301.776 69.696 305.78 63.015C306.371 62.0325 306.936 61.033 307.487 60.0258C307.071 61.6003 306.618 63.1673 306.132 64.7247C305.253 67.5464 304.386 70.3719 303.506 73.1916C303.031 74.711 302.453 76.1961 301.818 77.6564C301.363 78.7017 300.768 79.7431 300.675 80.8893C300.67 80.9655 300.753 81.015 300.818 80.9998C303.392 80.3524 305.789 77.4127 307.622 75.5925C308.654 74.5625 309.61 73.4585 310.481 72.2892C310.645 79.052 310.757 85.8168 310.609 92.6006C310.331 105.058 309.529 117.512 308.5 129.931C307.592 140.908 306.92 152.429 300.808 161.969C296.076 169.355 288.405 174.465 280.071 176.94C279.338 177.16 278.598 177.358 277.854 177.534C265.787 180.403 253.77 177.153 243.103 171.407C239.898 169.68 237.158 174.364 240.251 176.291C251.827 183.511 266.498 185.969 279.601 182.734C279.189 198.238 286.814 212.946 294.401 226.097C298.647 233.457 302.896 240.768 305.898 248.748C308.443 255.524 310.175 262.555 310.757 269.785C311.447 278.309 310.768 286.88 309.58 295.33C309.516 295.789 309.451 296.252 309.382 296.711C309.118 298.525 310.746 300.046 312.508 299.117C320.305 295.012 323.666 286.264 325.709 278.175C327.613 270.595 328.929 262.878 329.643 255.094C330.704 258.035 331.568 261.043 332.228 264.1C332.322 264.537 332.409 264.977 332.498 265.415C333.004 267.98 336.877 267.797 337.495 265.415C337.607 264.985 337.715 264.555 337.816 264.12C341.01 251.183 341.869 237.69 340.181 224.463C339.295 217.506 337.812 210.64 335.611 203.98" fill="#171619"/>
<path fill-rule="evenodd" clip-rule="evenodd" d="M276.866 152.974C274.142 151.86 271.768 150.031 269.995 147.679C269.724 147.334 269.526 146.936 269.416 146.511C269.305 146.086 269.284 145.643 269.353 145.209C269.497 144.32 270.022 143.517 270.737 142.976C271.453 142.435 272.351 142.169 273.218 142.304C273.972 142.422 274.721 142.835 275.317 143.694L275.44 143.865C276.473 145.281 277.834 146.425 279.406 147.199C280.927 147.947 282.63 148.247 284.315 148.063C287.619 147.69 289.894 145.9 292.315 143.469C292.615 143.162 292.915 142.846 293.216 142.525C293.392 142.252 293.657 142.049 293.965 141.948C294.299 141.842 294.659 141.846 294.991 141.96C295.322 142.074 295.609 142.291 295.809 142.58C295.993 142.852 296.1 143.189 296.066 143.577C295.843 146.096 294.529 148.343 292.662 150.108C290.588 152.069 287.839 153.425 285.252 153.901C282.402 154.424 279.497 154.049 276.866 152.974V152.974ZM286.598 114.118C289.63 115.966 294.252 120.273 290.989 124.852C287.147 128.888 281.619 124.26 278.894 122.166C276.368 120.543 273.528 124.717 275.872 126.611C295.564 141.217 303.554 114.601 288.132 111.947C286.432 111.654 285.803 113.546 286.598 114.118V114.118ZM251.313 97.1286C251.647 92.9608 257.982 92.0145 258.613 96.1385C259.176 99.8322 258.512 103.227 256.851 106.553C255.265 109.729 251.277 108.248 250.974 105.354C250.569 101.475 251.104 99.7217 251.313 97.1286V97.1286ZM299.535 95.2836C300.419 94.1241 301.695 93.334 303.221 93.7795C307.995 95.1789 306.588 101.968 304.912 105.274C304.001 107.067 301.056 107.522 299.725 105.942C297.558 103.366 296.518 98.2195 299.277 95.6796C299.351 95.5502 299.434 95.4169 299.535 95.2836ZM256.784 78.8944L257.539 78.7611C259.872 78.3574 262.771 77.969 264.421 79.8463C265.297 80.844 265.598 82.6966 264.421 83.6504C262.353 85.3259 260.064 84.6786 257.585 84.8195C255.561 84.9355 253.557 85.2778 251.609 85.84C247.29 87.0776 243.771 89.3338 240.083 91.8127C239.6 92.1364 239.105 91.5176 239.336 91.0645C241.465 86.8853 245.59 83.4543 249.723 81.3619C251.931 80.2443 254.343 79.3189 256.784 78.8944ZM295.183 77.0228L295.761 77.1408C302.043 78.4545 310.202 81.082 313.176 87.2642C313.29 88.1381 313.17 88.3247 313.073 88.4465L313.041 88.4884C312.959 88.5931 312.896 88.7359 312.518 88.8559C312.411 88.8303 312.305 88.8036 312.199 88.7759C310.836 88.4179 309.758 87.9248 308.714 87.4127L307.581 86.8548C306.267 86.2075 304.942 85.5868 303.537 85.1279C300.542 84.1452 297.457 83.4628 294.328 83.0907C293.66 83.0242 293.023 82.7811 292.48 82.3862C291.963 81.9975 291.597 81.4408 291.446 80.8116C291.225 79.9225 291.29 79.2504 291.765 78.4469C292.123 77.8453 292.636 77.4283 293.223 77.1884C293.846 76.9421 294.528 76.8845 295.183 77.0228V77.0228Z" fill="#171619"/>
</g>
<defs>
<clipPath id="clip0_32_612">
<rect width="460" height="455" fill="white"/>
</clipPath>
</defs>
</svg>
