<svg width="460" height="440" viewBox="0 0 460 440" fill="none" xmlns="http://www.w3.org/2000/svg">
<path fill-rule="evenodd" clip-rule="evenodd" d="M221.407 172.649C230.822 165.473 254.454 162.247 264.503 169.156C274.425 176.094 275.507 187.314 280.131 197.637C284.494 195.578 291.7 198.527 292.965 202.578C294.534 204.491 294.604 209.861 295.685 212.43C342.761 219.931 349.907 256.67 355.573 298.379C363.07 340.702 380.086 382.934 372.698 426.486C373.66 427.88 374.42 429.235 375.122 430.844C376.803 433.709 374.637 437.762 371.245 437.605C366.857 437.22 362.51 436.693 358.099 436.528C345.873 436.104 333.637 436.154 321.405 436.31L319.738 436.331C258.099 437.099 196.463 438.613 134.822 439.014C132.586 439.017 131.492 437.011 131.79 435.029C132.391 431.043 132.949 427.053 133.532 423.063C118.952 426.919 103.452 427.889 88.9145 423.469C87.8965 422.432 91.2845 422.994 91.8206 422.837C78.4416 413.685 82.4362 394.403 83.6221 380.515C90.9921 332.93 93.5896 280.281 122.064 239.677C134.384 223.104 152.443 209.986 173.196 207.033L173.774 206.955C179.84 206.144 186.604 205.884 191.909 202.578C197.877 197.81 200.418 188.999 206.696 188.916C208.768 188.889 211.59 191.515 214.624 193.298C214.85 189.377 216.961 186.068 217.427 183.028L217.465 182.768C217.951 179.224 217.285 176.034 221.407 172.649V172.649ZM322.575 299.636C309.346 290.435 275.173 295.059 274.391 295.574C272.667 296.708 271.925 296.808 270.994 298.281C270.075 298.402 269.155 298.529 268.238 298.661C266.395 299.262 267.759 301.531 269.887 300.722C268.608 306.247 272.375 310.177 273.875 315.639C274.36 317.413 273.891 320.603 273.875 322.414C274.019 324.726 276.572 327.456 276.146 329.773C274.635 338.015 266.429 346.054 269.887 354.047C272.18 358.561 279.073 360.864 283.656 362.397C293.151 366.046 309.696 362.26 315.212 354.047C318.156 349.667 321.564 338.616 323.319 335.188L323.709 329.751C324.667 316.234 325.521 301.684 322.575 299.636V299.636Z" fill="#FDFBF5"/>
<path fill-rule="evenodd" clip-rule="evenodd" d="M204.391 188.119C205.304 187.31 206.656 188.327 206.075 189.422C204.772 191.88 203.434 194.208 201.683 196.381C200.622 197.699 199.485 198.946 198.333 200.178C201.29 202.737 203.826 205.916 206.219 208.896C209.281 212.706 212.176 216.677 215.613 220.164C219.003 223.603 222.752 226.007 227.282 227.609L228.198 227.927C232.752 229.527 237.616 231.687 240.183 236.002C240.689 236.853 239.67 237.904 238.813 237.373C234.355 234.61 229.115 234.053 224.261 232.227C219.573 230.464 215.485 227.75 211.874 224.283C208.268 220.825 205.241 216.889 202.084 213.036C198.961 209.227 195.6 205.972 191.907 202.75C186.207 206.588 179.701 208.259 173.086 209.899L172.364 210.078C165.739 211.719 159.151 213.625 152.939 216.484C147.461 219.004 142.073 222.013 137.609 226.113C132.873 230.466 129.185 236.024 125.811 241.459C118.263 253.62 112.956 266.943 108.284 280.428C103.429 294.462 99.3547 308.753 96.0784 323.238C94.4223 330.6 93.0422 338.021 91.9412 345.487C91.4051 349.083 90.9279 352.688 90.5098 356.301C90.064 360.159 89.9611 364.127 88.777 367.835C88.2715 369.425 87.0748 370.086 85.8762 370.028L85.6344 373.075C85.3112 377.135 85.0098 381.198 84.9087 385.283C84.7409 392.078 84.8167 398.854 85.3058 405.632L85.3744 406.557C85.7571 411.506 86.6145 417.066 90.3329 420.689C94.1813 424.441 100.102 425.622 105.29 425.689C117.373 425.846 129.004 420.131 139.698 415.117C150.697 409.942 161.437 404.231 171.878 398.005C177.203 394.837 182.468 391.568 187.669 388.2C190.22 386.548 192.753 384.868 195.268 383.161C196.708 382.182 198.073 381.111 199.54 380.242C198.822 379.572 198.501 378.521 199.102 377.601C194.864 373.917 193.1 367.346 192.892 362.026C192.726 357.735 193.358 353.454 193.856 349.202C194.107 347.056 194.416 344.916 194.741 342.783C194.867 341.939 194.965 341.036 195.113 340.146C183.674 346.428 171.892 352.066 159.824 357.03C153.636 359.572 147.36 361.892 141.006 363.984L139.717 364.409C133.694 366.383 127.528 368.247 121.3 369.374C120.968 369.436 120.698 368.942 121.053 368.787C127.122 366.107 133.4 363.845 139.559 361.376L140.569 360.964C140.448 360.957 140.327 360.939 140.208 360.912C136.596 360.04 133.012 358.694 129.468 357.561C126.181 356.51 122.486 355.851 119.414 354.265C119.178 354.142 119.309 353.813 119.54 353.797C122.994 353.557 126.743 354.565 130.131 355.159L131.403 355.381C133.533 355.757 135.714 356.162 137.835 356.689C137.911 355.979 138.308 355.264 138.873 354.845C145.087 350.237 144.456 340.933 145.122 334.071L145.615 328.976C146.481 320.061 147.398 311.145 148.791 302.296C148.865 301.825 149.596 301.96 149.6 302.406C149.672 313.376 148.844 324.294 148.429 335.245L148.365 337.043C148.136 343.802 147.956 350.819 143.705 356.019C144.299 355.67 145.102 355.67 145.584 356.245C146.176 356.949 146.517 357.74 146.506 358.517C150.348 356.905 154.173 355.253 157.981 353.562C170.219 348.135 182.201 342.06 193.865 335.489C195.122 334.781 196.315 335.338 196.936 336.27L197.026 336.257C197.041 336.255 197.056 336.254 197.071 336.253L197.161 336.25H197.17C198.813 335.347 201.05 335.99 202.459 337.306C202.501 337.346 202.535 337.389 202.573 337.431C204.387 336.614 206.062 335.516 207.533 334.176C210.627 331.369 213.248 327.9 215.531 324.419C219.739 318.009 223.311 310.881 228.995 305.605C233.611 301.319 239.335 298.649 245.34 296.975C245.33 296.887 245.339 296.797 245.367 296.713C245.396 296.628 245.443 296.551 245.504 296.487C245.813 296.171 246.033 296.061 246.43 296.254C246.463 296.269 246.481 296.291 246.495 296.314L247.08 295.312C247.4 294.768 247.728 294.219 247.842 294.076C248.524 293.216 249.226 292.364 249.939 291.529C251.147 290.115 252.522 288.721 254.116 287.74C257.605 285.594 261.273 286.808 264.862 287.982C267.03 288.69 269.189 289.421 271.353 290.142L271.577 290.214C273.19 290.733 275.078 291.188 275.799 292.898C276.084 293.576 276.129 294.278 275.995 294.959C291.32 291.06 308.34 292.852 323.295 297.43C323.869 297.607 324.441 298.079 324.562 298.7C326.275 307.496 327.039 316.517 326.263 325.461C325.595 333.185 323.885 340.751 320.665 347.82L320.481 348.22C317.454 354.771 312.656 362.848 305.329 364.902C300.905 366.141 296.013 365.411 291.501 365.184C287.116 364.961 282.633 364.931 278.29 364.241C274.421 363.625 271.031 361.889 268.642 358.741C266.578 356.024 265.494 352.741 264.604 349.475C264.196 349.605 263.791 349.744 263.392 349.899C261.712 350.557 260.288 351.617 259.001 352.865C256.282 355.5 254.174 358.701 251.329 361.215C248.753 363.493 245.82 365.263 242.672 366.625C236.151 369.446 229.154 370.573 222.257 372.067L221.775 372.172C216.582 373.313 211.282 374.713 206.698 377.421C206.607 378.217 206.246 378.967 205.665 379.458C206.472 380.219 206.815 381.422 206.105 382.551C204.12 385.704 200.701 387.498 197.633 389.514L197.434 389.645C188.288 395.738 178.876 401.42 169.226 406.676C158.835 412.361 148.219 417.721 137.412 422.584C138.062 425.779 137.824 429.072 138.311 432.289L138.385 432.747C138.595 433.941 138.313 434.938 137.492 435.719L137.405 435.798V435.787L137.329 435.86L137.304 435.881L137.311 435.874C137.22 435.959 137.123 436.038 137.021 436.111L136.894 436.192C136.102 436.672 135.084 436.667 134.273 436.242L134.183 436.192L134.026 436.103C132.956 435.486 132.217 433.959 132.661 432.747C133.753 429.767 134.165 426.585 135.172 423.584L134.373 423.942L133.32 424.403C121.925 429.334 109.27 433.488 96.8546 430.125C91.369 428.64 86.2427 425.495 83.4972 420.373C80.7968 415.332 80.4159 409.478 80.2733 403.869C80.0967 396.914 80.4661 389.956 81.378 383.058C81.9899 378.452 82.7318 373.76 83.8726 369.201C83.2385 368.638 82.8348 367.86 82.739 367.017C82.1993 362.662 83.1434 358.136 83.721 353.806C84.2842 349.576 84.9069 345.355 85.6127 341.148C87.028 332.643 88.6954 324.181 90.6127 315.774C94.0387 300.828 98.5622 286.149 104.006 271.818L104.485 270.57C109.517 257.473 115.342 244.656 123.456 233.15C127.337 227.645 131.439 222.654 136.921 218.686C142.06 214.971 147.855 212.294 153.835 210.249C159.822 208.203 165.976 206.83 172.239 205.977C178.598 205.11 185.311 204.579 191.244 201.968C190.494 200.622 191.136 198.803 192.4 197.967C196.651 195.156 200.582 191.499 204.391 188.119V188.119ZM340.459 310.363C340.636 310.092 341.06 310.264 340.981 310.583C338.914 319.062 336.974 327.558 335.707 336.197C333.418 351.792 333.84 367.59 334.026 383.3L334.035 384.111C334.133 392.573 334.266 401.035 334.544 409.494C334.687 413.769 334.965 418.086 334.813 422.363C334.73 424.684 334.113 426.879 333.894 429.171C333.703 431.176 333.873 433.21 333.968 435.218C334.033 436.553 332.066 436.495 331.93 435.218L331.761 433.566C331.537 431.474 331.263 429.395 330.578 427.394C329.755 424.986 329.36 422.622 329.075 420.093C328.636 416.219 328.441 412.306 328.273 408.407L328.158 405.708C327.452 389.405 327.477 373.026 328.618 356.741L328.703 355.578C329.833 340.185 331.793 323.552 340.459 310.363V310.363ZM296.392 213.343C295.851 213.121 296.041 212.305 296.64 212.447L297.726 212.706C305.694 214.617 313.519 216.687 320.956 220.241C328.398 223.799 334.698 229.11 339.705 235.639C349.436 248.333 353.481 263.76 356.674 279.171C360.221 296.298 363.452 313.486 367.031 330.605L367.696 333.795C371.006 349.74 374.134 365.695 376.438 381.828L376.604 382.998C378.927 399.59 380.324 416.755 377.788 433.39C377.288 436.681 371.817 435.861 372.03 432.61C372.649 423.211 373.091 413.86 372.663 404.44C372.232 395.022 371.356 385.63 370.037 376.296C368.929 368.435 367.277 360.672 365.817 352.874L365.587 351.642C364.364 345.01 363.104 338.385 361.846 331.759L359.965 321.838C357.145 306.983 354.272 292.115 351.024 277.354L350.831 276.485C347.654 262.283 342.97 247.407 333.438 236.129C323.764 224.684 309.918 218.921 296.392 213.343V213.343ZM261.244 363.981C261.477 363.461 262.29 363.518 262.54 363.981C263.521 365.791 263.629 368.101 263.815 370.145L263.835 370.355C264.069 372.849 264.279 375.353 264.407 377.854C264.649 382.603 264.764 387.344 264.75 392.1C264.747 396.971 264.622 401.841 264.374 406.705L264.302 408.008C264.064 412.236 263.661 416.952 261.654 420.649C260.925 421.993 258.941 421.598 258.519 420.239C257.134 415.789 257.846 410.513 258.199 405.956L258.476 402.399C258.748 398.843 259.01 395.286 259.216 391.724C259.499 386.853 259.732 381.978 259.956 377.105C260.03 375.521 260.109 373.938 260.192 372.354L260.32 369.981C260.429 367.994 260.42 365.816 261.244 363.981V363.981ZM105.596 370.286L106.21 369.694C108.091 367.851 110.468 365.012 113.25 365.189C114.358 365.26 115.064 366.181 114.835 367.273C114.344 369.607 111.965 370.819 110.252 372.244C108.374 373.805 106.607 375.474 104.842 377.159C103.281 378.65 101.767 380.189 100.3 381.774L99.7517 382.37C99.2246 382.944 95.4737 386.342 95.8798 387.223L95.9015 387.263C96.0134 387.431 95.8257 387.662 95.6398 387.604C94.0188 387.091 94.1199 385.702 94.7318 384.294C95.9087 381.588 97.9701 379.084 99.7697 376.774C101.561 374.48 103.507 372.312 105.596 370.286V370.286ZM267.115 302.43C265.862 299.466 261.246 299.527 258.627 299.706C252.03 300.152 244.891 301.823 239.021 304.91C232.936 308.109 228.837 313.237 225.169 318.906L224.997 319.174C221.421 324.737 217.977 331.322 212.38 335.146C209.528 337.095 206.199 338.876 202.739 339.645C202.622 339.861 202.462 340.049 202.268 340.199C202.074 340.348 201.851 340.456 201.613 340.514L201.378 340.568C200.392 340.787 198.862 341.027 197.539 340.883C197.548 341.531 197.542 342.174 197.559 342.786C197.604 344.546 197.624 346.31 197.624 348.07C197.625 351.754 197.427 355.448 197.58 359.133C197.717 362.393 198.178 365.8 199.741 368.713C200.887 370.852 202.402 372.266 204.228 373.617C208.723 370.875 213.804 369.203 218.963 367.945C225.201 366.426 231.587 365.413 237.685 363.352C240.618 362.359 243.439 361.062 245.995 359.297C248.708 357.426 250.779 354.892 252.911 352.414L253.244 352.029C255.42 349.531 257.793 347.141 260.869 345.787C263.515 344.622 267.006 344.414 269.32 342.608C270.531 341.663 270.633 340.294 270.761 338.89C269.277 339.102 267.708 338.762 266.23 338.589L265.465 338.498C264.068 338.332 262.701 338.15 261.326 337.794C261.071 337.727 261.071 337.342 261.326 337.276C262.952 336.857 264.564 336.678 266.23 336.481L266.622 336.432C268.129 336.235 269.714 335.935 271.194 336.268C271.463 335.241 271.861 334.252 272.38 333.325C273.134 331.967 274.562 330.428 274.755 328.842C274.806 328.342 274.711 327.838 274.481 327.39L274.403 327.247C274.319 327.072 274.193 326.921 274.037 326.805C274.019 326.827 273.979 326.85 273.898 326.875C272.759 327.235 271.766 326.677 271.239 325.817C269.001 326.095 266.56 326.001 264.461 326.095L262.34 326.198C260.073 326.301 257.703 326.346 255.573 325.889C255.275 325.824 255.187 325.329 255.485 325.201C258.102 324.081 261.279 323.724 264.082 323.292C265.649 323.052 267.226 322.867 268.797 322.656C269.842 322.515 270.952 322.282 272.035 322.226C274.752 318.841 273.288 313.5 269.508 312.043C268.131 312.65 266.892 312.297 265.387 312.167C263.886 312.03 262.38 311.96 260.873 311.958C257.851 311.97 254.649 312.767 251.658 312.424C251.17 312.368 250.719 311.719 251.203 311.324C253.494 309.453 256.775 308.844 259.683 308.445L260.284 308.363C261.259 308.235 262.445 308.049 263.674 307.939C263.952 307.395 264.452 306.985 265.201 306.882C265.423 306.852 265.647 306.835 265.871 306.815L265.867 306.794C267.694 306.705 267.615 303.615 267.115 302.43V302.43ZM142.006 360.236C141.973 360.286 141.938 360.333 141.9 360.379L141.842 360.446L142.142 360.325L142.004 360.236H142.006ZM299.004 295.806C291.311 294.979 283.609 295.154 275.894 295.377C275.277 297.396 273.129 299.117 271.048 299.182C272.678 301.666 272.846 305.027 271.703 307.661C274.131 308.627 276.221 310.365 277.49 312.839C279.25 316.267 279.019 320.084 277.281 323.252C278.764 324.598 279.64 326.783 279.553 328.842C279.454 331.138 278.087 333.1 276.952 335.002C275.725 337.057 275.683 338.867 275.306 341.17C274.754 344.54 272.483 346.583 269.562 347.86L269.717 348.472C270.47 351.408 271.407 354.503 273.56 356.649C276.329 359.411 280.625 359.386 284.284 359.559L284.461 359.568C287.811 359.736 291.16 359.933 294.51 360.123L297.022 360.263C300.878 360.475 304.582 360.5 307.73 357.95C312.869 353.783 316.393 346.89 318.622 340.787C323.302 327.977 323.358 313.919 321.21 300.577C314.004 298.252 306.528 296.616 299.004 295.806V295.806ZM235.037 317.06L235.093 317.064C236.678 317.245 237.764 318.529 238.152 320.051C238.716 322.264 238.439 324.265 239.793 326.263C241.187 328.319 242.042 329.964 242.244 332.502C242.328 333.546 242.29 334.588 242.522 335.61L242.69 336.326C242.869 337.09 243.015 337.825 242.927 338.645C242.846 339.393 242.483 339.976 241.732 340.216C239.291 340.998 237.405 339.196 236.775 336.918C236.23 334.951 236.957 332.607 236.189 330.759C235.763 329.735 234.977 328.879 234.533 327.847C234.106 326.831 233.859 325.748 233.802 324.647C233.669 322.546 235.524 320.021 234.488 318.117C234.268 317.711 234.519 317.048 235.037 317.06ZM202.602 295.377C204.255 295.041 206.131 294.269 207.761 294.911C208.6 295.241 209.013 296.263 208.306 296.975C207.077 298.209 205.29 298.277 203.633 298.568L203.488 298.593C201.53 298.957 199.568 299.302 197.604 299.627C193.907 300.239 190.203 300.781 186.485 301.241C182.667 301.715 178.838 302.135 175.004 302.453L173.521 302.574C170.282 302.835 166.912 303.03 163.734 302.533C163.272 302.461 163.347 301.787 163.734 301.67C167.216 300.615 171.033 300.333 174.633 299.885C178.459 299.41 182.281 298.908 186.089 298.314C189.894 297.722 193.691 297.075 197.477 296.374C199.189 296.056 200.896 295.723 202.602 295.377ZM262.266 291.99C260.815 291.475 259.217 290.715 257.645 290.969C254.934 291.408 252.521 294.053 250.374 295.794L251.452 295.584C256.966 294.524 264.268 293.381 268.898 296.89C268.909 296.87 268.918 296.85 268.932 296.831C269.306 296.262 269.739 295.819 270.21 295.333C270.255 295.29 270.3 295.247 270.342 295.201L270.598 294.93L270.015 294.728C268.766 294.286 267.286 293.715 267.053 293.632L267.037 293.626C265.443 293.086 263.849 292.552 262.266 291.99V291.99ZM216.961 176.292C216.734 173.371 221.275 173.395 221.501 176.292C221.992 182.617 220.569 188.883 217.508 194.43C217.486 194.47 217.461 194.506 217.438 194.544C219.346 195.551 221.291 196.487 223.268 197.353C225.798 198.455 228.38 199.435 231.004 200.288C233.38 201.054 236.306 201.355 238.302 202.947C242.513 206.304 240.93 213.269 240.122 217.785L239.995 218.496C239.591 220.819 239.3 223.203 240.279 225.434C241.324 227.815 243.436 229.581 245.32 231.286L245.701 231.631C247.373 233.154 249.281 235.005 250.504 237.07C251.624 234.756 253.147 232.865 254.759 230.735C255.909 229.216 255.089 228.714 254.264 227.231C253.468 225.803 253.08 224.28 253.329 222.649C253.788 219.64 256.19 217.467 258.582 215.832C261.407 213.905 264.56 212.476 267.481 210.683C273.481 206.996 279.324 202.782 284.587 198.102C284.734 197.974 284.985 198.144 284.869 198.319C280.71 204.652 275.835 210.123 269.842 214.768C267.411 216.65 264.858 218.213 262.288 219.855L261.55 220.33C260.517 220.998 259.23 221.894 258.764 223.032C258.295 224.177 259.297 225.042 259.835 225.992C261.546 229.005 260.721 231.817 258.692 234.373L258.598 234.49C256.582 236.978 255.053 239.29 254.324 242.467C252.753 249.293 254.939 256.4 257.228 262.807L257.32 263.06C258.559 266.513 259.874 269.941 260.95 273.449L261.246 274.419C262.221 277.648 263.019 280.831 261.925 284.151C261.553 285.28 260.015 285.547 259.376 284.483C257.124 280.737 256.562 276.229 255.149 272.111C253.772 268.095 252.192 264.154 250.862 260.123C249.149 254.933 248.003 249.347 248.625 243.903C248.607 243.87 248.587 243.841 248.571 243.807L248.136 242.853C246.947 240.269 245.799 238.013 243.638 235.952C241.383 233.802 238.936 231.9 237.161 229.299C233.309 223.65 235.692 217.364 236.158 211.187L236.21 210.428C236.295 209.146 236.342 207.403 235.504 206.514C234.562 205.515 232.355 205.26 231.105 204.818C227.876 203.674 224.696 202.341 221.665 200.741C218.781 199.218 215.986 197.535 213.385 195.564L212.066 194.571C209.986 193 207.829 191.284 206.434 189.143C206.273 188.898 206.546 188.5 206.838 188.618C209.165 189.564 211.293 191.069 213.47 192.377C213.504 192.297 213.544 192.216 213.587 192.136C216.282 187.254 217.391 181.844 216.961 176.292V176.292ZM291.317 209.74C292.244 207.193 296.472 207.39 296.302 210.415C296.174 212.74 295.189 214.837 294.288 216.947L294.19 217.172C293.272 219.354 292.172 221.455 290.9 223.451C288.443 227.302 285.564 230.876 282.49 234.25C279.703 237.308 276.046 239.179 271.831 238.869C270.055 238.737 268.263 238.285 266.707 237.397C264.858 236.342 262.849 233.174 260.492 233.941C260.264 234.015 260.051 233.681 260.248 233.522C262.97 231.328 266.06 234.731 268.667 235.551C272.595 236.786 276.625 235.421 279.152 232.242C281.791 228.924 284.221 225.208 286.439 221.594C287.572 219.76 288.588 217.856 289.481 215.894C290.378 213.912 290.582 211.759 291.317 209.74V209.74ZM284.986 194.073C284.873 193.72 285.308 193.386 285.616 193.587C287.405 194.752 288.956 196.292 290.605 197.643C292.434 199.14 294.284 200.61 296.154 202.054C298.883 204.16 295.717 208.038 293.315 205.737C290.026 202.589 286.423 198.473 284.986 194.073ZM275.165 181.749C275.891 178.944 280.19 180.101 279.564 182.874L279.542 182.957C278.356 187.538 280.046 192.199 283.654 195.169L283.786 195.277C286.068 197.105 282.835 200.3 280.575 198.491C275.643 194.539 273.591 187.825 275.165 181.749V181.749Z" fill="black"/>
<path fill-rule="evenodd" clip-rule="evenodd" d="M312.498 92.4411C311.082 81.1341 306.637 69.1281 301.96 58.5852C291.443 36.2964 267.371 33.2276 245.79 28.6325C224.494 25.5294 201.942 22.7262 180.967 28.9197C169.176 31.8097 164.57 45.8694 166.431 56.9632C167.494 63.8756 170.637 70.4196 173.317 76.8263C178.646 89.9828 182.025 104.07 182.032 118.314C181.665 127.623 180.353 138.249 191.039 142.192C201.209 147.255 202.068 160.978 214.803 168.763C219.951 179.203 233.976 180.123 244.072 182.545C250.452 183.768 256.904 184.667 263.375 185.249C282.108 187.651 297.095 182.216 306.902 165.51C313.465 155.343 318.351 143.604 317.144 131.282C315.942 118.306 313.938 105.399 312.498 92.4411V92.4411Z" fill="#FDFBF5"/>
<path fill-rule="evenodd" clip-rule="evenodd" d="M245.953 1.54462C247.023 0.33084 248.671 0.748079 249.671 1.70719C250.321 1.89865 250.953 2.18403 251.548 2.56334C252.893 2.38994 254.305 2.38994 255.626 2.4369C255.946 2.25808 256.288 2.09733 256.662 1.96006C259.332 0.984693 261.696 1.4796 263.646 2.78731C264.585 1.89864 265.77 1.34052 267.285 1.42541C268.637 1.49947 269.601 2.13707 270.426 2.97516C270.857 2.35075 271.424 1.83249 272.084 1.45951C272.745 1.08653 273.481 0.868584 274.238 0.822131C276.556 0.655958 278.783 1.58617 280.63 3.02573C281.705 1.79208 283.173 1.08223 284.807 1.07501C285.885 0.884645 286.994 0.95022 288.043 1.26647C289.53 1.71802 290.839 2.55972 291.879 3.6543C293.527 2.07565 295.543 0.939539 297.868 1.10571C300.877 1.32246 303.37 3.53689 304.53 6.26249C306.566 7.0789 308.446 8.24392 310.018 9.90565C310.101 9.99235 310.182 10.0845 310.265 10.1766C311.112 10.4891 311.909 10.9316 312.61 11.515C314.834 13.3682 315.33 16.0486 314.594 18.6731C314.696 19.0939 314.785 19.522 314.864 19.9483C316.946 20.2644 318.837 21.4673 319.913 23.4271C321.386 26.1147 321.095 29.6567 319.501 32.2234C318.816 33.3019 317.961 34.2625 316.969 35.0682C318.074 37.5789 317.545 40.5772 315.763 42.6092C315.323 43.308 314.797 43.9483 314.196 44.5148C314.859 47.1121 313.682 49.7908 311.332 51.1797L311.131 51.6819L311.029 51.9311C311.001 52.0395 310.969 52.1425 310.938 52.2454C310.877 53.2111 310.545 54.1399 309.978 54.924C308.745 56.6707 307.218 57.8086 306.408 59.8478L306.328 60.061C305.98 61.0255 304.855 61.7064 303.897 61.4084C309.216 72.3433 312.003 84.5101 313.918 96.4312C314.873 102.379 315.61 108.349 316.207 114.34L316.794 120.306C317.308 125.609 317.767 130.93 317.77 136.251C317.778 148.288 314.337 159.866 306.955 169.444C299.973 178.499 290.092 185.061 278.929 187.646C267.406 190.31 253.886 189.26 243.552 183.161C240.505 181.367 243.175 177.052 246.274 178.495C252.144 181.23 258.108 183.26 264.613 183.713C270.951 184.175 277.316 183.351 283.326 181.29C293.276 177.85 301.742 170.647 307.184 161.676C309.864 157.256 311.807 152.457 312.839 147.387C314.126 141.068 313.931 134.537 313.46 128.136L313.426 127.701C312.492 115.369 311.26 102.962 309.27 90.756C307.51 79.9602 304.805 69.3829 301.292 59.0386C299.923 57.8317 298.387 56.8291 296.731 56.062C284.668 55.5522 272.586 55.7113 260.541 56.5388C250.271 57.2434 240.043 58.4745 229.899 60.2271L228.812 60.4186C226.566 60.8178 224.072 61.0472 221.956 61.9539C220.14 62.7306 219.404 64.2279 218.947 66.0667C217.796 70.7213 217.621 75.8131 217.426 80.5851C217.234 85.2506 217.666 89.954 217.292 94.6014C216.976 98.4921 215.98 102.475 213.101 105.289C211.595 106.761 209.742 107.567 208.003 108.685C206.877 109.407 206.4 110.151 206.547 111.488C206.859 114.412 209.211 118.095 206.568 120.6C206.103 121.039 205.299 121.095 204.841 120.6C203.751 119.414 202.243 118.507 200.951 117.55C200.837 117.478 200.756 117.365 200.724 117.234C200.692 117.103 200.712 116.965 200.78 116.849C200.848 116.733 200.959 116.648 201.088 116.612C201.218 116.576 201.356 116.591 201.474 116.655C202.283 117.019 203.106 117.447 203.949 117.82C202.088 116.287 199.442 115.534 197.236 115.088C196.108 114.863 194.953 114.802 193.807 114.905C191.862 115.82 189.873 116.636 187.846 117.351C183.929 120.546 182.059 125.743 182.875 130.824C183.321 133.629 184.613 136.679 187.05 138.318C189.938 140.256 193.805 139.423 196.924 140.863C199.846 142.21 201.622 144.932 202.953 147.75L203.509 148.922C204.743 151.519 206.014 154.048 207.702 156.411C209.653 159.149 212.045 161.607 214.653 163.719C215.924 164.736 217.263 165.664 218.662 166.497L219.043 166.722C220.453 167.551 221.464 168.341 221.559 170.093C221.59 170.703 221.205 171.261 220.709 171.577C218.574 172.934 216.449 171.238 214.673 170.055C212.747 168.776 210.924 167.346 209.224 165.779C205.977 162.787 203.222 159.302 201.057 155.453C199.422 152.536 198.492 148.432 195.906 146.173C194.328 144.795 192.097 144.784 190.124 144.531C188.29 144.294 186.556 143.913 184.924 143.008C178.285 139.316 176.408 130.381 177.983 123.474C178.251 122.311 178.624 121.176 179.085 120.084C176.613 120.497 173.837 117.94 174.841 115.359C174.917 115.164 175.003 114.981 175.088 114.793C173.369 113.664 172.118 111.95 171.565 109.969C171.264 108.901 171.197 107.781 171.37 106.685C170.565 106.149 169.922 105.404 169.511 104.528C168.198 103.922 167.034 103.013 166.341 101.714C165.379 99.9244 165.501 98.2753 166.233 96.7906C166.129 96.6022 166.031 96.4112 165.937 96.218C163.247 94.5111 161.37 91.5724 161.586 88.3122C161.647 87.2966 161.9 86.3018 162.332 85.3807C162.297 85.2692 162.264 85.1572 162.233 85.0447C159.983 83.8977 158.122 82.0175 157.458 79.505C156.796 76.9763 157.577 74.4584 159.14 72.5185C156.852 70.8423 155.476 68.5033 156.31 64.9631C156.65 63.5453 157.316 62.2266 158.256 61.1122C158.252 61.0776 158.246 61.0432 158.238 61.0092L158.021 60.8431C155.198 58.6124 153.574 55.7676 155.308 52.2707C156.085 50.6993 157.195 49.6029 158.5 48.8804L158.565 48.6745C157.63 46.6696 157.314 44.4443 157.958 42.1053C158.483 40.178 159.731 38.6427 161.325 37.624C161.218 36.7606 161.234 35.8413 161.406 34.8424C161.67 33.2126 162.498 31.7277 163.747 30.6484C163.792 30.428 163.85 30.2094 163.915 29.9927C164.36 28.5901 165.065 27.2834 165.991 26.14C166.725 25.2514 167.548 24.9262 168.556 24.8919C168.492 24.057 168.541 23.2172 168.704 22.3957C169.22 19.7929 170.875 17.3455 173.326 16.2347C174.294 15.8011 175.361 15.6358 176.415 15.756C177.285 13.9245 178.982 12.5951 181.068 12.3097C181.881 12.1959 182.635 12.2014 183.33 12.3061C183.722 12.1219 184.13 11.9593 184.557 11.8094C184.839 11.7101 185.126 11.618 185.411 11.5276C186.39 10.3064 187.672 9.36395 189.13 8.79482C190.735 8.16743 192.515 8.15328 194.13 8.75508L194.621 8.65213C195.391 7.31552 196.619 6.28236 198.507 5.81274C200.65 5.28171 202.85 6.02226 204.536 7.3697C204.543 7.3697 204.552 7.36971 204.563 7.36609C205.444 5.39189 206.949 4.01735 209.478 4.11489C211.054 4.17449 212.476 4.95839 213.574 6.07284C214.184 5.99517 214.794 5.92834 215.408 5.8579C216.057 5.09928 216.778 4.38943 217.574 3.75183C218.879 2.70422 220.575 2.78912 221.536 4.263C221.747 4.5827 221.94 4.90782 222.135 5.23294L223.016 5.17153C224.054 3.7699 225.469 2.82343 227.406 2.74757C229.182 2.67532 230.449 3.54412 231.413 4.76332C232.198 4.74346 232.989 4.7272 233.778 4.71636C234.713 3.63339 235.804 2.6959 237.016 1.93477C237.962 1.33871 239.357 1.54101 240.124 2.33575C240.642 2.87401 241.124 3.43755 241.572 4.02096C242.724 2.74114 244.262 1.87236 245.953 1.54643V1.54462ZM189.828 122.768C191.608 121.753 194.003 122.853 195.727 123.714C197.828 124.765 199.915 126.349 201.2 128.335C202.949 131.037 198.835 133.22 196.992 130.796C195.861 129.304 194.956 127.8 193.585 126.494C192.33 125.295 190.511 124.495 189.788 122.914C189.763 122.86 189.77 122.798 189.828 122.768V122.768ZM191.079 57.1656L191.113 57.0699C191.619 55.6827 189.409 55.083 188.908 56.4594C188.146 58.5455 189.023 60.8124 191.079 61.7119C191.65 61.9611 192.301 61.8744 192.646 61.3C192.935 60.8178 192.799 59.9815 192.234 59.734C191.079 59.2283 190.689 58.3324 191.079 57.1656V57.1656ZM172.036 53.2858C173.142 52.3104 171.52 50.6939 170.418 51.6674C169.39 52.576 168.628 53.8078 168.826 55.2257C169.029 56.6707 170.117 57.693 171.308 58.4137C172.572 59.1777 173.724 57.1981 172.464 56.4359L172.321 56.3492C171.794 56.0204 171.175 55.5689 171.085 54.9222C170.991 54.2359 171.572 53.6976 172.036 53.2858V53.2858ZM178.317 36.0418L178.397 35.984C179.585 35.135 178.444 33.1482 177.242 34.0061C176.14 34.7937 175.256 35.8178 175.162 37.2284C175.072 38.6012 175.769 39.7879 176.68 40.7524C177.695 41.8271 179.31 40.2051 178.299 39.134C177.312 38.09 177.119 36.9521 178.317 36.0418Z" fill="black"/>
<path fill-rule="evenodd" clip-rule="evenodd" d="M281.178 151.724C281.763 150.705 283.112 149.762 284.343 149.907C289.864 150.555 289.855 157.256 287.723 161.168C285.834 164.636 281.92 166.674 278.005 166.376C273.891 166.063 270.386 163.641 268.844 159.79C267.823 157.242 267.352 152.537 270.066 150.826C270.117 150.794 270.2 150.801 270.24 150.848C271.541 152.363 271.592 154.637 272.731 156.324C273.79 157.894 275.436 159.189 277.364 159.389C278.805 159.539 280.261 159.019 280.825 157.724C281.13 157.025 281.094 156.644 280.98 156.163L280.875 155.744C280.514 154.278 280.353 153.161 281.178 151.724V151.724ZM282.655 122.335C285.534 124.087 289.922 128.172 286.825 132.516C283.178 136.347 277.927 131.955 275.341 129.97C272.942 128.429 270.247 132.388 272.473 134.185C291.168 148.041 298.754 122.793 284.112 120.274C282.5 119.997 281.9 121.793 282.655 122.335V122.335ZM252.245 110.32C254.012 107.664 258.047 108.055 259.021 111.205C259.548 112.912 258.819 114.445 258.857 116.15C258.89 117.59 258.794 119.194 258.353 120.588C257.348 123.767 254.492 126.012 251.113 125.92C247.745 125.826 244.779 123.693 243.368 120.687C241.953 117.669 242.252 114.548 243.285 111.479C243.335 111.333 243.529 111.261 243.644 111.385C244.866 112.684 245.76 114.057 246.686 115.512L247.633 117.003C248.359 118.126 249.411 119.562 250.765 119.472L250.967 119.452C251.344 119.419 251.287 119.493 251.577 118.98C251.711 118.744 251.686 118.301 251.751 118.021L251.774 117.927L251.761 117.875C251.715 117.599 251.689 117.32 251.682 117.041L251.677 116.943C251.579 114.868 250.992 112.2 252.245 110.32V110.32ZM297.05 112.086C296.733 108.69 301.501 107.937 303.086 110.45C303.913 111.759 304.155 113.405 304.337 114.965L304.422 115.704C304.61 117.306 304.686 118.971 303.991 120.465C302.897 122.819 300.518 124.061 297.953 123.864C296.74 123.772 295.569 123.379 294.545 122.721C293.522 122.063 292.677 121.162 292.088 120.097C291.038 118.169 289.992 114.409 291.269 112.399C291.346 112.278 291.5 112.261 291.606 112.355C292.812 113.428 293.009 115.382 293.725 116.779C294.465 118.218 295.586 119.622 297.287 119.84C298.911 120.05 299.534 119.159 299.119 117.608C298.583 115.605 297.252 114.243 297.05 112.086V112.086ZM253.534 90.1332L254.314 89.8352C256.985 88.8237 260.653 87.6568 262.825 89.8315C264.166 91.1718 264.42 93.1478 263.464 94.7842C262.305 96.7674 260.225 96.8162 258.218 97.107C255.905 97.4418 253.644 98.0681 251.489 98.971C249.094 99.9861 246.872 101.251 244.695 102.661C242.624 104.003 240.563 106.198 238.086 106.611C237.985 106.628 237.87 106.584 237.844 106.472C237.281 104.048 238.844 101.662 240.24 99.7712C241.927 97.4827 243.973 95.6024 246.258 93.919C248.465 92.2916 250.985 91.1158 253.534 90.1332V90.1332ZM302.066 98.7525L302.305 98.711C303.926 98.44 305.393 98.5032 306.613 99.7875C307.547 100.766 307.906 102.036 307.462 103.333C307.052 104.529 306.135 105.743 304.805 105.994C300.312 106.839 295.337 106.698 290.823 106.059C288.756 105.766 286.673 105.407 284.66 104.841L283.736 104.572C282.056 104.092 280.133 103.59 278.913 102.354C278.474 101.91 278.727 101.274 279.252 101.068C281.381 100.234 284.297 100.676 286.568 100.611C289.212 100.528 291.852 100.346 294.482 100.066C297.048 99.7983 299.534 99.2167 302.066 98.7525V98.7525Z" fill="black"/>
<path fill-rule="evenodd" clip-rule="evenodd" d="M248.679 161.587C251.766 154.346 258.506 149.025 266.264 147.078C271.961 145.655 277.941 145.7 283.748 146.265C286.791 146.56 290.055 146.8 292.923 147.932C295.372 148.899 297.367 150.725 298.869 152.869C300.654 155.41 301.869 158.318 302.722 161.298C302.843 161.723 302.957 162.149 303.064 162.579C302.692 164.828 301.905 166.742 299.824 168.157C297.793 169.537 295.37 170.102 292.955 170.303C292.726 170.193 292.5 170.077 292.278 169.952C288.515 167.794 285.867 162.697 281.116 163.387C276.876 164.002 274.085 169.343 271.564 172.474C263.472 173.418 255.385 170.983 248.8 166.351C248.476 164.783 248.435 163.17 248.679 161.587M308.564 156.095C307.916 154.277 307.103 152.523 306.134 150.855C302.932 145.352 298.052 141.02 292.21 138.495C278.435 132.592 260.612 136.754 249.488 146.437C245.688 149.748 241.845 154.612 240.683 159.844C240.327 159.921 240 160.095 239.739 160.348C231.701 155.282 223.425 150.409 216.948 143.388C212.244 138.285 208.973 132.247 206.97 125.613C206.805 125.067 205.926 125.147 205.953 125.752L205.975 126.175C205.892 125.915 205.497 126.048 205.466 126.301C204.389 134.36 203.04 142.906 204.282 151.008C205.024 155.842 207.217 159.38 210.15 163.202C213.293 167.299 216.849 171.108 220.486 174.762C222.795 177.081 225.204 179.756 228.031 181.458C231.318 183.434 235.046 184.935 238.553 186.459C242.118 188.027 245.748 189.441 249.434 190.698C256.811 193.198 264.435 194.925 272.194 195.682C278.405 196.285 285.504 196.943 291.457 194.604C296.018 192.812 299.701 189.571 302.623 185.674C305.802 181.427 308.316 176.59 309.706 171.491C311.15 166.193 308.867 156.947 308.564 156.095" fill="black"/>
</svg>
