<svg fill="none" height="364" viewBox="0 0 460 364" width="460" xmlns="http://www.w3.org/2000/svg"><g clip-rule="evenodd" fill-rule="evenodd"><path d="m213.106 124.476c9.439.467 24.137 4.515 24.873 7.103 1.147 4.041-1.319 19.192 2.805 27.353 1.758 3.478 8.434 3.166 11.02 4.3 8.655 3.789 34.276 10.98 39.56 20.032 2.117 3.627 15.123 48.626 22.034 71.584.733 2.447 1.606 4.851 2.615 7.198l.352-1.721c2.818-13.876 4.227-22.277 4.227-25.201 0-4.57-3.642-23.847 0-28.75 3.606-4.854 12.296-8.823 16.208-8.901l.116-.002c2.568 0 4.795-.802 6.683-2.408l2.768-1.393c14.081-7.071 22.31-10.949 24.681-11.636 3.787-1.095 10.23 1.238 7.009 4.742-2.149 2.335-7.546 6.466-16.192 12.394l-3.26 2.591.394.205c4.213 2.22 6.69 4.089 7.432 5.606.764 1.563.398 3.412-1.101 5.547l.227.223c1.894 1.859 2.842 3.108 2.842 3.743v3.102c1.884 2.761 2.356 5.064 1.413 6.909-.942 1.844-2.436 3.443-4.482 4.794-1.506 3.967-3.302 6.79-5.385 8.47-2.081 1.681-5.681 3.079-10.797 4.196l-4.629 11.076-3.752 15.562-1.891 17.364.549.397c2.545 1.853 4.174 3.228 4.174 4.649 0 2.212-10.264 54.243-26.234 56.572-3.453.505-21.365-1.967-27.246-6.753l.087.517c1.383 8.362 1.09 12.705-.879 13.029-24.201 3.97-92.932 5.196-206.1962 3.68-.6748-60.151 2.3727-100.212 9.1411-120.18 17.3101-51.071 36.3961-68.514 43.0721-70.008 5.848-1.309 26.129-9.386 31.798-11.529 3.7-1.399 4.493-5.595 8.711-5.595l.341.002c4.078.041 7.694.77 9.727-1.329 5.331-5.507 3.842-13.132 6.053-20.431 1.22-4.022 9.548-7.675 21.132-7.103z" fill="#fdfbf5"/><path d="m187.173 138.897c.554-1.099 2.025-.956 2.996-.457 2.911 2.127-.135 6.256-.941 8.854-2.07 5.04-5.668 9.964-10.635 12.321.413 5.01.879 10.008 1.051 15.034 6.35 7.88 17.054 10.757 26.557 12.969 14.925 4.13 31.77-4.332 36.807-19.093-5.734-3.26-7.589-11.794-5.878-17.75.149-.417.796-.603 1.026-.135 1.571 3.231 1.362 7.172 3.146 10.365 17.132 1.641 39.239 8.109 50.463 21.971 4.973 6.934 6.943 15.954 9.393 23.993 5.227 16.57 9.391 33.475 14.517 50.063l.604-3.138c1.656-8.646 3.161-17.409 2.043-26.201l-.02-.42c-.367-6.997-2.554-19.999 2.868-24.721 4.905-3.751 12.011-6.765 18.166-5.036 10.952-4.877 20.406-13.089 32.072-16.289 3.59-.738 8.756.137 7.906 5.01-2.351 8.524-12.201 11.833-18.932 16.228 4.316 1.17 9.576 6.422 6.204 11.001-.022.066-.049.13-.08.192 2.733 1.212 3.117 4.26 2.446 6.872-.069.691-.25.099.155.724 3.086 2.912 1.723 11.027-2.926 11.302.305 3.846-2.164 7.582-5.292 9.679-3.369 2.259-8.242 2.358-11.033 5.45-6.551 11.558-8.81 25.204-9.525 38.438 4.319 1.619 8.193 6.454 4.27 10.558-.078.009-.155.018-.233.025-2.275 6.073-3.153 12.547-4.356 18.889-1.85 10.823-6.673 20.759-12.831 29.775-7.121 11.934-26.272 10.042-35.919 2.339.039 2.022.371 4.03-.274 5.983-.956 2.107-3.283 1.197-3.514-.879-5.1 2.871-6.301-6.602-.632-5.101-.436-6.848-.689-13.705-.893-20.564-6.418 2.079-6.696-8.577-.13-6.446l-.008-2.946c-.049-22.586.201-45.251 3.18-67.659.276-1.675.742-3.297 1.014-4.963.029-.173.299-.124.299.041.461 31.373-1.588 62.812.55 94.197 1.779.541 2.489 2.585 3.807 3.777 2.926 2.701 6.911 4.017 10.807 4.476 10.909 1.531 15.619-1.803 20.478-11.292-2.192 1.465-5.152-1.122-3.816-3.441l.042-.071c1.386-2.458 5.303-.985 4.808 1.767 4.885-7.827 7.442-16.652 9.33-25.607l.254-1.07c.919-3.802 2.109-8.159 4.313-11.598-13.44-3.427-26.589-13.871-28.693-28.2-3.413 10.728-8.035 21.215-12.442 31.65-1.36 3.628-1.928 7.528-3.879 10.894-.454.779-1.604.578-1.86-.243-1.755-7.848 3.561-15.313 6.322-22.379 2.253-3.993 8.724-22.226 12.735-22.271-4.508-19.768-10.519-39.387-16.244-58.909-5.537-26.358-16.819-31.442-40.718-39.742 4.31 21.982 23.992 43.26 13.518 66.316l-.254.598c-1.071 2.542-1.96 5.103-1.213 7.893.727 2.708 2.378 5.058 3.701 7.493 7.391 13.754 2.303 29.818-.554 44.142-3.611 16.796-7.176 33.61-10.907 50.381-.736 3.345-1.213 6.793-2.323 10.036-.574 1.672-3.436 1.514-3.25-.439.353-3.786 1.415-7.48 2.193-11.199 4.647-24.078 10.933-47.871 14.931-72.053 2.571-17.901-7.552-20.652-7.173-32.219 1.376-5.916 5.017-11.194 4.808-17.499.81-19.296-13.238-35.217-14.972-53.985l-3.063-1.092c-1.529-.548-3.059-1.102-4.583-1.666 8.021 56.132 5.586 113.49 1.577 169.9-.819 2.602-.04 20.785-3.476 19.172-.173 1.015-.711 2.014-1.885 2.009-10.65.098-21.305.267-31.955.393-5.125-.473-12.166 1.485-16.523-1.473-5.031-1.436-5.611-15.071-6.956-19.929l-.523-3.535c-8.55-57.749-16.201-116.687-10.055-175.009-8.551.33-10.314 9.562-10.949 16.285-1.585 14.837-11.166 27.616-11.626 42.624-.054 3.614.663 7.197 2.103 10.512 3.858 8.191 10.533 17.659 5.546 26.807-5.901 7.121-5.39 8.996-3.224 17.797 6.089 29.094 16.205 57.063 25.826 85.114-2.09 10.903-14.665-29.573-15.848-32.624-5.567 2.8-8.607-6.494-2.222-7.156-4.101-13.735-7.876-27.573-11.017-41.564l-.083-.394c-1.388-6.463-4.118-14.032.491-19.767 11.888-12.028-7.853-25.473-5.362-40.045-2.15 1.595-5.407-.083-5.357-2.762-.097-3.017 3.952-4.562 5.901-2.261 2.003-11.822 8.974-22.143 11.083-33.931l.097-.554c.715-4.165.915-8.549 2.96-12.346-2.784 1.81-5.749 3.272-8.798 4.562 5.453 4.556-5.104 8.715-4.231 1.677-29.897 8.654-36.657 20.724-47.632 48.442 2.051-1.993 5.563.587 4.336 3.129-.98 2.679-5.252 1.895-5.25-.96l-.5 1.195c-6.6566 15.926-12.7149 32.238-15.7594 49.281 5.9724-.843 4.4509 8.708-.9601 6.015-2.1718 15.159-2.2055 30.53-1.9402 45.81 5.0368-2.643 5.1887 6.339.0491 3.778.1871 12.522.4632 25.044.6702 37.566.0414 2.664-4.0675 2.652-4.1319 0-.48-19.241-1.3543-38.515-.9386-57.762-.3911-33.405 9.2055-65.601 23.5059-95.523 12.652-34.454 30.129-38.372 62.284-48.39 2.968-4.409 9.308-8.579 14.483-5.809 2.894-4.676 4.365-10.216 6.506-15.197zm-55.092 120.081c.121-.425.727-.318.747.101.269 5.405.029 10.844-.34 16.272-.224 3.314-.5 6.624-.734 9.915-.618 8.684-1.117 17.377-1.496 26.075.652-.268 1.367-.342 2.06-.215.693.128 1.335.451 1.849.933l.092.09c.354.322.618.731.767 1.186.21.407.319.842.317 1.307l-.001.117c-.002.644-.171 1.277-.491 1.836-.32.56-.781 1.026-1.336 1.353-.565.331-1.208.504-1.863.503-.072.006-.143.014-.215.017-.481.022-.96-.085-1.386-.308l-.065-.02c-.163 4.414-.294 8.829-.393 13.245-.087 3.849-.204 7.697-.282 11.546l-.035 1.925-.071 4.254c-.023 1.75-.012 3.426-.605 5.076l-.072.191c-.428 1.101-.761 2.635-1.905 3.247-.915.49-2.146.309-2.671-.644-.44-.798-.058-1.945.594-2.484-.014-.035-.032-.067-.049-.104-.101-.292-.253-.568-.344-.862-.285-.935-.207-1.929-.21-2.9 0-1.71.058-3.422.103-5.131.101-3.639.218-7.273.36-10.908.482-12.193 1.388-24.384 2.427-36.543l.352-4.104c.47-5.457.956-10.919 1.645-16.349.03-.259.064-.518.099-.779-.367-.184-.7-.43-.984-.726-1.092-1.146-1.755-2.861-2.376-4.338l-.143-.336c-.675-1.577-1.296-3.171-1.616-4.865l-.031-.154c-.146-.721-.436-1.999.33-2.348.399-.182.65-.052.78.347.008.026.009.054.004.08-.004.027-.014.053-.03.075.315.483.807.934 1.118 1.382l1.065 1.524.526.765c.667.982 1.38 1.922 2.117 2.85.578-4.073 1.288-8.129 2.392-12.094zm43.661 90.749c1.332-1.045 3.5-.477 3.5 1.449 0 1.935-2.172 2.493-3.5 1.449l-.066-.049-.063-.051c-.724-.566-.748-2.039-.055-2.653l.055-.044c.042-.037.085-.069.129-.101zm-58.015-3.763.115.001c.603 0 1.163.154 1.684.457.227.172.451.347.678.523.414.415.699.907.859 1.475l.119.888c.016.46-.076.888-.288 1.289-.136.414-.366.773-.69 1.075-.292.321-.662.559-1.075.69-.367.194-.756.292-1.174.292l-.113-.002c-.606 0-1.166-.153-1.687-.458-.229-.172-.453-.347-.68-.522-.409-.409-.705-.918-.859-1.476-.038-.294-.076-.592-.119-.888-.016-.46.081-.888.288-1.287.138-.414.368-.775.69-1.076.293-.32.664-.559 1.077-.691.365-.192.758-.29 1.175-.29zm151.682-6.166.85.114c.813.185 1.468.785 1.905 1.469.233.367.359.763.379 1.186.095.422.075.847-.058 1.272-.097.414-.289.778-.571 1.086-.096.152-.21.291-.339.416-.267.443-.669.735-1.083 1.034-.34.22-.733.345-1.138.362-.266.072-.547.072-.813 0-.403-.018-.795-.143-1.135-.362l-.618-.48c-.18-.21-.35-.429-.509-.655l-.313-.743c-.192-.594-.098-1.118.006-1.712.016-.098.042-.195.077-.288l.071-.189c.187-.493.286-.66.616-1.089l.126-.169c.063-.083.129-.166.202-.239.207-.215.502-.393.735-.577.489-.285 1.045-.435 1.61-.436zm-110.012-2.076.107.002c.471.003.912.12 1.32.356l.532.413c.322.326.547.708.675 1.153.027.233.061.467.092.698.013.359-.062.697-.226 1.011-.104.323-.291.614-.541.842-.231.25-.521.437-.844.542-.28.148-.592.226-.909.227l-.099-.003c-.472 0-.914-.12-1.322-.356l-.53-.41c-.321-.321-.553-.719-.675-1.156-.029-.233-.061-.464-.092-.697-.015-.36.061-.698.225-1.009.108-.324.286-.606.542-.842.236-.257.518-.439.843-.542.282-.149.58-.224.902-.229zm-21.385-1.072c.678-.006 1.365.186 1.917.577.54.383.948.795 1.21 1.414.071.169.143.335.204.504.28.742.33 1.488-.055 2.213-.372.704-1.176 1.011-1.895 1.223-.609.181-1.3.21-1.905-.006-.302-.099-.593-.229-.868-.387-.51-.314-.784-.687-1.125-1.147-.263-.446-.401-.955-.398-1.473 0-.528.131-1.017.398-1.474.522-.892 1.488-1.438 2.517-1.444zm-34.346.626c.855 0 1.607.396 2.122 1.063.522.678.712 1.522.482 2.361-.242.888-.977 1.666-1.888 1.89-.675.166-1.226.16-1.896.046-.567-.098-1.001-.436-1.435-.785-.496-.405-.649-1.145-.568-1.741.077-.597.353-.985.772-1.34l.003-.009-.155.12c.058-.051.116-.106.175-.161.018-.033.035-.069.05-.105.239-.407.581-.746.991-.981.41-.234.874-.358 1.347-.358zm199.469-9.821c.469-.126.943-.126 1.412 0 .347.081.648.241.905.477.26.169.471.385.631.655l.052.09c.37.629.428 1.349.268 2.05-.196.865-.994 1.654-1.856 1.858l-.029.004-.029.008c-.34.111-.705.127-1.054.046-.349-.014-.688-.123-.981-.314-.38-.245-.704-.567-.95-.947-.19-.295-.299-.635-.314-.986-.061-.229-.061-.471 0-.7.017-.354.12-.681.314-.986l.415-.536.043-.035c.331-.33.722-.557 1.173-.684zm-32.624-17.157c4.248 0 4.242 6.595 0 6.595-4.247 0-4.241-6.595 0-6.595zm-155.528-.833c.443-.102.906-.082 1.339.058.268.113.534.227.801.336l.679.526c.127.107.189.224.305.376l.146.19c.21.282.215.342.446.945.151.549.155 1.127.014 1.678s-.423 1.055-.819 1.464l-.092.093c-.294.32-.665.559-1.078.694-.262.153-.545.227-.847.227-.443.101-.905.081-1.337-.058l-.801-.338-.681-.525-.524-.681-.168-.399-.168-.401-.121-.892c-.016-.463.076-.891.288-1.293.081-.282.224-.532.431-.739.149-.254.35-.455.603-.603.207-.209.457-.352.739-.431.262-.154.544-.227.845-.227zm210.107-4.712c.355-.013.684.062.99.223.106.037.21.081.309.133.393.23.704.542.935.931.187.298.291.619.308.965.069.313.063.629-.022.942l-.027.094c-.077.281-.202.546-.37.784-.216.344-.512.631-.862.837-.389.225-.83.345-1.279.347-.917 0-1.709-.497-2.192-1.259-.067-.106-.106-.243-.155-.353-.041-.104-.11-.236-.145-.356-.123-.46-.123-.921 0-1.382.081-.338.233-.632.463-.882.183-.28.433-.51.728-.668.375-.218.776-.334 1.203-.354zm-179.355-3.226c.447-.123.894-.132 1.339-.029l.111.029c.356.085.665.246.93.486.294.195.532.452.704.768.243.418.372.894.372 1.378s-.129.96-.372 1.378c-.244.413-.571.737-.982.979l-.357.172c-.287.185-.618.29-.959.305-.225.062-.462.062-.687 0-.229.002-.454-.059-.652-.175-.216-.059-.413-.174-.57-.334-.28-.179-.509-.428-.664-.723l-.261-.619-.092-.688.092-.684.141-.337c.125-.456.367-.871.701-1.205s.749-.576 1.204-.701zm160.691-5.47c.474-.149.944-.169 1.413-.065.317 0 .616.082.891.244.302.083.561.232.782.453.385.25.686.581.91.992l.355.847c.215.548.137 1.355.008 1.907-.107.452-.314.848-.623 1.186-.151.259-.366.475-.625.626-.297.271-.652.471-1.039.583l-.107.029-.04.011c-.006.003-.012.003-.018.003-.005.003-.011.003-.014.003-.155.038-.315.061-.48.067-.468.105-.956.083-1.413-.064-.281-.118-.561-.237-.842-.356-.239-.183-.478-.367-.716-.552l-.554-.717c-.255-.393-.399-.848-.418-1.316-.085-.308-.085-.633 0-.941 0-.32.081-.615.239-.891.141-.437.394-.831.733-1.141.239-.186.477-.37.716-.551zm-206.6654-11.607c.4894-.134.9784-.134 1.4674 0l.658.276c.324.175.58.411.775.712.245.267.411.581.495.94.192.494.169 1.275.016 1.778-.158.547-.45 1.045-.848 1.451-.685.708-1.734.912-2.6631.698-.2562-.062-.4999-.167-.7208-.311-.7025-.434-1.1749-1.194-1.1718-2.033 0-.09.0061-.182.0184-.273-.046-.184-.0613-.376-.0537-.577l.0967-.733.0061-.018c.1212-.438.3495-.84.6644-1.167.3149-.328.7064-.572 1.1393-.711l.1043-.032zm244.5094-72.807c-.885-7.261-4.213-15.074-14.364-10.809l-.754.282c-2.511.952-5.439 2.202-6.967 4.4-1.053 1.514-.697 4.448-.843 6.215-.661 5.745-.307 11.482.383 17.205.89 13.409-1.928 27.303-7.538 39.49 5.615 9.09 13.129 17.569 23.379 21.356.434-10.333 2.455-20.48 4.609-30.563l.084-.441c.861-4.547 1.291-9.215 4.276-12.997 6.072-6.595 14.423-2.862 18.419-13.458-.841-.425-.376-1.878.635-1.599 3.504.623 4.073-5.877 1.675-7.443-2.499-1.525.017-4.338-1.046-6.37-.594-.874-1.875-.903-2.454-1.913-1.539-3.711 6.158-6.09-2.893-10.275-1.853-.66-3.923-.25-5.791-.258-2.749.257-4.933 2.196-7.447 2.805 2.738 7.09-4.168 13.918-10.4 8.255-3.393 3.207-7.186 10.519 1.06 7.11 4.035-2.694 7.509-6.178 12.193-7.838l.098-.03c1.739-.569 9.348-4.27 8.971-1.068-2.85 2.754-7.551 2.72-10.851 4.955-4.577 2.117-7.503 7.249-12.982 7.178-1.262 7.674 7.44 3.004 10.681.888l.898-.487c4.572-2.472 9.211-4.761 14.541-4.791 1.472-.01 1.465 2.259 0 2.279-6.946.043-12.601 4.389-18.42 7.62-.574 4.478 5.983 2.517 8.469 1.856 2.609-.366 6.798-3.189 9.08-1.698.892 2.295-3.036 2.125-4.404 2.821 6.246 3.001.773 4.891-.9.279l-.491.168c-4.181 1.405-14.322 4.3-13.115-2.788-1.53.678-3.397 1.083-5.087.707-4.218 6.241-10.945 3.826-1.167-.428-2.203-1.026-2.939-4.985-.822-6.458-7.698-.471-1.984-8.551 1.202-11.243-.298-.3-.586-.61-.863-.929-1.838.875-3.767 1.407-5.833 1.594-1.976.18-2.416-3.186-.467-3.462 2.091-.295 4.016-.853 5.856-1.904 2.79-1.204 3.741 3.975 6.532 4.158 1.523.302 2.554-1.034 2.858-2.371zm-64.799 66.821c.675 0 1.273.282 1.762.73.489.446.701 1.118.73 1.76.012.343-.058.665-.215.963-.099.307-.277.583-.515.801-.472.46-1.103.721-1.762.73-.674 0-1.273-.282-1.763-.73-.489-.451-.699-1.119-.73-1.764-.013-.333.061-.664.215-.959.091-.278.238-.523.445-.734l.07-.067c.472-.461 1.103-.722 1.763-.73zm20.423-15.376.107.001c.571.003 1.099.146 1.591.431.215.166.428.328.64.494.394.394.677.886.819 1.426.142.539.139 1.106-.01 1.644-.051.324-.174.632-.36.902-.272.459-.655.841-1.115 1.111-.474.279-1.015.425-1.565.424-.541.001-1.073-.141-1.542-.41-.47-.27-.861-.658-1.134-1.125-.188-.269-.313-.578-.363-.902-.145-.519-.154-1.065-.026-1.588s.387-1.004.754-1.398l.081-.084c.286-.308.623-.526 1.016-.653.341-.181.721-.274 1.107-.273zm-155.859.173c.235-.065.482-.065.716 0 .358.017.691.123.999.317.181.143.363.283.544.422l.158.191c.338.412.347.481.606 1.11.108.35.123.7.046 1.05 0 .237-.061.457-.178.661-.06.22-.178.421-.34.581-.113.195-.275.358-.47.473-.253.23-.552.389-.894.471l-.698.093c-.09-.012-.184-.026-.276-.035-.106-.003-.212-.015-.317-.035l-.107-.023-.096-.026c-.127-.038-.251-.087-.369-.149-.224-.064-.429-.183-.594-.347-.292-.189-.53-.449-.693-.756l-.046-.105c-.062-.11-.113-.226-.152-.346-.109-.191-.167-.407-.169-.626-.065-.293-.059-.597.017-.887l.029-.098.25-.594c.129-.201.266-.405.441-.57.104-.094.362-.295.506-.395l.089-.06c.308-.194.642-.3.998-.317zm-39.064-4.636c.466-1.84 2.877-2.419 4.19-1.106 1.311 1.313.732 3.726-1.104 4.192l-.212.053c-.405.103-.83.099-1.233-.011-.403-.111-.77-.325-1.066-.621-.295-.296-.508-.663-.618-1.067-.11-.403-.114-.828-.009-1.233zm222.406-14.996c-.014-.182.221-.247.338-.139 1.561 1.4 2.556 3.08 4.451 4.166 1.906 1.089 3.869 1.002 5.855 1.704.148.046.277.137.369.261s.142.275.142.429c0 .155-.05.305-.142.429s-.221.216-.369.261c-3.759 1.313-10.359-3.139-10.644-7.111zm-176.612-.285c.417-.131.839-.149 1.258-.055.284 0 .549.07.793.213.268.075.498.211.696.405.236.141.425.331.568.567.279.306.466.663.563 1.071l.11.839-.11.841c-.108.249-.215.502-.318.752l-.29.392c-.233.313-.271.316-.84.74-.364.23-.755.356-1.174.373-.277.076-.556.076-.839 0-.282 0-.547-.072-.793-.215-.263-.073-.504-.212-.697-.405-.341-.222-.62-.526-.81-.885-.108-.25-.215-.503-.318-.752l-.113-.841.113-.839.006-.026c.149-.525.415-.982.798-1.368l.629-.487c.245-.158.501-.239.767-.32zm151.261.629c.445-.121.914-.122 1.359-.004.446.117.853.35 1.181.674.658.66.917 1.642.67 2.539-.158.568-.503 1.066-.978 1.414-.475.349-1.054.527-1.643.507-.444-.003-.88-.121-1.264-.344l-.504-.393c-.241-.219-.42-.497-.52-.807-.158-.296-.233-.63-.217-.966l-.003-.061c-.01-.124.006-.249.045-.367 0-.127.02-.25.052-.37.122-.434.353-.831.672-1.15s.715-.551 1.15-.672zm-193.498-8.78c.288-.011.556.048.806.181.26.082.493.232.675.434.206.189.348.416.433.675.133.25.191.519.182.807 0 .379-.098.734-.285 1.057l-.331.425c-.26.263-.568.44-.924.542l-.207.07c-.296.101-.612.127-.92.075-.33-.031-.645-.15-.914-.343-.262-.152-.48-.37-.632-.632l-.178-.422c-.036-.167-.058-.336-.064-.506 0-.023 0-.042-.003-.065 0-.126.038-.434.07-.561.072-.266.216-.519.384-.732.141-.224.337-.399.575-.529l.021-.016.025-.016c.073-.053.153-.105.23-.16.323-.187.678-.284 1.057-.284zm167.325-2.303c.518 0 1.001.134 1.449.393l.045.02c.429.251.786.609 1.034 1.04.247.432.378.92.378 1.418 0 .497-.131.986-.378 1.417-.248.431-.605.79-1.034 1.04-.014.01-.03.016-.045.022-.439.257-.938.392-1.447.392s-1.008-.135-1.447-.392c-.432-.255-.79-.617-1.039-1.051-.25-.435-.382-.927-.384-1.428.002-.76.305-1.489.843-2.026.537-.538 1.265-.841 2.025-.845zm-134.563-3.749.087-.001c.333-.016.665.058.959.216.308.101.576.273.805.515l.472.396.138.112.066.057c.318.321.536.696.658 1.132.039.25.071.496.097.746.071.647-.311 1.313-.732 1.773-.227.244-.497.414-.806.519-.298.155-.631.229-.967.213-.704-.062-1.369-.21-1.875-.755-.059-.064-.114-.133-.172-.201l-.405-.466c-.307-.312-.522-.678-.638-1.1-.034-.224-.061-.444-.092-.664-.029-.665.296-1.288.73-1.762.4-.437 1.081-.705 1.675-.73zm-16.358-6.827c3.37 0 3.364 5.23 0 5.23-3.366 0-3.358-5.23 0-5.23zm169.43-7.332.106.001c.558.003 1.079.143 1.563.425l.627.483c.383.39.649.842.797 1.369.036.274.073.55.111.823.017.428-.075.827-.269 1.197-.122.382-.337.715-.639.997-.271.297-.615.518-.997.64-.367.194-.779.287-1.193.268-.55.001-1.091-.146-1.565-.425-.21-.161-.417-.323-.629-.483-.347-.35-.607-.777-.757-1.247l-.036-.12-.113-.827c-.019-.414.074-.826.268-1.193.123-.387.338-.716.638-.999.283-.302.617-.515.999-.638.339-.179.701-.27 1.089-.271zm-15.178-9.791c.301-.009.58.052.842.189.27.087.503.239.701.451.417.333.673 1.001.673 1.543s-.256 1.209-.673 1.543c-.268.267-.599.46-.963.56l-.58.078c-.564.027-1.138-.268-1.54-.638-.079-.075-.158-.148-.239-.221-.365-.337-.525-.84-.548-1.322-.01-.25.046-.498.163-.72.074-.231.206-.439.385-.604.081-.071.159-.146.239-.219.418-.394.966-.622 1.54-.64zm96.166-17.44c2.128-2.595.889-4.442-2.31-3.799-5.513.745-10.7 4.231-15.554 6.73-5.299 2.799-10.759 5.11-16.164 7.741 2.23 1.37 3.89 3.514 5.156 5.961 2.53-1.922 5.763-2.841 8.918-2.961 5.725-5.486 15.207-6.742 19.954-13.672zm-251.549 8.616c.576.001 1.116.138 1.624.409l.107.06.693.539c.338.311.574.679.714 1.104.214.41.311.853.294 1.327.02.459-.082.916-.294 1.323-.138.424-.384.806-.714 1.106-.194.25-.445.452-.731.587-.276.112-.548.229-.824.346-.307.098-.664.11-.997.127-.596 0-1.181-.159-1.696-.46l-.68-.525c-.321-.296-.561-.669-.696-1.085-.193-.363-.293-.769-.291-1.181l.003-.115c0-.026 0-.055.003-.084.038-.306.081-.609.123-.915.107-.448.311-.839.615-1.17.074-.151.182-.283.316-.385.426-.428.932-.721 1.515-.887.305-.038.609-.08.914-.121zm150.346-8.591.098.002c.439 0 .844.11 1.22.326l.489.379c.3.302.509.658.621 1.068l.089.641c.009.335-.06.643-.212.931-.096.298-.268.566-.498.778-.211.232-.479.404-.778.5-.286.151-.607.223-.931.207-.434 0-.842-.11-1.217-.331-.163-.123-.327-.25-.49-.376-.27-.27-.472-.601-.589-.965l-.03-.101-.086-.643c-.017-.323.055-.644.207-.929.096-.303.265-.562.498-.78.221-.236.48-.402.778-.498.259-.137.537-.206.831-.209zm-131.408-3.512.112.002c.644.003 1.246.164 1.802.489.24.184.48.37.72.559.444.443.748.968.92 1.575l.126.947c.02.492-.085.949-.307 1.374-.143.445-.39.827-.739 1.151-.312.341-.707.595-1.148.736-.422.225-.896.331-1.374.309-.644 0-1.242-.163-1.8-.487l-.723-.558c-.435-.438-.751-.981-.917-1.576l-.127-.949c-.022-.478.084-.952.308-1.375.143-.442.388-.827.736-1.147.324-.352.706-.599 1.15-.741.392-.206.812-.307 1.261-.309zm119.982-8.914c.294-.078.589-.078.883 0 .44.018.853.152 1.235.394l.672.52c.415.407.716.917.871 1.478l.116.872c.016.451-.078.872-.282 1.261-.121.375-.322.7-.6.982l-.105.105c-.291.317-.659.554-1.068.687-.259.153-.541.227-.839.227-.439.1-.897.08-1.325-.058-.262-.114-.528-.224-.793-.335l-.086-.047c-1-.548-1.619-1.697-1.619-2.822 0-1.126.619-2.276 1.619-2.824.031-.012.055-.029.086-.046.382-.242.793-.376 1.235-.394z" fill="#000"/><path d="m222.304 22.3702c48.77 1.5448 51.712 24.7249 51.712 63.5987 0 38.8721-25.301 63.3691-34.617 67.6461-9.316 4.278-33.845 22.65-55.983 14.184-22.136-8.467-15.725-44.237-15.725-59.607 0-15.3688 5.842-87.3666 54.613-85.8218z" fill="#fdfbf5"/><g fill="#000"><path d="m242.089 140.848c-8.955 5.002-19.211 5.197-28.845 2.049-5.778-1.884-11.075-4.796-16.034-8.278-4.313-3.031-8.161-6.394-11.975-9.964-3.14-6.928-5.936-13.843-7.245-21.382-1.174-6.7668-1.329-13.7929.032-20.5475 10.064-8.2841 20.067-16.6357 30.056-25.0134 5.08-4.2739 10.196-8.503 15.35-12.6869 2.621-2.1216 5.218-4.274 7.828-6.4048l1.29-1.0493c5.393 3.9487 11.174 7.3329 16.526 11.3476 2.81 2.1065 5.521 4.3425 8.123 6.7009 1.362 1.237 2.691 2.5098 3.986 3.8169 1.186 1.1935 2.33 2.9055 4.012 3.3565.231.0614.447.0737.651.0461 2.248 19.6977 3.846 40.9709-5.787 58.8629-4.202 7.804-10.161 14.781-17.968 19.146zm-58.264 7.24c-1.233-1.13.605-2.96 1.833-1.834 7.715 7.07 17.799 10.818 27.985 12.552 1.644.28.943 2.779-.689 2.502-10.635-1.812-21.087-5.851-29.129-13.22zm-9.256 10.848c-1.472-.79-.161-3.028 1.309-2.24 6.01 3.225 12.601 4.9 19.288 6.032 1.644.278.943 2.777-.689 2.501-6.914-1.169-13.698-2.961-19.908-6.293zm24.459-109.2732c4.988-4.4796 10.346-8.7397 16.008-12.3341 5.728-3.6389 11.986-5.8142 18.748-5.8664-.472.379-.923.8008-1.38 1.192-1.276 1.0938-2.551 2.1938-3.824 3.2891-2.548 2.1938-5.1 4.3875-7.615 6.6165-4.951 4.3967-9.919 8.7704-14.859 13.1779-9.496 8.4565-18.793 17.1341-27.883 26.0258.049-.2178.101-.4357.151-.652 3.011-12.5795 11.2-22.9592 20.654-31.4488zm39.092-17.6528c.032-.0966.055-.1917.067-.2823 12.979 1.6921 23.818 11.248 27.401 23.8275-.312.4342-.483.9511-.419 1.4988l.098.8284c-.445-.4403-.902-.8514-1.29-1.2426-1.293-1.3101-2.619-2.5864-3.978-3.8275-2.773-2.5349-5.685-4.9138-8.721-7.1259-5.298-3.8521-11.032-7.3943-17.348-9.2413.415-.3406.829-.6812 1.248-1.0171 1.247-1.0156 2.404-1.8517 2.942-3.418zm23.265-13.4524c-7.968-8.71211-19.001-15.09239-30.619-17.31069-11.096-2.120107-22.583-.722552-33.065 3.39801-21.934 8.62468-39.241 27.58908-47.345 49.56648-4.724 12.8019-6.273 26.8388-4.853 40.391 1.411 13.4906 5.473 27.4236 12.861 38.9016.676 1.051 1.418 2.059 2.196 3.034-.347 3.963-1.669 7.847-3.748 11.225-.112.181-.23.359-.347.537-2.13 1.596-4.341 3.094-6.497 4.641-1.87 1.339-3.719 2.714-5.477 4.197-1.659 1.402-3.587 2.962-4.71 4.852-.92 1.55-1.296 3.656-.04 5.132 1.514 1.779 4.08 1.152 6.13 1.152.177 0 .353.005.526.006.617.388 1.252.738 1.866 1.063 6.211 3.295 12.446 6.554 18.687 9.797 12.431 6.461 24.808 13.182 37.493 19.132 5.879 2.759 12.171 5.171 18.755 5.162 6.176-.009 11.759-2.464 16.581-6.196 5.496-4.251 10.091-9.65 14.549-14.941 1.783-2.117 3.528-4.26 5.243-6.432 3.291-1.1 6.558-1.421 9.494.699 2.355 1.703 5.46-.612 5.515-3.168.02-.896-.019-1.792-.117-2.683-.589-5.447-3.253-10.376-6.254-14.946-1.651-2.497-3.352-4.96-5.103-7.387-.408-.571-.808-1.149-1.199-1.732 6.977-10.278 12.51-21.675 15.914-33.584 3.573-12.531 4.788-25.5261 3.992-38.5122-1.225-19.9002-6.682-40.9632-20.428-55.9942z"/><path d="m244.905 126.443c-2.387.692-4.948.753-7.382.04-2.207-.649-4.472-2.074-6.097-3.963-1.443-1.675-2.377-3.712-2.34-5.888.001-.226.082-.444.228-.616.15-.173.351-.294.574-.345.223-.052.457-.031.667.059.195.087.352.241.442.434.25.329.498.652.748.965 2.007 2.481 3.95 4.334 6.968 4.998 1.592.345 3.249.223 4.773-.349 1.627-.611 3.071-1.626 4.197-2.95.515-.599 1.121-.844 1.714-.849.674-.004 1.339.309 1.839.809.493.492.822 1.16.853 1.858.026.613-.175 1.253-.706 1.825-1.763 1.882-4.001 3.254-6.478 3.972zm-.072-31.0593c2.446 1.4896 6.175 4.9593 3.543 8.6493-3.098 3.252-7.56-.477-9.758-2.165-2.038-1.307-4.33 2.056-2.439 3.582 15.887 11.768 22.333-9.6767 9.892-11.8152-1.37-.2362-1.879 1.2886-1.238 1.7489zm-22.89-6.5475c-.787-.5032-1.711-.6766-2.736-.2102-.802.3651-2.207 1.5801-3.186 3.1786-.668 1.0923-1.142 2.3748-1.044 3.711.014.1309-.004.2632-.051.3861s-.123.2329-.22.3211c-.166.1469-.373.2386-.592.2623-.209.0246-.421.0058-.622-.0552-.136-.0362-.262-.1028-.369-.1947s-.191-.2068-.247-.3361c-.684-1.8194-.39-3.8505.379-5.6822 1.035-2.4715 2.915-4.5425 4.148-5.2114 2.109-1.1428 4.595-1.195 6.707-.0306 1.798.991 2.922 2.591 4.04 4.2218.238.3467.474.6903.718 1.0294.488.6765.537 1.3484.348 1.9252-.21.6382-.745 1.1767-1.412 1.459-.618.2608-1.335.2976-1.97.0291-.535-.2255-1.027-.6673-1.339-1.4144-.524-1.2595-1.397-2.6494-2.552-3.3888zm39.942 2.8028c-.54.2807-.96.3651-1.558.1856-.344-.1043-.658-.2913-.913-.5446-.255-.2503-.431-.5697-.508-.9189-.168-.8647-.635-1.6427-1.319-2.1984-.291-.2363-.63-.4079-.993-.5033-.363-.0955-.742-.1127-1.112-.0505-.868.1457-1.695.7026-2.266 1.3592-.183.2249-.347.4651-.489.718-.282.4633-.555.8943-.942 1.2364-.163.1386-.369.2161-.583.2194-.087-.0009-.175-.0149-.259-.0414-.865-.8683-1.03-1.5264-1.003-2.18.029-.6842.299-1.3791.736-2.0249 1.023-1.5188 2.965-2.7629 4.276-3.0452 1.796-.3866 3.579.0767 5.008 1.08 1.471 1.0324 2.561 2.6355 2.9 4.4427.082.4341.048.9036-.118 1.3117-.162.4107-.466.7494-.857.9542zm-35.983-18.9875c-1.077 1.0493-2.353 1.212-3.643 1.3577-.716.0813-1.288.1457-1.851.2731-1.548.3497-3.078.8759-4.474 1.6353-1.459.7916-3.049 1.7489-4.192 2.9731-.273.2914-.529.5967-.785.9036-.235.2792-.46.5476-.698.8069-.273.2991-.532.6106-.79.922-.082.1272-.156.2588-.224.3942-.138.2926-.293.5764-.466.8499-.179.3007-.276.3835-.359.4219-.123.0612-.26.0873-.397.0752-.128-.0211-.246-.0786-.342-.1657-.552-.4679-.716-1.2365-.699-2.0511.026-1.2349.481-2.6049.901-3.4456.977-1.9559 2.332-3.9886 3.961-5.446 1.858-1.666 3.892-2.927 6.227-3.7953 1.452-.5416 3.131-1.0371 4.713-.9742 1.138.0461 2.225.3836 3.122 1.2288.551.5201.816 1.258.816 1.9944 0 .7532-.274 1.5095-.82 2.0403zm38.173 9.6188c-.062.1049-.156.1875-.268.2362-.083.0364-.173.0541-.264.0519s-.18-.0243-.261-.0646c-.081-.0404-.152-.0981-.209-.1691-.056-.0709-.096-.1534-.117-.2416-.715-3.1433-2.105-5.4813-5.068-6.9908-1.459-.741-3.136-1.212-4.724-1.5878-.46-.1105-.948-.181-1.439-.2531-1.538-.224-3.088-.4817-4.092-1.7259-.292-.3574-.506-.7719-.629-1.2171-.123-.4451-.151-.911-.084-1.3678.068-.434.239-.8453.499-1.1995s.6-.641.994-.8363c2.182-1.1291 4.892-.0214 7.095.922l.481.2056c2.155.9097 4.12 2.1109 5.735 3.8291 1.281 1.3622 2.469 3.3765 2.946 5.4491.399 1.7243.305 3.4839-.595 4.9581z"/><path d="m267.569 100.907c-4.861 2.342-11.647-1.1142-14.917-4.7346-1.19-1.3178-2.107-5.0901-1.65-7.4818 1.241-6.4784 5.9-10.3673 10.819-11.6943 6.819-1.8409 13.681 2.8227 12.88 8.3255-.757 5.2159-1.908 12.782-7.132 15.5852zm-33.099-12.4449c-.39 7.0598-6.055 13.2389-12.828 15.0689-10.911 3.047-16.304-4.6279-18.746-12.8951-.244-.8223-.814-3.329.718-5.4813 6.021-8.4605 20.672-7.0185 27.988-4.6944 2.142 2.0481 3.018 5.0073 2.868 8.0019m38.383-12.1776-.009.0122-.075-.046zm9.131.8161c-.635-7.1888-23.175-4.4366-25.81-3.8475-7.192 2.117-13.405 7.876-21.447 5.3448-8.331-9.2935-36.388-6.6288-42.269-1.8946-1.114-.4372-2.468-.2025-3.902.2101-7.367-.2669-40.997 2.2751-34.118 11.6821 1.044.7241 2.087-.0123 2.116-1.5049 35.859-12.9523 32.382-.8208 36.635-2.2383.649.1872 1.327.3053 1.92.4296 3.292 1.06 4.408.7333 4.842 4.4304 2.979 28.5477 40.973 18.6947 37.858-4.7219 3.084-.1703 5.783-1.5049 9.046-.201 2.265 22.0586 20.006 22.9496 25.345 15.3026 4.026-5.308 2.429-13.3174 7.965-17.4932 2.184 1.8301 2.325-4.3446 1.819-5.4982"/></g></g></svg>