<svg width="460" height="364" viewBox="0 0 460 364" fill="none" xmlns="http://www.w3.org/2000/svg">
<path fill-rule="evenodd" clip-rule="evenodd" d="M213.106 124.476C222.545 124.943 237.243 128.991 237.979 131.579C239.126 135.62 236.66 150.771 240.784 158.932C242.542 162.41 249.218 162.098 251.804 163.232C260.459 167.021 286.08 174.212 291.364 183.264C293.481 186.891 306.487 231.89 313.398 254.848C314.131 257.295 315.004 259.699 316.013 262.046L316.365 260.325C319.183 246.449 320.592 238.048 320.592 235.124C320.592 230.554 316.95 211.277 320.592 206.374C324.198 201.52 332.888 197.551 336.8 197.473L336.916 197.471C339.484 197.471 341.711 196.669 343.599 195.063L346.367 193.67C360.448 186.599 368.677 182.721 371.048 182.034C374.835 180.939 381.278 183.272 378.057 186.776C375.908 189.111 370.511 193.242 361.865 199.17L358.605 201.761L358.999 201.966C363.212 204.186 365.689 206.055 366.431 207.572C367.195 209.135 366.829 210.984 365.33 213.119L365.557 213.342C367.451 215.201 368.399 216.45 368.399 217.085V220.187C370.283 222.948 370.755 225.251 369.812 227.096C368.87 228.94 367.376 230.539 365.33 231.89C363.824 235.857 362.028 238.68 359.945 240.36C357.864 242.041 354.264 243.439 349.148 244.556L344.519 255.632L340.767 271.194L338.876 288.558L339.425 288.955C341.97 290.808 343.599 292.183 343.599 293.604C343.599 295.816 333.335 347.847 317.365 350.176C313.912 350.681 296 348.209 290.119 343.423L290.206 343.94C291.589 352.302 291.296 356.645 289.327 356.969C265.126 360.939 196.395 362.165 83.1308 360.649C82.456 300.498 85.5035 260.437 92.2719 240.469C109.582 189.398 128.668 171.955 135.344 170.461C141.192 169.152 161.473 161.075 167.142 158.932C170.842 157.533 171.635 153.337 175.853 153.337L176.194 153.339C180.272 153.38 183.888 154.109 185.921 152.01C191.252 146.503 189.763 138.878 191.974 131.579C193.194 127.557 201.522 123.904 213.106 124.476V124.476Z" fill="#FDFBF5"/>
<path fill-rule="evenodd" clip-rule="evenodd" d="M187.173 138.897C187.727 137.798 189.198 137.941 190.169 138.44C193.08 140.567 190.034 144.696 189.228 147.294C187.158 152.334 183.56 157.258 178.593 159.615C179.006 164.625 179.472 169.623 179.644 174.649C185.994 182.529 196.698 185.406 206.201 187.618C221.126 191.748 237.971 183.286 243.008 168.525C237.274 165.265 235.419 156.731 237.13 150.775C237.279 150.358 237.926 150.172 238.156 150.64C239.727 153.871 239.518 157.812 241.302 161.005C258.434 162.646 280.541 169.114 291.765 182.976C296.738 189.91 298.708 198.93 301.158 206.969C306.385 223.539 310.549 240.444 315.675 257.032L316.279 253.894C317.935 245.248 319.44 236.485 318.322 227.693L318.302 227.273C317.935 220.276 315.748 207.274 321.17 202.552C326.075 198.801 333.181 195.787 339.336 197.516C350.288 192.639 359.742 184.427 371.408 181.227C374.998 180.489 380.164 181.364 379.314 186.237C376.963 194.761 367.113 198.07 360.382 202.465C364.698 203.635 369.958 208.887 366.586 213.466C366.564 213.532 366.537 213.596 366.506 213.658C369.239 214.87 369.623 217.918 368.952 220.53C368.883 221.221 368.702 220.629 369.107 221.254C372.193 224.166 370.83 232.281 366.181 232.556C366.486 236.402 364.017 240.138 360.889 242.235C357.52 244.494 352.647 244.593 349.856 247.685C343.305 259.243 341.046 272.889 340.331 286.123C344.65 287.742 348.524 292.577 344.601 296.681C344.523 296.69 344.446 296.699 344.368 296.706C342.093 302.779 341.215 309.253 340.012 315.595C338.162 326.418 333.339 336.354 327.181 345.37C320.06 357.304 300.909 355.412 291.262 347.709C291.301 349.731 291.633 351.739 290.988 353.692C290.032 355.799 287.705 354.889 287.474 352.813C282.374 355.684 281.173 346.211 286.842 347.712C286.406 340.864 286.153 334.007 285.949 327.148C279.531 329.227 279.253 318.571 285.819 320.702L285.811 317.756C285.762 295.17 286.012 272.505 288.991 250.097C289.267 248.422 289.733 246.8 290.005 245.134C290.034 244.961 290.304 245.01 290.304 245.175C290.765 276.548 288.716 307.987 290.854 339.372C292.633 339.913 293.343 341.957 294.661 343.149C297.587 345.85 301.572 347.166 305.468 347.625C316.377 349.156 321.087 345.822 325.946 336.333C323.754 337.798 320.794 335.211 322.13 332.892L322.172 332.821C323.558 330.363 327.475 331.836 326.98 334.588C331.865 326.761 334.422 317.936 336.31 308.981L336.564 307.911C337.483 304.109 338.673 299.752 340.877 296.313C327.437 292.886 314.288 282.442 312.184 268.113C308.771 278.841 304.149 289.328 299.742 299.763C298.382 303.391 297.814 307.291 295.863 310.657C295.409 311.436 294.259 311.235 294.003 310.414C292.248 302.566 297.564 295.101 300.325 288.035C302.578 284.042 309.049 265.809 313.06 265.764C308.552 245.996 302.541 226.377 296.816 206.855C291.279 180.497 279.997 175.413 256.098 167.113C260.408 189.095 280.09 210.373 269.616 233.429L269.362 234.027C268.291 236.569 267.402 239.13 268.149 241.92C268.876 244.628 270.527 246.978 271.85 249.413C279.241 263.167 274.153 279.231 271.296 293.555C267.685 310.351 264.12 327.165 260.389 343.936C259.653 347.281 259.176 350.729 258.066 353.972C257.492 355.644 254.63 355.486 254.816 353.533C255.169 349.747 256.231 346.053 257.009 342.334C261.656 318.256 267.942 294.463 271.94 270.281C274.511 252.38 264.388 249.629 264.767 238.062C266.143 232.146 269.784 226.868 269.575 220.563C270.385 201.267 256.337 185.346 254.603 166.578L251.54 165.486C250.011 164.938 248.481 164.384 246.957 163.82C254.978 219.952 252.543 277.31 248.534 333.72C247.715 336.322 248.494 354.505 245.058 352.892C244.885 353.907 244.347 354.906 243.173 354.901C232.523 354.999 221.868 355.168 211.218 355.294C206.093 354.821 199.052 356.779 194.695 353.821C189.664 352.385 189.084 338.75 187.739 333.892L187.216 330.357C178.666 272.608 171.015 213.67 177.161 155.348C168.61 155.678 166.847 164.91 166.212 171.633C164.627 186.47 155.046 199.249 154.586 214.257C154.532 217.871 155.249 221.454 156.689 224.769C160.547 232.96 167.222 242.428 162.235 251.576C156.334 258.697 156.845 260.572 159.011 269.373C165.1 298.467 175.216 326.436 184.837 354.487C182.747 365.39 170.172 324.914 168.989 321.863C163.422 324.663 160.382 315.369 166.767 314.707C162.666 300.972 158.891 287.134 155.75 273.143L155.667 272.749C154.279 266.286 151.549 258.717 156.158 252.982C168.046 240.954 148.305 227.509 150.796 212.937C148.646 214.532 145.389 212.854 145.439 210.175C145.342 207.158 149.391 205.613 151.34 207.914C153.343 196.092 160.314 185.771 162.423 173.983L162.52 173.429C163.235 169.264 163.435 164.88 165.48 161.083C162.696 162.893 159.731 164.355 156.682 165.645C162.135 170.201 151.578 174.36 152.451 167.322C122.554 175.976 115.794 188.046 104.819 215.764C106.87 213.771 110.382 216.351 109.155 218.893C108.175 221.572 103.903 220.788 103.905 217.933L103.405 219.128C96.7484 235.054 90.6901 251.366 87.6456 268.409C93.618 267.566 92.0965 277.117 86.6855 274.424C84.5137 289.583 84.48 304.954 84.7453 320.234C89.7821 317.591 89.934 326.573 84.7944 324.012C84.9815 336.534 85.2576 349.056 85.4646 361.578C85.506 364.242 81.3971 364.23 81.3327 361.578C80.8527 342.337 79.9784 323.063 80.3941 303.816C80.003 270.411 89.5996 238.215 103.9 208.293C116.552 173.839 134.029 169.921 166.184 159.903C169.152 155.494 175.492 151.324 180.667 154.094C183.561 149.418 185.032 143.878 187.173 138.897V138.897ZM132.081 258.978C132.202 258.553 132.808 258.66 132.828 259.079C133.097 264.484 132.857 269.923 132.488 275.351C132.264 278.665 131.988 281.975 131.754 285.266C131.136 293.95 130.637 302.643 130.258 311.341C130.91 311.073 131.625 310.999 132.318 311.126C133.011 311.254 133.653 311.577 134.167 312.059L134.259 312.149C134.613 312.471 134.877 312.88 135.026 313.335C135.236 313.742 135.345 314.177 135.343 314.642L135.342 314.759C135.34 315.403 135.171 316.036 134.851 316.595C134.531 317.155 134.07 317.621 133.515 317.948C132.95 318.279 132.307 318.452 131.652 318.451C131.58 318.457 131.509 318.465 131.437 318.468C130.956 318.49 130.477 318.383 130.051 318.16L129.986 318.14C129.823 322.554 129.692 326.969 129.593 331.385C129.506 335.234 129.389 339.082 129.311 342.931L129.276 344.856L129.205 349.11C129.182 350.86 129.193 352.536 128.6 354.186L128.528 354.377C128.1 355.478 127.767 357.012 126.623 357.624C125.708 358.114 124.477 357.933 123.952 356.98C123.512 356.182 123.894 355.035 124.546 354.496C124.532 354.461 124.514 354.429 124.497 354.392C124.396 354.1 124.244 353.824 124.153 353.53C123.868 352.595 123.946 351.601 123.943 350.63C123.943 348.92 124.001 347.208 124.046 345.499C124.147 341.86 124.264 338.226 124.406 334.591C124.888 322.398 125.794 310.207 126.833 298.048L127.185 293.944C127.655 288.487 128.141 283.025 128.83 277.595C128.86 277.336 128.894 277.077 128.929 276.816C128.562 276.632 128.229 276.386 127.945 276.09C126.853 274.944 126.19 273.229 125.569 271.752L125.426 271.416C124.751 269.839 124.13 268.245 123.81 266.551L123.779 266.397C123.633 265.676 123.343 264.398 124.109 264.049C124.508 263.867 124.759 263.997 124.889 264.396C124.897 264.422 124.898 264.45 124.893 264.476C124.889 264.503 124.879 264.529 124.863 264.551C125.178 265.034 125.67 265.485 125.981 265.933L127.046 267.457L127.572 268.222C128.239 269.204 128.952 270.144 129.689 271.072C130.267 266.999 130.977 262.943 132.081 258.978V258.978ZM175.742 349.727C177.074 348.682 179.242 349.25 179.242 351.176C179.242 353.111 177.07 353.669 175.742 352.625L175.676 352.576L175.613 352.525C174.889 351.959 174.865 350.486 175.558 349.872L175.613 349.828C175.655 349.791 175.698 349.759 175.742 349.727V349.727ZM117.727 345.964L117.842 345.965C118.445 345.965 119.005 346.119 119.526 346.422C119.753 346.594 119.977 346.769 120.204 346.945C120.618 347.36 120.903 347.852 121.063 348.42L121.182 349.308C121.198 349.768 121.106 350.196 120.894 350.597C120.758 351.011 120.528 351.37 120.204 351.672C119.912 351.993 119.542 352.231 119.129 352.362C118.762 352.556 118.373 352.654 117.955 352.654L117.842 352.652C117.236 352.652 116.676 352.499 116.155 352.194C115.926 352.022 115.702 351.847 115.475 351.672C115.066 351.263 114.77 350.754 114.616 350.196C114.578 349.902 114.54 349.604 114.497 349.308C114.481 348.848 114.578 348.42 114.785 348.021C114.923 347.607 115.153 347.246 115.475 346.945C115.768 346.625 116.139 346.386 116.552 346.254C116.917 346.062 117.31 345.964 117.727 345.964V345.964ZM269.409 339.798L270.259 339.912C271.072 340.097 271.727 340.697 272.164 341.381C272.397 341.748 272.523 342.144 272.543 342.567C272.638 342.989 272.618 343.414 272.485 343.839C272.388 344.253 272.196 344.617 271.914 344.925C271.818 345.077 271.704 345.216 271.575 345.341C271.308 345.784 270.906 346.076 270.492 346.375C270.152 346.595 269.759 346.72 269.354 346.737C269.088 346.809 268.807 346.809 268.541 346.737C268.138 346.719 267.746 346.594 267.406 346.375L266.788 345.895C266.608 345.685 266.438 345.466 266.279 345.24L265.966 344.497C265.774 343.903 265.868 343.379 265.972 342.785C265.988 342.687 266.014 342.59 266.049 342.497L266.12 342.308C266.307 341.815 266.406 341.648 266.736 341.219L266.862 341.05C266.925 340.967 266.991 340.884 267.064 340.811C267.271 340.596 267.566 340.418 267.799 340.234C268.288 339.949 268.844 339.799 269.409 339.798V339.798ZM159.397 337.722L159.504 337.724C159.975 337.727 160.416 337.844 160.824 338.08L161.356 338.493C161.678 338.819 161.903 339.201 162.031 339.646C162.058 339.879 162.092 340.113 162.123 340.344C162.136 340.703 162.061 341.041 161.897 341.355C161.793 341.678 161.606 341.969 161.356 342.197C161.125 342.447 160.835 342.634 160.512 342.739C160.232 342.887 159.92 342.965 159.603 342.966L159.504 342.963C159.032 342.963 158.59 342.843 158.182 342.607L157.652 342.197C157.331 341.876 157.099 341.478 156.977 341.041C156.948 340.808 156.916 340.577 156.885 340.344C156.87 339.984 156.946 339.646 157.11 339.335C157.218 339.011 157.396 338.729 157.652 338.493C157.888 338.236 158.17 338.054 158.495 337.951C158.777 337.802 159.075 337.727 159.397 337.722V337.722ZM138.012 336.65C138.69 336.644 139.377 336.836 139.929 337.227C140.469 337.61 140.877 338.022 141.139 338.641C141.21 338.81 141.282 338.976 141.343 339.145C141.623 339.887 141.673 340.633 141.288 341.358C140.916 342.062 140.112 342.369 139.393 342.581C138.784 342.762 138.093 342.791 137.488 342.575C137.186 342.476 136.895 342.346 136.62 342.188C136.11 341.874 135.836 341.501 135.495 341.041C135.232 340.595 135.094 340.086 135.097 339.568C135.097 339.04 135.228 338.551 135.495 338.094C136.017 337.202 136.983 336.656 138.012 336.65V336.65ZM103.666 337.276C104.521 337.276 105.273 337.672 105.788 338.339C106.31 339.017 106.5 339.861 106.27 340.7C106.028 341.588 105.293 342.366 104.382 342.59C103.707 342.756 103.156 342.75 102.486 342.636C101.919 342.538 101.485 342.2 101.051 341.851C100.555 341.446 100.402 340.706 100.483 340.11C100.56 339.513 100.836 339.125 101.255 338.77L101.258 338.761L101.103 338.881C101.161 338.83 101.219 338.775 101.278 338.72C101.296 338.687 101.313 338.651 101.328 338.615C101.567 338.208 101.909 337.869 102.319 337.634C102.729 337.4 103.193 337.276 103.666 337.276V337.276ZM303.135 327.455C303.604 327.329 304.078 327.329 304.547 327.455C304.894 327.536 305.195 327.696 305.452 327.932C305.712 328.101 305.923 328.317 306.083 328.587L306.135 328.677C306.505 329.306 306.563 330.026 306.403 330.727C306.207 331.592 305.409 332.381 304.547 332.585L304.518 332.589L304.489 332.597C304.149 332.708 303.784 332.724 303.435 332.643C303.086 332.629 302.747 332.52 302.454 332.329C302.074 332.084 301.75 331.762 301.504 331.382C301.314 331.087 301.205 330.747 301.19 330.396C301.129 330.167 301.129 329.925 301.19 329.696C301.207 329.342 301.31 329.015 301.504 328.71L301.919 328.174L301.962 328.139C302.293 327.809 302.684 327.582 303.135 327.455V327.455ZM270.511 310.298C274.759 310.298 274.753 316.893 270.511 316.893C266.264 316.893 266.27 310.298 270.511 310.298ZM114.983 309.465C115.426 309.363 115.889 309.383 116.322 309.523C116.59 309.636 116.856 309.75 117.123 309.859L117.802 310.385C117.929 310.492 117.991 310.609 118.107 310.761L118.253 310.951C118.463 311.233 118.468 311.293 118.699 311.896C118.85 312.445 118.854 313.023 118.713 313.574C118.572 314.125 118.29 314.629 117.894 315.038L117.802 315.131C117.508 315.451 117.137 315.69 116.724 315.825C116.462 315.978 116.179 316.052 115.877 316.052C115.434 316.153 114.972 316.133 114.54 315.994L113.739 315.656L113.058 315.131L112.534 314.45L112.366 314.051L112.198 313.65L112.077 312.758C112.061 312.295 112.153 311.867 112.365 311.465C112.446 311.183 112.589 310.933 112.796 310.726C112.945 310.472 113.146 310.271 113.399 310.123C113.606 309.914 113.856 309.771 114.138 309.692C114.4 309.538 114.682 309.465 114.983 309.465V309.465ZM325.09 304.753C325.445 304.74 325.774 304.815 326.08 304.976C326.186 305.013 326.29 305.057 326.389 305.109C326.782 305.339 327.093 305.651 327.324 306.04C327.511 306.338 327.615 306.659 327.632 307.005C327.701 307.318 327.695 307.634 327.61 307.947L327.583 308.041C327.506 308.322 327.381 308.587 327.213 308.825C326.997 309.169 326.701 309.456 326.351 309.662C325.962 309.887 325.521 310.007 325.072 310.009C324.155 310.009 323.363 309.512 322.88 308.75C322.813 308.644 322.774 308.507 322.725 308.397C322.684 308.293 322.615 308.161 322.58 308.041C322.457 307.581 322.457 307.12 322.58 306.659C322.661 306.321 322.813 306.027 323.043 305.777C323.226 305.497 323.476 305.267 323.771 305.109C324.146 304.891 324.547 304.775 324.974 304.755L325.09 304.753V304.753ZM145.735 301.527C146.182 301.404 146.629 301.395 147.074 301.498L147.185 301.527C147.541 301.612 147.85 301.773 148.115 302.013C148.409 302.208 148.647 302.465 148.819 302.781C149.062 303.199 149.191 303.675 149.191 304.159C149.191 304.643 149.062 305.119 148.819 305.537C148.575 305.95 148.248 306.274 147.837 306.516L147.48 306.688C147.193 306.873 146.862 306.978 146.521 306.993C146.296 307.055 146.059 307.055 145.834 306.993C145.605 306.995 145.38 306.934 145.182 306.818C144.966 306.759 144.769 306.644 144.612 306.484C144.332 306.305 144.103 306.056 143.948 305.761L143.687 305.142L143.595 304.454L143.687 303.77L143.828 303.433C143.953 302.977 144.195 302.562 144.529 302.228C144.863 301.894 145.278 301.652 145.733 301.527H145.735ZM306.426 296.057C306.9 295.908 307.37 295.888 307.839 295.992C308.156 295.992 308.455 296.074 308.73 296.236C309.032 296.319 309.291 296.468 309.512 296.689C309.897 296.939 310.198 297.27 310.422 297.681L310.777 298.528C310.992 299.076 310.914 299.883 310.785 300.435C310.678 300.887 310.471 301.283 310.162 301.621C310.011 301.88 309.796 302.096 309.537 302.247C309.24 302.518 308.885 302.718 308.498 302.83L308.391 302.859L308.351 302.87C308.345 302.873 308.339 302.873 308.333 302.873C308.328 302.876 308.322 302.876 308.319 302.876C308.164 302.914 308.004 302.937 307.839 302.943C307.371 303.048 306.883 303.026 306.426 302.879C306.145 302.761 305.865 302.642 305.584 302.523C305.345 302.34 305.106 302.156 304.868 301.971L304.314 301.254C304.059 300.861 303.915 300.406 303.896 299.938C303.811 299.63 303.811 299.305 303.896 298.997C303.896 298.677 303.977 298.382 304.135 298.106C304.276 297.669 304.529 297.275 304.868 296.965C305.107 296.779 305.345 296.595 305.584 296.414L306.426 296.057V296.057ZM99.7606 284.45C100.25 284.316 100.739 284.316 101.228 284.45L101.886 284.726C102.21 284.901 102.466 285.137 102.661 285.438C102.906 285.705 103.072 286.019 103.156 286.378C103.348 286.872 103.325 287.653 103.172 288.156C103.014 288.703 102.722 289.201 102.324 289.607C101.639 290.315 100.59 290.519 99.6609 290.305C99.4047 290.243 99.161 290.138 98.9401 289.994C98.2376 289.56 97.7652 288.8 97.7683 287.961C97.7683 287.871 97.7744 287.779 97.7867 287.688C97.7407 287.504 97.7254 287.312 97.733 287.111L97.8297 286.378L97.8358 286.36C97.957 285.922 98.1853 285.52 98.5002 285.193C98.8151 284.865 99.2066 284.621 99.6395 284.482L99.7438 284.45H99.7606V284.45ZM344.27 211.643C343.385 204.382 340.057 196.569 329.906 200.834L329.152 201.116C326.641 202.068 323.713 203.318 322.185 205.516C321.132 207.03 321.488 209.964 321.342 211.731C320.681 217.476 321.035 223.213 321.725 228.936C322.615 242.345 319.797 256.239 314.187 268.426C319.802 277.516 327.316 285.995 337.566 289.782C338 279.449 340.021 269.302 342.175 259.219L342.259 258.778C343.12 254.231 343.55 249.563 346.535 245.781C352.607 239.186 360.958 242.919 364.954 232.323C364.113 231.898 364.578 230.445 365.589 230.724C369.093 231.347 369.662 224.847 367.264 223.281C364.765 221.756 367.281 218.943 366.218 216.911C365.624 216.037 364.343 216.008 363.764 214.998C362.225 211.287 369.922 208.908 360.871 204.723C359.018 204.063 356.948 204.473 355.08 204.465C352.331 204.722 350.147 206.661 347.633 207.27C350.371 214.36 343.465 221.188 337.233 215.525C333.84 218.732 330.047 226.044 338.293 222.635C342.328 219.941 345.802 216.457 350.486 214.797L350.584 214.767C352.323 214.198 359.932 210.497 359.555 213.699C356.705 216.453 352.004 216.419 348.704 218.654C344.127 220.771 341.201 225.903 335.722 225.832C334.46 233.506 343.162 228.836 346.403 226.72L347.301 226.233C351.873 223.761 356.512 221.472 361.842 221.442C363.314 221.432 363.307 223.701 361.842 223.721C354.896 223.764 349.241 228.11 343.422 231.341C342.848 235.819 349.405 233.858 351.891 233.197C354.5 232.831 358.689 230.008 360.971 231.499C361.863 233.794 357.935 233.624 356.567 234.32C362.813 237.321 357.34 239.211 355.667 234.599L355.176 234.767C350.995 236.172 340.854 239.067 342.061 231.979C340.531 232.657 338.664 233.062 336.974 232.686C332.756 238.927 326.029 236.512 335.807 232.258C333.604 231.232 332.868 227.273 334.985 225.8C327.287 225.329 333.001 217.249 336.187 214.557C335.889 214.257 335.601 213.947 335.324 213.628C333.486 214.503 331.557 215.035 329.491 215.222C327.515 215.402 327.075 212.036 329.024 211.76C331.115 211.465 333.04 210.907 334.88 209.856C337.67 208.652 338.621 213.831 341.412 214.014C342.935 214.316 343.966 212.98 344.27 211.643V211.643ZM279.471 278.464C280.146 278.464 280.744 278.746 281.233 279.194C281.722 279.64 281.934 280.312 281.963 280.954C281.975 281.297 281.905 281.619 281.748 281.917C281.649 282.224 281.471 282.5 281.233 282.718C280.761 283.178 280.13 283.439 279.471 283.448C278.797 283.448 278.198 283.166 277.708 282.718C277.219 282.267 277.009 281.599 276.978 280.954C276.965 280.621 277.039 280.29 277.193 279.995C277.284 279.717 277.431 279.472 277.638 279.261L277.708 279.194C278.18 278.733 278.811 278.472 279.471 278.464V278.464ZM299.894 263.088L300.001 263.089C300.572 263.092 301.1 263.235 301.592 263.52C301.807 263.686 302.02 263.848 302.232 264.014C302.626 264.408 302.909 264.9 303.051 265.44C303.193 265.979 303.19 266.546 303.041 267.084C302.99 267.408 302.867 267.716 302.681 267.986C302.409 268.445 302.026 268.827 301.566 269.097C301.092 269.376 300.551 269.522 300.001 269.521C299.46 269.522 298.928 269.38 298.459 269.111C297.989 268.841 297.598 268.453 297.325 267.986C297.137 267.717 297.012 267.408 296.962 267.084C296.817 266.565 296.808 266.019 296.936 265.496C297.064 264.973 297.323 264.492 297.69 264.098L297.771 264.014C298.057 263.706 298.394 263.488 298.787 263.361C299.128 263.18 299.508 263.087 299.894 263.088V263.088ZM144.035 263.261C144.27 263.196 144.517 263.196 144.751 263.261C145.109 263.278 145.442 263.384 145.75 263.578C145.931 263.721 146.113 263.861 146.294 264L146.452 264.191C146.79 264.603 146.799 264.672 147.058 265.301C147.166 265.651 147.181 266.001 147.104 266.351C147.104 266.588 147.043 266.808 146.926 267.012C146.866 267.232 146.748 267.433 146.586 267.593C146.473 267.788 146.311 267.951 146.116 268.066C145.863 268.296 145.564 268.455 145.222 268.537L144.524 268.63C144.434 268.618 144.34 268.604 144.248 268.595C144.142 268.592 144.036 268.58 143.931 268.56L143.824 268.537L143.728 268.511C143.601 268.473 143.477 268.424 143.359 268.362C143.135 268.298 142.93 268.179 142.765 268.015C142.473 267.826 142.235 267.566 142.072 267.259L142.026 267.154C141.964 267.044 141.913 266.928 141.874 266.808C141.765 266.617 141.707 266.401 141.705 266.182C141.64 265.889 141.646 265.585 141.722 265.295L141.751 265.197L142.001 264.603C142.13 264.402 142.267 264.198 142.442 264.033C142.546 263.939 142.804 263.738 142.948 263.638L143.037 263.578C143.345 263.384 143.679 263.278 144.035 263.261V263.261ZM104.971 258.625C105.437 256.785 107.848 256.206 109.161 257.519C110.472 258.832 109.893 261.245 108.057 261.711L107.845 261.764C107.44 261.867 107.015 261.863 106.612 261.753C106.209 261.642 105.842 261.428 105.546 261.132C105.251 260.836 105.038 260.469 104.928 260.065C104.818 259.662 104.814 259.237 104.919 258.832L104.971 258.625ZM327.377 243.629C327.363 243.447 327.598 243.382 327.715 243.49C329.276 244.89 330.271 246.57 332.166 247.656C334.072 248.745 336.035 248.658 338.021 249.36C338.169 249.406 338.298 249.497 338.39 249.621C338.482 249.745 338.532 249.896 338.532 250.05C338.532 250.205 338.482 250.355 338.39 250.479C338.298 250.603 338.169 250.695 338.021 250.74C334.262 252.053 327.662 247.601 327.377 243.629ZM150.765 243.344C151.182 243.213 151.604 243.195 152.023 243.289C152.307 243.289 152.572 243.359 152.816 243.502C153.084 243.577 153.314 243.713 153.512 243.907C153.748 244.048 153.937 244.238 154.08 244.474C154.359 244.78 154.546 245.137 154.643 245.545L154.753 246.384L154.643 247.225C154.535 247.474 154.428 247.727 154.325 247.977L154.035 248.369C153.802 248.682 153.764 248.685 153.195 249.109C152.831 249.339 152.44 249.465 152.021 249.482C151.744 249.558 151.465 249.558 151.182 249.482C150.9 249.482 150.635 249.41 150.389 249.267C150.126 249.194 149.885 249.055 149.692 248.862C149.351 248.64 149.072 248.336 148.882 247.977C148.774 247.727 148.667 247.474 148.564 247.225L148.451 246.384L148.564 245.545L148.57 245.519C148.719 244.994 148.985 244.537 149.368 244.151L149.997 243.664C150.242 243.506 150.498 243.425 150.764 243.344H150.765ZM302.026 243.973C302.471 243.852 302.94 243.851 303.385 243.969C303.831 244.086 304.238 244.319 304.566 244.643C305.224 245.303 305.483 246.285 305.236 247.182C305.078 247.75 304.733 248.248 304.258 248.596C303.783 248.945 303.204 249.123 302.615 249.103C302.171 249.1 301.735 248.982 301.351 248.759L300.847 248.366C300.606 248.147 300.427 247.869 300.327 247.559C300.169 247.263 300.094 246.929 300.11 246.593L300.107 246.532C300.097 246.408 300.113 246.283 300.152 246.165C300.152 246.038 300.172 245.915 300.204 245.795C300.326 245.361 300.557 244.964 300.876 244.645C301.195 244.326 301.591 244.094 302.026 243.973V243.973ZM108.528 235.193C108.816 235.182 109.084 235.241 109.334 235.374C109.594 235.456 109.827 235.606 110.009 235.808C110.215 235.997 110.357 236.224 110.442 236.483C110.575 236.733 110.633 237.002 110.624 237.29C110.624 237.669 110.526 238.024 110.339 238.347L110.008 238.772C109.748 239.035 109.44 239.212 109.084 239.314L108.877 239.384C108.581 239.485 108.265 239.511 107.957 239.459C107.627 239.428 107.312 239.309 107.043 239.116C106.781 238.964 106.563 238.746 106.411 238.484L106.233 238.062C106.197 237.895 106.175 237.726 106.169 237.556C106.169 237.533 106.169 237.514 106.166 237.491C106.166 237.365 106.204 237.057 106.236 236.93C106.308 236.664 106.452 236.411 106.62 236.198C106.761 235.974 106.957 235.799 107.195 235.669L107.216 235.653L107.241 235.637C107.314 235.584 107.394 235.532 107.471 235.477C107.794 235.29 108.149 235.193 108.528 235.193V235.193ZM275.853 232.89C276.371 232.89 276.854 233.024 277.302 233.283L277.347 233.303C277.776 233.554 278.133 233.912 278.381 234.343C278.628 234.775 278.759 235.263 278.759 235.761C278.759 236.258 278.628 236.747 278.381 237.178C278.133 237.609 277.776 237.968 277.347 238.218C277.333 238.228 277.317 238.234 277.302 238.24C276.863 238.497 276.364 238.632 275.855 238.632C275.346 238.632 274.847 238.497 274.408 238.24C273.976 237.985 273.618 237.623 273.369 237.189C273.119 236.754 272.987 236.262 272.985 235.761C272.987 235.001 273.29 234.272 273.828 233.735C274.365 233.197 275.093 232.894 275.853 232.89ZM141.29 229.141L141.377 229.14C141.71 229.124 142.042 229.198 142.336 229.356C142.644 229.457 142.912 229.629 143.141 229.871L143.613 230.267L143.751 230.379L143.817 230.436C144.135 230.757 144.353 231.132 144.475 231.568C144.514 231.818 144.546 232.064 144.572 232.314C144.643 232.961 144.261 233.627 143.84 234.087C143.613 234.331 143.343 234.501 143.034 234.606C142.736 234.761 142.403 234.835 142.067 234.819C141.363 234.757 140.698 234.609 140.192 234.064C140.133 234 140.078 233.931 140.02 233.863L139.615 233.397C139.308 233.085 139.093 232.719 138.977 232.297C138.943 232.073 138.916 231.853 138.885 231.633C138.856 230.968 139.181 230.345 139.615 229.871C140.015 229.434 140.696 229.166 141.29 229.141V229.141ZM124.932 222.314C128.302 222.314 128.296 227.544 124.932 227.544C121.566 227.544 121.574 222.314 124.932 222.314ZM294.362 214.982L294.468 214.983C295.026 214.986 295.547 215.126 296.031 215.408L296.658 215.891C297.041 216.281 297.307 216.733 297.455 217.26C297.491 217.534 297.528 217.81 297.566 218.083C297.583 218.511 297.491 218.91 297.297 219.28C297.175 219.662 296.96 219.995 296.658 220.277C296.387 220.574 296.043 220.795 295.661 220.917C295.294 221.111 294.882 221.204 294.468 221.185C293.918 221.186 293.377 221.039 292.903 220.76C292.693 220.599 292.486 220.437 292.274 220.277C291.927 219.927 291.667 219.5 291.517 219.03L291.481 218.91L291.368 218.083C291.349 217.669 291.442 217.257 291.636 216.89C291.759 216.503 291.974 216.174 292.274 215.891C292.557 215.589 292.891 215.376 293.273 215.253C293.612 215.074 293.974 214.983 294.362 214.982V214.982ZM279.184 205.191C279.485 205.182 279.764 205.243 280.026 205.38C280.296 205.467 280.529 205.619 280.727 205.831C281.144 206.164 281.4 206.832 281.4 207.374C281.4 207.916 281.144 208.583 280.727 208.917C280.459 209.184 280.128 209.377 279.764 209.477L279.184 209.555C278.62 209.582 278.046 209.287 277.644 208.917C277.565 208.842 277.486 208.769 277.405 208.696C277.04 208.359 276.88 207.856 276.857 207.374C276.847 207.124 276.903 206.876 277.02 206.654C277.094 206.423 277.226 206.215 277.405 206.05C277.486 205.979 277.564 205.904 277.644 205.831C278.062 205.437 278.61 205.209 279.184 205.191V205.191ZM375.35 187.751C377.478 185.156 376.239 183.309 373.04 183.952C367.527 184.697 362.34 188.183 357.486 190.682C352.187 193.481 346.727 195.792 341.322 198.423C343.552 199.793 345.212 201.937 346.478 204.384C349.008 202.462 352.241 201.543 355.396 201.423C361.121 195.937 370.603 194.681 375.35 187.751V187.751ZM123.801 196.367C124.377 196.368 124.917 196.505 125.425 196.776L125.532 196.836L126.225 197.375C126.563 197.686 126.799 198.054 126.939 198.479C127.153 198.889 127.25 199.332 127.233 199.806C127.253 200.265 127.151 200.722 126.939 201.129C126.801 201.553 126.555 201.935 126.225 202.235C126.031 202.485 125.78 202.687 125.494 202.822C125.218 202.934 124.946 203.051 124.67 203.168C124.363 203.266 124.006 203.278 123.673 203.295C123.077 203.295 122.492 203.136 121.977 202.835L121.297 202.31C120.976 202.014 120.736 201.641 120.601 201.225C120.408 200.862 120.308 200.456 120.31 200.044L120.313 199.929C120.313 199.903 120.313 199.874 120.316 199.845C120.354 199.539 120.397 199.236 120.439 198.93C120.546 198.482 120.75 198.091 121.054 197.76C121.128 197.609 121.236 197.477 121.37 197.375C121.796 196.947 122.302 196.654 122.885 196.488C123.19 196.45 123.494 196.408 123.799 196.367H123.801ZM274.147 187.776L274.245 187.778C274.684 187.778 275.089 187.888 275.465 188.104L275.954 188.483C276.254 188.785 276.463 189.141 276.575 189.551L276.664 190.192C276.673 190.527 276.604 190.835 276.452 191.123C276.356 191.421 276.184 191.689 275.954 191.901C275.743 192.133 275.475 192.305 275.176 192.401C274.89 192.552 274.569 192.624 274.245 192.608C273.811 192.608 273.403 192.498 273.028 192.277C272.865 192.154 272.701 192.027 272.538 191.901C272.268 191.631 272.066 191.3 271.949 190.936L271.919 190.835L271.833 190.192C271.816 189.869 271.888 189.548 272.04 189.263C272.136 188.96 272.305 188.701 272.538 188.483C272.759 188.247 273.018 188.081 273.316 187.985C273.575 187.848 273.853 187.779 274.147 187.776V187.776ZM142.739 184.264L142.851 184.266C143.495 184.269 144.097 184.43 144.653 184.755C144.893 184.939 145.133 185.125 145.373 185.314C145.817 185.757 146.121 186.282 146.293 186.889L146.419 187.836C146.439 188.328 146.334 188.785 146.112 189.21C145.969 189.655 145.722 190.037 145.373 190.361C145.061 190.702 144.666 190.956 144.225 191.097C143.803 191.322 143.329 191.428 142.851 191.406C142.207 191.406 141.609 191.243 141.051 190.919L140.328 190.361C139.893 189.923 139.577 189.38 139.411 188.785L139.284 187.836C139.262 187.358 139.368 186.884 139.592 186.461C139.735 186.019 139.98 185.634 140.328 185.314C140.652 184.962 141.034 184.715 141.478 184.573C141.87 184.367 142.29 184.266 142.739 184.264V184.264ZM262.721 175.35C263.015 175.272 263.31 175.272 263.604 175.35C264.044 175.368 264.457 175.502 264.839 175.744L265.511 176.264C265.926 176.671 266.227 177.181 266.382 177.742L266.498 178.614C266.514 179.065 266.42 179.486 266.216 179.875C266.095 180.25 265.894 180.575 265.616 180.857L265.511 180.962C265.22 181.279 264.852 181.516 264.443 181.649C264.184 181.802 263.902 181.876 263.604 181.876C263.165 181.976 262.707 181.956 262.279 181.818C262.017 181.704 261.751 181.594 261.486 181.483L261.4 181.436C260.4 180.888 259.781 179.739 259.781 178.614C259.781 177.488 260.4 176.338 261.4 175.79C261.431 175.778 261.455 175.761 261.486 175.744C261.868 175.502 262.279 175.368 262.721 175.35V175.35Z" fill="black"/>
<path fill-rule="evenodd" clip-rule="evenodd" d="M222.304 22.3702C271.074 23.915 274.016 47.0951 274.016 85.9689C274.016 124.841 248.715 149.338 239.399 153.615C230.083 157.893 205.554 176.265 183.416 167.799C161.28 159.332 167.691 123.562 167.691 108.192C167.691 92.8232 173.533 20.8254 222.304 22.3702V22.3702Z" fill="#FDFBF5"/>
<path fill-rule="evenodd" clip-rule="evenodd" d="M242.089 140.848C233.134 145.85 222.878 146.045 213.244 142.897C207.466 141.013 202.169 138.101 197.21 134.619C192.897 131.588 189.049 128.225 185.235 124.655C182.095 117.727 179.299 110.812 177.99 103.273C176.816 96.5062 176.661 89.4801 178.022 82.7255C188.086 74.4414 198.089 66.0898 208.078 57.7121C213.158 53.4382 218.274 49.2091 223.428 45.0252C226.049 42.9036 228.646 40.7512 231.256 38.6204L232.546 37.5711C237.939 41.5198 243.72 44.904 249.072 48.9187C251.882 51.0252 254.593 53.2612 257.195 55.6196C258.557 56.8566 259.886 58.1294 261.181 59.4365C262.367 60.63 263.511 62.342 265.193 62.793C265.424 62.8544 265.64 62.8667 265.844 62.8391C268.092 82.5368 269.69 103.81 260.057 121.702C255.855 129.506 249.896 136.483 242.089 140.848V140.848ZM183.825 148.088C182.592 146.958 184.43 145.128 185.658 146.254C193.373 153.324 203.457 157.072 213.643 158.806C215.287 159.086 214.586 161.585 212.954 161.308C202.319 159.496 191.867 155.457 183.825 148.088V148.088ZM174.569 158.936C173.097 158.146 174.408 155.908 175.878 156.696C181.888 159.921 188.479 161.596 195.166 162.728C196.81 163.006 196.109 165.505 194.477 165.229C187.563 164.06 180.779 162.268 174.569 158.936V158.936ZM199.028 49.6628C204.016 45.1832 209.374 40.9231 215.036 37.3287C220.764 33.6898 227.022 31.5145 233.784 31.4623C233.312 31.8413 232.861 32.2631 232.404 32.6543C231.128 33.7481 229.853 34.8481 228.58 35.9434C226.032 38.1372 223.48 40.3309 220.965 42.5599C216.014 46.9566 211.046 51.3303 206.106 55.7378C196.61 64.1943 187.313 72.8719 178.223 81.7636C178.272 81.5458 178.324 81.3279 178.374 81.1116C181.385 68.5321 189.574 58.1524 199.028 49.6628V49.6628ZM238.12 32.01C238.152 31.9134 238.175 31.8183 238.187 31.7277C251.166 33.4198 262.005 42.9757 265.588 55.5552C265.276 55.9894 265.105 56.5063 265.169 57.054L265.267 57.8824C264.822 57.4421 264.365 57.031 263.977 56.6398C262.684 55.3297 261.358 54.0534 259.999 52.8123C257.226 50.2774 254.314 47.8985 251.278 45.6864C245.98 41.8343 240.246 38.2921 233.93 36.4451C234.345 36.1045 234.759 35.7639 235.178 35.428C236.425 34.4124 237.582 33.5763 238.12 32.01V32.01ZM261.385 18.5576C253.417 9.84549 242.384 3.46521 230.766 1.24691C219.67 -0.873197 208.183 0.524358 197.701 4.64492C175.767 13.2696 158.46 32.234 150.356 54.2114C145.632 67.0133 144.083 81.0502 145.503 94.6024C146.914 108.093 150.976 122.026 158.364 133.504C159.04 134.555 159.782 135.563 160.56 136.538C160.213 140.501 158.891 144.385 156.812 147.763C156.7 147.944 156.582 148.122 156.465 148.3C154.335 149.896 152.124 151.394 149.968 152.941C148.098 154.28 146.249 155.655 144.491 157.138C142.832 158.54 140.904 160.1 139.781 161.99C138.861 163.54 138.485 165.646 139.741 167.122C141.255 168.901 143.821 168.274 145.871 168.274C146.048 168.274 146.224 168.279 146.397 168.28C147.014 168.668 147.649 169.018 148.263 169.343C154.474 172.638 160.709 175.897 166.95 179.14C179.381 185.601 191.758 192.322 204.443 198.272C210.322 201.031 216.614 203.443 223.198 203.434C229.374 203.425 234.957 200.97 239.779 197.238C245.275 192.987 249.87 187.588 254.328 182.297C256.111 180.18 257.856 178.037 259.571 175.865C262.862 174.765 266.129 174.444 269.065 176.564C271.42 178.267 274.525 175.952 274.58 173.396C274.6 172.5 274.561 171.604 274.463 170.713C273.874 165.266 271.21 160.337 268.209 155.767C266.558 153.27 264.857 150.807 263.106 148.38C262.698 147.809 262.298 147.231 261.907 146.648C268.884 136.37 274.417 124.973 277.821 113.064C281.394 100.533 282.609 87.5379 281.813 74.5518C280.588 54.6516 275.131 33.5886 261.385 18.5576V18.5576Z" fill="black"/>
<path fill-rule="evenodd" clip-rule="evenodd" d="M244.905 126.443C242.518 127.135 239.957 127.196 237.523 126.483C235.316 125.834 233.051 124.409 231.426 122.52C229.983 120.845 229.049 118.808 229.086 116.632C229.087 116.406 229.168 116.188 229.314 116.016C229.464 115.843 229.665 115.722 229.888 115.671C230.111 115.619 230.345 115.64 230.555 115.73C230.75 115.817 230.907 115.971 230.997 116.164C231.247 116.493 231.495 116.816 231.745 117.129C233.752 119.61 235.695 121.463 238.713 122.127C240.305 122.472 241.962 122.35 243.486 121.778C245.113 121.167 246.557 120.152 247.683 118.828C248.198 118.229 248.804 117.984 249.397 117.979C250.071 117.975 250.736 118.288 251.236 118.788C251.729 119.28 252.058 119.948 252.089 120.646C252.115 121.259 251.914 121.899 251.383 122.471C249.62 124.353 247.382 125.725 244.905 126.443V126.443ZM244.833 95.3837C247.279 96.8733 251.008 100.343 248.376 104.033C245.278 107.285 240.816 103.556 238.618 101.868C236.58 100.561 234.288 103.924 236.179 105.45C252.066 117.218 258.512 95.7733 246.071 93.6348C244.701 93.3986 244.192 94.9234 244.833 95.3837V95.3837ZM221.943 88.8362C221.156 88.333 220.232 88.1596 219.207 88.626C218.405 88.9911 217 90.2061 216.021 91.8046C215.353 92.8969 214.879 94.1794 214.977 95.5156C214.991 95.6465 214.973 95.7788 214.926 95.9017C214.879 96.0246 214.803 96.1346 214.706 96.2228C214.54 96.3697 214.333 96.4614 214.114 96.4851C213.905 96.5097 213.693 96.4909 213.492 96.4299C213.356 96.3937 213.23 96.3271 213.123 96.2352C213.016 96.1433 212.932 96.0284 212.876 95.8991C212.192 94.0797 212.486 92.0486 213.255 90.2169C214.29 87.7454 216.17 85.6744 217.403 85.0055C219.512 83.8627 221.998 83.8105 224.11 84.9749C225.908 85.9659 227.032 87.5659 228.15 89.1967C228.388 89.5434 228.624 89.887 228.868 90.2261C229.356 90.9026 229.405 91.5745 229.216 92.1513C229.006 92.7895 228.471 93.328 227.804 93.6103C227.186 93.8711 226.469 93.9079 225.834 93.6394C225.299 93.4139 224.807 92.9721 224.495 92.225C223.971 90.9655 223.098 89.5756 221.943 88.8362V88.8362ZM261.885 91.639C261.345 91.9197 260.925 92.0041 260.327 91.8246C259.983 91.7203 259.669 91.5333 259.414 91.28C259.159 91.0297 258.983 90.7103 258.906 90.3611C258.738 89.4964 258.271 88.7184 257.587 88.1627C257.296 87.9264 256.957 87.7548 256.594 87.6594C256.231 87.5639 255.852 87.5467 255.482 87.6089C254.614 87.7546 253.787 88.3115 253.216 88.9681C253.033 89.193 252.869 89.4332 252.727 89.6861C252.445 90.1494 252.172 90.5804 251.785 90.9225C251.622 91.0611 251.416 91.1386 251.202 91.1419C251.115 91.141 251.027 91.127 250.943 91.1005C250.078 90.2322 249.913 89.5741 249.94 88.9205C249.969 88.2363 250.239 87.5414 250.676 86.8956C251.699 85.3768 253.641 84.1327 254.952 83.8504C256.748 83.4638 258.531 83.9271 259.96 84.9304C261.431 85.9628 262.521 87.5659 262.86 89.3731C262.942 89.8072 262.908 90.2767 262.742 90.6848C262.58 91.0955 262.276 91.4342 261.885 91.639V91.639ZM225.902 72.6515C224.825 73.7008 223.549 73.8635 222.259 74.0092C221.543 74.0905 220.971 74.1549 220.408 74.2823C218.86 74.632 217.33 75.1582 215.934 75.9176C214.475 76.7092 212.885 77.6665 211.742 78.8907C211.469 79.1821 211.213 79.4874 210.957 79.7943C210.722 80.0735 210.497 80.3419 210.259 80.6012C209.986 80.9003 209.727 81.2118 209.469 81.5232C209.387 81.6504 209.313 81.782 209.245 81.9174C209.107 82.21 208.952 82.4938 208.779 82.7673C208.6 83.068 208.503 83.1508 208.42 83.1892C208.297 83.2504 208.16 83.2765 208.023 83.2644C207.895 83.2433 207.777 83.1858 207.681 83.0987C207.129 82.6308 206.965 81.8622 206.982 81.0476C207.008 79.8127 207.463 78.4427 207.883 77.602C208.86 75.6461 210.215 73.6134 211.844 72.156C213.702 70.49 215.736 69.229 218.071 68.3607C219.523 67.8191 221.202 67.3236 222.784 67.3865C223.922 67.4326 225.009 67.7701 225.906 68.6153C226.457 69.1354 226.722 69.8733 226.722 70.6097C226.722 71.3629 226.448 72.1192 225.902 72.65V72.6515ZM264.075 82.2703C264.013 82.3752 263.919 82.4578 263.807 82.5065C263.724 82.5429 263.634 82.5606 263.543 82.5584C263.452 82.5562 263.363 82.5341 263.282 82.4938C263.201 82.4534 263.13 82.3957 263.073 82.3247C263.017 82.2538 262.977 82.1713 262.956 82.0831C262.241 78.9398 260.851 76.6018 257.888 75.0923C256.429 74.3513 254.752 73.8803 253.164 73.5045C252.704 73.394 252.216 73.3235 251.725 73.2514C250.187 73.0274 248.637 72.7697 247.633 71.5255C247.341 71.1681 247.127 70.7536 247.004 70.3084C246.881 69.8633 246.853 69.3974 246.92 68.9406C246.988 68.5066 247.159 68.0953 247.419 67.7411C247.679 67.3869 248.019 67.1001 248.413 66.9048C250.595 65.7757 253.305 66.8834 255.508 67.8268L255.989 68.0324C258.144 68.9421 260.109 70.1433 261.724 71.8615C263.005 73.2237 264.193 75.238 264.67 77.3106C265.069 79.0349 264.975 80.7945 264.075 82.2687V82.2703Z" fill="black"/>
<path fill-rule="evenodd" clip-rule="evenodd" d="M267.569 100.907C262.708 103.249 255.922 99.7928 252.652 96.1724C251.462 94.8546 250.545 91.0823 251.002 88.6906C252.243 82.2122 256.902 78.3233 261.821 76.9963C268.64 75.1554 275.502 79.819 274.701 85.3218C273.944 90.5377 272.793 98.1038 267.569 100.907ZM234.47 88.4621C234.08 95.5219 228.415 101.701 221.642 103.531C210.731 106.578 205.338 98.9031 202.896 90.6359C202.652 89.8136 202.082 87.3069 203.614 85.1546C209.635 76.6941 224.286 78.1361 231.602 80.4602C233.744 82.5083 234.62 85.4675 234.47 88.4621M272.853 76.2845L272.844 76.2967L272.769 76.2507L272.853 76.2845ZM281.984 77.1006C281.349 69.9118 258.809 72.664 256.174 73.2531C248.982 75.3701 242.769 81.1291 234.727 78.5979C226.396 69.3044 198.339 71.9691 192.458 76.7033C191.344 76.2661 189.99 76.5008 188.556 76.9134C181.189 76.6465 147.559 79.1885 154.438 88.5955C155.482 89.3196 156.525 88.5832 156.554 87.0906C192.413 74.1383 188.936 86.2698 193.189 84.8523C193.838 85.0395 194.516 85.1576 195.109 85.2819C198.401 86.3419 199.517 86.0152 199.951 89.7123C202.93 118.26 240.924 108.407 237.809 84.9904C240.893 84.8201 243.592 83.4855 246.855 84.7894C249.12 106.848 266.861 107.739 272.2 100.092C276.226 94.784 274.629 86.7746 280.165 82.5988C282.349 84.4289 282.49 78.2542 281.984 77.1006" fill="black"/>
</svg>
