<svg width="460" height="440" viewBox="0 0 460 440" fill="none" xmlns="http://www.w3.org/2000/svg">
<path fill-rule="evenodd" clip-rule="evenodd" d="M100.873 275.331C102.131 271.881 100.295 268.439 99.2765 265.1C95.659 253.525 91.7083 241.948 86.1212 231.153C84.0037 227.54 87.4867 223.111 91.5227 224.129C98.4299 225.097 105.553 224.326 112.473 223.899C115.004 217.354 121.759 214.638 127.076 210.868C133.108 207.106 138.975 202.781 145.25 199.482C145.598 196.363 149.381 195.591 151.693 197.821C158.045 193.871 165.663 194.605 172.472 192.016C177.646 183.656 178.034 174.865 179.403 166.801C180.002 163.285 179.367 159.893 181.771 156.759C189.843 145.409 221.739 140.487 233.5 147.213C239.83 143.267 239.983 150.415 240.987 154.827C242.106 157.033 242.71 159.534 242.523 162.166C249.322 176.364 264.879 182.782 278.811 187.983C280.559 186.3 283.057 186.514 284.72 187.905C296.795 190.528 308.515 195.143 318.634 202.346C330.129 205.707 338.223 215.053 344.078 225.074C344.722 226.13 344.875 227.207 344.687 228.197C362.687 254.575 371.278 286.155 372.487 318.049C384.062 324.995 366.985 387.386 363.008 400.339L362.996 400.333C360.417 404.898 357.489 417.925 351.034 416.916C346.606 421.922 339.549 420.938 333.542 421.322C334.519 425.075 334.038 429.369 332.873 433.077C331.496 437.49 324.735 437.64 323.776 432.827C263.939 444.449 202.545 435.178 142.036 436.921C124.54 437.046 107.047 437.587 89.5927 438.832C87.1363 439.008 84.6439 436.497 84.8124 434.051C88.5643 394.142 92.0871 341.642 96.284 302.125C97.2784 293.112 98.0662 284.001 100.873 275.331V275.331Z" fill="#FDFBF5"/>
<path fill-rule="evenodd" clip-rule="evenodd" d="M240.002 149.675C239.829 149.207 239.13 149.27 239.117 149.794C238.841 161.015 241.636 174.729 250.617 182.307C255.229 186.198 261.324 187.979 266.922 190.025L267.553 190.258L277.445 193.94C280.068 194.919 282.897 196.422 285.214 195.04C283.339 199.688 281.765 204.465 279.481 208.945C276.64 214.521 273.202 219.623 268.996 224.264C252.333 242.646 225.96 248.254 202.293 242.868C190.108 240.093 178.248 234.837 169.933 225.25C163.615 217.961 159.985 208.18 159.129 198.532C159.388 198.574 159.654 198.567 159.911 198.511C162.905 197.858 165.928 196.253 168.562 194.679L168.816 194.527C171.352 193.002 173.994 191.253 175.814 188.884C177.621 186.529 179.517 178.851 179.517 178.851C180.034 175.965 180.519 170.215 180.435 167.299C180.428 167.022 179.206 166.859 179.075 167.145C177.947 169.623 177.581 175.064 176.71 177.642L176.536 178.156C175.604 180.848 174.807 184.126 172.879 186.3C169.255 190.386 163.791 192.116 158.915 194.166C158.564 189.548 151.187 189.656 151.28 194.472C151.286 194.733 151.297 194.993 151.307 195.254C150.723 195.574 150.165 195.939 149.642 196.291L149.13 196.637C147.199 197.951 145.252 199.2 143.195 200.315C139.214 202.472 134.996 204.183 130.916 206.142C126.802 208.103 122.914 210.506 119.322 213.311C117.628 214.637 116.007 216.054 114.466 217.554L114.049 217.965C112.583 219.424 110.676 221.056 109.841 222.973C109.657 223.397 108.735 224.379 108.235 224.413C100.481 224.92 92.746 225.638 85.0414 226.714C83.0471 226.993 82.2573 228.02 82.996 229.682C85.5282 235.394 95.4467 258.201 98.085 264.322C97.7763 268.819 98.1929 274.114 97.9145 278.611C97.5092 285.175 96.977 291.736 96.3407 298.283C94.0585 321.698 90.602 344.997 87.477 368.31C85.9145 379.978 84.4884 391.661 83.0812 403.348C82.067 411.713 81.2996 420.107 80.7801 428.517L80.6475 430.711C80.4619 433.472 80.0395 436.11 81.7498 438.48C82.5244 439.555 84.2952 440.16 85.3141 438.94C86.5944 437.405 87.0717 436.256 87.1929 434.24C87.2876 432.696 87.3104 431.144 87.3804 429.6C87.5319 426.248 87.7232 422.9 87.9467 419.552C88.3911 412.861 88.9076 406.175 89.496 399.494C91.566 376.074 95.5035 352.829 98.1229 329.465C99.4532 317.693 100.372 305.879 100.879 294.043C101.127 288.129 101.218 282.215 101.159 276.295C101.136 274.084 101.032 271.883 100.88 269.688C104.802 278.595 108.924 287.413 113.244 296.135L114.267 298.197C117 303.701 119.807 309.227 123.091 314.417L123.657 315.301C124.987 317.409 126.805 320.733 129.233 321.399C130.924 321.862 132.988 321.535 134.723 321.503C136.443 321.469 138.165 321.463 139.884 321.393C141.787 321.329 143.676 321.049 145.515 320.558C145.812 320.485 146.102 320.388 146.384 320.271C148.261 323.342 151.452 325.682 154.714 327.044C157.326 328.134 160.064 328.884 162.807 329.577L163.774 329.819C166.714 330.551 170.077 330.899 171.736 333.738L172.121 334.395C173.354 336.49 174.536 338.328 176.577 339.829C178.772 341.445 181.375 342.461 183.968 343.252C186.621 344.062 189.337 344.683 192.032 345.347L192.767 345.529C194.545 345.974 196.341 346.383 198.11 346.867C198.87 347.067 199.625 347.292 200.371 347.541C201.238 347.838 201.867 348.304 202.551 348.809C203.166 350.955 205.793 352.121 207.952 351.972C209.047 351.884 210.103 351.531 211.03 350.944C212.647 352.32 214.426 353.552 216.074 354.826C223.136 360.287 230.297 365.621 237.553 370.824C246.234 377.023 255.09 382.975 264.11 388.671C267.876 391.065 271.664 393.424 275.475 395.747L275.068 395.897L274.259 396.203C272.346 396.917 270.216 398.069 269.846 400.301C269.551 402.068 270.54 403.287 272.286 403.503C274.363 403.76 275.979 402.294 277.272 400.893C277.841 400.276 278.481 399.703 279.028 399.067C279.247 398.801 279.43 398.508 279.572 398.194C283.332 400.423 287.153 402.55 291.028 404.572L291.996 405.07C301.598 409.979 310.945 415.356 320.629 420.126C323.153 421.369 326.235 422.715 329.443 423.632C328.591 426.933 328.606 430.558 328.583 433.907C328.564 437.172 333.754 437.157 333.644 433.907L333.591 432.338C333.496 429.7 333.343 426.962 332.716 424.393C342.174 425.962 351.623 422.554 353.382 421.53C355.324 420.402 357.087 418.596 358.553 416.919C361.693 413.333 363.871 409.033 365.803 404.709C369.943 395.446 372.877 385.546 375.021 375.644C382.926 339.138 379.526 300.065 366.687 265.071C363.48 256.318 359.693 247.787 355.354 239.535L354.814 238.517C350.485 230.367 345.672 222.248 339.558 215.312C333.191 208.089 325.335 202.47 316.784 198.11C312.609 195.996 308.316 194.124 303.926 192.504C303.221 192.241 302.511 192.004 301.799 191.781C297.225 188.865 291.674 186.077 286.121 186.187C285.782 186.187 285.456 186.318 285.21 186.552C284.941 186.599 284.674 186.656 284.407 186.734C283.814 186.906 283.189 187.553 283.274 188.219L283.303 188.441C283.317 188.547 283.34 188.652 283.373 188.755C283.174 188.785 282.979 188.832 282.788 188.897C277.475 187.398 272.248 185.104 267.062 183.253L265.882 182.837C261.54 181.315 257.083 179.824 253.522 176.813C249.977 173.818 247.312 169.939 245.386 165.745C243.013 160.578 241.951 154.98 240.002 149.675V149.675ZM133.623 422.202C132.572 421.42 131.327 422.328 130.933 423.296C129.642 426.475 130.28 431.413 132.102 434.223C133.988 437.134 138.507 435.985 138.617 432.458C138.731 428.782 136.593 424.412 133.623 422.202ZM122.757 334.448C122.663 334.035 122.021 334.039 121.924 334.448C121.049 338.176 121.068 342.193 120.812 346.016L120.782 346.44C120.473 350.656 120.214 354.884 120.03 359.108C119.482 371.541 118.795 383.966 117.971 396.383C117.108 395.902 116.218 395.478 115.295 395.106C113.915 394.549 112.57 394.485 111.085 394.5C109.278 394.519 107.918 396.107 108.157 397.878C108.418 399.805 110.115 400.63 111.879 400.356C113.831 400.051 115.791 399.578 117.763 399.381C117.543 402.562 117.318 405.746 117.077 408.925C116.757 413.134 116.343 417.34 116.049 421.551C116.022 421.952 115.992 422.355 115.962 422.758C114.786 422.147 113.538 421.835 112.123 421.448L111.754 421.346C109.701 420.756 107.502 419.94 105.6 421.322C104.324 422.249 104.068 423.778 105.127 425.003C106.731 426.859 109.108 426.5 111.324 426.405L112.517 426.362C113.642 426.318 114.678 426.246 115.718 425.962C115.526 428.705 115.426 431.46 115.763 434.163C115.945 435.624 117.869 436.008 118.379 434.517C119.71 430.622 119.985 426.42 120.471 422.34C120.926 418.528 121.202 414.69 121.5 410.861L121.591 409.714C122.259 401.292 122.795 392.867 123.187 384.428C123.577 375.993 123.817 367.552 123.907 359.108C123.951 355.274 123.886 351.425 123.736 347.59L123.689 346.44C123.517 342.497 123.636 338.313 122.757 334.448V334.448ZM298.581 422.824C298.53 422.285 298.098 421.615 297.456 421.7C296.865 421.776 296.255 421.74 295.67 421.836C294.897 421.965 294.274 422.421 293.557 422.709C292.388 423.176 291.115 423.417 289.916 423.799C287.668 424.516 286.443 426.882 287.375 429.091C288.354 431.415 290.814 431.941 292.939 430.966C294.615 430.198 295.865 428.97 296.992 427.55L297.31 427.143C297.797 426.534 298.348 425.853 298.551 425.113C298.75 424.391 298.651 423.557 298.581 422.824V422.824ZM189.348 411.904C186.547 411.51 184.155 412.466 181.564 413.369L181.354 413.443C178.718 414.353 174.869 414.981 173.517 417.68C172.702 419.308 173.335 421.469 175.254 421.95C178.293 422.713 181.019 420.491 183.532 418.996L183.665 418.918C186.089 417.499 188.593 416.304 190.142 413.854C190.555 413.201 190.197 412.023 189.348 411.904V411.904ZM287.108 189.268C288.229 189.519 289.35 189.741 290.471 189.955C294.735 192.239 298.873 194.609 303.274 196.645C307.945 198.804 312.598 201.034 317.036 203.648C325.998 208.924 333.386 215.787 339.49 224.199C350.036 238.729 357.88 255.486 363.496 272.487C364.937 276.855 366.23 281.271 367.371 285.727C365.352 283.859 362.962 282.712 360.28 281.73C359.144 281.314 357.731 282.018 357.155 283.002C356.896 283.443 356.75 283.88 356.776 284.397C356.837 285.54 357.581 286.84 358.808 287.065C361.672 287.593 364.458 288.621 367.218 289.524C367.39 289.588 367.575 289.615 367.759 289.602C367.943 289.589 368.122 289.536 368.284 289.448C371.036 301.062 372.731 312.901 373.348 324.821C373.857 334.94 373.548 345.085 372.426 355.155C371.568 354.769 370.727 354.405 369.786 354.188C368.564 353.902 367.361 353.558 366.17 353.168C362.731 352.04 361.163 357.714 364.678 358.579C365.985 358.9 367.303 359.169 368.636 359.364C369.797 359.534 370.824 359.459 371.918 359.281C371.086 365.56 369.94 371.794 368.485 377.959L368.163 379.304C366.272 387.162 364.068 395.092 360.88 402.517C359.318 406.16 357.248 409.618 354.693 412.656C353.437 414.149 352.041 415.428 350.522 416.641C349.259 417.652 344.958 419.842 339.863 419.842C334.771 419.842 333.392 419.359 330.822 418.475C325.74 416.726 320.916 413.935 316.149 411.448L315.657 411.193C313.549 410.102 311.449 408.997 309.356 407.88C309.621 405.748 309.157 403.955 308.045 401.983C306.843 399.852 303.863 400.914 303.642 403.094L303.634 403.177C303.6 403.67 303.519 404.171 303.416 404.671C289.415 397.004 275.71 388.799 262.223 380.251C253.532 374.743 244.947 369.07 236.473 363.234C230.02 358.791 223.656 354.218 217.386 349.519C216.488 348.847 215.608 348.141 214.708 347.465C214.923 347.195 215.136 346.922 215.346 346.648C218.708 342.247 220.888 337.003 221.975 331.592C222.632 328.327 222.949 324.938 223.045 321.611L223.087 320.163C223.153 317.723 223.172 315.172 222.721 312.808C223.333 313.145 223.958 313.474 224.581 313.826C226.818 315.093 229.055 316.357 231.295 317.614C235.775 320.142 240.291 322.606 244.843 325.004C252.985 329.27 261.206 333.326 269.651 336.961L273.759 338.731C280.89 341.797 288.077 344.808 295.492 347.087C299.663 348.357 303.878 349.479 308.129 350.452L306.415 352.46C305.252 353.823 305.231 355.776 306.718 356.923C308.178 358.051 310.138 357.581 311.111 356.084L312.888 353.355C313.233 352.837 313.476 352.258 313.604 351.65C315.56 352.058 317.519 352.452 319.481 352.831L323.193 353.539C328.496 354.563 333.638 356.588 338.379 359.18C340.026 360.081 340.485 358.331 338.738 357.112C333.634 353.544 327.68 351.525 321.536 349.831L321.235 349.748C318.981 349.131 316.731 348.487 314.485 347.821C314.748 346.898 314.87 345.94 314.846 344.98C314.784 342.705 314.581 340.421 314.462 338.148C314.208 333.375 313.884 328.617 313.505 323.853C313.36 322.018 313.195 320.178 313.009 318.338C314.212 317.693 315.252 316.838 316.593 316.416L316.82 316.349C318.255 315.963 317.771 314.114 316.496 313.955C315.347 313.816 314.183 313.873 313.053 314.122C312.877 314.161 312.71 314.203 312.549 314.252C312.341 312.549 312.108 310.849 311.844 309.161C311.147 304.697 310.653 299.995 309.202 295.707C309.094 295.389 308.623 295.275 308.449 295.608C306.337 299.624 306.263 304.551 306.024 309.023L305.996 309.559C305.716 314.438 305.699 319.364 305.788 324.249C305.882 329.285 306.053 334.308 306.28 339.339C306.371 341.364 306.367 343.464 306.714 345.402C294.146 341.318 281.801 336.43 269.968 330.642C261.618 326.559 253.348 322.313 245.165 317.907C241.066 315.7 236.949 313.527 232.854 311.313C231.418 310.535 229.985 309.757 228.553 308.976L226.403 307.804C224.392 306.708 222.714 305.616 220.371 305.539C220.036 305.534 219.703 305.604 219.398 305.742C219.092 305.88 218.82 306.083 218.602 306.337C217.344 305.446 215.888 304.897 214.362 304.91C212.073 301.729 209.72 298.595 207.303 295.51L205.511 293.231C202.409 289.297 199.123 285.305 195.166 282.311C193.399 280.975 191.458 279.974 189.432 279.145C189.941 279.021 190.409 278.767 190.791 278.409C192.725 276.616 192.992 273.285 193.386 270.783C193.793 268.189 193.636 265.866 193.233 263.279C193.076 262.274 191.411 262.064 191.004 262.988C190.147 264.935 189.24 266.799 188.462 268.768L188.231 269.362C187.394 271.578 185.611 273.91 185.731 276.313C185.755 276.925 185.961 277.515 186.324 278.007C184.623 277.443 182.899 276.94 181.201 276.416C175.856 274.765 170.492 273.16 165.043 271.879C163.594 271.538 162.136 271.222 160.674 270.931C159.907 267.293 158.79 263.722 157.473 260.215C158.719 259.577 159.526 258.506 160.602 257.554C161.606 256.661 162.297 255.576 163.155 254.551C163.935 253.619 163.496 251.937 162.094 251.992L161.697 252.007C160.242 252.075 158.835 252.227 157.517 252.904L157.047 253.146C156.403 253.479 155.699 253.864 155.072 254.316C154.252 252.427 153.397 250.557 152.536 248.708L151.416 246.314C148.513 240.086 145.619 233.62 141.977 227.82C140.358 225.242 138.202 223.631 135.108 223.382C131.922 223.126 128.61 223.457 125.42 223.571C121.721 223.703 118.024 223.86 114.329 224.053C115.276 223.062 116.14 221.958 117.093 221.006C118.67 219.424 120.34 217.936 122.093 216.549C125.562 213.815 129.379 211.559 133.341 209.617C137.305 207.675 141.386 205.981 145.108 203.583C147.462 202.065 149.566 200.154 151.487 198.087C152.695 211.123 158.992 223.234 168.452 232.334C178.278 241.783 191.856 246.976 205.138 249.183C218.687 251.437 232.827 250.61 245.788 245.901C252.536 243.45 258.876 239.996 264.594 235.657C264.657 236.035 264.733 236.408 264.882 236.76C265.081 237.233 265.326 237.637 265.604 238.051L266.102 238.78C266.411 239.241 266.743 239.687 267.094 240.116C267.958 241.144 269.182 241.594 270.5 241.59C273.024 241.581 274.935 239.107 274.257 236.66C273.829 235.121 272.916 234.196 271.49 233.594C271.04 233.403 270.581 233.244 270.117 233.087L269.771 232.969C269.305 232.81 268.843 232.657 268.36 232.57C271.067 230.192 273.566 227.587 275.827 224.782C282.88 215.993 289.837 203.685 287.479 192.014C287.437 191.813 287.257 191.686 287.062 191.656C286.926 190.837 286.49 190.044 285.892 189.512C286.292 189.406 286.698 189.325 287.108 189.268V189.268ZM213.867 391.065C212.471 390.289 211.028 392.134 212.163 393.274L213.858 394.969C215.432 396.55 216.962 398.145 218.308 399.947L218.634 400.386C220.452 402.858 222.39 405.723 225.367 406.647C228.969 407.763 232.432 403.378 230.346 400.174C228.524 397.373 225.015 396.317 221.99 395.159C219.129 394.065 216.543 392.552 213.867 391.065ZM330.066 378.144C329.244 377.069 327.106 377.635 327.666 379.155C329.486 384.091 330.229 390.821 334.827 394.099C336.312 395.157 338.642 394.67 339.865 393.45C341.252 392.062 341.308 390.107 340.513 388.415C339.547 386.35 337.165 384.853 335.494 383.281L335.344 383.137C333.549 381.394 331.608 380.162 330.066 378.144V378.144ZM137.85 383.824C136.384 383.194 132.566 381.965 131.435 383.419C131.383 383.47 131.337 383.529 131.301 383.593C131.024 384.076 130.983 384.755 131.301 385.234C132.619 387.215 133.992 388.693 135.867 390.103L136.077 390.259C138.117 391.759 140.036 393.52 142.521 394.197C145.968 395.134 148.375 390.821 145.954 388.302C144.004 386.273 141.028 385.219 138.445 384.087L137.85 383.824V383.824ZM276.248 355.624C276.824 354.583 275.646 353.306 274.579 353.957C271.536 355.815 267.99 357.21 264.574 358.213C263.189 358.618 261.943 360.021 262.045 361.533L262.06 361.762C262.102 362.296 262.176 362.826 262.515 363.27C263.706 364.826 265.409 365.426 267.227 364.504C271.28 362.453 274.055 359.585 276.248 355.624V355.624ZM187.308 352.469C187.382 352.032 187.062 351.693 186.615 351.779C184.045 352.265 181.67 353.506 179.462 354.935C178.276 355.7 177.134 356.54 175.952 357.314C174.492 358.268 173.947 359.057 173.731 360.808C173.589 361.964 174.668 363.02 175.659 363.34C178.358 364.211 181.451 361.355 183.278 359.5L183.361 359.417C185.274 357.466 186.854 355.161 187.308 352.469ZM110.07 349.439C110.657 347.857 108.636 346.546 107.316 347.323C106.072 348.054 104.721 348.661 103.549 349.5C102.469 350.27 101.487 351.184 100.452 352.019L99.941 352.424C98.0452 353.947 94.9145 357.717 97.6267 359.903C100.206 361.985 103.629 359.328 105.362 357.384L105.483 357.246C106.479 356.096 107.708 354.844 108.43 353.501C109.111 352.235 109.574 350.783 110.07 349.439ZM135.522 226.942C138.755 227.568 140.074 231.558 141.435 234.158C144.647 240.294 147.602 246.541 150.57 252.798C151.483 254.723 152.373 256.663 153.269 258.597C153.324 258.748 153.396 258.898 153.477 259.046C155.316 263.003 157.21 266.934 159.422 270.691C157.397 270.312 155.361 269.988 153.318 269.733C153.42 267.81 152.104 265.236 151.452 263.616L151.397 263.48C150.585 261.406 149.733 258.137 147.642 257.06C146.945 256.701 146.199 257.151 146.146 257.918C145.986 260.202 148.221 262.816 149.314 264.754C149.975 265.927 150.619 267.104 151.246 268.296C151.481 268.741 151.678 269.18 151.918 269.572C150.865 269.459 149.81 269.356 148.752 269.283L148.062 269.235C144.14 268.978 139.975 268.904 136.432 270.836C133.144 272.631 131.462 276.457 133.269 279.943C135.519 284.287 140.473 284.862 144.831 285.214C150.274 285.653 155.729 286.446 161.132 287.219C166.723 288.017 171.986 290.078 177.494 291.136C178.005 291.235 178.324 290.565 177.854 290.279C173.511 287.637 168.231 286.181 163.375 284.7L162.981 284.58C160.348 283.772 157.772 282.847 155.047 282.389C152.402 281.943 149.742 281.583 147.074 281.308L146.814 281.283C143.877 281.037 136.382 281.123 136.699 276.773C136.909 273.897 141.587 273.399 143.723 273.365C153.517 273.208 163.379 275.806 172.685 278.59L174.763 279.213C178.576 280.36 182.39 281.539 186.13 282.883C190.367 284.406 193.706 286.779 196.791 290.029C200.214 293.631 203.528 297.316 207.077 300.796C209.316 302.985 211.579 305.149 213.867 307.286C214.416 307.981 214.829 308.774 215.083 309.623C215.566 311.215 215.454 312.697 215.272 314.332C214.812 318.463 214.71 322.638 214.134 326.757C213.6 330.572 212.852 334.528 211.267 338.067C210.64 339.469 209.824 340.845 208.892 342.077L208.142 343.052C207.814 343.476 207.449 343.939 207.064 344.377C206.5 343.688 205.683 343.241 204.735 343.353C202.719 343.589 201.134 343.532 199.157 343.071C197.625 342.711 196.106 342.293 194.583 341.905C191.591 341.14 188.57 340.446 185.608 339.569L185.098 339.416C182.89 338.74 180.682 337.893 178.844 336.467C176.71 334.811 176.053 332.423 174.471 330.358C171.096 325.948 163.801 326.041 158.86 324.832C154.663 323.806 150.621 322.186 147.716 319.141L147.547 318.961C147.676 318.416 147.468 317.803 146.962 317.523L146.852 317.46C146.663 317.356 146.45 317.303 146.235 317.309C145.966 316.913 145.704 316.504 145.469 316.069C145.274 315.711 144.788 315.975 144.852 316.328C144.89 316.54 144.943 316.747 144.992 316.955C142.178 316.23 139.087 316.368 136.231 316.37L132.522 316.357C131.88 316.349 130.924 316.317 130.839 316.279L130.752 316.24C130.521 316.139 130.848 316.306 130.687 316.092C130.509 315.855 130.335 315.615 130.163 315.375C129.547 314.515 128.966 313.63 128.397 312.736C134.606 314.317 141.04 315.301 147.379 316.122C154.182 317.002 161.074 317.614 167.935 317.619C169.827 317.623 169.81 314.767 167.935 314.695C160.668 314.419 153.439 314.033 146.221 313.102C141.047 312.431 135.904 311.543 130.805 310.441L129.74 310.21C129.072 310.062 127.185 309.848 126.265 309.231L125.723 308.3C125.812 307.21 128.583 307.356 129.235 307.356C131.076 307.352 132.92 307.367 134.763 307.371C138.449 307.382 142.132 307.35 145.82 307.32C153.183 307.261 160.576 307.004 167.933 307.318C169.719 307.394 170.657 304.53 168.892 303.777C161.098 300.45 152.447 299.729 144.125 298.705C139.748 298.167 135.371 297.546 131.093 296.458L130.034 296.189C127.346 295.501 124.379 294.662 122.115 293.019C125.517 291.645 129.746 291.802 133.271 291.607L133.541 291.592C138.479 291.288 143.424 291.132 148.371 291.127C158.492 291.112 168.615 291.471 178.725 291.95C178.979 291.961 179.032 291.562 178.786 291.509C168.394 289.242 157.833 288.15 147.199 287.981C142.248 287.904 137.293 287.974 132.344 288.191L130.528 288.277C126.31 288.458 121.629 288.507 118.098 291.053C117.56 291.441 117.276 291.937 117.233 292.461C112.498 283.028 108.127 273.399 103.736 263.832C100.324 256.394 97.0376 248.892 93.5016 241.513L92.3558 239.124C90.8236 235.939 89.2516 232.752 87.5073 229.682C94.0301 228.81 100.589 228.206 107.151 227.742C113.132 227.32 132.644 226.383 135.522 226.942V226.942ZM138.411 329.179C137.668 328.767 136.528 329.103 136.344 330.019C136.208 330.703 135.975 331.46 135.975 332.158C135.975 332.996 136.274 333.905 136.433 334.723C136.801 336.606 137.254 338.135 138.21 339.812C138.81 340.862 140.019 341.574 141.235 341.545C142.197 341.524 143.051 341.265 143.712 340.521C144.502 339.628 145.045 338.317 144.611 337.115C143.475 333.965 141.384 330.829 138.411 329.179V329.179ZM296.18 326.039C294.439 322.99 290.314 320.267 286.714 320.538C281.308 320.943 280.204 328.218 285.439 329.955C288.568 330.992 292.871 329.927 295.61 328.22C295.968 328 296.228 327.651 296.334 327.244C296.44 326.838 296.385 326.406 296.18 326.039ZM351.742 315.626C352.138 315.053 351.485 314.396 350.896 314.525C349.589 314.812 348.18 314.937 346.899 315.327C345.591 315.725 344.322 316.387 343.024 316.841C340.305 317.793 337.399 318.27 334.767 319.421C333.716 319.881 332.888 321.402 332.986 322.527L333.011 322.788C333.068 323.346 333.166 323.833 333.477 324.342C334.314 325.708 335.975 326.414 337.54 325.994C340.447 325.214 343.284 323.21 345.761 321.544L346.219 321.24C347.303 320.528 348.466 319.782 349.339 318.865C350.248 317.907 350.996 316.713 351.742 315.626V315.626ZM251.871 304.543C252.206 303.34 250.706 302.543 249.833 303.357C248.089 304.982 246.263 306.491 244.555 308.156L244.439 308.27C243.216 309.5 241.433 311.87 243.026 313.461C245.066 315.5 247.907 312.475 249.002 310.899C250.388 308.898 251.221 306.883 251.871 304.543V304.543ZM118.307 294.588C120.896 297.331 124.884 298.591 128.397 299.636C132.562 300.872 136.852 301.612 141.147 302.219C145.299 302.806 149.416 303.332 153.502 304.006C150.413 304.044 147.322 304.066 144.24 304.123C140.685 304.188 137.132 304.263 133.577 304.367C130.99 304.441 127.952 304.087 125.492 305.049C125.049 305.221 124.636 305.461 124.274 305.753C122.208 302.073 120.219 298.35 118.307 294.588V294.588ZM278.013 268.951C275.312 268.094 272.771 266.955 269.907 267.25C269.144 267.327 268.6 268.069 269.015 268.802C270.371 271.19 272.579 272.538 274.754 274.135L274.943 274.277C277.345 276.046 279.857 277.66 282.464 279.109C286.918 281.607 290.911 274.457 286.411 272.358C283.704 271.096 280.861 269.856 278.013 268.951V268.951ZM229.358 262.744C225.223 263.014 221.091 263.2 216.952 263.366C212.157 263.561 213.769 270.937 217.774 269.445C221.733 267.969 225.689 266.514 229.682 265.138C230.897 264.718 230.801 262.723 229.435 262.74L229.358 262.744V262.744ZM335.403 249.62C334.331 249.545 333.25 249.779 332.178 249.883L331.036 249.993C328.682 250.228 326.475 250.516 324.229 251.473C320.087 253.241 322.312 259.897 326.471 259.746C329.543 259.632 332.172 258.313 334.767 256.776C337.036 255.434 338.426 253.754 339.958 251.645C340.466 250.947 339.759 250.164 339.068 250.094C337.85 249.971 336.621 249.706 335.403 249.62V249.62ZM127.769 236.026C128.457 240.288 130.154 244.324 132.719 247.798C134.007 249.552 136.271 249.619 137.547 247.798C139.354 245.224 138.24 242.275 136.879 239.804L136.477 239.079C135.867 237.994 134.932 236.41 133.862 235.316L133.844 235.205C133.271 230.729 127.064 231.622 127.769 236.026V236.026ZM294.996 208.587C293.966 207.66 292.068 207.938 291.733 209.448C291.265 211.564 290.981 213.947 291.288 216.095C291.452 217.257 291.515 218.565 291.973 219.649C292.466 220.815 293.413 221.712 294.303 222.589C296.083 224.339 299.839 223.76 300.314 221.003L300.375 220.664C300.615 219.36 300.924 217.965 300.568 216.67C300.299 215.694 299.699 214.7 299.204 213.794L299.1 213.601C298.106 211.754 296.558 209.992 294.996 208.587V208.587ZM150.113 213.088L149.74 213.092C146.863 213.148 141.604 213.849 141.576 217.403C141.57 218.239 142.189 219.108 143.022 219.301C144.742 219.699 145.854 218.684 147.079 217.657C148.095 216.819 149.238 216.147 150.464 215.666C151.774 215.145 151.689 213.086 150.113 213.088Z" fill="black"/>
<path fill-rule="evenodd" clip-rule="evenodd" d="M141 108.803C143.51 90.7038 149.248 73.1331 150.072 54.7655L151.542 31.1839C151.727 26.2726 158.108 24.6166 160.546 28.9657C166.083 22.8262 176.002 23.7289 183.568 23.9163C228.114 25.4947 270.445 55.602 285.737 97.5815C286.104 98.5827 285.993 99.6482 285.578 100.6C292.705 124.362 267.498 139.659 250.307 150.254C243.333 157.622 235.136 163.743 225.881 167.935C215.141 172.964 203.473 175.711 191.616 176.001C189.034 176.06 187.483 173.972 187.296 171.813C183.542 170.938 177.119 171.947 175.135 168.103C152.502 158.275 137.754 133.367 141 108.803V108.803Z" fill="#FDFBF5"/>
<path fill-rule="evenodd" clip-rule="evenodd" d="M151.592 44.6227C151.656 44.036 150.808 44.0171 150.634 44.4921C149.2 48.4003 147.713 52.2802 146.577 56.2849C145.48 60.1457 144.692 64.0937 143.893 68.0246C142.567 74.5483 141.427 81.1213 140.486 87.7132C138.471 86.1423 135.836 85.9985 133.355 87.2211C132.19 87.7964 131.743 89.3143 132.024 90.4915C132.247 91.4359 132.522 92.3765 132.851 93.2963C132.147 93.919 131.55 94.6855 131.117 95.5674C129.974 97.8877 130.342 100.322 131.367 102.536C131.289 102.666 131.211 102.801 131.139 102.941C129.656 105.82 130.45 108.399 131.533 111.21C132.344 113.31 131.891 115.678 133.641 117.266C134.237 119.236 135.205 121.073 136.493 122.679C136.799 123.226 137.244 123.683 137.783 124.004C137.902 127.095 138.261 130.173 138.857 133.209C141.236 145.04 148.785 155.581 158.13 163.017C167.276 170.292 178.016 174.64 189.605 176.046C195.234 176.729 200.868 176.513 206.45 175.539L207.145 175.416C212.296 174.481 218.528 172.934 222.09 169.051C223.961 167.009 222.867 162.514 219.556 162.938C217.802 163.163 216.276 163.443 214.624 164.09C213.336 164.596 212.045 165.082 210.723 165.495C208.19 166.282 205.571 166.897 202.94 167.238C197.461 167.946 191.768 167.758 186.351 166.689C176.503 164.747 166.935 160.267 159.459 153.522C150.772 145.681 145.679 135.531 144.931 123.828C144.096 110.791 145.601 97.443 146.851 84.4749C147.502 77.7275 148.326 70.9977 149.321 64.2924C150.291 57.7403 150.874 51.1995 151.592 44.6227V44.6227ZM228.478 2.52781L228.058 2.46346C211.332 -0.0801795 193.736 0.099615 178.014 6.99999C175.001 8.3248 172.052 9.91836 169.276 11.7712C167.287 11.563 165.285 11.3946 163.321 11.3681C160.85 11.3359 158.437 12.6191 158.132 15.1192C155.815 15.4069 153.681 16.2585 152.317 17.9637C151.796 18.6172 151.43 19.381 151.249 20.197C149.825 20.532 148.429 21.0487 147.103 21.7281C145.495 22.5552 144.567 24.8584 145.135 26.5637C145.266 26.9481 145.415 27.3258 145.582 27.6954L145.711 27.9717L145.635 28.0758C144.351 30.1388 145.243 32.8471 147.213 34.0791C148.689 35.0027 150.338 35.7389 152.033 36.0947C151.893 36.7761 151.766 37.4593 151.662 38.152C151.622 38.4321 151.982 38.6308 152.141 38.3545C152.141 38.3545 151.533 40.2471 150.617 42.3308C150.257 43.1503 151.41 43.8789 151.849 43.05C153.018 40.8432 153.742 38.5797 154.802 36.3029C155.804 36.2426 156.786 36.0001 157.7 35.5875C158.297 35.3051 158.793 34.8459 159.12 34.2722C159.139 34.2949 159.153 34.3233 159.171 34.3517C162.329 38.4113 168.499 39.8345 173.268 41.1196C178.389 42.5012 183.632 43.3528 188.893 43.9793C198.081 45.0713 207.34 45.2757 216.569 45.6996L218.403 45.7867C222.151 49.076 226.98 51.1181 231.935 51.7408C234.702 52.0756 237.507 51.938 240.228 51.3338C241.252 52.3789 242.531 53.1389 243.939 53.5387C244.192 58.7793 247.115 63.7398 251.533 66.6316L251.454 66.942C250.357 71.418 250.37 76.3084 254.306 79.418C254.842 79.8377 255.421 80.1993 256.033 80.4967L255.899 80.8071C253.867 85.5575 253.217 90.8038 257.039 94.7441C258.588 96.3415 261.308 95.9629 262.471 94.1309L262.528 94.0382C262.592 93.9284 262.662 93.8243 262.728 93.7165C262.828 93.9352 263.004 94.1097 263.224 94.2066C264.677 94.8312 265.259 94.3713 266.582 93.7278C267.812 93.1367 269.098 92.6689 270.42 92.3311C271.48 92.0527 272.559 91.8534 273.649 91.7349C280.474 94.3429 284.884 102.343 283.836 109.851C283.268 113.939 281.022 117.987 277.109 119.683C275.397 120.427 273.385 120.739 271.531 120.487C269.024 120.146 267.094 118.568 264.497 119.471C263.473 119.827 262.832 120.631 262.778 121.731C262.685 123.458 263.296 124.755 264.331 125.714C262.509 127.234 261.041 129.346 259.459 131.031C257.484 133.139 255.478 135.247 253.342 137.191C251.328 139.042 249.178 140.739 246.908 142.267L246.67 142.424C243.821 144.279 240.234 145.923 240.098 149.799C240.054 150.967 240.762 152.038 241.723 152.635C245.312 154.858 249.217 151.938 252.029 149.799C253.157 148.944 254.255 148.052 255.323 147.123C256.107 147.178 256.893 147.035 257.607 146.707C258.126 146.478 258.632 146.221 259.124 145.939C260.736 146.344 262.257 145.988 263.509 145.144C265.314 145.587 267.226 145.64 268.849 145.284C270.293 144.959 271.633 144.283 272.751 143.316C275.033 144.042 277.565 143.908 279.815 142.526C281.164 141.699 282.215 140.518 282.789 139.139C283.094 138.669 283.264 138.125 283.279 137.566V137.342C285.24 137.388 287.206 136.714 288.721 135.164C290.037 133.822 290.804 132.036 290.87 130.158C292.918 129.585 294.724 128.364 296.02 126.68C298.293 123.742 298.596 120.114 297.427 116.874C297.503 116.703 297.572 116.529 297.632 116.352C299.444 113.795 300.643 110.712 300.545 107.619C300.533 107.139 300.469 106.667 300.374 106.2C302.158 105.252 303.471 103.586 303.611 101.47C303.705 99.8191 303.143 98.1974 302.046 96.9585C302.584 95.7083 302.789 94.3405 302.641 92.9878C302.497 91.6838 302.023 90.4378 301.264 89.3673C301.281 88.9927 301.26 88.6173 301.202 88.2469C301.274 87.8759 301.334 87.4898 301.365 87.1C301.706 82.8114 298.745 79.0584 295.139 77.0787C294.192 76.5583 293.168 76.1343 292.143 75.7747C291.399 75.5098 290.278 75.4227 289.622 74.9401C289.651 74.9193 289.376 74.5673 289.331 74.3799C289.278 74.1471 289.221 73.92 289.192 73.6834C289.086 72.6917 289.166 71.6716 289.185 70.6742C289.274 66.1547 289.134 61.6144 288.658 57.1195C287.774 48.7826 285.592 40.6275 281.344 33.3429C277.778 27.2393 272.897 22.082 267.298 17.8067C256.149 9.29381 242.234 4.66454 228.478 2.52781V2.52781ZM280.151 106.194C281.603 102.708 274.77 102.674 272.963 102.839L272.91 102.844C268.844 103.249 262.486 105.204 260.821 109.306C260.134 111.003 262.171 112.845 263.804 112.287C265.401 111.74 266.295 110.566 267.577 109.538C267.915 109.271 268.263 109.016 268.62 108.776C268.431 109.374 268.132 109.926 267.715 110.339L267.617 110.432C265.649 112.199 269.168 114.976 270.473 112.637C271.174 111.419 271.441 110 271.23 108.611C271.166 108.193 271.054 107.812 270.889 107.447C271.022 107.383 271.149 107.313 271.279 107.25L271.514 107.141C273.081 106.431 279.762 103.641 279.709 106.136C279.704 106.412 280.062 106.412 280.151 106.194V106.194Z" fill="black"/>
<path fill-rule="evenodd" clip-rule="evenodd" d="M186.151 144.531C188.865 143.424 191.23 141.606 192.996 139.268C193.267 138.925 193.463 138.53 193.573 138.108C193.683 137.685 193.705 137.244 193.636 136.813C193.492 135.929 192.97 135.131 192.258 134.593C191.544 134.056 190.65 133.791 189.786 133.925C189.034 134.043 188.288 134.453 187.695 135.307L187.572 135.477C186.543 136.885 185.187 138.022 183.621 138.791C182.106 139.535 180.41 139.833 178.731 139.65C175.439 139.279 173.172 137.5 170.761 135.083C170.462 134.779 170.163 134.465 169.864 134.145C169.688 133.874 169.424 133.672 169.117 133.571C168.784 133.466 168.426 133.471 168.095 133.584C167.765 133.697 167.479 133.913 167.28 134.2C167.097 134.47 166.99 134.805 167.025 135.191C167.246 137.695 168.555 139.928 170.415 141.683C172.481 143.632 175.22 144.98 177.797 145.453C180.636 145.973 183.53 145.601 186.151 144.531V144.531ZM176.456 105.907C173.436 107.745 168.831 112.026 172.081 116.578C175.909 120.59 181.417 115.989 184.131 113.907C186.648 112.295 189.477 116.443 187.142 118.326C167.525 132.845 159.564 106.388 174.928 103.75C176.621 103.458 177.248 105.34 176.456 105.907V105.907ZM211.608 89.0198C211.275 84.8769 204.964 83.9363 204.335 88.0356C203.775 91.7072 204.436 95.0817 206.091 98.3881C207.67 101.545 211.644 100.072 211.945 97.1958C212.348 93.3405 211.816 91.5975 211.608 89.0198V89.0198ZM163.568 87.1859C162.687 86.0333 161.417 85.2478 159.896 85.6907C155.14 87.0818 156.542 93.8307 158.212 97.1163C159.119 98.8991 162.053 99.3514 163.379 97.7806C165.538 95.2199 166.574 90.1042 163.826 87.5795C163.752 87.4508 163.669 87.3183 163.568 87.1859ZM206.157 70.8945L205.405 70.762C203.081 70.3607 200.193 69.9747 198.549 71.8407C197.676 72.8325 197.377 74.674 198.549 75.6221C200.61 77.2876 202.89 76.6441 205.36 76.7842C207.376 76.8995 209.372 77.2398 211.312 77.7986C215.615 79.0288 219.121 81.2715 222.795 83.7357C223.276 84.0574 223.769 83.4423 223.54 82.9919C221.418 78.8377 217.309 75.4272 213.191 73.3473C210.992 72.2363 208.589 71.3165 206.157 70.8945ZM167.903 69.0341L167.328 69.1514C161.07 70.4573 152.941 73.069 149.979 79.2143C149.865 80.083 149.985 80.2685 150.081 80.3896L150.114 80.4312C150.195 80.5353 150.258 80.6772 150.634 80.7965C150.741 80.7711 150.847 80.7446 150.953 80.717C152.311 80.3612 153.384 79.871 154.424 79.3619L155.553 78.8074C156.862 78.1639 158.182 77.5469 159.581 77.0908C162.565 76.114 165.638 75.4356 168.756 75.0657C169.421 74.9997 170.056 74.758 170.597 74.3655C171.111 73.9791 171.476 73.4257 171.627 72.8003C171.847 71.9165 171.782 71.2484 171.309 70.4497C170.953 69.8516 170.441 69.4372 169.856 69.1987C169.235 68.9538 168.556 68.8966 167.903 69.0341V69.0341Z" fill="black"/>
<path fill-rule="evenodd" clip-rule="evenodd" d="M140.649 108.342C145.507 113.361 153.617 114.8 160.079 112.109C176.676 105.178 168.553 83.5589 155.754 77.7524C154.155 77.355 152.019 76.4087 150.072 76.1948C149.896 76.1078 149.513 76.3576 149.049 76.121C134.935 77.6956 131.721 99.5967 140.649 108.342M194.178 109.627C199.627 116.851 209.756 119.081 218.032 115.722C234.382 109.285 228.583 90.1148 217.396 82.5975C193.767 73.7212 184.007 96.3074 194.178 109.627ZM229.621 93.6199L229.667 93.6028L229.407 93.4874L229.494 93.705C229.536 93.6767 229.574 93.6426 229.621 93.6199M129.401 85.8111C130.735 85.813 132.663 86.0325 133.767 86.958C136.49 77.777 146.541 69.2812 155.284 75.4756C162.168 77.69 167.276 82.5975 170.18 89.1212C175.415 86.0098 183.646 87.3384 188.185 91.4548C191.159 81.636 198.475 78.1972 207.184 77.6881C216.689 76.1324 226.163 85.3606 229.119 92.7644C231.577 92.4843 235.25 91.7027 237.562 93.2187C252.57 89.284 278.809 87.1151 281.86 89.301C284.034 90.1337 285.227 95.2664 282.189 95.5427C279.543 95.1661 282.5 91.7841 279.831 91.4131C265.617 90.5331 251.82 93.3947 237.756 94.5965C236.5 96.2846 232.443 96.8486 230.278 96.1711C233.687 108.728 226.329 117.273 215.305 119.832C198.231 123.752 183.379 108.484 187.843 92.6054C182.67 90.0315 176.721 90.1451 171.089 91.4983C180.504 126.135 124.703 124.581 133.417 88.1446C127.617 91.0289 126.358 86.3921 129.401 85.8111" fill="black"/>
</svg>
