<svg fill="none" height="440" viewBox="0 0 460 440" width="460" xmlns="http://www.w3.org/2000/svg"><g clip-rule="evenodd" fill-rule="evenodd"><path d="m100.873 275.331c1.258-3.45-.578-6.892-1.5965-10.231-3.6175-11.575-7.5682-23.152-13.1553-33.947-2.1175-3.613 1.3655-8.042 5.4015-7.024 6.9072.968 14.0303.197 20.9503-.23 2.531-6.545 9.286-9.261 14.603-13.031 6.032-3.762 11.899-8.087 18.174-11.386.348-3.119 4.131-3.891 6.443-1.661 6.352-3.95 13.97-3.216 20.779-5.805 5.174-8.36 5.562-17.151 6.931-25.215.599-3.516-.036-6.908 2.368-10.042 8.072-11.35 39.968-16.272 51.729-9.546 6.33-3.946 6.483 3.202 7.487 7.614 1.119 2.206 1.723 4.707 1.536 7.339 6.799 14.198 22.356 20.616 36.288 25.817 1.748-1.683 4.246-1.469 5.909-.078 12.075 2.623 23.795 7.238 33.914 14.441 11.495 3.361 19.589 12.707 25.444 22.728.644 1.056.797 2.133.609 3.123 18 26.378 26.591 57.958 27.8 89.852 11.575 6.946-5.502 69.337-9.479 82.29l-.012-.006c-2.579 4.565-5.507 17.592-11.962 16.583-4.428 5.006-11.485 4.022-17.492 4.406.977 3.753.496 8.047-.669 11.755-1.377 4.413-8.138 4.563-9.097-.25-59.837 11.622-121.231 2.351-181.74 4.094-17.496.125-34.989.666-52.4433 1.911-2.4564.176-4.9488-2.335-4.7803-4.781 3.7519-39.909 7.2747-92.409 11.4716-131.926.9944-9.013 1.7822-18.124 4.589-26.794z" fill="#fdfbf5"/><path d="m240.002 149.675c-.173-.468-.872-.405-.885.119-.276 11.221 2.519 24.935 11.5 32.513 4.612 3.891 10.707 5.672 16.305 7.718l.631.233 9.892 3.682c2.623.979 5.452 2.482 7.769 1.1-1.875 4.648-3.449 9.425-5.733 13.905-2.841 5.576-6.279 10.678-10.485 15.319-16.663 18.382-43.036 23.99-66.703 18.604-12.185-2.775-24.045-8.031-32.36-17.618-6.318-7.289-9.948-17.07-10.804-26.718.259.042.525.035.782-.021 2.994-.653 6.017-2.258 8.651-3.832l.254-.152c2.536-1.525 5.178-3.274 6.998-5.643 1.807-2.355 3.703-10.033 3.703-10.033.517-2.886 1.002-8.636.918-11.552-.007-.277-1.229-.44-1.36-.154-1.128 2.478-1.494 7.919-2.365 10.497l-.174.514c-.932 2.692-1.729 5.97-3.657 8.144-3.624 4.086-9.088 5.816-13.964 7.866-.351-4.618-7.728-4.51-7.635.306.006.261.017.521.027.782-.584.32-1.142.685-1.665 1.037l-.512.346c-1.931 1.314-3.878 2.563-5.935 3.678-3.981 2.157-8.199 3.868-12.279 5.827-4.114 1.961-8.002 4.364-11.594 7.169-1.694 1.326-3.315 2.743-4.856 4.243l-.417.411c-1.466 1.459-3.373 3.091-4.208 5.008-.184.424-1.106 1.406-1.606 1.44-7.754.507-15.489 1.225-23.1936 2.301-1.9943.279-2.7841 1.306-2.0454 2.968 2.5322 5.712 12.4507 28.519 15.089 34.64-.3087 4.497.1079 9.792-.1705 14.289-.4053 6.564-.9375 13.125-1.5738 19.672-2.2822 23.415-5.7387 46.714-8.8637 70.027-1.5625 11.668-2.9886 23.351-4.3958 35.038-1.0142 8.365-1.7816 16.759-2.3011 25.169l-.1326 2.194c-.1856 2.761-.608 5.399 1.1023 7.769.7746 1.075 2.5454 1.68 3.5643.46 1.2803-1.535 1.7576-2.684 1.8788-4.7.0947-1.544.1175-3.096.1875-4.64.1515-3.352.3428-6.7.5663-10.048.4444-6.691.9609-13.377 1.5493-20.058 2.07-23.42 6.0075-46.665 8.6269-70.029 1.3303-11.772 2.2491-23.586 2.7561-35.422.248-5.914.339-11.828.28-17.748-.023-2.211-.127-4.412-.279-6.607 3.922 8.907 8.044 17.725 12.364 26.447l1.023 2.062c2.733 5.504 5.54 11.03 8.824 16.22l.566.884c1.33 2.108 3.148 5.432 5.576 6.098 1.691.463 3.755.136 5.49.104 1.72-.034 3.442-.04 5.161-.11 1.903-.064 3.792-.344 5.631-.835.297-.073.587-.17.869-.287 1.877 3.071 5.068 5.411 8.33 6.773 2.612 1.09 5.35 1.84 8.093 2.533l.967.242c2.94.732 6.303 1.08 7.962 3.919l.385.657c1.233 2.095 2.415 3.933 4.456 5.434 2.195 1.616 4.798 2.632 7.391 3.423 2.653.81 5.369 1.431 8.064 2.095l.735.182c1.778.445 3.574.854 5.343 1.338.76.2 1.515.425 2.261.674.867.297 1.496.763 2.18 1.268.615 2.146 3.242 3.312 5.401 3.163 1.095-.088 2.151-.441 3.078-1.028 1.617 1.376 3.396 2.608 5.044 3.882 7.062 5.461 14.223 10.795 21.479 15.998 8.681 6.199 17.537 12.151 26.557 17.847 3.766 2.394 7.554 4.753 11.365 7.076l-.407.15-.809.306c-1.913.714-4.043 1.866-4.413 4.098-.295 1.767.694 2.986 2.44 3.202 2.077.257 3.693-1.209 4.986-2.61.569-.617 1.209-1.19 1.756-1.826.219-.266.402-.559.544-.873 3.76 2.229 7.581 4.356 11.456 6.378l.968.498c9.602 4.909 18.949 10.286 28.633 15.056 2.524 1.243 5.606 2.589 8.814 3.506-.852 3.301-.837 6.926-.86 10.275-.019 3.265 5.171 3.25 5.061 0l-.053-1.569c-.095-2.638-.248-5.376-.875-7.945 9.458 1.569 18.907-1.839 20.666-2.863 1.942-1.128 3.705-2.934 5.171-4.611 3.14-3.586 5.318-7.886 7.25-12.21 4.14-9.263 7.074-19.163 9.218-29.065 7.905-36.506 4.505-75.579-8.334-110.573-3.207-8.753-6.994-17.284-11.333-25.536l-.54-1.018c-4.329-8.15-9.142-16.269-15.256-23.205-6.367-7.223-14.223-12.842-22.774-17.202-4.175-2.114-8.468-3.986-12.858-5.606-.705-.263-1.415-.5-2.127-.723-4.574-2.916-10.125-5.704-15.678-5.594-.339 0-.665.131-.911.365-.269.047-.536.104-.803.182-.593.172-1.218.819-1.133 1.485l.029.222c.014.106.037.211.07.314-.199.03-.394.077-.585.142-5.313-1.499-10.54-3.793-15.726-5.644l-1.18-.416c-4.342-1.522-8.799-3.013-12.36-6.024-3.545-2.995-6.21-6.874-8.136-11.068-2.373-5.167-3.435-10.765-5.384-16.07zm-106.379 272.527c-1.051-.782-2.296.126-2.69 1.094-1.291 3.179-.653 8.117 1.169 10.927 1.886 2.911 6.405 1.762 6.515-1.765.114-3.676-2.024-8.046-4.994-10.256zm-10.866-87.754c-.094-.413-.736-.409-.833 0-.875 3.728-.856 7.745-1.112 11.568l-.03.424c-.309 4.216-.568 8.444-.752 12.668-.548 12.433-1.235 24.858-2.059 37.275-.863-.481-1.753-.905-2.676-1.277-1.38-.557-2.725-.621-4.21-.606-1.807.019-3.167 1.607-2.928 3.378.261 1.927 1.958 2.752 3.722 2.478 1.952-.305 3.912-.778 5.884-.975-.22 3.181-.445 6.365-.686 9.544-.32 4.209-.734 8.415-1.028 12.626-.027.401-.057.804-.087 1.207-1.176-.611-2.424-.923-3.839-1.31l-.369-.102c-2.053-.59-4.252-1.406-6.154-.024-1.276.927-1.532 2.456-.473 3.681 1.604 1.856 3.981 1.497 6.197 1.402l1.193-.043c1.125-.044 2.161-.116 3.201-.4-.192 2.743-.292 5.498.045 8.201.182 1.461 2.106 1.845 2.616.354 1.331-3.895 1.606-8.097 2.092-12.177.455-3.812.731-7.65 1.029-11.479l.091-1.147c.668-8.422 1.204-16.847 1.596-25.286.39-8.435.63-16.876.72-25.32.044-3.834-.021-7.683-.171-11.518l-.047-1.15c-.172-3.943-.053-8.127-.932-11.992zm175.824 88.376c-.051-.539-.483-1.209-1.125-1.124-.591.076-1.201.04-1.786.136-.773.129-1.396.585-2.113.873-1.169.467-2.442.708-3.641 1.09-2.248.717-3.473 3.083-2.541 5.292.979 2.324 3.439 2.85 5.564 1.875 1.676-.768 2.926-1.996 4.053-3.416l.318-.407c.487-.609 1.038-1.29 1.241-2.03.199-.722.1-1.556.03-2.289zm-109.233-10.92c-2.801-.394-5.193.562-7.784 1.465l-.21.074c-2.636.91-6.485 1.538-7.837 4.237-.815 1.628-.182 3.789 1.737 4.27 3.039.763 5.765-1.459 8.278-2.954l.133-.078c2.424-1.419 4.928-2.614 6.477-5.064.413-.653.055-1.831-.794-1.95zm97.76-222.636c1.121.251 2.242.473 3.363.687 4.264 2.284 8.402 4.654 12.803 6.69 4.671 2.159 9.324 4.389 13.762 7.003 8.962 5.276 16.35 12.139 22.454 20.551 10.546 14.53 18.39 31.287 24.006 48.288 1.441 4.368 2.734 8.784 3.875 13.24-2.019-1.868-4.409-3.015-7.091-3.997-1.136-.416-2.549.288-3.125 1.272-.259.441-.405.878-.379 1.395.061 1.143.805 2.443 2.032 2.668 2.864.528 5.65 1.556 8.41 2.459.172.064.357.091.541.078s.363-.066.525-.154c2.752 11.614 4.447 23.453 5.064 35.373.509 10.119.2 20.264-.922 30.334-.858-.386-1.699-.75-2.64-.967-1.222-.286-2.425-.63-3.616-1.02-3.439-1.128-5.007 4.546-1.492 5.411 1.307.321 2.625.59 3.958.785 1.161.17 2.188.095 3.282-.083-.832 6.279-1.978 12.513-3.433 18.678l-.322 1.345c-1.891 7.858-4.095 15.788-7.283 23.213-1.562 3.643-3.632 7.101-6.187 10.139-1.256 1.493-2.652 2.772-4.171 3.985-1.263 1.011-5.564 3.201-10.659 3.201-5.092 0-6.471-.483-9.041-1.367-5.082-1.749-9.906-4.54-14.673-7.027l-.492-.255c-2.108-1.091-4.208-2.196-6.301-3.313.265-2.132-.199-3.925-1.311-5.897-1.202-2.131-4.182-1.069-4.403 1.111l-.008.083c-.034.493-.115.994-.218 1.494-14.001-7.667-27.706-15.872-41.193-24.42-8.691-5.508-17.276-11.181-25.75-17.017-6.453-4.443-12.817-9.016-19.087-13.715-.898-.672-1.778-1.378-2.678-2.054.215-.27.428-.543.638-.817 3.362-4.401 5.542-9.645 6.629-15.056.657-3.265.974-6.654 1.07-9.981l.042-1.448c.066-2.44.085-4.991-.366-7.355.612.337 1.237.666 1.86 1.018 2.237 1.267 4.474 2.531 6.714 3.788 4.48 2.528 8.996 4.992 13.548 7.39 8.142 4.266 16.363 8.322 24.808 11.957l4.108 1.77c7.131 3.066 14.318 6.077 21.733 8.356 4.171 1.27 8.386 2.392 12.637 3.365l-1.714 2.008c-1.163 1.363-1.184 3.316.303 4.463 1.46 1.128 3.42.658 4.393-.839l1.777-2.729c.345-.518.588-1.097.716-1.705 1.956.408 3.915.802 5.877 1.181l3.712.708c5.303 1.024 10.445 3.049 15.186 5.641 1.647.901 2.106-.849.359-2.068-5.104-3.568-11.058-5.587-17.202-7.281l-.301-.083c-2.254-.617-4.504-1.261-6.75-1.927.263-.923.385-1.881.361-2.841-.062-2.275-.265-4.559-.384-6.832-.254-4.773-.578-9.531-.957-14.295-.145-1.835-.31-3.675-.496-5.515 1.203-.645 2.243-1.5 3.584-1.922l.227-.067c1.435-.386.951-2.235-.324-2.394-1.149-.139-2.313-.082-3.443.167-.176.039-.343.081-.504.13-.208-1.703-.441-3.403-.705-5.091-.697-4.464-1.191-9.166-2.642-13.454-.108-.318-.579-.432-.753-.099-2.112 4.016-2.186 8.943-2.425 13.415l-.028.536c-.28 4.879-.297 9.805-.208 14.69.094 5.036.265 10.059.492 15.09.091 2.025.087 4.125.434 6.063-12.568-4.084-24.913-8.972-36.746-14.76-8.35-4.083-16.62-8.329-24.803-12.735-4.099-2.207-8.216-4.38-12.311-6.594-1.436-.778-2.869-1.556-4.301-2.337l-2.15-1.172c-2.011-1.096-3.689-2.188-6.032-2.265-.335-.005-.668.065-.973.203-.306.138-.578.341-.796.595-1.258-.891-2.714-1.44-4.24-1.427-2.289-3.181-4.642-6.315-7.059-9.4l-1.792-2.279c-3.102-3.934-6.388-7.926-10.345-10.92-1.767-1.336-3.708-2.337-5.734-3.166.509-.124.977-.378 1.359-.736 1.934-1.793 2.201-5.124 2.595-7.626.407-2.594.25-4.917-.153-7.504-.157-1.005-1.822-1.215-2.229-.291-.857 1.947-1.764 3.811-2.542 5.78l-.231.594c-.837 2.216-2.62 4.548-2.5 6.951.024.612.23 1.202.593 1.694-1.701-.564-3.425-1.067-5.123-1.591-5.345-1.651-10.709-3.256-16.158-4.537-1.449-.341-2.907-.657-4.369-.948-.767-3.638-1.884-7.209-3.201-10.716 1.246-.638 2.053-1.709 3.129-2.661 1.004-.893 1.695-1.978 2.553-3.003.78-.932.341-2.614-1.061-2.559l-.397.015c-1.455.068-2.862.22-4.18.897l-.47.242c-.644.333-1.348.718-1.975 1.17-.82-1.889-1.675-3.759-2.536-5.608l-1.12-2.394c-2.903-6.228-5.797-12.694-9.439-18.494-1.619-2.578-3.775-4.189-6.869-4.438-3.186-.256-6.498.075-9.688.189-3.699.132-7.396.289-11.091.482.947-.991 1.811-2.095 2.764-3.047 1.577-1.582 3.247-3.07 5-4.457 3.469-2.734 7.286-4.99 11.248-6.932 3.964-1.942 8.045-3.636 11.767-6.034 2.354-1.518 4.458-3.429 6.379-5.496 1.208 13.036 7.505 25.147 16.965 34.247 9.826 9.449 23.404 14.642 36.686 16.849 13.549 2.254 27.689 1.427 40.65-3.282 6.748-2.451 13.088-5.905 18.806-10.244.063.378.139.751.288 1.103.199.473.444.877.722 1.291l.498.729c.309.461.641.907.992 1.336.864 1.028 2.088 1.478 3.406 1.474 2.524-.009 4.435-2.483 3.757-4.93-.428-1.539-1.341-2.464-2.767-3.066-.45-.191-.909-.35-1.373-.507l-.346-.118c-.466-.159-.928-.312-1.411-.399 2.707-2.378 5.206-4.983 7.467-7.788 7.053-8.789 14.01-21.097 11.652-32.768-.042-.201-.222-.328-.417-.358-.136-.819-.572-1.612-1.17-2.144.4-.106.806-.187 1.216-.244zm-73.241 201.797c-1.396-.776-2.839 1.069-1.704 2.209l1.695 1.695c1.574 1.581 3.104 3.176 4.45 4.978l.326.439c1.818 2.472 3.756 5.337 6.733 6.261 3.602 1.116 7.065-3.269 4.979-6.473-1.822-2.801-5.331-3.857-8.356-5.015-2.861-1.094-5.447-2.607-8.123-4.094zm116.199-12.921c-.822-1.075-2.96-.509-2.4 1.011 1.82 4.936 2.563 11.666 7.161 14.944 1.485 1.058 3.815.571 5.038-.649 1.387-1.388 1.443-3.343.648-5.035-.966-2.065-3.348-3.562-5.019-5.134l-.15-.144c-1.795-1.743-3.736-2.975-5.278-4.993zm-192.216 5.68c-1.466-.63-5.284-1.859-6.415-.405-.052.051-.098.11-.134.174-.277.483-.318 1.162 0 1.641 1.318 1.981 2.691 3.459 4.566 4.869l.21.156c2.04 1.5 3.959 3.261 6.444 3.938 3.447.937 5.854-3.376 3.433-5.895-1.95-2.029-4.926-3.083-7.509-4.215zm138.398-28.2c.576-1.041-.602-2.318-1.669-1.667-3.043 1.858-6.589 3.253-10.005 4.256-1.385.405-2.631 1.808-2.529 3.32l.015.229c.042.534.116 1.064.455 1.508 1.191 1.556 2.894 2.156 4.712 1.234 4.053-2.051 6.828-4.919 9.021-8.88zm-88.94-3.155c.074-.437-.246-.776-.693-.69-2.57.486-4.945 1.727-7.153 3.156-1.186.765-2.328 1.605-3.51 2.379-1.46.954-2.005 1.743-2.221 3.494-.142 1.156.937 2.212 1.928 2.532 2.699.871 5.792-1.985 7.619-3.84l.083-.083c1.913-1.951 3.493-4.256 3.947-6.948zm-77.238-3.03c.587-1.582-1.434-2.893-2.754-2.116-1.244.731-2.595 1.338-3.767 2.177-1.08.77-2.062 1.684-3.097 2.519l-.511.405c-1.8958 1.523-5.0265 5.293-2.3143 7.479 2.5793 2.082 6.0023-.575 7.7353-2.519l.121-.138c.996-1.15 2.225-2.402 2.947-3.745.681-1.266 1.144-2.718 1.64-4.062zm25.452-122.497c3.233.626 4.552 4.616 5.913 7.216 3.212 6.136 6.167 12.383 9.135 18.64.913 1.925 1.803 3.865 2.699 5.799.055.151.127.301.208.449 1.839 3.957 3.733 7.888 5.945 11.645-2.025-.379-4.061-.703-6.104-.958.102-1.923-1.214-4.497-1.866-6.117l-.055-.136c-.812-2.074-1.664-5.343-3.755-6.42-.697-.359-1.443.091-1.496.858-.16 2.284 2.075 4.898 3.168 6.836.661 1.173 1.305 2.35 1.932 3.542.235.445.432.884.672 1.276-1.053-.113-2.108-.216-3.166-.289l-.69-.048c-3.922-.257-8.087-.331-11.63 1.601-3.288 1.795-4.97 5.621-3.163 9.107 2.25 4.344 7.204 4.919 11.562 5.271 5.443.439 10.898 1.232 16.301 2.005 5.591.798 10.854 2.859 16.362 3.917.511.099.83-.571.36-.857-4.343-2.642-9.623-4.098-14.479-5.579l-.394-.12c-2.633-.808-5.209-1.733-7.934-2.191-2.645-.446-5.305-.806-7.973-1.081l-.26-.025c-2.937-.246-10.432-.16-10.115-4.51.21-2.876 4.888-3.374 7.024-3.408 9.794-.157 19.656 2.441 28.962 5.225l2.078.623c3.813 1.147 7.627 2.326 11.367 3.67 4.237 1.523 7.576 3.896 10.661 7.146 3.423 3.602 6.737 7.287 10.286 10.767 2.239 2.189 4.502 4.353 6.79 6.49.549.695.962 1.488 1.216 2.337.483 1.592.371 3.074.189 4.709-.46 4.131-.562 8.306-1.138 12.425-.534 3.815-1.282 7.771-2.867 11.31-.627 1.402-1.443 2.778-2.375 4.01l-.75.975c-.328.424-.693.887-1.078 1.325-.564-.689-1.381-1.136-2.329-1.024-2.016.236-3.601.179-5.578-.282-1.532-.36-3.051-.778-4.574-1.166-2.992-.765-6.013-1.459-8.975-2.336l-.51-.153c-2.208-.676-4.416-1.523-6.254-2.949-2.134-1.656-2.791-4.044-4.373-6.109-3.375-4.41-10.67-4.317-15.611-5.526-4.197-1.026-8.239-2.646-11.144-5.691l-.169-.18c.129-.545-.079-1.158-.585-1.438l-.11-.063c-.189-.104-.402-.157-.617-.151-.269-.396-.531-.805-.766-1.24-.195-.358-.681-.094-.617.259.038.212.091.419.14.627-2.814-.725-5.905-.587-8.761-.585l-3.709-.013c-.642-.008-1.598-.04-1.683-.078l-.087-.039c-.231-.101.096.066-.065-.148-.178-.237-.352-.477-.524-.717-.616-.86-1.197-1.745-1.766-2.639 6.209 1.581 12.643 2.565 18.982 3.386 6.803.88 13.695 1.492 20.556 1.497 1.892.004 1.875-2.852 0-2.924-7.267-.276-14.496-.662-21.714-1.593-5.174-.671-10.317-1.559-15.416-2.661l-1.065-.231c-.668-.148-2.555-.362-3.475-.979l-.542-.931c.089-1.09 2.86-.944 3.512-.944 1.841-.004 3.685.011 5.528.015 3.686.011 7.369-.021 11.057-.051 7.363-.059 14.756-.316 22.113-.002 1.786.076 2.724-2.788.959-3.541-7.794-3.327-16.445-4.048-24.767-5.072-4.377-.538-8.754-1.159-13.032-2.247l-1.059-.269c-2.688-.688-5.655-1.527-7.919-3.17 3.402-1.374 7.631-1.217 11.156-1.412l.27-.015c4.938-.304 9.883-.46 14.83-.465 10.121-.015 20.244.344 30.354.823.254.011.307-.388.061-.441-10.392-2.267-20.953-3.359-31.587-3.528-4.951-.077-9.906-.007-14.855.21l-1.816.086c-4.218.181-8.899.23-12.43 2.776-.538.388-.822.884-.865 1.408-4.735-9.433-9.106-19.062-13.497-28.629-3.412-7.438-6.6984-14.94-10.2344-22.319l-1.1458-2.389c-1.5322-3.185-3.1042-6.372-4.8485-9.442 6.5228-.872 13.0817-1.476 19.6437-1.94 5.981-.422 25.493-1.359 28.371-.8zm2.889 102.237c-.743-.412-1.883-.076-2.067.84-.136.684-.369 1.441-.369 2.139 0 .838.299 1.747.458 2.565.368 1.883.821 3.412 1.777 5.089.6 1.05 1.809 1.762 3.025 1.733.962-.021 1.816-.28 2.477-1.024.79-.893 1.333-2.204.899-3.406-1.136-3.15-3.227-6.286-6.2-7.936zm157.769-3.14c-1.741-3.049-5.866-5.772-9.466-5.501-5.406.405-6.51 7.68-1.275 9.417 3.129 1.037 7.432-.028 10.171-1.735.358-.22.618-.569.724-.976.106-.406.051-.838-.154-1.205zm55.562-10.413c.396-.573-.257-1.23-.846-1.101-1.307.287-2.716.412-3.997.802-1.308.398-2.577 1.06-3.875 1.514-2.719.952-5.625 1.429-8.257 2.58-1.051.46-1.879 1.981-1.781 3.106l.025.261c.057.558.155 1.045.466 1.554.837 1.366 2.498 2.072 4.063 1.652 2.907-.78 5.744-2.784 8.221-4.45l.458-.304c1.084-.712 2.247-1.458 3.12-2.375.909-.958 1.657-2.152 2.403-3.239zm-99.871-11.083c.335-1.203-1.165-2-2.038-1.186-1.744 1.625-3.57 3.134-5.278 4.799l-.116.114c-1.223 1.23-3.006 3.6-1.413 5.191 2.04 2.039 4.881-.986 5.976-2.562 1.386-2.001 2.219-4.016 2.869-6.356zm-133.564-9.955c2.589 2.743 6.577 4.003 10.09 5.048 4.165 1.236 8.455 1.976 12.75 2.583 4.152.587 8.269 1.113 12.355 1.787-3.089.038-6.18.06-9.262.117-3.555.065-7.108.14-10.663.244-2.587.074-5.625-.28-8.085.682-.443.172-.856.412-1.218.704-2.066-3.68-4.055-7.403-5.967-11.165zm159.706-25.637c-2.701-.857-5.242-1.996-8.106-1.701-.763.077-1.307.819-.892 1.552 1.356 2.388 3.564 3.736 5.739 5.333l.189.142c2.402 1.769 4.914 3.383 7.521 4.832 4.454 2.498 8.447-4.652 3.947-6.751-2.707-1.262-5.55-2.502-8.398-3.407zm-48.655-6.207c-4.135.27-8.267.456-12.406.622-4.795.195-3.183 7.571.822 6.079 3.959-1.476 7.915-2.931 11.908-4.307 1.215-.42 1.119-2.415-.247-2.398zm106.045-13.124c-1.072-.075-2.153.159-3.225.263l-1.142.11c-2.354.235-4.561.523-6.807 1.48-4.142 1.768-1.917 8.424 2.242 8.273 3.072-.114 5.701-1.433 8.296-2.97 2.269-1.342 3.659-3.022 5.191-5.131.508-.698-.199-1.481-.89-1.551-1.218-.123-2.447-.388-3.665-.474zm-207.634-13.594c.688 4.262 2.385 8.298 4.95 11.772 1.288 1.754 3.552 1.821 4.828 0 1.807-2.574.693-5.523-.668-7.994l-.402-.725c-.61-1.085-1.545-2.669-2.615-3.763l-.018-.111c-.573-4.476-6.78-3.583-6.075.821zm167.227-27.439c-1.03-.927-2.928-.649-3.263.861-.468 2.116-.752 4.499-.445 6.647.164 1.162.227 2.47.685 3.554.493 1.166 1.44 2.063 2.33 2.94 1.78 1.75 5.536 1.171 6.011-1.586l.061-.339c.24-1.304.549-2.699.193-3.994-.269-.976-.869-1.97-1.364-2.876l-.104-.193c-.994-1.847-2.542-3.609-4.104-5.014zm-144.883 4.501-.373.004c-2.877.056-8.136.757-8.164 4.311-.006.836.613 1.705 1.446 1.898 1.72.398 2.832-.617 4.057-1.644 1.016-.838 2.159-1.51 3.385-1.991 1.31-.521 1.225-2.58-.351-2.578z" fill="#000"/><path d="m141 108.803c2.51-18.0992 8.248-35.6699 9.072-54.0375l1.47-23.5816c.185-4.9113 6.566-6.5673 9.004-2.2182 5.537-6.1395 15.456-5.2368 23.022-5.0494 44.546 1.5784 86.877 31.6857 102.169 73.6652.367 1.0012.256 2.0667-.159 3.0185 7.127 23.762-18.08 39.059-35.271 49.654-6.974 7.368-15.171 13.489-24.426 17.681-10.74 5.029-22.408 7.776-34.265 8.066-2.582.059-4.133-2.029-4.32-4.188-3.754-.875-10.177.134-12.161-3.71-22.633-9.828-37.381-34.736-34.135-59.3z" fill="#fdfbf5"/><g fill="#000"><path d="m151.592 44.6227c.064-.5867-.784-.6056-.958-.1306-1.434 3.9082-2.921 7.7881-4.057 11.7928-1.097 3.8608-1.885 7.8088-2.684 11.7397-1.326 6.5237-2.466 13.0967-3.407 19.6886-2.015-1.5709-4.65-1.7147-7.131-.4921-1.165.5753-1.612 2.0932-1.331 3.2704.223.9444.498 1.885.827 2.8048-.704.6227-1.301 1.3892-1.734 2.2711-1.143 2.3203-.775 4.7546.25 6.9686-.078.13-.156.265-.228.405-1.483 2.879-.689 5.458.394 8.269.811 2.1.358 4.468 2.108 6.056.596 1.97 1.564 3.807 2.852 5.413.306.547.751 1.004 1.29 1.325.119 3.091.478 6.169 1.074 9.205 2.379 11.831 9.928 22.372 19.273 29.808 9.146 7.275 19.886 11.623 31.475 13.029 5.629.683 11.263.467 16.845-.507l.695-.123c5.151-.935 11.383-2.482 14.945-6.365 1.871-2.042.777-6.537-2.534-6.113-1.754.225-3.28.505-4.932 1.152-1.288.506-2.579.992-3.901 1.405-2.533.787-5.152 1.402-7.783 1.743-5.479.708-11.172.52-16.589-.549-9.848-1.942-19.416-6.422-26.892-13.167-8.687-7.841-13.78-17.991-14.528-29.694-.835-13.037.67-26.385 1.92-39.3531.651-6.7474 1.475-13.4772 2.47-20.1825.97-6.5521 1.553-13.0929 2.271-19.6697zm76.886-42.09489-.42-.06435c-16.726-2.5436395-34.322-2.363845-50.044 4.53653-3.013 1.32481-5.962 2.91837-8.738 4.77121-1.989-.2082-3.991-.3766-5.955-.4031-2.471-.0322-4.884 1.251-5.189 3.7511-2.317.2877-4.451 1.1393-5.815 2.8445-.521.6535-.887 1.4173-1.068 2.2333-1.424.335-2.82.8517-4.146 1.5311-1.608.8271-2.536 3.1303-1.968 4.8356.131.3844.28.7621.447 1.1317l.129.2763-.076.1041c-1.284 2.063-.392 4.7713 1.578 6.0033 1.476.9236 3.125 1.6598 4.82 2.0156-.14.6814-.267 1.3646-.371 2.0573-.04.2801.32.4788.479.2025 0 0-.608 1.8926-1.524 3.9763-.36.8195.793 1.5481 1.232.7192 1.169-2.2068 1.893-4.4703 2.953-6.7471 1.002-.0603 1.984-.3028 2.898-.7154.597-.2824 1.093-.7416 1.42-1.3153.019.0227.033.0511.051.0795 3.158 4.0596 9.328 5.4828 14.097 6.7679 5.121 1.3816 10.364 2.2332 15.625 2.8597 9.188 1.092 18.447 1.2964 27.676 1.7203l1.834.0871c3.748 3.2893 8.577 5.3314 13.532 5.9541 2.767.3348 5.572.1972 8.293-.407 1.024 1.0451 2.303 1.8051 3.711 2.2049.253 5.2406 3.176 10.2011 7.594 13.0929l-.079.3104c-1.097 4.476-1.084 9.3664 2.852 12.476.536.4197 1.115.7813 1.727 1.0787l-.134.3104c-2.032 4.7504-2.682 9.9967 1.14 13.937 1.549 1.5974 4.269 1.2188 5.432-.6132l.057-.0927c.064-.1098.134-.2139.2-.3217.1.2187.276.3932.496.4901 1.453.6246 2.035.1647 3.358-.4788 1.23-.5911 2.516-1.0589 3.838-1.3967 1.06-.2784 2.139-.4777 3.229-.5962 6.825 2.608 11.235 10.6081 10.187 18.1161-.568 4.088-2.814 8.136-6.727 9.832-1.712.744-3.724 1.056-5.578.804-2.507-.341-4.437-1.919-7.034-1.016-1.024.356-1.665 1.16-1.719 2.26-.093 1.727.518 3.024 1.553 3.983-1.822 1.52-3.29 3.632-4.872 5.317-1.975 2.108-3.981 4.216-6.117 6.16-2.014 1.851-4.164 3.548-6.434 5.076l-.238.157c-2.849 1.855-6.436 3.499-6.572 7.375-.044 1.168.664 2.239 1.625 2.836 3.589 2.223 7.494-.697 10.306-2.836 1.128-.855 2.226-1.747 3.294-2.676.784.055 1.57-.088 2.284-.416.519-.229 1.025-.486 1.517-.768 1.612.405 3.133.049 4.385-.795 1.805.443 3.717.496 5.34.14 1.444-.325 2.784-1.001 3.902-1.968 2.282.726 4.814.592 7.064-.79 1.349-.827 2.4-2.008 2.974-3.387.305-.47.475-1.014.49-1.573v-.224c1.961.046 3.927-.628 5.442-2.178 1.316-1.342 2.083-3.128 2.149-5.006 2.048-.573 3.854-1.794 5.15-3.478 2.273-2.938 2.576-6.566 1.407-9.806.076-.171.145-.345.205-.522 1.812-2.557 3.011-5.64 2.913-8.733-.012-.48-.076-.952-.171-1.419 1.784-.948 3.097-2.614 3.237-4.73.094-1.6509-.468-3.2726-1.565-4.5115.538-1.2502.743-2.618.595-3.9707-.144-1.304-.618-2.55-1.377-3.6205.017-.3746-.004-.75-.062-1.1204.072-.371.132-.7571.163-1.1469.341-4.2886-2.62-8.0416-6.226-10.0213-.947-.5204-1.971-.9444-2.996-1.304-.744-.2649-1.865-.352-2.521-.8346.029-.0208-.246-.3728-.291-.5602-.053-.2328-.11-.4599-.139-.6965-.106-.9917-.026-2.0118-.007-3.0092.089-4.5195-.051-9.0598-.527-13.5547-.884-8.3369-3.066-16.492-7.314-23.7766-3.566-6.1036-8.447-11.2609-14.046-15.5362-11.149-8.51289-25.064-13.14216-38.82-15.27889zm51.673 103.66619c1.452-3.486-5.381-3.52-7.188-3.355l-.053.005c-4.066.405-10.424 2.36-12.089 6.462-.687 1.697 1.35 3.539 2.983 2.981 1.597-.547 2.491-1.721 3.773-2.749.338-.267.686-.522 1.043-.762-.189.598-.488 1.15-.905 1.563l-.098.093c-1.968 1.767 1.551 4.544 2.856 2.205.701-1.218.968-2.637.757-4.026-.064-.418-.176-.799-.341-1.164.133-.064.26-.134.39-.197l.235-.109c1.567-.71 8.248-3.5 8.195-1.005-.005.276.353.276.442.058z"/><path d="m186.151 144.531c2.714-1.107 5.079-2.925 6.845-5.263.271-.343.467-.738.577-1.16.11-.423.132-.864.063-1.295-.144-.884-.666-1.682-1.378-2.22-.714-.537-1.608-.802-2.472-.668-.752.118-1.498.528-2.091 1.382l-.123.17c-1.029 1.408-2.385 2.545-3.951 3.314-1.515.744-3.211 1.042-4.89.859-3.292-.371-5.559-2.15-7.97-4.567-.299-.304-.598-.618-.897-.938-.176-.271-.44-.473-.747-.574-.333-.105-.691-.1-1.022.013-.33.113-.616.329-.815.616-.183.27-.29.605-.255.991.221 2.504 1.53 4.737 3.39 6.492 2.066 1.949 4.805 3.297 7.382 3.77 2.839.52 5.733.148 8.354-.922zm-9.695-38.624c-3.02 1.838-7.625 6.119-4.375 10.671 3.828 4.012 9.336-.589 12.05-2.671 2.517-1.612 5.346 2.536 3.011 4.419-19.617 14.519-27.578-11.938-12.214-14.576 1.693-.292 2.32 1.59 1.528 2.157zm35.152-16.8872c-.333-4.1429-6.644-5.0835-7.273-.9842-.56 3.6716.101 7.0461 1.756 10.3525 1.579 3.1569 5.553 1.6839 5.854-1.1923.403-3.8553-.129-5.5983-.337-8.176zm-48.04-1.8339c-.881-1.1526-2.151-1.9381-3.672-1.4952-4.756 1.3911-3.354 8.14-1.684 11.4256.907 1.7828 3.841 2.2351 5.167.6643 2.159-2.5607 3.195-7.6764.447-10.2011-.074-.1287-.157-.2612-.258-.3936zm42.589-16.2914-.752-.1325c-2.324-.4013-5.212-.7873-6.856 1.0787-.873.9918-1.172 2.8333 0 3.7814 2.061 1.6655 4.341 1.022 6.811 1.1621 2.016.1153 4.012.4556 5.952 1.0144 4.303 1.2302 7.809 3.4729 11.483 5.9371.481.3217.974-.2934.745-.7438-2.122-4.1542-6.231-7.5647-10.349-9.6446-2.199-1.111-4.602-2.0308-7.034-2.4528zm-38.254-1.8604-.575.1173c-6.258 1.3059-14.387 3.9176-17.349 10.0629-.114.8687.006 1.0542.102 1.1753l.033.0416c.081.1041.144.246.52.3653.107-.0254.213-.0519.319-.0795 1.358-.3558 2.431-.846 3.471-1.3551l1.129-.5545c1.309-.6435 2.629-1.2605 4.028-1.7166 2.984-.9768 6.057-1.6552 9.175-2.0251.665-.066 1.3-.3077 1.841-.7002.514-.3864.879-.9398 1.03-1.5652.22-.8838.155-1.5519-.318-2.3506-.356-.5981-.868-1.0125-1.453-1.251-.621-.2449-1.3-.3021-1.953-.1646z"/><path d="m140.649 108.342c4.858 5.019 12.968 6.458 19.43 3.767 16.597-6.931 8.474-28.5501-4.325-34.3566-1.599-.3974-3.735-1.3437-5.682-1.5576-.176-.087-.559.1628-1.023-.0738-14.114 1.5746-17.328 23.4757-8.4 32.221m53.529 1.285c5.449 7.224 15.578 9.454 23.854 6.095 16.35-6.437 10.551-25.6072-.636-33.1245-23.629-8.8763-33.389 13.7099-23.218 27.0295zm35.443-16.0071.046-.0171-.26-.1154.087.2176c.042-.0283.08-.0624.127-.0851m-100.22-7.8088c1.334.0019 3.262.2214 4.366 1.1469 2.723-9.181 12.774-17.6768 21.517-11.4824 6.884 2.2144 11.992 7.1219 14.896 13.6456 5.235-3.1114 13.466-1.7828 18.005 2.3336 2.974-9.8188 10.29-13.2576 18.999-13.7667 9.505-1.5557 18.979 7.6725 21.935 15.0763 2.458-.2801 6.131-1.0617 8.443.4543 15.008-3.9347 41.247-6.1036 44.298-3.9177 2.174.8327 3.367 5.9654.329 6.2417-2.646-.3766.311-3.7586-2.358-4.1296-14.214-.88-28.011 1.9816-42.075 3.1834-1.256 1.6881-5.313 2.2521-7.478 1.5746 3.409 12.5569-3.949 21.1019-14.973 23.6609-17.074 3.92-31.926-11.348-27.462-27.2266-5.173-2.5739-11.122-2.4603-16.754-1.1071 9.415 34.6367-46.386 33.0827-37.672-3.3537-5.8 2.8843-7.059-1.7525-4.016-2.3335"/></g></g></svg>