<svg width="460" height="448" viewBox="0 0 460 448" fill="none" xmlns="http://www.w3.org/2000/svg">
<g clip-path="url(#clip0_32_184)">
<path fill-rule="evenodd" clip-rule="evenodd" d="M312.053 253.228C308.8 252.068 305.665 250.726 302.808 248.753C294.573 242.617 289.204 233.382 284.131 224.633C276.984 211.909 271.894 198.349 268.374 184.204C266.862 178.125 266.347 171.079 262.913 165.69C255.124 154.409 232.285 155.871 220.158 157.851C212.037 159.29 210.358 168.389 208.514 175.121C206.979 180.716 205.973 186.372 205.129 192.105C203.12 193.427 200.855 194.5 198.693 195.436C175.148 202.664 171.009 216.064 162.016 236.764C146.826 266.85 105.608 278.632 99.382 314.237C95.3706 337.746 106.778 359.861 118.539 379.402C129.492 400.75 144.783 410.995 169.134 405.952C191.975 400.822 213.925 392.242 236.365 385.611C247.232 382.935 258.083 375.978 269.516 378.403C293.071 383.7 317.273 386.189 341.415 385.503C375.308 386.874 375.303 354.308 371.824 329.087C369.388 289.838 349.613 264.635 312.053 253.228Z" fill="#FDFBF5"/>
<path fill-rule="evenodd" clip-rule="evenodd" d="M314.319 310.022C317.151 311.898 319.534 314.74 321.445 317.732C313.463 316.901 305.493 315.941 297.541 314.85C298.582 314.185 299.633 313.533 300.708 312.918C304.628 310.707 309.94 307.125 314.319 310.022ZM181.682 333.648C180.22 333.074 179.654 330.841 179.083 329.561C177.296 325.548 175.665 321.465 173.967 317.412C180.412 315.574 186.679 313.534 193.355 312.552C200.532 311.5 207.818 311.245 215.062 311.481C229.736 311.96 244.273 314.362 258.701 316.935C273.11 319.508 287.52 321.978 302.03 323.917C316.247 325.816 330.509 327.207 344.796 328.426C347.573 328.663 352.202 329.662 354.435 327.476C356.202 325.745 356.259 322.549 354.048 321.142C352.67 320.264 350.674 320.251 349.099 320.047C347.117 319.793 345.128 319.623 343.133 319.49C342.321 319.437 341.507 319.387 340.695 319.337C347.22 316.875 354.034 315.531 361.107 315.906C361.505 318.338 363.309 320.842 364.294 322.849C366.018 326.351 367.36 329.897 368.241 333.704C370.083 341.666 370.163 349.927 369.644 358.047C369.165 364.816 368.138 372.304 362.833 377.1C358.818 380.728 353.153 382.073 347.896 382.496C341.786 382.987 335.582 382.462 329.523 381.642C321.027 380.492 312.489 378.972 304.16 376.933C288.027 372.985 272.562 366.702 258.294 358.185C251.335 354.031 244.697 349.359 237.644 345.364C230.456 341.292 222.809 338.133 214.779 336.172C205.791 333.978 196.397 333.041 187.16 333.582C185.557 333.676 183.241 334.258 181.682 333.648ZM171.268 329.572C172.213 332.64 172.935 336.142 174.951 338.72C176.947 341.274 179.96 342.177 183.08 342.404C186.842 342.677 190.649 342.502 194.419 342.642C202.153 342.929 209.78 344.187 217.174 346.494C224.062 348.644 230.458 351.996 236.619 355.717C242.316 359.157 247.844 362.852 253.543 366.282C252.027 366.977 250.527 367.729 249.02 368.386C245.857 369.759 242.676 371.086 239.479 372.38C233.177 374.93 226.848 377.417 220.454 379.729C207.562 384.391 194.458 388.463 181.195 391.932C174.869 393.587 168.454 395.519 161.883 395.794C156.056 396.037 150.658 394.389 145.959 390.92C136.211 383.727 128.456 373.342 122.187 363.1C118.462 357.014 115.212 350.621 112.524 344.01C111.164 340.665 109.931 337.271 108.821 333.837C108.3 332.225 107.807 330.603 107.339 328.974C107.133 328.257 106.936 327.538 106.741 326.82C116.709 323.775 126.794 321.027 137.117 319.501C142.628 318.684 148.213 318.273 153.785 318.333C156.55 318.362 159.314 318.512 162.065 318.798C163.546 318.951 165.021 319.149 166.489 319.394C167.096 319.495 167.72 319.644 168.345 319.754C169.301 323.033 170.264 326.307 171.268 329.572ZM377.307 316.537C377.844 315.45 378.071 314.38 378.264 313.196C378.41 312.291 378.8 311.021 378.459 309.848C378.076 308.533 377.036 307.359 376.289 306.239C375.463 305.001 374.638 303.76 373.816 302.522C372.169 300.043 370.525 297.561 368.885 295.077C362.185 284.936 355.53 274.767 348.864 264.604C342.951 255.585 337.135 246.484 331.039 237.586C325.828 229.976 320.147 222.493 313.014 216.576C303.995 209.093 293.254 205.569 282.036 202.817C280.81 201.545 279.174 200.85 277.424 200.992C274.952 198.185 272.988 196.224 272.098 192.656C271.67 190.947 271.805 186.144 270.142 185.132C268.167 183.931 267.135 185.521 266.591 187.313C264.768 193.31 266.86 201.371 271.674 207.379C269.646 214.395 266.956 224.367 262.16 229.988C257.023 236.008 249.92 237.882 242.255 238.005C227.64 238.241 213.041 232.802 201.892 223.379C198.504 220.513 195.357 217.314 192.509 213.912C190.374 211.359 187.848 207.42 186.177 204.443C186.177 203.282 184.809 202.069 198.741 201.13C212.672 200.193 213.729 181.096 214.039 178.496C214.291 176.385 215.362 173.109 213.876 171.388C213.245 170.657 211.952 170.54 211.153 171.037C209.646 171.974 209.149 174.369 208.676 175.996C208.013 178.276 205.842 192.425 201.731 194.063C199.805 194.829 197.598 194.843 195.562 194.985C193.046 195.161 190.527 195.291 188.023 195.583C187.099 195.692 186.091 195.99 185.18 195.998C184.587 196.004 183.975 195.716 183.402 195.514C181.468 194.829 179.535 195.342 177.542 195.61C159.923 197.98 141.781 203.39 126.752 213.126C113.506 221.707 104.174 234.046 98.0165 248.473C91.7335 263.197 88.1321 279.118 85.1142 294.793C84.103 300.045 83.2202 305.32 82.4617 310.615C81.7285 315.73 80.8115 320.959 80.592 326.128C80.5051 328.172 80.9933 330.07 81.7443 331.939C82.5901 334.041 84.5894 334.87 86.5067 335.851C90.7161 338.007 95.1564 339.679 99.7312 340.862C102.526 345.953 104.878 351.24 106.768 356.73C106.067 358.121 106.052 360.197 105.918 361.549C105.583 364.917 105.44 368.301 105.41 371.683C105.35 378.461 105.757 385.232 106.076 392.001C106.4 398.864 107.476 425.948 107.651 429.255C107.787 431.823 107.604 435.417 108.955 437.697C111.033 441.204 116.16 441.087 118.535 438.244C177.542 450.943 288.458 447.118 333.13 440.728C338.942 439.896 337.115 440.819 338.594 439.349C339.702 438.244 340.647 436.354 340.954 434.835C341.364 432.807 340.702 430.971 339.543 429.331C338.323 427.605 338.101 424.812 337.647 422.761C336.576 417.912 336.044 396.614 335.544 394.254C335.388 393.52 335.238 392.742 335.055 391.964C343.25 392.741 351.787 392.741 359.583 389.998C364.004 388.441 368.126 385.998 371.3 382.508C375.142 378.283 377.28 372.964 378.38 367.412C379.798 360.252 380.099 352.837 379.821 345.559C379.433 336.957 378.009 328.236 374.472 320.338C375.635 319.256 376.61 317.95 377.307 316.537Z" fill="black"/>
<path fill-rule="evenodd" clip-rule="evenodd" d="M174.598 37.7562C176.54 35.6692 179.025 34.1145 181.741 33.6175C179.258 34.8592 176.831 36.1534 174.598 37.7562ZM170.792 55.7507C170.449 54.1603 170.218 52.5545 170.145 50.9491C170.58 51.6098 171.273 52.0513 172.052 52.2793C171.549 53.4069 171.121 54.5688 170.792 55.7507ZM300.783 80.6864C298.54 71.3423 288.079 53.3691 285.606 49.9098C282.921 41.3441 297.565 34.4749 289.6 27.7769C285.996 24.7546 281.23 23.6851 276.76 22.6133C245.808 15.1717 212.552 18.9246 183.845 32.6092C179.478 31.6893 174.929 33.4871 171.754 36.6448C156.836 51.6556 177.166 78.7395 181.612 95.6623C189.239 114.532 173.527 117.706 175.212 133.672C176.521 141.919 184.866 144.1 191.909 145.345C193.036 145.61 194.545 145.65 194.909 146.845C196.051 153.816 199.962 160.459 205.214 164.97C204.754 166.331 205.104 167.984 206.724 169.18C221.396 180.096 239.896 185.559 258.194 184.576C280.003 183.407 291.281 170.892 294.003 167.67C309.049 147.327 307.251 120.487 304.182 96.2428C302.043 79.354 304.754 97.2395 300.783 80.6864Z" fill="#FDFBF5"/>
<path fill-rule="evenodd" clip-rule="evenodd" d="M233.538 2.9329C234.224 0.787888 236.164 -0.502068 238.386 -0.235915C240.352 -0.00329668 242.457 1.95045 242.217 4.10682C242.173 4.52308 242.113 4.91309 242.042 5.28055L242.051 5.28375L242.059 5.28428L242.012 5.42676C241.864 6.11308 241.662 6.72807 241.363 7.30935C240.981 8.42311 240.614 9.5406 240.251 10.662C240.776 10.6395 241.311 10.6694 241.854 10.7706C242.416 9.3307 242.981 7.89436 243.543 6.45057C244.146 4.90918 244.57 2.92918 245.762 1.73664C247.285 0.214065 249.93 -0.100888 251.788 0.986614C253.751 2.13409 254.451 4.17424 254.024 6.3606C253.808 7.47579 253.063 8.25189 252.143 8.73948L252.044 8.79058L251.334 10.4707C251.552 10.3769 251.778 10.2906 252.02 10.2195C252.402 10.107 252.778 10.0356 253.145 10.0057C254.155 8.17186 255.269 6.39059 256.418 4.64303C257.74 2.63287 260.325 1.77798 262.494 3.04913C264.434 4.18543 265.476 7.17059 264.086 9.13179C263.029 10.6206 262.029 12.1395 261.043 13.6732C261.212 13.7032 261.38 13.7407 261.542 13.7895C261.618 13.6883 261.696 13.587 261.778 13.4857C262.854 12.1507 264.104 11.1494 265.389 10.0394C266.591 8.99694 267.146 7.35814 268.726 6.56678C270.715 5.57297 273.113 6.0492 274.297 8.02938C276.836 12.2706 272.574 15.3683 269.847 17.9372C272.217 16.4558 274.687 15.102 277.219 13.932C278.643 13.2758 280.088 12.642 281.556 12.0944C283.733 11.2844 285.494 11.5435 287.281 13.0508C288.079 13.7258 288.474 15.1999 288.107 16.182C287.396 18.0646 286.272 19.2083 284.302 19.7522C282.916 20.1347 281.497 20.3934 280.111 20.7946C277.788 21.4621 275.533 22.276 273.345 23.2922C273.503 23.3898 273.653 23.4948 273.792 23.6148C275.425 23.086 277.088 22.6284 278.758 22.2384C281.529 21.5881 284.348 21.1486 287.182 20.8738L288.123 20.7861C291.519 20.4598 295.602 19.8578 297.687 23.1123C298.372 24.1847 298.446 25.9548 297.687 27.016C296.233 29.0562 294.786 29.4611 292.382 29.4987C294.749 29.75 297.113 30.0612 299.465 30.4249C301.088 30.6724 302.708 30.953 304.324 31.2644L305.129 31.4225C307.097 31.8162 309.292 32.0449 310.98 33.1851C314.666 35.6751 312.935 40.524 308.852 41.0414C306.879 41.2889 304.687 40.4527 302.751 40.0627C300.87 39.684 298.983 39.3503 297.086 39.0577C296.106 38.9039 295.123 38.769 294.139 38.6452C296.143 38.934 298.132 39.3427 300.068 39.9202L300.607 40.0827C304.35 41.2251 309.403 43.0443 310.572 47.0492C311.279 49.4829 309.343 51.6056 306.999 51.7481C304.818 51.8794 303.001 50.578 301.152 49.6179C299.802 48.9204 298.432 48.3991 296.978 47.9529C295.476 47.4917 293.944 47.1092 292.402 46.798C293.705 47.5173 294.976 48.3079 296.194 49.1923L296.754 49.6068C299.996 52.0241 304.937 55.767 303.795 60.2983C303.435 61.727 301.845 63.092 300.317 62.9458C296.338 62.5746 294.143 58.3332 291.143 56.0606C290.359 55.4682 289.501 54.8832 288.602 54.3131C293.15 59.7433 296.769 66.021 299.522 72.5048C305.572 86.7694 307.428 99.9796 307.473 115.316L307.474 115.792C307.481 124.252 307.29 132.867 306.467 141.289C305.703 149.07 304.302 156.751 300.776 163.797C294.87 175.614 283.359 184.816 270.664 188.319C256.538 192.219 240.749 189.17 229.178 180.171C226.226 177.875 230.141 172.892 233.155 175.011C245.2 183.466 260.774 186.145 274.597 180.421C285.561 175.884 294.389 166.123 298.132 154.883C300.513 147.734 301.207 140.109 302.058 132.657L302.114 132.162C303.013 124.369 303.533 116.523 303.526 108.678C303.515 94.1092 301.425 82.1163 295.022 68.9011C292.012 62.6758 288.104 56.9198 283.437 51.868C282.02 52.1569 280.515 51.7518 279.084 51.5981C278.354 51.5193 277.623 51.4443 276.893 51.3769C277.639 51.8598 278.372 52.362 279.09 52.876L280.033 53.557C282.987 55.6738 286.731 58.0848 285.973 62.177C285.767 63.2833 284.666 64.2997 283.598 64.5509C279.728 65.4734 277.068 61.7084 274.455 59.4732C272.18 57.5307 269.802 55.7907 267.379 54.0469C266.827 53.6532 266.274 53.2593 265.715 52.8693C266.24 53.4814 266.749 54.103 267.247 54.7304L267.983 55.6637C270.208 58.4521 273.418 62.0764 271.435 65.6909C270.873 66.711 269.675 67.3897 268.513 67.3672C264.52 67.2846 262.932 62.7471 261.059 59.882C259.448 57.4256 257.7 55.1119 255.889 52.7981C255.391 52.1643 254.889 51.5305 254.38 50.8967C245.994 51.3318 237.636 52.4418 229.425 54.2157C223.785 55.4345 218.237 57.0136 212.73 58.742L212.272 58.8877C209.292 59.8483 206.221 61.0776 204.074 63.1859C203.767 64.6384 204.001 66.1702 204.295 67.6207L204.524 68.7311C205.465 73.3739 206.107 77.9309 205.627 82.6976C205.129 87.614 203.65 92.0355 201.845 96.603C200.99 98.7555 200.106 98.3655 199.802 100.676C199.57 102.435 199.714 104.252 199.873 106.026L200.006 107.53C200.338 111.47 200.506 115.767 197.926 119.018C197.526 119.516 196.668 119.318 196.382 118.819C196.27 118.62 196.15 118.429 196.019 118.244C194.776 116.441 192.87 115.414 190.689 115.017C190.412 114.967 190.52 114.596 190.753 114.566C192.595 114.348 194.341 114.809 195.825 115.762C195.122 113.327 189.675 114.511 187.886 114.985L187.824 115.001C185.591 115.6 183.478 116.576 181.616 117.957C177.871 120.732 175.705 125.059 175.814 129.721C175.923 134.302 178.286 138.537 182.347 140.73C184.306 141.788 186.535 142.297 188.753 142.276C191.067 142.253 193.127 141.236 195.446 141.38C196.786 141.462 197.813 142.902 197.038 144.159C196.52 144.998 195.847 145.658 195.068 146.164C196.967 150.548 199.391 154.73 202.185 158.588C203.731 160.729 205.485 162.706 207.414 164.51C208.919 165.919 212.184 167.552 211.999 169.903C211.935 170.751 211.497 171.267 210.726 171.583C208.327 172.564 205.409 169.184 203.804 167.553L203.676 167.424C201.676 165.43 199.852 163.224 198.263 160.884C195.446 156.728 193.698 152.044 192.974 147.125C189.127 148.284 184.033 147.196 180.894 145.775C171.027 141.312 167.802 128.01 173.799 119.153C174.96 117.439 176.413 115.973 178.069 114.788C177.706 114.589 177.365 114.333 177.061 114.01C175.383 112.225 174.196 109.898 173.019 107.75L172.877 107.493C171.832 105.603 170.845 103.684 169.921 101.734L169.577 101.002C167.513 96.5579 165.704 94.6154 164.232 89.9428C162.816 85.4352 161.7 80.8413 160.977 76.1687L160.785 74.9319C160.366 72.2206 159.971 69.3213 160.276 66.5685C158.175 67.2547 156.062 67.6786 153.983 66.6471C152.612 65.9684 151.855 63.9884 152.324 62.567C152.665 61.5208 153.234 60.6995 153.957 60.0545C153.526 59.837 153.122 59.5595 152.766 59.252L152.455 58.9825C151.196 57.887 151.106 55.8056 151.87 54.4332C151.945 54.3019 152.02 54.1669 152.091 54.0356C152.818 52.7342 154.32 51.8831 155.804 51.9056C156.043 51.9093 156.283 51.9093 156.526 51.9056C155.834 51.7518 155.156 51.5156 154.511 51.118C151.604 49.3293 151.972 44.4803 155.489 43.6252C156.965 43.2691 158.594 43.4153 160.22 43.7979C160.16 43.764 160.1 43.7303 160.04 43.6928C158.812 42.9391 157.781 41.4653 157.898 39.9539C158.025 38.2814 158.564 37.0889 160.04 36.2115C161.321 35.4538 163.134 35.3827 164.408 36.2115C165.513 36.9352 166.595 37.7339 167.637 38.5926C166.592 37.3064 165.685 35.9077 165.318 34.4225C164.865 32.5738 165.622 30.56 167.285 29.585C168.611 28.8087 170.012 28.8949 171.263 29.495C171.195 28.5237 171.431 27.5336 172.076 26.656C173.394 24.8565 175.792 23.821 177.878 25.1336C178.151 25.3061 178.519 25.6024 178.875 25.9662C178.181 23.7573 178.807 21.4398 181.171 20.4422C182.613 19.831 184.564 20.1385 185.816 21.1922C185.022 16.8909 191.363 13.7295 193.827 18.1734C194.387 19.1801 194.941 20.2401 195.435 21.3244L195.618 21.7322L195.637 21.7247L195.512 21.4266L195.382 21.1284C194.698 19.5346 193.824 17.8771 193.584 16.1483C193.233 13.5907 194.372 11.1645 197.15 10.7894C198.586 10.5944 200.182 11.247 201.145 12.3874C200.623 8.41939 205.051 5.53553 208.239 8.49817C209.747 9.90062 210.554 11.9519 211.512 13.752C212.056 14.7682 212.609 15.7808 213.153 16.8009C213.292 16.6359 213.441 16.4709 213.598 16.3096C212.793 13.8945 212.168 11.4195 211.639 8.92934C211.137 6.58187 212.309 4.14426 214.73 3.48082C216.928 2.87293 219.682 4.23084 220.173 6.57459C220.517 8.22438 220.926 9.85608 221.375 11.4794C221.682 11.4044 221.985 11.3519 222.285 11.3144C222.311 11.0094 222.34 10.7028 222.37 10.3978L222.489 9.31295C222.751 6.83435 223.015 4.00497 224.308 1.89793C226.515 -1.70224 232.171 -0.209652 232.231 4.04667C232.265 6.24811 231.37 8.43057 231.058 10.6095C230.923 11.5582 230.845 12.5181 230.801 13.4782C231.403 10.2906 232.231 7.14434 233.189 4.04667C233.302 3.67547 233.421 3.30428 233.538 2.9329ZM184.738 125.854C189.701 125.086 194.237 127.856 197.178 131.738C197.714 132.446 197.361 133.449 196.879 134.045C196.529 134.483 196.061 134.536 195.533 134.604C194.926 134.682 194.159 134.19 193.893 133.661C192.001 129.882 188.627 127.492 184.738 126.023C184.667 125.996 184.644 125.868 184.738 125.854ZM191.616 58.1254L191.767 57.9638C192.77 56.9208 191.184 55.3278 190.176 56.3731C189.118 57.4734 188.412 58.8098 187.735 60.1644C187.09 61.4559 189.028 62.5966 189.676 61.3003L189.971 60.711C190.435 59.7947 190.928 58.8897 191.616 58.1254ZM177.679 55.9849C179.103 55.745 178.499 53.5762 177.082 53.8155C175.245 54.1253 173.416 54.4774 171.58 54.7875C170.157 55.0276 170.76 57.1962 172.178 56.9574C174.014 56.6472 175.843 56.295 177.679 55.9849ZM262.473 41.1791C261.098 40.7197 260.508 42.8923 261.875 43.349C263.765 43.9801 265.639 44.627 267.434 45.5034C268.728 46.1365 269.868 44.1964 268.567 43.5605C266.6 42.5986 264.547 41.8722 262.473 41.1791ZM177.354 38.263C176.011 37.7253 175.428 39.9007 176.757 40.4328L181.612 42.3764C182.954 42.9143 183.538 40.7393 182.209 40.2071L177.354 38.263ZM279.425 32.98L279.247 32.8682C278.029 32.0785 276.902 34.0254 278.113 34.8111C278.824 35.2721 279.687 35.5848 280.338 36.1339L280.474 36.2553C281.526 37.2491 283.118 35.6612 282.063 34.664C281.292 33.9353 280.317 33.5295 279.425 32.98Z" fill="black"/>
<path fill-rule="evenodd" clip-rule="evenodd" d="M242.138 149.844C246.725 144.508 254.45 144.136 260.851 145.47C264.957 146.327 268.956 147.753 273.128 148.282C275.076 148.529 277.044 148.603 279.007 148.568C280.934 148.531 282.865 148.142 284.787 148.215C285.082 148.225 285.193 148.614 284.938 148.772C282.301 150.392 278.752 150.912 275.64 151.229C275.649 151.46 275.663 151.685 275.695 151.875C275.78 152.385 275.858 152.89 275.92 153.403C276.062 154.558 276.22 155.71 276.378 156.863C276.688 159.132 276.786 161.473 277.332 163.703L277.427 164.074C277.555 164.542 277.583 164.965 277.541 165.346L277.667 165.289L278.067 165.094L278.33 164.972C279.285 164.526 280.199 164.204 281.325 164.312C282.181 164.393 282.899 164.977 282.904 165.893C282.926 170.002 277.395 171.322 274.232 172.11L273.305 172.337C269.277 173.322 265.167 174.183 261.025 174.39C254.379 174.72 246.911 172.884 242.564 167.488C238.507 162.452 237.764 154.933 242.138 149.844ZM272.317 167.105C271.621 160.921 264.028 160.58 261.844 164.502C260.874 159.035 246.537 164.03 247.658 165.117C251.908 169.237 258.356 169.608 263.899 168.845C266.723 168.457 269.548 167.825 272.317 167.105ZM263.892 150.894L261.984 150.619L261.232 150.514C256.5 149.881 251.179 149.553 247.287 152.59C245.867 153.699 245.067 155.145 244.77 156.698C248.45 156.152 252.145 155.735 255.851 155.389L256.862 155.295C259.181 155.085 261.498 154.865 263.816 154.634L265.461 154.468L267.106 154.296C267.686 154.235 271.589 154.035 272.323 154.17C272.401 153.51 272.504 152.081 272.668 151.439C269.895 151.533 267.135 151.327 264.379 150.96L263.892 150.894ZM272.679 123.248C275.507 124.969 279.817 128.983 276.775 133.25C273.193 137.013 268.035 132.698 265.495 130.748C263.138 129.235 260.491 133.124 262.677 134.889C281.041 148.501 288.493 123.699 274.11 121.223C272.527 120.952 271.938 122.716 272.679 123.248ZM277.741 130.5L277.878 130.425L277.922 130.397C278.002 130.345 277.952 130.351 277.771 130.415L277.635 130.462V130.558C277.67 130.537 277.707 130.521 277.741 130.5ZM241.514 115.207V115.121C241.52 112.731 242.91 107.271 246.349 107.271C248.497 107.271 249.801 110.987 250.027 114.816L250.035 114.972C250.135 117.355 249.482 122.559 246.349 122.559C243.183 122.559 241.546 117.63 241.514 115.207ZM292.142 114.456V114.373C292.137 111.981 290.746 106.521 287.307 106.521C285.213 106.521 283.92 110.054 283.647 113.78L283.629 114.067C283.493 116.369 284.103 121.811 287.307 121.811C290.473 121.811 292.11 116.88 292.142 114.456ZM243.475 90.966C246.282 90.5389 249.998 91.3503 251.307 94.2072C251.89 95.48 251.2 96.8874 249.731 96.9578C246.179 97.1282 242.993 96.3368 239.876 98.6488C238.536 99.644 237.406 101.022 236.461 102.396L236.103 102.919L235.805 103.35C235.163 104.296 234.555 105.324 234.649 106.465C234.677 106.803 234.332 107.124 234.005 107.11C231.961 107.026 231.741 104.462 232.011 102.922C232.511 100.063 233.892 97.3801 235.807 95.219C237.819 92.9494 240.473 91.4231 243.475 90.966ZM282.129 94.4351C284.066 93.1896 286.541 92.7111 288.807 92.8946C293.277 93.2549 300.777 97.059 299.789 102.525C299.484 104.21 297.142 105.1 295.762 104.165C294.278 103.159 293.918 101.597 292.814 100.283C291.933 99.2329 290.816 98.4735 289.621 97.8267C288.442 97.1885 287.078 96.8019 285.741 96.661L285.518 96.6397C284.713 96.5712 280.647 96.5895 281.245 98.1087C281.362 98.4061 280.92 98.6415 280.716 98.4165C279.47 97.0364 280.881 95.2383 282.129 94.4351Z" fill="black"/>
</g>
<defs>
<clipPath id="clip0_32_184">
<rect width="460" height="448" fill="white"/>
</clipPath>
</defs>
</svg>
