<svg fill="none" height="448" viewBox="0 0 460 448" width="460" xmlns="http://www.w3.org/2000/svg" xmlns:xlink="http://www.w3.org/1999/xlink"><clipPath id="a"><path d="m0 0h460v448h-460z"/></clipPath><g clip-path="url(#a)" clip-rule="evenodd" fill-rule="evenodd"><path d="m312.053 253.228c-3.253-1.16-6.388-2.502-9.245-4.475-8.235-6.136-13.604-15.371-18.677-24.12-7.147-12.724-12.237-26.284-15.757-40.429-1.512-6.079-2.027-13.125-5.461-18.514-7.789-11.281-30.628-9.819-42.755-7.839-8.121 1.439-9.8 10.538-11.644 17.27-1.535 5.595-2.541 11.251-3.385 16.984-2.009 1.322-4.274 2.395-6.436 3.331-23.545 7.228-27.684 20.628-36.677 41.328-15.19 30.086-56.408 41.868-62.634 77.473-4.0114 23.509 7.396 45.624 19.157 65.165 10.953 21.348 26.244 31.593 50.595 26.55 22.841-5.13 44.791-13.71 67.231-20.341 10.867-2.676 21.718-9.633 33.151-7.208 23.555 5.297 47.757 7.786 71.899 7.1 33.893 1.371 33.888-31.195 30.409-56.416-2.436-39.249-22.211-64.452-59.771-75.859z" fill="#fdfbf5"/><path d="m314.319 310.022c2.832 1.876 5.215 4.718 7.126 7.71-7.982-.831-15.952-1.791-23.904-2.882 1.041-.665 2.092-1.317 3.167-1.932 3.92-2.211 9.232-5.793 13.611-2.896zm-132.637 23.626c-1.462-.574-2.028-2.807-2.599-4.087-1.787-4.013-3.418-8.096-5.116-12.149 6.445-1.838 12.712-3.878 19.388-4.86 7.177-1.052 14.463-1.307 21.707-1.071 14.674.479 29.211 2.881 43.639 5.454 14.409 2.573 28.819 5.043 43.329 6.982 14.217 1.899 28.479 3.29 42.766 4.509 2.777.237 7.406 1.236 9.639-.95 1.767-1.731 1.824-4.927-.387-6.334-1.378-.878-3.374-.891-4.949-1.095-1.982-.254-3.971-.424-5.966-.557-.812-.053-1.626-.103-2.438-.153 6.525-2.462 13.339-3.806 20.412-3.431.398 2.432 2.202 4.936 3.187 6.943 1.724 3.502 3.066 7.048 3.947 10.855 1.842 7.962 1.922 16.223 1.403 24.343-.479 6.769-1.506 14.257-6.811 19.053-4.015 3.628-9.68 4.973-14.937 5.396-6.11.491-12.314-.034-18.373-.854-8.496-1.15-17.034-2.67-25.363-4.709-16.133-3.948-31.598-10.231-45.866-18.748-6.959-4.154-13.597-8.826-20.65-12.821-7.188-4.072-14.835-7.231-22.865-9.192-8.988-2.194-18.382-3.131-27.619-2.59-1.603.094-3.919.676-5.478.066zm-10.414-4.076c.945 3.068 1.667 6.57 3.683 9.148 1.996 2.554 5.009 3.457 8.129 3.684 3.762.273 7.569.098 11.339.238 7.734.287 15.361 1.545 22.755 3.852 6.888 2.15 13.284 5.502 19.445 9.223 5.697 3.44 11.225 7.135 16.924 10.565-1.516.695-3.016 1.447-4.523 2.104-3.163 1.373-6.344 2.7-9.541 3.994-6.302 2.55-12.631 5.037-19.025 7.349-12.892 4.662-25.996 8.734-39.259 12.203-6.326 1.655-12.741 3.587-19.312 3.862-5.827.243-11.225-1.405-15.924-4.874-9.748-7.193-17.503-17.578-23.772-27.82-3.725-6.086-6.975-12.479-9.663-19.09-1.36-3.345-2.593-6.739-3.703-10.173-.521-1.612-1.014-3.234-1.482-4.863-.206-.717-.403-1.436-.598-2.154 9.968-3.045 20.053-5.793 30.376-7.319 5.511-.817 11.096-1.228 16.668-1.168 2.765.029 5.529.179 8.28.465 1.481.153 2.956.351 4.424.596.607.101 1.231.25 1.856.36.956 3.279 1.919 6.553 2.923 9.818zm206.039-13.035c.537-1.087.764-2.157.957-3.341.146-.905.536-2.175.195-3.348-.383-1.315-1.423-2.489-2.17-3.609-.826-1.238-1.651-2.479-2.473-3.717-1.647-2.479-3.291-4.961-4.931-7.445-6.7-10.141-13.355-20.31-20.021-30.473-5.913-9.019-11.729-18.12-17.825-27.018-5.211-7.61-10.892-15.093-18.025-21.01-9.019-7.483-19.76-11.007-30.978-13.759-1.226-1.272-2.862-1.967-4.612-1.825-2.472-2.807-4.436-4.768-5.326-8.336-.428-1.709-.293-6.512-1.956-7.524-1.975-1.201-3.007.389-3.551 2.181-1.823 5.997.269 14.058 5.083 20.066-2.028 7.016-4.718 16.988-9.514 22.609-5.137 6.02-12.24 7.894-19.905 8.017-14.615.236-29.214-5.203-40.363-14.626-3.388-2.866-6.535-6.065-9.383-9.467-2.135-2.553-4.661-6.492-6.332-9.469 0-1.161-1.368-2.374 12.564-3.313 13.931-.937 14.988-20.034 15.298-22.634.252-2.111 1.323-5.387-.163-7.108-.631-.731-1.924-.848-2.723-.351-1.507.937-2.004 3.332-2.477 4.959-.663 2.28-2.834 16.429-6.945 18.067-1.926.766-4.133.78-6.169.922-2.516.176-5.035.306-7.539.598-.924.109-1.932.407-2.843.415-.593.006-1.205-.282-1.778-.484-1.934-.685-3.867-.172-5.86.096-17.619 2.37-35.761 7.78-50.79 17.516-13.246 8.581-22.578 20.92-28.7355 35.347-6.283 14.724-9.8844 30.645-12.9023 46.32-1.0112 5.252-1.894 10.527-2.6525 15.822-.7332 5.115-1.6502 10.344-1.8697 15.513-.0869 2.044.4013 3.942 1.1523 5.811.8458 2.102 2.8451 2.931 4.7624 3.912 4.2094 2.156 8.6497 3.828 13.2245 5.011 2.7948 5.091 5.1468 10.378 7.0368 15.868-.701 1.391-.716 3.467-.85 4.819-.335 3.368-.478 6.752-.508 10.134-.06 6.778.347 13.549.666 20.318.324 6.863 1.4 33.947 1.575 37.254.136 2.568-.047 6.162 1.304 8.442 2.078 3.507 7.205 3.39 9.58.547 59.007 12.699 169.923 8.874 214.595 2.484 5.812-.832 3.985.091 5.464-1.379 1.108-1.105 2.053-2.995 2.36-4.514.41-2.028-.252-3.864-1.411-5.504-1.22-1.726-1.442-4.519-1.896-6.57-1.071-4.849-1.603-26.147-2.103-28.507-.156-.734-.306-1.512-.489-2.29 8.195.777 16.732.777 24.528-1.966 4.421-1.557 8.543-4 11.717-7.49 3.842-4.225 5.98-9.544 7.08-15.096 1.418-7.16 1.719-14.575 1.441-21.853-.388-8.602-1.812-17.323-5.349-25.221 1.163-1.082 2.138-2.388 2.835-3.801z" fill="#000"/><path d="m174.598 37.7562c1.942-2.087 4.427-3.6417 7.143-4.1387-2.483 1.2417-4.91 2.5359-7.143 4.1387zm-3.806 17.9945c-.343-1.5904-.574-3.1962-.647-4.8016.435.6607 1.128 1.1022 1.907 1.3302-.503 1.1276-.931 2.2895-1.26 3.4714zm129.991 24.9357c-2.243-9.3441-12.704-27.3173-15.177-30.7766-2.685-8.5657 11.959-15.4349 3.994-22.1329-3.604-3.0223-8.37-4.0918-12.84-5.1636-30.952-7.4416-64.208-3.6887-92.915 9.9959-4.367-.9199-8.916.8779-12.091 4.0356-14.918 15.0108 5.412 42.0947 9.858 59.0175 7.627 18.8697-8.085 22.0437-6.4 38.0097 1.309 8.247 9.654 10.428 16.697 11.673 1.127.265 2.636.305 3 1.5 1.142 6.971 5.053 13.614 10.305 18.125-.46 1.361-.11 3.014 1.51 4.21 14.672 10.916 33.172 16.379 51.47 15.396 21.809-1.169 33.087-13.684 35.809-16.906 15.046-20.343 13.248-47.183 10.179-71.4272-2.139-16.8888.572.9967-3.399-15.5564z" fill="#fdfbf5"/><g fill="#000"><path d="m233.538 2.9329c.686-2.145012 2.626-3.434968 4.848-3.168815 1.966.23261832 4.071 2.186365 3.831 4.342735-.044.41626-.104.80627-.175 1.17373l.009.0032.008.00053-.047.14248c-.148.68632-.35 1.30131-.649 1.88259-.382 1.11376-.749 2.23125-1.112 3.35265.525-.0225 1.06.0074 1.603.1086.562-1.4399 1.127-2.87624 1.689-4.32003.603-1.54139 1.027-3.52139 2.219-4.71393 1.523-1.522575 4.168-1.837528 6.026-.750026 1.963 1.147476 2.663 3.187626 2.236 5.373986-.216 1.11519-.961 1.89129-1.881 2.37888l-.099.0511-.71 1.68012c.218-.0938.444-.1801.686-.2512.382-.1125.758-.1839 1.125-.2138 1.01-1.83384 2.124-3.61511 3.273-5.36267 1.322-2.01016 3.907-2.86505 6.076-1.5939 1.94 1.1363 2.982 4.12146 1.592 6.08266-1.057 1.48881-2.057 3.00771-3.043 4.54141.169.03.337.0675.499.1163.076-.1012.154-.2025.236-.3038 1.076-1.335 2.326-2.3363 3.611-3.4463 1.202-1.04246 1.757-2.68126 3.337-3.47262 1.989-.99381 4.387-.51758 5.571 1.4626 2.539 4.24122-1.723 7.33892-4.45 9.90782 2.37-1.4814 4.84-2.8352 7.372-4.0052 1.424-.6562 2.869-1.29 4.337-1.8376 2.177-.81 3.938-.5509 5.725.9564.798.675 1.193 2.1491.826 3.1312-.711 1.8826-1.835 3.0263-3.805 3.5702-1.386.3825-2.805.6412-4.191 1.0424-2.323.6675-4.578 1.4814-6.766 2.4976.158.0976.308.2026.447.3226 1.633-.5288 3.296-.9864 4.966-1.3764 2.771-.6503 5.59-1.0898 8.424-1.3646l.941-.0877c3.396-.3263 7.479-.9283 9.564 2.3262.685 1.0724.759 2.8425 0 3.9037-1.454 2.0402-2.901 2.4451-5.305 2.4827 2.367.2513 4.731.5625 7.083.9262 1.623.2475 3.243.5281 4.859.8395l.805.1581c1.968.3937 4.163.6224 5.851 1.7626 3.686 2.49 1.955 7.3389-2.128 7.8563-1.973.2475-4.165-.5887-6.101-.9787-1.881-.3787-3.768-.7124-5.665-1.005-.98-.1538-1.963-.2887-2.947-.4125 2.004.2888 3.993.6975 5.929 1.275l.539.1625c3.743 1.1424 8.796 2.9616 9.965 6.9665.707 2.4337-1.229 4.5564-3.573 4.6989-2.181.1313-3.998-1.1701-5.847-2.1302-1.35-.6975-2.72-1.2188-4.174-1.665-1.502-.4612-3.034-.8437-4.576-1.1549 1.303.7193 2.574 1.5099 3.792 2.3943l.56.4145c3.242 2.4173 8.183 6.1602 7.041 10.6915-.36 1.4287-1.95 2.7937-3.478 2.6475-3.979-.3712-6.174-4.6126-9.174-6.8852-.784-.5924-1.642-1.1774-2.541-1.7475 4.548 5.4302 8.167 11.7079 10.92 18.1917 6.05 14.2646 7.906 27.4748 7.951 42.8112l.001.476c.007 8.46-.184 17.075-1.007 25.497-.764 7.781-2.165 15.462-5.691 22.508-5.906 11.817-17.417 21.019-30.112 24.522-14.126 3.9-29.915.851-41.486-8.148-2.952-2.296.963-7.279 3.977-5.16 12.045 8.455 27.619 11.134 41.442 5.41 10.964-4.537 19.792-14.298 23.535-25.538 2.381-7.149 3.075-14.774 3.926-22.226l.056-.495c.899-7.793 1.419-15.639 1.412-23.484-.011-14.5688-2.101-26.5617-8.504-39.7769-3.01-6.2253-6.918-11.9813-11.585-17.0331-1.417.2889-2.922-.1162-4.353-.2699-.73-.0788-1.461-.1538-2.191-.2212.746.4829 1.479.9851 2.197 1.4991l.943.681c2.954 2.1168 6.698 4.5278 5.94 8.62-.206 1.1063-1.307 2.1227-2.375 2.3739-3.87.9225-6.53-2.8425-9.143-5.0777-2.275-1.9425-4.653-3.6825-7.076-5.4263-.552-.3937-1.105-.7876-1.664-1.1776.525.6121 1.034 1.2337 1.532 1.8611l.736.9333c2.225 2.7884 5.435 6.4127 3.452 10.0272-.562 1.0201-1.76 1.6988-2.922 1.6763-3.993-.0826-5.581-4.6201-7.454-7.4852-1.611-2.4564-3.359-4.7701-5.17-7.0839-.498-.6338-1-1.2676-1.509-1.9014-8.386.4351-16.744 1.5451-24.955 3.319-5.64 1.2188-11.188 2.7979-16.695 4.5263l-.458.1457c-2.98.9606-6.051 2.1899-8.198 4.2982-.307 1.4525-.073 2.9843.221 4.4348l.229 1.1104c.941 4.6428 1.583 9.1998 1.103 13.9665-.498 4.9164-1.977 9.3379-3.782 13.9054-.855 2.1525-1.739 1.7625-2.043 4.073-.232 1.759-.088 3.576.071 5.35l.133 1.504c.332 3.94.5 8.237-2.08 11.488-.4.498-1.258.3-1.544-.199-.112-.199-.232-.39-.363-.575-1.243-1.803-3.149-2.83-5.33-3.227-.277-.05-.169-.421.064-.451 1.842-.218 3.588.243 5.072 1.196-.703-2.435-6.15-1.251-7.939-.777l-.062.016c-2.233.599-4.346 1.575-6.208 2.956-3.745 2.775-5.911 7.102-5.802 11.764.109 4.581 2.472 8.816 6.533 11.009 1.959 1.058 4.188 1.567 6.406 1.546 2.314-.023 4.374-1.04 6.693-.896 1.34.082 2.367 1.522 1.592 2.779-.518.839-1.191 1.499-1.97 2.005 1.899 4.384 4.323 8.566 7.117 12.424 1.546 2.141 3.3 4.118 5.229 5.922 1.505 1.409 4.77 3.042 4.585 5.393-.064.848-.502 1.364-1.273 1.68-2.399.981-5.317-2.399-6.922-4.03l-.128-.129c-2-1.994-3.824-4.2-5.413-6.54-2.817-4.156-4.565-8.84-5.289-13.759-3.847 1.159-8.941.071-12.08-1.35-9.867-4.463-13.092-17.765-7.095-26.622 1.161-1.714 2.614-3.18 4.27-4.365-.363-.199-.704-.455-1.008-.778-1.678-1.785-2.865-4.112-4.042-6.26l-.142-.257c-1.045-1.89-2.032-3.809-2.956-5.759l-.344-.732c-2.064-4.4441-3.873-6.3866-5.345-11.0592-1.416-4.5076-2.532-9.1015-3.255-13.7741l-.192-1.2368c-.419-2.7113-.814-5.6106-.509-8.3634-2.101.6862-4.214 1.1101-6.293.0786-1.371-.6787-2.128-2.6587-1.659-4.0801.341-1.0462.91-1.8675 1.633-2.5125-.431-.2175-.835-.495-1.191-.8025l-.311-.2695c-1.259-1.0955-1.349-3.1769-.585-4.5493.075-.1313.15-.2663.221-.3976.727-1.3014 2.229-2.1525 3.713-2.13.239.0037.479.0037.722 0-.692-.1538-1.37-.39-2.015-.7876-2.907-1.7887-2.539-6.6377.978-7.4928 1.476-.3561 3.105-.2099 4.731.1727-.06-.0339-.12-.0676-.18-.1051-1.228-.7537-2.259-2.2275-2.142-3.7389.127-1.6725.666-2.865 2.142-3.7424 1.281-.7577 3.094-.8288 4.368 0 1.105.7237 2.187 1.5224 3.229 2.3811-1.045-1.2862-1.952-2.6849-2.319-4.1701-.453-1.8487.304-3.8625 1.967-4.8375 1.326-.7763 2.727-.6901 3.978-.09-.068-.9713.168-1.9614.813-2.839 1.318-1.7995 3.716-2.835 5.802-1.5224.273.1725.641.4688.997.8326-.694-2.2089-.068-4.5264 2.296-5.524 1.442-.6112 3.393-.3037 4.645.75-.794-4.3013 5.547-7.4627 8.011-3.0188.56 1.0067 1.114 2.0667 1.608 3.151l.183.4078.019-.0075-.125-.2981-.13-.2982c-.684-1.5938-1.558-3.2513-1.798-4.9801-.351-2.5576.788-4.9838 3.566-5.3589 1.436-.195 3.032.4576 3.995 1.598-.522-3.96801 3.906-6.85187 7.094-3.88923 1.508 1.40245 2.315 3.45373 3.273 5.25383.544 1.0162 1.097 2.0288 1.641 3.0489.139-.165.288-.33.445-.4913-.805-2.4151-1.43-4.8901-1.959-7.38026-.502-2.34747.67-4.78508 3.091-5.44852 2.198-.60789 4.952.75002 5.443 3.09377.344 1.64979.753 3.28149 1.202 4.90481.307-.075.61-.1275.91-.165.026-.305.055-.6116.085-.9166l.119-1.08485c.262-2.4786.526-5.30798 1.819-7.41502 2.207-3.60017 7.863-2.107582 7.923 2.14874.034 2.20144-.861 4.3839-1.173 6.56283-.135.9487-.213 1.9086-.257 2.8687.602-3.1876 1.43-6.33386 2.388-9.43153.113-.3712.232-.74239.349-1.11377zm-48.8 122.9211c4.963-.768 9.499 2.002 12.44 5.884.536.708.183 1.711-.299 2.307-.35.438-.818.491-1.346.559-.607.078-1.374-.414-1.64-.943-1.892-3.779-5.266-6.169-9.155-7.638-.071-.027-.094-.155 0-.169zm6.878-67.7286.151-.1616c1.003-1.043-.583-2.636-1.591-1.5907-1.058 1.1003-1.764 2.4367-2.441 3.7913-.645 1.2915 1.293 2.4322 1.941 1.1359l.295-.5893c.464-.9163.957-1.8213 1.645-2.5856zm-13.937-2.1405c1.424-.2399.82-2.4087-.597-2.1694-1.837.3098-3.666.6619-5.502.972-1.423.2401-.82 2.4087.598 2.1699 1.836-.3102 3.665-.6624 5.501-.9725zm84.794-14.8058c-1.375-.4594-1.965 1.7132-.598 2.1699 1.89.6311 3.764 1.278 5.559 2.1544 1.294.6331 2.434-1.307 1.133-1.9429-1.967-.9619-4.02-1.6883-6.094-2.3814zm-85.119-2.9161c-1.343-.5377-1.926 1.6377-.597 2.1698l4.855 1.9436c1.342.5379 1.926-1.6371.597-2.1693zm102.071-5.283-.178-.1118c-1.218-.7897-2.345 1.1572-1.134 1.9429.711.461 1.574.7737 2.225 1.3228l.136.1214c1.052.9938 2.644-.5941 1.589-1.5913-.771-.7287-1.746-1.1345-2.638-1.684z"/><path d="m242.138 149.844c4.587-5.336 12.312-5.708 18.713-4.374 4.106.857 8.105 2.283 12.277 2.812 1.948.247 3.916.321 5.879.286 1.927-.037 3.858-.426 5.78-.353.295.01.406.399.151.557-2.637 1.62-6.186 2.14-9.298 2.457.009.231.023.456.055.646.085.51.163 1.015.225 1.528.142 1.155.3 2.307.458 3.46.31 2.269.408 4.61.954 6.84l.095.371c.128.468.156.891.114 1.272l.126-.057.4-.195.263-.122c.955-.446 1.869-.768 2.995-.66.856.081 1.574.665 1.579 1.581.022 4.109-5.509 5.429-8.672 6.217l-.927.227c-4.028.985-8.138 1.846-12.28 2.053-6.646.33-14.114-1.506-18.461-6.902-4.057-5.036-4.8-12.555-.426-17.644zm30.179 17.261c-.696-6.184-8.289-6.525-10.473-2.603-.97-5.467-15.307-.472-14.186.615 4.25 4.12 10.698 4.491 16.241 3.728 2.824-.388 5.649-1.02 8.418-1.74zm-8.425-16.211-1.908-.275-.752-.105c-4.732-.633-10.053-.961-13.945 2.076-1.42 1.109-2.22 2.555-2.517 4.108 3.68-.546 7.375-.963 11.081-1.309l1.011-.094c2.319-.21 4.636-.43 6.954-.661l1.645-.166 1.645-.172c.58-.061 4.483-.261 5.217-.126.078-.66.181-2.089.345-2.731-2.773.094-5.533-.112-8.289-.479zm8.787-27.646c2.828 1.721 7.138 5.735 4.096 10.002-3.582 3.763-8.74-.552-11.28-2.502-2.357-1.513-5.004 2.376-2.818 4.141 18.364 13.612 25.816-11.19 11.433-13.666-1.583-.271-2.172 1.493-1.431 2.025zm5.062 7.252.137-.075.044-.028c.08-.052.03-.046-.151.018l-.136.047v.096c.035-.021.072-.037.106-.058zm-36.227-15.293v-.086c.006-2.39 1.396-7.85 4.835-7.85 2.148 0 3.452 3.716 3.678 7.545l.008.156c.1 2.383-.553 7.587-3.686 7.587-3.166 0-4.803-4.929-4.835-7.352zm50.628-.751v-.083c-.005-2.392-1.396-7.852-4.835-7.852-2.094 0-3.387 3.533-3.66 7.259l-.018.287c-.136 2.302.474 7.744 3.678 7.744 3.166 0 4.803-4.931 4.835-7.355zm-48.667-23.49c2.807-.4271 6.523.3843 7.832 3.2412.583 1.2728-.107 2.6802-1.576 2.7506-3.552.1704-6.738-.621-9.855 1.691-1.34.9952-2.47 2.3732-3.415 3.7472l-.358.523-.298.431c-.642.946-1.25 1.974-1.156 3.115.028.338-.317.659-.644.645-2.044-.084-2.264-2.648-1.994-4.188.5-2.859 1.881-5.5419 3.796-7.703 2.012-2.2696 4.666-3.7959 7.668-4.253zm38.654 3.4691c1.937-1.2455 4.412-1.724 6.678-1.5405 4.47.3603 11.97 4.1644 10.982 9.6304-.305 1.685-2.647 2.575-4.027 1.64-1.484-1.006-1.844-2.568-2.948-3.882-.881-1.0501-1.998-1.8095-3.193-2.4563-1.179-.6382-2.543-1.0248-3.88-1.1657l-.223-.0213c-.805-.0685-4.871-.0502-4.273 1.469.117.2974-.325.5328-.529.3078-1.246-1.3801.165-3.1782 1.413-3.9814z"/></g></g></svg>