<svg width="300" height="221" viewBox="0 0 300 221" fill="none" xmlns="http://www.w3.org/2000/svg">
<g clip-path="url(#clip0_32_4)">
<path d="M298.977 202.516C298.702 202.333 298.392 202.291 298.07 202.277C297.239 202.239 296.407 202.196 295.576 202.151C292.29 201.973 289.006 201.74 285.712 201.85C284.76 201.882 283.808 201.886 282.858 201.934C282.242 201.965 281.696 201.842 281.225 201.434C281.225 201.291 281.21 201.171 281.227 201.056C281.52 199.031 281.412 197.027 280.958 195.033C280.624 193.567 280.285 192.099 280.014 190.62C279.463 187.615 278.655 184.678 277.754 181.765C277.226 180.057 276.375 178.481 275.678 176.843C274.199 173.373 272.388 170.079 270.462 166.844C268.815 164.078 266.977 161.456 264.683 159.172C263.441 157.935 262.071 156.864 260.641 155.861C260.313 155.631 259.959 155.453 259.55 155.433C259.076 155.409 258.646 155.698 258.538 156.099C258.429 156.502 258.567 156.851 258.962 157.109C259.293 157.325 259.649 157.503 259.972 157.729C262.735 159.659 265.012 162.068 266.906 164.843C267.933 166.348 268.879 167.906 269.794 169.483C271.485 172.4 272.92 175.438 274.337 178.494C275.696 181.426 276.644 184.471 277.376 187.598C277.773 189.294 278.146 190.995 278.529 192.694C279.167 195.521 279.793 198.349 279.297 201.278C279.264 201.471 279.277 201.673 279.277 201.872C279.274 202.509 279.2 203.133 279.012 203.748C278.826 204.353 278.69 204.973 278.513 205.581C278.192 206.69 277.76 207.739 277.069 208.687C276.461 209.521 275.777 210.292 275.158 211.114C273.54 213.261 271.391 214.71 269.019 215.878C268.878 215.948 268.734 216.017 268.584 216.064C267.754 216.327 266.92 216.576 266.091 216.843C265.487 217.038 264.875 217.182 264.246 217.28C262.639 217.529 261.013 217.619 259.406 217.839C255.297 218.4 251.179 218.394 247.061 218.111C242.514 217.798 237.974 217.39 233.431 217.019C232.721 216.96 232.013 216.867 231.302 216.801C229.211 216.605 227.12 216.411 225.028 216.221C221.831 215.932 218.636 215.606 215.434 215.372C211.56 215.088 207.675 214.963 203.807 214.594C201.874 214.41 199.933 214.294 198.016 213.971C196.493 213.715 194.968 213.47 193.45 213.184C190.486 212.624 187.602 211.791 184.825 210.595C183.211 209.901 181.735 208.988 180.383 207.872C178.952 206.69 178.071 205.158 177.723 203.355C177.528 202.348 177.417 201.309 177.5 200.277C177.676 198.097 177.705 195.924 177.401 193.752C177.3 193.033 177.369 192.338 177.782 191.695C177.971 191.4 178.075 191.047 178.193 190.711C178.496 189.843 179.084 189.23 179.87 188.785C180.603 188.371 181.385 188.11 182.217 187.987C185.219 187.544 188.231 187.604 191.235 187.883C194.115 188.151 196.981 188.554 199.857 188.866C200.959 188.986 202.07 189.038 203.179 189.087C205.221 189.178 206.996 188.506 208.485 187.114C208.746 186.87 208.999 186.784 209.333 186.818C210.043 186.892 210.752 186.989 211.464 187.014C214.513 187.12 217.411 187.854 220.206 189.045C220.461 189.153 220.718 189.264 220.984 189.334C221.472 189.462 221.93 189.276 222.112 188.907C222.297 188.531 222.177 188.044 221.76 187.764C221.368 187.502 220.95 187.257 220.511 187.086C217.577 185.949 214.572 185.122 211.39 185.125C211.034 185.126 210.676 185.116 210.32 185.093C209.825 185.062 209.771 185.004 209.752 184.547C209.748 184.428 209.763 184.308 209.754 184.19C209.602 182.106 208.783 180.379 207.08 179.104C206.056 178.338 204.948 177.74 203.747 177.311C202.927 177.018 202.095 176.757 201.283 176.445C198.507 175.379 195.864 174.022 193.219 172.677C191.378 171.74 189.489 170.944 187.511 170.353C183.706 169.216 179.801 168.561 175.878 168.011C172.857 167.587 169.829 167.207 166.787 166.961C166.12 166.907 165.454 166.835 164.811 166.774C164.759 166.66 164.703 166.589 164.698 166.516C164.654 165.883 164.608 165.25 164.582 164.617C164.314 158.116 164.339 151.614 164.525 145.112C164.604 142.338 164.713 139.565 164.805 136.792C164.83 136.039 164.814 135.283 164.871 134.533C165.001 132.796 165.059 131.056 165.441 129.34C165.833 127.578 166.77 126.228 168.221 125.206C168.804 124.796 169.392 124.387 170.005 124.026C172.336 122.653 174.455 120.994 176.519 119.257C179.098 117.087 181.197 114.53 182.801 111.567C183.485 110.305 183.981 108.989 184.16 107.543C184.35 106.005 184.433 104.463 184.48 102.919C184.502 102.172 184.405 101.413 184.291 100.671C184.12 99.5569 183.56 98.6777 182.559 98.1032C181.731 97.6274 180.868 97.2374 179.94 97.007C179.24 96.8336 178.599 96.5355 177.984 96.1653C177.427 95.8296 177.151 95.3902 177.185 94.7027C177.266 93.0789 177.34 91.457 177.598 89.8484C177.83 88.4013 178.048 86.952 178.268 85.503C178.333 85.0719 178.376 84.6374 178.446 84.2073C178.488 83.9515 178.625 83.774 178.921 83.7879C179.159 83.799 179.397 83.8092 179.635 83.8112C182.648 83.8367 185.666 83.9171 188.673 83.7196C191.801 83.5142 194.932 83.4746 198.061 83.3572C199.804 83.2917 201.549 83.3419 203.291 83.4772C204.088 83.5391 204.848 83.7677 205.633 83.8692C206.789 84.0186 207.535 83.5539 207.918 82.4544C208.05 82.0752 208.112 81.6872 208.125 81.2887C208.181 79.6235 208.213 77.9605 207.936 76.3063C207.806 75.5251 207.731 74.7348 207.621 73.95C207.286 71.5571 207.039 69.1505 206.546 66.7817C205.635 62.4007 204.727 58.0189 203.794 53.6425C203.274 51.2032 202.716 48.7742 201.876 46.4153C201.492 45.3361 201.29 44.197 201.187 43.0494C200.886 39.6942 200.593 36.339 200.052 33.0098C199.422 29.1289 198.499 25.3248 197.102 21.6472C196.169 19.1921 194.988 16.8609 193.295 14.8293C190.034 10.9168 186.25 7.66081 181.586 5.49579C178.848 4.22441 176.015 3.25531 173.09 2.51062C169 1.46933 164.872 0.80022 160.638 0.872519C158.176 0.914502 155.735 1.10152 153.314 1.5895C150.31 2.19526 147.458 3.23742 144.646 4.43258C140.731 6.09707 137.24 8.39132 134.26 11.4198C132.084 13.6307 130.179 16.0589 128.892 18.9182C128.599 19.5679 128.324 20.2282 127.984 20.8528C127.112 22.456 126.375 24.1204 125.681 25.8052C124.413 28.8869 123.293 32.0141 122.815 35.3345C122.72 35.9955 122.61 36.6544 122.506 37.3204C122.076 37.4055 121.691 37.4865 121.305 37.5574C119.705 37.8507 118.288 38.5485 117.089 39.624C114.063 42.3391 112.872 45.7676 113.311 49.7776C113.495 51.4525 114.093 52.9946 115.039 54.4773C114.7 54.71 114.408 54.9641 114.161 55.2723C111.906 58.0891 109.741 60.9719 107.739 63.9751C106.969 65.1306 106.294 66.3396 105.718 67.6051C105.355 68.404 105.089 69.2313 104.95 70.0948C104.521 72.7525 105.775 74.9407 107.999 75.9501C109.054 76.4294 110.153 76.7414 111.298 76.8837C112.95 77.0888 114.605 77.263 116.256 77.4684C117.246 77.5915 118.233 77.5967 119.221 77.4668C119.808 77.3896 120.396 77.3203 121.022 77.3857C121.288 78.0553 121.546 78.7177 121.814 79.3757C122.808 81.8144 124.32 83.8594 126.421 85.4638C127.558 86.3323 128.755 87.1022 130.039 87.7332C131.514 88.4585 133.09 88.8658 134.716 88.9902C137.416 89.1966 140.106 89.1697 142.703 88.2298C143.069 88.0976 143.44 87.997 143.812 88.0365C143.966 88.3148 143.862 88.5387 143.796 88.7557C143.633 89.2856 143.45 89.8089 143.283 90.3376C142.697 92.2022 142.302 94.0941 142.465 96.0669C142.473 96.1703 142.414 96.2792 142.388 96.3764C142.173 96.4497 141.991 96.5308 141.8 96.5738C141.204 96.7077 140.951 97.1177 140.901 97.681C140.844 98.3127 140.804 98.9461 140.766 99.5793C140.721 100.338 140.815 101.082 141.031 101.811C141.469 103.29 142.219 103.883 143.752 104.024C144.942 104.134 146.129 104.049 147.318 104.052C150.928 104.058 154.53 103.853 158.13 103.602C158.833 103.553 159.536 103.509 160.287 103.526C160.337 104.202 160.219 104.773 160.128 105.354C159.972 106.346 160.064 106.307 159.068 106.374C158.599 106.406 158.129 106.512 157.672 106.634C157.056 106.798 156.49 107.086 155.969 107.455C153.59 109.141 153.092 112.234 154.82 114.586C156.357 116.68 159.263 117.657 161.828 116.957C162.927 116.657 163.893 116.136 164.645 115.278C165.76 114.007 166.202 112.55 165.799 110.869C165.51 109.666 164.86 108.7 163.934 107.903C163.45 107.486 162.91 107.15 162.321 106.911C162.01 106.785 161.892 106.615 161.926 106.29C162.017 105.423 162.093 104.554 162.179 103.687C162.201 103.457 162.343 103.342 162.57 103.329C162.689 103.321 162.808 103.312 162.926 103.307C166.847 103.129 170.769 102.955 174.689 102.773C175.6 102.731 176.51 102.668 177.42 102.601C177.694 102.581 177.973 102.54 178.236 102.463C178.853 102.28 179.25 101.886 179.385 101.231C179.474 100.799 179.5 100.367 179.491 99.9308C179.461 98.6044 179.426 98.5899 180.641 99.1781C180.784 99.2471 180.922 99.325 181.065 99.3931C181.971 99.8248 182.405 100.523 182.483 101.544C182.629 103.454 182.451 105.341 182.263 107.235C182.142 108.447 181.72 109.542 181.152 110.595C179.668 113.348 177.729 115.73 175.338 117.75C173.307 119.465 171.213 121.091 168.923 122.453C168.242 122.857 167.583 123.302 166.944 123.77C165.219 125.035 164.088 126.691 163.601 128.8C163.16 130.706 163.043 132.642 162.954 134.581C162.839 137.115 162.804 139.652 162.703 142.188C162.402 149.718 162.357 157.251 162.672 164.783C162.689 165.179 162.695 165.576 162.728 165.971C162.786 166.667 162.616 166.677 162.11 166.66C160.48 166.604 158.865 166.778 157.252 166.983C156.977 167.017 156.7 167.065 156.424 167.065C156.125 167.064 155.822 167.285 155.53 167.074C155.499 166.985 155.454 166.912 155.45 166.837C155.277 163.67 154.996 160.509 155.063 157.332C155.098 155.667 155.072 154.001 155.084 152.336C155.097 150.432 155.103 148.529 155.145 146.626C155.244 142.106 155.272 137.586 155.074 133.069C155.034 132.161 154.933 131.245 154.743 130.358C154.062 127.167 152.464 124.572 149.709 122.726C148.357 121.82 146.956 121.004 145.535 120.218C143.14 118.893 141.341 116.992 140.029 114.612C138.543 111.913 137.715 109.067 138.103 105.946C138.201 105.16 138.219 104.365 138.279 103.574C138.316 103.095 138.295 102.618 138.158 102.159C137.921 101.367 137.135 101.11 136.46 101.603C136.238 101.765 136.055 101.98 135.862 102.177C134.477 103.598 133.193 105.11 131.937 106.643C131.033 107.745 130.129 108.851 129.403 110.087C128.992 110.788 128.744 111.535 128.78 112.346C128.804 112.898 128.857 113.459 128.984 113.995C129.648 116.816 130.853 119.364 132.778 121.564C134.348 123.359 136.04 125.024 137.813 126.615C139.679 128.288 141.394 130.094 142.701 132.256C143.152 133.001 143.648 133.72 144.136 134.442C144.267 134.634 144.429 134.816 144.61 134.963C144.891 135.192 145.186 135.181 145.49 134.991C145.793 134.801 145.934 134.512 145.853 134.184C145.78 133.883 145.63 133.594 145.475 133.322C145.023 132.531 144.542 131.756 144.09 130.966C143.497 129.929 142.798 128.971 141.993 128.089C141.004 127.005 139.974 125.963 138.873 124.989C137.269 123.569 135.759 122.054 134.34 120.445C132.68 118.561 131.606 116.399 130.945 113.986C130.547 112.533 130.735 111.291 131.664 110.089C132.974 108.393 134.333 106.742 135.739 105.127C135.86 104.988 135.967 104.79 136.26 104.897C136.227 105.317 136.21 105.751 136.154 106.18C135.981 107.493 136.05 108.81 136.334 110.085C137.43 115.007 139.84 119.055 144.287 121.693C144.797 121.996 145.314 122.289 145.834 122.577C146.84 123.134 147.803 123.758 148.756 124.401C150.79 125.772 152.047 127.683 152.69 130.019C153.007 131.168 153.146 132.349 153.188 133.542C153.324 137.387 153.331 141.234 153.251 145.079C153.151 149.877 153.182 154.674 153.161 159.472C153.157 160.581 153.236 161.69 153.289 162.799C153.356 164.185 153.444 165.57 153.506 166.956C153.526 167.426 153.477 167.481 152.982 167.556C151.377 167.802 149.776 168.1 148.162 168.25C145.001 168.542 141.866 168.976 138.761 169.628C136.514 170.099 134.28 170.635 132.024 171.061C130.391 171.369 128.732 171.534 127.087 171.785C126.109 171.934 125.14 172.135 124.163 172.294C121.896 172.664 119.625 173.013 117.358 173.386C115.248 173.733 113.138 174.08 111.035 174.47C110.356 174.596 110.165 174.379 109.961 173.849C109.604 172.926 109.264 171.997 108.912 171.073C108.729 170.593 108.547 170.111 108.34 169.64C108.021 168.916 107.672 168.205 107.35 167.482C106.274 165.065 104.821 162.912 102.885 161.096C101.195 159.511 99.1944 158.509 96.9517 158.008C94.0309 157.354 91.0712 157.196 88.0857 157.414C86.3843 157.539 84.6974 157.765 83.0069 157.982C80.449 158.311 77.946 158.912 75.4244 159.422C75.27 159.453 75.1105 159.483 74.9685 159.546C74.6347 159.696 74.4111 160.095 74.4605 160.411C74.5222 160.807 74.8603 161.108 75.2864 161.123C75.4833 161.13 75.6836 161.117 75.8787 161.089C76.6231 160.98 77.3679 160.872 78.1091 160.744C80.5288 160.325 82.944 159.887 85.3858 159.6C88.7072 159.211 92.0115 159.106 95.3372 159.636C98.4149 160.126 100.912 161.505 102.917 163.894C104.814 166.153 105.854 168.852 107.022 171.491C107.422 172.394 107.734 173.336 108.072 174.265C108.146 174.468 108.351 174.653 108.201 174.927C107.79 175.17 107.296 175.141 106.838 175.245C105.256 175.605 103.729 176.187 102.116 176.424C101.927 176.452 101.734 176.54 101.57 176.643C101.074 176.957 101.127 177.758 101.651 178.025C101.869 178.135 102.096 178.181 102.341 178.14C102.888 178.047 103.439 177.976 103.982 177.867C105.805 177.5 107.601 177.004 109.444 176.72C111.361 176.424 113.271 176.075 115.177 175.714C118.68 175.049 122.207 174.533 125.731 173.996C126.347 173.903 126.983 173.869 127.681 173.975C127.308 175.324 127.215 176.659 127.127 177.998C126.968 180.387 127.144 182.751 127.619 185.092C128.099 187.458 128.565 189.83 129.482 192.08C129.495 192.11 129.479 192.152 129.472 192.228C128.977 192.315 128.475 192.437 127.965 192.487C125.075 192.773 122.265 193.451 119.494 194.276C117.557 194.852 115.679 195.603 113.978 196.726C113.649 196.943 113.308 197.163 113.037 197.443C112.323 198.181 112.323 198.997 112.997 199.781C113.341 200.18 113.776 200.444 114.268 200.629C114.979 200.897 115.715 201.012 116.468 201.095C117.606 201.221 118.763 201.199 119.877 201.513C120.027 201.748 120.266 201.634 120.469 201.664C120.611 201.671 120.755 201.647 120.894 201.696C120.754 201.66 120.61 201.676 120.468 201.672C120.258 201.689 120.035 201.621 119.842 201.763C117.488 202.087 115.134 202.412 112.78 202.734C111.053 202.971 109.328 203.221 107.598 203.435C105.279 203.724 102.957 203.994 100.635 204.254C97.9965 204.549 95.3587 204.849 92.7164 205.101C90.4284 205.319 88.1327 205.452 85.8435 205.658C80.9459 206.098 76.0364 206.33 71.1247 206.515C64.1542 206.779 57.1792 206.873 50.2181 207.434C45.8338 207.787 41.4301 207.783 37.0372 207.279C34.4502 206.982 32.1001 206.177 30.0673 204.537C29.2972 203.916 28.5503 203.261 27.8387 202.573C25.4654 200.281 23.7157 197.569 22.5219 194.498C22.4081 194.206 22.3271 193.894 22.2802 193.583C22.0494 192.056 21.7859 190.531 21.6287 188.996C21.4674 187.421 21.3219 185.841 21.406 184.249C21.6113 180.362 22.1137 176.518 23.0306 172.734C23.5819 170.458 24.2667 168.226 25.4453 166.181C27.6824 162.3 30.4213 158.842 33.9612 156.052C35.2371 155.046 36.4804 153.998 37.7287 152.958C39.7537 151.271 41.5283 149.356 42.8498 147.064C43.7574 145.49 45.0344 144.373 46.6854 143.656C46.7941 143.609 46.8949 143.544 47.0024 143.494C48.0552 143.003 48.9823 142.334 49.8037 141.516C50.4779 140.845 51.1437 140.165 51.8258 139.502C53.262 138.105 54.94 137.242 56.9664 137.032C58.6182 136.861 60.2685 136.636 61.8688 136.144C62.8322 135.848 63.6933 135.386 64.4466 134.721C65.1021 134.142 65.7229 133.526 66.2156 132.802C67.7755 130.508 69.3046 128.194 70.5039 125.685C70.9645 124.721 71.3686 123.73 71.8085 122.756C72.6647 120.861 73.8242 119.18 75.2654 117.672C77.1581 115.692 79.3964 114.228 81.8544 113.078C84.8668 111.668 87.9665 110.48 91.1238 109.429C94.7891 108.209 98.5418 107.469 102.383 107.126C105.224 106.873 108.067 106.627 110.902 106.312C113.586 106.013 116.268 105.847 118.97 105.91C121.151 105.962 123.327 106.056 125.497 106.282C125.775 106.311 126.046 106.338 126.313 106.213C126.587 106.085 126.755 105.886 126.79 105.584C126.831 105.241 126.733 104.942 126.42 104.775C126.214 104.666 125.979 104.58 125.749 104.552C124.294 104.373 122.841 104.141 121.38 104.061C117.254 103.834 113.142 104.07 109.04 104.556C106.876 104.813 104.705 105.002 102.535 105.199C100.087 105.421 97.6515 105.713 95.2557 106.285C90.1534 107.503 85.2769 109.346 80.5471 111.593C79.9045 111.898 79.2751 112.237 78.6627 112.599C74.6559 114.97 71.6037 118.203 69.8228 122.544C68.5524 125.641 66.8356 128.482 64.9667 131.24C64.6348 131.73 64.2499 132.188 63.8563 132.631C62.9892 133.608 61.9168 134.21 60.6277 134.503C59.3097 134.803 57.9783 134.995 56.6422 135.141C54.3882 135.388 52.4722 136.323 50.8116 137.828C50.3714 138.227 49.9455 138.644 49.5406 139.079C48.3412 140.366 47.009 141.449 45.3808 142.179C43.7167 142.926 42.382 144.092 41.469 145.7C41.3909 145.837 41.2895 145.961 41.2087 146.098C39.9802 148.167 38.3793 149.913 36.5443 151.452C35.2689 152.521 33.9902 153.588 32.6868 154.623C30.3108 156.509 28.2514 158.695 26.4524 161.13C24.3195 164.015 22.5445 167.085 21.6033 170.587C20.364 175.198 19.6612 179.887 19.4828 184.656C19.4442 185.687 19.4764 186.717 19.5968 187.744C19.6568 188.255 19.6828 188.771 19.7118 189.285C19.7322 189.646 19.693 189.701 19.3144 189.714C17.8882 189.765 16.4618 189.812 15.035 189.841C10.2396 189.941 5.444 190.033 0.648438 190.129C0.648438 190.763 0.648438 191.398 0.648438 192.032C6.67285 191.913 12.6973 191.789 18.722 191.686C19.139 191.679 19.6358 191.461 19.9716 191.795C20.2555 192.078 20.1197 192.55 20.2003 192.933C20.3636 193.708 20.5324 194.481 20.6989 195.255C21.4352 196.21 21.6846 197.407 22.2729 198.435C24.4851 202.298 27.4509 205.429 31.3408 207.632C32.554 208.319 33.8854 208.712 35.2648 208.94C37.0272 209.233 38.8018 209.385 40.5841 209.485C44.115 209.682 47.6393 209.523 51.1624 209.31C52.9822 209.201 54.7975 208.998 56.6184 208.926C63.4724 208.656 70.3288 208.443 77.1825 208.165C79.8358 208.058 82.4868 207.865 85.1345 207.657C88.3348 207.405 91.5321 207.111 94.7282 206.808C97.3319 206.561 99.9361 206.31 102.532 205.996C105.875 205.592 109.211 205.123 112.549 204.681C116.399 204.173 120.245 203.634 124.114 203.285C125.289 203.179 126.469 202.982 127.66 203.24C129.207 203.577 130.762 203.876 132.317 204.178C134.805 204.66 137.293 205.138 139.784 205.606C141.651 205.957 143.501 206.399 145.394 206.618C148.853 207.016 152.274 206.935 155.64 205.934C157.121 205.493 158.629 205.149 160.155 204.914C163.073 204.466 166.015 204.546 168.94 204.74C171.11 204.883 173.276 205.153 175.431 205.497C176.12 205.608 176.571 205.824 176.868 206.488C177.395 207.665 178.247 208.61 179.246 209.416C180.546 210.463 181.929 211.377 183.456 212.071C184.827 212.694 186.224 213.249 187.662 213.693C192.146 215.078 196.75 215.84 201.409 216.303C202.711 216.433 204.017 216.52 205.321 216.62C207.06 216.754 208.797 216.934 210.539 217.002C213.353 217.11 216.155 217.377 218.961 217.592C219.988 217.671 221.018 217.733 222.043 217.832C224.765 218.097 227.483 218.407 230.207 218.643C232.694 218.858 235.176 219.116 237.672 219.248C240.599 219.403 243.515 219.773 246.44 219.985C249.247 220.189 252.061 220.311 254.878 220.162C257.491 220.024 260.084 219.672 262.687 219.424C265.395 219.165 267.959 218.43 270.407 217.264C272.063 216.475 273.588 215.494 274.92 214.22C276.186 213.008 277.222 211.606 278.303 210.238C279.404 208.845 280.103 207.267 280.493 205.542C280.563 205.233 280.65 204.928 280.734 204.623C280.99 203.704 280.991 203.71 281.905 203.731C283.015 203.756 284.126 203.82 285.234 203.781C288.648 203.661 292.051 203.875 295.455 204.071C296.325 204.121 297.197 204.138 298.069 204.162C298.391 204.17 298.7 204.103 298.975 203.921C299.473 203.592 299.474 202.846 298.977 202.516ZM198.605 77.5382C198.62 77.4708 198.695 77.4114 198.754 77.361C200.277 76.0659 201.068 74.3236 201.382 72.4391C201.856 69.5909 201.987 66.7015 201.712 63.8121C201.667 63.3429 201.536 62.8824 201.459 62.4154C201.428 62.2281 201.394 61.9945 201.631 61.92C201.882 61.8415 201.973 62.0497 202.028 62.2435C202.211 62.8902 202.395 63.5414 202.409 64.2168C202.429 65.2439 202.414 66.2718 202.414 67.2993C202.418 68.8011 202.385 70.3017 202.193 71.7966C201.956 73.6426 201.258 75.2977 200.215 76.8169C199.878 77.3073 199.48 77.7543 198.899 77.9756C198.789 78.0177 198.65 77.9942 198.607 77.8663C198.573 77.7665 198.58 77.6427 198.605 77.5382ZM195.387 44.6691C195.503 44.5943 195.708 44.764 195.78 45.0032C196.306 46.7502 196.609 48.545 196.895 50.3411C197.2 52.255 197.487 54.1721 197.744 56.093C197.89 57.1904 198.005 58.2958 198.057 59.4014C198.185 62.1296 198.37 64.8572 198.325 67.5906C198.312 68.3803 198.222 69.1689 198.162 69.9577C198.153 70.0746 198.146 70.2136 198.081 70.2976C198.022 70.3729 197.886 70.4064 197.78 70.4187C197.732 70.4243 197.636 70.34 197.626 70.2851C197.592 70.0936 197.562 69.8956 197.575 69.7029C197.691 67.9621 197.646 66.2203 197.611 64.0347C197.491 61.1955 197.412 57.9047 196.891 54.6559C196.41 51.6511 196.075 48.618 195.309 45.6622C195.26 45.4719 195.244 45.2721 195.224 45.0755C195.209 44.9165 195.237 44.7665 195.387 44.6691ZM114.931 74.7066C114.579 74.8093 114.225 74.794 113.879 74.6743C112.222 74.0998 110.69 72.0164 110.661 70.2482C110.703 69.7912 110.773 69.2866 110.952 68.7949C111.293 67.857 111.785 67.0024 112.326 66.1712C112.65 65.6734 112.978 65.1777 113.29 64.6727C113.647 64.0949 113.864 63.4601 114.026 62.8023C114.07 62.6239 114.113 62.407 114.38 62.4008C114.574 62.3963 114.671 62.6149 114.608 62.9717C114.498 63.6004 114.293 64.2007 113.975 64.7533C113.62 65.3706 113.242 65.9755 112.863 66.5786C112.42 67.2835 112.016 68.0046 111.683 68.7712C111.015 70.3084 111.385 71.6275 112.462 72.8138C112.674 73.0474 112.918 73.2545 113.163 73.4555C113.663 73.8671 114.206 74.1699 114.893 74.0909C115.08 74.0693 115.207 74.2294 115.215 74.3754C115.224 74.5227 115.092 74.6595 114.931 74.7066ZM191.006 45.902C191.03 45.7211 191.163 45.591 191.311 45.5966C191.458 45.6021 191.591 45.7489 191.612 45.9164C191.651 46.2299 191.677 46.5459 191.691 46.8617C191.726 47.6523 191.752 48.4434 191.782 49.2344C191.789 49.234 191.795 49.2338 191.802 49.2335C191.836 49.9845 191.873 50.7354 191.901 51.4865C191.91 51.723 191.899 51.9609 191.888 52.1976C191.88 52.3698 191.788 52.5256 191.624 52.5463C191.388 52.5761 191.3 52.3887 191.256 52.1864C191.248 52.1478 191.239 52.1085 191.238 52.0694C191.156 50.0529 191.075 48.0364 190.995 46.0199C190.993 45.9808 191.001 45.9412 191.006 45.902ZM182.635 38.6363C182.645 38.5631 182.68 38.4733 182.735 38.4326C182.785 38.3952 182.884 38.3926 182.949 38.4131C183.019 38.435 183.085 38.4925 183.135 38.5501C183.781 39.2996 184.419 40.0561 185.068 40.8025C186.354 42.2802 187.121 43.9663 187.278 45.9404C187.388 47.327 187.382 48.7091 187.314 50.0934C187.07 55.1155 186.803 60.1366 186.576 65.1594C186.496 66.938 186.439 68.7216 186.655 70.4985C186.669 70.6157 186.67 70.7352 186.668 70.8534C186.665 71.0347 186.57 71.1539 186.39 71.1681C186.203 71.1828 186.097 71.0378 186.064 70.8909C186.003 70.6225 185.964 70.345 185.954 70.07C185.922 69.1997 185.878 68.3283 185.892 67.4582C185.933 64.9645 185.942 62.4693 186.145 59.9806C186.194 59.3889 186.205 58.7944 186.234 58.2011C186.231 58.201 186.228 58.2009 186.225 58.2006C186.349 55.9474 186.469 53.6941 186.597 51.441C186.686 49.8588 186.713 48.2757 186.672 46.6916C186.621 44.6826 185.985 42.8923 184.681 41.3501C184.093 40.655 183.503 39.9619 182.925 39.2584C182.78 39.0811 182.596 38.9024 182.635 38.6363ZM173.975 68.4584C174.402 65.8381 175.051 63.2658 175.642 60.6807C176.754 55.8191 177.106 50.8948 176.836 45.9222C176.746 44.2607 176.656 42.5979 176.505 40.9413C176.34 39.1276 176.117 37.3187 175.894 35.5107C175.705 33.9786 175.476 32.4515 175.275 30.9208C175.25 30.7319 175.281 30.5342 175.299 30.3417C175.308 30.2435 175.382 30.2048 175.477 30.2316C175.549 30.2517 175.666 30.2645 175.68 30.3077C175.79 30.6417 175.911 30.977 175.968 31.322C176.137 32.3373 176.305 33.3542 176.423 34.3761C176.719 36.9331 177.143 39.4757 177.267 42.0522C177.37 44.1893 177.496 46.3252 177.578 47.8274C177.61 52.879 177.17 57.2421 176.131 61.54C175.591 63.7715 175.059 66.0059 174.679 68.271C174.443 69.6779 174.254 71.0936 174.551 72.5237C174.656 73.0303 174.798 73.5195 174.997 73.9961C175.484 75.1612 176.334 75.9547 177.509 76.3713C178.102 76.5815 178.728 76.7259 179.351 76.8203C181.396 77.1301 183.453 77.1597 185.516 77.0084C187.61 76.8548 189.705 76.7108 191.8 76.5679C191.995 76.5546 192.196 76.5612 192.388 76.5942C192.493 76.612 192.61 76.6926 192.572 76.8408C192.553 76.9111 192.516 77.0152 192.465 77.0313C192.242 77.1017 192.013 77.1733 191.781 77.194C190.558 77.3036 189.335 77.4182 188.11 77.4933C185.54 77.6505 182.971 77.9198 180.395 77.6067C179.806 77.535 179.215 77.466 178.63 77.3631C176.042 76.9072 174.324 75.4841 173.857 72.3648C173.663 71.0626 173.764 69.7555 173.975 68.4584ZM124.528 36.9259C124.583 36.4542 124.652 35.9833 124.739 35.5163C124.902 34.6309 124.891 34.5978 125.679 34.1941C127.172 33.4292 128.705 33.3321 130.242 34.0815C131.067 34.4841 131.769 35.0685 132.462 35.6609C132.733 35.892 132.995 36.1437 133.297 36.3262C133.833 36.6507 134.439 36.4329 134.677 35.881C134.78 35.6447 134.78 35.4183 134.659 35.1976C134.583 35.0607 134.506 34.9122 134.392 34.8111C133.354 33.8911 132.308 32.989 131.061 32.3432C129.56 31.5667 128.019 31.5807 126.438 31.9815C126.175 32.048 125.917 32.1291 125.516 32.244C125.544 31.5197 125.785 31.0194 125.96 30.5027C127.247 26.706 128.845 23.0499 130.884 19.5925C131.244 18.9804 131.525 18.3265 131.978 17.7611C132.43 17.1958 132.943 16.8826 133.686 16.8659C134.635 16.8446 135.582 16.7339 136.531 16.6706C138.519 16.5381 140.49 16.764 142.459 16.9807C144.19 17.1715 145.92 17.3879 147.645 17.6332C154.754 18.6441 161.525 20.7432 167.953 23.9546C168.484 24.22 168.823 24.557 169.05 25.1049C169.906 27.1686 170.338 29.3388 170.762 31.5162C171.538 35.501 171.801 39.5252 171.753 43.5768C171.74 44.726 171.755 45.8755 171.741 47.0247C171.737 47.4408 171.667 47.4872 171.24 47.4933C171.16 47.4944 171.081 47.4902 171.002 47.4882C167.278 47.3974 163.553 47.3061 159.829 47.2157C158.958 47.1945 158.086 47.1796 157.214 47.156C156.43 47.1349 156.414 47.1344 156.282 46.4177C156.131 45.5935 155.867 44.8076 155.523 44.0495C153.732 40.1084 149.613 37.4022 144.952 37.8745C142.053 38.1683 139.7 39.5273 137.92 41.8509C137.776 42.0393 137.62 42.2257 137.514 42.4354C137.33 42.8004 137.062 42.8679 136.66 42.9086C135.164 43.0602 133.676 43.2885 132.187 43.5015C131.5 43.5998 131.497 43.6164 131.205 42.9989C130.797 42.1354 130.311 41.3231 129.691 40.5928C128.452 39.1309 126.915 38.1373 125.061 37.6355C124.496 37.4825 124.469 37.444 124.528 36.9259ZM147.263 42.522C147.124 42.713 146.967 42.8922 146.807 43.066C145.035 44.9823 143.262 46.8974 141.486 48.8098C141.353 48.9529 141.202 49.0827 141.046 49.1997C140.941 49.2784 140.819 49.2353 140.723 49.1576C140.623 49.0769 140.574 48.9595 140.64 48.8468C140.739 48.6783 140.85 48.5115 140.982 48.3684C142.86 46.3347 144.741 44.3042 146.626 42.2768C146.731 42.164 146.865 42.0723 147 41.9958C147.054 41.9652 147.159 41.9808 147.218 42.0153C147.278 42.051 147.311 42.1351 147.374 42.2242C147.342 42.313 147.327 42.4349 147.263 42.522ZM148.151 45.9491C148.252 45.8456 148.411 45.7712 148.554 45.7481C148.636 45.7348 148.739 45.8524 148.8 45.8909C148.879 46.1121 148.786 46.2497 148.682 46.3639C148.337 46.7445 147.983 47.1167 147.627 47.4872C147.107 48.029 146.584 48.5683 146.058 49.104C145.948 49.2156 145.823 49.3131 145.696 49.406C145.592 49.4824 145.457 49.4846 145.379 49.3914C145.313 49.3117 145.256 49.1697 145.282 49.0805C145.323 48.9372 145.418 48.797 145.523 48.6863C146.393 47.7683 147.267 46.8542 148.151 45.9491ZM144.586 53.8021C145.71 52.5761 146.844 51.359 147.975 50.1397C149.026 49.0073 150.075 47.8744 151.131 46.7469C151.317 46.5479 151.474 46.3099 151.757 46.2175C151.883 46.1762 152.127 46.3117 152.117 46.4344C152.15 46.6118 152.045 46.7369 151.942 46.8527C151.574 47.2673 151.203 47.6796 150.826 48.0852C148.99 50.0558 147.152 52.0238 145.315 53.9931C145.234 54.08 145.16 54.1746 145.075 54.2566C144.883 54.4412 144.726 54.7143 144.388 54.5906C144.171 54.5113 144.237 54.1827 144.586 53.8021ZM123.867 53.7041C124.453 52.9066 125.039 52.1094 125.627 51.3139C126.403 50.2637 127.179 49.2134 127.961 48.1674C128.101 47.9808 128.213 47.7653 128.444 47.6582C128.561 47.6039 128.822 47.7005 128.839 47.8984C128.83 47.9371 128.827 48.062 128.773 48.1563C128.654 48.3609 128.513 48.5539 128.373 48.7447C127.104 50.4644 125.835 52.1841 124.561 53.8995C124.399 54.1177 124.27 54.3823 123.981 54.4697C123.916 54.4893 123.818 54.4717 123.763 54.432C123.708 54.3914 123.668 54.3063 123.655 54.2344C123.615 54.0177 123.751 53.8622 123.867 53.7041ZM122.941 50.212C122.846 50.3389 122.718 50.438 122.497 50.3636C122.452 50.2979 122.368 50.2116 122.333 50.1087C122.312 50.0488 122.35 49.9493 122.393 49.8897C123.128 48.8599 123.868 47.8327 124.612 46.8089C124.653 46.7521 124.739 46.7131 124.811 46.6977C124.883 46.6823 124.994 46.6785 125.034 46.7207C125.108 46.7997 125.208 46.9373 125.183 47.0123C125.03 47.4703 124.693 47.8191 124.416 48.2023C123.928 48.8755 123.437 49.5457 122.941 50.212ZM117.759 70.4234C117.507 70.49 117.388 70.3079 117.34 70.1187C117.215 69.6235 117.082 69.1251 117.023 68.6197C116.9 67.564 116.689 66.5159 116.717 65.4452C116.694 64.9752 116.606 64.5031 116.715 64.0338C116.753 63.87 116.856 63.754 117.038 63.7593C117.233 63.765 117.295 63.8984 117.283 64.069C117.232 64.7817 117.343 65.4828 117.409 66.1888C117.516 67.3271 117.655 68.459 117.897 69.5773C117.93 69.7306 117.952 69.8896 117.951 70.0459C117.95 70.1953 117.949 70.3731 117.759 70.4234ZM118.063 49.4095C117.944 49.5671 117.826 49.7251 117.695 49.8728C117.563 50.0238 117.402 50.158 117.193 50.0241C116.977 49.8865 117.028 49.6987 117.146 49.5174C117.189 49.4515 117.233 49.3855 117.28 49.3225C119.176 46.8002 121.071 44.2772 122.971 41.7585C123.087 41.6048 123.244 41.48 123.391 41.3519C123.482 41.2722 123.756 41.3832 123.792 41.5754C123.784 41.6155 123.787 41.741 123.733 41.8314C123.611 42.0329 123.462 42.2186 123.32 42.4076C121.568 44.7421 119.816 47.076 118.063 49.4095ZM160.893 113.936C160.827 113.975 160.747 113.994 160.67 114.007C158.73 114.323 156.897 112.781 156.924 110.84C156.941 110.664 156.914 110.455 157.068 110.303C157.116 110.255 157.205 110.217 157.27 110.224C157.336 110.232 157.434 110.292 157.447 110.347C157.484 110.497 157.489 110.656 157.499 110.812C157.613 112.562 158.86 113.223 160.118 113.335C160.35 113.355 160.588 113.319 160.823 113.316C160.998 113.314 161.137 113.392 161.147 113.576C161.156 113.745 161.03 113.856 160.893 113.936ZM161.938 112.363C162.051 112.408 162.123 112.494 162.095 112.666C162.023 112.704 161.931 112.788 161.835 112.794C161.677 112.805 161.568 112.599 161.644 112.463C161.71 112.346 161.82 112.316 161.938 112.363ZM165.906 101.413C165.771 101.49 165.623 101.567 165.472 101.588C164.805 101.681 164.138 101.781 163.467 101.829C160.819 102.018 158.17 102.181 155.522 102.368C153.981 102.477 152.441 102.612 151.459 102.691C149.473 102.825 148.05 102.815 146.633 102.577C146.005 102.472 145.392 102.31 144.822 102.028C144.091 101.667 143.67 101.063 143.625 100.244C143.599 99.7726 143.638 99.2958 143.675 98.8235C143.682 98.7388 143.81 98.6148 143.9 98.5953C144.089 98.5545 144.182 98.7083 144.204 98.87C144.225 99.0242 144.203 99.1842 144.201 99.3417C144.199 99.5396 144.184 99.7388 144.199 99.9355C144.263 100.768 144.659 101.346 145.482 101.602C146.357 101.874 147.251 102.051 148.165 102.073C149.154 102.097 150.148 102.108 151.135 102.043C153.586 101.88 156.033 101.665 158.483 101.482C159.984 101.37 161.487 101.285 162.989 101.173C163.659 101.123 164.327 101.031 164.997 100.971C165.271 100.947 165.548 100.943 165.822 100.957C165.95 100.964 166.011 101.095 166.009 101.215C166.007 101.284 165.962 101.381 165.906 101.413ZM169.415 101.114C169.253 101.131 169.133 101.046 169.13 100.856C169.128 100.715 169.236 100.686 169.315 100.655C169.468 100.611 169.584 100.691 169.605 100.782C169.638 100.921 169.6 101.095 169.415 101.114ZM176.629 84.2827C176.325 85.9982 176.01 87.712 175.725 89.4308C175.459 91.0357 175.298 92.6527 175.314 94.2823C175.318 94.7503 175.273 94.9024 174.728 94.9244C170.53 95.0941 166.327 95.2096 162.136 95.4945C157.864 95.785 153.589 95.9902 149.312 96.1752C148.049 96.2299 146.791 96.4355 145.532 96.5799C144.434 96.7057 144.422 96.6939 144.365 95.5717C144.309 94.4929 144.417 93.4291 144.705 92.3932C145.13 90.8695 145.466 89.3191 146.048 87.8411C146.284 87.2423 146.406 86.6238 146.266 85.98C146.179 85.5778 145.883 85.3595 145.484 85.4448C145.099 85.5273 144.727 85.6711 144.345 85.7744C142.857 86.1777 141.367 86.5772 139.877 86.9736C139.686 87.0244 139.49 87.0724 139.294 87.0817C137.393 87.1717 135.493 87.2583 133.606 86.8874C132.511 86.6722 131.455 86.3466 130.479 85.803C129.823 85.4373 129.175 85.0524 128.547 84.6393C126.193 83.0902 124.499 81.0092 123.46 78.3773C122.568 76.1181 121.977 73.7818 121.553 71.4006C120.982 68.1951 120.693 64.9605 120.627 61.7051C120.606 60.6353 120.704 59.5769 120.806 58.4437C121.204 58.4745 121.544 58.5115 121.884 58.5241C122.241 58.5373 122.599 58.5481 122.954 58.521C123.308 58.494 123.659 58.4212 124.01 58.3641C124.351 58.3087 124.69 58.2478 125.038 58.1878C125.054 58.5438 124.817 58.7301 124.703 58.972C124.103 60.2533 124.146 61.4996 124.892 62.71C125.468 63.6432 126.228 64.3752 127.236 64.8311C127.453 64.9289 127.662 65.0431 127.884 65.1256C128.803 65.4669 129.366 66.1521 129.74 67.0229C129.849 67.2762 129.926 67.5469 130.062 67.784C130.251 68.1144 130.643 68.277 130.967 68.2088C131.363 68.1252 131.671 67.7966 131.721 67.3904C131.76 67.068 131.687 66.764 131.57 66.4623C131.066 65.1558 130.267 64.1147 128.965 63.5154C128.642 63.3664 128.315 63.2242 127.994 63.0715C127.366 62.7732 126.895 62.3023 126.534 61.7159C126.066 60.9552 126.106 60.2051 126.638 59.5017C126.924 59.1237 127.261 58.7845 127.584 58.4358C129.022 56.8829 130.26 55.1902 131.044 53.2128C131.962 50.8987 132.425 48.5079 132.048 46.0067C132.031 45.8891 132.016 45.771 132.004 45.6527C131.98 45.4223 132.067 45.2766 132.313 45.2509C132.944 45.1848 133.574 45.1021 134.206 45.0536C134.867 45.0028 135.531 44.9357 136.25 44.9694C136.146 45.6218 136.051 46.1975 135.964 46.7744C135.308 51.1428 137.869 56.6399 143.509 58.2828C149.622 60.0637 155.322 56.038 156.303 50.3701C156.371 49.9802 156.447 49.5919 156.519 49.202C156.712 49.0025 156.96 49.0712 157.186 49.0767C161.704 49.1864 166.223 49.301 170.741 49.4155C170.939 49.4205 171.139 49.4181 171.333 49.4493C171.556 49.4851 171.667 49.6339 171.648 49.8668C171.645 49.9063 171.643 49.946 171.64 49.9854C171.401 52.8289 171.33 55.6859 170.975 58.5196C170.215 64.5777 169.227 70.5918 167.405 76.4384C167.24 76.9669 167.028 77.4802 166.845 78.0031C166.727 78.339 166.579 78.6726 166.522 79.0199C166.396 79.787 166.521 80.4255 167.117 81.0712C168.003 82.031 169.058 82.5535 170.275 82.8254C171.979 83.2062 173.713 83.389 175.45 83.5433C175.841 83.578 176.246 83.5213 176.607 83.6989C176.729 83.8973 176.664 84.0888 176.629 84.2827ZM175.761 203.602C175.454 203.804 175.14 203.689 174.853 203.625C172.214 203.038 169.541 202.771 166.841 202.747C165.653 202.736 164.465 202.709 163.277 202.729C160.688 202.775 158.147 203.201 155.678 203.95C151.551 205.203 147.403 205.145 143.223 204.342C140.114 203.745 137.006 203.148 133.902 202.529C130.256 201.803 126.59 201.17 123.012 200.134C120.983 199.546 118.888 199.379 116.798 199.194C116.243 199.145 115.698 199.071 115.162 198.922C114.972 198.868 114.801 198.791 114.702 198.556C115.401 198.048 116.16 197.635 116.952 197.275C119.161 196.271 121.494 195.674 123.845 195.117C125.7 194.679 127.593 194.505 129.465 194.186C132.389 193.688 135.34 193.319 138.202 192.505C140.103 191.964 141.995 191.387 143.875 190.78C146.214 190.024 148.603 189.484 151.013 189.022C154.117 188.426 157.082 188.707 159.839 190.371C160.38 190.698 160.93 191.012 161.473 191.337C162.22 191.784 162.959 192.245 163.71 192.686C165.681 193.843 167.808 194.344 170.087 194.141C171.861 193.982 173.633 193.794 175.506 193.609C175.74 195.142 175.82 196.642 175.696 198.142C175.555 199.847 175.513 201.543 175.759 203.24C175.775 203.352 175.761 203.469 175.761 203.602ZM176.546 189.688C176.454 189.907 176.373 190.131 176.278 190.348C175.691 191.681 176.001 191.515 174.398 191.771C172.914 192.009 171.405 192.095 169.906 192.23C168.076 192.394 166.361 192.007 164.775 191.081C163.921 190.582 163.077 190.064 162.234 189.547C160.779 188.656 159.292 187.825 157.651 187.33C155.962 186.821 154.233 186.684 152.477 186.9C149.522 187.262 146.633 187.92 143.789 188.792C141.71 189.43 139.635 190.083 137.545 190.684C135.948 191.143 134.313 191.457 132.673 191.731C132.4 191.777 132.121 191.789 131.847 191.829C131.534 191.874 131.306 191.787 131.193 191.469C130.996 190.91 130.73 190.367 130.603 189.793C130.118 187.591 129.626 185.387 129.238 183.166C129.034 182.001 129.038 180.799 128.964 179.818C129.057 177.752 129.111 175.891 129.612 174.077C129.708 173.731 129.846 173.551 130.215 173.463C133.95 172.575 137.7 171.766 141.475 171.064C143.895 170.615 146.338 170.404 148.777 170.128C150.625 169.919 152.459 169.587 154.3 169.316C156.416 169.003 158.534 168.701 160.672 168.588C161.107 168.565 161.545 168.558 161.979 168.584C164.036 168.71 166.095 168.807 168.146 168.996C170.236 169.189 172.322 169.44 174.4 169.735C176.751 170.069 179.1 170.431 181.434 170.869C184.313 171.409 187.166 172.073 189.877 173.225C190.496 173.489 191.11 173.764 191.714 174.059C193.525 174.947 195.327 175.855 197.14 176.741C198.919 177.611 200.752 178.347 202.638 178.954C203.813 179.332 204.908 179.867 205.903 180.613C206.903 181.364 207.48 182.345 207.753 183.558C207.982 184.577 207.637 185.368 206.881 185.979C206.071 186.633 205.153 187.078 204.074 187.135C202.642 187.21 201.222 187.081 199.804 186.924C196.891 186.602 193.987 186.177 191.068 185.935C188.067 185.686 185.053 185.622 182.053 186.073C180.698 186.277 179.45 186.724 178.323 187.509C177.521 188.068 176.923 188.786 176.546 189.688Z" fill="black"/>
<path d="M138.125 73.4232C137.775 73.1098 137.369 72.8448 136.955 72.6208C135.852 72.0244 134.655 71.8018 133.407 71.8088C133.012 71.8357 132.613 71.8335 132.223 71.8949C130.907 72.1025 129.698 72.5588 128.75 73.5402C127.467 74.8692 127.418 76.6246 128.607 78.0422C129.153 78.6937 129.844 79.1482 130.618 79.4742C132.201 80.141 133.844 80.2345 135.507 79.8854C136.403 79.6975 137.238 79.3328 137.964 78.7532C139.799 77.2886 139.878 74.9954 138.125 73.4232ZM137.087 77.6966C136.651 77.9856 136.156 78.0921 135.623 78.1224C135.401 78.1033 135.163 78.0722 135.094 77.7846C135.034 77.5341 135.112 77.3177 135.314 77.1611C135.815 76.7733 136.369 76.6813 136.974 76.8741C137.141 76.9272 137.252 77.0443 137.294 77.1902C137.354 77.3947 137.259 77.5825 137.087 77.6966ZM197.659 104.91C201.038 104.847 204.386 105.187 207.731 105.62C212.964 106.297 218.112 107.39 223.197 108.772C225.722 109.459 228.161 110.399 230.483 111.617C232.376 112.609 234.288 113.569 236.103 114.704C240.884 117.692 244.8 121.556 247.868 126.286C248.949 127.953 249.879 129.695 250.599 131.548C251.044 132.691 251.53 133.82 251.94 134.976C253.001 137.967 253.79 141.03 254.297 144.165C254.557 145.768 254.852 147.365 255.102 148.969C255.225 149.751 255.298 150.542 255.358 151.332C255.379 151.6 255.329 151.889 255.245 152.146C255.122 152.523 254.802 152.697 254.423 152.729C254.048 152.761 253.648 152.456 253.533 152.071C253.488 151.921 253.466 151.761 253.454 151.604C253.281 149.228 252.791 146.9 252.423 144.553C251.993 141.805 251.285 139.128 250.447 136.487C249.789 134.411 248.97 132.385 248.016 130.43C246.422 127.165 244.295 124.267 241.743 121.674C238.909 118.794 235.668 116.499 232.098 114.614C229.255 113.114 226.382 111.714 223.295 110.789C220.943 110.084 218.544 109.563 216.151 109.026C212.282 108.156 208.364 107.57 204.424 107.146C200.472 106.721 196.511 106.716 192.549 107.027C191.443 107.113 190.337 107.203 189.233 107.312C188.749 107.36 188.7 107.421 188.718 107.917C188.763 109.107 188.812 110.298 188.622 111.478C188.29 113.55 188.026 115.649 187.292 117.622C185.381 122.757 181.925 126.424 176.765 128.403C176.47 128.516 176.158 128.587 175.85 128.659C175.518 128.736 175.218 128.614 174.955 128.429C174.445 128.071 174.467 127.389 174.98 127.024C175.215 126.857 175.483 126.787 175.756 126.748C176.072 126.702 176.378 126.642 176.667 126.498C179.291 125.191 181.584 123.512 183.325 121.084C184.889 118.904 185.83 116.52 186.248 113.896C186.354 113.231 186.531 112.578 186.635 111.914C186.808 110.815 186.87 109.707 186.807 108.594C186.783 108.159 186.764 107.721 186.781 107.286C186.821 106.33 187.143 105.902 188.081 105.721C189.207 105.502 190.346 105.342 191.484 105.195C193.534 104.929 195.599 104.953 197.659 104.91Z" fill="black"/>
<path d="M133.791 14.9314C133.766 14.6479 133.984 14.509 134.136 14.3408C136.982 11.1856 140.255 8.59561 144.133 6.80767C147.234 5.37763 150.397 4.13067 153.771 3.49013C155.409 3.17935 157.052 2.92276 158.72 2.88449C161.177 2.82811 163.634 2.77958 166.082 3.1065C168.206 3.39013 170.293 3.84759 172.374 4.34375C175.82 5.16531 179.119 6.36319 182.258 8.023C184.988 9.46668 187.353 11.3664 189.515 13.5448C189.655 13.6855 189.779 13.841 189.922 13.9781C192.705 16.6492 194.507 19.9128 195.742 23.5302C196.832 26.7253 197.599 29.9956 198.156 33.3228C198.542 35.6309 198.746 37.959 199.026 40.2788C199.055 40.5129 199.05 40.7509 199.061 40.9743C198.79 41.1222 198.68 40.92 198.56 40.7877C197.647 39.7792 196.582 38.9654 195.414 38.2729C194.187 37.545 192.989 36.7675 191.751 36.0587C187.723 33.7519 183.912 31.1038 180.007 28.6031C174.756 25.2401 169.298 22.2737 163.516 19.9185C159.318 18.2081 154.978 17.0044 150.518 16.2014C147.434 15.6462 144.329 15.2902 141.215 14.9648C139.791 14.816 138.372 14.7351 136.944 14.7655C136.151 14.7824 135.359 14.7976 134.576 14.9535C134.323 15.0036 134.046 15.1047 133.791 14.9314Z" fill="#D42488"/>
<path d="M146.931 34.1523C145.793 34.2187 144.669 34.4004 143.71 35.1352C143.554 35.2546 143.389 35.3737 143.21 35.4495C142.816 35.616 142.392 35.4802 142.16 35.1426C141.945 34.8294 141.953 34.479 142.212 34.1555C142.334 34.0034 142.484 33.8675 142.641 33.7512C144.539 32.3444 146.628 31.881 148.922 32.5315C150.314 32.926 151.532 33.6577 152.656 34.5528C152.998 34.8252 153.308 35.1305 153.478 35.5509C153.657 35.994 153.539 36.4241 153.151 36.6976C152.796 36.9466 152.426 36.937 152.059 36.6394C151.875 36.4911 151.736 36.2881 151.553 36.1392C150.208 35.0451 148.746 34.2156 146.931 34.1523Z" fill="#020202"/>
<path d="M190.534 21.4481C190.528 21.8518 190.322 22.1138 189.959 22.2654C189.615 22.4088 189.33 22.2693 189.097 22.0415C188.93 21.8787 188.799 21.6712 188.68 21.4676C187.891 20.1193 186.855 18.9782 185.698 17.946C183.808 16.259 181.898 14.5937 179.997 12.9184C178.743 11.8132 177.405 10.8363 175.848 10.1909C175.632 10.1016 175.424 9.97272 175.245 9.82289C174.983 9.60338 174.918 9.13764 175.094 8.83962C175.267 8.54497 175.544 8.37213 175.883 8.41139C176.153 8.44279 176.42 8.54453 176.676 8.6466C178.081 9.20743 179.4 9.92278 180.566 10.8962C181.417 11.6068 182.264 12.3229 183.095 13.0565C184.49 14.2877 185.874 15.5315 187.257 16.7764C188.173 17.6005 188.987 18.5185 189.7 19.522C189.951 19.8747 190.147 20.2668 190.36 20.6453C190.5 20.8929 190.54 21.1668 190.534 21.4481ZM178.487 22.0832C178.554 22.1043 178.726 22.1185 178.848 22.2046C180.066 23.0646 181.496 23.4443 182.856 23.9737C184.517 24.62 186.183 25.2498 187.807 25.9883C189.964 26.9699 191.79 28.4165 193.486 30.0417C193.74 30.2854 193.943 30.5867 194.15 30.875C194.341 31.1412 194.407 31.4513 194.373 31.778C194.316 32.3336 193.739 32.6587 193.23 32.4322C192.967 32.3153 192.778 32.1165 192.591 31.9108C190.554 29.6668 188.091 28.0586 185.274 26.9657C183.613 26.3215 181.959 25.656 180.315 24.9693C179.586 24.6647 178.864 24.3335 178.205 23.8844C177.821 23.6225 177.573 23.2885 177.604 22.7992C177.63 22.384 177.983 22.0647 178.487 22.0832ZM168.026 12.3299C168.57 12.3365 169.077 12.4216 169.55 12.6379C170.232 12.9497 170.919 13.2543 171.58 13.6077C173.047 14.3926 174.563 15.0432 176.154 15.5461C178.506 16.2901 180.628 17.5238 182.718 18.807C182.917 18.9292 183.105 19.0892 183.255 19.2676C183.5 19.5586 183.579 19.8956 183.385 20.2564C183.189 20.6214 182.794 20.8219 182.384 20.685C182.013 20.5612 181.661 20.3713 181.315 20.1829C180.379 19.672 179.457 19.1353 178.518 18.6296C177.472 18.0665 176.38 17.6083 175.243 17.2602C173.573 16.7491 171.985 16.0577 170.494 15.1421C170.057 14.8738 169.597 14.6418 169.138 14.4106C168.714 14.1963 168.272 14.0601 167.783 14.0292C167.163 13.9899 166.829 13.6458 166.842 13.1854C166.855 12.721 167.231 12.3936 167.814 12.3407C167.892 12.3336 167.972 12.3326 168.026 12.3299ZM159.8 10.4532C158.481 10.1641 157.164 10.5093 155.864 10.8405C154.583 11.1666 153.295 11.3084 151.981 11.298C150.754 11.2882 149.529 11.398 148.3 11.2475C147.037 11.0929 145.797 10.8556 144.575 10.5097C144.348 10.4453 144.12 10.3655 143.911 10.2574C143.505 10.0479 143.329 9.64864 143.445 9.27242C143.575 8.85477 144.01 8.58368 144.48 8.69087C145.175 8.84943 145.868 9.00591 146.572 9.12826C147.358 9.2649 148.145 9.33807 148.937 9.35017C150.324 9.37144 151.711 9.35454 153.099 9.35247C153.9 9.35127 154.663 9.12455 155.439 8.96709C156.331 8.78596 157.225 8.60854 158.123 8.45762C158.714 8.35817 159.31 8.38402 159.889 8.56187C160.115 8.63112 160.341 8.71137 160.548 8.82184C160.894 9.00624 161.065 9.3035 161.013 9.70501C160.963 10.099 160.641 10.397 160.205 10.451C160.088 10.4655 159.968 10.4532 159.8 10.4532ZM173.756 21.2065C173.047 21.1895 172.437 21.01 171.836 20.8149C168.778 19.8231 165.813 18.6162 163.052 16.9503C161.933 16.2756 160.838 15.5583 159.596 15.1165C159.251 14.9939 158.966 14.7983 158.81 14.4403C158.689 14.1603 158.702 13.9051 158.863 13.6512C159.059 13.3442 159.355 13.2641 159.688 13.309C159.841 13.3296 159.985 13.4122 160.135 13.462C161.38 13.8772 162.558 14.4395 163.679 15.1151C166.133 16.5923 168.747 17.716 171.438 18.6749C172.184 18.941 172.941 19.1686 173.722 19.3103C173.954 19.3523 174.189 19.4099 174.405 19.501C174.817 19.6745 175.047 20.0698 174.984 20.4351C174.919 20.8166 174.598 21.1136 174.163 21.1804C174.007 21.2041 173.847 21.2012 173.756 21.2065ZM172.442 12.0008C172.074 11.9929 171.747 11.8528 171.427 11.692C170.684 11.3184 169.942 10.9417 169.198 10.5689C166.637 9.28453 163.943 8.36646 161.168 7.67368C160.823 7.58764 160.472 7.50433 160.147 7.36661C159.725 7.18799 159.524 6.7783 159.62 6.41048C159.73 5.98902 160.151 5.68903 160.627 5.77714C161.561 5.95019 162.488 6.15935 163.414 6.36904C165.905 6.93282 168.228 7.93605 170.499 9.07614C171.101 9.37831 171.705 9.67655 172.298 9.99682C172.574 10.1463 172.845 10.3204 173.081 10.5261C173.377 10.7845 173.448 11.1815 173.312 11.5012C173.175 11.8221 172.842 12.0135 172.442 12.0008Z" fill="#010001"/>
<path d="M196.919 29.8661C196.917 29.8776 196.914 29.9992 196.878 30.1106C196.776 30.4306 196.586 30.6741 196.234 30.7366C195.898 30.7963 195.585 30.7262 195.391 30.4329C195.219 30.1713 195.09 29.8788 194.962 29.5907C194.32 28.1398 193.621 26.7194 192.737 25.3963C192.628 25.2329 192.519 25.0609 192.455 24.8771C192.344 24.5535 192.405 24.2506 192.666 24.0086C192.927 23.767 193.353 23.7189 193.654 23.9336C193.844 24.0689 194.017 24.2428 194.156 24.4303C195.174 25.8041 196.027 27.2756 196.717 28.8406C196.845 29.1322 196.947 29.4327 196.919 29.8661Z" fill="#020001"/>
<path d="M146.005 39.7794C144.288 39.7719 142.725 40.2643 141.313 41.2348C138.528 43.1477 137.049 46.9006 138.161 50.6167C139.366 54.6466 143.56 57.6372 148.181 56.6196C151.365 55.9183 154.14 53.3449 154.53 49.3264C155.025 44.2319 151.046 39.809 146.005 39.7794ZM148.554 45.7479C148.635 45.7346 148.738 45.8522 148.8 45.8907C148.878 46.1119 148.785 46.2496 148.682 46.3637C148.337 46.7443 147.982 47.1165 147.626 47.487C147.106 48.0288 146.584 48.5681 146.057 49.1039C145.948 49.2154 145.822 49.3129 145.696 49.4058C145.592 49.4823 145.456 49.4844 145.379 49.3912C145.313 49.3115 145.255 49.1695 145.281 49.0803C145.323 48.937 145.418 48.7968 145.522 48.6861C146.392 47.7683 147.267 46.8541 148.15 45.949C148.251 45.8455 148.411 45.7712 148.554 45.7479ZM141.045 49.1995C140.94 49.2782 140.819 49.2352 140.723 49.1574C140.623 49.0767 140.573 48.9593 140.64 48.8466C140.739 48.6781 140.849 48.5113 140.981 48.3682C142.859 46.3345 144.741 44.304 146.625 42.2766C146.73 42.1638 146.864 42.0721 146.999 41.9956C147.053 41.965 147.158 41.9806 147.217 42.0152C147.278 42.0508 147.31 42.1349 147.373 42.224C147.342 42.3128 147.326 42.4348 147.263 42.5218C147.124 42.7128 146.967 42.892 146.806 43.0658C145.034 44.9821 143.261 46.8972 141.485 48.8097C141.352 48.9526 141.202 49.0825 141.045 49.1995ZM151.942 46.8525C151.574 47.2671 151.203 47.6794 150.825 48.085C148.989 50.0556 147.151 52.0236 145.314 53.9929C145.233 54.0798 145.16 54.1744 145.074 54.2564C144.882 54.4411 144.726 54.7141 144.387 54.5905C144.17 54.5112 144.237 54.1825 144.586 53.802C145.71 52.576 146.844 51.359 147.975 50.1396C149.025 49.0072 150.075 47.8744 151.13 46.7468C151.317 46.5478 151.474 46.3099 151.756 46.2174C151.882 46.1762 152.126 46.3116 152.116 46.4343C152.15 46.6116 152.045 46.7367 151.942 46.8525ZM128.65 42.429C126.206 38.8498 121.545 38.2962 118.292 41.1489C116.134 43.0413 115.213 45.4915 115.102 48.2813C115.169 50.2008 115.622 51.9744 116.727 53.5512C119.251 57.1529 123.916 57.6878 127.183 54.7496C128.325 53.7227 129.159 52.4891 129.66 51.0396C130.708 48.0095 130.474 45.1009 128.65 42.429ZM117.695 49.8726C117.562 50.0236 117.402 50.1578 117.192 50.0239C116.977 49.8863 117.027 49.6985 117.145 49.5173C117.189 49.4513 117.232 49.3853 117.279 49.3223C119.175 46.8 121.07 44.277 122.971 41.7583C123.087 41.6046 123.244 41.4798 123.39 41.3517C123.482 41.272 123.755 41.383 123.792 41.5753C123.783 41.6153 123.787 41.7408 123.732 41.8312C123.61 42.0327 123.462 42.2184 123.32 42.4074C121.568 44.7418 119.816 47.0758 118.063 49.4092C117.944 49.5669 117.825 49.7249 117.695 49.8726ZM122.496 50.3636C122.452 50.2978 122.368 50.2116 122.332 50.1086C122.312 50.0488 122.35 49.9492 122.392 49.8897C123.128 48.8598 123.867 47.8326 124.611 46.8089C124.653 46.752 124.739 46.713 124.811 46.6976C124.883 46.6823 124.994 46.6784 125.033 46.7206C125.107 46.7996 125.207 46.9372 125.182 47.0122C125.029 47.4702 124.693 47.8191 124.415 48.2023C123.928 48.8753 123.437 49.5455 122.94 50.2118C122.845 50.3388 122.718 50.4379 122.496 50.3636ZM128.772 48.1561C128.653 48.3607 128.513 48.5537 128.372 48.7446C127.104 50.4642 125.835 52.1839 124.561 53.8993C124.398 54.1175 124.269 54.3821 123.981 54.4695C123.916 54.4892 123.817 54.4715 123.763 54.4318C123.707 54.3912 123.668 54.3061 123.655 54.2342C123.614 54.0174 123.751 53.8619 123.867 53.7039C124.452 52.9065 125.038 52.1092 125.626 51.3137C126.402 50.2635 127.179 49.2132 127.961 48.1673C128.1 47.9806 128.212 47.7651 128.443 47.658C128.56 47.6037 128.821 47.7003 128.838 47.8982C128.829 47.9369 128.827 48.0618 128.772 48.1561ZM162.58 109.325C161.041 108.172 159.327 107.925 157.56 108.782C155.309 109.875 155.251 112.362 156.66 113.834C157.617 114.833 158.799 115.288 160.408 115.257C160.529 115.243 160.894 115.246 161.233 115.156C162.578 114.8 163.619 114.078 163.936 112.635C164.242 111.239 163.653 110.13 162.58 109.325ZM160.893 113.936C160.827 113.975 160.746 113.994 160.669 114.007C158.73 114.323 156.897 112.781 156.924 110.84C156.94 110.664 156.913 110.455 157.067 110.303C157.116 110.255 157.205 110.216 157.27 110.224C157.335 110.232 157.433 110.292 157.447 110.347C157.484 110.497 157.488 110.656 157.498 110.812C157.612 112.562 158.86 113.223 160.117 113.334C160.35 113.355 160.587 113.318 160.823 113.315C160.998 113.313 161.137 113.392 161.146 113.576C161.156 113.745 161.029 113.856 160.893 113.936ZM162.095 112.666C162.022 112.704 161.931 112.788 161.835 112.794C161.677 112.804 161.568 112.599 161.644 112.463C161.709 112.346 161.82 112.316 161.938 112.363C162.05 112.408 162.123 112.494 162.095 112.666Z" fill="#D42488"/>
</g>
<defs>
<clipPath id="clip0_32_4">
<rect width="300" height="220.051" fill="white" transform="translate(0 0.597656)"/>
</clipPath>
</defs>
</svg>
