<svg fill="none" height="221" viewBox="0 0 300 221" width="300" xmlns="http://www.w3.org/2000/svg" xmlns:xlink="http://www.w3.org/1999/xlink"><clipPath id="a"><path d="m0 .597656h300v220.051h-300z"/></clipPath><g clip-path="url(#a)"><path d="m298.977 202.516c-.275-.183-.585-.225-.907-.239-.831-.038-1.663-.081-2.494-.126-3.286-.178-6.57-.411-9.864-.301-.952.032-1.904.036-2.854.084-.616.031-1.162-.092-1.633-.5 0-.143-.015-.263.002-.378.293-2.025.185-4.029-.269-6.023-.334-1.466-.673-2.934-.944-4.413-.551-3.005-1.359-5.942-2.26-8.855-.528-1.708-1.379-3.284-2.076-4.922-1.479-3.47-3.29-6.764-5.216-9.999-1.647-2.766-3.485-5.388-5.779-7.672-1.242-1.237-2.612-2.308-4.042-3.311-.328-.23-.682-.408-1.091-.428-.474-.024-.904.265-1.012.666-.109.403.029.752.424 1.01.331.216.687.394 1.01.62 2.763 1.93 5.04 4.339 6.934 7.114 1.027 1.505 1.973 3.063 2.888 4.64 1.691 2.917 3.126 5.955 4.543 9.011 1.359 2.932 2.307 5.977 3.039 9.104.397 1.696.77 3.397 1.153 5.096.638 2.827 1.264 5.655.768 8.584-.033.193-.02.395-.02.594-.003.637-.077 1.261-.265 1.876-.186.605-.322 1.225-.499 1.833-.321 1.109-.753 2.158-1.444 3.106-.608.834-1.292 1.605-1.911 2.427-1.618 2.147-3.767 3.596-6.139 4.764-.141.07-.285.139-.435.186-.83.263-1.664.512-2.493.779-.604.195-1.216.339-1.845.437-1.607.249-3.233.339-4.84.559-4.109.561-8.227.555-12.345.272-4.547-.313-9.087-.721-13.63-1.092-.71-.059-1.418-.152-2.129-.218-2.091-.196-4.182-.39-6.274-.58-3.197-.289-6.392-.615-9.594-.849-3.874-.284-7.759-.409-11.627-.778-1.933-.184-3.874-.3-5.791-.623-1.523-.256-3.048-.501-4.566-.787-2.964-.56-5.848-1.393-8.625-2.589-1.614-.694-3.09-1.607-4.442-2.723-1.431-1.182-2.312-2.714-2.66-4.517-.195-1.007-.306-2.046-.223-3.078.176-2.18.205-4.353-.099-6.525-.101-.719-.032-1.414.381-2.057.189-.295.293-.648.411-.984.303-.868.891-1.481 1.677-1.926.733-.414 1.515-.675 2.347-.798 3.002-.443 6.014-.383 9.018-.104 2.88.268 5.746.671 8.622.983 1.102.12 2.213.172 3.322.221 2.042.091 3.817-.581 5.306-1.973.261-.244.514-.33.848-.296.71.074 1.419.171 2.131.196 3.049.106 5.947.84 8.742 2.031.255.108.512.219.778.289.488.128.946-.058 1.128-.427.185-.376.065-.863-.352-1.143-.392-.262-.81-.507-1.249-.678-2.934-1.137-5.939-1.964-9.121-1.961-.356.001-.714-.009-1.07-.032-.495-.031-.549-.089-.568-.546-.004-.119.011-.239.002-.357-.152-2.084-.971-3.811-2.674-5.086-1.024-.766-2.132-1.364-3.333-1.793-.82-.293-1.652-.554-2.464-.866-2.776-1.066-5.419-2.423-8.064-3.768-1.841-.937-3.73-1.733-5.708-2.324-3.805-1.137-7.71-1.792-11.633-2.342-3.021-.424-6.049-.804-9.091-1.05-.667-.054-1.333-.126-1.976-.187-.052-.114-.108-.185-.113-.258-.044-.633-.09-1.266-.116-1.899-.268-6.501-.243-13.003-.057-19.505.079-2.774.188-5.547.28-8.32.025-.753.009-1.509.066-2.259.13-1.737.188-3.477.57-5.193.392-1.762 1.329-3.112 2.78-4.134.583-.41 1.171-.819 1.784-1.18 2.331-1.373 4.45-3.032 6.514-4.769 2.579-2.17 4.678-4.727 6.282-7.69.684-1.262 1.18-2.578 1.359-4.024.19-1.538.273-3.08.32-4.624.022-.747-.075-1.506-.189-2.248-.171-1.1141-.731-1.9933-1.732-2.5678-.828-.4758-1.691-.8658-2.619-1.0962-.7-.1734-1.341-.4715-1.956-.8417-.557-.3357-.833-.7751-.799-1.4626.081-1.6238.155-3.2457.413-4.8543.232-1.4471.45-2.8964.67-4.3454.065-.4311.108-.8656.178-1.2957.042-.2558.179-.4333.475-.4194.238.0111.476.0213.714.0233 3.013.0255 6.031.1059 9.038-.0916 3.128-.2054 6.259-.245 9.388-.3624 1.743-.0655 3.488-.0153 5.23.12.797.0619 1.557.2905 2.342.392 1.156.1494 1.902-.3153 2.285-1.4148.132-.3792.194-.7672.207-1.1657.056-1.6652.088-3.3282-.189-4.9824-.13-.7812-.205-1.5715-.315-2.3563-.335-2.3929-.582-4.7995-1.075-7.1683-.911-4.381-1.819-8.7628-2.752-13.1392-.52-2.4393-1.078-4.8683-1.918-7.2272-.384-1.0792-.586-2.2183-.689-3.3659-.301-3.3552-.594-6.7104-1.135-10.0396-.63-3.8809-1.553-7.685-2.95-11.3626-.933-2.4551-2.114-4.7863-3.807-6.8179-3.261-3.9125-7.045-7.16849-11.709-9.33351-2.738-1.27138-5.571-2.24048-8.496-2.98517-4.09-1.04129-8.218-1.7104-12.452-1.638101-2.462.041983-4.903.229001-7.324.716981-3.004.60576-5.856 1.64792-8.668 2.84308-3.915 1.66449-7.406 3.95874-10.386 6.98722-2.176 2.2109-4.081 4.6391-5.368 7.4984-.293.6497-.568 1.31-.908 1.9346-.872 1.6032-1.609 3.2676-2.303 4.9524-1.268 3.0817-2.388 6.2089-2.866 9.5293-.095.661-.205 1.3199-.309 1.9859-.43.0851-.815.1661-1.201.237-1.6.2933-3.017.9911-4.216 2.0666-3.026 2.7151-4.217 6.1436-3.778 10.1536.184 1.6749.782 3.217 1.728 4.6997-.339.2327-.631.4868-.878.795-2.255 2.8168-4.42 5.6996-6.422 8.7028-.77 1.1555-1.445 2.3645-2.021 3.63-.363.7989-.629 1.6262-.768 2.4897-.429 2.6577.825 4.8459 3.049 5.8553 1.055.4793 2.154.7913 3.299.9336 1.652.2051 3.307.3793 4.958.5847.99.1231 1.977.1283 2.965-.0016.587-.0772 1.175-.1465 1.801-.0811.266.6696.524 1.332.792 1.99.994 2.4387 2.506 4.4837 4.607 6.0881 1.137.8685 2.334 1.6384 3.618 2.2694 1.475.7253 3.051 1.1326 4.677 1.257 2.7.2064 5.39.1795 7.987-.7604.366-.1322.737-.2328 1.109-.1933.154.2783.05.5022-.016.7192-.163.5299-.346 1.0532-.513 1.5819-.586 1.8646-.981 3.7565-.818 5.7293.008.1034-.051.2123-.077.3095-.215.0733-.397.1544-.588.1974-.596.1339-.849.5439-.899 1.1072-.057.6317-.097 1.2651-.135 1.8983-.045.7587.049 1.5027.265 2.2317.438 1.479 1.188 2.072 2.721 2.213 1.19.11 2.377.025 3.566.028 3.61.006 7.212-.199 10.812-.45.703-.049 1.406-.093 2.157-.076.05.676-.068 1.247-.159 1.828-.156.992-.064.953-1.06 1.02-.469.032-.939.138-1.396.26-.616.164-1.182.452-1.703.821-2.379 1.686-2.877 4.779-1.149 7.131 1.537 2.094 4.443 3.071 7.008 2.371 1.099-.3 2.065-.821 2.817-1.679 1.115-1.271 1.557-2.728 1.154-4.409-.289-1.203-.939-2.169-1.865-2.966-.484-.417-1.024-.753-1.613-.992-.311-.126-.429-.296-.395-.621.091-.867.167-1.736.253-2.603.022-.23.164-.345.391-.358.119-.008.238-.017.356-.022 3.921-.178 7.843-.352 11.763-.534.911-.042 1.821-.105 2.731-.172.274-.02.553-.061.816-.138.617-.183 1.014-.577 1.149-1.232.089-.432.115-.864.106-1.3002-.03-1.3264-.065-1.3409 1.15-.7527.143.069.281.1469.424.215.906.4317 1.34 1.1299 1.418 2.1509.146 1.91-.032 3.797-.22 5.691-.121 1.212-.543 2.307-1.111 3.36-1.484 2.753-3.423 5.135-5.814 7.155-2.031 1.715-4.125 3.341-6.415 4.703-.681.404-1.34.849-1.979 1.317-1.725 1.265-2.856 2.921-3.343 5.03-.441 1.906-.558 3.842-.647 5.781-.115 2.534-.15 5.071-.251 7.607-.301 7.53-.346 15.063-.031 22.595.017.396.023.793.056 1.188.058.696-.112.706-.618.689-1.63-.056-3.245.118-4.858.323-.275.034-.552.082-.828.082-.299-.001-.602.22-.894.009-.031-.089-.076-.162-.08-.237-.173-3.167-.454-6.328-.387-9.505.035-1.665.009-3.331.021-4.996.013-1.904.019-3.807.061-5.71.099-4.52.127-9.04-.071-13.557-.04-.908-.141-1.824-.331-2.711-.681-3.191-2.279-5.786-5.034-7.632-1.352-.906-2.753-1.722-4.174-2.508-2.395-1.325-4.194-3.226-5.506-5.606-1.486-2.699-2.314-5.545-1.926-8.666.098-.786.116-1.581.176-2.372.037-.479.016-.956-.121-1.415-.237-.792-1.023-1.049-1.698-.556-.222.162-.405.377-.598.574-1.385 1.421-2.669 2.933-3.925 4.466-.904 1.102-1.808 2.208-2.534 3.444-.411.701-.659 1.448-.623 2.259.024.552.077 1.113.204 1.649.664 2.821 1.869 5.369 3.794 7.569 1.57 1.795 3.262 3.46 5.035 5.051 1.866 1.673 3.581 3.479 4.888 5.641.451.745.947 1.464 1.435 2.186.131.192.293.374.474.521.281.229.576.218.88.028.303-.19.444-.479.363-.807-.073-.301-.223-.59-.378-.862-.452-.791-.933-1.566-1.385-2.356-.593-1.037-1.292-1.995-2.097-2.877-.989-1.084-2.019-2.126-3.12-3.1-1.604-1.42-3.114-2.935-4.533-4.544-1.66-1.884-2.734-4.046-3.395-6.459-.398-1.453-.21-2.695.719-3.897 1.31-1.696 2.669-3.347 4.075-4.962.121-.139.228-.337.521-.23-.033.42-.05.854-.106 1.283-.173 1.313-.104 2.63.18 3.905 1.096 4.922 3.506 8.97 7.953 11.608.51.303 1.027.596 1.547.884 1.006.557 1.969 1.181 2.922 1.824 2.034 1.371 3.291 3.282 3.934 5.618.317 1.149.456 2.33.498 3.523.136 3.845.143 7.692.063 11.537-.1 4.798-.069 9.595-.09 14.393-.004 1.109.075 2.218.128 3.327.067 1.386.155 2.771.217 4.157.02.47-.029.525-.524.6-1.605.246-3.206.544-4.82.694-3.161.292-6.296.726-9.401 1.378-2.247.471-4.481 1.007-6.737 1.433-1.633.308-3.292.473-4.937.724-.978.149-1.947.35-2.924.509-2.267.37-4.538.719-6.805 1.092-2.11.347-4.22.694-6.323 1.084-.679.126-.87-.091-1.074-.621-.357-.923-.697-1.852-1.049-2.776-.183-.48-.365-.962-.572-1.433-.319-.724-.668-1.435-.99-2.158-1.076-2.417-2.529-4.57-4.465-6.386-1.69-1.585-3.6906-2.587-5.9333-3.088-2.9208-.654-5.8805-.812-8.866-.594-1.7014.125-3.3883.351-5.0788.568-2.5579.329-5.0609.93-7.5825 1.44-.1544.031-.3139.061-.4559.124-.3338.15-.5574.549-.508.865.0617.396.3998.697.8259.712.1969.007.3972-.006.5923-.034.7444-.109 1.4892-.217 2.2304-.345 2.4197-.419 4.8349-.857 7.2767-1.144 3.3214-.389 6.6257-.494 9.9514.036 3.0777.49 5.5748 1.869 7.5798 4.258 1.897 2.259 2.937 4.958 4.105 7.597.4.903.712 1.845 1.05 2.774.074.203.279.388.129.662-.411.243-.905.214-1.363.318-1.582.36-3.109.942-4.722 1.179-.189.028-.382.116-.546.219-.496.314-.443 1.115.081 1.382.218.11.445.156.69.115.547-.093 1.098-.164 1.641-.273 1.823-.367 3.619-.863 5.462-1.147 1.917-.296 3.827-.645 5.733-1.006 3.503-.665 7.03-1.181 10.554-1.718.616-.093 1.252-.127 1.95-.021-.373 1.349-.466 2.684-.554 4.023-.159 2.389.017 4.753.492 7.094.48 2.366.946 4.738 1.863 6.988.013.03-.003.072-.01.148-.495.087-.997.209-1.507.259-2.89.286-5.7.964-8.471 1.789-1.937.576-3.815 1.327-5.516 2.45-.329.217-.67.437-.941.717-.714.738-.714 1.554-.04 2.338.344.399.779.663 1.271.848.711.268 1.447.383 2.2.466 1.138.126 2.295.104 3.409.418.15.235.389.121.592.151.142.007.286-.017.425.032-.14-.036-.284-.02-.426-.024-.21.017-.433-.051-.626.091-2.354.324-4.708.649-7.062.971-1.727.237-3.452.487-5.182.701-2.319.289-4.641.559-6.963.819-2.6385.295-5.2763.595-7.9186.847-2.288.218-4.5837.351-6.8729.557-4.8976.44-9.8071.672-14.7188.857-6.9705.264-13.9455.358-20.9066.919-4.3843.353-8.788.349-13.1809-.155-2.587-.297-4.9371-1.102-6.9699-2.742-.7701-.621-1.517-1.276-2.2286-1.964-2.3733-2.292-4.123-5.004-5.3168-8.075-.1138-.292-.1948-.604-.2417-.915-.2308-1.527-.4943-3.052-.6515-4.587-.1613-1.575-.3068-3.155-.2227-4.747.2053-3.887.7077-7.731 1.6246-11.515.5513-2.276 1.2361-4.508 2.4147-6.553 2.2371-3.881 4.976-7.339 8.5159-10.129 1.2759-1.006 2.5192-2.054 3.7675-3.094 2.025-1.687 3.7996-3.602 5.1211-5.894.9076-1.574 2.1846-2.691 3.8356-3.408.1087-.047.2095-.112.317-.162 1.0528-.491 1.9799-1.16 2.8013-1.978.6742-.671 1.34-1.351 2.0221-2.014 1.4362-1.397 3.1142-2.26 5.1406-2.47 1.6518-.171 3.3021-.396 4.9024-.888.9634-.296 1.8245-.758 2.5778-1.423.6555-.579 1.2763-1.195 1.769-1.919 1.5599-2.294 3.089-4.608 4.2883-7.117.4606-.964.8647-1.955 1.3046-2.929.8562-1.895 2.0157-3.576 3.4569-5.084 1.8927-1.98 4.131-3.444 6.589-4.594 3.0124-1.41 6.1121-2.598 9.2694-3.649 3.6653-1.22 7.418-1.96 11.2592-2.303 2.841-.253 5.684-.499 8.519-.814 2.684-.299 5.366-.465 8.068-.402 2.181.052 4.357.146 6.527.372.278.029.549.056.816-.069.274-.128.442-.327.477-.629.041-.343-.057-.642-.37-.809-.206-.109-.441-.195-.671-.223-1.455-.179-2.908-.411-4.369-.491-4.126-.227-8.238.009-12.34.495-2.164.257-4.335.446-6.505.643-2.448.222-4.8835.514-7.2793 1.086-5.1023 1.218-9.9788 3.061-14.7086 5.308-.6426.305-1.272.644-1.8844 1.006-4.0068 2.371-7.059 5.604-8.8399 9.945-1.2704 3.097-2.9872 5.938-4.8561 8.696-.3319.49-.7168.948-1.1104 1.391-.8671.977-1.9395 1.579-3.2286 1.872-1.318.3-2.6494.492-3.9855.638-2.254.247-4.17 1.182-5.8306 2.687-.4402.399-.8661.816-1.271 1.251-1.1994 1.287-2.5316 2.37-4.1598 3.1-1.6641.747-2.9988 1.913-3.9118 3.521-.0781.137-.1795.261-.2603.398-1.2285 2.069-2.8294 3.815-4.6644 5.354-1.2754 1.069-2.5541 2.136-3.8575 3.171-2.376 1.886-4.4354 4.072-6.2344 6.507-2.1329 2.885-3.9079 5.955-4.8491 9.457-1.2393 4.611-1.9421 9.3-2.1205 14.069-.0386 1.031-.0064 2.061.114 3.088.06.511.086 1.027.115 1.541.0204.361-.0188.416-.3974.429-1.4262.051-2.8526.098-4.2794.127-4.7954.1-9.591.192-14.386562.288v1.903c6.024412-.119 12.048862-.243 18.073562-.346.417-.007.9138-.225 1.2496.109.2839.283.1481.755.2287 1.138.1633.775.3321 1.548.4986 2.322.7363.955.9857 2.152 1.574 3.18 2.2122 3.863 5.178 6.994 9.0679 9.197 1.2132.687 2.5446 1.08 3.924 1.308 1.7624.293 3.537.445 5.3193.545 3.5309.197 7.0552.038 10.5783-.175 1.8198-.109 3.6351-.312 5.456-.384 6.854-.27 13.7104-.483 20.5641-.761 2.6533-.107 5.3043-.3 7.952-.508 3.2003-.252 6.3976-.546 9.5937-.849 2.6037-.247 5.2079-.498 7.8038-.812 3.343-.404 6.679-.873 10.017-1.315 3.85-.508 7.696-1.047 11.565-1.396 1.175-.106 2.355-.303 3.546-.045 1.547.337 3.102.636 4.657.938 2.488.482 4.976.96 7.467 1.428 1.867.351 3.717.793 5.61 1.012 3.459.398 6.88.317 10.246-.684 1.481-.441 2.989-.785 4.515-1.02 2.918-.448 5.86-.368 8.785-.174 2.17.143 4.336.413 6.491.757.689.111 1.14.327 1.437.991.527 1.177 1.379 2.122 2.378 2.928 1.3 1.047 2.683 1.961 4.21 2.655 1.371.623 2.768 1.178 4.206 1.622 4.484 1.385 9.088 2.147 13.747 2.61 1.302.13 2.608.217 3.912.317 1.739.134 3.476.314 5.218.382 2.814.108 5.616.375 8.422.59 1.027.079 2.057.141 3.082.24 2.722.265 5.44.575 8.164.811 2.487.215 4.969.473 7.465.605 2.927.155 5.843.525 8.768.737 2.807.204 5.621.326 8.438.177 2.613-.138 5.206-.49 7.809-.738 2.708-.259 5.272-.994 7.72-2.16 1.656-.789 3.181-1.77 4.513-3.044 1.266-1.212 2.302-2.614 3.383-3.982 1.101-1.393 1.8-2.971 2.19-4.696.07-.309.157-.614.241-.919.256-.919.257-.913 1.171-.892 1.11.025 2.221.089 3.329.05 3.414-.12 6.817.094 10.221.29.87.05 1.742.067 2.614.091.322.008.631-.059.906-.241.498-.329.499-1.075.002-1.405zm-100.372-124.9778c.015-.0674.09-.1268.149-.1772 1.523-1.2951 2.314-3.0374 2.628-4.9219.474-2.8482.605-5.7376.33-8.627-.045-.4692-.176-.9297-.253-1.3967-.031-.1873-.065-.4209.172-.4954.251-.0785.342.1297.397.3235.183.6467.367 1.2979.381 1.9733.02 1.0271.005 2.055.005 3.0825.004 1.5018-.029 3.0024-.221 4.4973-.237 1.846-.935 3.5011-1.978 5.0203-.337.4904-.735.9374-1.316 1.1587-.11.0421-.249.0186-.292-.1093-.034-.0998-.027-.2236-.002-.3281zm-3.218-32.8691c.116-.0748.321.0949.393.3341.526 1.747.829 3.5418 1.115 5.3379.305 1.9139.592 3.831.849 5.7519.146 1.0974.261 2.2028.313 3.3084.128 2.7282.313 5.4558.268 8.1892-.013.7897-.103 1.5783-.163 2.3671-.009.1169-.016.2559-.081.3399-.059.0753-.195.1088-.301.1211-.048.0056-.144-.0787-.154-.1336-.034-.1915-.064-.3895-.051-.5822.116-1.7408.071-3.4826.036-5.6682-.12-2.8392-.199-6.13-.72-9.3788-.481-3.0048-.816-6.0379-1.582-8.9937-.049-.1903-.065-.3901-.085-.5867-.015-.159.013-.309.163-.4064zm-80.456 30.0375c-.352.1027-.706.0874-1.052-.0323-1.657-.5745-3.189-2.6579-3.218-4.4261.042-.457.112-.9616.291-1.4533.341-.9379.833-1.7925 1.374-2.6237.324-.4978.652-.9935.964-1.4985.357-.5778.574-1.2126.736-1.8704.044-.1784.087-.3953.354-.4015.194-.0045.291.2141.228.5709-.11.6287-.315 1.229-.633 1.7816-.355.6173-.733 1.2222-1.112 1.8253-.443.7049-.847 1.426-1.18 2.1926-.668 1.5372-.298 2.8563.779 4.0426.212.2336.456.4407.701.6417.5.4116 1.043.7144 1.73.6354.187-.0216.314.1385.322.2845.009.1473-.123.2841-.284.3312zm76.075-28.8046c.024-.1809.157-.311.305-.3054.147.0055.28.1523.301.3198.039.3135.065.6295.079.9453.035.7906.061 1.5817.091 2.3727.007-.0004.013-.0006.02-.0009.034.751.071 1.5019.099 2.253.009.2365-.002.4744-.013.7111-.008.1722-.1.328-.264.3487-.236.0298-.324-.1576-.368-.3599-.008-.0386-.017-.0779-.018-.117-.082-2.0165-.163-4.033-.243-6.0495-.002-.0391.006-.0787.011-.1179zm-8.371-7.2657c.01-.0732.045-.163.1-.2037.05-.0374.149-.04.214-.0195.07.0219.136.0794.186.137.646.7495 1.284 1.506 1.933 2.2524 1.286 1.4777 2.053 3.1638 2.21 5.1379.11 1.3866.104 2.7687.036 4.153-.244 5.0221-.511 10.0432-.738 15.066-.08 1.7786-.137 3.5622.079 5.3391.014.1172.015.2367.013.3549-.003.1813-.098.3005-.278.3147-.187.0147-.293-.1303-.326-.2772-.061-.2684-.1-.5459-.11-.8209-.032-.8703-.076-1.7417-.062-2.6118.041-2.4937.05-4.9889.253-7.4776.049-.5917.06-1.1862.089-1.7795-.003-.0001-.006-.0002-.009-.0005.124-2.2532.244-4.5065.372-6.7596.089-1.5822.116-3.1653.075-4.7494-.051-2.009-.687-3.7993-1.991-5.3415-.588-.6951-1.178-1.3882-1.756-2.0917-.145-.1773-.329-.356-.29-.6221zm-8.66 29.8221c.427-2.6203 1.076-5.1926 1.667-7.7777 1.112-4.8616 1.464-9.7859 1.194-14.7585-.09-1.6615-.18-3.3243-.331-4.9809-.165-1.8137-.388-3.6226-.611-5.4306-.189-1.5321-.418-3.0592-.619-4.5899-.025-.1889.006-.3866.024-.5791.009-.0982.083-.1369.178-.1101.072.0201.189.0329.203.0761.11.334.231.6693.288 1.0143.169 1.0153.337 2.0322.455 3.0541.296 2.557.72 5.0996.844 7.6761.103 2.1371.229 4.273.311 5.7752.032 5.0516-.408 9.4147-1.447 13.7126-.54 2.2315-1.072 4.4659-1.452 6.731-.236 1.4069-.425 2.8226-.128 4.2527.105.5066.247.9958.446 1.4724.487 1.1651 1.337 1.9586 2.512 2.3752.593.2102 1.219.3546 1.842.449 2.045.3098 4.102.3394 6.165.1881 2.094-.1536 4.189-.2976 6.284-.4405.195-.0133.396-.0067.588.0263.105.0178.222.0984.184.2466-.019.0703-.056.1744-.107.1905-.223.0704-.452.142-.684.1627-1.223.1096-2.446.2242-3.671.2993-2.57.1572-5.139.4265-7.715.1134-.589-.0717-1.18-.1407-1.765-.2436-2.588-.4559-4.306-1.879-4.773-4.9983-.194-1.3022-.093-2.6093.118-3.9064zm-49.447-31.5325c.055-.4717.124-.9426.211-1.4096.163-.8854.152-.9185.94-1.3222 1.493-.7649 3.026-.862 4.563-.1126.825.4026 1.527.987 2.22 1.5794.271.2311.533.4828.835.6653.536.3245 1.142.1067 1.38-.4452.103-.2363.103-.4627-.018-.6834-.076-.1369-.153-.2854-.267-.3865-1.038-.92-2.084-1.8221-3.331-2.4679-1.501-.7765-3.042-.7625-4.623-.3617-.263.0665-.521.1476-.922.2625.028-.7243.269-1.2246.444-1.7413 1.287-3.7967 2.885-7.4528 4.924-10.9102.36-.6121.641-1.266 1.094-1.8314.452-.5653.965-.8785 1.708-.8952.949-.0213 1.896-.132 2.845-.1953 1.988-.1325 3.959.0934 5.928.3101 1.731.1908 3.461.4072 5.186.6525 7.109 1.0109 13.88 3.11 20.308 6.3214.531.2654.87.6024 1.097 1.1503.856 2.0637 1.288 4.2339 1.712 6.4113.776 3.9848 1.039 8.009.991 12.0606-.013 1.1492.002 2.2987-.012 3.4479-.004.4161-.074.4625-.501.4686-.08.0011-.159-.0031-.238-.0051-3.724-.0908-7.449-.1821-11.173-.2725-.871-.0212-1.743-.0361-2.615-.0597-.784-.0211-.8-.0216-.932-.7383-.151-.8242-.415-1.6101-.759-2.3682-1.791-3.9411-5.91-6.6473-10.571-6.175-2.899.2938-5.252 1.6528-7.032 3.9764-.144.1884-.3.3748-.406.5845-.184.365-.452.4325-.854.4732-1.496.1516-2.984.3799-4.473.5929-.687.0983-.69.1149-.982-.5026-.408-.8635-.894-1.6758-1.514-2.4061-1.239-1.4619-2.776-2.4555-4.63-2.9573-.565-.153-.592-.1915-.533-.7096zm22.735 5.5961c-.139.191-.296.3702-.456.544-1.772 1.9163-3.545 3.8314-5.321 5.7438-.133.1431-.284.2729-.44.3899-.105.0787-.227.0356-.323-.0421-.1-.0807-.149-.1981-.083-.3108.099-.1685.21-.3353.342-.4784 1.878-2.0337 3.759-4.0642 5.644-6.0916.105-.1128.239-.2045.374-.281.054-.0306.159-.015.218.0195.06.0357.093.1198.156.2089-.032.0888-.047.2107-.111.2978zm.888 3.4271c.101-.1035.26-.1779.403-.201.082-.0133.185.1043.246.1428.079.2212-.014.3588-.118.473-.345.3806-.699.7528-1.055 1.1233-.52.5418-1.043 1.0811-1.569 1.6168-.11.1116-.235.2091-.362.302-.104.0764-.239.0786-.317-.0146-.066-.0797-.123-.2217-.097-.3109.041-.1433.136-.2835.241-.3942.87-.918 1.744-1.8321 2.628-2.7372zm-3.565 7.853c1.124-1.226 2.258-2.4431 3.389-3.6624 1.051-1.1324 2.1-2.2653 3.156-3.3928.186-.199.343-.437.626-.5294.126-.0413.37.0942.36.2169.033.1774-.072.3025-.175.4183-.368.4146-.739.8269-1.116 1.2325-1.836 1.9706-3.674 3.9386-5.511 5.9079-.081.0869-.155.1815-.24.2635-.192.1846-.349.4577-.687.334-.217-.0793-.151-.4079.198-.7885zm-20.719-.098c.586-.7975 1.172-1.5947 1.76-2.3902.776-1.0502 1.552-2.1005 2.334-3.1465.14-.1866.252-.4021.483-.5092.117-.0543.378.0423.395.2402-.009.0387-.012.1636-.066.2579-.119.2046-.26.3976-.4.5884-1.269 1.7197-2.538 3.4394-3.812 5.1548-.162.2182-.291.4828-.58.5702-.065.0196-.163.002-.218-.0377-.055-.0406-.095-.1257-.108-.1976-.04-.2167.096-.3722.212-.5303zm-.926-3.4921c-.095.1269-.223.226-.444.1516-.045-.0657-.129-.152-.164-.2549-.021-.0599.017-.1594.06-.219.735-1.0298 1.475-2.057 2.219-3.0808.041-.0568.127-.0958.199-.1112s.183-.0192.223.023c.074.079.174.2166.149.2916-.153.458-.49.8068-.767 1.19-.488.6732-.979 1.3434-1.475 2.0097zm-5.182 20.2114c-.252.0666-.371-.1155-.419-.3047-.125-.4952-.258-.9936-.317-1.499-.123-1.0557-.334-2.1038-.306-3.1745-.023-.47-.111-.9421-.002-1.4114.038-.1638.141-.2798.323-.2745.195.0057.257.1391.245.3097-.051.7127.06 1.4138.126 2.1198.107 1.1383.246 2.2702.488 3.3885.033.1533.055.3123.054.4686-.001.1494-.002.3272-.192.3775zm.304-21.0139c-.119.1576-.237.3156-.368.4633-.132.151-.293.2852-.502.1513-.216-.1376-.165-.3254-.047-.5067.043-.0659.087-.1319.134-.1949 1.896-2.5223 3.791-5.0453 5.691-7.564.116-.1537.273-.2785.42-.4066.091-.0797.365.0313.401.2235-.008.0401-.005.1656-.059.256-.122.2015-.271.3872-.413.5762-1.752 2.3345-3.504 4.6684-5.257 7.0019zm42.83 64.5265c-.066.039-.146.058-.223.071-1.94.316-3.773-1.226-3.746-3.167.017-.176-.01-.385.144-.537.048-.048.137-.086.202-.079.066.008.164.068.177.123.037.15.042.309.052.465.114 1.75 1.361 2.411 2.619 2.523.232.02.47-.016.705-.019.175-.002.314.076.324.26.009.169-.117.28-.254.36zm1.045-1.573c.113.045.185.131.157.303-.072.038-.164.122-.26.128-.158.011-.267-.195-.191-.331.066-.117.176-.147.294-.1zm3.968-10.95c-.135.077-.283.154-.434.175-.667.093-1.334.193-2.005.241-2.648.189-5.297.352-7.945.539-1.541.109-3.081.244-4.063.323-1.986.134-3.409.124-4.826-.114-.628-.105-1.241-.267-1.811-.549-.731-.361-1.152-.965-1.197-1.784-.026-.4714.013-.9482.05-1.4205.007-.0847.135-.2087.225-.2282.189-.0408.282.113.304.2747.021.1542-.001.3142-.003.4717-.002.1979-.017.3971-.002.5938.064.8325.46 1.4105 1.283 1.6665.875.272 1.769.449 2.683.471.989.024 1.983.035 2.97-.03 2.451-.163 4.898-.378 7.348-.561 1.501-.112 3.004-.197 4.506-.309.67-.05 1.338-.142 2.008-.202.274-.024.551-.028.825-.014.128.007.189.138.187.258-.002.069-.047.166-.103.198zm3.509-.299c-.162.017-.282-.068-.285-.258-.002-.141.106-.17.185-.201.153-.044.269.036.29.127.033.139-.005.313-.19.332zm7.214-16.8313c-.304 1.7155-.619 3.4293-.904 5.1481-.266 1.6049-.427 3.2219-.411 4.8515.004.468-.041.6201-.586.6421-4.198.1697-8.401.2852-12.592.5701-4.272.2905-8.547.4957-12.824.6807-1.263.0547-2.521.2603-3.78.4047-1.098.1258-1.11.114-1.167-1.0082-.056-1.0788.052-2.1426.34-3.1785.425-1.5237.761-3.0741 1.343-4.5521.236-.5988.358-1.2173.218-1.8611-.087-.4022-.383-.6205-.782-.5352-.385.0825-.757.2263-1.139.3296-1.488.4033-2.978.8028-4.468 1.1992-.191.0508-.387.0988-.583.1081-1.901.09-3.801.1766-5.688-.1943-1.095-.2152-2.151-.5408-3.127-1.0844-.656-.3657-1.304-.7506-1.932-1.1637-2.354-1.5491-4.048-3.6301-5.087-6.262-.892-2.2592-1.483-4.5955-1.907-6.9767-.571-3.2055-.86-6.4401-.926-9.6955-.021-1.0698.077-2.1282.179-3.2614.398.0308.738.0678 1.078.0804.357.0132.715.024 1.07-.0031.354-.027.705-.0998 1.056-.1569.341-.0554.68-.1163 1.028-.1763.016.356-.221.5423-.335.7842-.6 1.2813-.557 2.5276.189 3.738.576.9332 1.336 1.6652 2.344 2.1211.217.0978.426.212.648.2945.919.3413 1.482 1.0265 1.856 1.8973.109.2533.186.524.322.7611.189.3304.581.493.905.4248.396-.0836.704-.4122.754-.8184.039-.3224-.034-.6264-.151-.9281-.504-1.3065-1.303-2.3476-2.605-2.9469-.323-.149-.65-.2912-.971-.4439-.628-.2983-1.099-.7692-1.46-1.3556-.468-.7607-.428-1.5108.104-2.2142.286-.378.623-.7172.946-1.0659 1.438-1.5529 2.676-3.2456 3.46-5.223.918-2.3141 1.381-4.7049 1.004-7.2061-.017-.1176-.032-.2357-.044-.354-.024-.2304.063-.3761.309-.4018.631-.0661 1.261-.1488 1.893-.1973.661-.0508 1.325-.1179 2.044-.0842-.104.6524-.199 1.2281-.286 1.805-.656 4.3684 1.905 9.8655 7.545 11.5084 6.113 1.7809 11.813-2.2448 12.794-7.9127.068-.3899.144-.7782.216-1.1681.193-.1995.441-.1308.667-.1253 4.518.1097 9.037.2243 13.555.3388.198.005.398.0026.592.0338.223.0358.334.1846.315.4175-.003.0395-.005.0792-.008.1186-.239 2.8435-.31 5.7005-.665 8.5342-.76 6.0581-1.748 12.0722-3.57 17.9188-.165.5285-.377 1.0418-.56 1.5647-.118.3359-.266.6695-.323 1.0168-.126.7671-.001 1.4056.595 2.0513.886.9598 1.941 1.4823 3.158 1.7542 1.704.3808 3.438.5636 5.175.7179.391.0347.796-.022 1.157.1556.122.1984.057.3899.022.5838zm-.868 119.3193c-.307.202-.621.087-.908.023-2.639-.587-5.312-.854-8.012-.878-1.188-.011-2.376-.038-3.564-.018-2.589.046-5.13.472-7.599 1.221-4.127 1.253-8.275 1.195-12.455.392-3.109-.597-6.217-1.194-9.321-1.813-3.646-.726-7.312-1.359-10.89-2.395-2.029-.588-4.124-.755-6.214-.94-.555-.049-1.1-.123-1.636-.272-.19-.054-.361-.131-.46-.366.699-.508 1.458-.921 2.25-1.281 2.209-1.004 4.542-1.601 6.893-2.158 1.855-.438 3.748-.612 5.62-.931 2.924-.498 5.875-.867 8.737-1.681 1.901-.541 3.793-1.118 5.673-1.725 2.339-.756 4.728-1.296 7.138-1.758 3.104-.596 6.069-.315 8.826 1.349.541.327 1.091.641 1.634.966.747.447 1.486.908 2.237 1.349 1.971 1.157 4.098 1.658 6.377 1.455 1.774-.159 3.546-.347 5.419-.532.234 1.533.314 3.033.19 4.533-.141 1.705-.183 3.401.063 5.098.016.112.002.229.002.362zm.785-13.914c-.092.219-.173.443-.268.66-.587 1.333-.277 1.167-1.88 1.423-1.484.238-2.993.324-4.492.459-1.83.164-3.545-.223-5.131-1.149-.854-.499-1.698-1.017-2.541-1.534-1.455-.891-2.942-1.722-4.583-2.217-1.689-.509-3.418-.646-5.174-.43-2.955.362-5.844 1.02-8.688 1.892-2.079.638-4.154 1.291-6.244 1.892-1.597.459-3.232.773-4.872 1.047-.273.046-.552.058-.826.098-.313.045-.541-.042-.654-.36-.197-.559-.463-1.102-.59-1.676-.485-2.202-.977-4.406-1.365-6.627-.204-1.165-.2-2.367-.274-3.348.093-2.066.147-3.927.648-5.741.096-.346.234-.526.603-.614 3.735-.888 7.485-1.697 11.26-2.399 2.42-.449 4.863-.66 7.302-.936 1.848-.209 3.682-.541 5.523-.812 2.116-.313 4.234-.615 6.372-.728.435-.023.873-.03 1.307-.004 2.057.126 4.116.223 6.167.412 2.09.193 4.176.444 6.254.739 2.351.334 4.7.696 7.034 1.134 2.879.54 5.732 1.204 8.443 2.356.619.264 1.233.539 1.837.834 1.811.888 3.613 1.796 5.426 2.682 1.779.87 3.612 1.606 5.498 2.213 1.175.378 2.27.913 3.265 1.659 1 .751 1.577 1.732 1.85 2.945.229 1.019-.116 1.81-.872 2.421-.81.654-1.728 1.099-2.807 1.156-1.432.075-2.852-.054-4.27-.211-2.913-.322-5.817-.747-8.736-.989-3.001-.249-6.015-.313-9.015.138-1.355.204-2.603.651-3.73 1.436-.802.559-1.4 1.277-1.777 2.179z" fill="#000"/><path d="m138.125 73.4232c-.35-.3134-.756-.5784-1.17-.8024-1.103-.5964-2.3-.819-3.548-.812-.395.0269-.794.0247-1.184.0861-1.316.2076-2.525.6639-3.473 1.6453-1.283 1.329-1.332 3.0844-.143 4.502.546.6515 1.237 1.106 2.011 1.432 1.583.6668 3.226.7603 4.889.4112.896-.1879 1.731-.5526 2.457-1.1322 1.835-1.4646 1.914-3.7578.161-5.33zm-1.038 4.2734c-.436.289-.931.3955-1.464.4258-.222-.0191-.46-.0502-.529-.3378-.06-.2505.018-.4669.22-.6235.501-.3878 1.055-.4798 1.66-.287.167.0531.278.1702.32.3161.06.2045-.035.3923-.207.5064zm60.572 27.2134c3.379-.063 6.727.277 10.072.71 5.233.677 10.381 1.77 15.466 3.152 2.525.687 4.964 1.627 7.286 2.845 1.893.992 3.805 1.952 5.62 3.087 4.781 2.988 8.697 6.852 11.765 11.582 1.081 1.667 2.011 3.409 2.731 5.262.445 1.143.931 2.272 1.341 3.428 1.061 2.991 1.85 6.054 2.357 9.189.26 1.603.555 3.2.805 4.804.123.782.196 1.573.256 2.363.021.268-.029.557-.113.814-.123.377-.443.551-.822.583-.375.032-.775-.273-.89-.658-.045-.15-.067-.31-.079-.467-.173-2.376-.663-4.704-1.031-7.051-.43-2.748-1.138-5.425-1.976-8.066-.658-2.076-1.477-4.102-2.431-6.057-1.594-3.265-3.721-6.163-6.273-8.756-2.834-2.88-6.075-5.175-9.645-7.06-2.843-1.5-5.716-2.9-8.803-3.825-2.352-.705-4.751-1.226-7.144-1.763-3.869-.87-7.787-1.456-11.727-1.88-3.952-.425-7.913-.43-11.875-.119-1.106.086-2.212.176-3.316.285-.484.048-.533.109-.515.605.045 1.19.094 2.381-.096 3.561-.332 2.072-.596 4.171-1.33 6.144-1.911 5.135-5.367 8.802-10.527 10.781-.295.113-.607.184-.915.256-.332.077-.632-.045-.895-.23-.51-.358-.488-1.04.025-1.405.235-.167.503-.237.776-.276.316-.046.622-.106.911-.25 2.624-1.307 4.917-2.986 6.658-5.414 1.564-2.18 2.505-4.564 2.923-7.188.106-.665.283-1.318.387-1.982.173-1.099.235-2.207.172-3.32-.024-.435-.043-.873-.026-1.308.04-.956.362-1.384 1.3-1.565 1.126-.219 2.265-.379 3.403-.526 2.05-.266 4.115-.242 6.175-.285z" fill="#000"/><path d="m133.791 14.9314c-.025-.2835.193-.4224.345-.5906 2.846-3.1552 6.119-5.74519 9.997-7.53313 3.101-1.43004 6.264-2.677 9.638-3.31754 1.638-.31078 3.281-.56737 4.949-.60564 2.457-.05638 4.914-.10491 7.362.22201 2.124.28363 4.211.74109 6.292 1.23725 3.446.82156 6.745 2.01944 9.884 3.67925 2.73 1.44368 5.095 3.3434 7.257 5.5218.14.1407.264.2962.407.4333 2.783 2.6711 4.585 5.9347 5.82 9.5521 1.09 3.1951 1.857 6.4654 2.414 9.7926.386 2.3081.59 4.6362.87 6.956.029.2341.024.4721.035.6955-.271.1479-.381-.0543-.501-.1866-.913-1.0085-1.978-1.8223-3.146-2.5148-1.227-.7279-2.425-1.5054-3.663-2.2142-4.028-2.3068-7.839-4.9549-11.744-7.4556-5.251-3.363-10.709-6.3294-16.491-8.6846-4.198-1.7104-8.538-2.9141-12.998-3.7171-3.084-.5552-6.189-.9112-9.303-1.2366-1.424-.1488-2.843-.2297-4.271-.1993-.793.0169-1.585.0321-2.368.188-.253.0501-.53.1512-.785-.0221z" fill="#d42488"/><path d="m146.931 34.1523c-1.138.0664-2.262.2481-3.221.9829-.156.1194-.321.2385-.5.3143-.394.1665-.818.0307-1.05-.3069-.215-.3132-.207-.6636.052-.9871.122-.1521.272-.288.429-.4043 1.898-1.4068 3.987-1.8702 6.281-1.2197 1.392.3945 2.61 1.1262 3.734 2.0213.342.2724.652.5777.822.9981.179.4431.061.8732-.327 1.1467-.355.249-.725.2394-1.092-.0582-.184-.1483-.323-.3513-.506-.5002-1.345-1.0941-2.807-1.9236-4.622-1.9869z" fill="#020202"/><path d="m190.534 21.4481c-.006.4037-.212.6657-.575.8173-.344.1434-.629.0039-.862-.2239-.167-.1628-.298-.3703-.417-.5739-.789-1.3483-1.825-2.4894-2.982-3.5216-1.89-1.687-3.8-3.3523-5.701-5.0276-1.254-1.1052-2.592-2.0821-4.149-2.7275-.216-.0893-.424-.21818-.603-.36801-.262-.21951-.327-.68525-.151-.98327.173-.29465.45-.46749.789-.42823.27.0314.537.13314.793.23521 1.405.56083 2.724 1.27618 3.89 2.2496.851.7106 1.698 1.4267 2.529 2.1603 1.395 1.2312 2.779 2.475 4.162 3.7199.916.8241 1.73 1.7421 2.443 2.7456.251.3527.447.7448.66 1.1233.14.2476.18.5215.174.8028zm-12.047.6351c.067.0211.239.0353.361.1214 1.218.86 2.648 1.2397 4.008 1.7691 1.661.6463 3.327 1.2761 4.951 2.0146 2.157.9816 3.983 2.4282 5.679 4.0534.254.2437.457.545.664.8333.191.2662.257.5763.223.903-.057.5556-.634.8807-1.143.6542-.263-.1169-.452-.3157-.639-.5214-2.037-2.244-4.5-3.8522-7.317-4.9451-1.661-.6442-3.315-1.3097-4.959-1.9964-.729-.3046-1.451-.6358-2.11-1.0849-.384-.2619-.632-.5959-.601-1.0852.026-.4152.379-.7345.883-.716zm-10.461-9.7533c.544.0066 1.051.0917 1.524.308.682.3118 1.369.6164 2.03.9698 1.467.7849 2.983 1.4355 4.574 1.9384 2.352.744 4.474 1.9777 6.564 3.2609.199.1222.387.2822.537.4606.245.291.324.628.13.9888-.196.365-.591.5655-1.001.4286-.371-.1238-.723-.3137-1.069-.5021-.936-.5109-1.858-1.0476-2.797-1.5533-1.046-.5631-2.138-1.0213-3.275-1.3694-1.67-.5111-3.258-1.2025-4.749-2.1181-.437-.2683-.897-.5003-1.356-.7315-.424-.2143-.866-.3505-1.355-.3814-.62-.0393-.954-.3834-.941-.8438.013-.4644.389-.7918.972-.8447.078-.0071.158-.0081.212-.0108zm-8.226-1.8767c-1.319-.2891-2.636.0561-3.936.3873-1.281.3261-2.569.4679-3.883.4575-1.227-.0098-2.452.1-3.681-.0505-1.263-.1546-2.503-.3919-3.725-.7378-.227-.0644-.455-.1442-.664-.2523-.406-.2095-.582-.60876-.466-.98498.13-.41765.565-.68874 1.035-.58155.695.15856 1.388.31504 2.092.43739.786.13664 1.573.20981 2.365.22191 1.387.02127 2.774.00437 4.162.0023.801-.0012 1.564-.22792 2.34-.38538.892-.18113 1.786-.35855 2.684-.50947.591-.09945 1.187-.0736 1.766.10425.226.06925.452.1495.659.25997.346.1844.517.48166.465.88317-.05.39399-.372.69199-.808.74599-.117.0145-.237.0022-.405.0022zm13.956 10.7533c-.709-.017-1.319-.1965-1.92-.3916-3.058-.9918-6.023-2.1987-8.784-3.8646-1.119-.6747-2.214-1.392-3.456-1.8338-.345-.1226-.63-.3182-.786-.6762-.121-.28-.108-.5352.053-.7891.196-.307.492-.3871.825-.3422.153.0206.297.1032.447.153 1.245.4152 2.423.9775 3.544 1.6531 2.454 1.4772 5.068 2.6009 7.759 3.5598.746.2661 1.503.4937 2.284.6354.232.042.467.0996.683.1907.412.1735.642.5688.579.9341-.065.3815-.386.6785-.821.7453-.156.0237-.316.0208-.407.0261zm-1.314-9.2057c-.368-.0079-.695-.148-1.015-.3088-.743-.3736-1.485-.7503-2.229-1.1231-2.561-1.28437-5.255-2.20244-8.03-2.89522-.345-.08604-.696-.16935-1.021-.30707-.422-.17862-.623-.58831-.527-.95613.11-.42146.531-.72145 1.007-.63334.934.17305 1.861.38221 2.787.5919 2.491.56378 4.814 1.56701 7.085 2.7071.602.30217 1.206.60041 1.799.92068.276.14948.547.32358.783.52928.296.2584.367.6554.231.9751-.137.3209-.47.5123-.87.4996z" fill="#010001"/><path d="m196.919 29.8661c-.002.0115-.005.1331-.041.2445-.102.32-.292.5635-.644.626-.336.0597-.649-.0104-.843-.3037-.172-.2616-.301-.5541-.429-.8422-.642-1.4509-1.341-2.8713-2.225-4.1944-.109-.1634-.218-.3354-.282-.5192-.111-.3236-.05-.6265.211-.8685.261-.2416.687-.2897.988-.075.19.1353.363.3092.502.4967 1.018 1.3738 1.871 2.8453 2.561 4.4103.128.2916.23.5921.202 1.0255z" fill="#020001"/><path d="m146.005 39.7794c-1.717-.0075-3.28.4849-4.692 1.4554-2.785 1.9129-4.264 5.6658-3.152 9.3819 1.205 4.0299 5.399 7.0205 10.02 6.0029 3.184-.7013 5.959-3.2747 6.349-7.2932.495-5.0945-3.484-9.5174-8.525-9.547zm2.549 5.9685c.081-.0133.184.1043.246.1428.078.2212-.015.3589-.118.473-.345.3806-.7.7528-1.056 1.1233-.52.5418-1.042 1.0811-1.569 1.6169-.109.1115-.235.209-.361.3019-.104.0765-.24.0786-.317-.0146-.066-.0797-.124-.2217-.098-.3109.042-.1433.137-.2835.241-.3942.87-.9178 1.745-1.832 2.628-2.7371.101-.1035.261-.1778.404-.2011zm-7.509 3.4516c-.105.0787-.226.0357-.322-.0421-.1-.0807-.15-.1981-.083-.3108.099-.1685.209-.3353.341-.4784 1.878-2.0337 3.76-4.0642 5.644-6.0916.105-.1128.239-.2045.374-.281.054-.0306.159-.015.218.0196.061.0356.093.1197.156.2088-.031.0888-.047.2108-.11.2978-.139.191-.296.3702-.457.544-1.772 1.9163-3.545 3.8314-5.321 5.7439-.133.1429-.283.2728-.44.3898zm10.897-2.347c-.368.4146-.739.8269-1.117 1.2325-1.836 1.9706-3.674 3.9386-5.511 5.9079-.081.0869-.154.1815-.24.2635-.192.1847-.348.4577-.687.3341-.217-.0793-.15-.408.199-.7885 1.124-1.226 2.258-2.443 3.389-3.6624 1.05-1.1324 2.1-2.2652 3.155-3.3928.187-.199.344-.4369.626-.5294.126-.0412.37.0942.36.2169.034.1773-.071.3024-.174.4182zm-23.292-4.4235c-2.444-3.5792-7.105-4.1328-10.358-1.2801-2.158 1.8924-3.079 4.3426-3.19 7.1324.067 1.9195.52 3.6931 1.625 5.2699 2.524 3.6017 7.189 4.1366 10.456 1.1984 1.142-1.0269 1.976-2.2605 2.477-3.71 1.048-3.0301.814-5.9387-1.01-8.6106zm-10.955 7.4436c-.133.151-.293.2852-.503.1513-.215-.1376-.165-.3254-.047-.5066.044-.066.087-.132.134-.195 1.896-2.5223 3.791-5.0453 5.692-7.564.116-.1537.273-.2785.419-.4066.092-.0797.365.0313.402.2236-.009.04-.005.1655-.06.2559-.122.2015-.27.3872-.412.5762-1.752 2.3344-3.504 4.6684-5.257 7.0018-.119.1577-.238.3157-.368.4634zm4.801.491c-.044-.0658-.128-.152-.164-.255-.02-.0598.018-.1594.06-.2189.736-1.0299 1.475-2.0571 2.219-3.0808.042-.0569.128-.0959.2-.1113.072-.0153.183-.0192.222.023.074.079.174.2166.149.2916-.153.458-.489.8069-.767 1.1901-.487.673-.978 1.3432-1.475 2.0095-.095.127-.222.2261-.444.1518zm6.276-2.2075c-.119.2046-.259.3976-.4.5885-1.268 1.7196-2.537 3.4393-3.811 5.1547-.163.2182-.292.4828-.58.5702-.065.0197-.164.002-.218-.0377-.056-.0406-.095-.1257-.108-.1976-.041-.2168.096-.3723.212-.5303.585-.7974 1.171-1.5947 1.759-2.3902.776-1.0502 1.553-2.1005 2.335-3.1464.139-.1867.251-.4022.482-.5093.117-.0543.378.0423.395.2402-.009.0387-.011.1636-.066.2579zm33.808 61.1689c-1.539-1.153-3.253-1.4-5.02-.543-2.251 1.093-2.309 3.58-.9 5.052.957.999 2.139 1.454 3.748 1.423.121-.014.486-.011.825-.101 1.345-.356 2.386-1.078 2.703-2.521.306-1.396-.283-2.505-1.356-3.31zm-1.687 4.611c-.066.039-.147.058-.224.071-1.939.316-3.772-1.226-3.745-3.167.016-.176-.011-.385.143-.537.049-.048.138-.087.203-.079s.163.068.177.123c.037.15.041.309.051.465.114 1.75 1.362 2.411 2.619 2.522.233.021.47-.016.706-.019.175-.002.314.077.323.261.01.169-.117.28-.253.36zm1.202-1.27c-.073.038-.164.122-.26.128-.158.01-.267-.195-.191-.331.065-.117.176-.147.294-.1.112.045.185.131.157.303z" fill="#d42488"/></g></svg>