<svg width="460" height="416" viewBox="0 0 460 416" fill="none" xmlns="http://www.w3.org/2000/svg">
<path fill-rule="evenodd" clip-rule="evenodd" d="M89.2062 407.785C82.0929 407.441 84.9536 395.003 85.464 390.435C91.0964 373.749 89.7724 355.545 91.9867 338.057C93.3665 321.731 95.14 305.457 96.6313 289.143C99.5598 256.03 120.595 188.618 144.598 177.777C147.621 164.512 160.11 152.132 175.91 152.132C186.687 139.379 199.659 130.403 216.297 132.215C223.171 132.528 229.84 139.818 236.427 141.226C240.116 141.735 272.853 140.426 279.41 144.319C283.976 146.664 288.1 150.997 286.757 156.512C284.614 163.196 291.274 155.964 305.166 163.097C333.494 180.105 316.565 202.86 315.816 203.563C333.494 228.153 348.943 248.099 356.093 278.154C360.727 300.467 360.204 323.5 364.086 345.928C365.457 353.705 367.56 361.215 369.835 368.766C372.3 378.65 373.499 403.281 374.859 403.503C377.335 404.117 373.427 409.199 370.805 409.203C298.067 421.266 224.182 409.702 151.055 407.813C130.445 407.098 109.814 406.932 89.2062 407.785V407.785Z" fill="#FDFBF5"/>
<path fill-rule="evenodd" clip-rule="evenodd" d="M199.452 205.733C199.447 205.668 199.417 205.607 199.369 205.563C199.321 205.519 199.259 205.494 199.193 205.494C199.128 205.494 199.065 205.519 199.018 205.563C198.97 205.607 198.94 205.668 198.935 205.733L198.423 210.689C197.797 216.743 197.196 222.784 196.759 228.865C196.215 236.447 195.853 244.029 195.677 251.63C195.065 278.099 194.945 304.583 194.893 331.06C188.881 330.644 182.867 330.253 176.851 329.887L170.649 329.511L168.097 329.354C166.372 329.248 164.412 328.812 163.206 330.341C162.722 330.952 162.48 331.748 162.931 332.474C163.97 334.149 165.564 334.089 167.369 334.162C169.071 334.23 170.771 334.298 172.473 334.363C176.121 334.505 179.767 334.638 183.416 334.74C187.243 334.849 191.07 334.935 194.898 335C194.936 346.179 195.4 357.342 195.9 368.507L196.126 373.532C196.738 387.118 197.396 400.717 198.332 414.287C198.409 415.397 199.98 415.396 200.057 414.287C201.111 399.006 201.806 383.692 202.494 368.39C202.985 357.299 203.294 346.201 203.423 335.099C203.929 335.103 204.435 335.11 204.94 335.111C219.306 335.174 233.666 335.237 248.031 335.103C248.004 335.13 247.983 335.162 247.966 335.197C246.928 337.65 246.828 340.78 246.855 343.412C246.897 346.425 247.276 349.423 247.985 352.351C250.478 362.872 256.905 372.292 264.227 380.083L264.466 380.335C266.194 382.16 268.175 383.993 269.234 386.316C270.318 388.689 270.694 391.464 271.229 394.013L271.292 394.307L273.382 403.957C274.044 407.021 274.234 411.492 276.661 413.703C278.926 415.767 281.924 414.689 282.99 412.032C283.823 409.959 282.994 407.681 282.501 405.609L278.639 389.383C278.004 386.737 277.311 384.073 275.942 381.695C274.539 379.261 272.483 377.496 270.384 375.69C266.384 372.255 262.792 368.371 259.679 364.116C256.595 359.879 253.961 355.208 252.112 350.296C251.187 347.838 250.429 345.282 249.905 342.707C249.409 340.265 249.412 337.733 248.881 335.317C248.844 335.15 248.703 335.035 248.543 334.984C248.581 334.876 248.522 334.73 248.37 334.721L236.623 333.966C226.18 333.292 215.738 332.603 205.306 331.812L203.463 331.68C203.605 316.871 203.483 302.06 203.215 287.246C202.971 273.661 202.966 260.073 202.562 246.489C202.36 239.748 201.928 233.023 201.445 226.295C200.952 219.415 200.163 212.592 199.452 205.733V205.733ZM309.759 284.501C309.884 283.747 308.935 283.278 308.496 283.969C303.496 291.851 301.083 300.413 300.065 309.639C299.168 317.78 299.433 326.037 299.879 334.201C300.356 342.906 300.912 351.609 301.475 360.311L302.341 373.654L304.51 407.105C304.666 409.497 305.208 411.673 307.269 412.786C307.531 413.004 307.802 413.199 308.119 413.369C309.233 413.963 310.71 413.663 311.353 412.521L311.095 412.69C310.869 412.833 311.123 412.634 311.853 412.098L312.471 411.297C312.918 410.658 313.21 409.924 313.325 409.152C313.504 407.902 313.273 406.532 313.191 405.277L311.767 383.342C310.661 366.289 309.37 349.241 308.396 332.181C307.943 324.228 307.626 316.27 307.841 308.303C308.055 300.382 308.459 292.326 309.757 284.501H309.759ZM266.483 137.665L266.205 137.618C256.269 135.967 245.466 136.277 236.386 141.065C236.311 141.103 236.344 141.229 236.429 141.225L239.351 141.108C248.604 140.746 257.828 140.532 266.926 142.705L267.858 142.93C271.133 143.729 274.555 144.707 277.187 146.869C279.703 148.938 280.956 152.127 282.159 155.064L282.32 155.453C283.543 158.351 285.09 161.102 287.767 162.916C291.234 165.265 295.409 164.978 299.386 165.296C306.389 165.858 312.114 170.933 314.964 177.142C316.689 180.902 317.424 185.117 317.571 189.23C317.646 191.322 317.656 193.497 317.377 195.577C317.288 196.242 316.466 198.664 316.046 198.607C315.114 198.476 314.264 198.962 313.973 199.707C311.67 197.479 309.298 195.324 306.86 193.244C300.761 188.039 294.215 183.38 287.299 179.322C282.027 176.238 276.463 173.185 270.705 170.874C271.171 170.861 271.632 170.968 272.046 171.182C272.238 171.282 272.426 171.043 272.276 170.885C270.463 168.977 268.288 168.705 266.098 169.213C265.63 169.065 265.163 168.921 264.693 168.785C264.459 168.717 264.344 169.039 264.534 169.163L265.072 169.506C262.682 170.307 260.335 171.881 258.478 173.122C253.142 176.686 248.445 181.045 243.684 185.321L242.818 186.098C238.626 189.839 234.33 193.474 229.567 196.474C227.076 198.046 224.457 199.498 221.712 200.579C219.356 201.507 215.522 202.09 214.417 204.58C213.438 205.771 213.848 207.289 214.996 208.092C216.933 210.223 220.806 208.845 223.114 207.958C225.898 206.891 228.59 205.599 231.163 204.094C236.152 201.164 240.754 197.524 245.041 193.65C249.518 189.604 253.74 185.305 258.095 181.132C259.982 179.323 261.823 177.473 263.713 175.667L264.663 174.769C265.626 173.865 267.001 172.455 268.47 171.602C271.238 173.252 274.048 174.835 276.79 176.529C280.618 178.892 284.334 181.425 287.992 184.041C295.044 189.105 301.701 194.697 307.905 200.769C319.266 211.861 328.947 224.527 337.403 237.936L338.048 238.958C342.853 246.634 347.396 254.557 350.619 263.039C354.165 272.373 355.889 282.187 356.825 292.095C357.755 301.931 358.069 311.817 359.107 321.645C360.173 331.723 362.273 341.579 364.661 351.417L365.231 353.749C367.391 362.56 369.621 371.371 370.733 380.389C371.325 385.207 371.682 390.09 371.602 394.946C371.52 399.831 370.752 404.607 370.133 409.44C369.896 411.292 371.719 412.838 373.349 413.082C375.226 413.364 376.835 412.168 377.419 410.427C379.236 404.997 379.567 398.994 379.51 393.294C379.452 387.508 378.713 381.76 377.675 376.073C375.63 364.888 372.475 353.935 369.835 342.883C367.51 333.142 365.95 323.384 365.109 313.406C364.234 303.053 363.712 292.666 362.118 282.387C360.546 272.24 357.588 262.548 353.125 253.297C349.06 244.872 343.996 236.943 338.686 229.257C332.236 219.925 325.152 211.044 317.236 202.952C317.987 202.911 318.714 202.677 319.348 202.273C321.4 200.994 322.355 198.492 322.649 196.208C323.337 190.861 323.172 185.281 321.795 180.055C319.578 171.625 313.82 164.133 305.477 161.095C303.328 160.312 301.044 160.026 298.769 159.97C296.609 159.916 294.25 160.198 292.166 159.514C288.849 158.423 287.428 154.518 286.182 151.558L286.125 151.422C284.527 147.649 282.611 144.415 279.152 142.059C275.461 139.545 270.837 138.403 266.483 137.665V137.665ZM172.076 152.585C169.092 151.549 165.358 152.489 162.438 153.393C159.186 154.401 156.179 156.259 153.602 158.463C150.874 160.795 148.645 163.654 147.048 166.868L146.896 167.176C145.447 170.154 143.795 174.238 144.527 177.507C144.547 177.598 144.571 177.687 144.598 177.776C138.675 180.692 133.205 184.343 128.44 188.97C122.893 194.36 118.194 200.492 114.22 207.117C98.433 233.428 95.6542 265.029 93.7884 295.035L93.3232 302.643C92.311 319.073 91.1264 335.463 88.0497 351.665L87.825 352.835C84.534 369.799 79.8249 386.892 80.3023 404.295C80.4452 409.509 88.1525 409.473 88.3772 404.295C89.2187 384.803 93.7675 365.983 96.8493 346.795C102.271 313.039 99.5532 278.236 107.236 244.818C110.25 231.703 114.919 218.982 121.588 207.275C124.881 201.491 128.649 195.903 133.064 190.915C136.862 186.622 140.809 182.49 145.248 178.881C146.666 180.302 149.501 179.578 150.241 177.507C150.75 176.083 150.602 174.421 150.928 172.93C151.226 171.541 151.654 170.182 152.205 168.872C153.349 166.244 154.908 163.817 156.823 161.684C158.843 159.433 161.195 157.505 163.799 155.966C166.428 154.397 169.304 153.929 172.076 152.784C172.17 152.745 172.179 152.62 172.076 152.585V152.585ZM160.477 332.993C160.475 332.962 160.465 332.933 160.448 332.908C160.431 332.883 160.407 332.864 160.378 332.852C160.35 332.841 160.32 332.837 160.29 332.843C160.26 332.848 160.232 332.862 160.21 332.883C159.165 333.846 158.531 335.228 157.76 336.414C156.872 337.779 155.94 339.117 154.961 340.42C153.001 343.031 150.818 345.491 148.619 347.902C146.566 350.149 144.401 352.29 142.132 354.318C139.68 356.512 136.935 358.469 134.708 360.899C130.062 365.967 129.311 372.924 128.332 379.456L128.224 380.163C127.626 384.04 127.092 387.928 126.609 391.821C126.374 393.713 126.139 395.609 125.949 397.507L125.889 398.109C125.719 399.967 125.673 401.852 126.74 403.477C127.882 405.214 130.482 405.822 132.025 404.158C134.68 401.295 134.182 396.212 134.527 392.531C134.813 389.487 135.137 386.446 135.499 383.41L135.684 381.892C136.111 378.44 136.457 374.916 137.247 371.522C137.943 368.535 139.271 366.279 141.45 364.113C143.644 361.933 145.924 359.896 147.95 357.548C150.093 355.049 152.042 352.392 153.781 349.598C155.274 347.215 156.473 344.619 157.569 342.028L157.752 341.595C158.811 339.069 160.558 335.778 160.477 332.993V332.993ZM122.156 224.429C122.133 224.076 121.612 224.07 121.604 224.429L121.412 233.526C120.905 257.959 121.219 282.45 118.766 306.799C117.609 318.279 115.48 329.591 113.017 340.857C111.755 346.621 110.431 352.37 109.175 358.136C107.95 363.754 106.637 369.4 105.665 375.071C104.71 380.644 103.855 386.26 103.471 391.904L103.424 392.641C103.259 395.376 102.47 399.398 103.977 401.821C105.607 404.447 108.733 404.494 110.482 401.986C112.123 399.634 111.715 395.447 112.004 392.641C112.294 389.779 112.615 386.92 112.966 384.065C113.656 378.499 114.567 372.945 115.513 367.417C117.485 355.904 120.344 344.537 122.456 333.041C124.619 321.263 126.156 309.402 126.222 297.41C126.287 285.317 125.006 273.247 124.36 261.178C123.703 248.923 122.956 236.675 122.156 224.429V224.429ZM237.611 148.433C236.954 146.223 234.639 144.843 232.379 145.463C230.309 146.032 228.6 148.544 229.409 150.693C230.292 153.038 231.835 155.038 233.137 157.171C234.339 159.14 236.093 160.691 237.318 162.625L235.968 164.079C235.294 164.805 234.616 165.526 233.931 166.235L231.578 168.672C229.752 170.573 227.894 172.442 226.004 174.28C220.428 179.658 214.762 184.858 208.517 189.463C207.1 190.521 205.657 191.543 204.189 192.529L203.639 192.893C202.628 193.554 201.501 194.205 200.28 194.092C197.315 193.821 194.633 190.671 192.595 188.711L192.489 188.608C187.436 183.803 182.759 178.55 178.67 172.901C177.763 171.644 176.881 170.37 176.025 169.078C178.003 166.769 177.531 162.262 177.64 159.462C177.717 157.493 177.722 155.524 177.734 153.553L177.74 153.156C177.762 151.88 177.82 150.656 176.992 149.608C176.945 149.547 176.844 149.549 176.783 149.58C175.649 150.174 175.301 151.17 174.816 152.284L174.766 152.401C174.177 153.739 173.612 155.09 173.043 156.438C172.445 157.848 171.896 159.279 171.342 160.705C171.085 161.368 170.837 162.035 170.597 162.706C170.449 163.134 170.297 163.559 170.142 163.985L170.104 164.016C169.898 164.192 169.724 164.377 169.572 164.567C168.94 164.884 168.438 165.46 168.201 166.308C167.687 168.151 168.75 169.654 169.698 171.118C173.548 177.064 177.936 182.73 182.816 187.87C185.241 190.425 187.786 192.863 190.442 195.177L190.905 195.577C193.288 197.626 195.877 199.566 199.06 200.045C202.787 200.605 205.818 198.753 208.672 196.62L208.956 196.406C211.663 194.364 214.305 192.236 216.875 190.025C222.109 185.509 227.088 180.659 231.506 175.338C235.804 170.162 240.053 164.375 242.703 158.146C242.863 157.768 242.44 157.369 242.107 157.686C240.814 158.932 239.557 160.214 238.337 161.532C238.302 159.596 238.659 157.644 238.461 155.696C238.219 153.329 238.288 150.712 237.611 148.433V148.433Z" fill="black"/>
<path fill-rule="evenodd" clip-rule="evenodd" d="M143.432 99.7714C145.74 83.1222 151.019 66.9588 151.777 50.0624L153.129 28.3696C153.299 23.8517 159.169 22.3283 161.411 26.3291C166.505 20.6813 175.629 21.5118 182.589 21.6841C223.564 23.1361 262.503 50.8319 276.569 89.449C276.907 90.37 276.805 91.3501 276.423 92.2259C282.979 114.084 259.792 128.157 243.979 137.903C237.564 144.68 230.024 150.311 221.51 154.167C211.631 158.794 200.898 161.32 189.991 161.587C187.616 161.641 186.19 159.721 186.017 157.734C182.564 156.93 176.657 157.858 174.831 154.322C154.012 145.281 140.446 122.368 143.432 99.7714V99.7714Z" fill="#FDFBF5"/>
<path fill-rule="evenodd" clip-rule="evenodd" d="M153.172 40.733C153.231 40.1933 152.45 40.1759 152.29 40.6129C150.971 44.208 149.602 47.7771 148.557 51.461C147.55 55.0127 146.823 58.6444 146.088 62.2604C144.87 68.2616 143.822 74.3081 142.954 80.372C141.102 78.927 138.677 78.7947 136.395 79.9194C135.323 80.4486 134.914 81.8449 135.172 82.9278C135.377 83.7966 135.63 84.6619 135.931 85.508C135.285 86.0808 134.736 86.7859 134.337 87.5972C133.285 89.7316 133.625 91.9706 134.567 94.0075C134.496 94.1277 134.424 94.2513 134.356 94.3801C132.992 97.0282 133.722 99.4011 134.72 101.987C135.466 103.919 135.05 106.097 136.66 107.558C137.208 109.369 138.098 111.06 139.281 112.537C139.56 113.045 139.975 113.454 140.47 113.756C140.579 116.6 140.909 119.431 141.456 122.224C143.644 133.107 150.59 142.804 159.186 149.645C167.599 156.337 177.478 160.336 188.139 161.63C193.315 162.258 198.499 162.06 203.633 161.163L204.273 161.05C209.01 160.19 214.743 158.767 218.018 155.195C219.741 153.316 218.734 149.181 215.689 149.571C214.076 149.779 212.672 150.036 211.151 150.632C209.966 151.097 208.78 151.544 207.564 151.924C205.233 152.648 202.823 153.214 200.405 153.527C195.365 154.178 190.126 154.006 185.146 153.022C176.086 151.236 167.283 147.115 160.409 140.91C152.417 133.697 147.733 124.36 147.043 113.594C146.276 101.602 147.661 89.3225 148.811 77.3932C149.41 71.1863 150.167 64.9956 151.081 58.8272C151.975 52.7998 152.511 46.783 153.172 40.733V40.733ZM223.896 2.00973L223.51 1.95053C208.125 -0.389368 191.937 -0.223974 177.477 6.1237C174.705 7.3424 171.992 8.80832 169.438 10.5128C167.607 10.3212 165.768 10.1663 163.961 10.1419C161.686 10.1123 159.466 11.2927 159.187 13.5926C157.057 13.8572 155.093 14.6407 153.839 16.2093C153.359 16.8104 153.023 17.5131 152.856 18.2637C151.546 18.5718 150.262 19.0471 149.043 19.6722C147.564 20.433 146.71 22.5518 147.233 24.1204C147.352 24.474 147.49 24.8215 147.644 25.1615L147.762 25.4157L147.693 25.5114C146.511 27.4091 147.332 29.9005 149.142 31.0339C150.501 31.8835 152.017 32.5607 153.578 32.8881C153.449 33.5148 153.33 34.1433 153.236 34.7805C153.198 35.0382 153.529 35.221 153.677 34.9668C153.677 34.9668 153.118 36.7078 152.274 38.6247C151.943 39.3785 153.003 40.0488 153.409 39.2862C154.484 37.2562 155.149 35.174 156.125 33.0796C157.046 33.0238 157.949 32.8008 158.79 32.4215C159.339 32.1621 159.795 31.7395 160.095 31.2115C160.114 31.2324 160.125 31.2585 160.144 31.2846C163.048 35.019 168.724 36.3283 173.111 37.5104C177.822 38.7813 182.644 39.5648 187.484 40.1411C195.935 41.1456 204.45 41.3336 212.942 41.7236L214.628 41.8037C218.076 44.8296 222.518 46.7081 227.074 47.2809C229.62 47.5889 232.2 47.4624 234.703 46.9066C235.645 47.868 236.822 48.5672 238.118 48.9348C238.349 53.7557 241.039 58.3188 245.102 60.9791L245.031 61.2646C244.02 65.382 244.034 69.8808 247.654 72.7412C248.147 73.1277 248.68 73.4604 249.243 73.7336L249.119 74.0191C247.25 78.389 246.653 83.2151 250.168 86.8398C251.593 88.3092 254.095 87.961 255.165 86.2757L255.217 86.1904C255.276 86.0895 255.339 85.9937 255.402 85.8945C255.493 86.0961 255.655 86.2567 255.858 86.3454C257.194 86.9199 257.727 86.4969 258.947 85.9049C260.078 85.3612 261.26 84.9308 262.477 84.6201C263.452 84.364 264.445 84.1807 265.447 84.0716C271.726 86.4707 275.781 93.8299 274.818 100.736C274.295 104.497 272.229 108.221 268.63 109.781C267.055 110.465 265.203 110.752 263.499 110.521C261.191 110.208 259.417 108.756 257.029 109.586C256.086 109.913 255.497 110.653 255.447 111.665C255.362 113.254 255.924 114.447 256.874 115.33C255.2 116.728 253.849 118.671 252.395 120.22C250.576 122.159 248.733 124.099 246.768 125.887C244.915 127.59 242.937 129.15 240.849 130.556L240.63 130.701C238.01 132.407 234.71 133.92 234.585 137.485C234.545 138.56 235.196 139.545 236.079 140.093C239.381 142.139 242.973 139.453 245.56 137.485C246.597 136.699 247.607 135.878 248.59 135.024C249.311 135.074 250.034 134.942 250.691 134.641C251.168 134.43 251.634 134.194 252.086 133.934C253.569 134.306 254.968 133.979 256.119 133.203C257.78 133.61 259.539 133.659 261.032 133.331C262.36 133.033 263.593 132.411 264.621 131.521C266.72 132.189 269.05 132.066 271.119 130.795C272.358 130.034 273.327 128.948 273.855 127.678C274.135 127.247 274.291 126.746 274.306 126.232V126.026C276.109 126.068 277.916 125.448 279.311 124.022C280.522 122.788 281.227 121.145 281.288 119.417C283.172 118.89 284.834 117.767 286.025 116.217C288.116 113.515 288.395 110.178 287.32 107.197C287.39 107.04 287.453 106.88 287.508 106.717C289.175 104.365 290.276 101.529 290.187 98.6838C290.177 98.2416 290.118 97.8081 290.031 97.3781C291.672 96.5059 292.879 94.9738 293.006 93.0273C293.093 91.5083 292.576 90.0165 291.567 88.8768C292.062 87.7269 292.251 86.4686 292.116 85.2242C291.983 84.0246 291.548 82.8785 290.849 81.8937C290.865 81.549 290.846 81.2037 290.792 80.863C290.858 80.5218 290.914 80.1666 290.942 79.8079C291.255 75.8628 288.531 72.4105 285.215 70.5894C284.344 70.1106 283.4 69.7206 282.457 69.3898C281.773 69.1461 280.743 69.066 280.14 68.622C280.165 68.6029 279.914 68.2791 279.87 68.1067C279.823 67.8926 279.771 67.6836 279.745 67.466C279.646 66.5537 279.72 65.6153 279.738 64.6978C279.82 60.5403 279.691 56.3637 279.252 52.2288C278.438 44.5597 276.433 37.0578 272.524 30.3567C269.245 24.7419 264.754 19.9977 259.606 16.0648C249.349 8.2338 236.55 3.97531 223.896 2.00973V2.00973ZM271.428 97.3729C272.762 94.166 266.477 94.1346 264.816 94.2861L264.766 94.2913C261.025 94.6639 255.179 96.4623 253.647 100.235C253.015 101.797 254.889 103.491 256.389 102.977C257.858 102.474 258.682 101.395 259.862 100.449C260.172 100.203 260.491 99.9689 260.82 99.7476C260.649 100.298 260.372 100.806 259.987 101.186L259.896 101.271C258.086 102.897 261.325 105.451 262.527 103.299C263.171 102.179 263.416 100.874 263.222 99.5961C263.163 99.2114 263.06 98.8614 262.909 98.5254C263.031 98.4662 263.146 98.4018 263.268 98.3443L263.482 98.2434C264.924 97.5905 271.071 95.0243 271.022 97.3189C271.015 97.5731 271.346 97.5731 271.428 97.3729V97.3729Z" fill="black"/>
<path fill-rule="evenodd" clip-rule="evenodd" d="M184.961 132.638C187.457 131.62 189.633 129.947 191.257 127.797C191.506 127.481 191.687 127.118 191.788 126.729C191.889 126.341 191.909 125.935 191.846 125.539C191.714 124.726 191.233 123.991 190.578 123.497C189.921 123.002 189.099 122.758 188.304 122.882C187.613 122.99 186.926 123.368 186.381 124.153L186.268 124.31C185.321 125.604 184.074 126.651 182.633 127.358C181.239 128.043 179.679 128.317 178.135 128.148C175.107 127.807 173.022 126.171 170.804 123.947C170.529 123.667 170.254 123.378 169.978 123.084C169.817 122.835 169.574 122.649 169.292 122.556C168.985 122.46 168.656 122.464 168.352 122.568C168.048 122.672 167.785 122.87 167.602 123.134C167.433 123.383 167.336 123.691 167.367 124.047C167.571 126.35 168.775 128.404 170.485 130.018C172.386 131.811 174.905 133.051 177.276 133.486C179.888 133.965 182.55 133.622 184.961 132.638V132.638ZM176.043 97.1082C173.264 98.7987 169.029 102.737 172.018 106.924C175.539 110.615 180.606 106.382 183.102 104.467C185.417 102.984 188.02 106.8 185.872 108.533C167.827 121.888 160.505 97.5504 174.637 95.1235C176.194 94.8553 176.771 96.5859 176.043 97.1082V97.1082ZM208.377 81.5733C208.071 77.7622 202.266 76.897 201.687 80.668C201.172 84.0455 201.78 87.1497 203.302 90.1912C204.755 93.0952 208.41 91.7407 208.687 89.0944C209.059 85.548 208.569 83.9445 208.377 81.5733V81.5733ZM164.187 79.8863C163.377 78.826 162.208 78.1035 160.809 78.5109C156.435 79.7905 157.724 85.9989 159.261 89.0213C160.095 90.6613 162.794 91.0774 164.013 89.6324C165.999 87.2768 166.952 82.5709 164.424 80.2484C164.356 80.13 164.28 80.0081 164.187 79.8863ZM203.363 64.8997L202.672 64.7779C200.534 64.4088 197.877 64.0536 196.365 65.7702C195.562 66.6825 195.287 68.3765 196.365 69.2488C198.261 70.7808 200.358 70.1889 202.63 70.3177C204.484 70.4238 206.321 70.7368 208.106 71.2509C212.064 72.3826 215.288 74.4456 218.668 76.7124C219.111 77.0084 219.564 76.4426 219.353 76.0282C217.402 72.2067 213.621 69.0694 209.834 67.1561C207.811 66.1341 205.6 65.288 203.363 64.8997ZM168.175 63.1884L167.646 63.2963C161.89 64.4976 154.412 66.9002 151.687 72.5532C151.583 73.3523 151.693 73.5229 151.782 73.6343L151.811 73.6726C151.886 73.7684 151.944 73.899 152.29 74.0086C152.388 73.9853 152.486 73.9609 152.583 73.9355C153.832 73.6082 154.82 73.1573 155.776 72.689L156.815 72.1789C158.018 71.5869 159.233 71.0194 160.52 70.5998C163.265 69.7012 166.091 69.0772 168.959 68.7369C169.571 68.6762 170.155 68.4538 170.653 68.0927C171.126 67.7373 171.461 67.2283 171.6 66.6529C171.802 65.8399 171.743 65.2253 171.308 64.4906C170.98 63.9405 170.51 63.5592 169.971 63.3398C169.4 63.1145 168.776 63.0619 168.175 63.1884V63.1884Z" fill="black"/>
<path fill-rule="evenodd" clip-rule="evenodd" d="M175.034 150.719C175.034 150.719 191.372 153.12 198.686 149.727C205.977 146.346 213.069 143.074 219.682 138.595C226.459 134.006 232.208 128.556 236.311 121.582C240.128 115.091 243.301 108.204 246.496 101.37C246.682 100.97 248.517 97.0006 249.165 95.6687C250.161 93.6056 253.078 94.2533 253.078 97.4567C253.078 100.662 253.221 124.93 247.62 134.476C242.566 143.097 234.001 149.121 225.491 154.38C216.076 160.194 203.569 166.479 192.336 168.139C182.17 169.64 170.569 165.424 163.207 158.473C155.512 151.203 153.332 141.328 149.362 131.871C148.473 129.756 151.618 128.481 152.541 130.56C154.278 134.476 175.034 150.719 175.034 150.719V150.719Z" fill="black"/>
<path fill-rule="evenodd" clip-rule="evenodd" d="M145.028 91.6139C146.068 94.4465 147.653 97.394 149.591 99.7774C157.427 106.412 165.044 102.739 168.909 93.7466C170.38 87.3902 166.477 80.5446 162.345 75.87C156.375 69.888 146.631 73.027 143.887 80.139C143.72 81.0617 143.619 81.9792 143.572 82.8967C143.627 85.8738 143.986 88.4174 145.028 91.2465M220.362 85.9034C210.038 73.6259 190.721 72.9678 191.214 91.8646C193.432 115.784 230.781 109.914 220.362 85.9034ZM141.781 75.6611C142.144 75.0459 142.546 74.454 142.983 73.8888C143.145 73.7913 143.237 72.9365 143.833 72.8738C151.793 64.0939 165.777 69.0749 170.829 77.8234C171.763 78.9576 172.515 80.229 173.059 81.5927C178.038 80.6787 183.842 80.8563 188.472 82.7365C193.063 70.7515 206.963 69.6808 216.124 74.8028C221.821 77.6041 225.514 83.4695 231.056 86.6921C244.08 87.6305 258.061 84.7126 270.85 87.9787C280.937 90.0748 272.505 95.1812 270.814 91.7741C258.754 88.212 244.469 91.2222 231.948 90.4196C230.646 92.6202 228.15 94.4221 225.662 94.3455C222.974 118.161 188.235 114.212 187.037 93.0415C185.678 90.8931 183.988 88.837 181.568 87.4982C180.641 87.3067 179.746 87.0577 178.929 86.6712C177.53 86.4745 175.376 87.0664 174.091 88.2294C169.685 114.656 144.305 111.578 139.77 88.4278C139.68 88.3356 139.427 87.9909 139.234 87.4372C137.681 85.3846 133.882 84.622 134.488 81.1574C135.03 77.6929 139.406 77.7346 141.781 75.6611V75.6611Z" fill="black"/>
</svg>
