<svg fill="none" height="416" viewBox="0 0 460 416" width="460" xmlns="http://www.w3.org/2000/svg"><g clip-rule="evenodd" fill-rule="evenodd"><path d="m89.2062 407.785c-7.1133-.344-4.2526-12.782-3.7422-17.35 5.6324-16.686 4.3084-34.89 6.5227-52.378 1.3798-16.326 3.1533-32.6 4.6446-48.914 2.9285-33.113 23.9637-100.525 47.9667-111.366 3.023-13.265 15.512-25.645 31.312-25.645 10.777-12.753 23.749-21.729 40.387-19.917 6.874.313 13.543 7.603 20.13 9.011 3.689.509 36.426-.8 42.983 3.093 4.566 2.345 8.69 6.678 7.347 12.193-2.143 6.684 4.517-.548 18.409 6.585 28.328 17.008 11.399 39.763 10.65 40.466 17.678 24.59 33.127 44.536 40.277 74.591 4.634 22.313 4.111 45.346 7.993 67.774 1.371 7.777 3.474 15.287 5.749 22.838 2.465 9.884 3.664 34.515 5.024 34.737 2.476.614-1.432 5.696-4.054 5.7-72.738 12.063-146.623.499-219.75-1.39-20.61-.715-41.241-.881-61.8488-.028z" fill="#fdfbf5"/><path d="m199.452 205.733c-.005-.065-.035-.126-.083-.17s-.11-.069-.176-.069c-.065 0-.128.025-.175.069-.048.044-.078.105-.083.17l-.512 4.956c-.626 6.054-1.227 12.095-1.664 18.176-.544 7.582-.906 15.164-1.082 22.765-.612 26.469-.732 52.953-.784 79.43-6.012-.416-12.026-.807-18.042-1.173l-6.202-.376-2.552-.157c-1.725-.106-3.685-.542-4.891.987-.484.611-.726 1.407-.275 2.133 1.039 1.675 2.633 1.615 4.438 1.688 1.702.068 3.402.136 5.104.201 3.648.142 7.294.275 10.943.377 3.827.109 7.654.195 11.482.26.038 11.179.502 22.342 1.002 33.507l.226 5.025c.612 13.586 1.27 27.185 2.206 40.755.077 1.11 1.648 1.109 1.725 0 1.054-15.281 1.749-30.595 2.437-45.897.491-11.091.8-22.189.929-33.291.506.004 1.012.011 1.517.012 14.366.063 28.726.126 43.091-.008-.027.027-.048.059-.065.094-1.038 2.453-1.138 5.583-1.111 8.215.042 3.013.421 6.011 1.13 8.939 2.493 10.521 8.92 19.941 16.242 27.732l.239.252c1.728 1.825 3.709 3.658 4.768 5.981 1.084 2.373 1.46 5.148 1.995 7.697l.063.294 2.09 9.65c.662 3.064.852 7.535 3.279 9.746 2.265 2.064 5.263.986 6.329-1.671.833-2.073.004-4.351-.489-6.423l-3.862-16.226c-.635-2.646-1.328-5.31-2.697-7.688-1.403-2.434-3.459-4.199-5.558-6.005-4-3.435-7.592-7.319-10.705-11.574-3.084-4.237-5.718-8.908-7.567-13.82-.925-2.458-1.683-5.014-2.207-7.589-.496-2.442-.493-4.974-1.024-7.39-.037-.167-.178-.282-.338-.333.038-.108-.021-.254-.173-.263l-11.747-.755c-10.443-.674-20.885-1.363-31.317-2.154l-1.843-.132c.142-14.809.02-29.62-.248-44.434-.244-13.585-.249-27.173-.653-40.757-.202-6.741-.634-13.466-1.117-20.194-.493-6.88-1.282-13.703-1.993-20.562zm110.307 78.768c.125-.754-.824-1.223-1.263-.532-5 7.882-7.413 16.444-8.431 25.67-.897 8.141-.632 16.398-.186 24.562.477 8.705 1.033 17.408 1.596 26.11l.866 13.343 2.169 33.451c.156 2.392.698 4.568 2.759 5.681.262.218.533.413.85.583 1.114.594 2.591.294 3.234-.848l-.258.169c-.226.143.028-.056.758-.592l.618-.801c.447-.639.739-1.373.854-2.145.179-1.25-.052-2.62-.134-3.875l-1.424-21.935c-1.106-17.053-2.397-34.101-3.371-51.161-.453-7.953-.77-15.911-.555-23.878.214-7.921.618-15.977 1.916-23.802zm-43.276-146.836-.278-.047c-9.936-1.651-20.739-1.341-29.819 3.447-.075.038-.042.164.043.16l2.922-.117c9.253-.362 18.477-.576 27.575 1.597l.932.225c3.275.799 6.697 1.777 9.329 3.939 2.516 2.069 3.769 5.258 4.972 8.195l.161.389c1.223 2.898 2.77 5.649 5.447 7.463 3.467 2.349 7.642 2.062 11.619 2.38 7.003.562 12.728 5.637 15.578 11.846 1.725 3.76 2.46 7.975 2.607 12.088.075 2.092.085 4.267-.194 6.347-.089.665-.911 3.087-1.331 3.03-.932-.131-1.782.355-2.073 1.1-2.303-2.228-4.675-4.383-7.113-6.463-6.099-5.205-12.645-9.864-19.561-13.922-5.272-3.084-10.836-6.137-16.594-8.448.466-.013.927.094 1.341.308.192.1.38-.139.23-.297-1.813-1.908-3.988-2.18-6.178-1.672-.468-.148-.935-.292-1.405-.428-.234-.068-.349.254-.159.378l.538.343c-2.39.801-4.737 2.375-6.594 3.616-5.336 3.564-10.033 7.923-14.794 12.199l-.866.777c-4.192 3.741-8.488 7.376-13.251 10.376-2.491 1.572-5.11 3.024-7.855 4.105-2.356.928-6.19 1.511-7.295 4.001-.979 1.191-.569 2.709.579 3.512 1.937 2.131 5.81.753 8.118-.134 2.784-1.067 5.476-2.359 8.049-3.864 4.989-2.93 9.591-6.57 13.878-10.444 4.477-4.046 8.699-8.345 13.054-12.518 1.887-1.809 3.728-3.659 5.618-5.465l.95-.898c.963-.904 2.338-2.314 3.807-3.167 2.768 1.65 5.578 3.233 8.32 4.927 3.828 2.363 7.544 4.896 11.202 7.512 7.052 5.064 13.709 10.656 19.913 16.728 11.361 11.092 21.042 23.758 29.498 37.167l.645 1.022c4.805 7.676 9.348 15.599 12.571 24.081 3.546 9.334 5.27 19.148 6.206 29.056.93 9.836 1.244 19.722 2.282 29.55 1.066 10.078 3.166 19.934 5.554 29.772l.57 2.332c2.16 8.811 4.39 17.622 5.502 26.64.592 4.818.949 9.701.869 14.557-.082 4.885-.85 9.661-1.469 14.494-.237 1.852 1.586 3.398 3.216 3.642 1.877.282 3.486-.914 4.07-2.655 1.817-5.43 2.148-11.433 2.091-17.133-.058-5.786-.797-11.534-1.835-17.221-2.045-11.185-5.2-22.138-7.84-33.19-2.325-9.741-3.885-19.499-4.726-29.477-.875-10.353-1.397-20.74-2.991-31.019-1.572-10.147-4.53-19.839-8.993-29.09-4.065-8.425-9.129-16.354-14.439-24.04-6.45-9.332-13.534-18.213-21.45-26.305.751-.041 1.478-.275 2.112-.679 2.052-1.279 3.007-3.781 3.301-6.065.688-5.347.523-10.927-.854-16.153-2.217-8.43-7.975-15.922-16.318-18.96-2.149-.783-4.433-1.069-6.708-1.125-2.16-.054-4.519.228-6.603-.456-3.317-1.091-4.738-4.996-5.984-7.956l-.057-.136c-1.598-3.773-3.514-7.007-6.973-9.363-3.691-2.514-8.315-3.656-12.669-4.394zm-94.407 14.92c-2.984-1.036-6.718-.096-9.638.808-3.252 1.008-6.259 2.866-8.836 5.07-2.728 2.332-4.957 5.191-6.554 8.405l-.152.308c-1.449 2.978-3.101 7.062-2.369 10.331.02.091.044.18.071.269-5.923 2.916-11.393 6.567-16.158 11.194-5.547 5.39-10.246 11.522-14.22 18.147-15.787 26.311-18.5658 57.912-20.4316 87.918l-.4652 7.608c-1.0122 16.43-2.1968 32.82-5.2735 49.022l-.2247 1.17c-3.291 16.964-8.0001 34.057-7.5227 51.46.1429 5.214 7.8502 5.178 8.0749 0 .8415-19.492 5.3903-38.312 8.4721-57.5 5.4217-33.756 2.7039-68.559 10.3867-101.977 3.014-13.115 7.683-25.836 14.352-37.543 3.293-5.784 7.061-11.372 11.476-16.36 3.798-4.293 7.745-8.425 12.184-12.034 1.418 1.421 4.253.697 4.993-1.374.509-1.424.361-3.086.687-4.577.298-1.389.726-2.748 1.277-4.058 1.144-2.628 2.703-5.055 4.618-7.188 2.02-2.251 4.372-4.179 6.976-5.718 2.629-1.569 5.505-2.037 8.277-3.182.094-.039.103-.164 0-.199zm-11.599 180.408c-.002-.031-.012-.06-.029-.085s-.041-.044-.07-.056c-.028-.011-.058-.015-.088-.009-.03.005-.058.019-.08.04-1.045.963-1.679 2.345-2.45 3.531-.888 1.365-1.82 2.703-2.799 4.006-1.96 2.611-4.143 5.071-6.342 7.482-2.053 2.247-4.218 4.388-6.487 6.416-2.452 2.194-5.197 4.151-7.424 6.581-4.646 5.068-5.397 12.025-6.376 18.557l-.108.707c-.598 3.877-1.132 7.765-1.615 11.658-.235 1.892-.47 3.788-.66 5.686l-.06.602c-.17 1.858-.216 3.743.851 5.368 1.142 1.737 3.742 2.345 5.285.681 2.655-2.863 2.157-7.946 2.502-11.627.286-3.044.61-6.085.972-9.121l.185-1.518c.427-3.452.773-6.976 1.563-10.37.696-2.987 2.024-5.243 4.203-7.409 2.194-2.18 4.474-4.217 6.5-6.565 2.143-2.499 4.092-5.156 5.831-7.95 1.493-2.383 2.692-4.979 3.788-7.57l.183-.433c1.059-2.526 2.806-5.817 2.725-8.602zm-38.321-108.564c-.023-.353-.544-.359-.552 0l-.192 9.097c-.507 24.433-.193 48.924-2.646 73.273-1.157 11.48-3.286 22.792-5.749 34.058-1.262 5.764-2.586 11.513-3.842 17.279-1.225 5.618-2.538 11.264-3.51 16.935-.955 5.573-1.81 11.189-2.194 16.833l-.047.737c-.165 2.735-.954 6.757.553 9.18 1.63 2.626 4.756 2.673 6.505.165 1.641-2.352 1.233-6.539 1.522-9.345.29-2.862.611-5.721.962-8.576.69-5.566 1.601-11.12 2.547-16.648 1.972-11.513 4.831-22.88 6.943-34.376 2.163-11.778 3.7-23.639 3.766-35.631.065-12.093-1.216-24.163-1.862-36.232-.657-12.255-1.404-24.503-2.204-36.749zm115.455-75.996c-.657-2.21-2.972-3.59-5.232-2.97-2.07.569-3.779 3.081-2.97 5.23.883 2.345 2.426 4.345 3.728 6.478 1.202 1.969 2.956 3.52 4.181 5.454l-1.35 1.454c-.674.726-1.352 1.447-2.037 2.156l-2.353 2.437c-1.826 1.901-3.684 3.77-5.574 5.608-5.576 5.378-11.242 10.578-17.487 15.183-1.417 1.058-2.86 2.08-4.328 3.066l-.55.364c-1.011.661-2.138 1.312-3.359 1.199-2.965-.271-5.647-3.421-7.685-5.381l-.106-.103c-5.053-4.805-9.73-10.058-13.819-15.707-.907-1.257-1.789-2.531-2.645-3.823 1.978-2.309 1.506-6.816 1.615-9.616.077-1.969.082-3.938.094-5.909l.006-.397c.022-1.276.08-2.5-.748-3.548-.047-.061-.148-.059-.209-.028-1.134.594-1.482 1.59-1.967 2.704l-.05.117c-.589 1.338-1.154 2.689-1.723 4.037-.598 1.41-1.147 2.841-1.701 4.267-.257.663-.505 1.33-.745 2.001-.148.428-.3.853-.455 1.279l-.038.031c-.206.176-.38.361-.532.551-.632.317-1.134.893-1.371 1.741-.514 1.843.549 3.346 1.497 4.81 3.85 5.946 8.238 11.612 13.118 16.752 2.425 2.555 4.97 4.993 7.626 7.307l.463.4c2.383 2.049 4.972 3.989 8.155 4.468 3.727.56 6.758-1.292 9.612-3.425l.284-.214c2.707-2.042 5.349-4.17 7.919-6.381 5.234-4.516 10.213-9.366 14.631-14.687 4.298-5.176 8.547-10.963 11.197-17.192.16-.378-.263-.777-.596-.46-1.293 1.246-2.55 2.528-3.77 3.846-.035-1.936.322-3.888.124-5.836-.242-2.367-.173-4.984-.85-7.263z" fill="#000"/><path d="m143.432 99.7714c2.308-16.6492 7.587-32.8126 8.345-49.709l1.352-21.6928c.17-4.5179 6.04-6.0413 8.282-2.0405 5.094-5.6478 14.218-4.8173 21.178-4.645 40.975 1.452 79.914 29.1478 93.98 67.7649.338.921.236 1.9011-.146 2.7769 6.556 21.8581-16.631 35.9311-32.444 45.6771-6.415 6.777-13.955 12.408-22.469 16.264-9.879 4.627-20.612 7.153-31.519 7.42-2.375.054-3.801-1.866-3.974-3.853-3.453-.804-9.36.124-11.186-3.412-20.819-9.041-34.385-31.954-31.399-54.5506z" fill="#fdfbf5"/><g fill="#000"><path d="m153.172 40.733c.059-.5397-.722-.5571-.882-.1201-1.319 3.5951-2.688 7.1642-3.733 10.8481-1.007 3.5517-1.734 7.1834-2.469 10.7994-1.218 6.0012-2.266 12.0477-3.134 18.1116-1.852-1.445-4.277-1.5773-6.559-.4526-1.072.5292-1.481 1.9255-1.223 3.0084.205.8688.458 1.7341.759 2.5802-.646.5728-1.195 1.2779-1.594 2.0892-1.052 2.1344-.712 4.3734.23 6.4103-.071.1202-.143.2438-.211.3726-1.364 2.6481-.634 5.021.364 7.6069.746 1.932.33 4.11 1.94 5.571.548 1.811 1.438 3.502 2.621 4.979.279.508.694.917 1.189 1.219.109 2.844.439 5.675.986 8.468 2.188 10.883 9.134 20.58 17.73 27.421 8.413 6.692 18.292 10.691 28.953 11.985 5.176.628 10.36.43 15.494-.467l.64-.113c4.737-.86 10.47-2.283 13.745-5.855 1.723-1.879.716-6.014-2.329-5.624-1.613.208-3.017.465-4.538 1.061-1.185.465-2.371.912-3.587 1.292-2.331.724-4.741 1.29-7.159 1.603-5.04.651-10.279.479-15.259-.505-9.06-1.786-17.863-5.907-24.737-12.112-7.992-7.213-12.676-16.55-13.366-27.316-.767-11.992.618-24.2715 1.768-36.2008.599-6.2069 1.356-12.3976 2.27-18.566.894-6.0274 1.43-12.0442 2.091-18.0942zm70.724-38.72327-.386-.0592c-15.385-2.339898-31.573-2.174504-46.033 4.17317-2.772 1.2187-5.485 2.68462-8.039 4.3891-1.831-.1916-3.67-.3465-5.477-.3709-2.275-.0296-4.495 1.1508-4.774 3.4507-2.13.2646-4.094 1.0481-5.348 2.6167-.48.6011-.816 1.3038-.983 2.0544-1.31.3081-2.594.7834-3.813 1.4085-1.479.7608-2.333 2.8796-1.81 4.4482.119.3536.257.7011.411 1.0411l.118.2542-.069.0957c-1.182 1.8977-.361 4.3891 1.449 5.5225 1.359.8496 2.875 1.5268 4.436 1.8542-.129.6267-.248 1.2552-.342 1.8924-.038.2577.293.4405.441.1863 0 0-.559 1.741-1.403 3.6579-.331.7538.729 1.4241 1.135.6615 1.075-2.03 1.74-4.1122 2.716-6.2066.921-.0558 1.824-.2788 2.665-.6581.549-.2594 1.005-.682 1.305-1.21.019.0209.03.047.049.0731 2.904 3.7344 8.58 5.0437 12.967 6.2258 4.711 1.2709 9.533 2.0544 14.373 2.6307 8.451 1.0045 16.966 1.1925 25.458 1.5825l1.686.0801c3.448 3.0259 7.89 4.9044 12.446 5.4772 2.546.308 5.126.1815 7.629-.3743.942.9614 2.119 1.6606 3.415 2.0282.231 4.8209 2.921 9.384 6.984 12.0443l-.071.2855c-1.011 4.1174-.997 8.6162 2.623 11.4766.493.3865 1.026.7192 1.589.9924l-.124.2855c-1.869 4.3699-2.466 9.196 1.049 12.8207 1.425 1.4694 3.927 1.1212 4.997-.5641l.052-.0853c.059-.1009.122-.1967.185-.2959.091.2016.253.3622.456.4509 1.336.5745 1.869.1515 3.089-.4405 1.131-.5437 2.313-.9741 3.53-1.2848.975-.2561 1.968-.4394 2.97-.5485 6.279 2.3991 10.334 9.7583 9.371 16.6644-.523 3.761-2.589 7.485-6.188 9.045-1.575.684-3.427.971-5.131.74-2.308-.313-4.082-1.765-6.47-.935-.943.327-1.532 1.067-1.582 2.079-.085 1.589.477 2.782 1.427 3.665-1.674 1.398-3.025 3.341-4.479 4.89-1.819 1.939-3.662 3.879-5.627 5.667-1.853 1.703-3.831 3.263-5.919 4.669l-.219.145c-2.62 1.706-5.92 3.219-6.045 6.784-.04 1.075.611 2.06 1.494 2.608 3.302 2.046 6.894-.64 9.481-2.608 1.037-.786 2.047-1.607 3.03-2.461.721.05 1.444-.082 2.101-.383.477-.211.943-.447 1.395-.707 1.483.372 2.882.045 4.033-.731 1.661.407 3.42.456 4.913.128 1.328-.298 2.561-.92 3.589-1.81 2.099.668 4.429.545 6.498-.726 1.239-.761 2.208-1.847 2.736-3.117.28-.431.436-.932.451-1.446v-.206c1.803.042 3.61-.578 5.005-2.004 1.211-1.234 1.916-2.877 1.977-4.605 1.884-.527 3.546-1.65 4.737-3.2 2.091-2.702 2.37-6.039 1.295-9.02.07-.157.133-.317.188-.48 1.667-2.352 2.768-5.188 2.679-8.0332-.01-.4422-.069-.8757-.156-1.3057 1.641-.8722 2.848-2.4043 2.975-4.3508.087-1.519-.43-3.0108-1.439-4.1505.495-1.1499.684-2.4082.549-3.6526-.133-1.1996-.568-2.3457-1.267-3.3305.016-.3447-.003-.69-.057-1.0307.066-.3412.122-.6964.15-1.0551.313-3.9451-2.411-7.3974-5.727-9.2185-.871-.4788-1.815-.8688-2.758-1.1996-.684-.2437-1.714-.3238-2.317-.7678.025-.0191-.226-.3429-.27-.5153-.047-.2141-.099-.4231-.125-.6407-.099-.9123-.025-1.8507-.007-2.7682.082-4.1575-.047-8.3341-.486-12.469-.814-7.6691-2.819-15.171-6.728-21.8721-3.279-5.6148-7.77-10.359-12.918-14.2919-10.257-7.831-23.056-12.08949-35.71-14.05507zm47.532 95.36317c1.334-3.2069-4.951-3.2383-6.612-3.0868l-.05.0052c-3.741.3726-9.587 2.171-11.119 5.9437-.632 1.562 1.242 3.256 2.742 2.742 1.469-.503 2.293-1.582 3.473-2.528.31-.246.629-.4801.958-.7014-.171.5504-.448 1.0584-.833 1.4384l-.091.085c-1.81 1.626 1.429 4.18 2.631 2.028.644-1.12.889-2.425.695-3.7029-.059-.3847-.162-.7347-.313-1.0707.122-.0592.237-.1236.359-.1811l.214-.1009c1.442-.6529 7.589-3.2191 7.54-.9245-.007.2542.324.2542.406.054z"/><path d="m184.961 132.638c2.496-1.018 4.672-2.691 6.296-4.841.249-.316.43-.679.531-1.068.101-.388.121-.794.058-1.19-.132-.813-.613-1.548-1.268-2.042-.657-.495-1.479-.739-2.274-.615-.691.108-1.378.486-1.923 1.271l-.113.157c-.947 1.294-2.194 2.341-3.635 3.048-1.394.685-2.954.959-4.498.79-3.028-.341-5.113-1.977-7.331-4.201-.275-.28-.55-.569-.826-.863-.161-.249-.404-.435-.686-.528-.307-.096-.636-.092-.94.012s-.567.302-.75.566c-.169.249-.266.557-.235.913.204 2.303 1.408 4.357 3.118 5.971 1.901 1.793 4.42 3.033 6.791 3.468 2.612.479 5.274.136 7.685-.848zm-8.918-35.5298c-2.779 1.6905-7.014 5.6288-4.025 9.8158 3.521 3.691 8.588-.542 11.084-2.457 2.315-1.483 4.918 2.333 2.77 4.066-18.045 13.355-25.367-10.9826-11.235-13.4095 1.557-.2682 2.134 1.4624 1.406 1.9847zm32.334-15.5349c-.306-3.8111-6.111-4.6763-6.69-.9053-.515 3.3775.093 6.4817 1.615 9.5232 1.453 2.904 5.108 1.5495 5.385-1.0968.372-3.5464-.118-5.1499-.31-7.5211zm-44.19-1.687c-.81-1.0603-1.979-1.7828-3.378-1.3754-4.374 1.2796-3.085 7.488-1.548 10.5104.834 1.64 3.533 2.0561 4.752.6111 1.986-2.3556 2.939-7.0615.411-9.384-.068-.1184-.144-.2403-.237-.3621zm39.176-14.9866-.691-.1218c-2.138-.3691-4.795-.7243-6.307.9923-.803.9123-1.078 2.6063 0 3.4786 1.896 1.532 3.993.9401 6.265 1.0689 1.854.1061 3.691.4191 5.476.9332 3.958 1.1317 7.182 3.1947 10.562 5.4615.443.296.896-.2698.685-.6842-1.951-3.8215-5.732-6.9588-9.519-8.8721-2.023-1.022-4.234-1.8681-6.471-2.2564zm-35.188-1.7113-.529.1079c-5.756 1.2013-13.234 3.6039-15.959 9.2569-.104.7991.006.9697.095 1.0811l.029.0383c.075.0958.133.2264.479.336.098-.0233.196-.0477.293-.0731 1.249-.3273 2.237-.7782 3.193-1.2465l1.039-.5101c1.203-.592 2.418-1.1595 3.705-1.5791 2.745-.8986 5.571-1.5226 8.439-1.8629.612-.0607 1.196-.2831 1.694-.6442.473-.3554.808-.8644.947-1.4398.202-.813.143-1.4276-.292-2.1623-.328-.5501-.798-.9314-1.337-1.1508-.571-.2253-1.195-.2779-1.796-.1514z"/><path d="m175.034 150.719s16.338 2.401 23.652-.992c7.291-3.381 14.383-6.653 20.996-11.132 6.777-4.589 12.526-10.039 16.629-17.013 3.817-6.491 6.99-13.378 10.185-20.212.186-.4 2.021-4.3694 2.669-5.7013.996-2.0631 3.913-1.4154 3.913 1.788 0 3.2053.143 27.4733-5.458 37.0193-5.054 8.621-13.619 14.645-22.129 19.904-9.415 5.814-21.922 12.099-33.155 13.759-10.166 1.501-21.767-2.715-29.129-9.666-7.695-7.27-9.875-17.145-13.845-26.602-.889-2.115 2.256-3.39 3.179-1.311 1.737 3.916 22.493 20.159 22.493 20.159z"/><path d="m145.028 91.6139c1.04 2.8326 2.625 5.7801 4.563 8.1635 7.836 6.6346 15.453 2.9616 19.318-6.0308 1.471-6.3564-2.432-13.202-6.564-17.8766-5.97-5.982-15.714-2.843-18.458 4.269-.167.9227-.268 1.8402-.315 2.7577.055 2.9771.414 5.5207 1.456 8.3498m75.334-5.3431c-10.324-12.2775-29.641-12.9356-29.148 5.9612 2.218 23.9194 39.567 18.0494 29.148-5.9612zm-78.581-10.2423c.363-.6152.765-1.2071 1.202-1.7723.162-.0975.254-.9523.85-1.015 7.96-8.7799 21.944-3.7989 26.996 4.9496.934 1.1342 1.686 2.4056 2.23 3.7693 4.979-.914 10.783-.7364 15.413 1.1438 4.591-11.985 18.491-13.0557 27.652-7.9337 5.697 2.8013 9.39 8.6667 14.932 11.8893 13.024.9384 27.005-1.9795 39.794 1.2866 10.087 2.0961 1.655 7.2025-.036 3.7954-12.06-3.5621-26.345-.5519-38.866-1.3545-1.302 2.2006-3.798 4.0025-6.286 3.9259-2.688 23.8155-37.427 19.8665-38.625-1.304-1.359-2.1484-3.049-4.2045-5.469-5.5433-.927-.1915-1.822-.4405-2.639-.827-1.399-.1967-3.553.3952-4.838 1.5582-4.406 26.4266-29.786 23.3486-34.321.1984-.09-.0922-.343-.4369-.536-.9906-1.553-2.0526-5.352-2.8152-4.746-6.2798.542-3.4645 4.918-3.4228 7.293-5.4963z"/></g></g></svg>