<svg width="300" height="284" viewBox="0 0 300 284" fill="none" xmlns="http://www.w3.org/2000/svg">
<path d="M68.5367 65.7637L53.7172 60.621C58.1745 59.6219 64.2331 59.3209 72.4561 60.2239C70.0196 64.0881 68.5865 68.4996 68.2869 73.0581L68.5367 65.7637ZM54.3193 99.5717C54.3193 96.773 45.9169 82.4275 43.0029 77.5346L68.2741 73.3911C68.1588 78.175 69.7214 83.5546 75.2227 88.1977L67.2303 93.1162C67.2303 93.1162 67.7042 103.715 68.4534 118.861C63.5988 118.648 58.8427 117.42 54.4921 115.256C54.3961 106.315 54.3193 100.334 54.3193 99.5717ZM81.3707 234.522C81.2128 235.351 81.2928 236.208 81.6014 236.994C75.8583 237.611 70.0859 237.915 64.3099 237.904C40.7999 237.904 21.7344 233.158 21.7344 227.298C21.7344 222.316 35.5228 218.14 54.1015 217C55.1517 202.815 54.8892 155.846 54.6011 125.759C59.1996 127.433 64.0411 128.344 68.9337 128.455C69.3116 135.826 69.7343 143.844 70.1889 151.991C63.9832 154.2 59.6476 157.927 60.4994 160.322C60.5307 160.414 60.5714 160.502 60.621 160.585L60.5954 160.591C60.2987 163.27 60.7325 165.978 61.8506 168.43C62.2028 169.141 62.7921 170.704 63.5478 172.766L63.5414 173.195C63.5414 173.195 59.1608 182.456 61.0821 182.398C62.5251 182.287 63.9467 181.984 65.309 181.495C65.309 181.495 65.3857 185.107 67.1533 185.107C67.1533 185.107 66.9996 188.873 69.3052 188.949C69.3052 188.949 68.4854 192.786 70.6885 193.561H71.8413L72.0462 193.311C72.328 193.83 72.6097 194.323 72.8917 194.784V194.79C73.5896 204.172 74.2877 212.024 74.9474 217.026C89.9141 217.986 101.698 220.92 105.547 224.653C98.1628 226.517 82.0817 230.974 81.3707 234.522Z" fill="black"/>
<path d="M54.5791 125.819C48.3112 123.587 42.5573 120.115 37.6607 115.61C32.7996 111.043 28.794 105.643 25.8331 99.6667C22.8671 93.6845 20.9379 87.2423 20.1276 80.6146C19.8973 78.9645 19.755 77.3033 19.7013 75.638L19.618 73.1406C19.5977 72.3083 19.6487 71.4755 19.6607 70.6431C19.7853 67.3134 20.1711 63.9985 20.8146 60.7292C22.1243 54.1892 24.5404 47.9206 27.9589 42.1934C31.3633 36.4762 35.7687 31.4182 40.9646 27.2612C46.1699 23.1154 52.1717 20.0836 58.5975 18.354C65.0475 16.6579 71.7892 16.3848 78.3552 17.5538C84.9325 18.7637 91.1749 21.3666 96.6634 25.1876C102.16 29.007 106.877 33.8398 110.562 39.4269C116.016 47.875 119.32 57.5289 120.188 67.5471C121.055 77.5653 119.458 87.6435 115.536 96.903C112.896 103.046 109.19 108.673 104.591 113.526C99.9936 118.374 94.4637 122.241 88.3337 124.897C82.2107 127.513 75.5869 128.75 68.9323 128.519L68.9348 128.391C75.5348 128.431 82.0647 127.036 88.0727 124.304C94.0447 121.568 99.4122 117.671 103.862 112.839C112.813 103.25 117.987 90.4501 118.923 77.4379C119.407 70.9103 118.857 64.3471 117.29 57.9917C115.753 51.6269 113.137 45.5724 109.556 40.0907C105.979 34.6014 101.416 29.8217 96.099 25.9932C90.7622 22.1646 84.668 19.5221 78.2256 18.243C71.7611 16.9711 65.0941 17.158 58.711 18.79C52.3226 20.4423 46.3645 23.4496 41.241 27.6079C38.6781 29.6685 36.319 31.9706 34.1963 34.4823C32.0859 37 30.2045 39.7011 28.5745 42.5535C25.3178 48.2588 23.0465 54.4724 21.856 60.933C21.2424 64.149 20.8822 67.4082 20.7785 70.6806C20.7717 71.4986 20.7258 72.3167 20.7506 73.1344L20.8471 75.5866C20.8621 77.2247 21.0737 78.8481 21.2434 80.4753C21.9926 86.9931 23.843 93.3364 26.7158 99.2347C29.5651 105.153 33.4248 110.529 38.1213 115.121C42.8897 119.676 48.4927 123.267 54.6227 125.698L54.5791 125.819Z" fill="black"/>
<path d="M54.5177 115.198C55.1343 115.255 55.7431 115.377 56.3338 115.563C56.6233 115.645 56.9094 115.733 57.1872 115.84C57.4711 115.933 57.7457 116.052 58.0073 116.197C58.5198 116.526 59.0513 116.825 59.599 117.092C60.1667 117.303 60.7642 117.424 61.3695 117.45C61.9723 117.472 62.5736 117.523 63.171 117.606C63.7637 117.677 64.3557 117.728 64.9387 117.838C66.1363 118.054 67.3124 118.375 68.4535 118.797L68.448 118.925C67.2397 119.253 65.9793 119.343 64.7367 119.191C64.1248 119.105 63.5205 118.972 62.9292 118.792C62.3307 118.627 61.7494 118.405 61.1935 118.129C60.6456 117.853 60.0692 117.637 59.4745 117.486C58.884 117.337 58.2398 117.333 57.6334 117.198C57.0369 117.039 56.4663 116.795 55.9394 116.474C55.3911 116.163 54.8927 115.772 54.4609 115.313L54.5177 115.198Z" fill="black"/>
<path d="M109.713 72.7895C109.738 77.5429 109.127 82.2782 107.896 86.8694C106.699 91.485 104.846 95.9049 102.394 99.9943L102.444 99.822L102.444 99.8283L102.445 99.9176L102.394 100.001C100.071 103.873 97.1601 107.361 93.7666 110.34C90.3497 113.329 86.4248 115.68 82.178 117.283C73.5704 120.46 64.0534 120.089 55.7194 116.252C53.6782 115.297 51.717 114.18 49.8546 112.912C48.0181 111.616 46.2836 110.181 44.6663 108.62C43.0484 107.064 41.5503 105.388 40.1848 103.607C39.5339 102.695 38.8601 101.797 38.2552 100.853C37.6706 99.8972 37.0443 98.9662 36.525 97.9725C32.1487 90.0846 29.8802 81.2016 29.9386 72.1813C29.9434 67.6768 30.5216 63.1912 31.6592 58.8327C32.2206 56.6491 32.9425 54.5099 33.819 52.4326L34.4729 50.8722C34.6848 50.349 34.9644 49.8569 35.207 49.3477L35.9618 47.8317C36.2308 47.3357 36.5241 46.8526 36.808 46.3645C39.0943 42.4516 41.9548 38.9038 45.2938 35.8396C48.6527 32.7685 52.5294 30.3173 56.744 28.5996C65.2798 25.1317 74.8372 25.1608 83.3518 28.6805C87.5329 30.4554 91.3742 32.9425 94.7047 36.0311C98.001 39.1178 100.806 42.6903 103.022 46.6248L103.068 46.7052L103.067 46.7884L103.067 46.7945L103.022 46.6313C105.269 50.6041 106.964 54.8642 108.062 59.2944C109.185 63.7039 109.74 68.2391 109.713 72.7895ZM109.585 72.7895C109.561 68.2566 108.959 63.7453 107.791 59.3654C106.599 55.0033 104.807 50.8277 102.468 46.9581L102.424 46.8869L102.423 46.7945L102.423 46.7884L102.467 46.9516C100.172 43.1629 97.3203 39.741 94.0074 36.8006C90.7228 33.8623 86.9535 31.5161 82.867 29.8661C74.6605 26.4999 65.4589 26.4984 57.2513 29.8619C53.1672 31.4927 49.404 33.8335 46.1357 36.7758C42.8646 39.7329 40.0555 43.1639 37.802 46.9542C37.5231 47.4294 37.2241 47.8934 36.9547 48.3742L36.1931 49.8428C35.9478 50.3365 35.6655 50.8129 35.45 51.3212L34.7849 52.8378C33.891 54.86 33.148 56.9455 32.562 59.0774C31.3709 63.3492 30.7284 67.7552 30.65 72.1893C30.5559 76.6331 31.0216 81.0711 32.0363 85.3986C33.0919 89.7216 34.7156 93.8857 36.865 97.7822C37.9517 99.7209 39.1767 101.579 40.5304 103.341C41.8967 105.092 43.3934 106.737 45.0075 108.262C46.6183 109.786 48.3555 111.17 50.2004 112.401C52.056 113.605 54.0052 114.659 56.0291 115.552C64.2151 119.05 73.4285 119.285 81.7822 116.209C90.0683 113.194 97.0368 107.077 101.841 99.6554L101.791 99.8283L101.791 99.822L101.792 99.7242L101.84 99.6493C104.382 95.6676 106.335 91.3392 107.638 86.7986C108.909 82.2367 109.564 77.5252 109.585 72.7895V72.7895Z" fill="black"/>
<path d="M84.9078 91.4514C94.8821 91.4514 102.968 83.3655 102.968 73.3912C102.968 63.4169 94.8821 55.3311 84.9078 55.3311C74.9335 55.3311 66.8477 63.4169 66.8477 73.3912C66.8477 83.3655 74.9335 91.4514 84.9078 91.4514Z" fill="black"/>
<path d="M175.128 46.2133C174.071 47.1072 173.205 48.2054 172.583 49.4421C171.95 50.6716 171.483 51.9795 171.194 53.3317L170.99 54.3469L170.864 55.3752C170.755 56.0578 170.776 56.7536 170.729 57.4412C170.72 58.1316 170.76 58.8229 170.773 59.5125L170.975 61.5757L170.979 61.6175L170.972 61.6589C170.425 64.7842 169.879 67.9257 169.569 71.069C169.484 71.8412 169.454 72.6185 169.478 73.3951C169.541 74.1693 169.661 74.9379 169.835 75.695C170.178 77.223 170.669 78.7141 171.301 80.1473C172.501 83.0285 174.417 85.5557 176.867 87.4896C179.359 89.3417 182.375 90.3534 185.48 90.3784L185.753 90.3823L185.9 90.6186C188.27 94.4277 190.617 98.2437 192.872 102.131C193.432 103.108 193.99 104.081 194.513 105.094C194.643 105.348 194.777 105.596 194.896 105.872L195.08 106.276C195.141 106.445 195.196 106.644 195.242 106.829L195.251 106.865L195.25 106.965C195.248 107.03 195.237 107.094 195.217 107.156C195.183 107.263 195.128 107.362 195.054 107.446C194.962 107.55 194.852 107.636 194.729 107.7C194.568 107.784 194.399 107.85 194.224 107.897C193.932 107.977 193.635 108.04 193.335 108.086C191.052 108.417 188.838 108.508 186.615 108.739C184.407 108.93 182.215 109.266 180.051 109.745C178.989 109.987 177.948 110.317 176.941 110.733C175.953 111.163 175.026 111.719 174.182 112.388C170.747 115.074 168.223 118.853 165.911 122.636C163.6 126.45 161.538 130.424 159.571 134.441C158.572 136.443 157.621 138.469 156.679 140.5C155.717 142.521 154.817 144.571 153.9 146.614C150.309 154.818 146.87 163.089 143.583 171.427L143.518 171.594L143.344 171.552C140.207 170.795 137.105 169.935 134.015 169.024C130.928 168.108 127.855 167.142 124.798 166.125C121.742 165.106 118.707 164.026 115.693 162.883C112.674 161.755 109.698 160.517 106.731 159.255L106.877 159.288L87.5084 158.939L87.8732 158.087C88.4788 158.76 88.9816 159.519 89.3655 160.34C89.7515 161.134 90.0552 161.965 90.2722 162.821C90.6975 164.524 90.8533 166.283 90.7338 168.034C90.6137 169.77 90.2993 171.487 89.7967 173.153C89.2665 174.826 88.6288 176.363 88.2696 177.958C87.8453 179.489 87.8456 181.107 88.2705 182.637C88.5065 183.322 88.9563 183.912 89.5533 184.321C90.1449 184.715 90.8533 184.893 91.5606 184.828C91.9029 184.801 92.1902 184.648 92.1366 184.618C92.2419 184.399 92.3652 184.188 92.5052 183.988C92.6141 183.831 92.7145 183.668 92.8062 183.501C93.138 182.786 93.3725 182.031 93.5037 181.254C93.825 179.636 94.0104 177.957 94.1747 176.283L94.2072 175.952L94.4963 175.784L99.9443 172.618L100.334 172.391L100.696 172.677C108.458 178.799 116.373 184.792 124.695 190.107C126.785 191.415 128.893 192.702 131.067 193.833L132.7 194.678L134.369 195.411C134.648 195.53 134.924 195.663 135.205 195.769L136.057 196.041C136.62 196.245 137.197 196.405 137.785 196.521C140.115 197.077 142.538 197.12 144.886 196.646C146.032 196.355 147.133 195.912 148.161 195.328C149.18 194.706 150.125 193.97 150.978 193.135C151.841 192.277 152.648 191.365 153.394 190.403C154.17 189.461 154.879 188.465 155.515 187.424C156.829 185.343 158.075 183.196 159.327 181.061C161.814 176.776 164.283 172.479 166.735 168.168L181.345 142.254L181.413 142.132L181.505 142.233L183.631 144.563L183.537 144.65L181.359 142.369L181.52 142.349C176.874 151.112 172.173 159.845 167.417 168.549C165.028 172.895 162.646 177.246 160.187 181.557C158.951 183.711 157.728 185.865 156.416 187.99C155.768 189.07 155.047 190.105 154.257 191.085C153.491 192.09 152.662 193.045 151.775 193.944C150.863 194.853 149.851 195.655 148.758 196.334C147.635 196.989 146.428 197.488 145.17 197.819C142.648 198.359 140.038 198.343 137.523 197.771C136.893 197.651 136.273 197.482 135.67 197.265L134.75 196.971C134.452 196.86 134.168 196.724 133.876 196.601L132.14 195.842L130.468 194.981C128.241 193.828 126.11 192.532 123.995 191.215C119.783 188.554 115.71 185.702 111.694 182.775C107.682 179.841 103.733 176.836 99.8588 173.713L100.611 173.772L95.146 176.908L95.4675 176.41C95.2911 178.107 95.0971 179.804 94.7492 181.511C94.5911 182.407 94.3103 183.276 93.9147 184.096C93.6783 184.538 93.3895 184.876 93.2689 185.151L93.2386 185.211C93.2091 185.268 93.1766 185.322 93.1412 185.375C93.0801 185.467 93.0053 185.548 92.9194 185.617C92.7894 185.724 92.6439 185.81 92.4878 185.872C92.2352 185.976 91.9685 186.041 91.6965 186.065C90.6998 186.159 89.7012 185.905 88.8707 185.346C88.0591 184.788 87.4476 183.984 87.1262 183.053C86.6262 181.302 86.6203 179.447 87.1092 177.693C87.311 176.846 87.5623 176.011 87.8617 175.193C88.162 174.37 88.4068 173.611 88.6833 172.817C89.1685 171.236 89.4825 169.608 89.62 167.96C89.7512 166.325 89.6256 164.679 89.2478 163.083C89.0575 162.292 88.787 161.523 88.4403 160.787C88.1124 160.066 87.6837 159.394 87.1672 158.793L86.3789 157.907L87.5321 157.941L106.896 158.514L106.973 158.516L107.043 158.547C109.983 159.838 112.935 161.105 115.931 162.268C118.918 163.451 121.932 164.566 124.972 165.613C128.006 166.676 131.064 167.667 134.146 168.585C137.224 169.508 140.322 170.382 143.438 171.149L143.198 171.274C146.556 162.965 149.861 154.633 153.435 146.411C155.209 142.294 157.002 138.184 158.934 134.134C160.844 130.075 162.854 126.056 165.13 122.17C166.261 120.216 167.493 118.321 168.82 116.494C170.16 114.637 171.745 112.969 173.532 111.536C174.444 110.809 175.445 110.203 176.512 109.733C177.574 109.289 178.672 108.934 179.794 108.673C182.004 108.171 184.244 107.816 186.501 107.611C188.733 107.366 191.002 107.256 193.156 106.964C193.411 106.927 193.663 106.875 193.912 106.809C194.008 106.785 194.101 106.751 194.19 106.708C194.218 106.694 194.228 106.68 194.199 106.712C194.172 106.744 194.153 106.782 194.141 106.822C194.133 106.851 194.127 106.88 194.124 106.911C194.124 106.926 194.125 106.942 194.128 106.957L194.121 106.943C194.088 106.862 194.059 106.779 194.037 106.694L193.874 106.333C193.773 106.093 193.642 105.847 193.518 105.602C193.02 104.621 192.469 103.647 191.92 102.677C189.702 98.8 187.376 94.9691 185.034 91.1568L185.454 91.3969C182.141 91.3477 178.93 90.248 176.283 88.2563C173.731 86.2004 171.751 83.5217 170.534 80.4783C169.902 78.9881 169.417 77.4401 169.085 75.856C168.704 74.2659 168.632 72.6174 168.873 71.0002C169.237 67.8133 169.812 64.6821 170.451 61.556L170.448 61.639L170.292 59.5368C170.296 58.8335 170.272 58.1307 170.299 57.4287C170.363 56.728 170.36 56.0228 170.487 55.329L170.641 54.2858L170.873 53.2568C171.2 51.8879 171.708 50.5684 172.381 49.3328C173.046 48.0879 173.956 46.9906 175.056 46.1074L175.128 46.2133Z" fill="black"/>
<path d="M99.9609 172.639C100.547 172.33 101.089 171.942 101.571 171.487C102.071 171.02 102.499 170.482 102.843 169.89C103.2 169.291 103.447 168.634 103.573 167.948C103.706 167.246 103.735 166.528 103.66 165.818C103.842 166.525 103.92 167.256 103.891 167.986C103.864 168.735 103.705 169.474 103.42 170.167C103.139 170.875 102.755 171.537 102.281 172.134C101.799 172.75 101.231 173.294 100.596 173.752L99.9609 172.639ZM143.287 171.049C144.665 170.618 146.142 170.616 147.521 171.043C148.206 171.283 148.821 171.69 149.307 172.229C149.777 172.765 150.131 173.393 150.346 174.073C150.737 175.41 150.866 176.81 150.727 178.195C150.614 179.566 150.398 180.926 150.078 182.264C150.345 180.92 150.508 179.557 150.567 178.187C150.651 176.831 150.474 175.47 150.044 174.18C149.84 173.554 149.492 172.985 149.027 172.519C148.563 172.053 147.994 171.704 147.369 171.499C146.092 171.162 144.743 171.216 143.497 171.653L143.287 171.049ZM172.058 132.618C172.522 133.67 173.089 134.674 173.75 135.615C174.395 136.553 175.123 137.43 175.926 138.236C176.725 139.047 177.592 139.787 178.517 140.45C179.456 141.119 180.429 141.737 181.434 142.301C180.884 142.116 180.331 141.921 179.794 141.689C179.259 141.448 178.741 141.173 178.241 140.866C177.23 140.257 176.299 139.525 175.47 138.686C174.639 137.847 173.919 136.904 173.329 135.881C172.725 134.872 172.295 133.769 172.058 132.618V132.618Z" fill="black"/>
<path d="M254.055 141.148C250.828 124.318 232.384 95.2682 219.011 100.801C205.639 106.335 210.481 126.393 210.481 126.393C210.481 126.393 210.711 148.526 198.261 148.757C185.812 148.987 191.326 107.75 191.326 107.75C191.326 107.75 190.192 103.338 185.581 105.874C180.97 108.41 182.469 117.517 183.967 127.43C185.466 137.344 183.967 142.301 183.967 142.301C177.448 168.168 192.498 175.501 193.651 176.634C194.259 177.23 198.3 185.03 201.97 192.235C210.058 187.906 214.292 184.691 214.4 184.262C214.631 183.34 215.784 142.301 215.784 142.301C215.784 142.301 204.954 113.648 219.972 107.18C222.536 106.125 225.366 105.901 228.064 106.54C230.761 107.179 233.191 108.648 235.009 110.741C241.81 118.407 253.556 134.36 249.214 149.218C249.214 149.218 245.525 155.212 239.07 151.062C239.07 151.062 236.149 189.488 235.534 196.865C234.92 204.243 223.533 208.591 223.533 208.591L225.698 209.161C241.606 205.703 263.278 209.161 263.278 209.161C262.586 207.317 257.283 157.979 254.055 141.148Z" fill="black"/>
<path d="M202 192.291C198.644 194.186 195.205 195.932 191.722 197.588C188.238 199.241 184.689 200.755 181.112 202.2C177.534 203.642 173.92 204.998 170.261 206.223C166.606 207.459 162.925 208.614 159.217 209.687L159.406 209.591L153.484 214.301L147.529 218.969L141.567 223.629L140.07 224.785C139.562 225.194 139.029 225.569 138.473 225.909C137.345 226.597 136.089 226.975 135.106 227.597C134.126 228.271 133.393 229.248 133.021 230.379L131.631 233.888C130.714 236.224 129.756 238.579 128.871 240.903C128.795 241.508 128.755 242.117 128.752 242.727L128.723 244.614L128.725 248.395C128.743 250.916 128.778 253.437 128.828 255.959L128.759 255.816C129.278 256.244 129.935 256.469 130.608 256.449C130.934 256.402 131.244 256.28 131.514 256.092C131.784 255.903 132.007 255.655 132.163 255.365C132.525 254.763 132.817 254.121 133.033 253.452C133.265 252.78 133.462 252.096 133.624 251.403C134.259 248.613 134.659 245.775 134.821 242.918L134.823 242.89L134.831 242.86L135.837 239.392L136.12 238.417L136.418 239.395C137.241 242.098 138.096 244.802 139.072 247.443C139.32 248.101 139.575 248.758 139.864 249.381C139.991 249.676 140.145 249.958 140.325 250.224C140.414 250.407 140.723 250.513 141.029 250.608C142.371 250.911 143.744 251.048 145.119 251.018L145.248 251.019L145.357 251.086L147.211 252.223L147.32 252.29L147.39 252.429C147.951 253.551 148.769 254.524 149.777 255.271C150.764 255.985 151.987 256.293 153.194 256.132C154.447 255.946 155.652 255.521 156.743 254.879C157.838 254.252 158.818 253.443 159.642 252.487L159.548 253.044C159.383 252.683 159.124 252.373 158.799 252.145C158.453 251.91 158.052 251.766 157.635 251.729C157.184 251.688 156.731 251.718 156.289 251.816C156.061 251.882 155.832 251.936 155.604 252.008L154.925 252.264L154.191 252.54L154.08 251.785L152.895 243.72L152.841 243.354L153.145 243.114C154.808 241.784 156.382 240.347 157.858 238.812C159.34 237.28 160.727 235.659 162.01 233.958C163.265 232.25 164.369 230.436 165.31 228.538C166.195 226.636 166.824 224.625 167.18 222.557L167.221 222.311L167.392 222.16C171.573 218.493 175.856 214.97 180.32 211.659C182.545 209.996 184.815 208.389 187.157 206.883C189.484 205.324 191.943 203.973 194.507 202.847L194.572 202.82L194.623 202.815C197.116 202.611 199.624 202.679 202.102 203.016C203.335 203.166 204.559 203.384 205.772 203.642C206.99 203.888 208.192 204.213 209.368 204.614C211.704 205.384 214.042 206.153 216.395 206.869C217.571 207.227 218.751 207.574 219.938 207.893C220.531 208.051 221.127 208.203 221.725 208.335C222.025 208.399 222.325 208.46 222.627 208.505C222.916 208.567 223.215 208.576 223.507 208.533L223.558 208.65C223.245 208.716 222.921 208.72 222.606 208.663C222.297 208.627 221.992 208.575 221.688 208.52C221.08 208.408 220.478 208.275 219.877 208.136C218.676 207.856 217.482 207.547 216.292 207.227C213.913 206.584 211.543 205.905 209.185 205.191C208.022 204.824 206.836 204.532 205.635 204.318C204.435 204.092 203.228 203.905 202.014 203.786C199.602 203.513 197.168 203.501 194.753 203.749L194.869 203.718C192.381 204.863 189.996 206.22 187.741 207.775C185.448 209.295 183.219 210.92 181.033 212.603C178.841 214.278 176.693 216.012 174.564 217.769C172.435 219.524 170.323 221.312 168.264 223.137L168.477 222.741C168.109 224.94 167.448 227.081 166.512 229.105C165.54 231.085 164.397 232.977 163.096 234.759C161.787 236.519 160.357 238.186 158.818 239.748C157.285 241.32 155.649 242.788 153.923 244.144L154.173 243.538L155.294 251.612L154.449 251.133L155.225 250.848C155.49 250.765 155.766 250.701 156.036 250.628C156.606 250.506 157.193 250.474 157.774 250.534C158.391 250.599 158.98 250.819 159.488 251.175C160.015 251.545 160.423 252.061 160.662 252.658L160.785 252.963L160.568 253.215C159.647 254.287 158.543 255.186 157.307 255.87C156.079 256.564 154.729 257.014 153.331 257.196C152.599 257.281 151.858 257.228 151.145 257.039C150.442 256.842 149.781 256.519 149.191 256.088C148.057 255.224 147.146 254.101 146.536 252.812L146.715 253.018L144.88 251.849L145.119 251.918C143.658 251.926 142.202 251.752 140.784 251.398C140.593 251.34 140.407 251.266 140.227 251.178C140.132 251.129 140.035 251.061 139.941 251.001C139.851 250.918 139.768 250.828 139.693 250.731C139.475 250.411 139.291 250.069 139.145 249.71C138.849 249.044 138.604 248.374 138.363 247.702C137.419 245.012 136.615 242.295 135.837 239.563L136.417 239.566L135.349 243.015L135.359 242.957C135.14 245.837 134.704 248.695 134.055 251.509C133.885 252.215 133.679 252.911 133.439 253.595C133.207 254.293 132.897 254.963 132.513 255.59C132.32 255.931 132.051 256.222 131.727 256.441C131.402 256.659 131.031 256.799 130.643 256.849C129.865 256.875 129.106 256.612 128.51 256.112L128.443 256.06L128.441 255.968L128.277 248.399L128.241 244.612L128.254 242.716C128.251 242.064 128.289 241.413 128.368 240.767C129.219 238.361 130.115 236.018 130.987 233.638L132.304 230.08C132.713 228.79 133.53 227.668 134.632 226.881C135.776 226.135 136.972 225.762 137.986 225.105C138.984 224.471 139.936 223.604 140.929 222.83L146.847 218.111L152.771 213.4L158.729 208.732L158.816 208.664L158.918 208.636C166.318 206.56 173.618 204.164 180.819 201.448C184.416 200.093 187.97 198.626 191.498 197.095C195.027 195.566 198.5 193.909 201.939 192.178L202 192.291ZM238.749 151.059C238.844 147.225 238.98 143.396 239.185 139.568C239.287 137.654 239.406 135.741 239.575 133.831C239.654 132.876 239.755 131.923 239.876 130.972C239.947 130.498 239.994 130.02 240.097 129.551C240.145 129.316 240.183 129.079 240.239 128.847L240.453 128.16L240.259 128.851C240.209 129.085 240.178 129.323 240.137 129.558C240.047 130.028 240.013 130.507 239.956 130.981C239.86 131.933 239.786 132.887 239.735 133.843C239.619 135.753 239.554 137.667 239.504 139.58C239.406 143.407 239.377 147.238 239.39 151.064L238.749 151.059ZM217.658 202.623C218.84 202.124 219.989 201.55 221.098 200.905C222.197 200.276 223.236 199.544 224.199 198.721C225.146 197.895 225.971 196.939 226.649 195.881C227.286 194.78 227.728 193.576 227.956 192.324C227.97 193.642 227.672 194.944 227.085 196.124C226.453 197.289 225.618 198.332 224.619 199.204C222.611 200.892 220.222 202.065 217.658 202.623V202.623ZM225.76 209.147C225.792 209.111 225.732 209.076 225.759 209.085L225.83 209.072L225.973 209.048L226.259 209.001L226.832 208.915L227.982 208.767C228.749 208.675 229.52 208.613 230.292 208.563C231.835 208.466 233.385 208.432 234.935 208.485C238.06 208.548 241.156 209.105 244.107 210.134C245.598 210.673 247.003 211.426 248.278 212.368C249.567 213.332 250.646 214.55 251.448 215.945C251.843 216.64 252.175 217.37 252.44 218.124C252.706 218.851 252.961 219.583 253.21 220.318C253.706 221.786 254.155 223.272 254.557 224.775C255.404 227.784 255.906 230.879 256.054 234.001C256.254 237.163 255.77 240.332 254.634 243.29C253.432 246.247 251.361 248.771 248.695 250.526C247.394 251.404 245.993 252.122 244.522 252.666C243.066 253.217 241.57 253.657 240.047 253.982L240.021 253.988H239.992L232.384 253.946C229.847 253.923 227.311 253.93 224.775 253.945L224.861 253.543C228.123 254.907 231.519 255.926 234.993 256.582C238.437 257.3 241.979 257.416 245.463 256.923C246.318 256.786 247.164 256.589 247.992 256.334C248.823 256.062 249.663 255.775 250.483 255.459C252.138 254.854 253.75 254.147 255.336 253.393C256.911 252.625 258.437 251.759 259.903 250.8C261.368 249.855 262.75 248.788 264.036 247.611C265.305 246.434 266.449 245.129 267.451 243.717C268.427 242.301 269.21 240.76 269.778 239.136C270.068 238.329 270.3 237.502 270.475 236.663C270.562 236.245 270.623 235.823 270.658 235.398C270.697 234.974 270.787 234.557 270.785 234.127C270.839 232.401 270.718 230.673 270.422 228.971C269.223 222.101 266.212 215.559 262.766 209.477L263.123 209.742C260.077 208.982 256.99 208.402 253.877 208.006C250.756 207.606 247.62 207.359 244.468 207.264C241.319 207.171 238.167 207.28 235.031 207.59L232.68 207.848C231.9 207.958 231.125 208.102 230.345 208.228L229.177 208.423L228.067 208.666C227.332 208.816 226.547 208.957 225.76 209.147ZM225.635 209.175C227.162 208.675 228.713 208.252 230.283 207.909C231.059 207.75 231.834 207.573 232.615 207.429L234.97 207.072C238.122 206.649 241.298 206.442 244.478 206.453C247.66 206.445 250.84 206.62 254.002 206.978C257.174 207.325 260.323 207.861 263.432 208.581L263.66 208.635L263.789 208.845C265.645 211.914 267.267 215.118 268.64 218.431C270.049 221.747 271.091 225.207 271.748 228.75C272.072 230.546 272.202 232.371 272.135 234.195C272.132 234.653 272.034 235.112 271.986 235.57C271.942 236.028 271.871 236.484 271.773 236.935C271.578 237.831 271.32 238.713 271.002 239.574C270.38 241.298 269.53 242.932 268.474 244.431C267.407 245.907 266.19 247.268 264.843 248.494C262.129 250.877 259.077 252.846 255.786 254.336C254.153 255.079 252.499 255.772 250.807 256.354C249.963 256.654 249.114 256.92 248.252 257.178C247.377 257.423 246.486 257.606 245.586 257.728C242.011 258.14 238.392 257.938 234.885 257.13C231.393 256.389 227.979 255.316 224.69 253.926L223.737 253.519L224.775 253.525C227.311 253.54 229.847 253.547 232.383 253.524L239.992 253.482L239.936 253.488C241.421 253.135 242.876 252.665 244.287 252.083C245.695 251.517 247.029 250.785 248.262 249.903C250.739 248.178 252.633 245.742 253.694 242.917C254.719 240.079 255.142 237.058 254.935 234.047C254.755 231.008 254.273 227.995 253.498 225.051C253.122 223.571 252.695 222.102 252.217 220.645C251.8 219.196 251.252 217.787 250.582 216.436C249.031 213.864 246.642 211.904 243.815 210.888C240.956 209.821 237.953 209.193 234.906 209.026C233.379 208.912 231.843 208.882 230.307 208.916C229.539 208.932 228.772 208.97 228.004 209.018L226.854 209.104L226.28 209.159L225.993 209.19L225.85 209.207L225.779 209.215C225.753 209.22 225.727 209.218 225.702 209.211C225.678 209.204 225.655 209.192 225.635 209.175V209.175ZM96.668 188.456C97.7281 187.483 98.8449 186.572 100.012 185.731C100.584 185.296 101.176 184.9 101.766 184.486C102.385 184.076 103.033 183.711 103.704 183.392C106.403 182.165 109.421 181.822 112.326 182.411C110.892 182.647 109.497 182.867 108.144 183.204C107.469 183.379 106.8 183.554 106.152 183.791C105.499 184.005 104.86 184.261 104.239 184.555C103.612 184.837 103.003 185.154 102.414 185.507C101.795 185.858 101.185 186.234 100.551 186.568C99.2951 187.273 97.9984 187.903 96.668 188.456V188.456Z" fill="black"/>
<path d="M128.51 245.338C125.393 246.981 122.047 248.148 118.585 248.801C115.115 249.494 111.569 249.722 108.039 249.481C104.515 249.21 101.036 248.519 97.6762 247.422C94.3056 246.399 91.0518 245.025 87.9686 243.321C86.4167 242.476 84.9751 241.442 83.6769 240.244C83.0287 239.632 82.4576 238.943 81.9761 238.193C81.4719 237.433 81.1626 236.561 81.0755 235.654C81.0307 235.188 81.0753 234.718 81.207 234.27C81.3778 233.825 81.6501 233.426 82.0023 233.104C82.6579 232.491 83.3874 231.962 84.1739 231.529C85.7138 230.67 87.3069 229.91 88.9435 229.253C95.4926 226.743 102.207 224.687 109.039 223.1L109.014 224.421C107.54 223.977 106.104 223.417 104.719 222.747C103.338 222.093 102.007 221.34 100.736 220.492C98.1696 218.82 95.8856 216.751 93.9702 214.361C93.0155 213.167 92.1742 211.887 91.4574 210.537C91.0888 209.869 90.7673 209.177 90.4954 208.464L90.0568 207.411L89.6843 206.344C89.1794 204.92 88.7759 203.462 88.4767 201.981C88.147 200.498 88.096 198.967 88.3263 197.465L88.4531 197.483C88.3546 198.965 88.5161 200.452 88.9304 201.878C89.3269 203.31 89.8054 204.718 90.3636 206.094C91.4285 208.843 92.9324 211.4 94.8167 213.666C96.7359 215.888 98.9734 217.815 101.457 219.382C102.693 220.173 103.979 220.883 105.306 221.509C106.617 222.146 107.974 222.68 109.367 223.107L109.384 223.111C109.528 223.154 109.653 223.244 109.741 223.366C109.829 223.488 109.874 223.635 109.869 223.785C109.865 223.935 109.81 224.08 109.715 224.196C109.62 224.312 109.489 224.393 109.342 224.427C105.957 225.21 102.567 226.03 99.2136 226.965C95.8557 227.884 92.5197 228.881 89.2449 230.037C87.6094 230.603 86.0143 231.28 84.4709 232.063C83.7095 232.442 82.9981 232.915 82.3529 233.469C82.0434 233.722 81.8026 234.048 81.6527 234.418C81.5347 234.808 81.4913 235.217 81.5249 235.623C81.595 236.462 81.8709 237.272 82.3283 237.979C82.7722 238.712 83.3189 239.377 83.9516 239.954C85.2455 241.101 86.6759 242.084 88.2104 242.88C91.3219 244.416 94.5884 245.615 97.9545 246.458C101.283 247.385 104.684 248.031 108.121 248.389C115.052 248.939 122.015 247.856 128.45 245.225L128.51 245.338ZM152.599 192.235C155.648 192.265 158.693 192.454 161.723 192.801C163.242 192.94 164.746 193.183 166.258 193.378C167.763 193.615 169.268 193.857 170.767 194.129C173.762 194.69 176.744 195.322 179.694 196.089C182.652 196.826 185.57 197.716 188.437 198.755C182.441 197.658 176.502 196.469 170.535 195.388C167.558 194.823 164.572 194.308 161.584 193.787C158.597 193.253 155.599 192.795 152.599 192.235Z" fill="black"/>
<path d="M109.191 223.763C111.175 224.245 113.116 224.824 115.047 225.427C116.981 226.021 118.894 226.669 120.809 227.307L126.528 229.275C128.443 229.909 130.327 230.596 132.307 231.074C130.26 231.051 128.224 230.769 126.249 230.234C124.268 229.758 122.326 229.155 120.398 228.519C118.48 227.853 116.576 227.151 114.706 226.362C112.824 225.591 110.984 224.724 109.191 223.763V223.763ZM112.88 197.614C116.483 198.807 120.132 199.855 123.804 200.799C127.478 201.736 131.178 202.57 134.906 203.236C135.839 203.39 136.771 203.56 137.705 203.699L140.526 204.114C142.422 204.435 144.289 204.904 146.111 205.518C147.949 206.125 149.719 206.92 151.394 207.889C153.108 208.867 154.639 210.134 155.92 211.635L154.919 212.436C153.767 211.011 152.377 209.797 150.811 208.846C149.225 207.869 147.543 207.058 145.792 206.423C144.032 205.775 142.225 205.267 140.385 204.903L137.587 204.41C136.649 204.243 135.718 204.046 134.784 203.865C131.059 203.09 127.373 202.15 123.721 201.108C120.07 200.059 116.449 198.908 112.88 197.614ZM195.88 239.133C196.665 239.827 197.226 240.404 197.858 240.901C198.17 241.158 198.497 241.396 198.839 241.612C199.187 241.862 199.581 242.051 200.029 242.361C199.54 242.571 199.001 242.639 198.475 242.556C197.948 242.474 197.456 242.246 197.053 241.896C196.642 241.565 196.314 241.141 196.098 240.66C195.874 240.184 195.798 239.652 195.88 239.133V239.133Z" fill="black"/>
<path d="M180.158 242.316C181.352 241.035 182.541 239.748 183.702 238.441C184.279 237.785 184.852 237.123 185.385 236.441C185.642 236.065 185.94 235.718 186.273 235.407C186.623 235.102 187.013 234.847 187.432 234.647C189.1 233.92 190.921 233.618 192.734 233.769C194.509 233.914 196.264 234.247 197.969 234.762C201.363 235.663 204.726 236.652 208.091 237.639C211.451 238.654 214.816 239.61 218.144 240.809L220.614 241.759C221.477 242.092 222.293 242.537 223.039 243.084C223.788 243.664 224.408 244.393 224.858 245.226C225.308 246.059 225.58 246.977 225.654 247.921C225.821 249.719 225.691 251.532 225.271 253.287C225.13 254.207 224.782 255.083 224.254 255.849C223.722 256.596 223.07 257.249 222.325 257.783C220.852 258.794 219.235 259.576 217.529 260.104C215.853 260.656 214.138 261.083 212.399 261.381C210.665 261.685 208.917 261.898 207.161 262.02C206.722 262.052 206.283 262.078 205.838 262.087C205.643 262.09 205.451 262.133 205.274 262.213C205.096 262.294 204.938 262.41 204.808 262.556C204.219 263.173 203.73 263.88 203.361 264.649C202.581 266.205 201.929 267.821 201.41 269.483C200.871 271.136 200.435 272.821 200.105 274.528C200.018 274.912 200.009 275.309 200.08 275.696C200.189 276.055 200.406 276.373 200.701 276.605C201.486 277.105 202.142 277.783 202.615 278.585C202.716 278.815 202.791 279.057 202.836 279.304C202.853 279.426 202.86 279.548 202.871 279.67C202.889 279.806 202.887 279.944 202.866 280.079C202.844 280.233 202.799 280.383 202.73 280.522C202.655 280.652 202.563 280.772 202.456 280.877C202.263 281.064 202.036 281.213 201.788 281.317C200.916 281.641 199.997 281.818 199.067 281.842C195.501 282.023 191.993 281.557 188.553 281.623C188.126 281.628 187.728 281.68 187.205 281.67C186.697 281.66 186.196 281.554 185.726 281.359C184.803 280.946 184.042 280.24 183.561 279.351C183.118 278.542 182.768 277.687 182.516 276.8C182.409 276.417 182.275 276.041 182.115 275.677C182.096 275.631 182.03 275.585 182.145 275.673C182.185 275.692 182.226 275.707 182.269 275.717C182.29 275.72 182.311 275.721 182.332 275.718L182.285 275.718L182.1 275.714C181.856 275.704 181.613 275.679 181.372 275.64C180.867 275.567 180.379 275.408 179.928 275.171C179.422 274.906 179.011 274.492 178.75 273.985C178.508 273.48 178.415 272.917 178.481 272.361C178.53 271.897 178.61 271.437 178.719 270.983C179.134 269.217 179.704 267.58 180.081 265.906C180.281 265.08 180.434 264.243 180.54 263.399L180.605 262.77L180.709 262.056C180.796 261.6 180.91 261.149 181.049 260.706C181.615 259.012 182.3 257.36 183.098 255.762C184.62 252.584 186.388 249.515 187.858 246.414C187.994 246.158 188.026 245.861 187.949 245.582C187.83 245.285 187.629 245.028 187.369 244.842C186.711 244.378 185.979 244.029 185.203 243.812C183.562 243.331 181.875 243.022 180.17 242.889L180.53 242.777C178.65 244.169 176.571 245.271 174.363 246.044C172.161 246.763 169.887 247.24 167.582 247.467C165.29 247.672 162.985 247.68 160.692 247.491C158.406 247.315 156.139 246.957 153.91 246.419L153.941 246.295C156.176 246.729 158.442 246.983 160.718 247.055C162.984 247.131 165.253 247.039 167.505 246.777C169.74 246.487 171.936 245.955 174.056 245.191C176.141 244.392 178.1 243.299 179.876 241.946L180.043 241.82L180.236 241.833C182.03 241.938 183.808 242.23 185.541 242.704C186.46 242.946 187.33 243.347 188.11 243.889C188.567 244.215 188.918 244.669 189.119 245.193C189.3 245.762 189.262 246.379 189.01 246.92C188.285 248.567 187.447 250.102 186.645 251.661C185.838 253.214 185.036 254.765 184.287 256.333C183.525 257.873 182.872 259.465 182.332 261.096C182.21 261.489 182.11 261.889 182.033 262.293L181.949 262.879L181.882 263.558C181.775 264.453 181.615 265.342 181.403 266.219C180.99 267.96 180.389 269.636 179.987 271.278C179.887 271.675 179.812 272.078 179.763 272.484C179.716 272.802 179.76 273.127 179.892 273.42C180.076 273.705 180.324 273.944 180.616 274.116C180.909 274.288 181.238 274.389 181.577 274.411C181.768 274.444 181.96 274.465 182.154 274.476L182.297 274.48L182.333 274.481C182.381 274.484 182.429 274.489 182.476 274.498C182.573 274.512 182.667 274.546 182.751 274.597C182.945 274.715 183.1 274.886 183.198 275.09C183.396 275.525 183.556 275.976 183.68 276.438C183.896 277.242 184.202 278.018 184.59 278.754C184.936 279.426 185.494 279.966 186.178 280.288C186.519 280.433 186.883 280.513 187.254 280.526C187.606 280.543 188.083 280.501 188.532 280.503C192.102 280.512 195.577 281.016 199.023 280.934C199.848 280.937 200.668 280.809 201.452 280.553C201.795 280.404 202.059 280.211 202.078 279.958L202.093 279.856L202.084 279.712L202.067 279.424C202.038 279.24 201.987 279.059 201.918 278.886C201.65 278.182 200.938 277.731 200.239 277.113C199.852 276.784 199.575 276.345 199.445 275.855C199.361 275.377 199.377 274.888 199.492 274.417C199.868 272.691 200.353 270.991 200.942 269.326C201.493 267.649 202.173 266.017 202.975 264.444C203.373 263.636 203.897 262.895 204.528 262.251C204.703 262.089 204.899 261.95 205.11 261.839C205.225 261.787 205.345 261.746 205.468 261.716C205.589 261.697 205.711 261.686 205.833 261.685C206.265 261.68 206.7 261.659 207.135 261.631C208.875 261.504 210.606 261.275 212.32 260.947C214.032 260.632 215.718 260.191 217.365 259.628C219 259.08 220.541 258.282 221.931 257.262C222.614 256.784 223.192 256.171 223.629 255.46C224.066 254.75 224.353 253.958 224.473 253.133C224.823 251.463 224.898 249.747 224.695 248.053C224.641 247.64 224.52 247.245 224.427 246.846C224.3 246.462 224.138 246.091 223.944 245.737C223.574 245.025 223.041 244.41 222.389 243.943C221.106 242.969 219.383 242.509 217.761 241.867C211.164 239.643 204.433 237.605 197.724 235.65C196.087 235.103 194.397 234.731 192.682 234.54C190.991 234.349 189.28 234.579 187.7 235.21C187.322 235.377 186.967 235.59 186.642 235.844C186.323 236.118 186.035 236.427 185.784 236.765C185.207 237.439 184.603 238.077 183.994 238.71C182.776 239.975 181.524 241.202 180.249 242.406L180.158 242.316Z" fill="black"/>
<path d="M184.198 265.416C185.049 265.752 185.846 266.212 186.563 266.781C187.334 267.359 187.945 268.123 188.34 269.002C188.531 269.485 188.615 270.004 188.587 270.522C188.558 271.041 188.419 271.547 188.177 272.007C187.701 272.867 187.049 273.616 186.263 274.207L185.946 273.103C186.473 273.158 186.995 273.253 187.508 273.386C188.028 273.514 188.534 273.696 189.016 273.931C189.533 274.173 190.002 274.51 190.396 274.924C190.826 275.379 191.106 275.955 191.198 276.574L190.325 276.112C190.728 275.939 191.151 275.814 191.585 275.741C192.008 275.667 192.438 275.643 192.867 275.667C193.3 275.692 193.726 275.779 194.133 275.927C194.539 276.071 194.923 276.268 195.276 276.514L194.698 276.597C195.08 276.237 195.541 275.971 196.044 275.819C196.514 275.668 197.007 275.605 197.5 275.632C197.976 275.659 198.445 275.753 198.894 275.912C199.115 275.989 199.327 276.085 199.539 276.178L200.143 276.512L199.485 276.326C199.26 276.289 199.044 276.228 198.823 276.199C198.39 276.136 197.95 276.124 197.514 276.163C197.096 276.21 196.689 276.322 196.305 276.494C195.95 276.654 195.632 276.886 195.371 277.176L195.148 277.444L194.793 277.259C194.494 277.09 194.174 276.961 193.841 276.875C193.511 276.79 193.171 276.75 192.831 276.757C192.152 276.756 191.481 276.907 190.868 277.199L190.163 277.554L189.994 276.738C189.921 276.377 189.745 276.044 189.487 275.78C189.19 275.484 188.84 275.245 188.455 275.077C188.046 274.881 187.62 274.722 187.182 274.603C186.739 274.479 186.288 274.388 185.832 274.33L184.281 274.143L185.515 273.226C186.187 272.761 186.761 272.169 187.206 271.483C187.41 271.16 187.542 270.797 187.594 270.419C187.647 270.041 187.618 269.657 187.51 269.291C187.245 268.491 186.799 267.763 186.208 267.163C185.599 266.514 184.926 265.929 184.198 265.416V265.416ZM198.204 257.462C198.434 258.712 198.504 259.985 198.411 261.252C198.338 262.528 198.122 263.793 197.767 265.021C197.414 266.284 196.824 267.469 196.029 268.512C195.641 269.05 195.139 269.497 194.558 269.818C193.978 270.14 193.333 270.33 192.671 270.374C193.751 269.848 194.638 268.997 195.208 267.941C195.5 267.43 195.752 266.897 195.961 266.348C196.187 265.795 196.381 265.23 196.54 264.654C196.898 263.507 197.155 262.316 197.425 261.118C197.681 259.915 197.921 258.701 198.204 257.462ZM205.717 261.888C205.705 260.873 205.765 259.858 205.896 258.851C206.006 257.854 206.175 256.872 206.344 255.891C206.538 254.915 206.728 253.94 206.963 252.973C207.187 252.001 207.443 251.043 207.715 250.046C207.945 251.049 208.025 252.081 207.954 253.108C207.906 254.12 207.789 255.128 207.603 256.124C207.416 257.116 207.171 258.097 206.869 259.06C206.576 260.037 206.19 260.984 205.717 261.888V261.888ZM174.976 221.765C174.84 222.42 174.823 223.093 174.926 223.754C175.03 224.308 175.296 224.818 175.69 225.221C175.895 225.437 176.117 225.635 176.356 225.813C176.613 225.988 176.881 226.167 177.159 226.344C177.455 226.493 177.734 226.696 178.043 226.856C178.365 227.023 178.675 227.211 178.972 227.419C178.604 227.461 178.234 227.474 177.864 227.459C177.493 227.423 177.126 227.36 176.765 227.27C176.398 227.159 176.042 227.014 175.702 226.837C175.35 226.637 175.03 226.386 174.752 226.092C174.458 225.787 174.232 225.423 174.089 225.024C173.946 224.626 173.89 224.201 173.923 223.779C173.956 223.39 174.066 223.012 174.247 222.666C174.428 222.32 174.676 222.014 174.976 221.765V221.765ZM105.195 196.02C105.766 195.547 106.427 195.193 107.138 194.982C108.571 194.525 110.113 194.535 111.541 195.009C112.244 195.236 112.904 195.577 113.495 196.02C112.785 195.827 112.111 195.612 111.416 195.493C110.731 195.358 110.036 195.289 109.339 195.287C108.641 195.278 107.945 195.338 107.259 195.465C106.557 195.591 105.866 195.776 105.195 196.02V196.02Z" fill="black"/>
<path d="M86.3125 241.776L93.8223 239.133L86.8335 242.946L86.3125 241.776Z" fill="black"/>
<path d="M81.9922 237.686L89.502 235.043L82.5132 238.856L81.9922 237.686Z" fill="black"/>
<path d="M93.7461 245.451L98.6754 243.62L94.3348 246.589L93.7461 245.451Z" fill="black"/>
<path d="M99.2734 246.868L104.496 246.262L99.5749 248.114L99.2734 246.868Z" fill="black"/>
<path d="M135.809 239.508C135.74 237.944 135.85 236.378 136.138 234.84C136.28 234.07 136.529 233.323 136.878 232.621C137.038 232.264 137.268 231.943 137.555 231.677C137.843 231.411 138.181 231.206 138.549 231.074C138.198 231.226 137.882 231.448 137.62 231.726C137.357 232.004 137.154 232.332 137.022 232.691C136.731 233.395 136.54 234.136 136.454 234.893C136.278 236.407 136.276 237.937 136.447 239.451L135.809 239.508ZM144.522 251.699C144.066 250.335 143.674 248.979 143.317 247.602C142.964 246.227 142.652 244.841 142.42 243.438C142.166 242.037 142.041 240.616 142.047 239.192C142.052 238.478 142.141 237.767 142.313 237.074C142.467 236.373 142.845 235.742 143.391 235.277C142.891 235.771 142.568 236.415 142.469 237.11C142.353 237.796 142.319 238.493 142.367 239.187C142.467 240.579 142.695 241.959 143.047 243.31C143.379 244.666 143.788 246.004 144.238 247.327C144.688 248.647 145.182 249.966 145.717 251.238L144.522 251.699Z" fill="black"/>
<path d="M146.324 252.621L146.965 242.361L147.605 252.621H146.324Z" fill="black"/>
<path d="M60.6172 160.585C61.2581 161.188 62.0441 161.614 62.8987 161.823C63.7434 162.025 64.6147 162.093 65.4805 162.023C66.3498 161.984 67.2139 161.867 68.0627 161.676C68.911 161.502 69.7466 161.271 70.5639 160.985L70.602 160.973C71.7635 160.55 72.9593 160.251 74.0914 159.756C75.225 159.285 76.3318 158.752 77.4068 158.159C78.4667 157.568 79.4717 156.884 80.4097 156.114C81.3164 155.425 82.0278 154.512 82.474 153.465C82.5564 153.255 82.5868 153.027 82.5626 152.803C82.5384 152.578 82.4604 152.363 82.335 152.175C82.0102 151.769 81.5685 151.474 81.07 151.329C79.9324 150.958 78.7376 150.795 77.5424 150.848C75.0519 150.92 72.5801 151.304 70.1852 151.991C72.5024 150.943 74.974 150.277 77.5039 150.019C78.8159 149.872 80.1439 149.975 81.4173 150.323C82.1388 150.511 82.7816 150.924 83.2524 151.502C83.4901 151.828 83.6484 152.205 83.7144 152.602C83.7805 153 83.7526 153.407 83.6329 153.792C83.4288 154.474 83.0846 155.105 82.6223 155.646C82.2014 156.163 81.7354 156.641 81.2299 157.075C80.2398 157.914 79.1628 158.645 78.0173 159.255C76.892 159.87 75.7243 160.404 74.523 160.853C73.9236 161.075 73.3207 161.285 72.7013 161.447L70.8574 161.965L70.8952 161.954C70.0152 162.208 69.1182 162.4 68.211 162.528C67.307 162.656 66.3935 162.704 65.4811 162.671C64.5633 162.645 63.6557 162.472 62.7928 162.158C61.9308 161.855 61.1751 161.309 60.6172 160.585Z" fill="black"/>
<path d="M83.2129 152.753C83.8279 152.905 84.3945 153.21 84.8603 153.639C85.3388 154.047 85.7745 154.503 86.1607 154.999C86.5477 155.487 86.9009 156.001 87.2178 156.537C87.5475 157.064 87.8131 157.622 88.0908 158.173L87.9642 157.992L87.9707 157.998L88.0644 158.089L88.1207 158.237C88.3625 158.873 88.5567 159.526 88.7771 160.169C88.9788 160.819 89.1769 161.47 89.3563 162.128C89.5369 162.785 89.7014 163.448 89.8498 164.116C89.9892 164.788 90.1308 165.459 90.2128 166.15C89.8464 165.558 89.5398 164.945 89.2309 164.332C88.931 163.717 88.6472 163.096 88.3796 162.469C88.1107 161.842 87.8604 161.209 87.6139 160.575C87.3859 159.934 87.1318 159.303 86.9253 158.655L87.0753 158.894L87.0692 158.887L86.9846 158.8L86.9424 158.706C86.6998 158.165 86.4344 157.637 86.1847 157.102C85.9237 156.573 85.6483 156.053 85.3655 155.537C85.0783 155.024 84.7652 154.527 84.4273 154.046C84.1002 153.548 83.6893 153.111 83.2129 152.753V152.753ZM71.7808 157.282C71.5562 157.282 71.3387 157.203 71.1661 157.059C70.9936 156.915 70.8768 156.716 70.8362 156.495C70.7955 156.274 70.8336 156.046 70.9437 155.85C71.0538 155.654 71.229 155.503 71.4389 155.423L79.1852 152.47C79.4231 152.38 79.687 152.388 79.919 152.492C80.151 152.597 80.3322 152.789 80.4227 153.026C80.5132 153.264 80.5058 153.528 80.402 153.76C80.2982 153.992 80.1065 154.174 79.869 154.265L72.1227 157.218C72.0136 157.26 71.8977 157.282 71.7808 157.282V157.282ZM211.711 86.8145L212.796 90.8603C213.182 92.1836 213.567 93.4981 214.073 94.7521C214.535 96.0071 215.151 97.1995 215.909 98.3016C216.683 99.4144 217.759 100.282 219.011 100.801C218.275 100.768 217.553 100.586 216.888 100.267C216.223 99.9478 215.63 99.498 215.143 98.9443C214.159 97.8571 213.391 96.5924 212.881 95.2178C212.371 93.8781 212.016 92.4846 211.821 91.0643C211.608 89.6578 211.571 88.2302 211.711 86.8145V86.8145Z" fill="black"/>
<path d="M175.438 41.7801C175.438 41.7801 171.595 48.3893 176.36 46.1606C181.125 43.9319 182.355 52.3856 201.567 47.7745C201.567 47.7745 203.412 75.1335 210.175 67.6021C216.938 60.0707 221.088 66.3725 219.704 70.215C218.321 74.0576 211.097 75.2872 210.175 76.3631C209.252 77.4391 207.254 89.4278 213.249 87.4297C219.243 85.4316 222.932 76.9779 224.776 68.3706C224.776 68.3706 228.465 63.9133 237.073 70.5225C245.68 77.1317 273.654 82.3575 281.031 69.1391C288.409 55.9207 297.324 51.0023 298.707 52.0782C298.707 52.0782 277.957 47.9282 270.733 55.767C263.509 63.6059 242.298 53.4615 241.53 52.3856C240.761 51.3097 234.613 49.619 226.467 54.9985C226.467 54.9985 222.01 34.5561 202.336 34.095C182.662 33.6339 175.438 41.7801 175.438 41.7801ZM185.496 90.2482C186.269 90.3146 187.045 90.3277 187.819 90.2874C188.608 90.2487 189.394 90.1613 190.172 90.0257C190.955 89.8927 191.728 89.7004 192.482 89.4504C193.244 89.1993 193.982 88.8832 194.69 88.5056C194.031 88.9783 193.333 89.3936 192.603 89.747C191.867 90.1045 191.105 90.4056 190.324 90.6478C189.539 90.8949 188.74 91.0933 187.93 91.2417C187.107 91.3954 186.275 91.491 185.438 91.5277L185.496 90.2482ZM170.684 55.1898C171.032 54.7546 171.457 54.3876 171.939 54.1073C172.405 53.8286 172.905 53.6132 173.428 53.4667C173.963 53.3105 174.522 53.2473 175.079 53.2798C175.672 53.282 176.24 53.5122 176.668 53.9226C176.16 53.9926 175.661 54.1131 175.177 54.2821L173.77 54.7005C173.294 54.834 172.805 54.9505 172.298 55.0445C171.766 55.1477 171.225 55.1964 170.684 55.1898V55.1898Z" fill="black"/>
<path d="M184.198 53.7492C185.36 53.3017 186.572 52.994 187.808 52.8326C189.042 52.65 190.291 52.5862 191.537 52.6419C192.799 52.6863 194.05 52.8989 195.256 53.274C196.482 53.6219 197.597 54.282 198.492 55.1898C197.378 54.7356 196.213 54.4187 195.022 54.2459C193.848 54.0674 192.664 53.9587 191.477 53.9205C189.089 53.7876 186.686 53.8607 184.198 53.7492ZM175.667 75.4409C176.158 76.4376 176.816 77.3427 177.613 78.1167C177.952 78.4238 178.375 78.6216 178.828 78.684C179.279 78.7059 179.726 78.5998 180.118 78.3778C181.114 77.882 182.082 77.3229 183.05 76.7397C184.015 76.1509 184.972 75.536 185.965 74.9031C185.333 75.9008 184.547 76.7931 183.638 77.5475C182.739 78.3199 181.75 78.9824 180.694 79.521C180.066 79.8469 179.354 79.9723 178.652 79.8805C177.964 79.7374 177.346 79.3611 176.903 78.8151C176.14 77.8523 175.706 76.6692 175.667 75.4409V75.4409ZM178.895 55.1898C179.493 56.4791 179.806 57.8818 179.814 59.3029C179.834 60.0887 179.641 60.8654 179.257 61.5511C179.142 61.7236 179.015 61.8878 178.877 62.0425L178.542 62.4148C178.322 62.6635 178.111 62.915 177.916 63.1737C177.084 64.1207 176.529 65.2781 176.31 66.5194C176.198 67.8304 176.482 69.145 177.127 70.292C176.31 69.5743 175.723 68.6315 175.439 67.5817C175.357 67.2143 175.315 66.8391 175.313 66.4626C175.315 65.7047 175.47 64.9549 175.768 64.2584C176.072 63.5887 176.455 62.9584 176.911 62.3812C177.137 62.0997 177.375 61.8321 177.616 61.5743L177.98 61.1932C178.121 61.0565 178.145 60.9849 178.247 60.8863C178.563 60.3839 178.759 59.8157 178.821 59.2255C178.967 57.8853 178.992 56.5345 178.895 55.1898V55.1898ZM170.106 64.9075C170.957 64.4478 171.888 64.1535 172.85 64.0404C173.304 63.9757 173.756 63.9381 174.214 63.9187C174.677 63.9017 175.129 63.9121 175.667 63.9133C175.369 64.351 174.95 64.6922 174.461 64.895C174.007 65.1029 173.526 65.242 173.031 65.308C172.546 65.3776 172.054 65.3852 171.567 65.3305C171.058 65.28 170.563 65.1367 170.106 64.9075V64.9075ZM185.965 61.454C186.987 61.6026 187.97 61.6895 188.955 61.7885C189.939 61.8751 190.919 61.967 191.903 62.0366C192.885 62.1378 193.874 62.1919 194.866 62.3105C195.877 62.3971 196.882 62.5408 197.877 62.7408C196.895 63.0414 195.882 63.2323 194.858 63.31C193.839 63.3941 192.815 63.3948 191.796 63.3121C190.771 63.2289 189.757 63.0461 188.767 62.7664C187.759 62.5081 186.809 62.0629 185.965 61.454V61.454ZM30.434 79.9159L30.3925 79.5859C30.1105 77.3314 29.9686 75.0615 29.9676 72.7894C29.9428 66.2281 31.1537 59.7208 33.5372 53.6077L33.6497 53.3213L53.8192 60.3191L53.6095 60.9241L34.0219 54.1282C31.7417 60.0846 30.5842 66.4116 30.6078 72.7894C30.6089 74.9238 30.7357 77.0563 30.9877 79.1758L42.9486 77.2193L43.0514 77.8511L30.434 79.9159ZM86.6784 69.8572L78.968 67.2978L83.69 29.1665L84.0832 29.3382C91.7971 32.7066 98.346 38.6842 103.022 46.6261L103.066 46.7014V46.8976L103.006 46.9806L86.6784 69.8572ZM79.6687 66.856L86.4322 69.1002L102.366 46.7759C97.8466 39.1732 91.5825 33.4178 84.2197 30.0994L79.6687 66.856ZM84.0262 116.275L81.654 81.8491L89.2336 78.9225L102.438 99.7294V99.92L102.39 99.9981C98.1333 107.019 91.888 112.618 84.4455 116.086L84.0262 116.275ZM82.3252 82.2768L84.6017 115.31C91.6844 111.903 97.6353 106.528 101.742 99.8264L88.9747 79.709L82.3252 82.2768ZM1.60938 60.865C2.17975 51.2595 4.53306 41.844 8.54908 33.0997C12.5047 24.2346 18.6752 16.5367 26.467 10.7466L27.967 9.72349C28.4576 9.36929 28.9667 9.04135 29.492 8.74105L32.6555 6.96097C33.746 6.43932 34.8552 5.95531 35.9541 5.4516L36.78 5.07752C37.0602 4.96531 37.3486 4.8735 37.6325 4.77044L39.3422 4.16877L41.0517 3.5678C41.6264 3.38435 42.2181 3.25773 42.8004 3.09997C43.9721 2.81171 45.1323 2.47033 46.3126 2.22727C48.6766 1.75668 51.0671 1.43071 53.4708 1.25116L55.2705 1.11131C55.8686 1.04936 56.4695 1.01766 57.0708 1.01633L60.6763 1.0151C61.2767 1.02091 61.8777 1.00157 62.4771 1.02812L64.2731 1.15844L67.8622 1.42174C70.2441 1.69328 72.6081 2.1073 74.9766 2.44269C77.321 2.9318 79.6578 3.44923 81.9894 3.96947L74.9226 2.77774C72.547 2.53873 70.1817 2.22162 67.8072 2.04733L64.2393 1.87848L62.4568 1.79284C61.8627 1.78105 61.2679 1.81517 60.6736 1.82414L57.1097 1.9126C56.5162 1.92837 55.9239 1.97428 55.3351 2.05014L53.5642 2.23199C51.1924 2.39327 48.8771 2.92565 46.5413 3.31083C45.3848 3.55895 44.2505 3.90388 43.1045 4.19512C42.5352 4.35412 41.9562 4.48234 41.395 4.66665L39.7274 5.26902L38.0601 5.87052C37.7834 5.97341 37.502 6.06505 37.229 6.1769L36.4253 6.54958C35.3563 7.05119 34.277 7.53167 33.2168 8.04875L30.146 9.80997C29.1282 10.4057 28.1945 11.1347 27.2124 11.7865C23.369 14.5414 19.9228 17.8117 16.9704 21.5055C14.0267 25.2228 11.4997 29.2519 9.435 33.5205C7.35806 37.8016 5.66711 42.2594 4.38223 46.841C3.05391 51.4266 2.12614 56.1189 1.60938 60.865V60.865Z" fill="black"/>
<path d="M24.1551 26.7615C29.5394 20.5898 36.089 15.5415 43.4283 11.9062C47.1058 10.068 50.9911 8.67917 55.0006 7.76954C59.024 6.8707 63.1484 6.5069 67.267 6.68759C71.386 6.86695 75.4613 7.60717 79.3803 8.8878C83.2925 10.1404 87.0436 11.8491 90.5563 13.9787C94.0645 16.0777 97.392 18.4648 100.505 21.1152C102.035 22.463 103.497 23.8854 104.993 25.2638C106.403 26.7338 107.798 28.2139 109.179 29.7041C107.695 28.3128 106.221 26.9148 104.76 25.5104C103.204 24.2073 101.685 22.8637 100.105 21.5996C96.9496 19.0728 93.5917 16.8096 90.0655 14.8329L88.7446 14.0981L88.0846 13.7307L87.4004 13.4113L84.6675 12.1295C84.2162 11.9079 83.7517 11.7142 83.2767 11.5493L81.8665 11.0171L80.457 10.4847C79.9896 10.3003 79.4964 10.1942 79.0177 10.0451C75.1924 8.82555 71.2205 8.12632 67.2088 7.96621C59.1467 7.6552 51.13 9.31118 43.8509 12.7912C36.5191 16.2601 29.8527 20.9886 24.1551 26.7615L24.1551 26.7615ZM1.60833 70.2917C1.79124 73.1639 2.03928 76.0164 2.35245 78.8493C2.51233 80.2667 2.68644 81.681 2.8989 83.0882L3.21795 85.1979L3.60892 87.2927C3.71568 87.996 3.89666 88.682 4.03841 89.3774C4.1821 90.0726 4.34127 90.7638 4.53263 91.4455C4.71533 92.1295 4.87154 92.8233 5.07623 93.5008C5.29748 94.1726 5.50818 94.8485 5.71501 95.5274C6.62309 98.2277 7.82304 100.821 9.29356 103.261C7.38328 101.072 5.8569 98.5759 4.779 95.8781C3.70136 93.1821 2.88845 90.3877 2.35174 87.5344C1.81413 84.6929 1.48262 81.8162 1.35981 78.9268C1.2064 76.0465 1.28952 73.1584 1.60833 70.2917V70.2917ZM84.8379 134.87C87.4855 133.741 90.0928 132.558 92.6598 131.319C93.9432 130.697 95.219 130.062 96.4751 129.393L98.3582 128.39L100.203 127.324C100.831 126.989 101.418 126.59 102.026 126.225C102.634 125.858 103.233 125.478 103.812 125.071C104.396 124.671 104.998 124.292 105.569 123.874C106.129 123.442 106.696 123.018 107.268 122.597C109.511 120.842 111.557 118.847 113.369 116.648C111.941 119.178 110.095 121.448 107.91 123.363C105.726 125.276 103.362 126.973 100.85 128.429C98.3493 129.882 95.7471 131.152 93.0634 132.23C90.3984 133.333 87.6473 134.216 84.8379 134.87V134.87ZM125.8 53.2449C126.536 51.673 127.846 50.4423 129.461 49.805C131.09 49.2066 132.844 49.0239 134.562 49.2735C137.953 49.7126 141.236 50.6377 144.544 51.2847C145.363 51.4572 146.19 51.5885 147.022 51.6782C147.83 51.7893 148.65 51.7612 149.448 51.595C149.633 51.5408 149.816 51.4766 149.994 51.4027C150.167 51.3232 150.31 51.2014 150.473 51.1064C150.657 50.9813 150.844 50.8329 151.04 50.7182C151.244 50.6126 151.455 50.5219 151.671 50.4467C152.527 50.2024 153.427 50.1518 154.304 50.2986C155.989 50.5909 157.646 51.0254 159.257 51.5974L164.072 53.2449C162.424 52.8372 160.799 52.3446 159.165 51.8977C157.56 51.3921 155.915 51.0209 154.248 50.7881C153.444 50.6865 152.628 50.7489 151.848 50.9713C151.666 51.0375 151.488 51.1161 151.316 51.2067C151.15 51.3078 151.005 51.4283 150.839 51.5406C150.649 51.6801 150.451 51.8071 150.245 51.9209C150.034 52.0133 149.817 52.0926 149.596 52.1585C148.734 52.3529 147.844 52.3965 146.967 52.2876C146.112 52.2063 145.262 52.0811 144.42 51.9123C141.086 51.2044 137.82 50.2949 134.495 49.7592C132.852 49.4631 131.16 49.5789 129.572 50.0963C127.968 50.6423 126.624 51.7643 125.8 53.2449V53.2449ZM113.53 65.8452C114.267 64.2733 115.576 63.0426 117.191 62.4052C118.821 61.8069 120.574 61.6242 122.292 61.8737C125.683 62.3129 128.966 63.238 132.274 63.885C133.093 64.0575 133.92 64.1888 134.752 64.2785C135.56 64.3897 136.38 64.3615 137.178 64.1953C137.364 64.1412 137.546 64.077 137.724 64.003C137.897 63.9236 138.04 63.8017 138.203 63.7067C138.387 63.5817 138.574 63.4332 138.77 63.3185C138.974 63.2129 139.185 63.1222 139.401 63.047C140.257 62.8027 141.157 62.7521 142.035 62.8991C143.719 63.1913 145.376 63.6257 146.987 64.1977L151.802 65.8452C150.154 65.4377 148.529 64.9449 146.895 64.498C145.29 63.9925 143.645 63.6213 141.979 63.3884C141.174 63.2868 140.358 63.3492 139.579 63.5716C139.396 63.6378 139.218 63.7165 139.046 63.807C138.88 63.9081 138.735 64.0286 138.569 64.141C138.379 64.2804 138.181 64.4075 137.975 64.5214C137.764 64.6136 137.547 64.693 137.327 64.759C136.464 64.9532 135.574 64.9968 134.697 64.8879C133.842 64.8067 132.992 64.6814 132.15 64.5126C128.816 63.8047 125.55 62.8952 122.226 62.3595C120.582 62.0635 118.891 62.1794 117.303 62.6967C115.699 63.2426 114.354 64.3646 113.53 65.8452ZM129.206 78.4454C129.942 76.8736 131.252 75.6429 132.867 75.0055C134.496 74.4072 136.25 74.2245 137.968 74.474C141.359 74.9133 144.642 75.8384 147.95 76.4853C148.769 76.6578 149.596 76.7891 150.428 76.8787C151.235 76.9899 152.056 76.9618 152.854 76.7955C153.039 76.7414 153.222 76.6773 153.4 76.6033C153.573 76.524 153.716 76.4019 153.878 76.3069C154.063 76.1819 154.249 76.0335 154.446 75.9188C154.65 75.8132 154.86 75.7224 155.077 75.6472C155.933 75.4031 156.833 75.3526 157.71 75.4993C159.395 75.7915 161.052 76.2259 162.663 76.798L167.477 78.4454C165.83 78.0379 164.205 77.5451 162.571 77.0982C160.966 76.5927 159.321 76.2216 157.654 75.9888C156.85 75.8871 156.034 75.9494 155.254 76.1719C155.072 76.2381 154.894 76.3168 154.722 76.4074C154.556 76.5083 154.411 76.6288 154.245 76.7412C154.055 76.8807 153.856 77.0078 153.65 77.1217C153.439 77.214 153.223 77.2933 153.002 77.3593C152.14 77.5535 151.25 77.5971 150.373 77.4883C149.518 77.407 148.668 77.2816 147.826 77.1128C144.492 76.4049 141.226 75.4955 137.901 74.96C136.258 74.6638 134.566 74.7796 132.978 75.2969C131.374 75.8429 130.03 76.9649 129.206 78.4454V78.4454ZM116.314 87.6536C117.05 86.0817 118.36 84.851 119.975 84.2137C121.604 83.6153 123.357 83.4326 125.076 83.6822C128.467 84.1213 131.75 85.0464 135.058 85.6934C135.877 85.8659 136.704 85.9972 137.536 86.0869C138.343 86.198 139.164 86.1699 139.962 86.0037C140.147 85.9495 140.329 85.8853 140.508 85.8113C140.681 85.732 140.824 85.6101 140.986 85.5151C141.17 85.3901 141.357 85.2416 141.554 85.1269C141.758 85.0213 141.968 84.9306 142.185 84.8554C143.041 84.6111 143.941 84.5605 144.818 84.7073C146.503 84.9995 148.16 85.434 149.771 86.0061L154.585 87.6536C152.938 87.2459 151.313 86.7532 149.679 86.3063C148.074 85.8008 146.429 85.4296 144.762 85.1967C143.958 85.0952 143.142 85.1576 142.362 85.38C142.18 85.4462 142.002 85.5248 141.83 85.6153C141.664 85.7165 141.519 85.8369 141.353 85.9493C141.163 86.0888 140.964 86.2158 140.758 86.3296C140.547 86.422 140.331 86.5013 140.11 86.5672C139.248 86.7615 138.358 86.8052 137.481 86.6963C136.626 86.615 135.776 86.4897 134.934 86.3209C131.6 85.613 128.334 84.7036 125.009 84.1679C123.366 83.8718 121.674 83.9876 120.086 84.505C118.482 85.051 117.138 86.173 116.314 87.6536ZM135.45 97.6724C136.186 96.1005 137.496 94.8698 139.11 94.2324C140.74 93.6341 142.493 93.4515 144.211 93.7009C147.603 94.1403 150.886 95.0654 154.194 95.7122C155.013 95.8847 155.84 96.016 156.672 96.1057C157.479 96.217 158.3 96.1888 159.098 96.0224C159.283 95.9684 159.465 95.9042 159.644 95.8302C159.817 95.7509 159.959 95.6288 160.122 95.5339C160.306 95.4088 160.493 95.2604 160.69 95.1457C160.893 95.0401 161.104 94.9494 161.321 94.8743C162.177 94.63 163.076 94.5794 163.954 94.7262C165.639 95.0185 167.296 95.453 168.907 96.0251L173.721 97.6723C172.074 97.2648 170.449 96.772 168.815 96.3251C167.209 95.8197 165.565 95.4486 163.898 95.2157C163.094 95.114 162.278 95.1763 161.498 95.3988C161.316 95.4651 161.138 95.5437 160.966 95.6343C160.8 95.7354 160.655 95.8559 160.489 95.9681C160.299 96.1077 160.1 96.2348 159.894 96.3486C159.683 96.4409 159.467 96.5203 159.246 96.5861C158.384 96.7804 157.494 96.824 156.616 96.7152C155.762 96.6339 154.911 96.5086 154.069 96.3398C150.735 95.6319 147.47 94.7224 144.145 94.1868C142.502 93.8908 140.81 94.0066 139.222 94.5238C137.618 95.0698 136.274 96.1918 135.45 97.6724V97.6724ZM102.744 105.941C103.481 104.369 104.791 103.138 106.405 102.501C108.035 101.902 109.788 101.72 111.506 101.969C114.898 102.409 118.181 103.334 121.489 103.981C122.308 104.153 123.135 104.284 123.967 104.374C124.774 104.485 125.595 104.457 126.393 104.291C126.578 104.237 126.76 104.173 126.939 104.099C127.112 104.019 127.254 103.897 127.417 103.802C127.601 103.677 127.788 103.529 127.985 103.414C128.188 103.308 128.399 103.218 128.616 103.143C129.472 102.898 130.371 102.848 131.249 102.995C132.934 103.287 134.591 103.721 136.202 104.293L141.016 105.941C139.369 105.533 137.744 105.04 136.11 104.593C134.504 104.088 132.86 103.717 131.193 103.484C130.389 103.382 129.573 103.445 128.793 103.667C128.611 103.733 128.433 103.812 128.261 103.903C128.095 104.004 127.95 104.124 127.784 104.236C127.594 104.376 127.395 104.503 127.189 104.617C126.978 104.709 126.762 104.789 126.541 104.854C125.679 105.049 124.789 105.092 123.912 104.984C123.057 104.902 122.206 104.777 121.364 104.608C118.03 103.9 114.765 102.991 111.44 102.455C109.796 102.159 108.105 102.275 106.517 102.792C104.913 103.338 103.569 104.46 102.744 105.941V105.941ZM119.77 116.717C120.506 115.146 121.816 113.915 123.431 113.278C125.06 112.679 126.814 112.496 128.532 112.746C131.923 113.185 135.206 114.11 138.514 114.757C139.333 114.93 140.16 115.061 140.992 115.151C141.8 115.262 142.62 115.234 143.418 115.068C143.603 115.014 143.786 114.949 143.964 114.875C144.137 114.796 144.28 114.674 144.442 114.579C144.627 114.454 144.814 114.306 145.01 114.191C145.214 114.085 145.425 113.994 145.641 113.919C146.497 113.675 147.397 113.624 148.275 113.771C149.959 114.064 151.616 114.498 153.227 115.07L158.042 116.717C156.394 116.31 154.769 115.817 153.135 115.37C151.53 114.865 149.885 114.494 148.218 114.261C147.414 114.159 146.598 114.221 145.818 114.444C145.636 114.51 145.458 114.589 145.286 114.679C145.12 114.78 144.975 114.901 144.809 115.013C144.619 115.153 144.421 115.28 144.214 115.394C144.004 115.486 143.787 115.565 143.567 115.631C142.704 115.825 141.814 115.869 140.937 115.76C140.082 115.679 139.232 115.554 138.39 115.385C135.056 114.677 131.79 113.768 128.465 113.232C126.822 112.936 125.13 113.052 123.543 113.569C121.938 114.115 120.594 115.237 119.77 116.717V116.717ZM64.8172 176.256C64.8172 176.256 72.004 175.731 82.3789 170.429L85.4529 177.268C85.4529 177.268 74.4469 184.803 67.5576 183.458L64.8172 176.256Z" fill="black"/>
<path d="M63.5469 172.766C64.1656 174.515 64.879 176.224 65.6166 177.923L67.8773 182.997C68.641 184.684 69.4176 186.366 70.2073 188.041L72.5728 193.065L72.5498 193.021L73.4114 194.485L73.4893 194.617L73.4911 194.784L73.4913 194.79L73.4028 194.476C73.9988 195.461 74.6888 196.386 75.463 197.238C75.8163 197.627 76.2331 197.953 76.6956 198.203C76.885 198.305 77.0943 198.365 77.309 198.378C77.5363 198.39 77.8857 198.379 78.1682 198.381C80.5139 198.439 82.859 198.247 85.1643 197.81C87.4343 197.335 89.5924 196.431 91.5221 195.144C93.4535 193.821 95.1571 192.193 96.5664 190.324L96.489 190.592C96.3625 188.588 96.0987 186.568 95.8008 184.564C95.4965 182.557 95.0665 180.57 94.569 178.594C94.9087 179.553 95.2498 180.518 95.5171 181.503C95.7985 182.485 96.052 183.475 96.2777 184.472C96.7417 186.47 97.0826 188.494 97.2985 190.534L97.3135 190.673L97.2211 190.803C95.8391 192.826 94.1248 194.6 92.1506 196.05C90.13 197.477 87.845 198.486 85.4295 199.019C83.0414 199.503 80.6063 199.715 78.1706 199.652C77.856 199.647 77.6073 199.658 77.2383 199.64C76.8549 199.615 76.481 199.51 76.141 199.331C75.5486 199.015 75.0156 198.598 74.5653 198.1C73.7313 197.182 72.9982 196.178 72.3785 195.104L72.2881 194.954L72.29 194.79V194.784L72.3697 195.082L71.5408 193.6L71.5255 193.573L71.5176 193.556C69.9831 190.17 68.5652 186.741 67.1771 183.296C66.4757 181.577 65.8177 179.84 65.2031 178.085C64.5591 176.342 64.0063 174.566 63.5469 172.766V172.766Z" fill="black"/>
</svg>
