<svg fill="none" height="284" viewBox="0 0 300 284" width="300" xmlns="http://www.w3.org/2000/svg"><g fill="#000"><path d="m68.5367 65.7637-14.8195-5.1427c4.4573-.9991 10.5159-1.3001 18.7389-.3971-2.4365 3.8642-3.8696 8.2757-4.1692 12.8342zm-14.2174 33.808c0-2.7987-8.4024-17.1442-11.3164-22.0371l25.2712-4.1435c-.1153 4.7839 1.4473 10.1635 6.9486 14.8066l-7.9924 4.9185s.4739 10.5988 1.2231 25.7448c-4.8546-.213-9.6107-1.441-13.9613-3.605-.096-8.941-.1728-14.922-.1728-15.6843zm27.0514 134.9503c-.1579.829-.0779 1.686.2307 2.472-5.7431.617-11.5155.921-17.2915.91-23.51 0-42.5755-4.746-42.5755-10.606 0-4.982 13.7884-9.158 32.3671-10.298 1.0502-14.185.7877-61.154.4996-91.241 4.5985 1.674 9.44 2.585 14.3326 2.696.3779 7.371.8006 15.389 1.2552 23.536-6.2057 2.209-10.5413 5.936-9.6895 8.331.0313.092.072.18.1216.263l-.0256.006c-.2967 2.679.1371 5.387 1.2552 7.839.3522.711.9415 2.274 1.6972 4.336l-.0064.429s-4.3806 9.261-2.4593 9.203c1.443-.111 2.8646-.414 4.2269-.903 0 0 .0767 3.612 1.8443 3.612 0 0-.1537 3.766 2.1519 3.842 0 0-.8198 3.837 1.3833 4.612h1.1528l.2049-.25c.2818.519.5635 1.012.8455 1.473v.006c.6979 9.382 1.396 17.234 2.0557 22.236 14.9667.96 26.7506 3.894 30.5996 7.627-7.3842 1.864-23.4653 6.321-24.1763 9.869z"/><path d="m54.5791 125.819c-6.2679-2.232-12.0218-5.704-16.9184-10.209-4.8611-4.567-8.8667-9.967-11.8276-15.9433-2.966-5.9822-4.8952-12.4244-5.7055-19.0521-.2303-1.6501-.3726-3.3113-.4263-4.9766l-.0833-2.4974c-.0203-.8323.0307-1.6651.0427-2.4975.1246-3.3297.5104-6.6446 1.1539-9.9139 1.3097-6.54 3.7258-12.8086 7.1443-18.5358 3.4044-5.7172 7.8098-10.7752 13.0057-14.9322 5.2053-4.1458 11.2071-7.1776 17.6329-8.9072 6.45-1.6961 13.1917-1.9692 19.7577-.8002 6.5773 1.2099 12.8197 3.8128 18.3082 7.6338 5.4966 3.8194 10.2136 8.6522 13.8986 14.2393 5.454 8.4481 8.758 18.102 9.626 28.1202.867 10.0182-.73 20.0964-4.652 29.3559-2.64 6.143-6.346 11.77-10.945 16.623-4.5974 4.848-10.1273 8.715-16.2573 11.371-6.123 2.616-12.7468 3.853-19.4014 3.622l.0025-.128c6.6.04 13.1299-1.355 19.1379-4.087 5.972-2.736 11.3395-6.633 15.7893-11.465 8.951-9.589 14.125-22.3889 15.061-35.4011.484-6.5276-.066-13.0908-1.633-19.4462-1.537-6.3648-4.153-12.4193-7.734-17.901-3.577-5.4893-8.14-10.269-13.457-14.0975-5.3368-3.8286-11.431-6.4711-17.8734-7.7502-6.4645-1.2719-13.1315-1.085-19.5146.547-6.3884 1.6523-12.3465 4.6596-17.47 8.8179-2.5629 2.0606-4.922 4.3627-7.0447 6.8744-2.1104 2.5177-3.9918 5.2188-5.6218 8.0712-3.2567 5.7053-5.528 11.9189-6.7185 18.3795-.6136 3.216-.9738 6.4752-1.0775 9.7476-.0068.818-.0527 1.6361-.0279 2.4538l.0965 2.4522c.015 1.6381.2266 3.2615.3963 4.8887.7492 6.5178 2.5996 12.8611 5.4724 18.7594 2.8493 5.9183 6.709 11.2943 11.4055 15.8863 4.7684 4.555 10.3714 8.146 16.5014 10.577z"/><path d="m54.5177 115.198c.6166.057 1.2254.179 1.8161.365.2895.082.5756.17.8534.277.2839.093.5585.212.8201.357.5125.329 1.044.628 1.5917.895.5677.211 1.1652.332 1.7705.358.6028.022 1.2041.073 1.8015.156.5927.071 1.1847.122 1.7677.232 1.1976.216 2.3737.537 3.5148.959l-.0055.128c-1.2083.328-2.4687.418-3.7113.266-.6119-.086-1.2162-.219-1.8075-.399-.5985-.165-1.1798-.387-1.7357-.663-.5479-.276-1.1243-.492-1.719-.643-.5905-.149-1.2347-.153-1.8411-.288-.5965-.159-1.1671-.403-1.694-.724-.5483-.311-1.0467-.702-1.4785-1.161z"/><path d="m109.713 72.7895c.025 4.7534-.586 9.4887-1.817 14.0799-1.197 4.6156-3.05 9.0355-5.502 13.1249l.05-.1723v.0063l.001.0893-.051.0834c-2.323 3.872-5.2339 7.36-8.6274 10.339-3.4169 2.989-7.3418 5.34-11.5886 6.943-8.6076 3.177-18.1246 2.806-26.4586-1.031-2.0412-.955-4.0024-2.072-5.8648-3.34-1.8365-1.296-3.571-2.731-5.1883-4.292-1.6179-1.556-3.116-3.232-4.4815-5.013-.6509-.912-1.3247-1.81-1.9296-2.754-.5846-.9558-1.2109-1.8868-1.7302-2.8805-4.3763-7.8879-6.6448-16.7709-6.5864-25.7912.0048-4.5045.583-8.9901 1.7206-13.3486.5614-2.1836 1.2833-4.3228 2.1598-6.4001l.6539-1.5604c.2119-.5232.4915-1.0153.7341-1.5245l.7548-1.516c.269-.496.5623-.9791.8462-1.4672 2.2863-3.9129 5.1468-7.4607 8.4858-10.5249 3.3589-3.0711 7.2356-5.5223 11.4502-7.24 8.5358-3.4679 18.0932-3.4388 26.6078.0809 4.1811 1.7749 8.0224 4.262 11.3529 7.3506 3.2963 3.0867 6.1013 6.6592 8.3173 10.5937l.046.0804-.001.0832v.0061l-.045-.1632c2.247 3.9728 3.942 8.2329 5.04 12.6631 1.123 4.4095 1.678 8.9447 1.651 13.4951zm-.128 0c-.024-4.5329-.626-9.0442-1.794-13.4241-1.192-4.3621-2.984-8.5377-5.323-12.4073l-.044-.0712-.001-.0924v-.0061l.044.1632c-2.295-3.7887-5.1467-7.2106-8.4596-10.151-3.2846-2.9383-7.0539-5.2845-11.1404-6.9345-8.2065-3.3662-17.4081-3.3677-25.6157-.0042-4.0841 1.6308-7.8473 3.9716-11.1156 6.9139-3.2711 2.9571-6.0802 6.3881-8.3337 10.1784-.2789.4752-.5779.9392-.8473 1.42l-.7616 1.4686c-.2453.4937-.5276.9701-.7431 1.4784l-.6651 1.5166c-.8939 2.0222-1.6369 4.1077-2.2229 6.2396-1.1911 4.2718-1.8336 8.6778-1.912 13.1119-.0941 4.4438.3716 8.8818 1.3863 13.2093 1.0556 4.323 2.6793 8.4871 4.8287 12.3836 1.0867 1.9387 2.3117 3.7968 3.6654 5.5588 1.3663 1.751 2.863 3.396 4.4771 4.921 1.6108 1.524 3.348 2.908 5.1929 4.139 1.8556 1.204 3.8048 2.258 5.8287 3.151 8.186 3.498 17.3994 3.733 25.7531.657 8.2861-3.015 15.2546-9.132 20.0588-16.5536l-.05.1729v-.0063l.001-.0978.048-.0749c2.542-3.9817 4.495-8.3101 5.798-12.8507 1.271-4.5619 1.926-9.2734 1.947-14.0091z"/><path d="m84.9078 91.4514c9.9743 0 18.0602-8.0859 18.0602-18.0602s-8.0859-18.0601-18.0602-18.0601-18.0601 8.0858-18.0601 18.0601 8.0858 18.0602 18.0601 18.0602z"/><path d="m175.128 46.2133c-1.057.8939-1.923 1.9921-2.545 3.2288-.633 1.2295-1.1 2.5374-1.389 3.8896l-.204 1.0152-.126 1.0283c-.109.6826-.088 1.3784-.135 2.066-.009.6904.031 1.3817.044 2.0713l.202 2.0632.004.0418-.007.0414c-.547 3.1253-1.093 6.2668-1.403 9.4101-.085.7722-.115 1.5495-.091 2.3261.063.7742.183 1.5428.357 2.2999.343 1.528.834 3.0191 1.466 4.4523 1.2 2.8812 3.116 5.4084 5.566 7.3423 2.492 1.8521 5.508 2.8638 8.613 2.8888l.273.0039.147.2363c2.37 3.8091 4.717 7.6251 6.972 11.5124.56.977 1.118 1.95 1.641 2.963.13.254.264.502.383.778l.184.404c.061.169.116.368.162.553l.009.036-.001.1c-.002.065-.013.129-.033.191-.034.107-.089.206-.163.29-.092.104-.202.19-.325.254-.161.084-.33.15-.505.197-.292.08-.589.143-.889.189-2.283.331-4.497.422-6.72.653-2.208.191-4.4.527-6.564 1.006-1.062.242-2.103.572-3.11.988-.988.43-1.915.986-2.759 1.655-3.435 2.686-5.959 6.465-8.271 10.248-2.311 3.814-4.373 7.788-6.34 11.805-.999 2.002-1.95 4.028-2.892 6.059-.962 2.021-1.862 4.071-2.779 6.114-3.591 8.204-7.03 16.475-10.317 24.813l-.065.167-.174-.042c-3.137-.757-6.239-1.617-9.329-2.528-3.087-.916-6.16-1.882-9.217-2.899-3.056-1.019-6.091-2.099-9.105-3.242-3.019-1.128-5.995-2.366-8.962-3.628l.146.033-19.3686-.349.3648-.852c.6056.673 1.1084 1.432 1.4923 2.253.386.794.6897 1.625.9067 2.481.4253 1.703.5811 3.462.4616 5.213-.1201 1.736-.4345 3.453-.9371 5.119-.5302 1.673-1.1679 3.21-1.5271 4.805-.4243 1.531-.424 3.149.0009 4.679.236.685.6858 1.275 1.2828 1.684.5916.394 1.3.572 2.0073.507.3423-.027.6296-.18.576-.21.1053-.219.2286-.43.3686-.63.1089-.157.2093-.32.301-.487.3318-.715.5663-1.47.6975-2.247.3213-1.618.5067-3.297.671-4.971l.0325-.331.2891-.168 5.448-3.166.3897-.227.362.286c7.762 6.122 15.677 12.115 23.999 17.43 2.09 1.308 4.198 2.595 6.372 3.726l1.633.845 1.669.733c.279.119.555.252.836.358l.852.272c.563.204 1.14.364 1.728.48 2.33.556 4.753.599 7.101.125 1.146-.291 2.247-.734 3.275-1.318 1.019-.622 1.964-1.358 2.817-2.193.863-.858 1.67-1.77 2.416-2.732.776-.942 1.485-1.938 2.121-2.979 1.314-2.081 2.56-4.228 3.812-6.363 2.487-4.285 4.956-8.582 7.408-12.893l14.61-25.914.068-.122.092.101 2.126 2.33-.094.087-2.178-2.281.161-.02c-4.646 8.763-9.347 17.496-14.103 26.2-2.389 4.346-4.771 8.697-7.23 13.008-1.236 2.154-2.459 4.308-3.771 6.433-.648 1.08-1.369 2.115-2.159 3.095-.766 1.005-1.595 1.96-2.482 2.859-.912.909-1.924 1.711-3.017 2.39-1.123.655-2.33 1.154-3.588 1.485-2.522.54-5.132.524-7.647-.048-.63-.12-1.25-.289-1.853-.506l-.92-.294c-.298-.111-.582-.247-.874-.37l-1.736-.759-1.672-.861c-2.227-1.153-4.358-2.449-6.473-3.766-4.212-2.661-8.285-5.513-12.301-8.44-4.012-2.934-7.961-5.939-11.8352-9.062l.7522.059-5.465 3.136.3215-.498c-.1764 1.697-.3704 3.394-.7183 5.101-.1581.896-.4389 1.765-.8345 2.585-.2364.442-.5252.78-.6458 1.055l-.0303.06c-.0295.057-.062.111-.0974.164-.0611.092-.1359.173-.2218.242-.13.107-.2755.193-.4316.255-.2526.104-.5193.169-.7913.193-.9967.094-1.9953-.16-2.8258-.719-.8116-.558-1.4231-1.362-1.7445-2.293-.5-1.751-.5059-3.606-.017-5.36.2018-.847.4531-1.682.7525-2.5.3003-.823.5451-1.582.8216-2.376.4852-1.581.7992-3.209.9367-4.857.1312-1.635.0056-3.281-.3722-4.877-.1903-.791-.4608-1.56-.8075-2.296-.3279-.721-.7566-1.393-1.2731-1.994l-.7883-.886 1.1532.034 19.3639.573.077.002.07.031c2.94 1.291 5.892 2.558 8.888 3.721 2.987 1.183 6.001 2.298 9.041 3.345 3.034 1.063 6.092 2.054 9.174 2.972 3.078.923 6.176 1.797 9.292 2.564l-.24.125c3.358-8.309 6.663-16.641 10.237-24.863 1.774-4.117 3.567-8.227 5.499-12.277 1.91-4.059 3.92-8.078 6.196-11.964 1.131-1.954 2.363-3.849 3.69-5.676 1.34-1.857 2.925-3.525 4.712-4.958.912-.727 1.913-1.333 2.98-1.803 1.062-.444 2.16-.799 3.282-1.06 2.21-.502 4.45-.857 6.707-1.062 2.232-.245 4.501-.355 6.655-.647.255-.037.507-.089.756-.155.096-.024.189-.058.278-.101.028-.014.038-.028.009.004-.027.032-.046.07-.058.11-.008.029-.014.058-.017.089 0 .015.001.031.004.046l-.007-.014c-.033-.081-.062-.164-.084-.249l-.163-.361c-.101-.24-.232-.486-.356-.731-.498-.981-1.049-1.955-1.598-2.925-2.218-3.877-4.544-7.7079-6.886-11.5202l.42.2401c-3.313-.0492-6.524-1.1489-9.171-3.1406-2.552-2.0559-4.532-4.7346-5.749-7.778-.632-1.4902-1.117-3.0382-1.449-4.6223-.381-1.5901-.453-3.2386-.212-4.8558.364-3.1869.939-6.3181 1.578-9.4442l-.003.083-.156-2.1022c.004-.7033-.02-1.4061.007-2.1081.064-.7007.061-1.4059.188-2.0997l.154-1.0432.232-1.029c.327-1.3689.835-2.6884 1.508-3.924.665-1.2449 1.575-2.3422 2.675-3.2254z"/><path d="m99.9609 172.639c.5861-.309 1.1281-.697 1.6101-1.152.5-.467.928-1.005 1.272-1.597.357-.599.604-1.256.73-1.942.133-.702.162-1.42.087-2.13.182.707.26 1.438.231 2.168-.027.749-.186 1.488-.471 2.181-.281.708-.665 1.37-1.139 1.967-.482.616-1.05 1.16-1.685 1.618zm43.3261-1.59c1.378-.431 2.855-.433 4.234-.006.685.24 1.3.647 1.786 1.186.47.536.824 1.164 1.039 1.844.391 1.337.52 2.737.381 4.122-.113 1.371-.329 2.731-.649 4.069.267-1.344.43-2.707.489-4.077.084-1.356-.093-2.717-.523-4.007-.204-.626-.552-1.195-1.017-1.661-.464-.466-1.033-.815-1.658-1.02-1.277-.337-2.626-.283-3.872.154zm28.771-38.431c.464 1.052 1.031 2.056 1.692 2.997.645.938 1.373 1.815 2.176 2.621.799.811 1.666 1.551 2.591 2.214.939.669 1.912 1.287 2.917 1.851-.55-.185-1.103-.38-1.64-.612-.535-.241-1.053-.516-1.553-.823-1.011-.609-1.942-1.341-2.771-2.18-.831-.839-1.551-1.782-2.141-2.805-.604-1.009-1.034-2.112-1.271-3.263z"/><path d="m254.055 141.148c-3.227-16.83-21.671-45.8798-35.044-40.347-13.372 5.534-8.53 25.592-8.53 25.592s.23 22.133-12.22 22.364c-12.449.23-6.935-41.007-6.935-41.007s-1.134-4.412-5.745-1.876-3.112 11.643-1.614 21.556c1.499 9.914 0 14.871 0 14.871-6.519 25.867 8.531 33.2 9.684 34.333.608.596 4.649 8.396 8.319 15.601 8.088-4.329 12.322-7.544 12.43-7.973.231-.922 1.384-41.961 1.384-41.961s-10.83-28.653 4.188-35.121c2.564-1.055 5.394-1.279 8.092-.64 2.697.639 5.127 2.108 6.945 4.201 6.801 7.666 18.547 23.619 14.205 38.477 0 0-3.689 5.994-10.144 1.844 0 0-2.921 38.426-3.536 45.803-.614 7.378-12.001 11.726-12.001 11.726l2.165.57c15.908-3.458 37.58 0 37.58 0-.692-1.844-5.995-51.182-9.223-68.013z"/><path d="m202 192.291c-3.356 1.895-6.795 3.641-10.278 5.297-3.484 1.653-7.033 3.167-10.61 4.612-3.578 1.442-7.192 2.798-10.851 4.023-3.655 1.236-7.336 2.391-11.044 3.464l.189-.096-5.922 4.71-5.955 4.668-5.962 4.66-1.497 1.156c-.508.409-1.041.784-1.597 1.124-1.128.688-2.384 1.066-3.367 1.688-.98.674-1.713 1.651-2.085 2.782l-1.39 3.509c-.917 2.336-1.875 4.691-2.76 7.015-.076.605-.116 1.214-.119 1.824l-.029 1.887.002 3.781c.018 2.521.053 5.042.103 7.564l-.069-.143c.519.428 1.176.653 1.849.633.326-.047.636-.169.906-.357.27-.189.493-.437.649-.727.362-.602.654-1.244.87-1.913.232-.672.429-1.356.591-2.049.635-2.79 1.035-5.628 1.197-8.485l.002-.028.008-.03 1.006-3.468.283-.975.298.978c.823 2.703 1.678 5.407 2.654 8.048.248.658.503 1.315.792 1.938.127.295.281.577.461.843.089.183.398.289.704.384 1.342.303 2.715.44 4.09.41l.129.001.109.067 1.854 1.137.109.067.07.139c.561 1.122 1.379 2.095 2.387 2.842.987.714 2.21 1.022 3.417.861 1.253-.186 2.458-.611 3.549-1.253 1.095-.627 2.075-1.436 2.899-2.392l-.094.557c-.165-.361-.424-.671-.749-.899-.346-.235-.747-.379-1.164-.416-.451-.041-.904-.011-1.346.087-.228.066-.457.12-.685.192l-.679.256-.734.276-.111-.755-1.185-8.065-.054-.366.304-.24c1.663-1.33 3.237-2.767 4.713-4.302 1.482-1.532 2.869-3.153 4.152-4.854 1.255-1.708 2.359-3.522 3.3-5.42.885-1.902 1.514-3.913 1.87-5.981l.041-.246.171-.151c4.181-3.667 8.464-7.19 12.928-10.501 2.225-1.663 4.495-3.27 6.837-4.776 2.327-1.559 4.786-2.91 7.35-4.036l.065-.027.051-.005c2.493-.204 5.001-.136 7.479.201 1.233.15 2.457.368 3.67.626 1.218.246 2.42.571 3.596.972 2.336.77 4.674 1.539 7.027 2.255 1.176.358 2.356.705 3.543 1.024.593.158 1.189.31 1.787.442.3.064.6.125.902.17.289.062.588.071.88.028l.051.117c-.313.066-.637.07-.952.013-.309-.036-.614-.088-.918-.143-.608-.112-1.21-.245-1.811-.384-1.201-.28-2.395-.589-3.585-.909-2.379-.643-4.749-1.322-7.107-2.036-1.163-.367-2.349-.659-3.55-.873-1.2-.226-2.407-.413-3.621-.532-2.412-.273-4.846-.285-7.261-.037l.116-.031c-2.488 1.145-4.873 2.502-7.128 4.057-2.293 1.52-4.522 3.145-6.708 4.828-2.192 1.675-4.34 3.409-6.469 5.166-2.129 1.755-4.241 3.543-6.3 5.368l.213-.396c-.368 2.199-1.029 4.34-1.965 6.364-.972 1.98-2.115 3.872-3.416 5.654-1.309 1.76-2.739 3.427-4.278 4.989-1.533 1.572-3.169 3.04-4.895 4.396l.25-.606 1.121 8.074-.845-.479.776-.285c.265-.083.541-.147.811-.22.57-.122 1.157-.154 1.738-.094.617.065 1.206.285 1.714.641.527.37.935.886 1.174 1.483l.123.305-.217.252c-.921 1.072-2.025 1.971-3.261 2.655-1.228.694-2.578 1.144-3.976 1.326-.732.085-1.473.032-2.186-.157-.703-.197-1.364-.52-1.954-.951-1.134-.864-2.045-1.987-2.655-3.276l.179.206-1.835-1.169.239.069c-1.461.008-2.917-.166-4.335-.52-.191-.058-.377-.132-.557-.22-.095-.049-.192-.117-.286-.177-.09-.083-.173-.173-.248-.27-.218-.32-.402-.662-.548-1.021-.296-.666-.541-1.336-.782-2.008-.944-2.69-1.748-5.407-2.526-8.139l.58.003-1.068 3.449.01-.058c-.219 2.88-.655 5.738-1.304 8.552-.17.706-.376 1.402-.616 2.086-.232.698-.542 1.368-.926 1.995-.193.341-.462.632-.786.851-.325.218-.696.358-1.084.408-.778.026-1.537-.237-2.133-.737l-.067-.052-.002-.092-.164-7.569-.036-3.787.013-1.896c-.003-.652.035-1.303.114-1.949.851-2.406 1.747-4.749 2.619-7.129l1.317-3.558c.409-1.29 1.226-2.412 2.328-3.199 1.144-.746 2.34-1.119 3.354-1.776.998-.634 1.95-1.501 2.943-2.275l5.918-4.719 5.924-4.711 5.958-4.668.087-.068.102-.028c7.4-2.076 14.7-4.472 21.901-7.188 3.597-1.355 7.151-2.822 10.679-4.353 3.529-1.529 7.002-3.186 10.441-4.917zm36.749-41.232c.095-3.834.231-7.663.436-11.491.102-1.914.221-3.827.39-5.737.079-.955.18-1.908.301-2.859.071-.474.118-.952.221-1.421.048-.235.086-.472.142-.704l.214-.687-.194.691c-.05.234-.081.472-.122.707-.09.47-.124.949-.181 1.423-.096.952-.17 1.906-.221 2.862-.116 1.91-.181 3.824-.231 5.737-.098 3.827-.127 7.658-.114 11.484zm-21.091 51.564c1.182-.499 2.331-1.073 3.44-1.718 1.099-.629 2.138-1.361 3.101-2.184.947-.826 1.772-1.782 2.45-2.84.637-1.101 1.079-2.305 1.307-3.557.014 1.318-.284 2.62-.871 3.8-.632 1.165-1.467 2.208-2.466 3.08-2.008 1.688-4.397 2.861-6.961 3.419zm8.102 6.524c.032-.036-.028-.071-.001-.062l.071-.013.143-.024.286-.047.573-.086 1.15-.148c.767-.092 1.538-.154 2.31-.204 1.543-.097 3.093-.131 4.643-.078 3.125.063 6.221.62 9.172 1.649 1.491.539 2.896 1.292 4.171 2.234 1.289.964 2.368 2.182 3.17 3.577.395.695.727 1.425.992 2.179.266.727.521 1.459.77 2.194.496 1.468.945 2.954 1.347 4.457.847 3.009 1.349 6.104 1.497 9.226.2 3.162-.284 6.331-1.42 9.289-1.202 2.957-3.273 5.481-5.939 7.236-1.301.878-2.702 1.596-4.173 2.14-1.456.551-2.952.991-4.475 1.316l-.026.006h-.029l-7.608-.042c-2.537-.023-5.073-.016-7.609-.001l.086-.402c3.262 1.364 6.658 2.383 10.132 3.039 3.444.718 6.986.834 10.47.341.855-.137 1.701-.334 2.529-.589.831-.272 1.671-.559 2.491-.875 1.655-.605 3.267-1.312 4.853-2.066 1.575-.768 3.101-1.634 4.567-2.593 1.465-.945 2.847-2.012 4.133-3.189 1.269-1.177 2.413-2.482 3.415-3.894.976-1.416 1.759-2.957 2.327-4.581.29-.807.522-1.634.697-2.473.087-.418.148-.84.183-1.265.039-.424.129-.841.127-1.271.054-1.726-.067-3.454-.363-5.156-1.199-6.87-4.21-13.412-7.656-19.494l.357.265c-3.046-.76-6.133-1.34-9.246-1.736-3.121-.4-6.257-.647-9.409-.742-3.149-.093-6.301.016-9.437.326l-2.351.258c-.78.11-1.555.254-2.335.38l-1.168.195-1.11.243c-.735.15-1.52.291-2.307.481zm-.125.028c1.527-.5 3.078-.923 4.648-1.266.776-.159 1.551-.336 2.332-.48l2.355-.357c3.152-.423 6.328-.63 9.508-.619 3.182-.008 6.362.167 9.524.525 3.172.347 6.321.883 9.43 1.603l.228.054.129.21c1.856 3.069 3.478 6.273 4.851 9.586 1.409 3.316 2.451 6.776 3.108 10.319.324 1.796.454 3.621.387 5.445-.003.458-.101.917-.149 1.375-.044.458-.115.914-.213 1.365-.195.896-.453 1.778-.771 2.639-.622 1.724-1.472 3.358-2.528 4.857-1.067 1.476-2.284 2.837-3.631 4.063-2.714 2.383-5.766 4.352-9.057 5.842-1.633.743-3.287 1.436-4.979 2.018-.844.3-1.693.566-2.555.824-.875.245-1.766.428-2.666.55-3.575.412-7.194.21-10.701-.598-3.492-.741-6.906-1.814-10.195-3.204l-.953-.407 1.038.006c2.536.015 5.072.022 7.608-.001l7.609-.042-.056.006c1.485-.353 2.94-.823 4.351-1.405 1.408-.566 2.742-1.298 3.975-2.18 2.477-1.725 4.371-4.161 5.432-6.986 1.025-2.838 1.448-5.859 1.241-8.87-.18-3.039-.662-6.052-1.437-8.996-.376-1.48-.803-2.949-1.281-4.406-.417-1.449-.965-2.858-1.635-4.209-1.551-2.572-3.94-4.532-6.767-5.548-2.859-1.067-5.862-1.695-8.909-1.862-1.527-.114-3.063-.144-4.599-.11-.768.016-1.535.054-2.303.102l-1.15.086-.574.055-.287.031-.143.017-.071.008c-.026.005-.052.003-.077-.004-.024-.007-.047-.019-.067-.036zm-128.967-20.719c1.0601-.973 2.1769-1.884 3.344-2.725.572-.435 1.164-.831 1.754-1.245.619-.41 1.267-.775 1.938-1.094 2.699-1.227 5.717-1.57 8.622-.981-1.434.236-2.829.456-4.182.793-.675.175-1.344.35-1.992.587-.653.214-1.292.47-1.913.764-.627.282-1.236.599-1.825.952-.619.351-1.229.727-1.863 1.061-1.2559.705-2.5526 1.335-3.883 1.888z"/><path d="m128.51 245.338c-3.117 1.643-6.463 2.81-9.925 3.463-3.47.693-7.016.921-10.546.68-3.524-.271-7.003-.962-10.3628-2.059-3.3706-1.023-6.6244-2.397-9.7076-4.101-1.5519-.845-2.9935-1.879-4.2917-3.077-.6482-.612-1.2193-1.301-1.7008-2.051-.5042-.76-.8135-1.632-.9006-2.539-.0448-.466-.0002-.936.1315-1.384.1708-.445.4431-.844.7953-1.166.6556-.613 1.3851-1.142 2.1716-1.575 1.5399-.859 3.133-1.619 4.7696-2.276 6.5491-2.51 13.2635-4.566 20.0955-6.153l-.025 1.321c-1.474-.444-2.91-1.004-4.295-1.674-1.381-.654-2.712-1.407-3.983-2.255-2.5664-1.672-4.8504-3.741-6.7658-6.131-.9547-1.194-1.796-2.474-2.5128-3.824-.3686-.668-.6901-1.36-.962-2.073l-.4386-1.053-.3725-1.067c-.5049-1.424-.9084-2.882-1.2076-4.363-.3297-1.483-.3807-3.014-.1504-4.516l.1268.018c-.0985 1.482.063 2.969.4773 4.395.3965 1.432.875 2.84 1.4332 4.216 1.0649 2.749 2.5688 5.306 4.4531 7.572 1.9192 2.222 4.1567 4.149 6.6403 5.716 1.236.791 2.522 1.501 3.849 2.127 1.311.637 2.668 1.171 4.061 1.598l.017.004c.144.043.269.133.357.255s.133.269.128.419c-.004.15-.059.295-.154.411s-.226.197-.373.231c-3.385.783-6.775 1.603-10.1284 2.538-3.3579.919-6.6939 1.916-9.9687 3.072-1.6355.566-3.2306 1.243-4.774 2.026-.7614.379-1.4728.852-2.118 1.406-.3095.253-.5503.579-.7002.949-.118.39-.1614.799-.1278 1.205.0701.839.346 1.649.8034 2.356.4439.733.9906 1.398 1.6233 1.975 1.2939 1.147 2.7243 2.13 4.2588 2.926 3.1115 1.536 6.378 2.735 9.7441 3.578 3.3285.927 6.7295 1.573 10.1665 1.931 6.931.55 13.894-.533 20.329-3.164zm24.089-53.103c3.049.03 6.094.219 9.124.566 1.519.139 3.023.382 4.535.577 1.505.237 3.01.479 4.509.751 2.995.561 5.977 1.193 8.927 1.96 2.958.737 5.876 1.627 8.743 2.666-5.996-1.097-11.935-2.286-17.902-3.367-2.977-.565-5.963-1.08-8.951-1.601-2.987-.534-5.985-.992-8.985-1.552z"/><path d="m109.191 223.763c1.984.482 3.925 1.061 5.856 1.664 1.934.594 3.847 1.242 5.762 1.88l5.719 1.968c1.915.634 3.799 1.321 5.779 1.799-2.047-.023-4.083-.305-6.058-.84-1.981-.476-3.923-1.079-5.851-1.715-1.918-.666-3.822-1.368-5.692-2.157-1.882-.771-3.722-1.638-5.515-2.599zm3.689-26.149c3.603 1.193 7.252 2.241 10.924 3.185 3.674.937 7.374 1.771 11.102 2.437.933.154 1.865.324 2.799.463l2.821.415c1.896.321 3.763.79 5.585 1.404 1.838.607 3.608 1.402 5.283 2.371 1.714.978 3.245 2.245 4.526 3.746l-1.001.801c-1.152-1.425-2.542-2.639-4.108-3.59-1.586-.977-3.268-1.788-5.019-2.423-1.76-.648-3.567-1.156-5.407-1.52l-2.798-.493c-.938-.167-1.869-.364-2.803-.545-3.725-.775-7.411-1.715-11.063-2.757-3.651-1.049-7.272-2.2-10.841-3.494zm83 41.519c.785.694 1.346 1.271 1.978 1.768.312.257.639.495.981.711.348.25.742.439 1.19.749-.489.21-1.028.278-1.554.195-.527-.082-1.019-.31-1.422-.66-.411-.331-.739-.755-.955-1.236-.224-.476-.3-1.008-.218-1.527z"/><path d="m180.158 242.316c1.194-1.281 2.383-2.568 3.544-3.875.577-.656 1.15-1.318 1.683-2 .257-.376.555-.723.888-1.034.35-.305.74-.56 1.159-.76 1.668-.727 3.489-1.029 5.302-.878 1.775.145 3.53.478 5.235.993 3.394.901 6.757 1.89 10.122 2.877 3.36 1.015 6.725 1.971 10.053 3.17l2.47.95c.863.333 1.679.778 2.425 1.325.749.58 1.369 1.309 1.819 2.142s.722 1.751.796 2.695c.167 1.798.037 3.611-.383 5.366-.141.92-.489 1.796-1.017 2.562-.532.747-1.184 1.4-1.929 1.934-1.473 1.011-3.09 1.793-4.796 2.321-1.676.552-3.391.979-5.13 1.277-1.734.304-3.482.517-5.238.639-.439.032-.878.058-1.323.067-.195.003-.387.046-.564.126-.178.081-.336.197-.466.343-.589.617-1.078 1.324-1.447 2.093-.78 1.556-1.432 3.172-1.951 4.834-.539 1.653-.975 3.338-1.305 5.045-.087.384-.096.781-.025 1.168.109.359.326.677.621.909.785.5 1.441 1.178 1.914 1.98.101.23.176.472.221.719.017.122.024.244.035.366.018.136.016.274-.005.409-.022.154-.067.304-.136.443-.075.13-.167.25-.274.355-.193.187-.42.336-.668.44-.872.324-1.791.501-2.721.525-3.566.181-7.074-.285-10.514-.219-.427.005-.825.057-1.348.047-.508-.01-1.009-.116-1.479-.311-.923-.413-1.684-1.119-2.165-2.008-.443-.809-.793-1.664-1.045-2.551-.107-.383-.241-.759-.401-1.123-.019-.046-.085-.092.03-.004.04.019.081.034.124.044.021.003.042.004.063.001h-.047l-.185-.004c-.244-.01-.487-.035-.728-.074-.505-.073-.993-.232-1.444-.469-.506-.265-.917-.679-1.178-1.186-.242-.505-.335-1.068-.269-1.624.049-.464.129-.924.238-1.378.415-1.766.985-3.403 1.362-5.077.2-.826.353-1.663.459-2.507l.065-.629.104-.714c.087-.456.201-.907.34-1.35.566-1.694 1.251-3.346 2.049-4.944 1.522-3.178 3.29-6.247 4.76-9.348.136-.256.168-.553.091-.832-.119-.297-.32-.554-.58-.74-.658-.464-1.39-.813-2.166-1.03-1.641-.481-3.328-.79-5.033-.923l.36-.112c-1.88 1.392-3.959 2.494-6.167 3.267-2.202.719-4.476 1.196-6.781 1.423-2.292.205-4.597.213-6.89.024-2.286-.176-4.553-.534-6.782-1.072l.031-.124c2.235.434 4.501.688 6.777.76 2.266.076 4.535-.016 6.787-.278 2.235-.29 4.431-.822 6.551-1.586 2.085-.799 4.044-1.892 5.82-3.245l.167-.126.193.013c1.794.105 3.572.397 5.305.871.919.242 1.789.643 2.569 1.185.457.326.808.78 1.009 1.304.181.569.143 1.186-.109 1.727-.725 1.647-1.563 3.182-2.365 4.741-.807 1.553-1.609 3.104-2.358 4.672-.762 1.54-1.415 3.132-1.955 4.763-.122.393-.222.793-.299 1.197l-.084.586-.067.679c-.107.895-.267 1.784-.479 2.661-.413 1.741-1.014 3.417-1.416 5.059-.1.397-.175.8-.224 1.206-.047.318-.003.643.129.936.184.285.432.524.724.696.293.172.622.273.961.295.191.033.383.054.577.065l.143.004.036.001c.048.003.096.008.143.017.097.014.191.048.275.099.194.118.349.289.447.493.198.435.358.886.482 1.348.216.804.522 1.58.91 2.316.346.672.904 1.212 1.588 1.534.341.145.705.225 1.076.238.352.017.829-.025 1.278-.023 3.57.009 7.045.513 10.491.431.825.003 1.645-.125 2.429-.381.343-.149.607-.342.626-.595l.015-.102-.009-.144-.017-.288c-.029-.184-.08-.365-.149-.538-.268-.704-.98-1.155-1.679-1.773-.387-.329-.664-.768-.794-1.258-.084-.478-.068-.967.047-1.438.376-1.726.861-3.426 1.45-5.091.551-1.677 1.231-3.309 2.033-4.882.398-.808.922-1.549 1.553-2.193.175-.162.371-.301.582-.412.115-.052.235-.093.358-.123.121-.019.243-.03.365-.031.432-.005.867-.026 1.302-.054 1.74-.127 3.471-.356 5.185-.684 1.712-.315 3.398-.756 5.045-1.319 1.635-.548 3.176-1.346 4.566-2.366.683-.478 1.261-1.091 1.698-1.802.437-.71.724-1.502.844-2.327.35-1.67.425-3.386.222-5.08-.054-.413-.175-.808-.268-1.207-.127-.384-.289-.755-.483-1.109-.37-.712-.903-1.327-1.555-1.794-1.283-.974-3.006-1.434-4.628-2.076-6.597-2.224-13.328-4.262-20.037-6.217-1.637-.547-3.327-.919-5.042-1.11-1.691-.191-3.402.039-4.982.67-.378.167-.733.38-1.058.634-.319.274-.607.583-.858.921-.577.674-1.181 1.312-1.79 1.945-1.218 1.265-2.47 2.492-3.745 3.696z"/><path d="m184.198 265.416c.851.336 1.648.796 2.365 1.365.771.578 1.382 1.342 1.777 2.221.191.483.275 1.002.247 1.52-.029.519-.168 1.025-.41 1.485-.476.86-1.128 1.609-1.914 2.2l-.317-1.104c.527.055 1.049.15 1.562.283.52.128 1.026.31 1.508.545.517.242.986.579 1.38.993.43.455.71 1.031.802 1.65l-.873-.462c.403-.173.826-.298 1.26-.371.423-.074.853-.098 1.282-.074.433.025.859.112 1.266.26.406.144.79.341 1.143.587l-.578.083c.382-.36.843-.626 1.346-.778.47-.151.963-.214 1.456-.187.476.027.945.121 1.394.28.221.077.433.173.645.266l.604.334-.658-.186c-.225-.037-.441-.098-.662-.127-.433-.063-.873-.075-1.309-.036-.418.047-.825.159-1.209.331-.355.16-.673.392-.934.682l-.223.268-.355-.185c-.299-.169-.619-.298-.952-.384-.33-.085-.67-.125-1.01-.118-.679-.001-1.35.15-1.963.442l-.705.355-.169-.816c-.073-.361-.249-.694-.507-.958-.297-.296-.647-.535-1.032-.703-.409-.196-.835-.355-1.273-.474-.443-.124-.894-.215-1.35-.273l-1.551-.187 1.234-.917c.672-.465 1.246-1.057 1.691-1.743.204-.323.336-.686.388-1.064.053-.378.024-.762-.084-1.128-.265-.8-.711-1.528-1.302-2.128-.609-.649-1.282-1.234-2.01-1.747zm14.006-7.954c.23 1.25.3 2.523.207 3.79-.073 1.276-.289 2.541-.644 3.769-.353 1.263-.943 2.448-1.738 3.491-.388.538-.89.985-1.471 1.306-.58.322-1.225.512-1.887.556 1.08-.526 1.967-1.377 2.537-2.433.292-.511.544-1.044.753-1.593.226-.553.42-1.118.579-1.694.358-1.147.615-2.338.885-3.536.256-1.203.496-2.417.779-3.656zm7.513 4.426c-.012-1.015.048-2.03.179-3.037.11-.997.279-1.979.448-2.96.194-.976.384-1.951.619-2.918.224-.972.48-1.93.752-2.927.23 1.003.31 2.035.239 3.062-.048 1.012-.165 2.02-.351 3.016-.187.992-.432 1.973-.734 2.936-.293.977-.679 1.924-1.152 2.828zm-30.741-40.123c-.136.655-.153 1.328-.05 1.989.104.554.37 1.064.764 1.467.205.216.427.414.666.592.257.175.525.354.803.531.296.149.575.352.884.512.322.167.632.355.929.563-.368.042-.738.055-1.108.04-.371-.036-.738-.099-1.099-.189-.367-.111-.723-.256-1.063-.433-.352-.2-.672-.451-.95-.745-.294-.305-.52-.669-.663-1.068-.143-.398-.199-.823-.166-1.245.033-.389.143-.767.324-1.113s.429-.652.729-.901zm-69.781-25.745c.571-.473 1.232-.827 1.943-1.038 1.433-.457 2.975-.447 4.403.027.703.227 1.363.568 1.954 1.011-.71-.193-1.384-.408-2.079-.527-.685-.135-1.38-.204-2.077-.206-.698-.009-1.394.051-2.08.178-.702.126-1.393.311-2.064.555z"/><path d="m86.3125 241.776 7.5098-2.643-6.9888 3.813z"/><path d="m81.9922 237.686 7.5098-2.643-6.9888 3.813z"/><path d="m93.7461 245.451 4.9293-1.831-4.3406 2.969z"/><path d="m99.2734 246.868 5.2226-.606-4.9211 1.852z"/><path d="m135.809 239.508c-.069-1.564.041-3.13.329-4.668.142-.77.391-1.517.74-2.219.16-.357.39-.678.677-.944.288-.266.626-.471.994-.603-.351.152-.667.374-.929.652-.263.278-.466.606-.598.965-.291.704-.482 1.445-.568 2.202-.176 1.514-.178 3.044-.007 4.558zm8.713 12.191c-.456-1.364-.848-2.72-1.205-4.097-.353-1.375-.665-2.761-.897-4.164-.254-1.401-.379-2.822-.373-4.246.005-.714.094-1.425.266-2.118.154-.701.532-1.332 1.078-1.797-.5.494-.823 1.138-.922 1.833-.116.686-.15 1.383-.102 2.077.1 1.392.328 2.772.68 4.123.332 1.356.741 2.694 1.191 4.017.45 1.32.944 2.639 1.479 3.911z"/><path d="m146.324 252.621.641-10.26.64 10.26z"/><path d="m60.6172 160.585c.6409.603 1.4269 1.029 2.2815 1.238.8447.202 1.716.27 2.5818.2.8693-.039 1.7334-.156 2.5822-.347.8483-.174 1.6839-.405 2.5012-.691l.0381-.012c1.1615-.423 2.3573-.722 3.4894-1.217 1.1336-.471 2.2404-1.004 3.3154-1.597 1.0599-.591 2.0649-1.275 3.0029-2.045.9067-.689 1.6181-1.602 2.0643-2.649.0824-.21.1128-.438.0886-.662-.0242-.225-.1022-.44-.2276-.628-.3248-.406-.7665-.701-1.265-.846-1.1376-.371-2.3324-.534-3.5276-.481-2.4905.072-4.9623.456-7.3572 1.143 2.3172-1.048 4.7888-1.714 7.3187-1.972 1.312-.147 2.64-.044 3.9134.304.7215.188 1.3643.601 1.8351 1.179.2377.326.396.703.462 1.1.0661.398.0382.805-.0815 1.19-.2041.682-.5483 1.313-1.0106 1.854-.4209.517-.8869.995-1.3924 1.429-.9901.839-2.0671 1.57-3.2126 2.18-1.1253.615-2.293 1.149-3.4943 1.598-.5994.222-1.2023.432-1.8217.594l-1.8439.518.0378-.011c-.88.254-1.777.446-2.6842.574-.904.128-1.8175.176-2.7299.143-.9178-.026-1.8254-.199-2.6883-.513-.862-.303-1.6177-.849-2.1756-1.573z"/><path d="m83.2129 152.753c.615.152 1.1816.457 1.6474.886.4785.408.9142.864 1.3004 1.36.387.488.7402 1.002 1.0571 1.538.3297.527.5953 1.085.873 1.636l-.1266-.181.0065.006.0937.091.0563.148c.2418.636.436 1.289.6564 1.932.2017.65.3998 1.301.5792 1.959.1806.657.3451 1.32.4935 1.988.1394.672.281 1.343.363 2.034-.3664-.592-.673-1.205-.9819-1.818-.2999-.615-.5837-1.236-.8513-1.863-.2689-.627-.5192-1.26-.7657-1.894-.228-.641-.4821-1.272-.6886-1.92l.15.239-.0061-.007-.0846-.087-.0422-.094c-.2426-.541-.508-1.069-.7577-1.604-.261-.529-.5364-1.049-.8192-1.565-.2872-.513-.6003-1.01-.9382-1.491-.3271-.498-.738-.935-1.2144-1.293zm-11.4321 4.529c-.2246 0-.4421-.079-.6147-.223-.1725-.144-.2893-.343-.3299-.564-.0407-.221-.0026-.449.1075-.645s.2853-.347.4952-.427l7.7463-2.953c.2379-.09.5018-.082.7338.022.232.105.4132.297.5037.534.0905.238.0831.502-.0207.734s-.2955.414-.533.505l-7.7463 2.953c-.1091.042-.225.064-.3419.064zm139.9302-70.4675 1.085 4.0458c.386 1.3233.771 2.6378 1.277 3.8918.462 1.255 1.078 2.4474 1.836 3.5495.774 1.1128 1.85 1.9804 3.102 2.4994-.736-.033-1.458-.215-2.123-.534-.665-.3192-1.258-.769-1.745-1.3227-.984-1.0872-1.752-2.3519-2.262-3.7265-.51-1.3397-.865-2.7332-1.06-4.1535-.213-1.4065-.25-2.8341-.11-4.2498z"/><path d="m175.438 41.7801s-3.843 6.6092.922 4.3805 5.995 6.225 25.207 1.6139c0 0 1.845 27.359 8.608 19.8276s10.913-1.2296 9.529 2.6129c-1.383 3.8426-8.607 5.0722-9.529 6.1481-.923 1.076-2.921 13.0647 3.074 11.0666 5.994-1.9981 9.683-10.4518 11.527-19.0591 0 0 3.689-4.4573 12.297 2.1519 8.607 6.6092 36.581 11.835 43.958-1.3834 7.378-13.2184 16.293-18.1368 17.676-17.0609 0 0-20.75-4.15-27.974 3.6888-7.224 7.8389-28.435-2.3055-29.203-3.3814-.769-1.0759-6.917-2.7666-15.063 2.6129 0 0-4.457-20.4424-24.131-20.9035s-26.898 7.6851-26.898 7.6851zm10.058 48.4681c.773.0664 1.549.0795 2.323.0392.789-.0387 1.575-.1261 2.353-.2617.783-.133 1.556-.3253 2.31-.5753.762-.2511 1.5-.5672 2.208-.9448-.659.4727-1.357.888-2.087 1.2414-.736.3575-1.498.6586-2.279.9008-.785.2471-1.584.4455-2.394.5939-.823.1537-1.655.2493-2.492.286zm-14.812-35.0584c.348-.4352.773-.8022 1.255-1.0825.466-.2787.966-.4941 1.489-.6406.535-.1562 1.094-.2194 1.651-.1869.593.0022 1.161.2324 1.589.6428-.508.07-1.007.1905-1.491.3595l-1.407.4184c-.476.1335-.965.25-1.472.344-.532.1032-1.073.1519-1.614.1453z"/><path d="m184.198 53.7492c1.162-.4475 2.374-.7552 3.61-.9166 1.234-.1826 2.483-.2464 3.729-.1907 1.262.0444 2.513.257 3.719.6321 1.226.3479 2.341 1.008 3.236 1.9158-1.114-.4542-2.279-.7711-3.47-.9439-1.174-.1785-2.358-.2872-3.545-.3254-2.388-.1329-4.791-.0598-7.279-.1713zm-8.531 21.6917c.491.9967 1.149 1.9018 1.946 2.6758.339.3071.762.5049 1.215.5673.451.0219.898-.0842 1.29-.3062.996-.4958 1.964-1.0549 2.932-1.6381.965-.5888 1.922-1.2037 2.915-1.8366-.632.9977-1.418 1.89-2.327 2.6444-.899.7724-1.888 1.4349-2.944 1.9735-.628.3259-1.34.4513-2.042.3595-.688-.1431-1.306-.5194-1.749-1.0654-.763-.9628-1.197-2.1459-1.236-3.3742zm3.228-20.2511c.598 1.2893.911 2.692.919 4.1131.02.7858-.173 1.5625-.557 2.2482-.115.1725-.242.3367-.38.4914l-.335.3723c-.22.2487-.431.5002-.626.7589-.832.947-1.387 2.1044-1.606 3.3457-.112 1.311.172 2.6256.817 3.7726-.817-.7177-1.404-1.6605-1.688-2.7103-.082-.3674-.124-.7426-.126-1.1191.002-.7579.157-1.5077.455-2.2042.304-.6697.687-1.3 1.143-1.8772.226-.2815.464-.5491.705-.8069l.364-.3811c.141-.1367.165-.2083.267-.3069.316-.5024.512-1.0706.574-1.6608.146-1.3402.171-2.691.074-4.0357zm-8.789 9.7177c.851-.4597 1.782-.754 2.744-.8671.454-.0647.906-.1023 1.364-.1217.463-.017.915-.0066 1.453-.0054-.298.4377-.717.7789-1.206.9817-.454.2079-.935.347-1.43.413-.485.0696-.977.0772-1.464.0225-.509-.0505-1.004-.1938-1.461-.423zm15.859-3.4535c1.022.1486 2.005.2355 2.99.3345.984.0866 1.964.1785 2.948.2481.982.1012 1.971.1553 2.963.2739 1.011.0866 2.016.2303 3.011.4303-.982.3006-1.995.4915-3.019.5692-1.019.0841-2.043.0848-3.062.0021-1.025-.0832-2.039-.266-3.029-.5457-1.008-.2583-1.958-.7035-2.802-1.3124zm-155.531 18.4619-.0415-.33c-.282-2.2545-.4239-4.5244-.4249-6.7965-.0248-6.5613 1.1861-13.0686 3.5696-19.1817l.1125-.2864 20.1695 6.9978-.2097.605-19.5876-6.7959c-2.2802 5.9564-3.4377 12.2834-3.4141 18.6612.0011 2.1344.1279 4.2669.3799 6.3864l11.9609-1.9565.1028.6318zm56.2444-10.0587-7.7104-2.5594 4.722-38.1313.3932.1717c7.7139 3.3684 14.2628 9.346 18.9388 17.2879l.044.0753v.1962l-.06.083zm-7.0097-3.0012 6.7635 2.2442 15.9338-22.3243c-4.5194-7.6027-10.7835-13.3581-18.1463-16.6765zm4.3575 49.419-2.3722-34.4259 7.5796-2.9266 13.2044 20.8069v.1906l-.048.0781c-4.2567 7.0209-10.502 12.6199-17.9445 16.0879zm-1.701-33.9982 2.2765 33.0332c7.0827-3.407 13.0336-8.782 17.1403-15.4836l-12.7673-20.1174zm-80.71582-21.4118c.57037-9.6055 2.92368-19.021 6.9397-27.7653 3.95562-8.8651 10.12612-16.563 17.91792-22.3531l1.5-1.02311c.4906-.3542.9997-.68214 1.525-.98244l3.1635-1.78008c1.0905-.52165 2.1997-1.00566 3.2986-1.50937l.8259-.37408c.2802-.11221.5686-.20402.8525-.30708l1.7097-.60167 1.7095-.60097c.5747-.18345 1.1664-.31007 1.7487-.46783 1.1717-.28826 2.3319-.62964 3.5122-.8727 2.364-.47059 4.7545-.79656 7.1582-.97611l1.7997-.13985c.5981-.06195 1.199-.09365 1.8003-.09498l3.6055-.00123c.6004.00581 1.2014-.01353 1.8008.01302l1.796.13032 3.5891.2633c2.3819.27154 4.7459.68556 7.1144 1.02095 2.3444.48911 4.6812 1.00654 7.0128 1.52678l-7.0668-1.19173c-2.3756-.23901-4.7409-.55612-7.1154-.73041l-3.5679-.16885-1.7825-.08564c-.5941-.01179-1.1889.02233-1.7832.0313l-3.5639.08846c-.5935.01577-1.1858.06168-1.7746.13754l-1.7709.18185c-2.3718.16128-4.6871.69366-7.0229 1.07884-1.1565.24812-2.2908.59305-3.4368.88429-.5693.159-1.1483.28722-1.7095.47153l-1.6676.60237-1.6673.6015c-.2767.10289-.5581.19453-.8311.30638l-.8037.37268c-1.069.50161-2.1483.98209-3.2085 1.49917l-3.0708 1.76122c-1.0178.59573-1.9515 1.32473-2.9336 1.97653-3.8434 2.7549-7.2896 6.0252-10.242 9.719-2.9437 3.7173-5.4707 7.7464-7.5354 12.015-2.07694 4.2811-3.76789 8.7389-5.05277 13.3205-1.32832 4.5856-2.25609 9.2779-2.77285 14.024z"/><path d="m24.1551 26.7615c5.3843-6.1717 11.9339-11.22 19.2732-14.8553 3.6775-1.8382 7.5628-3.22703 11.5723-4.13666 4.0234-.89884 8.1478-1.26264 12.2664-1.08195 4.119.17936 8.1943.91958 12.1133 2.20021 3.9122 1.2526 7.6633 2.9613 11.176 5.0909 3.5082 2.099 6.8357 4.4861 9.9487 7.1365 1.53 1.3478 2.992 2.7702 4.488 4.1486 1.41 1.47 2.805 2.9501 4.186 4.4403-1.484-1.3913-2.958-2.7893-4.419-4.1937-1.556-1.3031-3.075-2.6467-4.655-3.9108-3.1554-2.5268-6.5133-4.79-10.0395-6.7667l-1.3209-.7348-.66-.3674-.6842-.3194-2.7329-1.2818c-.4513-.2216-.9158-.4153-1.3908-.5802l-1.4102-.5322-1.4095-.5324c-.4674-.1844-.9606-.2905-1.4393-.4396-3.8253-1.21955-7.7972-1.91878-11.8089-2.07889-8.0621-.31101-16.0788 1.34497-23.3579 4.82499-7.3318 3.4689-13.9982 8.1974-19.6958 13.9703zm-22.54677 43.5302c.18291 2.8722.43095 5.7247.74412 8.5576.15988 1.4174.33399 2.8317.54645 4.2389l.31905 2.1097.39097 2.0948c.10676.7033.28774 1.3893.42949 2.0847.14369.6952.30286 1.3864.49422 2.0681.1827.684.33891 1.3778.5436 2.0553.22125.6718.43195 1.3477.63878 2.0266.90808 2.7003 2.10803 5.2936 3.57855 7.7336-1.91028-2.189-3.43666-4.6851-4.51456-7.3829-1.07764-2.696-1.89055-5.4904-2.42726-8.3437-.53761-2.8415-.86912-5.7182-.99193-8.6076-.15341-2.8803-.07029-5.7684.24852-8.6351zm83.22957 64.5783c2.6476-1.129 5.2549-2.312 7.8219-3.551 1.2834-.622 2.5592-1.257 3.8153-1.926l1.8831-1.003 1.8448-1.066c.628-.335 1.215-.734 1.823-1.099.608-.367 1.207-.747 1.786-1.154.584-.4 1.186-.779 1.757-1.197.56-.432 1.127-.856 1.699-1.277 2.243-1.755 4.289-3.75 6.101-5.949-1.428 2.53-3.274 4.8-5.459 6.715-2.184 1.913-4.548 3.61-7.06 5.066-2.5007 1.453-5.1029 2.723-7.7866 3.801-2.665 1.103-5.4161 1.986-8.2255 2.64zm40.9621-81.6251c.736-1.5719 2.046-2.8026 3.661-3.4399 1.629-.5984 3.383-.7811 5.101-.5315 3.391.4391 6.674 1.3642 9.982 2.0112.819.1725 1.646.3038 2.478.3935.808.1111 1.628.083 2.426-.0832.185-.0542.368-.1184.546-.1923.173-.0795.316-.2013.479-.2963.184-.1251.371-.2735.567-.3882.204-.1056.415-.1963.631-.2715.856-.2443 1.756-.2949 2.633-.1481 1.685.2923 3.342.7268 4.953 1.2988l4.815 1.6475c-1.648-.4077-3.273-.9003-4.907-1.3472-1.605-.5056-3.25-.8768-4.917-1.1096-.804-.1016-1.62-.0392-2.4.1832-.182.0662-.36.1448-.532.2354-.166.1011-.311.2216-.477.3339-.19.1395-.388.2665-.594.3803-.211.0924-.428.1717-.649.2376-.862.1944-1.752.238-2.629.1291-.855-.0813-1.705-.2065-2.547-.3753-3.334-.7079-6.6-1.6174-9.925-2.1531-1.643-.2961-3.335-.1803-4.923.3371-1.604.546-2.948 1.668-3.772 3.1486zm-12.27 12.6003c.737-1.5719 2.046-2.8026 3.661-3.44 1.63-.5983 3.383-.781 5.101-.5315 3.391.4392 6.674 1.3643 9.982 2.0113.819.1725 1.646.3038 2.478.3935.808.1112 1.628.083 2.426-.0832.186-.0541.368-.1183.546-.1923.173-.0794.316-.2013.479-.2963.184-.125.371-.2735.567-.3882.204-.1056.415-.1963.631-.2715.856-.2443 1.756-.2949 2.634-.1479 1.684.2922 3.341.7266 4.952 1.2986l4.815 1.6475c-1.648-.4075-3.273-.9003-4.907-1.3472-1.605-.5055-3.25-.8767-4.916-1.1096-.805-.1016-1.621-.0392-2.4.1832-.183.0662-.361.1449-.533.2354-.166.1011-.311.2216-.477.334-.19.1394-.388.2665-.594.3804-.211.0922-.428.1716-.648.2376-.863.1942-1.753.2378-2.63.1289-.855-.0812-1.705-.2065-2.547-.3753-3.334-.7079-6.6-1.6174-9.924-2.1531-1.644-.296-3.335-.1801-4.923.3372-1.604.5459-2.949 1.6679-3.773 3.1485zm15.676 12.6002c.736-1.5718 2.046-2.8025 3.661-3.4399 1.629-.5983 3.383-.781 5.101-.5315 3.391.4393 6.674 1.3644 9.982 2.0113.819.1725 1.646.3038 2.478.3934.807.1112 1.628.0831 2.426-.0832.185-.0541.368-.1182.546-.1922.173-.0793.316-.2014.478-.2964.185-.125.371-.2734.568-.3881.204-.1056.414-.1964.631-.2716.856-.2441 1.756-.2946 2.633-.1479 1.685.2922 3.342.7266 4.953 1.2987l4.814 1.6474c-1.647-.4075-3.272-.9003-4.906-1.3472-1.605-.5055-3.25-.8766-4.917-1.1094-.804-.1017-1.62-.0394-2.4.1831-.182.0662-.36.1449-.532.2355-.166.1009-.311.2214-.477.3338-.19.1395-.389.2666-.595.3805-.211.0923-.427.1716-.648.2376-.862.1942-1.752.2378-2.629.129-.855-.0813-1.705-.2067-2.547-.3755-3.334-.7079-6.6-1.6173-9.925-2.1528-1.643-.2962-3.335-.1804-4.923.3369-1.604.546-2.948 1.668-3.772 3.1485zm-12.892 9.2082c.736-1.5719 2.046-2.8026 3.661-3.4399 1.629-.5984 3.382-.7811 5.101-.5315 3.391.4391 6.674 1.3642 9.982 2.0112.819.1725 1.646.3038 2.478.3935.807.1111 1.628.083 2.426-.0832.185-.0542.367-.1184.546-.1924.173-.0793.316-.2012.478-.2962.184-.125.371-.2735.568-.3882.204-.1056.414-.1963.631-.2715.856-.2443 1.756-.2949 2.633-.1481 1.685.2922 3.342.7267 4.953 1.2988l4.814 1.6475c-1.647-.4077-3.272-.9004-4.906-1.3473-1.605-.5055-3.25-.8767-4.917-1.1096-.804-.1015-1.62-.0391-2.4.1833-.182.0662-.36.1448-.532.2353-.166.1012-.311.2216-.477.334-.19.1395-.389.2665-.595.3803-.211.0924-.427.1717-.648.2376-.862.1943-1.752.238-2.629.1291-.855-.0813-1.705-.2066-2.547-.3754-3.334-.7079-6.6-1.6173-9.925-2.153-1.643-.2961-3.335-.1803-4.923.3371-1.604.546-2.948 1.668-3.772 3.1486zm19.136 10.0188c.736-1.5719 2.046-2.8026 3.66-3.44 1.63-.5983 3.383-.7809 5.101-.5315 3.392.4394 6.675 1.3645 9.983 2.0113.819.1725 1.646.3038 2.478.3935.807.1113 1.628.0831 2.426-.0833.185-.054.367-.1182.546-.1922.173-.0793.315-.2014.478-.2963.184-.1251.371-.2735.568-.3882.203-.1056.414-.1963.631-.2714.856-.2443 1.755-.2949 2.633-.1481 1.685.2923 3.342.7268 4.953 1.2989l4.814 1.6472c-1.647-.4075-3.272-.9003-4.906-1.3472-1.606-.5054-3.25-.8765-4.917-1.1094-.804-.1017-1.62-.0394-2.4.1831-.182.0663-.36.1449-.532.2355-.166.1011-.311.2216-.477.3338-.19.1396-.389.2667-.595.3805-.211.0923-.427.1717-.648.2375-.862.1943-1.752.2379-2.63.1291-.854-.0813-1.705-.2066-2.547-.3754-3.334-.7079-6.599-1.6174-9.924-2.153-1.643-.296-3.335-.1802-4.923.337-1.604.546-2.948 1.668-3.772 3.1486zm-32.706 8.2686c.737-1.572 2.047-2.803 3.661-3.44 1.63-.599 3.383-.781 5.101-.532 3.392.44 6.675 1.365 9.983 2.012.819.172 1.646.303 2.478.393.807.111 1.628.083 2.426-.083.185-.054.367-.118.546-.192.173-.08.315-.202.478-.297.184-.125.371-.273.568-.388.203-.106.414-.196.631-.271.856-.245 1.755-.295 2.633-.148 1.685.292 3.342.726 4.953 1.298l4.814 1.648c-1.647-.408-3.272-.901-4.906-1.348-1.606-.505-3.25-.876-4.917-1.109-.804-.102-1.62-.039-2.4.183-.182.066-.36.145-.532.236-.166.101-.311.221-.477.333-.19.14-.389.267-.595.381-.211.092-.427.172-.648.237-.862.195-1.752.238-2.629.13-.855-.082-1.706-.207-2.548-.376-3.334-.708-6.599-1.617-9.924-2.153-1.644-.296-3.335-.18-4.923.337-1.604.546-2.948 1.668-3.773 3.149zm17.026 10.776c.736-1.571 2.046-2.802 3.661-3.439 1.629-.599 3.383-.782 5.101-.532 3.391.439 6.674 1.364 9.982 2.011.819.173 1.646.304 2.478.394.808.111 1.628.083 2.426-.083.185-.054.368-.119.546-.193.173-.079.316-.201.478-.296.185-.125.372-.273.568-.388.204-.106.415-.197.631-.272.856-.244 1.756-.295 2.634-.148 1.684.293 3.341.727 4.952 1.299l4.815 1.647c-1.648-.407-3.273-.9-4.907-1.347-1.605-.505-3.25-.876-4.917-1.109-.804-.102-1.62-.04-2.4.183-.182.066-.36.145-.532.235-.166.101-.311.222-.477.334-.19.14-.388.267-.595.381-.21.092-.427.171-.647.237-.863.194-1.753.238-2.63.129-.855-.081-1.705-.206-2.547-.375-3.334-.708-6.6-1.617-9.925-2.153-1.643-.296-3.335-.18-4.922.337-1.605.546-2.949 1.668-3.773 3.148zm-54.9528 59.539s7.1868-.525 17.5617-5.827l3.074 6.839s-11.006 7.535-17.8953 6.19z"/><path d="m63.5469 172.766c.6187 1.749 1.3321 3.458 2.0697 5.157l2.2607 5.074c.7637 1.687 1.5403 3.369 2.33 5.044l2.3655 5.024-.023-.044.8616 1.464.0779.132.0018.167.0002.006-.0885-.314c.596.985 1.286 1.91 2.0602 2.762.3533.389.7701.715 1.2326.965.1894.102.3987.162.6134.175.2273.012.5767.001.8592.003 2.3457.058 4.6908-.134 6.9961-.571 2.27-.475 4.4281-1.379 6.3578-2.666 1.9314-1.323 3.635-2.951 5.0443-4.82l-.0774.268c-.1265-2.004-.3903-4.024-.6882-6.028-.3043-2.007-.7343-3.994-1.2318-5.97.3397.959.6808 1.924.9481 2.909.2814.982.5349 1.972.7606 2.969.464 1.998.8049 4.022 1.0208 6.062l.015.139-.0924.13c-1.382 2.023-3.0963 3.797-5.0705 5.247-2.0206 1.427-4.3056 2.436-6.7211 2.969-2.3881.484-4.8232.696-7.2589.633-.3146-.005-.5633.006-.9323-.012-.3834-.025-.7573-.13-1.0973-.309-.5924-.316-1.1254-.733-1.5757-1.231-.834-.918-1.5671-1.922-2.1868-2.996l-.0904-.15.0019-.164v-.006l.0797.298-.8289-1.482-.0153-.027-.0079-.017c-1.5345-3.386-2.9524-6.815-4.3405-10.26-.7014-1.719-1.3594-3.456-1.974-5.211-.644-1.743-1.1968-3.519-1.6562-5.319z"/></g></svg>