<svg width="300" height="334" viewBox="0 0 300 334" fill="none" xmlns="http://www.w3.org/2000/svg">
<g clip-path="url(#clip0_32_751)">
<path fill-rule="evenodd" clip-rule="evenodd" d="M292.228 183.559C287.968 183.977 283.707 184.395 279.447 184.813C259.041 186.373 238.644 189.629 218.395 191.583C217.891 190.763 216.905 190.898 216.305 191.467C214.285 191.291 212.02 189.746 210.19 191.353C210.13 191.344 210.071 191.335 210.012 191.329C206.752 185.074 204.499 178.401 202.313 171.72C200.918 167.612 199.041 163.636 195.571 160.877C189.651 156.767 176.084 148.431 169.131 148.783C169.015 147.537 168.436 146.254 167.483 145.425C169.583 141.844 161.186 139.508 160.594 139.923C160.974 127.961 155.347 117.571 142.942 115.188C131.827 112.872 116.018 112.483 110.041 124.1C109.383 124.027 102.667 123.992 102.016 124.064C101.006 122.784 89.9098 134.913 94.4575 139.135C53.7978 157.124 30.6785 154.977 19.4245 205.55C17.903 210.3 17.7921 215.499 16.1856 220.144C10.4698 233.492 5.8338 247.707 4.68009 262.231C1.89349 262.944 1.5729 267.859 4.8007 268.57C6.03364 268.842 7.06462 269.213 7.96369 269.917C7.26093 281.819 10.1392 309.009 11.9527 308.926C15.6507 320.696 32.1452 324.018 43.8227 319.881C41.8096 323.669 43.8227 326.05 43.8227 328.075C85.8417 329.665 131.785 328.748 173.792 330.93C179.166 330.853 184.818 332.25 190.118 331.445C193.349 330.67 193.355 325.588 190.077 324.959L204.402 321.847C204.081 321.727 210.307 317.585 215.013 309.846C219.392 301.19 216.411 290.74 218.395 281.322C233.895 280.054 249.649 279.512 264.978 276.887C267.068 283.142 276.117 275.662 278.992 272.653C278.988 272.649 278.985 272.644 278.981 272.639C280.374 272.259 281.489 270.954 281.527 269.41C282.503 268.015 282.708 266.048 281.772 264.701C286.062 239.941 292.603 214.661 294.967 189.67C295.802 189.485 296.59 189.119 297.256 188.554L297.203 188.501C298.332 187.24 298.553 185.064 296.667 183.992C295.148 183.128 293.878 183.397 292.228 183.559Z" fill="#FDFBF5"/>
<path fill-rule="evenodd" clip-rule="evenodd" d="M110.812 121.402C112.079 118.22 116.358 119.458 115.881 122.8C115.595 124.802 114.498 126.917 113.514 128.672C112.711 130.101 111.796 131.495 110.556 132.565C112.765 134.626 115.056 136.612 117.406 138.495C119.971 140.552 122.667 142.447 125.455 144.189C127.898 145.717 130.453 147.071 132.756 148.815C134.899 150.436 136.849 152.384 137.842 154.929C138.9 157.638 138.441 160.437 137.661 163.145L137.572 163.451C136.777 166.134 135.399 169.367 137.309 171.896C138.281 173.182 139.695 174.093 140.915 175.122C142.001 176.037 143.019 177.031 143.953 178.099C145.989 180.427 147.646 183.048 148.691 185.966L148.784 186.232C149.68 188.816 150.335 191.981 149.125 194.518C148.777 195.246 147.657 195.01 147.462 194.301C147.022 192.697 147.046 191.017 146.677 189.39C146.293 187.697 145.655 186.092 144.82 184.573C143.207 181.633 141.022 179.121 138.439 176.999L137.667 176.371C135.653 174.717 133.803 172.964 133.393 170.227C132.957 167.3 134.129 164.512 134.883 161.741C135.408 159.81 135.579 157.96 135.012 156.215C134.318 157.347 133.372 158.422 132.623 159.381C131.132 161.291 129.628 163.19 128.127 165.092C126.587 167.042 125.086 169.023 123.657 171.056C123.017 171.965 122.384 172.88 121.754 173.795C121.28 174.483 120.619 175.17 120.102 175.872C120.228 176.248 120.218 176.681 119.99 176.989C117.251 180.691 113.351 172.965 112.334 171.012C110.264 167.036 108.723 162.813 106.644 158.838C104.492 154.717 102.04 150.707 99.3088 146.944C97.6564 144.67 95.8034 142.532 94.2923 140.184C90.7299 143.414 86.0432 145.58 81.7382 147.543C77.0083 149.7 72.0944 151.462 67.2448 153.335L65.8123 153.891C57.4565 157.153 48.8964 160.735 41.9512 166.528C33.7898 173.336 28.9616 182.825 25.367 192.65C21.2292 203.962 17.806 215.578 14.6149 227.188C12.9819 233.128 11.4324 239.095 9.97579 245.08C8.69215 250.354 7.62813 255.68 6.14225 260.9C9.15581 260.793 12.5928 261.96 15.1657 262.296C26.8914 263.831 38.4593 266.278 49.5298 270.515C50.8972 271.039 51.2929 272.404 50.9951 273.511C51.7837 273.29 52.5718 273.064 53.3603 272.842C52.4964 271.518 52.9087 269.151 52.9767 267.683L52.9808 267.583C53.0506 265.627 53.2628 263.669 53.4002 261.717C53.6622 257.997 54.0033 254.303 54.4566 250.602L54.5723 249.678C55.0861 245.654 55.466 241.604 56.0265 237.586L56.0928 237.127C55.824 236.099 55.5111 235.082 55.1826 234.071C54.3071 231.379 53.0714 228.843 51.9886 226.235C51.861 225.929 52.2984 225.752 52.5029 225.936C54.3366 227.586 55.7932 229.679 56.9635 231.867C56.9838 231.764 57.0017 231.661 57.0229 231.558L57.1564 230.9C57.4857 229.298 57.8862 227.61 58.8695 226.31C58.9741 226.173 59.1813 226.143 59.2803 226.31C60.2213 227.903 60.3267 229.92 60.4715 231.733C60.6353 233.782 60.6558 235.859 60.6269 237.915C60.5705 241.932 60.2873 245.961 60.0617 249.971C59.8404 253.913 59.4059 257.805 58.8459 261.707L58.7394 262.44C58.4656 264.297 58.2414 266.178 57.8803 268.023L57.7783 268.526C57.5853 269.441 57.4665 270.73 57.0822 271.801C66.9697 269.044 76.8723 266.349 86.7938 263.701C93.9646 261.787 101.143 259.902 108.318 258.004C108.696 257.322 109.168 256.684 109.757 256.115C111.695 254.237 114.264 253.4 116.621 254.844C116.811 254.963 116.828 255.262 116.621 255.376C116.169 255.623 115.717 255.876 115.272 256.14L119.581 254.972C122.801 254.1 126.06 253.008 129.357 252.4C135.427 249.404 141.957 247.235 148.352 245.092L149.105 244.836C152.38 243.721 155.767 242.47 159.151 241.851C161.628 241.398 164.534 241.944 165.53 244.483C166.791 245.313 167.977 246.29 169.123 247.251C169.95 247.945 170.744 248.684 171.551 249.402L171.699 249.532C172.358 250.104 172.881 250.488 173.043 251.399C173.127 251.869 172.827 252.506 172.247 252.444C170.472 252.253 169.028 250.194 167.823 248.966C166.893 248.016 165.955 247.033 165.106 245.99C164.612 246.258 163.933 246.21 163.618 245.613C161.984 242.519 157.508 244.664 155.032 245.397L151.485 246.447C149.711 246.972 147.937 247.502 146.167 248.04C141.302 249.517 136.462 251.17 131.553 252.527C131.992 253.01 131.931 253.868 131.097 254.196C127.255 255.704 123.04 256.483 119.047 257.518C116.527 258.172 114.008 258.83 111.49 259.491C111.059 260.191 110.748 260.982 110.617 261.902C110.137 265.29 111.063 269.198 111.966 272.474L112.103 272.964C112.844 275.597 113.936 278.826 116.208 280.489C116.763 280.894 117.469 281.177 118.181 281.24C122.629 278.95 127.076 276.661 131.526 274.375C132.351 273.953 133.113 274.527 133.298 275.207C134.868 274.95 136.432 274.543 137.859 274.061C140.254 273.246 142.125 271.694 144.371 270.621C148.718 268.544 153.155 271.096 157.048 273.034L157.944 273.475C159.689 274.322 163.32 275.948 164.156 273.633C164.966 271.392 162.406 268.997 160.752 267.989C158.782 266.786 156.486 266.144 154.258 265.607C152.986 265.301 151.699 265.051 150.404 264.869C148.934 264.663 147.417 264.694 146.002 264.216C145.3 263.981 145.191 262.864 146.002 262.679C148.18 262.183 150.779 262.724 153.051 263.278L154.239 263.57C156.528 264.132 158.84 264.836 160.926 265.957C162.441 266.772 164.043 268.012 165.088 269.527C165.996 268.684 167.126 268.712 168.302 269.026L168.942 269.202C169.997 269.496 170.851 269.696 171.878 269.494C172.015 268.747 172.155 267.999 172.303 267.252C173.766 259.907 175.371 252.591 177.14 245.312C180.195 232.758 183.727 220.343 187.711 208.053L188.111 206.825C189.029 204.014 189.769 200.953 191.251 198.37C192.652 195.929 194.896 194.521 197.562 193.777C200.587 192.931 203.768 192.489 206.855 191.919C207.543 191.792 208.234 191.671 208.923 191.546C208.341 190.494 207.906 189.3 207.515 188.384L207.445 188.225C206.604 186.307 205.848 184.354 205.118 182.39L204.573 180.914C203.255 177.359 201.895 173.863 200.042 170.539C198.092 167.04 195.504 164.18 192.28 161.813C185.705 156.986 177.779 154.524 171.401 149.364C171.14 149.154 171.474 148.792 171.74 148.927C176.046 151.09 180.695 152.561 185.174 154.323L186.058 154.672C189.598 156.075 193.194 157.604 196.257 159.876C199.674 162.411 202.365 165.558 204.388 169.3C206.381 172.989 207.656 177.118 209.061 181.058L209.438 182.109C210.005 183.683 210.591 185.252 211.261 186.785C211.795 188.001 212.79 189.389 213.242 190.778C214.479 190.564 215.714 190.349 216.953 190.143C243.767 185.666 270.88 183.034 298.054 182.264C299.116 182.234 299.667 183.248 299.51 184.176C296.902 199.599 294.584 215.074 292.042 230.508C290.932 237.244 289.799 243.975 288.641 250.703C288.055 254.111 287.376 257.507 286.821 260.921C286.372 263.677 286.045 266.456 285.276 269.148C284.584 271.563 283.523 273.891 281.782 275.734C279.905 277.719 277.285 278.68 274.647 279.134C267.951 280.287 261.083 280.757 254.332 281.526L218.395 285.615C218.92 290.388 218.96 295.089 218.718 299.919L218.581 302.555C218.468 304.676 218.334 306.799 218.031 308.899C217.648 311.531 216.443 313.76 214.669 315.727C213.041 317.533 211.062 319.075 209.137 320.552C207.139 322.084 205.076 323.565 202.726 324.512L202.422 324.634C200.36 325.439 196.495 326.684 193.678 326.229C194.046 328.073 194.759 330.059 194.126 331.884C193.834 332.731 192.725 333.155 192.046 332.433C190.701 331.003 190.595 329.115 190.278 327.25C189.946 325.309 189.66 323.362 189.406 321.409C188.915 317.633 188.532 313.824 188.416 310.016C188.296 306.106 188.343 302.191 188.553 298.285C188.661 296.28 188.796 294.275 189.05 292.283C189.159 291.433 189.269 290.582 189.396 289.735C189.443 289.425 189.494 289.118 189.549 288.81L186.323 289.174C181.377 289.726 176.429 290.226 171.447 290.302C170.859 290.312 170.404 290.044 170.107 289.651C169.792 290.167 169.241 290.535 168.453 290.532C161.498 290.506 155.02 288.231 148.694 285.55C145.505 284.198 142.365 282.736 139.171 281.394C136.189 280.143 133.003 279.251 130.094 277.842L122.449 281.852C122.394 282.049 122.322 282.236 122.246 282.393C121.747 283.408 120.766 283.96 119.764 284.375C118.803 284.774 117.806 284.897 116.835 284.797C111.038 287.836 105.239 290.871 99.4359 293.9L93.6327 296.926C82.0686 302.948 70.5505 309.068 58.914 314.948L58.0573 315.38C54.0379 317.395 49.722 319.438 45.2616 320.963C45.1822 322.092 45.2324 323.191 45.327 324.385L45.3497 324.647C45.4828 326.058 45.7679 327.828 44.635 328.833C44.0457 329.357 42.993 329.358 42.5923 328.57C41.8652 327.14 42.5181 324.887 42.7484 323.333C42.8302 322.781 42.9297 322.212 43.0772 321.662C37.9637 323.185 32.6954 323.922 27.4917 323.068C22.4253 322.236 18.5014 319.044 15.3381 315.14C11.9996 311.02 9.62723 306.218 8.35447 301.07C6.90588 295.213 6.81126 289.164 6.84529 283.165C6.88131 276.776 7.11772 270.356 7.89463 264.009C7.0433 263.808 6.09932 263.636 5.23909 263.695C4.813 264.377 3.98652 264.664 3.2397 264.577C1.6157 266.367 5.73494 268.198 7.05149 268.657C7.50851 268.815 7.45964 269.558 6.93243 269.535L6.60026 269.52C4.56613 269.412 2.46463 269.065 1.2687 267.175C0.310313 265.658 0.598283 263.863 1.74069 262.628C2.49528 255.492 4.29921 248.544 5.97814 241.583C7.62573 234.751 9.45804 227.962 11.4002 221.207L12.2709 218.184C15.3287 207.595 18.5248 196.919 22.7428 186.748C24.8491 181.671 27.2754 176.687 30.5644 172.259C33.6302 168.132 37.2496 164.601 41.4103 161.583C49.1664 155.96 58.2674 152.561 67.2097 149.325L67.6101 149.179C72.2441 147.503 76.8667 145.806 81.4479 143.99C85.4995 142.384 89.381 140.346 93.4138 138.717C93.2825 138.478 93.1554 138.238 93.0339 137.995L92.9591 138.057C92.9464 138.067 92.9337 138.077 92.9209 138.087C92.5142 138.368 91.9178 138.23 91.5836 137.915C90.6401 137.024 90.9596 136.035 91.5893 135.112L91.6713 134.993C92.4422 133.915 93.1286 132.774 93.8404 131.656L94.2852 130.955C95.4786 129.087 96.7327 127.207 98.3244 125.662C99.0616 124.946 99.868 124.411 100.722 124.011C100.649 123.857 101.29 123.541 101.472 123.701C104.181 122.71 107.297 122.917 110.25 123.19M216.656 285.812L212.891 286.24C208.748 286.712 204.604 287.168 200.459 287.62L191.457 288.598C191.433 289.111 191.371 289.613 191.359 290C191.302 291.999 191.258 293.999 191.215 295.997C191.132 300.004 191.224 304.015 191.488 308.015C191.744 311.89 192.08 315.765 192.604 319.616L192.71 320.384L192.772 320.789C193.2 320.83 193.619 321.033 193.968 321.45C194.729 322.359 197.486 321.475 198.564 321.093C200.335 320.461 202.001 319.397 203.54 318.329C205.043 317.287 206.396 316.072 207.697 314.791L208.76 313.738C209.818 312.687 210.877 311.566 211.526 310.243C212.405 308.449 212.518 306.247 212.777 304.293C213.095 301.889 213.472 299.486 213.871 297.095M107.346 260.584L106.955 260.687C92.767 264.457 78.6004 268.338 64.3688 271.943C57.3261 273.726 50.25 275.381 43.1985 277.13L42.0568 277.415C36.4941 278.822 30.8644 280.515 26.6044 284.55C26.4473 284.698 26.219 284.47 26.367 284.311C30.958 279.425 37.4876 277.355 43.7571 275.562C44.9159 275.23 46.0762 274.905 47.2354 274.576C38.7091 271.536 30.0483 268.891 21.1876 267.005C18.9059 266.519 16.5976 266.162 14.3178 265.675C12.7278 265.335 11.175 264.842 9.60181 264.434L8.36436 264.123L8.34797 268.034C8.32735 273.575 8.33724 279.111 8.61984 284.65L8.67323 285.675C9.003 291.84 9.51764 298.133 11.705 303.946C13.4824 308.669 16.3154 313.118 20.0203 316.559C21.895 318.3 23.9105 319.654 26.4019 320.323C28.7151 320.944 31.1389 321.018 33.5169 320.851C44.9233 320.056 55.0769 313.859 64.9853 308.728C81.192 300.336 97.4007 291.947 113.624 283.587C113.185 283.288 112.772 282.942 112.397 282.553C110.222 280.306 109.073 277.23 108.319 274.251C107.517 271.08 107.038 267.681 106.982 264.409M127.988 286.826C128.131 286.75 128.298 286.846 128.303 287.008C128.354 288.246 127.669 289.469 127.158 290.586L127.104 290.705C126.481 292.088 125.802 293.452 125.097 294.795C123.691 297.478 122.229 300.132 120.702 302.749C117.635 308.014 114.224 313.056 110.195 317.64C109.284 318.675 107.787 317.348 108.371 316.233C111.188 310.859 114.471 305.784 117.851 300.754C119.543 298.235 121.235 295.714 122.942 293.207C123.655 292.16 124.377 291.118 125.118 290.092L125.566 289.478M296.256 185.342C282.019 185.773 267.799 186.7 253.629 188.156C240.451 189.51 227.321 191.312 214.265 193.557C211.538 194.026 208.815 194.514 206.095 195.022L204.463 195.329C201.743 195.844 198.419 196.057 195.997 197.51C193.444 199.044 192.753 202.246 191.903 204.886C190.905 207.993 189.93 211.107 188.984 214.231C185.222 226.628 181.785 239.132 178.719 251.719C177.198 257.967 175.848 264.249 174.426 270.521C173.162 276.092 171.767 281.6 170.311 287.115C170.49 286.976 170.71 286.87 170.976 286.813C178.211 285.274 185.596 284.605 192.938 283.754L193.649 283.672C201.245 282.778 208.842 281.891 216.442 281.036L266.766 275.377C269.733 275.042 272.912 274.997 275.801 274.2C280.711 272.846 281.862 267.355 282.687 262.982L282.711 262.85C285.195 249.638 287.172 236.312 289.49 223.067M171.481 271.758C169.527 271.628 166.853 269.839 165.37 269.967C166.149 271.273 166.5 272.763 166.052 274.353C164.804 278.779 159.159 276.489 156.44 275.137C154.212 274.028 152.059 272.671 149.591 272.152C146.796 271.563 144.902 272.675 142.539 273.956C140.6 275.009 138.487 275.765 136.314 276.156C135.159 276.365 134.061 276.386 132.965 276.306C132.9 276.359 132.825 276.409 132.741 276.454L132.162 276.757C134.781 276.877 137.451 277.686 139.888 278.426C142.415 279.193 144.895 280.118 147.362 281.064L149.79 281.997C155.777 284.29 161.974 286.467 168.453 286.448C168.919 286.446 169.301 286.576 169.602 286.786M160.55 257.89C162.481 257.652 164.262 257.906 165.804 259.163C167.664 260.678 168.914 263.191 171.587 263.357C172.367 263.405 172.549 264.5 171.774 264.73C169.784 265.319 168.171 264.242 166.815 262.844L165.904 261.891C164.564 260.503 163.328 259.43 161.053 259.513C158.618 259.602 156.179 260.164 153.76 260.451C151.019 260.776 148.279 261.051 145.529 261.29C145.4 261.301 145.379 261.1 145.499 261.071L148.578 260.304M158.687 249.997L159.005 249.966C161.809 249.693 164.372 249.682 166.874 251.19L167.355 251.481C169.611 252.853 172.069 254.468 173.48 256.691C173.71 257.054 173.329 257.481 172.943 257.39C170.23 256.737 168.247 254.748 165.966 253.258C163.406 251.587 160.762 251.862 157.843 252.122C155.017 252.373 152.192 252.719 149.393 253.189C146.763 253.633 144.125 254.33 141.47 254.553V254.547C141.166 254.547 140.994 254.091 141.303 253.936C143.998 252.591 147.121 251.954 150.053 251.338M243.832 222.29C243.561 220.995 245.155 220.394 245.894 221.422L246.051 221.639C247.646 223.825 249.956 226.57 249.838 229.351C251.241 229.382 252.695 230.234 253.242 231.5C253.495 232.086 253.58 232.781 253.524 233.5C254.8 233.598 256.191 234.436 256.97 235.25C258.263 236.602 258.364 238.512 257.437 240.091C255.416 243.534 251.001 244.785 247.272 245.065L247.139 245.075C243.29 245.342 237.742 245.27 235.101 241.966C232.555 238.779 235.369 236.199 238.256 234.797C237.505 234.111 237.115 233.128 237.481 232.09C238.123 230.266 240.392 229.562 241.672 228.294C243.236 226.749 244.268 224.628 243.856 222.411M245.947 225.093C245.524 226.938 244.48 228.627 243.028 229.964C242.472 230.475 241.865 230.931 241.219 231.322L241.141 231.367C240.568 231.688 239.16 232.291 239.267 233.014C239.379 233.755 241.674 234.916 242.3 234.917C242.442 234.917 242.523 235.139 242.377 235.204C241.243 235.705 240.253 235.92 239.146 235.39C238.404 236.146 237.686 236.929 236.972 237.704C235.713 239.077 236.143 240.525 237.633 241.548C240.026 243.19 243.661 243.149 246.453 243.03C249.262 242.91 252.266 242.283 254.459 240.411L254.555 240.328C255.749 239.267 256.838 237.47 255.012 236.448C254.296 236.048 253.523 236.072 252.844 235.877C252.208 237.123 251.177 238.121 249.92 238.313C248.903 238.468 248.203 237.19 249.128 236.579L249.336 236.451C250.496 235.709 251.488 234.567 251.461 233.08C251.444 232.048 250.002 230.745 249.063 231.715L249.021 231.761C248.235 232.647 246.851 231.53 247.368 230.549L247.392 230.505M62.7116 173.771C62.7081 173.55 63.0199 173.468 63.1288 173.658C64.9525 176.868 65.9058 180.801 66.8772 184.337C67.8948 188.04 68.7162 191.781 69.4541 195.549C70.9486 203.179 71.745 210.767 71.7989 218.544C71.8064 219.654 69.9977 219.95 69.8207 218.812C68.646 211.247 67.5205 203.674 66.3369 196.111C65.7413 192.307 65.0483 188.518 64.3849 184.725M80.7659 179.361C80.6317 178.918 81.2756 178.771 81.4403 179.175C85.1001 188.16 86.3395 198.342 83.9899 207.822C83.6303 209.272 81.5068 208.644 81.7779 207.212M127.974 171.377C127.954 171.046 128.385 170.994 128.548 171.221C130.28 173.665 131.001 176.938 134.043 178.201C135.562 178.832 137.271 178.722 138.613 179.786C139.511 180.499 140.199 181.623 139.525 182.702C139.308 183.051 138.701 183.226 138.405 182.847C137.975 182.295 137.747 181.634 137.163 181.221C136.338 180.638 135.226 180.601 134.281 180.327C133.058 179.973 131.981 179.351 131.098 178.431M156.945 130.618C157.124 130.527 157.295 130.585 157.409 130.741C157.573 130.961 157.553 131.174 157.353 131.325C157.62 131.872 157.935 133.238 157.98 133.437C158.163 134.245 158.357 135.047 158.56 135.848C158.97 137.464 159.33 139.094 159.74 140.71C160.175 142.425 160.693 144.122 161.27 145.792C161.307 145.901 161.348 146.011 161.39 146.124L161.457 146.293L161.472 146.266C161.59 146.082 161.834 146.211 161.806 146.406C161.779 146.586 161.742 146.763 161.711 146.941L161.772 147.101C162.149 148.116 162.407 149.186 161.715 150.083C161.457 150.418 161.172 150.617 160.817 150.675C160.247 152.552 159.533 154.394 158.768 156.163L158.545 156.68C157.419 159.261 156.22 161.809 154.428 164.006C152.473 166.405 149.783 168.044 148.08 170.673C147.287 171.896 146.735 173.181 146.289 174.563L146.119 175.087C145.802 176.064 145.436 177.01 144.519 177.584C144.227 177.766 143.789 177.708 143.553 177.459C141.675 175.471 143.641 171.759 144.775 169.835C146.35 167.159 148.629 165.446 150.91 163.427C153.37 161.251 154.939 158.34 156.457 155.472C157.387 153.715 158.285 151.92 159.23 150.155C158.242 149.282 157.926 147.549 157.591 146.344L157.562 146.235C157.008 144.307 156.569 142.327 156.292 140.338C156.025 138.426 155.914 136.542 155.984 134.619L156.004 134.129M160.615 139.718C160.398 139.419 160.759 139.08 161.057 139.142C162.878 139.519 164.656 140.62 166.29 141.511L166.463 141.606C167.767 142.309 169.079 143.17 169.764 144.535C170.508 146.019 170.446 147.729 170.344 149.343L170.336 149.494C170.212 151.429 170.191 153.439 169.782 155.338C169.572 156.311 168.692 156.585 167.939 156.355C167.042 159.183 164.527 161.267 162.688 163.499C160.345 166.346 160.786 170.188 161.032 173.615C161.131 175.002 159.405 175.396 158.516 174.657L156.467 172.955C156.127 172.671 155.787 172.386 155.446 172.101C155.155 171.855 154.867 171.61 154.58 171.36L154.154 170.983C153.965 170.812 153.129 169.878 152.884 169.84C152.292 169.746 150.886 171.306 150.404 171.796L150.344 171.857C149.438 172.745 148.619 173.701 147.856 174.714C147.717 174.901 147.443 174.745 147.543 174.531C148.226 173.067 149.02 171.667 149.964 170.359L150.154 170.097C150.781 169.252 151.623 167.759 152.732 167.509C154.083 167.204 155.433 168.561 156.418 169.314L156.48 169.36C156.949 169.712 157.411 170.069 157.872 170.429C157.824 167.878 158.146 165.3 159.464 163.1C160.393 161.549 161.785 160.4 162.975 159.069C164.301 157.585 164.993 155.76 166.194 154.214C166.348 154.015 166.561 153.909 166.791 153.874C166.838 152.632 167.021 151.378 167.163 150.148L167.204 149.781C167.346 148.445 167.684 146.814 167.03 145.563C166.413 144.382 164.996 143.548 163.947 142.746L163.089 142.081M101.563 125.597C101.016 125.913 100.504 126.309 100.039 126.801C98.5772 128.352 97.5307 130.283 96.5138 132.14C95.9659 133.141 95.4377 134.152 94.8855 135.15C94.6454 135.584 94.3982 136.013 94.1482 136.442C94.0324 136.64 93.6907 137.032 93.5198 137.275C93.709 137.539 93.9039 137.8 94.103 138.057C94.1793 138.156 99.4246 143.872 101.254 146.108C104.054 149.534 106.557 153.154 108.696 157.027C110.791 160.819 112.387 164.836 114.327 168.702C115.299 170.638 116.383 172.56 117.766 174.236C117.82 174.301 117.876 174.363 117.931 174.428C118.458 173.002 119.811 171.474 120.475 170.597L120.537 170.515C122.044 168.484 123.636 166.514 125.261 164.578C126.745 162.809 128.268 161.079 129.827 159.378L130.413 158.741C131.499 157.568 132.879 155.811 134.471 154.973C134.3 154.669 134.102 154.368 133.876 154.072C132.386 152.125 130.279 150.711 128.202 149.436L126.853 148.616C121.773 145.52 116.77 142.279 112.36 138.255C110.027 136.127 107.725 133.896 105.763 131.414L105.07 130.536M110.041 124.064C107.661 124.264 105.092 124.216 102.893 124.991C104.848 126.839 106.706 128.835 108.614 130.714C108.784 129.443 109.131 128.188 109.426 126.948" fill="black"/>
<path fill-rule="evenodd" clip-rule="evenodd" d="M134.373 6.53516C151.315 6.53516 168.838 19.6691 175.048 28.0502C180.269 35.0965 183.081 66.9601 183.081 88.4943C183.081 92.997 185.566 101.487 184.841 105.795C182.183 121.581 170.607 134.82 147.692 134.82C124.778 134.82 108.347 125.736 91.3157 101.346C83.0518 101.346 79.0466 95.0076 78.9886 85.0054C78.9304 75.0017 86.9654 71.3631 86.9654 71.3631C86.9654 71.3631 84.1004 31.889 91.3157 21.6118C98.5314 11.3345 117.432 6.53516 134.373 6.53516Z" fill="#FDFBF5"/>
<path fill-rule="evenodd" clip-rule="evenodd" d="M127.248 0.952728C137.945 -0.13052 148.427 0.779622 158.968 2.66302C159.773 2.80888 160.231 3.33737 160.4 3.97275C165.366 4.19951 170.336 4.56393 175.295 4.83545C177.094 4.934 178.115 6.71221 177.294 8.31802C177.131 8.63698 176.96 8.94733 176.787 9.25767L177.005 9.18595C178.496 8.70744 180.108 8.47136 181.561 9.23113C183.411 10.198 184.136 12.3313 183.727 14.2949C183.623 14.7963 183.446 15.2767 183.247 15.7456C183.653 15.7188 184.062 15.7276 184.467 15.7813C186.627 16.0678 188.233 17.724 188.346 19.9293C188.514 23.2594 186.368 26.6378 183.84 29.0217C184.208 29.7771 184.347 30.6664 184.195 31.5676C183.891 33.3491 182.579 34.4159 181.058 35.1119C181.692 37.1264 181.992 39.2326 181.815 41.3852C181.756 42.1037 181.127 42.6973 180.465 42.8429C182.936 49.651 184.188 56.9604 185.087 64.0827C185.73 69.15 186.046 74.2472 186.084 79.3528C186.103 81.6571 186.065 83.9656 185.969 86.2713L185.929 87.1354C185.81 89.6275 185.803 92.2439 185.356 94.7091C186.884 97.3085 187.498 100.535 187.758 103.446C188.08 107.051 187.57 110.77 186.433 114.198C182.143 127.156 169.193 135.332 156.188 137.457C144.148 139.424 130.217 136.777 123.182 125.84C123.071 125.666 123.306 125.524 123.443 125.638C128.478 129.731 134.317 131.557 140.661 132.446C151.629 133.981 163.957 131.379 172.759 124.479C176.984 121.166 180.03 116.344 181.37 111.154C182.054 108.502 182.29 105.735 182.02 103.006C181.746 100.236 180.52 97.8719 179.748 95.2556C179.488 94.3717 179.762 93.5513 180.303 92.9668C180.454 90.8418 180.812 88.6985 180.949 86.5805C181.102 84.1718 181.194 81.7644 181.228 79.3528C181.29 74.3517 181.081 69.3408 180.66 64.3604C179.89 55.2406 177.847 46.3421 176.648 37.2998C176.203 37.6982 175.566 37.8618 174.899 37.5137L174.83 37.4759L174.466 37.2674C174.444 37.2674 174.422 37.2703 174.401 37.273C171.909 37.515 169.325 37.1688 166.938 36.4254C164.44 35.6498 162.122 34.4562 160.052 32.8656C159.658 34.8618 159.494 36.8791 159.491 38.9143C159.488 40.1856 158.142 40.8452 157.073 40.3022C152.339 37.8967 147.815 35.1247 143.522 32.0093C143.021 34.5786 142.519 37.1476 142.015 39.7199C141.82 40.711 140.559 41.1108 139.75 40.6394C136.534 38.768 133.756 36.3184 131.494 33.4055C131.043 34.2691 130.59 35.1326 130.134 35.9942L129.447 37.2849C128.771 38.5532 127.863 39.956 126.38 40.3615C124.811 40.7913 123.5 39.774 122.973 38.3533C122.812 37.9119 122.662 37.458 122.525 37.0014C121.188 40.0545 119.678 43.0387 117.972 45.8856C115.412 50.1556 112.339 53.9604 109.274 57.8636C108.343 59.0487 106.75 57.9174 106.622 56.7658C106.547 56.0884 106.485 55.4079 106.431 54.7303C104.646 58.3339 102.782 61.9039 100.752 65.3704L101.043 66.5094C101.881 69.8749 102.575 73.2645 103.332 76.6475C103.577 77.7389 102.996 79.3005 101.721 79.4855C100.197 79.7086 98.7566 80.4866 97.196 79.9514C95.4941 79.3669 95.158 77.8956 94.3544 76.502C94.1934 76.2239 94.007 75.9683 93.8064 75.7269L93.7556 75.7918C93.6313 75.957 93.3319 75.7777 93.4068 75.5899L93.4943 75.3725C92.8037 74.6397 91.9784 74.0283 91.219 73.3718C89.4145 73.0668 87.3846 73.4 86.1414 74.1342C83.3098 75.8045 82.0091 79.2483 81.9823 82.4153C81.9495 86.1217 83.098 90.2869 85.0374 93.4553C85.891 94.8503 87.0606 96.1084 88.606 96.7268C90.1398 97.341 91.8017 97.1504 93.3616 97.7293C94.394 98.1148 95.0295 99.2598 94.4067 100.299C94.3643 100.37 94.3177 100.436 94.2725 100.505L94.7357 101.121C95.0549 101.547 95.3882 102.005 95.6989 102.481C96.4926 103.393 97.3273 104.274 98.1366 105.172C99.6308 106.828 101.081 108.529 102.551 110.208C103.94 111.794 105.407 113.282 106.92 114.748C108.349 116.135 110.134 117.302 111.446 118.783C112.723 120.227 113.07 122.748 110.969 123.584C108.645 124.511 106.588 122.338 105.023 120.889L104.957 120.829C102.09 118.19 99.4994 115.174 97.4431 111.853C95.4052 113.24 92.4591 113.372 90.4298 111.986C89.3622 111.256 88.5432 110.029 88.1453 108.696C87.7699 108.779 87.3948 108.829 87.029 108.823C86.8407 108.933 86.6519 109.039 86.4608 109.138C84.9478 109.926 83.0892 109.574 82.3971 107.9C81.7668 106.379 82.4163 104.652 82.984 103.188L83.1012 102.886C83.4234 102.05 83.7786 101.141 84.2201 100.284C82.9908 99.3587 81.9402 98.2094 81.0514 96.9033C78.0647 92.5008 76.5728 86.0638 77.2322 80.8127C77.629 77.6429 79.1176 74.3601 81.5553 72.2238L81.4661 71.9909C80.7828 70.2571 80.162 68.5171 79.7595 66.6852C79.288 64.5426 79.058 62.3223 78.8494 60.1409C78.4078 55.5333 78.5271 50.8214 79.1149 46.2317C80.2189 37.5925 83.0176 29.1117 87.9855 21.9227C86.5769 20.2364 85.4613 18.2519 86.0429 15.9694C86.3087 14.9216 86.9142 13.9283 87.8275 13.328C88.3314 12.9971 88.9313 12.9464 89.4357 12.6719L89.5872 12.5883C89.8088 12.4591 89.6393 12.4728 89.5073 11.872C88.9852 9.47257 89.4177 7.15415 92.0583 6.35739C94.5437 5.60835 96.8951 7.19891 98.3653 9.09389C102.215 6.36303 107.287 4.934 111.748 3.71944C116.82 2.34336 122.024 1.48419 127.248 0.952728ZM85.6729 81.4354C85.6547 79.4813 87.5075 78.2755 89.3309 78.5946C90.5552 78.8078 91.5766 79.5392 92.5354 80.2945L93.0029 80.6645C94.1708 81.5808 95.5125 82.5692 96.2073 83.8682C97.2284 85.7842 95.0719 88.3624 93.0579 87.0197C91.676 86.0934 90.7905 84.6095 89.8842 83.2314L89.7903 83.0888C89.3786 82.4718 89.0176 81.8152 88.4534 81.3196L88.3315 81.2123C88.1461 81.0542 87.947 80.9102 87.7075 80.8424C87.2455 80.7097 86.3898 80.8946 86.186 81.4453L86.1678 81.5018C86.0932 81.7785 85.6759 81.7192 85.6729 81.4354Z" fill="black"/>
<path fill-rule="evenodd" clip-rule="evenodd" d="M162.969 108.491C160.943 109.288 158.551 109.475 156.461 108.798C154.462 108.148 152.647 106.705 151.549 104.889C150.571 103.271 150.162 101.352 150.741 99.4392C150.768 99.3475 150.858 99.2882 150.944 99.2656C151.417 99.6962 151.71 100.124 152.002 100.549C152.494 101.266 152.986 101.977 153.664 102.591C154.649 103.483 155.976 104.207 157.294 104.447C158.583 104.682 159.904 104.474 161.058 103.857C161.761 103.482 162.329 102.979 162.891 102.476C163.502 101.927 164.105 101.369 164.949 101.06C165.625 100.812 166.334 101.021 166.879 101.437C167.465 101.883 167.888 102.582 167.864 103.312C167.828 104.445 167.333 105.389 166.614 106.169C165.641 107.222 164.266 107.982 162.969 108.491ZM160.565 80.2763C162.817 81.6459 166.251 84.8397 163.827 88.2354C160.974 91.2302 156.866 87.7977 154.842 86.2446C152.965 85.0416 150.855 88.1366 152.597 89.5415C167.225 100.373 173.161 80.6349 161.705 78.6666C160.443 78.4492 159.974 79.8527 160.565 80.2763ZM136.866 61.2975C139.937 61.1507 142.643 62.53 145.569 63.1567C148.274 63.7363 150.939 63.3882 153.568 62.6512C157.836 61.4548 159.602 67.9902 155.392 69.2638C152.325 70.1913 149.097 70.2557 145.95 69.7777C143.155 69.3527 140.812 67.9919 138.147 67.1996C135.861 66.5201 133.17 66.8025 130.755 67.1224L129.818 67.2486C128.425 67.4363 127.024 67.6246 125.644 67.897C124.447 68.1336 123.252 68.5667 122.03 68.6168C121.892 68.6227 121.775 68.4426 121.862 68.3223C123.28 66.3735 126.016 64.8358 128.192 63.8101L128.34 63.7411C131.025 62.4885 133.875 61.4401 136.866 61.2975ZM135.741 75.6677L135.739 75.6013C135.744 73.698 136.852 69.353 139.591 69.353C141.302 69.353 142.342 72.31 142.521 75.3584L142.527 75.4827C142.607 77.3775 142.086 81.5202 139.591 81.5202C137.07 81.5202 135.766 77.5964 135.741 75.6677ZM176.068 75.6677V75.6013C176.063 73.698 174.955 69.353 172.216 69.353C170.548 69.353 169.519 72.1646 169.301 75.1297L169.286 75.3584C169.178 77.1897 169.664 81.5202 172.216 81.5202C174.739 81.5202 176.041 77.5964 176.068 75.6677ZM176.025 58.9798L176.222 58.9842C179.422 59.0952 182.714 60.9916 183.57 64.1772C183.613 64.3426 183.41 64.4538 183.289 64.3404C180.656 61.8759 177.117 64.2309 174.482 65.4652L173.513 65.9125C170.116 67.4935 166.251 69.352 162.478 68.1739C160.688 67.6143 159.549 65.7731 160.061 63.9135C160.515 62.2587 162.512 60.868 164.242 61.4653L164.32 61.4938C165.725 62.0315 167.454 61.4867 168.904 60.9496L170.098 60.5019C172.014 59.7743 173.941 58.9604 176.025 58.9798Z" fill="black"/>
<rect x="231.199" y="214.018" width="35.0044" height="35.0044" fill="#FDFBF5"/>
</g>
<defs>
<clipPath id="clip0_32_751">
<rect width="300" height="333.14" fill="white" transform="translate(0 0.0273438)"/>
</clipPath>
</defs>
</svg>
