<svg fill="none" height="334" viewBox="0 0 300 334" width="300" xmlns="http://www.w3.org/2000/svg" xmlns:xlink="http://www.w3.org/1999/xlink"><clipPath id="a"><path d="m0 .027344h300v333.14h-300z"/></clipPath><g clip-path="url(#a)"><g clip-rule="evenodd" fill-rule="evenodd"><path d="m292.228 183.559c-4.26.418-8.521.836-12.781 1.254-20.406 1.56-40.803 4.816-61.052 6.77-.504-.82-1.49-.685-2.09-.116-2.02-.176-4.285-1.721-6.115-.114-.06-.009-.119-.018-.178-.024-3.26-6.255-5.513-12.928-7.699-19.609-1.395-4.108-3.272-8.084-6.742-10.843-5.92-4.11-19.487-12.446-26.44-12.094-.116-1.246-.695-2.529-1.648-3.358 2.1-3.581-6.297-5.917-6.889-5.502.38-11.962-5.247-22.352-17.652-24.735-11.115-2.316-26.924-2.705-32.901 8.912-.658-.073-7.374-.108-8.025-.036-1.01-1.28-12.1062 10.849-7.5585 15.071-40.6597 17.989-63.779 15.842-75.033 66.415-1.5215 4.75-1.6324 9.949-3.2389 14.594-5.7158 13.348-10.3518 27.563-11.50551 42.087-2.7866.713-3.10719 5.628.12061 6.339 1.23294.272 2.26392.643 3.16299 1.347-.70276 11.902 2.17551 39.092 3.98901 39.009 3.698 11.77 20.1925 15.092 31.87 10.955-2.0131 3.788 0 6.169 0 8.194 42.019 1.59 87.9623.673 129.9693 2.855 5.374-.077 11.026 1.32 16.326.515 3.231-.775 3.237-5.857-.041-6.486l14.325-3.112c-.321-.12 5.905-4.262 10.611-12.001 4.379-8.656 1.398-19.106 3.382-28.524 15.5-1.268 31.254-1.81 46.583-4.435 2.09 6.255 11.139-1.225 14.014-4.234-.004-.004-.007-.009-.011-.014 1.393-.38 2.508-1.685 2.546-3.229.976-1.395 1.181-3.362.245-4.709 4.29-24.76 10.831-50.04 13.195-75.031.835-.185 1.623-.551 2.289-1.116l-.053-.053c1.129-1.261 1.35-3.437-.536-4.509-1.519-.864-2.789-.595-4.439-.433z" fill="#fdfbf5"/><path d="m110.812 121.402c1.267-3.182 5.546-1.944 5.069 1.398-.286 2.002-1.383 4.117-2.367 5.872-.803 1.429-1.718 2.823-2.958 3.893 2.209 2.061 4.5 4.047 6.85 5.93 2.565 2.057 5.261 3.952 8.049 5.694 2.443 1.528 4.998 2.882 7.301 4.626 2.143 1.621 4.093 3.569 5.086 6.114 1.058 2.709.599 5.508-.181 8.216l-.089.306c-.795 2.683-2.173 5.916-.263 8.445.972 1.286 2.386 2.197 3.606 3.226 1.086.915 2.104 1.909 3.038 2.977 2.036 2.328 3.693 4.949 4.738 7.867l.093.266c.896 2.584 1.551 5.749.341 8.286-.348.728-1.468.492-1.663-.217-.44-1.604-.416-3.284-.785-4.911-.384-1.693-1.022-3.298-1.857-4.817-1.613-2.94-3.798-5.452-6.381-7.574l-.772-.628c-2.014-1.654-3.864-3.407-4.274-6.144-.436-2.927.736-5.715 1.49-8.486.525-1.931.696-3.781.129-5.526-.694 1.132-1.64 2.207-2.389 3.166-1.491 1.91-2.995 3.809-4.496 5.711-1.54 1.95-3.041 3.931-4.47 5.964-.64.909-1.273 1.824-1.903 2.739-.474.688-1.135 1.375-1.652 2.077.126.376.116.809-.112 1.117-2.739 3.702-6.639-4.024-7.656-5.977-2.07-3.976-3.611-8.199-5.69-12.174-2.152-4.121-4.604-8.131-7.3352-11.894-1.6524-2.274-3.5054-4.412-5.0165-6.76-3.5624 3.23-8.2491 5.396-12.5541 7.359-4.7299 2.157-9.6438 3.919-14.4934 5.792l-1.4325.556c-8.3558 3.262-16.9159 6.844-23.8611 12.637-8.1614 6.808-12.9896 16.297-16.5842 26.122-4.1378 11.312-7.561 22.928-10.7521 34.538-1.633 5.94-3.1825 11.907-4.63911 17.892-1.28364 5.274-2.34766 10.6-3.83354 15.82 3.01356-.107 6.45055 1.06 9.02345 1.396 11.7257 1.535 23.2936 3.982 34.3641 8.219 1.3674.524 1.7631 1.889 1.4653 2.996.7886-.221 1.5767-.447 2.3652-.669-.8639-1.324-.4516-3.691-.3836-5.159l.0041-.1c.0698-1.956.282-3.914.4194-5.866.262-3.72.6031-7.414 1.0564-11.115l.1157-.924c.5138-4.024.8937-8.074 1.4542-12.092l.0663-.459c-.2688-1.028-.5817-2.045-.9102-3.056-.8755-2.692-2.1112-5.228-3.194-7.836-.1276-.306.3098-.483.5143-.299 1.8337 1.65 3.2903 3.743 4.4606 5.931.0203-.103.0382-.206.0594-.309l.1335-.658c.3293-1.602.7298-3.29 1.7131-4.59.1046-.137.3118-.167.4108 0 .941 1.593 1.0464 3.61 1.1912 5.423.1638 2.049.1843 4.126.1554 6.182-.0564 4.017-.3396 8.046-.5652 12.056-.2213 3.942-.6558 7.834-1.2158 11.736l-.1065.733c-.2738 1.857-.498 3.738-.8591 5.583l-.102.503c-.193.915-.3118 2.204-.6961 3.275 9.8875-2.757 19.7901-5.452 29.7116-8.1 7.1708-1.914 14.3492-3.799 21.5242-5.697.378-.682.85-1.32 1.439-1.889 1.938-1.878 4.507-2.715 6.864-1.271.19.119.207.418 0 .532-.452.247-.904.5-1.349.764l4.309-1.168c3.22-.872 6.479-1.964 9.776-2.572 6.07-2.996 12.6-5.165 18.995-7.308l.753-.256c3.275-1.115 6.662-2.366 10.046-2.985 2.477-.453 5.383.093 6.379 2.632 1.261.83 2.447 1.807 3.593 2.768.827.694 1.621 1.433 2.428 2.151l.148.13c.659.572 1.182.956 1.344 1.867.084.47-.216 1.107-.796 1.045-1.775-.191-3.219-2.25-4.424-3.478-.93-.95-1.868-1.933-2.717-2.976-.494.268-1.173.22-1.488-.377-1.634-3.094-6.11-.949-8.586-.216l-3.547 1.05c-1.774.525-3.548 1.055-5.318 1.593-4.865 1.477-9.705 3.13-14.614 4.487.439.483.378 1.341-.456 1.669-3.842 1.508-8.057 2.287-12.05 3.322-2.52.654-5.039 1.312-7.557 1.973-.431.7-.742 1.491-.873 2.411-.48 3.388.446 7.296 1.349 10.572l.137.49c.741 2.633 1.833 5.862 4.105 7.525.555.405 1.261.688 1.973.751 4.448-2.29 8.895-4.579 13.345-6.865.825-.422 1.587.152 1.772.832 1.57-.257 3.134-.664 4.561-1.146 2.395-.815 4.266-2.367 6.512-3.44 4.347-2.077 8.784.475 12.677 2.413l.896.441c1.745.847 5.376 2.473 6.212.158.81-2.241-1.75-4.636-3.404-5.644-1.97-1.203-4.266-1.845-6.494-2.382-1.272-.306-2.559-.556-3.854-.738-1.47-.206-2.987-.175-4.402-.653-.702-.235-.811-1.352 0-1.537 2.178-.496 4.777.045 7.049.599l1.188.292c2.289.562 4.601 1.266 6.687 2.387 1.515.815 3.117 2.055 4.162 3.57.908-.843 2.038-.815 3.214-.501l.64.176c1.055.294 1.909.494 2.936.292.137-.747.277-1.495.425-2.242 1.463-7.345 3.068-14.661 4.837-21.94 3.055-12.554 6.587-24.969 10.571-37.259l.4-1.228c.918-2.811 1.658-5.872 3.14-8.455 1.401-2.441 3.645-3.849 6.311-4.593 3.025-.846 6.206-1.288 9.293-1.858.688-.127 1.379-.248 2.068-.373-.582-1.052-1.017-2.246-1.408-3.162l-.07-.159c-.841-1.918-1.597-3.871-2.327-5.835l-.545-1.476c-1.318-3.555-2.678-7.051-4.531-10.375-1.95-3.499-4.538-6.359-7.762-8.726-6.575-4.827-14.501-7.289-20.879-12.449-.261-.21.073-.572.339-.437 4.306 2.163 8.955 3.634 13.434 5.396l.884.349c3.54 1.403 7.136 2.932 10.199 5.204 3.417 2.535 6.108 5.682 8.131 9.424 1.993 3.689 3.268 7.818 4.673 11.758l.377 1.051c.567 1.574 1.153 3.143 1.823 4.676.534 1.216 1.529 2.604 1.981 3.993 1.237-.214 2.472-.429 3.711-.635 26.814-4.477 53.927-7.109 81.101-7.879 1.062-.03 1.613.984 1.456 1.912-2.608 15.423-4.926 30.898-7.468 46.332-1.11 6.736-2.243 13.467-3.401 20.195-.586 3.408-1.265 6.804-1.82 10.218-.449 2.756-.776 5.535-1.545 8.227-.692 2.415-1.753 4.743-3.494 6.586-1.877 1.985-4.497 2.946-7.135 3.4-6.696 1.153-13.564 1.623-20.315 2.392l-35.937 4.089c.525 4.773.565 9.474.323 14.304l-.137 2.636c-.113 2.121-.247 4.244-.55 6.344-.383 2.632-1.588 4.861-3.362 6.828-1.628 1.806-3.607 3.348-5.532 4.825-1.998 1.532-4.061 3.013-6.411 3.96l-.304.122c-2.062.805-5.927 2.05-8.744 1.595.368 1.844 1.081 3.83.448 5.655-.292.847-1.401 1.271-2.08.549-1.345-1.43-1.451-3.318-1.768-5.183-.332-1.941-.618-3.888-.872-5.841-.491-3.776-.874-7.585-.99-11.393-.12-3.91-.073-7.825.137-11.731.108-2.005.243-4.01.497-6.002.109-.85.219-1.701.346-2.548.047-.31.098-.617.153-.925l-3.226.364c-4.946.552-9.894 1.052-14.876 1.128-.588.01-1.043-.258-1.34-.651-.315.516-.866.884-1.654.881-6.955-.026-13.433-2.301-19.759-4.982-3.189-1.352-6.329-2.814-9.523-4.156-2.982-1.251-6.168-2.143-9.077-3.552l-7.645 4.01c-.055.197-.127.384-.203.541-.499 1.015-1.48 1.567-2.482 1.982-.961.399-1.958.522-2.929.422-5.797 3.039-11.596 6.074-17.3991 9.103l-5.8032 3.026c-11.5641 6.022-23.0822 12.142-34.7187 18.022l-.8567.432c-4.0194 2.015-8.3353 4.058-12.7957 5.583-.0794 1.129-.0292 2.228.0654 3.422l.0227.262c.1331 1.411.4182 3.181-.7147 4.186-.5893.524-1.642.525-2.0427-.263-.7271-1.43-.0742-3.683.1561-5.237.0818-.552.1813-1.121.3288-1.671-5.1135 1.523-10.3818 2.26-15.5855 1.406-5.0664-.832-8.9903-4.024-12.1536-7.928-3.3385-4.12-5.71087-8.922-6.98363-14.07-1.44859-5.857-1.54321-11.906-1.50918-17.905.03602-6.389.27243-12.809 1.04934-19.156-.85133-.201-1.79531-.373-2.65554-.314-.42609.682-1.25257.969-1.99939.882-1.624 1.79 2.49524 3.621 3.81179 4.08.45702.158.40815.901-.11906.878l-.33217-.015c-2.03413-.108-4.13563-.455-5.33156-2.345-.958387-1.517-.670417-3.312.47199-4.547.75459-7.136 2.55852-14.084 4.23745-21.045 1.64759-6.832 3.4799-13.621 5.42206-20.376l.8707-3.023c3.0578-10.589 6.2539-21.265 10.4719-31.436 2.1063-5.077 4.5326-10.061 7.8216-14.489 3.0658-4.127 6.6852-7.658 10.8459-10.676 7.7561-5.623 16.8571-9.022 25.7994-12.258l.4004-.146c4.634-1.676 9.2566-3.373 13.8378-5.189 4.0516-1.606 7.9331-3.644 11.9659-5.273-.1313-.239-.2584-.479-.3799-.722l-.0748.062c-.0127.01-.0254.02-.0382.03-.4067.281-1.0031.143-1.3373-.172-.9435-.891-.624-1.88.0057-2.803l.082-.119c.7709-1.078 1.4573-2.219 2.1691-3.337l.4448-.701c1.1934-1.868 2.4475-3.748 4.0392-5.293.7372-.716 1.5436-1.251 2.3976-1.651-.073-.154.568-.47.75-.31 2.709-.991 5.825-.784 8.778-.511m106.406 162.622-3.765.428c-4.143.472-8.287.928-12.432 1.38l-9.002.978c-.024.513-.086 1.015-.098 1.402-.057 1.999-.101 3.999-.144 5.997-.083 4.007.009 8.018.273 12.018.256 3.875.592 7.75 1.116 11.601l.106.768.062.405c.428.041.847.244 1.196.661.761.909 3.518.025 4.596-.357 1.771-.632 3.437-1.696 4.976-2.764 1.503-1.042 2.856-2.257 4.157-3.538l1.063-1.053c1.058-1.051 2.117-2.172 2.766-3.495.879-1.794.992-3.996 1.251-5.95.318-2.404.695-4.807 1.094-7.198m-106.525-36.511-.391.103c-14.188 3.77-28.3546 7.651-42.5862 11.256-7.0427 1.783-14.1188 3.438-21.1703 5.187l-1.1417.285c-5.5627 1.407-11.1924 3.1-15.4524 7.135-.1571.148-.3854-.08-.2374-.239 4.591-4.886 11.1206-6.956 17.3901-8.749 1.1588-.332 2.3191-.657 3.4783-.986-8.5263-3.04-17.1871-5.685-26.0478-7.571-2.2817-.486-4.59-.843-6.8698-1.33-1.59-.34-3.1428-.833-4.71599-1.241l-1.23745-.311-.01639 3.911c-.02062 5.541-.01073 11.077.27187 16.616l.05339 1.025c.32977 6.165.84441 12.458 3.03177 18.271 1.7774 4.723 4.6104 9.172 8.3153 12.613 1.8747 1.741 3.8902 3.095 6.3816 3.764 2.3132.621 4.737.695 7.115.528 11.4064-.795 21.56-6.992 31.4684-12.123 16.2067-8.392 32.4154-16.781 48.6387-25.141-.439-.299-.852-.645-1.227-1.034-2.175-2.247-3.324-5.323-4.078-8.302-.802-3.171-1.281-6.57-1.337-9.842m21.006 22.417c.143-.076.31.02.315.182.051 1.238-.634 2.461-1.145 3.578l-.054.119c-.623 1.383-1.302 2.747-2.007 4.09-1.406 2.683-2.868 5.337-4.395 7.954-3.067 5.265-6.478 10.307-10.507 14.891-.911 1.035-2.408-.292-1.824-1.407 2.817-5.374 6.1-10.449 9.48-15.479 1.692-2.519 3.384-5.04 5.091-7.547.713-1.047 1.435-2.089 2.176-3.115l.448-.614m170.69-104.136c-14.237.431-28.457 1.358-42.627 2.814-13.178 1.354-26.308 3.156-39.364 5.401-2.727.469-5.45.957-8.17 1.465l-1.632.307c-2.72.515-6.044.728-8.466 2.181-2.553 1.534-3.244 4.736-4.094 7.376-.998 3.107-1.973 6.221-2.919 9.345-3.762 12.397-7.199 24.901-10.265 37.488-1.521 6.248-2.871 12.53-4.293 18.802-1.264 5.571-2.659 11.079-4.115 16.594.179-.139.399-.245.665-.302 7.235-1.539 14.62-2.208 21.962-3.059l.711-.082c7.596-.894 15.193-1.781 22.793-2.636l50.324-5.659c2.967-.335 6.146-.38 9.035-1.177 4.91-1.354 6.061-6.845 6.886-11.218l.024-.132c2.484-13.212 4.461-26.538 6.779-39.783m-118.009 48.691c-1.954-.13-4.628-1.919-6.111-1.791.779 1.306 1.13 2.796.682 4.386-1.248 4.426-6.893 2.136-9.612.784-2.228-1.109-4.381-2.466-6.849-2.985-2.795-.589-4.689.523-7.052 1.804-1.939 1.053-4.052 1.809-6.225 2.2-1.155.209-2.253.23-3.349.15-.065.053-.14.103-.224.148l-.579.303c2.619.12 5.289.929 7.726 1.669 2.527.767 5.007 1.692 7.474 2.638l2.428.933c5.987 2.293 12.184 4.47 18.663 4.451.466-.002.848.128 1.149.338m-9.052-28.896c1.931-.238 3.712.016 5.254 1.273 1.86 1.515 3.11 4.028 5.783 4.194.78.048.962 1.143.187 1.373-1.99.589-3.603-.488-4.959-1.886l-.911-.953c-1.34-1.388-2.576-2.461-4.851-2.378-2.435.089-4.874.651-7.293.938-2.741.325-5.481.6-8.231.839-.129.011-.15-.19-.03-.219l3.079-.767m10.109-10.307.318-.031c2.804-.273 5.367-.284 7.869 1.224l.481.291c2.256 1.372 4.714 2.987 6.125 5.21.23.363-.151.79-.537.699-2.713-.653-4.696-2.642-6.977-4.132-2.56-1.671-5.204-1.396-8.123-1.136-2.826.251-5.651.597-8.45 1.067-2.63.444-5.268 1.141-7.923 1.364v-.006c-.304 0-.476-.456-.167-.611 2.695-1.345 5.818-1.982 8.75-2.598m93.779-29.048c-.271-1.295 1.323-1.896 2.062-.868l.157.217c1.595 2.186 3.905 4.931 3.787 7.712 1.403.031 2.857.883 3.404 2.149.253.586.338 1.281.282 2 1.276.098 2.667.936 3.446 1.75 1.293 1.352 1.394 3.262.467 4.841-2.021 3.443-6.436 4.694-10.165 4.974l-.133.01c-3.849.267-9.397.195-12.038-3.109-2.546-3.187.268-5.767 3.155-7.169-.751-.686-1.141-1.669-.775-2.707.642-1.824 2.911-2.528 4.191-3.796 1.564-1.545 2.596-3.666 2.184-5.883m2.091 2.682c-.423 1.845-1.467 3.534-2.919 4.871-.556.511-1.163.967-1.809 1.358l-.078.045c-.573.321-1.981.924-1.874 1.647.112.741 2.407 1.902 3.033 1.903.142 0 .223.222.077.287-1.134.501-2.124.716-3.231.186-.742.756-1.46 1.539-2.174 2.314-1.259 1.373-.829 2.821.661 3.844 2.393 1.642 6.028 1.601 8.82 1.482 2.809-.12 5.813-.747 8.006-2.619l.096-.083c1.194-1.061 2.283-2.858.457-3.88-.716-.4-1.489-.376-2.168-.571-.636 1.246-1.667 2.244-2.924 2.436-1.017.155-1.717-1.123-.792-1.734l.208-.128c1.16-.742 2.152-1.884 2.125-3.371-.017-1.032-1.459-2.335-2.398-1.365l-.042.046c-.786.886-2.17-.231-1.653-1.212l.024-.044m-184.6804-56.734c-.0035-.221.3083-.303.4172-.113 1.8237 3.21 2.777 7.143 3.7484 10.679 1.0176 3.703 1.839 7.444 2.5769 11.212 1.4945 7.63 2.2909 15.218 2.3448 22.995.0075 1.11-1.8012 1.406-1.9782.268-1.1747-7.565-2.3002-15.138-3.4838-22.701-.5956-3.804-1.2886-7.593-1.952-11.386m16.381-5.364c-.1342-.443.5097-.59.6744-.186 3.6598 8.985 4.8992 19.167 2.5496 28.647-.3596 1.45-2.4831.822-2.212-.61m46.1961-35.835c-.02-.331.411-.383.574-.156 1.732 2.444 2.453 5.717 5.495 6.98 1.519.631 3.228.521 4.57 1.585.898.713 1.586 1.837.912 2.916-.217.349-.824.524-1.12.145-.43-.552-.658-1.213-1.242-1.626-.825-.583-1.937-.62-2.882-.894-1.223-.354-2.3-.976-3.183-1.896m25.847-47.813c.179-.091.35-.033.464.123.164.22.144.433-.056.584.267.547.582 1.913.627 2.112.183.808.377 1.61.58 2.411.41 1.616.77 3.246 1.18 4.862.435 1.715.953 3.412 1.53 5.082.037.109.078.219.12.332l.067.169.015-.027c.118-.184.362-.055.334.14-.027.18-.064.357-.095.535l.061.16c.377 1.015.635 2.085-.057 2.982-.258.335-.543.534-.898.592-.57 1.877-1.284 3.719-2.049 5.488l-.223.517c-1.126 2.581-2.325 5.129-4.117 7.326-1.955 2.399-4.645 4.038-6.348 6.667-.793 1.223-1.345 2.508-1.791 3.89l-.17.524c-.317.977-.683 1.923-1.6 2.497-.292.182-.73.124-.966-.125-1.878-1.988.088-5.7 1.222-7.624 1.575-2.676 3.854-4.389 6.135-6.408 2.46-2.176 4.029-5.087 5.547-7.955.93-1.757 1.828-3.552 2.773-5.317-.988-.873-1.304-2.606-1.639-3.811l-.029-.109c-.554-1.928-.993-3.908-1.27-5.897-.267-1.912-.378-3.796-.308-5.719l.02-.49m4.611 5.589c-.217-.299.144-.638.442-.576 1.821.377 3.599 1.478 5.233 2.369l.173.095c1.304.703 2.616 1.564 3.301 2.929.744 1.484.682 3.194.58 4.808l-.008.151c-.124 1.935-.145 3.945-.554 5.844-.21.973-1.09 1.247-1.843 1.017-.897 2.828-3.412 4.912-5.251 7.144-2.343 2.847-1.902 6.689-1.656 10.116.099 1.387-1.627 1.781-2.516 1.042l-2.049-1.702c-.34-.284-.68-.569-1.021-.854-.291-.246-.579-.491-.866-.741l-.426-.377c-.189-.171-1.025-1.105-1.27-1.143-.592-.094-1.998 1.466-2.48 1.956l-.06.061c-.906.888-1.725 1.844-2.488 2.857-.139.187-.413.031-.313-.183.683-1.464 1.477-2.864 2.421-4.172l.19-.262c.627-.845 1.469-2.338 2.578-2.588 1.351-.305 2.701 1.052 3.686 1.805l.062.046c.469.352.931.709 1.392 1.069-.048-2.551.274-5.129 1.592-7.329.929-1.551 2.321-2.7 3.511-4.031 1.326-1.484 2.018-3.309 3.219-4.855.154-.199.367-.305.597-.34.047-1.242.23-2.496.372-3.726l.041-.367c.142-1.336.48-2.967-.174-4.218-.617-1.181-2.034-2.015-3.083-2.817l-.858-.665m-61.526-16.484c-.547.316-1.059.712-1.524 1.204-1.4618 1.551-2.5083 3.482-3.5252 5.339-.5479 1.001-1.0761 2.012-1.6283 3.01-.2401.434-.4873.863-.7373 1.292-.1158.198-.4575.59-.6284.833.1892.264.3841.525.5832.782.0763.099 5.3216 5.815 7.151 8.051 2.8 3.426 5.303 7.046 7.442 10.919 2.095 3.792 3.691 7.809 5.631 11.675.972 1.936 2.056 3.858 3.439 5.534.054.065.11.127.165.192.527-1.426 1.88-2.954 2.544-3.831l.062-.082c1.507-2.031 3.099-4.001 4.724-5.937 1.484-1.769 3.007-3.499 4.566-5.2l.586-.637c1.086-1.173 2.466-2.93 4.058-3.768-.171-.304-.369-.605-.595-.901-1.49-1.947-3.597-3.361-5.674-4.636l-1.349-.82c-5.08-3.096-10.083-6.337-14.493-10.361-2.333-2.128-4.635-4.359-6.597-6.841l-.693-.878m4.971-6.472c-2.38.2-4.949.152-7.148.927 1.955 1.848 3.813 3.844 5.721 5.723.17-1.271.517-2.526.812-3.766" fill="#000"/><path d="m134.373 6.53516c16.942 0 34.465 13.13394 40.675 21.51504 5.221 7.0463 8.033 38.9099 8.033 60.4441 0 4.5027 2.485 12.9927 1.76 17.3007-2.658 15.786-14.234 29.025-37.149 29.025-22.914 0-39.345-9.084-56.3763-33.474-8.2639 0-12.2691-6.3384-12.3271-16.3406-.0582-10.0037 7.9768-13.6423 7.9768-13.6423s-2.865-39.4741 4.3503-49.7513c7.2157-10.2773 26.1163-15.07664 43.0573-15.07664z" fill="#fdfbf5"/><path d="m127.248.952728c10.697-1.083248 21.179-.173106 31.72 1.710292.805.14586 1.263.67435 1.432 1.30973 4.966.22676 9.936.59118 14.895.8627 1.799.09855 2.82 1.87676 1.999 3.48257-.163.31896-.334.62931-.507.93965l.218-.07172c1.491-.47851 3.103-.71459 4.556.04518 1.85.96687 2.575 3.10017 2.166 5.06377-.104.5014-.281.9818-.48 1.4507.406-.0268.815-.018 1.22.0357 2.16.2865 3.766 1.9427 3.879 4.148.168 3.3301-1.978 6.7085-4.506 9.0924.368.7554.507 1.6447.355 2.5459-.304 1.7815-1.616 2.8483-3.137 3.5443.634 2.0145.934 4.1207.757 6.2733-.059.7185-.688 1.3121-1.35 1.4577 2.471 6.8081 3.723 14.1175 4.622 21.2398.643 5.0673.959 10.1645.997 15.2701.019 2.3043-.019 4.6128-.115 6.9185l-.04.8641c-.119 2.4921-.126 5.1085-.573 7.5737 1.528 2.5994 2.142 5.8259 2.402 8.7369.322 3.605-.188 7.324-1.325 10.752-4.29 12.958-17.24 21.134-30.245 23.259-12.04 1.967-25.971-.68-33.006-11.617-.111-.174.124-.316.261-.202 5.035 4.093 10.874 5.919 17.218 6.808 10.968 1.535 23.296-1.067 32.098-7.967 4.225-3.313 7.271-8.135 8.611-13.325.684-2.652.92-5.419.65-8.148-.274-2.77-1.5-5.1341-2.272-7.7504-.26-.8839.014-1.7043.555-2.2888.151-2.125.509-4.2683.646-6.3863.153-2.4087.245-4.8161.279-7.2277.062-5.0011-.147-10.012-.568-14.9924-.77-9.1198-2.813-18.0183-4.012-27.0606-.445.3984-1.082.562-1.749.2139l-.069-.0378-.364-.2085c-.022 0-.044.0029-.065.0056-2.492.242-5.076-.1042-7.463-.8476-2.498-.7756-4.816-1.9692-6.886-3.5598-.394 1.9962-.558 4.0135-.561 6.0487-.003 1.2713-1.349 1.9309-2.418 1.3879-4.734-2.4055-9.258-5.1775-13.551-8.2929-.501 2.5693-1.003 5.1383-1.507 7.7106-.195.9911-1.456 1.3909-2.265.9195-3.216-1.8714-5.994-4.321-8.256-7.2339-.451.8636-.904 1.7271-1.36 2.5887l-.687 1.2907c-.676 1.2683-1.584 2.6711-3.067 3.0766-1.569.4298-2.88-.5875-3.407-2.0082-.161-.4414-.311-.8953-.448-1.3519-1.337 3.0531-2.847 6.0373-4.553 8.8842-2.56 4.27-5.633 8.0748-8.698 11.978-.931 1.1851-2.524.0538-2.652-1.0978-.075-.6774-.137-1.3579-.191-2.0355-1.785 3.6036-3.649 7.1736-5.679 10.6401l.291 1.139c.838 3.3655 1.532 6.7551 2.289 10.1381.245 1.0914-.336 2.653-1.611 2.838-1.524.2231-2.9644 1.0011-4.525.4659-1.7019-.5845-2.038-2.0558-2.8416-3.4494-.161-.2781-.3474-.5337-.548-.7751l-.0508.0649c-.1243.1652-.4237-.0141-.3488-.2019l.0875-.2174c-.6906-.7328-1.5159-1.3442-2.2753-2.0007-1.8045-.305-3.8344.0282-5.0776.7624-2.8316 1.6703-4.1323 5.1141-4.1591 8.2811-.0328 3.7064 1.1157 7.8716 3.0551 11.04.8536 1.395 2.0232 2.6531 3.5686 3.2715 1.5338.6142 3.1957.4236 4.7556 1.0025 1.0324.3855 1.6679 1.5305 1.0451 2.5697-.0424.071-.089.137-.1342.206l.4632.616c.3192.426.6525.884.9632 1.36.7937.912 1.6284 1.793 2.4377 2.691 1.4942 1.656 2.9444 3.357 4.4144 5.036 1.389 1.586 2.856 3.074 4.369 4.54 1.429 1.387 3.214 2.554 4.526 4.035 1.277 1.444 1.624 3.965-.477 4.801-2.324.927-4.381-1.246-5.946-2.695l-.066-.06c-2.867-2.639-5.4576-5.655-7.5139-8.976-2.0379 1.387-4.984 1.519-7.0133.133-1.0676-.73-1.8866-1.957-2.2845-3.29-.3754.083-.7505.133-1.1163.127-.1883.11-.3771.216-.5682.315-1.513.788-3.3716.436-4.0637-1.238-.6303-1.521.0192-3.248.5869-4.712l.1172-.302c.3222-.836.6774-1.745 1.1189-2.602-1.2293-.9253-2.2799-2.0746-3.1687-3.3807-2.9867-4.4025-4.4786-10.8395-3.8192-16.0906.3968-3.1698 1.8854-6.4526 4.3231-8.5889l-.0892-.2329c-.6833-1.7338-1.3041-3.4738-1.7066-5.3057-.4715-2.1426-.7015-4.3629-.9101-6.5443-.4416-4.6076-.3223-9.3195.2655-13.9092 1.104-8.6392 3.9027-17.12 8.8706-24.309-1.4086-1.6863-2.5242-3.6708-1.9426-5.9533.2658-1.0478.8713-2.0411 1.7846-2.6414.5039-.3309 1.1038-.3816 1.6082-.6561l.1515-.0836c.2216-.1292.0521-.1155-.0799-.7163-.5221-2.39943-.0896-4.71785 2.551-5.51461 2.4854-.74904 4.8368.84152 6.307 2.7365 3.8497-2.73086 8.9217-4.15989 13.3827-5.37445 5.072-1.37608 10.276-2.23525 15.5-2.766712zm-41.5751 80.482672c-.0182-1.9541 1.8346-3.1599 3.658-2.8408 1.2243.2132 2.2457.9446 3.2045 1.6999l.4675.37c1.1679.9163 2.5096 1.9047 3.2044 3.2037 1.0211 1.916-1.1354 4.4942-3.1494 3.1515-1.3819-.9263-2.2674-2.4102-3.1737-3.7883l-.0939-.1426c-.4117-.617-.7727-1.2736-1.3369-1.7692l-.1219-.1073c-.1854-.1581-.3845-.3021-.624-.3699-.462-.1327-1.3177.0522-1.5215.6029l-.0182.0565c-.0746.2767-.4919.2174-.4949-.0664z" fill="#000"/><path d="m162.969 108.491c-2.026.797-4.418.984-6.508.307-1.999-.65-3.814-2.093-4.912-3.909-.978-1.618-1.387-3.537-.808-5.4498.027-.0917.117-.151.203-.1736.473.4306.766.8584 1.058 1.2834.492.717.984 1.428 1.662 2.042.985.892 2.312 1.616 3.63 1.856 1.289.235 2.61.027 3.764-.59.703-.375 1.271-.878 1.833-1.381.611-.549 1.214-1.107 2.058-1.416.676-.248 1.385-.039 1.93.377.586.446 1.009 1.145.985 1.875-.036 1.133-.531 2.077-1.25 2.857-.973 1.053-2.348 1.813-3.645 2.322zm-2.404-28.2147c2.252 1.3696 5.686 4.5634 3.262 7.9591-2.853 2.9948-6.961-.4377-8.985-1.9908-1.877-1.203-3.987 1.892-2.245 3.2969 14.628 10.8315 20.564-8.9066 9.108-10.8749-1.262-.2174-1.731 1.1861-1.14 1.6097zm-23.699-18.9788c3.071-.1468 5.777 1.2325 8.703 1.8592 2.705.5796 5.37.2315 7.999-.5055 4.268-1.1964 6.034 5.339 1.824 6.6126-3.067.9275-6.295.9919-9.442.5139-2.795-.425-5.138-1.7858-7.803-2.5781-2.286-.6795-4.977-.3971-7.392-.0772l-.937.1262c-1.393.1877-2.794.376-4.174.6484-1.197.2366-2.392.6697-3.614.7198-.138.0059-.255-.1742-.168-.2945 1.418-1.9488 4.154-3.4865 6.33-4.5122l.148-.069c2.685-1.2526 5.535-2.301 8.526-2.4436zm-1.125 14.3702-.002-.0664c.005-1.9033 1.113-6.2483 3.852-6.2483 1.711 0 2.751 2.957 2.93 6.0054l.006.1243c.08 1.8948-.441 6.0375-2.936 6.0375-2.521 0-3.825-3.9238-3.85-5.8525zm40.327 0v-.0664c-.005-1.9033-1.113-6.2483-3.852-6.2483-1.668 0-2.697 2.8116-2.915 5.7767l-.015.2287c-.108 1.8313.378 6.1618 2.93 6.1618 2.523 0 3.825-3.9238 3.852-5.8525zm-.043-16.6879.197.0044c3.2.111 6.492 2.0074 7.348 5.193.043.1654-.16.2766-.281.1632-2.633-2.4645-6.172-.1095-8.807 1.1248l-.969.4473c-3.397 1.581-7.262 3.4395-11.035 2.2614-1.79-.5596-2.929-2.4008-2.417-4.2604.454-1.6548 2.451-3.0455 4.181-2.4482l.078.0285c1.405.5377 3.134-.0071 4.584-.5442l1.194-.4477c1.916-.7276 3.843-1.5415 5.927-1.5221z" fill="#000"/></g><path d="m231.199 214.018h35.0044v35.0044h-35.0044z" fill="#fdfbf5"/></g></svg>