<svg fill="none" height="429" viewBox="0 0 460 429" width="460" xmlns="http://www.w3.org/2000/svg"><g clip-rule="evenodd" fill-rule="evenodd"><path d="m341.315 229.539c-3.373-13.083-6.474-18.63-12.465-23.178-5.604-4.253-13.786-7.826-25.722-10.436-12.432-2.174-12.783-8.637-15.901-19.024-.91-3.122-5.415-3.954-7.36-1.703-.268-.288-.554-.559-.856-.811.264-1.489-1.903-5.758-1.831-7.183.756-14.868-4.106-22.336-16.244-25.11-2.639-.605-20.566-.96-23.139-.249-11.251 3.111-22.326 12.989-20.632 24.888-3.531 4.617-6.987 7.434-12.436 8.921-12.124 1.54-24.249 2.91-36.377 4.083-23.742 3.723-46 16.293-61.214 34.622-1.403 1.693-1.81 3.989-.57 5.793-.971 4.158-6.432 14.238-2.135 17.088-7.0664 16.901-23.3228 49.572-23.3521 58.907-.1282 39.209 4.1062 90.247 42.7891 111.945 1.55 1.524 1.771 3.209 2.442 5.474 1.701 7.139 7.877 12.24 14.639 11.825 33.302.739 65.56-3.325 98.864-3.521 14.687-.086 32.35 2.107 45.108 3.566 12.76 1.462 25.64.171 37.883-3.566 1.033 1.627 3.119 2.574 5.238 2.107 12.693-2.522 22.956-10.347 31.898-18.898 2.73-4.971 13.401-19.134 9.159-24.062 3.844-16.257 3.645-33.722-3.187-49.2.969-2.837-.796-5.956 0-8.884.577-2.121 2.053-2.999 2.797-5.097 1.046-2.955-.092-6.92-1.269-9.935-.484-1.501.888-3.119 1.269-4.652 1.806-7.232-2.332-6.595-5.313-11.43.044-.015.82-3.465.817-3.449.456-2.463-.687-5.621-1.685-7.677-.676-1.39-2.119-2.26-3.555-2.101 1.445-4.908 3.273-8.993 5.24-13.724 3.476-8.335 7.877-16.318 12.87-23.864 2.045-3.09-.702-6.668-4.01-6.879-10.691-.685-21.311-2.219-31.76-4.586z" fill="#fdfbf5"/><path d="m310.061 292.582c-4.282-1.681-8.895-2.61-13.531-2.969 2.497-.438 5-.861 7.522-1.077 1.762-.15 3.394-.136 4.716 1.2.883.89 1.297 2.036 1.878 3.089-.193-.086-.388-.168-.585-.243zm45.977-15.709c-7.015.357-14.039 2.026-20.385 5.048-2.595 1.238-4.949 3.027-5.637 5.968-.348 1.502-.264 3.055-.077 4.572.139 1.15.174 2.617 1.172 3.396.17.131.351.232.542.305-2.276 1.038-4.466 2.253-6.551 3.634-1.812 1.196-3.673 3.039-4.508 5.117-.065-.223-.135-.444-.208-.665-1.425-4.21-3.62-7.661-7.074-9.979.612-.275 1.033-.925.835-1.823-.82-3.751-4.283-7.011-8.196-6.778-4.282.251-8.882 1.811-12.756 3.782-1.405-.029-2.81-.013-4.214.049-.24.01-.227.334 0 .361 1.13.143 2.26.302 3.39.487 2.685.431 5.363.977 7.982 1.654 3.142.813 6.392 1.628 9.329 3.05 5.696 2.76 9.222 9.976 8.497 16.254-.119 1.03-.519 4.141-1.945 3.821-1.207-.271-1.687-2.791-2.11-3.724-1.13-2.478-3.165-4.097-5.607-5.192-2.866-1.288-5.935-2.159-8.906-3.172-1.683-.577-3.366-1.156-5.053-1.727-1.727-.592-3.367-1.411-5.205-.995-1.11.251-1.239 1.575-.616 2.334.949 1.157 2.357 1.498 3.724 1.974l5.401 1.881c2.782.967 5.696 1.784 8.406 2.969l-.084.194c-.22-.062-.48.157-.438.428.407 2.506.973 5.402.345 7.909-.495 1.991-2.24 4.192-4.508 3.608.185-.178.309-.409.354-.662.044-.253.007-.513-.106-.743-.898-1.919-12.66-9.5-13.709-6.685-.035.101.073.174.159.16.894-.187 2.39 1.338 3.106 1.822 1.033.698 2.083 1.377 3.105 2.093 1.115.784 2.207 1.601 3.273 2.451.835.667 1.467 1.359 2.425 1.696-.257.122-.485.297-.669.514-.185.216-.322.468-.403.74-.432 1.482-1.269 2.74-2.72 3.394-1.52.681-3.234.253-4.837.42-2.181.219-4.086 1.258-5.675 2.739-3.339 3.12-5.015 8.618-9.685 10.092-2.79.879-5.885.324-8.711-.073-3.152-.447-6.225-.799-9.401-.334-3.042.446-5.918 1.499-8.696 2.783-2.603 1.205-5.482 2.567-7.793 4.362-.475-1.467-.954-2.917-1.319-4.416-.85-3.537-1.331-7.153-1.436-10.789-.104-3.463.09-6.943.387-10.392.148-1.723.381-3.438.527-5.161.039-.432.116-.897.174-1.361 4.125-2.436 8.458-4.3 12.826-6.221l.035-.015c.133-.062.268-.121.403-.178-.003-.009-.008-.017-.015-.024.498-.305.846-.712 1.055-1.17 6.297-4.176 11.559-9.877 15.482-16.527 1.645-2.788 3.227-5.68 5.379-8.121 2.291-2.607 5.011-4.154 8.377-4.96 3.934-.943 7.991-1.509 12.022-1.83 2.202-.174 4.663-.445 7.063-.434 1.67.011 3.307.154 4.809.57 2.223.61 3.524 2.302 4.921 4.013 1.347 1.631 2.65 3.298 3.909 4.998 1.179 1.621 2.295 3.297 3.262 5.055.58 1.053 1.117 2.137 1.569 3.254.16.396.368.845.465 1.255.097.414-.08.852.383.852-1.916.027-1.895 3.089.008 2.976 7.452-.432-3.222-14.987-4.783-17.015-2.208-2.873-4.489-6.621-8.025-7.956-.051-.019-.102-.037-.154-.053 1.029-.976 1.843-2.145 2.619-3.333.802-1.224 1.756-2.625 2.02-4.077.167-.923-.983-1.451-1.527-.641-.795 1.179-1.178 2.674-1.77 3.97-.604 1.317-1.338 2.559-1.919 3.887-1.397-.431-2.905-.627-4.441-.692 1.937-2.625 5.249-7.689 5.648-8.339 1.833-3.026 3.583-6.102 5.247-9.224 1.802-3.368 3.348-6.875 5.074-10.282.978-1.93 1.965-3.877 3.053-5.751.375-.643.776-1.285 1.234-1.87.088-.115.202-.212.306-.322l.313-.178c.627-.359.846-1.196 1.288-1.725.705-.855 1.533-.956 2.593-.969 2.258-.024 4.528.066 6.782.128 4.317.12 8.632.31 12.943.57 4.817.286 9.632.661 14.433 1.123 4.249.404 8.498 1.067 12.751 1.384-5.759 13.685-12.143 27.121-19.372 40.088-.071.124-.125.256-.161.394zm-31.946 35.253c-.928.425-1.831.956-2.67 1.56.135-.969.18-1.949.136-2.927.692.742 1.578 1.169 2.534 1.367zm39.642-23.539c-.034.003-.066.014-.094.033-.027.019-.049.045-.064.075-1.286 2.651-.747 5.612 1.35 7.691 1.099 1.084 3.494 2.308 3.416 4.088-.066 1.439-1.632 2.648-2.303 3.837-.622 1.106-.853 2.322-.355 3.522.639 1.536 2.423 2.148 3.033 3.657.775 1.916-.483 4.227-1.364 5.896-.821 1.544-1.881 3.09-2.587 4.721-4.716 2.444-8.937 6.191-12.567 9.997-3.973 4.161-7.383 9.057-13.693 8.934-.281-.007-.559.062-.805.199s-.45.338-.592.581c-1.757.079-3.516.121-5.275.125-3.086.018-6.173-.019-9.258-.112-.218-.747-.059-1.762-.07-2.392-.038-2.033-.058-4.06-.142-6.093l-.07-1.7c1.11 2.009 3.276 2.923 5.745 2.784 3.969-.233 7.964-.883 11.894-1.467 2.07-.306 4.137-.654 6.2-1.026 1.694-.302 4.086-.225 5.269-1.584.278-.317.295-.898-.143-1.11-1.172-.577-1.912-.256-3.199-.007-4.593.882-9.207 1.652-13.837 2.309-1.735.244-3.471.484-5.209.674-1.517.163-3.227.383-4.449-.758-2.465-2.308-1.084-6.174.476-8.506.013-.018.021-.039.024-.061s.001-.044-.005-.065c1.47-.346 2.937-.747 4.399-1.031 2.815-.536 5.643-1.004 8.481-1.405 5.828-.831 11.695-1.381 17.552-1.934 1.45-.141 1.467-2.423 0-2.287-8.416.769-16.874 1.5-25.178 3.122-2.082.403-4.148.859-6.203 1.374-.971.24-2.011.615-3.03.628-.062 0-.124 0-.184-.005-1.993-.061-2.284-1.768-1.189-3.189.135-.174.275-.348.417-.515 1.936-2.307 4.347-3.848 6.83-5.443 2.782-.379 5.557-1.223 8.28-1.842 6.726-1.533 13.451-3.066 20.18-4.594 1.319-.302.758-2.331-.561-2.033l-15.324 3.473-7.474 1.696c-1.495.335-3.359 1.013-5.116 1.258-.866.119-1.706.134-2.465-.044-2.448-.581-2.573-3.643-1.516-5.462 1.183-2.043 3.421-3.32 5.405-4.478 3.439-2.009 7.1-3.454 10.675-5.117l1.905-.419c3.691-.813 7.909-1.211 11.383-2.702 1.04-.441.472-2.082-.557-2.058-2.698.058-5.518 1.018-8.154 1.586-2.851.619-5.707 1.234-8.558 1.85-.286.062-1.98.604-2.237.485-.163-.079-.219-.643-.274-1.015-.174-1.223-.302-2.507-.112-3.736.418-2.751 2.712-4.044 5.033-5.101 5.17-2.349 10.839-3.82 16.48-4.408 1.299-.135 2.603-.223 3.908-.264 1.537-.047 2.802-.317 3.579 1.196 1.223 2.385 1.897 5.451 2.299 8.172zm-7.18 86.454c-1.126-3.897-.82-8.058-1.592-12.034-.413-2.052-.925-4.083-1.534-6.086-.48-1.618-1.279-3.339-1.368-5.026-.006-.114.126-.178.217-.126 1.59.91 2.81 2.879 3.717 4.423 1.066 1.841 1.932 3.792 2.58 5.818 1.334 4.055 2.427 8.945.709 13.031-.511 1.217-2.308 1.46-2.729 0zm-34.81-51.62c.951-.094 1.903-.275 2.856-.488-1.064 1.037-2.048 2.288-2.594 3.674-.082-1.064-.195-2.125-.337-3.183.024 0 .052 0 .075-.003zm-9.148 81.122c-1.679-1.172-2.903-2.809-4.326-4.256-1.399-1.421.79-3.612 2.189-2.189 1.214 1.233 2.269 2.773 3.699 3.771.687.48 1.006 1.347.555 2.119-.399.68-1.432 1.033-2.117.555zm-9.361-45.036c3.064-1.326 6.077-2.77 9.284-3.724 1.916-.571 2.727 2.418.823 2.986-2.953.879-5.724 2.19-8.544 3.412-1.812.782-3.387-1.887-1.563-2.674zm-32.36-.929c-.75-1.848 2.247-2.646 2.985-.822.85 2.099 1.824 4.144 2.674 6.243.749 1.848-2.246 2.647-2.985.823-.85-2.099-1.825-4.143-2.674-6.244zm-31.94 36.936c-.498.667-1.332 1.028-2.117.557-.66-.396-1.061-1.445-.555-2.119 1.474-1.967 2.969-3.91 4.699-5.665 1.402-1.421 3.59.769 2.189 2.19-1.544 1.566-2.897 3.281-4.216 5.037zm-4.566-207.244c1.419.971 2.665 2.151 3.879 3.365 1.41 1.41-.778 3.601-2.19 2.189-1.022-1.022-2.053-2.061-3.251-2.88-.693-.472-1.004-1.351-.557-2.119.401-.685 1.429-1.025 2.119-.555zm46.467 49.834c-.804 1.608-1.526 3.187-1.571 5.014-.05 1.993-3.145 1.995-3.096 0 .059-2.393.942-4.468 1.995-6.578.89-1.786 3.559-.215 2.672 1.564zm17.05-40.022c1.664-1.11 3.212 1.573 1.562 2.674l-4.011 2.676c-1.665 1.108-3.213-1.575-1.562-2.674zm-73.949 69.974c-.286 1.969-3.268 1.127-2.986-.822.435-3.013.966-5.986 1.783-8.92.534-1.919 3.52-1.099 2.985.825-.817 2.934-1.348 5.906-1.782 8.917zm-10.854 35.473c-1.992-.042-1.992-3.14 0-3.096 1.803.037 3.575.513 5.315.947 1.934.484 1.11 3.469-.824 2.986-1.469-.368-2.967-.804-4.491-.837zm-4.007 71.458c-.683.333-1.386.631-2.079.948-4.27 1.957-8.537 3.921-12.8 5.892-5.766 2.671-11.575 5.246-17.355 7.887-5.894 2.692-11.771 5.421-17.643 8.165-2.766 1.291-5.552 2.536-8.334 3.794-2.377 1.075-5.316 2.955-7.928 3.132-.134.009-.18-.161-.103-.247.987-1.123 2.561-1.775 3.857-2.506 1.323-.745 2.673-1.445 4.015-2.157 2.799-1.484 5.603-2.954 8.429-4.386 5.652-2.861 11.316-5.704 16.981-8.541 5.779-2.893 11.548-5.807 17.378-8.599 4.23-2.027 8.466-4.044 12.707-6.051.642-.304 1.28-.634 1.937-.907.876-.36 1.539-.287 2.442-.511 1.469-.362 2.106 1.508.978 2.323-.931.67-1.42 1.245-2.482 1.764zm-20.665 31.752c-.319-.773.348-1.712 1.081-1.904.879-.233 1.584.302 1.905 1.08.838 2.067 2.064 3.955 3.613 5.561 1.39 1.43-.798 3.62-2.189 2.19-1.95-2.007-3.351-4.35-4.41-6.927zm-15.201-49.707c-1.412-1.412.776-3.6 2.187-2.188l4.011 4.013c1.412 1.412-.779 3.6-2.189 2.188l-4.011-4.013zm-41.161-6.542c-2.883.846-6.248 1.625-8.215 4.084-.095.121-.256-.032-.199-.153 2.518-5.22 9.738-7.052 14.736-8.881 3.535-1.293 7.161-2.367 10.82-3.326-.366-4.174.643-8.649.993-12.803.376-4.435.678-8.882.835-13.331.16-4.538.2-9.108.05-13.648-.149-4.522-.735-8.991-.993-13.499-.024-.435.582-.456.714-.097 1.519 4.184 2.167 8.817 2.661 13.229.51 4.544.678 9.075.614 13.645-.068 4.7-.341 9.388-.714 14.071-.18 2.22-.385 4.438-.581 6.656-.146 1.694-.216 3.374-.562 5.013 2.207-.542 4.417-1.053 6.623-1.551 7.029-1.588 14.087-3.061 21.087-4.777 3.436-.841 6.823-1.85 10.244-2.745 3.22-.845 6.619-1.867 9.927-2.244 1.179-.134 1.329 1.482.549 2.029-2.688 1.889-6.258 3.202-9.362 4.259-3.116 1.06-6.356 1.824-9.548 2.61-6.659 1.637-13.383 2.978-20.095 4.373-6.704 1.394-13.42 2.777-20.046 4.496-3.192.828-6.374 1.66-9.537 2.59zm-15.806-82.846c-1.722 1.013-3.279-1.665-1.561-2.674 2.247-1.319 4.641-2.311 7.055-3.278 1.854-.742 2.65 2.254.824 2.987-2.17.868-4.298 1.78-6.318 2.965zm-6.24 115.048c-1.727 1.003-3.284-1.674-1.561-2.672 2.418-1.405 5.07-2.341 7.577-3.568 1.784-.876 3.352 1.796 1.562 2.674-2.509 1.227-5.157 2.163-7.578 3.566zm-2.806-65.306c1.67 1.588 3.901 2.335 6.004 3.168 1.831.727 1.029 3.72-.825 2.988-2.619-1.041-5.287-1.989-7.368-3.968-1.447-1.375.746-3.562 2.189-2.188zm18.483-88.692c1.837.721 1.033 3.714-.822 2.987-2.057-.808-4.183-1.423-6.24-2.231-1.837-.72-1.033-3.714.824-2.985 2.057.807 4.182 1.421 6.238 2.229zm32.608-35.228c1.953-.329 2.784 2.654.825 2.986-2.433.41-4.826.892-7.132 1.784-1.863.721-2.661-2.275-.824-2.986 2.307-.893 4.701-1.373 7.131-1.784zm10.775 85.771c-1.789-.879-.22-3.549 1.562-2.673 1.878.923 3.823 1.637 5.872 2.073 1.951.416 1.119 3.401-.824 2.987-2.304-.491-4.498-1.348-6.61-2.387zm10.178-48.313c1.927-.529 2.742 2.46.822 2.986-3.375.925-6.851 1.406-10.253 2.229-1.937.47-2.758-2.517-.824-2.986 3.403-.824 6.878-1.304 10.255-2.229zm43.168-15.163c1.96.363 1.125 3.348-.822 2.987-2.073-.384-4.174-.39-6.277-.391-1.994 0-1.99-3.098 0-3.096 2.389 0 4.746.066 7.099.5zm140.792 16.18c-5.058-.484-10.124-.871-15.196-1.161l-.706-.041c-.025-.053-.06-.104-.095-.157-1.655-2.432-2.875-4.863-3.932-7.61-1.009-2.617-1.989-5.315-3.544-7.676-1.775-2.69-4.168-4.797-6.795-6.621-1.583 1.081-3.063 2.304-4.421 3.656-1.423 1.397-3.612-.791-2.189-2.191 1.198-1.179 2.481-2.268 3.839-3.258-1.564-.952-3.161-1.846-4.72-2.734-5.837-3.334-11.816-6.415-17.919-9.233-2.835-1.313-5.707-2.478-8.597-3.657-1.557-.636-3.092-1.453-4.647-2.187.112-1.101-.218-2.332-1.06-3.055-.623-.531-1.106-.727-1.85-1.103-.167-.058-.267-.093-.313-.113.035.009.135.038.3.093.396.183.427.128.094-.159-.019-.627-1.253-1.951-1.535-2.597-.984-2.218-1.29-4.564-2.74-6.585-.928-1.317-2.25-2.307-3.775-2.827-1.526-.519-3.177-.542-4.716-.064-.324-3.348-.408-6.843-1.67-9.832-.035-.081-.147-.115-.198-.027-1.315 2.241-1.427 4.738-1.528 7.324-.103 2.444.002 4.893.314 7.32-.202.155-.409.303-.619.445-.997.652-2.074 1.17-3.206 1.541-2.15.712-4.406 1.022-6.663 1.13-5.822.278-11.824-.31-17.551-1.308-5.791-1.011-14.672-2.528-19.826-5.429-3.401-1.91-6.538-4.245-9.72-6.505 1.152-3.716 1.447-7.711.286-10.85-.139-.375-.727-.447-.839 0-.727 2.995-.941 6.007-1.908 8.969l-.046.13-.905-.606c-.697-.462-1.644-.117-2.064.54-6.681 10.533-17.264 11.137-28.377 13.018-12.161 2.061-24.385 4.282-36.077 8.312-11.183 3.855-21.87 9.469-30.337 17.853-1.914 1.905-3.718 3.919-5.401 6.031 1.637.207 3.26.528 4.863 1.031 1.897.598 1.08 3.587-.825 2.988-2.056-.649-4.139-.969-6.243-1.129-5.751 7.874-10.2383 16.801-14.1156 25.587-7.4414 16.846-12.2839 34.787-14.511 53.053 1.2234-.733 2.4688-1.433 3.7454-2.083 1.7729-.901 3.337 1.771 1.5623 2.674-1.9701 1.004-3.8872 2.109-5.7436 3.31-.8115 7.998-1.1235 16.038-.9341 24.075.4524 19.154 3.0385 38.868 8.8828 57.143 2.8681 8.969 6.6685 17.864 12.3298 25.443 2.56 3.432 5.471 6.529 8.899 9.112 1.656 1.258 3.419 2.368 5.269 3.316 2.389 1.224 5.499 1.627 7.559 3.358.678.569 1.198 1.318 1.593 2.166-.229 1.61-.256 3.226.185 4.835.072.248.198.476.369.668.171.193.383.344.62.444.006.139.006.275.006.405 0 .062.093.079.104.016l.059-.364c.152.051.312.076.472.075 5.878.022 11.762-.123 17.647-.322-.454-1.394-.947-2.777-1.421-4.172-.641-1.894 2.348-2.7 2.985-.823.553 1.63 1.134 3.247 1.648 4.883 6.306-.234 12.61-.516 18.901-.723 13.385-.447 26.766-.594 40.154-.876 20.79-.441 41.731-1.344 62.555-.461.72-1.528 1.526-3.022 2.29-4.53.901-1.78 3.571-.212 2.674 1.563-.533 1.047-1.083 2.082-1.605 3.128 4.216.22 8.431.509 12.634.904 7.174.673 14.278 1.869 21.445 2.612 7.286.758 14.412.625 21.641-.58 1.3-.216 2.066-1.002 2.383-1.978.012-.005.021-.013.027-.024.372-.432.72-.793 1.079-1.106.43-.279.894-.515 1.44-.724 1.019-.375 2.077-.637 3.153-.782 1.185-.178 2.385-.194 3.568-.341.998-.128 1.975-.318 2.949-.549 1.738-.409 3.436-.974 5.073-1.689 1.443-.63 2.746-1.536 3.976-2.524 2.548-1.86 4.753-4.238 6.68-6.708 1.127-1.442 2.174-2.944 3.137-4.5 1.672-2.704 3.095-5.509 4.535-8.339.524-.839 1-1.698 1.436-2.573-2.813-.83-5.654-1.506-8.636-1.554-1.994-.032-1.992-3.13 0-3.097 3.42.055 6.656.854 9.87 1.806.156-.415.306-.835.445-1.26.383-.886.702-1.795.964-2.716l.465-1.254c.348-1.449.696-2.9 1.048-4.352.701-2.322 1.254-4.68 1.661-7.068.339-1.571.602-3.156.78-4.758.542-3.881.984-7.757 1.015-11.681-.047-2.419-.202-4.834-.466-7.239-.112-1.632-.298-3.258-.556-4.873-.334-2.401-.661-4.777-1.215-7.147l-1.241-4.807c-1.033-3.339-2.254-6.617-3.658-9.817-.077-.2-.469-.641-.703-.647-.18-.003-.427.16-.346.378l.023.06c-.08-.181-.157-.368-.239-.549-.07-.171-.341-.511-.55-.508-.011 0-.024 0-.038.004.057-.043.11-.092.155-.147 1.389-1.644 2.29-3.809 3.284-5.712.824-1.573 1.603-3.229 1.826-5.006.198-1.56-.069-3.097-1.047-4.359-1.116-1.435-3.213-2.109-2.048-4.185 1.324-2.36 3.271-4.408 1.331-7.091-.987-1.366-2.549-2.117-3.71-3.306-1.335-1.374-1.971-3.212-1.934-5.09.08.048.188.024.227-.093 1.123-3.39.309-7.114-.839-10.416-.626-1.791-1.954-2.284-3.498-2.372 6.687-13.064 12.943-26.339 18.518-39.917.187-.445.368-.89.55-1.335.271-.667-.303-1.552-.964-1.7-4.82-1.057-9.842-1.394-14.752-1.857z" fill="#171619"/><path d="m309.187 62.57c-3.502-14.7692-11.158-28.5128-23.416-39.6209-36.887-36.4817-104.625-16.67948-104.317 38.2967-1.324 6.4194-1.861 13.022-1.423 19.5696.183 2.7949 1.392 6.6941-.233 9.2088-3.663 4.7033-5.793 8.1703-4.545 14.4288 1.042 5.463 4.758 9.335 9.774 11.392 3.008.864 5.863 2.745 6.978 5.613 6.696 12.264 11.656 22.465 22.213 30.824 2.725 2.152 30.663 15.059 39.87 15.059 26.95 0 60.917-9.767 61.481-39.883.098-6.613-1.062-13.306-1.791-19.868-1.771-14.9761-1.146-30.4944-4.591-45.02z" fill="#fdfbf5"/><g fill="#171619"><path d="m308.579 55.1858c.009-.1832.271-.2253.321-.044 1.001 3.5532 1.569 7.1759 2.353 10.7876.767 3.475 1.454 6.9674 2.059 10.4743 1.119 6.6209 2.062 13.2601 2.939 19.9176l.218 1.663c1.524 11.7127 4.04 23.9137 1.839 35.6937-1.877 10.054-8.174 18.156-16.288 24.096-7.681 5.622-16.996 9.232-26.245 11.284-9.927 2.203-21.692 2.86-29.769-4.422-3.233-2.915 1.174-8.701 4.681-6.069 8.236 6.177 18.714 4.357 28.009 1.897l.28-.073c8.158-2.174 16.369-5.469 22.845-11.026 7.159-6.146 10.699-14.674 11.108-24.027.231-5.255-.26-10.504-.788-15.729l-.058-.581c-.607-5.974-1.244-11.9448-1.83-17.921-.537-5.4505-.998-10.934-1.242-16.4065l-.115-2.762c-.236-5.5677-.557-11.2142-.317-16.7545zm-96.595-46.25642c13.44-6.97843 28.76-9.478564 43.721-7.13553 14.339 2.25275 27.499 9.65385 37.336 20.26735 4.802 5.1832 9.064 11.1759 11.787 17.7253 1.354 3.2528 2.414 6.6466 2.978 10.1319.29 1.7912.575 3.6484.63 5.4652.05 1.6813-.445 3.2601-.386 4.9689.009.2674-.4.3186-.462.0622-.467-1.9047-1.59-3.3479-2.293-5.1575-.537-1.3469-1.115-2.6772-1.732-3.989l-.522-1.1282c-1.515-3.2784-3.328-6.4194-5.121-9.5513-3.618-6.3235-8.232-12.0219-13.665-16.8754-9.522-8.4927-21.738-13.9744-34.487-14.96158-13.235-1.02564-26.656 2.13188-37.958 9.12088-11.301 6.9908-19.846 17.8572-24.282 30.3663-2.223 6.3023-3.492 12.9014-3.764 19.5788-.145 3.3846-.009 6.7985.229 10.1776l.117 1.6117c.138 1.9323.233 3.8572-.055 5.7418 2.037-.6355 4.174-.8974 6.319-.5842 3.187.467 5.09 1.7747 6.52 4.6227.017.0312.023.0671.018.1022-.005.0352-.021.0677-.046.0928s-.058.0415-.093.0466-.071-.0013-.102-.0182c-1.854-.9249-4.854-.4396-6.814.0458-2.044.5055-3.882 1.3828-5.619 2.5696-3.208 2.196-5.727 5.5952-6.344 9.4959-.597 3.77.951 7.587 3.548 10.286 1.337 1.392 2.936 2.595 4.725 3.344 2.172.911 4.322.881 6.244 2.385 1.188.929.901 2.517.095 3.548 4.053 4.447 7.648 9.311 11.703 13.776 1.885 2.059 3.733 4.151 5.542 6.277l.672.804c1.799 2.17 4.658 4.463 5.48 7.194.511 1.698-1.307 3.918-3.144 3.145-2.819-1.187-4.832-4.277-6.735-6.647l-.124-.152c-1.984-2.454-3.786-5.048-5.392-7.764l-.533-.895c-2.933-4.932-5.839-10.048-7.709-15.467-.123.128-.253.243-.392.34-2.692 1.916-6.608.444-9.297-.8-2.563-1.193-4.842-2.922-6.681-5.07-3.947-4.631-5.766-10.628-4.447-16.6369 1.117-5.0897 4.643-10.0421 9.267-12.6172-2.135-2.4579-3.018-5.7711-3.608-9.011-.751-4.1355-.899-8.3736-.696-12.5659.407-8.3517 2.555-16.5861 5.879-24.2345 5.942-13.6831 16.447-25.1319 29.693-32.02929zm-28.209 91.31862c2.813-.5256 5.434-.6538 8.148.537 2.944 1.293 5.013 3.426 6.94 5.926 2.19 2.843-3.425 5.949-4.841 2.174l-.04-.115c-.379-1.119-1.059-2.198-1.919-3.192-.257.395-.605.743-1.008.943-.492.242-1.242.073-1.361-.553-.13-.698.015-1.54.416-2.13l.055-.081c-1.95-1.571-4.298-2.72-6.39-3.088-.209-.038-.207-.381 0-.421z"/><path d="m251.632 120.971c.081-.075.209-.102.308-.04 1.674 1.059 1.872 4.621 1.892 6.678.692.179 1.375.384 2.024.529 1.373.304 2.754.568 4.133.848l1.033.214c3.455.727 6.973 1.266 10.491 1.537 3.416.26 6.932.357 10.337-.084 1.467-.192 2.915-.502 4.332-.927 1.67-.498 3-1.324 4.555-2.048 3.89-1.813 7.15 3.498 3.406 5.83-3.214 2-7.599 2.722-11.309 3.031-3.791.317-7.568-.031-11.315-.632-4.05-.648-8.017-1.644-11.857-3.09-1.621-.62-3.201-1.343-4.731-2.163l-.418-.221-.789-.418c-.288 2.566-1.116 5.044-2.117 7.425l-.022-.042c-.548 1.879-2.526 3.042-4.495 2.213-2.309-.975-2.485-3.53-1.141-5.345l.064-.084c1.581-2.033 2.57-4.557 3.431-6.962.441-1.232.849-2.494 1.205-3.756.256-.912.265-1.83.983-2.493zm59.524-20.428c-1.37 4.139-4.355 7.328-8.515 8.729-4.122 1.388-8.708.882-12.921.132-.934-.165-1.864-.351-2.789-.557.764.472 1.438 1.137 2.082 1.842.954 1.041 1.819 2.138 2.083 3.44.26 1.293-.151 2.276-.9 3.018-1.15 1.141-3.007 1.757-4.58 2.097-3.522.76-7.05.643-10.553-.137-.896-.2-1.502-.68-1.843-1.306-.414-.76-.447-1.707-.21-2.568.238-.861.75-1.654 1.494-2.093.612-.363 1.379-.462 2.247-.172 1.746.58 3.478.965 5.323 1.011 1.225.028 2.45-.053 3.661-.244-.257-.342-.507-.692-.751-1.046-1.127-1.606-2.076-3.329-2.83-5.141-.183-.432-.351-.866-.513-1.3l-.069-.189c-1.225-1.011-2.201-2.291-2.852-3.74-1.784-3.9741-1.493-8.9063-.41-13.0327.868-3.3077 2.782-6.3663 5.311-8.4432.442-.7289.733-1.1703 1.09-1.5403 1.454-1.5128 3.484-2.5348 5.463-3.1557 4.422-1.3864 9.237-.3919 12.984 2.2491 3.461 2.4396 6.17 6.0953 7.634 10.163 1.386 3.8517 1.657 8.0769.364 11.9838zm-60.223-25.1559c5.258-.044 10.608 1.5091 14.875 4.6153 4.083 2.9744 7.286 7.3663 7.282 12.5953-.004 5.0934-2.723 10.0993-5.742 14.0423-3.388 4.425-7.813 6.558-13.379 6.608-2.894.026-5.807-.231-8.679-.583l-1.542-.194c-2.121-.273-4.266-.597-6.277-1.328-9.575-3.472-9.872-16.0105-6.326-24.0233 2.738-6.1887 9.669-12.2217 16.579-11.4982 1.063-.1479 2.135-.2262 3.209-.2344zm8.881 5.8974c-6.585-2.9579-14.585-2.0733-20.973 1.0824-2.529 2.7619-4.379 6.2418-5.128 9.4377-.799 3.4103-.681 7.0843.52 10.3904 1.467 4.035 5.079 5.035 8.976 5.654l1.511.238.636.095c3.828.571 8.014 1.016 11.694.302 4.101-.798 6.705-4.112 8.754-7.509l.096-.159c2.128-3.5608 3.91-7.8905 2.124-11.9692-1.518-3.4689-4.833-6.0477-8.21-7.5641zm38.864 1.0293c-1.098-.6175-2.314-.994-3.569-1.1045-1.255-.1106-2.519.0474-3.707.4635-1.05.3589-1.958.9432-2.838 1.5989l-.349.2655c-1.083.8315-2.094 1.251-2.905 2.3737l-.104.1502c-.409.6117-1.125.8571-1.779.7747-.76 2.097-1.073 4.3644-1.08 6.597l.001.2949.004.3022c.049 2.6392.509 5.8663 2.584 7.6351 1.892 1.614 4.759 2 7.319 2.226l1.971.163.525.04c2.696.187 5.652.123 7.912-1.474 1.969-1.39 2.898-3.7513 3.138-6.0828.569-5.5091-2.216-11.5055-7.123-14.2234zm-49.187.5092c3.625-1.8535 7.982-1.3883 11.053.934-.273.0513-.542.1209-.809.2546-.698.348-1.13 1.0495-1.295 1.7949-.099.3955-.042.8139.159 1.1684.202.3546.531.6182.922.7363.723.229 1.58.3352 2.252-.1044.341-.2202.606-.5399.759-.9157l.022-.055.029-.0421.011-.0183c.002-.0073-.011.0073-.031.0366l.058-.1428c.029-.0571.055-.1158.077-.1758.041-.033.075-.0697.112-.1081.557.859.996 1.8297 1.275 2.9084 1.784 6.9268-5.537 14.115-12.077 14.835-2.303.268-4.628-.253-6.596-1.478l.052-.068c.751.136 1.648-.201 1.921-1.04.696-2.1373-.018-4.6391-2.348-5.3387-1.498-.4487-3.033.0476-4.104 1.0732-.837-2.0422-1.085-4.2781-.716-6.4542.54-3.1575 2.443-6 5.404-7.3132 1.444-.641 2.685-.7747 3.87-.4871zm38.185 4.2728.112-.1739c1.119-1.7253 3.262-3.8407 5.482-3.2601.311.0824.617.2143.892.3846 1.219-.1648 2.498.1117 3.545.7564l-.027.0733c-.109.4136-.058.853.143 1.2307.212.4176.516.8132.926 1.0532.281.1648.612.249.936.2435.477-.0091.894-.2197 1.238-.5384.19-.1901.324-.4281.389-.6887.17.163.335.3444.491.5495 2.573 3.3846 2.218 8.826-.801 11.8425-.122.1227-.253.2326-.381.3443-.628.8646-1.433 1.5853-2.361 2.1143-.929.528-1.959.853-3.023.952-2.083.213-4.166-.39-5.814-1.682.134-.07.255-.164.356-.276.347-.3724.616-.811.789-1.2896l.057-.1465c.009-.0275.095-.2748.073-.2308l-.005.0091.029-.0714c.289-.7198.172-1.5421-.513-1.9945l-.075-.0476c-.239-.1301-.508-.1963-.78-.1923-.7-.8553-1.74-1.0513-2.716-.8022l-.035-.2766-.013-.1373c-.756-2.5092-.39-5.3608 1.086-7.7455zm-33.584-25.2564.251-.0403c1.899-.2747 3.19.0422 4.427 1.6667.588.7729.406 1.9414 0 2.7326-1.315 2.555-4.933 2.0256-7.369 2.533-2.379.4945-4.75 1.1703-6.978 2.1502-2.252 1.0012-4.419 2.184-6.479 3.5366-1.881 1.2253-3.586 3.0641-5.735 3.7747-.097.033-.212-.0549-.207-.1557.154-2.445 2.194-4.6886 3.775-6.4285 1.828-2.0129 4.049-3.7986 6.364-5.2198 2.397-1.478 4.965-2.6577 7.647-3.5128 1.409-.4465 2.847-.7935 4.304-1.0385zm28.932 3.3169c2.392-3.4982 8.337-2.8279 11.845-1.892 4.397 1.1722 9.163 3.5403 12.247 6.9707 2.762 3.0715-1.37 7.0623-4.476 4.4781l-.83-.6887-.531-.4359c-2.385-1.9469-4.746-3.7106-7.652-5.011-3.407-1.5201-6.859-2.2637-10.462-3.0751-.141-.0311-.223-.2234-.141-.3461z"/><path d="m246.755 143.462c3.134-7.342 9.971-12.738 17.842-14.712 5.782-1.443 11.848-1.398 17.742-.824 3.086.298 6.399.542 9.308 1.69 2.485.98 4.509 2.832 6.033 5.006 1.811 2.576 3.044 5.525 3.91 8.547.123.431.238.863.346 1.299-.377 2.28-1.176 4.221-3.287 5.655-2.061 1.4-4.519 1.973-6.969 2.176-.233-.11-.461-.229-.685-.355-3.821-2.189-6.507-7.357-11.328-6.658-4.302.625-7.134 6.041-9.692 9.215-8.211.958-16.416-1.511-23.097-6.209-.328-1.59-.37-3.225-.123-4.83m60.762-5.569c-.656-1.844-1.481-3.622-2.465-5.314-3.249-5.579-8.2-9.972-14.127-12.533-13.978-5.985-32.062-1.765-43.35 8.054-3.855 3.357-7.754 8.289-8.934 13.595-.36.077-.692.254-.958.511-8.153-5.138-16.553-10.079-23.124-17.198-4.771-5.174-8.092-11.297-10.125-18.024-.164-.553-1.058-.472-1.031.141l.024.429c-.086-.264-.487-.128-.518.128-1.094 8.172-2.462 16.837-1.202 25.053.753 4.901 2.98 8.489 5.954 12.365 3.189 4.153 6.797 8.016 10.488 11.721 2.342 2.352 4.787 5.064 7.655 6.79 3.336 2.003 7.118 3.525 10.678 5.071 3.616 1.59 7.299 3.024 11.038 4.299 7.486 2.534 15.222 4.285 23.094 5.053 6.302.611 13.505 1.278 19.546-1.094 4.628-1.817 8.366-5.102 11.329-9.055 3.227-4.306 5.777-9.21 7.187-14.381 1.465-5.371-.85-14.747-1.159-15.611"/></g></g></svg>