<svg width="460" height="429" viewBox="0 0 460 429" fill="none" xmlns="http://www.w3.org/2000/svg">
<path fill-rule="evenodd" clip-rule="evenodd" d="M341.315 229.539C337.942 216.456 334.841 210.909 328.85 206.361C323.246 202.108 315.064 198.535 303.128 195.925C290.696 193.751 290.345 187.288 287.227 176.901C286.317 173.779 281.812 172.947 279.867 175.198C279.599 174.91 279.313 174.639 279.011 174.387C279.275 172.898 277.108 168.629 277.18 167.204C277.936 152.336 273.074 144.868 260.936 142.094C258.297 141.489 240.37 141.134 237.797 141.845C226.546 144.956 215.471 154.834 217.165 166.733C213.634 171.35 210.178 174.167 204.729 175.654C192.605 177.194 180.48 178.564 168.352 179.737C144.61 183.46 122.352 196.03 107.138 214.359C105.735 216.052 105.328 218.348 106.568 220.152C105.597 224.31 100.136 234.39 104.433 237.24C97.3666 254.141 81.1102 286.812 81.0809 296.147C80.9527 335.356 85.1871 386.394 123.87 408.092C125.42 409.616 125.641 411.301 126.312 413.566C128.013 420.705 134.189 425.806 140.951 425.391C174.253 426.13 206.511 422.066 239.815 421.87C254.502 421.784 272.165 423.977 284.923 425.436C297.683 426.898 310.563 425.607 322.806 421.87C323.839 423.497 325.925 424.444 328.044 423.977C340.737 421.455 351 413.63 359.942 405.079C362.672 400.108 373.343 385.945 369.101 381.017C372.945 364.76 372.746 347.295 365.914 331.817C366.883 328.98 365.118 325.861 365.914 322.933C366.491 320.812 367.967 319.934 368.711 317.836C369.757 314.881 368.619 310.916 367.442 307.901C366.958 306.4 368.33 304.782 368.711 303.249C370.517 296.017 366.379 296.654 363.398 291.819C363.442 291.804 364.218 288.354 364.215 288.37C364.671 285.907 363.528 282.749 362.53 280.693C361.854 279.303 360.411 278.433 358.975 278.592C360.42 273.684 362.248 269.599 364.215 264.868C367.691 256.533 372.092 248.55 377.085 241.004C379.13 237.914 376.383 234.336 373.075 234.125C362.384 233.44 351.764 231.906 341.315 229.539V229.539Z" fill="#FDFBF5"/>
<path fill-rule="evenodd" clip-rule="evenodd" d="M310.061 292.582C305.779 290.901 301.166 289.972 296.53 289.613C299.027 289.175 301.53 288.752 304.052 288.536C305.814 288.386 307.446 288.4 308.768 289.736C309.651 290.626 310.065 291.772 310.646 292.825C310.453 292.739 310.258 292.657 310.061 292.582V292.582ZM356.038 276.873C349.023 277.23 341.999 278.899 335.653 281.921C333.058 283.159 330.704 284.948 330.016 287.889C329.668 289.391 329.752 290.944 329.939 292.461C330.078 293.611 330.113 295.078 331.111 295.857C331.281 295.988 331.462 296.089 331.653 296.162C329.377 297.2 327.187 298.415 325.102 299.796C323.29 300.992 321.429 302.835 320.594 304.913C320.529 304.69 320.459 304.469 320.386 304.248C318.961 300.038 316.766 296.587 313.312 294.269C313.924 293.994 314.345 293.344 314.147 292.446C313.327 288.695 309.864 285.435 305.951 285.668C301.669 285.919 297.069 287.479 293.195 289.45C291.79 289.421 290.385 289.437 288.981 289.499C288.741 289.509 288.754 289.833 288.981 289.86C290.111 290.003 291.241 290.162 292.371 290.347C295.056 290.778 297.734 291.324 300.353 292.001C303.495 292.814 306.745 293.629 309.682 295.051C315.378 297.811 318.904 305.027 318.179 311.305C318.06 312.335 317.66 315.446 316.234 315.126C315.027 314.855 314.547 312.335 314.124 311.402C312.994 308.924 310.959 307.305 308.517 306.21C305.651 304.922 302.582 304.051 299.611 303.038C297.928 302.461 296.245 301.882 294.558 301.311C292.831 300.719 291.191 299.9 289.353 300.316C288.243 300.567 288.114 301.891 288.737 302.65C289.686 303.807 291.094 304.148 292.461 304.624L297.862 306.505C300.644 307.472 303.558 308.289 306.268 309.474L306.184 309.668C305.964 309.606 305.704 309.825 305.746 310.096C306.153 312.602 306.719 315.498 306.091 318.005C305.596 319.996 303.851 322.197 301.583 321.613C301.768 321.435 301.892 321.204 301.937 320.951C301.981 320.698 301.944 320.438 301.831 320.208C300.933 318.289 289.171 310.708 288.122 313.523C288.087 313.624 288.195 313.697 288.281 313.683C289.175 313.496 290.671 315.021 291.387 315.505C292.42 316.203 293.47 316.882 294.492 317.598C295.607 318.382 296.699 319.199 297.765 320.049C298.6 320.716 299.232 321.408 300.19 321.745C299.933 321.867 299.705 322.042 299.521 322.259C299.336 322.475 299.199 322.727 299.118 322.999C298.686 324.481 297.849 325.739 296.398 326.393C294.878 327.074 293.164 326.646 291.561 326.813C289.38 327.032 287.475 328.071 285.886 329.552C282.547 332.672 280.871 338.17 276.201 339.644C273.411 340.523 270.316 339.968 267.49 339.571C264.338 339.124 261.265 338.772 258.089 339.237C255.047 339.683 252.171 340.736 249.393 342.02C246.79 343.225 243.911 344.587 241.6 346.382C241.125 344.915 240.646 343.465 240.281 341.966C239.431 338.429 238.95 334.813 238.845 331.177C238.741 327.714 238.935 324.234 239.232 320.785C239.38 319.062 239.613 317.347 239.759 315.624C239.798 315.192 239.875 314.727 239.933 314.263C244.058 311.827 248.391 309.963 252.759 308.042L252.794 308.027C252.927 307.965 253.062 307.906 253.197 307.849C253.194 307.84 253.189 307.832 253.182 307.825C253.68 307.52 254.028 307.113 254.237 306.655C260.534 302.479 265.796 296.778 269.719 290.128C271.364 287.34 272.946 284.448 275.098 282.007C277.389 279.4 280.109 277.853 283.475 277.047C287.409 276.104 291.466 275.538 295.497 275.217C297.699 275.043 300.16 274.772 302.56 274.783C304.23 274.794 305.867 274.937 307.369 275.353C309.592 275.963 310.893 277.655 312.29 279.366C313.637 280.997 314.94 282.664 316.199 284.364C317.378 285.985 318.494 287.661 319.461 289.419C320.041 290.472 320.578 291.556 321.03 292.673C321.19 293.069 321.398 293.518 321.495 293.928C321.592 294.342 321.415 294.78 321.878 294.78C319.962 294.807 319.983 297.869 321.886 297.756C329.338 297.324 318.664 282.769 317.103 280.741C314.895 277.868 312.614 274.12 309.078 272.785C309.027 272.766 308.976 272.748 308.924 272.732C309.953 271.756 310.767 270.587 311.543 269.399C312.345 268.175 313.299 266.774 313.563 265.322C313.73 264.399 312.58 263.871 312.036 264.681C311.241 265.86 310.858 267.355 310.266 268.651C309.662 269.968 308.928 271.21 308.347 272.538C306.95 272.107 305.442 271.911 303.906 271.846C305.843 269.221 309.155 264.157 309.554 263.507C311.387 260.481 313.137 257.405 314.801 254.283C316.603 250.915 318.149 247.408 319.875 244.001C320.853 242.071 321.84 240.124 322.928 238.25C323.303 237.607 323.704 236.965 324.162 236.38C324.25 236.265 324.364 236.168 324.468 236.058L324.781 235.88C325.408 235.521 325.627 234.684 326.069 234.155C326.774 233.3 327.602 233.199 328.662 233.186C330.92 233.162 333.19 233.252 335.444 233.314C339.761 233.434 344.076 233.624 348.387 233.884C353.204 234.17 358.019 234.545 362.82 235.007C367.069 235.411 371.318 236.074 375.571 236.391C369.812 250.076 363.428 263.512 356.199 276.479C356.128 276.603 356.074 276.735 356.038 276.873V276.873ZM324.092 312.126C323.164 312.551 322.261 313.082 321.422 313.686C321.557 312.717 321.602 311.737 321.558 310.759C322.25 311.501 323.136 311.928 324.092 312.126ZM363.734 288.587C363.7 288.59 363.668 288.601 363.64 288.62C363.613 288.639 363.591 288.665 363.576 288.695C362.29 291.346 362.829 294.307 364.926 296.386C366.025 297.47 368.42 298.694 368.342 300.474C368.276 301.913 366.71 303.122 366.039 304.311C365.417 305.417 365.186 306.633 365.684 307.833C366.323 309.369 368.107 309.981 368.717 311.49C369.492 313.406 368.234 315.717 367.353 317.386C366.532 318.93 365.472 320.476 364.766 322.107C360.05 324.551 355.829 328.298 352.199 332.104C348.226 336.265 344.816 341.161 338.506 341.038C338.225 341.031 337.947 341.1 337.701 341.237C337.455 341.374 337.251 341.575 337.109 341.818C335.352 341.897 333.593 341.939 331.834 341.943C328.748 341.961 325.661 341.924 322.576 341.831C322.358 341.084 322.517 340.069 322.506 339.439C322.468 337.406 322.448 335.379 322.364 333.346L322.294 331.646C323.404 333.655 325.57 334.569 328.039 334.43C332.008 334.197 336.003 333.547 339.933 332.963C342.003 332.657 344.07 332.309 346.133 331.937C347.827 331.635 350.219 331.712 351.402 330.353C351.68 330.036 351.697 329.455 351.259 329.243C350.087 328.666 349.347 328.987 348.06 329.236C343.467 330.118 338.853 330.888 334.223 331.545C332.488 331.789 330.752 332.029 329.014 332.219C327.497 332.382 325.787 332.602 324.565 331.461C322.1 329.153 323.481 325.287 325.041 322.955C325.054 322.937 325.062 322.916 325.065 322.894C325.068 322.872 325.066 322.85 325.06 322.829C326.53 322.483 327.997 322.082 329.459 321.798C332.274 321.262 335.102 320.794 337.94 320.393C343.768 319.562 349.635 319.012 355.492 318.459C356.942 318.318 356.959 316.036 355.492 316.172C347.076 316.941 338.618 317.672 330.314 319.294C328.232 319.697 326.166 320.153 324.111 320.668C323.14 320.908 322.1 321.283 321.081 321.296C321.019 321.296 320.957 321.296 320.897 321.291C318.904 321.23 318.613 319.523 319.708 318.102C319.843 317.928 319.983 317.754 320.125 317.587C322.061 315.28 324.472 313.739 326.955 312.144C329.737 311.765 332.512 310.921 335.235 310.302C341.961 308.769 348.686 307.236 355.415 305.708C356.734 305.406 356.173 303.377 354.854 303.675L339.53 307.148L332.056 308.844C330.561 309.179 328.697 309.857 326.94 310.102C326.074 310.221 325.234 310.236 324.475 310.058C322.027 309.477 321.902 306.415 322.959 304.596C324.142 302.553 326.38 301.276 328.364 300.118C331.803 298.109 335.464 296.664 339.039 295.001L340.944 294.582C344.635 293.769 348.853 293.371 352.327 291.88C353.367 291.439 352.799 289.798 351.77 289.822C349.072 289.88 346.252 290.84 343.616 291.408C340.765 292.027 337.909 292.642 335.058 293.258C334.772 293.32 333.078 293.862 332.821 293.743C332.658 293.664 332.602 293.1 332.547 292.728C332.373 291.505 332.245 290.221 332.435 288.992C332.853 286.241 335.147 284.948 337.468 283.891C342.638 281.542 348.307 280.071 353.948 279.483C355.247 279.348 356.551 279.26 357.856 279.219C359.393 279.172 360.658 278.902 361.435 280.415C362.658 282.8 363.332 285.866 363.734 288.587V288.587ZM356.554 375.041C355.428 371.144 355.734 366.983 354.962 363.007C354.549 360.955 354.037 358.924 353.428 356.921C352.948 355.303 352.149 353.582 352.06 351.895C352.054 351.781 352.186 351.717 352.277 351.769C353.867 352.679 355.087 354.648 355.994 356.192C357.06 358.033 357.926 359.984 358.574 362.01C359.908 366.065 361.001 370.955 359.283 375.041C358.772 376.258 356.975 376.501 356.554 375.041V375.041ZM321.744 323.421C322.695 323.327 323.647 323.146 324.6 322.933C323.536 323.97 322.552 325.221 322.006 326.607C321.924 325.543 321.811 324.482 321.669 323.424C321.693 323.424 321.721 323.424 321.744 323.421ZM312.596 404.543C310.917 403.371 309.693 401.734 308.27 400.287C306.871 398.866 309.06 396.675 310.459 398.098C311.673 399.331 312.728 400.871 314.158 401.869C314.845 402.349 315.164 403.216 314.713 403.988C314.314 404.668 313.281 405.021 312.596 404.543ZM303.235 359.507C306.299 358.181 309.312 356.737 312.519 355.783C314.435 355.212 315.246 358.201 313.342 358.769C310.389 359.648 307.618 360.959 304.798 362.181C302.986 362.963 301.411 360.294 303.235 359.507ZM270.875 358.578C270.125 356.73 273.122 355.932 273.86 357.756C274.71 359.855 275.684 361.9 276.534 363.999C277.283 365.847 274.288 366.646 273.549 364.822C272.699 362.723 271.724 360.679 270.875 358.578ZM238.935 395.514C238.437 396.181 237.603 396.542 236.818 396.071C236.158 395.675 235.757 394.626 236.263 393.952C237.737 391.985 239.232 390.042 240.962 388.287C242.364 386.866 244.552 389.056 243.151 390.477C241.607 392.043 240.254 393.758 238.935 395.514V395.514ZM234.369 188.27C235.788 189.241 237.034 190.421 238.248 191.635C239.658 193.045 237.47 195.236 236.058 193.824C235.036 192.802 234.005 191.763 232.807 190.944C232.114 190.472 231.803 189.593 232.25 188.825C232.651 188.14 233.679 187.8 234.369 188.27V188.27ZM280.836 238.104C280.032 239.712 279.31 241.291 279.265 243.118C279.215 245.111 276.12 245.113 276.169 243.118C276.228 240.725 277.111 238.65 278.164 236.54C279.054 234.754 281.723 236.325 280.836 238.104ZM297.886 198.082C299.55 196.972 301.098 199.655 299.448 200.756L295.437 203.432C293.772 204.54 292.224 201.857 293.875 200.758L297.886 198.082ZM223.937 268.056C223.651 270.025 220.669 269.183 220.951 267.234C221.386 264.221 221.917 261.248 222.734 258.314C223.268 256.395 226.254 257.215 225.719 259.139C224.902 262.073 224.371 265.045 223.937 268.056V268.056ZM213.083 303.529C211.091 303.487 211.091 300.389 213.083 300.433C214.886 300.47 216.658 300.946 218.398 301.38C220.332 301.864 219.508 304.849 217.574 304.366C216.105 303.998 214.607 303.562 213.083 303.529ZM209.076 374.987C208.393 375.32 207.69 375.618 206.997 375.935C202.727 377.892 198.46 379.856 194.197 381.827C188.431 384.498 182.622 387.073 176.842 389.714C170.948 392.406 165.071 395.135 159.199 397.879C156.433 399.17 153.647 400.415 150.865 401.673C148.488 402.748 145.549 404.628 142.937 404.805C142.803 404.814 142.757 404.644 142.834 404.558C143.821 403.435 145.395 402.783 146.691 402.052C148.014 401.307 149.364 400.607 150.706 399.895C153.505 398.411 156.309 396.941 159.135 395.509C164.787 392.648 170.451 389.805 176.116 386.968C181.895 384.075 187.664 381.161 193.494 378.369C197.724 376.342 201.96 374.325 206.201 372.318C206.843 372.014 207.481 371.684 208.138 371.411C209.014 371.051 209.677 371.124 210.58 370.9C212.049 370.538 212.686 372.408 211.558 373.223C210.627 373.893 210.138 374.468 209.076 374.987V374.987ZM188.411 406.739C188.092 405.966 188.759 405.027 189.492 404.835C190.371 404.602 191.076 405.137 191.397 405.915C192.235 407.982 193.461 409.87 195.01 411.476C196.4 412.906 194.212 415.096 192.821 413.666C190.871 411.659 189.47 409.316 188.411 406.739V406.739ZM173.21 357.032C171.798 355.62 173.986 353.432 175.397 354.844L179.408 358.857C180.82 360.269 178.629 362.457 177.219 361.045L173.208 357.032H173.21ZM132.049 350.49C129.166 351.336 125.801 352.115 123.834 354.574C123.739 354.695 123.578 354.542 123.635 354.421C126.153 349.201 133.373 347.369 138.371 345.54C141.906 344.247 145.532 343.173 149.191 342.214C148.825 338.04 149.834 333.565 150.184 329.411C150.56 324.976 150.862 320.529 151.019 316.08C151.179 311.542 151.219 306.972 151.069 302.432C150.92 297.91 150.334 293.441 150.076 288.933C150.052 288.498 150.658 288.477 150.79 288.836C152.309 293.02 152.957 297.653 153.451 302.065C153.961 306.609 154.129 311.14 154.065 315.71C153.997 320.41 153.724 325.098 153.351 329.781C153.171 332.001 152.966 334.219 152.77 336.437C152.624 338.131 152.554 339.811 152.208 341.45C154.415 340.908 156.625 340.397 158.831 339.899C165.86 338.311 172.918 336.838 179.918 335.122C183.354 334.281 186.741 333.272 190.162 332.377C193.382 331.532 196.781 330.51 200.089 330.133C201.268 329.999 201.418 331.615 200.638 332.162C197.95 334.051 194.38 335.364 191.276 336.421C188.16 337.481 184.92 338.245 181.728 339.031C175.069 340.668 168.345 342.009 161.633 343.404C154.929 344.798 148.213 346.181 141.587 347.9C138.395 348.728 135.213 349.56 132.05 350.49H132.049ZM116.243 267.644C114.521 268.657 112.964 265.979 114.682 264.97C116.929 263.651 119.323 262.659 121.737 261.692C123.591 260.95 124.387 263.946 122.561 264.679C120.391 265.547 118.263 266.459 116.243 267.644ZM110.003 382.692C108.276 383.695 106.719 381.018 108.442 380.02C110.86 378.615 113.512 377.679 116.019 376.452C117.803 375.576 119.371 378.248 117.581 379.126C115.072 380.353 112.424 381.289 110.003 382.692V382.692ZM107.197 317.386C108.867 318.974 111.098 319.721 113.201 320.554C115.032 321.281 114.23 324.274 112.376 323.542C109.757 322.501 107.089 321.553 105.008 319.574C103.561 318.199 105.754 316.012 107.197 317.386V317.386ZM125.68 228.694C127.517 229.415 126.713 232.408 124.858 231.681C122.801 230.873 120.675 230.258 118.618 229.45C116.781 228.73 117.585 225.736 119.442 226.465C121.499 227.272 123.624 227.886 125.68 228.694V228.694ZM158.288 193.466C160.241 193.137 161.072 196.12 159.113 196.452C156.68 196.862 154.287 197.344 151.981 198.236C150.118 198.957 149.32 195.961 151.157 195.25C153.464 194.357 155.858 193.877 158.288 193.466ZM169.063 279.237C167.274 278.358 168.843 275.688 170.625 276.564C172.503 277.487 174.448 278.201 176.497 278.637C178.448 279.053 177.616 282.038 175.673 281.624C173.369 281.133 171.175 280.276 169.063 279.237ZM179.241 230.924C181.168 230.395 181.983 233.384 180.063 233.91C176.688 234.835 173.212 235.316 169.81 236.139C167.873 236.609 167.052 233.622 168.986 233.153C172.389 232.329 175.864 231.849 179.241 230.924ZM222.409 215.761C224.369 216.124 223.534 219.109 221.587 218.748C219.514 218.364 217.413 218.358 215.31 218.357C213.316 218.357 213.32 215.259 215.31 215.261C217.699 215.261 220.056 215.327 222.409 215.761ZM363.201 231.941C358.143 231.457 353.077 231.07 348.005 230.78L347.299 230.739C347.274 230.686 347.239 230.635 347.204 230.582C345.549 228.15 344.329 225.719 343.272 222.972C342.263 220.355 341.283 217.657 339.728 215.296C337.953 212.606 335.56 210.499 332.933 208.675C331.35 209.756 329.87 210.979 328.512 212.331C327.089 213.728 324.9 211.54 326.323 210.14C327.521 208.961 328.804 207.872 330.162 206.882C328.598 205.93 327.001 205.036 325.442 204.148C319.605 200.814 313.626 197.733 307.523 194.915C304.688 193.602 301.816 192.437 298.926 191.258C297.369 190.622 295.834 189.805 294.279 189.071C294.391 187.97 294.061 186.739 293.219 186.016C292.596 185.485 292.113 185.289 291.369 184.913C291.202 184.855 291.102 184.82 291.056 184.8C291.091 184.809 291.191 184.838 291.356 184.893C291.752 185.076 291.783 185.021 291.45 184.734C291.431 184.107 290.197 182.783 289.915 182.137C288.931 179.919 288.625 177.573 287.175 175.552C286.247 174.235 284.925 173.245 283.4 172.725C281.874 172.206 280.223 172.183 278.684 172.661C278.36 169.313 278.276 165.818 277.014 162.829C276.979 162.748 276.867 162.714 276.816 162.802C275.501 165.043 275.389 167.54 275.288 170.126C275.185 172.57 275.29 175.019 275.602 177.446C275.4 177.601 275.193 177.749 274.983 177.891C273.986 178.543 272.909 179.061 271.777 179.432C269.627 180.144 267.371 180.454 265.114 180.562C259.292 180.84 253.29 180.252 247.563 179.254C241.772 178.243 232.891 176.726 227.737 173.825C224.336 171.915 221.199 169.58 218.017 167.32C219.169 163.604 219.464 159.609 218.303 156.47C218.164 156.095 217.576 156.023 217.464 156.47C216.737 159.465 216.523 162.477 215.556 165.439L215.51 165.569L214.605 164.963C213.908 164.501 212.961 164.846 212.541 165.503C205.86 176.036 195.277 176.64 184.164 178.521C172.003 180.582 159.779 182.803 148.087 186.833C136.904 190.688 126.217 196.302 117.75 204.686C115.836 206.591 114.032 208.605 112.349 210.717C113.986 210.924 115.609 211.245 117.212 211.748C119.109 212.346 118.292 215.335 116.387 214.736C114.331 214.087 112.248 213.767 110.144 213.607C104.393 221.481 99.9057 230.408 96.0284 239.194C88.587 256.04 83.7445 273.981 81.5174 292.247C82.7408 291.514 83.9862 290.814 85.2628 290.164C87.0357 289.263 88.5998 291.935 86.8251 292.838C84.855 293.842 82.9379 294.947 81.0815 296.148C80.27 304.146 79.958 312.186 80.1474 320.223C80.5998 339.377 83.1859 359.091 89.0302 377.366C91.8983 386.335 95.6987 395.23 101.36 402.809C103.92 406.241 106.831 409.338 110.259 411.921C111.915 413.179 113.678 414.289 115.528 415.237C117.917 416.461 121.027 416.864 123.087 418.595C123.765 419.164 124.285 419.913 124.68 420.761C124.451 422.371 124.424 423.987 124.865 425.596C124.937 425.844 125.063 426.072 125.234 426.264C125.405 426.457 125.617 426.608 125.854 426.708C125.86 426.847 125.86 426.983 125.86 427.113C125.86 427.175 125.953 427.192 125.964 427.129L126.023 426.765C126.175 426.816 126.335 426.841 126.495 426.84C132.373 426.862 138.257 426.717 144.142 426.518C143.688 425.124 143.195 423.741 142.721 422.346C142.08 420.452 145.069 419.646 145.706 421.523C146.259 423.153 146.84 424.77 147.354 426.406C153.66 426.172 159.964 425.89 166.255 425.683C179.64 425.236 193.021 425.089 206.409 424.807C227.199 424.366 248.14 423.463 268.964 424.346C269.684 422.818 270.49 421.324 271.254 419.816C272.155 418.036 274.825 419.604 273.928 421.379C273.395 422.426 272.845 423.461 272.323 424.507C276.539 424.727 280.754 425.016 284.957 425.411C292.131 426.084 299.235 427.28 306.402 428.023C313.688 428.781 320.814 428.648 328.043 427.443C329.343 427.227 330.109 426.441 330.426 425.465C330.438 425.46 330.447 425.452 330.453 425.441C330.825 425.009 331.173 424.648 331.532 424.335C331.962 424.056 332.426 423.82 332.972 423.611C333.991 423.236 335.049 422.974 336.125 422.829C337.31 422.651 338.51 422.635 339.693 422.488C340.691 422.36 341.668 422.17 342.642 421.939C344.38 421.53 346.078 420.965 347.715 420.25C349.158 419.62 350.461 418.714 351.691 417.726C354.239 415.866 356.444 413.488 358.371 411.018C359.498 409.576 360.545 408.074 361.508 406.518C363.18 403.814 364.603 401.009 366.043 398.179C366.567 397.34 367.043 396.481 367.479 395.606C364.666 394.776 361.825 394.1 358.843 394.052C356.849 394.02 356.851 390.922 358.843 390.955C362.263 391.01 365.499 391.809 368.713 392.761C368.869 392.346 369.019 391.926 369.158 391.501C369.541 390.615 369.86 389.706 370.122 388.785L370.587 387.531C370.935 386.082 371.283 384.631 371.635 383.179C372.336 380.857 372.889 378.499 373.296 376.111C373.635 374.54 373.898 372.955 374.076 371.353C374.618 367.472 375.06 363.596 375.091 359.672C375.044 357.253 374.889 354.838 374.625 352.433C374.513 350.801 374.327 349.175 374.069 347.56C373.735 345.159 373.408 342.783 372.854 340.413L371.613 335.606C370.58 332.267 369.359 328.989 367.955 325.789C367.878 325.589 367.486 325.148 367.252 325.142C367.072 325.139 366.825 325.302 366.906 325.52L366.929 325.58C366.849 325.399 366.772 325.212 366.69 325.031C366.62 324.86 366.349 324.52 366.14 324.523C366.129 324.523 366.116 324.523 366.102 324.527C366.159 324.484 366.212 324.435 366.257 324.38C367.646 322.736 368.547 320.571 369.541 318.668C370.365 317.095 371.144 315.439 371.367 313.662C371.565 312.102 371.298 310.565 370.32 309.303C369.204 307.868 367.107 307.194 368.272 305.118C369.596 302.758 371.543 300.71 369.603 298.027C368.616 296.661 367.054 295.91 365.893 294.721C364.558 293.347 363.922 291.509 363.959 289.631C364.039 289.679 364.147 289.655 364.186 289.538C365.309 286.148 364.495 282.424 363.347 279.122C362.721 277.331 361.393 276.838 359.849 276.75C366.536 263.686 372.792 250.411 378.367 236.833C378.554 236.388 378.735 235.943 378.917 235.498C379.188 234.831 378.614 233.946 377.953 233.798C373.133 232.741 368.111 232.404 363.201 231.941V231.941Z" fill="#171619"/>
<path fill-rule="evenodd" clip-rule="evenodd" d="M309.187 62.57C305.685 47.8008 298.029 34.0572 285.771 22.9491C248.884 -13.5326 181.146 6.26962 181.454 61.2458C180.13 67.6652 179.593 74.2678 180.031 80.8154C180.214 83.6103 181.423 87.5095 179.798 90.0242C176.135 94.7275 174.005 98.1945 175.253 104.453C176.295 109.916 180.011 113.788 185.027 115.845C188.035 116.709 190.89 118.59 192.005 121.458C198.701 133.722 203.661 143.923 214.218 152.282C216.943 154.434 244.881 167.341 254.088 167.341C281.038 167.341 315.005 157.574 315.569 127.458C315.667 120.845 314.507 114.152 313.778 107.59C312.007 92.6139 312.632 77.0956 309.187 62.57V62.57Z" fill="#FDFBF5"/>
<path fill-rule="evenodd" clip-rule="evenodd" d="M308.579 55.1858C308.588 55.0026 308.85 54.9605 308.9 55.1418C309.901 58.695 310.469 62.3177 311.253 65.9294C312.02 69.4044 312.707 72.8968 313.312 76.4037C314.431 83.0246 315.374 89.6638 316.251 96.3213L316.469 97.9843C317.993 109.697 320.509 121.898 318.308 133.678C316.431 143.732 310.134 151.834 302.02 157.774C294.339 163.396 285.024 167.006 275.775 169.058C265.848 171.261 254.083 171.918 246.006 164.636C242.773 161.721 247.18 155.935 250.687 158.567C258.923 164.744 269.401 162.924 278.696 160.464L278.976 160.391C287.134 158.217 295.345 154.922 301.821 149.365C308.98 143.219 312.52 134.691 312.929 125.338C313.16 120.083 312.669 114.834 312.141 109.609L312.083 109.028C311.476 103.054 310.839 97.0832 310.253 91.107C309.716 85.6565 309.255 80.173 309.011 74.7005L308.896 71.9385C308.66 66.3708 308.339 60.7243 308.579 55.184V55.1858ZM211.984 8.92938C225.424 1.95095 240.744 -0.549184 255.705 1.79385C270.044 4.0466 283.204 11.4477 293.041 22.0612C297.843 27.2444 302.105 33.2371 304.828 39.7865C306.182 43.0393 307.242 46.4331 307.806 49.9184C308.096 51.7096 308.381 53.5668 308.436 55.3836C308.486 57.0649 307.991 58.6437 308.05 60.3525C308.059 60.6199 307.65 60.6711 307.588 60.4147C307.121 58.51 305.998 57.0668 305.295 55.2572C304.758 53.9103 304.18 52.58 303.563 51.2682L303.041 50.14C301.526 46.8616 299.713 43.7206 297.92 40.5887C294.302 34.2652 289.688 28.5668 284.255 23.7133C274.733 15.2206 262.517 9.7389 249.768 8.75172C236.533 7.72608 223.112 10.8836 211.81 17.8726C200.509 24.8634 191.964 35.7298 187.528 48.2389C185.305 54.5412 184.036 61.1403 183.764 67.8177C183.619 71.2023 183.755 74.6162 183.993 77.9953L184.11 79.607C184.248 81.5393 184.343 83.4642 184.055 85.3488C186.092 84.7133 188.229 84.4514 190.374 84.7646C193.561 85.2316 195.464 86.5393 196.894 89.3873C196.911 89.4185 196.917 89.4544 196.912 89.4895C196.907 89.5247 196.891 89.5572 196.866 89.5823C196.841 89.6074 196.808 89.6238 196.773 89.6289C196.738 89.634 196.702 89.6276 196.671 89.6107C194.817 88.6858 191.817 89.1711 189.857 89.6565C187.813 90.162 185.975 91.0393 184.238 92.2261C181.03 94.4221 178.511 97.8213 177.894 101.722C177.297 105.492 178.845 109.309 181.442 112.008C182.779 113.4 184.378 114.603 186.167 115.352C188.339 116.263 190.489 116.233 192.411 117.737C193.599 118.666 193.312 120.254 192.506 121.285C196.559 125.732 200.154 130.596 204.209 135.061C206.094 137.12 207.942 139.212 209.751 141.338L210.423 142.142C212.222 144.312 215.081 146.605 215.903 149.336C216.414 151.034 214.596 153.254 212.759 152.481C209.94 151.294 207.927 148.204 206.024 145.834L205.9 145.682C203.916 143.228 202.114 140.634 200.508 137.918L199.975 137.023C197.042 132.091 194.136 126.975 192.266 121.556C192.143 121.684 192.013 121.799 191.874 121.896C189.182 123.812 185.266 122.34 182.577 121.096C180.014 119.903 177.735 118.174 175.896 116.026C171.949 111.395 170.13 105.398 171.449 99.3891C172.566 94.2994 176.092 89.347 180.716 86.7719C178.581 84.314 177.698 81.0008 177.108 77.7609C176.357 73.6254 176.209 69.3873 176.412 65.195C176.819 56.8433 178.967 48.6089 182.291 40.9605C188.233 27.2774 198.738 15.8286 211.984 8.93121V8.92938ZM183.775 100.248C186.588 99.7224 189.209 99.5942 191.923 100.785C194.867 102.078 196.936 104.211 198.863 106.711C201.053 109.554 195.438 112.66 194.022 108.885L193.982 108.77C193.603 107.651 192.923 106.572 192.063 105.578C191.806 105.973 191.458 106.321 191.055 106.521C190.563 106.763 189.813 106.594 189.694 105.968C189.564 105.27 189.709 104.428 190.11 103.838L190.165 103.757C188.215 102.186 185.867 101.037 183.775 100.669C183.566 100.631 183.568 100.288 183.775 100.248Z" fill="#171619"/>
<path fill-rule="evenodd" clip-rule="evenodd" d="M251.632 120.971C251.713 120.896 251.841 120.869 251.94 120.931C253.614 121.99 253.812 125.552 253.832 127.609C254.524 127.788 255.207 127.993 255.856 128.138C257.229 128.442 258.61 128.706 259.989 128.986L261.022 129.2C264.477 129.927 267.995 130.466 271.513 130.737C274.929 130.997 278.445 131.094 281.85 130.653C283.317 130.461 284.765 130.151 286.182 129.726C287.852 129.228 289.182 128.402 290.737 127.678C294.627 125.865 297.887 131.176 294.143 133.508C290.929 135.508 286.544 136.23 282.834 136.539C279.043 136.856 275.266 136.508 271.519 135.907C267.469 135.259 263.502 134.263 259.662 132.817C258.041 132.197 256.461 131.474 254.931 130.654L254.513 130.433L253.724 130.015C253.436 132.581 252.608 135.059 251.607 137.44L251.585 137.398C251.037 139.277 249.059 140.44 247.09 139.611C244.781 138.636 244.605 136.081 245.949 134.266L246.013 134.182C247.594 132.149 248.583 129.625 249.444 127.22C249.885 125.988 250.293 124.726 250.649 123.464C250.905 122.552 250.914 121.634 251.632 120.971V120.971ZM311.156 100.543C309.786 104.682 306.801 107.871 302.641 109.272C298.519 110.66 293.933 110.154 289.72 109.404C288.786 109.239 287.856 109.053 286.931 108.847C287.695 109.319 288.369 109.984 289.013 110.689C289.967 111.73 290.832 112.827 291.096 114.129C291.356 115.422 290.945 116.405 290.196 117.147C289.046 118.288 287.189 118.904 285.616 119.244C282.094 120.004 278.566 119.887 275.063 119.107C274.167 118.907 273.561 118.427 273.22 117.801C272.806 117.041 272.773 116.094 273.01 115.233C273.248 114.372 273.76 113.579 274.504 113.14C275.116 112.777 275.883 112.678 276.751 112.968C278.497 113.548 280.229 113.933 282.074 113.979C283.299 114.007 284.524 113.926 285.735 113.735C285.478 113.393 285.228 113.043 284.984 112.689C283.857 111.083 282.908 109.36 282.154 107.548C281.971 107.116 281.803 106.682 281.641 106.248L281.572 106.059C280.347 105.048 279.371 103.768 278.72 102.319C276.936 98.3449 277.227 93.4127 278.31 89.2863C279.178 85.9786 281.092 82.92 283.621 80.8431C284.063 80.1142 284.354 79.6728 284.711 79.3028C286.165 77.79 288.195 76.768 290.174 76.1471C294.596 74.7607 299.411 75.7552 303.158 78.3962C306.619 80.8358 309.328 84.4915 310.792 88.5592C312.178 92.4109 312.449 96.6361 311.156 100.543V100.543ZM250.933 75.3871C256.191 75.3431 261.541 76.8962 265.808 80.0024C269.891 82.9768 273.094 87.3687 273.09 92.5977C273.086 97.6911 270.367 102.697 267.348 106.64C263.96 111.065 259.535 113.198 253.969 113.248C251.075 113.274 248.162 113.017 245.29 112.665L243.748 112.471C241.627 112.198 239.482 111.874 237.471 111.143C227.896 107.671 227.599 95.1325 231.145 87.1197C233.883 80.931 240.814 74.898 247.724 75.6215C248.787 75.4736 249.859 75.3953 250.933 75.3871V75.3871ZM259.814 81.2845C253.229 78.3266 245.229 79.2112 238.841 82.3669C236.312 85.1288 234.462 88.6087 233.713 91.8046C232.914 95.2149 233.032 98.8889 234.233 102.195C235.7 106.23 239.312 107.23 243.209 107.849L244.72 108.087L245.356 108.182C249.184 108.753 253.37 109.198 257.05 108.484C261.151 107.686 263.755 104.372 265.804 100.975L265.9 100.816C268.028 97.2552 269.81 92.9255 268.024 88.8468C266.506 85.3779 263.191 82.7991 259.814 81.2827V81.2845ZM298.678 82.3138C297.58 81.6963 296.364 81.3198 295.109 81.2093C293.854 81.0987 292.59 81.2567 291.402 81.6728C290.352 82.0317 289.444 82.616 288.564 83.2717L288.215 83.5372C287.132 84.3687 286.121 84.7882 285.31 85.9109L285.206 86.0611C284.797 86.6728 284.081 86.9182 283.427 86.8358C282.667 88.9328 282.354 91.2002 282.347 93.4328L282.348 93.7277L282.352 94.0299C282.401 96.6691 282.861 99.8962 284.936 101.665C286.828 103.279 289.695 103.665 292.255 103.891L294.226 104.054L294.751 104.094C297.447 104.281 300.403 104.217 302.663 102.62C304.632 101.23 305.561 98.8687 305.801 96.5372C306.37 91.0281 303.585 85.0317 298.678 82.3138V82.3138ZM249.491 82.823C253.116 80.9695 257.473 81.4347 260.544 83.757C260.271 83.8083 260.002 83.8779 259.735 84.0116C259.037 84.3596 258.605 85.0611 258.44 85.8065C258.341 86.202 258.398 86.6204 258.599 86.9749C258.801 87.3295 259.13 87.5931 259.521 87.7112C260.244 87.9402 261.101 88.0464 261.773 87.6068C262.114 87.3866 262.379 87.0669 262.532 86.6911L262.554 86.6361L262.583 86.594L262.594 86.5757C262.596 86.5684 262.583 86.583 262.563 86.6123L262.621 86.4695C262.65 86.4124 262.676 86.3537 262.698 86.2937C262.739 86.2607 262.773 86.224 262.81 86.1856C263.367 87.0446 263.806 88.0153 264.085 89.094C265.869 96.0208 258.548 103.209 252.008 103.929C249.705 104.197 247.38 103.676 245.412 102.451L245.464 102.383C246.215 102.519 247.112 102.182 247.385 101.343C248.081 99.2057 247.367 96.7039 245.037 96.0043C243.539 95.5556 242.004 96.0519 240.933 97.0775C240.096 95.0353 239.848 92.7994 240.217 90.6233C240.757 87.4658 242.66 84.6233 245.621 83.3101C247.065 82.6691 248.306 82.5354 249.491 82.823V82.823ZM287.676 87.0958L287.788 86.9219C288.907 85.1966 291.05 83.0812 293.27 83.6618C293.581 83.7442 293.887 83.8761 294.162 84.0464C295.381 83.8816 296.66 84.1581 297.707 84.8028L297.68 84.8761C297.571 85.2897 297.622 85.7291 297.823 86.1068C298.035 86.5244 298.339 86.92 298.749 87.16C299.03 87.3248 299.361 87.409 299.685 87.4035C300.162 87.3944 300.579 87.1838 300.923 86.8651C301.113 86.675 301.247 86.437 301.312 86.1764C301.482 86.3394 301.647 86.5208 301.803 86.7259C304.376 90.1105 304.021 95.5519 301.002 98.5684C300.88 98.6911 300.749 98.801 300.621 98.9127C299.993 99.7773 299.188 100.498 298.26 101.027C297.331 101.555 296.301 101.88 295.237 101.979C293.154 102.192 291.071 101.589 289.423 100.297C289.557 100.227 289.678 100.133 289.779 100.021C290.126 99.6486 290.395 99.21 290.568 98.7314L290.625 98.5849C290.634 98.5574 290.72 98.3101 290.698 98.3541L290.693 98.3632L290.722 98.2918C291.011 97.572 290.894 96.7497 290.209 96.2973L290.134 96.2497C289.895 96.1196 289.626 96.0534 289.354 96.0574C288.654 95.2021 287.614 95.0061 286.638 95.2552L286.603 94.9786L286.59 94.8413C285.834 92.3321 286.2 89.4805 287.676 87.0958V87.0958ZM254.092 61.8394L254.343 61.7991C256.242 61.5244 257.533 61.8413 258.77 63.4658C259.358 64.2387 259.176 65.4072 258.77 66.1984C257.455 68.7534 253.837 68.224 251.401 68.7314C249.022 69.2259 246.651 69.9017 244.423 70.8816C242.171 71.8828 240.004 73.0656 237.944 74.4182C236.063 75.6435 234.358 77.4823 232.209 78.1929C232.112 78.2259 231.997 78.138 232.002 78.0372C232.156 75.5922 234.196 73.3486 235.777 71.6087C237.605 69.5958 239.826 67.8101 242.141 66.3889C244.538 64.9109 247.106 63.7312 249.788 62.8761C251.197 62.4296 252.635 62.0826 254.092 61.8376V61.8394ZM283.024 65.1563C285.416 61.6581 291.361 62.3284 294.869 63.2643C299.266 64.4365 304.032 66.8046 307.116 70.235C309.878 73.3065 305.746 77.2973 302.64 74.7131L301.81 74.0244L301.279 73.5885C298.894 71.6416 296.533 69.8779 293.627 68.5775C290.22 67.0574 286.768 66.3138 283.165 65.5024C283.024 65.4713 282.942 65.279 283.024 65.1563V65.1563Z" fill="#171619"/>
<path fill-rule="evenodd" clip-rule="evenodd" d="M246.755 143.462C249.889 136.12 256.726 130.724 264.597 128.75C270.379 127.307 276.445 127.352 282.339 127.926C285.425 128.224 288.738 128.468 291.647 129.616C294.132 130.596 296.156 132.448 297.68 134.622C299.491 137.198 300.724 140.147 301.59 143.169C301.713 143.6 301.828 144.032 301.936 144.468C301.559 146.748 300.76 148.689 298.649 150.123C296.588 151.523 294.13 152.096 291.68 152.299C291.447 152.189 291.219 152.07 290.995 151.944C287.174 149.755 284.488 144.587 279.667 145.286C275.365 145.911 272.533 151.327 269.975 154.501C261.764 155.459 253.559 152.99 246.878 148.292C246.55 146.702 246.508 145.067 246.755 143.462M307.517 137.893C306.861 136.049 306.036 134.271 305.052 132.579C301.803 127 296.852 122.607 290.925 120.046C276.947 114.061 258.863 118.281 247.575 128.1C243.72 131.457 239.821 136.389 238.641 141.695C238.281 141.772 237.949 141.949 237.683 142.206C229.53 137.068 221.13 132.127 214.559 125.008C209.788 119.834 206.467 113.711 204.434 106.984C204.27 106.431 203.376 106.512 203.403 107.125L203.427 107.554C203.341 107.29 202.94 107.426 202.909 107.682C201.815 115.854 200.447 124.519 201.707 132.735C202.46 137.636 204.687 141.224 207.661 145.1C210.85 149.253 214.458 153.116 218.149 156.821C220.491 159.173 222.936 161.885 225.804 163.611C229.14 165.614 232.922 167.136 236.482 168.682C240.098 170.272 243.781 171.706 247.52 172.981C255.006 175.515 262.742 177.266 270.614 178.034C276.916 178.645 284.119 179.312 290.16 176.94C294.788 175.123 298.526 171.838 301.489 167.885C304.716 163.579 307.266 158.675 308.676 153.504C310.141 148.133 307.826 138.757 307.517 137.893" fill="#171619"/>
</svg>
