<svg fill="none" height="426" viewBox="0 0 460 426" width="460" xmlns="http://www.w3.org/2000/svg"><g clip-rule="evenodd" fill-rule="evenodd"><path d="m344.256 241.251c-5.255-24.912-23.895-44.243-48.961-53.873-4.819-2.727-9.489-14.427-15.966-16.569-1.038-.344.6 2.389 0 2.552-2.142.583-4.541.644-6.905-1.459-4.226-3.758-5.552-14.739-8.122-19.7-13.55-26.172-47.385-15.932-51.917 13-3.16 2.061-7.628 3.877-11.069 5.539-3.543 1.71-6.659 5.852-10.31 7.332-3.258 1.321-8.625.386-11.906 1.538-15.097 5.299-27.886 11.984-37.909 25.531-2.113 2.857-4.493 6.37-6.416 9.256-9.91 11.414-16.792 24.208-23.132 37.934-17.7369 40.287-22.5613 84.894-26.8892 128.302.0985 7.596-4.9391 28.655 2.5107 32.297-.4444.463-.2831 1.389.543 1.382 18.8885-.192 37.7365 1.5 56.3335 4.789 8.973 1.587 17.898 3.763 27.037 4.119 18.974-.131 37.877-3.31 56.825-.301 22.779 0 50.462-.665 75.803-1.638 23.683-.912 47.493 1.145 70.883-2.884 1.852-.294 2.755-2.552 2.368-4.171-2.744-10.005-4.092-20.302-5.631-30.542.306-6.567-.242-13.425-2.67-19.543-6.346-41.298-14.483-82.327-24.5-122.891z" fill="#fdfbf5"/><path d="m336.613 295.533c-.492 2.446-1.205 4.841-2.131 7.157-.898 2.219-2.249 4.209-3.179 6.403-.122.28-.323.519-.577.688l.077.597.072.597c.464 4.025.985 8.042 1.439 12.068l.218 2.013c.891 8.406 2.294 16.769 3.386 25.154 1.068 8.209 2.154 16.418 3.315 24.615 1.201 8.451 2.425 16.891 3.851 25.308.603 3.557 1.232 7.11 1.887 10.658l.506 2.715c5.209 1.255 6.634 8.519 1.33 11.203-2.409 1.211-5.502.919-7.486-.986-2.063-1.984-2.147-5.566-2.626-8.254l-.462-2.499c-3.45-18.791-6.443-37.799-7.842-56.854-.36-4.922-.663-9.846-.86-14.775-.187-4.637-.097-9.272-.169-13.907l-.025-1.265c-.109-4.944-.018-9.88.111-14.823.014-.603.041-1.205.072-1.811-.17-.196-.29-.43-.351-.682l-.07-.311c-.171-.799.023-1.735.636-2.306.265-3.368.615-6.733.708-10.095.009-.278.405-.269.428 0 .224 2.862.67 5.734 1.117 8.602 2.874-2.311 4.998-6.121 6.25-9.312.092-.231.429-.147.375.102zm-67.991-133.882c.477 2.182 1.419 4.141 2.685 5.964.602.871 1.286 1.681 2.109 2.358.704.581 1.507.959 2.256 1.463.546-.077 1.103-.023 1.624.159s.991.486 1.371.886l-.12-1.174c-.04-.378.589-.454.661-.086 3.314 16.714 6.333 33.439 8.948 50.273l1.147 7.434 1.079 6.98c1.79 11.631 3.523 23.256 4.826 34.973 1.738 15.633 3.199 31.309 4.267 47.007 1.072 15.809 1.731 31.628 2.201 47.466.116 3.993.242 7.983.364 11.975l.808-4.773c.806-4.775 1.598-9.554 2.276-14.35 2.435-17.164 4.381-34.45 5.331-51.762.871-15.842.579-31.998-3.448-47.432-1.009-3.885-2.264-7.702-3.756-11.429-1.455-3.622-3.439-6.979-5.002-10.546-1.817-4.153-2.364-8.069-1.428-12.539.819-3.895 2.254-7.557 2.511-11.565.48-7.44-1.939-14.645-5.357-21.157-.905-1.72-1.854-3.417-2.844-5.089-3.002-5.072-6.387-9.958-9.902-14.645-.188-.249.214-.525.418-.321 3.203 3.167 6.704 6.28 9.586 9.74 1.406 1.678 2.761 3.398 4.063 5.158 14.206 2.375 26.412 11.228 34.756 22.919 9.47 13.266 14.26 29.234 17.803 44.959 3.943 17.474 7.265 35.109 10.806 52.671 3.665 18.173 7.31 36.344 10.999 54.511 1.831 9.02 3.664 18.041 5.492 27.064.929 4.569 1.902 9.129 2.92 13.679.523 2.334 1.084 4.664 1.568 7.005.545 2.64.038 4.328-1.749 6.27-.66.718-1.701.708-2.518.326l-.256-.122-.248-.118c-1.01-.499-1.804-1.015-2.433-2.121-.694-1.217-.803-2.565-1.042-3.918-.44-2.488-.874-4.977-1.313-7.469-.658-3.728-1.371-7.445-2.097-11.161l-3.643-18.571c-.972-4.952-1.945-9.903-2.923-14.852-3.495-17.698-6.993-35.394-10.491-53.088-3.361-16.99-6.332-34.097-10.156-50.99l-.217-.952-.221-.95c-3.419-14.561-8.197-28.647-16.865-40.988-6.67-9.489-15.936-17.963-26.848-22.252.769 1.107 1.507 2.237 2.212 3.387 4.423 7.229 7.652 15.809 6.894 24.416-.371 4.205-1.968 8.337-1.817 12.575.139 3.766 2.469 7.073 4.079 10.35 3.652 7.426 6.295 15.316 8 23.412 3.419 16.255 3.406 32.98 2.229 49.48-1.28 17.939-3.71 35.871-6.479 53.634-1.419 9.111-3.308 18.146-4.754 27.242-.715 4.485-1.69 8.959-2.541 13.422l-.405 2.131c-.223 1.182-.468 2.359-.737 3.531l-.168.697v.126c-.007.86-.242 1.571-.62 2.14-.52 1.663-1.163 3.285-2.018 4.841-.439.796-1.076 1.242-1.769 1.407-.697 1.593-2.276 2.821-4.161 2.814l-24.796-.095c-14.402-.057-28.805-.152-43.208-.231-3.634-.018-7.265-.088-10.896-.181-3.403-.095-6.667-.504-10.032-.929-3.803-.477-5.862-3.171-5.294-6.97.125-.837.261-1.671.39-2.504-.758.249-1.659.132-2.268-.463l-.572-.559c-.792-.785-1.5-1.554-2.002-2.601-.52-1.075-.941-2.212-1.398-3.31-.988-2.362-1.949-4.735-2.885-7.118-1.875-4.766-3.747-9.55-5.489-14.366-3.449-9.537-6.503-19.212-9.156-29.001-4.72-17.468-8.167-35.257-10.314-53.224l-.516-4.281-.149-1.265c-.819-6.96-1.507-14.029-1.182-20.976.2-4.349.874-8.731 2.5-12.793 1.498-3.746 3.811-6.95 6.012-10.3l.251-.386.253-.396c1.924-3.042 3.455-6.221 3.53-9.915.079-3.75-1.012-7.397-2.233-10.907l-.304-.866-.205-.571c-2.595-7.254-5.55-14.404-4.575-22.296 1.439-11.622 8.48-20.99 17.34-28.214-7.879 1.56-15.679 4.644-22.562 8.553-8.127 4.621-15.448 10.721-21.758 17.603-11.927 13.01-20.441 28.618-27.412 44.733-7.296 16.865-12.707 34.536-16.7836 52.44-4.1004 18.004-6.8459 36.297-8.7205 54.664-.922 9.143-1.6814 18.302-2.2777 27.472-.3119 4.696-.5466 9.401-.9104 14.091-.362 4.686-.5251 9.445-1.6685 14.006-.534 2.124-4.1344 2.341-4.5215 0-.8548-5.228-.6165-10.636-.3763-15.931l.0197-.48c.2365-5.273.543-10.543.905-15.812.7437-10.771 1.7348-21.525 3.0287-32.245 4.5412-37.633 12.9122-75.067 29.3331-109.418 7.731-16.18 17.654-31.901 31.459-43.584 6.57-5.547 13.986-10.006 21.966-13.206 7.141-2.875 14.396-4.235 21.984-4.232 3.804-2.916 7.89-5.458 11.971-7.63.246-.131.504.186.299.391-.105.102-.207.208-.313.308.46.029.937.246 1.365.695 1.5 1.572 2.766 3.539 3.896 5.58 1.723 2.153 3.366 4.377 5.086 6.505 2.759 3.408 5.565 6.776 8.42 10.103 4.788 5.603 9.733 11.099 14.889 16.376l.862.876c2.672 2.708 5.38 5.951 8.541 8.094l.168.113c1.334.87 2.28 1.027 3.418-.27 1.034-1.183 1.894-2.554 2.778-3.858l.206-.299c4.516-6.564 8.704-13.371 12.493-20.379 1.727-3.191 3.371-6.426 4.93-9.697l.466-.982c.847-1.803 1.769-3.572 2.467-5.429.164-.436.323-.871.477-1.303-2.385-1.565-4.231-4.951-4.901-7.604-.697-2.753-.344-5.579.896-8.098.235-.475 1.023-.356 1.136.147zm-117.67 111.915c-.33 10.471-.529 20.953-1.022 31.417l-.17 3.57c.767.857 1.219 1.846.86 3.203-.073.265-.208.509-.394.711s-.418.356-.676.451l-.161 3.321c-.729 14.943-1.586 29.854-3.151 44.759-1.957 18.654-4.222 37.277-6.482 55.896-.322 2.636-2.154 4.726-5.005 4.341-2.885-.391-4.054-2.902-3.676-5.521 1.488-10.268 2.92-20.546 4.172-30.85l1.427-11.738c1.792-14.676 3.622-29.347 5.735-43.975.88-6.114 1.797-12.226 2.717-18.336l-.323-.416c-1.314-1.708-2.672-3.378-4.016-5.061-2.583-3.243-5.131-6.458-7.497-9.853-.118-.17.121-.421.291-.292 3.315 2.452 6.457 5.072 9.614 7.736l2.764 2.341c1.589-10.558 3.165-21.12 4.57-31.704.034-.265.43-.283.423 0zm47.709-100.205c-1.994 1.882-4.035 3.723-6.046 5.596l-.737.688-.733.692c-3.534 3.353-6.919 6.843-9.74 10.851-5.179 7.361-8.265 16.334-6.111 25.321 1.787 7.444 5.887 14.19 6.989 21.819.552 3.823.283 7.664-1.156 11.274-1.469 3.683-3.817 6.838-5.924 10.161-4.581 7.219-5.206 15.144-4.751 23.509.476 8.736 1.48 17.474 2.718 26.131 2.509 17.547 6.281 34.89 11.285 51.895 2.504 8.512 5.461 16.843 8.402 25.206 1.466 4.164 3.174 8.229 4.933 12.274.93 2.128 1.878 4.248 2.845 6.36-.357-2.985-.357-6.05-.531-9.016-.251-4.25-.568-8.492-.86-12.739-.593-8.619-1.124-17.244-1.597-25.869-1.677-30.761-2.912-61.549-2.821-92.358.045-15.406.36-30.813 1.022-46.204.312-7.248.912-14.49 1.457-21.727l.114-1.553c.483-6.495 1.058-13.007 2.045-19.447-.294-.652-.54-1.326-.735-2.015l-.068-.258.051.008c-.045-.197-.062-.398-.051-.599zm17.258-26.472c.042-.179.294-.163.341 0 1.124 3.787.726 7.955-.242 11.765-.533 2.064-1.257 4.073-2.163 6.001l-.314.676c-.768 1.645-1.634 3.341-3.131 4.366-.625.429-1.741.456-2.367 0l-.319-.242-.154-.125c-.582-.49-.871-1.568-.602-2.28.693-1.837 2.265-3.187 3.351-4.823.967-1.455 1.81-2.988 2.522-4.584 1.525-3.45 2.211-7.113 3.078-10.754z" fill="#000"/><path d="m243.638 3.4541c16.952 0 37.289 8.2217 39.018 8.3884h.047c.91 0 4.466 2.71 10.665 8.1302l-6.715 13.1059.543.5198c2.602 2.4932 4.82 4.7677 6.573 6.5601 14.308 14.6348 16.88 72.0985 13.509 92.1375-3.373 20.039-9.618 39.648-38.695 39.648s-61.427-17.492-66.409-22.941c-3.322-3.632-7.054-5.37-11.195-5.22l-.507-.641-.61-.086c-5.729-.832-9.837-1.949-12.319-3.354-4.847-2.744-10.175-17.169-10.175-20.347 0-3.146-7.956-26.0308-8.115-28.4541l-.002-.0663c0-2.0254-10.394-11.3315-10.394-14.2853 0-2.9574-2.095-2.7782 0-13.1919l.609-3.0614c2.23-11.0877 6.593-29.4489 23.23-37.4286 18.283-8.7683 53.82-19.41151 70.942-19.41151z" fill="#fdfbf5"/><g fill="#000"><path d="m169.875 22.453c9.118-9.6825 60.883-24.65962 87.072-21.485304l.786.102164c2.09.26527 4.149.66677 6.183 1.21166 6.57 1.53607 13.357 3.86079 18.785 7.74308 4.534 3.1779 18.832 8.3651 14.617 16.6763 1.562 2.9629 2.145 6.6211 1.089 9.5391-.132 1.0073-.443 1.9358-.84 2.8983 3.338 4.9291 5.982 10.5034 8.121 15.8034 3.739 13.3425 6.065 27.2281 6.405 40.8413 1.135 25.862-1.7 56.756-24.213 73.481-13.6 10.596-34.905 10.953-50.188-2.187-.867-1.027-4.946-3.798-3.584-4.284.405.427.821.844 1.245 1.253-.018-.044-.024-.093-.016-.14l-.398-.362c-.751-.695-1.724-1.703-.616-1.506.048.058.102.106.154.164.235.139.412.263.55.371l.072.055-.022-.021c-.638-.681-1.021-1.377-.066-.932l.126.061c.424.446.856.874 1.295 1.292-.007-.053.002-.106.027-.153l-.41-.396c-.4-.39-.339-.392-.144-.709-.849-1.192.737-.484.848-.02.993-.235 1.864 1.629 2.504 1.857 28.016 21.551 68.675 2.428 68.016-57.624l-.009-1.175c-.194-19.2022-1.808-38.9381-9.746-56.3206-.772-1.6726-1.635-3.3013-2.586-4.8789-.654-1.1812-1.358-2.3341-2.109-3.4557-2.115-.1723-4.207-.5597-6.244-1.1561-.704-.1775-1.401-.3746-2.097-.6058-10.177.5556-20.127 1.1596-30.333 1.7332l-3.188.1972c-8.645.5556-17.586 1.4482-24.563 6.7985-6.846 4.8699-6.876 14.4753-12.736 19.8237-8.355 5.6729-8.416 10.7902-10.026 19.1535.119 6.302 4.488 15.461-3.528 18.114 1.351 1.93-.534 1.004-.681.326-.016.004-.031.007-.043.007 1.206 2.242-.567.83-.722.111-.11-.038-.208-.104-.285-.19 1.215 1.965-.748.588-.631.232-2.348-3.609-7.176-4.17-10.579-3.212-.043.129-.194.139-.287.071-14.475 3.139-10.74 33.116 4.092 30.218.634-.129.62.176.745.204-.342-.899.624-.532.613-.344l.059-.003c.047-.004.027-.009.063.003-.332-1.841 1.532.827 1.385.936.055-.032.116-.053.179-.061l-.064-.174c-.31-.824-.283-.482-.281-.955-.233-.583-.25-.328-.196-.708.817-.633 1.059 1.288 1.332 1.428-.468-.652-.097-1.183.344-.83 3.34 7.03 7.656 13.635 13.233 18.84.609.48 1.227.954 1.865 1.402 2.373 2.066 6.011 3.396 8.232 5.226-.004.038-.016.074-.036.106l.05.047.052.048.772.371c.226.194.43.411.613.649.194.222.362.47.507.731.072.318-.087.45-.39.314-.133-.045-.266-.099-.398-.147l.02.025c.043.066.336.749-.002.638l-.04-.016c-.186-.068-.371-.143-.553-.215.216.269.412.559.587.807.18.186.3.422.344.677-.007.143-.087.204-.231.186-.218-.072-.434-.148-.65-.227l.061.116c.152.301.369.805-.016.637-.327-.103-.649-.219-.966-.348-.027.054-.079.072-.185.023-1.009-.358-1.987-.8-2.923-1.319-.823-.599-1.65-1.185-2.477-1.78-.776-.466-1.525-.986-2.24-1.568-4.729-3.062-8.893-6.92-12.306-11.403-5.561 4.819-16.681.215-23.559-3.556-6.085-3.372-8.475-9.606-9.094-16.327-1.285-9.048-8.675-12.145-8.161-31.9997-.012.0036-.023.0036-.039.0036-.27-.0795-.53-.1877-.776-.3226-.254-.1204-.495-.2676-.717-.4391l-.274-.3836c-.131-.0699-.256-.1521-.371-.2456l-.052.0664c-.162.1953-.054-.0986-.043-.1578l-.481-.6524c-1.138-1.5558-2.387-3.2998-3.405-4.696l-.032.0573c-.023.043-.036.0717-.023.086-2.421-3.4808-4.699-7.6839-5.332-11.7544-.747-3.1349-.455-6.3648.197-9.2684 2.794-10.17 11.947-33.1824 23.961-43.0459zm65.708 140.639-.153-.134.135.167c.072.094.16.176.258.243-.008-.027-.01-.056-.005-.084-.081-.062-.159-.125-.235-.192zm21.249-157.01242c-17.76-1.52891-35.23 2.38386-52.176 7.12472l-1.17.3352c-9.636 2.7513-19.826 5.2266-27.97 11.1163-11.378 8.7182-17.252 22.5895-22.38 35.396-4.476 9.5158-2.188 20.245 4.558 26.8894.702-6.6032 1.899-13.0127 3.77-19.3703.389-.993.095-1.3174.936-1.4483 1.272 17.1352-4.988 29.793 7.398 50.0994 5.373 9.58-.848 16.59 14.328 21.632l.41.158c3.161 1.193 6.613 2.134 9.71 1.468l-.278-.452c-.281-.464-.367-.69.043-.889-.011-.023-.025-.045-.041-.072-.334-.63-.655-1.266-.963-1.909-.123.041-.249.072-.378.106.085.154.095.31-.139.364-.825.283-1.698.401-2.569.346l-.188-.013c-.739-.043-1.47-.181-2.174-.41-.184-.031-.371-.059-.552-.099-1.797-.398-3.698-1.412-4.928-2.416-14.032-7.974-12.581-35.1163 4.713-37.6812.353-17.0904 8.479-45.9209 21.961-62.2047 12.186-14.979 45.457-21.4728 68.604-19.1821.337.1111.676.2241 1.012.3388 3.572.3172 6.975 1.9089 10.549 2.6473-2.566-1.9232-5.477-3.2048-8.475-4.2945-5.975-3.6565-12.823-5.6335-19.439-7.02797-1.366-.33753-2.765-.52326-4.172-.55385zm-70.832 104.00342c.93-.506.825-.017 1.038-.158 6.688-.547 13.9 5.313 17.638 10.197-.294.306-1.093-.602-1.233-.746-.018.018-.04.032-.065.041l.104.147c1.517 2.176-1.489-.385-1.77-.912-.046.029-.101.039-.154.03.238.233.964.843 1.089 1.277l.194.161c1.817 1.558 1.666 2.73-.398.516.048.104.068.197.034.274l.072.047c1.014.71 1.849 2.689-.273.658.221 1.482-2.102-1.384-2.177-1.364-4.02-3.158-9.939-6.229-14.982-6.641l-.172-.02c-.927-.12-1.362-.394-1.04-1-1.139-.27-.872-.831-.333-.814-.803-.528-.079-1.034.387-.837-.321-.889.966-.297 1.083-.421.668-1.029.847-.17.958-.435zm-14.019-55.0624c3.211-1.1758 12.7 2.348 11.94 7.0154-.451 1.0718-1.94 1.6848-2.987 1.0808l-1.367-.9177c-2.377-1.5934-4.522-2.9897-7.076-4.3806-1.389-.6901-1.987-2.1544-.51-2.7961zm18.276-6.9365-1.241-.8066c-6.695-4.3842-16.159-11.0285.626-4.1547 1.914.8209 4.455 1.3066 5.5 3.1295 1.64 3.3589-2.676 3.5847-4.885 1.8318zm.752-19.6714c-.537-2.0398 6.149.3549 8.095.9858l.296.1111c1.892.7062 4.063 1.3622 5.195 2.9951 1.326 2.2584-1.358 2.7262-3.021 1.7063-3.411-2.2297-7.149-3.9109-10.565-5.7983zm17-9.5015c-3.761-4.1117 6.309-.1738 7.817.9195l.043.0323c1.126.7922.898 2.5004-.159 3.0022-3.009.0574-5.224-2.4519-7.701-3.954zm17.124-4.506c-5.982-4.3017 1.898-2.2548 4.636-.57 1.866 1.6472-.057 4.4254-4.636.57z"/><path d="m258.915 126.037c2.116-3.486 6.632 5.053 7.111 6.521.424 1.301.706 2.633.847 3.981 1.656.361 3.369.377 5.031.046 2.5-.48 4.029-1.824 6.202-2.979 1.5-.799 3.393.136 4.174 1.461.918 1.558.334 3.174-.874 4.336-2.291 2.203-6.798 2.708-9.787 2.124-1.669-.317-3.257-.968-4.669-1.913-.008.176-.016.35-.028.524l-.027.301c-.229 2.443-.901 5.515-2.798 7.105-3.109 2.606-6.948-2.407-3.926-5.012l.095-.079c1.878-1.518 2.287-5.592 2.186-7.836-.066-1.477-.334-2.938-.795-4.343l-.095-.278c-.138-.394-1.656-4.133-2.205-3.656l-.025.027c-.226.27-.591-.045-.417-.33zm16.91-19.671c2.858 1.74 7.215 5.794 4.14 10.105-3.62 3.8-8.834-.557-11.402-2.529-2.381-1.527-5.057 2.402-2.847 4.185 18.561 13.75 26.093-11.306 11.555-13.805-1.6-.276-2.195 1.506-1.446 2.044zm-30.53-16.0709c2.795-.4965 5.657.1972 7.969 1.8336l.176.1255c2.227 1.631 4.718 4.4935 3.441 7.3022-.513 1.1296-2.049 1.3046-3.024.7936-1.623-.851-1.917-2.9463-3.365-4.106-1.188-.9499-2.789-1.5271-4.318-1.3873-3.593.3262-5.804 3.8716-6.919 6.9273-.143.391-.717.543-.941.124-2.632-4.9219 2.027-10.7346 6.981-11.6147zm44.756-1.8587c5.353-.4409 11.618 5.1119 10.208 10.7633-.676 2.7133-4.697 2.6343-5.411 0-.394-1.4501-.355-2.7316-1.398-3.9361-.86-.993-2.084-1.5719-3.399-1.4823-1.448.0968-2.785.8227-3.801 1.8408-.918.9195-1.466 2.2655-2.418 3.0793-.233.2007-.546.2133-.778 0-1.634-1.5074-.654-4.6495.384-6.225 1.484-2.253 3.901-3.8159 6.613-4.04zm-54.948-8.1679c3.434-3.0417 9.672-5.9776 14.303-4.4809 2.661.8603 3.822 5.1513.851 6.5117-3.443 1.5755-7.41.9338-10.912 2.5667-1.472.6865-2.855 1.5432-3.878 2.8015-.807.9912-1.628 2.2942-2.796 2.866-.307.1506-.721.1541-.968-.1255-2.557-2.8947 1.167-8.1607 3.4-10.1395zm49.046-4.6315c2.122-.5969 4.477-.5843 6.633-.2097s4.342 1.2672 6.102 2.5703l.204.1523c1.922 1.4483 4.214 3.5561 4.09 6.121-.102 2.1419-2.355 3.5919-4.299 2.4681-1.584-.9141-2.33-2.7495-3.672-3.9701-1.116-1.0064-2.402-1.8058-3.798-2.3606-1.508-.6043-3.115-.9216-4.74-.9356-1.274-.0215-2.555.3979-3.806.5305.104.2115-.886.113-1.452-.0734-.419-.1793-.421-.7098-.276-1.054.722-1.7063 3.346-2.771 5.014-3.2388z"/></g></g></svg>