<svg width="460" height="426" viewBox="0 0 460 426" fill="none" xmlns="http://www.w3.org/2000/svg">
<path fill-rule="evenodd" clip-rule="evenodd" d="M344.256 241.251C339.001 216.339 320.361 197.008 295.295 187.378C290.476 184.651 285.806 172.951 279.329 170.809C278.291 170.465 279.929 173.198 279.329 173.361C277.187 173.944 274.788 174.005 272.424 171.902C268.198 168.144 266.872 157.163 264.302 152.202C250.752 126.03 216.917 136.27 212.385 165.202C209.225 167.263 204.757 169.079 201.316 170.741C197.773 172.451 194.657 176.593 191.006 178.073C187.748 179.394 182.381 178.459 179.1 179.611C164.003 184.91 151.214 191.595 141.191 205.142C139.078 207.999 136.698 211.512 134.775 214.398C124.865 225.812 117.983 238.606 111.643 252.332C93.9061 292.619 89.0817 337.226 84.7538 380.634C84.8523 388.23 79.8147 409.289 87.2645 412.931C86.8201 413.394 86.9814 414.32 87.8075 414.313C106.696 414.121 125.544 415.813 144.141 419.102C153.114 420.689 162.039 422.865 171.178 423.221C190.152 423.09 209.055 419.911 228.003 422.92C250.782 422.92 278.465 422.255 303.806 421.282C327.489 420.37 351.299 422.427 374.689 418.398C376.541 418.104 377.444 415.846 377.057 414.227C374.313 404.222 372.965 393.925 371.426 383.685C371.732 377.118 371.184 370.26 368.756 364.142C362.41 322.844 354.273 281.815 344.256 241.251V241.251Z" fill="#FDFBF5"/>
<path fill-rule="evenodd" clip-rule="evenodd" d="M336.613 295.533C336.121 297.979 335.408 300.374 334.482 302.69C333.584 304.909 332.233 306.899 331.303 309.093C331.181 309.373 330.98 309.612 330.726 309.781L330.803 310.378L330.875 310.975C331.339 315 331.86 319.017 332.314 323.043L332.532 325.056C333.423 333.462 334.826 341.825 335.918 350.21C336.986 358.419 338.072 366.628 339.233 374.825C340.434 383.276 341.658 391.716 343.084 400.133C343.687 403.69 344.316 407.243 344.971 410.791L345.477 413.506C350.686 414.761 352.111 422.025 346.807 424.709C344.398 425.92 341.305 425.628 339.321 423.723C337.258 421.739 337.174 418.157 336.695 415.469L336.233 412.97C332.783 394.179 329.79 375.171 328.391 356.116C328.031 351.194 327.728 346.27 327.531 341.341C327.344 336.704 327.434 332.069 327.362 327.434L327.337 326.169C327.228 321.225 327.319 316.289 327.448 311.346C327.462 310.743 327.489 310.141 327.52 309.535C327.35 309.339 327.23 309.105 327.169 308.853L327.099 308.542C326.928 307.743 327.122 306.807 327.735 306.236C328 302.868 328.35 299.503 328.443 296.141C328.452 295.863 328.848 295.872 328.871 296.141C329.095 299.003 329.541 301.875 329.988 304.743C332.862 302.432 334.986 298.622 336.238 295.431C336.33 295.2 336.667 295.284 336.613 295.533V295.533ZM268.622 161.651C269.099 163.833 270.041 165.792 271.307 167.615C271.909 168.486 272.593 169.296 273.416 169.973C274.12 170.554 274.923 170.932 275.672 171.436C276.218 171.359 276.775 171.413 277.296 171.595C277.817 171.777 278.287 172.081 278.667 172.481L278.547 171.307C278.507 170.929 279.136 170.853 279.208 171.221C282.522 187.935 285.541 204.66 288.156 221.494L289.303 228.928L290.382 235.908C292.172 247.539 293.905 259.164 295.208 270.881C296.946 286.514 298.407 302.19 299.475 317.888C300.547 333.697 301.206 349.516 301.676 365.354C301.792 369.347 301.918 373.337 302.04 377.329L302.848 372.556C303.654 367.781 304.446 363.002 305.124 358.206C307.559 341.042 309.505 323.756 310.455 306.444C311.326 290.602 311.034 274.446 307.007 259.012C305.998 255.127 304.743 251.31 303.251 247.583C301.796 243.961 299.812 240.604 298.249 237.037C296.432 232.884 295.885 228.968 296.821 224.498C297.64 220.603 299.075 216.941 299.332 212.933C299.812 205.493 297.393 198.288 293.975 191.776C293.07 190.056 292.121 188.359 291.131 186.687C288.129 181.615 284.744 176.729 281.229 172.042C281.041 171.793 281.443 171.517 281.647 171.721C284.85 174.888 288.351 178.001 291.233 181.461C292.639 183.139 293.994 184.859 295.296 186.619C309.502 188.994 321.708 197.847 330.052 209.538C339.522 222.804 344.312 238.772 347.855 254.497C351.798 271.971 355.12 289.606 358.661 307.168C362.326 325.341 365.971 343.512 369.66 361.679C371.491 370.699 373.324 379.72 375.152 388.743C376.081 393.312 377.054 397.872 378.072 402.422C378.595 404.756 379.156 407.086 379.64 409.427C380.185 412.067 379.678 413.755 377.891 415.697C377.231 416.415 376.19 416.405 375.373 416.023L375.117 415.901L374.869 415.783C373.859 415.284 373.065 414.768 372.436 413.662C371.742 412.445 371.633 411.097 371.394 409.744C370.954 407.256 370.52 404.767 370.081 402.275C369.423 398.547 368.71 394.83 367.984 391.114L364.341 372.543C363.369 367.591 362.396 362.64 361.418 357.691C357.923 339.993 354.425 322.297 350.927 304.603C347.566 287.613 344.595 270.506 340.771 253.613L340.554 252.661L340.333 251.711C336.914 237.15 332.136 223.064 323.468 210.723C316.798 201.234 307.532 192.76 296.62 188.471C297.389 189.578 298.127 190.708 298.832 191.858C303.255 199.087 306.484 207.667 305.726 216.274C305.355 220.479 303.758 224.611 303.909 228.849C304.048 232.615 306.378 235.922 307.988 239.199C311.64 246.625 314.283 254.515 315.988 262.611C319.407 278.866 319.394 295.591 318.217 312.091C316.937 330.03 314.507 347.962 311.738 365.725C310.319 374.836 308.43 383.871 306.984 392.967C306.269 397.452 305.294 401.926 304.443 406.389L304.038 408.52C303.815 409.702 303.57 410.879 303.301 412.051L303.133 412.748V412.874C303.126 413.734 302.891 414.445 302.513 415.014C301.993 416.677 301.35 418.299 300.495 419.855C300.056 420.651 299.419 421.097 298.726 421.262C298.029 422.855 296.45 424.083 294.565 424.076L269.769 423.981C255.367 423.924 240.964 423.829 226.561 423.75C222.927 423.732 219.296 423.662 215.665 423.569C212.262 423.474 208.998 423.065 205.633 422.64C201.83 422.163 199.771 419.469 200.339 415.67C200.464 414.833 200.6 413.999 200.729 413.166C199.971 413.415 199.07 413.298 198.461 412.703L197.889 412.144C197.097 411.359 196.389 410.59 195.887 409.543C195.367 408.468 194.946 407.331 194.489 406.233C193.501 403.871 192.54 401.498 191.604 399.115C189.729 394.349 187.857 389.565 186.115 384.749C182.666 375.212 179.612 365.537 176.959 355.748C172.239 338.28 168.792 320.491 166.645 302.524L166.129 298.243L165.98 296.978C165.161 290.018 164.473 282.949 164.798 276.002C164.998 271.653 165.672 267.271 167.298 263.209C168.796 259.463 171.109 256.259 173.31 252.909L173.561 252.523L173.814 252.127C175.738 249.085 177.269 245.906 177.344 242.212C177.423 238.462 176.332 234.815 175.111 231.305L174.807 230.439L174.602 229.868C172.007 222.614 169.052 215.464 170.027 207.572C171.466 195.95 178.507 186.582 187.367 179.358C179.488 180.918 171.688 184.002 164.805 187.911C156.678 192.532 149.357 198.632 143.047 205.514C131.12 218.524 122.606 234.132 115.635 250.247C108.339 267.112 102.928 284.783 98.8514 302.687C94.751 320.691 92.0055 338.984 90.1309 357.351C89.2089 366.494 88.4495 375.653 87.8532 384.823C87.5413 389.519 87.3066 394.224 86.9428 398.914C86.5808 403.6 86.4177 408.359 85.2743 412.92C84.7403 415.044 81.1399 415.261 80.7528 412.92C79.898 407.692 80.1363 402.284 80.3765 396.989L80.3962 396.509C80.6327 391.236 80.9392 385.966 81.3012 380.697C82.0449 369.926 83.036 359.172 84.3299 348.452C88.8711 310.819 97.2421 273.385 113.663 239.034C121.394 222.854 131.317 207.133 145.122 195.45C151.692 189.903 159.108 185.444 167.088 182.244C174.229 179.369 181.484 178.009 189.072 178.012C192.876 175.096 196.962 172.554 201.043 170.382C201.289 170.251 201.547 170.568 201.342 170.773C201.237 170.875 201.135 170.981 201.029 171.081C201.489 171.11 201.966 171.327 202.394 171.776C203.894 173.348 205.16 175.315 206.29 177.356C208.013 179.509 209.656 181.733 211.376 183.861C214.135 187.269 216.941 190.637 219.796 193.964C224.584 199.567 229.529 205.063 234.685 210.34L235.547 211.216C238.219 213.924 240.927 217.167 244.088 219.31L244.256 219.423C245.59 220.293 246.536 220.45 247.674 219.153C248.708 217.97 249.568 216.599 250.452 215.295L250.658 214.996C255.174 208.432 259.362 201.625 263.151 194.617C264.878 191.426 266.522 188.191 268.081 184.92L268.547 183.938C269.394 182.135 270.316 180.366 271.014 178.509C271.178 178.073 271.337 177.638 271.491 177.206C269.106 175.641 267.26 172.255 266.59 169.602C265.893 166.849 266.246 164.023 267.486 161.504C267.721 161.029 268.509 161.148 268.622 161.651V161.651ZM150.952 273.566C150.622 284.037 150.423 294.519 149.93 304.983L149.76 308.553C150.527 309.41 150.979 310.399 150.62 311.756C150.547 312.021 150.412 312.265 150.226 312.467C150.04 312.669 149.808 312.823 149.55 312.918L149.389 316.239C148.66 331.182 147.803 346.093 146.238 360.998C144.281 379.652 142.016 398.275 139.756 416.894C139.434 419.53 137.602 421.62 134.751 421.235C131.866 420.844 130.697 418.333 131.075 415.714C132.563 405.446 133.995 395.168 135.247 384.864L136.674 373.126C138.466 358.45 140.296 343.779 142.409 329.151C143.289 323.037 144.206 316.925 145.126 310.815L144.803 310.399C143.489 308.691 142.131 307.021 140.787 305.338C138.204 302.095 135.656 298.88 133.29 295.485C133.172 295.315 133.411 295.064 133.581 295.193C136.896 297.645 140.038 300.265 143.195 302.929L145.959 305.27C147.548 294.712 149.124 284.15 150.529 273.566C150.563 273.301 150.959 273.283 150.952 273.566V273.566ZM198.661 173.361C196.667 175.243 194.626 177.084 192.615 178.957L191.878 179.645L191.145 180.337C187.611 183.69 184.226 187.18 181.405 191.188C176.226 198.549 173.14 207.522 175.294 216.509C177.081 223.953 181.181 230.699 182.283 238.328C182.835 242.151 182.566 245.992 181.127 249.602C179.658 253.285 177.31 256.44 175.203 259.763C170.622 266.982 169.997 274.907 170.452 283.272C170.928 292.008 171.932 300.746 173.17 309.403C175.679 326.95 179.451 344.293 184.455 361.298C186.959 369.81 189.916 378.141 192.857 386.504C194.323 390.668 196.031 394.733 197.79 398.778C198.72 400.906 199.668 403.026 200.635 405.138C200.278 402.153 200.278 399.088 200.104 396.122C199.853 391.872 199.536 387.63 199.244 383.383C198.651 374.764 198.12 366.139 197.647 357.514C195.97 326.753 194.735 295.965 194.826 265.156C194.871 249.75 195.186 234.343 195.848 218.952C196.16 211.704 196.76 204.462 197.305 197.225L197.419 195.672C197.902 189.177 198.477 182.665 199.464 176.225C199.17 175.573 198.924 174.899 198.729 174.21L198.661 173.952L198.712 173.96C198.667 173.763 198.65 173.562 198.661 173.361V173.361ZM215.919 146.889C215.961 146.71 216.213 146.726 216.26 146.889C217.384 150.676 216.986 154.844 216.018 158.654C215.485 160.718 214.761 162.727 213.855 164.655L213.541 165.331C212.773 166.976 211.907 168.672 210.41 169.697C209.785 170.126 208.669 170.153 208.043 169.697L207.724 169.455L207.57 169.33C206.988 168.84 206.699 167.762 206.968 167.05C207.661 165.213 209.233 163.863 210.319 162.227C211.286 160.772 212.129 159.239 212.841 157.643C214.366 154.193 215.052 150.53 215.919 146.889V146.889Z" fill="black"/>
<path fill-rule="evenodd" clip-rule="evenodd" d="M243.638 3.4541C260.59 3.4541 280.927 11.6758 282.656 11.8425H282.703C283.613 11.8425 287.169 14.5525 293.368 19.9727L286.653 33.0786L287.196 33.5984C289.798 36.0916 292.016 38.3661 293.769 40.1585C308.077 54.7933 310.649 112.257 307.278 132.296C303.905 152.335 297.66 171.944 268.583 171.944C239.506 171.944 207.156 154.452 202.174 149.003C198.852 145.371 195.12 143.633 190.979 143.783L190.472 143.142L189.862 143.056C184.133 142.224 180.025 141.107 177.543 139.702C172.696 136.958 167.368 122.533 167.368 119.355C167.368 116.209 159.412 93.3242 159.253 90.9009L159.251 90.8346C159.251 88.8092 148.857 79.5031 148.857 76.5493C148.857 73.5919 146.762 73.7711 148.857 63.3574L149.466 60.296C151.696 49.2083 156.059 30.8471 172.696 22.8674C190.979 14.0991 226.516 3.45589 243.638 3.45589V3.4541Z" fill="#FDFBF5"/>
<path fill-rule="evenodd" clip-rule="evenodd" d="M169.875 22.453C178.993 12.7705 230.758 -2.20662 256.947 0.967696L257.733 1.06986C259.823 1.33513 261.882 1.73663 263.916 2.28152C270.486 3.81759 277.273 6.14231 282.701 10.0246C287.235 13.2025 301.533 18.3897 297.318 26.7009C298.88 29.6638 299.463 33.322 298.407 36.24C298.275 37.2473 297.964 38.1758 297.567 39.1383C300.905 44.0674 303.549 49.6417 305.688 54.9417C309.427 68.2842 311.753 82.1698 312.093 95.783C313.228 121.645 310.393 152.539 287.88 169.264C274.28 179.86 252.975 180.217 237.692 167.077C236.825 166.05 232.746 163.279 234.108 162.793C234.513 163.22 234.929 163.637 235.353 164.046C235.335 164.002 235.329 163.953 235.337 163.906L234.939 163.544C234.188 162.849 233.215 161.841 234.323 162.038C234.371 162.096 234.425 162.144 234.477 162.202C234.712 162.341 234.889 162.465 235.027 162.573L235.099 162.628L235.077 162.607C234.439 161.926 234.056 161.23 235.011 161.675L235.137 161.736C235.561 162.182 235.993 162.61 236.432 163.028C236.425 162.975 236.434 162.922 236.459 162.875L236.049 162.479C235.649 162.089 235.71 162.087 235.905 161.77C235.056 160.578 236.642 161.286 236.753 161.75C237.746 161.515 238.617 163.379 239.257 163.607C267.273 185.158 307.932 166.035 307.273 105.983L307.264 104.808C307.07 85.6058 305.456 65.8699 297.518 48.4874C296.746 46.8148 295.883 45.1861 294.932 43.6085C294.278 42.4273 293.574 41.2744 292.823 40.1528C290.708 39.9805 288.616 39.5931 286.579 38.9967C285.875 38.8192 285.178 38.6221 284.482 38.3909C274.305 38.9465 264.355 39.5505 254.149 40.1241L250.961 40.3213C242.316 40.8769 233.375 41.7695 226.398 47.1198C219.552 51.9897 219.522 61.5951 213.662 66.9435C205.307 72.6164 205.246 77.7337 203.636 86.097C203.755 92.399 208.124 101.558 200.108 104.211C201.459 106.141 199.574 105.215 199.427 104.537C199.411 104.541 199.396 104.544 199.384 104.544C200.59 106.786 198.817 105.374 198.662 104.655C198.552 104.617 198.454 104.551 198.377 104.465C199.592 106.43 197.629 105.053 197.746 104.697C195.398 101.088 190.57 100.527 187.167 101.485C187.124 101.614 186.973 101.624 186.88 101.556C172.405 104.695 176.14 134.672 190.972 131.774C191.606 131.645 191.592 131.95 191.717 131.978C191.375 131.079 192.341 131.446 192.33 131.634L192.389 131.631C192.436 131.627 192.416 131.622 192.452 131.634C192.12 129.793 193.984 132.461 193.837 132.57C193.892 132.538 193.953 132.517 194.016 132.509L193.952 132.335C193.642 131.511 193.669 131.853 193.671 131.38C193.438 130.797 193.421 131.052 193.475 130.672C194.292 130.039 194.534 131.96 194.807 132.1C194.339 131.448 194.71 130.917 195.151 131.27C198.491 138.3 202.807 144.905 208.384 150.11C208.993 150.59 209.611 151.064 210.249 151.512C212.622 153.578 216.26 154.908 218.481 156.738C218.477 156.776 218.465 156.812 218.445 156.844L218.495 156.891L218.547 156.939L219.319 157.31C219.545 157.504 219.749 157.721 219.932 157.959C220.126 158.181 220.294 158.429 220.439 158.69C220.511 159.008 220.352 159.14 220.049 159.004C219.916 158.959 219.783 158.905 219.651 158.857L219.671 158.882C219.714 158.948 220.007 159.631 219.669 159.52L219.629 159.504C219.443 159.436 219.258 159.361 219.076 159.289C219.292 159.558 219.488 159.848 219.663 160.096C219.843 160.282 219.963 160.518 220.007 160.773C220 160.916 219.92 160.977 219.776 160.959C219.558 160.887 219.342 160.811 219.126 160.732L219.187 160.848C219.339 161.149 219.556 161.653 219.171 161.485C218.844 161.382 218.522 161.266 218.205 161.137C218.178 161.191 218.126 161.209 218.02 161.16C217.011 160.802 216.033 160.36 215.097 159.841C214.274 159.242 213.447 158.656 212.62 158.061C211.844 157.595 211.095 157.075 210.38 156.493C205.651 153.431 201.487 149.573 198.074 145.09C192.513 149.909 181.393 145.305 174.515 141.534C168.43 138.162 166.04 131.928 165.421 125.207C164.136 116.159 156.746 113.062 157.26 93.2073C157.248 93.2109 157.237 93.2109 157.221 93.2109C156.951 93.1314 156.691 93.0232 156.445 92.8883C156.191 92.7679 155.95 92.6207 155.728 92.4492L155.454 92.0656C155.323 91.9957 155.198 91.9135 155.083 91.82L155.031 91.8864C154.869 92.0817 154.977 91.7878 154.988 91.7286L154.507 91.0762C153.369 89.5204 152.12 87.7764 151.102 86.3802L151.07 86.4375C151.047 86.4805 151.034 86.5092 151.047 86.5235C148.626 83.0427 146.348 78.8396 145.715 74.7691C144.968 71.6342 145.26 68.4043 145.912 65.5007C148.706 55.3307 157.859 32.3183 169.873 22.4548L169.875 22.453ZM235.583 163.092L235.43 162.958L235.565 163.125C235.637 163.219 235.725 163.301 235.823 163.368C235.815 163.341 235.813 163.312 235.818 163.284C235.737 163.222 235.659 163.159 235.583 163.092V163.092ZM256.832 6.07958C239.072 4.55067 221.602 8.46344 204.656 13.2043L203.486 13.5395C193.85 16.2908 183.66 18.7661 175.516 24.6558C164.138 33.374 158.264 47.2453 153.136 60.0518C148.66 69.5676 150.948 80.2968 157.694 86.9412C158.396 80.338 159.593 73.9285 161.464 67.5709C161.853 66.5779 161.559 66.2535 162.4 66.1226C163.672 83.2578 157.412 95.9156 169.798 116.222C175.171 125.802 168.95 132.812 184.126 137.854L184.536 138.012C187.697 139.205 191.149 140.146 194.246 139.48L193.968 139.028C193.687 138.564 193.601 138.338 194.011 138.139C194 138.116 193.986 138.094 193.97 138.067C193.636 137.437 193.315 136.801 193.007 136.158C192.884 136.199 192.758 136.23 192.629 136.264C192.714 136.418 192.724 136.574 192.49 136.628C191.665 136.911 190.792 137.029 189.921 136.974L189.733 136.961C188.994 136.918 188.263 136.78 187.559 136.551C187.375 136.52 187.188 136.492 187.007 136.452C185.21 136.054 183.309 135.04 182.079 134.036C168.047 126.062 169.498 98.9197 186.792 96.3548C187.145 79.2644 195.271 50.4339 208.753 34.1501C220.939 19.1711 254.21 12.6773 277.357 14.968C277.694 15.0791 278.033 15.1921 278.369 15.3068C281.941 15.624 285.344 17.2157 288.918 17.9541C286.352 16.0309 283.441 14.7493 280.443 13.6596C274.468 10.0031 267.62 8.0261 261.004 6.63163C259.638 6.2941 258.239 6.10837 256.832 6.07778V6.07958ZM186 110.083C186.93 109.577 186.825 110.066 187.038 109.925C193.726 109.378 200.938 115.238 204.676 120.122C204.382 120.428 203.583 119.52 203.443 119.376C203.425 119.394 203.403 119.408 203.378 119.417L203.482 119.564C204.999 121.74 201.993 119.179 201.712 118.652C201.666 118.681 201.611 118.691 201.558 118.682C201.796 118.915 202.522 119.525 202.647 119.959L202.841 120.12C204.658 121.678 204.507 122.85 202.443 120.636C202.491 120.74 202.511 120.833 202.477 120.91L202.549 120.957C203.563 121.667 204.398 123.646 202.276 121.615C202.497 123.097 200.174 120.231 200.099 120.251C196.079 117.093 190.16 114.022 185.117 113.61L184.945 113.59C184.018 113.47 183.583 113.196 183.905 112.59C182.766 112.32 183.033 111.759 183.572 111.776C182.769 111.248 183.493 110.742 183.959 110.939C183.638 110.05 184.925 110.642 185.042 110.518C185.71 109.489 185.889 110.348 186 110.083V110.083ZM171.981 55.0206C175.192 53.8448 184.681 57.3686 183.921 62.036C183.47 63.1078 181.981 63.7208 180.934 63.1168L179.567 62.1991C177.19 60.6057 175.045 59.2094 172.491 57.8185C171.102 57.1284 170.504 55.6641 171.981 55.0224V55.0206ZM190.257 48.0841L189.016 47.2775C182.321 42.8933 172.857 36.249 189.642 43.1228C191.556 43.9437 194.097 44.4294 195.142 46.2523C196.782 49.6112 192.466 49.837 190.257 48.0841V48.0841ZM191.009 28.4127C190.472 26.3729 197.158 28.7676 199.104 29.3985L199.4 29.5096C201.292 30.2158 203.463 30.8718 204.595 32.5047C205.921 34.7631 203.237 35.2309 201.574 34.211C198.163 31.9813 194.425 30.3001 191.009 28.4127ZM208.009 18.9112C204.248 14.7995 214.318 18.7374 215.826 19.8307L215.869 19.863C216.995 20.6552 216.767 22.3634 215.71 22.8652C212.701 22.9226 210.486 20.4133 208.009 18.9112V18.9112ZM225.133 14.4052C219.151 10.1035 227.031 12.1504 229.769 13.8352C231.635 15.4824 229.712 18.2606 225.133 14.4052Z" fill="black"/>
<path fill-rule="evenodd" clip-rule="evenodd" d="M258.915 126.037C261.031 122.551 265.547 131.09 266.026 132.558C266.45 133.859 266.732 135.191 266.873 136.539C268.529 136.9 270.242 136.916 271.904 136.585C274.404 136.105 275.933 134.761 278.106 133.606C279.606 132.807 281.499 133.742 282.28 135.067C283.198 136.625 282.614 138.241 281.406 139.403C279.115 141.606 274.608 142.111 271.619 141.527C269.95 141.21 268.362 140.559 266.95 139.614C266.942 139.79 266.934 139.964 266.922 140.138L266.895 140.439C266.666 142.882 265.994 145.954 264.097 147.544C260.988 150.15 257.149 145.137 260.171 142.532L260.266 142.453C262.144 140.935 262.553 136.861 262.452 134.617C262.386 133.14 262.118 131.679 261.657 130.274L261.562 129.996C261.424 129.602 259.906 125.863 259.357 126.34L259.332 126.367C259.106 126.637 258.741 126.322 258.915 126.037V126.037ZM275.825 106.366C278.683 108.106 283.04 112.16 279.965 116.471C276.345 120.271 271.131 115.914 268.563 113.942C266.182 112.415 263.506 116.344 265.716 118.127C284.277 131.877 291.809 106.821 277.271 104.322C275.671 104.046 275.076 105.828 275.825 106.366V106.366ZM245.295 90.2951C248.09 89.7986 250.952 90.4923 253.264 92.1287L253.44 92.2542C255.667 93.8852 258.158 96.7477 256.881 99.5564C256.368 100.686 254.832 100.861 253.857 100.35C252.234 99.499 251.94 97.4037 250.492 96.244C249.304 95.2941 247.703 94.7169 246.174 94.8567C242.581 95.1829 240.37 98.7283 239.255 101.784C239.112 102.175 238.538 102.327 238.314 101.908C235.682 96.9861 240.341 91.1734 245.295 90.2933V90.2951ZM290.051 88.4364C295.404 87.9955 301.669 93.5483 300.259 99.1997C299.583 101.913 295.562 101.834 294.848 99.1997C294.454 97.7496 294.493 96.4681 293.45 95.2636C292.59 94.2706 291.366 93.6917 290.051 93.7813C288.603 93.8781 287.266 94.604 286.25 95.6221C285.332 96.5416 284.784 97.8876 283.832 98.7014C283.599 98.9021 283.286 98.9147 283.054 98.7014C281.42 97.194 282.4 94.0519 283.438 92.4764C284.922 90.2234 287.339 88.6605 290.051 88.4364ZM235.103 80.2685C238.537 77.2268 244.775 74.2909 249.406 75.7876C252.067 76.6479 253.228 80.9389 250.257 82.2993C246.814 83.8748 242.847 83.2331 239.345 84.866C237.873 85.5525 236.49 86.4092 235.467 87.6675C234.66 88.6587 233.839 89.9617 232.671 90.5335C232.364 90.6841 231.95 90.6876 231.703 90.408C229.146 87.5133 232.87 82.2473 235.103 80.2685V80.2685ZM284.149 75.637C286.271 75.0401 288.626 75.0527 290.782 75.4273C292.938 75.8019 295.124 76.6945 296.884 77.9976L297.088 78.1499C299.01 79.5982 301.302 81.706 301.178 84.2709C301.076 86.4128 298.823 87.8628 296.879 86.739C295.295 85.8249 294.549 83.9895 293.207 82.7689C292.091 81.7625 290.805 80.9631 289.409 80.4083C287.901 79.804 286.294 79.4867 284.669 79.4727C283.395 79.4512 282.114 79.8706 280.863 80.0032C280.967 80.2147 279.977 80.1162 279.411 79.9298C278.992 79.7505 278.99 79.22 279.135 78.8758C279.857 77.1695 282.481 76.1048 284.149 75.637Z" fill="black"/>
</svg>
