<svg width="460" height="386" viewBox="0 0 460 386" fill="none" xmlns="http://www.w3.org/2000/svg">
<path fill-rule="evenodd" clip-rule="evenodd" d="M213.105 146.553C222.545 147.019 237.243 151.069 237.977 153.658C239.125 157.7 236.66 172.856 240.784 181.021C242.542 184.5 249.217 184.188 251.804 185.322C260.459 189.113 286.08 196.306 291.362 205.362C293.479 208.99 306.487 254.005 313.398 276.971C314.13 279.42 315.004 281.824 316.013 284.172L316.364 282.45C319.183 268.569 320.591 260.165 320.591 257.24C320.591 252.669 316.948 233.384 320.591 228.48C324.198 223.624 332.889 219.654 336.798 219.576L336.916 219.574C339.482 219.574 341.711 218.771 343.599 217.165L346.367 215.771C360.448 208.698 368.675 204.818 371.048 204.131C374.835 203.035 381.278 205.369 378.056 208.874C375.908 211.21 370.511 215.343 361.864 221.273L358.605 223.865L358.997 224.07C363.212 226.291 365.689 228.16 366.43 229.678C367.195 231.242 366.829 233.091 365.33 235.227L365.557 235.45C367.451 237.31 368.399 238.559 368.399 239.194V242.297C370.283 245.06 370.754 247.363 369.812 249.21C368.87 251.054 367.376 252.653 365.33 254.005C363.823 257.974 362.028 260.798 359.945 262.478C357.862 264.16 354.264 265.558 349.148 266.675L344.517 277.755L340.766 293.323L338.876 310.693L339.425 311.091C341.968 312.945 343.599 314.32 343.599 315.741C343.599 317.954 333.335 370.004 317.365 372.334C313.912 372.839 296 370.367 290.119 365.578L290.206 366.096C291.589 374.461 291.296 378.806 289.327 379.129C265.126 383.101 196.395 384.327 83.1308 382.811C82.456 322.638 85.5035 282.562 92.2719 262.587C109.582 211.497 128.668 194.048 135.342 192.554C141.192 191.244 161.473 183.165 167.142 181.021C170.842 179.621 171.635 175.424 175.852 175.424L176.194 175.425C180.272 175.467 183.888 176.196 185.919 174.096C191.252 168.587 189.761 160.96 191.974 153.658C193.192 149.634 201.522 145.98 213.105 146.553V146.553Z" fill="#FDFBF5"/>
<path fill-rule="evenodd" clip-rule="evenodd" d="M187.173 160.978C187.727 159.879 189.198 160.022 190.169 160.521C193.08 162.649 190.034 166.779 189.228 169.379C187.156 174.42 183.56 179.346 178.593 181.704C179.005 186.716 179.471 191.716 179.644 196.743C185.992 204.627 196.698 207.504 206.201 209.717C221.126 213.848 237.971 205.383 243.008 190.617C237.274 187.356 235.419 178.818 237.13 172.861C237.277 172.444 237.926 172.258 238.156 172.726C239.727 175.958 239.517 179.9 241.302 183.094C258.432 184.736 280.541 191.206 291.764 205.073C296.738 212.01 298.708 221.033 301.158 229.075C306.385 245.651 310.549 262.562 315.675 279.157L316.279 276.017C317.936 267.367 319.44 258.602 318.32 249.806L318.301 249.386C317.935 242.386 315.747 229.38 321.17 224.657C326.075 220.905 333.181 217.889 339.336 219.618C350.288 214.74 359.742 206.525 371.408 203.324C374.998 202.585 380.162 203.46 379.314 208.336C376.963 216.862 367.113 220.172 360.38 224.569C364.696 225.74 369.959 230.993 366.586 235.574C366.563 235.64 366.536 235.704 366.505 235.766C369.239 236.978 369.623 240.028 368.951 242.641C368.883 243.332 368.702 242.739 369.107 243.366C372.193 246.278 370.83 254.397 366.181 254.671C366.485 258.519 364.017 262.256 360.889 264.353C357.52 266.614 352.646 266.712 349.856 269.806C343.305 281.368 341.046 295.019 340.331 308.258C344.65 309.877 348.524 314.714 344.601 318.819C344.523 318.829 344.446 318.838 344.368 318.844C342.093 324.92 341.215 331.396 340.012 337.74C338.161 348.567 333.339 358.507 327.181 367.526C320.06 379.464 300.909 377.572 291.262 369.866C291.301 371.889 291.633 373.898 290.986 375.851C290.032 377.958 287.704 377.048 287.474 374.972C282.374 377.843 281.173 368.367 286.842 369.869C286.406 363.019 286.153 356.159 285.948 349.297C279.531 351.377 279.253 340.717 285.819 342.849L285.811 339.902C285.762 317.308 286.012 294.635 288.991 272.218C289.265 270.543 289.733 268.92 290.005 267.254C290.034 267.08 290.304 267.13 290.304 267.295C290.765 298.679 288.716 330.13 290.854 361.525C292.633 362.067 293.343 364.111 294.661 365.304C297.587 368.006 301.57 369.323 305.468 369.782C316.377 371.313 321.087 367.979 325.946 358.485C323.755 359.951 320.794 357.364 322.129 355.043L322.172 354.973C323.558 352.514 327.475 353.987 326.98 356.74C331.865 348.911 334.42 340.082 336.31 331.124L336.564 330.053C337.483 326.25 338.673 321.892 340.877 318.451C327.435 315.023 314.288 304.575 312.184 290.241C308.771 300.973 304.149 311.464 299.742 321.903C298.38 325.532 297.814 329.433 295.863 332.8C295.409 333.58 294.259 333.379 294.003 332.558C292.248 324.706 297.564 317.239 300.325 310.17C302.578 306.175 309.047 287.936 313.06 287.892C308.552 268.116 302.54 248.49 296.814 228.961C291.279 202.593 279.997 197.507 256.097 189.205C260.408 211.195 280.09 232.48 269.616 255.544L269.362 256.143C268.291 258.686 267.402 261.247 268.149 264.039C268.874 266.747 270.528 269.098 271.85 271.534C279.241 285.294 274.153 301.363 271.296 315.692C267.685 332.495 264.12 349.314 260.388 366.091C259.653 369.438 259.176 372.886 258.066 376.131C257.492 377.803 254.63 377.645 254.816 375.692C255.169 371.904 256.232 368.209 257.009 364.489C261.655 340.403 267.942 316.6 271.939 292.41C274.511 274.502 264.388 271.75 264.765 260.179C266.141 254.262 269.784 248.981 269.575 242.673C270.383 223.371 256.336 207.444 254.603 188.669L251.54 187.577C250.009 187.03 248.481 186.474 246.957 185.91C254.978 242.063 252.543 299.441 248.532 355.872C247.713 358.475 248.492 376.665 245.058 375.05C244.885 376.066 244.345 377.065 243.173 377.061C232.521 377.159 221.868 377.328 211.216 377.454C206.093 376.981 199.052 378.939 194.695 375.98C189.662 374.544 189.084 360.904 187.739 356.044L187.215 352.508C178.666 294.738 171.015 235.778 177.161 177.436C168.61 177.766 166.847 187.001 166.212 193.726C164.626 208.569 155.046 221.353 154.586 236.366C154.532 239.981 155.249 243.566 156.689 246.881C160.547 255.075 167.222 264.547 162.233 273.698C156.334 280.822 156.845 282.697 159.009 291.501C165.101 320.606 175.216 348.585 184.837 376.646C182.747 387.553 170.172 347.063 168.989 344.011C163.422 346.811 160.382 337.514 166.765 336.851C162.666 323.112 158.891 309.269 155.75 295.273L155.666 294.879C154.278 288.413 151.547 280.842 156.158 275.105C168.044 263.072 148.305 249.622 150.794 235.045C148.644 236.641 145.389 234.962 145.439 232.282C145.342 229.264 149.391 227.718 151.34 230.02C153.343 218.194 160.313 207.869 162.423 196.077L162.518 195.523C163.233 191.356 163.435 186.97 165.48 183.172C162.696 184.983 159.731 186.446 156.682 187.736C162.135 192.294 151.577 196.455 152.449 189.414C122.554 198.071 115.796 210.145 104.819 237.873C106.87 235.88 110.382 238.461 109.153 241.004C108.175 243.683 103.903 242.899 103.905 240.043L103.405 241.239C96.7484 257.17 90.6901 273.488 87.6441 290.537C93.618 289.693 92.0965 299.248 86.6855 296.555C84.5137 311.719 84.48 327.096 84.7453 342.381C89.7821 339.737 89.934 348.722 84.7928 346.161C84.9815 358.686 85.256 371.214 85.4646 383.739C85.506 386.405 81.3971 386.393 81.3327 383.739C80.8527 364.492 79.9784 345.211 80.3941 325.957C80.003 292.54 89.5996 260.333 103.899 230.399C116.552 195.933 134.029 192.013 166.184 181.992C169.152 177.582 175.492 173.41 180.666 176.18C183.561 171.503 185.031 165.961 187.173 160.978V160.978ZM132.081 281.102C132.202 280.677 132.808 280.785 132.827 281.204C133.097 286.61 132.857 292.052 132.488 297.482C132.264 300.797 131.988 304.108 131.755 307.4C131.136 316.088 130.637 324.783 130.258 333.484C130.909 333.217 131.624 333.143 132.317 333.27C133.01 333.398 133.651 333.721 134.166 334.203L134.259 334.293C134.613 334.616 134.876 335.024 135.024 335.48C135.236 335.886 135.343 336.322 135.343 336.787L135.342 336.904C135.34 337.548 135.171 338.182 134.851 338.741C134.531 339.3 134.07 339.767 133.515 340.094C132.937 340.429 132.319 340.594 131.652 340.598C131.58 340.604 131.508 340.611 131.437 340.614C130.956 340.636 130.477 340.53 130.051 340.306L129.986 340.286C129.823 344.702 129.692 349.119 129.593 353.536C129.506 357.387 129.389 361.235 129.311 365.086L129.276 367.012L129.205 371.267C129.182 373.018 129.193 374.694 128.598 376.346L128.528 376.536C128.1 377.638 127.767 379.172 126.621 379.785C125.708 380.274 124.477 380.093 123.952 379.14C123.512 378.342 123.894 377.194 124.544 376.656C124.532 376.62 124.514 376.588 124.497 376.551C124.396 376.26 124.244 375.983 124.153 375.689C123.868 374.754 123.946 373.76 123.943 372.788C123.943 371.077 124 369.364 124.046 367.655C124.147 364.015 124.264 360.379 124.405 356.744C124.886 344.546 125.794 332.35 126.833 320.187L127.185 316.082C127.655 310.623 128.141 305.158 128.828 299.727L128.929 298.947C128.562 298.763 128.228 298.518 127.943 298.221C126.853 297.075 126.19 295.359 125.569 293.881L125.426 293.545C124.751 291.968 124.13 290.373 123.81 288.679L123.779 288.524C123.632 287.803 123.343 286.524 124.107 286.176C124.506 285.993 124.759 286.124 124.889 286.523C124.897 286.549 124.898 286.576 124.893 286.603C124.889 286.63 124.879 286.655 124.863 286.678C125.176 287.161 125.669 287.612 125.98 288.061L127.046 289.584L127.572 290.35C128.239 291.332 128.952 292.273 129.689 293.202C130.267 289.127 130.977 285.07 132.081 281.102V281.102ZM175.742 371.884C177.074 370.839 179.242 371.407 179.242 373.335C179.242 375.27 177.07 375.828 175.742 374.783L175.676 374.734L175.612 374.684C174.889 374.117 174.865 372.644 175.558 372.03L175.612 371.986C175.655 371.949 175.696 371.917 175.742 371.884V371.884ZM117.727 368.12L117.842 368.121C118.443 368.121 119.005 368.275 119.526 368.579C119.753 368.751 119.977 368.926 120.204 369.102C120.618 369.516 120.903 370.009 121.063 370.577L121.182 371.465C121.198 371.926 121.104 372.354 120.894 372.754C120.76 373.166 120.522 373.537 120.204 373.83C119.912 374.151 119.541 374.389 119.127 374.521C118.762 374.714 118.373 374.812 117.955 374.812L117.84 374.811C117.236 374.811 116.675 374.657 116.153 374.352C115.926 374.18 115.702 374.005 115.475 373.83C115.066 373.421 114.77 372.912 114.616 372.354C114.578 372.059 114.54 371.762 114.497 371.465C114.482 371.005 114.578 370.577 114.785 370.178C114.922 369.763 115.152 369.403 115.475 369.102C115.768 368.781 116.139 368.543 116.552 368.41C116.917 368.218 117.31 368.12 117.727 368.12V368.12ZM269.409 361.952L270.259 362.066C271.072 362.251 271.725 362.851 272.164 363.536C272.397 363.903 272.523 364.299 272.543 364.722C272.636 365.144 272.616 365.569 272.485 365.994C272.386 366.409 272.196 366.772 271.914 367.081C271.817 367.233 271.704 367.372 271.574 367.497C271.308 367.94 270.906 368.232 270.492 368.531C270.152 368.751 269.759 368.877 269.354 368.893C269.088 368.965 268.807 368.965 268.541 368.893C268.137 368.876 267.746 368.751 267.406 368.531L266.788 368.051C266.608 367.841 266.438 367.622 266.279 367.395L265.965 366.653C265.773 366.059 265.868 365.534 265.972 364.94C265.988 364.842 266.014 364.745 266.049 364.652L266.12 364.463C266.305 363.97 266.405 363.803 266.736 363.373L266.862 363.204C266.925 363.122 266.989 363.039 267.064 362.965C267.271 362.75 267.566 362.572 267.799 362.388C268.288 362.103 268.844 361.953 269.409 361.952V361.952ZM159.397 359.876L159.505 359.877C159.974 359.88 160.416 359.997 160.824 360.233L161.354 360.646C161.679 360.973 161.903 361.355 162.029 361.8C162.058 362.033 162.09 362.267 162.123 362.498C162.138 362.85 162.06 363.199 161.896 363.51C161.791 363.833 161.605 364.123 161.354 364.352C161.124 364.602 160.835 364.788 160.512 364.894C160.232 365.043 159.92 365.121 159.603 365.121L159.505 365.118C159.032 365.118 158.59 364.998 158.182 364.762L157.652 364.352C157.331 364.031 157.099 363.633 156.977 363.195C156.948 362.962 156.916 362.732 156.883 362.498C156.871 362.138 156.945 361.8 157.11 361.489C157.218 361.165 157.396 360.882 157.652 360.646C157.888 360.39 158.17 360.207 158.494 360.104C158.776 359.956 159.077 359.88 159.397 359.876V359.876ZM138.012 358.803C138.689 358.797 139.377 358.989 139.929 359.38C140.468 359.764 140.876 360.175 141.139 360.795C141.21 360.964 141.281 361.13 141.343 361.298C141.621 362.041 141.673 362.787 141.288 363.513C140.916 364.217 140.112 364.524 139.393 364.736C138.784 364.917 138.093 364.946 137.488 364.73C137.186 364.631 136.895 364.501 136.62 364.343C136.11 364.028 135.834 363.656 135.494 363.195C135.23 362.749 135.093 362.24 135.095 361.722C135.095 361.194 135.228 360.704 135.494 360.247C136.015 359.355 136.981 358.809 138.012 358.803V358.803ZM103.664 359.429C104.52 359.429 105.271 359.825 105.787 360.493C106.308 361.171 106.5 362.015 106.27 362.854C106.028 363.743 105.291 364.521 104.38 364.745C103.707 364.911 103.156 364.905 102.485 364.791C101.917 364.693 101.485 364.355 101.051 364.005C100.554 363.6 100.402 362.861 100.483 362.264C100.56 361.667 100.836 361.278 101.255 360.924L101.258 360.915L101.101 361.034C101.159 360.984 101.218 360.928 101.278 360.873C101.296 360.841 101.313 360.804 101.328 360.769C101.567 360.361 101.908 360.023 102.318 359.788C102.728 359.553 103.192 359.429 103.664 359.429V359.429ZM303.133 349.604C303.604 349.479 304.077 349.479 304.547 349.604C304.894 349.686 305.195 349.845 305.451 350.082C305.71 350.25 305.923 350.467 306.083 350.737L306.135 350.827C306.505 351.457 306.563 352.176 306.403 352.878C306.207 353.743 305.409 354.532 304.547 354.736L304.518 354.741L304.489 354.748C304.149 354.859 303.784 354.875 303.435 354.795C303.086 354.781 302.747 354.672 302.454 354.48C302.074 354.236 301.75 353.913 301.505 353.533C301.314 353.238 301.205 352.897 301.19 352.546C301.129 352.317 301.129 352.076 301.19 351.846C301.207 351.492 301.31 351.165 301.505 350.86L301.919 350.324L301.962 350.289C302.286 349.963 302.69 349.727 303.133 349.604V349.604ZM270.511 332.441C274.759 332.441 274.753 339.038 270.511 339.038C266.264 339.038 266.27 332.441 270.511 332.441ZM114.983 331.608C115.426 331.506 115.889 331.526 116.322 331.666C116.59 331.779 116.856 331.893 117.121 332.002L117.802 332.528C117.928 332.636 117.991 332.752 118.107 332.904L118.253 333.095C118.463 333.377 118.468 333.437 118.699 334.04C118.85 334.589 118.854 335.167 118.713 335.718C118.572 336.269 118.29 336.774 117.894 337.183L117.802 337.277C117.508 337.596 117.137 337.835 116.724 337.97C116.46 338.124 116.179 338.197 115.877 338.197C115.434 338.298 114.972 338.278 114.54 338.139L113.739 337.801L113.058 337.277L112.534 336.595L112.365 336.196L112.196 335.794L112.077 334.902C112.061 334.439 112.153 334.011 112.365 333.609C112.446 333.326 112.589 333.076 112.794 332.869C112.945 332.616 113.146 332.415 113.399 332.266C113.606 332.057 113.856 331.915 114.138 331.835C114.399 331.681 114.682 331.608 114.982 331.608H114.983ZM325.09 326.895C325.443 326.881 325.774 326.956 326.078 327.117C326.185 327.154 326.29 327.199 326.389 327.251C326.782 327.481 327.093 327.792 327.324 328.182C327.511 328.48 327.615 328.801 327.63 329.148C327.701 329.461 327.695 329.777 327.61 330.09L327.583 330.183C327.505 330.464 327.38 330.729 327.213 330.968C326.995 331.311 326.707 331.594 326.351 331.806C325.962 332.03 325.52 332.15 325.07 332.152C324.153 332.152 323.363 331.655 322.88 330.892C322.813 330.787 322.773 330.65 322.725 330.539C322.682 330.435 322.615 330.303 322.578 330.183C322.455 329.723 322.455 329.263 322.578 328.801C322.659 328.463 322.813 328.168 323.043 327.918C323.227 327.637 323.469 327.413 323.771 327.251C324.146 327.033 324.547 326.916 324.974 326.896L325.09 326.895V326.895ZM145.735 323.667C146.182 323.545 146.629 323.535 147.074 323.638L147.185 323.667C147.541 323.752 147.85 323.913 148.115 324.154C148.409 324.349 148.647 324.605 148.817 324.921C149.061 325.34 149.189 325.816 149.189 326.3C149.189 326.784 149.061 327.26 148.817 327.679C148.575 328.092 148.248 328.416 147.836 328.658L147.48 328.83C147.193 329.015 146.862 329.121 146.521 329.135C146.296 329.197 146.059 329.197 145.834 329.135C145.605 329.137 145.38 329.076 145.182 328.96C144.966 328.901 144.769 328.786 144.612 328.626C144.332 328.447 144.103 328.197 143.948 327.903L143.685 327.283L143.595 326.595L143.685 325.911L143.828 325.573C143.953 325.118 144.195 324.703 144.529 324.368C144.863 324.034 145.278 323.793 145.733 323.667H145.735ZM306.426 318.195C306.883 318.047 307.371 318.025 307.839 318.13C308.156 318.13 308.454 318.212 308.73 318.374C309.032 318.457 309.29 318.606 309.511 318.827C309.896 319.077 310.198 319.409 310.422 319.82L310.778 320.667C310.992 321.215 310.914 322.022 310.785 322.575C310.678 323.027 310.471 323.423 310.162 323.761C310.011 324.02 309.796 324.236 309.537 324.387C309.24 324.659 308.885 324.858 308.498 324.97L308.389 324.999L308.351 325.01C308.345 325.013 308.339 325.013 308.331 325.013C308.328 325.016 308.322 325.016 308.319 325.016C308.162 325.055 308.005 325.078 307.839 325.084C307.371 325.189 306.883 325.167 306.426 325.019L305.584 324.663C305.343 324.481 305.107 324.297 304.868 324.111L304.314 323.394C304.058 323.001 303.914 322.546 303.896 322.077C303.811 321.77 303.811 321.445 303.896 321.137C303.896 320.816 303.977 320.521 304.135 320.245C304.276 319.807 304.528 319.413 304.868 319.103C305.107 318.918 305.343 318.733 305.584 318.552C305.866 318.431 306.147 318.311 306.426 318.195V318.195ZM99.7606 306.584C100.25 306.45 100.739 306.45 101.228 306.584L101.885 306.86C102.21 307.035 102.466 307.271 102.661 307.572C102.906 307.839 103.072 308.154 103.156 308.513C103.347 309.007 103.325 309.788 103.172 310.291C103.014 310.838 102.722 311.337 102.324 311.743C101.639 312.451 100.59 312.655 99.6594 312.441C99.4037 312.379 99.1605 312.274 98.9401 312.13C98.2376 311.696 97.7637 310.936 97.7683 310.096C97.7683 310.006 97.7744 309.914 97.7867 309.823C97.7407 309.639 97.7254 309.447 97.7315 309.246L97.8297 308.513L97.8358 308.494C97.957 308.056 98.1851 307.655 98.4997 307.327C98.8143 306.999 99.2054 306.755 99.6379 306.616L99.7453 306.584H99.7606V306.584ZM344.27 233.751C343.385 226.488 340.057 218.672 329.906 222.938L329.152 223.22C326.639 224.172 323.713 225.423 322.184 227.622C321.132 229.136 321.488 232.071 321.342 233.838C320.681 239.586 321.035 245.325 321.725 251.05C322.615 264.464 319.797 278.363 314.187 290.554C319.802 299.647 327.316 308.129 337.566 311.918C338 301.581 340.021 291.431 342.173 281.343L342.259 280.903C343.12 276.354 343.551 271.684 346.535 267.901C352.606 261.304 360.957 265.038 364.952 254.438C364.113 254.013 364.577 252.56 365.589 252.839C369.093 253.462 369.662 246.96 367.264 245.393C364.764 243.867 367.281 241.053 366.216 239.021C365.624 238.146 364.343 238.117 363.764 237.107C362.225 233.395 369.922 231.015 360.871 226.828C359.018 226.168 356.948 226.578 355.08 226.57C352.331 226.827 350.147 228.766 347.633 229.376C350.371 236.469 343.465 243.3 337.232 237.634C333.84 240.843 330.047 248.157 338.293 244.747C342.327 242.052 345.801 238.567 350.486 236.906L350.584 236.876C352.324 236.306 359.932 232.605 359.555 235.807C356.705 238.562 352.005 238.528 348.704 240.764C344.127 242.882 341.201 248.016 335.722 247.945C334.459 255.621 343.161 250.95 346.402 248.833L347.301 248.345C351.871 245.873 356.512 243.583 361.842 243.553C363.313 243.544 363.307 245.813 361.842 245.833C354.896 245.876 349.241 250.224 343.422 253.456C342.848 257.935 349.403 255.974 351.891 255.313C354.5 254.946 358.689 252.122 360.971 253.614C361.863 255.91 357.935 255.739 356.567 256.436C362.811 259.438 357.34 261.329 355.666 256.715L355.176 256.883C350.994 258.288 340.854 261.184 342.061 254.094C340.531 254.773 338.664 255.178 336.972 254.802C332.756 261.045 326.029 258.629 335.807 254.374C333.603 253.347 332.866 249.386 334.983 247.913C327.287 247.442 333.001 239.359 336.187 236.665C335.889 236.365 335.601 236.056 335.324 235.737C333.486 236.612 331.555 237.144 329.491 237.331C327.515 237.511 327.074 234.144 329.024 233.868C331.115 233.573 333.04 233.014 334.88 231.963C337.669 230.758 338.621 235.939 341.412 236.122C342.935 236.424 343.965 235.088 344.27 233.751V233.751ZM279.471 300.596C280.146 300.596 280.744 300.878 281.233 301.326C281.722 301.773 281.934 302.445 281.963 303.086C281.975 303.43 281.905 303.752 281.748 304.05C281.649 304.357 281.471 304.633 281.233 304.851C280.76 305.311 280.13 305.572 279.471 305.582C278.797 305.582 278.198 305.299 277.708 304.851C277.219 304.4 277.008 303.732 276.978 303.086C276.964 302.753 277.038 302.422 277.193 302.127C277.284 301.849 277.431 301.604 277.636 301.394L277.708 301.326C278.18 300.865 278.811 300.604 279.471 300.596V300.596ZM299.893 285.214L300.001 285.215C300.572 285.218 301.1 285.361 301.592 285.647C301.805 285.812 302.02 285.975 302.23 286.141C302.626 286.534 302.909 287.026 303.052 287.566C303.194 288.106 303.191 288.674 303.041 289.212C302.99 289.536 302.867 289.844 302.681 290.114C302.409 290.573 302.026 290.955 301.566 291.225C301.092 291.504 300.551 291.651 300.001 291.65C299.46 291.649 298.929 291.507 298.459 291.238C297.99 290.968 297.599 290.581 297.325 290.114C297.137 289.845 297.012 289.536 296.962 289.212C296.817 288.693 296.808 288.146 296.936 287.623C297.064 287.1 297.323 286.619 297.69 286.225L297.771 286.141C298.057 285.832 298.394 285.614 298.785 285.487C299.13 285.306 299.5 285.215 299.893 285.214V285.214ZM144.034 285.387C144.269 285.323 144.517 285.323 144.751 285.387C145.109 285.404 145.442 285.51 145.748 285.705L146.294 286.127L146.452 286.317C146.79 286.73 146.799 286.799 147.058 287.428C147.166 287.778 147.181 288.128 147.104 288.478C147.104 288.716 147.043 288.935 146.925 289.139C146.865 289.36 146.748 289.56 146.586 289.721C146.472 289.917 146.31 290.079 146.115 290.194C145.863 290.424 145.564 290.583 145.221 290.665L144.524 290.758C144.434 290.746 144.34 290.732 144.248 290.723C144.141 290.72 144.035 290.708 143.929 290.688L143.825 290.665L143.728 290.639C143.601 290.602 143.477 290.552 143.359 290.49C143.135 290.427 142.93 290.307 142.765 290.143C142.473 289.954 142.235 289.694 142.072 289.386L142.026 289.282C141.963 289.172 141.912 289.056 141.873 288.935C141.764 288.744 141.707 288.529 141.705 288.309C141.64 288.016 141.646 287.712 141.722 287.422L141.751 287.324L142 286.73C142.13 286.529 142.267 286.325 142.44 286.159C142.547 286.066 142.804 285.864 142.948 285.765L143.037 285.705C143.345 285.51 143.679 285.404 144.034 285.387V285.387ZM104.969 280.749C105.437 278.909 107.848 278.329 109.161 279.643C110.472 280.957 109.893 283.371 108.057 283.837L107.845 283.889C107.44 283.992 107.015 283.988 106.612 283.877C106.21 283.766 105.843 283.553 105.547 283.257C105.252 282.961 105.039 282.593 104.929 282.19C104.818 281.787 104.815 281.362 104.919 280.957L104.971 280.749H104.969ZM327.377 265.748C327.363 265.566 327.597 265.501 327.713 265.609C329.276 267.01 330.27 268.69 332.166 269.777C334.072 270.866 336.035 270.779 338.021 271.482C338.168 271.528 338.297 271.619 338.388 271.744C338.479 271.868 338.528 272.018 338.528 272.172C338.528 272.326 338.479 272.476 338.388 272.6C338.297 272.724 338.168 272.815 338.021 272.861C334.262 274.175 327.662 269.722 327.377 265.748ZM150.764 265.463C151.182 265.332 151.604 265.314 152.021 265.408C152.307 265.408 152.574 265.478 152.814 265.621C153.084 265.696 153.314 265.833 153.512 266.026C153.748 266.167 153.937 266.358 154.08 266.594C154.357 266.899 154.546 267.257 154.643 267.665L154.753 268.505L154.643 269.346C154.535 269.594 154.428 269.847 154.325 270.098L154.035 270.49C153.801 270.803 153.764 270.807 153.195 271.23C152.831 271.46 152.44 271.586 152.021 271.603C151.742 271.68 151.463 271.68 151.182 271.603C150.9 271.603 150.635 271.531 150.388 271.388C150.125 271.315 149.885 271.176 149.692 270.983C149.351 270.761 149.072 270.457 148.882 270.098C148.774 269.847 148.667 269.594 148.564 269.346L148.451 268.505L148.564 267.665L148.57 267.639C148.719 267.114 148.985 266.657 149.368 266.27L149.997 265.784C150.236 265.641 150.494 265.533 150.764 265.463V265.463ZM302.024 266.092C302.469 265.972 302.938 265.97 303.384 266.088C303.83 266.205 304.237 266.438 304.564 266.763C305.224 267.423 305.483 268.405 305.236 269.303C305.078 269.871 304.733 270.369 304.258 270.717C303.783 271.066 303.204 271.244 302.615 271.224C302.171 271.222 301.735 271.103 301.351 270.88L300.845 270.487C300.605 270.268 300.427 269.99 300.327 269.68C300.169 269.383 300.094 269.049 300.11 268.713L300.107 268.652C300.097 268.528 300.113 268.403 300.152 268.285C300.152 268.158 300.172 268.035 300.204 267.915C300.326 267.481 300.557 267.085 300.876 266.765C301.195 266.446 301.59 266.214 302.024 266.092V266.092ZM108.528 257.309C108.816 257.299 109.084 257.357 109.334 257.49C109.594 257.572 109.826 257.722 110.008 257.925C110.215 258.113 110.357 258.341 110.442 258.6C110.575 258.85 110.633 259.119 110.623 259.407C110.623 259.786 110.526 260.141 110.339 260.465L110.008 260.89C109.748 261.152 109.44 261.33 109.084 261.431L108.877 261.502C108.581 261.603 108.265 261.629 107.957 261.577C107.627 261.545 107.312 261.427 107.043 261.233C106.781 261.081 106.563 260.863 106.411 260.601L106.233 260.179C106.197 260.013 106.175 259.843 106.169 259.673C106.169 259.65 106.169 259.631 106.164 259.608C106.164 259.482 106.204 259.174 106.236 259.047C106.307 258.781 106.452 258.528 106.62 258.315C106.761 258.09 106.955 257.916 107.195 257.785L107.216 257.77L107.241 257.753C107.314 257.701 107.394 257.648 107.471 257.593C107.794 257.406 108.147 257.309 108.526 257.309H108.528ZM275.853 255.006C276.371 255.006 276.854 255.139 277.301 255.399C277.316 255.404 277.332 255.411 277.347 255.419C277.776 255.669 278.132 256.028 278.38 256.459C278.627 256.891 278.757 257.38 278.756 257.877C278.755 258.374 278.625 258.862 278.377 259.294C278.13 259.725 277.775 260.084 277.347 260.336C277.332 260.345 277.317 260.352 277.301 260.357C276.861 260.614 276.362 260.749 275.853 260.749C275.345 260.749 274.845 260.614 274.406 260.357C273.975 260.102 273.617 259.74 273.368 259.305C273.119 258.87 272.987 258.378 272.985 257.877C272.985 256.864 273.532 255.907 274.406 255.399C274.854 255.139 275.337 255.006 275.853 255.006ZM141.288 251.255L141.377 251.254C141.71 251.237 142.042 251.312 142.336 251.47C142.643 251.571 142.912 251.743 143.139 251.986L143.613 252.382L143.751 252.494C143.774 252.512 143.796 252.531 143.817 252.55C144.135 252.871 144.351 253.247 144.475 253.683C144.514 253.933 144.546 254.179 144.572 254.429C144.643 255.076 144.261 255.742 143.839 256.203C143.613 256.447 143.343 256.617 143.034 256.722C142.736 256.877 142.403 256.951 142.067 256.935C141.363 256.873 140.696 256.725 140.192 256.18C140.132 256.115 140.077 256.046 140.02 255.979L139.615 255.512C139.307 255.201 139.093 254.834 138.975 254.412L138.885 253.747C138.856 253.083 139.179 252.46 139.615 251.986C140.015 251.548 140.696 251.28 141.288 251.255V251.255ZM124.932 244.426C128.302 244.426 128.296 249.658 124.932 249.658C121.566 249.658 121.574 244.426 124.932 244.426ZM294.362 237.09L294.468 237.092C295.026 237.095 295.547 237.235 296.031 237.517L296.658 238C297.041 238.39 297.307 238.843 297.455 239.369C297.491 239.644 297.528 239.92 297.566 240.193C297.583 240.622 297.491 241.021 297.297 241.39C297.173 241.773 296.96 242.106 296.658 242.388C296.387 242.685 296.044 242.906 295.661 243.028C295.294 243.223 294.882 243.315 294.468 243.296C293.918 243.297 293.377 243.15 292.903 242.871L292.274 242.388C291.927 242.038 291.667 241.61 291.517 241.14L291.48 241.021L291.366 240.193C291.351 239.768 291.442 239.369 291.636 239C291.759 238.613 291.974 238.283 292.274 238C292.557 237.698 292.889 237.485 293.273 237.362C293.61 237.182 293.974 237.092 294.362 237.09V237.09ZM279.184 227.296C279.485 227.287 279.764 227.348 280.026 227.485C280.294 227.573 280.528 227.724 280.725 227.936C281.144 228.269 281.4 228.938 281.4 229.48C281.4 230.022 281.144 230.689 280.725 231.024C280.459 231.291 280.127 231.484 279.764 231.584L279.184 231.662C278.62 231.688 278.046 231.394 277.644 231.024C277.563 230.949 277.486 230.875 277.405 230.803C277.038 230.465 276.88 229.962 276.857 229.48C276.847 229.23 276.902 228.982 277.018 228.76C277.093 228.529 277.226 228.32 277.405 228.156C277.486 228.085 277.563 228.01 277.644 227.936C278.062 227.542 278.61 227.315 279.184 227.296V227.296ZM375.35 209.85C377.478 207.254 376.239 205.406 373.038 206.049C367.528 206.795 362.34 210.282 357.486 212.782C352.187 215.582 346.727 217.894 341.322 220.525C343.552 221.896 345.21 224.041 346.478 226.489C349.006 224.566 352.239 223.647 355.396 223.527C361.121 218.039 370.603 216.782 375.35 209.85V209.85ZM123.799 218.469C124.376 218.471 124.917 218.607 125.425 218.879L125.532 218.939L126.225 219.477C126.563 219.789 126.799 220.157 126.939 220.582C127.153 220.992 127.25 221.436 127.233 221.91C127.253 222.369 127.151 222.825 126.939 223.233C126.799 223.661 126.563 224.028 126.225 224.339C126.031 224.59 125.78 224.791 125.494 224.927C125.218 225.039 124.945 225.155 124.67 225.272C124.363 225.37 124.006 225.383 123.673 225.399C123.077 225.399 122.492 225.24 121.977 224.939L121.297 224.414C120.975 224.119 120.735 223.745 120.6 223.329C120.407 222.965 120.307 222.559 120.308 222.148L120.311 222.032C120.311 222.006 120.311 221.977 120.316 221.948C120.354 221.643 120.397 221.339 120.439 221.033C120.546 220.585 120.75 220.194 121.054 219.862C121.128 219.712 121.235 219.58 121.368 219.477C121.796 219.049 122.301 218.756 122.885 218.59C123.189 218.552 123.494 218.51 123.799 218.469V218.469ZM274.147 209.875L274.245 209.877C274.682 209.877 275.087 209.987 275.465 210.203L275.952 210.582C276.255 210.885 276.462 211.241 276.575 211.651L276.662 212.292C276.672 212.627 276.604 212.935 276.452 213.224C276.356 213.522 276.184 213.79 275.952 214.002C275.736 214.238 275.477 214.404 275.176 214.502C274.89 214.653 274.569 214.725 274.245 214.709C273.811 214.709 273.403 214.599 273.028 214.378C272.865 214.255 272.699 214.128 272.538 214.002C272.268 213.732 272.066 213.401 271.949 213.036L271.919 212.935L271.831 212.292C271.816 211.969 271.888 211.648 272.038 211.362C272.135 211.064 272.307 210.795 272.538 210.582C272.75 210.352 273.018 210.18 273.316 210.084C273.575 209.947 273.853 209.878 274.147 209.875ZM142.738 206.362L142.851 206.364C143.495 206.367 144.095 206.528 144.653 206.853C144.893 207.037 145.133 207.223 145.373 207.412C145.817 207.855 146.121 208.38 146.293 208.988L146.419 209.935C146.439 210.427 146.334 210.885 146.112 211.31C145.971 211.752 145.716 212.149 145.373 212.461C145.061 212.803 144.666 213.057 144.225 213.198C143.803 213.422 143.329 213.529 142.851 213.506C142.207 213.506 141.607 213.343 141.049 213.02C140.81 212.834 140.57 212.647 140.328 212.461C139.893 212.022 139.576 211.48 139.409 210.885L139.284 209.935C139.262 209.457 139.367 208.983 139.59 208.56C139.735 208.118 139.98 207.733 140.327 207.412C140.652 207.06 141.032 206.813 141.477 206.671C141.87 206.465 142.29 206.364 142.738 206.362V206.362ZM262.719 197.444C263.015 197.366 263.31 197.366 263.604 197.444C264.044 197.463 264.457 197.596 264.839 197.839L265.509 198.359C265.518 198.368 265.529 198.377 265.538 198.391C265.943 198.799 266.225 199.283 266.38 199.837L266.498 200.71C266.514 201.161 266.42 201.582 266.216 201.972C266.095 202.341 265.89 202.677 265.616 202.954L265.509 203.058C265.219 203.376 264.852 203.613 264.443 203.746C264.184 203.899 263.902 203.973 263.604 203.973C263.165 204.073 262.707 204.053 262.279 203.914C262.017 203.801 261.75 203.69 261.485 203.58L261.4 203.532C260.399 202.984 259.781 201.835 259.781 200.71C259.781 199.584 260.399 198.433 261.4 197.885C261.429 197.873 261.455 197.856 261.485 197.839C261.868 197.596 262.279 197.463 262.719 197.444V197.444Z" fill="black"/>
<path fill-rule="evenodd" clip-rule="evenodd" d="M259.608 26.8464C242.283 21.7576 182.698 26.9738 181.226 28.0772C178.815 30.0815 167.086 36.4456 165.261 37.899C148.76 55.4046 164.491 81.4015 163.281 102.521C163.358 110.012 160.168 116.852 158.703 124.058C158.083 127.835 158.22 131.741 160.186 135.132C163.645 141.191 170.945 142.419 176.884 144.862C179.838 146.136 182.599 147.941 185.129 149.917C202.169 165.004 211.652 175.336 236.514 171.933C236.642 173.121 237.694 174.287 238.997 173.756C242.05 172.513 245.08 171.194 248.158 170.013C248.816 171.602 250.708 172.054 251.988 170.652L251.996 170.663C257.695 166.034 261.32 159.707 264.011 152.933C265.9 149.014 267.441 144.936 268.617 140.748C268.743 140.335 268.741 139.895 268.612 139.483C274.051 120.722 276.063 100.948 274.632 81.469C274.343 77.4498 273.583 73.3769 273.77 69.3423C273.939 65.696 275.508 62.2461 276.705 58.8499C282.873 44.4135 273.444 31.3921 259.608 26.8464V26.8464Z" fill="#FDFBF5"/>
<path fill-rule="evenodd" clip-rule="evenodd" d="M261.788 3.40649L261.972 3.26377C263.97 1.69383 265.854 -0.36106 268.67 0.409332C270.981 1.0416 272.147 2.95684 272.642 5.26801C273.346 4.53138 274.03 3.7702 274.697 2.9814C276.512 0.840568 280.566 1.95011 281.107 4.67871C282.202 10.1727 282.257 15.765 281.191 21.2682C281.029 22.1036 280.837 22.9328 280.615 23.7543C281.835 22.2419 282.957 20.6523 283.973 18.9954C285.073 17.1876 287.555 18.0838 287.727 20.0129C287.771 20.5132 287.797 21.0181 287.805 21.5276C288.579 21.8007 289.113 22.5987 288.909 23.5778C287.781 28.9636 286.354 34.2823 284.635 39.509C287.395 38.0434 290.49 37.1748 293.403 38.2091C298.03 39.8573 299.133 44.9094 298.228 49.2586C297.092 54.7281 293.513 59.3044 288.9 62.3046C288.352 63.1287 287.811 63.9589 287.296 64.8061C287.293 67.1974 286.846 69.5673 285.977 71.7948C284.992 74.2825 283.254 76.4341 281.116 78.0685C280.365 79.7059 278.374 80.9029 276.627 80.5715L276.535 80.553L276.532 80.5561C276.978 82.1583 277.365 83.7773 277.697 85.3979C280.282 97.9636 278.974 111.042 276.616 123.535L276.541 123.934C274.424 135.053 271.963 146.567 267.176 156.891C262.848 166.226 255.509 174.435 245.02 176.471C232.681 178.868 219.023 175.07 208.411 168.737C204.564 166.439 208.09 160.388 211.92 162.722C217.421 166.086 223.476 168.443 229.803 169.681C235.739 170.835 242.378 171.227 248.072 168.833C256.001 165.499 260.713 157.354 263.693 149.687C265.449 145.163 266.765 140.492 267.99 135.802C269.567 129.772 271.039 123.704 272.144 117.567C274.202 106.122 274.869 94.2344 272.691 82.7553C271.996 79.0531 271.008 75.4122 269.736 71.867C269.526 71.6051 269.337 71.3264 269.173 71.0336C267.834 68.6856 266.911 66.0154 265.915 63.4755C265.041 61.9661 264.095 60.4994 263.081 59.0803C261.569 57.9306 260.142 56.6735 258.811 55.3189C262.641 52.8358 266.021 49.7282 268.452 45.7688C268.854 45.1166 268.599 44.492 268.124 44.1405C266.182 46.5714 263.668 48.6309 261.024 50.4556C259.661 51.6159 258.209 52.6678 256.682 53.6016C255.59 53.818 254.486 53.9669 253.415 54.0896C250.366 54.4365 247.3 54.306 244.268 53.9009C237.71 53.0261 209.973 45.379 198.282 48.3516C195.846 48.9701 194.697 51.1569 193.408 53.2103C192.302 54.971 190.858 56.4943 189.159 57.6915L188.969 57.825C185.631 60.1377 178.921 67.4549 176.099 73.9848C172.458 82.4146 168.96 107.678 170.57 107.896C174.782 108.467 177.116 110.684 180.547 113.066C180.774 113.221 180.641 113.643 180.349 113.536C178.084 112.718 175.635 112.234 173.259 111.84C171.112 111.479 168.849 111.415 166.776 112.184C163.593 113.364 162.041 116.032 161.403 119.043C161.16 120.235 161.035 121.449 161.03 122.665V123.018C161.03 126.853 161.745 131.104 164.527 133.934C165.729 135.15 167.298 135.937 168.992 136.172C170.829 136.419 171.963 135.588 173.651 135.157C175.596 134.66 177.112 135.941 176.931 137.613C177.342 137.972 177.74 138.351 178.136 138.738V138.739L178.139 138.741C178.398 138.857 178.645 139.014 178.869 139.201C179.234 139.513 179.543 139.853 179.789 140.22C180.337 140.327 180.862 140.631 181.293 141.19C182.181 142.335 183 143.492 183.762 144.674C185.125 146.122 186.483 147.576 187.822 149.052C189.432 150.826 191.001 152.64 192.579 154.443L193.369 155.344C194.22 156.314 195.07 157.284 195.918 158.257L196.173 158.542C197.026 159.5 197.681 160.206 197.773 161.584C197.837 162.606 196.739 163.299 195.828 163.066C194.424 162.704 193.773 161.601 192.932 160.506L191.661 158.875L190.466 157.339C189.872 156.573 189.273 155.81 188.677 155.049C188.498 156.453 187.015 157.584 185.661 157.647L185.345 157.66C182.164 157.766 178.299 157.316 175.878 155.071C174.735 156.228 173.322 157.082 171.766 157.555C167.975 158.737 164.099 156.645 162.567 153.462C159.553 154.764 156.179 154.974 153.027 154.056C151.174 153.513 150.535 151.202 151.825 149.788L151.883 149.726L151.898 149.709C151.63 149.352 151.477 148.922 151.461 148.476C151.432 147.915 151.842 147.321 151.757 146.796C151.435 144.799 148.181 146.279 147.147 146.712C146.949 146.794 146.763 146.833 146.592 146.839C144.992 147.305 143.253 145.203 144.092 143.466C145.966 139.588 147.797 135.679 149.696 131.806C149.456 131.888 149.213 131.96 148.967 132.023C145.555 132.9 141.417 131.219 142.204 127.103C142.386 126.137 143.262 125.475 144.128 125.176C145.82 124.593 147.09 125.015 148.392 124.47C149.862 123.859 151.394 122.74 152.684 121.686C154.032 120.58 155.246 119.321 156.303 117.934C156.725 115.945 157.454 114.045 158.619 112.411C158.691 112.312 158.762 112.216 158.837 112.121C151.357 110.336 152.335 102.971 149.036 96.4458L148.757 95.9041C146.516 91.5396 144.561 86.6164 145.69 81.6457C145.892 80.7664 146.184 79.9269 146.559 79.1412C145.961 79.2164 145.357 79.2839 144.757 79.3529C143.38 79.5079 141.981 77.7308 142.529 76.4233C143.584 73.8974 145.091 71.5856 146.977 69.6018C144.664 69.5404 142.348 69.5404 140.059 69.2749C137.897 69.0248 135.627 67.8416 135.693 65.3463C135.76 62.9691 137.845 61.1689 139.777 60.0088C141.681 57.485 144.077 55.375 146.822 53.8073C146.281 53.6849 145.732 53.5957 145.181 53.5402L144.9 53.5157C143.342 53.3929 141.943 52.9632 140.529 52.3125C139.265 51.7294 139.286 49.9568 140.112 49.0652C142.783 46.1739 146.785 47.1162 149.9 48.7721C149.679 48.4922 149.441 48.2266 149.187 47.9772L149.029 47.8268C147.498 46.3995 149.796 44.1129 151.32 45.534C151.802 45.9821 152.233 46.4701 152.618 46.9873L152.654 46.9106C154.67 42.8208 157.616 39.1606 161.102 36.2248L161.921 35.5435C168.21 30.2873 170.148 27.7951 178.509 28.57C178.153 27.0507 178.187 25.3396 178.268 23.9324L178.279 23.7436C178.599 18.4567 180.547 12.1279 185.699 9.75378C187.038 9.13992 188.553 10.1436 188.197 11.6782C187.954 12.7545 187.642 13.8141 187.263 14.8503C188.389 13.6659 189.594 12.5604 190.871 11.5416C196.075 7.38889 203.029 3.81931 209.869 4.98564C213.627 5.63173 216.576 7.99354 219.722 9.96556C222.885 11.9499 226.417 13.1269 230.121 13.552C235.296 14.149 240.489 13.549 245.605 12.6005C249.121 11.0674 252.533 9.27036 255.865 7.33518C257.919 6.15033 259.897 4.83821 261.788 3.40649V3.40649ZM169.914 118.235C171.037 117.956 172.211 117.955 173.335 118.232C176.17 118.945 178.808 121.319 178.973 124.313C179.047 125.665 177.96 126.961 176.696 127.307C175.263 127.703 174.032 127.002 173.196 125.88C172.299 124.68 172.075 123.379 170.977 122.289L170.723 122.042C169.788 121.149 168.377 119.993 167.081 120.201C166.891 120.23 166.748 119.97 166.943 119.866C167.998 119.289 168.691 118.546 169.914 118.235V118.235ZM184.641 104.136C185.141 103.728 185.802 104.207 185.566 104.796L185.547 104.837C184.955 106.088 185.651 107.558 186.371 108.606C186.989 109.51 185.82 110.37 184.997 109.981C182.684 108.881 182.803 105.628 184.641 104.136V104.136ZM193.098 66.5218C193.055 66.2164 193.461 66.0906 193.564 66.3913C195.291 71.4096 195.786 75.8524 195.506 81.1592L195.478 81.6304C195.173 86.7407 194.279 92.1503 191.19 96.3476C190.473 97.3175 189.009 96.7466 189.245 95.5281C190.194 90.6464 192.018 86.0118 192.728 81.0718C193.47 75.9077 193.803 71.6874 193.098 66.5218V66.5218ZM176.966 84.7595C177.219 83.4198 179.277 82.0416 180.317 83.3875C180.667 83.8448 180.256 84.4065 179.834 84.5753C179.438 84.7303 179.085 84.517 178.696 84.5938C178.548 84.625 178.409 84.6887 178.288 84.7803C178.168 84.8718 178.069 84.989 178 85.1232L177.967 85.1815C177.662 85.7647 176.858 85.3304 176.966 84.7595V84.7595ZM176.124 74.0891C176.863 72.7202 178.564 71.8485 180.018 72.7003C180.498 72.9826 180.309 73.8037 179.727 73.7776L179.381 73.7622C178.345 73.7254 177.306 73.7469 176.435 74.4037C176.24 74.5495 176.027 74.2733 176.124 74.0891ZM178.72 36.7083C174.576 34.8437 170.455 36.5272 167.072 39.153C166.791 39.3693 166.656 39.6241 166.627 39.8788C168.885 38.998 171.291 38.4209 173.59 37.9452C175.461 37.551 177.359 37.2976 179.268 37.1871C179.143 36.9714 178.951 36.8031 178.72 36.7083V36.7083Z" fill="black"/>
<path fill-rule="evenodd" clip-rule="evenodd" d="M236.981 148.769C234.783 147.871 232.868 146.397 231.438 144.501C231.219 144.223 231.06 143.903 230.97 143.56C230.881 143.218 230.864 142.86 230.919 142.511C231.036 141.794 231.459 141.146 232.036 140.711C232.614 140.275 233.338 140.06 234.038 140.169C234.646 140.264 235.251 140.597 235.731 141.289L235.83 141.427C236.664 142.569 237.762 143.491 239.03 144.114C240.257 144.718 241.631 144.959 242.99 144.811C245.656 144.51 247.492 143.068 249.444 141.108C249.686 140.861 249.929 140.606 250.171 140.347C250.313 140.127 250.527 139.963 250.775 139.882C251.045 139.797 251.335 139.8 251.603 139.892C251.871 139.984 252.102 140.159 252.263 140.391C252.412 140.611 252.498 140.882 252.47 141.195C252.291 143.226 251.231 145.037 249.725 146.459C248.051 148.04 245.834 149.133 243.746 149.516C241.447 149.938 239.103 149.636 236.981 148.769V148.769ZM244.832 117.45C247.278 118.94 251.007 122.411 248.375 126.102C245.275 129.356 240.815 125.625 238.617 123.937C236.579 122.629 234.288 125.993 236.179 127.52C252.065 139.293 258.511 117.84 246.07 115.7C244.699 115.464 244.191 116.99 244.832 117.45V117.45ZM216.366 103.756C216.636 100.397 221.746 99.6343 222.255 102.958C222.709 105.936 222.174 108.672 220.834 111.353C219.554 113.913 216.337 112.719 216.093 110.386C215.766 107.26 216.197 105.847 216.366 103.756V103.756ZM255.269 102.269C255.982 101.335 257.011 100.698 258.243 101.057C262.094 102.185 260.959 107.657 259.607 110.322C258.872 111.767 256.496 112.134 255.422 110.86C253.674 108.784 252.835 104.636 255.061 102.588C255.12 102.484 255.188 102.377 255.269 102.269ZM220.78 89.059L221.389 88.9516C223.271 88.6263 225.61 88.3132 226.941 89.8264C227.648 90.6305 227.89 92.1237 226.941 92.8926C225.272 94.2431 223.426 93.7213 221.426 93.8349C219.793 93.9284 218.176 94.2043 216.605 94.6574C213.12 95.6549 210.281 97.4735 207.306 99.4716C206.916 99.7325 206.518 99.2337 206.703 98.8685C208.421 95.5 211.749 92.7345 215.084 91.0479C216.864 90.1471 218.811 89.4013 220.78 89.059ZM251.758 87.5505L252.225 87.6456C257.292 88.7045 263.875 90.8224 266.274 95.8053C266.366 96.5097 266.269 96.6601 266.191 96.7584L266.165 96.7921C266.099 96.8765 266.048 96.9916 265.743 97.0883C265.657 97.0677 265.571 97.0462 265.485 97.0238C264.386 96.7353 263.516 96.3379 262.674 95.925L261.76 95.4754C260.7 94.9536 259.631 94.4533 258.498 94.0835C256.082 93.2914 253.593 92.7413 251.068 92.4414C250.53 92.3879 250.015 92.1919 249.577 91.8736C249.16 91.5603 248.865 91.1116 248.743 90.6044C248.565 89.8878 248.617 89.346 249.001 88.6984C249.289 88.2135 249.703 87.8774 250.177 87.684C250.68 87.4854 251.23 87.439 251.758 87.5505V87.5505Z" fill="black"/>
</svg>
