<svg width="460" height="440" viewBox="0 0 460 440" fill="none" xmlns="http://www.w3.org/2000/svg">
<path fill-rule="evenodd" clip-rule="evenodd" d="M359.127 275.44C357.869 271.989 359.705 268.546 360.724 265.207C364.341 253.63 368.292 242.051 373.879 231.254C375.996 227.64 372.513 223.211 368.477 224.229C361.57 225.196 354.447 224.426 347.527 223.998C344.996 217.453 338.241 214.736 332.924 210.966C326.892 207.203 321.025 202.877 314.75 199.578C314.402 196.459 310.619 195.686 308.307 197.916C301.955 193.966 294.337 194.7 287.528 192.111C282.354 183.75 281.966 174.957 280.597 166.892C279.998 163.375 280.633 159.983 278.229 156.848C270.157 145.496 238.261 140.573 226.5 147.3C220.17 143.353 220.017 150.503 219.013 154.915C217.894 157.122 217.29 159.623 217.477 162.256C210.678 176.456 195.121 182.875 181.189 188.077C179.441 186.394 176.943 186.608 175.28 187.999C163.205 190.623 151.485 195.238 141.366 202.442C129.871 205.804 121.777 215.151 115.922 225.174C115.278 226.23 115.125 227.307 115.313 228.297C97.3125 254.68 88.7216 286.265 87.5133 318.164C75.9376 325.111 93.0152 387.512 96.9925 400.467L97.0038 400.461C99.5834 405.027 102.511 418.056 108.966 417.047C113.394 422.054 120.451 421.069 126.458 421.453C125.481 425.207 125.962 429.502 127.127 433.21C128.504 437.624 135.265 437.774 136.224 432.96C196.061 444.585 257.455 435.311 317.964 437.055C335.46 437.18 352.953 437.721 370.407 438.967C372.864 439.143 375.356 436.631 375.188 434.185C371.436 394.27 367.913 341.761 363.716 302.237C362.722 293.223 361.934 284.111 359.127 275.44V275.44Z" fill="#FDFBF5"/>
<path fill-rule="evenodd" clip-rule="evenodd" d="M219.998 149.763C220.171 149.295 220.87 149.358 220.883 149.882C221.159 161.105 218.364 174.821 209.383 182.4C204.771 186.292 198.676 188.073 193.078 190.119L192.447 190.352L182.555 194.036C179.932 195.014 177.103 196.517 174.786 195.135C176.661 199.784 178.235 204.562 180.519 209.042C183.36 214.619 186.798 219.722 191.004 224.363C207.667 242.749 234.04 248.358 257.707 242.971C269.892 240.196 281.752 234.939 290.067 225.35C296.385 218.06 300.015 208.278 300.871 198.628C300.612 198.67 300.346 198.663 300.089 198.607C297.095 197.954 294.072 196.349 291.438 194.774L291.184 194.622C288.648 193.097 286.006 191.348 284.186 188.978C282.379 186.623 280.483 178.944 280.483 178.944C279.966 176.057 279.481 170.306 279.565 167.389C279.572 167.113 280.794 166.95 280.924 167.236C282.053 169.714 282.419 175.156 283.29 177.734L283.464 178.249C284.396 180.941 285.193 184.219 287.121 186.394C290.745 190.481 296.209 192.211 301.085 194.261C301.436 189.642 308.813 189.75 308.72 194.567C308.714 194.829 308.703 195.088 308.693 195.349C309.277 195.669 309.835 196.034 310.358 196.387L310.87 196.733C312.801 198.047 314.748 199.296 316.805 200.411C320.786 202.569 325.004 204.28 329.084 206.239C333.198 208.2 337.086 210.604 340.678 213.409C342.372 214.736 343.993 216.152 345.534 217.653L345.951 218.064C347.417 219.523 349.324 221.155 350.159 223.073C350.343 223.497 351.265 224.479 351.765 224.513C359.519 225.02 367.254 225.738 374.959 226.815C376.953 227.093 377.743 228.121 377.004 229.783C374.472 235.496 364.553 258.307 361.915 264.428C362.224 268.926 361.807 274.222 362.085 278.72C362.491 285.284 363.023 291.847 363.659 298.395C365.942 321.813 369.398 345.117 372.523 368.433C374.085 380.103 375.512 391.788 376.919 403.477C377.933 411.843 378.7 420.238 379.22 428.65L379.352 430.844C379.538 433.606 379.96 436.244 378.25 438.614C377.476 439.689 375.705 440.295 374.686 439.074C373.406 437.539 372.928 436.39 372.807 434.374C372.712 432.83 372.69 431.277 372.62 429.733C372.468 426.381 372.277 423.032 372.053 419.683C371.609 412.991 371.092 406.304 370.504 399.623C368.434 376.198 364.496 352.95 361.877 329.582C360.547 317.808 359.628 305.992 359.121 294.154C358.873 288.239 358.782 282.324 358.841 276.403C358.864 274.192 358.968 271.991 359.12 269.795C355.198 278.704 351.076 287.523 346.756 296.246L345.733 298.309C343 303.814 340.193 309.341 336.909 314.531L336.343 315.415C335.013 317.524 333.195 320.848 330.767 321.514C329.076 321.978 327.012 321.651 325.277 321.618C323.557 321.584 321.835 321.579 320.116 321.509C318.213 321.444 316.324 321.164 314.485 320.674C314.188 320.6 313.898 320.504 313.616 320.386C311.739 323.458 308.548 325.798 305.286 327.161C302.674 328.251 299.936 329.001 297.193 329.693L296.226 329.936C293.286 330.668 289.923 331.017 288.264 333.856L287.879 334.513C286.646 336.608 285.464 338.446 283.423 339.947C281.227 341.564 278.625 342.58 276.032 343.372C273.379 344.182 270.663 344.803 267.968 345.467L267.233 345.649C265.455 346.094 263.659 346.502 261.89 346.987C261.13 347.187 260.375 347.412 259.629 347.661C258.762 347.958 258.133 348.424 257.449 348.929C256.834 351.076 254.207 352.242 252.048 352.092C250.953 352.004 249.897 351.651 248.97 351.064C247.353 352.44 245.574 353.673 243.926 354.947C236.864 360.409 229.703 365.744 222.447 370.947C213.766 377.148 204.91 383.1 195.89 388.797C192.124 391.192 188.336 393.551 184.525 395.875L184.932 396.024L185.741 396.331C187.654 397.045 189.784 398.197 190.154 400.429C190.449 402.197 189.46 403.416 187.714 403.632C185.637 403.889 184.021 402.422 182.728 401.021C182.159 400.404 181.519 399.831 180.972 399.195C180.753 398.929 180.57 398.636 180.428 398.322C176.668 400.551 172.847 402.678 168.972 404.701L168.004 405.199C158.402 410.109 149.055 415.487 139.371 420.257C136.847 421.501 133.765 422.847 130.557 423.765C131.409 427.066 131.394 430.691 131.417 434.041C131.436 437.306 126.246 437.291 126.356 434.041L126.409 432.472C126.504 429.833 126.657 427.094 127.284 424.526C117.826 426.095 108.377 422.686 106.618 421.662C104.676 420.533 102.913 418.728 101.447 417.05C98.3071 413.463 96.129 409.163 94.1972 404.838C90.0571 395.574 87.1234 385.672 84.9794 375.768C77.0741 339.256 80.4737 300.178 93.3127 265.178C96.5205 256.423 100.307 247.891 104.646 239.637L105.186 238.619C109.515 230.468 114.328 222.348 120.442 215.41C126.809 208.187 134.665 202.567 143.216 198.206C147.391 196.091 151.684 194.219 156.074 192.599C156.779 192.336 157.489 192.099 158.201 191.876C162.775 188.959 168.326 186.171 173.879 186.28C174.218 186.281 174.544 186.412 174.79 186.646C175.059 186.693 175.326 186.75 175.593 186.827C176.186 187 176.811 187.647 176.726 188.313L176.697 188.535C176.683 188.641 176.66 188.747 176.627 188.849C176.826 188.879 177.021 188.927 177.212 188.991C182.525 187.492 187.752 185.198 192.938 183.346L194.118 182.93C198.46 181.408 202.917 179.916 206.478 176.905C210.023 173.91 212.688 170.03 214.614 165.835C216.987 160.668 218.049 155.068 219.998 149.763V149.763ZM326.377 422.334C327.428 421.552 328.673 422.46 329.067 423.428C330.358 426.608 329.72 431.546 327.898 434.357C326.012 437.268 321.493 436.119 321.383 432.591C321.269 428.915 323.407 424.544 326.377 422.334ZM337.243 334.566C337.337 334.153 337.979 334.157 338.076 334.566C338.951 338.295 338.932 342.311 339.188 346.135L339.218 346.559C339.527 350.777 339.786 355.005 339.97 359.23C340.518 371.664 341.205 384.092 342.029 396.511C342.892 396.03 343.782 395.606 344.705 395.233C346.085 394.676 347.43 394.612 348.915 394.627C350.722 394.646 352.082 396.234 351.843 398.006C351.582 399.933 349.885 400.758 348.121 400.484C346.169 400.179 344.209 399.706 342.237 399.509C342.457 402.691 342.682 405.875 342.923 409.055C343.243 413.265 343.657 417.471 343.951 421.682C343.978 422.084 344.008 422.487 344.038 422.89C345.214 422.279 346.462 421.966 347.877 421.58L348.246 421.478C350.299 420.887 352.498 420.072 354.4 421.453C355.676 422.381 355.932 423.91 354.873 425.135C353.269 426.992 350.892 426.632 348.676 426.538L347.483 426.494C346.358 426.451 345.322 426.379 344.282 426.095C344.474 428.838 344.574 431.594 344.237 434.297C344.055 435.758 342.131 436.142 341.621 434.651C340.29 430.755 340.015 426.553 339.529 422.472C339.074 418.659 338.798 414.821 338.5 410.991L338.409 409.844C337.741 401.421 337.205 392.994 336.813 384.553C336.423 376.117 336.183 367.675 336.093 359.23C336.049 355.395 336.114 351.545 336.263 347.71L336.311 346.559C336.483 342.616 336.364 338.431 337.243 334.566V334.566ZM161.419 422.956C161.47 422.417 161.902 421.747 162.544 421.832C163.135 421.908 163.745 421.872 164.33 421.968C165.103 422.097 165.726 422.553 166.443 422.841C167.612 423.308 168.885 423.549 170.084 423.931C172.332 424.649 173.557 427.015 172.625 429.224C171.646 431.548 169.186 432.074 167.061 431.1C165.385 430.331 164.135 429.103 163.008 427.683L162.69 427.276C162.203 426.666 161.652 425.985 161.449 425.245C161.25 424.524 161.349 423.689 161.419 422.956V422.956ZM270.652 412.034C273.453 411.641 275.845 412.596 278.436 413.499L278.646 413.573C281.282 414.484 285.131 415.112 286.483 417.811C287.298 419.439 286.665 421.601 284.746 422.082C281.707 422.845 278.981 420.622 276.468 419.127L276.335 419.049C273.911 417.63 271.407 416.435 269.858 413.984C269.445 413.331 269.803 412.154 270.652 412.034V412.034ZM172.892 189.362C171.771 189.614 170.65 189.835 169.529 190.049C165.265 192.334 161.127 194.704 156.726 196.741C152.055 198.9 147.402 201.13 142.964 203.744C134.002 209.022 126.614 215.885 120.51 224.299C109.964 238.831 102.12 255.591 96.504 272.594C95.0626 276.963 93.7702 281.38 92.629 285.837C94.648 283.969 97.0381 282.822 99.7199 281.839C100.856 281.423 102.269 282.127 102.845 283.111C103.104 283.552 103.25 283.99 103.224 284.506C103.163 285.65 102.419 286.95 101.192 287.175C98.3279 287.703 95.5419 288.731 92.7824 289.634C92.6096 289.699 92.425 289.725 92.2411 289.712C92.0571 289.699 91.8781 289.647 91.7162 289.558C88.9641 301.174 87.2691 313.015 86.6518 324.937C86.1434 335.058 86.4519 345.204 87.5741 355.276C88.4321 354.89 89.273 354.526 90.2143 354.309C91.4359 354.023 92.6385 353.678 93.8298 353.288C97.2692 352.16 98.8374 357.835 95.3222 358.7C94.0154 359.022 92.6972 359.291 91.3639 359.486C90.2029 359.656 89.1764 359.58 88.0817 359.402C88.9141 365.683 90.0601 371.917 91.5154 378.083L91.8374 379.429C93.7275 387.289 95.9321 395.22 99.1196 402.646C100.682 406.289 102.752 409.748 105.307 412.786C106.563 414.279 107.959 415.559 109.478 416.772C110.741 417.783 115.042 419.973 120.137 419.973C125.229 419.973 126.608 419.49 129.178 418.606C134.26 416.857 139.084 414.065 143.851 411.578L144.343 411.323C146.451 410.232 148.551 409.127 150.644 408.01C150.379 405.877 150.843 404.084 151.955 402.112C153.157 399.98 156.137 401.042 156.358 403.223L156.366 403.306C156.4 403.798 156.481 404.3 156.584 404.8C170.585 397.132 184.29 388.926 197.777 380.376C206.468 374.867 215.053 369.193 223.527 363.357C229.98 358.912 236.344 354.339 242.614 349.639C243.512 348.967 244.392 348.261 245.292 347.585C245.077 347.315 244.864 347.042 244.654 346.767C241.292 342.366 239.112 337.121 238.025 331.709C237.368 328.444 237.051 325.054 236.955 321.726L236.913 320.278C236.847 317.838 236.828 315.287 237.279 312.922C236.667 313.259 236.042 313.589 235.419 313.941C233.182 315.207 230.945 316.472 228.705 317.729C224.225 320.257 219.709 322.722 215.157 325.12C207.015 329.387 198.794 333.443 190.349 337.08L186.241 338.849C179.11 341.916 171.923 344.927 164.508 347.207C160.337 348.477 156.122 349.599 151.871 350.572L153.585 352.58C154.748 353.943 154.769 355.897 153.282 357.044C151.822 358.172 149.862 357.703 148.889 356.205L147.112 353.476C146.767 352.958 146.524 352.379 146.396 351.77C144.44 352.179 142.481 352.572 140.519 352.951L136.807 353.659C131.504 354.683 126.362 356.709 121.621 359.302C119.974 360.203 119.515 358.452 121.262 357.233C126.366 353.665 132.32 351.645 138.464 349.951L138.765 349.868C141.019 349.251 143.269 348.607 145.515 347.941C145.252 347.018 145.13 346.06 145.154 345.1C145.216 342.824 145.419 340.54 145.538 338.266C145.792 333.493 146.116 328.734 146.495 323.969C146.64 322.133 146.805 320.293 146.991 318.453C145.788 317.808 144.748 316.952 143.407 316.53L143.18 316.464C141.745 316.078 142.229 314.229 143.504 314.07C144.653 313.931 145.817 313.987 146.947 314.236C147.123 314.276 147.29 314.318 147.451 314.367C147.659 312.663 147.892 310.963 148.156 309.275C148.853 304.81 149.347 300.108 150.798 295.818C150.906 295.5 151.377 295.387 151.551 295.72C153.663 299.737 153.737 304.664 153.976 309.137L154.004 309.672C154.284 314.552 154.301 319.479 154.212 324.365C154.118 329.402 153.947 334.426 153.72 339.457C153.629 341.482 153.633 343.584 153.286 345.522C165.854 341.437 178.199 336.548 190.032 330.759C198.382 326.675 206.652 322.429 214.835 318.022C218.934 315.815 223.051 313.642 227.146 311.427C228.582 310.649 230.015 309.871 231.447 309.089L233.597 307.918C235.608 306.822 237.286 305.729 239.629 305.652C239.964 305.648 240.297 305.717 240.602 305.855C240.908 305.993 241.18 306.196 241.398 306.451C242.656 305.559 244.112 305.01 245.638 305.023C247.927 301.841 250.28 298.707 252.697 295.621L254.489 293.342C257.591 289.407 260.877 285.415 264.834 282.42C266.601 281.084 268.542 280.083 270.568 279.254C270.059 279.13 269.591 278.876 269.209 278.517C267.275 276.725 267.008 273.393 266.614 270.891C266.207 268.296 266.364 265.973 266.767 263.385C266.924 262.38 268.589 262.17 268.996 263.094C269.853 265.042 270.76 266.906 271.538 268.875L271.769 269.469C272.606 271.686 274.388 274.018 274.269 276.422C274.245 277.033 274.039 277.623 273.676 278.116C275.377 277.552 277.101 277.048 278.799 276.524C284.144 274.873 289.508 273.268 294.957 271.987C296.406 271.646 297.864 271.33 299.326 271.038C300.093 267.4 301.21 263.828 302.527 260.321C301.281 259.683 300.474 258.612 299.398 257.659C298.394 256.766 297.703 255.681 296.845 254.655C296.065 253.724 296.504 252.041 297.906 252.096L298.303 252.111C299.758 252.18 301.165 252.331 302.483 253.009L302.953 253.251C303.597 253.584 304.301 253.968 304.928 254.421C305.748 252.532 306.602 250.661 307.464 248.812L308.584 246.418C311.487 240.188 314.381 233.722 318.023 227.92C319.642 225.342 321.798 223.731 324.892 223.481C328.078 223.226 331.39 223.557 334.58 223.671C338.279 223.803 341.976 223.96 345.671 224.153C344.724 223.162 343.86 222.058 342.907 221.106C341.33 219.523 339.66 218.035 337.907 216.648C334.438 213.913 330.621 211.657 326.659 209.714C322.695 207.772 318.614 206.078 314.892 203.68C312.538 202.162 310.434 200.25 308.513 198.183C307.305 211.221 301.008 223.334 291.548 232.435C281.722 241.886 268.144 247.08 254.862 249.287C241.313 251.542 227.173 250.714 214.212 246.005C207.464 243.553 201.124 240.099 195.406 235.759C195.343 236.137 195.267 236.51 195.118 236.862C194.919 237.335 194.674 237.739 194.396 238.153L193.898 238.882C193.589 239.343 193.257 239.789 192.906 240.218C192.042 241.246 190.818 241.697 189.5 241.693C186.976 241.683 185.065 239.209 185.743 236.762C186.171 235.223 187.084 234.297 188.51 233.695C188.96 233.504 189.419 233.345 189.883 233.188L190.229 233.071C190.695 232.912 191.157 232.758 191.64 232.671C188.933 230.293 186.434 227.687 184.173 224.882C177.12 216.092 170.163 203.782 172.521 192.109C172.563 191.908 172.743 191.781 172.938 191.751C173.074 190.931 173.51 190.138 174.108 189.606C173.708 189.501 173.302 189.419 172.892 189.362V189.362ZM246.133 391.192C247.529 390.416 248.972 392.261 247.837 393.401L246.142 395.097C244.568 396.677 243.038 398.273 241.692 400.075L241.366 400.514C239.548 402.986 237.61 405.852 234.633 406.776C231.031 407.893 227.568 403.507 229.654 400.302C231.476 397.501 234.985 396.444 238.01 395.286C240.871 394.192 243.457 392.679 246.133 391.192ZM129.934 378.269C130.756 377.194 132.894 377.76 132.334 379.28C130.513 384.216 129.771 390.948 125.173 394.226C123.688 395.284 121.358 394.798 120.135 393.577C118.748 392.189 118.692 390.234 119.487 388.542C120.453 386.476 122.835 384.979 124.506 383.406L124.656 383.262C126.451 381.519 128.392 380.287 129.934 378.269V378.269ZM322.15 383.949C323.616 383.319 327.434 382.091 328.565 383.544C328.617 383.596 328.663 383.655 328.699 383.719C328.976 384.201 329.017 384.881 328.699 385.36C327.381 387.342 326.008 388.82 324.133 390.23L323.923 390.385C321.883 391.886 319.964 393.647 317.479 394.324C314.032 395.261 311.625 390.947 314.046 388.428C315.996 386.399 318.972 385.345 321.555 384.213L322.15 383.949V383.949ZM183.752 355.745C183.176 354.704 184.354 353.427 185.421 354.078C188.464 355.937 192.01 357.332 195.426 358.335C196.811 358.74 198.057 360.143 197.955 361.655L197.94 361.884C197.898 362.418 197.824 362.948 197.485 363.393C196.294 364.949 194.591 365.549 192.773 364.627C188.72 362.575 185.945 359.707 183.752 355.745V355.745ZM272.692 352.59C272.618 352.153 272.938 351.814 273.385 351.899C275.955 352.385 278.33 353.627 280.538 355.056C281.724 355.821 282.866 356.662 284.048 357.436C285.508 358.39 286.053 359.179 286.269 360.93C286.411 362.087 285.332 363.143 284.341 363.463C281.642 364.333 278.549 361.477 276.722 359.622L276.639 359.539C274.726 357.587 273.146 355.282 272.692 352.59ZM349.93 349.559C349.343 347.977 351.364 346.665 352.684 347.443C353.928 348.174 355.279 348.781 356.451 349.62C357.531 350.39 358.513 351.305 359.548 352.139L360.059 352.544C361.955 354.068 365.085 357.839 362.373 360.025C359.794 362.107 356.371 359.45 354.638 357.506L354.517 357.368C353.521 356.217 352.292 354.965 351.57 353.622C350.888 352.355 350.426 350.903 349.93 349.559ZM324.477 227.042C321.245 227.668 319.926 231.659 318.565 234.26C315.353 240.396 312.398 246.645 309.43 252.903C308.517 254.828 307.627 256.768 306.731 258.702C306.676 258.854 306.604 259.003 306.523 259.151C304.684 263.109 302.79 267.041 300.578 270.798C302.603 270.419 304.638 270.096 306.682 269.84C306.58 267.917 307.896 265.343 308.548 263.722L308.603 263.586C309.415 261.511 310.267 258.242 312.358 257.165C313.055 256.806 313.801 257.256 313.854 258.023C314.013 260.308 311.779 262.922 310.686 264.86C310.025 266.034 309.381 267.211 308.754 268.404C308.519 268.848 308.322 269.288 308.082 269.679C309.135 269.566 310.19 269.464 311.248 269.39L311.938 269.342C315.86 269.085 320.025 269.011 323.568 270.944C326.856 272.738 328.538 276.566 326.731 280.052C324.481 284.397 319.527 284.972 315.169 285.324C309.726 285.763 304.271 286.556 298.868 287.329C293.277 288.127 288.013 290.189 282.506 291.247C281.995 291.345 281.676 290.675 282.146 290.389C286.489 287.747 291.769 286.291 296.625 284.809L297.019 284.69C299.652 283.882 302.228 282.956 304.953 282.498C307.598 282.053 310.258 281.692 312.926 281.417L313.186 281.393C316.123 281.146 323.618 281.232 323.301 276.882C323.091 274.005 318.413 273.507 316.277 273.473C306.483 273.316 296.621 275.915 287.315 278.699L285.237 279.322C281.424 280.469 277.61 281.648 273.87 282.992C269.633 284.516 266.294 286.889 263.209 290.14C259.786 293.742 256.472 297.427 252.923 300.908C250.684 303.098 248.421 305.262 246.133 307.399C245.584 308.095 245.171 308.888 244.917 309.737C244.434 311.329 244.546 312.811 244.728 314.446C245.188 318.578 245.29 322.754 245.866 326.873C246.4 330.689 247.148 334.645 248.733 338.185C249.36 339.588 250.176 340.964 251.108 342.196L251.858 343.171C252.186 343.595 252.551 344.059 252.936 344.496C253.5 343.807 254.317 343.36 255.265 343.472C257.281 343.708 258.866 343.652 260.843 343.19C262.375 342.83 263.894 342.412 265.417 342.024C268.409 341.259 271.43 340.564 274.392 339.688L274.902 339.535C277.11 338.859 279.318 338.011 281.156 336.585C283.29 334.929 283.947 332.54 285.529 330.475C288.904 326.065 296.199 326.158 301.14 324.948C305.337 323.922 309.379 322.302 312.284 319.256L312.453 319.076C312.324 318.531 312.532 317.918 313.038 317.638L313.148 317.575C313.337 317.471 313.55 317.418 313.765 317.424C314.034 317.028 314.296 316.619 314.531 316.184C314.726 315.826 315.212 316.089 315.148 316.443C315.11 316.655 315.057 316.862 315.008 317.07C317.822 316.345 320.913 316.483 323.769 316.485L327.477 316.472C328.12 316.464 329.076 316.432 329.161 316.394L329.248 316.354C329.479 316.254 329.152 316.421 329.313 316.207C329.491 315.97 329.665 315.73 329.837 315.489C330.453 314.63 331.034 313.744 331.603 312.851C325.394 314.431 318.96 315.415 312.621 316.237C305.818 317.117 298.926 317.729 292.065 317.734C290.173 317.738 290.19 314.882 292.065 314.81C299.332 314.533 306.561 314.147 313.779 313.216C318.953 312.545 324.096 311.657 329.195 310.554L330.26 310.324C330.928 310.176 332.815 309.962 333.735 309.345L334.277 308.414C334.188 307.323 331.417 307.469 330.765 307.469C328.924 307.465 327.08 307.48 325.237 307.484C321.551 307.496 317.868 307.463 314.18 307.433C306.817 307.374 299.424 307.117 292.067 307.431C290.281 307.507 289.343 304.643 291.108 303.89C298.902 300.562 307.553 299.841 315.875 298.817C320.252 298.279 324.629 297.658 328.907 296.57L329.966 296.301C332.654 295.612 335.621 294.773 337.885 293.13C334.483 291.756 330.254 291.913 326.729 291.718L326.459 291.703C321.521 291.398 316.576 291.243 311.629 291.237C301.508 291.222 291.385 291.582 281.275 292.061C281.021 292.072 280.968 291.673 281.214 291.62C291.606 289.352 302.167 288.26 312.801 288.092C317.752 288.014 322.707 288.084 327.656 288.302L329.472 288.387C333.69 288.568 338.371 288.618 341.902 291.164C342.44 291.552 342.724 292.048 342.767 292.572C347.502 283.138 351.873 273.507 356.263 263.938C359.676 256.499 362.962 248.996 366.498 241.615L367.644 239.226C369.176 236.041 370.748 232.853 372.493 229.783C365.97 228.91 359.411 228.306 352.849 227.843C346.868 227.421 327.356 226.484 324.477 227.042V227.042ZM321.589 329.296C322.332 328.883 323.472 329.22 323.656 330.136C323.792 330.82 324.025 331.577 324.025 332.275C324.025 333.114 323.726 334.023 323.567 334.84C323.199 336.724 322.746 338.253 321.79 339.93C321.19 340.981 319.981 341.693 318.765 341.664C317.803 341.643 316.949 341.384 316.288 340.64C315.498 339.747 314.955 338.435 315.388 337.233C316.525 334.083 318.616 330.947 321.589 329.296V329.296ZM163.82 326.156C165.561 323.106 169.686 320.382 173.286 320.653C178.692 321.058 179.796 328.334 174.561 330.072C171.432 331.109 167.129 330.044 164.39 328.336C164.032 328.117 163.772 327.767 163.666 327.361C163.56 326.954 163.615 326.522 163.82 326.156ZM108.258 315.741C107.862 315.167 108.515 314.511 109.104 314.639C110.411 314.927 111.82 315.052 113.101 315.442C114.409 315.839 115.678 316.502 116.976 316.956C119.695 317.908 122.601 318.385 125.233 319.536C126.284 319.996 127.112 321.518 127.014 322.642L126.989 322.904C126.932 323.462 126.834 323.949 126.523 324.458C125.686 325.824 124.025 326.53 122.46 326.11C119.553 325.33 116.716 323.326 114.239 321.66L113.781 321.355C112.697 320.644 111.534 319.898 110.661 318.98C109.752 318.022 109.004 316.827 108.258 315.741V315.741ZM208.129 304.656C207.794 303.452 209.294 302.655 210.167 303.469C211.911 305.095 213.737 306.604 215.445 308.27L215.561 308.383C216.784 309.614 218.567 311.984 216.974 313.576C214.934 315.614 212.093 312.589 210.998 311.013C209.612 309.012 208.779 306.996 208.129 304.656V304.656ZM341.693 294.7C339.104 297.442 335.116 298.703 331.603 299.748C327.438 300.984 323.148 301.724 318.852 302.332C314.701 302.919 310.584 303.445 306.498 304.119C309.587 304.156 312.678 304.179 315.76 304.236C319.315 304.3 322.868 304.376 326.423 304.48C329.01 304.554 332.048 304.2 334.508 305.162C334.951 305.334 335.364 305.574 335.726 305.866C337.792 302.185 339.781 298.462 341.693 294.7V294.7ZM181.987 269.058C184.688 268.201 187.229 267.061 190.093 267.357C190.856 267.434 191.4 268.176 190.985 268.909C189.629 271.298 187.421 272.645 185.246 274.243L185.057 274.385C182.655 276.154 180.143 277.768 177.536 279.218C173.082 281.716 169.089 274.565 173.589 272.466C176.296 271.203 179.139 269.963 181.987 269.058V269.058ZM230.642 262.85C234.777 263.12 238.909 263.306 243.048 263.473C247.843 263.667 246.231 271.044 242.226 269.553C238.267 268.076 234.311 266.62 230.318 265.244C229.103 264.824 229.199 262.829 230.565 262.846L230.642 262.85V262.85ZM124.597 249.724C125.669 249.649 126.75 249.883 127.822 249.988L128.964 250.097C131.318 250.332 133.525 250.62 135.771 251.578C139.913 253.346 137.688 260.003 133.529 259.851C130.457 259.738 127.828 258.419 125.233 256.881C122.964 255.539 121.574 253.859 120.042 251.75C119.534 251.051 120.241 250.268 120.932 250.198C122.15 250.075 123.379 249.81 124.597 249.724V249.724ZM332.231 236.128C331.543 240.39 329.846 244.427 327.281 247.902C325.993 249.656 323.729 249.723 322.453 247.902C320.646 245.327 321.76 242.378 323.121 239.906L323.523 239.181C324.133 238.096 325.068 236.512 326.138 235.418L326.156 235.306C326.729 230.83 332.936 231.723 332.231 236.128V236.128ZM165.004 208.685C166.034 207.757 167.932 208.035 168.267 209.546C168.735 211.662 169.019 214.045 168.712 216.194C168.548 217.356 168.485 218.664 168.027 219.749C167.534 220.915 166.587 221.812 165.697 222.688C163.917 224.439 160.161 223.86 159.686 221.102L159.625 220.763C159.385 219.459 159.076 218.064 159.432 216.769C159.701 215.792 160.301 214.799 160.796 213.892L160.9 213.699C161.894 211.851 163.442 210.089 165.004 208.685V208.685ZM309.887 213.186L310.26 213.19C313.137 213.247 318.396 213.947 318.424 217.502C318.43 218.338 317.811 219.207 316.978 219.4C315.258 219.798 314.146 218.783 312.921 217.755C311.905 216.917 310.762 216.245 309.536 215.764C308.226 215.244 308.311 213.184 309.887 213.186Z" fill="black"/>
<path fill-rule="evenodd" clip-rule="evenodd" d="M319 108.884C316.49 90.782 310.752 73.2084 309.928 54.8379L308.458 31.2524C308.273 26.3404 301.892 24.6841 299.454 29.034C293.917 22.8934 283.998 23.7963 276.432 23.9837C231.886 25.5624 189.555 55.6745 174.263 97.6608C173.896 98.6621 174.007 99.7278 174.422 100.68C167.295 124.445 192.502 139.745 209.693 150.342C216.667 157.711 224.864 163.833 234.119 168.025C244.859 173.055 256.527 175.802 268.384 176.093C270.966 176.151 272.517 174.064 272.704 171.904C276.458 171.029 282.881 172.038 284.865 168.194C307.498 158.364 322.246 133.452 319 108.884V108.884Z" fill="#FDFBF5"/>
<path fill-rule="evenodd" clip-rule="evenodd" d="M308.408 44.6942C308.344 44.1074 309.192 44.0885 309.366 44.5636C310.8 48.4724 312.287 52.3529 313.423 56.3582C314.52 60.2197 315.308 64.1683 316.107 68.0998C317.433 74.6246 318.573 81.1987 319.514 87.7916C321.529 86.2205 324.164 86.0766 326.645 87.2994C327.81 87.8749 328.257 89.393 327.976 90.5704C327.753 91.5149 327.478 92.4557 327.149 93.3756C327.853 93.9984 328.45 94.765 328.883 95.6471C330.026 97.9678 329.658 100.402 328.633 102.617C328.711 102.747 328.789 102.882 328.861 103.022C330.344 105.901 329.55 108.481 328.467 111.292C327.656 113.393 328.109 115.761 326.359 117.349C325.763 119.319 324.795 121.157 323.507 122.763C323.201 123.31 322.756 123.767 322.217 124.088C322.098 127.18 321.739 130.258 321.143 133.295C318.764 145.127 311.215 155.671 301.87 163.108C292.724 170.384 281.984 174.732 270.395 176.139C264.766 176.822 259.132 176.606 253.55 175.631L252.855 175.508C247.704 174.573 241.472 173.027 237.91 169.142C236.039 167.1 237.133 162.604 240.444 163.028C242.198 163.254 243.724 163.534 245.376 164.181C246.664 164.687 247.955 165.173 249.277 165.586C251.81 166.373 254.429 166.988 257.06 167.329C262.539 168.037 268.232 167.85 273.649 166.78C283.497 164.838 293.065 160.358 300.541 153.611C309.228 145.769 314.321 135.617 315.069 123.912C315.904 110.874 314.399 97.523 313.149 84.5529C312.498 77.8043 311.674 71.0735 310.679 64.3671C309.709 57.8139 309.126 51.272 308.408 44.6942V44.6942ZM231.522 2.59251L231.942 2.52815C248.668 -0.0158943 266.264 0.163929 281.986 7.06542C284.999 8.39044 287.948 9.98426 290.724 11.8374C292.713 11.6292 294.715 11.4607 296.679 11.4342C299.15 11.402 301.563 12.6854 301.868 15.1859C304.185 15.4736 306.319 16.3254 307.683 18.0309C308.204 18.6845 308.57 19.4484 308.751 20.2646C310.175 20.5996 311.571 21.1164 312.897 21.7959C314.505 22.6231 315.433 24.9268 314.865 26.6323C314.734 27.0167 314.585 27.3945 314.418 27.7642L314.289 28.0406L314.365 28.1447C315.649 30.2079 314.757 32.9167 312.787 34.1489C311.311 35.0727 309.662 35.809 307.967 36.1648C308.107 36.8463 308.234 37.5296 308.338 38.2224C308.378 38.5026 308.018 38.7013 307.859 38.425C307.859 38.425 308.467 40.3179 309.383 42.4019C309.743 43.2216 308.59 43.9503 308.151 43.1212C306.982 40.9141 306.258 38.6502 305.198 36.3731C304.196 36.3127 303.214 36.0702 302.3 35.6576C301.703 35.3751 301.207 34.9158 300.88 34.342C300.861 34.3647 300.847 34.3931 300.829 34.4215C297.671 38.4818 291.501 39.9052 286.732 41.1905C281.611 42.5723 276.368 43.4241 271.107 44.0506C261.919 45.1428 252.66 45.3473 243.431 45.7713L241.597 45.8584C237.849 49.1482 233.02 51.1906 228.065 51.8134C225.298 52.1483 222.493 52.0106 219.772 51.4064C218.748 52.4516 217.469 53.2118 216.061 53.6116C215.808 58.8531 212.885 63.8143 208.467 66.7067L208.546 67.0171C209.643 71.4938 209.63 76.385 205.694 79.4951C205.158 79.9148 204.579 80.2765 203.967 80.574L204.101 80.8844C206.133 85.6356 206.783 90.8827 202.961 94.8237C201.412 96.4213 198.692 96.0427 197.529 94.2104L197.472 94.1177C197.408 94.0079 197.338 93.9038 197.272 93.7959C197.172 94.0146 196.996 94.1891 196.776 94.2861C195.323 94.9108 194.741 94.4508 193.418 93.8072C192.188 93.216 190.902 92.7481 189.58 92.4103C188.52 92.1318 187.441 91.9325 186.351 91.814C179.526 94.4224 175.116 102.424 176.164 109.933C176.732 114.021 178.978 118.07 182.891 119.766C184.603 120.51 186.615 120.823 188.469 120.571C190.976 120.23 192.906 118.651 195.503 119.554C196.527 119.91 197.168 120.715 197.222 121.814C197.315 123.543 196.704 124.839 195.669 125.799C197.491 127.319 198.959 129.431 200.541 131.116C202.516 133.225 204.522 135.334 206.658 137.278C208.672 139.129 210.822 140.826 213.092 142.354L213.33 142.511C216.179 144.366 219.766 146.011 219.902 149.888C219.946 151.056 219.238 152.127 218.277 152.724C214.688 154.948 210.783 152.027 207.971 149.888C206.843 149.032 205.745 148.14 204.677 147.211C203.893 147.266 203.107 147.123 202.393 146.795C201.874 146.566 201.368 146.309 200.876 146.026C199.264 146.432 197.743 146.076 196.491 145.231C194.686 145.674 192.774 145.727 191.151 145.372C189.707 145.047 188.367 144.371 187.249 143.403C184.967 144.13 182.435 143.995 180.185 142.614C178.836 141.786 177.785 140.605 177.211 139.225C176.906 138.756 176.736 138.212 176.721 137.652V137.429C174.76 137.474 172.794 136.8 171.279 135.25C169.963 133.908 169.196 132.122 169.13 130.244C167.082 129.67 165.276 128.449 163.98 126.764C161.707 123.827 161.404 120.198 162.573 116.957C162.497 116.786 162.428 116.612 162.368 116.435C160.556 113.878 159.357 110.794 159.455 107.701C159.467 107.22 159.531 106.749 159.626 106.281C157.842 105.333 156.529 103.667 156.389 101.551C156.295 99.8995 156.857 98.2775 157.954 97.0384C157.416 95.788 157.211 94.42 157.359 93.0671C157.503 91.7628 157.977 90.5167 158.736 89.446C158.719 89.0713 158.74 88.6959 158.798 88.3254C158.726 87.9544 158.666 87.5682 158.635 87.1783C158.294 82.889 161.255 79.1354 164.861 77.1554C165.808 76.6349 166.832 76.2109 167.857 75.8512C168.601 75.5862 169.722 75.4992 170.378 75.0165C170.349 74.9956 170.624 74.6436 170.669 74.4562C170.722 74.2234 170.779 73.9962 170.808 73.7596C170.914 72.7677 170.834 71.7474 170.815 70.7499C170.726 66.2297 170.866 61.6886 171.342 57.193C172.226 48.8548 174.408 40.6983 178.656 33.4126C182.222 27.308 187.103 22.1499 192.702 17.8738C203.851 9.35961 217.766 4.72959 231.522 2.59251V2.59251ZM179.849 106.276C178.397 102.789 185.23 102.755 187.037 102.92L187.09 102.925C191.156 103.33 197.514 105.286 199.179 109.388C199.866 111.086 197.829 112.927 196.196 112.369C194.599 111.822 193.705 110.648 192.423 109.62C192.085 109.353 191.737 109.098 191.38 108.858C191.569 109.456 191.868 110.008 192.285 110.421L192.383 110.514C194.351 112.282 190.832 115.059 189.527 112.719C188.826 111.501 188.559 110.082 188.77 108.693C188.834 108.275 188.946 107.894 189.111 107.529C188.978 107.464 188.851 107.394 188.721 107.332L188.486 107.222C186.919 106.512 180.238 103.722 180.291 106.217C180.296 106.493 179.938 106.493 179.849 106.276V106.276Z" fill="black"/>
<path fill-rule="evenodd" clip-rule="evenodd" d="M273.849 144.618C271.135 143.51 268.77 141.692 267.004 139.353C266.733 139.011 266.537 138.615 266.427 138.193C266.317 137.77 266.295 137.33 266.364 136.898C266.508 136.014 267.03 135.216 267.742 134.678C268.456 134.14 269.35 133.875 270.214 134.01C270.966 134.127 271.712 134.538 272.305 135.392L272.428 135.562C273.457 136.97 274.813 138.107 276.379 138.876C277.894 139.621 279.59 139.919 281.269 139.736C284.561 139.365 286.828 137.586 289.239 135.168C289.538 134.864 289.837 134.549 290.136 134.229C290.312 133.959 290.576 133.756 290.883 133.656C291.216 133.551 291.574 133.555 291.905 133.668C292.235 133.781 292.521 133.997 292.72 134.284C292.903 134.555 293.01 134.89 292.975 135.276C292.754 137.781 291.445 140.014 289.585 141.769C287.519 143.719 284.78 145.066 282.203 145.539C279.364 146.06 276.47 145.687 273.849 144.618V144.618ZM283.544 105.987C286.564 107.825 291.169 112.107 287.919 116.66C284.091 120.673 278.583 116.071 275.869 113.989C273.352 112.376 270.523 116.525 272.858 118.409C292.475 132.929 300.436 106.468 285.072 103.83C283.379 103.538 282.752 105.42 283.544 105.987V105.987ZM248.392 89.0972C248.725 84.9537 255.036 84.0129 255.665 88.1129C256.225 91.7851 255.564 95.1601 253.909 98.467C252.33 101.624 248.356 100.152 248.055 97.2745C247.652 93.4187 248.184 91.6753 248.392 89.0972V89.0972ZM296.432 87.263C297.313 86.1102 298.583 85.3247 300.104 85.7676C304.86 87.1589 303.458 93.909 301.788 97.195C300.881 98.9781 297.947 99.4305 296.621 97.8594C294.462 95.2983 293.426 90.1818 296.174 87.6567C296.248 87.528 296.331 87.3955 296.432 87.263ZM253.843 70.969L254.595 70.8365C256.919 70.4352 259.807 70.049 261.451 71.9154C262.324 72.9073 262.623 74.7491 261.451 75.6974C259.39 77.3632 257.11 76.7196 254.64 76.8597C252.624 76.975 250.628 77.3153 248.688 77.8743C244.385 79.1046 240.879 81.3477 237.205 83.8123C236.724 84.1341 236.231 83.5189 236.46 83.0684C238.582 78.9135 242.691 75.5025 246.809 73.4222C249.008 72.3111 251.411 71.3911 253.843 70.969ZM292.097 69.1083L292.672 69.2256C298.93 70.5317 307.059 73.1439 310.021 79.2901C310.135 80.159 310.015 80.3445 309.919 80.4656L309.886 80.5073C309.805 80.6114 309.742 80.7533 309.366 80.8726C309.259 80.8472 309.153 80.8207 309.047 80.7931C307.689 80.4372 306.616 79.947 305.576 79.4378L304.447 78.8832C303.138 78.2396 301.818 77.6225 300.419 77.1663C297.435 76.1893 294.362 75.5109 291.244 75.1409C290.579 75.0749 289.944 74.8331 289.403 74.4405C288.889 74.0541 288.524 73.5007 288.373 72.8751C288.153 71.9912 288.218 71.323 288.691 70.5242C289.047 69.926 289.559 69.5115 290.144 69.273C290.765 69.028 291.444 68.9708 292.097 69.1083V69.1083Z" fill="black"/>
<path fill-rule="evenodd" clip-rule="evenodd" d="M319.351 108.424C314.493 113.444 306.383 114.883 299.921 112.191C283.324 105.259 291.447 83.6367 304.246 77.8293C305.845 77.4318 307.981 76.4853 309.928 76.2715C310.104 76.1844 310.487 76.4342 310.951 76.1976C325.065 77.7725 328.279 99.6771 319.351 108.424M265.822 109.709C260.373 116.935 250.244 119.164 241.968 115.805C225.618 109.367 231.417 90.1937 242.604 82.6751C266.233 73.7974 275.993 96.3872 265.822 109.709ZM230.379 93.6993L230.333 93.6823L230.593 93.5668L230.506 93.7845C230.464 93.7561 230.426 93.722 230.379 93.6993M330.599 85.8892C329.265 85.8911 327.337 86.1107 326.233 87.0363C323.51 77.8539 313.458 69.3567 304.716 75.5522C297.832 77.7668 292.724 82.6751 289.82 89.1999C284.585 86.088 276.354 87.4168 271.815 91.5339C268.841 81.7135 261.525 78.2741 252.816 77.7649C243.311 76.209 233.837 85.4387 230.881 92.8437C228.423 92.5636 224.75 91.7818 222.438 93.298C207.43 89.3627 181.191 87.1934 178.14 89.3797C175.966 90.2126 174.773 95.3461 177.811 95.6225C180.457 95.2458 177.5 91.8632 180.169 91.4922C194.383 90.612 208.18 93.4741 222.244 94.676C223.5 96.3645 227.557 96.9286 229.722 96.2509C226.313 108.81 233.671 117.357 244.695 119.916C261.769 123.836 276.621 108.566 272.157 92.6847C277.33 90.1104 283.279 90.224 288.911 91.5774C279.496 126.219 335.297 124.665 326.583 88.2232C332.383 91.1079 333.642 86.4704 330.599 85.8892" fill="black"/>
</svg>
