<svg fill="none" height="440" viewBox="0 0 460 440" width="460" xmlns="http://www.w3.org/2000/svg"><g clip-rule="evenodd" fill-rule="evenodd"><path d="m359.127 275.44c-1.258-3.451.578-6.894 1.597-10.233 3.617-11.577 7.568-23.156 13.155-33.953 2.117-3.614-1.366-8.043-5.402-7.025-6.907.967-14.03.197-20.95-.231-2.531-6.545-9.286-9.262-14.603-13.032-6.032-3.763-11.899-8.089-18.174-11.388-.348-3.119-4.131-3.892-6.443-1.662-6.352-3.95-13.97-3.216-20.779-5.805-5.174-8.361-5.562-17.154-6.931-25.219-.599-3.517.036-6.909-2.368-10.044-8.072-11.352-39.968-16.275-51.729-9.548-6.33-3.947-6.483 3.203-7.487 7.615-1.119 2.207-1.723 4.708-1.536 7.341-6.799 14.2-22.356 20.619-36.288 25.821-1.748-1.683-4.246-1.469-5.909-.078-12.075 2.624-23.795 7.239-33.914 14.443-11.495 3.362-19.589 12.709-25.444 22.732-.644 1.056-.797 2.133-.609 3.123-18.0005 26.383-26.5914 57.968-27.7997 89.867-11.5757 6.947 5.5019 69.348 9.4792 82.303l.0113-.006c2.5796 4.566 5.5072 17.595 11.9622 16.586 4.428 5.007 11.485 4.022 17.492 4.406-.977 3.754-.496 8.049.669 11.757 1.377 4.414 8.138 4.564 9.097-.25 59.837 11.625 121.231 2.351 181.74 4.095 17.496.125 34.989.666 52.443 1.912 2.457.176 4.949-2.336 4.781-4.782-3.752-39.915-7.275-92.424-11.472-131.948-.994-9.014-1.782-18.126-4.589-26.797z" fill="#fdfbf5"/><path d="m219.998 149.763c.173-.468.872-.405.885.119.276 11.223-2.519 24.939-11.5 32.518-4.612 3.892-10.707 5.673-16.305 7.719l-.631.233-9.892 3.684c-2.623.978-5.452 2.481-7.769 1.099 1.875 4.649 3.449 9.427 5.733 13.907 2.841 5.577 6.279 10.68 10.485 15.321 16.663 18.386 43.036 23.995 66.703 18.608 12.185-2.775 24.045-8.032 32.36-17.621 6.318-7.29 9.948-17.072 10.804-26.722-.259.042-.525.035-.782-.021-2.994-.653-6.017-2.258-8.651-3.833l-.254-.152c-2.536-1.525-5.178-3.274-6.998-5.644-1.807-2.355-3.703-10.034-3.703-10.034-.517-2.887-1.002-8.638-.918-11.555.007-.276 1.229-.439 1.359-.153 1.129 2.478 1.495 7.92 2.366 10.498l.174.515c.932 2.692 1.729 5.97 3.657 8.145 3.624 4.087 9.088 5.817 13.964 7.867.351-4.619 7.728-4.511 7.635.306-.006.262-.017.521-.027.782.584.32 1.142.685 1.665 1.038l.512.346c1.931 1.314 3.878 2.563 5.935 3.678 3.981 2.158 8.199 3.869 12.279 5.828 4.114 1.961 8.002 4.365 11.594 7.17 1.694 1.327 3.315 2.743 4.856 4.244l.417.411c1.466 1.459 3.373 3.091 4.208 5.009.184.424 1.106 1.406 1.606 1.44 7.754.507 15.489 1.225 23.194 2.302 1.994.278 2.784 1.306 2.045 2.968-2.532 5.713-12.451 28.524-15.089 34.645.309 4.498-.108 9.794.17 14.292.406 6.564.938 13.127 1.574 19.675 2.283 23.418 5.739 46.722 8.864 70.038 1.562 11.67 2.989 23.355 4.396 35.044 1.014 8.366 1.781 16.761 2.301 25.173l.132 2.194c.186 2.762.608 5.4-1.102 7.77-.774 1.075-2.545 1.681-3.564.46-1.28-1.535-1.758-2.684-1.879-4.7-.095-1.544-.117-3.097-.187-4.641-.152-3.352-.343-6.701-.567-10.05-.444-6.692-.961-13.379-1.549-20.06-2.07-23.425-6.008-46.673-8.627-70.041-1.33-11.774-2.249-23.59-2.756-35.428-.248-5.915-.339-11.83-.28-17.751.023-2.211.127-4.412.279-6.608-3.922 8.909-8.044 17.728-12.364 26.451l-1.023 2.063c-2.733 5.505-5.54 11.032-8.824 16.222l-.566.884c-1.33 2.109-3.148 5.433-5.576 6.099-1.691.464-3.755.137-5.49.104-1.72-.034-3.442-.039-5.161-.109-1.903-.065-3.792-.345-5.631-.835-.297-.074-.587-.17-.869-.288-1.877 3.072-5.068 5.412-8.33 6.775-2.612 1.09-5.35 1.84-8.093 2.532l-.967.243c-2.94.732-6.303 1.081-7.962 3.92l-.385.657c-1.233 2.095-2.415 3.933-4.456 5.434-2.196 1.617-4.798 2.633-7.391 3.425-2.653.81-5.369 1.431-8.064 2.095l-.735.182c-1.778.445-3.574.853-5.343 1.338-.76.2-1.515.425-2.261.674-.867.297-1.496.763-2.18 1.268-.615 2.147-3.242 3.313-5.401 3.163-1.095-.088-2.151-.441-3.078-1.028-1.617 1.376-3.396 2.609-5.044 3.883-7.062 5.462-14.223 10.797-21.479 16-8.681 6.201-17.537 12.153-26.557 17.85-3.766 2.395-7.554 4.754-11.365 7.078l.407.149.809.307c1.913.714 4.043 1.866 4.413 4.098.295 1.768-.694 2.987-2.44 3.203-2.077.257-3.693-1.21-4.986-2.611-.569-.617-1.209-1.19-1.756-1.826-.219-.266-.402-.559-.544-.873-3.76 2.229-7.581 4.356-11.456 6.379l-.968.498c-9.602 4.91-18.949 10.288-28.633 15.058-2.524 1.244-5.606 2.59-8.814 3.508.852 3.301.837 6.926.86 10.276.019 3.265-5.171 3.25-5.061 0l.053-1.569c.095-2.639.248-5.378.875-7.946-9.458 1.569-18.907-1.84-20.666-2.864-1.942-1.129-3.705-2.934-5.171-4.612-3.1399-3.587-5.318-7.887-7.2498-12.212-4.1401-9.264-7.0738-19.166-9.2178-29.07-7.9053-36.512-4.5057-75.59 8.3333-110.59 3.2078-8.755 6.9943-17.287 11.3333-25.541l.54-1.018c4.329-8.151 9.142-16.271 15.256-23.209 6.367-7.223 14.223-12.843 22.774-17.204 4.175-2.115 8.468-3.987 12.858-5.607.705-.263 1.415-.5 2.127-.723 4.574-2.917 10.125-5.705 15.678-5.596.339.001.665.132.911.366.269.047.536.104.803.181.593.173 1.218.82 1.133 1.486l-.029.222c-.014.106-.037.212-.07.314.199.03.394.078.585.142 5.313-1.499 10.54-3.793 15.726-5.645l1.18-.416c4.342-1.522 8.799-3.014 12.36-6.025 3.545-2.995 6.21-6.875 8.136-11.07 2.373-5.167 3.435-10.767 5.384-16.072zm106.379 272.571c1.051-.782 2.296.126 2.69 1.094 1.291 3.18.653 8.118-1.169 10.929-1.886 2.911-6.405 1.762-6.515-1.766-.114-3.676 2.024-8.047 4.994-10.257zm10.866-87.768c.094-.413.736-.409.833 0 .875 3.729.856 7.745 1.112 11.569l.03.424c.309 4.218.568 8.446.752 12.671.548 12.434 1.235 24.862 2.059 37.281.863-.481 1.753-.905 2.676-1.278 1.38-.557 2.725-.621 4.21-.606 1.807.019 3.167 1.607 2.928 3.379-.261 1.927-1.958 2.752-3.722 2.478-1.952-.305-3.912-.778-5.884-.975.22 3.182.445 6.366.686 9.546.32 4.21.734 8.416 1.028 12.627.027.402.057.805.087 1.208 1.176-.611 2.424-.924 3.839-1.31l.369-.102c2.053-.591 4.252-1.406 6.154-.025 1.276.928 1.532 2.457.473 3.682-1.604 1.857-3.981 1.497-6.197 1.403l-1.193-.044c-1.125-.043-2.161-.115-3.201-.399.192 2.743.292 5.499-.045 8.202-.182 1.461-2.106 1.845-2.616.354-1.331-3.896-1.606-8.098-2.092-12.179-.455-3.813-.731-7.651-1.029-11.481l-.091-1.147c-.668-8.423-1.204-16.85-1.596-25.291-.39-8.436-.63-16.878-.72-25.323-.044-3.835.021-7.685.17-11.52l.048-1.151c.172-3.943.053-8.128.932-11.993zm-175.824 88.39c.051-.539.483-1.209 1.125-1.124.591.076 1.201.04 1.786.136.773.129 1.396.585 2.113.873 1.169.467 2.442.708 3.641 1.09 2.248.718 3.473 3.084 2.541 5.293-.979 2.324-3.439 2.85-5.564 1.876-1.676-.769-2.926-1.997-4.053-3.417l-.318-.407c-.487-.61-1.038-1.291-1.241-2.031-.199-.721-.1-1.556-.03-2.289zm109.233-10.922c2.801-.393 5.193.562 7.784 1.465l.21.074c2.636.911 6.485 1.539 7.837 4.238.815 1.628.182 3.79-1.737 4.271-3.039.763-5.765-1.46-8.278-2.955l-.133-.078c-2.424-1.419-4.928-2.614-6.477-5.065-.413-.653-.055-1.83.794-1.95zm-97.76-222.672c-1.121.252-2.242.473-3.363.687-4.264 2.285-8.402 4.655-12.803 6.692-4.671 2.159-9.324 4.389-13.762 7.003-8.962 5.278-16.35 12.141-22.454 20.555-10.546 14.532-18.39 31.292-24.006 48.295-1.4414 4.369-2.7338 8.786-3.875 13.243 2.019-1.868 4.4091-3.015 7.0909-3.998 1.1361-.416 2.5491.288 3.1251 1.272.259.441.405.879.379 1.395-.061 1.144-.805 2.444-2.032 2.669-2.8641.528-5.6501 1.556-8.4096 2.459-.1728.065-.3574.091-.5413.078-.184-.013-.363-.065-.5249-.154-2.7521 11.616-4.4471 23.457-5.0644 35.379-.5084 10.121-.1999 20.267.9223 30.339.858-.386 1.6989-.75 2.6402-.967 1.2216-.286 2.4242-.631 3.6155-1.021 3.4394-1.128 5.0076 4.547 1.4924 5.412-1.3068.322-2.625.591-3.9583.786-1.161.17-2.1875.094-3.2822-.084.8324 6.281 1.9784 12.515 3.4337 18.681l.322 1.346c1.8901 7.86 4.0947 15.791 7.2822 23.217 1.5624 3.643 3.6324 7.102 6.1874 10.14 1.256 1.493 2.652 2.773 4.171 3.986 1.263 1.011 5.564 3.201 10.659 3.201 5.092 0 6.471-.483 9.041-1.367 5.082-1.749 9.906-4.541 14.673-7.028l.492-.255c2.108-1.091 4.208-2.196 6.301-3.313-.265-2.133.199-3.926 1.311-5.898 1.202-2.132 4.182-1.07 4.403 1.111l.008.083c.034.492.115.994.218 1.494 14.001-7.668 27.706-15.874 41.193-24.424 8.691-5.509 17.276-11.183 25.75-17.019 6.453-4.445 12.817-9.018 19.087-13.718.898-.672 1.778-1.378 2.678-2.054-.215-.27-.428-.543-.638-.818-3.362-4.401-5.542-9.646-6.629-15.058-.657-3.265-.974-6.655-1.07-9.983l-.042-1.448c-.066-2.44-.085-4.991.366-7.356-.612.337-1.237.667-1.86 1.019-2.237 1.266-4.474 2.531-6.714 3.788-4.48 2.528-8.996 4.993-13.548 7.391-8.142 4.267-16.363 8.323-24.808 11.96l-4.108 1.769c-7.131 3.067-14.318 6.078-21.733 8.358-4.171 1.27-8.386 2.392-12.637 3.365l1.714 2.008c1.163 1.363 1.184 3.317-.303 4.464-1.46 1.128-3.42.659-4.393-.839l-1.777-2.729c-.345-.518-.588-1.097-.716-1.706-1.956.409-3.915.802-5.877 1.181l-3.712.708c-5.303 1.024-10.445 3.05-15.186 5.643-1.647.901-2.106-.85-.359-2.069 5.104-3.568 11.058-5.588 17.202-7.282l.301-.083c2.254-.617 4.504-1.261 6.75-1.927-.263-.923-.385-1.881-.361-2.841.062-2.276.265-4.56.384-6.834.254-4.773.578-9.532.957-14.297.145-1.836.31-3.676.496-5.516-1.203-.645-2.243-1.501-3.584-1.923l-.227-.066c-1.435-.386-.951-2.235.324-2.394 1.149-.139 2.313-.083 3.443.166.176.04.343.082.504.131.208-1.704.441-3.404.705-5.092.697-4.465 1.191-9.167 2.642-13.457.108-.318.579-.431.753-.098 2.112 4.017 2.186 8.944 2.425 13.417l.028.535c.28 4.88.297 9.807.208 14.693-.094 5.037-.265 10.061-.492 15.092-.091 2.025-.087 4.127-.434 6.065 12.568-4.085 24.913-8.974 36.746-14.763 8.35-4.084 16.62-8.33 24.803-12.737 4.099-2.207 8.216-4.38 12.311-6.595 1.436-.778 2.869-1.556 4.301-2.338l2.15-1.171c2.011-1.096 3.689-2.189 6.032-2.266.335-.004.668.065.973.203.306.138.578.341.796.596 1.258-.892 2.714-1.441 4.24-1.428 2.289-3.182 4.642-6.316 7.059-9.402l1.792-2.279c3.102-3.935 6.388-7.927 10.345-10.922 1.767-1.336 3.708-2.337 5.734-3.166-.509-.124-.977-.378-1.359-.737-1.934-1.792-2.201-5.124-2.595-7.626-.407-2.595-.25-4.918.153-7.506.157-1.005 1.822-1.215 2.229-.291.857 1.948 1.764 3.812 2.542 5.781l.231.594c.837 2.217 2.619 4.549 2.5 6.953-.024.611-.23 1.201-.593 1.694 1.701-.564 3.425-1.068 5.123-1.592 5.345-1.651 10.709-3.256 16.158-4.537 1.449-.341 2.907-.657 4.369-.949.767-3.638 1.884-7.21 3.201-10.717-1.246-.638-2.053-1.709-3.129-2.662-1.004-.893-1.695-1.978-2.553-3.004-.78-.931-.341-2.614 1.061-2.559l.397.015c1.455.069 2.862.22 4.18.898l.47.242c.644.333 1.348.717 1.975 1.17.82-1.889 1.674-3.76 2.536-5.609l1.12-2.394c2.903-6.23 5.797-12.696 9.439-18.498 1.619-2.578 3.775-4.189 6.869-4.439 3.186-.255 6.498.076 9.688.19 3.699.132 7.396.289 11.091.482-.947-.991-1.811-2.095-2.764-3.047-1.577-1.583-3.247-3.071-5-4.458-3.469-2.735-7.286-4.991-11.248-6.934-3.964-1.942-8.045-3.636-11.767-6.034-2.354-1.518-4.458-3.43-6.379-5.497-1.208 13.038-7.505 25.151-16.965 34.252-9.826 9.451-23.404 14.645-36.686 16.852-13.549 2.255-27.689 1.427-40.65-3.282-6.748-2.452-13.088-5.906-18.806-10.246-.063.378-.139.751-.288 1.103-.199.473-.444.877-.722 1.291l-.498.729c-.309.461-.641.907-.992 1.336-.864 1.028-2.088 1.479-3.406 1.475-2.524-.01-4.435-2.484-3.757-4.931.428-1.539 1.341-2.465 2.767-3.067.45-.191.909-.35 1.373-.507l.346-.117c.466-.159.928-.313 1.411-.4-2.707-2.378-5.206-4.984-7.467-7.789-7.053-8.79-14.01-21.1-11.652-32.773.042-.201.222-.328.417-.358.136-.82.572-1.613 1.17-2.145-.4-.105-.806-.187-1.216-.244zm73.241 201.83c1.396-.776 2.839 1.069 1.704 2.209l-1.695 1.696c-1.574 1.58-3.104 3.176-4.45 4.978l-.326.439c-1.818 2.472-3.756 5.338-6.733 6.262-3.602 1.117-7.065-3.269-4.979-6.474 1.822-2.801 5.331-3.858 8.356-5.016 2.861-1.094 5.447-2.607 8.123-4.094zm-116.199-12.923c.822-1.075 2.96-.509 2.4 1.011-1.821 4.936-2.563 11.668-7.161 14.946-1.485 1.058-3.815.572-5.038-.649-1.387-1.388-1.443-3.343-.648-5.035.966-2.066 3.348-3.563 5.019-5.136l.15-.144c1.795-1.743 3.736-2.975 5.278-4.993zm192.216 5.68c1.466-.63 5.284-1.858 6.415-.405.052.052.098.111.134.175.277.482.318 1.162 0 1.641-1.318 1.982-2.691 3.46-4.566 4.87l-.21.155c-2.04 1.501-3.959 3.262-6.444 3.939-3.447.937-5.854-3.377-3.433-5.896 1.95-2.029 4.926-3.083 7.509-4.215zm-138.398-28.204c-.576-1.041.602-2.318 1.669-1.667 3.043 1.859 6.589 3.254 10.005 4.257 1.385.405 2.631 1.808 2.529 3.32l-.015.229c-.042.534-.116 1.064-.455 1.509-1.191 1.556-2.894 2.156-4.712 1.234-4.053-2.052-6.828-4.92-9.021-8.882zm88.94-3.155c-.074-.437.246-.776.693-.691 2.57.486 4.945 1.728 7.153 3.157 1.186.765 2.328 1.606 3.51 2.38 1.46.954 2.005 1.743 2.221 3.494.142 1.157-.937 2.213-1.928 2.533-2.699.87-5.792-1.986-7.619-3.841l-.083-.083c-1.913-1.952-3.493-4.257-3.947-6.949zm77.238-3.031c-.587-1.582 1.434-2.894 2.754-2.116 1.244.731 2.595 1.338 3.767 2.177 1.08.77 2.062 1.685 3.097 2.519l.511.405c1.896 1.524 5.026 5.295 2.314 7.481-2.579 2.082-6.002-.575-7.735-2.519l-.121-.138c-.996-1.151-2.225-2.403-2.947-3.746-.682-1.267-1.144-2.719-1.64-4.063zm-25.453-122.517c-3.232.626-4.551 4.617-5.912 7.218-3.212 6.136-6.167 12.385-9.135 18.643-.913 1.925-1.803 3.865-2.699 5.799-.055.152-.127.301-.208.449-1.839 3.958-3.733 7.89-5.945 11.647 2.025-.379 4.06-.702 6.104-.958-.102-1.923 1.214-4.497 1.866-6.118l.055-.136c.812-2.075 1.664-5.344 3.755-6.421.697-.359 1.443.091 1.496.858.159 2.285-2.075 4.899-3.168 6.837-.661 1.174-1.305 2.351-1.932 3.544-.235.444-.432.884-.672 1.275 1.053-.113 2.108-.215 3.166-.289l.69-.048c3.922-.257 8.087-.331 11.63 1.602 3.288 1.794 4.97 5.622 3.163 9.108-2.25 4.345-7.204 4.92-11.562 5.272-5.443.439-10.898 1.232-16.301 2.005-5.591.798-10.855 2.86-16.362 3.918-.511.098-.83-.572-.36-.858 4.343-2.642 9.623-4.098 14.479-5.58l.394-.119c2.633-.808 5.209-1.734 7.934-2.192 2.645-.445 5.305-.806 7.973-1.081l.26-.024c2.937-.247 10.432-.161 10.115-4.511-.21-2.877-4.888-3.375-7.024-3.409-9.794-.157-19.656 2.442-28.962 5.226l-2.078.623c-3.813 1.147-7.627 2.326-11.367 3.67-4.237 1.524-7.576 3.897-10.661 7.148-3.423 3.602-6.737 7.287-10.286 10.768-2.239 2.19-4.502 4.354-6.79 6.491-.549.696-.962 1.489-1.216 2.338-.483 1.592-.371 3.074-.189 4.709.46 4.132.562 8.308 1.138 12.427.534 3.816 1.282 7.772 2.867 11.312.627 1.403 1.443 2.779 2.375 4.011l.75.975c.328.424.693.888 1.078 1.325.564-.689 1.381-1.136 2.329-1.024 2.016.236 3.601.18 5.578-.282 1.532-.36 3.051-.778 4.574-1.166 2.992-.765 6.013-1.46 8.975-2.336l.51-.153c2.208-.676 4.416-1.524 6.254-2.95 2.134-1.656 2.791-4.045 4.373-6.11 3.375-4.41 10.67-4.317 15.611-5.527 4.197-1.026 8.239-2.646 11.144-5.692l.169-.18c-.129-.545.079-1.158.585-1.438l.11-.063c.189-.104.402-.157.617-.151.269-.396.531-.805.766-1.24.195-.358.681-.095.617.259-.038.212-.091.419-.14.627 2.814-.725 5.905-.587 8.761-.585l3.708-.013c.643-.008 1.599-.04 1.684-.078l.087-.04c.231-.1-.096.067.065-.147.178-.237.352-.477.524-.718.616-.859 1.197-1.745 1.766-2.638-6.209 1.58-12.643 2.564-18.982 3.386-6.803.88-13.695 1.492-20.556 1.497-1.892.004-1.875-2.852 0-2.924 7.267-.277 14.496-.663 21.714-1.594 5.174-.671 10.317-1.559 15.416-2.662l1.065-.23c.668-.148 2.555-.362 3.475-.979l.542-.931c-.089-1.091-2.86-.945-3.512-.945-1.841-.004-3.685.011-5.528.015-3.686.012-7.369-.021-11.057-.051-7.363-.059-14.756-.316-22.113-.002-1.786.076-2.724-2.788-.959-3.541 7.794-3.328 16.445-4.049 24.767-5.073 4.377-.538 8.754-1.159 13.032-2.247l1.059-.269c2.688-.689 5.655-1.528 7.919-3.171-3.402-1.374-7.631-1.217-11.156-1.412l-.27-.015c-4.938-.305-9.883-.46-14.83-.466-10.121-.015-20.244.345-30.354.824-.254.011-.307-.388-.061-.441 10.392-2.268 20.953-3.36 31.587-3.528 4.951-.078 9.906-.008 14.855.21l1.816.085c4.218.181 8.899.231 12.43 2.777.538.388.822.884.865 1.408 4.735-9.434 9.106-19.065 13.496-28.634 3.413-7.439 6.699-14.942 10.235-22.323l1.146-2.389c1.532-3.185 3.104-6.373 4.849-9.443-6.523-.873-13.082-1.477-19.644-1.94-5.981-.422-25.493-1.359-28.372-.801zm-2.888 102.254c.743-.413 1.883-.076 2.067.84.136.684.369 1.441.369 2.139 0 .839-.299 1.748-.458 2.565-.368 1.884-.821 3.413-1.777 5.09-.6 1.051-1.809 1.763-3.025 1.734-.962-.021-1.816-.28-2.477-1.024-.79-.893-1.333-2.205-.9-3.407 1.137-3.15 3.228-6.286 6.201-7.937zm-157.769-3.14c1.741-3.05 5.866-5.774 9.466-5.503 5.406.405 6.51 7.681 1.275 9.419-3.129 1.037-7.432-.028-10.171-1.736-.358-.219-.618-.569-.724-.975-.106-.407-.051-.839.154-1.205zm-55.562-10.415c-.396-.574.257-1.23.846-1.102 1.307.288 2.716.413 3.997.803 1.308.397 2.577 1.06 3.875 1.514 2.719.952 5.625 1.429 8.257 2.58 1.051.46 1.879 1.982 1.781 3.106l-.025.262c-.057.558-.155 1.045-.466 1.554-.837 1.366-2.498 2.072-4.063 1.652-2.907-.78-5.744-2.784-8.221-4.45l-.458-.305c-1.084-.711-2.247-1.457-3.12-2.375-.909-.958-1.657-2.153-2.403-3.239zm99.871-11.085c-.335-1.204 1.165-2.001 2.038-1.187 1.744 1.626 3.57 3.135 5.278 4.801l.116.113c1.223 1.231 3.006 3.601 1.413 5.193-2.04 2.038-4.881-.987-5.976-2.563-1.386-2.001-2.219-4.017-2.869-6.357zm133.564-9.956c-2.589 2.742-6.577 4.003-10.09 5.048-4.165 1.236-8.455 1.976-12.751 2.584-4.151.587-8.268 1.113-12.354 1.787 3.089.037 6.18.06 9.262.117 3.555.064 7.108.14 10.663.244 2.587.074 5.625-.28 8.085.682.443.172.856.412 1.218.704 2.066-3.681 4.055-7.404 5.967-11.166zm-159.706-25.642c2.701-.857 5.242-1.997 8.106-1.701.763.077 1.307.819.892 1.552-1.356 2.389-3.564 3.736-5.739 5.334l-.189.142c-2.402 1.769-4.914 3.383-7.521 4.833-4.454 2.498-8.447-4.653-3.947-6.752 2.707-1.263 5.55-2.503 8.398-3.408zm48.655-6.208c4.135.27 8.267.456 12.406.623 4.795.194 3.183 7.571-.822 6.08-3.959-1.477-7.915-2.933-11.908-4.309-1.215-.42-1.119-2.415.247-2.398zm-106.045-13.126c1.072-.075 2.153.159 3.225.264l1.142.109c2.354.235 4.561.523 6.807 1.481 4.142 1.768 1.917 8.425-2.242 8.273-3.072-.113-5.701-1.432-8.296-2.97-2.269-1.342-3.659-3.022-5.191-5.131-.508-.699.199-1.482.89-1.552 1.218-.123 2.447-.388 3.665-.474zm207.634-13.596c-.688 4.262-2.385 8.299-4.95 11.774-1.288 1.754-3.552 1.821-4.828 0-1.807-2.575-.693-5.524.668-7.996l.402-.725c.61-1.085 1.545-2.669 2.615-3.763l.018-.112c.573-4.476 6.78-3.583 6.075.822zm-167.227-27.443c1.03-.928 2.928-.65 3.263.861.468 2.116.752 4.499.445 6.648-.164 1.162-.227 2.47-.685 3.555-.493 1.166-1.44 2.063-2.33 2.939-1.78 1.751-5.536 1.172-6.011-1.586l-.061-.339c-.24-1.304-.549-2.699-.193-3.994.269-.977.869-1.97 1.364-2.877l.104-.193c.994-1.848 2.542-3.61 4.104-5.014zm144.883 4.501.373.004c2.877.057 8.136.757 8.164 4.312.006.836-.613 1.705-1.446 1.898-1.72.398-2.832-.617-4.057-1.645-1.016-.838-2.159-1.51-3.385-1.991-1.31-.52-1.225-2.58.351-2.578z" fill="#000"/><path d="m319 108.884c-2.51-18.102-8.248-35.6756-9.072-54.0461l-1.47-23.5855c-.185-4.912-6.566-6.5683-9.004-2.2184-5.537-6.1406-15.456-5.2377-23.022-5.0503-44.546 1.5787-86.877 31.6908-102.169 73.6771-.367 1.0013-.256 2.067.159 3.0192-7.127 23.765 18.08 39.065 35.271 49.662 6.974 7.369 15.171 13.491 24.426 17.683 10.74 5.03 22.408 7.777 34.265 8.068 2.582.058 4.133-2.029 4.32-4.189 3.754-.875 10.177.134 12.161-3.71 22.633-9.83 37.381-34.742 34.135-59.31z" fill="#fdfbf5"/><g fill="#000"><path d="m308.408 44.6942c-.064-.5868.784-.6057.958-.1306 1.434 3.9088 2.921 7.7893 4.057 11.7946 1.097 3.8615 1.885 7.8101 2.684 11.7416 1.326 6.5248 2.466 13.0989 3.407 19.6918 2.015-1.5711 4.65-1.715 7.131-.4922 1.165.5755 1.612 2.0936 1.331 3.271-.223.9445-.498 1.8853-.827 2.8052.704.6228 1.301 1.3894 1.734 2.2715 1.143 2.3207.775 4.7549-.25 6.9699.078.13.156.265.228.405 1.483 2.879.689 5.459-.394 8.27-.811 2.101-.358 4.469-2.108 6.057-.596 1.97-1.564 3.808-2.852 5.414-.306.547-.751 1.004-1.29 1.325-.119 3.092-.478 6.17-1.074 9.207-2.379 11.832-9.928 22.376-19.273 29.813-9.146 7.276-19.886 11.624-31.475 13.031-5.629.683-11.263.467-16.845-.508l-.695-.123c-5.151-.935-11.383-2.481-14.945-6.366-1.871-2.042-.777-6.538 2.534-6.114 1.754.226 3.28.506 4.932 1.153 1.288.506 2.579.992 3.901 1.405 2.533.787 5.152 1.402 7.783 1.743 5.479.708 11.172.521 16.589-.549 9.848-1.942 19.416-6.422 26.892-13.169 8.687-7.842 13.78-17.994 14.528-29.699.835-13.038-.67-26.389-1.92-39.3591-.651-6.7486-1.475-13.4794-2.47-20.1858-.97-6.5532-1.553-13.0951-2.271-19.6729zm-76.886-42.10169.42-.06436c16.726-2.5440443 34.322-2.364221 50.044 4.53727 3.013 1.32502 5.962 2.91884 8.738 4.77198 1.989-.2082 3.991-.3767 5.955-.4032 2.471-.0322 4.884 1.2512 5.189 3.7517 2.317.2877 4.451 1.1395 5.815 2.845.521.6536.887 1.4175 1.068 2.2337 1.424.335 2.82.8518 4.146 1.5313 1.608.8272 2.536 3.1309 1.968 4.8364-.131.3844-.28.7622-.447 1.1319l-.129.2764.076.1041c1.284 2.0632.392 4.772-1.578 6.0042-1.476.9238-3.125 1.6601-4.82 2.0159.14.6815.267 1.3648.371 2.0576.04.2802-.32.4789-.479.2026 0 0 .608 1.8929 1.524 3.9769.36.8197-.793 1.5484-1.232.7193-1.169-2.2071-1.893-4.471-2.953-6.7481-1.002-.0604-1.984-.3029-2.898-.7155-.597-.2825-1.093-.7418-1.42-1.3156-.019.0227-.033.0511-.051.0795-3.158 4.0603-9.328 5.4837-14.097 6.769-5.121 1.3818-10.364 2.2336-15.625 2.8601-9.188 1.0922-18.447 1.2967-27.676 1.7207l-1.834.0871c-3.748 3.2898-8.577 5.3322-13.532 5.955-2.767.3349-5.572.1972-8.293-.407-1.024 1.0452-2.303 1.8054-3.711 2.2052-.253 5.2415-3.176 10.2027-7.594 13.0951l.079.3104c1.097 4.4767 1.084 9.3679-2.852 12.478-.536.4197-1.115.7814-1.727 1.0789l.134.3104c2.032 4.7512 2.682 9.9983-1.14 13.9393-1.549 1.5976-4.269 1.219-5.432-.6133l-.057-.0927c-.064-.1098-.134-.2139-.2-.3218-.1.2187-.276.3932-.496.4902-1.453.6247-2.035.1647-3.358-.4789-1.23-.5912-2.516-1.0591-3.838-1.3969-1.06-.2785-2.139-.4778-3.229-.5963-6.825 2.6084-11.235 10.61-10.187 18.119.568 4.088 2.814 8.137 6.727 9.833 1.712.744 3.724 1.057 5.578.805 2.507-.341 4.437-1.92 7.034-1.017 1.024.356 1.665 1.161 1.719 2.26.093 1.729-.518 3.025-1.553 3.985 1.822 1.52 3.29 3.632 4.872 5.317 1.975 2.109 3.981 4.218 6.117 6.162 2.014 1.851 4.164 3.548 6.434 5.076l.238.157c2.849 1.855 6.436 3.5 6.572 7.377.044 1.168-.664 2.239-1.625 2.836-3.589 2.224-7.494-.697-10.306-2.836-1.128-.856-2.226-1.748-3.294-2.677-.784.055-1.57-.088-2.284-.416-.519-.229-1.025-.486-1.517-.769-1.612.406-3.133.05-4.385-.795-1.805.443-3.717.496-5.34.141-1.444-.325-2.784-1.001-3.902-1.969-2.282.727-4.814.592-7.064-.789-1.349-.828-2.4-2.009-2.974-3.389-.305-.469-.475-1.013-.49-1.573v-.223c-1.961.045-3.927-.629-5.442-2.179-1.316-1.342-2.083-3.128-2.149-5.006-2.048-.574-3.854-1.795-5.15-3.48-2.273-2.937-2.576-6.566-1.407-9.807-.076-.171-.145-.345-.205-.522-1.812-2.557-3.011-5.641-2.913-8.734.012-.481.076-.952.171-1.42-1.784-.948-3.097-2.614-3.237-4.73-.094-1.6515.468-3.2735 1.565-4.5126-.538-1.2504-.743-2.6184-.595-3.9713.144-1.3043.618-2.5504 1.377-3.6211-.017-.3747.004-.7501.062-1.1206-.072-.371-.132-.7572-.163-1.1471-.341-4.2893 2.62-8.0429 6.226-10.0229.947-.5205 1.971-.9445 2.996-1.3042.744-.265 1.865-.352 2.521-.8347-.029-.0209.246-.3729.291-.5603.053-.2328.11-.46.139-.6966.106-.9919.026-2.0122.007-3.0097-.089-4.5202.051-9.0613.527-13.5569.884-8.3382 3.066-16.4947 7.314-23.7804 3.566-6.1046 8.447-11.2627 14.046-15.5388 11.149-8.51419 25.064-13.14421 38.82-15.28129zm-51.673 103.68349c-1.452-3.487 5.381-3.521 7.188-3.356l.053.005c4.066.405 10.424 2.361 12.089 6.463.687 1.698-1.35 3.539-2.983 2.981-1.597-.547-2.491-1.721-3.773-2.749-.338-.267-.686-.522-1.043-.762.189.598.488 1.15.905 1.563l.098.093c1.968 1.768-1.551 4.545-2.856 2.205-.701-1.218-.968-2.637-.757-4.026.064-.418.176-.799.341-1.164-.133-.065-.26-.135-.39-.197l-.235-.11c-1.567-.71-8.248-3.5-8.195-1.005.005.276-.353.276-.442.059z"/><path d="m273.849 144.618c-2.714-1.108-5.079-2.926-6.845-5.265-.271-.342-.467-.738-.577-1.16-.11-.423-.132-.863-.063-1.295.144-.884.666-1.682 1.378-2.22.714-.538 1.608-.803 2.472-.668.752.117 1.498.528 2.091 1.382l.123.17c1.029 1.408 2.385 2.545 3.951 3.314 1.515.745 3.211 1.043 4.89.86 3.292-.371 5.559-2.15 7.97-4.568.299-.304.598-.619.897-.939.176-.27.44-.473.747-.573.333-.105.691-.101 1.022.012.33.113.616.329.815.616.183.271.29.606.255.992-.221 2.505-1.53 4.738-3.39 6.493-2.066 1.95-4.805 3.297-7.382 3.77-2.839.521-5.733.148-8.354-.921zm9.695-38.631c3.02 1.838 7.625 6.12 4.375 10.673-3.828 4.013-9.336-.589-12.05-2.671-2.517-1.613-5.346 2.536-3.011 4.42 19.617 14.52 27.578-11.941 12.214-14.579-1.693-.292-2.32 1.59-1.528 2.157zm-35.152-16.8898c.333-4.1435 6.644-5.0843 7.273-.9843.56 3.6722-.101 7.0472-1.756 10.3541-1.579 3.157-5.553 1.685-5.854-1.1925-.403-3.8558.129-5.5992.337-8.1773zm48.04-1.8342c.881-1.1528 2.151-1.9383 3.672-1.4954 4.756 1.3913 3.354 8.1414 1.684 11.4274-.907 1.7831-3.841 2.2355-5.167.6644-2.159-2.5611-3.195-7.6776-.447-10.2027.074-.1287.157-.2612.258-.3937zm-42.589-16.294.752-.1325c2.324-.4013 5.212-.7875 6.856 1.0789.873.9919 1.172 2.8337 0 3.782-2.061 1.6658-4.341 1.0222-6.811 1.1623-2.016.1153-4.012.4556-5.952 1.0146-4.303 1.2303-7.809 3.4734-11.483 5.938-.481.3218-.974-.2934-.745-.7439 2.122-4.1549 6.231-7.5659 10.349-9.6462 2.199-1.1111 4.602-2.0311 7.034-2.4532zm38.254-1.8607.575.1173c6.258 1.3061 14.387 3.9183 17.349 10.0645.114.8689-.006 1.0544-.102 1.1755l-.033.0417c-.081.1041-.144.246-.52.3653-.107-.0254-.213-.0519-.319-.0795-1.358-.3559-2.431-.8461-3.471-1.3553l-1.129-.5546c-1.309-.6436-2.629-1.2607-4.028-1.7169-2.984-.977-6.057-1.6554-9.175-2.0254-.665-.066-1.3-.3078-1.841-.7004-.514-.3864-.879-.9398-1.03-1.5654-.22-.8839-.155-1.5521.318-2.3509.356-.5982.868-1.0127 1.453-1.2512.621-.245 1.3-.3022 1.953-.1647z"/><path d="m319.351 108.424c-4.858 5.02-12.968 6.459-19.43 3.767-16.597-6.932-8.474-28.5543 4.325-34.3617 1.599-.3975 3.735-1.344 5.682-1.5578.176-.0871.559.1627 1.023-.0739 14.114 1.5749 17.328 23.4795 8.4 32.2264m-53.529 1.285c-5.449 7.226-15.578 9.455-23.854 6.096-16.35-6.438-10.551-25.6113.636-33.1299 23.629-8.8777 33.389 13.7121 23.218 27.0339zm-35.443-16.0097-.046-.017.26-.1155-.087.2177c-.042-.0284-.08-.0625-.127-.0852m100.22-7.8101c-1.334.0019-3.262.2215-4.366 1.1471-2.723-9.1824-12.775-17.6796-21.517-11.4841-6.884 2.2146-11.992 7.1229-14.896 13.6477-5.235-3.1119-13.466-1.7831-18.005 2.334-2.974-9.8204-10.29-13.2598-18.999-13.769-9.505-1.5559-18.979 7.6738-21.935 15.0788-2.458-.2801-6.131-1.0619-8.443.4543-15.008-3.9353-41.247-6.1046-44.298-3.9183-2.174.8329-3.367 5.9664-.329 6.2428 2.646-.3767-.311-3.7593 2.358-4.1303 14.214-.8802 28.011 1.9819 42.075 3.1838 1.256 1.6885 5.313 2.2526 7.478 1.5749-3.409 12.5591 3.949 21.1061 14.973 23.6651 17.074 3.92 31.926-11.35 27.462-27.2313 5.173-2.5743 11.122-2.4607 16.754-1.1073-9.415 34.6416 46.386 33.0876 37.672-3.3542 5.8 2.8847 7.059-1.7528 4.016-2.334"/></g></g></svg>