<svg width="460" height="481" viewBox="0 0 460 481" fill="none" xmlns="http://www.w3.org/2000/svg">
<path fill-rule="evenodd" clip-rule="evenodd" d="M82.4718 447.554C83.0897 436.037 83.8538 424.528 84.7641 413.031C86.5784 390.128 88.9552 367.206 92.9111 344.566C96.8137 322.229 102.277 300.508 110.145 279.221C113.795 269.347 117.749 260.921 123.485 252.045C128.907 243.65 135.828 237.963 144.45 232.897C152.218 228.331 161.242 220.411 168.692 215.299C171.803 213.164 178.202 213.307 180.334 210.15C183.128 206.016 181.317 199.688 184.132 195.568C187.35 190.856 191.86 187.197 196.944 184.538C202.494 180.778 209.029 179.075 215.584 179.31C225.247 178.723 234.979 181.802 241.185 189.674C244.281 193.602 246.088 198.135 246.338 203.153C246.404 204.458 245.985 205.488 245.295 206.231C245.703 206.777 246.111 207.325 246.516 207.877C247.784 205.996 250.751 204.995 252.727 206.415C259.139 211.025 266.147 214.742 273.56 217.463C275.288 216.645 277.376 217.024 278.854 218.359C279.44 218.886 280.078 219.354 280.757 219.754C283.502 220.502 286.282 221.117 289.088 221.595C289.97 221.746 290.718 222.246 291.284 222.923C292.124 222.136 293.279 221.759 294.569 222.251C309.457 227.93 323.516 236.753 334.202 248.705C346.042 261.949 352.26 278.422 356.996 295.299C362.119 313.566 365.395 332.291 368.145 351.046C370.931 370.049 373.678 389.127 375.595 408.24C376.674 418.998 377.086 429.851 376.597 440.654C376.354 446.053 375.861 451.435 375.077 456.783C374.893 458.035 374.702 459.475 374.393 460.915C374.649 460.871 374.911 460.89 375.158 460.969C375.405 461.049 375.63 461.186 375.812 461.37C375.995 461.555 376.131 461.78 376.208 462.028C376.286 462.276 376.302 462.539 376.257 462.794C374.933 471.632 364.257 474.206 356.893 475.223C344.847 476.887 332.738 477.81 320.577 477.882C308.626 477.952 296.678 477.183 284.749 476.497C272.525 475.791 260.297 475.083 248.069 474.366C199.082 471.492 150.093 468.649 101.106 465.775C96.6299 465.512 91.5196 465.155 87.685 462.559C82.4313 458.997 82.1611 453.337 82.4718 447.554V447.554Z" fill="#FDFBF5"/>
<path fill-rule="evenodd" clip-rule="evenodd" d="M321.279 348.699C321.45 348.379 321.055 348.094 320.794 348.324C314.847 353.546 311.734 361.933 311.081 369.686C310.39 377.907 311.37 386.418 311.745 394.636C312.162 403.79 312.535 412.945 313.046 422.096C313.561 431.378 314.12 440.657 314.598 449.942L315.671 470.826C315.785 473.052 315.537 475.789 316.392 477.867C317.715 481.087 321.643 480.588 322.469 477.898L322.495 477.808L322.568 477.867C323.298 475.441 322.752 472.56 322.629 470.053L321.504 447.235C320.71 431.106 320 414.975 319.147 398.85L318.857 393.475C318.458 386.239 318.151 379.022 317.906 371.788L317.825 369.377C317.592 362.113 317.778 355.256 321.281 348.699H321.279ZM177.118 214.805C173.803 214.489 171.302 215.588 168.294 216.747C166.984 217.251 165.743 217.834 164.485 218.437C162.912 219.193 161.901 220.528 160.932 221.938L160.414 222.699C156.377 228.617 153.664 235.443 150.599 241.884C147.017 249.42 143.399 256.939 139.892 264.51L138.162 268.241C137.296 270.105 136.434 271.972 135.585 273.844L134.116 277.102C132.642 280.407 131.318 283.903 133.421 287.312C135.375 290.482 138.84 292.935 141.585 295.386L148.454 301.521C143.719 306.265 140.542 312.238 138.673 318.642C136.02 317.537 132.779 317.324 130.037 316.846C126.195 316.175 125.724 321.995 129.349 321.925C132.028 321.872 135.167 322.146 137.914 321.581C137.438 323.686 137.09 325.823 136.87 327.966C135.717 339.196 138.239 350.49 140.868 361.356L141.085 362.248C143.941 374.009 146.649 385.8 149.072 397.657C151.501 409.541 153.686 421.473 155.625 433.447C157.597 445.633 158.995 457.887 160.496 470.14C160.722 471.993 161.89 473.582 163.936 473.582C165.642 473.582 167.592 471.99 167.377 470.14C165.829 456.799 163.632 443.526 161.45 430.277C157.691 407.458 152.96 384.838 147.518 362.365L146.568 358.452C144.12 348.303 141.897 337.846 143.125 327.377C144.127 318.852 147.688 309.763 154.728 304.468L154.941 304.308C156.586 303.102 157.219 300.794 155.599 299.206L152.504 296.173L146.307 290.12L145.059 288.897C144.022 287.874 142.966 286.871 141.892 285.887C141.239 285.295 139.471 284.164 139.342 283.187C139.257 282.551 140.011 281.433 140.316 280.846L141.715 278.02C142.509 276.409 143.278 274.787 144.053 273.167C145.662 269.811 147.291 266.465 148.864 263.092L158.309 242.839C160.973 237.123 163.347 231.092 166.831 225.809L167.517 224.781C168.09 223.913 168.597 223.078 168.96 222.017C169.307 220.998 169.745 219.879 170.39 219.007C171.897 216.964 174.781 215.805 177.195 215.377C177.544 215.314 177.417 214.833 177.118 214.805V214.805ZM249.761 209.485C249.552 209.485 249.52 209.785 249.713 209.842C252.625 210.719 255.406 212.131 257.675 214.173C258.761 215.149 259.855 216.258 260.526 217.571C260.767 218.073 260.936 218.606 261.028 219.156L261.061 219.342C261.234 220.336 261.482 220.89 261.987 221.686L262.074 221.822C264.958 226.28 266.98 231.23 268.827 236.187L272.853 246.996L276.875 257.807L280.763 268.256C281.48 270.179 282.215 272.093 282.95 274.009C283.27 274.839 283.612 275.663 283.904 276.503C283.945 276.617 284.07 277.308 284.167 277.476L284.134 277.533C283.324 278.899 281.16 280.041 279.934 281.032L275.71 284.449C272.699 286.885 269.61 289.254 266.691 291.799C264.857 293.397 265.998 296.258 268.044 296.925C271.471 298.043 274.831 299.382 278.208 300.645C279.572 301.157 280.993 301.602 282.34 302.164L283.162 302.519C283.482 302.665 283.327 302.663 283.314 303.255C283.302 303.875 283.127 304.522 283.026 305.132C281.886 312.015 280.682 318.887 279.41 325.746C274.906 350.003 269.529 374.081 263.395 397.973C260.296 410.04 256.974 422.048 253.807 434.096C250.649 446.111 246.493 457.955 242.524 469.724C241.404 473.043 246.664 474.472 247.756 471.168C252.329 457.326 256.513 443.364 260.833 429.444C268.509 404.711 274.559 379.439 279.908 354.109C283.063 339.176 285.896 324.177 288.406 309.123L288.989 305.599C289.388 303.086 289.614 300.469 287.664 298.481C285.757 296.541 282.487 295.853 279.98 294.943L279.796 294.875C278.202 294.279 276.596 293.706 274.995 293.113C277.351 291.256 279.682 289.357 282.035 287.501C283.93 286.003 285.859 284.535 287.728 283.003C289.272 281.74 290.528 280.116 290.688 278.062C290.853 275.96 289.952 274.013 289.228 272.086L289.158 271.9C288.447 269.977 287.732 268.053 287 266.137L282.467 254.276C279.588 246.739 276.829 239.141 273.8 231.664C272.601 228.703 271.296 225.791 269.752 222.994C269.007 221.644 268.21 220.324 267.344 219.051C266.371 217.622 265.489 216.927 263.984 216.14C261.575 214.88 259.686 212.768 257.268 211.469C254.895 210.195 252.454 209.515 249.761 209.485V209.485ZM241.945 196.038C241.853 195.879 241.61 195.951 241.607 196.131C241.544 199.877 242.434 203.704 242.98 207.407C243.529 211.126 243.706 215.048 244.502 218.726C244.519 218.897 244.551 219.066 244.598 219.231L244.636 219.358C244.971 220.388 245.844 221.261 246.914 221.534C246.577 223.402 246.261 225.272 245.995 227.151C245.535 230.384 245.118 233.62 244.706 236.857L244.213 240.742C243.748 244.405 243.296 248.068 242.849 251.731C241.713 252.208 240.553 252.601 239.364 252.94C236.629 253.725 233.827 254.043 231.004 254.321C225.254 254.883 219.46 255.146 213.689 255.466L212.452 255.536C205.965 255.908 199.443 255.974 192.972 255.308C189.763 254.979 186.582 254.421 183.452 253.638C181.862 253.239 180.316 252.642 178.73 252.252C178.202 252.123 177.734 251.823 177.206 251.505C176.96 251.19 176.608 250.975 176.215 250.898L176.099 250.878L175.984 250.862L175.945 250.843L175.947 250.856C175.623 250.812 175.314 250.812 175.024 250.852C174.908 247.995 174.783 245.139 174.625 242.283C174.202 234.613 173.037 226.612 174.594 219.009C174.645 218.753 174.298 218.663 174.208 218.902C171.154 226.951 171.498 235.752 171.344 244.223C171.193 252.509 171.285 260.799 171.325 269.087C170.732 269.339 170.204 269.681 169.785 270.162C168.947 271.122 168.706 272.79 169.785 273.717C170.246 274.111 170.777 274.414 171.351 274.611C171.381 281.81 171.432 289.009 171.504 296.208C170.136 297.266 170.009 299.777 171.555 300.82C171.814 324.135 172.237 347.45 172.588 370.76L173.324 419.666C173.421 426.183 173.583 432.698 173.642 439.214L173.596 439.232L173.432 439.307C173.158 439.436 172.75 439.644 172.666 439.857C172.648 439.896 172.639 439.938 172.642 439.98C172.191 440.043 171.748 440.256 171.362 440.62C170.412 441.525 170.605 442.886 171.362 443.805L171.564 444.052C172.037 444.625 172.932 444.846 173.664 444.728C173.656 448.796 173.631 452.864 173.643 456.929C173.647 458.171 173.667 459.414 173.688 460.655L173.739 463.634C173.774 465.333 173.925 467.492 175.664 468.257C177.625 469.117 179.386 468.411 180.18 466.418C180.395 465.877 180.349 465.373 180.27 464.84C180.294 464.037 180.421 463.108 180.404 462.363L180.34 459.257C180.329 458.779 180.311 458.301 180.296 457.821L180.353 457.828C187.325 458.167 194.348 458.001 201.333 457.998L204.438 458.001C207.031 458.015 209.624 457.978 212.215 457.891L213.186 457.849C215.123 457.759 217.16 457.729 219.169 457.556C218.914 459.62 218.675 461.685 218.461 463.752C218.259 465.712 220.279 467.376 222.083 467.376C224.224 467.376 225.45 465.692 225.706 463.752C226.916 454.596 227.412 445.355 228.568 436.194C229.603 427.989 230.502 419.766 231.414 411.546L231.719 408.804C235.066 378.888 238.294 348.959 241.403 319.018L242.847 305.022C244.305 290.914 245.774 276.804 247.011 262.676C247.715 254.6 248.373 246.519 248.984 238.435C249.434 232.495 249.717 226.587 249.901 220.658C250.627 219.912 250.991 218.819 250.669 217.692C250.482 217.036 250.263 216.381 250.031 215.728L250.074 213.803C250.085 213.196 249.469 212.882 248.974 212.983C248.077 210.809 247.09 208.654 246.265 206.501C244.93 203.016 243.831 199.263 241.945 196.038V196.038ZM316.471 233.698C302.52 224.95 285.916 218.656 269.285 219.332C268.906 219.349 268.802 219.924 269.193 220.013C278.064 221.995 287.033 224.409 295.43 227.922C303.893 231.469 311.824 236.171 318.996 241.895C332.156 252.416 342.386 266.102 349.121 281.529C353.066 290.565 355.831 300.105 358.246 309.649C360.802 319.749 362.908 329.959 364.66 340.229C368.118 360.517 370.132 381.028 371.204 401.576C372.294 422.476 371.844 443.392 372.621 464.296C372.756 467.917 377.928 467.847 378.191 464.296C379.954 440.528 378.978 416.384 377.348 392.635C375.884 371.284 373.325 349.979 369.206 328.973L368.848 327.153C364.996 307.718 360.351 287.812 351.042 270.21C343.094 255.185 330.822 242.701 316.471 233.698V233.698ZM122.761 326.585C122.747 326.54 122.719 326.501 122.681 326.473C122.643 326.445 122.598 326.43 122.551 326.43C122.504 326.43 122.458 326.445 122.42 326.473C122.382 326.501 122.354 326.54 122.34 326.585C120.75 331.038 120.693 336.066 120.27 340.76L120.237 341.121C119.831 345.405 119.526 349.694 119.243 353.986L119.136 355.595C117.998 373.103 116.574 390.592 114.428 408.008C112.291 425.36 109.399 442.59 106.274 459.785C105.925 461.699 106.772 463.649 108.779 464.2C110.548 464.687 112.818 463.597 113.191 461.694C115.132 451.823 116.702 441.941 118.101 431.985C120.571 414.455 122.401 396.841 123.588 379.178C124.181 370.312 124.549 361.432 124.693 352.548C124.749 348.419 124.662 344.29 124.432 340.168L124.381 339.218C124.138 335.005 124.162 330.601 122.761 326.585V326.585ZM273.495 438.103C273.307 438.002 273.077 438.21 273.195 438.403C275.897 442.796 279.55 446.582 283.081 450.317C286.774 454.219 290.375 458.239 294.142 462.065C296.862 464.827 301.241 460.37 298.37 457.834C294.329 454.27 290.109 450.881 285.998 447.397L284.2 445.872C280.831 443.022 277.362 440.199 273.495 438.103ZM145.202 435.904C145.404 435.519 144.943 435.207 144.631 435.46C142.452 437.235 140.498 439.35 138.395 441.22C136.309 443.059 134.153 444.816 131.93 446.488C129.704 448.185 127.42 449.804 125.083 451.345C123.142 452.621 121.142 453.641 119.11 454.701C118.169 454.822 117.298 455.284 116.599 456.161C115.496 457.547 115.381 460.16 116.91 461.363L117.184 461.578C118.969 462.983 121.088 463.154 122.846 461.578C124.809 459.82 126.664 457.886 128.548 456.026L129.114 455.471C131.149 453.507 133.104 451.463 134.976 449.344L136.664 447.424C139.79 443.855 143.048 440.008 145.202 435.904V435.904ZM155.239 230.101C155.601 229.862 155.377 229.214 154.93 229.369L154.109 229.652C150.68 230.846 147.153 232.168 144.041 234.003C140.695 235.976 137.607 238.324 134.654 240.845C128.548 246.064 123.351 252.48 118.936 259.168C110.074 272.586 104.594 287.955 100.171 303.332C95.4522 319.729 91.8217 336.478 88.8548 353.274C85.8255 370.354 83.5348 387.558 81.989 404.836C81.2372 413.341 80.7317 421.851 80.478 430.387C80.3475 434.778 80.3512 439.166 80.3879 443.559C80.3971 444.688 80.3898 445.817 80.3769 446.946L80.3346 450.333C80.3107 452.476 80.0552 454.726 80.5626 456.819C81.3824 460.188 86.9467 459.559 86.7647 456.117C86.932 454.971 86.9394 453.787 86.8953 452.601C86.9219 452.445 86.9507 452.289 86.9817 452.134C87.0681 451.714 87.0097 451.277 86.8162 450.894C86.7886 450.326 86.7629 449.76 86.7537 449.204C86.717 446.942 86.7188 444.69 86.7813 442.43C86.9228 437.662 87.0938 432.896 87.2942 428.131C87.6611 418.605 88.2231 409.087 88.9798 399.584C91.6636 366.521 97.3309 333.271 106.847 301.464C111.268 286.692 117.364 272.193 126.103 259.429C129.978 253.782 134.366 248.507 139.213 243.67C144.096 238.782 149.478 233.92 155.239 230.101V230.101ZM221.099 443.235L220.439 448.009C220.11 450.398 219.783 452.786 219.474 455.175C217.368 454.886 215.215 454.767 213.186 454.587C209.634 454.272 206.059 454.12 202.496 453.972C195.131 453.667 187.728 453.141 180.353 453.178C180.278 453.178 180.206 453.184 180.136 453.189L179.77 443.768L184.95 443.761C189.34 443.754 193.728 443.715 198.118 443.678C202.07 443.643 206.024 443.638 209.978 443.557L211.671 443.517C214.667 443.436 217.978 443.603 221.099 443.235V443.235ZM179.335 429.561C179.553 429.588 179.772 429.606 179.991 429.617C181.017 429.661 182.05 429.629 183.077 429.639C185.263 429.657 187.45 429.672 189.636 429.672C194.009 429.672 198.382 429.697 202.754 429.751C207.256 429.806 211.754 429.883 216.256 429.892C218.434 429.887 220.613 429.848 222.791 429.776C222.438 432.879 222.068 435.975 221.662 439.066C218.276 438.609 214.634 438.84 211.325 438.809L210.895 438.804C206.381 438.726 201.86 438.783 197.342 438.789C192.695 438.794 188.048 438.809 183.401 438.846L179.583 438.879L179.575 438.686C179.463 435.648 179.392 432.605 179.335 429.561V429.561ZM224.469 414.729C224.046 418.388 223.649 422.055 223.245 425.72C222.974 425.678 222.702 425.643 222.425 425.613C220.244 425.38 218.058 425.193 215.87 425.052C211.5 424.782 207.131 424.639 202.754 424.521C198.254 424.4 193.752 424.308 189.25 424.243C187.063 424.214 184.879 424.216 182.691 424.232C181.666 424.238 180.629 424.207 179.605 424.275C179.482 424.284 179.366 424.297 179.25 424.31L179.173 418.806L179.131 416.057C182.511 416.265 185.949 416.185 189.325 416.185L190.105 416.187C194.349 416.207 198.594 416.149 202.838 416.06C207.214 415.984 211.588 415.813 215.956 415.546C217.722 415.434 219.486 415.282 221.245 415.088L222.125 414.986C222.892 414.896 223.68 414.823 224.469 414.729V414.729ZM178.781 399.2C186.923 399.847 195.02 400.117 203.184 400.196L204.408 400.207C211.621 400.263 218.895 400.561 226.125 400.369L224.827 411.621C223.792 411.574 222.752 411.572 221.739 411.535C219.68 411.461 217.629 411.443 215.57 411.437C211.325 411.428 207.081 411.465 202.838 411.458C198.465 411.437 194.091 411.382 189.719 411.292C186.173 411.224 182.59 410.958 179.035 410.967L178.781 399.2V399.2ZM178.438 383.198C179.381 383.512 180.495 383.533 181.715 383.588L184.868 383.744C186.327 383.816 187.789 383.884 189.25 383.937C194.121 384.115 198.991 384.283 203.862 384.437C208.855 384.595 213.87 384.687 218.862 384.531C221.302 384.458 223.739 384.321 226.171 384.121C226.774 384.071 227.388 384.038 228.004 383.994C227.436 388.963 226.866 393.933 226.294 398.902C219.099 398.017 211.848 397.468 204.66 396.554L198.162 395.722C191.666 394.893 185.177 394.078 178.656 393.393L178.438 383.198V383.198ZM178.09 367.02C179.474 367.362 181.052 367.345 182.382 367.428L182.627 367.446C185.146 367.626 187.67 367.742 190.195 367.794C195.143 367.917 200.094 367.978 205.044 368.007L208.02 368.025C211.987 368.049 215.952 368.06 219.921 367.967C222.465 367.897 225.008 367.793 227.55 367.656C228.313 367.617 229.092 367.591 229.873 367.553C229.342 372.257 228.803 376.96 228.268 381.666C227.432 381.532 226.592 381.431 225.792 381.297C223.746 380.956 221.691 380.666 219.631 380.425C215.158 379.89 210.664 379.504 206.169 379.178C201.557 378.843 196.939 378.56 192.325 378.237L189.059 378.005C187.969 377.93 186.881 377.856 185.791 377.79C183.93 377.676 181.767 377.804 179.921 377.4C179.421 377.19 178.866 377.143 178.311 377.262L178.09 367.02V367.02ZM177.671 348.081C178.151 348.69 178.866 349.01 179.719 349.12C184.162 349.696 188.719 349.789 193.199 350.061L193.987 350.111C198.614 350.416 203.243 350.655 207.871 350.902C212.627 351.154 217.382 351.36 222.142 351.525C224.165 351.592 226.19 351.609 228.215 351.578L229.083 351.566C229.914 351.551 230.783 351.553 231.656 351.525C231.173 355.924 230.686 360.324 230.191 364.721C229.302 364.625 228.414 364.552 227.552 364.46C225.009 364.191 222.469 363.925 219.921 363.724C215.094 363.344 210.261 363.114 205.425 362.875C200.476 362.63 195.524 362.466 190.575 362.235C188.175 362.132 185.777 361.974 183.384 361.762C181.706 361.608 179.715 361.038 177.965 361.247C177.87 356.858 177.77 352.47 177.671 348.081V348.081ZM177.281 331.117C177.359 331.24 177.45 331.353 177.553 331.454C179.509 333.388 181.919 333.238 184.511 333.442L184.671 333.455C187.21 333.668 189.752 333.872 192.294 334.054C197.379 334.422 202.471 334.679 207.563 334.907C212.772 335.143 218.015 335.303 223.23 335.198C226.57 335.128 230.066 335.141 233.472 334.815C232.95 339.661 232.425 344.504 231.893 349.35C230.936 349.17 229.972 349.03 229.059 348.886C226.757 348.524 224.454 348.16 222.14 347.893C217.517 347.36 212.89 346.862 208.257 346.413C204.294 346.029 200.333 345.639 196.368 345.286L193.987 345.082C189.256 344.683 184.465 344.026 179.719 343.929C178.936 343.912 178.052 344.339 177.603 345.012C177.498 340.38 177.39 335.748 177.281 331.117V331.117ZM176.952 317.383C178.16 317.53 179.463 317.447 180.577 317.484C183.397 317.576 186.217 317.661 189.035 317.745L205.952 318.243C211.713 318.414 217.493 318.541 223.256 318.46C225.789 318.424 228.335 318.42 230.87 318.282L231.713 318.231C232.756 318.161 234.035 318.152 235.285 318.025L233.811 331.7C230.421 331.209 226.927 331.027 223.566 330.739L222.847 330.676C217.892 330.224 212.91 329.924 207.945 329.587C202.849 329.244 197.763 328.824 192.677 328.396C190.134 328.183 187.592 327.969 185.052 327.734L184.737 327.703C182.336 327.453 180.081 326.919 177.954 328.335C177.643 328.541 177.401 328.819 177.234 329.128C177.14 325.213 177.05 321.298 176.952 317.383V317.383ZM176.559 301.423C186.862 301.839 197.166 302.153 207.476 302.293C213.279 302.37 219.075 302.315 224.879 302.194C227.404 302.142 229.928 302.02 232.447 301.828L233.388 301.752C234.585 301.651 235.84 301.578 237.09 301.458C236.574 306.16 236.061 310.862 235.552 315.566C234.322 315.336 233.037 315.231 231.958 315.093L231.713 315.06C229.035 314.693 226.331 314.477 223.64 314.24C218.399 313.779 213.131 313.481 207.875 313.227C202.495 312.968 197.11 312.749 191.728 312.508L186.344 312.267L183.653 312.151L179.809 311.991C179.177 311.966 178.518 311.881 177.886 311.912L177.706 311.888L177.482 311.863C177.312 311.731 177.126 311.622 176.928 311.539L176.809 311.493L176.559 301.423V301.423ZM238.779 286.299C238.302 290.532 237.827 294.767 237.36 299C235.892 298.832 234.404 298.74 233.002 298.613C230.173 298.36 227.329 298.137 224.493 298.007L218.82 297.744C215.041 297.567 211.259 297.398 207.476 297.26C197.121 296.883 186.767 296.449 176.419 295.92L176.193 287.304C176.691 287.838 177.408 288.187 178.351 288.185C189.215 288.156 200.088 288.22 210.95 288.04C216.388 287.95 221.82 287.819 227.25 287.54C229.916 287.395 232.574 287.135 235.217 286.76C236.342 286.604 237.574 286.492 238.779 286.299V286.299ZM240.518 271.216C240.007 275.552 239.506 279.89 239.013 284.228C237.664 283.987 236.27 283.858 235.011 283.687C232.307 283.32 229.586 283.025 226.862 282.873C221.563 282.571 216.259 282.42 210.95 282.308C200.088 282.077 189.215 282.078 178.351 281.992C177.331 281.985 176.574 282.389 176.075 282.992C176 280.284 175.921 277.577 175.838 274.868C176.888 274.758 177.928 274.602 178.892 274.533C181.849 274.328 184.811 274.138 187.772 273.967C193.953 273.617 200.135 273.308 206.32 273.04C212.506 272.767 218.693 272.513 224.881 272.279L227.586 272.18C231.89 272.02 236.265 271.817 240.518 271.216V271.216ZM242.463 254.887C241.932 259.278 241.408 263.669 240.886 268.062L240.728 269.423C235.553 268.416 230.099 268.121 224.881 267.899C218.691 267.636 212.515 267.5 206.32 267.518C200.132 267.538 193.954 267.684 187.772 267.939C184.682 268.068 181.594 268.215 178.506 268.382C177.656 268.428 176.662 268.405 175.638 268.419C175.614 267.73 175.596 267.038 175.572 266.349C175.478 263.554 175.386 260.757 175.291 257.962C177.379 259.035 180.094 259.468 182.193 259.925L182.432 259.979C185.897 260.757 189.436 261.262 192.972 261.569C199.919 262.176 206.938 261.95 213.877 261.363L215.092 261.259C221.186 260.729 227.504 260.06 233.412 258.55C236.226 257.833 239.134 256.827 241.656 255.369C241.928 255.212 242.197 255.051 242.463 254.887V254.887ZM183.789 202.702C183.728 202.463 183.373 202.409 183.256 202.632C182.436 204.191 182.129 206.063 181.561 207.735C180.947 209.533 180.375 211.342 179.699 213.119C178.299 216.819 176.604 220.4 174.631 223.828C172.662 227.23 178.173 229.658 179.621 225.934C181.118 222.091 182.347 218.115 183.09 214.055C183.454 212.073 183.778 210.063 183.882 208.049C183.972 206.321 184.215 204.388 183.789 202.702V202.702Z" fill="black"/>
<path fill-rule="evenodd" clip-rule="evenodd" d="M172.753 74.1961C198.295 53.4205 239.227 46.6737 266.569 67.635C287.814 87.3054 296.606 143.202 292.847 171.29C291.801 189.306 278.047 209.726 257.858 204.028C254.429 203.691 251.1 202.375 247.641 202.101C243.501 201.622 239.332 201.615 235.2 202.198C226.2 203.472 218.222 208.255 209.485 210.491C193.275 214.64 175.189 211.848 161.236 202.505C115.128 172.167 136.014 103.557 172.753 74.1961V74.1961Z" fill="#FDFBF5"/>
<path fill-rule="evenodd" clip-rule="evenodd" d="M176.155 210.99C175.681 210.827 175.209 210.655 174.738 210.481C174.707 210.591 174.657 210.694 174.598 210.797C174.532 210.959 174.466 211.119 174.392 211.277C174.991 211.276 175.587 211.179 176.155 210.99M177.104 9.66316C177.313 9.19524 177.554 8.7424 177.826 8.30792C177.166 8.52123 176.504 8.81729 175.907 9.19793C176.311 9.33401 176.707 9.49031 177.104 9.66316ZM277.995 71.133L278.076 71.1201C277.718 70.1976 277.156 69.3683 276.431 68.6946C276.31 68.5824 276.177 68.4776 276.049 68.3691C276.771 69.2334 277.427 70.1528 277.997 71.133M93.3887 167.652C93.725 164.411 94.172 161.182 94.7287 157.972C95.2692 154.897 95.7232 151.609 97.2876 148.88C98.8409 146.164 100.398 143.526 102.247 141.135C101.982 139.914 101.633 138.768 101.33 137.844C99.5835 132.518 97.8629 125.757 101.493 120.808C102.337 119.663 103.365 118.785 104.543 117.991C105.043 117.653 105.874 117.347 106.258 116.88C106.53 116.549 106.436 116.728 106.449 116.566C106.515 115.687 104.457 113.833 103.975 113.136C103.074 111.849 102.403 110.402 101.891 108.92C99.8629 103.059 101.242 96.605 102.46 90.7316C103.106 87.6184 103.815 84.4979 104.049 81.3185C104.267 78.334 103.859 75.4194 103.618 72.4496C103.385 69.5184 103.447 66.4953 104.701 63.783C105.321 62.4614 106.235 61.2995 107.374 60.3866C108.477 59.4966 109.852 58.9799 110.927 58.0935C111.999 57.2109 111.692 56.0174 111.413 54.7983C111.028 53.1433 110.543 51.4975 110.495 49.7873C110.411 46.8084 111.626 43.903 113.525 41.6503C115.482 39.3223 118.278 37.7464 121.3 37.3933C122.683 37.2297 124.041 37.5074 125.416 37.4099C126.777 37.318 127.071 36.6376 127.328 35.3927C127.918 32.5424 127.677 29.7289 129.078 27.0718C130.321 24.7088 132.532 23.1072 134.975 22.162C139.451 20.4298 144.659 20.7865 149.383 21.8089C152.17 13.6002 160.874 8.21965 169.436 8.15161C170.773 5.88245 173.038 4.18884 175.62 3.19217C179.892 1.54087 184.416 2.50628 188.867 2.50628H188.887C189.332 2.47833 189.779 2.46606 190.225 2.4695C190.646 2.44578 191.066 2.41083 191.484 2.36468C196.549 1.76705 201.558 -0.309035 206.576 1.72476C208.813 2.62948 210.591 4.02335 211.718 5.80521C213.414 6.26677 215.089 6.79637 216.731 7.41055C223.85 7.59444 230.903 11.4156 234.503 17.6089C239.571 17.0334 245.071 18.008 248.422 22.1509C249.303 23.2521 249.979 24.502 250.42 25.8416C253.837 26.9467 256.999 28.918 259.069 31.8859C260.957 34.5946 261.321 38.0976 260.043 41.0067C263.095 43.217 265.477 46.3836 266.626 50.122C267.313 52.3419 267.434 54.6985 266.979 56.9773C270.136 57.662 273.117 58.9924 275.736 60.8849C278.512 62.904 281.975 66.1202 282.159 69.8218C282.172 70.094 282.161 70.3661 282.14 70.6365C288.247 70.2062 294.475 71.2433 298.602 76.142C301.701 79.8198 303.049 84.553 302.221 88.8634C309.488 90.34 316.357 94.1409 321.15 99.7605C324.633 103.845 327.729 109.038 327.543 114.598C327.484 116.274 327.091 117.96 326.413 119.519V119.523C326.703 120.071 327.001 120.681 327.289 121.33C331.791 124.48 335.061 129.422 336.903 134.866C338.389 139.278 339.324 145.006 337.736 149.495C337.497 150.179 337.188 150.824 336.832 151.422C337.131 151.742 337.414 152.06 337.69 152.383C340.723 155.931 343.795 160.401 343.585 165.285C343.499 167.253 342.769 169.231 341.578 170.855C345.773 175.11 349.152 180.481 348.817 186.478C348.528 191.699 345.666 197 341.181 199.506C341.931 203.528 340.929 207.772 337.799 210.913C336.318 212.41 334.474 213.497 332.447 214.068C332.012 218.805 327.81 222.619 323.348 223.715C322.517 223.921 321.685 224.044 320.859 224.103C316.843 226.074 312.054 225.848 307.957 224.041C306.716 225.601 305.138 226.86 303.343 227.726C302.602 228.092 301.817 228.393 300.997 228.638C295.212 230.352 289.277 228.029 284.218 225.317C284.052 225.23 283.754 225.122 283.492 225.001C282.793 225.782 281.517 226.556 280.854 226.937C278.6 228.231 275.846 228.833 273.262 228.662C270.229 228.459 267.552 227.457 265.074 226.03C264.712 226.093 264.348 226.128 263.982 226.148C261.653 226.271 259.576 225.534 257.707 224.368C256.473 224.532 255.207 224.515 253.925 224.291C251.102 225.008 248.352 223.866 246.142 222.051C245.163 221.247 244.335 220.302 243.451 219.401C242.53 218.463 241.832 218.246 240.756 217.617C238.212 216.128 237.905 212.355 239.008 209.626C238.799 209.148 238.677 208.616 238.677 208.026C238.686 202.872 241.058 198.146 243.971 194.023C245.273 192.184 246.685 190.384 248.236 188.753C249.482 187.442 251.232 185.316 253.078 184.784C253.191 184.701 253.307 184.621 253.424 184.544C253.067 183.291 252.857 182.017 252.946 180.715C253.038 179.405 253.455 178.138 254.161 177.03C251.835 172.546 250.852 167.486 251.33 162.457C249.444 159.778 248.014 156.821 247.277 153.581C246.822 151.574 246.561 149.463 246.596 147.408C246.613 146.42 246.973 145.173 246.981 144.151C246.925 144.475 246.506 143.268 246.345 142.968C244.471 139.491 242.069 136.779 241.668 132.678C241.435 130.28 242.003 127.63 243.438 125.663C242.519 122.033 242.53 118.135 243.979 114.672C244.364 113.745 244.814 112.847 245.326 111.983C245.089 111.261 244.872 110.531 244.593 109.872L244.266 109.084C243.24 108.179 242.286 107.196 241.411 106.145C239.587 103.942 238.192 101.415 238.017 98.5046C237.931 97.0463 238.273 95.6525 238.697 94.2678C238.883 93.6426 238.997 92.9475 239.218 92.337C239.341 91.9986 239.641 91.6529 239.745 91.3348L239.804 91.1601C239.781 91.0527 239.771 90.9426 239.777 90.8328C239.773 89.4371 239.591 88.0745 239.582 86.7284C238.31 88.0219 236.745 88.9884 235.019 89.5456C231.497 90.6765 227.822 90.1653 224.705 88.4202C221.348 90.7188 217.578 92.8022 213.624 93.6389C211.275 94.1354 208.922 93.9313 206.565 94.2384C204.223 94.5436 201.959 95.566 199.753 96.3641C194.843 98.1386 189.946 99.9609 185.023 101.691C181.045 103.087 176.742 104.194 172.578 103.409C171.409 105.211 169.891 106.737 167.946 107.855C166.549 108.65 165.024 109.193 163.44 109.461C162.043 109.698 160.403 109.604 159.269 110.564C158.163 111.498 157.471 112.888 156.477 113.938C155.349 115.126 154.028 116.115 152.571 116.862C151.422 117.447 150.247 117.87 149.056 118.147C149.172 120.8 149.251 123.455 149.293 126.11C149.35 131.886 149.328 137.66 149.405 143.436C149.482 149.191 149.666 154.947 149.968 160.695C150.256 166.09 150.661 171.504 151.946 176.767C156.21 194.229 172.183 206.731 190.063 207.368C195.372 207.559 200.626 206.812 205.703 205.249C210.96 203.629 215.655 200.295 221.047 199.269C222.457 199.004 223.784 200.424 222.977 201.787C221.585 204.131 219.896 205.562 217.585 206.972C215.166 208.445 212.471 209.537 209.811 210.494C204.898 212.244 199.757 213.274 194.549 213.552C190.587 213.769 186.611 213.497 182.731 212.752C182.459 213.587 181.977 214.399 181.613 215.172C181.558 215.286 181.376 215.207 181.411 215.091C181.462 214.926 181.5 214.757 181.523 214.585C180.218 216.288 178.203 217.465 176.131 218.037C174.672 218.441 173.122 218.564 171.62 218.393C171.148 218.34 170.678 218.261 170.214 218.158C168.685 219.499 166.727 220.392 164.762 220.839C165.098 222.891 164.085 225.129 161.736 225.712C160.749 225.957 159.802 225.96 158.854 225.872C158.089 226.229 157.266 226.508 156.392 226.7C155.254 226.948 153.896 226.63 153.038 225.806C152.567 226.137 152.128 226.365 151.694 226.889C149.902 229.052 146.043 227.329 145.872 224.83C145.304 224.83 144.734 224.839 144.163 224.857L143.751 225.048C141.254 226.209 138.668 227.224 135.905 226.312C135.398 226.144 134.931 225.931 134.508 225.681C132.563 225.856 130.644 225.859 128.67 225.223C127.507 224.851 126.429 224.252 125.499 223.461C122.453 224.357 119.242 224.76 116.212 223.653C113.944 222.825 112.118 221.52 110.834 219.797C108.83 219.854 106.846 219.392 105.074 218.456C101.999 216.864 99.8427 213.835 98.3409 210.801C95.0302 204.104 93.0743 196.91 92.3059 189.49C91.5486 182.184 92.6276 174.917 93.3887 167.652" fill="black"/>
<path fill-rule="evenodd" clip-rule="evenodd" d="M187.44 183.097C190.074 182.022 192.37 180.255 194.084 177.983C194.346 177.65 194.537 177.266 194.644 176.856C194.751 176.445 194.772 176.017 194.705 175.598C194.565 174.74 194.058 173.964 193.367 173.441C192.674 172.919 191.806 172.662 190.968 172.792C190.238 172.906 189.514 173.305 188.938 174.135L188.819 174.3C187.82 175.668 186.504 176.773 184.984 177.52C183.513 178.243 181.867 178.533 180.238 178.355C177.043 177.994 174.843 176.266 172.503 173.918C172.212 173.622 171.922 173.316 171.631 173.006C171.461 172.743 171.205 172.546 170.907 172.448C170.584 172.346 170.236 172.351 169.915 172.461C169.595 172.57 169.317 172.78 169.124 173.059C168.946 173.322 168.843 173.647 168.876 174.022C169.091 176.455 170.361 178.625 172.166 180.33C174.172 182.224 176.83 183.533 179.332 183.993C182.087 184.499 184.896 184.136 187.44 183.097V183.097ZM178.03 145.57C175.098 147.355 170.63 151.515 173.784 155.937C177.499 159.836 182.845 155.365 185.479 153.343C187.922 151.776 190.668 155.807 188.402 157.636C169.361 171.742 161.635 146.037 176.547 143.473C178.19 143.19 178.799 145.018 178.03 145.57V145.57ZM212.148 129.161C211.825 125.136 205.7 124.222 205.089 128.205C204.545 131.773 205.187 135.051 206.793 138.264C208.326 141.331 212.183 139.9 212.475 137.105C212.867 133.36 212.35 131.666 212.148 129.161V129.161ZM165.521 127.38C164.666 126.26 163.433 125.497 161.957 125.927C157.341 127.278 158.701 133.836 160.323 137.028C161.203 138.76 164.051 139.2 165.337 137.674C167.433 135.186 168.438 130.215 165.771 127.762C165.7 127.637 165.619 127.508 165.521 127.38ZM206.858 111.551L206.128 111.422C203.872 111.032 201.069 110.657 199.473 112.47C198.626 113.434 198.336 115.223 199.473 116.144C201.473 117.762 203.687 117.137 206.084 117.273C208.04 117.385 209.978 117.716 211.861 118.259C216.038 119.454 219.44 121.633 223.006 124.027C223.473 124.34 223.951 123.742 223.729 123.305C221.67 119.268 217.681 115.955 213.685 113.934C211.551 112.854 209.218 111.961 206.858 111.551ZM169.729 109.743L169.17 109.857C163.097 111.126 155.207 113.663 152.332 119.634C152.222 120.478 152.337 120.658 152.431 120.776L152.462 120.817C152.541 120.918 152.602 121.056 152.968 121.171C153.071 121.147 153.174 121.121 153.277 121.094C154.595 120.749 155.637 120.272 156.646 119.778L157.742 119.239C159.012 118.614 160.293 118.014 161.652 117.571C164.547 116.622 167.53 115.963 170.556 115.603C171.202 115.539 171.818 115.304 172.343 114.923C172.843 114.548 173.196 114.01 173.343 113.402C173.556 112.544 173.494 111.894 173.034 111.118C172.688 110.537 172.192 110.135 171.624 109.903C171.022 109.665 170.363 109.609 169.729 109.743V109.743Z" fill="black"/>
</svg>
