<svg width="460" height="432" viewBox="0 0 460 432" fill="none" xmlns="http://www.w3.org/2000/svg">
<g clip-path="url(#clip0_32_297)">
<path fill-rule="evenodd" clip-rule="evenodd" d="M97.0047 424.964C142.702 431.905 189.228 432.254 235.304 429.733C253.539 428.368 271.831 428.121 290.053 429.868C300.819 430.669 348.026 434.277 351.882 424.633C349.455 373.282 344.538 321.494 329.457 272.106C323.253 254.57 317.925 240.015 305.819 225.504C302.005 221.542 293.776 213.232 289.061 210.523C284.977 208.174 283.27 209.012 280.924 205.046C278.594 200.667 276.874 193.352 273.566 190.26C270.195 187.114 265.202 188.239 259.013 189.252C260.15 173.887 253.058 169.973 243.286 167.05C226.109 160.494 209.147 163.788 204.824 184.697C196.808 184.697 192.306 188.147 187.438 191.462C185.448 192.817 186.832 196.268 184.455 197.334C180.058 198.899 172.286 198.515 168.054 200.442C148.799 209.205 131.652 221.911 120.39 240.469C95.1421 280.087 77.801 363.547 80.801 410.505C79.4865 412.567 81.3044 415.523 81.7679 417.741C82.3507 419.669 84.2398 420.952 86.2116 420.733C88.9633 423.693 93.2183 424.351 97.0047 424.964V424.964Z" fill="#FDFBF5"/>
<path fill-rule="evenodd" clip-rule="evenodd" d="M309.981 183.515C309.701 183.359 309.948 182.957 310.229 183.089C323.782 189.448 334.178 200.603 341.494 213.491C349.069 226.835 353.385 241.987 357.109 256.796L357.243 257.331C361.211 273.173 364.585 289.179 367.623 305.224C370.701 321.472 373.172 337.822 375.158 354.238C376.14 362.354 377.018 370.485 377.7 378.633C378.042 382.705 378.352 386.779 378.63 390.856C378.743 392.486 378.847 394.118 378.936 395.748L379.001 396.973C379.057 398.083 379.19 399.195 378.915 400.291C378.678 401.236 378.178 402.09 377.738 402.957C376.869 404.67 374.484 404.387 373.547 402.957L373.276 402.54C372.655 401.58 372.138 400.686 371.943 399.492C371.754 398.335 371.748 397.122 371.663 395.953C371.508 393.802 371.375 391.648 371.224 389.497C370.907 384.968 370.55 380.442 370.155 375.919C369.375 366.99 368.537 358.069 367.509 349.165C365.675 333.337 363.4 317.562 360.69 301.859C358.049 286.524 354.711 271.344 351.229 256.182L350.869 254.615C344.772 228.144 335.377 197.66 309.981 183.515ZM165.632 287.166C165.731 286.901 166.16 286.84 166.233 287.166C167.145 291.275 167.234 295.509 167.375 299.718C167.513 303.869 167.508 308.039 167.446 312.193C167.223 327.459 166.804 342.712 166.441 357.977C166.259 365.611 166.09 373.246 165.961 380.882C165.912 383.747 165.868 386.61 165.835 389.475L165.792 393.252C165.771 394.922 165.728 396.572 165.524 398.24C165.39 399.338 165.104 400.384 164.498 401.325C164.067 401.992 163.455 402.332 162.859 402.785L162.746 402.871C161.984 403.474 161.181 403.477 160.428 402.871L160.208 402.697C159.488 402.135 158.865 401.694 158.403 400.802C157.764 399.563 157.662 398.217 157.554 396.852C157.388 394.781 157.498 392.679 157.519 390.602C157.562 386.437 157.618 382.271 157.693 378.105C157.961 362.829 158.491 347.552 159.458 332.302C159.913 325.121 160.531 317.915 161.359 310.762L161.516 309.421C161.768 307.316 161.996 305.174 162.254 303.025C158.41 300.305 154.996 297.026 152.125 293.295C151.912 293.02 152.263 292.634 152.519 292.901C155.471 295.956 158.855 298.394 162.602 300.309C163.215 295.81 164.059 291.335 165.632 287.166ZM230.009 150.996C230.062 150.955 230.145 150.939 230.195 150.996C231.022 151.963 230.855 153.439 230.882 154.662L230.885 154.777C230.945 156.566 230.956 158.35 230.95 160.139L230.931 165.839C230.928 166.622 230.865 167.438 230.905 168.225L230.926 168.53C231.362 168.977 231.564 169.621 231.417 170.266C231.39 171.097 230.956 171.789 230.322 172.224L231.678 174.147L233.036 176.07C235.834 180.039 238.663 183.973 241.61 187.831C244.623 191.764 247.816 195.555 251.18 199.193C252.817 200.974 254.489 202.725 256.193 204.442C256.885 205.139 257.597 205.818 258.299 206.506L258.998 207.196C259.412 207.61 259.931 208.019 260.206 208.542C260.367 208.851 260.403 209.613 260.461 209.739C260.979 210.876 260.095 212.69 258.628 212.122L258.695 212.079C258.961 211.892 258.791 211.89 258.181 212.071C257.804 212.071 257.433 211.98 257.099 211.806L256.998 211.749C256.522 211.509 256.099 211.043 255.715 210.669L255.618 210.578C254.736 209.752 253.897 208.875 253.051 208.011C251.284 206.212 249.565 204.367 247.893 202.48C244.566 198.706 241.405 194.79 238.418 190.742C235.372 186.623 232.542 182.292 230.107 177.783C229.191 176.071 228.33 174.33 227.526 172.563C225.945 172.055 225.579 170.375 225.688 168.482C225.105 167.123 224.58 165.738 224.269 164.323C224.226 164.128 224.476 163.945 224.625 164.114C225.132 164.689 225.599 165.301 226.049 165.928C226.32 164.601 226.663 163.378 226.825 162.6L227.526 159.161C223.577 158.956 219.253 160.577 216.531 163.417C216.383 164.157 215.816 164.687 215.261 165.377C214.619 166.174 214.081 167.049 213.662 167.982C212.746 170.038 213.263 173.066 211.488 174.574C211.31 174.725 211.104 174.838 210.882 174.907C211.724 179.038 211.342 183.589 211.324 187.78V188.147C211.327 192.837 211.171 197.531 210.989 202.216L210.806 206.854C210.567 213.039 210.412 219.227 211.013 225.379C215.567 221.343 220.383 217.614 225.431 214.215L227.061 213.126C229.011 211.817 231.011 210.472 233.147 209.535C235.941 208.309 238.6 208.731 241.297 209.987C243.984 211.24 246.592 212.693 249.228 214.05C251.908 215.429 254.594 216.797 257.279 218.169C259.057 219.078 261.663 219.897 262.968 221.57C263.051 221.201 263.148 220.832 263.261 220.463C263.12 219.873 263.203 219.252 263.496 218.72C267.878 210.667 271.933 202.422 275.96 194.186C277.999 190.017 279.936 185.8 281.978 181.636L283.963 177.578L284.963 175.554C285.463 174.544 285.984 173.545 286.491 172.537C286.705 172.111 286.973 171.689 287.181 171.259L287.281 171.044C287.286 171.032 287.766 169.52 287.395 169.664L287.364 169.68C287.173 169.788 287.021 169.549 287.145 169.397C287.67 168.747 288.402 169.323 288.701 169.923C289.527 171.578 288.014 174.175 287.431 175.761L287.4 175.848C285.594 180.963 283.547 185.981 281.451 190.98C277.433 200.568 273.115 210.007 268.809 219.464L268.758 219.626C269.676 218.921 270.657 218.282 271.496 217.66C273.615 216.091 275.796 214.599 277.973 213.112C281.97 210.398 286.06 207.822 290.234 205.389L291.069 204.901C293.152 203.688 295.215 202.703 297.685 203.067C299.981 203.406 302.117 204.639 304.191 205.642L304.405 205.745L310.814 208.792C310.125 206.06 309.392 203.339 308.614 200.631C305.69 190.409 302.219 180.351 298.216 170.501L297.637 169.073C296.854 167.113 296.072 164.975 293.83 164.372C291.59 163.768 289.021 164.664 286.973 163.386C286.787 163.27 286.811 162.962 287.036 162.906L288.299 162.588C290.671 161.997 293.453 161.403 295.696 161.978C298.137 162.603 300.157 164.652 301.34 166.782C302.658 169.152 303.587 171.804 304.585 174.329L304.744 174.728C305.892 177.587 306.994 180.464 308.051 183.357C310.159 189.144 312.083 194.997 313.82 200.906C314.66 203.754 315.455 206.614 316.218 209.482C316.438 210.306 316.801 211.308 317.097 212.35C317.438 212.683 317.761 213.054 318.064 213.476C318.566 214.177 318.205 215 317.58 215.42C317.557 216.139 317.398 216.814 317.016 217.391C315.527 219.651 311.594 219.07 311.753 216.033C311.777 215.568 311.958 215.124 312.233 214.748L312.224 214.687L312.193 214.576C311.511 214.249 310.825 213.884 310.102 213.527L303.375 210.202C301.426 209.24 299.268 207.753 297.1 207.385C295.08 207.043 292.95 208.549 291.215 209.456L291.102 209.515C286.908 211.673 282.739 213.877 278.594 216.127C276.569 217.221 274.569 218.36 272.552 219.467C270.865 220.392 269.046 221.721 267.15 222.242C266.34 222.873 265.378 222.789 264.605 222.312C264.958 224.5 264.936 226.746 265.046 228.982C265.191 231.972 265.213 234.971 265.261 237.967L265.281 239.089C265.408 245.709 265.476 252.331 265.501 258.953C265.59 282.532 265.33 306.118 265.269 329.695C265.239 341.542 265.004 353.399 264.696 365.242C264.566 370.26 264.292 375.272 263.998 380.282L263.837 383.016C263.493 388.782 263.291 394.611 262.223 400.301C262.084 401.042 260.829 401.06 260.705 400.301C259.723 394.204 259.668 387.976 259.479 381.808L259.44 380.576C259.213 373.954 259.105 367.336 259.127 360.712C259.211 337.123 259.825 313.551 260.325 289.968C260.579 278.12 260.748 266.266 261.14 254.423C261.335 248.496 261.557 242.573 261.82 236.649C261.938 234.005 262.051 231.362 262.226 228.72L262.306 227.588C262.36 226.85 262.405 226.122 262.458 225.399C260.072 226.271 257.888 224.655 255.743 223.551C253.268 222.279 250.794 221.004 248.319 219.733L245.842 218.466L240.883 215.935C238.652 214.796 236.931 213.663 234.551 214.998C225.973 219.811 218.09 226.214 210.948 232.934C209.577 234.223 206.683 233.876 206.337 231.716C204.854 222.491 205.756 213.131 206.513 203.876L206.791 200.441C207.128 196.338 207.498 192.235 207.988 188.147C208.208 186.32 208.426 184.493 208.668 182.667L208.854 181.3C209.155 179.137 209.354 176.987 209.998 174.913C209.783 174.845 209.587 174.729 209.423 174.574C207.486 172.735 208.42 169.546 209.304 167.361C210.176 165.203 211.508 163.32 213.175 161.698C213.537 161.345 214.051 161.117 214.566 161.105C218.607 158.428 223.039 157.092 227.653 158.553C227.782 157.933 227.915 157.315 228.054 156.698L228.196 156.081C228.556 154.55 228.688 152.021 230.009 150.996V150.996ZM271.425 392.779C272.046 392.611 272.701 392.609 273.323 392.774C273.946 392.939 274.514 393.264 274.971 393.717C275.424 394.174 275.749 394.742 275.914 395.364C276.078 395.987 276.076 396.641 275.908 397.262C275.746 397.848 275.441 398.384 275.019 398.821C274.598 399.259 274.074 399.584 273.494 399.768L273.362 399.808L273.158 399.894C272.529 400.063 271.9 400.063 271.272 399.894C270.681 399.729 270.142 399.415 269.708 398.98C269.273 398.546 268.959 398.008 268.794 397.416C268.625 396.799 268.625 396.147 268.794 395.529L268.88 395.324C269.052 394.707 269.365 394.171 269.817 393.717C270.271 393.265 270.807 392.953 271.425 392.779V392.779ZM345.883 267.82C346.089 267.584 346.423 267.887 346.294 268.138C344.342 271.968 342.165 275.769 340.026 279.502C340.196 280.536 340.367 281.562 340.562 282.562C341.395 286.823 342.417 291.009 343.082 295.312C345.474 310.78 346.716 326.415 347.782 342.022C348.852 357.684 348.988 373.354 349.148 389.047C349.163 390.407 348.117 391.988 346.715 392.244C346.072 392.362 345.592 392.338 344.951 392.244C343.493 392.029 342.58 390.357 342.518 389.047C342.091 380.277 341.547 371.514 340.885 362.76C339.729 347.234 339.023 331.668 338.089 316.127L337.761 310.696C337.408 304.81 337.085 298.92 336.979 293.027C336.91 289.121 337.119 285.216 336.991 281.315C336.872 277.716 336.506 273.8 337.301 270.262C337.33 270.129 337.539 270.096 337.6 270.222C338.425 271.96 338.948 273.85 339.352 275.776C341.479 273.087 343.645 270.389 345.883 267.82V267.82ZM206.531 172.696C206.829 172.674 206.819 173.123 206.531 173.156C202.357 173.641 198.324 175.339 194.382 176.784L194.044 176.906C190.061 178.351 186.178 180.031 182.441 182.035C175.135 185.951 168.426 191 162.494 196.781C138.812 219.857 128.021 253.135 120.112 284.407C115.718 301.782 112.594 319.449 110.569 337.254C109.054 350.575 108.212 363.963 108.046 377.369C108.019 379.694 108.008 382.02 108.013 384.346C108.013 385.414 108.203 386.756 107.918 387.79C107.653 388.749 106.908 389.594 106.357 390.392C105.703 391.34 104.527 391.291 103.865 390.392L103.62 390.066C102.913 389.128 102.223 388.231 102.122 387.006C102.013 385.692 102.089 384.338 102.084 383.017C102.074 380.359 102.107 377.7 102.16 375.042C102.263 369.948 102.463 364.853 102.761 359.766C103.359 349.44 104.37 339.142 105.791 328.896C108.339 310.683 112.123 292.664 117.117 274.963C121.819 258.271 127.387 241.629 135.32 226.168C142.688 211.812 152.352 198.458 165.104 188.425C171.032 183.76 177.488 179.87 184.448 176.942C187.958 175.466 191.643 174.26 195.392 173.573C199.1 172.893 202.791 172.989 206.531 172.696V172.696ZM272.143 363.276C272.806 363.271 273.544 363.417 274.112 363.783L274.872 364.37C275.077 364.633 275.282 364.898 275.486 365.164C275.96 365.783 276.022 366.783 275.925 367.521C275.903 368.01 275.751 368.484 275.486 368.895L274.908 369.643C274.352 370.096 273.89 370.419 273.216 370.636C272.884 370.741 272.535 370.781 272.188 370.757L272.077 370.75L272.143 370.758L272.026 370.745C271.915 370.735 271.805 370.723 271.695 370.709C271.62 370.701 271.544 370.694 271.469 370.684C271.398 370.677 271.326 370.676 271.254 370.682C270.398 370.762 269.539 370.277 268.933 369.721C268.385 369.218 267.895 368.153 267.971 367.399L268.004 367.084C268.035 366.642 268.147 366.21 268.334 365.808C268.552 365.289 268.859 364.83 269.276 364.443C270.074 363.701 271.049 363.283 272.143 363.276V363.276ZM269.498 324.35C270.632 323.113 272.58 323.022 273.988 323.77C274.33 323.952 274.645 324.245 274.948 324.49C275.71 325.106 276.008 326.217 276.051 327.152C276.092 328.077 275.604 329.176 274.948 329.815L274.789 329.969C274.397 330.349 273.835 330.682 273.286 330.783C272.402 330.945 271.658 330.94 270.835 330.592C270.126 330.303 269.521 329.804 269.102 329.163L269.036 329.052C269.006 329.007 268.979 328.96 268.955 328.913L268.918 328.84C268.13 327.324 268.342 325.608 269.498 324.35V324.35ZM270.085 285.218C270.597 285.058 271.109 285.036 271.62 285.15C271.968 285.15 272.291 285.238 272.592 285.413C272.918 285.504 273.201 285.668 273.441 285.908C273.729 286.079 273.96 286.309 274.132 286.598C274.471 286.969 274.701 287.406 274.82 287.907L274.958 288.93L274.82 289.953L274.431 290.873L274.11 291.29C273.942 291.577 273.703 291.815 273.417 291.982C273.233 292.167 273.013 292.312 272.771 292.408C272.338 292.712 271.844 292.917 271.324 293.01C270.803 293.102 270.268 293.079 269.758 292.942C269.163 292.779 268.621 292.464 268.185 292.028C267.749 291.592 267.434 291.051 267.271 290.456L267.201 289.976C267.112 289.329 267.099 288.972 267.281 288.151C267.382 287.773 267.527 287.41 267.715 287.067C268.236 286.152 269.085 285.524 270.085 285.218V285.218ZM314.519 257.068C315.988 257.056 317.457 257.059 318.926 257.076L320.029 257.091C321.873 257.119 323.455 256.929 324.905 258.21C325.958 259.138 325.493 260.697 324.494 261.397C322.979 262.456 321.08 261.923 319.34 261.808C317.505 261.683 315.668 261.581 313.83 261.5C310.271 261.339 306.711 261.238 303.15 261.223C299.594 261.213 296.038 261.237 292.483 261.298C288.867 261.357 285.102 261.695 281.506 261.319C281.013 261.268 280.9 260.619 281.388 260.45C284.776 259.277 288.589 258.898 292.138 258.45C295.797 257.991 299.469 257.657 303.15 257.447C306.935 257.23 310.726 257.094 314.519 257.068V257.068ZM270.079 245.554L270.2 245.557C270.847 245.558 271.451 245.709 272.016 246.012L272.137 246.08L272.913 246.679C273.388 247.159 273.718 247.723 273.9 248.372L274.036 249.393C274.057 249.921 273.946 250.413 273.706 250.871C273.553 251.344 273.279 251.769 272.913 252.106C272.566 252.48 272.153 252.745 271.678 252.899C271.26 253.119 270.794 253.234 270.32 253.231L270.2 253.23C269.519 253.23 268.851 253.049 268.264 252.705L267.486 252.106C267.016 251.636 266.677 251.053 266.501 250.413L266.364 249.393C266.344 248.864 266.453 248.37 266.695 247.914C266.849 247.439 267.114 247.027 267.486 246.679C267.834 246.305 268.246 246.04 268.721 245.886C269.143 245.664 269.595 245.554 270.079 245.554V245.554ZM281.453 155.422C282.279 154.225 283.777 155.29 283.564 156.253C283.62 158.956 283.758 161.58 284.373 164.228C284.655 165.44 285.024 166.655 285.594 167.765L285.832 168.232C286.569 169.688 287.14 171.06 286.148 172.658C285.681 173.411 284.835 173.975 283.92 173.935C279.857 173.76 279.299 168.106 279.052 164.948C278.797 161.698 279.589 158.125 281.453 155.422Z" fill="black"/>
<path fill-rule="evenodd" clip-rule="evenodd" d="M323.439 83.1185C322.114 61.3598 315.053 36.6932 294.275 26.0099C248.469 7.6258 188.242 53.9221 185.053 101.218C183.942 117.409 192.931 135.1 209.356 139.6C213.008 144.439 218.532 147.393 223.982 149.959C288.911 183.645 330.853 156.263 323.439 83.1185Z" fill="#FDFBF5"/>
<path fill-rule="evenodd" clip-rule="evenodd" d="M338.234 69.5835C335.939 63.2114 333.516 56.8863 330.966 50.6118C328.483 44.5048 326.239 38.2653 323.155 32.4462C304.736 -2.30125 271.241 -2.30125 253.926 2.23851C244.948 -1.6293 228.13 -0.538638 218.781 2.95183C203.645 8.60377 185.195 30.8358 178.885 40.824C164.958 62.879 156.266 92.2326 165.517 117.717C166.726 121.047 168.269 124.132 170.004 127.106C168.867 128.622 167.615 130.048 166.257 131.371C162.113 135.472 157.969 139.436 154.39 144.062C150.83 148.658 147.883 153.545 145.686 158.932C141.547 169.096 141.348 180.601 146.82 190.298C151.584 198.736 160.019 205.018 169.522 205.617C170.011 205.685 170.499 205.748 170.989 205.796C172.249 207.872 173.778 209.772 175.537 211.446C180.906 216.552 193.704 219.172 201.004 219.341C201.378 219.642 201.756 219.942 202.135 220.24C206.6 223.755 211.287 227.302 216.416 229.802C219.888 231.499 224.443 232.915 228.067 231.692C229.711 232.79 232.408 232.56 234.037 231.661C236.718 230.185 238.896 227.525 240.221 224.804C243.436 218.197 242.663 210.966 241.839 203.908C240.928 196.111 240.054 188.311 239.165 180.514C238.469 174.417 237.743 168.219 235.888 162.345C234.93 159.303 233.675 156.378 232.05 153.629C232.095 153.404 232.084 153.171 232.019 152.951C231.488 151.221 230.39 150.316 229.089 149.141C228.919 148.99 228.752 148.836 228.589 148.679C227.954 147.945 227.254 147.271 226.496 146.665C226.21 146.374 225.926 146.081 225.643 145.786C223.289 143.32 221.064 140.728 219.089 137.951C217.171 135.257 215.44 132.445 213.792 129.58C212.117 126.667 211.007 123.452 209.337 120.56C209.301 120.501 209.253 120.451 209.195 120.414C209.138 120.376 209.072 120.352 209.004 120.343C208.935 120.334 208.866 120.341 208.801 120.363C208.735 120.385 208.676 120.421 208.627 120.469C208.108 121.004 207.776 121.598 207.839 122.225L207.58 122.263C207.481 121.318 206.612 120.549 205.428 120.755C203.66 121.063 202.204 121.179 200.671 120.592C200.941 118.804 201.19 117.012 201.435 115.218C201.882 111.916 202.299 108.604 202.655 105.291C203.519 105.498 204.377 105.794 205.216 106.173C206.421 106.706 207.532 107.428 208.507 108.313C209.458 109.188 210.117 110.367 211.277 110.976C212.613 111.671 214.226 110.521 213.834 109.01C213.041 105.956 208.546 104.207 205.764 103.629C204.809 103.432 203.834 103.345 202.858 103.368C203.186 100.237 203.449 97.0991 203.648 93.9572C205.826 93.2976 208.12 93.1131 210.375 93.416C211.117 94.0068 211.858 94.5911 212.575 95.1819C215.06 97.2284 217.523 99.3017 219.963 101.402C221.292 102.545 222.949 101.411 222.726 99.7928C220.9 86.5211 229.029 75.9637 238.547 67.7861C249.082 58.7298 268.236 57.6755 280.764 41.9891C286.536 43.1642 299.418 46.6513 304.736 55.1235C312.178 66.995 311.206 77.6319 311.772 91.1006C312.34 104.578 313.781 118.635 310.719 131.924C307.898 144.178 300.254 154.647 288.397 159.46C288.103 159.579 287.805 159.693 287.509 159.806C281.377 162.118 274.686 162.772 268.236 161.555C261.097 160.205 255.137 156.938 249.198 152.919C248.855 152.691 248.353 153.159 248.613 153.502C256.441 163.877 271.817 167.345 284.014 164.606C284.585 164.476 285.151 164.336 285.714 164.182C282.986 172.028 283.536 180.64 287.089 188.279C289.226 192.875 292.486 196.852 296.456 199.99C300.832 203.446 306.261 206.238 309.297 211.089C312.077 215.534 311.252 220.529 306.491 223.098C305.292 223.748 304.83 225.85 306.019 226.774C306.474 227.123 306.928 227.48 307.393 227.83C310.059 229.842 317.38 233.619 318.565 233.76C329.094 235.007 336.173 227.277 340.711 218.158C346.037 207.454 344.653 194.411 338.782 184.218C334.075 176.04 324.802 167.98 328.489 157.63C329.804 153.932 332.494 150.781 335.107 147.934C338.087 144.692 341.291 141.655 344.148 138.297C346.989 134.964 349.507 131.336 350.913 127.152C352.966 121.038 351.945 114.428 350.403 108.323C347.097 95.22 342.805 82.2925 338.234 69.5835V69.5835Z" fill="black"/>
<path fill-rule="evenodd" clip-rule="evenodd" d="M279.258 137.991C276.885 137.023 274.818 135.433 273.274 133.388C273.038 133.089 272.866 132.743 272.77 132.374C272.674 132.004 272.655 131.619 272.715 131.242C272.841 130.469 273.298 129.771 273.92 129.301C274.544 128.831 275.326 128.599 276.081 128.716C276.738 128.819 277.39 129.178 277.909 129.925L278.016 130.073C278.916 131.304 280.101 132.299 281.47 132.971C282.795 133.622 284.277 133.883 285.745 133.723C288.622 133.398 290.604 131.843 292.712 129.729C292.973 129.463 293.235 129.188 293.496 128.908C293.65 128.672 293.88 128.495 294.149 128.407C294.44 128.315 294.753 128.319 295.042 128.418C295.331 128.517 295.581 128.705 295.755 128.956C295.915 129.193 296.008 129.486 295.978 129.824C295.784 132.013 294.64 133.966 293.014 135.5C291.208 137.205 288.814 138.383 286.561 138.797C284.079 139.252 281.549 138.926 279.258 137.991V137.991ZM287.733 104.215C290.374 105.822 294.399 109.566 291.558 113.546C288.211 117.055 283.397 113.032 281.024 111.211C278.824 109.801 276.351 113.429 278.392 115.076C295.541 127.771 302.5 104.636 289.069 102.328C287.589 102.074 287.041 103.719 287.733 104.215V104.215ZM257.005 89.4473C257.296 85.8245 262.812 85.0019 263.362 88.5867C263.852 91.7975 263.274 94.7484 261.827 97.6398C260.447 100.4 256.973 99.1127 256.71 96.5971C256.357 93.2258 256.822 91.7015 257.005 89.4473V89.4473ZM299 87.8436C299.769 86.8357 300.88 86.1489 302.21 86.5361C306.367 87.7526 305.142 93.6544 303.682 96.5276C302.889 98.0866 300.324 98.4822 299.165 97.1085C297.278 94.8692 296.372 90.3957 298.774 88.1879C298.839 88.0753 298.912 87.9595 299 87.8436ZM261.769 73.5971L262.427 73.4812C264.458 73.1304 266.983 72.7927 268.42 74.4246C269.183 75.2918 269.445 76.9022 268.42 77.7314C266.619 79.1878 264.625 78.6251 262.466 78.7475C260.704 78.8484 258.959 79.146 257.263 79.6346C253.501 80.7104 250.437 82.6716 247.225 84.8265C246.804 85.1078 246.374 84.57 246.574 84.1761C248.428 80.5433 252.021 77.5609 255.62 75.742C257.543 74.7705 259.644 73.9661 261.769 73.5971ZM295.21 71.9702L295.713 72.0728C301.183 73.2148 308.289 75.4987 310.879 80.8726C310.978 81.6323 310.874 81.7945 310.789 81.9004L310.761 81.9368C310.69 82.0278 310.635 82.1519 310.306 82.2562C310.213 82.234 310.12 82.2108 310.028 82.1867C308.841 81.8756 307.902 81.4469 306.993 81.0017L306.006 80.5168C304.862 79.9541 303.708 79.4145 302.485 79.0157C299.877 78.1614 297.19 77.5682 294.465 77.2448C293.884 77.187 293.328 76.9757 292.856 76.6324C292.405 76.2945 292.087 75.8106 291.955 75.2637C291.763 74.4908 291.819 73.9066 292.233 73.2081C292.544 72.6852 292.991 72.3227 293.503 72.1142C294.045 71.9 294.639 71.85 295.21 71.9702V71.9702Z" fill="black"/>
</g>
<defs>
<clipPath id="clip0_32_297">
<rect width="460" height="432" fill="white"/>
</clipPath>
</defs>
</svg>
