<svg fill="none" height="432" viewBox="0 0 460 432" width="460" xmlns="http://www.w3.org/2000/svg" xmlns:xlink="http://www.w3.org/1999/xlink"><clipPath id="a"><path d="m0 0h460v432h-460z"/></clipPath><g clip-path="url(#a)" clip-rule="evenodd" fill-rule="evenodd"><path d="m97.0047 424.964c45.6973 6.941 92.2233 7.29 138.2993 4.769 18.235-1.365 36.527-1.612 54.749.135 10.766.801 57.973 4.409 61.829-5.235-2.427-51.351-7.344-103.139-22.425-152.527-6.204-17.536-11.532-32.091-23.638-46.602-3.814-3.962-12.043-12.272-16.758-14.981-4.084-2.349-5.791-1.511-8.137-5.477-2.33-4.379-4.05-11.694-7.358-14.786-3.371-3.146-8.364-2.021-14.553-1.008 1.137-15.365-5.955-19.279-15.727-22.202-17.177-6.556-34.139-3.262-38.462 17.647-8.016 0-12.518 3.45-17.386 6.765-1.99 1.355-.606 4.806-2.983 5.872-4.397 1.565-12.169 1.181-16.401 3.108-19.255 8.763-36.402 21.469-47.664 40.027-25.2479 39.618-42.589 123.078-39.589 170.036-1.3145 2.062.5034 5.018.9669 7.236.5828 1.928 2.4719 3.211 4.4437 2.992 2.7517 2.96 7.0067 3.618 10.7931 4.231z" fill="#fdfbf5"/><path d="m309.981 183.515c-.28-.156-.033-.558.248-.426 13.553 6.359 23.949 17.514 31.265 30.402 7.575 13.344 11.891 28.496 15.615 43.305l.134.535c3.968 15.842 7.342 31.848 10.38 47.893 3.078 16.248 5.549 32.598 7.535 49.014.982 8.116 1.86 16.247 2.542 24.395.342 4.072.652 8.146.93 12.223.113 1.63.217 3.262.306 4.892l.065 1.225c.056 1.11.189 2.222-.086 3.318-.237.945-.737 1.799-1.177 2.666-.869 1.713-3.254 1.43-4.191 0l-.271-.417c-.621-.96-1.138-1.854-1.333-3.048-.189-1.157-.195-2.37-.28-3.539-.155-2.151-.288-4.305-.439-6.456-.317-4.529-.674-9.055-1.069-13.578-.78-8.929-1.618-17.85-2.646-26.754-1.834-15.828-4.109-31.603-6.819-47.306-2.641-15.335-5.979-30.515-9.461-45.677l-.36-1.567c-6.097-26.471-15.492-56.955-40.888-71.1zm-144.349 103.651c.099-.265.528-.326.601 0 .912 4.109 1.001 8.343 1.142 12.552.138 4.151.133 8.321.071 12.475-.223 15.266-.642 30.519-1.005 45.784-.182 7.634-.351 15.269-.48 22.905-.049 2.865-.093 5.728-.126 8.593l-.043 3.777c-.021 1.67-.064 3.32-.268 4.988-.134 1.098-.42 2.144-1.026 3.085-.431.667-1.043 1.007-1.639 1.46l-.113.086c-.762.603-1.565.606-2.318 0l-.22-.174c-.72-.562-1.343-1.003-1.805-1.895-.639-1.239-.741-2.585-.849-3.95-.166-2.071-.056-4.173-.035-6.25.043-4.165.099-8.331.174-12.497.268-15.276.798-30.553 1.765-45.803.455-7.181 1.073-14.387 1.901-21.54l.157-1.341c.252-2.105.48-4.247.738-6.396-3.844-2.72-7.258-5.999-10.129-9.73-.213-.275.138-.661.394-.394 2.952 3.055 6.336 5.493 10.083 7.408.613-4.499 1.457-8.974 3.03-13.143zm64.377-136.17c.053-.041.136-.057.186 0 .827.967.66 2.443.687 3.666l.003.115c.06 1.789.071 3.573.065 5.362l-.019 5.7c-.003.783-.066 1.599-.026 2.386l.021.305c.436.447.638 1.091.491 1.736-.027.831-.461 1.523-1.095 1.958l1.356 1.923 1.358 1.923c2.798 3.969 5.627 7.903 8.574 11.761 3.013 3.933 6.206 7.724 9.57 11.362 1.637 1.781 3.309 3.532 5.013 5.249.692.697 1.404 1.376 2.106 2.064l.699.69c.414.414.933.823 1.208 1.346.161.309.197 1.071.255 1.197.518 1.137-.366 2.951-1.833 2.383l.067-.043c.266-.187.096-.189-.514-.008-.377 0-.748-.091-1.082-.265l-.101-.057c-.476-.24-.899-.706-1.283-1.08l-.097-.091c-.882-.826-1.721-1.703-2.567-2.567-1.767-1.799-3.486-3.644-5.158-5.531-3.327-3.774-6.488-7.69-9.475-11.738-3.046-4.119-5.876-8.45-8.311-12.959-.916-1.712-1.777-3.453-2.581-5.22-1.581-.508-1.947-2.188-1.838-4.081-.583-1.359-1.108-2.744-1.419-4.159-.043-.195.207-.378.356-.209.507.575.974 1.187 1.424 1.814.271-1.327.614-2.55.776-3.328l.701-3.439c-3.949-.205-8.273 1.416-10.995 4.256-.148.74-.715 1.27-1.27 1.96-.642.797-1.18 1.672-1.599 2.605-.916 2.056-.399 5.084-2.174 6.592-.178.151-.384.264-.606.333.842 4.131.46 8.682.442 12.873v.367c.003 4.69-.153 9.384-.335 14.069l-.183 4.638c-.239 6.185-.394 12.373.207 18.525 4.554-4.036 9.37-7.765 14.418-11.164l1.63-1.089c1.95-1.309 3.95-2.654 6.086-3.591 2.794-1.226 5.453-.804 8.15.452 2.687 1.253 5.295 2.706 7.931 4.063 2.68 1.379 5.366 2.747 8.051 4.119 1.778.909 4.384 1.728 5.689 3.401.083-.369.18-.738.293-1.107-.141-.59-.058-1.211.235-1.743 4.382-8.053 8.437-16.298 12.464-24.534 2.039-4.169 3.976-8.386 6.018-12.55l1.985-4.058 1-2.024c.5-1.01 1.021-2.009 1.528-3.017.214-.426.482-.848.69-1.278l.1-.215c.005-.012.485-1.524.114-1.38l-.031.016c-.191.108-.343-.131-.219-.283.525-.65 1.257-.074 1.556.526.826 1.655-.687 4.252-1.27 5.838l-.031.087c-1.806 5.115-3.853 10.133-5.949 15.132-4.018 9.588-8.336 19.027-12.642 28.484l-.051.162c.918-.705 1.899-1.344 2.738-1.966 2.119-1.569 4.3-3.061 6.477-4.548 3.997-2.714 8.087-5.29 12.261-7.723l.835-.488c2.083-1.213 4.146-2.198 6.616-1.834 2.296.339 4.432 1.572 6.506 2.575l.214.103 6.409 3.047c-.689-2.732-1.422-5.453-2.2-8.161-2.924-10.222-6.395-20.28-10.398-30.13l-.579-1.428c-.783-1.96-1.565-4.098-3.807-4.701-2.24-.604-4.809.292-6.857-.986-.186-.116-.162-.424.063-.48l1.263-.318c2.372-.591 5.154-1.185 7.397-.61 2.441.625 4.461 2.674 5.644 4.804 1.318 2.37 2.247 5.022 3.245 7.547l.159.399c1.148 2.859 2.25 5.736 3.307 8.629 2.108 5.787 4.032 11.64 5.769 17.549.84 2.848 1.635 5.708 2.398 8.576.22.824.583 1.826.879 2.868.341.333.664.704.967 1.126.502.701.141 1.524-.484 1.944-.023.719-.182 1.394-.564 1.971-1.489 2.26-5.422 1.679-5.263-1.358.024-.465.205-.909.48-1.285l-.009-.061-.031-.111c-.682-.327-1.368-.692-2.091-1.049l-6.727-3.325c-1.949-.962-4.107-2.449-6.275-2.817-2.02-.342-4.15 1.164-5.885 2.071l-.113.059c-4.194 2.158-8.363 4.362-12.508 6.612-2.025 1.094-4.025 2.233-6.042 3.34-1.687.925-3.506 2.254-5.402 2.775-.81.631-1.772.547-2.545.07.353 2.188.331 4.434.441 6.67.145 2.99.167 5.989.215 8.985l.02 1.122c.127 6.62.195 13.242.22 19.864.089 23.579-.171 47.165-.232 70.742-.03 11.847-.265 23.704-.573 35.547-.13 5.018-.404 10.03-.698 15.04l-.161 2.734c-.344 5.766-.546 11.595-1.614 17.285-.139.741-1.394.759-1.518 0-.982-6.097-1.037-12.325-1.226-18.493l-.039-1.232c-.227-6.622-.335-13.24-.313-19.864.084-23.589.698-47.161 1.198-70.744.254-11.848.423-23.702.815-35.545.195-5.927.417-11.85.68-17.774.118-2.644.231-5.287.406-7.929l.08-1.132c.054-.738.099-1.466.152-2.189-2.386.872-4.57-.744-6.715-1.848-2.475-1.272-4.949-2.547-7.424-3.818l-2.477-1.267-4.959-2.531c-2.231-1.139-3.952-2.272-6.332-.937-8.578 4.813-16.461 11.216-23.603 17.936-1.371 1.289-4.265.942-4.611-1.218-1.483-9.225-.581-18.585.176-27.84l.278-3.435c.337-4.103.707-8.206 1.197-12.294.22-1.827.438-3.654.68-5.48l.186-1.367c.301-2.163.5-4.313 1.144-6.387-.215-.068-.411-.184-.575-.339-1.937-1.839-1.003-5.028-.119-7.213.872-2.158 2.204-4.041 3.871-5.663.362-.353.876-.581 1.391-.593 4.041-2.677 8.473-4.013 13.087-2.552.129-.62.262-1.238.401-1.855l.142-.617c.36-1.531.492-4.06 1.813-5.085zm41.416 241.783c.621-.168 1.276-.17 1.898-.005.623.165 1.191.49 1.648.943.453.457.778 1.025.943 1.647.164.623.162 1.277-.006 1.898-.162.586-.467 1.122-.889 1.559-.421.438-.945.763-1.525.947l-.132.04-.204.086c-.629.169-1.258.169-1.886 0-.591-.165-1.13-.479-1.564-.914-.435-.434-.749-.972-.914-1.564-.169-.617-.169-1.269 0-1.887l.086-.205c.172-.617.485-1.153.937-1.607.454-.452.99-.764 1.608-.938zm74.458-124.959c.206-.236.54.067.411.318-1.952 3.83-4.129 7.631-6.268 11.364.17 1.034.341 2.06.536 3.06.833 4.261 1.855 8.447 2.52 12.75 2.392 15.468 3.634 31.103 4.7 46.71 1.07 15.662 1.206 31.332 1.366 47.025.015 1.36-1.031 2.941-2.433 3.197-.643.118-1.123.094-1.764 0-1.458-.215-2.371-1.887-2.433-3.197-.427-8.77-.971-17.533-1.633-26.287-1.156-15.526-1.862-31.092-2.796-46.633l-.328-5.431c-.353-5.886-.676-11.776-.782-17.669-.069-3.906.14-7.811.012-11.712-.119-3.599-.485-7.515.31-11.053.029-.133.238-.166.299-.04.825 1.738 1.348 3.628 1.752 5.554 2.127-2.689 4.293-5.387 6.531-7.956zm-139.352-95.124c.298-.022.288.427 0 .46-4.174.485-8.207 2.183-12.149 3.628l-.338.122c-3.983 1.445-7.866 3.125-11.603 5.129-7.306 3.916-14.015 8.965-19.947 14.746-23.682 23.076-34.473 56.354-42.382 87.626-4.394 17.375-7.518 35.042-9.543 52.847-1.515 13.321-2.357 26.709-2.523 40.115-.027 2.325-.038 4.651-.033 6.977 0 1.068.19 2.41-.095 3.444-.265.959-1.01 1.804-1.561 2.602-.654.948-1.83.899-2.492 0l-.245-.326c-.707-.938-1.397-1.835-1.498-3.06-.109-1.314-.033-2.668-.038-3.989-.01-2.658.023-5.317.076-7.975.103-5.094.303-10.189.601-15.276.598-10.326 1.609-20.624 3.03-30.87 2.548-18.213 6.332-36.232 11.326-53.933 4.702-16.692 10.27-33.334 18.203-48.795 7.368-14.356 17.032-27.71 29.784-37.743 5.928-4.665 12.384-8.555 19.344-11.483 3.51-1.476 7.195-2.682 10.944-3.369 3.708-.68 7.399-.584 11.139-.877zm65.612 190.58c.663-.005 1.401.141 1.969.507l.76.587c.205.263.41.528.614.794.474.619.536 1.619.439 2.357-.022.489-.174.963-.439 1.374l-.578.748c-.556.453-1.018.776-1.692.993-.332.105-.681.145-1.028.121l-.111-.007.066.008-.117-.013c-.111-.01-.221-.022-.331-.036-.075-.008-.151-.015-.226-.025-.071-.007-.143-.008-.215-.002-.856.08-1.715-.405-2.321-.961-.548-.503-1.038-1.568-.962-2.322l.033-.315c.031-.442.143-.874.33-1.276.218-.519.525-.978.942-1.365.798-.742 1.773-1.16 2.867-1.167zm-2.645-38.926c1.134-1.237 3.082-1.328 4.49-.58.342.182.657.475.96.72.762.616 1.06 1.727 1.103 2.662.041.925-.447 2.024-1.103 2.663l-.159.154c-.392.38-.954.713-1.503.814-.884.162-1.628.157-2.451-.191-.709-.289-1.314-.788-1.733-1.429l-.066-.111c-.03-.045-.057-.092-.081-.139l-.037-.073c-.788-1.516-.576-3.232.58-4.49zm.587-39.132c.512-.16 1.024-.182 1.535-.068.348 0 .671.088.972.263.326.091.609.255.849.495.288.171.519.401.691.69.339.371.569.808.688 1.309l.138 1.023-.138 1.023-.389.92-.321.417c-.168.287-.407.525-.693.692-.184.185-.404.33-.646.426-.433.304-.927.509-1.447.602-.521.092-1.056.069-1.566-.068-.595-.163-1.137-.478-1.573-.914s-.751-.977-.914-1.572l-.07-.48c-.089-.647-.102-1.004.08-1.825.101-.378.246-.741.434-1.084.521-.915 1.37-1.543 2.37-1.849zm44.434-28.15c1.469-.012 2.938-.009 4.407.008l1.103.015c1.844.028 3.426-.162 4.876 1.119 1.053.928.588 2.487-.411 3.187-1.515 1.059-3.414.526-5.154.411-1.835-.125-3.672-.227-5.51-.308-3.559-.161-7.119-.262-10.68-.277-3.556-.01-7.112.014-10.667.075-3.616.059-7.381.397-10.977.021-.493-.051-.606-.7-.118-.869 3.388-1.173 7.201-1.552 10.75-2 3.659-.459 7.331-.793 11.012-1.003 3.785-.217 7.576-.353 11.369-.379zm-44.44-11.514.121.003c.647.001 1.251.152 1.816.455l.121.068.776.599c.475.48.805 1.044.987 1.693l.136 1.021c.021.528-.09 1.02-.33 1.478-.153.473-.427.898-.793 1.235-.347.374-.76.639-1.235.793-.418.22-.884.335-1.358.332l-.12-.001c-.681 0-1.349-.181-1.936-.525l-.778-.599c-.47-.47-.809-1.053-.985-1.693l-.137-1.02c-.02-.529.089-1.023.331-1.479.154-.475.419-.887.791-1.235.348-.374.76-.639 1.235-.793.422-.222.874-.332 1.358-.332zm11.374-90.132c.826-1.197 2.324-.132 2.111.831.056 2.703.194 5.327.809 7.975.282 1.212.651 2.427 1.221 3.537l.238.467c.737 1.456 1.308 2.828.316 4.426-.467.753-1.313 1.317-2.228 1.277-4.063-.175-4.621-5.829-4.868-8.987-.255-3.25.537-6.823 2.401-9.526z" fill="#000"/><path d="m323.439 83.1185c-1.325-21.7587-8.386-46.4253-29.164-57.1086-45.806-18.3841-106.033 27.9122-109.222 75.2081-1.111 16.191 7.878 33.882 24.303 38.382 3.652 4.839 9.176 7.793 14.626 10.359 64.929 33.686 106.871 6.304 99.457-66.8405z" fill="#fdfbf5"/><g fill="#000"><path d="m338.234 69.5835c-2.295-6.3721-4.718-12.6972-7.268-18.9717-2.483-6.107-4.727-12.3465-7.811-18.1656-18.419-34.74745-51.914-34.74745-69.229-30.20769-8.978-3.86781-25.796-2.777148-35.145.71332-15.136 5.65194-33.586 27.88397-39.896 37.87217-13.927 22.055-22.619 51.4086-13.368 76.893 1.209 3.33 2.752 6.415 4.487 9.389-1.137 1.516-2.389 2.942-3.747 4.265-4.144 4.101-8.288 8.065-11.867 12.691-3.56 4.596-6.507 9.483-8.704 14.87-4.139 10.164-4.338 21.669 1.134 31.366 4.764 8.438 13.199 14.72 22.702 15.319.489.068.977.131 1.467.179 1.26 2.076 2.789 3.976 4.548 5.65 5.369 5.106 18.167 7.726 25.467 7.895.374.301.752.601 1.131.899 4.465 3.515 9.152 7.062 14.281 9.562 3.472 1.697 8.027 3.113 11.651 1.89 1.644 1.098 4.341.868 5.97-.031 2.681-1.476 4.859-4.136 6.184-6.857 3.215-6.607 2.442-13.838 1.618-20.896-.911-7.797-1.785-15.597-2.674-23.394-.696-6.097-1.422-12.295-3.277-18.169-.958-3.042-2.213-5.967-3.838-8.716.045-.225.034-.458-.031-.678-.531-1.73-1.629-2.635-2.93-3.81-.17-.151-.337-.305-.5-.462-.635-.734-1.335-1.408-2.093-2.014-.286-.291-.57-.584-.853-.879-2.354-2.466-4.579-5.058-6.554-7.835-1.918-2.694-3.649-5.506-5.297-8.371-1.675-2.913-2.785-6.128-4.455-9.02-.036-.059-.084-.109-.142-.146-.057-.038-.123-.062-.191-.071-.069-.009-.138-.002-.203.02-.066.022-.125.058-.174.106-.519.535-.851 1.129-.788 1.756l-.259.038c-.099-.945-.968-1.714-2.152-1.508-1.768.308-3.224.424-4.757-.163.27-1.788.519-3.58.764-5.374.447-3.302.864-6.614 1.22-9.927.864.207 1.722.503 2.561.882 1.205.533 2.316 1.255 3.291 2.14.951.875 1.61 2.054 2.77 2.663 1.336.695 2.949-.455 2.557-1.966-.793-3.054-5.288-4.803-8.07-5.381-.955-.197-1.93-.284-2.906-.261.328-3.131.591-6.2689.79-9.4108 2.178-.6596 4.472-.8441 6.727-.5412.742.5908 1.483 1.1751 2.2 1.7659 2.485 2.0465 4.948 4.1198 7.388 6.2201 1.329 1.143 2.986.009 2.763-1.6092-1.826-13.2717 6.303-23.8291 15.821-32.0067 10.535-9.0563 29.689-10.1106 42.217-25.797 5.772 1.1751 18.654 4.6622 23.972 13.1344 7.442 11.8715 6.47 22.5084 7.036 35.9771.568 13.4774 2.009 27.5344-1.053 40.8234-2.821 12.254-10.465 22.723-22.322 27.536-.294.119-.592.233-.888.346-6.132 2.312-12.823 2.966-19.273 1.749-7.139-1.35-13.099-4.617-19.038-8.636-.343-.228-.845.24-.585.583 7.828 10.375 23.204 13.843 35.401 11.104.571-.13 1.137-.27 1.7-.424-2.728 7.846-2.178 16.458 1.375 24.097 2.137 4.596 5.397 8.573 9.367 11.711 4.376 3.456 9.805 6.248 12.841 11.099 2.78 4.445 1.955 9.44-2.806 12.009-1.199.65-1.661 2.752-.472 3.676.455.349.909.706 1.374 1.056 2.666 2.012 9.987 5.789 11.172 5.93 10.529 1.247 17.608-6.483 22.146-15.602 5.326-10.704 3.942-23.747-1.929-33.94-4.707-8.178-13.98-16.238-10.293-26.588 1.315-3.698 4.005-6.849 6.618-9.696 2.98-3.242 6.184-6.279 9.041-9.637 2.841-3.333 5.359-6.961 6.765-11.145 2.053-6.114 1.032-12.724-.51-18.829-3.306-13.103-7.598-26.0305-12.169-38.7395z"/><path d="m279.258 137.991c-2.373-.968-4.44-2.558-5.984-4.603-.236-.299-.408-.645-.504-1.014-.096-.37-.115-.755-.055-1.132.126-.773.583-1.471 1.205-1.941.624-.47 1.406-.702 2.161-.585.657.103 1.309.462 1.828 1.209l.107.148c.9 1.231 2.085 2.226 3.454 2.898 1.325.651 2.807.912 4.275.752 2.877-.325 4.859-1.88 6.967-3.994.261-.266.523-.541.784-.821.154-.236.384-.413.653-.501.291-.092.604-.088.893.011s.539.287.713.538c.16.237.253.53.223.868-.194 2.189-1.338 4.142-2.964 5.676-1.806 1.705-4.2 2.883-6.453 3.297-2.482.455-5.012.129-7.303-.806zm8.475-33.776c2.641 1.607 6.666 5.351 3.825 9.331-3.347 3.509-8.161-.514-10.534-2.335-2.2-1.41-4.673 2.218-2.632 3.865 17.149 12.695 24.108-10.44 10.677-12.748-1.48-.254-2.028 1.391-1.336 1.887zm-30.728-14.7677c.291-3.6228 5.807-4.4454 6.357-.8606.49 3.2108-.088 6.1617-1.535 9.0531-1.38 2.7602-4.854 1.4729-5.117-1.0427-.353-3.3713.112-4.8956.295-7.1498zm41.995-1.6037c.769-1.0079 1.88-1.6947 3.21-1.3075 4.157 1.2165 2.932 7.1183 1.472 9.9915-.793 1.559-3.358 1.9546-4.517.5809-1.887-2.2393-2.793-6.7128-.391-8.9206.065-.1126.138-.2284.226-.3443zm-37.231-14.2465.658-.1159c2.031-.3508 4.556-.6885 5.993.9434.763.8672 1.025 2.4776 0 3.3068-1.801 1.4564-3.795.8937-5.954 1.0161-1.762.1009-3.507.3985-5.203.8871-3.762 1.0758-6.826 3.037-10.038 5.1919-.421.2813-.851-.2565-.651-.6504 1.854-3.6328 5.447-6.6152 9.046-8.4341 1.923-.9715 4.024-1.7759 6.149-2.1449zm33.441-1.6269.503.1026c5.47 1.142 12.576 3.4259 15.166 8.7998.099.7597-.005.9219-.09 1.0278l-.028.0364c-.071.091-.126.2151-.455.3194-.093-.0222-.186-.0454-.278-.0695-1.187-.3111-2.126-.7398-3.035-1.185l-.987-.4849c-1.144-.5627-2.298-1.1023-3.521-1.5011-2.608-.8543-5.295-1.4475-8.02-1.7709-.581-.0578-1.137-.2691-1.609-.6124-.451-.3379-.769-.8218-.901-1.3687-.192-.7729-.136-1.3571.278-2.0556.311-.5229.758-.8854 1.27-1.0939.542-.2142 1.136-.2642 1.707-.144z"/></g></g></svg>