<svg height="256" viewBox="0 0 256 256" width="256" xmlns="http://www.w3.org/2000/svg"><path d="m83.349 0h-76.698c-3.673 0-6.651 2.887-6.651 6.447v77.106c0 3.561 2.978 6.447 6.651 6.447h76.698c3.673 0 6.651-2.886 6.651-6.447v-77.106c0-3.56-2.978-6.447-6.651-6.447zm-56.067 75.339h-13.594v-40.64h13.594zm-6.797-46.188h-.088c-4.562 0-7.512-3.121-7.512-7.021 0-3.988 3.04-7.022 7.69-7.022 4.651 0 7.513 3.034 7.601 7.022 0 3.9-2.951 7.021-7.691 7.021zm55.814 46.188h-13.592v-21.741c0-5.463-1.968-9.19-6.887-9.19-3.756 0-5.992 2.513-6.975 4.94-.359.868-.447 2.081-.447 3.296v22.695h-13.594s.178-36.826 0-40.64h13.594v5.756c1.806-2.769 5.036-6.709 12.251-6.709 8.944 0 15.65 5.808 15.65 18.291z" transform="matrix(2.81 0 0 2.81 1.406593 1.406593)"/></svg>