<svg fill="none" height="236" viewBox="0 0 236 236" width="236" xmlns="http://www.w3.org/2000/svg"><path d="m117.643 118.044v-117.628961c21.815 0 43.201 6.068991 61.766 17.526961z" fill="#5347d3"/><path d="m117.643 118.044 61.766-100.1021c55.276 34.118 72.432 106.5931 38.32 161.8781-28.486 46.165-84.844 66.86-136.4302 50.096z" fill="#3d03b7"/><path d="m117.643 118.044-36.344 111.872c-61.776-20.075-95.583-86.436-75.51098-148.221 2.362-7.27 5.42598-14.291 9.14898-20.966z" fill="#a09cce"/><path d="m117.643 118.044-102.7055-57.3149c13.706-24.569 35.764-43.411 62.171-53.10703z" fill="#443f7d"/><path d="m117.643 118.044-40.5336-110.42194c12.982-4.76701 26.7036-7.207021 40.5336-7.207021z" fill="#11096b"/></svg>