<svg fill="none" height="236" viewBox="0 0 236 236" width="236" xmlns="http://www.w3.org/2000/svg"><path d="m118 118.126v-117.632104c64.97 0 117.63 52.665004 117.63 117.632104 0 24.841-7.86 49.045-22.46 69.142z" fill="#ad1c3f"/><path d="m118.01 118.122 95.17 69.143c-37.18 51.163-108.15 63.779-160.68 28.562z" fill="#fde3df"/><path d="m118 118.122-65.5002 97.705c-28.27-18.948-46.94-49.205-51.2-82.961z" fill="#e6bfce"/><path d="m118 118.128-116.71024 14.743c-3.3-26.151 2.27002-52.654 15.84004-75.257z" fill="#cf9bbd"/><path d="m118 118.129-100.8701-60.5149c4.82-8.038 10.58-15.47 17.17-22.139z" fill="#b977ac"/><path d="m118 118.126-83.7002-82.655c6.59-6.669 13.9499-12.527 21.9199-17.45z" fill="#a2539b"/><path d="m118 118.137-61.7803-100.1041c7.98-4.923 16.5101-8.87396 25.4301-11.76996z" fill="#8b2f8a"/><path d="m118 118.122-36.3496-111.87502c5.86-1.904 11.8699-3.34499 17.9499-4.30899z" fill="#d770a1"/><path d="m118 118.126-18.4004-116.18411c6.0804-.963995 12.2404-1.447994 18.4004-1.447994z" fill="#e496b6"/></svg>