<svg fill="none" height="262" viewBox="0 0 262 262" width="262" xmlns="http://www.w3.org/2000/svg"><g stroke="#fff"><path d="m131.03 130.996v-129.996c71.794 0 129.996 58.2013 129.996 129.996 0 71.795-58.202 129.996-129.996 129.996-11.999 0-23.94-1.661-35.4832-4.936z" fill="#67c587"/><path d="m131.03 130.998-35.4832 125.06c-69.0687-19.597-109.1738-91.474-89.57719-160.5429 10.41919-36.7227 36.45199-67.01 71.19269-82.8276z" fill="#eaf6ed"/><path d="m131.029 130.997-53.8668-118.3102c7.6876-3.50013 15.6979-6.24269 23.9178-8.18875z" fill="#c9ead4"/><path d="m131.029 130.998-29.949-126.49915c6.627-1.56897 13.367-2.61477 20.157-3.12776z" fill="#a9deba"/><path d="m131.029 130.998-9.792-129.62728c1.629-.12306 3.26-.2154 4.893-.27697z" fill="#88d1a1"/><path d="m131.03 130.996-4.9-129.90363c1.632-.06158 3.266-.09237 4.9-.09237z" fill="#59aa76"/></g></svg>