<svg fill="none" height="482" viewBox="0 0 1049 482" width="1049" xmlns="http://www.w3.org/2000/svg"><g fill="#9cfff8"><path d="m160 398h81v41h-81z"/><path d="m261 384h81v55h-81z"/><path d="m362 356h81v83h-81z"/><path d="m463 319h81v120h-81z"/><path d="m564 214h81v225h-81z"/><path d="m665 144h81v295h-81z"/><path d="m766 269h81v170h-81z"/><path d="m867 339h81v100h-81z"/><path d="m968 318h81v123h-81z"/></g><g fill="#ea346c"><path d="m174.38 462.32c-4.54 0-6.02 3.48-4.18 6l.44-.26c-1.12-1.64-.72-3.88 1.72-3.52 3.76.56 5.12 5.38.38 6.32-2.14.44-3.38 1.96-3.38 5.14h.54c0-.96.36-2 1.54-2 1.38 0 2.54 2.14 5.06 2.14 2.96 0 3.5-2.2 3.5-3.22 0-1.04-.58-1.74-1.32-2.36l-.36.34c.52.38.68 1.6-.32 1.6-.92 0-1.74-1.3-3.56-1.52 2.88-.9 5.24-2.76 4.5-5.5-.52-1.9-2.3-3.16-4.56-3.16zm15.74 0c-3.74 0-6.78 3.08-6.78 6.9s3.04 6.92 6.78 6.92c3.76 0 6.78-3.1 6.78-6.92s-3.02-6.9-6.78-6.9zm3.38 12.34c-1.14.7-3.6-1.14-5.46-4.14s-2.44-6-1.3-6.72c1.16-.72 3.58 1.14 5.46 4.14 1.86 2.98 2.44 6 1.3 6.72zm6.848-6.96c1.2 0 2.48-.26 3.66-.76v9.06h4.38v-13.56h-.5c-.92 3.1-4.5 4.74-7.54 4.78zm13.347-2.48c0 1.72 1.42 3.3 1.22 4.44-.12.58-.72.78-1.52.8h-.2v.48h5.62v5.06h4.38v-5.06h1.48v-.48h-1.48v-8.02h-.5c0 4.6-.52 8.02-3.88 8.02h-1.48c1.14-.38 1.96-1.04 1.96-2.2 0-1.56-1.3-3.28-1.22-4.56.04-.74.54-.96 1.42-.96v-.46c-2.66 0-5.8.18-5.8 2.94z"/><path d="m376.38 462.32c-4.54 0-6.02 3.48-4.18 6l.44-.26c-1.12-1.64-.72-3.88 1.72-3.52 3.76.56 5.12 5.38.38 6.32-2.14.44-3.38 1.96-3.38 5.14h.54c0-.96.36-2 1.54-2 1.38 0 2.54 2.14 5.06 2.14 2.96 0 3.5-2.2 3.5-3.22 0-1.04-.58-1.74-1.32-2.36l-.36.34c.52.38.68 1.6-.32 1.6-.92 0-1.74-1.3-3.56-1.52 2.88-.9 5.24-2.76 4.5-5.5-.52-1.9-2.3-3.16-4.56-3.16zm15.74 0c-3.74 0-6.78 3.08-6.78 6.9s3.04 6.92 6.78 6.92c3.76 0 6.78-3.1 6.78-6.92s-3.02-6.9-6.78-6.9zm3.38 12.34c-1.14.7-3.6-1.14-5.46-4.14s-2.44-6-1.3-6.72c1.16-.72 3.58 1.14 5.46 4.14 1.86 2.98 2.44 6 1.3 6.72zm6.848-6.96c1.2 0 2.48-.26 3.66-.76v9.06h4.38v-13.56h-.5c-.92 3.1-4.5 4.74-7.54 4.78zm16.707-4.16c1.86 0 2.32 3.84 5.3 3.84s3.6-2.76 3.3-4.96h-.44c0 .88-.22 1.44-1.2 1.44-1 0-2.04-1.54-4.02-1.54-5.74 0-7.04 4.34-6.74 7.8.32 3.54 2.76 6.02 6.52 6.02 3.74 0 6.5-1.54 6.5-4.26 0-2.74-2.76-4.12-6.5-4.12-2.12 0-3.18.76-3.52 2-1.16-3.1-1.36-6.22.8-6.22zm.86 9.56c-1.58-2.46-1.3-3.9-.26-4.54 1.14-.72 2.56-.02 3.96 2.24 1.42 2.26 1.44 3.82.28 4.54-1.14.72-2.48.1-3.98-2.24z"/><path d="m275.38 462.32c-4.54 0-6.02 3.48-4.18 6l.44-.26c-1.12-1.64-.72-3.88 1.72-3.52 3.76.56 5.12 5.38.38 6.32-2.14.44-3.38 1.96-3.38 5.14h.54c0-.96.36-2 1.54-2 1.38 0 2.54 2.14 5.06 2.14 2.96 0 3.5-2.2 3.5-3.22 0-1.04-.58-1.74-1.32-2.36l-.36.34c.52.38.68 1.6-.32 1.6-.92 0-1.74-1.3-3.56-1.52 2.88-.9 5.24-2.76 4.5-5.5-.52-1.9-2.3-3.16-4.56-3.16zm15.74 0c-3.74 0-6.78 3.08-6.78 6.9s3.04 6.92 6.78 6.92c3.76 0 6.78-3.1 6.78-6.92s-3.02-6.9-6.78-6.9zm3.38 12.34c-1.14.7-3.6-1.14-5.46-4.14s-2.44-6-1.3-6.72c1.16-.72 3.58 1.14 5.46 4.14 1.86 2.98 2.44 6 1.3 6.72zm6.848-6.96c1.2 0 2.48-.26 3.66-.76v9.06h4.38v-13.56h-.5c-.92 3.1-4.5 4.74-7.54 4.78zm13.542 3c.26-.42 1.12-1.26 2.32-1.2 1.3.06 2.5.7 3.32 1.92 1.8 2.66.1 4.26-2.08 4.26-1.38 0-3.08-.54-4.18-1.3l-.3.38c1.04.8 2.82 1.38 4.72 1.38 3.74 0 6.5-1.46 6.5-3.8s-2.76-3.7-6.5-3.66c-2.14 0-3.2.74-3.8 1.42.06-1.06.22-1.98.42-2.94.12-.66.26-1.34.36-2.12.52 1.76 1.66 2.46 3.1 2.46 1.58 0 2.34-1.54 3.34-1.54.98 0 1.04 1.2.52 1.58l.36.34c.74-.62 1.32-1.52 1.32-2.56 0-1.02-.6-3-2.76-3-2.22 0-2.84 2.12-4.22 2.12s-1.5-1.04-1.5-2h-.48v.28c-.02 1.82-.28 3.1-.5 4.36-.22 1.16-.42 2.24-.42 3.62z"/><path d="m780.38 462.32c-4.54 0-6.02 3.48-4.18 6l.44-.26c-1.12-1.64-.72-3.88 1.72-3.52 3.76.56 5.12 5.38.38 6.32-2.14.44-3.38 1.96-3.38 5.14h.54c0-.96.36-2 1.54-2 1.38 0 2.54 2.14 5.06 2.14 2.96 0 3.5-2.2 3.5-3.22 0-1.04-.58-1.74-1.32-2.36l-.36.34c.52.38.68 1.6-.32 1.6-.92 0-1.74-1.3-3.56-1.52 2.88-.9 5.24-2.76 4.5-5.5-.52-1.9-2.3-3.16-4.56-3.16zm15.74 0c-3.74 0-6.78 3.08-6.78 6.9s3.04 6.92 6.78 6.92c3.76 0 6.78-3.1 6.78-6.92s-3.02-6.9-6.78-6.9zm3.38 12.34c-1.14.7-3.6-1.14-5.46-4.14s-2.44-6-1.3-6.72c1.16-.72 3.58 1.14 5.46 4.14 1.86 2.98 2.44 6 1.3 6.72zm12.513-12.34c-4.54 0-6.02 3.48-4.18 6l.44-.26c-1.12-1.64-.72-3.88 1.72-3.52 3.76.56 5.12 5.38.38 6.32-2.14.44-3.38 1.96-3.38 5.14h.54c0-.96.36-2 1.54-2 1.38 0 2.54 2.14 5.06 2.14 2.96 0 3.5-2.2 3.5-3.22 0-1.04-.58-1.74-1.32-2.36l-.36.34c.52.38.68 1.6-.32 1.6-.92 0-1.74-1.3-3.56-1.52 2.88-.9 5.24-2.76 4.5-5.5-.52-1.9-2.3-3.16-4.56-3.16zm15.74 0c-3.74 0-6.78 3.08-6.78 6.9s3.04 6.92 6.78 6.92c3.76 0 6.78-3.1 6.78-6.92s-3.02-6.9-6.78-6.9zm3.38 12.34c-1.14.7-3.6-1.14-5.46-4.14s-2.44-6-1.3-6.72c1.16-.72 3.58 1.14 5.46 4.14 1.86 2.98 2.44 6 1.3 6.72z"/><path d="m982.38 462.32c-4.54 0-6.02 3.48-4.18 6l.44-.26c-1.12-1.64-.72-3.88 1.72-3.52 3.76.56 5.12 5.38.38 6.32-2.14.44-3.38 1.96-3.38 5.14h.54c0-.96.36-2 1.54-2 1.38 0 2.54 2.14 5.06 2.14 2.96 0 3.5-2.2 3.5-3.22 0-1.04-.58-1.74-1.32-2.36l-.36.34c.52.38.68 1.6-.32 1.6-.92 0-1.74-1.3-3.56-1.52 2.88-.9 5.24-2.76 4.5-5.5-.52-1.9-2.3-3.16-4.56-3.16zm15.74 0c-3.74 0-6.78 3.08-6.78 6.9s3.04 6.92 6.78 6.92c3.76 0 6.78-3.1 6.78-6.92s-3.02-6.9-6.78-6.9zm3.38 12.34c-1.14.7-3.6-1.14-5.46-4.14s-2.44-6-1.3-6.72c1.16-.72 3.58 1.14 5.46 4.14 1.86 2.98 2.44 6 1.3 6.72zm12.51-12.34c-4.54 0-6.02 3.48-4.18 6l.44-.26c-1.12-1.64-.72-3.88 1.72-3.52 3.76.56 5.12 5.38.38 6.32-2.14.44-3.38 1.96-3.38 5.14h.54c0-.96.36-2 1.54-2 1.38 0 2.54 2.14 5.06 2.14 2.96 0 3.5-2.2 3.5-3.22 0-1.04-.58-1.74-1.32-2.36l-.36.34c.52.38.68 1.6-.32 1.6-.92 0-1.74-1.3-3.56-1.52 2.88-.9 5.24-2.76 4.5-5.5-.52-1.9-2.3-3.16-4.56-3.16zm15.37 0c-4.54 0-6.02 3.48-4.18 6l.44-.26c-1.12-1.64-.72-3.88 1.72-3.52 3.76.56 5.12 5.38.38 6.32-2.14.44-3.38 1.96-3.38 5.14h.54c0-.96.36-2 1.54-2 1.38 0 2.54 2.14 5.06 2.14 2.96 0 3.5-2.2 3.5-3.22 0-1.04-.58-1.74-1.32-2.36l-.36.34c.52.38.68 1.6-.32 1.6-.92 0-1.74-1.3-3.56-1.52 2.88-.9 5.24-2.76 4.5-5.5-.52-1.9-2.3-3.16-4.56-3.16z"/><path d="m881.38 462.32c-4.54 0-6.02 3.48-4.18 6l.44-.26c-1.12-1.64-.72-3.88 1.72-3.52 3.76.56 5.12 5.38.38 6.32-2.14.44-3.38 1.96-3.38 5.14h.54c0-.96.36-2 1.54-2 1.38 0 2.54 2.14 5.06 2.14 2.96 0 3.5-2.2 3.5-3.22 0-1.04-.58-1.74-1.32-2.36l-.36.34c.52.38.68 1.6-.32 1.6-.92 0-1.74-1.3-3.56-1.52 2.88-.9 5.24-2.76 4.5-5.5-.52-1.9-2.3-3.16-4.56-3.16zm15.74 0c-3.74 0-6.78 3.08-6.78 6.9s3.04 6.92 6.78 6.92c3.76 0 6.78-3.1 6.78-6.92s-3.02-6.9-6.78-6.9zm3.38 12.34c-1.14.7-3.6-1.14-5.46-4.14s-2.44-6-1.3-6.72c1.16-.72 3.58 1.14 5.46 4.14 1.86 2.98 2.44 6 1.3 6.72zm12.513-12.34c-4.54 0-6.02 3.48-4.18 6l.44-.26c-1.12-1.64-.72-3.88 1.72-3.52 3.76.56 5.12 5.38.38 6.32-2.14.44-3.38 1.96-3.38 5.14h.54c0-.96.36-2 1.54-2 1.38 0 2.54 2.14 5.06 2.14 2.96 0 3.5-2.2 3.5-3.22 0-1.04-.58-1.74-1.32-2.36l-.36.34c.52.38.68 1.6-.32 1.6-.92 0-1.74-1.3-3.56-1.52 2.88-.9 5.24-2.76 4.5-5.5-.52-1.9-2.3-3.16-4.56-3.16zm8.687 5.38c1.2 0 2.48-.26 3.66-.76v9.06h4.38v-13.56h-.5c-.92 3.1-4.5 4.74-7.54 4.78z"/><path d="m477.38 462.32c-4.54 0-6.02 3.48-4.18 6l.44-.26c-1.12-1.64-.72-3.88 1.72-3.52 3.76.56 5.12 5.38.38 6.32-2.14.44-3.38 1.96-3.38 5.14h.54c0-.96.36-2 1.54-2 1.38 0 2.54 2.14 5.06 2.14 2.96 0 3.5-2.2 3.5-3.22 0-1.04-.58-1.74-1.32-2.36l-.36.34c.52.38.68 1.6-.32 1.6-.92 0-1.74-1.3-3.56-1.52 2.88-.9 5.24-2.76 4.5-5.5-.52-1.9-2.3-3.16-4.56-3.16zm15.74 0c-3.74 0-6.78 3.08-6.78 6.9s3.04 6.92 6.78 6.92c3.76 0 6.78-3.1 6.78-6.92s-3.02-6.9-6.78-6.9zm3.38 12.34c-1.14.7-3.6-1.14-5.46-4.14s-2.44-6-1.3-6.72c1.16-.72 3.58 1.14 5.46 4.14 1.86 2.98 2.44 6 1.3 6.72zm6.848-6.96c1.2 0 2.48-.26 3.66-.76v9.06h4.38v-13.56h-.5c-.92 3.1-4.5 4.74-7.54 4.78zm19.372 8.3c0-3.78-1.86-5.42.32-7.16 1.46-1.14 3.4-2.78 3.4-6.4h-.5v.14c-.04.92-.4 1.86-1.7 1.86-1.38 0-2.06-2.12-5.04-2.12-2.7 0-3.18 2.18-3.18 3.22 0 1.02.6 1.72 1.34 2.34l.36-.34c-.52-.38-.48-1.58.52-1.58s1.96 1.54 3.96 1.54c.78 0 1.62-.22 2.32-.7-.54.68-1.18 1.22-1.76 1.68-2.32 1.82-4.8 4.4-4.8 7.52z"/><path d="m679.38 462.32c-4.54 0-6.02 3.48-4.18 6l.44-.26c-1.12-1.64-.72-3.88 1.72-3.52 3.76.56 5.12 5.38.38 6.32-2.14.44-3.38 1.96-3.38 5.14h.54c0-.96.36-2 1.54-2 1.38 0 2.54 2.14 5.06 2.14 2.96 0 3.5-2.2 3.5-3.22 0-1.04-.58-1.74-1.32-2.36l-.36.34c.52.38.68 1.6-.32 1.6-.92 0-1.74-1.3-3.56-1.52 2.88-.9 5.24-2.76 4.5-5.5-.52-1.9-2.3-3.16-4.56-3.16zm15.74 0c-3.74 0-6.78 3.08-6.78 6.9s3.04 6.92 6.78 6.92c3.76 0 6.78-3.1 6.78-6.92s-3.02-6.9-6.78-6.9zm3.38 12.34c-1.14.7-3.6-1.14-5.46-4.14s-2.44-6-1.3-6.72c1.16-.72 3.58 1.14 5.46 4.14 1.86 2.98 2.44 6 1.3 6.72zm6.848-6.96c1.2 0 2.48-.26 3.66-.76v9.06h4.38v-13.56h-.5c-.92 3.1-4.5 4.74-7.54 4.78zm22.087 7.22c-1.86 0-2.32-3.84-5.3-3.84s-3.6 2.76-3.3 4.94h.44c0-.88.22-1.44 1.22-1.44.98 0 2.02 1.56 4 1.56 5.74 0 7.04-4.34 6.74-7.82-.32-3.52-2.76-6-6.52-6-3.74 0-6.5 1.52-6.5 4.26 0 2.72 2.76 4.12 6.5 4.12 2.1 0 3.16-.76 3.52-1.98 1.14 3.08 1.36 6.2-.8 6.2zm-.58-5.02c-1.16.72-2.58.02-3.98-2.24-1.42-2.26-1.42-3.84-.28-4.54 1.14-.72 2.56-.16 3.98 2.24 1.5 2.52 1.3 3.9.28 4.54z"/><path d="m578.38 462.32c-4.54 0-6.02 3.48-4.18 6l.44-.26c-1.12-1.64-.72-3.88 1.72-3.52 3.76.56 5.12 5.38.38 6.32-2.14.44-3.38 1.96-3.38 5.14h.54c0-.96.36-2 1.54-2 1.38 0 2.54 2.14 5.06 2.14 2.96 0 3.5-2.2 3.5-3.22 0-1.04-.58-1.74-1.32-2.36l-.36.34c.52.38.68 1.6-.32 1.6-.92 0-1.74-1.3-3.56-1.52 2.88-.9 5.24-2.76 4.5-5.5-.52-1.9-2.3-3.16-4.56-3.16zm15.74 0c-3.74 0-6.78 3.08-6.78 6.9s3.04 6.92 6.78 6.92c3.76 0 6.78-3.1 6.78-6.92s-3.02-6.9-6.78-6.9zm3.38 12.34c-1.14.7-3.6-1.14-5.46-4.14s-2.44-6-1.3-6.72c1.16-.72 3.58 1.14 5.46 4.14 1.86 2.98 2.44 6 1.3 6.72zm6.848-6.96c1.2 0 2.48-.26 3.66-.76v9.06h4.38v-13.56h-.5c-.92 3.1-4.5 4.74-7.54 4.78zm12.847 4.7c0 2.52 2.48 3.74 5.12 3.74 3.76 0 6.52-1.36 6.52-3.88 0-1.96-1.5-3.2-3.12-4.2 1.32-.58 2.1-1.52 2.1-2.68 0-1.98-1.6-3.06-4.02-3.06-3.74 0-5.64 1.22-5.64 3.74 0 1.22.48 2.16 1.2 2.94-1.44.66-2.16 1.76-2.16 3.4zm8.08 1.26c.1.78-.22 2-2.74 2-2.18 0-4.84-.98-4.84-3.26 0-1.72.96-2.6 2-3.04 2.02 1.88 5.36 2.72 5.58 4.3zm-3.6-8.76c-.22-1.16.28-2.14 2.22-2.14 1.84 0 3.44.88 3.44 2.62 0 1.24-1.04 1.96-2.18 2.34-1.66-.96-3.28-1.74-3.48-2.82z"/></g><rect fill="#fff" height="387" rx="4.5" width="9" x="129" y="53"/><circle cx="133.5" cy="55.5" fill="#fdfbf5" r="9.5"/><circle cx="133.5" cy="176.5" r="5" stroke="#fdfbf5" stroke-width="9"/><circle cx="133.5" cy="297.5" fill="#fdfbf5" r="9.5"/><circle cx="133.5" cy="430.5" fill="#fdfbf5" r="9.5"/><g fill="#fff"><path d="m45.145 58v-1.875h-4.875v-2.46l5.175-7.335h3.66v7.515h1.035v2.28h-1.035v1.875zm-2.1-4.155h2.1v-2.955zm15.86 4.365c-1.69 0-2.995-.48-3.915-1.44-.91-.96-1.365-2.495-1.365-4.605s.455-3.645 1.365-4.605c.92-.96 2.225-1.44 3.915-1.44s2.99.48 3.9 1.44c.92.96 1.38 2.495 1.38 4.605 0 1.95-.425 3.445-1.275 4.485-.84 1.04-2.175 1.56-4.005 1.56zm0-2.67c.68 0 1.02-.37 1.02-1.11v-4.53c0-.74-.34-1.11-1.02-1.11s-1.02.37-1.02 1.11v4.53c0 .74.34 1.11 1.02 1.11zm13.9864 2.67c-1.69 0-2.995-.48-3.915-1.44-.91-.96-1.365-2.495-1.365-4.605s.455-3.645 1.365-4.605c.92-.96 2.225-1.44 3.915-1.44s2.99.48 3.9 1.44c.92.96 1.38 2.495 1.38 4.605 0 1.95-.425 3.445-1.275 4.485-.84 1.04-2.175 1.56-4.005 1.56zm0-2.67c.68 0 1.02-.37 1.02-1.11v-4.53c0-.74-.34-1.11-1.02-1.11s-1.02.37-1.02 1.11v4.53c0 .74.34 1.11 1.02 1.11zm13.9863 2.67c-1.69 0-2.995-.48-3.915-1.44-.91-.96-1.365-2.495-1.365-4.605s.455-3.645 1.365-4.605c.92-.96 2.225-1.44 3.915-1.44s2.99.48 3.9 1.44c.92.96 1.38 2.495 1.38 4.605 0 1.95-.425 3.445-1.275 4.485-.84 1.04-2.175 1.56-4.005 1.56zm0-2.67c.68 0 1.02-.37 1.02-1.11v-4.53c0-.74-.34-1.11-1.02-1.11s-1.02.37-1.02 1.11v4.53c0 .74.34 1.11 1.02 1.11z"/><path d="m47.29 173.045c.31.08.605.245.885.495.29.24.525.545.705.915.19.37.285.78.285 1.23 0 1.1-.395 1.965-1.185 2.595-.78.62-1.94.93-3.48.93-.73 0-1.46-.08-2.19-.24-.73-.17-1.38-.375-1.95-.615v-3.195c.62.27 1.26.49 1.92.66.67.17 1.305.255 1.905.255.42 0 .725-.065.915-.195.2-.13.3-.345.3-.645 0-.58-.35-.87-1.05-.87h-1.08v-2.46h.84c.66 0 .99-.28.99-.84 0-.54-.33-.81-.99-.81-.48 0-.98.115-1.5.345-.52.22-1.025.51-1.515.87l-.885-3.195c.61-.32 1.305-.59 2.085-.81.78-.23 1.565-.345 2.355-.345 1.38 0 2.44.29 3.18.87s1.11 1.4 1.11 2.46c0 .66-.155 1.205-.465 1.635-.31.42-.705.74-1.185.96zm10.5457 6.165c-1.69 0-2.995-.48-3.915-1.44-.91-.96-1.365-2.495-1.365-4.605s.455-3.645 1.365-4.605c.92-.96 2.225-1.44 3.915-1.44s2.99.48 3.9 1.44c.92.96 1.38 2.495 1.38 4.605 0 1.95-.425 3.445-1.275 4.485-.84 1.04-2.175 1.56-4.005 1.56zm0-2.67c.68 0 1.02-.37 1.02-1.11v-4.53c0-.74-.34-1.11-1.02-1.11s-1.02.37-1.02 1.11v4.53c0 .74.34 1.11 1.02 1.11zm13.9863 2.67c-1.69 0-2.995-.48-3.915-1.44-.91-.96-1.365-2.495-1.365-4.605s.455-3.645 1.365-4.605c.92-.96 2.225-1.44 3.915-1.44s2.99.48 3.9 1.44c.92.96 1.38 2.495 1.38 4.605 0 1.95-.425 3.445-1.275 4.485-.84 1.04-2.175 1.56-4.005 1.56zm0-2.67c.68 0 1.02-.37 1.02-1.11v-4.53c0-.74-.34-1.11-1.02-1.11s-1.02.37-1.02 1.11v4.53c0 .74.34 1.11 1.02 1.11zm13.9864 2.67c-1.69 0-2.995-.48-3.915-1.44-.91-.96-1.365-2.495-1.365-4.605s.455-3.645 1.365-4.605c.92-.96 2.225-1.44 3.915-1.44s2.99.48 3.9 1.44c.92.96 1.38 2.495 1.38 4.605 0 1.95-.425 3.445-1.275 4.485-.84 1.04-2.175 1.56-4.005 1.56zm0-2.67c.68 0 1.02-.37 1.02-1.11v-4.53c0-.74-.34-1.11-1.02-1.11s-1.02.37-1.02 1.11v4.53c0 .74.34 1.11 1.02 1.11z"/><path d="m40.18 298.71c0-.86.125-1.62.375-2.28.26-.66.68-1.28 1.26-1.86.58-.59 1.38-1.2 2.4-1.83.3-.19.51-.35.63-.48.13-.14.195-.305.195-.495 0-.41-.295-.615-.885-.615-.44 0-.945.115-1.515.345s-1.085.52-1.545.87l-.885-3.195c.64-.32 1.375-.59 2.205-.81.83-.23 1.665-.345 2.505-.345 1.38 0 2.45.305 3.21.915s1.14 1.475 1.14 2.595c0 .6-.135 1.13-.405 1.59-.26.45-.58.83-.96 1.14-.37.31-.855.665-1.455 1.065-.67.44-1.165.82-1.485 1.14-.31.31-.465.67-.465 1.08h1.815v-.855h3.075v3.315h-9.21zm18.0512 1.5c-1.69 0-2.995-.48-3.915-1.44-.91-.96-1.365-2.495-1.365-4.605s.455-3.645 1.365-4.605c.92-.96 2.225-1.44 3.915-1.44s2.99.48 3.9 1.44c.92.96 1.38 2.495 1.38 4.605 0 1.95-.425 3.445-1.275 4.485-.84 1.04-2.175 1.56-4.005 1.56zm0-2.67c.68 0 1.02-.37 1.02-1.11v-4.53c0-.74-.34-1.11-1.02-1.11s-1.02.37-1.02 1.11v4.53c0 .74.34 1.11 1.02 1.11zm13.9863 2.67c-1.69 0-2.995-.48-3.915-1.44-.91-.96-1.365-2.495-1.365-4.605s.455-3.645 1.365-4.605c.92-.96 2.225-1.44 3.915-1.44s2.99.48 3.9 1.44c.92.96 1.38 2.495 1.38 4.605 0 1.95-.425 3.445-1.275 4.485-.84 1.04-2.175 1.56-4.005 1.56zm0-2.67c.68 0 1.02-.37 1.02-1.11v-4.53c0-.74-.34-1.11-1.02-1.11s-1.02.37-1.02 1.11v4.53c0 .74.34 1.11 1.02 1.11zm13.9864 2.67c-1.69 0-2.995-.48-3.915-1.44-.91-.96-1.365-2.495-1.365-4.605s.455-3.645 1.365-4.605c.92-.96 2.225-1.44 3.915-1.44s2.99.48 3.9 1.44c.92.96 1.38 2.495 1.38 4.605 0 1.95-.425 3.445-1.275 4.485-.84 1.04-2.175 1.56-4.005 1.56zm0-2.67c.68 0 1.02-.37 1.02-1.11v-4.53c0-.74-.34-1.11-1.02-1.11s-1.02.37-1.02 1.11v4.53c0 .74.34 1.11 1.02 1.11z"/><path d="m52.856 434.224c-1.8027 0-3.1947-.512-4.176-1.536-.9707-1.024-1.456-2.661-1.456-4.912s.4853-3.888 1.456-4.912c.9813-1.024 2.3733-1.536 4.176-1.536s3.1893.512 4.16 1.536c.9813 1.024 1.472 2.661 1.472 4.912 0 2.08-.4533 3.675-1.36 4.784-.896 1.109-2.32 1.664-4.272 1.664zm0-2.848c.7253 0 1.088-.395 1.088-1.184v-4.832c0-.789-.3627-1.184-1.088-1.184s-1.088.395-1.088 1.184v4.832c0 .789.3627 1.184 1.088 1.184z"/></g></svg>