<svg fill="none" height="584" viewBox="0 0 1307 584" width="1307" xmlns="http://www.w3.org/2000/svg"><path d="m29.952 10.264h-1.2v10.8h1.2v3.936h-9.072v-3.936h1.152v-8.4l-4.08 12.336h-3.552l-4.2-12.216v8.28h1.152v3.936h-7.872v-3.936h1.2v-10.8h-1.2v-3.936h10.992l2.496 7.488 2.4-7.488h10.584zm.9499 14.736v-3.936h1.2v-10.8h-1.2v-3.936h16.2v7.248h-5.376v-3.312h-2.904v3.792h2.112v2.736h-2.112v4.272h2.904v-3.792h5.376v7.728zm43.5814-14.736h-1.2v10.8h1.2v3.936h-9.072v-3.936h1.152v-8.4l-4.08 12.336h-3.552l-4.2-12.216v8.28h1.152v3.936h-7.872v-3.936h1.2v-10.8h-1.2v-3.936h10.992l2.496 7.488 2.4-7.488h10.584zm.9498 10.8h1.2v-10.8h-1.2v-3.936h11.016c2 0 3.56.408 4.68 1.224s1.68 1.984 1.68 3.504c0 .944-.224 1.744-.672 2.4-.448.64-.976 1.128-1.584 1.464-.592.32-1.168.536-1.728.648v.24c1.136.112 2.16.472 3.072 1.08s1.368 1.696 1.368 3.264c0 1.68-.632 2.912-1.896 3.696-1.264.768-2.904 1.152-4.92 1.152h-11.016zm9.216-6.864c.464 0 .808-.12 1.032-.36.24-.256.36-.648.36-1.176v-.864c0-.528-.12-.912-.36-1.152-.224-.256-.568-.384-1.032-.384h-1.296v3.936zm.168 6.864c.464 0 .808-.12 1.032-.36.24-.256.36-.648.36-1.176v-1.056c0-.528-.12-.912-.36-1.152-.224-.256-.568-.384-1.032-.384h-1.464v4.128zm9.2254 3.936v-3.936h1.2v-10.8h-1.2v-3.936h16.2005v7.248h-5.376v-3.312h-2.904v3.792h2.112v2.736h-2.112v4.272h2.904v-3.792h5.376v7.728zm17.1095-3.936h1.2v-10.8h-1.2v-3.936h11.016c2.064 0 3.64.424 4.728 1.272s1.632 2.224 1.632 4.128c0 1.072-.216 2-.648 2.784s-1.048 1.328-1.848 1.632l.024.24c1.536.24 2.304 1.184 2.304 2.832v1.848h1.128v3.936h-7.608v-5.64c0-.624-.096-1.096-.288-1.416-.176-.32-.464-.536-.864-.648-.384-.112-.936-.168-1.656-.168v3.936h1.584v3.936h-9.504zm9.216-6.864c.464 0 .808-.12 1.032-.36.24-.256.36-.648.36-1.176v-.864c0-.528-.12-.912-.36-1.152-.224-.256-.568-.384-1.032-.384h-1.296v3.936zm17.419 11.136c-1.536 0-2.992-.128-4.368-.384-1.36-.272-2.408-.576-3.144-.912v-4.752h5.28c0 .496.112.856.336 1.08s.632.336 1.224.336c.496 0 .848-.072 1.056-.216.224-.16.336-.392.336-.696 0-.256-.104-.472-.312-.648-.208-.192-.568-.384-1.08-.576l-2.064-.72c-1.776-.672-3.056-1.464-3.84-2.376-.768-.912-1.152-2.144-1.152-3.696 0-1.888.616-3.32 1.848-4.296 1.248-.992 3.32-1.488 6.216-1.488 1.392 0 2.696.144 3.912.432 1.232.272 2.224.64 2.976 1.104v4.296h-4.8c0-.8-.496-1.2-1.488-1.2-.48 0-.824.064-1.032.192-.192.112-.288.32-.288.624 0 .272.112.488.336.648.24.16.624.328 1.152.504l2.088.72c1.696.576 2.928 1.328 3.696 2.256.784.912 1.176 2.112 1.176 3.6 0 2.032-.688 3.568-2.064 4.608-1.36 1.04-3.36 1.56-6 1.56z" fill="#fdfbf5"/><path d="m8.29688 39.4492-5.64844 15.5508h-2.308596l6.503906-17.0625h1.48828zm4.73432 15.5508-5.66011-15.5508-.03515-1.5117h1.48828l6.52738 17.0625zm-.2929-6.3164v1.8516h-9.58596v-1.8516zm9.6679-6.3633v1.6641h-6.8554v-1.6641zm-4.5351-3.082h2.168v12.6211c0 .4297.0664.7539.1992.9726.1328.2188.3047.3633.5156.4336s.4375.1055.6797.1055c.1797 0 .3672-.0156.5625-.0469.2031-.039.3555-.0703.457-.0937l.0117 1.7695c-.1718.0547-.3984.1055-.6796.1523-.2735.0547-.6055.0821-.9961.0821-.5313 0-1.0196-.1055-1.4649-.3164-.4453-.211-.8008-.5625-1.0664-1.0547-.2578-.5-.3867-1.1719-.3867-2.0156zm12.3867 3.082v1.6641h-6.8555v-1.6641zm-4.5351-3.082h2.1679v12.6211c0 .4297.0664.7539.1992.9726.1329.2188.3047.3633.5157.4336.2109.0703.4375.1055.6797.1055.1796 0 .3671-.0156.5625-.0469.2031-.039.3554-.0703.457-.0937l.0117 1.7695c-.1719.0547-.3984.1055-.6797.1523-.2734.0547-.6055.0821-.9961.0821-.5312 0-1.0195-.1055-1.4648-.3164-.4453-.211-.8008-.5625-1.0664-1.0547-.2578-.5-.3867-1.1719-.3867-2.0156zm12.3398 15.9961c-.8828 0-1.6836-.1485-2.4023-.4453-.711-.3047-1.3243-.7305-1.8399-1.2774-.5078-.5469-.8984-1.1953-1.1719-1.9453-.2734-.75-.4101-1.5703-.4101-2.4609v-.4922c0-1.0313.1523-1.9492.457-2.7539.3047-.8125.7188-1.5 1.2422-2.0625s1.1172-.9883 1.7813-1.2774c.664-.289 1.3515-.4336 2.0624-.4336.9063 0 1.6876.1563 2.3438.4688.6641.3125 1.207.75 1.6289 1.3125.4219.5547.7344 1.2109.9375 1.9687.2031.75.3047 1.5703.3047 2.461v.9726h-9.4688v-1.7695h7.3008v-.1641c-.0312-.5625-.1484-1.1093-.3515-1.6406-.1954-.5312-.5078-.9687-.9375-1.3125-.4297-.3437-1.0157-.5156-1.7579-.5156-.4921 0-.9453.1055-1.3593.3164-.4141.2031-.7696.5078-1.0664.9141-.2969.4062-.5274.9023-.6914 1.4882-.1641.586-.2461 1.2618-.2461 2.0274v.4922c0 .6015.082 1.1679.2461 1.6992.1718.5234.4179.9844.7382 1.3828.3282.3984.7227.7109 1.1836.9375.4688.2266 1 .3398 1.5938.3398.7656 0 1.4141-.1562 1.9453-.4687s.9961-.7305 1.3945-1.2539l1.3125 1.043c-.2734.414-.6211.8086-1.0429 1.1836-.4219.375-.9414.6796-1.5586.914-.6094.2344-1.3321.3516-2.168.3516zm9.6328-10.2071v9.9727h-2.168v-12.6797h2.0508zm-.5156 3.1524-.9024-.0352c.0079-.8672.1368-1.6679.3868-2.4023.25-.7422.6015-1.3867 1.0547-1.9336.4531-.5469.9921-.9688 1.6171-1.2656.6329-.3047 1.3321-.4571 2.0977-.4571.625 0 1.1875.086 1.6875.2579.5.164.9258.4296 1.2773.7968.3594.3672.6328.8438.8204 1.4297.1874.5781.2812 1.2852.2812 2.1211v8.3086h-2.1797v-8.332c0-.6641-.0976-1.1953-.293-1.5938-.1953-.4062-.4804-.6992-.8554-.8789-.375-.1875-.836-.2812-1.3828-.2812-.5391 0-1.0313.1132-1.4766.3398-.4375.2266-.8164.5391-1.1367.9375-.3125.3984-.5586.8555-.7383 1.3711-.1719.5078-.2578 1.0469-.2578 1.6172zm19.6055 4.3594v-15.5391h2.1796v18h-1.9921zm-8.5313-3.7383v-.2461c0-.9688.1172-1.8477.3516-2.6367.2422-.7969.582-1.4805 1.0195-2.0508.4453-.5703.9727-1.0078 1.582-1.3125.6172-.3125 1.3047-.4688 2.0625-.4688.7969 0 1.4922.1407 2.086.4219.6015.2734 1.1093.6758 1.5234 1.207.4219.5235.7539 1.1563.9961 1.8985s.4102 1.582.5039 2.5195v1.0781c-.0859.9297-.2539 1.7657-.5039 2.5079-.2422.7421-.5742 1.375-.9961 1.8984-.4141.5234-.9219.9258-1.5234 1.207-.6016.2735-1.3047.4102-2.1094.4102-.7422 0-1.4219-.1602-2.0391-.4805-.6093-.3203-1.1367-.7695-1.582-1.3477-.4375-.5781-.7773-1.2578-1.0195-2.039-.2344-.7891-.3516-1.6445-.3516-2.5664zm2.1797-.2461v.2461c0 .6328.0625 1.2265.1875 1.7812.1328.5547.3359 1.043.6094 1.4649.2734.4219.6211.7539 1.0429.9961.4219.2343.9258.3515 1.5118.3515.7187 0 1.3086-.1523 1.7695-.457.4687-.3047.8437-.707 1.125-1.207.2812-.5.5-1.043.6562-1.6289v-2.8243c-.0937-.4296-.2304-.8437-.4101-1.2421-.1719-.4063-.3985-.7657-.6797-1.0782-.2734-.3203-.6133-.5742-1.0195-.7617-.3985-.1875-.8711-.2812-1.418-.2812-.5938 0-1.1055.125-1.5352.375-.4218.2421-.7695.5781-1.0429 1.0078-.2735.4219-.4766.914-.6094 1.4765-.125.5547-.1875 1.1485-.1875 1.7813zm19.3828 4.2773v-6.5273c0-.5-.1016-.9336-.3047-1.3008-.1953-.375-.4922-.6641-.8906-.8672s-.8906-.3047-1.4766-.3047c-.5468 0-1.0273.0938-1.4414.2813-.4062.1875-.7265.4336-.9609.7383-.2266.3046-.3399.6328-.3399.9843h-2.1679c0-.4531.1172-.9023.3515-1.3476.2344-.4453.5703-.8477 1.0079-1.2071.4453-.3671.9765-.6562 1.5937-.8671.625-.2188 1.3203-.3282 2.0859-.3282.9219 0 1.7344.1563 2.4375.4688.711.3125 1.2657.7851 1.6641 1.418.4062.625.6094 1.4101.6094 2.3554v5.9063c0 .4218.0351.8711.1054 1.3476.0782.4766.1914.8868.3399 1.2305v.1875h-2.2617c-.1094-.25-.1953-.582-.2578-.9961-.0625-.4219-.0938-.8125-.0938-1.1719zm.375-5.5195.0234 1.5234h-2.1914c-.6172 0-1.1679.0508-1.6523.1524-.4844.0937-.8906.2383-1.2188.4336-.3281.1953-.5781.4414-.75.7383-.1718.289-.2578.6289-.2578 1.0195 0 .3984.0899.7617.2696 1.0898.1797.3282.4492.5899.8086.7852.3671.1875.8164.2812 1.3476.2812.6641 0 1.25-.1406 1.7578-.4218.5078-.2813.9102-.625 1.2071-1.0313.3046-.4062.4687-.8008.4921-1.1836l.9258 1.043c-.0547.3281-.2031.6914-.4453 1.0898-.2422.3985-.5664.7813-.9726 1.1485-.3985.3593-.875.6601-1.4297.9023-.5469.2344-1.1641.3516-1.8516.3516-.8594 0-1.6133-.168-2.2617-.5039-.6406-.336-1.1406-.7852-1.5-1.3477-.3516-.5703-.5274-1.207-.5274-1.9101 0-.6797.1329-1.2774.3985-1.793.2656-.5235.6484-.957 1.1484-1.3008.5-.3516 1.1016-.6172 1.8047-.7969s1.4883-.2695 2.3555-.2695zm7.3711-2.2852v9.9727h-2.168v-12.6797h2.0508zm-.5156 3.1524-.9024-.0352c.0078-.8672.1367-1.6679.3867-2.4023.25-.7422.6016-1.3867 1.0547-1.9336.4532-.5469.9922-.9688 1.6172-1.2656.6328-.3047 1.3321-.4571 2.0977-.4571.625 0 1.1875.086 1.6875.2579.5.164.9258.4296 1.2773.7968.3594.3672.6328.8438.8203 1.4297.1875.5781.2813 1.2852.2813 2.1211v8.3086h-2.1797v-8.332c0-.6641-.0977-1.1953-.293-1.5938-.1953-.4062-.4804-.6992-.8554-.8789-.375-.1875-.836-.2812-1.3829-.2812-.539 0-1.0312.1132-1.4765.3398-.4375.2266-.8164.5391-1.1367.9375-.3125.3984-.5586.8555-.7383 1.3711-.1719.5078-.2578 1.0469-.2578 1.6172zm16.6871 5.2734c.516 0 .993-.1054 1.43-.3164.438-.2109.797-.5 1.078-.8672.281-.375.442-.8007.481-1.2773h2.062c-.039.75-.293 1.4492-.762 2.0976-.461.6407-1.066 1.1602-1.816 1.5586-.75.3907-1.574.586-2.473.586-.953 0-1.785-.168-2.496-.5039-.703-.336-1.2888-.7969-1.7575-1.3828-.461-.586-.8086-1.2579-1.043-2.0157-.2266-.7656-.3398-1.5742-.3398-2.4258v-.4921c0-.8516.1132-1.6563.3398-2.4141.2344-.7656.582-1.4414 1.043-2.0273.4687-.586 1.0545-1.0469 1.7575-1.3829.711-.3359 1.543-.5039 2.496-.5039.993 0 1.86.2032 2.602.6094.742.3985 1.324.9453 1.746 1.6406.43.6875.664 1.4688.703 2.3438h-2.062c-.039-.5235-.188-.9961-.446-1.418-.25-.4219-.593-.7578-1.031-1.0078-.43-.2578-.934-.3867-1.512-.3867-.664 0-1.222.1328-1.675.3984-.446.2578-.801.6094-1.067 1.0547-.258.4375-.445.9258-.562 1.4649-.11.5312-.164 1.0742-.164 1.6289v.4921c0 .5547.054 1.1016.164 1.6407.109.539.293 1.0273.55 1.4648.266.4375.622.7891 1.067 1.0547.453.2578 1.015.3867 1.687.3867zm12.75 1.7813c-.882 0-1.683-.1485-2.402-.4453-.711-.3047-1.324-.7305-1.84-1.2774-.508-.5469-.898-1.1953-1.172-1.9453-.273-.75-.41-1.5703-.41-2.4609v-.4922c0-1.0313.152-1.9492.457-2.7539.305-.8125.719-1.5 1.242-2.0625.524-.5625 1.118-.9883 1.782-1.2774.664-.289 1.351-.4336 2.062-.4336.906 0 1.688.1563 2.344.4688.664.3125 1.207.75 1.629 1.3125.422.5547.734 1.2109.937 1.9687.203.75.305 1.5703.305 2.461v.9726h-9.469v-1.7695h7.301v-.1641c-.031-.5625-.148-1.1093-.352-1.6406-.195-.5312-.507-.9687-.937-1.3125-.43-.3437-1.016-.5156-1.758-.5156-.492 0-.945.1055-1.359.3164-.414.2031-.77.5078-1.067.9141-.297.4062-.527.9023-.691 1.4882-.164.586-.246 1.2618-.246 2.0274v.4922c0 .6015.082 1.1679.246 1.6992.172.5234.418.9844.738 1.3828.328.3984.723.7109 1.184.9375.469.2266 1 .3398 1.594.3398.765 0 1.414-.1562 1.945-.4687s.996-.7305 1.394-1.2539l1.313 1.043c-.274.414-.621.8086-1.043 1.1836s-.941.6796-1.559.914c-.609.2344-1.332.3516-2.168.3516zm15.586-10.4766v15.1172h-2.179v-17.5547h1.992zm8.543 3.7969v.2461c0 .9219-.109 1.7773-.328 2.5664-.219.7812-.539 1.4609-.961 2.039-.414.5782-.926 1.0274-1.535 1.3477s-1.309.4805-2.098.4805c-.804 0-1.515-.1328-2.132-.3985-.618-.2656-1.141-.6523-1.571-1.1601-.429-.5078-.773-1.1172-1.031-1.8281-.25-.711-.422-1.5118-.516-2.4024v-1.3125c.094-.9375.27-1.7773.528-2.5195s.597-1.375 1.019-1.8985c.43-.5312.95-.9336 1.559-1.207.609-.2812 1.312-.4219 2.109-.4219s1.504.1563 2.121.4688c.618.3047 1.137.7422 1.559 1.3125s.738 1.2539.949 2.0508c.219.789.328 1.6679.328 2.6367zm-2.179.2461v-.2461c0-.6328-.067-1.2266-.2-1.7813-.132-.5625-.339-1.0546-.621-1.4765-.273-.4297-.625-.7657-1.054-1.0078-.43-.25-.942-.375-1.536-.375-.546 0-1.023.0937-1.429.2812-.399.1875-.739.4414-1.02.7617-.281.3125-.512.6719-.691 1.0782-.172.3984-.301.8125-.387 1.2421v3.0352c.156.5469.375 1.0625.656 1.5469.282.4765.657.8633 1.125 1.1601.469.2891 1.059.4336 1.77.4336.586 0 1.09-.1211 1.512-.3633.429-.25.781-.5898 1.054-1.0195.282-.4297.489-.9219.621-1.4765.133-.5626.2-1.1602.2-1.793zm10.207 6.4336c-.883 0-1.684-.1485-2.403-.4453-.711-.3047-1.324-.7305-1.84-1.2774-.507-.5469-.898-1.1953-1.171-1.9453-.274-.75-.411-1.5703-.411-2.4609v-.4922c0-1.0313.153-1.9492.457-2.7539.305-.8125.719-1.5 1.243-2.0625.523-.5625 1.117-.9883 1.781-1.2774.664-.289 1.351-.4336 2.062-.4336.907 0 1.688.1563 2.344.4688.664.3125 1.207.75 1.629 1.3125.422.5547.734 1.2109.938 1.9687.203.75.304 1.5703.304 2.461v.9726h-9.469v-1.7695h7.301v-.1641c-.031-.5625-.148-1.1093-.351-1.6406-.196-.5312-.508-.9687-.938-1.3125-.429-.3437-1.015-.5156-1.758-.5156-.492 0-.945.1055-1.359.3164-.414.2031-.77.5078-1.066.9141-.297.4062-.528.9023-.692 1.4882-.164.586-.246 1.2618-.246 2.0274v.4922c0 .6015.082 1.1679.246 1.6992.172.5234.418.9844.738 1.3828.329.3984.723.7109 1.184.9375.469.2266 1 .3398 1.594.3398.765 0 1.414-.1562 1.945-.4687s.996-.7305 1.395-1.2539l1.312 1.043c-.273.414-.621.8086-1.043 1.1836s-.941.6796-1.558.914c-.61.2344-1.332.3516-2.168.3516zm9.632-10.9219v10.6875h-2.168v-12.6797h2.11zm3.961-2.0625-.011 2.0156c-.18-.039-.352-.0625-.516-.0703-.156-.0156-.336-.0234-.539-.0234-.5 0-.941.0781-1.324.2343-.383.1563-.707.375-.973.6563s-.476.6172-.633 1.0078c-.148.3828-.246.8047-.293 1.2656l-.609.3516c0-.7656.074-1.4844.223-2.1563.156-.6718.394-1.2656.714-1.7812.321-.5234.727-.9297 1.219-1.2188.5-.2968 1.094-.4453 1.781-.4453.157 0 .336.0196.539.0586.204.0313.344.0664.422.1055zm11.52 11.4375 3.527-11.3672h2.321l-5.086 14.6367c-.118.3125-.274.6485-.469 1.0078-.188.3672-.43.7149-.727 1.043s-.656.5938-1.078.7969c-.414.2109-.91.3164-1.488.3164-.172 0-.391-.0234-.656-.0703-.266-.0469-.453-.086-.563-.1172l-.012-1.7578c.063.0078.161.0156.293.0234.141.0156.239.0235.293.0235.493 0 .911-.0665 1.254-.1993.344-.125.633-.3398.867-.6445.243-.2969.45-.707.622-1.2305zm-2.59-11.3672 3.293 9.8438.563 2.2851-1.559.7969-4.664-12.9258zm15.492 12.9141c-.883 0-1.683-.1485-2.402-.4453-.711-.3047-1.324-.7305-1.84-1.2774-.508-.5469-.898-1.1953-1.172-1.9453-.273-.75-.41-1.5703-.41-2.4609v-.4922c0-1.0313.152-1.9492.457-2.7539.305-.8125.719-1.5 1.242-2.0625.524-.5625 1.117-.9883 1.781-1.2774.665-.289 1.352-.4336 2.063-.4336.906 0 1.687.1563 2.344.4688.664.3125 1.207.75 1.629 1.3125.422.5547.734 1.2109.937 1.9687.203.75.305 1.5703.305 2.461v.9726h-9.469v-1.7695h7.301v-.1641c-.031-.5625-.149-1.1093-.352-1.6406-.195-.5312-.508-.9687-.937-1.3125-.43-.3437-1.016-.5156-1.758-.5156-.492 0-.945.1055-1.359.3164-.414.2031-.77.5078-1.067.9141-.297.4062-.527.9023-.691 1.4882-.164.586-.246 1.2618-.246 2.0274v.4922c0 .6015.082 1.1679.246 1.6992.172.5234.418.9844.738 1.3828.328.3984.723.7109 1.184.9375.468.2266 1 .3398 1.593.3398.766 0 1.415-.1562 1.946-.4687s.996-.7305 1.394-1.2539l1.313 1.043c-.274.414-.621.8086-1.043 1.1836s-.942.6796-1.559.914c-.609.2344-1.332.3516-2.168.3516zm14.942-2.4024v-6.5273c0-.5-.102-.9336-.305-1.3008-.195-.375-.492-.6641-.891-.8672-.398-.2031-.89-.3047-1.476-.3047-.547 0-1.028.0938-1.442.2813-.406.1875-.726.4336-.961.7383-.226.3046-.339.6328-.339.9843h-2.168c0-.4531.117-.9023.351-1.3476.235-.4453.571-.8477 1.008-1.2071.445-.3671.977-.6562 1.594-.8671.625-.2188 1.32-.3282 2.086-.3282.922 0 1.734.1563 2.437.4688.711.3125 1.266.7851 1.664 1.418.406.625.61 1.4101.61 2.3554v5.9063c0 .4218.035.8711.105 1.3476.078.4766.191.8868.34 1.2305v.1875h-2.262c-.109-.25-.195-.582-.258-.9961-.062-.4219-.093-.8125-.093-1.1719zm.375-5.5195.023 1.5234h-2.191c-.617 0-1.168.0508-1.653.1524-.484.0937-.89.2383-1.218.4336-.329.1953-.579.4414-.75.7383-.172.289-.258.6289-.258 1.0195 0 .3984.09.7617.269 1.0898.18.3282.45.5899.809.7852.367.1875.816.2812 1.348.2812.664 0 1.25-.1406 1.757-.4218.508-.2813.911-.625 1.207-1.0313.305-.4062.469-.8008.493-1.1836l.925 1.043c-.054.3281-.203.6914-.445 1.0898-.242.3985-.566.7813-.973 1.1485-.398.3593-.875.6601-1.429.9023-.547.2344-1.164.3516-1.852.3516-.859 0-1.613-.168-2.262-.5039-.64-.336-1.14-.7852-1.5-1.3477-.351-.5703-.527-1.207-.527-1.9101 0-.6797.133-1.2774.399-1.793.265-.5235.648-.957 1.148-1.3008.5-.3516 1.102-.6172 1.805-.7969s1.488-.2695 2.355-.2695zm7.371-3v10.6875h-2.168v-12.6797h2.109zm3.961-2.0625-.012 2.0156c-.18-.039-.352-.0625-.516-.0703-.156-.0156-.336-.0234-.539-.0234-.5 0-.941.0781-1.324.2343-.383.1563-.707.375-.973.6563-.265.2813-.476.6172-.632 1.0078-.149.3828-.247.8047-.293 1.2656l-.61.3516c0-.7656.074-1.4844.223-2.1563.156-.6718.394-1.2656.715-1.7812.32-.5234.726-.9297 1.218-1.2188.5-.2968 1.094-.4453 1.782-.4453.156 0 .336.0196.539.0586.203.0313.344.0664.422.1055zm1.91 11.6016c0-.3672.113-.6758.34-.9258.234-.2578.57-.3867 1.007-.3867.438 0 .77.1289.997.3867.234.25.351.5586.351.9258 0 .3593-.117.664-.351.914-.227.25-.559.375-.997.375-.437 0-.773-.125-1.007-.375-.227-.25-.34-.5547-.34-.914zm.012-10.3477c0-.3672.113-.6758.339-.9258.235-.2578.571-.3867 1.008-.3867.438 0 .77.1289.996.3867.235.25.352.5586.352.9258 0 .3594-.117.6641-.352.9141-.226.25-.558.375-.996.375-.437 0-.773-.125-1.008-.375-.226-.25-.339-.5547-.339-.9141z" fill="#fdfbf5"/><g fill="#75fbcf"><path d="m127 421h80v121h-80z"/><path d="m227 304h80v238h-80z"/><path d="m327 284h80v258h-80z"/><path d="m427 269h80v273h-80z"/><path d="m527 187h80v355h-80z"/><path d="m628 98h80v444h-80z"/><path d="m727 284h80v258h-80z"/><path d="m827 412h80v130h-80z"/><path d="m927 438h80v104h-80z"/><path d="m1027 381h80v161h-80z"/><path d="m1127 388h80v154h-80z"/><path d="m1227 380h80v162h-80z"/></g><path d="m132.659 443.936c0-1.376.2-2.592.6-3.648.416-1.056 1.088-2.048 2.016-2.976.928-.944 2.208-1.92 3.84-2.928.48-.304.816-.56 1.008-.768.208-.224.312-.488.312-.792 0-.656-.472-.984-1.416-.984-.704 0-1.512.184-2.424.552s-1.736.832-2.472 1.392l-1.416-5.112c1.024-.512 2.2-.944 3.528-1.296 1.328-.368 2.664-.552 4.008-.552 2.208 0 3.92.488 5.136 1.464s1.824 2.36 1.824 4.152c0 .96-.216 1.808-.648 2.544-.416.72-.928 1.328-1.536 1.824-.592.496-1.368 1.064-2.328 1.704-1.072.704-1.864 1.312-2.376 1.824-.496.496-.744 1.072-.744 1.728h2.904v-1.368h4.92v5.304h-14.736zm16.258 5.928 1.248-3.864h-1.224v-3.936h3.744v3.936l-1.704 3.864zm7.851-3.864c0-1.424.296-3 .888-4.728.608-1.728 1.368-3.4 2.28-5.016.912-1.632 1.832-3.056 2.76-4.272h-3.576v2.208h-5.04v-6.864h15.072v3.648c-.88 1.312-1.752 2.848-2.616 4.608-.848 1.744-1.56 3.544-2.136 5.4-.56 1.84-.84 3.512-.84 5.016zm20.434-19.008c2.848 0 4.968.768 6.36 2.304 1.392 1.52 2.088 3.856 2.088 7.008 0 3.456-.816 5.992-2.448 7.608-1.616 1.616-3.848 2.424-6.696 2.424-1.168 0-2.256-.104-3.264-.312-1.008-.192-1.816-.448-2.424-.768v-4.848c.608.272 1.304.496 2.088.672.784.16 1.616.24 2.496.24 2.288 0 3.432-.848 3.432-2.544v-.264c-1.024.4-2.128.6-3.312.6-1.856 0-3.304-.496-4.344-1.488-1.024-1.008-1.536-2.408-1.536-4.2 0-2.128.656-3.728 1.968-4.8 1.312-1.088 3.176-1.632 5.592-1.632zm-1.632 6.336c0 .64.136 1.136.408 1.488.288.352.72.528 1.296.528.544 0 1.064-.104 1.56-.312v-1.92c0-.64-.136-1.104-.408-1.392-.272-.304-.68-.456-1.224-.456s-.952.168-1.224.504-.408.856-.408 1.56zm10.761 10.608c0-1.376.2-2.592.6-3.648.416-1.056 1.088-2.048 2.016-2.976.928-.944 2.208-1.92 3.84-2.928.48-.304.816-.56 1.008-.768.208-.224.312-.488.312-.792 0-.656-.472-.984-1.416-.984-.704 0-1.512.184-2.424.552s-1.736.832-2.472 1.392l-1.416-5.112c1.024-.512 2.2-.944 3.528-1.296 1.328-.368 2.664-.552 4.008-.552 2.208 0 3.92.488 5.136 1.464s1.824 2.36 1.824 4.152c0 .96-.216 1.808-.648 2.544-.416.72-.928 1.328-1.536 1.824-.592.496-1.368 1.064-2.328 1.704-1.072.704-1.864 1.312-2.376 1.824-.496.496-.744 1.072-.744 1.728h2.904v-1.368h4.92v5.304h-14.736z" fill="#1e1d3d"/><path d="m240.345 329v-3h-7.8v-3.936l8.28-11.736h5.856v12.024h1.656v3.648h-1.656v3zm-3.36-6.648h3.36v-4.728zm12.752 10.512 1.248-3.864h-1.224v-3.936h3.744v3.936l-1.704 3.864zm12.723-22.872c2.848 0 4.968.768 6.36 2.304 1.392 1.52 2.088 3.856 2.088 7.008 0 3.456-.816 5.992-2.448 7.608-1.616 1.616-3.848 2.424-6.696 2.424-1.168 0-2.256-.104-3.264-.312-1.008-.192-1.816-.448-2.424-.768v-4.848c.608.272 1.304.496 2.088.672.784.16 1.616.24 2.496.24 2.288 0 3.432-.848 3.432-2.544v-.264c-1.024.4-2.128.6-3.312.6-1.856 0-3.304-.496-4.344-1.488-1.024-1.008-1.536-2.408-1.536-4.2 0-2.128.656-3.728 1.968-4.8 1.312-1.088 3.176-1.632 5.592-1.632zm-1.632 6.336c0 .64.136 1.136.408 1.488.288.352.72.528 1.296.528.544 0 1.064-.104 1.56-.312v-1.92c0-.64-.136-1.104-.408-1.392-.272-.304-.68-.456-1.224-.456s-.952.168-1.224.504-.408.856-.408 1.56zm22.137 3.144c.496.128.968.392 1.416.792.464.384.84.872 1.128 1.464.304.592.456 1.248.456 1.968 0 1.76-.632 3.144-1.896 4.152-1.248.992-3.104 1.488-5.568 1.488-1.168 0-2.336-.128-3.504-.384-1.168-.272-2.208-.6-3.12-.984v-5.112c.992.432 2.016.784 3.072 1.056 1.072.272 2.088.408 3.048.408.672 0 1.16-.104 1.464-.312.32-.208.48-.552.48-1.032 0-.928-.56-1.392-1.68-1.392h-1.728v-3.936h1.344c1.056 0 1.584-.448 1.584-1.344 0-.864-.528-1.296-1.584-1.296-.768 0-1.568.184-2.4.552-.832.352-1.64.816-2.424 1.392l-1.416-5.112c.976-.512 2.088-.944 3.336-1.296 1.248-.368 2.504-.552 3.768-.552 2.208 0 3.904.464 5.088 1.392s1.776 2.24 1.776 3.936c0 1.056-.248 1.928-.744 2.616-.496.672-1.128 1.184-1.896 1.536zm13.057-2.808c1.792 0 3.16.528 4.104 1.584s1.416 2.488 1.416 4.296c0 1.36-.312 2.552-.936 3.576-.608 1.024-1.52 1.816-2.736 2.376s-2.688.84-4.416.84c-1.168 0-2.336-.128-3.504-.384-1.168-.272-2.208-.6-3.12-.984v-5.112c2.08.976 3.968 1.464 5.664 1.464.88 0 1.536-.176 1.968-.528.432-.368.648-.936.648-1.704 0-.56-.128-1-.384-1.32s-.664-.48-1.224-.48c-.432 0-.784.112-1.056.336-.256.208-.464.512-.624.912h-5.04l1.032-11.208h12.768v4.656h-7.968l-.216 2.472c1.008-.528 2.216-.792 3.624-.792z" fill="#1e1d3d"/><path d="m344.092 300.664c1.792 0 3.16.528 4.104 1.584s1.416 2.488 1.416 4.296c0 1.36-.312 2.552-.936 3.576-.608 1.024-1.52 1.816-2.736 2.376s-2.688.84-4.416.84c-1.168 0-2.336-.128-3.504-.384-1.168-.272-2.208-.6-3.12-.984v-5.112c2.08.976 3.968 1.464 5.664 1.464.88 0 1.536-.176 1.968-.528.432-.368.648-.936.648-1.704 0-.56-.128-1-.384-1.32s-.664-.48-1.224-.48c-.432 0-.784.112-1.056.336-.256.208-.464.512-.624.912h-5.04l1.032-11.208h12.768v4.656h-7.968l-.216 2.472c1.008-.528 2.216-.792 3.624-.792zm6.825 16.2 1.248-3.864h-1.224v-3.936h3.744v3.936l-1.704 3.864zm5.979-3.864v-3.936h2.304v-10.8h-3.024v-2.712l5.328-1.224h4.032v14.736h2.016v3.936zm21.251-12.336c1.792 0 3.16.528 4.104 1.584s1.416 2.488 1.416 4.296c0 1.36-.312 2.552-.936 3.576-.608 1.024-1.52 1.816-2.736 2.376s-2.688.84-4.416.84c-1.168 0-2.336-.128-3.504-.384-1.168-.272-2.208-.6-3.12-.984v-5.112c2.08.976 3.968 1.464 5.664 1.464.88 0 1.536-.176 1.968-.528.432-.368.648-.936.648-1.704 0-.56-.128-1-.384-1.32s-.664-.48-1.224-.48c-.432 0-.784.112-1.056.336-.256.208-.464.512-.624.912h-5.04l1.032-11.208h12.768v4.656h-7.968l-.216 2.472c1.008-.528 2.216-.792 3.624-.792zm14.097 12.336v-3h-7.8v-3.936l8.28-11.736h5.856v12.024h1.656v3.648h-1.656v3zm-3.36-6.648h3.36v-4.728z" fill="#1e1d3d"/><path d="m441.971 282.664c1.792 0 3.16.528 4.104 1.584s1.416 2.488 1.416 4.296c0 1.36-.312 2.552-.936 3.576-.608 1.024-1.52 1.816-2.736 2.376s-2.688.84-4.416.84c-1.168 0-2.336-.128-3.504-.384-1.168-.272-2.208-.6-3.12-.984v-5.112c2.08.976 3.968 1.464 5.664 1.464.88 0 1.536-.176 1.968-.528.432-.368.648-.936.648-1.704 0-.56-.128-1-.384-1.32s-.664-.48-1.224-.48c-.432 0-.784.112-1.056.336-.256.208-.464.512-.624.912h-5.04l1.032-11.208h12.768v4.656h-7.968l-.216 2.472c1.008-.528 2.216-.792 3.624-.792zm6.825 16.2 1.248-3.864h-1.224v-3.936h3.744v3.936l-1.704 3.864zm7.851-3.864c0-1.424.296-3 .888-4.728.608-1.728 1.368-3.4 2.28-5.016.912-1.632 1.832-3.056 2.76-4.272h-3.576v2.208h-5.04v-6.864h15.072v3.648c-.88 1.312-1.752 2.848-2.616 4.608-.848 1.744-1.56 3.544-2.136 5.4-.56 1.84-.84 3.512-.84 5.016zm24.298-9.528c.496.128.968.392 1.416.792.464.384.84.872 1.128 1.464.304.592.456 1.248.456 1.968 0 1.76-.632 3.144-1.896 4.152-1.248.992-3.104 1.488-5.568 1.488-1.168 0-2.336-.128-3.504-.384-1.168-.272-2.208-.6-3.12-.984v-5.112c.992.432 2.016.784 3.072 1.056 1.072.272 2.088.408 3.048.408.672 0 1.16-.104 1.464-.312.32-.208.48-.552.48-1.032 0-.928-.56-1.392-1.68-1.392h-1.728v-3.936h1.344c1.056 0 1.584-.448 1.584-1.344 0-.864-.528-1.296-1.584-1.296-.768 0-1.568.184-2.4.552-.832.352-1.64.816-2.424 1.392l-1.416-5.112c.976-.512 2.088-.944 3.336-1.296 1.248-.368 2.504-.552 3.768-.552 2.208 0 3.904.464 5.088 1.392s1.776 2.24 1.776 3.936c0 1.056-.248 1.928-.744 2.616-.496.672-1.128 1.184-1.896 1.536zm6.217 9.528c0-1.424.296-3 .888-4.728.608-1.728 1.368-3.4 2.28-5.016.912-1.632 1.832-3.056 2.76-4.272h-3.576v2.208h-5.04v-6.864h15.072v3.648c-.88 1.312-1.752 2.848-2.616 4.608-.848 1.744-1.56 3.544-2.136 5.4-.56 1.84-.84 3.512-.84 5.016z" fill="#1e1d3d"/><path d="m742.159 300.664c1.792 0 3.16.528 4.104 1.584s1.416 2.488 1.416 4.296c0 1.36-.312 2.552-.936 3.576-.608 1.024-1.52 1.816-2.736 2.376s-2.688.84-4.416.84c-1.168 0-2.336-.128-3.504-.384-1.168-.272-2.208-.6-3.12-.984v-5.112c2.08.976 3.968 1.464 5.664 1.464.88 0 1.536-.176 1.968-.528.432-.368.648-.936.648-1.704 0-.56-.128-1-.384-1.32s-.664-.48-1.224-.48c-.432 0-.784.112-1.056.336-.256.208-.464.512-.624.912h-5.04l1.032-11.208h12.768v4.656h-7.968l-.216 2.472c1.008-.528 2.216-.792 3.624-.792zm6.824 16.2 1.248-3.864h-1.224v-3.936h3.744v3.936l-1.704 3.864zm5.211-5.928c0-1.376.2-2.592.6-3.648.416-1.056 1.088-2.048 2.016-2.976.928-.944 2.208-1.92 3.84-2.928.48-.304.816-.56 1.008-.768.208-.224.312-.488.312-.792 0-.656-.472-.984-1.416-.984-.704 0-1.512.184-2.424.552s-1.736.832-2.472 1.392l-1.416-5.112c1.024-.512 2.2-.944 3.528-1.296 1.328-.368 2.664-.552 4.008-.552 2.208 0 3.92.488 5.136 1.464s1.824 2.36 1.824 4.152c0 .96-.216 1.808-.648 2.544-.416.72-.928 1.328-1.536 1.824-.592.496-1.368 1.064-2.328 1.704-1.072.704-1.864 1.312-2.376 1.824-.496.496-.744 1.072-.744 1.728h2.904v-1.368h4.92v5.304h-14.736zm16.354 2.064v-3.936h2.304v-10.8h-3.024v-2.712l5.328-1.224h4.032v14.736h2.016v3.936zm20.267.336c-2.704 0-4.792-.768-6.264-2.304-1.456-1.536-2.184-3.992-2.184-7.368s.728-5.832 2.184-7.368c1.472-1.536 3.56-2.304 6.264-2.304s4.784.768 6.24 2.304c1.472 1.536 2.208 3.992 2.208 7.368 0 3.12-.68 5.512-2.04 7.176-1.344 1.664-3.48 2.496-6.408 2.496zm0-4.272c1.088 0 1.632-.592 1.632-1.776v-7.248c0-1.184-.544-1.776-1.632-1.776s-1.632.592-1.632 1.776v7.248c0 1.184.544 1.776 1.632 1.776z" fill="#1e1d3d"/><path d="m833.647 435.936c0-1.376.2-2.592.6-3.648.416-1.056 1.088-2.048 2.016-2.976.928-.944 2.208-1.92 3.84-2.928.48-.304.816-.56 1.008-.768.208-.224.312-.488.312-.792 0-.656-.472-.984-1.416-.984-.704 0-1.512.184-2.424.552s-1.736.832-2.472 1.392l-1.416-5.112c1.024-.512 2.2-.944 3.528-1.296 1.328-.368 2.664-.552 4.008-.552 2.208 0 3.92.488 5.136 1.464s1.824 2.36 1.824 4.152c0 .96-.216 1.808-.648 2.544-.416.72-.928 1.328-1.536 1.824-.592.496-1.368 1.064-2.328 1.704-1.072.704-1.864 1.312-2.376 1.824-.496.496-.744 1.072-.744 1.728h2.904v-1.368h4.92v5.304h-14.736zm16.258 5.928 1.248-3.864h-1.224v-3.936h3.744v3.936l-1.704 3.864zm12.723-22.872c2.848 0 4.968.768 6.36 2.304 1.392 1.52 2.088 3.856 2.088 7.008 0 3.456-.816 5.992-2.448 7.608-1.616 1.616-3.848 2.424-6.696 2.424-1.168 0-2.256-.104-3.264-.312-1.008-.192-1.816-.448-2.424-.768v-4.848c.608.272 1.304.496 2.088.672.784.16 1.616.24 2.496.24 2.288 0 3.432-.848 3.432-2.544v-.264c-1.024.4-2.128.6-3.312.6-1.856 0-3.304-.496-4.344-1.488-1.024-1.008-1.536-2.408-1.536-4.2 0-2.128.656-3.728 1.968-4.8 1.312-1.088 3.176-1.632 5.592-1.632zm-1.632 6.336c0 .64.136 1.136.408 1.488.288.352.72.528 1.296.528.544 0 1.064-.104 1.56-.312v-1.92c0-.64-.136-1.104-.408-1.392-.272-.304-.68-.456-1.224-.456s-.952.168-1.224.504-.408.856-.408 1.56zm11.529 12.672v-3.936h2.304v-10.8h-3.024v-2.712l5.328-1.224h4.032v14.736h2.016v3.936zm21.251-12.336c1.792 0 3.16.528 4.104 1.584s1.416 2.488 1.416 4.296c0 1.36-.312 2.552-.936 3.576-.608 1.024-1.52 1.816-2.736 2.376s-2.688.84-4.416.84c-1.168 0-2.336-.128-3.504-.384-1.168-.272-2.208-.6-3.12-.984v-5.112c2.08.976 3.968 1.464 5.664 1.464.88 0 1.536-.176 1.968-.528.432-.368.648-.936.648-1.704 0-.56-.128-1-.384-1.32s-.664-.48-1.224-.48c-.432 0-.784.112-1.056.336-.256.208-.464.512-.624.912h-5.04l1.032-11.208h12.768v4.656h-7.968l-.216 2.472c1.008-.528 2.216-.792 3.624-.792z" fill="#1e1d3d"/><path d="m933.651 460.936c0-1.376.2-2.592.6-3.648.416-1.056 1.088-2.048 2.016-2.976.928-.944 2.208-1.92 3.84-2.928.48-.304.816-.56 1.008-.768.208-.224.312-.488.312-.792 0-.656-.472-.984-1.416-.984-.704 0-1.512.184-2.424.552s-1.736.832-2.472 1.392l-1.416-5.112c1.024-.512 2.2-.944 3.528-1.296 1.328-.368 2.664-.552 4.008-.552 2.208 0 3.92.488 5.136 1.464s1.824 2.36 1.824 4.152c0 .96-.216 1.808-.648 2.544-.416.72-.928 1.328-1.536 1.824-.592.496-1.368 1.064-2.328 1.704-1.072.704-1.864 1.312-2.376 1.824-.496.496-.744 1.072-.744 1.728h2.904v-1.368h4.92v5.304h-14.736zm16.258 5.928 1.248-3.864h-1.224v-3.936h3.744v3.936l-1.704 3.864zm5.979-3.864v-3.936h2.304v-10.8h-3.024v-2.712l5.328-1.224h4.032v14.736h2.016v3.936zm21.251-12.336c1.792 0 3.16.528 4.104 1.584s1.416 2.488 1.416 4.296c0 1.36-.312 2.552-.936 3.576-.608 1.024-1.52 1.816-2.736 2.376s-2.688.84-4.416.84c-1.168 0-2.336-.128-3.504-.384-1.168-.272-2.208-.6-3.12-.984v-5.112c2.08.976 3.968 1.464 5.664 1.464.88 0 1.536-.176 1.968-.528.432-.368.648-.936.648-1.704 0-.56-.128-1-.384-1.32s-.664-.48-1.224-.48c-.432 0-.784.112-1.056.336-.256.208-.464.512-.624.912h-5.04l1.032-11.208h12.768v4.656h-7.968l-.216 2.472c1.008-.528 2.216-.792 3.624-.792zm15.633 0c1.792 0 3.16.528 4.104 1.584s1.416 2.488 1.416 4.296c0 1.36-.312 2.552-.936 3.576-.608 1.024-1.52 1.816-2.736 2.376s-2.688.84-4.416.84c-1.168 0-2.336-.128-3.504-.384-1.168-.272-2.208-.6-3.12-.984v-5.112c2.08.976 3.968 1.464 5.664 1.464.88 0 1.536-.176 1.968-.528.432-.368.648-.936.648-1.704 0-.56-.128-1-.384-1.32s-.664-.48-1.224-.48c-.432 0-.784.112-1.056.336-.256.208-.464.512-.624.912h-5.04l1.032-11.208h12.768v4.656h-7.968l-.216 2.472c1.008-.528 2.216-.792 3.624-.792z" fill="#1e1d3d"/><path d="m1044.68 397.472c.5.128.97.392 1.42.792.46.384.84.872 1.13 1.464.3.592.45 1.248.45 1.968 0 1.76-.63 3.144-1.89 4.152-1.25.992-3.11 1.488-5.57 1.488-1.17 0-2.34-.128-3.5-.384-1.17-.272-2.21-.6-3.12-.984v-5.112c.99.432 2.01.784 3.07 1.056 1.07.272 2.09.408 3.05.408.67 0 1.16-.104 1.46-.312.32-.208.48-.552.48-1.032 0-.928-.56-1.392-1.68-1.392h-1.73v-3.936h1.35c1.05 0 1.58-.448 1.58-1.344 0-.864-.53-1.296-1.58-1.296-.77 0-1.57.184-2.4.552-.84.352-1.64.816-2.43 1.392l-1.41-5.112c.97-.512 2.08-.944 3.33-1.296 1.25-.368 2.51-.552 3.77-.552 2.21 0 3.9.464 5.09 1.392 1.18.928 1.77 2.24 1.77 3.936 0 1.056-.24 1.928-.74 2.616-.5.672-1.13 1.184-1.9 1.536zm4.25 13.392 1.25-3.864h-1.22v-3.936h3.74v3.936l-1.7 3.864zm16.59-13.392c.5.128.97.392 1.42.792.46.384.84.872 1.12 1.464.31.592.46 1.248.46 1.968 0 1.76-.63 3.144-1.9 4.152-1.24.992-3.1 1.488-5.56 1.488-1.17 0-2.34-.128-3.51-.384-1.17-.272-2.21-.6-3.12-.984v-5.112c.99.432 2.02.784 3.07 1.056 1.08.272 2.09.408 3.05.408.67 0 1.16-.104 1.47-.312.32-.208.48-.552.48-1.032 0-.928-.56-1.392-1.68-1.392h-1.73v-3.936h1.34c1.06 0 1.59-.448 1.59-1.344 0-.864-.53-1.296-1.59-1.296-.77 0-1.57.184-2.4.552-.83.352-1.64.816-2.42 1.392l-1.42-5.112c.98-.512 2.09-.944 3.34-1.296 1.25-.368 2.5-.552 3.77-.552 2.2 0 3.9.464 5.08 1.392 1.19.928 1.78 2.24 1.78 3.936 0 1.056-.25 1.928-.74 2.616-.5.672-1.13 1.184-1.9 1.536zm3.58 7.464c0-1.376.2-2.592.6-3.648.41-1.056 1.08-2.048 2.01-2.976.93-.944 2.21-1.92 3.84-2.928.48-.304.82-.56 1.01-.768.21-.224.31-.488.31-.792 0-.656-.47-.984-1.41-.984-.71 0-1.52.184-2.43.552s-1.73.832-2.47 1.392l-1.42-5.112c1.03-.512 2.2-.944 3.53-1.296 1.33-.368 2.67-.552 4.01-.552 2.21 0 3.92.488 5.14 1.464 1.21.976 1.82 2.36 1.82 4.152 0 .96-.22 1.808-.65 2.544-.41.72-.93 1.328-1.53 1.824s-1.37 1.064-2.33 1.704c-1.07.704-1.87 1.312-2.38 1.824-.49.496-.74 1.072-.74 1.728h2.9v-1.368h4.92v5.304h-14.73zm15.58 0c0-1.376.2-2.592.6-3.648.42-1.056 1.09-2.048 2.02-2.976.93-.944 2.21-1.92 3.84-2.928.48-.304.81-.56 1.01-.768.2-.224.31-.488.31-.792 0-.656-.47-.984-1.42-.984-.7 0-1.51.184-2.42.552s-1.74.832-2.47 1.392l-1.42-5.112c1.02-.512 2.2-.944 3.53-1.296 1.33-.368 2.66-.552 4.01-.552 2.2 0 3.92.488 5.13 1.464 1.22.976 1.83 2.36 1.83 4.152 0 .96-.22 1.808-.65 2.544-.42.72-.93 1.328-1.54 1.824-.59.496-1.37 1.064-2.33 1.704-1.07.704-1.86 1.312-2.37 1.824-.5.496-.75 1.072-.75 1.728h2.91v-1.368h4.92v5.304h-14.74z" fill="#1e1d3d"/><path d="m1144.76 406.472c.49.128.97.392 1.41.792.47.384.84.872 1.13 1.464.31.592.46 1.248.46 1.968 0 1.76-.63 3.144-1.9 4.152-1.25.992-3.1 1.488-5.57 1.488-1.16 0-2.33-.128-3.5-.384-1.17-.272-2.21-.6-3.12-.984v-5.112c.99.432 2.02.784 3.07 1.056 1.07.272 2.09.408 3.05.408.67 0 1.16-.104 1.46-.312.32-.208.48-.552.48-1.032 0-.928-.56-1.392-1.68-1.392h-1.72v-3.936h1.34c1.06 0 1.58-.448 1.58-1.344 0-.864-.52-1.296-1.58-1.296-.77 0-1.57.184-2.4.552-.83.352-1.64.816-2.42 1.392l-1.42-5.112c.98-.512 2.09-.944 3.34-1.296 1.24-.368 2.5-.552 3.76-.552 2.21 0 3.91.464 5.09 1.392 1.19.928 1.78 2.24 1.78 3.936 0 1.056-.25 1.928-.75 2.616-.49.672-1.12 1.184-1.89 1.536zm4.25 13.392 1.24-3.864h-1.22v-3.936h3.74v3.936l-1.7 3.864zm5.21-5.928c0-1.376.2-2.592.6-3.648.41-1.056 1.09-2.048 2.01-2.976.93-.944 2.21-1.92 3.84-2.928.48-.304.82-.56 1.01-.768.21-.224.31-.488.31-.792 0-.656-.47-.984-1.41-.984-.71 0-1.51.184-2.43.552-.91.368-1.73.832-2.47 1.392l-1.41-5.112c1.02-.512 2.2-.944 3.52-1.296 1.33-.368 2.67-.552 4.01-.552 2.21 0 3.92.488 5.14 1.464 1.21.976 1.82 2.36 1.82 4.152 0 .96-.21 1.808-.65 2.544-.41.72-.92 1.328-1.53 1.824-.59.496-1.37 1.064-2.33 1.704-1.07.704-1.86 1.312-2.38 1.824-.49.496-.74 1.072-.74 1.728h2.9v-1.368h4.92v5.304h-14.73zm15.58 0c0-1.376.2-2.592.6-3.648.42-1.056 1.09-2.048 2.02-2.976.93-.944 2.21-1.92 3.84-2.928.48-.304.82-.56 1.01-.768.21-.224.31-.488.31-.792 0-.656-.47-.984-1.42-.984-.7 0-1.51.184-2.42.552s-1.74.832-2.47 1.392l-1.42-5.112c1.03-.512 2.2-.944 3.53-1.296 1.33-.368 2.66-.552 4.01-.552 2.21 0 3.92.488 5.13 1.464 1.22.976 1.83 2.36 1.83 4.152 0 .96-.22 1.808-.65 2.544-.42.72-.93 1.328-1.54 1.824-.59.496-1.36 1.064-2.32 1.704-1.08.704-1.87 1.312-2.38 1.824-.5.496-.74 1.072-.74 1.728h2.9v-1.368h4.92v5.304h-14.74zm28.57-7.632c.9.32 1.67.856 2.31 1.608.65.736.98 1.712.98 2.928 0 1.808-.69 3.176-2.09 4.104-1.37.928-3.4 1.392-6.07 1.392s-4.7-.448-6.09-1.344c-1.38-.912-2.07-2.248-2.07-4.008 0-1.264.35-2.28 1.03-3.048.71-.768 1.54-1.312 2.5-1.632-.85-.304-1.56-.792-2.14-1.464-.57-.688-.86-1.568-.86-2.64 0-1.712.64-3.008 1.92-3.888 1.3-.88 3.2-1.32 5.71-1.32 2.5 0 4.39.44 5.67 1.32s1.92 2.176 1.92 3.888c0 1.088-.26 1.968-.77 2.64s-1.16 1.16-1.95 1.464zm-4.87-5.04c-1.09 0-1.63.56-1.63 1.68 0 1.056.54 1.584 1.63 1.584s1.63-.528 1.63-1.584c0-1.12-.54-1.68-1.63-1.68zm0 10.8c1.25 0 1.87-.64 1.87-1.92 0-.64-.16-1.128-.48-1.464s-.78-.504-1.39-.504-1.07.168-1.39.504-.48.824-.48 1.464c0 1.28.62 1.92 1.87 1.92z" fill="#1e1d3d"/><path d="m1246.01 396.472c.5.128.97.392 1.42.792.46.384.84.872 1.13 1.464.3.592.45 1.248.45 1.968 0 1.76-.63 3.144-1.89 4.152-1.25.992-3.11 1.488-5.57 1.488-1.17 0-2.34-.128-3.51-.384-1.16-.272-2.2-.6-3.12-.984v-5.112c1 .432 2.02.784 3.08 1.056 1.07.272 2.08.408 3.04.408.68 0 1.16-.104 1.47-.312.32-.208.48-.552.48-1.032 0-.928-.56-1.392-1.68-1.392h-1.73v-3.936h1.34c1.06 0 1.59-.448 1.59-1.344 0-.864-.53-1.296-1.59-1.296-.76 0-1.56.184-2.4.552-.83.352-1.64.816-2.42 1.392l-1.42-5.112c.98-.512 2.09-.944 3.34-1.296 1.25-.368 2.5-.552 3.77-.552 2.21 0 3.9.464 5.09 1.392 1.18.928 1.77 2.24 1.77 3.936 0 1.056-.25 1.928-.74 2.616-.5.672-1.13 1.184-1.9 1.536zm4.25 13.392 1.25-3.864h-1.23v-3.936h3.75v3.936l-1.71 3.864zm16.59-13.392c.49.128.97.392 1.41.792.47.384.84.872 1.13 1.464.31.592.46 1.248.46 1.968 0 1.76-.63 3.144-1.9 4.152-1.25.992-3.1 1.488-5.57 1.488-1.16 0-2.33-.128-3.5-.384-1.17-.272-2.21-.6-3.12-.984v-5.112c.99.432 2.02.784 3.07 1.056 1.07.272 2.09.408 3.05.408.67 0 1.16-.104 1.46-.312.32-.208.48-.552.48-1.032 0-.928-.56-1.392-1.68-1.392h-1.72v-3.936h1.34c1.06 0 1.58-.448 1.58-1.344 0-.864-.52-1.296-1.58-1.296-.77 0-1.57.184-2.4.552-.83.352-1.64.816-2.42 1.392l-1.42-5.112c.98-.512 2.09-.944 3.34-1.296 1.24-.368 2.5-.552 3.76-.552 2.21 0 3.91.464 5.09 1.392 1.19.928 1.78 2.24 1.78 3.936 0 1.056-.25 1.928-.75 2.616-.49.672-1.12 1.184-1.89 1.536zm6.21 9.528c0-1.424.3-3 .89-4.728.61-1.728 1.37-3.4 2.28-5.016.91-1.632 1.83-3.056 2.76-4.272h-3.57v2.208h-5.04v-6.864h15.07v3.648c-.88 1.312-1.75 2.848-2.62 4.608-.85 1.744-1.56 3.544-2.13 5.4-.56 1.84-.84 3.512-.84 5.016zm24.3-9.528c.5.128.97.392 1.42.792.46.384.84.872 1.13 1.464.3.592.45 1.248.45 1.968 0 1.76-.63 3.144-1.89 4.152-1.25.992-3.11 1.488-5.57 1.488-1.17 0-2.34-.128-3.5-.384-1.17-.272-2.21-.6-3.12-.984v-5.112c.99.432 2.01.784 3.07 1.056 1.07.272 2.09.408 3.05.408.67 0 1.16-.104 1.46-.312.32-.208.48-.552.48-1.032 0-.928-.56-1.392-1.68-1.392h-1.73v-3.936h1.35c1.05 0 1.58-.448 1.58-1.344 0-.864-.53-1.296-1.58-1.296-.77 0-1.57.184-2.4.552-.84.352-1.64.816-2.43 1.392l-1.41-5.112c.97-.512 2.08-.944 3.33-1.296 1.25-.368 2.51-.552 3.77-.552 2.21 0 3.9.464 5.09 1.392 1.18.928 1.77 2.24 1.77 3.936 0 1.056-.24 1.928-.74 2.616-.5.672-1.13 1.184-1.9 1.536z" fill="#1e1d3d"/><path d="m135.254 581.28c0-1.147.166-2.16.5-3.04.346-.88.906-1.707 1.68-2.48.773-.787 1.84-1.6 3.2-2.44.4-.253.68-.467.84-.64.173-.187.26-.407.26-.66 0-.547-.394-.82-1.18-.82-.587 0-1.26.153-2.02.46s-1.447.693-2.06 1.16l-1.18-4.26c.853-.427 1.833-.787 2.94-1.08 1.106-.307 2.22-.46 3.34-.46 1.84 0 3.266.407 4.28 1.22 1.013.813 1.52 1.967 1.52 3.46 0 .8-.18 1.507-.54 2.12-.347.6-.774 1.107-1.28 1.52-.494.413-1.14.887-1.94 1.42-.894.587-1.554 1.093-1.98 1.52-.414.413-.62.893-.62 1.44h2.42v-1.14h4.1v4.42h-12.28zm24.068 2c-2.253 0-3.993-.64-5.22-1.92-1.213-1.28-1.82-3.327-1.82-6.14s.607-4.86 1.82-6.14c1.227-1.28 2.967-1.92 5.22-1.92s3.987.64 5.2 1.92c1.227 1.28 1.84 3.327 1.84 6.14 0 2.6-.567 4.593-1.7 5.98-1.12 1.387-2.9 2.08-5.34 2.08zm0-3.56c.907 0 1.36-.493 1.36-1.48v-6.04c0-.987-.453-1.48-1.36-1.48s-1.36.493-1.36 1.48v6.04c0 .987.453 1.48 1.36 1.48zm12.208 3.28v-3.28h1.92v-9h-2.52v-2.26l4.44-1.02h3.36v12.28h1.68v3.28zm20.43 0v-2.5h-6.5v-3.28l6.9-9.78h4.88v10.02h1.38v3.04h-1.38v2.5zm-2.8-5.54h2.8v-3.94z" fill="#ff0068"/><path d="m235.683 581.28c0-1.147.167-2.16.5-3.04.347-.88.907-1.707 1.68-2.48.774-.787 1.84-1.6 3.2-2.44.4-.253.68-.467.84-.64.174-.187.26-.407.26-.66 0-.547-.393-.82-1.18-.82-.586 0-1.26.153-2.02.46s-1.446.693-2.06 1.16l-1.18-4.26c.854-.427 1.834-.787 2.94-1.08 1.107-.307 2.22-.46 3.34-.46 1.84 0 3.267.407 4.28 1.22 1.014.813 1.52 1.967 1.52 3.46 0 .8-.18 1.507-.54 2.12-.346.6-.773 1.107-1.28 1.52-.493.413-1.14.887-1.94 1.42-.893.587-1.553 1.093-1.98 1.52-.413.413-.62.893-.62 1.44h2.42v-1.14h4.1v4.42h-12.28zm24.069 2c-2.254 0-3.994-.64-5.22-1.92-1.214-1.28-1.82-3.327-1.82-6.14s.606-4.86 1.82-6.14c1.226-1.28 2.966-1.92 5.22-1.92 2.253 0 3.986.64 5.2 1.92 1.226 1.28 1.84 3.327 1.84 6.14 0 2.6-.567 4.593-1.7 5.98-1.12 1.387-2.9 2.08-5.34 2.08zm0-3.56c.906 0 1.36-.493 1.36-1.48v-6.04c0-.987-.454-1.48-1.36-1.48-.907 0-1.36.493-1.36 1.48v6.04c0 .987.453 1.48 1.36 1.48zm12.208 3.28v-3.28h1.92v-9h-2.52v-2.26l4.44-1.02h3.36v12.28h1.68v3.28zm21.709-10.28c1.494 0 2.634.44 3.42 1.32.787.88 1.18 2.073 1.18 3.58 0 1.133-.26 2.127-.78 2.98-.506.853-1.266 1.513-2.28 1.98-1.013.467-2.24.7-3.68.7-.973 0-1.946-.107-2.92-.32-.973-.227-1.84-.5-2.6-.82v-4.26c1.734.813 3.307 1.22 4.72 1.22.734 0 1.28-.147 1.64-.44.36-.307.54-.78.54-1.42 0-.467-.106-.833-.32-1.1-.213-.267-.553-.4-1.02-.4-.36 0-.653.093-.88.28-.213.173-.386.427-.52.76h-4.2l.86-9.34h10.64v3.88h-6.64l-.18 2.06c.84-.44 1.847-.66 3.02-.66z" fill="#ff0068"/><path d="m335.263 581.28c0-1.147.167-2.16.5-3.04.347-.88.907-1.707 1.68-2.48.774-.787 1.84-1.6 3.2-2.44.4-.253.68-.467.84-.64.174-.187.26-.407.26-.66 0-.547-.393-.82-1.18-.82-.586 0-1.26.153-2.02.46s-1.446.693-2.06 1.16l-1.18-4.26c.854-.427 1.834-.787 2.94-1.08 1.107-.307 2.22-.46 3.34-.46 1.84 0 3.267.407 4.28 1.22 1.014.813 1.52 1.967 1.52 3.46 0 .8-.18 1.507-.54 2.12-.346.6-.773 1.107-1.28 1.52-.493.413-1.14.887-1.94 1.42-.893.587-1.553 1.093-1.98 1.52-.413.413-.62.893-.62 1.44h2.42v-1.14h4.1v4.42h-12.28zm24.069 2c-2.254 0-3.994-.64-5.22-1.92-1.214-1.28-1.82-3.327-1.82-6.14s.606-4.86 1.82-6.14c1.226-1.28 2.966-1.92 5.22-1.92 2.253 0 3.986.64 5.2 1.92 1.226 1.28 1.84 3.327 1.84 6.14 0 2.6-.567 4.593-1.7 5.98-1.12 1.387-2.9 2.08-5.34 2.08zm0-3.56c.906 0 1.36-.493 1.36-1.48v-6.04c0-.987-.454-1.48-1.36-1.48-.907 0-1.36.493-1.36 1.48v6.04c0 .987.453 1.48 1.36 1.48zm12.208 3.28v-3.28h1.92v-9h-2.52v-2.26l4.44-1.02h3.36v12.28h1.68v3.28zm22.549-9.82c1.48 0 2.634.427 3.46 1.28.84.853 1.26 2.04 1.26 3.56 0 1.693-.56 2.993-1.68 3.9-1.106.907-2.673 1.36-4.7 1.36-2.346 0-4.093-.633-5.24-1.9-1.146-1.28-1.72-3.233-1.72-5.86 0-2.88.674-4.993 2.02-6.34 1.36-1.347 3.227-2.02 5.6-2.02.974 0 1.88.087 2.72.26.84.16 1.514.373 2.02.64v4.04c-.506-.227-1.086-.407-1.74-.54-.653-.147-1.346-.22-2.08-.22-1.906 0-2.86.707-2.86 2.12v.24c.414-.147.88-.267 1.4-.36.52-.107 1.034-.16 1.54-.16zm-1.58 6.54c.454 0 .794-.133 1.02-.4.227-.28.34-.713.34-1.3 0-.533-.12-.947-.36-1.24-.226-.307-.58-.46-1.06-.46-.453 0-.886.087-1.3.26v1.6c0 .533.114.927.34 1.18.227.24.567.36 1.02.36z" fill="#ff0068"/><path d="m435.713 581.28c0-1.147.166-2.16.5-3.04.346-.88.906-1.707 1.68-2.48.773-.787 1.84-1.6 3.2-2.44.4-.253.68-.467.84-.64.173-.187.26-.407.26-.66 0-.547-.394-.82-1.18-.82-.587 0-1.26.153-2.02.46s-1.447.693-2.06 1.16l-1.18-4.26c.853-.427 1.833-.787 2.94-1.08 1.106-.307 2.22-.46 3.34-.46 1.84 0 3.266.407 4.28 1.22 1.013.813 1.52 1.967 1.52 3.46 0 .8-.18 1.507-.54 2.12-.347.6-.774 1.107-1.28 1.52-.494.413-1.14.887-1.94 1.42-.894.587-1.554 1.093-1.98 1.52-.414.413-.62.893-.62 1.44h2.42v-1.14h4.1v4.42h-12.28zm24.068 2c-2.253 0-3.993-.64-5.22-1.92-1.213-1.28-1.82-3.327-1.82-6.14s.607-4.86 1.82-6.14c1.227-1.28 2.967-1.92 5.22-1.92s3.987.64 5.2 1.92c1.227 1.28 1.84 3.327 1.84 6.14 0 2.6-.567 4.593-1.7 5.98-1.12 1.387-2.9 2.08-5.34 2.08zm0-3.56c.907 0 1.36-.493 1.36-1.48v-6.04c0-.987-.453-1.48-1.36-1.48s-1.36.493-1.36 1.48v6.04c0 .987.453 1.48 1.36 1.48zm12.208 3.28v-3.28h1.92v-9h-2.52v-2.26l4.44-1.02h3.36v12.28h1.68v3.28zm16.01 0c0-1.187.246-2.5.74-3.94.506-1.44 1.14-2.833 1.9-4.18.76-1.36 1.526-2.547 2.3-3.56h-2.98v1.84h-4.2v-5.72h12.56v3.04c-.734 1.093-1.46 2.373-2.18 3.84-.707 1.453-1.3 2.953-1.78 4.5-.467 1.533-.7 2.927-.7 4.18z" fill="#ff0068"/><path d="m535.695 581.28c0-1.147.167-2.16.5-3.04.347-.88.907-1.707 1.68-2.48.773-.787 1.84-1.6 3.2-2.44.4-.253.68-.467.84-.64.173-.187.26-.407.26-.66 0-.547-.393-.82-1.18-.82-.587 0-1.26.153-2.02.46s-1.447.693-2.06 1.16l-1.18-4.26c.853-.427 1.833-.787 2.94-1.08 1.107-.307 2.22-.46 3.34-.46 1.84 0 3.267.407 4.28 1.22s1.52 1.967 1.52 3.46c0 .8-.18 1.507-.54 2.12-.347.6-.773 1.107-1.28 1.52-.493.413-1.14.887-1.94 1.42-.893.587-1.553 1.093-1.98 1.52-.413.413-.62.893-.62 1.44h2.42v-1.14h4.1v4.42h-12.28zm24.068 2c-2.253 0-3.993-.64-5.22-1.92-1.213-1.28-1.82-3.327-1.82-6.14s.607-4.86 1.82-6.14c1.227-1.28 2.967-1.92 5.22-1.92 2.254 0 3.987.64 5.2 1.92 1.227 1.28 1.84 3.327 1.84 6.14 0 2.6-.566 4.593-1.7 5.98-1.12 1.387-2.9 2.08-5.34 2.08zm0-3.56c.907 0 1.36-.493 1.36-1.48v-6.04c0-.987-.453-1.48-1.36-1.48-.906 0-1.36.493-1.36 1.48v6.04c0 .987.454 1.48 1.36 1.48zm12.209 3.28v-3.28h1.92v-9h-2.52v-2.26l4.44-1.02h3.36v12.28h1.68v3.28zm24.629-8.08c.747.267 1.387.713 1.92 1.34.547.613.82 1.427.82 2.44 0 1.507-.58 2.647-1.74 3.42-1.147.773-2.833 1.16-5.06 1.16s-3.92-.373-5.08-1.12c-1.147-.76-1.72-1.873-1.72-3.34 0-1.053.287-1.9.86-2.54.587-.64 1.28-1.093 2.08-1.36-.707-.253-1.3-.66-1.78-1.22-.48-.573-.72-1.307-.72-2.2 0-1.427.533-2.507 1.6-3.24 1.08-.733 2.667-1.1 4.76-1.1 2.08 0 3.653.367 4.72 1.1s1.6 1.813 1.6 3.24c0 .907-.213 1.64-.64 2.2s-.967.967-1.62 1.22zm-4.06-4.2c-.907 0-1.36.467-1.36 1.4 0 .88.453 1.32 1.36 1.32s1.36-.44 1.36-1.32c0-.933-.453-1.4-1.36-1.4zm0 9c1.04 0 1.56-.533 1.56-1.6 0-.533-.133-.94-.4-1.22s-.653-.42-1.16-.42-.893.14-1.16.42-.4.687-.4 1.22c0 1.067.52 1.6 1.56 1.6z" fill="#ff0068"/><path d="m635.263 581.28c0-1.147.167-2.16.5-3.04.347-.88.907-1.707 1.68-2.48.774-.787 1.84-1.6 3.2-2.44.4-.253.68-.467.84-.64.174-.187.26-.407.26-.66 0-.547-.393-.82-1.18-.82-.586 0-1.26.153-2.02.46s-1.446.693-2.06 1.16l-1.18-4.26c.854-.427 1.834-.787 2.94-1.08 1.107-.307 2.22-.46 3.34-.46 1.84 0 3.267.407 4.28 1.22 1.014.813 1.52 1.967 1.52 3.46 0 .8-.18 1.507-.54 2.12-.346.6-.773 1.107-1.28 1.52-.493.413-1.14.887-1.94 1.42-.893.587-1.553 1.093-1.98 1.52-.413.413-.62.893-.62 1.44h2.42v-1.14h4.1v4.42h-12.28zm24.069 2c-2.254 0-3.994-.64-5.22-1.92-1.214-1.28-1.82-3.327-1.82-6.14s.606-4.86 1.82-6.14c1.226-1.28 2.966-1.92 5.22-1.92 2.253 0 3.986.64 5.2 1.92 1.226 1.28 1.84 3.327 1.84 6.14 0 2.6-.567 4.593-1.7 5.98-1.12 1.387-2.9 2.08-5.34 2.08zm0-3.56c.906 0 1.36-.493 1.36-1.48v-6.04c0-.987-.454-1.48-1.36-1.48-.907 0-1.36.493-1.36 1.48v6.04c0 .987.453 1.48 1.36 1.48zm12.208 3.28v-3.28h1.92v-9h-2.52v-2.26l4.44-1.02h3.36v12.28h1.68v3.28zm20.069-15.84c2.374 0 4.14.64 5.3 1.92 1.16 1.267 1.74 3.213 1.74 5.84 0 2.88-.68 4.993-2.04 6.34-1.346 1.347-3.206 2.02-5.58 2.02-.973 0-1.88-.087-2.72-.26-.84-.16-1.513-.373-2.02-.64v-4.04c.507.227 1.087.413 1.74.56.654.133 1.347.2 2.08.2 1.907 0 2.86-.707 2.86-2.12v-.22c-.853.333-1.773.5-2.76.5-1.546 0-2.753-.413-3.62-1.24-.853-.84-1.28-2.007-1.28-3.5 0-1.773.547-3.107 1.64-4 1.094-.907 2.647-1.36 4.66-1.36zm-1.36 5.28c0 .533.114.947.34 1.24.24.293.6.44 1.08.44.454 0 .887-.087 1.3-.26v-1.6c0-.533-.113-.92-.34-1.16-.226-.253-.566-.38-1.02-.38-.453 0-.793.14-1.02.42-.226.28-.34.713-.34 1.3z" fill="#ff0068"/><path d="m733.603 581.28c0-1.147.167-2.16.5-3.04.347-.88.907-1.707 1.68-2.48.774-.787 1.84-1.6 3.2-2.44.4-.253.68-.467.84-.64.174-.187.26-.407.26-.66 0-.547-.393-.82-1.18-.82-.586 0-1.26.153-2.02.46s-1.446.693-2.06 1.16l-1.18-4.26c.854-.427 1.834-.787 2.94-1.08 1.107-.307 2.22-.46 3.34-.46 1.84 0 3.267.407 4.28 1.22 1.014.813 1.52 1.967 1.52 3.46 0 .8-.18 1.507-.54 2.12-.346.6-.773 1.107-1.28 1.52-.493.413-1.14.887-1.94 1.42-.893.587-1.553 1.093-1.98 1.52-.413.413-.62.893-.62 1.44h2.42v-1.14h4.1v4.42h-12.28zm24.069 2c-2.254 0-3.994-.64-5.22-1.92-1.214-1.28-1.82-3.327-1.82-6.14s.606-4.86 1.82-6.14c1.226-1.28 2.966-1.92 5.22-1.92 2.253 0 3.986.64 5.2 1.92 1.226 1.28 1.84 3.327 1.84 6.14 0 2.6-.567 4.593-1.7 5.98-1.12 1.387-2.9 2.08-5.34 2.08zm0-3.56c.906 0 1.36-.493 1.36-1.48v-6.04c0-.987-.454-1.48-1.36-1.48-.907 0-1.36.493-1.36 1.48v6.04c0 .987.453 1.48 1.36 1.48zm11.568 1.56c0-1.147.167-2.16.5-3.04.347-.88.907-1.707 1.68-2.48.773-.787 1.84-1.6 3.2-2.44.4-.253.68-.467.84-.64.173-.187.26-.407.26-.66 0-.547-.393-.82-1.18-.82-.587 0-1.26.153-2.02.46s-1.447.693-2.06 1.16l-1.18-4.26c.853-.427 1.833-.787 2.94-1.08 1.107-.307 2.22-.46 3.34-.46 1.84 0 3.267.407 4.28 1.22s1.52 1.967 1.52 3.46c0 .8-.18 1.507-.54 2.12-.347.6-.773 1.107-1.28 1.52-.493.413-1.14.887-1.94 1.42-.893.587-1.553 1.093-1.98 1.52-.413.413-.62.893-.62 1.44h2.42v-1.14h4.1v4.42h-12.28zm24.068 2c-2.253 0-3.993-.64-5.22-1.92-1.213-1.28-1.82-3.327-1.82-6.14s.607-4.86 1.82-6.14c1.227-1.28 2.967-1.92 5.22-1.92 2.254 0 3.987.64 5.2 1.92 1.227 1.28 1.84 3.327 1.84 6.14 0 2.6-.566 4.593-1.7 5.98-1.12 1.387-2.9 2.08-5.34 2.08zm0-3.56c.907 0 1.36-.493 1.36-1.48v-6.04c0-.987-.453-1.48-1.36-1.48-.906 0-1.36.493-1.36 1.48v6.04c0 .987.454 1.48 1.36 1.48z" fill="#ff0068"/><path d="m835.703 581.28c0-1.147.167-2.16.5-3.04.347-.88.907-1.707 1.68-2.48.773-.787 1.84-1.6 3.2-2.44.4-.253.68-.467.84-.64.173-.187.26-.407.26-.66 0-.547-.393-.82-1.18-.82-.587 0-1.26.153-2.02.46s-1.447.693-2.06 1.16l-1.18-4.26c.853-.427 1.833-.787 2.94-1.08 1.107-.307 2.22-.46 3.34-.46 1.84 0 3.267.407 4.28 1.22s1.52 1.967 1.52 3.46c0 .8-.18 1.507-.54 2.12-.347.6-.773 1.107-1.28 1.52-.493.413-1.14.887-1.94 1.42-.893.587-1.553 1.093-1.98 1.52-.413.413-.62.893-.62 1.44h2.42v-1.14h4.1v4.42h-12.28zm24.068 2c-2.253 0-3.993-.64-5.22-1.92-1.213-1.28-1.82-3.327-1.82-6.14s.607-4.86 1.82-6.14c1.227-1.28 2.967-1.92 5.22-1.92 2.254 0 3.987.64 5.2 1.92 1.227 1.28 1.84 3.327 1.84 6.14 0 2.6-.566 4.593-1.7 5.98-1.12 1.387-2.9 2.08-5.34 2.08zm0-3.56c.907 0 1.36-.493 1.36-1.48v-6.04c0-.987-.453-1.48-1.36-1.48-.906 0-1.36.493-1.36 1.48v6.04c0 .987.454 1.48 1.36 1.48zm11.569 1.56c0-1.147.166-2.16.5-3.04.346-.88.906-1.707 1.68-2.48.773-.787 1.84-1.6 3.2-2.44.4-.253.68-.467.84-.64.173-.187.26-.407.26-.66 0-.547-.394-.82-1.18-.82-.587 0-1.26.153-2.02.46s-1.447.693-2.06 1.16l-1.18-4.26c.853-.427 1.833-.787 2.94-1.08 1.106-.307 2.22-.46 3.34-.46 1.84 0 3.266.407 4.28 1.22 1.013.813 1.52 1.967 1.52 3.46 0 .8-.18 1.507-.54 2.12-.347.6-.774 1.107-1.28 1.52-.494.413-1.14.887-1.94 1.42-.894.587-1.554 1.093-1.98 1.52-.414.413-.62.893-.62 1.44h2.42v-1.14h4.1v4.42h-12.28zm17.628 1.72v-3.28h1.92v-9h-2.52v-2.26l4.44-1.02h3.36v12.28h1.68v3.28z" fill="#ff0068"/><path d="m934.433 581.28c0-1.147.167-2.16.5-3.04.347-.88.907-1.707 1.68-2.48.774-.787 1.84-1.6 3.2-2.44.4-.253.68-.467.84-.64.174-.187.26-.407.26-.66 0-.547-.393-.82-1.18-.82-.586 0-1.26.153-2.02.46s-1.446.693-2.06 1.16l-1.18-4.26c.854-.427 1.834-.787 2.94-1.08 1.107-.307 2.22-.46 3.34-.46 1.84 0 3.267.407 4.28 1.22 1.014.813 1.52 1.967 1.52 3.46 0 .8-.18 1.507-.54 2.12-.346.6-.773 1.107-1.28 1.52-.493.413-1.14.887-1.94 1.42-.893.587-1.553 1.093-1.98 1.52-.413.413-.62.893-.62 1.44h2.42v-1.14h4.1v4.42h-12.28zm24.069 2c-2.254 0-3.994-.64-5.22-1.92-1.214-1.28-1.82-3.327-1.82-6.14s.606-4.86 1.82-6.14c1.226-1.28 2.966-1.92 5.22-1.92 2.253 0 3.986.64 5.2 1.92 1.226 1.28 1.84 3.327 1.84 6.14 0 2.6-.567 4.593-1.7 5.98-1.12 1.387-2.9 2.08-5.34 2.08zm0-3.56c.906 0 1.36-.493 1.36-1.48v-6.04c0-.987-.454-1.48-1.36-1.48-.907 0-1.36.493-1.36 1.48v6.04c0 .987.453 1.48 1.36 1.48zm11.568 1.56c0-1.147.167-2.16.5-3.04.347-.88.907-1.707 1.68-2.48.773-.787 1.84-1.6 3.2-2.44.4-.253.68-.467.84-.64.173-.187.26-.407.26-.66 0-.547-.393-.82-1.18-.82-.587 0-1.26.153-2.02.46s-1.447.693-2.06 1.16l-1.18-4.26c.853-.427 1.833-.787 2.94-1.08 1.107-.307 2.22-.46 3.34-.46 1.84 0 3.267.407 4.28 1.22s1.52 1.967 1.52 3.46c0 .8-.18 1.507-.54 2.12-.347.6-.773 1.107-1.28 1.52-.493.413-1.14.887-1.94 1.42-.893.587-1.553 1.093-1.98 1.52-.413.413-.62.893-.62 1.44h2.42v-1.14h4.1v4.42h-12.28zm16.988 0c0-1.147.167-2.16.5-3.04.347-.88.907-1.707 1.68-2.48.774-.787 1.84-1.6 3.2-2.44.4-.253.68-.467.84-.64.174-.187.26-.407.26-.66 0-.547-.393-.82-1.18-.82-.586 0-1.26.153-2.02.46s-1.446.693-2.06 1.16l-1.18-4.26c.854-.427 1.834-.787 2.94-1.08 1.107-.307 2.22-.46 3.34-.46 1.84 0 3.267.407 4.28 1.22 1.014.813 1.52 1.967 1.52 3.46 0 .8-.18 1.507-.54 2.12-.346.6-.773 1.107-1.28 1.52-.493.413-1.14.887-1.94 1.42-.893.587-1.553 1.093-1.98 1.52-.413.413-.62.893-.62 1.44h2.42v-1.14h4.1v4.42h-12.28z" fill="#ff0068"/><path d="m1034.7 581.28c0-1.147.16-2.16.5-3.04s.9-1.707 1.68-2.48c.77-.787 1.84-1.6 3.2-2.44.4-.253.68-.467.84-.64.17-.187.26-.407.26-.66 0-.547-.4-.82-1.18-.82-.59 0-1.26.153-2.02.46s-1.45.693-2.06 1.16l-1.18-4.26c.85-.427 1.83-.787 2.94-1.08 1.1-.307 2.22-.46 3.34-.46 1.84 0 3.26.407 4.28 1.22 1.01.813 1.52 1.967 1.52 3.46 0 .8-.18 1.507-.54 2.12-.35.6-.78 1.107-1.28 1.52s-1.14.887-1.94 1.42c-.9.587-1.56 1.093-1.98 1.52-.42.413-.62.893-.62 1.44h2.42v-1.14h4.1v4.42h-12.28zm24.07 2c-2.26 0-4-.64-5.22-1.92s-1.82-3.327-1.82-6.14.6-4.86 1.82-6.14 2.96-1.92 5.22-1.92c2.25 0 3.98.64 5.2 1.92s1.84 3.327 1.84 6.14c0 2.6-.57 4.593-1.7 5.98-1.12 1.387-2.9 2.08-5.34 2.08zm0-3.56c.9 0 1.36-.493 1.36-1.48v-6.04c0-.987-.46-1.48-1.36-1.48-.91 0-1.36.493-1.36 1.48v6.04c0 .987.45 1.48 1.36 1.48zm11.56 1.56c0-1.147.17-2.16.5-3.04.35-.88.91-1.707 1.68-2.48.78-.787 1.84-1.6 3.2-2.44.4-.253.68-.467.84-.64.18-.187.26-.407.26-.66 0-.547-.39-.82-1.18-.82-.58 0-1.26.153-2.02.46s-1.44.693-2.06 1.16l-1.18-4.26c.86-.427 1.84-.787 2.94-1.08 1.11-.307 2.22-.46 3.34-.46 1.84 0 3.27.407 4.28 1.22 1.02.813 1.52 1.967 1.52 3.46 0 .8-.18 1.507-.54 2.12-.34.6-.77 1.107-1.28 1.52-.49.413-1.14.887-1.94 1.42-.89.587-1.55 1.093-1.98 1.52-.41.413-.62.893-.62 1.44h2.42v-1.14h4.1v4.42h-12.28zm26.47-6.22c.42.107.81.327 1.18.66.39.32.7.727.94 1.22.26.493.38 1.04.38 1.64 0 1.467-.52 2.62-1.58 3.46-1.04.827-2.58 1.24-4.64 1.24-.97 0-1.94-.107-2.92-.32-.97-.227-1.84-.5-2.6-.82v-4.26c.83.36 1.68.653 2.56.88.9.227 1.74.34 2.54.34.56 0 .97-.087 1.22-.26.27-.173.4-.46.4-.86 0-.773-.46-1.16-1.4-1.16h-1.44v-3.28h1.12c.88 0 1.32-.373 1.32-1.12 0-.72-.44-1.08-1.32-1.08-.64 0-1.3.153-2 .46-.69.293-1.36.68-2.02 1.16l-1.18-4.26c.82-.427 1.74-.787 2.78-1.08 1.04-.307 2.09-.46 3.14-.46 1.84 0 3.26.387 4.24 1.16.99.773 1.48 1.867 1.48 3.28 0 .88-.2 1.607-.62 2.18-.41.56-.94.987-1.58 1.28z" fill="#ff0068"/><path d="m1134.48 581.28c0-1.147.17-2.16.5-3.04.35-.88.91-1.707 1.68-2.48.78-.787 1.84-1.6 3.2-2.44.4-.253.68-.467.84-.64.18-.187.26-.407.26-.66 0-.547-.39-.82-1.18-.82-.58 0-1.26.153-2.02.46s-1.44.693-2.06 1.16l-1.18-4.26c.86-.427 1.84-.787 2.94-1.08 1.11-.307 2.22-.46 3.34-.46 1.84 0 3.27.407 4.28 1.22 1.02.813 1.52 1.967 1.52 3.46 0 .8-.18 1.507-.54 2.12-.34.6-.77 1.107-1.28 1.52-.49.413-1.14.887-1.94 1.42-.89.587-1.55 1.093-1.98 1.52-.41.413-.62.893-.62 1.44h2.42v-1.14h4.1v4.42h-12.28zm24.07 2c-2.25 0-3.99-.64-5.22-1.92-1.21-1.28-1.82-3.327-1.82-6.14s.61-4.86 1.82-6.14c1.23-1.28 2.97-1.92 5.22-1.92 2.26 0 3.99.64 5.2 1.92 1.23 1.28 1.84 3.327 1.84 6.14 0 2.6-.56 4.593-1.7 5.98-1.12 1.387-2.9 2.08-5.34 2.08zm0-3.56c.91 0 1.36-.493 1.36-1.48v-6.04c0-.987-.45-1.48-1.36-1.48-.9 0-1.36.493-1.36 1.48v6.04c0 .987.46 1.48 1.36 1.48zm11.57 1.56c0-1.147.17-2.16.5-3.04.35-.88.91-1.707 1.68-2.48.77-.787 1.84-1.6 3.2-2.44.4-.253.68-.467.84-.64.17-.187.26-.407.26-.66 0-.547-.39-.82-1.18-.82-.59 0-1.26.153-2.02.46s-1.45.693-2.06 1.16l-1.18-4.26c.85-.427 1.83-.787 2.94-1.08 1.11-.307 2.22-.46 3.34-.46 1.84 0 3.27.407 4.28 1.22s1.52 1.967 1.52 3.46c0 .8-.18 1.507-.54 2.12-.35.6-.77 1.107-1.28 1.52-.49.413-1.14.887-1.94 1.42-.89.587-1.55 1.093-1.98 1.52-.41.413-.62.893-.62 1.44h2.42v-1.14h4.1v4.42h-12.28zm23.61 1.72v-2.5h-6.5v-3.28l6.9-9.78h4.88v10.02h1.38v3.04h-1.38v2.5zm-2.8-5.54h2.8v-3.94z" fill="#ff0068"/><path d="m1234.41 581.28c0-1.147.17-2.16.5-3.04.35-.88.91-1.707 1.68-2.48.78-.787 1.84-1.6 3.2-2.44.4-.253.68-.467.84-.64.18-.187.26-.407.26-.66 0-.547-.39-.82-1.18-.82-.58 0-1.26.153-2.02.46s-1.44.693-2.06 1.16l-1.18-4.26c.86-.427 1.84-.787 2.94-1.08 1.11-.307 2.22-.46 3.34-.46 1.84 0 3.27.407 4.28 1.22 1.02.813 1.52 1.967 1.52 3.46 0 .8-.18 1.507-.54 2.12-.34.6-.77 1.107-1.28 1.52-.49.413-1.14.887-1.94 1.42-.89.587-1.55 1.093-1.98 1.52-.41.413-.62.893-.62 1.44h2.42v-1.14h4.1v4.42h-12.28zm24.07 2c-2.25 0-3.99-.64-5.22-1.92-1.21-1.28-1.82-3.327-1.82-6.14s.61-4.86 1.82-6.14c1.23-1.28 2.97-1.92 5.22-1.92 2.26 0 3.99.64 5.2 1.92 1.23 1.28 1.84 3.327 1.84 6.14 0 2.6-.56 4.593-1.7 5.98-1.12 1.387-2.9 2.08-5.34 2.08zm0-3.56c.91 0 1.36-.493 1.36-1.48v-6.04c0-.987-.45-1.48-1.36-1.48-.9 0-1.36.493-1.36 1.48v6.04c0 .987.46 1.48 1.36 1.48zm11.57 1.56c0-1.147.17-2.16.5-3.04.35-.88.91-1.707 1.68-2.48.77-.787 1.84-1.6 3.2-2.44.4-.253.68-.467.84-.64.17-.187.26-.407.26-.66 0-.547-.39-.82-1.18-.82-.59 0-1.26.153-2.02.46s-1.45.693-2.06 1.16l-1.18-4.26c.85-.427 1.83-.787 2.94-1.08 1.11-.307 2.22-.46 3.34-.46 1.84 0 3.27.407 4.28 1.22s1.52 1.967 1.52 3.46c0 .8-.18 1.507-.54 2.12-.35.6-.77 1.107-1.28 1.52-.49.413-1.14.887-1.94 1.42-.89.587-1.55 1.093-1.98 1.52-.41.413-.62.893-.62 1.44h2.42v-1.14h4.1v4.42h-12.28zm24.89-8.56c1.49 0 2.63.44 3.42 1.32s1.18 2.073 1.18 3.58c0 1.133-.26 2.127-.78 2.98-.51.853-1.27 1.513-2.28 1.98s-2.24.7-3.68.7c-.97 0-1.95-.107-2.92-.32-.97-.227-1.84-.5-2.6-.82v-4.26c1.73.813 3.31 1.22 4.72 1.22.73 0 1.28-.147 1.64-.44.36-.307.54-.78.54-1.42 0-.467-.11-.833-.32-1.1s-.55-.4-1.02-.4c-.36 0-.65.093-.88.28-.21.173-.39.427-.52.76h-4.2l.86-9.34h10.64v3.88h-6.64l-.18 2.06c.84-.44 1.85-.66 3.02-.66z" fill="#ff0068"/><rect fill="#fdfbf5" height="400" rx="4.5" width="9" x="97" y="142"/><circle cx="101" cy="142" fill="#fdfbf5" r="10"/><circle cx="101" cy="242" fill="#fdfbf5" r="10"/><circle cx="101" cy="342" fill="#fdfbf5" r="10"/><circle cx="101" cy="442" fill="#fdfbf5" r="10"/><circle cx="101" cy="542" fill="#fdfbf5" r="10"/><path d="m33.1758 148.383c0 1.039-.2422 1.922-.7266 2.648-.4765.719-1.125 1.266-1.9453 1.641-.8125.375-1.7305.562-2.7539.562s-1.9453-.187-2.7656-.562-1.4688-.922-1.9453-1.641c-.4766-.726-.7149-1.609-.7149-2.648 0-.68.1289-1.301.3867-1.863.2657-.571.6368-1.067 1.1133-1.489.4844-.422 1.0547-.746 1.711-.972.664-.235 1.3945-.352 2.1914-.352 1.0468 0 1.9804.203 2.8007.609.8204.399 1.4649.95 1.9336 1.653.4766.703.7149 1.508.7149 2.414zm-2.1797-.047c0-.633-.1367-1.191-.4102-1.676-.2734-.492-.6562-.875-1.1484-1.148-.4922-.274-1.0625-.41-1.7109-.41-.6641 0-1.2383.136-1.7227.41-.4766.273-.8477.656-1.1133 1.148-.2656.485-.3984 1.043-.3984 1.676 0 .656.1289 1.219.3867 1.687.2656.461.6406.817 1.125 1.067.4922.242 1.0742.363 1.7461.363s1.25-.121 1.7344-.363c.4844-.25.8554-.606 1.1133-1.067.2656-.468.3984-1.031.3984-1.687zm1.7812-7.957c0 .828-.2187 1.574-.6562 2.238s-1.0352 1.188-1.793 1.571c-.7578.382-1.6172.574-2.5781.574-.9766 0-1.8477-.192-2.6133-.574-.7578-.383-1.3515-.907-1.7812-1.571s-.6446-1.41-.6446-2.238c0-.992.2149-1.836.6446-2.531.4375-.696 1.0351-1.227 1.7929-1.594s1.6211-.551 2.5899-.551c.9765 0 1.8437.184 2.6015.551.7579.367 1.3516.898 1.7813 1.594.4375.695.6562 1.539.6562 2.531zm-2.1679.035c0-.57-.1211-1.074-.3633-1.512-.2422-.437-.5781-.781-1.0078-1.031-.4297-.258-.9297-.387-1.5-.387s-1.0703.121-1.5.364c-.4219.234-.7539.57-.9961 1.007-.2344.438-.3516.957-.3516 1.559 0 .586.1172 1.098.3516 1.535.2422.438.5781.778 1.0078 1.02s.9297.363 1.5.363 1.0664-.121 1.4883-.363c.4297-.242.7656-.582 1.0078-1.02.2422-.437.3633-.949.3633-1.535zm16.0195 2.695v2.602c0 1.398-.125 2.578-.375 3.539s-.6094 1.734-1.0781 2.32c-.4688.586-1.0352 1.012-1.6992 1.278-.6563.257-1.3985.386-2.2266.386-.6562 0-1.2617-.082-1.8164-.246s-1.0547-.426-1.5-.785c-.4375-.367-.8125-.844-1.125-1.43-.3125-.585-.5508-1.296-.7148-2.132-.1641-.836-.2461-1.813-.2461-2.93v-2.602c0-1.398.125-2.57.375-3.515.2578-.946.6211-1.703 1.0898-2.274.4687-.578 1.0313-.992 1.6875-1.242.6641-.25 1.4062-.375 2.2266-.375.664 0 1.2734.082 1.8281.246.5625.156 1.0625.41 1.5.762.4375.344.8086.805 1.1133 1.383.3125.57.5508 1.269.7148 2.097.1641.829.2461 1.801.2461 2.918zm-2.1797 2.953v-3.316c0-.766-.0469-1.437-.1406-2.016-.0859-.585-.2148-1.085-.3867-1.5-.1719-.414-.3907-.75-.6563-1.007-.2578-.258-.5586-.446-.9023-.563-.336-.125-.7149-.187-1.1367-.187-.5157 0-.9727.097-1.3711.293-.3985.187-.7344.488-1.0078.902-.2657.414-.4688.957-.6094 1.629s-.211 1.488-.211 2.449v3.316c0 .766.043 1.442.1289 2.028.0938.586.2305 1.094.4102 1.523.1797.422.3984.77.6563 1.043.2578.274.5546.477.8906.61.3437.125.7226.187 1.1367.187.5312 0 .9961-.101 1.3945-.305.3985-.203.7305-.519.9961-.949.2735-.437.4766-.996.6094-1.676.1328-.687.1992-1.507.1992-2.461zm15.6797-2.953v2.602c0 1.398-.125 2.578-.375 3.539s-.6094 1.734-1.0781 2.32c-.4688.586-1.0352 1.012-1.6992 1.278-.6563.257-1.3985.386-2.2266.386-.6562 0-1.2617-.082-1.8164-.246s-1.0547-.426-1.5-.785c-.4375-.367-.8125-.844-1.125-1.43-.3125-.585-.5508-1.296-.7148-2.132-.1641-.836-.2461-1.813-.2461-2.93v-2.602c0-1.398.125-2.57.375-3.515.2578-.946.6211-1.703 1.0898-2.274.4687-.578 1.0313-.992 1.6875-1.242.6641-.25 1.4062-.375 2.2266-.375.664 0 1.2734.082 1.8281.246.5625.156 1.0625.41 1.5.762.4375.344.8086.805 1.1133 1.383.3125.57.5508 1.269.7148 2.097.1641.829.2461 1.801.2461 2.918zm-2.1797 2.953v-3.316c0-.766-.0469-1.437-.1406-2.016-.0859-.585-.2148-1.085-.3867-1.5-.1719-.414-.3907-.75-.6563-1.007-.2578-.258-.5586-.446-.9023-.563-.336-.125-.7149-.187-1.1367-.187-.5157 0-.9727.097-1.3711.293-.3985.187-.7344.488-1.0078.902-.2657.414-.4688.957-.6094 1.629s-.211 1.488-.211 2.449v3.316c0 .766.043 1.442.1289 2.028.0938.586.2305 1.094.4102 1.523.1797.422.3984.77.6563 1.043.2578.274.5546.477.8906.61.3437.125.7226.187 1.1367.187.5312 0 .9961-.101 1.3945-.305.3985-.203.7305-.519.9961-.949.2735-.437.4766-.996.6094-1.676.1328-.687.1992-1.507.1992-2.461zm15.6797-2.953v2.602c0 1.398-.125 2.578-.375 3.539s-.6094 1.734-1.0781 2.32c-.4688.586-1.0352 1.012-1.6992 1.278-.6563.257-1.3985.386-2.2266.386-.6562 0-1.2617-.082-1.8164-.246s-1.0547-.426-1.5-.785c-.4375-.367-.8125-.844-1.125-1.43-.3125-.585-.5508-1.296-.7148-2.132-.1641-.836-.2461-1.813-.2461-2.93v-2.602c0-1.398.125-2.57.375-3.515.2578-.946.6211-1.703 1.0898-2.274.4687-.578 1.0313-.992 1.6875-1.242.6641-.25 1.4062-.375 2.2266-.375.664 0 1.2734.082 1.8281.246.5625.156 1.0625.41 1.5.762.4375.344.8086.805 1.1133 1.383.3125.57.5508 1.269.7148 2.097.1641.829.2461 1.801.2461 2.918zm-2.1797 2.953v-3.316c0-.766-.0469-1.437-.1406-2.016-.0859-.585-.2148-1.085-.3867-1.5-.1719-.414-.3907-.75-.6563-1.007-.2578-.258-.5586-.446-.9023-.563-.336-.125-.7149-.187-1.1367-.187-.5157 0-.9727.097-1.3711.293-.3985.187-.7344.488-1.0078.902-.2657.414-.4688.957-.6094 1.629s-.211 1.488-.211 2.449v3.316c0 .766.043 1.442.1289 2.028.0938.586.2305 1.094.4102 1.523.1797.422.3984.77.6563 1.043.2578.274.5546.477.8906.61.3437.125.7226.187 1.1367.187.5312 0 .9961-.101 1.3945-.305.3985-.203.7305-.519.9961-.949.2735-.437.4766-.996.6094-1.676.1328-.687.1992-1.507.1992-2.461z" fill="#fdfbf5"/><path d="m30.7383 235.914h.1875v1.84h-.1875c-1.1485 0-2.1094.187-2.8828.562-.7735.368-1.3867.864-1.8399 1.489-.4531.617-.7812 1.312-.9844 2.086-.1953.773-.2929 1.558-.2929 2.355v2.508c0 .758.0898 1.43.2695 2.016.1797.578.4258 1.066.7383 1.464.3125.399.6641.7 1.0547.903.3984.203.8125.304 1.2422.304.5 0 .9453-.093 1.3359-.281.3906-.195.7188-.465.9844-.808.2734-.352.4805-.766.6211-1.243.1406-.476.2109-1 .2109-1.57 0-.508-.0625-.996-.1875-1.465-.125-.476-.3164-.898-.5742-1.265-.2578-.375-.582-.668-.9727-.879-.3828-.219-.8398-.328-1.3711-.328-.6015 0-1.164.148-1.6875.445-.5156.289-.9414.672-1.2773 1.148-.3281.469-.5156.981-.5625 1.535l-1.1484-.011c.1093-.875.3125-1.621.6093-2.239.3047-.625.6797-1.132 1.125-1.523.4532-.398.9571-.687 1.5118-.867.5625-.188 1.1562-.281 1.7812-.281.8516 0 1.5859.16 2.2031.48s1.125.75 1.5235 1.289c.3984.531.6914 1.133.8789 1.805.1953.664.2929 1.347.2929 2.051 0 .804-.1132 1.558-.3398 2.261s-.5664 1.321-1.0195 1.852c-.4453.531-.9961.945-1.6524 1.242-.6562.297-1.4179.445-2.2851.445-.9219 0-1.7266-.187-2.4141-.562-.6875-.383-1.2578-.891-1.7109-1.524-.4532-.632-.793-1.336-1.0196-2.109-.2265-.773-.3398-1.559-.3398-2.355v-1.02c0-1.203.1211-2.383.3633-3.539s.6601-2.203 1.2539-3.141c.6015-.937 1.4336-1.683 2.4961-2.238s2.4179-.832 4.0664-.832zm15.8906 7.195v2.602c0 1.398-.125 2.578-.375 3.539s-.6094 1.734-1.0781 2.32c-.4688.586-1.0352 1.012-1.6992 1.278-.6563.257-1.3985.386-2.2266.386-.6562 0-1.2617-.082-1.8164-.246s-1.0547-.426-1.5-.785c-.4375-.367-.8125-.844-1.125-1.43-.3125-.585-.5508-1.296-.7148-2.132-.1641-.836-.2461-1.813-.2461-2.93v-2.602c0-1.398.125-2.57.375-3.515.2578-.946.6211-1.703 1.0898-2.274.4687-.578 1.0313-.992 1.6875-1.242.6641-.25 1.4062-.375 2.2266-.375.664 0 1.2734.082 1.8281.246.5625.156 1.0625.41 1.5.762.4375.344.8086.805 1.1133 1.383.3125.57.5508 1.269.7148 2.097.1641.829.2461 1.801.2461 2.918zm-2.1797 2.953v-3.316c0-.766-.0469-1.437-.1406-2.016-.0859-.585-.2148-1.085-.3867-1.5-.1719-.414-.3907-.75-.6563-1.007-.2578-.258-.5586-.446-.9023-.563-.336-.125-.7149-.187-1.1367-.187-.5157 0-.9727.097-1.3711.293-.3985.187-.7344.488-1.0078.902-.2657.414-.4688.957-.6094 1.629s-.211 1.488-.211 2.449v3.316c0 .766.043 1.442.1289 2.028.0938.586.2305 1.094.4102 1.523.1797.422.3984.77.6563 1.043.2578.274.5546.477.8906.61.3437.125.7226.187 1.1367.187.5312 0 .9961-.101 1.3945-.305.3985-.203.7305-.519.9961-.949.2735-.437.4766-.996.6094-1.676.1328-.687.1992-1.507.1992-2.461zm15.6797-2.953v2.602c0 1.398-.125 2.578-.375 3.539s-.6094 1.734-1.0781 2.32c-.4688.586-1.0352 1.012-1.6992 1.278-.6563.257-1.3985.386-2.2266.386-.6562 0-1.2617-.082-1.8164-.246s-1.0547-.426-1.5-.785c-.4375-.367-.8125-.844-1.125-1.43-.3125-.585-.5508-1.296-.7148-2.132-.1641-.836-.2461-1.813-.2461-2.93v-2.602c0-1.398.125-2.57.375-3.515.2578-.946.6211-1.703 1.0898-2.274.4687-.578 1.0313-.992 1.6875-1.242.6641-.25 1.4062-.375 2.2266-.375.664 0 1.2734.082 1.8281.246.5625.156 1.0625.41 1.5.762.4375.344.8086.805 1.1133 1.383.3125.57.5508 1.269.7148 2.097.1641.829.2461 1.801.2461 2.918zm-2.1797 2.953v-3.316c0-.766-.0469-1.437-.1406-2.016-.0859-.585-.2148-1.085-.3867-1.5-.1719-.414-.3907-.75-.6563-1.007-.2578-.258-.5586-.446-.9023-.563-.336-.125-.7149-.187-1.1367-.187-.5157 0-.9727.097-1.3711.293-.3985.187-.7344.488-1.0078.902-.2657.414-.4688.957-.6094 1.629s-.211 1.488-.211 2.449v3.316c0 .766.043 1.442.1289 2.028.0938.586.2305 1.094.4102 1.523.1797.422.3984.77.6563 1.043.2578.274.5546.477.8906.61.3437.125.7226.187 1.1367.187.5312 0 .9961-.101 1.3945-.305.3985-.203.7305-.519.9961-.949.2735-.437.4766-.996.6094-1.676.1328-.687.1992-1.507.1992-2.461zm15.6797-2.953v2.602c0 1.398-.125 2.578-.375 3.539s-.6094 1.734-1.0781 2.32c-.4688.586-1.0352 1.012-1.6992 1.278-.6563.257-1.3985.386-2.2266.386-.6562 0-1.2617-.082-1.8164-.246s-1.0547-.426-1.5-.785c-.4375-.367-.8125-.844-1.125-1.43-.3125-.585-.5508-1.296-.7148-2.132-.1641-.836-.2461-1.813-.2461-2.93v-2.602c0-1.398.125-2.57.375-3.515.2578-.946.6211-1.703 1.0898-2.274.4687-.578 1.0313-.992 1.6875-1.242.6641-.25 1.4062-.375 2.2266-.375.664 0 1.2734.082 1.8281.246.5625.156 1.0625.41 1.5.762.4375.344.8086.805 1.1133 1.383.3125.57.5508 1.269.7148 2.097.1641.829.2461 1.801.2461 2.918zm-2.1797 2.953v-3.316c0-.766-.0469-1.437-.1406-2.016-.0859-.585-.2148-1.085-.3867-1.5-.1719-.414-.3907-.75-.6563-1.007-.2578-.258-.5586-.446-.9023-.563-.336-.125-.7149-.187-1.1367-.187-.5157 0-.9727.097-1.3711.293-.3985.187-.7344.488-1.0078.902-.2657.414-.4688.957-.6094 1.629s-.211 1.488-.211 2.449v3.316c0 .766.043 1.442.1289 2.028.0938.586.2305 1.094.4102 1.523.1797.422.3984.77.6563 1.043.2578.274.5546.477.8906.61.3437.125.7226.187 1.1367.187.5312 0 .9961-.101 1.3945-.305.3985-.203.7305-.519.9961-.949.2735-.437.4766-.996.6094-1.676.1328-.687.1992-1.507.1992-2.461z" fill="#fdfbf5"/><path d="m33.9492 347.258v1.781h-12.3281v-1.277l7.6406-11.824h1.7695l-1.8984 3.421-5.0508 7.899zm-2.3789-11.32v17.062h-2.168v-17.062zm15.0586 7.171v2.602c0 1.398-.125 2.578-.375 3.539s-.6094 1.734-1.0781 2.32c-.4688.586-1.0352 1.012-1.6992 1.278-.6563.257-1.3985.386-2.2266.386-.6562 0-1.2617-.082-1.8164-.246s-1.0547-.426-1.5-.785c-.4375-.367-.8125-.844-1.125-1.43-.3125-.585-.5508-1.296-.7148-2.132-.1641-.836-.2461-1.813-.2461-2.93v-2.602c0-1.398.125-2.57.375-3.515.2578-.946.6211-1.703 1.0898-2.274.4687-.578 1.0313-.992 1.6875-1.242.6641-.25 1.4062-.375 2.2266-.375.664 0 1.2734.082 1.8281.246.5625.156 1.0625.41 1.5.762.4375.344.8086.805 1.1133 1.383.3125.57.5508 1.269.7148 2.097.1641.829.2461 1.801.2461 2.918zm-2.1797 2.953v-3.316c0-.766-.0469-1.437-.1406-2.016-.0859-.585-.2148-1.085-.3867-1.5-.1719-.414-.3907-.75-.6563-1.007-.2578-.258-.5586-.446-.9023-.563-.336-.125-.7149-.187-1.1367-.187-.5157 0-.9727.097-1.3711.293-.3985.187-.7344.488-1.0078.902-.2657.414-.4688.957-.6094 1.629s-.211 1.488-.211 2.449v3.316c0 .766.043 1.442.1289 2.028.0938.586.2305 1.094.4102 1.523.1797.422.3984.77.6563 1.043.2578.274.5546.477.8906.61.3437.125.7226.187 1.1367.187.5312 0 .9961-.101 1.3945-.305.3985-.203.7305-.519.9961-.949.2735-.437.4766-.996.6094-1.676.1328-.687.1992-1.507.1992-2.461zm15.6797-2.953v2.602c0 1.398-.125 2.578-.375 3.539s-.6094 1.734-1.0781 2.32c-.4688.586-1.0352 1.012-1.6992 1.278-.6563.257-1.3985.386-2.2266.386-.6562 0-1.2617-.082-1.8164-.246s-1.0547-.426-1.5-.785c-.4375-.367-.8125-.844-1.125-1.43-.3125-.585-.5508-1.296-.7148-2.132-.1641-.836-.2461-1.813-.2461-2.93v-2.602c0-1.398.125-2.57.375-3.515.2578-.946.6211-1.703 1.0898-2.274.4687-.578 1.0313-.992 1.6875-1.242.6641-.25 1.4062-.375 2.2266-.375.664 0 1.2734.082 1.8281.246.5625.156 1.0625.41 1.5.762.4375.344.8086.805 1.1133 1.383.3125.57.5508 1.269.7148 2.097.1641.829.2461 1.801.2461 2.918zm-2.1797 2.953v-3.316c0-.766-.0469-1.437-.1406-2.016-.0859-.585-.2148-1.085-.3867-1.5-.1719-.414-.3907-.75-.6563-1.007-.2578-.258-.5586-.446-.9023-.563-.336-.125-.7149-.187-1.1367-.187-.5157 0-.9727.097-1.3711.293-.3985.187-.7344.488-1.0078.902-.2657.414-.4688.957-.6094 1.629s-.211 1.488-.211 2.449v3.316c0 .766.043 1.442.1289 2.028.0938.586.2305 1.094.4102 1.523.1797.422.3984.77.6563 1.043.2578.274.5546.477.8906.61.3437.125.7226.187 1.1367.187.5312 0 .9961-.101 1.3945-.305.3985-.203.7305-.519.9961-.949.2735-.437.4766-.996.6094-1.676.1328-.687.1992-1.507.1992-2.461zm15.6797-2.953v2.602c0 1.398-.125 2.578-.375 3.539s-.6094 1.734-1.0781 2.32c-.4688.586-1.0352 1.012-1.6992 1.278-.6563.257-1.3985.386-2.2266.386-.6562 0-1.2617-.082-1.8164-.246s-1.0547-.426-1.5-.785c-.4375-.367-.8125-.844-1.125-1.43-.3125-.585-.5508-1.296-.7148-2.132-.1641-.836-.2461-1.813-.2461-2.93v-2.602c0-1.398.125-2.57.375-3.515.2578-.946.6211-1.703 1.0898-2.274.4687-.578 1.0313-.992 1.6875-1.242.6641-.25 1.4062-.375 2.2266-.375.664 0 1.2734.082 1.8281.246.5625.156 1.0625.41 1.5.762.4375.344.8086.805 1.1133 1.383.3125.57.5508 1.269.7148 2.097.1641.829.2461 1.801.2461 2.918zm-2.1797 2.953v-3.316c0-.766-.0469-1.437-.1406-2.016-.0859-.585-.2148-1.085-.3867-1.5-.1719-.414-.3907-.75-.6563-1.007-.2578-.258-.5586-.446-.9023-.563-.336-.125-.7149-.187-1.1367-.187-.5157 0-.9727.097-1.3711.293-.3985.187-.7344.488-1.0078.902-.2657.414-.4688.957-.6094 1.629s-.211 1.488-.211 2.449v3.316c0 .766.043 1.442.1289 2.028.0938.586.2305 1.094.4102 1.523.1797.422.3984.77.6563 1.043.2578.274.5546.477.8906.61.3437.125.7226.187 1.1367.187.5312 0 .9961-.101 1.3945-.305.3985-.203.7305-.519.9961-.949.2735-.437.4766-.996.6094-1.676.1328-.687.1992-1.507.1992-2.461z" fill="#fdfbf5"/><path d="m33.5977 451.219v1.781h-11.168v-1.559l5.5898-6.222c.6875-.766 1.2188-1.414 1.5938-1.946.3828-.539.6484-1.019.7969-1.441.1562-.43.2343-.867.2343-1.312 0-.563-.1172-1.071-.3515-1.524-.2266-.461-.5625-.828-1.0078-1.101-.4454-.274-.9844-.411-1.6172-.411-.7578 0-1.3907.149-1.8985.446-.5.289-.875.695-1.125 1.218-.25.524-.375 1.125-.375 1.805h-2.1679c0-.961.2109-1.84.6328-2.637.4218-.796 1.0468-1.429 1.875-1.898.8281-.477 1.8476-.715 3.0586-.715 1.0781 0 2 .192 2.7656.574.7656.375 1.3516.907 1.7578 1.594.4141.68.6211 1.477.6211 2.391 0 .5-.0859 1.008-.2578 1.523-.1641.508-.3945 1.016-.6914 1.524-.2891.507-.6289 1.007-1.0195 1.5-.3829.492-.793.976-1.2305 1.453l-4.5703 4.957zm13.0312-8.11v2.602c0 1.398-.125 2.578-.375 3.539s-.6094 1.734-1.0781 2.32c-.4688.586-1.0352 1.012-1.6992 1.278-.6563.257-1.3985.386-2.2266.386-.6562 0-1.2617-.082-1.8164-.246s-1.0547-.426-1.5-.785c-.4375-.367-.8125-.844-1.125-1.43-.3125-.585-.5508-1.296-.7148-2.132-.1641-.836-.2461-1.813-.2461-2.93v-2.602c0-1.398.125-2.57.375-3.515.2578-.946.6211-1.703 1.0898-2.274.4687-.578 1.0313-.992 1.6875-1.242.6641-.25 1.4062-.375 2.2266-.375.664 0 1.2734.082 1.8281.246.5625.156 1.0625.41 1.5.762.4375.344.8086.805 1.1133 1.383.3125.57.5508 1.269.7148 2.097.1641.829.2461 1.801.2461 2.918zm-2.1797 2.953v-3.316c0-.766-.0469-1.437-.1406-2.016-.0859-.585-.2148-1.085-.3867-1.5-.1719-.414-.3907-.75-.6563-1.007-.2578-.258-.5586-.446-.9023-.563-.336-.125-.7149-.187-1.1367-.187-.5157 0-.9727.097-1.3711.293-.3985.187-.7344.488-1.0078.902-.2657.414-.4688.957-.6094 1.629s-.211 1.488-.211 2.449v3.316c0 .766.043 1.442.1289 2.028.0938.586.2305 1.094.4102 1.523.1797.422.3984.77.6563 1.043.2578.274.5546.477.8906.61.3437.125.7226.187 1.1367.187.5312 0 .9961-.101 1.3945-.305.3985-.203.7305-.519.9961-.949.2735-.437.4766-.996.6094-1.676.1328-.687.1992-1.507.1992-2.461zm15.6797-2.953v2.602c0 1.398-.125 2.578-.375 3.539s-.6094 1.734-1.0781 2.32c-.4688.586-1.0352 1.012-1.6992 1.278-.6563.257-1.3985.386-2.2266.386-.6562 0-1.2617-.082-1.8164-.246s-1.0547-.426-1.5-.785c-.4375-.367-.8125-.844-1.125-1.43-.3125-.585-.5508-1.296-.7148-2.132-.1641-.836-.2461-1.813-.2461-2.93v-2.602c0-1.398.125-2.57.375-3.515.2578-.946.6211-1.703 1.0898-2.274.4687-.578 1.0313-.992 1.6875-1.242.6641-.25 1.4062-.375 2.2266-.375.664 0 1.2734.082 1.8281.246.5625.156 1.0625.41 1.5.762.4375.344.8086.805 1.1133 1.383.3125.57.5508 1.269.7148 2.097.1641.829.2461 1.801.2461 2.918zm-2.1797 2.953v-3.316c0-.766-.0469-1.437-.1406-2.016-.0859-.585-.2148-1.085-.3867-1.5-.1719-.414-.3907-.75-.6563-1.007-.2578-.258-.5586-.446-.9023-.563-.336-.125-.7149-.187-1.1367-.187-.5157 0-.9727.097-1.3711.293-.3985.187-.7344.488-1.0078.902-.2657.414-.4688.957-.6094 1.629s-.211 1.488-.211 2.449v3.316c0 .766.043 1.442.1289 2.028.0938.586.2305 1.094.4102 1.523.1797.422.3984.77.6563 1.043.2578.274.5546.477.8906.61.3437.125.7226.187 1.1367.187.5312 0 .9961-.101 1.3945-.305.3985-.203.7305-.519.9961-.949.2735-.437.4766-.996.6094-1.676.1328-.687.1992-1.507.1992-2.461zm15.6797-2.953v2.602c0 1.398-.125 2.578-.375 3.539s-.6094 1.734-1.0781 2.32c-.4688.586-1.0352 1.012-1.6992 1.278-.6563.257-1.3985.386-2.2266.386-.6562 0-1.2617-.082-1.8164-.246s-1.0547-.426-1.5-.785c-.4375-.367-.8125-.844-1.125-1.43-.3125-.585-.5508-1.296-.7148-2.132-.1641-.836-.2461-1.813-.2461-2.93v-2.602c0-1.398.125-2.57.375-3.515.2578-.946.6211-1.703 1.0898-2.274.4687-.578 1.0313-.992 1.6875-1.242.6641-.25 1.4062-.375 2.2266-.375.664 0 1.2734.082 1.8281.246.5625.156 1.0625.41 1.5.762.4375.344.8086.805 1.1133 1.383.3125.57.5508 1.269.7148 2.097.1641.829.2461 1.801.2461 2.918zm-2.1797 2.953v-3.316c0-.766-.0469-1.437-.1406-2.016-.0859-.585-.2148-1.085-.3867-1.5-.1719-.414-.3907-.75-.6563-1.007-.2578-.258-.5586-.446-.9023-.563-.336-.125-.7149-.187-1.1367-.187-.5157 0-.9727.097-1.3711.293-.3985.187-.7344.488-1.0078.902-.2657.414-.4688.957-.6094 1.629s-.211 1.488-.211 2.449v3.316c0 .766.043 1.442.1289 2.028.0938.586.2305 1.094.4102 1.523.1797.422.3984.77.6563 1.043.2578.274.5546.477.8906.61.3437.125.7226.187 1.1367.187.5312 0 .9961-.101 1.3945-.305.3985-.203.7305-.519.9961-.949.2735-.437.4766-.996.6094-1.676.1328-.687.1992-1.507.1992-2.461z" fill="#fdfbf5"/><path d="m73.6289 543.109v2.602c0 1.398-.125 2.578-.375 3.539s-.6094 1.734-1.0781 2.32c-.4688.586-1.0352 1.012-1.6992 1.278-.6563.257-1.3985.386-2.2266.386-.6562 0-1.2617-.082-1.8164-.246s-1.0547-.426-1.5-.785c-.4375-.367-.8125-.844-1.125-1.43-.3125-.585-.5508-1.296-.7148-2.132-.1641-.836-.2461-1.813-.2461-2.93v-2.602c0-1.398.125-2.57.375-3.515.2578-.946.6211-1.703 1.0898-2.274.4687-.578 1.0313-.992 1.6875-1.242.6641-.25 1.4062-.375 2.2266-.375.664 0 1.2734.082 1.8281.246.5625.156 1.0625.41 1.5.762.4375.344.8086.805 1.1133 1.383.3125.57.5508 1.269.7148 2.097.1641.829.2461 1.801.2461 2.918zm-2.1797 2.953v-3.316c0-.766-.0469-1.437-.1406-2.016-.0859-.585-.2148-1.085-.3867-1.5-.1719-.414-.3907-.75-.6563-1.007-.2578-.258-.5586-.446-.9023-.563-.336-.125-.7149-.187-1.1367-.187-.5157 0-.9727.097-1.3711.293-.3985.187-.7344.488-1.0078.902-.2657.414-.4688.957-.6094 1.629s-.211 1.488-.211 2.449v3.316c0 .766.043 1.442.1289 2.028.0938.586.2305 1.094.4102 1.523.1797.422.3984.77.6563 1.043.2578.274.5546.477.8906.61.3437.125.7226.187 1.1367.187.5312 0 .9961-.101 1.3945-.305.3985-.203.7305-.519.9961-.949.2735-.437.4766-.996.6094-1.676.1328-.687.1992-1.507.1992-2.461z" fill="#fdfbf5"/><path d="m640.132 107.992c2.848 0 4.968.768 6.36 2.304 1.392 1.52 2.088 3.856 2.088 7.008 0 3.456-.816 5.992-2.448 7.608-1.616 1.616-3.848 2.424-6.696 2.424-1.168 0-2.256-.104-3.264-.312-1.008-.192-1.816-.448-2.424-.768v-4.848c.608.272 1.304.496 2.088.672.784.16 1.616.24 2.496.24 2.288 0 3.432-.848 3.432-2.544v-.264c-1.024.4-2.128.6-3.312.6-1.856 0-3.304-.496-4.344-1.488-1.024-1.008-1.536-2.408-1.536-4.2 0-2.128.656-3.728 1.968-4.8 1.312-1.088 3.176-1.632 5.592-1.632zm-1.632 6.336c0 .64.136 1.136.408 1.488.288.352.72.528 1.296.528.544 0 1.064-.104 1.56-.312v-1.92c0-.64-.136-1.104-.408-1.392-.272-.304-.68-.456-1.224-.456s-.952.168-1.224.504-.408.856-.408 1.56zm11.433 16.536 1.248-3.864h-1.224v-3.936h3.744v3.936l-1.704 3.864zm5.21-5.928c0-1.376.2-2.592.6-3.648.416-1.056 1.088-2.048 2.016-2.976.928-.944 2.208-1.92 3.84-2.928.48-.304.816-.56 1.008-.768.208-.224.312-.488.312-.792 0-.656-.472-.984-1.416-.984-.704 0-1.512.184-2.424.552s-1.736.832-2.472 1.392l-1.416-5.112c1.024-.512 2.2-.944 3.528-1.296 1.328-.368 2.664-.552 4.008-.552 2.208 0 3.92.488 5.136 1.464s1.824 2.36 1.824 4.152c0 .96-.216 1.808-.648 2.544-.416.72-.928 1.328-1.536 1.824-.592.496-1.368 1.064-2.328 1.704-1.072.704-1.864 1.312-2.376 1.824-.496.496-.744 1.072-.744 1.728h2.904v-1.368h4.92v5.304h-14.736zm15.586 0c0-1.376.2-2.592.6-3.648.416-1.056 1.088-2.048 2.016-2.976.928-.944 2.208-1.92 3.84-2.928.48-.304.816-.56 1.008-.768.208-.224.312-.488.312-.792 0-.656-.472-.984-1.416-.984-.704 0-1.512.184-2.424.552s-1.736.832-2.472 1.392l-1.416-5.112c1.024-.512 2.2-.944 3.528-1.296 1.328-.368 2.664-.552 4.008-.552 2.208 0 3.92.488 5.136 1.464s1.824 2.36 1.824 4.152c0 .96-.216 1.808-.648 2.544-.416.72-.928 1.328-1.536 1.824-.592.496-1.368 1.064-2.328 1.704-1.072.704-1.864 1.312-2.376 1.824-.496.496-.744 1.072-.744 1.728h2.904v-1.368h4.92v5.304h-14.736zm26.074-9.72c1.776 0 3.16.512 4.152 1.536 1.008 1.024 1.512 2.448 1.512 4.272 0 2.032-.672 3.592-2.016 4.68-1.328 1.088-3.208 1.632-5.64 1.632-2.816 0-4.912-.76-6.288-2.28-1.376-1.536-2.064-3.88-2.064-7.032 0-3.456.808-5.992 2.424-7.608 1.632-1.616 3.872-2.424 6.72-2.424 1.168 0 2.256.104 3.264.312 1.008.192 1.816.448 2.424.768v4.848c-.608-.272-1.304-.488-2.088-.648-.784-.176-1.616-.264-2.496-.264-2.288 0-3.432.848-3.432 2.544v.288c.496-.176 1.056-.32 1.68-.432.624-.128 1.24-.192 1.848-.192zm-1.896 7.848c.544 0 .952-.16 1.224-.48.272-.336.408-.856.408-1.56 0-.64-.144-1.136-.432-1.488-.272-.368-.696-.552-1.272-.552-.544 0-1.064.104-1.56.312v1.92c0 .64.136 1.112.408 1.416.272.288.68.432 1.224.432z" fill="#1e1d3d"/><path d="m534.244 212c0-1.424.296-3 .888-4.728.608-1.728 1.368-3.4 2.28-5.016.912-1.632 1.832-3.056 2.76-4.272h-3.576v2.208h-5.04v-6.864h15.072v3.648c-.88 1.312-1.752 2.848-2.616 4.608-.848 1.744-1.56 3.544-2.136 5.4-.56 1.84-.84 3.512-.84 5.016zm13.595 3.864 1.248-3.864h-1.224v-3.936h3.744v3.936l-1.704 3.864zm15.699-15.648c1.776 0 3.16.512 4.152 1.536 1.008 1.024 1.512 2.448 1.512 4.272 0 2.032-.672 3.592-2.016 4.68-1.328 1.088-3.208 1.632-5.64 1.632-2.816 0-4.912-.76-6.288-2.28-1.376-1.536-2.064-3.88-2.064-7.032 0-3.456.808-5.992 2.424-7.608 1.632-1.616 3.872-2.424 6.72-2.424 1.168 0 2.256.104 3.264.312 1.008.192 1.816.448 2.424.768v4.848c-.608-.272-1.304-.488-2.088-.648-.784-.176-1.616-.264-2.496-.264-2.288 0-3.432.848-3.432 2.544v.288c.496-.176 1.056-.32 1.68-.432.624-.128 1.24-.192 1.848-.192zm-1.896 7.848c.544 0 .952-.16 1.224-.48.272-.336.408-.856.408-1.56 0-.64-.144-1.136-.432-1.488-.272-.368-.696-.552-1.272-.552-.544 0-1.064.104-1.56.312v1.92c0 .64.136 1.112.408 1.416.272.288.68.432 1.224.432zm15.56-15.072c2.848 0 4.968.768 6.36 2.304 1.392 1.52 2.088 3.856 2.088 7.008 0 3.456-.816 5.992-2.448 7.608-1.616 1.616-3.848 2.424-6.696 2.424-1.168 0-2.256-.104-3.264-.312-1.008-.192-1.816-.448-2.424-.768v-4.848c.608.272 1.304.496 2.088.672.784.16 1.616.24 2.496.24 2.288 0 3.432-.848 3.432-2.544v-.264c-1.024.4-2.128.6-3.312.6-1.856 0-3.304-.496-4.344-1.488-1.024-1.008-1.536-2.408-1.536-4.2 0-2.128.656-3.728 1.968-4.8 1.312-1.088 3.176-1.632 5.592-1.632zm-1.632 6.336c0 .64.136 1.136.408 1.488.288.352.72.528 1.296.528.544 0 1.064-.104 1.56-.312v-1.92c0-.64-.136-1.104-.408-1.392-.272-.304-.68-.456-1.224-.456s-.952.168-1.224.504-.408.856-.408 1.56zm21.249.888c1.776 0 3.16.512 4.152 1.536 1.008 1.024 1.512 2.448 1.512 4.272 0 2.032-.672 3.592-2.016 4.68-1.328 1.088-3.208 1.632-5.64 1.632-2.816 0-4.912-.76-6.288-2.28-1.376-1.536-2.064-3.88-2.064-7.032 0-3.456.808-5.992 2.424-7.608 1.632-1.616 3.872-2.424 6.72-2.424 1.168 0 2.256.104 3.264.312 1.008.192 1.816.448 2.424.768v4.848c-.608-.272-1.304-.488-2.088-.648-.784-.176-1.616-.264-2.496-.264-2.288 0-3.432.848-3.432 2.544v.288c.496-.176 1.056-.32 1.68-.432.624-.128 1.24-.192 1.848-.192zm-1.896 7.848c.544 0 .952-.16 1.224-.48.272-.336.408-.856.408-1.56 0-.64-.144-1.136-.432-1.488-.272-.368-.696-.552-1.272-.552-.544 0-1.064.104-1.56.312v1.92c0 .64.136 1.112.408 1.416.272.288.68.432 1.224.432z" fill="#1e1d3d"/></svg>