<svg fill="none" height="713" viewBox="0 0 1185 713" width="1185" xmlns="http://www.w3.org/2000/svg"><path d="m0 0h311.589v311.595h-311.589z" fill="#ea346c" fill-opacity=".8" transform="matrix(.703143 .711049 -.712125 .702053 731.261 63.3086)"/><ellipse cx="945.929" cy="258.424" fill="#66aef8" fill-opacity=".9" rx="181.901" ry="181.623"/><path d="m854.46 284.369 157.53 90.812v181.623l-157.53 90.811-157.531-90.811v-181.623z" fill="#92fff8" fill-opacity=".9"/><g stroke="#171619" stroke-dasharray="10 10" stroke-width="5"><path d="m841.182 230.791 8.852-5.103 1.248 2.166 3.178-1.832 3.177 1.832 1.249-2.166 8.851 5.103-1.248 2.166 8.851 5.102 1.249-2.165 8.852 5.102-1.249 2.166 8.852 5.103 1.249-2.166 8.851 5.103-1.248 2.166 8.851 5.102 1.249-2.165 8.852 5.102-1.249 2.166 8.852 5.103 1.248-2.166 8.852 5.103-1.248 2.166 8.851 5.102 1.249-2.165 8.852 5.102-1.249 2.166 8.852 5.103 1.249-2.166 8.851 5.103-1.248 2.166 8.851 5.102 1.249-2.166 8.852 5.103-1.249 2.166 8.852 5.103 1.245-2.166 8.86 5.103-1.25 2.166 8.85 5.102 1.25-2.166 8.85 5.103-1.25 2.166 8.85 5.103 1.25-2.166 8.85 5.103-1.25 2.166 8.86 5.102 1.24-2.166 8.86 5.103-1.25 2.166 3.17 1.83v3.658h2.5v10.206h-2.5v10.205h2.5v10.206h-2.5v10.205h2.5v10.206h-2.5v10.205h2.5v10.206h-2.5v10.205h2.5v10.206h-2.5v10.205h2.5v10.206h-2.5v10.205h2.5v10.206h-2.5v10.205h2.5v10.205h-2.5v10.206h2.5v10.205h-2.5v10.206h2.5v10.205h-2.5v10.206h2.5v10.205h-2.5v10.206h2.5v10.205h-2.5v3.659l-3.17 1.83 1.25 2.165-8.86 5.103-1.24-2.166-8.86 5.103 1.25 2.166-8.85 5.103-1.25-2.166-8.85 5.103 1.25 2.165-8.85 5.103-1.25-2.166-8.85 5.103 1.25 2.166-8.86 5.103-1.245-2.166-8.852 5.102 1.249 2.166-8.852 5.103-1.249-2.166-8.851 5.103 1.248 2.166-8.851 5.103-1.249-2.166-8.852 5.102 1.249 2.166-8.852 5.103-1.249-2.166-8.851 5.103 1.248 2.166-8.852 5.103-1.248-2.166-8.852 5.102 1.249 2.166-8.852 5.103-1.249-2.166-8.851 5.103 1.248 2.166-8.852 5.103-1.248-2.166-8.852 5.102 1.249 2.166-8.852 5.103-1.249-2.166-8.851 5.103 1.248 2.166-8.852 5.103-1.248-2.166-3.177 1.831-3.178-1.831-1.248 2.166-8.852-5.103 1.249-2.166-8.852-5.103-1.249 2.166-8.851-5.103 1.248-2.166-8.852-5.102-1.248 2.166-8.852-5.103 1.249-2.166-8.852-5.103-1.249 2.166-8.852-5.103 1.249-2.166-8.852-5.102-1.248 2.166-8.852-5.103 1.249-2.166-8.852-5.103-1.249 2.166-8.852-5.103 1.249-2.166-8.852-5.102-1.248 2.166-8.852-5.103 1.248-2.166-8.851-5.103-1.249 2.166-8.852-5.103 1.249-2.166-8.852-5.102-1.248 2.166-8.852-5.103 1.248-2.166-8.851-5.103-1.249 2.166-8.852-5.103 1.249-2.165-8.852-5.103-1.248 2.166-8.852-5.103 1.248-2.166-8.851-5.103-1.249 2.166-8.852-5.103 1.249-2.165-3.174-1.83v-3.659h-2.5v-10.205h2.5v-10.206h-2.5v-10.205h2.5v-10.206h-2.5v-10.205h2.5v-10.206h-2.5v-10.205h2.5v-10.206h-2.5v-10.205h2.5v-10.205h-2.5v-10.206h2.5v-10.205h-2.5v-10.206h2.5v-10.205h-2.5v-10.206h2.5v-10.205h-2.5v-10.206h2.5v-10.205h-2.5v-10.206h2.5v-10.205h-2.5v-10.206h2.5v-10.205h-2.5v-10.206h2.5v-3.658l3.174-1.83-1.249-2.166 8.852-5.103 1.249 2.166 8.851-5.102-1.248-2.166 8.852-5.103 1.248 2.166 8.852-5.103-1.249-2.166 8.852-5.103 1.249 2.166 8.851-5.102-1.248-2.166 8.852-5.103 1.248 2.166 8.852-5.103-1.249-2.166 8.852-5.103 1.249 2.166 8.851-5.102-1.248-2.166 8.852-5.103 1.248 2.166 8.852-5.103-1.249-2.166 8.852-5.102 1.249 2.165 8.852-5.102-1.249-2.166 8.852-5.103 1.248 2.166 8.852-5.103-1.249-2.166 8.852-5.102 1.249 2.165 8.852-5.102-1.249-2.166 8.852-5.103 1.248 2.166 8.852-5.103-1.249-2.166 8.852-5.102 1.249 2.165 8.852-5.102z"/><path d="m-.022456 3.53275h394.648v394.656h-394.648z" transform="matrix(.703142 .711049 -.712125 .702053 734.114 1.06854)"/><path d="m1184.55 243.25c.2 3.235.33 6.486.4 9.754l-2.5.051c.03 1.613.05 3.229.05 4.85 0 1.62-.02 3.237-.05 4.849l2.5.051c-.07 3.268-.2 6.52-.4 9.754l-2.49-.153c-.2 3.226-.46 6.435-.79 9.624l2.48.256c-.33 3.253-.73 6.487-1.2 9.7l-2.47-.358c-.46 3.2-.99 6.38-1.58 9.537l2.45.46c-.6 3.211-1.27 6.398-2 9.562l-2.43-.563c-.73 3.147-1.52 6.269-2.37 9.366l2.41.664c-.87 3.146-1.8 6.266-2.79 9.358l-2.38-.764c-.99 3.073-2.03 6.119-3.14 9.135l2.34.862c-1.12 3.063-2.31 6.097-3.56 9.099l-2.31-.96c-1.24 2.981-2.53 5.93-3.89 8.846l2.27 1.055c-1.38 2.957-2.82 5.88-4.31 8.769l-2.22-1.149c-1.48 2.866-3.02 5.696-4.62 8.491l2.18 1.239c-1.62 2.831-3.29 5.625-5.02 8.381l-2.12-1.328c-1.71 2.731-3.48 5.425-5.3 8.079l2.06 1.415c-1.84 2.686-3.74 5.333-5.69 7.938l-2-1.498c-1.93 2.58-3.92 5.12-5.95 7.617l1.94 1.579c-2.06 2.525-4.17 5.007-6.33 7.444l-1.87-1.658c-2.14 2.412-4.32 4.78-6.55 7.102l1.8 1.733c-2.26 2.346-4.57 4.646-6.92 6.898l-1.73-1.805c-2.32 2.228-4.7 4.408-7.11 6.539l1.65 1.876c-2.44 2.152-4.93 4.256-7.46 6.308l-1.57-1.942c-2.5 2.029-5.05 4.008-7.63 5.934l1.49 2.005c-2.61 1.944-5.26 3.835-7.95 5.673l-1.41-2.064c-2.66 1.815-5.36 3.577-8.09 5.284l1.32 2.121c-2.76 1.722-5.55 3.389-8.39 4.999l-1.23-2.174c-2.8 1.589-5.63 3.123-8.5 4.599l1.14 2.223c-2.89 1.488-5.82 2.918-8.77 4.288l-1.06-2.268c-2.91 1.352-5.87 2.646-8.85 3.88l.96 2.31c-3.01 1.243-6.04 2.426-9.11 3.547l-.86-2.348c-3.01 1.104-6.06 2.148-9.14 3.13l.77 2.381c-3.1.988-6.22 1.914-9.37 2.777l-.66-2.411c-3.09.849-6.22 1.637-9.37 2.36l.56 2.437c-3.16.727-6.348 1.391-9.559 1.991l-.458-2.458c-3.158.59-6.338 1.116-9.539 1.577l.357 2.474c-3.214.464-6.448.862-9.702 1.195l-.254-2.487c-3.19.326-6.398.588-9.625.785l.153 2.496c-3.235.197-6.486.33-9.754.396l-.051-2.499c-1.613.032-3.229.049-4.85.049-1.62 0-3.237-.017-4.85-.049l-.05 2.499c-3.268-.066-6.52-.199-9.754-.396l.152-2.496c-3.226-.197-6.435-.459-9.625-.785l-.254 2.487c-3.254-.333-6.488-.731-9.701-1.195l.356-2.474c-3.201-.461-6.381-.987-9.538-1.577l-.459 2.458c-3.211-.6-6.399-1.264-9.563-1.991l.56-2.437c-3.147-.723-6.271-1.511-9.369-2.36l-.661 2.411c-3.147-.863-6.268-1.789-9.361-2.777l.76-2.381c-3.074-.982-6.121-2.026-9.139-3.13l-.859 2.348c-3.065-1.121-6.1-2.304-9.104-3.547l.955-2.31c-2.982-1.234-5.933-2.528-8.852-3.88l-1.051 2.268c-2.959-1.37-5.885-2.8-8.776-4.288l1.143-2.223c-2.868-1.476-5.701-3.01-8.499-4.599l-1.235 2.174c-2.834-1.61-5.631-3.277-8.39-4.999l1.323-2.121c-2.735-1.707-5.433-3.469-8.091-5.284l-1.41 2.064c-2.69-1.838-5.341-3.729-7.95-5.673l1.494-2.005c-2.586-1.926-5.13-3.905-7.631-5.934l-1.575 1.942c-2.53-2.052-5.016-4.156-7.458-6.308l1.654-1.876c-2.417-2.131-4.79-4.311-7.117-6.539l-1.729 1.805c-2.352-2.252-4.657-4.552-6.915-6.898l1.802-1.733c-2.233-2.322-4.419-4.69-6.556-7.102l-1.871 1.658c-2.159-2.437-4.267-4.919-6.325-7.444l1.938-1.579c-2.035-2.497-4.019-5.037-5.951-7.617l-2.001 1.498c-1.95-2.605-3.847-5.252-5.691-7.938l2.062-1.415c-1.821-2.654-3.589-5.348-5.302-8.079l-2.118 1.328c-1.728-2.756-3.4-5.55-5.016-8.381l2.172-1.239c-1.595-2.795-3.134-5.625-4.615-8.491l-2.221 1.149c-1.494-2.889-2.929-5.812-4.305-8.769l2.267-1.055c-1.357-2.916-2.656-5.865-3.895-8.846l-2.308.96c-1.248-3.002-2.436-6.036-3.562-9.099l2.347-.862c-1.109-3.016-2.157-6.062-3.143-9.135l-2.38.764c-.992-3.092-1.922-6.212-2.789-9.358l2.411-.664c-.853-3.097-1.644-6.219-2.371-9.366l-2.436.563c-.73-3.164-1.397-6.351-1.999-9.562l2.457-.46c-.592-3.157-1.121-6.337-1.584-9.537l-2.474.358c-.465-3.213-.866-6.447-1.2-9.7l2.487-.256c-.328-3.189-.591-6.398-.789-9.624l-2.496.153c-.198-3.234-.331-6.486-.398-9.754l2.5-.051c-.033-1.612-.05-3.229-.05-4.849 0-1.621.017-3.237.05-4.85l-2.5-.051c.067-3.268.2-6.519.398-9.754l2.496.154c.198-3.227.461-6.435.789-9.625l-2.487-.255c.334-3.254.735-6.487 1.2-9.7l2.474.358c.463-3.201.992-6.38 1.584-9.537l-2.457-.461c.602-3.21 1.269-6.398 1.999-9.561l2.436.563c.727-3.147 1.518-6.27 2.371-9.367l-2.411-.663c.867-3.147 1.797-6.266 2.789-9.358l2.38.763c.986-3.073 2.034-6.118 3.143-9.134l-2.347-.863c1.126-3.063 2.314-6.096 3.562-9.098l2.308.959c1.239-2.98 2.538-5.929 3.895-8.846l-2.267-1.054c1.376-2.957 2.811-5.88 4.305-8.769l2.221 1.148c1.481-2.865 3.02-5.696 4.615-8.49l-2.172-1.239c1.616-2.831 3.288-5.625 5.016-8.381l2.118 1.328c1.713-2.732 3.481-5.425 5.302-8.08l-2.062-1.414c1.844-2.687 3.741-5.333 5.691-7.938l2.001 1.498c1.932-2.581 3.916-5.12 5.951-7.617l-1.938-1.579c2.058-2.525 4.166-5.007 6.325-7.444l1.871 1.658c2.137-2.412 4.323-4.7801 6.556-7.1019l-1.802-1.7331c2.258-2.3466 4.563-4.6468 6.915-6.8988l1.729 1.8057c2.327-2.228 4.7-4.4083 7.117-6.5396l-1.654-1.8752c2.442-2.1529 4.928-4.2561 7.458-6.3083l1.575 1.9415c2.501-2.0289 5.045-4.0073 7.631-5.9336l-1.494-2.0047c2.609-1.9442 5.26-3.8358 7.95-5.6735l1.41 2.0645c2.658-1.8153 5.356-3.5773 8.091-5.2844l-1.323-2.1209c2.759-1.722 5.556-3.3889 8.39-4.9989l1.235 2.1737c2.798-1.5894 5.631-3.1228 8.499-4.5987l-1.143-2.223c2.891-1.4878 5.817-2.9179 8.776-4.2886l1.051 2.2684c2.919-1.3521 5.87-2.6459 8.852-3.8799l-.955-2.3101c3.004-1.2429 6.039-2.4258 9.104-3.5471l.859 2.3478c3.018-1.104 6.065-2.1477 9.139-3.1296l-.76-2.3815c3.093-.9879 6.214-1.914 9.361-2.7767l.661 2.411c3.098-.8492 6.222-1.6365 9.369-2.3603l-.56-2.4364c3.164-.7275 6.352-1.3917 9.563-1.991l.459 2.4576c3.157-.5894 6.337-1.1155 9.538-1.5768l-.356-2.4744c3.213-.4632 6.447-.8618 9.701-1.1946l.254 2.4871c3.19-.3262 6.399-.5885 9.625-.7854l-.152-2.4954c3.234-.1974 6.486-.3299 9.754-.3963l.05 2.4995c1.613-.0327 3.23-.0492 4.85-.0492 1.621 0 3.237.0165 4.85.0492l.051-2.4995c3.268.0664 6.52.1989 9.754.3963l-.153 2.4954c3.227.1969 6.435.4592 9.625.7854l.254-2.4871c3.254.3328 6.488.7314 9.702 1.1946l-.357 2.4744c3.201.4613 6.381.9874 9.539 1.5768l.458-2.4576c3.211.5993 6.399 1.2635 9.559 1.991l-.56 2.4364c3.15.7238 6.28 1.5111 9.37 2.3603l.66-2.411c3.15.8627 6.27 1.7888 9.37 2.7767l-.77 2.3815c3.08.9819 6.13 2.0256 9.14 3.1296l.86-2.3478c3.07 1.1213 6.1 2.3042 9.11 3.5471l-.96 2.3101c2.98 1.234 5.94 2.5278 8.85 3.8799l1.06-2.2684c2.95 1.3707 5.88 2.8008 8.77 4.2886l-1.14 2.223c2.87 1.4759 5.7 3.0093 8.5 4.5987l1.23-2.1737c2.84 1.61 5.63 3.2769 8.39 4.9989l-1.32 2.1209c2.73 1.7071 5.43 3.4691 8.09 5.2844l1.41-2.0645c2.69 1.8377 5.34 3.7293 7.95 5.6735l-1.49 2.0047c2.58 1.9263 5.13 3.9047 7.63 5.9336l1.57-1.9415c2.53 2.0521 5.02 4.1554 7.46 6.3083l-1.65 1.8752c2.41 2.1313 4.79 4.3116 7.11 6.5396l1.73-1.8057c2.35 2.252 4.66 4.5522 6.92 6.8988l-1.8 1.7331c2.23 2.3218 4.41 4.6899 6.55 7.1019l1.87-1.658c2.16 2.437 4.27 4.919 6.33 7.444l-1.94 1.579c2.03 2.497 4.02 5.036 5.95 7.617l2-1.498c1.95 2.605 3.85 5.251 5.69 7.938l-2.06 1.414c1.82 2.655 3.59 5.348 5.3 8.08l2.12-1.328c1.73 2.756 3.4 5.55 5.02 8.381l-2.18 1.239c1.6 2.794 3.14 5.625 4.62 8.49l2.22-1.148c1.49 2.889 2.93 5.812 4.31 8.769l-2.27 1.054c1.36 2.917 2.65 5.866 3.89 8.846l2.31-.959c1.25 3.002 2.44 6.035 3.56 9.098l-2.34.863c1.11 3.016 2.15 6.061 3.14 9.134l2.38-.763c.99 3.092 1.92 6.211 2.79 9.358l-2.41.663c.85 3.097 1.64 6.22 2.37 9.367l2.43-.563c.73 3.163 1.4 6.351 2 9.561l-2.45.461c.59 3.157 1.12 6.336 1.58 9.537l2.47-.358c.47 3.213.87 6.446 1.2 9.7l-2.48.255c.33 3.19.59 6.398.79 9.625z"/></g><g fill="#171619"><path d="m40.576 175.792c-12.2027 0-21.7173-3.157-28.544-9.472-6.82667-6.4-10.24-15.701-10.24-27.904s3.41333-21.461 10.24-27.776c6.8267-6.4 16.2987-9.6 28.416-9.6 5.888 0 11.52.811 16.896 2.432s9.5573 3.456 12.544 5.504v25.344h-22.016v-2.304c0-2.816-.5973-4.864-1.792-6.144-1.1947-1.365-3.072-2.048-5.632-2.048-4.9493 0-7.424 2.731-7.424 8.192v11.008c0 6.656 3.7973 9.984 11.392 9.984 7.0827 0 15.3173-.768 24.704-2.304v20.096c-2.9013 1.28-6.9973 2.432-12.288 3.456-5.2053 1.024-10.624 1.536-16.256 1.536zm71.747 0c-12.117 0-21.5893-3.157-28.416-9.472-6.8267-6.4-10.24-15.701-10.24-27.904s3.4133-21.461 10.24-27.776c6.8267-6.4 16.299-9.6 28.416-9.6 12.288 0 21.803 3.243 28.544 9.728 6.741 6.4 10.112 15.616 10.112 27.648 0 12.203-3.413 21.504-10.24 27.904-6.827 6.315-16.299 9.472-28.416 9.472zm0-22.784c2.475 0 4.309-.64 5.504-1.92 1.28-1.365 1.92-3.456 1.92-6.272v-12.8c0-2.816-.64-4.864-1.92-6.144-1.195-1.365-3.029-2.048-5.504-2.048s-4.352.683-5.632 2.048c-1.195 1.28-1.792 3.328-1.792 6.144v12.8c0 2.816.597 4.907 1.792 6.272 1.28 1.28 3.157 1.92 5.632 1.92zm67.947 22.784c-8.704 0-15.275-3.243-19.712-9.728-4.352-6.485-6.528-15.701-6.528-27.648s2.176-21.163 6.528-27.648c4.437-6.485 11.008-9.728 19.712-9.728 4.352 0 8.192 1.067 11.52 3.2 3.413 2.133 6.187 4.565 8.32 7.296v-16.128h-7.552v-20.992h36.992v78.592h5.632v20.992h-35.072v-8.704c-2.133 2.731-4.907 5.163-8.32 7.296-3.328 2.133-7.168 3.2-11.52 3.2zm12.416-22.784c2.475 0 4.309-.64 5.504-1.92 1.28-1.365 1.92-3.456 1.92-6.272v-12.8c0-2.816-.64-4.864-1.92-6.144-1.195-1.365-3.029-2.048-5.504-2.048s-4.352.683-5.632 2.048c-1.195 1.28-1.792 3.328-1.792 6.144v12.8c0 2.816.597 4.907 1.792 6.272 1.28 1.28 3.157 1.92 5.632 1.92zm84.762 22.784c-12.117 0-21.589-3.157-28.416-9.472-6.827-6.4-10.24-15.701-10.24-27.904s3.413-21.461 10.24-27.776c6.827-6.4 16.299-9.6 28.416-9.6 12.032 0 20.693 3.157 25.984 9.472 5.376 6.229 8.064 13.995 8.064 23.296v9.216h-41.472v.768c0 3.157.939 5.504 2.816 7.04 1.877 1.451 4.992 2.176 9.344 2.176 5.205 0 10.155-.384 14.848-1.152s8.789-1.749 12.288-2.944v20.48c-2.987 1.621-7.381 3.115-13.184 4.48-5.717 1.28-11.947 1.92-18.688 1.92zm7.424-46.848v-1.536c0-2.901-.64-4.992-1.92-6.272-1.195-1.28-3.029-1.92-5.504-1.92s-4.352.683-5.632 2.048c-1.195 1.28-1.792 3.328-1.792 6.144v1.536zm85.344 46.848c-4.352 0-8.235-1.067-11.648-3.2-3.328-2.133-6.059-4.565-8.192-7.296v8.704h-35.072v-20.992h5.632v-57.6h-5.632v-20.992h35.072v37.12c2.133-2.731 4.864-5.163 8.192-7.296 3.413-2.133 7.296-3.2 11.648-3.2 8.704 0 15.232 3.243 19.584 9.728 4.437 6.485 6.656 15.701 6.656 27.648s-2.219 21.163-6.656 27.648c-4.352 6.485-10.88 9.728-19.584 9.728zm-12.416-22.784c2.475 0 4.309-.64 5.504-1.92 1.28-1.365 1.92-3.456 1.92-6.272v-12.8c0-2.816-.64-4.864-1.92-6.144-1.195-1.365-3.029-2.048-5.504-2.048s-4.352.683-5.632 2.048c-1.195 1.28-1.792 3.328-1.792 6.144v12.8c0 2.816.597 4.907 1.792 6.272 1.28 1.28 3.157 1.92 5.632 1.92zm116.878 0v20.992h-33.792v-8.704c-1.877 2.731-4.523 5.163-7.936 7.296-3.328 2.133-7.424 3.2-12.288 3.2-6.4 0-11.435-1.707-15.104-5.12s-5.504-8.235-5.504-14.464c0-16.128 13.696-24.405 41.088-24.832-.256-2.901-1.365-4.864-3.328-5.888-1.963-1.109-5.291-1.664-9.984-1.664-3.84 0-7.979.427-12.416 1.28-4.352.768-8.363 1.835-12.032 3.2v-23.552c4.523-1.109 9.429-2.005 14.72-2.688s10.453-1.024 15.488-1.024c12.715 0 21.803 2.304 27.264 6.912s8.192 11.733 8.192 21.376v23.68zm-33.792-8.96c-3.84 0-6.827.512-8.96 1.536-2.048 1.024-3.072 2.731-3.072 5.12 0 1.451.427 2.645 1.28 3.584.939.853 2.219 1.28 3.84 1.28 2.219 0 3.925-.939 5.12-2.816s1.792-4.523 1.792-7.936zm92.574-43.008c1.707 0 3.328.171 4.864.512s2.816.768 3.84 1.28v24.448c-3.499-1.451-7.253-2.176-11.264-2.176-5.376 0-9.515 1.408-12.416 4.224s-4.352 6.997-4.352 12.544v11.136h11.52v20.992h-46.592v-20.992h5.632v-29.184h-5.632v-20.992h35.072v9.344c2.389-3.584 5.12-6.315 8.192-8.192 3.072-1.963 6.784-2.944 11.136-2.944zm-466.65 226.96v-20.992h6.4v-57.6h-6.4v-20.992h48.64v20.992h-6.4v57.6h6.4v20.992zm182.774-20.992v20.992h-40.448v-20.992h5.376v-20.992c0-2.816-.597-4.864-1.792-6.144-1.195-1.365-2.987-2.048-5.376-2.048-5.12 0-7.68 2.731-7.68 8.192v20.992h5.376v20.992h-40.192v-20.992h5.376v-20.992c0-2.816-.597-4.864-1.792-6.144-1.195-1.365-2.987-2.048-5.376-2.048-5.12 0-7.68 2.731-7.68 8.192v20.992h5.376v20.992h-40.448v-20.992h5.632v-29.184h-5.632v-20.992h35.072v9.984c6.144-7.851 13.824-11.776 23.04-11.776 5.205 0 9.429 1.237 12.672 3.712 3.328 2.389 5.675 5.803 7.04 10.24 3.072-4.437 6.571-7.851 10.496-10.24 4.011-2.389 8.704-3.584 14.08-3.584 7.083 0 12.373 2.219 15.872 6.656 3.584 4.437 5.376 10.539 5.376 18.304v26.88zm3.583 28.416h5.632v-57.6h-5.632v-20.992h35.072v8.704c2.133-2.731 4.864-5.163 8.192-7.296 3.413-2.133 7.296-3.2 11.648-3.2 8.704 0 15.232 3.243 19.584 9.728 4.437 6.485 6.656 15.701 6.656 27.648s-2.219 21.163-6.656 27.648c-4.352 6.485-10.88 9.728-19.584 9.728-4.352 0-8.235-1.067-11.648-3.2-3.328-2.133-6.059-4.565-8.192-7.296v16.128h8.832v20.992h-43.904zm42.496-28.416c2.475 0 4.309-.64 5.504-1.92 1.28-1.365 1.92-3.456 1.92-6.272v-12.8c0-2.816-.64-4.864-1.92-6.144-1.195-1.365-3.029-2.048-5.504-2.048s-4.352.683-5.632 2.048c-1.195 1.28-1.792 3.328-1.792 6.144v12.8c0 2.816.597 4.907 1.792 6.272 1.28 1.28 3.157 1.92 5.632 1.92zm116.89 0v20.992h-33.792v-8.704c-1.877 2.731-4.523 5.163-7.936 7.296-3.328 2.133-7.424 3.2-12.288 3.2-6.4 0-11.435-1.707-15.104-5.12s-5.504-8.235-5.504-14.464c0-16.128 13.696-24.405 41.088-24.832-.256-2.901-1.365-4.864-3.328-5.888-1.963-1.109-5.291-1.664-9.984-1.664-3.84 0-7.979.427-12.416 1.28-4.352.768-8.363 1.835-12.032 3.2v-23.552c4.523-1.109 9.429-2.005 14.72-2.688s10.453-1.024 15.488-1.024c12.715 0 21.803 2.304 27.264 6.912s8.192 11.733 8.192 21.376v23.68zm-33.792-8.96c-3.84 0-6.827.512-8.96 1.536-2.048 1.024-3.072 2.731-3.072 5.12 0 1.451.427 2.645 1.28 3.584.939.853 2.219 1.28 3.84 1.28 2.219 0 3.925-.939 5.12-2.816s1.792-4.523 1.792-7.936zm76.19 31.744c-12.203 0-21.717-3.157-28.544-9.472-6.827-6.4-10.24-15.701-10.24-27.904s3.413-21.461 10.24-27.776c6.827-6.4 16.299-9.6 28.416-9.6 5.888 0 11.52.811 16.896 2.432s9.557 3.456 12.544 5.504v25.344h-22.016v-2.304c0-2.816-.597-4.864-1.792-6.144-1.195-1.365-3.072-2.048-5.632-2.048-4.949 0-7.424 2.731-7.424 8.192v11.008c0 6.656 3.797 9.984 11.392 9.984 7.083 0 15.317-.768 24.704-2.304v20.096c-2.901 1.28-6.997 2.432-12.288 3.456-5.205 1.024-10.624 1.536-16.256 1.536zm65.219 0c-9.045 0-15.872-2.176-20.48-6.528-4.523-4.437-6.784-11.861-6.784-22.272v-23.168h-5.632v-20.992c3.243 0 5.675-.811 7.296-2.432 1.621-1.707 2.432-4.011 2.432-6.912v-5.76h27.136v15.104h17.28v20.992h-17.28v20.992c0 2.816.597 4.907 1.792 6.272 1.28 1.28 3.157 1.92 5.632 1.92 3.243 0 6.784-.384 10.624-1.152v20.096c-2.389.939-5.632 1.792-9.728 2.56-4.011.853-8.107 1.28-12.288 1.28zm-442.36 131.216h6.4v-57.6h-6.4v-20.992h58.752c11.008 0 19.413 2.261 25.216 6.784s8.704 11.861 8.704 22.016c0 5.717-1.152 10.667-3.456 14.848s-5.589 7.083-9.856 8.704l.128 1.28c8.192 1.28 12.288 6.315 12.288 15.104v9.856h6.016v20.992h-40.576v-30.08c0-3.328-.512-5.845-1.536-7.552-.939-1.707-2.475-2.859-4.608-3.456-2.048-.597-4.992-.896-8.832-.896v20.992h8.448v20.992h-50.688zm49.152-36.608c2.475 0 4.309-.64 5.504-1.92 1.28-1.365 1.92-3.456 1.92-6.272v-4.608c0-2.816-.64-4.864-1.92-6.144-1.195-1.365-3.029-2.048-5.504-2.048h-6.912v20.992zm91.111 59.392c-12.117 0-21.589-3.157-28.416-9.472-6.827-6.4-10.24-15.701-10.24-27.904s3.413-21.461 10.24-27.776c6.827-6.4 16.299-9.6 28.416-9.6 12.032 0 20.693 3.157 25.984 9.472 5.376 6.229 8.064 13.995 8.064 23.296v9.216h-41.472v.768c0 3.157.939 5.504 2.816 7.04 1.877 1.451 4.992 2.176 9.344 2.176 5.205 0 10.155-.384 14.848-1.152s8.789-1.749 12.288-2.944v20.48c-2.987 1.621-7.381 3.115-13.184 4.48-5.717 1.28-11.947 1.92-18.688 1.92zm7.424-46.848v-1.536c0-2.901-.64-4.992-1.92-6.272-1.195-1.28-3.029-1.92-5.504-1.92s-4.352.683-5.632 2.048c-1.195 1.28-1.792 3.328-1.792 6.144v1.536zm29.92 52.48h5.632v-57.6h-5.632v-20.992h35.072v8.704c2.133-2.731 4.864-5.163 8.192-7.296 3.413-2.133 7.296-3.2 11.648-3.2 8.704 0 15.232 3.243 19.584 9.728 4.437 6.485 6.656 15.701 6.656 27.648s-2.219 21.163-6.656 27.648c-4.352 6.485-10.88 9.728-19.584 9.728-4.352 0-8.235-1.067-11.648-3.2-3.328-2.133-6.059-4.565-8.192-7.296v16.128h8.832v20.992h-43.904zm42.496-28.416c2.475 0 4.309-.64 5.504-1.92 1.28-1.365 1.92-3.456 1.92-6.272v-12.8c0-2.816-.64-4.864-1.92-6.144-1.195-1.365-3.029-2.048-5.504-2.048s-4.352.683-5.632 2.048c-1.195 1.28-1.792 3.328-1.792 6.144v12.8c0 2.816.597 4.907 1.792 6.272 1.28 1.28 3.157 1.92 5.632 1.92zm80.41 22.784c-12.117 0-21.589-3.157-28.416-9.472-6.827-6.4-10.24-15.701-10.24-27.904s3.413-21.461 10.24-27.776c6.827-6.4 16.299-9.6 28.416-9.6 12.288 0 21.803 3.243 28.544 9.728 6.741 6.4 10.112 15.616 10.112 27.648 0 12.203-3.413 21.504-10.24 27.904-6.827 6.315-16.299 9.472-28.416 9.472zm0-22.784c2.475 0 4.309-.64 5.504-1.92 1.28-1.365 1.92-3.456 1.92-6.272v-12.8c0-2.816-.64-4.864-1.92-6.144-1.195-1.365-3.029-2.048-5.504-2.048s-4.352.683-5.632 2.048c-1.195 1.28-1.792 3.328-1.792 6.144v12.8c0 2.816.597 4.907 1.792 6.272 1.28 1.28 3.157 1.92 5.632 1.92zm97.387-51.968c1.707 0 3.328.171 4.864.512s2.816.768 3.84 1.28v24.448c-3.499-1.451-7.253-2.176-11.264-2.176-5.376 0-9.515 1.408-12.416 4.224s-4.352 6.997-4.352 12.544v11.136h11.52v20.992h-46.592v-20.992h5.632v-29.184h-5.632v-20.992h35.072v9.344c2.389-3.584 5.12-6.315 8.192-8.192 3.072-1.963 6.784-2.944 11.136-2.944zm44.46 74.752c-9.045 0-15.872-2.176-20.48-6.528-4.523-4.437-6.784-11.861-6.784-22.272v-23.168h-5.632v-20.992c3.243 0 5.675-.811 7.296-2.432 1.621-1.707 2.432-4.011 2.432-6.912v-5.76h27.136v15.104h17.28v20.992h-17.28v20.992c0 2.816.597 4.907 1.792 6.272 1.28 1.28 3.157 1.92 5.632 1.92 3.243 0 6.784-.384 10.624-1.152v20.096c-2.389.939-5.632 1.792-9.728 2.56-4.011.853-8.107 1.28-12.288 1.28z"/><path d="m290.34 620.744c0-5.504.8-10.368 2.4-14.592 1.664-4.224 4.352-8.192 8.064-11.904 3.712-3.776 8.832-7.68 15.36-11.712 1.92-1.216 3.264-2.24 4.032-3.072.832-.896 1.248-1.952 1.248-3.168 0-2.624-1.888-3.936-5.664-3.936-2.816 0-6.048.736-9.696 2.208s-6.944 3.328-9.888 5.568l-5.664-20.448c4.096-2.048 8.8-3.776 14.112-5.184 5.312-1.472 10.656-2.208 16.032-2.208 8.832 0 15.68 1.952 20.544 5.856s7.296 9.44 7.296 16.608c0 3.84-.864 7.232-2.592 10.176-1.664 2.88-3.712 5.312-6.144 7.296-2.368 1.984-5.472 4.256-9.312 6.816-4.288 2.816-7.456 5.248-9.504 7.296-1.984 1.984-2.976 4.288-2.976 6.912h11.616v-5.472h19.68v21.216h-58.944zm96.327 9.6c-10.816 0-19.168-3.072-25.056-9.216-5.824-6.144-8.736-15.968-8.736-29.472s2.912-23.328 8.736-29.472c5.888-6.144 14.24-9.216 25.056-9.216s19.136 3.072 24.96 9.216c5.888 6.144 8.832 15.968 8.832 29.472 0 12.48-2.72 22.048-8.16 28.704-5.376 6.656-13.92 9.984-25.632 9.984zm0-17.088c4.352 0 6.528-2.368 6.528-7.104v-28.992c0-4.736-2.176-7.104-6.528-7.104s-6.528 2.368-6.528 7.104v28.992c0 4.736 2.176 7.104 6.528 7.104zm36.329 7.488c0-5.504.8-10.368 2.4-14.592 1.664-4.224 4.352-8.192 8.064-11.904 3.712-3.776 8.832-7.68 15.36-11.712 1.92-1.216 3.264-2.24 4.032-3.072.832-.896 1.248-1.952 1.248-3.168 0-2.624-1.888-3.936-5.664-3.936-2.816 0-6.048.736-9.696 2.208s-6.944 3.328-9.888 5.568l-5.664-20.448c4.096-2.048 8.8-3.776 14.112-5.184 5.312-1.472 10.656-2.208 16.032-2.208 8.832 0 15.68 1.952 20.544 5.856s7.296 9.44 7.296 16.608c0 3.84-.864 7.232-2.592 10.176-1.664 2.88-3.712 5.312-6.144 7.296-2.368 1.984-5.472 4.256-9.312 6.816-4.288 2.816-7.456 5.248-9.504 7.296-1.984 1.984-2.976 4.288-2.976 6.912h11.616v-5.472h19.68v21.216h-58.944zm107.848-29.856c1.984.512 3.872 1.568 5.664 3.168 1.856 1.536 3.36 3.488 4.512 5.856 1.216 2.368 1.824 4.992 1.824 7.872 0 7.04-2.528 12.576-7.584 16.608-4.992 3.968-12.416 5.952-22.272 5.952-4.672 0-9.344-.512-14.016-1.536-4.672-1.088-8.832-2.4-12.48-3.936v-20.448c3.968 1.728 8.064 3.136 12.288 4.224 4.288 1.088 8.352 1.632 12.192 1.632 2.688 0 4.64-.416 5.856-1.248 1.28-.832 1.92-2.208 1.92-4.128 0-3.712-2.24-5.568-6.72-5.568h-6.912v-15.744h5.376c4.224 0 6.336-1.792 6.336-5.376 0-3.456-2.112-5.184-6.336-5.184-3.072 0-6.272.736-9.6 2.208-3.328 1.408-6.56 3.264-9.696 5.568l-5.664-20.448c3.904-2.048 8.352-3.776 13.344-5.184 4.992-1.472 10.016-2.208 15.072-2.208 8.832 0 15.616 1.856 20.352 5.568s7.104 8.96 7.104 15.744c0 4.224-.992 7.712-2.977 10.464-1.983 2.688-4.511 4.736-7.583 6.144z"/></g></svg>