<svg fill="none" height="258" viewBox="0 0 258 258" width="258" xmlns="http://www.w3.org/2000/svg"><g stroke="#fff"><path d="m129 129v-128c16.635 0 33.11 3.24249 48.504 9.5461z" fill="#5347d3"/><path d="m129 129.001 48.504-118.4541c65.421 26.7882 96.738 101.5381 69.95 166.9581-16.862 41.179-53.901 70.647-97.816 77.821z" fill="#3d03b7"/><path d="m129 129 20.638 126.325c-69.7679 11.398-135.5655-35.92-146.96328-105.687-3.9253-24.028-.91685-48.676 8.67238-71.054z" fill="#a09cce"/><path d="m129 129.001-117.6528-50.4163c13.2298-30.8735 38.0649-55.3097 69.1486-68.0378z" fill="#443f7d"/><path d="m129 129-48.5042-118.4539c15.3943-6.30361 31.8692-9.5461 48.5042-9.5461z" fill="#11096b"/></g></svg>