<svg fill="none" height="258" viewBox="0 0 258 258" width="258" xmlns="http://www.w3.org/2000/svg"><g stroke="#fff"><path d="m128.986 129v-128c11.071 0 22.094 1.43616 32.795 4.27253z" fill="#a2539b"/><path d="m128.986 129.001 32.795-123.72756c68.333 18.11216 109.045 88.18966 90.933 156.52256-5.517 20.813-16.195 39.899-31.046 55.49z" fill="#e6bfce"/><path d="m128.986 129 92.682 88.285c-48.758 51.186-129.7797 53.155-180.9662 4.397-40.927718-38.987-51.4381-100.203-25.8581-150.6078z" fill="#ad1c3f"/><path d="m128.987 129-114.1432-57.9256c8.7927-17.326 21.4144-32.423 36.9082-44.1467z" fill="#b977ac"/><path d="m128.986 129.001-77.234-102.0731c2.2041-1.6678 4.4616-3.2637 6.7691-4.7853z" fill="#e496b6"/><path d="m128.986 129.001-70.465-106.858c13.8872-9.1577 29.4263-15.52059 45.748-18.73284z" fill="#cf9bbd"/><path d="m128.986 129-24.717-125.59117c2.712-.53374 5.441-.97949 8.181-1.33656z" fill="#d770a1"/><path d="m128.987 128.999-16.537-126.92723c2.741-.35708 5.493-.62528 8.251-.80419z" fill="#8b2f8a"/><path d="m128.987 129-8.286-127.73156c2.758-.17891 5.522-.26844 8.286-.26844z" fill="#e6bfce"/></g></svg>