<svg fill="none" height="258" viewBox="0 0 258 258" width="258" xmlns="http://www.w3.org/2000/svg"><g stroke="#fff"><path d="m129 129v-128c70.693 0 128 57.3075 128 128 0 70.692-57.307 128-128 128-15.241 0-30.3592-2.722-44.6431-8.038z" fill="#ea346c"/><path d="m129 129-44.6431 119.962c-45.1805-16.813-77.08242-57.585-82.53537-105.483z" fill="#fec2d4"/><path d="m129 129-127.17841 14.479c-2.83365-24.891 1.69883-50.0656 13.03571-72.4048z" fill="#ff7aa3"/><path d="m129 129.001-114.1426-57.9264c10.0621-19.8274 25.1155-36.6917 43.6774-48.932z" fill="#c53b65"/><path d="m129 129-70.4653-106.8582c2.3074-1.5216 4.6635-2.9681 7.0646-4.3371z" fill="#c53b65"/><path d="m129 129.001-63.4006-111.1952c9.617-5.4834 19.9047-9.69599 30.6056-12.53236z" fill="#ea346c"/><path d="m129 129-32.7949-123.72747c10.7009-2.83637 21.7249-4.27253 32.7949-4.27253z" fill="#ff709c"/></g></svg>