<svg fill="none" height="258" viewBox="0 0 258 258" width="258" xmlns="http://www.w3.org/2000/svg"><g stroke="#fff"><path d="m129.002 129v-128c70.692 0 128 57.3075 128 128 0 70.692-57.308 128-128 128-29.3022 0-57.7173-10.054-80.4993-28.482z" fill="#67c587"/><path d="m129.002 129.001-80.4992 99.518c-54.96238-44.459-63.4774-125.055-19.0189-180.0177 8.2724-10.2269 18.0717-19.1175 29.0528-26.3587z" fill="#eaf6ed"/><path d="m129.002 129-70.4654-106.8584c16.2203-10.6961 34.6627-17.55928 53.9294-20.06933z" fill="#a9deba"/><path d="m129.002 128.999-16.536-126.92723c2.741-.35708 5.493-.62528 8.251-.80419z" fill="#88d1a1"/><path d="m129.002 129-8.285-127.73156c2.758-.17891 5.521-.26844 8.285-.26844z" fill="#c9ead4"/></g></svg>