<svg fill="none" height="453" viewBox="0 0 1107 453" width="1107" xmlns="http://www.w3.org/2000/svg"><g fill="#92fff8"><path d="m127 356h80v55.4h-80z"/><path d="m227 332.2h80v79.2h-80z"/><path d="m327 309.8h80v101.6h-80z"/><path d="m427 240.9h80v170.5h-80z"/><path d="m527 138.1h80v273.3h-80z"/><path d="m627 86h80v325.4h-80z"/><path d="m727 238.4h80v173h-80z"/><path d="m827 290.7h80v120.7h-80z"/><path d="m927 233.9h80v177.5h-80z"/><path d="m1027 181h80v230.4h-80z"/></g><g fill="#ea346c"><path d="m135.254 450.28c0-1.147.166-2.16.5-3.04.346-.88.906-1.707 1.68-2.48.773-.787 1.84-1.6 3.2-2.44.4-.253.68-.467.84-.64.173-.187.26-.407.26-.66 0-.547-.394-.82-1.18-.82-.587 0-1.26.153-2.02.46s-1.447.693-2.06 1.16l-1.18-4.26c.853-.427 1.833-.787 2.94-1.08 1.106-.307 2.22-.46 3.34-.46 1.84 0 3.266.407 4.28 1.22 1.013.813 1.52 1.967 1.52 3.46 0 .8-.18 1.507-.54 2.12-.347.6-.774 1.107-1.28 1.52-.494.413-1.14.887-1.94 1.42-.894.587-1.554 1.093-1.98 1.52-.414.413-.62.893-.62 1.44h2.42v-1.14h4.1v4.42h-12.28zm24.068 2c-2.253 0-3.993-.64-5.22-1.92-1.213-1.28-1.82-3.327-1.82-6.14s.607-4.86 1.82-6.14c1.227-1.28 2.967-1.92 5.22-1.92s3.987.64 5.2 1.92c1.227 1.28 1.84 3.327 1.84 6.14 0 2.6-.567 4.593-1.7 5.98-1.12 1.387-2.9 2.08-5.34 2.08zm0-3.56c.907 0 1.36-.493 1.36-1.48v-6.04c0-.987-.453-1.48-1.36-1.48s-1.36.493-1.36 1.48v6.04c0 .987.453 1.48 1.36 1.48zm12.208 3.28v-3.28h1.92v-9h-2.52v-2.26l4.44-1.02h3.36v12.28h1.68v3.28zm20.43 0v-2.5h-6.5v-3.28l6.9-9.78h4.88v10.02h1.38v3.04h-1.38v2.5zm-2.8-5.54h2.8v-3.94z"/><path d="m235.683 450.28c0-1.147.167-2.16.5-3.04.347-.88.907-1.707 1.68-2.48.774-.787 1.84-1.6 3.2-2.44.4-.253.68-.467.84-.64.174-.187.26-.407.26-.66 0-.547-.393-.82-1.18-.82-.586 0-1.26.153-2.02.46s-1.446.693-2.06 1.16l-1.18-4.26c.854-.427 1.834-.787 2.94-1.08 1.107-.307 2.22-.46 3.34-.46 1.84 0 3.267.407 4.28 1.22 1.014.813 1.52 1.967 1.52 3.46 0 .8-.18 1.507-.54 2.12-.346.6-.773 1.107-1.28 1.52-.493.413-1.14.887-1.94 1.42-.893.587-1.553 1.093-1.98 1.52-.413.413-.62.893-.62 1.44h2.42v-1.14h4.1v4.42h-12.28zm24.069 2c-2.254 0-3.994-.64-5.22-1.92-1.214-1.28-1.82-3.327-1.82-6.14s.606-4.86 1.82-6.14c1.226-1.28 2.966-1.92 5.22-1.92 2.253 0 3.986.64 5.2 1.92 1.226 1.28 1.84 3.327 1.84 6.14 0 2.6-.567 4.593-1.7 5.98-1.12 1.387-2.9 2.08-5.34 2.08zm0-3.56c.906 0 1.36-.493 1.36-1.48v-6.04c0-.987-.454-1.48-1.36-1.48-.907 0-1.36.493-1.36 1.48v6.04c0 .987.453 1.48 1.36 1.48zm12.208 3.28v-3.28h1.92v-9h-2.52v-2.26l4.44-1.02h3.36v12.28h1.68v3.28zm21.709-10.28c1.494 0 2.634.44 3.42 1.32.787.88 1.18 2.073 1.18 3.58 0 1.133-.26 2.127-.78 2.98-.506.853-1.266 1.513-2.28 1.98-1.013.467-2.24.7-3.68.7-.973 0-1.946-.107-2.92-.32-.973-.227-1.84-.5-2.6-.82v-4.26c1.734.813 3.307 1.22 4.72 1.22.734 0 1.28-.147 1.64-.44.36-.307.54-.78.54-1.42 0-.467-.106-.833-.32-1.1-.213-.267-.553-.4-1.02-.4-.36 0-.653.093-.88.28-.213.173-.386.427-.52.76h-4.2l.86-9.34h10.64v3.88h-6.64l-.18 2.06c.84-.44 1.847-.66 3.02-.66z"/><path d="m335.263 450.28c0-1.147.167-2.16.5-3.04.347-.88.907-1.707 1.68-2.48.774-.787 1.84-1.6 3.2-2.44.4-.253.68-.467.84-.64.174-.187.26-.407.26-.66 0-.547-.393-.82-1.18-.82-.586 0-1.26.153-2.02.46s-1.446.693-2.06 1.16l-1.18-4.26c.854-.427 1.834-.787 2.94-1.08 1.107-.307 2.22-.46 3.34-.46 1.84 0 3.267.407 4.28 1.22 1.014.813 1.52 1.967 1.52 3.46 0 .8-.18 1.507-.54 2.12-.346.6-.773 1.107-1.28 1.52-.493.413-1.14.887-1.94 1.42-.893.587-1.553 1.093-1.98 1.52-.413.413-.62.893-.62 1.44h2.42v-1.14h4.1v4.42h-12.28zm24.069 2c-2.254 0-3.994-.64-5.22-1.92-1.214-1.28-1.82-3.327-1.82-6.14s.606-4.86 1.82-6.14c1.226-1.28 2.966-1.92 5.22-1.92 2.253 0 3.986.64 5.2 1.92 1.226 1.28 1.84 3.327 1.84 6.14 0 2.6-.567 4.593-1.7 5.98-1.12 1.387-2.9 2.08-5.34 2.08zm0-3.56c.906 0 1.36-.493 1.36-1.48v-6.04c0-.987-.454-1.48-1.36-1.48-.907 0-1.36.493-1.36 1.48v6.04c0 .987.453 1.48 1.36 1.48zm12.208 3.28v-3.28h1.92v-9h-2.52v-2.26l4.44-1.02h3.36v12.28h1.68v3.28zm22.549-9.82c1.48 0 2.634.427 3.46 1.28.84.853 1.26 2.04 1.26 3.56 0 1.693-.56 2.993-1.68 3.9-1.106.907-2.673 1.36-4.7 1.36-2.346 0-4.093-.633-5.24-1.9-1.146-1.28-1.72-3.233-1.72-5.86 0-2.88.674-4.993 2.02-6.34 1.36-1.347 3.227-2.02 5.6-2.02.974 0 1.88.087 2.72.26.84.16 1.514.373 2.02.64v4.04c-.506-.227-1.086-.407-1.74-.54-.653-.147-1.346-.22-2.08-.22-1.906 0-2.86.707-2.86 2.12v.24c.414-.147.88-.267 1.4-.36.52-.107 1.034-.16 1.54-.16zm-1.58 6.54c.454 0 .794-.133 1.02-.4.227-.28.34-.713.34-1.3 0-.533-.12-.947-.36-1.24-.226-.307-.58-.46-1.06-.46-.453 0-.886.087-1.3.26v1.6c0 .533.114.927.34 1.18.227.24.567.36 1.02.36z"/><path d="m435.713 450.28c0-1.147.166-2.16.5-3.04.346-.88.906-1.707 1.68-2.48.773-.787 1.84-1.6 3.2-2.44.4-.253.68-.467.84-.64.173-.187.26-.407.26-.66 0-.547-.394-.82-1.18-.82-.587 0-1.26.153-2.02.46s-1.447.693-2.06 1.16l-1.18-4.26c.853-.427 1.833-.787 2.94-1.08 1.106-.307 2.22-.46 3.34-.46 1.84 0 3.266.407 4.28 1.22 1.013.813 1.52 1.967 1.52 3.46 0 .8-.18 1.507-.54 2.12-.347.6-.774 1.107-1.28 1.52-.494.413-1.14.887-1.94 1.42-.894.587-1.554 1.093-1.98 1.52-.414.413-.62.893-.62 1.44h2.42v-1.14h4.1v4.42h-12.28zm24.068 2c-2.253 0-3.993-.64-5.22-1.92-1.213-1.28-1.82-3.327-1.82-6.14s.607-4.86 1.82-6.14c1.227-1.28 2.967-1.92 5.22-1.92s3.987.64 5.2 1.92c1.227 1.28 1.84 3.327 1.84 6.14 0 2.6-.567 4.593-1.7 5.98-1.12 1.387-2.9 2.08-5.34 2.08zm0-3.56c.907 0 1.36-.493 1.36-1.48v-6.04c0-.987-.453-1.48-1.36-1.48s-1.36.493-1.36 1.48v6.04c0 .987.453 1.48 1.36 1.48zm12.208 3.28v-3.28h1.92v-9h-2.52v-2.26l4.44-1.02h3.36v12.28h1.68v3.28zm16.01 0c0-1.187.246-2.5.74-3.94.506-1.44 1.14-2.833 1.9-4.18.76-1.36 1.526-2.547 2.3-3.56h-2.98v1.84h-4.2v-5.72h12.56v3.04c-.734 1.093-1.46 2.373-2.18 3.84-.707 1.453-1.3 2.953-1.78 4.5-.467 1.533-.7 2.927-.7 4.18z"/><path d="m535.195 450.28c0-1.147.167-2.16.5-3.04.347-.88.907-1.707 1.68-2.48.773-.787 1.84-1.6 3.2-2.44.4-.253.68-.467.84-.64.173-.187.26-.407.26-.66 0-.547-.393-.82-1.18-.82-.587 0-1.26.153-2.02.46s-1.447.693-2.06 1.16l-1.18-4.26c.853-.427 1.833-.787 2.94-1.08 1.107-.307 2.22-.46 3.34-.46 1.84 0 3.267.407 4.28 1.22s1.52 1.967 1.52 3.46c0 .8-.18 1.507-.54 2.12-.347.6-.773 1.107-1.28 1.52-.493.413-1.14.887-1.94 1.42-.893.587-1.553 1.093-1.98 1.52-.413.413-.62.893-.62 1.44h2.42v-1.14h4.1v4.42h-12.28zm24.068 2c-2.253 0-3.993-.64-5.22-1.92-1.213-1.28-1.82-3.327-1.82-6.14s.607-4.86 1.82-6.14c1.227-1.28 2.967-1.92 5.22-1.92 2.254 0 3.987.64 5.2 1.92 1.227 1.28 1.84 3.327 1.84 6.14 0 2.6-.566 4.593-1.7 5.98-1.12 1.387-2.9 2.08-5.34 2.08zm0-3.56c.907 0 1.36-.493 1.36-1.48v-6.04c0-.987-.453-1.48-1.36-1.48-.906 0-1.36.493-1.36 1.48v6.04c0 .987.454 1.48 1.36 1.48zm12.209 3.28v-3.28h1.92v-9h-2.52v-2.26l4.44-1.02h3.36v12.28h1.68v3.28zm24.629-8.08c.747.267 1.387.713 1.92 1.34.547.613.82 1.427.82 2.44 0 1.507-.58 2.647-1.74 3.42-1.147.773-2.833 1.16-5.06 1.16s-3.92-.373-5.08-1.12c-1.147-.76-1.72-1.873-1.72-3.34 0-1.053.287-1.9.86-2.54.587-.64 1.28-1.093 2.08-1.36-.707-.253-1.3-.66-1.78-1.22-.48-.573-.72-1.307-.72-2.2 0-1.427.533-2.507 1.6-3.24 1.08-.733 2.667-1.1 4.76-1.1 2.08 0 3.653.367 4.72 1.1s1.6 1.813 1.6 3.24c0 .907-.213 1.64-.64 2.2s-.967.967-1.62 1.22zm-4.06-4.2c-.907 0-1.36.467-1.36 1.4 0 .88.453 1.32 1.36 1.32s1.36-.44 1.36-1.32c0-.933-.453-1.4-1.36-1.4zm0 9c1.04 0 1.56-.533 1.56-1.6 0-.533-.133-.94-.4-1.22s-.653-.42-1.16-.42-.893.14-1.16.42-.4.687-.4 1.22c0 1.067.52 1.6 1.56 1.6z"/><path d="m635.263 450.28c0-1.147.167-2.16.5-3.04.347-.88.907-1.707 1.68-2.48.774-.787 1.84-1.6 3.2-2.44.4-.253.68-.467.84-.64.174-.187.26-.407.26-.66 0-.547-.393-.82-1.18-.82-.586 0-1.26.153-2.02.46s-1.446.693-2.06 1.16l-1.18-4.26c.854-.427 1.834-.787 2.94-1.08 1.107-.307 2.22-.46 3.34-.46 1.84 0 3.267.407 4.28 1.22 1.014.813 1.52 1.967 1.52 3.46 0 .8-.18 1.507-.54 2.12-.346.6-.773 1.107-1.28 1.52-.493.413-1.14.887-1.94 1.42-.893.587-1.553 1.093-1.98 1.52-.413.413-.62.893-.62 1.44h2.42v-1.14h4.1v4.42h-12.28zm24.069 2c-2.254 0-3.994-.64-5.22-1.92-1.214-1.28-1.82-3.327-1.82-6.14s.606-4.86 1.82-6.14c1.226-1.28 2.966-1.92 5.22-1.92 2.253 0 3.986.64 5.2 1.92 1.226 1.28 1.84 3.327 1.84 6.14 0 2.6-.567 4.593-1.7 5.98-1.12 1.387-2.9 2.08-5.34 2.08zm0-3.56c.906 0 1.36-.493 1.36-1.48v-6.04c0-.987-.454-1.48-1.36-1.48-.907 0-1.36.493-1.36 1.48v6.04c0 .987.453 1.48 1.36 1.48zm12.208 3.28v-3.28h1.92v-9h-2.52v-2.26l4.44-1.02h3.36v12.28h1.68v3.28zm20.069-15.84c2.374 0 4.14.64 5.3 1.92 1.16 1.267 1.74 3.213 1.74 5.84 0 2.88-.68 4.993-2.04 6.34-1.346 1.347-3.206 2.02-5.58 2.02-.973 0-1.88-.087-2.72-.26-.84-.16-1.513-.373-2.02-.64v-4.04c.507.227 1.087.413 1.74.56.654.133 1.347.2 2.08.2 1.907 0 2.86-.707 2.86-2.12v-.22c-.853.333-1.773.5-2.76.5-1.546 0-2.753-.413-3.62-1.24-.853-.84-1.28-2.007-1.28-3.5 0-1.773.547-3.107 1.64-4 1.094-.907 2.647-1.36 4.66-1.36zm-1.36 5.28c0 .533.114.947.34 1.24.24.293.6.44 1.08.44.454 0 .887-.087 1.3-.26v-1.6c0-.533-.113-.92-.34-1.16-.226-.253-.566-.38-1.02-.38-.453 0-.793.14-1.02.42-.226.28-.34.713-.34 1.3z"/><path d="m733.603 450.28c0-1.147.167-2.16.5-3.04.347-.88.907-1.707 1.68-2.48.774-.787 1.84-1.6 3.2-2.44.4-.253.68-.467.84-.64.174-.187.26-.407.26-.66 0-.547-.393-.82-1.18-.82-.586 0-1.26.153-2.02.46s-1.446.693-2.06 1.16l-1.18-4.26c.854-.427 1.834-.787 2.94-1.08 1.107-.307 2.22-.46 3.34-.46 1.84 0 3.267.407 4.28 1.22 1.014.813 1.52 1.967 1.52 3.46 0 .8-.18 1.507-.54 2.12-.346.6-.773 1.107-1.28 1.52-.493.413-1.14.887-1.94 1.42-.893.587-1.553 1.093-1.98 1.52-.413.413-.62.893-.62 1.44h2.42v-1.14h4.1v4.42h-12.28zm24.069 2c-2.254 0-3.994-.64-5.22-1.92-1.214-1.28-1.82-3.327-1.82-6.14s.606-4.86 1.82-6.14c1.226-1.28 2.966-1.92 5.22-1.92 2.253 0 3.986.64 5.2 1.92 1.226 1.28 1.84 3.327 1.84 6.14 0 2.6-.567 4.593-1.7 5.98-1.12 1.387-2.9 2.08-5.34 2.08zm0-3.56c.906 0 1.36-.493 1.36-1.48v-6.04c0-.987-.454-1.48-1.36-1.48-.907 0-1.36.493-1.36 1.48v6.04c0 .987.453 1.48 1.36 1.48zm11.568 1.56c0-1.147.167-2.16.5-3.04.347-.88.907-1.707 1.68-2.48.773-.787 1.84-1.6 3.2-2.44.4-.253.68-.467.84-.64.173-.187.26-.407.26-.66 0-.547-.393-.82-1.18-.82-.587 0-1.26.153-2.02.46s-1.447.693-2.06 1.16l-1.18-4.26c.853-.427 1.833-.787 2.94-1.08 1.107-.307 2.22-.46 3.34-.46 1.84 0 3.267.407 4.28 1.22s1.52 1.967 1.52 3.46c0 .8-.18 1.507-.54 2.12-.347.6-.773 1.107-1.28 1.52-.493.413-1.14.887-1.94 1.42-.893.587-1.553 1.093-1.98 1.52-.413.413-.62.893-.62 1.44h2.42v-1.14h4.1v4.42h-12.28zm24.068 2c-2.253 0-3.993-.64-5.22-1.92-1.213-1.28-1.82-3.327-1.82-6.14s.607-4.86 1.82-6.14c1.227-1.28 2.967-1.92 5.22-1.92 2.254 0 3.987.64 5.2 1.92 1.227 1.28 1.84 3.327 1.84 6.14 0 2.6-.566 4.593-1.7 5.98-1.12 1.387-2.9 2.08-5.34 2.08zm0-3.56c.907 0 1.36-.493 1.36-1.48v-6.04c0-.987-.453-1.48-1.36-1.48-.906 0-1.36.493-1.36 1.48v6.04c0 .987.454 1.48 1.36 1.48z"/><path d="m835.703 450.28c0-1.147.167-2.16.5-3.04.347-.88.907-1.707 1.68-2.48.773-.787 1.84-1.6 3.2-2.44.4-.253.68-.467.84-.64.173-.187.26-.407.26-.66 0-.547-.393-.82-1.18-.82-.587 0-1.26.153-2.02.46s-1.447.693-2.06 1.16l-1.18-4.26c.853-.427 1.833-.787 2.94-1.08 1.107-.307 2.22-.46 3.34-.46 1.84 0 3.267.407 4.28 1.22s1.52 1.967 1.52 3.46c0 .8-.18 1.507-.54 2.12-.347.6-.773 1.107-1.28 1.52-.493.413-1.14.887-1.94 1.42-.893.587-1.553 1.093-1.98 1.52-.413.413-.62.893-.62 1.44h2.42v-1.14h4.1v4.42h-12.28zm24.068 2c-2.253 0-3.993-.64-5.22-1.92-1.213-1.28-1.82-3.327-1.82-6.14s.607-4.86 1.82-6.14c1.227-1.28 2.967-1.92 5.22-1.92 2.254 0 3.987.64 5.2 1.92 1.227 1.28 1.84 3.327 1.84 6.14 0 2.6-.566 4.593-1.7 5.98-1.12 1.387-2.9 2.08-5.34 2.08zm0-3.56c.907 0 1.36-.493 1.36-1.48v-6.04c0-.987-.453-1.48-1.36-1.48-.906 0-1.36.493-1.36 1.48v6.04c0 .987.454 1.48 1.36 1.48zm11.569 1.56c0-1.147.166-2.16.5-3.04.346-.88.906-1.707 1.68-2.48.773-.787 1.84-1.6 3.2-2.44.4-.253.68-.467.84-.64.173-.187.26-.407.26-.66 0-.547-.394-.82-1.18-.82-.587 0-1.26.153-2.02.46s-1.447.693-2.06 1.16l-1.18-4.26c.853-.427 1.833-.787 2.94-1.08 1.106-.307 2.22-.46 3.34-.46 1.84 0 3.266.407 4.28 1.22 1.013.813 1.52 1.967 1.52 3.46 0 .8-.18 1.507-.54 2.12-.347.6-.774 1.107-1.28 1.52-.494.413-1.14.887-1.94 1.42-.894.587-1.554 1.093-1.98 1.52-.414.413-.62.893-.62 1.44h2.42v-1.14h4.1v4.42h-12.28zm17.628 1.72v-3.28h1.92v-9h-2.52v-2.26l4.44-1.02h3.36v12.28h1.68v3.28z"/><path d="m934.433 450.28c0-1.147.167-2.16.5-3.04.347-.88.907-1.707 1.68-2.48.774-.787 1.84-1.6 3.2-2.44.4-.253.68-.467.84-.64.174-.187.26-.407.26-.66 0-.547-.393-.82-1.18-.82-.586 0-1.26.153-2.02.46s-1.446.693-2.06 1.16l-1.18-4.26c.854-.427 1.834-.787 2.94-1.08 1.107-.307 2.22-.46 3.34-.46 1.84 0 3.267.407 4.28 1.22 1.014.813 1.52 1.967 1.52 3.46 0 .8-.18 1.507-.54 2.12-.346.6-.773 1.107-1.28 1.52-.493.413-1.14.887-1.94 1.42-.893.587-1.553 1.093-1.98 1.52-.413.413-.62.893-.62 1.44h2.42v-1.14h4.1v4.42h-12.28zm24.069 2c-2.254 0-3.994-.64-5.22-1.92-1.214-1.28-1.82-3.327-1.82-6.14s.606-4.86 1.82-6.14c1.226-1.28 2.966-1.92 5.22-1.92 2.253 0 3.986.64 5.2 1.92 1.226 1.28 1.84 3.327 1.84 6.14 0 2.6-.567 4.593-1.7 5.98-1.12 1.387-2.9 2.08-5.34 2.08zm0-3.56c.906 0 1.36-.493 1.36-1.48v-6.04c0-.987-.454-1.48-1.36-1.48-.907 0-1.36.493-1.36 1.48v6.04c0 .987.453 1.48 1.36 1.48zm11.568 1.56c0-1.147.167-2.16.5-3.04.347-.88.907-1.707 1.68-2.48.773-.787 1.84-1.6 3.2-2.44.4-.253.68-.467.84-.64.173-.187.26-.407.26-.66 0-.547-.393-.82-1.18-.82-.587 0-1.26.153-2.02.46s-1.447.693-2.06 1.16l-1.18-4.26c.853-.427 1.833-.787 2.94-1.08 1.107-.307 2.22-.46 3.34-.46 1.84 0 3.267.407 4.28 1.22s1.52 1.967 1.52 3.46c0 .8-.18 1.507-.54 2.12-.347.6-.773 1.107-1.28 1.52-.493.413-1.14.887-1.94 1.42-.893.587-1.553 1.093-1.98 1.52-.413.413-.62.893-.62 1.44h2.42v-1.14h4.1v4.42h-12.28zm16.988 0c0-1.147.167-2.16.5-3.04.347-.88.907-1.707 1.68-2.48.774-.787 1.84-1.6 3.2-2.44.4-.253.68-.467.84-.64.174-.187.26-.407.26-.66 0-.547-.393-.82-1.18-.82-.586 0-1.26.153-2.02.46s-1.446.693-2.06 1.16l-1.18-4.26c.854-.427 1.834-.787 2.94-1.08 1.107-.307 2.22-.46 3.34-.46 1.84 0 3.267.407 4.28 1.22 1.014.813 1.52 1.967 1.52 3.46 0 .8-.18 1.507-.54 2.12-.346.6-.773 1.107-1.28 1.52-.493.413-1.14.887-1.94 1.42-.893.587-1.553 1.093-1.98 1.52-.413.413-.62.893-.62 1.44h2.42v-1.14h4.1v4.42h-12.28z"/><path d="m1034.7 450.28c0-1.147.16-2.16.5-3.04s.9-1.707 1.68-2.48c.77-.787 1.84-1.6 3.2-2.44.4-.253.68-.467.84-.64.17-.187.26-.407.26-.66 0-.547-.4-.82-1.18-.82-.59 0-1.26.153-2.02.46s-1.45.693-2.06 1.16l-1.18-4.26c.85-.427 1.83-.787 2.94-1.08 1.1-.307 2.22-.46 3.34-.46 1.84 0 3.26.407 4.28 1.22 1.01.813 1.52 1.967 1.52 3.46 0 .8-.18 1.507-.54 2.12-.35.6-.78 1.107-1.28 1.52s-1.14.887-1.94 1.42c-.9.587-1.56 1.093-1.98 1.52-.42.413-.62.893-.62 1.44h2.42v-1.14h4.1v4.42h-12.28zm24.07 2c-2.26 0-4-.64-5.22-1.92s-1.82-3.327-1.82-6.14.6-4.86 1.82-6.14 2.96-1.92 5.22-1.92c2.25 0 3.98.64 5.2 1.92s1.84 3.327 1.84 6.14c0 2.6-.57 4.593-1.7 5.98-1.12 1.387-2.9 2.08-5.34 2.08zm0-3.56c.9 0 1.36-.493 1.36-1.48v-6.04c0-.987-.46-1.48-1.36-1.48-.91 0-1.36.493-1.36 1.48v6.04c0 .987.45 1.48 1.36 1.48zm11.56 1.56c0-1.147.17-2.16.5-3.04.35-.88.91-1.707 1.68-2.48.78-.787 1.84-1.6 3.2-2.44.4-.253.68-.467.84-.64.18-.187.26-.407.26-.66 0-.547-.39-.82-1.18-.82-.58 0-1.26.153-2.02.46s-1.44.693-2.06 1.16l-1.18-4.26c.86-.427 1.84-.787 2.94-1.08 1.11-.307 2.22-.46 3.34-.46 1.84 0 3.27.407 4.28 1.22 1.02.813 1.52 1.967 1.52 3.46 0 .8-.18 1.507-.54 2.12-.34.6-.77 1.107-1.28 1.52-.49.413-1.14.887-1.94 1.42-.89.587-1.55 1.093-1.98 1.52-.41.413-.62.893-.62 1.44h2.42v-1.14h4.1v4.42h-12.28zm26.47-6.22c.42.107.81.327 1.18.66.39.32.7.727.94 1.22.26.493.38 1.04.38 1.64 0 1.467-.52 2.62-1.58 3.46-1.04.827-2.58 1.24-4.64 1.24-.97 0-1.94-.107-2.92-.32-.97-.227-1.84-.5-2.6-.82v-4.26c.83.36 1.68.653 2.56.88.9.227 1.74.34 2.54.34.56 0 .97-.087 1.22-.26.27-.173.4-.46.4-.86 0-.773-.46-1.16-1.4-1.16h-1.44v-3.28h1.12c.88 0 1.32-.373 1.32-1.12 0-.72-.44-1.08-1.32-1.08-.64 0-1.3.153-2 .46-.69.293-1.36.68-2.02 1.16l-1.18-4.26c.82-.427 1.74-.787 2.78-1.08 1.04-.307 2.09-.46 3.14-.46 1.84 0 3.26.387 4.24 1.16.99.773 1.48 1.867 1.48 3.28 0 .88-.2 1.607-.62 2.18-.41.56-.94.987-1.58 1.28z"/></g><rect fill="#fff" height="400" rx="4.5" width="9" x="97" y="11"/><circle cx="101" cy="11" fill="#fff" r="10"/><circle cx="101" cy="111" fill="#fff" r="10"/><circle cx="101" cy="211" fill="#fff" r="10"/><circle cx="101" cy="311" fill="#fff" r="10"/><circle cx="101" cy="411" fill="#fff" r="10"/><path d="m33.9492 16.2578v1.7813h-12.3281v-1.2774l7.6406-11.8242h1.7695l-1.8984 3.42188-5.0508 7.89842zm-2.3789-11.3203v17.0625h-2.168v-17.0625zm15.0586 7.1719v2.6015c0 1.3985-.125 2.5782-.375 3.5391s-.6094 1.7344-1.0781 2.3203c-.4688.5859-1.0352 1.0117-1.6992 1.2774-.6563.2578-1.3985.3867-2.2266.3867-.6562 0-1.2617-.0821-1.8164-.2461-.5547-.1641-1.0547-.4258-1.5-.7852-.4375-.3672-.8125-.8437-1.125-1.4297-.3125-.5859-.5508-1.2968-.7148-2.1328-.1641-.8359-.2461-1.8125-.2461-2.9297v-2.6015c0-1.3985.125-2.57034.375-3.51565.2578-.94531.6211-1.70312 1.0898-2.27344.4687-.57812 1.0313-.99219 1.6875-1.24219.6641-.24999 1.4062-.375 2.2266-.375.664 0 1.2734.08204 1.8281.2461.5625.15625 1.0625.41016 1.5.76172.4375.34375.8086.80469 1.1133 1.38281.3125.57031.5508 1.26953.7148 2.09766.1641.82809.2461 1.80079.2461 2.91799zm-2.1797 2.9531v-3.3164c0-.7656-.0469-1.4375-.1406-2.01563-.0859-.58594-.2148-1.08594-.3867-1.5s-.3907-.75-.6563-1.00781c-.2578-.25782-.5586-.44532-.9023-.5625-.336-.125-.7149-.1875-1.1367-.1875-.5157 0-.9727.09765-1.3711.29296-.3985.1875-.7344.48829-1.0078.90235-.2657.41406-.4688.95703-.6094 1.62891-.1406.67187-.211 1.48832-.211 2.44922v3.3164c0 .7656.043 1.4414.1289 2.0273.0938.586.2305 1.0938.4102 1.5235.1797.4219.3984.7695.6563 1.0429.2578.2735.5546.4766.8906.6094.3437.125.7226.1875 1.1367.1875.5312 0 .9961-.1015 1.3945-.3047.3985-.2031.7305-.5195.9961-.9492.2735-.4375.4766-.9961.6094-1.6758.1328-.6875.1992-1.5078.1992-2.4609zm15.6797-2.9531v2.6015c0 1.3985-.125 2.5782-.375 3.5391s-.6094 1.7344-1.0781 2.3203c-.4688.5859-1.0352 1.0117-1.6992 1.2774-.6563.2578-1.3985.3867-2.2266.3867-.6562 0-1.2617-.0821-1.8164-.2461-.5547-.1641-1.0547-.4258-1.5-.7852-.4375-.3672-.8125-.8437-1.125-1.4297-.3125-.5859-.5508-1.2968-.7148-2.1328-.1641-.8359-.2461-1.8125-.2461-2.9297v-2.6015c0-1.3985.125-2.57034.375-3.51565.2578-.94531.6211-1.70312 1.0898-2.27344.4687-.57812 1.0313-.99219 1.6875-1.24219.6641-.24999 1.4062-.375 2.2266-.375.664 0 1.2734.08204 1.8281.2461.5625.15625 1.0625.41016 1.5.76172.4375.34375.8086.80469 1.1133 1.38281.3125.57031.5508 1.26953.7148 2.09766.1641.82809.2461 1.80079.2461 2.91799zm-2.1797 2.9531v-3.3164c0-.7656-.0469-1.4375-.1406-2.01563-.0859-.58594-.2148-1.08594-.3867-1.5s-.3907-.75-.6563-1.00781c-.2578-.25782-.5586-.44532-.9023-.5625-.336-.125-.7149-.1875-1.1367-.1875-.5157 0-.9727.09765-1.3711.29296-.3985.1875-.7344.48829-1.0078.90235-.2657.41406-.4688.95703-.6094 1.62891-.1406.67187-.211 1.48832-.211 2.44922v3.3164c0 .7656.043 1.4414.1289 2.0273.0938.586.2305 1.0938.4102 1.5235.1797.4219.3984.7695.6563 1.0429.2578.2735.5546.4766.8906.6094.3437.125.7226.1875 1.1367.1875.5312 0 .9961-.1015 1.3945-.3047.3985-.2031.7305-.5195.9961-.9492.2735-.4375.4766-.9961.6094-1.6758.1328-.6875.1992-1.5078.1992-2.4609zm15.6797-2.9531v2.6015c0 1.3985-.125 2.5782-.375 3.5391s-.6094 1.7344-1.0781 2.3203c-.4688.5859-1.0352 1.0117-1.6992 1.2774-.6563.2578-1.3985.3867-2.2266.3867-.6562 0-1.2617-.0821-1.8164-.2461-.5547-.1641-1.0547-.4258-1.5-.7852-.4375-.3672-.8125-.8437-1.125-1.4297-.3125-.5859-.5508-1.2968-.7148-2.1328-.1641-.8359-.2461-1.8125-.2461-2.9297v-2.6015c0-1.3985.125-2.57034.375-3.51565.2578-.94531.6211-1.70312 1.0898-2.27344.4687-.57812 1.0313-.99219 1.6875-1.24219.6641-.24999 1.4062-.375 2.2266-.375.664 0 1.2734.08204 1.8281.2461.5625.15625 1.0625.41016 1.5.76172.4375.34375.8086.80469 1.1133 1.38281.3125.57031.5508 1.26953.7148 2.09766.1641.82809.2461 1.80079.2461 2.91799zm-2.1797 2.9531v-3.3164c0-.7656-.0469-1.4375-.1406-2.01563-.0859-.58594-.2148-1.08594-.3867-1.5s-.3907-.75-.6563-1.00781c-.2578-.25782-.5586-.44532-.9023-.5625-.336-.125-.7149-.1875-1.1367-.1875-.5157 0-.9727.09765-1.3711.29296-.3985.1875-.7344.48829-1.0078.90235-.2657.41406-.4688.95703-.6094 1.62891-.1406.67187-.211 1.48832-.211 2.44922v3.3164c0 .7656.043 1.4414.1289 2.0273.0938.586.2305 1.0938.4102 1.5235.1797.4219.3984.7695.6563 1.0429.2578.2735.5546.4766.8906.6094.3437.125.7226.1875 1.1367.1875.5312 0 .9961-.1015 1.3945-.3047.3985-.2031.7305-.5195.9961-.9492.2735-.4375.4766-.9961.6094-1.6758.1328-.6875.1992-1.5078.1992-2.4609z" fill="#fdfbf5"/><path d="m25.582 112.402h1.5469c.7578 0 1.3828-.125 1.875-.375.5-.257.8711-.605 1.1133-1.043.25-.445.375-.945.375-1.5 0-.656-.1094-1.207-.3281-1.652-.2188-.445-.5469-.781-.9844-1.008-.4375-.226-.9922-.34-1.6641-.34-.6094 0-1.1484.121-1.6172.364-.4609.234-.8242.57-1.0898 1.007-.2578.438-.3867.954-.3867 1.547h-2.168c0-.867.2188-1.656.6563-2.367s1.0507-1.277 1.8398-1.699c.7969-.422 1.7188-.633 2.7656-.633 1.0313 0 1.9336.184 2.7071.551.7734.359 1.375.898 1.8046 1.617.4297.711.6446 1.598.6446 2.66 0 .43-.1016.891-.3047 1.383-.1953.484-.5039.938-.9258 1.359-.4141.422-.9531.77-1.6172 1.043-.664.266-1.4609.399-2.3906.399h-1.8516zm0 1.782v-1.301h1.8516c1.0859 0 1.9844.129 2.6953.387.7109.257 1.2695.601 1.6758 1.031.4141.429.7031.902.8672 1.418.1719.508.2578 1.015.2578 1.523 0 .797-.1367 1.504-.4102 2.121-.2656.617-.6445 1.141-1.1367 1.571-.4844.429-1.0547.754-1.7109.972-.6563.219-1.3711.328-2.1446.328-.7421 0-1.4414-.105-2.0976-.316-.6485-.211-1.2227-.516-1.7227-.914-.5-.406-.8906-.902-1.1718-1.488-.2813-.594-.4219-1.27-.4219-2.028h2.1679c0 .594.129 1.114.3868 1.559.2656.445.6406.793 1.125 1.043.4922.242 1.0703.363 1.7343.363.6641 0 1.2344-.113 1.711-.34.4844-.234.8555-.586 1.1133-1.054.2656-.469.3984-1.059.3984-1.77s-.1484-1.293-.4453-1.746c-.2969-.461-.7188-.801-1.2656-1.02-.5391-.226-1.1758-.339-1.9102-.339zm21.0469-2.075v2.602c0 1.398-.125 2.578-.375 3.539s-.6094 1.734-1.0781 2.32c-.4688.586-1.0352 1.012-1.6992 1.278-.6563.257-1.3985.386-2.2266.386-.6562 0-1.2617-.082-1.8164-.246s-1.0547-.426-1.5-.785c-.4375-.367-.8125-.844-1.125-1.43-.3125-.585-.5508-1.296-.7148-2.132-.1641-.836-.2461-1.813-.2461-2.93v-2.602c0-1.398.125-2.57.375-3.515.2578-.946.6211-1.703 1.0898-2.274.4687-.578 1.0313-.992 1.6875-1.242.6641-.25 1.4062-.375 2.2266-.375.664 0 1.2734.082 1.8281.246.5625.156 1.0625.41 1.5.762.4375.344.8086.805 1.1133 1.383.3125.57.5508 1.269.7148 2.097.1641.829.2461 1.801.2461 2.918zm-2.1797 2.953v-3.316c0-.766-.0469-1.437-.1406-2.016-.0859-.585-.2148-1.085-.3867-1.5-.1719-.414-.3907-.75-.6563-1.007-.2578-.258-.5586-.446-.9023-.563-.336-.125-.7149-.187-1.1367-.187-.5157 0-.9727.097-1.3711.293-.3985.187-.7344.488-1.0078.902-.2657.414-.4688.957-.6094 1.629s-.211 1.488-.211 2.449v3.316c0 .766.043 1.442.1289 2.028.0938.586.2305 1.094.4102 1.523.1797.422.3984.77.6563 1.043.2578.274.5546.477.8906.61.3437.125.7226.187 1.1367.187.5312 0 .9961-.101 1.3945-.305.3985-.203.7305-.519.9961-.949.2735-.437.4766-.996.6094-1.676.1328-.687.1992-1.507.1992-2.461zm15.6797-2.953v2.602c0 1.398-.125 2.578-.375 3.539s-.6094 1.734-1.0781 2.32c-.4688.586-1.0352 1.012-1.6992 1.278-.6563.257-1.3985.386-2.2266.386-.6562 0-1.2617-.082-1.8164-.246s-1.0547-.426-1.5-.785c-.4375-.367-.8125-.844-1.125-1.43-.3125-.585-.5508-1.296-.7148-2.132-.1641-.836-.2461-1.813-.2461-2.93v-2.602c0-1.398.125-2.57.375-3.515.2578-.946.6211-1.703 1.0898-2.274.4687-.578 1.0313-.992 1.6875-1.242.6641-.25 1.4062-.375 2.2266-.375.664 0 1.2734.082 1.8281.246.5625.156 1.0625.41 1.5.762.4375.344.8086.805 1.1133 1.383.3125.57.5508 1.269.7148 2.097.1641.829.2461 1.801.2461 2.918zm-2.1797 2.953v-3.316c0-.766-.0469-1.437-.1406-2.016-.0859-.585-.2148-1.085-.3867-1.5-.1719-.414-.3907-.75-.6563-1.007-.2578-.258-.5586-.446-.9023-.563-.336-.125-.7149-.187-1.1367-.187-.5157 0-.9727.097-1.3711.293-.3985.187-.7344.488-1.0078.902-.2657.414-.4688.957-.6094 1.629s-.211 1.488-.211 2.449v3.316c0 .766.043 1.442.1289 2.028.0938.586.2305 1.094.4102 1.523.1797.422.3984.77.6563 1.043.2578.274.5546.477.8906.61.3437.125.7226.187 1.1367.187.5312 0 .9961-.101 1.3945-.305.3985-.203.7305-.519.9961-.949.2735-.437.4766-.996.6094-1.676.1328-.687.1992-1.507.1992-2.461zm15.6797-2.953v2.602c0 1.398-.125 2.578-.375 3.539s-.6094 1.734-1.0781 2.32c-.4688.586-1.0352 1.012-1.6992 1.278-.6563.257-1.3985.386-2.2266.386-.6562 0-1.2617-.082-1.8164-.246s-1.0547-.426-1.5-.785c-.4375-.367-.8125-.844-1.125-1.43-.3125-.585-.5508-1.296-.7148-2.132-.1641-.836-.2461-1.813-.2461-2.93v-2.602c0-1.398.125-2.57.375-3.515.2578-.946.6211-1.703 1.0898-2.274.4687-.578 1.0313-.992 1.6875-1.242.6641-.25 1.4062-.375 2.2266-.375.664 0 1.2734.082 1.8281.246.5625.156 1.0625.41 1.5.762.4375.344.8086.805 1.1133 1.383.3125.57.5508 1.269.7148 2.097.1641.829.2461 1.801.2461 2.918zm-2.1797 2.953v-3.316c0-.766-.0469-1.437-.1406-2.016-.0859-.585-.2148-1.085-.3867-1.5-.1719-.414-.3907-.75-.6563-1.007-.2578-.258-.5586-.446-.9023-.563-.336-.125-.7149-.187-1.1367-.187-.5157 0-.9727.097-1.3711.293-.3985.187-.7344.488-1.0078.902-.2657.414-.4688.957-.6094 1.629s-.211 1.488-.211 2.449v3.316c0 .766.043 1.442.1289 2.028.0938.586.2305 1.094.4102 1.523.1797.422.3984.77.6563 1.043.2578.274.5546.477.8906.61.3437.125.7226.187 1.1367.187.5312 0 .9961-.101 1.3945-.305.3985-.203.7305-.519.9961-.949.2735-.437.4766-.996.6094-1.676.1328-.687.1992-1.507.1992-2.461z" fill="#fdfbf5"/><path d="m33.5977 220.219v1.781h-11.168v-1.559l5.5898-6.222c.6875-.766 1.2188-1.414 1.5938-1.946.3828-.539.6484-1.019.7969-1.441.1562-.43.2343-.867.2343-1.312 0-.563-.1172-1.071-.3515-1.524-.2266-.461-.5625-.828-1.0078-1.101-.4454-.274-.9844-.411-1.6172-.411-.7578 0-1.3907.149-1.8985.446-.5.289-.875.695-1.125 1.218-.25.524-.375 1.125-.375 1.805h-2.1679c0-.961.2109-1.84.6328-2.637.4218-.796 1.0468-1.429 1.875-1.898.8281-.477 1.8476-.715 3.0586-.715 1.0781 0 2 .192 2.7656.574.7656.375 1.3516.907 1.7578 1.594.4141.68.6211 1.477.6211 2.391 0 .5-.0859 1.008-.2578 1.523-.1641.508-.3945 1.016-.6914 1.524-.2891.507-.6289 1.007-1.0195 1.5-.3829.492-.793.976-1.2305 1.453l-4.5703 4.957zm13.0312-8.11v2.602c0 1.398-.125 2.578-.375 3.539s-.6094 1.734-1.0781 2.32c-.4688.586-1.0352 1.012-1.6992 1.278-.6563.257-1.3985.386-2.2266.386-.6562 0-1.2617-.082-1.8164-.246s-1.0547-.426-1.5-.785c-.4375-.367-.8125-.844-1.125-1.43-.3125-.585-.5508-1.296-.7148-2.132-.1641-.836-.2461-1.813-.2461-2.93v-2.602c0-1.398.125-2.57.375-3.515.2578-.946.6211-1.703 1.0898-2.274.4687-.578 1.0313-.992 1.6875-1.242.6641-.25 1.4062-.375 2.2266-.375.664 0 1.2734.082 1.8281.246.5625.156 1.0625.41 1.5.762.4375.344.8086.805 1.1133 1.383.3125.57.5508 1.269.7148 2.097.1641.829.2461 1.801.2461 2.918zm-2.1797 2.953v-3.316c0-.766-.0469-1.437-.1406-2.016-.0859-.585-.2148-1.085-.3867-1.5-.1719-.414-.3907-.75-.6563-1.007-.2578-.258-.5586-.446-.9023-.563-.336-.125-.7149-.187-1.1367-.187-.5157 0-.9727.097-1.3711.293-.3985.187-.7344.488-1.0078.902-.2657.414-.4688.957-.6094 1.629s-.211 1.488-.211 2.449v3.316c0 .766.043 1.442.1289 2.028.0938.586.2305 1.094.4102 1.523.1797.422.3984.77.6563 1.043.2578.274.5546.477.8906.61.3437.125.7226.187 1.1367.187.5312 0 .9961-.101 1.3945-.305.3985-.203.7305-.519.9961-.949.2735-.437.4766-.996.6094-1.676.1328-.687.1992-1.507.1992-2.461zm15.6797-2.953v2.602c0 1.398-.125 2.578-.375 3.539s-.6094 1.734-1.0781 2.32c-.4688.586-1.0352 1.012-1.6992 1.278-.6563.257-1.3985.386-2.2266.386-.6562 0-1.2617-.082-1.8164-.246s-1.0547-.426-1.5-.785c-.4375-.367-.8125-.844-1.125-1.43-.3125-.585-.5508-1.296-.7148-2.132-.1641-.836-.2461-1.813-.2461-2.93v-2.602c0-1.398.125-2.57.375-3.515.2578-.946.6211-1.703 1.0898-2.274.4687-.578 1.0313-.992 1.6875-1.242.6641-.25 1.4062-.375 2.2266-.375.664 0 1.2734.082 1.8281.246.5625.156 1.0625.41 1.5.762.4375.344.8086.805 1.1133 1.383.3125.57.5508 1.269.7148 2.097.1641.829.2461 1.801.2461 2.918zm-2.1797 2.953v-3.316c0-.766-.0469-1.437-.1406-2.016-.0859-.585-.2148-1.085-.3867-1.5-.1719-.414-.3907-.75-.6563-1.007-.2578-.258-.5586-.446-.9023-.563-.336-.125-.7149-.187-1.1367-.187-.5157 0-.9727.097-1.3711.293-.3985.187-.7344.488-1.0078.902-.2657.414-.4688.957-.6094 1.629s-.211 1.488-.211 2.449v3.316c0 .766.043 1.442.1289 2.028.0938.586.2305 1.094.4102 1.523.1797.422.3984.77.6563 1.043.2578.274.5546.477.8906.61.3437.125.7226.187 1.1367.187.5312 0 .9961-.101 1.3945-.305.3985-.203.7305-.519.9961-.949.2735-.437.4766-.996.6094-1.676.1328-.687.1992-1.507.1992-2.461zm15.6797-2.953v2.602c0 1.398-.125 2.578-.375 3.539s-.6094 1.734-1.0781 2.32c-.4688.586-1.0352 1.012-1.6992 1.278-.6563.257-1.3985.386-2.2266.386-.6562 0-1.2617-.082-1.8164-.246s-1.0547-.426-1.5-.785c-.4375-.367-.8125-.844-1.125-1.43-.3125-.585-.5508-1.296-.7148-2.132-.1641-.836-.2461-1.813-.2461-2.93v-2.602c0-1.398.125-2.57.375-3.515.2578-.946.6211-1.703 1.0898-2.274.4687-.578 1.0313-.992 1.6875-1.242.6641-.25 1.4062-.375 2.2266-.375.664 0 1.2734.082 1.8281.246.5625.156 1.0625.41 1.5.762.4375.344.8086.805 1.1133 1.383.3125.57.5508 1.269.7148 2.097.1641.829.2461 1.801.2461 2.918zm-2.1797 2.953v-3.316c0-.766-.0469-1.437-.1406-2.016-.0859-.585-.2148-1.085-.3867-1.5-.1719-.414-.3907-.75-.6563-1.007-.2578-.258-.5586-.446-.9023-.563-.336-.125-.7149-.187-1.1367-.187-.5157 0-.9727.097-1.3711.293-.3985.187-.7344.488-1.0078.902-.2657.414-.4688.957-.6094 1.629s-.211 1.488-.211 2.449v3.316c0 .766.043 1.442.1289 2.028.0938.586.2305 1.094.4102 1.523.1797.422.3984.77.6563 1.043.2578.274.5546.477.8906.61.3437.125.7226.187 1.1367.187.5312 0 .9961-.101 1.3945-.305.3985-.203.7305-.519.9961-.949.2735-.437.4766-.996.6094-1.676.1328-.687.1992-1.507.1992-2.461z" fill="#fdfbf5"/><path d="m29.543 304.844v17.156h-2.168v-14.449l-4.3711 1.594v-1.957l6.1992-2.344zm17.0859 7.265v2.602c0 1.398-.125 2.578-.375 3.539s-.6094 1.734-1.0781 2.32c-.4688.586-1.0352 1.012-1.6992 1.278-.6563.257-1.3985.386-2.2266.386-.6562 0-1.2617-.082-1.8164-.246s-1.0547-.426-1.5-.785c-.4375-.367-.8125-.844-1.125-1.43-.3125-.585-.5508-1.296-.7148-2.132-.1641-.836-.2461-1.813-.2461-2.93v-2.602c0-1.398.125-2.57.375-3.515.2578-.946.6211-1.703 1.0898-2.274.4687-.578 1.0313-.992 1.6875-1.242.6641-.25 1.4062-.375 2.2266-.375.664 0 1.2734.082 1.8281.246.5625.156 1.0625.41 1.5.762.4375.344.8086.805 1.1133 1.383.3125.57.5508 1.269.7148 2.097.1641.829.2461 1.801.2461 2.918zm-2.1797 2.953v-3.316c0-.766-.0469-1.437-.1406-2.016-.0859-.585-.2148-1.085-.3867-1.5-.1719-.414-.3907-.75-.6563-1.007-.2578-.258-.5586-.446-.9023-.563-.336-.125-.7149-.187-1.1367-.187-.5157 0-.9727.097-1.3711.293-.3985.187-.7344.488-1.0078.902-.2657.414-.4688.957-.6094 1.629s-.211 1.488-.211 2.449v3.316c0 .766.043 1.442.1289 2.028.0938.586.2305 1.094.4102 1.523.1797.422.3984.77.6563 1.043.2578.274.5546.477.8906.61.3437.125.7226.187 1.1367.187.5312 0 .9961-.101 1.3945-.305.3985-.203.7305-.519.9961-.949.2735-.437.4766-.996.6094-1.676.1328-.687.1992-1.507.1992-2.461zm15.6797-2.953v2.602c0 1.398-.125 2.578-.375 3.539s-.6094 1.734-1.0781 2.32c-.4688.586-1.0352 1.012-1.6992 1.278-.6563.257-1.3985.386-2.2266.386-.6562 0-1.2617-.082-1.8164-.246s-1.0547-.426-1.5-.785c-.4375-.367-.8125-.844-1.125-1.43-.3125-.585-.5508-1.296-.7148-2.132-.1641-.836-.2461-1.813-.2461-2.93v-2.602c0-1.398.125-2.57.375-3.515.2578-.946.6211-1.703 1.0898-2.274.4687-.578 1.0313-.992 1.6875-1.242.6641-.25 1.4062-.375 2.2266-.375.664 0 1.2734.082 1.8281.246.5625.156 1.0625.41 1.5.762.4375.344.8086.805 1.1133 1.383.3125.57.5508 1.269.7148 2.097.1641.829.2461 1.801.2461 2.918zm-2.1797 2.953v-3.316c0-.766-.0469-1.437-.1406-2.016-.0859-.585-.2148-1.085-.3867-1.5-.1719-.414-.3907-.75-.6563-1.007-.2578-.258-.5586-.446-.9023-.563-.336-.125-.7149-.187-1.1367-.187-.5157 0-.9727.097-1.3711.293-.3985.187-.7344.488-1.0078.902-.2657.414-.4688.957-.6094 1.629s-.211 1.488-.211 2.449v3.316c0 .766.043 1.442.1289 2.028.0938.586.2305 1.094.4102 1.523.1797.422.3984.77.6563 1.043.2578.274.5546.477.8906.61.3437.125.7226.187 1.1367.187.5312 0 .9961-.101 1.3945-.305.3985-.203.7305-.519.9961-.949.2735-.437.4766-.996.6094-1.676.1328-.687.1992-1.507.1992-2.461zm15.6797-2.953v2.602c0 1.398-.125 2.578-.375 3.539s-.6094 1.734-1.0781 2.32c-.4688.586-1.0352 1.012-1.6992 1.278-.6563.257-1.3985.386-2.2266.386-.6562 0-1.2617-.082-1.8164-.246s-1.0547-.426-1.5-.785c-.4375-.367-.8125-.844-1.125-1.43-.3125-.585-.5508-1.296-.7148-2.132-.1641-.836-.2461-1.813-.2461-2.93v-2.602c0-1.398.125-2.57.375-3.515.2578-.946.6211-1.703 1.0898-2.274.4687-.578 1.0313-.992 1.6875-1.242.6641-.25 1.4062-.375 2.2266-.375.664 0 1.2734.082 1.8281.246.5625.156 1.0625.41 1.5.762.4375.344.8086.805 1.1133 1.383.3125.57.5508 1.269.7148 2.097.1641.829.2461 1.801.2461 2.918zm-2.1797 2.953v-3.316c0-.766-.0469-1.437-.1406-2.016-.0859-.585-.2148-1.085-.3867-1.5-.1719-.414-.3907-.75-.6563-1.007-.2578-.258-.5586-.446-.9023-.563-.336-.125-.7149-.187-1.1367-.187-.5157 0-.9727.097-1.3711.293-.3985.187-.7344.488-1.0078.902-.2657.414-.4688.957-.6094 1.629s-.211 1.488-.211 2.449v3.316c0 .766.043 1.442.1289 2.028.0938.586.2305 1.094.4102 1.523.1797.422.3984.77.6563 1.043.2578.274.5546.477.8906.61.3437.125.7226.187 1.1367.187.5312 0 .9961-.101 1.3945-.305.3985-.203.7305-.519.9961-.949.2735-.437.4766-.996.6094-1.676.1328-.687.1992-1.507.1992-2.461z" fill="#fdfbf5"/><path d="m73.6289 412.109v2.602c0 1.398-.125 2.578-.375 3.539s-.6094 1.734-1.0781 2.32c-.4688.586-1.0352 1.012-1.6992 1.278-.6563.257-1.3985.386-2.2266.386-.6562 0-1.2617-.082-1.8164-.246s-1.0547-.426-1.5-.785c-.4375-.367-.8125-.844-1.125-1.43-.3125-.585-.5508-1.296-.7148-2.132-.1641-.836-.2461-1.813-.2461-2.93v-2.602c0-1.398.125-2.57.375-3.515.2578-.946.6211-1.703 1.0898-2.274.4687-.578 1.0313-.992 1.6875-1.242.6641-.25 1.4062-.375 2.2266-.375.664 0 1.2734.082 1.8281.246.5625.156 1.0625.41 1.5.762.4375.344.8086.805 1.1133 1.383.3125.57.5508 1.269.7148 2.097.1641.829.2461 1.801.2461 2.918zm-2.1797 2.953v-3.316c0-.766-.0469-1.437-.1406-2.016-.0859-.585-.2148-1.085-.3867-1.5-.1719-.414-.3907-.75-.6563-1.007-.2578-.258-.5586-.446-.9023-.563-.336-.125-.7149-.187-1.1367-.187-.5157 0-.9727.097-1.3711.293-.3985.187-.7344.488-1.0078.902-.2657.414-.4688.957-.6094 1.629s-.211 1.488-.211 2.449v3.316c0 .766.043 1.442.1289 2.028.0938.586.2305 1.094.4102 1.523.1797.422.3984.77.6563 1.043.2578.274.5546.477.8906.61.3437.125.7226.187 1.1367.187.5312 0 .9961-.101 1.3945-.305.3985-.203.7305-.519.9961-.949.2735-.437.4766-.996.6094-1.676.1328-.687.1992-1.507.1992-2.461z" fill="#fdfbf5"/></svg>