<svg fill="none" height="567" viewBox="0 0 1207 567" width="1207" xmlns="http://www.w3.org/2000/svg"><path d="m37.952 10.264h-1.2v10.8h1.2v3.936h-9.072v-3.936h1.152v-8.4l-4.08 12.336h-3.552l-4.2-12.216v8.28h1.152v3.936h-7.872v-3.936h1.2v-10.8h-1.2v-3.936h10.992l2.496 7.488 2.4-7.488h10.584zm.9499 14.736v-3.936h1.2v-10.8h-1.2v-3.936h16.2v7.248h-5.376v-3.312h-2.904v3.792h2.112v2.736h-2.112v4.272h2.904v-3.792h5.376v7.728zm43.5814-14.736h-1.2v10.8h1.2v3.936h-9.072v-3.936h1.152v-8.4l-4.08 12.336h-3.552l-4.2-12.216v8.28h1.152v3.936h-7.872v-3.936h1.2v-10.8h-1.2v-3.936h10.992l2.496 7.488 2.4-7.488h10.584zm.9498 10.8h1.2v-10.8h-1.2v-3.936h11.016c2 0 3.56.408 4.68 1.224 1.1199.816 1.6799 1.984 1.6799 3.504 0 .944-.224 1.744-.672 2.4-.4479.64-.9759 1.128-1.5839 1.464-.592.32-1.168.536-1.728.648v.24c1.136.112 2.16.472 3.072 1.08.9119.608 1.3679 1.696 1.3679 3.264 0 1.68-.632 2.912-1.8959 3.696-1.264.768-2.904 1.152-4.92 1.152h-11.016zm9.216-6.864c.464 0 .808-.12 1.032-.36.24-.256.36-.648.36-1.176v-.864c0-.528-.12-.912-.36-1.152-.224-.256-.568-.384-1.032-.384h-1.296v3.936zm.168 6.864c.464 0 .808-.12 1.032-.36.24-.256.36-.648.36-1.176v-1.056c0-.528-.12-.912-.36-1.152-.224-.256-.568-.384-1.032-.384h-1.464v4.128zm9.2259 3.936v-3.936h1.2v-10.8h-1.2v-3.936h16.2v7.248h-5.376v-3.312h-2.904v3.792h2.112v2.736h-2.112v4.272h2.904v-3.792h5.376v7.728zm17.109-3.936h1.2v-10.8h-1.2v-3.936h11.016c2.064 0 3.64.424 4.728 1.272s1.632 2.224 1.632 4.128c0 1.072-.216 2-.648 2.784s-1.048 1.328-1.848 1.632l.024.24c1.536.24 2.304 1.184 2.304 2.832v1.848h1.128v3.936h-7.608v-5.64c0-.624-.096-1.096-.288-1.416-.176-.32-.464-.536-.864-.648-.384-.112-.936-.168-1.656-.168v3.936h1.584v3.936h-9.504zm9.216-6.864c.464 0 .808-.12 1.032-.36.24-.256.36-.648.36-1.176v-.864c0-.528-.12-.912-.36-1.152-.224-.256-.568-.384-1.032-.384h-1.296v3.936zm17.419 11.136c-1.536 0-2.992-.128-4.368-.384-1.36-.272-2.408-.576-3.144-.912v-4.752h5.28c0 .496.112.856.336 1.08s.632.336 1.224.336c.496 0 .848-.072 1.056-.216.224-.16.336-.392.336-.696 0-.256-.104-.472-.312-.648-.208-.192-.568-.384-1.08-.576l-2.064-.72c-1.776-.672-3.056-1.464-3.84-2.376-.768-.912-1.152-2.144-1.152-3.696 0-1.888.616-3.32 1.848-4.296 1.248-.992 3.32-1.488 6.216-1.488 1.392 0 2.696.144 3.912.432 1.232.272 2.224.64 2.976 1.104v4.296h-4.8c0-.8-.496-1.2-1.488-1.2-.48 0-.824.064-1.032.192-.192.112-.288.32-.288.624 0 .272.112.488.336.648.24.16.624.328 1.152.504l2.088.72c1.696.576 2.928 1.328 3.696 2.256.784.912 1.176 2.112 1.176 3.6 0 2.032-.688 3.568-2.064 4.608-1.36 1.04-3.36 1.56-6 1.56z" fill="#fdfbf5"/><path d="m23.1055 53.9375v17.0625h-2.2735l-8.5898-13.1602v13.1602h-2.26173v-17.0625h2.26173l8.625 13.1953v-13.1953zm8.9414 17.2969c-.8828 0-1.6836-.1485-2.4024-.4453-.7109-.3047-1.3242-.7305-1.8398-1.2774-.5078-.5469-.8985-1.1953-1.1719-1.9453s-.4101-1.5703-.4101-2.4609v-.4922c0-1.0313.1523-1.9492.457-2.7539.3047-.8125.7187-1.5 1.2422-2.0625.5234-.5625 1.1172-.9883 1.7812-1.2774.6641-.289 1.3516-.4336 2.0625-.4336.9063 0 1.6875.1563 2.3438.4688.664.3125 1.207.75 1.6289 1.3125.4219.5547.7344 1.2109.9375 1.9687.2031.75.3047 1.5703.3047 2.461v.9726h-9.4688v-1.7695h7.3008v-.1641c-.0313-.5625-.1484-1.1093-.3516-1.6406-.1953-.5312-.5078-.9687-.9375-1.3125-.4296-.3437-1.0156-.5156-1.7578-.5156-.4922 0-.9453.1055-1.3594.3164-.414.2031-.7695.5078-1.0664.9141-.2968.4062-.5273.9023-.6914 1.4882-.164.586-.2461 1.2618-.2461 2.0274v.4922c0 .6015.0821 1.1679.2461 1.6992.1719.5234.418.9844.7383 1.3828.3281.3984.7227.7109 1.1836.9375.4688.2266 1 .3398 1.5938.3398.7656 0 1.414-.1562 1.9453-.4687.5312-.3125.9961-.7305 1.3945-1.2539l1.3125 1.043c-.2734.414-.6211.8086-1.043 1.1836-.4218.375-.9414.6796-1.5586.914-.6093.2344-1.332.3516-2.1679.3516zm10.6758-2.4844 3.2578-10.4297h1.4297l-.2813 2.0742-3.3164 10.6055h-1.3945zm-2.1915-10.4297 2.7774 10.5469.1992 2.1328h-1.4648l-3.6797-12.6797zm9.9961 10.4649 2.6485-10.4649h2.1562l-3.6797 12.6797h-1.4531zm-2.8007-10.4649 3.1875 10.2539.3632 2.4258h-1.3828l-3.4101-10.6289-.2813-2.0508zm17.9414 2.5195v10.1602h-2.1797v-12.6797h2.0625zm-.4453 3.3399-1.0079-.0352c.0079-.8672.1211-1.6679.3399-2.4023.2187-.7422.543-1.3867.9726-1.9336.4297-.5469.9649-.9688 1.6055-1.2656.6406-.3047 1.3828-.4571 2.2266-.4571.5937 0 1.1406.086 1.6406.2579.5.164.9336.4257 1.3008.7851s.6523.8203.8554 1.3828c.2032.5625.3047 1.2422.3047 2.0391v8.4492h-2.1679v-8.3438c0-.664-.1133-1.1953-.3399-1.5937-.2187-.3984-.5312-.6875-.9375-.8672-.4062-.1875-.8828-.2812-1.4297-.2812-.6406 0-1.1757.1132-1.6054.3398s-.7735.5391-1.0313.9375-.4453.8555-.5625 1.3711c-.1094.5078-.164 1.0469-.164 1.6172zm8.2148-1.1953-1.4531.4453c.0078-.6953.1211-1.3633.3398-2.0039.2266-.6406.5508-1.211.9727-1.711.4297-.5.957-.8945 1.582-1.1836.625-.2968 1.3399-.4453 2.1445-.4453.6797 0 1.2813.0899 1.8047.2696.5313.1797.9766.457 1.336.832.3671.3672.6445.8398.832 1.418.1875.5781.2812 1.2656.2812 2.0625v8.332h-2.1796v-8.3555c0-.7109-.1133-1.2617-.3399-1.6523-.2187-.3984-.5312-.6758-.9375-.832-.3984-.1641-.875-.2461-1.4297-.2461-.4765 0-.8984.082-1.2656.2461-.3672.164-.6758.3906-.9258.6796-.25.2813-.4414.6055-.5742.9727-.125.3672-.1875.7578-.1875 1.1719zm16.3828 8.25c-.8828 0-1.6836-.1485-2.4023-.4453-.711-.3047-1.3242-.7305-1.8399-1.2774-.5078-.5469-.8984-1.1953-1.1719-1.9453-.2734-.75-.4101-1.5703-.4101-2.4609v-.4922c0-1.0313.1523-1.9492.457-2.7539.3047-.8125.7188-1.5 1.2422-2.0625.5235-.5625 1.1172-.9883 1.7813-1.2774.664-.289 1.3515-.4336 2.0625-.4336.9062 0 1.6875.1563 2.3437.4688.6641.3125 1.207.75 1.6289 1.3125.4219.5547.7344 1.2109.9375 1.9687.2031.75.3047 1.5703.3047 2.461v.9726h-9.4687v-1.7695h7.3007v-.1641c-.0312-.5625-.1484-1.1093-.3515-1.6406-.1953-.5312-.5078-.9687-.9375-1.3125-.4297-.3437-1.0157-.5156-1.7578-.5156-.4922 0-.9453.1055-1.3594.3164-.4141.2031-.7695.5078-1.0664.9141-.2969.4062-.5274.9023-.6914 1.4882-.1641.586-.2461 1.2618-.2461 2.0274v.4922c0 .6015.082 1.1679.2461 1.6992.1719.5234.4179.9844.7383 1.3828.3281.3984.7226.7109 1.1836.9375.4687.2266 1 .3398 1.5937.3398.7656 0 1.4141-.1562 1.9453-.4687.5313-.3125.9961-.7305 1.3945-1.2539l1.3125 1.043c-.2734.414-.621.8086-1.0429 1.1836s-.9414.6796-1.5586.914c-.6094.2344-1.3321.3516-2.168.3516zm9.6211-10.3946v10.1602h-2.1797v-12.6797h2.0625zm-.4453 3.3399-1.0078-.0352c.0078-.8672.1211-1.6679.3398-2.4023.2188-.7422.543-1.3867.9727-1.9336s.9652-.9688 1.6052-1.2656c.641-.3047 1.383-.4571 2.227-.4571.594 0 1.14.086 1.64.2579.5.164.934.4257 1.301.7851s.653.8203.856 1.3828.304 1.2422.304 2.0391v8.4492h-2.168v-8.3438c0-.664-.113-1.1953-.339-1.5937-.219-.3984-.532-.6875-.938-.8672-.406-.1875-.883-.2812-1.43-.2812-.64 0-1.175.1132-1.605.3398s-.7735.5391-1.0313.9375c-.2579.3984-.4454.8555-.5625 1.3711-.1094.5078-.1641 1.0469-.1641 1.6172zm8.2149-1.1953-1.453.4453c.008-.6953.121-1.3633.34-2.0039.226-.6406.55-1.211.972-1.711.43-.5.957-.8945 1.582-1.1836.625-.2968 1.34-.4453 2.145-.4453.68 0 1.281.0899 1.805.2696.531.1797.976.457 1.336.832.367.3672.644.8398.832 1.418.187.5781.281 1.2656.281 2.0625v8.332h-2.18v-8.3555c0-.7109-.113-1.2617-.34-1.6523-.219-.3984-.531-.6758-.937-.832-.399-.1641-.875-.2461-1.43-.2461-.476 0-.898.082-1.266.2461-.367.164-.675.3906-.925.6796-.25.2813-.442.6055-.575.9727-.125.3672-.187.7578-.187 1.1719zm11.109-9.9844h2.18v15.5391l-.188 2.4609h-1.992zm10.746 11.5547v.2461c0 .9219-.109 1.7773-.328 2.5664-.218.7812-.539 1.4609-.961 2.039-.422.5782-.937 1.0274-1.547 1.3477-.609.3203-1.308.4805-2.097.4805-.805 0-1.512-.1367-2.121-.4102-.602-.2812-1.11-.6836-1.524-1.207s-.746-1.1563-.996-1.8984c-.242-.7422-.41-1.5782-.504-2.5079v-1.0781c.094-.9375.262-1.7773.504-2.5195.25-.7422.582-1.375.996-1.8985.414-.5312.922-.9336 1.524-1.207.601-.2812 1.3-.4219 2.097-.4219s1.504.1563 2.121.4688c.618.3047 1.133.7422 1.547 1.3125.422.5703.743 1.2539.961 2.0508.219.789.328 1.6679.328 2.6367zm-2.179.2461v-.2461c0-.6328-.059-1.2266-.176-1.7813-.117-.5625-.305-1.0546-.563-1.4765-.257-.4297-.597-.7657-1.019-1.0078-.422-.25-.941-.375-1.559-.375-.547 0-1.023.0937-1.429.2812-.399.1875-.739.4414-1.02.7617-.281.3125-.512.6719-.691 1.0782-.172.3984-.301.8125-.387 1.2421v2.8243c.125.5468.328 1.0742.609 1.582.289.5.672.9102 1.149 1.2305.484.3203 1.082.4804 1.793.4804.586 0 1.086-.1172 1.5-.3515.422-.2422.761-.5742 1.019-.9961.266-.4219.461-.9102.586-1.4649s.188-1.1484.188-1.7812zm10.183 6.4336c-.882 0-1.683-.1485-2.402-.4453-.711-.3047-1.324-.7305-1.84-1.2774-.508-.5469-.898-1.1953-1.172-1.9453-.273-.75-.41-1.5703-.41-2.4609v-.4922c0-1.0313.152-1.9492.457-2.7539.305-.8125.719-1.5 1.242-2.0625.524-.5625 1.117-.9883 1.782-1.2774.664-.289 1.351-.4336 2.062-.4336.906 0 1.688.1563 2.344.4688.664.3125 1.207.75 1.629 1.3125.422.5547.734 1.2109.937 1.9687.203.75.305 1.5703.305 2.461v.9726h-9.469v-1.7695h7.301v-.1641c-.031-.5625-.148-1.1093-.352-1.6406-.195-.5312-.507-.9687-.937-1.3125-.43-.3437-1.016-.5156-1.758-.5156-.492 0-.945.1055-1.359.3164-.414.2031-.77.5078-1.067.9141-.297.4062-.527.9023-.691 1.4882-.164.586-.246 1.2618-.246 2.0274v.4922c0 .6015.082 1.1679.246 1.6992.172.5234.418.9844.738 1.3828.328.3984.723.7109 1.184.9375.468.2266 1 .3398 1.594.3398.765 0 1.414-.1562 1.945-.4687s.996-.7305 1.394-1.2539l1.313 1.043c-.274.414-.621.8086-1.043 1.1836s-.942.6796-1.559.914c-.609.2344-1.332.3516-2.168.3516zm9.633-10.9219v10.6875h-2.168v-12.6797h2.11zm3.961-2.0625-.012 2.0156c-.179-.039-.351-.0625-.515-.0703-.157-.0156-.336-.0234-.539-.0234-.5 0-.942.0781-1.325.2343-.382.1563-.707.375-.972.6563-.266.2813-.477.6172-.633 1.0078-.148.3828-.246.8047-.293 1.2656l-.609.3516c0-.7656.074-1.4844.222-2.1563.157-.6718.395-1.2656.715-1.7812.32-.5234.727-.9297 1.219-1.2188.5-.2968 1.094-.4453 1.781-.4453.156 0 .336.0196.539.0586.203.0313.344.0664.422.1055zm9.387 9.3867c0-.3125-.071-.6015-.211-.8672-.133-.2734-.41-.5195-.832-.7383-.414-.2265-1.039-.4218-1.875-.5859-.703-.1484-1.34-.3242-1.91-.5273-.563-.2032-1.043-.4492-1.442-.7383-.39-.2891-.691-.6289-.902-1.0195-.211-.3907-.317-.8477-.317-1.3711 0-.5.11-.9727.329-1.418.226-.4453.543-.8399.949-1.1836.414-.3437.91-.6133 1.488-.8086s1.223-.293 1.934-.293c1.015 0 1.883.1797 2.601.5391.719.3594 1.27.8398 1.653 1.4414.382.5938.574 1.2539.574 1.9805h-2.168c0-.3516-.106-.6914-.317-1.0196-.203-.3359-.503-.6132-.902-.832-.391-.2187-.871-.3281-1.441-.3281-.602 0-1.09.0937-1.465.2812-.367.1797-.637.4102-.809.6914-.164.2813-.246.5782-.246.8907 0 .2343.039.4453.117.6328.086.1797.235.3476.446.5039.211.1484.507.289.89.4219.383.1328.871.2656 1.465.3984 1.039.2344 1.895.5156 2.567.8437.671.3282 1.171.7305 1.5 1.2071.328.4765.492 1.0547.492 1.7344 0 .5546-.117 1.0625-.352 1.5234-.226.4609-.558.8594-.996 1.1953-.43.3281-.945.5859-1.547.7734-.594.1797-1.262.2696-2.004.2696-1.117 0-2.062-.1992-2.836-.5977-.773-.3984-1.359-.914-1.757-1.5469-.399-.6328-.598-1.3007-.598-2.0039h2.18c.031.5938.203 1.0664.515 1.418.313.3438.696.5899 1.149.7383.453.1406.902.2109 1.347.2109.594 0 1.09-.0781 1.489-.2343.406-.1563.714-.3711.925-.6446.211-.2734.317-.5859.317-.9375zm13.137-6.8789v15.1172h-2.18v-17.5547h1.992zm8.542 3.7969v.2461c0 .9219-.109 1.7773-.328 2.5664-.218.7812-.539 1.4609-.961 2.039-.414.5782-.925 1.0274-1.535 1.3477-.609.3203-1.308.4805-2.097.4805-.805 0-1.516-.1328-2.133-.3985-.617-.2656-1.141-.6523-1.571-1.1601-.429-.5078-.773-1.1172-1.031-1.8281-.25-.711-.422-1.5118-.515-2.4024v-1.3125c.093-.9375.269-1.7773.527-2.5195s.598-1.375 1.019-1.8985c.43-.5312.95-.9336 1.559-1.207.609-.2812 1.313-.4219 2.109-.4219.797 0 1.504.1563 2.122.4688.617.3047 1.136.7422 1.558 1.3125s.738 1.2539.949 2.0508c.219.789.328 1.6679.328 2.6367zm-2.179.2461v-.2461c0-.6328-.067-1.2266-.199-1.7813-.133-.5625-.34-1.0546-.622-1.4765-.273-.4297-.625-.7657-1.054-1.0078-.43-.25-.942-.375-1.535-.375-.547 0-1.024.0937-1.43.2812-.399.1875-.738.4414-1.02.7617-.281.3125-.511.6719-.691 1.0782-.172.3984-.301.8125-.387 1.2421v3.0352c.157.5469.375 1.0625.657 1.5469.281.4765.656.8633 1.125 1.1601.468.2891 1.058.4336 1.769.4336.586 0 1.09-.1211 1.512-.3633.429-.25.781-.5898 1.054-1.0195.282-.4297.489-.9219.622-1.4765.132-.5626.199-1.1602.199-1.793zm10.207 6.4336c-.883 0-1.684-.1485-2.403-.4453-.71-.3047-1.324-.7305-1.839-1.2774-.508-.5469-.899-1.1953-1.172-1.9453-.274-.75-.41-1.5703-.41-2.4609v-.4922c0-1.0313.152-1.9492.457-2.7539.304-.8125.718-1.5 1.242-2.0625.523-.5625 1.117-.9883 1.781-1.2774.664-.289 1.352-.4336 2.063-.4336.906 0 1.687.1563 2.343.4688.664.3125 1.207.75 1.629 1.3125.422.5547.735 1.2109.938 1.9687.203.75.304 1.5703.304 2.461v.9726h-9.468v-1.7695h7.3v-.1641c-.031-.5625-.148-1.1093-.351-1.6406-.195-.5312-.508-.9687-.938-1.3125-.429-.3437-1.015-.5156-1.757-.5156-.493 0-.946.1055-1.36.3164-.414.2031-.769.5078-1.066.9141-.297.4062-.528.9023-.692 1.4882-.164.586-.246 1.2618-.246 2.0274v.4922c0 .6015.082 1.1679.246 1.6992.172.5234.418.9844.739 1.3828.328.3984.722.7109 1.183.9375.469.2266 1 .3398 1.594.3398.766 0 1.414-.1562 1.945-.4687.532-.3125.996-.7305 1.395-1.2539l1.312 1.043c-.273.414-.621.8086-1.043 1.1836s-.941.6796-1.558.914c-.61.2344-1.332.3516-2.168.3516zm9.633-10.9219v10.6875h-2.168v-12.6797h2.109zm3.961-2.0625-.012 2.0156c-.18-.039-.352-.0625-.516-.0703-.156-.0156-.336-.0234-.539-.0234-.5 0-.941.0781-1.324.2343-.383.1563-.707.375-.973.6563-.265.2813-.476.6172-.633 1.0078-.148.3828-.246.8047-.293 1.2656l-.609.3516c0-.7656.074-1.4844.223-2.1563.156-.6718.394-1.2656.715-1.7812.32-.5234.726-.9297 1.218-1.2188.5-.2968 1.094-.4453 1.782-.4453.156 0 .336.0196.539.0586.203.0313.343.0664.422.1055zm11.519 11.4375 3.527-11.3672h2.321l-5.086 14.6367c-.117.3125-.274.6485-.469 1.0078-.187.3672-.43.7149-.726 1.043-.297.3281-.657.5938-1.079.7969-.414.2109-.91.3164-1.488.3164-.172 0-.391-.0234-.656-.0703-.266-.0469-.453-.086-.563-.1172l-.011-1.7578c.062.0078.16.0156.293.0234.14.0156.238.0235.293.0235.492 0 .91-.0665 1.253-.1993.344-.125.633-.3398.868-.6445.242-.2969.449-.707.621-1.2305zm-2.59-11.3672 3.293 9.8438.563 2.2851-1.559.7969-4.664-12.9258zm15.492 12.9141c-.882 0-1.683-.1485-2.402-.4453-.711-.3047-1.324-.7305-1.84-1.2774-.508-.5469-.898-1.1953-1.172-1.9453-.273-.75-.41-1.5703-.41-2.4609v-.4922c0-1.0313.153-1.9492.457-2.7539.305-.8125.719-1.5 1.242-2.0625.524-.5625 1.118-.9883 1.782-1.2774.664-.289 1.351-.4336 2.062-.4336.906 0 1.688.1563 2.344.4688.664.3125 1.207.75 1.629 1.3125.422.5547.734 1.2109.937 1.9687.203.75.305 1.5703.305 2.461v.9726h-9.469v-1.7695h7.301v-.1641c-.031-.5625-.148-1.1093-.351-1.6406-.196-.5312-.508-.9687-.938-1.3125-.43-.3437-1.016-.5156-1.758-.5156-.492 0-.945.1055-1.359.3164-.414.2031-.77.5078-1.067.9141-.296.4062-.527.9023-.691 1.4882-.164.586-.246 1.2618-.246 2.0274v.4922c0 .6015.082 1.1679.246 1.6992.172.5234.418.9844.738 1.3828.328.3984.723.7109 1.184.9375.469.2266 1 .3398 1.594.3398.765 0 1.414-.1562 1.945-.4687s.996-.7305 1.394-1.2539l1.313 1.043c-.273.414-.621.8086-1.043 1.1836s-.941.6796-1.559.914c-.609.2344-1.332.3516-2.168.3516zm14.942-2.4024v-6.5273c0-.5-.102-.9336-.305-1.3008-.195-.375-.492-.6641-.89-.8672-.399-.2031-.891-.3047-1.477-.3047-.547 0-1.027.0938-1.441.2813-.407.1875-.727.4336-.961.7383-.227.3046-.34.6328-.34.9843h-2.168c0-.4531.117-.9023.351-1.3476.235-.4453.571-.8477 1.008-1.2071.446-.3671.977-.6562 1.594-.8671.625-.2188 1.32-.3282 2.086-.3282.922 0 1.734.1563 2.437.4688.711.3125 1.266.7851 1.664 1.418.407.625.61 1.4101.61 2.3554v5.9063c0 .4218.035.8711.105 1.3476.078.4766.192.8868.34 1.2305v.1875h-2.262c-.109-.25-.195-.582-.257-.9961-.063-.4219-.094-.8125-.094-1.1719zm.375-5.5195.023 1.5234h-2.191c-.617 0-1.168.0508-1.652.1524-.485.0937-.891.2383-1.219.4336s-.578.4414-.75.7383c-.172.289-.258.6289-.258 1.0195 0 .3984.09.7617.269 1.0898.18.3282.45.5899.809.7852.367.1875.817.2812 1.348.2812.664 0 1.25-.1406 1.758-.4218.507-.2813.91-.625 1.207-1.0313.304-.4062.468-.8008.492-1.1836l.926 1.043c-.055.3281-.204.6914-.446 1.0898-.242.3985-.566.7813-.972 1.1485-.399.3593-.875.6601-1.43.9023-.547.2344-1.164.3516-1.852.3516-.859 0-1.613-.168-2.261-.5039-.641-.336-1.141-.7852-1.5-1.3477-.352-.5703-.528-1.207-.528-1.9101 0-.6797.133-1.2774.399-1.793.265-.5235.648-.957 1.148-1.3008.5-.3516 1.102-.6172 1.805-.7969s1.488-.2695 2.355-.2695zm7.371-3v10.6875h-2.168v-12.6797h2.109zm3.961-2.0625-.012 2.0156c-.18-.039-.351-.0625-.515-.0703-.157-.0156-.336-.0234-.54-.0234-.5 0-.941.0781-1.324.2343-.383.1563-.707.375-.972.6563-.266.2813-.477.6172-.633 1.0078-.149.3828-.246.8047-.293 1.2656l-.61.3516c0-.7656.075-1.4844.223-2.1563.156-.6718.395-1.2656.715-1.7812.32-.5234.727-.9297 1.219-1.2188.5-.2968 1.093-.4453 1.781-.4453.156 0 .336.0196.539.0586.203.0313.344.0664.422.1055zm1.91 11.6016c0-.3672.113-.6758.34-.9258.234-.2578.57-.3867 1.008-.3867.437 0 .769.1289.996.3867.234.25.351.5586.351.9258 0 .3593-.117.664-.351.914-.227.25-.559.375-.996.375-.438 0-.774-.125-1.008-.375-.227-.25-.34-.5547-.34-.914zm.012-10.3477c0-.3672.113-.6758.34-.9258.234-.2578.57-.3867 1.007-.3867.438 0 .77.1289.997.3867.234.25.351.5586.351.9258 0 .3594-.117.6641-.351.9141-.227.25-.559.375-.997.375-.437 0-.773-.125-1.007-.375-.227-.25-.34-.5547-.34-.9141z" fill="#fdfbf5"/><g fill="#75fbcf"><path d="m127 470h80v55.4h-80z"/><path d="m227 446.2h80v79.2h-80z"/><path d="m327 423.8h80v101.6h-80z"/><path d="m427 354.9h80v170.5h-80z"/><path d="m527 252.1h80v273.3h-80z"/><path d="m627 200h80v325.4h-80z"/><path d="m727 352.4h80v173h-80z"/><path d="m827 404.7h80v120.7h-80z"/><path d="m927 347.9h80v177.5h-80z"/><path d="m1027 295h80v230.4h-80z"/><path d="m1127 295.4h80v230h-80z"/></g><path d="m135.254 564.28c0-1.147.166-2.16.5-3.04.346-.88.906-1.707 1.68-2.48.773-.787 1.84-1.6 3.2-2.44.4-.253.68-.467.84-.64.173-.187.26-.407.26-.66 0-.547-.394-.82-1.18-.82-.587 0-1.26.153-2.02.46s-1.447.693-2.06 1.16l-1.18-4.26c.853-.427 1.833-.787 2.94-1.08 1.106-.307 2.22-.46 3.34-.46 1.84 0 3.266.407 4.28 1.22 1.013.813 1.52 1.967 1.52 3.46 0 .8-.18 1.507-.54 2.12-.347.6-.774 1.107-1.28 1.52-.494.413-1.14.887-1.94 1.42-.894.587-1.554 1.093-1.98 1.52-.414.413-.62.893-.62 1.44h2.42v-1.14h4.1v4.42h-12.28zm24.068 2c-2.253 0-3.993-.64-5.22-1.92-1.213-1.28-1.82-3.327-1.82-6.14s.607-4.86 1.82-6.14c1.227-1.28 2.967-1.92 5.22-1.92s3.987.64 5.2 1.92c1.227 1.28 1.84 3.327 1.84 6.14 0 2.6-.567 4.593-1.7 5.98-1.12 1.387-2.9 2.08-5.34 2.08zm0-3.56c.907 0 1.36-.493 1.36-1.48v-6.04c0-.987-.453-1.48-1.36-1.48s-1.36.493-1.36 1.48v6.04c0 .987.453 1.48 1.36 1.48zm12.208 3.28v-3.28h1.92v-9h-2.52v-2.26l4.44-1.02h3.36v12.28h1.68v3.28zm20.43 0v-2.5h-6.5v-3.28l6.9-9.78h4.88v10.02h1.38v3.04h-1.38v2.5zm-2.8-5.54h2.8v-3.94z" fill="#ea346c"/><path d="m235.683 564.28c0-1.147.167-2.16.5-3.04.347-.88.907-1.707 1.68-2.48.774-.787 1.84-1.6 3.2-2.44.4-.253.68-.467.84-.64.174-.187.26-.407.26-.66 0-.547-.393-.82-1.18-.82-.586 0-1.26.153-2.02.46s-1.446.693-2.06 1.16l-1.18-4.26c.854-.427 1.834-.787 2.94-1.08 1.107-.307 2.22-.46 3.34-.46 1.84 0 3.267.407 4.28 1.22 1.014.813 1.52 1.967 1.52 3.46 0 .8-.18 1.507-.54 2.12-.346.6-.773 1.107-1.28 1.52-.493.413-1.14.887-1.94 1.42-.893.587-1.553 1.093-1.98 1.52-.413.413-.62.893-.62 1.44h2.42v-1.14h4.1v4.42h-12.28zm24.069 2c-2.254 0-3.994-.64-5.22-1.92-1.214-1.28-1.82-3.327-1.82-6.14s.606-4.86 1.82-6.14c1.226-1.28 2.966-1.92 5.22-1.92 2.253 0 3.986.64 5.2 1.92 1.226 1.28 1.84 3.327 1.84 6.14 0 2.6-.567 4.593-1.7 5.98-1.12 1.387-2.9 2.08-5.34 2.08zm0-3.56c.906 0 1.36-.493 1.36-1.48v-6.04c0-.987-.454-1.48-1.36-1.48-.907 0-1.36.493-1.36 1.48v6.04c0 .987.453 1.48 1.36 1.48zm12.208 3.28v-3.28h1.92v-9h-2.52v-2.26l4.44-1.02h3.36v12.28h1.68v3.28zm21.709-10.28c1.494 0 2.634.44 3.42 1.32.787.88 1.18 2.073 1.18 3.58 0 1.133-.26 2.127-.78 2.98-.506.853-1.266 1.513-2.28 1.98-1.013.467-2.24.7-3.68.7-.973 0-1.946-.107-2.92-.32-.973-.227-1.84-.5-2.6-.82v-4.26c1.734.813 3.307 1.22 4.72 1.22.734 0 1.28-.147 1.64-.44.36-.307.54-.78.54-1.42 0-.467-.106-.833-.32-1.1-.213-.267-.553-.4-1.02-.4-.36 0-.653.093-.88.28-.213.173-.386.427-.52.76h-4.2l.86-9.34h10.64v3.88h-6.64l-.18 2.06c.84-.44 1.847-.66 3.02-.66z" fill="#ea346c"/><path d="m335.263 564.28c0-1.147.167-2.16.5-3.04.347-.88.907-1.707 1.68-2.48.774-.787 1.84-1.6 3.2-2.44.4-.253.68-.467.84-.64.174-.187.26-.407.26-.66 0-.547-.393-.82-1.18-.82-.586 0-1.26.153-2.02.46s-1.446.693-2.06 1.16l-1.18-4.26c.854-.427 1.834-.787 2.94-1.08 1.107-.307 2.22-.46 3.34-.46 1.84 0 3.267.407 4.28 1.22 1.014.813 1.52 1.967 1.52 3.46 0 .8-.18 1.507-.54 2.12-.346.6-.773 1.107-1.28 1.52-.493.413-1.14.887-1.94 1.42-.893.587-1.553 1.093-1.98 1.52-.413.413-.62.893-.62 1.44h2.42v-1.14h4.1v4.42h-12.28zm24.069 2c-2.254 0-3.994-.64-5.22-1.92-1.214-1.28-1.82-3.327-1.82-6.14s.606-4.86 1.82-6.14c1.226-1.28 2.966-1.92 5.22-1.92 2.253 0 3.986.64 5.2 1.92 1.226 1.28 1.84 3.327 1.84 6.14 0 2.6-.567 4.593-1.7 5.98-1.12 1.387-2.9 2.08-5.34 2.08zm0-3.56c.906 0 1.36-.493 1.36-1.48v-6.04c0-.987-.454-1.48-1.36-1.48-.907 0-1.36.493-1.36 1.48v6.04c0 .987.453 1.48 1.36 1.48zm12.208 3.28v-3.28h1.92v-9h-2.52v-2.26l4.44-1.02h3.36v12.28h1.68v3.28zm22.549-9.82c1.48 0 2.634.427 3.46 1.28.84.853 1.26 2.04 1.26 3.56 0 1.693-.56 2.993-1.68 3.9-1.106.907-2.673 1.36-4.7 1.36-2.346 0-4.093-.633-5.24-1.9-1.146-1.28-1.72-3.233-1.72-5.86 0-2.88.674-4.993 2.02-6.34 1.36-1.347 3.227-2.02 5.6-2.02.974 0 1.88.087 2.72.26.84.16 1.514.373 2.02.64v4.04c-.506-.227-1.086-.407-1.74-.54-.653-.147-1.346-.22-2.08-.22-1.906 0-2.86.707-2.86 2.12v.24c.414-.147.88-.267 1.4-.36.52-.107 1.034-.16 1.54-.16zm-1.58 6.54c.454 0 .794-.133 1.02-.4.227-.28.34-.713.34-1.3 0-.533-.12-.947-.36-1.24-.226-.307-.58-.46-1.06-.46-.453 0-.886.087-1.3.26v1.6c0 .533.114.927.34 1.18.227.24.567.36 1.02.36z" fill="#ea346c"/><path d="m435.713 564.28c0-1.147.166-2.16.5-3.04.346-.88.906-1.707 1.68-2.48.773-.787 1.84-1.6 3.2-2.44.4-.253.68-.467.84-.64.173-.187.26-.407.26-.66 0-.547-.394-.82-1.18-.82-.587 0-1.26.153-2.02.46s-1.447.693-2.06 1.16l-1.18-4.26c.853-.427 1.833-.787 2.94-1.08 1.106-.307 2.22-.46 3.34-.46 1.84 0 3.266.407 4.28 1.22 1.013.813 1.52 1.967 1.52 3.46 0 .8-.18 1.507-.54 2.12-.347.6-.774 1.107-1.28 1.52-.494.413-1.14.887-1.94 1.42-.894.587-1.554 1.093-1.98 1.52-.414.413-.62.893-.62 1.44h2.42v-1.14h4.1v4.42h-12.28zm24.068 2c-2.253 0-3.993-.64-5.22-1.92-1.213-1.28-1.82-3.327-1.82-6.14s.607-4.86 1.82-6.14c1.227-1.28 2.967-1.92 5.22-1.92s3.987.64 5.2 1.92c1.227 1.28 1.84 3.327 1.84 6.14 0 2.6-.567 4.593-1.7 5.98-1.12 1.387-2.9 2.08-5.34 2.08zm0-3.56c.907 0 1.36-.493 1.36-1.48v-6.04c0-.987-.453-1.48-1.36-1.48s-1.36.493-1.36 1.48v6.04c0 .987.453 1.48 1.36 1.48zm12.208 3.28v-3.28h1.92v-9h-2.52v-2.26l4.44-1.02h3.36v12.28h1.68v3.28zm16.01 0c0-1.187.246-2.5.74-3.94.506-1.44 1.14-2.833 1.9-4.18.76-1.36 1.526-2.547 2.3-3.56h-2.98v1.84h-4.2v-5.72h12.56v3.04c-.734 1.093-1.46 2.373-2.18 3.84-.707 1.453-1.3 2.953-1.78 4.5-.467 1.533-.7 2.927-.7 4.18z" fill="#ea346c"/><path d="m535.195 564.28c0-1.147.167-2.16.5-3.04.347-.88.907-1.707 1.68-2.48.773-.787 1.84-1.6 3.2-2.44.4-.253.68-.467.84-.64.173-.187.26-.407.26-.66 0-.547-.393-.82-1.18-.82-.587 0-1.26.153-2.02.46s-1.447.693-2.06 1.16l-1.18-4.26c.853-.427 1.833-.787 2.94-1.08 1.107-.307 2.22-.46 3.34-.46 1.84 0 3.267.407 4.28 1.22s1.52 1.967 1.52 3.46c0 .8-.18 1.507-.54 2.12-.347.6-.773 1.107-1.28 1.52-.493.413-1.14.887-1.94 1.42-.893.587-1.553 1.093-1.98 1.52-.413.413-.62.893-.62 1.44h2.42v-1.14h4.1v4.42h-12.28zm24.068 2c-2.253 0-3.993-.64-5.22-1.92-1.213-1.28-1.82-3.327-1.82-6.14s.607-4.86 1.82-6.14c1.227-1.28 2.967-1.92 5.22-1.92 2.254 0 3.987.64 5.2 1.92 1.227 1.28 1.84 3.327 1.84 6.14 0 2.6-.566 4.593-1.7 5.98-1.12 1.387-2.9 2.08-5.34 2.08zm0-3.56c.907 0 1.36-.493 1.36-1.48v-6.04c0-.987-.453-1.48-1.36-1.48-.906 0-1.36.493-1.36 1.48v6.04c0 .987.454 1.48 1.36 1.48zm12.209 3.28v-3.28h1.92v-9h-2.52v-2.26l4.44-1.02h3.36v12.28h1.68v3.28zm24.629-8.08c.747.267 1.387.713 1.92 1.34.547.613.82 1.427.82 2.44 0 1.507-.58 2.647-1.74 3.42-1.147.773-2.833 1.16-5.06 1.16s-3.92-.373-5.08-1.12c-1.147-.76-1.72-1.873-1.72-3.34 0-1.053.287-1.9.86-2.54.587-.64 1.28-1.093 2.08-1.36-.707-.253-1.3-.66-1.78-1.22-.48-.573-.72-1.307-.72-2.2 0-1.427.533-2.507 1.6-3.24 1.08-.733 2.667-1.1 4.76-1.1 2.08 0 3.653.367 4.72 1.1s1.6 1.813 1.6 3.24c0 .907-.213 1.64-.64 2.2s-.967.967-1.62 1.22zm-4.06-4.2c-.907 0-1.36.467-1.36 1.4 0 .88.453 1.32 1.36 1.32s1.36-.44 1.36-1.32c0-.933-.453-1.4-1.36-1.4zm0 9c1.04 0 1.56-.533 1.56-1.6 0-.533-.133-.94-.4-1.22s-.653-.42-1.16-.42-.893.14-1.16.42-.4.687-.4 1.22c0 1.067.52 1.6 1.56 1.6z" fill="#ea346c"/><path d="m635.263 564.28c0-1.147.167-2.16.5-3.04.347-.88.907-1.707 1.68-2.48.774-.787 1.84-1.6 3.2-2.44.4-.253.68-.467.84-.64.174-.187.26-.407.26-.66 0-.547-.393-.82-1.18-.82-.586 0-1.26.153-2.02.46s-1.446.693-2.06 1.16l-1.18-4.26c.854-.427 1.834-.787 2.94-1.08 1.107-.307 2.22-.46 3.34-.46 1.84 0 3.267.407 4.28 1.22 1.014.813 1.52 1.967 1.52 3.46 0 .8-.18 1.507-.54 2.12-.346.6-.773 1.107-1.28 1.52-.493.413-1.14.887-1.94 1.42-.893.587-1.553 1.093-1.98 1.52-.413.413-.62.893-.62 1.44h2.42v-1.14h4.1v4.42h-12.28zm24.069 2c-2.254 0-3.994-.64-5.22-1.92-1.214-1.28-1.82-3.327-1.82-6.14s.606-4.86 1.82-6.14c1.226-1.28 2.966-1.92 5.22-1.92 2.253 0 3.986.64 5.2 1.92 1.226 1.28 1.84 3.327 1.84 6.14 0 2.6-.567 4.593-1.7 5.98-1.12 1.387-2.9 2.08-5.34 2.08zm0-3.56c.906 0 1.36-.493 1.36-1.48v-6.04c0-.987-.454-1.48-1.36-1.48-.907 0-1.36.493-1.36 1.48v6.04c0 .987.453 1.48 1.36 1.48zm12.208 3.28v-3.28h1.92v-9h-2.52v-2.26l4.44-1.02h3.36v12.28h1.68v3.28zm20.069-15.84c2.374 0 4.14.64 5.3 1.92 1.16 1.267 1.74 3.213 1.74 5.84 0 2.88-.68 4.993-2.04 6.34-1.346 1.347-3.206 2.02-5.58 2.02-.973 0-1.88-.087-2.72-.26-.84-.16-1.513-.373-2.02-.64v-4.04c.507.227 1.087.413 1.74.56.654.133 1.347.2 2.08.2 1.907 0 2.86-.707 2.86-2.12v-.22c-.853.333-1.773.5-2.76.5-1.546 0-2.753-.413-3.62-1.24-.853-.84-1.28-2.007-1.28-3.5 0-1.773.547-3.107 1.64-4 1.094-.907 2.647-1.36 4.66-1.36zm-1.36 5.28c0 .533.114.947.34 1.24.24.293.6.44 1.08.44.454 0 .887-.087 1.3-.26v-1.6c0-.533-.113-.92-.34-1.16-.226-.253-.566-.38-1.02-.38-.453 0-.793.14-1.02.42-.226.28-.34.713-.34 1.3z" fill="#ea346c"/><path d="m733.603 564.28c0-1.147.167-2.16.5-3.04.347-.88.907-1.707 1.68-2.48.774-.787 1.84-1.6 3.2-2.44.4-.253.68-.467.84-.64.174-.187.26-.407.26-.66 0-.547-.393-.82-1.18-.82-.586 0-1.26.153-2.02.46s-1.446.693-2.06 1.16l-1.18-4.26c.854-.427 1.834-.787 2.94-1.08 1.107-.307 2.22-.46 3.34-.46 1.84 0 3.267.407 4.28 1.22 1.014.813 1.52 1.967 1.52 3.46 0 .8-.18 1.507-.54 2.12-.346.6-.773 1.107-1.28 1.52-.493.413-1.14.887-1.94 1.42-.893.587-1.553 1.093-1.98 1.52-.413.413-.62.893-.62 1.44h2.42v-1.14h4.1v4.42h-12.28zm24.069 2c-2.254 0-3.994-.64-5.22-1.92-1.214-1.28-1.82-3.327-1.82-6.14s.606-4.86 1.82-6.14c1.226-1.28 2.966-1.92 5.22-1.92 2.253 0 3.986.64 5.2 1.92 1.226 1.28 1.84 3.327 1.84 6.14 0 2.6-.567 4.593-1.7 5.98-1.12 1.387-2.9 2.08-5.34 2.08zm0-3.56c.906 0 1.36-.493 1.36-1.48v-6.04c0-.987-.454-1.48-1.36-1.48-.907 0-1.36.493-1.36 1.48v6.04c0 .987.453 1.48 1.36 1.48zm11.568 1.56c0-1.147.167-2.16.5-3.04.347-.88.907-1.707 1.68-2.48.773-.787 1.84-1.6 3.2-2.44.4-.253.68-.467.84-.64.173-.187.26-.407.26-.66 0-.547-.393-.82-1.18-.82-.587 0-1.26.153-2.02.46s-1.447.693-2.06 1.16l-1.18-4.26c.853-.427 1.833-.787 2.94-1.08 1.107-.307 2.22-.46 3.34-.46 1.84 0 3.267.407 4.28 1.22s1.52 1.967 1.52 3.46c0 .8-.18 1.507-.54 2.12-.347.6-.773 1.107-1.28 1.52-.493.413-1.14.887-1.94 1.42-.893.587-1.553 1.093-1.98 1.52-.413.413-.62.893-.62 1.44h2.42v-1.14h4.1v4.42h-12.28zm24.068 2c-2.253 0-3.993-.64-5.22-1.92-1.213-1.28-1.82-3.327-1.82-6.14s.607-4.86 1.82-6.14c1.227-1.28 2.967-1.92 5.22-1.92 2.254 0 3.987.64 5.2 1.92 1.227 1.28 1.84 3.327 1.84 6.14 0 2.6-.566 4.593-1.7 5.98-1.12 1.387-2.9 2.08-5.34 2.08zm0-3.56c.907 0 1.36-.493 1.36-1.48v-6.04c0-.987-.453-1.48-1.36-1.48-.906 0-1.36.493-1.36 1.48v6.04c0 .987.454 1.48 1.36 1.48z" fill="#ea346c"/><path d="m835.703 564.28c0-1.147.167-2.16.5-3.04.347-.88.907-1.707 1.68-2.48.773-.787 1.84-1.6 3.2-2.44.4-.253.68-.467.84-.64.173-.187.26-.407.26-.66 0-.547-.393-.82-1.18-.82-.587 0-1.26.153-2.02.46s-1.447.693-2.06 1.16l-1.18-4.26c.853-.427 1.833-.787 2.94-1.08 1.107-.307 2.22-.46 3.34-.46 1.84 0 3.267.407 4.28 1.22s1.52 1.967 1.52 3.46c0 .8-.18 1.507-.54 2.12-.347.6-.773 1.107-1.28 1.52-.493.413-1.14.887-1.94 1.42-.893.587-1.553 1.093-1.98 1.52-.413.413-.62.893-.62 1.44h2.42v-1.14h4.1v4.42h-12.28zm24.068 2c-2.253 0-3.993-.64-5.22-1.92-1.213-1.28-1.82-3.327-1.82-6.14s.607-4.86 1.82-6.14c1.227-1.28 2.967-1.92 5.22-1.92 2.254 0 3.987.64 5.2 1.92 1.227 1.28 1.84 3.327 1.84 6.14 0 2.6-.566 4.593-1.7 5.98-1.12 1.387-2.9 2.08-5.34 2.08zm0-3.56c.907 0 1.36-.493 1.36-1.48v-6.04c0-.987-.453-1.48-1.36-1.48-.906 0-1.36.493-1.36 1.48v6.04c0 .987.454 1.48 1.36 1.48zm11.569 1.56c0-1.147.166-2.16.5-3.04.346-.88.906-1.707 1.68-2.48.773-.787 1.84-1.6 3.2-2.44.4-.253.68-.467.84-.64.173-.187.26-.407.26-.66 0-.547-.394-.82-1.18-.82-.587 0-1.26.153-2.02.46s-1.447.693-2.06 1.16l-1.18-4.26c.853-.427 1.833-.787 2.94-1.08 1.106-.307 2.22-.46 3.34-.46 1.84 0 3.266.407 4.28 1.22 1.013.813 1.52 1.967 1.52 3.46 0 .8-.18 1.507-.54 2.12-.347.6-.774 1.107-1.28 1.52-.494.413-1.14.887-1.94 1.42-.894.587-1.554 1.093-1.98 1.52-.414.413-.62.893-.62 1.44h2.42v-1.14h4.1v4.42h-12.28zm17.628 1.72v-3.28h1.92v-9h-2.52v-2.26l4.44-1.02h3.36v12.28h1.68v3.28z" fill="#ea346c"/><path d="m934.433 564.28c0-1.147.167-2.16.5-3.04.347-.88.907-1.707 1.68-2.48.774-.787 1.84-1.6 3.2-2.44.4-.253.68-.467.84-.64.174-.187.26-.407.26-.66 0-.547-.393-.82-1.18-.82-.586 0-1.26.153-2.02.46s-1.446.693-2.06 1.16l-1.18-4.26c.854-.427 1.834-.787 2.94-1.08 1.107-.307 2.22-.46 3.34-.46 1.84 0 3.267.407 4.28 1.22 1.014.813 1.52 1.967 1.52 3.46 0 .8-.18 1.507-.54 2.12-.346.6-.773 1.107-1.28 1.52-.493.413-1.14.887-1.94 1.42-.893.587-1.553 1.093-1.98 1.52-.413.413-.62.893-.62 1.44h2.42v-1.14h4.1v4.42h-12.28zm24.069 2c-2.254 0-3.994-.64-5.22-1.92-1.214-1.28-1.82-3.327-1.82-6.14s.606-4.86 1.82-6.14c1.226-1.28 2.966-1.92 5.22-1.92 2.253 0 3.986.64 5.2 1.92 1.226 1.28 1.84 3.327 1.84 6.14 0 2.6-.567 4.593-1.7 5.98-1.12 1.387-2.9 2.08-5.34 2.08zm0-3.56c.906 0 1.36-.493 1.36-1.48v-6.04c0-.987-.454-1.48-1.36-1.48-.907 0-1.36.493-1.36 1.48v6.04c0 .987.453 1.48 1.36 1.48zm11.568 1.56c0-1.147.167-2.16.5-3.04.347-.88.907-1.707 1.68-2.48.773-.787 1.84-1.6 3.2-2.44.4-.253.68-.467.84-.64.173-.187.26-.407.26-.66 0-.547-.393-.82-1.18-.82-.587 0-1.26.153-2.02.46s-1.447.693-2.06 1.16l-1.18-4.26c.853-.427 1.833-.787 2.94-1.08 1.107-.307 2.22-.46 3.34-.46 1.84 0 3.267.407 4.28 1.22s1.52 1.967 1.52 3.46c0 .8-.18 1.507-.54 2.12-.347.6-.773 1.107-1.28 1.52-.493.413-1.14.887-1.94 1.42-.893.587-1.553 1.093-1.98 1.52-.413.413-.62.893-.62 1.44h2.42v-1.14h4.1v4.42h-12.28zm16.988 0c0-1.147.167-2.16.5-3.04.347-.88.907-1.707 1.68-2.48.774-.787 1.84-1.6 3.2-2.44.4-.253.68-.467.84-.64.174-.187.26-.407.26-.66 0-.547-.393-.82-1.18-.82-.586 0-1.26.153-2.02.46s-1.446.693-2.06 1.16l-1.18-4.26c.854-.427 1.834-.787 2.94-1.08 1.107-.307 2.22-.46 3.34-.46 1.84 0 3.267.407 4.28 1.22 1.014.813 1.52 1.967 1.52 3.46 0 .8-.18 1.507-.54 2.12-.346.6-.773 1.107-1.28 1.52-.493.413-1.14.887-1.94 1.42-.893.587-1.553 1.093-1.98 1.52-.413.413-.62.893-.62 1.44h2.42v-1.14h4.1v4.42h-12.28z" fill="#ea346c"/><path d="m1034.7 564.28c0-1.147.16-2.16.5-3.04s.9-1.707 1.68-2.48c.77-.787 1.84-1.6 3.2-2.44.4-.253.68-.467.84-.64.17-.187.26-.407.26-.66 0-.547-.4-.82-1.18-.82-.59 0-1.26.153-2.02.46s-1.45.693-2.06 1.16l-1.18-4.26c.85-.427 1.83-.787 2.94-1.08 1.1-.307 2.22-.46 3.34-.46 1.84 0 3.26.407 4.28 1.22 1.01.813 1.52 1.967 1.52 3.46 0 .8-.18 1.507-.54 2.12-.35.6-.78 1.107-1.28 1.52s-1.14.887-1.94 1.42c-.9.587-1.56 1.093-1.98 1.52-.42.413-.62.893-.62 1.44h2.42v-1.14h4.1v4.42h-12.28zm24.07 2c-2.26 0-4-.64-5.22-1.92s-1.82-3.327-1.82-6.14.6-4.86 1.82-6.14 2.96-1.92 5.22-1.92c2.25 0 3.98.64 5.2 1.92s1.84 3.327 1.84 6.14c0 2.6-.57 4.593-1.7 5.98-1.12 1.387-2.9 2.08-5.34 2.08zm0-3.56c.9 0 1.36-.493 1.36-1.48v-6.04c0-.987-.46-1.48-1.36-1.48-.91 0-1.36.493-1.36 1.48v6.04c0 .987.45 1.48 1.36 1.48zm11.56 1.56c0-1.147.17-2.16.5-3.04.35-.88.91-1.707 1.68-2.48.78-.787 1.84-1.6 3.2-2.44.4-.253.68-.467.84-.64.18-.187.26-.407.26-.66 0-.547-.39-.82-1.18-.82-.58 0-1.26.153-2.02.46s-1.44.693-2.06 1.16l-1.18-4.26c.86-.427 1.84-.787 2.94-1.08 1.11-.307 2.22-.46 3.34-.46 1.84 0 3.27.407 4.28 1.22 1.02.813 1.52 1.967 1.52 3.46 0 .8-.18 1.507-.54 2.12-.34.6-.77 1.107-1.28 1.52-.49.413-1.14.887-1.94 1.42-.89.587-1.55 1.093-1.98 1.52-.41.413-.62.893-.62 1.44h2.42v-1.14h4.1v4.42h-12.28zm26.47-6.22c.42.107.81.327 1.18.66.39.32.7.727.94 1.22.26.493.38 1.04.38 1.64 0 1.467-.52 2.62-1.58 3.46-1.04.827-2.58 1.24-4.64 1.24-.97 0-1.94-.107-2.92-.32-.97-.227-1.84-.5-2.6-.82v-4.26c.83.36 1.68.653 2.56.88.9.227 1.74.34 2.54.34.56 0 .97-.087 1.22-.26.27-.173.4-.46.4-.86 0-.773-.46-1.16-1.4-1.16h-1.44v-3.28h1.12c.88 0 1.32-.373 1.32-1.12 0-.72-.44-1.08-1.32-1.08-.64 0-1.3.153-2 .46-.69.293-1.36.68-2.02 1.16l-1.18-4.26c.82-.427 1.74-.787 2.78-1.08 1.04-.307 2.09-.46 3.14-.46 1.84 0 3.26.387 4.24 1.16.99.773 1.48 1.867 1.48 3.28 0 .88-.2 1.607-.62 2.18-.41.56-.94.987-1.58 1.28z" fill="#ea346c"/><path d="m1133.98 564.28c0-1.147.17-2.16.5-3.04.35-.88.91-1.707 1.68-2.48.78-.787 1.84-1.6 3.2-2.44.4-.253.68-.467.84-.64.18-.187.26-.407.26-.66 0-.547-.39-.82-1.18-.82-.58 0-1.26.153-2.02.46s-1.44.693-2.06 1.16l-1.18-4.26c.86-.427 1.84-.787 2.94-1.08 1.11-.307 2.22-.46 3.34-.46 1.84 0 3.27.407 4.28 1.22 1.02.813 1.52 1.967 1.52 3.46 0 .8-.18 1.507-.54 2.12-.34.6-.77 1.107-1.28 1.52-.49.413-1.14.887-1.94 1.42-.89.587-1.55 1.093-1.98 1.52-.41.413-.62.893-.62 1.44h2.42v-1.14h4.1v4.42h-12.28zm24.07 2c-2.25 0-3.99-.64-5.22-1.92-1.21-1.28-1.82-3.327-1.82-6.14s.61-4.86 1.82-6.14c1.23-1.28 2.97-1.92 5.22-1.92 2.26 0 3.99.64 5.2 1.92 1.23 1.28 1.84 3.327 1.84 6.14 0 2.6-.56 4.593-1.7 5.98-1.12 1.387-2.9 2.08-5.34 2.08zm0-3.56c.91 0 1.36-.493 1.36-1.48v-6.04c0-.987-.45-1.48-1.36-1.48-.9 0-1.36.493-1.36 1.48v6.04c0 .987.46 1.48 1.36 1.48zm11.57 1.56c0-1.147.17-2.16.5-3.04.35-.88.91-1.707 1.68-2.48.77-.787 1.84-1.6 3.2-2.44.4-.253.68-.467.84-.64.17-.187.26-.407.26-.66 0-.547-.39-.82-1.18-.82-.59 0-1.26.153-2.02.46s-1.45.693-2.06 1.16l-1.18-4.26c.85-.427 1.83-.787 2.94-1.08 1.11-.307 2.22-.46 3.34-.46 1.84 0 3.27.407 4.28 1.22s1.52 1.967 1.52 3.46c0 .8-.18 1.507-.54 2.12-.35.6-.77 1.107-1.28 1.52-.49.413-1.14.887-1.94 1.42-.89.587-1.55 1.093-1.98 1.52-.41.413-.62.893-.62 1.44h2.42v-1.14h4.1v4.42h-12.28zm23.61 1.72v-2.5h-6.5v-3.28l6.9-9.78h4.88v10.02h1.38v3.04h-1.38v2.5zm-2.8-5.54h2.8v-3.94z" fill="#ea346c"/><g fill="#fdfbf5"><rect height="400" rx="4.5" width="9" x="97" y="125"/><circle cx="101" cy="125" r="10"/><circle cx="101" cy="225" r="10"/><circle cx="101" cy="325" r="10"/><circle cx="101" cy="425" r="10"/><circle cx="101" cy="525" r="10"/><path d="m33.9492 130.258v1.781h-12.3281v-1.277l7.6406-11.824h1.7695l-1.8984 3.421-5.0508 7.899zm-2.3789-11.32v17.062h-2.168v-17.062zm15.0586 7.171v2.602c0 1.398-.125 2.578-.375 3.539s-.6094 1.734-1.0781 2.32c-.4688.586-1.0352 1.012-1.6992 1.278-.6563.257-1.3985.386-2.2266.386-.6562 0-1.2617-.082-1.8164-.246s-1.0547-.426-1.5-.785c-.4375-.367-.8125-.844-1.125-1.43-.3125-.585-.5508-1.296-.7148-2.132-.1641-.836-.2461-1.813-.2461-2.93v-2.602c0-1.398.125-2.57.375-3.515.2578-.946.6211-1.703 1.0898-2.274.4687-.578 1.0313-.992 1.6875-1.242.6641-.25 1.4062-.375 2.2266-.375.664 0 1.2734.082 1.8281.246.5625.156 1.0625.41 1.5.762.4375.344.8086.805 1.1133 1.383.3125.57.5508 1.269.7148 2.097.1641.829.2461 1.801.2461 2.918zm-2.1797 2.953v-3.316c0-.766-.0469-1.437-.1406-2.016-.0859-.585-.2148-1.085-.3867-1.5-.1719-.414-.3907-.75-.6563-1.007-.2578-.258-.5586-.446-.9023-.563-.336-.125-.7149-.187-1.1367-.187-.5157 0-.9727.097-1.3711.293-.3985.187-.7344.488-1.0078.902-.2657.414-.4688.957-.6094 1.629s-.211 1.488-.211 2.449v3.316c0 .766.043 1.442.1289 2.028.0938.586.2305 1.094.4102 1.523.1797.422.3984.77.6563 1.043.2578.274.5546.477.8906.61.3437.125.7226.187 1.1367.187.5312 0 .9961-.101 1.3945-.305.3985-.203.7305-.519.9961-.949.2735-.437.4766-.996.6094-1.676.1328-.687.1992-1.507.1992-2.461zm15.6797-2.953v2.602c0 1.398-.125 2.578-.375 3.539s-.6094 1.734-1.0781 2.32c-.4688.586-1.0352 1.012-1.6992 1.278-.6563.257-1.3985.386-2.2266.386-.6562 0-1.2617-.082-1.8164-.246s-1.0547-.426-1.5-.785c-.4375-.367-.8125-.844-1.125-1.43-.3125-.585-.5508-1.296-.7148-2.132-.1641-.836-.2461-1.813-.2461-2.93v-2.602c0-1.398.125-2.57.375-3.515.2578-.946.6211-1.703 1.0898-2.274.4687-.578 1.0313-.992 1.6875-1.242.6641-.25 1.4062-.375 2.2266-.375.664 0 1.2734.082 1.8281.246.5625.156 1.0625.41 1.5.762.4375.344.8086.805 1.1133 1.383.3125.57.5508 1.269.7148 2.097.1641.829.2461 1.801.2461 2.918zm-2.1797 2.953v-3.316c0-.766-.0469-1.437-.1406-2.016-.0859-.585-.2148-1.085-.3867-1.5-.1719-.414-.3907-.75-.6563-1.007-.2578-.258-.5586-.446-.9023-.563-.336-.125-.7149-.187-1.1367-.187-.5157 0-.9727.097-1.3711.293-.3985.187-.7344.488-1.0078.902-.2657.414-.4688.957-.6094 1.629s-.211 1.488-.211 2.449v3.316c0 .766.043 1.442.1289 2.028.0938.586.2305 1.094.4102 1.523.1797.422.3984.77.6563 1.043.2578.274.5546.477.8906.61.3437.125.7226.187 1.1367.187.5312 0 .9961-.101 1.3945-.305.3985-.203.7305-.519.9961-.949.2735-.437.4766-.996.6094-1.676.1328-.687.1992-1.507.1992-2.461zm15.6797-2.953v2.602c0 1.398-.125 2.578-.375 3.539s-.6094 1.734-1.0781 2.32c-.4688.586-1.0352 1.012-1.6992 1.278-.6563.257-1.3985.386-2.2266.386-.6562 0-1.2617-.082-1.8164-.246s-1.0547-.426-1.5-.785c-.4375-.367-.8125-.844-1.125-1.43-.3125-.585-.5508-1.296-.7148-2.132-.1641-.836-.2461-1.813-.2461-2.93v-2.602c0-1.398.125-2.57.375-3.515.2578-.946.6211-1.703 1.0898-2.274.4687-.578 1.0313-.992 1.6875-1.242.6641-.25 1.4062-.375 2.2266-.375.664 0 1.2734.082 1.8281.246.5625.156 1.0625.41 1.5.762.4375.344.8086.805 1.1133 1.383.3125.57.5508 1.269.7148 2.097.1641.829.2461 1.801.2461 2.918zm-2.1797 2.953v-3.316c0-.766-.0469-1.437-.1406-2.016-.0859-.585-.2148-1.085-.3867-1.5-.1719-.414-.3907-.75-.6563-1.007-.2578-.258-.5586-.446-.9023-.563-.336-.125-.7149-.187-1.1367-.187-.5157 0-.9727.097-1.3711.293-.3985.187-.7344.488-1.0078.902-.2657.414-.4688.957-.6094 1.629s-.211 1.488-.211 2.449v3.316c0 .766.043 1.442.1289 2.028.0938.586.2305 1.094.4102 1.523.1797.422.3984.77.6563 1.043.2578.274.5546.477.8906.61.3437.125.7226.187 1.1367.187.5312 0 .9961-.101 1.3945-.305.3985-.203.7305-.519.9961-.949.2735-.437.4766-.996.6094-1.676.1328-.687.1992-1.507.1992-2.461z"/><path d="m25.582 226.402h1.5469c.7578 0 1.3828-.125 1.875-.375.5-.257.8711-.605 1.1133-1.043.25-.445.375-.945.375-1.5 0-.656-.1094-1.207-.3281-1.652-.2188-.445-.5469-.781-.9844-1.008-.4375-.226-.9922-.34-1.6641-.34-.6094 0-1.1484.121-1.6172.364-.4609.234-.8242.57-1.0898 1.007-.2578.438-.3867.954-.3867 1.547h-2.168c0-.867.2188-1.656.6563-2.367s1.0507-1.277 1.8398-1.699c.7969-.422 1.7188-.633 2.7656-.633 1.0313 0 1.9336.184 2.7071.551.7734.359 1.375.898 1.8046 1.617.4297.711.6446 1.598.6446 2.66 0 .43-.1016.891-.3047 1.383-.1953.484-.5039.938-.9258 1.359-.4141.422-.9531.77-1.6172 1.043-.664.266-1.4609.399-2.3906.399h-1.8516zm0 1.782v-1.301h1.8516c1.0859 0 1.9844.129 2.6953.387.7109.257 1.2695.601 1.6758 1.031.4141.429.7031.902.8672 1.418.1719.508.2578 1.015.2578 1.523 0 .797-.1367 1.504-.4102 2.121-.2656.617-.6445 1.141-1.1367 1.571-.4844.429-1.0547.754-1.7109.972-.6563.219-1.3711.328-2.1446.328-.7421 0-1.4414-.105-2.0976-.316-.6485-.211-1.2227-.516-1.7227-.914-.5-.406-.8906-.902-1.1718-1.488-.2813-.594-.4219-1.27-.4219-2.028h2.1679c0 .594.129 1.114.3868 1.559.2656.445.6406.793 1.125 1.043.4922.242 1.0703.363 1.7343.363.6641 0 1.2344-.113 1.711-.34.4844-.234.8555-.586 1.1133-1.054.2656-.469.3984-1.059.3984-1.77s-.1484-1.293-.4453-1.746c-.2969-.461-.7188-.801-1.2656-1.02-.5391-.226-1.1758-.339-1.9102-.339zm21.0469-2.075v2.602c0 1.398-.125 2.578-.375 3.539s-.6094 1.734-1.0781 2.32c-.4688.586-1.0352 1.012-1.6992 1.278-.6563.257-1.3985.386-2.2266.386-.6562 0-1.2617-.082-1.8164-.246s-1.0547-.426-1.5-.785c-.4375-.367-.8125-.844-1.125-1.43-.3125-.585-.5508-1.296-.7148-2.132-.1641-.836-.2461-1.813-.2461-2.93v-2.602c0-1.398.125-2.57.375-3.515.2578-.946.6211-1.703 1.0898-2.274.4687-.578 1.0313-.992 1.6875-1.242.6641-.25 1.4062-.375 2.2266-.375.664 0 1.2734.082 1.8281.246.5625.156 1.0625.41 1.5.762.4375.344.8086.805 1.1133 1.383.3125.57.5508 1.269.7148 2.097.1641.829.2461 1.801.2461 2.918zm-2.1797 2.953v-3.316c0-.766-.0469-1.437-.1406-2.016-.0859-.585-.2148-1.085-.3867-1.5-.1719-.414-.3907-.75-.6563-1.007-.2578-.258-.5586-.446-.9023-.563-.336-.125-.7149-.187-1.1367-.187-.5157 0-.9727.097-1.3711.293-.3985.187-.7344.488-1.0078.902-.2657.414-.4688.957-.6094 1.629s-.211 1.488-.211 2.449v3.316c0 .766.043 1.442.1289 2.028.0938.586.2305 1.094.4102 1.523.1797.422.3984.77.6563 1.043.2578.274.5546.477.8906.61.3437.125.7226.187 1.1367.187.5312 0 .9961-.101 1.3945-.305.3985-.203.7305-.519.9961-.949.2735-.437.4766-.996.6094-1.676.1328-.687.1992-1.507.1992-2.461zm15.6797-2.953v2.602c0 1.398-.125 2.578-.375 3.539s-.6094 1.734-1.0781 2.32c-.4688.586-1.0352 1.012-1.6992 1.278-.6563.257-1.3985.386-2.2266.386-.6562 0-1.2617-.082-1.8164-.246s-1.0547-.426-1.5-.785c-.4375-.367-.8125-.844-1.125-1.43-.3125-.585-.5508-1.296-.7148-2.132-.1641-.836-.2461-1.813-.2461-2.93v-2.602c0-1.398.125-2.57.375-3.515.2578-.946.6211-1.703 1.0898-2.274.4687-.578 1.0313-.992 1.6875-1.242.6641-.25 1.4062-.375 2.2266-.375.664 0 1.2734.082 1.8281.246.5625.156 1.0625.41 1.5.762.4375.344.8086.805 1.1133 1.383.3125.57.5508 1.269.7148 2.097.1641.829.2461 1.801.2461 2.918zm-2.1797 2.953v-3.316c0-.766-.0469-1.437-.1406-2.016-.0859-.585-.2148-1.085-.3867-1.5-.1719-.414-.3907-.75-.6563-1.007-.2578-.258-.5586-.446-.9023-.563-.336-.125-.7149-.187-1.1367-.187-.5157 0-.9727.097-1.3711.293-.3985.187-.7344.488-1.0078.902-.2657.414-.4688.957-.6094 1.629s-.211 1.488-.211 2.449v3.316c0 .766.043 1.442.1289 2.028.0938.586.2305 1.094.4102 1.523.1797.422.3984.77.6563 1.043.2578.274.5546.477.8906.61.3437.125.7226.187 1.1367.187.5312 0 .9961-.101 1.3945-.305.3985-.203.7305-.519.9961-.949.2735-.437.4766-.996.6094-1.676.1328-.687.1992-1.507.1992-2.461zm15.6797-2.953v2.602c0 1.398-.125 2.578-.375 3.539s-.6094 1.734-1.0781 2.32c-.4688.586-1.0352 1.012-1.6992 1.278-.6563.257-1.3985.386-2.2266.386-.6562 0-1.2617-.082-1.8164-.246s-1.0547-.426-1.5-.785c-.4375-.367-.8125-.844-1.125-1.43-.3125-.585-.5508-1.296-.7148-2.132-.1641-.836-.2461-1.813-.2461-2.93v-2.602c0-1.398.125-2.57.375-3.515.2578-.946.6211-1.703 1.0898-2.274.4687-.578 1.0313-.992 1.6875-1.242.6641-.25 1.4062-.375 2.2266-.375.664 0 1.2734.082 1.8281.246.5625.156 1.0625.41 1.5.762.4375.344.8086.805 1.1133 1.383.3125.57.5508 1.269.7148 2.097.1641.829.2461 1.801.2461 2.918zm-2.1797 2.953v-3.316c0-.766-.0469-1.437-.1406-2.016-.0859-.585-.2148-1.085-.3867-1.5-.1719-.414-.3907-.75-.6563-1.007-.2578-.258-.5586-.446-.9023-.563-.336-.125-.7149-.187-1.1367-.187-.5157 0-.9727.097-1.3711.293-.3985.187-.7344.488-1.0078.902-.2657.414-.4688.957-.6094 1.629s-.211 1.488-.211 2.449v3.316c0 .766.043 1.442.1289 2.028.0938.586.2305 1.094.4102 1.523.1797.422.3984.77.6563 1.043.2578.274.5546.477.8906.61.3437.125.7226.187 1.1367.187.5312 0 .9961-.101 1.3945-.305.3985-.203.7305-.519.9961-.949.2735-.437.4766-.996.6094-1.676.1328-.687.1992-1.507.1992-2.461z"/><path d="m33.5977 334.219v1.781h-11.168v-1.559l5.5898-6.222c.6875-.766 1.2188-1.414 1.5938-1.946.3828-.539.6484-1.019.7969-1.441.1562-.43.2343-.867.2343-1.312 0-.563-.1172-1.071-.3515-1.524-.2266-.461-.5625-.828-1.0078-1.101-.4454-.274-.9844-.411-1.6172-.411-.7578 0-1.3907.149-1.8985.446-.5.289-.875.695-1.125 1.218-.25.524-.375 1.125-.375 1.805h-2.1679c0-.961.2109-1.84.6328-2.637.4218-.796 1.0468-1.429 1.875-1.898.8281-.477 1.8476-.715 3.0586-.715 1.0781 0 2 .192 2.7656.574.7656.375 1.3516.907 1.7578 1.594.4141.68.6211 1.477.6211 2.391 0 .5-.0859 1.008-.2578 1.523-.1641.508-.3945 1.016-.6914 1.524-.2891.507-.6289 1.007-1.0195 1.5-.3829.492-.793.976-1.2305 1.453l-4.5703 4.957zm13.0312-8.11v2.602c0 1.398-.125 2.578-.375 3.539s-.6094 1.734-1.0781 2.32c-.4688.586-1.0352 1.012-1.6992 1.278-.6563.257-1.3985.386-2.2266.386-.6562 0-1.2617-.082-1.8164-.246s-1.0547-.426-1.5-.785c-.4375-.367-.8125-.844-1.125-1.43-.3125-.585-.5508-1.296-.7148-2.132-.1641-.836-.2461-1.813-.2461-2.93v-2.602c0-1.398.125-2.57.375-3.515.2578-.946.6211-1.703 1.0898-2.274.4687-.578 1.0313-.992 1.6875-1.242.6641-.25 1.4062-.375 2.2266-.375.664 0 1.2734.082 1.8281.246.5625.156 1.0625.41 1.5.762.4375.344.8086.805 1.1133 1.383.3125.57.5508 1.269.7148 2.097.1641.829.2461 1.801.2461 2.918zm-2.1797 2.953v-3.316c0-.766-.0469-1.437-.1406-2.016-.0859-.585-.2148-1.085-.3867-1.5-.1719-.414-.3907-.75-.6563-1.007-.2578-.258-.5586-.446-.9023-.563-.336-.125-.7149-.187-1.1367-.187-.5157 0-.9727.097-1.3711.293-.3985.187-.7344.488-1.0078.902-.2657.414-.4688.957-.6094 1.629s-.211 1.488-.211 2.449v3.316c0 .766.043 1.442.1289 2.028.0938.586.2305 1.094.4102 1.523.1797.422.3984.77.6563 1.043.2578.274.5546.477.8906.61.3437.125.7226.187 1.1367.187.5312 0 .9961-.101 1.3945-.305.3985-.203.7305-.519.9961-.949.2735-.437.4766-.996.6094-1.676.1328-.687.1992-1.507.1992-2.461zm15.6797-2.953v2.602c0 1.398-.125 2.578-.375 3.539s-.6094 1.734-1.0781 2.32c-.4688.586-1.0352 1.012-1.6992 1.278-.6563.257-1.3985.386-2.2266.386-.6562 0-1.2617-.082-1.8164-.246s-1.0547-.426-1.5-.785c-.4375-.367-.8125-.844-1.125-1.43-.3125-.585-.5508-1.296-.7148-2.132-.1641-.836-.2461-1.813-.2461-2.93v-2.602c0-1.398.125-2.57.375-3.515.2578-.946.6211-1.703 1.0898-2.274.4687-.578 1.0313-.992 1.6875-1.242.6641-.25 1.4062-.375 2.2266-.375.664 0 1.2734.082 1.8281.246.5625.156 1.0625.41 1.5.762.4375.344.8086.805 1.1133 1.383.3125.57.5508 1.269.7148 2.097.1641.829.2461 1.801.2461 2.918zm-2.1797 2.953v-3.316c0-.766-.0469-1.437-.1406-2.016-.0859-.585-.2148-1.085-.3867-1.5-.1719-.414-.3907-.75-.6563-1.007-.2578-.258-.5586-.446-.9023-.563-.336-.125-.7149-.187-1.1367-.187-.5157 0-.9727.097-1.3711.293-.3985.187-.7344.488-1.0078.902-.2657.414-.4688.957-.6094 1.629s-.211 1.488-.211 2.449v3.316c0 .766.043 1.442.1289 2.028.0938.586.2305 1.094.4102 1.523.1797.422.3984.77.6563 1.043.2578.274.5546.477.8906.61.3437.125.7226.187 1.1367.187.5312 0 .9961-.101 1.3945-.305.3985-.203.7305-.519.9961-.949.2735-.437.4766-.996.6094-1.676.1328-.687.1992-1.507.1992-2.461zm15.6797-2.953v2.602c0 1.398-.125 2.578-.375 3.539s-.6094 1.734-1.0781 2.32c-.4688.586-1.0352 1.012-1.6992 1.278-.6563.257-1.3985.386-2.2266.386-.6562 0-1.2617-.082-1.8164-.246s-1.0547-.426-1.5-.785c-.4375-.367-.8125-.844-1.125-1.43-.3125-.585-.5508-1.296-.7148-2.132-.1641-.836-.2461-1.813-.2461-2.93v-2.602c0-1.398.125-2.57.375-3.515.2578-.946.6211-1.703 1.0898-2.274.4687-.578 1.0313-.992 1.6875-1.242.6641-.25 1.4062-.375 2.2266-.375.664 0 1.2734.082 1.8281.246.5625.156 1.0625.41 1.5.762.4375.344.8086.805 1.1133 1.383.3125.57.5508 1.269.7148 2.097.1641.829.2461 1.801.2461 2.918zm-2.1797 2.953v-3.316c0-.766-.0469-1.437-.1406-2.016-.0859-.585-.2148-1.085-.3867-1.5-.1719-.414-.3907-.75-.6563-1.007-.2578-.258-.5586-.446-.9023-.563-.336-.125-.7149-.187-1.1367-.187-.5157 0-.9727.097-1.3711.293-.3985.187-.7344.488-1.0078.902-.2657.414-.4688.957-.6094 1.629s-.211 1.488-.211 2.449v3.316c0 .766.043 1.442.1289 2.028.0938.586.2305 1.094.4102 1.523.1797.422.3984.77.6563 1.043.2578.274.5546.477.8906.61.3437.125.7226.187 1.1367.187.5312 0 .9961-.101 1.3945-.305.3985-.203.7305-.519.9961-.949.2735-.437.4766-.996.6094-1.676.1328-.687.1992-1.507.1992-2.461z"/><path d="m29.543 418.844v17.156h-2.168v-14.449l-4.3711 1.594v-1.957l6.1992-2.344zm17.0859 7.265v2.602c0 1.398-.125 2.578-.375 3.539s-.6094 1.734-1.0781 2.32c-.4688.586-1.0352 1.012-1.6992 1.278-.6563.257-1.3985.386-2.2266.386-.6562 0-1.2617-.082-1.8164-.246s-1.0547-.426-1.5-.785c-.4375-.367-.8125-.844-1.125-1.43-.3125-.585-.5508-1.296-.7148-2.132-.1641-.836-.2461-1.813-.2461-2.93v-2.602c0-1.398.125-2.57.375-3.515.2578-.946.6211-1.703 1.0898-2.274.4687-.578 1.0313-.992 1.6875-1.242.6641-.25 1.4062-.375 2.2266-.375.664 0 1.2734.082 1.8281.246.5625.156 1.0625.41 1.5.762.4375.344.8086.805 1.1133 1.383.3125.57.5508 1.269.7148 2.097.1641.829.2461 1.801.2461 2.918zm-2.1797 2.953v-3.316c0-.766-.0469-1.437-.1406-2.016-.0859-.585-.2148-1.085-.3867-1.5-.1719-.414-.3907-.75-.6563-1.007-.2578-.258-.5586-.446-.9023-.563-.336-.125-.7149-.187-1.1367-.187-.5157 0-.9727.097-1.3711.293-.3985.187-.7344.488-1.0078.902-.2657.414-.4688.957-.6094 1.629s-.211 1.488-.211 2.449v3.316c0 .766.043 1.442.1289 2.028.0938.586.2305 1.094.4102 1.523.1797.422.3984.77.6563 1.043.2578.274.5546.477.8906.61.3437.125.7226.187 1.1367.187.5312 0 .9961-.101 1.3945-.305.3985-.203.7305-.519.9961-.949.2735-.437.4766-.996.6094-1.676.1328-.687.1992-1.507.1992-2.461zm15.6797-2.953v2.602c0 1.398-.125 2.578-.375 3.539s-.6094 1.734-1.0781 2.32c-.4688.586-1.0352 1.012-1.6992 1.278-.6563.257-1.3985.386-2.2266.386-.6562 0-1.2617-.082-1.8164-.246s-1.0547-.426-1.5-.785c-.4375-.367-.8125-.844-1.125-1.43-.3125-.585-.5508-1.296-.7148-2.132-.1641-.836-.2461-1.813-.2461-2.93v-2.602c0-1.398.125-2.57.375-3.515.2578-.946.6211-1.703 1.0898-2.274.4687-.578 1.0313-.992 1.6875-1.242.6641-.25 1.4062-.375 2.2266-.375.664 0 1.2734.082 1.8281.246.5625.156 1.0625.41 1.5.762.4375.344.8086.805 1.1133 1.383.3125.57.5508 1.269.7148 2.097.1641.829.2461 1.801.2461 2.918zm-2.1797 2.953v-3.316c0-.766-.0469-1.437-.1406-2.016-.0859-.585-.2148-1.085-.3867-1.5-.1719-.414-.3907-.75-.6563-1.007-.2578-.258-.5586-.446-.9023-.563-.336-.125-.7149-.187-1.1367-.187-.5157 0-.9727.097-1.3711.293-.3985.187-.7344.488-1.0078.902-.2657.414-.4688.957-.6094 1.629s-.211 1.488-.211 2.449v3.316c0 .766.043 1.442.1289 2.028.0938.586.2305 1.094.4102 1.523.1797.422.3984.77.6563 1.043.2578.274.5546.477.8906.61.3437.125.7226.187 1.1367.187.5312 0 .9961-.101 1.3945-.305.3985-.203.7305-.519.9961-.949.2735-.437.4766-.996.6094-1.676.1328-.687.1992-1.507.1992-2.461zm15.6797-2.953v2.602c0 1.398-.125 2.578-.375 3.539s-.6094 1.734-1.0781 2.32c-.4688.586-1.0352 1.012-1.6992 1.278-.6563.257-1.3985.386-2.2266.386-.6562 0-1.2617-.082-1.8164-.246s-1.0547-.426-1.5-.785c-.4375-.367-.8125-.844-1.125-1.43-.3125-.585-.5508-1.296-.7148-2.132-.1641-.836-.2461-1.813-.2461-2.93v-2.602c0-1.398.125-2.57.375-3.515.2578-.946.6211-1.703 1.0898-2.274.4687-.578 1.0313-.992 1.6875-1.242.6641-.25 1.4062-.375 2.2266-.375.664 0 1.2734.082 1.8281.246.5625.156 1.0625.41 1.5.762.4375.344.8086.805 1.1133 1.383.3125.57.5508 1.269.7148 2.097.1641.829.2461 1.801.2461 2.918zm-2.1797 2.953v-3.316c0-.766-.0469-1.437-.1406-2.016-.0859-.585-.2148-1.085-.3867-1.5-.1719-.414-.3907-.75-.6563-1.007-.2578-.258-.5586-.446-.9023-.563-.336-.125-.7149-.187-1.1367-.187-.5157 0-.9727.097-1.3711.293-.3985.187-.7344.488-1.0078.902-.2657.414-.4688.957-.6094 1.629s-.211 1.488-.211 2.449v3.316c0 .766.043 1.442.1289 2.028.0938.586.2305 1.094.4102 1.523.1797.422.3984.77.6563 1.043.2578.274.5546.477.8906.61.3437.125.7226.187 1.1367.187.5312 0 .9961-.101 1.3945-.305.3985-.203.7305-.519.9961-.949.2735-.437.4766-.996.6094-1.676.1328-.687.1992-1.507.1992-2.461z"/><path d="m73.6289 526.109v2.602c0 1.398-.125 2.578-.375 3.539s-.6094 1.734-1.0781 2.32c-.4688.586-1.0352 1.012-1.6992 1.278-.6563.257-1.3985.386-2.2266.386-.6562 0-1.2617-.082-1.8164-.246s-1.0547-.426-1.5-.785c-.4375-.367-.8125-.844-1.125-1.43-.3125-.585-.5508-1.296-.7148-2.132-.1641-.836-.2461-1.813-.2461-2.93v-2.602c0-1.398.125-2.57.375-3.515.2578-.946.6211-1.703 1.0898-2.274.4687-.578 1.0313-.992 1.6875-1.242.6641-.25 1.4062-.375 2.2266-.375.664 0 1.2734.082 1.8281.246.5625.156 1.0625.41 1.5.762.4375.344.8086.805 1.1133 1.383.3125.57.5508 1.269.7148 2.097.1641.829.2461 1.801.2461 2.918zm-2.1797 2.953v-3.316c0-.766-.0469-1.437-.1406-2.016-.0859-.585-.2148-1.085-.3867-1.5-.1719-.414-.3907-.75-.6563-1.007-.2578-.258-.5586-.446-.9023-.563-.336-.125-.7149-.187-1.1367-.187-.5157 0-.9727.097-1.3711.293-.3985.187-.7344.488-1.0078.902-.2657.414-.4688.957-.6094 1.629s-.211 1.488-.211 2.449v3.316c0 .766.043 1.442.1289 2.028.0938.586.2305 1.094.4102 1.523.1797.422.3984.77.6563 1.043.2578.274.5546.477.8906.61.3437.125.7226.187 1.1367.187.5312 0 .9961-.101 1.3945-.305.3985-.203.7305-.519.9961-.949.2735-.437.4766-.996.6094-1.676.1328-.687.1992-1.507.1992-2.461z"/></g></svg>