<svg width="257" height="263" viewBox="0 0 257 263" fill="none" xmlns="http://www.w3.org/2000/svg">
<g clip-path="url(#clip0_8_552)">
<path d="M47.08 235.72H47.88V239H40.04V235.72H41.24L40.92 234.12H38.2L37.88 235.72H39.08V239H32.24V235.72H33.04L36.42 223.44H43.7L47.08 235.72ZM38.64 232H40.48L39.66 228.02H39.46L38.64 232ZM55.1925 239.28C53.0992 239.28 51.4792 238.82 50.3325 237.9C49.1992 236.98 48.6325 235.487 48.6325 233.42V226.72H47.6325V223.44H55.0325V226.72H54.2325V234.44C54.2325 234.88 54.3258 235.207 54.5125 235.42C54.7125 235.62 55.0058 235.72 55.3925 235.72C55.7792 235.72 56.0658 235.62 56.2525 235.42C56.4525 235.207 56.5525 234.88 56.5525 234.44V226.72H55.7525V223.44H62.6125V226.72H61.6125V233.42C61.6125 235.487 61.0592 236.98 59.9525 237.9C58.8458 238.82 57.2592 239.28 55.1925 239.28ZM69.5375 239.28C68.2575 239.28 67.0442 239.173 65.8975 238.96C64.7642 238.733 63.8908 238.48 63.2775 238.2V234.24H67.6775C67.6775 234.653 67.7708 234.953 67.9575 235.14C68.1442 235.327 68.4842 235.42 68.9775 235.42C69.3908 235.42 69.6842 235.36 69.8575 235.24C70.0442 235.107 70.1375 234.913 70.1375 234.66C70.1375 234.447 70.0508 234.267 69.8775 234.12C69.7042 233.96 69.4042 233.8 68.9775 233.64L67.2575 233.04C65.7775 232.48 64.7108 231.82 64.0575 231.06C63.4175 230.3 63.0975 229.273 63.0975 227.98C63.0975 226.407 63.6108 225.213 64.6375 224.4C65.6775 223.573 67.4042 223.16 69.8175 223.16C70.9775 223.16 72.0642 223.28 73.0775 223.52C74.1042 223.747 74.9308 224.053 75.5575 224.44V228.02H71.5575C71.5575 227.353 71.1442 227.02 70.3175 227.02C69.9175 227.02 69.6308 227.073 69.4575 227.18C69.2975 227.273 69.2175 227.447 69.2175 227.7C69.2175 227.927 69.3108 228.107 69.4975 228.24C69.6975 228.373 70.0175 228.513 70.4575 228.66L72.1975 229.26C73.6108 229.74 74.6375 230.367 75.2775 231.14C75.9308 231.9 76.2575 232.9 76.2575 234.14C76.2575 235.833 75.6842 237.113 74.5375 237.98C73.4042 238.847 71.7375 239.28 69.5375 239.28ZM91.7341 228.28H88.2941V226.72H87.0141V235.72H88.4141V239H80.0141V235.72H81.4141V226.72H80.1341V228.28H76.6941V223.44H91.7341V228.28ZM92.4195 235.72H93.4195V226.72H92.4195V223.44H101.6C103.32 223.44 104.633 223.793 105.54 224.5C106.446 225.207 106.9 226.353 106.9 227.94C106.9 228.833 106.72 229.607 106.36 230.26C106 230.913 105.486 231.367 104.82 231.62L104.84 231.82C106.12 232.02 106.76 232.807 106.76 234.18V235.72H107.7V239H101.36V234.3C101.36 233.78 101.28 233.387 101.12 233.12C100.973 232.853 100.733 232.673 100.4 232.58C100.08 232.487 99.6195 232.44 99.0195 232.44V235.72H100.34V239H92.4195V235.72ZM100.1 230C100.486 230 100.773 229.9 100.96 229.7C101.16 229.487 101.26 229.16 101.26 228.72V228C101.26 227.56 101.16 227.24 100.96 227.04C100.773 226.827 100.486 226.72 100.1 226.72H99.0195V230H100.1ZM123.096 235.72H123.896V239H116.056V235.72H117.256L116.936 234.12H114.216L113.896 235.72H115.096V239H108.256V235.72H109.056L112.436 223.44H119.716L123.096 235.72ZM114.656 232H116.496L115.676 228.02H115.476L114.656 232ZM124.529 239V235.72H125.529V226.72H124.529V223.44H132.969V226.72H131.129V235.72H132.929V233.88H136.909V239H124.529ZM137.595 239V235.72H138.595V226.72H137.595V223.44H145.195V226.72H144.195V235.72H145.195V239H137.595ZM160.674 235.72H161.474V239H153.634V235.72H154.834L154.514 234.12H151.794L151.474 235.72H152.674V239H145.834V235.72H146.634L150.014 223.44H157.294L160.674 235.72ZM152.234 232H154.074L153.254 228.02H153.054L152.234 232Z" fill="#E55933"/>
<path d="M38.6 263.28C37.32 263.28 36.1067 263.173 34.96 262.96C33.8267 262.733 32.9533 262.48 32.34 262.2V258.24H36.74C36.74 258.653 36.8333 258.953 37.02 259.14C37.2067 259.327 37.5467 259.42 38.04 259.42C38.4533 259.42 38.7467 259.36 38.92 259.24C39.1067 259.107 39.2 258.913 39.2 258.66C39.2 258.447 39.1133 258.267 38.94 258.12C38.7667 257.96 38.4667 257.8 38.04 257.64L36.32 257.04C34.84 256.48 33.7733 255.82 33.12 255.06C32.48 254.3 32.16 253.273 32.16 251.98C32.16 250.407 32.6733 249.213 33.7 248.4C34.74 247.573 36.4667 247.16 38.88 247.16C40.04 247.16 41.1267 247.28 42.14 247.52C43.1667 247.747 43.9933 248.053 44.62 248.44V252.02H40.62C40.62 251.353 40.2067 251.02 39.38 251.02C38.98 251.02 38.6933 251.073 38.52 251.18C38.36 251.273 38.28 251.447 38.28 251.7C38.28 251.927 38.3733 252.107 38.56 252.24C38.76 252.373 39.08 252.513 39.52 252.66L41.26 253.26C42.6733 253.74 43.7 254.367 44.34 255.14C44.9933 255.9 45.32 256.9 45.32 258.14C45.32 259.833 44.7467 261.113 43.6 261.98C42.4667 262.847 40.8 263.28 38.6 263.28ZM54.2259 247.44H60.3659V250.72H59.5659L55.7059 257.64V259.72H56.7059V263H49.1059V259.72H50.1059V257.64L46.1259 250.72H45.3259V247.44H53.0659V250.72H52.3659L53.5459 253.82H53.7459L54.9259 250.72H54.2259V247.44ZM61.0133 259.72H62.0133V250.74H61.0133V247.44H69.1333C71.3599 247.44 73.1266 248.053 74.4333 249.28C75.7533 250.493 76.4133 252.473 76.4133 255.22C76.4133 257.967 75.7533 259.953 74.4333 261.18C73.1266 262.393 71.3599 263 69.1333 263H61.0133V259.72ZM68.7733 259.72C69.2266 259.72 69.5666 259.6 69.7933 259.36C70.0199 259.12 70.1333 258.747 70.1333 258.24V252.2C70.1333 251.213 69.6799 250.72 68.7733 250.72H67.6133V259.72H68.7733ZM88.6075 247.44H95.1675V250.72H94.1675V263H88.5475L82.6875 253.98V259.72H83.6475V263H77.0875V259.72H78.0875V250.72H77.0875V247.44H84.3075L89.5675 255.46V250.72H88.6075V247.44ZM95.9352 263V259.72H96.9352V250.72H95.9352V247.44H109.435V253.48H104.955V250.72H102.535V253.88H104.295V256.16H102.535V259.72H104.955V256.56H109.435V263H95.9352ZM118.933 247.44H125.073V250.72H124.273L120.413 257.64V259.72H121.413V263H113.813V259.72H114.813V257.64L110.833 250.72H110.033V247.44H117.773V250.72H117.073L118.253 253.82H118.453L119.633 250.72H118.933V247.44Z" fill="#171619"/>
<path d="M113.67 16.0475V15.838L114.031 15.3781L113.158 14.7902L113.356 14.3304L113.6 14.2082L114.491 14.2373L114.549 14.0336L114.485 13.4806L114.31 13.1372L114.473 12.8986L115.038 12.9277L115.667 13.3351L116.493 13.3758L117.075 13.7949L117.43 13.8473L120.201 13.6611L121.027 13.923L122.046 13.2245L122.913 13.242L123.268 13.9172L123.053 14.3828L123.396 14.0336L123.443 13.8822L123.315 13.1314L123.437 12.9044L124.281 12.6017L124.945 12.8462L125.364 12.8112L125.119 12.7821L124.671 12.4504L124.601 12.1535L124.648 10.3084L125.003 9.74962L124.048 9.03951L123.728 8.58551L123.466 8.42253L122.989 8.33522L122.087 8.48656L121.307 8.90564L121.184 8.894L120.573 8.28284L120.451 7.86375L119.788 7.5087L119.194 7.56108L119.153 7.49124L119.846 6.66471L120.544 6.34458L121.214 7.00231L121.691 8.1315L121.935 8.15478L122.127 7.80555L121.854 6.95574L121.563 6.43189L121.784 6.37951L122.384 6.58323L122.791 6.36786L123.821 7.22931L123.885 7.5087L124.886 8.78923L125.23 8.86489L125.521 8.63789L126.167 7.67167L126.44 7.69496L126.935 8.22463L127.884 9.9417L128.117 10.128L128.548 10.256L128.903 10.0174H129.217L129.537 10.483L130.433 10.8614L130.864 10.873L131.173 10.774L131.784 10.4423L132.017 10.128L132.703 10.2444L132.773 10.4423L132.337 10.6926L132.238 10.8439L132.267 11.001L132.465 11.1873L132.919 11.3794L133.268 11.2164L133.454 10.9719L133.6 10.9487L134.455 11.6006L134.38 11.7228L134.467 12.2408L134.589 12.3398L135.62 12.1884L135.945 12.3223L136.545 12.3747L137.069 12.3107L137.535 11.9556L138.157 11.9207L138.786 12.7938L139.583 13.207L140.13 13.6611L140.817 13.7251L141.062 13.8357L141.027 13.7134L141.283 13.0499L141.673 12.6599L141.999 12.5202L142.366 12.6832L143.303 12.5726L143.786 12.1826L143.64 12.1011L143.279 12.3165L143.215 12.1593L143.349 11.6762L143.931 11.5191L144.362 11.5307L145.165 10.8905L145.142 10.4423L145.375 10.4481L145.59 10.6984L145.398 11.0069L144.321 11.9207L144.589 12.235L143.861 12.98L143.832 13.1838L143.955 13.4864L144.251 13.7658L144.572 13.6261L144.665 13.3642L145.183 12.9393L146.062 12.6832L145.526 13.3584L145.742 13.6843L146.207 13.469L146.318 13.6611L145.811 14.3944L145.986 14.8252L146.172 14.9998L146.434 14.831L146.911 14.7786L146.999 14.9299L147.435 14.8892L147.773 14.6273L148.215 13.5039L148.046 13.2827L147.447 13.3584L147.063 13.1954L147.034 13.0383L147.691 12.3863L148.762 11.6704L149.467 11.5424L149.321 12.0255L149.717 13.1372L150.165 13.7891L150.45 13.7833L150.695 13.6087L150.677 13.469L150.264 13.3176L150.299 13.1954L150.811 13.0674L151.452 13.3933L152.098 14.2664L150.998 15.0347L150.625 15.4654L149.985 16.4957L149.839 17.2756L149.042 16.9788L148.978 17.4095L149.368 18.1313L149.362 18.7541L149.257 19.3652L148.815 20.0288L148.757 19.825L148.244 19.9997L148.268 18.853L148.169 18.7541L147.971 18.8006L147.721 19.4758L147.179 19.9473L146.923 19.9647L146.836 19.7145L146.527 19.5922L145.87 19.8483L145.451 20.1917L145.224 20.5817L145.241 20.7622L145.497 20.9601L145.328 21.3384L145.049 21.5712L144.932 22.2988L145.206 23.1079L145.451 23.2417L145.8 23.1544L146.073 22.8459L146.038 23.329L145.84 24.0042L145.439 24.6212L145.264 25.7911L145.09 26.1287L144.356 26.6235L143.524 27.7003L143.012 28.585L143 29.0565L142.208 29.592L141.952 29.5862L142.342 30.7154L142.61 31.117L143.029 31.472L143.838 31.7631L144.985 32.4965L145.573 33.032L147.267 33.9109L147.447 34.068L147.598 34.8654L147.948 35.2729L149.519 36.0237L150.165 36.5592L150.753 37.1995L152.424 37.2693L153.093 37.6186L154.56 38.6605L155.311 38.9806L155.66 38.9689L156.312 39.1843L156.888 39.4695L157.656 40.6918L158.553 41.4543V105.219L115.795 105.225L107.372 105.219L101.72 105.26L101.686 46.1224V33.905V30.4709L102.25 30.6572L102.855 31.181L102.786 32.3684L102.89 32.4965L103.304 31.9842L103.065 30.4069L103.135 30.2614L103.787 30.4418L104.602 30.8551L105.905 32.3102L105.958 32.6245L106.307 32.4906L105.876 31.926L105.644 31.4429L105.562 30.9598L105.702 30.6863L105.772 30.2497L106.744 30.4185L107.145 30.2846L107.652 29.7957L106.522 30.1508L105.952 29.7841L105.498 29.1904L105.393 28.8877L105.626 28.7713L106.127 28.7189L106.54 28.4279L106.563 28.2882L105.853 28.5268L105.096 28.3871L104.561 28.0786L103.95 27.4966L104.025 26.9785L104.404 26.2568L104.794 25.7388L106.313 24.7842L106.656 23.1661L106.621 22.8692L106.918 21.6993L107.366 21.2336L107.425 21.6411L107.646 21.7691L108.257 21.6585L109.031 21.1347L109.666 20.4653L109.602 20.2267L109.206 19.6854L108.99 19.5049L108.775 19.4584L108.723 19.3187L108.781 18.1778L108.886 17.8926L109.148 17.7762L109.235 17.9392L109.421 18.0265L109.66 17.9741L110.067 17.6831L110.23 17.328L110.172 16.4724L110.236 16.257L111.214 15.8205L111.796 16.484L112.355 16.4433L111.819 16.2861L111.639 15.6051L111.808 15.1919L111.854 14.6797L111.662 14.5341L111.971 14.4061L112.867 14.6913L113.67 16.0475ZM114.066 11.5424L113.449 11.0302L112.291 10.5529L111.127 9.63903L110.655 8.39925L110.317 7.14782L110.364 6.67636L110.498 6.57158L111.377 7.3399L111.639 7.7648L112.471 8.02673L113.356 7.81719L113.699 7.49706L114.363 7.78227L115.102 7.21185L115.294 7.19439L115.422 7.63093L115.748 8.09658L115.777 7.9336L115.562 7.39229L115.637 7.07216L116.057 6.74038L116.982 7.1129L117.681 8.03255L117.733 8.51566L116.121 10.2094L115.917 10.2386L115.137 10.7391L114.066 11.5424ZM151.661 25.9832L151.76 25.8202L152.034 25.8028L151.871 26.6177L151.539 26.7457L150.666 26.5129L149.915 26.6235L148.308 26.2219L148.53 25.1101L148.483 24.6329L148.629 24.0915L148.809 23.783L149.665 23.6201L149.868 23.4629L149.688 23.0555L150.218 22.6131L150.491 22.6306L150.445 22.9274L150.2 23.0962L150.433 23.7714L151.032 23.8762L151.242 23.655L151.178 23.4338L151.294 23.2767L151.504 23.2184L151.69 23.3523L151.737 23.591L151.114 24.2312L150.782 24.4466L150.392 25.3139L150.404 25.9134L150.584 26.0705L151.428 26.1986L151.661 25.9832ZM111.121 10.8963L110.073 10.4947L108.612 10.8672L108.263 10.7973L108.164 10.6402L108.117 10.4714L108.467 9.83693L108.758 10.0115L108.996 10.0232L109.229 9.79619L109.212 8.90564L109.107 8.63207L109.625 7.72988L110.184 7.61347L111.115 9.9417L111.563 10.0581L112.035 10.483L111.889 10.8031L111.121 10.8963ZM149.1 8.44581L149.123 8.14896L149.979 6.90918L150.52 5.81491L150.805 5.66357L150.497 6.85097L149.467 8.29448L149.327 8.42253L149.1 8.44581ZM124.409 7.72988L124.223 7.53198L124.002 6.92082L123.815 5.85565L124.299 5.66939L124.601 6.66471L124.59 7.29334L124.409 7.72988ZM152.581 36.7106L152.22 36.4428L151.824 35.8549L151.94 35.5173L152.301 35.1623L152.587 35.5173L152.825 36.2915L152.662 36.7047L152.581 36.7106ZM147.191 23.9169L147.208 23.6841L147.005 23.329L146.842 23.4396L146.941 23.7481H146.673L146.574 23.6259L146.632 23.0846L147.185 22.648L147.453 22.6946L147.732 23.0729L147.645 23.4862L147.435 23.8238L147.191 23.9169ZM147.074 9.94752V9.65067L147.651 9.19085L148.128 9.16756L148.966 8.51566L148.908 8.83579L148.273 9.3189L147.074 9.94752ZM149.234 35.5115L149.071 35.43L149.199 34.8829L149.56 34.6384L149.74 34.7199L149.63 35.4358L149.234 35.5115Z" fill="#171619" stroke="white" stroke-width="0.5"/>
<path d="M8.42238 105.23L8.53297 105.015L8.53879 104.159L7.12439 102.664L6.37354 101.255L5.68671 99.5146L5.01734 99.1072L4.44692 97.4891L4.39454 97.1806L4.46439 96.552L4.07441 95.9059L3.27699 94.9746L3.04998 94.311L3.01506 92.9432L3.27117 92.2796L3.41086 91.4298L3.95218 89.6837L4.38872 88.8106L5.28509 88.1063L5.44224 87.5184L5.52955 86.7326L5.38986 85.8246L5.75656 84.7071L5.68671 84.0435L5.34329 83.0948L4.82526 82.3614L4.73213 81.8084L5.64014 79.9691L6.48413 77.5419L7.09529 76.6339L7.46781 76.4244L7.93345 76.3429L8.01494 76.5059L7.70063 77.0996L7.39214 78.8865L7.79958 79.7479L7.60168 81.0052L7.87525 81.2846L9.25473 80.7025L9.42934 79.9749L9.8135 78.9913L10.8554 77.1811L11.0184 76.6223L12.8635 75.5979L13.5561 75.5455L14.7726 74.9401L16.0764 74.4396L17.1358 73.1881L17.52 72.8913L18.3174 72.5479L19.0682 71.4187L20.5525 70.726L20.7155 70.2953L21.1171 70.0741L21.5012 70.0276L22.5489 69.655L23.3755 69.1428L24.0157 68.6015L24.5279 68.7121L24.8015 68.9857L25.0809 69.0613L26.2857 68.4153L26.9085 68.6306L27.1123 68.8634L27.5546 69.0613L28.0261 69.1487L28.4277 69.1428L30.1914 68.782L31.2332 68.328L32.6185 66.995L33.3112 66.5818L33.3985 66.7506L33.6662 66.7564L35.6278 66.4305L36.3379 66.4712L37.2459 66.1685L38.1888 65.0393L38.3751 64.5329L39.0095 64.0498L39.6964 63.9858L41.2446 64.37L42.1759 64.7308L43.4623 64.0673L46.3318 63.6482L46.9488 63.4445L50.3713 62.0184L51.3143 61.5295L52.8916 60.2141L54.2304 58.4039L55.1849 56.3492L56.058 55.1734L55.9824 54.6379L56.2094 54.1374L56.3607 53.9919L56.774 54.0908L57.0883 53.922L57.5539 53.5495L57.8915 53.0547L58.2815 52.8627L59.6028 51.8208L59.7948 51.3551L59.7599 50.9943L59.5737 50.8196L59.0731 50.68L58.7879 50.2551L58.718 49.0094L58.3455 48.0432L58.363 46.7569L58.5609 45.9711L59.0789 45.0806L59.853 44.3472L60.2838 44.0736L61.087 44.0678L60.7669 43.3518L61.0346 42.991L61.2092 42.9211L61.3489 43.055H61.5003L62.2104 42.8105L62.2744 42.6243L62.1114 42.3856L62.2628 41.7512L62.4432 41.5475L62.775 41.4776L63.1067 41.1109L63.1417 40.75L63.2755 40.5347L63.7237 40.3717L64.1545 40.8024L64.0206 40.9712L63.7063 40.9363L63.4967 41.6639L63.8983 42.211L64.3815 42.5137L64.5095 43.0142L65.7202 45.2785L67.2743 47.7638L67.414 48.3052L67.5304 47.7289L67.315 47.3098L67.3383 46.7918L67.6875 45.7325L67.4023 44.8594L67.5188 44.3588L67.9204 44.3472L68.7236 45.3192L69.1893 45.7383L69.4163 45.8372L69.5734 45.7499L69.329 45.6335L69.0379 45.2726L68.8109 44.3646L69.4104 43.6778L69.2009 43.5672L68.7178 43.7127L68.6188 43.6429L68.3103 42.9851L67.6177 42.2343L67.6526 41.5184L66.9425 41.53L66.4594 41.0935L66.8901 41.076L67.8214 41.2855L68.2521 40.6336L68.3045 40.296L68.2405 40.0399L67.5362 39.9002L67.3092 39.6965L67.2917 39.1203L67.3791 38.934L68.3627 38.7187L68.8691 39.1145L68.7294 39.4229L68.4035 39.5103L69.0787 40.2204L69.4104 40.2902L69.4221 40.0341L69.8761 39.4171L70.6444 39.5277L70.982 39.6791L71.1508 39.7896L71.3778 40.331L71.5524 40.4532L72.2043 40.4881L72.5303 40.1156L73.1065 40.395L73.7584 40.459L74.7072 40.3251L75.3824 40.622L75.7432 40.4706L75.2543 40.4241L74.5093 40.0748L73.9912 39.9526L73.6595 39.9293L73.1414 40.0807H72.7515L72.6409 39.9643L72.4837 39.26L72.8271 38.48L73.0832 38.4218L73.3859 38.8816L73.8574 38.5557L73.8108 37.9562L73.9971 37.2752L74.7072 36.5592L74.3521 36.4137L74.0087 36.5127L73.4965 37.3857L73.1996 37.3916L72.6467 36.9143L72.4662 35.6337L73.0076 34.394L73.2055 34.3067L73.7933 34.6442L74.2648 34.3998L74.3754 34.2368L74.3056 32.9854L74.5733 32.9214L75.8829 33.5907L76.3951 34.0855L77.5825 34.6617L76.919 34.0738L76.8841 33.9283L77.1867 33.3754L77.0529 33.2357L76.5115 33.2298L75.8829 33.4627L75.8131 33.0902L76.0459 32.7642L76.2904 32.6478L76.4708 32.7642L76.7211 32.3335L76.5232 32.2811L75.6967 32.8282L75.5221 32.8224L75.3358 32.3277L75.5395 32.0657L75.8131 31.9377L76.1856 32.0483L76.3195 32.0075L76.6512 31.7747L76.5581 31.5535L76.9364 31.2858L77.373 32.2695L77.4836 32.3393L77.5476 32.0599L77.4661 31.5011L78.2112 31.9377L78.2286 32.1705L78.4789 32.2927L79.0668 32.2636L79.1948 32.1414L79.0842 32.0483L78.8922 32.0657L78.7234 31.9144L78.9096 31.734L78.2228 31.245L77.6 30.9365L77.8095 30.6921L77.9783 30.6339L77.3031 29.6327L77.9842 28.6607L78.572 28.1718L78.9038 28.3115L80.1727 28.3406L80.2367 27.549L80.1145 26.7865L80.196 26.3499L80.359 26.2277L81.0574 26.5595L80.5103 28.8761L80.6267 28.7538L81.0167 27.4093L81.7792 27.7992L81.6628 28.4977L81.785 28.7247L82.1575 28.9575L82.7163 28.3347L83.0131 28.1252L83.1936 27.0135L83.6767 26.0298L83.7 25.6223L83.2867 24.563L82.8851 24.3069L83.1994 24.237L83.7058 24.3127L84.1423 24.5339L84.0899 25.0228L83.764 25.1625L83.9794 25.8726L84.2471 25.9483L84.5847 26.2917L84.7477 26.0356L84.6313 25.6922L84.8815 25.1101L85.4985 24.6212L85.9467 24.5572L85.6499 25.2848L86.3658 26.2102L86.5695 26.2684L87.2214 25.5816L87.7627 24.5979L87.4892 23.4571L88.1993 23.1719L88.8163 23.0264L89.2062 23.3407L89.5671 23.8063L89.4565 24.0508L89.9047 24.6037L90.0619 24.3535L90.0677 24.1439L90.6206 24.1206L91.7789 24.4932L92.3843 25.3488L93.2515 25.9308L95.1432 28.5617L95.4168 28.4279L96.4878 29.3475L96.6042 29.982L96.3015 30.4185L95.8533 31.9319L95.9174 32.6187L95.8766 33.8585L95.5448 34.522L95.8475 34.3474L96.0221 34.1029L96.2433 32.6711L96.5576 32.7991L97.0349 33.2706L97.2212 33.8876L97.2503 33.259L96.8254 32.5197L96.6217 31.7049L97.3434 30.7154L97.4715 30.7386L97.6403 31.571L98.2398 31.5884L98.3038 31.2916L98.0535 30.8376L97.8556 29.982L98.7927 29.7142L101.726 30.4476V33.8818V46.0992L101.761 105.23L101.686 146.103L100.376 146.673L98.8684 147.552L96.5227 148.617L95.4459 149.048L93.7114 149.385L91.1678 150.369L89.8407 150.602L87.0759 150.73L85.2599 150.555L83.8688 150.154L83.1703 150.497L82.5591 150.363L81.5114 150.934L79.6721 152.447L79.2239 152.645L78.3276 152.837L76.3893 153.908L75.6559 154.566L74.8178 155.072L72.6467 155.427L71.8842 155.73L71.3021 156.207L70.7725 156.882L70.1147 158.791L69.8179 160.043L69.2125 160.468L68.6421 161.067L68.4268 161.498L68.4209 161.702L68.1416 162.01L67.1928 162.656L66.1043 162.575L65.9414 162.639L65.563 163.151L65.272 163.372L64.8413 163.512L64.4164 162.511L63.8925 162.29L62.7983 162.662L62.0707 162.557L61.2092 162.592L61.0928 162.709L60.1906 162.802L59.6901 162.703L59.335 162.843L59.108 163.104L59.0382 163.489L58.2 163.576L57.9555 163.494L58.0894 163.209L57.9032 162.552L57.5365 162.08L57.4084 162.033L56.9195 162.121L56.5702 162.453L56.058 162.598L54.4283 162.01L54.0383 161.981L53.2467 161.964L51.4481 162.278H50.2549L49.8067 162.517L48.2177 162.738L47.4377 163.169L46.4017 162.907L44.8359 162.825L43.6253 163.198L43.1596 163.71L42.3855 164.123L42.0537 164.501L41.5299 165.421L41.4425 165.887L40.5462 166.766L39.807 167.202L38.9863 166.911L37.9269 166.812L36.8385 167.551L36.7104 167.743L36.9316 167.988L36.7104 168.238L36.1982 168.553L35.1796 168.884L34.8071 169.268L34.615 169.775L33.9456 170.275L32.6826 170.951L31.1401 171.23L31.1168 171.387L31.2682 171.55L32.1413 171.742L31.7513 171.963L31.274 171.876L30.8025 171.504L30.4416 171.37L30.0458 171.393L29.8479 171.533L29.7024 172.062L29.2193 171.678L27.9504 171.143L25.5349 171.131L25.2031 171.44L25.0576 171.445L24.1205 171.143L23.3464 171.265L22.45 171.009L20.9134 169.984L19.3767 169.629L18.9984 168.739L18.3698 168.011L17.3221 166.94L16.3617 166.3L15.215 165.7L14.7552 165.648L14.2953 165.759L14.0043 166.137L13.2884 165.375L13.2942 164.717L12.9624 162.365L12.9392 161.05L13.2127 159.781L13.4805 159.857L13.8704 160.439L14.6213 160.759L15.2208 160.706L15.733 160.52L15.9426 160.398L17.7295 157.825L17.4559 155.707L16.9845 153.378L17.13 152.872L17.6131 152.272L17.5898 152.511L17.2289 152.913L17.2173 153.215L17.4734 153.943L17.648 154.205L17.7644 154.123L17.7528 153.716L18.0438 152.645L17.8575 150.771L18.0031 149.81L17.8925 149.094L17.9274 147.598L17.6887 146.289L17.5374 145.876L15.995 143.064L15.5584 141.76L15.1917 140.911L14.2895 139.339L13.527 137.389L13.5736 137.191L13.3757 135.713L12.9566 134.269L12.8286 134.159L12.8577 131.336L13.0847 130.014L12.7704 128.914L12.6074 128.652L12.5084 127.977L12.1767 127.191L10.8146 125.573L10.64 125.044L10.5935 123.868L10.0812 122.832L8.84728 120.987L8.37 120.696L7.88107 119.997L7.50273 118.292L7.58422 117.762L7.79376 117.267L7.67153 116.528L7.36304 115.451L6.50159 113.664L5.6285 112.029L4.27813 110.079L2.35152 108.03L1.99646 106.907L2.28749 106.325L2.24674 105.679L2.27003 105.51L2.39226 105.423L2.49703 106.785L2.68911 107.18L2.88701 106.063L3.82412 107.221L3.95218 107.599L4.02784 108.793L4.17336 109.223L4.639 109.817L4.8369 109.858L4.85437 109.677L5.26181 109.398L5.52955 109.462L5.98356 108.787L6.01848 107.588L5.56448 106.982L4.69721 106.412L4.05695 105.748L3.69025 104.235L3.04998 103.199L3.16058 102.623L3.54473 102.012L3.72517 102.146L4.31305 103.205L4.98242 103.781L5.21524 104.439L5.06391 105.265L4.88929 105.457L4.90675 106.051L5.09301 106.592L5.41314 106.622L5.6285 106.389L6.13489 105.411L6.46667 107.052L6.64128 107.5L7.33975 108.438L8.13135 107.815L8.30015 107.25L8.10807 106.977L7.98584 106.482L8.2012 105.126L8.42238 105.23ZM1.88587 106.237L1.69961 106.086L0.762496 104.666L0.291029 103.717L0 102.623L0.0407441 102.012L0.291029 101.651L0.60534 101.726L0.477288 102.035L0.50057 102.227L1.2456 104.357L1.88587 105.521L2.01392 105.981L1.88587 106.237ZM73.3917 34.2019L73.3393 34.0214L73.0017 33.7071L73.0541 33.4161L73.2113 33.1658L73.6245 32.997L74.1717 33.9109L73.3917 34.2019ZM15.5526 70.1498L15.3372 69.9694L15.1801 70.1207L15.1335 70.0683L15.1393 69.7133L15.7854 68.8402L15.995 68.7121L16.0706 68.7529L16.1579 69.2127L16.1288 69.4164L15.7621 69.9868L15.5526 70.1498ZM77.2857 29.0216L76.9539 28.8411L76.9947 28.3464L77.1402 27.9739L77.437 27.6654L77.728 27.9913L77.5825 28.7014L77.3555 28.812L77.2857 29.0216Z" fill="#171619" stroke="white" stroke-width="0.5"/>
<path d="M228.33 178.122L227.596 177.749L226.758 176.498L226.589 176.038L226.601 174.967L226.904 173.477L228.563 172.254L229.302 172.673L229.634 173.063L230.216 173.279L230.606 173.529L230.32 173.785L229.732 173.704L229.261 173.931L228.958 174.35L228.597 175.799L228.737 177.4L228.691 177.627L228.33 178.122Z" fill="#171619" stroke="white" stroke-width="0.5"/>
<path d="M234.238 190.618L223.033 184.972L222.463 184.926L222.975 184.041L223.039 183.477L222.457 182.289L222.055 181.777L221.729 179.204L221.042 178.768L219.983 178.314L219.442 178.523L218.551 178.354L217.963 178.453L217.375 179.187L216.805 179.239L215.746 179.612L214.896 179.553L213.487 179.111L212.923 178.669L212.271 178.57L211.875 178.622L211.654 178.855L210.99 179.14L209.681 179.024L207.876 178.68L207.434 178.494L206.689 177.778L206.229 177.417L206.072 177.4L205.594 177.505L205.042 177.807L204.489 177.755L204.273 177.58H203.499L202.707 177.784L202.591 177.924L202.37 178.727L202.469 179.519L201.351 179.833L201.107 179.769L200.327 179.315L199 177.761L198.674 177.016L198.528 176.864L198.167 176.748L197.527 176.178L197.038 175.502L195.956 174.926L194.984 174.187L194.535 174.024L194.273 174.082L193.883 173.791L193.779 173.628L193.924 173.186L193.68 172.807L193.168 172.679L192.696 172.388L192.405 171.748L192.236 170.788L192.388 170.025L192.393 169.542L192.312 169.42L190.967 168.686L190.024 168.622L189.279 168.32L189.192 168.11L188.796 167.848L188.435 167.971L188.325 168.128L188.121 169.03L187.836 169.391L187.3 169.286L187.085 169.036L187.102 168.884L186.765 167.982L186.218 167.476L186.189 166.381L185.31 164.903L184.803 164.554L184.076 164.222L183.086 164.426L182.149 164.181L181.59 164.397L181.235 164.886L180.927 165.049L180.816 164.897L180.112 164.467L179.076 163.983L177.987 163.902L177.795 163.85L177.499 163.558L177.528 126.481L178.278 126.476L190.967 126.481H200.81H208.831H227.765L228.248 126.243L228.987 125.317L231.007 123.6L231.706 123.408L231.869 123.437L231.968 123.647L232.52 123.81L234.465 123.641L235.373 123.292L236.228 123.187L236.403 123.228L236.886 123.728L237.322 124.025L238.376 124.054L239.331 123.856L240.925 124.584L242.538 125.975L242.613 127.069L242.869 127.64L243.009 127.704L243.318 127.628L243.62 127.308L244.191 126.144L245.279 125.661L245.512 126.109L245.902 126.295L247.113 125.713L247.316 124.543L246.746 123.251L247.357 122.768L248.067 122.419L249.325 122.005L249.581 121.831L249.709 121.505L250.07 121.202L250.349 121.243L250.762 121.668L251.798 121.895L252.98 121.773L254.022 121.842L254.505 121.202L255.349 121.045L256.041 120.777L256.513 120.393L256.967 120.806L257.054 121.278L256.851 122.832L256.967 123.647L257.258 124.043L257.142 125.486L256.146 126.79L255.448 128.839L255.622 129.345L254.918 133.356L254.61 134.531L253.434 137.837L253.352 139.787L253.451 140.142L253.672 140.171L253.783 140.62L253.137 142.785L253.015 143.64L252.351 145.835L251.792 146.976L250.512 148.594L250.221 149.35L250.407 150.334L250.331 151.376L249.231 152.307L248.76 152.854L247.788 153.46L247.735 153.78L247.893 154.118L246.682 154.542L245.791 155.002L244.889 156.358L244.29 157.843L244.15 157.959L243.83 157.982L243.533 158.221L243.469 158.564L243.737 158.803L243.533 159.612L242.811 160.578L242.538 162.616L242.386 163.163L242.159 163.337L241.793 163.297L241.298 163.494L241.647 163.588L241.903 163.826L241.391 164.659L240.821 165.083L240.256 165.916L239.662 167.645L239.918 167.959L239.604 169.391L239.197 169.647L239.069 170.089L239.29 170.735L239.732 171.195L239.633 171.707L239.464 171.853L239.255 171.626L239.331 171.469L239.243 171.114L239.074 171.096L238.673 171.346L238.626 171.603L238.789 171.998L238.434 172.394L237.759 172.767L237.416 173.413L237.381 173.739L236.915 175.089L236.595 175.607L235.373 178.285L235.215 179.617L235.204 181.305L234.837 181.783L234.499 183.657L234.139 184.967L233.737 185.979L233.766 187.126L234.395 187.854L234.476 188.401L234.47 188.663L234.284 188.604L234.016 188.802L234.028 189.722L234.238 190.618ZM228.691 177.627L228.737 177.394L228.597 175.793L228.958 174.35L229.261 173.925L229.738 173.698L230.326 173.779L230.606 173.529L230.216 173.279L229.633 173.069L229.302 172.674L228.562 172.254L226.904 173.477L226.601 174.967L226.589 176.044L226.758 176.503L227.602 177.755L227.753 177.883L228.388 178.098L228.691 177.627Z" fill="#171619" stroke="white" stroke-width="0.5"/>
<path d="M147.849 164.891L147.22 165.904L146.708 166.131L146.166 167.057L145.515 167.464L145.125 168.238L144.676 169.594L144.834 169.67L145.113 169.635L145.957 169.041L146.044 169.443L145.945 170.951L145.643 171.079L145.474 170.758L144.944 170.171L144.566 169.938L144.17 169.996L143.891 170.654L143.664 170.648L143.425 170.188L142.593 169.1L141.655 168.133L141.161 167.738L140.957 167.674L140.305 167.901L140.555 167.208L140.916 166.69L140.945 167.167L141.772 168.052L142.104 168.279L142.732 168.075L142.092 167.819L142.011 167.58L141.976 167.383L142.08 167.15L141.801 165.578L141.318 164.292L141.242 163.43L140.817 162.773L139.805 161.632L138.588 160.642L138.763 159.915L138.699 159.391L138.384 158.495L137.744 157.173L137.022 156.894L135.852 157.08L135.352 157.365L134.968 156.935L134.973 156.743L134.508 155.503L133.739 153.757L134.246 153.791L134.496 154.024L134.583 154.403L135.014 153.815L135.142 153.431L135.014 152.767L134.566 152.133L134.17 151.789L133.99 151.76L132.989 152.074L132.581 152.464L132.343 152.418L132.354 151.812L132.535 151.399L132.855 151.527L132.96 151.353L132.174 150.258L131.539 149.886L131.144 149.531L131.213 149.257L130.783 149.123L130.625 149.251L130.532 149.63L130.014 149.956L128 149.816L127.808 149.769L127.366 149.292L126.784 149.083L125.893 148.239L125.591 148.076L124.322 147.924L123.716 148.047L123.245 148.483L122.698 148.675L122.302 148.704L121.866 148.594L120.8 147.517L119.171 146.335L116.615 145.014L115.248 144.502L115.038 144.525L114.392 145.049L113.327 145.462L113.007 145.503L109.654 145.253L108.932 145.276L107.588 145.381L106.971 145.538L103.141 145.864L101.686 146.102L101.72 105.254L107.372 105.213L115.795 105.219L158.553 105.213H177.51L177.528 126.487L177.499 163.564L177.336 163.349L177.312 195.013L176.573 194.937L176.073 195.088L175.613 195.071L174.548 194.501L173.447 193.395L172.702 191.887L171.963 190.764L171.509 190.444L171.154 190.461L170.019 188.936L169.623 188.145L169.821 187.737L169.804 187.417L169.507 186.678L169.623 185.95L170.072 185.578L170.316 184.949L170.31 183.896L170.077 183.063L168.971 180.368L167.225 178.04L166.073 176.8L165.398 176.253L165.706 176.352L167.429 177.86L168.57 179.425L169.053 180.421L168.983 179.879L168.692 179.059L168.453 178.704L167.703 177.836L165.502 175.729L165.491 175.042L165.881 174.885L166.358 175.299L166.3 176.271L166.399 176.404L166.992 176.34L167.155 175.665L167.231 174.635L167.126 173.896L166.218 173.448L165.729 173.931L165.38 174.035L165.008 174.018L164.688 174.158L164.559 174.472L164.623 174.676L164.984 174.792L165.107 174.943L164.821 175.31L163.116 175.165L162.668 175.351L162.289 175.811L161.946 176.049L159.664 176.172L159.146 175.782L159.525 175.112L160.363 174.693L161.329 173.651L161.509 172.633L161.434 172.365L161.498 171.876L161.806 171.201L161.597 169.955L161.742 169.268L161.69 168.931L161.306 168.267L160.293 167.027L159.944 165.77L159.141 164.402L158.989 164.437L158.605 165.334L158.774 165.671L158.681 165.991L158.081 166.608L157.86 167.371L157.773 168.791L156.975 171.387L156.969 172.027L156.504 172.406L155.607 171.998L155.148 171.882L154.903 171.928L153.716 172.377L153.448 172.813L153.297 172.912L152.418 172.778L151.929 173.209L151.568 173.343L151.364 173.244L151.184 172.941L151.417 172.563L151.847 172.138L151.999 171.771L152.103 170.689L152.4 170.252L152.93 170.462L153.471 170.316L154.03 170.281L154.141 170.456L154.682 170.7L154.996 170.531L155.124 170.211L155.404 168.384L155.293 166.958L155.369 165.543L155.107 164.583L155.2 164.455H155.508L155.695 164.094L156.015 163.035L156.067 162.487L157.173 161.073L157.883 160.375L158.151 160.299L158.256 160.025L158.052 159.135L157.412 157.907L157.604 157.336L157.965 157.08L158.302 156.946L158.71 156.935L158.884 156.795L158.838 156.411L158.646 156.044L158.302 155.899L157.936 154.234L157.604 153.495L157.429 152.592L157.092 152.336L157.039 153.553L157.185 153.634L157.33 153.89L157.371 154.688L157.162 155.77L156.83 155.788L156.026 156.044L155.351 156.777L154.699 158.075L154.664 158.698L154.548 159.047L153.594 160.834L153.163 161.195L152.394 161.224L151.946 160.951L151.533 161.568L151.649 161.649L151.405 161.905L149.612 162.854L148.559 163.681L148.198 164.053L148.163 164.298L147.849 164.891ZM157.994 176.637L158.954 176.899L159.263 177.318L159.269 177.726L158.809 178.139L158.058 177.772L157.045 177.697L156.155 178.116L156.038 178.279L156.12 178.814L155.939 178.995L155.113 179.402L154.496 178.773L153.663 178.616L153.431 178.692L153.361 178.977L153.18 179.082L152.429 179.012L151.597 179.14L150.41 179.175L150.206 178.837L149.31 178.092L149.28 177.819L149.577 176.946L151.894 176.259L152.389 176.253L152.982 176.113L154.228 175.56L155.549 175.671L155.922 176.026L155.916 176.655L156.003 176.771L156.609 176.853L157.231 177.208L157.604 177.237L157.994 176.637Z" fill="#171619" stroke="white" stroke-width="0.5"/>
<path d="M231.717 192.388L230.949 192.766L230.018 192.859L226.962 192.877L225.903 193.028L224.861 192.987L223.691 193.069L221.508 193.715L220.216 194.355L218.836 195.403L217.771 196.398L216.764 197.399L215.228 199.186L214.622 199.722L213.208 199.902L211.823 200.251L211.328 200.094L210.752 200.129L210.49 200.24L210.268 200.571L210.973 201.858L211.7 201.345L211.834 200.857L212.061 200.961L212.154 203.15L211.782 203.621L211.584 203.72L211.287 203.581L211.112 203.319L210.653 202.114L209.989 201.281L209.5 201.072L209.192 201.171L209.104 201.421L208.482 201.369L207.969 200.333L208.121 200.088L207.923 199.716L207.364 199.628L206.927 199.919L206.607 199.972L206.345 199.82L205.397 198.86L205.501 198.109L206.06 197.876L206.281 197.486L205.839 196.474L205.577 196.305L204.384 196.392L204.116 197.289L202.964 198.476L202.405 198.587L202.149 198.546L201.264 197.516H202.015L202.678 197.219L203.604 195.589L203.4 194.838L202.62 193.633L202.254 193.447L201.666 193.715L200.822 194.524L199.786 195.298L198.895 195.391L198.784 195.502L198.819 195.793L199.692 195.944L200.181 195.775L200.472 195.56L200.909 195.682L201.002 195.915L200.932 196.27L200.606 196.77L200.449 196.887L199.908 196.759L198.936 196.968L198.732 197.091L196.829 198.377L195.443 200.082L194.745 200.274L194.512 200.437L194.372 200.793L193.552 201.398L193.313 201.334L192.923 200.874L192.568 200.664L191.258 200.245L190.962 199.943L190.426 199.611L189.943 199.547L188.878 199.116L187.184 197.807L186.2 197.417L185.502 197.585L185.385 197.719L184.815 197.708L184.198 197.353L183.581 196.84L182.673 196.642L182.231 196.637L181.777 196.765L181.404 197.079V197.329L181.596 197.708L181.096 197.847L180.357 197.486L179.809 196.823L178.709 195.793L178.145 195.42L177.289 195.024L177.312 163.36L177.475 163.576L177.772 163.867L177.964 163.919L179.053 164.001L180.089 164.484L180.793 164.914L180.904 165.066L181.212 164.903L181.567 164.414L182.126 164.199L183.063 164.443L184.053 164.239L184.78 164.571L185.287 164.92L186.165 166.399L186.195 167.493L186.742 167.999L187.079 168.902L187.062 169.053L187.277 169.303L187.813 169.408L188.098 169.047L188.302 168.145L188.412 167.988L188.773 167.865L189.169 168.127L189.256 168.337L190.001 168.64L190.944 168.704L192.289 169.437L192.37 169.559L192.364 170.042L192.213 170.805L192.382 171.765L192.673 172.406L193.144 172.697L193.657 172.825L193.901 173.203L193.755 173.645L193.86 173.808L194.25 174.099L194.512 174.041L194.96 174.204L195.932 174.943L197.015 175.52L197.504 176.195L198.144 176.765L198.505 176.882L198.651 177.033L198.977 177.778L200.304 179.332L201.084 179.786L201.328 179.85L202.446 179.536L202.347 178.744L202.568 177.941L202.684 177.801L203.476 177.597H204.25L204.465 177.772L205.018 177.825L205.571 177.522L206.049 177.417L206.206 177.435L206.666 177.795L207.411 178.511L207.853 178.698L209.657 179.041L210.967 179.157L211.63 178.872L211.852 178.639L212.247 178.587L212.899 178.686L213.464 179.128L214.873 179.571L215.722 179.629L216.782 179.256L217.352 179.204L217.94 178.471L218.528 178.372L219.418 178.54L219.96 178.331L221.019 178.785L221.706 179.221L222.032 181.794L222.433 182.306L223.016 183.494L222.952 184.058L222.439 184.943L223.01 184.99L234.214 190.636L233.72 190.95L232.998 191.014L232.288 192.097L231.717 192.388ZM205.036 197.946L204.582 197.772L204.5 197.405L204.657 196.887L205.67 197.096L205.926 197.399L205.856 197.516L205.449 197.521L205.036 197.946ZM205.024 199.064L204.809 198.802L204.5 198.668L203.522 198.75L203.54 198.662L203.982 198.231L204.57 198.115L204.739 198.226L205.077 199.035L205.024 199.064Z" fill="#171619" stroke="white" stroke-width="0.5"/>
<path d="M234.238 81.5755V81.6802L234.628 82.0527L234.302 80.9294L233.889 80.0796L233.894 79.7594L234.139 79.1133L234.389 78.7874L234.669 78.7117L234.89 78.8049L235.373 79.5499L235.658 80.359L236.426 80.6733L237.427 81.3601L238.143 81.686L237.777 80.8188L237.771 80.3066L237.946 79.9515L238.405 80.033L238.854 80.7024L238.667 81.1331L238.714 81.4649L239.569 82.6814L239.168 85.3996L239.523 86.133L239.447 87.1108L239.866 87.9606L240.379 88.24L240.85 88.3099L241.03 88.7231L241.461 89.0491L241.764 89.9222L242.212 90.1666H242.422L242.718 90.3762L243.388 91.2027L243.818 91.3307L244.156 91.5985L244.057 91.7557L244.098 91.9477L244.272 92.0176L244.581 91.7149L244.593 91.3424L244.744 91.1969L245.023 91.2784L245.681 92.035L246.601 92.8557L247.084 94.2934L247.852 95.5507L248.772 96.255L249.662 96.6042L249.977 96.9651L250.163 97.4133L250.227 98.2456L251.263 99.9627L252.13 100.225L252.753 100.265L252.998 101.29L252.922 101.907L252.666 102.169L252.701 102.984L252.84 103.374L253.05 103.571L253.242 103.624L253.58 104.45L254.488 104.864L254.511 105.032L254.208 105.69L253.795 107.378L253.911 107.832L254.069 109.91L254.243 110.335L254.33 112.82L253.94 112.943L253.556 113.484L253.748 114.45L254.441 114.986L254.953 115.626L255.349 116.982L255.885 117.733L256.071 118.239L255.931 119.188L256.245 119.98L256.536 120.387L256.065 120.771L255.372 121.039L254.528 121.196L254.045 121.836L253.003 121.767L251.822 121.889L250.786 121.662L250.372 121.237L250.093 121.196L249.732 121.499L249.604 121.825L249.348 121.999L248.091 122.413L247.381 122.762L246.77 123.245L247.34 124.537L247.136 125.707L245.926 126.289L245.536 126.103L245.303 125.655L244.214 126.138L243.644 127.302L243.341 127.622L243.033 127.698L242.893 127.634L242.637 127.063L242.561 125.969L240.949 124.578L239.354 123.85L238.4 124.048L237.346 124.019L236.909 123.722L236.426 123.222L236.252 123.181L235.396 123.286L234.488 123.635L232.544 123.804L231.991 123.641L231.892 123.431L231.729 123.402L231.031 123.594L229.011 125.311L228.272 126.237L227.789 126.475H208.854H200.81H190.973L178.285 126.47L177.528 126.487L177.516 105.219H158.559V41.4542L159.787 42.4553L160.392 42.6882L161.632 42.985L162.598 42.9268L162.901 43.148L163.884 43.5612L164.944 43.7126L165.77 44.8592L165.904 45.709L166.224 46.326L166.527 46.6229L167.01 46.7917L167.645 46.8673L168.267 47.2806L168.78 47.7986L170.031 48.1595L170.462 48.4156L171.073 48.9627L171.323 49.0675L172.039 49.1083L173.71 48.8056L174.577 48.4854L175.118 48.1944L175.991 47.5192L176.469 47.3504L176.8 46.7451L177.155 45.3714L177.248 44.3878L178.75 42.4379L179.332 41.1224L179.519 40.1678L180.223 38.3169L180.06 37.2168L180.438 34.8071L181.538 32.2868L181.736 31.4893L181.113 29.7781L180.828 27.9446L180.921 27.4091L181.282 26.4836L181.329 25.7619L181.189 25.2555L180.555 24.4988L180.502 23.7189L180.962 21.8097L181.887 20.0112L181.818 19.726L181.527 19.4L181.241 18.2824L181.294 18.0962L181.375 17.9507L182.021 17.5432L182.266 17.2464L182.574 16.3908L182.953 16.5072L183.156 16.8564L183.162 17.3744L183.43 17.7819L183.482 17.5083L183.127 16.4722L182.848 16.2685L182.08 15.1161L182.266 14.9647L182.144 14.8716L181.73 14.8425L181.678 15.2208L181.876 15.4886L181.509 15.605L181.288 15.506L181.3 15.3605L181.893 14.0742L182.446 13.3117L182.347 13.0905L182.633 12.2756L182.906 11.8682L183.18 11.7459L183.337 12.5143L184.012 12.3804L184.064 12.2232L183.552 11.7227L183.529 11.4607L183.669 10.7157L184.641 7.92181L184.868 6.49577L184.74 5.3724L184.798 5.21524L185.031 5.04644L186.032 4.87183L186.387 4.40036L186.672 3.68443L187.143 3.66697L187.737 3.94635L187.539 4.24902L187.12 4.63318L187.074 5.22106L187.475 4.70885L187.702 4.72631L188.558 5.45389L188.831 6.05341L189.32 8.04404L189.157 8.81236L189.332 10.122L189.285 10.8728L189.972 11.4782L190.409 11.5131L190.822 11.3269L191.003 11.3967L191.427 11.8623L190.816 12.846L190.688 13.3873L190.659 14.0916L190.985 14.1848L191.183 14.1324L191.742 14.4059L191.916 14.598L191.94 15.2732L192.219 15.5642L192.458 15.5875L192.888 15.9135L192.539 16.7225L192.458 17.4035L192.731 17.5432L193.354 17.4734L193.418 17.6014L193.319 19.0158L193.465 20.3429L193.511 20.5758L193.761 20.8144L193.924 21.1636L193.872 21.769L193.517 23.259L193.965 24.4232L194.501 24.9878L194.582 26.0355L194.827 26.9027L195.112 27.5139L195.327 27.7467L195.781 27.9912L196.567 27.997L197.463 27.2985L199.244 26.4836L199.506 25.8958L199.757 25.954L200.152 26.5477L200.077 27.1647L200.379 27.9854L200.775 28.4568L201.73 28.8235L202.161 28.8526L202.556 29.7315L204.116 30.4358L204.809 30.9771L204.768 31.3613L204.291 32.2053L204.314 32.5894L204.564 33.0027L204.646 33.4858L204.39 34.2367L204.745 34.941L205.088 36.1109V37.2925L205.408 37.6126L205.74 38.3867L205.635 39.7255L205.397 40.0572L205.356 40.7324L205.414 40.9245L205.746 41.1341L207.905 43.829L208.115 43.6544L208.703 43.5554L208.854 43.7417L208.365 44.6671L208.394 44.8709L208.843 45.6392L209.337 46.7975L209.675 48.0373L209.791 48.9511L209.675 49.5797L209.768 50.2549L209.727 50.6915L209.145 51.9254L209.192 52.5599L210.472 54.2362L211.241 54.5272L211.194 55.2664L210.909 55.93L210.827 56.6343L210.886 56.8554L211.252 57.3444L211.805 57.7751L211.962 58.0778L212.702 58.5609L213.266 58.8286L213.959 58.8461L214.733 59.6202L215.164 59.6377L215.915 59.8821L216.34 60.2838L217.061 60.4351L218.19 60.3478L218.284 60.1499L217.998 59.6551L218.359 60.0684L218.97 61.1685L219.221 62.449L219.372 62.7575L219.692 63.1009L220.036 63.1824L220.327 63.1126L220.228 62.5713L220.274 62.3384L220.658 62.3443L220.845 62.5422L220.92 63.2814L221.223 63.5666L221.601 63.7296L222.393 63.6946L223.173 63.9216L223.673 64.527L223.47 64.6085L223.522 64.7889L223.895 65.2487L224.395 65.6562L224.727 65.5107L224.75 65.1149L224.552 64.9344L224.64 64.7016L225.076 64.8646L226.031 65.7202L226.636 65.8308L226.851 66.1276L227.253 67.2568L227.492 67.3209L227.684 67.8563L227.329 67.769L227.026 67.4605L226.77 67.3383L226.462 67.4664L225.996 68.0426L226.386 69.0903L227.148 69.8877L227.602 70.202L228.278 70.4407L229.116 71.0926L229.459 71.5291L229.395 72.0297L229.616 72.8679L229.931 73.1356L230.175 73.9389L230.536 74.5733L230.897 74.9167L230.815 76.2031L231.392 78.2635L231.828 79.3229L232.23 79.8991L232.503 80.1203L232.521 80.813L232.329 81.104L232.754 80.8886L233.091 80.6092L233.248 80.3473L234.238 81.5755ZM253.853 103.798L253.58 103.74L253.323 103.397L252.98 102.145L253.318 101.319L253.743 100.615L253.737 100.015L253.649 99.8637L253.911 99.3166L254.569 98.7869L254.86 98.2165L254.913 97.908L254.848 97.6694L254.47 97.0524L254.348 96.9825L254.587 96.5402L255.128 96.1851L255.18 97.6053L255.326 97.9255L255.628 98.1234L255.692 98.3678L254.15 102L253.871 102.914L253.964 103.478L253.853 103.798ZM165.811 42.8046L165.747 42.4204L165.916 41.751L166.277 41.2505L166.806 40.8488L167.901 40.715L168.244 40.5287L169.461 40.7266L169.495 41.1108L169.222 41.2388L168.809 41.3261L168.535 41.105L167.953 41.3378L168.046 41.5415L167.656 42.1876L166.952 42.4553L166.038 42.6241L165.811 42.8046ZM242.136 89.8872L241.793 89.5671L241.548 89.0258L241.124 88.6416L240.879 88.0945L240.821 87.6172L241.1 87.5532L241.985 88.112L242.107 88.3157L242.515 89.0956L242.59 89.6311L242.422 89.8349L242.136 89.8872ZM210.938 54.2245L210.501 54.0557L210.379 53.4504L210.1 53.0721L209.809 52.9324L209.652 52.6413L209.914 52.5773L210.81 52.9964L211.334 53.7531L211.148 54.114L210.938 54.2245ZM255.908 117.419L255.797 117.174L255.832 116.569L256.077 115.183L256.321 115.125L256.758 115.201L256.339 116.586L256.205 117.384L255.908 117.419ZM256.024 114.811L255.605 113.635V112.681L256.146 112.384L256.286 112.489L255.96 113.723L256.024 114.811ZM184.99 4.05695L184.594 3.73681L184.565 3.33519L184.943 3.08491L185.205 3.03252L185.514 3.49817L185.473 3.73681L185.17 3.81248L184.99 4.05695ZM185.601 0.832343L185.164 0.646085L185.031 0.436544L185.275 0.0640264L185.624 0L185.834 0.0989499L185.979 0.355056L185.601 0.832343ZM167.58 45.3307L167.4 44.9524L168.046 44.347L168.372 44.5798L168.477 45.0629L167.732 45.0455L167.58 45.3307Z" fill="#171619" stroke="white" stroke-width="0.5"/>
<path d="M214.896 241.263L214.372 241.525L214.256 241.263L213.441 241.135L212.894 240.722L212.358 240.605L210.979 240.536L210.845 240.443L210.752 240.192L210.571 240.14L209.809 240.373L209.355 240.221L208.685 239.168L209.058 238.906L209.756 239.011L210.1 239.197L210.577 239.296L210.589 238.725L210.14 238.353L209.896 238.795L208.214 238.58L208.074 238.481L207.382 237.067L206.549 235.739L206.415 235.606L206.019 235.623L205.694 235.099L205.461 234.604L205.024 232.992L204.751 232.695L204.43 232.602L204.035 230.053L204.081 229.57L204.198 229.418L204.366 229.721L205.478 230.571L205.752 231.84L206.276 230.373L205.944 230.14L205.682 230.163L204.559 228.929L204.436 228.58L204.448 228.068L204.355 227.684L203.953 226.863L203.132 226.089L202.498 224.966L200.798 220.792L200.857 220.495L200.682 219.611L200.49 219.25L200.374 218.412L200.886 217.946L200.897 216.98L201.282 216.724L202.696 216.892L203.522 217.504L204.524 217.341L204.908 217.667L206.194 218.086L208.301 219.337L210.327 220.292L211.665 220.414L212.259 220.233L212.806 220.542L212.777 220.251L213.272 219.727L213.72 219.57L214.052 219.675L214.192 220.228L214.523 220.396L215.053 220.385L214.867 220.117L214.424 220.018L214.296 219.896L214.267 219.494L214.552 219.232L215.519 218.796L216.339 219.069L217.661 218.802L218.045 219.145L218.499 218.871L219.133 217.771L219.273 217.684L219.675 217.585L219.826 217.806L220.484 218.103L220.705 218.091L221.106 217.859L221.31 217.515L221.421 217.009L221.549 216.869L221.817 216.881L222.23 217.073L223.126 217.736L223.458 218.173L223.807 218.959L223.406 220.391L223.452 220.821L223.714 221.165L223.737 221.799L223.464 222.8L223.505 223.516L223.72 224.139L223.406 225.839L223.615 227.701L223.999 228.324L224.034 229.29L223.702 229.762L223.475 229.57L223.446 229.366L223.615 229.151L223.691 228.592L223.243 227.387L222.969 226.939L222.236 228.394L221.758 231.846L221.473 232.137L221.38 232.625L221.45 233.51L220.996 233.982L220.74 234.843L220.827 234.983L221.101 234.965L220.984 234.715L221.17 234.575L221.572 234.82L221.735 235.14L221.77 235.739L221.531 235.897L221.432 236.647L221.77 237.41L221.712 237.899L221.555 237.911L221.106 237.515L220.652 237.713L220.414 238.068L219.832 237.346L219.418 236.502L219.337 236.089L219.686 235.466L219.89 235.408L220.041 235.547L220.07 235.757L219.971 235.961L220.361 236.38L220.903 236.339L221.101 236.17L220.635 235.355L219.157 234.453L218.941 234.488L218.592 234.75L218.714 235.338L218.912 235.769L218.743 236.106L218.12 236.31L217.975 235.949L218.097 235.873L218.004 235L217.434 234.634L217.632 235.134L217.492 236.031L217.125 236.479L216.956 237.107L217.084 237.713L216.991 238.277L216.776 238.417L216.555 238.388L216.048 238.062L215.589 237.521L215.501 236.973L215.367 236.921L215.233 237.136L215.228 237.718L216.025 238.446L215.769 239.086L215.437 239.604L215.123 240.518L215.03 241.147L214.896 241.263ZM222.556 212.952L221.985 212.638L221.822 212.021L221.857 211.846L221.136 210.49L220.233 209.687L221.002 208.674L221.543 208.441L222.794 210.111L223.027 210.28L223.51 210.408L223.563 210.647L223.86 212.271L223.836 212.492L223.662 212.655L222.864 212.801L222.556 212.952ZM195.973 211.817L195.752 211.654L195.67 211.229L195.787 211.142V210.571L195.426 210.1L195.443 209.652L195.554 208.33L196.049 207.964L196.125 207.748L196.06 207.277L196.328 207.201L196.893 207.545L197.155 207.923L197.242 209.256L197.393 210.111L197.335 210.56L197.143 210.99L195.973 211.817ZM223.883 214.844L223.865 214.442L223.755 214.279L222.288 214.465L221.723 214.221L221.735 213.901L222.154 213.557L222.585 213.534L223.027 213.668L223.912 213.22L224.773 214.244L224.762 214.331L224.325 214.5L223.883 214.844ZM217.335 240.355L216.933 240.169L216.531 240.256L216.2 239.564L217.317 238.184L217.725 239.249L217.445 240.262L217.335 240.355ZM290.488 349.241L290.208 349.212L290.203 348.315L290.563 346.697L290.686 346.406L291 346.22L290.907 347.308L290.546 348.519L290.488 349.241ZM217.707 238.184L217.271 237.27L217.678 236.56L217.928 236.944L218.155 237.998L218.138 238.097L217.707 238.184ZM221.834 233.795L221.863 232.655L222.23 232.375L222.556 232.404L222.841 232.963L222.812 233.05L222.37 233.056L221.834 233.795ZM202.085 216.718L201.974 216.636L201.945 216.235L202.323 215.787L202.894 216.438L202.085 216.718Z" fill="#171619" stroke="white" stroke-width="0.5"/>
</g>
<defs>
<clipPath id="clip0_8_552">
<rect width="257" height="263" fill="white"/>
</clipPath>
</defs>
</svg>
