<svg fill="none" height="263" viewBox="0 0 257 263" width="257" xmlns="http://www.w3.org/2000/svg" xmlns:xlink="http://www.w3.org/1999/xlink"><clipPath id="a"><path d="m0 0h257v263h-257z"/></clipPath><g clip-path="url(#a)"><path d="m47.08 235.72h.8v3.28h-7.84v-3.28h1.2l-.32-1.6h-2.72l-.32 1.6h1.2v3.28h-6.84v-3.28h.8l3.38-12.28h7.28zm-8.44-3.72h1.84l-.82-3.98h-.2zm16.5525 7.28c-2.0933 0-3.7133-.46-4.86-1.38-1.1333-.92-1.7-2.413-1.7-4.48v-6.7h-1v-3.28h7.4v3.28h-.8v7.72c0 .44.0933.767.28.98.2.2.4933.3.88.3s.6733-.1.86-.3c.2-.213.3-.54.3-.98v-7.72h-.8v-3.28h6.86v3.28h-1v6.7c0 2.067-.5533 3.56-1.66 4.48s-2.6933 1.38-4.76 1.38zm14.345 0c-1.28 0-2.4933-.107-3.64-.32-1.1333-.227-2.0067-.48-2.62-.76v-3.96h4.4c0 .413.0933.713.28.9s.5267.28 1.02.28c.4133 0 .7067-.06.88-.18.1867-.133.28-.327.28-.58 0-.213-.0867-.393-.26-.54-.1733-.16-.4733-.32-.9-.48l-1.72-.6c-1.48-.56-2.5467-1.22-3.2-1.98-.64-.76-.96-1.787-.96-3.08 0-1.573.5133-2.767 1.54-3.58 1.04-.827 2.7667-1.24 5.18-1.24 1.16 0 2.2467.12 3.26.36 1.0267.227 1.8533.533 2.48.92v3.58h-4c0-.667-.4133-1-1.24-1-.4 0-.6867.053-.86.16-.16.093-.24.267-.24.52 0 .227.0933.407.28.54.2.133.52.273.96.42l1.74.6c1.4133.48 2.44 1.107 3.08 1.88.6533.76.98 1.76.98 3 0 1.693-.5733 2.973-1.72 3.84-1.1333.867-2.8 1.3-5 1.3zm22.1966-11h-3.44v-1.56h-1.28v9h1.4v3.28h-8.4v-3.28h1.4v-9h-1.28v1.56h-3.44v-4.84h15.04zm.6854 7.44h1v-9h-1v-3.28h9.1805c1.72 0 3.033.353 3.94 1.06.906.707 1.36 1.853 1.36 3.44 0 .893-.18 1.667-.54 2.32s-.874 1.107-1.54 1.36l.02.2c1.28.2 1.92.987 1.92 2.36v1.54h.94v3.28h-6.34v-4.7c0-.52-.08-.913-.24-1.18-.147-.267-.387-.447-.72-.54-.32-.093-.7805-.14-1.3805-.14v3.28h1.3205v3.28h-7.9205zm7.6805-5.72c.386 0 .673-.1.86-.3.2-.213.3-.54.3-.98v-.72c0-.44-.1-.76-.3-.96-.187-.213-.474-.32-.86-.32h-1.0805v3.28zm22.996 5.72h.8v3.28h-7.84v-3.28h1.2l-.32-1.6h-2.72l-.32 1.6h1.2v3.28h-6.84v-3.28h.8l3.38-12.28h7.28zm-8.44-3.72h1.84l-.82-3.98h-.2zm9.873 7v-3.28h1v-9h-1v-3.28h8.44v3.28h-1.84v9h1.8v-1.84h3.98v5.12zm13.066 0v-3.28h1v-9h-1v-3.28h7.6v3.28h-1v9h1v3.28zm23.079-3.28h.8v3.28h-7.84v-3.28h1.2l-.32-1.6h-2.72l-.32 1.6h1.2v3.28h-6.84v-3.28h.8l3.38-12.28h7.28zm-8.44-3.72h1.84l-.82-3.98h-.2z" fill="#e55933"/><g fill="#171619"><path d="m38.6 263.28c-1.28 0-2.4933-.107-3.64-.32-1.1333-.227-2.0067-.48-2.62-.76v-3.96h4.4c0 .413.0933.713.28.9s.5267.28 1.02.28c.4133 0 .7067-.06.88-.18.1867-.133.28-.327.28-.58 0-.213-.0867-.393-.26-.54-.1733-.16-.4733-.32-.9-.48l-1.72-.6c-1.48-.56-2.5467-1.22-3.2-1.98-.64-.76-.96-1.787-.96-3.08 0-1.573.5133-2.767 1.54-3.58 1.04-.827 2.7667-1.24 5.18-1.24 1.16 0 2.2467.12 3.26.36 1.0267.227 1.8533.533 2.48.92v3.58h-4c0-.667-.4133-1-1.24-1-.4 0-.6867.053-.86.16-.16.093-.24.267-.24.52 0 .227.0933.407.28.54.2.133.52.273.96.42l1.74.6c1.4133.48 2.44 1.107 3.08 1.88.6533.76.98 1.76.98 3 0 1.693-.5733 2.973-1.72 3.84-1.1333.867-2.8 1.3-5 1.3zm15.6259-15.84h6.14v3.28h-.8l-3.86 6.92v2.08h1v3.28h-7.6v-3.28h1v-2.08l-3.98-6.92h-.8v-3.28h7.74v3.28h-.7l1.18 3.1h.2l1.18-3.1h-.7zm6.7874 12.28h1v-8.98h-1v-3.3h8.12c2.2266 0 3.9933.613 5.3 1.84 1.32 1.213 1.98 3.193 1.98 5.94s-.66 4.733-1.98 5.96c-1.3067 1.213-3.0734 1.82-5.3 1.82h-8.12zm7.76 0c.4533 0 .7933-.12 1.02-.36.2266-.24.34-.613.34-1.12v-6.04c0-.987-.4534-1.48-1.36-1.48h-1.16v9zm19.8342-12.28h6.56v3.28h-1v12.28h-5.62l-5.86-9.02v5.74h.96v3.28h-6.56v-3.28h1v-9h-1v-3.28h7.22l5.26 8.02v-4.74h-.96zm7.3277 15.56v-3.28h1v-9h-1v-3.28h13.4998v6.04h-4.48v-2.76h-2.42v3.16h1.76v2.28h-1.76v3.56h2.42v-3.16h4.48v6.44zm22.9978-15.56h6.14v3.28h-.8l-3.86 6.92v2.08h1v3.28h-7.6v-3.28h1v-2.08l-3.98-6.92h-.8v-3.28h7.74v3.28h-.7l1.18 3.1h.2l1.18-3.1h-.7z"/><path d="m113.67 16.0475v-.2095l.361-.4599-.873-.5879.198-.4598.244-.1222.891.0291.058-.2037-.064-.553-.175-.3434.163-.2386.565.0291.629.4074.826.0407.582.4191.355.0524 2.771-.1862.826.2619 1.019-.6985.867.0175.355.6752-.215.4656.343-.3492.047-.1514-.128-.7508.122-.227.844-.3027.664.2445.419-.035-.245-.0291-.448-.3317-.07-.2969.047-1.8451.355-.55878-.955-.71011-.32-.454-.262-.16298-.477-.08731-.902.15134-.78.41908-.123-.01164-.611-.61116-.122-.41909-.663-.35505-.594.05238-.041-.06984.693-.82653.698-.32013.67.65773.477 1.12919.244.02328.192-.34923-.273-.84981-.291-.52385.221-.05238.6.20372.407-.21537 1.03.86145.064.27939 1.001 1.28053.344.07566.291-.227.646-.96622.273.02329.495.52967.949 1.71707.233.1863.431.128.355-.2386h.314l.32.4656.896.3784.431.0116.309-.099.611-.3317.233-.3143.686.1164.07.1979-.436.2503-.099.1513.029.1571.198.1863.454.1921.349-.163.186-.2445.146-.0232.855.6519-.075.1222.087.518.122.099 1.031-.1514.325.1339.6.0524.524-.064.466-.3551.622-.0349.629.8731.797.4132.547.4541.687.064.245.1106-.035-.1223.256-.6635.39-.39.326-.1397.367.163.937-.1106.483-.39-.146-.0815-.361.2154-.064-.1572.134-.4831.582-.1571.431.0116.803-.6402-.023-.4482.233.0058.215.2503-.192.3085-1.077.9138.268.3143-.728.745-.029.2038.123.3026.296.2794.321-.1397.093-.2619.518-.4249.879-.2561-.536.6752.216.3259.465-.2153.111.1921-.507.7333.175.4308.186.1746.262-.1688.477-.0524.088.1513.436-.0407.338-.2619.442-1.1234-.169-.2212-.599.0757-.384-.163-.029-.1571.657-.652 1.071-.7159.705-.128-.146.4831.396 1.1117.448.6519.285-.0058.245-.1746-.018-.1397-.413-.1514.035-.1222.512-.128.641.3259.646.8731-1.1.7683-.373.4307-.64 1.0303-.146.7799-.797-.2968-.064.4307.39.7218-.006.6228-.105.6111-.442.6636-.058-.2038-.513.1747.024-1.1467-.099-.0989-.198.0465-.25.6752-.542.4715-.256.0174-.087-.2502-.309-.1223-.657.2561-.419.3434-.227.39.017.1805.256.1979-.169.3783-.279.2328-.117.7276.274.8091.245.1338.349-.0873.273-.3085-.035.4831-.198.6752-.401.617-.175 1.1699-.174.3376-.734.4948-.832 1.0768-.512.8847-.012.4715-.792.5355-.256-.0058.39 1.1292.268.4016.419.355.809.2911 1.147.7334.588.5355 1.694.8789.18.1571.151.7974.35.4075 1.571.7508.646.5355.588.6403 1.671.0698.669.3493 1.467 1.0419.751.3201.349-.0117.652.2154.576.2852.768 1.2223.897.7625v63.7647l-42.758.006-8.423-.006-5.652.041-.034-59.1376v-12.2174-3.4341l.564.1863.605.5238-.069 1.1874.104.1281.414-.5123-.239-1.5773.07-.1455.652.1804.815.4133 1.303 1.4551.053.3143.349-.1339-.431-.5646-.232-.4831-.082-.4831.14-.2735.07-.4366.972.1688.401-.1339.507-.4889-1.13.3551-.57-.3667-.454-.5937-.105-.3027.233-.1164.501-.0524.413-.291.023-.1397-.71.2386-.757-.1397-.535-.3085-.611-.582.075-.5181.379-.7217.39-.518 1.519-.9546.343-1.6181-.035-.2969.297-1.1699.448-.4657.059.4075.221.128.611-.1106.774-.5238.635-.6694-.064-.2386-.396-.5413-.216-.1805-.215-.0465-.052-.1397.058-1.1409.105-.2852.262-.1164.087.163.186.0873.239-.0524.407-.291.163-.3551-.058-.8556.064-.2154.978-.4365.582.6635.559-.0407-.536-.1572-.18-.681.169-.4132.046-.5122-.192-.1456.309-.128.896.2852zm.396-4.5051-.617-.5122-1.158-.4773-1.164-.91387-.472-1.23978-.338-1.25143.047-.47146.134-.10478.879.76832.262.4249.832.26193.885-.20954.343-.32013.664.28521.739-.57042.192-.01746.128.43654.326.46565.029-.16298-.215-.54131.075-.32013.42-.33178.925.37252.699.91965.052.48311-1.612 1.69374-.204.0292-.78.5005zm37.595 14.4408.099-.163.274-.0174-.163.8149-.332.128-.873-.2328-.751.1106-1.607-.4016.222-1.1118-.047-.4772.146-.5414.18-.3085.856-.1629.203-.1572-.18-.4074.53-.4424.273.0175-.046.2968-.245.1688.233.6752.599.1048.21-.2212-.064-.2212.116-.1571.21-.0583.186.1339.047.2387-.623.6402-.332.2154-.39.8673.012.5995.18.1571.844.1281zm-40.54-15.0869-1.048-.4016-1.461.3725-.349-.0699-.099-.1571-.047-.1688.35-.63447.291.17457.238.0117.233-.22701-.017-.89055-.105-.27357.518-.90219.559-.11641.931 2.32823.448.1164.472.4249-.146.3201zm37.979-2.45049.023-.29685.856-1.23978.541-1.09427.285-.15134-.308 1.1874-1.03 1.44351-.14.12805zm-24.691-.71593-.186-.1979-.221-.61116-.187-1.06517.484-.18626.302.99532-.011.62863zm28.172 28.98072-.361-.2678-.396-.5879.116-.3376.361-.355.286.355.238.7742-.163.4132zm-5.39-12.7937.017-.2328-.203-.3551-.163.1106.099.3085h-.268l-.099-.1222.058-.5413.553-.4366.268.0466.279.3783-.087.4133-.21.3376zm-.117-13.96938v-.29685l.577-.45982.477-.02329.838-.6519-.058.32013-.635.48311zm2.16 25.56398-.163-.0815.128-.5471.361-.2445.18.0815-.11.7159z" stroke="#fff" stroke-width=".5"/><path d="m8.42238 105.23.11059-.215.00582-.856-1.4144-1.495-.75085-1.409-.68683-1.7404-.66937-.4074-.57042-1.6181-.05238-.3085.06985-.6286-.38998-.6461-.79742-.9313-.22701-.6636-.03492-1.3678.25611-.6636.13969-.8498.54132-1.7461.43654-.8731.89637-.7043.15715-.5879.08731-.7858-.13969-.908.3667-1.1175-.06985-.6636-.34342-.9487-.51803-.7334-.09313-.553.90801-1.8393.84399-2.4272.61116-.908.37252-.2095.46564-.0815.08149.163-.31431.5937-.30849 1.7869.40744.8614-.1979 1.2573.27357.2794 1.37948-.5821.17461-.7276.38416-.9836 1.0419-1.8102.163-.5588 1.8451-1.0244.6926-.0524 1.2165-.6054 1.3038-.5005 1.0594-1.2515.3842-.2968.7974-.3434.7508-1.1292 1.4843-.6927.163-.4307.4016-.2212.3841-.0465 1.0477-.3726.8266-.5122.6402-.5413.5122.1106.2736.2736.2794.0756 1.2048-.646.6228.2153.2038.2328.4423.1979.4715.0874.4016-.0059 1.7637-.3608 1.0418-.454 1.3853-1.333.6927-.4132.0873.1688.2677.0058 1.9616-.3259.7101.0407.908-.3027.9429-1.1292.1863-.5064.6344-.4831.6869-.064 1.5482.3842.9313.3608 1.2864-.6635 2.8695-.4191.617-.2037 3.4225-1.4261.943-.4889 1.5773-1.3154 1.3388-1.8102.9545-2.0547.8731-1.1758-.0756-.5355.227-.5005.1513-.1455.4133.0989.3143-.1688.4656-.3725.3376-.4948.39-.192 1.3213-1.0419.192-.4657-.0349-.3608-.1862-.1747-.5006-.1396-.2852-.4249-.0699-1.2457-.3725-.9662.0175-1.2863.1979-.7858.518-.8905.7741-.7334.4308-.2736.8032-.0058-.3201-.716.2677-.3608.1746-.0699.1397.1339h.1514l.7101-.2445.064-.1862-.163-.2387.1514-.6344.1804-.2037.3318-.0699.3317-.3667.035-.3609.1338-.2153.4482-.163.4308.4307-.1339.1688-.3143-.0349-.2096.7276.4016.5471.4832.3027.128.5005 1.2107 2.2643 1.5541 2.4853.1397.5414.1164-.5763-.2154-.4191.0233-.518.3492-1.0593-.2852-.8731.1165-.5006.4016-.0116.8032.972.4657.4191.227.0989.1571-.0873-.2444-.1164-.2911-.3609-.227-.908.5995-.6868-.2095-.1106-.4831.1455-.099-.0698-.3085-.6578-.6926-.7508.0349-.7159-.7101.0116-.4831-.4365.4307-.0175.9313.2095.4307-.6519.0524-.3376-.064-.2561-.7043-.1397-.227-.2037-.0175-.5762.0874-.1863.9836-.2153.5064.3958-.1397.3084-.3259.0874.6752.7101.3317.0698.0117-.2561.454-.617.7683.1106.3376.1514.1688.1105.227.5414.1746.1222.6519.0349.326-.3725.5762.2794.6519.064.9488-.1339.6752.2969.3608-.1514-.4889-.0465-.745-.3493-.5181-.1222-.3317-.0233-.5181.1514h-.3899l-.1106-.1164-.1572-.7043.3434-.78.2561-.0582.3027.4598.4715-.3259-.0466-.5995.1863-.681.7101-.716-.3551-.1455-.3434.099-.5122.873-.2969.0059-.5529-.4773-.1805-1.2806.5414-1.2397.1979-.0873.5878.3375.4715-.2444.1106-.163-.0698-1.2514.2677-.064 1.3096.6693.5122.4948 1.1874.5762-.6635-.5879-.0349-.1455.3026-.5529-.1338-.1397-.5414-.0059-.6286.2329-.0698-.3725.2328-.326.2445-.1164.1804.1164.2503-.4307-.1979-.0524-.8265.5471-.1746-.0058-.1863-.4947.2037-.262.2736-.128.3725.1106.1339-.0408.3317-.2328-.0931-.2212.3783-.2677.4366.9837.1106.0698.064-.2794-.0815-.5588.7451.4366.0174.2328.2503.1222.5879-.0291.128-.1222-.1106-.0931-.192.0174-.1688-.1513.1862-.1804-.6868-.489-.6228-.3085.2095-.2444.1688-.0582-.6752-1.0012.6811-.972.5878-.4889.3318.1397 1.2689.0291.064-.7916-.1222-.7625.0815-.4366.163-.1222.6984.3318-.5471 2.3166.1164-.1223.39-1.3445.7625.3899-.1164.6985.1222.227.3725.2328.5588-.6228.2968-.2095.1805-1.1117.4831-.9837.0233-.4075-.4133-1.0593-.4016-.2561.3143-.0699.5064.0757.4365.2212-.0524.4889-.3259.1397.2154.7101.2677.0757.3376.3434.163-.2561-.1164-.3434.2502-.5821.617-.4889.4482-.064-.2968.7276.7159.9254.2037.0582.6519-.6868.5413-.9837-.2735-1.1408.7101-.2852.617-.1455.3899.3143.3609.4656-.1106.2445.4482.5529.1572-.2502.0058-.2096.5529-.0233 1.1583.3726.6054.8556.8672.582 1.8917 2.6309.2736-.1338 1.071.9196.1164.6345-.3027.4365-.4482 1.5134.0641.6868-.0408 1.2398-.3318.6635.3027-.1746.1746-.2445.2212-1.4318.3143.128.4773.4715.1863.617.0291-.6286-.4249-.7393-.2037-.8148.7217-.9895.1281.0232.1688.8324.5995.0174.064-.2968-.2503-.454-.1979-.8556.9371-.2678 2.9333.7334v3.4342 12.2174l.035 59.1308-.075 40.873-1.31.57-1.5076.879-2.3457 1.065-1.0768.431-1.7345.337-2.5436.984-1.3271.233-2.7648.128-1.816-.175-1.3911-.401-.6985.343-.6112-.134-1.0477.571-1.8393 1.513-.4482.198-.8963.192-1.9383 1.071-.7334.658-.8381.506-2.1711.355-.7625.303-.5821.477-.5296.675-.6578 1.909-.2968 1.252-.6054.425-.5704.599-.2153.431-.0059.204-.2793.308-.9488.646-1.0885-.081-.1629.064-.3784.512-.291.221-.4307.14-.4249-1.001-.5239-.221-1.0942.372-.7276-.105-.8615.035-.1164.117-.9022.093-.5005-.099-.3551.14-.227.261-.0698.385-.8382.087-.2445-.082.1339-.285-.1862-.657-.3667-.472-.1281-.047-.4889.088-.3493.332-.5122.145-1.6297-.588-.39-.029-.7916-.017-1.7986.314h-1.1932l-.4482.239-1.589.221-.78.431-1.036-.262-1.5658-.082-1.2106.373-.4657.512-.7741.413-.3318.378-.5238.92-.0874.466-.8963.879-.7392.436-.8207-.291-1.0594-.099-1.0884.739-.1281.192.2212.245-.2212.25-.5122.315-1.0186.331-.3725.384-.1921.507-.6694.5-1.263.676-1.5425.279-.0233.157.1514.163.8731.192-.39.221-.4773-.087-.4715-.372-.3609-.134-.3958.023-.1979.14-.1455.529-.4831-.384-1.2689-.535-2.4155-.012-.3318.309-.1455.005-.9371-.302-.7741.122-.8964-.256-1.5366-1.025-1.5367-.355-.3783-.89-.6286-.728-1.0477-1.071-.9604-.64-1.1467-.6-.4598-.052-.4599.111-.291.378-.7159-.762.0058-.658-.3318-2.352-.0232-1.315.2735-1.269.2678.076.3899.582.7509.32.5995-.053.5122-.186.2096-.122 1.7869-2.573-.2736-2.118-.4714-2.329.1455-.506.4831-.6-.0233.239-.3609.402-.0116.302.2561.728.1746.262.1164-.082-.0116-.407.291-1.071-.1863-1.874.1456-.961-.1106-.716.0349-1.496-.2387-1.309-.1513-.413-1.5424-2.812-.4366-1.304-.3667-.849-.9022-1.572-.7625-1.95.0466-.198-.1979-1.478-.4191-1.444-.128-.11.0291-2.823.227-1.322-.3143-1.1-.163-.262-.099-.675-.3317-.786-1.3621-1.618-.1746-.529-.0465-1.176-.5123-1.036-1.23392-1.845-.47728-.291-.48893-.699-.37834-1.705.08149-.53.20954-.495-.12223-.739-.30849-1.077-.86145-1.787-.87309-1.635-1.35037-1.95-1.92661-2.049-.35506-1.123.29103-.582-.04075-.646.02329-.169.12223-.087.10477 1.362.19208.395.1979-1.117.93711 1.158.12806.378.07566 1.194.14552.43.46564.594.1979.041.01747-.181.40744-.279.26774.064.45401-.675.03492-1.199-.454-.606-.86727-.57-.64026-.664-.3667-1.513-.64027-1.036.1106-.576.38415-.611.18044.134.58788 1.059.66937.576.23282.658-.15133.826-.17462.192.01746.594.18626.541.32013.03.21536-.233.50639-.978.33178 1.641.17461.448.69847.938.7916-.623.1688-.565-.19208-.273-.12223-.495.21536-1.356zm-6.53651 1.007-.18626-.151-.937114-1.42-.471467-.949-.291029-1.094.0407441-.611.2502849-.361.314311.075-.128052.309.023282.192.74503 2.13.64027 1.164.12805.46zm71.50583-72.0351-.0524-.1805-.3376-.3143.0524-.291.1572-.2503.4132-.1688.5472.9139zm-57.8391 35.9479-.2154-.1804-.1571.1513-.0466-.0524.0058-.355.6461-.8731.2096-.1281.0756.0408.0873.4598-.0291.2037-.3667.5704zm61.7331-41.1282-.3318-.1805.0408-.4947.1455-.3725.2968-.3085.291.3259-.1455.7101-.227.1106z" stroke="#fff" stroke-width=".5"/><path d="m228.33 178.122-.734-.373-.838-1.251-.169-.46.012-1.071.303-1.49 1.659-1.223.739.419.332.39.582.216.39.25-.286.256-.588-.081-.471.227-.303.419-.361 1.449.14 1.601-.046.227z" stroke="#fff" stroke-width=".5"/><path d="m234.238 190.618-11.205-5.646-.57-.046.512-.885.064-.564-.582-1.188-.402-.512-.326-2.573-.687-.436-1.059-.454-.541.209-.891-.169-.588.099-.588.734-.57.052-1.059.373-.85-.059-1.409-.442-.564-.442-.652-.099-.396.052-.221.233-.664.285-1.309-.116-1.805-.344-.442-.186-.745-.716-.46-.361-.157-.017-.478.105-.552.302-.553-.052-.216-.175h-.774l-.792.204-.116.14-.221.803.099.792-1.118.314-.244-.064-.78-.454-1.327-1.554-.326-.745-.146-.152-.361-.116-.64-.57-.489-.676-1.082-.576-.972-.739-.449-.163-.262.058-.39-.291-.104-.163.145-.442-.244-.379-.512-.128-.472-.291-.291-.64-.169-.96.152-.763.005-.483-.081-.122-1.345-.734-.943-.064-.745-.302-.087-.21-.396-.262-.361.123-.11.157-.204.902-.285.361-.536-.105-.215-.25.017-.152-.337-.902-.547-.506-.029-1.095-.879-1.478-.507-.349-.727-.332-.99.204-.937-.245-.559.216-.355.489-.308.163-.111-.152-.704-.43-1.036-.484-1.089-.081-.192-.052-.296-.292.029-37.077.75-.005 12.689.005h9.843 8.021 18.934l.483-.238.739-.926 2.02-1.717.699-.192.163.029.099.21.552.163 1.945-.169.908-.349.855-.105.175.041.483.5.436.297 1.054.029.955-.198 1.594.728 1.613 1.391.075 1.094.256.571.14.064.309-.076.302-.32.571-1.164 1.088-.483.233.448.39.186 1.211-.582.203-1.17-.57-1.292.611-.483.71-.349 1.258-.414.256-.174.128-.326.361-.303.279.041.413.425 1.036.227 1.182-.122 1.042.069.483-.64.844-.157.692-.268.472-.384.454.413.087.472-.203 1.554.116.815.291.396-.116 1.443-.996 1.304-.698 2.049.174.506-.704 4.011-.308 1.175-1.176 3.306-.082 1.95.099.355.221.029.111.449-.646 2.165-.122.855-.664 2.195-.559 1.141-1.28 1.618-.291.756.186.984-.076 1.042-1.1.931-.471.547-.972.606-.053.32.158.338-1.211.424-.891.46-.902 1.356-.599 1.485-.14.116-.32.023-.297.239-.064.343.268.239-.204.809-.722.966-.273 2.038-.152.547-.227.174-.366-.04-.495.197.349.094.256.238-.512.833-.57.424-.565.833-.594 1.729.256.314-.314 1.432-.407.256-.128.442.221.646.442.46-.099.512-.169.146-.209-.227.076-.157-.088-.355-.169-.018-.401.25-.047.257.163.395-.355.396-.675.373-.343.646-.035.326-.466 1.35-.32.518-1.222 2.678-.158 1.332-.011 1.688-.367.478-.338 1.874-.36 1.31-.402 1.012.029 1.147.629.728.081.547-.006.262-.186-.059-.268.198.012.92zm-5.547-12.991.046-.233-.14-1.601.361-1.443.303-.425.477-.227.588.081.28-.25-.39-.25-.583-.21-.331-.395-.74-.42-1.658 1.223-.303 1.49-.012 1.077.169.459.844 1.252.151.128.635.215z" stroke="#fff" stroke-width=".5"/><path d="m147.849 164.891-.629 1.013-.512.227-.542.926-.651.407-.39.774-.449 1.356.158.076.279-.035.844-.594.087.402-.099 1.508-.302.128-.169-.321-.53-.587-.378-.233-.396.058-.279.658-.227-.006-.239-.46-.832-1.088-.938-.967-.494-.395-.204-.064-.652.227.25-.693.361-.518.029.477.827.885.332.227.628-.204-.64-.256-.081-.239-.035-.197.104-.233-.279-1.572-.483-1.286-.076-.862-.425-.657-1.012-1.141-1.217-.99.175-.727-.064-.524-.315-.896-.64-1.322-.722-.279-1.17.186-.5.285-.384-.43.005-.192-.465-1.24-.769-1.746.507.034.25.233.087.379.431-.588.128-.384-.128-.664-.448-.634-.396-.344-.18-.029-1.001.314-.408.39-.238-.046.011-.606.181-.413.32.128.105-.174-.786-1.095-.635-.372-.395-.355.069-.274-.43-.134-.158.128-.093.379-.518.326-2.014-.14-.192-.047-.442-.477-.582-.209-.891-.844-.302-.163-1.269-.152-.606.123-.471.436-.547.192-.396.029-.436-.11-1.066-1.077-1.629-1.182-2.556-1.321-1.367-.512-.21.023-.646.524-1.065.413-.32.041-3.353-.25-.722.023-1.344.105-.617.157-3.83.326-1.455.238.034-40.848 5.652-.041 8.423.006 42.758-.006h18.957l.018 21.274-.029 37.077-.163-.215-.024 31.664-.739-.076-.5.151-.46-.017-1.065-.57-1.101-1.106-.745-1.508-.739-1.123-.454-.32-.355.017-1.135-1.525-.396-.791.198-.408-.017-.32-.297-.739.116-.728.449-.372.244-.629-.006-1.053-.233-.833-1.106-2.695-1.746-2.328-1.152-1.24-.675-.547.308.099 1.723 1.508 1.141 1.565.483.996-.07-.542-.291-.82-.239-.355-.75-.868-2.201-2.107-.011-.687.39-.157.477.414-.058.972.099.133.593-.064.163-.675.076-1.03-.105-.739-.908-.448-.489.483-.349.104-.372-.017-.32.14-.129.314.064.204.361.116.123.151-.286.367-1.705-.145-.448.186-.379.46-.343.238-2.282.123-.518-.39.379-.67.838-.419.966-1.042.18-1.018-.075-.268.064-.489.308-.675-.209-1.246.145-.687-.052-.337-.384-.664-1.013-1.24-.349-1.257-.803-1.368-.152.035-.384.897.169.337-.093.32-.6.617-.221.763-.087 1.42-.798 2.596-.006.64-.465.379-.897-.408-.459-.116-.245.046-1.187.449-.268.436-.151.099-.879-.134-.489.431-.361.134-.204-.099-.18-.303.233-.378.43-.425.152-.367.104-1.082.297-.437.53.21.541-.146.559-.035.111.175.541.244.314-.169.128-.32.28-1.827-.111-1.426.076-1.415-.262-.96.093-.128h.308l.187-.361.32-1.059.052-.548 1.106-1.414.71-.698.268-.076.105-.274-.204-.89-.64-1.228.192-.571.361-.256.337-.134.408-.011.174-.14-.046-.384-.192-.367-.344-.145-.366-1.665-.332-.739-.175-.903-.337-.256-.053 1.217.146.081.145.256.041.798-.209 1.082-.332.018-.804.256-.675.733-.652 1.298-.035.623-.116.349-.954 1.787-.431.361-.769.029-.448-.273-.413.617.116.081-.244.256-1.793.949-1.053.827-.361.372-.035.245zm10.145 11.746.96.262.309.419.006.408-.46.413-.751-.367-1.013-.075-.89.419-.117.163.082.535-.181.181-.826.407-.617-.629-.833-.157-.232.076-.07.285-.181.105-.751-.07-.832.128-1.187.035-.204-.338-.896-.745-.03-.273.297-.873 2.317-.687.495-.006.593-.14 1.246-.553 1.321.111.373.355-.006.629.087.116.606.082.622.355.373.029z" stroke="#fff" stroke-width=".5"/><path d="m231.717 192.388-.768.378-.931.093-3.056.018-1.059.151-1.042-.041-1.17.082-2.183.646-1.292.64-1.38 1.048-1.065.995-1.007 1.001-1.536 1.787-.606.536-1.414.18-1.385.349-.495-.157-.576.035-.262.111-.222.331.705 1.287.727-.513.134-.488.227.104.093 2.189-.372.471-.198.099-.297-.139-.175-.262-.459-1.205-.664-.833-.489-.209-.308.099-.088.25-.622-.052-.513-1.036.152-.245-.198-.372-.559-.088-.437.291-.32.053-.262-.152-.948-.96.104-.751.559-.233.221-.39-.442-1.012-.262-.169-1.193.087-.268.897-1.152 1.187-.559.111-.256-.041-.885-1.03h.751l.663-.297.926-1.63-.204-.751-.78-1.205-.366-.186-.588.268-.844.809-1.036.774-.891.093-.111.111.035.291.873.151.489-.169.291-.215.437.122.093.233-.07.355-.326.5-.157.117-.541-.128-.972.209-.204.123-1.903 1.286-1.386 1.705-.698.192-.233.163-.14.356-.82.605-.239-.064-.39-.46-.355-.21-1.31-.419-.296-.302-.536-.332-.483-.064-1.065-.431-1.694-1.309-.984-.39-.698.168-.117.134-.57-.011-.617-.355-.617-.513-.908-.198-.442-.005-.454.128-.373.314v.25l.192.379-.5.139-.739-.361-.548-.663-1.1-1.03-.564-.373-.856-.396.023-31.664.163.216.297.291.192.052 1.089.082 1.036.483.704.43.111.152.308-.163.355-.489.559-.215.937.244.99-.204.727.332.507.349.878 1.479.03 1.094.547.506.337.903-.017.151.215.25.536.105.285-.361.204-.902.11-.157.361-.123.396.262.087.21.745.303.943.064 1.345.733.081.122-.006.483-.151.763.169.96.291.641.471.291.513.128.244.378-.146.442.105.163.39.291.262-.058.448.163.972.739 1.083.577.489.675.64.57.361.117.146.151.326.745 1.327 1.554.78.454.244.064 1.118-.314-.099-.792.221-.803.116-.14.792-.204h.774l.215.175.553.053.553-.303.478-.105.157.018.46.36.745.716.442.187 1.804.343 1.31.116.663-.285.222-.233.395-.052.652.099.565.442 1.409.443.849.058 1.06-.373.57-.052.588-.733.588-.099.89.168.542-.209 1.059.454.687.436.326 2.573.401.512.583 1.188-.064.564-.513.885.571.047 11.204 5.646-.494.314-.722.064-.71 1.083zm-26.681 5.558-.454-.174-.082-.367.157-.518 1.013.209.256.303-.07.117-.407.005zm-.012 1.118-.215-.262-.309-.134-.978.082.018-.088.442-.431.588-.116.169.111.338.809z" stroke="#fff" stroke-width=".5"/><path d="m234.238 81.5755v.1047l.39.3725-.326-1.1233-.413-.8498.005-.3202.245-.6461.25-.3259.28-.0757.221.0932.483.745.285.8091.768.3143 1.001.6868.716.3259-.366-.8672-.006-.5122.175-.3551.459.0815.449.6694-.187.4307.047.3318.855 1.2165-.401 2.7182.355.7334-.076.9778.419.8498.513.2794.471.0699.18.4132.431.326.303.8731.448.2444h.21l.296.2096.67.8265.43.128.338.2678-.099.1572.041.192.174.0699.309-.3027.012-.3725.151-.1455.279.0815.658.7566.92.8207.483 1.4377.768 1.2573.92.7043.89.3492.315.3609.186.4482.064.8323 1.036 1.7171.867.2623.623.04.245 1.025-.076.617-.256.262.035.815.139.39.21.197.192.053.338.826.908.414.023.168-.303.658-.413 1.688.116.454.158 2.078.174.425.087 2.485-.39.123-.384.541.192.966.693.536.512.64.396 1.356.536.751.186.506-.14.949.314.792.291.407-.471.384-.693.268-.844.157-.483.64-1.042-.069-1.181.122-1.036-.227-.414-.425-.279-.041-.361.303-.128.326-.256.174-1.257.414-.71.349-.611.483.57 1.292-.204 1.17-1.21.582-.39-.186-.233-.448-1.089.483-.57 1.164-.303.32-.308.076-.14-.064-.256-.571-.076-1.094-1.612-1.391-1.595-.728-.954.198-1.054-.029-.437-.297-.483-.5-.174-.041-.856.105-.908.349-1.944.169-.553-.163-.099-.21-.163-.029-.698.192-2.02 1.717-.739.926-.483.238h-18.935-8.044-9.837l-12.688-.005-.757.017-.012-21.268h-18.957v-63.7648l1.228 1.0011.605.2329 1.24.2968.966-.0582.303.2212.983.4132 1.06.1514.826 1.1466.134.8498.32.617.303.2969.483.1688.635.0756.622.4133.513.518 1.251.3609.431.2561.611.5471.25.1048.716.0408 1.671-.3027.867-.3202.541-.291.873-.6752.478-.1688.331-.6053.355-1.3737.093-.9836 1.502-1.9499.582-1.3155.187-.9546.704-1.8509-.163-1.1001.378-2.4097 1.1-2.5203.198-.7975-.623-1.7112-.285-1.8335.093-.5355.361-.9255.047-.7217-.14-.5064-.634-.7567-.053-.7799.46-1.9092.925-1.7985-.069-.2852-.291-.326-.286-1.1176.053-.1862.081-.1455.646-.4075.245-.2968.308-.8556.379.1164.203.3492.006.518.268.4075.052-.2736-.355-1.0361-.279-.2037-.768-1.1524.186-.1514-.122-.0931-.414-.0291-.052.3783.198.2678-.367.1164-.221-.099.012-.1455.593-1.2863.553-.7625-.099-.2212.286-.8149.273-.4074.274-.1223.157.7684.675-.1339.052-.1572-.512-.5005-.023-.262.14-.745.972-2.79389.227-1.42604-.128-1.12337.058-.15716.233-.1688 1.001-.17461.355-.47147.285-.71593.471-.01746.594.27938-.198.30267-.419.38416-.046.58788.401-.51221.227.01746.856.72758.273.59952.489 1.99063-.163.76832.175 1.30964-.047.7508.687.6054.437.0349.413-.1862.181.0698.424.4656-.611.9837-.128.5413-.029.7043.326.0932.198-.0524.559.2735.174.1921.024.6752.279.291.239.0233.43.326-.349.809-.081.681.273.1397.623-.0698.064.128-.099 1.4144.146 1.3271.046.2329.25.2386.163.3492-.052.6054-.355 1.49.448 1.1642.536.5646.081 1.0477.245.8672.285.6112.215.2328.454.2445.786.0058.896-.6985 1.781-.8149.262-.5878.251.0582.395.5937-.075.617.302.8207.396.4714.955.3667.431.0291.395.8789 1.56.7043.693.5413-.041.3842-.477.844.023.3841.25.4133.082.4831-.256.7509.355.7043.343 1.1699v1.1816l.32.3201.332.7741-.105 1.3388-.238.3317-.041.6752.058.1921.332.2096 2.159 2.6949.21-.1746.588-.099.151.1863-.489.9254.029.2038.449.7683.494 1.1583.338 1.2398.116.9138-.116.6286.093.6752-.041.4366-.582 1.2339.047.6345 1.28 1.6763.769.291-.047.7392-.285.6636-.082.7043.059.2211.366.489.553.4307.157.3027.74.4831.564.2677.693.0175.774.7741.431.0175.751.2444.425.4017.721.1513 1.129-.0873.094-.1979-.286-.4948.361.4133.611 1.1001.251 1.2805.151.3085.32.3434.344.0815.291-.0698-.099-.5413.046-.2329.384.0059.187.1979.075.7392.303.2852.378.163.792-.035.78.227.5.6054-.203.0815.052.1804.373.4598.5.4075.332-.1455.023-.3958-.198-.1805.088-.2328.436.163.955.8556.605.1106.215.2968.402 1.1292.239.0641.192.5354-.355-.0873-.303-.3085-.256-.1222-.308.1281-.466.5762.39 1.0477.762.7974.454.3143.676.2387.838.6519.343.4365-.064.5006.221.8382.315.2677.244.8033.361.6344.361.3434-.082 1.2864.577 2.0604.436 1.0594.402.5762.273.2212.018.6927-.192.291.425-.2154.337-.2794.157-.2619zm19.615 22.2225-.273-.058-.257-.343-.343-1.252.338-.826.425-.704-.006-.6-.088-.1513.262-.5471.658-.5297.291-.5704.053-.3085-.065-.2386-.378-.617-.122-.0699.239-.4423.541-.3551.052 1.4202.146.3202.302.1979.064.2444-1.542 3.6322-.279.914.093.564zm-88.042-60.9934-.064-.3842.169-.6694.361-.5005.529-.4017 1.095-.1338.343-.1863 1.217.1979.034.3842-.273.128-.413.0873-.274-.2211-.582.2328.093.2037-.39.6461-.704.2677-.914.1688zm76.325 47.0826-.343-.3201-.245-.5413-.424-.3842-.245-.5471-.058-.4773.279-.064.885.5588.122.2037.408.7799.075.5355-.168.2038zm-31.198-35.6627-.437-.1688-.122-.6053-.279-.3783-.291-.1397-.157-.2911.262-.064.896.4191.524.7567-.186.3609zm44.97 63.1945-.111-.245.035-.605.245-1.386.244-.058.437.076-.419 1.385-.134.798zm.116-2.608-.419-1.176v-.954l.541-.297.14.105-.326 1.234zm-71.034-110.75405-.396-.32014-.029-.40162.378-.25028.262-.05239.309.46565-.041.23864-.303.07567zm.611-3.224607-.437-.186258-.133-.209541.244-.3725176.349-.0640264.21.0989499.145.2561061zm-18.021 44.498357-.18-.3783.646-.6054.326.2328.105.4831-.745-.0174z" stroke="#fff" stroke-width=".5"/><path d="m214.896 241.263-.524.262-.116-.262-.815-.128-.547-.413-.536-.117-1.379-.069-.134-.093-.093-.251-.181-.052-.762.233-.454-.152-.67-1.053.373-.262.698.105.344.186.477.099.012-.571-.449-.372-.244.442-1.682-.215-.14-.099-.692-1.414-.833-1.328-.134-.133-.396.017-.325-.524-.233-.495-.437-1.612-.273-.297-.321-.093-.395-2.549.046-.483.117-.152.168.303 1.112.85.274 1.269.524-1.467-.332-.233-.262.023-1.123-1.234-.123-.349.012-.512-.093-.384-.402-.821-.821-.774-.634-1.123-1.7-4.174.059-.297-.175-.884-.192-.361-.116-.838.512-.466.011-.966.385-.256 1.414.168.826.612 1.002-.163.384.326 1.286.419 2.107 1.251 2.026.955 1.338.122.594-.181.547.309-.029-.291.495-.524.448-.157.332.105.14.553.331.168.53-.011-.186-.268-.443-.099-.128-.122-.029-.402.285-.262.967-.436.82.273 1.322-.267.384.343.454-.274.634-1.1.14-.087.402-.099.151.221.658.297.221-.012.401-.232.204-.344.111-.506.128-.14.268.012.413.192.896.663.332.437.349.786-.401 1.432.046.43.262.344.023.634-.273 1.001.041.716.215.623-.314 1.7.209 1.862.384.623.035.966-.332.472-.227-.192-.029-.204.169-.215.076-.559-.448-1.205-.274-.448-.733 1.455-.478 3.452-.285.291-.093.488.07.885-.454.472-.256.861.087.14.274-.018-.117-.25.186-.14.402.245.163.32.035.599-.239.158-.099.75.338.763-.058.489-.157.012-.449-.396-.454.198-.238.355-.582-.722-.414-.844-.081-.413.349-.623.204-.058.151.139.029.21-.099.204.39.419.542-.041.198-.169-.466-.815-1.478-.902-.216.035-.349.262.122.588.198.431-.169.337-.623.204-.145-.361.122-.076-.093-.873-.57-.366.198.5-.14.897-.367.448-.169.628.128.606-.093.564-.215.14-.221-.029-.507-.326-.459-.541-.088-.548-.134-.052-.134.215-.005.582.797.728-.256.64-.332.518-.314.914-.093.629zm7.66-28.311-.571-.314-.163-.617.035-.175-.721-1.356-.903-.803.769-1.013.541-.233 1.251 1.67.233.169.483.128.053.239.297 1.624-.024.221-.174.163-.798.146zm-26.583-1.135-.221-.163-.082-.425.117-.087v-.571l-.361-.471.017-.448.111-1.322.495-.366.076-.216-.065-.471.268-.076.565.344.262.378.087 1.333.151.855-.058.449-.192.43zm27.91 3.027-.018-.402-.11-.163-1.467.186-.565-.244.012-.32.419-.344.431-.023.442.134.885-.448.861 1.024-.011.087-.437.169zm-6.548 25.511-.402-.186-.402.087-.331-.692 1.117-1.38.408 1.065-.28 1.013zm73.153 108.886-.28-.029-.005-.897.36-1.618.123-.291.314-.186-.093 1.088-.361 1.211zm-72.781-111.057-.436-.914.407-.71.25.384.227 1.054-.017.099zm4.127-4.389.029-1.14.367-.28.326.029.285.559-.029.087-.442.006zm-19.749-17.077-.111-.082-.029-.401.378-.448.571.651z" stroke="#fff" stroke-width=".5"/></g></g></svg>