<svg width="218" height="239" viewBox="0 0 218 239" fill="none" xmlns="http://www.w3.org/2000/svg">
<g clip-path="url(#clip0_8_549)">
<path d="M67.4 205.72H68.4V196.72H67.4V193.44H76.58C78.2467 193.44 79.5467 193.78 80.48 194.46C81.4133 195.14 81.88 196.113 81.88 197.38C81.88 198.167 81.6933 198.833 81.32 199.38C80.9467 199.913 80.5067 200.32 80 200.6C79.5067 200.867 79.0267 201.047 78.56 201.14V201.34C79.5067 201.433 80.36 201.733 81.12 202.24C81.88 202.747 82.26 203.653 82.26 204.96C82.26 206.36 81.7333 207.387 80.68 208.04C79.6267 208.68 78.26 209 76.58 209H67.4V205.72ZM75.08 200C75.4667 200 75.7533 199.9 75.94 199.7C76.14 199.487 76.24 199.16 76.24 198.72V198C76.24 197.56 76.14 197.24 75.94 197.04C75.7533 196.827 75.4667 196.72 75.08 196.72H74V200H75.08ZM75.22 205.72C75.6067 205.72 75.8933 205.62 76.08 205.42C76.28 205.207 76.38 204.88 76.38 204.44V203.56C76.38 203.12 76.28 202.8 76.08 202.6C75.8933 202.387 75.6067 202.28 75.22 202.28H74V205.72H75.22ZM82.9078 209V205.72H83.9078V196.72H82.9078V193.44H96.4078V199.48H91.9278V196.72H89.5078V199.88H91.2678V202.16H89.5078V205.72H91.9278V202.56H96.4078V209H82.9078ZM97.1656 209V205.72H98.1656V196.72H97.1656V193.44H105.606V196.72H103.766V205.72H105.566V203.88H109.546V209H97.1656ZM125.312 204H124.312V208C123.725 208.333 122.865 208.633 121.732 208.9C120.612 209.153 119.399 209.28 118.092 209.28C115.599 209.28 113.645 208.627 112.232 207.32C110.819 206 110.112 203.967 110.112 201.22C110.112 198.407 110.812 196.36 112.212 195.08C113.625 193.8 115.639 193.16 118.252 193.16C119.519 193.16 120.705 193.293 121.812 193.56C122.919 193.827 123.752 194.127 124.312 194.46V199.24H119.312V198.3C119.312 197.74 119.192 197.34 118.952 197.1C118.725 196.847 118.359 196.72 117.852 196.72C117.345 196.72 116.972 196.847 116.732 197.1C116.505 197.34 116.392 197.74 116.392 198.3V204.14C116.392 204.7 116.505 205.107 116.732 205.36C116.972 205.6 117.345 205.72 117.852 205.72C118.359 205.72 118.725 205.6 118.952 205.36C119.192 205.107 119.312 204.7 119.312 204.14V204H118.232V201.02H125.312V204ZM125.877 209V205.72H126.877V196.72H125.877V193.44H133.477V196.72H132.477V205.72H133.477V209H125.877ZM141.755 209.28C139.662 209.28 138.042 208.82 136.895 207.9C135.762 206.98 135.195 205.487 135.195 203.42V196.72H134.195V193.44H141.595V196.72H140.795V204.44C140.795 204.88 140.888 205.207 141.075 205.42C141.275 205.62 141.568 205.72 141.955 205.72C142.342 205.72 142.628 205.62 142.815 205.42C143.015 205.207 143.115 204.88 143.115 204.44V196.72H142.315V193.44H149.175V196.72H148.175V203.42C148.175 205.487 147.622 206.98 146.515 207.9C145.408 208.82 143.822 209.28 141.755 209.28ZM171.96 196.72H170.96V205.72H171.96V209H164.4V205.72H165.36V198.72L161.96 209H159L155.5 198.82V205.72H156.46V209H149.9V205.72H150.9V196.72H149.9V193.44H159.06L161.14 199.68L163.14 193.44H171.96V196.72Z" fill="#E55933"/>
<path d="M135.791 4.44342L134.921 4.85817L134.961 6.39249L133.679 5.83271L133.888 4.86687L134.431 5.44405L134.909 4.73926L134.451 4.43181L135.791 4.44342ZM126.385 0L129.596 1.73444L129.851 3.76762L128.644 4.85237L129.056 7.05378L129.976 6.98127L129.343 7.49464L125.895 6.14015L125.805 7.66576L131.058 8.15303L132.264 7.41343L134.074 9.55102L138.784 4.95679L138.97 2.84239L140.211 1.28778L141.154 2.51755L143.016 2.63356L144.495 6.17205L142.656 9.64674L146.053 13.7566L146.206 16.7121L147.793 17.1907L149.899 16.2103L152.172 17.7128L151.343 21.0337L151.993 21.6196L150.809 22.9422L150.69 25.2886L153.309 28.5748L153.388 31.5361L151.819 33.1052L150.223 32.5048L149.53 34.0478L148.031 34.2363L147.572 34.3176L145.971 34.4162L144.002 37.2644L139.309 38.2505L139.173 39.8254L137.543 41.8673L136.667 40.8928L134.912 41.6701H134.648L132.815 43.0217L128.285 43.9701L126.817 41.4844L125.08 42.7635L123.516 42.6214L121.486 45.0635L122.046 43.651L120.744 42.7287L116.309 44.0078L115.97 45.574L115.056 45.7625L113.211 44.556L112.072 45.6117L109.821 44.1992L109.229 45.7277L107.718 44.4661L104.464 45.3681L104.142 44.0165L103.217 43.712L103.628 42.2444L101.563 43.506L101.749 42.5663L98.0133 41.1161L95.7045 41.6266L95.2811 41.0639L94.1528 41.9949L92.9114 41.3336L93.3465 39.7587L92.6852 39.4629L92.0239 35.8896L94.0948 34.0333L96.1541 34.6801L99.8666 33.6592L100.838 31.0314L100.798 28.4906L100.087 28.1397L100.499 26.8287L99.2691 26.4517L98.4628 22.1736L100.273 19.4849L97.9204 17.8665L97.3404 14.3193L95.5189 13.2751L94.3355 11.3725L101.033 11.0853L101.468 12.7792L103.765 13.075L106.485 12.2716L103.811 7.193L104.522 5.35124L103.478 4.84657L108.826 2.01868L112.498 1.64743L113.023 2.46824L112.051 4.59134L112.356 6.93776L114.606 6.09954L118.229 6.97547L119.871 6.64192L119.769 5.00899L121.231 4.3419L124.587 0.0493069L126.385 0Z" fill="#171619" stroke="white" stroke-width="0.5"/>
<path d="M87.7835 71.1382L90.8811 69.0209L92.2617 71.1295L93.8598 70.9496L96.099 72.6928L96.9401 71.7589H99.4402L99.8898 69.9287L101.07 70.239L100.479 69.2007L101.064 68.6496L102.007 70.1955L103.219 70.2216V69.1108L110.024 66.7383L109.974 67.9013L111.819 69.2094L111.857 68.203L114.621 67.4924L115.796 65.99L116.28 68.0173L117.991 67.8839L119.186 66.7267L118.171 65.2417L118.464 62.8575L121.298 63.7305L122.35 63.1592L122.577 63.7654L123.113 62.5994L125.106 62.1904L126.878 62.9271L128.085 64.8501L129.364 64.9313L129.375 66.0683L132.937 65.5636H133.366L133.36 67.2516L134.413 67.8404L137.618 65.4476L139.736 67.2081L139.538 68.7656L138.213 69.5197L139.559 71.3934L138.674 72.133L138.732 74.8043L137.67 76.8375L135.852 76.4111L134.506 78.1861L132.885 78.044L132.969 78.656L126.573 80.5094L126.791 81.5013L125.59 80.5007L124.091 81.626L123.548 79.7031L122.385 79.9148L121.895 81.1562L119.627 80.0656L119.131 81.2983L119.908 83.6273L118.528 84.1784L116.062 83.3721L114.612 84.0537L114.775 85.8171L111.074 87.189L110.453 85.9302L109.009 86.171L108.501 86.9831L108.675 84.2828L107.558 84.6482L105.415 83.7085L102.367 83.9463L100.908 85.5851L101.082 83.4504L99.2604 83.4678L97.5956 81.0952L96.1164 81.0749L96.4615 79.1694L93.4712 78.4878L93.7177 76.4633L92.3922 75.1059L90.214 77.7511L88.1345 77.7163L87.2817 75.8977L87.4384 71.5181L88.5057 71.2339L87.7835 71.1382Z" fill="#171619" stroke="white" stroke-width="0.5"/>
<path d="M106.216 54.0344L106.442 54.2026L106.842 55.7108L106.013 56.7086L108.118 58.1095L108.968 60.7198L107.593 61.6016L107.814 62.2338L108.71 62.3325L109.78 63.4897L108.98 63.5593L108.246 63.8726L103.834 65.9261L100.969 64.966L99.3939 61.6741L98.08 62.0656L96.1686 61.1027L96.0265 61.2448L95.9917 61.1375L96.5631 60.3979L96.7255 59.5974L98.1757 59.5249L98.0307 56.7898L98.9762 55.3889L99.9479 54.4898L100.258 54.3099L101.065 53.7386L101.427 53.6603L103.524 54.0431L104.728 52.7031L105.459 53.2397L106.036 53.6313L106.216 54.0344Z" fill="#171619" stroke="white" stroke-width="0.5"/>
<path d="M51.6474 65.7057L53.5761 66.6048L56.0879 66.0073L56.2735 68.754L60.1339 68.8874L60.9635 69.7662L61.2738 69.8648L63.948 65.2938L65.8042 64.4295L66.0363 65.7202L68.548 64.5107L68.2725 65.4011L69.479 67.4923L71.4977 67.2864L73.09 68.0521L75.3988 67.1994L76.3124 68.8613L75.9788 70.8713L77.2144 72.5593L79.613 72.7449H79.9901L85.0281 71.6254L85.5241 72.2664L86.9859 70.4362V70.6421L87.7864 71.141L88.5086 71.2396L87.4412 71.5239L87.2846 75.9006L88.1373 77.7191L90.2198 77.7539L92.398 75.1088L93.7235 76.4661L93.4741 78.4877L96.4644 79.1693L96.1192 81.0749L97.5984 81.0923L99.2633 83.4677L101.085 83.4503L100.911 85.585L102.372 83.9463L105.418 83.7085L107.561 84.6482L108.678 84.2856L108.504 86.9859L109.012 86.1709L110.456 85.9331L111.077 87.1889L114.778 85.817L113.684 89.2163V89.5093L113.904 90.4374L115.653 89.5354L115.201 90.0748L115.964 91.8441L114.383 94.6894L116.967 96.1744L116.193 98.0915L115.137 98.4454L116.289 99.5939L115.369 100.026L114.873 102.01L115.648 104.725L111.422 105.667L110.581 104.539L109.391 104.557L108.066 106.61L104.913 106.082L104.638 107.413L103.051 107.811L102.436 109.255L100.742 109.096L98.4018 110.995L101.647 113.522L102.871 112.141L103.42 112.457H103.974L104.774 113.037L104.728 113.336L104.615 114.778H104.417L104.548 117.275L102.636 118.647L104.809 122.641L103.974 123.914L104.243 128.981L105.305 129.349L105.575 133.526L107.271 137.07L106.601 138.477L101.981 137.479L99.6229 136.072L93.184 137.218L93.0216 135.985L90.2169 135.234L91.351 133.343L89.8834 131.725L91.2379 129.21L93.1057 129.106L95.194 127.362L93.3319 124.195L93.4886 121.773L90.855 121.73L90.9217 122.345L89.4367 121.712L90.9362 119.114L90.6926 114.737L91.9397 114.447L94.6661 111.227L93.9497 109.528L92.224 109.238L91.3452 108.023L90.6404 109.273L91.6207 110.743L89.9501 110.769L88.7812 106.764L87.6065 105.847L86.4899 106.111L83.5663 101.871L81.4461 103.309L80.6891 102.834L80.3961 103.434L80.3497 102.799L76.6488 104.693L73.7194 102.48L72.3649 102.436L71.6978 103.222L71.3208 102.288L67.9244 102.561L67.1471 103.257L66.9093 105.902L65.7404 105.258L66.2364 106.482L65.6882 106.625L63.742 104.017L62.8777 100.94L63.8146 98.0016L62.9676 93.2856L60.0295 89.8022L58.6025 90.2895L57.7788 89.4135L53.9358 90.5824L53.6777 89.5731L54.9654 87.3688L52.4769 86.5189L50.931 88.8828L50.3509 88.5376L46.9081 90.2372L46.0844 89.1061L42.1398 87.302L41.4293 86.0375L41.4351 81.0314L39.1959 75.4713L40.6635 73.8384L39.9645 72.7014L40.4054 71.5993L36.5856 69.6183L36.9365 68.6583L35.7184 66.7469L38.1112 65.8391L40.504 67.1123L42.9694 66.802L44.0251 69.8068L46.0177 70.8742L48.6368 67.6025L50.2059 67.3705V67.0224L51.6474 65.7057ZM17.9592 71.083L18.3537 70.5667L16.7236 68.5655L17.3153 68.0753L16.7787 67.2139L18.284 66.3408L18.78 66.831L18.7974 66.19L19.7749 66.9644L21.2686 66.599L21.2338 65.9232L23.4961 65.114L22.159 63.3505L25.7526 61.8452L26.5647 62.521L26.2137 64.3106L27.3942 64.56L26.8025 65.1836L24.4213 67.1588L22.3156 67.7533L22.6724 68.928L20.6305 72.3215L17.9592 71.083Z" fill="#171619" stroke="white" stroke-width="0.5"/>
<path d="M177.687 61.7353L178.14 64.3514L177.101 66.5064L178.891 67.4578L179.166 67.4926L179.941 66.7733L180.657 67.3069L180.736 67.5564H182.896L184.932 70.48L187.172 70.2044L188.396 70.8454L189.976 68.586L188.944 66.7269L190.345 67.1271L192.853 66.0801L193.944 66.9067L196.183 66.7559L197.401 67.7333L197.288 70.0101L197.633 69.1632L201.645 69.6969L205.392 76.011L204.594 76.7477L205.435 77.6991L205.053 78.2211L206.216 77.6353L210.221 78.2124L208.788 81.5276L207.761 81.4319L204.986 84.3207L205.113 85.6752L206.111 86.1334L205.685 87.0471L206.778 87.5517L207.799 89.817L210.288 88.941L214.818 90.3999L214.244 92.7435L216.013 93.4396L216.263 95.0667L214.276 100.038L218 103.988L217.832 105.117L215.462 105.83L215.392 106.738L213.762 105.09L212.347 105.424L210.813 109.969L207.161 110.839L206.134 112.556L204.974 112.759L204.438 114.024L205.792 117.374L203.269 118.015L202.535 119.92L203.715 120.947L202.903 122.029L201.389 121.501L202.1 120.361L201.436 118.833L199.623 118.4L199.539 119.72L198.474 119.981L196.792 119.041L196.421 117.33L196.955 115.343L195.771 115.369L195.603 105.804L194.089 105.238L193.863 104.403L187.279 102.895L186.638 104.667L187.653 105.821L186.299 108.745H186.597L188.323 108.878L186.107 110.523L184.384 110.215L184.175 111.086L183.708 110.172L181.887 109.899L179.454 110.462L180.86 106.984L179.543 106.958L178.32 104.499L179.335 102.013L176.527 102.118L176.779 101.059L174.32 100.821L172.069 98.3876L168.887 98.9677L167.498 96.0992L165.021 97.6538L162.341 95.6932L161.546 97.1956H162.437L162.872 98.202L160.824 100.168L158.466 99.3738L155.409 101.421L154.496 100.285L154.82 98.8894L151.882 98.0251L151.125 96.8678L151.911 94.9507L149.777 91.3194L147.801 92.2388L147.091 90.9742L147.668 90.513L146.128 90.2491L145.855 89.1615L146.566 88.3464L145.162 89.089L143.927 88.1695L143.808 86.7628L140.591 86.5337L141.574 85.8434L141.258 84.08L140.101 81.6175L137.377 78.9753L137.67 76.8377L138.732 74.8045L138.674 72.1332L139.559 71.3936L138.213 69.5199L139.538 68.7658L139.735 67.2083L141.229 68.1248L141.09 69.5286L142.529 71.0485L144.283 70.8715L147.944 72.052L148.808 71.2718L148.086 70.3553L148.463 69.5199L151.601 70.0971L152.074 69.2618L153.202 70.2943L154.206 69.1284L155.792 70.2044L158.304 67.5825L160.447 67.4143L162.185 69.9898L163.838 69.9028L164.627 68.2583L165.503 69.5634L168.154 67.9479L168.296 66.4513L168.615 66.6137L172.977 64.9837L175.431 62.2776L177.243 62.4024L177.371 61.7266L177.687 61.7353Z" fill="#171619" stroke="white" stroke-width="0.5"/>
<path d="M182.812 65.5722L184.222 66.6657L186.275 65.9087L186.557 66.8078L188.555 65.491L188.944 66.7266L189.976 68.5857L188.396 70.8423L187.172 70.2013L184.933 70.4768L182.896 67.5532H180.736L180.657 67.3038L179.941 66.7701L179.167 67.4894L178.891 67.4546L177.101 66.5033L180.312 66.2886L181.931 64.3309L182.812 65.5722ZM168.774 20.0533L170.027 21.2309L170.254 25.0449L175.358 27.2086L175.724 28.3485L181.751 28.4732L182.412 31.3446L185.051 29.9002L186.76 32.0349L184.205 34.4103L185.463 36.2028L183.427 36.7857L183.671 39.4802L182.197 39.3729L181.313 41.9253L182.334 42.8824L181.774 45.1534L179.219 48.3264L179.654 48.9877L180.93 48.5585L181.287 49.4257L179.341 53.0686L178.032 52.97L176.838 55.5832L174.941 56.4302L175.19 60.3602L177.38 61.7234L177.249 62.3992L175.44 62.2745L172.986 64.9805L168.624 66.6077L168.302 66.4482L168.16 67.9419L165.509 69.5603L164.633 68.2522L163.844 69.8967L162.19 69.9866L160.453 67.4082L158.31 67.5764L155.798 70.1984L154.211 69.1223L153.208 70.2854L152.08 69.2557L151.607 70.0911L148.463 69.5197L148.086 70.355L148.808 71.2715L147.944 72.0546L144.281 70.8742L145.368 68.519L144.347 67.9941L144.698 66.599L145.168 65.9928L144.791 64.0002L147.195 61.9873L146.795 61.9699L145.931 61.4972L146.276 58.5039L147.309 55.7834L148.562 55.9516L149.086 53.5791L148.019 52.6944L146.247 52.7379L146.073 51.9983L144.922 52.4363L143.753 53.0976L142.984 51.9896L142.256 52.4102L141.015 50.1073L142.923 48.5527L143.109 46.2555L145.681 45.2375L145.174 43.1347L145.795 42.8215L145.913 43.5901L147.509 42.8128L145.235 40.5215L143.091 40.7912L143.277 42.8592L141.856 43.6655L141.061 42.7809L139.904 43.1927L139.153 41.4583L137.534 41.8701L139.164 39.8283L139.301 38.2533L143.993 37.2672L145.963 34.419L147.564 34.3204L148.022 34.2392L149.522 34.0507L150.215 32.5076L151.81 33.108L153.379 31.5389L153.301 28.5776L150.682 25.2914L150.801 22.945L151.984 21.6224L157.524 21.4774L158.084 20.3811L162.118 21.46L165.987 18.0317L167.707 18.4813L168.774 20.0533Z" fill="#171619" stroke="white" stroke-width="0.5"/>
<path d="M160.824 100.168L162.872 98.2017L162.437 97.1953H161.547L162.341 95.6929L165.021 97.6535L167.498 96.0989L168.887 98.9674L172.069 98.3873L174.32 100.821L176.779 101.059L176.527 102.117L179.335 102.013L178.32 104.498L179.544 106.958L180.86 106.984L179.454 110.462L181.887 109.899L183.709 110.172L184.175 111.085L184.384 110.215L186.107 110.523L188.323 108.878L186.597 108.745H186.299L187.653 105.821L186.638 104.667L187.279 102.895L193.863 104.403L194.089 105.238L195.603 105.804L195.771 115.369L196.955 115.343L196.421 117.33L193.146 118.235L192.827 121.86L189.231 123.58L188.691 126.571L186.824 128.218L187.679 129.297L187.128 130.866L184.831 132.293L185.814 135.075L184.109 136.615L182.366 136.835L181.632 140.725L180.086 142.227L182.835 144.008L182.299 145.02L181.203 144.576L181.501 145.928L180.736 146.235L181.374 146.775L180.373 147.743L181.153 151.685L183.065 151.311L185.417 155.499L185.194 157.651L187.354 157.373L188.514 158.826L187.354 161.651L189.915 162.756L189.66 165.068L188.584 165.25L187.888 167.585L186.412 168.67L186.632 169.427L187.653 169.375L187.659 170.561L186 172.365L184.616 173.035L181.4 171.593L180.646 173.572L175.216 172.487L173.293 174.465L173.05 176.31L171.956 174.975L169.958 174.343L169.108 175.486L165.941 176.17L165.224 177.125L163.963 175.341L164.92 174.552L164.847 173.502L163.516 172.382L164.25 171.074L163.295 170.839L162.788 168.618L158.246 165.587L157.672 166.796L156.271 167.298L155.836 165.709L157.26 163.58L154.127 160.233L153.602 159.867L152.259 160.859L150.145 159.954L147.932 160.163L147.7 158.217L145.734 158.417L143.86 154.116L142.166 154.22L139.002 152.416L138.285 150.864L136.777 150.734L137.862 148.791L137.946 146.244L141.795 143.616L140.997 142.778L142.642 141.107L145.33 140.182L144.101 138.958L144.321 136.913L141.969 134.813L139.086 135.164L139.187 133.711L137.056 130.927L137.923 131.057L138.404 129.561L139.211 130.129L140.948 128.781L141.2 126.8L141.963 126.756L141.522 125.782L142.297 122.704L142.877 125.318L149.913 125.01L153.788 123.537V123.186L152.277 121.756L154.646 120.457L154.455 119.499L152.39 117.031L152.767 116.529L151.787 116.292L152.486 115.465L150.302 114.516L153.124 113.568L152.761 112.591L154.365 111.79L155.218 112.396L156.239 111.877L160.842 108.182L160.531 105.74L159.189 105.575L158.269 106.656L157.936 105.856L160.853 103.979L160.102 102.631L161.219 101.209L160.824 100.168Z" fill="#171619" stroke="white" stroke-width="0.5"/>
<path d="M114.775 85.8171L114.612 84.0537L116.063 83.3721L118.528 84.1784L119.909 83.6273L119.131 81.2983L119.627 80.0656L121.895 81.1562L122.385 79.9148L123.549 79.7031L124.091 81.626L125.59 80.5007L126.791 81.5013L126.574 80.5094L132.969 78.656L132.885 78.0441L134.506 78.1862L135.852 76.4111L137.671 76.8375L137.378 78.9751L140.101 81.6173L141.258 84.0798L141.575 85.8432L140.591 86.5335L143.808 86.7627L143.927 88.1694L145.162 89.0888L146.566 88.3463L145.856 89.1613L146.128 90.2489L147.668 90.5129L147.091 90.974L147.802 92.2386L149.777 91.3192L151.912 94.9505L151.126 96.8677L151.883 98.0249L154.821 98.8892L154.496 100.284L155.409 101.421L158.466 99.3736L160.824 100.168L161.219 101.21L160.102 102.631L160.854 103.979L157.936 105.856L158.269 106.657L159.189 105.575L160.532 105.74L160.842 108.182L156.239 111.877L155.218 112.396L154.365 111.79L152.761 112.591L153.124 113.568L150.302 114.517L152.486 115.465L151.787 116.292L152.767 116.529L152.39 117.031L154.455 119.499L154.647 120.457L152.277 121.756L153.788 123.186V123.537L149.913 125.01L142.877 125.318L142.297 122.704L141.522 125.782L141.963 126.756L141.2 126.8L140.948 128.781L139.211 130.129L138.404 129.561L137.923 131.058L137.056 130.927L139.187 133.711L139.086 135.165L141.969 134.814L144.321 136.914L144.101 138.958L145.331 140.182L142.642 141.107L140.997 142.778L141.795 143.616L137.946 146.244L137.862 148.791L136.777 150.734L134.532 151.99L130.156 151.468L131.47 149.156L129.906 145.046L130.675 145.02L132.227 141.311L129.918 137.929L126.736 137.061L126.658 136.133L126.843 134.935L128.27 133.903L128.354 131.153L129.567 130.069L128.378 127.711L129.393 127.519L130.127 124.503L131.307 125.695L131.063 122.913L132.676 121.422L131.577 119.998L129.251 119.885L128.755 118.638L125.155 121.431L124.445 123.615L121.246 125.95L120.48 127.571L121.579 128.92L120.706 131.136L121.196 133.764L115.86 134.532L112.66 136.064L111.724 137.691L106.593 138.468L107.266 137.061L105.566 133.517L105.296 129.341L104.235 128.972L103.965 123.905L104.8 122.635L102.628 118.638L104.539 117.269L104.412 114.772H104.609L104.722 113.33L104.766 113.032L103.965 112.449H103.411L102.866 112.132L101.642 113.513L98.3962 110.99L100.737 109.087L102.431 109.247L103.046 107.802L104.629 107.408L104.908 106.076L108.06 106.604L109.386 104.551L110.578 104.533L111.419 105.662L115.645 104.719L114.871 102.004L115.366 100.02L116.286 99.5853L115.137 98.4397L116.19 98.0858L116.965 96.1687L114.38 94.6866L115.961 91.8413L115.198 90.072L115.651 89.5325L113.902 90.4346L113.681 89.5064V89.2135L114.775 85.8171Z" fill="#171619" stroke="white" stroke-width="0.5"/>
<path d="M95.5073 13.2666L97.3287 14.3107L97.9117 17.8579L100.264 19.4793L98.4512 22.1679L99.2604 26.446L100.49 26.8231L100.078 28.1341L100.789 28.485L100.827 31.0229L99.8579 33.6506L96.1454 34.6745L94.0861 34.0277L92.0152 35.8839L92.6765 39.4572L93.3349 39.7531L92.8998 41.328L94.1412 41.9893L95.2694 41.0612L95.6929 41.6238L95.4841 43.2887L94.6662 43.6367L95.2811 44.8085L93.3291 46.4356L92.72 46.453L91.2031 45.899L90.3156 47.7843L91.0668 50.3395L91.3539 51.0008L90.011 52.277L87.5254 50.9631L87.8009 53.063L86.458 53.8925L87.2469 54.8207L86.925 55.9953L84.5003 59.3656L86.0636 59.7049L85.6836 63.722L83.0559 65.4999L82.0958 64.7719L81.391 65.8741L79.3085 64.9576L78.3398 66.5064L79.4681 68.8615L77.8322 69.137L77.3334 69.1109L76.3066 68.8615L75.393 67.1996L73.0872 68.0523L71.4949 67.2895L69.4762 67.4925L68.2667 65.4013L68.5451 64.5138L66.0334 65.7233L65.8014 64.4326L63.9451 65.2969L61.2709 69.8679L60.9606 69.7693L60.1311 68.8876L56.2736 68.7542L56.0879 66.0075L53.5762 66.605L51.6474 65.7059L55.1453 62.295L53.9039 60.6476L54.6087 59.6498L51.2588 56.7639L52.7235 54.0956L51.659 53.1877L50.1334 54.0782L49.2024 53.4546L50.203 52.2683L49.7679 51.1865L51.2239 51.1778L50.5134 50.2148L51.7199 50.0176L49.0922 48.7762L50.7889 47.9728L49.8086 46.6125L51.253 44.3879L49.7796 41.4353H50.1189L50.9194 40.6928L50.3103 40.1011L44.437 36.0725L46.8559 34.4598L48.9094 30.5559L47.4882 28.2414L46.0496 27.7483L47.4099 26.7506L46.418 24.5405L48.164 23.6877L47.2504 20.3146L49.9043 23.0033L55.473 22.8959L54.8175 19.1921L56.0705 19.4706L57.4627 18.4989L58.5794 19.2095L59.0898 17.4896L64.9777 20.1986L69.6096 21.3326L70.6305 22.0345L70.3782 25.6919L74.169 25.9878L75.8048 24.9175L75.7787 26.9565L78.0788 25.1873L78.5196 25.8892L79.7987 25.5208L82.9949 22.922L85.5995 23.0323L91.6149 18.5163L95.5073 13.2666Z" fill="#171619" stroke="white" stroke-width="0.5"/>
<path d="M137.534 41.8643L139.153 41.4525L139.904 43.1869L141.061 42.775L141.856 43.6597L143.277 42.8533L143.091 40.7854L145.235 40.5156L147.509 42.8069L145.913 43.5843L145.794 42.8156L145.174 43.1289L145.681 45.2317L143.109 46.2497L142.923 48.5468L141.015 50.1015L142.256 52.4044L142.984 51.9838L143.753 53.0918L144.921 52.4305L146.073 51.9925L146.247 52.7321L148.019 52.6886L149.086 53.5732L148.561 55.9458L147.309 55.7775L146.276 58.4981L145.931 61.4913L146.795 61.9641L147.195 61.9815L144.791 63.9944L145.168 65.987L144.698 66.5931L144.347 67.9882L145.368 68.5132L144.28 70.8683L142.526 71.0453L141.087 69.5254L141.229 68.1216L139.733 67.2051L137.618 65.4446L134.413 67.8374L133.358 67.2515L133.363 65.5606H132.934L129.375 66.0682L129.364 64.9283L128.082 64.8471L126.875 62.9241L125.103 62.1845L123.11 62.5935L122.574 63.7594L122.348 63.1533L121.292 63.7217L118.461 62.8487L118.168 65.2328L119.183 66.7179L117.988 67.8751L116.28 68.0085L115.796 65.9812L114.621 67.4836L111.857 68.1942L111.816 69.1977L109.972 67.8896L110.024 66.7237L103.219 69.0991V70.2099L102.007 70.1838L101.064 68.6379L100.479 69.189L101.07 70.2302L99.8898 69.9199L99.4374 71.7501H96.9372L96.0961 72.684L93.857 70.9437L92.2589 71.1207L90.8754 69.015L87.7778 71.1294L86.9772 70.6305V70.4246L85.5154 72.2547L85.0195 71.6137L79.9815 72.7333H79.6044L77.2058 72.5477L75.9702 70.8596L76.3038 68.8496L77.3305 69.0991L77.8265 69.1252L79.4623 68.8496L78.334 66.4945L79.3057 64.9457L81.3882 65.8622L82.093 64.7601L83.053 65.491L85.6808 63.7101L86.0578 59.6931L84.4945 59.3537L86.9192 55.9835L87.2412 54.8059L86.4523 53.8778L87.7952 53.0483L87.5196 50.9513L90.0082 52.2623L91.351 50.9861L91.0639 50.3248L90.3127 47.7695L91.1973 45.8843L92.7142 46.4382L93.3233 46.4208L95.2753 44.7937L94.6604 43.622L95.4783 43.2739L95.6871 41.6091L97.9959 41.0986L101.732 42.5488L101.546 43.4885L103.611 42.2269L103.199 43.6945L104.124 43.999L104.446 45.3506L107.701 44.4486L109.212 45.7102L109.803 44.1817L112.054 45.5942L113.194 44.5385L115.039 45.745L115.952 45.5565L116.292 43.9903L120.726 42.7112L122.029 43.6336L121.469 45.0461L123.499 42.6039L125.062 42.746L126.8 41.467L128.267 43.9526L132.798 43.0042L134.631 41.6526H134.895L136.65 40.8753L137.534 41.8643ZM101.427 53.6602L101.064 53.7415L100.258 54.3128L99.9478 54.4927L98.9762 55.3947L98.0278 56.7956L98.1757 59.5307L96.7255 59.6032L96.5631 60.4037L95.9946 61.1433L96.0294 61.2506L96.1715 61.1085L98.0829 62.0714L99.3968 61.6799L100.972 64.9747L103.837 65.9347L108.249 63.8784L108.983 63.568L109.783 63.4955L108.71 62.3382L107.814 62.2396L107.593 61.6073L108.971 60.7256L108.118 58.1153L106.013 56.7144L106.842 55.7166L106.442 54.2084L106.036 53.637L105.461 53.2455L104.728 52.7089L103.527 54.046L101.427 53.6602Z" fill="#171619" stroke="white" stroke-width="0.5"/>
<path d="M46.5224 11.915L47.4216 14.9866L46.0004 16.7065L46.9633 17.8783L46.4615 18.2292L47.2504 20.3146L48.1641 23.6878L46.418 24.5405L47.41 26.7506L46.0497 27.7483L47.4883 28.2414L48.9095 30.5559L46.856 34.4599L44.4371 36.0725L50.3104 40.1011L50.9195 40.6928L50.1189 41.4353H49.7796L51.253 44.3879L49.8086 46.6125L50.7889 47.9728L49.0922 48.7762L51.72 50.0176L50.5134 50.2148L51.224 51.1778L49.768 51.1865L50.2031 52.2683L49.2024 53.4546L50.1334 54.0782L51.6591 53.1878L52.7235 54.0956L51.2588 56.764L54.6088 59.6499L53.904 60.6476L55.1453 62.295L51.6475 65.7059L50.1973 67.0053V67.3504L48.6281 67.5825L46.0091 70.8541L44.0194 69.7868L42.9637 66.7819L40.4983 67.0923L38.1055 65.8219L35.7126 66.7268L34.1783 63.7133L32.7919 64.0324L32.0059 63.3653L30.4049 65.2969L29.0852 64.5921L27.6118 65.5725L26.8055 65.1896L27.3972 64.566L26.2196 64.3166L26.5677 62.5271L25.7556 61.8513L22.162 63.3566L23.4991 65.1171L21.2367 65.9263L21.2715 66.605L19.7749 66.9676L18.8004 66.1932L18.783 66.8342L18.287 66.3469L16.7788 67.217L17.3154 68.0813L16.7237 68.5686L18.3537 70.5699L17.9593 71.0832L17.0718 69.7055L15.4359 70.3291L13.8465 69.3604L13.3273 67.1822L10.1717 63.4726L10.105 61.9035L7.56135 61.6105L7.04218 60.8622L5.16271 61.7178L4.06926 58.5361L3.14694 58.4027L3.86043 57.0221L3.67191 54.0782L3.54429 52.715L2.62486 52.1523L4.97129 49.6783L3.5762 45.8439L1.69383 44.7447L0 36.9948L12.434 30.0368L29.9699 17.8493L36.0404 15.2302L35.2457 13.3304L36.1883 12.2834L35.5154 13.023L36.3971 14.1222L37.1977 13.6089L36.2115 14.8531L36.78 14.3833L36.8699 15.3665L37.2586 14.2586L37.8125 14.6269L37.4355 14.0149L38.381 14.2586L37.975 12.8896L37.5428 13.168L38.2186 12.5357L36.8873 12.2109L38.2853 12.556L38.5695 14.3021L46.5224 11.915Z" fill="#171619" stroke="white" stroke-width="0.5"/>
<path d="M64.4 235.72H65.4V226.72H64.4V223.44H73.58C75.2467 223.44 76.5467 223.78 77.48 224.46C78.4133 225.14 78.88 226.113 78.88 227.38C78.88 228.167 78.6933 228.833 78.32 229.38C77.9467 229.913 77.5067 230.32 77 230.6C76.5067 230.867 76.0267 231.047 75.56 231.14V231.34C76.5067 231.433 77.36 231.733 78.12 232.24C78.88 232.747 79.26 233.653 79.26 234.96C79.26 236.36 78.7333 237.387 77.68 238.04C76.6267 238.68 75.26 239 73.58 239H64.4V235.72ZM72.08 230C72.4667 230 72.7533 229.9 72.94 229.7C73.14 229.487 73.24 229.16 73.24 228.72V228C73.24 227.56 73.14 227.24 72.94 227.04C72.7533 226.827 72.4667 226.72 72.08 226.72H71V230H72.08ZM72.22 235.72C72.6067 235.72 72.8933 235.62 73.08 235.42C73.28 235.207 73.38 234.88 73.38 234.44V233.56C73.38 233.12 73.28 232.8 73.08 232.6C72.8933 232.387 72.6067 232.28 72.22 232.28H71V235.72H72.22ZM79.9078 235.72H80.9078V226.72H79.9078V223.44H89.0878C90.8078 223.44 92.1211 223.793 93.0278 224.5C93.9345 225.207 94.3878 226.353 94.3878 227.94C94.3878 228.833 94.2078 229.607 93.8478 230.26C93.4878 230.913 92.9745 231.367 92.3078 231.62L92.3278 231.82C93.6078 232.02 94.2478 232.807 94.2478 234.18V235.72H95.1878V239H88.8478V234.3C88.8478 233.78 88.7678 233.387 88.6078 233.12C88.4611 232.853 88.2211 232.673 87.8878 232.58C87.5678 232.487 87.1078 232.44 86.5078 232.44V235.72H87.8278V239H79.9078V235.72ZM87.5878 230C87.9745 230 88.2611 229.9 88.4478 229.7C88.6478 229.487 88.7478 229.16 88.7478 228.72V228C88.7478 227.56 88.6478 227.24 88.4478 227.04C88.2611 226.827 87.9745 226.72 87.5878 226.72H86.5078V230H87.5878ZM102.7 239.28C100.607 239.28 98.987 238.82 97.8403 237.9C96.707 236.98 96.1403 235.487 96.1403 233.42V226.72H95.1403V223.44H102.54V226.72H101.74V234.44C101.74 234.88 101.834 235.207 102.02 235.42C102.22 235.62 102.514 235.72 102.9 235.72C103.287 235.72 103.574 235.62 103.76 235.42C103.96 235.207 104.06 234.88 104.06 234.44V226.72H103.26V223.44H110.12V226.72H109.12V233.42C109.12 235.487 108.567 236.98 107.46 237.9C106.354 238.82 104.767 239.28 102.7 239.28ZM117.045 239.28C115.765 239.28 114.552 239.173 113.405 238.96C112.272 238.733 111.399 238.48 110.785 238.2V234.24H115.185C115.185 234.653 115.279 234.953 115.465 235.14C115.652 235.327 115.992 235.42 116.485 235.42C116.899 235.42 117.192 235.36 117.365 235.24C117.552 235.107 117.645 234.913 117.645 234.66C117.645 234.447 117.559 234.267 117.385 234.12C117.212 233.96 116.912 233.8 116.485 233.64L114.765 233.04C113.285 232.48 112.219 231.82 111.565 231.06C110.925 230.3 110.605 229.273 110.605 227.98C110.605 226.407 111.119 225.213 112.145 224.4C113.185 223.573 114.912 223.16 117.325 223.16C118.485 223.16 119.572 223.28 120.585 223.52C121.612 223.747 122.439 224.053 123.065 224.44V228.02H119.065C119.065 227.353 118.652 227.02 117.825 227.02C117.425 227.02 117.139 227.073 116.965 227.18C116.805 227.273 116.725 227.447 116.725 227.7C116.725 227.927 116.819 228.107 117.005 228.24C117.205 228.373 117.525 228.513 117.965 228.66L119.705 229.26C121.119 229.74 122.145 230.367 122.785 231.14C123.439 231.9 123.765 232.9 123.765 234.14C123.765 235.833 123.192 237.113 122.045 237.98C120.912 238.847 119.245 239.28 117.045 239.28ZM130.522 239.28C129.242 239.28 128.029 239.173 126.882 238.96C125.749 238.733 124.875 238.48 124.262 238.2V234.24H128.662C128.662 234.653 128.755 234.953 128.942 235.14C129.129 235.327 129.469 235.42 129.962 235.42C130.375 235.42 130.669 235.36 130.842 235.24C131.029 235.107 131.122 234.913 131.122 234.66C131.122 234.447 131.035 234.267 130.862 234.12C130.689 233.96 130.389 233.8 129.962 233.64L128.242 233.04C126.762 232.48 125.695 231.82 125.042 231.06C124.402 230.3 124.082 229.273 124.082 227.98C124.082 226.407 124.595 225.213 125.622 224.4C126.662 223.573 128.389 223.16 130.802 223.16C131.962 223.16 133.049 223.28 134.062 223.52C135.089 223.747 135.915 224.053 136.542 224.44V228.02H132.542C132.542 227.353 132.129 227.02 131.302 227.02C130.902 227.02 130.615 227.073 130.442 227.18C130.282 227.273 130.202 227.447 130.202 227.7C130.202 227.927 130.295 228.107 130.482 228.24C130.682 228.373 131.002 228.513 131.442 228.66L133.182 229.26C134.595 229.74 135.622 230.367 136.262 231.14C136.915 231.9 137.242 232.9 137.242 234.14C137.242 235.833 136.669 237.113 135.522 237.98C134.389 238.847 132.722 239.28 130.522 239.28ZM137.798 239V235.72H138.798V226.72H137.798V223.44H151.298V229.48H146.818V226.72H144.398V229.88H146.158V232.16H144.398V235.72H146.818V232.56H151.298V239H137.798ZM152.056 239V235.72H153.056V226.72H152.056V223.44H160.496V226.72H158.656V235.72H160.456V233.88H164.436V239H152.056ZM171.323 239.28C170.043 239.28 168.829 239.173 167.683 238.96C166.549 238.733 165.676 238.48 165.063 238.2V234.24H169.463C169.463 234.653 169.556 234.953 169.743 235.14C169.929 235.327 170.269 235.42 170.763 235.42C171.176 235.42 171.469 235.36 171.643 235.24C171.829 235.107 171.923 234.913 171.923 234.66C171.923 234.447 171.836 234.267 171.663 234.12C171.489 233.96 171.189 233.8 170.763 233.64L169.043 233.04C167.563 232.48 166.496 231.82 165.843 231.06C165.203 230.3 164.883 229.273 164.883 227.98C164.883 226.407 165.396 225.213 166.423 224.4C167.463 223.573 169.189 223.16 171.603 223.16C172.763 223.16 173.849 223.28 174.863 223.52C175.889 223.747 176.716 224.053 177.343 224.44V228.02H173.343C173.343 227.353 172.929 227.02 172.103 227.02C171.703 227.02 171.416 227.073 171.243 227.18C171.083 227.273 171.003 227.447 171.003 227.7C171.003 227.927 171.096 228.107 171.283 228.24C171.483 228.373 171.803 228.513 172.243 228.66L173.983 229.26C175.396 229.74 176.423 230.367 177.063 231.14C177.716 231.9 178.043 232.9 178.043 234.14C178.043 235.833 177.469 237.113 176.323 237.98C175.189 238.847 173.523 239.28 171.323 239.28Z" fill="#171619"/>
</g>
<defs>
<clipPath id="clip0_8_549">
<rect width="218" height="239" fill="white"/>
</clipPath>
</defs>
</svg>
