<svg fill="none" height="295" viewBox="0 0 237 295" width="237" xmlns="http://www.w3.org/2000/svg"><path clip-rule="evenodd" d="m50.8836 14.2502.5439 1.0242-.096.4481.032.544.576.7042.128.7041-1.6639 1.8563 1.1199 1.2162h.096l-.352.224-.1599.064-.128-.032-.096.1601.064.256.192.3521.0959.096.224.128.192.128.128.096v.1281l-.032.16.096.224-.064.128-.128.0641-.16.032-.032.128v.128l.096.128.128.096.288.0961.192.032.096.096v.128l.3519.5761.128.128.288.096.16.096.064.1281.064.288.1919.096h.128l.096-.064.064-.128.128-.128.096.064v.128l.096.096.128.032.192.2561.096.6401.0959.288.288-.096.192.096.544.1921v.064l.2559.032.704-.032.8639-.064 1.8878-.1921.32-.032 1.0239-.096.032-.032-.192-.9922-.128-.6401-.3199-1.6963-.128-.6401.128-.032.7039-.128.256.5121.2879-.032.096-.128.16-.2881.064-.32.384.032.064.064.16.064.128-.032.0639-.064.096-.064.096-.4161.192-.032.192.128.032.096.32.1601-.032.096.128.16.1599.096.096-.032.128-.032.032.096.096.096.128-.192-.096-.16.064-.16.256-.0641-.224-.288h-.032l-.16-.224.288-.3201.256-.4161.128.032-.064.0961 1.3118.6401.384.192.032.16.128.1601.256-.0641.8959.4801.032.032.16-.064.064-.128h.8319l.224.128.8959.5441.064.256.288-.064.4479.064.192.2881.032.128.7359.2561.256.096.32.064h.128l.096.032.032-.096.224-.064h.2559l.224.096 1.2799.288.032-.096.192.096.4159.7362.416.192.224-.2241.032-.192.288.16.4479.3841.608.224-.384.9922-.064 1.8883.096.7361-.032.2561.128.224h.128l.2239.096.128.1921.352.064-.064-.2881h.128v.064l.256-.032.6719.3521h.192l.064-.032.096.032.4479-.256.096-.1921.16.032.224.1281.192-.0641.256.1281.16-.1601.2239.2241h.224l.16-.1601.288-.192.128-.128.6399-.3841.224-.128.32-.16.2559.384-.192.5121h-.0319l-.384.3201-.32.224.128.1921.192.128.096.128.032.128.064.1921.128-.0961h.064l.3199-.224.288.16.096-.096.256-.128.3839-.128.192-.2561.128-.032.128.064-.032-.192-.128-.4801.16-.032.032-.192.384-.032.2239-.2881.256.5441.16.2561.416-.1601-.032-.096.256-.096h.2239l.16-.096.32.096.064-.032.032-.192.096-.1281.032-.128h.064l.064-.064-.032-.192.064-.096.4479-.064.224-.0321h.128l.128-.096.096-.256.0639-.096.224-.4161.128.064.256-.288.448-.1601v-.128l.1919-.16.512-.3201.192-.096.064.064.3199-.064.16.192.064.1601.16-.096h.128l.192-.0641.16-.128.096-.096.064.096.1279.2881.032.032.896-.16.1919-.0641.224-.096.128-.288.448-.2561-.032-.064.224-.064.2239-.16.032-.032.736-.5441v-.096h.16l3.2317-2.3364.7999-.6081.384-.2561 1.7597-2.2403 2.848-3.6806-.928-.5761-.288-.4801-.128-.3521-.128-.5441 3.616-.224 1.76-.096h.511l1.216-.032.32 1.5682.096.3841.128-.032.32-.096.128.064.928.096.096.032.032.064.096-.064.544.192.32-.032.032.064.288-.096.288-.032.32-.128.256-.16.992-.5441.128-.096.576.128-.032-.096-.064-.2241-.128-.224-.16-.16.384-.3841-.704-.9281-.8-1.0882-.928-1.1842-.48-1.28023.384-.32006.032.03201.064-.32006.224.06401-.064-.28804.032-.19204-.128.03201v-.12802l.288.09601.096-.35205-.192-.03201-.032-.25604.032-.16003.096-.09601-.032-.12803-.288-.41607-.256.09602-.064.03201-.448-.16003.032-.09602.096-.06401.064-.19203.128.09602 1.056-.5761.832-.44807 1.632-.86415.864-.09601.48-.12803.128-.09601.032-.09602.256-.32005.128-.09602.192-.09601h.224l.384.09601.991-.16002.288-.06401 1.856-.28805.608.89615-.576 1.2162-.16.32005-.192.38407-.192.41607.128 1.05617.032.12802.032.22404.032.38407v.032l.064.28805.064.44807 1.824-.73612.544-.22404.448.09602.032.06401h.352v.03201l.928.16002 1.6.32006.256.09601.192.19203.256.09602.128-.06401.128-.03201.064-.032.128-.16003.096-.12802.096-.03201.096.09602.16.06401h.192l.32-.09601.32-.03201-.128-1.2162-.064-.38407v-.16002l.863-.48008.096-.03201.224-.16003.416-.032.096-.19203.256-.5761.032-.06401v-.06401l.224-.35206.064-.09601-.064-.06402v-.09601l.832-.16003-.032-.22404.128-.12802.128-.12802.544-.99216.032-.03201 1.024-.51208v-.12803l.16-.35205.032-.09602-.064-.12802.224-.32005.16-.06402.192.03201.096-.22404.832-.25604.448.09602v.16002l.096.12802.064.16003.096-.032.064.09601h.128l.096.03201.16.032.064-.12802.064-.032.128.032.064-.032.256.22403h.192l.288.16003.224.032.192.16003.096.28805-.064.19203.192.28805.032.28805.224.09601.32.03201.32-.03201.16.03201.256.09601-.096.22404-.032.5761-.096.12802-.064.22404-.064.76812.128-.032.352.22404-.16.22403-.224.06401-.16-.25604-.096.12802-.128.32006-.096.12802v.06401l-.096.09601v.06402l-.288.19203.128 1.24821h-.032v.12802l.224 1.05617-.032.16003h.064l.064.09602.224.06401.032-.06401.192.032.032-.09602.192-.06401-.128.25605-.16.25604-.064-.03201.064-.12802-.096-.032-.032.06401-.096-.06401.032-.06401-.224-.09602-.192-.032.032-.09602-.16-.09602-.192.06401-.064-.12802-.16-.09601-.096-.09602-.064.06401-.128-.12802-.096.03201-.192-.03201-.096-.19203-.064-.03201-.096.09602-.16-.06401-.064-.06401-.096.06401-.096-.06401-.064.06401-.064-.03201h-.128l-.096-.09601h-.128l-.096-.22404-.064-.06401-.16.032h-.192l-.192.06401h-.224l-.32.16003-.064-.06401-.064.03201.128.12802v.16002h.032v.19204l.064.06401-.064.09601.096.06401-.128.16003v.25604l.128.22404h.064v.12802l-.064.03201.16.12802.096-.03201h.16l.16.19202.128.096.224.032.064.1281.128.032.16-.1601.064.0961v.032l.256-.0961.384-.096 1.376-.22401.8-.09602.416.16003.064-.03201.096.06401.064-.16002h.128l.064.09601.096-.032.128.09601.192-.06401v.19201l.032.096h.128l.223.032.064.0961.064-.1281-.096-.032-.032-.064.16-.16h.096l.064-.06401h.096l.032-.09602.256-.06401.032.12802.096-.032.096-.12802.064.032.032-.12802h.192l-.032.12802.064.03201.16-.06401.096.032.224.22404.128.064.032.064.064-.064-.064-.09601.128-.06401.032-.06401.192.09602-.032.09601h-.128l-.032.192.16.032.032-.096.032-.064.032-.032.032.032-.064.192h.128l.032.0961.224.16-.064.256.096.1601v.096l.448.16-.096.16.128.064.288-.032.096.1601h-.32-.096l-.16.16h-.096l.448.16.064-.032.352-.16-.16-.096-.032-.2241.192-.096.064.3841v-.032l1.024-1.2162 1.056-1.31225.096-.06401.416-.38407.512-.41606.512-.41607.48-.41607.128-.06401.16-.25605.16-.06401.096-.09601-.032-.06401.032-.38407v-.16002l.064-.09602.064.032.064-.09601.064-.03201.064-.12802.032-.19203-.064-.12802.032-.06401v-.16003l-.096-.25604h-.064l-.032-.22404.032-.22404.192-.54409.32-.25604.032-.032.096-.16003.16-.32005.096-.16003.16-.12802.128-.06401.16-.12802.128-.06402.064-.12802h.352l.096.06401-.096.5761.032.06401-.096.06401.128.19203.032-.032.288.48008.032.16002h1.631l.224-.032.16-.03201.128.38407.832 2.01633.608 1.53626-.576.89615-.16.25604-1.312 2.52841 1.792 2.0163.992 1.1522.16.5121.32.4481.416.4161.096 1.4402.064 1.6323.864.224.864.2561.64-.5121.256-.128.8-.2881.384-.032.224-.224.64.416.16.1281 1.727 1.1521-.16.6402-.479 1.8243-.32 1.1201.703.6722 1.536-.5441 2.016.5441 1.184-.2241.864.032.384.032.224-.128.16-.224.032-.2241.128-.224.064-.16-.032-.096v-.1281l.032-.064 3.04.8642 1.28.448.511-.6721.448-.6721.192-.032.128.064.16-.384.064-.2241 1.376-.224.32-.3521.416-.32.064-.3521.096-.192.224-.16v-.1601l.288.032.864.2561.832.192.192.5761.608.7361.736.8322.224.192.64.4161.064.032.064.224-.032.16h.064l-.032.2561h-.032l-.032.256h.064l-.096.2881.064.16v.256l-.096.2561v.288l.224 1.4083.064.6401.032.128.352.128.48.192 3.807 1.5683.576.2561.384.224.096.352-.256.0641.48.8321.192-.096.192-.032.32.064h.192l.224.096.032.192.064-.032.16-.064.032-.096.128.064.224-.096.064-.064h.096l.16.192.192.096.064-.128.096.032.224-.032v.128l.384.064.096.1601.32-.3201.288-.096h.128l.032-.032.288-.064h.16l.032.064.224-.032v-.096h.32l.064.128v-.16l.352-.2881.192.064.256.2561.224.064-.064.096.704.096.576.4801-.16.3841-.064.128.032.064.352.064.032.032-.192.096h-.064l-.224.128-.128-.032-.032.064.032.4801.192-.032.064.032v-.128h.128l.032.224.064.0641.096-.0961v.3841l-.192.16.064.032-.16.2561.128.032.064.32.32-.128.064-.032.064-.032.064-.16.128-.064.287-.1601v-.032h.224.032l.064-.032.256-.16-.032-.128.16-.192.16.064h.032l.224.192.128.128.064-.032v-.192l.064-.064v-.096l.416-.3521.096-.128.192.16v.032l.064.16h.096l.224.2881-.064.192.16.064.032.096.16.032-.064.1281-.064.224.064.032.192.096.16.1601.16.192h.096l.096.096.416.288-.256.1601-.16.064-.192.16-.096.128-.032.1921.032.192-.128.32-.128.1281h-.416l-.256.032-.256.096-.256.256-.128.2241-.032.064-.224.288-.096.032-.16.1921-.096.352-.032.1921.032.16.096.16.192.16.192.032.448-.064.16.032.16.0961.192.16.096.16v.2561l-.064.352-.096.16-.256.2241-.16.096h-.096l-.48-.2881-.224-.064-.16-.032-.192.032-.16.096-.224.1601-.16.192-.064.16.032.1921.096.16.096.032.288.3521.064.256v.16l-.032.096-.288.1921-.128.128-.032.16.096.16v.1921l.096.16.064.256v.1921l-.128.224-.16.064-.192.032-.16-.032-.159-.064-.288-.224-.32-.096h-.192l-.128.128-.064.16.032.096.032.2561-.032.448-.064.2561-.288.6401-.16.192-.064.1601-.192.192-.096.32.032.1281.16.224h.096l.32.064.288.16.128.1601.096.256-.032.256-.224.2561-.032.096-.192.2881-.096.16-.064.256.032.2561.064.256.032.4481-.192.32-.448.3841-.128.224v.1281l-.16.192-.064.256-.096.1601-.192.192-.096.032-.32.032-.096.032-.128.16-.064.3521-.128.224-.064.032-.224.1601-.16.32-.096.032-.256.3841v.256l.128.2561.128.096.224.096h.192l.192-.032.288-.192.064-.1921.128-.128.16-.096h.096l.256.096.128.096.224.1921.128.224.064.256-.096.1921-.128.096-.256.032-.288.192-.064.096.032.0961v.192l-.128.224v.1921l-.192.384-.192.1921-.064.032-.256.256-.064.16-.064.064-.16.2241-.064.16-.064.256.096.5121-.032.2561-.128.256-.128.128-.224.1281-.256-.0641-.256-.224-.064-.064-.192-.032-.16.032-.256.064-.192.224-.032.2561.064.096.032.2561-.032.192-.064.256-.192.3841-.32.192-.128.096-.16.1921-.224.5121.032.288-.192-.064h-.256l-.16-.064-.064.096-.096.064h-.032l-.128.096-.16.032-.032.1281-.16.128-.128-.064-.192.256-.096-.096-.192.16-.032-.032-.224.2241.224.224.096.064-.128.128-.352.2881.16.096-.096.128v.032l.064.096-.096.128.096.032-.128.1281.128.064-.192.288.064.1281.064.224-.128.064.032.16h-.128l.032.128.16.3201-.064.032.064.064.032.064-.032.064.192.1281-.096.16.192.128.064.128.032.1921.096-.0641.096.1921-.064.192-.032.128-.064.1601.032.032.16-.096.16.224.096.064v.16l-.032.032-.096.128.064.0321-.064.064.096.096.192.064.192.032.128.096h.16l.064.064v-.128h.096l.064.064.128.032.032.096.256-.064h.064v.1281l.064.064.064.224.16-.096.288.128.064.032.16-.064.128.064v1.0882l.032.352.032.2241.192.7041.064.3521v.352l-.096.4161-.128.256-.32.5121-.288.3521-.16.224-.032.128v.2241h.16.032.16l.032.16v.032l.416.096.064-.032.192-.064.224-.288.16.032h.064l.128-.1281.096-.032v-.064h.064l.032-.032.096.064.128.032.224-.32.064-.128.128.096-.032.096.128.096v.064l.128.16.256.0961v.096l.288-.032.256.064.128-.4161h-.064l.064-.096-.064-.064.16-.3841.128-.128-.032-.064.16-.16.16-.1281.128-.16.032.032.128-.192.064.032.192-.3201.032.032.192-.224.192-.224.416-.032.064-.032.224.032-.032.064.064.256.096.5121.128.2881h.032l.16.384.224-.064.287-.224.416.6721.448.6721.128.032.288-.032.352-.192.16-.032.224-.0321.256.0321.192-.1921.256-.256.096-.064.352-.1281.032.2881.128.4161.032.256.032.192.192-.352.512-.4801.192-.16.256-.096.096-.032h.096l.32-.0641.608-.448.192.448.032.3521v.192l-.032.2881.032.096.128.064.256.16.064.096.256.1281.128-.1921-.032-.032.096-.128.224-.064.032.128.096-.096.192-.032.032.128.064-.032-.032.2561.032.16h.064l.384-.16.512-.4801.128.032.192-.032.16-.096.096.032.224-.064.128-.1601.096.032.224-.096.096.064.288-.192.16-.064.032.096.288.064.224.032.224.096.127.1601-.063.256.127.096.16-.032.256.16.096-.032.384.032h.16l.224-.096.128.096.192-.096.096.032.608-.128h.288l.128.064.032.096.448.2881-.096.224.064.032.096-.224.64.4481-.064.288.096.192-.096.2881-.128.128-.192.2561.032.128-.096.096.064.16v.128l-.064.0961.064.16.096.064h.128l-.032.064-.032.3841.16.16.128-.032.032-.288.16-.6722.32.2561.704.224.704.2561.544-.0321h.352l.224-.16.192.2561.192-.2561.16-.032.544.032.064-.064.256.128.096.1281.128.096.192.256h-.032l.064.192v.0961l.16.32.032.16-.128.1921.512.7041.096.128v.2241l.128.128.256.128-.032.128.128.1921.096.032.064.128-.096.16.16.4161-.032.096.256.224.064.1601.448.256v.128l.128.128.191.064.033.1281-.064.064.191.6081.064.128.384-.064h.16l.48-.064.224-.096.096-.032.32.064.128.128.064.32-.032.2241-.448.4161-.128.128v.096l-.128.224-.032.1601.064.384.128.16.128.0641.16.032.224-.0961.192-.032.192.0961.16.032.416-.032.352-.0321.256-.032.16-.096.096-.096.032-.16v-.2561l.064-.096.192-.128h.128l.16.128.096.2241.096.096.128.064.224.256.096.032.192.032.448-.128.288-.096.192-.032.128.096.064.064.128.3841.096.16.192.5121v.224l-.192.1921-.064.096v.4161l-.032.16-.032.16-.352.5441-.16.192-.384.3201-.16.064-.16.128-.064.16.128.4481-.096.2561-.224.352-.096.1601-.128.352-.032.128-.064.4161.032.288-.064.2881-.096.16-.032.2881.032.16-.064.256-.128.1281-.352.256-.064.128v.3201l-.064.16-.128.064h-.16l-.256-.16-.192.064-.192.16-.096.3841-.064.064-.032.256-.096.1601-.192.064-.096.128-.192.4161.032.352-.096.1921v.192l.064.224.064.0961.256.128.192.224.032.16-.032.1921.128.288.256.16-.224.0961.064.16.16-.032.032.128.192.3841.032.096.16.128.032.128.16.2881-.032.128-.128.096.096.096.192.2561.128.096.192-.3201.192-.032.096-.064h.192l.224-.096.256-.192.224-.1601.128-.032.096.064.064.1601v.16l.064.032h.192l.192.064.064-.064.224-.3201.192-.192.32.192.192-.064h.224l.032.096.128.2881.064.032.608.096.16.032.096-.096.192-.064.384-.224.32.224v.16l.16.1281.352.224h.224l.288.096.096.064.128.2881h.128l.256-.032.288.032h.128l.159.064-.064.128-.095.032-.256.224-.128.064-.032.0961v.192l.032.2245-.064.192-.192.16.032.192.064.064.16.032.128.288-.096.352-.096.16.032.128.128.096.16.192.128.064.127.128.448.064.16.128.16.096.544-.16.16.32.064.192.128.832v.192l-.096.736-.128.16v.16l-.16.352-.256.448.032.257.16.736-.032.096-.256.704-.288.288-.16.224-.032.096v.224l-.032.16-.128.128-.479.416-.224.448v.096l.255.096.224.256.16.224h.128l.288.192.192.352.192.288.032.192.128.16-.16.224.064.064.128-.096.032.096h.16l.096.096.096.16.032-.064.16.225.096.032.128-.096.096.096-.032.032.032.128.096.064.064-.096.128.128.544.48.128.192-.032.48.064.096.32.064.096.128-.064.64-.096.512-.096.032-.416.096-.448.096-.416-.096-.096.128.032.16h-.16l-.192.128.064.096-.128.064.096.096-.096.128-.288.128-.16-.128h-.064l-.288-.128v.128l-.16.128.032.16-.096-.032.064.064-.032.064.096.064.064.128.16.192-.256-.096-.16-.224-.16-.096-.192-.064-.096-.192-.064-.224-.159.032-.32-.096.128-.128-.064-.128-.416.192.064-.16-.128-.064-.064-.192h.096l-.064-.256-.16.064-.192-.16-.288.32-.128.064-.16.128-.032-.096.032-.096-.064-.032-.064.064-.16-.096-.416.16-.032.224.128.16-.064.224.064.128h.064v.128l-.128.032v.096h-.16l-.064-.064h-.16l-.128.128h-.128l-.032.128.064.032-.064.192.16.096-.096.192-.128.096.064.128-.064.128-.224.096.096.064-.064.128h-.096v.064h-.096l-.16.064.032.128.128.225-.16.064h.096l.032.096-.128.096v.064l-.064.256.128.192.128.032.064.096.128.224-.064.224-.128.16-.16.032-.256.288-.064.192-.128.16-.032.128-.096.032-.032-.096-.256-.064-.064.064h-.096l-.16.192-.16-.032-.16.032-.064-.064-.096-.192-.096.032-.128.128-.128.128-.352.16-.096.032v.064l-.512.032.096-.096h-.16l-.256.224-.352.16-.16-.032-.064.16-.096.064-.16.192-.064-.032.096-.128-.192-.064-.096.192-.16.192-.16-.064-.096.128-.128.096.096.16-.128.128.032.128-.224.384-.064.256-.288.288-.256.032-.352-.096-.32.096-.064.064-.192.032-.064.16-.096.032v.192l.064.064.16.224-.064.257-.224.128-.16-.032-.128.032-.096.224.032.256.256.032.096.032.224.192.096.032.032.192.192.224.096.416.128.16.224.064-.128.096-.096.16.064.128-.064.256.064.32-.064.128-.064.16.064.032.096.224.192.16v.16l-.224.192.352.192-.224.224-.256.128-.224.032-.128-.16v-.064l-.064.16-.16-.064-.256.064h-.096l-.064-.096-.352.192v.16l-.063.128-.064.288-.256-.032-.192-.416-.16-.096-.192-.032-.064.096-.096.288.064.128.128.096.032.096-.192.064h-.256l-.064.16.128.257.192.16.064.032.032.16.096.096-.224.384-.16.096-.16.032-.384-.032-.032.064v.128l.16.192.256.096.096.096v.128h.096l.064-.096.32-.256.128.096.16.064-.032.256.064.416.064.128-.16.128-.064.128-.032.128-.192.192-.544.096v.288l-.032.16-.16-.032-.128.064-.16-.064-.096-.16-.128-.192-.16-.064-.224-.16h-.416l-.096.032v-.192l.096-.192.032-.192.064-.224.096-.032.064-.256.288-.192.192-.064-.128-.128-.192-.064-.128-.128-.032-.128-.16-.032v-.128l.096-.128.032-.128.192-.256-.032-.128-.32-.225-.736-.48h-.128l-.16.096-.192.032-.352-.128-.128-.096-.128-.032-.32.128.032.16-.064.064.096.481v.192l-.064.096-.064.192.032.16-.32-.096h-.128l-.096.096-.064.096-.288.192-.416-.064-.448-.256-.256-.096-.512-.256-.32-.256-.16-.257.032-.48-.096-.384-.096-.192-.064-.256-.064-.288-.16.032-.224.096-.096.064-.224.16-.224.064-.384.192-.192.064-.64.032-1.119.032-.16.192h-.192l-.096.032.032.128v.609l-.032.096-.128.288h.096l.064.256.16.256-.096.16-.16.032-.256.192.032.096.128.064-.064.192.064.256.032.224-.192.352.096.448.096.256-.128.032h-.288l-.032.096-.256.096h-.352l-.32.128-.096.096h-.192l-.288.064-.224.16-.256.128-.256.16-.192-.032-.192.096-.096.16-.352.16-.192.128-.128.224-.192.128v.288.384l-.064.192.032.161-.16.192-.096.224-.064.128-.064.224-.096.256v.16l.032.256v.448.192l-.064.128-.256.128-.192.032-.416.16-.256.128v.128l-.128.128-.224.128-.096.032-.128.224-.096.256v.224l-.128.16-.032.096.128.128.064.256.192.032.032-.064.32.384.064.096.16.384-.16.064.064.16-.32.128-.064.128.064.16-.256.129-.16.16v.096l.096.064-.032.128.128.224.032.192-.416.128.032.096-.128.032.064.32-.128.032-.256.16-.16.128h-.064l-.096.096-.032-.064-.128-.032-.064.064-.224.032-.064.032.032.064-.224.16.032.064h-.128l-.032.096-.096-.096h-.096l-.064.096-.064-.032-.192.128.064.16h-.032l.096.32.064.192-.096.064.064.128v.192l-.064.096.064.128.128.224.224.128.128.16.192.32.256-.064.192.192-.032.032-.032.416.032.032-.064.192-.16.32-.128.032-.096.192-.096.032h-.16l-.096.129-.128-.065-.256.161-.032.16-.16-.064h-.224l-.16.192.032.064-.096.224.096.16-.032.16-.256.192-.128-.096-.256.032-.16-.128-.096-.128-.288.16.033.16-.033.032-.319.064-.064-.032-.256-.128-.32.192.128.288-.224.128.064.128.032.192-.192.128-.096.192.064.32.064-.032.032.16-.096.032.128.288.096.352h-.128l-.032.096h-.128l-.032.352.064.128-.288.032h-.128l.032.064-.064.096.064.064-.064.16.064.096-.064.16.064.032-.192.096.032.16v.16l-.096.224.224.16-.032.032-.64.32-.32.257-.096.16.032.128-.16.096-.256.096.032.192-.16.096-.096.192.032.096-.064.096.16.096.096.096h.16l.224.096.096.16.16.096h.224l.192.192h.16l.224.096.192.032.032.064.16.032.032-.032.064.192.064.064.32.064v.16l.064.096.256.224.032.128-.064.16-.16-.128-.128.128.064.064.32.192-.064.096-.192-.032-.16.032-.192.448-.032-.032-.096-.352-.128-.096h-.064l-.032.16-.16.128h-.16l-.256-.32-.16-.032-.128.096v.064l-.096.224.064.096.16.096.032.16-.128.288.064.16.096.16.192.16v.096l-.192.032-.16-.064-.192.16-.096.032-.128-.032-.096.064-.032.128.096.096.128.032.32-.032.224.224v.289l-.096.064-.16.064-.096-.032-.064-.192-.16.032-.032.096v.32l.128.16-.032.128-.128.096-.288-.096-.128.064-.096.224.032.032-.032.224.288.224.096.288.032.192.128.16-.032.128-.256.192.032.16.128.352.064.032.224.032v.096l-.064.192.032.256-.032.032.064.288.128.832.032.032-.032.32h.064l.064.16.384-.128.288-.032.256-.096.064.096.128-.096.16-.032.32.224.192-.256.032-.128.192-.032.127.096.16.48-.064.16v.16l.16.225.16.16.064.128.064.32.032.064.256.128.192.416.064.32.064.288h.096l.288.288.064.416.064.288v.096l.192.064-.032.16.16.192h.064l.224-.064.16.064.128.224-.128.352.128.16-.16.096-.16.128.064.192-.032.032.032.32-.064.064-.128.064.128.288-.032.064v.128l-.16.096.128.224.32-.096.192.064v-.032l.192.032v.096l.192.128h.224l.192-.16.192-.096.192-.032.352-.256.096.096.224-.064.096.096.224.224v.192l.288-.032v.129l.096.224-.16.064.064.16.16.096.224.16.224.256.096.096-.256.288-.288.48-.288.224-.096.032-.128.32-.16.064-.064.128.064.064-.096.192-.096.16.064.096-.128.288.032.128-.064.192.032.128.16.32.128.096h.16l.224.192h.256l.288.128-.032.128h.192l-.032.16.16.064v-.16l.16-.064v.064l.128.224v.064l.096.032.032-.128.096-.096.128.224.128.032.032-.128.064-.064.096.096-.096.064v.192h.128l.128-.128h.16l.128.288-.16.032-.192.096.032.064-.128.289.128.256-.128.096-.064.192.032.032-.032.224.032.192-.032.096.128.032v.32l.064.192.16.096-.096.064-.192.224-.256.16-.064-.128-.16-.064h-.192l-.16.096-.16.032-.032.096-.16.096-.064.192.192.192.064.16-.16.096-.192.16-.256.352-.064.16v.32l-.032.096.096.128.032.096-.096.096.064.256-.256.16-.16.096-.256.032-.064.096-.32.256-.224.16-.256.096-.16.096-.064.16.032.16v.064l.032.321.096.192-.032.128h.192l.224.064.16.032.16-.096.128.032.128-.16h-.032l.128-.128.064.096.064-.064.096.128v.16l.096.192-.032.096-.16.032-.256.224.192.064h.192l-.064.192-.064.096.16.128v.096l-.32.128-.256.224-.128-.032-.032.096.032.256-.064.064-.288.032-.096.096-.096-.032-.064.16-.192.128-.096.032-.064.096h-.16l.192.192.032.256-.16.096v.064h-.096v.128l-.256.032-.128.032-.288.16-.192.064-.096-.192-.128.064-.096.16-.16.032v.16l-.096.128-.096-.096-.064-.096-.128.096h-.064l-.128-.192-.16-.128-.224.096-.192.032-.224-.128h-.096l-.224-.096v-.064l-.159-.16-.16-.16-.096-.16-.224-.096-.032-.128-.128.128-.096-.128-.064-.224-.128-.096h-.192l-.352.16-.16.064-.16-.096-.096.064.096.288-.224.096.032.096-.032.192.064.096v.128l.032.128v.16l-.128.256.128.288-.352.096-.096.16-.16.064-.384.032-.192.032-.032-.192-.16-.256-.192-.064.128-.128-.48.16-.032-.064-.096.032-.096.16.064.096-.192.16-.096.032-.064-.064-.16.096-.096-.16-.384.192-.032-.096h-.096v.096l-.288-.096-.096-.16.032-.096h-.128l-.096-.064h-.064l-.032-.096-.224-.096v-.096l-.576.096.064-.256-.16-.096h-.224-.16l-.224.064-.096-.192-.128-.128-.096-.128-.064.064-.128-.096-.128.128-.128.096h-.128l-.192.064-.032-.096-.16.032v.096l-.352-.032.064.32-.128.032-.192.128-.288.096.032.128-.192.064.032.16.096.064-.192.064-.192.16-.288.288-.128.16-.256.513.192.192.096.192v.128l.064.192v.064l-.192.416-.064.032-.128.224-.128.224-.064.192-.064.128-.352-.16-.095-.096.032-.192-.064-.032.032-.096-.16-.128.064-.192-.096-.192-.224-.224-.192-.192-.192-.096-.128.128-.192-.128-.16-.064-.16-.096-.416-.16-.128-.128-.288.032-.128.192-.224-.096.032-.096-.288-.16-.16.096-.256.16-.256.288-.064.32v.096l-.032.16-.16.192-.352.032-.128.16-.224.096-.768.288-.32.064-.736.16-.672-.128-.192.064h-.096v.096l-.096.032-.096.16v.192l-.064.16-.32.288-.16.032-.192-.096-.192-.064.064-.16-.096-.096v-.352l.064-.32-.064-.064-.192-.064v-.096l-.192-.064-.128-.128-.032.096-.096-.064v-.16l-.288-.128.032-.064-.128-.032-.032-.096.224-.096.064.032.064-.096h.064l.096-.064.064-.192.096-.032.096-.16.128-.128.32-.032-.128-.577v-.16h.064v-.16l-.032-.32-.32-.192-.064-.032-.16-.192-.096-.064-.224-.192-.16-.192-.096-.032-.192-.128-.128-.064-.032-.16.224-.064.16-.096.032-.256.16-.256.128-.256.064-.096.192-.352h-.544l-.288-.032-.352-.224-.096-.48-.096-.256-.096-.384-.224-.576-.032-.224.128-.192-.16-.321-.192-.256-.16-.064-.255-.064-.288-.576-.16-.224-.16-.096-.224-.032h-.16l-.064-.096-.16-.416v-.064l-.256-.096-.032-.064-.192-.064-.224-.032v-.064l-.256-.032-.096-.064-.128-.096-.096-.032-.128-.16h-.096l-.224.064-.16-.064-.224.032-.032-.192-.096-.096-.32-.16-.096-.064-.064-.192-.096-.032-.288-.032-.064.16-.064.064-.096.288v.096l-.032.128.032.128-.064.16-.16.192h-.128l.16.16-.224.096-.224-.032-.16-.096-.288.064-.128.096-.096.128-.096-.096-.128.032-.032.096-.256.256-.096-.096-.032-.416-.032-.224-.192-.192-.064-.224-.128-.128.064-.128-.032-.192v-.224l.16-.352.064-.128v-.128l.224-.192.064-.192.096-.032.128-.256.096-.064-.032-.16.224-.128.192-.192.096-.032.352-.256-.032-.16-.096-.128-.096-.225-.16-.096-.448-.512-.128-.064-.064-.16h-.064l-.064-.128-.16-.096-.128-.256-.256-.096-.096-.032-.032-.096-.192-.064-.064-.096-.16-.032-.128-.064-.064-.16-.128-.096-.032-.096-.192-.096-.16-.192v-.16h-.16v-.096l-.032-.224-.288-.288-.256-.192-.224-.224-.128.032-.128.128-.48.096-.288.384-.064.128-.224.192-.256.096.032-.352-.128-.064h-.287l-.16-.128-.128-.032-.192.032-.16.096-.16.064-.096.096-.192.064-.128-.064-.128-.224-.16-.128v-.064l-.16-.224-.192-.096-.192.192-.128.16-.288.064.032-.16-.128-.096h-.16l-.256.096-.416-.096-.096.064-.16-.032-.16.096-.192-.032-.256.064-.128-.064.064-.192-.032-.224-.064-.224.064-.192.032-.224.096-.256-.064-.224.032-.16-.192-.128-.064-.192-.192-.16-.288-.16h-.064l-.096.096-.032.192-.224.352-.224.224-.064-.064v-.128l-.096-.224h-.256l-.16.064-.224-.064-.128.032-.16.064.032-.128-.032-.224-.096-.096-.064.032.032-.417.096-.512-.16-.224-.064-.256-.16-.32v-.288l-.16-.192-.064-.16-.128-.192-.16-.32-.16-.224-.224-.256-.064-.16-.512-.704v-.128l-.256-.128-.16-.16-.16.288-.128.064h-.288l-.192.064-.192.096-.128-.064-.416-.064-.032-.288-.064-.16h-.128l-.384-.128-.096-.096-.192-.096-.159.032-.224-.064-.192-.096h-.128l-.128-.128-.288-.192-.224-.064-.224-.128-.16-.096-.32-.16-.16-.128-.192-.064-.096-.128-.032-.16.032-.225-.192-.16v-.064l-.128-.192-.032-.16-.16-.064-.096-.128.064-.064-.032-.192.032-.128-.256-.128-.096.064-.48.064-.224-.096-.128.032-.096-.064h-.16l-.192-.064h-.16l-.096.32h-.192l-.096.064-.288-.224-.064-.128-.288.096-.192.096-.096.032-.032.288-.064.16-.192.352-.032-.224-.192-.032-.416.32v.128l-.064.16-.128-.064-.224-.032-.096-.064-.224-.032-.16.128-.288.032-.256.128-.224.032-.224-.064-.192-.288-.192.064-.192-.032h-.192l-.032.064-.384-.352-.064-.064-.288-.096-.128.032-.256-.032.096.384-.256.032-.192.032-.159-.032-.288-.288-.192-.032-.096-.096.288-.128.192-.192v-.256l.128-.16.095-.032v-.256l.096-.096v-.16l.064-.288-.032-.288.128-.032.128-.16.128-.032.192-.096.096-.064v-.224l-.096-.064-.192-.128-.128-.128v-.256l.032-.16-.096-.16.032-.128-.16-.192v-.064l.192-.096-.128-.704-.287-.032-.288.032-.032.064-.032-.32.064-.192-.128-.128-.224-.385-.032-.128.032-.352v-.224l-.032-.128-.032-.448-.192-.224.064-.032.064.16.224.16h.224l.128-.032.16-.128.063-.096-.095-.256.032-.128.063-.224.224-.416.128-.064.128.064.064-.128-.064-.096-.096-.256.096-.16.096-.256.16-.256.096-.064.064-.16v-.128l.096-.096.384-.128.128-.16-.032-.128-.128-.224-.128.032h-.16l-.256.032.096-.16v-.128l.192-.128.288.032.128-.064.032-.128.096-.128-.576-.705.064-.512-.48-.384-.16-.128-.767-.48-.256-.576-.064-.256-.096-.256-.16-.416-.16-.128-.128-.032-.192-.096-.384.064-.128.096-.16-.032-.16-.16-.064-.032h-.192l-.16-.032-.128-.096-.32-.128h-.384l-.64-.352h-.32v-.16l-.032-.064.032-.192-.032-.448v-.256l.064-.096.032-.192.192-.257v-.224l-.128-.352.096-.064.576-.032.16-.128v-.064l.224-.32.224-.096.032-.224.288-.352-.224-.32v-.224l.032-.16.288-.864-.128-.224-.128-.064.064-.16.032-.352.256-.16-.128-.192-.032-.16.16-.128.064-.096.16-.064.096-.16.128-.352.32-.032.224-.192.096-.128.064-.161-.032-.096.032-.32v-.064l-.128-.192-.16-.064-.288.064-.064-.128-.128-.032-.064-.128-.032-.032-.032-.192.096-.32.064-.16-.096-.096v-.096l-.16-.064h-.224l-.16-.128.032-.096.096-.064.064-.128-.16-.16.256-.096h.16l.128-.032.128-.032.288.064.192-.032.032-.256.16-.416v-.16l.096-.16-.096-.16.064-.128-.128-.224.384-.064v-.096l-.224-.384-.096-.288-.192-.032-.032-.128.128-.128h.128l.256-.192.256-.288-.032-.096h.16l.128.032.128.064h.064l.128.096.096.192v.128l-.096.224.032.064.287.192.128.16.096.096.192.032.064-.288.096-.224.064-.128-.096-.128-.32-.032-.128-.096.128-.064.096-.32.032-.225.16-.384v-.192l-.128-.288-.096-.192v-.064l-.16-.32.064-.192.16-.224v-.16l.128-.096.32-.128v-.448l.416.128.096-.032.224-.224.032-.096.256-.064.128-.288-.128-.224h-.288l-.128.032-.128-.064-.288-.064.064-.128v-.096l-.096-.16-.096-.288.064-.096-.128-.064.064-.192-.096-.16-.16-.032-.288.064-.128-.032-.096.064h-.128l-.032.064-.351-.032-.48.064-.064-.096h-.16l-.096-.064-.16.064-.16-.096-.128.096-.256-.064-.064.064-.096-.256-.064-.128-.224-.192-.128-.192-.032-.128.032-.353.064-.288-.096.032-.032.064-.992 1.473-.608.416-1.024.64-.448.16-.64.32.064.192-.416 1.216-.48-.064v.032l.288.544-.064.416-.352.16-.48.256-.448.16-.416.224-.512.257-.16.352h-.128l-.192.064h-.224l-.128.096-.064.224-.096.032-.032.128-.256.576-.128.064-.128.32-.032.192-.128.288v.224l.032.096-.064.096-.096.16-.256.096-.096.096-.032.096.192.224.032-.032.064.16.096.256v.288h.416l.16-.128.128-.032-.064.128.128.16-.096.096.096.096h.064l.032.096-.032.16-.16.192-.064.192.032.448-.16.288-.096.193-.064.32-.096.16-.064.192v.192l-.224.128.032.096.128.096v.064l-.096.32.064.224-.032.448.16.256-.224.288v.16l.128.16-.064.128.096.256.16.16.256.256-.064.096-.096-.032h-.224l-.224-.096-.128.032-.128-.032-.191.096-.352-.16-.288.064-.096.096-.032.128-.096.032h-.256-.096l-.096.096-.224.064-.224.064-.096.096-.16-.032-.128.128-.288.032-.128.064-.096.128h-.096l-.16-.064-.224.064-.128.096-.032-.032-.256.032h-.352l-.32.064h-.32l-.128-.064h-.192l-.256.064-.256.128-.32.064h-.096l-.16.16-.352.16v.256l-.096.257-.16.096v.032l-.16.128-.128.128-.192.064h-.128l-.416.128-.288.032-.064-.064-.352-.064.032.128-.096.064-.032.096-.192.16v.064l-.224.192-.064.096.032.064-.096.16-.064.064-.288.416v.16l-.096.16-.256-.128-.256.16-.16.224-.032.096-.096-.032-.256-.032-.64-.128-.383.16-.064-.032-.064.096h-.16l-.16-.192-1.664.8-.512.256-.064-.128-.224-.256-.32.032v-.032l-.288-.128-.352-.224-.128.032-.16-.096-.128-.128-.096-.064-.064.064-.224-.032v-.064h-.16l-.192-.064-.064-.064h-.256l-.128.096-.192-.064-.128.032-.064.096-.16-.064-.032-.096-.352-.224.032-.064-.128-.192h-.064l-.064.096-.192.096-.288.096-.256-.032-.192-.096h-.48l-.096.032-.192-.032-.064.032-.192-.16-.128-.256-.16-.128-.128-.096-.16-.288-.224-.16-.192.096h-.192l-.128-.032-.16-.032-.32-.128-.096-.064-.128-.096-.096-.032-.064-.096h-.032l-.032-.064-.064-.064-.032-.032-.096.032-.095.096h-.096l-.128.064-.064.128-.256.128-.064-.032-.128.064-.064-.032-.224.096-.032-.032h-.128l-.064-.064-.288.064-.064-.064-.224.064-.288-.096-.128-.032-.096.064-.256.096-.128-.032-.128.032-.288.032-.384.128-.096-.032-.128.096h-.064l-.128.032-.096.192-.384.16-.032-.032h-.288l-.224-.128-.224.064-.032.064-.224.064-.352-.096-.064.096-.16-.064h-.096l-.16.096-.064-.032-.096.096h-.128l-.064.128-.128-.128v-.192l.064-.096-.032-.288.064-.128.064-.032.064-.16-.064-.128-.064-.096-.192-.032-.16-.128-.256-.096-.096-.064-.448-.064-.096-.16-.064-.225-.1278-.096h-.064l-.16-.032-.1599.032-.192.128h-.128l-.032-.064-.096.064-.128-.032-.128.064-.096.065h-.064l-.16-.193h-.1279l-.096.096-.16-.064-.192-.256.256-.064.064-.16.096-.096.032-.128.1919-.064.224-.032.096-.192.064-.096.064-.224.064-.224.224-.224-.064-.512-.192-.16-.224.224-.6079-.384.16-.192-.064-.096h-.128l-.128.128-.032-.096.128-.096.064-.096-.288-.096-.064.032-.096-.288-.096-.096.064-.096-.128-.064.064-.192-.032-.032v-.064l.032-.256.512-.768-.032-.192.288-.128.0959-.224v-.096l.128-.128-.032-.193.288-.416.16-.16.096-.192v-.128l.096-.096.064.032.064.128.096-.032.1919.096.224.032.064.128.3198-.096.288-.128.128-.16h.224v-.096l.256.096.096-.16-.064-.032.256-.48.544-.128.64-.288.096-.096.256-.16.256-.256.128-.288.064-.192-.032-.192-.16-.48-.16-.288-.032-.384-.256-.064-.224-.192-.032-.256-.16-.32-.096-.096-.096-.064-.032-.064-.224.064-.128-.192-.064-.032-.128-.128-.032-.128.064-.097.32-.288-.032-.096-.608-.032.032-.256.416-.608-.128-.128.064-.32.032-.064-.064-.064-.032-.256-.128-.16-.096-.064-.032-.224.192-.352-.096-.16-.16-.064-.448.128-.48.064h-.416l-.5437-.128-.384-.064h-.128v.192l-.064.064-.064.256.064.128-.096.064-.16-.096h-.4159l-.032.032-.128-.096-.288-.096-.352-.16-.0959-.16-.192-.16.096-.16.128-.32.1919-.064.096-.128.032-.16-.064-.128.096-.192.032-.352.128-.16.32-.288.032-.096.192-.128.0959.032.096-.16.128-.096.096-.192.032-.16-.032-.064v-.481l.032-.16-.4479-.128.1599-.608.16-.096.064-.16.096-.096v-.448l.096-.128-.064-.096-.032-.192.032-.032.16.064.064-.128.032-.416-.032-.352v-.064h-.096l-.16-.128-.16-.32-.096.032.064-.288-.096-.224-.064-.032v-.096l.192.096.128-.128.192-.032.256-.064h.16l-.032-.128.2239-.032.032-.096.128.064.064-.032v-.16l-.16.032.032-.096h.096l.064-.064.0958.032.096-.16.16-.416.16-.449v-.16l.448-.416.288-.32v-.032l.288.064.064-.064h.192l.032-.064.096-.064.032-.096.128-.16.192-.064.096-.096.16-.224.064-.032.288-.288v-.192l.064-.256v-.192l-.192-.224-.16-.064-.032-.192-.192-.448-.192-.352-.032-.096h-.128l-.128-.128-.192-.032v.064l-.128-.064-.096.128h-.224l-.256-.128v.032l-.16-.064h-.16l-.128.096-.224-.128h-.096l-.032-.192-.096-.096.096-.256v-.32l-.4478-.032.064-.32-.4479-.064-.096.352h-.288l-.16.032.128.096-.064.256.032.064-.192.224-.128.064-.0319.16.0639.16.256.064.192.096.224.064.16-.032-.032.256.16.128v.064l.1599.064-.0639.672h-.16l-.096.192-.576.096h-.224l-.1599-.16-.16-.032-.096.064-.384.096-.096-.064-.032-.192.16-.032.064-.32-.096-.192-.16-.032-.064-.128.096-.128v-.16l.096-.448h-.32l-.1919.032-.192.096-.064-.064-.128-.352.192-.256v-.16l.064-.384-.064-.384-.128-.673-.032-.064-.096-.096-.16-.16-.032-.096.064-.064-.096-.192-.192.192-.1279-.032-.128.064-.16-.416-.224-.288-.224-.256-.16-.128-.096.128-.1599-.096-.096.064-.224.032-.192.128-.16.16-.192-.064v-.128l.064-.032-.032-.256-.064-.128.032-.256-.032-.256-.4159-.288-.288-.352-.064-.288-.16-.064-.3519-.128h-.128v-.224l-.128-.032.064-.32v-.064l-.288-.032h-.32l-.096-.032-.2239-.192v-.032l-.16-.128.032-.128-.192-.192.096-.128-.096-.096.032-.128-.128-.064.064-.096-.096-.064-.064-.225-.16-.16v-.128l-.224-.064-.096.224-.2559-.064-.16.353.128.128-.16.032-.224.192h-.128l-.064-.064-.16.064-.16.032-.0959-.064-.064.16-.096.064-.128-.064-.064.064-.128-.064-.064.096-.256.128.064.096-.096.064.064.096-.064.064-.16.064-.2239-.256v.096l-.32-.256-.064.064-.128-.192-.096.416-.224.288-.128-.096.16-.16-.064-.064.128-.288-.096-.288-.8959.512-.096.064-.096.032-.128.096-.9919.576-1.1199.64-.2559.128-.032-.096-.16.16-.16.032-.096-.032-.064.064-.224-.16-.16.064-.5119.096-.032-.16.16.032.1599-.128-.0639-.064-.032-.128h.0639l-.0319-.448-.128.096-.064-.192h.128v-.192l-.064-.128-.224.096.032.096-.224.096-.064-.064-.224.096-.192-.032-.3839-.224-.256-.16v-.16l-.288.128.032-.096.064-.064-.032-.16-.096-.288-.224-.256-.2239-.128-.224-.064h-.128l-.32-.096-.064.128h-.096l-.1599.064-.16-.032-.256-.096-.096.032-.032.096.064.16-.032.224-.16.256h-.16l-.2559.064h-.224l.256-.448-.096-.352-.224-.096-.256-.097-.192.289-.064-.064-.192.192-.1919-.032-.128-.096h-.224l-.256-.096-.128-.032-.256.064h-.2239l-.192.16-.128.032-.192-.192-.096.096-.128.384-.128-.032v-.096l-.1919.032-.032-.064-.064.064h-.16l.032-.064-.256-.128h-.192l-.096.096.096.16-.288-.064-.0319.16-.16-.032v.224l-.128.064-.032.128-.096-.032-.096.096.288.128-.192.128-.128.16.096.192.096.064-.032.064h-.096v.48l-.256-.064-.032.448.032.224.16.192-.128.192.064.096-.192.224-.064.064.128.128v.128l.064-.032.096.16-.096.096-.096-.032v.128l-.4799-.192-.064-.192h.064l-.064-.16.032-.096-.128-.128-.128-.032-.128-.128-.032.032-.064-.064-.128.064h-.096l.128.128-.064.096.096.096-.064.128.32.128.096.352-.096.064.064.064-.064.096.128.096.16.064-.64.16-.096-.096-.032-.224-.128-.096.032-.032-.1599-.128-.064-.16-.352-.192-.128-.032-.032-.224.096-.064-.48-.256-.2239-.096v-.032l.3519.128.032-.128.096.032-.032.096.064.032.064-.16.032-.128-.32-.096-.032-.096-.064-.096-.1279-.032.032-.128-.128-.128-.256-.128.032-.096-.096-.032-.032-.224h-.192v-.16l-.064-.064.192-.384.032-.096-.096-.16-.16-.064.032-.096-.256-.128v-.16l-.2239-.032-.032-.128.064-.032.064-.224.0319-.513h-.0319v-.448l-.096-.32-.064-.096-.192-.032-.16-.096-.096-.256.064-.064-.032-.096h.064l-.032-.16v-.064l.256-.192.064-.192.128-.096v-.128l.064-.032v-.16l.0959-.032-.032-.064.064-.16.064-.064v-.192l.064.032.16-.096.032-.16-.064-.192v-.224h-.032l.064-.352-.032-.192.032-.128.096-.128-.128-.32.032-.192v-.288l-.128-.32.064-.064-.128-.224v-.257l.128-.032v-.192l-.224-.064v-.416l.032-.16v-.192l-.032-.576.064-.032-.032-.128-.1599-.192-.192-.064-.16-.16-.096-.192.064-.128-.128-.064.128-.032.032-.256.192-.224-.096-.192.032-.128-.16-.256-.16-.064-.064-.16-.128-.128v-.096l-.064-.064-.096.096-.096-.064v-.064h-.1279l-.192.032.032.128-.064-.032-.416-.512-.096-.224-.064-.064-.064-.192-.128-.256.032-.064-.1279-.256.1279-.064-.2559-.2245-.544-.4481-.256-.3201-.3839-.6081-.064-.064-.32.1921-.384.288-.128.064-.5119.096-.288-.064-.128-.128.032-.192-.224-.16-.1599-.0321-.064-.096.128-.128-.192-.16-.16-.032.032.032-.16.096v.032l-.224.128-.224-.032-.032-.032-.1599.064h-.096l-.064-.064-.096.064-.16.032-.064-.032-.096.096-.096-.032-.096.0961-.064.096-.192.096-.1279-.096-.192-.064h-.16l-.128.032-.032.064-.288-.064-.128.096h-.096l-.1279.224-.16.096-.096-.032-.16.064-.128.1281h-.064l-.288.16-.032.064-.096.032-.0959-.128v-.16l-.096-.3521.096-.096-.192-.4161.3839-.6081.096-.032v-.128l.32-.1601.096-.128.256-.192.064-.096.032-.1921-.064-.032.064-.128.096-.32-.032-.1601.1279-.192-.0959-.096-.192-.032-.128-.064h-.064l-.224-.2241-.064.0321-.032-.0961-.096.032-.064-.128-.096.032-.1919-.064-.064.096-.032-.064-.256.064-.128.1281-.192-.1921-.256-.096h-.1279l-.032-.064-.16-.032-.256-.1921-.032.0961h-.224l-.032.064.064.096-.16.16-.096.192-.16.1601v.032l-.2239.224-.16.064-.032.0961-.192.192-.032.16.064.192-.064.1601-.096.096v.064l-.096.064.096.064-.096.3201-.096.096-.032-.032-.064.096-.128-.128-.1279.096-.064-.16-.16.064-.032-.1281-.032-.192-.128.128-.032-.064-.224.1921.032.032-.224.288-.2559.064-.128.064h-.128l-.096.096-.096-.064-.128.032-.16.1281-.224.096v.096l-.3839.064-.096-.032-.224.096.032.032-.096.1281-.256-.2241-.064.064-.1279.1921-.224.224-.256.064-.096.064h-.128v.096l-.192-.096-.032-.096-.1599-.064-.096-.192v-.1601l-.256-.224-.064-.2241-.128-.16-.32-.064-.096-.064h-.2879l-.288-.16-.032.032-.16-.096-.224-.032-.096-.0961-.1919.0961h-.256l-.128-.1281-.064-.128.096-.192-.128-.128-.032.064-.064-.128-.16-.0961-.064-.128v-.16l-.224-.064h-.3199l-.256-.032-.192-.064-.16-.1281-.16-.032-.2879-.192-.064-.064-.064.064-.128-.192h-.128l-.128-.1921.064-.352-.128-.064-.032-.2561-.096-.064-.096-.192h-.096l-.064-.128.096-.4161.064-.032-.032-.064-.096-.2561-.0639-.448h.1919l.064-.032-.096-.3841-.128.064-.1599-.288.3199-.1281.224-.192-.128-.16-.032.032-.2879-.128.032-.2561-.032-.32.0639-.0961v-.128h.16l.032-.224v-.2241l-.16-.256-.2239-.128.064-.7041-.032-.096.096-.0641-.064-.096.064-.224.1279-.192-.3199-.0961.096-.352h-.128l.032-.4161h-.16l.032-.128h-.096v-.16-.1921l-.064-.064.032-.128-.192-.16-.064-.1601-.192-.128.032-.128-.3519-.256.064-.096-.224-.0961.032-.16.064-.128.096-.032.064-.3521-.224-.064.032-.096-.192-.16-.064-.2881-.16-.064v-.096l-.32-.2881.128-.32.096-.064.096-.2561-.032-.224-.16-.096-.064-.064.096-.096-.3839-.6081.0639-.1281v-.224h.064l-.032-.256.064-.0641-.096-.32.16-.096.224-.096.064-.0961.256-.224.128.032.192-.096.1279-.096h.192l.096-.096-.032-.064-.224-.1281-.064-.16-.0639-.096.0639-.032-.1279-.16.064-.1601-.224-.128.032-.064-.16-.224.032-.1281.224-.032h.2559l-.064-.16-.0639-.032v-.16l-.032-.096.0639-.2241.064-.288-.032-.096-.3519-.0961-.224-.192.096-.128-.224-.2561.032-.032-.192-.288-.064-.032-.3199.064-.128.096-.128-.16h-.192l-.096.096-.224-.096-.3199.288h-.096l-.096-.192-.352-.064-.128-.064-.096.096.064.032-.064.096-.256-.096.256-.128-.032-.2241.096-.096-.128-.192-.128-.096v-.032l-.096-.064-.0319.096-.32-.096-.352-.3521-.096-.032v-.192l.064-.1601.256-.128.128-.16.064-.3201-.16-.224-.224-.128-.064-.064-.16-.032-.128-.1281-.1279-.352.0319-.2561-.0959-.16-.096-.192-.192-.2881.032-.16-.128-.064-.16-.096-.256-.16.032-.0961-.032-.256-.224-.2881-.0639-.032-.096-.192-.128-.32-.16-.2561-.032-.032-.16-.256-.128-.1601-.192-.416-.032-.096.032-.1601.096-.032-.096-.192v-.128l-.096-.096-.1599-.0321-.8.2561-.3839.128-.192-.032-.064-.192h-.032l-.064-.1921-.096-.064-.352-.288-.16-.032-.1279.096-.192.5121.096.064-.064.224-.16.2241-.096.128-.7679.5761-.032.128-.16.128-.256.032-.192-.032-.288-.256-.7679-.4161-.096-.064h-.224l-.2559.064-.16.064-.032.096-.128.0641h-.096l-.384.16-.128.256-.064.1921-.0959.096-.128.064-.32-.128-.096-.0641-.032.0961h-.096l-.32-.2881-.1279-.064-.16.064-.032.128.064.0961-.16.192-.384.288-.096.064-.16.0961-.1279.128-.384.288-.192.096-.224.1601-.224.032-.1279.064-.096.224-.064.096-.256.2561-.256.096-.192-.032-.096-.032-.1279.032-.064-.032.0959-.096-.0639-.1281-.224-.096-.032.096-.128-.096-.096.096-.192.0641-.256.32-.3199.2561-.192.096-.096.224.064.16v.2561l.16.096.064.064v.128l.096.032.0639.2241-.0319.128-.192.096-.224.032-.064.096-.128-.064-.128.128-.128.2881-.064.192.128.2881.032.224-.096.5121.032.16-.096.192-.128.0961-.0959.128v.128l-.096.16-.128.0961-.064-.0641-.352-.064-.224.032-.128.1601.064.128v.32l.064.1281-.032.192-.2879.16-.16-.096-.096.064-.128-.128h-.032l-.096-.192-.096-.1281-.32-.5441-.2879-.32-.16.128-.224.2241-.256-.1281h-.16l-.1599.064-.16-.288-.032.032-.224-.224-.256-.2881v-.064l-.288-.3201-.1599-.384-.192-.3521-.448.16-.064.0641-.6079.096-.064.064-.32.096-.256.224-.224-.16v-.032l-.1279.064-.096-.096-.064.064-.16-.192-.224-.16-.096-.1281-.16-.064v-.064h-.16l-.1919-.128.064-.064-.128-.064-.032.064-.064-.032-.064.064-.064-.096.096-.1601-.128-.096.064-.256-.192-.096-.128-.3201-.096-.4481-.064-.064-.032-.192.096-.096-.032-.3841.032-.224-.032-.096-.128.096h-.16l-.1279-.2561-.064.064-.128-.224-.416.032-.096-.096-.16-.3521.128-.16-.096-.224-.2879.096-.064-.032.064-.096.0959-.3201.16-.384-.096-.1281-.1599-.16-.192-.064-.064-.224-.032-.032-.256-.1921-.192-.032-.224-.128-.032-.064-.1919.096-.064-.224-.192-.2241-.224-.256-.064-.192.032-.1921-.16-.064-.064.032-.128-.5441-.064-.096v-.224l-.0959-.096.1279-.1601v-.128l.064-.064-.064-.128.16-.1601-.128-.16-.096.032-.0639-.128-.064-.032-.128-.16-.256-.064-.064-.096-.128.064v.096h-.384l-.6719-.032-.28797.064-.31997-.032-.28798.032-.032-.2241-.22398-.288.032-.064-.09599-.096-.25598-.2561-.06399.1281v.16l-.25598.224-.09599.096-.19198.1281-.19199.16-1.1199.032-.15998.032-.22398-.4801-.09599-.4161-.15999-.5441-.032-.416-.06399-.4481h-.12799l-.09599-.128-.09599-.064-.064.096-.15998-.128-.032-.0961.06399-.096v-.128l-.09599-.128.032-.3521-.032-.096-.19198-.032-.06399-.128-.22398.096-.25598.128-.032-.128-.15999.064-.06399-.064-.032-.096.032-.16v-.0961l.15999-.288.12799-.064.03199-.192.064-.0321.25597-.192v-.096l.15999-.16-.032-.3841-.15998-.192-.032-.2561-.15999-.192.032-.16.032-.032.06399-.1601.09599-.096v-.288l-.06399.032-.12799-.128.032-.1601v-.16h-.15999l.032-.16.032-.032.09599-.2561h-.064l.22398-.448-.06399-.1281.032-.16-.15999-.032-.06399-.192.06399-.096-.032-.1281-.12798-.16.06399-.192.12799-.128.06399-.2241-.09599-.064.064-.096v-.064l-.15999-.16-.06399-.2241h-.064l-.19198.128-.12799.032-.19198.0641-.12799-.0961-.12799-.384.28797-.16.15999-.1281.09599-.224.06399-.064.19199-.2241.15998-.096.19199-.192-.032-.032.31997-.16.22398-.2241.032-.192.06399-.032-.06399-.192-.064-.1281.064-.096.19198-.032.12799-.064.22398-.032h.06399l.12799-.064.15999-.2561-.31997-.7041-.09599-.352-.064-.064-.19198-.3521-.032-.16v-.1601l-.19198-.352-.41596-.5441.06399-.064-.12799-.192.032-.0961-.12799-.16.032-.224-.15999-.032.09599-.1601.12799-.16-.12799-.224-.09599-.16v-.1921l-.19198-.032h-.09599l-.38397-.064-.19198-.096-.19199-.16-.28797-.1601-.31997-.256-.19198-.256-.064-.0961-.06399-.064.09599-.256-.22398-.2241-.064-.192.096-.256.22398-.096-.12799-.7042-.47996-2.4004-.25598-1.1842.064-.6401-.22398-.5121.03199-.032-.86392-1.7923.95991-.544 2.23981-1.2483 1.31188-.8001.35197-.352.54395-.2561.92792-.5761.92792-.4801.73593-.352 1.31191-.6721.9919-.6401.256-.1921.128-.16.0959-.032.32-.16.288-.096.416-.1921.0639-.096.256-.096.256-.128 1.0559-.6722 1.4719-.9601 1.3759-.9282 1.6638-1.1201.352-.2241.4479-.352.352-.2561.224-.128.288-.192.1599-.2241.128-.032.736-.5441.3519-.256.384-.3201.224-.096.32-.288.5119-.5441.064-.128.32-.1921.3199-.096.064.128.096.032.128-.064.416-.224.096-.096.5759-.3521.192-.128.096-.064.352-.2561.4479-.256.9919-.6401.256-.128.544-.3521.6079-.4161.064-.032.16-.128.224-.16.128-.096.5759-.3521.352-.256.256-.1921.1919-.128.288-.16.8319-.6081.704-.5761.096-.128.192-.1921.2559-.224.288-.16.512-.2561.16-.128v.064l.2239-.096.224-.128.32-.16.288-.2241-.192-.128.128-.064.1599.192.288-.096.128-.064.32-.128.224-.064.3199-.1281.224-.16.256-.064.352-.16.2559-.064.256-.0961.48-.288.192-.128.2559-.2241.192-.064.256-.256-.064-.128.032-.1921-.128-.256-.32-.8642-.032-.224.096-.224.736-.7682.2239-.16.672-.064.096.032 1.2159.224.16.0641.1599.224.16.6721v.096l-.096.2241.032.224.224.16.16.032.512.032.6719-.128.5759-.192.416-.128.256-.0961.352-.192.4799-.32.416-.1281.3199-.096.32-.128.48-.192.4159-.096.256-.0961.544-.128.2239-.096.8-.256h.3199l.256-.0961.256-.096.128-.096zm171.5044 81.3576.16.192.064.224.064.0961.384-.032.192.032h.256l.064-.1601-.064-.128-.16-.192-.256-.1281-.096-.192-.064-.16-.256.032-.288.32zm-.8-2.8805.096.032.16.224-.032 1.1522.192.064.224-.032.224.096.064.0961.096.096.288.224h.128v-.4161l.128-.128.064-.192.096-.096.192-.064.096-.1281.032-.256.096-.256v-.1601l.064-.096.192-.128.128-.064.128.032.16.096.096.032.192-.064.064-.128v-.2881l.064-.192.128-.128.192-.128.096-.0321.096-.224v-.3841l.032-.16.096-.16.064-.224v-.3521l.032-.4161.064-.192-.736-.288-.192-.0321-.096.2561-.064.096-.032.224-.192.2881-.352.32-.32.1601-.096.032v.16l-.16.224.032.0961-.064.16-.672.384-.16-.064-.064.1921h-.128l-.032.096-.096.032-.032.064-.352.3201-.192.096zm4.384-3.9047.128.032v-.096l-.096-.032zm-83.705-78.7011.032.032.16-.032-.032-.128-.096.032zm78.873 74.2524.8.9281.192.1601-.192.352-.256.096.032.1921.32.16.256-.288.16-.0641-.096-.224.16-.032.096-.224.192-.1281.128.0961h.064l.128.128h.096l.032-.096.384.128.032-.064.16.096.128-.096.128.064.096-.096 1.088.5761h.16l1.088-.064.352-.1281.352.0961.16.192.032-.096.192-.1921.032-.192-.128-.288-.288-.7362-.128-.16-.192-.064-.352.16-.416.096h-.256l-.16-.128-.096-.128-.224-.128-.128-.2881-.16-.128h-.192l-.096.096-.096.1601.032.192-.032.128-.128.16-.224.096-.544.0321-.544.064-.224-.1281h-.128l-.288.0961-.288-.0641-.096-.096-.064-.128-.032-.4161h-.096l-.224.2561-.128.032-.064-.096-.128.064-.128-.032-.16.032zm-.032-1.7603.128.192.32.3521.096.096.256.128.256.1921-.128.224.16.096v.064l.096-.256.064-.128.512-.4801.064-.2241-.096-.32-.128-.128-.32-.032-.288.128-.448.064h-.192z" fill="#fff" fill-rule="evenodd"/><path d="m64.4824 20.4272-.256.4161-.288.3201.16.224h.032l.224.288-.256.0641-.064.16.096.16-.128.192-.096-.096-.032-.096-.128.032-.096.032-.1599-.096-.128-.16.032-.096-.32-.1601-.032-.096-.192-.128-.192.032-.096.4161-.0959.064-.064.064-.128.032-.16-.064-.064-.064-.384-.032-.064.32-.16.2881-.096.128-.2879.032-.256-.5121-.7039.128-.128.032.128.6401.3199 1.6963.128.6401.192.9922-.032.032-1.0239.096-.32.032-1.8878.1921-.8639.064-.704.032-.2559-.032v-.064l-.544-.1921-.192-.096-.288.096-.0959-.288-.096-.6401-.192-.2561-.128-.032-.096-.096v-.128l-.096-.064-.128.128-.064.128-.096.064h-.128l-.1919-.096-.064-.288-.064-.1281-.16-.096-.288-.096-.128-.128-.3519-.5761v-.128l-.096-.096-.192-.032-.288-.0961-.128-.096-.096-.128v-.128l.032-.128.16-.032.128-.0641.064-.128-.096-.224.032-.16v-.1281l-.128-.096-.192-.128-.224-.128-.0959-.096-.192-.3521-.064-.256.096-.1601.128.032.1599-.064.352-.224h-.096l-1.1199-1.2162 1.6639-1.8563-.128-.7041-.576-.7042-.032-.544.096-.4481-.5439-1.0242h-.128l-.128.096-.256.096-.256.0961h-.3199l-.8.256-.2239.096-.544.128-.256.0961-.4159.096-.48.192-.32.128-.3199.096-.416.1281-.48.32-.3519.192-.256.0961-.416.128-.5759.192-.6719.128-.512-.032-.16-.032-.224-.16-.032-.224.096-.2241v-.096l-.16-.6721-.1599-.224-.16-.0641-1.2159-.224-.096-.032-.672.064-.2239.16-.736.7682-.096.224.032.224.32.8642.128.256-.032.1921.064.128-.256.256-.192.064-.2559.2241-.192.128-.48.288-.256.0961-.2559.064-.352.16-.256.064-.224.16-.3199.1281-.224.064-.32.128-.128.064-.288.096-.1599-.192-.128.064.192.128-.288.2241-.32.16-.224.128-.224.096v-.064l-.1599.128-.512.2561-.288.16-.2559.224-.192.1921-.096.128-.704.5761-.8319.6081-.288.16-.1919.128-.256.1921-.352.256-.5759.3521-.128.096-.224.16-.16.128-.064.032-.6079.4161-.544.3521-.256.128-.9919.6401-.4479.256-.352.2561-.096.064-.192.128-.5759.3521-.096.096-.416.224-.128.064-.096-.032-.064-.128-.3199.096-.32.1921-.064.128-.5119.5441-.32.288-.224.096-.384.3201-.3519.256-.736.5441-.128.032-.1599.2241-.288.192-.224.128-.352.2561-.4479.352-.352.2241-1.6638 1.1201-1.3759.9282-1.4719.9602-1.0559.6721-.256.128-.256.096-.0639.096-.416.192-.288.0961-.32.16-.0959.032-.128.16-.256.1921-.9919.6401-1.31191.6721-.73593.352-.92792.4801-.92792.5761-.54395.2561-.35197.352-1.31188.8001-2.23981 1.2483-.95991.544.86392 1.7923-.03199.032.22398.5121-.064.6401.25598 1.1842m62.23451-25.1882.128.032-.064.0961 1.3118.6401.384.192.032.16m0 0 .128.1601.256-.0641.8959.4801m0 0 .032.032.16-.064.064-.128h.8319l.224.128.8959.5441.064.256m0 0 .288-.064.4479.064.192.2881.032.128.7359.2561.256.096.32.064m0 0h.128m0 0 .096.032.032-.096.224-.064h.2559l.224.096 1.2799.288.032-.096.192.096.4159.7362.416.192.224-.2241.032-.192.288.16m0 0 .4479.3841.608.224-.384.9922-.064 1.8883.096.7361-.032.2561.128.224h.128l.224.096.1279.1921.352.064-.064-.2881h.128v.064m0 0 .256-.032.6719.3521h.192l.064-.032.096.032.4479-.256.096-.1921.16.032.224.1281.192-.0641.256.1281.16-.1601m0 0 .2239.2241h.224l.16-.1601m0 0 .288-.192m0 0 .128-.128.6399-.3841m0 0 .224-.128.32-.16.2559.384m0 0-.1919.5121m0 0h-.032m0 0-.384.3201-.32.224m0 0 .128.1921.192.128.096.128.032.128.064.1921.128-.0961m0 0h.064m0 0 .3199-.224.288.16m0 0 .096-.096.256-.128.3839-.128.192-.2561.128-.032.128.064-.032-.192-.128-.4801.16-.032.032-.192.384-.032.2239-.2881.256.5441.16.2561.416-.1601-.032-.096.2559-.096h.224l.16-.096.32.096.064-.032.032-.192.096-.1281.032-.128h.064l.064-.064-.032-.192.064-.096.4479-.064.224-.0321m0 0h.128l.128-.096.096-.256.064-.096.2239-.4161.128.064.256-.288.448-.1601v-.128l.1919-.16.512-.3201.192-.096.064.064.3199-.064.16.1921.064.16m0 0 .16-.096h.128l.192-.064.16-.1281.096-.096.064.096.1279.2881.032.032.896-.16.1919-.0641.224-.096.128-.288.448-.2561-.032-.064.224-.064.2239-.16.032-.032.736-.5441v-.096h.16l3.2317-2.3364.7999-.6081.384-.2561 1.7597-2.2403 2.848-3.6806-.928-.5761-.288-.4801-.128-.3521-.128-.5441 3.616-.224m0 0 1.76-.096h.511l1.216-.032.32 1.5682.096.3841.128-.032.32-.096.128.064.928.096.096.032.032.064.096-.064.544.192m0 0 .32-.032.032.064.288-.096.288-.032.32-.128.256-.16.992-.5441.128-.096.576.128-.032-.096m0 0-.064-.2241-.128-.224-.16-.16.384-.3841-.704-.9281-.8-1.0882-.928-1.1842-.48-1.28023.384-.32006.032.03201.064-.32006.224.06401-.064-.28804.032-.19204-.128.03201v-.12802l.288.09601.096-.35205-.192-.03201-.032-.25604.032-.16003.096-.09601-.032-.12803-.288-.41607-.256.09602-.064.03201-.448-.16003.032-.09602.096-.06401.064-.19203.128.09602 1.056-.5761.832-.44807m0 0 1.632-.86415.864-.09601.48-.12803.128-.09601.032-.09602.256-.32005.128-.09602m0 0 .192-.09601h.224l.384.09601.991-.16002m0 0 .288-.06401 1.856-.28805.608.89615-.576 1.2162m0 0-.16.32005m0 0-.192.38407m0 0-.192.41607.128 1.05617m0 0 .032.12802m0 0 .032.22404m0 0 .032.38407m0 0v.032m0 0 .064.28805m0 0 .064.44807 1.824-.73612.544-.22404.448.09602.032.06401m0 0h.352v.03201l.928.16002m0 0 1.6.32006.256.09601.192.19203.256.09602.128-.06401m0 0 .128-.03201m0 0 .064-.032.128-.16003m0 0 .096-.12802m0 0 .096-.03201.096.09602.16.06401h.192l.32-.09601.32-.03201-.128-1.2162m0 0-.064-.38407m0 0v-.16002l.863-.48008.096-.03201.224-.16003.416-.032.096-.19203m0 0 .256-.5761m0 0 .032-.06401m0 0v-.06401l.224-.35206.064-.09601-.064-.06402v-.09601l.832-.16003m0 0-.032-.22404.128-.12802m0 0 .128-.12802.544-.99216.032-.03201 1.024-.51208v-.12803l.16-.35205.032-.09602-.064-.12802.224-.32005.16-.06402.192.03201m0 0 .096-.22404.832-.25604.448.09602m0 0v.16002l.096.12802.064.16003.096-.032.064.09601h.128l.096.03201.16.032.064-.12802.064-.032.128.032.064-.032.256.22403h.192l.288.16003.224.032.192.16003.096.28805-.064.19203.192.28805.032.28805.224.09601.32.03201.32-.03201.16.03201.256.09601-.096.22404-.032.5761-.096.12802-.064.22404-.064.76812.128-.032.352.22404-.16.22403-.224.06401-.16-.25604-.096.12802-.128.32006-.096.12802v.06401l-.096.09601v.06402l-.288.19203.128 1.24821h-.032v.12802l.224 1.05617-.032.16003h.064l.064.09602.224.06401.032-.06401.192.032.032-.09602.192-.06401-.128.25605-.16.25604-.064-.03201.064-.12802-.096-.032-.032.06401-.096-.06401.032-.06401-.224-.09602-.192-.032m0 0 .032-.09602-.16-.09602-.192.06401-.064-.12802-.16-.09601-.096-.09602-.064.06401-.128-.12802-.096.03201-.192-.03201-.096-.19203m0 0-.064-.03201-.096.09602-.16-.06401-.064-.06401-.096.06401-.096-.06401-.064.06401-.064-.03201h-.128l-.096-.09601h-.128l-.096-.22404-.064-.06401-.16.032m0 0h-.192l-.192.06401h-.224l-.32.16003-.064-.06401-.064.03201.128.12802v.16002h.032v.19204l.064.06401-.064.09601.096.06401-.128.16003v.25604l.128.22404h.064v.12802l-.064.03201.16.12802.096-.03201h.16l.16.19202.128.096.224.032.064.1281.128.032.16-.1601.064.0961m0 0v.032l.256-.0961m0 0 .384-.096 1.376-.22401.8-.09602.416.16003.064-.03201.096.06401.064-.16002h.128l.064.09601.096-.032.128.09601.192-.06401v.19201l.032.096h.128m0 0 .223.032.064.0961.064-.1281-.096-.032-.032-.064.16-.16h.096l.064-.06401h.096l.032-.09602.256-.06401.032.12802.096-.032.096-.12802.064.032m0 0 .032-.12802h.192l-.032.12802.064.03201.16-.06401.096.032.224.22404.128.064m0 0 .032.064.064-.064m0 0-.064-.09601.128-.06401.032-.06401.192.09602-.032.09601h-.128l-.032.192.16.032.032-.096m0 0 .032-.064m0 0 .032-.032m0 0 .032.032-.064.192h.128l.032.0961.224.16-.064.256.096.1601v.096l.448.16-.096.16.128.064.288-.032.096.1601h-.32m0 0h-.096l-.16.16h-.096l.448.16.064-.032m0 0 .352-.16-.16-.096m0 0-.032-.2241.192-.096.064.3841v-.032l1.024-1.2162 1.056-1.31225.096-.06401m0 0 .416-.38407m0 0 .512-.41606m0 0 .512-.41607m0 0 .48-.41607m0 0 .128-.06401.16-.25605.16-.06401.096-.09601-.032-.06401.032-.38407v-.16002m0 0 .064-.09602.064.032.064-.09601.064-.03201.064-.12802.032-.19203-.064-.12802.032-.06401v-.16003m0 0-.096-.25604h-.064l-.032-.22404.032-.22404.192-.54409.32-.25604m0 0 .032-.032m0 0 .096-.16003.16-.32005.096-.16003.16-.12802.128-.06401m0 0 .16-.12802.128-.06402.064-.12802h.352l.096.06401-.096.5761.032.06401-.096.06401.128.19203.032-.032.288.48008.032.16002h1.631l.224-.032m0 0 .16-.03201.128.38407.832 2.01633.608 1.53626-.576.89615-.16.25604-1.312 2.52841 1.792 2.0163m0 0 .992 1.1522.16.5121.32.4481.416.4161.096 1.4402.064 1.6323.864.224.864.2561.64-.5121.256-.128.8-.2881.384-.032.224-.224.64.416.16.1281 1.727 1.1521-.16.6402-.479 1.8243-.32 1.1201.703.6722 1.536-.5441 2.016.5441 1.184-.2241m0 0 .864.032m0 0 .384.032.224-.128.16-.224m0 0 .032-.2241m0 0 .128-.224.064-.16-.032-.096m0 0v-.1281m0 0 .032-.064m0 0 3.04.8642 1.28.448.511-.6721.448-.6721.192-.032.128.064.16-.384.064-.2241 1.376-.224.32-.3521.416-.32.064-.3521.096-.192.224-.16v-.1601l.288.032.864.2561.832.192.192.5761.608.7361.736.8322.224.192.64.4161.064.032.064.224-.032.16h.064l-.032.2561h-.032l-.032.256h.064l-.096.2881.064.16m0 0v.256l-.096.2561v.288l.224 1.4083.064.6401.032.128.352.128.48.192 3.807 1.5683.576.2561.384.224.096.352-.256.0641.48.8321.192-.096.192-.032.32.064h.192l.224.096.032.192m0 0 .064-.032m0 0 .16-.064.032-.096.128.064.224-.096m0 0 .064-.064h.096l.16.192m0 0 .192.096.064-.128.096.032.224-.032v.128l.384.064.096.1601.32-.3201.288-.096h.128m0 0 .032-.032.288-.064h.16l.032.064.224-.032v-.096h.32l.064.128v-.16l.352-.2881.192.064.256.2561m0 0 .224.064-.064.096.704.096.576.4801-.16.3841-.064.128.032.064.352.064.032.032-.192.096h-.064l-.224.128-.128-.032m0 0-.032.0641.032.48.192-.032.064.032v-.128h.128l.032.224.064.0641.096-.0961v.3841l-.192.16.064.032-.16.2561.128.032.064.32.32-.128m0 0 .064-.032m0 0 .064-.032.064-.16.128-.064m0 0 .287-.1601m0 0v-.032m0 0h.224m0 0h.032m0 0 .064-.032m0 0 .256-.16-.032-.128.16-.192.16.064m0 0h.032m0 0 .224.192m0 0 .128.128.064-.032v-.192l.064-.064v-.096l.416-.3521.096-.128.192.16v.032m0 0 .064.16h.096l.224.2881-.064.192.16.064.032.096.16.032m0 0-.064.1281-.064.224.064.032m0 0 .192.096.16.1601.16.192h.096l.096.096.416.288-.256.1601-.16.064-.192.16-.096.128-.032.1921.032.192-.128.32-.128.1281h-.416l-.256.032-.256.096-.256.256-.128.2241-.032.064-.224.288-.096.032-.16.1921-.096.352-.032.1921.032.16.096.16.192.16.192.032.448-.064.16.032.16.0961.192.16.096.16v.2561l-.064.352-.096.16-.256.2241-.16.096h-.096l-.48-.2881-.224-.064-.16-.032-.192.032-.16.096-.224.1601-.16.192-.064.16.032.1921.096.16.096.032.288.3521.064.256v.16l-.032.096-.288.1921-.128.128-.032.16.096.16v.1921l.096.16.064.256v.1921l-.128.224-.16.064-.192.032-.159-.032-.16-.064-.288-.224-.32-.096h-.192l-.128.128-.064.16.032.096.032.2561-.032.448-.064.2561-.288.6401-.16.192-.064.1601-.192.192-.096.32.032.1281.16.224h.096l.32.064.288.16.128.1601.096.256-.032.256-.224.2561-.032.096-.192.2881-.096.16-.064.256.032.2561.064.256.032.4481-.192.32-.448.3841-.128.224v.1281l-.16.192-.064.256-.096.1601-.192.192-.096.032-.32.032-.096.032-.128.16-.064.3521-.128.224-.064.032-.224.1601-.16.32-.096.032-.256.3841v.256l.128.2561.128.096.224.096h.192l.192-.032.288-.192.064-.1921.128-.128.16-.096h.096l.256.096.128.096.224.1921.128.224.064.256-.096.1921-.128.096-.256.032-.288.192-.064.096.032.0961v.192l-.128.224m0 0v.1921l-.192.384-.192.1921-.064.032-.256.256-.064.16-.064.064-.16.2241-.064.16-.064.256.096.5121-.032.2561-.128.256-.128.128-.224.1281-.256-.0641-.256-.224-.064-.064-.192-.032-.16.032-.256.064-.192.224-.032.2561.064.096.032.2561-.032.192-.064.256-.192.3841-.32.192-.128.096-.16.1921-.224.5121.032.288-.192-.064h-.256l-.16-.064-.064.096m0 0-.096.064m0 0h-.032m0 0-.128.096-.16.032-.032.1281-.16.128-.128-.064-.192.256-.096-.096-.192.16-.032-.032-.224.224.224.2241.096.064-.128.128-.352.2881.16.096-.096.128m0 0v.032m0 0 .064.096-.096.128.096.032-.128.1281.128.064-.192.288.064.1281.064.224-.128.064.032.16m0 0h-.128l.032.128.16.3201-.064.032m0 0 .064.064m0 0 .032.064-.032.064.192.1281-.096.16.192.128.064.128.032.1921.096-.0641.096.1921-.064.192-.032.128-.064.1601.032.032.16-.096.16.224m0 0 .096.064m0 0v.16m0 0-.032.032m0 0-.096.1281.064.032-.064.064.096.096m0 0 .192.064.192.032.128.096h.16l.064.064v-.128h.096l.064.064.128.032.032.096m0 0 .256-.064m0 0h.064v.128l.064.0641.064.224.16-.096.288.128.064.032.16-.064.128.064v1.0882l.032.352.032.2241.192.7041.064.3521v.352l-.096.4161-.128.256-.32.5121-.288.3521-.16.224-.032.128v.2241h.16m0 0h.032m0 0h.16l.032.16m0 0v.032l.416.096.064-.032m0 0 .192-.064m0 0 .224-.288m0 0 .16.032m0 0h.064l.128-.1281m0 0 .096-.032v-.064m0 0h.064m0 0 .032-.032.096.064.128.032.224-.32.064-.128.128.096-.032.096.128.096m0 0v.064l.128.16.256.0961v.096l.288-.032.256.064.128-.4161h-.064m0 0 .064-.096-.064-.064.16-.3841.128-.128-.032-.064.16-.16.16-.1281.128-.16.032.032.128-.192.064.032.192-.3201.032.032.192-.224m0 0 .192-.224.416-.032.064-.032.224.032-.032.064.064.256.096.5121.128.2881h.032l.16.384.224-.064.287-.224.416.6721m0 0 .448.6721.128.032.288-.032.352-.192.16-.032.224-.0321.256.0321.192-.1921.256-.256.096-.064.352-.1281.032.2881.128.4161.032.256.032.192m0 0 .192-.352.512-.4801.192-.16.256-.096m0 0 .096-.032m0 0h.096l.32-.0641.608-.448.192.448.032.3521v.192l-.032.2881.032.096m0 0 .128.064.256.16.064.0961.256.128.128-.1921-.032-.032.096-.128.224-.064.032.128.096-.096.192-.032.032.128.064-.032-.032.2561.032.16m0 0h.064l.384-.16m0 0 .512-.4801.128.032.192-.032.16-.096.096.032.224-.064.128-.1601.096.032.224-.096.096.064.288-.192.16-.064.032.096.288.064m0 0 .224.032.224.096.128.1601-.064.256.127.096.16-.032.256.16.096-.032.384.032h.16l.224-.096.128.096.192-.096.096.032.608-.128h.288l.128.064.032.096.448.2881-.096.224.064.032.096-.224.64.4481-.064.288.096.192-.096.2881-.128.128-.192.2561.032.128-.096.096.064.16v.128l-.064.0961.064.16.096.064h.128l-.032.064-.032.3841.16.16.128-.032.032-.2881.16-.6721.32.2561.704.224.704.2561.544-.032h.352l.224-.1601.192.2561.192-.2561.16-.032.544.032.064-.064.256.128.096.1281.128.096.192.256h-.032l.064.192v.0961l.16.32.032.16-.128.1921.512.7041.096.128v.2241l.128.128.256.128-.032.128.128.192.096.0321.064.128-.096.16.16.4161-.032.096.256.224.064.1601.448.256v.128l.128.128.191.064.033.1281-.064.064.191.6081.064.128.384-.064h.16l.48-.064.224-.096.096-.032.32.064.128.128.064.32m0 0-.032.2241-.448.416-.128.1281v.096l-.128.224m.736-1.0882-.064.2241-.512.4801-.064.128-.096.256m.736-1.0882-.096-.32-.128-.128-.32-.032-.288.128-.448.064h-.192l-.352.032.128.192.32.3521.096.096.256.128.256.1921-.128.224.16.096v.064m0 0-.032.1601.064.384.128.16.128.0641.16.032m0 0 .224-.0961.192-.032.192.0961.16.032.416-.032m-1.184.032.288-.0961h.128l.224.1281.544-.064m-1.184.032-.288-.0641-.096-.096-.064-.128-.032-.4161h-.096l-.224.2561-.128.032-.064-.096-.128.064-.128-.032-.16.032-.096.064.8.9281.192.1601-.192.352-.256.096.032.1921.32.16.256-.288.16-.0641-.096-.224.16-.032.096-.224.192-.1281.128.0961h.064l.128.128h.096l.032-.096.384.128.032-.064.16.096.128-.096.128.064.096-.096 1.088.5761h.16l1.088-.064.352-.1281.352.0961.16.192m-3.552-1.4082.352-.0321.256-.032.16-.096.096-.096.032-.16v-.2561l.064-.096.192-.128h.128l.16.128.096.2241.096.096.128.064.224.256.096.032.192.032.448-.128.288-.096.192-.032.128.096.064.064.128.3841.096.16.192.5121v.224l-.192.1921-.064.096m-3.552-1.4082.544-.0321.224-.096.128-.16.032-.128-.032-.192.096-.1601.096-.096h.192l.16.128.128.2881.224.128.096.128.16.128h.256l.416-.096.352-.16.192.064.128.16.288.7362.128.288-.032.192-.192.1921-.032.096m0 0v.4161l-.032.16-.032.16-.352.5441-.16.192-.384.3201-.16.064-.16.128-.064.16.128.4481-.096.2561-.224.352-.096.16-.128.3521-.032.128-.064.4161m0 0 .032.288-.064.2881-.096.16-.032.2881.032.16-.064.256-.128.1281-.352.256-.064.128v.3201l-.064.16-.128.064h-.16l-.256-.16-.192.064-.192.16-.096.3841-.064.064m1.888-3.0085v.3521l-.064.224-.096.16-.032.16v.3841l-.096.224-.096.0321-.192.128-.128.128-.064.192v.2881l-.064.128-.192.064-.096-.032-.16-.096-.128-.032-.128.064-.192.128-.064.096v.1601l-.096.256m1.888-3.0085.032-.4161.064-.192-.736-.2881-.192-.032-.096.2561-.064.096-.032.224-.192.2881-.352.32-.32.1601-.096.032v.16l-.16.224.032.0961-.064.16-.672.384-.16-.064-.064.1921h-.128l-.032.096-.096.032-.032.064-.352.32-.192.0961-.032.128.096.032.16.224-.032 1.1522.192.064.224-.032.224.096.064.0961.096.096.288.224h.128v-.4161l.128-.128.064-.192.096-.096.192-.064.096-.1281m.032-.256-.032.256m0 0-.096.1601-.192.064-.096.128-.192.4161.032.352-.096.1921v.192l.064.224.064.096.256.1281.192.224.032.16-.032.1921.128.288.256.16-.224.0961.064.16.16-.032.032.128.192.3841.032.096.16.128.032.128.16.2881-.032.128-.128.096.096.096.192.2561.128.096.192-.3201.192-.032.096-.064h.192l.224-.096.256-.192.224-.1601.128-.032.096.064.064.1601v.16l.064.032h.192l.192.064.064-.064.224-.3201.192-.192.32.192.192-.064h.224l.032.096.128.2881.064.032.608.096.16.032.096-.096.192-.064.384-.224.32.224v.16l.16.128.352.2241h.224l.288.096.096.064.128.2881h.128l.256-.032.288.032h.128l.159.064-.064.128-.095.032-.256.224-.128.064-.032.0961v.192l.032.2245-.064.192-.192.16.032.192.064.064.16.032.128.288-.096.352-.096.16.032.128.128.096.16.192.128.064.127.128.448.064.16.128.16.096.544-.16.16.32.064.192.128.832v.192l-.096.736-.128.16v.16l-.16.352-.256.448.032.257.16.736-.032.096-.256.704-.288.288-.16.224-.032.096v.224l-.032.16-.128.128-.479.416-.224.448v.096l.255.096.224.256.16.224h.128l.288.192.192.352.192.288.032.192.128.16-.16.224.064.064.128-.096.032.096h.16l.096.096.096.16.032-.064.16.225.096.032.128-.096.096.096-.032.032.032.128.096.064.064-.096.128.128.544.48.128.192-.032.48.064.096.32.064.096.128-.064.64-.096.512-.096.032-.416.096-.448.096-.416-.096-.096.128.032.16h-.16l-.192.128.064.096-.128.064.096.096-.096.128-.288.128-.16-.128h-.064l-.288-.128v.128l-.16.128.032.16-.096-.032.064.064-.032.064.096.064.064.128.16.192-.256-.096-.16-.224-.16-.096-.192-.064-.096-.192-.064-.224-.159.032-.32-.096.128-.128-.064-.128-.416.192.064-.16-.128-.064-.064-.192h.096l-.064-.256-.16.064-.192-.16-.288.32-.128.064-.16.128-.032-.096.032-.096-.064-.032-.064.064-.16-.096-.416.16-.032.224.128.16-.064.224.064.128h.064v.128l-.128.032v.096h-.16l-.064-.064h-.16l-.128.128h-.128l-.032.128.064.032-.064.192.16.096-.096.192-.128.096.064.128-.064.128-.224.096.096.064-.064.128h-.096v.064h-.096l-.16.064.032.128.128.225-.16.064h.096l.032.096-.128.096v.064l-.064.256.128.192.128.032.064.096.128.224-.064.224-.128.16-.16.032-.256.288-.064.192-.128.16-.032.128-.096.032-.032-.096-.256-.064-.064.064h-.096l-.16.192-.16-.032-.16.032-.064-.064-.096-.192-.096.032-.128.128-.128.128-.352.16-.096.032v.064l-.512.032.096-.096h-.16l-.256.224-.352.16-.16-.032-.064.16-.096.064-.16.192-.064-.032.096-.128-.192-.064-.096.192-.16.192-.16-.064-.096.128-.128.096.096.16-.128.128.032.128-.224.384-.064.256-.288.288-.256.032-.352-.096-.32.096-.064.064-.192.032-.064.16-.096.032v.192l.064.064.16.224-.064.257-.224.128-.16-.032-.128.032-.096.224.032.256.256.032.096.032.224.192.096.032.032.192.192.224.096.416.128.16.224.064-.128.096-.096.16.064.128-.064.256.064.32-.064.128-.064.16.064.032.096.224.192.16v.16l-.224.192.352.192-.224.224-.256.128-.224.032-.128-.16v-.064l-.064.16-.16-.064-.256.064h-.096l-.064-.096-.352.192v.16l-.063.128-.064.288-.256-.032-.192-.416-.16-.096-.192-.032-.064.096-.096.288.064.128.128.096.032.096-.192.064h-.256l-.064.16.128.257.192.16.064.032.032.16.096.096-.224.384-.16.096-.16.032-.384-.032-.032.064v.128l.16.192.256.096.096.096v.128h.096l.064-.096.32-.256.128.096.16.064-.032.256.064.416.064.128-.16.128-.064.128-.032.128-.192.192-.544.096v.288l-.032.16m0 0-.16-.032-.128.064-.16-.064-.096-.16-.128-.192-.16-.064-.224-.16h-.416l-.096.032m0 0v-.192l.096-.192.032-.192.064-.224.096-.032.064-.256.288-.192.192-.064-.128-.128-.192-.064-.128-.128-.032-.128-.16-.032v-.128l.096-.128.032-.128.192-.256-.032-.128-.32-.225-.736-.48h-.128l-.16.096-.192.032-.352-.128-.128-.096-.128-.032-.32.128.032.16-.064.064.096.481v.192l-.064.096-.064.192.032.16-.32-.096h-.128l-.096.096-.064.096-.288.192-.416-.064-.448-.256-.256-.096-.512-.256-.32-.256-.16-.257.032-.48-.096-.384-.096-.192-.064-.256-.064-.288-.16.032-.224.096-.096.064-.224.16-.224.064-.384.192-.192.064-.64.032-1.119.032-.16.192h-.192l-.096.032.032.128v.609l-.032.096-.128.288h.096l.064.256.16.256-.096.16-.16.032-.256.192.032.096.128.064-.064.192.064.256.032.224-.192.352.096.448.096.256-.128.032h-.288l-.032.096-.256.096h-.352l-.32.128-.096.096h-.192l-.288.064-.224.16-.256.128-.256.16-.192-.032-.192.096-.096.16-.352.16-.192.128-.128.224-.192.128v.288.384l-.064.192.032.161-.16.192-.096.224-.064.128-.064.224-.096.256v.16l.032.256v.448.192l-.064.128-.256.128-.192.032-.416.16-.256.128v.128l-.128.128-.224.128-.096.032-.128.224-.096.256v.224l-.128.16-.032.096.128.128.064.256.192.032.032-.064.32.384.064.096.16.384-.16.064.064.16-.32.128-.064.128.064.16-.256.129-.16.16v.096l.096.064-.032.128.128.224.032.192-.416.128.032.096-.128.032.064.32-.128.032-.256.16-.16.128h-.064l-.096.096-.032-.064-.128-.032-.064.064-.224.032-.064.032.032.064-.224.16.032.064h-.128l-.032.096-.096-.096h-.096l-.064.096-.064-.032-.192.128.064.16h-.032l.096.32.064.192-.096.064.064.128v.192l-.064.096.064.128.128.224.224.128.128.16.192.32.256-.064.192.192-.032.032-.032.416.032.032-.064.192-.16.32-.128.032-.096.192-.096.032h-.16l-.096.129-.128-.065-.256.161-.032.16-.16-.064h-.224l-.16.192.032.064-.096.224.096.16-.032.16-.256.192-.128-.096-.256.032-.16-.128-.096-.128-.288.16.033.16-.033.032-.319.064-.064-.032-.256-.128-.32.192.128.288-.224.128.064.128.032.192-.192.128-.096.192.064.32.064-.032.032.16-.096.032.128.288.096.352h-.128l-.032.096h-.128l-.032.352.064.128-.288.032h-.128l.032.064-.064.096.064.064-.064.16.064.096-.064.16.064.032-.192.096.032.16v.16l-.096.224.224.16-.032.032-.64.32-.32.257-.096.16.032.128-.16.096-.256.096.032.192-.16.096-.096.192.032.096-.064.096.16.096.096.096h.16l.224.096.096.16.16.096h.224l.192.192h.16l.224.096.192.032.032.064.16.032.032-.032.064.192.064.064.32.064v.16l.064.096.256.224.032.128-.064.16-.16-.128-.128.128.064.064.32.192-.064.096-.192-.032-.16.032-.192.448-.032-.032-.096-.352-.128-.096h-.064l-.032.16-.16.128h-.16l-.256-.32-.16-.032-.128.096v.064l-.096.224.064.096.16.096.032.16-.128.288.064.16.096.16.192.16v.096l-.192.032-.16-.064-.192.16-.096.032-.128-.032-.096.064-.032.128.096.096.128.032.32-.032.224.224v.289l-.096.064-.16.064-.096-.032-.064-.192-.16.032-.032.096v.32l.128.16-.032.128-.128.096-.288-.096-.128.064-.096.224.032.032-.032.224.288.224.096.288.032.192.128.16-.032.128-.256.192.032.16.128.352.064.032.224.032v.096l-.064.192.032.256-.032.032.064.288.128.832.032.032-.032.32h.064l.064.16.384-.128.288-.032.256-.096.064.096.128-.096.16-.032.32.224.192-.256.032-.128.192-.032.128.096.159.48-.064.16v.16l.16.224.16.161.064.128.064.32.032.064.256.128.192.416.064.32.064.288h.096l.288.288.064.416.064.288v.096l.192.064-.032.16.16.192h.064l.224-.064.16.064.128.224-.128.352.128.16-.16.096-.16.128.064.192-.032.032.032.32-.064.064-.128.064.128.288-.032.064v.128l-.16.096.128.224.32-.096.192.064v-.032l.192.032v.096l.192.128h.224l.192-.16.192-.096.192-.032.352-.256.096.096.224-.064.096.096.224.224v.192l.288-.032v.129l.096.224-.16.064.064.16.16.096.224.16.224.256.096.096-.256.288-.288.48-.288.224-.096.032-.128.32-.16.064-.064.128.064.064-.096.192-.096.16.064.096-.128.288.032.128-.064.192.032.128.16.32.128.096h.16l.224.192h.256l.288.128-.032.128h.192l-.032.16.16.064v-.16l.16-.064v.064l.128.224v.064l.096.032.032-.128.096-.096.128.224.128.032.032-.128.064-.064.096.096-.096.064v.192h.128l.128-.128h.16l.128.288-.16.032-.192.096.032.064-.128.288.128.257-.128.096-.064.192.032.032-.032.224.032.192-.032.096.128.032v.32l.064.192.16.096-.096.064-.192.224-.256.16-.064-.128-.16-.064h-.192l-.16.096-.16.032-.032.096-.16.096-.064.192.192.192.064.16-.16.096-.192.16-.256.352-.064.16v.32l-.032.096.096.128.032.096-.096.096.064.256-.256.16-.16.096-.256.032-.064.096-.32.256-.224.16-.256.096-.16.096-.064.16.032.16v.064l.032.321.096.192-.032.128h.192l.224.064.16.032.16-.096.128.032.128-.16h-.032l.128-.128.064.096.064-.064.096.128v.16l.096.192-.032.096-.16.032-.256.224.192.064h.192l-.064.192-.064.096.16.128v.096l-.32.128-.256.224-.128-.032-.032.096.032.256-.064.064-.288.032-.096.096-.096-.032-.064.16-.192.128-.096.032-.064.096h-.16l.192.192.032.256-.16.096v.064h-.096v.128l-.256.032-.128.032-.288.16-.192.064-.096-.192-.128.064-.096.16-.16.032v.16l-.096.128-.096-.096-.064-.096-.128.096h-.064l-.128-.192-.16-.128-.224.096-.192.032-.224-.128h-.096l-.224-.096v-.064l-.159-.16-.16-.16-.096-.16-.224-.096-.032-.128-.128.128-.096-.128-.064-.224-.128-.096h-.192l-.352.16-.16.064-.16-.096-.096.064.096.288-.224.096.032.096-.032.192.064.096v.128l.032.128v.16l-.128.256.128.288-.352.096-.096.16-.16.064-.384.032-.192.032-.032-.192-.16-.256-.192-.064.128-.128-.48.16-.032-.064-.096.032-.096.16.064.096-.192.16-.096.032-.064-.064-.16.096-.096-.16-.384.192-.032-.096h-.096v.096l-.288-.096-.096-.16.032-.096h-.128l-.096-.064h-.064l-.032-.096-.224-.096v-.096l-.576.096.064-.256-.16-.096h-.224-.16l-.224.064-.096-.192-.128-.128-.096-.128-.064.064-.128-.096-.128.128-.128.096h-.128l-.192.064-.032-.096-.16.032v.096l-.352-.032.064.32-.128.032-.192.128-.288.096.032.128-.192.064.032.16.096.064-.192.064-.192.16-.288.288-.128.16-.256.513.192.192.096.192v.128l.064.192v.064l-.192.416-.064.032-.128.224-.128.224-.064.192-.064.128-.352-.16-.095-.096.032-.192-.064-.032.032-.096-.16-.128.064-.192-.096-.192-.224-.224-.192-.192-.192-.096-.128.128-.192-.128-.16-.064-.16-.096-.416-.16-.128-.128-.288.032-.128.192-.224-.096.032-.096-.288-.161-.16.097-.256.16-.256.288-.064.32v.096l-.032.16-.16.192-.352.032-.128.16-.224.096-.768.288-.32.064-.736.16-.672-.128-.192.064h-.096v.096l-.096.032-.096.16v.192l-.064.16-.32.288-.16.032-.192-.096-.192-.064.064-.16-.096-.096v-.352l.064-.32-.064-.064-.192-.064v-.096l-.192-.064-.128-.128-.032.096-.096-.064v-.16l-.288-.128.032-.064-.128-.032-.032-.096.224-.096.064.032.064-.096h.064l.096-.064.064-.192.096-.032.096-.16.128-.128.32-.032-.128-.577v-.16h.064v-.16l-.032-.32-.32-.192-.064-.032-.16-.192-.096-.064-.224-.192-.16-.192-.096-.032-.192-.128-.128-.064-.032-.16.224-.064.16-.096.032-.256.16-.256.128-.256.064-.096.192-.352h-.544l-.288-.032-.352-.224-.096-.48-.096-.256-.096-.384-.224-.576-.032-.224.128-.192-.16-.321-.192-.256-.16-.064-.255-.064-.288-.576-.16-.224-.16-.096-.224-.032h-.16l-.064-.096-.16-.416v-.064l-.256-.096-.032-.064-.192-.064-.224-.032v-.064l-.256-.032-.096-.064-.128-.096-.096-.032-.128-.16h-.096l-.224.064-.16-.064-.224.032-.032-.192-.096-.096-.32-.16-.096-.064-.064-.192-.096-.032-.288-.032-.064.16-.064.064-.096.288v.096l-.032.128.032.128-.064.16-.16.192h-.128l.16.16-.224.096-.224-.032-.16-.096-.288.064-.128.096-.096.128-.096-.096-.128.032-.032.096-.256.256-.096-.096-.032-.416-.032-.224-.192-.192-.064-.224-.128-.128.064-.128-.032-.192v-.224l.16-.352.064-.128v-.128l.224-.192.064-.192.096-.032.128-.256.096-.064-.032-.16.224-.128.192-.192.096-.032.352-.256-.032-.16-.096-.128-.096-.225-.16-.096-.448-.512-.128-.064-.064-.16h-.064l-.064-.128-.16-.096-.128-.256-.256-.096-.096-.032-.032-.096-.192-.064-.064-.096-.16-.032-.128-.064-.064-.16-.128-.096-.032-.096-.192-.096-.16-.192v-.16h-.16v-.096l-.032-.224-.288-.288-.256-.192-.224-.224-.128.032-.128.128-.48.096-.288.384-.064.128-.224.192-.256.096.032-.352-.128-.064h-.288l-.159-.128-.128-.032-.192.032-.16.096-.16.064-.096.096-.192.064-.128-.064-.128-.224-.16-.128v-.064l-.16-.224-.192-.096-.192.192-.128.16-.288.064.032-.16-.128-.096h-.16l-.256.096-.416-.096-.096.064-.16-.032-.16.096-.192-.032-.256.064-.128-.064.064-.192-.032-.224-.064-.224.064-.192.032-.224.096-.256-.064-.224.032-.16-.192-.128-.064-.192-.192-.16-.288-.16h-.064l-.096.096-.032.192-.224.352-.224.224-.064-.064v-.128l-.096-.224h-.256l-.16.064-.224-.064-.128.032-.16.064.032-.128-.032-.224-.096-.096-.064.032.032-.417.096-.512-.16-.224-.064-.256-.16-.32v-.288l-.16-.192-.064-.16-.128-.192-.16-.32-.16-.224-.224-.256-.064-.16-.512-.704v-.128l-.256-.128-.16-.16-.16.288-.128.064h-.288l-.192.064-.192.096-.128-.064-.416-.064-.032-.288-.064-.16h-.128l-.384-.128-.096-.096-.191-.096-.16.032-.224-.064-.192-.096h-.128l-.128-.128-.288-.192-.224-.064-.224-.128-.16-.096-.32-.16-.16-.128-.192-.064-.096-.128-.032-.161.032-.224-.192-.16v-.064l-.128-.192-.032-.16-.16-.064-.096-.128.064-.064-.032-.192.032-.128-.256-.128-.096.064-.48.064-.224-.096-.128.032-.096-.064h-.16l-.192-.064h-.16l-.096.32h-.192l-.096.064-.288-.224-.064-.128-.288.096-.192.096-.096.032-.032.288-.064.16-.192.352-.032-.224-.192-.032-.416.32v.128l-.064.16-.128-.064-.224-.032-.096-.064-.224-.032-.16.128-.288.032-.256.128-.224.032-.224-.064-.192-.288-.192.064-.192-.032h-.192l-.032.064-.384-.352-.064-.064-.288-.096-.128.032-.256-.032.096.384-.256.032-.192.032-.159-.032-.288-.288-.192-.032-.096-.096.288-.128.192-.192v-.256l.128-.16.096-.032v-.256l.095-.096v-.16l.064-.288-.032-.288.128-.032.128-.16.128-.032.192-.096.096-.064v-.224l-.096-.064-.192-.128-.128-.128v-.256l.032-.16-.096-.16.032-.128-.16-.192v-.064l.192-.096-.128-.704-.287-.032-.288.032-.032.064-.032-.32.064-.192-.128-.128-.224-.385-.032-.128.032-.352v-.224l-.032-.128-.032-.448-.192-.224.064-.032.064.16.224.16h.224l.128-.032.16-.128.064-.096-.096-.256.032-.128.064-.224.223-.416.128-.064.128.064.064-.128-.064-.096-.096-.256.096-.16.096-.256.16-.256.096-.064.064-.16v-.128l.096-.096.384-.128.128-.16-.032-.128-.128-.224-.128.032h-.16l-.256.032.096-.16v-.128l.192-.128.288.032.128-.064.032-.128.096-.128-.576-.705.064-.512-.48-.384-.16-.128-.767-.48-.256-.576-.064-.256-.096-.256-.16-.416-.16-.128-.128-.032-.192-.096-.384.064-.128.096-.16-.032-.16-.16-.064-.032h-.192l-.16-.032-.128-.096-.32-.128h-.384l-.64-.352h-.32v-.16l-.032-.064.032-.192-.032-.448v-.256l.064-.096.032-.192.192-.257v-.224l-.128-.352.096-.064.576-.032.16-.128v-.064l.224-.32.224-.096.032-.224.288-.352-.224-.32v-.224l.032-.16.288-.864-.128-.224-.128-.064.064-.16.032-.352.256-.16-.128-.192-.032-.16.16-.128.064-.096.16-.064.096-.16.128-.352.32-.032.224-.192.096-.128.064-.161-.032-.096.032-.32v-.064l-.128-.192-.16-.064-.288.064-.064-.128-.128-.032-.064-.128-.032-.032-.032-.192.096-.32.064-.16-.096-.096v-.096l-.16-.064h-.224l-.16-.128.032-.096.096-.064.064-.128-.16-.16.256-.096h.16l.128-.032.128-.032.288.064.192-.032.032-.256.16-.416v-.16l.096-.16-.096-.16.064-.128-.128-.224.384-.064v-.096l-.224-.384-.096-.288-.192-.032-.032-.128.128-.128h.128l.256-.192.256-.288-.032-.096h.16l.128.032.128.064h.064l.128.096.096.192v.128l-.096.224.032.064.287.192.128.16.096.096.192.032.064-.288.096-.224.064-.128-.096-.128-.32-.032-.128-.096.128-.064.096-.32.032-.225.16-.384v-.192l-.128-.288-.096-.192v-.064l-.16-.32.064-.192.16-.224v-.16l.128-.096.32-.128v-.448l.416.128.096-.032.224-.224.032-.096.256-.064.128-.288-.128-.224h-.288l-.128.032-.128-.064-.288-.064.064-.128v-.096l-.096-.16-.096-.288.064-.096-.128-.064.064-.192-.096-.16-.16-.032-.288.064-.128-.032-.096.064h-.128l-.032.064-.351-.032-.48.064-.064-.096h-.16l-.096-.064-.16.064-.16-.096-.128.096-.256-.064-.064.064-.096-.256-.064-.128-.224-.192-.128-.192-.032-.128.032-.353.064-.288-.096.032-.032.064-.992 1.473-.608.416-1.024.64-.448.16-.64.32.064.192-.416 1.216-.48-.064v.032l.288.544-.064.416-.352.16-.48.256-.448.16-.416.224-.512.257-.16.352h-.128l-.192.064h-.224l-.128.096-.064.224-.096.032-.032.128-.256.576-.128.064-.128.32-.032.192-.128.288v.224l.032.096-.064.096-.096.16-.256.096-.096.096-.032.096.192.224.032-.032.064.16.096.256v.288h.416l.16-.128.128-.032-.064.128.128.16-.096.096.096.096h.064l.032.096-.032.16-.16.192-.064.192.032.448-.16.288-.096.193-.064.32-.096.16-.064.192v.192l-.224.128.032.096.128.096v.064l-.096.32.064.224-.032.448.16.256-.224.288v.16l.128.16-.064.128.096.256.16.16.256.256-.064.096-.096-.032m0 0h-.224l-.224-.096-.128.032-.128-.032-.191.096-.352-.16-.288.064-.096.096-.032.128-.096.032h-.256-.096l-.096.096-.224.064-.224.064-.096.096-.16-.032-.128.128-.288.032-.128.064-.096.128h-.096l-.16-.064-.224.064-.128.096-.032-.032-.256.032h-.352l-.32.064h-.32l-.128-.064h-.192l-.256.064-.256.128-.32.064h-.096l-.16.16-.352.16v.256l-.096.257-.16.096v.032l-.16.128-.128.128-.192.064h-.128l-.416.128-.288.032-.064-.064-.352-.064.032.128-.096.064-.032.096-.192.16v.064l-.224.192-.064.096.032.064-.096.16-.064.064-.288.416v.16l-.096.16-.256-.128-.256.16-.16.224-.032.096-.096-.032-.256-.032-.64-.128-.383.16-.064-.032-.064.096h-.16l-.16-.192-1.664.8-.512.256-.064-.128-.224-.256-.32.032v-.032l-.288-.128-.352-.224-.128.032-.16-.096-.128-.128-.096-.064-.064.064-.224-.032v-.064h-.16l-.192-.064-.064-.064h-.256l-.128.096-.192-.064-.128.032-.064.096-.16-.064-.032-.096-.352-.224.032-.064-.128-.192h-.064l-.064.096-.192.096-.288.096-.256-.032-.192-.096h-.48l-.096.032-.192-.032-.064.032-.192-.16-.128-.256-.16-.128-.128-.096-.16-.288-.224-.16-.192.096m0 0h-.192m0 0-.128-.032m0 0-.16-.032-.32-.128m0 0-.096-.064m0 0-.128-.096m0 0-.096-.032-.064-.096m0 0h-.032m0 0-.032-.064m0 0-.064-.064m0 0-.032-.032m0 0-.096.032m0 0-.095.096h-.096l-.128.064-.064.128-.256.128-.064-.032m0 0-.128.064-.064-.032-.224.096-.032-.032h-.128l-.064-.064-.288.064-.064-.064-.224.064-.288-.096-.128-.032-.096.064-.256.096-.128-.032-.128.032-.288.032-.384.128-.096-.032-.128.096h-.064m0 0-.128.032-.096.192-.384.16-.032-.032h-.288l-.224-.128-.224.064-.032.064-.224.064-.352-.096-.064.096-.16-.064h-.096l-.16.096-.064-.032-.096.096h-.128l-.064.128-.128-.128v-.192l.064-.096-.032-.288.064-.128.064-.032.064-.16-.064-.128-.064-.096-.192-.032-.16-.128-.256-.096-.096-.064-.448-.064-.096-.16-.064-.225-.1278-.096h-.064l-.16-.032-.1599.032-.192.128h-.128l-.032-.064-.096.064-.128-.032-.128.064-.096.065h-.064l-.16-.193h-.1279l-.096.096-.16-.064-.192-.256.256-.064.064-.16.096-.096.032-.128.1919-.064.224-.032.096-.192.064-.096.064-.224.064-.224.224-.224-.064-.512-.192-.16-.224.224-.6079-.384.16-.192-.064-.096h-.128l-.128.128-.032-.096.128-.096.064-.096-.288-.096-.064.032-.096-.288-.096-.096.064-.096-.128-.064.064-.192m0 0-.032-.032m0 0v-.064m0 0 .032-.256.512-.768-.032-.192.288-.128.0959-.224v-.096l.128-.128-.032-.193.288-.416.16-.16.096-.192v-.128l.096-.096.064.032.064.128.096-.032.1919.096.224.032.064.128.3198-.096.288-.128.128-.16h.224v-.096l.256.096.096-.16-.064-.032.256-.48.544-.128.64-.288.096-.096.256-.16.256-.256.128-.288.064-.192-.032-.192-.16-.48-.16-.288-.032-.384-.256-.064-.224-.192-.032-.256-.16-.32-.096-.096-.096-.064-.032-.064-.224.064-.128-.192-.064-.032-.128-.128-.032-.128.064-.097.32-.288-.032-.096-.608-.032.032-.256.416-.608-.128-.128.064-.32.032-.064-.064-.064-.032-.256-.128-.16-.096-.064-.032-.224.192-.352-.096-.16-.16-.064-.448.128-.48.064h-.416l-.5437-.128-.384-.064h-.128v.192l-.064.064-.064.256.064.128-.096.064-.16-.096h-.4159l-.032.032-.128-.096-.288-.096-.352-.16-.0959-.16-.192-.16.096-.16.128-.32.1919-.064.096-.128.032-.16-.064-.128.096-.192.032-.352.128-.16.32-.288.032-.096.192-.128.0959.032.096-.16.128-.096.096-.192.032-.16-.032-.064v-.481l.032-.16-.4479-.128.1599-.608.16-.096.064-.16.096-.096v-.448l.096-.128-.064-.096-.032-.192.032-.032.16.064.064-.128.032-.416-.032-.352v-.064h-.096l-.16-.128-.16-.32-.096.032.064-.288-.096-.224-.064-.032v-.096l.192.096.128-.128.192-.032.256-.064h.16l-.032-.128.2239-.032.032-.096.128.064.064-.032v-.16l-.16.032.032-.096h.096l.064-.064.0958.032.096-.16.16-.416.16-.449v-.16l.448-.416.288-.32v-.032l.288.064.064-.064h.192l.032-.064.096-.064.032-.096.128-.16.192-.064.096-.096.16-.224.064-.032.288-.288v-.192l.064-.256v-.192l-.192-.224-.16-.064-.032-.192-.192-.448-.192-.352-.032-.096h-.128l-.128-.128-.192-.032v.064l-.128-.064-.096.128h-.224l-.256-.128v.032l-.16-.064h-.16l-.128.096-.224-.128h-.096l-.032-.192-.096-.096.096-.256v-.32l-.4478-.032.064-.32-.4479-.064-.096.352h-.288l-.16.032.128.096-.064.256.032.064-.192.224-.128.064-.0319.16.0639.16.256.064.192.096.224.064.16-.032-.032.256.16.128v.064l.1599.064-.0639.672h-.16l-.096.192-.576.096h-.224l-.1599-.16-.16-.032-.096.064-.384.096-.096-.064-.032-.192.16-.032.064-.32-.096-.192-.16-.032-.064-.128.096-.128v-.16l.096-.448h-.32l-.1919.032-.192.096-.064-.064-.128-.352.192-.256v-.16l.064-.384-.064-.384-.128-.673-.032-.064-.096-.096-.16-.16-.032-.096.064-.064-.096-.192-.192.192-.1279-.032-.128.064-.16-.416-.224-.288-.224-.256-.16-.128-.096.128-.1599-.096-.096.064-.224.032-.192.128-.16.16-.192-.064v-.128l.064-.032-.032-.256-.064-.128.032-.256-.032-.256-.4159-.288-.288-.352-.064-.288-.16-.064-.3519-.128h-.128v-.224l-.128-.032.064-.32v-.064l-.288-.032h-.32l-.096-.032-.2239-.192v-.032l-.16-.128.032-.128-.192-.192.096-.128-.096-.096.032-.128-.128-.064.064-.096-.096-.064-.064-.225-.16-.16v-.128l-.224-.064-.096.224-.2559-.064-.16.353.128.128-.16.032-.224.192h-.128l-.064-.064-.16.064-.16.032-.0959-.064-.064.16-.096.064-.128-.064-.064.064-.128-.064-.064.096-.256.128.064.096-.096.064.064.096-.064.064-.16.064-.2239-.256v.096l-.32-.256-.064.064-.128-.192-.096.416-.224.288-.128-.096.16-.16-.064-.064.128-.288-.096-.288-.8959.512-.096.064-.096.032-.128.096-.9919.576-1.1199.64-.256.128-.0319-.096-.16.16-.16.032-.096-.032-.064.064-.224-.16-.16.064-.5119.096-.032-.16.16.032.1599-.128-.0639-.064-.032-.128h.064l-.032-.448-.128.096-.064-.192h.128v-.192l-.064-.128-.224.096.032.096-.224.096-.064-.064-.224.096-.192-.032-.3839-.224-.256-.16v-.16l-.288.128.032-.096.064-.064-.032-.16-.096-.288-.224-.256-.2239-.128-.224-.064h-.128l-.32-.096-.064.128h-.096l-.1599.064-.16-.032-.256-.096-.096.032-.032.096.064.16-.032.224-.16.256h-.16l-.2559.064h-.224l.256-.448-.096-.352-.224-.096-.256-.097-.192.289-.064-.064-.192.192-.1919-.032-.128-.096h-.224l-.256-.096-.128-.032-.256.064h-.2239l-.192.16-.128.032-.192-.192-.096.096-.128.384-.128-.032v-.096l-.1919.032-.032-.064-.064.064h-.16l.032-.064-.256-.128h-.192l-.096.096.096.16-.288-.064-.0319.16-.16-.032v.224l-.128.064-.032.128-.096-.032-.096.096.288.128-.192.128-.128.16.096.192.096.064-.032.064h-.096v.48l-.256-.064-.032.448.032.224.16.192-.128.192.064.096-.192.224-.064.064.128.128v.128l.064-.032.096.16-.096.096-.096-.032v.128l-.4799-.192-.064-.192h.064l-.064-.16.032-.096-.128-.128-.128-.032-.128-.128-.032.032-.064-.064-.128.064h-.096l.128.128-.064.096.096.096-.064.128.32.128.096.352-.096.064.064.064-.064.096.128.096.16.064-.64.16-.096-.096-.032-.224-.128-.096.032-.032-.1599-.128-.064-.16-.352-.192-.128-.032-.032-.224.096-.064-.48-.256-.2239-.096v-.032l.3519.128.032-.128.096.032-.032.096.064.032.064-.16.032-.128-.32-.096-.032-.096-.064-.096-.1279-.032.032-.128-.128-.128-.256-.128.032-.096-.096-.032-.032-.224h-.192v-.16l-.064-.064.192-.384.032-.096-.096-.16-.16-.064.032-.096-.256-.128v-.16l-.2239-.032-.032-.128.064-.032.064-.224.0319-.513h-.0319v-.448l-.096-.32-.064-.096-.192-.032-.16-.096-.096-.256.064-.064-.032-.096h.064l-.032-.16m0 0v-.064l.256-.192.064-.192.128-.096v-.128l.064-.032v-.16l.0959-.032-.032-.064.064-.16.064-.064v-.192l.064.032.16-.096.032-.16-.064-.192v-.224h-.032l.064-.352-.032-.192.032-.128.096-.128-.128-.32.032-.192v-.288l-.128-.32.064-.064-.128-.224v-.257l.128-.032v-.192l-.224-.064v-.416l.032-.16v-.192l-.032-.576.064-.032-.032-.128-.1599-.192-.192-.064-.16-.16-.096-.192.064-.128-.128-.064.128-.032.032-.256.192-.224-.096-.192.032-.128-.16-.256-.16-.064-.064-.16-.128-.128v-.096l-.064-.064-.096.096-.096-.064v-.064h-.1279l-.192.032.032.128-.064-.032-.416-.512-.096-.224-.064-.064-.064-.192-.128-.256.032-.064-.1279-.256.1279-.064-.2559-.2245-.544-.4481-.256-.3201-.3839-.6081-.064-.064-.32.1921-.384.288-.128.064-.5119.096-.288-.064-.128-.128.032-.192-.224-.1601-.1599-.032-.064-.096.128-.128-.192-.16-.16-.032.032.032-.16.096v.032l-.224.128-.224-.032-.032-.032-.1599.064h-.096l-.064-.064-.096.064-.16.032-.064-.032-.096.096-.096-.032-.096.096-.064.0961-.192.096-.1279-.096-.192-.064h-.16l-.128.032-.032.064-.288-.064-.128.096h-.096l-.1279.224-.16.096-.096-.032-.16.064-.128.1281h-.064l-.288.16-.032.064-.096.032-.0959-.128v-.1601l-.096-.352.096-.096-.192-.4161.3839-.6081.096-.032v-.128l.32-.1601.096-.128.256-.192.064-.096.032-.1921-.064-.032.064-.128.096-.32-.032-.1601.1279-.192-.0959-.096-.192-.032-.128-.064h-.064l-.224-.2241-.064.032-.032-.096-.096.032-.064-.128-.096.032-.1919-.064-.064.096-.032-.064-.256.064-.128.128-.192-.192-.256-.096h-.128l-.0319-.064-.16-.032-.256-.1921-.032.0961h-.224l-.032.064.064.096-.16.16-.096.192-.16.1601v.032l-.2239.224-.16.064-.032.096-.192.1921-.032.16.064.192-.064.1601-.096.096v.064l-.096.064.096.064-.096.3201-.096.096-.032-.032-.064.096-.128-.128-.1279.096-.064-.16-.16.064-.032-.1281-.032-.192-.128.128-.032-.064-.224.1921.032.032-.224.288-.2559.064-.128.064h-.128l-.096.096-.096-.064-.128.032-.16.1281-.224.096v.096l-.3839.064-.096-.032-.224.096.032.032-.096.128-.256-.224-.064.064-.1279.1921-.224.224-.256.064-.096.064h-.128v.096l-.192-.096-.032-.096-.1599-.064-.096-.192v-.1601l-.256-.224-.064-.2241-.128-.16-.32-.064-.096-.064h-.2879l-.288-.16-.032.032-.16-.096-.224-.032-.096-.0961-.192.0961h-.2559l-.128-.1281-.064-.128.096-.192-.128-.128-.032.064-.064-.128-.16-.0961-.064-.128v-.16l-.224-.064h-.3199l-.256-.032-.192-.064-.16-.1281-.16-.032-.2879-.192-.064-.064-.064.064-.128-.192h-.128l-.128-.1921.064-.352-.128-.064-.032-.2561-.096-.064-.096-.192h-.096l-.064-.128.096-.4161.064-.032-.032-.064-.096-.2561-.064-.448h.192l.064-.032-.096-.3841-.128.064-.1599-.288.3199-.1281.224-.192-.128-.16-.032.032-.2879-.128.0319-.2561-.0319-.32.0639-.0961v-.128h.16l.032-.224v-.2241l-.16-.256-.2239-.128.064-.7041-.032-.096.096-.0641-.064-.096.064-.224.1279-.192-.3199-.0961.096-.352h-.128l.032-.4161h-.16l.032-.128h-.096v-.16-.1921l-.064-.064.032-.128-.192-.16-.064-.1601-.192-.128.032-.128-.3519-.256.064-.0961-.224-.096.032-.16.064-.128.096-.032.064-.3521-.224-.064.032-.096-.192-.16-.064-.2881-.16-.064v-.096l-.32-.2881.128-.32.096-.064.096-.2561-.032-.224-.16-.096-.064-.064.096-.096-.3839-.6081.0639-.1281v-.224h.064l-.032-.256.064-.0641-.096-.32.16-.096.224-.096.064-.0961.256-.224.128.032.192-.096.1279-.096h.192l.096-.096-.032-.064-.224-.1281-.064-.16-.0639-.096.0639-.032-.1279-.16.064-.1601-.224-.128.032-.064-.16-.224.032-.1281.224-.032h.2559l-.064-.16-.0639-.032v-.16l-.032-.096.0639-.2241.064-.288-.032-.096-.3519-.0961-.224-.192.096-.128-.224-.2561.032-.032-.192-.288-.064-.032-.3199.064-.128.096-.128-.16h-.192l-.096.096-.224-.096-.3199.288h-.096l-.096-.192-.352-.064-.128-.064-.096.096.064.032-.064.096-.256-.096.256-.128-.032-.2241.096-.096-.128-.192-.128-.096v-.032l-.096-.064-.032.096-.3199-.096-.352-.3521-.096-.032v-.192l.064-.1601.256-.128.128-.16.064-.3201-.16-.224-.224-.128-.064-.064-.16-.032-.128-.1281-.128-.352.032-.2561-.0959-.16-.096-.192-.192-.2881.032-.16-.128-.064-.16-.096-.256-.16.032-.0961-.032-.256-.224-.2881-.0639-.032-.096-.192-.128-.32-.16-.2561-.032-.032-.16-.256-.128-.1601-.192-.416-.032-.096.032-.1601.096-.032-.096-.192v-.128l-.096-.096-.1599-.0321-.8.2561-.3839.128-.192-.032-.064-.192h-.032l-.064-.1921-.096-.064-.352-.288-.16-.032-.1279.096-.192.5121.096.064-.064.224-.16.2241-.096.128-.7679.5761-.032.128-.16.128-.256.032-.192-.032-.288-.256-.7679-.4161-.096-.064h-.224l-.2559.064-.16.064-.032.096-.128.0641h-.096l-.384.16-.128.256-.064.1921-.0959.096-.128.064-.32-.128-.096-.0641-.032.0961h-.096l-.32-.2881-.1279-.064-.16.064-.032.128.064.0961-.16.192-.384.288-.096.064-.16.0961-.1279.128-.384.288-.192.096-.224.1601-.224.032-.1279.064-.096.224-.064.096-.256.2561-.256.096-.192-.032-.096-.032-.1279.032-.064-.032.0959-.096-.0639-.128-.224-.0961-.032.0961-.128-.0961-.096.0961-.192.064-.256.32-.3199.2561-.192.096-.096.224.064.16v.2561l.16.096.064.064v.128l.096.032.0639.2241-.0319.128-.192.096-.224.032-.064.096-.128-.064-.128.128-.128.2881-.064.192.128.2881.032.224-.096.5121.032.16-.096.192-.128.0961-.0959.128v.128l-.096.16-.128.0961-.064-.0641-.352-.064-.224.032-.128.1601.064.128v.32l.064.1281-.032.192-.2879.16-.16-.096-.096.064-.128-.128h-.032l-.096-.192-.096-.1281-.32-.5441-.2879-.32-.16.128-.224.2241-.256-.1281h-.16l-.1599.064-.16-.288-.032.032-.224-.224-.256-.2881v-.064l-.288-.3201-.1599-.384-.192-.3521-.448.1601-.064.064-.6079.096-.064.064-.32.096-.256.224-.224-.16v-.032l-.1279.064-.096-.096-.064.064-.16-.192-.224-.16-.096-.1281-.16-.064v-.064h-.16l-.1919-.128.064-.064-.128-.064-.032.064-.064-.032-.064.064-.064-.096.096-.1601-.128-.096.064-.256-.192-.096-.128-.3201-.096-.4481-.064-.064-.032-.192.096-.096-.032-.3841.032-.224-.032-.096-.128.096h-.16l-.1279-.2561-.064.0641-.128-.2241-.416.032-.096-.096-.16-.3521.128-.16-.096-.224-.2879.096-.064-.032.064-.096.0959-.3201.16-.384-.096-.1281-.1599-.16-.192-.064-.064-.224-.032-.032-.256-.1921-.192-.032-.224-.128-.032-.064-.1919.096-.064-.224-.192-.2241-.224-.256-.064-.192.032-.1921-.16-.064-.064.032-.128-.5441-.064-.096v-.224l-.0959-.096.1279-.1601v-.128l.064-.064-.064-.128.16-.1601-.128-.16-.096.032-.0639-.128-.064-.032-.128-.16-.256-.064-.064-.0961-.128.0641v.096h-.384l-.6719-.032-.28797.064-.31997-.032-.28798.032-.03199-.2241-.22399-.288.032-.064-.09599-.096-.25598-.2561-.06399.128v.1601l-.25598.224-.09599.096-.19198.128-.19199.1601-1.1199.032-.15998.032-.22398-.4801-.09599-.4161-.15999-.5441-.032-.416-.06399-.4481h-.12799l-.09599-.128-.09599-.064-.064.096-.15998-.128-.032-.0961.06399-.096v-.128l-.09599-.128.032-.3521-.032-.096-.19198-.032-.06399-.128-.22398.096-.25598.128-.032-.128-.15999.064-.06399-.064-.032-.096.032-.16v-.0961l.15999-.288.12799-.064.03199-.192.064-.0321.25597-.192v-.096l.15999-.16-.032-.3841-.15998-.192-.032-.2561-.15999-.192.032-.16.032-.032.06399-.1601.09599-.096v-.288l-.06399.032-.12799-.128.032-.1601v-.16h-.15999l.032-.16.032-.032.09599-.2561h-.064l.22398-.448-.06399-.1281.032-.16-.15999-.032-.06399-.192.06399-.096-.032-.1281-.12798-.16.06399-.192.12799-.128.06399-.2241-.09599-.064.064-.096v-.064l-.15999-.16-.06399-.2241h-.064l-.19198.128-.12799.032-.19198.0641-.12799-.0961-.12799-.384.28797-.16.15999-.1281.09599-.224.06399-.064.19199-.2241.15998-.096.19199-.192-.032-.032.31997-.16.22398-.2241.032-.192.06399-.032-.06399-.192-.064-.1281.064-.096.19198-.032.12799-.064.22398-.032h.06399l.12799-.064.15999-.2561-.31997-.7041-.09599-.352-.064-.064-.19198-.3521-.032-.16v-.1601l-.19198-.352-.41596-.5441.06399-.064-.12799-.192.032-.0961-.12799-.16.032-.224-.15999-.032.09599-.1601.12799-.16-.12799-.224-.09599-.16v-.1921l-.19198-.032h-.09599l-.38397-.064-.19198-.096-.19199-.16-.28797-.1601-.31997-.256-.19198-.256-.064-.0961-.06399-.064.09599-.256-.22398-.2241-.064-.192.096-.256.22398-.096-.12799-.7042-.47996-2.4004m220.14011 49.9924.16.192.064.224.064.0961.384-.0321.192.0321h.256l.064-.1601-.064-.128-.16-.192-.256-.1281-.096-.192-.064-.16-.256.032-.288.32zm3.584-6.7852.128.032v-.096l-.096-.032zm-83.705-78.7011.032.032.16-.032-.032-.128-.096.032z" stroke="#171619"/><path clip-rule="evenodd" d="m145.371 7.20891.128-.12802-.064-.06401-.064-.19204v-.032l-.032.06401-.096-.06401.064-.12802.064.09601h.032l.128-.12802.064.09602-.128.06401.128.09602h-.064l.032.09601.128-.06401.16.09602-.16.06401.16.41607.096-.16003-.064-.12802.064-.09602.16-.06401h.064l-.032-.09601.16-.22404v.06401l.032.032-.064.06402.032.06401.096-.03201.096.09602.032.16002h-.032l-.032-.16002v.16002l-.256-.032-.032.12802h.096l-.032.22404h.096v.06401h.16v-.12802l.064-.03201.032.16003-.064.06401.032.09601-.096.03201-.128.16003.224.032-.032.25604.032.06401-.224.12803-.16-.16003-.16.06401h-.128l-.064-.09602-.064-.22403h-.256v-.03201l-.288-.12802-.032.06401-.096-.032-.032-.03201.128-.06401.064.06401.064-.12802.128-.03201-.096-.12802.096-.09601-.064-.03201.032-.09602h-.096zm.832.80013v.12802h.064l.032-.16002zm-.16-.12802h.032l.032-.19203h-.064zm.224-.28805.032.12802h.064v-.12802zm-.832-.16002.064.16002h.064l.064-.16002-.096-.06401.096-.09602.032-.09602h-.064zm.544-.06401.032.09601h.064l.032-.12802z" fill="#fff" fill-rule="evenodd"/><path d="m145.371 7.20891.128-.12802-.064-.06401-.064-.19204m0 .38407-.064.09601h.096l-.032.09602.064.03201m-.064-.60811v-.032m0 0-.032.06401m0 0-.096-.06401.064-.12802.064.09601m0 0h.032m0 0 .128-.12802.064.09602-.128.06401m0 0 .128.09602h-.064l.032.09601.128-.06401.16.09602-.16.06401.16.41607.096-.16003-.064-.12802.064-.09602.16-.06401h.064l-.032-.09601.16-.22404m0 0v.06401m0 0 .032.032m0 0-.064.06402m0 0 .032.06401.096-.03201m0 0 .096.09602.032.16002h-.032l-.032-.16002v.16002l-.256-.032-.032.12802h.096l-.032.22404h.096v.06401h.16v-.12802l.064-.03201.032.16003-.064.06401.032.09601-.096.03201-.128.16003.224.032-.032.25604.032.06401-.224.12803-.16-.16003-.16.06401h-.128l-.064-.09602-.064-.22403m0 0h-.256v-.03201l-.288-.12802-.032.06401-.096-.032m0 0-.032-.03201.128-.06401.064.06401.064-.12802.128-.03201-.096-.12802.096-.09601m0 0 .064.16002h.064l.064-.16002-.096-.06401.096-.09602.032-.09602h-.064zm.768.57609v.12802h.064l.032-.16002zm-.16-.12802h.032l.032-.19203h-.064zm.224-.28805.032.12802h.064v-.12802zm-.288-.22403.032.09601h.064l.032-.12802z" stroke="#171619"/><path d="m49.8775 246.064h1.2v-10.8h-1.2v-3.936h11.016c2 0 3.56.408 4.68 1.224s1.68 1.984 1.68 3.504c0 .944-.224 1.744-.672 2.4-.448.64-.976 1.128-1.584 1.464-.592.32-1.168.536-1.728.648v.24c1.136.112 2.16.472 3.072 1.08s1.368 1.696 1.368 3.264c0 1.68-.632 2.912-1.896 3.696-1.264.768-2.904 1.152-4.92 1.152h-11.016zm9.216-6.864c.464 0 .808-.12 1.032-.36.24-.256.36-.648.36-1.176v-.864c0-.528-.12-.912-.36-1.152-.224-.256-.568-.384-1.032-.384h-1.296v3.936zm.168 6.864c.464 0 .808-.12 1.032-.36.24-.256.36-.648.36-1.176v-1.056c0-.528-.12-.912-.36-1.152-.224-.256-.568-.384-1.032-.384h-1.464v4.128zm9.2253 3.936v-3.936h1.2v-10.8h-1.2v-3.936h16.2v7.248h-5.376v-3.312h-2.904v3.792h2.112v2.736h-2.112v4.272h2.904v-3.792h5.376v7.728zm17.1094 0v-3.936h1.2v-10.8h-1.2v-3.936h10.128v3.936h-2.208v10.8h2.16v-2.208h4.7758v6.144zm33.7758-6h-1.2v4.8c-.704.4-1.736.76-3.096 1.08-1.344.304-2.8.456-4.368.456-2.992 0-5.336-.784-7.032-2.352-1.696-1.584-2.544-4.024-2.544-7.32 0-3.376.84-5.832 2.52-7.368 1.696-1.536 4.112-2.304 7.248-2.304 1.52 0 2.944.16 4.272.48s2.328.68 3 1.08v5.736h-6v-1.128c0-.672-.144-1.152-.432-1.44-.272-.304-.712-.456-1.32-.456s-1.056.152-1.344.456c-.272.288-.408.768-.408 1.44v7.008c0 .672.136 1.16.408 1.464.288.288.736.432 1.344.432s1.048-.144 1.32-.432c.288-.304.432-.792.432-1.464v-.168h-1.296v-3.576h8.496zm.677 6v-3.936h1.2v-10.8h-1.2v-3.936h9.12v3.936h-1.2v10.8h1.2v3.936zm19.054.336c-2.512 0-4.456-.552-5.832-1.656-1.36-1.104-2.04-2.896-2.04-5.376v-8.04h-1.2v-3.936h8.88v3.936h-.96v9.264c0 .528.112.92.336 1.176.24.24.592.36 1.056.36s.808-.12 1.032-.36c.24-.256.36-.648.36-1.176v-9.264h-.96v-3.936h8.232v3.936h-1.2v8.04c0 2.48-.664 4.272-1.992 5.376s-3.232 1.656-5.712 1.656zm36.246-15.072h-1.2v10.8h1.2v3.936h-9.072v-3.936h1.152v-8.4l-4.08 12.336h-3.552l-4.2-12.216v8.28h1.152v3.936h-7.872v-3.936h1.2v-10.8h-1.2v-3.936h10.992l2.496 7.488 2.4-7.488h10.584z" fill="#fdfbf5"/><path d="m49.8775 283.064h1.2v-10.8h-1.2v-3.936h11.016c2 0 3.56.408 4.68 1.224s1.68 1.984 1.68 3.504c0 .944-.224 1.744-.672 2.4-.448.64-.976 1.128-1.584 1.464-.592.32-1.168.536-1.728.648v.24c1.136.112 2.16.472 3.072 1.08s1.368 1.696 1.368 3.264c0 1.68-.632 2.912-1.896 3.696-1.264.768-2.904 1.152-4.92 1.152h-11.016zm9.216-6.864c.464 0 .808-.12 1.032-.36.24-.256.36-.648.36-1.176v-.864c0-.528-.12-.912-.36-1.152-.224-.256-.568-.384-1.032-.384h-1.296v3.936zm.168 6.864c.464 0 .808-.12 1.032-.36.24-.256.36-.648.36-1.176v-1.056c0-.528-.12-.912-.36-1.152-.224-.256-.568-.384-1.032-.384h-1.464v4.128zm9.2253 0h1.2v-10.8h-1.2v-3.936h11.016c2.064 0 3.64.424 4.728 1.272s1.632 2.224 1.632 4.128c0 1.072-.216 2-.648 2.784s-1.048 1.328-1.848 1.632l.024.24c1.536.24 2.304 1.184 2.304 2.832v1.848h1.128v3.936h-7.608v-5.64c0-.624-.096-1.096-.288-1.416-.176-.32-.464-.536-.864-.648-.384-.112-.936-.168-1.656-.168v3.936h1.584v3.936h-9.504zm9.216-6.864c.464 0 .808-.12 1.032-.36.24-.256.36-.648.36-1.176v-.864c0-.528-.12-.912-.36-1.152-.224-.256-.568-.384-1.032-.384h-1.296v3.936zm18.135 11.136c-2.512 0-4.456-.552-5.832-1.656-1.36-1.104-2.04-2.896-2.04-5.376v-8.04h-1.2v-3.936h8.88v3.936h-.96v9.264c0 .528.112.92.336 1.176.24.24.592.36 1.056.36s.808-.12 1.032-.36c.24-.256.36-.648.36-1.176v-9.264h-.96v-3.936h8.2322v3.936h-1.2v8.04c0 2.48-.664 4.272-1.992 5.376s-3.2322 1.656-5.7122 1.656zm17.2142 0c-1.536 0-2.992-.128-4.368-.384-1.36-.272-2.408-.576-3.144-.912v-4.752h5.28c0 .496.112.856.336 1.08s.632.336 1.224.336c.496 0 .848-.072 1.056-.216.224-.16.336-.392.336-.696 0-.256-.104-.472-.312-.648-.208-.192-.568-.384-1.08-.576l-2.064-.72c-1.776-.672-3.056-1.464-3.84-2.376-.768-.912-1.152-2.144-1.152-3.696 0-1.888.616-3.32 1.848-4.296 1.248-.992 3.32-1.488 6.216-1.488 1.392 0 2.696.144 3.912.432 1.232.272 2.224.64 2.976 1.104v4.296h-4.8c0-.8-.496-1.2-1.488-1.2-.48 0-.824.064-1.032.192-.192.112-.288.32-.288.624 0 .272.112.488.336.648.24.16.624.328 1.152.504l2.088.72c1.696.576 2.928 1.328 3.696 2.256.784.912 1.176 2.112 1.176 3.6 0 2.032-.688 3.568-2.064 4.608-1.36 1.04-3.36 1.56-6 1.56zm16.172 0c-1.536 0-2.992-.128-4.368-.384-1.36-.272-2.408-.576-3.144-.912v-4.752h5.28c0 .496.112.856.336 1.08s.632.336 1.224.336c.496 0 .848-.072 1.056-.216.224-.16.336-.392.336-.696 0-.256-.104-.472-.312-.648-.208-.192-.568-.384-1.08-.576l-2.064-.72c-1.776-.672-3.056-1.464-3.84-2.376-.768-.912-1.152-2.144-1.152-3.696 0-1.888.616-3.32 1.848-4.296 1.248-.992 3.32-1.488 6.216-1.488 1.392 0 2.696.144 3.912.432 1.232.272 2.224.64 2.976 1.104v4.296h-4.8c0-.8-.496-1.2-1.488-1.2-.48 0-.824.064-1.032.192-.192.112-.288.32-.288.624 0 .272.112.488.336.648.24.16.624.328 1.152.504l2.088.72c1.696.576 2.928 1.328 3.696 2.256.784.912 1.176 2.112 1.176 3.6 0 2.032-.688 3.568-2.064 4.608-1.36 1.04-3.36 1.56-6 1.56zm8.732-.336v-3.936h1.2v-10.8h-1.2v-3.936h16.2v7.248h-5.376v-3.312h-2.904v3.792h2.112v2.736h-2.112v4.272h2.904v-3.792h5.376v7.728zm17.109 0v-3.936h1.2v-10.8h-1.2v-3.936h10.128v3.936h-2.208v10.8h2.16v-2.208h4.776v6.144zm23.12.336c-1.536 0-2.992-.128-4.368-.384-1.36-.272-2.408-.576-3.144-.912v-4.752h5.28c0 .496.112.856.336 1.08s.632.336 1.224.336c.496 0 .848-.072 1.056-.216.224-.16.336-.392.336-.696 0-.256-.104-.472-.312-.648-.208-.192-.568-.384-1.08-.576l-2.064-.72c-1.776-.672-3.056-1.464-3.84-2.376-.768-.912-1.152-2.144-1.152-3.696 0-1.888.616-3.32 1.848-4.296 1.248-.992 3.32-1.488 6.216-1.488 1.392 0 2.696.144 3.912.432 1.232.272 2.224.64 2.976 1.104v4.296h-4.8c0-.8-.496-1.2-1.488-1.2-.48 0-.824.064-1.032.192-.192.112-.288.32-.288.624 0 .272.112.488.336.648.24.16.624.328 1.152.504l2.088.72c1.696.576 2.928 1.328 3.696 2.256.784.912 1.176 2.112 1.176 3.6 0 2.032-.688 3.568-2.064 4.608-1.36 1.04-3.36 1.56-6 1.56z" fill="#ea346c"/></svg>