<svg fill="none" height="296" viewBox="0 0 236 296" width="236" xmlns="http://www.w3.org/2000/svg"><path clip-rule="evenodd" d="m50.5369 13.7658.5439 1.0242-.0959.4481.032.5441.5759.7041.128.7041-1.6639 1.8563 1.1199 1.2162h.096l-.3519.2241-.16.064-.128-.032-.096.16.064.256.192.3521.096.096.2239.128.192.128.128.0961v.128l-.032.16.096.224-.064.1281-.128.064-.16.032-.032.128v.128l.096.128.128.0961.288.096.192.032.096.096v.128l.3519.5761.128.128.288.0961.16.096.064.128.064.288.192.0961h.128l.0959-.0641.064-.128.128-.128.096.064v.128l.096.0961.128.032.192.256.096.6401.096.2881.2879-.0961.192.0961.544.192v.064l.256.032.7039-.032.8639-.064 1.8878-.192.32-.0321 1.0239-.096.032-.032-.192-.9921-.128-.6401-.3199-1.6963-.128-.6401.128-.032.7039-.1281.256.5121.288-.032.096-.128.1599-.288.064-.3201.384.032.064.064.16.064.128-.032.064-.064.096-.064.096-.4161.1919-.032.192.128.032.0961.32.16-.032.096.128.16.16.096.096-.032.1279-.032.032.0961.096.096.128-.1921-.096-.16.064-.16.256-.064-.224-.2881h-.032l-.16-.224.288-.3201.256-.416.128.032-.064.096 1.3119.6401.3839.192.032.16.128.1601.256-.064.8959.48.032.0321.16-.0641.064-.128h.8319l.224.128.8959.5441.064.2561.288-.064.4479.064.192.288.032.128.736.2561.2559.096.32.064h.128l.096.032.032-.096.224-.064h.2559l.224.096 1.2799.2881.032-.0961.192.0961.416.7361.4159.192.224-.224.032-.1921.288.1601.4479.384.608.2241-.384.9921-.064 1.8883.096.7362-.032.256.128.2241h.128l.224.096.128.192.3519.064-.064-.288h.128v.064l.256-.032.6719.352h.192l.064-.032.096.032.448-.256.096-.192.1599.032.224.128.192-.064.256.128.16-.16.224.224h.2239l.16-.16.288-.1921.128-.128.6399-.384.224-.1281.32-.16.256.3841-.192.5121h-.032l-.384.32-.32.224.128.1921.192.128.096.128.032.128.064.1921.128-.096h.064l.3199-.2241.288.16.096-.096.256-.128.384-.128.1919-.2561.128-.032.128.0641-.032-.1921-.128-.4801.16-.032.032-.192.384-.032.224-.2881.2559.5441.16.2561.416-.16-.032-.0961.256-.096h.2239l.16-.096.32.096.064-.032.032-.192.096-.128.032-.1281h.064l.064-.064-.032-.192.064-.096.4479-.064.224-.032h.128l.128-.096.096-.2561.064-.096.224-.4161.1279.064.256-.288.448-.16v-.1281l.192-.16.5119-.32.192-.0961.064.0641.32-.0641.16.1921.0639.16.16-.096h.128l.192-.064.16-.128.096-.0961.064.0961.128.288.032.032.8959-.16.192-.064.2239-.096.128-.2881.448-.256-.032-.064.224-.0641.224-.16.0319-.032.736-.5441v-.096h.16l3.2317-2.3364.7999-.6081.384-.256 1.7594-2.2404 2.848-3.6806-.928-.5761-.288-.4801-.128-.3521-.128-.544 3.616-.2241 1.76-.096h.512l1.216-.032.32 1.5683.096.384.128-.032.32-.096.128.064.928.096.095.032.032.064.096-.064.544.1921.32-.032.032.064.288-.096.288-.032.32-.1281.256-.16.992-.5441.128-.096.576.128-.032-.096-.064-.224-.128-.2241-.16-.16.384-.3841-.704-.9281-.8-1.0882-.928-1.1842-.48-1.28021.384-.32005.032.032.064-.32005.224.06401-.064-.28805.032-.19203-.128.03201v-.12803l.288.09602.096-.35206-.192-.032-.032-.25605.032-.16002.096-.09602-.032-.12802-.288-.41607-.256.09602-.064.032-.448-.16003.032-.09601.096-.06401.064-.19203.128.09601 1.056-.57609.832-.44808 1.632-.86414.864-.09602.48-.12802.128-.09602.032-.09601.256-.32006.128-.09601.192-.09602h.224l.384.09602.992-.16003.288-.06401 1.856-.28805.608.89615-.576 1.21621-.16.32005-.192.38406-.192.41607.128 1.05618.032.12802.032.22404.032.38406v.03201l.064.28804.064.44808 1.823-.73612.544-.22404.448.09601.032.06402h.352v.032l.928.16003 1.6.32005.256.09602.192.19203.256.09601.128-.06401.128-.032.064-.03201.128-.16002.096-.12802.096-.03201.096.09602.16.06401h.192l.32-.09602.32-.032-.128-1.21621-.064-.38406v-.16003l.864-.48008.096-.032.224-.16003.416-.03201.096-.19203.256-.57609.032-.06401v-.06401l.224-.35206.064-.09602-.064-.06401v-.09602l.832-.16002-.032-.22404.128-.12802.128-.12802.544-.99217.032-.032 1.023-.51209v-.12802l.16-.35206.032-.09601-.064-.12803.224-.32005.16-.06401.192.032005.096-.224037.832-.256043.448.096016v.160027l.096.128021.064.160031.096-.03201.064.09602h.128l.096.032.16.03201.064-.12802.064-.03201.128.03201.064-.03201.256.22404h.192l.288.16002.224.03201.192.16003.096.28804-.064.19204.192.28804.032.28805.224.09602.32.032.32-.032.16.032.256.09602-.096.22404-.032.57609-.096.12802-.064.22404-.064.76813.128-.03201.352.22404-.16.22404-.224.06401-.16-.25604-.096.12802-.128.32005-.096.12802v.06401l-.096.09602v.06401l-.288.19203.128 1.24821h-.032v.12802l.224 1.05618-.032.16002h.064l.064.09602.224.06401.032-.06401.192.03201.032-.09602.192-.06401-.128.25604-.16.25604-.064-.032.064-.12802-.096-.03201-.032.06401-.096-.06401.032-.06401-.224-.09601-.192-.03201.032-.09602-.16-.09601-.192.06401-.064-.12802-.16-.09602-.096-.09601-.064.06401-.128-.12802-.096.032-.192-.032-.096-.19204-.064-.032-.096.09601-.16-.06401-.064-.06401-.096.06401-.096-.06401-.064.06401-.064-.032h-.128l-.096-.09602h-.128l-.096-.22404-.064-.06401-.16.03201h-.192l-.192.06401h-.224l-.32.16003-.064-.06401-.064.032.128.12802v.16003h.032v.19203l.064.06401-.064.09602.096.06401-.128.16002v.25605l.128.22404h.064v.12802l-.064.032.16.12802.096-.032h.16l.16.19203.128.09602.224.032.064.12802.128.03201.16-.16003.064.09602v.032l.256-.09601.384-.09602 1.376-.22404.8-.09601.416.16002.064-.032.096.06401.064-.16003h.128l.064.09602.096-.03201.128.09602.192-.06401v.19203l.032.09602h.128l.224.032.064.09602.064-.12802-.096-.03201-.032-.06401.16-.16003h.096l.064-.06401h.096l.032-.09601.256-.06401.032.12802.096-.03201.096-.12802.064.03201.032-.12802h.192l-.032.12802.064.032.16-.06401.096.03201.224.22403.128.06401.032.06402.064-.06402-.064-.09601.128-.06401.032-.06401.192.09601-.032.09602h-.128l-.032.19203.16.03201.032-.09602.032-.06401.032-.03201.032.03201-.064.19203h.128l.032.09602.224.16001-.064.2561.096.16v.096l.448.16-.096.1601.128.064.288-.032.095.16h-.319-.096l-.16.16h-.096l.448.16.064-.032.351-.16-.16-.096-.032-.224.192-.0961.064.3841v-.032l1.024-1.21621 1.056-1.31222.096-.06401.416-.38406.512-.41607.512-.41607.48-.41607.128-.06401.16-.25604.16-.06401.096-.09602-.032-.06401.032-.38406v-.16003l.064-.09602.064.03201.064-.09602.064-.032.064-.12802.032-.19203-.064-.12803.032-.06401v-.16002l-.096-.25605h-.064l-.032-.22403.032-.22404.192-.54409.32-.25604.032-.03201.096-.16003.16-.32005.096-.16003.16-.12802.128-.06401.16-.12802.128-.06401.064-.12802h.352l.096.06401-.096.5761.032.06401-.096.06401.128.19203.032-.03201.288.48008.032.16003h1.632l.224-.03201.16-.032.128.38406.832 2.01634.608 1.53626-.576.89614-.16.25605-1.312 2.52838 1.792 2.0164.991 1.1522.16.5121.32.448.416.4161.096 1.4402.064 1.6323.864.224.864.2561.64-.5121.256-.128.8-.2881.384-.032.224-.224.64.4161.16.128 1.728 1.1522-.16.6401-.48 1.8243-.32 1.1202.704.6721 1.536-.5441 2.015.5441 1.184-.2241.864.0321.384.032.224-.1281.16-.224.032-.224.128-.2241.064-.16-.032-.096v-.128l.032-.0641 3.04.8642 1.28.4481.512-.6721.448-.6722.192-.032.128.064.16-.384.064-.2241 1.376-.224.32-.352.416-.3201.064-.3521.096-.192.223-.16v-.16l.288.032.864.256.832.192.192.5761.608.7362.736.8321.224.192.64.4161.064.032.064.224-.032.1601h.064l-.032.256h-.032l-.032.256h.064l-.096.2881.064.16v.2561l-.096.256v.2881l.224 1.4082.064.6401.032.128.352.128.48.1921 3.808 1.5682.576.2561.384.224.096.3521-.256.064.48.8321.192-.096.192-.032.319.064h.192l.224.096.032.1921.064-.032.16-.0641.032-.096.128.064.224-.096.064-.064h.096l.16.192.192.0961.064-.1281.096.032.224-.032v.1281l.384.064.096.16.32-.3201.288-.096h.128l.032-.032.288-.064h.16l.032.064.224-.032v-.096h.32l.064.128v-.16l.352-.2881.192.0641.256.256.224.064-.064.096.704.096.576.4801-.16.3841-.064.128.032.064.352.064.032.032-.192.096h-.064l-.224.1281-.128-.032-.032.064.032.4801.192-.0321.064.0321v-.1281h.128l.032.2241.064.064.096-.096v.384l-.192.1601.064.032-.16.256.128.032.064.3201.32-.1281.064-.032.064-.032.064-.16.128-.064.288-.16v-.032h.224.032l.064-.032.256-.1601-.032-.128.16-.192.16.064h.032l.224.192.128.128.064-.032v-.192l.064-.064v-.096l.416-.3521.096-.128.192.16v.032l.064.1601h.096l.224.288-.064.192.16.064.032.0961.16.032-.064.128-.064.224.064.032.192.096.16.1601.16.192h.096l.095.096.416.2881-.256.16-.16.064-.191.16-.096.1281-.032.192.032.192-.128.3201-.128.128h-.416l-.256.032-.256.096-.256.2561-.128.224-.032.064-.224.2881-.096.032-.16.192-.096.352-.032.1921.032.16.096.16.192.1601.192.032.448-.064.16.032.16.096.192.16.096.16v.2561l-.064.352-.096.1601-.256.224-.16.096h-.096l-.48-.288-.224-.064-.16-.032-.192.032-.16.096-.224.16-.16.192-.064.1601.032.192.096.16.096.032.288.3521.064.256v.16l-.032.0961-.288.192-.128.128-.032.16.096.1601v.192l.096.16.064.2561v.192l-.128.224-.16.0641-.192.032-.16-.032-.16-.0641-.288-.224-.32-.096h-.192l-.128.128-.064.16.032.0961.032.256-.032.4481-.064.256-.288.6401-.16.1921-.064.16-.192.192-.096.3201.032.128.16.224h.096l.32.064.288.1601.128.16.096.256-.032.2561-.224.256-.032.096-.192.2881-.096.16-.064.256.032.2561.064.256.032.4481-.192.3201-.448.384-.128.2241v.128l-.16.192-.064.2561-.096.16-.192.192-.096.032-.32.032-.096.032-.128.1601-.064.352-.128.2241-.064.032-.224.16-.16.32-.096.032-.256.3841v.2561l.128.256.128.096.224.096h.192l.192-.032.288-.192.064-.192.128-.1281.16-.096h.096l.256.096.128.0961.224.192.128.224.064.2561-.096.192-.128.096-.256.032-.288.192-.064.0961.032.096v.192l-.128.2241v.192l-.192.384-.192.1921-.064.032-.256.256-.064.1601-.064.064-.16.224-.064.16-.064.2561.096.5121-.032.256-.128.256-.128.1281-.224.128-.256-.064-.256-.2241-.064-.064-.192-.032-.16.032-.256.064-.192.2241-.032.256.064.096.032.2561-.032.192-.064.256-.192.3841-.32.192-.128.0961-.16.192-.224.5121.032.288-.192-.064h-.256l-.16-.064-.064.096-.096.064h-.031l-.128.096-.16.0321-.032.128-.16.128-.128-.064-.192.256-.096-.096-.192.16-.032-.032-.224.2241.224.224.096.064-.128.128-.352.2881.16.096-.096.128v.032l.064.096-.096.1281.096.032-.128.128.128.064-.192.2881.064.128.064.224-.128.064.032.16h-.128l.032.1281.16.32-.064.032.064.064.032.0641-.032.064.192.128-.096.16.192.128.064.1281.032.192.096-.064.096.192-.064.192-.032.1281-.064.16.032.032.16-.096.16.224.096.064v.16l-.032.0321-.096.128.064.032-.064.064.096.096.192.064.192.032.128.096h.159l.064.0641v-.1281h.096l.064.064.128.032.032.0961.256-.064h.064v.128l.064.064.064.224.16-.096.288.128.064.032.16-.064.128.064v1.0882l.032.3521.032.224.192.7041.064.3521v.352l-.096.4161-.128.2561-.32.512-.288.3521-.16.224-.032.1281v.224h.16.032.16l.032.16v.032l.416.096.064-.032.192-.064.224-.288.16.032h.064l.128-.128.096-.032v-.0641h.064l.032-.032.096.0641.128.032.224-.3201.064-.128.128.096-.032.096.128.096v.064l.128.1601.256.096v.096l.288-.032.256.064.128-.4161h-.064l.064-.096-.064-.064.16-.3841.128-.128-.032-.064.16-.16.16-.128.128-.1601.032.032.128-.192.064.032.192-.32.032.032.192-.2241.192-.224.416-.032.064-.032.224.032-.032.064.064.256.096.5121.128.2881h.032l.16.384.224-.064.288-.224.416.6721.448.6721.128.032.288-.032.352-.192.16-.032.224-.032.256.032.192-.1921.256-.256.096-.064.352-.128.032.288.128.4161.032.256.031.1921.193-.3521.511-.4801.192-.16.256-.096.096-.032h.096l.32-.064.608-.4481.192.4481.032.352v.1921l-.032.288.032.096.128.064.256.1601.064.096.256.128.128-.192-.032-.032.096-.1281.224-.064.032.128.096-.096.192-.032.032.128.064-.032-.032.2561.032.16h.064l.384-.16.512-.4801.128.032.192-.032.16-.096.096.032.224-.064.128-.16.096.032.224-.0961.096.0641.288-.1921.16-.064.032.096.288.064.224.032.224.0961.128.16-.064.256.128.096.16-.032.256.1601.096-.032.384.032h.16l.224-.096.128.096.192-.096.096.032.608-.1281h.288l.128.064.032.0961.448.288-.096.224.064.0321.096-.2241.639.4481-.064.288.096.1921-.096.288-.127.128-.193.2561.033.128-.096.096.063.16v.1281l-.063.096.063.16.096.064h.128l-.031.064-.033.3841.16.16.128-.032.032-.288.16-.6721.32.256.704.224.704.2561.544-.032h.352l.224-.1601.192.2561.192-.2561.16-.032.544.032.064-.064.256.1281.096.128.128.096.192.256h-.032l.064.1921v.096l.16.32.032.1601-.128.192.512.7041.096.128v.2241l.128.128.256.128-.032.128.128.1921.096.032.064.128-.096.16.16.4161-.032.096.256.2241.064.16.448.256v.128l.128.1281.192.064.032.128-.064.064.192.6081.064.128.384-.064h.16l.48-.064.224-.096.096-.032.32.064.128.128.064.3201-.032.224-.448.4161-.128.128v.096l-.128.2241-.032.16.064.384.128.1601.128.064.16.032.224-.096.192-.032.192.096.16.032.416-.032.352-.032.255-.032.16-.096.096-.0961.032-.16v-.256l.064-.096.192-.1281h.128l.16.1281.096.224.096.096.128.064.224.2561.096.032.192.032.448-.1281.288-.096.192-.032.128.096.064.0641.128.384.096.16.192.5121v.2241l-.192.192-.064.096v.4161l-.032.16-.032.16-.352.5441-.16.1921-.384.32-.16.064-.16.128-.064.1601.128.448-.096.2561-.224.352-.096.1601-.128.352-.032.1281-.064.416.032.2881-.064.288-.096.16-.032.2881.032.16-.064.2561-.128.128-.352.256-.064.128v.3201l-.064.16-.128.064h-.16l-.255-.16-.192.064-.192.16-.096.3841-.064.064-.032.2561-.096.16-.192.064-.096.128-.192.4161.032.3521-.096.192v.192l.064.2241.064.096.256.128.192.224.032.1601-.032.192.128.288.256.1601-.224.096.064.16.16-.032.032.128.192.3841.032.096.16.128.031.128.16.2881-.031.128-.129.096.097.096.191.2561.128.096.192-.32.192-.0321.096-.064h.192l.224-.096.256-.192.224-.16.128-.032.096.064.064.16v.16l.064.032h.192l.192.064.064-.064.224-.32.192-.1921.32.1921.192-.064h.224l.032.096.128.288.064.032.608.096.16.0321.096-.0961.192-.064.384-.224.32.224v.1601l.16.128.352.224h.224l.288.096.096.064.128.2881h.128l.256-.032.288.032h.128l.16.064-.064.128-.096.032-.256.2241-.128.064-.032.096v.192l.032.224-.064.1921-.192.1598.032.192.064.064.16.032.128.288-.096.352-.096.16.032.128.128.096.16.192.128.064.128.128.448.065.16.128.16.096.544-.16.16.32.064.192.128.832v.192l-.096.736-.128.16v.16l-.16.352-.256.448.032.256.16.736-.032.096-.256.704-.288.288-.16.224-.032.096v.225l-.032.16-.128.128-.48.416-.224.448v.096l.256.096.224.256.16.224h.128l.288.192.192.352.192.288.032.192.128.16-.16.224.064.064.128-.096.032.096h.16l.096.096.096.16.032-.064.16.224.096.032.128-.096.096.096-.032.032.032.128.096.064.064-.096.128.128.544.48.128.192-.032.48.064.096.32.064.095.128-.064.641-.095.512-.096.032-.416.096-.448.096-.416-.096-.096.128.032.16h-.16l-.192.128.064.096-.128.064.096.096-.096.128-.288.128-.16-.128h-.064l-.288-.128v.128l-.16.128.032.16-.096-.032.064.064-.032.064.096.064.064.128.16.192-.256-.096-.16-.224-.16-.096-.192-.064-.096-.192-.064-.224-.16.032-.32-.096.128-.128-.064-.128-.416.192.064-.16-.128-.064-.064-.192h.096l-.064-.256-.16.064-.192-.16-.288.32-.128.064-.16.128-.032-.096.032-.096-.064-.032-.064.064-.16-.096-.416.16-.032.224.128.16-.064.224.064.128h.064v.128l-.128.032v.096h-.16l-.064-.064h-.16l-.128.128h-.128l-.032.128.064.032-.064.192.16.096-.096.192-.128.096.064.128-.064.128-.224.096.096.064-.064.128h-.096v.064h-.096l-.16.064.032.128.128.224-.16.064h.096l.032.096-.128.096v.064l-.064.256.128.192.128.032.064.096.128.224-.064.224-.128.16-.16.032-.256.288-.064.192-.128.161-.032.128-.096.032-.032-.096-.256-.064-.064.064h-.096l-.16.192-.16-.032-.16.032-.064-.064-.096-.192-.096.032-.128.128-.128.128-.352.16-.096.032v.064l-.512.032.096-.096h-.16l-.256.224-.352.16-.16-.032-.064.16-.096.064-.159.192-.064-.032.096-.128-.192-.064-.096.192-.16.192-.16-.064-.096.128-.128.096.096.16-.128.128.032.128-.224.384-.064.256-.288.288-.256.032-.352-.096-.32.096-.064.064-.192.032-.064.16-.096.032v.192l.064.064.16.224-.064.256-.224.128-.16-.032-.128.032-.096.224.032.256.256.032.096.032.224.192.096.032.032.192.192.224.096.416.128.16.224.064-.128.097-.096.16.064.128-.064.256.064.32-.064.128-.064.16.064.032.096.224.192.16v.16l-.224.192.352.192-.224.224-.256.128-.224.032-.128-.16v-.064l-.064.16-.16-.064-.256.064h-.096l-.064-.096-.352.192v.16l-.064.128-.064.288-.256-.032-.192-.416-.16-.096-.192-.032-.064.096-.096.288.064.128.128.096.032.096-.192.064h-.256l-.064.16.128.256.192.16.064.032.032.16.096.096-.224.384-.16.096-.16.032-.384-.032-.032.064v.128l.16.192.256.096.096.096v.128h.096l.064-.096.32-.256.128.096.16.064-.032.256.064.416.064.129-.16.128-.064.128-.032.128-.192.192-.544.096v.288l-.032.16-.16-.032-.128.064-.16-.064-.096-.16-.128-.192-.16-.064-.224-.16h-.416l-.096.032v-.192l.096-.192.032-.193.064-.224.096-.032.064-.256.288-.192.192-.064-.128-.128-.192-.064-.128-.128-.032-.128-.16-.032v-.128l.096-.128.032-.128.192-.256-.032-.128-.32-.224-.736-.48h-.128l-.16.096-.192.032-.352-.128-.128-.096-.128-.032-.32.128.032.16-.064.064.096.48v.192l-.064.096-.064.192.032.16-.32-.096h-.128l-.096.096-.064.096-.288.192-.416-.064-.448-.256-.256-.096-.511-.256-.32-.256-.16-.256.032-.48-.096-.384-.096-.192-.064-.256-.064-.288-.16.032-.224.096-.096.064-.224.16-.224.064-.384.192-.192.064-.64.032-1.12.032-.16.192h-.192l-.096.032.032.128v.608l-.032.096-.128.288h.096l.064.256.16.256-.096.16-.16.032-.256.192.032.096.128.064-.064.192.064.256.032.224-.192.353.096.448.096.256-.128.032h-.288l-.032.096-.256.096h-.352l-.32.128-.096.096h-.192l-.288.064-.224.16-.256.128-.256.16-.192-.032-.192.096-.096.16-.352.16-.192.128-.128.224-.192.128v.288.384l-.064.192.032.16-.16.192-.096.224-.064.128-.064.224-.096.256v.16l.032.256v.448.192l-.064.128-.256.129-.192.032-.416.16-.256.128v.128l-.128.128-.224.128-.096.032-.128.224-.096.256v.224l-.128.16-.032.096.128.128.064.256.192.032.032-.064.32.384.064.096.16.384-.16.064.064.16-.32.128-.064.128.064.16-.256.128-.16.16v.096l.096.064-.032.128.128.224.032.192-.416.128.032.096-.128.032.064.32-.127.032-.256.16-.16.128h-.064l-.096.096-.032-.064-.128-.032-.064.064-.224.032-.064.032.032.064-.224.16.032.064h-.128l-.032.097-.096-.097h-.096l-.064.097-.064-.032-.192.128.064.16h-.032l.096.32.064.192-.096.064.064.128v.192l-.064.096.064.128.128.224.224.128.128.16.192.32.256-.064.192.192-.032.032-.032.416.032.032-.064.192-.16.32-.128.032-.096.192-.096.032h-.16l-.096.128-.128-.064-.256.16-.032.16-.16-.064h-.224l-.16.192.032.064-.096.224.096.16-.032.16-.256.192-.128-.096-.256.032-.16-.128-.096-.128-.288.16.032.16-.032.032-.32.064-.064-.032-.256-.128-.32.192.128.288-.224.128.064.128.032.192-.192.129-.096.192.064.32.064-.032.032.16-.096.032.128.288.096.352h-.128l-.032.096h-.128l-.032.352.064.128-.288.032h-.128l.032.064-.064.096.064.064-.064.16.064.096-.064.16.064.032-.192.096.032.16v.16l-.096.224.224.16-.032.032-.64.32-.32.256-.096.16.032.128-.16.096-.256.096.032.192-.16.096-.096.192.032.096-.064.096.16.096.096.096h.16l.224.096.096.16.16.096h.224l.192.192h.16l.224.097.192.031.032.065.16.032.032-.032.064.192.064.064.32.064v.16l.064.096.256.224.032.128-.064.16-.16-.128-.128.128.064.064.32.192-.064.096-.192-.032-.16.032-.192.448-.032-.032-.096-.352-.128-.096h-.064l-.032.16-.16.128h-.16l-.256-.32-.16-.032-.128.096v.064l-.096.224.064.096.16.096.032.16-.128.288.064.16.096.16.192.16v.096l-.192.032-.16-.064-.192.16-.096.032-.128-.032-.096.064-.032.128.096.096.128.032.32-.032.224.224v.288l-.096.064-.16.064-.096-.032-.064-.192-.16.032-.032.096v.32l.128.16-.032.128-.128.096-.288-.096-.128.064-.096.224.032.032-.032.224.288.224.096.288.032.192.128.16-.032.129-.256.192.032.16.128.352.064.032.224.032v.096l-.064.192.032.256-.032.032.064.288.128.832.032.032-.032.32h.064l.064.16.384-.128.288-.032.256-.096.064.096.128-.096.16-.032.32.224.192-.256.032-.128.192-.032.128.096.16.48-.064.16v.16l.16.224.16.16.064.128.064.32.032.064.256.128.192.416.064.32.064.288h.096l.288.288.064.417.064.288v.096l.192.064-.032.16.16.192h.064l.224-.064.16.064.128.224-.128.352.128.16-.16.096-.16.128.064.192-.032.032.032.32-.064.064-.128.064.128.288-.032.064v.128l-.16.096.128.224.32-.096.192.064v-.032l.192.032v.096l.192.128h.224l.192-.16.192-.096.191-.032.352-.256.096.096.224-.064.096.096.224.224v.192l.288-.032v.128l.096.224-.16.064.064.16.16.096.224.16.224.256.096.096-.256.288-.288.48-.288.224-.096.032-.128.321-.16.064-.064.128.064.064-.096.192-.096.16.064.096-.128.288.032.128-.064.192.032.128.16.32.128.096h.16l.224.192h.256l.288.128-.032.128h.192l-.032.16.16.064v-.16l.16-.064v.064l.128.224v.064l.096.032.032-.128.096-.096.128.224.128.032.032-.128.064-.064.096.096-.096.064v.192h.128l.128-.128h.16l.128.288-.16.032-.192.096.032.064-.128.288.128.256-.128.096-.064.192.032.032-.032.224.032.192-.032.096.128.032v.32l.064.192.16.096-.096.064-.192.224-.256.16-.064-.128-.16-.064h-.192l-.16.096-.16.032-.032.096-.16.096-.064.193.192.192.064.16-.16.096-.192.16-.256.352-.064.16v.32l-.032.096.096.128.032.096-.096.096.064.256-.256.16-.16.096-.256.032-.064.096-.32.256-.224.16-.256.096-.16.096-.063.16.032.16v.064l.031.32.097.192-.033.128h.192l.224.064.16.032.16-.096.128.032.128-.16h-.032l.128-.128.064.096.064-.064.096.128v.16l.096.192-.032.096-.16.032-.256.224.192.064h.192l-.064.192-.064.096.16.128v.096l-.32.128-.256.224-.128-.032-.032.096.032.257-.064.064-.288.032-.096.096-.095-.032-.064.16-.192.128-.096.032-.064.096h-.16l.192.192.032.256-.16.096v.064h-.096v.128l-.256.032-.128.032-.288.16-.192.064-.096-.192-.128.064-.096.16-.16.032v.16l-.096.128-.096-.096-.064-.096-.128.096h-.064l-.128-.192-.16-.128-.224.096-.192.032-.224-.128h-.096l-.224-.096v-.064l-.16-.16-.16-.16-.096-.16-.224-.096-.032-.128-.128.128-.096-.128-.064-.224-.128-.096h-.192l-.352.16-.16.064-.16-.096-.096.064.096.288-.224.096.032.096-.032.192.064.096v.128l.032.128v.16l-.128.256.128.288-.352.096-.096.16-.16.064-.384.032-.192.032-.032-.192-.16-.256-.192-.064.128-.128-.48.16-.032-.064-.096.032-.096.16.064.096-.192.16-.096.032-.064-.064-.16.096-.096-.16-.384.192-.032-.096h-.096v.096l-.288-.096-.096-.16.032-.096h-.128l-.096-.064h-.064l-.032-.096-.224-.096v-.096l-.576.096.064-.256-.16-.096h-.224-.16l-.224.064-.096-.192-.128-.128-.095-.128-.064.064-.128-.096-.128.128-.128.096h-.128l-.192.064-.032-.096-.16.032v.096l-.352-.032.064.32-.128.032-.192.128-.288.096.032.128-.192.064.032.16.096.064-.192.064-.192.16-.288.288-.128.16-.256.512.192.192.096.192v.128l.064.192v.064l-.192.416-.064.032-.128.224-.128.224-.064.192-.064.128-.352-.16-.096-.096.032-.192-.064-.032.032-.096-.16-.128.064-.192-.096-.192-.224-.224-.192-.192-.192-.096-.128.128-.192-.128-.16-.064-.16-.096-.416-.16-.128-.128-.288.032-.128.192-.224-.096.032-.096-.288-.16-.16.096-.256.16-.256.288-.064.32v.096l-.032.16-.16.192-.352.032-.128.16-.224.096-.768.288-.32.064-.736.16-.672-.128-.192.064h-.096v.096l-.096.032-.096.161v.192l-.063.16-.32.288-.16.032-.192-.096-.192-.064.064-.16-.096-.096v-.353l.064-.32-.064-.064-.192-.064v-.096l-.192-.064-.128-.128-.032.096-.096-.064v-.16l-.288-.128.032-.064-.128-.032-.032-.096.224-.096.064.032.064-.096h.064l.096-.064.064-.192.096-.032.096-.16.128-.128.32-.032-.128-.576v-.16h.064v-.16l-.032-.32-.32-.192-.064-.032-.16-.192-.096-.064-.224-.192-.16-.192-.096-.032-.192-.128-.128-.064-.032-.16.224-.064.16-.096.032-.256.16-.256.128-.256.064-.096.192-.352h-.544l-.288-.032-.352-.225-.096-.48-.096-.256-.096-.384-.224-.576-.032-.224.128-.192-.16-.32-.192-.256-.16-.064-.256-.064-.288-.576-.16-.224-.16-.096-.224-.032h-.16l-.064-.096-.16-.416v-.064l-.256-.096-.032-.064-.192-.064-.224-.032v-.064l-.256-.032-.096-.064-.128-.096-.096-.032-.128-.16h-.096l-.224.064-.16-.064-.224.032-.032-.192-.096-.096-.32-.16-.096-.064-.064-.192-.096-.032-.288-.032-.064.16-.064.064-.096.288v.096l-.032.128.032.128-.064.16-.16.192h-.128l.16.16-.224.096-.224-.032-.16-.096-.288.064-.128.096-.096.128-.096-.096-.128.032-.032.096-.256.256-.096-.096-.032-.416-.032-.224-.192-.192-.064-.224-.128-.128.064-.128-.032-.192v-.224l.16-.353.064-.128v-.128l.224-.192.064-.192.096-.032.128-.256.096-.064-.032-.16.224-.128.192-.192.096-.032.352-.256-.032-.16-.096-.128-.096-.224-.16-.096-.448-.512-.128-.064-.064-.16h-.064l-.064-.128-.16-.096-.128-.256-.256-.096-.096-.032-.032-.096-.192-.064-.064-.096-.16-.032-.128-.064-.063-.16-.128-.096-.032-.096-.192-.096-.16-.192v-.16h-.16v-.096l-.032-.224-.288-.288-.256-.192-.224-.224-.128.032-.128.128-.48.096-.288.384-.064.128-.224.192-.256.096.032-.352-.128-.064h-.288l-.16-.128-.128-.032-.192.032-.16.096-.16.064-.096.096-.192.064-.128-.064-.128-.224-.16-.128v-.064l-.16-.224-.192-.096-.192.192-.128.16-.288.064.032-.16-.128-.096h-.16l-.256.096-.416-.096-.096.064-.16-.032-.16.096-.192-.032-.256.064-.128-.064.064-.192-.032-.225-.064-.224.064-.192.032-.224.096-.256-.064-.224.032-.16-.192-.128-.064-.192-.192-.16-.288-.16h-.064l-.096.096-.032.192-.224.352-.224.224-.064-.064v-.128l-.096-.224h-.256l-.16.064-.224-.064-.128.032-.16.064.032-.128-.032-.224-.096-.096-.064.032.032-.416.096-.512-.16-.224-.064-.256-.16-.32v-.288l-.16-.192-.064-.16-.128-.192-.16-.32-.16-.224-.223-.256-.064-.16-.512-.705v-.128l-.256-.128-.16-.16-.16.288-.128.064h-.288l-.192.064-.192.096-.128-.064-.416-.064-.032-.288-.064-.16h-.128l-.384-.128-.096-.096-.192-.096-.16.032-.224-.064-.192-.096h-.128l-.128-.128-.288-.192-.224-.064-.224-.128-.16-.096-.32-.16-.16-.128-.192-.064-.096-.128-.032-.16.032-.224-.192-.16v-.064l-.128-.192-.032-.16-.16-.064-.096-.128.064-.064-.032-.192.032-.128-.256-.128-.096.064-.48.064-.224-.096-.128.032-.096-.064h-.16l-.192-.064h-.16l-.096.32h-.192l-.096.064-.288-.224-.064-.128-.288.096-.192.096-.096.032-.032.288-.064.16-.192.352-.032-.224-.192-.032-.416.32v.128l-.064.16-.128-.064-.224-.032-.096-.064-.223-.032-.16.128-.288.032-.256.128-.224.032-.224-.064-.192-.288-.192.064-.192-.032h-.192l-.032.064-.384-.352-.064-.064-.288-.096-.128.032-.256-.032.096.384-.256.032-.192.032-.16-.032-.288-.288-.192-.032-.096-.096.288-.128.192-.192v-.256l.128-.16.096-.032v-.256l.096-.096v-.16l.064-.288-.032-.288.128-.032.128-.16.128-.032.192-.096.096-.064v-.224l-.096-.064-.192-.128-.128-.128v-.257l.032-.16-.096-.16.032-.128-.16-.192v-.064l.192-.096-.128-.704-.288-.032-.288.032-.032.064-.032-.32.064-.192-.128-.128-.224-.384-.032-.128.032-.352v-.224l-.032-.128-.032-.448-.192-.224.064-.032.064.16.224.16h.224l.128-.032.16-.128.064-.096-.096-.256.032-.128.064-.224.224-.416.128-.064.128.064.064-.128-.064-.096-.096-.256.096-.16.096-.257.16-.256.096-.064.064-.16v-.128l.096-.096.384-.128.128-.16-.032-.128-.128-.224-.128.032h-.16l-.256.032.096-.16v-.128l.192-.128.288.032.128-.064.032-.128.096-.128-.576-.704.064-.512-.48-.384-.16-.128-.768-.48-.256-.576-.064-.256-.096-.256-.16-.416-.16-.128-.128-.032-.192-.096-.384.064-.128.096-.16-.032-.16-.161-.064-.031h-.192l-.16-.032-.128-.097-.32-.128h-.384l-.64-.352h-.32v-.16l-.032-.064.032-.192-.032-.448v-.256l.064-.096.032-.192.192-.256v-.224l-.128-.352.096-.064.576-.032.16-.128v-.064l.224-.32.224-.096.032-.224.288-.352-.224-.32v-.224l.032-.16.288-.864-.128-.224-.128-.065.064-.16.032-.352.256-.16-.128-.192-.032-.16.16-.128.064-.096.16-.064.096-.16.128-.352.32-.032.224-.192.096-.128.064-.16-.032-.096.032-.32v-.064l-.128-.192-.16-.064-.288.064-.064-.128-.128-.032-.064-.128-.032-.032-.032-.192.096-.32.064-.16-.096-.096v-.096l-.16-.064h-.224l-.16-.128.032-.096.096-.064.064-.128-.16-.16.256-.096h.16l.128-.032.128-.032.288.064.192-.032.032-.256.16-.416v-.16l.096-.16-.096-.161.064-.128-.128-.224.384-.064v-.096l-.224-.384-.096-.288-.192-.032-.032-.128.128-.128h.128l.256-.192.256-.288-.032-.096h.16l.128.032.128.064h.064l.128.096.096.192v.128l-.096.224.032.064.288.192.128.16.096.096.192.032.064-.288.096-.224.064-.128-.096-.128-.32-.032-.128-.096.128-.064.096-.32.032-.224.16-.384v-.192l-.128-.288-.096-.192v-.064l-.16-.32.064-.192.16-.224v-.16l.128-.096.32-.128v-.448l.416.128.096-.032.224-.224.032-.096.256-.064.128-.288-.128-.224h-.288l-.128.032-.128-.064-.288-.064.064-.129v-.096l-.096-.16-.096-.288.064-.096-.128-.064.064-.192-.096-.16-.16-.032-.288.064-.128-.032-.096.064h-.128l-.032.064-.352-.032-.48.064-.064-.096h-.16l-.096-.064-.16.064-.16-.096-.128.096-.256-.064-.064.064-.096-.256-.064-.128-.224-.192-.128-.192-.032-.128.032-.352.064-.288-.096.032-.032.064-.992 1.472-.608.416-1.024.641-.448.16-.64.32.064.192-.416 1.216-.48-.064v.032l.288.544-.064.416-.352.16-.479.256-.448.16-.416.224-.512.256-.16.352h-.128l-.192.064h-.224l-.128.096-.064.224-.096.032-.032.128-.256.576-.128.064-.128.32-.032.192-.128.289v.224l.032.096-.064.096-.096.16-.256.096-.096.096-.032.096.192.224.032-.032.064.16.096.256v.288h.416l.16-.128.128-.032-.064.128.128.16-.096.096.096.096h.064l.032.096-.032.16-.16.192-.064.192.032.448-.16.288-.096.192-.064.32-.096.16-.064.192v.192l-.224.128.032.096.128.096v.064l-.096.32.064.224-.032.449.16.256-.224.288v.16l.128.16-.064.128.096.256.16.16.256.256-.064.096-.096-.032h-.224l-.224-.096-.128.032-.128-.032-.192.096-.352-.16-.288.064-.096.096-.032.128-.096.032h-.256-.096l-.096.096-.224.064-.224.064-.096.096-.16-.032-.128.128-.288.032-.128.064-.096.128h-.096l-.16-.064-.224.064-.128.096-.032-.032-.256.032h-.352l-.32.064h-.32l-.128-.064h-.192l-.256.064-.256.128-.32.064h-.096l-.16.16-.352.16v.256l-.096.256-.16.096v.032l-.16.128-.128.128-.192.064h-.128l-.416.128-.287.032-.064-.064-.352-.064.032.128-.096.064-.032.096-.192.16v.064l-.224.192-.064.096.032.064-.096.16-.064.064-.288.416v.161l-.096.16-.256-.128-.256.16-.16.224-.032.096-.096-.032-.256-.032-.64-.128-.384.16-.064-.032-.064.096h-.16l-.16-.192-1.664.8-.512.256-.064-.128-.224-.256-.32.032v-.032l-.288-.128-.352-.224-.128.032-.16-.096-.128-.128-.096-.064-.064.064-.224-.032v-.064h-.16l-.192-.064-.064-.064h-.256l-.128.096-.192-.064-.128.032-.064.096-.16-.064-.032-.096-.352-.224.032-.065-.128-.192h-.064l-.064.096-.192.096-.288.096-.256-.031-.191-.097h-.48l-.096.032-.192-.032-.064.032-.192-.16-.128-.256-.16-.128-.128-.096-.16-.288-.224-.16-.192.096h-.192l-.128-.032-.16-.032-.32-.128-.096-.064-.128-.096-.096-.032-.064-.096h-.032l-.032-.064-.064-.064-.032-.032-.096.032-.096.096h-.096l-.128.064-.064.128-.256.128-.064-.032-.128.064-.064-.032-.224.096-.032-.032h-.128l-.064-.064-.288.064-.064-.064-.224.064-.288-.096-.128-.032-.096.064-.256.096-.128-.032-.128.032-.288.032-.384.128-.096-.032-.128.096h-.064l-.128.032-.096.192-.384.16-.032-.032h-.288l-.224-.128-.224.064-.032.064-.224.064-.352-.096-.064.096-.16-.064h-.096l-.16.096-.064-.032-.096.096h-.128l-.064.128-.128-.128v-.192l.064-.096-.032-.288.064-.128.064-.032.064-.16-.064-.128-.064-.096-.192-.032-.16-.128-.256-.096-.096-.064-.4475-.064-.096-.16-.064-.224-.128-.096h-.0639l-.16-.032-.16.032-.192.128h-.128l-.032-.064-.096.064-.128-.032-.128.064-.096.064h-.0639l-.16-.192h-.128l-.096.096-.16-.064-.192-.256.256-.064.064-.16.096-.096.032-.128.192-.064.224-.032.0959-.192.064-.096.064-.224.064-.224.224-.224-.064-.512-.192-.16-.224.224-.6079-.384.16-.192-.064-.096h-.128l-.128.128-.032-.096.128-.096.064-.096-.288-.096-.064.032-.096-.288-.096-.096.064-.096-.1279-.065.0639-.192-.032-.032v-.064l.032-.256.512-.768-.032-.192.288-.128.096-.224v-.096l.128-.128-.032-.192.2879-.416.16-.16.096-.192v-.128l.096-.096.064.032.064.128.096-.032.192.096.2239.032.064.128.32-.096.2875-.128.128-.16h.224v-.096l.256.096.096-.16-.064-.032.256-.48.544-.128.64-.288.096-.096.256-.16.256-.256.128-.288.064-.192-.032-.192-.16-.481-.16-.288-.032-.384-.256-.064-.224-.192-.032-.256-.16-.32-.096-.096-.096-.064-.032-.064-.224.064-.128-.192-.064-.032-.128-.128-.032-.128.064-.096.32-.288-.032-.096-.608-.032.032-.256.416-.608-.128-.128.064-.32.032-.064-.064-.064-.032-.256-.128-.16-.096-.064-.032-.224.192-.352-.096-.16-.16-.064-.448.128-.48.064h-.4155l-.5439-.128-.384-.064h-.128v.192l-.064.064-.064.256.064.128-.0959.064-.16-.096h-.416l-.032.032-.128-.096-.288-.096-.3519-.16-.096-.16-.192-.16.096-.16.128-.32.1919-.064.096-.129.032-.16-.0639-.128.0959-.192.032-.352.128-.16.32-.288.032-.096.192-.128.096.032.096-.16.1279-.096.096-.192.032-.16-.032-.064v-.48l.032-.16-.4479-.128.16-.608.1599-.096.0641-.16.0959-.096v-.448l.096-.128-.064-.096-.032-.192.032-.032.16.064.064-.128.032-.416-.032-.352v-.064h-.096l-.16-.128-.16-.321-.0959.032.064-.288-.096-.224-.064-.032v-.096l.1919.096.128-.128.192-.032.256-.064h.16l-.032-.128.224-.032.032-.096.128.064.0639-.032v-.16l-.1599.032.032-.096h.096l.0639-.064.096.032.096-.16.16-.416.1595-.448v-.16l.448-.416.288-.32v-.032l.288.064.064-.064h.192l.032-.064.096-.064.032-.096.128-.16.192-.064.096-.096.16-.224.064-.032.288-.288v-.192l.064-.256v-.192l-.192-.224-.16-.064-.032-.192-.192-.449-.192-.352-.032-.096h-.128l-.128-.128-.192-.032v.064l-.128-.064-.096.128h-.224l-.256-.128v.032l-.16-.064h-.16l-.128.096-.2235-.128h-.096l-.032-.192-.096-.096.096-.256v-.32l-.4479-.032.064-.32-.448-.064-.096.352h-.288l-.16.032.128.096-.0639.256.0319.064-.1919.224-.128.064-.032.16.064.16.256.064.1919.096.224.064.16-.032-.032.256.16.129v.064l.16.064-.064.672h-.16l-.096.192-.5759.096h-.224l-.16-.16-.16-.032-.096.064-.384.096-.096-.064-.0319-.192.1599-.032.064-.32-.096-.192-.1599-.032-.064-.128.096-.129v-.16l.0959-.448h-.3199l-.192.032-.192.096-.064-.064-.128-.352.192-.256v-.16l.064-.384-.064-.384-.128-.672-.032-.064-.096-.096-.16-.16-.032-.096.064-.064-.096-.192-.1919.192-.128-.032-.128.064-.16-.416-.224-.288-.224-.256-.16-.128-.0959.128-.16-.096-.096.064-.224.032-.192.128-.16.16-.192-.064v-.128l.064-.032-.0319-.256-.064-.128.0319-.256-.0319-.256-.416-.288-.288-.352-.064-.288-.16-.065-.3519-.128h-.128v-.224l-.128-.032.064-.32v-.064l-.288-.032h-.32l-.096-.032-.2239-.192v-.032l-.16-.128.032-.128-.192-.192.096-.128-.096-.096.032-.128-.128-.064.064-.096-.096-.064-.064-.224-.16-.16v-.128l-.224-.064-.0959.224-.256-.064-.16.352.128.128-.16.032-.224.192h-.128l-.064-.064-.16.064-.1599.032-.096-.064-.064.16-.096.064-.128-.064-.064.064-.128-.064-.064.096-.256.128.064.096-.096.064.064.096-.064.064-.1599.064-.224-.256v.096l-.32-.256-.064.064-.128-.192-.096.416-.2239.288-.128-.096.1599-.16-.0639-.064.1279-.288-.0959-.288-.896.512-.096.064-.096.032-.1279.096-.992.576-1.1199.641-.2559.128-.032-.096-.16.16-.16.032-.096-.032-.064.064-.224-.16-.1599.064-.512.096-.032-.16.16.032.16-.128-.064-.064-.032-.129h.064l-.032-.448-.128.096-.064-.192h.128v-.192l-.064-.128-.224.096.032.096-.224.096-.064-.064-.224.096-.1919-.032-.384-.224-.256-.16v-.16l-.288.128.032-.096.064-.064-.032-.16-.0959-.288-.224-.256-.224-.128-.224-.064h-.128l-.32-.096-.0639.128h-.096l-.16.064-.16-.032-.256-.096-.096.032-.032.096.064.16-.032.224-.16.256h-.1599l-.256.064h-.224l.256-.448-.096-.352-.224-.096-.256-.096-.192.288-.064-.064-.1919.192-.192-.032-.128-.096h-.224l-.256-.096-.128-.032-.2559.064h-.224l-.192.16-.128.032-.192-.192-.096.096-.128.384-.1279-.032v-.096l-.192.032-.032-.064-.064.064h-.16l.032-.064-.256-.128h-.192l-.096.096.096.16-.2879-.064-.032.16-.16-.032v.224l-.128.064-.032.128-.096-.032-.096.096.288.128-.192.128-.128.16.096.192.096.064-.032.064h-.096v.481l-.256-.064-.032.448.032.224.16.192-.128.192.064.096-.192.224-.064.064.128.128v.128l.064-.032.096.16-.096.096-.096-.032v.128l-.4799-.192-.064-.192h.064l-.064-.16.032-.096-.128-.128-.128-.032-.128-.128-.032.032-.064-.064-.128.064h-.0959l.1279.128-.064.096.096.096-.064.128.32.128.096.352-.096.064.064.064-.064.096.128.096.16.064-.64.16-.0959-.096-.032-.224-.128-.096.032-.032-.16-.128-.064-.16-.352-.192-.128-.032-.032-.224.096-.064-.4799-.256-.224-.096v-.032l.3519.128.032-.128.096.032-.032.096.064.032.064-.16.032-.128-.3199-.096-.032-.096-.064-.096-.128-.032.032-.128-.128-.128-.256-.128.032-.096-.096-.032-.032-.225h-.192v-.16l-.064-.064.192-.384.032-.096-.096-.16-.16-.064.032-.096-.2559-.128v-.16l-.224-.032-.032-.128.064-.032.064-.224.032-.512h-.032v-.448l-.096-.32-.064-.096-.192-.032-.16-.096-.096-.256.064-.064-.032-.096h.064l-.032-.16v-.064l.256-.192.064-.192.128-.096v-.128l.064-.032v-.16l.096-.032-.032-.064.064-.16.064-.064v-.192l.064.032.1599-.096.032-.16-.064-.192v-.224h-.032l.064-.353-.032-.192.032-.128.096-.128-.128-.32.032-.192v-.288l-.128-.32.064-.064-.1279-.224v-.256l.1279-.032v-.192l-.2239-.064v-.416l.032-.16v-.192l-.032-.576.064-.032-.032-.128-.16-.192-.192-.064-.16-.16-.096-.192.064-.128-.128-.064.128-.032.032-.256.192-.224-.096-.192.032-.128-.16-.257-.16-.064-.064-.16-.128-.128v-.096l-.064-.064-.0959.096-.096-.064v-.064h-.128l-.192.032.032.128-.064-.032-.416-.512-.096-.224-.064-.064-.0639-.192-.128-.2558.032-.064-.128-.2561.128-.064-.256-.224-.544-.4481-.2559-.32-.384-.6081-.064-.064-.32.192-.3839.288-.128.0641-.512.096-.288-.064-.128-.1281.032-.192-.2239-.16-.16-.032-.064-.096.128-.1281-.192-.16-.16-.032.032.032-.16.096v.032l-.224.128-.2239-.032-.032-.032-.16.064h-.096l-.064-.064-.096.064-.16.0321-.064-.0321-.096.0961-.096-.032-.096.096-.064.096-.1919.096-.128-.096-.192-.064h-.16l-.128.032-.032.064-.288-.064-.1279.096h-.096l-.128.224-.16.0961-.096-.032-.16.064-.128.128h-.064l-.2879.16-.032.064-.096.032-.096-.128v-.16l-.096-.3521.096-.096-.192-.4161.384-.6081.096-.032v-.128l.3199-.16.096-.128.256-.1921.064-.096.032-.192-.064-.032.064-.1281.096-.32-.032-.16.128-.1921-.096-.096-.192-.032-.128-.064h-.064l-.224-.224-.064.032-.032-.096-.096.032-.0639-.1281-.096.0321-.192-.0641-.064.096-.032-.064-.256.064-.128.1281-.192-.1921-.2559-.096h-.128l-.032-.064-.16-.032-.256-.192-.032.096h-.224l-.032.064.064.096-.16.1601-.0959.192-.16.16v.032l-.224.2241-.16.064-.032.096-.192.192-.032.16.064.1921-.064.16-.096.096v.064l-.096.064.096.064-.096.3201-.0959.096-.032-.032-.064.096-.128-.128-.128.096-.064-.16-.16.064-.032-.128-.032-.1921-.128.1281-.032-.064-.224.192.032.032-.2239.288-.256.064-.128.0641h-.128l-.096.096-.096-.064-.128.032-.16.128-.2239.096v.096l-.384.064-.096-.032-.224.096.032.0321-.096.128-.2559-.2241-.064.064-.128.1921-.224.224-.256.064-.096.064h-.128v.0961l-.1919-.0961-.032-.096-.16-.064-.096-.192v-.16l-.256-.2241-.064-.224-.128-.1601-.32-.064-.0959-.064h-.288l-.288-.16-.032.032-.16-.096-.224-.032-.0959-.096-.192.096h-.256l-.128-.128-.064-.1281.096-.192-.128-.128-.032.064-.064-.128-.16-.096-.064-.1281v-.16l-.2239-.064h-.32l-.256-.032-.192-.064-.16-.128-.1599-.032-.288-.1921-.064-.064-.064.064-.128-.192h-.128l-.128-.192.064-.3521-.128-.064-.032-.256-.096-.0641-.0959-.192h-.096l-.064-.128.096-.4161.064-.032-.032-.064-.096-.256-.064-.4481h.192l.0639-.032-.0959-.3841-.128.064-.16-.288.32-.128.2239-.1921-.128-.16-.032.032-.2879-.128.032-.2561-.032-.32.064-.096v-.128h.16l.0319-.2241v-.224l-.1599-.2561-.224-.128.064-.7041-.032-.096.096-.064-.064-.096.064-.2241.128-.192-.32-.096.096-.3521h-.128l.032-.4161h-.16l.032-.128h-.096v-.16-.192l-.064-.0641.032-.128-.192-.16-.064-.16-.1919-.128.0319-.1281-.3519-.256.064-.096-.224-.096.032-.1601.064-.128.096-.032.064-.3521-.224-.064.032-.096-.192-.16-.064-.2881-.16-.064v-.096l-.3199-.288.1279-.3201.096-.064.096-.256-.032-.2241-.16-.096-.064-.064.096-.096-.3839-.6081.064-.128v-.2241h.064l-.032-.256.064-.064-.096-.3201.16-.096.2239-.096.064-.096.256-.2241.128.032.192-.096.128-.096h.1919l.096-.096-.032-.064-.2239-.128-.064-.1601-.064-.096.064-.032-.128-.16.064-.16-.224-.1281.032-.064-.16-.224.032-.128.224-.032h.256l-.064-.1601-.064-.032v-.16l-.032-.096.064-.2241.064-.288-.032-.096-.352-.096-.224-.1921.096-.128-.224-.256.032-.032-.192-.2881-.064-.032-.3199.064-.128.096-.128-.16h-.192l-.096.096-.224-.096-.3199.2881h-.096l-.096-.1921-.352-.064-.128-.064-.096.096.064.032-.064.096-.2559-.096.2559-.128-.032-.224.096-.096-.128-.1921-.1279-.096v-.032l-.096-.064-.032.096-.32-.096-.352-.3521-.096-.032v-.192l.064-.16.256-.1281.128-.16.064-.32-.16-.2241-.224-.128-.064-.064-.16-.032-.1279-.128-.128-.3521.032-.256-.096-.1601-.096-.192-.192-.288.032-.1601-.128-.064-.16-.096-.256-.16.032-.096-.032-.2561-.2239-.288-.064-.032-.096-.1921-.128-.32-.16-.2561-.032-.032-.16-.256-.128-.16-.192-.4161-.0319-.096.0319-.16.096-.0321-.096-.192v-.128l-.0959-.096-.16-.032-.8.256-.3839.128-.192-.032-.064-.192h-.032l-.064-.192-.096-.064-.3519-.2881-.16-.032-.128.096-.192.5121.096.064-.064.2241-.16.224-.096.128-.7679.5761-.032.128-.16.1281-.256.032-.192-.032-.2879-.2561-.768-.4161-.096-.064h-.2239l-.256.064-.16.064-.032.0961-.128.064h-.096l-.3839.16-.128.256-.064.1921-.096.096-.128.064-.32-.128-.096-.064-.032.096h-.096l-.3199-.2881-.128-.064-.16.064-.032.1281.064.096-.16.192-.384.2881-.096.064-.1599.096-.128.128-.384.2881-.192.096-.224.16-.2239.032-.128.064-.096.224-.064.0961-.256.256-.256.096-.192-.032-.0959-.032-.128.032-.064-.032.096-.096-.064-.128-.224-.096-.032.096-.128-.096-.096.096-.192.064-.2559.32-.32.2561-.192.096-.096.224.064.1601v.256l.16.096.064.064v.1281l.096.032.064.224-.032.128-.192.096-.224.032-.064.0961-.128-.0641-.128.1281-.128.288-.0639.192.1279.2881.032.224-.096.5121.032.16-.0959.1921-.128.096-.096.128v.128l-.096.1601-.128.096-.064-.064-.352-.0641-.2239.0321-.128.16.064.128v.3201l.064.128-.032.192-.288.16-.16-.096-.096.064-.128-.128h-.032l-.096-.192-.096-.128-.3199-.5441-.288-.3201-.16.128-.224.2241-.256-.1281h-.1599l-.16.0641-.16-.2881-.032.032-.224-.224-.256-.2881v-.064l-.2879-.32-.16-.3841-.192-.3521-.448.1601-.064.064-.6079.096-.064.064-.32.096-.256.2241-.2239-.1601v-.032l-.128.064-.096-.096-.064.064-.16-.192-.224-.16-.096-.128-.16-.0641v-.064h-.1599l-.192-.128.064-.064-.128-.064-.032.064-.064-.032-.064.064-.064-.096.096-.16-.128-.096.064-.2561-.192-.096-.128-.3201-.096-.448-.064-.064-.032-.1921.096-.096-.032-.3841.032-.224-.032-.096-.1279.096h-.16l-.128-.256-.064.064-.128-.2241-.416.032-.096-.096-.1599-.352.1279-.1601-.0959-.224-.288.096-.064-.032.064-.096.096-.3201.16-.384-.096-.128-.16-.1601-.192-.064-.064-.224-.032-.032-.256-.1921-.192-.032-.2239-.128-.032-.064-.192.096-.064-.224-.192-.224-.224-.2561-.064-.192.032-.1921-.16-.064-.064.032-.1279-.544-.064-.0961v-.224l-.096-.096.128-.1601v-.128l.064-.064-.064-.128.1599-.16-.1279-.1601-.096.0321-.064-.1281-.064-.032-.128-.16-.256-.064-.064-.096-.128.064v.096h-.3839l-.67198-.032-.28797.064-.31997-.032-.28798.032-.03199-.224-.22398-.2881.03199-.064-.09599-.096-.25598-.2561-.06399.1281v.16l-.25598.224-.09599.0961-.19198.128-.19199.16-1.1199.032-.15998.032-.22398-.4801-.09599-.416-.15999-.5441-.032-.4161-.06399-.4481h-.12799l-.09599-.128-.09599-.064-.064.096-.15998-.128-.032-.096.06399-.096v-.1281l-.09599-.128.032-.352-.032-.0961-.19198-.032-.06399-.128-.22398.096-.25598.128-.032-.128-.15999.064-.06399-.064-.032-.096.032-.16v-.096l.15999-.2881.12799-.064.03199-.192.064-.032.25597-.1921v-.096l.15999-.16-.032-.3841-.15998-.192-.032-.256-.15999-.1921.032-.16.032-.032.06399-.16.09599-.096v-.2881l-.06399.032-.12799-.128.032-.16v-.1601h-.15999l.032-.16.032-.032.09599-.256h-.064l.22398-.4481-.06399-.128.032-.1601-.15999-.032-.06399-.192.06399-.096-.032-.128-.12798-.1601.06399-.192.12799-.128.06399-.2241-.09599-.064.064-.096v-.064l-.15999-.16-.06399-.2241h-.064l-.19198.1281-.12799.032-.19198.064-.12799-.096-.12799-.3841.28797-.16.15999-.128.09599-.2241.06399-.064.19199-.224.15998-.096.19199-.1921-.032-.032.31997-.16.22398-.224.032-.1921.06399-.032-.06399-.192-.064-.128.064-.0961.19198-.032.12799-.064.22398-.032h.06399l.12799-.064.15999-.256-.31997-.7041-.09599-.3521-.064-.064-.19198-.3521-.032-.16v-.16l-.19198-.3521-.41596-.5441.06399-.064-.12799-.192.032-.096-.12799-.1601.032-.224-.15999-.032.09599-.16.12799-.1601-.12799-.224-.09599-.16v-.1921l-.19198-.032h-.09599l-.38397-.064-.19198-.096-.19199-.16-.28797-.16-.31997-.2561-.19198-.256-.064-.096-.06399-.064.09599-.2561-.22398-.224-.064-.1921.096-.256.22398-.096-.12799-.7041-.47996-2.4004-.25598-1.1842.064-.6401-.22398-.5121.03199-.032-.86392-1.7923.95992-.5441 2.2398-1.2482 1.31188-.8002.35197-.352.54395-.2561.92792-.5761.92792-.48.73593-.3521 1.31188-.6721.99191-.6401.256-.1921.128-.16.096-.032.3199-.16.288-.096.416-.1921.064-.096.2559-.096.256-.128 1.0559-.6721 1.4719-.9602 1.3759-.9281 1.6638-1.1202.352-.2241.448-.352.3519-.2561.224-.128.288-.192.16-.2241.128-.032.7359-.5441.352-.256.3839-.32.224-.0961.32-.288.5119-.5441.064-.128.32-.1921.32-.096.064.1281.096.032.1279-.0641.416-.224.096-.096.5759-.3521.192-.128.096-.064.352-.256.4479-.2561.992-.6401.2559-.128.544-.3521.6079-.416.064-.032.16-.1281.224-.16.128-.096.5759-.3521.352-.256.256-.192.192-.1281.2879-.16.832-.6081.7039-.5761.096-.128.192-.192.256-.2241.2879-.16.512-.256.16-.1281v.064l.2239-.096.224-.128.32-.16.288-.2241-.192-.128.128-.064.16.192.2879-.096.128-.064.32-.128.224-.064.32-.128.2239-.1601.256-.064.352-.16.256-.064.2559-.096.48-.2881.192-.128.2559-.224.192-.064.256-.2561-.064-.128.032-.192-.128-.2561-.3199-.8641-.032-.2241.096-.224.7359-.7681.224-.1601.6719-.064.096.032 1.2159.2241.16.064.16.224.1599.6721v.096l-.0959.2241.032.224.2239.16.16.0321.512.032.6719-.1281.576-.192.4159-.128.256-.096.352-.1921.4799-.32.416-.128.32-.0961.3199-.128.48-.192.416-.096.2559-.096.544-.1281.224-.096.7999-.256h.32l.2559-.096.256-.0961.128-.096zm171.5051 81.3576.16.192.064.2241.064.096.384-.032.192.032h.256l.064-.16-.064-.1281-.16-.192-.256-.128-.096-.192-.064-.1601-.256.032-.288.3201zm-.8-2.8805.096.032.16.2241-.032 1.1521.192.0641.224-.032.224.096.064.096.096.096.288.224h.128v-.416l.128-.1281.064-.192.096-.096.192-.064.096-.128.032-.2561.096-.256v-.16l.064-.0961.192-.128.128-.064.128.032.16.096.096.032.191-.064.064-.128v-.288l.064-.1921.128-.128.192-.128.096-.032.096-.2241v-.384l.032-.1601.096-.16.064-.224v-.3521l.032-.416.064-.1921-.736-.288-.192-.032-.096.256-.064.096-.031.2241-.192.288-.352.3201-.32.16-.096.032v.16l-.16.2241.032.096-.064.16-.672.3841-.16-.064-.064.192h-.128l-.032.096-.096.032-.032.064-.352.3201-.192.096zm4.383-3.9046.128.032v-.096l-.096-.0321zm-83.704-78.70115.032.032.16-.032-.032-.12803-.096.03201zm78.873 74.25235.8.9282.192.16-.192.3521-.256.096.032.192.32.16.256-.288.16-.064-.096-.2241.16-.032.096-.224.192-.128.128.096h.064l.128.128h.096l.032-.096.384.128.032-.064.16.096.128-.096.128.064.096-.096 1.087.5761h.16l1.088-.064.352-.128.352.096.16.192.032-.096.192-.192.032-.1921-.128-.288-.288-.7361-.128-.1601-.192-.064-.352.1601-.416.096h-.256l-.16-.1281-.096-.128-.224-.128-.128-.288-.16-.1281h-.192l-.096.0961-.096.16.032.192-.032.128-.128.1601-.224.096-.543.032-.544.064-.224-.128h-.128l-.288.096-.288-.064-.096-.096-.064-.1281-.032-.416h-.096l-.224.256-.128.032-.064-.096-.128.064-.128-.032-.16.032zm-.032-1.7603.128.1921.32.352.096.096.256.1281.256.192-.128.224.16.096v.0641l.096-.2561.064-.128.512-.4801.064-.224-.096-.3201-.128-.128-.32-.032-.288.128-.448.064h-.192z" fill="#fdfbf5" fill-rule="evenodd"/><path d="m64.1357 19.9429-.256.416-.288.3201.16.224h.032l.224.2881-.256.064-.064.16.096.16-.128.1921-.096-.096-.032-.0961-.1279.032-.096.032-.16-.096-.128-.16.032-.096-.32-.16-.032-.0961-.192-.128-.1919.032-.096.4161-.096.064-.064.064-.128.032-.16-.064-.064-.064-.384-.032-.064.3201-.1599.288-.096.128-.288.032-.256-.5121-.7039.1281-.128.032.128.6401.3199 1.6963.128.6401.192.9921-.032.032-1.0239.096-.32.0321-1.8878.192-.8639.064-.7039.032-.256-.032v-.064l-.544-.192-.192-.0961-.2879.0961-.096-.2881-.096-.6401-.192-.256-.128-.032-.096-.0961v-.128l-.096-.064-.128.128-.064.128-.0959.0641h-.128l-.192-.0961-.064-.288-.064-.128-.16-.096-.288-.0961-.128-.128-.3519-.5761v-.128l-.096-.096-.192-.032-.288-.096-.128-.0961-.096-.128v-.128l.032-.128.16-.032.128-.064.064-.1281-.096-.224.032-.16v-.128l-.128-.0961-.192-.128-.2239-.128-.096-.096-.192-.3521-.064-.256.096-.16.128.032.16-.064.3519-.2241h-.096l-1.1199-1.2162 1.6639-1.8563-.128-.7041-.5759-.7041-.032-.5441.0959-.4481-.5439-1.0242h-.128l-.128.096-.256.0961-.2559.096h-.32l-.7999.256-.224.096-.544.1281-.2559.096-.416.096-.48.192-.3199.128-.32.0961-.416.128-.4799.32-.352.1921-.256.096-.4159.128-.576.192-.6719.1281-.512-.032-.16-.0321-.2239-.16-.032-.224.0959-.2241v-.096l-.1599-.6721-.16-.224-.16-.064-1.2159-.2241-.096-.032-.6719.064-.224.1601-.736.7681-.0959.224.032.2241.3199.8641.128.2561-.032.192.064.128-.256.2561-.1919.064-.256.224-.192.128-.48.2881-.2559.096-.256.064-.352.16-.256.064-.2239.1601-.32.128-.224.064-.32.128-.128.064-.2879.096-.16-.192-.128.064.192.128-.288.2241-.32.16-.224.128-.2239.096v-.064l-.16.1281-.512.256-.2879.16-.256.2241-.192.192-.096.128-.7039.5761-.832.6081-.2879.16-.192.1281-.256.192-.352.256-.5759.3521-.128.096-.224.16-.16.1281-.064.032-.6079.416-.544.3521-.2559.128-.992.6401-.4479.2561-.352.256-.096.064-.192.128-.5759.3521-.096.096-.416.224-.1279.0641-.096-.032-.064-.1281-.32.096-.32.1921-.064.128-.5119.5441-.32.288-.224.0961-.3839.32-.352.256-.7359.5441-.128.032-.16.2241-.288.192-.224.128-.3519.2561-.448.352-.352.2241-1.6638 1.1202-1.3759.9281-1.4719.9602-1.0559.6721-.256.128-.2559.096-.064.096-.416.1921-.288.096-.3199.16-.096.032-.128.16-.256.1921-.99191.6401-1.31188.6721-.73593.3521-.92792.48-.92792.5761-.54395.2561-.35197.352-1.31188.8002-2.2398 1.2482-.95992.5441.86392 1.7923-.03199.032.22398.5121-.064.6401.25598 1.1842m62.23449-25.1882.128.032-.064.096 1.3119.6401.3839.192.032.16m0 0 .128.1601.256-.064.8959.48m0 0 .032.0321.16-.0641.064-.128h.8319l.224.128.8959.5441.064.2561m0 0 .288-.064.4479.064.192.288.032.128.736.2561.2559.096.32.064m0 0h.128m0 0 .096.032.032-.096.224-.064h.2559l.224.096 1.2799.2881.032-.0961.192.0961.416.7361.4159.192.224-.224.032-.1921.288.1601m0 0 .4479.384.608.2241-.384.9921-.064 1.8883.096.7362-.032.256.128.2241h.128l.224.096.128.192.3519.064-.064-.288h.128v.064m0 0 .256-.032.6719.352h.192l.064-.032.096.032.448-.256.096-.192.1599.032.224.128.192-.064.256.128.16-.16m0 0 .224.224h.2239l.16-.16m0 0 .288-.1921m0 0 .128-.128.6399-.384m0 0 .224-.1281.32-.16.256.3841m0 0-.192.5121m0 0h-.032m0 0-.384.32-.32.224m0 0 .128.1921.192.128.096.128.032.128.064.1921.128-.096m0 0h.064m0 0 .3199-.2241.288.16m0 0 .096-.096.256-.128.384-.128.1919-.2561.128-.032.128.0641-.032-.1921-.128-.4801.16-.032.032-.192.384-.032.224-.2881.2559.5441.16.2561.416-.16-.032-.0961.256-.096h.2239l.16-.096.32.096.064-.032.032-.192.096-.128.032-.1281h.064l.064-.064-.032-.192.064-.096.4479-.064.224-.032m0 0h.128l.128-.096.096-.2561.064-.096.224-.4161.1279.064.256-.288.448-.16v-.1281l.192-.16.5119-.32.192-.0961.064.0641.32-.0641.1599.1921.064.16m0 0 .16-.096h.128l.192-.064.16-.128.096-.0961.064.0961.128.288.032.032.8959-.16.192-.064.2239-.096.128-.2881.448-.256-.032-.064.224-.0641.224-.16.0319-.032.736-.5441v-.096h.16l3.2317-2.3364.7999-.6081.384-.256 1.7594-2.2404 2.848-3.6806-.928-.5761-.288-.4801-.128-.3521-.128-.544 3.616-.2241m0 0 1.76-.096h.512l1.216-.032.32 1.5683.096.384.128-.032.32-.096.128.064.928.096.095.032.032.064.096-.064.544.1921m0 0 .32-.032.032.064.288-.096.288-.032.32-.1281.256-.16.992-.5441.128-.096.576.128-.032-.096m0 0-.064-.224-.128-.2241-.16-.16.384-.3841-.704-.9281-.8-1.0882-.928-1.1842-.48-1.28021.384-.32005.032.032.064-.32005.224.06401-.064-.28805.032-.19203-.128.03201v-.12803l.288.09602.096-.35206-.192-.032-.032-.25605.032-.16002.096-.09602-.032-.12802-.288-.41607-.256.09602-.064.032-.448-.16003.032-.09601.096-.06401.064-.19203.128.09601 1.056-.57609.832-.44808m0 0 1.632-.86414.864-.09602.48-.12802.128-.09602.032-.09601.256-.32006.128-.09601m0 0 .192-.09602h.224l.384.09602.992-.16003m0 0 .288-.06401 1.856-.28805.608.89615-.576 1.21621m0 0-.16.32005m0 0-.192.38406m0 0-.192.41607.128 1.05618m0 0 .032.12802m0 0 .032.22404m0 0 .032.38406m0 0v.03201m0 0 .064.28804m0 0 .064.44808 1.823-.73612.544-.22404.448.09601.032.06402m0 0h.352v.032l.928.16003m0 0 1.6.32005.256.09602.192.19203.256.09601.128-.06401m0 0 .128-.032m0 0 .064-.03201.128-.16002m0 0 .096-.12802m0 0 .096-.03201.096.09602.16.06401h.192l.32-.09602.32-.032-.128-1.21621m0 0-.064-.38406m0 0v-.16003l.864-.48008.096-.032.224-.16003.416-.03201.096-.19203m0 0 .256-.57609m0 0 .032-.06401m0 0v-.06401l.224-.35206.064-.09602-.064-.06401v-.09602l.832-.16002m0 0-.032-.22404.128-.12802m0 0 .128-.12802.544-.99217.032-.032 1.023-.51209v-.12802l.16-.35206.032-.09601-.064-.12803.224-.32005.16-.06401.192.032005m0 0 .096-.224037.832-.256043.448.096016m0 0v.160027l.096.128021.064.160031.096-.03201.064.09602h.128l.096.032.16.03201.064-.12802.064-.03201.128.03201.064-.03201.256.22404h.192l.288.16002.224.03201.192.16003.096.28804-.064.19204.192.28804.032.28805.224.09602.32.032.32-.032.16.032.256.09602-.096.22404-.032.57609-.096.12802-.064.22404-.064.76813.128-.03201.352.22404-.16.22404-.224.06401-.16-.25604-.096.12802-.128.32005-.096.12802v.06401l-.096.09602v.06401l-.288.19203.128 1.24821h-.032v.12802l.224 1.05618-.032.16002h.064l.064.09602.224.06401.032-.06401.192.03201.032-.09602.192-.06401-.128.25604-.16.25604-.064-.032.064-.12802-.096-.03201-.032.06401-.096-.06401.032-.06401-.224-.09601-.192-.03201m0 0 .032-.09602-.16-.09601-.192.06401-.064-.12802-.16-.09602-.096-.09601-.064.06401-.128-.12802-.096.032-.192-.032-.096-.19204m0 0-.064-.032-.096.09601-.16-.06401-.064-.06401-.096.06401-.096-.06401-.064.06401-.064-.032h-.128l-.096-.09602h-.128l-.096-.22404-.064-.06401-.16.03201m0 0h-.192l-.192.06401h-.224l-.32.16003-.064-.06401-.064.032.128.12802v.16003h.032v.19203l.064.06401-.064.09602.096.06401-.128.16003v.25604l.128.22404h.064v.12802l-.064.032.16.12802.096-.032h.16l.16.19203.128.09602.224.032.064.12802.128.03201.16-.16003.064.09602m0 0v.032l.256-.09601m0 0 .384-.09602 1.376-.22404.8-.09601.416.16002.064-.032.096.06401.064-.16003h.128l.064.09602.096-.03201.128.09602.192-.06401v.19203l.032.09602h.128m0 0 .224.032.064.09602.064-.12802-.096-.03201-.032-.06401.16-.16003h.096l.064-.06401h.096l.032-.09601.256-.06401.032.12802.096-.03201.096-.12802.064.03201m0 0 .032-.12802h.192l-.032.12802.064.032.16-.06401.096.03201.224.22403.128.06401m0 0 .032.06402.064-.06402m0 0-.064-.09601.128-.06401.032-.06401.192.09601-.032.09602h-.128l-.032.19203.16.03201.032-.09602m0 0 .032-.06401m0 0 .032-.03201m0 0 .032.03201-.064.19203h.128l.032.09602.224.16001-.064.2561.096.16v.096l.448.16-.096.1601.128.064.288-.032.095.16h-.319m0 0h-.096l-.16.16h-.096l.448.16.064-.032m0 0 .351-.16-.16-.096m0 0-.032-.224.192-.0961.064.3841v-.032l1.024-1.21621 1.056-1.31222.096-.06401m0 0 .416-.38406m0 0 .512-.41607m0 0 .512-.41607m0 0 .48-.41607m0 0 .128-.06401.16-.25604.16-.06401.096-.09602-.032-.06401.032-.38406v-.16003m0 0 .064-.09602.064.03201.064-.09602.064-.032.064-.12802.032-.19203-.064-.12803.032-.06401v-.16002m0 0-.096-.25605h-.064l-.032-.22403.032-.22404.192-.54409.32-.25604m0 0 .032-.03201m0 0 .096-.16003.16-.32005.096-.16003.16-.12802.128-.06401m0 0 .16-.12802.128-.06401.064-.12802h.352l.096.06401-.096.5761.032.06401-.096.06401.128.19203.032-.03201.288.48008.032.16003h1.632l.224-.03201m0 0 .16-.032.128.38406.832 2.01634.608 1.53626-.576.89614-.16.25605-1.312 2.52838 1.792 2.0164m0 0 .991 1.1522.16.5121.32.448.416.4161.096 1.4402.064 1.6323.864.224.864.2561.64-.5121.256-.128.8-.2881.384-.032.224-.224.64.4161.16.128 1.728 1.1522-.16.6401-.48 1.8243-.32 1.1202.704.6721 1.536-.5441 2.015.5441 1.184-.2241m0 0 .864.0321m0 0 .384.032.224-.1281.16-.224m0 0 .032-.224m0 0 .128-.2241.064-.16-.032-.096m0 0v-.128m0 0 .032-.0641m0 0 3.04.8642 1.28.4481.512-.6721.448-.6722.192-.032.128.064.16-.384.064-.2241 1.376-.224.32-.352.416-.3201.064-.3521.096-.192.223-.16v-.16l.288.032.864.256.832.192.192.5761.608.7362.736.8321.224.192.64.4161.064.032.064.224-.032.1601h.064l-.032.256h-.032l-.032.256h.064l-.096.2881.064.16m0 0v.2561l-.096.256v.2881l.224 1.4082.064.6401.032.128.352.128.48.1921 3.808 1.5682.576.2561.384.224.096.3521-.256.064.48.8321.192-.096.192-.032.319.064h.192l.224.096.032.1921m0 0 .064-.032m0 0 .16-.0641.032-.096.128.064.224-.096m0 0 .064-.064h.096l.16.192m0 0 .192.0961.064-.1281.096.032.224-.032v.1281l.384.064.096.16.32-.3201.288-.096h.128m0 0 .032-.032.288-.064h.16l.032.064.224-.032v-.096h.32l.064.128v-.16l.352-.2881.192.0641.256.256m0 0 .224.064-.064.096.704.096.576.4801-.16.3841-.064.128.032.064.352.064.032.032-.192.096h-.064l-.224.1281-.128-.032m0 0-.032.064.032.4801.192-.032.064.032v-.1281h.128l.032.2241.064.064.096-.096v.384l-.192.1601.064.032-.16.256.128.032.064.3201.32-.1281m0 0 .064-.032m0 0 .064-.032.064-.16.128-.064m0 0 .288-.16m0 0v-.032m0 0h.224m0 0h.032m0 0 .064-.032m0 0 .256-.1601-.032-.128.16-.192.16.064m0 0h.032m0 0 .224.192m0 0 .128.128.064-.032v-.192l.064-.064v-.096l.416-.3521.096-.128.192.16v.032m0 0 .064.1601h.096l.224.288-.064.192.16.064.032.0961.16.032m0 0-.064.128-.064.224.064.032m0 0 .192.096.16.1601.16.192h.096l.096.096.415.2881-.256.16-.159.064-.192.16-.096.1281-.032.192.032.192-.128.3201-.128.128h-.416l-.256.032-.256.096-.256.2561-.128.224-.032.064-.224.2881-.096.032-.16.192-.096.3521-.032.192.032.16.096.16.192.1601.192.032.448-.064.16.032.16.096.192.16.096.16v.2561l-.064.352-.096.1601-.256.224-.16.096h-.096l-.48-.288-.224-.064-.16-.0321-.192.0321-.16.096-.224.16-.16.192-.064.1601.032.192.096.16.096.032.288.3521.064.256v.16l-.032.0961-.288.192-.128.128-.032.16.096.1601v.192l.096.16.064.2561v.192l-.128.224-.16.0641-.192.032-.16-.032-.16-.0641-.288-.224-.32-.096h-.192l-.128.128-.064.16.032.0961.032.256-.032.4481-.064.256-.288.6401-.16.1921-.064.16-.192.192-.096.3201.032.128.16.224h.096l.32.064.288.1601.128.16.096.256-.032.2561-.224.256-.032.096-.192.2881-.096.16-.064.256.032.2561.064.256.032.4481-.192.3201-.448.384-.128.2241v.128l-.16.192-.064.2561-.096.16-.192.192-.096.032-.32.032-.096.032-.128.1601-.064.352-.128.2241-.064.032-.224.16-.16.32-.096.032-.256.3841v.2561l.128.256.128.096.224.096h.192l.192-.032.288-.192.064-.192.128-.1281.16-.096h.096l.256.096.128.0961.224.192.128.224.064.2561-.096.192-.128.096-.256.032-.288.192-.064.0961.032.096v.192l-.128.2241m0 0v.192l-.192.384-.192.1921-.064.032-.256.256-.064.1601-.064.064-.16.224-.064.16-.064.2561.096.5121-.032.256-.128.256-.128.1281-.224.128-.256-.064-.256-.2241-.064-.064-.192-.032-.16.032-.256.064-.192.2241-.032.256.064.096.032.2561-.032.192-.064.256-.192.3841-.32.192-.128.0961-.16.192-.224.5121.032.288-.192-.064h-.256l-.16-.064-.064.096m0 0-.096.064m0 0h-.031m0 0-.128.096-.16.0321-.032.128-.16.128-.128-.064-.192.256-.096-.096-.192.16-.032-.032-.224.2241.224.224.096.064-.128.128-.352.2881.16.096-.096.128m0 0v.032m0 0 .064.096-.096.1281.096.032-.128.128.128.064-.192.2881.064.128.064.224-.128.064.032.16m0 0h-.128l.032.1281.16.32-.064.032m0 0 .064.064m0 0 .032.0641-.032.064.192.128-.096.16.192.128.064.1281.032.192.096-.064.096.192-.064.192-.032.1281-.064.16.032.032.16-.096.16.224m0 0 .096.064m0 0v.16m0 0-.032.0321m0 0-.096.128.064.032-.064.064.096.096m0 0 .192.064.192.032.128.096h.159l.064.0641v-.1281h.096l.064.064.128.032.032.0961m0 0 .256-.064m0 0h.064v.128l.064.064.064.224.16-.096.288.128.064.032.16-.064.128.064v1.0882l.032.3521.032.224.192.7041.064.3521v.352l-.096.4161-.128.2561-.32.512-.288.3521-.16.224-.032.1281v.224h.16m0 0h.032m0 0h.16l.032.16m0 0v.032l.416.096.064-.032m0 0 .192-.064m0 0 .224-.288m0 0 .16.032m0 0h.064l.128-.128m0 0 .096-.032v-.0641m0 0h.064m0 0 .032-.032.096.0641.128.032.224-.3201.064-.128.128.096-.032.096.128.096m0 0v.064l.128.1601.256.096v.096l.288-.032.256.064.128-.4161h-.064m0 0 .064-.096-.064-.064.16-.3841.128-.128-.032-.064.16-.16.16-.128.128-.1601.032.032.128-.192.064.032.192-.32.032.032.192-.2241m0 0 .192-.224.416-.032.064-.032.224.032-.032.064.064.256.096.5121.128.2881h.032l.16.384.224-.064.288-.224.416.6721m0 0 .448.6721.128.032.288-.032.352-.192.16-.032.224-.032.256.032.192-.1921.256-.256.096-.064.352-.128.032.288.128.4161.032.256.032.1921m0 0 .191-.3521.512-.4801.192-.16.256-.096m0 0 .096-.032m0 0h.096l.32-.064.608-.4481.192.4481.032.352v.1921l-.032.288.032.096m0 0 .128.064.256.1601.064.096.256.128.128-.192-.032-.032.096-.1281.224-.064.032.128.096-.096.192-.032.032.128.064-.032-.032.2561.032.16m0 0h.064l.384-.16m0 0 .512-.4801.128.032.192-.032.16-.096.096.032.224-.064.128-.16.096.032.224-.0961.096.0641.288-.1921.16-.064.032.096.288.064m0 0 .224.032.224.0961.128.16-.064.256.128.096.16-.032.256.1601.096-.032.384.032h.16l.224-.096.128.096.192-.096.096.032.608-.1281h.288l.128.064.032.0961.448.288-.096.224.064.0321.096-.2241.639.4481-.064.288.096.1921-.096.288-.127.128-.192.2561.032.128-.096.096.064.16v.1281l-.064.096.064.16.095.064h.128l-.031.064-.033.3841.16.16.128-.032.032-.288.16-.6721.32.256.704.224.704.2561.544-.032h.352l.224-.1601.192.2561.192-.2561.16-.032.544.032.064-.064.256.1281.096.128.128.096.192.256h-.032l.064.1921v.096l.16.32.032.1601-.128.192.512.7041.096.128v.2241l.128.128.256.128-.032.128.128.1921.096.032.064.128-.096.16.16.4161-.032.096.256.2241.064.16.448.256v.128l.128.1281.192.064.032.128-.064.064.192.6081.064.128.384-.064h.16l.48-.064.224-.096.096-.032.32.064.128.128.064.3201m0 0-.032.224-.448.4161-.128.128v.096l-.128.2241m.736-1.0882-.064.224-.512.4801-.064.128-.096.2561m.736-1.0882-.096-.3201-.128-.128-.32-.032-.288.128-.448.064h-.192l-.352.032.128.1921.32.352.096.096.256.1281.256.192-.128.224.16.096v.0641m0 0-.032.16.064.384.128.1601.128.064.16.032m0 0 .224-.096.192-.032.192.096.16.032.416-.032m-1.184.032.288-.096h.128l.224.128.544-.064m-1.184.032-.288-.064-.096-.096-.064-.1281-.032-.416h-.096l-.224.256-.128.032-.064-.096-.128.064-.128-.032-.16.032-.096.064.8.9282.192.16-.192.3521-.256.096.032.192.32.16.256-.288.16-.064-.096-.2241.16-.032.096-.224.192-.128.128.096h.064l.128.128h.096l.032-.096.384.128.032-.064.16.096.128-.096.128.064.096-.096 1.087.5761h.16l1.088-.064.352-.128.352.096.16.192m-3.551-1.4082.352-.032.255-.032.16-.096.096-.0961.032-.16v-.256l.064-.096.192-.1281h.128l.16.1281.096.224.096.096.128.064.224.2561.096.032.192.032.448-.1281.288-.096.192-.032.128.096.064.0641.128.384.096.16.192.5121v.2241l-.192.192-.064.096m-3.551-1.4082.544-.032.223-.096.128-.1601.032-.128-.032-.192.096-.16.096-.0961h.192l.16.1281.128.288.224.128.096.128.16.1281h.256l.416-.096.352-.1601.192.064.128.1601.288.7361.128.288-.032.1921-.192.192-.032.096m0 0v.4161l-.032.16-.032.16-.352.5441-.16.1921-.384.32-.16.064-.16.128-.064.1601.128.448-.096.2561-.224.352-.096.1601-.128.352-.032.1281-.064.416m0 0 .032.2881-.064.288-.096.16-.032.2881.032.16-.064.2561-.128.128-.352.256-.064.128v.3201l-.064.16-.128.064h-.16l-.255-.16-.192.064-.192.16-.096.3841-.064.064m1.887-3.0085v.3521l-.064.224-.096.16-.032.1601v.384l-.096.2241-.096.032-.192.128-.128.128-.064.1921v.288l-.064.128-.192.064-.095-.032-.16-.096-.128-.032-.128.064-.192.128-.064.0961v.16l-.096.256m1.887-3.0085.032-.416.064-.1921-.736-.288-.192-.032-.096.256-.064.096-.032.2241-.191.288-.352.3201-.32.16-.096.032v.16l-.16.2241.032.096-.064.16-.672.3841-.16-.064-.064.192h-.128l-.032.096-.096.032-.032.064-.352.3201-.192.096-.032.128.096.032.16.2241-.032 1.1521.192.0641.224-.032.224.096.064.096.096.096.288.224h.128v-.416l.128-.1281.064-.192.096-.096.192-.064.096-.128m.032-.2561-.032.2561m0 0-.096.16-.192.064-.096.128-.192.4161.032.3521-.096.192v.192l.064.2241.064.096.256.128.192.224.032.1601-.032.192.128.288.256.1601-.224.096.064.16.16-.032.032.128.192.3841.032.096.16.128.032.128.159.2881-.032.128-.127.096.096.096.191.2561.128.096.192-.32.192-.0321.096-.064h.192l.224-.096.256-.192.224-.16.128-.032.096.064.064.16v.16l.064.032h.192l.192.064.064-.064.224-.32.192-.1921.32.1921.192-.064h.224l.032.096.128.288.064.032.608.096.16.0321.096-.0961.192-.064.384-.224.32.224v.1601l.16.128.352.224h.224l.288.096.096.064.128.2881h.128l.256-.032.288.032h.128l.16.064-.064.128-.096.032-.256.2241-.128.064-.032.096v.192l.032.2241-.064.192-.192.1598.032.192.064.064.16.032.128.288-.096.352-.096.16.032.128.128.096.16.192.128.064.128.128.448.065.16.128.16.096.544-.16.16.32.064.192.128.832v.192l-.096.736-.128.16v.16l-.16.352-.256.448.032.256.16.736-.032.096-.256.704-.288.288-.16.224-.032.096v.225l-.032.16-.128.128-.48.416-.224.448v.096l.256.096.224.256.16.224h.128l.288.192.192.352.192.288.032.192.128.16-.16.224.064.064.128-.096.032.096h.16l.096.096.096.16.032-.064.16.224.096.032.128-.096.096.096-.032.032.032.128.096.064.064-.096.128.128.544.48.128.192-.032.48.064.096.32.064.095.128-.064.641-.095.512-.096.032-.416.096-.448.096-.416-.096-.096.128.032.16h-.16l-.192.128.064.096-.128.064.096.096-.096.128-.288.128-.16-.128h-.064l-.288-.128v.128l-.16.128.032.16-.096-.032.064.064-.032.064.096.064.064.128.16.192-.256-.096-.16-.224-.16-.096-.192-.064-.096-.192-.064-.224-.16.032-.32-.096.128-.128-.064-.128-.416.192.064-.16-.128-.064-.064-.192h.096l-.064-.256-.16.064-.192-.16-.288.32-.128.064-.16.128-.032-.096.032-.096-.064-.032-.064.064-.16-.096-.416.16-.032.224.128.16-.064.224.064.128h.064v.128l-.128.032v.096h-.16l-.064-.064h-.16l-.128.128h-.128l-.032.128.064.032-.064.192.16.096-.096.192-.128.096.064.128-.064.128-.224.096.096.064-.064.128h-.096v.064h-.096l-.16.064.032.128.128.224-.16.064h.096l.032.096-.128.096v.064l-.064.256.128.192.128.032.064.096.128.224-.064.224-.128.16-.16.032-.256.288-.064.192-.128.161-.032.128-.096.032-.032-.096-.256-.064-.064.064h-.096l-.16.192-.16-.032-.16.032-.064-.064-.096-.192-.096.032-.128.128-.128.128-.352.16-.096.032v.064l-.512.032.096-.096h-.16l-.256.224-.352.16-.16-.032-.064.16-.096.064-.159.192-.064-.032.096-.128-.192-.064-.096.192-.16.192-.16-.064-.096.128-.128.096.096.16-.128.128.032.128-.224.384-.064.256-.288.288-.256.032-.352-.096-.32.096-.064.064-.192.032-.064.16-.096.032v.192l.064.064.16.224-.064.256-.224.128-.16-.032-.128.032-.096.224.032.256.256.032.096.032.224.192.096.032.032.192.192.224.096.416.128.16.224.064-.128.097-.096.16.064.128-.064.256.064.32-.064.128-.064.16.064.032.096.224.192.16v.16l-.224.192.352.192-.224.224-.256.128-.224.032-.128-.16v-.064l-.064.16-.16-.064-.256.064h-.096l-.064-.096-.352.192v.16l-.064.128-.064.288-.256-.032-.192-.416-.16-.096-.192-.032-.064.096-.096.288.064.128.128.096.032.096-.192.064h-.256l-.064.16.128.256.192.16.064.032.032.16.096.096-.224.384-.16.096-.16.032-.384-.032-.032.064v.128l.16.192.256.096.096.096v.128h.096l.064-.096.32-.256.128.096.16.064-.032.256.064.416.064.129-.16.128-.064.128-.032.128-.192.192-.544.096v.288l-.032.16m0 0-.16-.032-.128.064-.16-.064-.096-.16-.128-.192-.16-.064-.224-.16h-.416l-.096.032m0 0v-.192l.096-.192.032-.193.064-.224.096-.032.064-.256.288-.192.192-.064-.128-.128-.192-.064-.128-.128-.032-.128-.16-.032v-.128l.096-.128.032-.128.192-.256-.032-.128-.32-.224-.736-.48h-.128l-.16.096-.192.032-.352-.128-.128-.096-.128-.032-.32.128.032.16-.064.064.096.48v.192l-.064.096-.064.192.032.16-.32-.096h-.128l-.096.096-.064.096-.288.192-.416-.064-.448-.256-.256-.096-.511-.256-.32-.256-.16-.256.032-.48-.096-.384-.096-.192-.064-.256-.064-.288-.16.032-.224.096-.096.064-.224.16-.224.064-.384.192-.192.064-.64.032-1.12.032-.16.192h-.192l-.096.032.032.128v.608l-.032.096-.128.288h.096l.064.256.16.256-.096.16-.16.032-.256.192.032.096.128.064-.064.192.064.256.032.224-.192.353.096.448.096.256-.128.032h-.288l-.032.096-.256.096h-.352l-.32.128-.096.096h-.192l-.288.064-.224.16-.256.128-.256.16-.192-.032-.192.096-.096.16-.352.16-.192.128-.128.224-.192.128v.288.384l-.064.192.032.16-.16.192-.096.224-.064.128-.064.224-.096.256v.16l.032.256v.448.192l-.064.129-.256.128-.192.032-.416.16-.256.128v.128l-.128.128-.224.128-.096.032-.128.224-.096.256v.224l-.128.16-.032.096.128.128.064.256.192.032.032-.064.32.384.064.096.16.384-.16.064.064.16-.32.128-.064.128.064.16-.256.128-.16.16v.096l.096.064-.032.128.128.224.032.192-.416.128.032.096-.128.032.064.32-.127.032-.256.16-.16.128h-.064l-.096.096-.032-.064-.128-.032-.064.064-.224.032-.064.032.032.064-.224.16.032.065h-.128l-.032.096-.096-.096h-.096l-.064.096-.064-.032-.192.128.064.16h-.032l.096.32.064.192-.096.064.064.128v.192l-.064.096.064.128.128.224.224.128.128.16.192.32.256-.064.192.192-.032.032-.032.416.032.032-.064.192-.16.32-.128.032-.096.192-.096.032h-.16l-.096.128-.128-.064-.256.16-.032.16-.16-.064h-.224l-.16.192.032.064-.096.224.096.16-.032.16-.256.192-.128-.096-.256.032-.16-.128-.096-.128-.288.16.032.16-.032.032-.32.064-.064-.032-.256-.128-.32.192.128.288-.224.128.064.128.032.192-.192.128-.096.193.064.32.064-.032.032.16-.096.032.128.288.096.352h-.128l-.032.096h-.128l-.032.352.064.128-.288.032h-.128l.032.064-.064.096.064.064-.064.16.064.096-.064.16.064.032-.192.096.032.16v.16l-.096.224.224.16-.032.032-.64.32-.32.256-.096.16.032.128-.16.096-.256.096.032.192-.16.096-.096.192.032.096-.064.096.16.096.096.096h.16l.224.096.096.16.16.096h.224l.192.192h.16l.224.096.192.033.032.064.16.032.032-.032.064.192.064.064.32.064v.16l.064.096.256.224.032.128-.064.16-.16-.128-.128.128.064.064.32.192-.064.096-.192-.032-.16.032-.192.448-.032-.032-.096-.352-.128-.096h-.064l-.032.16-.16.128h-.16l-.256-.32-.16-.032-.128.096v.064l-.096.224.064.096.16.096.032.16-.128.288.064.16.096.16.192.16v.096l-.192.032-.16-.064-.192.16-.096.032-.128-.032-.096.064-.032.128.096.096.128.032.32-.032.224.224v.288l-.096.064-.16.064-.096-.032-.064-.192-.16.032-.032.096v.32l.128.16-.032.128-.128.096-.288-.096-.128.064-.096.224.032.032-.032.224.288.224.096.288.032.192.128.16-.032.129-.256.192.032.16.128.352.064.032.224.032v.096l-.064.192.032.256-.032.032.064.288.128.832.032.032-.032.32h.064l.064.16.384-.128.288-.032.256-.096.064.096.128-.096.16-.032.32.224.192-.256.032-.128.192-.032.128.096.16.48-.064.16v.16l.16.224.16.16.064.128.064.32.032.064.256.128.192.416.064.32.064.288h.096l.288.288.064.417.064.288v.096l.192.064-.032.16.16.192h.064l.224-.064.16.064.128.224-.128.352.128.16-.16.096-.16.128.064.192-.032.032.032.32-.064.064-.128.064.128.288-.032.064v.128l-.16.096.128.224.32-.096.192.064v-.032l.192.032v.096l.192.128h.224l.192-.16.191-.096.192-.032.352-.256.096.096.224-.064.096.096.224.224v.192l.288-.032v.128l.096.224-.16.064.064.16.16.096.224.16.224.256.096.096-.256.288-.288.48-.288.224-.096.032-.128.321-.16.064-.064.128.064.064-.096.192-.096.16.064.096-.128.288.032.128-.064.192.032.128.16.32.128.096h.16l.224.192h.256l.288.128-.032.128h.192l-.032.16.16.064v-.16l.16-.064v.064l.128.224v.064l.096.032.032-.128.096-.096.128.224.128.032.032-.128.064-.064.096.096-.096.064v.192h.128l.128-.128h.16l.128.288-.16.032-.192.096.032.064-.128.288.128.256-.128.096-.064.192.032.032-.032.224.032.192-.032.096.128.032v.32l.064.192.16.096-.096.064-.192.224-.256.16-.064-.128-.16-.064h-.192l-.16.096-.16.032-.032.096-.16.096-.064.193.192.192.064.16-.16.096-.192.16-.256.352-.064.16v.32l-.032.096.096.128.032.096-.096.096.064.256-.256.16-.16.096-.256.032-.064.096-.32.256-.224.16-.256.096-.159.096-.064.16.032.16v.064l.032.32.096.192-.032.128h.191l.224.064.16.032.16-.096.128.032.128-.16h-.032l.128-.128.064.096.064-.064.096.128v.16l.096.192-.032.096-.16.032-.256.224.192.064h.192l-.064.192-.064.096.16.128v.096l-.32.128-.256.224-.128-.032-.032.096.032.257-.064.064-.288.032-.096.096-.096-.032-.064.16-.191.128-.096.032-.064.096h-.16l.192.192.032.256-.16.096v.064h-.096v.128l-.256.032-.128.032-.288.16-.192.064-.096-.192-.128.064-.096.16-.16.032v.16l-.096.128-.096-.096-.064-.096-.128.096h-.064l-.128-.192-.16-.128-.224.096-.192.032-.224-.128h-.096l-.224-.096v-.064l-.16-.16-.16-.16-.096-.16-.224-.096-.032-.128-.128.128-.096-.128-.064-.224-.128-.096h-.192l-.352.16-.16.064-.16-.096-.096.064.096.288-.224.096.032.096-.032.192.064.096v.128l.032.128v.16l-.128.256.128.288-.352.096-.096.16-.16.064-.384.032-.192.032-.032-.192-.16-.256-.192-.064.128-.128-.48.16-.032-.064-.096.032-.096.16.064.096-.192.16-.096.032-.064-.064-.16.096-.096-.16-.384.192-.032-.096h-.096v.096l-.288-.096-.096-.16.032-.096h-.128l-.096-.064h-.064l-.032-.096-.224-.096v-.096l-.576.096.064-.256-.16-.096h-.224-.16l-.224.064-.096-.192-.128-.128-.095-.128-.064.064-.128-.096-.128.128-.128.096h-.128l-.192.064-.032-.096-.16.032v.096l-.352-.032.064.32-.128.032-.192.128-.288.096.032.128-.192.064.032.16.096.064-.192.064-.192.16-.288.288-.128.16-.256.512.192.192.096.192v.128l.064.192v.064l-.192.416-.064.032-.128.224-.128.224-.064.192-.064.128-.352-.16-.096-.096.032-.192-.064-.032.032-.096-.16-.128.064-.192-.096-.192-.224-.224-.192-.192-.192-.096-.128.128-.192-.128-.16-.064-.16-.096-.416-.16-.128-.128-.288.032-.128.192-.224-.096.032-.096-.288-.16-.16.096-.256.16-.256.288-.064.32v.096l-.032.16-.16.192-.352.032-.128.16-.224.096-.768.288-.32.064-.736.16-.672-.128-.192.064h-.096v.096l-.096.032-.096.161v.192l-.063.16-.32.288-.16.032-.192-.096-.192-.064.064-.16-.096-.096v-.353l.064-.32-.064-.064-.192-.064v-.096l-.192-.064-.128-.128-.032.096-.096-.064v-.16l-.288-.128.032-.064-.128-.032-.032-.096.224-.096.064.032.064-.096h.064l.096-.064.064-.192.096-.032.096-.16.128-.128.32-.032-.128-.576v-.16h.064v-.16l-.032-.32-.32-.192-.064-.032-.16-.192-.096-.064-.224-.192-.16-.192-.096-.032-.192-.128-.128-.064-.032-.16.224-.064.16-.096.032-.256.16-.256.128-.256.064-.096.192-.352h-.544l-.288-.032-.352-.225-.096-.48-.096-.256-.096-.384-.224-.576-.032-.224.128-.192-.16-.32-.192-.256-.16-.064-.256-.064-.288-.576-.16-.224-.16-.096-.224-.032h-.16l-.064-.096-.16-.416v-.064l-.256-.096-.032-.064-.192-.064-.224-.032v-.064l-.256-.032-.096-.064-.128-.096-.096-.032-.128-.16h-.096l-.224.064-.16-.064-.224.032-.032-.192-.096-.096-.32-.16-.096-.064-.064-.192-.096-.032-.288-.032-.064.16-.064.064-.096.288v.096l-.032.128.032.128-.064.16-.16.192h-.128l.16.16-.224.096-.224-.032-.16-.096-.288.064-.128.096-.096.128-.096-.096-.128.032-.032.096-.256.256-.096-.096-.032-.416-.032-.224-.192-.192-.064-.224-.128-.128.064-.128-.032-.192v-.224l.16-.353.064-.128v-.128l.224-.192.064-.192.096-.032.128-.256.096-.064-.032-.16.224-.128.192-.192.096-.032.352-.256-.032-.16-.096-.128-.096-.224-.16-.096-.448-.512-.128-.064-.064-.16h-.064l-.064-.128-.16-.096-.128-.256-.256-.096-.096-.032-.032-.096-.192-.064-.064-.096-.16-.032-.128-.064-.063-.16-.128-.096-.032-.096-.192-.096-.16-.192v-.16h-.16v-.096l-.032-.224-.288-.288-.256-.192-.224-.224-.128.032-.128.128-.48.096-.288.384-.064.128-.224.192-.256.096.032-.352-.128-.064h-.288l-.16-.128-.128-.032-.192.032-.16.096-.16.064-.096.096-.192.064-.128-.064-.128-.224-.16-.128v-.064l-.16-.224-.192-.096-.192.192-.128.16-.288.064.032-.16-.128-.096h-.16l-.256.096-.416-.096-.096.064-.16-.032-.16.096-.192-.032-.256.064-.128-.064.064-.192-.032-.225-.064-.224.064-.192.032-.224.096-.256-.064-.224.032-.16-.192-.128-.064-.192-.192-.16-.288-.16h-.064l-.096.096-.032.192-.224.352-.224.224-.064-.064v-.128l-.096-.224h-.256l-.16.064-.224-.064-.128.032-.16.064.032-.128-.032-.224-.096-.096-.064.032.032-.416.096-.512-.16-.224-.064-.256-.16-.32v-.288l-.16-.192-.064-.16-.128-.192-.16-.32-.159-.224-.224-.256-.064-.16-.512-.705v-.128l-.256-.128-.16-.16-.16.288-.128.064h-.288l-.192.064-.192.096-.128-.064-.416-.064-.032-.288-.064-.16h-.128l-.384-.128-.096-.096-.192-.096-.16.032-.224-.064-.192-.096h-.128l-.128-.128-.288-.192-.224-.064-.224-.128-.16-.096-.32-.16-.16-.128-.192-.064-.096-.128-.032-.16.032-.224-.192-.16v-.064l-.128-.192-.032-.16-.16-.064-.096-.128.064-.064-.032-.192.032-.128-.256-.128-.096.064-.48.064-.224-.096-.128.032-.096-.064h-.16l-.192-.064h-.16l-.096.32h-.192l-.096.064-.288-.224-.064-.128-.288.096-.192.096-.096.032-.032.288-.064.16-.192.352-.032-.224-.192-.032-.416.32v.128l-.064.16-.128-.064-.224-.032-.096-.064-.223-.032-.16.128-.288.032-.256.128-.224.032-.224-.064-.192-.288-.192.064-.192-.032h-.192l-.032.064-.384-.352-.064-.064-.288-.096-.128.032-.256-.032.096.384-.256.032-.192.032-.16-.032-.288-.288-.192-.032-.096-.096.288-.128.192-.192v-.256l.128-.16.096-.032v-.256l.096-.096v-.16l.064-.288-.032-.288.128-.032.128-.16.128-.032.192-.096.096-.064v-.224l-.096-.064-.192-.128-.128-.128v-.257l.032-.16-.096-.16.032-.128-.16-.192v-.064l.192-.096-.128-.704-.288-.032-.288.032-.032.064-.032-.32.064-.192-.128-.128-.224-.384-.032-.128.032-.352v-.224l-.032-.128-.032-.448-.192-.224.064-.032.064.16.224.16h.224l.128-.032.16-.128.064-.096-.096-.256.032-.128.064-.224.224-.416.128-.064.128.064.064-.128-.064-.096-.096-.256.096-.16.096-.256.16-.257.096-.064.064-.16v-.128l.096-.096.384-.128.128-.16-.032-.128-.128-.224-.128.032h-.16l-.256.032.096-.16v-.128l.192-.128.288.032.128-.064.032-.128.096-.128-.576-.704.064-.512-.48-.384-.16-.128-.768-.48-.256-.576-.064-.256-.096-.256-.16-.416-.16-.128-.128-.032-.192-.096-.384.064-.128.096-.16-.032-.16-.16-.064-.033h-.192l-.16-.032-.128-.096-.32-.128h-.384l-.64-.352h-.32v-.16l-.032-.064.032-.192-.032-.448v-.256l.064-.096.032-.192.192-.256v-.224l-.128-.352.096-.064.576-.032.16-.128v-.064l.224-.32.224-.096.032-.224.288-.352-.224-.32v-.224l.032-.16.288-.864-.128-.224-.128-.064.064-.161.032-.352.256-.16-.128-.192-.032-.16.16-.128.064-.096.16-.064.096-.16.128-.352.32-.032.224-.192.096-.128.064-.16-.032-.096.032-.32v-.064l-.128-.192-.16-.064-.288.064-.064-.128-.128-.032-.064-.128-.032-.032-.032-.192.096-.32.064-.16-.096-.096v-.096l-.16-.064h-.224l-.16-.128.032-.096.096-.064.064-.128-.16-.16.256-.096h.16l.128-.032.128-.032.288.064.192-.032.032-.256.16-.416v-.16l.096-.16-.096-.161.064-.128-.128-.224.384-.064v-.096l-.224-.384-.096-.288-.192-.032-.032-.128.128-.128h.128l.256-.192.256-.288-.032-.096h.16l.128.032.128.064h.064l.128.096.096.192v.128l-.096.224.032.064.288.192.128.16.096.096.192.032.064-.288.096-.224.064-.128-.096-.128-.32-.032-.128-.096.128-.064.096-.32.032-.224.16-.384v-.192l-.128-.288-.096-.192v-.064l-.16-.32.064-.192.16-.224v-.16l.128-.096.32-.128v-.448l.416.128.096-.032.224-.224.032-.096.256-.064.128-.288-.128-.224h-.288l-.128.032-.128-.064-.288-.064.064-.129v-.096l-.096-.16-.096-.288.064-.096-.128-.064.064-.192-.096-.16-.16-.032-.288.064-.128-.032-.096.064h-.128l-.032.064-.352-.032-.48.064-.064-.096h-.16l-.096-.064-.16.064-.16-.096-.128.096-.256-.064-.064.064-.096-.256-.064-.128-.224-.192-.128-.192-.032-.128.032-.352.064-.288-.096.032-.032.064-.992 1.472-.608.416-1.024.641-.448.16-.64.32.064.192-.416 1.216-.48-.064v.032l.288.544-.064.416-.352.16-.48.256-.447.16-.416.224-.512.256-.16.352h-.128l-.192.064h-.224l-.128.096-.064.224-.096.032-.032.128-.256.576-.128.064-.128.32-.032.192-.128.289v.224l.032.096-.064.096-.096.16-.256.096-.096.096-.032.096.192.224.032-.032.064.16.096.256v.288h.416l.16-.128.128-.032-.064.128.128.16-.096.096.096.096h.064l.032.096-.032.16-.16.192-.064.192.032.448-.16.288-.096.192-.064.32-.096.16-.064.192v.192l-.224.128.032.096.128.096v.064l-.096.32.064.224-.032.449.16.256-.224.288v.16l.128.16-.064.128.096.256.16.16.256.256-.064.096-.096-.032m0 0h-.224l-.224-.096-.128.032-.128-.032-.192.096-.352-.16-.288.064-.096.096-.032.128-.096.032h-.256-.096l-.096.096-.224.064-.224.064-.096.096-.16-.032-.128.128-.288.032-.128.064-.096.128h-.096l-.16-.064-.224.064-.128.096-.032-.032-.256.032h-.352l-.32.064h-.32l-.128-.064h-.192l-.256.064-.256.128-.32.064h-.096l-.16.16-.352.16v.256l-.096.256-.16.096v.032l-.16.128-.128.128-.192.064h-.128l-.416.128-.287.032-.064-.064-.352-.064.032.128-.096.064-.032.096-.192.16v.064l-.224.192-.064.096.032.064-.096.16-.064.064-.288.416v.16l-.096.161-.256-.129-.256.161-.16.224-.032.096-.096-.032-.256-.032-.64-.128-.384.16-.064-.032-.064.096h-.16l-.16-.192-1.664.8-.512.256-.064-.128-.224-.256-.32.032v-.032l-.288-.128-.352-.224-.128.032-.16-.096-.128-.128-.096-.064-.064.064-.224-.032v-.064h-.16l-.192-.064-.064-.064h-.256l-.128.096-.192-.064-.128.032-.064.096-.16-.064-.032-.096-.352-.225.032-.064-.128-.192h-.064l-.064.096-.192.096-.288.097-.256-.033-.191-.096h-.48l-.096.032-.192-.032-.064.032-.192-.16-.128-.256-.16-.128-.128-.096-.16-.288-.224-.16-.192.096m0 0h-.192m0 0-.128-.032m0 0-.16-.032-.32-.128m0 0-.096-.064m0 0-.128-.096m0 0-.096-.032-.064-.096m0 0h-.032m0 0-.032-.064m0 0-.064-.064m0 0-.032-.032m0 0-.096.032m0 0-.096.096h-.096l-.128.064-.064.128-.256.128-.064-.032m0 0-.128.064-.064-.032-.224.096-.032-.032h-.128l-.064-.064-.288.064-.064-.064-.224.064-.288-.096-.128-.032-.096.064-.256.096-.128-.032-.128.032-.288.032-.384.128-.096-.032-.128.096h-.064m0 0-.128.032-.096.192-.384.16-.032-.032h-.288l-.224-.128-.224.064-.032.064-.224.064-.352-.096-.064.096-.16-.064h-.096l-.16.096-.064-.032-.096.096h-.128l-.064.128-.128-.128v-.192l.064-.096-.032-.288.064-.128.064-.032.064-.16-.064-.128-.064-.096-.192-.032-.16-.128-.256-.096-.096-.064-.4475-.064-.096-.16-.064-.224-.128-.096h-.0639l-.16-.032-.16.032-.192.128h-.128l-.032-.064-.096.064-.128-.032-.128.064-.0959.064h-.064l-.16-.192h-.128l-.096.096-.16-.064-.192-.256.256-.064.064-.16.096-.096.032-.128.192-.064.2239-.032.096-.192.064-.096.064-.224.064-.224.224-.224-.064-.512-.192-.16-.224.224-.6079-.384.16-.192-.064-.096h-.128l-.128.128-.032-.096.128-.096.064-.096-.288-.096-.064.032-.096-.288-.096-.096.064-.096-.128-.064.064-.193m0 0-.032-.032m0 0v-.064m0 0 .032-.256.512-.768-.032-.192.288-.128.096-.224v-.096l.128-.128-.032-.192.2879-.416.16-.16.096-.192v-.128l.096-.096.064.032.064.128.096-.032.192.096.2239.032.064.128.32-.096.2875-.128.128-.16h.224v-.096l.256.096.096-.16-.064-.032.256-.48.544-.128.64-.288.096-.096.256-.16.256-.256.128-.288.064-.192-.032-.192-.16-.481-.16-.288-.032-.384-.256-.064-.224-.192-.032-.256-.16-.32-.096-.096-.096-.064-.032-.064-.224.064-.128-.192-.064-.032-.128-.128-.032-.128.064-.096.32-.288-.032-.096-.608-.032.032-.256.416-.608-.128-.128.064-.32.032-.064-.064-.064-.032-.256-.128-.16-.096-.064-.032-.224.192-.352-.096-.16-.16-.064-.448.128-.48.064h-.4155l-.5439-.128-.384-.064h-.128v.192l-.064.064-.064.256.064.128-.096.064-.1599-.096h-.416l-.032.032-.128-.096-.288-.096-.3519-.16-.096-.16-.192-.16.096-.16.128-.32.192-.064.0959-.129.032-.16-.064-.128.096-.192.032-.352.128-.16.32-.288.032-.096.192-.128.096.032.096-.16.128-.096.0959-.192.032-.16-.032-.064v-.48l.032-.16-.4479-.128.16-.608.16-.096.0639-.16.096-.096v-.448l.096-.128-.064-.096-.032-.192.032-.032.16.064.064-.128.032-.416-.032-.352v-.064h-.096l-.16-.128-.1599-.321-.096.032.064-.288-.096-.224-.064-.032v-.096l.192.096.1279-.128.192-.032.256-.064h.16l-.032-.128.224-.032.032-.096.128.064.064-.032v-.16l-.16.032.032-.096h.096l.0639-.064.096.032.096-.16.16-.416.1595-.448v-.16l.448-.416.288-.32v-.032l.288.064.064-.064h.192l.032-.064.096-.064.032-.096.128-.16.192-.064.096-.096.16-.224.064-.032.288-.288v-.192l.064-.256v-.192l-.192-.224-.16-.064-.032-.192-.192-.449-.192-.352-.032-.096h-.128l-.128-.128-.192-.032v.064l-.128-.064-.096.128h-.224l-.256-.128v.032l-.16-.064h-.16l-.128.096-.2235-.128h-.096l-.032-.192-.096-.096.096-.256v-.32l-.4479-.032.064-.32-.448-.064-.096.352h-.288l-.1599.032.1279.096-.064.256.032.064-.1919.224-.128.064-.032.16.064.16.2559.064.192.096.224.064.16-.032-.032.256.16.129v.064l.16.064-.064.672h-.16l-.096.192-.576.096h-.2239l-.16-.16-.16-.032-.096.064-.384.096-.096-.064-.032-.192.16-.032.064-.32-.096-.192-.1599-.032-.064-.128.0959-.129v-.16l.096-.448h-.3199l-.192.032-.192.096-.064-.064-.128-.352.192-.256v-.16l.064-.384-.064-.384-.128-.672-.032-.064-.096-.096-.16-.16-.032-.096.064-.064-.096-.192-.1919.192-.128-.032-.128.064-.16-.416-.224-.288-.224-.256-.1599-.128-.096.128-.16-.096-.096.064-.224.032-.192.128-.16.16-.192-.064v-.128l.064-.032-.032-.256-.0639-.128.0319-.256-.0319-.256-.416-.288-.288-.352-.064-.288-.16-.065-.3519-.128h-.128v-.224l-.128-.032.064-.32v-.064l-.288-.032h-.32l-.096-.032-.2239-.192v-.032l-.16-.128.032-.128-.192-.192.096-.128-.096-.096.032-.128-.128-.064.064-.096-.096-.064-.064-.224-.16-.16v-.128l-.224-.064-.0959.224-.256-.064-.16.352.128.128-.16.032-.224.192h-.128l-.064-.064-.16.064-.1599.032-.096-.064-.064.16-.096.064-.128-.064-.064.064-.128-.064-.064.096-.256.128.064.096-.096.064.064.096-.064.064-.1599.064-.224-.256v.096l-.32-.256-.064.064-.128-.192-.096.416-.2239.288-.128-.096.1599-.16-.0639-.064.1279-.288-.0959-.288-.896.512-.096.064-.096.032-.1279.096-.992.576-1.1199.641-.2559.128-.032-.096-.16.16-.16.032-.096-.032-.064.064-.224-.16-.1599.064-.512.096-.032-.16.16.032.16-.128-.064-.064-.032-.129h.064l-.032-.448-.128.096-.064-.192h.128v-.192l-.064-.128-.224.096.032.096-.224.096-.064-.064-.224.096-.1919-.032-.384-.224-.256-.16v-.16l-.288.128.032-.096.064-.064-.032-.16-.0959-.288-.224-.256-.224-.128-.224-.064h-.128l-.3199-.096-.064.128h-.096l-.16.064-.16-.032-.256-.096-.096.032-.032.096.064.16-.032.224-.16.256h-.1599l-.256.064h-.224l.256-.448-.096-.352-.224-.096-.256-.096-.192.288-.064-.064-.1919.192-.192-.032-.128-.096h-.224l-.256-.096-.128-.032-.2559.064h-.224l-.192.16-.128.032-.192-.192-.096.096-.1279.384-.128-.032v-.096l-.192.032-.032-.064-.064.064h-.16l.032-.064-.256-.128h-.192l-.096.096.096.16-.2879-.064-.032.16-.16-.032v.224l-.128.064-.032.128-.096-.032-.096.096.288.128-.192.128-.128.16.096.192.096.064-.032.064h-.096v.481l-.256-.064-.032.448.032.224.16.192-.128.192.064.096-.192.224-.064.064.128.128v.128l.064-.032.096.16-.096.096-.096-.032v.128l-.4799-.192-.064-.192h.064l-.064-.16.032-.096-.128-.128-.128-.032-.128-.128-.032.032-.064-.064-.128.064h-.096l.128.128-.064.096.096.096-.064.128.32.128.096.352-.096.064.064.064-.064.096.128.096.16.064-.64.16-.096-.096-.0319-.224-.128-.096.032-.032-.16-.128-.064-.16-.352-.192-.128-.032-.032-.224.096-.064-.4799-.256-.224-.096v-.032l.3519.128.032-.128.096.032-.032.096.064.032.064-.16.032-.128-.3199-.096-.032-.096-.064-.096-.128-.032.032-.128-.128-.128-.256-.128.032-.096-.096-.032-.032-.225h-.192v-.16l-.064-.064.192-.384.032-.096-.096-.16-.16-.064.032-.096-.2559-.128v-.16l-.224-.032-.032-.128.064-.032.064-.224.032-.512h-.032v-.448l-.096-.32-.064-.096-.192-.032-.16-.096-.096-.256.064-.064-.032-.096h.064l-.032-.16m0 0v-.064l.256-.192.064-.192.128-.096v-.128l.064-.032v-.16l.096-.032-.032-.064.064-.16.064-.064v-.192l.064.032.1599-.096.032-.16-.064-.192v-.224h-.032l.064-.353-.032-.192.032-.128.096-.128-.128-.32.032-.192v-.288l-.128-.32.064-.064-.1279-.224v-.256l.1279-.032v-.192l-.2239-.064v-.416l.032-.16v-.192l-.032-.576.064-.032-.032-.128-.16-.192-.192-.064-.16-.16-.096-.192.064-.128-.128-.064.128-.032.032-.256.192-.224-.096-.192.032-.128-.16-.257-.16-.064-.064-.16-.128-.128v-.096l-.064-.064-.0959.096-.096-.064v-.064h-.128l-.192.032.032.128-.064-.032-.416-.512-.096-.224-.064-.064-.0639-.192-.128-.2558.032-.064-.128-.2561.128-.064-.256-.224-.544-.4481-.2559-.32-.384-.6081-.064-.064-.32.192-.3839.288-.128.064-.512.0961-.288-.064-.1279-.1281.0319-.192-.2239-.16-.16-.032-.064-.096.128-.1281-.192-.16-.16-.032.032.032-.16.096v.032l-.224.128-.2239-.032-.032-.032-.16.064h-.096l-.064-.064-.096.064-.16.0321-.064-.0321-.096.0961-.096-.032-.096.096-.064.096-.1919.096-.128-.096-.192-.064h-.16l-.128.032-.032.064-.288-.064-.1279.096h-.096l-.128.224-.16.0961-.096-.0321-.16.0641-.128.128h-.064l-.2879.16-.032.064-.096.032-.096-.128v-.16l-.096-.3521.096-.096-.192-.4161.384-.6081.096-.032v-.128l.3199-.16.096-.128.256-.1921.064-.096.032-.192-.064-.032.064-.1281.096-.32-.032-.16.128-.1921-.096-.096-.192-.032-.128-.064h-.064l-.224-.224-.064.032-.032-.096-.096.032-.0639-.1281-.096.032-.192-.064-.064.096-.032-.064-.256.064-.128.1281-.192-.1921-.2559-.096h-.128l-.032-.064-.16-.032-.256-.192-.032.096h-.224l-.032.064.064.096-.16.16-.0959.1921-.16.16v.032l-.224.224-.16.0641-.032.096-.192.192-.032.16.064.1921-.064.16-.096.096v.064l-.096.064.096.064-.096.3201-.0959.096-.032-.032-.064.096-.128-.128-.128.096-.064-.16-.16.064-.032-.128-.032-.1921-.128.1281-.032-.064-.224.192.032.032-.2239.288-.256.064-.128.0641h-.128l-.096.096-.096-.064-.128.032-.16.128-.2239.096v.096l-.384.064-.096-.032-.224.096.032.0321-.096.128-.2559-.2241-.064.064-.128.1921-.224.224-.256.064-.096.064h-.128v.0961l-.1919-.0961-.032-.096-.16-.064-.096-.192v-.16l-.256-.2241-.064-.224-.128-.1601-.32-.064-.0959-.064h-.288l-.288-.16-.032.032-.16-.096-.224-.032-.0959-.096-.192.096h-.256l-.128-.128-.064-.1281.096-.192-.128-.128-.032.064-.064-.128-.16-.096-.064-.1281v-.16l-.2239-.064h-.32l-.256-.032-.192-.064-.16-.128-.1599-.032-.288-.1921-.064-.064-.064.064-.128-.192h-.128l-.128-.192.064-.3521-.128-.064-.032-.256-.096-.0641-.0959-.192h-.096l-.064-.128.096-.4161.064-.032-.032-.064-.096-.256-.064-.4481h.192l.0639-.032-.0959-.3841-.128.064-.16-.288.32-.128.2239-.1921-.128-.16-.032.032-.2879-.128.032-.2561-.032-.32.064-.096v-.128h.16l.0319-.2241v-.224l-.1599-.2561-.224-.128.064-.7041-.032-.096.096-.064-.064-.096.064-.2241.128-.192-.32-.096.096-.3521h-.128l.032-.4161h-.16l.032-.128h-.096v-.16-.192l-.064-.0641.032-.128-.192-.16-.064-.16-.1919-.128.0319-.1281-.3519-.256.064-.096-.224-.096.032-.1601.064-.128.096-.032.064-.3521-.224-.064.032-.096-.192-.16-.064-.2881-.16-.064v-.096l-.3199-.288.1279-.3201.096-.064.096-.256-.032-.2241-.16-.096-.064-.064.096-.096-.3839-.6081.064-.128v-.2241h.064l-.032-.256.064-.064-.096-.3201.16-.096.2239-.096.064-.096.256-.2241.128.032.192-.096.128-.096h.1919l.096-.096-.032-.064-.2239-.128-.064-.1601-.064-.096.064-.032-.128-.16.064-.16-.224-.1281.032-.064-.16-.224.032-.128.224-.032h.256l-.064-.1601-.064-.032v-.16l-.032-.096.064-.2241.064-.288-.032-.096-.352-.096-.224-.1921.096-.128-.224-.256.032-.032-.192-.2881-.064-.032-.3199.064-.128.096-.128-.16h-.192l-.096.096-.224-.096-.3199.2881h-.096l-.096-.1921-.352-.064-.128-.064-.096.096.064.032-.064.096-.2559-.096.2559-.128-.032-.224.096-.096-.128-.1921-.1279-.096v-.032l-.096-.064-.032.096-.32-.096-.352-.3521-.096-.032v-.192l.064-.16.256-.1281.128-.16.064-.32-.16-.2241-.224-.128-.064-.064-.16-.032-.1279-.128-.128-.3521.032-.256-.096-.1601-.096-.192-.192-.288.032-.1601-.128-.064-.16-.096-.256-.16.032-.096-.032-.2561-.2239-.288-.064-.032-.096-.1921-.128-.32-.16-.2561-.032-.032-.16-.256-.128-.16-.1919-.4161-.032-.096.032-.16.0959-.0321-.0959-.192v-.128l-.096-.096-.16-.032-.8.256-.3839.128-.192-.032-.064-.192h-.032l-.064-.192-.096-.064-.352-.2881-.1599-.032-.128.096-.192.5121.096.064-.064.2241-.16.224-.096.128-.7679.5761-.032.128-.16.128-.256.0321-.192-.0321-.2879-.256-.768-.4161-.096-.064h-.2239l-.256.064-.16.064-.032.0961-.128.064h-.096l-.3839.16-.128.256-.064.1921-.096.096-.128.064-.32-.128-.096-.064-.032.096h-.096l-.3199-.2881-.128-.064-.16.064-.032.1281.064.096-.16.192-.384.2881-.096.064-.1599.096-.128.128-.384.2881-.192.096-.224.16-.2239.032-.128.064-.096.224-.064.0961-.256.256-.256.096-.192-.032-.0959-.032-.128.032-.064-.032.096-.096-.064-.128-.224-.096-.032.096-.128-.096-.096.096-.192.064-.2559.32-.32.2561-.192.096-.096.224.064.1601v.256l.16.096.064.064v.1281l.096.032.064.224-.032.128-.192.096-.224.032-.064.0961-.128-.0641-.128.1281-.128.288-.0639.192.1279.2881.032.224-.096.5121.032.16-.0959.1921-.128.096-.096.128v.128l-.096.1601-.128.096-.064-.064-.352-.064-.2239.032-.128.16.064.128v.3201l.064.128-.032.192-.288.16-.16-.096-.096.064-.128-.128h-.032l-.096-.192-.096-.128-.3199-.5441-.288-.3201-.16.128-.224.2241-.256-.128h-.1599l-.16.064-.16-.2881-.032.032-.224-.224-.256-.2881v-.064l-.2879-.32-.16-.3841-.192-.3521-.448.1601-.064.064-.6079.096-.064.064-.32.096-.256.2241-.2239-.1601v-.032l-.128.064-.096-.096-.064.064-.16-.192-.224-.16-.096-.128-.16-.0641v-.064h-.1599l-.192-.128.064-.064-.128-.064-.032.064-.064-.032-.064.064-.064-.096.096-.16-.128-.096.064-.2561-.192-.096-.128-.3201-.096-.448-.064-.064-.032-.1921.096-.096-.032-.3841.032-.224-.032-.096-.1279.096h-.16l-.128-.256-.064.064-.128-.2241-.416.032-.096-.096-.1599-.352.1279-.1601-.0959-.224-.288.096-.064-.032.064-.096.096-.3201.16-.384-.096-.128-.16-.1601-.192-.064-.064-.224-.032-.032-.256-.1921-.192-.032-.2239-.128-.032-.064-.192.096-.064-.224-.192-.224-.224-.2561-.064-.192.032-.1921-.16-.064-.064.032-.1279-.5441-.064-.096v-.224l-.096-.096.128-.16v-.1281l.064-.064-.064-.128.1599-.16-.1279-.1601-.096.0321-.064-.1281-.064-.032-.128-.16-.256-.064-.064-.096-.128.064v.096h-.3839l-.67198-.032-.28797.064-.31997-.032-.28798.032-.03199-.224-.22398-.2881.03199-.064-.09599-.096-.25598-.2561-.06399.1281v.16l-.25598.224-.09599.0961-.19198.128-.19199.16-1.1199.032-.15998.032-.22398-.4801-.09599-.416-.15999-.5441-.032-.4161-.06399-.4481h-.12799l-.09599-.128-.09599-.064-.064.096-.15998-.128-.032-.096.06399-.096v-.1281l-.09599-.128.032-.352-.032-.0961-.19198-.032-.06399-.128-.22398.096-.25598.128-.032-.128-.15998.064-.064-.064-.032-.096.032-.16v-.096l.15999-.2881.12799-.064.03199-.192.064-.032.25597-.1921v-.096l.15999-.16-.032-.3841-.15998-.192-.032-.256-.15999-.1921.032-.16.032-.032.06399-.16.09599-.096v-.2881l-.06399.032-.12799-.128.032-.16v-.1601h-.15999l.032-.16.032-.032.09599-.256h-.064l.22398-.4481-.06399-.128.032-.1601-.15999-.032-.06399-.192.06399-.096-.032-.128-.12798-.1601.06399-.192.12799-.128.06399-.2241-.09599-.064.064-.096v-.064l-.15999-.16-.06399-.2241h-.064l-.19198.1281-.12799.032-.19198.064-.12799-.096-.12799-.3841.28797-.16.15999-.128.09599-.2241.064-.064.19198-.224.15998-.096.19199-.1921-.032-.032.31997-.16.22398-.224.032-.1921.06399-.032-.06399-.192-.064-.128.064-.0961.19198-.032.12799-.064.22398-.032h.06399l.12799-.064.15999-.256-.31997-.7041-.09599-.3521-.064-.064-.19198-.3521-.032-.16v-.16l-.19198-.3521-.41596-.5441.06399-.064-.12799-.192.032-.096-.12799-.1601.032-.224-.15999-.032.09599-.16.12799-.1601-.12799-.224-.09599-.16v-.1921l-.19198-.032h-.09599l-.38397-.064-.19198-.096-.19199-.16-.28797-.16-.31997-.2561-.19198-.256-.064-.096-.06399-.0641.09599-.256-.22398-.224-.064-.1921.096-.256.22398-.096-.12799-.7041-.47996-2.4004m220.14079 49.9923.16.192.064.2241.064.096.384-.032.192.032h.256l.064-.16-.064-.1281-.16-.192-.256-.128-.096-.1921-.064-.16-.256.032-.288.3201zm3.583-6.7851.128.032v-.096l-.096-.0321zm-83.704-78.70115.032.032.16-.032-.032-.12803-.096.03201z" stroke="#1e1d3d"/><path clip-rule="evenodd" d="m145.025 6.72453.128-.12802-.064-.06401-.064-.19203v-.03201l-.032.06401-.096-.06401.064-.12802.064.09602h.032l.128-.12802.064.09601-.128.06401.128.09602h-.064l.032.09602.128-.06401.16.09601-.16.06401.16.41607.096-.16003-.064-.12802.064-.09601.159-.06401h.064l-.032-.09602.16-.22404v.06401l.032.03201-.064.06401.032.06401.096-.032.096.09601.032.16003h-.032l-.032-.16003v.16003l-.256-.03201-.032.12802h.096l-.032.22404h.096v.06401h.16v-.12802l.064-.032.032.16002-.064.06401.032.09602-.096.032-.128.16003.224.03201-.032.25604.032.06401-.224.12802-.16-.16003-.159.06401h-.128l-.064-.09601-.064-.22404h-.256v-.032l-.288-.12803-.032.06402-.096-.03201-.032-.03201.128-.06401.064.06401.064-.12802.128-.032-.096-.12802.096-.09602-.064-.032.032-.09602h-.096zm.831.80014v.12802h.064l.032-.16003zm-.159-.12802h.031l.032-.19204h-.063zm.223-.28805.032.12802h.064v-.12802zm-.831-.16003.064.16003h.064l.064-.16003-.096-.06401.096-.09602.032-.09601h-.064zm.544-.06401.032.09602h.063l.032-.12803z" fill="#fdfbf5" fill-rule="evenodd"/><path d="m145.025 6.72453.128-.12802-.064-.06401-.064-.19203m0 .38406-.064.09602h.096l-.032.09602.064.032m-.064-.6081v-.03201m0 0-.032.06401m0 0-.096-.06401.064-.12802.064.09602m0 0h.032m0 0 .128-.12802.064.09601-.128.06401m0 0 .128.09602h-.064l.032.09602.128-.06401.16.09601-.16.06401.16.41607.096-.16003-.064-.12802.064-.09601.159-.06401h.064l-.032-.09602.16-.22404m0 0v.06401m0 0 .032.03201m0 0-.064.06401m0 0 .032.06401.096-.032m0 0 .096.09601.032.16003h-.032l-.032-.16003v.16003l-.256-.03201-.032.12802h.096l-.032.22404h.096v.06401h.16v-.12802l.064-.032.032.16002-.064.06401.032.09602-.096.032-.128.16003.224.03201-.032.25604.032.06401-.224.12802-.16-.16003-.159.06401h-.128l-.064-.09601-.064-.22404m0 0h-.256v-.032l-.288-.12803-.032.06402-.096-.03201m0 0-.032-.03201.128-.06401.064.06401.064-.12802.128-.032-.096-.12802.096-.09602m0 0 .064.16003h.064l.064-.16003-.096-.06401.096-.09602.032-.09601h-.064zm.767.5761v.12802h.064l.032-.16003zm-.159-.12802h.031l.032-.19204h-.063zm.223-.28805.032.12802h.064v-.12802zm-.287-.22404.032.09602h.063l.032-.12803z" stroke="#1e1d3d"/><path d="m50.0308 245.58h1.2v-10.8h-1.2v-3.936h11.016c2 0 3.56.408 4.68 1.224s1.68 1.984 1.68 3.504c0 .944-.224 1.744-.672 2.4-.448.64-.976 1.128-1.584 1.464-.592.32-1.168.536-1.728.648v.24c1.136.112 2.16.472 3.072 1.08s1.368 1.696 1.368 3.264c0 1.68-.632 2.912-1.896 3.696-1.264.768-2.904 1.152-4.92 1.152h-11.016zm9.216-6.864c.464 0 .808-.12 1.032-.36.24-.256.36-.648.36-1.176v-.864c0-.528-.12-.912-.36-1.152-.224-.256-.568-.384-1.032-.384h-1.296v3.936zm.168 6.864c.464 0 .808-.12 1.032-.36.24-.256.36-.648.36-1.176v-1.056c0-.528-.12-.912-.36-1.152-.224-.256-.568-.384-1.032-.384h-1.464v4.128zm9.2254 3.936v-3.936h1.2v-10.8h-1.2v-3.936h16.2v7.248h-5.376v-3.312h-2.904v3.792h2.112v2.736h-2.112v4.272h2.904v-3.792h5.376v7.728zm17.1093 0v-3.936h1.2v-10.8h-1.2v-3.936h10.128v3.936h-2.208v10.8h2.16v-2.208h4.7765v6.144zm33.7755-6h-1.2v4.8c-.704.4-1.736.76-3.096 1.08-1.344.304-2.8.456-4.368.456-2.992 0-5.336-.784-7.032-2.352-1.696-1.584-2.544-4.024-2.544-7.32 0-3.376.84-5.832 2.52-7.368 1.696-1.536 4.112-2.304 7.248-2.304 1.52 0 2.944.16 4.272.48s2.328.68 3 1.08v5.736h-6v-1.128c0-.672-.144-1.152-.432-1.44-.272-.304-.712-.456-1.32-.456s-1.056.152-1.344.456c-.272.288-.408.768-.408 1.44v7.008c0 .672.136 1.16.408 1.464.288.288.736.432 1.344.432s1.048-.144 1.32-.432c.288-.304.432-.792.432-1.464v-.168h-1.296v-3.576h8.496zm.678 6v-3.936h1.2v-10.8h-1.2v-3.936h9.12v3.936h-1.2v10.8h1.2v3.936zm19.054.336c-2.512 0-4.456-.552-5.832-1.656-1.36-1.104-2.04-2.896-2.04-5.376v-8.04h-1.2v-3.936h8.88v3.936h-.96v9.264c0 .528.112.92.336 1.176.24.24.592.36 1.056.36s.808-.12 1.032-.36c.24-.256.36-.648.36-1.176v-9.264h-.96v-3.936h8.232v3.936h-1.2v8.04c0 2.48-.664 4.272-1.992 5.376s-3.232 1.656-5.712 1.656zm36.246-15.072h-1.2v10.8h1.2v3.936h-9.072v-3.936h1.152v-8.4l-4.08 12.336h-3.552l-4.2-12.216v8.28h1.152v3.936h-7.872v-3.936h1.2v-10.8h-1.2v-3.936h10.992l2.496 7.488 2.4-7.488h10.584z" fill="#ff0068"/><path d="m50.0308 283.58h1.2v-10.8h-1.2v-3.936h11.016c2 0 3.56.408 4.68 1.224s1.68 1.984 1.68 3.504c0 .944-.224 1.744-.672 2.4-.448.64-.976 1.128-1.584 1.464-.592.32-1.168.536-1.728.648v.24c1.136.112 2.16.472 3.072 1.08s1.368 1.696 1.368 3.264c0 1.68-.632 2.912-1.896 3.696-1.264.768-2.904 1.152-4.92 1.152h-11.016zm9.216-6.864c.464 0 .808-.12 1.032-.36.24-.256.36-.648.36-1.176v-.864c0-.528-.12-.912-.36-1.152-.224-.256-.568-.384-1.032-.384h-1.296v3.936zm.168 6.864c.464 0 .808-.12 1.032-.36.24-.256.36-.648.36-1.176v-1.056c0-.528-.12-.912-.36-1.152-.224-.256-.568-.384-1.032-.384h-1.464v4.128zm9.2254 0h1.2v-10.8h-1.2v-3.936h11.016c2.064 0 3.64.424 4.728 1.272s1.632 2.224 1.632 4.128c0 1.072-.216 2-.648 2.784s-1.048 1.328-1.848 1.632l.024.24c1.536.24 2.304 1.184 2.304 2.832v1.848h1.128v3.936h-7.608v-5.64c0-.624-.096-1.096-.288-1.416-.176-.32-.464-.536-.864-.648-.384-.112-.936-.168-1.656-.168v3.936h1.584v3.936h-9.504zm9.216-6.864c.464 0 .808-.12 1.032-.36.24-.256.36-.648.36-1.176v-.864c0-.528-.12-.912-.36-1.152-.224-.256-.568-.384-1.032-.384h-1.296v3.936zm18.135 11.136c-2.512 0-4.456-.552-5.832-1.656-1.36-1.104-2.04-2.896-2.04-5.376v-8.04h-1.2v-3.936h8.88v3.936h-.96v9.264c0 .528.112.92.336 1.176.24.24.592.36 1.056.36s.808-.12 1.032-.36c.24-.256.36-.648.36-1.176v-9.264h-.96v-3.936h8.2318v3.936h-1.2v8.04c0 2.48-.664 4.272-1.992 5.376s-3.2318 1.656-5.7118 1.656zm17.2138 0c-1.536 0-2.992-.128-4.368-.384-1.36-.272-2.408-.576-3.144-.912v-4.752h5.28c0 .496.112.856.336 1.08s.632.336 1.224.336c.496 0 .848-.072 1.056-.216.224-.16.336-.392.336-.696 0-.256-.104-.472-.312-.648-.208-.192-.568-.384-1.08-.576l-2.064-.72c-1.776-.672-3.056-1.464-3.84-2.376-.768-.912-1.152-2.144-1.152-3.696 0-1.888.616-3.32 1.848-4.296 1.248-.992 3.32-1.488 6.216-1.488 1.392 0 2.696.144 3.912.432 1.232.272 2.224.64 2.976 1.104v4.296h-4.8c0-.8-.496-1.2-1.488-1.2-.48 0-.824.064-1.032.192-.192.112-.288.32-.288.624 0 .272.112.488.336.648.24.16.624.328 1.152.504l2.088.72c1.696.576 2.928 1.328 3.696 2.256.784.912 1.176 2.112 1.176 3.6 0 2.032-.688 3.568-2.064 4.608-1.36 1.04-3.36 1.56-6 1.56zm16.172 0c-1.536 0-2.992-.128-4.368-.384-1.36-.272-2.408-.576-3.144-.912v-4.752h5.28c0 .496.112.856.336 1.08s.632.336 1.224.336c.496 0 .848-.072 1.056-.216.224-.16.336-.392.336-.696 0-.256-.104-.472-.312-.648-.208-.192-.568-.384-1.08-.576l-2.064-.72c-1.776-.672-3.056-1.464-3.84-2.376-.768-.912-1.152-2.144-1.152-3.696 0-1.888.616-3.32 1.848-4.296 1.248-.992 3.32-1.488 6.216-1.488 1.392 0 2.696.144 3.912.432 1.232.272 2.224.64 2.976 1.104v4.296h-4.8c0-.8-.496-1.2-1.488-1.2-.48 0-.824.064-1.032.192-.192.112-.288.32-.288.624 0 .272.112.488.336.648.24.16.624.328 1.152.504l2.088.72c1.696.576 2.928 1.328 3.696 2.256.784.912 1.176 2.112 1.176 3.6 0 2.032-.688 3.568-2.064 4.608-1.36 1.04-3.36 1.56-6 1.56zm8.732-.336v-3.936h1.2v-10.8h-1.2v-3.936h16.2v7.248h-5.376v-3.312h-2.904v3.792h2.112v2.736h-2.112v4.272h2.904v-3.792h5.376v7.728zm17.109 0v-3.936h1.2v-10.8h-1.2v-3.936h10.128v3.936h-2.208v10.8h2.16v-2.208h4.776v6.144zm23.12.336c-1.536 0-2.992-.128-4.368-.384-1.36-.272-2.408-.576-3.144-.912v-4.752h5.28c0 .496.112.856.336 1.08s.632.336 1.224.336c.496 0 .848-.072 1.056-.216.224-.16.336-.392.336-.696 0-.256-.104-.472-.312-.648-.208-.192-.568-.384-1.08-.576l-2.064-.72c-1.776-.672-3.056-1.464-3.84-2.376-.768-.912-1.152-2.144-1.152-3.696 0-1.888.616-3.32 1.848-4.296 1.248-.992 3.32-1.488 6.216-1.488 1.392 0 2.696.144 3.912.432 1.232.272 2.224.64 2.976 1.104v4.296h-4.8c0-.8-.496-1.2-1.488-1.2-.48 0-.824.064-1.032.192-.192.112-.288.32-.288.624 0 .272.112.488.336.648.24.16.624.328 1.152.504l2.088.72c1.696.576 2.928 1.328 3.696 2.256.784.912 1.176 2.112 1.176 3.6 0 2.032-.688 3.568-2.064 4.608-1.36 1.04-3.36 1.56-6 1.56z" fill="#f895b3"/></svg>