<svg fill="none" height="239" viewBox="0 0 218 239" width="218" xmlns="http://www.w3.org/2000/svg" xmlns:xlink="http://www.w3.org/1999/xlink"><clipPath id="a"><path d="m0 0h218v239h-218z"/></clipPath><g clip-path="url(#a)"><path d="m67.4 205.72h1v-9h-1v-3.28h9.18c1.6667 0 2.9667.34 3.9 1.02s1.4 1.653 1.4 2.92c0 .787-.1867 1.453-.56 2-.3733.533-.8133.94-1.32 1.22-.4933.267-.9733.447-1.44.54v.2c.9467.093 1.8.393 2.56.9s1.14 1.413 1.14 2.72c0 1.4-.5267 2.427-1.58 3.08-1.0533.64-2.42.96-4.1.96h-9.18zm7.68-5.72c.3867 0 .6733-.1.86-.3.2-.213.3-.54.3-.98v-.72c0-.44-.1-.76-.3-.96-.1867-.213-.4733-.32-.86-.32h-1.08v3.28zm.14 5.72c.3867 0 .6733-.1.86-.3.2-.213.3-.54.3-.98v-.88c0-.44-.1-.76-.3-.96-.1867-.213-.4733-.32-.86-.32h-1.22v3.44zm7.6878 3.28v-3.28h1v-9h-1v-3.28h13.5v6.04h-4.48v-2.76h-2.42v3.16h1.76v2.28h-1.76v3.56h2.42v-3.16h4.48v6.44zm14.2578 0v-3.28h1v-9h-1v-3.28h8.4404v3.28h-1.84v9h1.8v-1.84h3.98v5.12zm28.1464-5h-1v4c-.587.333-1.447.633-2.58.9-1.12.253-2.333.38-3.64.38-2.493 0-4.447-.653-5.86-1.96-1.413-1.32-2.12-3.353-2.12-6.1 0-2.813.7-4.86 2.1-6.14 1.413-1.28 3.427-1.92 6.04-1.92 1.267 0 2.453.133 3.56.4s1.94.567 2.5.9v4.78h-5v-.94c0-.56-.12-.96-.36-1.2-.227-.253-.593-.38-1.1-.38s-.88.127-1.12.38c-.227.24-.34.64-.34 1.2v5.84c0 .56.113.967.34 1.22.24.24.613.36 1.12.36s.873-.12 1.1-.36c.24-.253.36-.66.36-1.22v-.14h-1.08v-2.98h7.08zm.565 5v-3.28h1v-9h-1v-3.28h7.6v3.28h-1v9h1v3.28zm15.878.28c-2.093 0-3.713-.46-4.86-1.38-1.133-.92-1.7-2.413-1.7-4.48v-6.7h-1v-3.28h7.4v3.28h-.8v7.72c0 .44.093.767.28.98.2.2.493.3.88.3s.673-.1.86-.3c.2-.213.3-.54.3-.98v-7.72h-.8v-3.28h6.86v3.28h-1v6.7c0 2.067-.553 3.56-1.66 4.48s-2.693 1.38-4.76 1.38zm30.205-12.56h-1v9h1v3.28h-7.56v-3.28h.96v-7l-3.4 10.28h-2.96l-3.5-10.18v6.9h.96v3.28h-6.56v-3.28h1v-9h-1v-3.28h9.16l2.08 6.24 2-6.24h8.82z" fill="#e55933"/><g fill="#171619"><path d="m135.791 4.44342-.87.41475.04 1.53432-1.282-.55978.209-.96584.543.57718.478-.70479-.458-.30745zm-9.406-4.44342 3.211 1.73444.255 2.03318-1.207 1.08475.412 2.20141.92-.07251-.633.51337-3.448-1.35449-.09 1.52561 5.253.48727 1.206-.7396 1.81 2.13759 4.71-4.59423.186-2.1144 1.241-1.55461.943 1.22977 1.862.11601 1.479 3.53849-1.839 3.47469 3.397 4.10986.153 2.9555 1.587.4786 2.106-.9804 2.273 1.5025-.829 3.3209.65.5859-1.184 1.3226-.119 2.3464 2.619 3.2862.079 2.9613-1.569 1.5691-1.596-.6004-.693 1.543-1.499.1885-.459.0813-1.601.0986-1.969 2.8482-4.693.9861-.136 1.5749-1.63 2.0419-.876-.9745-1.755.7773h-.264l-1.833 1.3516-4.53.9484-1.468-2.4857-1.737 1.2791-1.564-.1421-2.03 2.4421.56-1.4125-1.302-.9223-4.435 1.2791-.339 1.5662-.914.1885-1.845-1.2065-1.139 1.0557-2.251-1.4125-.592 1.5285-1.511-1.2616-3.254.902-.322-1.3516-.925-.3045.411-1.4676-2.065 1.2616.186-.9397-3.7357-1.4502-2.3088.5105-.4234-.5627-1.1283.931-1.2414-.6613.4351-1.5749-.6613-.2958-.6613-3.5733 2.0709-1.8563 2.0593.6468 3.7125-1.0209.9714-2.6278-.04-2.5408-.711-.3509.412-1.311-1.2299-.377-.8063-4.2781 1.8102-2.6887-2.3526-1.6184-.58-3.5472-1.8215-1.0442-1.1834-1.9026 6.6975-.2872.435 1.6939 2.297.2958 2.72-.8034-2.674-5.0786.711-1.84176-1.044-.50467 5.348-2.82789 3.672-.37125.525.82081-.972 2.1231.305 2.34642 2.25-.83822 3.623.87593 1.642-.33355-.102-1.63293 1.462-.66709 3.356-4.2925931z" stroke="#fff" stroke-width=".5"/><path d="m87.7835 71.1382 3.0976-2.1173 1.3806 2.1086 1.5981-.1799 2.2392 1.7432.8411-.9339h2.5001l.4496-1.8302 1.1802.3103-.591-1.0383.585-.5511.943 1.5459 1.212.0261v-1.1108l6.805-2.3725-.05 1.163 1.845 1.3081.038-1.0064 2.764-.7106 1.175-1.5024.484 2.0273 1.711-.1334 1.195-1.1572-1.015-1.485.293-2.3842 2.834.873 1.052-.5713.227.6062.536-1.166 1.993-.409 1.772.7367 1.207 1.923 1.279.0812.011 1.137 3.562-.5047h.429l-.006 1.688 1.053.5888 3.205-2.3928 2.118 1.7605-.198 1.5575-1.325.7541 1.346 1.8737-.885.7396.058 2.6713-1.062 2.0332-1.818-.4264-1.346 1.775-1.621-.1421.084.612-6.396 1.8534.218.9919-1.201-1.0006-1.499 1.1253-.543-1.9229-1.163.2117-.49 1.2414-2.268-1.0906-.496 1.2327.777 2.329-1.38.5511-2.466-.8063-1.45.6816.163 1.7634-3.701 1.3719-.621-1.2588-1.444.2408-.508.8121.174-2.7003-1.117.3654-2.143-.9397-3.048.2378-1.459 1.6388.174-2.1347-1.8216.0174-1.6648-2.3726-1.4792-.0203.3451-1.9055-2.9903-.6816.2465-2.0245-1.3255-1.3574-2.1782 2.6452-2.0795-.0348-.8528-1.8186.1567-4.3796 1.0673-.2842z" stroke="#fff" stroke-width=".5"/><path d="m106.216 54.0344.226.1682.4 1.5082-.829.9978 2.105 1.4009.85 2.6103-1.375.8818.221.6322.896.0987 1.07 1.1572-.8.0696-.734.3133-4.412 2.0535-2.865-.9601-1.5751-3.2919-1.3139.3915-1.9114-.9629-.1421.1421-.0348-.1073.5714-.7396.1624-.8005 1.4502-.0725-.145-2.7351.9455-1.4009.9717-.8991.3101-.1799.807-.5713.362-.0783 2.097.3828 1.204-1.34.731.5366.577.3916z" stroke="#fff" stroke-width=".5"/><path d="m51.6474 65.7057 1.9287.8991 2.5118-.5975.1856 2.7467 3.8604.1334.8296.8788.3103.0986 2.6742-4.571 1.8562-.8643.2321 1.2907 2.5117-1.2095-.2755.8904 1.2065 2.0912 2.0187-.2059 1.5923.7657 2.3088-.8527.9136 1.6619-.3336 2.01 1.2356 1.688 2.3986.1856h.3771l5.038-1.1195.496.641 1.4618-1.8302v.2059l.8005.4989.7222.0986-1.0674.2843-.1566 4.3767.8527 1.8185 2.0825.0348 2.1782-2.6451 1.3255 1.3573-.2494 2.0216 2.9903.6816-.3452 1.9056 1.4792.0174 1.6649 2.3754 1.8217-.0174-.174 2.1347 1.461-1.6387 3.046-.2378 2.143.9397 1.117-.3626-.174 2.7003.508-.815 1.444-.2378.621 1.2558 3.701-1.3719-1.094 3.3993v.293l.22.9281 1.749-.902-.452.5394.763 1.7693-1.581 2.8453 2.584 1.485-.774 1.9171-1.056.3539 1.152 1.1485-.92.4321-.496 1.984.775 2.715-4.226.942-.841-1.128-1.19.018-1.325 2.053-3.153-.528-.275 1.331-1.587.398-.615 1.444-1.694-.159-2.3402 1.899 3.2452 2.527 1.224-1.381.549.316h.554l.8.58-.046.299-.113 1.442h-.198l.131 2.497-1.912 1.372 2.173 3.994-.835 1.273.269 5.067 1.062.368.27 4.177 1.696 3.544-.67 1.407-4.62-.998-2.3581-1.407-6.4389 1.146-.1624-1.233-2.8047-.751 1.1341-1.891-1.4676-1.618 1.3545-2.515 1.8678-.104 2.0883-1.744-1.8621-3.167.1567-2.422-2.6336-.043.0667.615-1.485-.633 1.4995-2.598-.2436-4.377 1.2471-.29 2.7264-3.22-.7164-1.699-1.7257-.29-.8788-1.215-.7048 1.25.9803 1.47-1.6706.026-1.1689-4.005-1.1747-.917-1.1166.264-2.9236-4.24-2.1202 1.438-.757-.475-.293.6-.0464-.635-3.7009 1.894-2.9294-2.213-1.3545-.044-.6671.786-.377-.934-3.3964.273-.7773.696-.2378 2.645-1.1689-.644.496 1.224-.5482.143-1.9462-2.608-.8643-3.077.9369-2.9384-.847-4.716-2.9381-3.4834-1.427.4873-.8237-.876-3.843 1.1689-.2581-1.0093 1.2877-2.2043-2.4885-.8499-1.5459 2.3639-.5801-.3452-3.4428 1.6996-.8237-1.1311-3.9446-1.8041-.7105-1.2645.0058-5.0061-2.2392-5.5601 1.4676-1.6329-.699-1.137.4409-1.1021-3.8198-1.981.3509-.96-1.2181-1.9114 2.3928-.9078 2.3928 1.2732 2.4654-.3103 1.0557 3.0048 1.9926 1.0674 2.6191-3.2717 1.5691-.232v-.3481zm-33.6882 5.3773.3945-.5163-1.6301-2.0012.5917-.4902-.5366-.8614 1.5053-.8731.496.4902.0174-.641.9775.7744 1.4937-.3654-.0348-.6758 2.2623-.8092-1.3371-1.7635 3.5936-1.5053.8121.6758-.351 1.7896 1.1805.2494-.5917.6236-2.3812 1.9752-2.1057.5945.3568 1.1747-2.0419 3.3935z" stroke="#fff" stroke-width=".5"/><path d="m177.687 61.7353.453 2.6161-1.039 2.155 1.79.9514.275.0348.775-.7193.716.5336.079.2495h2.16l2.036 2.9236 2.24-.2756 1.224.641 1.58-2.2594-1.032-1.8591 1.401.4002 2.508-1.047 1.091.8266 2.239-.1508 1.218.9774-.113 2.2768.345-.8469 4.012.5337 3.747 6.3141-.798.7367.841.9514-.382.522 1.163-.5858 4.005.5771-1.433 3.3152-1.027-.0957-2.775 2.8888.127 1.3545.998.4582-.426.9137 1.093.5046 1.021 2.2653 2.489-.876 4.53 1.4589-.574 2.3436 1.769.6961.25 1.6271-1.987 4.9713 3.724 3.95-.168 1.129-2.37.713-.07.908-1.63-1.648-1.415.334-1.534 4.545-3.652.87-1.027 1.717-1.16.203-.536 1.265 1.354 3.35-2.523.641-.734 1.905 1.18 1.027-.812 1.082-1.514-.528.711-1.14-.664-1.528-1.813-.433-.084 1.32-1.065.261-1.682-.94-.371-1.711.534-1.987-1.184.026-.168-9.565-1.514-.566-.226-.835-6.584-1.508-.641 1.772 1.015 1.154-1.354 2.924h.298l1.726.133-2.216 1.645-1.723-.308-.209.871-.467-.914-1.821-.273-2.433.563 1.406-3.478-1.317-.026-1.223-2.459 1.015-2.486-2.808.105.252-1.059-2.459-.238-2.251-2.4334-3.182.5801-1.389-2.8685-2.477 1.5546-2.68-1.9606-.795 1.5024h.891l.435 1.0064-2.048 1.966-2.358-.7942-3.057 2.0472-.913-1.136.324-1.3956-2.938-.8643-.757-1.1573.786-1.9171-2.134-3.6313-1.976.9194-.71-1.2646.577-.4612-1.54-.2639-.273-1.0876.711-.8151-1.404.7426-1.235-.9195-.119-1.4067-3.217-.2291.983-.6903-.316-1.7634-1.157-2.4625-2.724-2.6422.293-2.1376 1.062-2.0332-.058-2.6713.885-.7396-1.346-1.8737 1.325-.7541.197-1.5575 1.494.9165-.139 1.4038 1.439 1.5199 1.754-.177 3.661 1.1805.864-.7802-.722-.9165.377-.8354 3.138.5772.473-.8353 1.128 1.0325 1.004-1.1659 1.586 1.076 2.512-2.6219 2.143-.1682 1.738 2.5755 1.653-.087.789-1.6445.876 1.3051 2.651-1.6155.142-1.4966.319.1624 4.362-1.63 2.454-2.7061 1.812.1248.128-.6758z" stroke="#fff" stroke-width=".5"/><path d="m182.812 65.5722 1.41 1.0935 2.053-.757.282.8991 1.998-1.3168.389 1.2356 1.032 1.8591-1.58 2.2566-1.224-.641-2.239.2755-2.037-2.9236h-2.16l-.079-.2494-.716-.5337-.774.7193-.276-.0348-1.79-.9513 3.211-.2147 1.619-1.9577zm-14.038-45.5189 1.253 1.1776.227 3.814 5.104 2.1637.366 1.1399 6.027.1247.661 2.8714 2.639-1.4444 1.709 2.1347-2.555 2.3754 1.258 1.7925-2.036.5829.244 2.6945-1.474-.1073-.884 2.5524 1.021.9571-.56 2.271-2.555 3.173.435.6613 1.276-.4292.357.8672-1.946 3.6429-1.309-.0986-1.194 2.6132-1.897.847.249 3.93 2.19 1.3632-.131.6758-1.809-.1247-2.454 2.706-4.362 1.6272-.322-.1595-.142 1.4937-2.651 1.6184-.876-1.3081-.789 1.6445-1.654.0899-1.737-2.5784-2.143.1682-2.512 2.622-1.587-1.0761-1.003 1.1631-1.128-1.0297-.473.8354-3.144-.5714-.377.8353.722.9165-.864.7831-3.663-1.1804 1.087-2.3552-1.021-.5249.351-1.3951.47-.6062-.377-1.9926 2.404-2.0129-.4-.0174-.864-.4727.345-2.9933 1.033-2.7205 1.253.1682.524-2.3725-1.067-.8847-1.772.0435-.174-.7396-1.151.438-1.169.6613-.769-1.108-.728.4206-1.241-2.3029 1.908-1.5546.186-2.2972 2.572-1.018-.507-2.1028.621-.3132.118.7686 1.596-.7773-2.274-2.2913-2.144.2697.186 2.068-1.421.8063-.795-.8846-1.157.4118-.751-1.7344-1.619.4118 1.63-2.0418.137-1.575 4.692-.9861 1.97-2.8482 1.601-.0986.458-.0812 1.5-.1885.693-1.5431 1.595.6004 1.569-1.5691-.078-2.9613-2.619-3.2862.119-2.3464 1.183-1.3226 5.54-.145.56-1.0963 4.034 1.0789 3.869-3.4283 1.72.4496z" stroke="#fff" stroke-width=".5"/><path d="m160.824 100.168 2.048-1.9663-.435-1.0064h-.89l.794-1.5024 2.68 1.9606 2.477-1.5546 1.389 2.8685 3.182-.5801 2.251 2.4337 2.459.238-.252 1.058 2.808-.104-1.015 2.485 1.224 2.46 1.316.026-1.406 3.478 2.433-.563 1.822.273.466.913.209-.87 1.723.308 2.216-1.645-1.726-.133h-.298l1.354-2.924-1.015-1.154.641-1.772 6.584 1.508.226.835 1.514.566.168 9.565 1.184-.026-.534 1.987-3.275.905-.319 3.625-3.596 1.72-.54 2.991-1.867 1.647.855 1.079-.551 1.569-2.297 1.427.983 2.782-1.705 1.54-1.743.22-.734 3.89-1.546 1.502 2.749 1.781-.536 1.012-1.096-.444.298 1.352-.765.307.638.54-1.001.968.78 3.942 1.912-.374 2.352 4.188-.223 2.152 2.16-.278 1.16 1.453-1.16 2.825 2.561 1.105-.255 2.312-1.076.182-.696 2.335-1.476 1.085.22.757 1.021-.052.006 1.186-1.659 1.804-1.384.67-3.216-1.442-.754 1.979-5.43-1.085-1.923 1.978-.243 1.845-1.094-1.335-1.998-.632-.85 1.143-3.167.684-.717.955-1.261-1.784.957-.789-.073-1.05-1.331-1.12.734-1.308-.955-.235-.507-2.221-4.542-3.031-.574 1.209-1.401.502-.435-1.589 1.424-2.129-3.133-3.347-.525-.366-1.343.992-2.114-.905-2.213.209-.232-1.946-1.966.2-1.874-4.301-1.694.104-3.164-1.804-.717-1.552-1.508-.13 1.085-1.943.084-2.547 3.849-2.628-.798-.838 1.645-1.671 2.688-.925-1.229-1.224.22-2.045-2.352-2.1-2.883.351.101-1.453-2.131-2.784.867.13.481-1.496.807.568 1.737-1.348.252-1.981.763-.044-.441-.974.775-3.078.58 2.614 7.036-.308 3.875-1.473v-.351l-1.511-1.43 2.369-1.299-.191-.958-2.065-2.468.377-.502-.98-.237.699-.827-2.184-.949 2.822-.948-.363-.977 1.604-.801.853.606 1.021-.519 4.603-3.695-.311-2.442-1.342-.165-.92 1.081-.333-.8 2.917-1.877-.751-1.348 1.117-1.422z" stroke="#fff" stroke-width=".5"/><path d="m114.775 85.8171-.163-1.7634 1.451-.6816 2.465.8063 1.381-.5511-.778-2.329.496-1.2327 2.268 1.0906.49-1.2414 1.164-.2117.542 1.9229 1.499-1.1253 1.201 1.0006-.217-.9919 6.395-1.8534-.084-.6119 1.621.1421 1.346-1.7751 1.819.4264-.293 2.1376 2.723 2.6422 1.157 2.4625.317 1.7634-.984.6903 3.217.2292.119 1.4067 1.235.9194 1.404-.7425-.71.815.272 1.0876 1.54.264-.577.4611.711 1.2646 1.975-.9194 2.135 3.6313-.786 1.9172.757 1.1572 2.938.8643-.325 1.3948.913 1.137 3.057-2.0474 2.358.7944.395 1.042-1.117 1.421.752 1.348-2.918 1.877.333.801.92-1.082 1.343.165.31 2.442-4.603 3.695-1.021.519-.853-.606-1.604.801.363.977-2.822.949 2.184.948-.699.827.98.237-.377.502 2.065 2.468.192.958-2.37 1.299 1.511 1.43v.351l-3.875 1.473-7.036.308-.58-2.614-.775 3.078.441.974-.763.044-.252 1.981-1.737 1.348-.807-.568-.481 1.497-.867-.131 2.131 2.784-.101 1.454 2.883-.351 2.352 2.1-.22 2.044 1.23 1.224-2.689.925-1.645 1.671.798.838-3.849 2.628-.084 2.547-1.085 1.943-2.245 1.256-4.376-.522 1.314-2.312-1.564-4.11.769-.026 1.552-3.709-2.309-3.382-3.182-.868-.078-.928.185-1.198 1.427-1.032.084-2.75 1.213-1.084-1.189-2.358 1.015-.192.734-3.016 1.18 1.192-.244-2.782 1.613-1.491-1.099-1.424-2.326-.113-.496-1.247-3.6 2.793-.71 2.184-3.199 2.335-.766 1.621 1.099 1.349-.873 2.216.49 2.628-5.336.768-3.2 1.532-.936 1.627-5.131.777.673-1.407-1.7-3.544-.27-4.176-1.061-.369-.27-5.067.835-1.27-2.172-3.997 1.911-1.369-.127-2.497h.197l.113-1.442.044-.298-.801-.583h-.554l-.545-.317-1.224 1.381-3.2458-2.523 2.3408-1.903 1.694.16.615-1.445 1.583-.394.279-1.332 3.152.528 1.326-2.053 1.192-.018.841 1.129 4.226-.943-.774-2.715.495-1.984.92-.4347-1.149-1.1456 1.053-.3539.775-1.9171-2.585-1.4821 1.581-2.8453-.763-1.7693.453-.5395-1.749.9021-.221-.9282v-.2929z" stroke="#fff" stroke-width=".5"/><path d="m95.5073 13.2666 1.8214 1.0441.583 3.5472 2.3523 1.6214-1.8128 2.6886.8092 4.2781 1.2296.3771-.412 1.311.711.3509.038 2.5379-.9691 2.6277-3.7125 1.0239-2.0593-.6468-2.0709 1.8562.6613 3.5733.6584.2959-.4351 1.5749 1.2414.6613 1.1282-.9281.4235.5626-.2088 1.6649-.8179.348.6149 1.1718-1.952 1.6271-.6091.0174-1.5169-.554-.8875 1.8853.7512 2.5552.2871.6613-1.3429 1.2762-2.4856-1.3139.2755 2.0999-1.3429.8295.7889.9282-.3219 1.1746-2.4247 3.3703 1.5633.3393-.38 4.0171-2.6277 1.7779-.9601-.728-.7048 1.1022-2.0825-.9165-.9687 1.5488 1.1283 2.3551-1.6359.2755-.4988-.0261-1.0268-.2494-.9136-1.6619-2.3058.8527-1.5923-.7628-2.0187.203-1.2095-2.0912.2784-.8875-2.5117 1.2095-.232-1.2907-1.8563.8643-2.6742 4.571-.3103-.0986-.8295-.8817-3.8575-.1334-.1857-2.7467-2.5117.5975-1.9288-.8991 3.4979-3.4109-1.2414-1.6474.7048-.9978-3.3499-2.8859 1.4647-2.6683-1.0645-.9079-1.5256.8905-.931-.6236 1.0006-1.1863-.4351-1.0818 1.456-.0087-.7105-.963 1.2065-.1972-2.6277-1.2414 1.6967-.8034-.9803-1.3603 1.4444-2.2246-1.4734-2.9526h.3393l.8005-.7425-.6091-.5917-5.8733-4.0286 2.4189-1.6127 2.0535-3.9039-1.4212-2.3145-1.4386-.4931 1.3603-.9977-.9919-2.2101 1.746-.8528-.9136-3.3731 2.6539 2.6887 5.5687-.1074-.6555-3.7038 1.253.2785 1.3922-.9717 1.1167.7106.5104-1.7199 5.8879 2.709 4.6319 1.134 1.0209.7019-.2523 3.6574 3.7908.2959 1.6358-1.0703-.0261 2.039 2.3001-1.7692.4408.7019 1.2791-.3684 3.1962-2.5988 2.6046.1103 6.0154-4.516z" stroke="#fff" stroke-width=".5"/><path d="m137.534 41.8643 1.619-.4118.751 1.7344 1.157-.4119.795.8847 1.421-.8064-.186-2.0679 2.144-.2698 2.274 2.2913-1.596.7774-.119-.7687-.62.3133.507 2.1028-2.572 1.018-.186 2.2971-1.908 1.5547 1.241 2.3029.728-.4206.769 1.108 1.168-.6613 1.152-.438.174.7396 1.772-.0435 1.067.8846-.525 2.3726-1.252-.1683-1.033 2.7206-.345 2.9932.864.4728.4.0174-2.404 2.0129.377 1.9926-.47.6061-.351 1.3951 1.021.525-1.088 2.3551-1.754.177-1.439-1.5199.142-1.4038-1.496-.9165-2.115-1.7605-3.205 2.3928-1.055-.5859.005-1.6909h-.429l-3.559.5076-.011-1.1399-1.282-.0812-1.207-1.923-1.772-.7396-1.993.409-.536 1.1659-.226-.6061-1.056.5684-2.831-.873-.293 2.3841 1.015 1.4851-1.195 1.1572-1.708.1334-.484-2.0273-1.175 1.5024-2.764.7106-.041 1.0035-1.844-1.3081.052-1.1659-6.805 2.3754v1.1108l-1.212-.0261-.943-1.5459-.585.5511.591 1.0412-1.1802-.3103-.4524 1.8302h-2.5002l-.8411.9339-2.2391-1.7403-1.5981.177-1.3835-2.1057-3.0976 2.1144-.8006-.4989v-.2059l-1.4618 1.8301-.4959-.641-5.038 1.1196h-.3771l-2.3986-.1856-1.2356-1.6881.3336-2.01 1.0267.2495.496.0261 1.6358-.2756-1.1283-2.3551.9717-1.5488 2.0825.9165.7048-1.1021.96.7309 2.6278-1.7809.377-4.017-1.5633-.3394 2.4247-3.3702.322-1.1776-.7889-.9281 1.3429-.8295-.2756-2.097 2.4886 1.311 1.3428-1.2762-.2871-.6613-.7512-2.5553.8846-1.8852 1.5169.5539.6091-.0174 1.952-1.6271-.6149-1.1717.8179-.3481.2088-1.6648 2.3088-.5105 3.7361 1.4502-.186.9397 2.065-1.2616-.412 1.4676.925.3045.322 1.3516 3.255-.902 1.511 1.2616.591-1.5285 2.251 1.4125 1.14-1.0557 1.845 1.2065.913-.1885.34-1.5662 4.434-1.2791 1.303.9224-.56 1.4125 2.03-2.4422 1.563.1421 1.738-1.279 1.467 2.4856 4.531-.9484 1.833-1.3516h.264l1.755-.7773zm-36.107 11.7959-.363.0813-.806.5713-.3102.1799-.9716.902-.9484 1.4009.1479 2.7351-1.4502.0725-.1624.8005-.5685.7396.0348.1073.1421-.1421 1.9114.9629 1.3139-.3915 1.5752 3.2948 2.865.96 4.412-2.0563.734-.3104.8-.0725-1.073-1.1573-.896-.0986-.221-.6323 1.378-.8817-.853-2.6103-2.105-1.4009.829-.9978-.4-1.5082-.406-.5714-.575-.3915-.733-.5366-1.201 1.3371z" stroke="#fff" stroke-width=".5"/><path d="m46.5224 11.915.8992 3.0716-1.4212 1.7199.9629 1.1718-.5018.3509.7889 2.0854.9137 3.3732-1.7461.8527.992 2.2101-1.3603.9977 1.4386.4931 1.4212 2.3145-2.0535 3.904-2.4189 1.6126 5.8733 4.0286.6091.5917-.8006.7425h-.3393l1.4734 2.9526-1.4444 2.2246.9803 1.3603-1.6967.8034 2.6278 1.2414-1.2066.1972.7106.963-1.456.0087.4351 1.0818-1.0007 1.1863.931.6236 1.5257-.8904 1.0644.9078-1.4647 2.6684 3.35 2.8859-.7048.9977 1.2413 1.6474-3.4978 3.4109-1.4502 1.2994v.3451l-1.5692.2321-2.619 3.2716-1.9897-1.0673-1.0557-3.0049-2.4654.3104-2.3928-1.2704-2.3929.9049-1.5343-3.0135-1.3864.3191-.786-.6671-1.601 1.9316-1.3197-.7048-1.4734.9804-.8063-.3829.5917-.6236-1.1776-.2494.3481-1.7895-.8121-.6758-3.5936 1.5053 1.3371 1.7605-2.2624.8092.0348.6787-1.4966.3626-.9745-.7744-.0174.641-.496-.4873-1.5082.8701.5366.8643-.5917.4873 1.63 2.0013-.3944.5133-.8875-1.3777-1.6359.6236-1.5894-.9687-.5192-2.1782-3.1556-3.7096-.0667-1.5691-2.54365-.293-.51917-.7483-1.87947.8556-1.09345-3.1817-.92232-.1334.71349-1.3806-.18852-2.9439-.12762-1.3632-.91943-.5627 2.34643-2.474-1.39509-3.8344-1.88237-1.0992-1.69383-7.7499 12.434-6.958 17.5359-12.1875 6.0705-2.6191-.7947-1.8998.9426-1.047-.6729.7396.8817 1.0992.8006-.5133-.9862 1.2442.5685-.4698.0899.9832.3887-1.1079.5539.3683-.377-.612.9455.2437-.406-1.369-.4322.2784.6758-.6323-1.3313-.3248 1.398.3451.2842 1.7461z" stroke="#fff" stroke-width=".5"/><path d="m64.4 235.72h1v-9h-1v-3.28h9.18c1.6667 0 2.9667.34 3.9 1.02s1.4 1.653 1.4 2.92c0 .787-.1867 1.453-.56 2-.3733.533-.8133.94-1.32 1.22-.4933.267-.9733.447-1.44.54v.2c.9467.093 1.8.393 2.56.9s1.14 1.413 1.14 2.72c0 1.4-.5267 2.427-1.58 3.08-1.0533.64-2.42.96-4.1.96h-9.18zm7.68-5.72c.3867 0 .6733-.1.86-.3.2-.213.3-.54.3-.98v-.72c0-.44-.1-.76-.3-.96-.1867-.213-.4733-.32-.86-.32h-1.08v3.28zm.14 5.72c.3867 0 .6733-.1.86-.3.2-.213.3-.54.3-.98v-.88c0-.44-.1-.76-.3-.96-.1867-.213-.4733-.32-.86-.32h-1.22v3.44zm7.6878 0h1v-9h-1v-3.28h9.18c1.72 0 3.0333.353 3.94 1.06s1.36 1.853 1.36 3.44c0 .893-.18 1.667-.54 2.32s-.8733 1.107-1.54 1.36l.02.2c1.28.2 1.92.987 1.92 2.36v1.54h.94v3.28h-6.34v-4.7c0-.52-.08-.913-.24-1.18-.1467-.267-.3867-.447-.72-.54-.32-.093-.78-.14-1.38-.14v3.28h1.32v3.28h-7.92zm7.68-5.72c.3867 0 .6733-.1.86-.3.2-.213.3-.54.3-.98v-.72c0-.44-.1-.76-.3-.96-.1867-.213-.4733-.32-.86-.32h-1.08v3.28zm15.1122 9.28c-2.093 0-3.713-.46-4.8597-1.38-1.1333-.92-1.7-2.413-1.7-4.48v-6.7h-1v-3.28h7.3997v3.28h-.8v7.72c0 .44.094.767.28.98.2.2.494.3.88.3.387 0 .674-.1.86-.3.2-.213.3-.54.3-.98v-7.72h-.8v-3.28h6.86v3.28h-1v6.7c0 2.067-.553 3.56-1.66 4.48-1.106.92-2.693 1.38-4.76 1.38zm14.345 0c-1.28 0-2.493-.107-3.64-.32-1.133-.227-2.006-.48-2.62-.76v-3.96h4.4c0 .413.094.713.28.9.187.187.527.28 1.02.28.414 0 .707-.06.88-.18.187-.133.28-.327.28-.58 0-.213-.086-.393-.26-.54-.173-.16-.473-.32-.9-.48l-1.72-.6c-1.48-.56-2.546-1.22-3.2-1.98-.64-.76-.96-1.787-.96-3.08 0-1.573.514-2.767 1.54-3.58 1.04-.827 2.767-1.24 5.18-1.24 1.16 0 2.247.12 3.26.36 1.027.227 1.854.533 2.48.92v3.58h-4c0-.667-.413-1-1.24-1-.4 0-.686.053-.86.16-.16.093-.24.267-.24.52 0 .227.094.407.28.54.2.133.52.273.96.42l1.74.6c1.414.48 2.44 1.107 3.08 1.88.654.76.98 1.76.98 3 0 1.693-.573 2.973-1.72 3.84-1.133.867-2.8 1.3-5 1.3zm13.477 0c-1.28 0-2.493-.107-3.64-.32-1.133-.227-2.007-.48-2.62-.76v-3.96h4.4c0 .413.093.713.28.9s.527.28 1.02.28c.413 0 .707-.06.88-.18.187-.133.28-.327.28-.58 0-.213-.087-.393-.26-.54-.173-.16-.473-.32-.9-.48l-1.72-.6c-1.48-.56-2.547-1.22-3.2-1.98-.64-.76-.96-1.787-.96-3.08 0-1.573.513-2.767 1.54-3.58 1.04-.827 2.767-1.24 5.18-1.24 1.16 0 2.247.12 3.26.36 1.027.227 1.853.533 2.48.92v3.58h-4c0-.667-.413-1-1.24-1-.4 0-.687.053-.86.16-.16.093-.24.267-.24.52 0 .227.093.407.28.54.2.133.52.273.96.42l1.74.6c1.413.48 2.44 1.107 3.08 1.88.653.76.98 1.76.98 3 0 1.693-.573 2.973-1.72 3.84-1.133.867-2.8 1.3-5 1.3zm7.276-.28v-3.28h1v-9h-1v-3.28h13.5v6.04h-4.48v-2.76h-2.42v3.16h1.76v2.28h-1.76v3.56h2.42v-3.16h4.48v6.44zm14.258 0v-3.28h1v-9h-1v-3.28h8.44v3.28h-1.84v9h1.8v-1.84h3.98v5.12zm19.267.28c-1.28 0-2.494-.107-3.64-.32-1.134-.227-2.007-.48-2.62-.76v-3.96h4.4c0 .413.093.713.28.9.186.187.526.28 1.02.28.413 0 .706-.06.88-.18.186-.133.28-.327.28-.58 0-.213-.087-.393-.26-.54-.174-.16-.474-.32-.9-.48l-1.72-.6c-1.48-.56-2.547-1.22-3.2-1.98-.64-.76-.96-1.787-.96-3.08 0-1.573.513-2.767 1.54-3.58 1.04-.827 2.766-1.24 5.18-1.24 1.16 0 2.246.12 3.26.36 1.026.227 1.853.533 2.48.92v3.58h-4c0-.667-.414-1-1.24-1-.4 0-.687.053-.86.16-.16.093-.24.267-.24.52 0 .227.093.407.28.54.2.133.52.273.96.42l1.74.6c1.413.48 2.44 1.107 3.08 1.88.653.76.98 1.76.98 3 0 1.693-.574 2.973-1.72 3.84-1.134.867-2.8 1.3-5 1.3z"/></g></g></svg>