<svg fill="none" height="224" viewBox="0 0 482 224" width="482" xmlns="http://www.w3.org/2000/svg"><g fill="#000"><path d="m192.442 178.34h-13.179c-.027 0-.054-.005-.079-.016-.025-.01-.047-.025-.066-.044s-.034-.042-.045-.066c-.01-.025-.015-.052-.015-.079v-5.963c-.76-.215-1.568-.191-2.314.068l-.081.053c-.948.472-1.996.703-3.054.673-2.249 0-4.01-.859-4.01-1.956 0-1.098 1.761-1.957 4.01-1.957 1.061-.027 2.113.206 3.063.678l.095.062c.74.252 1.539.272 2.291.06v-1.527c-.001-.027.005-.053.015-.078.01-.026.025-.048.044-.067.019-.02.042-.035.067-.045.025-.011.052-.016.079-.016s.054.005.078.016c.025.01.048.025.067.045.019.019.034.041.045.067.01.025.015.051.015.078v1.654c0 .036-.01.072-.029.104-.018.032-.045.058-.077.075-.887.323-1.859.328-2.749.015-.017-.006-.034-.014-.049-.023l-.105-.071c-.886-.433-1.864-.644-2.85-.617-2.153 0-3.6.8-3.6 1.547s1.447 1.546 3.6 1.546c.986.03 1.964-.182 2.849-.618l.116-.069c.899-.334 1.889-.335 2.789-.002.032.018.058.044.077.075.018.032.028.068.028.104v5.884h12.974c.054 0 .106.022.145.06.038.039.06.091.06.145s-.022.107-.06.145c-.039.039-.091.06-.145.06zm17.817 0h-13.571c-.055 0-.107-.022-.145-.06-.039-.038-.061-.091-.061-.145s.022-.107.061-.145c.038-.038.09-.06.145-.06h13.366v-13.841h-8.805c-.055 0-.107-.021-.145-.06-.039-.038-.061-.091-.061-.145s.022-.107.061-.145c.038-.038.09-.06.145-.06h9.01c.027 0 .053.005.078.016.025.01.048.025.067.044s.034.042.044.067c.011.024.016.051.016.078v14.251c0 .027-.005.054-.016.079-.01.024-.025.047-.044.066s-.042.034-.067.044c-.025.011-.051.016-.078.016z"/><path d="m231.824 171.009c0 .97 1.71 1.75 3.81 1.75 1.021.029 2.033-.19 2.95-.64l.12-.07c.824-.288 1.721-.295 2.55-.02v6.11h-31v-6.09c-.834-.298-1.746-.298-2.58 0l-.12.07c-.917.45-1.929.669-2.95.64-2.1 0-3.81-.78-3.81-1.75 0-.96 1.71-1.75 3.81-1.75 1.025-.027 2.041.196 2.96.65l.11.07c.835.293 1.745.293 2.58 0v-6.09h13.26c1.17-.45 0-1.19 0-1.19l-.16-.06c-.86-.32-1.4-.81-1.4-1.35 0-.97 1.7-1.75 3.8-1.75s3.81.78 3.81 1.75c0 .55-.55 1.04-1.42 1.36l-.14.05s-1.18.74 0 1.19h13.25v6.1c-.827.282-1.725.278-2.55-.01l-.11-.07c-.92-.453-1.935-.676-2.96-.65-2.1 0-3.81.78-3.81 1.75z"/><path d="m210.254 178.239v14.25h-13.31c-1.08-.45.06-1.16.06-1.16l.15-.05c.86-.32 1.41-.81 1.41-1.36 0-.97-1.7-1.75-3.8-1.75s-3.81.78-3.81 1.75c0 .55.55 1.03 1.4 1.36l.16.05s1.13.71.07 1.16h-13.32v-6.09c-.838-.293-1.751-.293-2.59 0l-.11.07c-.917.45-1.929.669-2.95.64-2.11 0-3.81-.78-3.81-1.75 0-.96 1.7-1.75 3.81-1.75 1.026-.028 2.043.199 2.96.66l.1.06c.839.293 1.752.293 2.59 0v-6.09h13.25l.1-.04c.95.45-.14 1.13-.14 1.13l-.14.05c-.86.32-1.41.81-1.41 1.36 0 .97 1.7 1.75 3.8 1.75s3.81-.78 3.81-1.75c0-.55-.55-1.04-1.4-1.36l-.16-.05s-1.11-.7-.1-1.15l.13.06zm48.646-.059c-1.015.45.097 1.147.097 1.147l.157.055c.858.32 1.402.809 1.402 1.356 0 .967-1.704 1.75-3.806 1.75-2.103 0-3.807-.783-3.807-1.75 0-.55.55-1.042 1.414-1.361l.145-.05s1.088-.678.133-1.131l-.096.042h-13.25v6.094c-.837.294-1.75.294-2.587 0l-.106-.068c-.919-.457-1.936-.681-2.962-.65-2.102 0-3.806.783-3.806 1.75 0 .966 1.704 1.75 3.806 1.75 1.022.03 2.035-.192 2.951-.645l.117-.072c.837-.294 1.75-.294 2.587 0v6.093h30.994v-14.252h-13.252z"/><path d="m210.254 206.974h-30.99c-.027 0-.053-.005-.078-.016-.025-.01-.048-.025-.067-.044s-.034-.042-.044-.067c-.011-.025-.016-.051-.016-.078v-5.963c-.762-.214-1.571-.191-2.32.067l-.065.049c-.95.469-2 .7-3.06.672-2.251 0-4.015-.859-4.015-1.955s1.764-1.955 4.015-1.955c1.06-.026 2.11.206 3.06.677l.091.061c.741.252 1.541.273 2.294.06v-5.963c0-.027.005-.054.016-.079.01-.024.025-.047.044-.066s.042-.034.067-.045c.025-.01.051-.015.078-.015h13.21c.051-.021.108-.022.159-.004.052.019.095.056.121.104.012.023.019.047.022.072.002.025 0 .051-.008.075-.007.024-.019.047-.035.066-.017.02-.037.036-.059.047l-.05.021c-.035.014-.072.024-.11.029h-13.045v5.885c0 .036-.01.072-.029.104-.018.032-.045.058-.077.075-.889.324-1.862.329-2.754.015-.018-.006-.036-.015-.051-.026l-.1-.07c-.885-.429-1.86-.64-2.844-.613-2.156 0-3.605.799-3.605 1.545s1.448 1.545 3.605 1.545c.986.028 1.964-.182 2.85-.613l.1-.065c.903-.334 1.895-.336 2.799-.007.032.018.059.044.077.076.019.031.029.067.029.104v5.885h30.58v-13.84h-13.045c-.031 0-.062-.007-.09-.021l-.061-.03c-.049-.024-.086-.067-.103-.119-.017-.051-.013-.107.011-.156s.067-.086.119-.103c.051-.017.107-.013.156.011l.016.008h13.202c.027 0 .054.005.078.015.025.011.048.026.067.045s.034.041.044.066c.011.025.016.052.016.079v14.25c0 .027-.005.053-.016.078-.01.025-.025.048-.044.067s-.042.034-.067.044c-.024.011-.051.016-.078.016z"/><path d="m231.824 199.669c0 .97 1.71 1.76 3.81 1.76 1.021.026 2.034-.197 2.95-.65l.12-.07c.825-.287 1.723-.291 2.55-.01v6.07h-31v-6.09c-.835-.292-1.745-.292-2.58 0l-.12.07c-.917.45-1.929.669-2.95.64-2.1 0-3.81-.78-3.81-1.75 0-.96 1.71-1.75 3.81-1.75 1.025-.027 2.041.196 2.96.65l.11.07c.835.293 1.745.293 2.58 0v-6.09h13.26c1.17-.45 0-1.19 0-1.19l-.16-.05c-.86-.33-1.4-.81-1.4-1.36 0-.97 1.7-1.75 3.8-1.75s3.81.78 3.81 1.75c0 .55-.55 1.04-1.42 1.36l-.14.05s-1.18.74 0 1.19h13.25v6.13c-.827.281-1.725.278-2.55-.01l-.11-.06c-.917-.462-1.934-.689-2.96-.66-2.1 0-3.81.79-3.81 1.75z"/><path d="m272.284 207.004h-31c-.027 0-.053-.005-.078-.015-.025-.011-.048-.026-.067-.045s-.034-.041-.044-.066-.016-.052-.016-.079v-5.995c-.019-.032-.029-.068-.029-.105.001-.054.022-.106.06-.145.038-.038.09-.059.144-.06.063.004.123.027.171.067.021.019.037.042.048.068.011.025.016.053.016.08v5.885h30.59v-13.84h-30.59v5.885c0 .028-.005.055-.016.081-.011.025-.027.048-.048.067-.048.04-.108.063-.171.067-.036 0-.072-.01-.104-.028-.031-.019-.057-.045-.075-.077s-.027-.068-.026-.104c.001-.037.011-.073.03-.104v-5.992c0-.027.006-.053.016-.078s.025-.048.044-.067.042-.034.067-.044c.025-.011.051-.016.078-.016h31c.027 0 .054.005.079.016.025.01.047.025.066.044s.035.042.045.067.015.051.015.078v14.25c0 .027-.005.054-.015.079-.01.024-.026.047-.045.066s-.041.034-.066.045c-.025.01-.052.015-.079.015zm-17.82-28.66h-13.17c-.027 0-.053-.005-.078-.016-.025-.01-.048-.025-.067-.044s-.034-.042-.044-.067c-.011-.024-.016-.051-.016-.078v-5.96c-.762-.21-1.57-.188-2.319.064l-.082.053c-.949.467-1.997.696-3.053.668-2.252 0-4.016-.859-4.016-1.955s1.764-1.955 4.016-1.955c1.059-.026 2.109.206 3.059.677l.119.074c.738.238 1.531.252 2.276.038v-5.954c0-.027.005-.054.016-.078.01-.025.025-.048.044-.067s.042-.034.067-.044c.025-.011.051-.016.078-.016h9.43c.027 0 .054.005.079.015s.048.025.067.044c.019.02.034.042.045.067.01.025.015.052.015.079s-.005.054-.015.079c-.011.025-.026.047-.045.067-.019.019-.042.034-.067.044s-.052.015-.079.015h-9.225v5.885c0 .037-.01.073-.029.105s-.046.058-.079.076c-.02.009-.041.017-.062.022-.872.3-1.82.297-2.69-.009l-.154-.091c-.886-.433-1.864-.645-2.851-.618-1.954 0-3.605.707-3.605 1.545s1.651 1.545 3.605 1.545c.986.029 1.964-.182 2.851-.613l.116-.069c.885-.322 1.853-.332 2.744-.027.014.005.027.012.039.021.035.016.064.042.084.075.021.032.031.07.031.108v5.885h12.965c.027 0 .054.005.079.015s.048.025.067.044c.019.02.034.042.045.067.01.025.016.052.016.079s-.006.054-.016.079c-.011.025-.026.047-.045.067-.019.019-.042.034-.067.044s-.052.015-.079.015zm17.044-.004h-12.801c-.054 0-.106-.021-.145-.06-.038-.038-.06-.091-.06-.145s.022-.106.06-.145c.039-.038.091-.06.145-.06h12.801c.054 0 .107.022.145.06.038.039.06.091.06.145s-.022.107-.06.145c-.038.039-.091.06-.145.06zm-64.811-29.308c5.203-.158 10.407-.226 15.61-.341l15.609-.195c10.407-.116 20.813-.105 31.219-.164 10.407.055 20.813.05 31.219.161l15.61.196c5.203.116 10.406.184 15.609.343-5.203.159-10.406.227-15.609.344l-15.61.195c-10.406.112-20.812.106-31.219.161-10.406-.059-20.812-.048-31.219-.163l-15.609-.195c-5.203-.116-10.407-.184-15.61-.342zm-88.418-85.9062c-2.284-.014-4.563-.182-6.823-.505-.065-.008-.127-.03-.183-.062-1.089-.63-6.556-3.847-7.259-5.254-.904-1.082-2.127-1.851-3.494-2.196-2.6403-.863-7.0644-1.229-13.1494 1.912-.081.041-.1709.06-.2609.055-.091-.006-.1781-.036-.2521-.087-.075-.052-.134-.122-.172-.205-.037-.082-.0519-.173-.0419-.263.05-.441 1.312-10.794 9.625-12.872.092-.015 2.96-.452 4.5143-6.204 1.672-6.183 4.858-8.221 7.185-9.708l.258-.166c2.128-1.368 4.656-7.243 5.156-10.913.55-4.034 6.896-14.53601 18.619-15.39801 10.002-.733004 23.359 6.413 25.141 10.82401.218.434.285.927.191 1.403s-.344.906-.71 1.224c-6.146 8.049-13.539 15.063-21.899 20.777v15.204c.108 1.513-.113 3.033-.647 4.453-.535 1.42-1.37 2.708-2.449 3.775-2.833 2.8-7.308 4.206-13.349 4.206zm-6.59-1.482c9.196 1.247 15.669.091 19.236-3.435.97-.972 1.722-2.139 2.205-3.425.484-1.285.687-2.659.598-4.03l-.004-15.532c0-.082.02-.162.058-.235.039-.072.094-.133.162-.179 8.372-5.68 15.767-12.679 21.899-20.726.025-.036.055-.068.089-.095.225-.177.378-.43.43-.711s0-.572-.147-.818c-1.643-4.06702-14.686-10.89203-24.141-10.20003-10.996.809-17.199 10.85303-17.701 14.53403-.477 3.498-2.956 9.916-5.606 11.62l-.26.166c-2.312 1.479-5.188 3.319-6.758 9.128-1.7513 6.478-5.1623 6.91-5.3073 6.925-6.181 1.55-8.1311 8.511-8.6441 11.063 5.941-2.823 10.3421-2.412 13.0324-1.536 1.625.415 3.062 1.366 4.078 2.7.436.872 4.353 3.375 6.781 4.786zm37.224 86.7542-.012.01c-.12.208-.23.414-.354.624z"/><path d="m180.714 105.759c-1.26-1.76-2.01-14.6301-2.01-14.6301-1.77-30.52-23.62-35.48-23.62-35.48-.324.393-.693.745-1.1 1.05-4.42 3.28-13.12 1.77-13.12 1.77s-4.03 1.26-5.42 6.81 1.01 21.69-2.27 20.81-10.61-.77-11.17-23.47c0 0 .01-.08.04-.22-3.504.356-7.039.266-10.52-.27 0 0-6.39-3.7-7.06-5.05-.68-1.34-6.9004-5.88-17.3204-.5 0 0-10.59.97-21.82 13.2s-23.08 35.7301-25.6 80.7901l8.72 2.57c.04-4.7.29-9.39.67-14.07.509-6.365 1.424-12.691 2.74-18.94 1.39-6.2 3.1-12.48 6.37-17.98-1.361 2.867-2.446 5.857-3.24 8.93-.85 3.05-1.52 6.15-2.08 9.26-1.1 6.24-1.8699 12.54-2.3999 18.85-.55 6.32-.8501 12.66-.9601 19-.05 3.17-.02 6.34.15 9.51.07 1.58.1601 3.16.36 4.73.0931.786.226 1.567.4 2.34.083.385.197.763.34 1.13.084.205.184.402.3.59l.05.05c.105.105.2221.195.3501.27 0 0 30.5399-12.16 52.4603-22.87-.05-2.51-.02-5.01-.03-7.5l-.11-7.49c-.19-4.99-.33-9.97-.78-14.93-.36-4.96-.96-9.91-1.78-14.82-.4-2.45-.897-4.887-1.4904-7.31-.549-2.4331-1.2849-4.8201-2.1999-7.1401 2.215 4.515 3.8133 9.3081 4.7503 14.2501.56 2.45.93 4.94 1.32 7.42.3 2.49.62 4.99.8 7.49.22 2.5.31 5.01.41 7.51.08 2.51.07 5.02.05 7.52l-.29 7.51c-.22 2.5-.39 5-.65 7.49 0 0 2.32 3.74 26.79-.88 0 0 17.67-4.06 18.16-4.65 10.96-19.18 6.18-33.06 6.18-33.06-.462-2.407-.796-4.837-1-7.28-.24-2.44-.35-4.88-.41-7.33-.04-2.4501 0-4.9001.19-7.3501.131-2.462.54-4.901 1.22-7.27-.16 2.45-.14 4.87-.13 7.3.03 2.43.06 4.86.12 7.2901.07 4.87.19 9.73.01 14.64 6.65 1.26 25.63-9.59 25.63-9.59zm-88.6503-23.6901c-.352-.435-.7471-.834-1.1801-1.19l-1.25-1.09c-.44-.34-.9199-.62-1.3799-.93-1.862-1.188-3.9431-1.994-6.1201-2.37-2.179-.403-4.406-.488-6.61-.25-2.223.214-4.416.67-6.54 1.36 2.055-.948 4.238-1.588 6.48-1.9 2.258-.317 4.552-.283 6.8.1 2.258.419 4.402 1.312 6.29 2.62 1.8601 1.302 3.438 2.965 4.64 4.89z"/><path d="m122.046 62.3998 2.307-.457c.745-.237 1.502-.439 2.228-.716 1.446-.556 2.789-1.3499 3.971-2.3509 1.138-1.022 2.024-2.293 2.589-3.715.557-1.401.78-2.9131.649-4.4161-.001-.016-.003-.0379-.003-.0539-.116-5.156-.146-10.3131-.224-15.4691-.001-.103.022-.2059.068-.2979s.114-.1721.198-.2321l.025-.0179c2.052-1.463 4.082-2.956 6.009-4.579 1.952-1.591 3.808-3.2971 5.63-5.0321 1.83-1.728 3.577-3.5429 5.26-5.4119 1.682-1.853 3.268-3.7911 4.753-5.8071.019-.026.04-.0519.064-.0759l.097-.098c.078-.065.142-.1451.189-.2351.046-.091.073-.1889.08-.2909-.021-.298-.113-.587-.269-.841-.44-.695-.981-1.3211-1.607-1.8551-1.353-1.15595-2.825-2.16494-4.39-3.01094-3.166-1.739-6.544-3.058-10.051-3.923-1.732-.434-3.502-.70601-5.285-.81201-.879-.049-1.759-.028-2.634.065-.876.076-1.744.22001-2.597.43301-.855.2-1.697.45899-2.517.77399-.815.336-1.607.72301-2.372 1.16101-1.547.868-2.969 1.94199-4.227 3.19199-1.278 1.239-2.405 2.62305-3.359 4.12605-.976 1.44-1.647 3.0649-1.972 4.7749-.352 1.882-.924 3.7171-1.702 5.4671-.728 1.795-1.735 3.4639-2.982 4.9459-.171.187-.371.3621-.556.5401-.209.158-.451.347-.645.467l-1.156.733c-.744.477-1.442 1.024-2.083 1.634-1.264 1.242-2.258 2.731-2.923 4.374-.346.834-.644 1.688-.891 2.556-.268.917-.612 1.81-1.03 2.669-.432.872-.9904 1.6749-1.6574 2.3849-.685.767-1.595 1.3-2.601 1.521l.054-.0099c-1.289.316-2.506.8729-3.588 1.6399-1.073.807-2.0089 1.7811-2.7719 2.8851-.752 1.131-1.3791 2.339-1.8721 3.604-.503 1.271-.876 2.5909-1.111 3.9379.16-1.366.458-2.712.891-4.017.429-1.317 1.01-2.579 1.734-3.76.748-1.185 1.682-2.2419 2.766-3.1299 1.122-.87 2.399-1.5191 3.763-1.9131l.054-.0099c.795-.244 1.5021-.7171 2.0301-1.3601.57-.667 1.0429-1.4119 1.4029-2.2129.3694-.814.6704-1.658.8984-2.523.235-.915.524-1.8161.864-2.6991.683-1.813 1.731-3.466 3.078-4.859.682-.683 1.427-1.2999 2.225-1.8429l1.166-.7821c.195-.129.309-.238.469-.357.141-.149.289-.2799.426-.4379 1.094-1.387 1.966-2.935 2.587-4.589.674-1.653 1.171-3.372 1.483-5.13.071-.493.175-.9801.311-1.4601.139-.476.31-.9419.512-1.3949.383-.8881.833-1.7471 1.344-2.5701 1.014-1.62996 2.217-3.13494 3.585-4.48394 1.357-1.369 2.892-2.54902 4.565-3.50802.835-.487 1.702-.91898 2.593-1.29498.901-.356 1.826-.649 2.768-.879.939-.241 1.896-.409016 2.861-.502016.963-.108 1.934-.140001 2.902-.095001 1.91.095 3.807.369027 5.666.818027 3.682.906 7.224 2.31198 10.525 4.17898 1.681.928 3.258 2.03201 4.705 3.29401.775.677 1.44 1.46994 1.971 2.35194.316.544.484 1.1611.487 1.7911-.019.36-.111.712-.273 1.034-.161.322-.387.6079-.664.8379l.161-.1749c-1.543 2.063-3.191 4.044-4.939 5.936-1.731 1.889-3.524 3.7199-5.4 5.4629s-3.823 3.4031-5.843 4.9811c-2 1.597-4.102 3.062-6.222 4.492l.291-.5471c-.077 5.156-.108 10.3131-.224 15.4691l-.003-.053c.085 1.642-.221 3.281-.893 4.782-.66 1.479-1.653 2.786-2.902 3.818-1.256.985-2.674 1.7419-4.191 2.2389-.752.24-1.529.4001-2.289.596z"/><path d="m156.253 14.4408c-.003.102-.133.23-.213.365l-.275.391-.558.774c-.371.518-.77 1.013-1.158 1.518-.791.996-1.597 1.983-2.43 2.946-1.657 1.936-3.421 3.779-5.247 5.558-1.833 1.771-3.701 3.517-5.695 5.111-1.965 1.633-4.033 3.135-6.124 4.606l.26-.488c.008 2.578.054 5.156.032 7.735l-.042 7.734-.004-.07c.1 1.668-.202 3.336-.881 4.863-.665 1.507-1.67 2.84-2.936 3.894-1.272 1.002-2.707 1.777-4.241 2.292-.759.251-1.541.422-2.31.627l-2.353.37.233-.214-.045.22.004-.056.141 3.683c.077 1.225.202 2.447.301 3.672.273 2.435.772 4.841 1.489 7.184.642 2.34 1.872 4.477 3.574 6.206.883.793 1.928 1.385 3.063 1.732.577.177 1.163.323 1.755.437l.462.104.228.051c.043-.001.085.002.127.009.142-.005.256-.09.391-.277.431-1.072.645-2.219.631-3.374.052-1.211.052-2.435.039-3.661-.029-2.454-.128-4.918-.133-7.399.002-1.242.032-2.488.14-3.748.092-1.293.377-2.566.848-3.774.447-1.263 1.15-2.42 2.067-3.398.916-.978 2.026-1.755 3.258-2.283.084-.034.176-.045.266-.032l.072.01c2.239.321 4.506.393 6.761.215 2.188-.084 4.303-.814 6.077-2.097.802-.706 1.442-1.577 1.878-2.552.485-1.004.864-2.056 1.129-3.14.56-2.201.88-4.456.956-6.726.005-.136.051-.268.133-.377.082-.108.195-.19.324-.232l.015-.004c.326-.061.62-.235.832-.49.211-.256.326-.578.325-.909.041-.808-.101-1.614-.416-2.358l-.013-.033c-.032-.083-.043-.172-.033-.26l.74-6.328c.341-2.069.497-4.163.467-6.26-.116-2.091-.512-4.157-1.18-6.143-.341-.996-.741-1.971-1.198-2.919-.236-.471-.479-.94-.743-1.397l-.407-.679-.215-.332-.112-.163-.055-.081c-.009-.01 0-.024-.001-.053zm-.003-.14c2.651 3.428 4.27 7.541 4.668 11.856.111 2.145.03 4.295-.241 6.426l-.573 6.332-.046-.293c.195.455.346.927.45 1.411.115.499.156 1.013.12 1.524-.013.585-.22 1.15-.588 1.606s-.877.777-1.447.913l.472-.613c-.015 2.383-.306 4.757-.868 7.073-.284 1.178-.691 2.322-1.213 3.415-.516 1.155-1.274 2.185-2.221 3.022-1.994 1.49-4.387 2.35-6.873 2.469-2.385.211-4.786.122-7.148-.264l.338-.022c-1.029.418-1.95 1.065-2.694 1.89-.775.853-1.387 1.84-1.807 2.913-.916 2.14-.91 4.592-.989 7.037-.048 2.447-.003 4.911-.027 7.386-.012 1.238-.041 2.479-.141 3.727-.058.625-.119 1.251-.236 1.882-.098.673-.323 1.322-.663 1.912-.121.189-.286.345-.481.455s-.415.171-.639.176c-.111-.01-.223-.025-.332-.044l-.22-.057-.437-.113c-.613-.141-1.218-.312-1.814-.514-1.218-.413-2.332-1.086-3.264-1.973-1.712-1.851-2.949-4.092-3.602-6.528-.693-2.381-1.179-4.818-1.451-7.283-.116-1.23-.26-2.459-.354-3.691l-.195-3.701c-.001-.017 0-.033.003-.049l.002-.008.043-.226c.01-.053.035-.101.073-.139s.087-.063.139-.073l.02-.003 2.289-.413c.738-.228 1.489-.419 2.208-.686 1.429-.536 2.755-1.313 3.922-2.296 1.114-.992 1.984-2.227 2.542-3.611.558-1.383.789-2.876.673-4.364l-.002-.03-.002-.041-.042-7.734c-.022-2.579.024-5.157.032-7.735.001-.097.026-.191.071-.276s.11-.158.189-.213c2.081-1.422 4.144-2.878 6.108-4.465 1.977-1.569 3.912-3.195 5.778-4.901 1.879-1.693 3.655-3.495 5.412-5.318.877-.913 1.728-1.851 2.567-2.801.851-.972 1.602-1.889 2.491-2.947z"/><path d="m142.488 28.9161c1.956-.315 3.945-.356 5.912-.123 1.978.184 3.909.709 5.708 1.552-1.946-.355-3.85-.6499-5.785-.8559-1.932-.22-3.868-.3681-5.835-.5731zm6.701 6.6421c.273-.009.531-.1241.72-.3201.19-.196.296-.458.296-.731s-.106-.535-.296-.731c-.189-.196-.447-.31-.72-.32-.272.01-.53.124-.72.32-.189.196-.295.458-.295.731s.106.535.295.731c.19.196.448.3111.72.3201zm12.99-5.2131c-.788-.014-1.576.0131-2.361.079l-2.35.175.264-.178c-.27.71-.436 1.456-.492 2.213-.066.762-.021 1.529.132 2.277.179.757.436 1.493.765 2.197.158.358.338.706.539 1.042.213.3.446.7.855.706-.43.103-.775-.288-1.044-.56-.275-.305-.517-.638-.724-.992-.439-.697-.777-1.453-1.005-2.245-.212-.809-.285-1.649-.216-2.483.067-.838.278-1.659.625-2.425l.003-.006c.023-.05.06-.092.106-.123.047-.03.1-.047.156-.049.797-.023 1.589-.012 2.384.035.797.03 1.589.143 2.363.337z"/><path d="m158.963 35.747c.272-.009.531-.124.72-.32s.295-.458.295-.731c0-.272-.106-.534-.295-.73s-.448-.311-.72-.321c-.272.01-.531.125-.72.321s-.295.458-.295.73c0 .273.106.535.295.731s.448.311.72.32zm-9.269 11.245 2.208 1.192c.715.385 1.463.706 2.234.959.325.155.684.221 1.043.191.358-.03.702-.154.996-.361.449-.658.689-1.436.689-2.233.139.426.187.877.14 1.323-.046.445-.187.876-.412 1.264-.158.195-.355.355-.579.468-.224.114-.469.18-.72.193-.459.022-.919-.037-1.358-.174-.824-.271-1.603-.663-2.312-1.162-.705-.478-1.352-1.034-1.929-1.66zm2.333-6.999c-.036.546-.032 1.095.011 1.64.075.53.241 1.042.493 1.513-.317-.078-.6-.259-.804-.515-.214-.261-.348-.579-.384-.915-.041-.322 0-.648.119-.95.12-.301.314-.567.565-.773zm-17.803 10.699c.636.606 1.22 1.266 1.746 1.971l.779 1.019c.259.351.539.686.838 1.003-.455-.098-.877-.311-1.227-.618-.351-.287-.668-.614-.944-.974-.562-.708-.968-1.526-1.192-2.401zm25.296-7.879c.466 2.78.74 5.546 1.091 8.297.174 1.372.346 2.747.594 4.099.118.676.27 1.345.456 2.005.157.672.44 1.309.833 1.876-1.029-1.007-1.741-2.293-2.048-3.699-.384-1.362-.66-2.752-.827-4.158-.355-2.793-.388-5.619-.099-8.42zm-116.7392 108.66c.018 1.944-.095 3.886-.341 5.814-.213 1.931-.5601 3.846-1.0361 5.73-.02-1.943.0941-3.886.3411-5.813.215-1.932.562-3.846 1.036-5.731zm6.3709 12.891c-3.16-.333-6.3139-.704-9.4629-1.112l.242-.121c-1.303 2.674-2.464 5.414-3.478 8.209-1.008 2.801-1.9361 5.631-2.7571 8.494-.785 2.871-1.5289 5.758-2.1319 8.677-.628 2.915-1.1181 5.857-1.5941 8.809.259-2.976.5981-5.953 1.1441-8.896.481-2.956 1.189-5.87 1.958-8.764.776-2.895 1.7-5.748 2.769-8.548 1.034-2.818 2.2609-5.561 3.6729-8.209.024-.043.0591-.077.1021-.099.044-.021.0919-.029.1399-.022 3.137.494 6.268 1.022 9.396 1.582zm4.2121 12.213c.482 2.687 1.1699 5.333 2.0589 7.914.828 2.59 1.9531 5.076 3.3531 7.408 1.404 2.313 3.134 4.412 5.135 6.234 2.008 1.803 4.249 3.328 6.662 4.536 4.869 2.352 10.3009 3.285 15.6749 2.692.663-.1 1.338-.12 1.99-.285l1.966-.427 3.943-1.083c2.62-.759 5.2291-1.555 7.8193-2.41 5.177-1.719 10.294-3.605 15.353-5.658 5.054-2.059 10.021-4.327 14.954-6.667 4.932-2.344 9.787-4.854 14.588-7.464 4.812-2.592 9.543-5.334 14.23-8.148l-.022.015c2.978-1.961 6.29-3.358 9.772-4.124 3.456-.8 7.007-1.111 10.549-.923 3.541.173 7.044.802 10.424 1.87.823.276 1.664.496 2.517.66.831.135 1.681.089 2.492-.135.383-.115.736-.314 1.031-.584.296-.269.527-.601.678-.971.274-.787.37-1.625.279-2.453v-.01c-.001-.046.007-.092.024-.135.018-.043.044-.082.076-.115.567-.567 1.083-1.183 1.542-1.84.467-.646.852-1.347 1.149-2.087.299-.715.449-1.483.441-2.257-.047-.752-.292-1.477-.711-2.102-.058-.09-.079-.198-.057-.303.022-.104.085-.195.174-.253l.038-.022c1.018-.517 1.961-1.17 2.803-1.941.84-.723 1.471-1.66 1.824-2.711.067-.255.114-.515.138-.778-.011-.271.014-.501-.024-.815-.055-.594-.091-1.191-.119-1.789-.072-1.218-.03-2.44.127-3.65.011-.077.045-.149.098-.207l.032-.036c2.046-2.181 3.545-4.817 4.376-7.69.388-1.403.433-2.878.132-4.302-.051-.355-.148-.701-.291-1.03-.118-.337-.255-.668-.41-.991-.315-.621-.715-1.196-1.186-1.709-.479-.446-1.073-.75-1.715-.879-.642-.128-1.307-.076-1.921.15-.609.234-1.141.633-1.535 1.153-.427.599-.816 1.224-1.166 1.871-.724 1.331-1.379 2.699-1.965 4.096-.645 1.59-1.86 2.881-3.407 3.622-1.539.657-3.233.862-4.885.591-1.624-.202-3.188-.741-4.592-1.581-2.816-1.715-4.854-4.457-5.685-7.646-.105-.394-.167-.797-.251-1.196l-.136-1.214-.158-2.278c-.126-1.514-.291-3.024-.536-4.511-.212-1.467-.576-2.907-1.086-4.299-.214-.617-.562-1.179-1.02-1.646-.174-.162-.4-.258-.638-.268-.238-.011-.471.063-.66.209l-.216.082c-.128.047-.251.106-.368.175-.153.09-.3.189-.44.297-.292.242-.562.508-.807.795-.503.618-.935 1.289-1.289 2.002-.715 1.488-1.251 3.056-1.595 4.671-.371 1.635-.648 3.29-.827 4.956-.166.871-.278 1.757-.497 2.616l-.405 1.268c-.119.427-.277.842-.474 1.24-1.469 3.206-3.655 6.031-6.388 8.26-2.669 2.239-5.664 4.057-8.882 5.392-.016.007-.033.012-.049.017-8.473 2.261-17 4.268-25.616 5.881-4.309.794-8.642 1.49-13.016 1.863-2.187.202-4.384.271-6.579.209-.549-.016-1.098-.049-1.645-.118-.549-.049-1.094-.132-1.634-.246-1.104-.164-2.142-.631-2.997-1.349-.014-.013-.021-.031-.021-.049 0-.019.007-.037.02-.05.014-.013.032-.02.051-.02.018 0 .036.008.049.021.85.671 1.868 1.095 2.942 1.225.534.098 1.074.165 1.615.199.541.053 1.084.072 1.629.073 2.18.005 4.358-.122 6.523-.38 4.334-.505 8.638-1.26 12.923-2.105 8.561-1.729 17.053-3.855 25.454-6.224l-.05.016c3.074-1.332 5.929-3.122 8.466-5.31 2.546-2.132 4.571-4.819 5.917-7.856.182-.366.327-.75.434-1.146l.371-1.169c.2-.791.296-1.606.453-2.408.182-1.725.464-3.438.844-5.131.366-1.725.936-3.4 1.698-4.991.404-.816.898-1.585 1.473-2.291.307-.362.646-.695 1.012-.997.417-.344.898-.601 1.416-.758l-.216.082c.449-.267.962-.405 1.484-.4.549.029 1.071.244 1.481.61.64.614 1.129 1.368 1.428 2.203.555 1.49.952 3.035 1.185 4.608.257 1.541.429 3.085.561 4.628.066.772.121 1.544.166 2.316l.113 1.073c.074.352.125.709.216 1.058.719 2.826 2.507 5.263 4.987 6.797 1.234.749 2.61 1.232 4.041 1.419 1.394.245 2.829.089 4.138-.45 1.256-.595 2.241-1.64 2.761-2.929.61-1.43 1.292-2.828 2.044-4.189.384-.701.813-1.377 1.283-2.023.405-.529.917-.966 1.502-1.283s1.231-.507 1.895-.556c.664-.05 1.331.042 1.957.268s1.197.583 1.676 1.045c1.082 1.24 1.831 2.734 2.177 4.342.346 1.609.277 3.279-.199 4.853-.914 3.04-2.541 5.817-4.747 8.1l.13-.242c-.154 1.133-.206 2.277-.155 3.418.02.583.047 1.165.093 1.748.02.318.025.636.013.954-.033.324-.095.645-.184.959-.41 1.197-1.138 2.26-2.105 3.077-.913.815-1.933 1.5-3.032 2.037l.155-.577c.494.753.776 1.625.816 2.525 0 .876-.18 1.743-.528 2.547-.328.786-.75 1.529-1.258 2.213-.494.686-1.048 1.327-1.655 1.916l.101-.26c.087.93-.038 1.867-.364 2.742-.19.445-.476.842-.838 1.163-.361.321-.79.558-1.254.693-.894.237-1.829.277-2.741.117-.876-.172-1.739-.403-2.585-.691-3.338-1.074-6.8-1.715-10.302-1.905-3.499-.219-7.011.087-10.42.906-3.409.775-6.649 2.165-9.559 4.103l-.016.012-.007.004c-9.338 5.71-18.806 11.238-28.63 16.109-9.796 4.947-19.956 9.137-30.392 12.533-2.6113.842-5.2413 1.625-7.8803 2.37l-3.9779 1.063-2.0461.431c-.679.165-1.381.184-2.07.282-2.774.311-5.5789.206-8.3209-.312-2.734-.528-5.384-1.425-7.876-2.666-4.971-2.534-9.106-6.447-11.913-11.269-1.352-2.402-2.422-4.953-3.188-7.601-.82-2.619-1.437-5.297-1.844-8.01-.003-.019.002-.037.013-.052s.0269-.025.0459-.028c.018-.001.0371.004.0511.015.015.011.025.028.028.046z"/><path d="m199.635 149.649c1.294-.396 2.547-.917 3.74-1.555 1.182-.592 2.225-1.425 3.063-2.447l.007-.009c.028-.037.063-.068.102-.091.04-.024.084-.039.13-.046.045-.006.092-.004.136.008.045.011.088.032.125.059.035.028.067.063.091.102.023.04.038.084.044.13.007.045.004.092-.008.136-.011.045-.031.087-.059.124l-.019.024c-.974 1.011-2.154 1.804-3.458 2.325-1.255.539-2.559.954-3.894 1.24zm-44.864-16.637c.358 1.032.77 2.03 1.193 3.015.427.979.908 1.933 1.437 2.861.535.917 1.142 1.789 1.815 2.611.702.812 1.484 1.55 2.336 2.203-1.018-.436-1.946-1.056-2.737-1.831-.781-.789-1.459-1.673-2.02-2.631-1.104-1.912-1.793-4.033-2.024-6.228zm24.553-26.483c.68 1.25 1.321 2.51 1.991 3.76l-.411.16c-.55-1.3-1.08-2.6-1.58-3.92zm17.64 32.69c-.671-.414-1.251-.958-1.709-1.6-.49-.6-.951-1.24-1.401-1.88-.52-.77-1.009-1.55-1.489-2.34l.609-.25c.42.78.85 1.56 1.3 2.33.38.67.77 1.34 1.19 1.99.397.665.904 1.256 1.5 1.75zm138.089-54.2571c-.553-2.858-1.612-5.593-3.126-8.078-.64-1.223-1.71-2.166-3.005-2.645-1.348-.337-2.756-.3571-4.112-.0591-1.413.232-2.831.6141-4.302.8911-.751.155-1.513.248-2.279.28-.84.052-1.679-.12-2.432-.497-.761-.405-1.385-1.03-1.788-1.793-.366-.71-.617-1.4751-.743-2.2641-.069-.367-.118-.771-.18-1.057-.081-.294-.205-.5749-.369-.8329-.362-.583-.79-1.1231-1.277-1.6061l.352-.9029c-.003-.003-.006-.0051-.01-.0061-.004-.002-.007-.0019-.011-.0019s-.007.001-.011.003c-.003.002-.006.0039-.009.0069.006 0 .044-.025.065-.034.067-.036.13-.078.189-.126.145-.113.283-.235.414-.365.277-.266.546-.5579.808-.8569.524-.598 1.033-1.2301 1.518-1.8641l.566.5541c-.089.051-.183.093-.28.125l-.197.0369c-.133.025-.239.0251-.36.0371-.229.012-.455.016-.676.013-.443-.004-.88-.022-1.316-.0491-.872-.049-1.736-.1299-2.604-.2109-.051-.004-.099-.0231-.141-.0541-.041-.031-.074-.073-.093-.121-.132-.352-.284-.697-.454-1.0319-.17-.316-.372-.6841-.599-.7731-.676-.259-1.463-.4279-2.202-.6349-.77-.187-1.528-.419-2.272-.694-.112-.058-.209-.1401-.286-.2411-.076-.1-.13-.217-.156-.34-.044-.219-.045-.444-.002-.663.076-.399.202-.788.375-1.156.694-1.404 1.504-2.7459 2.424-4.0139.436-.607.778-1.2771 1.015-1.9861.235-.669.295-1.387.172-2.085l.011.033c-.478-1.261-.813-2.57-1-3.905-.203-1.317-.33-2.6439-.378-3.9759-.106-2.654-.042-5.3131.191-7.9591.013-.144.074-.2799.173-.3849.101-.106.232-.174.376-.195.143-.021.29.0079.416.0799.125.073.221.1861.274.3211l.011.0289c.777 1.958 1.7 3.8571 2.759 5.6791 1.042 1.817 2.261 3.528 3.638 5.107 1.317 1.561 2.95 2.824 4.792 3.707 1.818.818 3.875.9259 5.769.3039l-.451.542c.16-.894.419-1.768.771-2.606.346-.899.914-1.6969 1.648-2.3209.216-.151.442-.284.678-.401.255-.088.517-.156.783-.2041.264-.0089.527.002.789.032.247.044.489.1151.721.2111.231.069.449.175.646.314l.599.37c.352.288.689.59 1.026.888.05.044.088.0989.113.1609.445 1.116.813 2.261 1.101 3.428.304 1.169.47 2.3691.495 3.5761.045.624-.039 1.25-.245 1.84-.207.589-.532 1.131-.956 1.59-.49.368-1.057.6209-1.659.7399-.601.119-1.221.1011-1.815-.051-.009-.002-.019-.005-.026-.01-.008-.005-.015-.0109-.02-.0189-.006-.007-.009-.0161-.011-.0251s-.003-.0179-.002-.0269c.004-.017.013-.0331.028-.0441.014-.01.031-.016.049-.014.558.094 1.13.068 1.677-.079s1.056-.409 1.492-.77c.342-.437.59-.9379.733-1.4729s.178-1.093.101-1.642c-.085-1.145-.302-2.2771-.648-3.3731-.334-1.104-.741-2.184-1.222-3.232l.113.16-.944-.7519-.5-.285c-.153-.107-.324-.184-.505-.228-.301-.14-.637-.1911-.966-.1451-.329.045-.637.184-.888.4-.55.515-.966 1.1571-1.208 1.8691-.288.749-.492 1.526-.612 2.319-.019.121-.069.2349-.146.3299-.078.095-.181.167-.297.208l-.008.003c-2.208.789-4.635.706-6.784-.232-2.057-.941-3.878-2.3309-5.327-4.0679-1.439-1.661-2.694-3.4721-3.745-5.4021-1.064-1.907-1.984-3.891-2.751-5.935l1.25-.151c-.281 2.588-.414 5.189-.401 7.792.002 1.298.069 2.594.201 3.885.116 1.279.376 2.5401.779 3.7591l.01.027.001.0069c.083.822-.003 1.651-.251 2.439-.249.787-.656 1.516-1.195 2.141-.928 1.222-1.745 2.5251-2.443 3.8921-.162.33-.283.6799-.359 1.0409-.072.35-.03.6811.216.7991.712.256 1.438.469 2.175.638.755.2 1.489.357 2.273.621.385.223.689.5629.867.9709.192.349.364.709.515 1.078l-.234-.1739c.859.051 1.725.077 2.583.086.43.004.858.001 1.28-.017.212-.007.422-.023.624-.043.094-.015.204-.0221.282-.0431l.121-.028c.015-.01.007-.0099.019-.0029l.514.3119c.039.024.066.062.077.105.011.044.004.091-.02.129l-.005.008c-.468.681-.945 1.341-1.462 1.99-.257.324-.524.6431-.818.9561-.151.163-.31.317-.478.462-.096.084-.198.1599-.308.2259-.159.11-.346.174-.539.185l.354-.9029c.583.523 1.102 1.1139 1.544 1.7599.241.356.424.748.542 1.161.103.429.145.756.221 1.108.061.64.266 1.2581.599 1.8071.334.55.786 1.016 1.326 1.366 1.257.467 2.629.525 3.921.165 1.42-.237 2.85-.5941 4.34-.812 1.528-.312 3.11-.2341 4.601.2269.377.139.74.315 1.083.527.33.2261.635.4871.912.7771.272.278.517.582.732.906.228.304.418.6309.614.9529.748 1.295 1.332 2.678 1.737 4.118.427 1.418.72 2.872.875 4.344.001.01-.001.0191-.003.0281-.003.008-.008.0169-.013.0239-.006.007-.012.013-.021.017-.008.004-.017.007-.026.008-.017.001-.036-.0049-.049-.0149-.014-.011-.024-.026-.028-.043z"/><path d="m362.994 52.1589c-1.14-3.28-9.21-12.23-11.6-13.3 0 0-.25-10.03-3.91-12.55 0 0 8.83-7.44-1.26-13.75 0 0-8.71-4.03003-8.96 6.94 0 0-20.68-2.27-30.14 14.63 0 0 6.01 18.7 17.78 15.22 0 0 1.18-8.37 6.65-3.45 0 0 4.87 9.92-1.52 11.52-1.137 2.108-1.464 4.558-.92 6.89.92 3.87-.6 9.3-.6 9.3s-3.86 13.74 7.49 11.34c11.35-2.39 29.26-8.57 32.41-21.06 0 0-4.29-8.45-5.42-11.73zm-20.06-30.77c.562.345 1.076.762 1.53 1.24.505.466.816 1.105.87 1.79-.386-.478-.853-.884-1.38-1.2-.51-.33-1.01-.66-1.54-.97-1.091-.634-2.137-1.342-3.13-2.12 1.294.147 2.54.577 3.65 1.26zm6.74 22.22c-1.016 1.645-2.277 3.126-3.74 4.39-1.458 1.245-3.051 2.322-4.75 3.21-1.679.902-3.458 1.603-5.3 2.09 1.7-.83 3.32-1.78 4.91-2.76 1.576-.984 3.077-2.084 4.49-3.29 1.391-1.21 2.642-2.572 3.73-4.06 1.038-1.547 1.828-3.248 2.34-5.04-.144 1.923-.718 3.789-1.68 5.46z"/><path d="m308.639 49.3881c.539-.815 1.291-1.468 2.173-1.888.445-.217.921-.362 1.411-.433.494-.069.998-.008 1.461.177-.894.172-1.758.47-2.567.886-.813.388-1.595.846-2.478 1.258zm3.153 3.7001c.272-.01.531-.1251.72-.3211s.295-.458.295-.73c0-.273-.106-.535-.295-.731s-.448-.311-.72-.32c-.272.009-.531.124-.72.32s-.295.458-.295.731c0 .272.106.534.295.73s.448.3111.72.3211zm56.626 10.7679c4.826.315 9.569 1.408 14.045 3.238 4.502 1.772 8.774 4.0781 12.725 6.8691 7.825 5.706 14.445 12.903 19.48 21.176l1.87 3.0919 1.737 3.1679c.608 1.042 1.116 2.134 1.653 3.213.515 1.088 1.104 2.143 1.56 3.259.966 2.206 1.949 4.408 2.771 6.674.906 2.235 1.652 4.527 2.413 6.814.402 1.138.735 2.296 1.063 3.455l1.001 3.476c.606 2.334 1.147 4.689 1.702 7.037l2.279 14.265c.015.091-.007.185-.059.262s-.132.131-.223.151l-10.281 2.256-10.297 2.186-10.297 2.186-10.309 2.13c-.009.002-.018 0-.026-.005s-.013-.013-.015-.022 0-.018.005-.026c.004-.008.012-.013.021-.015l10.247-2.411 10.26-2.354 10.26-2.353 10.275-2.285-.282.414-2.224-14.255c-.533-2.337-1.061-4.676-1.635-7.005l-.943-3.476c-.308-1.161-.622-2.32-1.004-3.459-2.706-9.235-6.664-18.057-11.762-26.2199-2.601-4.037-5.547-7.8419-8.803-11.3709-3.268-3.51-6.881-6.682-10.783-9.47-3.883-2.817-8.09-5.1581-12.532-6.9711-2.222-.902-4.499-1.663-6.818-2.278-2.314-.644-4.683-1.071-7.076-1.275-.009 0-.018-.003-.025-.01-.006-.006-.01-.015-.01-.024.001-.01.005-.019.011-.025.007-.007.016-.01.026-.011z"/><path d="m428.589 150.481c.614 1.516 1.105 3.079 1.468 4.674.393 1.587.656 3.204.786 4.835-.616-1.515-1.106-3.079-1.468-4.674-.391-1.588-.654-3.205-.786-4.835zm-63.073-57.836c.873-1.981 1.961-3.861 3.242-5.606 1.277-1.764 2.749-3.377 4.389-4.809 1.661-1.432 3.559-2.563 5.608-3.344 1.035-.355 2.104-.6 3.191-.73 1.082-.093 2.171-.055 3.244.112-2.137-.074-4.265.308-6.242 1.121-1.951.831-3.757 1.97-5.347 3.374-1.622 1.383-3.101 2.924-4.417 4.601-1.341 1.675-2.566 3.44-3.668 5.281zm37.582-4.54c1.204.901 2.292 1.947 3.237 3.116.962 1.165 1.793 2.433 2.478 3.779.697 1.345 1.212 2.777 1.532 4.258.331 1.471.439 2.983.32 4.485-.139-.741-.138-1.484-.331-2.204l-.209-1.085-.302-1.062c-.414-1.407-.961-2.772-1.634-4.075-.668-1.31-1.43-2.57-2.28-3.769-.861-1.208-1.8-2.358-2.811-3.443zm-39.536 12.137c-1.037 2.536-2.092 5.063-3.191 7.57-1.106 2.503-2.166 5.028-3.315 7.512l-3.395 7.475c-1.148 2.483-2.319 4.957-3.536 7.409l-.18-.682 8.731 6.54c2.916 2.172 5.89 4.263 8.874 6.339 2.975 2.088 6.001 4.106 9.011 6.146 3.021 2.024 6.008 4.096 9.001 6.161l-.845.089c2.645-3.059 5.125-6.255 7.43-9.577 2.318-3.314 4.53-6.705 6.515-10.225 1.996-3.514 3.736-7.168 5.205-10.932 1.425-3.793 2.413-7.736 2.944-11.752.001-.01.004-.018.008-.027.004-.008.01-.015.017-.021s.016-.01.024-.013c.009-.003.018-.004.028-.003.017.002.033.011.045.024s.018.03.018.048c-.185 4.099-.924 8.154-2.196 12.055-1.322 3.887-2.955 7.661-4.883 11.286-1.948 3.607-4.122 7.088-6.509 10.423-2.385 3.336-4.956 6.535-7.7 9.583-.106.115-.25.188-.406.205-.155.016-.312-.025-.439-.116-2.935-2.145-5.875-4.284-8.782-6.469-2.917-2.171-5.819-4.363-8.77-6.485-2.943-2.134-5.897-4.252-8.908-6.291l-9.051-6.09c-.104-.07-.18-.174-.215-.294s-.026-.248.024-.362l.011-.026c1.094-2.509 2.236-4.996 3.399-7.472l3.542-7.407c1.163-2.477 2.415-4.912 3.621-7.369 1.214-2.454 2.47-4.887 3.746-7.311.008-.016.022-.028.039-.034s.036-.005.052.003c.017.007.029.021.036.038.007.016.006.035 0 .052zm-42.138-25.939c-.968 5.5-1.998 10.989-3.091 16.465-1.103 5.474-2.221 10.946-3.494 16.387-.643 2.716-1.326 5.437-2.173 8.103l-2.562 7.975c-.869 2.649-1.56 5.353-2.068 8.094-.25 1.366-.378 2.751-.382 4.14.016 1.374.281 2.735.782 4.015l-.353.004c1.312-2.784 3.153-5.286 5.42-7.367 2.248-2.107 4.867-3.78 7.724-4.934.71-.293 1.455-.494 2.181-.745.368-.112.727-.257 1.101-.34l1.129-.232c.755-.138 1.501-.346 2.264-.425l2.294-.201c.764-.075 1.532-.089 2.298-.04l2.299.063c1.523.146 3.037.386 4.555.576l-.412.426c-1.057-5-1.883-10.037-2.609-15.091-.79-5.046-1.204-10.144-1.239-15.252 0-.004 0-.009.002-.013s.005-.008.008-.011c.003-.004.007-.006.011-.008.005-.002.009-.002.014-.002.009 0 .018.004.024.01.007.007.01.015.011.024.054 2.549.31 5.085.595 7.614.277 2.531.651 5.052 1.048 7.567.398 2.515.849 5.022 1.326 7.524.487 2.499.982 5 1.506 7.487.009.046.01.094.001.14-.008.046-.026.09-.052.129-.025.039-.058.073-.097.1-.039.026-.082.045-.128.055-.038.008-.077.009-.115.005l-.021-.003c-1.494-.18-2.984-.412-4.48-.551l-2.253-.054c-.749-.046-1.501-.03-2.248.047l-2.243.183c-.746.069-1.473.268-2.211.395l-1.103.216c-.367.078-.716.218-1.075.323-.709.239-1.438.428-2.132.707-2.792 1.112-5.365 2.708-7.599 4.717-2.256 1.996-4.103 4.409-5.44 7.108l-.007.016c-.016.033-.041.06-.073.079-.031.019-.067.028-.104.027-.036-.001-.071-.013-.101-.034s-.054-.05-.067-.084c-.495-1.334-.744-2.746-.733-4.169.037-1.404.184-2.803.441-4.183.545-2.744 1.239-5.455 2.079-8.123.812-2.673 1.661-5.333 2.42-8.016.782-2.676 1.387-5.392 1.981-8.12l7.082-32.736c.002-.01.007-.018.015-.023.007-.005.017-.007.026-.005s.017.007.022.015c.006.007.007.017.006.026z"/><path d="m309.285 137.635c.251 1.087.553 2.148.87 3.197.312 1.043.7 2.062 1.159 3.049.433.985 1.001 1.904 1.688 2.732.704.829 1.583 1.493 2.573 1.943-1.126-.212-2.161-.759-2.971-1.569-.809-.81-1.461-1.763-1.924-2.81-.474-1.025-.827-2.102-1.052-3.208-.24-1.095-.355-2.213-.343-3.334zm30-11.443c1.495.712 2.931 1.543 4.295 2.484 1.381.915 2.686 1.94 3.902 3.064-1.496-.711-2.932-1.542-4.295-2.484-1.38-.916-2.685-1.941-3.902-3.064zm-79.62 43.551c.485-.506 1.045-.934 1.661-1.269.631-.376 1.378-.507 2.099-.368.723.227 1.328.728 1.685 1.397.17.321.323.653.462.988l.321 1.029c.028.089.019.185-.024.268-.043.082-.118.144-.207.172-.088.028-.185.019-.267-.024-.082-.044-.144-.118-.172-.207l-.008-.028-.008-.036-.218-.983c-.101-.313-.215-.627-.342-.929-.251-.593-.725-1.063-1.32-1.31-.643-.174-1.328-.107-1.926.19-.632.278-1.218.653-1.736 1.11zm-8.015.967c1.094-1.386 2.113-2.83 3.05-4.326.47-.748.9-1.521 1.286-2.316.412-.785.689-1.633.82-2.51-.074.891-.297 1.763-.66 2.58-.336.827-.718 1.635-1.142 2.42-.847 1.574-1.78 3.1-2.794 4.572-.026.038-.059.07-.098.095-.038.026-.081.043-.127.051-.045.009-.091.008-.136-.001-.045-.01-.088-.028-.126-.054s-.071-.059-.096-.098c-.025-.038-.042-.082-.051-.127-.008-.045-.008-.092.002-.137.009-.045.028-.087.054-.125l.013-.018zm-1.526-2.702 6.682-11.219-6.071 11.561c-.043.082-.118.143-.206.171-.089.027-.185.018-.267-.025s-.144-.117-.171-.205c-.028-.089-.019-.185.023-.267zm3.272-9.471 4.419-6.114-3.833 6.498c-.023.04-.054.074-.091.102-.036.028-.078.048-.123.06s-.091.014-.137.008-.09-.022-.13-.045c-.039-.024-.074-.055-.102-.092s-.048-.079-.059-.123c-.012-.045-.014-.092-.007-.137.006-.046.022-.09.045-.13z"/><path d="m55.5489 185.39c-8.841 4.609-17.742 9.096-26.615 13.642l-13.351 6.73-13.36099 6.711-.50299-2.173 14.95498-.187 14.9551-.115 29.9089-.162c19.9401-.084 39.8801-.062 59.8211.221l29.91.339 14.955.172 14.955.1c19.94.092 39.88-.04 59.82-.179l59.819-.704 29.91-.261 29.91-.164c39.879-.287 79.759-.294 119.64-.018l-.807 2.977-23.663-14.113c-7.898-4.686-15.748-9.455-23.616-14.193l-23.58-14.254-23.511-14.373c-.039-.023-.067-.062-.078-.106-.012-.045-.005-.092.018-.132.023-.039.061-.068.106-.08.044-.012.091-.006.131.016l24.034 13.48 23.965 13.598c7.98 4.547 15.978 9.062 23.929 13.659l23.881 13.74c.303.174.541.444.676.766.135.323.16.681.072 1.019-.088.339-.286.639-.561.854-.276.216-.614.334-.964.338h-.029c-39.88.379-79.759.457-119.64.234l-29.91-.101-29.91-.198-59.82-.577c-19.941-.098-39.881-.187-59.82-.053l-14.955.131-14.955.204-29.91.401c-19.939.326-39.8791.39-59.8191.347l-29.91-.098-14.955-.084-14.95597-.155h-.026c-.258-.003-.50801-.093-.708008-.256-.201-.163-.340019-.389-.395019-.641s-.023973-.516.090027-.748c.114-.231.302987-.418.53699-.528l13.51398-6.396 13.525-6.375c9.045-4.192 18.061-8.443 27.137-12.57.042-.019.089-.021.132-.006.043.016.078.047.098.088.02.042.024.089.009.132-.014.044-.045.08-.085.101z"/><path d="m1.71973 222.29 59.81997-.511 59.8203-.294 119.64-.244 119.64.241 59.82.294 59.82.514-59.82.514-59.82.295-119.64.241-119.64-.245-59.8203-.294z"/><path d="m350.239 130.41c-3.565 5.584-7.934 10.61-12.968 14.916-4.992 4.445-10.795 7.885-17.09 10.132-3.17 1.084-6.448 1.817-9.777 2.188-1.665.175-3.337.264-5.011.265l-2.488-.078-2.469.008-19.749.077c-.098 0-.195-.02-.285-.059-5.33-2.329-10.667-4.655-16.019-6.921-1.325-.552-2.708-1.152-3.987-1.623l-.215-.075c-.034.004-.017.022-.027.007-.105.022-.205.057-.3.105-.278.135-.538.302-.776.498-.531.424-1.016.903-1.445 1.429-1.801 2.131-2.931 4.747-3.246 7.518-.013.112-.05.219-.111.314-.605.944-1.201 1.891-1.76 2.853-.556.938-1.037 1.918-1.439 2.932-.18.469-.302.957-.365 1.455-.03.449.051.898.237 1.307.593.973 1.138 1.974 1.631 3.001.055.143.063.3.025.448l-.002.005c-.157.636-.225 1.291-.202 1.945.011.628.157 1.245.427 1.812.26.533.689.966 1.221 1.23.565.286 1.18.46 1.812.513l-.139.001c.932-.127 1.853-.326 2.755-.595.904-.26 1.783-.602 2.625-1.022.821-.41 1.585-.926 2.271-1.536.644-.606 1.163-1.331 1.53-2.135.059-.131.156-.242.279-.316s.266-.11.41-.101c.143.009.281.061.394.15s.196.211.239.348l.005.017c.429 1.379 1.157 2.647 2.133 3.713.98 1.068 2.195 1.893 3.549 2.409 1.391.467 2.856.681 4.323.633.74-.017 1.483-.146 2.225-.211l2.205-.492.025-.005c.124-.028.252-.023.373.012 4.422 1.275 8.914 2.29 13.454 3.043 4.544.777 9.124 1.325 13.724 1.641 9.192.678 18.434.224 27.516-1.352 4.516-.848 8.957-2.054 13.281-3.609l3.208-1.247 3.131-1.422c1.069-.425 2.06-1.005 3.089-1.514 1.033-.501 2.039-1.054 3.016-1.659 3.982-2.315 7.692-5.07 11.061-8.214l2.494-2.401c.783-.847 1.538-1.721 2.31-2.582l1.153-1.297 1.049-1.381 2.101-2.767-1.989 2.851-.996 1.427-1.102 1.347c-.74.894-1.464 1.803-2.218 2.688l-2.413 2.519c-3.282 3.319-6.926 6.259-10.864 8.766-3.919 2.562-8.132 4.644-12.548 6.202-4.398 1.582-8.915 2.809-13.509 3.67-9.197 1.599-18.556 2.06-27.866 1.372-4.646-.319-9.273-.872-13.863-1.657-4.603-.763-9.158-1.793-13.641-3.087l.397.007-2.347.523c-.806.076-1.604.211-2.415.23-1.648.054-3.291-.19-4.852-.72-1.564-.594-2.967-1.546-4.097-2.779-1.134-1.236-1.974-2.712-2.457-4.318l1.327.098c-.443.991-1.079 1.884-1.871 2.627-.782.699-1.654 1.291-2.593 1.759-.917.459-1.874.832-2.859 1.116-.982.293-1.985.509-3.001.644l-.015.002c-.041.005-.083.005-.124-.001-.822-.07-1.623-.3-2.356-.678-.778-.4-1.407-1.037-1.797-1.82-.364-.749-.562-1.567-.581-2.399-.029-.802.057-1.605.256-2.382l.023.453c-.374-.992-1.021-1.766-1.608-2.948-.281-.624-.404-1.308-.356-1.992.072-.625.222-1.238.446-1.826.428-1.089.944-2.142 1.541-3.15.576-.993 1.185-1.959 1.8-2.918l-.11.314c.342-3.054 1.585-5.938 3.569-8.284.492-.601 1.047-1.148 1.655-1.632.325-.265.681-.49 1.06-.67.231-.111.479-.187.733-.222.173-.008.346.002.517.029l.301.1c1.453.533 2.739 1.099 4.1 1.665 5.367 2.272 10.702 4.597 16.038 6.929l-.284-.059 19.791-.076 2.473-.008 2.452.077c1.622-.001 3.242-.087 4.855-.257 3.226-.355 6.403-1.07 9.47-2.132 6.172-2.145 11.928-5.339 17.014-9.442 2.568-2.043 4.988-4.266 7.242-6.651 2.278-2.376 4.371-4.923 6.261-7.618zm-169.322-19.928c-.693.353-1.391.696-2.1 1.011l.111-.257c.45.967.863 1.949 1.271 2.932.421.979.803 1.972 1.148 2.981.351 1.006.675 2.023 1.044 3.023.37.998.782 1.98 1.205 2.958 1.758 3.884 3.43 7.803 4.846 11.823l-.374-.162c1.414-.508 2.841-.986 4.283-1.424.009-.003.018-.002.026.002.008.003.014.01.017.018s.003.018 0 .026-.009.015-.017.019c-1.351.668-2.716 1.3-4.097 1.895-.067.03-.143.031-.212.004s-.124-.079-.154-.147l-.008-.019c-1.727-3.896-3.198-7.894-4.584-11.926-.363-1.002-.737-1.999-1.152-2.98-.417-.98-.879-1.942-1.314-2.915-.443-.97-.846-1.955-1.209-2.956-.378-.996-.751-1.994-1.087-3.006l-.006-.018c-.016-.047-.012-.099.01-.143.022-.045.06-.079.107-.096.731-.257 1.474-.488 2.22-.708.009-.003.018-.002.026.002.007.004.014.01.017.018.003.009.003.018 0 .026s-.009.015-.017.019zm12.044 22.635c1.983-.841 3.954-1.709 5.946-2.527l5.971-2.46c3.988-1.624 7.981-3.233 12.007-4.761l-.151.349-2.26-5.974-2.304-5.955c-1.572-3.957-3.203-7.89-4.827-11.8262l.295.1272c-4.083 1.69-8.174 3.359-12.274 5.006l-.015.007c-.062.024-.13.028-.194.009-.258-.056-.499-.174-.701-.343-.206-.183-.354-.422-.427-.687-.062-.24-.082-.488-.058-.735.018-.236.066-.469.141-.694.01-.032.026-.062.047-.089l.007-.009c.394-.5.612-1.117.622-1.754-.003-.309-.069-.613-.194-.8952-.125-.282-.307-.535-.534-.744-.505-.409-1.113-.671-1.757-.756-.645-.085-1.3.009-1.894.273-.616.216-1.162.596-1.579 1.099-.417.5022-.69 1.1092-.789 1.7542-.028.316.01.633.11.934.099.301.26.578.47.814.45.481 1.048.798 1.698.898l.013.003c.022.003.044.011.063.022.411.215.752.542.985.943.117.225.166.478.141.73-.032.242-.122.473-.263.673-.023.038-.058.067-.099.082l-.007.003c-3.264 1.257-6.538 2.486-9.823 3.688-.008.002-.018.002-.026-.002s-.014-.01-.018-.019c-.003-.008-.003-.017 0-.026.004-.008.01-.015.018-.018 3.213-1.384 6.439-2.735 9.678-4.053l-.107.085c.098-.129.156-.284.168-.445.011-.162-.023-.323-.1-.465-.193-.302-.464-.545-.785-.704l.076.025c-.777-.103-1.496-.463-2.042-1.024-.274-.292-.485-.636-.621-1.011-.136-.376-.194-.776-.17-1.175.085-.778.387-1.5172.873-2.1312s1.136-1.079 1.874-1.34c.719-.318 1.512-.429 2.291-.322.779.108 1.513.43 2.119.931.301.276.542.61.709.982.166.372.255.7752.261 1.1822-.001.805-.276 1.584-.78 2.211l.054-.098c-.114.316-.141.657-.078.987.037.136.112.259.217.354s.236.157.375.18l-.209.015c4.112-1.615 8.234-3.207 12.366-4.7732l.006-.002c.056-.022.117-.02.172.004.054.025.096.07.117.125 1.519 3.9782 3.032 7.9582 4.603 11.9152l2.411 5.914 2.455 5.896c.027.064.028.137.001.202s-.078.117-.143.144h-.001l-.008.003c-3.977 1.649-7.987 3.216-12.003 4.769l-6.033 2.305c-2.01.771-4.041 1.491-6.06 2.239-.009.003-.018.003-.026-.001-.009-.004-.015-.011-.019-.019-.003-.009-.003-.018.001-.027.003-.008.01-.015.018-.019zm247.467 54.87-40.041-23.961 33.735-5.297s8.324 10.089 6.306 29.258z"/></g></svg>