<svg width="482" height="224" viewBox="0 0 482 224" fill="none" xmlns="http://www.w3.org/2000/svg">
<path d="M192.442 178.34H179.263C179.236 178.34 179.209 178.335 179.184 178.324C179.159 178.314 179.137 178.299 179.118 178.28C179.099 178.261 179.084 178.238 179.073 178.214C179.063 178.189 179.058 178.162 179.058 178.135V172.172C178.298 171.957 177.49 171.981 176.744 172.24L176.663 172.293C175.715 172.765 174.667 172.996 173.609 172.966C171.36 172.966 169.599 172.107 169.599 171.01C169.599 169.912 171.36 169.053 173.609 169.053C174.67 169.026 175.722 169.259 176.672 169.731L176.767 169.793C177.507 170.045 178.306 170.065 179.058 169.853V168.326C179.057 168.299 179.063 168.273 179.073 168.248C179.083 168.222 179.098 168.2 179.117 168.181C179.136 168.161 179.159 168.146 179.184 168.136C179.209 168.125 179.236 168.12 179.263 168.12C179.29 168.12 179.317 168.125 179.341 168.136C179.366 168.146 179.389 168.161 179.408 168.181C179.427 168.2 179.442 168.222 179.453 168.248C179.463 168.273 179.468 168.299 179.468 168.326V169.98C179.468 170.016 179.458 170.052 179.439 170.084C179.421 170.116 179.394 170.142 179.362 170.159C178.475 170.482 177.503 170.487 176.613 170.174C176.596 170.168 176.579 170.16 176.564 170.151L176.459 170.08C175.573 169.647 174.595 169.436 173.609 169.463C171.456 169.463 170.009 170.263 170.009 171.01C170.009 171.757 171.456 172.556 173.609 172.556C174.595 172.586 175.573 172.374 176.458 171.938L176.574 171.869C177.473 171.535 178.463 171.534 179.363 171.867C179.395 171.885 179.421 171.911 179.44 171.942C179.458 171.974 179.468 172.01 179.468 172.046V177.93H192.442C192.496 177.93 192.548 177.952 192.587 177.99C192.625 178.029 192.647 178.081 192.647 178.135C192.647 178.189 192.625 178.242 192.587 178.28C192.548 178.319 192.496 178.34 192.442 178.34ZM210.259 178.34H196.688C196.633 178.34 196.581 178.318 196.543 178.28C196.504 178.242 196.482 178.189 196.482 178.135C196.482 178.081 196.504 178.028 196.543 177.99C196.581 177.952 196.633 177.93 196.688 177.93H210.054V164.089H201.249C201.194 164.089 201.142 164.068 201.104 164.029C201.065 163.991 201.043 163.938 201.043 163.884C201.043 163.83 201.065 163.777 201.104 163.739C201.142 163.701 201.194 163.679 201.249 163.679H210.259C210.286 163.679 210.312 163.684 210.337 163.695C210.362 163.705 210.385 163.72 210.404 163.739C210.423 163.758 210.438 163.781 210.448 163.806C210.459 163.83 210.464 163.857 210.464 163.884V178.135C210.464 178.162 210.459 178.189 210.448 178.214C210.438 178.238 210.423 178.261 210.404 178.28C210.385 178.299 210.362 178.314 210.337 178.324C210.312 178.335 210.286 178.34 210.259 178.34Z" fill="black"/>
<path d="M231.824 171.009C231.824 171.979 233.534 172.759 235.634 172.759C236.655 172.788 237.667 172.569 238.584 172.119L238.704 172.049C239.528 171.761 240.425 171.754 241.254 172.029V178.139H210.254V172.049C209.42 171.751 208.508 171.751 207.674 172.049L207.554 172.119C206.637 172.569 205.625 172.788 204.604 172.759C202.504 172.759 200.794 171.979 200.794 171.009C200.794 170.049 202.504 169.259 204.604 169.259C205.629 169.232 206.645 169.455 207.564 169.909L207.674 169.979C208.509 170.272 209.419 170.272 210.254 169.979V163.889H223.514C224.684 163.439 223.514 162.699 223.514 162.699L223.354 162.639C222.494 162.319 221.954 161.829 221.954 161.289C221.954 160.319 223.654 159.539 225.754 159.539C227.854 159.539 229.564 160.319 229.564 161.289C229.564 161.839 229.014 162.329 228.144 162.649L228.004 162.699C228.004 162.699 226.824 163.439 228.004 163.889H241.254V169.989C240.427 170.271 239.529 170.267 238.704 169.979L238.594 169.909C237.674 169.456 236.659 169.233 235.634 169.259C233.534 169.259 231.824 170.039 231.824 171.009Z" fill="black"/>
<path d="M210.254 178.239V192.489H196.944C195.864 192.039 197.004 191.329 197.004 191.329L197.154 191.279C198.014 190.959 198.564 190.469 198.564 189.919C198.564 188.949 196.864 188.169 194.764 188.169C192.664 188.169 190.954 188.949 190.954 189.919C190.954 190.469 191.504 190.949 192.354 191.279L192.514 191.329C192.514 191.329 193.644 192.039 192.584 192.489H179.264V186.399C178.426 186.106 177.513 186.106 176.674 186.399L176.564 186.469C175.647 186.919 174.635 187.138 173.614 187.109C171.504 187.109 169.804 186.329 169.804 185.359C169.804 184.399 171.504 183.609 173.614 183.609C174.64 183.581 175.657 183.808 176.574 184.269L176.674 184.329C177.513 184.622 178.426 184.622 179.264 184.329V178.239H192.514L192.614 178.199C193.564 178.649 192.474 179.329 192.474 179.329L192.334 179.379C191.474 179.699 190.924 180.189 190.924 180.739C190.924 181.709 192.624 182.489 194.724 182.489C196.824 182.489 198.534 181.709 198.534 180.739C198.534 180.189 197.984 179.699 197.134 179.379L196.974 179.329C196.974 179.329 195.864 178.629 196.874 178.179L197.004 178.239H210.254ZM258.9 178.18C257.885 178.63 258.997 179.327 258.997 179.327L259.154 179.382C260.012 179.702 260.556 180.191 260.556 180.738C260.556 181.705 258.852 182.488 256.75 182.488C254.647 182.488 252.943 181.705 252.943 180.738C252.943 180.188 253.493 179.696 254.357 179.377L254.502 179.327C254.502 179.327 255.59 178.649 254.635 178.196L254.539 178.238H241.289V184.332C240.452 184.626 239.539 184.626 238.702 184.332L238.596 184.264C237.677 183.807 236.66 183.583 235.634 183.614C233.532 183.614 231.828 184.397 231.828 185.364C231.828 186.33 233.532 187.114 235.634 187.114C236.656 187.144 237.669 186.922 238.585 186.469L238.702 186.397C239.539 186.103 240.452 186.103 241.289 186.397V192.49H272.283V178.238H259.031L258.9 178.18Z" fill="black"/>
<path d="M210.254 206.974H179.264C179.237 206.974 179.211 206.969 179.186 206.958C179.161 206.948 179.138 206.933 179.119 206.914C179.1 206.895 179.085 206.872 179.075 206.847C179.064 206.822 179.059 206.796 179.059 206.769V200.806C178.297 200.592 177.488 200.615 176.739 200.873L176.674 200.922C175.724 201.391 174.674 201.622 173.614 201.594C171.363 201.594 169.599 200.735 169.599 199.639C169.599 198.543 171.363 197.684 173.614 197.684C174.674 197.658 175.724 197.89 176.674 198.361L176.765 198.422C177.506 198.674 178.306 198.695 179.059 198.482V192.519C179.059 192.492 179.064 192.465 179.075 192.44C179.085 192.416 179.1 192.393 179.119 192.374C179.138 192.355 179.161 192.34 179.186 192.329C179.211 192.319 179.237 192.314 179.264 192.314H192.474C192.525 192.293 192.582 192.292 192.633 192.31C192.685 192.329 192.728 192.366 192.754 192.414C192.766 192.437 192.773 192.461 192.776 192.486C192.778 192.511 192.776 192.537 192.768 192.561C192.761 192.585 192.749 192.608 192.733 192.627C192.716 192.647 192.696 192.663 192.674 192.674L192.624 192.695C192.589 192.709 192.552 192.719 192.514 192.724H179.469V198.609C179.469 198.645 179.459 198.681 179.44 198.713C179.422 198.745 179.395 198.771 179.363 198.788C178.474 199.112 177.501 199.117 176.609 198.803C176.591 198.797 176.573 198.788 176.558 198.777L176.458 198.707C175.573 198.278 174.598 198.067 173.614 198.094C171.458 198.094 170.009 198.893 170.009 199.639C170.009 200.385 171.457 201.184 173.614 201.184C174.6 201.212 175.578 201.002 176.464 200.571L176.564 200.506C177.467 200.172 178.459 200.17 179.363 200.499C179.395 200.517 179.422 200.543 179.44 200.575C179.459 200.606 179.469 200.642 179.469 200.679V206.564H210.049V192.724H197.004C196.973 192.724 196.942 192.717 196.914 192.703L196.853 192.673C196.804 192.649 196.767 192.606 196.75 192.554C196.733 192.503 196.737 192.447 196.761 192.398C196.785 192.349 196.828 192.312 196.88 192.295C196.931 192.278 196.987 192.282 197.036 192.306L197.052 192.314H210.254C210.281 192.314 210.308 192.319 210.332 192.329C210.357 192.34 210.38 192.355 210.399 192.374C210.418 192.393 210.433 192.415 210.443 192.44C210.454 192.465 210.459 192.492 210.459 192.519V206.769C210.459 206.796 210.454 206.822 210.443 206.847C210.433 206.872 210.418 206.895 210.399 206.914C210.38 206.933 210.357 206.948 210.332 206.958C210.308 206.969 210.281 206.974 210.254 206.974Z" fill="black"/>
<path d="M231.824 199.669C231.824 200.639 233.534 201.429 235.634 201.429C236.655 201.455 237.668 201.232 238.584 200.779L238.704 200.709C239.529 200.422 240.427 200.418 241.254 200.699V206.769H210.254V200.679C209.419 200.387 208.509 200.387 207.674 200.679L207.554 200.749C206.637 201.199 205.625 201.418 204.604 201.389C202.504 201.389 200.794 200.609 200.794 199.639C200.794 198.679 202.504 197.889 204.604 197.889C205.629 197.862 206.645 198.085 207.564 198.539L207.674 198.609C208.509 198.902 209.419 198.902 210.254 198.609V192.519H223.514C224.684 192.069 223.514 191.329 223.514 191.329L223.354 191.279C222.494 190.949 221.954 190.469 221.954 189.919C221.954 188.949 223.654 188.169 225.754 188.169C227.854 188.169 229.564 188.949 229.564 189.919C229.564 190.469 229.014 190.959 228.144 191.279L228.004 191.329C228.004 191.329 226.824 192.069 228.004 192.519H241.254V198.649C240.427 198.93 239.529 198.927 238.704 198.639L238.594 198.579C237.677 198.117 236.66 197.89 235.634 197.919C233.534 197.919 231.824 198.709 231.824 199.669Z" fill="black"/>
<path d="M272.284 207.004H241.284C241.257 207.004 241.231 206.999 241.206 206.989C241.181 206.978 241.158 206.963 241.139 206.944C241.12 206.925 241.105 206.903 241.095 206.878C241.085 206.853 241.079 206.826 241.079 206.799V200.804C241.06 200.772 241.05 200.736 241.05 200.699C241.051 200.645 241.072 200.593 241.11 200.554C241.148 200.516 241.2 200.495 241.254 200.494C241.317 200.498 241.377 200.521 241.425 200.561C241.446 200.58 241.462 200.603 241.473 200.629C241.484 200.654 241.489 200.682 241.489 200.709V206.594H272.079V192.754H241.489V198.639C241.489 198.667 241.484 198.694 241.473 198.72C241.462 198.745 241.446 198.768 241.425 198.787C241.377 198.827 241.317 198.85 241.254 198.854C241.218 198.854 241.182 198.844 241.15 198.826C241.119 198.807 241.093 198.781 241.075 198.749C241.057 198.717 241.048 198.681 241.049 198.645C241.05 198.608 241.06 198.572 241.079 198.541V192.549C241.079 192.522 241.085 192.496 241.095 192.471C241.105 192.446 241.12 192.423 241.139 192.404C241.158 192.385 241.181 192.37 241.206 192.36C241.231 192.349 241.257 192.344 241.284 192.344H272.284C272.311 192.344 272.338 192.349 272.363 192.36C272.388 192.37 272.41 192.385 272.429 192.404C272.448 192.423 272.464 192.446 272.474 192.471C272.484 192.496 272.489 192.522 272.489 192.549V206.799C272.489 206.826 272.484 206.853 272.474 206.878C272.464 206.902 272.448 206.925 272.429 206.944C272.41 206.963 272.388 206.978 272.363 206.989C272.338 206.999 272.311 207.004 272.284 207.004ZM254.464 178.344H241.294C241.267 178.344 241.241 178.339 241.216 178.328C241.191 178.318 241.168 178.303 241.149 178.284C241.13 178.265 241.115 178.242 241.105 178.217C241.094 178.193 241.089 178.166 241.089 178.139V172.179C240.327 171.969 239.519 171.991 238.77 172.243L238.688 172.296C237.739 172.763 236.691 172.992 235.635 172.964C233.383 172.964 231.619 172.105 231.619 171.009C231.619 169.913 233.383 169.054 235.635 169.054C236.694 169.028 237.744 169.26 238.694 169.731L238.813 169.805C239.551 170.043 240.344 170.057 241.089 169.843V163.889C241.089 163.862 241.094 163.835 241.105 163.811C241.115 163.786 241.13 163.763 241.149 163.744C241.168 163.725 241.191 163.71 241.216 163.7C241.241 163.689 241.267 163.684 241.294 163.684H250.724C250.751 163.684 250.778 163.689 250.803 163.699C250.828 163.709 250.851 163.724 250.87 163.743C250.889 163.763 250.904 163.785 250.915 163.81C250.925 163.835 250.93 163.862 250.93 163.889C250.93 163.916 250.925 163.943 250.915 163.968C250.904 163.993 250.889 164.015 250.87 164.035C250.851 164.054 250.828 164.069 250.803 164.079C250.778 164.089 250.751 164.094 250.724 164.094H241.499V169.979C241.499 170.016 241.489 170.052 241.47 170.084C241.451 170.116 241.424 170.142 241.391 170.16C241.371 170.169 241.35 170.177 241.329 170.182C240.457 170.482 239.509 170.479 238.639 170.173L238.485 170.082C237.599 169.649 236.621 169.437 235.634 169.464C233.68 169.464 232.029 170.171 232.029 171.009C232.029 171.847 233.68 172.554 235.634 172.554C236.62 172.583 237.598 172.372 238.485 171.941L238.601 171.872C239.486 171.55 240.454 171.54 241.345 171.845C241.359 171.85 241.372 171.857 241.384 171.866C241.419 171.882 241.448 171.908 241.468 171.941C241.489 171.973 241.499 172.011 241.499 172.049V177.934H254.464C254.491 177.934 254.518 177.939 254.543 177.949C254.568 177.959 254.591 177.974 254.61 177.993C254.629 178.013 254.644 178.035 254.655 178.06C254.665 178.085 254.671 178.112 254.671 178.139C254.671 178.166 254.665 178.193 254.655 178.218C254.644 178.243 254.629 178.265 254.61 178.285C254.591 178.304 254.568 178.319 254.543 178.329C254.518 178.339 254.491 178.344 254.464 178.344ZM271.508 178.34H258.707C258.653 178.34 258.601 178.319 258.562 178.28C258.524 178.242 258.502 178.189 258.502 178.135C258.502 178.081 258.524 178.029 258.562 177.99C258.601 177.952 258.653 177.93 258.707 177.93H271.508C271.562 177.93 271.615 177.952 271.653 177.99C271.691 178.029 271.713 178.081 271.713 178.135C271.713 178.189 271.691 178.242 271.653 178.28C271.615 178.319 271.562 178.34 271.508 178.34ZM206.697 149.032C211.9 148.874 217.104 148.806 222.307 148.691L237.916 148.496C248.323 148.38 258.729 148.391 269.135 148.332C279.542 148.387 289.948 148.382 300.354 148.493L315.964 148.689C321.167 148.805 326.37 148.873 331.573 149.032C326.37 149.191 321.167 149.259 315.964 149.376L300.354 149.571C289.948 149.683 279.542 149.677 269.135 149.732C258.729 149.673 248.323 149.684 237.916 149.569L222.307 149.374C217.104 149.258 211.9 149.19 206.697 149.032ZM118.279 63.1258C115.995 63.1118 113.716 62.9438 111.456 62.6208C111.391 62.6128 111.329 62.5908 111.273 62.5588C110.184 61.9288 104.717 58.7118 104.014 57.3048C103.11 56.2228 101.887 55.4538 100.52 55.1088C97.8797 54.2458 93.4556 53.8798 87.3706 57.0208C87.2896 57.0618 87.1997 57.0808 87.1097 57.0758C87.0187 57.0698 86.9316 57.0398 86.8576 56.9888C86.7826 56.9368 86.7236 56.8668 86.6856 56.7838C86.6486 56.7018 86.6337 56.6108 86.6437 56.5208C86.6937 56.0798 87.9557 45.7268 96.2687 43.6488C96.3607 43.6338 99.2287 43.1968 100.783 37.4448C102.455 31.2618 105.641 29.2238 107.968 27.7368L108.226 27.5708C110.354 26.2028 112.882 20.3278 113.382 16.6578C113.932 12.6238 120.278 2.12179 132.001 1.25979C142.003 0.526786 155.36 7.67279 157.142 12.0838C157.36 12.5178 157.427 13.0108 157.333 13.4868C157.239 13.9628 156.989 14.3928 156.623 14.7108C150.477 22.7598 143.084 29.7738 134.724 35.4878V50.6918C134.832 52.2048 134.611 53.7248 134.077 55.1448C133.542 56.5648 132.707 57.8528 131.628 58.9198C128.795 61.7198 124.32 63.1258 118.279 63.1258ZM111.689 61.6438C120.885 62.8908 127.358 61.7348 130.925 58.2088C131.895 57.2368 132.647 56.0698 133.13 54.7838C133.614 53.4988 133.817 52.1248 133.728 50.7538L133.724 35.2218C133.724 35.1398 133.744 35.0598 133.782 34.9868C133.821 34.9148 133.876 34.8538 133.944 34.8078C142.316 29.1278 149.711 22.1288 155.843 14.0818C155.868 14.0458 155.898 14.0138 155.932 13.9868C156.157 13.8098 156.31 13.5568 156.362 13.2758C156.414 12.9948 156.362 12.7038 156.215 12.4578C154.572 8.39078 141.529 1.56577 132.074 2.25777C121.078 3.06677 114.875 13.1108 114.373 16.7918C113.896 20.2898 111.417 26.7078 108.767 28.4118L108.507 28.5778C106.195 30.0568 103.319 31.8968 101.749 37.7058C99.9977 44.1838 96.5867 44.6158 96.4417 44.6308C90.2607 46.1808 88.3106 53.1418 87.7976 55.6938C93.7386 52.8708 98.1397 53.2818 100.83 54.1578C102.455 54.5728 103.892 55.5238 104.908 56.8578C105.344 57.7298 109.261 60.2328 111.689 61.6438ZM148.913 148.398L148.901 148.408C148.781 148.616 148.671 148.822 148.547 149.032L148.913 148.398Z" fill="black"/>
<path d="M180.714 105.759C179.454 103.999 178.704 91.1289 178.704 91.1289C176.934 60.6089 155.084 55.6489 155.084 55.6489C154.76 56.0419 154.391 56.3939 153.984 56.6989C149.564 59.9789 140.864 58.4689 140.864 58.4689C140.864 58.4689 136.834 59.7289 135.444 65.2789C134.054 70.8289 136.454 86.9689 133.174 86.0889C129.894 85.2089 122.564 85.3189 122.004 62.6189C122.004 62.6189 122.014 62.5389 122.044 62.3989C118.54 62.7549 115.005 62.6649 111.524 62.1289C111.524 62.1289 105.134 58.4289 104.464 57.0789C103.784 55.7389 97.5636 51.1989 87.1436 56.5789C87.1436 56.5789 76.5536 57.5489 65.3236 69.7789C54.0936 82.0089 42.2436 105.509 39.7236 150.569L48.4436 153.139C48.4836 148.439 48.7336 143.749 49.1136 139.069C49.6226 132.704 50.5376 126.378 51.8536 120.129C53.2436 113.929 54.9536 107.649 58.2236 102.149C56.8626 105.016 55.7776 108.006 54.9836 111.079C54.1336 114.129 53.4636 117.229 52.9036 120.339C51.8036 126.579 51.0337 132.879 50.5037 139.189C49.9537 145.509 49.6536 151.849 49.5436 158.189C49.4936 161.359 49.5236 164.529 49.6936 167.699C49.7636 169.279 49.8537 170.859 50.0536 172.429C50.1467 173.215 50.2796 173.996 50.4536 174.769C50.5366 175.154 50.6506 175.532 50.7936 175.899C50.8776 176.104 50.9776 176.301 51.0936 176.489L51.1436 176.539C51.2486 176.644 51.3657 176.734 51.4937 176.809C51.4937 176.809 82.0336 164.649 103.954 153.939C103.904 151.429 103.934 148.929 103.924 146.439L103.814 138.949C103.624 133.959 103.484 128.979 103.034 124.019C102.674 119.059 102.074 114.109 101.254 109.199C100.854 106.749 100.357 104.312 99.7636 101.889C99.2146 99.4559 98.4787 97.0689 97.5637 94.7489C99.7787 99.2639 101.377 104.057 102.314 108.999C102.874 111.449 103.244 113.939 103.634 116.419C103.934 118.909 104.254 121.409 104.434 123.909C104.654 126.409 104.744 128.919 104.844 131.419C104.924 133.929 104.914 136.439 104.894 138.939L104.604 146.449C104.384 148.949 104.214 151.449 103.954 153.939C103.954 153.939 106.274 157.679 130.744 153.059C130.744 153.059 148.414 148.999 148.904 148.409C159.864 129.229 155.084 115.349 155.084 115.349C154.622 112.942 154.288 110.512 154.084 108.069C153.844 105.629 153.734 103.189 153.674 100.739C153.634 98.2889 153.674 95.8389 153.864 93.3889C153.995 90.9269 154.404 88.4879 155.084 86.1189C154.924 88.5689 154.944 90.9889 154.954 93.4189C154.984 95.8489 155.014 98.2789 155.074 100.709C155.144 105.579 155.264 110.439 155.084 115.349C161.734 116.609 180.714 105.759 180.714 105.759ZM92.0637 82.0689C91.7117 81.6339 91.3166 81.2349 90.8836 80.8789L89.6336 79.7889C89.1936 79.4489 88.7137 79.1689 88.2537 78.8589C86.3917 77.6709 84.3106 76.8649 82.1336 76.4889C79.9546 76.0859 77.7276 76.0009 75.5236 76.2389C73.3006 76.4529 71.1076 76.9089 68.9836 77.5989C71.0386 76.6509 73.2216 76.0109 75.4636 75.6989C77.7216 75.3819 80.0156 75.4159 82.2636 75.7989C84.5216 76.2179 86.6656 77.1109 88.5536 78.4189C90.4137 79.7209 91.9916 81.3839 93.1936 83.3089L92.0637 82.0689Z" fill="black"/>
<path d="M122.046 62.3998L124.353 61.9428C125.098 61.7058 125.855 61.5038 126.581 61.2268C128.027 60.6708 129.37 59.8769 130.552 58.8759C131.69 57.8539 132.576 56.5829 133.141 55.1609C133.698 53.7599 133.921 52.2478 133.79 50.7448C133.789 50.7288 133.787 50.7069 133.787 50.6909C133.671 45.5349 133.641 40.3778 133.563 35.2218C133.562 35.1188 133.585 35.0159 133.631 34.9239C133.677 34.8319 133.745 34.7518 133.829 34.6918L133.854 34.6739C135.906 33.2109 137.936 31.7179 139.863 30.0949C141.815 28.5039 143.671 26.7978 145.493 25.0628C147.323 23.3348 149.07 21.5199 150.753 19.6509C152.435 17.7979 154.021 15.8598 155.506 13.8438C155.525 13.8178 155.546 13.7919 155.57 13.7679L155.667 13.6699C155.745 13.6049 155.809 13.5248 155.856 13.4348C155.902 13.3438 155.929 13.2459 155.936 13.1439C155.915 12.8459 155.823 12.5569 155.667 12.3029C155.227 11.6079 154.686 10.9818 154.06 10.4478C152.707 9.29185 151.235 8.28286 149.67 7.43686C146.504 5.69786 143.126 4.37886 139.619 3.51386C137.887 3.07986 136.117 2.80785 134.334 2.70185C133.455 2.65285 132.575 2.67385 131.7 2.76685C130.824 2.84285 129.956 2.98686 129.103 3.19986C128.248 3.39986 127.406 3.65885 126.586 3.97385C125.771 4.30985 124.979 4.69686 124.214 5.13486C122.667 6.00286 121.245 7.07685 119.987 8.32685C118.709 9.56585 117.582 10.9499 116.628 12.4529C115.652 13.8929 114.981 15.5178 114.656 17.2278C114.304 19.1098 113.732 20.9449 112.954 22.6949C112.226 24.4899 111.219 26.1588 109.972 27.6408C109.801 27.8278 109.601 28.0029 109.416 28.1809C109.207 28.3389 108.965 28.5279 108.771 28.6479L107.615 29.3809C106.871 29.8579 106.173 30.4049 105.532 31.0149C104.268 32.2569 103.274 33.7459 102.609 35.3889C102.263 36.2229 101.965 37.0769 101.718 37.9449C101.45 38.8619 101.106 39.7549 100.688 40.6139C100.256 41.4859 99.6976 42.2888 99.0306 42.9988C98.3456 43.7658 97.4356 44.2988 96.4296 44.5198L96.4836 44.5099C95.1946 44.8259 93.9776 45.3828 92.8956 46.1498C91.8226 46.9568 90.8867 47.9309 90.1237 49.0349C89.3717 50.1659 88.7446 51.3739 88.2516 52.6389C87.7486 53.9099 87.3756 55.2298 87.1406 56.5768C87.3006 55.2108 87.5986 53.8648 88.0316 52.5598C88.4606 51.2428 89.0416 49.9808 89.7656 48.7998C90.5136 47.6148 91.4476 46.5579 92.5316 45.6699C93.6536 44.7999 94.9306 44.1508 96.2946 43.7568L96.3486 43.7469C97.1436 43.5029 97.8507 43.0298 98.3787 42.3868C98.9487 41.7198 99.4216 40.9749 99.7816 40.1739C100.151 39.3599 100.452 38.5159 100.68 37.6509C100.915 36.7359 101.204 35.8348 101.544 34.9518C102.227 33.1388 103.275 31.4858 104.622 30.0928C105.304 29.4098 106.049 28.7929 106.847 28.2499L108.013 27.4678C108.208 27.3388 108.322 27.2298 108.482 27.1108C108.623 26.9618 108.771 26.8309 108.908 26.6729C110.002 25.2859 110.874 23.7379 111.495 22.0839C112.169 20.4309 112.666 18.7119 112.978 16.9539C113.049 16.4609 113.153 15.9738 113.289 15.4938C113.428 15.0178 113.599 14.5519 113.801 14.0989C114.184 13.2108 114.634 12.3518 115.145 11.5288C116.159 9.89884 117.362 8.39386 118.73 7.04486C120.087 5.67586 121.622 4.49584 123.295 3.53684C124.13 3.04984 124.997 2.61786 125.888 2.24186C126.789 1.88586 127.714 1.59286 128.656 1.36286C129.595 1.12186 130.552 0.953844 131.517 0.860844C132.48 0.752844 133.451 0.720843 134.419 0.765843C136.329 0.860843 138.226 1.13487 140.085 1.58387C143.767 2.48987 147.309 3.89585 150.61 5.76285C152.291 6.69085 153.868 7.79486 155.315 9.05686C156.09 9.73386 156.755 10.5268 157.286 11.4088C157.602 11.9528 157.77 12.5699 157.773 13.1999C157.754 13.5599 157.662 13.9119 157.5 14.2339C157.339 14.5559 157.113 14.8418 156.836 15.0718L156.997 14.8969C155.454 16.9599 153.806 18.9409 152.058 20.8329C150.327 22.7219 148.534 24.5528 146.658 26.2958C144.782 28.0388 142.835 29.6989 140.815 31.2769C138.815 32.8739 136.713 34.3389 134.593 35.7689L134.884 35.2218C134.807 40.3778 134.776 45.5349 134.66 50.6909L134.657 50.6379C134.742 52.2799 134.436 53.9189 133.764 55.4199C133.104 56.8989 132.111 58.2059 130.862 59.2379C129.606 60.2229 128.188 60.9798 126.671 61.4768C125.919 61.7168 125.142 61.8769 124.382 62.0728L122.046 62.3998Z" fill="black"/>
<path d="M156.253 14.4408C156.25 14.5428 156.12 14.6708 156.04 14.8058L155.765 15.1968L155.207 15.9708C154.836 16.4888 154.437 16.9838 154.049 17.4888C153.258 18.4848 152.452 19.4718 151.619 20.4348C149.962 22.3708 148.198 24.2138 146.372 25.9928C144.539 27.7638 142.671 29.5098 140.677 31.1038C138.712 32.7368 136.644 34.2388 134.553 35.7098L134.813 35.2218C134.821 37.7998 134.867 40.3778 134.845 42.9568L134.803 50.6908L134.799 50.6208C134.899 52.2888 134.597 53.9568 133.918 55.4838C133.253 56.9908 132.248 58.3238 130.982 59.3778C129.71 60.3798 128.275 61.1548 126.741 61.6698C125.982 61.9208 125.2 62.0918 124.431 62.2968L122.078 62.6668L122.311 62.4528L122.266 62.6728L122.27 62.6168L122.411 66.2998C122.488 67.5248 122.613 68.7468 122.712 69.9718C122.985 72.4068 123.484 74.8128 124.201 77.1558C124.843 79.4958 126.073 81.6328 127.775 83.3618C128.658 84.1548 129.703 84.7468 130.838 85.0938C131.415 85.2708 132.001 85.4168 132.593 85.5308L133.055 85.6348L133.283 85.6858C133.326 85.6848 133.368 85.6878 133.41 85.6948C133.552 85.6898 133.666 85.6048 133.801 85.4178C134.232 84.3458 134.446 83.1988 134.432 82.0438C134.484 80.8328 134.484 79.6088 134.471 78.3828C134.442 75.9288 134.343 73.4648 134.338 70.9838C134.34 69.7418 134.37 68.4958 134.478 67.2358C134.57 65.9428 134.855 64.6698 135.326 63.4618C135.773 62.1988 136.476 61.0418 137.393 60.0638C138.309 59.0858 139.419 58.3088 140.651 57.7808C140.735 57.7468 140.827 57.7358 140.917 57.7488L140.989 57.7588C143.228 58.0798 145.495 58.1518 147.75 57.9738C149.938 57.8898 152.053 57.1598 153.827 55.8768C154.629 55.1708 155.269 54.2998 155.705 53.3248C156.19 52.3208 156.569 51.2688 156.834 50.1848C157.394 47.9838 157.714 45.7288 157.79 43.4588C157.795 43.3228 157.841 43.1908 157.923 43.0818C158.005 42.9738 158.118 42.8918 158.247 42.8498L158.262 42.8458C158.588 42.7848 158.882 42.6108 159.094 42.3558C159.305 42.0998 159.42 41.7778 159.419 41.4468C159.46 40.6388 159.318 39.8328 159.003 39.0888L158.99 39.0558C158.958 38.9728 158.947 38.8838 158.957 38.7958L159.697 32.4678C160.038 30.3988 160.194 28.3048 160.164 26.2078C160.048 24.1168 159.652 22.0508 158.984 20.0648C158.643 19.0688 158.243 18.0938 157.786 17.1458C157.55 16.6748 157.307 16.2058 157.043 15.7488L156.636 15.0698L156.421 14.7378L156.309 14.5748L156.254 14.4938C156.245 14.4838 156.254 14.4698 156.253 14.4408ZM156.25 14.3008C158.901 17.7288 160.52 21.8418 160.918 26.1568C161.029 28.3018 160.948 30.4518 160.677 32.5828L160.104 38.9148L160.058 38.6218C160.253 39.0768 160.404 39.5488 160.508 40.0328C160.623 40.5318 160.664 41.0458 160.628 41.5568C160.615 42.1418 160.408 42.7068 160.04 43.1628C159.672 43.6188 159.163 43.9398 158.593 44.0758L159.065 43.4628C159.05 45.8458 158.759 48.2198 158.197 50.5358C157.913 51.7138 157.506 52.8578 156.984 53.9508C156.468 55.1058 155.71 56.1358 154.763 56.9728C152.769 58.4628 150.376 59.3228 147.89 59.4418C145.505 59.6528 143.104 59.5638 140.742 59.1778L141.08 59.1558C140.051 59.5738 139.13 60.2208 138.386 61.0458C137.611 61.8988 136.999 62.8858 136.579 63.9588C135.663 66.0988 135.669 68.5508 135.59 70.9958C135.542 73.4428 135.587 75.9068 135.563 78.3818C135.551 79.6198 135.522 80.8608 135.422 82.1088C135.364 82.7338 135.303 83.3598 135.186 83.9908C135.088 84.6638 134.863 85.3128 134.523 85.9028C134.402 86.0918 134.237 86.2478 134.042 86.3578C133.847 86.4678 133.627 86.5288 133.403 86.5338C133.292 86.5238 133.18 86.5088 133.071 86.4898L132.851 86.4328L132.414 86.3198C131.801 86.1788 131.196 86.0078 130.6 85.8058C129.382 85.3928 128.268 84.7198 127.336 83.8328C125.624 81.9818 124.387 79.7408 123.734 77.3048C123.041 74.9238 122.555 72.4868 122.283 70.0218C122.167 68.7918 122.023 67.5628 121.929 66.3308L121.734 62.6298C121.733 62.6128 121.734 62.5968 121.737 62.5808L121.739 62.5728L121.782 62.3468C121.792 62.2938 121.817 62.2458 121.855 62.2078C121.893 62.1698 121.942 62.1448 121.994 62.1348L122.014 62.1318L124.303 61.7188C125.041 61.4908 125.792 61.2998 126.511 61.0328C127.94 60.4968 129.266 59.7198 130.433 58.7368C131.547 57.7448 132.417 56.5098 132.975 55.1258C133.533 53.7428 133.764 52.2498 133.648 50.7618L133.646 50.7318L133.644 50.6908L133.602 42.9568C133.58 40.3778 133.626 37.7998 133.634 35.2218C133.635 35.1248 133.66 35.0308 133.705 34.9458C133.75 34.8608 133.815 34.7878 133.894 34.7328C135.975 33.3108 138.038 31.8548 140.002 30.2678C141.979 28.6988 143.914 27.0728 145.78 25.3668C147.659 23.6738 149.435 21.8718 151.192 20.0488C152.069 19.1358 152.92 18.1978 153.759 17.2478C154.61 16.2758 155.361 15.3588 156.25 14.3008Z" fill="black"/>
<path d="M142.488 28.9161C144.444 28.6011 146.433 28.5601 148.4 28.7931C150.378 28.9771 152.309 29.5021 154.108 30.3451C152.162 29.9901 150.258 29.6952 148.323 29.4892C146.391 29.2692 144.455 29.1211 142.488 28.9161ZM149.189 35.5582C149.462 35.5492 149.72 35.4341 149.909 35.2381C150.099 35.0421 150.205 34.7801 150.205 34.5071C150.205 34.2341 150.099 33.9721 149.909 33.7761C149.72 33.5801 149.462 33.4661 149.189 33.4561C148.917 33.4661 148.659 33.5801 148.469 33.7761C148.28 33.9721 148.174 34.2341 148.174 34.5071C148.174 34.7801 148.28 35.0421 148.469 35.2381C148.659 35.4341 148.917 35.5492 149.189 35.5582ZM162.179 30.3451C161.391 30.3311 160.603 30.3582 159.818 30.4241L157.468 30.5991L157.732 30.4211C157.462 31.1311 157.296 31.8771 157.24 32.6341C157.174 33.3961 157.219 34.1631 157.372 34.9111C157.551 35.6681 157.808 36.4041 158.137 37.1081C158.295 37.4661 158.475 37.8141 158.676 38.1501C158.889 38.4501 159.122 38.8501 159.531 38.8561C159.101 38.9591 158.756 38.5681 158.487 38.2961C158.212 37.9911 157.97 37.6581 157.763 37.3041C157.324 36.6071 156.986 35.8511 156.758 35.0591C156.546 34.2501 156.473 33.4101 156.542 32.5761C156.609 31.7381 156.82 30.9171 157.167 30.1511L157.17 30.1451C157.193 30.0951 157.23 30.0531 157.276 30.0221C157.323 29.9921 157.376 29.9751 157.432 29.9731C158.229 29.9501 159.021 29.9611 159.816 30.0081C160.613 30.0381 161.405 30.1511 162.179 30.3451Z" fill="black"/>
<path d="M158.963 35.747C159.235 35.738 159.494 35.623 159.683 35.427C159.872 35.231 159.978 34.969 159.978 34.696C159.978 34.424 159.872 34.162 159.683 33.966C159.494 33.77 159.235 33.655 158.963 33.645C158.691 33.655 158.432 33.77 158.243 33.966C158.054 34.162 157.948 34.424 157.948 34.696C157.948 34.969 158.054 35.231 158.243 35.427C158.432 35.623 158.691 35.738 158.963 35.747ZM149.694 46.992L151.902 48.184C152.617 48.569 153.365 48.89 154.136 49.143C154.461 49.298 154.82 49.364 155.179 49.334C155.537 49.304 155.881 49.18 156.175 48.973C156.624 48.315 156.864 47.537 156.864 46.74C157.003 47.166 157.051 47.617 157.004 48.063C156.958 48.508 156.817 48.939 156.592 49.327C156.434 49.522 156.237 49.682 156.013 49.795C155.789 49.909 155.544 49.975 155.293 49.988C154.834 50.01 154.374 49.951 153.935 49.814C153.111 49.543 152.332 49.151 151.623 48.652C150.918 48.174 150.271 47.618 149.694 46.992ZM152.027 39.993C151.991 40.539 151.995 41.088 152.038 41.633C152.113 42.163 152.279 42.675 152.531 43.146C152.214 43.068 151.931 42.887 151.727 42.631C151.513 42.37 151.379 42.052 151.343 41.716C151.302 41.394 151.343 41.068 151.462 40.766C151.582 40.465 151.776 40.199 152.027 39.993ZM134.224 50.692C134.86 51.298 135.444 51.958 135.97 52.663L136.749 53.682C137.008 54.033 137.288 54.368 137.587 54.685C137.132 54.587 136.71 54.374 136.36 54.067C136.009 53.78 135.692 53.453 135.416 53.093C134.854 52.385 134.448 51.567 134.224 50.692ZM159.52 42.813C159.986 45.593 160.26 48.359 160.611 51.11C160.785 52.482 160.957 53.857 161.205 55.209C161.323 55.885 161.475 56.554 161.661 57.214C161.818 57.886 162.101 58.523 162.494 59.09C161.465 58.083 160.753 56.797 160.446 55.391C160.062 54.029 159.786 52.639 159.619 51.233C159.264 48.44 159.231 45.614 159.52 42.813ZM42.7808 151.473C42.7988 153.417 42.6858 155.359 42.4398 157.287C42.2268 159.218 41.8797 161.133 41.4037 163.017C41.3837 161.074 41.4978 159.131 41.7448 157.204C41.9598 155.272 42.3068 153.358 42.7808 151.473ZM49.1517 164.364C45.9917 164.031 42.8378 163.66 39.6888 163.252L39.9308 163.131C38.6278 165.805 37.4668 168.545 36.4528 171.34C35.4448 174.141 34.5167 176.971 33.6957 179.834C32.9107 182.705 32.1668 185.592 31.5638 188.511C30.9358 191.426 30.4457 194.368 29.9697 197.32C30.2287 194.344 30.5678 191.367 31.1138 188.424C31.5948 185.468 32.3028 182.554 33.0718 179.66C33.8478 176.765 34.7718 173.912 35.8408 171.112C36.8748 168.294 38.1017 165.551 39.5137 162.903C39.5377 162.86 39.5728 162.826 39.6158 162.804C39.6598 162.783 39.7077 162.775 39.7557 162.782C42.8927 163.276 46.0237 163.804 49.1517 164.364ZM53.3638 176.577C53.8458 179.264 54.5337 181.91 55.4227 184.491C56.2507 187.081 57.3758 189.567 58.7758 191.899C60.1798 194.212 61.9098 196.311 63.9108 198.133C65.9188 199.936 68.1598 201.461 70.5728 202.669C75.4418 205.021 80.8737 205.954 86.2477 205.361C86.9107 205.261 87.5857 205.241 88.2377 205.076L90.2037 204.649L94.1467 203.566C96.7667 202.807 99.3758 202.011 101.966 201.156C107.143 199.437 112.26 197.551 117.319 195.498C122.373 193.439 127.34 191.171 132.273 188.831C137.205 186.487 142.06 183.977 146.861 181.367C151.673 178.775 156.404 176.033 161.091 173.219L161.069 173.234C164.047 171.273 167.359 169.876 170.841 169.11C174.297 168.31 177.848 167.999 181.39 168.187C184.931 168.36 188.434 168.989 191.814 170.057C192.637 170.333 193.478 170.553 194.331 170.717C195.162 170.852 196.012 170.806 196.823 170.582C197.206 170.467 197.559 170.268 197.854 169.998C198.15 169.729 198.381 169.397 198.532 169.027C198.806 168.24 198.902 167.402 198.811 166.574V166.564C198.81 166.518 198.818 166.472 198.835 166.429C198.853 166.386 198.879 166.347 198.911 166.314C199.478 165.747 199.994 165.131 200.453 164.474C200.92 163.828 201.305 163.127 201.602 162.387C201.901 161.672 202.051 160.904 202.043 160.13C201.996 159.378 201.751 158.653 201.332 158.028C201.274 157.938 201.253 157.83 201.275 157.725C201.297 157.621 201.36 157.53 201.449 157.472L201.487 157.45C202.505 156.933 203.448 156.28 204.29 155.509C205.13 154.786 205.761 153.849 206.114 152.798C206.181 152.543 206.228 152.283 206.252 152.02C206.241 151.749 206.266 151.519 206.228 151.205C206.173 150.611 206.137 150.014 206.109 149.416C206.037 148.198 206.079 146.976 206.236 145.766C206.247 145.689 206.281 145.617 206.334 145.559L206.366 145.523C208.412 143.342 209.911 140.706 210.742 137.833C211.13 136.43 211.175 134.955 210.874 133.531C210.823 133.176 210.726 132.83 210.583 132.501C210.465 132.164 210.328 131.833 210.173 131.51C209.858 130.889 209.458 130.314 208.987 129.801C208.508 129.355 207.914 129.051 207.272 128.922C206.63 128.794 205.965 128.846 205.351 129.072C204.742 129.306 204.21 129.705 203.816 130.225C203.389 130.824 203 131.449 202.65 132.096C201.926 133.427 201.271 134.795 200.685 136.192C200.04 137.782 198.825 139.073 197.278 139.814C195.739 140.471 194.045 140.676 192.393 140.405C190.769 140.203 189.205 139.664 187.801 138.824C184.985 137.109 182.947 134.367 182.116 131.178C182.011 130.784 181.949 130.381 181.865 129.982L181.729 128.768L181.571 126.49C181.445 124.976 181.28 123.466 181.035 121.979C180.823 120.512 180.459 119.072 179.949 117.68C179.735 117.063 179.387 116.501 178.929 116.034C178.755 115.872 178.529 115.776 178.291 115.766C178.053 115.755 177.82 115.829 177.631 115.975L177.415 116.057C177.287 116.104 177.164 116.163 177.047 116.232C176.894 116.322 176.747 116.421 176.607 116.529C176.315 116.771 176.045 117.037 175.8 117.324C175.297 117.942 174.865 118.613 174.511 119.326C173.796 120.814 173.26 122.382 172.916 123.997C172.545 125.632 172.268 127.287 172.089 128.953C171.923 129.824 171.811 130.71 171.592 131.569L171.187 132.837C171.068 133.264 170.91 133.679 170.713 134.077C169.244 137.283 167.058 140.108 164.325 142.337C161.656 144.576 158.661 146.394 155.443 147.729C155.427 147.736 155.41 147.741 155.394 147.746C146.921 150.007 138.394 152.014 129.778 153.627C125.469 154.421 121.136 155.117 116.762 155.49C114.575 155.692 112.378 155.761 110.183 155.699C109.634 155.683 109.085 155.65 108.538 155.581C107.989 155.532 107.444 155.449 106.904 155.335C105.8 155.171 104.762 154.704 103.907 153.986C103.893 153.973 103.886 153.955 103.886 153.937C103.886 153.918 103.893 153.9 103.906 153.887C103.92 153.874 103.938 153.867 103.957 153.867C103.975 153.867 103.993 153.875 104.006 153.888C104.856 154.559 105.874 154.983 106.948 155.113C107.482 155.211 108.022 155.278 108.563 155.312C109.104 155.365 109.647 155.384 110.192 155.385C112.372 155.39 114.55 155.263 116.715 155.005C121.049 154.5 125.353 153.745 129.638 152.9C138.199 151.171 146.691 149.045 155.092 146.676L155.042 146.692C158.116 145.36 160.971 143.57 163.508 141.382C166.054 139.25 168.079 136.563 169.425 133.526C169.607 133.16 169.752 132.776 169.859 132.38L170.23 131.211C170.43 130.42 170.526 129.605 170.683 128.803C170.865 127.078 171.147 125.365 171.527 123.672C171.893 121.947 172.463 120.272 173.225 118.681C173.629 117.865 174.123 117.096 174.698 116.39C175.005 116.028 175.344 115.695 175.71 115.393C176.127 115.049 176.608 114.792 177.126 114.635L176.91 114.717C177.359 114.45 177.872 114.312 178.394 114.317C178.943 114.346 179.465 114.561 179.875 114.927C180.515 115.541 181.004 116.295 181.303 117.13C181.858 118.62 182.255 120.165 182.488 121.738C182.745 123.279 182.917 124.823 183.049 126.366C183.115 127.138 183.17 127.91 183.215 128.682L183.328 129.755C183.402 130.107 183.453 130.464 183.544 130.813C184.263 133.639 186.051 136.076 188.531 137.61C189.765 138.359 191.141 138.842 192.572 139.029C193.966 139.274 195.401 139.118 196.71 138.579C197.966 137.984 198.951 136.939 199.471 135.65C200.081 134.22 200.763 132.822 201.515 131.461C201.899 130.76 202.328 130.084 202.798 129.438C203.203 128.909 203.715 128.472 204.3 128.155C204.885 127.838 205.531 127.648 206.195 127.599C206.859 127.549 207.526 127.641 208.152 127.867C208.778 128.093 209.349 128.45 209.828 128.912C210.91 130.152 211.659 131.646 212.005 133.254C212.351 134.863 212.282 136.533 211.806 138.107C210.892 141.147 209.265 143.924 207.059 146.207L207.189 145.965C207.035 147.098 206.983 148.242 207.034 149.383C207.054 149.966 207.081 150.548 207.127 151.131C207.147 151.449 207.152 151.767 207.14 152.085C207.107 152.409 207.045 152.73 206.956 153.044C206.546 154.241 205.818 155.304 204.851 156.121C203.938 156.936 202.918 157.621 201.819 158.158L201.974 157.581C202.468 158.334 202.75 159.206 202.79 160.106C202.79 160.982 202.61 161.849 202.262 162.653C201.934 163.439 201.512 164.182 201.004 164.866C200.51 165.552 199.956 166.193 199.349 166.782L199.45 166.522C199.537 167.452 199.412 168.389 199.086 169.264C198.896 169.709 198.61 170.106 198.248 170.427C197.887 170.748 197.458 170.985 196.994 171.12C196.1 171.357 195.165 171.397 194.253 171.237C193.377 171.065 192.514 170.834 191.668 170.546C188.33 169.472 184.868 168.831 181.366 168.641C177.867 168.422 174.355 168.728 170.946 169.547C167.537 170.322 164.297 171.712 161.387 173.65L161.371 173.662L161.364 173.666C152.026 179.376 142.558 184.904 132.734 189.775C122.938 194.722 112.778 198.912 102.342 202.308C99.7307 203.15 97.1007 203.933 94.4617 204.678L90.4838 205.741L88.4377 206.172C87.7587 206.337 87.0567 206.356 86.3677 206.454C83.5937 206.765 80.7888 206.66 78.0468 206.142C75.3128 205.614 72.6628 204.717 70.1708 203.476C65.1998 200.942 61.0648 197.029 58.2578 192.207C56.9058 189.805 55.8358 187.254 55.0698 184.606C54.2498 181.987 53.6328 179.309 53.2258 176.596C53.2228 176.577 53.2278 176.559 53.2388 176.544C53.2498 176.529 53.2657 176.519 53.2847 176.516C53.3027 176.515 53.3218 176.52 53.3358 176.531C53.3508 176.542 53.3608 176.559 53.3638 176.577Z" fill="black"/>
<path d="M199.635 149.649C200.929 149.253 202.182 148.732 203.375 148.094C204.557 147.502 205.6 146.669 206.438 145.647L206.445 145.638C206.473 145.601 206.508 145.57 206.547 145.547C206.587 145.523 206.631 145.508 206.677 145.501C206.722 145.495 206.769 145.497 206.813 145.509C206.858 145.52 206.901 145.541 206.938 145.568C206.973 145.596 207.005 145.631 207.029 145.67C207.052 145.71 207.067 145.754 207.073 145.8C207.08 145.845 207.077 145.892 207.065 145.936C207.054 145.981 207.034 146.023 207.006 146.06L206.987 146.084C206.013 147.095 204.833 147.888 203.529 148.409C202.274 148.948 200.97 149.363 199.635 149.649ZM154.771 133.012C155.129 134.044 155.541 135.042 155.964 136.027C156.391 137.006 156.872 137.96 157.401 138.888C157.936 139.805 158.543 140.677 159.216 141.499C159.918 142.311 160.7 143.049 161.552 143.702C160.534 143.266 159.606 142.646 158.815 141.871C158.034 141.082 157.356 140.198 156.795 139.24C155.691 137.328 155.002 135.207 154.771 133.012ZM179.324 106.529C180.004 107.779 180.645 109.039 181.315 110.289L180.904 110.449C180.354 109.149 179.824 107.849 179.324 106.529ZM196.964 139.219C196.293 138.805 195.713 138.261 195.255 137.619C194.765 137.019 194.304 136.379 193.854 135.739C193.334 134.969 192.845 134.189 192.365 133.399L192.974 133.149C193.394 133.929 193.824 134.709 194.274 135.479C194.654 136.149 195.044 136.819 195.464 137.469C195.861 138.134 196.368 138.725 196.964 139.219ZM335.053 84.9619C334.5 82.1039 333.441 79.3689 331.927 76.8839C331.287 75.6609 330.217 74.7179 328.922 74.2389C327.574 73.9019 326.166 73.8818 324.81 74.1798C323.397 74.4118 321.979 74.7939 320.508 75.0709C319.757 75.2259 318.995 75.3189 318.229 75.3509C317.389 75.4029 316.55 75.2309 315.797 74.8539C315.036 74.4489 314.412 73.8239 314.009 73.0609C313.643 72.3509 313.392 71.5858 313.266 70.7968C313.197 70.4298 313.148 70.0258 313.086 69.7398C313.005 69.4458 312.881 69.1649 312.717 68.9069C312.355 68.3239 311.927 67.7838 311.44 67.3008L311.792 66.3979C311.789 66.3949 311.786 66.3928 311.782 66.3918C311.778 66.3898 311.775 66.3899 311.771 66.3899C311.767 66.3899 311.764 66.3909 311.76 66.3929C311.757 66.3949 311.754 66.3968 311.751 66.3998C311.757 66.3998 311.795 66.3748 311.816 66.3658C311.883 66.3298 311.946 66.2878 312.005 66.2398C312.15 66.1268 312.288 66.0048 312.419 65.8748C312.696 65.6088 312.965 65.3169 313.227 65.0179C313.751 64.4199 314.26 63.7878 314.745 63.1538L315.311 63.7079C315.222 63.7589 315.128 63.8009 315.031 63.8329L314.834 63.8698C314.701 63.8948 314.595 63.8949 314.474 63.9069C314.245 63.9189 314.019 63.9229 313.798 63.9199C313.355 63.9159 312.918 63.8979 312.482 63.8708C311.61 63.8218 310.746 63.7409 309.878 63.6599C309.827 63.6559 309.779 63.6368 309.737 63.6058C309.696 63.5748 309.663 63.5328 309.644 63.4848C309.512 63.1328 309.36 62.7878 309.19 62.4529C309.02 62.1369 308.818 61.7688 308.591 61.6798C307.915 61.4208 307.128 61.2519 306.389 61.0449C305.619 60.8579 304.861 60.6259 304.117 60.3509C304.005 60.2929 303.908 60.2108 303.831 60.1098C303.755 60.0098 303.701 59.8928 303.675 59.7698C303.631 59.5508 303.63 59.3258 303.673 59.1068C303.749 58.7078 303.875 58.3188 304.048 57.9508C304.742 56.5468 305.552 55.2049 306.472 53.9369C306.908 53.3299 307.25 52.6598 307.487 51.9508C307.722 51.2818 307.782 50.5638 307.659 49.8658L307.67 49.8988C307.192 48.6378 306.857 47.3288 306.67 45.9938C306.467 44.6768 306.34 43.3499 306.292 42.0179C306.186 39.3639 306.25 36.7048 306.483 34.0588C306.496 33.9148 306.557 33.7789 306.656 33.6739C306.757 33.5679 306.888 33.4999 307.032 33.4789C307.175 33.4579 307.322 33.4868 307.448 33.5588C307.573 33.6318 307.669 33.7449 307.722 33.8799L307.733 33.9088C308.51 35.8668 309.433 37.7659 310.492 39.5879C311.534 41.4049 312.753 43.1159 314.13 44.6949C315.447 46.2559 317.08 47.5189 318.922 48.4019C320.74 49.2199 322.797 49.3278 324.691 48.7058L324.24 49.2478C324.4 48.3538 324.659 47.4798 325.011 46.6418C325.357 45.7428 325.925 44.9449 326.659 44.3209C326.875 44.1699 327.101 44.0369 327.337 43.9199C327.592 43.8319 327.854 43.7639 328.12 43.7158C328.384 43.7069 328.647 43.7178 328.909 43.7478C329.156 43.7918 329.398 43.8629 329.63 43.9589C329.861 44.0279 330.079 44.1339 330.276 44.2729L330.875 44.6429C331.227 44.9309 331.564 45.2329 331.901 45.5309C331.951 45.5749 331.989 45.6298 332.014 45.6918C332.459 46.8078 332.827 47.9528 333.115 49.1198C333.419 50.2888 333.585 51.4889 333.61 52.6959C333.655 53.3199 333.571 53.9459 333.365 54.5359C333.158 55.1249 332.833 55.6669 332.409 56.1259C331.919 56.4939 331.352 56.7468 330.75 56.8658C330.149 56.9848 329.529 56.9669 328.935 56.8148C328.926 56.8128 328.916 56.8098 328.909 56.8048C328.901 56.7998 328.894 56.7939 328.889 56.7859C328.883 56.7789 328.88 56.7698 328.878 56.7608C328.876 56.7518 328.875 56.7429 328.876 56.7339C328.88 56.7169 328.889 56.7008 328.904 56.6898C328.918 56.6798 328.935 56.6738 328.953 56.6758C329.511 56.7698 330.083 56.7438 330.63 56.5968C331.177 56.4498 331.686 56.1878 332.122 55.8268C332.464 55.3898 332.712 54.8889 332.855 54.3539C332.998 53.8189 333.033 53.2609 332.956 52.7119C332.871 51.5669 332.654 50.4348 332.308 49.3388C331.974 48.2348 331.567 47.1548 331.086 46.1068L331.199 46.2668L330.255 45.5149L329.755 45.2299C329.602 45.1229 329.431 45.0459 329.25 45.0019C328.949 44.8619 328.613 44.8108 328.284 44.8568C327.955 44.9018 327.647 45.0408 327.396 45.2568C326.846 45.7718 326.43 46.4139 326.188 47.1259C325.9 47.8749 325.696 48.6519 325.576 49.4449C325.557 49.5659 325.507 49.6798 325.43 49.7748C325.352 49.8698 325.249 49.9418 325.133 49.9828L325.125 49.9858C322.917 50.7748 320.49 50.6918 318.341 49.7538C316.284 48.8128 314.463 47.4229 313.014 45.6859C311.575 44.0249 310.32 42.2138 309.269 40.2838C308.205 38.3768 307.285 36.3928 306.518 34.3488L307.768 34.1978C307.487 36.7858 307.354 39.3868 307.367 41.9898C307.369 43.2878 307.436 44.5838 307.568 45.8748C307.684 47.1538 307.944 48.4149 308.347 49.6339L308.357 49.6609L308.358 49.6678C308.441 50.4898 308.355 51.3188 308.107 52.1068C307.858 52.8938 307.451 53.6228 306.912 54.2478C305.984 55.4698 305.167 56.7729 304.469 58.1399C304.307 58.4699 304.186 58.8198 304.11 59.1808C304.038 59.5308 304.08 59.8619 304.326 59.9799C305.038 60.2359 305.764 60.4489 306.501 60.6179C307.256 60.8179 307.99 60.9749 308.774 61.2389C309.159 61.4619 309.463 61.8018 309.641 62.2098C309.833 62.5588 310.005 62.9188 310.156 63.2878L309.922 63.1139C310.781 63.1649 311.647 63.1909 312.505 63.1999C312.935 63.2039 313.363 63.2009 313.785 63.1829C313.997 63.1759 314.207 63.1599 314.409 63.1399C314.503 63.1249 314.613 63.1178 314.691 63.0968L314.812 63.0688C314.827 63.0588 314.819 63.0589 314.831 63.0659L315.345 63.3778C315.384 63.4018 315.411 63.4398 315.422 63.4828C315.433 63.5268 315.426 63.5738 315.402 63.6118L315.397 63.6198C314.929 64.3008 314.452 64.9608 313.935 65.6098C313.678 65.9338 313.411 66.2529 313.117 66.5659C312.966 66.7289 312.807 66.8829 312.639 67.0279C312.543 67.1119 312.441 67.1878 312.331 67.2538C312.172 67.3638 311.985 67.4278 311.792 67.4388L312.146 66.5359C312.729 67.0589 313.248 67.6498 313.69 68.2958C313.931 68.6518 314.114 69.0438 314.232 69.4568C314.335 69.8858 314.377 70.2128 314.453 70.5648C314.514 71.2048 314.719 71.8229 315.052 72.3719C315.386 72.9219 315.838 73.3879 316.378 73.7379C317.635 74.2049 319.007 74.2629 320.299 73.9029C321.719 73.6659 323.149 73.3088 324.639 73.0909C326.167 72.7789 327.749 72.8568 329.24 73.3178C329.617 73.4568 329.98 73.6328 330.323 73.8448C330.653 74.0709 330.958 74.3319 331.235 74.6219C331.507 74.8999 331.752 75.2039 331.967 75.5279C332.195 75.8319 332.385 76.1588 332.581 76.4808C333.329 77.7758 333.913 79.1588 334.318 80.5988C334.745 82.0168 335.038 83.4708 335.193 84.9428C335.194 84.9528 335.192 84.9619 335.19 84.9709C335.187 84.9789 335.182 84.9878 335.177 84.9948C335.171 85.0018 335.165 85.0078 335.156 85.0118C335.148 85.0158 335.139 85.0188 335.13 85.0198C335.113 85.0208 335.094 85.0149 335.081 85.0049C335.067 84.9939 335.057 84.9789 335.053 84.9619Z" fill="black"/>
<path d="M362.994 52.1589C361.854 48.8789 353.784 39.9289 351.394 38.8589C351.394 38.8589 351.144 28.8289 347.484 26.3089C347.484 26.3089 356.314 18.8689 346.224 12.5589C346.224 12.5589 337.514 8.52887 337.264 19.4989C337.264 19.4989 316.584 17.2289 307.124 34.1289C307.124 34.1289 313.134 52.8289 324.904 49.3489C324.904 49.3489 326.084 40.9789 331.554 45.8989C331.554 45.8989 336.424 55.8189 330.034 57.4189C328.897 59.5269 328.57 61.9769 329.114 64.3089C330.034 68.1789 328.514 73.6089 328.514 73.6089C328.514 73.6089 324.654 87.3489 336.004 84.9489C347.354 82.5589 365.264 76.3789 368.414 63.8889C368.414 63.8889 364.124 55.4389 362.994 52.1589ZM342.934 21.3889C343.496 21.7339 344.01 22.1509 344.464 22.6289C344.969 23.0949 345.28 23.7339 345.334 24.4189C344.948 23.9409 344.481 23.5349 343.954 23.2189C343.444 22.8889 342.944 22.5589 342.414 22.2489C341.323 21.6149 340.277 20.9069 339.284 20.1289C340.578 20.2759 341.824 20.7059 342.934 21.3889ZM349.674 43.6089C348.658 45.2539 347.397 46.7349 345.934 47.9989C344.476 49.2439 342.883 50.3209 341.184 51.2089C339.505 52.1109 337.726 52.8119 335.884 53.2989C337.584 52.4689 339.204 51.5189 340.794 50.5389C342.37 49.5549 343.871 48.4549 345.284 47.2489C346.675 46.0389 347.926 44.6769 349.014 43.1889C350.052 41.6419 350.842 39.9409 351.354 38.1489C351.21 40.0719 350.636 41.9379 349.674 43.6089Z" fill="black"/>
<path d="M308.639 49.3881C309.178 48.5731 309.93 47.9201 310.812 47.5001C311.257 47.2831 311.733 47.1381 312.223 47.0671C312.717 46.9981 313.221 47.0591 313.684 47.2441C312.79 47.4161 311.926 47.7141 311.117 48.1301C310.304 48.5181 309.522 48.9761 308.639 49.3881ZM311.792 53.0882C312.064 53.0782 312.323 52.9631 312.512 52.7671C312.701 52.5711 312.807 52.3091 312.807 52.0371C312.807 51.7641 312.701 51.5021 312.512 51.3061C312.323 51.1101 312.064 50.9951 311.792 50.9861C311.52 50.9951 311.261 51.1101 311.072 51.3061C310.883 51.5021 310.777 51.7641 310.777 52.0371C310.777 52.3091 310.883 52.5711 311.072 52.7671C311.261 52.9631 311.52 53.0782 311.792 53.0882ZM368.418 63.8561C373.244 64.1711 377.987 65.2641 382.463 67.0941C386.965 68.8661 391.237 71.1722 395.188 73.9632C403.013 79.6692 409.633 86.8662 414.668 95.1392L416.538 98.2311L418.275 101.399C418.883 102.441 419.391 103.533 419.928 104.612C420.443 105.7 421.032 106.755 421.488 107.871C422.454 110.077 423.437 112.279 424.259 114.545C425.165 116.78 425.911 119.072 426.672 121.359C427.074 122.497 427.407 123.655 427.735 124.814L428.736 128.29C429.342 130.624 429.883 132.979 430.438 135.327L432.717 149.592C432.732 149.683 432.71 149.777 432.658 149.854C432.606 149.931 432.526 149.985 432.435 150.005L422.154 152.261L411.857 154.447L401.56 156.633L391.251 158.763C391.242 158.765 391.233 158.763 391.225 158.758C391.217 158.753 391.212 158.745 391.21 158.736C391.208 158.727 391.21 158.718 391.215 158.71C391.219 158.702 391.227 158.697 391.236 158.695L401.483 156.284L411.743 153.93L422.003 151.577L432.278 149.292L431.996 149.706L429.772 135.451C429.239 133.114 428.711 130.775 428.137 128.446L427.194 124.97C426.886 123.809 426.572 122.65 426.19 121.511C423.484 112.276 419.526 103.454 414.428 95.2911C411.827 91.2541 408.881 87.4492 405.625 83.9202C402.357 80.4102 398.744 77.2382 394.842 74.4502C390.959 71.6332 386.752 69.2921 382.31 67.4791C380.088 66.5771 377.811 65.8161 375.492 65.2011C373.178 64.5571 370.809 64.1301 368.416 63.9261C368.407 63.9261 368.398 63.9231 368.391 63.9161C368.385 63.9101 368.381 63.9011 368.381 63.8921C368.382 63.8821 368.386 63.8731 368.392 63.8671C368.399 63.8601 368.408 63.8571 368.418 63.8561Z" fill="black"/>
<path d="M428.589 150.481C429.203 151.997 429.694 153.56 430.057 155.155C430.45 156.742 430.713 158.359 430.843 159.99C430.227 158.475 429.737 156.911 429.375 155.316C428.984 153.728 428.721 152.111 428.589 150.481ZM365.516 92.645C366.389 90.664 367.477 88.784 368.758 87.039C370.035 85.275 371.507 83.662 373.147 82.23C374.808 80.798 376.706 79.667 378.755 78.886C379.79 78.531 380.859 78.286 381.946 78.156C383.028 78.063 384.117 78.101 385.19 78.268C383.053 78.194 380.925 78.576 378.948 79.389C376.997 80.22 375.191 81.359 373.601 82.763C371.979 84.146 370.5 85.687 369.184 87.364C367.843 89.039 366.618 90.804 365.516 92.645ZM403.098 88.105C404.302 89.006 405.39 90.052 406.335 91.221C407.297 92.386 408.128 93.654 408.813 95C409.51 96.345 410.025 97.777 410.345 99.258C410.676 100.729 410.784 102.241 410.665 103.743C410.526 103.002 410.527 102.259 410.334 101.539L410.125 100.454L409.823 99.392C409.409 97.985 408.862 96.62 408.189 95.317C407.521 94.007 406.759 92.747 405.909 91.548C405.048 90.34 404.109 89.19 403.098 88.105ZM363.562 100.242C362.525 102.778 361.47 105.305 360.371 107.812C359.265 110.315 358.205 112.84 357.056 115.324L353.661 122.799C352.513 125.282 351.342 127.756 350.125 130.208L349.945 129.526L358.676 136.066C361.592 138.238 364.566 140.329 367.55 142.405C370.525 144.493 373.551 146.511 376.561 148.551C379.582 150.575 382.569 152.647 385.562 154.712L384.717 154.801C387.362 151.742 389.842 148.546 392.147 145.224C394.465 141.91 396.677 138.519 398.662 134.999C400.658 131.485 402.398 127.831 403.867 124.067C405.292 120.274 406.28 116.331 406.811 112.315C406.812 112.305 406.815 112.297 406.819 112.288C406.823 112.28 406.829 112.273 406.836 112.267C406.843 112.261 406.852 112.257 406.86 112.254C406.869 112.251 406.878 112.25 406.888 112.251C406.905 112.253 406.921 112.262 406.933 112.275C406.945 112.288 406.951 112.305 406.951 112.323C406.766 116.422 406.027 120.477 404.755 124.378C403.433 128.265 401.8 132.039 399.872 135.664C397.924 139.271 395.75 142.752 393.363 146.087C390.978 149.423 388.407 152.622 385.663 155.67C385.557 155.785 385.413 155.858 385.257 155.875C385.102 155.891 384.945 155.85 384.818 155.759C381.883 153.614 378.943 151.475 376.036 149.29C373.119 147.119 370.217 144.927 367.266 142.805C364.323 140.671 361.369 138.553 358.358 136.514L349.307 130.424C349.203 130.354 349.127 130.25 349.092 130.13C349.057 130.01 349.066 129.882 349.116 129.768L349.127 129.742C350.221 127.233 351.363 124.746 352.526 122.27L356.068 114.863C357.231 112.386 358.483 109.951 359.689 107.494C360.903 105.04 362.159 102.607 363.435 100.183C363.443 100.167 363.457 100.155 363.474 100.149C363.491 100.143 363.51 100.144 363.526 100.152C363.543 100.159 363.555 100.173 363.562 100.19C363.569 100.206 363.568 100.225 363.562 100.242ZM321.424 74.303C320.456 79.803 319.426 85.292 318.333 90.768C317.23 96.242 316.112 101.714 314.839 107.155C314.196 109.871 313.513 112.592 312.666 115.258L310.104 123.233C309.235 125.882 308.544 128.586 308.036 131.327C307.786 132.693 307.658 134.078 307.654 135.467C307.67 136.841 307.935 138.202 308.436 139.482L308.083 139.486C309.395 136.702 311.236 134.2 313.503 132.119C315.751 130.012 318.37 128.339 321.227 127.185C321.937 126.892 322.682 126.691 323.408 126.44C323.776 126.328 324.135 126.183 324.509 126.1L325.638 125.868C326.393 125.73 327.139 125.522 327.902 125.443L330.196 125.242C330.96 125.167 331.728 125.153 332.494 125.202L334.793 125.265C336.316 125.411 337.83 125.651 339.348 125.841L338.936 126.267C337.879 121.267 337.053 116.23 336.327 111.176C335.537 106.13 335.123 101.032 335.088 95.924C335.088 95.92 335.088 95.915 335.09 95.911C335.092 95.907 335.095 95.903 335.098 95.9C335.101 95.896 335.105 95.894 335.109 95.892C335.114 95.89 335.118 95.89 335.123 95.89C335.132 95.89 335.141 95.894 335.147 95.9C335.154 95.907 335.157 95.915 335.158 95.924C335.212 98.473 335.468 101.009 335.753 103.538C336.03 106.069 336.404 108.59 336.801 111.105C337.199 113.62 337.65 116.127 338.127 118.629C338.614 121.128 339.109 123.629 339.633 126.116C339.642 126.162 339.643 126.21 339.634 126.256C339.626 126.302 339.608 126.346 339.582 126.385C339.557 126.424 339.524 126.458 339.485 126.485C339.446 126.511 339.403 126.53 339.357 126.54C339.319 126.548 339.28 126.549 339.242 126.545L339.221 126.542C337.727 126.362 336.237 126.13 334.741 125.991L332.488 125.937C331.739 125.891 330.987 125.907 330.24 125.984L327.997 126.167C327.251 126.236 326.524 126.435 325.786 126.562L324.683 126.778C324.316 126.856 323.967 126.996 323.608 127.101C322.899 127.34 322.17 127.529 321.476 127.808C318.684 128.92 316.111 130.516 313.877 132.525C311.621 134.521 309.774 136.934 308.437 139.633L308.43 139.649C308.414 139.682 308.389 139.709 308.357 139.728C308.326 139.747 308.29 139.756 308.253 139.755C308.217 139.754 308.182 139.742 308.152 139.721C308.122 139.7 308.098 139.671 308.085 139.637C307.59 138.303 307.341 136.891 307.352 135.468C307.389 134.064 307.536 132.665 307.793 131.285C308.338 128.541 309.032 125.83 309.872 123.162C310.684 120.489 311.533 117.829 312.292 115.146C313.074 112.47 313.679 109.754 314.273 107.026L321.355 74.29C321.357 74.28 321.362 74.272 321.37 74.267C321.377 74.262 321.387 74.26 321.396 74.262C321.405 74.264 321.413 74.269 321.418 74.277C321.424 74.284 321.425 74.294 321.424 74.303Z" fill="black"/>
<path d="M309.285 137.635C309.536 138.722 309.838 139.783 310.155 140.832C310.467 141.875 310.855 142.894 311.314 143.881C311.747 144.866 312.315 145.785 313.002 146.613C313.706 147.442 314.585 148.106 315.575 148.556C314.449 148.344 313.414 147.797 312.604 146.987C311.795 146.177 311.143 145.224 310.68 144.177C310.206 143.152 309.853 142.075 309.628 140.969C309.388 139.874 309.273 138.756 309.285 137.635ZM339.285 126.192C340.78 126.904 342.216 127.735 343.58 128.676C344.961 129.591 346.266 130.616 347.482 131.74C345.986 131.029 344.55 130.198 343.187 129.256C341.807 128.34 340.502 127.315 339.285 126.192ZM259.665 169.743C260.15 169.237 260.71 168.809 261.326 168.474C261.957 168.098 262.704 167.967 263.425 168.106C264.148 168.333 264.753 168.834 265.11 169.503C265.28 169.824 265.433 170.156 265.572 170.491L265.893 171.52C265.921 171.609 265.912 171.705 265.869 171.788C265.826 171.87 265.751 171.932 265.662 171.96C265.574 171.988 265.477 171.979 265.395 171.936C265.313 171.892 265.251 171.818 265.223 171.729L265.215 171.701L265.207 171.665L264.989 170.682C264.888 170.369 264.774 170.055 264.647 169.753C264.396 169.16 263.922 168.69 263.327 168.443C262.684 168.269 261.999 168.336 261.401 168.633C260.769 168.911 260.183 169.286 259.665 169.743ZM251.65 170.71C252.744 169.324 253.763 167.88 254.7 166.384C255.17 165.636 255.6 164.863 255.986 164.068C256.398 163.283 256.675 162.435 256.806 161.558C256.732 162.449 256.509 163.321 256.146 164.138C255.81 164.965 255.428 165.773 255.004 166.558C254.157 168.132 253.224 169.658 252.21 171.13C252.184 171.168 252.151 171.2 252.112 171.225C252.074 171.251 252.031 171.268 251.985 171.276C251.94 171.285 251.894 171.284 251.849 171.275C251.804 171.265 251.761 171.247 251.723 171.221C251.685 171.195 251.652 171.162 251.627 171.123C251.602 171.085 251.585 171.041 251.576 170.996C251.568 170.951 251.568 170.904 251.578 170.859C251.587 170.814 251.606 170.772 251.632 170.734L251.645 170.716L251.65 170.71ZM250.124 168.008L256.806 156.789L250.735 168.35C250.692 168.432 250.617 168.493 250.529 168.521C250.44 168.548 250.344 168.539 250.262 168.496C250.18 168.453 250.118 168.379 250.091 168.291C250.063 168.202 250.072 168.106 250.114 168.024L250.124 168.008ZM253.396 158.537L257.815 152.423L253.982 158.921C253.959 158.961 253.928 158.995 253.891 159.023C253.855 159.051 253.813 159.071 253.768 159.083C253.723 159.095 253.677 159.097 253.631 159.091C253.585 159.085 253.541 159.069 253.501 159.046C253.462 159.022 253.427 158.991 253.399 158.954C253.371 158.917 253.351 158.875 253.34 158.831C253.328 158.786 253.326 158.739 253.333 158.694C253.339 158.648 253.355 158.604 253.378 158.564L253.396 158.537Z" fill="black"/>
<path d="M55.5489 185.39C46.7079 189.999 37.8069 194.486 28.9339 199.032L15.5829 205.762L2.22191 212.473L1.71892 210.3L16.6739 210.113L31.629 209.998L61.5379 209.836C81.478 209.752 101.418 209.774 121.359 210.057L151.269 210.396L166.224 210.568L181.179 210.668C201.119 210.76 221.059 210.628 240.999 210.489L300.818 209.785L330.728 209.524L360.638 209.36C400.517 209.073 440.397 209.066 480.278 209.342L479.471 212.319L455.808 198.206C447.91 193.52 440.06 188.751 432.192 184.013L408.612 169.759L385.101 155.386C385.062 155.363 385.034 155.324 385.023 155.28C385.011 155.235 385.018 155.188 385.041 155.148C385.064 155.109 385.102 155.08 385.147 155.068C385.191 155.056 385.238 155.062 385.278 155.084L409.312 168.564L433.277 182.162C441.257 186.709 449.255 191.224 457.206 195.821L481.087 209.561C481.39 209.735 481.628 210.005 481.763 210.327C481.898 210.65 481.923 211.008 481.835 211.346C481.747 211.685 481.549 211.985 481.274 212.2C480.998 212.416 480.66 212.534 480.31 212.538H480.281C440.401 212.917 400.522 212.995 360.641 212.772L330.731 212.671L300.821 212.473L241.001 211.896C221.06 211.798 201.12 211.709 181.181 211.843L166.226 211.974L151.271 212.178L121.361 212.579C101.422 212.905 81.4819 212.969 61.5419 212.926L31.6319 212.828L16.6769 212.744L1.72093 212.589H1.69493C1.43693 212.586 1.18692 212.496 0.986922 212.333C0.785922 212.17 0.646903 211.944 0.591903 211.692C0.536903 211.44 0.56793 211.176 0.68193 210.944C0.79593 210.713 0.984917 210.526 1.21892 210.416L14.7329 204.02L28.2579 197.645C37.3029 193.453 46.3189 189.202 55.3949 185.075C55.4369 185.056 55.4839 185.054 55.5269 185.069C55.5699 185.085 55.6049 185.116 55.6249 185.157C55.6449 185.199 55.6489 185.246 55.6339 185.289C55.6199 185.333 55.5889 185.369 55.5489 185.39Z" fill="black"/>
<path d="M1.71973 222.29L61.5397 221.779L121.36 221.485L241 221.241L360.64 221.482L420.46 221.776L480.28 222.29L420.46 222.804L360.64 223.099L241 223.34L121.36 223.095L61.5397 222.801L1.71973 222.29Z" fill="black"/>
<path d="M350.239 130.41C346.674 135.994 342.305 141.02 337.271 145.326C332.279 149.771 326.476 153.211 320.181 155.458C317.011 156.542 313.733 157.275 310.404 157.646C308.739 157.821 307.067 157.91 305.393 157.911L302.905 157.833L300.436 157.841L280.687 157.918C280.589 157.918 280.492 157.898 280.402 157.859C275.072 155.53 269.735 153.204 264.383 150.938C263.058 150.386 261.675 149.786 260.396 149.315L260.181 149.24C260.147 149.244 260.164 149.262 260.154 149.247C260.049 149.269 259.949 149.304 259.854 149.352C259.576 149.487 259.316 149.654 259.078 149.85C258.547 150.274 258.062 150.753 257.633 151.279C255.832 153.41 254.702 156.026 254.387 158.797C254.374 158.909 254.337 159.016 254.276 159.111C253.671 160.055 253.075 161.002 252.516 161.964C251.96 162.902 251.479 163.882 251.077 164.896C250.897 165.365 250.775 165.853 250.712 166.351C250.682 166.8 250.763 167.249 250.949 167.658C251.542 168.631 252.087 169.632 252.58 170.659C252.635 170.802 252.643 170.959 252.605 171.107L252.603 171.112C252.446 171.748 252.378 172.403 252.401 173.057C252.412 173.685 252.558 174.302 252.828 174.869C253.088 175.402 253.517 175.835 254.049 176.099C254.614 176.385 255.229 176.559 255.861 176.612L255.722 176.613C256.654 176.486 257.575 176.287 258.477 176.018C259.381 175.758 260.26 175.416 261.102 174.996C261.923 174.586 262.687 174.07 263.373 173.46C264.017 172.854 264.536 172.129 264.903 171.325C264.962 171.194 265.059 171.083 265.182 171.009C265.305 170.935 265.448 170.899 265.592 170.908C265.735 170.917 265.873 170.969 265.986 171.058C266.099 171.147 266.182 171.269 266.225 171.406L266.23 171.423C266.659 172.802 267.387 174.07 268.363 175.136C269.343 176.204 270.558 177.029 271.912 177.545C273.303 178.012 274.768 178.226 276.235 178.178C276.975 178.161 277.718 178.032 278.46 177.967L280.665 177.475L280.69 177.47C280.814 177.442 280.942 177.447 281.063 177.482C285.485 178.757 289.977 179.772 294.517 180.525C299.061 181.302 303.641 181.85 308.241 182.166C317.433 182.844 326.675 182.39 335.757 180.814C340.273 179.966 344.714 178.76 349.038 177.205L352.246 175.958L355.377 174.536C356.446 174.111 357.437 173.531 358.466 173.022C359.499 172.521 360.505 171.968 361.482 171.363C365.464 169.048 369.174 166.293 372.543 163.149L375.037 160.748C375.82 159.901 376.575 159.027 377.347 158.166L378.5 156.869L379.549 155.488L381.65 152.721L379.661 155.572L378.665 156.999L377.563 158.346C376.823 159.24 376.099 160.149 375.345 161.034L372.932 163.553C369.65 166.872 366.006 169.812 362.068 172.319C358.149 174.881 353.936 176.963 349.52 178.521C345.122 180.103 340.605 181.33 336.011 182.191C326.814 183.79 317.455 184.251 308.145 183.563C303.499 183.244 298.872 182.691 294.282 181.906C289.679 181.143 285.124 180.113 280.641 178.819L281.038 178.826L278.691 179.349C277.885 179.425 277.087 179.56 276.276 179.579C274.628 179.633 272.985 179.389 271.424 178.859C269.86 178.265 268.457 177.313 267.327 176.08C266.193 174.844 265.353 173.368 264.87 171.762L266.197 171.86C265.754 172.851 265.118 173.744 264.326 174.487C263.544 175.186 262.672 175.778 261.733 176.246C260.816 176.705 259.859 177.078 258.874 177.362C257.892 177.655 256.889 177.871 255.873 178.006L255.858 178.008C255.817 178.013 255.775 178.013 255.734 178.007C254.912 177.937 254.111 177.707 253.378 177.329C252.6 176.929 251.971 176.292 251.581 175.509C251.217 174.76 251.019 173.942 251 173.11C250.971 172.308 251.057 171.505 251.256 170.728L251.279 171.181C250.905 170.189 250.258 169.415 249.671 168.233C249.39 167.609 249.267 166.925 249.315 166.241C249.387 165.616 249.537 165.003 249.761 164.415C250.189 163.326 250.705 162.273 251.302 161.265C251.878 160.272 252.487 159.306 253.102 158.347L252.992 158.661C253.334 155.607 254.577 152.723 256.561 150.377C257.053 149.776 257.608 149.229 258.216 148.745C258.541 148.48 258.897 148.255 259.276 148.075C259.507 147.964 259.755 147.888 260.009 147.853C260.182 147.845 260.355 147.855 260.526 147.882L260.827 147.982C262.28 148.515 263.566 149.081 264.927 149.647C270.294 151.919 275.629 154.244 280.965 156.576L280.681 156.517L300.472 156.441L302.945 156.433L305.397 156.51C307.019 156.509 308.639 156.423 310.252 156.253C313.478 155.898 316.655 155.183 319.722 154.121C325.894 151.976 331.65 148.782 336.736 144.679C339.304 142.636 341.724 140.413 343.978 138.028C346.256 135.652 348.349 133.105 350.239 130.41ZM180.917 110.482C180.224 110.835 179.526 111.178 178.817 111.493L178.928 111.236C179.378 112.203 179.791 113.185 180.199 114.168C180.62 115.147 181.002 116.14 181.347 117.149C181.698 118.155 182.022 119.172 182.391 120.172C182.761 121.17 183.173 122.152 183.596 123.13C185.354 127.014 187.026 130.933 188.442 134.953L188.068 134.791C189.482 134.283 190.909 133.805 192.351 133.367C192.36 133.364 192.369 133.365 192.377 133.369C192.385 133.372 192.391 133.379 192.394 133.387C192.397 133.395 192.397 133.405 192.394 133.413C192.391 133.421 192.385 133.428 192.377 133.432C191.026 134.1 189.661 134.732 188.28 135.327C188.213 135.357 188.137 135.358 188.068 135.331C187.999 135.304 187.944 135.252 187.914 135.184L187.906 135.165C186.179 131.269 184.708 127.271 183.322 123.239C182.959 122.237 182.585 121.24 182.17 120.259C181.753 119.279 181.291 118.317 180.856 117.344C180.413 116.374 180.01 115.389 179.647 114.388C179.269 113.392 178.896 112.394 178.56 111.382L178.554 111.364C178.538 111.317 178.542 111.265 178.564 111.221C178.586 111.176 178.624 111.142 178.671 111.125C179.402 110.868 180.145 110.637 180.891 110.417C180.9 110.414 180.909 110.415 180.917 110.419C180.924 110.423 180.931 110.429 180.934 110.437C180.937 110.446 180.937 110.455 180.934 110.463C180.931 110.471 180.925 110.478 180.917 110.482ZM192.961 133.117C194.944 132.276 196.915 131.408 198.907 130.59L204.878 128.13C208.866 126.506 212.859 124.897 216.885 123.369L216.734 123.718L214.474 117.744L212.17 111.789C210.598 107.832 208.967 103.899 207.343 99.9628L207.638 100.09C203.555 101.78 199.464 103.449 195.364 105.096L195.349 105.103C195.287 105.127 195.219 105.131 195.155 105.112C194.897 105.056 194.656 104.938 194.454 104.769C194.248 104.586 194.1 104.347 194.027 104.082C193.965 103.842 193.945 103.594 193.969 103.347C193.987 103.111 194.035 102.878 194.11 102.653C194.12 102.621 194.136 102.591 194.157 102.564L194.164 102.555C194.558 102.055 194.776 101.438 194.786 100.801C194.783 100.492 194.717 100.188 194.592 99.9058C194.467 99.6238 194.285 99.3708 194.058 99.1618C193.553 98.7528 192.945 98.4908 192.301 98.4058C191.656 98.3208 191.001 98.4148 190.407 98.6788C189.791 98.8948 189.245 99.2748 188.828 99.7778C188.411 100.28 188.138 100.887 188.039 101.532C188.011 101.848 188.049 102.165 188.149 102.466C188.248 102.767 188.409 103.044 188.619 103.28C189.069 103.761 189.667 104.078 190.317 104.178L190.33 104.181C190.352 104.184 190.374 104.192 190.393 104.203C190.804 104.418 191.145 104.745 191.378 105.146C191.495 105.371 191.544 105.624 191.519 105.876C191.487 106.118 191.397 106.349 191.256 106.549C191.233 106.587 191.198 106.616 191.157 106.631L191.15 106.634C187.886 107.891 184.612 109.12 181.327 110.322C181.319 110.324 181.309 110.324 181.301 110.32C181.293 110.316 181.287 110.31 181.283 110.301C181.28 110.293 181.28 110.284 181.283 110.275C181.287 110.267 181.293 110.26 181.301 110.257C184.514 108.873 187.74 107.522 190.979 106.204L190.872 106.289C190.97 106.16 191.028 106.005 191.04 105.844C191.051 105.682 191.017 105.521 190.94 105.379C190.747 105.077 190.476 104.834 190.155 104.675L190.231 104.7C189.454 104.597 188.735 104.237 188.189 103.676C187.915 103.384 187.704 103.04 187.568 102.665C187.432 102.289 187.374 101.889 187.398 101.49C187.483 100.712 187.785 99.9728 188.271 99.3588C188.757 98.7448 189.407 98.2798 190.145 98.0188C190.864 97.7008 191.657 97.5898 192.436 97.6968C193.215 97.8048 193.949 98.1268 194.555 98.6278C194.856 98.9038 195.097 99.2378 195.264 99.6098C195.43 99.9818 195.519 100.385 195.525 100.792C195.524 101.597 195.249 102.376 194.745 103.003L194.799 102.905C194.685 103.221 194.658 103.562 194.721 103.892C194.758 104.028 194.833 104.151 194.938 104.246C195.043 104.341 195.174 104.403 195.313 104.426L195.104 104.441C199.216 102.826 203.338 101.234 207.47 99.6678L207.476 99.6658C207.532 99.6438 207.593 99.6458 207.648 99.6698C207.702 99.6948 207.744 99.7398 207.765 99.7948C209.284 103.773 210.797 107.753 212.368 111.71L214.779 117.624L217.234 123.52C217.261 123.584 217.262 123.657 217.235 123.722C217.208 123.787 217.157 123.839 217.092 123.866H217.091L217.083 123.869C213.106 125.518 209.096 127.085 205.08 128.638L199.047 130.943C197.037 131.714 195.006 132.434 192.987 133.182C192.978 133.185 192.969 133.185 192.961 133.181C192.952 133.177 192.946 133.17 192.942 133.162C192.939 133.153 192.939 133.144 192.943 133.135C192.946 133.127 192.953 133.12 192.961 133.116V133.117ZM440.428 187.987L400.387 164.026L434.122 158.729C434.122 158.729 442.446 168.818 440.428 187.987Z" fill="black"/>
</svg>
