<svg width="236" height="236" viewBox="0 0 236 236" fill="none" xmlns="http://www.w3.org/2000/svg">
<path d="M118 118.126V0.493896C182.97 0.493896 235.63 53.1589 235.63 118.126C235.63 142.967 227.77 167.171 213.17 187.268L118 118.126Z" fill="#AD1C3F"/>
<path d="M118.01 118.122L213.18 187.265C176 238.428 105.03 251.044 52.5 215.827L118.01 118.122Z" fill="#FDE3DF"/>
<path d="M118 118.122L52.4998 215.827C24.2298 196.879 5.5598 166.622 1.2998 132.866L118 118.122Z" fill="#E6BFCE"/>
<path d="M118 118.128L1.28976 132.871C-2.01024 106.72 3.55978 80.217 17.1298 57.614L118 118.128Z" fill="#CF9BBD"/>
<path d="M118 118.129L17.1299 57.6141C21.9499 49.5761 27.7099 42.1441 34.2999 35.4751L118 118.129Z" fill="#B977AC"/>
<path d="M118 118.126L34.2998 35.471C40.8898 28.802 48.2497 22.944 56.2197 18.021L118 118.126Z" fill="#A2539B"/>
<path d="M118 118.137L56.2197 18.0329C64.1997 13.1099 72.7298 9.15894 81.6498 6.26294L118 118.137Z" fill="#8B2F8A"/>
<path d="M118 118.122L81.6504 6.24698C87.5104 4.34298 93.5203 2.90199 99.6003 1.93799L118 118.122Z" fill="#D770A1"/>
<path d="M118 118.126L99.5996 1.94189C105.68 0.977895 111.84 0.493896 118 0.493896V118.126Z" fill="#E496B6"/>
</svg>
