<svg width="262" height="262" viewBox="0 0 262 262" fill="none" xmlns="http://www.w3.org/2000/svg">
<path d="M131.223 131.159V0.755005C203.242 0.755005 261.626 59.139 261.626 131.159C261.626 202.082 204.943 260.001 134.037 261.532L131.223 131.159Z" fill="#EA346C"/>
<path d="M131.223 131.159L134.037 261.532C103.447 262.192 73.5988 252.075 49.7158 232.951L131.223 131.159Z" fill="#FEC2D4"/>
<path d="M131.223 131.159L49.7163 232.951C43.2253 227.753 37.2463 221.947 31.8613 215.612L131.223 131.159Z" fill="#C53B65"/>
<path d="M131.222 131.159L31.8615 215.612C16.4915 197.529 6.34844 175.595 2.52344 152.173L131.222 131.159Z" fill="#FF7AA3"/>
<path d="M131.223 131.159L2.52406 152.173C1.18406 143.967 0.632068 135.651 0.875068 127.34L131.223 131.159Z" fill="#8A2A47"/>
<path d="M131.223 131.159L0.875 127.34C1.514 105.526 7.61798 84.221 18.626 65.377L131.223 131.159Z" fill="#C53B65"/>
<path d="M131.223 131.159L18.627 65.377C25.401 53.783 33.9239 43.305 43.8969 34.313L131.223 131.159Z" fill="#EA346C"/>
<path d="M131.224 131.159L43.8965 34.313C67.8525 12.711 98.9655 0.755005 131.224 0.755005V131.159Z" fill="#FF709C"/>
</svg>
