<svg fill="none" height="262" viewBox="0 0 262 262" width="262" xmlns="http://www.w3.org/2000/svg"><path d="m131.223 131.159v-130.403995c72.019 0 130.403 58.383995 130.403 130.403995 0 70.923-56.683 128.842-127.589 130.373z" fill="#ea346c"/><path d="m131.223 131.159 2.814 130.373c-30.59.66-60.4382-9.457-84.3212-28.581z" fill="#fec2d4"/><path d="m131.223 131.159-81.5067 101.792c-6.491-5.198-12.47-11.004-17.855-17.339z" fill="#c53b65"/><path d="m131.222 131.159-99.3605 84.453c-15.37-18.083-25.51306-40.017-29.33806-63.439z" fill="#ff7aa3"/><path d="m131.223 131.159-128.69894 21.014c-1.34-8.206-1.891992-16.522-1.648992-24.833z" fill="#8a2a47"/><path d="m131.223 131.159-130.348-3.819c.639-21.814 6.74298-43.119 17.751-61.963z" fill="#c53b65"/><path d="m131.223 131.159-112.596-65.782c6.774-11.594 15.2969-22.072 25.2699-31.064z" fill="#ea346c"/><path d="m131.224 131.159-87.3275-96.846c23.956-21.602 55.069-33.557995 87.3275-33.557995z" fill="#ff709c"/></svg>