<svg width="187" height="328" viewBox="0 0 187 328" fill="none" xmlns="http://www.w3.org/2000/svg">
<g clip-path="url(#clip0_8_550)">
<path d="M72.48 299H71.48V303C70.8933 303.333 70.0333 303.633 68.9 303.9C67.78 304.153 66.5667 304.28 65.26 304.28C62.7667 304.28 60.8133 303.627 59.4 302.32C57.9867 301 57.28 298.967 57.28 296.22C57.28 293.407 57.98 291.36 59.38 290.08C60.7933 288.8 62.8067 288.16 65.42 288.16C66.6867 288.16 67.8733 288.293 68.98 288.56C70.0867 288.827 70.92 289.127 71.48 289.46V294.24H66.48V293.3C66.48 292.74 66.36 292.34 66.12 292.1C65.8933 291.847 65.5267 291.72 65.02 291.72C64.5133 291.72 64.14 291.847 63.9 292.1C63.6733 292.34 63.56 292.74 63.56 293.3V299.14C63.56 299.7 63.6733 300.107 63.9 300.36C64.14 300.6 64.5133 300.72 65.02 300.72C65.5267 300.72 65.8933 300.6 66.12 300.36C66.36 300.107 66.48 299.7 66.48 299.14V299H65.4V296.02H72.48V299ZM89.0445 291.72H88.0445V300.72H89.0445V304H81.4845V300.72H82.4445V297.42H79.6445V300.72H80.6045V304H73.0445V300.72H74.0445V291.72H73.0445V288.44H80.6045V291.72H79.6445V294.76H82.4445V291.72H81.4845V288.44H89.0445V291.72ZM104.521 300.72H105.321V304H97.4814V300.72H98.6814L98.3614 299.12H95.6414L95.3214 300.72H96.5214V304H89.6814V300.72H90.4814L93.8614 288.44H101.141L104.521 300.72ZM96.0814 297H97.9214L97.1014 293.02H96.9014L96.0814 297ZM117.475 288.44H124.035V291.72H123.035V304H117.415L111.555 294.98V300.72H112.515V304H105.955V300.72H106.955V291.72H105.955V288.44H113.175L118.435 296.46V291.72H117.475V288.44ZM139.482 300.72H140.282V304H132.442V300.72H133.642L133.322 299.12H130.602L130.282 300.72H131.482V304H124.642V300.72H125.442L128.822 288.44H136.102L139.482 300.72ZM131.042 297H132.882L132.062 293.02H131.862L131.042 297Z" fill="#E55933"/>
<path d="M148.768 102.54L148.508 102.5L148.286 102.423L147.308 101.859L147.1 101.784L146.864 101.742L146.637 101.752L146.206 101.85L145.177 102.278L145.027 102.39L144.882 102.549L144.805 102.83L144.777 103.062L144.941 103.242L145.067 103.422L145.14 103.632L145.133 103.876L144.941 104.213L144.667 104.947L144.323 105.619L143.481 106.709L143.312 107.06L143.24 107.378L143.287 107.614L143.357 107.839L143.448 108.024L143.684 108.375L144.145 108.789L144.29 108.941L144.386 109.133L144.44 109.36L144.386 109.612L144.237 109.82L143.872 109.958H143.598L143.364 109.886L142.987 109.675L142.779 109.617L142.536 109.696L142.299 109.884L141.85 110.578L141.539 111.229L141.083 112.553L141.024 112.785L140.999 113.028V113.259L141.057 113.479L141.174 113.648L141.336 113.774L142.131 114.156L142.288 114.301L142.391 114.485L142.419 114.71L142.306 114.923L142.105 115.098L141.675 115.243L141.375 115.316L141.116 115.449L140.945 115.629L140.854 115.976L140.879 116.228L141.036 116.663L141.123 117.129V117.386L141.036 117.854L141.062 118.067L141.16 118.21L141.324 118.334L141.518 118.418L141.974 118.549L142.452 118.608L142.662 118.601L143.645 118.46L144.564 118.226L145.83 118.072L146.096 118.091L146.323 118.154L146.532 118.243L146.714 118.357L146.859 118.509L147.308 119.204L147.395 119.419L147.453 119.908L147.435 120.163L147.395 120.395L147.229 120.563L146.962 120.68L145.659 120.736L145.392 120.786L145.177 120.919L145.053 121.195L145.032 121.45L145.308 123.179L145.406 123.357L145.439 123.544L145.444 123.771L145.385 124.014L144.992 124.255L144.309 124.44L142.62 124.634L141.883 124.641L141.415 124.594L140.907 124.22L139.993 123.326L139.609 122.851L139.008 122.269L137.534 121.319L136.862 121.027L135.969 120.736L134.942 120.549L134.076 120.568L132.207 121.223L131.877 121.415L131.447 121.719L130.822 122.292L130.623 122.606L130.551 122.901L130.59 123.134L130.593 123.382L130.553 123.616L130.101 124.365L130.012 124.594L129.886 124.779L129.554 124.884L129.313 125.018L129.133 125.327L128.868 125.603L128.534 125.823L127.823 125.965L127.416 125.975L127.095 125.928L126.878 125.86L125.874 125.392L125.652 125.32L125.378 125.313L123.913 125.804L123.527 125.848H123.209L122.744 125.75L122.496 125.876L122.217 126.152L121.38 127.991L120.491 128.887L122.886 129.524L123.715 129.926L129.568 134.645L130.066 135.244L130.558 136.025L132.366 140.281L132.481 140.734L132.661 142.26L132.796 142.688L132.899 142.913L133.929 144.557L134.266 144.913L134.652 145.212L135.068 145.388L135.517 145.495L136.46 145.638L136.771 145.748L137.267 146.061L137.501 146.38L137.658 146.812L137.716 147.351L138.722 150.137L141.492 154.909L141.988 156.135L142.047 156.372L142.178 158.891L142.255 159.244L142.437 159.752L142.606 160.021L142.791 160.213L144.342 160.994L145.49 161.317L145.776 161.462L146.108 161.668L146.637 162.12L146.878 162.407L147.035 162.672L147.224 163.933L147.217 164.492L147.046 165.781L146.337 168.025L146.286 168.521V168.766L146.48 170.095L146.663 172.362L146.56 173.113L146.447 173.291L146.129 174.018L145.862 174.861L145.783 175.338V175.696L145.855 175.909L146.031 176.889L146.129 178.089L146.089 178.758L146.012 179.2L145.907 179.42L145.549 179.926L144.959 180.501L144.798 180.625L144.054 181.325L143.853 181.666L143.626 182.162L143.235 183.266L143.116 183.814L143.09 184.23L143.228 184.684L143.418 185.061L143.546 185.22L143.703 185.353L143.886 185.461L144.524 185.685L144.929 185.877L145.257 186.132L145.53 186.434L145.757 186.797L145.926 187.192L146.167 189.007L146.141 189.487L146.071 189.824L145.94 189.99L145.797 190.123L144.141 191.09L143.97 191.221L143.404 191.805L143.28 191.965L143.137 192.112L143.013 192.28L142.875 192.43L142.753 192.594L142.554 193.081L141.89 195.57L141.759 196.36L141.74 196.892L141.864 197.046L142.08 197.107L143.319 197.018L143.535 197.058L143.743 197.128L143.932 197.238L144.075 197.383L144.178 197.57L144.295 198.017L144.466 198.997L144.531 199.224L144.601 199.421L144.824 199.781L145.119 200.071L145.652 200.408L145.841 200.609L146.024 200.89L146.195 201.484L146.213 201.868L146.181 202.216L144.966 205.913L144.868 206.107L144.641 206.46L144.51 206.617L144.375 206.759L143.703 207.258L142.994 207.674L141.109 208.399L140.921 208.638L141.148 209.085L141.434 209.894L141.523 210.638L141.317 211.172L141.013 211.729L140.868 212.482L140.912 213.193L141.174 213.631L143.156 215.137L143.904 215.366L146.787 215.294L147.519 215.395L148.055 215.71L148.946 216.452L150.406 217.313L150.577 217.612L150.64 217.954L150.53 221.823L150.855 221.185L150.986 221.002L151.278 220.686L152.067 220.104L152.806 219.699L153.215 219.566L153.639 219.482L153.927 219.465L153.959 219.458L157.375 219.617L160.655 220.357L161.235 220.642L161.582 220.906L162.005 221.356L163.484 225.403L163.956 225.99L164.424 226.343L165.011 226.713L165.917 227.064L166.518 227.363L166.862 227.602L167.026 227.733L167.168 227.89L167.292 228.096L167.365 228.388L167.248 228.629L167.117 228.786L166.277 229.036L165.388 229.644L165.386 229.647L167.482 229.799L175.504 228.884L177.205 228.294L178.538 227.041L178.903 226.254L179.338 224.282L179.399 223.41L179.593 222.584L180.63 220.518L181.119 219.779L183.252 217.481L184.693 216.358L186.598 215.329L186.867 215.228L186.89 215.221H186.892L187 213.736L186.504 213.067L183.025 212.669L182.447 212.372L181.996 211.848L181.446 210.992L181.123 210.62L180.807 210.449L180.494 210.318L180.159 210.072L179.509 209.139L178.409 205.751L175.204 205.737L174.346 205.506L173.803 205.094L172.434 203.442L171.379 202.771L169.304 201.744L168.417 200.834L167.753 199.811L167.25 198.808L166.988 197.769L167.047 196.899L167.063 196.644L167.327 196.103L167.622 195.708L167.648 195.312L167.11 194.786L166.728 194.706L165.556 194.744L165.161 194.704L164.791 194.033L164.199 193.595L163.65 193.09L163.413 192.206L163.778 190.07L163.736 189.384L163.381 188.701L162.768 188.118L162.033 187.711L161.312 187.559L161.034 187.187L159.82 184.916L159.305 184.52L158.903 184.279L158.767 183.875L159.05 182.983L159.937 181.5L160.035 180.786L159.541 179.89L158.346 178.964L157.864 178.316L158.477 178.126L159.095 178.08L160.866 177.616L161.408 177.315L162.211 175.857L162.241 174.016L162.054 172.109L162.199 170.451L163.21 167.912L163.6 165.947L164.162 164.391L164.213 163.474L163.54 160.697L163.264 160.328L161.717 160.901L160.882 161.051L160.119 160.948L158.793 159.771L158.117 157.906L157.909 155.817L158.068 153.356L158.22 152.834L158.482 152.38L158.907 151.966L159.457 151.718L160.131 151.534L160.7 151.241L160.938 150.67L160.926 149.519L161.057 148.204L161.596 147.341L162.81 147.547L162.693 146.719L162.784 144.501L162.403 142.077L162.438 139.537L162.407 139.331L161.996 136.523L162.028 134.944L162.007 134.13L161.621 132.546L161.465 130.551L161.242 129.51L161.45 129.208L161.783 128.953L162.012 128.403L161.937 127.816L161.647 127.453L161.322 127.137L161.149 126.69L161.195 126.143L161.413 125.977L161.734 125.937L162.084 125.769L163.484 124.505L164.188 124.042L166.043 123.216L166.714 122.795L167.033 122.15L166.866 121.106L166.71 120.961L166.207 120.879L166.043 120.734L166.015 120.533L166.05 120.107L165.947 119.485L165.959 118.998L165.867 118.558L164.258 117.216L163.715 115.608L162.981 114.046L160.227 112.747L159.132 111.954L158.117 111.011L157.401 110.178L155.719 109.027L154.048 106.681L152.815 104.016L152.549 102.456H152.535H152.518L150.881 102.229L150.621 102.245L149.283 102.517L149.03 102.54H148.768Z" fill="#171619" stroke="white" stroke-width="0.5"/>
<path d="M165.385 229.646L165.388 229.644L166.277 229.036L167.117 228.786L167.248 228.629L167.365 228.388L167.292 228.095L167.168 227.89L167.025 227.733L166.862 227.602L166.518 227.363L165.916 227.064L165.011 226.713L164.424 226.343L163.956 225.99L163.483 225.403L162.005 221.355L161.581 220.906L161.235 220.642L160.655 220.356L157.375 219.617L153.959 219.458L153.927 219.465L153.639 219.481L153.215 219.566L152.806 219.699L152.067 220.104L151.278 220.686L150.986 221.002L150.855 221.185L150.53 221.823L148.71 223.896L148.066 224.502L147.512 224.846L147.275 224.925L146.943 224.949L146.681 224.909L146.454 224.82L146.286 224.698L145.848 224.282L145.582 223.978L145.027 223.119L144.896 222.946L144.714 222.768L143.56 222.272L143.378 222.165L143.039 221.919L142.739 221.641L142.496 221.311L141.937 220.139L141.78 219.959L141.513 219.788L140.971 219.736H140.388L139.894 219.835L139.588 219.926L138.072 220.953L137.574 221.196L137.248 221.299L137.103 221.316L136.961 221.257L136.675 220.92L136.467 220.759L136.198 220.614L135.742 220.45L135.496 220.499L135.337 220.653L134.649 223.119L134.483 223.37L134.165 223.629L132.396 224.35L132.172 224.495L132.01 224.691L131.545 225.669L131.093 227.3L130.691 228.123L130.583 228.297L130.457 228.46L130.242 228.673L129.94 228.912L129.35 229.265L128.964 229.37L128.641 229.394L128.199 229.244L127.841 229.027L127.682 228.893L127.537 228.746L127.317 228.589L127.041 228.465L126.557 228.395L126.286 228.46L126.061 228.575L125.263 229.537L125.015 229.726L124.66 229.946L123.941 230.295L123.532 230.433L123.19 230.512L122.14 230.472L121.717 230.409L120.954 230.114L120.755 230.021L120.107 229.785L119.721 229.569L119.576 229.42L119.494 229.23V228.502L119.23 228.339L118.759 228.283L116.946 228.421L116.523 228.498L116.163 228.617L116.06 228.673L115.95 228.755L115.884 228.888L115.837 229.019L115.657 229.946L115.653 230.309L115.671 230.54L115.704 230.725L115.8 231.046L117.36 234.129L117.983 235.069L118.345 235.357L118.762 235.551L118.989 235.622L119.646 235.963L120.226 236.375L120.493 236.651L120.682 236.894L121.347 238.389L121.986 240.64H121.988L122.248 240.511L124.15 240.272L133.166 237.348L133.833 237.287L134.202 237.156L134.448 236.96L134.995 236.41L135.192 236.293L138.533 235.165L139.211 234.473L139.677 233.71L140.264 233.088L141.899 232.618L143.055 231.537L143.698 231.102L146.51 230.339L147.308 229.768L147.661 229.644L148.677 229.6L148.887 229.478L149.1 229.232L149.61 229.029L150.612 228.795L152.418 228.699L165.385 229.646Z" fill="#171619" stroke="white" stroke-width="0.5"/>
<path d="M49.2439 272.765L50.3669 272.721L50.933 272.492L53.8293 272.122L54.4235 271.881L55.0552 271.278L56.0705 269.829L56.742 269.235L59.9634 267.789L62.848 266.966L63.2411 266.933L63.6107 266.861L63.6318 266.662L63.5569 266.381L63.6505 266.072L64.8623 264.732L65.3747 264.341L68.2522 262.916L68.4254 262.759L68.6897 262.458L68.7856 262.123L68.4932 261.489L68.5587 261.148L69.0781 260.733L69.794 260.556L70.5332 260.609L71.1368 260.888L71.1673 260.869L71.1649 260.86L70.8046 258.123L70.821 257.673L70.9871 256.644L71.1251 256.171L71.3076 255.741L72.1311 254.209L72.3931 253.893L72.5522 253.764L72.7254 253.643L72.9078 253.544L73.095 253.469L73.5138 253.348L73.729 253.315L74.3092 253.324L74.5408 253.301L74.763 253.252L74.9479 253.182L75.1233 253.079L75.2941 252.962L75.4438 252.819L75.9609 252.178L77.2172 251.2L77.3505 251.055L77.3692 250.823L77.2406 250.503L76.8078 250.005L76.5317 249.743L74.8332 248.657L73.46 247.412L72.9219 246.785L72.7768 246.542L72.6435 246.226L72.351 245.293L72.2013 244.982L72.0188 244.741L71.6656 244.399L71.4059 244.224L71.1439 244.088L70.7204 243.922L70.3765 243.667L70.2268 243.517L69.553 242.703L69.2816 241.964L69.1553 241.468L69.1366 241.222L69.1553 240.969L69.2419 240.481L69.3729 240.031L69.4711 239.84L69.6045 239.687L69.7893 239.592L69.9835 239.533L70.1636 239.428L70.2876 239.273L70.4982 238.932L70.5496 238.759L70.5286 238.569L70.4818 238.368L70.0817 237.755L69.5483 237.182L68.9868 236.693L68.2312 236.265L67.8311 236.089L67.382 235.944L66.8673 235.858L65.8566 235.839L65.611 235.792L65.3934 235.715L65.1945 235.612L64.7103 235.219L64.5184 235.114L64.3009 235.025L64.0412 234.987L63.7862 234.976L63.3019 235.03L62.8714 235.146L61.4724 235.703L61.2478 235.734L61.0139 235.717L60.8103 235.497L60.6396 235.128L60.4945 234.279L60.4805 233.834L60.5202 233.453L60.7869 232.774L61.0162 231.869L61.07 231.406L61.0373 230.561L61.0653 230.311L61.1379 230.089L61.2431 229.908L61.3741 229.745L61.6643 229.45L61.7812 229.293L61.7976 229.073L61.7064 228.821L61.3975 228.58L60.8595 228.336L60.6934 228.161L60.5928 227.899L60.5553 227.445L60.6091 226.799L60.7799 226.039L60.8057 225.789L60.7121 225.412L60.4968 224.974L59.926 224.184L59.6102 223.828L59.3435 223.596L59.1306 223.512L58.148 223.274L57.9328 223.178L57.7409 223.07L56.9853 222.483L56.8449 222.345L56.7279 222.211L54.8236 219.453L54.0305 218.627L53.8597 218.513L53.6983 218.382L53.0596 218.047L51.7378 217.493L51.5577 217.394L51.4103 217.28L51.2559 217.088L50.802 215.956L50.664 215.698L50.2429 215.247L49.8919 215.015L49.031 214.723L48.8041 214.674L48.4672 214.559L47.7817 214.236L46.5465 213.408L46.385 213.24L46.0669 212.711L45.9499 212.376L45.8844 212.105L45.8306 211.56L45.8563 211.029L45.9335 210.523L45.9967 210.301L46.1979 210.051L46.5254 209.786L47.239 209.4L48.383 208.94L48.9 208.572L49.5855 207.938L49.8849 207.519L50.0978 206.89L49.1222 206.932L48.7994 206.885L48.5397 206.771L48.28 206.476L48.1514 206.228L48.0578 205.987L47.873 205.309L47.7887 205.103L47.4565 204.579L47.3068 204.436L47.1337 204.314L46.9301 204.223L43.849 203.507L43.47 203.32L43.3624 203.131L43.311 202.913L43.2993 202.656L43.3577 202.134L44.1602 199.748V199.518L44.1391 199.299L44.1087 199.158L44.0549 198.99L43.9356 198.84L43.7344 198.711L43.4022 198.657L43.07 198.709L42.1693 199.018H41.8488L41.5868 198.957L40.293 198.159L39.8859 197.977L39.6731 197.914L39.4251 197.902L39.1935 198.012L38.9689 198.215L38.7419 198.702L38.6343 199.039L38.2085 201.991L38.0916 202.454L37.9348 202.894L37.7336 203.318L37.6003 203.524L37.0575 204.05L36.8984 204.16L36.5194 204.345L36.2972 204.41L36.0328 204.436L35.7334 204.434L35.359 204.389L35.1298 204.24L35.0292 204.134L35.1578 203.124L34.8303 203.112L34.4513 202.92L33.9015 202.52L33.4336 202.258L33.2207 202.19L32.9728 202.143L31.817 202.085L31.5831 202.04L31.3468 201.942L31.1503 201.76L29.2857 197.787L29.1103 197.591L28.8553 197.406L28.3663 197.188L27.5264 196.943L27.3206 196.858L27.117 196.73L26.9182 196.536L26.6959 196.234L26.5228 195.787L26.3426 194.938L26.1789 194.706L25.9122 194.486L25.3601 194.217L24.9694 194.119L24.6161 194.074L23.0276 194.205L22.4848 194.201L22.0216 194.081L21.8298 193.983L20.1874 192.722L19.7944 192.533L18.6574 192.226L18.4515 192.119L18.2831 191.988L18.1521 191.775L18.1731 191.478L18.131 191.124L18.0281 190.715L17.745 190.039L17.6397 189.611L17.5953 189.25L17.6257 188.993L17.6865 188.764L18.0281 187.957L18.0726 187.734L18.0632 187.498L17.9322 187.054L17.848 186.855L17.7848 186.633L17.745 186.401L17.7263 185.65L17.6561 185.379L17.0057 183.933L16.7975 183.039L15.7986 181.186L15.3283 180.65L14.7084 180.103L13.4333 179.396L12.8017 179.137L12.3408 179.032L11.8869 179.125L10.2961 179.778L10.0785 179.832L9.84223 179.841L9.31818 179.79L9.05382 179.687L8.8035 179.544L8.48299 179.291L8.29349 179.095L8.1461 178.908L7.70394 178.112L7.41852 177.251L6.98337 175.033L6.9436 174.891L6.42658 175.213L1.57915 183.551L0.874969 185.182L0.816482 186.712L0.998962 187.14L1.52535 187.819L2.0915 188.916L2.18976 189.197L1.36392 191.52L1.13699 191.796L0.362621 192.224L0.0584872 192.668L0 193.38L3.3174 208.315L3.81571 208.921L3.93736 209.071L5.17495 210.203L6.06863 212.561L7.34366 219.608L7.95426 221.119L9.57085 224.085L10.0832 225.615L10.1908 227.141L9.7814 231.96L12.5092 231.726L12.0858 234.365L12.3127 235.458L13.3047 236.012L14.1282 235.909L15.4944 235.081L16.1776 234.807L19.1721 235.582L19.7102 236.019L20.0401 236.571L20.1991 237.254L20.2974 239.465L21.0437 242.485L22.1901 245.178L22.3702 245.936L22.2626 246.673L21.8461 247.204L21.2893 247.307L19.8716 247.047L19.5979 249.658L19.7172 250.243L20.3021 251.088L20.4892 251.574L20.4682 251.935L20.2904 252.817L20.3231 253.203L20.4565 253.348L21.011 253.823L21.2402 254.094L20.8378 254.887L20.2366 255.315L19.2727 255.456L17.6 255.39H17.5976L16.6899 255.804L15.1809 256.045L14.0135 256.534L14.1258 257.692L13.6673 257.83L12.8064 258.193L12.2519 258.27L12.0273 258.111L11.5126 257.367L11.2623 257.119L10.3546 256.852L7.34833 256.831L6.87108 256.904L6.48038 257.058L6.18795 257.133L6.00547 257.828L6.67222 257.98L12.5022 259.77L18.5568 260.834L24.0382 261.251L30.9561 263.604L38.0658 265.071L42.429 266.779L42.6606 267.036L42.8454 267.359L42.9179 267.668L43.0887 268.042L43.4934 268.285L44.3801 268.662L46.1698 270.094L46.5628 270.508L46.5184 270.702L46.991 270.749L47.6273 270.943L47.9665 270.992L48.5116 271.144L48.6099 271.526L48.5654 271.998L48.6848 272.431L48.9889 272.709L49.2439 272.765Z" fill="#171619" stroke="white" stroke-width="0.5"/>
<path d="M141.382 170.451L141.031 170.385L140.535 170.186L139.614 169.709L139.19 169.545L138.722 169.428L128.101 169.014L125.687 169.447L124.931 169.716L124.608 169.969L124.316 170.256L123.485 171.307L123.218 171.576L122.701 172.004L122.198 172.308L120.109 173.01L119.639 173.216L119.323 173.403L119.035 173.698L118.902 173.908L118.441 174.421L118.044 174.54L112.429 174.645L111.79 174.779L111.317 175.188L103.766 185.772L103.419 186.069L103.15 186.237L102.935 186.31L99.9031 186.736L98.9837 187.077L97.9637 187.564L97.5356 187.868L97.2642 188.135L97.1004 188.551L96.9858 189.01L96.9624 189.26L96.9764 189.508L97.0232 189.737L97.1028 189.941L97.3156 190.301L97.573 190.629L97.8678 190.919L98.8504 191.679L98.9977 191.817L99.1334 191.976L99.3604 192.322L99.5475 192.708L99.6575 193.158L99.6692 193.38L99.6551 193.525L99.5054 193.799L99.2364 194.138L98.0573 195.312L97.821 195.652L97.7204 195.841L97.5192 196.119L92.0705 201.769L90.2691 204.607L89.6304 206.299L89.1415 208.144L89.0456 208.72L88.9356 209.045L88.704 209.518L88.5192 209.773L88.346 209.969L88.0209 210.222L87.0804 210.76L86.9962 210.931L87.0617 211.064L87.1903 211.219L87.3003 211.392L87.3752 211.605L87.4009 211.846V212.105L87.3214 212.625L87.2208 212.957L86.7458 213.764L86.6429 213.996L86.6733 214.183L86.7388 214.353L86.7107 214.763L86.809 214.899L86.9915 214.952L87.1693 215.074L87.2769 215.245L87.2629 215.507L87.1061 215.652L86.5868 215.799L86.444 215.965L86.3739 216.202L86.3294 216.452L86.037 217.383L85.9177 217.652L85.5597 218.249L85.2415 219.126L85.2018 219.418V219.454L85.148 219.683L84.8906 220.237L84.8345 220.434L84.8485 220.612L84.9327 220.74L85.0848 220.745L85.2626 220.712L85.4685 220.724L85.6182 220.822L85.7492 220.974L85.7656 221.545L85.0029 223.047L86.3809 223.779L87.6138 224.24L87.8126 224.416L87.9273 224.607L89.2374 227.455L89.8503 228.51L90.0726 228.753L90.1755 228.83L90.4422 228.9L90.8236 228.935L94.4498 228.884L94.7516 228.917L95.1399 228.999L95.7669 229.207L96.0921 229.385L96.5038 229.686L96.7776 229.778L97.1566 229.81L98.1976 229.684L98.7123 229.569L99.1872 229.509L100.008 229.591L104.093 230.482L104.308 230.571L104.793 230.692L105.691 230.699L112.787 230.129L113.912 230.309L115.8 231.046L115.704 230.725L115.671 230.54L115.653 230.309L115.657 229.946L115.837 229.02L115.884 228.889L115.95 228.755L116.06 228.673L116.163 228.617L116.523 228.498L116.946 228.421L118.759 228.283L119.23 228.339L119.494 228.503V229.23L119.576 229.42L119.721 229.569L120.107 229.785L120.755 230.021L120.954 230.115L121.717 230.409L122.14 230.473L123.19 230.512L123.532 230.433L123.941 230.295L124.66 229.946L125.015 229.726L125.263 229.537L126.061 228.575L126.286 228.461L126.557 228.395L127.041 228.465L127.317 228.589L127.537 228.746L127.682 228.893L127.841 229.027L128.199 229.244L128.641 229.394L128.964 229.371L129.35 229.265L129.94 228.912L130.242 228.673L130.457 228.461L130.583 228.297L130.691 228.124L131.093 227.3L131.545 225.67L132.01 224.692L132.172 224.495L132.396 224.35L134.165 223.63L134.483 223.37L134.649 223.12L135.337 220.654L135.496 220.499L135.742 220.45L136.198 220.614L136.467 220.759L136.675 220.92L136.961 221.257L137.103 221.316L137.248 221.299L137.574 221.196L138.072 220.953L139.588 219.926L139.894 219.835L140.388 219.737H140.971L141.513 219.788L141.78 219.959L141.937 220.139L142.496 221.311L142.739 221.641L143.039 221.919L143.378 222.165L143.56 222.273L144.714 222.769L144.896 222.946L145.027 223.12L145.582 223.978L145.848 224.282L146.286 224.699L146.454 224.82L146.681 224.909L146.943 224.949L147.275 224.926L147.512 224.846L148.066 224.502L148.71 223.896L150.53 221.823L150.64 217.954L150.576 217.612L150.406 217.313L148.946 216.452L148.054 215.71L147.519 215.395L146.786 215.294L143.904 215.366L143.156 215.137L141.174 213.631L140.912 213.193L140.868 212.482L141.013 211.729L141.317 211.172L141.523 210.638L141.434 209.894L141.148 209.085L140.921 208.638L141.109 208.399L142.994 207.674L143.703 207.258L144.374 206.759L144.51 206.617L144.641 206.46L144.868 206.107L144.966 205.913L146.181 202.216L146.213 201.868L146.195 201.484L146.024 200.89L145.841 200.609L145.652 200.408L145.118 200.071L144.824 199.781L144.601 199.42L144.531 199.224L144.466 198.997L144.295 198.017L144.178 197.57L144.075 197.383L143.932 197.238L143.743 197.128L143.535 197.058L143.319 197.018L142.079 197.107L141.864 197.046L141.74 196.892L141.759 196.36L141.89 195.57L142.554 193.08L142.753 192.594L142.875 192.43L143.013 192.28L143.137 192.112L143.28 191.965L143.404 191.805L143.97 191.221L144.141 191.09L145.797 190.123L145.94 189.99L146.071 189.824L146.141 189.487L146.167 189.007L145.926 187.192L145.757 186.797L145.53 186.434L145.256 186.132L144.929 185.877L144.524 185.685L143.886 185.461L143.703 185.353L143.546 185.22L143.418 185.061L143.228 184.684L143.09 184.23L143.116 183.814L143.235 183.266L143.626 182.162L143.853 181.666L144.054 181.325L144.798 180.625L144.959 180.501L145.549 179.926L145.907 179.42L146.012 179.2L146.089 178.758L146.129 178.089L146.031 176.889L145.855 175.909L145.783 175.696V175.338L145.862 174.861L146.129 174.018L146.447 173.291L146.56 173.113L146.662 172.362L146.48 170.095L144.505 169.395L144.225 169.379L143.925 169.405L143.28 169.681L142.522 170.137L141.909 170.39L141.675 170.444L141.382 170.451Z" fill="#171619" stroke="white" stroke-width="0.5"/>
<path d="M52.9169 214.812L52.6993 214.557L52.5075 214.052L51.8875 210.774L51.9764 210.505L52.1004 210.29L52.2431 210.143L52.3273 209.953L52.3671 209.71L52.3016 209.097L52.318 208.825L52.3858 208.596L52.5753 208.198L52.6361 207.993L52.6595 207.773L52.6291 207.578L52.5426 207.281L52.0396 206.982L50.0978 206.891L49.8849 207.52L49.5854 207.939L48.9 208.573L48.3829 208.94L47.2389 209.401L46.5254 209.787L46.1979 210.051L45.9967 210.302L45.9335 210.524L45.8563 211.029L45.8306 211.56L45.8844 212.105L45.9499 212.377L46.0669 212.711L46.385 213.24L46.5464 213.408L47.7817 214.237L48.4672 214.559L48.8041 214.674L49.031 214.723L49.8919 215.016L50.2428 215.247L50.6639 215.699L50.802 215.956L51.2558 217.088L51.4102 217.28L51.5576 217.395L51.7378 217.493L53.0596 218.048L53.6983 218.382L53.8597 218.513L54.0305 218.628L54.8236 219.454L56.7279 222.212L56.8449 222.345L56.9852 222.483L57.7409 223.071L57.9327 223.178L58.148 223.274L59.1306 223.513L59.3435 223.597L59.6102 223.829L59.926 224.184L60.4968 224.975L60.7121 225.412L60.8056 225.789L60.7799 226.039L60.6091 226.8L60.5553 227.445L60.5927 227.899L60.6933 228.161L60.8594 228.337L61.3975 228.58L61.7063 228.821L61.7976 229.074L61.7812 229.294L61.6642 229.45L61.3741 229.745L61.2431 229.909L61.1378 230.089L61.0653 230.311L61.0372 230.562L61.07 231.406L61.0162 231.869L60.7869 232.775L60.5202 233.453L60.4804 233.835L60.4945 234.279L60.6395 235.128L60.8103 235.498L61.0139 235.718L61.2478 235.734L61.4724 235.704L62.8714 235.147L63.3019 235.03L63.7861 234.976L64.0411 234.988L64.3008 235.025L64.5184 235.114L64.7102 235.219L65.1945 235.613L65.3934 235.715L65.6109 235.793L65.8566 235.839L66.8672 235.858L67.3819 235.945L67.8311 236.09L68.2312 236.265L68.9868 236.693L69.5483 237.182L70.0817 237.755L70.4818 238.368L70.5285 238.57L70.5496 238.759L70.4981 238.932L70.2876 239.274L70.1636 239.428L69.9835 239.534L69.7893 239.592L69.6044 239.688L69.4711 239.84L69.3728 240.032L69.2418 240.481L69.1553 240.97L69.1365 241.223L69.1553 241.468L69.2816 241.964L69.553 242.704L70.2268 243.518L70.3765 243.667L70.7204 243.922L71.1438 244.088L71.4059 244.224L71.6655 244.4L72.0188 244.741L72.2013 244.982L72.351 245.293L72.6434 246.227L72.7768 246.543L72.9218 246.786L73.4599 247.413L74.8332 248.658L76.5317 249.743L76.8077 250.005L77.2405 250.503L77.3692 250.824L77.3505 251.055L77.2171 251.201L75.9608 252.178L75.4438 252.819L75.2941 252.962L75.1233 253.079L74.9478 253.182L74.763 253.252L74.5408 253.301L74.3092 253.325L73.729 253.315L73.5137 253.348L73.095 253.47L72.9078 253.545L72.7253 253.643L72.5522 253.765L72.3931 253.893L72.1311 254.209L71.3076 255.741L71.1251 256.172L70.9871 256.645L70.821 257.674L70.8046 258.123L71.1649 260.86L71.1672 260.87V260.867L71.8784 260.357L72.8259 259.999L75.7503 259.583L77.2733 258.837L78.0523 258.584L78.4781 258.563L79.3461 258.617L79.7719 258.584L80.2281 258.399L81.2013 257.819L81.6528 257.693L84.3877 257.611L85.2486 257.433L86.912 256.68L87.7706 256.174L88.1449 255.809L88.5894 255.189L92.9736 253.299L93.645 253.119L94.3375 253.058L94.8546 252.63L95.1891 252.536L95.3412 252.918L95.5541 253.294L96.0524 253.315L97.063 253.058L98.1018 252.986L98.4995 252.848L98.7849 252.485L99.4002 253.032L100.364 253.074L103.49 252.618L104.121 252.221L105.12 251.041L107.574 249.025L108.112 248.824L110.286 247.298L110.634 247.897L111.332 247.673L112.012 247.156L112.321 246.851L112.824 246.847L115.763 246.119L117.269 245.193L117.835 244.606L118.055 243.955L118.383 243.48L121.471 240.89L121.986 240.64L121.347 238.389L120.683 236.895L120.493 236.651L120.226 236.375L119.646 235.963L118.989 235.622L118.762 235.552L118.345 235.358L117.983 235.07L117.36 234.129L115.8 231.046L113.912 230.309L112.787 230.129L105.691 230.7L104.793 230.693L104.308 230.571L104.093 230.482L100.008 229.591L99.1873 229.509L98.7124 229.57L98.1977 229.684L97.1566 229.811L96.7776 229.778L96.5039 229.687L96.0921 229.385L95.767 229.207L95.14 228.999L94.7516 228.917L94.4498 228.884L90.8236 228.936L90.4423 228.901L90.1756 228.83L90.0726 228.753L89.8504 228.51L89.2374 227.455L87.9273 224.608L87.8127 224.416L87.6138 224.24L86.3809 223.779L85.003 223.047L84.9538 223.262L84.9 223.34L84.8088 223.433L84.521 223.63L84.4532 223.831L84.4134 224.037L84.3596 224.184L84.2496 224.165L84.121 224.027L83.9923 223.957L83.7724 224.006L83.4285 224.252L83.232 224.341L83.0144 224.411L82.7898 224.413L82.6097 224.381L82.4927 224.165L82.4061 223.953L82.3406 223.714L82.2494 223.522L82.0809 223.419L81.7979 223.457L81.5639 223.515L81.3253 223.506L81.1007 223.417L80.82 223.204L79.8608 222.951L79.5215 222.956L79.2782 223.021L79.1379 223.162L78.9484 223.244L78.7355 223.286L78.4945 223.295L77.6967 223.443L77.5517 223.602L77.4347 223.768L77.306 223.892L76.9364 223.953L76.7656 224.023L76.5738 224.084L76.1059 224.072L75.6988 224.161L75.6169 224.299L75.6427 224.47L75.7082 224.643L75.7269 224.844L75.4883 225.41L75.376 225.571L75.1982 225.649L74.9946 225.63L74.618 225.499L74.2343 225.321L73.5629 224.926L73.4014 224.652L73.3874 224.444L73.5558 224.341L73.7524 224.315L73.9208 224.266L74.0027 224.133L74.0003 223.938L73.9021 223.716L73.729 223.482L73.3991 223.159L73.1511 223.007L72.4727 222.883L72.0726 222.75L71.8433 222.778L71.6328 222.827L71.4059 222.848L70.9543 222.834L70.5636 222.951L70.3227 222.956L69.9858 222.832L69.4641 222.804L69.0172 222.886L68.0697 222.951L67.6042 223.045L67.3164 223.038L67.1035 223.115L66.8322 223.131L66.4508 223.045L65.8168 222.713L65.4612 222.572L65.1805 222.408L64.9793 222.076L64.7734 221.873L63.6271 221.409L63.1662 221.388L62.5766 221.264L62.4292 221.133L62.3052 220.883L62.1602 220.726L61.2525 220.268L61.056 220.099L60.9858 219.795L60.9811 219.582L60.9928 219.435L61.0443 219.192L61.1051 219.002L61.1121 218.799L61.0279 218.609L60.4571 218.349L60.0172 218.307L59.8184 218.333L59.664 218.413L59.4113 218.665L59.2546 218.764L59.058 218.836L58.7773 218.838L58.4357 218.782L57.9023 218.523L57.6286 218.534L57.4461 218.635L57.3432 218.81L57.2169 218.951L57.018 218.96L56.7536 218.883L56.3723 218.537L55.6892 217.669L55.5348 217.514L55.3687 217.458L55.1862 217.465L54.9265 217.243L54.6645 216.796L54.0679 215.133L53.8644 214.77L53.5953 214.665L53.3801 214.681L53.0502 214.8L52.9169 214.812Z" fill="#171619" stroke="white" stroke-width="0.5"/>
<path d="M31.1129 103.955L29.4214 102.109L28.5324 101.632L28.2072 101.567L28.0809 101.499L27.9592 101.316L27.7066 101.45L27.9054 102.117L29.8402 114.02L31.7726 125.916L31.4848 126.564L29.5969 127.68L29.0237 127.874L28.5394 127.823L28.006 127.57L27.6598 127.549L27.3907 127.802L27.096 128.368L26.9182 129.037L27.0211 129.573L27.5756 130.796L27.8469 131.812L27.8095 132.551L27.3931 133.101L26.5275 133.543L24.0195 134.385L23.2475 134.937L21.3291 137.157L20.6437 137.738L20.5852 137.6L20.3723 137.359L20.0915 137.174L19.8272 137.204L19.7055 137.515L19.523 140.683L19.385 141.151L19.0505 141.514L18.1147 142.08L17.7544 142.424L17.7193 142.636L17.8409 143.186L17.8316 143.416L17.6678 143.694L17.2467 144.209L17.0829 144.487L14.0486 151.012L13.4872 152.729L11.4307 165.718L11.4705 166.214L11.7349 166.806L12.0156 167.154L12.2028 167.498L12.1724 168.076L11.8004 168.9L9.87264 171.319L9.65975 171.744L9.31351 173.862L9.10061 174.161L7.01847 174.842L6.97168 174.872L6.9436 174.891L6.98337 175.034L7.41852 177.252L7.70394 178.112L8.1461 178.908L8.29349 179.095L8.48299 179.292L8.8035 179.544L9.05382 179.687L9.31818 179.79L9.84223 179.841L10.0785 179.832L10.2961 179.778L11.8869 179.125L12.3408 179.032L12.8017 179.137L13.4333 179.397L14.7084 180.103L15.3283 180.651L15.7986 181.187L16.7975 183.039L17.0057 183.933L17.6561 185.379L17.7263 185.65L17.745 186.401L17.7848 186.633L17.848 186.855L17.9322 187.054L18.0632 187.498L18.0726 187.735L18.0281 187.957L17.6865 188.764L17.6257 188.993L17.5953 189.251L17.6397 189.611L17.745 190.039L18.0281 190.715L18.131 191.125L18.1731 191.478L18.1521 191.775L18.2831 191.988L18.4515 192.119L18.6574 192.227L19.7944 192.533L20.1874 192.723L21.8298 193.984L22.0216 194.082L22.4848 194.201L23.0276 194.206L24.6161 194.075L24.9694 194.119L25.3601 194.217L25.9122 194.487L26.1789 194.706L26.3426 194.938L26.5228 195.787L26.6959 196.234L26.9182 196.536L27.117 196.73L27.3206 196.859L27.5264 196.943L28.3663 197.189L28.8553 197.406L29.1103 197.591L29.2857 197.788L31.1503 201.76L31.3468 201.942L31.5831 202.041L31.817 202.085L32.9728 202.144L33.2207 202.19L33.4336 202.258L33.9015 202.52L34.4513 202.92L34.8303 203.112L35.1578 203.124L35.2304 202.715V202.518L35.1672 202.3L35.0268 202.16L34.5893 202.008L34.4232 201.891L34.332 201.727L34.339 201.514L34.4256 201.33L34.6572 201.039L34.6619 200.862L34.5028 200.555L34.5168 200.384L34.842 199.881L34.9754 199.437L35.0783 199.222L35.228 199.037L35.4573 198.843L35.6655 198.384L35.7825 198.183L35.9486 198.012L36.1825 197.83L36.4563 197.453L36.606 197.31L36.7721 197.186L36.8984 197.025L37.0598 196.608L37.1932 196.426L37.1792 196.234L37.1183 196.04L36.9148 195.68L36.8774 195.476L36.9218 195.273L37.0177 195.092L37.247 194.76L37.2798 194.573L37.2072 194.4L37.0809 194.25L36.5381 193.918L36.3954 193.775L36.3229 193.569L36.2644 192.821L36.1779 192.624L36.0211 192.496L35.6304 192.341L35.5064 192.192L35.4667 191.962L35.4877 191.717L35.6328 191.003L35.6561 190.764L35.7006 190.57L35.8199 190.449L36.1474 190.479L37.1909 190.722L37.7453 190.774L38.1407 190.715L38.6109 190.596L39.4742 190.259L39.8859 190.049L40.1643 189.868L40.3071 189.716L40.431 189.562L40.6393 189.148L40.8077 188.68L40.8639 188.439L41.1703 185.98L41.3037 185.533L41.3973 185.341L41.5259 185.164L41.6663 185.016L41.8698 184.869L42.1155 184.726L42.4945 184.567L42.7331 184.434L42.8898 184.286L42.932 184.099L42.8711 183.917L42.7565 183.739L42.5998 183.585L42.429 183.468L42.2184 183.367L41.7341 183.234L40.9106 183.138L38.784 183.084L37.2821 183.512L37.0318 183.535L36.8048 183.519L36.5826 183.423L36.5896 183.28L36.6364 183.089L36.7159 182.869L36.8493 182.712L37.0224 182.602L37.4154 182.422L37.5979 182.317L38.0799 181.923L38.2226 181.774L38.4635 181.435L38.7747 181.168L38.908 181.013L38.9969 180.812L39.1022 180.625L39.2285 180.471L39.3385 180.305L39.3876 180.11L39.3619 179.439L39.4157 179.235L39.5958 178.868L39.6426 178.672L39.7432 178.498L39.7526 178.021L39.8158 177.818L39.9164 177.638L42.5693 174.718L43.084 174.372L43.3554 174.287L43.6923 174.266L44.2959 174.365L44.586 174.514L44.7778 174.697L44.8574 174.903L44.9743 175.335L45.0586 175.541L45.1825 175.703L45.599 175.759L50.7201 175.469L51.5319 175.181L52.6829 174.524L53.8246 173.688L54.3955 173.064L55.3804 171.735L55.8342 171.281L56.1243 171.15L56.5454 171.04L57.4345 170.94L57.8836 170.844L58.2158 170.743L58.3773 170.614L58.4942 170.444L58.7937 169.592L58.8311 169.374L58.7258 168.701L58.7586 168.469L58.8381 168.261L59.1633 167.699L59.2054 167.498L59.2031 167.351L59.0838 167.267L57.018 166.747L56.5969 166.593L56.2483 166.35L55.1394 165.145L53.5509 163.828L53.3848 163.743L53.193 163.729L53.0409 163.743L51.4758 164.057L51.2348 164.064L51.0149 164.005L50.8324 163.909L50.6686 163.769L49.7329 162.674L49.5644 162.553L49.3515 162.468L49.1152 162.422H48.6052L48.1022 162.471L47.6016 162.405L47.3863 162.335L47.2109 162.253L47.1033 162.171L47.0729 162.033L47.0869 161.825L47.1337 161.593L47.2998 161.186L47.3606 160.976V160.239L47.4004 159.995L47.4589 159.787L47.7209 159.488L47.8238 159.305L47.9525 158.847L48.0344 158.639L48.1373 158.447L48.2052 158.222L48.2496 157.969L48.3128 157.75L48.6356 157.621L49.1854 157.626L51.167 157.937L51.7869 157.864L52.0373 157.74L52.3882 157.464L52.6759 157.401L53.71 157.422L54.0562 157.366L54.3744 157.345L54.6177 157.389L55.0856 157.668L55.3757 157.759L55.7734 157.799L57.3432 157.743L57.5818 157.693L58.01 157.537L58.9341 157.307L59.2148 157.293L59.4979 157.34L59.8441 157.539L60.0032 157.766L60.0851 158.028L60.188 159.888L60.2886 160.367L60.3705 160.564L60.4875 160.735L60.8641 160.931L61.5379 161.146L62.4644 161.668L62.9603 162.071L63.3534 162.538L63.5007 162.681L63.7113 162.796L63.9757 162.838L64.3851 162.763L64.6635 162.684L65.5338 162.349L65.7584 162.293L66.0157 162.276L66.3081 162.309L66.9538 162.611L67.2907 162.705L67.6791 162.733L68.3716 162.648L68.7061 162.517L68.9494 162.363L69.2372 162.059L69.8899 160.978L70.3297 160.541L70.69 160.323L70.9052 160.248L71.2094 160.213L72.1849 160.197L72.5967 160.119L73.0576 159.958L73.1933 159.719L73.2471 159.462L73.2166 159.207L72.978 158.288L72.6552 157.464L72.5967 157.247L72.5943 157.027L72.6528 156.863L72.709 156.762L72.8236 156.631L74.0635 155.728L75.7597 154.715L76.0825 154.456L76.5949 153.8L77.9681 151.601L78.2582 151.293L78.415 151.159L78.7776 150.953L78.9905 150.867L79.2034 150.804L79.435 150.769L79.7368 150.815L80.1158 150.946L80.717 151.316L81.0048 151.564L81.206 151.789L81.4002 152.165L81.7043 153.007L81.7792 153.454L81.8681 155.511L81.9663 155.92L82.1231 156.315L82.2213 156.503L82.4623 156.844L82.6869 157.109L82.9138 157.3L83.2414 157.415L83.7139 157.537L84.6965 157.665L85.6042 157.691L86.5354 157.548L87.3472 157.553L87.5858 157.504L87.8197 157.424L88.0139 157.34L88.2291 157.272L88.6854 157.207L88.9146 157.139L89.1813 157.087L89.5697 157.069L90.2013 156.933L90.6763 156.9L91.4576 156.701L91.6261 156.58L91.7431 156.409L91.8998 155.972L92.0004 155.777L92.1267 155.618L92.4262 155.335L92.9526 154.982L93.0836 154.83L93.3152 154.479L93.4415 154.329L93.7082 154.245L94.0802 154.247L95.2827 154.418L95.4933 154.505L95.8652 154.891L96.0735 155.001L96.401 154.998L96.9133 154.893L97.1286 154.884L97.3368 154.952L97.6596 155.366L97.8468 155.529L98.062 155.623L98.4597 155.618L99.0165 155.557L99.4961 155.586L99.702 155.557L99.9944 155.309L100.2 155.209L100.486 155.171L100.855 155.181L101.131 155.153L101.4 155.192L101.843 155.455L102.217 155.616L102.795 155.763L103.106 155.798L103.326 155.885L103.389 156.046L103.513 156.198L103.688 156.264L103.939 156.184L104.11 156.044L104.252 155.869L104.451 155.473L104.561 155.354L104.725 155.319L104.987 155.536L105.293 155.586L105.53 155.55L106.152 154.991L106.524 154.785L107.383 154.491L107.574 154.392L107.736 154.273L108.073 154.334L108.562 154.615L109.579 155.473L110.312 156.234L111.275 157.806L112.026 159.633L112.457 160.353L112.728 160.655L112.993 160.838L113.358 161.025L114.642 161.427L119.026 162.204L124.952 164.387L125.179 164.492L125.413 164.637L126.232 165.687L128.101 169.014L138.722 169.428L139.19 169.545L139.614 169.709L140.535 170.186L141.031 170.385L141.382 170.451L141.675 170.444L141.909 170.39L142.522 170.137L143.28 169.681L143.925 169.405L144.225 169.379L144.506 169.396L146.48 170.095L146.286 168.766V168.521L146.337 168.025L147.046 165.781L147.217 164.492L147.224 163.933L147.035 162.672L146.878 162.407L146.637 162.12L146.108 161.668L145.776 161.462L145.49 161.317L144.342 160.994L142.791 160.213L142.606 160.021L142.437 159.752L142.255 159.244L142.178 158.891L142.047 156.372L141.988 156.135L141.492 154.909L138.722 150.137L137.716 147.351L137.658 146.812L137.501 146.38L137.267 146.061L136.771 145.748L136.46 145.638L135.517 145.495L135.068 145.388L134.652 145.212L134.266 144.913L133.929 144.557L132.899 142.913L132.796 142.688L132.661 142.26L132.481 140.734L132.366 140.281L130.558 136.025L130.066 135.244L129.568 134.645L123.715 129.926L122.886 129.524L120.491 128.887L120.044 129.037L119.288 129.081L117.571 128.817L116.794 128.546L114.459 127.179L110.108 123.644L109.984 123.478L109.844 123.324L109.715 123.158L109.572 123.01L109.088 122.348L108.398 121.616L108.075 121.361L107.879 121.268L107.647 121.195L107.376 121.148L106.428 121.211L105.49 121.392L105.066 121.417L104.533 121.385L103.724 121.251L103.2 121.221L102.961 121.244L102.774 121.277L102.64 121.326L102.514 121.399L102.374 121.504L102.1 121.803L101.574 122.503L101.295 122.802L100.991 123.076L100.811 123.181L100.617 123.273L100.006 123.467L99.6037 123.651L99.2224 123.874L98.8691 124.159L98.7452 124.295L98.6258 124.459L98.5206 124.636L97.8538 126.407L97.6503 126.784L97.3812 127.105L96.7613 127.678L96.4244 127.914L96.2255 128.001L94.8827 128.326L94.499 128.48L94.3118 128.592L94.1551 128.731L94.0287 128.92L93.9305 129.107L93.8509 129.327L93.8018 129.568L93.7691 129.835V130.108L93.8509 130.574L94.0264 130.951L94.4732 131.669L94.6347 132.046L94.6932 132.261L94.7376 132.488L94.7516 133.512L94.7142 133.781L94.6487 134.029L94.52 134.233L94.3375 134.385L94.134 134.483L93.9632 134.593L93.8322 134.694L93.755 134.787L93.3947 135.496L93.1421 135.833L92.9292 136.196L92.7912 136.303L92.5853 136.261L92.2694 136.034L91.9864 135.875L91.5536 135.756L91.2518 135.583L91.0155 135.197L86.54 122.627L86.0979 121.866L85.5247 121.116L84.3737 120.358L83.9432 119.955L83.7233 119.653L83.7794 119.436L83.873 119.237L83.9853 119.059L84.2497 118.72L84.5421 118.43L84.7082 118.306L85.01 118.025L85.1363 117.88L85.2674 117.705L85.3633 117.515L85.4358 117.286L85.4732 117.033L85.5013 115.639L85.5458 115.391L85.6113 115.169L85.8125 114.775L86.0604 114.446L88.2128 112.497L88.4608 112.197L88.8982 111.376L89.0503 110.946L89.0877 110.707V110.476L89.0667 110.272L88.9006 109.591L88.2853 108.171L88.0818 107.233L87.8548 106.587L87.6326 106.426L87.277 106.323H86.3856L85.7446 106.267L84.8462 106.084L84.121 105.85L83.7654 105.663L81.6716 104.25L81.0539 103.733L80.6726 103.317L80.5112 103.186L80.2187 102.896L80.0526 102.767L79.6643 102.58L79.1847 102.453L78.6653 102.423L76.4077 102.51L75.3807 102.655L74.6975 103.099L74.5455 103.242L74.4098 103.403L74.2998 103.588L74.2086 103.794L74.1454 104.014L73.9045 105.261L73.8085 105.464L73.6728 105.619L73.5044 105.747L73.1394 105.956L72.3347 106.307L71.8551 106.414L70.8257 106.519L70.3999 106.501L67.9083 106.009L67.5785 106.012L67.0568 106.161L66.7643 106.297L66.5444 106.461L66.4274 106.629L66.3292 106.826L66.1912 107.263L66.0859 107.467L65.9572 107.626L65.6601 107.879L65.122 108.017L63.8891 108.569L60.7589 107.565L59.0464 108.309L58.4989 109.03L58.1433 109.858L57.9562 110.747L57.9 111.657L58.017 114.209L57.9 115.007L57.7199 115.501L57.4929 115.915L56.9081 116.614L56.6975 117.017L56.7771 117.391L56.9619 117.737L57.0648 118.065L57.1467 118.844L57.3783 119.569L57.7316 120.161L58.1854 120.542L59.781 120.811L61.3905 120.678L62.6983 120.984L63.4001 122.571L63.4282 123.336L63.2832 124.087L62.8621 124.662L62.0713 124.891L61.1659 124.69L59.4909 123.862L58.4732 123.757L57.6006 124.18L56.9104 124.971L56.391 125.734L56.0331 126.075L55.3429 127.236L55.0739 127.507L54.8984 127.624L50.8932 128.447L49.0661 128.48L47.5454 128.106L46.8179 127.409L45.7323 125.579L44.4456 124.905L43.2618 123.425L42.6676 122.863L42.0266 122.503L41.4698 122.093L41.0721 121.527L40.7399 118.863L40.3468 117.354L39.8392 116.42L39.7737 116.034L39.5935 115.679L38.8051 115.421L38.625 115.15L38.3629 114.518L37.8529 113.886L37.5137 113.194L37.764 112.396L37.006 110.915L36.9054 110.483L36.6762 110.122L35.6725 109.507L35.4433 109.046L35.0853 108.078L33.5085 106.854L32.2873 104.536L31.7141 103.955L31.541 103.888L31.3211 103.873L31.148 103.902L31.1129 103.955Z" fill="#171619" stroke="white" stroke-width="0.5"/>
<path d="M85.6043 157.691L84.6965 157.665L83.714 157.537L83.2414 157.415L82.9139 157.3L82.6869 157.109L82.4623 156.844L82.2214 156.503L82.1231 156.315L81.9664 155.92L81.8681 155.511L81.7792 153.454L81.7043 153.007L81.4002 152.165L81.206 151.789L81.0048 151.564L80.7171 151.316L80.1158 150.946L79.7368 150.815L79.435 150.769L79.2034 150.804L78.9905 150.867L78.7776 150.953L78.415 151.159L78.2583 151.293L77.9682 151.601L76.5949 153.801L76.0825 154.456L75.7597 154.715L74.0636 155.728L72.8236 156.631L72.709 156.762L72.6529 156.863L72.5944 157.027L72.5967 157.247L72.6552 157.464L72.978 158.288L73.2167 159.207L73.2471 159.462L73.1933 159.719L73.0576 159.958L72.5967 160.119L72.185 160.197L71.2094 160.213L70.9053 160.248L70.69 160.323L70.3297 160.541L69.8899 160.978L69.2372 162.059L68.9494 162.363L68.7061 162.517L68.3716 162.648L67.6791 162.733L67.2908 162.705L66.9539 162.611L66.3082 162.309L66.0157 162.277L65.7584 162.293L65.5338 162.349L64.6635 162.684L64.3851 162.763L63.9757 162.838L63.7113 162.796L63.5008 162.681L63.3534 162.539L62.9604 162.071L62.4644 161.668L61.5379 161.147L60.8642 160.931L60.4875 160.735L60.3705 160.564L60.2887 160.367L60.1881 159.888L60.0851 158.028L60.0032 157.766L59.8442 157.539L59.4979 157.34L59.2148 157.293L58.9341 157.307L58.01 157.537L57.5819 157.693L57.3432 157.743L55.7734 157.799L55.3757 157.759L55.0856 157.668L54.6177 157.389L54.3744 157.345L54.0563 157.366L53.71 157.422L52.676 157.401L52.3882 157.464L52.0373 157.74L51.787 157.864L51.167 157.937L49.1854 157.626L48.6357 157.621L48.3128 157.75L48.2497 157.969L48.2052 158.222L48.1374 158.447L48.0344 158.639L47.9525 158.847L47.8239 159.305L47.7209 159.488L47.4589 159.787L47.4004 159.995L47.3606 160.239V160.976L47.2998 161.186L47.1337 161.593L47.0869 161.825L47.0729 162.033L47.1033 162.171L47.2109 162.253L47.3864 162.335L47.6016 162.405L48.1023 162.471L48.6053 162.422H49.1153L49.3515 162.468L49.5644 162.553L49.7329 162.674L50.6687 163.769L50.8324 163.909L51.0149 164.005L51.2348 164.064L51.4758 164.057L53.0409 163.743L53.193 163.729L53.3848 163.743L53.5509 163.828L55.1394 165.145L56.2484 166.35L56.5969 166.593L57.0181 166.747L59.0838 167.267L59.2031 167.351L59.2055 167.498L59.1634 167.699L58.8382 168.261L58.7586 168.469L58.7259 168.701L58.8312 169.375L58.7937 169.592L58.4943 170.444L58.3773 170.614L58.2159 170.743L57.8837 170.844L57.4345 170.94L56.5455 171.04L56.1244 171.15L55.8343 171.281L55.3804 171.735L54.3955 173.064L53.8247 173.689L52.683 174.524L51.532 175.181L50.7202 175.469L45.599 175.759L45.1826 175.703L45.0586 175.541L44.9744 175.336L44.8574 174.903L44.7779 174.697L44.586 174.514L44.2959 174.365L43.6923 174.266L43.3554 174.287L43.0841 174.372L42.5694 174.718L39.9164 177.638L39.8158 177.818L39.7526 178.021L39.7433 178.499L39.6427 178.672L39.5959 178.868L39.4157 179.235L39.3619 179.439L39.3877 180.11L39.3385 180.305L39.2286 180.471L39.1022 180.625L38.997 180.812L38.9081 181.013L38.7747 181.168L38.4636 181.435L38.2226 181.774L38.0799 181.924L37.598 182.317L37.4155 182.422L37.0224 182.602L36.8493 182.712L36.716 182.869L36.6364 183.089L36.5896 183.28L36.5826 183.423L36.8049 183.519L37.0318 183.535L37.2821 183.512L38.7841 183.084L40.9107 183.138L41.7342 183.234L42.2184 183.367L42.429 183.468L42.5998 183.585L42.7565 183.739L42.8712 183.917L42.932 184.099L42.8899 184.286L42.7331 184.434L42.4945 184.567L42.1155 184.726L41.8699 184.869L41.6663 185.016L41.526 185.164L41.3973 185.342L41.3037 185.533L41.1704 185.98L40.8639 188.439L40.8077 188.68L40.6393 189.148L40.4311 189.562L40.3071 189.716L40.1644 189.868L39.886 190.049L39.4742 190.259L38.611 190.596L38.1407 190.715L37.7453 190.774L37.1909 190.722L36.1475 190.479L35.8199 190.449L35.7006 190.57L35.6562 190.764L35.6328 191.003L35.4877 191.717L35.4667 191.962L35.5065 192.192L35.6304 192.341L36.0211 192.496L36.1779 192.624L36.2645 192.821L36.3229 193.57L36.3955 193.775L36.5382 193.918L37.0809 194.25L37.2073 194.4L37.2798 194.573L37.247 194.76L37.0178 195.093L36.9218 195.273L36.8774 195.476L36.9148 195.68L37.1184 196.04L37.1792 196.234L37.1932 196.426L37.0599 196.609L36.8985 197.025L36.7721 197.186L36.606 197.31L36.4563 197.453L36.1826 197.83L35.9486 198.012L35.7825 198.183L35.6655 198.384L35.4573 198.843L35.2281 199.037L35.0783 199.222L34.9754 199.437L34.842 199.881L34.5169 200.384L34.5028 200.555L34.6619 200.862L34.6572 201.039L34.4256 201.33L34.339 201.514L34.332 201.727L34.4233 201.891L34.5894 202.008L35.0269 202.16L35.1672 202.3L35.2304 202.518V202.715L35.1579 203.124L35.0292 204.135L35.1298 204.24L35.3591 204.39L35.7334 204.434L36.0328 204.436L36.2972 204.411L36.5195 204.345L36.8985 204.16L37.0575 204.05L37.6003 203.524L37.7337 203.318L37.9348 202.895L38.0916 202.455L38.2086 201.992L38.6344 199.039L38.742 198.702L38.9689 198.216L39.1935 198.012L39.4251 197.902L39.6731 197.914L39.886 197.977L40.2931 198.16L41.5868 198.957L41.8488 199.018H42.1693L43.07 198.709L43.4022 198.658L43.7344 198.712L43.9356 198.84L44.0549 198.99L44.1088 199.159L44.1392 199.299L44.1602 199.519V199.748L43.3578 202.134L43.2993 202.656L43.311 202.913L43.3625 203.131L43.4701 203.32L43.8491 203.508L46.9302 204.224L47.1337 204.315L47.3068 204.436L47.4566 204.579L47.7888 205.103L47.873 205.309L48.0578 205.988L48.1514 206.228L48.2801 206.476L48.5397 206.771L48.7994 206.886L49.1223 206.933L50.0978 206.891L52.0396 206.982L52.5426 207.281L52.6292 207.578L52.6596 207.773L52.6362 207.992L52.5754 208.198L52.3859 208.596L52.318 208.825L52.3016 209.097L52.3672 209.71L52.3274 209.953L52.2432 210.142L52.1004 210.29L51.9765 210.505L51.8876 210.774L52.5075 214.052L52.6994 214.557L52.9169 214.812L53.0503 214.8L53.3801 214.681L53.5954 214.665L53.8644 214.77L54.068 215.133L54.6645 216.796L54.9266 217.243L55.1862 217.465L55.3687 217.458L55.5348 217.514L55.6892 217.669L56.3724 218.537L56.7537 218.883L57.0181 218.96L57.2169 218.951L57.3432 218.81L57.4462 218.635L57.6287 218.534L57.9024 218.522L58.4358 218.782L58.7774 218.838L59.0581 218.836L59.2546 218.763L59.4114 218.665L59.664 218.413L59.8184 218.333L60.0173 218.307L60.4571 218.349L61.0279 218.609L61.1122 218.799L61.1051 219.002L61.0443 219.192L60.9928 219.435L60.9811 219.582L60.9858 219.795L61.056 220.099L61.2525 220.268L62.1603 220.726L62.3053 220.883L62.4293 221.133L62.5767 221.264L63.1662 221.388L63.6271 221.409L64.7735 221.873L64.9793 222.076L65.1805 222.408L65.4613 222.572L65.8169 222.713L66.4509 223.045L66.8322 223.131L67.1036 223.115L67.3165 223.038L67.6042 223.045L68.0698 222.951L69.0173 222.886L69.4641 222.804L69.9858 222.832L70.3227 222.956L70.5637 222.951L70.9544 222.834L71.4059 222.848L71.6328 222.827L71.8434 222.778L72.0727 222.75L72.4727 222.883L73.1512 223.007L73.3992 223.159L73.729 223.482L73.9021 223.716L74.0004 223.938L74.0027 224.133L73.9209 224.266L73.7524 224.315L73.5559 224.341L73.3875 224.444L73.4015 224.652L73.5629 224.926L74.2344 225.321L74.618 225.499L74.9947 225.63L75.1982 225.649L75.376 225.571L75.4883 225.41L75.7269 224.844L75.7082 224.643L75.6427 224.469L75.617 224.299L75.6989 224.161L76.1059 224.072L76.5738 224.083L76.7657 224.023L76.9365 223.952L77.3061 223.892L77.4348 223.768L77.5517 223.602L77.6968 223.442L78.4946 223.295L78.7355 223.286L78.9484 223.244L79.1379 223.162L79.2783 223.021L79.5216 222.956L79.8608 222.951L80.82 223.204L81.1008 223.417L81.3253 223.506L81.564 223.515L81.7979 223.456L82.081 223.419L82.2494 223.522L82.3407 223.714L82.4062 223.952L82.4928 224.165L82.6097 224.381L82.7899 224.413L83.0145 224.411L83.232 224.341L83.4285 224.252L83.7725 224.006L83.9924 223.957L84.121 224.027L84.2497 224.165L84.3597 224.184L84.4135 224.037L84.4532 223.831L84.5211 223.63L84.8088 223.433L84.9001 223.34L84.9539 223.262L85.003 223.047L85.7657 221.545L85.7493 220.974L85.6183 220.822L85.4686 220.724L85.2627 220.712L85.0849 220.745L84.9328 220.74L84.8486 220.612L84.8346 220.434L84.8907 220.237L85.1481 219.683L85.2019 219.454V219.419L85.2417 219.126L85.5598 218.249L85.9178 217.652L86.0371 217.383L86.3295 216.452L86.374 216.202L86.4441 215.965L86.5869 215.799L87.1062 215.652L87.263 215.507L87.277 215.245L87.1694 215.074L86.9916 214.952L86.8091 214.899L86.7109 214.763L86.7389 214.354L86.6734 214.183L86.643 213.996L86.7459 213.764L87.2209 212.957L87.3215 212.625L87.401 212.105V211.846L87.3753 211.605L87.3004 211.392L87.1904 211.219L87.0618 211.064L86.9963 210.931L87.0805 210.76L88.021 210.222L88.3462 209.969L88.5193 209.773L88.7041 209.518L88.9357 209.045L89.0457 208.72L89.1416 208.145L89.6305 206.299L90.2692 204.607L92.0706 201.769L97.5193 196.12L97.7205 195.841L97.8211 195.652L98.0574 195.312L99.2365 194.138L99.5055 193.799L99.6552 193.525L99.6693 193.38L99.6576 193.158L99.5476 192.709L99.3605 192.323L99.1335 191.976L98.9978 191.817L98.8505 191.679L97.8679 190.919L97.5731 190.629L97.3158 190.301L97.1029 189.941L97.0233 189.737L96.9765 189.508L96.9625 189.26L96.9859 189.01L97.1005 188.551L97.2643 188.135L97.5357 187.868L97.9638 187.564L98.9838 187.077L99.9032 186.736L102.935 186.31L103.15 186.238L103.419 186.069L103.766 185.772L111.318 175.188L111.79 174.779L112.429 174.645L118.044 174.54L118.441 174.421L118.902 173.908L119.036 173.698L119.323 173.403L119.639 173.216L120.109 173.01L122.199 172.308L122.702 172.004L123.219 171.576L123.485 171.307L124.316 170.256L124.608 169.969L124.931 169.716L125.687 169.447L128.101 169.014L126.232 165.687L125.413 164.637L125.179 164.492L124.952 164.387L119.026 162.204L114.642 161.427L113.358 161.025L112.993 160.838L112.728 160.655L112.457 160.353L112.026 159.633L111.275 157.806L110.312 156.234L109.579 155.473L108.562 154.615L108.073 154.334L107.736 154.273L107.574 154.392L107.383 154.491L106.524 154.785L106.152 154.991L105.53 155.55L105.293 155.586L104.987 155.536L104.725 155.319L104.561 155.354L104.451 155.473L104.252 155.869L104.11 156.044L103.939 156.184L103.689 156.264L103.513 156.198L103.389 156.046L103.326 155.885L103.106 155.798L102.795 155.763L102.217 155.616L101.843 155.455L101.4 155.193L101.131 155.153L100.855 155.181L100.486 155.171L100.2 155.209L99.9945 155.309L99.702 155.557L99.4962 155.586L99.0166 155.557L98.4598 155.618L98.062 155.623L97.8468 155.529L97.6597 155.366L97.3368 154.952L97.1286 154.884L96.9134 154.893L96.401 154.998L96.0735 155.001L95.8653 154.891L95.4933 154.505L95.2827 154.418L94.0802 154.247L93.7083 154.245L93.4416 154.329L93.3152 154.479L93.0836 154.83L92.9526 154.982L92.4262 155.335L92.1268 155.618L92.0004 155.777L91.8998 155.972L91.7431 156.409L91.6261 156.58L91.4577 156.701L90.6763 156.9L90.2014 156.933L89.5697 157.069L89.1814 157.088L88.9146 157.139L88.6854 157.207L88.2292 157.272L88.0139 157.34L87.8198 157.424L87.5858 157.504L87.3472 157.553L86.5354 157.548L85.6043 157.691Z" fill="#171619" stroke="white" stroke-width="0.5"/>
<path d="M77.2687 6.20889L76.7447 6.00302L71.434 5.83691L70.7041 6.06852L70.4023 6.8195L69.911 7.0979L63.3815 7.1634L54.1873 7.25464L44.7334 7.34822L34.5707 7.44882L26.3684 7.53304L22.4264 7.57281L21.5046 7.58217L21.4883 7.12831L17.8644 7.06047L17.9229 7.30845L17.8082 7.61259L18.0586 8.43141L18.5195 9.1894L18.7721 10.0082L18.5358 10.9885L17.9697 11.6155L17.3006 12.1301L16.7344 12.7852L16.4256 13.6765L15.9601 15.6604L15.2535 16.8185L15.1015 17.794L14.8722 18.2011L14.423 18.648L14.2943 18.903L14.3949 19.3358L14.437 19.5276H14.5213L14.7014 19.5627L14.8956 19.6563L15.0172 19.8458V20.1218L14.9237 20.3113L14.8067 20.4751L14.5493 21.1746L13.9855 22.197L13.8662 22.6204L14.044 23.4369L15.305 25.6851L15.4056 26.1062L15.4758 27.0163L15.5881 27.4351L15.7823 27.6854L16.3507 28.2539L16.4747 28.4551L16.6034 29.2903L16.9309 29.8307L18.4072 31.1361L18.9242 31.4028L19.6073 31.5175L20.6344 31.5432L20.7981 31.728L20.6156 32.1281L20.232 32.5305L19.7711 32.713L19.226 32.7551L18.8189 32.9025L18.4961 33.1645L18.1966 33.5599L17.9088 34.1845L17.6983 35.0571V35.9532L18.0399 36.648L18.4072 36.8094L18.8376 36.8585L19.1956 36.9474L19.3453 37.2329L19.4482 37.7195L19.7196 37.8201L20.0869 37.8084L20.4916 37.9628L20.9104 38.2225L21.1841 38.3511L21.3268 38.5781L21.3502 39.1278L21.2122 39.694L20.8987 40.0707L20.0495 40.7421L19.4997 41.6217L19.4786 42.471L19.9185 44.3987V45.7696V48.0553L20.1243 48.9209L21.0789 50.3597L21.3502 51.1271L21.3011 52.2196L20.9104 54.1567L21.0929 55.2329L22.0919 56.8518L22.2112 57.2682L21.9445 57.7034L20.4916 59.334L19.7875 60.7587L19.6307 61.6524L19.9185 62.5368L20.2624 62.9204L20.4916 62.9602L20.7256 62.9345L21.0929 63.1193L21.3058 63.4632L21.3573 63.8539L21.4929 64.2446L21.8135 64.4926L26.5673 63.8375L26.8667 63.7205L27.2153 63.4843L27.5639 63.0842L27.7628 62.8058L28.0037 62.3941L28.1324 62.2209L28.3336 62.0735L28.605 61.9402L29.3677 61.7624L29.6578 61.6454L29.8777 61.4746L30.0906 61.1237L30.3526 60.333L30.4532 60.1341L30.6848 59.7949L30.8415 59.6522L31.0942 59.5001L31.4334 59.3457L32.0791 59.1609L32.7085 59.0462L34.8 59.0158L35.3029 58.941L39.1959 57.7291L39.4345 57.7034L43.166 57.9818L43.4233 57.9537L44.7779 57.5537L45.2762 57.4811L45.8423 57.4694L46.9513 57.5537L47.4449 57.6659L48.4649 57.8063L50.0558 57.7502L55.5255 56.529L58.251 56.7044L58.7821 56.6576L59.4558 56.529H59.6173L61.9614 56.8284L62.9814 56.8003L63.2388 56.6576L63.4868 56.4167L63.8354 55.8107L64.1067 55.4668L64.4881 55.1884L65.4683 54.8937L65.6695 54.7954L65.8216 54.6199L65.9596 54.3439L66.0438 53.876L66.2029 53.4081L66.2637 53.0548L66.2778 52.7624L66.2357 52.5121L66.1678 52.2898L65.8192 51.7658L65.7561 51.5692L65.742 51.3493L65.7584 51.1318L65.6999 50.4065L65.7303 50.1585L65.9011 49.7047V49.7L65.99 49.5058L66.1187 49.3233L66.3105 49.1572L66.6521 48.9935L66.9211 48.9209L67.4826 48.5958L67.7166 48.5841L67.9669 48.6028L68.2055 48.6519L68.4582 48.6449L68.6828 48.5513L68.8302 48.3735L68.8723 48.039L68.7483 47.8682L68.5471 47.7489L67.8406 47.5734L67.7306 47.4681L67.7774 47.3371L68.0394 47.2388L68.5658 47.1476L68.7717 47.0868L68.9775 47.047L69.1858 47.0868L69.5975 47.2435L69.8525 47.2786L70.1005 47.2833L70.3017 47.2716L70.4842 47.2178L71.0199 46.9394L71.4644 46.7756L71.6329 46.6259L71.7405 46.3779L71.5674 46.0691L71.2492 45.7252L68.0464 42.8663L67.7821 42.5552L67.7938 42.2768L67.9154 41.9867L68.5962 40.7444L68.6898 40.452L68.7342 40.197L68.8419 38.5406L68.9495 38.0376L69.0314 37.8084L69.2653 37.3545L69.67 36.7884L70.1917 36.2549L71.8762 35.0033L72.4681 34.4138L72.7277 34.0699L73.5629 32.4837L74.1268 31.7514L74.2765 31.6251L74.473 31.5128L74.7865 31.4239L75.0743 31.3888L75.362 31.3841L75.9235 31.4426L76.8265 31.8029L78.3449 32.5983L79.6971 33.0335L79.9895 32.7621L80.0386 32.5211L80.1042 31.8193L80.0036 30.956L79.7836 30.2027L79.6012 29.8424L79.4047 29.6061L79.0069 29.4236L78.7753 29.3979L78.5671 29.44L78.387 29.5476L77.9869 30.0202L77.8489 30.1395L77.7319 30.1933H77.6337L77.5354 30.1231L77.1073 29.7325L76.7493 29.5289L76.4241 29.2809L76.2814 29.1289L76.1808 28.9394L76.0428 28.4902L76.0077 28.2445L76.0873 27.8445L76.1083 27.5708L75.9984 27.283L75.8439 27.1333L75.2567 26.8315L75.0275 26.7753L74.5292 26.7145L74.328 26.6326L74.1946 26.504L74.0191 26.27L73.8975 26.146L73.7454 26.029L73.5395 25.9425L73.3805 25.8091L73.2799 25.6173L73.2003 25.4021L73.1067 25.2032L72.9687 25.0465L72.7699 24.9552L72.5102 24.9248L72.2598 24.9154L72.0095 24.871L71.8434 24.7517L71.7194 24.5786L71.5603 24.1551L71.4597 23.9633L71.3755 23.7551L71.3124 23.5281L71.0714 22.0192L70.9965 21.7992L70.814 21.4132L70.7719 21.1208L70.7579 20.7278L70.9708 19.5182L71.0948 19.0995L71.2492 18.7509L71.6399 18.297L71.9183 18.0771L72.1709 17.9321L72.5757 17.7473L72.8073 17.5741L73.4039 16.8629L73.9864 16.3365L74.0496 16.1587L74.087 15.9061L74.1057 15.361L74.1829 14.9867L74.4917 14.5655L75.1234 14.1047L75.2684 13.9526L75.4579 13.845L75.6802 13.7701L75.8767 13.597L76.0288 13.3116L76.0475 11.5242L75.9867 11.2809L75.9656 11.0376L76.0217 10.8013L76.1879 10.4878L76.2791 10.1369L76.2955 9.56138L76.2206 8.8993L76.4405 8.05943L77.2687 6.20889Z" fill="#171619" stroke="white" stroke-width="0.5"/>
<path d="M124.407 0L124.29 0.692489L124.456 1.09254L124.55 1.47856L124.22 2.1149L123.689 2.6366L121.581 4.18535L120.825 3.27762L120.03 2.63192H119.218L118.411 3.6613L118.217 4.2836L118.123 5.25449L117.894 5.70835L117.398 6.11542L116.291 6.64181L115.898 7.1331V7.13778L115.793 7.24774L115.667 7.34132L115.531 7.41618L115.384 7.46297L113.746 7.40682L112.873 7.5004L112.27 7.72733L111.881 8.44088L111.575 9.49131L111.149 10.4575L110.412 10.9161L108.396 8.96258L108.522 8.66313L108.835 8.3239L109.015 7.98234L108.767 7.68288L108.377 7.64545L108.082 7.75541L107.895 7.71563L107.839 7.23136L107.544 7.22668L102.757 7.13778V7.12842L102.54 6.82195L102.303 6.72603L102.055 6.83131L101.815 7.12842L100.916 7.27815L99.9757 8.31922L99.2434 8.42216L99.5242 7.83729L99.0843 7.85366L98.8691 7.71797L98.5767 7.13778L98.2585 6.91553L97.9029 6.843L92.1103 6.38213L90.9172 6.56694L90.5475 7.21732L85.4826 7.17053L80.1368 7.11672L79.0841 6.92255L77.6897 6.37511L77.2686 6.209L76.4404 8.05954L76.2205 8.89942L76.2954 9.56149L76.279 10.137L76.1878 10.4879L76.0217 10.8014L75.9655 11.0377L75.9866 11.281L76.0474 11.5243L76.0287 13.3117L75.8766 13.5971L75.6801 13.7702L75.4578 13.8451L75.2683 13.9527L75.1233 14.1048L74.4916 14.5657L74.1828 14.9868L74.1056 15.3611L74.0869 15.9062L74.0495 16.1588L73.9863 16.3367L73.4038 16.863L72.8072 17.5742L72.5756 17.7474L72.1709 17.9322L71.9182 18.0772L71.6398 18.2971L71.2491 18.751L71.0947 19.0996L70.9707 19.5184L70.7578 20.7279L70.7718 21.1209L70.814 21.4133L70.9964 21.7994L71.0713 22.0193L71.3123 23.5282L71.3754 23.7552L71.4597 23.9634L71.5603 24.1552L71.7193 24.5787L71.8433 24.7518L72.0094 24.8711L72.2598 24.9156L72.5101 24.9249L72.7698 24.9553L72.9686 25.0466L73.1067 25.2033L73.2002 25.4022L73.2798 25.6174L73.3804 25.8092L73.5395 25.9426L73.7453 26.0292L73.8974 26.1461L74.0191 26.2701L74.1945 26.5041L74.3279 26.6327L74.5291 26.7146L75.0274 26.7754L75.2566 26.8316L75.8439 27.1334L75.9983 27.2831L76.1082 27.5709L76.0872 27.8446L76.0076 28.2446L76.0427 28.4903L76.1807 28.9395L76.2813 29.129L76.4241 29.281L76.7492 29.529L77.1072 29.7326L77.5353 30.1233L77.6336 30.1934H77.7318L77.8488 30.1396L77.9868 30.0203L78.3869 29.5477L78.567 29.4401L78.7752 29.398L79.0068 29.4237L79.4046 29.6062L79.6011 29.8425L79.7836 30.2028L80.0035 30.9561L80.1041 31.8194L80.0386 32.5212L79.9894 32.7622L79.697 33.0336L79.7672 33.4149L79.9052 33.815L80.0175 33.9975L80.1602 34.1448L80.338 34.2618L80.5322 34.3671L80.6983 34.4934L80.8387 34.6478L80.9978 35.0689L81.1007 35.2561L81.2598 35.3894L81.482 35.4526L81.723 35.483L81.9476 35.5462L82.1371 35.6468L82.3079 35.7755L83.0565 36.1919L83.2671 36.2738L83.5244 36.3135L84.1958 36.2878L84.4766 36.3182L84.6731 36.4329L84.7713 36.6224L84.8509 36.8352L85.0404 36.9522L85.3024 36.9639L85.8686 36.6411L86.14 36.4048L86.3224 36.1498L86.3856 35.9135L86.423 35.6561L86.43 35.3801L86.3809 34.856L86.0744 33.4196L86.0604 33.1693L86.0721 32.933L86.1259 32.7084L86.2125 32.5025L86.4441 32.1516L86.7435 31.8638L88.1964 31.1503L88.5169 30.8766L88.7134 30.6099L88.8935 29.8987L89.0807 29.4893L89.2 29.3185L89.345 29.1617L89.4971 29.0237L89.8504 28.7968L94.2556 27.1544L94.7422 27.0375L95.0557 27.0164L95.5096 27.0749L96.0734 27.234L96.6115 27.2948L96.8548 27.3486L97.049 27.4516L97.2244 27.5732L97.4911 27.6668L97.8678 27.7066L98.5042 27.6878L98.7615 27.7955L98.8176 27.9522L98.7264 28.1136L98.5182 28.3452L98.5088 28.3523L98.4995 28.364L97.9988 28.8646L97.9006 29.0237L97.9029 29.2015L98.069 29.2881L98.3451 29.2483L98.7872 29.0237L99.2458 28.6728L99.3721 28.5254L99.5733 28.3569L99.578 28.3523L101.239 26.841L101.356 26.6632L101.45 26.4573L101.602 26.0198L101.716 25.8514L101.908 25.6314L101.999 25.4981L102.065 25.3133L102.107 24.8454L102.165 24.6184L102.35 24.4477L102.629 24.3003L103.09 24.1155L103.352 23.947L103.546 23.7575L103.637 23.5446L103.733 22.7492L103.81 22.5246L104.077 22.3842L104.503 22.314L107.025 22.3725L107.385 22.4801L107.635 22.6229L107.743 22.8124L107.804 23.0206L107.783 23.2452L107.694 23.4276L107.556 23.568L107.464 23.7271L107.427 23.9189L107.464 24.1342L107.565 24.3096L107.722 24.45L107.895 24.5693L108.054 24.705L108.171 24.8828L108.241 25.1027L108.286 25.346L108.279 25.608L108.239 25.8514L108.171 26.083L108.084 26.2912L107.956 26.4596L107.521 26.9065L107.436 27.1006L107.418 27.3159L107.497 27.5054L107.649 27.5943L107.829 27.5685L108.194 27.2831L108.421 27.3393L108.585 27.4703L108.791 27.5685L109.039 27.5545L109.42 27.2948L109.624 27.0819L109.893 26.6748L110.092 26.5368L110.365 26.4409L111.736 26.4292L112.363 26.6491L112.607 26.6281L112.864 26.5298L113.393 26.1064L113.652 25.9636L113.931 25.8864L114.394 25.8911L114.658 25.9824L114.86 26.1157L115.042 26.2046L115.288 26.1812L115.538 26.0689L115.823 25.7858L115.971 25.5683L116.06 25.3554L116.315 24.0453L116.399 23.83L116.499 23.6359L116.626 23.4651L116.797 23.3411L117.005 23.2919L117.288 23.3785L117.466 23.5236L117.772 23.8347L117.959 23.9353L118.198 23.9891L118.958 24.0546L119.241 24.0453L120.268 23.7669L122.208 22.8989L122.556 22.8545L122.875 22.6439L123.422 22.4614L127.715 21.5444L129.748 21.3782L132.408 20.0026L133.217 19.8038L133.236 19.7991L133.381 19.1955L133.603 17.4058L133.924 16.6618L134.516 15.9038L135.374 15.319L135.737 14.9704L135.814 14.5165L135.599 13.6767L135.566 13.2602L136.476 8.96258L136.68 8.56019L137.017 8.20459L137.386 7.9683L137.679 7.67586L137.779 7.13778L137.899 5.62179L137.765 4.29764L137.131 3.294L135.728 2.75592L134.937 2.76995L133.51 3.14895L132.74 3.22849L131.968 3.02964L131.114 2.55238L130.417 1.90434L130.104 1.19782L124.407 0Z" fill="#171619" stroke="white" stroke-width="0.5"/>
<path d="M144.641 32.8817L144.52 32.732L142.379 28.7198L141.712 28.0086L139.49 26.6026L139.144 26.1838L138.652 25.2339L138.32 24.8339L137.939 24.5976L136.624 24.1601L136.245 23.9004L135.983 23.6431L135.683 23.4419L134.713 23.3179L134.212 23.1869L133.751 22.9646L133.381 22.6558L132.951 21.7715L132.979 20.8802L133.236 19.7993L133.218 19.804L132.408 20.0029L129.748 21.3785L127.715 21.5446L123.422 22.4617L122.875 22.6441L122.557 22.8547L122.208 22.8991L120.269 23.7671L119.242 24.0455L118.958 24.0548L118.198 23.9893L117.959 23.9355L117.772 23.8349L117.466 23.5238L117.288 23.3787L117.005 23.2922L116.797 23.3413L116.626 23.4653L116.5 23.6361L116.399 23.8303L116.315 24.0455L116.06 25.3556L115.971 25.5685L115.824 25.7861L115.538 26.0691L115.288 26.1814L115.042 26.2048L114.86 26.1159L114.658 25.9826L114.394 25.8913L113.931 25.8867L113.652 25.9639L113.393 26.1066L112.864 26.53L112.607 26.6283L112.363 26.6493L111.736 26.4294L110.365 26.4411L110.092 26.537L109.893 26.6751L109.624 27.0821L109.42 27.295L109.039 27.5547L108.791 27.5688L108.585 27.4705L108.421 27.3395L108.194 27.2833L107.829 27.5688L107.649 27.5945L107.497 27.5056L107.418 27.3161L107.436 27.1009L107.521 26.9067L107.956 26.4598L108.084 26.2914L108.171 26.0832L108.239 25.8516L108.279 25.6083L108.286 25.3462L108.241 25.1029L108.171 24.883L108.054 24.7052L107.895 24.5695L107.722 24.4502L107.565 24.3099L107.465 24.1344L107.427 23.9192L107.465 23.7273L107.556 23.5682L107.694 23.4279L107.783 23.2454L107.804 23.0208L107.743 22.8126L107.635 22.6231L107.385 22.4804L107.025 22.3728L104.503 22.3143L104.077 22.3845L103.81 22.5248L103.733 22.7494L103.637 23.5448L103.546 23.7577L103.352 23.9472L103.09 24.1157L102.629 24.3005L102.35 24.4479L102.166 24.6187L102.107 24.8456L102.065 25.3135L101.999 25.4983L101.908 25.6317L101.716 25.8516L101.602 26.02L101.45 26.4575L101.356 26.6634L101.239 26.8412L99.5781 28.3525L99.5734 28.3572L99.3722 28.5256L99.2459 28.673L98.7874 29.0239L98.3452 29.2485L98.0691 29.2883L97.903 29.2017L97.9007 29.0239L97.999 28.8648L98.4996 28.3642L98.509 28.3525L98.5183 28.3455L98.7265 28.1139L98.8178 27.9524L98.7616 27.7957L98.5043 27.6881L97.868 27.7068L97.4913 27.667L97.2246 27.5734L97.0491 27.4518L96.855 27.3488L96.6116 27.295L96.0736 27.2342L95.5097 27.0751L95.0559 27.0166L94.7424 27.0377L94.2558 27.1547L89.8505 28.797L89.4973 29.0239L89.3452 29.162L89.2001 29.3187L89.0808 29.4895L88.8937 29.8989L88.7135 30.6101L88.517 30.8768L88.1965 31.1505L86.7437 31.8641L86.4442 32.1518L86.2126 32.5027L86.1261 32.7086L86.0722 32.9332L86.0606 33.1695L86.0746 33.4198L86.3811 34.8563L86.4302 35.3803L86.4232 35.6564L86.3857 35.9137L86.3226 36.15L86.1401 36.405L85.8687 36.6413L85.3026 36.9641L85.0405 36.9524L84.851 36.8355L84.7715 36.6226L84.6732 36.4331L84.4767 36.3184L84.196 36.288L83.5245 36.3138L83.2672 36.274L83.0566 36.1921L82.308 35.7757L82.1372 35.647L81.9477 35.5464L81.7231 35.4832L81.4822 35.4528L81.2599 35.3897L81.1008 35.2563L80.9979 35.0692L80.8388 34.6481L80.6984 34.4936L80.5323 34.3673L80.3382 34.262L80.1604 34.1451L80.0177 33.9977L79.9054 33.8152L79.7673 33.4151L79.6971 33.0338L78.3449 32.5987L76.8266 31.8032L75.9235 31.443L75.3621 31.3845L75.0743 31.3891L74.7866 31.4242L74.4731 31.5131L74.2765 31.6254L74.1268 31.7518L73.563 32.484L72.7278 34.0702L72.4681 34.4141L71.8762 35.0037L70.1918 36.2553L69.6701 36.7887L69.2654 37.3548L69.0314 37.8087L68.9495 38.038L68.8419 38.541L68.7343 40.1973L68.6899 40.4523L68.5963 40.7448L67.9155 41.987L67.7938 42.2771L67.7821 42.5555L68.0465 42.8667L71.2493 45.7255L71.5674 46.0694L71.7405 46.3782L71.6329 46.6262L71.4645 46.776L71.02 46.9397L70.4842 47.2181L70.3018 47.2719L70.1006 47.2836L69.8526 47.279L69.5976 47.2439L69.1858 47.0871L68.9776 47.0473L68.7717 47.0871L68.5659 47.1479L68.0395 47.2392L67.7774 47.3374L67.7307 47.4684L67.8406 47.5737L68.5471 47.7492L68.7483 47.8685L68.8723 48.0393L68.8302 48.3738L68.6828 48.5516L68.4582 48.6452L68.2056 48.6522L67.9669 48.6031L67.7166 48.5844L67.4827 48.5961L66.9212 48.9213L66.6522 48.9938L66.3106 49.1576L66.1187 49.3237L65.9901 49.5061L65.9012 49.7003V49.705L65.7304 50.1589L65.7 50.4069L65.7585 51.1321L65.7421 51.3497L65.7561 51.5696L65.8193 51.7661L66.1679 52.2901L66.2357 52.5124L66.2778 52.7627L66.2638 53.0551L66.203 53.4084L66.0439 53.8763L65.9597 54.3442L65.8216 54.6203L65.6696 54.7957L65.4684 54.894L64.4881 55.1888L64.1068 55.4672L63.8354 55.8111L63.4868 56.417L63.2388 56.658L62.9815 56.8007L61.9615 56.8287L59.6173 56.5293H59.4559L58.7821 56.658L58.251 56.7048L55.5255 56.5293L50.0558 57.7505L48.465 57.8066L47.4449 57.6663L46.9513 57.554L45.8424 57.4698L45.2762 57.4815L44.7779 57.554L43.4234 57.954L43.166 57.9821L39.4345 57.7037L39.1959 57.7294L35.303 58.9413L34.8 59.0162L32.7085 59.0466L32.0792 59.1612L31.4335 59.346L31.0943 59.5004L30.8416 59.6525L30.6849 59.7952L30.4532 60.1344L30.3526 60.3333L30.0906 61.124L29.8777 61.475L29.6578 61.6457L29.3677 61.7627L28.605 61.9405L28.3337 62.0739L28.1325 62.2213L28.0038 62.3944L27.7628 62.8061L27.564 63.0845L27.2154 63.4846L26.8668 63.7209L26.5674 63.8378L21.8135 64.4929L21.9492 64.6005L21.4111 65.0661L21.0508 65.6907L20.8426 66.3879L20.7771 67.0734L20.852 67.7659L21.0696 68.2057L22.5738 69.5836L24.0898 71.5067L24.6583 72.2319L24.7028 72.8379L24.532 74.1994L24.5858 74.5293L24.794 75.2429V76.3939L24.5811 77.1168L24.0805 77.435L23.5073 77.704L23.0745 78.2702L23.0066 79.0749L23.3365 79.73L23.9307 80.1698L24.6653 80.3336L25.3251 80.6985L25.2689 81.508L24.7659 82.3175L23.4348 83.0193L22.9435 83.7914L22.2112 85.298L21.3175 86.2221L21.1397 86.5753L21.0602 88.7043L20.8871 89.3734L20.4917 89.9746L20.9011 90.2086L21.1702 90.4893L21.5024 90.7209L22.0826 90.8192L23.1611 90.8706L24.2208 91.1116L25.283 91.6778L25.5544 92.3632L25.5988 93.2312L26.2539 95.2268L26.5042 95.4186L26.7873 95.4607L27.0212 95.5613L27.1171 95.9286L27.1686 96.6585L28.0249 99.625L27.9781 100.208L27.5336 100.456L27.2224 100.736L27.1148 101.279L27.3183 101.614L27.3277 101.628L27.7067 101.45L27.9593 101.316L28.081 101.499L28.2073 101.567L28.5325 101.632L29.4215 102.11L31.113 103.955L31.1481 103.902L31.3212 103.874L31.5411 103.888L31.7142 103.955L32.2874 104.536L33.5086 106.854L35.0854 108.078L35.4434 109.046L35.6726 109.507L36.6763 110.122L36.9056 110.483L37.0062 110.915L37.7641 112.396L37.5138 113.194L37.853 113.887L38.3631 114.518L38.6251 115.15L38.8052 115.421L39.5936 115.679L39.7738 116.034L39.8393 116.42L40.3469 117.354L40.74 118.863L41.0722 121.527L41.4699 122.093L42.0267 122.503L42.6677 122.863L43.2619 123.425L44.4457 124.906L45.7324 125.579L46.818 127.409L47.5455 128.106L49.0662 128.48L50.8934 128.448L54.8986 127.624L55.074 127.507L55.3431 127.236L56.0332 126.075L56.3912 125.734L56.9105 124.971L57.6007 124.18L58.4733 123.757L59.491 123.862L61.1661 124.69L62.0714 124.891L62.8622 124.662L63.2833 124.087L63.4283 123.336L63.4003 122.571L62.6984 120.985L61.3906 120.678L59.7811 120.811L58.1855 120.542L57.7317 120.161L57.3784 119.569L57.1468 118.844L57.0649 118.065L56.962 117.737L56.7772 117.391L56.6976 117.017L56.9082 116.614L57.4931 115.915L57.72 115.501L57.9001 115.007L58.0171 114.209L57.9001 111.657L57.9563 110.747L58.1434 109.858L58.499 109.03L59.0465 108.309L60.759 107.565L63.8892 108.569L65.1221 108.017L65.6602 107.879L65.9573 107.626L66.086 107.467L66.1913 107.263L66.3293 106.826L66.4276 106.629L66.5445 106.461L66.7644 106.297L67.0569 106.162L67.5786 106.012L67.9085 106.009L70.4 106.501L70.8258 106.519L71.8552 106.414L72.3348 106.307L73.1396 105.956L73.5045 105.747L73.673 105.619L73.8086 105.464L73.9046 105.261L74.1455 104.014L74.2087 103.794L74.2999 103.588L74.4099 103.403L74.5456 103.242L74.6977 103.099L75.3808 102.655L76.4078 102.51L78.6654 102.423L79.1848 102.453L79.6644 102.58L80.0527 102.767L80.2189 102.896L80.5113 103.186L80.6727 103.317L81.054 103.733L81.6717 104.25L83.7655 105.663L84.1211 105.85L84.8464 106.084L85.7447 106.267L86.3857 106.323H87.2771L87.6327 106.426L87.8549 106.587L88.0819 107.233L88.2854 108.171L88.9007 109.591L89.0668 110.272L89.0879 110.476V110.707L89.0504 110.946L88.8983 111.376L88.4609 112.197L88.2129 112.497L86.0606 114.446L85.8126 114.776L85.6114 115.169L85.5459 115.391L85.5014 115.639L85.4733 117.033L85.4359 117.286L85.3634 117.515L85.2675 117.705L85.1365 117.88L85.0101 118.025L84.7083 118.306L84.5422 118.43L84.2498 118.72L83.9854 119.059L83.8731 119.237L83.7796 119.436L83.7234 119.653L83.9433 119.955L84.3738 120.358L85.5248 121.116L86.098 121.867L86.5401 122.627L91.0156 135.197L91.2519 135.583L91.5537 135.756L91.9865 135.875L92.2696 136.034L92.5854 136.261L92.7913 136.304L92.9293 136.196L93.1422 135.833L93.3948 135.496L93.7551 134.788L93.8323 134.694L93.9633 134.593L94.1341 134.483L94.3377 134.385L94.5201 134.233L94.6488 134.03L94.7143 133.782L94.7518 133.513L94.7377 132.488L94.6933 132.261L94.6348 132.046L94.4734 131.669L94.0265 130.951L93.851 130.574L93.7692 130.109V129.835L93.8019 129.568L93.851 129.327L93.9306 129.107L94.0289 128.92L94.1552 128.731L94.3119 128.593L94.4991 128.48L94.8828 128.326L96.2256 128.001L96.4245 127.914L96.7614 127.678L97.3813 127.105L97.6504 126.784L97.8539 126.407L98.5207 124.636L98.6259 124.459L98.7453 124.295L98.8693 124.159L99.2225 123.874L99.6039 123.652L100.006 123.467L100.617 123.273L100.811 123.181L100.991 123.076L101.295 122.802L101.574 122.503L102.1 121.803L102.374 121.504L102.514 121.399L102.641 121.326L102.774 121.277L102.961 121.244L103.2 121.221L103.724 121.251L104.533 121.385L105.067 121.417L105.49 121.392L106.428 121.211L107.376 121.148L107.647 121.195L107.879 121.268L108.075 121.361L108.398 121.616L109.088 122.348L109.572 123.011L109.715 123.158L109.844 123.324L109.984 123.478L110.108 123.645L114.46 127.18L116.794 128.546L117.571 128.817L119.288 129.082L120.044 129.037L120.491 128.887L121.38 127.991L122.217 126.152L122.496 125.876L122.744 125.75L123.209 125.848H123.527L123.913 125.804L125.378 125.313L125.652 125.32L125.874 125.392L126.878 125.86L127.095 125.928L127.416 125.975L127.823 125.965L128.534 125.823L128.869 125.603L129.133 125.327L129.313 125.018L129.554 124.884L129.886 124.779L130.013 124.594L130.101 124.365L130.553 123.616L130.593 123.383L130.59 123.135L130.551 122.901L130.623 122.606L130.822 122.292L131.447 121.719L131.877 121.415L132.207 121.223L134.076 120.568L134.942 120.549L135.969 120.737L136.863 121.027L137.534 121.319L139.008 122.269L139.609 122.851L139.993 123.326L140.908 124.22L141.415 124.594L141.883 124.641L142.62 124.634L144.309 124.44L144.992 124.255L145.385 124.014L145.444 123.771L145.439 123.544L145.406 123.357L145.308 123.179L145.032 121.45L145.053 121.195L145.177 120.919L145.392 120.786L145.659 120.737L146.962 120.68L147.229 120.563L147.395 120.395L147.435 120.163L147.453 119.908L147.395 119.419L147.308 119.204L146.859 118.509L146.714 118.357L146.532 118.243L146.323 118.154L146.097 118.091L145.83 118.072L144.564 118.226L143.645 118.46L142.662 118.601L142.452 118.608L141.974 118.549L141.518 118.418L141.324 118.334L141.16 118.21L141.062 118.067L141.036 117.854L141.123 117.386V117.129L141.036 116.664L140.879 116.228L140.854 115.976L140.945 115.629L141.116 115.449L141.375 115.316L141.675 115.243L142.105 115.098L142.307 114.923L142.419 114.71L142.391 114.485L142.288 114.301L142.131 114.156L141.336 113.774L141.174 113.648L141.057 113.479L140.999 113.26V113.028L141.025 112.785L141.083 112.553L141.539 111.229L141.85 110.578L142.3 109.884L142.536 109.697L142.779 109.617L142.987 109.675L143.364 109.886L143.598 109.959H143.872L144.237 109.821L144.386 109.612L144.44 109.36L144.386 109.133L144.29 108.941L144.145 108.789L143.684 108.375L143.448 108.024L143.357 107.839L143.287 107.614L143.24 107.378L143.313 107.06L143.481 106.709L144.323 105.619L144.667 104.947L144.941 104.213L145.133 103.876L145.14 103.633L145.067 103.422L144.941 103.242L144.777 103.062L144.805 102.83L144.882 102.549L145.027 102.39L145.177 102.278L146.206 101.85L146.637 101.752L146.864 101.742L147.1 101.784L147.308 101.859L148.286 102.423L148.509 102.5L148.768 102.54H149.03L149.283 102.517L150.621 102.245L150.881 102.229L152.518 102.456H152.535H152.549L152.458 101.913L152.743 101.511L153.272 101.41L153.77 101.604L154.219 102.559L154.659 102.07L154.94 101.359L154.715 101.19L155.157 101.043L155.546 101.097L155.971 101.228L156.517 101.316L156.98 101.094L157.127 100.533L157.188 99.8683L157.401 99.3396L157.406 99.3326L158.33 97.9991L157.803 95.9193L155.777 92.4638V92.4592H155.768L155.204 91.1397L155.637 89.8366L156.348 88.5171L156.57 87.1438L156.566 86.4794L156.83 86.07L157.782 85.2161L158.29 84.3482L158.278 83.6697L157.757 82.1467L157.796 81.3068L158.138 80.8997L158.61 80.6213L159.036 80.1815L159.212 79.6458L159.28 78.3965L159.67 76.2395L159.411 75.2405L158.65 74.5714L157.401 74.1433L157.371 74.0989L157.361 74.0567L157.371 74.017L157.647 73.5397L157.742 73.1022L157.67 72.6835L157.401 72.3045L155.169 71.488L154.381 71.357L152.692 71.4529L151.746 71.6213L151.108 71.9021L150.899 72.239L150.771 73.0999L150.607 73.4625L150.287 73.7339L148.366 74.4077L147.584 74.5644L146.805 74.4802L146.614 73.9094L146.957 73.4227L146.663 72.7419L146.665 72.136L148.417 71.7804L149.072 71.5231L149.61 71.1511L149.77 70.7089L149.4 70.248L148.808 70.2176L147.736 70.4188L147.299 70.2317L146.883 69.9369L146.576 69.6679L146.471 69.5439L146.457 69.2725L146.653 68.0723L146.756 67.8009L148.871 68.0372L149.882 67.9787L150.633 67.4851L151.208 67.8664L151.983 67.9975L152.663 67.8033L152.956 67.2184L152.596 66.3341L151.763 66.1727L150.06 66.6101L148.749 66.4698L148.08 65.5761L148.05 64.3291L148.651 63.1196L149.77 64.3011L150.476 64.6941L151.229 64.6005L151.667 64.0741L151.784 63.3302L151.69 62.5535L151.494 61.9265L151.213 61.503L150.914 61.1708L150.694 60.71L150.633 59.9169L151.533 56.6042L151.545 56.1199L151.356 54.4097L151.442 53.8155L151.781 53.1674L152.32 52.5826L152.612 52.3206L152.638 51.9696L152.352 51.1274L151.849 50.1167L151.781 49.8313L151.863 49.436L152.006 49.1716L152.029 48.9002L151.781 48.4814L152.516 48.3387L153.166 48.4487L153.634 48.3247L153.662 48.1937L153.812 47.4872L153.688 46.6239L153.349 46.3408L152.886 46.2285L152.352 45.8846L151.941 44.7804L152.163 41.7578L152.093 40.3213L152.397 39.7481L152.516 39.0486L152.717 38.3936L153.749 37.6215L152.89 36.908L152.488 36.7138L150.644 37.0226L150.06 37.0297L150.427 36.164L149.987 35.4832L149.271 34.8329L148.799 34.0585L148.857 33.6935L148.997 33.242L148.979 32.7694L148.565 32.3507L148.134 32.2524L147.753 32.3741L147.36 32.5682L146.883 32.6922L146.48 32.6361L145.364 32.1939L145.254 32.3179L145.14 32.5987L144.962 32.849L144.641 32.8817Z" fill="#171619" stroke="white" stroke-width="0.5"/>
<path d="M72.08 324.72H72.88V328H65.04V324.72H66.24L65.92 323.12H63.2L62.88 324.72H64.08V328H57.24V324.72H58.04L61.42 312.44H68.7L72.08 324.72ZM63.64 321H65.48L64.66 317.02H64.46L63.64 321ZM80.6678 328.28C78.1478 328.28 76.2011 327.64 74.8278 326.36C73.4678 325.08 72.7878 323.033 72.7878 320.22C72.7878 314.847 75.4011 312.16 80.6278 312.16C81.8945 312.16 83.0678 312.313 84.1478 312.62C85.2411 312.927 86.0545 313.267 86.5878 313.64V318.64H81.7878V317.2C81.7878 316.693 81.6745 316.32 81.4478 316.08C81.2211 315.84 80.8811 315.72 80.4278 315.72C79.9745 315.72 79.6345 315.84 79.4078 316.08C79.1811 316.32 79.0678 316.693 79.0678 317.2V323.24C79.0678 323.747 79.1811 324.12 79.4078 324.36C79.6345 324.6 79.9745 324.72 80.4278 324.72C80.8811 324.72 81.2211 324.6 81.4478 324.36C81.6745 324.12 81.7878 323.747 81.7878 323.24V321.62H86.5878V326.8C86.0411 327.173 85.2278 327.513 84.1478 327.82C83.0811 328.127 81.9211 328.28 80.6678 328.28ZM95.1014 328.28C92.5814 328.28 90.6347 327.64 89.2614 326.36C87.9014 325.08 87.2214 323.033 87.2214 320.22C87.2214 314.847 89.8347 312.16 95.0614 312.16C96.3281 312.16 97.5014 312.313 98.5814 312.62C99.6747 312.927 100.488 313.267 101.021 313.64V318.64H96.2214V317.2C96.2214 316.693 96.1081 316.32 95.8814 316.08C95.6547 315.84 95.3147 315.72 94.8614 315.72C94.4081 315.72 94.0681 315.84 93.8414 316.08C93.6147 316.32 93.5014 316.693 93.5014 317.2V323.24C93.5014 323.747 93.6147 324.12 93.8414 324.36C94.0681 324.6 94.4081 324.72 94.8614 324.72C95.3147 324.72 95.6547 324.6 95.8814 324.36C96.1081 324.12 96.2214 323.747 96.2214 323.24V321.62H101.021V326.8C100.475 327.173 99.6614 327.513 98.5814 327.82C97.5147 328.127 96.3547 328.28 95.1014 328.28ZM101.775 324.72H102.775V315.72H101.775V312.44H110.955C112.675 312.44 113.988 312.793 114.895 313.5C115.802 314.207 116.255 315.353 116.255 316.94C116.255 317.833 116.075 318.607 115.715 319.26C115.355 319.913 114.842 320.367 114.175 320.62L114.195 320.82C115.475 321.02 116.115 321.807 116.115 323.18V324.72H117.055V328H110.715V323.3C110.715 322.78 110.635 322.387 110.475 322.12C110.328 321.853 110.088 321.673 109.755 321.58C109.435 321.487 108.975 321.44 108.375 321.44V324.72H109.695V328H101.775V324.72ZM109.455 319C109.842 319 110.128 318.9 110.315 318.7C110.515 318.487 110.615 318.16 110.615 317.72V317C110.615 316.56 110.515 316.24 110.315 316.04C110.128 315.827 109.842 315.72 109.455 315.72H108.375V319H109.455ZM132.451 324.72H133.251V328H125.411V324.72H126.611L126.291 323.12H123.571L123.251 324.72H124.451V328H117.611V324.72H118.411L121.791 312.44H129.071L132.451 324.72ZM124.011 321H125.851L125.031 317.02H124.831L124.011 321Z" fill="#171619"/>
</g>
<defs>
<clipPath id="clip0_8_550">
<rect width="187" height="328" fill="white"/>
</clipPath>
</defs>
</svg>
