<svg width="192" height="240" viewBox="0 0 192 240" fill="none" xmlns="http://www.w3.org/2000/svg">
<g clip-path="url(#clip0_8_555)">
<path d="M151.656 65.8327L152.743 65.2919L152.441 64.4917L152.869 64.1217L152.642 63.9351L153.06 62.3633L153.798 61.9363L154.797 60.2096L154.571 59.5075L156.393 56.2626L156.141 55.6839L155.318 55.8104L154.785 55.434L155.205 54.9375L154.901 54.5295L155.322 53.0273L154.964 52.4517L155.541 52.5656L154.643 52.0406L155.95 51.9773L156.644 51.4871L157.768 49.3555L157.26 49.3081L156.958 48.7198L157.9 47.2271L157.043 46.4206L157.184 46.136L155.793 45.6774L155.441 46.5376L154.813 46.8855L154.954 46.3511L154.47 46.2625L154.458 45.7027L155.033 45.3359L154.452 45.4054L154.426 45.0955L153.202 44.7191L153.06 43.9253L153.512 43.9285L153.666 43.3687L154.213 43.4699L154.671 41.2909L155.074 41.0505L155.441 42.4769L157.633 43.1157L157.589 43.4794L158.048 43.7229L159.694 43.2232L160.799 43.9412L161.343 43.4509L162.103 41.5249L163.347 41.4648L163.384 41.7242L164.151 41.2782L165.093 41.9234L165.972 41.4364L168.048 42.7931L169.867 43.2707L168.78 44.4978L168.004 46.5282L166.472 47.4263L166.368 48.1253L164.741 49.7287L164.232 50.8578L164.311 52.2303L163.821 52.7142L163.353 54.6054L163.513 55.9306L162.841 56.4303L162.492 58.0052L161.324 59.9913L161.23 61.6865L161.917 62.9041L161.06 64.7194L160.708 66.6676L160.947 67.5531L160.473 68.2615L161.512 70.0674L161.405 70.624L160.306 71.3261L160.718 71.5506L160.287 71.693L160.463 72.1262L160.168 72.4298L159.424 72.18L159.285 72.4678L159.738 72.6481L158.836 73.4008L158.082 73.2237L156.971 73.6095L156.826 73.2616L156.016 73.1731L156.43 72.2021L155.526 72.0282L155.664 71.6076L154.92 70.2856L153.867 70.1053L154.395 68.7549L154.273 67.7618L153.013 66.8257L152.049 66.6012L151.656 65.8327Z" fill="#FDFBF5" stroke="#171619" stroke-width="0.5"/>
<path d="M70.7384 106.194L71.043 106.602L71.9256 106.466L72.6292 106.994L72.3245 107.924L73.1129 108.724L73.8541 107.829L74.2247 108.234L75.8014 108.053L76.6777 109.543L77.0766 109.23L77.7362 109.641L77.1426 110.574L79.3946 111.365L78.9109 111.943L79.7966 112.377L79.024 113.417L78.6534 113.436L78.5309 114.357L79.1904 114.695L78.5371 115.622L79.3349 115.913L78.958 116.33L78.892 116.336L79.583 116.944L80.9336 117.095L80.4907 117.462L81.4047 119.047L80.9116 119.331L80.965 119.55L81.3325 120.97L80.9556 121.08L81.3199 121.668L80.2992 122.326L80.3526 122.927L79.47 123.205L79.6993 124.233L78.5026 125.271L77.5195 125.524L77.598 126.093L76.8285 126.928L76.9541 127.298L75.7952 127.965L75.3554 127.836L75.8172 128.519L75.8234 129.641L76.3166 129.97L76.3919 131.087L74.9628 131.159L74.8246 131.46L74.5514 130.748L74.2373 130.802L73.8855 132.099L74.9471 132.75L74.3724 134.275L73.6782 134.395L74.096 134.559L74.209 135.236L73.7913 135.442L72.8396 135.132L72.9558 135.723L72.4156 135.789L72.1863 136.621L71.1907 137.301L70.2673 136.283L69.7836 136.741L68.5461 136.726L68.3011 137.222L66.6333 137.579L66.448 137.921L65.5403 137.352L65.0283 137.478L64.5697 138.247L64.1834 137.722L63.2537 138.456L63.5207 139.268L63.2977 139.642L62.2549 139.044L62.6161 138.592L62.0539 138.041L61.2781 139.056L60.1882 138.86L59.4062 139.616L60.1003 140.148L59.8113 140.34L60.0092 141.207L59.5789 141.239L59.9935 142.523L59.2743 143.067L59.3748 144.015L58.8565 144.227L58.8848 144.673L59.3057 144.721L59.4187 145.318L60.2196 145.072L61.2718 145.331L61.3095 146.027L61.6644 145.941L62.2895 147.311L61.6707 147.472L61.6519 148.411L62.5188 147.792L62.4811 149.107L62.9145 149.575L61.9251 150.382L62.302 150.938L61.8843 151.871L61.5734 151.795L61.6425 152.621L60.9954 152.567L60.6217 153.484L60.0092 153.747L60.1788 154.863L59.1266 155.126L58.7717 155.695L58.8597 156.969L58.2566 157.267L58.4419 158.478L57.3803 159.379L56.7521 159.443L55.923 158.873L55.3262 159.756L53.6772 157.845L52.9768 157.634L52.6879 156.356L50.2192 156.618L47.9892 155.353L47.6248 155.641L47.3453 155.154L46.4972 154.797L46.0575 155.005L45.4513 154.559L45.9507 153.664L44.9959 154.091L44.8703 155.274L43.749 154.958L43.3187 154.205L44.0851 153.5L44.5091 152.396L44.4243 151.163L42.5146 150.518L42.1534 150.619L41.9775 151.311L41.5598 151.27L41.3525 150.28L39.9831 150.47L39.8763 149.857L39.2324 149.49L39.2104 149.069L40.7903 148.8L41.6666 147.994L43.6705 144.123L45.6209 133.901L46.1423 127.817L46.9652 125.707L49.4371 126.128L49.2581 125.34L48.5859 125.021L49.0508 125.014L47.3107 123.553L46.4596 125.075L46.2742 126.514L46.0764 126.185L47.4395 110.565L48.253 109.056L48.6896 108.733L48.966 109.432L48.4634 109.521L48.7932 109.543L48.6173 109.891L52.0377 112.978L53.5265 118.012L54.7671 119.23L53.8092 116.994L53.1998 113.322L54.7608 113.455L54.8676 112.974L55.1597 113.907L56.9846 114.243L57.2861 115.954L57.3018 116.036L57.5342 116.747L57.8012 116.257L58.131 116.32L58.4419 116.849L58.8848 116.76L59.1643 117.276L60.05 117.655L60.6657 117.744L61.3912 117.149L61.9628 117.576L62.0571 116.808L62.591 116.57L62.2895 116.349L62.6444 115.647L63.2663 115.191L64.2965 115.58L64.8241 114.562L66.0083 113.885L65.7633 112.538L66.137 111.46L66.671 111.279L66.4794 110.859L66.8469 111.181L67.5002 110.365L68.166 110.362L68.3922 109.657L69.1146 109.138L69.1994 107.62L69.9092 107.611L70.7384 106.194ZM61.5388 150.287L61.4634 149.158L61.3409 149.098L61.3912 149.778L61.0111 149.933L61.3252 150.236L61.5388 150.287ZM61.0394 150.246L60.9483 150.315L60.6939 150.926L60.9389 151.479L61.4823 151.087L61.1588 150.29L61.0834 150.239L61.0394 150.246Z" fill="#FDFBF5" stroke="#171619" stroke-width="0.5"/>
<path d="M92.2564 92.8032L92.4888 91.845L92.8123 91.8418L93.3023 90.9658L94.9481 90.6622L95.5951 90.9183L96.6128 90.2668L96.4714 89.4825L95.9846 89.2105L96.3678 88.6286L96.0317 88.2523L96.4871 88.0151L96.7855 88.2586L96.7384 87.6545L97.7466 87.1137L97.9319 86.6045L98.5224 87.1453L99.0124 86.8038L99.6343 86.9777L100.605 85.6937L102.046 85.6558L102.395 86.4907L104.242 87.917L105.146 87.1422L106.161 87.7715L106.582 87.2244L107.122 87.1991L107.593 88.3914L108.95 87.6767L108.777 87.0315L109.421 87.003L109.314 86.2883L109.789 86.4211L109.965 87.3351L111.246 89.337L111.318 90.5451L112.147 90.9247L112.584 90.6843L112.977 91.5066L114.032 91.4149L114.679 92.0063L114.371 93.2081L114.484 94.53L114.742 94.5553L113.985 94.666L113.366 95.5326L113.281 95.5547L113.168 95.5705L111.654 96.2283L112.185 97.6705L111.981 98.6351L112.352 99.0747L112.141 99.7388L112.477 100.76L111.912 101.247L110.787 101.317L110.684 102.06L111.488 102.889L110.979 103.186L111.07 104.249L110.634 104.669L111.83 105.909L111.783 106.538L112.392 107.658L113.828 108.657L114.494 110.194L114.214 111.311L113.247 112.073L113.445 113.208L114.013 112.427L114.503 112.503L114.927 113.322L114.959 112.924L115.618 113.174L115.75 112.756L116.695 112.633L116.579 112.279L117.019 112.114L117.729 112.18L118.238 112.759L119.051 112.569L119.478 113.164L119.01 113.509L119.522 113.812L119.24 114.312L119.714 114.657L120.367 114.312L121.08 115.277L120.518 116.434L120.647 117.209L120.364 117.377L120.197 116.886L119.557 116.747L119.883 117.301V117.468L119.525 117.443L119.205 117.997L119.635 118.737L118.549 119.056L118.775 119.913L117.616 120.096L116.724 121.763L115.134 121.776L115.053 122.491L114.685 122.744L114.456 122.503L114.531 122.899L114.023 122.614L113.686 123.689L112.876 124.138L112.54 124.072L112.634 123.623L112.198 123.762L111.566 123.095L111.334 122.405L110.332 122.579L110.42 122.064L109.855 121.608L109.38 121.709L109.314 122.627L107.873 122.933L107.075 121.292L107.053 120.489L106.478 119.872L105.363 120.764L104.792 120.602L104.716 121.488L104.141 121.953L103.353 121.194L103.064 121.893H102.989L102.929 122.484L102.584 122.411L102.241 123.104L102.15 124.66L101.403 125.973L100.815 125.318L100.489 123.819L100.822 123.585L100.605 123.224L100.184 123.303L99.8102 121.735L98.6795 122.076L98.6983 121.039L98.2115 120.498L96.4871 122.263L96.4306 123.256L95.771 123.967L95.9061 124.581L95.1146 125.153L94.9104 125.859L93.1955 126.045L92.8594 125.495L92.448 125.533L91.4272 125.868L91.2639 126.463L90.8242 126.08L90.6703 125.03L90.2902 125.011L90.8367 123.319L89.7877 121.754L89.9416 120.887L89.4014 119.866L89.9196 119.73L90.0295 119.758L90.463 119.394L89.8851 118.31L90.8556 117.898L90.9404 116.88L91.6282 116.352L91.2168 116.058L91.1288 115.308L93.2897 113.164L93.1453 111.763L94.8665 112.544L95.4883 112.133L94.9575 111.627L95.3533 109.103L94.6183 108.322L94.9418 107.484L95.4067 107.459L95.4318 106.184L93.6666 104.024L94.5555 103.256L94.612 103.243L95.0266 103.3L95.8621 102.364L95.9626 101.554L96.5782 101.266L96.4495 100.08L95.7773 99.1158L95.9815 97.8096L94.8916 95.4503L94.2289 95.1467L94.0969 95.3934L93.6572 94.4763L93.3588 94.8779L92.5422 94.2549L92.9537 93.7046L92.3475 93.5306L92.2564 92.8032Z" fill="#FDFBF5" stroke="#171619" stroke-width="0.5"/>
<path d="M126.947 64.9533L126.46 63.8875L126.021 63.954L125.904 64.3714L125.527 64.1279L125.967 63.5112L125.71 63.1159L124.915 63.0811L125.235 62.5687L125.025 62.2303L123.813 61.8793L122.23 61.7781L121.674 62.2208L121.916 62.9735L118.784 63.1064L118.501 63.818L117.873 63.7168L117.635 62.8976L117.223 62.9894L117.32 63.4954L116.862 63.1412L116.699 63.2297L116.117 63.799L115.464 63.4131L115.263 63.8148L114.739 63.4764L113.31 63.7357L113.551 62.749L113.306 62.3221L113.118 62.768L112.747 62.6858L112.584 62.2778L113.011 62.0596L112.364 61.4903L111.959 60.045L111.287 59.7572L111.4 59.1025L110.957 58.9381L111.067 59.2923L110.341 59.6085L109.861 58.6281L109.189 58.7325L109.742 57.926L109.471 57.79L109.71 57.0785L109.167 56.778L109.296 56.4523L108.206 55.1524L107.719 54.9595L107.219 55.3074L107.037 54.6844L106.535 54.4915L106.39 55.0354L106.013 55.086L103.469 55.0291L102.986 55.4972L102.254 55.2916L101.836 56.3606L102.254 57.4485L101.695 58.2897L100.822 58.7515L100.818 59.15L102.024 59.735L101.849 60.0734L102.106 60.0545L102.288 60.9115L103.265 61.7623L102.935 61.9647L103.309 62.8787L102.876 63.3878L102.797 63.4543L101.761 64.1817L101.585 64.9407L102.065 65.2822L101.971 66.5093L99.7065 67.0849L99.6562 67.8724L100.055 67.806L100.677 68.5555L101.032 69.2703L100.812 70.1685L101.333 70.7409L99.8227 71.1742V71.1046L99.6594 71.3481L100.737 73.2836L99.9138 75.2096L101.399 76.6897L102.037 79.3969L101.871 80.4912L102.653 81.2692L102.675 82.5753L102.282 83.4988L102.54 84.5678L102.046 85.6557L102.395 86.4906L104.242 87.917L105.146 87.1421L106.161 87.7715L106.582 87.2244L107.122 87.1991L107.593 88.3914L108.95 87.6766L108.777 87.0314L109.421 87.003L109.314 86.2882L109.789 86.4211L109.965 87.3351L111.246 89.337L111.318 90.5451L112.147 90.9246L112.584 90.6842L112.977 91.5065L114.032 91.4148L114.679 92.0062L114.371 93.208L114.484 94.53L114.742 94.5553L113.985 94.666L113.366 95.5325L113.253 96.6963L114.327 96.9177L114.544 97.5503L116.023 96.9905L117.006 97.4617L117.39 97.0727L117.625 97.389L117.999 97.2024L117.939 97.7527L118.272 97.7938L119.541 97.234L119.971 95.1562L120.662 95.1309L121.253 95.6906L122.095 95.1909L122.745 95.7286L122.993 95.0581L123.549 94.9601L123.948 95.4819L123.542 95.8551L124.281 96.339L124.064 97.0695L124.57 97.4933L124.852 97.4174L126.953 90.9278L127.079 91.2662L127.516 91.0005L128.464 91.5824L129.896 91.2061L129.912 90.9183L130.408 91.1745L130.795 92.079L131.819 92.3003L131.941 91.9809L133.157 91.7184L133.207 91.2345L132.403 90.9056L132.387 90.096L132.987 89.726L132.877 89.1789L133.471 88.6602L132.868 87.7588L132.833 86.9302L132.415 86.9049L132.814 86.1301L131.982 85.2699L133.788 84.7892L132.965 84.2547L132.921 83.7961L132.01 83.891L131.552 82.8916L131.162 83.1003L131.037 82.1516L131.869 81.4842L131.31 81.2186L131.42 80.7885L132.739 80.1528L133.446 78.9542L133.439 78.8561L134.08 76.1837L134.488 75.9023L133.882 75.6461H133.838L134.181 75.1717L134.03 74.1628L133.98 74.1312L133.439 74.1692H133.358L133.442 73.0496L132.506 72.7776L133.044 72.5309L132.777 72.455L132.927 72.1103L133.571 72.1356L134.206 71.016L133.477 69.5676L132.871 70.2539L132.579 70.0514L132.356 70.3234L131.724 69.9661L131.008 70.6017L131.109 69.7194L129.991 69.1375L130.057 68.5903L129.262 69.2481L128.43 68.8244L128.524 68.2994L128.109 68.3563L128.1 68.0021L127.315 68.4765L127.189 66.9964L126.624 66.8952L127.622 66.0982L127.12 64.9533H126.947Z" fill="#FDFBF5" stroke="#171619" stroke-width="0.5"/>
<path d="M20.1737 74.2672L20.5632 74.7385L21.3547 74.7195L21.584 75.3931L22.6016 75.6841L22.4257 76.2217L20.2962 75.9055L19.9727 74.9504L20.1737 74.2672ZM20.4753 45.2282L20.5412 45.9335L22.2907 45.2188V46.1802L23.2518 46.1201L23.3523 46.585L22.8372 46.974L24.3354 47.461L24.1186 48.1505L25.7896 49.58L25.7268 50.6394L27.137 51.4206L26.7884 52.0373L27.1559 51.8823L27.6615 52.7679L27.5485 51.8823L28.2677 52.0911L29.2163 50.5509L30.2716 50.0986L30.0769 49.6527L30.7459 49.5009L30.972 49.9658L32.2943 48.7893L32.7497 49.191L32.0525 50.1492L32.354 50.3485L33.2742 49.6685L33.7014 50.8039L33.5224 51.5345L33.8899 50.3327L34.1097 51.019L34.4835 50.1904L34.8227 50.5351L34.4646 49.8867L35.8278 49.7792L35.966 50.5541L36.4873 50.8956L36.2518 51.1107L36.8014 51.661L36.6381 52.6224L36.9051 52.0152L37.2474 52.1322L36.6193 50.8703L37.1312 51.1455L36.9553 50.7248L36.2801 50.5825L36.4779 50.2473L36.0131 49.8646L36.5564 48.8969L38.4881 48.3244L38.5886 48.9759L38.1614 49.795L39.3392 50.4687L42.0215 49.8678L43.1083 52.7426L43.9846 53.2992L44.864 53.1411L46.1706 51.6578L48.5671 52.3631L48.4226 54.2132L48.8906 55.9052L48.1619 57.1386L48.454 58.3752L48.5074 58.4258L49.2644 62.3031L47.4584 63.0526L46.2648 66.7276L44.7447 66.288L44.4212 65.7219L43.2402 65.5827L43.3156 66.2121L41.3714 66.9806L40.8783 68.0306L38.2682 68.0496L37.0307 68.7738L36.792 68.3374L35.3755 69.1913L35.1619 71.462L34.3893 71.6802L34.3076 72.2969L34.0281 71.8542L33.246 72.2052L32.5456 71.7846L32.3006 72.8535L31.2013 72.9453L30.9186 72.5436L30.4695 73.1034L29.9795 73.0654L29.8978 72.2495L30.6893 72.1293L29.7942 71.6265L25.8053 72.3633L24.5552 71.0667L23.8799 71.0635L23.5344 70.5543L23.3366 70.8105L23.0727 70.3108L23.1356 70.7947L21.7881 70.7536L21.7285 71.8352L22.3566 72.7081L21.6845 72.6227L21.2762 71.5347L21.6342 71.2343L21.4458 70.2476L19.6649 68.5018L18.6944 68.4892L18.6253 68.0053L17.482 68.2962L16.5209 66.9743L14.5422 66.7339L13.9077 66.171L12.2493 66.4493L11.6337 65.5954L11.9007 65.1242L11.5238 65.2918L11.059 64.2703L10.4999 64.6434L10.6883 65.2064L9.81832 65.4341L8.97971 64.8775L8.44891 65.1653L7.86471 66.3418L5.56874 66.3449L5.69123 64.558L4.87147 63.1001L3.70307 62.262L2.94298 62.3664L2.11694 61.8034L0.753806 61.601L1.14641 61.5125L1.04591 61.1013L4.93115 60.2696L6.38536 60.6174L6.87848 59.8205L6.24717 58.3657L4.31868 57.6762L3.86011 57.8091L3.07804 59.0235L2.90529 57.7616L3.2822 57.4738L2.26142 57.3695L2.17347 56.8729L2.9367 56.8223L2.91472 55.8672L3.42668 55.6648L3.12201 56.4112L3.38899 56.7781L3.85697 56.2404L3.81614 56.8413L4.47886 56.5314L5.17613 56.9615L6.36338 56.5061L6.96956 56.854L7.47838 56.193L7.13917 56.4776L5.97077 56.1677L6.41991 55.8609L6.04301 55.6806L6.2189 55.2347L5.50278 55.9463L4.93429 55.9779L5.19184 55.63L4.3972 55.94L5.15415 54.8236L4.84634 54.5769L2.44987 55.7091L1.48877 55.3739L1.14327 55.8451L0.2921 55.8862L0.0628174 55.2568L0.43658 54.8425L0 54.2322L0.446002 53.1695L0.238705 52.2176L0.851173 51.4143L2.40904 51.0126L2.46871 50.4655L3.01836 50.5888L3.2979 49.8172L3.86011 50.1303L5.1353 49.8108L4.6736 49.4693L5.85456 49.0202L6.50786 49.27L6.511 49.8836L7.82388 49.523L7.46896 49.3871L7.94009 48.8273L9.06766 48.6597L9.59846 49.0392L9.67698 48.4509L10.2706 48.024L10.3523 48.3371L10.7543 48.0271L10.7323 49.0834L11.2568 49.308L11.3354 48.5932L11.3605 49.0834L12.3687 49.3523L12.2525 48.7767L12.5603 48.2801L12.7016 48.5521L12.6639 48.1853L14.5359 48.8431L15.0039 48.6502L14.8123 49.3871L15.274 48.8431L15.8111 49.1594L15.7891 48.0809L16.2445 47.6698L15.7765 47.4294L16.0058 46.6735L15.7451 46.4553L16.166 46.7431L16.8224 45.7943L16.992 46.1707L17.1334 45.8291L17.4098 46.2656L17.8149 46.1612L17.6485 46.6135L18.2044 46.5723L19.2221 45.8133L19.9633 45.8924L20.4753 45.2282Z" fill="#FDFBF5" stroke="#171619" stroke-width="0.5"/>
<path d="M82.102 43.7893L82.9092 44.7855L82.6831 45.1872L83.3678 45.8007L83.1479 47.3599L83.7384 47.6445L83.0882 48.5174L83.5468 48.7957L83.4149 49.2669L84.2472 50.2758L84.8848 50.2695L84.8063 51.0095L85.8239 51.4744L85.6763 52.2714L86.0124 53.1917L86.9012 53.7104L87.6896 53.3815L87.6582 54.3872L88.3052 54.4757L88.4434 55.2253L88.0476 56.2689L88.2392 56.699L90.7299 56.4935L90.576 56.1487L90.9624 56.2405L91.245 55.5953L91.801 55.8356L91.7947 56.4935L92.492 56.2215L92.5611 56.0918L92.872 55.8135L93.2803 56.31L93.8708 56.1551L94.1252 57.2557L95.3439 57.9198L95.3501 59.071L94.901 59.1184L94.3859 59.9186L95.8935 59.5833L97.8 59.9281L98.4345 59.4979L98.202 59.0773L98.5475 59.3398L99.0187 59.0394L99.2856 59.8015L99.895 59.286L100.818 59.15L102.024 59.7351L101.849 60.0735L102.106 60.0546L102.288 60.9116L103.265 61.7624L102.935 61.9648L103.309 62.8788L102.876 63.3879L102.797 63.4543L101.761 64.1817L101.585 64.9408L102.065 65.2823L101.971 66.5094L99.7065 67.085L99.6563 67.8725L100.055 67.8061L100.677 68.5556L101.032 69.2704L100.812 70.1685L101.333 70.741L99.8227 71.1743V71.1047L99.6594 71.3482L100.737 73.2837L99.9138 75.2097L101.399 76.6898L102.037 79.397L101.871 80.4913L102.653 81.2693L102.675 82.5754L102.282 83.4989L102.54 84.5679L102.046 85.6558L100.605 85.6937L99.6343 86.9778L99.0124 86.8038L98.5224 87.1454L97.9319 86.6046L97.7466 87.1138L96.7384 87.6546L96.7855 88.2586L96.4871 88.0151L96.0317 88.2523L96.3678 88.6286L95.9846 89.2106L96.4714 89.4825L96.6128 90.2669L95.5951 90.9184L94.9481 90.6622L93.3023 90.9658L92.8123 91.8418L92.4888 91.845L92.2564 92.8033L91.1634 92.6388L89.7531 92.9899L88.324 92.3605L86.5023 92.6894L85.7705 92.1043L85.3088 92.2245L85.4721 92.6957L85.067 93.363L84.5016 92.8286L83.7572 93.4042L83.5091 92.7716L82.6674 93.3188L82.4192 92.6704L80.9776 94.2011L80.1766 93.1828L79.6459 93.2745L79.5202 93.7204L78.4115 93.828L78.289 93.3662L77.8838 93.4643L78.1225 93.1448L78.3235 92.5376L77.5258 92.2561L77.441 91.1429L76.772 90.5831L75.8171 90.5926L75.748 90.0075L74.3943 89.356L74.1588 88.8184L74.6173 87.585L74.4257 86.9588L73.1537 85.7697L72.9087 84.6121L71.712 83.5875L71.5456 82.2339L70.5813 81.5855L69.9312 81.614L70.3301 82.5533L69.1208 82.5217L68.2477 83.0846L67.2929 82.7019L66.7495 83.0625L66.3286 81.9113L66.6081 81.7595L66.4825 80.7443L66.0302 80.9087L65.7287 80.3521L64.8587 80.5925L65.1414 79.9663L64.9027 79.5109L64.6451 79.7829L64.2902 79.6627L64.3593 79.3211L63.5772 79.435L63.2349 78.5716L63.5332 76.3072L64.9027 74.3748L64.5195 74.0332L65.4146 72.0819L65.4743 71.5569L65.0566 71.3261L65.5748 70.2128L65.5591 70.0484L67.5347 70.7252L67.786 70.5639L67.2834 69.7669L67.5284 69.302L68.389 69.7764L68.5806 69.2767L70.3018 68.7517L70.6002 68.3406L70.2987 68.4323L70.1667 67.8599L70.7007 67.1989L71.6775 66.9047L71.5581 66.5885L72.5506 65.6365L72.4439 64.3019L72.8239 64.0837L73.1034 64.5423L73.1568 63.6884L73.5934 63.5334L73.1977 62.6352L73.5055 61.7813L72.9181 61.6359L72.871 60.9812L73.5149 60.9338L73.5432 60.5005L73.1286 60.4088L73.4898 60.3234L73.6185 59.7446L74.4634 59.6371L72.9244 58.5492L73.3484 58.1696L72.7988 57.2398L73.0343 56.6864L72.3716 56.4777L72.5632 56.0286L74.4414 55.0355L75.2486 53.7009L74.7273 52.9861L75.1262 52.0563L73.2039 50.3074L73.16 49.1594L73.7881 48.8084L73.9546 48.2581L75.4214 48.062H75.6915L76.3919 47.4073L77.0703 47.6414L77.152 46.7906L78.468 47.4136L79.9003 47.3504L80.4216 46.9551L80.2866 45.8956L81.5681 45.1492L81.4079 44.1214L82.102 43.7893Z" fill="#FDFBF5" stroke="#171619" stroke-width="0.5"/>
<path d="M125.571 19.2888L126.363 19.6461L125.989 19.994L126.046 20.6423L125.772 20.364L125.367 21.1104L125.644 21.6607L124.971 23.0712L126.259 24.2762L125.722 25.1459L126.083 26.101L125.782 26.6418L127.657 26.4995L128.948 27.2553L129.887 28.6627L131.247 28.6121L132.045 29.4597L131.815 30.3231L132.258 29.9246L132.883 30.2155L131.143 31.7241L130.785 31.1675L129.856 31.2971L129.592 30.7374L129.19 30.7057L128.898 31.7114L128.876 31.8316L128.492 32.5527L129.171 33.4129L129.224 34.1878L128.725 34.5262L129.039 35.0164L128.423 35.2346L128.046 36.3889L128.455 36.7115L128.379 37.1068L127.082 37.85L127.616 38.413L126.928 38.8969L127.776 41.2214L127.267 42.1638L127.833 41.8824L128.194 42.1227L128.166 42.7299L127.647 42.9165L128.235 43.1158L127.933 43.8052L126.916 44.229L126.859 44.2859L126.58 45.2189L126.906 45.7312L126.297 46.6041L127.855 47.73L127.713 50.238L128.474 49.9027L128.656 50.6238L129.281 50.6333L130.49 51.9616L132.004 52.3316L133.835 54.0362L132.849 54.6656L133.48 54.8996L133.282 55.8452L133.967 55.355L134.557 55.5195L135.396 56.9743L135.691 56.6232L136.241 57.0945L136.081 57.61L136.681 57.7618L137.233 58.4734L136.593 58.8402L136.464 60.2349L135.908 60.684L136.803 60.8548L137.136 61.4968L137.849 61.6992L137.99 63.2805L138.766 62.8283L139.259 63.7992L139.253 64.302L138.813 64.1787L138.439 64.8681L138.518 65.235L137.642 65.0927L137.394 65.8612L136.734 65.8454L136.539 66.6582L136.966 67.2875L136.731 68.4956L135.506 68.7392L135.123 68.0529L134.576 68.7233L133.075 68.6949L132.579 70.0516L132.356 70.3236L131.724 69.9662L131.008 70.6019L131.109 69.7196L129.991 69.1376L130.057 68.5905L129.262 69.2483L128.43 68.8245L128.524 68.2996L128.109 68.3565L128.1 68.0023L127.315 68.4767L127.189 66.9966L126.624 66.8954L127.622 66.0984L127.12 64.9535H126.947L126.46 63.8877L126.021 63.9541L125.904 64.3716L125.527 64.1281L125.967 63.5114L125.71 63.1161L124.915 63.0813L125.235 62.5689L125.025 62.2305L123.813 61.8795L122.23 61.7783L121.674 62.221L121.915 62.9737L118.784 63.1066L118.501 63.8182L117.873 63.7169L117.634 62.8978L117.223 62.9896L117.32 63.4956L116.862 63.1414L116.698 63.2299L116.117 63.7992L115.464 63.4133L115.263 63.815L114.739 63.4766L113.309 63.7359L113.551 62.7492L113.306 62.3222L113.118 62.7682L112.747 62.6859L112.584 62.278L113.011 62.0597L112.364 61.4905L111.959 60.0452L111.287 59.7574L111.4 59.1027L110.957 58.9383L111.067 59.2925L110.341 59.6087L109.861 58.6283L109.189 58.7327L109.741 57.9262L109.471 57.7902L109.71 57.0787L109.167 56.7782L109.295 56.4525L108.206 55.1526L107.719 54.9597L107.219 55.3076L107.037 54.6846L106.626 52.9103L107.336 52.6985L106.927 51.9584L107.898 51.6864L107.687 51.1172L108.328 50.7345L108.168 50.4404L108.925 50.2063L108.413 49.8837L108.595 49.6181L107.511 49.8395L107.734 47.8027L106.773 47.4011L107.411 46.7686L106.89 46.4049L107.983 46.3005L107.957 45.5415L108.517 44.3492L109.069 44.2986L109.113 43.8052L109.496 43.7356L109.327 43.3909L110.47 42.3156L110.118 41.7369L109.264 41.8602L109.286 41.3953L109.955 41.0569L109.468 40.2093L109.748 39.5926L110.828 39.7571L111.394 39.425L111.403 38.9791L110.957 39.0645L110.75 38.4636L110.533 38.6597L110.162 38.3434L110.48 37.9038L110.049 36.3225L111.78 35.4623L112.738 35.6932L112.794 34.9816L113.683 34.4471L114.151 35.0385L115.156 35.3832L115.175 33.8114L115.574 33.6659L115.219 32.4294L115.715 32.072L115.329 31.6608L115.697 31.1295L114.987 30.1017L115.216 29.7823L116.18 29.8771L116.328 28.9663L117.094 28.5425L117.939 27.366L117.367 26.9011L117.983 25.1079L118.014 24.3837L117.518 24.1845L117.707 23.2673L118.721 23.0554L120.499 23.7006L122.474 22.698L123.709 22.5178L123.542 21.0788L123.831 20.4905L125.424 18.9946L125.571 19.2888Z" fill="#FDFBF5" stroke="#171619" stroke-width="0.5"/>
<path d="M176.946 180.686L177.327 179.838L178.215 179.746L178.778 179.032L177.424 178.567L177.025 178.82L176.937 178.095L176.051 178.44L176.02 178.13L175.423 178.108L176.359 177.476L176.117 177.023L176.896 176.859L177.05 176.492L176.623 176.271L177.113 176.176L176.984 175.606L177.305 175.385L176.588 174.718L176.208 175.161L174.757 175.41L174.958 174.686L174.559 174.155L175.288 174.095L175.442 173.323L176.579 172.668L175.96 171.565L175.429 171.773L174.814 171.169L174.406 171.286L174.462 170.872L174.101 170.976L174.569 170.578L174.145 170.521L174.406 169.917L173.872 169.354L175.891 168.835L175.442 168.203L174.713 168.146L174.852 167.365L174.041 167.646L173.934 166.916L174.773 166.716L174.729 166.188L175.376 166.207L175.288 165.726L175.7 165.255L175.294 165.084L175.527 164.427L176.227 164.256L176.045 163.472L176.299 163.203L176.321 163.617L176.683 163.437L177.122 163.753L177.295 162.886L178.14 162.782L178.991 162.102L180.072 162.197L180.662 161.84L180.628 161.213L181.501 160.587L182.766 160.521L183.768 161.565L184.368 160.508L184.337 159.458L183.907 158.778L184.309 158.196L184.07 157.586L184.582 157.156L184.306 155.907L185.389 155.597L185.917 156.043L186.3 159.249L185.687 161.596L186.818 163.854L187.157 170.1L187.035 171.723L185.245 174.364L184.915 179.759L184.34 179.993L184.503 180.262L183.897 180.056L183.514 180.619L183.63 180.992L184.029 180.467L184.695 180.654L184.359 181.271L183.451 181.77L183.514 182.928L182.792 183.307L182.609 183.817L183.344 183.557L183.266 183.813L182.763 184.639L182.226 184.68L181.928 184.19L181.099 184.158L181.454 183.399L180.794 183.285L180.917 182.643L180.395 183.07L179.861 182.488L179.663 182.77L178.84 182.504L178.266 181.891L177.829 182.004L177.974 181.495L177.107 181.34L177.33 181.005L176.946 180.686Z" fill="#FDFBF5" stroke="#171619" stroke-width="0.5"/>
<path d="M139.259 63.7992L139.89 62.7935L140.245 62.9737L139.824 63.562L140.107 63.6063L140.801 63.2046L141.285 62.2843L142.529 61.9744L142.56 61.9965L142.705 63.0085L143.427 63.581V63.6822L145.839 63.1224L146.439 63.4924L146.998 64.5898L148.628 63.4102L149.187 64.2325L151.656 65.8327L152.049 66.6012L153.013 66.8258L154.272 67.7619L154.395 68.755L153.867 70.1054L154.919 70.2857L155.664 71.6076L155.526 72.0283L153.575 72.2022L153.82 72.9865L153.016 73.3882L152.218 74.9379L154.009 74.5489L154.433 74.7544L154.521 75.3047L153.93 75.4818L153.751 76.0606L153.054 76.2061L153.214 77.0663L151.728 78.4325L151.958 78.5685L151.697 78.8721L149.922 80.1593L150.136 80.757L148.858 81.8703L147.234 82.2277L146.386 83.1132L146.807 83.8627L146.373 85.3302L146.653 86.0417L142.196 89.8242L142.799 90.4219L141.703 91.9906L141.599 92.8761L139.055 95.7446L137.174 95.8173L137.023 94.9002L136.147 94.6187L136.099 94.2297L134.743 95.6719L133.891 95.7509L133.913 94.78L133.414 94.7832L133.248 94.1665L132.981 94.8749L132.428 93.7427L132.632 93.515L131.617 92.9299L131.818 92.3005L131.941 91.9811L133.156 91.7186L133.207 91.2347L132.403 90.9058L132.387 90.0962L132.987 89.7262L132.877 89.179L133.471 88.6604L132.867 87.759L132.833 86.9304L132.415 86.9051L132.814 86.1303L131.982 85.2701L133.788 84.7894L132.965 84.2549L132.921 83.7963L132.01 83.8912L131.551 82.8918L131.162 83.1005L131.036 82.1518L131.869 81.4844L131.31 81.2188L131.42 80.7887L132.739 80.153L133.445 78.9544L133.439 78.8563L134.08 76.1839L134.488 75.9025L133.882 75.6463H133.838L134.18 75.1719L134.03 74.163L133.979 74.1314L133.439 74.1693H133.357L133.442 73.0498L132.506 72.7778L133.043 72.5311L132.776 72.4552L132.927 72.1105L133.571 72.1358L134.206 71.0162L133.477 69.5678L132.871 70.254L132.579 70.0516L133.075 68.6949L134.576 68.7234L135.123 68.0529L135.506 68.7392L136.731 68.4956L136.966 67.2875L136.539 66.6582L136.734 65.8454L137.393 65.8612L137.642 65.0927L138.518 65.235L138.439 64.8681L138.813 64.1787L139.253 64.302L139.259 63.7992Z" fill="#FDFBF5" stroke="#171619" stroke-width="0.5"/>
<path d="M84.7371 37.9734L85.2082 38.1252L85.0449 38.7134L85.1642 38.7103L85.3998 39.0993L86.0374 38.9032L87.077 39.3554L88.6254 39.0929L89.6556 38.4035L90.824 39.3396L91.4491 39.0234L91.6375 39.5863L92.3222 39.4155L92.6897 38.8811L93.2613 39.6496L93.4875 39.4155L94.3355 39.678L94.2601 39.9374L94.5962 39.7887L95.1678 40.2505L94.992 40.4782L95.5385 40.6078L95.8023 40.1145L96.2075 41.0063L96.8513 40.4339L98.1705 41.3827L99.1379 40.6648L99.7064 41.1929L101.233 40.7691L101.478 41.1771L101.757 40.7691L102.508 40.8956L102.552 40.2599L103.444 40.4782L104.122 41.5977L103.818 42.3536L104.911 43.1474L105.084 43.8179L105.608 43.6218L105.922 44.4314L106.425 44.0266L106.626 45.1493L107.442 45.3802L107.643 45.8324L107.957 45.5415L107.983 46.3005L106.89 46.4049L107.411 46.7686L106.773 47.4011L107.734 47.8027L107.511 49.8395L108.595 49.6181L108.413 49.8837L108.925 50.2063L108.168 50.4404L108.328 50.7345L107.687 51.1172L107.898 51.6864L106.927 51.9584L107.336 52.6985L106.626 52.9103L107.037 54.6846L106.535 54.4916L106.39 55.0356L106.013 55.0862L103.469 55.0293L102.985 55.4974L102.254 55.2918L101.836 56.3607L102.254 57.4487L101.695 58.2899L100.821 58.7517L100.818 59.1502L99.8948 59.2861L99.2855 59.8016L99.0185 59.0395L98.5474 59.3399L98.2019 59.0774L98.4343 59.498L97.7999 59.9282L95.8934 59.5834L94.3858 59.9187L94.9009 59.1185L95.35 59.0711L95.3437 57.9199L94.1251 57.2558L93.8707 56.1552L93.2802 56.3101L92.8719 55.8136L92.5609 56.0919L92.4918 56.2216L91.7946 56.4936L91.8008 55.8358L91.2449 55.5954L90.9622 56.2406L90.5759 56.1488L90.7298 56.4936L88.2391 56.6991L88.0475 56.269L88.4433 55.2254L88.3051 54.4758L87.6581 54.3873L87.6895 53.3816L86.9011 53.7105L86.0122 53.1918L85.6762 52.2715L85.8238 51.4745L84.8062 51.0096L84.8847 50.2696L84.2471 50.2759L83.4148 49.267L83.5467 48.7958L83.0881 48.5175L83.7383 47.6446L83.1478 47.36L83.3676 45.8008L82.6829 45.1873L82.9091 44.7856L82.1019 43.7894L81.9888 43.2549L82.3343 43.0272L81.6998 43.081L81.8066 42.3188L81.4109 41.5313L81.9354 41.5882L82.2118 40.8925L82.3531 41.2151H82.4222L83.6786 40.8925L84.7371 37.9734Z" fill="#FDFBF5" stroke="#171619" stroke-width="0.5"/>
<path d="M101.403 125.973L102.15 124.663L102.241 123.107L102.584 122.415L102.929 122.488L102.989 121.896H103.064L103.353 121.197L104.138 121.956L104.716 121.491L104.792 120.609L105.363 120.77L106.475 119.878L107.05 120.495L107.072 121.302L107.87 122.94L109.311 122.636L109.374 121.719L109.848 121.618L110.414 122.073L110.329 122.586L111.331 122.415L111.56 123.104L112.191 123.772L112.628 123.632L112.534 124.082L112.87 124.148L113.413 126.903L114.06 127.336L114.525 129.145L115.577 130.369L115.207 130.625L115.307 131.947L116.375 131.624L118.037 132.934L118.938 131.593L119.795 131.444L119.843 132.469L120.395 132.602L120.593 131.593L121.272 131.495L123.15 132.832L123.458 133.838L123.904 133.86L124.089 134.35L124.076 136.28L124.937 136.567L125.694 137.962L125.295 137.981L125.298 138.437L123.049 140.189L123.385 140.584L122.672 142.744L122.87 143.468L121.724 143.076L121.011 143.256L120.235 144.581L120.832 144.79L120.697 145.208L119.026 146.182L118.765 145.831L118.894 146.321L117.826 146.843L117.688 147.554L116.444 147.089L116.237 146.669L116.498 146.261L116.08 145.884L114.321 146.017L111.092 148.636L110.04 148.943L108.25 151.03L108.312 150.717L108.228 151.008L105.982 150.638L106.098 151.017L104.003 152.732L102.722 154.816L102.229 156.451L102.448 157.282L102.034 161.1L102.273 164.009L103.494 164.436L103.35 165.034L103.925 165.875L102.772 166.04L102.178 165.195L101.217 165.331L100.957 165.034L100.573 165.493L99.5526 165.448L98.7548 166.28L98.1706 166.065L97.4043 166.41L97.1059 166.736L97.3666 167.548L96.1259 167.235L95.5197 167.687L94.8916 167.558L94.2508 166.615L91.9549 165.825L91.2325 166.22L90.6326 166.081L89.7186 167.166L88.8203 167.415L88.1293 166.811L87.7461 165.559L87.0488 165.625L86.295 164.952L85.0638 164.809L85.1863 163.731L85.8145 163.402L86.8918 163.291L87.3033 162.668L88.2549 162.637L88.5722 161.849L90.7362 161.814L90.9058 161.495L89.7092 160.243L88.657 160.562L87.4729 160.126L87.6362 159.813L86.763 158.962L86.9735 158.443L88.4245 158.121L88.3429 157.064L87.743 156.837L88.0508 156.444L88.6884 156.473L88.2047 155.654L88.412 155.214L87.8404 154.892L88.123 154.578L87.9785 153.788L87.4949 153.421L87.1651 153.74L86.6594 152.947L86.6562 153.196L85.7799 153.095L84.7937 152.396L85.001 151.789L84.5393 150.916L85.1455 150.182L84.9696 149.689L86.16 149.695L86.0029 148.772L86.6625 147.871L87.2153 148.709L87.5168 148.26L87.5922 148.266L88.4403 148.478L89.0747 147.991L89.5333 148.709L90.8085 148.335L91.3864 148.924L91.4743 148.064L91.9517 147.554L93.7546 148.339L94.2163 147.988L96.506 148.073L97.2943 147.368L97.376 146.539L96.6096 145.625L97.0022 143.933L97.9728 144.208L98.4313 144.762L100.401 144.028L100.611 143.396L101.428 143.051L102.417 143.342L102.455 140.771L104.408 141.15L104.876 140.862L104.694 140.261L105.077 139.686L106.108 139.695L106.296 138.693L107.38 137.791L107.468 137.311L106.692 136.722L106.205 136.871L105.922 136.359L105.457 136.542L105.046 136.087L105.822 135.812L105.991 134.898L106.484 134.692L106.353 134.123L104.295 134.309L104.635 133.569L103.73 133.307L103.614 132.75L103.205 132.984L103.639 132.149L103.187 131.14L103.513 129.768L102.496 128.585L102.744 127.551L101.403 125.973ZM87.9189 165.436L88.6161 165.622L88.3021 164.917L87.9189 165.436Z" fill="#FDFBF5" stroke="#171619" stroke-width="0.5"/>
<path d="M77.884 93.4642L78.2892 93.3661L78.4116 93.8279L79.5204 93.7203L79.646 93.2744L80.1768 93.1827L80.9777 94.201L82.4194 92.6703L82.6675 93.3187L83.5093 92.7716L83.7574 93.4041L84.5018 92.8285L85.0671 93.363L85.4723 92.6957L85.309 92.2244L85.7707 92.1042L86.5025 92.6893L88.3242 92.3604L89.7533 92.9898L91.1635 92.6387L92.2565 92.8032L92.3476 93.5306L92.9538 93.7045L92.5424 94.2548L93.359 94.8778L93.6574 94.4762L94.0971 95.3933L94.229 95.1467L94.8917 95.4503L95.9816 97.8096L95.7774 99.1157L96.4496 100.08L96.5784 101.266L95.9628 101.554L95.8622 102.364L95.0268 103.3L94.6122 103.243L94.5556 103.256L93.6668 104.024L95.4319 106.184L95.4068 107.459L94.942 107.484L94.6185 108.322L95.3534 109.103L94.9577 111.627L95.4885 112.133L94.8666 112.544L93.1454 111.763L93.2899 113.164L91.129 115.308L91.2169 116.058L91.6284 116.352L90.9405 116.88L90.8557 117.898L89.8852 118.31L90.4631 119.394L90.0297 119.758L89.9197 119.73L89.4015 119.866L88.4184 119.897L87.9253 120.302L87.4071 119.834L86.0251 120.849L85.3529 120.58L83.9961 118.891L82.6832 118.869L82.5827 118.547L81.408 119.046L80.494 117.462L80.9369 117.095L79.5863 116.943L78.8922 116.339L78.9582 116.33L79.3382 115.912L78.5373 115.621L79.1906 114.698L78.531 114.356L78.6535 113.436L79.0241 113.417L79.7968 112.377L78.911 111.943L79.3916 111.364L77.1396 110.574L77.7332 109.641L77.0736 109.23L76.6779 109.543L75.7985 108.053L74.2217 108.234L73.8511 107.829L73.113 108.724L72.3215 107.924L72.6262 106.994L71.9226 106.466L71.04 106.602L70.7385 106.194L71.841 105.216L71.8001 104.429L72.7235 104.666L73.2952 102.952L73.1005 102.035L74.0144 102.202L74.8625 101.307L74.5735 100.545L74.0458 100.125L73.7066 100.387L73.135 99.783L73.402 98.9196L73.0816 98.4105L73.5653 98.1448L72.8617 96.728L73.6187 96.3738L74.2908 95.289L75.6351 95.4471L76.1942 93.8848L77.2558 94.1694L77.6139 93.3724L77.884 93.4642Z" fill="#FDFBF5" stroke="#171619" stroke-width="0.5"/>
<path d="M133.179 30.535L133.659 31.2023L133.885 32.6097L134.978 31.9613L135.695 32.4199L136.097 31.5565L137.447 31.7842L137.802 31.294L138.638 31.7083L139.049 32.5939L140.321 32.7014L140.522 33.5584L141.304 33.628L141.712 33.2359L142.064 33.5078L142.416 32.7109L143.873 32.2902L145.513 33.3782L146.348 33.0461L148.016 34.153L147.796 34.5357L148.594 35.2726L148.154 35.6458L149.495 36.993L149.376 37.4168L149.75 37.6002L149.835 38.277L150.202 38.2296L150.045 38.8495L150.397 39.3112L151.66 39.5326L152.005 38.9791L151.694 38.3403L153.001 38.1379L154.241 38.7831L154.467 40.3201L155.089 39.4883L155.843 40.1967L157.002 40.007L157.627 40.3074L158.048 39.735L158.522 39.7413L158.554 39.1784L159.593 38.9349L159.477 39.3144L160.237 39.229L160.683 40.6553L162.031 41.1392L162.103 41.525L161.343 43.4511L160.799 43.9413L159.694 43.2233L158.048 43.723L157.589 43.4795L157.633 43.1158L155.441 42.477L155.074 41.0506L154.672 41.291L154.213 43.47L153.667 43.3688L153.513 43.9286L153.06 43.9254L153.202 44.7193L154.427 45.0956L154.452 45.4055L155.033 45.336L154.458 45.7028L154.471 46.2626L154.954 46.3512L154.813 46.8856L155.441 46.5378L155.793 45.6775L157.184 46.1361L157.043 46.4207L157.9 47.2272L156.958 48.7199L157.26 49.3082L157.769 49.3556L156.644 51.4872L155.95 51.9774L154.643 52.0407L155.542 52.5657L154.964 52.4518L155.322 53.0274L154.901 54.5296L155.206 54.9376L154.785 55.4341L155.319 55.8105L156.142 55.684L156.393 56.2627L154.571 59.5076L154.797 60.2097L153.798 61.9365L153.06 62.3634L152.643 63.9352L152.869 64.1218L152.442 64.4918L152.743 65.292L151.656 65.8328L149.188 64.2325L148.629 63.4102L146.999 64.5899L146.439 63.4924L145.84 63.1224L143.427 63.6822V63.581L142.705 63.0086L142.56 61.9965L142.529 61.9744L141.285 62.2843L140.802 63.2047L140.107 63.6063L139.825 63.562L140.246 62.9738L139.891 62.7935L139.259 63.7992L138.766 62.8283L137.991 63.2806L137.849 61.6993L137.136 61.4968L136.803 60.8548L135.908 60.6841L136.464 60.235L136.593 58.8403L137.234 58.4734L136.681 57.7618L136.081 57.61L136.241 57.0945L135.691 56.6233L135.396 56.9743L134.558 55.5195L133.967 55.3551L133.282 55.8453L133.48 54.8997L132.849 54.6656L133.835 54.0363L132.004 52.3316L130.49 51.9616L129.281 50.6333L128.656 50.6238L128.474 49.9028L127.714 50.238L127.855 47.7301L126.297 46.6042L126.906 45.7313L126.58 45.2189L126.859 44.286L126.916 44.2291L127.934 43.8053L128.235 43.1158L127.648 42.9166L128.166 42.73L128.194 42.1228L127.833 41.8824L127.268 42.1639L127.776 41.2214L126.928 38.8969L127.616 38.413L127.082 37.8501L128.379 37.1069L128.455 36.7116L128.047 36.389L128.423 35.2346L129.039 35.0164L128.725 34.5262L129.224 34.1878L129.171 33.413L128.493 32.5527L128.876 31.8317L128.898 31.7115L129.19 30.7058L129.592 30.7374L129.856 31.2972L130.785 31.1675L131.143 31.7241L132.883 30.2156L133.179 30.535Z" fill="#FDFBF5" stroke="#171619" stroke-width="0.5"/>
<path d="M61.0804 150.239L61.1558 150.29L61.4793 151.087L60.9359 151.479L60.691 150.926L60.9454 150.315L61.0364 150.246L61.0804 150.239ZM61.4636 149.158L61.539 150.287L61.3223 150.233L61.0082 149.929L61.3882 149.774L61.338 149.094L61.4636 149.158ZM81.4081 119.047L82.5827 118.547L82.6832 118.869L83.9961 118.892L85.353 120.584L86.0251 120.852L87.4071 119.837L87.9253 120.305L88.4216 119.9L89.4015 119.869L89.9418 120.89L89.7879 121.757L90.8369 123.319L90.2904 125.014L90.6736 125.03L90.8275 126.08L91.2641 126.463L91.4305 125.868L92.4513 125.533L92.8659 125.495L93.1988 126.045L94.9137 125.859L95.1179 125.157L95.9094 124.584L95.7775 123.971L96.4371 123.256L96.4905 122.266L98.2179 120.501L98.7048 121.042L98.6859 122.08L99.8166 121.738L100.19 123.307L100.611 123.224L100.828 123.585L100.495 123.819L100.825 125.318L101.409 125.969L102.763 127.535L102.515 128.569L103.532 129.752L103.206 131.125L103.658 132.133L103.224 132.968L103.633 132.734L103.749 133.291L104.654 133.553L104.314 134.293L106.372 134.107L106.504 134.676L106.01 134.882L105.841 135.796L105.065 136.071L105.476 136.526L105.941 136.343L106.224 136.855L106.711 136.707L107.487 137.295L107.399 137.775L106.315 138.677L106.127 139.679L105.096 139.67L104.713 140.245L104.895 140.846L104.427 141.134L102.474 140.755L102.436 143.326L101.447 143.035L100.63 143.38L100.42 144.012L98.4504 144.746L97.9918 144.192L97.0213 143.917L96.6286 145.609L97.395 146.523L97.3134 147.352L96.525 148.057L94.2353 147.972L93.7736 148.323L91.9708 147.538L91.4933 148.048L91.4054 148.908L90.8275 148.32L89.5523 148.693L89.0937 147.975L88.4593 148.462L87.6112 148.25L87.5359 148.244L87.2343 148.693L86.6816 147.855L86.022 148.756L86.179 149.68L84.9886 149.673L85.1645 150.167L84.5583 150.9L85.02 151.773L84.8127 152.38L85.799 153.079L86.6753 153.181L86.6784 152.931L87.1841 153.724L87.5139 153.405L87.9976 153.772L88.1421 154.563L87.8594 154.876L88.431 155.198L88.2237 155.638L88.7074 156.457L88.0698 156.428L87.762 156.821L88.3619 157.048L88.4436 158.105L86.9925 158.427L86.7821 158.946L87.6552 159.797L87.4919 160.11L88.676 160.546L89.7282 160.227L90.9248 161.479L90.7552 161.799L88.5912 161.833L88.274 162.621L87.3223 162.652L86.9108 163.276L85.8335 163.386L85.9089 163.143L85.0389 163.102L85.1677 162.627L83.3868 162.453L82.7523 161.935L81.8321 162.007L81.8038 162.671L81.2793 162.874L80.2271 160.806L78.5907 160.654L77.7929 160.995L76.6182 159.575L75.3745 159.607L75.0667 159.265L74.6207 159.559L71.7782 158.266L71.1343 158.664L71.2788 159.272L70.949 159.661L71.2317 159.797L70.9113 160.16L71.3793 160.666L71.3479 161.296L70.324 161.036L68.0437 161.302L67.2302 160.711L66.3728 161.612L65.9205 160.859L64.8337 160.483L62.5095 161.41L61.7965 161.28L61.6426 160.831L61.0741 160.682L60.4491 159.398L60.0911 159.594L58.4609 158.481L58.2756 157.27L58.8787 156.972L58.7907 155.698L59.1456 155.129L60.1978 154.866L60.0282 153.75L60.6407 153.487L61.0145 152.57L61.6615 152.624L61.5924 151.798L61.9033 151.874L62.3211 150.941L61.9442 150.385L62.9335 149.578L62.5001 149.11L62.5378 147.795L61.6709 148.414L61.6897 147.475L62.3085 147.314L61.6835 145.944L61.3285 146.03L61.2909 145.334L60.2387 145.075L59.4378 145.321L59.3247 144.724L58.9038 144.676L58.8755 144.23L59.3938 144.018L59.2933 143.07L60.0125 142.526L59.5979 141.242L60.0282 141.21L59.8304 140.344L60.1193 140.151L59.4252 139.619L60.2073 138.863L61.2971 139.06L62.0729 138.044L62.6351 138.595L62.2739 139.047L63.3167 139.645L63.5397 139.271L63.2727 138.459L64.2024 137.725L64.5888 138.25L65.0473 137.481L65.5593 137.355L66.467 137.924L66.6523 137.583L68.3201 137.225L68.5651 136.729L69.8026 136.744L70.2863 136.286L71.2097 137.304L72.2053 136.624L72.4346 135.793L72.9748 135.726L72.8586 135.135L73.8103 135.445L74.2281 135.239L74.115 134.562L73.6972 134.398L74.3914 134.278L74.9662 132.753L73.9045 132.102L74.2563 130.805L74.5704 130.751L74.8437 131.463L74.9819 131.162L76.4109 131.09L76.3356 129.973L75.8425 129.644L75.8362 128.522L75.3745 127.839L75.8142 127.968L76.9732 127.301L76.8475 126.931L77.617 126.096L77.5385 125.527L78.5216 125.274L79.7214 124.233L79.4921 123.205L80.3747 122.927L80.3213 122.326L81.3421 121.668L80.9778 121.08L81.3547 120.969L80.9872 119.549L80.9338 119.331L81.4081 119.047Z" fill="#FDFBF5" stroke="#171619" stroke-width="0.5"/>
<path d="M95.9249 0.708422L96.0914 1.80268L96.8484 2.95071L96.305 3.5263L96.4275 4.98109L96.8923 5.75277L98.0356 5.79705L98.9653 7.58075L99.6469 7.61238L100.426 8.24806L101.026 7.01148L103.614 6.224L104.135 7.56494L105.04 8.05198L104.76 8.95332L105.442 11.7079L106.544 12.3911L107.474 12.0748L107.832 11.5245L108.407 11.7238L108.168 12.4701L109.575 12.2899L110.254 13.0995L110.232 14.88L110.882 16.202L111.397 15.2564L112.735 15.2374L113.41 15.7529L115.009 15.0951L115.684 16.0818L116.215 16.2336L116.485 17.1666L116.871 17.1603L116.809 16.5277L117.412 16.8788L117.578 17.2741L116.661 18.0901L116.717 19.1084L116.372 19.7125L117.308 19.7251L117.701 21.025L116.787 21.4551L116.548 22.8498L115.819 23.0648L114.428 22.5715L114.45 21.5373L113.215 22.2457L113.014 21.6701L110.96 21.0123L110.298 21.3381L110.241 21.8283L109.647 21.92L108.733 21.3159L108.042 22.0623L106.384 21.6828L105.938 22.1066L105.266 22.1382L105.018 21.7682L103.893 22.1951L102.873 21.3539L101.83 21.2242L101.264 21.5816L100.602 21.4298L99.8667 22.0117L99.7851 20.851L98.3434 21.5373L98.7768 20.1616L98.111 19.8643L97.8189 19.8422L97.7718 20.7783L96.104 20.1236L96.1291 19.5765L95.7993 19.5227L95.548 20.111L95.3062 19.5575L94.8696 19.6113L94.0561 20.6518L93.5002 20.1995L93.6541 19.3013L95.0486 18.4664L94.4801 17.7327L93.8928 17.6473L93.2709 18.2229L92.9286 17.5588L92.8595 18.0901L92.1151 17.7675L90.5415 18.555L90.2808 18.1596L89.7029 18.3431L89.5867 17.2899L87.8875 16.5594L87.699 16.3222L88.1356 15.8699L87.9001 15.6738L87.3944 16.0755L86.0438 15.0666L84.2221 15.6991L83.9174 15.2437L82.7742 14.2507L83.195 11.417L83.8264 11.9325L83.06 10.7781L82.881 7.5428L82.9343 7.23919L83.0537 7.73572L83.2893 7.40997L83.5468 5.93304L83.1228 4.53517L84.1687 4.22523L85.2586 3.01396L86.9013 2.47632L86.5181 2.40358L89.8285 1.54335L89.995 1.75841L90.686 1.04366L90.5415 1.41684L90.9435 1.80268L91.1603 1.04366L91.2671 1.28718L93.2018 0.61987L93.563 0.882365L95.6988 0L95.9249 0.708422Z" fill="#FDFBF5" stroke="#171619" stroke-width="0.5"/>
<path d="M37.3071 27.9922L37.9289 28.4128L38.3875 28.1725L38.7456 28.7259L41.4373 29.3679L41.3745 29.836L41.5378 29.3901L43.1176 29.1655L43.2998 28.5836L46.0135 28.5994L46.4846 30.4053L46.1454 30.2851L45.9161 31.1263L45.9224 30.8449L45.5864 30.9081L45.4356 31.607L47.2981 34.4407L46.8427 35.9018L47.4552 35.3389L47.964 35.7153L48.5011 34.7918L49.927 34.64L52.6659 35.6141L57.3771 35.9335L58.8753 36.7463L59.3433 36.5786L59.6134 36.9866L62.4999 36.1011L64.174 34.5641L65.4334 34.0296L63.9635 33.9663L66.2375 33.9315L66.7683 35.7975L66.3851 36.2814L66.7495 36.6704L66.5673 36.9329L67.2614 36.6577L67.5347 36.8917V37.3187L66.7118 37.6381L67.676 38.394L67.5535 39.5262L68.1786 39.7824L67.7545 40.4718L68.0027 41.0885L67.3211 41.5408L68.3701 42.2808L67.5378 44.3492L68.4392 45.0133L69.7144 45.1019L70.1039 44.7318L70.2201 45.1493L70.5593 45.0323L70.4902 45.4908L70.8326 45.4972L70.4808 45.9399L72.403 47.2303L72.6103 47.8185L72.0104 48.4289L72.5538 48.6598L72.5789 49.1721L73.1631 49.1626L73.2102 50.3107L75.1324 52.0596L74.7335 52.9894L75.2549 53.701L74.4508 55.0387L72.5695 56.0318L72.3779 56.4809L73.0406 56.6865L72.805 57.2399L73.3547 58.1697L72.9307 58.5492L72.1517 58.6662L71.0524 57.1798L70.8608 57.7839L69.5134 57.4739L68.9135 56.2658L68.7816 56.4935L67.6446 56.035L67.5158 54.0046L66.4542 52.8977L64.4158 53.3562L64.5791 53.6725L63.461 54.3208L63.2882 54.9312L62.5187 54.5422L61.8654 54.9913L61.8686 53.4796L60.6154 53.3657L60.2636 52.3063L60.6311 51.9615L59.8239 51.2563L59.2774 51.2436L59.3779 51.7971L58.9853 52.3695L58.3351 52.0722L57.9174 52.8281L57.3489 52.3189L55.8727 52.3379L55.3356 53.0463L54.029 53.6187L53.8719 52.8059L53.5422 53.1412L53.0019 53.04L53.2218 53.5049L52.6187 53.78L52.3738 53.2013L51.9183 53.4005L51.5069 52.5308L50.6777 52.5846L50.0684 52.1766L49.4371 52.73L48.5827 52.3569L46.1863 51.6516L44.8797 53.1349L44.0002 53.293L43.1239 52.7364L42.0372 49.8616L42.813 50.1462L42.8287 49.7983L43.0957 50.0924L43.9406 49.6939L44.8797 49.9027L44.1227 49.3714L44.4525 49.0456L43.6547 49.4504L42.0686 47.6288L42.0121 46.1423L41.4907 45.8767L42.4486 43.9507L42.1628 43.7641L42.2288 42.0658L42.9198 42.1859L42.1911 41.8317L41.9587 42.5907L41.676 41.8286L41.4813 38.2327L42.0906 38.1726L41.4781 37.9133L41.3179 38.4098L40.2689 36.0157L38.9309 35.1302L38.4315 32.4862L37.9132 31.8759L38.5288 31.1326L38.4252 29.915L38.0766 29.3521L37.1375 29.0295L37.3071 27.9922Z" fill="#FDFBF5" stroke="#171619" stroke-width="0.5"/>
<path d="M80.4909 21.1292L81.4206 21.0122L81.4677 21.6352L84.8535 24.7441L85.1425 26.202L85.8178 27.2678L85.3404 27.2489L84.5552 28.6372L84.7782 28.9219L85.3686 28.6372L84.6619 29.6619L84.9729 30.0857L84.7059 30.9111H84.6494L85.3309 31.8062L84.9258 32.4988L85.2838 32.7897L85.4754 32.3406L85.8775 32.4988L85.6388 33.1819L85.5131 33.2641L84.8818 34.4406L85.2179 34.4754L84.9792 34.7221L85.4943 35.2724L85.6419 36.7714L86.0533 37.1162L85.8586 37.6886L85.4534 37.1604L84.819 37.3154L84.7468 37.9764L83.6851 40.8955L82.4288 41.2181L82.3597 41.2212L82.2184 40.8986L81.942 41.5976L81.4174 41.5406L81.8132 42.3281L81.7064 43.0872L82.3409 43.0365L81.9922 43.2643L82.1084 43.7987L81.4143 44.1308L81.5745 45.1618L80.293 45.905L80.4281 46.9645L79.9067 47.363L78.4745 47.4262L77.1553 46.8032L77.0768 47.6539L76.3983 47.4199L75.6979 48.0746H75.4278L73.961 48.2675L73.7946 48.8178L73.1664 49.172L72.5822 49.1815L72.5571 48.6691L72.0137 48.4383L72.6136 47.8279L72.4063 47.2396L70.4841 45.9493L70.8359 45.5065L70.4935 45.5002L70.5626 45.0416L70.2234 45.1586L70.1072 44.7412L69.7177 45.1112L68.4426 45.0227L67.5411 44.3585L68.3735 42.2902L67.3244 41.5501L68.006 41.0979L67.7578 40.4812L68.1819 39.7917L67.5568 39.5356L67.6793 38.4033L66.7151 37.6475L67.538 37.3281V36.9011L67.2647 36.6671L66.5706 36.9422L66.7528 36.6797L66.3884 36.2907L66.7716 35.8068L66.2408 33.9409L66.3696 33.5835L66.0618 33.8239L64.0108 33.1882L63.3889 32.3849L64.5165 29.6461L64.1364 29.1369L64.5479 29.3267L65.2232 28.2672L66.9161 27.5841L70.1732 25.3576L72.5979 24.9844L75.0384 23.9439L75.8079 24.1685L76.659 23.7826L76.791 24.1432L76.7062 23.7447L78.1038 23.0742L80.4909 21.1292Z" fill="#FDFBF5" stroke="#171619" stroke-width="0.5"/>
<path d="M33.0982 81.184L33.6133 81.5477L33.428 82.196L34.4048 82.6926L34.4991 83.7394L33.7358 82.5218L33.0417 82.4933L32.536 81.8829L32.4481 81.2409L33.0982 81.184ZM48.5701 52.3601L49.4244 52.7333L50.0557 52.1798L50.6651 52.5878L51.4942 52.534L51.9057 53.4037L52.3611 53.2045L52.6061 53.7832L53.2092 53.5081L52.9893 53.0432L53.5295 53.1444L53.8593 52.8092L54.0164 53.6219L55.323 53.0495L55.86 52.3411L57.3362 52.3221L57.9047 52.8313L58.3225 52.0754L58.9726 52.3727L59.3652 51.8003L59.2647 51.2468L59.8112 51.2595L60.6184 51.9647L60.251 52.3095L60.6027 53.3689L61.8559 53.4828L61.8528 54.9945L62.5061 54.5454L63.2756 54.9344L63.4484 54.324L64.5665 53.6757L64.4032 53.3594L66.4416 52.9009L67.5032 54.0078L67.632 56.0382L68.769 56.4967L68.9009 56.269L69.5008 57.4772L70.8482 57.7871L71.0398 57.183L72.1391 58.6694L72.918 58.5524L74.4571 59.6404L73.6122 59.7479L73.4865 60.3267L73.1222 60.412L73.5368 60.5038L73.5085 60.9402L72.8646 60.9876L72.9118 61.6423L73.496 61.7878L73.1882 62.6417L73.5839 63.5399L73.1473 63.6948L73.0939 64.5487L72.8144 64.0901L72.4375 64.3084L72.5411 65.6461L71.5486 66.5981L71.6711 66.9143L70.6943 67.2085L70.1604 67.8695L70.2923 68.4419L70.5938 68.3502L70.2986 68.7613L68.5742 69.2831L68.3826 69.7828L67.522 69.3084L67.2771 69.7733L67.7796 70.5703L67.5252 70.7348L65.5527 70.058L65.5684 70.2224L65.0502 71.3357L65.4679 71.5634L65.4082 72.0915L64.5131 74.0397L64.8963 74.3844L63.5269 76.3168L63.2285 78.5812L62.7636 78.3693L62.4181 78.6571L62.0381 80.0739L61.3848 79.8019L60.8226 80.697L60.1724 80.387L60.6498 79.7482L60.1096 79.6533L59.8426 79.9253L59.0449 79.7039L57.3394 79.9822L57.1949 80.4534L56.2338 80.7096L56.5165 80.1688L56.0579 80.1308L55.2539 80.504L55.4203 81.1113L54.7011 81.7944L53.7714 81.6742L53.1966 82.0442L52.2481 81.6331L51.4 82.3162L50.8315 82.2277L51.2555 82.468L51.0639 82.7779L51.4597 82.7906L51.3089 82.9993L51.9842 83.2555L51.6827 83.9481L52.4082 84.8083H52.4616L52.9799 85.1594H53.071L53.4133 85.3839L53.1526 85.6274L53.1652 85.7065L53.1338 86.4181L53.963 87.4712L53.6583 87.7369L54.2142 88.1733L53.9316 88.6888L54.4906 88.9671L54.321 89.8464L54.6257 90.6655L54.0572 90.8932L54.5691 92.1392L54.142 93.2303L54.4152 93.3505L54.6068 92.9267L55.4737 93.477L54.0635 94.7705L53.407 94.6092L53.0929 95.052L51.7172 94.3815L51.6607 94.2993L51.4157 94.7674L50.9383 94.5902L50.3541 94.9033L49.9678 94.6693L50.3792 93.749L48.7648 94.1507L48.4884 94.7674L47.9545 94.78L46.8364 94.8116L46.783 95.6655L45.3539 94.4511L45.6177 95.2639L44.9927 94.2961L43.372 94.293L42.7627 93.126L41.0101 92.8192L38.8649 91.3992L38.2995 89.1854L37.1123 87.5155L34.5807 85.1404L34.4519 83.8501L34.9922 83.8026L34.876 83.4769L36.0004 82.3289L36.0632 81.554L36.7228 81.1713L35.1461 79.5173L33.2239 79.1726L34.2792 78.4863L34.2132 76.6425L33.6887 76.5286L32.5454 77.2497L31.5529 76.3737L30.8211 76.7595L29.3449 76.146L29.816 75.7918L29.8537 75.2193L29.1533 74.5236L30.4662 73.5716L30.4725 73.1004L30.9216 72.5406L31.2043 72.9423L32.3036 72.8505L32.5486 71.7816L33.249 72.2022L34.0311 71.8512L34.3106 72.2939L34.3923 71.6772L35.1649 71.459L35.3785 69.1883L36.795 68.3344L37.0337 68.7708L38.2712 68.0466L40.8813 68.0276L41.3744 66.9776L43.3186 66.2091L43.2432 65.5797L44.4242 65.7189L44.7477 66.285L46.2679 66.7246L47.4614 63.0496L49.2674 62.3001L48.5104 58.4228L48.457 58.3722L48.1649 57.1356L48.8936 55.9022L48.4256 54.2102L48.5701 52.3601Z" fill="#FDFBF5" stroke="#171619" stroke-width="0.5"/>
<path d="M83.7448 15.095L83.9301 15.2437L84.2347 15.6991L86.0564 15.0666L87.407 16.0755L87.9127 15.6738L88.1482 15.8699L87.7117 16.3221L87.9001 16.5593L89.5993 17.2899L89.7155 18.343L90.2934 18.1596L90.5541 18.5549L92.1277 17.7674L92.8721 18.09L92.9412 17.5587L93.2835 18.2229L93.9054 17.6473L94.4928 17.7327L95.0613 18.4664L93.6667 19.3013L93.5128 20.1995L94.0688 20.6517L94.8822 19.6112L95.3188 19.5575L95.5607 20.1109L95.8119 19.5227L96.1417 19.5764L96.1166 20.1236L97.7844 20.7782L97.8315 19.8421L98.1236 19.8642L98.7895 20.1615L98.356 21.5373L99.7977 20.851L99.8793 22.0117L100.614 21.4297L101.277 21.5815L101.842 21.2242L102.885 21.3538L103.906 22.1951L105.03 21.7681L105.278 22.1382L105.951 22.1065L106.397 21.6827L108.055 22.0623L108.746 21.3159L109.66 21.9199L110.254 21.8282L110.31 21.338L110.973 21.0123L113.027 21.6701L113.228 22.2457L114.462 21.5373L114.44 22.5714L115.832 23.0648L116.56 22.8497L117.723 23.2672L117.534 24.1812L118.03 24.3836L117.999 25.1078L117.383 26.901L117.955 27.3659L117.11 28.5393L116.341 28.963L116.196 29.8739L115.229 29.779L114.999 30.0984L115.709 31.1263L115.342 31.6576L115.725 32.0687L115.232 32.4261L115.587 33.6627L115.188 33.8081L115.169 35.38L114.161 35.0352L113.696 34.447L112.807 34.9815L112.751 35.6931L111.793 35.4622L110.065 36.3224L110.492 37.9037L110.178 38.3433L110.546 38.6596L110.762 38.4603L110.973 39.0644L111.419 38.979L111.409 39.4249L110.841 39.757L109.76 39.5957L109.481 40.2124L109.968 41.06L109.299 41.3984L109.277 41.8633L110.131 41.7399L110.486 42.3155L109.343 43.394L109.512 43.7355L109.129 43.8083L109.085 44.3017L108.532 44.3523L107.976 45.5414L107.662 45.8323L107.458 45.3801L106.642 45.1492L106.441 44.0265L105.935 44.4282L105.621 43.6185L105.096 43.8146L104.924 43.1441L103.827 42.3503L104.132 41.5945L103.454 40.4749L102.562 40.2567L102.518 40.8924L101.767 40.7659L101.487 41.177L101.242 40.7659L99.7192 41.1928L99.1507 40.6647L98.1801 41.3794L96.8641 40.4306L96.2202 41.0031L95.8151 40.1112L95.5512 40.6046L95.0047 40.4749L95.1806 40.2472L94.6121 39.7855L94.2729 39.9341L94.3514 39.6748L93.5034 39.4123L93.2773 39.6431L92.7056 38.8778L92.3381 39.4123L91.6534 39.5831L91.465 39.0201L90.84 39.3364L89.6716 38.4002L88.6414 39.0929L87.0929 39.3522L86.0564 38.9031L85.4188 39.0992L85.1833 38.7102L85.0639 38.7133L85.2272 38.1251L84.7561 37.9733L84.8284 37.3123L85.4628 37.1573L85.868 37.6855L86.0627 37.1131L85.6513 36.7683L85.5036 35.2693L84.9885 34.719L85.2272 34.4723L84.8912 34.4375L85.5225 33.261L85.6481 33.1788L85.8868 32.4957L85.4848 32.3375L85.2932 32.7866L84.9351 32.4957L85.3403 31.8031L84.6587 30.908H84.7153L84.9823 30.0826L84.6713 29.6588L85.378 28.6341L84.7875 28.9188L84.5645 28.6341L85.3497 27.2458L85.8271 27.2647L85.1519 26.1989L84.8629 24.741L81.4771 21.6321L81.4299 21.0091L80.5002 21.1261L81.4676 20.2248L82.3879 18.2134L82.9878 18.0141L83.2391 18.6213L84.1688 18.8712L84.5488 18.5929L82.6015 16.8345L82.8151 15.0476L83.7448 15.095Z" fill="#FDFBF5" stroke="#171619" stroke-width="0.5"/>
<path d="M44.173 99.8431L45.3728 100.858L46.3842 101.051L46.4061 102.089L47.0563 103.388L46.4752 104.521L45.979 102.993L44.4431 101.621L44.173 99.8431ZM42.8256 95.8836L43.303 96.3263L42.6936 96.4149L42.9449 96.8924L44.0945 96.3991L43.749 96.7122L43.9343 96.9462L44.7164 96.8039L46.2083 97.6768L45.4545 98.0531L43.4663 96.9335L42.5303 96.9367L42.1628 96.1492L42.8256 95.8836ZM47.9671 94.764L48.5011 94.7514L48.7775 94.1346L50.3919 93.733L49.9804 94.6533L50.3668 94.8873L50.951 94.5742L51.4284 94.7514L51.6734 94.2833L51.7299 94.3655L53.1056 95.036L53.4197 94.5932L54.0761 94.7545L55.4864 93.461L54.6195 92.9107L54.4279 93.3345L54.1546 93.2143L54.5818 92.1232L54.0698 90.8772L54.6383 90.6495L54.3337 89.8303L54.5033 88.9511L53.9442 88.6728L54.2269 88.1573L53.6709 87.7209L53.9756 87.4552L53.1464 86.4021L53.1778 85.6905L53.1653 85.6114L53.426 85.3679L53.0836 85.1434H52.9925L52.4743 84.7923H52.4209L51.6953 83.9321L51.9969 83.2395L51.3216 82.9833L51.4723 82.7746L51.0766 82.7619L51.2682 82.452L50.8442 82.2116L51.4127 82.3002L52.2607 81.6171L53.2092 82.0282L53.784 81.6582L54.7137 81.7784L55.433 81.0952L55.2665 80.488L56.0706 80.1148L56.5291 80.1528L56.2464 80.6936L57.2075 80.4374L57.352 79.9662L59.0575 79.6879L59.8553 79.9093L60.1223 79.6373L60.6625 79.7322L60.1851 80.371L60.8352 80.6809L61.3975 79.7859L62.0508 80.0579L62.4308 78.6411L62.7763 78.3533L63.2411 78.5652L63.5835 79.4286L64.3656 79.3147L64.2965 79.6563L64.6514 79.7764L64.9089 79.5045L65.1476 79.9599L64.865 80.5861L65.735 80.3489L66.0365 80.9055L66.4888 80.741L66.6113 81.7562L66.3349 81.9112L66.7558 83.0592L67.2991 82.6987L68.2539 83.0814L69.1302 82.5184L70.3363 82.55L69.9406 81.6107L70.5907 81.5854L71.555 82.2338L71.7215 83.5842L72.9181 84.6089L73.1631 85.7664L74.4352 86.9555L74.6236 87.5817L74.165 88.8151L74.4006 89.3528L75.7543 90.0011L75.8266 90.5862L76.7782 90.5799L77.4504 91.1365L77.5352 92.2497L78.333 92.5344L78.1319 93.1384L77.8932 93.4579L77.6231 93.3661L77.2651 94.1631L76.2066 93.8816L75.6475 95.444L74.3032 95.2858L73.6311 96.3706L72.8741 96.7248L73.5777 98.1417L73.094 98.4073L73.4175 98.9165L73.1505 99.7799L73.7222 100.384L74.0614 100.121L74.5891 100.542L74.8749 101.304L74.0268 102.199L73.1129 102.028L73.3076 102.946L72.736 104.66L71.8125 104.423L71.8502 105.213L70.7478 106.19L69.9029 107.623L69.1931 107.633L69.1083 109.151L68.3859 109.669L68.1597 110.375L67.4939 110.378L66.8406 111.194L66.4731 110.871L66.6647 111.292L66.1307 111.472L65.757 112.55L66.002 113.898L64.8178 114.575L64.2902 115.593L63.26 115.204L62.6381 115.659L62.2832 116.361L62.5847 116.583L62.0508 116.82L61.9565 117.588L61.3849 117.162L60.6594 117.756L60.0437 117.668L59.158 117.288L58.8785 116.773L58.4356 116.861L58.1247 116.333L57.7949 116.27L57.5279 116.76L57.2955 116.048L57.2798 115.966L56.9783 114.255L55.1534 113.92L54.8613 112.987L54.7545 113.468L53.1935 113.335L52.6753 111.51L51.8335 110.27L49.8736 108.996L49.1764 107.832L46.8019 106.447L46.447 106.523L46.5977 106.905L46.4061 106.526L46.3873 104.774L47.7379 104.457L47.1474 103.512L47.9766 103.404L48.498 102.487L48.1682 101.782L48.454 101.703L48.3849 101.143L47.9138 100.694L48.7963 100.7L48.1587 98.9608L47.6154 98.7426L47.8007 98.3567L47.2133 98.1511L47.5211 97.7875L46.7799 98.012L46.3747 97.6641L46.8616 96.7564L48.0362 95.8424L47.7347 95.0392L47.9671 94.764Z" fill="#FDFBF5" stroke="#171619" stroke-width="0.5"/>
<path d="M127.597 130.065L127.726 130.211L128.64 130.77L128.649 130.878L128.028 131.172L127.553 132.412L126.281 132.197L126.077 131.371L126.551 130.508L126.664 130.305L126.765 130.252L126.982 130.201L127.384 129.875L127.437 130.015L127.572 130.03L127.597 130.065ZM132.17 151.95L132.613 151.201L132.227 150.749L132.588 150.508L131.743 149.319L130.691 149.907L128.364 149.977L127.321 148.171L126.671 148.048L126.328 148.538L126.485 148.095L126.171 148.282L125.901 147.64L126.118 148.437L125.474 148.092L125.904 148.598L125.182 148.883L125.782 148.841L125.571 149.057L126.131 149.417L126.633 148.977L125.584 149.929L122.267 149.344L121.953 148.977L122.377 148.231L121.63 147.69L117.678 147.545L117.817 146.833L118.885 146.311L118.756 145.821L119.016 146.172L120.687 145.198L120.822 144.781L120.226 144.572L121.001 143.247L121.714 143.067L122.861 143.459L122.663 142.734L123.376 140.574L123.04 140.179L125.289 138.427L125.286 137.972L125.685 137.953L124.928 136.558L124.067 136.27L124.08 134.341L123.894 133.851L123.448 133.829L123.14 132.823L123.156 131.735L124.956 132.042L125.352 133.61L128.492 132.146L129.127 132.696L129.68 132.111L129.887 132.013L129.695 133.531L130.707 133.911L130.961 133.544L131.599 133.987L132.343 133.854L132.729 134.11L132.704 134.932L133.389 134.996L133.643 135.587L134.771 135.343L135.556 134.271L136.049 134.701L135.939 135.018L136.555 135.094L136.608 134.781L136.093 134.635L136.656 134.186L136.659 132.892H136.144L136.005 132.276L135.632 132.175L135.908 131.675L134.846 131.735L134.501 131.359L134.133 131.599L133.314 130.919L133.166 129.999L133.92 130.106L134.193 129.78L133.757 129.588L133.672 128.645L135.707 129.154L135.895 128.629L136.357 128.588L135.484 127.826L136.147 126.58L136.084 125.846L137.205 126.08L137.469 125.656L137.994 125.815L138.527 125.135L138.116 124.84L138.484 123.863L139.212 124.104L140.104 123.844L140.484 123.455L140.082 123.025L140.971 122.456L141.477 122.816L142.488 121.925L143.967 122.152L144.542 121.747L145.381 122.099L145.412 120.536L144.951 120.267L144.966 119.436L143.408 119.113L143.945 117.178L144.577 117.408L145.089 117.127L145.5 118.11L146.625 118.449L147.089 118.392L147.008 117.69L147.4 117.386L147.809 117.563L148.283 117.117L148.971 117.393L149.524 119.069L150.447 119.173L150.535 121.188L152.002 122.206L152.611 122.323L152.941 121.988L154.072 122.703L153.776 123.335L154.769 125.283L153.283 125.394L153.352 126.453L151.889 128.107L152.184 128.993L153.101 129.916L152.376 130.068L152.306 131.15L153.704 132.655L153.861 133.465L156.214 134.094L157.41 135.198L158.24 135.1L158.428 135.663L159.304 135.72L159.383 135.388L161.833 135.037L162.071 134.54L162.687 134.578L162.458 135.372L163.086 136.232L162.966 136.991L162.411 137.241L162.272 138.231L161.16 138.819L161.047 139.651L160.25 140.075L160.702 141.713L159.081 142.867L158.205 142.984L158.13 143.642L157.897 143.092L157.756 143.475L156.945 143.405L156.512 144.101L155.834 144.056L155.375 145.252L155.68 145.881L155.366 146.065L155.067 145.54L154.288 146.185L153.996 145.897L153.302 146.058L152.966 146.564L153.224 146.871L152.372 148.098L151.044 148.462L150.469 148.206L150.095 149.553L148.248 150.913L149.847 151.014L149.429 151.441L149.637 152.219L149.125 152.453L149.191 152.795L148.851 152.965L148.076 152.406L147.231 153.092L145.77 153.209L145.503 154.25L144.332 153.626L143.195 153.737L142.717 154.626L142.783 155.315L142.001 155.277L142.447 155.002L142.381 154.376L141.037 154.395L140.779 153.898L139.818 153.965L139.756 153.563L139.234 153.962L140.101 154.578L139.363 154.382L138.948 154.961L138.543 154.904L138.081 154.566L138.279 153.734L137.736 153.718L137.808 153.31L136.803 153.225L136.684 152.576L135.842 152.456L135.61 152.934L134.718 151.957L134.24 152.273L132.17 151.95Z" fill="#FDFBF5" stroke="#171619" stroke-width="0.5"/>
<path d="M113.366 95.5327L113.253 96.6965L114.327 96.9179L114.544 97.5504L116.023 96.9938L117.006 97.465L117.39 97.076L117.625 97.3923L117.996 97.2057L117.936 97.7528L118.269 97.7971L119.538 97.2373L119.968 95.1563L120.659 95.131L121.25 95.6908L122.088 95.1943L122.738 95.7319L122.987 95.0583L123.543 94.9603L123.945 95.4821L123.539 95.8553L124.277 96.3391L124.061 97.0697L124.57 97.4935L124.849 97.4144L126.95 90.9279L127.076 91.2632L127.513 90.9975L128.458 91.5826L129.89 91.2031L129.906 90.9153L130.405 91.1715L130.788 92.076L131.812 92.2973L131.611 92.9267L132.626 93.5118L132.419 93.7395L132.971 94.8717L133.238 94.1633L133.405 94.78L133.904 94.7768L133.885 95.7477L134.737 95.6687L136.093 94.2265L136.141 94.6155L137.017 94.897L137.168 95.8141L139.049 95.7414L141.596 92.8761L142.969 93.8091L142.086 95.3619L142.378 96.0071L140.497 96.6586L140.296 97.0381L140.688 97.3227L140.205 98.3253L141.436 97.8825L142.432 98.1102L144.608 96.4973L144.794 95.9122L144.156 96.0007L143.99 95.014L143.631 94.8559L144.049 93.9419L147.526 92.1013L149.652 92.1455L151.452 92.6674L150.808 94.0273L152.033 95.4378L151.242 96.8863L151.151 98.1355L152.473 98.3822L152.175 99.8212L152.944 99.5144L154.282 101.595L154.367 102.18L153.745 103.148L152.658 103.736L151.449 103.809L151.276 105.9L152.687 107.285L153.789 107.506L153.491 108.477L153.792 110.027L154.502 110.22L154.433 110.637L155.092 110.685L155.284 111.365L156.233 111.874L155.227 113.335L155.551 114.666L154.7 115.489L153.808 115.334L153.076 116.273L152.391 116.298L152.388 116.887L151.813 117.064L150.755 116.463L148.974 117.383L148.286 117.108L147.812 117.554L147.404 117.377L147.011 117.68L147.093 118.382L146.628 118.439L145.503 118.101L145.092 117.117L144.58 117.399L143.949 117.168L143.412 119.104L144.969 119.426L144.954 120.258L145.415 120.527L145.384 122.089L144.545 121.738L143.971 122.143L142.491 121.915L141.48 122.807L140.974 122.446L140.085 123.016L140.487 123.446L140.107 123.835L139.215 124.094L138.487 123.854L138.119 124.831L138.531 125.125L137.997 125.805L137.472 125.647L137.208 126.071L136.087 125.837L136.15 126.57L135.487 127.816L136.36 128.579L135.899 128.62L135.71 129.145L133.675 128.636L133.76 129.578L134.196 129.771L133.923 130.097L133.169 129.989L133.317 130.91L134.137 131.589L134.504 131.349L134.85 131.725L135.911 131.665L135.635 132.165L136.009 132.266L136.147 132.883H136.662L136.659 134.176L136.097 134.626L136.612 134.771L136.558 135.084L135.943 135.008L136.053 134.692L135.559 134.262L134.774 135.334L133.647 135.578L133.392 134.986L132.708 134.923L132.733 134.101L132.346 133.844L131.602 133.977L130.964 133.534L130.71 133.901L129.699 133.522L129.89 132.004L129.683 132.102L129.13 132.687L128.496 132.137L125.355 133.601L124.959 132.032L123.159 131.725L123.144 132.813L121.265 131.476L120.587 131.574L120.389 132.583L119.836 132.45L119.789 131.425L118.932 131.574L118.03 132.915L116.369 131.605L115.301 131.928L115.2 130.606L115.571 130.35L114.519 129.126L114.054 127.317L113.407 126.884L112.864 124.129L113.674 123.68L114.01 122.605L114.519 122.886L114.443 122.494L114.673 122.734L115.04 122.481L115.125 121.766L116.714 121.751L117.603 120.084L118.762 119.901L118.536 119.043L119.623 118.724L119.192 117.984L119.513 117.431L119.871 117.456V117.288L119.544 116.735L120.182 116.874L120.348 117.364L120.631 117.196L120.502 116.422L121.064 115.267L120.351 114.3L119.723 114.644L119.221 114.3L119.503 113.8L118.991 113.496L119.459 113.152L119.032 112.557L118.219 112.747L117.71 112.168L116.997 112.102L116.56 112.263L116.677 112.62L115.731 112.744L115.599 113.161L114.943 112.914L114.911 113.31L114.484 112.494L113.994 112.415L113.429 113.196L113.231 112.06L114.198 111.301L114.478 110.185L113.812 108.645L112.377 107.645L111.764 106.529L111.811 105.9L110.615 104.657L111.051 104.236L110.96 103.174L111.472 102.873L110.668 102.044L110.769 101.304L111.896 101.235L112.462 100.748L112.125 99.7263L112.336 99.0621L111.965 98.6225L112.169 97.6579L111.639 96.2158L113.153 95.558L113.266 95.5422L113.366 95.5327ZM126.759 130.245L126.658 130.299L126.545 130.502L126.071 131.365L126.275 132.19L127.547 132.405L128.021 131.166L128.643 130.872L128.634 130.764L127.72 130.204L127.563 130.021L127.428 130.005L127.374 129.866L126.972 130.192L126.759 130.245Z" fill="#FDFBF5" stroke="#171619" stroke-width="0.5"/>
<path d="M49.4 232.72H50.4V223.72H49.4V220.44H58.18C59.9 220.44 61.2133 220.813 62.12 221.56C63.0267 222.293 63.48 223.487 63.48 225.14C63.48 226.793 63.0267 227.993 62.12 228.74C61.2133 229.473 59.9 229.84 58.18 229.84H56V232.72H57.92V236H49.4V232.72ZM56.68 227C57.4533 227 57.84 226.573 57.84 225.72V225C57.84 224.56 57.74 224.24 57.54 224.04C57.3533 223.827 57.0667 223.72 56.68 223.72H56V227H56.68ZM76.8534 232.72H77.6534V236H69.8134V232.72H71.0134L70.6934 231.12H67.9734L67.6534 232.72H68.8534V236H62.0134V232.72H62.8134L66.1934 220.44H73.4734L76.8534 232.72ZM68.4134 229H70.2534L69.4334 225.02H69.2334L68.4134 229ZM78.2867 232.72H79.2867V223.72H78.2867V220.44H87.4667C89.1867 220.44 90.5001 220.793 91.4067 221.5C92.3134 222.207 92.7667 223.353 92.7667 224.94C92.7667 225.833 92.5867 226.607 92.2267 227.26C91.8667 227.913 91.3534 228.367 90.6867 228.62L90.7067 228.82C91.9867 229.02 92.6267 229.807 92.6267 231.18V232.72H93.5667V236H87.2267V231.3C87.2267 230.78 87.1467 230.387 86.9867 230.12C86.8401 229.853 86.6001 229.673 86.2667 229.58C85.9467 229.487 85.4867 229.44 84.8867 229.44V232.72H86.2067V236H78.2867V232.72ZM85.9667 227C86.3534 227 86.6401 226.9 86.8267 226.7C87.0267 226.487 87.1267 226.16 87.1267 225.72V225C87.1267 224.56 87.0267 224.24 86.8267 224.04C86.6401 223.827 86.3534 223.72 85.9667 223.72H84.8867V227H85.9667ZM94.2828 236V232.72H95.2828V223.72H94.2828V220.44H101.883V223.72H100.883V232.72H101.883V236H94.2828ZM108.881 236.28C107.601 236.28 106.388 236.173 105.241 235.96C104.108 235.733 103.235 235.48 102.621 235.2V231.24H107.021C107.021 231.653 107.115 231.953 107.301 232.14C107.488 232.327 107.828 232.42 108.321 232.42C108.735 232.42 109.028 232.36 109.201 232.24C109.388 232.107 109.481 231.913 109.481 231.66C109.481 231.447 109.395 231.267 109.221 231.12C109.048 230.96 108.748 230.8 108.321 230.64L106.601 230.04C105.121 229.48 104.055 228.82 103.401 228.06C102.761 227.3 102.441 226.273 102.441 224.98C102.441 223.407 102.955 222.213 103.981 221.4C105.021 220.573 106.748 220.16 109.161 220.16C110.321 220.16 111.408 220.28 112.421 220.52C113.448 220.747 114.275 221.053 114.901 221.44V225.02H110.901C110.901 224.353 110.488 224.02 109.661 224.02C109.261 224.02 108.975 224.073 108.801 224.18C108.641 224.273 108.561 224.447 108.561 224.7C108.561 224.927 108.655 225.107 108.841 225.24C109.041 225.373 109.361 225.513 109.801 225.66L111.541 226.26C112.955 226.74 113.981 227.367 114.621 228.14C115.275 228.9 115.601 229.9 115.601 231.14C115.601 232.833 115.028 234.113 113.881 234.98C112.748 235.847 111.081 236.28 108.881 236.28Z" fill="#EA346C"/>
<path d="M49.36 212V209.048H50.26V200.948H49.36V197.996H60.124V202.658H56.938V200.948H55.3V203.936H58.018V205.988H55.3V209.048H57.658V212H49.36ZM60.733 209.048H61.633V200.948H60.733V197.996H68.995C70.543 197.996 71.725 198.314 72.541 198.95C73.357 199.586 73.765 200.618 73.765 202.046C73.765 202.85 73.603 203.546 73.279 204.134C72.955 204.722 72.493 205.13 71.893 205.358L71.911 205.538C73.063 205.718 73.639 206.426 73.639 207.662V209.048H74.485V212H68.779V207.77C68.779 207.302 68.707 206.948 68.563 206.708C68.431 206.468 68.215 206.306 67.915 206.222C67.627 206.138 67.213 206.096 66.673 206.096V209.048H67.861V212H60.733V209.048ZM67.645 203.9C67.993 203.9 68.251 203.81 68.419 203.63C68.599 203.438 68.689 203.144 68.689 202.748V202.1C68.689 201.704 68.599 201.416 68.419 201.236C68.251 201.044 67.993 200.948 67.645 200.948H66.673V203.9H67.645ZM88.3415 209.048H89.0615V212H82.0055V209.048H83.0855L82.7975 207.608H80.3495L80.0615 209.048H81.1415V212H74.9855V209.048H75.7055L78.7475 197.996H85.2995L88.3415 209.048ZM80.7455 205.7H82.4015L81.6635 202.118H81.4835L80.7455 205.7ZM99.9995 197.996H105.903V200.948H105.003V212H99.9455L94.6715 203.882V209.048H95.5355V212H89.6315V209.048H90.5315V200.948H89.6315V197.996H96.1295L100.863 205.214V200.948H99.9995V197.996ZM113.578 212.252C111.31 212.252 109.558 211.676 108.322 210.524C107.098 209.372 106.486 207.53 106.486 204.998C106.486 200.162 108.838 197.744 113.542 197.744C114.682 197.744 115.738 197.882 116.71 198.158C117.694 198.434 118.426 198.74 118.906 199.076V203.576H114.586V202.28C114.586 201.824 114.484 201.488 114.28 201.272C114.076 201.056 113.77 200.948 113.362 200.948C112.954 200.948 112.648 201.056 112.444 201.272C112.24 201.488 112.138 201.824 112.138 202.28V207.716C112.138 208.172 112.24 208.508 112.444 208.724C112.648 208.94 112.954 209.048 113.362 209.048C113.77 209.048 114.076 208.94 114.28 208.724C114.484 208.508 114.586 208.172 114.586 207.716V206.258H118.906V210.92C118.414 211.256 117.682 211.562 116.71 211.838C115.75 212.114 114.706 212.252 113.578 212.252ZM119.585 212V209.048H120.485V200.948H119.585V197.996H131.735V203.432H127.703V200.948H125.525V203.792H127.109V205.844H125.525V209.048H127.703V206.204H131.735V212H119.585Z" fill="#FDFBF5"/>
</g>
<defs>
<clipPath id="clip0_8_555">
<rect width="192" height="240" fill="white"/>
</clipPath>
</defs>
</svg>
