<svg fill="none" height="240" viewBox="0 0 192 240" width="192" xmlns="http://www.w3.org/2000/svg" xmlns:xlink="http://www.w3.org/1999/xlink"><clipPath id="a"><path d="m0 0h192v240h-192z"/></clipPath><g clip-path="url(#a)"><g fill="#fdfbf5" stroke="#171619" stroke-width=".5"><path d="m151.656 65.8327 1.087-.5408-.302-.8002.428-.37-.227-.1866.418-1.5718.738-.427.999-1.7267-.226-.7021 1.822-3.2449-.252-.5787-.823.1265-.533-.3764.42-.4965-.304-.408.421-1.5022-.358-.5756.577.1139-.898-.525 1.307-.0633.694-.4902 1.124-2.1316-.508-.0474-.302-.5883.942-1.4927-.857-.8065.141-.2846-1.391-.4586-.352.8602-.628.3479.141-.5344-.484-.0886-.012-.5598.575-.3668-.581.0695-.026-.3099-1.224-.3764-.142-.7938.452.0032.154-.5598.547.1012.458-2.179.403-.2404.367 1.4264 2.192.6388-.044.3637.459.2435 1.646-.4997 1.105.718.544-.4903.76-1.926 1.244-.0601.037.2594.767-.446.942.6452.879-.487 2.076 1.3567 1.819.4776-1.087 1.2271-.776 2.0304-1.532.8981-.104.699-1.627 1.6034-.509 1.1291.079 1.3725-.49.4839-.468 1.8912.16 1.3252-.672.4997-.349 1.5749-1.168 1.9861-.094 1.6952.687 1.2176-.857 1.8153-.352 1.9482.239.8855-.474.7084 1.039 1.8059-.107.5566-1.099.7021.412.2245-.431.1424.176.4332-.295.3036-.744-.2498-.139.2878.453.1803-.902.7527-.754-.1771-1.111.3858-.145-.3479-.81-.0885.414-.971-.904-.1739.138-.4206-.744-1.322-1.053-.1803.528-1.3504-.122-.9931-1.26-.9361-.964-.2245z"/><path d="m70.7384 106.194.3046.408.8826-.136.7036.528-.3047.93.7884.8.7412-.895.3706.405 1.5767-.181.8763 1.49.3989-.313.6596.411-.5936.933 2.252.791-.4837.578.8857.434-.7726 1.04-.3706.019-.1225.921.6595.338-.6533.927.7978.291-.3769.417-.066.006.691.608 1.3506.151-.4429.367.914 1.585-.4931.284.0534.219.3675 1.42-.3769.11.3643.588-1.0207.658.0534.601-.8826.278.2293 1.028-1.1967 1.038-.9831.253.0785.569-.7695.835.1256.37-1.1589.667-.4398-.129.4618.683.0062 1.122.4932.329.0753 1.117-1.4291.072-.1382.301-.2732-.712-.3141.054-.3518 1.297 1.0616.651-.5747 1.525-.6942.12.4178.164.113.677-.4177.206-.9517-.31.1162.591-.5402.066-.2293.832-.9956.68-.9234-1.018-.4837.458-1.2375-.015-.245.496-1.6678.357-.1853.342-.9077-.569-.512.126-.4586.769-.3863-.525-.9297.734.267.812-.223.374-1.0428-.598.3612-.452-.5622-.551-.7758 1.015-1.0899-.196-.782.756.6941.532-.289.192.1979.867-.4303.032.4146 1.284-.7192.544.1005.948-.5183.212.0283.446.4209.048.113.597.8009-.246 1.0522.259.0377.696.3549-.086.6251 1.37-.6188.161-.0188.939.8669-.619-.0377 1.315.4334.468-.9894.807.3769.556-.4177.933-.3109-.076.0691.826-.6471-.054-.3737.917-.6125.263.1696 1.116-1.0522.263-.3549.569.088 1.274-.6031.298.1853 1.211-1.0616.901-.6282.064-.8291-.57-.5968.883-1.649-1.911-.7004-.211-.2889-1.278-2.4687.262-2.23-1.265-.3644.288-.2795-.487-.8481-.357-.4397.208-.6062-.446.4994-.895-.9548.427-.1256 1.183-1.1213-.316-.4303-.753.7664-.705.424-1.104-.0848-1.233-1.9097-.645-.3612.101-.1759.692-.4177-.041-.2073-.99-1.3694.19-.1068-.613-.6439-.367-.022-.421 1.5799-.269.8763-.806 2.0039-3.871 1.9504-10.222.5214-6.084.8229-2.11 2.4719.421-.179-.788-.6722-.319.4649-.007-1.7401-1.461-.8511 1.522-.1854 1.439-.1978-.329 1.3631-15.62.8135-1.509.4366-.323.2764.699-.5026.089.3298.022-.1759.348 3.4204 3.087 1.4888 5.034 1.2406 1.218-.9579-2.236-.6094-3.672 1.561.133.1068-.481.2921.933 1.8249.336.3015 1.711.0157.082.2324.711.267-.49.3298.063.3109.529.4429-.089.2795.516.8857.379.6157.089.7255-.595.5716.427.0943-.768.5339-.238-.3015-.221.3549-.702.6219-.456 1.0302.389.5276-1.018 1.1842-.677-.245-1.347.3737-1.078.534-.181-.1916-.42.3675.322.6533-.816.6658-.003.2262-.705.7224-.519.0848-1.518.7098-.009zm-9.1996 44.093-.0754-1.129-.1225-.06.0503.68-.3801.155.3141.303zm-.4994-.041-.0911.069-.2544.611.245.553.5434-.392-.3235-.797-.0754-.051z"/><path d="m92.2564 92.8032.2324-.9582.3235-.0032.49-.876 1.6458-.3036.647.2561 1.0177-.6515-.1414-.7843-.4868-.272.3832-.5819-.3361-.3763.4554-.2372.2984.2435-.0471-.6041 1.0082-.5408.1853-.5092.5905.5408.49-.3415.6219.1739.9707-1.284 1.441-.0379.349.8349 1.847 1.4263.904-.7748 1.015.6293.421-.5471.54-.0253.471 1.1923 1.357-.7147-.173-.6452.644-.0285-.107-.7147.475.1328.176.914 1.281 2.0019.072 1.2081.829.3796.437-.2404.393.8223 1.055-.0917.647.5914-.308 1.2018.113 1.3219.258.0253-.757.1107-.619.8666-.085.0221-.113.0158-1.514.6578.531 1.4422-.204.9646.371.4396-.211.6641.336 1.0212-.565.487-1.125.07-.103.743.804.829-.509.297.091 1.063-.436.42 1.196 1.24-.047.629.609 1.12 1.436.999.666 1.537-.28 1.117-.967.762.198 1.135.568-.781.49.076.424.819.032-.398.659.25.132-.418.945-.123-.116-.354.44-.165.71.066.509.579.813-.19.427.595-.468.345.512.303-.282.5.474.345.653-.345.713.965-.562 1.157.129.775-.283.168-.167-.491-.64-.139.326.554v.167l-.358-.025-.32.554.43.74-1.086.319.226.857-1.159.183-.892 1.667-1.59.013-.081.715-.368.253-.229-.241.075.396-.508-.285-.337 1.075-.81.449-.336-.066.094-.449-.436.139-.632-.667-.232-.69-1.002.174.088-.515-.565-.456-.475.101-.066.918-1.441.306-.798-1.641-.022-.803-.575-.617-1.115.892-.571-.162-.076.886-.575.465-.788-.759-.289.699h-.075l-.06.591-.345-.073-.343.693-.091 1.556-.747 1.313-.588-.655-.326-1.499.333-.234-.217-.361-.421.079-.3738-1.568-1.1307.341.0188-1.037-.4868-.541-1.7244 1.765-.0565.993-.6596.711.1351.614-.7915.572-.2042.706-1.7149.186-.3361-.55-.4114.038-1.0208.335-.1633.595-.4397-.383-.1539-1.05-.3801-.019.5465-1.692-1.049-1.565.1539-.867-.5402-1.021.5182-.136.1099.028.4335-.364-.5779-1.084.9705-.412.0848-1.018.6878-.528-.4114-.294-.088-.75 2.1609-2.144-.1444-1.401 1.7212.781.6218-.411-.5308-.506.3958-2.524-.735-.781.3235-.838.4649-.025.0251-1.275-1.7652-2.16.8889-.768.0565-.013.4146.057.8355-.936.1005-.81.6156-.288-.1287-1.186-.6722-.9642.2042-1.3062-1.0899-2.3593-.6627-.3036-.132.2467-.4397-.9171-.2984.4016-.8166-.623.4115-.5503-.6062-.174z"/><path d="m126.947 64.9533-.487-1.0658-.439.0665-.117.4174-.377-.2435.44-.6167-.257-.3953-.795-.0348.32-.5124-.21-.3384-1.212-.351-1.583-.1012-.556.4427.242.7527-3.132.1329-.283.7116-.628-.1012-.238-.8192-.412.0918.097.506-.458-.3542-.163.0885-.582.5693-.653-.3859-.201.4017-.524-.3384-1.429.2593.241-.9867-.245-.4269-.188.4459-.371-.0822-.163-.408.427-.2182-.647-.5693-.405-1.4453-.672-.2878.113-.6547-.443-.1644.11.3542-.726.3162-.48-.9804-.672.1044.553-.8065-.271-.136.239-.7115-.543-.3005.129-.3257-1.09-1.2999-.487-.1929-.5.3479-.182-.623-.502-.1929-.145.5439-.377.0506-2.544-.0569-.483.4681-.732-.2056-.418 1.069.418 1.0879-.559.8412-.873.4618-.004.3985 1.206.585-.175.3384.257-.0189.182.857.977.8508-.33.2024.374.914-.433.5091-.079.0665-1.036.7274-.176.759.48.3415-.094 1.2271-2.2645.5756-.0503.7875.3988-.0664.622.7495.355.7148-.22.8982.521.5724-1.5103.4333v-.0696l-.1633.2435 1.0776 1.9355-.8232 1.926 1.4852 1.4801.638 2.7072-.166 1.0943.782.778.022 1.3061-.393.9235.258 1.069-.494 1.0879.349.8349 1.847 1.4264.904-.7749 1.015.6294.421-.5471.54-.0253.471 1.1923 1.357-.7148-.173-.6452.644-.0284-.107-.7148.475.1329.176.914 1.281 2.0019.072 1.2081.829.3795.437-.2404.393.8223 1.055-.0917.647.5914-.308 1.2018.113 1.322.258.0253-.757.1107-.619.8665-.113 1.1638 1.074.2214.217.6326 1.479-.5598.983.4712.384-.389.235.3163.374-.1866-.06.5503.333.0411 1.269-.5598.43-2.0778.691-.0253.591.5597.842-.4997.65.5377.248-.6705.556-.098.399.5218-.406.3732.739.4839-.217.7305.506.4238.282-.0759 2.101-6.4896.126.3384.437-.2657.948.5819 1.432-.3763.016-.2878.496.2562.387.9045 1.024.2213.122-.3194 1.216-.2625.05-.4839-.804-.3289-.016-.8096.6-.37-.11-.5471.594-.5187-.603-.9014-.035-.8286-.418-.0253.399-.7748-.832-.8602 1.806-.4807-.823-.5345-.044-.4586-.911.0949-.458-.9994-.39.2087-.125-.9487.832-.6674-.559-.2656.11-.4301 1.319-.6357.707-1.1986-.007-.0981.641-2.6724.408-.2814-.606-.2562h-.044l.343-.4744-.151-1.0089-.05-.0316-.541.038h-.081l.084-1.1196-.936-.272.538-.2467-.267-.0759.15-.3447.644.0253.635-1.1196-.729-1.4484-.606.6863-.292-.2025-.223.272-.632-.3573-.716.6356.101-.8823-1.118-.5819.066-.5472-.795.6578-.832-.4237.094-.525-.415.0569-.009-.3542-.785.4744-.126-1.4801-.565-.1012.998-.797-.502-1.1449z"/><path d="m20.1737 74.2672.3895.4713.7915-.019.2293.6736 1.0176.291-.1759.5376-2.1295-.3162-.3235-.9551zm.3016-29.039.0659.7053 1.7495-.7147v.9614l.9611-.0601.1005.4649-.5151.389 1.4982.487-.2168.6895 1.671 1.4295-.0628 1.0594 1.4102.7812-.3486.6167.3675-.155.5056.8856-.113-.8856.7192.2088.9486-1.5402 1.0553-.4523-.1947-.4459.669-.1518.2261.4649 1.3223-1.1765.4554.4017-.6972.9582.3015.1993.9202-.68.4272 1.1354-.179.7306.3675-1.2018.2198.6863.3738-.8286.3392.3447-.3581-.6484 1.3632-.1075.1382.7749.5213.3415-.2355.2151.5496.5503-.1633.9614.267-.6072.3423.117-.6281-1.2619.5119.2752-.1759-.4207-.6752-.1423.1978-.3352-.4648-.3827.5433-.9677 1.9317-.5725.1005.6515-.4272.8191 1.1778.6737 2.6823-.6009 1.0868 2.8748.8763.5566.8794-.1581 1.3066-1.4833 2.3965.7053-.1445 1.8501.468 1.692-.7287 1.2334.2921 1.2366.0534.0506.757 3.8773-1.806.7495-1.1936 3.675-1.5201-.4396-.3235-.5661-1.181-.1392.0754.6294-1.9442.7685-.4931 1.05-2.6101.019-1.2375.7242-.2387-.4364-1.4165.8539-.2136 2.2707-.7726.2182-.0817.6167-.2795-.4427-.7821.351-.7004-.4206-.245 1.0689-1.0993.0918-.2827-.4017-.4491.5598-.49-.038-.0817-.8159.7915-.1202-.8951-.5028-3.9889.7368-1.2501-1.2966-.6753-.0032-.3455-.5092-.1978.2562-.2639-.4997.0629.4839-1.3475-.0411-.0596 1.0816.6281.8729-.6721-.0854-.4083-1.088.358-.3004-.1884-.9867-1.7809-1.7458-.9705-.0126-.0691-.4839-1.1433.2909-.9611-1.3219-1.9787-.2404-.6345-.5629-1.6584.2783-.6156-.8539.267-.4712-.3769.1676-.4648-1.0215-.5591.3731.1884.563-.86998.2277-.83861-.5566-.5308.2878-.5842 1.1765-2.29597.0031.12249-1.7869-.81976-1.4579-1.1684-.8381-.76009.1044-.82604-.563-1.363134-.2024.392604-.0885-.1005-.4112 3.88524-.8317 1.45421.3478.49312-.7969-.63131-1.4548-1.92849-.6895-.45857.1329-.78207 1.2144-.17275-1.2619.37691-.2878-1.02078-.1043-.08795-.4966.76323-.0506-.02198-.9551.51196-.2024-.30467.7464.26698.3669.46798-.5377-.04083.6009.66272-.3099.69727.4301 1.18725-.4554.60618.3479.50882-.661-.33921.2846-1.1684-.3099.44914-.3068-.3769-.1803.17589-.4459-.71612.7116-.56849.0316.25755-.3479-.79464.31.75695-1.1164-.30781-.2467-2.39647 1.1322-.9611-.3352-.3455.4712-.85117.0411-.2292826-.6294.3737626-.4143-.43658-.6103.446002-1.0627-.207297-.9519.612468-.8033 1.557867-.4017.05967-.5471.54965.1233.27954-.7716.56221.3131 1.27519-.3195-.4617-.3415 1.18096-.4491.6533.2498.00314.6136 1.31288-.3606-.35492-.1359.47113-.5598 1.12757-.1676.5308.3795.07852-.5883.59362-.4269.0817.3131.402-.31-.022 1.0563.5245.2246.0786-.7148.0251.4902 1.0082.2689-.1162-.5756.3078-.4966.1413.272-.0377-.3668 1.872.6578.468-.1929-.1916.7369.4617-.544.5371.3163-.022-1.0785.4554-.4111-.468-.2404.2293-.7559-.2607-.2182.4209.2878.6564-.9488.1696.3764.1414-.3416.2764.4365.4051-.1044-.1664.4523.5559-.0412 1.0177-.759.7412.0791z"/><path d="m82.102 43.7893.8072.9962-.2261.4017.6847.6135-.2199 1.5592.5905.2846-.6502.8729.4586.2783-.1319.4712.8323 1.0089.6376-.0063-.0785.74 1.0176.4649-.1476.797.3361.9203.8888.5187.7884-.3289-.0314 1.0057.647.0885.1382.7496-.3958 1.0436.1916.4301 2.4907-.2055-.1539-.3448.3864.0918.2826-.6452.556.2403-.0063.6579.6973-.272.0691-.1297.3109-.2783.4083.4965.5905-.1549.2544 1.1006 1.2187.6641.0062 1.1512-.4491.0474-.5151.8002 1.5076-.3353 1.9065.3448.6345-.4302-.2325-.4206.3455.2625.4712-.3004.2669.7621.6094-.5155.923-.136 1.206.5851-.175.3384.257-.0189.182.857.977.8508-.33.2024.374.914-.433.5091-.079.0664-1.036.7274-.176.7591.48.3415-.094 1.2271-2.2645.5756-.0502.7875.3987-.0664.622.7495.355.7148-.22.8981.521.5725-1.5103.4333v-.0696l-.1633.2435 1.0776 1.9355-.8232 1.926 1.4852 1.4801.638 2.7072-.166 1.0943.782.778.022 1.3061-.393.9235.258 1.069-.494 1.0879-1.441.0379-.9707 1.2841-.6219-.174-.49.3416-.5905-.5408-.1853.5092-1.0082.5408.0471.604-.2984-.2435-.4554.2372.3361.3763-.3832.582.4868.2719.1414.7844-1.0177.6515-.647-.2562-1.6458.3036-.49.876-.3235.0032-.2324.9583-1.093-.1645-1.4103.3511-1.4291-.6294-1.8217.3289-.7318-.5851-.4617.1202.1633.4712-.4051.6673-.5654-.5344-.7444.5756-.2481-.6326-.8417.5472-.2482-.6484-1.4416 1.5307-.801-1.0183-.5307.0917-.1257.4459-1.1087.1076-.1225-.4618-.4052.0981.2387-.3195.201-.6072-.7977-.2815-.0848-1.1132-.669-.5598-.9549.0095-.0691-.5851-1.3537-.6515-.2355-.5376.4585-1.2334-.1916-.6262-1.272-1.1891-.245-1.1576-1.1967-1.0246-.1664-1.3536-.9643-.6484-.6501.0285.3989.9393-1.2093-.0316-.8731.5629-.9548-.3827-.5434.3606-.4209-1.1512.2795-.1518-.1256-1.0152-.4523.1644-.3015-.5566-.87.2404.2827-.6262-.2387-.4554-.2576.272-.3549-.1202.0691-.3416-.7821.1139-.3423-.8634.2983-2.2644 1.3695-1.9324-.3832-.3416.8951-1.9513.0597-.525-.4177-.2308.5182-1.1133-.0157-.1644 1.9756.6768.2513-.1613-.5026-.797.245-.4649.8606.4744.1916-.4997 1.7212-.525.2984-.4111-.3015.0917-.132-.5724.534-.661.9768-.2942-.1194-.3162.9925-.952-.1067-1.3346.38-.2182.2795.4586.0534-.8539.4366-.155-.3957-.8982.3078-.8539-.5874-.1454-.0471-.6547.6439-.0474.0283-.4333-.4146-.0917.3612-.0854.1287-.5788.8449-.1075-1.539-1.0879.424-.3796-.5496-.9298.2355-.5534-.6627-.2087.1916-.4491 1.8782-.9931.8072-1.3346-.5213-.7148.3989-.9298-1.9223-1.7489-.0439-1.148.6281-.351.1665-.5503 1.4668-.1961h.2701l.7004-.6547.6784.2341.0817-.8508 1.316.623 1.4323-.0632.5213-.3953-.135-1.0595 1.2815-.7464-.1602-1.0278z"/><path d="m125.571 19.2888.792.3573-.374.3479.057.6483-.274-.2783-.405.7464.277.5503-.673 1.4105 1.288 1.205-.537.8697.361.9551-.301.5408 1.875-.1423 1.291.7558.939 1.4074 1.36-.0506.798.8476-.23.8634.443-.3985.625.2909-1.74 1.5086-.358-.5566-.929.1296-.264-.5597-.402-.0317-.292 1.0057-.022.1202-.384.7211.679.8602.053.7749-.499.3384.314.4902-.616.2182-.377 1.1543.409.3226-.076.3953-1.297.7432.534.563-.688.4839.848 2.3245-.509.9424.566-.2814.361.2403-.028.6072-.519.1866.588.1993-.302.6894-1.017.4238-.057.0569-.279.933.326.5123-.609.8729 1.558 1.1259-.142 2.508.761-.3353.182.7211.625.0095 1.209 1.3283 1.514.37 1.831 1.7046-.986.6294.631.234-.198.9456.685-.4902.59.1645.839 1.4548.295-.3511.55.4713-.16.5155.6.1518.552.7116-.64.3668-.129 1.3947-.556.4491.895.1708.333.642.713.2024.141 1.5813.776-.4522.493.9709-.006.5028-.44-.1233-.374.6894.079.3669-.876-.1423-.248.7685-.66-.0158-.195.8128.427.6293-.235 1.2081-1.225.2436-.383-.6863-.547.6704-1.501-.0284-.496 1.3567-.223.272-.632-.3574-.716.6357.101-.8823-1.118-.582.066-.5471-.795.6578-.832-.4238.094-.5249-.415.0569-.009-.3542-.785.4744-.126-1.4801-.565-.1012.998-.797-.502-1.1449h-.173l-.487-1.0658-.439.0664-.117.4175-.377-.2435.44-.6167-.257-.3953-.795-.0348.32-.5124-.21-.3384-1.212-.351-1.583-.1012-.556.4427.241.7527-3.131.1329-.283.7116-.628-.1013-.239-.8191-.411.0918.097.506-.458-.3542-.164.0885-.581.5693-.653-.3859-.201.4017-.524-.3384-1.43.2593.242-.9867-.245-.427-.188.446-.371-.0823-.163-.4079.427-.2183-.647-.5692-.405-1.4453-.672-.2878.113-.6547-.443-.1644.11.3542-.726.3162-.48-.9804-.672.1044.552-.8065-.27-.136.239-.7115-.543-.3005.128-.3257-1.089-1.2999-.487-.1929-.5.3479-.182-.623-.411-1.7743.71-.2118-.409-.7401.971-.272-.211-.5692.641-.3827-.16-.2941.757-.2341-.512-.3226.182-.2656-1.084.2214.223-2.0368-.961-.4016.638-.6325-.521-.3637 1.093-.1044-.026-.759.56-1.1923.552-.0506.044-.4934.383-.0696-.169-.3447 1.143-1.0753-.352-.5787-.854.1233.022-.4649.669-.3384-.487-.8476.28-.6167 1.08.1645.566-.3321.009-.4459-.446.0854-.207-.6009-.217.1961-.371-.3163.318-.4396-.431-1.5813 1.731-.8602.958.2309.056-.7116.889-.5345.468.5914 1.005.3447.019-1.5718.399-.1455-.355-1.2365.496-.3574-.386-.4112.368-.5313-.71-1.0278.229-.3194.964.0948.148-.9108.766-.4238.845-1.1765-.572-.4649.616-1.7932.031-.7242-.496-.1992.189-.9172 1.014-.2119 1.778.6452 1.975-1.0026 1.235-.1802-.167-1.439.289-.5883 1.593-1.4959z"/><path d="m176.946 180.686.381-.848.888-.092.563-.714-1.354-.465-.399.253-.088-.725-.886.345-.031-.31-.597-.022.936-.632-.242-.453.779-.164.154-.367-.427-.221.49-.095-.129-.57.321-.221-.717-.667-.38.443-1.451.249.201-.724-.399-.531.729-.06.154-.772 1.137-.655-.619-1.103-.531.208-.615-.604-.408.117.056-.414-.361.104.468-.398-.424-.057.261-.604-.534-.563 2.019-.519-.449-.632-.729-.057.139-.781-.811.281-.107-.73.839-.2-.044-.528.647.019-.088-.481.412-.471-.406-.171.233-.657.7-.171-.182-.784.254-.269.022.414.362-.18.439.316.173-.867.845-.104.851-.68 1.081.095.59-.357-.034-.627.873-.626 1.265-.066 1.002 1.044.6-1.057-.031-1.05-.43-.68.402-.582-.239-.61.512-.43-.276-1.249 1.083-.31.528.446.383 3.206-.613 2.347 1.131 2.258.339 6.246-.122 1.623-1.79 2.641-.33 5.395-.575.234.163.269-.606-.206-.383.563.116.373.399-.525.666.187-.336.617-.908.499.063 1.158-.722.379-.183.51.735-.26-.078.256-.503.826-.537.041-.298-.49-.829-.032.355-.759-.66-.114.123-.642-.522.427-.534-.582-.198.282-.823-.266-.574-.613-.437.113.145-.509-.867-.155.223-.335z"/><path d="m139.259 63.7992.631-1.0057.355.1802-.421.5883.283.0443.694-.4017.484-.9203 1.244-.3099.031.0221.145 1.012.722.5725v.1012l2.412-.5598.6.37.559 1.0974 1.63-1.1796.559.8223 2.469 1.6002.393.7685.964.2246 1.259.9361.123.9931-.528 1.3504 1.052.1803.745 1.3219-.138.4207-1.951.1739.245.7843-.804.4017-.798 1.5497 1.791-.389.424.2055.088.5503-.591.1771-.179.5788-.697.1455.16.8602-1.486 1.3662.23.136-.261.3036-1.775 1.2872.214.5977-1.278 1.1133-1.624.3574-.848.8855.421.7495-.434 1.4675.28.7115-4.457 3.7825.603.5977-1.096 1.5687-.104.8855-2.544 2.8685-1.881.0727-.151-.9171-.876-.2815-.048-.389-1.356 1.4422-.852.079.022-.9709-.499.0032-.166-.6167-.267.7084-.553-1.1322.204-.2277-1.015-.5851.201-.6294.123-.3194 1.215-.2625.051-.4839-.804-.3289-.016-.8096.6-.37-.11-.5472.594-.5186-.604-.9014-.034-.8286-.418-.0253.399-.7748-.832-.8602 1.806-.4807-.823-.5345-.044-.4586-.911.0949-.459-.9994-.389.2087-.126-.9487.833-.6674-.559-.2656.11-.4301 1.319-.6357.706-1.1986-.006-.0981.641-2.6724.408-.2814-.606-.2562h-.044l.342-.4744-.15-1.0089-.051-.0316-.54.0379h-.082l.085-1.1195-.936-.272.537-.2467-.267-.0759.151-.3447.644.0253.635-1.1196-.729-1.4484-.606.6862-.292-.2024.496-1.3567 1.501.0285.547-.6705.383.6863 1.225-.2436.235-1.2081-.427-.6293.195-.8128.659.0158.249-.7685.876.1423-.079-.3669.374-.6894.44.1233z"/><path d="m84.7371 37.9734.4711.1518-.1633.5882.1193-.0031.2356.389.6376-.1961 1.0396.4522 1.5484-.2625 1.0302-.6894 1.1684.9361.6251-.3162.1884.5629.6847-.1708.3675-.5344.5716.7685.2262-.2341.848.2625-.0754.2594.3361-.1487.5716.4618-.1758.2277.5465.1296.2638-.4933.4052.8918.6438-.5724 1.3192.9488.9674-.7179.5685.5281 1.5266-.4238.245.408.279-.408.751.1265.044-.6357.892.2183.678 1.1195-.304.7559 1.093.7938.173.6705.524-.1961.314.8096.503-.4048.201 1.1227.816.2309.201.4522.314-.2909.026.759-1.093.1044.521.3637-.638.6325.961.4016-.223 2.0368 1.084-.2214-.182.2656.512.3226-.757.2341.16.2941-.641.3827.211.5692-.971.272.409.7401-.71.2118.411 1.7743-.502-.193-.145.544-.377.0506-2.544-.0569-.484.4681-.731-.2056-.418 1.0689.418 1.088-.559.8412-.874.4618-.003.3985-.9232.1359-.6093.5155-.267-.7621-.4711.3004-.3455-.2625.2324.4206-.6344.4302-1.9065-.3448-1.5076.3353.5151-.8002.4491-.0474-.0063-1.1512-1.2186-.6641-.2544-1.1006-.5905.1549-.4083-.4965-.311.2783-.0691.1297-.6972.272.0062-.6578-.5559-.2404-.2827.6452-.3863-.0918.1539.3448-2.4907.2055-.1916-.4301.3958-1.0436-.1382-.7496-.647-.0885.0314-1.0057-.7884.3289-.8889-.5187-.336-.9203.1476-.797-1.0176-.4649.0785-.74-.6376.0063-.8323-1.0089.1319-.4712-.4586-.2783.6502-.8729-.5905-.2846.2198-1.5592-.6847-.6135.2262-.4017-.8072-.9962-.1131-.5345.3455-.2277-.6345.0538.1068-.7622-.3957-.7875.5245.0569.2764-.6957.1413.3226h.0691l1.2564-.3226z"/><path d="m101.403 125.973.747-1.31.091-1.556.343-.692.345.073.06-.592h.075l.289-.699.785.759.578-.465.076-.882.571.161 1.112-.892.575.617.022.807.798 1.638 1.441-.304.063-.917.474-.101.566.455-.085.513 1.002-.171.229.689.631.668.437-.14-.094.45.336.066.543 2.755.647.433.465 1.809 1.052 1.224-.37.256.1 1.322 1.068-.323 1.662 1.31.901-1.341.857-.149.048 1.025.552.133.198-1.009.679-.098 1.878 1.337.308 1.006.446.022.185.49-.013 1.93.861.287.757 1.395-.399.019.003.456-2.249 1.752.336.395-.713 2.16.198.724-1.146-.392-.713.18-.776 1.325.597.209-.135.418-1.671.974-.261-.351.129.49-1.068.522-.138.711-1.244-.465-.207-.42.261-.408-.418-.377-1.759.133-3.229 2.619-1.052.307-1.79 2.087.062-.313-.084.291-2.246-.37.116.379-2.095 1.715-1.281 2.084-.493 1.635.219.831-.414 3.818.239 2.909 1.221.427-.144.598.575.841-1.153.165-.594-.845-.961.136-.26-.297-.384.459-1.0204-.045-.7978.832-.5842-.215-.7663.345-.2984.326.2607.812-1.2407-.313-.6062.452-.6281-.129-.6408-.943-2.2959-.79-.7224.395-.5999-.139-.914 1.085-.8983.249-.691-.604-.3832-1.252-.6973.066-.7538-.673-1.2312-.143.1225-1.078.6282-.329 1.0773-.111.4115-.623.9516-.031.3173-.788 2.164-.035.1696-.319-1.1966-1.252-1.0522.319-1.1841-.436.1633-.313-.8732-.851.2105-.519 1.451-.322-.0816-1.057-.5999-.227.3078-.393.6376.029-.4837-.819.2073-.44-.5716-.322.2826-.314-.1445-.79-.4836-.367-.3298.319-.5057-.793-.0032.249-.8763-.101-.9862-.699.2073-.607-.4617-.873.6062-.734-.1759-.493 1.1904.006-.1571-.923.6596-.901.5528.838.3015-.449.0754.006.8481.212.6344-.487.4586.718 1.2752-.374.5779.589.0879-.86.4774-.51 1.8029.785.4617-.351 2.2897.085.7883-.705.0817-.829-.7664-.914.3926-1.692.9706.275.4585.554 1.9697-.734.21-.632.817-.345.989.291.038-2.571 1.953.379.468-.288-.182-.601.383-.575 1.031.009.188-1.002 1.084-.902.088-.48-.776-.589-.487.149-.283-.512-.465.183-.411-.455.776-.275.169-.914.493-.206-.131-.569-2.058.186.34-.74-.905-.262-.116-.557-.409.234.434-.835-.452-1.009.326-1.372-1.017-1.183.248-1.034zm-13.4841 39.463.6972.186-.314-.705z"/><path d="m77.884 93.4642.4052-.0981.1224.4618 1.1088-.1076.1256-.4459.5308-.0917.8009 1.0183 1.4417-1.5307.2481.6484.8418-.5471.2481.6325.7444-.5756.5653.5345.4052-.6673-.1633-.4713.4617-.1202.7318.5851 1.8217-.3289 1.4291.6294 1.4102-.3511 1.093.1645.0911.7274.6062.1739-.4114.5503.8166.623.2984-.4016.4397.9171.1319-.2466.6627.3036 1.0899 2.3593-.2042 1.3061.6722.9643.1288 1.186-.6156.288-.1006.81-.8354.936-.4146-.057-.0566.013-.8888.768 1.7651 2.16-.0251 1.275-.4648.025-.3235.838.7349.781-.3957 2.524.5308.506-.6219.411-1.7212-.781.1445 1.401-2.1609 2.144.0879.75.4115.294-.6879.528-.0848 1.018-.9705.412.5779 1.084-.4334.364-.11-.028-.5182.136-.9831.031-.4931.405-.5182-.468-1.382 1.015-.6722-.269-1.3568-1.689-1.3129-.022-.1005-.322-1.1747.499-.914-1.584.4429-.367-1.3506-.152-.6941-.604.066-.009.38-.418-.8009-.291.6533-.923-.6596-.342.1225-.92.3706-.019.7727-1.04-.8858-.434.4806-.579-2.252-.79.5936-.933-.6596-.411-.3957.313-.8794-1.49-1.5768.181-.3706-.405-.7381.895-.7915-.8.3047-.93-.7036-.528-.8826.136-.3015-.408 1.1025-.978-.0409-.787.9234.237.5717-1.714-.1947-.917.9139.167.8481-.895-.289-.762-.5277-.42-.3392.262-.5716-.604.267-.8634-.3204-.5091.4837-.2657-.7036-1.4168.757-.3542.6721-1.0848 1.3443.1581.5591-1.5623 1.0616.2846.3581-.797z"/><path d="m133.179 30.535.48.6673.226 1.4074 1.093-.6484.717.4586.402-.8634 1.35.2277.355-.4902.836.4143.411.8856 1.272.1075.201.857.782.0696.408-.3921.352.2719.352-.7969 1.457-.4207 1.64 1.088.835-.3321 1.668 1.1069-.22.3827.798.7369-.44.3732 1.341 1.3472-.119.4238.374.1834.085.6768.367-.0474-.157.6199.352.4617 1.263.2214.345-.5535-.311-.6388 1.307-.2024 1.24.6452.226 1.537.622-.8318.754.7084 1.159-.1897.625.3004.421-.5724.474.0063.032-.5629 1.039-.2435-.116.3795.76-.0854.446 1.4263 1.348.4839.072.3858-.76 1.9261-.544.4902-1.105-.718-1.646.4997-.459-.2435.044-.3637-2.192-.6388-.367-1.4264-.402.2404-.459 2.179-.546-.1012-.154.5598-.453-.0032.142.7939 1.225.3763.025.3099.581-.0695-.575.3668.013.5598.483.0886-.141.5344.628-.3478.352-.8603 1.391.4586-.141.2846.857.8065-.942 1.4927.302.5883.509.0474-1.125 2.1316-.694.4902-1.307.0633.899.525-.578-.1139.358.5756-.421 1.5022.305.408-.421.4965.534.3764.823-.1265.251.5787-1.822 3.2449.226.7021-.999 1.7268-.738.4269-.417 1.5718.226.1866-.427.37.301.8002-1.087.5408-2.468-1.6003-.559-.8223-1.63 1.1797-.56-1.0975-.599-.37-2.413.5598v-.1012l-.722-.5724-.145-1.0121-.031-.0221-1.244.3099-.483.9204-.695.4016-.282-.0443.421-.5882-.355-.1803-.632 1.0057-.493-.9709-.775.4523-.142-1.5813-.713-.2025-.333-.642-.895-.1707.556-.4491.129-1.3947.641-.3669-.553-.7116-.6-.1518.16-.5155-.55-.4712-.295.351-.838-1.4548-.591-.1644-.685.4902.198-.9456-.631-.2341.986-.6293-1.831-1.7047-1.514-.37-1.209-1.3283-.625-.0095-.182-.721-.76.3352.141-2.5079-1.558-1.1259.609-.8729-.326-.5124.279-.9329.057-.0569 1.018-.4238.301-.6895-.587-.1992.518-.1866.028-.6072-.361-.2404-.565.2815.508-.9425-.848-2.3245.688-.4839-.534-.5629 1.297-.7432.076-.3953-.408-.3226.376-1.1544.616-.2182-.314-.4902.499-.3384-.053-.7748-.678-.8603.383-.721.022-.1202.292-1.0057.402.0316.264.5598.929-.1297.358.5566 1.74-1.5085z"/><path d="m61.0804 150.239.0754.051.3235.797-.5434.392-.2449-.553.2544-.611.091-.069zm.3832-1.081.0754 1.129-.2167-.054-.3141-.304.38-.155-.0502-.68zm19.9445-30.111 1.1746-.5.1005.322 1.3129.023 1.3569 1.692.6721.268 1.382-1.015.5182.468.4963-.405.9799-.031.5403 1.021-.1539.867 1.049 1.562-.5465 1.695.3832.016.1539 1.05.4366.383.1664-.595 1.0208-.335.4146-.038.3329.55 1.7149-.186.2042-.702.7915-.573-.1319-.613.6596-.715.0534-.99 1.7274-1.765.4869.541-.0189 1.038 1.1307-.342.3734 1.569.421-.083.217.361-.333.234.33 1.499.584.651 1.354 1.566-.248 1.034 1.017 1.183-.326 1.373.452 1.008-.434.835.409-.234.116.557.905.262-.34.74 2.058-.186.132.569-.494.206-.169.914-.776.275.411.455.465-.183.283.512.487-.148.776.588-.088.48-1.084.902-.188 1.002-1.031-.009-.383.575.182.601-.468.288-1.953-.379-.038 2.571-.989-.291-.817.345-.21.632-1.9696.734-.4586-.554-.9705-.275-.3927 1.692.7664.914-.0816.829-.7884.705-2.2897-.085-.4617.351-1.8028-.785-.4775.51-.0879.86-.5779-.588-1.2752.373-.4586-.718-.6344.487-.8481-.212-.0753-.006-.3016.449-.5527-.838-.6596.901.157.924-1.1904-.007.1759.494-.6062.733.4617.873-.2073.607.9863.699.8763.102.0031-.25.5057.793.3298-.319.4837.367.1445.791-.2827.313.5716.322-.2073.44.4837.819-.6376-.029-.3078.393.5999.227.0817 1.057-1.4511.322-.2104.519.8731.851-.1633.313 1.1841.436 1.0522-.319 1.1966 1.252-.1696.32-2.164.034-.3172.788-.9517.031-.4115.624-1.0773.11.0754-.243-.87-.041.1288-.475-1.7809-.174-.6345-.518-.9202.072-.0283.664-.5245.203-1.0522-2.068-1.6364-.152-.7978.341-1.1747-1.42-1.2437.032-.3078-.342-.446.294-2.8425-1.293-.6439.398.1445.608-.3298.389.2827.136-.3204.363.468.506-.0314.63-1.0239-.26-2.2803.266-.8135-.591-.8574.901-.4523-.753-1.0868-.376-2.3242.927-.713-.13-.1539-.449-.5685-.149-.625-1.284-.358.196-1.6302-1.113-.1853-1.211.6031-.298-.088-1.274.3549-.569 1.0522-.263-.1696-1.116.6125-.263.3738-.917.647.054-.0691-.826.3109.076.4178-.933-.3769-.556.9893-.807-.4334-.468.0377-1.315-.8669.619.0188-.939.6188-.161-.625-1.37-.355.086-.0376-.696-1.0522-.259-.8009.246-.1131-.597-.4209-.048-.0283-.446.5183-.212-.1005-.948.7192-.544-.4146-1.284.4303-.032-.1978-.866.2889-.193-.6941-.532.7821-.756 1.0898.197.7758-1.016.5622.551-.3612.452 1.0428.598.223-.374-.267-.812.9297-.734.3864.525.4585-.769.512-.126.9077.569.1853-.341 1.6678-.358.245-.496 1.2375.015.4837-.458.9234 1.018.9956-.68.2293-.831.5402-.067-.1162-.591.9517.31.4178-.206-.1131-.677-.4178-.164.6942-.12.5748-1.525-1.0617-.651.3518-1.297.3141-.054.2733.712.1382-.301 1.429-.072-.0753-1.117-.4931-.329-.0063-1.122-.4617-.683.4397.129 1.159-.667-.1257-.37.7695-.835-.0785-.569.9831-.253 1.1998-1.041-.2293-1.028.8826-.278-.0534-.601 1.0208-.658-.3643-.588.3769-.111-.3675-1.42-.0534-.218z"/><path d="m95.9249.708422.1665 1.094258.757 1.14803-.5434.57559.1225 1.45479.4648.77168 1.1433.04428.9297 1.7837.6816.03163.7791.63568.6-1.23658 2.588-.78748.521 1.34094.905.48704-.28.90134.682 2.75458 1.102.6832.93-.3163.358-.5503.575.1993-.239.7463 1.407-.1802.679.8096-.022 1.7805.65 1.322.515-.9456 1.338-.019.675.5155 1.599-.6578.675.9867.531.1518.27.933.386-.0063-.062-.6326.603.3511.166.3953-.917.816.056 1.0183-.345.6041.936.0126.393 1.2999-.914.4301-.239 1.3947-.729.215-1.391-.4933.022-1.0342-1.235.7084-.201-.5756-2.054-.6578-.662.3258-.057.4902-.594.0917-.914-.6041-.691.7464-1.658-.3795-.446.4238-.672.0316-.248-.37-1.125.4269-1.02-.8412-1.043-.1297-.566.3574-.662-.1518-.7353.5819-.0816-1.1607-1.4417.6863.4334-1.3757-.6658-.2973-.2921-.0221-.0471.9361-1.6678-.6547.0251-.5471-.3298-.0538-.2513.5883-.2418-.5535-.4366.0538-.8135 1.0405-.5559-.4523.1539-.8982 1.3945-.8349-.5685-.7337-.5873-.0854-.6219.5756-.3423-.6641-.0691.5313-.7444-.3226-1.5736.7875-.2607-.3954-.5779.1835-.1162-1.0532-1.6992-.7305-.1885-.2372.4366-.4523-.2355-.1961-.5057.4017-1.3506-1.0089-1.8217.6325-.3047-.4554-1.1432-.993.4208-2.8337.6314.5155-.7664-1.1544-.179-3.2353.0533-.30361.1194.49653.2356-.32575.2575-1.47693-.424-1.39787 1.0459-.30994 1.0899-1.21127 1.6427-.53764-.3832-.07274 3.3104-.86023.1665.21506.691-.71475-.1445.37318.402.38584.2168-.75902.1068.24352 1.9347-.66731.3612.262495 2.1358-.882365z"/><path d="m37.3071 27.9922.6218.4206.4586-.2403.3581.5534 2.6917.642-.0628.4681.1633-.4459 1.5798-.2246.1822-.5819 2.7137.0158.4711 1.8059-.3392-.1202-.2293.8412.0063-.2814-.336.0632-.1508.6989 1.8625 2.8337-.4554 1.4611.6125-.5629.5088.3764.5371-.9235 1.4259-.1518 2.7389.9741 4.7112.3194 1.4982.8128.468-.1677.2701.408 2.8865-.8855 1.6741-1.537 1.2594-.5345-1.4699-.0633 2.274-.0348.5308 1.866-.3832.4839.3644.389-.1822.2625.6941-.2752.2733.234v.427l-.8229.3194.9642.7559-.1225 1.1322.6251.2562-.4241.6894.2482.6167-.6816.4523 1.049.74-.8323 2.0684.9014.6641 1.2752.0886.3895-.3701.1162.4175.3392-.117-.0691.4585.3424.0064-.3518.4427 1.9222 1.2904.2073.5882-.5999.6104.5434.2309.0251.5123.5842-.0095.0471 1.1481 1.9222 1.7489-.3989.9298.5214.7116-.8041 1.3377-1.8813.9931-.1916.4491.6627.2056-.2356.5534.5497.9298-.424.3795-.779.117-1.0993-1.4864-.1916.6041-1.3474-.31-.5999-1.2081-.1319.2277-1.137-.4585-.1288-2.0304-1.0616-1.1069-2.0384.4585.1633.3163-1.1181.6483-.1728.6104-.7695-.389-.6533.4491.0032-1.5117-1.2532-.1139-.3518-1.0594.3675-.3448-.8072-.7052-.5465-.0127.1005.5535-.3926.5724-.6502-.2973-.4177.7559-.5685-.5092-1.4762.019-.5371.7084-1.3066.5724-.1571-.8128-.3297.3353-.5403-.1012.2199.4649-.6031.2751-.2449-.5787-.4555.1992-.4114-.8697-.8292.0538-.6093-.408-.6313.5534-.8544-.3731-2.3964-.7053-1.3066 1.4833-.8795.1581-.8763-.5566-1.0867-2.8748.7758.2846.0157-.3479.267.2941.8449-.3985.9391.2088-.757-.5313.3298-.3258-.7978.4048-1.5861-1.8216-.0565-1.4865-.5214-.2656.9579-1.926-.2858-.1866.066-1.6983.691.1201-.7287-.3542-.2324.759-.2827-.7621-.1947-3.5959.6093-.0601-.6125-.2593-.1602.4965-1.049-2.3941-1.338-.8855-.4994-2.644-.5183-.6103.6156-.7433-.1036-1.2176-.3486-.5629-.9391-.3226z"/><path d="m80.4909 21.1292.9297-.117.0471.623 3.3858 3.1089.289 1.4579.6753 1.0658-.4774-.0189-.7852 1.3883.223.2847.5904-.2847-.7067 1.0247.311.4238-.267.8254h-.0565l.6815.8951-.4051.6926.358.2909.1916-.4491.4021.1582-.2387.6831-.1257.0822-.6313 1.1765.3361.0348-.2387.2467.5151.5503.1476 1.499.4114.3448-.1947.5724-.4052-.5282-.6344.155-.0722.661-1.0617 2.9191-1.2563.3226-.0691.0031-.1413-.3226-.2764.699-.5246-.057.3958.7875-.1068.7591.6345-.0507-.3487.2278.1162.5344-.6941.3321.1602 1.031-1.2815.7432.1351 1.0595-.5214.3985-1.4322.0632-1.3192-.623-.0785.8507-.6785-.234-.7004.6547h-.2701l-1.4668.1929-.1664.5503-.6282.3542-.5842.0095-.0251-.5124-.5434-.2308.5999-.6104-.2073-.5883-1.9222-1.2903.3518-.4428-.3424-.0063.0691-.4586-.3392.117-.1162-.4174-.3895.37-1.2751-.0885-.9015-.6642.8324-2.0683-1.0491-.7401.6816-.4522-.2482-.6167.4241-.6895-.6251-.2561.1225-1.1323-.9642-.7558.8229-.3194v-.427l-.2733-.234-.6941.2751.1822-.2625-.3644-.389.3832-.4839-.5308-1.8659.1288-.3574-.3078.2404-2.051-.6357-.6219-.8033 1.1276-2.7388-.3801-.5092.4115.1898.6753-1.0595 1.6929-.6831 3.2571-2.2265 2.4247-.3732 2.4405-1.0405.7695.2246.8511-.3859.132.3606-.0848-.3985 1.3976-.6705z"/><path d="m33.0982 81.184.5151.3637-.1853.6483.9768.4966.0943 1.0468-.7633-1.2176-.6941-.0285-.5057-.6104-.0879-.642zm15.4719-28.8239.8543.3732.6313-.5535.6094.408.8291-.0538.4115.8697.4554-.1992.245.5787.6031-.2751-.2199-.4649.5402.1012.3298-.3352.1571.8127 1.3066-.5724.537-.7084 1.4762-.019.5685.5092.4178-.7559.6501.2973.3926-.5724-.1005-.5535.5465.0127.8072.7052-.3674.3448.3517 1.0594 1.2532.1139-.0031 1.5117.6533-.4491.7695.389.1728-.6104 1.1181-.6483-.1633-.3163 2.0384-.4585 1.0616 1.1069.1288 2.0304 1.137.4585.1319-.2277.5999 1.2082 1.3474.3099.1916-.6041 1.0993 1.4864.7789-.117 1.5391 1.088-.8449.1075-.1257.5788-.3643.0853.4146.0918-.0283.4364-.6439.0474.0472.6547.5842.1455-.3078.8539.3957.8982-.4366.1549-.0534.8539-.2795-.4586-.3769.2183.1036 1.3377-.9925.952.1225.3162-.9768.2942-.5339.661.1319.5724.3015-.0917-.2952.4111-1.7244.5218-.1916.4997-.8606-.4744-.2449.4649.5025.797-.2544.1645-1.9725-.6768.0157.1644-.5182 1.1133.4177.2277-.0597.5281-.8951 1.9482.3832.3447-1.3694 1.9324-.2984 2.2644-.4649-.2119-.3455.2878-.38 1.4168-.6533-.272-.5622.8951-.6502-.31.4774-.6388-.5402-.0949-.267.272-.7977-.2214-1.7055.2783-.1445.4712-.9611.2562.2827-.5408-.4586-.038-.804.3732.1664.6073-.7192.6831-.9297-.1202-.5748.37-.9485-.4111-.8481.6831-.5685-.0885.424.2403-.1916.3099.3958.0127-.1508.2087.6753.2562-.3015.6926.7255.8602h.0534l.5183.3511h.0911l.3423.2245-.2607.2435.0126.0791-.0314.7116.8292 1.0531-.3047.2657.5559.4364-.2826.5155.559.2783-.1696.8793.3047.8191-.5685.2277.5119 1.246-.4271 1.0911.2732.1202.1916-.4238.8669.5503-1.4102 1.2935-.6565-.1613-.3141.4428-1.3757-.6705-.0565-.0822-.245.4681-.4774-.1772-.5842.3131-.3863-.234.4114-.9203-1.6144.4017-.2764.6167-.5339.0126-1.1181.0316-.0534.8539-1.4291-1.2144.2638.8128-.625-.9678-1.6207-.0031-.6093-1.167-1.7526-.3068-2.1452-1.42-.5654-2.2138-1.1872-1.6699-2.5316-2.3751-.1288-1.2903.5403-.0475-.1162-.3257 1.1244-1.148.0628-.7749.6596-.3827-1.5767-1.654-1.9222-.3447 1.0553-.6863-.066-1.8438-.5245-.1139-1.1433.7211-.9925-.876-.7318.3858-1.4762-.6135.4711-.3542.0377-.5725-.7004-.6957 1.3129-.952.0063-.4712.4491-.5598.2827.4017 1.0993-.0918.245-1.0689.7004.4206.7821-.351.2795.4427.0817-.6167.7726-.2182.2136-2.2707 1.4165-.8539.2387.4364 1.2375-.7242 2.6101-.019.4931-1.05 1.9442-.7685-.0754-.6294 1.181.1392.3235.5661 1.5202.4396 1.1935-3.675 1.806-.7495-.757-3.8773-.0534-.0506-.2921-1.2366.7287-1.2334-.468-1.692z"/><path d="m83.7448 15.095.1853.1487.3046.4554 1.8217-.6325 1.3506 1.0089.5057-.4017.2355.1961-.4365.4522.1884.2372 1.6992.7306.1162 1.0531.5779-.1834.2607.3953 1.5736-.7875.7444.3226.0691-.5313.3423.6642.6219-.5756.5874.0854.5685.7337-1.3946.8349-.1539.8982.556.4522.8134-1.0405.4366-.0537.2419.5534.2512-.5882.3298.0537-.0251.5472 1.6678.6546.0471-.9361.2921.0221.6659.2973-.4335 1.3758 1.4417-.6863.0816 1.1607.7347-.582.663.1518.565-.3573 1.043.1296 1.021.8413 1.124-.427.248.3701.673-.0317.446-.4238 1.658.3796.691-.7464.914.604.594-.0917.056-.4902.663-.3257 2.054.6578.201.5756 1.234-.7084-.022 1.0341 1.392.4934.728-.2151 1.163.4175-.189.914.496.2024-.031.7242-.616 1.7932.572.4649-.845 1.1734-.769.4237-.145.9109-.967-.0949-.23.3194.71 1.0279-.367.5313.383.4111-.493.3574.355 1.2366-.399.1454-.019 1.5719-1.008-.3448-.465-.5882-.889.5345-.056.7116-.958-.2309-1.728.8602.427 1.5813-.314.4396.368.3163.216-.1993.211.6041.446-.0854-.01.4459-.568.3321-1.081-.1613-.279.6167.487.8476-.669.3384-.022.4649.854-.1234.355.5756-1.143 1.0785.169.3415-.383.0728-.044.4934-.553.0506-.556 1.1891-.314.2909-.204-.4522-.816-.2309-.201-1.1227-.506.4017-.314-.8097-.525.1961-.172-.6705-1.097-.7938.305-.7558-.678-1.1196-.892-.2182-.044.6357-.751-.1265-.28.4111-.245-.4111-1.5228.4269-.5685-.5281-.9706.7147-1.316-.9488-.6439.5725-.4051-.8919-.2639.4934-.5465-.1297.1759-.2277-.5685-.4617-.3392.1486.0785-.2593-.848-.2625-.2261.2308-.5717-.7653-.3675.5345-.6847.1708-.1884-.563-.625.3163-1.1684-.9362-1.0302.6927-1.5485.2593-1.0365-.4491-.6376.1961-.2355-.389-.1194.0031.1633-.5882-.4711-.1518.0723-.661.6344-.155.4052.5282.1947-.5724-.4114-.3448-.1477-1.499-.5151-.5503.2387-.2467-.336-.0348.6313-1.1765.1256-.0822.2387-.6831-.402-.1582-.1916.4491-.3581-.2909.4052-.6926-.6816-.8951h.0566l.267-.8254-.311-.4238.7067-1.0247-.5905.2847-.223-.2847.7852-1.3883.4774.0189-.6752-1.0658-.289-1.4579-3.3858-3.1089-.0472-.623-.9297.117.9674-.9013.9203-2.0114.5999-.1993.2513.6072.9297.2499.38-.2783-1.9473-1.7584.2136-1.7869z"/><path d="m44.173 99.8431 1.1998 1.0149 1.0114.193.0219 1.038.6502 1.299-.5811 1.133-.4962-1.528-1.5359-1.372zm-1.3474-3.9595.4774.4427-.6094.0886.2513.4775 1.1496-.4933-.3455.3131.1853.234.7821-.1423 1.4919.8729-.7538.3763-1.9882-1.1196-.936.0032-.3675-.7875zm5.1415-1.1196.534-.0126.2764-.6168 1.6144-.4016-.4115.9203.3864.234.5842-.3131.4774.1772.245-.4681.0565.0822 1.3757.6705.3141-.4428.6564.1613 1.4103-1.2935-.8669-.5503-.1916.4238-.2733-.1202.4272-1.0911-.512-1.246.5685-.2277-.3046-.8192.1696-.8792-.5591-.2783.2827-.5155-.556-.4364.3047-.2657-.8292-1.0531.0314-.7116-.0125-.0791.2607-.2435-.3424-.2245h-.0911l-.5182-.3511h-.0534l-.7256-.8602.3016-.6926-.6753-.2562.1507-.2087-.3957-.0127.1916-.3099-.424-.2404.5685.0886.848-.6831.9485.4111.5748-.37.9297.1202.7193-.6832-.1665-.6072.8041-.3732.4585.038-.2827.5408.9611-.2562.1445-.4712 1.7055-.2783.7978.2214.267-.272.5402.0949-.4774.6388.6501.3099.5623-.895.6533.272.38-1.4168.3455-.2878.4648.2119.3424.8634.7821-.1139-.0691.3416.3549.1201.2575-.2719.2387.4554-.2826.6262.87-.2372.3015.5566.4523-.1645.1225 1.0152-.2764.155.4209 1.148.5433-.3605.9548.3827.8763-.563 1.2061.0316-.3957-.9393.6501-.0253.9643.6484.1665 1.3504 1.1966 1.0247.245 1.1575 1.2721 1.1891.1884.6262-.4586 1.2334.2356.5377 1.3537.6483.0723.5851.9516-.0063.6722.5566.0848 1.1132.7978.2847-.2011.604-.2387.3195-.2701-.0918-.358.797-1.0585-.2815-.5591 1.5624-1.3443-.1582-.6721 1.0848-.757.3542.7036 1.4169-.4837.2656.3235.5092-.267.8634.5717.6041.3392-.263.5277.421.2858.762-.8481.895-.9139-.171.1947.918-.5716 1.714-.9235-.237.0377.79-1.1024.977-.8449 1.433-.7098.01-.0848 1.518-.7224.518-.2262.706-.6658.003-.6533.816-.3675-.323.1916.421-.534.18-.3737 1.078.245 1.348-1.1842.677-.5276 1.018-1.0302-.389-.6219.455-.3549.702.3015.222-.5339.237-.0943.768-.5716-.426-.7255.594-.6157-.088-.8857-.38-.2795-.515-.4429.088-.3109-.528-.3298-.063-.267.49-.2324-.712-.0157-.082-.3015-1.711-1.8249-.335-.2921-.933-.1068.481-1.561-.133-.5182-1.825-.8418-1.24-1.9599-1.274-.6972-1.164-2.3745-1.385-.3549.076.1507.382-.1916-.379-.0188-1.752 1.3506-.317-.5905-.945.8292-.108.5214-.917-.3298-.705.2858-.079-.0691-.56-.4711-.449.8825.006-.6376-1.7392-.5433-.2182.1853-.3859-.5874-.2056.3078-.3636-.7412.2245-.4052-.3479.4869-.9077 1.1746-.914-.3015-.8032z"/><path d="m127.597 130.065.129.146.914.559.009.108-.621.294-.475 1.24-1.272-.215-.204-.826.474-.863.113-.203.101-.053.217-.051.402-.326.053.14.135.015zm4.573 21.885.443-.749-.386-.452.361-.241-.845-1.189-1.052.588-2.327.07-1.043-1.806-.65-.123-.343.49.157-.443-.314.187-.27-.642.217.797-.644-.345.43.506-.722.285.6-.042-.211.216.56.36.502-.44-1.049.952-3.317-.585-.314-.367.424-.746-.747-.541-3.952-.145.139-.712 1.068-.522-.129-.49.26.351 1.671-.974.135-.417-.596-.209.775-1.325.713-.18 1.147.392-.198-.725.713-2.16-.336-.395 2.249-1.752-.003-.455.399-.019-.757-1.395-.861-.288.013-1.929-.186-.49-.446-.022-.308-1.006.016-1.088 1.8.307.396 1.568 3.14-1.464.635.55.553-.585.207-.098-.192 1.518 1.012.38.254-.367.638.443.744-.133.386.256-.025.822.685.064.254.591 1.128-.244.785-1.072.493.43-.11.317.616.076.053-.313-.515-.146.563-.449.003-1.294h-.515l-.139-.616-.373-.101.276-.5-1.062.06-.345-.376-.368.24-.819-.68-.148-.92.754.107.273-.326-.436-.192-.085-.943 2.035.509.188-.525.462-.041-.873-.762.663-1.246-.063-.734 1.121.234.264-.424.525.159.533-.68-.411-.295.368-.977.728.241.892-.26.38-.389-.402-.43.889-.569.506.36 1.011-.891 1.479.227.575-.405.839.352.031-1.563-.461-.269.015-.831-1.558-.323.537-1.935.632.23.512-.281.411.983 1.125.339.464-.057-.081-.702.392-.304.409.177.474-.446.688.276.553 1.676.923.104.088 2.015 1.467 1.018.609.117.33-.335 1.131.715-.296.632.993 1.948-1.486.111.069 1.059-1.463 1.654.295.886.917.923-.725.152-.07 1.082 1.398 1.505.157.81 2.353.629 1.196 1.104.83-.098.188.563.876.057.079-.332 2.45-.351.238-.497.616.038-.229.794.628.86-.12.759-.555.25-.139.99-1.112.588-.113.832-.797.424.452 1.638-1.621 1.154-.876.117-.075.658-.233-.55-.141.383-.811-.07-.433.696-.678-.045-.459 1.196.305.629-.314.184-.299-.525-.779.645-.292-.288-.694.161-.336.506.258.307-.852 1.227-1.328.364-.575-.256-.374 1.347-1.847 1.36 1.599.101-.418.427.208.778-.512.234.066.342-.34.17-.775-.559-.845.686-1.461.117-.267 1.041-1.171-.624-1.137.111-.478.889.066.689-.782-.038.446-.275-.066-.626-1.344.019-.258-.497-.961.067-.062-.402-.522.399.867.616-.738-.196-.415.579-.405-.057-.462-.338.198-.832-.543-.016.072-.408-1.005-.085-.119-.649-.842-.12-.232.478-.892-.977-.478.316z"/><path d="m113.366 95.5327-.113 1.1638 1.074.2214.217.6325 1.479-.5566.983.4712.384-.389.235.3163.371-.1866-.06.5471.333.0443 1.269-.5598.43-2.081.691-.0253.591.5598.838-.4965.65.5376.249-.6736.556-.098.402.5218-.406.3732.738.4838-.216.7306.509.4238.279-.0791 2.101-6.4865.126.3353.437-.2657.945.5851 1.432-.3795.016-.2878.499.2562.383.9045 1.024.2213-.201.6294 1.015.5851-.207.2277.552 1.1322.267-.7084.167.6167.499-.0032-.019.9709.852-.079 1.356-1.4422.048.389.876.2815.151.9171 1.881-.0727 2.547-2.8653 1.373.933-.883 1.5528.292.6452-1.881.6515-.201.3795.392.2846-.483 1.0026 1.231-.4428.996.2277 2.176-1.6129.186-.5851-.638.0885-.166-.9867-.359-.1581.418-.914 3.477-1.8406 2.126.0442 1.8.5219-.644 1.3599 1.225 1.4105-.791 1.4485-.091 1.2492 1.322.2467-.298 1.439.769-.3068 1.338 2.0806.085.585-.622.968-1.087.588-1.209.073-.173 2.091 1.411 1.385 1.102.221-.298.971.301 1.55.71.193-.069.417.659.048.192.68.949.509-1.006 1.461.324 1.331-.851.823-.892-.155-.732.939-.685.025-.003.589-.575.177-1.058-.601-1.781.92-.688-.275-.474.446-.408-.177-.393.303.082.702-.465.057-1.125-.338-.411-.984-.512.282-.631-.231-.537 1.936 1.557.322-.015.832.461.269-.031 1.562-.839-.351-.574.405-1.48-.228-1.011.892-.506-.361-.889.57.402.43-.38.389-.892.259-.728-.24-.368.977.412.294-.534.68-.525-.158-.264.424-1.121-.234.063.733-.663 1.246.873.763-.461.041-.189.525-2.035-.509.085.942.436.193-.273.326-.754-.108.148.921.82.679.367-.24.346.376 1.061-.06-.276.5.374.101.138.617h.515l-.003 1.293-.562.45.515.145-.054.313-.615-.076.11-.316-.494-.43-.785 1.072-1.127.244-.255-.592-.684-.063.025-.822-.387-.257-.744.133-.638-.443-.254.367-1.011-.379.191-1.518-.207.098-.553.585-.634-.55-3.141 1.464-.396-1.569-1.8-.307-.015 1.088-1.879-1.337-.678.098-.198 1.009-.553-.133-.047-1.025-.857.149-.902 1.341-1.661-1.31-1.068.323-.101-1.322.371-.256-1.052-1.224-.465-1.809-.647-.433-.543-2.755.81-.449.336-1.075.509.281-.076-.392.23.24.367-.253.085-.715 1.589-.015.889-1.667 1.159-.183-.226-.858 1.087-.319-.431-.74.321-.553.358.025v-.168l-.327-.553.638.139.166.49.283-.168-.129-.774.562-1.155-.713-.967-.628.344-.502-.344.282-.5-.512-.304.468-.344-.427-.595-.813.19-.509-.579-.713-.066-.437.161.117.357-.946.124-.132.417-.656-.247-.032.396-.427-.816-.49-.079-.565.781-.198-1.136.967-.759.28-1.116-.666-1.54-1.435-1-.613-1.116.047-.629-1.196-1.243.436-.421-.091-1.062.512-.301-.804-.829.101-.74 1.127-.069.566-.487-.337-1.0217.211-.6642-.371-.4396.204-.9646-.53-1.4421 1.514-.6578.113-.0158zm13.393 34.7123-.101.054-.113.203-.474.863.204.825 1.272.215.474-1.239.622-.294-.009-.108-.914-.56-.157-.183-.135-.016-.054-.139-.402.326z"/></g><path d="m49.4 232.72h1v-9h-1v-3.28h8.78c1.72 0 3.0333.373 3.94 1.12.9067.733 1.36 1.927 1.36 3.58s-.4533 2.853-1.36 3.6c-.9067.733-2.22 1.1-3.94 1.1h-2.18v2.88h1.92v3.28h-8.52zm7.28-5.72c.7733 0 1.16-.427 1.16-1.28v-.72c0-.44-.1-.76-.3-.96-.1867-.213-.4733-.32-.86-.32h-.68v3.28zm20.1734 5.72h.8v3.28h-7.84v-3.28h1.2l-.32-1.6h-2.72l-.32 1.6h1.2v3.28h-6.84v-3.28h.8l3.38-12.28h7.28zm-8.44-3.72h1.84l-.82-3.98h-.2zm9.8733 3.72h1v-9h-1v-3.28h9.18c1.72 0 3.0334.353 3.94 1.06.9067.707 1.36 1.853 1.36 3.44 0 .893-.18 1.667-.54 2.32s-.8733 1.107-1.54 1.36l.02.2c1.28.2 1.92.987 1.92 2.36v1.54h.94v3.28h-6.34v-4.7c0-.52-.08-.913-.24-1.18-.1466-.267-.3866-.447-.72-.54-.32-.093-.78-.14-1.38-.14v3.28h1.32v3.28h-7.92zm7.68-5.72c.3867 0 .6734-.1.86-.3.2-.213.3-.54.3-.98v-.72c0-.44-.1-.76-.3-.96-.1866-.213-.4733-.32-.86-.32h-1.08v3.28zm8.3161 9v-3.28h1v-9h-1v-3.28h7.6002v3.28h-1v9h1v3.28zm14.5982.28c-1.28 0-2.493-.107-3.64-.32-1.133-.227-2.006-.48-2.62-.76v-3.96h4.4c0 .413.094.713.28.9.187.187.527.28 1.02.28.414 0 .707-.06.88-.18.187-.133.28-.327.28-.58 0-.213-.086-.393-.26-.54-.173-.16-.473-.32-.9-.48l-1.72-.6c-1.48-.56-2.546-1.22-3.2-1.98-.64-.76-.96-1.787-.96-3.08 0-1.573.514-2.767 1.54-3.58 1.04-.827 2.767-1.24 5.18-1.24 1.16 0 2.247.12 3.26.36 1.027.227 1.854.533 2.48.92v3.58h-4c0-.667-.413-1-1.24-1-.4 0-.686.053-.86.16-.16.093-.24.267-.24.52 0 .227.094.407.28.54.2.133.52.273.96.42l1.74.6c1.414.48 2.44 1.107 3.08 1.88.654.76.98 1.76.98 3 0 1.693-.573 2.973-1.72 3.84-1.133.867-2.8 1.3-5 1.3z" fill="#ea346c"/><path d="m49.36 212v-2.952h.9v-8.1h-.9v-2.952h10.764v4.662h-3.186v-1.71h-1.638v2.988h2.718v2.052h-2.718v3.06h2.358v2.952zm11.373-2.952h.9v-8.1h-.9v-2.952h8.262c1.548 0 2.73.318 3.546.954s1.224 1.668 1.224 3.096c0 .804-.162 1.5-.486 2.088s-.786.996-1.386 1.224l.018.18c1.152.18 1.728.888 1.728 2.124v1.386h.846v2.952h-5.706v-4.23c0-.468-.072-.822-.216-1.062-.132-.24-.348-.402-.648-.486-.288-.084-.702-.126-1.242-.126v2.952h1.188v2.952h-7.128zm6.912-5.148c.348 0 .606-.09.774-.27.18-.192.27-.486.27-.882v-.648c0-.396-.09-.684-.27-.864-.168-.192-.426-.288-.774-.288h-.972v2.952zm20.6965 5.148h.72v2.952h-7.056v-2.952h1.08l-.288-1.44h-2.448l-.288 1.44h1.08v2.952h-6.156v-2.952h.72l3.042-11.052h6.552zm-7.596-3.348h1.656l-.738-3.582h-.18zm19.254-7.704h5.9035v2.952h-.9v11.052h-5.0575l-5.274-8.118v5.166h.864v2.952h-5.904v-2.952h.9v-8.1h-.9v-2.952h6.498l4.7335 7.218v-4.266h-.8635zm13.5785 14.256c-2.268 0-4.02-.576-5.256-1.728-1.224-1.152-1.836-2.994-1.836-5.526 0-4.836 2.352-7.254 7.056-7.254 1.14 0 2.196.138 3.168.414.984.276 1.716.582 2.196.918v4.5h-4.32v-1.296c0-.456-.102-.792-.306-1.008s-.51-.324-.918-.324-.714.108-.918.324-.306.552-.306 1.008v5.436c0 .456.102.792.306 1.008s.51.324.918.324.714-.108.918-.324.306-.552.306-1.008v-1.458h4.32v4.662c-.492.336-1.224.642-2.196.918-.96.276-2.004.414-3.132.414zm6.007-.252v-2.952h.9v-8.1h-.9v-2.952h12.15v5.436h-4.032v-2.484h-2.178v2.844h1.584v2.052h-1.584v3.204h2.178v-2.844h4.032v5.796z" fill="#fdfbf5"/></g></svg>