<svg width="262" height="262" viewBox="0 0 262 262" fill="none" xmlns="http://www.w3.org/2000/svg">
<path d="M131.03 130.996V1C202.824 1 261.026 59.2013 261.026 130.996C261.026 202.791 202.824 260.992 131.03 260.992C119.031 260.992 107.09 259.331 95.5468 256.056L131.03 130.996Z" fill="#67C587" stroke="white"/>
<path d="M131.03 130.998L95.5468 256.058C26.4781 236.461 -13.627 164.584 5.96961 95.5151C16.3888 58.7924 42.4216 28.5051 77.1623 12.6875L131.03 130.998Z" fill="#EAF6ED" stroke="white"/>
<path d="M131.029 130.997L77.1622 12.6868C84.8498 9.18667 92.8601 6.44411 101.08 4.49805L131.029 130.997Z" fill="#C9EAD4" stroke="white"/>
<path d="M131.029 130.998L101.08 4.49885C107.707 2.92988 114.447 1.88408 121.237 1.37109L131.029 130.998Z" fill="#A9DEBA" stroke="white"/>
<path d="M131.029 130.998L121.237 1.37072C122.866 1.24766 124.497 1.15532 126.13 1.09375L131.029 130.998Z" fill="#88D1A1" stroke="white"/>
<path d="M131.03 130.996L126.13 1.09237C127.762 1.03079 129.396 1 131.03 1V130.996Z" fill="#59AA76" stroke="white"/></svg>
