<svg fill="none" height="262" viewBox="0 0 263 262" width="263" xmlns="http://www.w3.org/2000/svg"><g stroke="#fff"><path d="m131.4 130.983v-130.404021c72.02 0 130.41 58.384021 130.41 130.404021s-58.39 130.403-130.41 130.403-130.4-58.383-130.4-130.403c0-23.889 6.55997-47.319 18.97-67.732z" fill="#67c587"/><path d="m131.4 130.983-111.4303-67.732c8.32-13.683 19.08-25.717 31.76-35.5z" fill="#eaf6ed"/><path d="m131.401 130.983-79.6705-103.2319c10.33-7.974 21.8-14.351 34.02-18.92005z" fill="#c9ead4"/><path d="m131.4 130.983-45.65-122.15195c9.85-3.682 20.11-6.158 30.56-7.375z" fill="#a9deba"/><path d="m131.401 130.983-15.09-129.52704c2.51-.292 5.019-.510986 7.529-.657986z" fill="#88d1a1"/><path d="m131.4 130.983-7.56-130.184019c2.52-.147 5.04-.220002 7.56-.220002z" fill="#59aa76"/></g></svg>