<svg width="263" height="262" viewBox="0 0 263 262" fill="none" xmlns="http://www.w3.org/2000/svg">
<path d="M131.4 130.983V0.578979C203.42 0.578979 261.81 58.963 261.81 130.983C261.81 203.003 203.42 261.386 131.4 261.386C59.38 261.386 1 203.003 1 130.983C1 107.094 7.55997 83.664 19.97 63.251L131.4 130.983Z" fill="#67C587" stroke="white"/>
<path d="M131.4 130.983L19.9697 63.251C28.2897 49.568 39.0497 37.534 51.7297 27.751L131.4 130.983Z" fill="#EAF6ED" stroke="white"/>
<path d="M131.401 130.983L51.7305 27.7511C62.0605 19.7771 73.5305 13.4001 85.7505 8.83105L131.401 130.983Z" fill="#C9EAD4" stroke="white"/>
<path d="M131.4 130.983L85.75 8.83105C95.6 5.14905 105.86 2.67305 116.31 1.45605L131.4 130.983Z" fill="#A9DEBA" stroke="white"/>
<path d="M131.401 130.983L116.311 1.45596C118.821 1.16396 121.33 0.944974 123.84 0.797974L131.401 130.983Z" fill="#88D1A1" stroke="white"/>
<path d="M131.4 130.983L123.84 0.798981C126.36 0.651981 128.88 0.578979 131.4 0.578979V130.983Z" fill="#59AA76" stroke="white"/>
</svg>
