<svg fill="none" height="322" viewBox="0 0 237 322" width="237" xmlns="http://www.w3.org/2000/svg"><g fill="#fdfbf5"><g stroke="#171619" stroke-width=".5"><path d="m56.6849 223.502.1785.62-.4401-.172-.6246.213.3108-.311-.1939-.409zm7.8191-53.222 1.7879.101.8739-.201.2185-.371.1785.009.4892-.608-.2738-.552.6585-.625.7754.323.4647-.391.3508.403.4185-.056.2677-.395-.3847-.397.4185-.516-.043-.62-.637-.563-.0954.786-.4708-.012-.277-.424.5755-.294-1.5263-.281.5323-.16-.1477-.709.7078-.021.3969-.29.3939.266.6524-.578.64.59.4278-.513.4492-.053.2001.694.6492-.054.3231.65-.1015-.887.2123-.234.3047.125 1.3047-.38-.0769.531-.04.468.0615.569-.3816.164.2985.249-.3323.56.5539.501.1631-.053.2831-.128.0338-.673.637-.317.3323 1.147h.1816l.3262-.643.8985-.608-.0892.285.7477.539-.0615 1.471.4862.276.3354.934-.5878.474.117.501-.7232.644.9355.29.1077-.64.6678-.581.3261.154-.3354.578.4278-.015.0123.258h.08l-.2185 1.749.2677.258 1.7879-.026.2184-.534.6062-.394-.4185-.359.5047-.495.517.347-.1231.658.7385.074-.4246.534.4246.797-.3323.03-.2093.433.7755.29.5508 1.213-1.0709.486.317.828-.3262-.042-.0739.291.1385.37.6308.178-.1969.65.4893.587-.4462.507-.197-.377-.28.495.4616.169-.277.148.4001 1.044-.2647-.006-.0369.341.6093.193.2523.424.2216-.131.3816.798.3877-.243.5693.418.1446.557-.597.309-.3015.513.3661.326.4401-.057-.3108.457.5385.374-.2277.649.8462-.068.5477.471.5232-.047.1538.679.4893.107v.355l.2739-.05.2092.326.1477-.154-.1662.498.2585-.059.2431.619.4155.244-.2555.139.3724.483-.6678.323.6032.484-.0031.86-.5047.441.4185.362.0093.554-.5539.356.2369.653-.4.142.3015.418-.2308.273.597.528.3354-.202-.1754.196.5385.587-.2246.151.4616.439-.5878.483-1.0585.261.3046-.329-.0738-.495.3046-.083-.5877-.131-.3908.89-.5385.373-.5047-1.023-.6124.11-.6892-.498.0861.483-.3292.163-.0308.43 1.3232 1.607-.4801.148-.0892.398.3877.714-.2308.611.1816.566-1.4894.327-.1508.142.2832.024-.0093.394-1.1293.46-.2523.501-.7509.074-.5108-.632-.8462.653-.5077-.128-.1816.611.2708.237-1.394 1.444.0893.412.4646.015-.0184.454 1.317 1.856-.0185 1.358.8678 2.893.5447.543.1661 1.076v.433l-.0831.154.0247.187-.5109 2.013-.5385.217v.519l.4524.43-.0246.64-.2677.727.1907.139-.5539.373.0954.3.437-.216-.2739.604.3016-.302-.0831.291.6924.916-.3477-.069-.1139.33-.4523-.107-.5416.474 1.0678.762-.0339 1.145.4616.498-.1754.676-.3693.323-.4092-.202-.2832.949-.24-1.014-.6554.024-.0769-.323-.5416.166-.6862.809-2.2002-.738-.4124.282-.0153.124-.2955.406-.4831.063.0585.344-.8093.631-.9324.291-.9293-.276-.3785.243-.5293.602-.2308.931-2.6371-.466-5.4682-2.591-1.8924-.631-1.3817-.172-2.431 1.052-.8585-.934.0123-.4.437.056-.0308-.273-1.0432-.275-.1938-.685-.754.542-.0123.324.7816.364-.3385.549-1.2831-.531.1815-.631-.4616-.336.1816-.459.3723-.104-.3508-.462-.5723.243-.197-.801-.5816-.43-.1938.335.1538.418-.4554.404-.2246-1.121-.8124-.024-.1815-.234-.1047.4.2831.344-.4739-.086-.6246.391-.7109.024-.68.836.0954.492-.9386.671.2893.418-.2985.278.7724.549.44-.074.157.501-.0462-.297.4031.229.6401-.086-.0062-.436.277.083.0769-.279.6893.131.4954-.285.4554.697-.2431.278-.1323-.406-.2523.258.1723.827-.5724.516-.2861-.172.1569-.441-.9755-.454-.2308.439-1.0031.444.2123.487.4185-.128-.04.315-1.0862.311-.6616-.308-.2893.311-1.1663-.205-.6831-1.017-.6247-.157-.5969.294-.4185-.448-.7847.732-1.0863.353-.3908.679-.4246-.19-.9447.389-1.1878-.202-.32.389-.5939-.178-.4062-1.035-1.3663-.018-.5108.848-2.0279.7-.5015-.11-.6432-.697 1.0124-.127-.2769-.587.4031-.383-.3662.252-.517-.103-.5354.498-.5816-.341-.4677-1.195-.8616-.83-.2124-.985.714-1.017-.357-1.278.637-1.74-.1077-1.062.4923-.51.0277-.94.7693-1.165-.28-.824-.7539-.931.1446-2.437 1.7602-2.859.5231-2.271 1.0124-.72-.24-1.907.6185-1.681.0861-1.041.7386-.696-.117-1.975.7662-1.625.9817-.602 1.4647-1.711.1539-1.005.8585-.092.2739-.729.7231-.086.4493-.385 1.1693-2.921.9478-1.512.6862-.255 1.0155-.839.2584-.537.2893-1.147.917-1.349.1785-1.966.7262-1.45-.3877.021.1046-.463 1.9171-1.74-.7478-.86.9324-1.207.04-.631-.517.433-.2154-.226.6401-.578.24-.975-1.2678-.442.4062-.596-.9385-2.405.1384-.877.4955-.17.5416.178 1.6801 2.008.6893-.492.2246.094.1631-.376-.4062-2.002 1.9048-.394-.0923.436-.1231-.403-.2246.157.5385.563-.3324.629.4862.783-.0615.379.6062.501-.0031-.077 1.2709.27.5016-.371-.1047.543.2862.409.2893-.267 1.0216-.053.0277.525-.4585.516-.2862.02-.1877-.501-.5262.445.237.999-.7109.679.2616.394.3262-.314.3569.359.8616-.756.1601-.655.2123.183.7262-.518-.3693-.418.1785-.427.2677.056-.0461-.614.6646-.184.7816.371.4185-.317.08-.143.2832-.486.68.119.1354.474.3816-.21-1.0493-1.397.0277-.308.1877.412.3323.029z"/><path d="m82.9146 142.727.6031-.309-.0338-.272.7385-.825.6739.623.16-.282.4801.282.0769-.267.48-.071.0923.409.4555.279.0092.59.4677-.059.9078.575.5508-.009.1354.845.6062.797.2677-.035-.2092.222.6185.19-.3569.498.2092.442 1.1201-.231.4123.833h.1447l.2185-.054-.0062.593.4-.133.0554.285.3447-.46.2369.05.3354.771.7478.125-.1508.765.2369.442-.2523.628.3231-.006-.1815.246.2431.416-.2647.103.2.454.4308.21.5786-.204.7046.531h.1016l.3292.216.2554-.199.0339-1.177.7416.291.6247-.303.4185.413.4708-.196-.0216-.91-.6677-.116h-.1077l-.0523-.362-.6339-.047-.5662-.661-.5109-.155.2493-.696-.2985-.045.0554-.545.7539.186.6185-.785.3754.157.5262-.386.5909.134.2738-.252.2954.474.3324-.193.148-.056.39-.104.961 1.317.252-.048-.08-.471.849.157.142.474.806-.231.071-.4.517-.039.052.519.391-.118.391.667-.48.904.249.418.708.145-.127.321.284-.095.095-.59 1.105.723.101-.599h.08l-.178-.142.347-.371-.157-.91.293.024-.289-.454.452-.258-.52-1.18.175-.901-.366-.549-.009-.88.769-.187.077.282.219-.41.397-.041-.016-.525.502-.065-.022-.297 1.668.282.194.353-.108.234-.298-.071.006 1.468.594.373-.151.353.428-.359.357.054-.074.874.815.143.028.622.745-.311.221-.433.437-.086.609.457 1.634-.442.117.19.49-.386.48.095-.216-.258.394.128.136-.273.892.501v.388l1.932-1.002.588.46-.08.367.296-.13.366.338-.114 1.115.391-.107.96.845.021-.184.871-.047.179.456.48.341-.123.273.412.635-.828.391-.123.383.695.486.456-.083.188.732.286-.08.166.421.277.015-.157.13.523.762-.421.774.104.97.625.439.326-.089.529.616-.274.531 1.108.16.206.596.197-.204.588.652.646.044.028.318.566.074.022.522.554-.309.578.409.182.27-.557.682.138.371 1.363.448.059.584-1.034 1.292.009.534-.455.071-.2.73.154.708-1.388.75.034.534.75 1.136.893.477.671.021.123 1.986.637-.044.575 2.372.622.329.292-.169.151.258-.206 1.349.455.691.009.545 1.003.285.961.866.449 1.384 1.332.069.668.439-.009-.602 1.218.18 1.231 1.112.434.045.095 1.144.401.024.144.38.394.112.132.546.511.281-.052.457 1.185.857.132 1.023 1.117.67 1.052-.136 2.044 1.868.193 1.924 1.804 1.304.252-.035-.006-.756.471-.149.957.11.554.937.4-.332-.127.302.954 1.676.874.074.428-.243.511 1.456.566.16.428.91-.188.492.68.264-.889 1.61.341.394.499.086-.489.205.209 2.197-.453.519.01.611-.622.572-.218-.285-.24.309.052.604-.323.504-1.29-.557-.227-.4-.936-.522-.643.184-1.271-.845-.049.409-.594.548-.498-.228-.231.169.366 1.32-.615 1.565.249.744-.554 1.592-1.499 1.379-1.547.94-1.438-.065-3.154 1.055-1.243 1.358-1.714.22-.443.975-.945.599-.27.658-.542-.091-.169.486.252 1.026 1.748 1.616.452 1.479.773.187.163.474.314-.106 1.283 2.635-1.483 2.165.292.225-.683 1.139.397.356.852.086.889-.442 1.247 1.023-.071.477.425.979-.708.922.172.4-.557.314.302.398-.514.75.308.367-.025.842-.855.786-.176-.424-.397-.178-.114.303-1.157-.635-.52-.691-.569-.237-.114-.454-.991-.255-.317-.717.339-.67.523-.196-1.283-1.082.464-.623-.477.261-.535-.459-1-.063-.616.35-.864-.068-.57 1.121-.76-.092-.778.308-1.169-1.405.018-.549-1.419.306-.618-.356-1.585.498-.274-.421.453-1.088-.243-.276-.739.863-1.003.332.723 1.735.055.886-.55.151.058-.37-.766.24-1.496-.377-.806.249-.234-.427-.64.326-1.221-.011-1.133.332-.221.56-1.216-.261-2.342.202-.52-.294-.046.392-.594.05-.314 1.483-.304.29-1.302.276-1.44-.228-.966 1.141.461.128.274.646-1.652-.128-.914.617-.028.546-.415.29-.874.057.569-.917-.932-.16-1.53.602-.237.439-2.726-.05-.139-.463.274-.427-1.071-1.135.124-.27-1.299-.042.0708-.545.8772-.315-.5849-.667-2.1417.638-.3693-.561-1.2493-.287-.0862-.406-1.8001-.267-.5139.975-.954-.035-1.3324-.573.4985-.827-.837.024-.1538.201.4369.641-.4185 1.417.237.516.4985.222.1354 1.213-.7693.614-.0093.821-.7754.148-1.2986 1.969-1.9048.964-.6308-.172-.4923.196.0646-.727.6893-.454-.2954-.426.7385-1.519-.1939-.16-.28.232-.5877-.368-.3631.682-.914-.175-.3846.543-.5508-1.572.677-.465-.2278-.697-.76-.35-.2247-.602-.84.128-.2677-.413.1631-.145-.594-.519.1047-.688-.1477.321-.8309.142-.7785-.516-.1477.554-1.154-.554.2339-.863-.5108-.453-.7724.323-.5016 1.399-2.6679-.4.2308-.931.5293-.602.3785-.243.9293.279.9355-.291.8093-.632-.0585-.343.4831-.063.2923-.406.0154-.124.4124-.285 2.2002.738.6862-.806.5416-.166.0769.326.6523-.024.2432 1.011.2831-.946.4123.202.3662-.323.1785-.676-.4647-.501.0339-1.142-1.0678-.762.5416-.474.4492.106.1139-.329.3508.069-.6924-.92.0831-.287-.3016.302.2739-.605-.437.217-.0954-.3.5539-.373-.1938-.14.2677-.726.0246-.64-.4523-.43v-.519l.5385-.217.5108-2.013-.0246-.187.0861-.154v-.436l-.1661-1.073-.5447-.543-.8647-2.893.0185-1.358-1.3171-1.857.0185-.453-.4677-.015-.0862-.412 1.394-1.444-.2708-.24.1815-.611.5047.13.8462-.655.5108.632.7509-.074.2554-.502 1.1293-.459.0062-.394-.2831-.024.1507-.142 1.4894-.327-.1785-.566.2277-.614-.3877-.714.0892-.395.4801-.148-1.3232-1.61.0277-.43.3292-.163-.0861-.483.6924.498.6123-.11.5047 1.023.5385-.373.3908-.893.5877.134-.3015.083.0707.492-.3046.329 1.0585-.261.5878-.48-.4616-.442.2246-.151-.5385-.584.1754-.196-.3354.204-.597-.53.2308-.273-.3015-.418.4-.142-.2369-.653.5539-.356-.0062-.554-.4216-.362.5078-.442.003-.856-.6031-.487.6708-.323-.3754-.486.2585-.139-.4154-.244-.2431-.619-.2585.059.1662-.498-.1447.154-.2123-.329-.2708.05v-.355l-.4893-.107-.1538-.679-.5231.047-.5478-.471-.8462.068.2277-.649-.5385-.374.3139-.459-.4401.059-.3661-.326.3015-.513.597-.309-.1416-.554-.5723-.418-.3847.243-.3815-.801-.2216.131-.2523-.424-.6124-.193.037-.341.2677.006-.4001-1.044.277-.148-.4616-.169.28-.495.197.377.4431-.507-.4893-.587.1969-.65-.6277-.178-.1416-.37.077-.291.3231.042-.317-.828 1.0709-.486-.5508-1.216-.7755-.29.2093-.43.3354-.03-.4247-.797.4247-.534-.7385-.077.1231-.658-.5201-.344-.5016.492.4185.359-.6062.397-.2185.534-1.7847.023-.2708-.257.2185-1.747h-.08l-.0154-.258-.4278.015.3355-.578-.3232-.154-.6677.581-.1077.637-.9355-.29.7201-.641-.1139-.501.5878-.474-.3354-.934-.4862-.276.0615-1.471-.7477-.539.0892-.285-.8985.608-.3262.643h-.1785l-.3354-1.147-.637.317-.0338.673-.2801.128-.1631.053-.5538-.501.3323-.56-.2985-.246.3816-.164-.0616-.569.0431-.471.0769-.531-1.3047.38-.3046-.125-.2154.234.1015.887-.32-.653-.6493.054-.2-.694-.4493.053-.4277.513-.6401-.59-.6523.578-.3939-.266-.4.293-.7078.021.1508.709-.5324.16 1.5263.281-.5754.294.2769.424.4708.012.0954-.786.6339.56.0431.623-.4185.516.3847.394-.2647.398-.4216.053-.3508-.403-.4646.388-.7755-.323-.6616.626.277.554-.4893.608-.1785-.009-.2184.371-.874.201-1.7878-.101-.3816-.673-.3231-.053-.0031-.498.6893-.635-.2369-1.515.7508-.219-.1138-.383.4954-.785-.7939-.522.5323-.682-.1354-.403-.7323.136-.2524-.762.1662-.851-.4123.433-.2308-.22.1631-.201-.4955.062-.0615-.658.3385-.018-.5385-1.266-.0923-1.975.1477-.415.4646-.041-.2954-.32-.1077-1.053-1.0247-.225.4308-.617-.0154-.664.4185-.575 1.9663-.445.6863.279-.0524.744.7724-1.032-.1015-.329.6923-.326.6524.311 1.0893.154.3631-.216.2462.264.5662.006.6278 1.203.6216.175 1.5355-.299-.0893-1.492.2524-.124.1507-.48-.0277-.039-.5631-.273.04-.48.2985-.181-.4-.804.1015-.447.8186.498.6708-.231.1292.32 1.6002-.347.0215-.222-.5477-.282.3261-.608.9294-.29.8831-.851.0062-.934-.2678-.424.5632-2.055.3754.19.4154-.19.1262.353.9785.483.2431-.391.2185.302.3877-.116 1.1232-.602.7816-1.117.3877-.146z"/><path d="m150.274 77.4081.022.0118.218-.1008-.021.4121.701.4181-.498 1.1504.212.4804.822.1423.634.5248.034.6819.994.2254-.154.332.56.0356-.902 1.7998.24.1719.483-.3943 1.145.7442-.108-.4003 1.139.762-.382.3381-.286-.0653.348.1601.009.0712-.095.0119-.111.1897.135.338-.194.3084-.84.4151.262.3499-.526.2668-.49.848-.218-.2194.141-.9636-.289-.175-.44.2372-.298-.5663-1.071.1216-.022-.3291-1.098.1275-.262-.7413-.911.3054-.006 1.0526-.609-.0564-.046-.3231-.314-.0089-.529-.679-.453.2253-.304-.0949-.145-.3172-.452.3676-.493-.0059-.064-.4803-.397-.0386-1.139.4655-.175.2995.249.0385-.751.1453-.105.006.194-.2432-.674-.3706-.095-.0504-.141-.003.123-.3231.52-.4863-.256-.3499.163-.8954.963-.9636-.47-.3202-.508.0859.194-1.0229.366-.083.154-.6849-.486-.3617.689-.3825 1.034.3409-.296-.59.376-.6582.843.0178-.052-.4003.424-.0563.007-.5871.523.1067-.006.8866.984.163.68-.759.566.3736.416-.4448.514-.0266-.397-.3618.172-.2075.28-.1572.117.0327z"/><path d="m106.938 63.2201 2.468.3529.086-.8895.468-.0475.382.1898.44-.1661.166.424.624.1957.567-.1482.474-.4003-.117-.4092.326-.4566-.311-1.3935.705-.1394.775-.8213.797-.1512 1.191.3884.058.4537.881-.3025.824.0801.243-.3617-.667-.5337 1.249.1423.631-.8895 1.111.2046.486-.8717.406.1927.557-.2817-.111-1.0615.84-.5277-.258-.679.668.1364.046.6582.578.083.779-.5307.354.6849.323-.1097.037-.3202.834-.1779.547 1.1059 1.019-.1334 1.612.8806.013.504.677.3054.335.8036 1.572-.4567 1.573.6375 1.102-.3113.289.1512-.203.4892.354.2194 1.409.089-.351.7442.612.3914 1.518-.4418.603.676.501-.4477.502-.0474-.169.2372.378.0444-.049-.2461.554-.1897.31.2728-.729.5426.317-.1127.32.5159.582-.1453.664-.9013.751-.1542.173-.4181.378-.0534-.021-.6374.492.0059.4-.4596.658.0208.391.8569.539.1986.286-1.2601 1.074-.762.754.2372.437-.1423.501 1.1089.382-.1927-.034-.0534.674-1.106-.037-.424.348-.0118.154.3024.43-.1067.351-1.0496.385.1897-.123-1.0496.16-.4269.363.0444.28-.4032-.12-.6612.705-.4714.775.1037.139-.9962 1.581-1.2601.502-.1364.708.3795.726-.3706.197-.3795-.945-.5456.36-1.4202.585 1.2957 1.067.424-.04.9695.776.6464-.28.7146.311.2935 1.652-.4032.889.1541.111.5219.683.083.696-.9577 1.151.593.554-.0474.283-.344.332.2016.095 1.2691-.366.9221-1.88 1.9361-.631 1.1356 1.203-.1482 1.031.3943.976-.1631.03-.5337.757-.2965.311-.7916.597.0385 1.253-.6523.178 1.6545.363.08.148.4092-.846 1.6574-.539.341-.175 1.2038.381.6345-.455 1.9628-.382.8213-1.664 1.5152-2.256 1.3372.32 2.3957-.742 1.4469.376.4299 1.495.2461 1.185 1.3017 1.428.7501 2.209 2.7723 2.607 1.6366.803 1.1356-.671 1.1949.579 1.3284-1.053 1.5091-.603.2639-.292 1.1831.532 2.0428.431.6197-.163.5634.341.507 1.874.5396.505.6167-.148.845-.409.3796.375.7857-.486.848.04.8361 1.511 1.5566-.268.3469.053.6849-.656.8984.142.3025-.32.5099.301 1.0289-.504 1.2576-1.659 1.411-.381.863.317.682.769.284.446 2.123 1.351 1.145.385.854.147 1.604-.68.762-.652-.478.132.587-.474.765-1.258.089-.373-.655-.56-.261-.455.231-.126.41-1.64.053-.136.436-1.157.032-.905.706-.175.46-.169-.246-.012-.143-1.059-.489-.474.139-.631-.355-1.492-.119-.16.338.215.267-.683.074-.212.697-.397.16.268.471-1.068.033.56.928-.489.296.163.504-.576.413.219.258-.456.044-.111.652-.547-.1.015-.513-.246-.095-1.037.504-1.4-.143-.299.457-.711-.03-.193.238-.133-.238-.504.258-1.456-.444-.172.216-1.219.018-.16-.448-.372-.041-.496.471-.123-.368-.274-.014-.067-.599-1.117-.306.203-.201-.532-.418-.499.317.135-.362-.55-.578-.462.519.049.329-1.074-.347.105.326-.831.445-.012.385-.489-.053.123.468-1.028-.341-.419-1.212-.092.376-.262-.127.545-.685-.406-.732.046-.507.329-.024.117-.958-.434-1.005-.815-.356.345-.753-.767-.812-.689.347-.665-1.133 1.874-1.168.247-.243-.157-.558.646-.172-.646-.868.23-.187-.329-.519.296-1.148-.804-1.527.597-.136-.264-.578-.369-.065-.757.421-.782-.095-.259-.279.216.003.123-.605-1.422.015.037-.652-.372-.063.04-.382-.757-.1246-.597.3646-.056-.207-.667-.0301-.145-1.0021-1.274.1571-.477-.7324-1.652-.7738-.299-.0208-.224.5604-.591.0801-.04.2965-1.422-.1068-.077-.5189-.889-.3409-.219-.6019-.353-.0326-.219.5307-.301.0237-.902-.8183-.591-.1394-.898-1.3639-.739-.3706-.268-.8598-.849-1.1267.169-.4744.385.0059.015-.8391.982-.507-.736-.2076.24-.1571-.523-.3736.61-1.9806.603-.9251-.486-.596.43-.3795-.233-.252.147-.6375-.523-.2461.446-.2787-.154-.2105.834-1.4647-.437-.3291.425-.2639-1.169.3143-.219-.2787.203-.1572-.538-.6552-.477.6345-.643.1542-.36-.5575.449-.5811-.366-.2105-.539.2817.705-1.3788-.2-1.5773.64.1986.532-.3232.037-.2965.12-1.3224-.338-.249.101-.4596-.35-.2342.064-.2698-.234.0593.456-.8125-.256-.4506.225-.9073.575-.0534.157-.4744-.474-1.7612-.646-.2016-.126-.3143-1.354.7917-.037-1.2661-.234.5426-1.751-.424-.846.4536-1.757-.593-.437-.4595-.689-.0089-.237-.3677.517-.6108-.083-.3617-1.139-.258-.861-.8924-.933.3647-.338-.9637-.994-.1097.271-.8361-.776.0712-1.015-.5515-.757.1512-1.09-.9458-2.243.7234-1.289-1.3431zm43.01 14.1519-.172.2076.397.3617-.514.0267-.416.4448-.566-.3736-.68.759-.985-.1601.007-.8895-.524-.1067-.006.587-.424.0564.052.4002-.843-.0178-.376.6583.296.59-1.034-.341-.689.3855.486.3587-.154.685-.369.083-.194 1.0229.511-.086.467.3202-.963.9666-.163.8955.256.3498-.517.4863-.124.3232.142.0029.095.0504.674.3707-.194.2431.105-.0059.751-.1453-.249-.0415.175-.2995 1.139-.4625.397.0385.064.4833.489.0059.453-.3676.144.3143.305.0948.452-.2253.53.679.31.0089.047.3202.609.0593.006-1.0526.911-.3054.261.7413 1.099-.1275.019.3261 1.07-.1215.302.5663.44-.2372.286.1749-.141.9636.218.2195.489-.8451.523-.2698-.261-.3499.84-.4151.194-.3083-.132-.341.11-.1897.096-.0119-.01-.0712-.347-.1601.286.0653.381-.3381-1.138-.762.108.4003-1.145-.7412-.483.3943-.24-.169.901-1.8027-.56-.0356.154-.3321-.994-.2253-.034-.682-.633-.5248-.825-.1423-.212-.4803.498-1.1504-.702-.4151.019-.4122-.219.1008.053-.1719-.117-.0297-.16.2105z"/><path d="m52.4813 59.9382.2215-.0296 1.0186.6049.48-.261.4031.1572-.3785.6463.6093.0119.2493.596 1.0616-.1008.4369-.3143.1139.2609.4493-.1038.2831.5159 1.7017-.0118.2.2164.0584.2758.3724.4388.0338.0978.9847-.0326.6062-.6197.757.8095-.6893.3232.2954.5188.5201.0771-.5354.3944.0523.7827.3138.427-.8585.6908-.0462.3232-.7969-.003-.5539-.8213-.0185.5812-.8462.0445-.8739-.599-.1077-.4388-.3232.4655-.7323-.0296-.2524-.4774.1016-.6701-.8739-.4625.0707-.3855-.7692-1.1178-.2185-.8984-2.1294-.9606-.0831-.1008-.477-.7502.1539-.1097zm.5969-11.9874 1.4155.4032.4462-.3676.5878.0889-.0523-.255h.3385l-.834 1.1148.2124.5634.3292.0593-.1261.848.2307.4418-.3508.6019-.5046.3676-.4031-.2757-.2401.2046-.5231-1.0793.1631-.1038.2647.0356.0246-.7205.1477.1394-.3662-.3736.0308-.7857-.2093-.0267-.0584.4091z"/><path d="m76.791 49.4955.8032-2.3809.0277.4685.4769.1483.0585.5811.7139.2402 1.0647-1.1564.3139-.934 1.4186.1928.3938-1.106 1.3048.1008.2492-.8391-.2-.2016.2585-.3083.7939.2223.9324-.8035.4985.2461-.0277.2224-.2.4625-.4924.1631.0493.4329-.3201.4003.8093.4536.277.4952-.1539.2994.5939.1513-.6031.6819.1538.845-.9416.4003.2185 1.61.5016.3321.4646-.2758.5847 1.2186 1.0124.9607.6616.1008-.3477.4892-.877.424-.4862.7561h-1.2617l-2.4032-2.1289-.0862.5219-.5416.0118.2031.3736-.8924.5901-.8462-.3707-.517.4448-.1723-.0653.277-.6196-.3385-.6523-.8309.5515.0093.2787-1.0709-1.0526-.0616-.9221-.4154.0533.0493-.2846-.4401-.2995.2985-.3558-.2523-.6552.1785-.4062z"/><path d="m71.3259 108.816.8801-.311-.0862.637.3539.282.6801-.406.4985.474 1.1016-.356.2277.828 1.0217.96-.2216.285-.957-.501-.0708.43.4.557-.4615.092-.3447-.382.3047.845-.6924.498 1.1201 1.402-.3046.724.3292.854-.3016.394-.9908.119-.3723.661.3477.252-.1631.27-.7262-.152.5877.67.8432.608.5415-.023-.0307.421.7754-.202 1.2555.694.6708-.341.0862-.91-.6554.518-.7263-1.337.794-.207.56-.522.5416.077-.0585-.679.4493-.113.4.282.0216.569.4923.365-.2831-1.299.5447.276.0738-.285.3816-.083.5631.745-.0492.53-.0615.632.4585 1.046-.1785.377.5846.205.0647.477 1.6309.178-.1631.753.6.317-.1784.495.8677.335.5108-.163.1877.404.3355-.137.5908.59.8093.202-.6862 1.038.1877.768-.2493.385-.6462-1.207-.9078.415 1.0801.688-.5754.952.1785.468-.2585.282 1.2647.73.1877.275-.4277.223.2216.323-1.1324.45-.5355-.527-.3292.192-1.2432-.272-.3877.946.4185.418.043.548.397.134-.6678.216-.0954-.178-.24.267-1.2124-.231.0708.56.2092-.276.4555.03-.317.709.7908-.413.757.641-.0615.326.2308-.024.0246.232-.7416.501-.0215.519.3261-.131-.2154.546-.4123-.077-.1754.338-.3108-.137-.1262-.044-.4369.32-.1785.643.1908.771-.5416-.012-.08.451.3293.101.0307.495-.6216.996.2831.341-.8585.709-.0523.886 1.637.324.1539-.353-.3693-.457.0924-.314.92-.27 1.0494.157.56 1.441-.6524-.027-.2369.38.4739 1.628-.4431.788.0615.389-.4616 1.465-.3877.145-.7816 1.118-1.1232.602-.3877.115-.2185-.302-.2431.391-.9785-.483-.1262-.353-.4154.19-.3754-.19-.5631 2.055.2677.424-.0062.934-.8831.851-.9293.29-.3262.608.5477.282-.0215.222-1.6002.347-.1292-.32-.6708.231-.8186-.498-.1015.448.4.803-.2985.181-.04.48.5632.273.0277.039-.1508.48-.2524.125.0893 1.491-1.5355.299-.6216-.175-.6278-1.203-.5662-.006-.2462-.264-.3631.216-1.0893-.154-.6523-.311-.6924.326.1015.329-.7723 1.032.0523-.744-.6862-.279-1.9664.445-.4185.575.0154.664-.4308.617 1.0247.225.1077 1.053.2954.32-.4646.041-.1477.416.0923 1.974.5385 1.266-.3385.018.0616.658.4954-.062-.1631.202.2308.219.4123-.433-.1662.851.2524.762.7324-.136.1353.403-.5323.682.7939.522-.4954.785.1138.383-.7508.219.2369 1.515-.6892.635.003.498.3231.053.3816.674-.0554.498-.3323-.027-.1877-.415-.0277.308 1.0493 1.397-.3816.213-.1354-.474-.68-.119-.2831.489-.08.143-.4185.314-.7816-.371-.6647.184.0461.611-.2646-.053-.1785.424.3662.418-.7231.519-.2123-.181-.1631.652-.8616.756-.357-.359-.3293.318-.2615-.395.7108-.679-.2369-.999.5292-.445.1877.504.2862-.02.4585-.516-.0277-.528-1.0216.053-.2892.267-.2862-.409.1046-.543-.4985.371-1.2709-.27v.08l-.6062-.504.0646-.379-.4862-.783.3293-.626-.5354-.566.2246-.157.1231.406.0923-.436-1.9048.395.4062 2.001-.1631.379-.2246-.097-.6893.492-1.6801-2.007-.5416-.178-.4955.169-.7539-1.243-.4862-1.912 1.5448-.872.8093-1.171-.1477-.202-.9416.015-.8586-1.586.1016-.964-.7816-.631.2-1.174-.6462-1.72-1.5232-1.489-1.1878-.231-2.8187.922-1.394.756-1.6401.178-.357-.249-.2769-.954-1.5602-1.311.5785-.762.6863-.009-.1385-.427.4092-.842.6247.371.3508-.208.5539.552-.1723-.925.2215-.294-.9446-.715-.0247-.391.5293-.356.0031-.281.7077-.187.08-.285.6986-.246.043-.296.4739.587.4031.056.3939-.626-.08-.103-.5231-.496.2831-.397.7262-.041.1323.32.517.032.2493-1.138-.3232-.311-.0153-.499-.5847-.163.0892-.459-.3292-.786-.2708-.024-.0554-.308-.5385.03.1231-.469-.7139.027-.4308-.341.4246-.35.0554-.344-.2554-.107.6924-.456-.637-1.011.3323-1.112.9478-.97.5385.549.6308.163.6339-.516.317-1.432-.5016-.311.2708-.671-.5939-.812.2892-.768.8401-1.447-.7354-1.343.0769-.305.1231-.039 2.4833-2.683.4831-.033.2923.62h1.0309l1.4401-1.693.5447-.036-.197-.664.1631-.741.3877-.098-.0646-.216 1.2247-1.29-.3569-.73-.2739.092.4277-.685-.48-.495.4985-.513.5908-.178 1.9387.252.5385-.397.7077-.059-.3785-.403h-.0738l-.0216-.421 1.2186-1.195-.2123-.653.3908-.305-.5139-.3-.2677-.972.1723-.338-.2831-.341-.5878-.071-1.8893.872-.754-.911 1.234-1.77.3293-.231.3415.13.0893-.468.4431-.139-.0923-.341.3415-.175.7293.127 1.4032-.554.6708.062.3508.335.714-.46.92.107.1785-1.156-.5416-.095-.0061-.54-.5508-1.008 2.4986-1.097.4062.466.7385-.021.2831.243-.2523.898.3385.632.8001-.172.4492.213.4739-.679.6401.199.16-.931.7724-.264.3631-.465.4954.012.1569-1.175 1.1048-1.171-.6801-.711 1.6678-.463z"/><path d="m156.801 29.9858.597 1.3668.683.7946 2.816 1.5389 4.111 3.9731-.822.4773.573.4033-.028 1.0703-3.437-.2223-.914.8183-1 .1512-.336-.2431.391.08.209-.3143-.492-.4981-.335.9963-.643.0948-1.031-.3291.203-.6849 1.197-.2194.784-.9696-.304-1.3075-.505-.4981.24-.7591 1.083.003-.113 1.7464.166-.7264.326-.1483.775-.0178-.237.3617.585.2817.139-1.355-.145-.8747-.437-.2965-.228.3292-.218-1.0408-.486-.673-1.188.0237-.053.6612.508.4625-.135.3885-.209-.1631.123-.4388-.44.7086-.776.3973-.135-.4358.52-.7887-.456-.3054-1.123.9399-.597-.0237-.064-.3588.338-.2609.495-1.3491.062-.8836-.431-.1364-.664-.8005-.148-.6879.745-.4744zm-13.306-4.5365-.197.1868-.157-.3291.247-.1156zm7.767-.2728-.055.1987-.111-.2076.477-.5396.077.2935zm-16.137-3.638.496.4269-1.053-.0326.287-.4507zm4.767-.4537.317.169-.769.1127.092-.2906zm2.074-.169-1.566.4122.535-.3707.64-.0266.305-.4122zm-10.229-1.1-.286.2698.917.6434 2.056.3647 4.871-.0978.191.5841-.988.424-1.015-.2224-.419.4062-.326-.2431-.973.0148-.304-.5218-.619.0148-.48.7353-.569-.2401.031-.3114-.446.599-.757.1126.418.3944-.129.2905-.111-.2431-.637-.0059-.538.3024-.105.2135.311.3054.369-.4359.246.2076 1.031-.0356.923-.5337.009-.6078.77-.1008.138.2668-.529.1275.117.4477-.323.4715.206.0237.265-.9251.276-.003.102.8658.311.0504.181-.4032.444.3736.378-.7946.495 1.6811 1.361-.7739.307-1.0674.53-.3973 1.258-.4151.431-.3973.4.0801-.077 1.2571.434.5248.603-.0266.274.4388-.336.7175.241.8421.529.6226-.2.6019.572.4418.625-.2935.268.2461-.687.5307.84-.421.563.8361 1.438.1779.717 1.6426.873.0682-.6.1364-.452.5633 1.163-.5337.616.3084-.28-.4626.461.2283-.046.4478-.123-.1483-.554.421.034.2313.554-.3706-.062.3024.437.3113.76 1.613.64.0237-.467-.9755.273-.2609 2.635-.5337 1.363-1.0021.326.0919.105.2164-.404.1512.05.2698.674.4211.323-.1216.092.6375.945.6968-.265 1.1148-.28.1512.117.3914-.717.5959.252.0119.074.4121.649.6227.779.3558.44 1.1089.492.0296.653.8688-.234.3973-.732.3173-.351.6997-.44.0385.012.3825-.379.1661.225.5307.686.0267.923 1.2453.345-.083 1.031 1.0555 2.616 1.0348 1.24-.0682.323.2135.963-.8273.698.4092-.018.5752-1 .8895 1.123.2016.154.3025-.209.6434.271.1719.018.854.643.5425-.188 2.3365.376 1.2186.535.4329.757 4.3496.385.759-1.253.6523-.596-.0385-.311.7917-.757.2965-.031.5337-.976.163-1.03-.3943-1.204.1482.631-1.1356 1.88-1.9361.367-.9221-.096-1.269-.332-.2016-.283.3439-.554.0474-1.151-.593-.695.9577-.684-.083-.11-.5218-.89-.1542-1.652.4032-.311-.2935.28-.7146-.775-.6463.04-.9696-1.068-.424-.585-1.2957-.36 1.4202.945.5456-.197.3795-.726.3706-.708-.3795-.502.1364-1.581 1.2601-.139.9963-.775-.1038-.705.4714.12.6612-.28.4033-.363-.0445-.16.427.123 1.0496-.385-.1898-.35 1.0496-.431.1067-.154-.3024-.348.0119.037.424-.674 1.1059.034.0534-.381.1927-.502-1.1089-.437.1423-.754-.2372-1.074.762-.286 1.2601-.539-.1986-.39-.8569-.659-.0207-.4.4595-.492-.0059.021.6375-.378.0533-.173.4181-.75.1542-.665.9013-.582.1453-.32-.5159-.317.1127.73-.5426-.311-.2728-.554.1898.049.2461-.378-.0445.169-.2372-.502.0474-.501.4478-.603-.6761-1.517.4418-.613-.3914.351-.7442-1.409-.0889-.354-.2194.203-.4893-.289-.1512-1.102.3113-1.572-.6374-1.573.4566-.335-.8035-.677-.3054-.013-.5041-1.612-.8806-1.018.1335-.548-1.106-.834.1779-.037.3202-.323.1097-.354-.6849-.779.5307-.578-.083-.046-.6582-.668-.1364.258.679-.84.5278.111 1.0614-.557.2817-.406-.1927-.486.8717-1.111-.2046-.631.8895-1.249-.1423.668.5337-.244.3617-.824-.08-.88.3024-.059-.4537-1.191-.3884-.797.1512-.775.8213-.705.1394.311 1.3935-.326.4567.117.4091-.474.4003-.566.1483-.625-.1957-.166-.424-.44.166-.382-.1898-.467.0475-.087.8895-2.468-.3528-.818-.682-.816.2283-.187-.6582.44-.7175-2.102-1.0526-1.209-2.0666-.348-.0415-.44-1.6664-.732-.0296-.625-.4418-1.6217 1.3847-1.4802-.7502.0616-.3439-.4554-.1275-.7878-.8628-2.0463.2016.4092-.5723.3355-2.2622.4031-.2195.7662.169.1877-.7116 1.0678-.1512.6031-.8687.7416-.0979-.2062-.2253.3785-.6879-.2246-1.0288.32-.0534.2277.3736 1.1817-.2135.3665-1.8442.449-.6138-.2-1.1593-.431-.166.059-.2995-1.4252-.086-.7539-.59-.1292-.5545-.917-.4477.0831-.5426.2092-.762-.48-1.8768.4492-.679.5755-.1156.3046-.5663.5478-.1097.7046-.8777.6243.3054-.1873.2639.1662.2846 1.0611-.3054-1.4119-.4803.2031-1.0793 2.6528-1.5862 2.766-.2876.554.8657 1.009.1394-.332.8984.289.6523.609.1245.924-.8865.64.8005.732-.0415-.04.4566.539.2788.098.4269.462.0801-.29-.4655.702-.5337.055-1.2602-.224.1335-.16-.2194-.36.3498-.019-1.272-.338.427.083.7442-.665-.3795-.225.2194.459.0385h-.412l-.25-.4832.207-.682 1.203-.6671.846.0148-.446 1.5715.44.1956.194-.5633-.182-.2639.382-.6523.467-.2075-.283-.3796.597.1898.465-.2639.148-.9429.791-.4269.07-.4477-.415-.4062-1.437 1.7612-.083-.8154.609-.6997.988-.3766 1.394-1.4558 1.52-.0682 1.757.3054 3.216-1.0585 2.231-.1868 1.19-1.7345 2.945-1.8828 1.416-2.6418 1.138-1.3016.659-1.785zm12.075-3.9078.197.9458-.203-.7739.006.7442-.215-.4684.126-.3618-.615.5367.104 1.4766-.834 1.2334-.16 1.3461-.083-.5989.739-2.6418.024-1.0496.468-.4388zm5.595-2.6448-.071.7531-.702.2906-.329.5722.305 1.1326.547.6731.822.2609 3.376-.4774.864.682.006 1.0644-2.021 1.7701-.019.9429.76 1.4113 1.157.1127 1.108 1.4884.733.4329-.502.172-.403.759.089 1.186-.274.2224-.504-.4922.483.1245-.145-.5248-.815.2728-.287-.3143 1.059-.6167.083-.3261-.637-.1127-1.206.4388 1.311-.7057.16-.424-.791.1216-.566.5752-.61-.7472-.618.4151-.982-.0563-1.6 1.275-.692 1.1919.095-.4299-.745.3024.105.7501.142-.5604.292.3351.48-.3558.271.341.135.504-.64.5515-1.988-.9429.61.169.24-1.0703-.49.4032.207.2609-1.001.1364-.96-.8005-.378.2698-.12-.8539-1.053.4744.299-.7146.578.1186-1.381-1.0348.255-1.2482 1.345-.1601.474.2609.788-.5337-.468-.1246-.126-.4358.455-.1512-.409.0682-.416-.8332-1.203.2342.554-1.0763-1.058.4537-.062-.1868.945-1.444 1.129.2461-.089.6494-.708-.006-.077.2876.32.2788.136-.4122.904-.1186-.409-.1423.769-.3795-.831-.1809.056-.8154-.628.2491-.566-.1601-.502-1.2394 1.96-.2846.868.424-.021.6523.323.2461.147-.344-.286-.9132 1.127-.8865.283.1275-.597.9043.332.1097.388-.4714.754 1.3075-.031.8362.585.2164.169.513.428-.3558.597.0355.212-1.5329-.437-.9814.357.0267.031-.2402-.428.1068.018.3558-.883-.0119-.403-.5574-.628-.1631-.452-1.3283-.815.679.104.3469-1.763.7709.788-1.8768.018-.9311-1.123.6731.209.9695-1.508 1.1831.074-.3736 1.034-.8747.025-1.3224.532-.6552.856-.5486z"/><path d="m19.577 48.1609-1.1262.1038-.7324.3677.8093.5277-.2738.3736-.2739-.418-.4462.3143-1.0463-.8273.0893-.5218 1.7724-.6019zm1.8587-1.61-.3478.172.4432.0267-.4062.1927.16.2758-.5047-.0149-.1538-.5188zm-1.6525.0267.4708.2283-.44.1157-.0708-.7442zm5.0097-1.2127.3323.2965-4.5358.3292zm5.0219-1.2334.2339.2787-.9478.2787-.16-.169.0954.1927-.5046.1127-1.2125-.0622-.2615.246-.517-.2757-.2831.3321-.3015-.3291.9816-.51zm16.3922-.1868.4401.2135-.6432.0682-.1292.3617-.6709-.0237.3755-.5367zm-15.0997-.1216.6308.1127.0923.4537-1.5355-.2639zm3.4741-.7501.9478.1394.08.2965-2.3079.0978-.1262.593-.0707-.2075-.0339.246-.7108-.0355.28-.9696zm8.5053-.0771.2031.5248-.3323-.2075zm.0739-.3202-.1816.2372-.1723-.1334.2093-.4003zm-5.739-.3321 1.8464.3262-1.1786.3736-1.1878-.1602-.2523.4211-.2831-.083.2954-.7116zm3.3911-.424 1.4678.6434-1.8494-.418-.2092.4655-.3754-.4122zm9.3916-1.0555-.6062.08.4616-.501.2769.0415zm6.1667-2.0577-.0277.3469.4739.2698-.1262.3143.3539.2935-.16-.5159 1.0954 1.0674 2.4125.4062 2.4741-.5515-.3108-1.0525 4.0188-.1661 2.0525.8391.9878 1.2927 1.2062 2.372 1.5663 1.4143.8739 2.4462 2.4156 1.6515 1.117.2639.8709.1037-.1785.4062.2523.6553-.2984.3558.4369.3024-.0492.2817.4154-.0504.0615.9221 1.0709 1.0496-.0092-.2787.8308-.5515.3385.6523-.2769.6197.1692.0623.52-.4418.8463.3706.8893-.593-.2031-.3736.5446-.0089.0831-.5218 2.4033 2.1288h1.2617l.4862-.756.877-.424.4431.2728.9231.0296 2.4002 1.5833 1.5602.4418.3015-.1364 2.0464-.2016.7877.8628.4554.1275-.0615.3439 1.4801.7502 1.622-1.3847.624.4418.733.0297.44 1.6663.347.0415 1.21 2.0666 2.102 1.0526-.44.7175.187.6582.816-.2283.818.682.111.7353 1.289 1.3431 2.244-.7234 1.089.9458.757-.1512 1.015.5515-.766.7472-.064.4062-.917-.2076-.327 1.4084.191.6315-.895.2076-1.019.9191-1.794.8302-.354.1068-.077-.4566-1.015.2965-.354-.5486-1.274-.2253-1.123.2135.009-.4596-1.843.0415-.268.1186-.083.7235-.926.9873-.8403-.0919-.3077.3113-.2615-.3172-1.9817.4269-.2155 1.8354.7201 1.1237.1046 1.0526.5939-.0771.2554.6879v.0741l1.5267 2.5588 1.11-.4329-.092.6167-.624.4477-.041.679 1.391 2.2386-.187-.0208-.443-.1542-.61.2283-.218 1.02 1.597 1.8679-.009.3558.218-.0533.176.1482.778.3351-.126.587-.634.3588-1.037.083 1.031 1.1653.003.083-.477.3914.317.5396.477.1216.123.7798h.175l.348.3884-.197.2757-.905.252-.31.4062.113.6316.801.1512-.296 1.189h-.169l-1.142.8806-.68.0711-.074.2609.631.2669-.117.8925-1.6153-.0949-1.0585.4032-2.5295-.0978-1.0124.2668.1447.4655-.6186.5278-.4862.0593-.1046-.2461-.6308.3172.4493.9162.4123-.083.3016.593.5816.0089-.7447.59.0246.5283.677.376.0184.546-.3261.599-1.0863.684-.0677.285.2554.107-.2523.756.32 1.293.7324.347.0954.682.7108.762.0123 1.274.6032.804-.4955.125.1323.278-.8585.261.1939.397-.28-.014.0892.688.5231.26-.1754.522-.9939-.637-.8832.708-.8185.066-.4739-.576-1.2155-.581h-.1169l-1.117.143.2.566v.178l-.7385 1.337-.6893.133-.1693.62-1.037.32-.24.383-.3293-.006-.2831-.463-.4615.493.1569.198-.2554.525-.6278.065.2431.368-.72.027h-.1262l-.6-.128-.2308.504-.4308-.578-.1601.501-.56.012-.1816.471-1.4247.893.0492-.531-.5631-.744-.3815.083-.0739.285-.5447-.276.2831 1.298-.4954-.364-.0185-.57-.4-.284-.4523.115.0584.677-.5416-.075-.56.522-.7939.205.7231 1.34.6585-.519-.0892.907-.6708.341-1.2524-.693-.7755.201.0308-.418-.5416.021-.8431-.608-.5878-.67.7262.151.1631-.27-.3477-.255.3723-.661.994-.118.3015-.395-.3262-.857.3016-.723-1.117-1.403.6893-.498-.3016-.845.3447.383.4615-.092-.3969-.558.0708-.429.9539.501.2215-.285-1.0185-.958-.2277-.83-1.1017.359-.5015-.478-.6801.407-.3539-.282.0831-.634-.8801.311-1.4955-.104.5201-1.56-.2831-.548.1446-.397-.3785-.329 1.397-1.554-.3692-.629.28-.483-.16-.323.5262-.599-1.0739.169-.8555-.285-.7262.332.3754-.827-.0585-.812-1.3232-.736.0585-.3614-.2585-.1008.4185-.3676-.2031-.4211-1.1201-.0267-.1754.4033-.4369-.1453-.2124-.4714.397-.4774-.2923-.2194.3015-.2817-.4031-.6908-.04-.7146.4093-.3499-.7724-.8598-.4093.086.4955-.762-.1016-.3114-.4708-.2965-.797.1394-.4154-.166.0277-.255-1.1386.4121.2031-1.1119-.7108-.7264.3939.1572.1538-.175.1693.3855.4246-.0297-.1538-1.2453.3354.1097.4677-.338-.7847-.5693-1.2493-.4121.1231-.3291-.2677-.172.3969-.1868.2401-1.2423.4-.1423.1723-.4448.6185.1779.7755-.9932-.0554-.5011.5385-.5041.0185-.5515-.2708.003.003-.4181-.3107-.255.8308-1.0169-.7324-.6464-.9231-.086-.7693 1.3313-.6893.2135.1631.5574-.8678.4981-.1077.4447-.8585-.1156-.1262.344-.6154.1541-1.2832-.2876-.8247.3173-.4431-.338-.3662.1186-.0523-.7413.2554-.3113-.2585-.4121-.0462-1.8917-.2554-.4863-.3446.0831-.3908-.4359-1.8525 1.0111-1.0678-.4033-.8523.6108-.0677.9547-.7478.5219-.3446-.1838-.7047.1927-1.1817-.4448.0185.7472.3477.2698-.1046.682 1.5294.587.9724.6909.5169 1.441-.2123.8598.1754 1.2512-.5047.9844.5109.6375.9477.2906-.9293.9073-1.1724.5663-.0677.7916-.6708.0148-.6247-.4358-.5816.1749-.5169-.2194.0307-.2876-1.2432.8599-.5938 1.0496-.8093-.0742-1.0832.5456-1.2463-.3528-1.0062 1.0229-1.2094-.4685-.6677-1.011 1.714-.9874.6985.0237-.1662-1.1118.0677-.2521.4585-.0889-.3846-.4092-1.3724-.0029-.5355-.3944-.1477-.4803.5016-.6731-.0246-1.1356.6185-.1126-.4954-.5812.0061-.4862 1.1755-.2194-.8493-.7947-.2308-.9191-.917-.507-.8862.3499-.7385-.0742-1.8463-.8687-.4832-1.6011-1.5816-.679-.8432 1.3224.7509.3202-.6155 1.2275.2185.1779-1.1847.2313-1.7048 1.097-.1908.5693-.8093.1423-.4615.6583-.9109.2431-.3662.4833-2.7694-.0741-.6463.1601-.4246.5574-.7385.0445-.7047-.9814-.0308-.5041.914-1.9183.0123-.6583-.2955-.8065-.4492-.0504-.4954-.8657-.3878-1.1831-.9601 1.0052-1.7355-.4389.0031-.2905-1.8863-.1127-1.1724-.7501.1384-1.0674-.4892-.9815.6831.1335.2093-.4448.8123-.0089-.9293-.7916.1323-.8332-.2738-.3558.7785-.6671 2.3879-.169 1.2339.4981.7509-.2787 1.3078.4299.2739-.3113.3292-5.1947.4093-.8954-.0985-.3528 1.874-2.8968.6739-2.0133-.3139-3.3652-.3538-.2521-.077-.5248.4678-1.1267.4677-.1393-.3662-.3262.1846-.3113-.1661-1.3876.3754-.5841.3323-1.8294 1.2371-.0564-5.7728-.673-.3447-.8865.2616-.4211.2923-3.1636.4554-.6909-.2954-.9043.4308.765.6555.0029.2092.3232.2462-.3143-1.0339-.0178-.3508-.839.5077.587.1877-.4536.5477.6641-.08-.3973.4462-.0326.4062-.5307-.5231-.1927-.5385-.9844 1.1539-1.1119.1323-.4714-.0276.2194 1.7816-1.527 2.2864-.5367.3046.1957 2.0464-.0711.8647.3884 3.4987-1.0289.0062-.5159.0061.6256 2.0156-.3439.5539-.7531-.4862.8658 2.0002-.3647 2.2494.3291-.117.8124.4524 1.2868.5631-.172.4954.4715.2278-.2936.1446.175-.3539.1482.3108.4744.2677-.1126-.24.1571.1477.5011.9108 1.7908-.2277.3973.2616-.1482-.3446.6849-1.1725.427-.6677-.1453.0554.9191.6924.9814.7108-.2579.3323.1542.9663 1.3965.8616.2046.4308-.2461.9016-1.6337-.0585-2.0192-1.6247.0326.2954-1.9509.7539-.937.4954-.2075.6062.1719.8986 1.2009 1.5847.6819.7724.0741.2954-.2609-.0092.3113.6369.344.1108.4595-.1631.1038.5231 1.0793.2401-.2046.4031.2757.5046-.3676.3508-.6019-.2308-.4418.1262-.848-.3292-.0593-.2124-.5633.8339-1.1149h-.3384l.0523.255-.5878-.0889-.4462.3676-1.4155-.4032-.7385-1.5774-.0246-1.2483 1.2309-2.9738.0584-.8777 1.2555-2.1051zm-1.3755 23.0143.2184.8984.7693 1.1178-.0707.3854.8739.4625-.1016.6701.2524.4774.7323.0297.3231-.4655.1077.4388.874.5989.8462-.0445.0185-.5811.5538.8213.797.003.0462-.3232.8585-.6909-.3138-.4269-.0524-.7828.5355-.3943-.5201-.0771-.2954-.5189.6893-.3232-.757-.8094-.6062.6197-.9847.0326-.0338-.0979-.3724-.4388-.0584-.2757-.2001-.2165-1.7016.0119-.2831-.5159-.4493.1037-.1139-.2609-.4369.3143-1.0617.1008-.2492-.5959-.6093-.0119.3785-.6464-.4031-.1571-.4801.2609-1.0185-.6049-.24-.0089-.1539.1098.477.7501.0831.1008zm-2.271-24.1499.2769.3736-.5908.1037.0862-.5099zm-.9847-1.0674.2246.0889-.717.5515-.2369-.1097.3847-.6019z"/><path d="m24.4943 90.6108.7385-.0445.4247-.5574.6462-.1601 2.7695.0741.3662-.4833.9108-.2431.4647-.6612.8062-.1393.1938-.5723 1.7048-1.0941 1.1847-.2342-.2215-.1779.6154-1.2275-.7508-.3202.8431-1.3224 1.5786.679.4831 1.6011 1.8463.8687.7386.0741.8862-.3498.917.507.2308.9191.8493.7946-1.1755.2195-.0061.4892.4954.5811-.6185.1127.0246 1.1385-.5047.6731.1508.4803.5354.3914 1.3725.003.3846.4091-.4585.089-.0677.252.1662 1.1119-.6985-.0237-1.714.9873.6677 1.014 1.2093.4685 1.0063-1.0229 1.2493.3499 1.0832-.5456.8093.0741.5939-1.0496 1.2432-.8598-.0339.2905.517.2165.5816-.1749.6277.4358.6709-.0148.0646-.7917 1.1724-.5663.9262-.9073-.9478-.2876-.5108-.6375.5047-.9843-.1754-1.2513.2154-.8598-.517-1.441-.9724-.6908-1.5293-.5871.1046-.6849-.3477-.2669-.0185-.7501 1.1817.4447.7077-.1897.3447.1808.7477-.5218.0646-.9547.8524-.6079 1.0709.4003 1.8524-1.0081.3908.4359.3478-.083.2554.4862.0461 1.8917.2616.4121-.2554.3113.0492.7413.3662-.1186.4431.338.8247-.3173 1.2832.2876.6154-.1571.1231-.341.8585.1127.1077-.4448.8678-.4981-.1631-.5544.6893-.2135.7693-1.3313.9232.086.7323.6464-.8308 1.0199.3139.252-.0031.4181.2708-.003-.0185.5486-.5385.504.0585.5011-.7755.9933-.6216-.1779-.1723.4447-.4.1424-.24 1.2423-.397.1868.2677.1719-.1231.3292 1.2494.4151.7847.5692-.4709.3381-.3354-.1127.1539 1.2482-.4247.0297-.1661-.3855-.1539.1779-.3939-.1571.7109.7235-.2031 1.1118 1.1416-.4091-.0277.2549.4154.1661.797-.1394.4708.2965.1016.3114-.4924.762.4062-.086.7724.8569-.4093.3498.04.7146.4031.6908-.2985.2817.2924.2194-.4001.4774.2124.4714.4369.1453.1785-.4062 1.1201.0296.2.4211-.4185.3676.2585.1008-.0585.3614 1.3232.736.0585.812-.3785.827.7293-.332.8555.285 1.0739-.169-.5262.599.16.323-.28.48.3723.629-1.4001 1.554.3785.329-.1416.4.2831.546-.52 1.559 1.4955.104-.5662.513-1.6678.462.68.712-1.1047 1.171-.1569 1.174-.4954-.012-.3631.466-.7724.264-.16.931-.6401-.199-.4739.679-.4492-.213-.8001.172-.3385-.632.2523-.898-.2831-.243-.7385.02-.4062-.465-2.4987 1.097.5509 1.008.0061.54.5416.094-.1785 1.157-.9201-.107-.7139.46-.3508-.335-.6708-.063-1.4032.555-.7293-.128-.3416.175.0924.341-.4432.14-.0892.468-.3416-.13-.3292.231-1.234 1.77.7539.91 1.8894-.872.5878.072.2831.341-.1723.338.2677.972.5139.3-.3908.305.2123.652-1.2186 1.195.0216.421h.0738l.3785.403-.7077.06-.5386.397-1.9386-.252-.5908.178-.4985.513.48.495-.4277.685.2739-.092.3569.729-1.2247 1.29.0646.217-.3877.098-.1631.741.197.664-.5447.035-1.4401 1.694h-1.0309l-.2923-.62-.4831.032-2.4833 2.684-.1231.038-.0769.306.7354 1.343-.8401 1.447-.9139-.629-.36.326-.3754-.053-.0431-.91-1.3786-1.415.1815-1.47-.1753-.629-.2247-.222-.8093.243-.6493-.893-1.0708-.225.4339-1.361-1.1263-.433-.5262.552-.5908.175.48.513-.2 1.023.2493.652-.6586-.181-.5169.712-.8247.186.3785.359-.1662.816-.32.388-1.0801.083-.1539.777-.8246-.202-.5755.276-.0031.243-1.6955.563-1.1662-.252-.3385.623.2892.486-.3508.573.1046.344-.4738.332-2.4033.474-.2277-.747-.2431.744-.3324.326-.36-.05-.1323.412-.6185-.353-.5078.78-.6646-.599-1.1386 1.23-.48.244-.8463-.119.0123.786-.9539.186.277.294-.1631.314.32.119-.08 1.011-.8339.471-.8801-.572-.24-.584-1.0924.557.4123.424-.4431.537.5477.166.2339.415-.2554.836.6339.715-.0646.246-.4001-.101-1.5109.822-.6339-1.015-.6031.777-.3385-.302.0954-.569-.4277-.033-.0369-.377-1.8679.822-.4554.634-.6124.057.1385-.724-.2862-.305-.2862.261-.3446-.783-.5139.145.1693.667.2246-.041.0277.708.3262.181.0123.291-.4062.015-.1046-.653-1.1294-1.049.6893-1.667-.0861-.542-.6155-.234.2-.786-1.57547-.489-.86469.293-.35388-.759-.38157-.169.1477-.305-.34772-.154-.04308-.454.96316-.967.35695.033.49851-1.112-1.39089-.193-.40619.196.1354-.175-.29233-.317.27694-.246-1.22164-2.04-1.47705-.255-.1354.273.05539-.753-.50773-.507.19386-.362-1.03086-.679.21233-.395.39696.223.39695-.386-.11693-.919.72314-.299.35695.278.29541-.794-.27387-.587.38773-.854-.79392-.018-.68621-.371-.2831-.684.3908-.795-1.13548.142-.26464-.267-1.09855.395.13847-.816-.50158-.489-.27387-.883.9447-.552.45542.937.43696-.021.40311-1.097.60928-.575.64929-.264.93547-1.026 1.6309-.682-.68005-.471.83084-.394-.32619-.247-1.28626.73-.34772-.062-.28618-1.415.35388-.124-.27695-.573 1.00624-.945.89546-1.747.47389-.098.64928-.824-.23386-.744.23079-.415-.38773.018.34465-2.18-.19694-1.224-1.04009-1.533-1.3632-1.308.49543-1.53-1.64937-.545-.11693-1.023.34464-.282-.99085-.646-.74776-.018.00923-.373.66467-.448.02462-.525-.3231-.098.05846-.365-.6062-.447.2431-.146-.26156-.192.31695-.38 1.01239.033 1.00316-.893.69237.475 1.30473.252-.03693-.605-.50158-.753-.64929-.211.26464-.29.9847.02.84315.988 1.3355-.157.37541.175.12925.557.94778.042.1877.382.757.276.1631-.78-.4524-.317.0893-.347.7847.477.3477-.198.3877.361 1.4586-.937 2.751-1.014.9355.564 1.0985-.925.2123-.9018.5632-.169.0492-.6879-1.5109-1.269-1.2986-.3499.1323-.9517.8401-.1453.4739-1.3313 1.8494-.0623 1.0124-1.7078.8524-.1571.6677-1.3639 1.037-.0386z"/><path d="m11.5763 148.473.4062-.015-.0123-.29-.3262-.181-.0277-.709-.2246.042-.1693-.668.5139-.145.3447.783.2862-.261.2861.305-.1384.724.6123-.057.4554-.634 1.8679-.821.0369.376.4277.033-.0953.569.3384.303.6032-.777.6339 1.014 1.5109-.822.4.101.0646-.246-.6339-.714.2554-.837-.2338-.415-.5478-.166.4431-.536-.4123-.424 1.0924-.558.24.584.8801.573.8339-.472.08-1.011-.32-.118.1631-.315-.277-.293.954-.187-.0123-.786.8462.119.48-.243 1.1386-1.231.6647.599.5077-.78.6185.353.1323-.412.3601.05.3323-.326.2431-.744.2277.747 2.4033-.474.4739-.332-.1047-.344.3508-.572-.2892-.487.3385-.622 1.1662.252 1.6956-.564.003-.243.5755-.276.8247.202.1538-.777 1.0801-.083.32-.388.1662-.816-.3785-.358.8247-.187.517-.712.6585.181-.2493-.652.2001-1.023-.4801-.513.5908-.175.5262-.551 1.1263.432-.4339 1.361 1.0709.226.6492.892.8093-.243.2247.222.1754.629-.1816 1.471 1.3786 1.414.0431.91.3754.054.36-.327.914.629-.2893.768.5939.812-.2708.67.5016.312-.317 1.432-.6339.516-.6308-.163-.5385-.549-.9478.97-.3323 1.112.637 1.011-.6924.456.2554.107-.0554.344-.4246.35.4308.341.7139-.027-.1231.469.5385-.03.0554.308.2708.024.3292.786-.0892.459.5847.163.0154.498.3231.312-.2493 1.138-.517-.032-.1323-.32-.7262.041-.2831.397.5231.496.08.103-.3938.626-.4032-.056-.4738-.588-.0431.297-.6985.246-.0801.285-.7077.187-.0031.281-.5293.356.0247.391.9447.715-.2216.293.1723.926-.5539-.552-.3508.208-.6246-.371-.4093.842.1385.427-.6862.009-.5786.762 1.5602 1.31.2769.955.357.249 1.6401-.178 1.394-.756 2.8187-.922 1.1878.231 1.5232 1.489.6462 1.72-.2 1.174.7816.631-.1016.964.8586 1.586.9416-.015.1477.202-.8093 1.171-1.5448.872.4862 1.912.754 1.243-.1385.877.9385 2.405-.4062.596 1.2709.442-.24.975-.6401.578.2154.226.5139-.43-.0369.631-.9324 1.204.7478.86-1.9202 1.74-.1046.463.3877-.021-.7262 1.45-.1785 1.966-.9139 1.349-.2893 1.147-.2584.537-1.0155.839-.1354-.299-.5047.252-.0984-.294-.7016.074-1.2986-.421-.8124-.697-1.4709-.385-.8401-.872-.2738.466-.6155-.199-.4338.436-1.4156-.925-.5415.554-.6124.083-.0585-.37-.2308.157-.5015-.205.0338.255-.4554.137-.7908-.288-.0339-.525-.6154-.293-.7109.092-.7016-.496-.5508-.963-.12-1.091-1.1447.124.1415-.554-1.5293.358-.0369.377-1.2955-1.367.1415-.513-.2739-.43.3724-.566.3139.285.0123-.365.3692-.258-.1508-.27.5262.018.4401-.457.3015-2.191-.6708.16-.2369-.444-1.2586-.279-.0277-.795-.7447-.489-.083-.362.7723-.338.3662-.504-.5077-.29.1631-.955.4154-.166-.1077-.308-.5508-.089-.1447-1.367-1.0462.542-.0277-.299-.5262-.006-.2339-.267-.0461-.379-.9724.089-.4216-.312-.2339.181-.5569-.866-.6339-.302-.8401.545.1139-.406-.7601.267-.2277-.258-.2185.629-.6708-.098-.3385.43-.277-.184-.5539.717-.4831-.228-1.2432.982-.7354.109-.3939.522-.1108-.35-.4431.134-.2215-.211-.0739.347-.3077-.077-.4893.379.0246.276-.52-.074-.3539-.569-.8801.394-.8923-.489-.397.166-.4462-.299-.2554.157-.7293-.235-.437-.601.4709-.158-.0893-.468.8678-.753.3939-1.047-.2124-.391 1.4986-1.323-.1969-.367.3939.106-.317-.762.3447-.394-.2339-.818.4339-.555-.3139.238-.8031-.614-.8032.347-.6431-.315-.7016-.854-.77239.365-.20617-.886-.29233.071-1.24011-.973-.04923-.56-.25848-.139.09539-.771-.33542-.149-.13539.205-.15694-.593-.27079.43-.16001-.943-.5939-.356.27079-.29-.27387-.166.18156-.285-.30157-.205-.12309-.871-.29541.003.39696-.386-.31387-.021.12924-.524.25541-.039-.15079-.774.53851-.685-.40926-.344.16001-.432.14771-.276.20309.172.62159-.315-.47081-1.123.18771-.424.40311-.068.35695-.576 1.26781-.29.23694-.309-.12924-.483.49235-.768.46154-.059.5324.537.0246-.306z"/><path d="m11.0776 171.045.7293.235.2554-.158.4462.3.397-.166.8924.489.88-.394.3539.569.5201.074-.0246-.276.4892-.379.3077.077.0739-.347.2216.211.4431-.134.1107.35.3939-.522.7355-.11 1.2432-.981.4831.228.5539-.717.2769.184.3385-.43.6708.098.2185-.629.2277.258.7601-.267-.1139.406.8401-.545.6339.302.557.866.2338-.181.4216.311.9724-.089.0462.38.2338.267.5262.006.0277.299 1.0463-.542.1446 1.367.5508.088.1077.309-.4154.166-.1631.955.5077.29-.3661.504-.7724.338.0831.362.7446.489.0277.795 1.2586.278.237.445.6708-.16-.3016 2.191-.44.457-.5262-.018.1508.27-.3693.258-.0123.365-.3139-.285-.3723.566.2738.43-.1415.513 1.2955 1.367-.0092.433-.714-.009-.6339.824-.9416-.433-.9477.424-.2678-.436-.5262.285-.6185-.623-.4215.08.1723-.376-.2924-.095-.3354.208.1662.492-.6616.522-.5539-1.631.1354-.611-.4277.092-.7601-.643-.2585.201-.6708-.593-.6401.406-.64-.394-.437.291.4708.922-.52.797-1.0924-.447-.8062.127-.5293-.664.3846-.54-.1477-.355-.5569.068-.1231-.973-.5631-.264.1815-.61-1.0985-.623-.5109-.566.0647-.41-.477-.338-.0585-.261.4739.187.2462-.468-.3477-.086.0523-.486-.9016-.487.2431-.658-2.4218-1.485-.6954.35-.5108-.187-.2124-1.735z"/><path d="m126.866 125.637-.154-.297-.871-.13-.258-.543.385-.036.046-.266-.856-.303.33-1.23-.751.038-.006-.246.264.006.326-.756-.083-.691-.197-.611-.48-.243.13-.59-.487-1.073.967-.255-.031-1.272-.434-.38.265-.124-.222-.661.308-.35-.169-.35-.484.006-.172-.89.495-.154.071-.424.57-.29-.305-.997.886-.865-.071-.329 1.145.068 1.009-.573-.107-.177 1.72.118.341-.824.342.234.415-.133.096.335.403-.415.634.222.803-.726.283.213.619-.246-.327.474 1.065-.575.551-1.067 1.569.525 1.437-1.139.367.308.058.546.502-.294.138.582.594-.075.268.347.123-.344.415-.032-.108-.418.191.038.117.033-.006-.217.64.146.228.809.575-.264.665 1.133.689-.347.766.815-.341.751.815.355.434 1.005-.12.958-.329.024-.043.51.406.732-.548.682.262.128.092-.377.419 1.21 1.027.344-.12-.469.49.054.012-.386.831-.445-.105-.326 1.074.347-.049-.329.461-.522.551.578-.135.362.498-.317.53.418-.2.202 1.114.305.067.599.274.015.123.367.496-.468.372.041.16.448 1.222-.021.172-.216 1.456.445.504-.258.132.24.194-.24.714.029.299-.453 1.4.142 1.037-.507.246.095-.018.513.547.101.114-.653.456-.047-.219-.255.576-.412-.164-.504.49-.297-.56-.928 1.071-.035-.268-.472.397-.16.212-.697.683-.071-.212-.267.16-.341 1.492.119.631.356.474-.14 1.062.487.012.142.166.246.176-.46.904-.708 1.157-.033.136-.436 1.64-.053.126-.409.455-.231.564.26.372.656 1.255-.089.474-.765-.129-.587.652.474-.369.602.486 1.085 1.145.24 1.126.851 1.311.205.637.418.425.833-.28.964.181.916.28.169-.083.964 1.265 2.087-.975 3.371.067 1.189-.304.148-.056 1.207-.944 2.325-.271.142.043.614-.274.098-.191.957-1.52 1.678.145.413-.551 1.438-.582.044-.449-.29-.431.204-.283-.572-.357.089-1.363-.59.338-1.177.308-.238-.049-.779-1.311.539-.345-.151.647-2.025-.674-.706-.582.187-.068-.394-.643-.163.059-.73-.179.694-.741-.382-.877.519-.487-.247-.064-.349-.382-.193-.461.193-.705-.493-.289.478h-.277l.243.356-.099.385-.4.181-.015.631.474.315.809-.237.065.34-.496.229.271.175-.123.157 1.693.554-.2 1.139-.727-.11-.015.273-.892.261-.727-.332-.652.228-.185.813-2.655 1.016-.228.419-.926.237-.788-.469-.692.359-.336.516-.726-.086-.262.726.222.724-.711.056-.108.451-1.547-.243-.72.258-.271-.199-.385.489-.837-.427-1.215.641-.868-.137-.628.273.323.842-.578.703.221.424-.56.264-.578.803-1.01-.388-.486-.893-.363-.103.092.67-1.009.599-.049.815-.628.145-.243-.519-.612.006-1.019 2.627-1.12-.097-.126-.35-.905.557-1.052-.299-.219 1.817-.794.872-.757.201.105.273-2.511-1.675-.178.842-.296-.531-1.172.498-.566 1.041-.659-.578-3.145.59-.498.771.052.631-.409-.16-.53.395-.203.557-.631.024-.003.857-.553.237-.357.664.141.602-.572.009.083.673-.231.347.302.436-.302.32.265.255-.92-.119-.296-.584.369-.714-1.061-.739.114-.373.406.237-.219-.599-1.061-.053-.022-.991-.298-.477-1.637.122-.179-.457-.871.047-.021.184-.96-.845-.391.107.114-1.115-.366-.338-.296.131.08-.368-.588-.46.09-.264-.56-.103-.083-.374.72-.4.341.246-.206-.51.526-.472-.655-.652-.009-.43-.853.178-.354-.605.29-.433.861-.124-.061-.839 1.197-.727-.09-.352.376-.383.36.282-.332.293.67.632-.36.768.197.51.542-.018.394-.145.07-.608.434-.068.437.332.757-.279-.043-.219-.489.02.268-1.367.8.484.184-.75 1.25.252.03-.427 1.016-.567.062-.619-1.145-.303-.157-.658.378-.341-.144-.282-.782-.026.249-.833.554.145.437-.644-.04-.234-.652.048-.065-.937.557.311.213-.436.209.255-.065-.409.179.317.8-.115.021-.427.508-.487.566.155.256-.282.073.557.413-.106.067-.644.767-.895.529.056-.068-.282.268-.151.335.214 1.637-.282.351.202.299-.499-.594-.598-.317-1.699-.631.311-.954-.394.28-.205-.04-.543-.477-.074-.151.288-.076-1.373-.336-.095-.329.009-.249-.525-.917.261-.32-.29-.625.13-.096-.459-.39-.232z"/><path d="m113.447 65.9183.775-.0711-.271.8361.994.1097.339.9666.932-.3647.862.8925 1.138.2579.083.3617-.514.6108.237.3677.69.0089.437.4596 1.754.5959.849-.4536 1.748.424.234-.5426.037 1.2631 1.354-.7887.126.3143.646.2046.474 1.7582-.157.4744-.576.0534-.224.9073.258.4506-.455.8154.237-.0593-.065.2698.351.2343-.102.4595.339.2491-.12 1.3194-.037.2965-.529.3232-.64-.1987.2 1.5774-.708 1.3787.538-.2816.367.2105-.45.5811.363.5574.644-.1541.477-.6346.538.6583-.2.1571.219.2787 1.169-.3172-.425.2639.434.3291-.834 1.4617.154.2105-.446.2787.523.2461-.148.6375.234.252-.431.3825.487.593-.604.9281-.609 1.9806.523.3736-.243.1541.736.2076-.982.507-.015.8421-.385-.0089-.169.4744.849 1.1267.268.8598.741.3736.899 1.3639.588.1364.904.8183.299-.0237.218-.5307.354.0356.222.5989.889.341.077.5159 1.422.1067.04-.2965.59-.08.225-.5604.299.0237 1.652.7739.477.7323 1.277-.1571.145 1.0023.664.032.059.208.597-.3647.757.1247-.04.382.372.063-.034.649 1.422-.015-.123.605-.216-.003.259.279.785.095.757-.421.369.062.264.578-.6.136.804 1.53-.293 1.148.329.519-.23.186.643.866-.643.175.157.555-.25.243-1.874 1.168-.575.264-.228-.81-.64-.145.006.217-.117-.033-.19-.039.107.418-.415.033-.123.344-.268-.347-.594.074-.138-.581-.502.294-.058-.546-.367-.308-1.437 1.138-1.569-.525-.551 1.068-1.065.575.327-.474-.619.246-.283-.214-.803.727-.634-.223-.403.415-.095-.335-.416.134-.341-.234-.342.824-1.72-.119.108.178-1.01.572-1.145-.068.071.329-.886.866.305.996-.57.291-.07.424-.496.154.173.89.483-.006.169.349-.308.35.222.662-.265.124.434.38.031 1.272-.967.255.487 1.073-.13.59.48.243.197.611.084.691-.327.756-.264-.006.006.246.751-.039-.33 1.231.856.302-.046.267-.385.036.259.542.87.131.154.296-.652 1.56.723-.048.083.579-.889 1.085-.293.637.194.226-.489.483-.015-.661-.447.035-.147-.471-.357.471-1.462-.525-1.449.309-.203-.712-.723-.071.006-.857-.517-.317-.582.145-.461-.815-1.813.219-.455-.172-.317.338-.517-.765-.622-.098-.046-.661-.582-.548-.615-.027-.391.427-.206-.421-.683-.205-.563.472-1.142.012-.471-.356.105-.436-.299-.545.37-.081.301-.489-.283-.13-.015-.673-.348.009-.169-.522-1.022.163-.012-.397-.48-.098.274-.739.332.255.382-.207.827-1.432.333-.151-1.185-1.097.24-.285-.551-.089-.061-1.103-1.025-.133-.492-.754-1.41.416-.018-.282-.52-.228-.597.305-.948.003-1.579-.807-.233.282-1.13.083.366-.225-.873-.217-.068-.919-.016-.095.21-.498-.93-1.15.403-.519-.6827-.59-.2923.086.0092-.181-.1046-.549h-.1046l.16-.714.692.32.133-.344-.44-.237.144-.228-.7013.183-.5693-.64-.7416.302-.1446-.492-.9109-.299-.2092.231-1.0463-.009-.6-.8-.0123-1.275-.7109-.762-.0954-.682-.7323-.347-.3201-1.293.2524-.756-.2554-.107.0677-.281 1.0862-.685.3262-.599-.0185-.546-.6769-.376-.0247-.5311.7447-.59-.5816-.0089-.2985-.593-.4123.083-.4493-.9162.6309-.3172.1046.2431.4862-.0563.6185-.5278-.1446-.4655 1.0124-.2668 2.5294.0978 1.0616-.4032 1.6152.0948.117-.8924-.631-.2669.074-.2609.68-.0712 1.142-.8806h.169l.296-1.1889-.8-.1512-.114-.6316.314-.4062.901-.252.197-.2758-.348-.3884h-.178l-.12-.7798-.48-.1186-.314-.5396.477-.3914-.006-.083-1.028-1.1682 1.037-.083.634-.3558.123-.5871-.778-.335-.176-.1483-.218.0534.009-.3558-1.597-1.868.218-1.0199.61-.2283.443.1542.187.0207-1.39-2.2386.04-.6789.624-.4478.093-.6167-1.111.4329-1.5266-2.5588v-.0741l-.2554-.6879-.5939.0771-.1047-1.0526-.72-1.1237.2154-1.8353 1.9817-.427.2585.3173.3077-.3114.8433.092.926-.9874.086-.7234.268-.1186 1.843-.0386-.009.4596 1.123-.2135 1.274.2253.354.5486 1.015-.2965.08.4566.354-.1068 1.794-.8302 1.019-.9191.895-.2076-.19-.6315.326-1.4084.92.2046.064-.4062z"/><path d="m56.6354 33.1346-.4185.2906.3816.0474-.1908.4715-.3539-.4922.2739-.4003zm-4.3111-12.3907.4.0623-.0892.252.4123.4121-.597.4952-.5046-.4448-.317-.8272.3877-.4536zm50.9797-2.5232 1.729.3113 1.167.5574 1.652 3.303-1.298-.3202-.991.1601-.037-.2283h.68l-.76-.2579-.462.2846.391.1601-.182.2105-1.129-.0207-.502-.2343.139-.7382-.292-.4952-.443-.1423-.822.2906.486.4744-.772-.4448.031-1.3313.375-.8331.615-.7769zm-50.8105-.086-.28 1.269-.3601-1.5566zm6.3729-.6167.3877.1927-.28.1334-.6401-.2846zm-2.1818-.172-.12 1.0318-.3631.172.3016.083-.1293.2669.2585.2994-.28-.249-.3539.4773-1.0247.1068-.5477-.6731-.0185-.6641zm-2.9387-.679.3908.6612-.5077.0386-.7816-.6434zm3.5603-1.9924-.1692.3854-.3447-.0978.1016-.2787zm-1.437-.596-.3139.6019-1.2309.1779-.7139.5396-.3569-.2639.2308-.3409 1.8709-.43.5231-.4773zm1.1231-.8806-.24.4447-.5292-.0593.5662-.6612zm-6.6251 1.4943-.0339.2669.4093.1127-.3816.1571.2954.2669-.7447.1334-1.3693-1.8383 1.3755-1.527-.4216.8095.4524 1.2808zm2.794-3.81 1.2032.344-.0738.5396.3169.3469-.6277 1.2779-1.6278-.0148-1.6679-.7027-.0738-.5812.6308-.9102zm-1.7139-9.66586.5446.1779-1.3632.04151.0893.2965.5262.06523.2492.61079-1.1385.56928-.5724.97548.3416 2.24747 1.1016.68788 3.4064-.31132.6739-.37359v-.41214l.874-.02372.9231.57521.9447.05041.7139-.43882.9386.30243.76-.25203.9601.07413 1.9879.99623 1.8925-.03261 1.7755.73828.2739 1.32239.4585-.06226.4185.34987.2246-.19866.7447.24313.7631-1.22454.5262-.14232.5385 1.03182-.0061.71456.6031-1.12373.6247.00593.3354-.49219 1.0893-.61376.3385-.63747.4739-.01779-.4431.91025.3015.593 3.7019 1.11781 1.1816 1.42612.4493.0178.36-.6197.2185.2669-.0031-1.10298 1.0063.58118.6185 1.9924.9601 1.0556-.0616.4566-.1323-.6256-.5693.1423.2185.8183.5016-.2609-.3939.2965.3846.1067-.1415 3.4572-1.2309 1.5537-1.8555.9458-.7109-.0029.637.8509.9386-.1423.3662-.2965-.1755-.0297 3.9696-.7234 1.4617.9517-.5878.6642.4001 1.4766-.5755.163-.1261.5337-.237-.0326.2831 1.023-.4739.842.637-.6493.3693.1275-.3046-.169.1692-.9192.3416-.1749-.0462-.4003.6678-1.1326 1.0462-.1334.32-.43.5447-.1393 1.4401.3795 1.6248 1.1059 2.3355.8421 2.031 1.9095 1.6894-.2521 2.7663-2.2474 1.72.0652-.769.1364.902.2461 1.061-.3054.169-.4448.48-.2194-.067.3084.181-.175.262.2076-.117.4952-.969.8806.049-.2699-.425.0119.089.2787.204-.0741.412 4.8151-2.767 1.8502-1.5997 1.779-.9816-.1394-.2154-.5485-.36 1.0229-.7755.8391.6524 1.6041 1.674.2105.2831.4092-.0493.6404.4186.0771-.2031 1.0793 1.4125.4803-1.0617.3054-.1662-.2847.1877-.2638-.6247-.3054-.7046.8776-.5478.1097-.3046.5663-.5755.1157-.4492.6789.48 1.8769-.2092.762-.0831.5426.917.4477.1292.5545.7539.59 1.4248.086-.058.2994.43.1661.2 1.1593-.449.6137-.3661 1.8443-1.1817.2134-.2277-.3735-.32.0533.2246 1.0289-.3785.6879.2062.2253-.7416.0978-.6031.8688-1.0678.1512-.1877.7116-.7662-.169-.4031.2194-.3355 2.2623-.4092.5722-.3016.1364-1.5601-.4418-2.4002-1.5833-.9232-.0296-.4431-.2728.3477-.4892-.6616-.1008-1.0093-.9607-.5847-1.2216-.4677.2758-.5016-.3291-.2185-1.613.9447-.4003-.1538-.845.6031-.679-.597-.1512.1539-.2994-.277-.4922-.8093-.4566.3201-.4003-.0493-.4329.4924-.1631.1969-.4625.0277-.2224-.4985-.2461-.9324.8035-.7939-.2224-.2585.3084.2031.2016-.2523.8391-1.3047-.1008-.3908 1.106-1.4217-.1928-.3139.934-1.0647 1.1563-.7108-.2401-.0615-.5812-.4739-.1452-.0277-.4715-.8032 2.3839-1.117-.2639-2.4156-1.6515-.8739-2.4461-1.5663-1.4143-1.2062-2.372-.9878-1.2928-2.0525-.8391-4.0188.1661-.3047-.5515-.6431-.2194-.9816-1.1564-.4524-1.4439-.4092-.4299.4-.3143-.4185.2401-.5354-.8924-.5539-.0297 1.4617-.6908.8123.1571-.1538.3262.2585-.003.0092-.2431.1231.2312.4893-.1186.5231-.7056-.0185-.1957-.4954-.0326.3877-.175-.5908-.6908.2369-.0741-.2677-.003-.3692-1.2008-.6247-.083-.7016.4595.0738-.335-.12.341-.96-1.6812.6308-1.945-.0339-1.6515-.2523-.2787-.837.332-.7601-.3528-.6893.0979-.6246.7234-.6462-.2906-.837-1.186.1692.6257-.4062-.3529.357.5841-.5631-.7353.5262-1.5003.28-.08-.1323.3439.5169.2165.2616-.4507.6893-.1334-.2893.1097.3047-.5871-.3108.169-.4093-.172-.0954.2194-.8431-.1482.2461-.6256 3.985-.8273.9847.2283.9724-.6404.7693-.9784.8093-.172.1138-.4418.5816.2372.2616-.2105-.4093.1215-.5231-.2372.0646-.593-.4308-.7116-.4831.2817-.5631 1.358-.2739-.083.1631.1067-.5477.3024-1.0309-.0207-.7539-.3262.2308-.5099-.24-.4062 1.3447-1.1208-.08-1.0081.24-.9221.2062-.0178-.4431-.1542.1877-.3943-.2862.3795-1.0124.0148-.0892-.2224.9108-.4566-.2954.0712-.4554-1.2127-1.3602-.8806-.1477-.9873-.9447-.4626-.0769-.2164.357-.2313-.2493-1.0022-1.7355-2.31563-.1323-1.40837-1.7079.04447-1.9078 1.14745-.7232-.38841-.2554-.55149-.4708-.12157-.1077.50405-.6739.44475-.0338 3.59355-.3478-.3291.3201-5.25099 1.9232-4.64615.3477-.18976z"/><path d="m95.8327 108.959 1.0462.009.2093-.232.9108.3.1446.492.7416-.302.5693.64.7015-.184-.145.228.441.238-.133.344-.6922-.321-.16.715h.1047l.1046.548-.0092.181.2923-.086.6828.59-.403.519.93 1.151-.21.498.016.095.067.919.874.216-.366.226 1.129-.083.234-.282 1.579.806.948-.003.597-.305.52.228.018.282 1.409-.415.493.753 1.025.133.061 1.103.551.089-.24.285 1.185 1.097-.333.151-.828 1.432-.381.208-.332-.255-.274.738.48.098.012.397 1.022-.163.169.522.348-.009.015.673.283.131-.301.489-.37.08.299.546-.105.435.471.356 1.142-.012.563-.471.683.205.206.421.391-.427.615.026.582.549.046.661.622.098.517.765.317-.338.455.172 1.812-.22.462.816.582-.146.517.318-.007.857.724.071.203.711 1.449-.308 1.462.525.357-.472.147.472.447-.036.015.661.489-.483-.194-.225.293-.638.889-1.085-.083-.578-.723.047.652-1.559 1.059-.395.39.232.096.459.625-.13.32.29.917-.261.249.525.329-.009.335.095.077 1.373.151-.288.477.075.04.542-.28.205.954.394.631-.311.317 1.699.594.599-.299.498-.351-.202-1.637.282-.335-.214-.268.152.068.281-.529-.056-.767.895-.067.644-.413.106-.073-.557-.256.282-.566-.154-.508.486-.021.427-.8.115-.179-.317.065.409-.21-.255-.212.436-.557-.311.065.937.652-.048.04.235-.437.643-.554-.145-.249.833.782.027.144.281-.378.341.157.658 1.144.303-.061.62-1.016.566-.03.427-1.25-.252-.184.75-.8-.483-.268 1.367.489-.021.043.219-.757.279-.437-.332-.434.068-.07.608-.394.145-.542.018-.197-.51.36-.768-.671-.632.333-.293-.36-.282-.376.383.09.353-1.197.726.061.839-.861.125-.29.432.354.605.853-.178.009.43.655.653-.526.471.206.51-.341-.246-.72.4.083.374.56.104-.09.264-1.932 1.002v-.389l-.892-.501-.136.273-.394-.128.216.258-.48-.094-.49.385-.117-.19-1.634.442-.609-.457-.437.086-.221.433-.745.312-.028-.623-.815-.142.074-.875-.357-.053-.428.358.151-.352-.594-.374-.006-1.468.298.071.108-.234-.194-.353-1.668-.281.022.296-.502.065.016.525-.397.042-.219.409-.077-.282-.769.187.009.881.366.548-.175.901.52 1.181-.452.258.289.453-.292-.024.156.911-.347.37.178.143h-.08l-.101.599-1.105-.724-.095.59-.284.095.127-.32-.708-.145-.249-.419.48-.904-.391-.667-.391.119-.052-.519-.517.038-.071.401-.806.231-.142-.475-.849-.157.08.472-.252.047-.96-1.316-.391.103-.148.057-.3323.193-.2954-.475-.2739.252-.5908-.133-.5262.385-.3754-.157-.6185.786-.7539-.187-.0554.546.2984.044-.2492.697.5108.154.5662.661.6339.048.0523.361h.1077l.6678.116.0215.91-.4708.196-.4185-.412-.6247.302-.7416-.29-.0338 1.177-.2554.198-.3293-.216h-.1015l-.7047-.531-.5785.205-.4308-.211-.2-.453.2646-.104-.2431-.415.1816-.246-.3231.006.2523-.629-.237-.442.1508-.765-.7477-.124-.3355-.771-.2369-.051-.3446.46-.0554-.285-.4001.134.0062-.593-.2185.053h-.1446l-.4124-.833-1.12.231-.2093-.442.3569-.498-.6185-.189.2093-.223-.2677.036-.6062-.798-.1354-.845-.5508.009-.9078-.575-.4678.059-.0092-.59-.4554-.279-.0923-.409-.4801.071-.0769.267-.48-.281-.16.281-.6739-.622-.7386.824.0339.273-.6031.308-.0616-.388.4431-.789-.4739-1.628.237-.379.6523.026-.56-1.441-1.0493-.157-.9201.27-.0923.314.3692.457-.1538.353-1.6371-.323.0523-.887.8586-.709-.2831-.341.6215-.996-.0307-.495-.3293-.101.08-.45.5416.011-.1908-.771.1785-.643.437-.32.1261.044.3108.137.1754-.338.4124.077.2154-.546-.3262.131.0215-.519.7416-.501-.0246-.232-.2308.024.0616-.326-.757-.64-.7909.412.317-.709-.4554-.03-.2093.276-.0708-.56 1.2125.231.24-.267.0954.178.6677-.216-.3969-.134-.0431-.548-.4185-.418.3877-.946 1.2432.273.3293-.193.5354.528 1.1324-.451-.2216-.323.4278-.223-.1877-.275-1.2648-.73.2585-.281-.1785-.469.5755-.952-1.0801-.687.9077-.416.6463 1.207.2492-.385-.1877-.768.6862-1.038-.8093-.202-.5908-.59-.3354.137-.1877-.403-.5108.163-.8678-.335.1785-.496-.6001-.317.1631-.753-1.6309-.178-.0646-.477-.5847-.205.1785-.376-.4585-1.047.0615-.632 1.4248-.889.1785-.471.56-.012.16-.501.4308.575.2339-.504.6.127h.1231l.7201-.026-.2431-.371.6277-.065.2554-.525-.1569-.199.4647-.492.2831.463.3292.006.2431-.383 1.037-.32.1693-.62.6893-.133.7385-1.338v-.18l-.2-.567 1.117-.142h.1169l1.2124.581.4739.578.8216-.068.8832-.709.9939.638.1754-.522-.5262-.261-.0862-.688.2801.015-.1939-.4.8555-.261-.1324-.279z"/></g><path d="m61.48 281h-1v4c-.5867.333-1.4467.633-2.58.9-1.12.253-2.3333.38-3.64.38-2.4933 0-4.4467-.653-5.86-1.96-1.4133-1.32-2.12-3.353-2.12-6.1 0-2.813.7-4.86 2.1-6.14 1.4133-1.28 3.4267-1.92 6.04-1.92 1.2667 0 2.4533.133 3.56.4s1.94.567 2.5.9v4.78h-5v-.94c0-.56-.12-.96-.36-1.2-.2267-.253-.5933-.38-1.1-.38s-.88.127-1.12.38c-.2267.24-.34.64-.34 1.2v5.84c0 .56.1133.967.34 1.22.24.24.6133.36 1.12.36s.8733-.12 1.1-.36c.24-.253.36-.66.36-1.22v-.14h-1.08v-2.98h7.08zm.5645 5v-3.28h1v-9h-1v-3.28h13.5v6.04h-4.48v-2.76h-2.42v3.16h1.76v2.28h-1.76v3.56h2.42v-3.16h4.48v6.44zm14.2578-3.28h1v-9h-1v-3.28h9.18c1.72 0 3.0334.353 3.94 1.06.9067.707 1.36 1.853 1.36 3.44 0 .893-.18 1.667-.54 2.32s-.8733 1.107-1.54 1.36l.02.2c1.28.2 1.92.987 1.92 2.36v1.54h.94v3.28h-6.34v-4.7c0-.52-.08-.913-.24-1.18-.1466-.267-.3866-.447-.72-.54-.32-.093-.78-.14-1.38-.14v3.28h1.32v3.28h-7.92zm7.68-5.72c.3867 0 .6734-.1.86-.3.2-.213.3-.54.3-.98v-.72c0-.44-.1-.76-.3-.96-.1866-.213-.4733-.32-.86-.32h-1.08v3.28zm30.3757-3.28h-1v9h1v3.28h-7.56v-3.28h.96v-7l-3.4 10.28h-2.96l-3.4996-10.18v6.9h.96v3.28h-6.56v-3.28h1v-9h-1v-3.28h9.1596l2.08 6.24 2-6.24h8.82zm15.472 9h.8v3.28h-7.84v-3.28h1.2l-.32-1.6h-2.72l-.32 1.6h1.2v3.28h-6.84v-3.28h.8l3.38-12.28h7.28zm-8.44-3.72h1.84l-.82-3.98h-.2zm21.393-8.56h6.56v3.28h-1v12.28h-5.62l-5.86-9.02v5.74h.96v3.28h-6.56v-3.28h1v-9h-1v-3.28h7.22l5.26 8.02v-4.74h-.96zm16.068 0h6.14v3.28h-.8l-3.86 6.92v2.08h1v3.28h-7.6v-3.28h1v-2.08l-3.98-6.92h-.8v-3.28h7.74v3.28h-.7l1.18 3.1h.2l1.18-3.1h-.7z"/></g><path d="m47.4 309.72h1v-9h-1v-3.28h9.18c1.6667 0 2.9667.34 3.9 1.02s1.4 1.653 1.4 2.92c0 .787-.1867 1.453-.56 2-.3733.533-.8133.94-1.32 1.22-.4933.267-.9733.447-1.44.54v.2c.9467.093 1.8.393 2.56.9s1.14 1.413 1.14 2.72c0 1.4-.5267 2.427-1.58 3.08-1.0533.64-2.42.96-4.1.96h-9.18zm7.68-5.72c.3867 0 .6733-.1.86-.3.2-.213.3-.54.3-.98v-.72c0-.44-.1-.76-.3-.96-.1867-.213-.4733-.32-.86-.32h-1.08v3.28zm.14 5.72c.3867 0 .6733-.1.86-.3.2-.213.3-.54.3-.98v-.88c0-.44-.1-.76-.3-.96-.1867-.213-.4733-.32-.86-.32h-1.22v3.44zm7.6878 3.28v-3.28h1v-9h-1v-3.28h13.5v6.04h-4.48v-2.76h-2.42v3.16h1.76v2.28h-1.76v3.56h2.42v-3.16h4.48v6.44zm14.2578-3.28h1v-9h-1v-3.28h9.18c1.72 0 3.0334.353 3.94 1.06.9067.707 1.36 1.853 1.36 3.44 0 .893-.18 1.667-.54 2.32s-.8733 1.107-1.54 1.36l.02.2c1.28.2 1.92.987 1.92 2.36v1.54h.94v3.28h-6.34v-4.7c0-.52-.08-.913-.24-1.18-.1466-.267-.3866-.447-.72-.54-.32-.093-.78-.14-1.38-.14v3.28h1.32v3.28h-7.92zm7.68-5.72c.3867 0 .6734-.1.86-.3.2-.213.3-.54.3-.98v-.72c0-.44-.1-.76-.3-.96-.1866-.213-.4733-.32-.86-.32h-1.08v3.28zm8.3161 9v-3.28h1v-9h-1v-3.28h8.4403v3.28h-1.8403v9h1.8003v-1.84h3.98v5.12zm13.0663 0v-3.28h1v-9h-1v-3.28h7.6v3.28h-1v9h1v3.28zm19.919-15.56h6.56v3.28h-1v12.28h-5.62l-5.86-9.02v5.74h.96v3.28h-6.56v-3.28h1v-9h-1v-3.28h7.22l5.26 8.02v-4.74h-.96z" fill="#ea346c"/></svg>