<svg fill="none" height="330" viewBox="0 0 189 330" width="189" xmlns="http://www.w3.org/2000/svg"><path d="m73.48 300h-1v4c-.5867.333-1.4467.633-2.58.9-1.12.253-2.3333.38-3.64.38-2.4933 0-4.4467-.653-5.86-1.96-1.4133-1.32-2.12-3.353-2.12-6.1 0-2.813.7-4.86 2.1-6.14 1.4133-1.28 3.4267-1.92 6.04-1.92 1.2667 0 2.4533.133 3.56.4s1.94.567 2.5.9v4.78h-5v-.94c0-.56-.12-.96-.36-1.2-.2267-.253-.5933-.38-1.1-.38s-.88.127-1.12.38c-.2267.24-.34.64-.34 1.2v5.84c0 .56.1133.967.34 1.22.24.24.6133.36 1.12.36s.8733-.12 1.1-.36c.24-.253.36-.66.36-1.22v-.14h-1.08v-2.98h7.08zm16.5645-7.28h-1v9h1v3.28h-7.56v-3.28h.96v-3.3h-2.8v3.3h.96v3.28h-7.56v-3.28h1v-9h-1v-3.28h7.56v3.28h-.96v3.04h2.8v-3.04h-.96v-3.28h7.56zm15.4765 9h.8v3.28h-7.8396v-3.28h1.2l-.32-1.6h-2.72l-.32 1.6h1.2v3.28h-6.84v-3.28h.8l3.38-12.28h7.2796zm-8.4396-3.72h1.84l-.82-3.98h-.2zm21.3936-8.56h6.56v3.28h-1v12.28h-5.62l-5.86-9.02v5.74h.96v3.28h-6.56v-3.28h1v-9h-1v-3.28h7.22l5.26 8.02v-4.74h-.96zm22.007 12.28h.8v3.28h-7.84v-3.28h1.2l-.32-1.6h-2.72l-.32 1.6h1.2v3.28h-6.84v-3.28h.8l3.38-12.28h7.28zm-8.44-3.72h1.84l-.82-3.98h-.2z" fill="#e55933"/><g fill="#171619"><path d="m149.768 103.54-.26-.04-.222-.077-.978-.564-.208-.075-.236-.042-.227.01-.431.098-1.029.428-.15.112-.145.159-.077.281-.028.232.164.18.126.18.073.21-.007.244-.192.337-.274.734-.344.672-.842 1.09-.169.351-.072.318.047.236.07.225.091.185.236.351.461.414.145.152.096.192.054.227-.054.252-.149.208-.365.138h-.274l-.234-.072-.377-.211-.208-.058-.243.079-.237.188-.449.694-.311.651-.456 1.324-.059.232-.025.243v.231l.058.22.117.169.162.126.795.382.157.145.103.184.028.225-.113.213-.201.175-.43.145-.3.073-.259.133-.171.18-.091.347.025.252.157.435.087.466v.257l-.087.468.026.213.098.143.164.124.194.084.456.131.478.059.21-.007.983-.141.919-.234 1.266-.154.266.019.227.063.209.089.182.114.145.152.449.695.087.215.058.489-.018.255-.04.232-.166.168-.267.117-1.303.056-.267.05-.215.133-.124.276-.021.255.276 1.729.098.178.033.187.005.227-.059.243-.393.241-.683.185-1.689.194-.737.007-.468-.047-.508-.374-.914-.894-.384-.475-.601-.582-1.474-.95-.672-.292-.893-.291-1.027-.187-.866.019-1.869.655-.33.192-.43.304-.625.573-.199.314-.072.295.039.233.003.248-.04.234-.452.749-.089.229-.126.185-.332.105-.241.134-.18.309-.265.276-.334.22-.711.142-.407.01-.321-.047-.217-.068-1.004-.468-.222-.072-.274-.007-1.465.491-.386.044h-.318l-.465-.098-.248.126-.279.276-.837 1.839-.889.896 2.395.637.829.402 5.853 4.719.498.599.492.781 1.808 4.256.115.453.18 1.526.135.428.103.225 1.03 1.644.337.356.386.299.416.176.449.107.943.143.311.11.496.313.234.319.157.432.058.539 1.006 2.786 2.77 4.772.496 1.226.059.237.131 2.519.077.353.182.508.169.269.185.192 1.551.781 1.148.323.286.145.332.206.529.452.241.287.157.265.189 1.261-.007.559-.171 1.289-.709 2.244-.051.496v.245l.194 1.329.183 2.267-.103.751-.113.178-.318.727-.267.843-.079.477v.358l.072.213.176.98.098 1.2-.04.669-.077.442-.105.22-.358.506-.59.575-.161.124-.744.7-.201.341-.227.496-.391 1.104-.119.548-.026.416.138.454.19.377.128.159.157.133.183.108.638.224.405.192.328.255.273.302.227.363.169.395.241 1.815-.026.48-.07.337-.131.166-.143.133-1.656.967-.171.131-.566.584-.124.16-.143.147-.124.168-.138.15-.122.164-.199.487-.664 2.489-.131.79-.019.532.124.154.216.061 1.239-.089.216.04.208.07.189.11.143.145.103.187.117.447.171.98.065.227.07.197.223.36.295.29.533.337.189.201.183.281.171.594.018.384-.032.348-1.215 3.697-.098.194-.227.353-.131.157-.135.142-.672.499-.709.416-1.885.725-.188.239.227.447.286.809.089.744-.206.534-.304.557-.145.753.044.711.262.438 1.982 1.506.748.229 2.883-.072.732.101.536.315.891.742 1.46.861.171.299.063.342-.11 3.869.325-.638.131-.183.292-.316.789-.582.739-.405.409-.133.424-.084.288-.017.032-.007 3.416.159 3.28.74.58.285.347.264.423.45 1.479 4.047.472.587.468.353.587.37.906.351.601.299.344.239.164.131.142.157.124.206.073.292-.117.241-.131.157-.84.25-.889.608-.002.003 2.096.152 8.022-.915 1.701-.59 1.333-1.253.365-.787.435-1.972.061-.872.194-.826 1.037-2.066.489-.739 2.133-2.298 1.441-1.123 1.905-1.029.269-.101.023-.007h.002l.108-1.485-.496-.669-3.479-.398-.578-.297-.451-.524-.55-.856-.323-.372-.316-.171-.313-.131-.335-.246-.65-.933-1.1-3.388-3.205-.014-.858-.231-.543-.412-1.369-1.652-1.055-.671-2.075-1.027-.887-.91-.664-1.023-.503-1.003-.262-1.039.059-.87.016-.255.264-.541.295-.395.026-.396-.538-.526-.382-.08-1.172.038-.395-.04-.37-.671-.592-.438-.549-.505-.237-.884.365-2.136-.042-.686-.355-.683-.613-.583-.735-.407-.721-.152-.278-.372-1.214-2.271-.515-.396-.402-.241-.136-.404.283-.892.887-1.483.098-.714-.494-.896-1.195-.926-.482-.648.613-.19.618-.046 1.771-.464.542-.301.803-1.458.03-1.841-.187-1.907.145-1.658 1.011-2.539.39-1.965.562-1.556.051-.917-.673-2.777-.276-.369-1.547.573-.835.15-.763-.103-1.326-1.177-.676-1.865-.208-2.089.159-2.461.152-.522.262-.454.425-.414.55-.248.674-.184.569-.293.238-.571-.012-1.151.131-1.315.539-.863 1.214.206-.117-.828.091-2.218-.381-2.424.035-2.54-.031-.206-.411-2.808.032-1.579-.021-.814-.386-1.584-.156-1.995-.223-1.041.208-.302.333-.255.229-.55-.075-.587-.29-.363-.325-.316-.173-.447.046-.547.218-.166.321-.04.35-.168 1.4-1.264.704-.463 1.855-.826.671-.421.319-.645-.167-1.044-.156-.145-.503-.082-.164-.145-.028-.201.035-.426-.103-.622.012-.487-.092-.44-1.609-1.342-.543-1.608-.734-1.562-2.754-1.299-1.095-.793-1.015-.943-.716-.833-1.682-1.151-1.671-2.346-1.233-2.665-.266-1.56h-.014-.017l-1.637-.227-.26.016-1.338.272-.253.023z" stroke="#fff" stroke-width=".5"/><path d="m166.385 230.646.003-.002.889-.608.84-.25.131-.157.117-.241-.073-.293-.124-.205-.143-.157-.163-.131-.344-.239-.602-.299-.905-.351-.587-.37-.468-.353-.473-.587-1.478-4.048-.424-.449-.346-.264-.58-.286-3.28-.739-3.416-.159-.032.007-.288.016-.424.085-.409.133-.739.405-.789.582-.292.316-.131.183-.325.638-1.82 2.073-.644.606-.554.344-.237.079-.332.024-.262-.04-.227-.089-.168-.122-.438-.416-.266-.304-.555-.859-.131-.173-.182-.178-1.154-.496-.182-.107-.339-.246-.3-.278-.243-.33-.559-1.172-.157-.18-.267-.171-.542-.052h-.583l-.494.099-.306.091-1.516 1.027-.498.243-.326.103-.145.017-.142-.059-.286-.337-.208-.161-.269-.145-.456-.164-.246.049-.159.154-.688 2.466-.166.251-.318.259-1.769.721-.224.145-.162.196-.465.978-.452 1.631-.402.823-.108.174-.126.163-.215.213-.302.239-.59.353-.386.105-.323.024-.442-.15-.358-.217-.159-.134-.145-.147-.22-.157-.276-.124-.484-.07-.271.065-.225.115-.798.962-.248.189-.355.22-.719.349-.409.138-.342.079-1.05-.04-.423-.063-.763-.295-.199-.093-.648-.236-.386-.216-.145-.149-.082-.19v-.728l-.264-.163-.471-.056-1.813.138-.423.077-.36.119-.103.056-.11.082-.066.133-.047.131-.18.927-.004.363.018.231.033.185.096.321 1.56 3.083.623.94.362.288.417.194.227.071.657.341.58.412.267.276.189.243.665 1.495.639 2.251h.002l.26-.129 1.902-.239 9.016-2.924.667-.061.369-.131.246-.196.547-.55.197-.117 3.341-1.128.678-.692.466-.763.587-.622 1.635-.47 1.156-1.081.643-.435 2.812-.763.798-.571.353-.124 1.016-.044.21-.122.213-.246.51-.203 1.002-.234 1.806-.096z" stroke="#fff" stroke-width=".5"/><path d="m50.2439 273.765 1.123-.044.5661-.229 2.8963-.37.5942-.241.6317-.603 1.0153-1.449.6715-.594 3.2214-1.446 2.8846-.823.3931-.033.3696-.072.0211-.199-.0749-.281.0936-.309 1.2118-1.34.5124-.391 2.8775-1.425.1732-.157.2643-.301.0959-.335-.2924-.634.0655-.341.5194-.415.7159-.177.7392.053.6036.279.0305-.019-.0024-.009-.3603-2.737.0164-.45.1661-1.029.138-.473.1825-.43.8235-1.532.262-.316.1591-.129.1732-.121.1824-.099.1872-.075.4188-.121.2152-.033.5802.009.2316-.023.2222-.049.1849-.07.1754-.103.1708-.117.1497-.143.5171-.641 1.2563-.978.1333-.145.0187-.232-.1286-.32-.4328-.498-.2761-.262-1.6985-1.086-1.3732-1.245-.5381-.627-.1451-.243-.1333-.316-.2925-.933-.1497-.311-.1825-.241-.3532-.342-.2597-.175-.262-.136-.4235-.166-.3439-.255-.1497-.15-.6738-.814-.2714-.739-.1263-.496-.0187-.246.0187-.253.0866-.488.131-.45.0982-.191.1334-.153.1848-.095.1942-.059.1801-.105.124-.155.2106-.341.0514-.173-.021-.19-.0468-.201-.4001-.613-.5334-.573-.5615-.489-.7556-.428-.4001-.176-.4491-.145-.5147-.086-1.0107-.019-.2456-.047-.2176-.077-.1989-.103-.4842-.393-.1919-.105-.2175-.089-.2597-.038-.255-.011-.4843.054-.4305.116-1.399.557-.2246.031-.2339-.017-.2036-.22-.1707-.369-.1451-.849-.014-.445.0397-.381.2667-.679.2293-.905.0538-.463-.0327-.845.028-.25.0726-.222.1052-.181.131-.163.2902-.295.1169-.157.0164-.22-.0912-.252-.3089-.241-.538-.244-.1661-.175-.1006-.262-.0375-.454.0538-.646.1708-.76.0258-.25-.0936-.377-.2153-.438-.5708-.79-.3158-.356-.2667-.232-.2129-.084-.9826-.238-.2152-.096-.1919-.108-.7556-.587-.1404-.138-.117-.134-1.9043-2.758-.7931-.826-.1708-.114-.1614-.131-.6387-.335-1.3218-.554-.1801-.099-.1474-.114-.1544-.192-.4539-1.132-.138-.258-.4211-.451-.351-.232-.8609-.292-.2269-.049-.3369-.115-.6855-.323-1.2352-.828-.1615-.168-.3181-.529-.117-.335-.0655-.271-.0538-.545.0257-.531.0772-.506.0632-.222.2012-.25.3275-.265.7136-.386 1.144-.46.517-.368.6855-.634.2994-.419.2129-.629-.9756.042-.3228-.047-.2597-.114-.2597-.295-.1286-.248-.0936-.241-.1848-.678-.0843-.206-.3322-.524-.1497-.143-.1731-.122-.2036-.091-3.0811-.716-.379-.187-.1076-.189-.0514-.218-.0117-.257.0584-.522.8025-2.386v-.23l-.0211-.219-.0304-.141-.0538-.168-.1193-.15-.2012-.129-.3322-.054-.3322.052-.9007.309h-.3205l-.262-.061-1.2938-.798-.4071-.182-.2128-.063-.248-.012-.2316.11-.2246.203-.227.487-.1076.337-.4258 2.952-.1169.463-.1568.44-.2012.424-.1333.206-.5428.526-.1591.11-.379.185-.2222.065-.2644.026-.2994-.002-.3744-.045-.2292-.149-.1006-.106.1286-1.01-.3275-.012-.379-.192-.5498-.4-.4679-.262-.2129-.068-.2479-.047-1.1558-.058-.2339-.045-.2363-.098-.1965-.182-1.8646-3.973-.1754-.196-.255-.185-.489-.218-.8399-.245-.2058-.085-.2036-.128-.1988-.194-.2223-.302-.1731-.447-.1802-.849-.1637-.232-.2667-.22-.5521-.269-.3907-.098-.3533-.045-1.5885.131-.5428-.004-.4632-.12-.1918-.098-1.6424-1.261-.393-.189-1.137-.307-.2059-.107-.1684-.131-.131-.213.021-.297-.0421-.354-.1029-.409-.2831-.676-.1053-.428-.0444-.361.0304-.257.0608-.229.3416-.807.0445-.223-.0094-.236-.131-.444-.0842-.199-.0632-.222-.0398-.232-.0187-.751-.0702-.271-.6504-1.446-.2082-.894-.9989-1.853-.4703-.536-.6199-.547-1.2751-.707-.6316-.259-.4609-.105-.4539.093-1.5908.653-.2176.054-.2363.009-.524-.051-.2644-.103-.2503-.143-.32051-.253-.1895-.196-.14739-.187-.44216-.796-.28542-.861-.43515-2.218-.03977-.142-.51702.322-4.84743 8.338-.70418 1.631-.05849 1.53.18248.428.52639.679.56615 1.097.09826.281-.82584 2.323-.22693.276-.77437.428-.30413.444-.05849.712 3.3174 14.935.49831.606.12165.15 1.23759 1.132.89368 2.358 1.27503 7.047.6106 1.511 1.61654 2.966.5124 1.53.1076 1.526-.4094 4.819 2.7278-.234-.4234 2.639.2269 1.093.992.554.8235-.103 1.3662-.828.6832-.274 2.9945.775.5381.437.3299.552.159.683.0983 2.211.7463 3.02 1.1464 2.693.1801.758-.1076.737-.4165.531-.5568.103-1.4177-.26-.2737 2.611.1193.585.5849.845.1871.486-.021.361-.1778.882.0327.386.1334.145.5545.475.2292.271-.4024.793-.6012.428-.9639.141-1.6727-.066h-.0024l-.9077.414-1.509.241-1.1674.489.1123 1.158-.4585.138-.8609.363-.5545.077-.2246-.159-.5147-.744-.2503-.248-.9077-.267-3.00627-.021-.47725.073-.3907.154-.29243.075-.18248.695.66675.152 5.82998 1.79 6.0546 1.064 5.4814.417 6.9179 2.353 7.1097 1.467 4.3632 1.708.2316.257.1848.323.0725.309.1708.374.4047.243.8867.377 1.7897 1.432.393.414-.0444.194.4726.047.6363.194.3392.049.5451.152.0983.382-.0445.472.1194.433.3041.278z" stroke="#fff" stroke-width=".5"/><path d="m142.382 171.451-.351-.066-.496-.199-.921-.477-.424-.164-.468-.117-10.621-.414-2.414.433-.756.269-.323.253-.292.287-.831 1.051-.267.269-.517.428-.503.304-2.089.702-.47.206-.316.187-.288.295-.133.21-.461.513-.397.119-5.615.105-.639.134-.473.409-7.551 10.584-.347.297-.269.168-.215.073-3.032.426-.9193.341-1.02.487-.4281.304-.2714.267-.1638.416-.1146.459-.0234.25.014.248.0468.229.0796.204.2128.36.2574.328.2948.29.9826.76.1473.138.1353.159.227.346.188.386.109.45.012.222-.014.145-.15.274-.269.339-1.1787 1.174-.2363.34-.1006.189-.2012.278-5.4487 5.65-1.8014 2.838-.6387 1.692-.4889 1.845-.0959.576-.11.325-.2316.473-.1848.255-.1732.196-.3251.253-.9405.538-.0842.171.0655.133.1286.155.11.173.0749.213.0257.241v.259l-.0795.52-.1006.332-.475.807-.1029.232.0304.187.0655.17-.0281.41.0983.136.1825.053.1778.122.1076.171-.014.262-.1568.145-.5193.147-.1428.166-.0701.237-.0445.25-.2924.931-.1193.269-.358.597-.3182.877-.0397.292v.036l-.0538.229-.2574.554-.0561.197.014.178.0842.128.1521.005.1778-.033.2059.012.1497.098.131.152.0164.571-.7627 1.502 1.378.732 1.2329.461.1988.176.1147.191 1.3101 2.848.6129 1.055.2223.243.1029.077.2667.07.3814.035 3.6262-.051.3018.033.3883.082.627.208.3252.178.4117.301.2738.092.379.032 1.041-.126.5147-.115.4747-.06.821.082 4.085.891.215.089.485.121.898.007 7.096-.57 1.125.18 1.888.737-.096-.321-.033-.185-.018-.231.004-.363.18-.926.047-.131.066-.134.11-.082.103-.056.36-.119.423-.077 1.813-.138.471.056.264.164v.727l.082.19.145.149.386.216.648.236.199.094.763.294.423.064 1.05.039.342-.079.409-.138.719-.349.355-.22.248-.189.798-.962.225-.114.271-.066.484.07.276.124.22.157.145.147.159.134.358.217.442.15.323-.023.386-.106.59-.353.302-.239.215-.212.126-.164.108-.173.402-.824.452-1.63.465-.978.162-.197.224-.145 1.769-.72.318-.26.166-.25.688-2.466.159-.155.246-.049.456.164.269.145.208.161.286.337.142.059.145-.017.326-.103.498-.243 1.516-1.027.306-.091.494-.098h.583l.542.051.267.171.157.18.559 1.172.243.33.3.278.339.246.182.108 1.154.496.182.177.131.174.555.858.266.304.438.417.168.121.227.089.262.04.332-.023.237-.08.554-.344.644-.606 1.82-2.073.11-3.869-.064-.342-.17-.299-1.46-.861-.892-.742-.535-.315-.733-.101-2.882.072-.748-.229-1.982-1.506-.262-.438-.044-.711.145-.753.304-.557.206-.534-.089-.744-.286-.809-.227-.447.188-.239 1.885-.725.709-.416.671-.499.136-.142.131-.157.227-.353.098-.194 1.215-3.697.032-.348-.018-.384-.171-.594-.183-.281-.189-.201-.534-.337-.294-.29-.223-.361-.07-.196-.065-.227-.171-.98-.117-.447-.103-.187-.143-.145-.189-.11-.208-.07-.216-.04-1.24.089-.215-.061-.124-.154.019-.532.131-.79.664-2.49.199-.486.122-.164.138-.15.124-.168.143-.147.124-.16.566-.584.171-.131 1.656-.967.143-.133.131-.166.07-.337.026-.48-.241-1.815-.169-.395-.227-.363-.274-.302-.327-.255-.405-.192-.638-.224-.183-.108-.157-.133-.128-.159-.19-.377-.138-.454.026-.416.119-.548.391-1.104.227-.496.201-.341.744-.7.161-.124.59-.575.358-.506.105-.22.077-.442.04-.669-.098-1.2-.176-.98-.072-.213v-.358l.079-.477.267-.843.318-.727.113-.178.102-.751-.182-2.267-1.975-.7-.28-.016-.3.026-.645.276-.758.456-.613.253-.234.054z" stroke="#fff" stroke-width=".5"/><path d="m53.9169 215.812-.2176-.255-.1918-.505-.62-3.278.0889-.269.124-.215.1427-.147.0842-.19.0398-.243-.0655-.613.0164-.272.0678-.229.1895-.398.0608-.205.0234-.22-.0304-.195-.0865-.297-.503-.299-1.9418-.091-.2129.629-.2995.419-.6854.634-.5171.367-1.144.461-.7135.386-.3275.264-.2012.251-.0632.222-.0772.505-.0257.531.0538.545.0655.272.117.334.3181.529.1614.168 1.2353.829.6855.322.3369.115.2269.049.8609.293.3509.231.4211.452.1381.257.4538 1.132.1544.192.1474.115.1802.098 1.3218.555.6387.334.1614.131.1708.115.7931.826 1.9043 2.758.117.133.1403.138.7557.588.1918.107.2153.096.9826.239.2129.084.2667.232.3158.355.5708.791.2153.437.0935.377-.0257.25-.1708.761-.0538.645.0374.454.1006.262.1661.176.5381.243.3088.241.0913.253-.0164.22-.117.156-.2901.295-.131.164-.1053.18-.0725.222-.0281.251.0328.844-.0538.463-.2293.906-.2667.678-.0398.382.0141.444.145.849.1708.37.2036.22.2339.016.2246-.03 1.399-.557.4305-.117.4842-.054.255.012.2597.037.2176.089.1918.105.4843.394.1989.102.2175.078.2457.046 1.0106.019.5147.087.4492.145.4001.175.7556.428.5615.489.5334.573.4001.613.0467.202.0211.189-.0515.173-.2105.342-.124.154-.1801.106-.1942.058-.1849.096-.1333.152-.0983.192-.131.449-.0865.489-.0188.253.0188.245.1263.496.2714.74.6738.814.1497.149.3439.255.4234.166.2621.136.2596.176.3533.341.1825.241.1497.311.2924.934.1334.316.145.243.5381.627 1.3733 1.245 1.6985 1.085.276.262.4328.498.1287.321-.0187.231-.1334.146-1.2563.977-.517.641-.1497.143-.1708.117-.1755.103-.1848.07-.2222.049-.2316.024-.5802-.01-.2153.033-.4187.122-.1872.075-.1825.098-.1731.122-.1591.128-.262.316-.8235 1.532-.1825.431-.138.473-.1661 1.029-.0164.449.3603 2.737.0023.01v-.003l.7112-.51.9475-.358 2.9244-.416 1.523-.746.779-.253.4258-.021.868.054.4258-.033.4562-.185.9732-.58.4515-.126 2.7349-.082.8609-.178 1.6634-.753.8586-.506.3743-.365.4445-.62 4.3842-1.89.6714-.18.6925-.061.5171-.428.3345-.094.1521.382.2129.376.4983.021 1.0106-.257 1.0388-.072.3977-.138.2854-.363.6151.547.964.042 3.126-.456.631-.397.999-1.18 2.454-2.016.538-.201 2.174-1.526.348.599.698-.224.68-.517.309-.305.503-.004 2.939-.728 1.506-.926.566-.587.22-.651.328-.475 3.088-2.59.515-.25-.639-2.251-.664-1.494-.19-.244-.267-.276-.58-.412-.657-.341-.227-.07-.417-.194-.362-.288-.623-.941-1.56-3.083-1.888-.737-1.125-.18-7.096.571-.898-.007-.485-.122-.215-.089-4.085-.891-.821-.082-.4746.061-.5147.114-1.0411.127-.379-.033-.2737-.091-.4118-.302-.3251-.178-.627-.208-.3884-.082-.3018-.033-3.6262.052-.3813-.035-.2667-.071-.103-.077-.2222-.243-.613-1.055-1.3101-2.847-.1146-.192-.1989-.176-1.2329-.461-1.3779-.732-.0492.215-.0538.078-.0912.093-.2878.197-.0678.201-.0398.206-.0538.147-.11-.019-.1286-.138-.1287-.07-.2199.049-.3439.246-.1965.089-.2176.07-.2246.002-.1801-.032-.117-.216-.0866-.212-.0655-.239-.0912-.192-.1685-.103-.283.038-.234.058-.2386-.009-.2246-.089-.2807-.213-.9592-.253-.3393.005-.2433.065-.1403.141-.1895.082-.2129.042-.241.009-.7978.148-.145.159-.117.166-.1287.124-.3696.061-.1708.07-.1918.061-.4679-.012-.4071.089-.0819.138.0258.171.0655.173.0187.201-.2386.566-.1123.161-.1778.078-.2036-.019-.3766-.131-.3837-.178-.6714-.395-.1615-.274-.014-.208.1684-.103.1966-.026.1684-.049.0819-.133-.0024-.195-.0982-.222-.1731-.234-.3299-.323-.248-.152-.6784-.124-.4001-.133-.2293.028-.2105.049-.2269.021-.4516-.014-.3907.117-.2409.005-.3369-.124-.5217-.028-.4469.082-.9475.065-.4655.094-.2878-.007-.2129.077-.2713.016-.3814-.086-.634-.332-.3556-.141-.2807-.164-.2012-.332-.2059-.203-1.1463-.464-.4609-.021-.5896-.124-.1474-.131-.124-.25-.145-.157-.9077-.458-.1965-.169-.0702-.304-.0047-.213.0117-.147.0515-.243.0608-.19.007-.203-.0842-.19-.5708-.26-.4399-.042-.1988.026-.1544.08-.2527.252-.1567.099-.1966.072-.2807.002-.3416-.056-.5334-.259-.2737.011-.1825.101-.1029.175-.1263.141-.1989.009-.2644-.077-.3813-.346-.6831-.868-.1544-.155-.1661-.056-.1825.007-.2597-.222-.262-.447-.5966-1.663-.2035-.363-.2691-.105-.2152.016-.3299.119z" stroke="#fff" stroke-width=".5"/><path d="m32.1129 104.955-1.6915-1.846-.889-.477-.3252-.065-.1263-.068-.1217-.183-.2526.134.1988.667 1.9348 11.903 1.9324 11.896-.2878.648-1.8879 1.116-.5732.194-.4843-.051-.5334-.253-.3462-.021-.2691.253-.2947.566-.1778.669.1029.536.5545 1.223.2713 1.016-.0374.739-.4164.55-.8656.442-2.508.842-.772.552-1.9184 2.22-.6854.581-.0585-.138-.2129-.241-.2808-.185-.2643.03-.1217.311-.1825 3.168-.138.468-.3345.363-.9358.566-.3603.344-.0351.212.1216.55-.0093.23-.1638.278-.4211.515-.1638.278-3.0343 6.525-.5614 1.717-2.0565 12.989.0398.496.2644.592.2807.348.1872.344-.0304.578-.372.824-1.9278 2.419-.2128.425-.3463 2.118-.2129.299-2.08213.681-.04679.03-.02808.019.03977.143.43515 2.218.28542.86.44216.796.14739.187.1895.197.32051.252.2503.143.2644.103.524.051.2363-.009.2176-.054 1.5908-.653.4539-.093.4609.105.6316.26 1.2751.706.6199.548.4703.536.9989 1.852.2082.894.6504 1.446.0702.271.0187.751.0398.232.0632.222.0842.199.131.444.0094.237-.0445.222-.3416.807-.0608.229-.0304.258.0444.36.1053.428.2831.676.1029.41.0421.353-.021.297.131.213.1684.131.2059.108 1.137.306.393.19 1.6424 1.261.1918.098.4632.119.5428.005 1.5885-.131.3533.044.3907.098.5521.27.2667.219.1637.232.1802.849.1731.447.2223.302.1988.194.2036.129.2058.084.8399.246.489.217.255.185.1754.197 1.8646 3.972.1965.182.2363.099.2339.044 1.1558.059.2479.046.2129.068.4679.262.5498.4.379.192.3275.012.0726-.409v-.197l-.0632-.218-.1404-.14-.4375-.152-.1661-.117-.0912-.164.007-.213.0866-.184.2316-.291.0047-.177-.1591-.307.014-.171.3252-.503.1334-.444.1029-.215.1497-.185.2293-.194.2082-.459.117-.201.1661-.171.2339-.182.2738-.377.1497-.143.1661-.124.1263-.161.1614-.417.1334-.182-.014-.192-.0609-.194-.2035-.36-.0374-.204.0444-.203.0959-.181.2293-.332.0328-.187-.0726-.173-.1263-.15-.5428-.332-.1427-.143-.0725-.206-.0585-.748-.0865-.197-.1568-.128-.3907-.155-.124-.149-.0397-.23.021-.245.1451-.714.0233-.239.0445-.194.1193-.121.3275.03 1.0435.243.5544.052.3954-.059.4702-.119.8633-.337.4117-.21.2784-.181.1428-.152.1239-.154.2083-.414.1684-.468.0562-.241.3064-2.459.1334-.447.0936-.192.1286-.177.1404-.148.2035-.147.2457-.143.379-.159.2386-.133.1567-.148.0422-.187-.0609-.182-.1146-.178-.1567-.154-.1708-.117-.2106-.101-.4843-.133-.8235-.096-2.1266-.054-1.5019.428-.2503.023-.227-.016-.2222-.096.007-.143.0468-.191.0795-.22.1334-.157.1731-.11.393-.18.1825-.105.482-.394.1427-.149.2409-.339.3112-.267.1333-.155.0889-.201.1053-.187.1263-.154.11-.166.0491-.195-.0257-.671.0538-.204.1801-.367.0468-.196.1006-.174.0094-.477.0632-.203.1006-.18 2.6529-2.92.5147-.346.2714-.085.3369-.021.6036.099.2901.149.1918.183.0796.206.1169.432.0843.206.1239.162.4165.056 5.1211-.29.8118-.288 1.151-.657 1.1417-.836.5709-.624.9849-1.329.4538-.454.2901-.131.4211-.11.8891-.1.4491-.096.3322-.101.1615-.129.1169-.17.2995-.852.0374-.218-.1053-.673.0328-.232.0795-.208.3252-.562.0421-.201-.0023-.147-.1193-.084-2.0658-.52-.4211-.154-.3486-.243-1.1089-1.205-1.5885-1.317-.1661-.085-.1918-.014-.1521.014-1.5651.314-.241.007-.2199-.059-.1825-.096-.1638-.14-.9357-1.095-.1685-.121-.2129-.085-.2363-.046h-.51l-.503.049-.5006-.066-.2153-.07-.1754-.082-.1076-.082-.0304-.138.014-.208.0468-.232.1661-.407.0608-.21v-.737l.0398-.244.0585-.208.262-.299.1029-.183.1287-.458.0819-.208.1029-.192.0679-.225.0444-.253.0632-.219.3228-.129.5498.005 1.9816.311.6199-.073.2504-.124.3509-.276.2877-.063 1.0341.021.3462-.056.3182-.021.2433.044.4679.279.2901.091.3977.04 1.5698-.056.2386-.05.4282-.156.9241-.23.2807-.014.2831.047.3462.199.1591.227.0819.262.1029 1.86.1006.479.0819.197.117.171.3766.196.6738.215.9265.522.4959.403.3931.467.1473.143.2106.115.2644.042.4094-.075.2784-.079.8703-.335.2246-.056.2573-.017.2924.033.6457.302.3369.094.3884.028.6925-.085.3345-.131.2433-.154.2878-.304.6527-1.081.4398-.437.3603-.218.2152-.075.3042-.035.9755-.016.4118-.078.4609-.161.1357-.239.0538-.257-.0305-.255-.2386-.919-.3228-.824-.0585-.217-.0024-.22.0585-.164.0562-.101.1146-.131 1.2399-.903 1.6962-1.013.3228-.259.5124-.656 1.3732-2.199.2901-.308.1568-.134.3626-.206.2129-.086.2129-.063.2316-.035.3018.046.379.131.6012.37.2878.248.2012.225.1942.376.3041.842.0749.447.0889 2.057.0982.409.1568.395.0982.188.241.341.2246.265.2269.191.3276.115.4725.122.9826.128.9077.026.9312-.143.8118.005.2386-.049.2339-.08.1942-.084.2152-.068.4563-.065.2292-.068.2667-.052.3884-.018.6316-.136.475-.033.7813-.199.1685-.121.117-.171.1567-.437.1006-.195.1263-.159.2995-.283.5264-.353.131-.152.2316-.351.1263-.15.2667-.084.372.002 1.2025.171.2106.087.3719.386.2083.11.3275-.003.5123-.105.2153-.009.2082.068.3228.414.1872.163.2152.094.3977-.005.5573-.061.479.029.206-.029.292-.248.206-.1.286-.038.369.01.276-.028.269.039.443.263.374.161.578.147.311.035.22.087.063.161.124.152.175.066.251-.08.171-.14.142-.175.199-.396.11-.119.164-.035.262.217.306.05.237-.036.622-.559.372-.206.859-.294.191-.099.162-.119.337.061.489.281 1.017.858.733.761.963 1.572.751 1.827.431.72.271.302.265.183.365.187 1.284.402 4.384.777 5.926 2.183.227.105.234.145.819 1.05 1.869 3.327 10.621.414.468.117.424.164.921.477.496.199.351.066.293-.007.234-.054.613-.253.758-.456.645-.276.3-.026.281.017 1.974.699-.194-1.329v-.245l.051-.496.709-2.244.171-1.289.007-.559-.189-1.261-.157-.265-.241-.287-.529-.452-.332-.206-.286-.145-1.148-.323-1.551-.781-.185-.192-.169-.269-.182-.508-.077-.353-.131-2.519-.059-.237-.496-1.226-2.77-4.772-1.006-2.786-.058-.539-.157-.432-.234-.319-.496-.313-.311-.11-.943-.143-.449-.107-.416-.176-.386-.299-.337-.356-1.03-1.644-.103-.225-.135-.428-.18-1.526-.115-.453-1.808-4.256-.492-.781-.498-.599-5.853-4.719-.829-.402-2.395-.637-.447.15-.756.044-1.717-.264-.777-.271-2.335-1.367-4.351-3.535-.124-.166-.14-.154-.129-.166-.143-.148-.484-.662-.69-.732-.323-.255-.196-.093-.232-.073-.271-.047-.948.063-.938.181-.424.025-.533-.032-.809-.134-.524-.03-.239.023-.187.033-.134.049-.126.073-.14.105-.274.299-.526.7-.279.299-.304.274-.18.105-.194.092-.611.194-.402.184-.382.223-.3529.285-.1239.136-.1194.164-.1052.177-.6668 1.771-.2035.377-.2691.321-.6199.573-.3369.236-.1989.087-1.3428.325-.3837.154-.1872.112-.1567.139-.1264.189-.0982.187-.0796.22-.0491.241-.0327.267v.273l.0818.466.1755.377.4468.718.1615.377.0585.215.0444.227.014 1.024-.0374.269-.0655.248-.1287.204-.1825.152-.2035.098-.1708.11-.131.101-.0772.093-.3603.709-.2526.337-.2129.363-.138.107-.2059-.042-.3159-.227-.283-.159-.4328-.119-.3018-.173-.2363-.386-4.4755-12.57-.4421-.761-.5732-.75-1.151-.758-.4305-.403-.2199-.302.0561-.217.0936-.199.1123-.178.2644-.339.2924-.29.1661-.124.3018-.281.1263-.145.1311-.175.0959-.19.0725-.229.0374-.253.0281-1.394.0445-.248.0655-.222.2012-.394.2479-.329 2.1524-1.949.248-.3.4374-.821.1521-.43.0374-.239v-.231l-.021-.204-.1661-.681-.6153-1.42-.2035-.938-.227-.646-.2222-.161-.3556-.103h-.8914l-.641-.056-.8984-.183-.7252-.234-.3556-.187-2.0938-1.413-.6177-.517-.3813-.416-.1614-.131-.2925-.29-.1661-.129-.3883-.187-.4796-.127-.5194-.03-2.2576.087-1.027.145-.6832.444-.152.143-.1357.161-.11.185-.0912.206-.0632.22-.2409 1.247-.096.203-.1357.155-.1684.128-.365.209-.8047.351-.4796.107-1.0294.105-.4258-.018-2.4916-.492-.3298.003-.5217.149-.2925.136-.2199.164-.117.168-.0982.197-.138.437-.1053.204-.1287.159-.2971.253-.5381.138-1.2329.552-3.1302-1.004-1.7125.744-.5475.721-.3556.828-.1871.889-.0562.91.117 2.552-.117.798-.1801.494-.227.414-.5848.699-.2106.403.0796.374.1848.346.1029.328.0819.779.2316.725.3533.592.4538.381 1.5956.269 1.6095-.133 1.3078.306.7018 1.587.0281.765-.145.751-.4211.575-.7908.229-.9054-.201-1.675-.828-1.0177-.105-.8726.423-.6902.791-.5194.763-.3579.341-.6902 1.161-.269.271-.1755.117-4.0052.823-1.8271.033-1.5207-.374-.7275-.697-1.0856-1.83-1.2867-.674-1.1838-1.48-.5942-.562-.641-.36-.5568-.41-.3977-.566-.3322-2.664-.3931-1.509-.5076-.934-.0655-.386-.1802-.355-.7884-.258-.1801-.271-.2621-.632-.51-.632-.3392-.692.2503-.798-.758-1.481-.1006-.432-.2292-.361-1.0037-.615-.2292-.461-.358-.968-1.5768-1.224-1.2212-2.318-.5732-.581-.1731-.067-.2199-.015-.1731.029z" stroke="#fff" stroke-width=".5"/><path d="m86.6043 158.691-.9078-.026-.9825-.128-.4726-.122-.3275-.115-.227-.191-.2246-.265-.2409-.341-.0983-.188-.1567-.395-.0983-.409-.0889-2.057-.0749-.447-.3041-.842-.1942-.376-.2012-.225-.2877-.248-.6013-.37-.379-.131-.3018-.046-.2316.035-.2129.063-.2129.086-.3626.206-.1567.134-.2901.308-1.3733 2.2-.5124.655-.3228.259-1.6961 1.013-1.24.903-.1146.131-.0561.101-.0585.164.0023.22.0585.217.3228.824.2387.919.0304.255-.0538.257-.1357.239-.4609.161-.4117.078-.9756.016-.3041.035-.2153.075-.3603.218-.4398.437-.6527 1.081-.2878.304-.2433.154-.3345.131-.6925.085-.3883-.028-.3369-.094-.6457-.302-.2925-.032-.2573.016-.2246.056-.8703.335-.2784.079-.4094.075-.2644-.042-.2105-.115-.1474-.142-.393-.468-.496-.403-.9265-.521-.6737-.216-.3767-.196-.117-.171-.0818-.197-.1006-.479-.103-1.86-.0819-.262-.159-.227-.3463-.199-.2831-.047-.2807.014-.9241.23-.4281.156-.2387.05-1.5698.056-.3977-.04-.2901-.091-.4679-.279-.2433-.044-.3181.021-.3463.056-1.034-.021-.2878.063-.3509.276-.2503.124-.62.073-1.9816-.311-.5497-.005-.3229.129-.0631.219-.0445.253-.0678.225-.103.192-.0819.208-.1286.458-.103.183-.262.299-.0585.208-.0398.244v.737l-.0608.21-.1661.407-.0468.232-.014.208.0304.138.1076.082.1755.082.2152.07.5007.066.503-.049h.51l.2362.046.2129.085.1685.121.9358 1.095.1637.14.1825.096.2199.059.241-.007 1.5651-.314.1521-.014.1918.014.1661.085 1.5885 1.317 1.109 1.205.3485.243.4212.154 2.0657.52.1193.084.0024.147-.0421.201-.3252.562-.0796.208-.0327.232.1053.674-.0375.217-.2994.852-.117.17-.1614.129-.3322.101-.4492.096-.889.1-.4211.11-.2901.131-.4539.454-.9849 1.329-.5708.625-1.1417.835-1.151.657-.8118.288-5.1212.29-.4164-.056-.124-.162-.0842-.205-.117-.433-.0795-.206-.1919-.183-.2901-.149-.6036-.099-.3369.021-.2713.085-.5147.346-2.653 2.92-.1006.18-.0632.203-.0093.478-.1006.173-.0468.196-.1802.367-.0538.204.0258.671-.0492.195-.1099.166-.1264.154-.1052.187-.0889.201-.1334.155-.3111.267-.241.339-.1427.15-.4819.393-.1825.105-.3931.18-.1731.11-.1333.157-.0796.22-.0468.191-.007.143.2223.096.2269.016.2503-.023 1.502-.428 2.1266.054.8235.096.4842.133.2106.101.1708.117.1567.154.1147.178.0608.182-.0421.187-.1568.148-.2386.133-.379.159-.2456.143-.2036.147-.1403.148-.1287.178-.0936.191-.1333.447-.3065 2.459-.0562.241-.1684.468-.2082.414-.124.154-.1427.152-.2784.181-.4118.21-.8632.337-.4703.119-.3954.059-.5544-.052-1.0434-.243-.3276-.03-.1193.121-.0444.194-.0234.239-.1451.714-.021.245.0398.23.1239.149.3907.155.1568.128.0866.197.0584.749.0726.205.1427.143.5427.332.1264.15.0725.173-.0328.187-.2292.333-.096.18-.0444.203.0374.204.2036.36.0608.194.014.192-.1333.183-.1614.416-.1264.161-.1661.124-.1497.143-.2737.377-.234.182-.1661.171-.117.201-.2082.459-.2292.194-.1498.185-.1029.215-.1334.444-.3251.503-.0141.171.1591.307-.0047.177-.2316.291-.0866.184-.007.213.0913.164.1661.117.4375.152.1403.14.0632.218v.197l-.0725.409-.1287 1.011.1006.105.2293.15.3743.044.2994.002.2644-.025.2223-.066.379-.185.159-.11.5428-.526.1334-.206.2011-.423.1568-.44.117-.463.4258-2.953.1076-.337.2269-.486.2246-.204.2316-.11.248.012.2129.063.4071.183 1.2937.797.262.061h.3205l.9007-.309.3322-.051.3322.054.2012.128.1193.15.0539.169.0304.14.021.22v.229l-.8024 2.386-.0585.522.0117.257.0515.218.1076.189.379.188 3.0811.716.2035.091.1731.121.1498.143.3322.524.0842.206.1848.679.0936.24.1287.248.2596.295.2597.115.3229.047.9755-.042 1.9418.091.503.299.0866.297.0304.195-.0234.219-.0608.206-.1895.398-.0679.229-.0164.272.0656.613-.0398.243-.0842.189-.1428.148-.1239.215-.0889.269.6199 3.278.1919.505.2175.255.1334-.012.3298-.119.2153-.016.269.105.2036.363.5965 1.663.2621.447.2596.222.1825-.007.1661.056.1544.155.6832.868.3813.346.2644.077.1988-.009.1263-.141.103-.175.1825-.101.2737-.012.5334.26.3416.056.2807-.002.1965-.073.1568-.098.2526-.252.1544-.08.1989-.026.4398.042.5708.26.0843.19-.0071.203-.0608.19-.0515.243-.0117.147.0047.213.0702.304.1965.169.9078.458.145.157.124.25.1474.131.5895.124.4609.021 1.1464.464.2058.203.2012.332.2808.164.3556.141.634.332.3813.086.2714-.016.2129-.077.2877.007.4656-.094.9475-.065.4468-.082.5217.028.3369.124.241-.005.3907-.117.4515.014.2269-.021.2106-.049.2293-.028.4.133.6785.124.248.152.3298.323.1731.234.0983.222.0023.195-.0818.133-.1685.049-.1965.026-.1684.103.014.208.1614.274.6715.395.3836.178.3767.131.2035.019.1778-.078.1123-.161.2386-.566-.0187-.201-.0655-.174-.0257-.17.0819-.138.407-.089.4679.011.1919-.06.1708-.071.3696-.06.1287-.124.1169-.166.1451-.16.7978-.147.2409-.009.2129-.042.1895-.082.1404-.141.2433-.065.3392-.005.9592.253.2808.213.2245.089.2387.009.2339-.059.2831-.037.1684.103.0913.192.0655.238.0866.213.1169.216.1802.032.2246-.002.2175-.07.1965-.089.344-.246.2199-.049.1286.07.1287.138.11.019.0538-.147.0397-.206.0679-.201.2877-.197.0913-.093.0538-.078.0491-.215.7627-1.502-.0164-.571-.131-.152-.1497-.098-.2059-.012-.1778.033-.1521-.005-.0842-.128-.014-.178.0561-.197.2574-.554.0538-.229v-.035l.0398-.293.3181-.877.358-.597.1193-.269.2924-.931.0445-.25.0701-.237.1428-.166.5193-.147.1568-.145.014-.262-.1076-.171-.1778-.122-.1825-.053-.0982-.136.028-.409-.0655-.171-.0304-.187.1029-.232.475-.807.1006-.332.0795-.52v-.259l-.0257-.241-.0749-.213-.11-.173-.1286-.155-.0655-.133.0842-.171.9405-.538.3252-.253.1731-.196.1848-.255.2316-.473.11-.325.0959-.575.4889-1.846.6387-1.692 1.8014-2.838 5.4487-5.649.2012-.279.1006-.189.2363-.34 1.1786-1.174.27-.339.149-.274.014-.145-.011-.222-.11-.449-.188-.386-.226-.347-.1362-.159-.1473-.138-.9826-.76-.2948-.29-.2573-.328-.2129-.36-.0796-.204-.0468-.229-.014-.248.0234-.25.1146-.459.1638-.416.2714-.267.4281-.304 1.02-.487.9192-.341 3.032-.426.215-.072.269-.169.347-.297 7.552-10.584.472-.409.639-.134 5.615-.105.397-.119.461-.513.134-.21.287-.295.316-.187.47-.206 2.09-.702.503-.304.517-.428.266-.269.831-1.051.292-.287.323-.253.756-.269 2.414-.433-1.869-3.327-.819-1.05-.234-.145-.227-.105-5.926-2.183-4.384-.777-1.284-.402-.365-.187-.265-.183-.271-.302-.431-.72-.751-1.827-.963-1.572-.733-.761-1.017-.858-.489-.281-.337-.061-.162.119-.191.099-.859.294-.372.206-.622.559-.237.036-.306-.05-.262-.217-.164.035-.11.119-.199.396-.142.175-.171.14-.25.08-.176-.066-.124-.152-.063-.161-.22-.087-.311-.035-.578-.147-.374-.161-.443-.262-.269-.04-.276.028-.369-.01-.286.038-.206.1-.292.248-.206.029-.479-.029-.5572.061-.3978.005-.2152-.094-.1871-.163-.3229-.414-.2082-.068-.2152.009-.5124.105-.3275.003-.2082-.11-.372-.386-.2106-.087-1.2025-.171-.3719-.002-.2667.084-.1264.15-.2316.351-.131.152-.5264.353-.2994.283-.1264.159-.1006.195-.1567.437-.117.171-.1684.121-.7814.199-.4749.033-.6317.136-.3883.019-.2668.051-.2292.068-.4562.065-.2153.068-.1941.084-.234.08-.2386.049-.8118-.005z" stroke="#fff" stroke-width=".5"/><path d="m78.2687 7.20889-.524-.20587-5.3107-.16611-.7299.23161-.3018.75098-.4913.2784-6.5295.0655-9.1942.09124-9.4539.09358-10.1627.1006-8.2023.08422-3.942.03977-.9218.00936-.0163-.45386-3.6239-.06784.0585.24798-.1147.30414.2504.81882.4609.75799.2526.8188-.2363.9803-.5661.627-.6691.5146-.5662.6551-.3088.8913-.4655 1.9839-.7066 1.1581-.152.9755-.2293.4071-.4492.4469-.1287.255.1006.4328.0421.1918h.0843l.1801.0351.1942.0936.1216.1895v.276l-.0935.1895-.117.1638-.2574.6995-.5638 1.0224-.1193.4234.1778.8165 1.261 2.2482.1006.4211.0702.9101.1123.4188.1942.2503.5684.5685.124.2012.1287.8352.3275.5404 1.4763 1.3054.517.2667.6831.1147 1.0271.0257.1637.1848-.1825.4001-.3836.4024-.4609.1825-.5451.0421-.4071.1474-.3228.262-.2995.3954-.2878.6246-.2105.8726v.8961l.3416.6948.3673.1614.4304.0491.358.0889.1497.2855.1029.4866.2714.1006.3673-.0117.4047.1544.4188.2597.2737.1286.1427.227.0234.5497-.138.5662-.3135.3767-.8492.6714-.5498.8796-.0211.8493.4399 1.9277v1.3709 2.2857l.2058.8656.9546 1.4388.2713.7674-.0491 1.0925-.3907 1.9371.1825 1.0762.999 1.6189.1193.4164-.2667.4352-1.4529 1.6306-.7041 1.4247-.1568.8937.2878.8844.3439.3836.2292.0398.234-.0257.3673.1848.2129.3439.0515.3907.1356.3907.3206.248 4.7538-.6551.2994-.117.3486-.2362.3486-.4001.1989-.2784.2409-.4117.1287-.1732.2012-.1474.2714-.1333.7627-.1778.2901-.117.2199-.1708.2129-.3509.262-.7907.1006-.1989.2316-.3392.1567-.1427.2527-.1521.3392-.1544.6457-.1848.6294-.1147 2.0915-.0304.5029-.0748 3.893-1.2119.2386-.0257 3.7315.2784.2573-.0281 1.3546-.4.4983-.0726.5661-.0117 1.109.0843.4936.1122 1.02.1404 1.5909-.0561 5.4697-1.2212 2.7255.1754.5311-.0468.6737-.1286h.1615l2.3441.2994 1.02-.0281.2574-.1427.248-.2409.3486-.606.2713-.3439.3814-.2784.9802-.2947.2012-.0983.1521-.1755.138-.276.0842-.4679.1591-.4679.0608-.3533.0141-.2924-.0421-.2503-.0679-.2223-.3486-.524-.0631-.1966-.0141-.2199.0164-.2175-.0585-.7253.0304-.248.1708-.4538v-.0047l.0889-.1942.1287-.1825.1918-.1661.3416-.1637.269-.0726.5615-.3251.234-.0117.2503.0187.2386.0491.2527-.007.2246-.0936.1474-.1778.0421-.3345-.124-.1708-.2012-.1193-.7065-.1755-.11-.1053.0468-.131.262-.0983.5264-.0912.2059-.0608.2058-.0398.2083.0398.4117.1567.255.0351.248.0047.2012-.0117.1825-.0538.5357-.2784.4445-.1638.1685-.1497.1076-.248-.1731-.3088-.3182-.3439-3.2028-2.8589-.2643-.3111.0117-.2784.1216-.2901.6808-1.2423.0936-.2924.0444-.255.1077-1.6564.1076-.503.0819-.2292.2339-.4539.4047-.5661.5217-.5335 1.6845-1.2516.5919-.5895.2596-.3439.8352-1.5862.5639-.7323.1497-.1263.1965-.1123.3135-.0889.2878-.0351.2877-.0047.5615.0585.903.3603 1.5184.7954 1.3522.4352.2924-.2714.0491-.241.0656-.7018-.1006-.8633-.22-.7533-.1824-.3603-.1965-.2363-.3978-.1825-.2316-.0257-.2082.0421-.1801.1076-.4001.4726-.138.1193-.117.0538h-.0982l-.0983-.0702-.4281-.3906-.358-.2036-.3252-.248-.1427-.152-.1006-.1895-.138-.4492-.0351-.2457.0796-.4.021-.2737-.1099-.2878-.1545-.1497-.5872-.3018-.2292-.0562-.4983-.0608-.2012-.0819-.1334-.1286-.1755-.234-.1216-.124-.1521-.117-.2059-.0865-.159-.1334-.1006-.1918-.0796-.2152-.0936-.1989-.138-.1567-.1988-.0913-.2597-.0304-.2504-.0094-.2503-.0444-.1661-.1193-.124-.1731-.1591-.4235-.1006-.1918-.0842-.2082-.0631-.227-.241-1.5089-.0749-.22-.1825-.386-.0421-.2924-.014-.393.2129-1.2096.124-.4187.1544-.3486.3907-.4539.2784-.2199.2526-.145.4048-.1848.2316-.1732.5966-.7112.5825-.5264.0632-.1778.0374-.2526.0187-.5451.0772-.3743.3088-.4212.6317-.4608.145-.1521.1895-.1076.2223-.0749.1965-.1731.1521-.2854.0187-1.7874-.0608-.2433-.0211-.2433.0561-.2363.1662-.3135.0912-.3509.0164-.5755-.0749-.6621.2199-.83987z" stroke="#fff" stroke-width=".5"/><path d="m125.407 1-.117.69249.166.40005.094.38602-.33.63634-.531.5217-2.108 1.54875-.756-.90773-.795-.6457h-.812l-.807 1.02938-.194.6223-.094.97089-.229.45386-.496.40707-1.107.52639-.393.49129v.00468l-.105.10996-.126.09358-.136.07486-.147.04679-1.638-.05615-.873.09358-.603.22693-.389.71355-.306 1.05042-.426.9662-.737.4586-2.016-1.95352.126-.29945.313-.33923.18-.34156-.248-.29946-.39-.03743-.295.10996-.187-.03978-.056-.48427-.295-.00468-4.787-.0889v-.00936l-.217-.30647-.237-.09592-.248.10528-.24.29711-.899.14973-.94 1.04107-.733.10294.281-.58487-.44.01637-.2149-.13569-.2924-.58019-.3182-.22225-.3556-.07253-5.7926-.46087-1.1931.18481-.3697.65038-5.0649-.04679-5.3458-.05381-1.0527-.19417-1.3944-.54744-.4211-.16611-.8282 1.85054-.2199.83988.0749.66208-.0164.5755-.0912.3509-.1661.3135-.0562.2363.0211.2433.0608.2433-.0187 1.7874-.1521.2854-.1965.1731-.2223.0749-.1895.1076-.145.1521-.6317.4609-.3088.4211-.0772.3743-.0187.5451-.0374.2526-.0632.1779-.5825.5263-.5966.7112-.2316.1732-.4047.1848-.2527.145-.2784.2199-.3907.4539-.1544.3486-.124.4188-.2129 1.2095.014.393.0422.2924.1824.3861.0749.2199.241 1.5089.0631.227.0843.2082.1006.1918.159.4235.124.1731.1661.1193.2504.0445.2503.0093.2597.0304.1988.0913.1381.1567.0935.1989.0796.2152.1006.1918.1591.1334.2058.0866.1521.1169.1217.124.1754.234.1334.1286.2012.0819.4983.0608.2292.0562.5873.3018.1544.1497.1099.2878-.021.2737-.0796.4.0351.2457.138.4492.1006.1895.1428.152.3251.248.358.2036.4281.3907.0983.0701h.0982l.117-.0538.138-.1193.4001-.4726.1801-.1076.2082-.0421.2316.0257.3978.1825.1965.2363.1825.3603.2199.7533.1006.8633-.0655.7018-.0492.241-.2924.2714.0702.3813.138.4001.1123.1825.1427.1473.1778.117.1942.1053.1661.1263.1404.1544.1591.4211.1029.1872.1591.1333.2222.0632.241.0304.2246.0632.1895.1006.1708.1287.7486.4164.2106.0819.2573.0397.6714-.0257.2808.0304.1965.1147.0982.1895.0796.2128.1895.117.262.0117.5662-.3228.2714-.2363.1824-.255.0632-.2363.0374-.2574.007-.276-.0491-.5241-.3065-1.4364-.014-.2503.0117-.2363.0538-.2246.0866-.2059.2316-.3509.2994-.2878 1.4529-.7135.3205-.2737.1965-.2667.1801-.7112.1872-.4094.1193-.1708.145-.1568.1521-.138.3533-.2269 4.4052-1.6424.4866-.1169.3135-.0211.4539.0585.5638.1591.5381.0608.2433.0538.1942.103.1754.1216.2667.0936.3767.0398.6364-.0188.2573.1077.0561.1567-.0912.1614-.2082.2316-.0094.0071-.0093.0117-.5007.5006-.0982.1591.0023.1778.1661.0866.2761-.0398.4421-.2246.4588-.3509.126-.1474.201-.1685.005-.0046 1.661-1.5113.117-.1778.094-.2059.152-.4375.114-.1684.192-.22.091-.1333.066-.1848.042-.4679.058-.227.185-.1707.279-.1474.461-.1848.262-.1685.194-.1895.091-.2129.096-.7954.077-.2246.267-.1404.426-.0702 2.522.0585.36.1076.25.1428.108.1895.061.2082-.021.2246-.089.1824-.138.1404-.092.1591-.037.1918.037.2153.101.1754.157.1404.173.1193.159.1357.117.1778.07.2199.045.2433-.007.262-.04.2434-.068.2316-.087.2082-.128.1684-.435.4469-.085.1941-.018.2153.079.1895.152.0889.18-.0258.365-.2854.227.0562.164.131.206.0982.248-.014.381-.2597.204-.2129.269-.4071.199-.138.273-.0959 1.371-.0117.627.2199.244-.021.257-.0983.529-.4234.259-.1428.279-.0772.463.0047.264.0913.202.1333.182.0889.246-.0234.25-.1123.285-.2831.148-.2175.089-.2129.255-1.3101.084-.2153.1-.1941.127-.1708.171-.124.208-.0492.283.0866.178.1451.306.3111.187.1006.239.0538.76.0655.283-.0093 1.027-.2784 1.94-.868.348-.0444.319-.2106.547-.1825 4.293-.917 2.033-.1662 2.66-1.3756.809-.1988.019-.0047.145-.6036.222-1.7897.321-.744.592-.758.858-.5848.363-.3486.077-.4539-.215-.8398-.033-.4165.91-4.29762.204-.40239.337-.3556.369-.23629.293-.29244.1-.53808.12-1.51599-.134-1.32415-.634-1.00364-1.403-.53808-.791.01403-1.427.379-.77.07954-.772-.19885-.854-.47726-.697-.64804-.313-.70652z" stroke="#fff" stroke-width=".5"/><path d="m145.641 33.8817-.121-.1497-2.141-4.0122-.667-.7112-2.222-1.406-.346-.4188-.492-.9499-.332-.4-.381-.2363-1.315-.4375-.379-.2597-.262-.2573-.3-.2012-.97-.124-.501-.131-.461-.2223-.37-.3088-.43-.8843.028-.8913.257-1.0809-.018.0047-.81.1989-2.66 1.3756-2.033.1661-4.293.9171-.547.1824-.318.2106-.349.0444-1.939.868-1.027.2784-.284.0093-.76-.0655-.239-.0538-.187-.1006-.306-.3111-.178-.1451-.283-.0865-.208.0491-.171.124-.126.1708-.101.1942-.084.2152-.255 1.3101-.089.2129-.147.2176-.286.283-.25.1123-.246.0234-.182-.0889-.202-.1333-.264-.0913-.463-.0046-.279.0772-.259.1427-.529.4234-.257.0983-.244.021-.627-.2199-1.371.0117-.273.0959-.199.1381-.269.407-.204.2129-.381.2597-.248.0141-.206-.0983-.164-.131-.227-.0562-.365.2855-.18.0257-.152-.0889-.079-.1895.018-.2152.085-.1942.435-.4469.128-.1684.087-.2082.068-.2316.04-.2433.007-.2621-.045-.2433-.07-.2199-.117-.1778-.159-.1357-.173-.1193-.157-.1403-.1-.1755-.038-.2152.038-.1919.091-.1591.138-.1403.089-.1825.021-.2246-.061-.2082-.108-.1895-.25-.1427-.36-.1076-2.522-.0585-.426.0702-.267.1403-.077.2246-.096.7954-.091.2129-.194.1895-.262.1685-.461.1848-.279.1474-.184.1708-.059.2269-.042.4679-.066.1848-.091.1334-.192.2199-.114.1684-.152.4375-.094.2059-.117.1778-1.661 1.5113-.005.0047-.201.1684-.126.1474-.4586.3509-.4422.2246-.2761.0398-.1661-.0866-.0023-.1778.0983-.1591.5006-.5006.0094-.0117.0093-.007.2082-.2316.0913-.1615-.0562-.1567-.2573-.1076-.6363.0187-.3767-.0398-.2667-.0936-.1755-.1216-.1941-.103-.2434-.0538-.538-.0608-.5639-.1591-.4538-.0585-.3135.0211-.4866.117-4.4053 1.6423-.3532.2269-.1521.1381-.1451.1567-.1193.1708-.1871.4094-.1802.7112-.1965.2667-.3205.2737-1.4528.7136-.2995.2877-.2316.3509-.0865.2059-.0539.2246-.0116.2363.014.2503.3065 1.4365.0491.524-.007.2761-.0375.2573-.0631.2363-.1825.255-.2714.2363-.5661.3228-.2621-.0117-.1895-.1169-.0795-.2129-.0983-.1895-.1965-.1147-.2807-.0304-.6715.0258-.2573-.0398-.2106-.0819-.7486-.4164-.1708-.1287-.1895-.1006-.2246-.0632-.2409-.0304-.2223-.0631-.1591-.1334-.1029-.1871-.1591-.4211-.1404-.1545-.1661-.1263-.1941-.1053-.1778-.1169-.1427-.1474-.1123-.1825-.1381-.4001-.0702-.3813-1.3522-.4351-1.5183-.7955-.9031-.3602-.5614-.0585-.2878.0046-.2877.0351-.3135.0889-.1966.1123-.1497.1264-.5638.7322-.8352 1.5862-.2597.3439-.5919.5896-1.6844 1.2516-.5217.5334-.4047.5661-.234.4539-.0819.2293-.1076.503-.1076 1.6563-.0444.255-.0936.2925-.6808 1.2422-.1217.2901-.0117.2784.2644.3112 3.2028 2.8588.3181.3439.1731.3088-.1076.248-.1684.1498-.4445.1637-.5358.2784-.1824.0538-.2012.0117-.248-.0046-.255-.0351-.4118-.1568-.2082-.0398-.2059.0398-.2058.0608-.5264.0913-.2621.0982-.0467.131.1099.1053.7065.1755.2012.1193.124.1708-.0421.3345-.1474.1778-.2246.0936-.2526.007-.2387-.0491-.2503-.0187-.2339.0117-.5615.3252-.269.0725-.3416.1638-.1919.1661-.1286.1824-.0889.1942v.0047l-.1708.4539-.0304.248.0585.7252-.0164.2176.014.2199.0632.1965.3486.524.0678.2223.0421.2503-.014.2924-.0608.3533-.1591.4679-.0842.4679-.1381.2761-.152.1754-.2012.0983-.9803.2948-.3813.2784-.2714.3439-.3486.6059-.248.241-.2573.1427-1.02.028-2.3442-.2994h-.1614l-.6738.1287-.5311.0468-2.7255-.1755-5.4697 1.2212-1.5908.0561-1.0201-.1403-.4936-.1123-1.1089-.0842-.5662.0117-.4983.0725-1.3545.4-.2574.0281-3.7315-.2784-.2386.0257-3.8929 1.2119-.503.0749-2.0915.0304-.6293.1146-.6457.1848-.3392.1544-.2527.1521-.1567.1427-.2317.3392-.1006.1989-.262.7907-.2129.351-.2199.1707-.2901.117-.7627.1778-.2713.1334-.2012.1474-.1287.1731-.241.4117-.1988.2784-.3486.4001-.3486.2363-.2994.1169-4.7539.6551.1357.1076-.5381.4656-.3603.6246-.2082.6972-.0655.6855.0749.6925.2176.4398 1.5042 1.3779 1.516 1.9231.5685.7252.0445.606-.1708 1.3615.0538.3299.2082.7136v1.151l-.2129.7229-.5006.3182-.5732.269-.4328.5662-.0679.8047.3299.6551.5942.4398.7346.1638.6598.3649-.0562.8095-.503.8095-1.3311.7018-.4913.7721-.7323 1.5066-.8937.9241-.1778.3532-.0795 2.129-.1731.6691-.3954.6012.4094.234.2691.2807.3322.2316.5802.0983 1.0785.0514 1.0597.241 1.0622.5662.2714.6854.0444.868.6551 1.9956.2503.1918.2831.0421.2339.1006.0959.3673.0515.7299.8563 2.9665-.0468.583-.4445.248-.3112.28-.1076.543.2035.335.0094.014.379-.178.2526-.134.1217.183.1263.068.3252.065.889.478 1.6915 1.845.0351-.053.1731-.028.2199.014.1731.067.5732.581 1.2212 2.318 1.5768 1.224.358.968.2292.461 1.0037.615.2293.361.1006.432.7579 1.481-.2503.798.3392.693.5101.631.262.632.1801.271.7884.258.1802.355.0655.386.5076.934.3931 1.509.3322 2.664.3977.566.5568.41.641.36.5942.562 1.1838 1.481 1.2867.673 1.0856 1.83.7275.697 1.5207.374 1.8272-.032 4.0052-.824.1754-.117.2691-.271.6901-1.161.358-.341.5193-.763.6902-.791.8726-.423 1.0177.105 1.6751.828.9053.201.7908-.229.4211-.575.145-.751-.028-.765-.7019-1.586-1.3078-.307-1.6095.133-1.5956-.269-.4538-.381-.3533-.592-.2316-.725-.0819-.779-.1029-.328-.1848-.346-.0796-.374.2106-.403.5849-.699.2269-.414.1801-.494.117-.798-.117-2.552.0562-.91.1871-.889.3556-.828.5475-.721 1.7125-.744 3.1302 1.004 1.2329-.552.5381-.138.2971-.253.1287-.159.1053-.204.138-.437.0983-.197.1169-.168.2199-.164.2925-.135.5217-.15.3299-.003 2.4915.492.4258.018 1.0294-.105.4796-.107.8048-.351.3649-.209.1685-.128.1356-.155.096-.203.2409-1.247.0632-.22.0912-.206.11-.185.1357-.161.1521-.143.6831-.444 1.027-.145 2.2576-.087.5194.03.4796.127.3883.187.1662.129.2924.29.1614.131.3813.416.6177.517 2.0938 1.413.3556.187.7253.234.8983.183.641.056h.8914l.3556.103.2222.161.227.646.2035.938.6153 1.42.1661.681.0211.204v.231l-.0375.239-.1521.43-.4374.821-.248.3-2.1523 1.949-.248.33-.2012.393-.0655.222-.0445.248-.0281 1.394-.0374.253-.0725.229-.0959.19-.131.175-.1264.145-.3018.281-.1661.124-.2924.29-.2644.339-.1123.178-.0935.199-.0562.217.2199.302.4305.403 1.151.758.5732.751.4421.76 4.4755 12.57.2363.386.3018.173.4328.119.2831.159.3158.227.2059.043.138-.108.2129-.363.2526-.337.3603-.708.0772-.094.131-.101.1708-.11.2036-.098.1824-.152.1287-.203.0655-.248.0375-.269-.0141-1.025-.0444-.227-.0585-.215-.1614-.377-.4469-.718-.1755-.377-.0818-.465v-.274l.0327-.267.0491-.241.0796-.22.0983-.187.1263-.189.1567-.138.1872-.113.3837-.154 1.3428-.325.1989-.087.3369-.236.6199-.573.2691-.321.2035-.377.6668-1.771.1052-.177.1194-.164.124-.136.3537-.285.381-.222.402-.185.611-.194.194-.092.18-.105.304-.274.279-.299.526-.7.274-.299.14-.105.127-.073.133-.049.187-.033.239-.023.524.03.809.134.534.032.423-.025.938-.181.948-.063.271.047.232.073.196.093.323.255.69.732.484.663.143.147.129.166.14.154.124.167 4.352 3.535 2.334 1.366.777.271 1.717.265.756-.045.447-.15.889-.896.837-1.839.279-.276.248-.126.465.098h.318l.386-.044 1.465-.491.274.007.222.072 1.004.468.217.068.321.047.407-.01.711-.142.335-.22.264-.276.18-.309.241-.134.332-.105.127-.185.088-.229.452-.749.04-.233-.003-.248-.039-.234.072-.295.199-.314.625-.573.43-.304.33-.192 1.869-.655.866-.019 1.027.188.894.29.671.292 1.474.95.601.582.384.475.915.894.507.374.468.047.737-.007 1.689-.194.683-.185.393-.241.059-.243-.005-.227-.033-.187-.098-.178-.276-1.729.021-.255.124-.276.215-.133.267-.049 1.303-.057.267-.117.166-.168.04-.232.018-.255-.058-.489-.087-.215-.449-.695-.145-.152-.182-.114-.209-.089-.226-.063-.267-.019-1.266.154-.919.234-.983.141-.21.007-.478-.059-.456-.131-.194-.084-.164-.124-.098-.143-.026-.213.087-.468v-.257l-.087-.465-.157-.436-.025-.252.091-.347.171-.18.259-.133.3-.073.43-.145.202-.175.112-.213-.028-.225-.103-.184-.157-.145-.795-.382-.162-.126-.117-.169-.058-.219v-.232l.026-.243.058-.232.456-1.324.311-.651.45-.694.236-.187.243-.08.208.058.377.211.234.073h.274l.365-.138.149-.209.054-.252-.054-.227-.096-.192-.145-.152-.461-.414-.236-.351-.091-.185-.07-.225-.047-.236.073-.318.168-.351.842-1.09.344-.672.274-.734.192-.337.007-.243-.073-.211-.126-.18-.164-.18.028-.232.077-.281.145-.159.15-.112 1.029-.428.431-.098.227-.01.236.042.208.075.978.564.223.077.259.04h.262l.253-.023 1.338-.272.26-.016 1.637.227h.017.014l-.091-.543.285-.402.529-.101.498.194.449.955.44-.489.281-.711-.225-.169.442-.147.389.054.425.131.546.088.463-.222.147-.561.061-.665.213-.528.005-.007.924-1.3339-.527-2.0798-2.026-3.4555v-.0046h-.009l-.564-1.3195.433-1.3031.711-1.3195.222-1.3733-.004-.6644.264-.4094.952-.8539.508-.8679-.012-.6785-.521-1.523.039-.8399.342-.4071.472-.2784.426-.4398.176-.5357.068-1.2493.39-2.157-.259-.999-.761-.6691-1.249-.4281-.03-.0444-.01-.0422.01-.0397.276-.4773.095-.4375-.072-.4187-.269-.379-2.232-.8165-.788-.131-1.689.0959-.946.1684-.638.2808-.209.3369-.128.8609-.164.3626-.32.2714-1.921.6738-.782.1567-.779-.0842-.191-.5708.343-.4867-.294-.6808.002-.6059 1.752-.3556.655-.2573.538-.372.16-.4422-.37-.4609-.592-.0304-1.072.2012-.437-.1871-.416-.2948-.307-.269-.105-.124-.014-.2714.196-1.2002.103-.2714 2.115.2363 1.011-.0585.751-.4936.575.3813.775.1311.68-.1942.293-.5849-.36-.8843-.833-.1614-1.703.4374-1.311-.1403-.669-.8937-.03-1.247.601-1.2095 1.119 1.1815.706.393.753-.0936.438-.5264.117-.7439-.094-.7767-.196-.627-.281-.4235-.299-.3322-.22-.4608-.061-.7931.9-3.3127.012-.4843-.189-1.7102.086-.5942.339-.6481.539-.5848.292-.262.026-.351-.286-.8422-.503-1.0107-.068-.2854.082-.3953.143-.2644.023-.2714-.248-.4188.735-.1427.65.11.468-.124.028-.131.15-.7065-.124-.8633-.339-.2831-.463-.1123-.534-.3439-.411-1.1042.222-3.0226-.07-1.4365.304-.5732.119-.6995.201-.655 1.032-.7721-.859-.7135-.402-.1942-1.844.3088-.584.0071.367-.8657-.44-.6808-.716-.6503-.472-.7744.058-.365.14-.4515-.018-.4726-.414-.4187-.431-.0983-.381.1217-.393.1941-.477.124-.403-.0561-1.116-.4422-.11.124-.114.2808-.178.2503z" stroke="#fff" stroke-width=".5"/><path d="m73.08 325.72h.8v3.28h-7.84v-3.28h1.2l-.32-1.6h-2.72l-.32 1.6h1.2v3.28h-6.84v-3.28h.8l3.38-12.28h7.28zm-8.44-3.72h1.84l-.82-3.98h-.2zm17.0278 7.28c-2.52 0-4.4667-.64-5.84-1.92-1.36-1.28-2.04-3.327-2.04-6.14 0-5.373 2.6133-8.06 7.84-8.06 1.2667 0 2.44.153 3.52.46 1.0933.307 1.9067.647 2.44 1.02v5h-4.8v-1.44c0-.507-.1133-.88-.34-1.12s-.5667-.36-1.02-.36-.7933.12-1.02.36-.34.613-.34 1.12v6.04c0 .507.1133.88.34 1.12s.5667.36 1.02.36.7933-.12 1.02-.36.34-.613.34-1.12v-1.62h4.8v5.18c-.5467.373-1.36.713-2.44 1.02-1.0667.307-2.2267.46-3.48.46zm14.4336 0c-2.52 0-4.4667-.64-5.84-1.92-1.36-1.28-2.04-3.327-2.04-6.14 0-5.373 2.6133-8.06 7.84-8.06 1.2667 0 2.44.153 3.52.46 1.0936.307 1.9066.647 2.4396 1.02v5h-4.7996v-1.44c0-.507-.1133-.88-.34-1.12s-.5667-.36-1.02-.36-.7933.12-1.02.36-.34.613-.34 1.12v6.04c0 .507.1133.88.34 1.12s.5667.36 1.02.36.7933-.12 1.02-.36.34-.613.34-1.12v-1.62h4.7996v5.18c-.546.373-1.36.713-2.4396 1.02-1.0667.307-2.2267.46-3.48.46zm6.6736-3.56h1v-9h-1v-3.28h9.18c1.72 0 3.033.353 3.94 1.06s1.36 1.853 1.36 3.44c0 .893-.18 1.667-.54 2.32s-.873 1.107-1.54 1.36l.02.2c1.28.2 1.92.987 1.92 2.36v1.54h.94v3.28h-6.34v-4.7c0-.52-.08-.913-.24-1.18-.147-.267-.387-.447-.72-.54-.32-.093-.78-.14-1.38-.14v3.28h1.32v3.28h-7.92zm7.68-5.72c.387 0 .673-.1.86-.3.2-.213.3-.54.3-.98v-.72c0-.44-.1-.76-.3-.96-.187-.213-.473-.32-.86-.32h-1.08v3.28zm22.996 5.72h.8v3.28h-7.84v-3.28h1.2l-.32-1.6h-2.72l-.32 1.6h1.2v3.28h-6.84v-3.28h.8l3.38-12.28h7.28zm-8.44-3.72h1.84l-.82-3.98h-.2z"/></g></svg>