<svg width="189" height="330" viewBox="0 0 189 330" fill="none" xmlns="http://www.w3.org/2000/svg">
<path d="M73.48 300H72.48V304C71.8933 304.333 71.0333 304.633 69.9 304.9C68.78 305.153 67.5667 305.28 66.26 305.28C63.7667 305.28 61.8133 304.627 60.4 303.32C58.9867 302 58.28 299.967 58.28 297.22C58.28 294.407 58.98 292.36 60.38 291.08C61.7933 289.8 63.8067 289.16 66.42 289.16C67.6867 289.16 68.8733 289.293 69.98 289.56C71.0867 289.827 71.92 290.127 72.48 290.46V295.24H67.48V294.3C67.48 293.74 67.36 293.34 67.12 293.1C66.8933 292.847 66.5267 292.72 66.02 292.72C65.5133 292.72 65.14 292.847 64.9 293.1C64.6733 293.34 64.56 293.74 64.56 294.3V300.14C64.56 300.7 64.6733 301.107 64.9 301.36C65.14 301.6 65.5133 301.72 66.02 301.72C66.5267 301.72 66.8933 301.6 67.12 301.36C67.36 301.107 67.48 300.7 67.48 300.14V300H66.4V297.02H73.48V300ZM90.0445 292.72H89.0445V301.72H90.0445V305H82.4845V301.72H83.4445V298.42H80.6445V301.72H81.6045V305H74.0445V301.72H75.0445V292.72H74.0445V289.44H81.6045V292.72H80.6445V295.76H83.4445V292.72H82.4845V289.44H90.0445V292.72ZM105.521 301.72H106.321V305H98.4814V301.72H99.6814L99.3614 300.12H96.6414L96.3214 301.72H97.5214V305H90.6814V301.72H91.4814L94.8614 289.44H102.141L105.521 301.72ZM97.0814 298H98.9214L98.1014 294.02H97.9014L97.0814 298ZM118.475 289.44H125.035V292.72H124.035V305H118.415L112.555 295.98V301.72H113.515V305H106.955V301.72H107.955V292.72H106.955V289.44H114.175L119.435 297.46V292.72H118.475V289.44ZM140.482 301.72H141.282V305H133.442V301.72H134.642L134.322 300.12H131.602L131.282 301.72H132.482V305H125.642V301.72H126.442L129.822 289.44H137.102L140.482 301.72ZM132.042 298H133.882L133.062 294.02H132.862L132.042 298Z" fill="#E55933"/>
<path d="M149.768 103.54L149.508 103.5L149.286 103.423L148.308 102.859L148.1 102.784L147.864 102.742L147.637 102.752L147.206 102.85L146.177 103.278L146.027 103.39L145.882 103.549L145.805 103.83L145.777 104.062L145.941 104.242L146.067 104.422L146.14 104.632L146.133 104.876L145.941 105.213L145.667 105.947L145.323 106.619L144.481 107.709L144.312 108.06L144.24 108.378L144.287 108.614L144.357 108.839L144.448 109.024L144.684 109.375L145.145 109.789L145.29 109.941L145.386 110.133L145.44 110.36L145.386 110.612L145.237 110.82L144.872 110.958H144.598L144.364 110.886L143.987 110.675L143.779 110.617L143.536 110.696L143.299 110.884L142.85 111.578L142.539 112.229L142.083 113.553L142.024 113.785L141.999 114.028V114.259L142.057 114.479L142.174 114.648L142.336 114.774L143.131 115.156L143.288 115.301L143.391 115.485L143.419 115.71L143.306 115.923L143.105 116.098L142.675 116.243L142.375 116.316L142.116 116.449L141.945 116.629L141.854 116.976L141.879 117.228L142.036 117.663L142.123 118.129V118.386L142.036 118.854L142.062 119.067L142.16 119.21L142.324 119.334L142.518 119.418L142.974 119.549L143.452 119.608L143.662 119.601L144.645 119.46L145.564 119.226L146.83 119.072L147.096 119.091L147.323 119.154L147.532 119.243L147.714 119.357L147.859 119.509L148.308 120.204L148.395 120.419L148.453 120.908L148.435 121.163L148.395 121.395L148.229 121.563L147.962 121.68L146.659 121.736L146.392 121.786L146.177 121.919L146.053 122.195L146.032 122.45L146.308 124.179L146.406 124.357L146.439 124.544L146.444 124.771L146.385 125.014L145.992 125.255L145.309 125.44L143.62 125.634L142.883 125.641L142.415 125.594L141.907 125.22L140.993 124.326L140.609 123.851L140.008 123.269L138.534 122.319L137.862 122.027L136.969 121.736L135.942 121.549L135.076 121.568L133.207 122.223L132.877 122.415L132.447 122.719L131.822 123.292L131.623 123.606L131.551 123.901L131.59 124.134L131.593 124.382L131.553 124.616L131.101 125.365L131.012 125.594L130.886 125.779L130.554 125.884L130.313 126.018L130.133 126.327L129.868 126.603L129.534 126.823L128.823 126.965L128.416 126.975L128.095 126.928L127.878 126.86L126.874 126.392L126.652 126.32L126.378 126.313L124.913 126.804L124.527 126.848H124.209L123.744 126.75L123.496 126.876L123.217 127.152L122.38 128.991L121.491 129.887L123.886 130.524L124.715 130.926L130.568 135.645L131.066 136.244L131.558 137.025L133.366 141.281L133.481 141.734L133.661 143.26L133.796 143.688L133.899 143.913L134.929 145.557L135.266 145.913L135.652 146.212L136.068 146.388L136.517 146.495L137.46 146.638L137.771 146.748L138.267 147.061L138.501 147.38L138.658 147.812L138.716 148.351L139.722 151.137L142.492 155.909L142.988 157.135L143.047 157.372L143.178 159.891L143.255 160.244L143.437 160.752L143.606 161.021L143.791 161.213L145.342 161.994L146.49 162.317L146.776 162.462L147.108 162.668L147.637 163.12L147.878 163.407L148.035 163.672L148.224 164.933L148.217 165.492L148.046 166.781L147.337 169.025L147.286 169.521V169.766L147.48 171.095L147.663 173.362L147.56 174.113L147.447 174.291L147.129 175.018L146.862 175.861L146.783 176.338V176.696L146.855 176.909L147.031 177.889L147.129 179.089L147.089 179.758L147.012 180.2L146.907 180.42L146.549 180.926L145.959 181.501L145.798 181.625L145.054 182.325L144.853 182.666L144.626 183.162L144.235 184.266L144.116 184.814L144.09 185.23L144.228 185.684L144.418 186.061L144.546 186.22L144.703 186.353L144.886 186.461L145.524 186.685L145.929 186.877L146.257 187.132L146.53 187.434L146.757 187.797L146.926 188.192L147.167 190.007L147.141 190.487L147.071 190.824L146.94 190.99L146.797 191.123L145.141 192.09L144.97 192.221L144.404 192.805L144.28 192.965L144.137 193.112L144.013 193.28L143.875 193.43L143.753 193.594L143.554 194.081L142.89 196.57L142.759 197.36L142.74 197.892L142.864 198.046L143.08 198.107L144.319 198.018L144.535 198.058L144.743 198.128L144.932 198.238L145.075 198.383L145.178 198.57L145.295 199.017L145.466 199.997L145.531 200.224L145.601 200.421L145.824 200.781L146.119 201.071L146.652 201.408L146.841 201.609L147.024 201.89L147.195 202.484L147.213 202.868L147.181 203.216L145.966 206.913L145.868 207.107L145.641 207.46L145.51 207.617L145.375 207.759L144.703 208.258L143.994 208.674L142.109 209.399L141.921 209.638L142.148 210.085L142.434 210.894L142.523 211.638L142.317 212.172L142.013 212.729L141.868 213.482L141.912 214.193L142.174 214.631L144.156 216.137L144.904 216.366L147.787 216.294L148.519 216.395L149.055 216.71L149.946 217.452L151.406 218.313L151.577 218.612L151.64 218.954L151.53 222.823L151.855 222.185L151.986 222.002L152.278 221.686L153.067 221.104L153.806 220.699L154.215 220.566L154.639 220.482L154.927 220.465L154.959 220.458L158.375 220.617L161.655 221.357L162.235 221.642L162.582 221.906L163.005 222.356L164.484 226.403L164.956 226.99L165.424 227.343L166.011 227.713L166.917 228.064L167.518 228.363L167.862 228.602L168.026 228.733L168.168 228.89L168.292 229.096L168.365 229.388L168.248 229.629L168.117 229.786L167.277 230.036L166.388 230.644L166.386 230.647L168.482 230.799L176.504 229.884L178.205 229.294L179.538 228.041L179.903 227.254L180.338 225.282L180.399 224.41L180.593 223.584L181.63 221.518L182.119 220.779L184.252 218.481L185.693 217.358L187.598 216.329L187.867 216.228L187.89 216.221H187.892L188 214.736L187.504 214.067L184.025 213.669L183.447 213.372L182.996 212.848L182.446 211.992L182.123 211.62L181.807 211.449L181.494 211.318L181.159 211.072L180.509 210.139L179.409 206.751L176.204 206.737L175.346 206.506L174.803 206.094L173.434 204.442L172.379 203.771L170.304 202.744L169.417 201.834L168.753 200.811L168.25 199.808L167.988 198.769L168.047 197.899L168.063 197.644L168.327 197.103L168.622 196.708L168.648 196.312L168.11 195.786L167.728 195.706L166.556 195.744L166.161 195.704L165.791 195.033L165.199 194.595L164.65 194.09L164.413 193.206L164.778 191.07L164.736 190.384L164.381 189.701L163.768 189.118L163.033 188.711L162.312 188.559L162.034 188.187L160.82 185.916L160.305 185.52L159.903 185.279L159.767 184.875L160.05 183.983L160.937 182.5L161.035 181.786L160.541 180.89L159.346 179.964L158.864 179.316L159.477 179.126L160.095 179.08L161.866 178.616L162.408 178.315L163.211 176.857L163.241 175.016L163.054 173.109L163.199 171.451L164.21 168.912L164.6 166.947L165.162 165.391L165.213 164.474L164.54 161.697L164.264 161.328L162.717 161.901L161.882 162.051L161.119 161.948L159.793 160.771L159.117 158.906L158.909 156.817L159.068 154.356L159.22 153.834L159.482 153.38L159.907 152.966L160.457 152.718L161.131 152.534L161.7 152.241L161.938 151.67L161.926 150.519L162.057 149.204L162.596 148.341L163.81 148.547L163.693 147.719L163.784 145.501L163.403 143.077L163.438 140.537L163.407 140.331L162.996 137.523L163.028 135.944L163.007 135.13L162.621 133.546L162.465 131.551L162.242 130.51L162.45 130.208L162.783 129.953L163.012 129.403L162.937 128.816L162.647 128.453L162.322 128.137L162.149 127.69L162.195 127.143L162.413 126.977L162.734 126.937L163.084 126.769L164.484 125.505L165.188 125.042L167.043 124.216L167.714 123.795L168.033 123.15L167.866 122.106L167.71 121.961L167.207 121.879L167.043 121.734L167.015 121.533L167.05 121.107L166.947 120.485L166.959 119.998L166.867 119.558L165.258 118.216L164.715 116.608L163.981 115.046L161.227 113.747L160.132 112.954L159.117 112.011L158.401 111.178L156.719 110.027L155.048 107.681L153.815 105.016L153.549 103.456H153.535H153.518L151.881 103.229L151.621 103.245L150.283 103.517L150.03 103.54H149.768Z" fill="#171619" stroke="white" stroke-width="0.5"/>
<path d="M166.385 230.646L166.388 230.644L167.277 230.036L168.117 229.786L168.248 229.629L168.365 229.388L168.292 229.095L168.168 228.89L168.025 228.733L167.862 228.602L167.518 228.363L166.916 228.064L166.011 227.713L165.424 227.343L164.956 226.99L164.483 226.403L163.005 222.355L162.581 221.906L162.235 221.642L161.655 221.356L158.375 220.617L154.959 220.458L154.927 220.465L154.639 220.481L154.215 220.566L153.806 220.699L153.067 221.104L152.278 221.686L151.986 222.002L151.855 222.185L151.53 222.823L149.71 224.896L149.066 225.502L148.512 225.846L148.275 225.925L147.943 225.949L147.681 225.909L147.454 225.82L147.286 225.698L146.848 225.282L146.582 224.978L146.027 224.119L145.896 223.946L145.714 223.768L144.56 223.272L144.378 223.165L144.039 222.919L143.739 222.641L143.496 222.311L142.937 221.139L142.78 220.959L142.513 220.788L141.971 220.736H141.388L140.894 220.835L140.588 220.926L139.072 221.953L138.574 222.196L138.248 222.299L138.103 222.316L137.961 222.257L137.675 221.92L137.467 221.759L137.198 221.614L136.742 221.45L136.496 221.499L136.337 221.653L135.649 224.119L135.483 224.37L135.165 224.629L133.396 225.35L133.172 225.495L133.01 225.691L132.545 226.669L132.093 228.3L131.691 229.123L131.583 229.297L131.457 229.46L131.242 229.673L130.94 229.912L130.35 230.265L129.964 230.37L129.641 230.394L129.199 230.244L128.841 230.027L128.682 229.893L128.537 229.746L128.317 229.589L128.041 229.465L127.557 229.395L127.286 229.46L127.061 229.575L126.263 230.537L126.015 230.726L125.66 230.946L124.941 231.295L124.532 231.433L124.19 231.512L123.14 231.472L122.717 231.409L121.954 231.114L121.755 231.021L121.107 230.785L120.721 230.569L120.576 230.42L120.494 230.23V229.502L120.23 229.339L119.759 229.283L117.946 229.421L117.523 229.498L117.163 229.617L117.06 229.673L116.95 229.755L116.884 229.888L116.837 230.019L116.657 230.946L116.653 231.309L116.671 231.54L116.704 231.725L116.8 232.046L118.36 235.129L118.983 236.069L119.345 236.357L119.762 236.551L119.989 236.622L120.646 236.963L121.226 237.375L121.493 237.651L121.682 237.894L122.347 239.389L122.986 241.64H122.988L123.248 241.511L125.15 241.272L134.166 238.348L134.833 238.287L135.202 238.156L135.448 237.96L135.995 237.41L136.192 237.293L139.533 236.165L140.211 235.473L140.677 234.71L141.264 234.088L142.899 233.618L144.055 232.537L144.698 232.102L147.51 231.339L148.308 230.768L148.661 230.644L149.677 230.6L149.887 230.478L150.1 230.232L150.61 230.029L151.612 229.795L153.418 229.699L166.385 230.646Z" fill="#171619" stroke="white" stroke-width="0.5"/>
<path d="M50.2439 273.765L51.3669 273.721L51.933 273.492L54.8293 273.122L55.4235 272.881L56.0552 272.278L57.0705 270.829L57.742 270.235L60.9634 268.789L63.848 267.966L64.2411 267.933L64.6107 267.861L64.6318 267.662L64.5569 267.381L64.6505 267.072L65.8623 265.732L66.3747 265.341L69.2522 263.916L69.4254 263.759L69.6897 263.458L69.7856 263.123L69.4932 262.489L69.5587 262.148L70.0781 261.733L70.794 261.556L71.5332 261.609L72.1368 261.888L72.1673 261.869L72.1649 261.86L71.8046 259.123L71.821 258.673L71.9871 257.644L72.1251 257.171L72.3076 256.741L73.1311 255.209L73.3931 254.893L73.5522 254.764L73.7254 254.643L73.9078 254.544L74.095 254.469L74.5138 254.348L74.729 254.315L75.3092 254.324L75.5408 254.301L75.763 254.252L75.9479 254.182L76.1233 254.079L76.2941 253.962L76.4438 253.819L76.9609 253.178L78.2172 252.2L78.3505 252.055L78.3692 251.823L78.2406 251.503L77.8078 251.005L77.5317 250.743L75.8332 249.657L74.46 248.412L73.9219 247.785L73.7768 247.542L73.6435 247.226L73.351 246.293L73.2013 245.982L73.0188 245.741L72.6656 245.399L72.4059 245.224L72.1439 245.088L71.7204 244.922L71.3765 244.667L71.2268 244.517L70.553 243.703L70.2816 242.964L70.1553 242.468L70.1366 242.222L70.1553 241.969L70.2419 241.481L70.3729 241.031L70.4711 240.84L70.6045 240.687L70.7893 240.592L70.9835 240.533L71.1636 240.428L71.2876 240.273L71.4982 239.932L71.5496 239.759L71.5286 239.569L71.4818 239.368L71.0817 238.755L70.5483 238.182L69.9868 237.693L69.2312 237.265L68.8311 237.089L68.382 236.944L67.8673 236.858L66.8566 236.839L66.611 236.792L66.3934 236.715L66.1945 236.612L65.7103 236.219L65.5184 236.114L65.3009 236.025L65.0412 235.987L64.7862 235.976L64.3019 236.03L63.8714 236.146L62.4724 236.703L62.2478 236.734L62.0139 236.717L61.8103 236.497L61.6396 236.128L61.4945 235.279L61.4805 234.834L61.5202 234.453L61.7869 233.774L62.0162 232.869L62.07 232.406L62.0373 231.561L62.0653 231.311L62.1379 231.089L62.2431 230.908L62.3741 230.745L62.6643 230.45L62.7812 230.293L62.7976 230.073L62.7064 229.821L62.3975 229.58L61.8595 229.336L61.6934 229.161L61.5928 228.899L61.5553 228.445L61.6091 227.799L61.7799 227.039L61.8057 226.789L61.7121 226.412L61.4968 225.974L60.926 225.184L60.6102 224.828L60.3435 224.596L60.1306 224.512L59.148 224.274L58.9328 224.178L58.7409 224.07L57.9853 223.483L57.8449 223.345L57.7279 223.211L55.8236 220.453L55.0305 219.627L54.8597 219.513L54.6983 219.382L54.0596 219.047L52.7378 218.493L52.5577 218.394L52.4103 218.28L52.2559 218.088L51.802 216.956L51.664 216.698L51.2429 216.247L50.8919 216.015L50.031 215.723L49.8041 215.674L49.4672 215.559L48.7817 215.236L47.5465 214.408L47.385 214.24L47.0669 213.711L46.9499 213.376L46.8844 213.105L46.8306 212.56L46.8563 212.029L46.9335 211.523L46.9967 211.301L47.1979 211.051L47.5254 210.786L48.239 210.4L49.383 209.94L49.9 209.572L50.5855 208.938L50.8849 208.519L51.0978 207.89L50.1222 207.932L49.7994 207.885L49.5397 207.771L49.28 207.476L49.1514 207.228L49.0578 206.987L48.873 206.309L48.7887 206.103L48.4565 205.579L48.3068 205.436L48.1337 205.314L47.9301 205.223L44.849 204.507L44.47 204.32L44.3624 204.131L44.311 203.913L44.2993 203.656L44.3577 203.134L45.1602 200.748V200.518L45.1391 200.299L45.1087 200.158L45.0549 199.99L44.9356 199.84L44.7344 199.711L44.4022 199.657L44.07 199.709L43.1693 200.018H42.8488L42.5868 199.957L41.293 199.159L40.8859 198.977L40.6731 198.914L40.4251 198.902L40.1935 199.012L39.9689 199.215L39.7419 199.702L39.6343 200.039L39.2085 202.991L39.0916 203.454L38.9348 203.894L38.7336 204.318L38.6003 204.524L38.0575 205.05L37.8984 205.16L37.5194 205.345L37.2972 205.41L37.0328 205.436L36.7334 205.434L36.359 205.389L36.1298 205.24L36.0292 205.134L36.1578 204.124L35.8303 204.112L35.4513 203.92L34.9015 203.52L34.4336 203.258L34.2207 203.19L33.9728 203.143L32.817 203.085L32.5831 203.04L32.3468 202.942L32.1503 202.76L30.2857 198.787L30.1103 198.591L29.8553 198.406L29.3663 198.188L28.5264 197.943L28.3206 197.858L28.117 197.73L27.9182 197.536L27.6959 197.234L27.5228 196.787L27.3426 195.938L27.1789 195.706L26.9122 195.486L26.3601 195.217L25.9694 195.119L25.6161 195.074L24.0276 195.205L23.4848 195.201L23.0216 195.081L22.8298 194.983L21.1874 193.722L20.7944 193.533L19.6574 193.226L19.4515 193.119L19.2831 192.988L19.1521 192.775L19.1731 192.478L19.131 192.124L19.0281 191.715L18.745 191.039L18.6397 190.611L18.5953 190.25L18.6257 189.993L18.6865 189.764L19.0281 188.957L19.0726 188.734L19.0632 188.498L18.9322 188.054L18.848 187.855L18.7848 187.633L18.745 187.401L18.7263 186.65L18.6561 186.379L18.0057 184.933L17.7975 184.039L16.7986 182.186L16.3283 181.65L15.7084 181.103L14.4333 180.396L13.8017 180.137L13.3408 180.032L12.8869 180.125L11.2961 180.778L11.0785 180.832L10.8422 180.841L10.3182 180.79L10.0538 180.687L9.8035 180.544L9.48299 180.291L9.29349 180.095L9.1461 179.908L8.70394 179.112L8.41852 178.251L7.98337 176.033L7.9436 175.891L7.42658 176.213L2.57915 184.551L1.87497 186.182L1.81648 187.712L1.99896 188.14L2.52535 188.819L3.0915 189.916L3.18976 190.197L2.36392 192.52L2.13699 192.796L1.36262 193.224L1.05849 193.668L1 194.38L4.3174 209.315L4.81571 209.921L4.93736 210.071L6.17495 211.203L7.06863 213.561L8.34366 220.608L8.95426 222.119L10.5708 225.085L11.0832 226.615L11.1908 228.141L10.7814 232.96L13.5092 232.726L13.0858 235.365L13.3127 236.458L14.3047 237.012L15.1282 236.909L16.4944 236.081L17.1776 235.807L20.1721 236.582L20.7102 237.019L21.0401 237.571L21.1991 238.254L21.2974 240.465L22.0437 243.485L23.1901 246.178L23.3702 246.936L23.2626 247.673L22.8461 248.204L22.2893 248.307L20.8716 248.047L20.5979 250.658L20.7172 251.243L21.3021 252.088L21.4892 252.574L21.4682 252.935L21.2904 253.817L21.3231 254.203L21.4565 254.348L22.011 254.823L22.2402 255.094L21.8378 255.887L21.2366 256.315L20.2727 256.456L18.6 256.39H18.5976L17.6899 256.804L16.1809 257.045L15.0135 257.534L15.1258 258.692L14.6673 258.83L13.8064 259.193L13.2519 259.27L13.0273 259.111L12.5126 258.367L12.2623 258.119L11.3546 257.852L8.34833 257.831L7.87108 257.904L7.48038 258.058L7.18795 258.133L7.00547 258.828L7.67222 258.98L13.5022 260.77L19.5568 261.834L25.0382 262.251L31.9561 264.604L39.0658 266.071L43.429 267.779L43.6606 268.036L43.8454 268.359L43.9179 268.668L44.0887 269.042L44.4934 269.285L45.3801 269.662L47.1698 271.094L47.5628 271.508L47.5184 271.702L47.991 271.749L48.6273 271.943L48.9665 271.992L49.5116 272.144L49.6099 272.526L49.5654 272.998L49.6848 273.431L49.9889 273.709L50.2439 273.765Z" fill="#171619" stroke="white" stroke-width="0.5"/>
<path d="M142.382 171.451L142.031 171.385L141.535 171.186L140.614 170.709L140.19 170.545L139.722 170.428L129.101 170.014L126.687 170.447L125.931 170.716L125.608 170.969L125.316 171.256L124.485 172.307L124.218 172.576L123.701 173.004L123.198 173.308L121.109 174.01L120.639 174.216L120.323 174.403L120.035 174.698L119.902 174.908L119.441 175.421L119.044 175.54L113.429 175.645L112.79 175.779L112.317 176.188L104.766 186.772L104.419 187.069L104.15 187.237L103.935 187.31L100.903 187.736L99.9837 188.077L98.9637 188.564L98.5356 188.868L98.2642 189.135L98.1004 189.551L97.9858 190.01L97.9624 190.26L97.9764 190.508L98.0232 190.737L98.1028 190.941L98.3156 191.301L98.573 191.629L98.8678 191.919L99.8504 192.679L99.9977 192.817L100.133 192.976L100.36 193.322L100.548 193.708L100.657 194.158L100.669 194.38L100.655 194.525L100.505 194.799L100.236 195.138L99.0573 196.312L98.821 196.652L98.7204 196.841L98.5192 197.119L93.0705 202.769L91.2691 205.607L90.6304 207.299L90.1415 209.144L90.0456 209.72L89.9356 210.045L89.704 210.518L89.5192 210.773L89.346 210.969L89.0209 211.222L88.0804 211.76L87.9962 211.931L88.0617 212.064L88.1903 212.219L88.3003 212.392L88.3752 212.605L88.4009 212.846V213.105L88.3214 213.625L88.2208 213.957L87.7458 214.764L87.6429 214.996L87.6733 215.183L87.7388 215.353L87.7107 215.763L87.809 215.899L87.9915 215.952L88.1693 216.074L88.2769 216.245L88.2629 216.507L88.1061 216.652L87.5868 216.799L87.444 216.965L87.3739 217.202L87.3294 217.452L87.037 218.383L86.9177 218.652L86.5597 219.249L86.2415 220.126L86.2018 220.418V220.454L86.148 220.683L85.8906 221.237L85.8345 221.434L85.8485 221.612L85.9327 221.74L86.0848 221.745L86.2626 221.712L86.4685 221.724L86.6182 221.822L86.7492 221.974L86.7656 222.545L86.0029 224.047L87.3809 224.779L88.6138 225.24L88.8126 225.416L88.9273 225.607L90.2374 228.455L90.8503 229.51L91.0726 229.753L91.1755 229.83L91.4422 229.9L91.8236 229.935L95.4498 229.884L95.7516 229.917L96.1399 229.999L96.7669 230.207L97.0921 230.385L97.5038 230.686L97.7776 230.778L98.1566 230.81L99.1976 230.684L99.7123 230.569L100.187 230.509L101.008 230.591L105.093 231.482L105.308 231.571L105.793 231.692L106.691 231.699L113.787 231.129L114.912 231.309L116.8 232.046L116.704 231.725L116.671 231.54L116.653 231.309L116.657 230.946L116.837 230.02L116.884 229.889L116.95 229.755L117.06 229.673L117.163 229.617L117.523 229.498L117.946 229.421L119.759 229.283L120.23 229.339L120.494 229.503V230.23L120.576 230.42L120.721 230.569L121.107 230.785L121.755 231.021L121.954 231.115L122.717 231.409L123.14 231.473L124.19 231.512L124.532 231.433L124.941 231.295L125.66 230.946L126.015 230.726L126.263 230.537L127.061 229.575L127.286 229.461L127.557 229.395L128.041 229.465L128.317 229.589L128.537 229.746L128.682 229.893L128.841 230.027L129.199 230.244L129.641 230.394L129.964 230.371L130.35 230.265L130.94 229.912L131.242 229.673L131.457 229.461L131.583 229.297L131.691 229.124L132.093 228.3L132.545 226.67L133.01 225.692L133.172 225.495L133.396 225.35L135.165 224.63L135.483 224.37L135.649 224.12L136.337 221.654L136.496 221.499L136.742 221.45L137.198 221.614L137.467 221.759L137.675 221.92L137.961 222.257L138.103 222.316L138.248 222.299L138.574 222.196L139.072 221.953L140.588 220.926L140.894 220.835L141.388 220.737H141.971L142.513 220.788L142.78 220.959L142.937 221.139L143.496 222.311L143.739 222.641L144.039 222.919L144.378 223.165L144.56 223.273L145.714 223.769L145.896 223.946L146.027 224.12L146.582 224.978L146.848 225.282L147.286 225.699L147.454 225.82L147.681 225.909L147.943 225.949L148.275 225.926L148.512 225.846L149.066 225.502L149.71 224.896L151.53 222.823L151.64 218.954L151.576 218.612L151.406 218.313L149.946 217.452L149.054 216.71L148.519 216.395L147.786 216.294L144.904 216.366L144.156 216.137L142.174 214.631L141.912 214.193L141.868 213.482L142.013 212.729L142.317 212.172L142.523 211.638L142.434 210.894L142.148 210.085L141.921 209.638L142.109 209.399L143.994 208.674L144.703 208.258L145.374 207.759L145.51 207.617L145.641 207.46L145.868 207.107L145.966 206.913L147.181 203.216L147.213 202.868L147.195 202.484L147.024 201.89L146.841 201.609L146.652 201.408L146.118 201.071L145.824 200.781L145.601 200.42L145.531 200.224L145.466 199.997L145.295 199.017L145.178 198.57L145.075 198.383L144.932 198.238L144.743 198.128L144.535 198.058L144.319 198.018L143.079 198.107L142.864 198.046L142.74 197.892L142.759 197.36L142.89 196.57L143.554 194.08L143.753 193.594L143.875 193.43L144.013 193.28L144.137 193.112L144.28 192.965L144.404 192.805L144.97 192.221L145.141 192.09L146.797 191.123L146.94 190.99L147.071 190.824L147.141 190.487L147.167 190.007L146.926 188.192L146.757 187.797L146.53 187.434L146.256 187.132L145.929 186.877L145.524 186.685L144.886 186.461L144.703 186.353L144.546 186.22L144.418 186.061L144.228 185.684L144.09 185.23L144.116 184.814L144.235 184.266L144.626 183.162L144.853 182.666L145.054 182.325L145.798 181.625L145.959 181.501L146.549 180.926L146.907 180.42L147.012 180.2L147.089 179.758L147.129 179.089L147.031 177.889L146.855 176.909L146.783 176.696V176.338L146.862 175.861L147.129 175.018L147.447 174.291L147.56 174.113L147.662 173.362L147.48 171.095L145.505 170.395L145.225 170.379L144.925 170.405L144.28 170.681L143.522 171.137L142.909 171.39L142.675 171.444L142.382 171.451Z" fill="#171619" stroke="white" stroke-width="0.5"/>
<path d="M53.9169 215.812L53.6993 215.557L53.5075 215.052L52.8875 211.774L52.9764 211.505L53.1004 211.29L53.2431 211.143L53.3273 210.953L53.3671 210.71L53.3016 210.097L53.318 209.825L53.3858 209.596L53.5753 209.198L53.6361 208.993L53.6595 208.773L53.6291 208.578L53.5426 208.281L53.0396 207.982L51.0978 207.891L50.8849 208.52L50.5854 208.939L49.9 209.573L49.3829 209.94L48.2389 210.401L47.5254 210.787L47.1979 211.051L46.9967 211.302L46.9335 211.524L46.8563 212.029L46.8306 212.56L46.8844 213.105L46.9499 213.377L47.0669 213.711L47.385 214.24L47.5464 214.408L48.7817 215.237L49.4672 215.559L49.8041 215.674L50.031 215.723L50.8919 216.016L51.2428 216.247L51.6639 216.699L51.802 216.956L52.2558 218.088L52.4102 218.28L52.5576 218.395L52.7378 218.493L54.0596 219.048L54.6983 219.382L54.8597 219.513L55.0305 219.628L55.8236 220.454L57.7279 223.212L57.8449 223.345L57.9852 223.483L58.7409 224.071L58.9327 224.178L59.148 224.274L60.1306 224.513L60.3435 224.597L60.6102 224.829L60.926 225.184L61.4968 225.975L61.7121 226.412L61.8056 226.789L61.7799 227.039L61.6091 227.8L61.5553 228.445L61.5927 228.899L61.6933 229.161L61.8594 229.337L62.3975 229.58L62.7063 229.821L62.7976 230.074L62.7812 230.294L62.6642 230.45L62.3741 230.745L62.2431 230.909L62.1378 231.089L62.0653 231.311L62.0372 231.562L62.07 232.406L62.0162 232.869L61.7869 233.775L61.5202 234.453L61.4804 234.835L61.4945 235.279L61.6395 236.128L61.8103 236.498L62.0139 236.718L62.2478 236.734L62.4724 236.704L63.8714 236.147L64.3019 236.03L64.7861 235.976L65.0411 235.988L65.3008 236.025L65.5184 236.114L65.7102 236.219L66.1945 236.613L66.3934 236.715L66.6109 236.793L66.8566 236.839L67.8672 236.858L68.3819 236.945L68.8311 237.09L69.2312 237.265L69.9868 237.693L70.5483 238.182L71.0817 238.755L71.4818 239.368L71.5285 239.57L71.5496 239.759L71.4981 239.932L71.2876 240.274L71.1636 240.428L70.9835 240.534L70.7893 240.592L70.6044 240.688L70.4711 240.84L70.3728 241.032L70.2418 241.481L70.1553 241.97L70.1365 242.223L70.1553 242.468L70.2816 242.964L70.553 243.704L71.2268 244.518L71.3765 244.667L71.7204 244.922L72.1438 245.088L72.4059 245.224L72.6655 245.4L73.0188 245.741L73.2013 245.982L73.351 246.293L73.6434 247.227L73.7768 247.543L73.9218 247.786L74.4599 248.413L75.8332 249.658L77.5317 250.743L77.8077 251.005L78.2405 251.503L78.3692 251.824L78.3505 252.055L78.2171 252.201L76.9608 253.178L76.4438 253.819L76.2941 253.962L76.1233 254.079L75.9478 254.182L75.763 254.252L75.5408 254.301L75.3092 254.325L74.729 254.315L74.5137 254.348L74.095 254.47L73.9078 254.545L73.7253 254.643L73.5522 254.765L73.3931 254.893L73.1311 255.209L72.3076 256.741L72.1251 257.172L71.9871 257.645L71.821 258.674L71.8046 259.123L72.1649 261.86L72.1672 261.87V261.867L72.8784 261.357L73.8259 260.999L76.7503 260.583L78.2733 259.837L79.0523 259.584L79.4781 259.563L80.3461 259.617L80.7719 259.584L81.2281 259.399L82.2013 258.819L82.6528 258.693L85.3877 258.611L86.2486 258.433L87.912 257.68L88.7706 257.174L89.1449 256.809L89.5894 256.189L93.9736 254.299L94.645 254.119L95.3375 254.058L95.8546 253.63L96.1891 253.536L96.3412 253.918L96.5541 254.294L97.0524 254.315L98.063 254.058L99.1018 253.986L99.4995 253.848L99.7849 253.485L100.4 254.032L101.364 254.074L104.49 253.618L105.121 253.221L106.12 252.041L108.574 250.025L109.112 249.824L111.286 248.298L111.634 248.897L112.332 248.673L113.012 248.156L113.321 247.851L113.824 247.847L116.763 247.119L118.269 246.193L118.835 245.606L119.055 244.955L119.383 244.48L122.471 241.89L122.986 241.64L122.347 239.389L121.683 237.895L121.493 237.651L121.226 237.375L120.646 236.963L119.989 236.622L119.762 236.552L119.345 236.358L118.983 236.07L118.36 235.129L116.8 232.046L114.912 231.309L113.787 231.129L106.691 231.7L105.793 231.693L105.308 231.571L105.093 231.482L101.008 230.591L100.187 230.509L99.7124 230.57L99.1977 230.684L98.1566 230.811L97.7776 230.778L97.5039 230.687L97.0921 230.385L96.767 230.207L96.14 229.999L95.7516 229.917L95.4498 229.884L91.8236 229.936L91.4423 229.901L91.1756 229.83L91.0726 229.753L90.8504 229.51L90.2374 228.455L88.9273 225.608L88.8127 225.416L88.6138 225.24L87.3809 224.779L86.003 224.047L85.9538 224.262L85.9 224.34L85.8088 224.433L85.521 224.63L85.4532 224.831L85.4134 225.037L85.3596 225.184L85.2496 225.165L85.121 225.027L84.9923 224.957L84.7724 225.006L84.4285 225.252L84.232 225.341L84.0144 225.411L83.7898 225.413L83.6097 225.381L83.4927 225.165L83.4061 224.953L83.3406 224.714L83.2494 224.522L83.0809 224.419L82.7979 224.457L82.5639 224.515L82.3253 224.506L82.1007 224.417L81.82 224.204L80.8608 223.951L80.5215 223.956L80.2782 224.021L80.1379 224.162L79.9484 224.244L79.7355 224.286L79.4945 224.295L78.6967 224.443L78.5517 224.602L78.4347 224.768L78.306 224.892L77.9364 224.953L77.7656 225.023L77.5738 225.084L77.1059 225.072L76.6988 225.161L76.6169 225.299L76.6427 225.47L76.7082 225.643L76.7269 225.844L76.4883 226.41L76.376 226.571L76.1982 226.649L75.9946 226.63L75.618 226.499L75.2343 226.321L74.5629 225.926L74.4014 225.652L74.3874 225.444L74.5558 225.341L74.7524 225.315L74.9208 225.266L75.0027 225.133L75.0003 224.938L74.9021 224.716L74.729 224.482L74.3991 224.159L74.1511 224.007L73.4727 223.883L73.0726 223.75L72.8433 223.778L72.6328 223.827L72.4059 223.848L71.9543 223.834L71.5636 223.951L71.3227 223.956L70.9858 223.832L70.4641 223.804L70.0172 223.886L69.0697 223.951L68.6042 224.045L68.3164 224.038L68.1035 224.115L67.8322 224.131L67.4508 224.045L66.8168 223.713L66.4612 223.572L66.1805 223.408L65.9793 223.076L65.7734 222.873L64.6271 222.409L64.1662 222.388L63.5766 222.264L63.4292 222.133L63.3052 221.883L63.1602 221.726L62.2525 221.268L62.056 221.099L61.9858 220.795L61.9811 220.582L61.9928 220.435L62.0443 220.192L62.1051 220.002L62.1121 219.799L62.0279 219.609L61.4571 219.349L61.0172 219.307L60.8184 219.333L60.664 219.413L60.4113 219.665L60.2546 219.764L60.058 219.836L59.7773 219.838L59.4357 219.782L58.9023 219.523L58.6286 219.534L58.4461 219.635L58.3432 219.81L58.2169 219.951L58.018 219.96L57.7536 219.883L57.3723 219.537L56.6892 218.669L56.5348 218.514L56.3687 218.458L56.1862 218.465L55.9265 218.243L55.6645 217.796L55.0679 216.133L54.8644 215.77L54.5953 215.665L54.3801 215.681L54.0502 215.8L53.9169 215.812Z" fill="#171619" stroke="white" stroke-width="0.5"/>
<path d="M32.1129 104.955L30.4214 103.109L29.5324 102.632L29.2072 102.567L29.0809 102.499L28.9592 102.316L28.7066 102.45L28.9054 103.117L30.8402 115.02L32.7726 126.916L32.4848 127.564L30.5969 128.68L30.0237 128.874L29.5394 128.823L29.006 128.57L28.6598 128.549L28.3907 128.802L28.096 129.368L27.9182 130.037L28.0211 130.573L28.5756 131.796L28.8469 132.812L28.8095 133.551L28.3931 134.101L27.5275 134.543L25.0195 135.385L24.2475 135.937L22.3291 138.157L21.6437 138.738L21.5852 138.6L21.3723 138.359L21.0915 138.174L20.8272 138.204L20.7055 138.515L20.523 141.683L20.385 142.151L20.0505 142.514L19.1147 143.08L18.7544 143.424L18.7193 143.636L18.8409 144.186L18.8316 144.416L18.6678 144.694L18.2467 145.209L18.0829 145.487L15.0486 152.012L14.4872 153.729L12.4307 166.718L12.4705 167.214L12.7349 167.806L13.0156 168.154L13.2028 168.498L13.1724 169.076L12.8004 169.9L10.8726 172.319L10.6598 172.744L10.3135 174.862L10.1006 175.161L8.01847 175.842L7.97168 175.872L7.9436 175.891L7.98337 176.034L8.41852 178.252L8.70394 179.112L9.1461 179.908L9.29349 180.095L9.48299 180.292L9.8035 180.544L10.0538 180.687L10.3182 180.79L10.8422 180.841L11.0785 180.832L11.2961 180.778L12.8869 180.125L13.3408 180.032L13.8017 180.137L14.4333 180.397L15.7084 181.103L16.3283 181.651L16.7986 182.187L17.7975 184.039L18.0057 184.933L18.6561 186.379L18.7263 186.65L18.745 187.401L18.7848 187.633L18.848 187.855L18.9322 188.054L19.0632 188.498L19.0726 188.735L19.0281 188.957L18.6865 189.764L18.6257 189.993L18.5953 190.251L18.6397 190.611L18.745 191.039L19.0281 191.715L19.131 192.125L19.1731 192.478L19.1521 192.775L19.2831 192.988L19.4515 193.119L19.6574 193.227L20.7944 193.533L21.1874 193.723L22.8298 194.984L23.0216 195.082L23.4848 195.201L24.0276 195.206L25.6161 195.075L25.9694 195.119L26.3601 195.217L26.9122 195.487L27.1789 195.706L27.3426 195.938L27.5228 196.787L27.6959 197.234L27.9182 197.536L28.117 197.73L28.3206 197.859L28.5264 197.943L29.3663 198.189L29.8553 198.406L30.1103 198.591L30.2857 198.788L32.1503 202.76L32.3468 202.942L32.5831 203.041L32.817 203.085L33.9728 203.144L34.2207 203.19L34.4336 203.258L34.9015 203.52L35.4513 203.92L35.8303 204.112L36.1578 204.124L36.2304 203.715V203.518L36.1672 203.3L36.0268 203.16L35.5893 203.008L35.4232 202.891L35.332 202.727L35.339 202.514L35.4256 202.33L35.6572 202.039L35.6619 201.862L35.5028 201.555L35.5168 201.384L35.842 200.881L35.9754 200.437L36.0783 200.222L36.228 200.037L36.4573 199.843L36.6655 199.384L36.7825 199.183L36.9486 199.012L37.1825 198.83L37.4563 198.453L37.606 198.31L37.7721 198.186L37.8984 198.025L38.0598 197.608L38.1932 197.426L38.1792 197.234L38.1183 197.04L37.9148 196.68L37.8774 196.476L37.9218 196.273L38.0177 196.092L38.247 195.76L38.2798 195.573L38.2072 195.4L38.0809 195.25L37.5381 194.918L37.3954 194.775L37.3229 194.569L37.2644 193.821L37.1779 193.624L37.0211 193.496L36.6304 193.341L36.5064 193.192L36.4667 192.962L36.4877 192.717L36.6328 192.003L36.6561 191.764L36.7006 191.57L36.8199 191.449L37.1474 191.479L38.1909 191.722L38.7453 191.774L39.1407 191.715L39.6109 191.596L40.4742 191.259L40.8859 191.049L41.1643 190.868L41.3071 190.716L41.431 190.562L41.6393 190.148L41.8077 189.68L41.8639 189.439L42.1703 186.98L42.3037 186.533L42.3973 186.341L42.5259 186.164L42.6663 186.016L42.8698 185.869L43.1155 185.726L43.4945 185.567L43.7331 185.434L43.8898 185.286L43.932 185.099L43.8711 184.917L43.7565 184.739L43.5998 184.585L43.429 184.468L43.2184 184.367L42.7341 184.234L41.9106 184.138L39.784 184.084L38.2821 184.512L38.0318 184.535L37.8048 184.519L37.5826 184.423L37.5896 184.28L37.6364 184.089L37.7159 183.869L37.8493 183.712L38.0224 183.602L38.4154 183.422L38.5979 183.317L39.0799 182.923L39.2226 182.774L39.4635 182.435L39.7747 182.168L39.908 182.013L39.9969 181.812L40.1022 181.625L40.2285 181.471L40.3385 181.305L40.3876 181.11L40.3619 180.439L40.4157 180.235L40.5958 179.868L40.6426 179.672L40.7432 179.498L40.7526 179.021L40.8158 178.818L40.9164 178.638L43.5693 175.718L44.084 175.372L44.3554 175.287L44.6923 175.266L45.2959 175.365L45.586 175.514L45.7778 175.697L45.8574 175.903L45.9743 176.335L46.0586 176.541L46.1825 176.703L46.599 176.759L51.7201 176.469L52.5319 176.181L53.6829 175.524L54.8246 174.688L55.3955 174.064L56.3804 172.735L56.8342 172.281L57.1243 172.15L57.5454 172.04L58.4345 171.94L58.8836 171.844L59.2158 171.743L59.3773 171.614L59.4942 171.444L59.7937 170.592L59.8311 170.374L59.7258 169.701L59.7586 169.469L59.8381 169.261L60.1633 168.699L60.2054 168.498L60.2031 168.351L60.0838 168.267L58.018 167.747L57.5969 167.593L57.2483 167.35L56.1394 166.145L54.5509 164.828L54.3848 164.743L54.193 164.729L54.0409 164.743L52.4758 165.057L52.2348 165.064L52.0149 165.005L51.8324 164.909L51.6686 164.769L50.7329 163.674L50.5644 163.553L50.3515 163.468L50.1152 163.422H49.6052L49.1022 163.471L48.6016 163.405L48.3863 163.335L48.2109 163.253L48.1033 163.171L48.0729 163.033L48.0869 162.825L48.1337 162.593L48.2998 162.186L48.3606 161.976V161.239L48.4004 160.995L48.4589 160.787L48.7209 160.488L48.8238 160.305L48.9525 159.847L49.0344 159.639L49.1373 159.447L49.2052 159.222L49.2496 158.969L49.3128 158.75L49.6356 158.621L50.1854 158.626L52.167 158.937L52.7869 158.864L53.0373 158.74L53.3882 158.464L53.6759 158.401L54.71 158.422L55.0562 158.366L55.3744 158.345L55.6177 158.389L56.0856 158.668L56.3757 158.759L56.7734 158.799L58.3432 158.743L58.5818 158.693L59.01 158.537L59.9341 158.307L60.2148 158.293L60.4979 158.34L60.8441 158.539L61.0032 158.766L61.0851 159.028L61.188 160.888L61.2886 161.367L61.3705 161.564L61.4875 161.735L61.8641 161.931L62.5379 162.146L63.4644 162.668L63.9603 163.071L64.3534 163.538L64.5007 163.681L64.7113 163.796L64.9757 163.838L65.3851 163.763L65.6635 163.684L66.5338 163.349L66.7584 163.293L67.0157 163.276L67.3081 163.309L67.9538 163.611L68.2907 163.705L68.6791 163.733L69.3716 163.648L69.7061 163.517L69.9494 163.363L70.2372 163.059L70.8899 161.978L71.3297 161.541L71.69 161.323L71.9052 161.248L72.2094 161.213L73.1849 161.197L73.5967 161.119L74.0576 160.958L74.1933 160.719L74.2471 160.462L74.2166 160.207L73.978 159.288L73.6552 158.464L73.5967 158.247L73.5943 158.027L73.6528 157.863L73.709 157.762L73.8236 157.631L75.0635 156.728L76.7597 155.715L77.0825 155.456L77.5949 154.8L78.9681 152.601L79.2582 152.293L79.415 152.159L79.7776 151.953L79.9905 151.867L80.2034 151.804L80.435 151.769L80.7368 151.815L81.1158 151.946L81.717 152.316L82.0048 152.564L82.206 152.789L82.4002 153.165L82.7043 154.007L82.7792 154.454L82.8681 156.511L82.9663 156.92L83.1231 157.315L83.2213 157.503L83.4623 157.844L83.6869 158.109L83.9138 158.3L84.2414 158.415L84.7139 158.537L85.6965 158.665L86.6042 158.691L87.5354 158.548L88.3472 158.553L88.5858 158.504L88.8197 158.424L89.0139 158.34L89.2291 158.272L89.6854 158.207L89.9146 158.139L90.1813 158.087L90.5697 158.069L91.2013 157.933L91.6763 157.9L92.4576 157.701L92.6261 157.58L92.7431 157.409L92.8998 156.972L93.0004 156.777L93.1267 156.618L93.4262 156.335L93.9526 155.982L94.0836 155.83L94.3152 155.479L94.4415 155.329L94.7082 155.245L95.0802 155.247L96.2827 155.418L96.4933 155.505L96.8652 155.891L97.0735 156.001L97.401 155.998L97.9133 155.893L98.1286 155.884L98.3368 155.952L98.6596 156.366L98.8468 156.529L99.062 156.623L99.4597 156.618L100.017 156.557L100.496 156.586L100.702 156.557L100.994 156.309L101.2 156.209L101.486 156.171L101.855 156.181L102.131 156.153L102.4 156.192L102.843 156.455L103.217 156.616L103.795 156.763L104.106 156.798L104.326 156.885L104.389 157.046L104.513 157.198L104.688 157.264L104.939 157.184L105.11 157.044L105.252 156.869L105.451 156.473L105.561 156.354L105.725 156.319L105.987 156.536L106.293 156.586L106.53 156.55L107.152 155.991L107.524 155.785L108.383 155.491L108.574 155.392L108.736 155.273L109.073 155.334L109.562 155.615L110.579 156.473L111.312 157.234L112.275 158.806L113.026 160.633L113.457 161.353L113.728 161.655L113.993 161.838L114.358 162.025L115.642 162.427L120.026 163.204L125.952 165.387L126.179 165.492L126.413 165.637L127.232 166.687L129.101 170.014L139.722 170.428L140.19 170.545L140.614 170.709L141.535 171.186L142.031 171.385L142.382 171.451L142.675 171.444L142.909 171.39L143.522 171.137L144.28 170.681L144.925 170.405L145.225 170.379L145.506 170.396L147.48 171.095L147.286 169.766V169.521L147.337 169.025L148.046 166.781L148.217 165.492L148.224 164.933L148.035 163.672L147.878 163.407L147.637 163.12L147.108 162.668L146.776 162.462L146.49 162.317L145.342 161.994L143.791 161.213L143.606 161.021L143.437 160.752L143.255 160.244L143.178 159.891L143.047 157.372L142.988 157.135L142.492 155.909L139.722 151.137L138.716 148.351L138.658 147.812L138.501 147.38L138.267 147.061L137.771 146.748L137.46 146.638L136.517 146.495L136.068 146.388L135.652 146.212L135.266 145.913L134.929 145.557L133.899 143.913L133.796 143.688L133.661 143.26L133.481 141.734L133.366 141.281L131.558 137.025L131.066 136.244L130.568 135.645L124.715 130.926L123.886 130.524L121.491 129.887L121.044 130.037L120.288 130.081L118.571 129.817L117.794 129.546L115.459 128.179L111.108 124.644L110.984 124.478L110.844 124.324L110.715 124.158L110.572 124.01L110.088 123.348L109.398 122.616L109.075 122.361L108.879 122.268L108.647 122.195L108.376 122.148L107.428 122.211L106.49 122.392L106.066 122.417L105.533 122.385L104.724 122.251L104.2 122.221L103.961 122.244L103.774 122.277L103.64 122.326L103.514 122.399L103.374 122.504L103.1 122.803L102.574 123.503L102.295 123.802L101.991 124.076L101.811 124.181L101.617 124.273L101.006 124.467L100.604 124.651L100.222 124.874L99.8691 125.159L99.7452 125.295L99.6258 125.459L99.5206 125.636L98.8538 127.407L98.6503 127.784L98.3812 128.105L97.7613 128.678L97.4244 128.914L97.2255 129.001L95.8827 129.326L95.499 129.48L95.3118 129.592L95.1551 129.731L95.0287 129.92L94.9305 130.107L94.8509 130.327L94.8018 130.568L94.7691 130.835V131.108L94.8509 131.574L95.0264 131.951L95.4732 132.669L95.6347 133.046L95.6932 133.261L95.7376 133.488L95.7516 134.512L95.7142 134.781L95.6487 135.029L95.52 135.233L95.3375 135.385L95.134 135.483L94.9632 135.593L94.8322 135.694L94.755 135.787L94.3947 136.496L94.1421 136.833L93.9292 137.196L93.7912 137.303L93.5853 137.261L93.2694 137.034L92.9864 136.875L92.5536 136.756L92.2518 136.583L92.0155 136.197L87.54 123.627L87.0979 122.866L86.5247 122.116L85.3737 121.358L84.9432 120.955L84.7233 120.653L84.7794 120.436L84.873 120.237L84.9853 120.059L85.2497 119.72L85.5421 119.43L85.7082 119.306L86.01 119.025L86.1363 118.88L86.2674 118.705L86.3633 118.515L86.4358 118.286L86.4732 118.033L86.5013 116.639L86.5458 116.391L86.6113 116.169L86.8125 115.775L87.0604 115.446L89.2128 113.497L89.4608 113.197L89.8982 112.376L90.0503 111.946L90.0877 111.707V111.476L90.0667 111.272L89.9006 110.591L89.2853 109.171L89.0818 108.233L88.8548 107.587L88.6326 107.426L88.277 107.323H87.3856L86.7446 107.267L85.8462 107.084L85.121 106.85L84.7654 106.663L82.6716 105.25L82.0539 104.733L81.6726 104.317L81.5112 104.186L81.2187 103.896L81.0526 103.767L80.6643 103.58L80.1847 103.453L79.6653 103.423L77.4077 103.51L76.3807 103.655L75.6975 104.099L75.5455 104.242L75.4098 104.403L75.2998 104.588L75.2086 104.794L75.1454 105.014L74.9045 106.261L74.8085 106.464L74.6728 106.619L74.5044 106.747L74.1394 106.956L73.3347 107.307L72.8551 107.414L71.8257 107.519L71.3999 107.501L68.9083 107.009L68.5785 107.012L68.0568 107.161L67.7643 107.297L67.5444 107.461L67.4274 107.629L67.3292 107.826L67.1912 108.263L67.0859 108.467L66.9572 108.626L66.6601 108.879L66.122 109.017L64.8891 109.569L61.7589 108.565L60.0464 109.309L59.4989 110.03L59.1433 110.858L58.9562 111.747L58.9 112.657L59.017 115.209L58.9 116.007L58.7199 116.501L58.4929 116.915L57.9081 117.614L57.6975 118.017L57.7771 118.391L57.9619 118.737L58.0648 119.065L58.1467 119.844L58.3783 120.569L58.7316 121.161L59.1854 121.542L60.781 121.811L62.3905 121.678L63.6983 121.984L64.4001 123.571L64.4282 124.336L64.2832 125.087L63.8621 125.662L63.0713 125.891L62.1659 125.69L60.4909 124.862L59.4732 124.757L58.6006 125.18L57.9104 125.971L57.391 126.734L57.0331 127.075L56.3429 128.236L56.0739 128.507L55.8984 128.624L51.8932 129.447L50.0661 129.48L48.5454 129.106L47.8179 128.409L46.7323 126.579L45.4456 125.905L44.2618 124.425L43.6676 123.863L43.0266 123.503L42.4698 123.093L42.0721 122.527L41.7399 119.863L41.3468 118.354L40.8392 117.42L40.7737 117.034L40.5935 116.679L39.8051 116.421L39.625 116.15L39.3629 115.518L38.8529 114.886L38.5137 114.194L38.764 113.396L38.006 111.915L37.9054 111.483L37.6762 111.122L36.6725 110.507L36.4433 110.046L36.0853 109.078L34.5085 107.854L33.2873 105.536L32.7141 104.955L32.541 104.888L32.3211 104.873L32.148 104.902L32.1129 104.955Z" fill="#171619" stroke="white" stroke-width="0.5"/>
<path d="M86.6043 158.691L85.6965 158.665L84.714 158.537L84.2414 158.415L83.9139 158.3L83.6869 158.109L83.4623 157.844L83.2214 157.503L83.1231 157.315L82.9664 156.92L82.8681 156.511L82.7792 154.454L82.7043 154.007L82.4002 153.165L82.206 152.789L82.0048 152.564L81.7171 152.316L81.1158 151.946L80.7368 151.815L80.435 151.769L80.2034 151.804L79.9905 151.867L79.7776 151.953L79.415 152.159L79.2583 152.293L78.9682 152.601L77.5949 154.801L77.0825 155.456L76.7597 155.715L75.0636 156.728L73.8236 157.631L73.709 157.762L73.6529 157.863L73.5944 158.027L73.5967 158.247L73.6552 158.464L73.978 159.288L74.2167 160.207L74.2471 160.462L74.1933 160.719L74.0576 160.958L73.5967 161.119L73.185 161.197L72.2094 161.213L71.9053 161.248L71.69 161.323L71.3297 161.541L70.8899 161.978L70.2372 163.059L69.9494 163.363L69.7061 163.517L69.3716 163.648L68.6791 163.733L68.2908 163.705L67.9539 163.611L67.3082 163.309L67.0157 163.277L66.7584 163.293L66.5338 163.349L65.6635 163.684L65.3851 163.763L64.9757 163.838L64.7113 163.796L64.5008 163.681L64.3534 163.539L63.9604 163.071L63.4644 162.668L62.5379 162.147L61.8642 161.931L61.4875 161.735L61.3705 161.564L61.2887 161.367L61.1881 160.888L61.0851 159.028L61.0032 158.766L60.8442 158.539L60.4979 158.34L60.2148 158.293L59.9341 158.307L59.01 158.537L58.5819 158.693L58.3432 158.743L56.7734 158.799L56.3757 158.759L56.0856 158.668L55.6177 158.389L55.3744 158.345L55.0563 158.366L54.71 158.422L53.676 158.401L53.3882 158.464L53.0373 158.74L52.787 158.864L52.167 158.937L50.1854 158.626L49.6357 158.621L49.3128 158.75L49.2497 158.969L49.2052 159.222L49.1374 159.447L49.0344 159.639L48.9525 159.847L48.8239 160.305L48.7209 160.488L48.4589 160.787L48.4004 160.995L48.3606 161.239V161.976L48.2998 162.186L48.1337 162.593L48.0869 162.825L48.0729 163.033L48.1033 163.171L48.2109 163.253L48.3864 163.335L48.6016 163.405L49.1023 163.471L49.6053 163.422H50.1153L50.3515 163.468L50.5644 163.553L50.7329 163.674L51.6687 164.769L51.8324 164.909L52.0149 165.005L52.2348 165.064L52.4758 165.057L54.0409 164.743L54.193 164.729L54.3848 164.743L54.5509 164.828L56.1394 166.145L57.2484 167.35L57.5969 167.593L58.0181 167.747L60.0838 168.267L60.2031 168.351L60.2055 168.498L60.1634 168.699L59.8382 169.261L59.7586 169.469L59.7259 169.701L59.8312 170.375L59.7937 170.592L59.4943 171.444L59.3773 171.614L59.2159 171.743L58.8837 171.844L58.4345 171.94L57.5455 172.04L57.1244 172.15L56.8343 172.281L56.3804 172.735L55.3955 174.064L54.8247 174.689L53.683 175.524L52.532 176.181L51.7202 176.469L46.599 176.759L46.1826 176.703L46.0586 176.541L45.9744 176.336L45.8574 175.903L45.7779 175.697L45.586 175.514L45.2959 175.365L44.6923 175.266L44.3554 175.287L44.0841 175.372L43.5694 175.718L40.9164 178.638L40.8158 178.818L40.7526 179.021L40.7433 179.499L40.6427 179.672L40.5959 179.868L40.4157 180.235L40.3619 180.439L40.3877 181.11L40.3385 181.305L40.2286 181.471L40.1022 181.625L39.997 181.812L39.9081 182.013L39.7747 182.168L39.4636 182.435L39.2226 182.774L39.0799 182.924L38.598 183.317L38.4155 183.422L38.0224 183.602L37.8493 183.712L37.716 183.869L37.6364 184.089L37.5896 184.28L37.5826 184.423L37.8049 184.519L38.0318 184.535L38.2821 184.512L39.7841 184.084L41.9107 184.138L42.7342 184.234L43.2184 184.367L43.429 184.468L43.5998 184.585L43.7565 184.739L43.8712 184.917L43.932 185.099L43.8899 185.286L43.7331 185.434L43.4945 185.567L43.1155 185.726L42.8699 185.869L42.6663 186.016L42.526 186.164L42.3973 186.342L42.3037 186.533L42.1704 186.98L41.8639 189.439L41.8077 189.68L41.6393 190.148L41.4311 190.562L41.3071 190.716L41.1644 190.868L40.886 191.049L40.4742 191.259L39.611 191.596L39.1407 191.715L38.7453 191.774L38.1909 191.722L37.1475 191.479L36.8199 191.449L36.7006 191.57L36.6562 191.764L36.6328 192.003L36.4877 192.717L36.4667 192.962L36.5065 193.192L36.6304 193.341L37.0211 193.496L37.1779 193.624L37.2645 193.821L37.3229 194.57L37.3955 194.775L37.5382 194.918L38.0809 195.25L38.2073 195.4L38.2798 195.573L38.247 195.76L38.0178 196.093L37.9218 196.273L37.8774 196.476L37.9148 196.68L38.1184 197.04L38.1792 197.234L38.1932 197.426L38.0599 197.609L37.8985 198.025L37.7721 198.186L37.606 198.31L37.4563 198.453L37.1826 198.83L36.9486 199.012L36.7825 199.183L36.6655 199.384L36.4573 199.843L36.2281 200.037L36.0783 200.222L35.9754 200.437L35.842 200.881L35.5169 201.384L35.5028 201.555L35.6619 201.862L35.6572 202.039L35.4256 202.33L35.339 202.514L35.332 202.727L35.4233 202.891L35.5894 203.008L36.0269 203.16L36.1672 203.3L36.2304 203.518V203.715L36.1579 204.124L36.0292 205.135L36.1298 205.24L36.3591 205.39L36.7334 205.434L37.0328 205.436L37.2972 205.411L37.5195 205.345L37.8985 205.16L38.0575 205.05L38.6003 204.524L38.7337 204.318L38.9348 203.895L39.0916 203.455L39.2086 202.992L39.6344 200.039L39.742 199.702L39.9689 199.216L40.1935 199.012L40.4251 198.902L40.6731 198.914L40.886 198.977L41.2931 199.16L42.5868 199.957L42.8488 200.018H43.1693L44.07 199.709L44.4022 199.658L44.7344 199.712L44.9356 199.84L45.0549 199.99L45.1088 200.159L45.1392 200.299L45.1602 200.519V200.748L44.3578 203.134L44.2993 203.656L44.311 203.913L44.3625 204.131L44.4701 204.32L44.8491 204.508L47.9302 205.224L48.1337 205.315L48.3068 205.436L48.4566 205.579L48.7888 206.103L48.873 206.309L49.0578 206.988L49.1514 207.228L49.2801 207.476L49.5397 207.771L49.7994 207.886L50.1223 207.933L51.0978 207.891L53.0396 207.982L53.5426 208.281L53.6292 208.578L53.6596 208.773L53.6362 208.992L53.5754 209.198L53.3859 209.596L53.318 209.825L53.3016 210.097L53.3672 210.71L53.3274 210.953L53.2432 211.142L53.1004 211.29L52.9765 211.505L52.8876 211.774L53.5075 215.052L53.6994 215.557L53.9169 215.812L54.0503 215.8L54.3801 215.681L54.5954 215.665L54.8644 215.77L55.068 216.133L55.6645 217.796L55.9266 218.243L56.1862 218.465L56.3687 218.458L56.5348 218.514L56.6892 218.669L57.3724 219.537L57.7537 219.883L58.0181 219.96L58.2169 219.951L58.3432 219.81L58.4462 219.635L58.6287 219.534L58.9024 219.522L59.4358 219.782L59.7774 219.838L60.0581 219.836L60.2546 219.763L60.4114 219.665L60.664 219.413L60.8184 219.333L61.0173 219.307L61.4571 219.349L62.0279 219.609L62.1122 219.799L62.1051 220.002L62.0443 220.192L61.9928 220.435L61.9811 220.582L61.9858 220.795L62.056 221.099L62.2525 221.268L63.1603 221.726L63.3053 221.883L63.4293 222.133L63.5767 222.264L64.1662 222.388L64.6271 222.409L65.7735 222.873L65.9793 223.076L66.1805 223.408L66.4613 223.572L66.8169 223.713L67.4509 224.045L67.8322 224.131L68.1036 224.115L68.3165 224.038L68.6042 224.045L69.0698 223.951L70.0173 223.886L70.4641 223.804L70.9858 223.832L71.3227 223.956L71.5637 223.951L71.9544 223.834L72.4059 223.848L72.6328 223.827L72.8434 223.778L73.0727 223.75L73.4727 223.883L74.1512 224.007L74.3992 224.159L74.729 224.482L74.9021 224.716L75.0004 224.938L75.0027 225.133L74.9209 225.266L74.7524 225.315L74.5559 225.341L74.3875 225.444L74.4015 225.652L74.5629 225.926L75.2344 226.321L75.618 226.499L75.9947 226.63L76.1982 226.649L76.376 226.571L76.4883 226.41L76.7269 225.844L76.7082 225.643L76.6427 225.469L76.617 225.299L76.6989 225.161L77.1059 225.072L77.5738 225.083L77.7657 225.023L77.9365 224.952L78.3061 224.892L78.4348 224.768L78.5517 224.602L78.6968 224.442L79.4946 224.295L79.7355 224.286L79.9484 224.244L80.1379 224.162L80.2783 224.021L80.5216 223.956L80.8608 223.951L81.82 224.204L82.1008 224.417L82.3253 224.506L82.564 224.515L82.7979 224.456L83.081 224.419L83.2494 224.522L83.3407 224.714L83.4062 224.952L83.4928 225.165L83.6097 225.381L83.7899 225.413L84.0145 225.411L84.232 225.341L84.4285 225.252L84.7725 225.006L84.9924 224.957L85.121 225.027L85.2497 225.165L85.3597 225.184L85.4135 225.037L85.4532 224.831L85.5211 224.63L85.8088 224.433L85.9001 224.34L85.9539 224.262L86.003 224.047L86.7657 222.545L86.7493 221.974L86.6183 221.822L86.4686 221.724L86.2627 221.712L86.0849 221.745L85.9328 221.74L85.8486 221.612L85.8346 221.434L85.8907 221.237L86.1481 220.683L86.2019 220.454V220.419L86.2417 220.126L86.5598 219.249L86.9178 218.652L87.0371 218.383L87.3295 217.452L87.374 217.202L87.4441 216.965L87.5869 216.799L88.1062 216.652L88.263 216.507L88.277 216.245L88.1694 216.074L87.9916 215.952L87.8091 215.899L87.7109 215.763L87.7389 215.354L87.6734 215.183L87.643 214.996L87.7459 214.764L88.2209 213.957L88.3215 213.625L88.401 213.105V212.846L88.3753 212.605L88.3004 212.392L88.1904 212.219L88.0618 212.064L87.9963 211.931L88.0805 211.76L89.021 211.222L89.3462 210.969L89.5193 210.773L89.7041 210.518L89.9357 210.045L90.0457 209.72L90.1416 209.145L90.6305 207.299L91.2692 205.607L93.0706 202.769L98.5193 197.12L98.7205 196.841L98.8211 196.652L99.0574 196.312L100.236 195.138L100.506 194.799L100.655 194.525L100.669 194.38L100.658 194.158L100.548 193.709L100.36 193.323L100.134 192.976L99.9978 192.817L99.8505 192.679L98.8679 191.919L98.5731 191.629L98.3158 191.301L98.1029 190.941L98.0233 190.737L97.9765 190.508L97.9625 190.26L97.9859 190.01L98.1005 189.551L98.2643 189.135L98.5357 188.868L98.9638 188.564L99.9838 188.077L100.903 187.736L103.935 187.31L104.15 187.238L104.419 187.069L104.766 186.772L112.318 176.188L112.79 175.779L113.429 175.645L119.044 175.54L119.441 175.421L119.902 174.908L120.036 174.698L120.323 174.403L120.639 174.216L121.109 174.01L123.199 173.308L123.702 173.004L124.219 172.576L124.485 172.307L125.316 171.256L125.608 170.969L125.931 170.716L126.687 170.447L129.101 170.014L127.232 166.687L126.413 165.637L126.179 165.492L125.952 165.387L120.026 163.204L115.642 162.427L114.358 162.025L113.993 161.838L113.728 161.655L113.457 161.353L113.026 160.633L112.275 158.806L111.312 157.234L110.579 156.473L109.562 155.615L109.073 155.334L108.736 155.273L108.574 155.392L108.383 155.491L107.524 155.785L107.152 155.991L106.53 156.55L106.293 156.586L105.987 156.536L105.725 156.319L105.561 156.354L105.451 156.473L105.252 156.869L105.11 157.044L104.939 157.184L104.689 157.264L104.513 157.198L104.389 157.046L104.326 156.885L104.106 156.798L103.795 156.763L103.217 156.616L102.843 156.455L102.4 156.193L102.131 156.153L101.855 156.181L101.486 156.171L101.2 156.209L100.994 156.309L100.702 156.557L100.496 156.586L100.017 156.557L99.4598 156.618L99.062 156.623L98.8468 156.529L98.6597 156.366L98.3368 155.952L98.1286 155.884L97.9134 155.893L97.401 155.998L97.0735 156.001L96.8653 155.891L96.4933 155.505L96.2827 155.418L95.0802 155.247L94.7083 155.245L94.4416 155.329L94.3152 155.479L94.0836 155.83L93.9526 155.982L93.4262 156.335L93.1268 156.618L93.0004 156.777L92.8998 156.972L92.7431 157.409L92.6261 157.58L92.4577 157.701L91.6763 157.9L91.2014 157.933L90.5697 158.069L90.1814 158.088L89.9146 158.139L89.6854 158.207L89.2292 158.272L89.0139 158.34L88.8198 158.424L88.5858 158.504L88.3472 158.553L87.5354 158.548L86.6043 158.691Z" fill="#171619" stroke="white" stroke-width="0.5"/>
<path d="M78.2687 7.20889L77.7447 7.00302L72.434 6.83691L71.7041 7.06852L71.4023 7.8195L70.911 8.0979L64.3815 8.1634L55.1873 8.25464L45.7334 8.34822L35.5707 8.44882L27.3684 8.53304L23.4264 8.57281L22.5046 8.58217L22.4883 8.12831L18.8644 8.06047L18.9229 8.30845L18.8082 8.61259L19.0586 9.43141L19.5195 10.1894L19.7721 11.0082L19.5358 11.9885L18.9697 12.6155L18.3006 13.1301L17.7344 13.7852L17.4256 14.6765L16.9601 16.6604L16.2535 17.8185L16.1015 18.794L15.8722 19.2011L15.423 19.648L15.2943 19.903L15.3949 20.3358L15.437 20.5276H15.5213L15.7014 20.5627L15.8956 20.6563L16.0172 20.8458V21.1218L15.9237 21.3113L15.8067 21.4751L15.5493 22.1746L14.9855 23.197L14.8662 23.6204L15.044 24.4369L16.305 26.6851L16.4056 27.1062L16.4758 28.0163L16.5881 28.4351L16.7823 28.6854L17.3507 29.2539L17.4747 29.4551L17.6034 30.2903L17.9309 30.8307L19.4072 32.1361L19.9242 32.4028L20.6073 32.5175L21.6344 32.5432L21.7981 32.728L21.6156 33.1281L21.232 33.5305L20.7711 33.713L20.226 33.7551L19.8189 33.9025L19.4961 34.1645L19.1966 34.5599L18.9088 35.1845L18.6983 36.0571V36.9532L19.0399 37.648L19.4072 37.8094L19.8376 37.8585L20.1956 37.9474L20.3453 38.2329L20.4482 38.7195L20.7196 38.8201L21.0869 38.8084L21.4916 38.9628L21.9104 39.2225L22.1841 39.3511L22.3268 39.5781L22.3502 40.1278L22.2122 40.694L21.8987 41.0707L21.0495 41.7421L20.4997 42.6217L20.4786 43.471L20.9185 45.3987V46.7696V49.0553L21.1243 49.9209L22.0789 51.3597L22.3502 52.1271L22.3011 53.2196L21.9104 55.1567L22.0929 56.2329L23.0919 57.8518L23.2112 58.2682L22.9445 58.7034L21.4916 60.334L20.7875 61.7587L20.6307 62.6524L20.9185 63.5368L21.2624 63.9204L21.4916 63.9602L21.7256 63.9345L22.0929 64.1193L22.3058 64.4632L22.3573 64.8539L22.4929 65.2446L22.8135 65.4926L27.5673 64.8375L27.8667 64.7205L28.2153 64.4843L28.5639 64.0842L28.7628 63.8058L29.0037 63.3941L29.1324 63.2209L29.3336 63.0735L29.605 62.9402L30.3677 62.7624L30.6578 62.6454L30.8777 62.4746L31.0906 62.1237L31.3526 61.333L31.4532 61.1341L31.6848 60.7949L31.8415 60.6522L32.0942 60.5001L32.4334 60.3457L33.0791 60.1609L33.7085 60.0462L35.8 60.0158L36.3029 59.941L40.1959 58.7291L40.4345 58.7034L44.166 58.9818L44.4233 58.9537L45.7779 58.5537L46.2762 58.4811L46.8423 58.4694L47.9513 58.5537L48.4449 58.6659L49.4649 58.8063L51.0558 58.7502L56.5255 57.529L59.251 57.7044L59.7821 57.6576L60.4558 57.529H60.6173L62.9614 57.8284L63.9814 57.8003L64.2388 57.6576L64.4868 57.4167L64.8354 56.8107L65.1067 56.4668L65.4881 56.1884L66.4683 55.8937L66.6695 55.7954L66.8216 55.6199L66.9596 55.3439L67.0438 54.876L67.2029 54.4081L67.2637 54.0548L67.2778 53.7624L67.2357 53.5121L67.1678 53.2898L66.8192 52.7658L66.7561 52.5692L66.742 52.3493L66.7584 52.1318L66.6999 51.4065L66.7303 51.1585L66.9011 50.7047V50.7L66.99 50.5058L67.1187 50.3233L67.3105 50.1572L67.6521 49.9935L67.9211 49.9209L68.4826 49.5958L68.7166 49.5841L68.9669 49.6028L69.2055 49.6519L69.4582 49.6449L69.6828 49.5513L69.8302 49.3735L69.8723 49.039L69.7483 48.8682L69.5471 48.7489L68.8406 48.5734L68.7306 48.4681L68.7774 48.3371L69.0394 48.2388L69.5658 48.1476L69.7717 48.0868L69.9775 48.047L70.1858 48.0868L70.5975 48.2435L70.8525 48.2786L71.1005 48.2833L71.3017 48.2716L71.4842 48.2178L72.0199 47.9394L72.4644 47.7756L72.6329 47.6259L72.7405 47.3779L72.5674 47.0691L72.2492 46.7252L69.0464 43.8663L68.7821 43.5552L68.7938 43.2768L68.9154 42.9867L69.5962 41.7444L69.6898 41.452L69.7342 41.197L69.8419 39.5406L69.9495 39.0376L70.0314 38.8084L70.2653 38.3545L70.67 37.7884L71.1917 37.2549L72.8762 36.0033L73.4681 35.4138L73.7277 35.0699L74.5629 33.4837L75.1268 32.7514L75.2765 32.6251L75.473 32.5128L75.7865 32.4239L76.0743 32.3888L76.362 32.3841L76.9235 32.4426L77.8265 32.8029L79.3449 33.5983L80.6971 34.0335L80.9895 33.7621L81.0386 33.5211L81.1042 32.8193L81.0036 31.956L80.7836 31.2027L80.6012 30.8424L80.4047 30.6061L80.0069 30.4236L79.7753 30.3979L79.5671 30.44L79.387 30.5476L78.9869 31.0202L78.8489 31.1395L78.7319 31.1933H78.6337L78.5354 31.1231L78.1073 30.7325L77.7493 30.5289L77.4241 30.2809L77.2814 30.1289L77.1808 29.9394L77.0428 29.4902L77.0077 29.2445L77.0873 28.8445L77.1083 28.5708L76.9984 28.283L76.8439 28.1333L76.2567 27.8315L76.0275 27.7753L75.5292 27.7145L75.328 27.6326L75.1946 27.504L75.0191 27.27L74.8975 27.146L74.7454 27.029L74.5395 26.9425L74.3805 26.8091L74.2799 26.6173L74.2003 26.4021L74.1067 26.2032L73.9687 26.0465L73.7699 25.9552L73.5102 25.9248L73.2598 25.9154L73.0095 25.871L72.8434 25.7517L72.7194 25.5786L72.5603 25.1551L72.4597 24.9633L72.3755 24.7551L72.3124 24.5281L72.0714 23.0192L71.9965 22.7992L71.814 22.4132L71.7719 22.1208L71.7579 21.7278L71.9708 20.5182L72.0948 20.0995L72.2492 19.7509L72.6399 19.297L72.9183 19.0771L73.1709 18.9321L73.5757 18.7473L73.8073 18.5741L74.4039 17.8629L74.9864 17.3365L75.0496 17.1587L75.087 16.9061L75.1057 16.361L75.1829 15.9867L75.4917 15.5655L76.1234 15.1047L76.2684 14.9526L76.4579 14.845L76.6802 14.7701L76.8767 14.597L77.0288 14.3116L77.0475 12.5242L76.9867 12.2809L76.9656 12.0376L77.0217 11.8013L77.1879 11.4878L77.2791 11.1369L77.2955 10.5614L77.2206 9.8993L77.4405 9.05943L78.2687 7.20889Z" fill="#171619" stroke="white" stroke-width="0.5"/>
<path d="M125.407 1L125.29 1.69249L125.456 2.09254L125.55 2.47856L125.22 3.1149L124.689 3.6366L122.581 5.18535L121.825 4.27762L121.03 3.63192H120.218L119.411 4.6613L119.217 5.2836L119.123 6.25449L118.894 6.70835L118.398 7.11542L117.291 7.64181L116.898 8.1331V8.13778L116.793 8.24774L116.667 8.34132L116.531 8.41618L116.384 8.46297L114.746 8.40682L113.873 8.5004L113.27 8.72733L112.881 9.44088L112.575 10.4913L112.149 11.4575L111.412 11.9161L109.396 9.96258L109.522 9.66313L109.835 9.3239L110.015 8.98234L109.767 8.68288L109.377 8.64545L109.082 8.75541L108.895 8.71563L108.839 8.23136L108.544 8.22668L103.757 8.13778V8.12842L103.54 7.82195L103.303 7.72603L103.055 7.83131L102.815 8.12842L101.916 8.27815L100.976 9.31922L100.243 9.42216L100.524 8.83729L100.084 8.85366L99.8691 8.71797L99.5767 8.13778L99.2585 7.91553L98.9029 7.843L93.1103 7.38213L91.9172 7.56694L91.5475 8.21732L86.4826 8.17053L81.1368 8.11672L80.0841 7.92255L78.6897 7.37511L78.2686 7.209L77.4404 9.05954L77.2205 9.89942L77.2954 10.5615L77.279 11.137L77.1878 11.4879L77.0217 11.8014L76.9655 12.0377L76.9866 12.281L77.0474 12.5243L77.0287 14.3117L76.8766 14.5971L76.6801 14.7702L76.4578 14.8451L76.2683 14.9527L76.1233 15.1048L75.4916 15.5657L75.1828 15.9868L75.1056 16.3611L75.0869 16.9062L75.0495 17.1588L74.9863 17.3367L74.4038 17.863L73.8072 18.5742L73.5756 18.7474L73.1709 18.9322L72.9182 19.0772L72.6398 19.2971L72.2491 19.751L72.0947 20.0996L71.9707 20.5184L71.7578 21.7279L71.7718 22.1209L71.814 22.4133L71.9964 22.7994L72.0713 23.0193L72.3123 24.5282L72.3754 24.7552L72.4597 24.9634L72.5603 25.1552L72.7193 25.5787L72.8433 25.7518L73.0094 25.8711L73.2598 25.9156L73.5101 25.9249L73.7698 25.9553L73.9686 26.0466L74.1067 26.2033L74.2002 26.4022L74.2798 26.6174L74.3804 26.8092L74.5395 26.9426L74.7453 27.0292L74.8974 27.1461L75.0191 27.2701L75.1945 27.5041L75.3279 27.6327L75.5291 27.7146L76.0274 27.7754L76.2566 27.8316L76.8439 28.1334L76.9983 28.2831L77.1082 28.5709L77.0872 28.8446L77.0076 29.2446L77.0427 29.4903L77.1807 29.9395L77.2813 30.129L77.4241 30.281L77.7492 30.529L78.1072 30.7326L78.5353 31.1233L78.6336 31.1934H78.7318L78.8488 31.1396L78.9868 31.0203L79.3869 30.5477L79.567 30.4401L79.7752 30.398L80.0068 30.4237L80.4046 30.6062L80.6011 30.8425L80.7836 31.2028L81.0035 31.9561L81.1041 32.8194L81.0386 33.5212L80.9894 33.7622L80.697 34.0336L80.7672 34.4149L80.9052 34.815L81.0175 34.9975L81.1602 35.1448L81.338 35.2618L81.5322 35.3671L81.6983 35.4934L81.8387 35.6478L81.9978 36.0689L82.1007 36.2561L82.2598 36.3894L82.482 36.4526L82.723 36.483L82.9476 36.5462L83.1371 36.6468L83.3079 36.7755L84.0565 37.1919L84.2671 37.2738L84.5244 37.3135L85.1958 37.2878L85.4766 37.3182L85.6731 37.4329L85.7713 37.6224L85.8509 37.8352L86.0404 37.9522L86.3024 37.9639L86.8686 37.6411L87.14 37.4048L87.3224 37.1498L87.3856 36.9135L87.423 36.6561L87.43 36.3801L87.3809 35.856L87.0744 34.4196L87.0604 34.1693L87.0721 33.933L87.1259 33.7084L87.2125 33.5025L87.4441 33.1516L87.7435 32.8638L89.1964 32.1503L89.5169 31.8766L89.7134 31.6099L89.8935 30.8987L90.0807 30.4893L90.2 30.3185L90.345 30.1617L90.4971 30.0237L90.8504 29.7968L95.2556 28.1544L95.7422 28.0375L96.0557 28.0164L96.5096 28.0749L97.0734 28.234L97.6115 28.2948L97.8548 28.3486L98.049 28.4516L98.2244 28.5732L98.4911 28.6668L98.8678 28.7066L99.5042 28.6878L99.7615 28.7955L99.8176 28.9522L99.7264 29.1136L99.5182 29.3452L99.5088 29.3523L99.4995 29.364L98.9988 29.8646L98.9006 30.0237L98.9029 30.2015L99.069 30.2881L99.3451 30.2483L99.7872 30.0237L100.246 29.6728L100.372 29.5254L100.573 29.3569L100.578 29.3523L102.239 27.841L102.356 27.6632L102.45 27.4573L102.602 27.0198L102.716 26.8514L102.908 26.6314L102.999 26.4981L103.065 26.3133L103.107 25.8454L103.165 25.6184L103.35 25.4477L103.629 25.3003L104.09 25.1155L104.352 24.947L104.546 24.7575L104.637 24.5446L104.733 23.7492L104.81 23.5246L105.077 23.3842L105.503 23.314L108.025 23.3725L108.385 23.4801L108.635 23.6229L108.743 23.8124L108.804 24.0206L108.783 24.2452L108.694 24.4276L108.556 24.568L108.464 24.7271L108.427 24.9189L108.464 25.1342L108.565 25.3096L108.722 25.45L108.895 25.5693L109.054 25.705L109.171 25.8828L109.241 26.1027L109.286 26.346L109.279 26.608L109.239 26.8514L109.171 27.083L109.084 27.2912L108.956 27.4596L108.521 27.9065L108.436 28.1006L108.418 28.3159L108.497 28.5054L108.649 28.5943L108.829 28.5685L109.194 28.2831L109.421 28.3393L109.585 28.4703L109.791 28.5685L110.039 28.5545L110.42 28.2948L110.624 28.0819L110.893 27.6748L111.092 27.5368L111.365 27.4409L112.736 27.4292L113.363 27.6491L113.607 27.6281L113.864 27.5298L114.393 27.1064L114.652 26.9636L114.931 26.8864L115.394 26.8911L115.658 26.9824L115.86 27.1157L116.042 27.2046L116.288 27.1812L116.538 27.0689L116.823 26.7858L116.971 26.5683L117.06 26.3554L117.315 25.0453L117.399 24.83L117.499 24.6359L117.626 24.4651L117.797 24.3411L118.005 24.2919L118.288 24.3785L118.466 24.5236L118.772 24.8347L118.959 24.9353L119.198 24.9891L119.958 25.0546L120.241 25.0453L121.268 24.7669L123.208 23.8989L123.556 23.8545L123.875 23.6439L124.422 23.4614L128.715 22.5444L130.748 22.3782L133.408 21.0026L134.217 20.8038L134.236 20.7991L134.381 20.1955L134.603 18.4058L134.924 17.6618L135.516 16.9038L136.374 16.319L136.737 15.9704L136.814 15.5165L136.599 14.6767L136.566 14.2602L137.476 9.96258L137.68 9.56019L138.017 9.20459L138.386 8.9683L138.679 8.67586L138.779 8.13778L138.899 6.62179L138.765 5.29764L138.131 4.294L136.728 3.75592L135.937 3.76995L134.51 4.14895L133.74 4.22849L132.968 4.02964L132.114 3.55238L131.417 2.90434L131.104 2.19782L125.407 1Z" fill="#171619" stroke="white" stroke-width="0.5"/>
<path d="M145.641 33.8817L145.52 33.732L143.379 29.7198L142.712 29.0086L140.49 27.6026L140.144 27.1838L139.652 26.2339L139.32 25.8339L138.939 25.5976L137.624 25.1601L137.245 24.9004L136.983 24.6431L136.683 24.4419L135.713 24.3179L135.212 24.1869L134.751 23.9646L134.381 23.6558L133.951 22.7715L133.979 21.8802L134.236 20.7993L134.218 20.804L133.408 21.0029L130.748 22.3785L128.715 22.5446L124.422 23.4617L123.875 23.6441L123.557 23.8547L123.208 23.8991L121.269 24.7671L120.242 25.0455L119.958 25.0548L119.198 24.9893L118.959 24.9355L118.772 24.8349L118.466 24.5238L118.288 24.3787L118.005 24.2922L117.797 24.3413L117.626 24.4653L117.5 24.6361L117.399 24.8303L117.315 25.0455L117.06 26.3556L116.971 26.5685L116.824 26.7861L116.538 27.0691L116.288 27.1814L116.042 27.2048L115.86 27.1159L115.658 26.9826L115.394 26.8913L114.931 26.8867L114.652 26.9639L114.393 27.1066L113.864 27.53L113.607 27.6283L113.363 27.6493L112.736 27.4294L111.365 27.4411L111.092 27.537L110.893 27.6751L110.624 28.0821L110.42 28.295L110.039 28.5547L109.791 28.5688L109.585 28.4705L109.421 28.3395L109.194 28.2833L108.829 28.5688L108.649 28.5945L108.497 28.5056L108.418 28.3161L108.436 28.1009L108.521 27.9067L108.956 27.4598L109.084 27.2914L109.171 27.0832L109.239 26.8516L109.279 26.6083L109.286 26.3462L109.241 26.1029L109.171 25.883L109.054 25.7052L108.895 25.5695L108.722 25.4502L108.565 25.3099L108.465 25.1344L108.427 24.9192L108.465 24.7273L108.556 24.5682L108.694 24.4279L108.783 24.2454L108.804 24.0208L108.743 23.8126L108.635 23.6231L108.385 23.4804L108.025 23.3728L105.503 23.3143L105.077 23.3845L104.81 23.5248L104.733 23.7494L104.637 24.5448L104.546 24.7577L104.352 24.9472L104.09 25.1157L103.629 25.3005L103.35 25.4479L103.166 25.6187L103.107 25.8456L103.065 26.3135L102.999 26.4983L102.908 26.6317L102.716 26.8516L102.602 27.02L102.45 27.4575L102.356 27.6634L102.239 27.8412L100.578 29.3525L100.573 29.3572L100.372 29.5256L100.246 29.673L99.7874 30.0239L99.3452 30.2485L99.0691 30.2883L98.903 30.2017L98.9007 30.0239L98.999 29.8648L99.4996 29.3642L99.509 29.3525L99.5183 29.3455L99.7265 29.1139L99.8178 28.9524L99.7616 28.7957L99.5043 28.6881L98.868 28.7068L98.4913 28.667L98.2246 28.5734L98.0491 28.4518L97.855 28.3488L97.6116 28.295L97.0736 28.2342L96.5097 28.0751L96.0559 28.0166L95.7424 28.0377L95.2558 28.1547L90.8505 29.797L90.4973 30.0239L90.3452 30.162L90.2001 30.3187L90.0808 30.4895L89.8937 30.8989L89.7135 31.6101L89.517 31.8768L89.1965 32.1505L87.7437 32.8641L87.4442 33.1518L87.2126 33.5027L87.1261 33.7086L87.0722 33.9332L87.0606 34.1695L87.0746 34.4198L87.3811 35.8563L87.4302 36.3803L87.4232 36.6564L87.3857 36.9137L87.3226 37.15L87.1401 37.405L86.8687 37.6413L86.3026 37.9641L86.0405 37.9524L85.851 37.8355L85.7715 37.6226L85.6732 37.4331L85.4767 37.3184L85.196 37.288L84.5245 37.3138L84.2672 37.274L84.0566 37.1921L83.308 36.7757L83.1372 36.647L82.9477 36.5464L82.7231 36.4832L82.4822 36.4528L82.2599 36.3897L82.1008 36.2563L81.9979 36.0692L81.8388 35.6481L81.6984 35.4936L81.5323 35.3673L81.3382 35.262L81.1604 35.1451L81.0177 34.9977L80.9054 34.8152L80.7673 34.4151L80.6971 34.0338L79.3449 33.5987L77.8266 32.8032L76.9235 32.443L76.3621 32.3845L76.0743 32.3891L75.7866 32.4242L75.4731 32.5131L75.2765 32.6254L75.1268 32.7518L74.563 33.484L73.7278 35.0702L73.4681 35.4141L72.8762 36.0037L71.1918 37.2553L70.6701 37.7887L70.2654 38.3548L70.0314 38.8087L69.9495 39.038L69.8419 39.541L69.7343 41.1973L69.6899 41.4523L69.5963 41.7448L68.9155 42.987L68.7938 43.2771L68.7821 43.5555L69.0465 43.8667L72.2493 46.7255L72.5674 47.0694L72.7405 47.3782L72.6329 47.6262L72.4645 47.776L72.02 47.9397L71.4842 48.2181L71.3018 48.2719L71.1006 48.2836L70.8526 48.279L70.5976 48.2439L70.1858 48.0871L69.9776 48.0473L69.7717 48.0871L69.5659 48.1479L69.0395 48.2392L68.7774 48.3374L68.7307 48.4684L68.8406 48.5737L69.5471 48.7492L69.7483 48.8685L69.8723 49.0393L69.8302 49.3738L69.6828 49.5516L69.4582 49.6452L69.2056 49.6522L68.9669 49.6031L68.7166 49.5844L68.4827 49.5961L67.9212 49.9213L67.6522 49.9938L67.3106 50.1576L67.1187 50.3237L66.9901 50.5061L66.9012 50.7003V50.705L66.7304 51.1589L66.7 51.4069L66.7585 52.1321L66.7421 52.3497L66.7561 52.5696L66.8193 52.7661L67.1679 53.2901L67.2357 53.5124L67.2778 53.7627L67.2638 54.0551L67.203 54.4084L67.0439 54.8763L66.9597 55.3442L66.8216 55.6203L66.6696 55.7957L66.4684 55.894L65.4881 56.1888L65.1068 56.4672L64.8354 56.8111L64.4868 57.417L64.2388 57.658L63.9815 57.8007L62.9615 57.8287L60.6173 57.5293H60.4559L59.7821 57.658L59.251 57.7048L56.5255 57.5293L51.0558 58.7505L49.465 58.8066L48.4449 58.6663L47.9513 58.554L46.8424 58.4698L46.2762 58.4815L45.7779 58.554L44.4234 58.954L44.166 58.9821L40.4345 58.7037L40.1959 58.7294L36.303 59.9413L35.8 60.0162L33.7085 60.0466L33.0792 60.1612L32.4335 60.346L32.0943 60.5004L31.8416 60.6525L31.6849 60.7952L31.4532 61.1344L31.3526 61.3333L31.0906 62.124L30.8777 62.475L30.6578 62.6457L30.3677 62.7627L29.605 62.9405L29.3337 63.0739L29.1325 63.2213L29.0038 63.3944L28.7628 63.8061L28.564 64.0845L28.2154 64.4846L27.8668 64.7209L27.5674 64.8378L22.8135 65.4929L22.9492 65.6005L22.4111 66.0661L22.0508 66.6907L21.8426 67.3879L21.7771 68.0734L21.852 68.7659L22.0696 69.2057L23.5738 70.5836L25.0898 72.5067L25.6583 73.2319L25.7028 73.8379L25.532 75.1994L25.5858 75.5293L25.794 76.2429V77.3939L25.5811 78.1168L25.0805 78.435L24.5073 78.704L24.0745 79.2702L24.0066 80.0749L24.3365 80.73L24.9307 81.1698L25.6653 81.3336L26.3251 81.6985L26.2689 82.508L25.7659 83.3175L24.4348 84.0193L23.9435 84.7914L23.2112 86.298L22.3175 87.2221L22.1397 87.5753L22.0602 89.7043L21.8871 90.3734L21.4917 90.9746L21.9011 91.2086L22.1702 91.4893L22.5024 91.7209L23.0826 91.8192L24.1611 91.8706L25.2208 92.1116L26.283 92.6778L26.5544 93.3632L26.5988 94.2312L27.2539 96.2268L27.5042 96.4186L27.7873 96.4607L28.0212 96.5613L28.1171 96.9286L28.1686 97.6585L29.0249 100.625L28.9781 101.208L28.5336 101.456L28.2224 101.736L28.1148 102.279L28.3183 102.614L28.3277 102.628L28.7067 102.45L28.9593 102.316L29.081 102.499L29.2073 102.567L29.5325 102.632L30.4215 103.11L32.113 104.955L32.1481 104.902L32.3212 104.874L32.5411 104.888L32.7142 104.955L33.2874 105.536L34.5086 107.854L36.0854 109.078L36.4434 110.046L36.6726 110.507L37.6763 111.122L37.9056 111.483L38.0062 111.915L38.7641 113.396L38.5138 114.194L38.853 114.887L39.3631 115.518L39.6251 116.15L39.8052 116.421L40.5936 116.679L40.7738 117.034L40.8393 117.42L41.3469 118.354L41.74 119.863L42.0722 122.527L42.4699 123.093L43.0267 123.503L43.6677 123.863L44.2619 124.425L45.4457 125.906L46.7324 126.579L47.818 128.409L48.5455 129.106L50.0662 129.48L51.8934 129.448L55.8986 128.624L56.074 128.507L56.3431 128.236L57.0332 127.075L57.3912 126.734L57.9105 125.971L58.6007 125.18L59.4733 124.757L60.491 124.862L62.1661 125.69L63.0714 125.891L63.8622 125.662L64.2833 125.087L64.4283 124.336L64.4003 123.571L63.6984 121.985L62.3906 121.678L60.7811 121.811L59.1855 121.542L58.7317 121.161L58.3784 120.569L58.1468 119.844L58.0649 119.065L57.962 118.737L57.7772 118.391L57.6976 118.017L57.9082 117.614L58.4931 116.915L58.72 116.501L58.9001 116.007L59.0171 115.209L58.9001 112.657L58.9563 111.747L59.1434 110.858L59.499 110.03L60.0465 109.309L61.759 108.565L64.8892 109.569L66.1221 109.017L66.6602 108.879L66.9573 108.626L67.086 108.467L67.1913 108.263L67.3293 107.826L67.4276 107.629L67.5445 107.461L67.7644 107.297L68.0569 107.162L68.5786 107.012L68.9085 107.009L71.4 107.501L71.8258 107.519L72.8552 107.414L73.3348 107.307L74.1396 106.956L74.5045 106.747L74.673 106.619L74.8086 106.464L74.9046 106.261L75.1455 105.014L75.2087 104.794L75.2999 104.588L75.4099 104.403L75.5456 104.242L75.6977 104.099L76.3808 103.655L77.4078 103.51L79.6654 103.423L80.1848 103.453L80.6644 103.58L81.0527 103.767L81.2189 103.896L81.5113 104.186L81.6727 104.317L82.054 104.733L82.6717 105.25L84.7655 106.663L85.1211 106.85L85.8464 107.084L86.7447 107.267L87.3857 107.323H88.2771L88.6327 107.426L88.8549 107.587L89.0819 108.233L89.2854 109.171L89.9007 110.591L90.0668 111.272L90.0879 111.476V111.707L90.0504 111.946L89.8983 112.376L89.4609 113.197L89.2129 113.497L87.0606 115.446L86.8126 115.776L86.6114 116.169L86.5459 116.391L86.5014 116.639L86.4733 118.033L86.4359 118.286L86.3634 118.515L86.2675 118.705L86.1365 118.88L86.0101 119.025L85.7083 119.306L85.5422 119.43L85.2498 119.72L84.9854 120.059L84.8731 120.237L84.7796 120.436L84.7234 120.653L84.9433 120.955L85.3738 121.358L86.5248 122.116L87.098 122.867L87.5401 123.627L92.0156 136.197L92.2519 136.583L92.5537 136.756L92.9865 136.875L93.2696 137.034L93.5854 137.261L93.7913 137.304L93.9293 137.196L94.1422 136.833L94.3948 136.496L94.7551 135.788L94.8323 135.694L94.9633 135.593L95.1341 135.483L95.3377 135.385L95.5201 135.233L95.6488 135.03L95.7143 134.782L95.7518 134.513L95.7377 133.488L95.6933 133.261L95.6348 133.046L95.4734 132.669L95.0265 131.951L94.851 131.574L94.7692 131.109V130.835L94.8019 130.568L94.851 130.327L94.9306 130.107L95.0289 129.92L95.1552 129.731L95.3119 129.593L95.4991 129.48L95.8828 129.326L97.2256 129.001L97.4245 128.914L97.7614 128.678L98.3813 128.105L98.6504 127.784L98.8539 127.407L99.5207 125.636L99.6259 125.459L99.7453 125.295L99.8693 125.159L100.223 124.874L100.604 124.652L101.006 124.467L101.617 124.273L101.811 124.181L101.991 124.076L102.295 123.802L102.574 123.503L103.1 122.803L103.374 122.504L103.514 122.399L103.641 122.326L103.774 122.277L103.961 122.244L104.2 122.221L104.724 122.251L105.533 122.385L106.067 122.417L106.49 122.392L107.428 122.211L108.376 122.148L108.647 122.195L108.879 122.268L109.075 122.361L109.398 122.616L110.088 123.348L110.572 124.011L110.715 124.158L110.844 124.324L110.984 124.478L111.108 124.645L115.46 128.18L117.794 129.546L118.571 129.817L120.288 130.082L121.044 130.037L121.491 129.887L122.38 128.991L123.217 127.152L123.496 126.876L123.744 126.75L124.209 126.848H124.527L124.913 126.804L126.378 126.313L126.652 126.32L126.874 126.392L127.878 126.86L128.095 126.928L128.416 126.975L128.823 126.965L129.534 126.823L129.869 126.603L130.133 126.327L130.313 126.018L130.554 125.884L130.886 125.779L131.013 125.594L131.101 125.365L131.553 124.616L131.593 124.383L131.59 124.135L131.551 123.901L131.623 123.606L131.822 123.292L132.447 122.719L132.877 122.415L133.207 122.223L135.076 121.568L135.942 121.549L136.969 121.737L137.863 122.027L138.534 122.319L140.008 123.269L140.609 123.851L140.993 124.326L141.908 125.22L142.415 125.594L142.883 125.641L143.62 125.634L145.309 125.44L145.992 125.255L146.385 125.014L146.444 124.771L146.439 124.544L146.406 124.357L146.308 124.179L146.032 122.45L146.053 122.195L146.177 121.919L146.392 121.786L146.659 121.737L147.962 121.68L148.229 121.563L148.395 121.395L148.435 121.163L148.453 120.908L148.395 120.419L148.308 120.204L147.859 119.509L147.714 119.357L147.532 119.243L147.323 119.154L147.097 119.091L146.83 119.072L145.564 119.226L144.645 119.46L143.662 119.601L143.452 119.608L142.974 119.549L142.518 119.418L142.324 119.334L142.16 119.21L142.062 119.067L142.036 118.854L142.123 118.386V118.129L142.036 117.664L141.879 117.228L141.854 116.976L141.945 116.629L142.116 116.449L142.375 116.316L142.675 116.243L143.105 116.098L143.307 115.923L143.419 115.71L143.391 115.485L143.288 115.301L143.131 115.156L142.336 114.774L142.174 114.648L142.057 114.479L141.999 114.26V114.028L142.025 113.785L142.083 113.553L142.539 112.229L142.85 111.578L143.3 110.884L143.536 110.697L143.779 110.617L143.987 110.675L144.364 110.886L144.598 110.959H144.872L145.237 110.821L145.386 110.612L145.44 110.36L145.386 110.133L145.29 109.941L145.145 109.789L144.684 109.375L144.448 109.024L144.357 108.839L144.287 108.614L144.24 108.378L144.313 108.06L144.481 107.709L145.323 106.619L145.667 105.947L145.941 105.213L146.133 104.876L146.14 104.633L146.067 104.422L145.941 104.242L145.777 104.062L145.805 103.83L145.882 103.549L146.027 103.39L146.177 103.278L147.206 102.85L147.637 102.752L147.864 102.742L148.1 102.784L148.308 102.859L149.286 103.423L149.509 103.5L149.768 103.54H150.03L150.283 103.517L151.621 103.245L151.881 103.229L153.518 103.456H153.535H153.549L153.458 102.913L153.743 102.511L154.272 102.41L154.77 102.604L155.219 103.559L155.659 103.07L155.94 102.359L155.715 102.19L156.157 102.043L156.546 102.097L156.971 102.228L157.517 102.316L157.98 102.094L158.127 101.533L158.188 100.868L158.401 100.34L158.406 100.333L159.33 98.9991L158.803 96.9193L156.777 93.4638V93.4592H156.768L156.204 92.1397L156.637 90.8366L157.348 89.5171L157.57 88.1438L157.566 87.4794L157.83 87.07L158.782 86.2161L159.29 85.3482L159.278 84.6697L158.757 83.1467L158.796 82.3068L159.138 81.8997L159.61 81.6213L160.036 81.1815L160.212 80.6458L160.28 79.3965L160.67 77.2395L160.411 76.2405L159.65 75.5714L158.401 75.1433L158.371 75.0989L158.361 75.0567L158.371 75.017L158.647 74.5397L158.742 74.1022L158.67 73.6835L158.401 73.3045L156.169 72.488L155.381 72.357L153.692 72.4529L152.746 72.6213L152.108 72.9021L151.899 73.239L151.771 74.0999L151.607 74.4625L151.287 74.7339L149.366 75.4077L148.584 75.5644L147.805 75.4802L147.614 74.9094L147.957 74.4227L147.663 73.7419L147.665 73.136L149.417 72.7804L150.072 72.5231L150.61 72.1511L150.77 71.7089L150.4 71.248L149.808 71.2176L148.736 71.4188L148.299 71.2317L147.883 70.9369L147.576 70.6679L147.471 70.5439L147.457 70.2725L147.653 69.0723L147.756 68.8009L149.871 69.0372L150.882 68.9787L151.633 68.4851L152.208 68.8664L152.983 68.9975L153.663 68.8033L153.956 68.2184L153.596 67.3341L152.763 67.1727L151.06 67.6101L149.749 67.4698L149.08 66.5761L149.05 65.3291L149.651 64.1196L150.77 65.3011L151.476 65.6941L152.229 65.6005L152.667 65.0741L152.784 64.3302L152.69 63.5535L152.494 62.9265L152.213 62.503L151.914 62.1708L151.694 61.71L151.633 60.9169L152.533 57.6042L152.545 57.1199L152.356 55.4097L152.442 54.8155L152.781 54.1674L153.32 53.5826L153.612 53.3206L153.638 52.9696L153.352 52.1274L152.849 51.1167L152.781 50.8313L152.863 50.436L153.006 50.1716L153.029 49.9002L152.781 49.4814L153.516 49.3387L154.166 49.4487L154.634 49.3247L154.662 49.1937L154.812 48.4872L154.688 47.6239L154.349 47.3408L153.886 47.2285L153.352 46.8846L152.941 45.7804L153.163 42.7578L153.093 41.3213L153.397 40.7481L153.516 40.0486L153.717 39.3936L154.749 38.6215L153.89 37.908L153.488 37.7138L151.644 38.0226L151.06 38.0297L151.427 37.164L150.987 36.4832L150.271 35.8329L149.799 35.0585L149.857 34.6935L149.997 34.242L149.979 33.7694L149.565 33.3507L149.134 33.2524L148.753 33.3741L148.36 33.5682L147.883 33.6922L147.48 33.6361L146.364 33.1939L146.254 33.3179L146.14 33.5987L145.962 33.849L145.641 33.8817Z" fill="#171619" stroke="white" stroke-width="0.5"/>
<path d="M73.08 325.72H73.88V329H66.04V325.72H67.24L66.92 324.12H64.2L63.88 325.72H65.08V329H58.24V325.72H59.04L62.42 313.44H69.7L73.08 325.72ZM64.64 322H66.48L65.66 318.02H65.46L64.64 322ZM81.6678 329.28C79.1478 329.28 77.2011 328.64 75.8278 327.36C74.4678 326.08 73.7878 324.033 73.7878 321.22C73.7878 315.847 76.4011 313.16 81.6278 313.16C82.8945 313.16 84.0678 313.313 85.1478 313.62C86.2411 313.927 87.0545 314.267 87.5878 314.64V319.64H82.7878V318.2C82.7878 317.693 82.6745 317.32 82.4478 317.08C82.2211 316.84 81.8811 316.72 81.4278 316.72C80.9745 316.72 80.6345 316.84 80.4078 317.08C80.1811 317.32 80.0678 317.693 80.0678 318.2V324.24C80.0678 324.747 80.1811 325.12 80.4078 325.36C80.6345 325.6 80.9745 325.72 81.4278 325.72C81.8811 325.72 82.2211 325.6 82.4478 325.36C82.6745 325.12 82.7878 324.747 82.7878 324.24V322.62H87.5878V327.8C87.0411 328.173 86.2278 328.513 85.1478 328.82C84.0811 329.127 82.9211 329.28 81.6678 329.28ZM96.1014 329.28C93.5814 329.28 91.6347 328.64 90.2614 327.36C88.9014 326.08 88.2214 324.033 88.2214 321.22C88.2214 315.847 90.8347 313.16 96.0614 313.16C97.3281 313.16 98.5014 313.313 99.5814 313.62C100.675 313.927 101.488 314.267 102.021 314.64V319.64H97.2214V318.2C97.2214 317.693 97.1081 317.32 96.8814 317.08C96.6547 316.84 96.3147 316.72 95.8614 316.72C95.4081 316.72 95.0681 316.84 94.8414 317.08C94.6147 317.32 94.5014 317.693 94.5014 318.2V324.24C94.5014 324.747 94.6147 325.12 94.8414 325.36C95.0681 325.6 95.4081 325.72 95.8614 325.72C96.3147 325.72 96.6547 325.6 96.8814 325.36C97.1081 325.12 97.2214 324.747 97.2214 324.24V322.62H102.021V327.8C101.475 328.173 100.661 328.513 99.5814 328.82C98.5147 329.127 97.3547 329.28 96.1014 329.28ZM102.775 325.72H103.775V316.72H102.775V313.44H111.955C113.675 313.44 114.988 313.793 115.895 314.5C116.802 315.207 117.255 316.353 117.255 317.94C117.255 318.833 117.075 319.607 116.715 320.26C116.355 320.913 115.842 321.367 115.175 321.62L115.195 321.82C116.475 322.02 117.115 322.807 117.115 324.18V325.72H118.055V329H111.715V324.3C111.715 323.78 111.635 323.387 111.475 323.12C111.328 322.853 111.088 322.673 110.755 322.58C110.435 322.487 109.975 322.44 109.375 322.44V325.72H110.695V329H102.775V325.72ZM110.455 320C110.842 320 111.128 319.9 111.315 319.7C111.515 319.487 111.615 319.16 111.615 318.72V318C111.615 317.56 111.515 317.24 111.315 317.04C111.128 316.827 110.842 316.72 110.455 316.72H109.375V320H110.455ZM133.451 325.72H134.251V329H126.411V325.72H127.611L127.291 324.12H124.571L124.251 325.72H125.451V329H118.611V325.72H119.411L122.791 313.44H130.071L133.451 325.72ZM125.011 322H126.851L126.031 318.02H125.831L125.011 322Z" fill="#171619"/>
</svg>
