<svg fill="none" height="285" viewBox="0 0 223 285" width="223" xmlns="http://www.w3.org/2000/svg"><g fill="#fdfbf5"><path d="m114.529 192.335-.152.034.092-.075zm1.143-1.13.144.255-.046.114.124-.152.437.22-.071.296-.598 1.143-.312-.204.248-.486-.13-.008-.463-.625-.258.252-.002.268-.176.039.136-.235-.184-.314.104-.128-.052-.158.144-.15.074.05-.078-.161.168-.01.032.081.084-.081.016.082.18-.056.088.151-.102-.233.223.06.154-.076.026-.186zm.116-.51-.032-.038.038.012zm.338-.148.195.108-.113.084.044.112h.111l-.032.172.146.319-.245.178-.15-.086-.006-.141-.012.089-.282-.239-.138-.392zm.038-.723-.038-.044.05-.042zm-1.035-.637-.056-.018.06-.014zm.669-.034.14.018-.066.127.17.322-.038.082-.154-.046.036-.126-.296-.184-.15.21-.291-.148.09-.281.157.078.26-.124zm-.897.127.084-.028.012.226-.22.196.296-.09.068.08-.068.05.249.054-.02.12.094-.166.144.026.098.749.194.022-.032.094-.216-.032-.05.104.078.104-1.087.046.068-.39-.268.008-.145-.118.012-.505.129-.152-.125-.204.313-.16.296-.401.156.114zm1.668-.845.2.008-.118.196.1-.048.022.176.212.102-.172.074-.232-.104-.006.126.288-.004-.044.086.176-.076-.082.11.11.062.016-.24.294.112.239-.086.55.194-.708.815-.064.254.088.163-.541.72-.288.134-.16-.164-.002-.232-.149-.032.067-.172-.107-.034-.038-.138.101-.032.012-.165-.041.145-.238-.024v-.155l.21-.132-.088-.212.114-.152-.088-.05-.01-.274-.062.17-.082-.154.04-.473-.074-.07-.048.22-.166-.092.098-.164-.066-.19-.15-.096v-.11l.57-.088z" stroke="#171619" stroke-width=".5"/><path d="m110.969 204.066.02-.054-.076.022zm-.096-.35.008-.03-.044.006zm-.052.002-.036-.038-.028.012zm-.688-.601-.079-.042.072.136-.082.078.481-.002.304.148.08-.05-.096-.27-.116.076zm-2.673-.072.06-.06-.032-.042zm-.256-.136.056-.026-.076-.038zm.232.064-.052-.15-.084.044zm-.188-.16v-.04l-.016.034zm.248-.04-.032-.064-.044.076zm.108-.188.016-.123-.048.103zm.156-.151-.08-.174.004.13zm.104-.098.12-.132-.16.094zm.281-.094-.133-.058.026.036zm.498-.324-.034-.138-.038.142.11.09zm2.394-.381-.002-.054-.186.063zm-.168-.042-.028-.032h-.05zm-1.838.004-.04-.058-.178.074.074.299zm1.866-.042v-.028h-.028zm.248-.04.006-.058-.038.02zm.765-.232.132-.124.02-.32-.164-.092-.152.532-.224-.054-.036-.086-.024.16-.104-.086.152.154.056.501.092.024.248-.295zm1.598-2.3.052-.1-.08.036zm-4.29-17.663-.381.09-4.156-.024-.62 2.448-1.926-1.151-.751 1.275 2.19 1.29-1.834 3.997-9.9834 3.576 14.9064 10.456.052.182.168-.028.084.184.233.038.14-.236-.124.104-.116-.094-.048-.12.1.068.1-.244-.14.034-.056-.114.136-.266.292-.052-.196.012.072-.193.128-.042-.128-.076.156-.094.08.102.144-.292.072.032-.008.19.19-.312.099.106.124-.056-.341-.158-.2-.457.052-.046.353.303.18-.076.064.12.056-.106.044.1.306-.351.487-.054-.116-.24.2.178.2-.032.054.152-.122-.032-.22.23-.052.285.084.082-.239.24.201-.086.142.2-.114-.022-.006.132-.116-.094-.101.184.022.181.083.046.062-.07.022.086.032-.062.184.188.378-.124.635.21.466-.048-.272-.969.096-.276-.118.17-.054-.541-.222-.146.022-.308.032.072h.308l-.03.182.286-.138.09.046.11-.32.229.026-.084-.371.104-.07.212.118.096-.274.28.286.024.215.08.04.281-.885.408-.409.04-.452-.196-.088.248.042.132-.108.068-.309-.052-.098-.06.102.044-.428.18.054.045-.07.048.13.096-.06.1.078.084.28-.064.311.104.016.208-.953.977-2.383-.012-.258-.264-.018.3-.022.304-1.073.551-.927-.306-.208.248-.486-.13-.008-.463-.625-.258.252-.002.268-.368.091.2-.343-.156-.342-.044-.965-.277-.356.145-.329-.053-.204-.272-.196-.224.164.032-.446-.38-.465.052-.324-.144-.04-.065-.142.057-.092-.405-.299-.116-.34-.216-.082-.349-.451-.42-.206-.496-.564-.257.06-.116-.06-.098.082-.388-.339-.038-.34.26-.166-.012-.132-.148-.084.226-.108-.016-.597-.366.082-.325-.256-.064-.407-.132-.108.066-.182.074.008.016-.797-.122-.314-.116-.026.092-.711-.17-.192-.238-.068z" stroke="#171619" stroke-width=".5"/><path d="m93.7485 169.514-.1501-.122-.3884.022-.1181.168-.4124.006-.0921-.12-.6106.256-.1762-.364-.3883-.328-.4145-.551-.2462-.014-.2943-.188-.6066-.627-.6286-1.077-.9849-1.265-2.0721-1.515-.1121-.291-.2102.389-.4684-.006-.3744.352-2.7046 1.444-.6867-.233-.4224 1.834-.4645.348-.4884 3.838-.3324.022-.026 1.998-.3964.148-.2162-.238-.3583-.158-.2163.13-2.06.132.4124 2.589-.5345.24v.526l-.0981.129-.3643.048-1.5335 1.671v.429l.2542-.08.2342.086.1902-.054.0761.108-.1942.7-.2182.237.0541.176.3042.002.993-.246.2983.09.2442.306.4785.058.1442.168.3303.108.3343 1.498.4605 1.127 13.2629 9.303 9.9814-3.578 1.834-3.993-2.188-1.29.749-1.279 1.928 1.155 3.133-12.442-.447-.154-.272.044-.15-.13-.116.168-.11.012-.243-.416-.172.082-.048-.147-.158-.006-.114-.448-.31.108-.173.23-.302.145-.046.188-.12-.05-.022-.161-.362-.034-.317-.198-.012-.19-.178.066-.166-.078-.681.114-.228.266-.154.024-.725-.118-.104.116-.336.087-.425-.125-.602.381-.3226.068-.1101-.152-.1381.136-.5866.168-.1542-.152.1982-.032.0301-.124-.5826-.086-.1141-.096-.7748-.017-.5665-.224-.2122.098-.6286.052-.0781-.214-.3744-.334-.6947-.128.0161-.22-.2943.076-.2042-.229-.4064-.012z" stroke="#171619" stroke-width=".5"/><path d="m122.218 177.796-.02-.024-.02.004zm.22-.568.119-.15-.145.052zm-.308-.156.006-.122-.044.128-.282.07.224.096zm.461-.144.004-.057-.026.025zm-.261.028-.088-.261-.04.192zm3.878-7.434.104-.178-.128.144zm.184-.108-.016-.142-.12-.168zm-.316-.108-.024-.294-.048.162zm.056-.627-.048-.224.156-.594-.196.616.072.381zm.124-1.141.008-.29-.072.102zm.292-1.343-.012-.1-.044.054zm-.088-.114v-.03l-.028.008zm-.128-.406-.116-.038.108.132zm-.168-.014-.012-.139-.084.002zm.34-.119.064-.172-.036-.04zm-.176-.102.048-.14-.048.032zm.04-.212.104-.144-.108.098zm.196-.244.121-.222-.048.006zm.012-.146.017-.112-.033.08zm-.076-.026-.04-.108-.128.12zm-.272-.122.008-.076-.052.054zm.068-.111-.036-.066-.016.044zm.112-.194-.008-.15-.056.427.124-.141zm-.044-.204-5.723-8.086-13.433 15.209-2.527 9.984 4.156.024.381-.09.156.47.238.068.17.192-.092.711.116.026.122.314-.016.797-.074-.008-.066.182.132.109.064.406.325.256.366-.082.016.597-.226.108.148.084.012.132-.26.166.038.34.388.339.098-.082.116.06.257-.06.496.564.42.206.349.451.216.082.116.34.312.182.101.351.144.04-.052.324.38.465-.032.446.224-.164.268.194.133-.15-.117-.22.305-.144.296-.401.208.22.22-.074.163.147.26-.125.176.046-.062-.186.128-.118-.07-.19-.128-.032-.018-.174.57-.088.369.064.042-.307.088.101.266-.129.072-.238.108-.014.004.076-.292.523.16.17-.036.174.08.136.243.062.202-.084.318.17.406-.246 1.154-2.478.284-1.135.52-1.372-.092-.338-.212.062-.316-.104.316.072.212-.062.04-.451-.112-.25-.356-.078-.144-.136-.156.164-.061-.076-.148.242-.26.036-.088-.154-.112.086-.052-.248-.264-.21.204-.056.128.144.26-.096-.104-.05-.02-.148-.464-.02-.173-.261.004-.166.289-.214.024.094-.136.04.02.196-.08-.026.088.303.124-.022.04-.123.036.073.448-.051.601.581.452.016.685-1.315.512-1.516.813-1.683-.044-.385-.26-.076-.108-.144-.224.208.168-.256-.188-.088.108-.11-.05-.316.078-.071.132.061.15-.139-.106-.21.931-.358-.26.38.188.371-.044.246.122.03-.088.072-.194-.046-.223.166-.044.226.104.03.639-.558.144.022.01-.11.21-.034.006-.101.567-.284 1.329-.927.236-.652-.116-.183.044-.498-.22-.37.072-.355.264-.45-.072.026.028-.136-.132-.182.245.194.46-.559-.024-.666-.112-.255.38-.396-.072-.274.072-.213.172-.178.277-.098.016-.222.188-.232.336-.086.212-.173.109.069.072-.179-.089-.178-.368.325-.36-.053-.317.077-.132.35-.22.148-.056.28-.108.04-.084-.116-.152.176.092.066-.136.095-.036-.569.172-.17-.084.042.096-.913-.052-.474.156-.057.044-.462-.236.072.004-.178.152-.116.128.178.152-.472-.428.236-.076-.174.068-.101.096.061.048-.455.044.266h.104l.12-.496.052-.06-.02.126.12-.284-.032-.118.188-.177-.04-.076-.064.048.048-.238-.26-.486-.092.15-.052-.162-.108-.044.096-.086-.04-.161.172.014-.016-.154-.128-.038.08-.028-.024-.204.096.194.136-.192-.036-.308-.044.092-.104-.056-.16-.287.172.01-.056-.28.216.032z" stroke="#171619" stroke-width=".5"/><path d="m137.119 155.797.124.048-.012.132-.162-.084-.01-.134zm1.397-.182-.112.01.136-.16zm-.466-.188-.034-.056.048.032zm.57.022-.004-.112.06.034zm-.586-.287.188-.016-.251.098-.032-.128zm-.273-.166.084.038-.034.082-.136-.064zm-.402.02-.04-.042.024-.006zm3.339-.164.469.831-.04.108-.893.044-1.089.691-.016-.679.068.006.02-.306.112-.152.436.054-.22-.215.168-.184.457-.01.072-.1.044.094.18-.192.168-.056zm-1.509.062.156-.166-.052.116zm-.076-.152.016-.048.06-.006zm.068-.196.004.048-.14.016zm2.33-.072-.052-.044.044.004zm.192-.03-.036-.038-.004-.042zm.877-.088.096-.01.028.098-.192-.102zm-.26-.038.304.724-.296.303-.365.674-.332.182-.396-.018-.116-.154.172-.232.028.094.056-.124.232-.108.364.112.177-.336-.193.148-.2-.126-.208.054-.128-.07-.369-.515-.152-.602.285.04.16.154.024-.058.056.156h.196l-.128.358.152.096.06-.066-.116-.084.256-.316-.052-.138.184.012.161.204-.177.178.108.138.265-.16-.094-.096.082-.212-.156-.164.074-.092zm.092-1.224-.024-.01.012-.024zm1.619-.034-.254-.014-.054-.154.242-.044.118.108zm-1.447-.368.068.094-.276.12.064-.194zm.817-.028-.144.018.05-.094zm1.057-.182.062.08-.084-.016zm-1.672-.673-.074-.046.056-.052zm.016-.138.05.03-.052-.002zm2.863.282.152-.068.128.154-.232.102-.304-.14-.04-.104.1-.08.02-.216.108.072-.044.204zm-1.732-.366.144.112-.182.324-.328.03-.32.327-.217.008.167.156-.079.09-.332.014-.23-.138-.03-.284-.26-.071.074-.196.33-.112.114.008-.032.178.22.163.02-.389.269.088.202-.19.276-.08-.012-.072zm.641-.671.234.08-.04-.11.1-.022.341.343-.053-.165.109-.036.246.217-.102.092.292-.044-.152-.157.062-.028.182.153.3.064.044.182-.256.28-.04-.122-.2.126-.08-.272-.509-.024-.196.344-.104.004.232.146.056.18-.084.185.188.124-.196.168-.384-.056.1-.084-.112-.028-.02-.208.17-.07-.044-.095-.054.115-.112-.01-.028-.107-.1.034.096.141-.24.114.184.046-.405.146-.228-.024.156-.07.098-.218-.11-.006.096-.415.215-.014-.177-.29.337-.124.118-.228-.106-.081.144-.248zm.504.024-.058-.058.052-.05zm-.104-.048-.05-.072.052.022zm-2.678-.068.036.052-.132.01.044-.204zm4.614-.905.124.034.104.211-.252-.135zm-.472-.336-.076.086.008-.094zm-.429-.204.112.036-.016.138-.108.024-.044-.1-.04.094-.204-.034.156-.056.044-.122zm.589.124-.104-.146.12-.108zm1.846.392-.457.549-.128.022.481-.703.616-.608zm-.533-.833.036.035-.14-.053zm-.26-.062.1.05-.136-.026zm.084-.034.008.04-.084-.028zm-1.578.064.004.087.185-.077.048.127-.653.076.112-.213.06.052.06-.098.128.046.072-.078zm1.446-.042-.04-.044.052-.004zm.809-.196.06.07-.1.154zm-.253.032-.048-.04.1-.006zm-1.569.004-.024.078-.068-.086.072-.084zm.444-.348-.052-.034.072-.06zm.497-.044-.044-.102.052.064zm2.206-.064-.376.368.266-.424zm-2.599-.062-.088.026.04-.056zm.521.022.004-.068.068-.012zm-.324-.11-.04-.046.064-.04zm-.269-.082.028.094-.108.036-.004-.114zm2.747.01-.202.088.088-.116zm-2.763-.127.068.02-.08.059zm3.191-.018-.012-.016.024-.014zm-.388.267.162-.297.082.004zm-2.47-.178.048-.121h.128zm2.786-.109-.016-.014.056-.024zm.167-.254.068-.154.07.012zm.504-.769.068.042-.184.079zm.789-.372-1.071.983.526-.679.371-.198.078-.134zm.036-.028-.016-.028.032-.034zm.204-.232-.016-.012.022-.036zm-.26.004-.016-.036.05-.066zm.304-.094.062-.166v.07zm.457-.313-.033-.006.057-.068zm.184-.358-.02-.006.018-.046zm.028-.072-.024-.004-.004-.026zm.376-.535-.216.275.116-.287.264-.132zm.104-.154-.036-.12.06.08zm-1.774 1.38.069.004-.131.216-.458.356-.056.118.068.04-.162.181-.072.03-.126-.175-.229.101-.006.08.223-.07v.09l.16.076.096-.072-.577.518-.2.391-.234.06-.316.42-.004.176-.197.134-.04.22-.012-.136h-.152l-.172.281-.348.272-.048-.38.152-.179-.048-.308-.249-.084-.06.086-.048-.13-.132.142-.12-.04.06.13-.124.05.04.114-.248-.048.108-.112h-.104v-.12l.14.008-.012-.104.184-.116-.076-.288.068-.099-.268.211.048-.231-.104.081.012-.221-.348.198.12-.27-.096-.034.116-.154-.325.222-.152-.002-.1.21-.268.217-.084-.034-.032.16-.108-.066.004.12-.197.052.036.148-.328.302.024-.108-.292.266-.124-.034-.04.123-.076-.125-.072.253-.117-.239-.338.175-.072-.052-.444.304-.086-.05.016.166-.119-.006.05.15-.076.078.086.066-.088.012.006.227-.044-.183-.094-.002-.066.154-.16.079.022.11-.232.384-.196-.106-.016.122-.171.122-.1-.128.078-.15-.068-.104-.304.148-.06-.28-.132-.112.152-.123-.136-.33.082-.216.094.022-.048-.477.08-.026-.216-.248.104-.022.312-.522.062.084.028-.124.103.04-.021-.233.173-.06.076.078.052-.154.332-.252.072.036-.028-.122.11-.094-.132-.268-.084-.006-.094.23-.338.302-.167-.034-.068.106-.092-.194.004.17-.136.132.094.044-.222.108.068.057-.148-.006-.12-.135.092.219.144.038-.086.162-.09.026-.164-.134.094.154-.118.018-.257.326.073.016.004.256.144.038-.128.277.084.188-.144.166.008.17-.073-.126.044.2-.24.453.136.072.016.228.072.004-.056.254.089.195-.077.126-.128-.133-.06.123.088.09-.116.032-.092-.014-.124-.275.128-.2-.408-.37.048-.048-.116-.012.14-.166.096.056-.096-.118.152.008.052-.213-.312-.022-.112-.32-.357-.022.1-.154-.152.028-.056.166-.116-.016.16-.066-.316.004-.096-.122.124-.252-.12.022-.012-.413-.188.417-.237-.076.068-.191-.092-.242-.216-.112.012-.194-.096.194.172.3-.048.088-.212-.024.012-.082-.364.016.088-.048-.116.006.064-.146-.12.13-.127-.164-.326-.014-.02-.118-.08.106-.15-.054-.022-.124-.094.174.326.11.136.09-.048.08.096-.022.132.153.353.114-.1.12.18-.008.236.136.176-.044.244.172-.044.078.205.016.172.166-.016.082-.168-.028-.089.122-.512.024-.084.143.388-.046.22.106.153-.187.252.115.204-.056.06-.111.212.04-.06.713-.252-.188v-.094l-.204.01.132.102-.18.13.308.118.076.222-.272-.14-.144.201-.457.112.361.024v.112l.316-.295.012.115-.176.13.14.046.124-.122.112.058.06-.06-.044.264.168-.124.165.244-.037.763.157.616-.06.495.08.542.132.219-.457-.179-.076-.278-.052.084-.104-.07-.096.08.044-.268-.132-.062-.032.188-.236.096.188.052.08.194-.452-.024.376.193-.088.022.048.076-.18-.056-.128.172.308.012-.541.142.116-.112-.112-.016-.436.2.268-.244-.432-.06-.367.188-.026-.1-.096-.004-.112.138.108-.006.088.126-.372.304-.064-.314-.132.11-.008-.194.082-.06-.122.022-.116.276-.1.006-.183-.134-.06-.378-.038.356-.118-.16-.144.006-.088-.354-.042.15-.096-.201-.299-.194.023-.092-.205.04.361.275.248.432-.016.204-.058-.082-.13.226-.197.022-.126-.11.104.164h.295l.1.112.198-.21.086.22.348.165-.256-.102-.112.236.222.11.102.222.032-.06.055.23-.199-.264-.45-.17.084-.194-.098-.088-.09.132-.122-.034-.032-.12-.144-.008.2.312-.19-.042-.039-.096-.266.204.25.102.014.3.129-.06.31.106.018-.152.637.274.138.507-.04.156.156.022.024.184.17-.002-.106.182-.192.01.056.111.172-.024-.184.116-.004.128-.184.17.172-.11.092.096-.028-.252.128.01.18-.231-.02-.17.106-.048-.072-.28.182.098-.028-.22.136.226.285.084.148.284-.016.393-.923.733-.166.482-.465-.012-.278.136-1.341.238-4.465-1.411-3.825.012v-2.991l-.833-4.322 13.909-6.376 13.193-1.121-.849.83-.54.863-.26.136-.841.943-.178.098z" stroke="#171619" stroke-width=".5"/><path d="m73.801 140.63-.5765-.006-.1262-.252-.1921.056-.3584-.214-.2502.09-.1902-.064-.5846.288-1.043-.256-.971.839.5726.566 1.003 1.968-.8048.337-.2242-.059-.0921.089-.2342-.05-.5326.078-.1541-.157-.4945.363.3003.698-.2142.004-.2322.343-.7047-.699-.4765.681-.2823.118-.9269.094-.3783.653.084.124-.052.18.1041.082-.1221.142.2462.108.1482.25-.0521.537-.1441.072.3623.589.2423.128.096.228.981.042.2082.262.3624.174.2242.353.07.352.4044.242.1962-.046.1001.092.9289.093 1.8318 1.223 1.6636.638.1642.163-.036.156.1541.092.2903-.014.6046.546.5465.152.8629-.124.6806.188.1722.337.3243.136.014.086-.2122-.024-.1962.116-.3863.541-.1982.102.066.698-.1281.321-.0861.022.0401.142h-.3023l-.1762.23-.2823-.084v.116l-.1641.078-.1162-.16-.0981.016-.1221.22-.1701.058 5.0449 5.87.5745 1.107.2523.288.2042.579.4124.038.1762.386-.1202.347.0701.392.3263.407.5926.156 2.7046-1.444.3744-.352.4685.006.2102-.388.1121.29 2.072 1.515.985 1.266.6286 1.077.6066.626.2942.188.2463.014.4144.551.3884.328.1761.365.6106-.257.0921.121.4204-.011.1101-.164-.5325-.39-.0961-.378h-.2402l-.3003-.807-.2062-.074.0761-.222-.2162-.033.042-.21-.1541-.112.024-.158-.2322-.118.072-.206-.0941-.413-.1701-.148.0841-.31.1881-.18-.8007-1.778-.1922-.723-.3103-.28.016-.14-.1101-.088-.3003-.975-.1762-.076-.1441-.417.1381-.162-.3123-.146-.024-.388-.1982-.355.016-.176-.2042-.076-.1221-.246-.1622-.086-.2742-1.181-.4305-.067-.1401-.224-.1782.002-.0841-.162-.1921-.038-.2283-.893-.2662-.032-.2603-.296-.2262.008-.5445-.348-.4545-.063-.1441-.116-.0421-.216-.1281-.052.0581-.28-.2182-.114-.0601-.168-.2122-.006-.0941-.223-.1521.008-.1322-.712-.1061-.068.1261-.159-.2102-.152-.1021-.398-.1261-.126.028-.224-.4264-.135-.1361-.296-1.1351.385-.038-.479-.1762-.21.1261-1.199-.1281-.291.022-.186-.0941-.246-.2382-.062.0961-.206-.0941-.072.04-.161-.0961-.082.0261-.106-.1642-.1.036-.096-.3243-.731.024-.246-.1201-.176.1922-.581-.2462-.014.018-.214-.1622-.468.0461-.124-.2623-.074-.0681-.143.1402-.288-.2383-.14-.6446-.681-.1742-.356.0521-.226.2162-.002.0761-.271-.2102-.818-.2022-.074.05-.383-.1241-.174-.1962-.002-.018-.328-.3884-.335.0561-.124-.6306-1.181-.2303-.13-.1401-.214-.2002.05-.2562.234.068.29-.3143.271-.1381-.076-.2142-.437-.0901.082-.0681-.078-.2102.054-.02.791-.4364.396-.3444-.7-.036-.479-.1942.048-.2823-.466-.3683-.09-.026-.198-.3964.288-.1061-.02.024-.142-.3524.004.1202-.116-.2383-.099.0841-.126z" stroke="#171619" stroke-width=".5"/><path d="m64.8622 135.105-.3224-.275.1502-.082-.1261-.232-.1802.106-.3684-.638-.3583.084-.7568.536-.3703-.272-.6326.116-.6767-.224-.2302-.228.6006-.649-.4585-.25-.4084-.02-.2182.234.2302.408-.4844.062-.2623-.126-.0541.254-.1781.016-.0421.173-.3703-.104.068.168-.8488-.471-.1361.224.1341.141-.2823.41-.4124-.18-.1741.294-.3664-.064-.1742.583-.5665-.026.046.162-.1421.128-.002.212-.4885.737.1862.044-.0581.042.1262.104.07-.032.3404.494.1481-.04.7047.549.7347.172.4024-.07.2502.074.2483-.156.3323.162.1602-.06.1101.214.2983.154.4404.062.1361.067-.07.094.8848.372.2583-.016.2822.212.0441-.096-.3023-.31-.0901-.377-.3924-.22-.1401-.344-.2062-.222.7067-.661.7827-.32.0761-.094-.2002-.451.4445-.158.1501.382.4464-.174 1.029.224-.072-.142.0881-.224.1141.006.0921-.15.2142-.096.08.034z" stroke="#171619" stroke-width=".5"/><path d="m49.4754 130.853.2462 2.528-5.8877 6.31.6326 1.398.032.272-.1301.412-.1221-.026-.2022.345.016.122-.1541.032-.0681.568-.0981.052.3463.989-.1401.082-.024.174-.1762-.12-.0541.106-.1361-.014.1902.187.042.202-.054.108-.1181-.05.012.148-.1201.078-.0761.483-.2062.164.2022.084-.008.118-.2983.356.024.076.2342.04.002.311.2103-.072.052.264.1301.146.0241.306-.1102.405-.1341-.01-.01.266-.2122-.004.3423.376-.2002.15.1822.445-.1041.21.0741.22-.0861.237.006.692-.1882.663v.865l-.5605.002v.428l30.4216 17.063 3.025 2.056.3844 2.408 2.06-.132.2202-.13.3543.158.2102.236.3003-.062.1041-.092.0241-1.99.3323-.022.4884-3.838.4645-.348.4224-1.834-.2322-.33-.0701-.392.1201-.347-.1761-.386-.4124-.038-.2042-.579-.2523-.288-.5745-1.107-5.045-5.87.1702-.058.1221-.22.0981-.016.1161.16.1642-.078v-.116l.2823.084.1761-.23h.3023l-.04-.142.0861-.022.1281-.321-.0661-.698.1982-.103.3864-.54.1962-.116.2122.024-.014-.086-.3243-.136-.1722-.337-.6806-.188-.8629.124-.5465-.152-.6046-.546-.2903.014-.1541-.093.036-.156-.1642-.162-1.6636-.638-1.8318-1.224-.9289-.092-.1001-.092-.1962.046-.3783-.22-.0961-.374-.2243-.353-.3623-.174-.2082-.262-.995-.046-.0781-.218-.2382-.127-.3643-.584.1441-.102.046-.519-.1481-.25-.2462-.108.1221-.142-.1041-.082.052-.18-.0841-.125.2102-.246-.018-.144.1862-.278-.1762-.06.1222-.232-.1702-.087-.0561-.138.0501-.294-.1101-.052-.1782.134-.4665-.18-2.6305-3.53-.3363-.17-.0901-.162.072-.534.2203-.277-.0781-.156.1401-.296-.6126-.288.0681-.126-.2663-.039-.2702.061-.7848.612-.1341-.194.2922-1.377-.4264-.058-.4304-.213-.1141-.218-.1602.06-.3263-.162-.2542.156-.2503-.074-.4024.07-.8148-.204-.6246-.517-.1481.04-.3403-.494-.0701.032-.1261-.104.058-.042-.1862-.044.0801-.136-.1241-.21-3.3913-.661.4484-.631.4625-1.687-.8909-.669z" stroke="#171619" stroke-width=".5"/><path d="m68.4296 125.546-.2742.024-.1021.136-.1001.919-.4445-.044-.2002.314.5326.174.5145.641.8088.512.1321.29-.2202.157.1201.144.1641-.064-.008.176.1922.238.3464-.382.2442.332-.5826.302.0321.144.4504.057.4224.238.4585.286.2962.426-.6105.447-.933 1.205-.9008-.925-.3504-.108-.2502.036-.4585.242-.2782-.092-.3764.084-.4004.313-.0841.216-.2562.206.2262.45-.1341.385.04.194-.3964.517-.1321.042.0861.21-.1302.066-.002.292-.2282.042-.1161.144-.3083.044-.034.219-.1842.024.016.238-.1501.034-.0161.27-.08-.034-.2142.096-.0921.15-.1141-.006-.0881.225.072.142-1.029-.225-.4464.175-.1501-.383-.4445.158.2002.451-.0761.094-.7827.32-.7067.661.2062.222.1401.344.3924.221.0901.376.3023.31-.0441.096-.2822-.212-.2583.016-.8848-.372-.2363 1.275.1342.194.1101-.036.6826-.58.3704-.068.1581.05-.068.126.6126.288-.1402.296.0781.157-.2202.276-.0561.574.1422.193.2683.1 2.6305 3.529.4665.18.1481-.124.1261.024.004.429.1862.108-.1221.232.1762.076.9269-.094.2823-.118.4764-.681.7047.699.2322-.343.2142-.004-.3003-.698.4945-.363.1542.157.5325-.078.2342.05.0921-.089.2242.059.8028-.333-1.001-1.972-.5725-.566.9009-.831.3963.02.7168.228.5845-.288.1902.064.2603-.09.3483.214.1922-.056.1261.252.6406.034-.068.142.2462.117-.1321.098.3703.008-.02.152.1281-.004.3624-.276.026.198.3684.09.2823.466.1961-.044.0341.475.3443.7.4364-.396.0201-.791.2102-.054.068.078.0901-.082.2142.437.1522.074.3003-.269-.0681-.29.0701-.102.3863-.182-.07-.22-.3444-.261-.3883-.648-.2243-.024-.1481-.204.3023-.199.5045.152.7667-.206.1382-.306.3763-.332.4044-.134-.1301-.173-.1822-.885-.1161.027-.036-.173-.4304-.534-.1922-.124-.4024.04-.1462-.293-.1161-.034-.3783-.983-.5225-.902.034-.117-.4705-.402-.8088-1.415-.2562-.144-.2923.102-.0601-1.226 2.8869-.168 1.1671.991.2062-.684.2122-.251.038-.202.2102-.038.3003-.428.0941-.845-.06-.22.3823-.247-.068-.082.1201-.052-.2042-.204-.2563-.016.1142-.11.064.06-.1481-.304.01-.146.1041-.02-.036-.133-.1582-.092-.004-.164-.0801.014.016-.206-.0941.052-.0961-.212-.2242-.076.1282-.134-.0861-.179.1241-.32.1041-.05-.002-.21.2542-.24-.066-.12.1561-.071-.0741-.42-.2302.048-.0981-.152-.1761-.024-.2463.206-.05-.276-.1962.32-.1682.102-.5846.018-.3303-.917-.1741-.054-.1642.114-.3403.016-.1742.061-.1702.246-.1641-.016-.012.53-.1922.128-.1322.337-.1421.032-.2302-.108-.1181.066-.0961-.132h-.1202l-.062.264-.4104.056-.0721.146-.2763.034.0661.132-.0801.152-.4464.046-.1001-.11-.1722.184-.1181-.024-.2602.257.014.328-.2643.088-.0961-.292-.2402-.054-.2002.15-.4584-.372.046-.207-.5405-.114-.1242-.156-.2882.072-.2583-.098-.022-.216-.2843.116-.2662-.084-.0981.11-.0701-.142-.2863-.122h-.6706l-.1101-.082.054-.098-.1101.006-.1902-.407-.1021-.046-.004-.24-.3784-.354z" stroke="#171619" stroke-width=".5"/><path d="m53.8575 128.264.1661.086.1442-.056.1942.156-.1121.261.1501.116.1001.276v.348l.1822.082-.1962 1.222.0801.38-.4265.763-.062-.028-.4444.538-.6206 2.266-.4485.631 3.3913.661.1241.21.4084-.601.002-.212.1422-.128-.026-.186.5465.05.1742-.583.3663.064.1742-.294.4124.18.2823-.41-.1342-.14.1362-.225.8488.471-.0681-.168.3704.104.042-.172.1782-.016.054-.255.2623.127.4845-.063-.2302-.408.2182-.234.4084.02.4584.25-.6006.649.3924.306.5205.146.6266-.116.3704.272.7567-.536.3584-.084.3683.638.1802-.106.1261.232-.1501.083.3223.274.1281-.024.01-.262.1842-.024.0341-.219.3082-.044.1162-.144.2602-.084-.03-.25.1301-.066-.0861-.21.1322-.042.4004-.533-.0441-.178.1341-.385-.2262-.45.7127-.723.4044-.096.2783.092.4584-.242.2623-.032.3383.104.9009.925.3984-.456-.2743-.054-.1962-.243-.1041.04-.1922-.094-.1982-.262-.0941.04-.9108-.983-.4084.164-.2503-.142-.3503.328-.4244.169-.3304-.167-.048.197-.4044.19-.4384-.11-.1882.096-.1402-.24-.1821-.109-.4064-.042-.2923-.156-.4204.156-.2803-.058-.2903-.39-.8528-.691-.2903-.066-.2062-.354-.8528-.553-.1041-.3-.2863-.034-.1161-.3-.1402.03-.074-.11-.2583-.052-.1201-.157-.3884-.092-.2722-.27-.3644-.146-.6326-.455-.5265-.05-.1842-.266-.3704-.236-.6886-.833-.2803-.126-.2623.186-.1641-.064-.8408.821.2062.484-.6527-.066.0781.449.1622.258-.2183.501-.5045.342.1362.144z" stroke="#171619" stroke-width=".5"/><path d="m15.5282 123.163-.6627-.268-.3403.034.014.172-.0861-.04-.5465.194-.3403.727-.1222.833-.1721.266-.3604.02-.0941.058.0861.102-.4244.29.026.165-.1201.036.1942.082.1261.236-.4064.404-.2522.623-.6226-.487-.8369-.454-.09.054.1321.266-.2222.309-.90291.176-.02802.128-.32032.076-.42241-.559-.68266-.462-.27427-.07-.36436-.579-.39638-.282-.20621-.342-.21621.294-.25424-.104-.13213.23-.15415.016-.16817-.126-.33632.248-.06607-.116-.25625.208-.2042-.1-.31631.086-.32031.403h-3.05498l.13614 3.978 1.63759.026.17818.166.08808.558.17217.138.25225-.074.44843-.364.2042.028 12.94064 7.287-.8408-3.573-.3083-.05-.0401-.233-.3603-.244.022-.204-.4424-.294.05-.215-.1241-.588-.1482-.192-.1421-.479.0601-.264-.4044-.438-.1282-.659 1.0331-.991-.1862-.054-.2843-1.295.2562-3.422.2543-.494z" stroke="#171619" stroke-width=".5"/><path d="m60.526 122.052-.5205-.03-.3123-.288-.1301.036-.5425-.307-.1342-.192-.5145-.082-.6406.102-.2522-.1-.2543.1-.3023.319.032.682-.1181.551.0381 1.003.2902 1.265.2903.338-.2983.014.0821.153-.036.374.3703.236.1842.266.5265.05.6327.455.3643.146.2723.27.3884.092.1201.157.2582.052.0741.11.1221-.042.1341.312.2863.034.1041.3.8529.553.2062.354.2902.066.8529.691.3383.406.2322.042.4204-.156.2923.156.4064.042.1822.108.1401.241.1882-.096.4384.11.4044-.19.0481-.197.3303.167.4244-.169.3504-.328.2502.142.4084-.164.9109.983.0941-.04.1982.262.1922.094.1041-.04.1962.242.2742.055.5345-.749.6106-.447-.2962-.426-.4585-.286-.4224-.239-.4504-.056-.0321-.144.5826-.302-.2442-.332-.3464.382-.1922-.238.008-.176-.1641.064-.1201-.145.2202-.156-.1322-.29-.8087-.512-.5145-.641-.5326-.174.2002-.315.4445.045.0961-.907.1061-.149-.1182-.108-.1181-.516.1021-.062.1842.062-.1621-.144.066-.056-.1782-.341-.1321-.06.0961-.076-.1041-.262-.0981.01-.04-.1.032-.224-.1541-.297.018-.188-.2222.11-.2703.315-.2583-.503-.4064.074-.046-.266-.1481-.092-.0061-.272-.2922-.002-.0581.112-.2262-.062-.3544.11-.2662-.048-.1742-.086-.036-.185-.7988-.348-.2102-.308-.4364-.066-.2202-.136-.3864-.01-.1882-.165-1.3113.569-.002.098z" stroke="#171619" stroke-width=".5"/><path d="m20.0186 119.884-.2583.19-1.6396.665-.3143.272-.9449.336-.3684.517-.4744.08-.3544.587-.1581.732.1481.701-.2543.494-.2562 3.422.2843 1.295.3563-.004.5085.158 6.7466-1.675-1.3834-2.331-.4264-.244-.3183-.012-.2162-.29-.1702.022-.6806-.435-.3424-.336-.2342-.066-.0781-.268-.2602-.12-.2643.058-.1661-.299.2542-.164.2703.084-.0541-.358.1262-.402.3163-.323.064-.232.2182-.17.1061.01.3884.48.0741-.168.1201.17.1281-.098.0661-.288-.2342-.206.06-.1-.1781-.221.2302-.674-.02-.339z" stroke="#171619" stroke-width=".5"/><path d="m36.5848 121.97-.1902.935-.2443.224-.0981.346-.2162.101-.1621.342-.3524-.374-.5185-.253-.2823-1.669-3.8137 1.135.5906 1.529 2.086 1.674-.4544.384-.4344.142-.1602.189-.05.306-.1602.164-.1461.01.012.19-.1161.084-.004.136-.0421-.066-.1441.036-.1522.105.0261.14-.1822-.002-.008.164-.1242.032.0741.242-.0921.038.0421.28-.1001.273-.3484.044-.1021.176-.4044.054-.2402.31-.2242-.206-.0901.256-.0901-.14-.1261.142-.1241-.054-.0701.096.0561.082-.3444.12-.0981.205h-.1501l-.5886.334.006.068-.1882-.038-.066.152-.1882.028-.0301.102-.1781-.012-3.1531-2.552-1.3854-.32-6.7465 1.675-.5706-.146-1.1411 1.037.0881.555.4444.542-.06.264.1421.479.1481.192.1242.589-.0501.214.4424.294-.022.204.3604.245.04.232.3083.05.8408 3.573 25.4088 14.324v-.428l.5606-.002v-.865l.1881-.663-.006-.692.0861-.237-.0741-.22.1041-.21-.1821-.444.2002-.151-.3424-.376.2122.004.01-.266.1342.01.1101-.405-.024-.306-.1302-.146-.052-.264-.2102.072-.002-.311-.2343-.04-.024-.076.2983-.356.008-.118-.2022-.084.2062-.164.0761-.483.1201-.078-.012-.148.1181.05.0541-.108-.0421-.202-.1901-.186.1361.014.054-.107.1762.121.024-.175.1402-.082-.3464-.989.0981-.052.0681-.568.1541-.032-.016-.122.2022-.345.1221.026.1302-.412-.0321-.272-.6326-1.398 5.8878-6.31-.2463-2.528-1.4274-2.725-1.1811.406-.2082-.358-.1702-.002.0861-.144-.4044-.721-.2342-.707.6026-.646.054-.389-.1621-.128.2001-.256-.6226-.426-.1521-.605-.2242-.048-.8328-.725-.0541-.728-1.3793.786-.3504-.308-1.3052 1.017-.3404-.174.01-.18-.7627-.939-.3023.016.056-.14-.068-.128.7867-.038.6907.61.6426-.707-.7126-1.449-.2143-.03-.072-.106-.5706-.074-.2983-.411-1.1571-.648.1541-.439-.058-.12-.4284.2-.0601-.382-.2302-.03-.5606 1.618-.6746-.116-.4264.442-.1442.01-.012.544z" stroke="#171619" stroke-width=".5"/><path d="m23.8062 119.85-.3704-.048.014-.252.1342-.106.0921-.651-.2543-.547-.2502-.142-.3744.309-.6426.278-.6006.476-.7127.367-.4544.104-.3684.246.4164.45.02.339-.2302.674.1782.221-.0601.1.2342.206-.066.288-.1281.098-.1202-.17-.074.168-.3884-.48-.1061-.01-.2182.17-.0641.232-.3163.323-.1261.402.054.358-.2702-.084-.2543.164.1662.299.2642-.058.2603.12.0781.268.2342.066.3423.336.6807.435.1702-.022.2162.29.3183.012.4264.244 1.3834 2.331-.0241-.181.1261-.192.1482.05-.0861-.532.2082-.044.2543.16.9369-1.043-.8709-1.886.1782-.176.3003-.106-.3383-.719.004-.222.1601-.292-.1241-.233.1001-.328-.2903-.637.0941-.562-.0621-.122.0741-.05-.0941-.239.1662-.292z" stroke="#171619" stroke-width=".5"/><path d="m29.3355 117.996-.1341.198-.3603.166-.5506-.146-.3243.13-.5445-.042-.2803.665-.1882.212.2302.094-.038.173-.6807.12-.068-.11-.0661.03-.0941-.241-.1181.04-.1822-.148-.1601.044-.1642-.194-.1321.182-.0521-.086-.2682-.04-.2923.182-.1041-.032-.0521.132-.2562-.014-.2122.345-.2963.03-.1201.098.074.228-.1661.288.0941.239-.0741.05.0621.122-.0941.562.2963.683-.1061.282.1241.273-.1602.252v.238l.3343.703-.3002.106-.1782.176.8708 1.886-.9369 1.043-.2542-.16-.2082.044.086.532-.1481-.05-.1261.192.024.181 1.3854.32 3.161 2.556.1702.008.03-.102.1882-.028.0661-.152.1882.038-.006-.068.5885-.334.1462.004.1021-.208.3443-.121-.056-.082.07-.096.1241.054.1262-.142.0901.14.066-.25.1061.124.1201-.024.0221.1.2402-.31.4044-.054.1021-.176.3483-.044.1001-.273-.042-.28.0921-.038-.0741-.242.1241-.032.008-.164.1822.002-.026-.14.1521-.105.1442-.036.042.066.004-.136.1161-.084-.012-.19.1462-.01.1601-.164.0501-.306.1601-.189.4344-.142.4545-.384-2.086-1.674-.5906-1.529 3.8137-1.135-2.7126-4.459-.8429.797-.1801-.106-.1882.078-.2062-.064-.0941.08z" stroke="#171619" stroke-width=".5"/><path d="m12.4411 115.84-1.2212.687-1.96995 1.683-.32832.154-.27227-.038-.23623-.208-.84883-1.513-5.8457-.006-.39238 2.354-.16216 2.142.16616 4.815h3.05498l.32032-.403.3163-.086.2042.1.25625-.208.06607.116.33633-.248.16816.126.15415-.016.13213-.23.25425.104.21621-.294.2062.342.39638.282.36436.579.27427.07.68266.462.42242.559.32031-.076.02802-.128.90291-.176.2222-.309-.1321-.266.0901-.054.8368.454.6226.487.2522-.623.4064-.404-.1261-.236-.1942-.082.1201-.036-.026-.165.4244-.29-.0861-.102.0941-.058.3604-.02.1721-.266.1222-.833.4164-.797.5565-.084-.014-.172.3403-.034.6627.268.1361-.633.3543-.586.4745-.08.3684-.517.9449-.336.3143-.272.6987-.345.9409-.32.6266-.436.4544-.104.7127-.367.6006-.476.6427-.279.3743-.308.0361-.13-.2123-.298-.1521.27-.2743.066-.058.108-.2423-.076-.4984.128-.4024-.082-.0121-.182-.2982.008.02-.358-.4204.174-.1242.154-.048-.094-.3804-.054-.0861.064-.088-.108-.6787-.084-.022-.337-.2423-.394-.2482.058-.1582-.126.0481-.128-.1441-.002-.0541-.178.1481-.036-.092-.173-.0841.02-.2503-.264-.1741.076-.1102-.482-.9649-.629-3.4814.274z" stroke="#171619" stroke-width=".5"/><path d="m81.4004 118.37-.1581-.044v-.182l-.2563-.022-.1581-.184.014-.152-.2302-.106.1421-.427-.1361-.088.1001-.262-.1662-.204-.2602.138-.0601.322-.1101.088.022.245-.2823.144-.1281.282-.2743.022-.1021.092.0441.066-.5425.481-.3464.206-.5105.046-.3763-.072-.1602.102-.2422-.008-.1482-.144-.3784-.1-.2382-.235-.4024-.094-.6326-.652-.5726-.11-.3403-.287-.6186-.178-4.9248-4.178 2.3143 5.151.024.505-.0741.2.1041.128-.0781.646.1182.257-.0401.306.3544.36.1141.403.4604.224.0921.34.1221.11-.1461.357.2282.304-.3043.701.1081.366-.072.346.1041.161-.0141.414.1722.07.1782.272-.4545-.114-.2062.088-.02.116-.4604-.054-.3944.293-.3584.014-.5005.23-.1241-.038-.022.1-.2022.108-.6366-.104-.1962-.284-.8408.122-.1802.448.02.148.3704-.05.3763.345.0181.256.4664.631.6627-.004.2862.122.0701.142.0981-.11.2663.084.2842-.116.0221.216.2582.098.2883-.072.1241.156.5406.114-.0461.206.4585.373.2001-.15.2403.054.0961.292.2642-.088-.014-.329.2603-.256.1181.024.1722-.184.1001.11.4464-.046.0801-.152-.0661-.132.2763-.034.072-.146.4104-.056.0621-.265h.1201l.0961.133.1181-.067.2303.109.1421-.032.1321-.337.1922-.128.012-.53.1642.016.1701-.247.1742-.06.3403-.016.1642-.114.1742.054.3303.917.5846-.018.1681-.102.1962-.32.0501.276.2462-.206.1762.024.1181.156.0801-.074.6626.012.2262-.14-.07-.174.0801-.249.1761-.07-.038-.22.2442-.19.2483-.585-.0761-.416-.2462.01.092-.455-.1821-.092-.0361-.712.5786-.433-.4244-.548-.3604-.283.0941-.552-.1081-.387.6386-1.401.3824-.502.0681-.247z" stroke="#171619" stroke-width=".5"/><path d="m71.3405 120.08.034-.318-.1181-.257.0781-.646-.1041-.128.074-.2-.024-.505-2.3142-5.151-2.05 5.309.004.174-.1242.1.006.179-.1201.082-.3763-.012.04.808-.3043.179.1281.306-.4324.542.0621.413-.1201.242.3143.499.1741-.006.1942.204.012.264-.0881.028-.034.21.0901.124-.1521.04.008.285.1481.092.046.266.4064-.074.2683.504.2603-.316.2242-.108-.02.186.1541.297-.032.224.04.1.0981-.01.1041.262-.0961.076.1322.06.1781.341-.066.056.1621.134-.1882-.052-.0981.076.2162.6.1802-.586.8408-.122.1962.284.6367.104.2022-.108.022-.1.1241.038.5005-.23.3583-.014.3944-.293.4605.054.02-.116.2062-.088.4544.114-.1781-.272-.1722-.07.014-.414-.1041-.161.0721-.346-.1081-.366.3043-.701-.2283-.304.1462-.357-.1221-.11-.0921-.34-.4605-.224-.1141-.403z" stroke="#171619" stroke-width=".5"/><path d="m91.5102 111.348-.2822-.115-.3324.117-.1961-.056-.2503.266-.6947-.487-.3383.088-.4084-.28-.4304.657-.1562-.038-.1681.212-.4244-.178-.5806.368-.1762.429-.1001.056-.02.326-.1822.002-.07.132-.1602.052-.0781.741-.3844.68-.006.233-.3803.088-.1602.338-.4344.378-.2483.067-.2682-.095-.8629.03-.4124-.15-.5385-.018-.0881.393-.2602.482.1221.25-.1241.064-.1542.345.1221.21-.2102.19.1362.262-.0901.091-.1001.602-.2623.284-.3403.066-.0721.299-.3463.422-.6386 1.39.1081.398-.0961.544.3623.291.4244.548-.5785.433.036.712.1822.092-.0921.455.2462-.01.0761.416-.2482.585-.2443.19.0381.22-.1762.07-.0801.241.0661.186-.2402.142-.5145.004.074.42-.1561.07.066.12-.2482.231-.004.22-.1041.05-.1241.32.0901.168-.1282.159.2202.062.0961.212.0941-.052-.016.206.0861-.006-.002.156.1962.206-.1241.074.1561.415-.064-.06-.1142.11.2443.012.1181.074-.012.096.1081.008-.1181.082.068.082-.3823.246.06.221-.0941.845-.3003.428-.2102.038-.038.202-.2122.25-.2062.685-1.1671-.991-2.8869.168.0601 1.225.4144-.084.3203.379.3163.726.5265.689.2503.15-.034.116.1141.097.0881.366.3203.44.3783.983.1161.034.1422.291.4144-.034.4564.424.1942.402.1161-.026.1822.885.1301.172-.4044.134-.3763.333-.1382.306-.7667.206-.5045-.152-.3023.198.1482.205.2242.024.3884.648.1861.214.1462.03.2222.451.2302.13.6306 1.181-.056.124.3884.335.018.328.1962.002.1241.174-.0501.382.2022.075.2102.818-.076.271-.2162.002-.0521.226.1742.356.6446.681.2382.14-.1401.288.0681.142.2622.074-.046.125.1621.468-.018.214.2463.014-.1922.581.1201.176-.024.246.3243.731-.0361.096.1642.1-.026.106.0961.082-.0401.16.0941.073-.0961.206.2383.062.0941.246-.0221.186.1282.291-.1262 1.199.1762.21.038.478 1.1352-.384.1361.296.4264.134-.028.225.1261.126.1021.398.2102.152-.1261.158.1061.069.1321.712.1522-.008.094.222.2123.006.06.169.2182.114-.058.28.1281.052.042.216.1442.116.4544.062.5446.349.2262-.008.2602.296.2663.032.2282.893.1922.038.0841.162.1781-.002.1402.224.4304.066.2743 1.182.1621.086.1222.246.2041.076-.016.176.1982.354.024.389.3124.146-.1382.162.1442.417.1761.076.3003.975.1101.088-.016.14.3103.28.1922.723.7988 1.767-.1902.199-.0801.302.1702.148.0941.413-.0761.198.2362.126-.024.158.1542.112-.0421.21.2162.032-.076.223.2062.074.3003.806h.2402l.0961.379.5325.39.3964-.022.4805.254.4144.014.2122.231.3063-.068-.004.228.6706.112.3744.334.0781.214.6286-.052.2122-.098.5665.225.7748.016.1141.096.5826.086-.0301.124-.1982.032.1342.15.2903-.036.4544-.266.1101.152.3227-.068.602-.381.425.125.336-.087.104-.116.725.118.154-.024.214-.262.663-.116.198.076.178-.066.02.196.32.196.297.012-8.977-12.636.3924.148.7727-.094.5826-.354.0561-.144.3123-.212.0961-.239.3683-.086.2983-.186.2322.024.1161-.25.1482-.024 4.4027-8.525-1.136-4.23.509-.174.316-.344-.925-12.917-2.474-5.435z" stroke="#171619" stroke-width=".5"/><path d="m98.2048 111.225-.3323.06-.7508-.234-.4804-.406-.1462.28-.5065-.172-.1701.136-.1942.004-.5406-.466-.2002.084-.6666-.317-.2923-.034-.2402.309-.0301.226-.2082-.002.0181.236-.2223.17-.6146-.072-.1561.319-.4705.202-.4104-.293-.08.093 7.9177 13.717 2.474 5.435.925 12.917-.316.344-.509.174 1.136 4.23-4.4027 8.525-.1481.024-.1162.25-.2322-.024-.2983.186-.3683.086-.0961.239-.3123.212-.0561.144-.5826.354-.7727.094-.3924-.148 9.049 12.668.004.147.148.038.018-.176.302-.145.172-.23.329-.106.096.446.158.006.048.147.172-.082.242.416.111-.012.116-.168.15.13.264-.046.18.108.241-.014.026.146 13.455-15.285 5.789 8.182.237-.274-.145-.12-.17.084.14-.437.397-.042.056.251-.096.116.07.064-.212.204.116.046-.084.064.046.088-.177.058.149-.012-.052.156.068.038.744-1.099.573-.57-.048-.118.2-.261.42-.346.997-.578-.22.224-.752.41-.193.256-.176.002-.134.277 1.247-.907 1.428-.737 1.223-.476 1.103-.191-.461-.18-.67.329-.313-.056-.002-.159.221-.048.152-.376.13.158.086-.028-.156-.216.178.08.076-.124.238-.016-.016-.092.082.058-.016.156.137.062-.01-.206.202.046.126.17-.148.226.052.06.164.012.262.241.31.036.441.284.601.174.144.014.656-.426.715-.831 1.105-.775-1.343.238-4.459-1.409-3.829.01v-2.991l-.899-4.677-.152-.29v-.404l-.219-.417.068-.47-.038-1.47-.49-.79-.106-1.195.262-.799-.252-.531.034-1.057-.118-.735-.214-.428-.569-.671-.194-.9-.358-.673-.329-.07-.642.398-.125-.068-.022-.1.135-.042-.123-.35.064-.144-.114-.063.094-.396-.062-.166-.132-.046-.052-.421-.258-.43.114-.1-.108-.284-.142.02-.026-.267.216-.374-.148-.094-.142-.495.14-.128-.102-.152.144-.146-.032-.176.142-.104-.064-.15-.146-.05.132-.291-.252-.034.094-.096-.088-.136.096-.232-.188-.05-.036-.206-.189-.002.024-.185-.364-.51-.14-.463-.218-.116-.024-.152-.146.034-.081-.074-.13-1.029-.146-.034-.102-.226.074-.128-.178-.14.088-.179-.274-.286-.012-.426-.178-.022-.074-.102.116-.221-.136-.246.174-.074-.156-.114-.109.028.03-.366-.248.144-.01-.232.19-.199-.116-.18-.238-.032.076-.204-.256-.368.082-.102-.118-.093.192-.116-.166-.218.156-.438-.198-.13-.054.196h-.098l.028-.13-.122-.157.212.016-.04-.388-.192-.172.128-.132-.337-.012.177-.216-.183-.008.044-.237-.298-.082-.074-.108.148-.086-.146-.162.17-.068-.03-.18.164-.08-.32-.133-.054-.178.122.026.022-.448-.148-.024.052-.2-.104.07-.09-.138-.048-.201.086-.204-.188.016-.03-.228-.19.026.044-.194-.263-.457.15-.332-.22-.036-.182-.196-.13.08-.194-.182-.022-.168-.156.122-.679-.042.064-.189-.138.073-.012-.145-.14-.082.016-.456-.211.114-.072-.2-.182.032-.038-.222.134-.026.012-.099-.424-.302-.144-.188-.004-.234-.188-.11-.036-.381.13-.272-.319-.228-.002-.152-.094.084-.074-.054.066-.601-.24-.004.034-.23-.116-.076-.006-.292-.098-.069.104-.142-.08-.104.054-.106-.144-.036.046-.098-.088-.212-.138.056-.054-.148-.325-.16-.38-.773-.148.086-.19-.154-.103.19-.162.038.096-.322-.148-.094-.242-.581-.154.02-.036-.104-.226-.054-.147-.168-.048-.239-.284-.21-.166-.016-.352-.402-.417.014-.124.1-.068-.14-.256.042-.433-.557-.162.116-.034-.176-.27.148-.104-.204-.186.018.064-.246-.291-.25-.166.132-.19-.07-.268.102-.138-.08-.359.186-.054-.156-.164.06-.378-.066-.022-.168-.251.044-.226.21-.384-.148-.256.03-.145-.206-.572.072-.026-.215-.258.024-.01-.21-.369-.24-.076-.202-.476-.465-.176-.37-.587.146-.314-.214-.257.25-.116-.004-.08-.124-.214.208-.3-.008-.1.467-.245.074-.328.264-.146-.022-.22-.246-.411.194-1.2949-.038-.967-.298z" stroke="#171619" stroke-width=".5"/><path d="m68.9663 112.875-3.5475-2.286-.1361.352-.945-1.037.008-.25-.1161.178-.1581-.02-.2343.238-.5425.783-.9569.457.1401 1.263.2062.214.2563.092-.0441.531.2463.08-.1962.809.0921.212-.2082.338-.2603.138.1522.315-.2082.496-.4825-.228-1.6716-.491-.1782-.224-.2823.106-.3423-1.133.2502-.002.3804-.398-.2503-.457.0581-.228-.6106-.156v-.643l-.7667.062-.5165.16-.0341-.108-.2202.231-.7267.174-.1021.144-1.067.328.5685.427h-.1441l.066.222-1.3893 2.522-.1241.465.1441.436-.2482.329.5865.332-.1601.284.5565.643-.034.51.2763.078.03.345-.1862.682.1321.168.1562 1.011.2002.107.008.286.3483.546.1462.125.054-.081-.042-.688.3283-.373.2543-.1.2522.1.6306-.104.5245.084.1342.193.5425.306.1301-.036.3123.288 1.2252.024.002-.098 1.3053-.569.1942.165.3863.01.2203.136.4364.066.2102.308.7988.348.036.185.1742.086.2662.048.3544-.11.2262.062.0581-.112.4404-.046-.0881-.129.034-.21.0881-.028-.022-.288-.1842-.18-.1741.006-.3063-.445.1121-.296-.0621-.412.4324-.543-.1281-.306.3043-.178-.04-.809.3763.012.1201-.082-.006-.178.1242-.1-.004-.175z" stroke="#171619" stroke-width=".5"/><path d="m13.4561 110.158-.1001.11-.8689.181-.5065.25-.9769.721 1.4374 4.42.9809-.551 3.4814-.274.965.629.1101.482.1741-.076.2503.264.0841-.02.092.173-.1481.036.0541.178.1441.002-.0481.128.1582.126.2482-.058.2423.394.022.337.6787.084.0881.108.086-.064.3804.054.0481.094.1241-.154.4204-.174-.018.36.2262-.034.0821.038.004.172.5865.082.3103-.132.2483.074.052-.106.2743-.066.1822-.262-.0821-1.055.8869-.885.1081-1.199.1121-.377.1782-.14.6306-.142.4884-.911.1882.148.3444.056.1661-.07.4024.066.0601-.122.3483.118.2282.182.0701.387.2643-.008.0941.142.1641.014.0581.228.2702.214.01.195.1762.086.5566.01.3083.21.5705-.248-.2362-.885-.002-.321-.6907-.004-.1281-.218-.1822.016.0861-.178-.1441-.244-.1422.156-.3403-.643-.3363-.018-.2002-.26v-.779l-.1081-.602-.3023-.168-.2443-.056-.6466.098-.1922.16-1.031-.713.022.461-.1301.102-.0741.268-.3864.24-.1261.232-.3123-.664-.8648-.12-.3484-.191.008.095-.2202-.004-.2822.154-.2363-.108.0461.082-.6306.114-.0761-.066.026-.132-1.8918.034-.3524-.113-.1061-.2.5385-.736-.2402.04-.1802.218-.1241.018-.3243.344-.1261.286-.3584-.076-.1681.317-.1502-.174-.1441.022-.2463-.385-.2542.076-.1362.228-.2782-.018-.1442.113.0721-.319-.5565.078-.5065-.276h-.4725l-.2002-.26-.3003.222.0641.17-.1922.479-.1341.094-.2162.084-.0741-.096.032-.391-.1621-.006-.1442.128z" stroke="#171619" stroke-width=".5"/><path d="m31.4817 109.342.054.134-.4804.272-.1962.593.4064 1.075-.4365.18-.6125.462-.6126-.016-.6607-.456-.5585.254-1.0731.144.2002.261.3363.018.3404.642.1421-.156.1442.244-.0861.178.1821-.016.1282.219.6906.004.1982 1.275-.5385.178-.3003-.21-.5525-.01-.1782-.084-.012-.196-.2703-.215-.058-.228-.1642-.014-.0941-.142-.2642.008-.0701-.386-.5726-.301-.064.122-.4024-.066-.1662.07-.3443-.056-.1882-.148-.4885.911-.6306.142-.1782.14-.1121.377-.1081 1.199-.8868.885.082 1.055.1822.276-.032.154.2462.132.2543.547-.2303 1.021.3604.036.1401-.164.2963-.03.2122-.345.2563.014.052-.132.1041.032.2923-.182.2683.04.052.086.1302-.182.1661.194.1602-.044.1822.148.1181-.04.0941.241.066-.03.0681.11.6807-.12.038-.173-.2302-.094.1882-.212.2802-.665.5446.043.3243-.131.5205.151.3824-.165.2182-.252.3243.064 1.049-.158.1902.104.8328-.795-.7728-1.259 1.1372-.494.6686-.175.4364.023.0721-.211.8669.453-.0641.422.2362.092.2242-.608.1902.112.0581.208.1381-.096.1802.102.2142-.122.018-.242.2843-.086.2242-.705-.038-.591.1141-.034.048-.214.1942-.106-.1581-.066.0981-.449-.3143.034-.1402-.268-.1561-.018h-.3003l-.2843.168-.2022-.238-.0561-.354.0341-.136.1041.008.3824-.401-.1702-.232.012-.14.1762-.068.3283-.401-.1121-.136.0761-.078-.1242-.284-.4404-.072-.5545-.495-.7808.014-.4124-.478-.1361-.008-.0501.146-.6967-.136-.3923.094-.0241-.088.2543-.096-.1101-.15z" stroke="#171619" stroke-width=".5"/><path d="m86.5334 109.46-.1881-.142-.3164-.056-.4724-.413-.3744-.012-.0781-.138-.1861.198-.1922-.03-.2443.391-.1081-.06-.1781.15-.3043-.076-.2163.052-.2902-.507-.1382-.03-.1181-.166-.4264-.154-.6787.042-.2742.414.2042.136-.1762.221-.1582.022.0421.152-.1201.254-.3864.026-.3363-.088-.1642.577-.1521-.002-.2183-.165-.3843.032-.0781.137-.036.234.2802.77-.2562.723.1101.078-.0681.084.1121.159-1.2132.82-.2422-.15-.1321.088-.1902-.056-.3724.637-.1101-.006-.2382.23-.991.168-.3483-.066-.0761.244-.3683-.084-.0701-.104-.3083-.026-.1962-.222-.2382-.004-.2383-.224-1.2652-.036-4.3983-.607 4.9248 4.178.6186.178.3403.287.5726.11.6326.652.4024.094.2382.235.3784.1.1482.144.2422.008.1602-.102.3763.072.5105-.046.3463-.206.5426-.481-.0441-.066.1021-.092.2743-.022.1281-.282.2823-.144-.022-.245.1101-.088.06-.322.2603-.138.1662.204-.1001.262.1361.088-.1261.453.2142.08-.014.152.1581.184.2743.036-.034.134.1021.106h.3983l.3924-.318.1001-.602.0901-.091-.1361-.262.2102-.19-.1221-.21.1541-.344.1241-.065-.1221-.25.2603-.482.1041-.411.5225.036.4124.151.8628-.031.2683.095.2482-.066.4345-.379.1601-.338.3804-.088.006-.232.3844-.681.078-.741.1602-.052.0701-.132.1821-.002.0201-.326.1001-.056.1761-.429.5866-.37.4304.178.1562-.21.1581.036.0521-.176.2162-.175.1601-.304-.1701-.072.054-.112-.2963-.4-.6406-.203-.1101-.002-.0941.137-.3083-.233-.046-.244-.1582-.042.0581-.112-.3303-.136-.2923.088z" stroke="#171619" stroke-width=".5"/><path d="m55.9516 112.915-.0741.022-.4184-.911-1.2852-.1-.1862-.216-.1441-.028.1061-.216-.2583-.246.2863-.471.2963-.22.1621-.254 1.3553-.086-.2962-.663-.7107.256-.2022-.488-.016-.325-.2883-.534-1.0511.44-.2182-.728-.9609-1.104-.4264.975-.3604.123-.4484.516.4644.272-.2082.128-.2922-.01.008.145-.1362.048-.1421-.135-.012.113-.4264-.339-.1822-.402-.1121-.038-.2483.154.1842.637-.8608.298-.0801.218-.1021.01-.016-.144-.4284.26-.0801.411-.2362.008-.0941.568-.0881.08.0721.705-.1102.633-.3683-.046v-.153l-.1261-.046-.4265.623.2303 1.303.1281.186.0961-.032.4564.899-.7067.329.2763 1.647.1361-.262.3684.072.2723-.06.2382 1.017.3383-.33.3484-.131.054.377.4325.042.5405-.262.1101.336.2502.182.02.35.1142.087.07.292-.048.424.1701.21.0061.519.1281.132-.0321.202.0941.156-.1141.151.1442.42-.0841.402.1561.13.7688-.16.0681.837.3002.355.7228-.141.1801-.284.014.22.1282.064-.0641.147.1642.118.058.242-.1401.08.4364.869-.4564.298.2902.691.5326 1.84-.1942.246.04.372-.1481.791.1982.236.3163-.178-.1362-.144.5045-.343.2182-.5-.1621-.258-.0781-.449.6526.066-.2062-.484.8409-.821.1641.064.2623-.186.2803.126.6886.833.0361-.374-.0821-.153.2983-.014-.2903-.338-.2903-1.265.01-1.414-.4805-.638-.022-.318-.2002-.107-.1561-1.011-.1322-.168.1862-.682-.03-.345-.2763-.078.0341-.51-.5566-.643.1602-.284-.5866-.333.2482-.328-.1441-.436.1241-.465 1.3894-2.522-.0661-.222h.1442z" stroke="#171619" stroke-width=".5"/><path d="m21.2817 105.864-.4444.072-.2163-.224-.1721.184-.1922-.048-.1462.098-.1401-.076-.2823.319-.5965-.058-.1021.04.092.128.006.312-.2102-.046-.2983.134-.092-.042-.7648.473-.1882-.121-.008-.14-.4144.184-.2482.004-.002.171-.1742-.068-.2623.258-.1241-.166-.2542.064-.5185-.054-1.029.278.012.222-.2763.172-.2102-.008-.1521.15.1061.341-.002.496-.1222.066-.056.507-.2803.258.1241.194-.1861.22.2682.131.1442-.128.1621.006-.032.39.0741.096.2162-.084.1341-.094.1922-.479-.0641-.17.3003-.222.2002.26h.4725l.5065.276.5565-.078-.0781.319.1502-.112.2782.018.1362-.229.2542-.076.2463.385.1441-.022-.1601-.449.068-.19.2983-.042.1001.258.9609-.809.5426.012.026-.204.2042-.278-.016-.174.2222-.294-.006-.741.4564-.324.0461-.129.6166-.236z" stroke="#171619" stroke-width=".5"/><path d="m47.9059 110.291.1921-.967-.1982-.597.2843-.643.3524-.464-.0661-.32-.1541-.415-.8068-1.219-.6767-.512-.4865.126.1101.162.2323.078.04.342-.993.273-.4124 2.528-.4424-.042.1381 1.107-.3723.396-.8449-.366-.2182-.33-.6846-.202-.1842-.575-.6486.054.004-.418-.0901-.193-.4104-.154-.2142.515.9229.981.044.152-.1762.58-.4004.701-.4344.425.008.108-.2002.088-.3443-.679-.1221.07-.3524-.31-1.101 1.671-.2923-.388-.3323.23.01 1.011-.3564.605.1642.05-.3384.601-.5845-.089-.1862-.162-.0521-.788.1362-.255-.4645-.75-.2682-.263-.0901-.272.018-.4-.4084-.044-.3804.146-.1822-.403-.3283.401-.1761.068-.0121.14.1702.232-.3824.401-.1041-.008-.034.128.0561.362.2021.238.2843-.168h.3003l.1562.018.1401.268.3143-.034-.0981.449.1582.066-.1942.106-.0481.214-.1141.034.0381.591-.0981.43-.1262.274-.2842.087-.018.242-.2143.122-.1801-.102-.1382.096-.058-.208-.1902-.112-.2242.608-.2363-.092.0641-.422-.8668-.453-.0721.21-.4364-.022-.6687.175-1.1371.494 3.4894 5.724.2783 1.663.5185.252.3723.367.1382-.328.2202-.107.0941-.342.2482-.228.2122-1.043.3704-.449-.014-.476.1501-.016.4264-.442.6747.116.5605-1.618.2303.03.06.382.4284-.2.0581.12-.1541.439 1.1571.648.2983.411.8088.156.7607 1.503-.6426.707-.6907-.61-.7868.038.0681.128-.0561.14.3023-.016.7628.939-.01.18.3403.174 1.3053-1.017.3503.308 1.3794-.786.054.728.8328.725.2243.048.1521.605.6226.426-.2002.256.1622.128-.0541.389-.6026.646.2343.707.4044.721-.0861.144.1701.002.2082.358 1.1812-.406 1.4274 2.725 3.109 1.465.8909.669.1581-.579.4445-.538.062.028.4264-.763-.08-.38.2242-1.056-.028-.166-.1822-.082-.1001-.624-.1502-.116.1121-.261-.1941-.156-.1442.056-.1661-.086-.1982-.236.1481-.791-.04-.372.1942-.247-.5326-1.839-.2903-.691.4565-.298-.4364-.869.1401-.08-.058-.242-.1642-.119.0661-.142-.1302-.068-.014-.22-.1802.284-.7227.14-.3003-.354-.068-.837-.7688.16-.1581-.134.0861-.398-.1442-.42.1141-.151-.0941-.156.0321-.202-.1282-.132-.006-.519-.1701-.21.048-.424-.0701-.293-.1141-.086-.02-.35-.2502-.182-.1101-.336-.5406.262-.4324-.042-.054-.377-.3484.131-.3383.33-.2382-1.017-.2723.06-.3684-.072-.1361.262-.2763-1.648.7067-.328-.4564-.899-.0961.032-.1281-.186-.2303-1.303.4265-.623.1261.046v.152l.3683.047.1101-.633-.072-.705.0881-.08z" stroke="#171619" stroke-width=".5"/><path d="m10.183 103.714-.1742.176-.10607-.16-.46045-.112-.93291.082-.46846-.158-.27426.036-.25025.476-.59458.027-.06406.564-.02402-.15-.29429-.164-.25625-.379-.34033-.116-.02002.216-.38237.629-.44243.308-.01001.457-.21021.664.13013.217.04404.618-.22222.395.04004-.207-.1041-.002-.17016.235-.08609-.046-.3063.136.03804.296-.15415.286-.47847 1.816-.45444.537-1.37935-.02.63462 2.07-.69067 4.158 5.8457.006.84883 1.513.23623.208.27226.038.32832-.154 1.96991-1.683 1.2212-.687-1.4374-4.42.977-.721.5064-.25.8689-.18.2562-.287-.094-.238.2802-.258.0561-.507.1221-.066.002-.496-.1061-.341.1081-.106-.1041-.106.1121-.154-.3143-.126.1622-.096.046-.19-.2763-.221-.3383.287-.2182-.124-.1081.244-.1642-.186-.0941.114.1542.122-.1622.092-.04.18-.2743-.07-.1181.062.006-.204.1241-.05-.4204-.156-.046-.152.2963-.01.2042-.145.004-.266-.2983-.12-.6106.232-.2322-.13.1962-.084.1401-.226-.3163-.377.2062-.306.3043-.094-.1321-.234-.3264.116-.5545.535-.3143.11.1321-.535-.1581-.44.2862-.096.0661-.551-.2382-.276.1481-.2z" stroke="#171619" stroke-width=".5"/><path d="m19.7842 98.9276 1.1191.8648.004.1942.3364.3604.6566 1.197-.04.967-.1402.25-.2362-.058.1762.833.6626 1.504-.4404-.014-.2743.682-.2723-.006-.2382.711.0881.116-.1081.216-.6166.236-.0461.129-.4564.324.006.741-.2222.294.016.174-.2042.278-.026.205-.5426-.012-.9609.808-.1001-.258-.3343.07-.03.168.2262.611.0901.002.1641-.314.3544.078.1261-.287.3243-.344.1241-.018.1802-.218.2402-.04-.5385.736.1061.201.3524.112 1.8918-.034-.026.132.0761.066.6306-.114-.0461-.082.2363.108.2822-.154.2202.004-.008-.094.3484.19.8648.12.3123.665.1262-.233.3863-.24.0741-.268.1301-.102-.022-.461 1.031.713.1922-.16.6466-.098.2483.056.2983.168.1081.603v.778l1.073-.144.5586-.254.6606.456.6126.016.6126-.462.4364-.18-.4064-1.075.1962-.593.4805-.272-.6747-1.732-.1521-.076-.2042.144-.3043-.508-.6987-.317.0821-1.015-.7367-.35-1.5976-2.326-.6026-1.003-.3543-.831-.7267-1.051.4124-.6506.1081-.8408-.1802.1581-.3343.0721-.2443-.1782-.2362-.026-.2022-.1942-.1361.3103-1.0851-.4484z" stroke="#171619" stroke-width=".5"/><path d="m87.9208 105.864-.5165-.346-.6506-.244-.012-1.878-.3884-.15-2.3062-6.7528-4.7086 2.114-4.7947 1.6138.002.25-.1081.16.006.813.0841.366.2622.004.0901.817-.4484.665-.5085-.006-.0561.076-.1061.184.0621.172-.0561.543-.2122.302-1.4574-.38-.7287-.297-.5666.032.002.245-.5004.256-.0421.17-.2542.18.1441.144-.3784.785.0101.22-.3003.08.0901.163-.6187.09-.5285.544-.036.485-.5105.604-.1081-.14-.2603.052-.03.377-.2102.138-.6867.354-.7007.156-.2802.21-.5826.032-.4504.331.3023.322.1421.388.4244.339-.02.142.0981.09 3.4494 2.196 4.3982.607 1.2653.036.2382.224.2382.004.1962.222.3083.026.0701.104.3684.084.076-.244.3484.066.9909-.168.2383-.23.1101.006.3723-.637.1902.056.1322-.088.2422.15 1.2132-.82-.1121-.159.068-.084-.1101-.078.2563-.722-.2803-.771.036-.234.0781-.137.3844-.032.2182.165.1521.002.1642-.577.3363.088.3864-.026.1201-.254-.042-.152.1581-.022.1762-.221-.2042-.136.3504-.442.6025-.014.4265.154.1181.166.1381.03.2863.503.2262-.048.1101.084.2543-.032.068-.118.1522.052.2442-.391.1922.03.1962-.196.0681.136.3743.012.4725.413.3163.056.3183.232.2723-.092.3603.14-.056.114.1521.034.0561.256.2983.225.0981-.135.1101.002.6406.203.2963.4-.0541.112.3544.128.2142.22.3383-.088.7107.493.2262-.262.2142.05.3444-.112-.1842-.145.042-.226-.1381-.188.014-.286-.1321-.104.016-.157-.4304-.244-.0481-.156-.3964-.322-.004-.359-.2522-.124.0961-.332-.1742.01-.002-.14-.3243-.176.1001-.375-.4324-.336-.1922-.931-.6286-.44z" stroke="#171619" stroke-width=".5"/><path d="m11.4382 95.1259-.1842-.6286-.2442-.01-.1101.2062-.1262.016-.3563-.3504-.2623.0361-.20818-.1262-.87685.2603-.16016.8869.11612.4784-.69068.3283-.03403.7528-.50049.2202-.21421-.0661-.09809.1222-.31231-.0601-.1041.1401-.29629-.054-.16816.1241-.12412.3023-.17818-.024-.50449.4064-.28027.038-.21221.5585-.01802.4124-.18017.2823.12412.1241-.12412.1442.07407.5887-.62261.482.00401.611.2042.264.17617.689-.17217.568-.55054.477-.27827.026.02402.248-.19819.148-.00801.202-.18217.107.03203.254-.32832.154-.07007.28-.34634.287.00601.1-1.83179 2.49-.04204.222.77476 2.527 1.37934.02.45444-.537.47847-1.816.15415-.286-.03804-.296.3063-.136.08609.046.17016-.234.1041.002-.04004.206.22222-.395-.04404-.618-.13013-.216.21021-.665v-.438l.45244-.327.38237-.628.02002-.217.34033.116.25625.379.29429.164.02402.15.06406-.564.59458-.026.25025-.477.12212-.03.6206.152.95493-.078.43843.108.10612.16.4284-.412.0581-.384.2242-.13.0941-.375.4264-.234-.8969-.615-.35434-.024-.35234-.38.35835-.234.02203-.413.5665-.1-.094-.6544.4544-.1822-.3483-.6567-.4585-.4884.1742-.3404-.1382-.2282-.01-.2763.1862-.1801.0841-.6186.6807-.3143-.1582-.4345.1301-.1741-.2502-.7788.3844-.054.1821.1041z" stroke="#171619" stroke-width=".5"/><path d="m52.5744 92.9017-.3083.1661-1.3774 2.4284-1.1991 1.1591-1.1211.2923-.2583.2603.3684 1.3273-1.2953 2.7788-.9109 2.244.6226 1.245-.2622.351.6766.512.8068 1.219.1542.415.066.32-.3523.464-.2843.643.1982.597-.1922.967.2362-.008.0801-.411.4284-.26.0161.144.1021-.01.08-.218.8609-.298-.1842-.637.2482-.154.1121.038.1822.402.4264.339.012-.113.1422.135.1361-.048-.008-.145.2923.01.2082-.128-.4645-.272.4485-.516.3603-.123.4264-.975.961 1.104.2182.728 1.051-.44.2883.534.016.325.2022.488.7107-.256.2963.663-1.3954.108-.7046.923.2582.246-.1061.216.4204.274 1.1952.07.4184.911 1.1411-.35.1021-.144.7267-.174.2202-.231.0341.108.5165-.16.7667-.062v.643l.6106.156-.0581.228.2503.457-.3804.398-.2502.002.3423 1.133.2823-.106.1782.224 1.6716.491.4825.228.2082-.497-.1522-.314.2603-.138.2082-.338-.0921-.212.1962-.809-.2463-.08.0441-.531-.2563-.092-.2062-.214-.1321-1.285.9489-.435.5425-.783.2343-.238.1581.02.1161-.178-.008.25.945 1.037.1561-.494-.4244-.339-.1421-.388-.3023-.322.4504-.331.5826-.032.2802-.21.7007-.156.6867-.354.2102-.138.03-.377.2603-.052.1081.14.5105-.604.036-.485.5285-.544.6186-.09-.0901-.163.3003-.08-.01-.22.3784-.785-.1441-.144.2542-.18.0421-.17.2242-.064.048-.224.1161-.076-.042-1.276-.2763-.212.026-.264-.1861-.1-.1522-.509-.1682-.074-.1161-.568.012-.329.2203-.362-.008-.5246.1921-.2282-10.1018-1.0851.054-.6246.3304-.3223.0901.0701.042-.2703.0681.0221.082-.1742.2403-.0401.0761-.5725.1581.014.0481-.0941.07-1.2732.0941-.2803-.2422.0961-.1181.1922-.2142-.2343-.3344.1362-.4144-.0841-.5005-1.049.0601-.0961-.1962-.1121-.3684-1.1111-.4464-.2703-.7447.2202-.4284.6687-.5266.2142-.4224-.0621-.3563.0821-3.7437-.004z" stroke="#171619" stroke-width=".5"/><path d="m23.1336 92.0868-.1101.5585.2323.1842.056.5145.2703.1321.2222.3504.2262.1161.0701.2602-.0641.3744-.3884.05-.1301.1061.0421.1382-.1762-.0661-.1321.1762-.2583-.2002-.2823.1822-.4044-.2323-.3904.1562-.1721-.0821-.1782.2463-.2162-.0141-.1441.3063.1481.3123-.0641.1642-.3923.3263-.2903-.1181-.2082.1642-.4284-.012-.0561.1821-.2543.1121-.1401.2343-.1261.6546-.3063.1562-.3403.3403.2222.2683-.2643.04-.6486.4164-.0901.3243-.2282.2362-.2002.0681-.0801.2683-.1501.1481-.1102.0761-.1321-.04-.1001.1061-.1621-.0601-.2623.4388-.2622.04.054.228-.2282.238-.4765.182-.2282-.054-.0841-.198-.1882.138-.032.262-.2202-.148-.2603.104-.042.511-.1742-.218-.0721-.511-.3002-.036-.2283-.242-.2662.176-.1121.364-.6927-.3-.3003-.53-.4444.304-.4164.118-.6066-.26-.3364.146-.1901.198-.1562-.052-.2603.078-.02198.413-.35835.234.35235.38.35438.024.8968.615-.4264.234-.0941.374-.2242.13-.058.385-.2543.236.5265.425-.1481.2.2382.276-.0661.551-.2862.096.1581.44-.1421.507.3163-.077.5545-.536.3344-.12.1321.234-.3043.094-.2062.306.3163.377-.1401.226-.1962.084.2322.13.6106-.232.2983.12-.004.266-.2042.145-.2963.01.046.152.4204.156-.1241.05-.006.204.1181-.062.2743.07.04-.18.1622-.092-.1542-.122.0941-.114.1642.186.1081-.244.2182.124.3383-.287.2743.213-.044.198-.1642.092.3163.13-.1121.154.1041.106.2543-.036.2762-.172-.012-.222.6787-.226 1.1231-.062.1241.166.2622-.259.1742.069.002-.171.2483-.004.4304-.186-.008.142.1882.12.7647-.472.0921.042.2983-.134.2102.046-.006-.312-.0861-.133.2522-.066.4465.087.2763-.317.1401.076.1461-.098.1922.048.1722-.184.2162.224.4444-.072.0541-.162.2722.006.2743-.683.4404.014-.6626-1.503-.1762-.833.2363.058.1401-.25.04-.967-.6566-1.197-.3363-.3605-.004-.1942-1.1191-.8649.9149-1.069-.1442-.1281.6246.2842.4785-.3103.4104-.052.2422-.3003.3544-.1061.07-.1221.5846.4424.2362-.3403-.032-.2142.3243.0901-.014.1401.2162-.0581.1262.0841.3083-.016.3543-.3463.1902.1241.1942-.2443.6406-.1781-.0961-.0921.0721-.1502.02-1.3193-.1421.0061-.0281-1.7417-.3123-.0541-.1081.0521-.01.1401-.2522-.7007.014-.5065-.2182.1321-.3664-.1821-.0921-.2483-.5465-.1201-.0881.0661-.1642-.0621-.016.0841-.2762.038z" stroke="#171619" stroke-width=".5"/><path d="m29.9764 90.9497-.2142.4925-.3904-.2362-.4865.8248-.2502-.4745-.3003-.1261-.1762-.2763-.2983-.1121-.6406.4224-.6326-.1101-.3624.0961-.1381-.0521-.2142.1061-.5406-.036-.032.1361-.2062.1142-.0741.2742.0861.1482-.0841.1001-.014.5065.2523.7006.01-.1401.1081-.052.3123.054.028 1.7417.1421-.006-.02 1.3193-.072.1501.0941.1041-.2763.006-.3624.1602-.1942.2442-.1901-.1241-.3544.3464-.3083.016-.1261-.0841-.2162.058.014-.1401-.3243-.0901.032.2142-.2362.3404-.5846-.4425-.0701.1221-.3543.1062-.2422.3002-.4104.0521-.4785.3103-.6246-.2843.1441.1281-.9149 1.0691 3.8838-.3143 1.0851.4484.1361-.3103.2022.1942.2362.026.2443.1782.3343-.0721.1802-.1581-.1081.8408-.4124.6507.7267 1.051.3543.831.6026 1.003 1.5976 2.326.7367.35-.0821 1.015.6987.317.3043.508.2042-.144.1521.076.6206 1.598.6066-.038.1101.15-.2542.096.024.088.3924-.094.6967.136.05-.146.1361.008.0721-.629.2963-.016-.0681-.218.1362-.276-.1061-.154.028-.199.6406.455.022-.935.3164-.703-.0441-.408-.2442-.298-.1622-.053-.012-.2-.2262.152-.8709.012.5586-.74-.2463-.106-.4464.124-.3964-.521.1882-.146-.0701-.11.1642-.276.01-.573-.1101-.14.034-.567-.2642-.168-.0641-.202-.2302-.188.2682-.412-.06-.417-.3283-.362-.0301-.423.0561-1.1167.3283-1.6657-1.4274-2.2982 1.8798.022.0141-.1601-.2223-.3183.1422-.6807.0981-.1101-.1362-1.043-.3363-.0281.2202-.7667-.0901-.3584-.6366.0201.2543-.4985-1.0811-.1502.0901-.6046-.6686-.1221-.1382.1642z" stroke="#171619" stroke-width=".5"/><path d="m108.785 91.6803-1.233 1.2733-.238.5105-.449.5145-.444.8388-.08.6046-.553.2923-.126.3143-.807.03-.082.1822-.236.0981-.633-.2142-.402.4204-.15.02-.05.3703-.206.1122-.068.3063-.475-.0341-.17.0961-.753-.1441-.28.4504-.306.1401-.701.0921-.092-.1121-.23.016-.6891.3924-.3503.5646-.8228.8088-.2142-.0801-.0881-.1622-.3063.1001-.2322-.1281-.0721.0781.032.1922-.2562-.0361-.0921.1282-.2122-.0741-.6547.02.2963.2883 1.5836 6.0496.024.387-.4044.482-.0641.204-.084 1.063.07.897.1201.323.0081.37.3183.865-.0321.204.2543.132-.1001.176.1521.122 1.2032.471 1.415.066.411-.194.22.246.146.022.328-.264.245-.074.1-.467.3.008.214-.208.08.124.116.004.257-.25.314.214.587-.146.176.37.476.465.076.202.369.24.01.21.258-.024.044.221.555-.078.144.206.256-.03.384.148.227-.21.25-.044.022.168.378.066.164-.06.054.156.359-.186.138.08.268-.102.19.07.166-.132.291.25-.064.246.186-.018.104.204.27-.148.034.176.162-.116.433.557.256-.042.068.14.124-.1.417-.014.352.402.166.016.284.21.049.239.146.168.226.054.036.104.154-.02.242.58.148.095-.096.322.163-.038.102-.19.19.154.148-.086.38.772.325.161.054.148.138-.056.088.212-.046.098.144.036-.054.106.08.104-.104.142.098.068.006.293.116.076-.034.23.24.004-.066.601.074.054.094-.084.002.152.319.228-.13.272.036.381.188.11.004.234.144.188.424.302-.012.099-.134.026.038.222.182-.032.073.2.21-.114-.016.456.14.082.012.144.138-.072-.064.189.679.042.156-.122.022.168.194.182.13-.08.182.196.22.036-.15.332.263.457-.044.194.19-.026.03.228.188-.016-.086.204.048.201.09.138.104-.07-.052.2.148.024-.022.448-.122-.026.054.178.32.133-.164.08.03.18-.17.068.146.162-.148.086.074.108.298.082-.044.237.183.008-.177.216.337.012-.128.132.192.172.04.388-.212-.016.122.157-.028.13h.098l.054-.197.198.131-.156.438.166.218-.192.116.118.092-.082.103.256.368-.076.204.238.032.116.18-.19.199.01.232.249-.144-.03.366.108-.028.156.114-.174.074.136.246-.116.221.074.102.178.022.012.426.274.286-.088.179.178.14-.074.128.102.226.146.034.131 1.029.08.074.146-.034.024.152.218.116.14.463.364.51-.024.185.189.002.036.206.188.05-.096.232.088.136-.094.096.252.034-.132.291.146.05.064.15-.142.104.032.176-.144.146.102.152-.14.128.142.495.148.094-.216.374.026.267.142-.02.108.284-.114.1.258.43.052.421.132.046.063.166-.095.396.115.062-.065.145.123.35-.135.042.022.1.125.068.642-.398.329.07.358.672.194.901.569.671.214.428.118.735-.034 1.057.252.531-.262.798.106 1.196.491.79.038 1.47-.069.47.219.417v.404l.22.645 13.909-6.376 13.191-1.12.004-1.223-11.403-15.383-.012-25.889-.29.232-1.177.581-.651.628-.468.271-1.79.498-.426.208-.335.363-.388.108-.425.841-.22.14-.034.254-.684.527-.711-.015-.152.147-.191-.002-.178.204-.422-.008-.637-.21-.384.362-.134.308-.246-.102-.423.228-.957-.076-.478.128-.541-.26-.877-.05-1.96-1.065-1.451-1.467-.655-.335-1.371-1.001-.935-.126-.679-.216-.702-.4-.779-.647-.607.074-.49-.376-1.011-.112-.495-.2506-.256-.3384-.586-.2762-.177-.3604-.692-.7167-.489-.6947-.376-.8688-.637-.5345-1.019-1.4534-.626-2.002-.687-1.5355-.108-.5645-.258-.3604-.379-.2903-2.05.8248-.921.5786z" stroke="#171619" stroke-width=".5"/><path d="m14.389 86.8276-.0661 1.003-.9949-.4284-.008.3223-.4785.7147-.1962.5085-.2923 2.0981-.2983.5405-.2822.2262-.0801.7367-.6466.4244.012.1442-.1682.1401.1241.3483-.3223.1542-.2182-.012-.0561.1962-.052-.0841-.0821.036-.1061.2423-.19619.1321.17419.1241.2622-.036.3564.3503.1261-.016.1101-.2062.2443.01.1901.5265-.042.2883-.1822-.1041-.3844.0541.2503.7787-.1301.1742.1581.4344-.6806.3143-.0841.6186-.0661.1261-.1141.002.004.3284.1381.2282-.1741.3403.4364.4585.3643.6186-.07.1461-.3784.1041.0741.5186.5445-.122.4505.25.4244-.12.4444-.304.3003.53.6927.3.1121-.364.2662-.176.2283.242.3443.078.028.469.1742.218.036-.507.2663-.108.2202.148.032-.262.1882-.138.0841.198.2282.054.4765-.182.2282-.238-.054-.228.2622-.04.2623-.4388.1621.0601.1001-.1061.1322.04.1101-.0761.1501-.1481.0801-.2683.2002-.0681.2282-.2362.0901-.3243.6486-.4164.2643-.04-.2242-.2643.3423-.3443.3063-.1562.0761-.2462-.0501-.1862.1101-.0741.1281-.3784.2103-.074.1441-.2403.3864.0281.2082-.1642.1101.0941.2482.002.3844-.4284-.1441-.3444.1441-.3143.2162.0141.1782-.2463.1722.0821.3903-.1562.3904.2303.1542-.0201.1381-.1601.1782.2022.1441-.012.0721-.1662.1762.0661-.0421-.1382.1301-.1061.3824-.042.0701-.3824-.0741-.2662-.2222-.1101-.2222-.3504-.1922-.04-.1422-.2002.0081-.4064-.2363-.1922.1141-.5505-.6546.1181.012-.0961-.4164.1441-.1281.1422-.3383.048-.1862.3443-.1021-.036-1.1652.5746-1.2111.4264.06-.3143-.5165-1.3734.2723-.3002-.0241-.1282-.2682-.2662-.3363.062-.5826-.3403-1.7037-2.4244.2082-.5105-.6226-.2082-.3763-.2822z" stroke="#171619" stroke-width=".5"/><path d="m19.1798 84.6354-.1781.4585-.3384.3463-.3843-.026-.1402.0881-.4704-.0781-1.4695.2483-.1521.3263-.5025.3944-1.1551.4344.6646.8388.3764.2823.6226.2082-.2082.5105 1.7036 2.4243.5826.3404.3363-.0621.2683.2663.024.1281-.2722.3003.5165 1.3733-.0601.3143 1.2112-.4264 1.1651-.5745.1021.036.1882-.3463.3363-.0461.1282-.1421.4164-.1442-.0121.0961.6547-.1181.1201-.1381.2763-.0381.022-.086.7567.0981.1862.3203.3243.1321.2843-.2162-.0841-.1662.0701-.2662.2102-.1222.046-.1421.5266.042.2142-.1061.1381.0521.3624-.0961.6326.1101.6406-.4224.2983.1121.1762.2763.3003.1261.2502.4745.4865-.8248.3904.2362.2142-.4925-.3224-.04-.076-.3243.06-.0621-.1341-.032.052-.1121.2543-.1182-.1942-.5425.3463-.054.0101-.1962-.8609-.3003-.8248-.5426-.6546-.2822-.4745-.8308-.3263-.0261-.8468-1.2632-.1602-.3784-.5585.3123-.1442-.086-.6006.096-.078.2823-.8288-.5065-.1302-.1862.1842-.2322-.4284-.3964-.2182-.3823-.3804-.0681-.4224.2282-1.3193-.1161.0921-.6426z" stroke="#171619" stroke-width=".5"/><path d="m36.845 84.9019-.0681-.2383.1361-.2622-.0901-.006-.1461-.2323.032-.7127-1.1371.3163-.6246.4625-.4544-.0621-.1902-.1661-.6386.1261-3.7677 3.065-.6226.3123-3.4494-1.6596.1602.3783.8468 1.2633.3263.026.4745.8308.6546.2823.8248.5425.8609.3003-.01.1962-.3464.0541.1942.5425-.2542.1181-.0521.1121.1341.032-.06.0621.0761.3243.3223.04.3683.1802.1382-.1641.6686.1221-.0901.6046 1.0811.1501-.2543.4985.6387-.018.084.4584-.2162.6647.3364.028.1361 1.043-.0981.1101-.1421.6807.2222.3183-.014.1602-1.8799-.0221 1.4274 2.2983-.3283 1.6656-.0561 1.1167.0301.423.3283.362.06.417-.2682.412.2302.188.0641.202.2642.169-.034.566.1101.14-.01.573-.1642.276.0701.11-.1882.146.3964.521.4464-.124.2463.106-.5586.74.8709-.012.2262-.152.012.201.1622.052.2062.298 2.1841-.01-.0681-.393.5926-.466-.032-.444-.2362-.483.1361-.857-.0841-.186.2302-.795-.4724-.358-.0461.104-.1501-.144-.1762.012-.2302-.166-.0341-.16-.1341.006-.1081-.253.1101-.338-.1421-.204-.03-.419-.1242-.092.0241-.186-.2883-.426-.014-.4186-.3584-.1562-.024-.2763-.1902-.2062-.006-.4364.2102-.3683.006-.3424-.2983-.2422-.038-.1882.018-.2422.2462-.4064-.076-.5606.3984-.1101-.0301-.1381.1081-.02-.038-.0621.1621-.2202-.092-.4104-.2143-.3423.1122-.1342.1581-.7968.0781-.048-.0681-.4444.1722-.2183-.1261-.102-.004-.1882.1361-.1001-.3463-.2763-.0561-.2843.0581-.7968.1401-.04.0741-.1561-.1282-.6867.1282-.1482-.016-.3663.078-.0781-.1261-.2262.2242-.4545-.038-.1781.1101-.0921.1341.028.016-.0961.1722-.046.032-.1762.1021-.02-.062-.0741.1381-.2262-.0741-.2082.1122-.3203.1241-.0321.008-.1561.1782-.1742.1161-.002.04-.4724.1762-.4165-.1161-.07.052-.4945-.0701-.4404-.1241-.0781.1462-.4625-.1001-.2362z" stroke="#171619" stroke-width=".5"/><path d="m36.931 81.3965.0701.1902-.0961.1281.1021.0981-.1922.042-.0601.2222.0681.0481-.2282.3563-.0681.4044.2442.3964-.1081.4525.0781.006-.0841.1421.0201.2803.1461.2322.0901.006-.1361.2623.068.2382-.0941.1622.1001.2362-.1461.4624.1241.0781.0701.4404-.0521.4945.1161.0701-.1761.4164-.0401.4725-.2562.1301-.0401.1942-.1301.04-.018.2062-.0841.0441.0721.1881-.1462.3103.0621.0801-.1021.02-.032.1762-.1722.0461-.016.0961-.1341-.0281-.1102.0921.0381.1782-.2242.4544.1261.2263-.0781.078.016.3664-.1281.1481.1281.6867-.074.1561-.1402.0401-.058.7968.056.2842.3464.2763-.1362.1001.004.1882.1261.1021-.1721.2182.068.4444-.078.0481-.1582.7968-.1121.1341.2142.3423.0921.4104-.1622.2202.0381.0621-.1081.02.03.1382-.3984.1101.0761.5605-.2462.4064-.0181.2422.0381.1882.2983.2423-.006.3423-.2102.3684.006.4364.1901.2062.0241.2763.3583.1561.014.4186.2883.426-.024.186.1241.093.03.418.1422.204-.1101.338.1081.253.1341-.006.034.16.2303.166.1761-.012.1502.144.046-.104.4725.358-.2302.795.084.186-.1361.857.2362.483.0321.444-.5926.467.0681.392-2.1461.01.044.408-.3163.703-.022.935-.6406-.455-.0281.199.1061.154-.1361.276.0681.218-.2963.016-.0721.629.4124.478.7808-.014.5545.495.4404.072.1242.284-.0761.078.2943.539.3803-.146.4084.044-.018.4.0901.272.2683.263.4644.75-.1361.255.052.788.1782.159.2202-.018.2183.14.1541-.03.3383-.601-.1641-.05.3563-.605-.01-1.011.3323-.23.2923.389 1.1011-1.672.3523.31.1222-.07.3443.679.2082-.094-.016-.102.4264-.415.2262-.388.2442-.457.1122-.486-.965-1.093.2142-.515.4104.155.0901.192-.004.418.6486-.054.1842.575.6847.202.2182.33.8448.366.3724-.396-.1381-1.107.4424.042.4124-2.528.993-.273-.0401-.342-.2322-.078-.1101-.162.4865-.126.2622-.351-.6226-1.245.9109-2.244 1.2953-2.7788-.3684-1.3273.2583-.2603 1.121-.2922 1.1992-1.1592 1.3774-2.4283.3083-.1662-.5686-.4605-.3163-.036-.3123-.2582-.2302-.3544-.3063.034-.1442-.1021-.1842-.4444.0481-.4024-.1301-.1321-.2963-.026-.0881-.1522-.2462-.054-.1942-.5406-.4705.0381-2.8608-3.5955-1.5475.03-6.0979-9.8936-.3123.4003.068.2703.2683.1281-.2082 1.2793-.1522.1882-.3243.8608-.4284.2142-.3744.4905.0761.2723-.3363.4044z" stroke="#171619" stroke-width=".5"/><path d="m81.7246 84.5735.0581 1.3734 1.6556 2.1841.3323 5.6095.6587.4904-.6086.0361-.0621-.1161-.4584-.2503h-.1702l.01-.1081-.0901-.028-.08.0721.044.1521-.5906.4564-.1701.3043-.2683.0641-.3583.2503-.0801.1701-.4745.3664-.4845-.5365-.2322-.1082-.0901.1702.0541.1081-.5726.3764-.0801.1601.0441.2783-.2503.1962-.8508.1522-.3143-.1162-.3223.1081-.2222-.072-.4585.4304-.2943-.2503-.3683.0821-.1902.4104-.3223.1962-.2923.012-.2382.2142-.0221.1342.0881.042-.1801.3103-.2823-.058-.2583.1721-.4464.0601-.0541.3143-.4684.036-.2483-.1401-.2622.2542-.7928-.2182-.012-.2542-.2783.016-.1501-.1061-.4665.2602-.3803-.056-.0801.0741-.6567.058-.3343-.2202-.1902.012-.03-.2462-.1902-.028-.022-.4185-.2042-.4844-.2202-.0901-.6286-1.4134-.2223-.3103-.2822-.1481-.3524-.3964-.2122.012-.5385.4724-.2743-.042-.0801-.1001-.6746.0761-.1321-.1782-.1902-.028-.014-.1582-.3023.03-.1662-.1441-.0781-.2282-.1381-.1081-.1502.052-.1561-.1321-.5966.1662-.058.2662-.2323-.1281-1.5475.5545-.6506.0101-.2743-.2002-.1421.5024-.0701 1.2733-.048.0941-.1582-.014-.0761.5725-.2402.0401-.0821.1741-.068-.022-.0421.2703-.0901-.0701-.3303.3223-.054.6246 10.1018 1.0851-.1922.2282.008.5246-.2202.362-.012.329.1161.568.1682.074.1521.509.1862.1-.026.264.2762.212-.014.819.0881.254-.1962.503.2763-.192-.002-.245.5666-.032.7287.297 1.4574.38.2122-.302.056-.543-.062-.172.1061-.184.056-.076.5085.006.4485-.665-.0901-.817-.2623-.004-.0841-.366-.006-.813.1081-.16-.002-.25 4.7947-1.6138 4.7086-2.1141 2.3063 6.7529.3883.15.012 1.878.955.432.3703.296.0901.205.6286.44.1922.931.4325.336-.1001.375.3243.176.002.14.1741-.01-.0961.332.2523.124.004.359.3964.322.048.156.4305.244-.0161.157.1322.104-.014.286.1381.188-.026.25.3123.215.1321.014.0741-.09.3163.28.1701-.006.3944-.184.1562-.319.6326.06.2042-.158-.018-.236.2082.002.03-.226.2402-.309.2923.035.6667.316.2002-.084.5405.466.1942-.004.1702-.136.5064.172.1462-.28.4805.406.7507.235.3323-.06-.1521-.123.1001-.176-.2543-.132.0321-.204-.3184-.865-.1941-1.241.08-1.412.0641-.204.4044-.482-.024-.387-1.5836-6.0495-.2963-.2883.6547-.02.2122.0741.0921-.1281.2562.036-.032-.1922.0721-.0781.2322.1282.3063-.1001.0881.1621.2142.0801.8228-.8088.3503-.5645.6882-.3924.231-.016.092.1121.7-.0921.307-.1402.28-.4504.753.1441.17-.096.474.034.068-.3063.207-.1121.05-.3704.15-.02.402-.4204.633.2142.236-.0981.082-.1822.801-.026.132-.3183.553-.2923.08-.6046.444-.8388.449-.5145.238-.5105 1.517-1.5976.935-.5885 2.048-.8228-3.729-9.4733 3.461-1.1891-.174-.0461-.453-.4184-.318-.052-.104-.2463-.146-.01-.028-.1742-.252-.2162-.563-.8148-.384-.1821-.143-.1842-.112.02-.102-.2262-.156-.002-.506-.3764-.187-.002-.708-.4244-.335-.0521-.67-1.121-.204-.7568-.523-.7868.014-.2302-.272-.4865-.381-.2342-.202-.2402h-.138l-.532-.4945-.103-.2723-.184-.1081-.382-.6706-.306-.2062-.513-.6447-.092-.3643.068-.2482-.174-.2643.022-.3263-.456-.5546-11.5958 6.7306-.8709 3.6816z" stroke="#171619" stroke-width=".5"/><path d="m57.5331 59.5251-.5565.1101-.1802-.0821.0741.6666-.1182.2563.0221.2242-.2843-.0581-.2663.2503-.2963.5145-.1881.1281-.0681-.0981-.1121.5305.026-.3843-.1041.1141-.0741-.1522-.1621-.052-.0641.3143-.2022.066-.1601-.1841.002.9149 2.4563 1.1831-.018.5205-.3243.2603.1442.2842-.0941.2022.044.2663-.2282.1221.018.3904-.3804.1101-.5105.4004-.4024.1882-.5265.1561-.004-.1301-.3043.3223-.1521.018-.1542.4985-.3123.3384.0921.9189-.2502.1821-.1282.3484-.088.02.026.4684-.1201.0081-.0201.096.0561.2603-.0841.3543-.1641.1462-.0601.2082.1942-.2042-.006.6446.0701.0981-.1102.4004.0501.1602-.2482.1281-.0161.1802-.2342.1341.01.5385.1201-.068.1001.1341-.1101.2182.0801.0701-.044.1401-.1602-.02.044.2002.1162.2002.2042.014-.0801.2703-.1402.01.0741.1041-.054.1501-.1202.034.0861.0701-.026.1642-.1802-.1242.1502.2143-.0341.09.1642-.2102.0741.2343-.2282.1301.1041.05-.0101.1001-.2582.1942-.016.1942-.1101.0801.03.1802-.3343.1141.026.4004-.1501.1081.02.1802-.1802.2042.01.3003-.1682.4184.0701.1541-.2402.0461-.1342-.1202-.1301.0541-.1842.3543.004.2703-.4284.4685-.3283.7687h-.1702l-.2582-.5045-.0561-.3143.1101-.4244-.1601-.2182-.1782.1581.0441.3143-.3844.0261-.02-.1442-.8028.7167-.0741.1802-.046.6226.076.2763-.2202.3683.0401.1201.5945-.1201.5926.6226.1602.0561.6726-.1802.5526.5486.1942.05.016.1401.3944-.08.1541.2782.1201-.1041.1101.0941-.1661.5986-.1001-.01-.3123.1862-.0501.1581-.2542.0861-.0261.2182-.2182.1662-.0901.1942-.3043.1181.2283.0961.03.1541.3203.1202.2643-.1942.1041.03-.0441.2643.3043.3383.0541.2202v.1441l-.1442.0641-.1541-.2042-.3143-.1141-.2943-.2402-.0801.1301-.1842-.0841.0201.1441h-.1001l-.0661.1242.3243.2402.1902-.1642v.2583l.1642.2002-.0701.1942-.0801.01-.034-.1201-.2743.1141-.0941.1361.0481.5205-.1882.1482.0901.044.014.2242.5285-.2682.4745.2742-.1802.6286.2302.5626-.1501.5385.1341.2643-.0701.1201.02.4885.2403.5645-.008.3444.1101.016.014.3643-.2162-.038-.0541-.3884-.1241-.056.1161.3663-.054.2643-.4985.6826-.5145.3644.056.2622.1442.1021.3063-.034.2302.3544.3123.2582.3163.036.5285.3884-.0861.7387 3.7437.004.3563-.082.4225.062.5265-.2142.4284-.6686.7447-.2202.4464.2702.3684 1.1111.1962.1121-.0601.0961.5005 1.049.2363-.008.068.0961.4344-.1421.1142.056.04.1802.1261-.016.0621-.1762.2302-.0961.0661-.2262.2682.2042.3644.038.1541-.0981.1322.0501.5625-.1422.985-.4124.2322.1282.0581-.2663.6146-.1682.1381.1342.1501-.0521.1382.1081.078.2283.1662.1441.3023-.03.014.1581.1902.028.1321.1782.6747-.076.0801.1.2742.0421.5386-.4725.1741-.028.3904.4124.2823.1482.2222.3103.6286 1.4133.2202.0901.2042.4845.0221.4184.1901.028.0301.2463.1901-.012.3344.2202.6566-.0581.0801-.0741.3804.0561.4664-.2603.1502.1061.2782-.016.012.2543.7928.2182.2623-.2543.2482.1402.4685-.0361.054-.3143.4465-.06.2582-.1722.2823.0581.1802-.3103-.0881-.0421.022-.1341.2382-.2142.2923-.012.3223-.1962.1902-.4104.3684-.0821.2943.2502.4584-.4304.2222.0721.3223-.1081.3143.1161.8509-.1521.2502-.1962-.044-.2783.0801-.1602.5725-.3763-.054-.1081.0901-.1702.2322.1081.4844.5365.4745-.3663.0801-.1702.3583-.2502.2683-.0641.1702-.3043.5905-.4564-.044-.1522.0801-.0721.0901.0281-.01.1081h.1701l.4585.2502.062.1161.6086-.036-.6586-.4905-.3323-5.6095-1.6557-2.1841-.058-1.3733.1081-2.4845-1.9719-1.4434-.1902.6667-.3343.1001-.1782-.0421-.4685.1762-.2302-.1101-.1822.1982-.0921-.0861-.4164.012-.2182.1202-.5345.004-.5265.1641-.1942-.0821-.3343.1562-.0861-.1121-.4645.3443h-.1441l-.022.1341-.2963.0161-.1722-.3083-.2122.4664-.1602.0601.0541-.1121-.1001-.1802-.3864-.3263-1.7737-3.1651-.5245-.6627-1.8498-3.099-.8909-.4664-.8028-2.2682-.4304-.0801-.2462-.3504-.8268-.6046-.2263-.5765-1.6576-.4805-1.7917-.038-1.1431-.8008-.5145.1682-.1722-.0261.1061-.8068-.022-.8268-.1442-.01.0501-.5125-.2443-.6206-.1221-.7027-.6226-1.2452-.4464-.4184-1.7377-4.8327z" stroke="#171619" stroke-width=".5"/><path d="m25.3297 57.343-.2262.4164-.2262.9449.1101.5165-.0561.4765-.2302.4704-.3904.3063-.2082.0541-.1661-.5165-.5526-1.027-.076-.4825-.1642-.0741-.1161.1342-.3083 1.6656.5025.7087-.014.1902-.2543.1821.0601.4224-.8108-.6586-.6086-.3323.04-.0481-.4044.0561-.4444.2562-.4064.5806.042.4985.4405 1.3133.5946 1.4514.6486 1.2232.5225 1.8838-.5726.5846.3864 1.2892.016.3744.8388 1.1291-.5064 1.7197-.2543 3.4654-.9129 1.7837-.4384.2563-.2042-.0161-.1562.2363-.3103-.0681-.1241.3964-.3403.1882-.1021 1.4814-.3604-.004-1.039.7307.3103.8589-.2162.2522.7327 1.033.0481.7528-.2002.1801 1.7697-.4324-.0921.6426 1.3193.1161.4224-.2282.3804.0681.2182.3824.4284.3963-.1842.2323.1302.1862.8288.5064.078-.2822.6006-.0961.1442.0861.5585-.3123 3.4494 1.6596.6226-.3123 3.7677-3.065.6386-.1261.1902.1661.4544.0621.6246-.4625 1.1371-.3163.0621-.1681-.0901-.2303-.1401-.046.072-.024-.084-.2963.2902-.5466-.064-.072.076-.2443.1762-.01-.1021-.0981.0961-.1401-.0901-.0661-.006-.4484.2843-.2643.052-.1881-.08-.2102.2122-.2002-.018-.1082.1841-.1961.4345-.2243.3183-.8508.1521-.1882.2082-1.2792-.2682-.1281-.0681-.2703.3203-.4144-.5986-.1341-.8488-.7227-.4424-.0221-.5626-.3243-.2602-.2743-.5906-.1821-.014.076-.1862-.034-.3083-.2642-.3764.1381-.8188-.3023-.3603-.034-.2843.086-.0961-.2302-.2823-.2722-.1862-.0381-.008-.1241-.074.03-.012-.1581-.2703-.0941.1161-.1802-.1001-.0801.0841-.1942-.0981-.2302-.2783-.054-.01-.1001-.1521-.0381-1.5335-1.5415.1381-.2983.1461-.0841-.1161-.3643-.036-.9209-1.065-3.5495-.3364-1.4133-.6086-1.1972-.1982-.2382-.5825-.3924.0901-.5486-.2663-.6686.1662-.5886-.1822-.4184-.0461-.5045.0941-.8508-1.013-2.1421-.2762-.2282-.4705.044-.052-.1101z" stroke="#171619" stroke-width=".5"/><path d="m109.202 40.3203-.273.3243-.096.3023.04.2843.237.3963.292 2.3683.204.2263.068.4424.1 3.7136-.454.3444-.695.3523-.799.7908-.026.1361-.919.6446-1.097.0801-.198.2863-.278.1461-.236.961-.935.02.018 2.9008-.271.2222-.084.4465-.246.2882.15.2763-1.335 2.1861-1.764.4865.274 1.2893.513 1.3113.136.8027-.066.5406.094.5986-.2.6586.244 1.3653-.048 1.0931.365 1.081.624.7328-.022.3263.174.2642-.068.2483.104.3803.501.6287.306.2062.382.6706.185.1081.102.2723.532.4945h.138l.597.4965.258.4644-.014.2302.523.7868.204.7567.671 1.1211.334.0521.709.4244.186.002.506.3764.156.002.103.2262.112-.02.142.1841.384.1822.563.8148.252.2162.028.1742.146.01.104.2463.319.052.452.4184.174.0461-3.461 1.1891 2.472 6.4363 1.259 3.0349.379.2903.258.3604.108.5645.687 1.5355.626 2.002 1.019 1.4534.637.5345.376.8689.489.6946.693.7167.17.3544.592.2823.257.3383.494.2506 1.011.112.49.376.607-.074.779.647.703.4.678.216.935.126 1.371 1.001.655.335 1.451 1.467 1.96 1.065.877.05.541.26.478-.128.957.076.423-.228.246.102.134-.308.384-.362.637.21.422.008.179-.204.19.002.152-.146.711.014.684-.527.034-.254.22-.14.425-.841.388-.108.335-.363.426-.208 1.79-.498.468-.271.651-.628 1.177-.581.29-.232.002-34.3295-.927.0421-.598-.2863-.789-.6647-.677-.7867-.076-.2162-.508-.0641-.671-.5385-.47-.1962-.473-.0661-.258-.2042-.192-.4124-.657-.5325-.024-.1742-.21-.2482.04-.1962-.132-.4605-.549-.2602-.526-.6867-.074-.3223-.233-.1782.109-.2182-.315-.3103-.006-.4424-.44-.5766.06-.1561-.17-.1382-.152-.7727-.367-.6487-.136-.6326-.37-.4144-.028-.1421.15-.0801.098-.2162.152-.0541.018-.6926-.344-.1742-.002-.2062-.232-.1001.224-.2362-.2-.1322.08-.3123-.092-.086.052-.2723-.07-.3323-4.469-2.056-1.742-2.05-2.772-3.033-5.149-2.1881-.232-6.7106-3.32 3.3493-1.129.7007-.254-.1342-.3.1242-.477-.0701-.032.1041-.134-.0521-.148.1502-.246-.036-.321.1201-.238-.0981-.064.0921-.116-.0901-.106.06-.046-.1721-.222.1121-.089-.1221-.2.07-.544-.1001-.807.0401z" stroke="#171619" stroke-width=".5"/><path d="m155.296 30.1964-1.101.1501-.078-.1601-.254-.1682-.46.2322-.101.2643-.178.1141-.142-.036.038-.1181-.13-.1362-.106.1322-.226-.0061-.064.1602-.094-.0741-.151.0681-.116-.0961-.282.0861-.188-.0481-.024.1582-.383.014-.486-.3163-.134.1141-.136-.022-.048.1621-.453-.1721-.082.2122-.498.1842-.211-.1202.014.0661-.232-.042-.176-.1822-.07.028.038.1301h-.296l-.014-.1421-.062.0861-.311-.1081-.13.0741-.142-.0621-.072.1041-.1-.2022-.178.1922-.309-.0521.016.0821-.176.0781-.006.1942-.562-.1842-.13.038-.347-.3023-.486-.1821.11-.1021-.238-.0461.04-.0921-.219-.1922-.214.0161-.098-.2703.112-.1261-.416-.1962-.04-.1442-.212-.044-.122-.3563-.331-.3083-.14-.2983-.228-.002-.042-.1342-.178-.04-.409-.5746-.354-.032-.124-.2763-.401-.3303-.987-.2703-.134-.5265-.252-.1902-.028-.4244-.354-.2802-.251-.0141-.148-.4003-.218-.0661-.04.0781-.863-.4104-.194-.2783-.486.02-.241.3544-.372.2422-.525.0641-.056.1221-5.937 2.4083-.135.1782-.15-.042-3.631 1.4794-.2-.1061-.119.042-.13.2643-.548.3724-.711.2742-5.063 2.6586-1.85 3.9999.233 6.7106 5.149 2.1881 2.772 3.033 1.742 2.05 4.468 2.056.07.3323-.052.2722.092.0861-.08.3123.201.1322-.225.2362.233.1001.002.2062.344.1742-.018.6926-.152.0541-.098.2162-.15.0801.028.1421.37.4144.136.6326.366.6487.153.7727.17.1382-.06.1561.44.5766.006.4424.314.3103-.108.2182.233.1782.074.3223.526.6867.549.2602.132.4605-.04.1962.21.2482.024.1742.657.5325.192.4124.258.2042.472.0661.471.1962.671.5385.508.0641.076.2162.677.7867.789.6647.598.2863.927-.0421.012-12.9326 6.719-6.5924 11.569-16.4961-.156-.0961-.293.1702-.038.1301-.194.0741-.076-.0861-.054.1401-.22-.016-.006.2042-.08.0541-.158-.1342-.128.008-.016.1802-.137-.1541-.062.094-.1-.05.008-.1642-.44-.002-.084-.2202.096-.05-.11-.0441.006-.1701-.136.0941-.139-.0961-.126.1741-.378-.004-.036-.2122-.284-.064-.118.074.002-.1962-.059.1502-.178-.0361-.086-.1261-.094.1682-.41.1061-.092.1802-.108-.1061-.117.3523-.116-.1742-.306.0421-.25-.2583-.14.0361v-.1762l-.08.1401-.111-.0961z" stroke="#171619" stroke-width=".5"/><path d="m43.8057 20.5751.03 24.3858.4564.2662.7688.1181.3683.2063.2343.018.0841-.2783.1181.1441-.02.5406-.2343.7247.2322.4444.0161.9169-.0881.2022-.1502.0561v.7207l-.3543 1.1371.1141-.01-.006.1361.1541-.1041-.062.2442 1.1551-.028.6186.2703.038-.0741.1922.034.2563.1562.1401-.1081.002-.2142.3063 1.1491.2543.3323.3323.0841.9269.4865.2843.04.4244.4805.2903.7427.4604.7567.0461.5225.1441.3244.3784.2902-.2703.5466.0881.8888.3003.4285.3824.056.4284.6887.4124.2863.1982.6806.1121.0901-.1141 1.4795.3523.8768.3864.1502.1361-.1562.3684-.05.1181-.1342.3624.3524.2022-.0661.086-.3203.2142.2102.1122-.1081-.0341.3784.1121-.5306.0681.0981.1882-.1281.2963-.5145.2662-.2502.2843.058-.022-.2242.1181-.2562-.0741-.6667.2883.0761.8528-.1502 1.7377 4.8327.4465.4185.6226 1.2452.1221.7027.2442.6206-.05.5125.1441.01.0221.8268-.1062.8068.1722.026.5145-.1682 1.1431.8008 1.7918.038 1.6576.4805.2262.5766.8268.6046.2463.3503.4304.0801.8028 2.2682.8908.4664 1.8498 3.0991.5245.6626 1.7738 3.1651.3864.3263.1001.1802-.0541.1121.1602-.0601.2122-.4664.1721.3083.2963-.016.022-.1342h.1442l.4644-.3443.0861.1121.3343-.1561.1942.082.5265-.1641.5346-.004.2182-.1201.4164-.012.0921.086.1822-.1982.2302.1102.4684-.1762.1782.042.3343-.1001.1902-.6666 1.9719 1.4434-.1081 2.4844 7.8937-6.2961.8709-3.6816 11.5948-6.7306-.168-.1782-.366-1.101.05-1.0731-.244-1.3873.2-.6367-.094-.5985.066-.5406-.136-.8027-.513-1.3113-.274-1.2893 1.764-.4865 1.335-2.1861-.15-.2763.246-.2882.084-.4465.27-.2222-.018-2.9008.935-.02.237-.961.278-.1461.198-.2863 1.097-.0801.919-.6446.026-.1361.799-.7908.695-.3524.454-.3443-.1-3.7136-.068-.4424-.204-.2263-.293-2.3683-.236-.3964-.04-.2842.096-.3023.272-.3243-.52-.1682-.483.1581-.816-.2122-.683.0621-.056-.2823-.212.0701-.549-.2322.008-.1822-.418-.03-.513-.2303-.356-.3423-.176-.004-.01.1702-.467.2002-.356-.1402-.104.0921-.2-.002-.056.2302-.205-.0881-.106-.1621-.088.1081-.394.0801-.03-.0821-.236-.0521-.181.0961.01.2022-1.085.0621-3.8134-1.1972-.5185-1.039-.1121-.056-.2022.094.0841.2243-.2202.3423-1.0811-.4084-.2422.1542-.4625-.0241-.3803-.2802-.2062-.4925-.2503-.1922-.3723.0921.1281.1862.004.2622-1.4955.4945-5.3332-.3644-.9169.1902-.1421.1101-1.8898-1.6716-.8849-.9029-1.4254-.7907-3.039-2.024-6.8666-4.8868-.0621.036-5.6495-3.6956-.1201.0341-.3684-.2703-.4624-.7207-.2543-.1161-.2582.034-.3444-.5825-.0841.026-.2262-.2162-.2342.2762-.2282-.1701-.0961.046-.3824-.3503-.5365-.0521.004-.1081-1.005-.4324-.6006-.1361-.7147-.3624-3.2752.1722-.3723-.01-.3424-.2363-.3623-.01-1.5876.1902-5.6675-.1241-.3363-.1341-.2803.1261z" stroke="#171619" stroke-width=".5"/><path d="m28.6189 1-1.9439 3.09502-16.5881 14.06168-7.46532 7.109 1.11509.8868.37036.7247-.32432.4305.26426.5525.35635.1642.22622.3283-.05605.6226-.6106.1942.04204.3723.39038.1181.49048.5346.56855.3063-.29829 1.1951-.56455.3304-.05605.4804.78877-.2122.78877.038.16215-.1941.80479-.0321.19619.6066v.4104l-.91689-.016-.33433.4264-.19419.0641.00801.1381.70268.1001.03404.2403-.50049.1881.12812.1262.98897-.3364.15615.1982.08208-.1321.25024-.0621.43443.7408.81079.7006-.1041.5266.43242-.8269.59057-.1601.32428.006.5986.5786.0661.2682 1.033.3203.1662.1462-.1982 1.1591.068.6627-.1101 1.2011-.5505.5486-.5405.056-.1562-.0661.0481.1822.5105.6487.046.3383-.1842.3143-.1681.0781-.0141.8568.5726.5666.3704 1.2071.1541 2.006.1061.1702.4404.1901.2403.4685.3703-.1922.6867.2463.2342.5165.3244.2762.038 1.5215.2182.3844.2162 1.5635.8208.3704.2683.8027.7847.0921.1922-.3023.2002.2543.4945.2042.2462.5886.2123-.0601.1341.1241.3443 1.4555-.1782 1.045.2903.2762.1822.5666.6326.7027.4364.7427.3083.2562.2163-.038.024-.3383.2742-.0721.0781.1021.3143 1.4294.3824.002.3103.8809.1101.01-.032.2802-.2082.1021.6086.3324.8108.6586-.0601-.4224.2543-.1822.014-.1902-.5025-.7087.2342-1.4434.1482-.3383.2102.0641.1001.5445.7507 1.4935.4845-.3184.2842-.5325.0561-.4764-.1101-.5165.5505-1.8879.5646.014.2762.2283 1.013 2.142-.0941.8509.0461.5045.1822.4184-.1662.5885.2663.6687-.0901.5485.5825.3924.1982.2383.5386.9829.5365 2.08.8188 2.6166.1822.8808-.0301.5206.1161.3643-.1461.0841-.1381.2983 1.5335 1.5415.1521.038.01.1001.2783.0541.0981.2302-.0841.1942.1001.0801-.1161.1801.2702.0941.0121.1582.074-.03.008.1241.1862.038.2823.2723.0961.2302.2843-.0861.3603.0341.8188.3022.3764-.1381.3083.2643.1862.034.014-.0761.5906.1822.2602.2743.5626.3243.4424.022.8488.7227.5986.1342 6.0899 9.9076 1.5475-.03 2.8608 3.5955.4705-.0381.1942.5406.2462.054.0881.1522.2963.026.1241.1261-.042.4084.1281.1822.5145-.3644.4985-.6826.054-.2643-.1161-.3663.1241.056.0541.3884.2162.038-.014-.3643-.1101-.016.008-.3444-.2402-.5645-.0201-.4885.0701-.1201-.1341-.2643.1501-.5385-.2302-.5625.1802-.6287-.4745-.2742-.5285.2682-.014-.2242-.0901-.044.1882-.1482-.0481-.5205.0941-.1361.2743-.1141.034.1201.0801-.01.0701-.1942-.1642-.2002v-.2582l-.1902.1641-.3243-.2402.0661-.1241h.1001l-.02-.1442.1841.0841.0801-.1301.2943.2402.3143.1141.1542.2042.1441-.064v-.1442l-.0541-.2202-.3043-.3383.0441-.2643-.1041-.03-.2643.1942-.3203-.1201-.03-.1542-.2282-.0961.3043-.1181.0901-.1942.2182-.1662.026-.2182.2542-.0861.0501-.1581.3123-.1862.1001.01.1662-.5986-.1102-.0941-.1201.1041-.1541-.2782-.3944.0801-.016-.1402-.1942-.05-.5526-.5486-.6726.1802-.1602-.056-.5925-.6227-.5946.1202-.0401-.1202.2203-.3683-.0761-.2763.046-.6226.0741-.1802.8028-.7167.02.1442.3844-.026-.0441-.3144.1782-.1581.1602.2182-.1101.4244.056.3143.2583.5045h.1701l.3283-.7687.4285-.4685-.004-.2703.1841-.3543.1302-.0541.1341.1202.2402-.0461-.07-.1541.1681-.4184-.01-.3003.1802-.2042-.02-.1802.1501-.1081-.026-.4004.3343-.1141-.03-.1802.1101-.0801.016-.1942.2583-.1941.01-.1001-.1041-.0501.2282-.1301-.0741-.2343-.1641.2103.034-.0901-.1501-.2142.1801.1241.0261-.1642-.0861-.07.1201-.0341.054-.1501-.074-.1041.1401-.01.0801-.2703-.2042-.014-.1161-.2002-.0441-.2002.1602.02.044-.1401-.08-.0701.1101-.2182-.1001-.1341-.1202.068-.01-.5385.2343-.1341.016-.1802.2482-.1281-.05-.1602.1101-.4004-.0701-.0981.006-.6446-.1942.2042.0601-.2082.1641-.1461.0841-.3544-.056-.2602.02-.0961.1201-.008-.026-.4685.0881-.02.1281-.3484.2502-.1821-.0921-.9189.3124-.3384.1541-.4984.1521-.0181.3043-.3223.0041.1301.5265-.1561.4024-.1882.5105-.4004.3943-.1281-.032-.3724.2282-.1221-.044-.2662.0941-.2022-.1442-.2843.3244-.2603.018-.5205-2.4564-1.1831-.002-.9149-.1962-.1662-.1241.1321-.3684.0501-.1361.1561-.4284-.1941-.3104-.8329.1142-1.4794-.1121-.0901-.1982-.6807-.4124-.2862-.4285-.6887-.3823-.0561-.3003-.4284-.0881-.8888.2662-.5546-.3743-.2823-.1442-.3243-.05-.5345-.4565-.7447-.2602-.7007-.4164-.4885-1.5816-.6446-.2542-.3323-.3063-1.1492-.002.2143-.1401.1081-.2563-.1562-.1922-.034-.038.074-.6186-.2702-1.1551.028.062-.2442-.1541.1041.006-.1362-.1141.01.3543-1.1371v-.7207l.1502-.056.088-.2022-.016-.9169-.2322-.4444.2342-.7247.02-.5406-.1181-.1441-.0841.2783-.2342-.0181-.3683-.2062-.7688-.1181-.4564-.2662-.0301-24.3858-2.134-1.8438-.1021-.7287.2102-.8869-2.7467-3.091-.006-6.29414 1.003-1.2372.044-.5065-.1882-.39238-.3223-.18618-.2182-.62061.05-.40439.2483-.2022.2162-.35034.1281-.01802.0861-.34233-.018-.24824-.1582.03203-.2782-.2022-.0141-.11211-.3663-.02202-.0681-.12813-.2702-.1101-.1922.05205-.2703-.2082-.1882-.02603.032.18218-.3943-.1982-.0641-.17817.0721-.04805-.0901-.1021-.0761.08409-.026-.09009-.1682.02002-.036-.11011-.1221.09609-.0421-.08608-.1021.11411.004-.28828-.1361.02002.02-.12012-.3603-.004-.1842.12612-.1962-.08808-.1642.1041-.3183-.06006-.076-.12612-.3904.22622-.2823.03603.044-.23823-.084-.05606.012-.17617-.2222.00401-.0121.1021-.086.006-.2163-.17016.0541-.07808-.1001-.09609-.5545-.14815-1.4995-.13613z" stroke="#171619" stroke-width=".5"/></g><path d="m41.92 251.44h6.56v3.28h-1v12.28h-5.62l-5.86-9.02v5.74h.96v3.28h-6.56v-3.28h1v-9h-1v-3.28h7.22l5.26 8.02v-4.74h-.96zm22.0077 12.28h.8v3.28h-7.84v-3.28h1.2l-.32-1.6h-2.72l-.32 1.6h1.2v3.28h-6.84v-3.28h.8l3.38-12.28h7.28zm-8.44-3.72h1.84l-.82-3.98h-.2zm9.8732 7v-3.28h1v-9h-1v-3.28h7.6v3.28h-1v9h1v3.28zm8.3985-3.28h1v-9h-1v-3.28h9.18c1.72 0 3.0333.353 3.94 1.06.9066.707 1.36 1.853 1.36 3.44 0 .893-.18 1.667-.54 2.32s-.8734 1.107-1.54 1.36l.02.2c1.28.2 1.92.987 1.92 2.36v1.54h.94v3.28h-6.34v-4.7c0-.52-.08-.913-.24-1.18-.1467-.267-.3867-.447-.72-.54-.32-.093-.78-.14-1.38-.14v3.28h1.32v3.28h-7.92zm7.68-5.72c.3866 0 .6733-.1.86-.3.2-.213.3-.54.3-.98v-.72c0-.44-.1-.76-.3-.96-.1867-.213-.4734-.32-.86-.32h-1.08v3.28zm15.8361 9.28c-2.44 0-4.3267-.64-5.66-1.92-1.32-1.28-1.98-3.327-1.98-6.14s.66-4.86 1.98-6.14c1.3333-1.28 3.22-1.92 5.66-1.92s4.3195.64 5.6395 1.92c1.334 1.28 2 3.327 2 6.14s-.666 4.86-2 6.14c-1.32 1.28-3.1995 1.92-5.6395 1.92zm0-3.56c.4533 0 .7933-.12 1.02-.36.2266-.24.34-.613.34-1.12v-6.04c0-.507-.1134-.88-.34-1.12-.2267-.24-.5667-.36-1.02-.36-.4534 0-.7934.12-1.02.36-.2267.24-.34.613-.34 1.12v6.04c0 .52.1133.9.34 1.14.2266.227.5666.34 1.02.34zm8.3195 0h1v-9h-1v-3.28h9.18c1.667 0 2.967.34 3.9 1.02.934.68 1.4 1.653 1.4 2.92 0 .787-.186 1.453-.56 2-.373.533-.813.94-1.32 1.22-.493.267-.973.447-1.44.54v.2c.947.093 1.8.393 2.56.9s1.14 1.413 1.14 2.72c0 1.4-.526 2.427-1.58 3.08-1.053.64-2.42.96-4.1.96h-9.18zm7.68-5.72c.387 0 .674-.1.86-.3.2-.213.3-.54.3-.98v-.72c0-.44-.1-.76-.3-.96-.186-.213-.473-.32-.86-.32h-1.08v3.28zm.14 5.72c.387 0 .674-.1.86-.3.2-.213.3-.54.3-.98v-.88c0-.44-.1-.76-.3-.96-.186-.213-.473-.32-.86-.32h-1.22v3.44zm7.688 3.28v-3.28h1v-9h-1v-3.28h7.6v3.28h-1v9h1v3.28z" fill="#ea346c"/><path d="m47.38 236.72h1v3.28h-5.46l-3-6.2-.92.76v2.16h.96v3.28h-7.56v-3.28h1v-9h-1v-3.28h7.56v3.28h-.96v2.64l3.1-2.64h-1.26v-3.28h7.44v3.28h-1l-3.34 2.76zm1.7192 3.28v-3.28h1v-9h-1v-3.28h13.5v6.04h-4.48v-2.76h-2.42v3.16h1.76v2.28h-1.76v3.56h2.42v-3.16h4.48v6.44zm25.7778-15.56h6.56v3.28h-1v12.28h-5.62l-5.86-9.02v5.74h.96v3.28h-6.56v-3.28h1v-9h-1v-3.28h7.22l5.26 8.02v-4.74h-.96zm16.0677 0h6.14v3.28h-.8l-3.86 6.92v2.08h1v3.28h-7.6v-3.28h1v-2.08l-3.98-6.92h-.8v-3.28h7.74v3.28h-.7l1.18 3.1h.2l1.18-3.1h-.7zm18.6743 12.28h.8v3.28h-7.84v-3.28h1.2l-.32-1.6h-2.72l-.32 1.6h1.2v3.28h-6.8399v-3.28h.8l3.38-12.28h7.2799zm-8.44-3.72h1.84l-.82-3.98h-.2z" fill="#fdfbf5"/></svg>