<svg fill="none" height="551" viewBox="0 0 408 551" width="408" xmlns="http://www.w3.org/2000/svg"><g clip-rule="evenodd" fill-rule="evenodd"><path d="m330.883 428.445c-1.448-8.183-2.775-16.386-3.982-24.608-.579-3.903-1.123-7.811-1.632-11.724-.352-2.741-.887-5.876.976-7.906 2.623-2.859 5.007-5.306 5.328-9.4.301-3.851-1-8.05-1.814-11.79-1.707-7.841-3.832-15.584-6.18-23.256-2.385-7.794-4.999-15.513-7.653-23.218-2.48-7.206-4.865-14.474-8.095-21.387-6.132-13.117-16.504-22.831-29.324-29.317-3.187-1.614-9.69-7.372-13.02-8.662-3.063-1.185-3.051 2.276-6.066.973-2.408-1.042-4.652-2.433-6.001-4.76-1.465-2.529-5.137-6.064-5.696-9.006-1.185-6.236.098-11.544-4.351-16.238-3.947-4.168-9.254-7.025-14.745-8.557-12.082-3.373-28.193-1.016-35.481 10.219-3.482 5.365-4.699 11.85-9.396 16.229-4.102 3.823-3.184 6.435-8.497 8.406-.3.112-8.455-1.639-8.756-1.527-5.813-1.245-11.366 2.239-16.699 4.261-7.95 3.014-15.518 6.937-22.627 11.599-14.338 9.401-26.617 21.608-36.7407 35.422-10.2068 13.928-18.1271 29.538-23.766 45.854-1.3702 3.962-2.601 7.974-3.6839 12.025-.6086 2.267-1.258 4.617-.5168 6.938.6035 1.898 1.9499 3.313 3.5292 4.452 2.142 1.545 6.4379 2.548 6.3546 5.653-.0646 2.362-.8653 4.847-1.2563 7.182-.4641 2.779-.8466 5.575-1.2291 8.365-1.7374 12.706-3.0906 25.484-3.689 38.296-.5899 12.617-1.0778 25.493-.204 38.104.0578.832.306 1.596.7055 2.242-.374.143-.4012.838.0629.937l.9758.207c.6749.512 1.5181.825 2.4888.856.6579.02 1.3141.051 1.972.085 6.9309 1.449 13.8618 2.82 20.8845 3.857 8.5355 1.254 17.1005 2.295 25.6865 3.124 17.646 1.716 35.156 1.148 52.826.223 17.63-.92 35.289-1.147 52.937-.682 17.676.461 35.348 1.231 53.028 1.546 19.754.35 39.475-.189 59.172-1.761 2.701-.215 4.372-2.365 3.838-5.049-3.191-16.082-6.807-32.056-9.664-48.207z" fill="#fdfbf5"/><path d="m160.987 252.52c1.825-.08 3.689.216 5.511.396.158.015.219.26.039.297-3.26.682-6.487 1.614-9.69 2.562l-1.372.406c-3.611 1.07-7.118 2.173-10.615 3.598-6.968 2.844-13.588 6.681-19.679 11.087-23.456 16.974-40.4343 42.67-51.1477 69.274-3.6198 8.988-6.544 18.241-8.7465 27.676-.1275.541-.6817 1.927-.3774 2.48.2686.49 1.3124.792 1.7969 1.046l1.6388.85c3.196 1.648 8.517 4.357 9.0525 4.622l.833.41c13.6153 6.68 28.1624 12.345 43.4864 12.736l.119-1.309c.683-7.24 1.581-14.517 3.536-21.534.105-.377.584-.25.629.085 1.089 8.308.741 16.678.36 25.023-.673 14.78-1.567 29.554-2.363 44.327-.396 7.391-.911 14.777-1.377 22.164-.464 7.401-.614 14.981-1.676 22.322-.238 1.636-2.152 2.526-3.602 2.354-1.605-.192-2.839-1.605-2.846-3.228-.021-4.275.517-8.603.816-12.868.282-4.053.586-8.104.899-12.155 1.139-14.783 2.448-29.55 3.662-44.326.43-5.242.894-10.478 1.37-15.714-16.23-.524-31.3939-6.541-45.8609-13.571-.2091 4.758-.714 9.508-1.2036 14.246-1.3668 13.221-2.5721 26.438-3.4731 39.701-.4419 6.7-.8007 13.405-1.0761 20.113-.1895 4.396-.3317 8.793-.4267 13.192l-.051 2.519c-.0391 1.595-.2006 3.074-1.5436 4.236-1.3617 1.18-3.2028 1.243-4.5526 0-1.8054-1.665-1.4858-3.932-1.4331-6.167.1328-5.655.3454-11.309.6375-16.958.6783-13.168 2.0315-26.283 3.7995-39.346l.6919-5.042c1.2886-9.374 2.703-18.962 5.5862-27.99-1.1203-.559-2.2389-1.122-3.3558-1.687-1.9771-1.002-4.0222-1.943-5.9449-3.048-1.5249-.877-2.839-2.082-3.264-3.857-.4743-1.979.2499-4.143.731-6.073l.0425-.17c.4709-1.944.9792-3.879 1.5147-5.806 2.1802-7.811 4.854-15.476 8.0053-22.948 6.2951-14.964 14.4211-29.179 24.3491-42.032 8.9357-11.571 19.4907-22.064 31.8617-29.933 6.048-3.847 12.495-7.007 19.31-9.239 3.186-1.045 6.652-1.953 9.989-2.325 1.798-.194 3.601-.326 5.408-.396zm32.364-23.712c2.171-2.332 6.484.081 5.44 3.17-2.451 7.268-6.354 13.897-12.447 18.673-5.727 4.488-12.556 7.404-19.912 6.782-.052-.005-.102-.019-.148-.041l.632.86c4.976 6.736 10.226 13.379 16.553 18.886 12.891 11.217 30.444 17.268 47.393 12.963 13.333-3.385 25.082-13.938 28.536-27.386-.544.239-1.151.294-1.729.158-2.764-.6-5.501-3.51-7.284-5.597-1.914-2.215-3.448-4.732-4.539-7.449-2.022-5.04-2.669-11.531.09-16.414.341-.602 1.125-.265 1.193.323l.104.917c.532 4.576 1.195 9.003 3.352 13.176 1.054 2.041 2.319 4.034 3.859 5.743.825.915 1.717 1.789 2.681 2.556.94.749 2.077 1.288 2.921 2.146l.153.164.005-.029c.212-1.811 1.482-2.611 2.725-2.56 1.202.048 2.614.579 3.16.832l.053.024c8.386 4.029 16.111 9.28 23.38 15.106 15.033 12.051 26.296 27.802 31.754 46.351 2.678 9.105 4.215 18.485 5.838 27.822l.998 5.721c1.515 8.62 3.206 17.409 6.625 25.427.884 2.073.202 4.019-1.965 4.835-2.708 1.015-5.423 2.008-8.147 2.978 1.336 5.738 2.151 11.675 3.152 17.44 2.128 12.256 4.736 24.434 6.973 36.674 1.143 6.258 2.175 12.538 3.317 18.797.549 3.013 1.124 6.023 1.681 9.037.301 1.624.573 3.253.861 4.88l.049.271c.165.857.372 1.745.136 2.603-.269.98-1.034 1.672-1.715 2.374-.561.579-1.372.582-2.061.267l-.226-.105c-1.229-.575-2.191-1.148-2.626-2.536-.276-.877-.376-1.867-.556-2.772-.345-1.733-.673-3.469-.983-5.21-.62-3.485-1.224-6.971-1.815-10.461l-.551-3.267c-1.894-11.261-3.691-22.589-4.6-33.97-.403-5.047-.83-10.091-1.262-15.137l-.323-3.784c-.41-4.789-.909-9.698-.981-14.553l-1.627.578-7.94 2.809c-1.971.697-4.476 2.124-6.596 1.864-1.037-.128-1.828-.454-2.438-1.048.718 10.325 1.732 20.627 3.039 30.894 1.201 9.333 2.532 18.654 4.103 27.931.778 4.595 1.579 9.185 2.448 13.761.433 2.291.882 4.577 1.344 6.861.23 1.139.503 2.278.684 3.428.205 1.314-.157 2.124-.891 3.207-.604.888-1.811 1.345-2.788.732-1.296-.813-1.97-1.519-2.351-3-.347-1.346-.558-2.75-.825-4.112-.494-2.516-.972-5.034-1.435-7.555-.968-5.273-1.851-10.561-2.648-15.863-2.8-18.678-4.577-37.514-5.474-56.38-.427-9.308-.595-18.625-.502-27.942.041-4.777.198-9.566.534-14.329.344-4.823 1.054-9.549 1.688-14.326.022-.168.26-.177.271 0 .3 5.355.771 10.704 1.003 16.073.219 5.122.316 10.253.491 15.378.231 6.736.551 13.478.972 20.212.765-.837 1.92-1.321 3.074-1.133 1.673-.35 3.473-1.227 5.066-1.761l6.011-2.009c3.157-1.06 6.32-2.101 9.489-3.122-2.835-9.544-4.777-19.231-6.434-29.057l-.74-4.42c-1.463-8.7-3.043-17.404-5.693-25.829-2.762-8.824-6.985-17.122-12.493-24.548-5.454-7.349-12.091-13.819-18.923-19.872-5.85-5.182-12.107-9.86-18.073-14.899.062.333.075.701.021 1.105-1.268 9.291-6.112 17.944-12.862 24.379-13.56 12.929-33.631 15.611-50.987 9.549-16.787-5.864-31.63-19.753-36.874-36.941-.091-.293.304-.41.462-.194.289.4.583.798.875 1.197-.01-.087.011-.175.058-.249s.118-.129.201-.157c6.118-2.366 12.126-5.718 16.713-10.461 2.247-2.317 4.173-4.927 5.725-7.758.738-1.352 1.401-2.753 1.93-4.202l.134-.374c.641-1.815 1.176-3.665 2.514-5.102z" fill="#1e1d3d"/><path d="m225.757 78.706c20.393 0 45.934 23.281 53.409 33.188 6.284 8.329 5.395 51.237 5.395 76.691 0 5.323-2.403 15.399-3.277 20.49-3.198 18.66-17.135 34.309-44.717 34.309-22.459 0-39.743-7.119-56.455-25.328-3.813-4.153-22.435 10.718-26.243 5.362-9.949 0-18.265-93.012 1.265-120.908 19.531-27.8991 50.229-23.804 70.623-23.804z" fill="#fdfbf5"/><g fill="#1e1d3d"><path d="m164.463 85.2568c11.784-10.7292 27.482-15.8906 43.321-15.5096 8.204.1989 16.378 1.7618 24.125 4.4386 3.876 1.3452 7.628 3.1002 11.216 5.0848 1.292.7126 2.486 1.5476 3.633 2.4353l.286.2228h.003c3.079 1.1071 5.826 3.0951 8.318 5.4199 4.997-.398 10.032.051 14.862 1.5934 6.723 2.1496 12.947 6.0849 17.318 11.673 5.091 6.507 6.784 14.399 6.181 22.547l-.112 1.384c-.597 7.199-1.666 16.455-7.57 21.185-.434.352-.927.623-1.457.799 3.803 6.519 6.924 13.758 8.79 21.069 7.13 27.922 1.649 57.044-6.924 83.958-.703 2.217-4.054 3.69-5.759 1.524-3.047-3.875-7.472-6.83-12.449-7.383-3.071-.342-6.127.277-9.029-1.117-1.2-.59-2.239-1.463-3.028-2.543-4.914 1.869-10.155 2.726-15.409 2.521-8.586-.352-17.766-3.328-23.674-9.855-.948-1.048-1.19-2.225-.97-3.286.741-.265 1.506-.461 2.284-.585 7.492 4.42 15.751 7.372 24.627 7.558 5.128.107 10.13-.611 14.288-3.815.901-.694 1.727-1.462 2.492-2.287 8.694-5.597 14.824-15.103 17.738-25.287 2.717-9.496 2.382-19.383 1.448-29.124l-.493-5.14c-.717-7.544-1.383-15.111-1.57-22.686l.056-.003c1.836-.119 1.849-2.995 0-2.876-4.784.309-9.53-.476-14.301-.133-.039-2.256-.202-4.503-.863-6.678-.379-1.243-2.542-1.49-2.771 0-.306 1.99-.418 3.971-.452 5.971-7.137-.095-14.267-.697-21.405-.449-1.316-1.405-1.736-3.898-2.351-5.631-.09-.255-.18-.507-.274-.762-.543 2.491-1.319 4.926-2.317 7.272l-1.751.005c-9.933.048-20.067.345-29.765 2.408-.675-.517-1.076-1.42-1.185-2.241-.702-5.34-1.707-10.537-3.487-15.625l-.253-.718c-.023-.063-.046-.127-.067-.191-1.31 2.119-2.876 4.094-4.583 5.932-1.008 1.081-2.056 2.123-3.141 3.126-1.051 1.168-2.137 2.32-3.191 3.491.042.213.078.429.107.65.321 2.432.355 4.898.119 7.338-.424 4.392-1.669 8.666-3.67 12.598l-.065.395c-.303 1.843-.734 3.748-1.744 5.136 1.283 1.433 2.236 3.13 2.791 4.972.502 1.669-1.805 3.114-3 1.748-.914-1.052-1.982-1.961-3.166-2.697-.073.099-.205.148-.353.065-3.229-1.794-8.713-1.252-11.939.439-4.012 2.098-5.576 6.408-5.133 10.775.429 4.173 2.253 9.05 5.79 11.188 1.624.981 2.887 1.065 4.613.594.55-.15 1.234-.609 1.526-.837l.289-.233c1.131-.893 2.183-1.505 3.517-1.529 1.366-.425 2.736.165 3.258 1.597l.032.092c.245.729.69 1.646.593 2.762-.1 1.192-.647 2.278-1.462 3.151-.142.154-.29.301-.445.442 14.042 15.215 15.846 38.922 8.644 57.928-.312.835-.646 1.658-.994 2.475-1.204 2.795-5.836 1.928-6.426-.842-.504-2.359-1.145-4.686-1.919-6.969l-.193-.555c-.426-1.221-.826-2.454-1.256-3.677l-.044-.139-.053-.19-.729 1.591-2.217 4.806c-1.037 2.243-4.331 1.024-4.454-1.137l-.003-.074c-.083-3.308-.594-6.592-1.52-9.77l-.289.361c-4.321 5.348-9.394 10.36-16.354 11.595-1.744.308-3.72-1.517-2.521-3.282.496-.73.974-1.478 1.428-2.237-.376-.173-.745-.363-1.105-.568-2.639-1.483-4.837-3.597-6.654-5.994-3.854-5.082-5.233-11.48-5.571-17.741-.359-6.617.223-13.593 2.03-19.977.782-2.761 1.841-5.41 3.067-7.98-.085-.229-.17-.459-.252-.69-1.312-3.693-2.417-7.456-3.308-11.272-1.817-7.723-2.794-15.62-2.912-23.553-.216-14.172 2.227-28.571 7.373-41.786 5.316-13.629 13.311-26.7595 24.191-36.6622zm-6.618 123.9082c-.976-1.537-3.419-.151-2.513 1.397l.034.056c1.547 2.44 2.273 5.216 3.164 7.937.571 1.75 3.349 1.001 2.771-.767l-.194-.591c-.884-2.758-1.693-5.562-3.264-8.032zm8.5-29.357.648-.315c2.046-.976 3.838-1.641 6.254-.789 3.237 1.139 6.703 4.767 4.515 8.285-.804 1.298-2.234 1.815-3.706 1.509-2.482-.514-3.123-2.752-4.382-4.588l-.218-.312c-.768-1.11-1.739-2.646-3.018-3.083-.29-.1-.413-.553-.093-.707zm1.824-74.708.209-.189c1.391-1.23-.649-3.257-2.033-2.034-6.327 5.595-8.526 14.355-11.808 21.819-.736 1.68 1.739 3.146 2.482 1.454 3.131-7.126 5.209-15.646 11.152-21.052zm76.048-2.449c-1.653-.747-3.099 1.661-1.51 2.454l.06.029c5.588 2.527 7.966 8.248 10.242 13.56.726 1.698 3.201.235 2.482-1.449l-.411-.952c-2.375-5.476-5.146-11.054-10.863-13.642zm8.76-3.4593c-1.753-.6072-2.504 2.1683-.765 2.7753 4.736 1.65 7.987 5.207 10.727 9.277 1.027 1.524 3.516.085 2.479-1.452-3.183-4.723-6.96-8.687-12.441-10.6003z"/><path d="m243.358 218.145c-2.436-.995-4.558-2.628-6.144-4.729-.242-.308-.419-.663-.518-1.043-.098-.379-.118-.775-.056-1.163.129-.794.598-1.512 1.237-1.995.641-.483 1.444-.721 2.219-.6.675.105 1.345.474 1.877 1.241l.11.153c.924 1.265 2.141 2.287 3.547 2.978 1.36.669 2.882.937 4.389.772 2.955-.333 4.989-1.932 7.154-4.103.268-.274.537-.556.805-.844.158-.243.395-.425.67-.515.299-.094.621-.09.917.011.297.102.553.296.732.554.165.243.26.544.23.891-.199 2.25-1.374 4.256-3.043 5.833-1.855 1.751-4.313 2.962-6.627 3.387-2.548.468-5.146.133-7.499-.828zm8.703-34.706c2.711 1.651 6.844 5.498 3.927 9.588-3.436 3.605-8.38-.529-10.816-2.399-2.259-1.449-4.799 2.278-2.703 3.97 17.609 13.046 24.754-10.727 10.964-13.098-1.52-.262-2.083 1.429-1.372 1.939zm-31.552-15.175c.299-3.722 5.963-4.567 6.528-.884.503 3.299-.091 6.332-1.576 9.302-1.418 2.837-4.985 1.514-5.255-1.071-.362-3.464.116-5.03.303-7.347zm43.12-1.647c.791-1.036 1.931-1.742 3.296-1.344 4.269 1.25 3.011 7.314 1.512 10.267-.815 1.602-3.448 2.008-4.638.597-1.938-2.301-2.868-6.898-.401-9.167.066-.115.141-.234.231-.353zm-38.228-14.639.675-.119c2.086-.361 4.678-.708 6.154.969.784.891 1.052 2.546 0 3.398-1.85 1.496-3.896.918-6.113 1.044-1.81.104-3.602.409-5.343.911-3.863 1.106-7.009 3.121-10.307 5.335-.432.289-.874-.263-.668-.668 1.904-3.733 5.593-6.797 9.288-8.666 1.974-.999 4.131-1.825 6.314-2.204zm34.337-1.672.517.105c5.616 1.174 12.913 3.521 15.572 9.043.102.78-.005.947-.092 1.056l-.029.037c-.073.094-.129.221-.468.328-.095-.023-.19-.046-.285-.071-1.219-.32-2.183-.76-3.116-1.218l-1.014-.498c-1.174-.578-2.359-1.133-3.615-1.543-2.678-.877-5.437-1.487-8.235-1.819-.597-.06-1.167-.277-1.653-.629-.462-.348-.789-.845-.924-1.407-.198-.794-.14-1.394.285-2.112.32-.537.779-.91 1.304-1.124.557-.22 1.167-.272 1.753-.148z"/></g></g></svg>