<svg fill="none" height="417" viewBox="0 0 309 417" width="309" xmlns="http://www.w3.org/2000/svg"><g clip-rule="evenodd" fill-rule="evenodd"><path d="m250.595 324.25c-1.097-6.193-2.102-12.401-3.016-18.623-.438-2.954-.85-5.912-1.236-8.873-.266-2.075-.672-4.447.739-5.984 1.987-2.163 3.792-4.015 4.035-7.113.228-2.915-.757-6.093-1.373-8.923-1.293-5.935-2.902-11.794-4.68-17.6-1.807-5.899-3.787-11.741-5.797-17.572-1.878-5.453-3.684-10.954-6.131-16.186-4.644-9.927-12.499-17.278-22.208-22.187-2.414-1.222-7.339-5.579-9.861-6.555-2.32-.897-2.311 1.722-4.594.736-1.824-.789-3.523-1.842-4.544-3.602-1.11-1.914-3.891-4.59-4.315-6.816-.897-4.72.075-8.737-3.295-12.289-2.989-3.155-7.009-5.317-11.167-6.476-9.151-2.553-21.352-.769-26.872 7.733-2.637 4.061-3.558 8.968-7.116 12.283-3.107 2.893-2.411 4.87-6.435 6.361-.228.085-6.404-1.24-6.632-1.155-4.402-.942-8.608 1.695-12.647 3.225-6.02 2.281-11.752 5.25-17.1364 8.778-10.8587 7.114-20.1584 16.353-27.8254 26.807-7.7302 10.541-13.7286 22.355-17.9993 34.703-1.0377 2.998-1.9698 6.035-2.79 9.1-.4609 1.716-.9527 3.495-.3914 5.251.4571 1.437 1.4768 2.508 2.6729 3.37 1.6222 1.168 4.8757 1.928 4.8127 4.278-.049 1.788-.6554 3.668-.9515 5.435-.3515 2.103-.6412 4.219-.9309 6.331-1.3158 9.615-2.3406 19.286-2.7938 28.983-.4468 9.548-.8163 19.292-.1545 28.837.0437.63.2317 1.207.5343 1.696-.2833.109-.3039.635.0476.71l.739.157c.5112.387 1.1498.624 1.8849.647.4983.015.9953.039 1.4935.064 5.2492 1.097 10.4983 2.134 15.817 2.919 6.4641.949 12.9508 1.738 19.4541 2.365 13.3642 1.298 26.6252.868 40.0082.168 13.352-.695 26.726-.868 40.091-.516 13.387.349 26.771.932 40.161 1.17 14.961.265 29.897-.143 44.814-1.332 2.046-.163 3.311-1.79 2.907-3.821-2.416-12.172-5.155-24.261-7.319-36.484z" fill="#fdfbf5"/><path d="m121.923 191.108c1.383-.06 2.794.164 4.174.3.12.012.166.197.03.226-2.469.516-4.913 1.221-7.339 1.938l-1.039.307c-2.734.81-5.391 1.645-8.039 2.724-5.277 2.152-10.2909 5.055-14.904 8.39-17.7649 12.846-30.6232 32.293-38.737 52.427-2.7416 6.802-4.9561 13.805-6.6242 20.946-.0966.409-.5163 1.458-.2858 1.876.2034.371.9939.6 1.3609.792l1.2411.643c2.4205 1.247 6.4504 3.298 6.8559 3.498l.6309.311c10.3116 5.055 21.3287 9.342 32.9343 9.638l.0901-.991c.5176-5.479 1.1974-10.986 2.678-16.296.0798-.286.4429-.19.4764.064.8253 6.287.5613 12.622.2729 18.937-.5098 11.186-1.187 22.367-1.7896 33.547-.3 5.594-.6901 11.183-1.0429 16.774-.3515 5.601-.4648 11.338-1.2695 16.894-.1802 1.238-1.6299 1.911-2.7282 1.781-1.2154-.145-2.1501-1.215-2.1552-2.443-.0155-3.235.3914-6.511.618-9.739.2137-3.067.4442-6.133.6811-9.198.8626-11.188 1.8539-22.364 2.7732-33.547.3258-3.967.6772-7.929 1.0378-11.892-12.2918-.397-23.7763-4.95-34.7329-10.271-.1584 3.601-.5408 7.196-.9116 10.782-1.0351 10.005-1.948 20.008-2.6304 30.046-.3347 5.07-.6064 10.144-.8149 15.222-.1436 3.326-.2513 6.654-.3232 9.983l-.0386 1.906c-.0296 1.207-.152 2.327-1.1691 3.206-1.0313.893-2.4256.941-3.4479 0-1.3673-1.26-1.1253-2.975-1.0854-4.667.1006-4.28.2616-8.558.4828-12.834.5138-9.965 1.5386-19.891 2.8776-29.777l.524-3.816c.9759-7.094 2.0471-14.35 4.2307-21.183-.8485-.423-1.6957-.849-2.5415-1.277-1.4973-.758-3.0462-1.47-4.5024-2.306-1.1549-.664-2.1501-1.576-2.472-2.919-.3592-1.498.1893-3.136.5537-4.596l.0321-.129c.3567-1.471.7416-2.936 1.1472-4.394 1.6511-5.912 3.6762-11.712 6.0628-17.367 4.7677-11.325 10.9219-22.083 18.4409-31.811 6.7671-8.757 14.7612-16.698 24.1303-22.653 4.5806-2.911 9.4636-5.302 14.6246-6.992 2.413-.791 5.038-1.478 7.565-1.76 1.362-.147 2.728-.247 4.096-.3zm24.512-17.945c1.644-1.764 4.91.062 4.12 2.399-1.857 5.501-4.813 10.518-9.427 14.132-4.338 3.396-9.51 5.604-15.081 5.133-.039-.004-.077-.014-.112-.031l.479.651c3.769 5.098 7.744 10.125 12.537 14.293 9.763 8.489 23.056 13.068 35.892 9.811 10.098-2.563 18.996-10.549 21.612-20.727-.411.181-.871.223-1.309.12-2.093-.454-4.166-2.657-5.517-4.236-1.449-1.676-2.611-3.581-3.438-5.637-1.53-3.815-2.021-8.727.069-12.422.258-.456.852-.201.904.244l.078.694c.403 3.463.905 6.813 2.539 9.972.798 1.544 1.756 3.053 2.923 4.346.624.693 1.3 1.354 2.03 1.934.712.567 1.573.975 2.212 1.625l.116.123.004-.022c.161-1.37 1.122-1.975 2.064-1.937.91.036 1.98.438 2.393.63l.04.018c6.351 3.049 12.202 7.023 17.707 11.433 11.385 9.119 19.915 21.04 24.049 35.078 2.028 6.891 3.192 13.99 4.421 21.056l.756 4.329c1.147 6.524 2.428 13.176 5.018 19.244.669 1.569.153 3.041-1.489 3.659-2.05.768-4.107 1.519-6.17 2.254 1.012 4.342 1.629 8.835 2.388 13.198 1.611 9.276 3.587 18.492 5.281 27.755.865 4.737 1.647 9.49 2.512 14.226.416 2.28.851 4.559 1.273 6.839.228 1.229.434 2.462.652 3.694l.037.205c.125.648.282 1.32.103 1.97-.204.741-.783 1.265-1.299 1.797-.425.437-1.039.44-1.561.202l-.171-.08c-.931-.435-1.659-.869-1.989-1.919-.209-.664-.285-1.413-.421-2.098-.261-1.311-.51-2.625-.744-3.943-.47-2.637-.927-5.276-1.375-7.917l-.417-2.472c-1.435-8.523-2.796-17.096-3.484-25.709-.306-3.82-.629-7.637-.956-11.456l-.244-2.863c-.311-3.625-.689-7.34-.743-11.015l-1.232.438-6.014 2.126c-1.493.528-3.39 1.607-4.996 1.41-.785-.096-1.384-.343-1.846-.792.544 7.813 1.312 15.61 2.302 23.38.909 7.063 1.917 14.118 3.107 21.138.589 3.478 1.196 6.952 1.854 10.415.328 1.734.668 3.463 1.018 5.192.174.862.381 1.725.518 2.595.155.994-.119 1.607-.675 2.427-.457.672-1.371 1.018-2.111.553-.982-.615-1.493-1.149-1.781-2.27-.263-1.018-.422-2.081-.624-3.112-.375-1.904-.737-3.81-1.087-5.717-.734-3.991-1.402-7.993-2.006-12.006-2.121-14.135-3.466-28.39-4.146-42.669-.323-7.043-.45-14.095-.38-21.146.031-3.615.15-7.239.405-10.844.26-3.65.798-7.227 1.278-10.842.017-.128.197-.134.205 0 .228 4.053.584 8.1.759 12.164.167 3.876.24 7.759.373 11.638.175 5.098.417 10.2.736 15.297.579-.634 1.454-1 2.328-.858 1.267-.265 2.63-.929 3.837-1.333l4.552-1.52c2.391-.802 4.787-1.59 7.187-2.363-2.148-7.223-3.618-14.554-4.873-21.99l-.56-3.345c-1.109-6.585-2.305-13.172-4.312-19.548-2.092-6.678-5.29-12.958-9.462-18.578-4.13-5.561-9.157-10.459-14.331-15.039-4.43-3.922-9.17-7.462-13.688-11.276.047.252.057.53.016.837-.961 7.031-4.629 13.579-9.741 18.449-10.269 9.786-25.471 11.815-38.615 7.227-12.714-4.438-23.955-14.949-27.927-27.957-.068-.221.23-.31.35-.147.219.303.442.604.663.906-.007-.066.008-.132.043-.188.036-.056.09-.098.153-.119 4.634-1.79 9.184-4.327 12.657-7.917 1.702-1.754 3.161-3.729 4.337-5.871.558-1.023 1.06-2.084 1.461-3.18l.102-.284c.485-1.373.89-2.773 1.904-3.861z" fill="#000"/><path d="m170.977 59.5649c15.445 0 34.788 17.6195 40.449 25.1165 4.76 6.3039 4.087 38.7776 4.087 58.0406 0 4.028-1.821 11.654-2.483 15.507-2.421 14.122-12.976 25.965-33.866 25.965-17.009 0-30.099-5.388-42.757-19.168-2.887-3.143-16.991 8.111-19.875 4.058-7.534 0-13.833-70.3919.958-91.5044 14.792-21.1139 38.042-18.0147 53.487-18.0147z" fill="#fdfbf5"/><g fill="#000"><path d="m124.556 64.5231c8.925-8.1199 20.814-12.026 32.81-11.7377 6.213.1506 12.403 1.3333 18.271 3.3591 2.935 1.0181 5.777 2.3463 8.494 3.8483.979.5392 1.883 1.1712 2.752 1.843l.216.1686h.003c2.331.8379 4.412 2.3424 6.299 4.1018 3.784-.3012 7.598.0386 11.256 1.206 5.092 1.6268 9.805 4.605 13.116 8.8342 3.856 4.9242 5.138 10.8973 4.681 17.0635l-.085 1.0477c-.452 5.448-1.262 12.4534-5.733 16.0324-.328.267-.702.472-1.104.605 2.88 4.933 5.244 10.412 6.658 15.945 5.4 21.132 1.249 43.171-5.244 63.54-.533 1.678-3.071 2.793-4.362 1.153-2.307-2.932-5.659-5.169-9.428-5.587-2.326-.259-4.641.21-6.838-.846-.909-.446-1.696-1.106-2.293-1.924-3.722 1.415-7.692 2.063-11.67 1.908-6.503-.267-13.456-2.519-17.93-7.459-.718-.792-.901-1.683-.735-2.486.562-.201 1.141-.349 1.73-.443 5.674 3.345 11.929 5.579 18.651 5.72 3.884.081 7.672-.462 10.821-2.887.683-.525 1.308-1.107 1.888-1.731 6.584-4.236 11.227-11.43 13.434-19.137 2.057-7.187 1.803-14.67 1.097-22.042l-.374-3.889c-.543-5.71-1.048-11.437-1.189-17.169l.042-.003c1.391-.09 1.401-2.267 0-2.176-3.623.234-7.218-.361-10.83-.101-.03-1.708-.154-3.408-.654-5.054-.288-.941-1.925-1.127-2.099 0-.232 1.506-.317 3.005-.343 4.519-5.404-.072-10.804-.528-16.21-.34-.997-1.063-1.315-2.95-1.781-4.261-.068-.193-.137-.384-.207-.577-.412 1.885-.999 3.728-1.755 5.503l-1.326.004c-7.523.036-15.198.262-22.543 1.823-.511-.392-.815-1.075-.898-1.697-.531-4.041-1.292-7.974-2.64-11.8249l-.192-.5431c-.018-.0478-.034-.0958-.05-.1442-.993 1.6032-2.179 3.0982-3.471 4.4892-.764.818-1.558 1.607-2.38 2.366-.795.884-1.618 1.755-2.416 2.642.032.161.059.324.081.492.243 1.84.269 3.706.09 5.553-.321 3.324-1.264 6.558-2.78 9.534l-.049.299c-.229 1.395-.556 2.837-1.321 3.887.972 1.085 1.694 2.369 2.114 3.763.38 1.263-1.367 2.357-2.272 1.323-.692-.796-1.501-1.484-2.397-2.041-.056.075-.156.112-.268.049-2.445-1.358-6.599-.947-9.042.332-3.039 1.588-4.223 4.85-3.887 8.155.324 3.158 1.706 6.849 4.385 8.467 1.23.743 2.186.806 3.493.449.417-.113.935-.461 1.156-.633l.219-.176c.856-.676 1.653-1.139 2.664-1.157 1.034-.322 2.071.124 2.467 1.208l.024.07c.186.552.523 1.246.449 2.09-.075.902-.49 1.724-1.107 2.385-.107.116-.22.228-.337.334 10.635 11.515 12.001 29.457 6.547 43.841-.237.632-.489 1.255-.753 1.872-.912 2.116-4.42 1.46-4.867-.637-.382-1.785-.867-3.546-1.454-5.274l-.145-.42c-.323-.924-.626-1.857-.952-2.782l-.033-.106-.04-.144-.552 1.205-1.679 3.637c-.786 1.698-3.281.775-3.374-.861l-.002-.055c-.063-2.504-.45-4.99-1.151-7.394l-.219.272c-3.273 4.048-7.115 7.841-12.386 8.775-1.321.233-2.817-1.148-1.909-2.484.376-.552.738-1.118 1.081-1.692-.285-.131-.564-.275-.836-.43-1.999-1.122-3.663-2.722-5.04-4.537-2.919-3.845-3.963-8.687-4.219-13.426-.272-5.008.169-10.287 1.537-15.119.593-2.089 1.395-4.094 2.323-6.039-.064-.173-.129-.347-.191-.522-.994-2.795-1.83-5.643-2.505-8.531-1.376-5.845-2.116-11.821-2.205-17.825-.164-10.725 1.686-21.622 5.583-31.6239 4.026-10.3143 10.082-20.2515 18.322-27.746zm-5.012 93.7749c-.739-1.164-2.589-.115-1.903 1.057l.026.042c1.171 1.847 1.721 3.947 2.396 6.007.432 1.324 2.536.758 2.099-.581l-.147-.446c-.67-2.088-1.283-4.21-2.472-6.079zm6.438-22.218.49-.238c1.55-.739 2.907-1.242 4.737-.597 2.451.862 5.076 3.607 3.419 6.27-.609.982-1.691 1.373-2.806 1.142-1.88-.389-2.366-2.083-3.32-3.473l-.164-.235c-.582-.841-1.317-2.003-2.286-2.334-.22-.076-.313-.418-.07-.535zm1.381-56.5397.158-.1429c1.054-.9305-.491-2.4646-1.539-1.5393-4.793 4.2344-6.457 10.8639-8.943 16.5127-.558 1.2716 1.317 2.381 1.879 1.1004 2.372-5.3926 3.945-11.8407 8.446-15.9322zm57.595-1.8533c-1.251-.565-2.347 1.2574-1.143 1.8572l.045.0218c4.232 1.9126 6.033 6.2422 7.757 10.2629.55 1.2844 2.424.1776 1.88-1.0966l-.312-.7207c-1.798-4.1443-3.897-8.3658-8.227-10.3246zm6.635-2.6179c-1.328-.4594-1.897 1.641-.58 2.1005 3.587 1.2484 6.049 3.9409 8.124 7.0208.778 1.1531 2.663.0643 1.877-1.0992-2.41-3.5741-5.271-6.5742-9.421-8.0221z"/><path d="m184.307 165.093c-1.844-.753-3.452-1.989-4.653-3.579-.183-.233-.317-.502-.392-.789-.075-.288-.089-.587-.043-.88.098-.602.453-1.145.938-1.51.485-.366 1.093-.546 1.68-.454.511.079 1.018.359 1.421.939l.084.116c.7.957 1.621 1.73 2.686 2.253 1.03.506 2.183.709 3.324.585 2.238-.252 3.779-1.462 5.418-3.106.203-.207.407-.421.61-.638.12-.184.299-.322.507-.39.227-.072.47-.069.695.008s.419.224.554.419c.125.184.197.412.174.675-.151 1.702-1.04 3.221-2.305 4.414-1.404 1.326-3.266 2.242-5.018 2.564-1.93.354-3.898.1-5.68-.627zm6.591-26.266c2.054 1.25 5.184 4.161 2.974 7.257-2.602 2.728-6.346-.401-8.191-1.816-1.711-1.097-3.634 1.724-2.047 3.005 13.336 9.873 18.747-8.119 8.303-9.913-1.151-.198-1.577 1.081-1.039 1.467zm-23.896-11.484c.227-2.817 4.517-3.457 4.944-.669.381 2.497-.068 4.791-1.193 7.04-1.074 2.147-3.775 1.145-3.98-.811-.274-2.622.088-3.807.229-5.56zm32.658-1.247c.598-.784 1.462-1.318 2.496-1.017 3.233.946 2.28 5.536 1.145 7.77-.617 1.212-2.611 1.52-3.513.452-1.467-1.742-2.172-5.221-.303-6.937.05-.088.106-.178.175-.268zm-28.952-11.079.511-.09c1.58-.273 3.543-.535 4.661.734.593.674.796 1.926 0 2.571-1.401 1.133-2.951.695-4.63.79-1.371.079-2.728.31-4.047.69-2.925.837-5.308 2.362-7.806 4.038-.327.218-.662-.2-.506-.506 1.442-2.825 4.236-5.145 7.035-6.559 1.495-.755 3.128-1.381 4.782-1.668zm26.005-1.265.391.08c4.254.888 9.78 2.664 11.793 6.843.078.591-.003.717-.069.799l-.022.028c-.055.071-.098.168-.354.249-.072-.017-.144-.036-.216-.054-.923-.242-1.653-.576-2.36-.922l-.768-.377c-.889-.437-1.787-.857-2.738-1.167-2.028-.665-4.117-1.126-6.237-1.377-.452-.045-.884-.21-1.251-.477-.35-.262-.598-.639-.701-1.064-.149-.601-.105-1.055.217-1.598.242-.407.589-.689.987-.851.422-.167.884-.206 1.328-.112z"/></g></g></svg>