<svg width="309" height="417" viewBox="0 0 309 417" fill="none" xmlns="http://www.w3.org/2000/svg">
<path fill-rule="evenodd" clip-rule="evenodd" d="M250.595 324.25C249.498 318.057 248.493 311.849 247.579 305.627C247.141 302.673 246.729 299.715 246.343 296.754C246.077 294.679 245.671 292.307 247.082 290.77C249.069 288.607 250.874 286.755 251.117 283.657C251.345 280.742 250.36 277.564 249.744 274.734C248.451 268.799 246.842 262.94 245.064 257.134C243.257 251.235 241.277 245.393 239.267 239.562C237.389 234.109 235.583 228.608 233.136 223.376C228.492 213.449 220.637 206.098 210.928 201.189C208.514 199.967 203.589 195.61 201.067 194.634C198.747 193.737 198.756 196.356 196.473 195.37C194.649 194.581 192.95 193.528 191.929 191.768C190.819 189.854 188.038 187.178 187.614 184.952C186.717 180.232 187.689 176.215 184.319 172.663C181.33 169.508 177.31 167.346 173.152 166.187C164.001 163.634 151.8 165.418 146.28 173.92C143.643 177.981 142.722 182.888 139.164 186.203C136.057 189.096 136.753 191.073 132.729 192.564C132.501 192.649 126.325 191.324 126.097 191.409C121.695 190.467 117.489 193.104 113.45 194.634C107.43 196.915 101.698 199.884 96.3136 203.412C85.4549 210.526 76.1552 219.765 68.4882 230.219C60.758 240.76 54.7596 252.574 50.4889 264.922C49.4512 267.92 48.5191 270.957 47.6989 274.022C47.238 275.738 46.7462 277.517 47.3075 279.273C47.7646 280.71 48.7843 281.781 49.9804 282.643C51.6026 283.811 54.8561 284.571 54.7931 286.921C54.7441 288.709 54.1377 290.589 53.8416 292.356C53.4901 294.459 53.2004 296.575 52.9107 298.687C51.5949 308.302 50.5701 317.973 50.1169 327.67C49.6701 337.218 49.3006 346.962 49.9624 356.507C50.0061 357.137 50.1941 357.714 50.4967 358.203C50.2134 358.312 50.1928 358.838 50.5443 358.913L51.2833 359.07C51.7945 359.457 52.4331 359.694 53.1682 359.717C53.6665 359.732 54.1635 359.756 54.6617 359.781C59.9109 360.878 65.16 361.915 70.4787 362.7C76.9428 363.649 83.4295 364.438 89.9328 365.065C103.297 366.363 116.558 365.933 129.941 365.233C143.293 364.538 156.667 364.365 170.032 364.717C183.419 365.066 196.803 365.649 210.193 365.887C225.154 366.152 240.09 365.744 255.007 364.555C257.053 364.392 258.318 362.765 257.914 360.734C255.498 348.562 252.759 336.473 250.595 324.25Z" fill="#FDFBF5"/>
<path fill-rule="evenodd" clip-rule="evenodd" d="M121.923 191.108C123.306 191.048 124.717 191.272 126.097 191.408C126.217 191.42 126.263 191.605 126.127 191.634C123.658 192.15 121.214 192.855 118.788 193.572L117.749 193.879C115.015 194.689 112.358 195.524 109.71 196.603C104.433 198.755 99.4191 201.658 94.806 204.993C77.0411 217.839 64.1828 237.286 56.069 257.42C53.3274 264.222 51.1129 271.225 49.4448 278.366C49.3482 278.775 48.9285 279.824 49.159 280.242C49.3624 280.613 50.1529 280.842 50.5199 281.034L51.761 281.677C54.1815 282.924 58.2114 284.975 58.6169 285.175L59.2478 285.486C69.5594 290.541 80.5765 294.828 92.1821 295.124L92.2722 294.133C92.7898 288.654 93.4696 283.147 94.9502 277.837C95.03 277.551 95.3931 277.647 95.4266 277.901C96.2519 284.188 95.9879 290.523 95.6995 296.838C95.1897 308.024 94.5125 319.205 93.9099 330.385C93.6099 335.979 93.2198 341.568 92.867 347.159C92.5155 352.76 92.4022 358.497 91.5975 364.053C91.4173 365.291 89.9676 365.964 88.8693 365.834C87.6539 365.689 86.7192 364.619 86.7141 363.391C86.6986 360.156 87.1055 356.88 87.3321 353.652C87.5458 350.585 87.7763 347.519 88.0132 344.454C88.8758 333.266 89.8671 322.09 90.7864 310.907C91.1122 306.94 91.4636 302.978 91.8242 299.015C79.5324 298.618 68.0479 294.065 57.0913 288.744C56.9329 292.345 56.5505 295.94 56.1797 299.526C55.1446 309.531 54.2317 319.534 53.5493 329.572C53.2146 334.642 52.9429 339.716 52.7344 344.794C52.5908 348.12 52.4831 351.448 52.4112 354.777L52.3726 356.683C52.343 357.89 52.2206 359.01 51.2035 359.889C50.1722 360.782 48.7779 360.83 47.7556 359.889C46.3883 358.629 46.6303 356.914 46.6702 355.222C46.7708 350.942 46.9318 346.664 47.153 342.388C47.6668 332.423 48.6916 322.497 50.0306 312.611L50.5546 308.795C51.5305 301.701 52.6017 294.445 54.7853 287.612C53.9368 287.189 53.0896 286.763 52.2438 286.335C50.7465 285.577 49.1976 284.865 47.7414 284.029C46.5865 283.365 45.5913 282.453 45.2694 281.11C44.9102 279.612 45.4587 277.974 45.8231 276.514L45.8552 276.385C46.2119 274.914 46.5968 273.449 47.0024 271.991C48.6535 266.079 50.6786 260.279 53.0652 254.624C57.8329 243.299 63.9871 232.541 71.5061 222.813C78.2732 214.056 86.2673 206.115 95.6364 200.16C100.217 197.249 105.1 194.858 110.261 193.168C112.674 192.377 115.299 191.69 117.826 191.408C119.188 191.261 120.554 191.161 121.922 191.108H121.923ZM146.435 173.163C148.079 171.399 151.345 173.225 150.555 175.562C148.698 181.063 145.742 186.08 141.128 189.694C136.79 193.09 131.618 195.298 126.047 194.827C126.008 194.823 125.97 194.813 125.935 194.796L126.414 195.447C130.183 200.545 134.158 205.572 138.951 209.74C148.714 218.229 162.007 222.808 174.843 219.551C184.941 216.988 193.839 209.002 196.455 198.824C196.044 199.005 195.584 199.047 195.146 198.944C193.053 198.49 190.98 196.287 189.629 194.708C188.18 193.032 187.018 191.127 186.191 189.071C184.661 185.256 184.17 180.344 186.26 176.649C186.518 176.193 187.112 176.448 187.164 176.893L187.242 177.587C187.645 181.05 188.147 184.4 189.781 187.559C190.579 189.103 191.537 190.612 192.704 191.905C193.328 192.598 194.004 193.259 194.734 193.839C195.446 194.406 196.307 194.814 196.946 195.464L197.062 195.587L197.066 195.565C197.227 194.195 198.188 193.59 199.13 193.628C200.04 193.664 201.11 194.066 201.523 194.258L201.563 194.276C207.914 197.325 213.765 201.299 219.27 205.709C230.655 214.828 239.185 226.749 243.319 240.787C245.347 247.678 246.511 254.777 247.74 261.843L248.496 266.172C249.643 272.696 250.924 279.348 253.514 285.416C254.183 286.985 253.667 288.457 252.025 289.075C249.975 289.843 247.918 290.594 245.855 291.329C246.867 295.671 247.484 300.164 248.243 304.527C249.854 313.803 251.83 323.019 253.524 332.282C254.389 337.019 255.171 341.772 256.036 346.508C256.452 348.788 256.887 351.067 257.309 353.347C257.537 354.576 257.743 355.809 257.961 357.041L257.998 357.246C258.123 357.894 258.28 358.566 258.101 359.216C257.897 359.957 257.318 360.481 256.802 361.013C256.377 361.45 255.763 361.453 255.241 361.215L255.07 361.135C254.139 360.7 253.411 360.266 253.081 359.216C252.872 358.552 252.796 357.803 252.66 357.118C252.399 355.807 252.15 354.493 251.916 353.175C251.446 350.538 250.989 347.899 250.541 345.258L250.124 342.786C248.689 334.263 247.328 325.69 246.64 317.077C246.334 313.257 246.011 309.44 245.684 305.621L245.44 302.758C245.129 299.133 244.751 295.418 244.697 291.743L243.465 292.181L237.451 294.307C235.958 294.835 234.061 295.914 232.455 295.717C231.67 295.621 231.071 295.374 230.609 294.925C231.153 302.738 231.921 310.535 232.911 318.305C233.82 325.368 234.828 332.423 236.018 339.443C236.607 342.921 237.214 346.395 237.872 349.858C238.2 351.592 238.54 353.321 238.89 355.05C239.064 355.912 239.271 356.775 239.408 357.645C239.563 358.639 239.289 359.252 238.733 360.072C238.276 360.744 237.362 361.09 236.622 360.625C235.64 360.01 235.129 359.476 234.841 358.355C234.578 357.337 234.419 356.274 234.217 355.243C233.842 353.339 233.48 351.433 233.13 349.526C232.396 345.535 231.728 341.533 231.124 337.52C229.003 323.385 227.658 309.13 226.978 294.851C226.655 287.808 226.528 280.756 226.598 273.705C226.629 270.09 226.748 266.466 227.003 262.861C227.263 259.211 227.801 255.634 228.281 252.019C228.298 251.891 228.478 251.885 228.486 252.019C228.714 256.072 229.07 260.119 229.245 264.183C229.412 268.059 229.485 271.942 229.618 275.821C229.793 280.919 230.035 286.021 230.354 291.118C230.933 290.484 231.808 290.118 232.682 290.26C233.949 289.995 235.312 289.331 236.519 288.927L241.071 287.407C243.462 286.605 245.858 285.817 248.258 285.044C246.11 277.821 244.64 270.49 243.385 263.054L242.825 259.709C241.716 253.124 240.52 246.537 238.513 240.161C236.421 233.483 233.223 227.203 229.051 221.583C224.921 216.022 219.894 211.124 214.72 206.544C210.29 202.622 205.55 199.082 201.032 195.268C201.079 195.52 201.089 195.798 201.048 196.105C200.087 203.136 196.419 209.684 191.307 214.554C181.038 224.34 165.836 226.369 152.692 221.781C139.978 217.343 128.737 206.832 124.765 193.824C124.697 193.603 124.995 193.514 125.115 193.677C125.334 193.98 125.557 194.281 125.778 194.583C125.771 194.517 125.786 194.451 125.821 194.395C125.857 194.339 125.911 194.297 125.974 194.276C130.608 192.486 135.158 189.949 138.631 186.359C140.333 184.605 141.792 182.63 142.968 180.488C143.526 179.465 144.028 178.404 144.429 177.308L144.531 177.024C145.016 175.651 145.421 174.251 146.435 173.163Z" fill="black"/>
<path fill-rule="evenodd" clip-rule="evenodd" d="M170.977 59.5649C186.422 59.5649 205.765 77.1844 211.426 84.6814C216.186 90.9853 215.513 123.459 215.513 142.722C215.513 146.75 213.692 154.376 213.03 158.229C210.609 172.351 200.054 184.194 179.164 184.194C162.155 184.194 149.065 178.806 136.407 165.026C133.52 161.883 119.416 173.137 116.532 169.084C108.998 169.084 102.699 98.6921 117.49 77.5796C132.282 56.4657 155.532 59.5649 170.977 59.5649Z" fill="#FDFBF5"/>
<path fill-rule="evenodd" clip-rule="evenodd" d="M124.556 64.5231C133.481 56.4032 145.37 52.4971 157.366 52.7854C163.579 52.936 169.769 54.1187 175.637 56.1445C178.572 57.1626 181.414 58.4908 184.131 59.9928C185.11 60.532 186.014 61.164 186.883 61.8358L187.099 62.0044H187.102C189.433 62.8423 191.514 64.3468 193.401 66.1062C197.185 65.805 200.999 66.1448 204.657 67.3122C209.749 68.939 214.462 71.9172 217.773 76.1464C221.629 81.0706 222.911 87.0437 222.454 93.2099L222.369 94.2576C221.917 99.7056 221.107 106.711 216.636 110.29C216.308 110.557 215.934 110.762 215.532 110.895C218.412 115.828 220.776 121.307 222.19 126.84C227.59 147.972 223.439 170.011 216.946 190.38C216.413 192.058 213.875 193.173 212.584 191.533C210.277 188.601 206.925 186.364 203.156 185.946C200.83 185.687 198.515 186.156 196.318 185.1C195.409 184.654 194.622 183.994 194.025 183.176C190.303 184.591 186.333 185.239 182.355 185.084C175.852 184.817 168.899 182.565 164.425 177.625C163.707 176.833 163.524 175.942 163.69 175.139C164.252 174.938 164.831 174.79 165.42 174.696C171.094 178.041 177.349 180.275 184.071 180.416C187.955 180.497 191.743 179.954 194.892 177.529C195.575 177.004 196.2 176.422 196.78 175.798C203.364 171.562 208.007 164.368 210.214 156.661C212.271 149.474 212.017 141.991 211.311 134.619L210.937 130.73C210.394 125.02 209.889 119.293 209.748 113.561L209.79 113.558C211.181 113.468 211.191 111.291 209.79 111.382C206.167 111.616 202.572 111.021 198.96 111.281C198.93 109.573 198.806 107.873 198.306 106.227C198.018 105.286 196.381 105.1 196.207 106.227C195.975 107.733 195.89 109.232 195.864 110.746C190.46 110.674 185.06 110.218 179.654 110.406C178.657 109.343 178.339 107.456 177.873 106.145C177.805 105.952 177.736 105.761 177.666 105.568C177.254 107.453 176.667 109.296 175.911 111.071L174.585 111.075C167.062 111.111 159.387 111.337 152.042 112.898C151.531 112.506 151.227 111.823 151.144 111.201C150.613 107.16 149.852 103.227 148.504 99.3761L148.312 98.833C148.294 98.7852 148.278 98.7372 148.262 98.6888C147.269 100.292 146.083 101.787 144.791 103.178C144.027 103.996 143.233 104.785 142.411 105.544C141.616 106.428 140.793 107.299 139.995 108.186C140.027 108.347 140.054 108.51 140.076 108.678C140.319 110.518 140.345 112.384 140.166 114.231C139.845 117.555 138.902 120.789 137.386 123.765L137.337 124.064C137.108 125.459 136.781 126.901 136.016 127.951C136.988 129.036 137.71 130.32 138.13 131.714C138.51 132.977 136.763 134.071 135.858 133.037C135.166 132.241 134.357 131.553 133.461 130.996C133.405 131.071 133.305 131.108 133.193 131.045C130.748 129.687 126.594 130.098 124.151 131.377C121.112 132.965 119.928 136.227 120.264 139.532C120.588 142.69 121.97 146.381 124.649 147.999C125.879 148.742 126.835 148.805 128.142 148.448C128.559 148.335 129.077 147.987 129.298 147.815L129.517 147.639C130.373 146.963 131.17 146.5 132.181 146.482C133.215 146.16 134.252 146.606 134.648 147.69L134.672 147.76C134.858 148.312 135.195 149.006 135.121 149.85C135.046 150.752 134.631 151.574 134.014 152.235C133.907 152.351 133.794 152.463 133.677 152.569C144.312 164.084 145.678 182.026 140.224 196.41C139.987 197.042 139.735 197.665 139.471 198.282C138.559 200.398 135.051 199.742 134.604 197.645C134.222 195.86 133.737 194.099 133.15 192.371L133.005 191.951C132.682 191.027 132.379 190.094 132.053 189.169L132.02 189.063L131.98 188.919L131.428 190.124L129.749 193.761C128.963 195.459 126.468 194.536 126.375 192.9L126.373 192.845C126.31 190.341 125.923 187.855 125.222 185.451L125.003 185.723C121.73 189.771 117.888 193.564 112.617 194.498C111.296 194.731 109.8 193.35 110.708 192.014C111.084 191.462 111.446 190.896 111.789 190.322C111.504 190.191 111.225 190.047 110.953 189.892C108.954 188.77 107.29 187.17 105.913 185.355C102.994 181.51 101.95 176.668 101.694 171.929C101.422 166.921 101.863 161.642 103.231 156.81C103.824 154.721 104.626 152.716 105.554 150.771C105.49 150.598 105.425 150.424 105.363 150.249C104.369 147.454 103.533 144.606 102.858 141.718C101.482 135.873 100.742 129.897 100.653 123.893C100.489 113.168 102.339 102.271 106.236 92.2691C110.262 81.9548 116.318 72.0176 124.558 64.5231H124.556ZM119.544 158.298C118.805 157.134 116.955 158.183 117.641 159.355L117.667 159.397C118.838 161.244 119.388 163.344 120.063 165.404C120.495 166.728 122.599 166.162 122.162 164.823L122.015 164.377C121.345 162.289 120.732 160.167 119.543 158.298H119.544ZM125.982 136.08L126.472 135.842C128.022 135.103 129.379 134.6 131.209 135.245C133.66 136.107 136.285 138.852 134.628 141.515C134.019 142.497 132.937 142.888 131.822 142.657C129.942 142.268 129.456 140.574 128.502 139.184L128.338 138.949C127.756 138.108 127.021 136.946 126.052 136.615C125.832 136.539 125.739 136.197 125.982 136.08ZM127.363 79.5403L127.521 79.3974C128.575 78.4669 127.03 76.9328 125.982 77.8581C121.189 82.0925 119.525 88.722 117.039 94.3708C116.481 95.6424 118.356 96.7518 118.918 95.4712C121.29 90.0786 122.863 83.6305 127.364 79.539L127.363 79.5403ZM184.958 77.687C183.707 77.122 182.611 78.9444 183.815 79.5442L183.86 79.566C188.092 81.4786 189.893 85.8082 191.617 89.8289C192.167 91.1133 194.041 90.0065 193.497 88.7323L193.185 88.0116C191.387 83.8673 189.288 79.6458 184.958 77.687ZM191.593 75.0691C190.265 74.6097 189.696 76.7101 191.013 77.1696C194.6 78.418 197.062 81.1105 199.137 84.1904C199.915 85.3435 201.8 84.2547 201.014 83.0912C198.604 79.5171 195.743 76.517 191.593 75.0691Z" fill="black"/>
<path fill-rule="evenodd" clip-rule="evenodd" d="M184.307 165.093C182.463 164.34 180.855 163.104 179.654 161.514C179.471 161.281 179.337 161.012 179.262 160.725C179.187 160.437 179.173 160.138 179.219 159.845C179.317 159.243 179.672 158.7 180.157 158.335C180.642 157.969 181.25 157.789 181.837 157.881C182.348 157.96 182.855 158.24 183.258 158.82L183.342 158.936C184.042 159.893 184.963 160.666 186.028 161.189C187.058 161.695 188.211 161.898 189.352 161.774C191.59 161.522 193.131 160.312 194.77 158.668C194.973 158.461 195.177 158.247 195.38 158.03C195.5 157.846 195.679 157.708 195.887 157.64C196.114 157.568 196.357 157.571 196.582 157.648C196.807 157.725 197.001 157.872 197.136 158.067C197.261 158.251 197.333 158.479 197.31 158.742C197.159 160.444 196.27 161.963 195.005 163.156C193.601 164.482 191.739 165.398 189.987 165.72C188.057 166.074 186.089 165.82 184.307 165.093ZM190.898 138.827C192.952 140.077 196.082 142.988 193.872 146.084C191.27 148.812 187.526 145.683 185.681 144.268C183.97 143.171 182.047 145.992 183.634 147.273C196.97 157.146 202.381 139.154 191.937 137.36C190.786 137.162 190.36 138.441 190.898 138.827ZM167.002 127.343C167.229 124.526 171.519 123.886 171.946 126.674C172.327 129.171 171.878 131.465 170.753 133.714C169.679 135.861 166.978 134.859 166.773 132.903C166.499 130.281 166.861 129.096 167.002 127.343ZM199.66 126.096C200.258 125.312 201.122 124.778 202.156 125.079C205.389 126.025 204.436 130.615 203.301 132.849C202.684 134.061 200.69 134.369 199.788 133.301C198.321 131.559 197.616 128.08 199.485 126.364C199.535 126.276 199.591 126.186 199.66 126.096ZM170.708 115.017L171.219 114.927C172.799 114.654 174.762 114.392 175.88 115.661C176.473 116.335 176.676 117.587 175.88 118.232C174.479 119.365 172.929 118.927 171.25 119.022C169.879 119.101 168.522 119.332 167.203 119.712C164.278 120.549 161.895 122.074 159.397 123.75C159.07 123.968 158.735 123.55 158.891 123.244C160.333 120.419 163.127 118.099 165.926 116.685C167.421 115.93 169.054 115.304 170.708 115.017ZM196.713 113.752L197.104 113.832C201.358 114.72 206.884 116.496 208.897 120.675C208.975 121.266 208.894 121.392 208.828 121.474L208.806 121.502C208.751 121.573 208.708 121.67 208.452 121.751C208.38 121.734 208.308 121.715 208.236 121.697C207.313 121.455 206.583 121.121 205.876 120.775L205.108 120.398C204.219 119.961 203.321 119.541 202.37 119.231C200.342 118.566 198.253 118.105 196.133 117.854C195.681 117.809 195.249 117.644 194.882 117.377C194.532 117.115 194.284 116.738 194.181 116.313C194.032 115.712 194.076 115.258 194.398 114.715C194.64 114.308 194.987 114.026 195.385 113.864C195.807 113.697 196.269 113.658 196.713 113.752Z" fill="black"/>
</svg>
