<svg fill="none" height="565" viewBox="0 0 812 565" width="812" xmlns="http://www.w3.org/2000/svg"><g fill="#1e1d3d"><path d="m536.609 207.458c-.978-4.728-2.85-9.255-5.527-13.368-1.402-1.982-2.986-3.812-5.315-4.377-2.382-.556-4.87-.589-7.268-.097-2.498.384-5.005 1.017-7.606 1.475-1.327.256-2.675.411-4.029.463-1.486.086-2.969-.198-4.3-.823-1.346-.671-2.447-1.704-3.159-2.966-.647-1.176-1.091-2.441-1.315-3.747-.121-.608-.207-1.276-.317-1.749-.143-.488-.363-.952-.653-1.379-.639-.966-1.397-1.858-2.259-2.658l.624-1.494c-.005-.004-.011-.008-.017-.01-.007-.002-.014-.003-.02-.002-.007 0-.013.002-.019.005s-.012.007-.016.012c.011 0 .078-.042.116-.058.117-.059.228-.129.331-.207.256-.188.501-.39.733-.604.488-.441.965-.924 1.428-1.42.929-.989 1.825-2.035 2.684-3.084l1.002.916c-.158.084-.324.154-.496.207l-.349.062c-.235.04-.423.04-.637.061-.405.019-.802.027-1.193.021-.784-.007-1.556-.037-2.327-.081-1.542-.082-3.069-.216-4.604-.349h-.008c-.09-.008-.175-.039-.247-.09-.071-.051-.126-.12-.158-.199-.233-.583-.501-1.153-.803-1.708-.301-.523-.659-1.133-1.061-1.28-1.195-.428-2.584-.708-3.89-1.051-1.362-.309-2.703-.692-4.017-1.147-.198-.096-.371-.233-.506-.399s-.23-.359-.276-.563c-.079-.362-.08-.734-.005-1.096.136-.662.359-1.304.665-1.914 1.226-2.323 2.659-4.545 4.283-6.643.772-1.005 1.377-2.113 1.795-3.287.415-1.106.52-2.294.303-3.45l.02.055c-.844-2.085-1.436-4.253-1.767-6.462-.36-2.179-.583-4.375-.668-6.578-.104-2.197-.109-4.393-.052-6.586.056-2.198.166-4.375.389-6.586.025-.239.134-.463.311-.636s.411-.286.664-.32c.254-.033.512.014.733.135.222.12.393.307.487.53l.017.042c1.374 3.242 3.003 6.383 4.875 9.398 1.843 3.007 3.998 5.838 6.432 8.451 2.328 2.583 5.216 4.675 8.472 6.136 1.586.682 3.297 1.073 5.041 1.151 1.746.052 3.489-.167 5.159-.647l-.798.895c.332-1.761.922-3.471 1.755-5.081.434-.842.99-1.624 1.652-2.323.733-.767 1.679-1.328 2.733-1.619.546-.121 1.107-.167 1.666-.138.532.052 1.055.165 1.557.338.96.317 1.848.802 2.615 1.43 1.449 1.242 2.476 2.856 2.954 4.64.553 1.629.986 3.292 1.298 4.976.345 1.705.417 3.448.215 5.172-.064.897-.344 1.769-.82 2.551-.475.782-1.133 1.453-1.924 1.963-1.666.796-3.58 1.013-5.401.612-.032-.004-.061-.021-.081-.046-.019-.025-.027-.056-.022-.086.006-.029.023-.055.047-.073.025-.018.056-.027.087-.025 1.73.234 3.493-.087 5.002-.911.653-.49 1.179-1.113 1.537-1.822.358-.708.539-1.484.53-2.267.014-3.278-.667-6.525-2.002-9.555-.467-1.475-1.383-2.791-2.636-3.787-.601-.461-1.291-.811-2.032-1.031-.342-.108-.696-.176-1.056-.204-.168-.01-.336 0-.501.033-.16.034-.339-.01-.485.078-.681.287-1.293.7-1.798 1.215-.504.515-.891 1.121-1.137 1.781-.68 1.436-1.147 2.951-1.391 4.504l-.001.006c-.034.203-.126.392-.266.549-.141.157-.324.275-.531.341-1.937.633-3.979.933-6.03.886-2.056-.065-4.079-.496-5.963-1.27-3.637-1.557-6.854-3.857-9.417-6.731-2.543-2.749-4.763-5.746-6.621-8.94-1.881-3.155-3.507-6.438-4.864-9.821l2.212-.249c-.243 2.117-.417 4.284-.549 6.432-.127 2.154-.193 4.31-.161 6.462.036 2.15.091 4.304.355 6.429.205 2.116.667 4.203 1.378 6.22l.016.042.004.014c.24 1.387.074 2.81-.481 4.116-.502 1.245-1.202 2.413-2.076 3.464-1.64 2.022-3.086 4.177-4.32 6.439-.287.547-.5 1.126-.634 1.722-.127.581-.053 1.129.383 1.324.605.233 1.228.423 1.865.567l1.979.489c1.335.33 2.633.591 4.018 1.028.209.073.4.187.561.332.143.127.273.266.388.415.216.274.411.561.584.859.34.578.644 1.174.91 1.785l-.412-.289c1.518.085 3.047.128 4.565.142.759.008 1.518.002 2.265-.027.374-.012.742-.038 1.1-.071.166-.025.362-.037.501-.072l.214-.046c.024-.017.011-.017.031-.005l.909.512c.034.019.064.045.087.075.024.03.041.064.051.1.009.036.011.074.005.111s-.019.072-.04.104l-.01.014c-.827 1.126-1.673 2.219-2.586 3.292-.455.537-.926 1.066-1.445 1.582-.266.27-.548.526-.845.765-.17.14-.352.265-.545.375-.115.068-.234.128-.358.18-.193.061-.392.103-.594.125l.624-1.493c1.031.865 1.948 1.843 2.73 2.913.426.589.75 1.237.959 1.921.181.71.255 1.251.39 1.834.224 1.091.611 2.146 1.149 3.136.506.902 1.293 1.638 2.255 2.113 1.89.956 4.435.662 6.933.274 2.511-.393 5.038-.984 7.672-1.343 2.701-.518 5.498-.389 8.132.375.668.229 1.31.521 1.915.871l.842.612c.289.192.548.419.773.674l.703.733c.215.25.393.511.591.766.403.504.738 1.044 1.084 1.577 1.324 2.143 2.356 4.433 3.072 6.816.755 2.345 1.272 4.752 1.546 7.189.001.015 0 .03-.005.045-.005.014-.013.028-.023.04-.01.011-.023.021-.037.028-.015.007-.03.012-.047.013-.031.002-.061-.007-.086-.025-.025-.017-.042-.043-.048-.071z"/><path d="m527.739 161.877c-2.012 3.49-2.593 7.546-1.635 11.409 1.635 6.4-1.059 15.381-1.059 15.381s-6.819 22.741 13.247 18.775c20.066-3.965 51.726-14.191 57.3-34.852 0 0-6.113-14.676-9.587-19.409-7.823-10.654-20.958-38.608-27.424-42.782-1.446-2.103-3.329-3.912-5.538-5.319-6.694-4.562-14.954-6.6428-23.19-5.8415-12.123 1.0555-31.644 5.7465-42.618 24.0995 0 0 10.623 30.947 31.437 25.183 0 0 1.64-10.946 8.794-7.655 1.865.905 3.296 2.436 4.009 4.286 1.893 4.629 4.897 14.697-3.736 16.725z"/><path d="m489.911 148.59c.455-.683 1.027-1.292 1.692-1.803.655-.522 1.377-.967 2.15-1.323.787-.357 1.628-.599 2.494-.715.873-.118 1.764-.017 2.582.293-1.579.284-3.107.777-4.537 1.465-1.439.642-2.821 1.401-4.381 2.083zm5.574 6.122c.481-.016.938-.206 1.272-.53.335-.325.522-.758.522-1.209s-.187-.885-.522-1.209c-.334-.325-.791-.515-1.272-.53-.482.015-.938.205-1.273.53-.335.324-.522.758-.522 1.209s.187.884.522 1.209c.335.324.791.514 1.273.53zm100.111 17.713c4.289.081 8.557.569 12.74 1.455 4.199.851 8.325 1.992 12.343 3.416 4.035 1.403 7.972 3.042 11.787 4.908 1.874.99 3.794 1.913 5.604 3.008l2.751 1.588 2.664 1.712c7.077 4.615 13.563 9.976 19.33 15.979 5.687 6.026 10.76 12.536 15.155 19.445 8.588 13.828 15.601 28.462 20.923 43.662.737 1.877 1.352 3.789 1.958 5.704l1.859 5.739c1.142 3.854 2.203 7.747 3.254 11.637 1.455 7.855 2.938 15.709 4.318 23.581.057.326.001.66-.158.954-.16.294-.416.533-.73.682l-.023.01c-7.855 3.716-15.912 7.043-24.139 9.969-4.124 1.439-8.285 2.78-12.484 4.022-4.214 1.187-8.441 2.335-12.713 3.322-8.538 1.979-17.184 3.527-25.899 4.637-8.702 1.095-17.462 1.74-26.24 1.931l-.048.001c-.19.005-.375-.061-.513-.184-3.952-3.511-7.943-6.979-11.859-10.527-.033-.03-.052-.07-.054-.113-.002-.042.014-.084.044-.116s.072-.051.117-.055c.046-.004.091.009.126.035 4.259 3.184 8.443 6.448 12.667 9.669l-.561-.183c8.692-.614 17.321-1.734 25.892-3.071 8.571-1.355 17.049-3.158 25.425-5.275 8.377-2.117 16.639-4.581 24.786-7.393 8.139-2.806 16.158-5.934 23.975-9.473l-.911 1.646c-1.274-7.858-2.444-15.735-3.643-23.612-.873-3.864-1.703-7.738-2.647-11.601l-1.577-5.765c-.519-1.925-1.047-3.848-1.697-5.737l-1.86-5.695c-.615-1.902-1.43-3.737-2.136-5.609-1.402-3.75-3.042-7.412-4.752-11.047-3.473-7.24-7.603-14.188-12.344-20.767-4.719-6.545-9.993-12.724-15.77-18.477-5.719-5.764-12.018-10.998-18.81-15.63-6.795-4.643-14.122-8.562-21.845-11.686-7.746-3.177-15.93-5.32-24.312-6.365l-.013-.002c-.045-.005-.086-.025-.115-.058-.029-.032-.044-.073-.041-.116.003-.042.022-.081.055-.11s.076-.045.121-.045z"/><path d="m702.648 315.879c1.059 1.76 1.921 3.618 2.572 5.543.653 1.876 1.184 3.787 1.588 5.724.411 1.935.692 3.892.843 5.86.175 2.014.124 4.039-.151 6.043-1.063-1.759-1.927-3.616-2.577-5.542-.654-1.876-1.183-3.788-1.583-5.725-.407-1.936-.687-3.893-.839-5.861-.173-2.013-.124-4.038.147-6.042zm-101.578-87.029c1.294-3.406 3.074-6.633 5.29-9.594 2.191-3.019 4.795-5.757 7.744-8.146 1.503-1.188 3.104-2.263 4.789-3.215 1.707-.935 3.51-1.706 5.383-2.301 1.879-.566 3.824-.916 5.792-1.044 1.944-.084 3.891.087 5.784.509-1.885.089-3.759.323-5.604.699-1.791.405-3.541.955-5.23 1.644-3.333 1.449-6.43 3.334-9.197 5.598-1.422 1.11-2.775 2.297-4.052 3.553-1.317 1.23-2.537 2.552-3.771 3.874-2.419 2.683-4.712 5.491-6.928 8.423zm45.293-18.236c2.222 1.435 4.182 3.196 5.805 5.215 1.663 2.008 3.044 4.207 4.111 6.543 1.09 2.342 1.797 4.825 2.097 7.364.335 2.52.16 5.077-.516 7.536-.365-2.418-.873-4.816-1.519-7.182-.651-2.304-1.488-4.559-2.501-6.746-1.006-2.203-2.137-4.355-3.388-6.446-1.274-2.104-2.633-4.175-4.089-6.284zm-144.552 33.769c-1.237 4.471-2.564 8.978-4.165 13.376-1.588 4.398-3.306 8.735-4.802 13.132-.703 2.071-1.38 4.154-1.978 6.249-.3-.231-.599-.475-.898-.706.559-1.962 1.171-3.911 1.783-5.86 1.392-4.446 2.772-8.88 4.008-13.339 1.275-4.446 2.226-8.929 3.175-13.461 1.979-9.038 4.113-18.053 6.312-27.056 2.187-9.014 4.49-17.992 7.028-26.946.015-.041.046-.076.087-.096.042-.02.09-.025.135-.013.043.008.081.031.105.066.025.034.034.076.025.116-1.301 9.173-2.903 18.297-4.699 27.385-1.808 9.1-3.735 18.163-6.116 27.153zm47.957 61.068c-.982.273-2.013.36-3.032.256-.755-2.729-1.427-5.478-2.017-8.247-.768-3.533-1.38-7.078-1.887-10.659-.443-3.192-.781-6.408-.885-9.673-4.558-.658-9.175-.886-13.782-.682-5.181.185-10.297 1.151-15.149 2.863-4.053 1.465-7.851 3.485-11.271 5.993-.793-.548-1.6-1.133-2.42-1.73 3.684-3.036 7.885-5.473 12.428-7.211 5.161-1.964 10.63-3.124 16.19-3.436 4.628-.241 9.271-.016 13.847.67-.689-3.35-1.327-6.7-1.886-10.062-.703-4.178-1.367-8.368-1.94-12.571-.507-4.215-.963-8.418-1.249-12.657-.312-4.229-.364-8.471-.156-12.706 0-.021.006-.043.015-.062.01-.02.024-.038.041-.053.017-.014.036-.026.058-.033.022-.008.045-.011.068-.01.043.005.083.023.114.052.031.028.05.066.055.106.299 4.203.846 8.381 1.484 12.547.611 4.167 1.379 8.308 2.199 12.45.755 4.142 1.601 8.272 2.499 12.401l2.785 12.328c.052.22.056.448.014.67-.043.221-.133.433-.263.622-.131.189-.301.352-.499.48-.198.127-.422.217-.658.263-.222.044-.451.052-.676.024l-.026-.012c-.456-.061-.912-.11-1.354-.183 1.201 2.986 2.239 6.027 3.111 9.112 1.015 3.472 1.9 6.98 2.655 10.501.624 2.875 1.153 5.758 1.587 8.649zm-46.149 31.173c1.705 1.62 3.436 3.253 5.18 4.861l-34.279-.085c-18.455-.134-36.922-.183-55.376-.415-18.454-.17-36.909-.41-55.363-.718l-27.694-.561-13.834-.28-13.848-.378 13.848-.377 13.834-.281 27.694-.56c18.454-.292 36.909-.532 55.363-.719 18.454-.231 36.921-.28 55.376-.414z"/><path d="m751.373 339.05-13.848.378-13.834.28-27.694.548c-18.454.293-36.909.532-55.363.719-18.467.232-36.921.28-55.376.414l-2.655.013c1.718-1.487 3.436-3.046 5.128-4.678 17.634.122 35.256.182 52.903.402 18.454.158 36.909.398 55.363.718l27.694.549 13.835.28zm-406.182-142.459c-.739-.378-1.768-.647-2.29-.211-.225.282-.384.606-.466.95-.081.344-.083.701-.006 1.046.191 1.587.568 3.149 1.124 4.659 1.027 3.092 2.343 6.126 3.647 9.158 1.369 3.028 2.636 6.11 3.976 9.154l3.879 9.185 7.623 18.387c1.306 3.043 2.58 6.103 4.027 9.067.674 1.483 1.473 2.913 2.389 4.278.43.605 1.103 1.357 1.511 1.156.306-.218.525-.526.624-.873.149-.387.266-.784.351-1.188.02.42.006.841-.041 1.258-.019.477-.216.932-.559 1.285-.123.099-.268.169-.425.206-.158.037-.322.039-.48.005-.27-.051-.527-.15-.759-.289-.404-.249-.779-.536-1.119-.858-1.233-1.251-2.341-2.607-3.307-4.049-1.9-2.827-3.64-5.744-5.215-8.741-1.628-2.958-3.043-6.001-4.5-9.023-1.402-3.044-2.726-6.115-4.045-9.187-1.247-3.097-2.503-6.19-3.68-9.31-1.134-3.137-2.319-6.244-3.336-9.428-1.095-3.194-1.953-6.455-2.567-9.76-.32-1.692-.414-3.415-.279-5.129.052-.451.161-.894.326-1.321.158-.484.507-.893.976-1.143.235-.098.49-.147.747-.143s.509.06.741.165c.416.17.799.404 1.133.694z"/><path d="m341.841 198.523c4.156.515 8.355.668 12.541.456 4.179-.138 8.351-.446 12.496-.953 8.298-.986 16.529-2.416 24.653-4.282 8.164-1.726 16.182-4.001 24.226-6.214l11.962-3.658c3.972-1.271 7.922-2.606 11.927-3.825-3.826 1.633-7.708 3.151-11.567 4.732l-11.811 4.191c-1.994.637-3.991 1.265-5.997 1.869-2.01.591-3.992 1.27-6.029 1.782-4.062 1.057-8.106 2.184-12.227 3.042-4.098.946-8.251 1.667-12.401 2.39-4.177.586-8.352 1.193-12.57 1.475-8.39.607-16.977.828-25.203-1.005zm111.512 16.216c-4.044.901-8.001 2.119-11.827 3.641-1.922.729-3.833 1.484-5.724 2.278-1.868.846-3.773 1.61-5.607 2.52-7.411 3.487-14.623 7.335-21.605 11.527-7.065 4.078-13.824 8.599-20.63 13.067l-10.016 6.966c-3.309 2.362-6.575 4.779-9.933 7.102 3.048-2.663 6.188-5.232 9.285-7.855l9.689-7.426c1.655-1.191 3.32-2.371 4.995-3.539 1.681-1.16 3.324-2.371 5.058-3.464 3.444-2.217 6.866-4.466 10.429-6.519 3.516-2.121 7.164-4.046 10.794-5.991 3.709-1.818 7.403-3.662 11.243-5.233 7.629-3.164 15.544-6.046 23.849-7.074z"/><path d="m436.507 178.222 17.961 38.902 16.484-17.414-9.599-20.792z"/><path d="m608.002 312.274c-8.081 14.349-19.326 26.928-32.991 36.904-6.845 5.118-14.682 8.949-23.08 11.283-4.253 1.16-8.698 1.579-13.113 1.235-1.104-.128-2.2-.315-3.281-.56-1.078-.272-2.134-.617-3.159-1.031-1.976-.88-3.86-1.933-5.626-3.143-3.469-2.386-6.798-4.947-9.971-7.672-3.181-2.697-6.306-5.444-9.377-8.242l-18.574-16.587c-6.271-5.547-12.079-11.537-17.37-17.917-5.343-6.258-10.761-12.461-16.032-18.772l1.427.673c-3.814-.14-7.592-.744-11.239-1.798-3.604-1.014-7.106-2.32-10.466-3.904-3.39-1.585-6.58-3.52-9.512-5.768-.794-.621-1.515-1.319-2.151-2.083-.705-.909-1.128-1.983-1.223-3.103-.052-1.119.246-2.227.858-3.19.554-.895 1.285-1.683 2.154-2.323l-.162 1.882-1.21-1.375c-.365-.497-.712-1.011-1.047-1.529-.656-1.107-1.077-2.322-1.24-3.578-.13-1.303.131-2.615.754-3.786.615-1.146 1.525-2.13 2.648-2.863l.567 1.649c-.976-.06-1.927-.322-2.782-.767-.856-.444-1.596-1.06-2.168-1.804-.56-.703-.957-1.509-1.164-2.365s-.22-1.744-.038-2.605c.307-1.678 1.271-3.188 2.704-4.237.688-.508 1.477-.883 2.322-1.104.844-.222 1.726-.284 2.596-.185l.027.004c.045.005.086.026.114.059s.042.074.039.116c-.004.042-.024.082-.057.11-.034.028-.078.043-.123.042-1.62-.037-3.193.519-4.382 1.551-1.155.99-1.874 2.347-2.016 3.807-.089.689-.023 1.388.193 2.052.216.663.577 1.278 1.061 1.803.44.51.99.926 1.614 1.222s1.308.466 2.007.497c.201-.015.401.03.573.129.171.099.304.246.38.421.075.174.089.367.04.55-.05.182-.16.345-.315.465l-.111.084c-.778.597-1.393 1.358-1.795 2.221-.383.843-.506 1.769-.356 2.673.192.936.571 1.829 1.118 2.633.304.409.622.814.942 1.215l1.089 1.15c.122.129.215.279.275.441s.086.334.074.506c-.011.171-.058.339-.138.493-.08.155-.192.293-.329.407l-.008.006-.036.03c-.546.449-1.002.985-1.346 1.584-.316.523-.459 1.121-.412 1.72.089.588.343 1.144.737 1.61.52.561 1.098 1.072 1.726 1.526 2.813 1.992 5.851 3.686 9.062 5.053 3.2 1.435 6.526 2.614 9.94 3.522 3.364.903 6.829 1.441 10.324 1.603h.008c.275.01.543.076.788.192s.46.28.631.481c5.313 6.281 10.48 12.669 15.721 19.003 5.086 6.372 10.608 12.429 16.531 18.132l17.684 17.451c2.976 2.874 6.02 5.679 9.175 8.368 3.119 2.71 6.446 5.202 9.956 7.455 1.723 1.115 3.57 2.053 5.508 2.797.963.326 1.95.589 2.952.785 1.01.17 2.03.287 3.054.35 4.151.091 8.284-.525 12.199-1.82 3.95-1.283 7.766-2.902 11.4-4.836 3.673-1.918 7.206-4.062 10.574-6.419 13.514-9.473 24.925-21.532 34.551-34.75.026-.036.065-.061.109-.07.045-.009.091-.002.13.02s.067.057.079.098.007.085-.015.123z"/><path d="m427.07 243.941-.026.002h-.002l-.047-.006c-2.017-.22-3.98-.759-5.803-1.595-1.009-.458-1.858-1.177-2.445-2.072-.282-.506-.438-1.066-.458-1.636-.019-.571.099-1.139.346-1.661.82-1.969 2.431-3.558 4.487-4.43.991-.433 2.037-.745 3.114-.926 1.152-.248 2.35-.247 3.502.004 3.814.999 7.634 1.977 11.432 3.025 3.8 1.041 7.604 2.068 11.382 3.177l-1.899 1.995c-.743-1.59-1.424-3.204-2.133-4.808l-.026-.06c-.149-.334-.149-.711 0-1.045.148-.335.432-.601.79-.74.226-.087.472-.12.715-.096 2.824.287 5.622.759 8.375 1.413 1.419.323 2.803.765 4.137 1.322.355.152.698.328 1.026.527l.507.32c.175.136.341.282.498.435.167.139.307.304.413.488.112.162.216.329.309.501l.475.908c2.268 4.809 4.374 9.592 6.516 14.401 1.075 2.421 2.154 4.75 3.059 7.341l.133.516c.024.131.061.259.11.383.102.273.231.536.386.786.326.536.702 1.043 1.126 1.515.866.981 1.791 1.915 2.771 2.796 4.02 3.532 8.233 6.867 12.621 9.99 4.362 3.21 8.693 6.37 13.196 9.332 4.484 2.965 9.176 5.617 13.954 8.174l3.596 1.906c1.187.617 2.374 1.187 3.595 1.746 2.427 1.125 4.923 2.157 7.46 3.074 2.542.9 5.101 1.776 7.692 2.443 1.276.331 2.57.597 3.877.797 1.133.212 2.299.216 3.434.012l.155-.046c-.014-.012-.145.052-.05.014l.21-.084.42-.168.839-.335 1.647-.685c1.083-.469 2.174-.918 3.217-1.435 2.105-.983 4.084-2.187 5.897-3.59 3.513-3.076 6.73-6.435 9.615-10.039.028-.032.069-.054.113-.059.044-.006.09.004.126.028.037.025.063.061.072.102s.001.084-.022.12c-1.261 1.95-2.564 3.873-3.953 5.761-1.37 1.935-2.941 3.738-4.688 5.384-1.806 1.635-3.804 3.071-5.957 4.283-1.062.615-2.138 1.196-3.241 1.715-.548.261-1.101.534-1.644.774l-.818.371-.408.185-.205.093c-.153.067-.311.124-.473.171l.155-.045c-.815.27-1.673.41-2.539.414-.759.014-1.518-.016-2.274-.09-1.443-.152-2.875-.379-4.291-.679-2.771-.591-5.499-1.346-8.167-2.261-2.661-.9-5.275-1.914-7.843-3.042-1.282-.562-2.552-1.199-3.792-1.842l-3.64-1.943c-9.654-5.322-18.705-11.549-27.013-18.586-4.225-3.428-8.252-7.065-12.065-10.894-.959-.976-1.857-2.003-2.69-3.076-.428-.553-.814-1.133-1.155-1.737-.181-.318-.329-.652-.441-.997-.064-.183-.109-.371-.137-.561-.034-.196-.066-.285-.098-.434-.815-2.45-1.768-4.858-2.853-7.215-2.114-4.785-4.491-9.465-7.12-14.021l-.508-.808c-.072-.113-.151-.222-.237-.327-.059-.103-.146-.19-.252-.251-.099-.067-.166-.143-.28-.21l-.375-.194c-.267-.135-.545-.252-.83-.349-1.241-.411-2.519-.719-3.819-.922-2.676-.419-5.375-.7-8.084-.841l1.479-1.941c.766 1.58 1.559 3.149 2.291 4.743.118.257.155.54.108.816s-.178.534-.375.743c-.198.209-.456.362-.742.439-.287.078-.592.078-.878 0l-.012-.003c-3.801-1.04-7.575-2.163-11.354-3.271-3.781-1.102-7.539-2.273-11.304-3.424-.777-.196-1.59-.229-2.382-.097-.883.097-1.749.299-2.577.603-1.65.554-3.004 1.689-3.775 3.162-.194.308-.313.651-.348 1.007-.036.355.014.713.144 1.049.385.733.983 1.349 1.726 1.778 1.657.953 3.449 1.682 5.323 2.167l-.049-.006.026.001c.044.003.086.022.117.053.03.031.047.071.047.113s-.017.082-.047.113c-.031.03-.073.049-.117.052z"/><path d="m426.066 243.051 6.961.995-7.023.482z"/><path d="m425.623 255.036 10.396 1.544-10.525-.07z"/><path d="m426.319 266.57 7.613 2.718-8.031-1.29z"/><path d="m418.691 227.886c1.518-.168 3.052-.157 4.567.033 1.491.156 2.966.432 4.407.825l.456.124.098.286c.429 1.149.716 2.341.858 3.552-.867-.908-1.621-1.906-2.247-2.973l.553.409c-1.494-.125-2.975-.37-4.425-.732-1.485-.339-2.918-.851-4.267-1.524zm25.781-10.99c.833 1.259 1.591 2.55 2.322 3.851.737 1.299 1.431 2.616 2.11 3.938l.142.277-.156.322c-.45.927-.872 1.867-1.347 2.783l.016-.667c1.838 3.813 3.527 7.686 4.981 11.655l-.29-.251c1.389.563 2.77 1.146 4.124 1.804-1.5-.257-2.974-.588-4.44-.939l-.172-.041-.118-.21c-2.092-3.711-3.948-7.517-5.655-11.383l-.152-.344.168-.323c.475-.916 1.004-1.807 1.504-2.711l-.014.598c-.563-1.369-1.112-2.744-1.618-4.137-.511-1.39-.996-2.791-1.405-4.222z"/><path d="m427.525 229.443c1.553-.463 3.139-.821 4.747-1.072 1.592-.264 3.189-.472 4.794-.614 1.603-.148 3.214-.227 4.83-.251 1.63-.04 3.26.031 4.879.211-1.553.465-3.139.824-4.747 1.074-1.592.264-3.189.473-4.794.613-1.604.144-3.215.224-4.831.248-1.629.039-3.26-.031-4.878-.209zm-125.574-16.837c-11.808 1.514-23.634 2.841-35.476 3.981-11.839 1.18-23.694 2.187-35.552 3.161-11.862.92-23.728 1.802-35.61 2.512-11.878.752-23.773 1.314-35.686 1.684 11.809-1.518 23.634-2.846 35.477-3.985 11.839-1.179 23.693-2.187 35.551-3.158 11.863-.915 23.729-1.797 35.611-2.507 11.878-.75 23.773-1.313 35.685-1.688zm25.759 55.794c-6.995 6.137-14.187 12.048-21.449 17.88-7.249 5.845-14.615 11.557-22.004 17.243-7.426 5.643-14.877 11.257-22.445 16.737-7.555 5.495-15.182 10.909-23.007 16.094 6.993-6.14 14.184-12.052 21.446-17.882 7.25-5.846 14.616-11.557 22.007-17.24 7.429-5.64 14.88-11.254 22.449-16.734 7.556-5.495 15.181-10.909 23.003-16.098zm-54.371-21.08c-5.058 1.826-10.192 3.369-15.353 4.812-5.156 1.461-10.357 2.754-15.568 4.015-5.224 1.206-10.458 2.377-15.737 3.381-5.275 1.022-10.577 1.942-15.956 2.577 5.057-1.83 10.191-3.374 15.352-4.816 5.156-1.46 10.358-2.753 15.569-4.01 5.225-1.204 10.459-2.375 15.739-3.378 5.275-1.021 10.576-1.942 15.954-2.581zm-14.968 30.696c-6.044 4.248-12.253 8.248-18.52 12.162-6.257 3.929-12.612 7.711-18.985 11.464-6.405 3.707-12.831 7.382-19.354 10.911-6.512 3.545-13.084 7-19.823 10.206 6.042-4.251 12.25-8.253 18.518-12.166 6.257-3.928 12.612-7.71 18.987-11.461 6.407-3.703 12.833-7.379 19.356-10.907 6.513-3.544 13.085-7 19.821-10.209zm337.334-40.753c-1.819 4.202-3.669 8.391-5.615 12.538-1.927 4.156-3.841 8.316-5.866 12.429-2.011 4.119-3.964 8.263-6.022 12.361-2.032 4.109-4.188 8.165-6.357 12.215l-.269-.987c3.777 2.753 7.5 5.573 11.312 8.281 3.799 2.726 7.692 5.33 11.578 7.944 3.906 2.589 7.849 5.13 11.79 7.673 3.947 2.536 7.844 5.136 11.747 7.729l-1.472.102c4.706-4.666 9.107-9.594 13.179-14.757 4.126-5.127 7.946-10.464 11.442-15.986 1.74-2.762 3.374-5.58 4.899-8.454 1.497-2.884 2.841-5.832 4.109-8.812 1.216-3.002 2.258-6.063 3.122-9.169.836-3.125 1.459-6.297 1.863-9.497.002-.015.007-.03.014-.043.008-.013.019-.025.031-.035.013-.009.027-.017.043-.021s.032-.006.048-.004c.031.003.059.017.08.039.02.022.031.049.031.078-.093 3.253-.446 6.496-1.055 9.7-.678 3.2-1.549 6.362-2.608 9.47-2.227 6.191-5.058 12.176-8.457 17.881-3.405 5.691-7.233 11.152-11.458 16.339-4.222 5.193-8.792 10.129-13.683 14.778l-.007.007c-.19.18-.444.288-.713.306-.27.018-.537-.057-.752-.21-3.808-2.714-7.622-5.42-11.385-8.19-3.77-2.762-7.537-5.527-11.342-8.244-3.825-2.692-7.642-5.393-11.554-7.974-3.898-2.598-7.885-5.083-11.819-7.636-.157-.102-.272-.252-.325-.425-.052-.172-.04-.356.036-.521l.019-.041c1.92-4.159 3.851-8.312 5.906-12.412 2.029-4.11 4.164-8.175 6.241-12.265 2.063-4.096 4.236-8.144 6.397-12.197 2.141-4.062 4.379-8.082 6.647-12.088.015-.026.04-.046.071-.056.03-.009.063-.007.091.005.029.013.052.035.063.063.012.028.012.058 0 .086zm-68.15-80.236c.516-.017 1.004-.22 1.363-.567.358-.348.558-.812.558-1.295 0-.482-.2-.947-.558-1.294-.359-.347-.847-.551-1.363-.567-.515.016-1.004.22-1.362.567-.359.347-.559.812-.559 1.294 0 .483.2.947.559 1.295.358.347.847.55 1.362.567z"/></g></svg>