<svg fill="none" height="721" viewBox="0 0 747 721" width="747" xmlns="http://www.w3.org/2000/svg"><path d="m309.476 82h300v300h-300z" fill="#ea346c" fill-opacity=".8" transform="matrix(.70259781 .71158718 -.71158718 .70259781 150.388989 -195.832175)"/><circle cx="516" cy="270" fill="#66aef8" fill-opacity=".9" r="175"/><path d="m428 295 151.554 87.5v175l-151.554 87.5-151.554-87.5v-175z" fill="#92fff8" fill-opacity=".9"/><g stroke="#1b1e20" stroke-dasharray="10 10" stroke-width="5"><path d="m415.226 256.375 8.516-4.917 1.25 2.165 3.008-1.736 3.008 1.736 1.25-2.165 8.516 4.917-1.25 2.165 8.516 4.917 1.25-2.165 8.516 4.916-1.25 2.165 8.516 4.917 1.25-2.165 8.516 4.917-1.25 2.165 8.516 4.916 1.25-2.165 8.515 4.917-1.25 2.165 8.516 4.917 1.25-2.165 8.516 4.916-1.25 2.165 8.516 4.917 1.25-2.165 8.516 4.917-1.25 2.165 8.516 4.916 1.25-2.165 8.516 4.917-1.25 2.165 8.516 4.917 1.25-2.165 8.516 4.916-1.25 2.165 8.516 4.917 1.25-2.165 8.516 4.917-1.25 2.165 8.516 4.916 1.25-2.165 8.515 4.917-1.25 2.165 8.516 4.917 1.25-2.165 8.516 4.916-1.25 2.165 8.516 4.917 1.25-2.165 8.516 4.917-1.25 2.165 3.008 1.736v3.474h2.5v9.833h-2.5v9.833h2.5v9.834h-2.5v9.833h2.5v9.833h-2.5v9.834h2.5v9.833h-2.5v9.833h2.5v9.834h-2.5v9.833h2.5v9.833h-2.5v9.834h2.5v9.833h-2.5v9.833h2.5v9.834h-2.5v9.833h2.5v9.833h-2.5v9.834h2.5v9.833h-2.5v9.833h2.5v9.834h-2.5v9.833h2.5v9.833h-2.5v3.474l-3.008 1.736 1.25 2.165-8.516 4.917-1.25-2.165-8.516 4.917 1.25 2.165-8.516 4.916-1.25-2.165-8.516 4.917 1.25 2.165-8.516 4.917-1.25-2.165-8.515 4.916 1.25 2.165-8.516 4.917-1.25-2.165-8.516 4.917 1.25 2.165-8.516 4.916-1.25-2.165-8.516 4.917 1.25 2.165-8.516 4.917-1.25-2.165-8.516 4.916 1.25 2.165-8.516 4.917-1.25-2.165-8.516 4.917 1.25 2.165-8.516 4.916-1.25-2.165-8.516 4.917 1.25 2.165-8.515 4.917-1.25-2.165-8.516 4.916 1.25 2.165-8.516 4.917-1.25-2.165-8.516 4.917 1.25 2.165-8.516 4.916-1.25-2.165-8.516 4.917 1.25 2.165-8.516 4.917-1.25-2.165-3.008 1.736-3.008-1.736-1.25 2.165-8.516-4.917 1.25-2.165-8.516-4.917-1.25 2.165-8.516-4.916 1.25-2.165-8.516-4.917-1.25 2.165-8.516-4.917 1.25-2.165-8.515-4.916-1.25 2.165-8.516-4.917 1.25-2.165-8.516-4.917-1.25 2.165-8.516-4.916 1.25-2.165-8.516-4.917-1.25 2.165-8.516-4.917 1.25-2.165-8.516-4.916-1.25 2.165-8.516-4.917 1.25-2.165-8.516-4.917-1.25 2.165-8.516-4.916 1.25-2.165-8.516-4.917-1.25 2.165-8.515-4.917 1.25-2.165-8.516-4.916-1.25 2.165-8.516-4.917 1.25-2.165-8.516-4.917-1.25 2.165-8.516-4.916 1.25-2.165-8.516-4.917-1.25 2.165-8.516-4.917 1.25-2.165-3.008-1.736v-3.474h-2.5v-9.833h2.5v-9.833h-2.5v-9.834h2.5v-9.833h-2.5v-9.833h2.5v-9.834h-2.5v-9.833h2.5v-9.833h-2.5v-9.834h2.5v-9.833h-2.5v-9.833h2.5v-9.834h-2.5v-9.833h2.5v-9.833h-2.5v-9.834h2.5v-9.833h-2.5v-9.833h2.5v-9.834h-2.5v-9.833h2.5v-9.833h-2.5v-9.834h2.5v-9.833h-2.5v-9.833h2.5v-3.474l3.008-1.736-1.25-2.165 8.516-4.917 1.25 2.165 8.516-4.917-1.25-2.165 8.516-4.916 1.25 2.165 8.516-4.917-1.25-2.165 8.516-4.917 1.25 2.165 8.516-4.916-1.25-2.165 8.515-4.917 1.25 2.165 8.516-4.917-1.25-2.165 8.516-4.916 1.25 2.165 8.516-4.917-1.25-2.165 8.516-4.917 1.25 2.165 8.516-4.916-1.25-2.165 8.516-4.917 1.25 2.165 8.516-4.917-1.25-2.165 8.516-4.916 1.25 2.165 8.516-4.917-1.25-2.165 8.516-4.917 1.25 2.165 8.516-4.916-1.25-2.165 8.515-4.917 1.25 2.165 8.516-4.917-1.25-2.165 8.516-4.916 1.25 2.165 8.516-4.917z"/><path d="m273.784 3.53546h379.783v379.783h-379.783z" transform="matrix(.70259781 .71158718 -.71158718 .70259781 83.939749 -193.769732)"/><circle cx="519.5" cy="249.5" r="225"/></g></svg>