<svg width="1383" height="687" viewBox="0 0 1383 687" fill="none" xmlns="http://www.w3.org/2000/svg">
<rect x="946.476" y="61" width="300" height="300" transform="rotate(45.3642 946.476 61)" fill="#EA346C" fill-opacity="0.8"/>
<circle cx="1153" cy="249" r="175" fill="#66AEF8" fill-opacity="0.9"/>
<path d="M1065 274L1216.55 361.5V536.5L1065 624L913.446 536.5V361.5L1065 274Z" fill="#92FFF8" fill-opacity="0.9"/>
<path d="M1052.23 222.375L1060.74 217.458L1061.99 219.623L1065 217.887L1068.01 219.623L1069.26 217.458L1077.77 222.375L1076.52 224.54L1085.04 229.457L1086.29 227.292L1094.81 232.208L1093.56 234.373L1102.07 239.29L1103.32 237.125L1111.84 242.042L1110.59 244.207L1119.1 249.123L1120.35 246.958L1128.87 251.875L1127.62 254.04L1136.14 258.957L1137.39 256.792L1145.9 261.708L1144.65 263.873L1153.17 268.79L1154.42 266.625L1162.93 271.542L1161.68 273.707L1170.2 278.623L1171.45 276.458L1179.97 281.375L1178.72 283.54L1187.23 288.457L1188.48 286.292L1197 291.208L1195.75 293.373L1204.26 298.29L1205.51 296.125L1214.03 301.042L1212.78 303.207L1221.29 308.123L1222.54 305.958L1231.06 310.875L1229.81 313.04L1238.33 317.957L1239.58 315.792L1248.09 320.708L1246.84 322.873L1255.36 327.79L1256.61 325.625L1265.12 330.542L1263.87 332.707L1266.88 334.443V337.917H1269.38V347.75H1266.88V357.583H1269.38V367.417H1266.88V377.25H1269.38V387.083H1266.88V396.917H1269.38V406.75H1266.88V416.583H1269.38V426.417H1266.88V436.25H1269.38V446.083H1266.88V455.917H1269.38V465.75H1266.88V475.583H1269.38V485.417H1266.88V495.25H1269.38V505.083H1266.88V514.917H1269.38V524.75H1266.88V534.583H1269.38V544.417H1266.88V554.25H1269.38V564.083H1266.88V567.557L1263.87 569.293L1265.12 571.458L1256.61 576.375L1255.36 574.21L1246.84 579.127L1248.09 581.292L1239.58 586.208L1238.33 584.043L1229.81 588.96L1231.06 591.125L1222.54 596.042L1221.29 593.877L1212.78 598.793L1214.03 600.958L1205.51 605.875L1204.26 603.71L1195.75 608.627L1197 610.792L1188.48 615.708L1187.23 613.543L1178.72 618.46L1179.97 620.625L1171.45 625.542L1170.2 623.377L1161.68 628.293L1162.93 630.458L1154.42 635.375L1153.17 633.21L1144.65 638.127L1145.9 640.292L1137.39 645.208L1136.14 643.043L1127.62 647.96L1128.87 650.125L1120.35 655.042L1119.1 652.877L1110.59 657.793L1111.84 659.958L1103.32 664.875L1102.07 662.71L1093.56 667.627L1094.81 669.792L1086.29 674.708L1085.04 672.543L1076.52 677.46L1077.77 679.625L1069.26 684.542L1068.01 682.377L1065 684.113L1061.99 682.377L1060.74 684.542L1052.23 679.625L1053.48 677.46L1044.96 672.543L1043.71 674.708L1035.19 669.792L1036.44 667.627L1027.93 662.71L1026.68 664.875L1018.16 659.958L1019.41 657.793L1010.9 652.877L1009.65 655.042L1001.13 650.125L1002.38 647.96L993.865 643.043L992.615 645.208L984.099 640.292L985.349 638.127L976.833 633.21L975.583 635.375L967.067 630.458L968.317 628.293L959.802 623.377L958.552 625.542L950.036 620.625L951.286 618.46L942.77 613.543L941.52 615.708L933.004 610.792L934.254 608.627L925.738 603.71L924.488 605.875L915.972 600.958L917.222 598.793L908.706 593.877L907.456 596.042L898.94 591.125L900.19 588.96L891.674 584.043L890.424 586.208L881.908 581.292L883.158 579.127L874.642 574.21L873.392 576.375L864.876 571.458L866.126 569.293L863.119 567.557V564.083H860.619V554.25H863.119V544.417H860.619V534.583H863.119V524.75H860.619V514.917H863.119V505.083H860.619V495.25H863.119V485.417H860.619V475.583H863.119V465.75H860.619V455.917H863.119V446.083H860.619V436.25H863.119V426.417H860.619V416.583H863.119V406.75H860.619V396.917H863.119V387.083H860.619V377.25H863.119V367.417H860.619V357.583H863.119V347.75H860.619V337.917H863.119V334.443L866.127 332.707L864.877 330.542L873.392 325.625L874.642 327.79L883.158 322.873L881.908 320.708L890.424 315.792L891.674 317.957L900.19 313.04L898.94 310.875L907.456 305.958L908.706 308.123L917.222 303.207L915.972 301.042L924.488 296.125L925.738 298.29L934.254 293.373L933.004 291.208L941.52 286.292L942.77 288.457L951.286 283.54L950.036 281.375L958.552 276.458L959.802 278.623L968.317 273.707L967.067 271.542L975.583 266.625L976.833 268.79L985.349 263.873L984.099 261.708L992.615 256.792L993.865 258.957L1002.38 254.04L1001.13 251.875L1009.65 246.958L1010.9 249.123L1019.41 244.207L1018.16 242.042L1026.68 237.125L1027.93 239.29L1036.44 234.373L1035.19 232.208L1043.71 227.292L1044.96 229.457L1053.48 224.54L1052.23 222.375Z" stroke="#1B1E20" stroke-width="5" stroke-dasharray="10 10"/>
<rect x="946.784" y="3.53546" width="379.783" height="379.783" transform="rotate(45.3642 946.784 3.53546)" stroke="#1B1E20" stroke-width="5" stroke-dasharray="10 10"/>
<circle cx="1155.5" cy="248.5" r="225" stroke="#1B1E20" stroke-width="5" stroke-dasharray="10 10"/>
<path d="M117.615 173.73C142.945 173.73 148.215 150.27 145.665 131.57H141.925C141.925 139.05 140.055 143.81 131.725 143.81C123.225 143.81 112.175 130.72 95.1746 130.72C63.3846 130.72 37.5446 156.9 37.5446 189.37C37.5446 221.84 63.3846 248.19 95.1746 248.19C117.785 248.19 139.715 234.93 149.065 215.72L145.665 213.85C139.375 225.92 127.645 236.97 112.515 233.23C101.635 230.68 88.7146 218.44 77.4946 200.42C61.6846 174.92 56.7546 149.42 66.6146 143.3C83.7846 132.42 92.4546 173.73 117.615 173.73ZM204.532 153.84C174.102 153.84 153.702 173.22 153.702 200.93C153.702 228.81 174.102 248.19 204.532 248.19C234.792 248.19 255.192 228.81 255.192 200.93C255.192 173.22 234.792 153.84 204.532 153.84ZM228.672 239.18C218.982 245.3 206.232 231.7 191.782 209.09C177.332 186.31 170.532 168.97 180.222 162.68C189.912 156.56 202.662 170.16 217.112 192.94C231.392 215.55 238.532 233.06 228.672 239.18ZM678.648 153.84C659.098 153.84 648.388 166.08 637.678 166.08C632.068 166.08 630.198 161.32 630.198 155.03H625.778C622.718 183.25 629.688 192.09 644.138 192.09C666.238 192.09 658.418 162.34 669.638 159.11C680.348 156.05 685.618 163.53 681.538 194.3C677.118 193.79 672.358 193.62 667.088 193.62C635.298 193.62 619.828 202.97 619.828 220.65C619.828 238.16 633.598 247.68 663.858 247.68C678.138 247.68 682.558 243.09 683.578 236.63C696.838 257.71 728.628 244.62 740.528 228.81L737.978 226.09C732.538 231.53 726.928 232.72 722.508 228.81C715.878 223.03 716.728 213.51 718.938 199.91C723.188 173.39 707.888 153.84 678.648 153.84ZM679.158 217.25C679.158 227.62 680.518 239.35 676.438 241.22C669.808 244.45 662.498 239.52 656.378 224.05C651.618 212.32 652.468 202.8 659.098 199.57C663.858 197.19 672.188 197.02 681.028 198.21V198.89C680.008 205.18 679.328 211.47 679.158 217.25ZM743.808 155.03V247H781.038L780.698 172.2C780.698 166.08 782.228 161.66 786.648 162.34C797.188 163.87 791.408 192.09 813.508 192.09C827.958 192.09 835.948 183.25 834.248 155.03H829.828C829.828 161.32 827.958 166.08 822.348 166.08C814.018 166.08 814.698 153.84 794.808 153.84C780.698 153.84 776.108 165.57 764.888 167.61C755.538 169.31 748.058 168.12 748.058 155.03H743.808Z" fill="#1B1E20"/>
<path d="M323.5 248.19C337.27 248.19 348.66 234.25 358.86 234.25C364.64 234.25 370.93 234.76 370.93 247H375.18V159.11C375.18 137.01 342.2 155.37 342.2 131.74H337.95V161.83C330.81 156.05 323.5 153.84 318.74 153.84C299.36 153.84 273.18 173.22 273.18 200.93C273.18 228.81 293.07 248.19 323.5 248.19ZM333.7 241.22C325.88 245.3 311.94 226.94 307.18 206.88C302.59 187.33 300.89 168.97 310.58 162.68C317.89 158.09 328.6 160.64 337.95 171.69V220.14C337.95 231.36 338.12 238.84 333.7 241.22ZM429.687 205.52C490.887 190.56 489.527 153.84 444.647 153.84C414.217 153.84 393.817 173.22 393.817 200.93C393.817 228.81 414.217 248.19 444.647 248.19C470.487 248.19 481.197 239.52 495.647 223.03C494.627 222.01 493.607 220.82 492.417 219.8C472.867 241.39 451.617 240.2 431.897 209.09C431.047 207.9 430.367 206.71 429.687 205.52ZM444.137 173.22C452.977 187.5 441.757 199.06 427.477 201.95C416.257 182.74 411.667 168.29 420.337 162.68C426.797 158.6 436.997 161.66 444.137 173.22ZM551.718 153.84C546.448 153.84 541.688 155.88 537.098 158.26V131.74H532.848C532.848 155.37 500.038 137.01 500.038 159.11V247H504.288C504.288 243.94 509.218 235.1 515.338 234.25C531.828 231.87 539.138 248.19 556.478 248.19C575.858 248.19 602.038 228.81 602.038 200.93C602.038 173.22 581.978 153.84 551.718 153.84ZM537.098 174.92C537.098 167.61 537.948 162.51 541.518 160.64C549.338 156.73 563.278 175.09 567.868 195.15C572.628 214.7 574.328 233.06 564.468 239.18C556.988 243.94 546.278 241.39 537.098 230.17V174.92Z" fill="#1B1E20"/>
<path d="M151.876 375V259.74H114.646V375H151.876ZM173.861 283.03V375H211.091V307C211.261 298.67 212.281 292.38 217.551 290.34C225.371 287.45 232.341 292.04 227.071 326.89C224.861 341.85 223.331 356.47 231.491 366.84C244.241 382.99 265.151 375.17 277.731 363.95L275.861 360.55C261.241 369.05 261.751 349.16 265.151 327.91C266.341 320.43 266.171 313.46 264.641 307.34C263.961 299.69 265.321 293.06 272.631 290.34C280.451 287.45 287.421 292.04 282.151 326.89C279.941 341.85 278.241 356.47 286.401 366.84C300.851 384.86 330.261 371.77 341.651 356.81L339.101 354.09C333.661 359.53 328.051 360.72 323.631 356.81C317.001 351.03 318.021 341.51 320.061 327.91C324.311 301.39 312.071 281.84 282.661 281.84C271.951 281.84 265.151 288.64 256.991 292.72C250.701 285.92 240.841 281.84 227.751 281.84C213.811 281.84 206.501 293.23 194.771 295.78C185.421 296.97 178.111 295.95 178.111 283.03H173.861ZM670.639 345.59C654.829 367.69 634.939 371.09 613.519 337.09C599.069 314.31 591.419 295.61 601.959 290.68C618.279 283.03 613.519 325.19 642.079 325.19C664.179 325.19 670.299 301.73 667.749 283.03H664.009C664.009 290.68 662.309 295.27 656.019 295.27C647.519 295.27 639.699 281.84 623.889 281.84C597.199 281.84 575.439 301.22 575.439 328.93C575.439 356.81 595.839 376.19 626.099 376.19C651.939 376.19 663.159 364.97 674.209 348.14L670.639 345.59ZM725.948 312.95V286.94H751.278V283.03H725.948V259.57H721.868C721.868 270.79 712.688 283.03 688.888 283.03H676.988V286.94H688.888V339.13C688.888 368.37 704.018 376.19 718.468 376.19C733.428 376.19 734.278 362.59 742.608 362.59C750.258 362.59 750.428 367.35 750.428 374.83H754.338C756.718 356.13 755.358 332.67 733.258 332.67C717.958 332.67 713.708 353.24 701.978 353.24C695.008 353.24 693.138 348.48 693.818 343.89C695.518 333.01 725.948 334.88 725.948 312.95Z" fill="#1B1E20"/>
<path d="M344.409 419.54C344.409 395.91 377.219 414.1 377.219 392.17V368.2C384.189 373.98 391.669 376.19 396.599 376.19C415.809 376.19 441.989 356.81 441.989 328.93C441.989 301.22 422.099 281.84 391.839 281.84C378.069 281.84 366.509 295.78 356.309 295.78C350.529 295.78 344.409 295.27 344.409 283.03H339.989V419.54H344.409ZM377.219 309.89C377.219 298.67 377.049 291.02 381.639 288.64C389.289 284.73 403.229 303.09 407.989 323.15C412.579 342.7 414.279 361.06 404.589 367.18C397.109 371.94 386.399 369.39 377.219 358.17V309.89ZM516.441 281.84C496.891 281.84 486.181 294.08 475.471 294.08C469.861 294.08 467.991 289.32 467.991 283.03H463.571C460.511 311.25 467.481 320.09 481.931 320.09C504.031 320.09 496.211 290.34 507.431 287.11C518.141 284.05 523.411 291.53 519.331 322.3C514.911 321.79 510.151 321.62 504.881 321.62C473.091 321.62 457.621 330.97 457.621 348.65C457.621 366.16 471.391 375.68 501.651 375.68C515.931 375.68 520.351 371.09 521.371 364.63C534.631 385.71 566.421 372.62 578.321 356.81L575.771 354.09C570.331 359.53 564.721 360.72 560.301 356.81C553.671 351.03 554.521 341.51 556.731 327.91C560.981 301.39 545.681 281.84 516.441 281.84ZM516.951 345.25C516.951 355.62 518.311 367.35 514.231 369.22C507.601 372.45 500.291 367.52 494.171 352.05C489.411 340.32 490.261 330.8 496.891 327.57C501.651 325.19 509.981 325.02 518.821 326.21V326.89C517.801 333.18 517.121 339.47 516.951 345.25Z" fill="#171619"/>
<path d="M177.094 473.41C208.714 473.41 178.964 502.99 196.814 520.84C214.664 538.69 239.484 525.77 250.874 510.81L248.154 508.09C242.884 513.53 237.104 515.57 231.154 509.62C225.204 503.67 227.074 489.73 215.174 477.83C211.094 473.92 207.184 471.54 203.104 470.35C221.124 466.27 232.854 457.26 232.854 443.15C232.854 423.26 209.394 412.55 177.604 412.55C160.774 412.55 137.484 420.2 137.484 449.44V529H174.714V464.74C174.714 442.81 154.144 443.83 150.064 433.8C148.364 429.55 149.554 422.58 160.944 422.58C169.784 422.58 181.174 427.34 188.994 437.2C204.804 456.75 194.774 469.5 177.094 469.5V473.41ZM282.847 487.52C344.047 472.56 342.688 435.84 297.807 435.84C267.377 435.84 246.977 455.22 246.977 482.93C246.977 510.81 267.377 530.19 297.807 530.19C323.647 530.19 334.357 521.52 348.808 505.03C347.787 504.01 346.767 502.82 345.577 501.8C326.027 523.39 304.777 522.2 285.057 491.09C284.207 489.9 283.527 488.71 282.847 487.52ZM297.297 455.22C306.137 469.5 294.917 481.06 280.637 483.95C269.417 464.74 264.827 450.29 273.497 444.68C279.957 440.6 290.157 443.66 297.297 455.22ZM357.618 573.54C357.618 549.91 390.428 568.1 390.428 546.17V522.2C397.398 527.98 404.878 530.19 409.808 530.19C429.018 530.19 455.198 510.81 455.198 482.93C455.198 455.22 435.308 435.84 405.048 435.84C391.278 435.84 379.718 449.78 369.518 449.78C363.738 449.78 357.618 449.27 357.618 437.03H353.198V573.54H357.618ZM390.428 463.89C390.428 452.67 390.258 445.02 394.848 442.64C402.498 438.73 416.438 457.09 421.198 477.15C425.788 496.7 427.488 515.06 417.798 521.18C410.318 525.94 399.608 523.39 390.428 512.17V463.89ZM751.11 466.95V440.94H776.44V437.03H751.11V413.57H747.03C747.03 424.79 737.85 437.03 714.05 437.03H702.15V440.94H714.05V493.13C714.05 522.37 729.18 530.19 743.63 530.19C758.59 530.19 759.44 516.59 767.77 516.59C775.42 516.59 775.59 521.35 775.59 528.83H779.5C781.88 510.13 780.52 486.67 758.42 486.67C743.12 486.67 738.87 507.24 727.14 507.24C720.17 507.24 718.3 502.48 718.98 497.89C720.68 487.01 751.11 488.88 751.11 466.95Z" fill="#1B1E20"/>
<path d="M523.985 435.84C493.555 435.84 473.155 455.22 473.155 482.93C473.155 510.81 493.555 530.19 523.985 530.19C554.245 530.19 574.645 510.81 574.645 482.93C574.645 455.22 554.245 435.84 523.985 435.84ZM548.125 521.18C538.435 527.3 525.685 513.7 511.235 491.09C496.785 468.31 489.985 450.97 499.675 444.68C509.365 438.56 522.115 452.16 536.565 474.94C550.845 497.55 557.985 515.06 548.125 521.18ZM593.483 437.03V529H630.713L630.373 454.2C630.373 448.08 631.903 443.66 636.323 444.34C646.863 445.87 641.083 474.09 663.183 474.09C677.633 474.09 685.623 465.25 683.923 437.03H679.503C679.503 443.32 677.633 448.08 672.023 448.08C663.693 448.08 664.373 435.84 644.483 435.84C630.373 435.84 625.783 447.57 614.563 449.61C605.213 451.31 597.733 450.12 597.733 437.03H593.483Z" fill="#1B1E20"/>
</svg>
