<svg width="1007" height="929" viewBox="0 0 1007 929" fill="none" xmlns="http://www.w3.org/2000/svg">
<path d="M422.179 388.402C422.179 388.402 417.473 385.582 413.081 390.596C413.081 390.596 405.237 379.463 371.979 389.104C371.979 389.104 376.371 397.492 379.509 397.492C382.646 397.492 373.547 411.909 365.076 411.282C365.076 411.282 350.643 432.282 361.625 452.654C372.448 472.733 380.224 479.111 390.959 466.087C391.289 465.683 391.656 465.312 392.056 464.978C395.144 462.434 408.812 451.859 413.657 459.745C414.688 461.496 414.984 463.585 414.478 465.554C412.267 474.805 401.927 508.878 371.979 495.279C371.979 495.279 337.078 482.205 345.31 451.233C346.19 448.083 347.466 445.057 349.109 442.228C350.692 439.337 351.668 436.155 351.976 432.874C352.285 429.594 351.919 426.285 350.903 423.151C349.641 418.682 346.795 414.825 342.895 412.299C339.115 409.944 334.131 408.89 330.356 415.477C328.794 418.218 327.97 421.316 327.966 424.47C327.959 427.356 328.496 430.896 330.877 432.595L327.966 438.237C326.382 435.019 324.358 432.037 321.95 429.377C317.919 425.299 315.329 420.018 314.574 414.336C313.508 405.322 314.791 391.863 325.543 376.179C325.543 376.179 339.976 347.344 366.959 347.971C393.941 348.598 417.159 355.806 422.179 388.402Z" fill="white"/>
<path d="M376.999 426.013C381.685 424.942 386.501 424.546 391.3 424.836C393.718 424.956 396.117 425.32 398.461 425.921C400.853 426.434 403.076 427.544 404.923 429.148C402.791 428.159 400.515 427.518 398.18 427.25C395.873 426.919 393.546 426.678 391.198 426.573C386.506 426.283 381.79 426.26 376.999 426.013ZM422.179 425.566C420.463 426.087 418.875 426.961 417.517 428.132C416.873 428.662 416.349 429.322 415.978 430.069C415.607 430.816 415.398 431.632 415.364 432.465C415.491 434.174 415.939 435.843 416.686 437.386L418.737 442.424C420.268 445.834 421.157 449.495 421.361 453.226C421.358 454.209 421.178 455.183 420.828 456.102C420.453 457.032 419.839 457.847 419.048 458.465C417.442 459.476 415.546 459.926 413.657 459.745C415.428 459.594 417.114 458.92 418.501 457.809C419.07 457.203 419.5 456.479 419.759 455.689C420.018 454.899 420.101 454.062 420.001 453.237C419.866 451.492 419.511 449.771 418.946 448.114C418.418 446.417 417.788 444.736 417.116 443.06C416.471 441.373 415.774 439.695 415.146 437.967C414.846 437.094 414.541 436.224 414.305 435.304C414.012 434.353 413.912 433.353 414.013 432.363C414.118 431.379 414.439 430.429 414.954 429.583C415.468 428.737 416.163 428.014 416.989 427.467C418.543 426.429 420.322 425.777 422.179 425.566Z" fill="white"/>
<path d="M422.179 388.402C422.767 391.915 423.204 395.447 423.49 398.998C423.817 402.543 424.019 406.099 424.096 409.665C424.152 413.231 424.099 416.804 423.82 420.379C423.656 424.023 422.841 427.608 421.414 430.966C421.393 431.008 421.367 431.046 421.335 431.08C420.234 432.265 419.2 433.51 418.239 434.81C417.762 435.462 417.337 436.15 416.97 436.869C416.561 437.568 416.397 438.384 416.505 439.187C416.253 438.379 416.299 437.508 416.633 436.731C416.922 435.947 417.273 435.187 417.683 434.459C418.502 433.007 419.449 431.632 420.513 430.348L420.435 430.462C421.043 428.859 421.448 427.186 421.64 425.482C421.912 423.763 422.022 422.008 422.152 420.259C422.359 416.747 422.395 413.215 422.415 409.681C422.415 402.607 422.26 395.521 422.179 388.402ZM403.354 449.833C403.023 450.513 402.755 451.223 402.555 451.952C402.35 452.626 402.306 453.338 402.424 454.032C402.521 454.72 402.822 455.363 403.288 455.879C403.781 456.448 404.328 456.968 404.923 457.431C404.543 457.318 404.169 457.184 403.804 457.03C403.449 456.835 403.114 456.604 402.804 456.342C402.157 455.782 401.72 455.018 401.566 454.177C401.455 453.343 401.58 452.496 401.926 451.729C402.248 450.995 402.737 450.346 403.354 449.833ZM330.876 432.595C331.962 433.956 332.829 435.479 333.444 437.108C333.774 437.939 334.013 438.804 334.156 439.686C334.233 440.149 334.264 440.618 334.248 441.087L334.239 441.448L334.26 441.644C334.252 441.771 334.28 441.899 334.34 442.011C334.61 442.584 335.085 443.035 335.672 443.275C336.369 443.63 337.103 443.908 337.861 444.103C339.473 444.537 341.13 444.777 342.799 444.818C341.151 445.464 339.365 445.677 337.61 445.438C336.695 445.345 335.799 445.116 334.951 444.758C334.452 444.564 333.997 444.275 333.611 443.905C333.225 443.535 332.916 443.092 332.702 442.603C332.59 442.327 332.535 442.031 332.54 441.733L332.534 441.294L332.548 441.019C332.567 440.64 332.559 440.26 332.522 439.882C332.453 439.079 332.327 438.282 332.146 437.496C331.791 435.886 331.322 434.267 330.876 432.595ZM327.965 438.236C327.265 440.771 326.278 443.218 325.023 445.53C323.794 447.876 322.311 450.079 320.6 452.101C318.888 454.161 316.858 455.934 314.585 457.354C312.307 458.765 309.7 459.557 307.021 459.652C309.473 458.916 311.776 457.757 313.827 456.226C315.833 454.684 317.66 452.922 319.273 450.973C320.93 449.026 322.461 446.977 323.859 444.837C325.265 442.687 326.662 440.507 327.965 438.236ZM350.957 511.577C352.939 510.709 354.814 509.613 356.543 508.311C358.259 507.032 359.886 505.638 361.414 504.14C362.99 502.687 364.403 501.061 365.87 499.47L368.007 497.006C368.702 496.166 369.396 495.319 370.162 494.507C369.725 495.524 369.217 496.506 368.71 497.494C368.136 498.437 367.572 499.395 366.942 500.308C365.669 502.138 364.223 503.842 362.622 505.394C361.014 506.959 359.219 508.321 357.279 509.448C355.354 510.615 353.195 511.342 350.957 511.577Z" fill="white"/>
<path d="M319.568 451.536C318.006 449.225 316.075 447.186 313.851 445.501C313.388 445.092 312.828 444.81 312.223 444.682C311.619 444.554 310.992 444.585 310.403 444.77C309.362 445.476 308.615 446.538 308.302 447.755C307.873 449.053 307.565 450.387 307.379 451.742C307.286 452.415 307.203 453.116 307.143 453.764C307.146 454.381 307.2 455.105 307.262 455.779C307.532 458.543 308.045 461.278 308.795 463.952C310.176 469.393 312.321 474.612 315.167 479.452C318.05 484.29 321.499 488.769 325.441 492.793C327.418 494.791 329.473 496.713 331.558 498.588C333.723 500.372 335.792 502.289 338.047 503.928C339.134 504.805 340.333 505.517 341.468 506.32C342.671 507.01 343.825 507.795 345.077 508.381C347.497 509.695 350.071 510.702 352.74 511.381C358.069 512.794 363.733 512.2 368.653 509.712C373.597 507.076 377.75 503.173 380.686 498.404C380.697 498.383 380.715 498.368 380.737 498.361C380.759 498.354 380.783 498.356 380.804 498.366C380.823 498.378 380.837 498.396 380.844 498.418C380.851 498.439 380.85 498.462 380.841 498.483C378.288 503.662 374.275 507.982 369.296 510.913C366.746 512.357 363.941 513.297 361.035 513.68C358.119 514.024 355.165 513.836 352.317 513.126C349.489 512.455 346.767 511.398 344.227 509.985C342.931 509.342 341.754 508.509 340.523 507.765C339.369 506.915 338.147 506.15 337.052 505.23C334.756 503.506 332.746 501.494 330.621 499.604C329.538 498.683 328.619 497.584 327.624 496.571C326.666 495.521 325.628 494.548 324.738 493.438C321.024 489.149 317.65 484.576 314.649 479.762C311.593 474.948 309.159 469.768 307.405 464.344C306.549 461.599 305.99 458.771 305.737 455.908C305.69 455.174 305.646 454.49 305.662 453.694C305.746 452.94 305.847 452.239 305.963 451.517C306.194 450.077 306.558 448.662 307.049 447.289C307.27 446.531 307.64 445.825 308.137 445.212C308.634 444.598 309.249 444.09 309.945 443.716C310.727 443.41 311.593 443.392 312.387 443.667C313.11 443.914 313.784 444.282 314.381 444.757C316.574 446.623 318.385 448.894 319.717 451.446C319.722 451.456 319.726 451.467 319.727 451.478C319.729 451.489 319.728 451.501 319.725 451.512C319.722 451.523 319.717 451.533 319.71 451.542C319.703 451.551 319.694 451.559 319.684 451.565C319.664 451.575 319.642 451.577 319.621 451.572C319.599 451.567 319.58 451.554 319.568 451.536ZM238.795 475.221C241.08 475.868 243.154 477.106 244.806 478.811C246.509 480.488 247.871 482.478 248.817 484.673C249.765 486.854 250.298 489.193 250.389 491.569C250.434 492.739 250.374 493.91 250.209 495.069C250.01 496.219 249.706 497.349 249.3 498.443C248.893 497.311 248.71 496.218 248.411 495.15C248.091 494.088 247.898 493.031 247.542 492.021C246.973 490.015 246.277 488.047 245.455 486.13C244.632 484.224 243.669 482.381 242.574 480.616C241.427 478.741 240.165 476.939 238.795 475.221ZM246.79 519.1C247.496 527.227 247.841 535.353 248.058 543.477C248.298 551.602 248.324 559.725 248.308 567.848C248.224 575.971 248.093 584.093 247.75 592.214C247.429 600.336 246.978 608.456 246.162 616.574C245.452 608.446 245.105 600.321 244.889 592.196C244.65 584.071 244.624 575.948 244.644 567.825C244.733 559.702 244.864 551.58 245.208 543.459C245.53 535.338 245.979 527.218 246.79 519.1ZM414.585 465.406C421.298 469.601 427.888 473.971 434.354 478.515C437.59 480.784 440.8 483.094 443.984 485.445L448.721 489.06C449.552 489.682 450.335 490.367 451.062 491.107L452.188 492.281L453.136 493.481C455.591 496.644 457.831 499.969 459.84 503.432C461.865 506.844 463.835 510.279 465.751 513.737C469.538 520.683 473.438 527.551 477.45 534.342C479.457 537.74 481.502 541.116 483.586 544.469L486.703 549.497C487.627 551.14 488.725 552.68 489.978 554.09C491.306 555.391 492.887 556.681 494.263 558.3C495.892 559.996 496.874 562.21 497.035 564.555C496.912 566.96 495.863 569.224 494.108 570.874C493.358 571.631 492.57 572.349 491.746 573.025C491.008 573.619 490.291 574.243 489.59 574.886C488.179 576.18 486.882 577.539 485.562 579.002C484.218 580.485 482.827 581.924 481.415 583.346C478.565 586.189 475.539 588.85 472.355 591.313C469.108 593.825 465.574 595.941 461.826 597.618C459.861 598.448 457.795 599.019 455.682 599.316C453.462 599.645 451.197 599.448 449.067 598.742C448.728 598.639 448.439 598.415 448.255 598.112L448.243 598.092C446.867 595.816 445.361 593.545 443.838 591.323C442.316 589.091 440.722 586.913 439.056 584.788C437.383 582.68 435.595 580.665 433.701 578.753C431.878 576.785 429.644 575.242 427.158 574.231L427.144 574.226C427.101 574.211 427.064 574.18 427.043 574.139C427.021 574.098 427.016 574.05 427.029 574.006C427.041 573.961 427.07 573.923 427.109 573.898C427.148 573.874 427.195 573.866 427.241 573.875C429.957 574.575 432.469 575.908 434.57 577.765C436.724 579.506 438.743 581.408 440.609 583.454C444.359 587.511 447.804 591.838 450.917 596.4L450.094 595.751C453.584 596.462 457.214 595.935 460.357 594.26C463.788 592.626 467.013 590.591 469.965 588.199C473.024 585.827 475.948 583.288 478.725 580.592C480.13 579.25 481.521 577.888 482.865 576.481C484.228 575.049 485.696 573.588 487.232 572.255C488.004 571.585 488.795 570.933 489.612 570.311C490.352 569.694 491.054 569.167 491.674 568.538C492.874 567.505 493.658 566.072 493.88 564.505C493.785 562.879 493.136 561.334 492.041 560.127C490.918 558.684 489.5 557.377 488.124 555.807C487.761 555.397 487.421 554.967 487.107 554.519L486.312 553.176L484.883 550.555L482.088 545.328C480.244 541.835 478.361 538.367 476.438 534.924C472.581 528.043 468.516 521.276 464.113 514.73C459.748 508.195 455.319 501.578 450.59 495.539L449.696 494.423L448.764 493.471C448.124 492.787 447.431 492.157 446.69 491.585L442.082 487.928L432.779 480.631C426.563 475.772 420.426 470.795 414.37 465.702C414.334 465.672 414.311 465.63 414.306 465.584C414.3 465.538 414.312 465.491 414.339 465.454C414.367 465.416 414.407 465.39 414.453 465.381C414.499 465.372 414.546 465.381 414.585 465.406V465.406Z" fill="white"/>
<path d="M439.122 524.531C435.914 536.576 432.884 548.651 430.353 560.772C429.051 566.781 428.142 572.867 427.632 578.994C427.459 581.94 427.441 585.192 427.182 588.344C426.93 591.559 426.391 594.745 425.573 597.864C423.647 604.03 420.561 609.772 416.48 614.782C414.594 617.294 412.596 619.723 410.725 622.164C409.826 623.376 408.913 624.578 408.105 625.875C407.238 627.126 406.455 628.442 405.675 629.762C402.606 635.121 399.861 640.659 397.457 646.347C394.92 652.012 392.733 657.833 390.595 663.691C393.317 651.446 397.542 639.585 403.174 628.375C404.629 625.541 406.294 622.82 408.158 620.236C410.006 617.683 411.899 615.248 413.683 612.728C417.437 608.015 420.272 602.64 422.044 596.883C422.83 593.984 423.357 591.021 423.618 588.03C423.909 584.979 423.9 582 424.181 578.736C424.835 572.462 425.97 566.247 427.573 560.146C430.65 548.038 434.508 536.142 439.122 524.531ZM577.401 687.635C576.672 687.635 575.972 687.346 575.456 686.832C574.94 686.317 574.65 685.618 574.65 684.89C574.649 684.162 574.938 683.463 575.454 682.948C575.969 682.432 576.668 682.142 577.397 682.142L641.397 682.058H641.4C641.761 682.058 642.119 682.128 642.453 682.266C642.786 682.404 643.09 682.606 643.345 682.861C643.601 683.116 643.803 683.418 643.942 683.752C644.08 684.085 644.151 684.442 644.152 684.802C644.152 685.163 644.081 685.52 643.943 685.853C643.805 686.187 643.603 686.49 643.348 686.745C643.092 687 642.79 687.203 642.456 687.341C642.123 687.479 641.765 687.55 641.404 687.551L577.404 687.635H577.401Z" fill="white"/>
<path d="M170.268 685.813L89.5723 686.574L89.6242 692.067L170.319 691.306L170.268 685.813Z" fill="white"/>
<path d="M393.941 437.714C394.619 437.691 395.262 437.405 395.733 436.918C396.204 436.431 396.467 435.78 396.467 435.102C396.467 434.425 396.204 433.774 395.733 433.286C395.262 432.799 394.619 432.514 393.941 432.49C393.264 432.514 392.621 432.799 392.15 433.286C391.679 433.774 391.416 434.425 391.416 435.102C391.416 435.78 391.679 436.431 392.15 436.918C392.621 437.405 393.264 437.691 393.941 437.714ZM463.14 708.474C472.38 714.766 482.778 719.165 493.732 721.416C499.171 722.463 504.715 722.86 510.248 722.597C515.768 722.299 521.236 721.372 526.545 719.835C537.149 716.61 547.154 711.672 556.161 705.218C558.422 703.694 560.56 701.994 562.553 700.133C564.542 698.249 566.416 696.246 568.164 694.136C571.66 689.916 574.686 685.327 577.186 680.452L577.01 681.192L577.011 681.174L577.011 681.135C577.015 680.893 577.074 680.654 577.184 680.437C579.345 676.2 581.11 671.772 582.458 667.211C583.796 662.629 584.661 657.922 585.039 653.163L585.047 653.063L585.058 652.999C585.084 652.905 585.053 652.95 585.083 653.12L585.068 652.832C585.821 643.2 584.465 633.52 581.095 624.465C577.653 615.424 572.324 607.219 565.46 600.396C558.677 593.689 550.618 588.408 541.758 584.866C532.897 581.323 523.416 579.591 513.874 579.77C504.333 579.95 494.923 582.038 486.203 585.911C477.483 589.785 469.628 595.365 463.103 602.322C456.559 609.304 451.466 617.513 448.118 626.475C444.782 635.552 443.232 645.188 443.553 654.853C443.554 654.878 443.55 654.902 443.541 654.925C443.532 654.949 443.519 654.97 443.502 654.988C443.485 655.006 443.464 655.02 443.442 655.03C443.419 655.041 443.395 655.046 443.37 655.047C443.322 655.047 443.276 655.029 443.241 654.998C443.205 654.966 443.182 654.922 443.177 654.875C442.009 645.073 442.947 635.135 445.928 625.723C448.93 616.213 453.916 607.445 460.556 599.999C467.213 592.493 475.375 586.469 484.513 582.316C493.668 578.172 503.603 576.027 513.655 576.025C523.641 575.926 533.536 577.928 542.696 581.901C551.857 585.873 560.078 591.727 566.824 599.082C573.506 606.342 578.716 614.825 582.167 624.064C585.613 633.319 587.278 643.142 587.074 653.014L587.059 652.727C587.1 652.948 587.096 653.176 587.047 653.396L587.066 653.233C586.932 658.181 586.283 663.102 585.127 667.915C583.988 672.749 582.319 677.443 580.148 681.911L580.322 681.174L580.322 681.192C580.326 681.438 580.271 681.681 580.163 681.902L580.146 681.934C577.608 687.086 574.435 691.902 570.701 696.268C568.843 698.453 566.855 700.525 564.748 702.471C562.603 704.394 560.317 706.156 557.911 707.742C548.579 714.29 538.193 719.193 527.204 722.239C516.164 725.234 504.562 725.518 493.389 723.065C482.363 720.439 471.994 715.578 462.926 708.785C462.886 708.756 462.859 708.712 462.851 708.664C462.842 708.616 462.853 708.566 462.881 708.525C462.909 708.485 462.952 708.457 463 708.447C463.048 708.438 463.098 708.448 463.139 708.474L463.14 708.474Z" fill="white"/>
<path d="M479.307 587.504C478.804 588.851 478.381 590.216 477.955 591.574C477.538 592.936 477.129 594.296 476.763 595.667C476.355 597.023 476.025 598.403 475.701 599.785L474.64 603.892L474.693 603.548C474.689 603.704 474.659 603.858 474.604 604.003C474.538 604.181 474.436 604.344 474.305 604.482C474.173 604.619 474.016 604.729 473.841 604.805C473.666 604.881 473.478 604.921 473.288 604.923L474.623 603.908C473.851 607.885 472.898 611.798 472.086 615.748C471.342 619.715 470.593 623.683 469.965 627.677C469.312 631.67 468.663 635.664 468.116 639.69C467.492 643.708 466.903 647.743 466.202 651.788C465.836 647.701 465.715 643.595 465.839 639.494C465.909 635.389 466.191 631.291 466.683 627.215C467.195 623.142 467.813 619.073 468.71 615.057C469.119 613.041 469.667 611.053 470.23 609.073C470.796 607.093 471.318 605.103 471.93 603.142L473.267 602.126C473.081 602.129 472.897 602.168 472.727 602.242C472.557 602.316 472.403 602.424 472.275 602.558C472.147 602.692 472.048 602.851 471.983 603.024C471.93 603.165 471.901 603.315 471.897 603.465L471.951 603.121C472.964 600.411 473.899 597.693 475.1 595.06C476.268 592.418 477.676 589.889 479.307 587.504ZM550.449 587.504C552.947 591.799 555.01 596.332 556.608 601.037C557.495 603.365 558.125 605.767 558.891 608.137C559.57 610.528 560.136 612.948 560.759 615.358C562.932 625.063 564.329 634.926 564.936 644.853C565.562 654.759 565.57 664.694 564.959 674.601C564.655 679.546 564.1 684.474 563.626 689.396C562.866 694.295 562.207 699.195 561.333 704.061C561.414 699.105 561.73 694.187 561.905 689.263L562.214 674.505C562.188 672.046 562.176 669.59 562.194 667.135L562.206 663.454L562.075 659.776L561.88 652.421L561.425 645.084C560.842 635.303 559.725 625.562 558.077 615.904L556.663 608.693C556.095 606.314 555.639 603.895 554.967 601.539C553.83 596.75 552.319 592.057 550.449 587.504ZM513.27 684.231C514.403 683.094 515.366 681.799 516.129 680.386C516.111 682.034 516.074 683.664 516.037 685.312C515.799 697.212 515.341 709.113 514.663 721.014C513.985 709.113 513.526 697.212 513.288 685.312C513.288 684.945 513.27 684.598 513.27 684.231ZM513.765 672.459C513.765 672.459 514.974 671.012 516.294 669.108C516.276 670.957 516.257 672.825 516.221 674.674C515.586 673.754 514.745 672.996 513.765 672.459ZM516.422 647.833V651.348L516.367 659.972C515.209 660.066 514.065 660.293 512.958 660.649C512.94 657.537 512.922 654.442 512.903 651.348V647.833C512.977 624.599 513.306 601.383 514.663 578.148C516.001 601.383 516.349 624.599 516.422 647.833Z" fill="white"/>
<path d="M449.659 619.829C459.841 615.308 470.499 611.942 481.432 609.791C492.381 607.556 503.518 606.374 514.693 606.262C520.284 606.096 525.866 606.544 531.444 606.855C534.222 607.165 536.991 607.568 539.761 607.92C541.144 608.114 542.534 608.257 543.91 608.494L548.009 609.373C558.942 611.566 569.567 615.077 579.653 619.829C576.976 619.067 574.32 618.275 571.685 617.455L567.73 616.24C566.407 615.856 565.038 615.624 563.696 615.309L555.655 613.44C552.955 612.924 550.23 612.534 547.524 612.075L543.462 611.41C542.102 611.231 540.731 611.123 539.367 610.976C536.635 610.712 533.91 610.397 531.178 610.174C525.694 609.972 520.222 609.555 514.732 609.777C503.742 609.872 492.775 610.776 481.918 612.482L473.781 613.89C471.089 614.458 468.376 614.964 465.689 615.586C460.287 616.732 454.961 618.197 449.659 619.829ZM513.032 690.164L529.889 687.991C535.466 687.205 541.03 686.371 546.559 685.369C552.096 684.42 557.61 683.298 563.114 682.119C565.84 681.433 568.591 680.814 571.357 680.206L573.442 679.778L575.492 679.245C576.864 678.896 578.252 678.571 579.656 678.263C578.394 678.915 577.116 679.549 575.822 680.163C574.54 680.797 573.225 681.36 571.882 681.851C569.213 682.854 566.529 683.846 563.82 684.771C558.364 686.481 552.802 687.837 547.17 688.831C535.913 690.905 524.416 691.354 513.032 690.164ZM443.163 649.591C446.774 649.371 450.385 649.188 453.995 649.041C453.011 649.304 452.043 649.628 451.099 650.012C448.442 649.884 445.802 649.737 443.163 649.591ZM586.163 649.591C574.249 650.268 562.336 650.726 550.422 650.964C539.077 651.22 527.75 651.312 516.422 651.348H512.903C511.474 651.348 510.062 651.33 508.633 651.33C508.779 649.81 508.028 648.803 505.902 648.694C504.03 648.642 502.2 649.252 500.733 650.415C500.403 650.671 500.037 650.946 499.615 651.257C488.49 651.184 477.37 650.97 466.257 650.616C466.212 650.222 466.088 649.84 465.893 649.494C465.698 649.148 465.435 648.845 465.121 648.602C481.048 648.053 496.976 647.888 512.903 647.833H516.422C527.75 647.87 539.077 647.961 550.422 648.218C562.336 648.437 574.249 648.895 586.163 649.591Z" fill="white"/>
<path d="M473.295 603.508C473.295 603.51 473.295 603.513 473.294 603.515C473.293 603.517 473.292 603.519 473.29 603.521C473.288 603.523 473.286 603.524 473.284 603.525C473.282 603.526 473.279 603.526 473.277 603.526C471.58 606.727 470.258 610.112 469.336 613.614C469.318 613.651 469.318 613.706 469.299 613.742C467.925 619.034 468.603 620.004 466.788 625.222C465.762 628.17 464.846 629.873 465.359 632.308C465.847 633.841 466.466 635.33 467.21 636.757C467.43 637.215 467.65 637.709 467.907 638.258C469.171 641.041 469.483 641.7 469.208 642.543C468.86 643.568 468.053 643.696 466.569 644.593C466.045 644.899 465.548 645.248 465.084 645.637C464.204 646.298 463.393 647.046 462.665 647.871C457.17 647.813 451.76 649.223 446.994 651.954C445.857 652.594 444.629 653.235 443.31 653.913H443.291C443.236 653.125 443.218 652.338 443.181 651.551C443.163 650.892 443.163 650.251 443.163 649.592C443.15 639.317 445.363 629.161 449.651 619.821L449.67 619.803H449.688C451.411 616.019 453.473 612.397 455.846 608.982C463.819 601.219 472.415 597.191 475.275 597.209C475.584 597.181 475.893 597.273 476.136 597.466C476.778 598.107 475.238 599.864 473.295 603.508ZM586.162 649.592C586.162 650.196 586.162 650.8 586.126 651.404C586.126 651.917 586.089 652.411 586.071 652.924C586.071 653.016 586.052 653.107 586.052 653.199C586.049 653.731 586.019 654.263 585.961 654.792C585.315 663.941 582.893 672.877 578.831 681.102C578.78 681.134 578.724 681.158 578.666 681.175V681.193C578.186 681.421 577.672 681.569 577.145 681.633C576.529 681.695 575.906 681.627 575.318 681.431C574.73 681.235 574.191 680.917 573.736 680.498C573.717 680.479 573.699 680.443 573.662 680.424C572.178 678.795 573.369 676.524 572.892 673.119C572.489 670.299 571.005 668.304 568.054 664.331C566.769 662.506 565.334 660.791 563.765 659.204C562.684 658.16 561.676 657.52 560.961 657.813C560.062 658.215 559.788 660.12 560.117 661.511C560.612 663.598 562.299 663.781 562.665 665.466C563.16 667.681 560.906 670.244 558.981 671.416C557.907 672.138 556.663 672.57 555.372 672.67C554.081 672.769 552.786 672.533 551.613 671.984C548.974 670.446 549.047 667.169 547.636 667.169C546.518 667.187 545.528 669.237 545.363 670.849C545.233 671.856 545.406 672.88 545.86 673.789C546.313 674.699 547.027 675.453 547.911 675.957C549.725 676.726 550.898 675.133 553.024 675.957C553.66 676.166 554.231 676.538 554.678 677.036C555.125 677.534 555.433 678.14 555.572 678.795C555.664 680.534 553.281 681.889 550.183 683.61C546.646 685.569 545.546 685.478 541.386 687.583C540.982 687.785 540.616 687.968 540.268 688.151C538.641 688.899 537.115 689.846 535.722 690.97C532.863 693.314 533.138 694.357 530.333 696.646C528.502 698.344 526.249 699.52 523.809 700.052C521.591 700.418 521.133 699.74 517.284 699.484C516.411 699.421 515.537 699.403 514.663 699.429C512.978 699.452 511.295 699.562 509.622 699.759C507.663 699.952 505.721 700.289 503.812 700.766C513.636 695.767 514.937 688.206 510.85 686.411C510.85 686.411 522.47 677.605 513.764 672.46C513.764 672.46 527.841 655.725 511.95 660.962C510.629 661.414 509.372 662.036 508.211 662.811C507.716 663.122 507.148 663.507 506.506 663.91L504.618 659.113V659.094C508.339 654.041 510.832 648.933 505.901 648.695C504.03 648.644 502.2 649.253 500.733 650.416C499.596 651.276 497.965 652.485 495.912 653.876L491.752 649.592C490.802 648.048 490.218 646.306 490.047 644.502C489.971 642.511 490.31 640.526 491.042 638.673C491.774 636.82 492.883 635.139 494.299 633.736C496.912 630.972 500.254 629.004 503.94 628.06C506.832 626.943 509.954 626.553 513.031 626.925C513.544 627.017 514.094 627.127 514.663 627.273C516.459 627.694 518.31 628.317 519.263 628.628C520.884 629.363 522.609 629.844 524.377 630.056C526.686 630.166 527.328 629.47 528.336 630.056C529.6 630.752 529.399 632.217 530.333 635.714C531.268 639.174 532.038 642.103 534.017 642.799C535.502 643.312 536.309 642.103 537.995 642.799C539.095 643.257 539.095 643.916 540.817 645.637C542.339 647.138 543.108 647.889 544.227 648.182C545.292 648.425 546.407 648.338 547.422 647.932C548.437 647.527 549.304 646.822 549.908 645.912C550.128 645.527 550.532 644.722 550.183 641.389C549.762 637.178 549.56 635.073 548.204 633.736C546.554 632.107 545.271 633.297 541.386 632.033C536.932 630.587 537.262 628.573 532.313 626.651C528.995 625.369 528.116 625.973 525.513 624.38C523.405 623.099 520.729 620.718 521.242 619.272C521.811 617.734 525.476 618.924 526.924 616.727C528.061 615.024 526.484 613.358 527.767 611.051C528.519 609.733 530.077 608.47 531.177 608.799C532.386 609.147 531.928 611.106 533.449 613.615C534.858 615.759 536.961 617.355 539.406 618.137C541.257 618.814 543.548 619.657 545.363 618.43C546.976 617.35 547.874 614.878 547.067 613.615C546.023 611.985 542.852 613.377 541.954 611.912C541.806 611.561 541.731 611.183 541.734 610.802C541.737 610.421 541.818 610.045 541.972 609.696C542.209 608.886 542.642 608.146 543.234 607.542C543.825 606.938 544.556 606.49 545.363 606.236C546.298 606.09 547.251 606.438 552.749 611.051C553.043 611.308 553.336 611.546 553.592 611.765L553.611 611.784C556.525 614.255 557.056 614.805 558.138 614.75C558.497 614.727 558.849 614.647 559.183 614.512C559.762 614.269 560.295 613.928 560.759 613.505C562.055 612.242 563.089 610.737 563.802 609.074C564.736 606.913 564.37 606.035 564.938 605.668C566.258 604.826 570.968 607.646 575.917 612.717C577.304 615.009 578.552 617.381 579.656 619.821C583.252 627.621 585.401 636.008 585.997 644.575C586.052 645.399 586.089 646.241 586.126 647.083C586.144 647.907 586.162 648.75 586.162 649.592ZM376.998 272.682C378.024 276.847 378.813 281.066 379.361 285.32C379.966 289.546 380.358 293.788 380.708 298.033C380.99 302.283 381.226 306.537 381.249 310.806C381.333 315.094 381.171 319.384 380.764 323.654C379.733 319.49 378.943 315.271 378.396 311.016C377.792 306.79 377.4 302.548 377.054 298.303C376.777 294.052 376.541 289.799 376.519 285.529C376.436 281.241 376.596 276.952 376.998 272.682ZM403.426 327.169C404.404 322.828 405.619 318.543 407.065 314.334C408.447 310.124 410.028 305.993 411.647 301.879C413.33 297.789 415.056 293.717 416.98 289.725C418.857 285.689 420.956 281.759 423.267 277.955C422.293 282.297 421.08 286.583 419.633 290.792C418.25 295.002 416.669 299.132 415.046 303.246C413.359 307.333 411.633 311.405 409.708 315.397C407.83 319.433 405.733 323.363 403.426 327.169ZM336.838 282.349C339.106 285.77 341.17 289.322 343.019 292.987C344.912 296.605 346.609 300.309 348.267 304.03C349.863 307.778 351.416 311.544 352.773 315.395C354.195 319.245 355.385 323.177 356.336 327.169C354.064 323.751 351.998 320.199 350.15 316.534C348.258 312.915 346.561 309.211 344.907 305.488C343.316 301.739 341.762 297.973 340.406 294.121C338.985 290.271 337.794 286.34 336.838 282.349ZM166.137 580.006C164.497 579.589 162.828 579.297 161.144 579.133C160.347 579.032 159.537 579.113 158.776 579.37C158.056 579.631 158.283 580.421 158.682 581.109C159.612 582.483 160.727 583.723 161.993 584.795C163.229 585.931 164.539 587.012 165.869 588.026C165.989 588.117 166.068 588.253 166.088 588.402C166.108 588.551 166.068 588.702 165.976 588.821C165.915 588.9 165.834 588.961 165.742 588.999C165.65 589.037 165.549 589.051 165.45 589.04C161.983 588.655 158.716 587.221 156.087 584.929C154.755 583.78 153.649 582.392 152.827 580.837C152.393 580.031 152.083 579.163 151.907 578.264C151.806 577.741 151.816 577.203 151.939 576.685C152.029 576.353 152.193 576.045 152.419 575.785C152.489 575.658 152.555 575.616 152.659 575.418C154.189 572.637 155.494 569.493 156.822 566.477L160.722 557.302C162.03 554.235 163.354 551.207 164.475 548.103C165.629 545 166.566 541.857 167.65 538.684L170.831 529.198C171.912 526.045 173.237 522.976 174.428 519.864C179.191 507.393 185.291 495.474 192.62 484.314C196.321 478.714 200.69 473.584 205.63 469.037C206.254 468.472 206.862 467.889 207.5 467.339L209.499 465.785C210.824 464.732 212.213 463.761 213.657 462.877C216.557 460.985 219.762 459.606 223.131 458.803L222.943 458.848C228.671 457.144 234.579 456.118 240.547 455.791C246.449 455.312 252.361 455.159 258.262 455.153C264.164 455.156 270.061 455.271 275.954 455.497C281.845 455.776 287.723 456.129 293.609 456.609L292.992 456.819C295.269 454.488 297.369 451.992 299.273 449.349L302.216 445.362C303.157 443.905 304.392 442.659 305.842 441.704C308.854 439.99 312.396 439.455 315.781 440.203C319.088 440.796 322.238 442.059 325.037 443.915C325.048 443.922 325.058 443.932 325.066 443.943C325.073 443.954 325.078 443.966 325.081 443.979C325.084 443.992 325.084 444.006 325.081 444.019C325.079 444.032 325.074 444.044 325.066 444.056C325.05 444.077 325.026 444.092 325 444.097C324.973 444.102 324.946 444.097 324.923 444.083C322.094 442.397 318.949 441.307 315.683 440.879C312.495 440.338 309.219 440.952 306.445 442.61C305.146 443.528 304.056 444.71 303.245 446.077L300.42 450.185C298.542 452.984 296.429 455.617 294.102 458.057C294.029 458.13 293.94 458.187 293.843 458.223C293.746 458.26 293.642 458.276 293.539 458.27L293.484 458.267C287.63 457.909 281.751 457.675 275.881 457.518C270.011 457.333 264.139 457.236 258.271 457.264C252.403 457.28 246.544 457.521 240.709 457.886C234.908 458.135 229.157 459.06 223.571 460.641L223.447 460.673L223.382 460.686C220.264 461.443 217.284 462.682 214.551 464.36C213.134 465.18 211.768 466.086 210.462 467.072L208.481 468.534C207.846 469.055 207.239 469.612 206.615 470.149C205.346 471.199 204.138 472.323 202.999 473.513C201.865 474.711 200.657 475.842 199.581 477.096C197.476 479.644 195.274 482.123 193.425 484.88C185.807 495.779 179.677 507.644 175.196 520.16C174.112 523.301 172.894 526.392 171.92 529.568L169.057 539.109C168.081 542.263 167.252 545.543 166.086 548.683C164.977 551.851 163.664 554.937 162.392 558.005C161.124 561.085 159.763 564.126 158.414 567.175C157.019 570.227 155.748 573.238 154.03 576.269C153.89 576.499 153.73 576.718 153.554 576.922C153.565 577.024 153.479 576.956 153.477 577.122C153.417 577.416 153.415 577.719 153.471 578.014C153.611 578.751 153.859 579.463 154.207 580.128C154.937 581.528 155.902 582.793 157.06 583.866C159.425 586.051 162.402 587.463 165.593 587.912L165.174 588.925C163.832 587.836 162.55 586.71 161.317 585.506C160.037 584.317 158.933 582.953 158.04 581.452C157.809 581.03 157.673 580.563 157.64 580.083C157.64 579.809 157.725 579.542 157.883 579.317C158.041 579.093 158.265 578.923 158.523 578.829C159.386 578.566 160.299 578.511 161.187 578.669C162.881 578.921 164.554 579.302 166.19 579.809C166.203 579.813 166.215 579.819 166.225 579.827C166.236 579.835 166.244 579.846 166.251 579.857C166.257 579.869 166.262 579.882 166.263 579.895C166.264 579.909 166.263 579.922 166.26 579.935C166.252 579.96 166.235 579.981 166.212 579.995C166.189 580.008 166.162 580.012 166.137 580.006Z" fill="white"/>
<path d="M516.143 669.005C516.95 667.811 517.671 666.562 518.299 665.265C518.608 664.627 518.854 663.961 519.035 663.276C519.246 662.645 519.258 661.964 519.068 661.326C518.939 661.049 518.733 660.814 518.475 660.648C518.218 660.483 517.919 660.393 517.612 660.389C516.929 660.312 516.239 660.334 515.562 660.455C514.164 660.709 512.793 661.097 511.469 661.614C510.158 662.169 508.914 662.869 507.76 663.701C506.553 664.512 505.317 665.291 504.068 666.049C502.814 666.802 501.548 667.536 500.231 668.202C498.9 668.932 497.478 669.482 496.003 669.839C495.866 669.867 495.724 669.85 495.597 669.792C495.47 669.734 495.365 669.637 495.297 669.516C495.229 669.394 495.202 669.254 495.218 669.115C495.235 668.977 495.296 668.848 495.391 668.746L495.422 668.713C498.478 665.534 501.327 662.162 503.951 658.618L503.788 659.112L503.787 659.094C503.785 658.925 503.837 658.759 503.935 658.621L503.948 658.603C504.762 657.46 505.538 656.293 506.22 655.099C506.914 653.984 507.411 652.758 507.692 651.475C507.864 650.226 507.462 649.848 506.193 649.668C504.951 649.562 503.704 649.816 502.603 650.399C502.027 650.702 501.483 651.064 500.981 651.478C500.408 651.926 499.827 652.349 499.243 652.763C498.071 653.591 496.931 654.461 495.73 655.255C493.344 656.862 490.906 658.388 488.394 659.801C483.369 662.698 478.015 664.982 472.447 666.605C469.61 667.386 466.701 667.879 463.765 668.075C460.771 668.231 457.77 667.933 454.865 667.192C454.647 667.134 454.447 667.022 454.282 666.868C454.118 666.713 453.994 666.52 453.923 666.306C453.852 666.092 453.835 665.863 453.874 665.641C453.913 665.419 454.007 665.21 454.147 665.033L454.168 665.006L461.127 656.299L464.546 652.014C464.693 651.804 464.791 651.563 464.832 651.31C464.873 651.057 464.856 650.798 464.782 650.552C464.717 650.321 464.599 650.107 464.437 649.929C464.339 649.828 464.232 649.735 464.117 649.652C464.023 649.582 463.92 649.523 463.812 649.477C463.543 649.368 463.253 649.319 462.963 649.333C462.603 649.317 462.088 649.324 461.667 649.332C460.781 649.353 459.898 649.418 459.021 649.519C457.258 649.718 455.522 650.1 453.839 650.659C452.998 650.953 452.172 651.208 451.317 651.529C450.502 651.851 449.701 652.219 448.915 652.623L444.006 655.264C443.804 655.373 443.579 655.431 443.35 655.433L443.31 655.433H443.292L443.98 655.269C434.738 659.88 425.412 663.951 416.618 669.029L413.308 670.955C409.833 672.983 406.04 674.412 402.09 675.182C399.47 675.709 396.803 675.967 394.131 675.953C391.42 675.934 388.891 675.613 386.345 675.427L355.736 672.867L325.137 670.184C304.736 668.421 284.335 666.626 263.925 665.065L256.273 664.563C254.992 664.477 253.732 664.435 252.475 664.399C251.717 664.413 250.966 664.238 250.292 663.891C249.652 663.524 249.1 663.02 248.677 662.416C247.273 660.147 246.357 657.611 245.988 654.969C245.535 652.426 245.227 649.86 245.065 647.283C244.544 637.032 244.725 626.758 245.607 616.532L246.008 617.12C238.962 614.956 231.921 612.733 225.077 609.969C218.203 607.279 211.472 604.241 204.909 600.866C198.348 597.488 191.956 593.79 185.614 590.079C179.269 586.405 172.867 582.724 165.915 580.83L167.121 579.917C167.134 600.174 167.563 620.43 168.407 640.685C168.847 650.802 169.409 660.914 170.239 670.993C170.418 673.516 170.67 676.03 170.907 678.546C171.128 681.064 171.391 683.575 171.694 686.079C171.984 688.591 172.209 691.115 172.673 693.484C173.123 695.882 173.79 698.234 174.665 700.512C178.292 709.667 184.87 717.354 193.358 722.358C197.566 724.89 202.113 726.811 206.862 728.063C209.237 728.695 211.651 729.17 214.088 729.486C216.542 729.788 219.102 729.989 221.603 730.245L229.148 730.968L236.711 731.457C241.75 731.849 246.802 731.958 251.85 732.162C256.898 732.393 261.953 732.3 267.004 732.386C272.054 732.262 277.11 732.279 282.156 732.009C302.36 731.186 322.48 728.921 342.361 725.232C352.284 723.392 362.266 721.293 372.309 719.626C382.348 717.926 392.412 716.502 402.479 715.138C422.611 712.384 442.78 710.047 462.917 707.536C472.975 706.249 483.055 704.988 493 703.206L496.7 702.459C497.937 702.215 499.085 701.813 500.286 701.501C501.433 701.05 502.571 700.553 503.697 700.038C504.801 699.479 505.865 698.846 506.883 698.142C508.92 696.785 510.594 694.95 511.758 692.799C512.315 691.764 512.565 690.591 512.478 689.419C512.427 688.867 512.234 688.338 511.917 687.883C511.599 687.429 511.169 687.065 510.668 686.827C510.6 686.796 510.54 686.748 510.495 686.689C510.449 686.629 510.419 686.559 510.407 686.486C510.395 686.412 510.401 686.336 510.425 686.265C510.449 686.194 510.49 686.13 510.544 686.078L510.573 686.051C511.671 685.145 512.719 684.18 513.712 683.161C514.677 682.124 515.478 680.946 516.087 679.669C516.402 679.059 516.593 678.392 516.649 677.708C516.705 677.024 516.626 676.336 516.414 675.682C515.857 674.394 514.882 673.331 513.646 672.663C513.619 672.647 513.595 672.626 513.577 672.601C513.558 672.576 513.545 672.547 513.537 672.517C513.53 672.486 513.528 672.455 513.533 672.424C513.537 672.393 513.548 672.363 513.564 672.337L513.584 672.308L516.144 669.005L516.153 668.993C516.182 668.955 516.226 668.93 516.273 668.924C516.321 668.918 516.369 668.93 516.408 668.959C516.446 668.988 516.472 669.031 516.479 669.079C516.486 669.126 516.474 669.175 516.445 669.213L513.946 672.611L513.885 672.256C515.242 672.952 516.325 674.086 516.957 675.473C517.214 676.197 517.325 676.964 517.285 677.731C517.244 678.498 517.053 679.25 516.721 679.943C516.114 681.306 515.303 682.568 514.315 683.686C513.311 684.773 512.248 685.803 511.129 686.771L511.034 685.995C511.691 686.287 512.26 686.744 512.688 687.321C513.116 687.898 513.386 688.576 513.474 689.288C513.62 690.655 513.371 692.035 512.755 693.264C511.562 695.627 509.807 697.661 507.642 699.186C506.592 699.953 505.491 700.647 504.345 701.263C503.183 701.833 502.002 702.386 500.805 702.889C499.562 703.252 498.314 703.715 497.066 703.993L493.323 704.842C483.316 706.814 473.262 708.247 463.211 709.71L402.906 718.162C392.872 719.629 382.847 721.157 372.889 722.952C367.9 723.79 362.945 724.864 357.982 725.827C353.023 726.849 348.039 727.911 343.032 728.84C322.986 732.607 302.696 734.938 282.317 735.814C261.936 736.732 241.515 736.116 221.228 733.97C218.682 733.693 216.18 733.484 213.599 733.151C211.004 732.799 208.435 732.278 205.908 731.589C200.835 730.219 195.983 728.134 191.498 725.398C182.38 719.941 175.342 711.604 171.497 701.705C170.568 699.24 169.863 696.697 169.391 694.106C168.902 691.493 168.692 688.958 168.422 686.433C168.146 683.899 167.914 681.365 167.726 678.829C167.521 676.294 167.3 673.76 167.152 671.223C166.449 661.081 166.016 650.933 165.705 640.785C165.093 620.488 164.927 600.192 165.207 579.897L165.207 579.878C165.209 579.755 165.235 579.632 165.284 579.518C165.332 579.405 165.403 579.302 165.492 579.215C165.581 579.129 165.686 579.061 165.801 579.015C165.916 578.969 166.039 578.946 166.163 578.947C166.248 578.949 166.332 578.961 166.413 578.984C173.693 581.081 180.126 584.932 186.432 588.692C192.745 592.482 199.016 596.291 205.53 599.671C212.038 603.058 218.714 606.112 225.533 608.82C232.325 611.603 239.322 613.85 246.328 616.041C246.451 616.079 246.558 616.158 246.631 616.265C246.704 616.372 246.738 616.5 246.729 616.629C245.853 626.792 245.721 637.006 246.333 647.189C246.509 649.715 246.828 652.23 247.288 654.721C247.642 657.155 248.488 659.491 249.774 661.587C250.083 662.033 250.488 662.404 250.958 662.675C251.426 662.911 251.947 663.023 252.471 663C253.773 663.027 255.072 663.062 256.346 663.14L264.024 663.569C284.477 664.787 304.906 666.225 325.337 667.659L355.979 669.856L386.604 672.256C389.163 672.432 391.728 672.733 394.14 672.732C396.591 672.732 399.037 672.482 401.437 671.986C403.832 671.491 406.169 670.749 408.41 669.771C409.529 669.283 410.62 668.734 411.679 668.128L415.017 666.213C424.002 661.104 433.503 657.028 442.604 652.557L442.625 652.547C442.833 652.445 443.061 652.393 443.292 652.393H443.31L442.615 652.561L447.546 649.949C448.417 649.508 449.31 649.105 450.226 648.749C451.113 648.421 452.066 648.127 452.983 647.817C454.838 647.219 456.75 646.813 458.687 646.606C459.658 646.5 460.632 646.436 461.606 646.419C462.114 646.414 462.53 646.407 463.098 646.431C463.741 646.437 464.376 646.569 464.968 646.821C465.286 646.96 465.587 647.136 465.864 647.346C466.123 647.54 466.364 647.757 466.583 647.996C467.046 648.511 467.381 649.128 467.562 649.796C467.742 650.447 467.775 651.131 467.66 651.797C467.545 652.463 467.283 653.095 466.895 653.649L463.337 658.061L456.316 666.73L455.62 664.545C458.238 665.228 460.941 665.529 463.646 665.44C466.4 665.297 469.133 664.878 471.803 664.187C477.208 662.7 482.415 660.572 487.313 657.849C489.788 656.508 492.204 655.048 494.566 653.511C495.753 652.754 496.892 651.912 498.058 651.117C498.642 650.716 499.219 650.311 499.774 649.89C500.382 649.41 501.036 648.993 501.727 648.645C503.173 647.913 504.801 647.616 506.413 647.788C507.372 647.854 508.27 648.285 508.921 648.991C509.21 649.383 509.412 649.832 509.512 650.308C509.611 650.784 509.607 651.276 509.499 651.751C509.167 653.253 508.573 654.685 507.743 655.981C506.992 657.226 506.173 658.429 505.291 659.585L505.451 659.094L505.451 659.112L505.451 659.137C505.449 659.307 505.392 659.472 505.288 659.607C502.533 663.142 499.554 666.498 496.368 669.651L495.787 668.526C498.508 667.748 501.105 666.591 503.502 665.088C504.754 664.37 505.995 663.63 507.219 662.852C508.445 662.016 509.761 661.32 511.142 660.776C512.538 660.268 513.981 659.898 515.449 659.671C516.208 659.561 516.979 659.564 517.736 659.679C518.159 659.714 518.563 659.865 518.905 660.114C519.248 660.364 519.514 660.703 519.676 661.094C519.895 661.861 519.866 662.676 519.595 663.425C519.383 664.138 519.102 664.828 518.757 665.487C518.076 666.783 517.304 668.028 516.445 669.213C516.417 669.252 516.375 669.279 516.328 669.287C516.28 669.295 516.232 669.285 516.192 669.257C516.152 669.23 516.125 669.188 516.116 669.141C516.107 669.094 516.117 669.045 516.143 669.005V669.005Z" fill="white"/>
<path d="M496.471 670.022C493.706 671.641 490.916 673.133 488.046 674.504C485.208 675.923 482.235 677.057 479.171 677.887C482.102 676.743 484.912 675.311 487.559 673.61C490.226 671.964 492.833 670.183 495.332 668.333L495.346 668.322C495.564 668.162 495.836 668.094 496.104 668.134C496.371 668.174 496.612 668.318 496.773 668.536C496.934 668.753 497.003 669.025 496.963 669.292C496.923 669.559 496.779 669.8 496.562 669.961C496.533 669.983 496.502 670.003 496.471 670.022ZM514.371 673.288C509.633 676.507 504.836 679.594 499.917 682.507C497.454 683.953 494.973 685.373 492.408 686.639C491.135 687.291 489.829 687.877 488.496 688.396C487.837 688.674 487.157 688.901 486.462 689.075C485.776 689.275 485.067 689.385 484.352 689.401C485.06 689.343 485.758 689.193 486.427 688.953C487.103 688.74 487.762 688.475 488.398 688.161C489.687 687.569 490.945 686.911 492.168 686.19C494.634 684.785 497.014 683.228 499.373 681.646C504.079 678.467 508.676 675.103 513.165 671.646L513.174 671.639C513.389 671.474 513.66 671.4 513.928 671.435C514.196 671.47 514.44 671.609 514.605 671.823C514.77 672.037 514.843 672.308 514.809 672.576C514.774 672.844 514.634 673.087 514.42 673.252L514.371 673.288ZM511.507 687.199C509.659 688.549 507.718 689.769 505.699 690.849C503.713 691.934 501.664 692.903 499.565 693.749C495.398 695.46 491.038 696.658 486.582 697.316C490.936 696.333 495.155 694.824 499.145 692.822C501.132 691.84 503.06 690.743 504.919 689.536C506.766 688.359 508.531 687.056 510.199 685.637L510.231 685.609C510.332 685.521 510.45 685.454 510.577 685.411C510.705 685.368 510.839 685.351 510.973 685.36C511.107 685.369 511.238 685.405 511.359 685.465C511.479 685.525 511.586 685.608 511.674 685.71C511.762 685.811 511.829 685.929 511.871 686.056C511.914 686.184 511.93 686.318 511.92 686.452C511.911 686.586 511.874 686.716 511.814 686.836C511.753 686.956 511.67 687.063 511.568 687.15C511.549 687.167 511.527 687.184 511.507 687.199ZM461.931 610.666C461.779 610.666 461.63 610.628 461.497 610.557C461.364 610.486 461.25 610.382 461.166 610.256L453.253 598.316C453.187 598.216 453.141 598.104 453.118 597.985C453.094 597.867 453.095 597.746 453.119 597.628C453.143 597.51 453.19 597.398 453.257 597.298C453.324 597.199 453.411 597.113 453.511 597.047C453.611 596.98 453.724 596.934 453.842 596.911C453.96 596.888 454.082 596.889 454.2 596.913C454.318 596.936 454.43 596.983 454.53 597.051C454.63 597.118 454.715 597.204 454.782 597.304L462.695 609.244C462.829 609.447 462.877 609.694 462.829 609.932C462.78 610.17 462.64 610.379 462.437 610.514C462.287 610.614 462.111 610.667 461.931 610.666ZM502.674 580.822C502.523 580.822 502.374 580.785 502.241 580.714C502.107 580.642 501.994 580.539 501.91 580.413L493.995 568.473C493.928 568.372 493.882 568.26 493.859 568.142C493.836 568.024 493.837 567.903 493.861 567.785C493.885 567.667 493.932 567.555 493.999 567.455C494.066 567.355 494.152 567.27 494.253 567.203C494.353 567.137 494.466 567.091 494.584 567.068C494.702 567.045 494.823 567.045 494.942 567.069C495.06 567.093 495.172 567.14 495.272 567.207C495.371 567.274 495.457 567.36 495.524 567.461L503.438 579.401C503.53 579.539 503.583 579.699 503.59 579.865C503.598 580.03 503.561 580.194 503.482 580.34C503.404 580.486 503.287 580.608 503.145 580.693C503.003 580.778 502.84 580.823 502.674 580.822Z" fill="white"/>
</svg>
