<svg fill="none" height="929" viewBox="0 0 1007 929" width="1007" xmlns="http://www.w3.org/2000/svg"><g fill="#fff"><path d="m422.179 388.402s-4.706-2.82-9.098 2.194c0 0-7.844-11.133-41.102-1.492 0 0 4.392 8.388 7.53 8.388 3.137 0-5.962 14.417-14.433 13.79 0 0-14.433 21-3.451 41.372 10.823 20.079 18.599 26.457 29.334 13.433.33-.404.697-.775 1.097-1.109 3.088-2.544 16.756-13.119 21.601-5.233 1.031 1.751 1.327 3.84.821 5.809-2.211 9.251-12.551 43.324-42.499 29.725 0 0-34.901-13.074-26.669-44.046.88-3.15 2.156-6.176 3.799-9.005 1.583-2.891 2.559-6.073 2.867-9.354.309-3.28-.057-6.589-1.073-9.723-1.262-4.469-4.108-8.326-8.008-10.852-3.78-2.355-8.764-3.409-12.539 3.178-1.562 2.741-2.386 5.839-2.39 8.993-.007 2.886.53 6.426 2.911 8.125l-2.911 5.642c-1.584-3.218-3.608-6.2-6.016-8.86-4.031-4.078-6.621-9.359-7.376-15.041-1.066-9.014.217-22.473 10.969-38.157 0 0 14.433-28.835 41.416-28.208 26.982.627 50.2 7.835 55.22 40.431z"/><path d="m376.999 426.013c4.686-1.071 9.502-1.467 14.301-1.177 2.418.12 4.817.484 7.161 1.085 2.392.513 4.615 1.623 6.462 3.227-2.132-.989-4.408-1.63-6.743-1.898-2.307-.331-4.634-.572-6.982-.677-4.692-.29-9.408-.313-14.199-.56zm45.18-.447c-1.716.521-3.304 1.395-4.662 2.566-.644.53-1.168 1.19-1.539 1.937s-.58 1.563-.614 2.396c.127 1.709.575 3.378 1.322 4.921l2.051 5.038c1.531 3.41 2.42 7.071 2.624 10.802-.003.983-.183 1.957-.533 2.876-.375.93-.989 1.745-1.78 2.363-1.606 1.011-3.502 1.461-5.391 1.28 1.771-.151 3.457-.825 4.844-1.936.569-.606.999-1.33 1.258-2.12s.342-1.627.242-2.452c-.135-1.745-.49-3.466-1.055-5.123-.528-1.697-1.158-3.378-1.83-5.054-.645-1.687-1.342-3.365-1.97-5.093-.3-.873-.605-1.743-.841-2.663-.293-.951-.393-1.951-.292-2.941.105-.984.426-1.934.941-2.78.514-.846 1.209-1.569 2.035-2.116 1.554-1.038 3.333-1.69 5.19-1.901z"/><path d="m422.179 388.402c.588 3.513 1.025 7.045 1.311 10.596.327 3.545.529 7.101.606 10.667.056 3.566.003 7.139-.276 10.714-.164 3.644-.979 7.229-2.406 10.587-.021.042-.047.08-.079.114-1.101 1.185-2.135 2.43-3.096 3.73-.477.652-.902 1.34-1.269 2.059-.409.699-.573 1.515-.465 2.318-.252-.808-.206-1.679.128-2.456.289-.784.64-1.544 1.05-2.272.819-1.452 1.766-2.827 2.83-4.111l-.078.114c.608-1.603 1.013-3.276 1.205-4.98.272-1.719.382-3.474.512-5.223.207-3.512.243-7.044.263-10.578 0-7.074-.155-14.16-.236-21.279zm-18.825 61.431c-.331.68-.599 1.39-.799 2.119-.205.674-.249 1.386-.131 2.08.097.688.398 1.331.864 1.847.493.569 1.04 1.089 1.635 1.552-.38-.113-.754-.247-1.119-.401-.355-.195-.69-.426-1-.688-.647-.56-1.084-1.324-1.238-2.165-.111-.834.014-1.681.36-2.448.322-.734.811-1.383 1.428-1.896zm-72.478-17.238c1.086 1.361 1.953 2.884 2.568 4.513.33.831.569 1.696.712 2.578.077.463.108.932.092 1.401l-.009.361.021.196c-.008.127.02.255.08.367.27.573.745 1.024 1.332 1.264.697.355 1.431.633 2.189.828 1.612.434 3.269.674 4.938.715-1.648.646-3.434.859-5.189.62-.915-.093-1.811-.322-2.659-.68-.499-.194-.954-.483-1.34-.853s-.695-.813-.909-1.302c-.112-.276-.167-.572-.162-.87l-.006-.439.014-.275c.019-.379.011-.759-.026-1.137-.069-.803-.195-1.6-.376-2.386-.355-1.61-.824-3.229-1.27-4.901zm-2.911 5.641c-.7 2.535-1.687 4.982-2.942 7.294-1.229 2.346-2.712 4.549-4.423 6.571-1.712 2.06-3.742 3.833-6.015 5.253-2.278 1.411-4.885 2.203-7.564 2.298 2.452-.736 4.755-1.895 6.806-3.426 2.006-1.542 3.833-3.304 5.446-5.253 1.657-1.947 3.188-3.996 4.586-6.136 1.406-2.15 2.803-4.33 4.106-6.601zm22.992 73.341c1.982-.868 3.857-1.964 5.586-3.266 1.716-1.279 3.343-2.673 4.871-4.171 1.576-1.453 2.989-3.079 4.456-4.67l2.137-2.464c.695-.84 1.389-1.687 2.155-2.499-.437 1.017-.945 1.999-1.452 2.987-.574.943-1.138 1.901-1.768 2.814-1.273 1.83-2.719 3.534-4.32 5.086-1.608 1.565-3.403 2.927-5.343 4.054-1.925 1.167-4.084 1.894-6.322 2.129z"/><path d="m319.568 451.536c-1.562-2.311-3.493-4.35-5.717-6.035-.463-.409-1.023-.691-1.628-.819-.604-.128-1.231-.097-1.82.088-1.041.706-1.788 1.768-2.101 2.985-.429 1.298-.737 2.632-.923 3.987-.093.673-.176 1.374-.236 2.022.003.617.057 1.341.119 2.015.27 2.764.783 5.499 1.533 8.173 1.381 5.441 3.526 10.66 6.372 15.5 2.883 4.838 6.332 9.317 10.274 13.341 1.977 1.998 4.032 3.92 6.117 5.795 2.165 1.784 4.234 3.701 6.489 5.34 1.087.877 2.286 1.589 3.421 2.392 1.203.69 2.357 1.475 3.609 2.061 2.42 1.314 4.994 2.321 7.663 3 5.329 1.413 10.993.819 15.913-1.669 4.944-2.636 9.097-6.539 12.033-11.308.011-.021.029-.036.051-.043s.046-.005.067.005c.019.012.033.03.04.052.007.021.006.044-.003.065-2.553 5.179-6.566 9.499-11.545 12.43-2.55 1.444-5.355 2.384-8.261 2.767-2.916.344-5.87.156-8.718-.554-2.828-.671-5.55-1.728-8.09-3.141-1.296-.643-2.473-1.476-3.704-2.22-1.154-.85-2.376-1.615-3.471-2.535-2.296-1.724-4.306-3.736-6.431-5.626-1.083-.921-2.002-2.02-2.997-3.033-.958-1.05-1.996-2.023-2.886-3.133-3.714-4.289-7.088-8.862-10.089-13.676-3.056-4.814-5.49-9.994-7.244-15.418-.856-2.745-1.415-5.573-1.668-8.436-.047-.734-.091-1.418-.075-2.214.084-.754.185-1.455.301-2.177.231-1.44.595-2.855 1.086-4.228.221-.758.591-1.464 1.088-2.077.497-.614 1.112-1.122 1.808-1.496.782-.306 1.648-.324 2.442-.049.723.247 1.397.615 1.994 1.09 2.193 1.866 4.004 4.137 5.336 6.689.005.01.009.021.01.032.002.011.001.023-.002.034s-.008.021-.015.03-.016.017-.026.023c-.02.01-.042.012-.063.007-.022-.005-.041-.018-.053-.036zm-80.773 23.685c2.285.647 4.359 1.885 6.011 3.59 1.703 1.677 3.065 3.667 4.011 5.862.948 2.181 1.481 4.52 1.572 6.896.045 1.17-.015 2.341-.18 3.5-.199 1.15-.503 2.28-.909 3.374-.407-1.132-.59-2.225-.889-3.293-.32-1.062-.513-2.119-.869-3.129-.569-2.006-1.265-3.974-2.087-5.891-.823-1.906-1.786-3.749-2.881-5.514-1.147-1.875-2.409-3.677-3.779-5.395zm7.995 43.879c.706 8.127 1.051 16.253 1.268 24.377.24 8.125.266 16.248.25 24.371-.084 8.123-.215 16.245-.558 24.366-.321 8.122-.772 16.242-1.588 24.36-.71-8.128-1.057-16.253-1.273-24.378-.239-8.125-.265-16.248-.245-24.371.089-8.123.22-16.245.564-24.366.322-8.121.771-16.241 1.582-24.359zm167.795-53.694c6.713 4.195 13.303 8.565 19.769 13.109 3.236 2.269 6.446 4.579 9.63 6.93l4.737 3.615c.831.622 1.614 1.307 2.341 2.047l1.126 1.174.948 1.2c2.455 3.163 4.695 6.488 6.704 9.951 2.025 3.412 3.995 6.847 5.911 10.305 3.787 6.946 7.687 13.814 11.699 20.605 2.007 3.398 4.052 6.774 6.136 10.127l3.117 5.028c.924 1.643 2.022 3.183 3.275 4.593 1.328 1.301 2.909 2.591 4.285 4.21 1.629 1.696 2.611 3.91 2.772 6.255-.123 2.405-1.172 4.669-2.927 6.319-.75.757-1.538 1.475-2.362 2.151-.738.594-1.455 1.218-2.156 1.861-1.411 1.294-2.708 2.653-4.028 4.116-1.344 1.483-2.735 2.922-4.147 4.344-2.85 2.843-5.876 5.504-9.06 7.967-3.247 2.512-6.781 4.628-10.529 6.305-1.965.83-4.031 1.401-6.144 1.698-2.22.329-4.485.132-6.615-.574-.339-.103-.628-.327-.812-.63l-.012-.02c-1.376-2.276-2.882-4.547-4.405-6.769-1.522-2.232-3.116-4.41-4.782-6.535-1.673-2.108-3.461-4.123-5.355-6.035-1.823-1.968-4.057-3.511-6.543-4.522l-.014-.005c-.043-.015-.08-.046-.101-.087-.022-.041-.027-.089-.014-.133.012-.045.041-.083.08-.108.039-.024.086-.032.132-.023 2.716.7 5.228 2.033 7.329 3.89 2.154 1.741 4.173 3.643 6.039 5.689 3.75 4.057 7.195 8.384 10.308 12.946l-.823-.649c3.49.711 7.12.184 10.263-1.491 3.431-1.634 6.656-3.669 9.608-6.061 3.059-2.372 5.983-4.911 8.76-7.607 1.405-1.342 2.796-2.704 4.14-4.111 1.363-1.432 2.831-2.893 4.367-4.226.772-.67 1.563-1.322 2.38-1.944.74-.617 1.442-1.144 2.062-1.773 1.2-1.033 1.984-2.466 2.206-4.033-.095-1.626-.744-3.171-1.839-4.378-1.123-1.443-2.541-2.75-3.917-4.32-.363-.41-.703-.84-1.017-1.288l-.795-1.343-1.429-2.621-2.795-5.227c-1.844-3.493-3.727-6.961-5.65-10.404-3.857-6.881-7.922-13.648-12.325-20.194-4.365-6.535-8.794-13.152-13.523-19.191l-.894-1.116-.932-.952c-.64-.684-1.333-1.314-2.074-1.886l-4.608-3.657-9.303-7.297c-6.216-4.859-12.353-9.836-18.409-14.929-.036-.03-.059-.072-.064-.118-.006-.046.006-.093.033-.13.028-.038.068-.064.114-.073s.093 0 .132.025z"/><path d="m439.122 524.531c-3.208 12.045-6.238 24.12-8.769 36.241-1.302 6.009-2.211 12.095-2.721 18.222-.173 2.946-.191 6.198-.45 9.35-.252 3.215-.791 6.401-1.609 9.52-1.926 6.166-5.012 11.908-9.093 16.918-1.886 2.512-3.884 4.941-5.755 7.382-.899 1.212-1.812 2.414-2.62 3.711-.867 1.251-1.65 2.567-2.43 3.887-3.069 5.359-5.814 10.897-8.218 16.585-2.537 5.665-4.724 11.486-6.862 17.344 2.722-12.245 6.947-24.106 12.579-35.316 1.455-2.834 3.12-5.555 4.984-8.139 1.848-2.553 3.741-4.988 5.525-7.508 3.754-4.713 6.589-10.088 8.361-15.845.786-2.899 1.313-5.862 1.574-8.853.291-3.051.282-6.03.563-9.294.654-6.274 1.789-12.489 3.392-18.59 3.077-12.108 6.935-24.004 11.549-35.615zm138.279 163.104c-.729 0-1.429-.289-1.945-.803-.516-.515-.806-1.214-.806-1.942-.001-.728.288-1.427.804-1.942.515-.516 1.214-.806 1.943-.806l64-.084h.003c.361 0 .719.07 1.053.208.333.138.637.34.892.595.256.255.458.557.597.891.138.333.209.69.21 1.05 0 .361-.071.718-.209 1.051-.138.334-.34.637-.595.892-.256.255-.558.458-.892.596-.333.138-.691.209-1.052.21l-64 .084z"/><path d="m170.268 685.813-80.6957.761.0519 5.493 80.6948-.761z"/><path d="m393.941 437.714c.678-.023 1.321-.309 1.792-.796s.734-1.138.734-1.816c0-.677-.263-1.328-.734-1.816-.471-.487-1.114-.772-1.792-.796-.677.024-1.32.309-1.791.796-.471.488-.734 1.139-.734 1.816 0 .678.263 1.329.734 1.816s1.114.773 1.791.796zm69.199 270.76c9.24 6.292 19.638 10.691 30.592 12.942 5.439 1.047 10.983 1.444 16.516 1.181 5.52-.298 10.988-1.225 16.297-2.762 10.604-3.225 20.609-8.163 29.616-14.617 2.261-1.524 4.399-3.224 6.392-5.085 1.989-1.884 3.863-3.887 5.611-5.997 3.496-4.22 6.522-8.809 9.022-13.684l-.176.74.001-.018v-.039c.004-.242.063-.481.173-.698 2.161-4.237 3.926-8.665 5.274-13.226 1.338-4.582 2.203-9.289 2.581-14.048l.008-.1.011-.064c.026-.094-.005-.049.025.121l-.015-.288c.753-9.632-.603-19.312-3.973-28.367-3.442-9.041-8.771-17.246-15.635-24.069-6.783-6.707-14.842-11.988-23.702-15.53-8.861-3.543-18.342-5.275-27.884-5.096-9.541.18-18.951 2.268-27.671 6.141-8.72 3.874-16.575 9.454-23.1 16.411-6.544 6.982-11.637 15.191-14.985 24.153-3.336 9.077-4.886 18.713-4.565 28.378.001.025-.003.049-.012.072-.009.024-.022.045-.039.063s-.038.032-.06.042c-.023.011-.047.016-.072.017-.048 0-.094-.018-.129-.049-.036-.032-.059-.076-.064-.123-1.168-9.802-.23-19.74 2.751-29.152 3.002-9.51 7.988-18.278 14.628-25.724 6.657-7.506 14.819-13.53 23.957-17.683 9.155-4.144 19.09-6.289 29.142-6.291 9.986-.099 19.881 1.903 29.041 5.876 9.161 3.972 17.382 9.826 24.128 17.181 6.682 7.26 11.892 15.743 15.343 24.982 3.446 9.255 5.111 19.078 4.907 28.95l-.015-.287c.041.221.037.449-.012.669l.019-.163c-.134 4.948-.783 9.869-1.939 14.682-1.139 4.834-2.808 9.528-4.979 13.996l.174-.737v.018c.004.246-.051.489-.159.71l-.017.032c-2.538 5.152-5.711 9.968-9.445 14.334-1.858 2.185-3.846 4.257-5.953 6.203-2.145 1.923-4.431 3.685-6.837 5.271-9.332 6.548-19.718 11.451-30.707 14.497-11.04 2.995-22.642 3.279-33.815.826-11.026-2.626-21.395-7.487-30.463-14.28-.04-.029-.067-.073-.075-.121-.009-.048.002-.098.03-.139.028-.04.071-.068.119-.078.048-.009.098.001.139.027z"/><path d="m479.307 587.504c-.503 1.347-.926 2.712-1.352 4.07-.417 1.362-.826 2.722-1.192 4.093-.408 1.356-.738 2.736-1.062 4.118l-1.061 4.107.053-.344c-.004.156-.034.31-.089.455-.066.178-.168.341-.299.479-.132.137-.289.247-.464.323s-.363.116-.553.118l1.335-1.015c-.772 3.977-1.725 7.89-2.537 11.84-.744 3.967-1.493 7.935-2.121 11.929-.653 3.993-1.302 7.987-1.849 12.013-.624 4.018-1.213 8.053-1.914 12.098-.366-4.087-.487-8.193-.363-12.294.07-4.105.352-8.203.844-12.279.512-4.073 1.13-8.142 2.027-12.158.409-2.016.957-4.004 1.52-5.984.566-1.98 1.088-3.97 1.7-5.931l1.337-1.016c-.186.003-.37.042-.54.116s-.324.182-.452.316-.227.293-.292.466c-.053.141-.082.291-.086.441l.054-.344c1.013-2.71 1.948-5.428 3.149-8.061 1.168-2.642 2.576-5.171 4.207-7.556zm71.142 0c2.498 4.295 4.561 8.828 6.159 13.533.887 2.328 1.517 4.73 2.283 7.1.679 2.391 1.245 4.811 1.868 7.221 2.173 9.705 3.57 19.568 4.177 29.495.626 9.906.634 19.841.023 29.748-.304 4.945-.859 9.873-1.333 14.795-.76 4.899-1.419 9.799-2.293 14.665.081-4.956.397-9.874.572-14.798l.309-14.758c-.026-2.459-.038-4.915-.02-7.37l.012-3.681-.131-3.678-.195-7.355-.455-7.337c-.583-9.781-1.7-19.522-3.348-29.18l-1.414-7.211c-.568-2.379-1.024-4.798-1.696-7.154-1.137-4.789-2.648-9.482-4.518-14.035zm-37.179 96.727c1.133-1.137 2.096-2.432 2.859-3.845-.018 1.648-.055 3.278-.092 4.926-.238 11.9-.696 23.801-1.374 35.702-.678-11.901-1.137-23.802-1.375-35.702 0-.367-.018-.714-.018-1.081zm.495-11.772s1.209-1.447 2.529-3.351c-.018 1.849-.037 3.717-.073 5.566-.635-.92-1.476-1.678-2.456-2.215zm2.657-24.626v3.515l-.055 8.624c-1.158.094-2.302.321-3.409.677-.018-3.112-.036-6.207-.055-9.301v-3.515c.074-23.234.403-46.45 1.76-69.685 1.338 23.235 1.686 46.451 1.759 69.685z"/><path d="m449.659 619.829c10.182-4.521 20.84-7.887 31.773-10.038 10.949-2.235 22.086-3.417 33.261-3.529 5.591-.166 11.173.282 16.751.593 2.778.31 5.547.713 8.317 1.065 1.383.194 2.773.337 4.149.574l4.099.879c10.933 2.193 21.558 5.704 31.644 10.456-2.677-.762-5.333-1.554-7.968-2.374l-3.955-1.215c-1.323-.384-2.692-.616-4.034-.931l-8.041-1.869c-2.7-.516-5.425-.906-8.131-1.365l-4.062-.665c-1.36-.179-2.731-.287-4.095-.434-2.732-.264-5.457-.579-8.189-.802-5.484-.202-10.956-.619-16.446-.397-10.99.095-21.957.999-32.814 2.705l-8.137 1.408c-2.692.568-5.405 1.074-8.092 1.696-5.402 1.146-10.728 2.611-16.03 4.243zm63.373 70.335 16.857-2.173c5.577-.786 11.141-1.62 16.67-2.622 5.537-.949 11.051-2.071 16.555-3.25 2.726-.686 5.477-1.305 8.243-1.913l2.085-.428 2.05-.533c1.372-.349 2.76-.674 4.164-.982-1.262.652-2.54 1.286-3.834 1.9-1.282.634-2.597 1.197-3.94 1.688-2.669 1.003-5.353 1.995-8.062 2.92-5.456 1.71-11.018 3.066-16.65 4.06-11.257 2.074-22.754 2.523-34.138 1.333zm-69.869-40.573c3.611-.22 7.222-.403 10.832-.55-.984.263-1.952.587-2.896.971-2.657-.128-5.297-.275-7.936-.421zm143 0c-11.914.677-23.827 1.135-35.741 1.373-11.345.256-22.672.348-34 .384h-3.519c-1.429 0-2.841-.018-4.27-.018.146-1.52-.605-2.527-2.731-2.636-1.872-.052-3.702.558-5.169 1.721-.33.256-.696.531-1.118.842-11.125-.073-22.245-.287-33.358-.641-.045-.394-.169-.776-.364-1.122s-.458-.649-.772-.892c15.927-.549 31.855-.714 47.782-.769h3.519c11.328.037 22.655.128 34 .385 11.914.219 23.827.677 35.741 1.373z"/><path d="m473.295 603.508c0 .002 0 .005-.001.007s-.002.004-.004.006-.004.003-.006.004-.005.001-.007.001c-1.697 3.201-3.019 6.586-3.941 10.088-.018.037-.018.092-.037.128-1.374 5.292-.696 6.262-2.511 11.48-1.026 2.948-1.942 4.651-1.429 7.086.488 1.533 1.107 3.022 1.851 4.449.22.458.44.952.697 1.501 1.264 2.783 1.576 3.442 1.301 4.285-.348 1.025-1.155 1.153-2.639 2.05-.524.306-1.021.655-1.485 1.044-.88.661-1.691 1.409-2.419 2.234-5.495-.058-10.905 1.352-15.671 4.083-1.137.64-2.365 1.281-3.684 1.959h-.019c-.055-.788-.073-1.575-.11-2.362-.018-.659-.018-1.3-.018-1.959-.013-10.275 2.2-20.431 6.488-29.771l.019-.018h.018c1.723-3.784 3.785-7.406 6.158-10.821 7.973-7.763 16.569-11.791 19.429-11.773.309-.028.618.064.861.257.642.641-.898 2.398-2.841 6.042zm112.867 46.084c0 .604 0 1.208-.036 1.812 0 .513-.037 1.007-.055 1.52 0 .092-.019.183-.019.275-.003.532-.033 1.064-.091 1.593-.646 9.149-3.068 18.085-7.13 26.31-.051.032-.107.056-.165.073v.018c-.48.228-.994.376-1.521.44-.616.062-1.239-.006-1.827-.202s-1.127-.514-1.582-.933c-.019-.019-.037-.055-.074-.074-1.484-1.629-.293-3.9-.77-7.305-.403-2.82-1.887-4.815-4.838-8.788-1.285-1.825-2.72-3.54-4.289-5.127-1.081-1.044-2.089-1.684-2.804-1.391-.899.402-1.173 2.307-.844 3.698.495 2.087 2.182 2.27 2.548 3.955.495 2.215-1.759 4.778-3.684 5.95-1.074.722-2.318 1.154-3.609 1.254-1.291.099-2.586-.137-3.759-.686-2.639-1.538-2.566-4.815-3.977-4.815-1.118.018-2.108 2.068-2.273 3.68-.13 1.007.043 2.031.497 2.94.453.91 1.167 1.664 2.051 2.168 1.814.769 2.987-.824 5.113 0 .636.209 1.207.581 1.654 1.079s.755 1.104.894 1.759c.092 1.739-2.291 3.094-5.389 4.815-3.537 1.959-4.637 1.868-8.797 3.973-.404.202-.77.385-1.118.568-1.627.748-3.153 1.695-4.546 2.819-2.859 2.344-2.584 3.387-5.389 5.676-1.831 1.698-4.084 2.874-6.524 3.406-2.218.366-2.676-.312-6.525-.568-.873-.063-1.747-.081-2.621-.055-1.685.023-3.368.133-5.041.33-1.959.193-3.901.53-5.81 1.007 9.824-4.999 11.125-12.56 7.038-14.355 0 0 11.62-8.806 2.914-13.951 0 0 14.077-16.735-1.814-11.498-1.321.452-2.578 1.074-3.739 1.849-.495.311-1.063.696-1.705 1.099l-1.888-4.797v-.019c3.721-5.053 6.214-10.161 1.283-10.399-1.871-.051-3.701.558-5.168 1.721-1.137.86-2.768 2.069-4.821 3.46l-4.16-4.284c-.95-1.544-1.534-3.286-1.705-5.09-.076-1.991.263-3.976.995-5.829s1.841-3.534 3.257-4.937c2.613-2.764 5.955-4.732 9.641-5.676 2.892-1.117 6.014-1.507 9.091-1.135.513.092 1.063.202 1.632.348 1.796.421 3.647 1.044 4.6 1.355 1.621.735 3.346 1.216 5.114 1.428 2.309.11 2.951-.586 3.959 0 1.264.696 1.063 2.161 1.997 5.658.935 3.46 1.705 6.389 3.684 7.085 1.485.513 2.292-.696 3.978 0 1.1.458 1.1 1.117 2.822 2.838 1.522 1.501 2.291 2.252 3.41 2.545 1.065.243 2.18.156 3.195-.25 1.015-.405 1.882-1.11 2.486-2.02.22-.385.624-1.19.275-4.523-.421-4.211-.623-6.316-1.979-7.653-1.65-1.629-2.933-.439-6.818-1.703-4.454-1.446-4.124-3.46-9.073-5.382-3.318-1.282-4.197-.678-6.8-2.271-2.108-1.281-4.784-3.662-4.271-5.108.569-1.538 4.234-.348 5.682-2.545 1.137-1.703-.44-3.369.843-5.676.752-1.318 2.31-2.581 3.41-2.252 1.209.348.751 2.307 2.272 4.816 1.409 2.144 3.512 3.74 5.957 4.522 1.851.677 4.142 1.52 5.957.293 1.613-1.08 2.511-3.552 1.704-4.815-1.044-1.63-4.215-.238-5.113-1.703-.148-.351-.223-.729-.22-1.11s.084-.757.238-1.106c.237-.81.67-1.55 1.262-2.154.591-.604 1.322-1.052 2.129-1.306.935-.146 1.888.202 7.386 4.815.294.257.587.495.843.714l.019.019c2.914 2.471 3.445 3.021 4.527 2.966.359-.023.711-.103 1.045-.238.579-.243 1.112-.584 1.576-1.007 1.296-1.263 2.33-2.768 3.043-4.431.934-2.161.568-3.039 1.136-3.406 1.32-.842 6.03 1.978 10.979 7.049 1.387 2.292 2.635 4.664 3.739 7.104 3.596 7.8 5.745 16.187 6.341 24.754.055.824.092 1.666.129 2.508.018.824.036 1.667.036 2.509zm-209.164-376.91c1.026 4.165 1.815 8.384 2.363 12.638.605 4.226.997 8.468 1.347 12.713.282 4.25.518 8.504.541 12.773.084 4.288-.078 8.578-.485 12.848-1.031-4.164-1.821-8.383-2.368-12.638-.604-4.226-.996-8.468-1.342-12.713-.277-4.251-.513-8.504-.535-12.774-.083-4.288.077-8.577.479-12.847zm26.428 54.487c.978-4.341 2.193-8.626 3.639-12.835 1.382-4.21 2.963-8.341 4.582-12.455 1.683-4.09 3.409-8.162 5.333-12.154 1.877-4.036 3.976-7.966 6.287-11.77-.974 4.342-2.187 8.628-3.634 12.837-1.383 4.21-2.964 8.34-4.587 12.454-1.687 4.087-3.413 8.159-5.338 12.151-1.878 4.036-3.975 7.966-6.282 11.772zm-66.588-44.82c2.268 3.421 4.332 6.973 6.181 10.638 1.893 3.618 3.59 7.322 5.248 11.043 1.596 3.748 3.149 7.514 4.506 11.365 1.422 3.85 2.612 7.782 3.563 11.774-2.272-3.418-4.338-6.97-6.186-10.635-1.892-3.619-3.589-7.323-5.243-11.046-1.591-3.749-3.145-7.515-4.501-11.367-1.421-3.85-2.612-7.781-3.568-11.772zm-170.701 297.657c-1.64-.417-3.309-.709-4.993-.873-.797-.101-1.607-.02-2.368.237-.72.261-.493 1.051-.094 1.739.93 1.374 2.045 2.614 3.311 3.686 1.236 1.136 2.546 2.217 3.876 3.231.12.091.199.227.219.376s-.02.3-.112.419c-.061.079-.142.14-.234.178s-.193.052-.292.041c-3.467-.385-6.734-1.819-9.363-4.111-1.332-1.149-2.438-2.537-3.26-4.092-.434-.806-.744-1.674-.92-2.573-.101-.523-.091-1.061.032-1.579.09-.332.254-.64.48-.9.07-.127.136-.169.24-.367 1.53-2.781 2.835-5.925 4.163-8.941l3.9-9.175c1.308-3.067 2.632-6.095 3.753-9.199 1.154-3.103 2.091-6.246 3.175-9.419l3.181-9.486c1.081-3.153 2.406-6.222 3.597-9.334 4.763-12.471 10.863-24.39 18.192-35.55 3.701-5.6 8.07-10.73 13.01-15.277.624-.565 1.232-1.148 1.87-1.698l1.999-1.554c1.325-1.053 2.714-2.024 4.158-2.908 2.9-1.892 6.105-3.271 9.474-4.074l-.188.045c5.728-1.704 11.636-2.73 17.604-3.057 5.902-.479 11.814-.632 17.715-.638 5.902.003 11.799.118 17.692.344 5.891.279 11.769.632 17.655 1.112l-.617.21c2.277-2.331 4.377-4.827 6.281-7.47l2.943-3.987c.941-1.457 2.176-2.703 3.626-3.658 3.012-1.714 6.554-2.249 9.939-1.501 3.307.593 6.457 1.856 9.256 3.712.011.007.021.017.029.028.007.011.012.023.015.036s.003.027 0 .04c-.002.013-.007.025-.015.037-.016.021-.04.036-.066.041-.027.005-.054 0-.077-.014-2.829-1.686-5.974-2.776-9.24-3.204-3.188-.541-6.464.073-9.238 1.731-1.299.918-2.389 2.1-3.2 3.467l-2.825 4.108c-1.878 2.799-3.991 5.432-6.318 7.872-.073.073-.162.13-.259.166-.097.037-.201.053-.304.047l-.055-.003c-5.854-.358-11.733-.592-17.603-.749-5.87-.185-11.742-.282-17.61-.254-5.868.016-11.727.257-17.562.622-5.801.249-11.552 1.174-17.138 2.755l-.124.032-.065.013c-3.118.757-6.098 1.996-8.831 3.674-1.417.82-2.783 1.726-4.089 2.712l-1.981 1.462c-.635.521-1.242 1.078-1.866 1.615-1.269 1.05-2.477 2.174-3.616 3.364-1.134 1.198-2.342 2.329-3.418 3.583-2.105 2.548-4.307 5.027-6.156 7.784-7.618 10.899-13.748 22.764-18.229 35.28-1.084 3.141-2.302 6.232-3.276 9.408l-2.863 9.541c-.976 3.154-1.805 6.434-2.971 9.574-1.109 3.168-2.422 6.254-3.694 9.322-1.268 3.08-2.629 6.121-3.978 9.17-1.395 3.052-2.666 6.063-4.384 9.094-.14.23-.3.449-.476.653.011.102-.075.034-.077.2-.06.294-.062.597-.006.892.14.737.388 1.449.736 2.114.73 1.4 1.695 2.665 2.853 3.738 2.365 2.185 5.342 3.597 8.533 4.046l-.419 1.013c-1.342-1.089-2.624-2.215-3.857-3.419-1.28-1.189-2.384-2.553-3.277-4.054-.231-.422-.367-.889-.4-1.369 0-.274.085-.541.243-.766.158-.224.382-.394.64-.488.863-.263 1.776-.318 2.664-.16 1.694.252 3.367.633 5.003 1.14.013.004.025.01.035.018.011.008.019.019.026.03.006.012.011.025.012.038.001.014 0 .027-.003.04-.008.025-.025.046-.048.06-.023.013-.05.017-.075.011z"/><path d="m516.143 669.005c.807-1.194 1.528-2.443 2.156-3.74.309-.638.555-1.304.736-1.989.211-.631.223-1.312.033-1.95-.129-.277-.335-.512-.593-.678-.257-.165-.556-.255-.863-.259-.683-.077-1.373-.055-2.05.066-1.398.254-2.769.642-4.093 1.159-1.311.555-2.555 1.255-3.709 2.087-1.207.811-2.443 1.59-3.692 2.348-1.254.753-2.52 1.487-3.837 2.153-1.331.73-2.753 1.28-4.228 1.637-.137.028-.279.011-.406-.047s-.232-.155-.3-.276c-.068-.122-.095-.262-.079-.401.017-.138.078-.267.173-.369l.031-.033c3.056-3.179 5.905-6.551 8.529-10.095l-.163.494-.001-.018c-.002-.169.05-.335.148-.473l.013-.018c.814-1.143 1.59-2.31 2.272-3.504.694-1.115 1.191-2.341 1.472-3.624.172-1.249-.23-1.627-1.499-1.807-1.242-.106-2.489.148-3.59.731-.576.303-1.12.665-1.622 1.079-.573.448-1.154.871-1.738 1.285-1.172.828-2.312 1.698-3.513 2.492-2.386 1.607-4.824 3.133-7.336 4.546-5.025 2.897-10.379 5.181-15.947 6.804-2.837.781-5.746 1.274-8.682 1.47-2.994.156-5.995-.142-8.9-.883-.218-.058-.418-.17-.583-.324-.164-.155-.288-.348-.359-.562s-.088-.443-.049-.665.133-.431.273-.608l.021-.027 6.959-8.707 3.419-4.285c.147-.21.245-.451.286-.704s.024-.512-.05-.758c-.065-.231-.183-.445-.345-.623-.098-.101-.205-.194-.32-.277-.094-.07-.197-.129-.305-.175-.269-.109-.559-.158-.849-.144-.36-.016-.875-.009-1.296-.001-.886.021-1.769.086-2.646.187-1.763.199-3.499.581-5.182 1.14-.841.294-1.667.549-2.522.87-.815.322-1.616.69-2.402 1.094l-4.909 2.641c-.202.109-.427.167-.656.169h-.04-.018l.688-.164c-9.242 4.611-18.568 8.682-27.362 13.76l-3.31 1.926c-3.475 2.028-7.268 3.457-11.218 4.227-2.62.527-5.287.785-7.959.771-2.711-.019-5.24-.34-7.786-.526l-30.609-2.56-30.599-2.683c-20.401-1.763-40.802-3.558-61.212-5.119l-7.652-.502c-1.281-.086-2.541-.128-3.798-.164-.758.014-1.509-.161-2.183-.508-.64-.367-1.192-.871-1.615-1.475-1.404-2.269-2.32-4.805-2.689-7.447-.453-2.543-.761-5.109-.923-7.686-.521-10.251-.34-20.525.542-30.751l.401.588c-7.046-2.164-14.087-4.387-20.931-7.151-6.874-2.69-13.605-5.728-20.168-9.103-6.561-3.378-12.953-7.076-19.295-10.787-6.345-3.674-12.747-7.355-19.699-9.249l1.206-.913c.013 20.257.442 40.513 1.286 60.768.44 10.117 1.002 20.229 1.832 30.308.179 2.523.431 5.037.668 7.553.221 2.518.484 5.029.787 7.533.29 2.512.515 5.036.979 7.405.45 2.398 1.117 4.75 1.992 7.028 3.627 9.155 10.205 16.842 18.693 21.846 4.208 2.532 8.755 4.453 13.504 5.705 2.375.632 4.789 1.107 7.226 1.423 2.454.302 5.014.503 7.515.759l7.545.723 7.563.489c5.039.392 10.091.501 15.139.705 5.048.231 10.103.138 15.154.224 5.05-.124 10.106-.107 15.152-.377 20.204-.823 40.324-3.088 60.205-6.777 9.923-1.84 19.905-3.939 29.948-5.606 10.039-1.7 20.103-3.124 30.17-4.488 20.132-2.754 40.301-5.091 60.438-7.602 10.058-1.287 20.138-2.548 30.083-4.33l3.7-.747c1.237-.244 2.385-.646 3.586-.958 1.147-.451 2.285-.948 3.411-1.463 1.104-.559 2.168-1.192 3.186-1.896 2.037-1.357 3.711-3.192 4.875-5.343.557-1.035.807-2.208.72-3.38-.051-.552-.244-1.081-.561-1.536-.318-.454-.748-.818-1.249-1.056-.068-.031-.128-.079-.173-.138-.046-.06-.076-.13-.088-.203-.012-.074-.006-.15.018-.221s.065-.135.119-.187l.029-.027c1.098-.906 2.146-1.871 3.139-2.89.965-1.037 1.766-2.215 2.375-3.492.315-.61.506-1.277.562-1.961s-.023-1.372-.235-2.026c-.557-1.288-1.532-2.351-2.768-3.019-.027-.016-.051-.037-.069-.062-.019-.025-.032-.054-.04-.084-.007-.031-.009-.062-.004-.093.004-.031.015-.061.031-.087l.02-.029 2.56-3.303.009-.012c.029-.038.073-.063.12-.069.048-.006.096.006.135.035.038.029.064.072.071.12.007.047-.005.096-.034.134l-2.499 3.398-.061-.355c1.357.696 2.44 1.83 3.072 3.217.257.724.368 1.491.328 2.258-.041.767-.232 1.519-.564 2.212-.607 1.363-1.418 2.625-2.406 3.743-1.004 1.087-2.067 2.117-3.186 3.085l-.095-.776c.657.292 1.226.749 1.654 1.326s.698 1.255.786 1.967c.146 1.367-.103 2.747-.719 3.976-1.193 2.363-2.948 4.397-5.113 5.922-1.05.767-2.151 1.461-3.297 2.077-1.162.57-2.343 1.123-3.54 1.626-1.243.363-2.491.826-3.739 1.104l-3.743.849c-10.007 1.972-20.061 3.405-30.112 4.868l-60.305 8.452c-10.034 1.467-20.059 2.995-30.017 4.79-4.989.838-9.944 1.912-14.907 2.875-4.959 1.022-9.943 2.084-14.95 3.013-20.046 3.767-40.336 6.098-60.715 6.974-20.381.918-40.802.302-61.089-1.844-2.546-.277-5.048-.486-7.629-.819-2.595-.352-5.164-.873-7.691-1.562-5.073-1.37-9.925-3.455-14.41-6.191-9.118-5.457-16.156-13.794-20.001-23.693-.929-2.465-1.634-5.008-2.106-7.599-.489-2.613-.699-5.148-.969-7.673-.276-2.534-.508-5.068-.696-7.604-.205-2.535-.426-5.069-.574-7.606-.703-10.142-1.136-20.29-1.447-30.438-.612-20.297-.778-40.593-.498-60.888v-.019c.002-.123.028-.246.077-.36.048-.113.119-.216.208-.303.089-.086.194-.154.309-.2s.238-.069.362-.068c.085.002.169.014.25.037 7.28 2.097 13.713 5.948 20.019 9.708 6.313 3.79 12.584 7.599 19.098 10.979 6.508 3.387 13.184 6.441 20.003 9.149 6.792 2.783 13.789 5.03 20.795 7.221.123.038.23.117.303.224s.107.235.098.364c-.876 10.163-1.008 20.377-.396 30.56.176 2.526.495 5.041.955 7.532.354 2.434 1.2 4.77 2.486 6.866.309.446.714.817 1.184 1.088.468.236.989.348 1.513.325 1.302.027 2.601.062 3.875.14l7.678.429c20.453 1.218 40.882 2.656 61.313 4.09l30.642 2.197 30.625 2.4c2.559.176 5.124.477 7.536.476 2.451 0 4.897-.25 7.297-.746 2.395-.495 4.732-1.237 6.973-2.215 1.119-.488 2.21-1.037 3.269-1.643l3.338-1.915c8.985-5.109 18.486-9.185 27.587-13.656l.021-.01c.208-.102.436-.154.667-.154h.018l-.695.168 4.931-2.612c.871-.441 1.764-.844 2.68-1.2.887-.328 1.84-.622 2.757-.932 1.855-.598 3.767-1.004 5.704-1.211.971-.106 1.945-.17 2.919-.187.508-.005.924-.012 1.492.012.643.006 1.278.138 1.87.39.318.139.619.315.896.525.259.194.5.411.719.65.463.515.798 1.132.979 1.8.18.651.213 1.335.098 2.001s-.377 1.298-.765 1.852l-3.558 4.412-7.021 8.669-.696-2.185c2.618.683 5.321.984 8.026.895 2.754-.143 5.487-.562 8.157-1.253 5.405-1.487 10.612-3.615 15.51-6.338 2.475-1.341 4.891-2.801 7.253-4.338 1.187-.757 2.326-1.599 3.492-2.394.584-.401 1.161-.806 1.716-1.227.608-.48 1.262-.897 1.953-1.245 1.446-.732 3.074-1.029 4.686-.857.959.066 1.857.497 2.508 1.203.289.392.491.841.591 1.317.099.476.095.968-.013 1.443-.332 1.502-.926 2.934-1.756 4.23-.751 1.245-1.57 2.448-2.452 3.604l.16-.491v.018.025c-.002.17-.059.335-.163.47-2.755 3.535-5.734 6.891-8.92 10.044l-.581-1.125c2.721-.778 5.318-1.935 7.715-3.438 1.252-.718 2.493-1.458 3.717-2.236 1.226-.836 2.542-1.532 3.923-2.076 1.396-.508 2.839-.878 4.307-1.105.759-.11 1.53-.107 2.287.008.423.035.827.186 1.169.435.343.25.609.589.771.98.219.767.19 1.582-.081 2.331-.212.713-.493 1.403-.838 2.062-.681 1.296-1.453 2.541-2.312 3.726-.028.039-.07.066-.117.074-.048.008-.096-.002-.136-.03-.04-.027-.067-.069-.076-.116s.001-.096.027-.136z"/><path d="m496.471 670.022c-2.765 1.619-5.555 3.111-8.425 4.482-2.838 1.419-5.811 2.553-8.875 3.383 2.931-1.144 5.741-2.576 8.388-4.277 2.667-1.646 5.274-3.427 7.773-5.277l.014-.011c.218-.16.49-.228.758-.188.267.04.508.184.669.402.161.217.23.489.19.756s-.184.508-.401.669c-.029.022-.06.042-.091.061zm17.9 3.266c-4.738 3.219-9.535 6.306-14.454 9.219-2.463 1.446-4.944 2.866-7.509 4.132-1.273.652-2.579 1.238-3.912 1.757-.659.278-1.339.505-2.034.679-.686.2-1.395.31-2.11.326.708-.058 1.406-.208 2.075-.448.676-.213 1.335-.478 1.971-.792 1.289-.592 2.547-1.25 3.77-1.971 2.466-1.405 4.846-2.962 7.205-4.544 4.706-3.179 9.303-6.543 13.792-10l.009-.007c.215-.165.486-.239.754-.204s.512.174.677.388.238.485.204.753c-.035.268-.175.511-.389.676zm-2.864 13.911c-1.848 1.35-3.789 2.57-5.808 3.65-1.986 1.085-4.035 2.054-6.134 2.9-4.167 1.711-8.527 2.909-12.983 3.567 4.354-.983 8.573-2.492 12.563-4.494 1.987-.982 3.915-2.079 5.774-3.286 1.847-1.177 3.612-2.48 5.28-3.899l.032-.028c.101-.088.219-.155.346-.198.128-.043.262-.06.396-.051s.265.045.386.105c.12.06.227.143.315.245.088.101.155.219.197.346.043.128.059.262.049.396-.009.134-.046.264-.106.384-.061.12-.144.227-.246.314-.019.017-.041.034-.061.049zm-49.576-76.533c-.152 0-.301-.038-.434-.109s-.247-.175-.331-.301l-7.913-11.94c-.066-.1-.112-.212-.135-.331-.024-.118-.023-.239.001-.357s.071-.23.138-.33c.067-.099.154-.185.254-.251.1-.067.213-.113.331-.136s.24-.022.358.002c.118.023.23.07.33.138.1.067.185.153.252.253l7.913 11.94c.134.203.182.45.134.688-.049.238-.189.447-.392.582-.15.1-.326.153-.506.152zm40.743-29.844c-.151 0-.3-.037-.433-.108-.134-.072-.247-.175-.331-.301l-7.915-11.94c-.067-.101-.113-.213-.136-.331s-.022-.239.002-.357.071-.23.138-.33.153-.185.254-.252c.1-.066.213-.112.331-.135s.239-.023.358.001c.118.024.23.071.33.138.099.067.185.153.252.254l7.914 11.94c.092.138.145.298.152.464.008.165-.029.329-.108.475-.078.146-.195.268-.337.353s-.305.13-.471.129z"/></g></svg>