<svg width="1049" height="482" viewBox="0 0 1049 482" fill="none" xmlns="http://www.w3.org/2000/svg">
<rect x="160" y="398" width="81" height="41" fill="#9CFFF8"/>
<rect x="261" y="384" width="81" height="55" fill="#9CFFF8"/>
<rect x="362" y="356" width="81" height="83" fill="#9CFFF8"/>
<rect x="463" y="319" width="81" height="120" fill="#9CFFF8"/>
<rect x="564" y="214" width="81" height="225" fill="#9CFFF8"/>
<rect x="665" y="144" width="81" height="295" fill="#9CFFF8"/>
<rect x="766" y="269" width="81" height="170" fill="#9CFFF8"/>
<rect x="867" y="339" width="81" height="100" fill="#9CFFF8"/>
<rect x="968" y="318" width="81" height="123" fill="#9CFFF8"/>
<path d="M174.38 462.32C169.84 462.32 168.36 465.8 170.2 468.32L170.64 468.06C169.52 466.42 169.92 464.18 172.36 464.54C176.12 465.1 177.48 469.92 172.74 470.86C170.6 471.3 169.36 472.82 169.36 476H169.9C169.9 475.04 170.26 474 171.44 474C172.82 474 173.98 476.14 176.5 476.14C179.46 476.14 180 473.94 180 472.92C180 471.88 179.42 471.18 178.68 470.56L178.32 470.9C178.84 471.28 179 472.5 178 472.5C177.08 472.5 176.26 471.2 174.44 470.98C177.32 470.08 179.68 468.22 178.94 465.48C178.42 463.58 176.64 462.32 174.38 462.32ZM190.12 462.32C186.38 462.32 183.34 465.4 183.34 469.22C183.34 473.04 186.38 476.14 190.12 476.14C193.88 476.14 196.9 473.04 196.9 469.22C196.9 465.4 193.88 462.32 190.12 462.32ZM193.5 474.66C192.36 475.36 189.9 473.52 188.04 470.52C186.18 467.52 185.6 464.52 186.74 463.8C187.9 463.08 190.32 464.94 192.2 467.94C194.06 470.92 194.64 473.94 193.5 474.66ZM200.348 467.7C201.548 467.7 202.828 467.44 204.008 466.94V476H208.388V462.44H207.888C206.968 465.54 203.388 467.18 200.348 467.22V467.7ZM213.695 465.22C213.695 466.94 215.115 468.52 214.915 469.66C214.795 470.24 214.195 470.44 213.395 470.46H213.195V470.94H218.815V476H223.195V470.94H224.675V470.46H223.195V462.44H222.695C222.695 467.04 222.175 470.46 218.815 470.46H217.335C218.475 470.08 219.295 469.42 219.295 468.26C219.295 466.7 217.995 464.98 218.075 463.7C218.115 462.96 218.615 462.74 219.495 462.74V462.28C216.835 462.28 213.695 462.46 213.695 465.22Z" fill="#EA346C"/>
<path d="M376.38 462.32C371.84 462.32 370.36 465.8 372.2 468.32L372.64 468.06C371.52 466.42 371.92 464.18 374.36 464.54C378.12 465.1 379.48 469.92 374.74 470.86C372.6 471.3 371.36 472.82 371.36 476H371.9C371.9 475.04 372.26 474 373.44 474C374.82 474 375.98 476.14 378.5 476.14C381.46 476.14 382 473.94 382 472.92C382 471.88 381.42 471.18 380.68 470.56L380.32 470.9C380.84 471.28 381 472.5 380 472.5C379.08 472.5 378.26 471.2 376.44 470.98C379.32 470.08 381.68 468.22 380.94 465.48C380.42 463.58 378.64 462.32 376.38 462.32ZM392.12 462.32C388.38 462.32 385.34 465.4 385.34 469.22C385.34 473.04 388.38 476.14 392.12 476.14C395.88 476.14 398.9 473.04 398.9 469.22C398.9 465.4 395.88 462.32 392.12 462.32ZM395.5 474.66C394.36 475.36 391.9 473.52 390.04 470.52C388.18 467.52 387.6 464.52 388.74 463.8C389.9 463.08 392.32 464.94 394.2 467.94C396.06 470.92 396.64 473.94 395.5 474.66ZM402.348 467.7C403.548 467.7 404.828 467.44 406.008 466.94V476H410.388V462.44H409.888C408.968 465.54 405.388 467.18 402.348 467.22V467.7ZM419.055 463.54C420.915 463.54 421.375 467.38 424.355 467.38C427.335 467.38 427.955 464.62 427.655 462.42H427.215C427.215 463.3 426.995 463.86 426.015 463.86C425.015 463.86 423.975 462.32 421.995 462.32C416.255 462.32 414.955 466.66 415.255 470.12C415.575 473.66 418.015 476.14 421.775 476.14C425.515 476.14 428.275 474.6 428.275 471.88C428.275 469.14 425.515 467.76 421.775 467.76C419.655 467.76 418.595 468.52 418.255 469.76C417.095 466.66 416.895 463.54 419.055 463.54ZM419.915 473.1C418.335 470.64 418.615 469.2 419.655 468.56C420.795 467.84 422.215 468.54 423.615 470.8C425.035 473.06 425.055 474.62 423.895 475.34C422.755 476.06 421.415 475.44 419.915 473.1Z" fill="#EA346C"/>
<path d="M275.38 462.32C270.84 462.32 269.36 465.8 271.2 468.32L271.64 468.06C270.52 466.42 270.92 464.18 273.36 464.54C277.12 465.1 278.48 469.92 273.74 470.86C271.6 471.3 270.36 472.82 270.36 476H270.9C270.9 475.04 271.26 474 272.44 474C273.82 474 274.98 476.14 277.5 476.14C280.46 476.14 281 473.94 281 472.92C281 471.88 280.42 471.18 279.68 470.56L279.32 470.9C279.84 471.28 280 472.5 279 472.5C278.08 472.5 277.26 471.2 275.44 470.98C278.32 470.08 280.68 468.22 279.94 465.48C279.42 463.58 277.64 462.32 275.38 462.32ZM291.12 462.32C287.38 462.32 284.34 465.4 284.34 469.22C284.34 473.04 287.38 476.14 291.12 476.14C294.88 476.14 297.9 473.04 297.9 469.22C297.9 465.4 294.88 462.32 291.12 462.32ZM294.5 474.66C293.36 475.36 290.9 473.52 289.04 470.52C287.18 467.52 286.6 464.52 287.74 463.8C288.9 463.08 291.32 464.94 293.2 467.94C295.06 470.92 295.64 473.94 294.5 474.66ZM301.348 467.7C302.548 467.7 303.828 467.44 305.008 466.94V476H309.388V462.44H308.888C307.968 465.54 304.388 467.18 301.348 467.22V467.7ZM314.89 470.7C315.15 470.28 316.01 469.44 317.21 469.5C318.51 469.56 319.71 470.2 320.53 471.42C322.33 474.08 320.63 475.68 318.45 475.68C317.07 475.68 315.37 475.14 314.27 474.38L313.97 474.76C315.01 475.56 316.79 476.14 318.69 476.14C322.43 476.14 325.19 474.68 325.19 472.34C325.19 470 322.43 468.64 318.69 468.68C316.55 468.68 315.49 469.42 314.89 470.1C314.95 469.04 315.11 468.12 315.31 467.16C315.43 466.5 315.57 465.82 315.67 465.04C316.19 466.8 317.33 467.5 318.77 467.5C320.35 467.5 321.11 465.96 322.11 465.96C323.09 465.96 323.15 467.16 322.63 467.54L322.99 467.88C323.73 467.26 324.31 466.36 324.31 465.32C324.31 464.3 323.71 462.32 321.55 462.32C319.33 462.32 318.71 464.44 317.33 464.44C315.95 464.44 315.83 463.4 315.83 462.44H315.35V462.72C315.33 464.54 315.07 465.82 314.85 467.08C314.63 468.24 314.43 469.32 314.43 470.7H314.89Z" fill="#EA346C"/>
<path d="M780.38 462.32C775.84 462.32 774.36 465.8 776.2 468.32L776.64 468.06C775.52 466.42 775.92 464.18 778.36 464.54C782.12 465.1 783.48 469.92 778.74 470.86C776.6 471.3 775.36 472.82 775.36 476H775.9C775.9 475.04 776.26 474 777.44 474C778.82 474 779.98 476.14 782.5 476.14C785.46 476.14 786 473.94 786 472.92C786 471.88 785.42 471.18 784.68 470.56L784.32 470.9C784.84 471.28 785 472.5 784 472.5C783.08 472.5 782.26 471.2 780.44 470.98C783.32 470.08 785.68 468.22 784.94 465.48C784.42 463.58 782.64 462.32 780.38 462.32ZM796.12 462.32C792.38 462.32 789.34 465.4 789.34 469.22C789.34 473.04 792.38 476.14 796.12 476.14C799.88 476.14 802.9 473.04 802.9 469.22C802.9 465.4 799.88 462.32 796.12 462.32ZM799.5 474.66C798.36 475.36 795.9 473.52 794.04 470.52C792.18 467.52 791.6 464.52 792.74 463.8C793.9 463.08 796.32 464.94 798.2 467.94C800.06 470.92 800.64 473.94 799.5 474.66ZM812.013 462.32C807.473 462.32 805.993 465.8 807.833 468.32L808.273 468.06C807.153 466.42 807.553 464.18 809.993 464.54C813.753 465.1 815.113 469.92 810.373 470.86C808.233 471.3 806.993 472.82 806.993 476H807.533C807.533 475.04 807.893 474 809.073 474C810.453 474 811.613 476.14 814.133 476.14C817.093 476.14 817.633 473.94 817.633 472.92C817.633 471.88 817.053 471.18 816.313 470.56L815.953 470.9C816.473 471.28 816.633 472.5 815.633 472.5C814.713 472.5 813.893 471.2 812.073 470.98C814.953 470.08 817.313 468.22 816.573 465.48C816.053 463.58 814.273 462.32 812.013 462.32ZM827.753 462.32C824.013 462.32 820.973 465.4 820.973 469.22C820.973 473.04 824.013 476.14 827.753 476.14C831.513 476.14 834.533 473.04 834.533 469.22C834.533 465.4 831.513 462.32 827.753 462.32ZM831.133 474.66C829.993 475.36 827.533 473.52 825.673 470.52C823.813 467.52 823.233 464.52 824.373 463.8C825.533 463.08 827.953 464.94 829.833 467.94C831.693 470.92 832.273 473.94 831.133 474.66Z" fill="#EA346C"/>
<path d="M982.38 462.32C977.84 462.32 976.36 465.8 978.2 468.32L978.64 468.06C977.52 466.42 977.92 464.18 980.36 464.54C984.12 465.1 985.48 469.92 980.74 470.86C978.6 471.3 977.36 472.82 977.36 476H977.9C977.9 475.04 978.26 474 979.44 474C980.82 474 981.98 476.14 984.5 476.14C987.46 476.14 988 473.94 988 472.92C988 471.88 987.42 471.18 986.68 470.56L986.32 470.9C986.84 471.28 987 472.5 986 472.5C985.08 472.5 984.26 471.2 982.44 470.98C985.32 470.08 987.68 468.22 986.94 465.48C986.42 463.58 984.64 462.32 982.38 462.32ZM998.12 462.32C994.38 462.32 991.34 465.4 991.34 469.22C991.34 473.04 994.38 476.14 998.12 476.14C1001.88 476.14 1004.9 473.04 1004.9 469.22C1004.9 465.4 1001.88 462.32 998.12 462.32ZM1001.5 474.66C1000.36 475.36 997.9 473.52 996.04 470.52C994.18 467.52 993.6 464.52 994.74 463.8C995.9 463.08 998.32 464.94 1000.2 467.94C1002.06 470.92 1002.64 473.94 1001.5 474.66ZM1014.01 462.32C1009.47 462.32 1007.99 465.8 1009.83 468.32L1010.27 468.06C1009.15 466.42 1009.55 464.18 1011.99 464.54C1015.75 465.1 1017.11 469.92 1012.37 470.86C1010.23 471.3 1008.99 472.82 1008.99 476H1009.53C1009.53 475.04 1009.89 474 1011.07 474C1012.45 474 1013.61 476.14 1016.13 476.14C1019.09 476.14 1019.63 473.94 1019.63 472.92C1019.63 471.88 1019.05 471.18 1018.31 470.56L1017.95 470.9C1018.47 471.28 1018.63 472.5 1017.63 472.5C1016.71 472.5 1015.89 471.2 1014.07 470.98C1016.95 470.08 1019.31 468.22 1018.57 465.48C1018.05 463.58 1016.27 462.32 1014.01 462.32ZM1029.38 462.32C1024.84 462.32 1023.36 465.8 1025.2 468.32L1025.64 468.06C1024.52 466.42 1024.92 464.18 1027.36 464.54C1031.12 465.1 1032.48 469.92 1027.74 470.86C1025.6 471.3 1024.36 472.82 1024.36 476H1024.9C1024.9 475.04 1025.26 474 1026.44 474C1027.82 474 1028.98 476.14 1031.5 476.14C1034.46 476.14 1035 473.94 1035 472.92C1035 471.88 1034.42 471.18 1033.68 470.56L1033.32 470.9C1033.84 471.28 1034 472.5 1033 472.5C1032.08 472.5 1031.26 471.2 1029.44 470.98C1032.32 470.08 1034.68 468.22 1033.94 465.48C1033.42 463.58 1031.64 462.32 1029.38 462.32Z" fill="#EA346C"/>
<path d="M881.38 462.32C876.84 462.32 875.36 465.8 877.2 468.32L877.64 468.06C876.52 466.42 876.92 464.18 879.36 464.54C883.12 465.1 884.48 469.92 879.74 470.86C877.6 471.3 876.36 472.82 876.36 476H876.9C876.9 475.04 877.26 474 878.44 474C879.82 474 880.98 476.14 883.5 476.14C886.46 476.14 887 473.94 887 472.92C887 471.88 886.42 471.18 885.68 470.56L885.32 470.9C885.84 471.28 886 472.5 885 472.5C884.08 472.5 883.26 471.2 881.44 470.98C884.32 470.08 886.68 468.22 885.94 465.48C885.42 463.58 883.64 462.32 881.38 462.32ZM897.12 462.32C893.38 462.32 890.34 465.4 890.34 469.22C890.34 473.04 893.38 476.14 897.12 476.14C900.88 476.14 903.9 473.04 903.9 469.22C903.9 465.4 900.88 462.32 897.12 462.32ZM900.5 474.66C899.36 475.36 896.9 473.52 895.04 470.52C893.18 467.52 892.6 464.52 893.74 463.8C894.9 463.08 897.32 464.94 899.2 467.94C901.06 470.92 901.64 473.94 900.5 474.66ZM913.013 462.32C908.473 462.32 906.993 465.8 908.833 468.32L909.273 468.06C908.153 466.42 908.553 464.18 910.993 464.54C914.753 465.1 916.113 469.92 911.373 470.86C909.233 471.3 907.993 472.82 907.993 476H908.533C908.533 475.04 908.893 474 910.073 474C911.453 474 912.613 476.14 915.133 476.14C918.093 476.14 918.633 473.94 918.633 472.92C918.633 471.88 918.053 471.18 917.313 470.56L916.953 470.9C917.473 471.28 917.633 472.5 916.633 472.5C915.713 472.5 914.893 471.2 913.073 470.98C915.953 470.08 918.313 468.22 917.573 465.48C917.053 463.58 915.273 462.32 913.013 462.32ZM921.7 467.7C922.9 467.7 924.18 467.44 925.36 466.94V476H929.74V462.44H929.24C928.32 465.54 924.74 467.18 921.7 467.22V467.7Z" fill="#EA346C"/>
<path d="M477.38 462.32C472.84 462.32 471.36 465.8 473.2 468.32L473.64 468.06C472.52 466.42 472.92 464.18 475.36 464.54C479.12 465.1 480.48 469.92 475.74 470.86C473.6 471.3 472.36 472.82 472.36 476H472.9C472.9 475.04 473.26 474 474.44 474C475.82 474 476.98 476.14 479.5 476.14C482.46 476.14 483 473.94 483 472.92C483 471.88 482.42 471.18 481.68 470.56L481.32 470.9C481.84 471.28 482 472.5 481 472.5C480.08 472.5 479.26 471.2 477.44 470.98C480.32 470.08 482.68 468.22 481.94 465.48C481.42 463.58 479.64 462.32 477.38 462.32ZM493.12 462.32C489.38 462.32 486.34 465.4 486.34 469.22C486.34 473.04 489.38 476.14 493.12 476.14C496.88 476.14 499.9 473.04 499.9 469.22C499.9 465.4 496.88 462.32 493.12 462.32ZM496.5 474.66C495.36 475.36 492.9 473.52 491.04 470.52C489.18 467.52 488.6 464.52 489.74 463.8C490.9 463.08 493.32 464.94 495.2 467.94C497.06 470.92 497.64 473.94 496.5 474.66ZM503.348 467.7C504.548 467.7 505.828 467.44 507.008 466.94V476H511.388V462.44H510.888C509.968 465.54 506.388 467.18 503.348 467.22V467.7ZM522.72 476C522.72 472.22 520.86 470.58 523.04 468.84C524.5 467.7 526.44 466.06 526.44 462.44H525.94V462.58C525.9 463.5 525.54 464.44 524.24 464.44C522.86 464.44 522.18 462.32 519.2 462.32C516.5 462.32 516.02 464.5 516.02 465.54C516.02 466.56 516.62 467.26 517.36 467.88L517.72 467.54C517.2 467.16 517.24 465.96 518.24 465.96C519.24 465.96 520.2 467.5 522.2 467.5C522.98 467.5 523.82 467.28 524.52 466.8C523.98 467.48 523.34 468.02 522.76 468.48C520.44 470.3 517.96 472.88 517.96 476H522.72Z" fill="#EA346C"/>
<path d="M679.38 462.32C674.84 462.32 673.36 465.8 675.2 468.32L675.64 468.06C674.52 466.42 674.92 464.18 677.36 464.54C681.12 465.1 682.48 469.92 677.74 470.86C675.6 471.3 674.36 472.82 674.36 476H674.9C674.9 475.04 675.26 474 676.44 474C677.82 474 678.98 476.14 681.5 476.14C684.46 476.14 685 473.94 685 472.92C685 471.88 684.42 471.18 683.68 470.56L683.32 470.9C683.84 471.28 684 472.5 683 472.5C682.08 472.5 681.26 471.2 679.44 470.98C682.32 470.08 684.68 468.22 683.94 465.48C683.42 463.58 681.64 462.32 679.38 462.32ZM695.12 462.32C691.38 462.32 688.34 465.4 688.34 469.22C688.34 473.04 691.38 476.14 695.12 476.14C698.88 476.14 701.9 473.04 701.9 469.22C701.9 465.4 698.88 462.32 695.12 462.32ZM698.5 474.66C697.36 475.36 694.9 473.52 693.04 470.52C691.18 467.52 690.6 464.52 691.74 463.8C692.9 463.08 695.32 464.94 697.2 467.94C699.06 470.92 699.64 473.94 698.5 474.66ZM705.348 467.7C706.548 467.7 707.828 467.44 709.008 466.94V476H713.388V462.44H712.888C711.968 465.54 708.388 467.18 705.348 467.22V467.7ZM727.435 474.92C725.575 474.92 725.115 471.08 722.135 471.08C719.155 471.08 718.535 473.84 718.835 476.02H719.275C719.275 475.14 719.495 474.58 720.495 474.58C721.475 474.58 722.515 476.14 724.495 476.14C730.235 476.14 731.535 471.8 731.235 468.32C730.915 464.8 728.475 462.32 724.715 462.32C720.975 462.32 718.215 463.84 718.215 466.58C718.215 469.3 720.975 470.7 724.715 470.7C726.815 470.7 727.875 469.94 728.235 468.72C729.375 471.8 729.595 474.92 727.435 474.92ZM726.855 469.9C725.695 470.62 724.275 469.92 722.875 467.66C721.455 465.4 721.455 463.82 722.595 463.12C723.735 462.4 725.155 462.96 726.575 465.36C728.075 467.88 727.875 469.26 726.855 469.9Z" fill="#EA346C"/>
<path d="M578.38 462.32C573.84 462.32 572.36 465.8 574.2 468.32L574.64 468.06C573.52 466.42 573.92 464.18 576.36 464.54C580.12 465.1 581.48 469.92 576.74 470.86C574.6 471.3 573.36 472.82 573.36 476H573.9C573.9 475.04 574.26 474 575.44 474C576.82 474 577.98 476.14 580.5 476.14C583.46 476.14 584 473.94 584 472.92C584 471.88 583.42 471.18 582.68 470.56L582.32 470.9C582.84 471.28 583 472.5 582 472.5C581.08 472.5 580.26 471.2 578.44 470.98C581.32 470.08 583.68 468.22 582.94 465.48C582.42 463.58 580.64 462.32 578.38 462.32ZM594.12 462.32C590.38 462.32 587.34 465.4 587.34 469.22C587.34 473.04 590.38 476.14 594.12 476.14C597.88 476.14 600.9 473.04 600.9 469.22C600.9 465.4 597.88 462.32 594.12 462.32ZM597.5 474.66C596.36 475.36 593.9 473.52 592.04 470.52C590.18 467.52 589.6 464.52 590.74 463.8C591.9 463.08 594.32 464.94 596.2 467.94C598.06 470.92 598.64 473.94 597.5 474.66ZM604.348 467.7C605.548 467.7 606.828 467.44 608.008 466.94V476H612.388V462.44H611.888C610.968 465.54 607.388 467.18 604.348 467.22V467.7ZM617.195 472.4C617.195 474.92 619.675 476.14 622.315 476.14C626.075 476.14 628.835 474.78 628.835 472.26C628.835 470.3 627.335 469.06 625.715 468.06C627.035 467.48 627.815 466.54 627.815 465.38C627.815 463.4 626.215 462.32 623.795 462.32C620.055 462.32 618.155 463.54 618.155 466.06C618.155 467.28 618.635 468.22 619.355 469C617.915 469.66 617.195 470.76 617.195 472.4ZM625.275 473.66C625.375 474.44 625.055 475.66 622.535 475.66C620.355 475.66 617.695 474.68 617.695 472.4C617.695 470.68 618.655 469.8 619.695 469.36C621.715 471.24 625.055 472.08 625.275 473.66ZM621.675 464.9C621.455 463.74 621.955 462.76 623.895 462.76C625.735 462.76 627.335 463.64 627.335 465.38C627.335 466.62 626.295 467.34 625.155 467.72C623.495 466.76 621.875 465.98 621.675 464.9Z" fill="#EA346C"/>
<rect x="129" y="53" width="9" height="387" rx="4.5" fill="white"/>
<circle cx="133.5" cy="55.5" r="9.5" fill="#FDFBF5"/>
<circle cx="133.5" cy="176.5" r="5" stroke="#FDFBF5" stroke-width="9"/>
<circle cx="133.5" cy="297.5" r="9.5" fill="#FDFBF5"/>
<circle cx="133.5" cy="430.5" r="9.5" fill="#FDFBF5"/>
<path d="M45.145 58V56.125H40.27V53.665L45.445 46.33H49.105V53.845H50.14V56.125H49.105V58H45.145ZM43.045 53.845H45.145V50.89L43.045 53.845ZM58.905 58.21C57.215 58.21 55.91 57.73 54.99 56.77C54.08 55.81 53.625 54.275 53.625 52.165C53.625 50.055 54.08 48.52 54.99 47.56C55.91 46.6 57.215 46.12 58.905 46.12C60.595 46.12 61.895 46.6 62.805 47.56C63.725 48.52 64.185 50.055 64.185 52.165C64.185 54.115 63.76 55.61 62.91 56.65C62.07 57.69 60.735 58.21 58.905 58.21ZM58.905 55.54C59.585 55.54 59.925 55.17 59.925 54.43V49.9C59.925 49.16 59.585 48.79 58.905 48.79C58.225 48.79 57.885 49.16 57.885 49.9V54.43C57.885 55.17 58.225 55.54 58.905 55.54ZM72.8914 58.21C71.2014 58.21 69.8964 57.73 68.9764 56.77C68.0664 55.81 67.6114 54.275 67.6114 52.165C67.6114 50.055 68.0664 48.52 68.9764 47.56C69.8964 46.6 71.2014 46.12 72.8914 46.12C74.5814 46.12 75.8814 46.6 76.7914 47.56C77.7114 48.52 78.1714 50.055 78.1714 52.165C78.1714 54.115 77.7464 55.61 76.8964 56.65C76.0564 57.69 74.7214 58.21 72.8914 58.21ZM72.8914 55.54C73.5714 55.54 73.9114 55.17 73.9114 54.43V49.9C73.9114 49.16 73.5714 48.79 72.8914 48.79C72.2114 48.79 71.8714 49.16 71.8714 49.9V54.43C71.8714 55.17 72.2114 55.54 72.8914 55.54ZM86.8777 58.21C85.1877 58.21 83.8827 57.73 82.9627 56.77C82.0527 55.81 81.5977 54.275 81.5977 52.165C81.5977 50.055 82.0527 48.52 82.9627 47.56C83.8827 46.6 85.1877 46.12 86.8777 46.12C88.5677 46.12 89.8677 46.6 90.7777 47.56C91.6977 48.52 92.1577 50.055 92.1577 52.165C92.1577 54.115 91.7327 55.61 90.8827 56.65C90.0427 57.69 88.7077 58.21 86.8777 58.21ZM86.8777 55.54C87.5577 55.54 87.8977 55.17 87.8977 54.43V49.9C87.8977 49.16 87.5577 48.79 86.8777 48.79C86.1977 48.79 85.8577 49.16 85.8577 49.9V54.43C85.8577 55.17 86.1977 55.54 86.8777 55.54Z" fill="white"/>
<path d="M47.29 173.045C47.6 173.125 47.895 173.29 48.175 173.54C48.465 173.78 48.7 174.085 48.88 174.455C49.07 174.825 49.165 175.235 49.165 175.685C49.165 176.785 48.77 177.65 47.98 178.28C47.2 178.9 46.04 179.21 44.5 179.21C43.77 179.21 43.04 179.13 42.31 178.97C41.58 178.8 40.93 178.595 40.36 178.355V175.16C40.98 175.43 41.62 175.65 42.28 175.82C42.95 175.99 43.585 176.075 44.185 176.075C44.605 176.075 44.91 176.01 45.1 175.88C45.3 175.75 45.4 175.535 45.4 175.235C45.4 174.655 45.05 174.365 44.35 174.365H43.27V171.905H44.11C44.77 171.905 45.1 171.625 45.1 171.065C45.1 170.525 44.77 170.255 44.11 170.255C43.63 170.255 43.13 170.37 42.61 170.6C42.09 170.82 41.585 171.11 41.095 171.47L40.21 168.275C40.82 167.955 41.515 167.685 42.295 167.465C43.075 167.235 43.86 167.12 44.65 167.12C46.03 167.12 47.09 167.41 47.83 167.99C48.57 168.57 48.94 169.39 48.94 170.45C48.94 171.11 48.785 171.655 48.475 172.085C48.165 172.505 47.77 172.825 47.29 173.045ZM57.8357 179.21C56.1457 179.21 54.8407 178.73 53.9207 177.77C53.0107 176.81 52.5557 175.275 52.5557 173.165C52.5557 171.055 53.0107 169.52 53.9207 168.56C54.8407 167.6 56.1457 167.12 57.8357 167.12C59.5257 167.12 60.8257 167.6 61.7357 168.56C62.6557 169.52 63.1157 171.055 63.1157 173.165C63.1157 175.115 62.6907 176.61 61.8407 177.65C61.0007 178.69 59.6657 179.21 57.8357 179.21ZM57.8357 176.54C58.5157 176.54 58.8557 176.17 58.8557 175.43V170.9C58.8557 170.16 58.5157 169.79 57.8357 169.79C57.1557 169.79 56.8157 170.16 56.8157 170.9V175.43C56.8157 176.17 57.1557 176.54 57.8357 176.54ZM71.822 179.21C70.132 179.21 68.827 178.73 67.907 177.77C66.997 176.81 66.542 175.275 66.542 173.165C66.542 171.055 66.997 169.52 67.907 168.56C68.827 167.6 70.132 167.12 71.822 167.12C73.512 167.12 74.812 167.6 75.722 168.56C76.642 169.52 77.102 171.055 77.102 173.165C77.102 175.115 76.677 176.61 75.827 177.65C74.987 178.69 73.652 179.21 71.822 179.21ZM71.822 176.54C72.502 176.54 72.842 176.17 72.842 175.43V170.9C72.842 170.16 72.502 169.79 71.822 169.79C71.142 169.79 70.802 170.16 70.802 170.9V175.43C70.802 176.17 71.142 176.54 71.822 176.54ZM85.8084 179.21C84.1184 179.21 82.8134 178.73 81.8934 177.77C80.9834 176.81 80.5284 175.275 80.5284 173.165C80.5284 171.055 80.9834 169.52 81.8934 168.56C82.8134 167.6 84.1184 167.12 85.8084 167.12C87.4984 167.12 88.7984 167.6 89.7084 168.56C90.6284 169.52 91.0884 171.055 91.0884 173.165C91.0884 175.115 90.6634 176.61 89.8134 177.65C88.9734 178.69 87.6384 179.21 85.8084 179.21ZM85.8084 176.54C86.4884 176.54 86.8284 176.17 86.8284 175.43V170.9C86.8284 170.16 86.4884 169.79 85.8084 169.79C85.1284 169.79 84.7884 170.16 84.7884 170.9V175.43C84.7884 176.17 85.1284 176.54 85.8084 176.54Z" fill="white"/>
<path d="M40.18 298.71C40.18 297.85 40.305 297.09 40.555 296.43C40.815 295.77 41.235 295.15 41.815 294.57C42.395 293.98 43.195 293.37 44.215 292.74C44.515 292.55 44.725 292.39 44.845 292.26C44.975 292.12 45.04 291.955 45.04 291.765C45.04 291.355 44.745 291.15 44.155 291.15C43.715 291.15 43.21 291.265 42.64 291.495C42.07 291.725 41.555 292.015 41.095 292.365L40.21 289.17C40.85 288.85 41.585 288.58 42.415 288.36C43.245 288.13 44.08 288.015 44.92 288.015C46.3 288.015 47.37 288.32 48.13 288.93C48.89 289.54 49.27 290.405 49.27 291.525C49.27 292.125 49.135 292.655 48.865 293.115C48.605 293.565 48.285 293.945 47.905 294.255C47.535 294.565 47.05 294.92 46.45 295.32C45.78 295.76 45.285 296.14 44.965 296.46C44.655 296.77 44.5 297.13 44.5 297.54H46.315V296.685H49.39V300H40.18V298.71ZM58.2312 300.21C56.5412 300.21 55.2362 299.73 54.3162 298.77C53.4062 297.81 52.9512 296.275 52.9512 294.165C52.9512 292.055 53.4062 290.52 54.3162 289.56C55.2362 288.6 56.5412 288.12 58.2312 288.12C59.9212 288.12 61.2212 288.6 62.1312 289.56C63.0512 290.52 63.5112 292.055 63.5112 294.165C63.5112 296.115 63.0862 297.61 62.2362 298.65C61.3962 299.69 60.0612 300.21 58.2312 300.21ZM58.2312 297.54C58.9112 297.54 59.2512 297.17 59.2512 296.43V291.9C59.2512 291.16 58.9112 290.79 58.2312 290.79C57.5512 290.79 57.2112 291.16 57.2112 291.9V296.43C57.2112 297.17 57.5512 297.54 58.2312 297.54ZM72.2175 300.21C70.5275 300.21 69.2225 299.73 68.3025 298.77C67.3925 297.81 66.9375 296.275 66.9375 294.165C66.9375 292.055 67.3925 290.52 68.3025 289.56C69.2225 288.6 70.5275 288.12 72.2175 288.12C73.9075 288.12 75.2075 288.6 76.1175 289.56C77.0375 290.52 77.4975 292.055 77.4975 294.165C77.4975 296.115 77.0725 297.61 76.2225 298.65C75.3825 299.69 74.0475 300.21 72.2175 300.21ZM72.2175 297.54C72.8975 297.54 73.2375 297.17 73.2375 296.43V291.9C73.2375 291.16 72.8975 290.79 72.2175 290.79C71.5375 290.79 71.1975 291.16 71.1975 291.9V296.43C71.1975 297.17 71.5375 297.54 72.2175 297.54ZM86.2039 300.21C84.5139 300.21 83.2089 299.73 82.2889 298.77C81.3789 297.81 80.9239 296.275 80.9239 294.165C80.9239 292.055 81.3789 290.52 82.2889 289.56C83.2089 288.6 84.5139 288.12 86.2039 288.12C87.8939 288.12 89.1939 288.6 90.1039 289.56C91.0239 290.52 91.4839 292.055 91.4839 294.165C91.4839 296.115 91.0589 297.61 90.2089 298.65C89.3689 299.69 88.0339 300.21 86.2039 300.21ZM86.2039 297.54C86.8839 297.54 87.2239 297.17 87.2239 296.43V291.9C87.2239 291.16 86.8839 290.79 86.2039 290.79C85.5239 290.79 85.1839 291.16 85.1839 291.9V296.43C85.1839 297.17 85.5239 297.54 86.2039 297.54Z" fill="white"/>
<path d="M52.856 434.224C51.0533 434.224 49.6613 433.712 48.68 432.688C47.7093 431.664 47.224 430.027 47.224 427.776C47.224 425.525 47.7093 423.888 48.68 422.864C49.6613 421.84 51.0533 421.328 52.856 421.328C54.6587 421.328 56.0453 421.84 57.016 422.864C57.9973 423.888 58.488 425.525 58.488 427.776C58.488 429.856 58.0347 431.451 57.128 432.56C56.232 433.669 54.808 434.224 52.856 434.224ZM52.856 431.376C53.5813 431.376 53.944 430.981 53.944 430.192V425.36C53.944 424.571 53.5813 424.176 52.856 424.176C52.1307 424.176 51.768 424.571 51.768 425.36V430.192C51.768 430.981 52.1307 431.376 52.856 431.376Z" fill="white"/>
</svg>
