<svg fill="none" height="431" viewBox="0 0 1009 431" width="1009" xmlns="http://www.w3.org/2000/svg"><g fill="#9cfff8"><path d="m201 352h-81v41h81z"/><path d="m302 338h-81v55h81z"/><path d="m403 328h-81v65h81z"/><path d="m504 283h-81v110h81z"/><path d="m605 193h-81v200h81z"/><path d="m706 123h-81v270h81z"/><path d="m807 223h-81v170h81z"/><path d="m908 293h-81v100h81z"/><path d="m1009 334h-81v59h81z"/></g><g fill="#ea346c"><path d="m134.38 416.32c-4.54 0-6.02 3.48-4.18 6l.44-.26c-1.12-1.64-.72-3.88 1.72-3.52 3.76.56 5.12 5.38.38 6.32-2.14.44-3.38 1.96-3.38 5.14h.54c0-.96.36-2 1.54-2 1.38 0 2.54 2.14 5.06 2.14 2.96 0 3.5-2.2 3.5-3.22 0-1.04-.58-1.74-1.32-2.36l-.36.34c.52.38.68 1.6-.32 1.6-.92 0-1.74-1.3-3.56-1.52 2.88-.9 5.24-2.76 4.5-5.5-.52-1.9-2.3-3.16-4.56-3.16zm15.74 0c-3.74 0-6.78 3.08-6.78 6.9s3.04 6.92 6.78 6.92c3.76 0 6.78-3.1 6.78-6.92s-3.02-6.9-6.78-6.9zm3.38 12.34c-1.14.7-3.6-1.14-5.46-4.14s-2.44-6-1.3-6.72c1.16-.72 3.58 1.14 5.46 4.14 1.86 2.98 2.44 6 1.3 6.72zm6.848-6.96c1.2 0 2.48-.26 3.66-.76v9.06h4.38v-13.56h-.5c-.92 3.1-4.5 4.74-7.54 4.78zm13.347-2.48c0 1.72 1.42 3.3 1.22 4.44-.12.58-.72.78-1.52.8h-.2v.48h5.62v5.06h4.38v-5.06h1.48v-.48h-1.48v-8.02h-.5c0 4.6-.52 8.02-3.88 8.02h-1.48c1.14-.38 1.96-1.04 1.96-2.2 0-1.56-1.3-3.28-1.22-4.56.04-.74.54-.96 1.42-.96v-.46c-2.66 0-5.8.18-5.8 2.94z"/><path d="m336.38 416.32c-4.54 0-6.02 3.48-4.18 6l.44-.26c-1.12-1.64-.72-3.88 1.72-3.52 3.76.56 5.12 5.38.38 6.32-2.14.44-3.38 1.96-3.38 5.14h.54c0-.96.36-2 1.54-2 1.38 0 2.54 2.14 5.06 2.14 2.96 0 3.5-2.2 3.5-3.22 0-1.04-.58-1.74-1.32-2.36l-.36.34c.52.38.68 1.6-.32 1.6-.92 0-1.74-1.3-3.56-1.52 2.88-.9 5.24-2.76 4.5-5.5-.52-1.9-2.3-3.16-4.56-3.16zm15.74 0c-3.74 0-6.78 3.08-6.78 6.9s3.04 6.92 6.78 6.92c3.76 0 6.78-3.1 6.78-6.92s-3.02-6.9-6.78-6.9zm3.38 12.34c-1.14.7-3.6-1.14-5.46-4.14s-2.44-6-1.3-6.72c1.16-.72 3.58 1.14 5.46 4.14 1.86 2.98 2.44 6 1.3 6.72zm6.848-6.96c1.2 0 2.48-.26 3.66-.76v9.06h4.38v-13.56h-.5c-.92 3.1-4.5 4.74-7.54 4.78zm16.707-4.16c1.86 0 2.32 3.84 5.3 3.84s3.6-2.76 3.3-4.96h-.44c0 .88-.22 1.44-1.2 1.44-1 0-2.04-1.54-4.02-1.54-5.74 0-7.04 4.34-6.74 7.8.32 3.54 2.76 6.02 6.52 6.02 3.74 0 6.5-1.54 6.5-4.26 0-2.74-2.76-4.12-6.5-4.12-2.12 0-3.18.76-3.52 2-1.16-3.1-1.36-6.22.8-6.22zm.86 9.56c-1.58-2.46-1.3-3.9-.26-4.54 1.14-.72 2.56-.02 3.96 2.24 1.42 2.26 1.44 3.82.28 4.54-1.14.72-2.48.1-3.98-2.24z"/><path d="m235.38 416.32c-4.54 0-6.02 3.48-4.18 6l.44-.26c-1.12-1.64-.72-3.88 1.72-3.52 3.76.56 5.12 5.38.38 6.32-2.14.44-3.38 1.96-3.38 5.14h.54c0-.96.36-2 1.54-2 1.38 0 2.54 2.14 5.06 2.14 2.96 0 3.5-2.2 3.5-3.22 0-1.04-.58-1.74-1.32-2.36l-.36.34c.52.38.68 1.6-.32 1.6-.92 0-1.74-1.3-3.56-1.52 2.88-.9 5.24-2.76 4.5-5.5-.52-1.9-2.3-3.16-4.56-3.16zm15.74 0c-3.74 0-6.78 3.08-6.78 6.9s3.04 6.92 6.78 6.92c3.76 0 6.78-3.1 6.78-6.92s-3.02-6.9-6.78-6.9zm3.38 12.34c-1.14.7-3.6-1.14-5.46-4.14s-2.44-6-1.3-6.72c1.16-.72 3.58 1.14 5.46 4.14 1.86 2.98 2.44 6 1.3 6.72zm6.848-6.96c1.2 0 2.48-.26 3.66-.76v9.06h4.38v-13.56h-.5c-.92 3.1-4.5 4.74-7.54 4.78zm13.542 3c.26-.42 1.12-1.26 2.32-1.2 1.3.06 2.5.7 3.32 1.92 1.8 2.66.1 4.26-2.08 4.26-1.38 0-3.08-.54-4.18-1.3l-.3.38c1.04.8 2.82 1.38 4.72 1.38 3.74 0 6.5-1.46 6.5-3.8s-2.76-3.7-6.5-3.66c-2.14 0-3.2.74-3.8 1.42.06-1.06.22-1.98.42-2.94.12-.66.26-1.34.36-2.12.52 1.76 1.66 2.46 3.1 2.46 1.58 0 2.34-1.54 3.34-1.54.98 0 1.04 1.2.52 1.58l.36.34c.74-.62 1.32-1.52 1.32-2.56 0-1.02-.6-3-2.76-3-2.22 0-2.84 2.12-4.22 2.12s-1.5-1.04-1.5-2h-.48v.28c-.02 1.82-.28 3.1-.5 4.36-.22 1.16-.42 2.24-.42 3.62z"/><path d="m740.38 416.32c-4.54 0-6.02 3.48-4.18 6l.44-.26c-1.12-1.64-.72-3.88 1.72-3.52 3.76.56 5.12 5.38.38 6.32-2.14.44-3.38 1.96-3.38 5.14h.54c0-.96.36-2 1.54-2 1.38 0 2.54 2.14 5.06 2.14 2.96 0 3.5-2.2 3.5-3.22 0-1.04-.58-1.74-1.32-2.36l-.36.34c.52.38.68 1.6-.32 1.6-.92 0-1.74-1.3-3.56-1.52 2.88-.9 5.24-2.76 4.5-5.5-.52-1.9-2.3-3.16-4.56-3.16zm15.74 0c-3.74 0-6.78 3.08-6.78 6.9s3.04 6.92 6.78 6.92c3.76 0 6.78-3.1 6.78-6.92s-3.02-6.9-6.78-6.9zm3.38 12.34c-1.14.7-3.6-1.14-5.46-4.14s-2.44-6-1.3-6.72c1.16-.72 3.58 1.14 5.46 4.14 1.86 2.98 2.44 6 1.3 6.72zm12.513-12.34c-4.54 0-6.02 3.48-4.18 6l.44-.26c-1.12-1.64-.72-3.88 1.72-3.52 3.76.56 5.12 5.38.38 6.32-2.14.44-3.38 1.96-3.38 5.14h.54c0-.96.36-2 1.54-2 1.38 0 2.54 2.14 5.06 2.14 2.96 0 3.5-2.2 3.5-3.22 0-1.04-.58-1.74-1.32-2.36l-.36.34c.52.38.68 1.6-.32 1.6-.92 0-1.74-1.3-3.56-1.52 2.88-.9 5.24-2.76 4.5-5.5-.52-1.9-2.3-3.16-4.56-3.16zm15.74 0c-3.74 0-6.78 3.08-6.78 6.9s3.04 6.92 6.78 6.92c3.76 0 6.78-3.1 6.78-6.92s-3.02-6.9-6.78-6.9zm3.38 12.34c-1.14.7-3.6-1.14-5.46-4.14s-2.44-6-1.3-6.72c1.16-.72 3.58 1.14 5.46 4.14 1.86 2.98 2.44 6 1.3 6.72z"/><path d="m942.38 416.32c-4.54 0-6.02 3.48-4.18 6l.44-.26c-1.12-1.64-.72-3.88 1.72-3.52 3.76.56 5.12 5.38.38 6.32-2.14.44-3.38 1.96-3.38 5.14h.54c0-.96.36-2 1.54-2 1.38 0 2.54 2.14 5.06 2.14 2.96 0 3.5-2.2 3.5-3.22 0-1.04-.58-1.74-1.32-2.36l-.36.34c.52.38.68 1.6-.32 1.6-.92 0-1.74-1.3-3.56-1.52 2.88-.9 5.24-2.76 4.5-5.5-.52-1.9-2.3-3.16-4.56-3.16zm15.74 0c-3.74 0-6.78 3.08-6.78 6.9s3.04 6.92 6.78 6.92c3.76 0 6.78-3.1 6.78-6.92s-3.02-6.9-6.78-6.9zm3.38 12.34c-1.14.7-3.6-1.14-5.46-4.14s-2.44-6-1.3-6.72c1.16-.72 3.58 1.14 5.46 4.14 1.86 2.98 2.44 6 1.3 6.72zm12.51-12.34c-4.54 0-6.02 3.48-4.18 6l.44-.26c-1.12-1.64-.72-3.88 1.72-3.52 3.76.56 5.12 5.38.38 6.32-2.14.44-3.38 1.96-3.38 5.14h.54c0-.96.36-2 1.54-2 1.38 0 2.54 2.14 5.06 2.14 2.96 0 3.5-2.2 3.5-3.22 0-1.04-.58-1.74-1.32-2.36l-.36.34c.52.38.68 1.6-.32 1.6-.92 0-1.74-1.3-3.56-1.52 2.88-.9 5.24-2.76 4.5-5.5-.52-1.9-2.3-3.16-4.56-3.16zm15.37 0c-4.54 0-6.02 3.48-4.18 6l.44-.26c-1.12-1.64-.72-3.88 1.72-3.52 3.76.56 5.12 5.38.38 6.32-2.14.44-3.38 1.96-3.38 5.14h.54c0-.96.36-2 1.54-2 1.38 0 2.54 2.14 5.06 2.14 2.96 0 3.5-2.2 3.5-3.22 0-1.04-.58-1.74-1.32-2.36l-.36.34c.52.38.68 1.6-.32 1.6-.92 0-1.74-1.3-3.56-1.52 2.88-.9 5.24-2.76 4.5-5.5-.52-1.9-2.3-3.16-4.56-3.16z"/><path d="m841.38 416.32c-4.54 0-6.02 3.48-4.18 6l.44-.26c-1.12-1.64-.72-3.88 1.72-3.52 3.76.56 5.12 5.38.38 6.32-2.14.44-3.38 1.96-3.38 5.14h.54c0-.96.36-2 1.54-2 1.38 0 2.54 2.14 5.06 2.14 2.96 0 3.5-2.2 3.5-3.22 0-1.04-.58-1.74-1.32-2.36l-.36.34c.52.38.68 1.6-.32 1.6-.92 0-1.74-1.3-3.56-1.52 2.88-.9 5.24-2.76 4.5-5.5-.52-1.9-2.3-3.16-4.56-3.16zm15.74 0c-3.74 0-6.78 3.08-6.78 6.9s3.04 6.92 6.78 6.92c3.76 0 6.78-3.1 6.78-6.92s-3.02-6.9-6.78-6.9zm3.38 12.34c-1.14.7-3.6-1.14-5.46-4.14s-2.44-6-1.3-6.72c1.16-.72 3.58 1.14 5.46 4.14 1.86 2.98 2.44 6 1.3 6.72zm12.51-12.34c-4.54 0-6.02 3.48-4.18 6l.44-.26c-1.12-1.64-.72-3.88 1.72-3.52 3.76.56 5.12 5.38.38 6.32-2.14.44-3.38 1.96-3.38 5.14h.54c0-.96.36-2 1.54-2 1.38 0 2.54 2.14 5.06 2.14 2.96 0 3.5-2.2 3.5-3.22 0-1.04-.58-1.74-1.32-2.36l-.36.34c.52.38.68 1.6-.32 1.6-.92 0-1.74-1.3-3.56-1.52 2.88-.9 5.24-2.76 4.5-5.5-.52-1.9-2.3-3.16-4.56-3.16zm8.69 5.38c1.2 0 2.48-.26 3.66-.76v9.06h4.38v-13.56h-.5c-.92 3.1-4.5 4.74-7.54 4.78z"/><path d="m437.38 416.32c-4.54 0-6.02 3.48-4.18 6l.44-.26c-1.12-1.64-.72-3.88 1.72-3.52 3.76.56 5.12 5.38.38 6.32-2.14.44-3.38 1.96-3.38 5.14h.54c0-.96.36-2 1.54-2 1.38 0 2.54 2.14 5.06 2.14 2.96 0 3.5-2.2 3.5-3.22 0-1.04-.58-1.74-1.32-2.36l-.36.34c.52.38.68 1.6-.32 1.6-.92 0-1.74-1.3-3.56-1.52 2.88-.9 5.24-2.76 4.5-5.5-.52-1.9-2.3-3.16-4.56-3.16zm15.74 0c-3.74 0-6.78 3.08-6.78 6.9s3.04 6.92 6.78 6.92c3.76 0 6.78-3.1 6.78-6.92s-3.02-6.9-6.78-6.9zm3.38 12.34c-1.14.7-3.6-1.14-5.46-4.14s-2.44-6-1.3-6.72c1.16-.72 3.58 1.14 5.46 4.14 1.86 2.98 2.44 6 1.3 6.72zm6.848-6.96c1.2 0 2.48-.26 3.66-.76v9.06h4.38v-13.56h-.5c-.92 3.1-4.5 4.74-7.54 4.78zm19.372 8.3c0-3.78-1.86-5.42.32-7.16 1.46-1.14 3.4-2.78 3.4-6.4h-.5v.14c-.04.92-.4 1.86-1.7 1.86-1.38 0-2.06-2.12-5.04-2.12-2.7 0-3.18 2.18-3.18 3.22 0 1.02.6 1.72 1.34 2.34l.36-.34c-.52-.38-.48-1.58.52-1.58s1.96 1.54 3.96 1.54c.78 0 1.62-.22 2.32-.7-.54.68-1.18 1.22-1.76 1.68-2.32 1.82-4.8 4.4-4.8 7.52z"/><path d="m639.38 416.32c-4.54 0-6.02 3.48-4.18 6l.44-.26c-1.12-1.64-.72-3.88 1.72-3.52 3.76.56 5.12 5.38.38 6.32-2.14.44-3.38 1.96-3.38 5.14h.54c0-.96.36-2 1.54-2 1.38 0 2.54 2.14 5.06 2.14 2.96 0 3.5-2.2 3.5-3.22 0-1.04-.58-1.74-1.32-2.36l-.36.34c.52.38.68 1.6-.32 1.6-.92 0-1.74-1.3-3.56-1.52 2.88-.9 5.24-2.76 4.5-5.5-.52-1.9-2.3-3.16-4.56-3.16zm15.74 0c-3.74 0-6.78 3.08-6.78 6.9s3.04 6.92 6.78 6.92c3.76 0 6.78-3.1 6.78-6.92s-3.02-6.9-6.78-6.9zm3.38 12.34c-1.14.7-3.6-1.14-5.46-4.14s-2.44-6-1.3-6.72c1.16-.72 3.58 1.14 5.46 4.14 1.86 2.98 2.44 6 1.3 6.72zm6.848-6.96c1.2 0 2.48-.26 3.66-.76v9.06h4.38v-13.56h-.5c-.92 3.1-4.5 4.74-7.54 4.78zm22.087 7.22c-1.86 0-2.32-3.84-5.3-3.84s-3.6 2.76-3.3 4.94h.44c0-.88.22-1.44 1.22-1.44.98 0 2.02 1.56 4 1.56 5.74 0 7.04-4.34 6.74-7.82-.32-3.52-2.76-6-6.52-6-3.74 0-6.5 1.52-6.5 4.26 0 2.72 2.76 4.12 6.5 4.12 2.1 0 3.16-.76 3.52-1.98 1.14 3.08 1.36 6.2-.8 6.2zm-.58-5.02c-1.16.72-2.58.02-3.98-2.24-1.42-2.26-1.42-3.84-.28-4.54 1.14-.72 2.56-.16 3.98 2.24 1.5 2.52 1.3 3.9.28 4.54z"/><path d="m538.38 416.32c-4.54 0-6.02 3.48-4.18 6l.44-.26c-1.12-1.64-.72-3.88 1.72-3.52 3.76.56 5.12 5.38.38 6.32-2.14.44-3.38 1.96-3.38 5.14h.54c0-.96.36-2 1.54-2 1.38 0 2.54 2.14 5.06 2.14 2.96 0 3.5-2.2 3.5-3.22 0-1.04-.58-1.74-1.32-2.36l-.36.34c.52.38.68 1.6-.32 1.6-.92 0-1.74-1.3-3.56-1.52 2.88-.9 5.24-2.76 4.5-5.5-.52-1.9-2.3-3.16-4.56-3.16zm15.74 0c-3.74 0-6.78 3.08-6.78 6.9s3.04 6.92 6.78 6.92c3.76 0 6.78-3.1 6.78-6.92s-3.02-6.9-6.78-6.9zm3.38 12.34c-1.14.7-3.6-1.14-5.46-4.14s-2.44-6-1.3-6.72c1.16-.72 3.58 1.14 5.46 4.14 1.86 2.98 2.44 6 1.3 6.72zm6.848-6.96c1.2 0 2.48-.26 3.66-.76v9.06h4.38v-13.56h-.5c-.92 3.1-4.5 4.74-7.54 4.78zm12.847 4.7c0 2.52 2.48 3.74 5.12 3.74 3.76 0 6.52-1.36 6.52-3.88 0-1.96-1.5-3.2-3.12-4.2 1.32-.58 2.1-1.52 2.1-2.68 0-1.98-1.6-3.06-4.02-3.06-3.74 0-5.64 1.22-5.64 3.74 0 1.22.48 2.16 1.2 2.94-1.44.66-2.16 1.76-2.16 3.4zm8.08 1.26c.1.78-.22 2-2.74 2-2.18 0-4.84-.98-4.84-3.26 0-1.72.96-2.6 2-3.04 2.02 1.88 5.36 2.72 5.58 4.3zm-3.6-8.76c-.22-1.16.28-2.14 2.22-2.14 1.84 0 3.44.88 3.44 2.62 0 1.24-1.04 1.96-2.18 2.34-1.66-.96-3.28-1.74-3.48-2.82z"/></g><path d="m98 11.5c0-2.48528-2.0147-4.5-4.5-4.5s-4.5 2.01472-4.5 4.5v378c0 2.485 2.0147 4.5 4.5 4.5s4.5-2.015 4.5-4.5z" fill="#fff"/><path d="m93.5 19c5.2467 0 9.5-4.2533 9.5-9.5 0-5.24671-4.2533-9.5-9.5-9.5s-9.5 4.25329-9.5 9.5c0 5.2467 4.2533 9.5 9.5 9.5z" fill="#fdfbf5"/><path d="m93.5 135.5c2.7614 0 5-2.239 5-5s-2.2386-5-5-5-5 2.239-5 5 2.2386 5 5 5z" stroke="#fdfbf5" stroke-width="9"/><path d="m93.5 261c5.2467 0 9.5-4.253 9.5-9.5s-4.2533-9.5-9.5-9.5-9.5 4.253-9.5 9.5 4.2533 9.5 9.5 9.5z" fill="#fdfbf5"/><path d="m93.5 394c5.2467 0 9.5-4.253 9.5-9.5s-4.2533-9.5-9.5-9.5-9.5 4.253-9.5 9.5 4.2533 9.5 9.5 9.5z" fill="#fdfbf5"/><path d="m.179688 10.7101c0-.85999.125-1.61999.375-2.27999.259999-.66.680012-1.27998 1.260012-1.85998.58-.59 1.37999-1.20002 2.39999-1.83002.3-.19.51001-.34998.63001-.47998.13-.14.19499-.30499.19499-.49499 0-.41-.295-.61502-.885-.61502-.44 0-.945.115-1.515.345s-1.08499.51999-1.54499.86999l-.884998-3.19497c.64-.320004 1.374988-.590033 2.204988-.810033.83-.23 1.665-.3449703 2.505-.3449703 1.38 0 2.45001.3049783 3.21001.9149783.76.609995 1.14 1.475005 1.14 2.595005 0 .6-.135 1.12999-.405 1.58999-.26.45-.58001.83002-.96001 1.14002-.37.31-.855.665-1.455 1.065-.67.44-1.165.81998-1.485 1.13998-.31.31-.465.67002-.465 1.08002h1.81501v-.85501h3.07499v3.31498h-9.210002zm18.051012 1.5c-1.69 0-2.995-.48-3.915-1.44-.91-.95999-1.365-2.49497-1.365-4.60497s.455-3.64501 1.365-4.60501c.92-.96 2.225-1.440003 3.915-1.440003s2.99.480003 3.9 1.440003c.92.96 1.38 2.49501 1.38 4.60501 0 1.95-.425 3.44499-1.275 4.48497-.84 1.04-2.175 1.56-4.005 1.56zm0-2.66997c.68 0 1.02-.37002 1.02-1.11002v-4.52999c0-.74-.34-1.10999-1.02-1.10999s-1.02.36999-1.02 1.10999v4.52999c0 .74.34 1.11002 1.02 1.11002zm13.987 2.66997c-1.69 0-2.995-.48-3.915-1.44-.91-.95999-1.365-2.49497-1.365-4.60497s.455-3.64501 1.365-4.60501c.92-.96 2.225-1.440003 3.915-1.440003s2.99.480003 3.9 1.440003c.92.96 1.38 2.49501 1.38 4.60501 0 1.95-.425 3.44499-1.275 4.48497-.84 1.04-2.175 1.56-4.005 1.56zm0-2.66997c.68 0 1.02-.37002 1.02-1.11002v-4.52999c0-.74-.34-1.10999-1.02-1.10999s-1.02.36999-1.02 1.10999v4.52999c0 .74.34 1.11002 1.02 1.11002zm13.986 2.66997c-1.69 0-2.995-.48-3.915-1.44-.91-.95999-1.365-2.49497-1.365-4.60497s.455-3.64501 1.365-4.60501c.92-.96 2.225-1.440003 3.915-1.440003s2.99.480003 3.9 1.440003c.92.96 1.38 2.49501 1.38 4.60501 0 1.95-.425 3.44499-1.275 4.48497-.84 1.04-2.175 1.56-4.005 1.56zm0-2.66997c.68 0 1.02-.37002 1.02-1.11002v-4.52999c0-.74-.34-1.10999-1.02-1.10999s-1.02.36999-1.02 1.10999v4.52999c0 .74.34 1.11002 1.02 1.11002z" fill="#fff"/><path d="m.659958 133v-2.46h1.440002v-6.75h-1.889999v-1.695l3.329989-.765h2.52v9.21h1.26001v2.46zm16.282042-7.71c1.12 0 1.975.33 2.565.99s.885 1.555.885 2.685c0 .85-.195 1.595-.585 2.235-.38.64-.95 1.135-1.71 1.485s-1.68.525-2.76.525c-.73 0-1.46-.08-2.19-.24-.73-.17-1.38-.375-1.95-.615v-3.195c1.3.61 2.48.915 3.54.915.55 0 .9599-.11 1.2299-.33.27-.23.405-.585.405-1.065 0-.35-.0799-.625-.2399-.825s-.415-.3-.765-.3c-.27 0-.49.07-.66.21-.16.13-.29.32-.39.57h-3.15l.645-7.005h7.98v2.91h-4.98l-.135 1.545c.63-.33 1.385-.495 2.265-.495zm12.155 7.92c-1.69 0-2.995-.48-3.915-1.44-.91-.96-1.365-2.495-1.365-4.605s.455-3.645 1.365-4.605c.92-.96 2.225-1.44 3.915-1.44s2.9899.48 3.8999 1.44c.92.96 1.3801 2.495 1.3801 4.605 0 1.95-.425 3.445-1.275 4.485-.84 1.04-2.175 1.56-4.005 1.56zm0-2.67c.68 0 1.02-.37 1.02-1.11v-4.53c0-.74-.34-1.11-1.02-1.11s-1.02.37-1.02 1.11v4.53c0 .74.34 1.11 1.02 1.11zm13.987 2.67c-1.69 0-2.995-.48-3.915-1.44-.91-.96-1.365-2.495-1.365-4.605s.455-3.645 1.365-4.605c.92-.96 2.225-1.44 3.915-1.44s2.9899.48 3.8999 1.44c.92.96 1.3801 2.495 1.3801 4.605 0 1.95-.425 3.445-1.275 4.485-.84 1.04-2.175 1.56-4.005 1.56zm0-2.67c.68 0 1.02-.37 1.02-1.11v-4.53c0-.74-.34-1.11-1.02-1.11s-1.0201.37-1.0201 1.11v4.53c0 .74.3401 1.11 1.0201 1.11z" fill="#fff"/><path d="m.659958 254v-2.46h1.440002v-6.75h-1.889999v-1.695l3.329989-.765h2.52v9.21h1.26001v2.46zm15.667042.21c-1.6901 0-2.995-.48-3.915-1.44-.91-.96-1.365-2.495-1.365-4.605s.455-3.645 1.365-4.605c.92-.96 2.2249-1.44 3.915-1.44 1.69 0 2.99.48 3.9 1.44.92.96 1.3799 2.495 1.3799 4.605 0 1.95-.4249 3.445-1.2749 4.485-.84 1.04-2.1751 1.56-4.005 1.56zm0-2.67c.68 0 1.02-.37 1.02-1.11v-4.53c0-.74-.34-1.11-1.02-1.11-.6801 0-1.02.37-1.02 1.11v4.53c0 .74.3399 1.11 1.02 1.11zm13.986 2.67c-1.69 0-2.9951-.48-3.9151-1.44-.91-.96-1.3649-2.495-1.3649-4.605s.4549-3.645 1.3649-4.605c.92-.96 2.2251-1.44 3.9151-1.44s2.99.48 3.9 1.44c.9199.96 1.38 2.495 1.38 4.605 0 1.95-.4251 3.445-1.2751 4.485-.84 1.04-2.1749 1.56-4.0049 1.56zm0-2.67c.68 0 1.0199-.37 1.0199-1.11v-4.53c0-.74-.3399-1.11-1.0199-1.11s-1.02.37-1.02 1.11v4.53c0 .74.34 1.11 1.02 1.11zm13.987 2.67c-1.69 0-2.9951-.48-3.9151-1.44-.91-.96-1.3649-2.495-1.3649-4.605s.4549-3.645 1.3649-4.605c.92-.96 2.2251-1.44 3.9151-1.44s2.99.48 3.9 1.44c.9199.96 1.38 2.495 1.38 4.605 0 1.95-.4251 3.445-1.2751 4.485-.84 1.04-2.1749 1.56-4.0049 1.56zm0-2.67c.68 0 1.02-.37 1.02-1.11v-4.53c0-.74-.34-1.11-1.02-1.11s-1.02.37-1.02 1.11v4.53c0 .74.34 1.11 1.02 1.11z" fill="#fff"/><path d="m12.8556 388.224c-1.803 0-3.19497-.512-4.17597-1.536-.971-1.024-1.456-2.661-1.456-4.912s.485-3.888 1.456-4.912c.981-1.024 2.37297-1.536 4.17597-1.536s3.189.512 4.16 1.536c.981 1.024 1.472 2.661 1.472 4.912 0 2.08-.453 3.675-1.36 4.784-.896 1.109-2.32 1.664-4.272 1.664zm0-2.848c.725 0 1.088-.395 1.088-1.184v-4.832c0-.789-.363-1.184-1.088-1.184s-1.088.395-1.088 1.184v4.832c0 .789.363 1.184 1.088 1.184z" fill="#fff"/></svg>