<svg width="1009" height="431" viewBox="0 0 1009 431" fill="none" xmlns="http://www.w3.org/2000/svg">
<path d="M201 352H120V393H201V352Z" fill="#9CFFF8"/>
<path d="M302 338H221V393H302V338Z" fill="#9CFFF8"/>
<path d="M403 328H322V393H403V328Z" fill="#9CFFF8"/>
<path d="M504 283H423V393H504V283Z" fill="#9CFFF8"/>
<path d="M605 193H524V393H605V193Z" fill="#9CFFF8"/>
<path d="M706 123H625V393H706V123Z" fill="#9CFFF8"/>
<path d="M807 223H726V393H807V223Z" fill="#9CFFF8"/>
<path d="M908 293H827V393H908V293Z" fill="#9CFFF8"/>
<path d="M1009 334H928V393H1009V334Z" fill="#9CFFF8"/>
<path d="M134.38 416.32C129.84 416.32 128.36 419.8 130.2 422.32L130.64 422.06C129.52 420.42 129.92 418.18 132.36 418.54C136.12 419.1 137.48 423.92 132.74 424.86C130.6 425.3 129.36 426.82 129.36 430H129.9C129.9 429.04 130.26 428 131.44 428C132.82 428 133.98 430.14 136.5 430.14C139.46 430.14 140 427.94 140 426.92C140 425.88 139.42 425.18 138.68 424.56L138.32 424.9C138.84 425.28 139 426.5 138 426.5C137.08 426.5 136.26 425.2 134.44 424.98C137.32 424.08 139.68 422.22 138.94 419.48C138.42 417.58 136.64 416.32 134.38 416.32ZM150.12 416.32C146.38 416.32 143.34 419.4 143.34 423.22C143.34 427.04 146.38 430.14 150.12 430.14C153.88 430.14 156.9 427.04 156.9 423.22C156.9 419.4 153.88 416.32 150.12 416.32ZM153.5 428.66C152.36 429.36 149.9 427.52 148.04 424.52C146.18 421.52 145.6 418.52 146.74 417.8C147.9 417.08 150.32 418.94 152.2 421.94C154.06 424.92 154.64 427.94 153.5 428.66ZM160.348 421.7C161.548 421.7 162.828 421.44 164.008 420.94V430H168.388V416.44H167.888C166.968 419.54 163.388 421.18 160.348 421.22V421.7ZM173.695 419.22C173.695 420.94 175.115 422.52 174.915 423.66C174.795 424.24 174.195 424.44 173.395 424.46H173.195V424.94H178.815V430H183.195V424.94H184.675V424.46H183.195V416.44H182.695C182.695 421.04 182.175 424.46 178.815 424.46H177.335C178.475 424.08 179.295 423.42 179.295 422.26C179.295 420.7 177.995 418.98 178.075 417.7C178.115 416.96 178.615 416.74 179.495 416.74V416.28C176.835 416.28 173.695 416.46 173.695 419.22Z" fill="#EA346C"/>
<path d="M336.38 416.32C331.84 416.32 330.36 419.8 332.2 422.32L332.64 422.06C331.52 420.42 331.92 418.18 334.36 418.54C338.12 419.1 339.48 423.92 334.74 424.86C332.6 425.3 331.36 426.82 331.36 430H331.9C331.9 429.04 332.26 428 333.44 428C334.82 428 335.98 430.14 338.5 430.14C341.46 430.14 342 427.94 342 426.92C342 425.88 341.42 425.18 340.68 424.56L340.32 424.9C340.84 425.28 341 426.5 340 426.5C339.08 426.5 338.26 425.2 336.44 424.98C339.32 424.08 341.68 422.22 340.94 419.48C340.42 417.58 338.64 416.32 336.38 416.32ZM352.12 416.32C348.38 416.32 345.34 419.4 345.34 423.22C345.34 427.04 348.38 430.14 352.12 430.14C355.88 430.14 358.9 427.04 358.9 423.22C358.9 419.4 355.88 416.32 352.12 416.32ZM355.5 428.66C354.36 429.36 351.9 427.52 350.04 424.52C348.18 421.52 347.6 418.52 348.74 417.8C349.9 417.08 352.32 418.94 354.2 421.94C356.06 424.92 356.64 427.94 355.5 428.66ZM362.348 421.7C363.548 421.7 364.828 421.44 366.008 420.94V430H370.388V416.44H369.888C368.968 419.54 365.388 421.18 362.348 421.22V421.7ZM379.055 417.54C380.915 417.54 381.375 421.38 384.355 421.38C387.335 421.38 387.955 418.62 387.655 416.42H387.215C387.215 417.3 386.995 417.86 386.015 417.86C385.015 417.86 383.975 416.32 381.995 416.32C376.255 416.32 374.955 420.66 375.255 424.12C375.575 427.66 378.015 430.14 381.775 430.14C385.515 430.14 388.275 428.6 388.275 425.88C388.275 423.14 385.515 421.76 381.775 421.76C379.655 421.76 378.595 422.52 378.255 423.76C377.095 420.66 376.895 417.54 379.055 417.54ZM379.915 427.1C378.335 424.64 378.615 423.2 379.655 422.56C380.795 421.84 382.215 422.54 383.615 424.8C385.035 427.06 385.055 428.62 383.895 429.34C382.755 430.06 381.415 429.44 379.915 427.1Z" fill="#EA346C"/>
<path d="M235.38 416.32C230.84 416.32 229.36 419.8 231.2 422.32L231.64 422.06C230.52 420.42 230.92 418.18 233.36 418.54C237.12 419.1 238.48 423.92 233.74 424.86C231.6 425.3 230.36 426.82 230.36 430H230.9C230.9 429.04 231.26 428 232.44 428C233.82 428 234.98 430.14 237.5 430.14C240.46 430.14 241 427.94 241 426.92C241 425.88 240.42 425.18 239.68 424.56L239.32 424.9C239.84 425.28 240 426.5 239 426.5C238.08 426.5 237.26 425.2 235.44 424.98C238.32 424.08 240.68 422.22 239.94 419.48C239.42 417.58 237.64 416.32 235.38 416.32ZM251.12 416.32C247.38 416.32 244.34 419.4 244.34 423.22C244.34 427.04 247.38 430.14 251.12 430.14C254.88 430.14 257.9 427.04 257.9 423.22C257.9 419.4 254.88 416.32 251.12 416.32ZM254.5 428.66C253.36 429.36 250.9 427.52 249.04 424.52C247.18 421.52 246.6 418.52 247.74 417.8C248.9 417.08 251.32 418.94 253.2 421.94C255.06 424.92 255.64 427.94 254.5 428.66ZM261.348 421.7C262.548 421.7 263.828 421.44 265.008 420.94V430H269.388V416.44H268.888C267.968 419.54 264.388 421.18 261.348 421.22V421.7ZM274.89 424.7C275.15 424.28 276.01 423.44 277.21 423.5C278.51 423.56 279.71 424.2 280.53 425.42C282.33 428.08 280.63 429.68 278.45 429.68C277.07 429.68 275.37 429.14 274.27 428.38L273.97 428.76C275.01 429.56 276.79 430.14 278.69 430.14C282.43 430.14 285.19 428.68 285.19 426.34C285.19 424 282.43 422.64 278.69 422.68C276.55 422.68 275.49 423.42 274.89 424.1C274.95 423.04 275.11 422.12 275.31 421.16C275.43 420.5 275.57 419.82 275.67 419.04C276.19 420.8 277.33 421.5 278.77 421.5C280.35 421.5 281.11 419.96 282.11 419.96C283.09 419.96 283.15 421.16 282.63 421.54L282.99 421.88C283.73 421.26 284.31 420.36 284.31 419.32C284.31 418.3 283.71 416.32 281.55 416.32C279.33 416.32 278.71 418.44 277.33 418.44C275.95 418.44 275.83 417.4 275.83 416.44H275.35V416.72C275.33 418.54 275.07 419.82 274.85 421.08C274.63 422.24 274.43 423.32 274.43 424.7H274.89Z" fill="#EA346C"/>
<path d="M740.38 416.32C735.84 416.32 734.36 419.8 736.2 422.32L736.64 422.06C735.52 420.42 735.92 418.18 738.36 418.54C742.12 419.1 743.48 423.92 738.74 424.86C736.6 425.3 735.36 426.82 735.36 430H735.9C735.9 429.04 736.26 428 737.44 428C738.82 428 739.98 430.14 742.5 430.14C745.46 430.14 746 427.94 746 426.92C746 425.88 745.42 425.18 744.68 424.56L744.32 424.9C744.84 425.28 745 426.5 744 426.5C743.08 426.5 742.26 425.2 740.44 424.98C743.32 424.08 745.68 422.22 744.94 419.48C744.42 417.58 742.64 416.32 740.38 416.32ZM756.12 416.32C752.38 416.32 749.34 419.4 749.34 423.22C749.34 427.04 752.38 430.14 756.12 430.14C759.88 430.14 762.9 427.04 762.9 423.22C762.9 419.4 759.88 416.32 756.12 416.32ZM759.5 428.66C758.36 429.36 755.9 427.52 754.04 424.52C752.18 421.52 751.6 418.52 752.74 417.8C753.9 417.08 756.32 418.94 758.2 421.94C760.06 424.92 760.64 427.94 759.5 428.66ZM772.013 416.32C767.473 416.32 765.993 419.8 767.833 422.32L768.273 422.06C767.153 420.42 767.553 418.18 769.993 418.54C773.753 419.1 775.113 423.92 770.373 424.86C768.233 425.3 766.993 426.82 766.993 430H767.533C767.533 429.04 767.893 428 769.073 428C770.453 428 771.613 430.14 774.133 430.14C777.093 430.14 777.633 427.94 777.633 426.92C777.633 425.88 777.053 425.18 776.313 424.56L775.953 424.9C776.473 425.28 776.633 426.5 775.633 426.5C774.713 426.5 773.893 425.2 772.073 424.98C774.953 424.08 777.313 422.22 776.573 419.48C776.053 417.58 774.273 416.32 772.013 416.32ZM787.753 416.32C784.013 416.32 780.973 419.4 780.973 423.22C780.973 427.04 784.013 430.14 787.753 430.14C791.513 430.14 794.533 427.04 794.533 423.22C794.533 419.4 791.513 416.32 787.753 416.32ZM791.133 428.66C789.993 429.36 787.533 427.52 785.673 424.52C783.813 421.52 783.233 418.52 784.373 417.8C785.533 417.08 787.953 418.94 789.833 421.94C791.693 424.92 792.273 427.94 791.133 428.66Z" fill="#EA346C"/>
<path d="M942.38 416.32C937.84 416.32 936.36 419.8 938.2 422.32L938.64 422.06C937.52 420.42 937.92 418.18 940.36 418.54C944.12 419.1 945.48 423.92 940.74 424.86C938.6 425.3 937.36 426.82 937.36 430H937.9C937.9 429.04 938.26 428 939.44 428C940.82 428 941.98 430.14 944.5 430.14C947.46 430.14 948 427.94 948 426.92C948 425.88 947.42 425.18 946.68 424.56L946.32 424.9C946.84 425.28 947 426.5 946 426.5C945.08 426.5 944.26 425.2 942.44 424.98C945.32 424.08 947.68 422.22 946.94 419.48C946.42 417.58 944.64 416.32 942.38 416.32ZM958.12 416.32C954.38 416.32 951.34 419.4 951.34 423.22C951.34 427.04 954.38 430.14 958.12 430.14C961.88 430.14 964.9 427.04 964.9 423.22C964.9 419.4 961.88 416.32 958.12 416.32ZM961.5 428.66C960.36 429.36 957.9 427.52 956.04 424.52C954.18 421.52 953.6 418.52 954.74 417.8C955.9 417.08 958.32 418.94 960.2 421.94C962.06 424.92 962.64 427.94 961.5 428.66ZM974.01 416.32C969.47 416.32 967.99 419.8 969.83 422.32L970.27 422.06C969.15 420.42 969.55 418.18 971.99 418.54C975.75 419.1 977.11 423.92 972.37 424.86C970.23 425.3 968.99 426.82 968.99 430H969.53C969.53 429.04 969.89 428 971.07 428C972.45 428 973.61 430.14 976.13 430.14C979.09 430.14 979.63 427.94 979.63 426.92C979.63 425.88 979.05 425.18 978.31 424.56L977.95 424.9C978.47 425.28 978.63 426.5 977.63 426.5C976.71 426.5 975.89 425.2 974.07 424.98C976.95 424.08 979.31 422.22 978.57 419.48C978.05 417.58 976.27 416.32 974.01 416.32ZM989.38 416.32C984.84 416.32 983.36 419.8 985.2 422.32L985.64 422.06C984.52 420.42 984.92 418.18 987.36 418.54C991.12 419.1 992.48 423.92 987.74 424.86C985.6 425.3 984.36 426.82 984.36 430H984.9C984.9 429.04 985.26 428 986.44 428C987.82 428 988.98 430.14 991.5 430.14C994.46 430.14 995 427.94 995 426.92C995 425.88 994.42 425.18 993.68 424.56L993.32 424.9C993.84 425.28 994 426.5 993 426.5C992.08 426.5 991.26 425.2 989.44 424.98C992.32 424.08 994.68 422.22 993.94 419.48C993.42 417.58 991.64 416.32 989.38 416.32Z" fill="#EA346C"/>
<path d="M841.38 416.32C836.84 416.32 835.36 419.8 837.2 422.32L837.64 422.06C836.52 420.42 836.92 418.18 839.36 418.54C843.12 419.1 844.48 423.92 839.74 424.86C837.6 425.3 836.36 426.82 836.36 430H836.9C836.9 429.04 837.26 428 838.44 428C839.82 428 840.98 430.14 843.5 430.14C846.46 430.14 847 427.94 847 426.92C847 425.88 846.42 425.18 845.68 424.56L845.32 424.9C845.84 425.28 846 426.5 845 426.5C844.08 426.5 843.26 425.2 841.44 424.98C844.32 424.08 846.68 422.22 845.94 419.48C845.42 417.58 843.64 416.32 841.38 416.32ZM857.12 416.32C853.38 416.32 850.34 419.4 850.34 423.22C850.34 427.04 853.38 430.14 857.12 430.14C860.88 430.14 863.9 427.04 863.9 423.22C863.9 419.4 860.88 416.32 857.12 416.32ZM860.5 428.66C859.36 429.36 856.9 427.52 855.04 424.52C853.18 421.52 852.6 418.52 853.74 417.8C854.9 417.08 857.32 418.94 859.2 421.94C861.06 424.92 861.64 427.94 860.5 428.66ZM873.01 416.32C868.47 416.32 866.99 419.8 868.83 422.32L869.27 422.06C868.15 420.42 868.55 418.18 870.99 418.54C874.75 419.1 876.11 423.92 871.37 424.86C869.23 425.3 867.99 426.82 867.99 430H868.53C868.53 429.04 868.89 428 870.07 428C871.45 428 872.61 430.14 875.13 430.14C878.09 430.14 878.63 427.94 878.63 426.92C878.63 425.88 878.05 425.18 877.31 424.56L876.95 424.9C877.47 425.28 877.63 426.5 876.63 426.5C875.71 426.5 874.89 425.2 873.07 424.98C875.95 424.08 878.31 422.22 877.57 419.48C877.05 417.58 875.27 416.32 873.01 416.32ZM881.7 421.7C882.9 421.7 884.18 421.44 885.36 420.94V430H889.74V416.44H889.24C888.32 419.54 884.74 421.18 881.7 421.22V421.7Z" fill="#EA346C"/>
<path d="M437.38 416.32C432.84 416.32 431.36 419.8 433.2 422.32L433.64 422.06C432.52 420.42 432.92 418.18 435.36 418.54C439.12 419.1 440.48 423.92 435.74 424.86C433.6 425.3 432.36 426.82 432.36 430H432.9C432.9 429.04 433.26 428 434.44 428C435.82 428 436.98 430.14 439.5 430.14C442.46 430.14 443 427.94 443 426.92C443 425.88 442.42 425.18 441.68 424.56L441.32 424.9C441.84 425.28 442 426.5 441 426.5C440.08 426.5 439.26 425.2 437.44 424.98C440.32 424.08 442.68 422.22 441.94 419.48C441.42 417.58 439.64 416.32 437.38 416.32ZM453.12 416.32C449.38 416.32 446.34 419.4 446.34 423.22C446.34 427.04 449.38 430.14 453.12 430.14C456.88 430.14 459.9 427.04 459.9 423.22C459.9 419.4 456.88 416.32 453.12 416.32ZM456.5 428.66C455.36 429.36 452.9 427.52 451.04 424.52C449.18 421.52 448.6 418.52 449.74 417.8C450.9 417.08 453.32 418.94 455.2 421.94C457.06 424.92 457.64 427.94 456.5 428.66ZM463.348 421.7C464.548 421.7 465.828 421.44 467.008 420.94V430H471.388V416.44H470.888C469.968 419.54 466.388 421.18 463.348 421.22V421.7ZM482.72 430C482.72 426.22 480.86 424.58 483.04 422.84C484.5 421.7 486.44 420.06 486.44 416.44H485.94V416.58C485.9 417.5 485.54 418.44 484.24 418.44C482.86 418.44 482.18 416.32 479.2 416.32C476.5 416.32 476.02 418.5 476.02 419.54C476.02 420.56 476.62 421.26 477.36 421.88L477.72 421.54C477.2 421.16 477.24 419.96 478.24 419.96C479.24 419.96 480.2 421.5 482.2 421.5C482.98 421.5 483.82 421.28 484.52 420.8C483.98 421.48 483.34 422.02 482.76 422.48C480.44 424.3 477.96 426.88 477.96 430H482.72Z" fill="#EA346C"/>
<path d="M639.38 416.32C634.84 416.32 633.36 419.8 635.2 422.32L635.64 422.06C634.52 420.42 634.92 418.18 637.36 418.54C641.12 419.1 642.48 423.92 637.74 424.86C635.6 425.3 634.36 426.82 634.36 430H634.9C634.9 429.04 635.26 428 636.44 428C637.82 428 638.98 430.14 641.5 430.14C644.46 430.14 645 427.94 645 426.92C645 425.88 644.42 425.18 643.68 424.56L643.32 424.9C643.84 425.28 644 426.5 643 426.5C642.08 426.5 641.26 425.2 639.44 424.98C642.32 424.08 644.68 422.22 643.94 419.48C643.42 417.58 641.64 416.32 639.38 416.32ZM655.12 416.32C651.38 416.32 648.34 419.4 648.34 423.22C648.34 427.04 651.38 430.14 655.12 430.14C658.88 430.14 661.9 427.04 661.9 423.22C661.9 419.4 658.88 416.32 655.12 416.32ZM658.5 428.66C657.36 429.36 654.9 427.52 653.04 424.52C651.18 421.52 650.6 418.52 651.74 417.8C652.9 417.08 655.32 418.94 657.2 421.94C659.06 424.92 659.64 427.94 658.5 428.66ZM665.348 421.7C666.548 421.7 667.828 421.44 669.008 420.94V430H673.388V416.44H672.888C671.968 419.54 668.388 421.18 665.348 421.22V421.7ZM687.435 428.92C685.575 428.92 685.115 425.08 682.135 425.08C679.155 425.08 678.535 427.84 678.835 430.02H679.275C679.275 429.14 679.495 428.58 680.495 428.58C681.475 428.58 682.515 430.14 684.495 430.14C690.235 430.14 691.535 425.8 691.235 422.32C690.915 418.8 688.475 416.32 684.715 416.32C680.975 416.32 678.215 417.84 678.215 420.58C678.215 423.3 680.975 424.7 684.715 424.7C686.815 424.7 687.875 423.94 688.235 422.72C689.375 425.8 689.595 428.92 687.435 428.92ZM686.855 423.9C685.695 424.62 684.275 423.92 682.875 421.66C681.455 419.4 681.455 417.82 682.595 417.12C683.735 416.4 685.155 416.96 686.575 419.36C688.075 421.88 687.875 423.26 686.855 423.9Z" fill="#EA346C"/>
<path d="M538.38 416.32C533.84 416.32 532.36 419.8 534.2 422.32L534.64 422.06C533.52 420.42 533.92 418.18 536.36 418.54C540.12 419.1 541.48 423.92 536.74 424.86C534.6 425.3 533.36 426.82 533.36 430H533.9C533.9 429.04 534.26 428 535.44 428C536.82 428 537.98 430.14 540.5 430.14C543.46 430.14 544 427.94 544 426.92C544 425.88 543.42 425.18 542.68 424.56L542.32 424.9C542.84 425.28 543 426.5 542 426.5C541.08 426.5 540.26 425.2 538.44 424.98C541.32 424.08 543.68 422.22 542.94 419.48C542.42 417.58 540.64 416.32 538.38 416.32ZM554.12 416.32C550.38 416.32 547.34 419.4 547.34 423.22C547.34 427.04 550.38 430.14 554.12 430.14C557.88 430.14 560.9 427.04 560.9 423.22C560.9 419.4 557.88 416.32 554.12 416.32ZM557.5 428.66C556.36 429.36 553.9 427.52 552.04 424.52C550.18 421.52 549.6 418.52 550.74 417.8C551.9 417.08 554.32 418.94 556.2 421.94C558.06 424.92 558.64 427.94 557.5 428.66ZM564.348 421.7C565.548 421.7 566.828 421.44 568.008 420.94V430H572.388V416.44H571.888C570.968 419.54 567.388 421.18 564.348 421.22V421.7ZM577.195 426.4C577.195 428.92 579.675 430.14 582.315 430.14C586.075 430.14 588.835 428.78 588.835 426.26C588.835 424.3 587.335 423.06 585.715 422.06C587.035 421.48 587.815 420.54 587.815 419.38C587.815 417.4 586.215 416.32 583.795 416.32C580.055 416.32 578.155 417.54 578.155 420.06C578.155 421.28 578.635 422.22 579.355 423C577.915 423.66 577.195 424.76 577.195 426.4ZM585.275 427.66C585.375 428.44 585.055 429.66 582.535 429.66C580.355 429.66 577.695 428.68 577.695 426.4C577.695 424.68 578.655 423.8 579.695 423.36C581.715 425.24 585.055 426.08 585.275 427.66ZM581.675 418.9C581.455 417.74 581.955 416.76 583.895 416.76C585.735 416.76 587.335 417.64 587.335 419.38C587.335 420.62 586.295 421.34 585.155 421.72C583.495 420.76 581.875 419.98 581.675 418.9Z" fill="#EA346C"/>
<path d="M98 11.5C98 9.01472 95.9853 7 93.5 7C91.0147 7 89 9.01472 89 11.5V389.5C89 391.985 91.0147 394 93.5 394C95.9853 394 98 391.985 98 389.5V11.5Z" fill="white"/>
<path d="M93.5 19C98.7467 19 103 14.7467 103 9.5C103 4.25329 98.7467 0 93.5 0C88.2533 0 84 4.25329 84 9.5C84 14.7467 88.2533 19 93.5 19Z" fill="#FDFBF5"/>
<path d="M93.5 135.5C96.2614 135.5 98.5 133.261 98.5 130.5C98.5 127.739 96.2614 125.5 93.5 125.5C90.7386 125.5 88.5 127.739 88.5 130.5C88.5 133.261 90.7386 135.5 93.5 135.5Z" stroke="#FDFBF5" stroke-width="9"/>
<path d="M93.5 261C98.7467 261 103 256.747 103 251.5C103 246.253 98.7467 242 93.5 242C88.2533 242 84 246.253 84 251.5C84 256.747 88.2533 261 93.5 261Z" fill="#FDFBF5"/>
<path d="M93.5 394C98.7467 394 103 389.747 103 384.5C103 379.253 98.7467 375 93.5 375C88.2533 375 84 379.253 84 384.5C84 389.747 88.2533 394 93.5 394Z" fill="#FDFBF5"/>
<path d="M0.179688 10.7101C0.179688 9.85011 0.304688 9.09011 0.554688 8.43011C0.814687 7.77011 1.2347 7.15013 1.8147 6.57013C2.3947 5.98013 3.19469 5.37011 4.21469 4.74011C4.51469 4.55011 4.7247 4.39013 4.8447 4.26013C4.9747 4.12013 5.03969 3.95514 5.03969 3.76514C5.03969 3.35514 4.74469 3.15012 4.15469 3.15012C3.71469 3.15012 3.20969 3.26512 2.63969 3.49512C2.06969 3.72512 1.5547 4.01511 1.0947 4.36511L0.209702 1.17014C0.849702 0.850136 1.58469 0.580107 2.41469 0.360107C3.24469 0.130107 4.07969 0.0151367 4.91969 0.0151367C6.29969 0.0151367 7.3697 0.320115 8.1297 0.930115C8.8897 1.54011 9.2697 2.40512 9.2697 3.52512C9.2697 4.12512 9.1347 4.65511 8.8647 5.11511C8.6047 5.56511 8.28469 5.94513 7.90469 6.25513C7.53469 6.56513 7.04969 6.92013 6.44969 7.32013C5.77969 7.76013 5.28469 8.14011 4.96469 8.46011C4.65469 8.77011 4.49969 9.13013 4.49969 9.54013H6.3147V8.68512H9.38969V12.0001H0.179688V10.7101ZM18.2307 12.2101C16.5407 12.2101 15.2357 11.7301 14.3157 10.7701C13.4057 9.81011 12.9507 8.27513 12.9507 6.16513C12.9507 4.05513 13.4057 2.52012 14.3157 1.56012C15.2357 0.60012 16.5407 0.120117 18.2307 0.120117C19.9207 0.120117 21.2207 0.60012 22.1307 1.56012C23.0507 2.52012 23.5107 4.05513 23.5107 6.16513C23.5107 8.11513 23.0857 9.61012 22.2357 10.6501C21.3957 11.6901 20.0607 12.2101 18.2307 12.2101ZM18.2307 9.54013C18.9107 9.54013 19.2507 9.17011 19.2507 8.43011V3.90012C19.2507 3.16012 18.9107 2.79013 18.2307 2.79013C17.5507 2.79013 17.2107 3.16012 17.2107 3.90012V8.43011C17.2107 9.17011 17.5507 9.54013 18.2307 9.54013ZM32.2177 12.2101C30.5277 12.2101 29.2227 11.7301 28.3027 10.7701C27.3927 9.81011 26.9377 8.27513 26.9377 6.16513C26.9377 4.05513 27.3927 2.52012 28.3027 1.56012C29.2227 0.60012 30.5277 0.120117 32.2177 0.120117C33.9077 0.120117 35.2077 0.60012 36.1177 1.56012C37.0377 2.52012 37.4977 4.05513 37.4977 6.16513C37.4977 8.11513 37.0727 9.61012 36.2227 10.6501C35.3827 11.6901 34.0477 12.2101 32.2177 12.2101ZM32.2177 9.54013C32.8977 9.54013 33.2377 9.17011 33.2377 8.43011V3.90012C33.2377 3.16012 32.8977 2.79013 32.2177 2.79013C31.5377 2.79013 31.1977 3.16012 31.1977 3.90012V8.43011C31.1977 9.17011 31.5377 9.54013 32.2177 9.54013ZM46.2037 12.2101C44.5137 12.2101 43.2087 11.7301 42.2887 10.7701C41.3787 9.81011 40.9237 8.27513 40.9237 6.16513C40.9237 4.05513 41.3787 2.52012 42.2887 1.56012C43.2087 0.60012 44.5137 0.120117 46.2037 0.120117C47.8937 0.120117 49.1937 0.60012 50.1037 1.56012C51.0237 2.52012 51.4837 4.05513 51.4837 6.16513C51.4837 8.11513 51.0587 9.61012 50.2087 10.6501C49.3687 11.6901 48.0337 12.2101 46.2037 12.2101ZM46.2037 9.54013C46.8837 9.54013 47.2237 9.17011 47.2237 8.43011V3.90012C47.2237 3.16012 46.8837 2.79013 46.2037 2.79013C45.5237 2.79013 45.1837 3.16012 45.1837 3.90012V8.43011C45.1837 9.17011 45.5237 9.54013 46.2037 9.54013Z" fill="white"/>
<path d="M0.659958 133V130.54H2.09996V123.79H0.209961V122.095L3.53995 121.33H6.05995V130.54H7.31996V133H0.659958ZM16.942 125.29C18.062 125.29 18.917 125.62 19.507 126.28C20.097 126.94 20.392 127.835 20.392 128.965C20.392 129.815 20.197 130.56 19.807 131.2C19.427 131.84 18.857 132.335 18.097 132.685C17.337 133.035 16.417 133.21 15.337 133.21C14.607 133.21 13.877 133.13 13.147 132.97C12.417 132.8 11.767 132.595 11.197 132.355V129.16C12.497 129.77 13.677 130.075 14.737 130.075C15.287 130.075 15.6969 129.965 15.9669 129.745C16.2369 129.515 16.3719 129.16 16.3719 128.68C16.3719 128.33 16.292 128.055 16.132 127.855C15.972 127.655 15.717 127.555 15.367 127.555C15.097 127.555 14.877 127.625 14.707 127.765C14.547 127.895 14.417 128.085 14.317 128.335H11.167L11.812 121.33H19.792V124.24H14.812L14.677 125.785C15.307 125.455 16.062 125.29 16.942 125.29ZM29.097 133.21C27.407 133.21 26.102 132.73 25.182 131.77C24.272 130.81 23.817 129.275 23.817 127.165C23.817 125.055 24.272 123.52 25.182 122.56C26.102 121.6 27.407 121.12 29.097 121.12C30.787 121.12 32.0869 121.6 32.9969 122.56C33.9169 123.52 34.377 125.055 34.377 127.165C34.377 129.115 33.952 130.61 33.102 131.65C32.262 132.69 30.927 133.21 29.097 133.21ZM29.097 130.54C29.777 130.54 30.117 130.17 30.117 129.43V124.9C30.117 124.16 29.777 123.79 29.097 123.79C28.417 123.79 28.077 124.16 28.077 124.9V129.43C28.077 130.17 28.417 130.54 29.097 130.54ZM43.084 133.21C41.394 133.21 40.089 132.73 39.169 131.77C38.259 130.81 37.804 129.275 37.804 127.165C37.804 125.055 38.259 123.52 39.169 122.56C40.089 121.6 41.394 121.12 43.084 121.12C44.774 121.12 46.0739 121.6 46.9839 122.56C47.9039 123.52 48.364 125.055 48.364 127.165C48.364 129.115 47.939 130.61 47.089 131.65C46.249 132.69 44.914 133.21 43.084 133.21ZM43.084 130.54C43.764 130.54 44.104 130.17 44.104 129.43V124.9C44.104 124.16 43.764 123.79 43.084 123.79C42.404 123.79 42.0639 124.16 42.0639 124.9V129.43C42.0639 130.17 42.404 130.54 43.084 130.54Z" fill="white"/>
<path d="M0.659958 254V251.54H2.09996V244.79H0.209961V243.095L3.53995 242.33H6.05995V251.54H7.31996V254H0.659958ZM16.327 254.21C14.6369 254.21 13.332 253.73 12.412 252.77C11.502 251.81 11.047 250.275 11.047 248.165C11.047 246.055 11.502 244.52 12.412 243.56C13.332 242.6 14.6369 242.12 16.327 242.12C18.017 242.12 19.317 242.6 20.227 243.56C21.147 244.52 21.6069 246.055 21.6069 248.165C21.6069 250.115 21.182 251.61 20.332 252.65C19.492 253.69 18.1569 254.21 16.327 254.21ZM16.327 251.54C17.007 251.54 17.347 251.17 17.347 250.43V245.9C17.347 245.16 17.007 244.79 16.327 244.79C15.6469 244.79 15.307 245.16 15.307 245.9V250.43C15.307 251.17 15.6469 251.54 16.327 251.54ZM30.313 254.21C28.623 254.21 27.3179 253.73 26.3979 252.77C25.4879 251.81 25.033 250.275 25.033 248.165C25.033 246.055 25.4879 244.52 26.3979 243.56C27.3179 242.6 28.623 242.12 30.313 242.12C32.003 242.12 33.303 242.6 34.213 243.56C35.1329 244.52 35.593 246.055 35.593 248.165C35.593 250.115 35.1679 251.61 34.3179 252.65C33.4779 253.69 32.143 254.21 30.313 254.21ZM30.313 251.54C30.993 251.54 31.3329 251.17 31.3329 250.43V245.9C31.3329 245.16 30.993 244.79 30.313 244.79C29.633 244.79 29.293 245.16 29.293 245.9V250.43C29.293 251.17 29.633 251.54 30.313 251.54ZM44.3 254.21C42.61 254.21 41.3049 253.73 40.3849 252.77C39.4749 251.81 39.02 250.275 39.02 248.165C39.02 246.055 39.4749 244.52 40.3849 243.56C41.3049 242.6 42.61 242.12 44.3 242.12C45.99 242.12 47.29 242.6 48.2 243.56C49.1199 244.52 49.58 246.055 49.58 248.165C49.58 250.115 49.1549 251.61 48.3049 252.65C47.4649 253.69 46.13 254.21 44.3 254.21ZM44.3 251.54C44.98 251.54 45.32 251.17 45.32 250.43V245.9C45.32 245.16 44.98 244.79 44.3 244.79C43.62 244.79 43.28 245.16 43.28 245.9V250.43C43.28 251.17 43.62 251.54 44.3 251.54Z" fill="white"/>
<path d="M12.8556 388.224C11.0526 388.224 9.66063 387.712 8.67963 386.688C7.70863 385.664 7.22363 384.027 7.22363 381.776C7.22363 379.525 7.70863 377.888 8.67963 376.864C9.66063 375.84 11.0526 375.328 12.8556 375.328C14.6586 375.328 16.0446 375.84 17.0156 376.864C17.9966 377.888 18.4876 379.525 18.4876 381.776C18.4876 383.856 18.0346 385.451 17.1276 386.56C16.2316 387.669 14.8076 388.224 12.8556 388.224ZM12.8556 385.376C13.5806 385.376 13.9436 384.981 13.9436 384.192V379.36C13.9436 378.571 13.5806 378.176 12.8556 378.176C12.1306 378.176 11.7676 378.571 11.7676 379.36V384.192C11.7676 384.981 12.1306 385.376 12.8556 385.376Z" fill="white"/>
</svg>
