<svg fill="none" height="295" viewBox="0 0 209 295" width="209" xmlns="http://www.w3.org/2000/svg"><path clip-rule="evenodd" d="m154.931 1.58067.361.36023v.36022-.36022h-.361v.36022h-.36v.36023.36022.36023h-.36-.36v-.36023-.36022-.36023h-.36v-.36022l-.361-.36023.361-.36022v-.360225h.72v-.360225h.36.36.361v.360225h.36v.360225.36022l.36.36023h.36v.36022h-.36v-.36022h-.36-.36v-.36023h-.361l-.36-.36022z" fill="#fdfbf5" fill-rule="evenodd"/><path d="m154.931 1.58067.361.36023m-.361-.36023h.361v.36023m-.361-.36023-.36-.36022m.721.72045v.36022m0-.36022h-.361m.361 0h.36m-.721 0v.36022m0 0h-.36m0 0v.36023m0 0v.36022.36023h-.36m0 0h-.36m0 0v-.36023m0 0v-.36022-.36023h-.36v-.36022l-.361-.36023.361-.36022v-.360225h.72v-.360225h.36.36m0 0h.361v.360225h.36m0 0v.360225m0 0v.36022m0 0 .36.36023m0 0h.36m-.36 0v.36022h.36v-.36022m-.36 0h-.36" stroke="#1e1d3d"/><path clip-rule="evenodd" d="m158.894 1.9403h-.36-.361v-.36022.36022-.36022h.361.36.36.36.36v.36022.36023-.36023h-.36v.36023h-.36v-.36023z" fill="#fdfbf5" fill-rule="evenodd"/><path d="m158.894 1.9403h-.36m.36 0h.36v.36023h.36v-.36023h.36m-1.44 0h-.361v-.36022m0 0h.361.36m0 0h.36.36m0 0h.36v.36022m0 0v.36023" stroke="#1e1d3d"/><path clip-rule="evenodd" d="m98.376 14.5476h.3602v-.3602l.3602-.3602v-.3602l.3603-.3602.3602-.3603v-.3602h.3601v-.3602h.36v-.3602h.361.36.36l.36-.3603h.721l.72-.3602h.36.361.36l.36-.3602h.36.36l.361-.3602h.36.72l.361-.36027h.72.36l.36-.36023h.361.36.36v-.36022h.36.361.36v-.36023h.72.361l.36-.36022h.36.36.36.361.36.36.36v.36022h.361v.36023h-.361-.36v.36022h-.36-.36l-.361-.36022v.36022l-.36.36023h-.36v.36027h-.36-.36v.3602h-.361.361v.3602h.36-.36l-.361.3602h-.36-.36-.36-.361-.36-.36-.36-.361-.36-.36v.3603h-.36v.3602h-.36l-.361.3602-.36.3602h-.36l-.36.3603h-.361l-.36-.3603v.3603h-.36v.3602h-.36-.36-.361-.36-.36-.36l-.361.3602h-.36-.36v.3602h-.36v.3602h-.36l-.361.3603-.36.3602h.36-.36-.3601-.3602l-.3603-.3602h-.3602z" fill="#fdfbf5" fill-rule="evenodd"/><path d="m98.376 14.5476h.3602v-.3602l.3602-.3602v-.3602l.3603-.3602m-1.0807 1.4408.3602.3603h.3602m.3603-1.8011.3602-.3603m0 0v-.3602h.3601v-.3602h.36v-.3602h.361.36.36l.36-.3603h.721m0 0 .72-.3602h.36.361.36l.36-.3602h.36m0 0h.36m0 0 .361-.3602h.36m0 0h.72l.361-.36027h.72.36l.36-.36023h.361.36.36v-.36022h.36m0 0h.361m0 0h.36v-.36023h.72m0 0h.361l.36-.36022m0 0h.36m0 0h.36m0 0h.36.361.36.36m0 0h.36v.36022h.361m0 0v.36023m0 0h-.361m0 0h-.36m0 0v.36022h-.36-.36m0 0-.361-.36022m0 0v.36022m0 0-.36.36023m0 0h-.36m0 0v.36027h-.36m0 0h-.36m0 0v.3602m0 0h-.361m.361 0v.3602m0 0h.36m-.36 0-.361.3602h-.36m0 0h-.36-.36-.361m0 0h-.36-.36m0 0h-.36-.361m0 0h-.36-.36m0 0v.3603m0 0h-.36v.3602h-.36l-.361.3602-.36.3602m0 0h-.36m0 0-.36.3603m0 0h-.361l-.36-.3603m0 0v.3603m0 0h-.36m0 0v.3602h-.36m0 0h-.36-.361m0 0h-.36m0 0h-.36m0 0h-.36m0 0-.361.3602m0 0h-.36m0 0h-.36m0 0v.3602h-.36m0 0v.3602m0 0h-.36m0 0-.361.3603m0 0-.36.3602m0 0h.36m-.36 0h-.3601m0 0h-.3602m0 0-.3603-.3602" stroke="#1e1d3d"/><path clip-rule="evenodd" d="m121.431 7.3435h.36.36.361.72.72.361 1.08l.721-.36023h.36.36 2.522l.72-.36022h.36.721.36.36.361l.36.36022h.36v.36023.36022h-.36v-.36022h-.36-.361-.36-.36-.36-.361-.36v.36022h-.36v.36023h-.36-.36-.361-.36l-.36.36022h-.36-.361-.36v.36023h-.36-.36-.36-.361-.36-.36v.36022-.36022h-.36-.361-.36l-.36-.36023h-.36-.36v.36023h-.361v.36022h-.36v.36023h-.36-.36l-.361.36022h-.36-.36-.36-.36l-.361-.36022h-.36v-.36023h-.36v-.36022l-.36-.36023v-.36022-.36023h.36l.36-.36022.36-.36023v-.36022h.361.36.36.36v.36022h.721-.361-.36-.36.36.36v.36023h.361z" fill="#fdfbf5" fill-rule="evenodd"/><path d="m121.431 7.3435h.36.36.361.72.72.361 1.08l.721-.36023h.36.36 2.522l.72-.36022h.36.721.36.36.361l.36.36022m-11.167.36023h-.36m11.527-.36023h.36m0 0v.36023m0 0v.36022h-.36m0 0v-.36022m0 0h-.36m0 0h-.361m0 0h-.36m0 0h-.36m0 0h-.36-.361-.36v.36022h-.36m0 0v.36023h-.36-.36m0 0h-.361m0 0h-.36l-.36.36022m0 0h-.36m0 0h-.361m0 0h-.36v.36023h-.36m0 0h-.36-.36m0 0h-.361m0 0h-.36m0 0h-.36m0 0v.36022m0-.36022h-.36m0 0h-.361-.36l-.36-.36023m0 0h-.36m0 0h-.36v.36023h-.361m0 0v.36022m0 0h-.36v.36023m0 0h-.36-.36l-.361.36022m0 0h-.36m0 0h-.36m0 0h-.36m0 0h-.36m0 0-.361-.36022m0 0h-.36m0 0v-.36023m0 0h-.36v-.36022m0 0-.36-.36023v-.36022m0 0v-.36023h.36m0 0 .36-.36022m0 0 .36-.36023v-.36022h.361.36m0 0h.36.36v.36022m0 0h.721m-.721 0h.36m-.36 0h-.36m1.081 0h-.361m0 0v.36023h.361" stroke="#1e1d3d"/><path clip-rule="evenodd" d="m92.2521 19.2311h.3602l.3603-.3603.3602-.3602h.3602v-.3602h.3602.3603.3602.3602.3602.3603.3602v.3602.3602h-.3602-.3603-.3602-.3602v.3603h-.3602l-.3603.3602h-.3602v.3602h-.3602l-.7205.3602-.7204.3603h-.3602-.3603v.3602.3602.3602h.3603-.3603.3603l-.3603.3603h-.3602-.3602v.3602l-.3602.3602v.3602h-.3603l-.3602.3603v.3602h-.3602v.3602h-.3602v.3602h-.3603-.3602-.3602-.3602-.3603l-.3602.3603h-.3602-.3602v-.3603-.3602l.3602-.3602h.3602l.3602-.3602.3603-.3603.7204-.3602.3602-.3602.3603-.3602h.3602l.3602-.3603v-.3602h.3602l.3603-.3602.3602-.3602.3602-.3603.3602-.3602.3603-.3602h.3602z" fill="#fdfbf5" fill-rule="evenodd"/><path d="m92.6123 19.2311h-.3602l-.3602.3602h-.3602l-.3603.3602m1.4409-.7204.3603-.3603m0 0 .3602-.3602h.3602v-.3602h.3602.3603.3602m0 0h.3602m0 0h.3602m0 0h.3603m0 0h.3602m0 0v.3602m0 0v.3602h-.3602m0 0h-.3603m0 0h-.3602-.3602v.3603h-.3602m0 0-.3603.3602h-.3602v.3602h-.3602l-.7205.3602m0 0-.7204.3603h-.3602m0 0h-.3603v.3602m0 0v.3602m0 0v.3602m0 0h.3603l-.3603.3603m0 0h-.3602m0 0h-.3602m0 0v.3602m0 0-.3602.3602m0 0v.3602h-.3603l-.3602.3603m0 0v.3602h-.3602m0 0v.3602h-.3602m0 0v.3602m0 0h-.3603m0 0h-.3602-.3602-.3602m0 0h-.3603m0 0-.3602.3603m0 0h-.3602m0 0h-.3602m0 0v-.3603m0 0v-.3602m0 0 .3602-.3602m0 0h.3602l.3602-.3602.3603-.3603m0 0 .7204-.3602.3602-.3602m0 0 .3603-.3602h.3602l.3602-.3603v-.3602h.3602l.3603-.3602.3602-.3602m0 0 .3602-.3603.3602-.3602" stroke="#1e1d3d"/><path clip-rule="evenodd" d="m80.0049 39.4036v-.3602-.7204-.3603-.3602-.3602-.3602-.3603l.3602-.3602v-.3602-.3602-.3603l.3602-.3602v-.3602l.3603-.3602.3602-.3603v-.3602-.3602l.3602-.3602.3602-.3603v-.3602l.3603-.3602.3602-.3602v-.3603l.3602-.3602.3602-.3602v-.3602.3602l.3603-.3602h-.3603.3603v-.3603-.3602h.3602v-.3602-.3602h.3602v-.3603l.3602-.3602.3603-.3602v-.3602h.3602v-.3603h.3602v.3603h.3602v.3602h.3603v.3602.3602h.3602v.3603h-.3602l.3602.3602h.3602v.3602l.3602.3602.3603.7205v.3602h-.3603.3603-.3603v.3602.3603 1.4409.3602.3602.3602.3603h-.3602v.3602l-.3602.3602v.3602h-.3602v.3603.3602l-.3603.3602v.3602h-.3602v.3603h-.3602v.3602h-.3602l-.3603.3602h-.3602l-.3602.3602-.3602.3603-.3603.7204v.3602h-.3602-.3602l-.3602-.3602h-.3603l-.3602-.3602v.3602-.3602.3602l.3602.3602h.3603v.3603h-.3603-.3602v.3602l-.3602-.3602v.3602.3602h-.3602-.3603v.3602-.3602l-.3602-.3602v-.3602z" fill="#fdfbf5" fill-rule="evenodd"/><path d="m80.0049 39.4036v-.3602m0 .3602.3602.3603m-.3602-.7205v-.7204-.3603-.3602-.3602m0 0v-.3602-.3603m0 0 .3602-.3602v-.3602m0 0v-.3602m0 0v-.3603l.3602-.3602m0 0v-.3602l.3603-.3602m0 0 .3602-.3603v-.3602-.3602l.3602-.3602m0 0 .3602-.3603v-.3602l.3603-.3602m0 0 .3602-.3602m0 0v-.3603l.3602-.3602m0 0 .3602-.3602m0 0v-.3602m0 .3602.3603-.3602m-.3603 0h.3603m0 0v-.3603-.3602h.3602v-.3602-.3602h.3602v-.3603l.3602-.3602m0 0 .3603-.3602v-.3602h.3602v-.3603h.3602v.3603h.3602v.3602h.3603m0 0v.3602m0 0v.3602h.3602m0 0v.3603m0 0h-.3602l.3602.3602m0 0h.3602m0 0v.3602l.3602.3602m0 0 .3603.7205m0 0v.3602m0 0h-.3603m0 0v.3602m0 0v.3603 1.4409m0 0v.3602.3602.3602m0 0v.3603h-.3602v.3602m0 0-.3602.3602m0 0v.3602h-.3602m0 0v.3603.3602l-.3603.3602m0 0v.3602h-.3602v.3603m0 0h-.3602v.3602h-.3602m0 0-.3603.3602h-.3602m0 0-.3602.3602m0 0-.3602.3603-.3603.7204m0 0v.3602m0 0h-.3602m0 0h-.3602m0 0-.3602-.3602m0 0h-.3603l-.3602-.3602m0 0v.3602m0 0 .3602.3602m0 0h.3603m0 0v.3603m0 0h-.3603m0 0h-.3602v.3602l-.3602-.3602v.3602m0 0v.3602h-.3602m0 0h-.3603m0 0v.3602m0-.3602-.3602-.3602v-.3602" stroke="#1e1d3d"/><path clip-rule="evenodd" d="m136.92 6.6239v.36022-.36022h-.36-.36-.36v.36022h-.361l-.36.36023v-.36023-.36022l.36-.36023h.361.72.36z" fill="#fdfbf5" fill-rule="evenodd"/><path d="m136.92 6.6239v.36022m0-.36022h-.36m.36 0v-.36023m-.36.36023h-.36m0 0h-.36m0 0v.36022h-.361l-.36.36023m0 0v-.36023m0 0v-.36022m0 0 .36-.36023h.361m0 0h.72.36" stroke="#1e1d3d"/><path clip-rule="evenodd" d="m139.802 4.82227v.36022h-.36v.36023.36022.36022.36023l-.361.36022-.36-.36022.36-.36023v-.36022-.36022.36022-.36022-.36023l.361-.36022z" fill="#fdfbf5" fill-rule="evenodd"/><path d="m139.802 4.82227v.36022h-.36v.36023m.36-.72045h-.36l-.361.36022v.36023m.361 0v.36022m0 0v.36022.36023m0 0-.361.36022m0 0-.36-.36022m0 0 .36-.36023v-.36022m0 0v-.36022" stroke="#1e1d3d"/><path clip-rule="evenodd" d="m150.609 3.38281v.36023-.36023.36023h-.36-.361v.36022-.36022l-.36.36022h-.36-.36-.36-.361v.36023h-.36-.36v.36022h-.36-.361l-.36.36023h-.36-.36v.36022h-.361v.36023h-.36l-.36.36022h-.36v-.36022.36022h-.36-.361-.36-.36-.36v.36023h.36-.36v-.36023h-.721-.36v.36023h-.36-.36l.36.36022h-.36v.36023l-.361.36022-.36.36022h.36-.36l-.36-.36022v-.36022-.36023h.36l-.36-.36022v-.36023-.36022l.36-.36023v-.36022l.36-.36023h.361v-.36022h.36-.36-.361v.36022h-.36l.36-.36022h.361.36v-.36023h.36.36.36.361.36.36.36.361.72.36.36.361.36l.72-.36022h.361.72l.36-.36023h.361.72.36.36.361-.361.361z" fill="#fdfbf5" fill-rule="evenodd"/><path d="m150.609 3.38281v.36023m0-.36023h-.36m.36.36023h-.36m0 0h-.361m0 0v.36022m0-.36022-.36.36022h-.36m0 0h-.36-.36-.361v.36023h-.36m0 0h-.36v.36022h-.36-.361m0 0-.36.36023h-.36m0 0h-.36m0 0v.36022m0 0h-.361m0 0v.36023m0 0h-.36m0 0-.36.36022m0 0h-.36m0 0v-.36022m0 .36022h-.36m0 0h-.361m0 0h-.36-.36-.36m0 0v.36023m0-.36023h-.721-.36v.36023m1.081 0h.36m-1.441 0h-.36m0 0h-.36m0 0 .36.36022h-.36m0 0v.36023m0 0-.361.36022m0 0-.36.36022m0 0h.36m-.36 0-.36-.36022v-.36022m0 0v-.36023m0 0h.36m0 0-.36-.36022m0 0v-.36023-.36022l.36-.36023v-.36022m0 0 .36-.36023m0 0h.361v-.36022m-.361.36022v-.36022m0 .36022h-.36l.36-.36022m.361 0h.36m-.36 0h-.361m.721 0v-.36023h.36m0 0h.36.36.361.36.36m0 0h.36.361m0 0h.72m0 0h.36.36m0 0h.361.36l.72-.36022m0 0h.361.72m0 0 .36-.36023h.361m0 0h.72m0 0h.36.36.361" stroke="#1e1d3d"/><path clip-rule="evenodd" d="m184.83 22.474v.7205.3602.3602l.36.3603v.3602.3602.7205.3602h-.36v.3602l.72.3602-.36.3603h-.36-.36l-.361 1.0806v.3603.7204h-.36v.3602.3603h-.36l.36.3602v.3602.3602l.721.3603v2.5215l.36 3.6023v1.0807l.36.3602-.36.3602v.7205h-.36v.3602.3602.3602l-.361.3603v.7204.3602l-.36.3603v.7204l-.72.7205v.3602l-1.801 2.8818-.721 1.4409-.72.7204v.3603.7204l-.36.7205v.7204h-.361v.3602.7205 1.4409l-.36 2.8818v.3602.7204l-.36 3.2421v1.4409.7204l-.721.7205h-.36l-.36-.3603h-.36-.36v-.3602h-.361-.36-.36v-.3602.3602h-.36-.361l-.36.3602h-.36-.36-.36-.361v-.3602-.3602h-.36-.36v-.3602h-.36l-.361.3602-.36-.3602-.36.3602h-.36-.361l-.36-.3602h-.36v.3602h-.36-.36-.361v-.3602l-.36.3602-.36-.3602h-.36l-.361.3602h-.36-.36v.3602-.3602h-.36v.3602h-.36v.3602h-.361v.3603h-.36l-.36.3602.36.3602.36.3602v.3603.3602l-.36.3602v.3602.3603.3602l1.801 1.4409v.3602h-.36-.72l-.361-.3602v.3602l-.36.3602v.3603l-1.801-.3603 1.081 2.1614v.3602 1.4409l-.361.7205 1.081.7204.721.3602.72.3603.72.3602h1.441.721.36.72.361l-.361.7204h.361.36.72l.361.3603.72.3602 1.441.3602.72-.7204.361-.3603v-.3602l.36-.3602v-.3602l.36-.3603.36.3603v.3602l.361.3602v.7205l.36.3602v.7204l.36.3603.36.7204v.3602l.36.3603h.361l.36.3602v-.3602.3602l.36.3602.36 1.4409v.3602.7205.3602l-.72.7205v.3602.3602l-.36.3602v.3603.3602h-.361v.3602.3602l-.36.7205v.3602.3602.3603.3602l.36.7204.361.3603.72 1.0806v.3603l-.36.3602h-.721l-.36.3602h-.36-.36v-.3602.3602-.3602h-.36-.361v.3602-.3602l-.36.3602-.36.3602v.3603.3602.3602h-.36v.3602l-.361.3603v.3602l-.36.3602-.72.3602h-.36-.361-.36v.3603l-.36.3602-.36.3602-.361.3602-.36.7205v.7204.3603h-.36v.3602l-.36.3606h-.361-.36-.36-.36-1.801-.721v.36.36l-.36.36v.361.36-.36l-.36.36.36.36-.36.36-.36.36-1.081.361h-.36-.361v.36l-.36.72v.361.72h1.081.36l1.441.72.36.361v.36h.36l.721.72 1.081.721h-.361l.721.36h.36v.36.36.361.36.36h-.36-.36v.36h-.721v1.081.72l-.36.361-.721.72h-.36v.36h-.36v.361h-.36-.36v.36l-.361.36h-.36l-.72-.72h-.361v-.721.36h-.36v-.36h-.36l-.36.36h-.36l-.361.361-.72.36h-.36l-.721.36h-.72l-.36.36-.361.36h-.36-.36v.361-.361h-.36v.361-.361l-.361.361h-.36v.36h-.36-.36v.36h-.36v.36-.36.36l-.361.361h-.36l-.36.36h-.36-.361v-.36h-.36v-.361h-.36v.361h-.36-.361v-.361h-.36l-.36-.36h-.36-.36v-.36.36l-.361.36v.361h.361l.36.36h.36l-.36.36v.36.361h.36v.36l-.36-.36v.36l.36.36h-.36-.36v-.36h-.361-.36-.36-.36l.36-.36-.36-.361v-.36h-.361-.36-.36-.36-.36-.361v-.36h-.36v-.36-.361-.36h-.36-.36v-.36h-.361l-.36.36h-.36-.36-.36-.361-.36l-.36.36-.36-.36-.361-.36-.36-.36-.36-.361h.36v-.36h-.36v-.36l-.36-.36-.36.36v-.36-.36h-.361v.36h-1.08v.36l-.361-.36v.36h-.36l-.36.36h.36.36.361v.36h.36v.361h.36v.36.36l.36.36h.361l.36.361h-.36v.36.36l.36.721-.36-.361h-.721l-.36-.36h-.36-.361-.36-.36-.36v-.36h-.361l-.36-.36-.36-.361-.36.361-.36.36h.36l-.36.36h-.361v.36h-.36-.36-.36v.361l-.361.36h-.36-.36-.36-.36-.361v-.36l-.72.72v.36l.36.36h-.36v.361h.36l.36.36.361.36.36.36h-.36.36l-.36.361v.36h.36.36v.36h-.36v.36h.36v.36.361l-.36.36h-.36l-.721.36v.36.361.36h.36.361.36.72l.36.36h.361v.36h.36.36v.36.361h.36v-.361.361.36-.36.36h-.36-.36v.36.36h.36v.361.36.36.36.36l1.801.721h.36v.36h.361.36v-.36l.36.36h.36v.36l-.36.361v.36l-.36.72v.361.36h-.36v.36.72l1.08.721.361.72.72.721.36.36 1.081 1.801.36.36.36.361.361.72.36.36v.36.361.36.36.36h.36v.361.36.36.36.36.361.36.36l-.36-.36v.36.721l-.36 2.161h.36.72l-.36.36v.36h-.36v.361l.72 1.801-1.801 1.08.36.361h-.36l-.36.36h-.36l-.36.36v.36.361l-.361.36-.36.72v.36l-.72.721v.36.36l-1.081.721-.721 1.08-.36.361.36.72v.36h-.36-.36v.361.36.36l.36.721v1.08.36l.36.361h.361.36.36v-.361h.36v-.36h.361v-.36h.36.36l.36-.36h.361v-.36l.72.72h-.36v.36l-1.441.36.72.361v.36l1.081.36-.36.36h-.36v.361h-.361-.36-.36v.36h-.36-.361v.36h-.36-.36l-.36.36v-.36.36l-.361.36h.361-.361v.361-.361.361h-.36v.36h-.36-.36v.36l-.36.36-.361.361v.36h-.36-.36-.36v.36h-.361l-.36.36-.36.36v.361h-.36v.36l-.36.36v.36.361.36h-.361v.36h-.36v.36h-.36-.36v-.36l-.361-.36-.36-.36v-.721l-.36-.36-.36.36-.36.36v.361h-.361-.36-.36v.36.36h.36v.36.36.361.36l.36.36h.361v.36.361h.36v.36.72l-.36.36v.361h.36.36.36v-.361h.36l.361-.36h.36.36l.36.36h.361.36.72.721.36v.361.36h-.36v.36.36h-.361v.361h.361v.36 1.081h1.08v.36h.361v-.36l.36.36v.36h.36.36.36l.361.36v-.36.36h-.361v.36l-.36.361h.36l-.36.36v.36.36.361h.36v.36.36.36.36h-.36v1.081h-.36v-.36h-.36v-.36h-.36v.36h-.361-.36l-.36.36h-.36v.36.361.36h.36v.36.36.36l-.36.361-.361.36h-.36l-.36-.36v-.361l-.36.361v.36-.36l-.36.36v.36h.36l.36.36h.36v.361h.36v.36h.361l.36.36v.36.36h-.36v.361l.36.36h-.36-.361-.36-.36-.36-.36v-.36h-.361v-.361h-.36v.361h-.36-.36-.361l-.36.36-.36.36v-.36h-.36-.36l-.361-.36v-.361-.36l-.36.36h-.36-.36l-.361.361v.36l-.36-.36v-.361h-.36v.361h-.36-.36l-.361.36v-.36l-.36-.361-.36-.36h-.36v-.36l-.361-.36h-.36-.36v.36h-.36v.36h-.361v.36.361h-.36-.36v-.361l-.36.361h-.36l-.361.36h-.36v-.36h-.36l.36-.361v-.36l.36-.36v-.36-.36-.361-.36-.36-.721h-.36-.36v-.36h-.36-.361-.36v-.36-.36l-.36.36v-.36h.36l-.36-.36v-.361h-.36l.36-.36h-.36v-.36h.36-.36l.36-.36v-.361-.36-.36h.36v-.36h.36.361v-.36l.36.36v-.36-.361h.36v-.36l.36-.36v-.36-.361h.361.36v.361l.36-.361v-.36-.36l.36-.36v-.36h.36v-.361-.36h.361v-.36h.36v-.36-.361h-.36-.361l-.36.361h-.36v-.361-.36l.36-.36v-.36h.36v-.361h.361v-.36h.36v-.36l.36-.36v-.36-.361-.36l.36-.36v-.36-.361h-.36-.36v-.36l.36-.36.36-.72v-.361-.36h.361.36v.36l.36-.36v-.36-.36-.361h.36l-.36-.36-.36-.36.36-.36h.36.361.36.36v-.36-.361h-.36v-.36l-.36.36h-.361v-.36-.36-.36h.361v-.361h.36v-.36h.36.36v-.36-.36h.36v-.36h-.36v-.361h-.36v-.36l-.36-.36v-.36.36h-.36v.36h-.361v-.36l-.36.36h-.36v.36h-.36-.361v-.36h.361v-.36h-.361-.36v-.36h.36.361l-.361-.361v-.36l-.36-.36h-.36-.36.36-.36v-.36l-.361.36h-.36-.36l-.36.36h-.36-.361v-.36.36l-.36-.36h-.36v.36-.36h-.36-.361-.36l-.36-.36h.36v-.36l-.36-.361h-.36l-2.522-1.08h-.36l-.36-.361v-.36l-.36-1.081.36-.36v-.36-.36-.36h-.36l-.361-.361-.72-.72-.36-.36v-.361l-.721-.36h-.36-.36l-.36.36v.361l-.361.36h-1.08v.36h-.361l-.36.721-.36.36-.72-.36-2.162-.721v.36.361h-.36v.36h-.36-.361-1.08l-1.441-.36-.721.36-.72-.36.36-.721.36-1.441v-.36l-1.08-.72-.36-.361h-.361-.36l-.7203.361-.3603.36-.7204-.36h-.7205v-1.081-1.081l-.3602-.36v-.36l-.3602-.36-.7205-.721-1.0806-1.441 1.0806-1.441v-.36l.3603-.72-.3603-1.081-.7204-1.081v-.36h-.3602-1.0807v-.36h-.3602v-.36l.3602-.361h-.3602-.3603v.361h-.3602v.36l-.3602.36v.36.36.361.36h-.3602v.36.36h-.3603l-.3602.361h-.3602l-.3602.36v.36l-1.0807 1.081-.3602.72-.3603-.36v.36h-.3602.3602v-.36l-.3602.36v-.36h-.3602v-.36-.36h-.3602.3602l-.3602-.361v.361l-.3603-.361h-.3602v.361-.361h-.3602v.361h-.3602v.36-.36h-.3603.3603-.3603-.3602l-.3602-.361-.3602.361h-1.0807-.3602l-.3603.36v-.36h-.3602-.3602v-.361-.36-.36-.36.36l.3602-.36h.3602v.36h.3603.3602.3602v.36-.36l.3602.36h.3603v.36h.3602v-.36h-.3602l-.3603-.72.3603-.361-.3603-.72h.3603v-.36-.361h.3602v.361l.3602-.361h-.3602v-.72-.36-.36h-.3602-.3603v-.361-.36h-.3602v-.36h-.3602-.3602-.3603v-.36h-.3602-.3602-.3602v.36l-.3603-.36v.36.36h-.3602l-.7204.36v.361l-.3603.36v.36l-.7204.36v.36l-.3602.361v.36h-.3603l-.7204.36v.36.721h-.3602v.36-.36h-.3603v.36h-.3602-.3602v-.36h-1.0807l-.7204-.36h-.3603-.3602-.3602l-1.0807.72v-.36-.36h-.3602v-.361-.72-.36l.3602-.361.3602-.72-.3602-.72h-1.0807-.3602l-.7204.36h-.3603-.3602v.36h-.3602-.7205l-1.0806.72-.7205.361-.7204.36v.36h.3602.3602v.36h-.3602v.361h.3602-.3602v.36.36h-.3602l.3602 1.081.7204.72.3603.721.7204.72-.3602.36.3602.361h-.3602-.3602l-.7205.36h-.3602v.36h-.3602l-.7205-.36h-.7204-.3603v-.36l-.3602-1.081h-.7204-.3603l-1.0806.36h-2.5216v.36.361l.3602.36.7205.36-2.1614 2.522-1.0807 1.44-.3602.361-.7204.36-2.1614 1.441-.3602.36v.36h-.3602l-.3602.36h-.3603l-.7204.361v-.361h-.3602v.361h-.3603v-.361h-.3602l-.3602.361h-.3602v.36h-.3603l-.3602.36v.36h-.3602-.3602v.361.36l-.3603-.36v.36h-.3602-.3602l-.3602-.36h-.3603v.36.36h-.3602l-.3602.36h-.3602-.3603l-.3602-.36h.3602l.3603-.36v-.36l-.3603-.361v.361h-.3602-.3602v.36h-.3602-.3603-.3602-.3602l-.3602.36-.7205-.36v.36l-.3602-.36h-.3602v-.36-.361-1.441l.3602-.72h-.7205v-.36h-.3602-.3602l-.3602-.36v-.361.361l-1.0807-.361h-.3602-.3603-.3602l-.3602-.36-.3602-.36h-.3603l-.7204-.36h-.7205l-.7204-.361h-.3602l-.3603-.36-.7204-.36-.3602.36v.36.361h-.3603v-.361h-.3602-.3602v.361h-.3602l-.3603-.361v.361.36h-.3602v-.36h-.7204v.36l.3602 1.441v.36.72h-.3602-.3603l-1.4409.361h-.3602-.7204l-.3603-.361h-.3602l-.3602-.72v-.36h-.3602v.36h-.3603v-.36h-.3602v-.36l-.3602-.361h-.3602v-.36-.36-.36h-.3603v-.361-.36l.3603-.36-.7205-.72 1.0807-1.441v-.361l-.3602-.36v-.36-.36l-.3603-.721v-.36h.3603v-.36h.3602.3602l.3602-.36h.3603v-.361h.3602.3602.3602v.361-.361h.3603l.3602-.36h.3602.3602.3603l.3602-.36h.3602v-.36h.3602.3603.3602.3602.3602.3603v.36h.3602.3602v.36h.3602l-.3602-.36.3602.36v.36l.3603.361h.3602.3602.3602.3603v.36h.3602l.7204.36h.3603.3602.3602l.7205.36v.361h.3602l.3602.36h.3602v.36h.3603v.36h.3602.3602.3602.3603v.36.361h.3602.3602v-.721-.36l.3602.36h.3603.3602v.36h.3602v.361l.3602.36v-.36-.361.361h.3603v-.361h.3602-.3602.3602v.361h.3602.3602.3603.3602v-.361h.3602v-.36h.7205v-.36h.3602v-.36l.7204-.36h.3603.3602l.3602-.361h.3602v.361h.3603v-.361-.36-.36l.3602-.36-.3602-.361v-.36-.36l.3602.36-.3602-.36h.3602v-.36h.3602.3602.3603l.3602.36h.7204-.3602v.36h.3602v-.36.36.36.361l.3603-.361-.3603-.36h.3603v.36.361.36h.3602l.3602.72.3602.361h.7205.3602.3602v.36h.3603.3602l.3602-.36h.3602.3603.3602l.3602-.361h.3602.3602.3603.3602v-.36h.3602.3603v-1.441l.3602-.36-.3602-.36h-.3603-.3602v.36h-.3602-.3603l-.3602.36h-.3602-.3602-.3602v-.36h-.3603-.3602-.3602-.3602v-.36h-.3603-.3602l-.3602-.36h-.3602l-.3603-.361-.3602-.36v-.36l-.3602-.36h-.3602v-.361.361l-.3603-.361h-.3602v-.36-.36-.36.36.36.36h-.3602v-.36l-.3602-.36-.3603-.36-.3602-.361h-.3602l-.3602.361h-.3603l-.7204.36h-.3602-.3603.3603v.36h-.3603v.36h.3603v.361l-.3603.36v.36.36-.36l-.3602.36v.361.36h-.3602v.36.36h-.3602-.3603-.3602-.3602-.3602v.36h-.3603-.3602-.3602v.361h-.3602-.3603l-.7204-.361v-.36h-.3602v-.36h-.3603l-.3602-.36h.3602v-.36h-.3602-.3602-.3602v-.361l-.3603.361h-.3602-.3602l-.3602-.361v-.72h-.3603v-.36l-.3602-.361-.3602-.36-.3602-.36h-.3603l.3603-.36h.3602l.3602.36v.36h.3602.3603l-.3603-.36.7205-.36-.3602-.361-.3603.361h-.3602l-.3602-.361.3602-.36h.3602l.3603-.36h-.3603.3603v-.36l-.3603.36-.3602-.36v.36.36l-.7204.36h-.3603-.3602.3602l-.3602.361v-.361h-.3602v.361-.361.361h-.3602.3602v.36h.3602-.3602l-.3602-.36v.36h-.3603v.36h-.3602-.3602v.36l-.3602-.36-.3603.36-.3602-.36h-.3602l.3602.36h-.3602v-.36l-.3602.36h-.3603-.3602v-.36l-.3602-.36h-.3602l-.3603-.36-.3602-.361h-.3602v-.36-.36h-.3602v-.72h-.3603v-.361l-.3602-.36-.3602-.36h-.3602v-.36h-.3603v-.361h-.3602l-.3602-.36-.3602-.36-.3603-.36-.3602-.36.3602-.361v-.36-.36h.3603l.3602-.36h.3602v-.361h.7205v-.36l.3602-.36h.3602.3602l.3603-.72h.3602.3602v-.361h.3602l.3603-.36h.3602l.7204-.36h.3603.3602.3602.3602.3603v.36h.3602-.3602v-.36.36h.3602.3602.3602.3603v-.36h.3602.3602v-.36h.3602v-.361l.3603-.72h-.3603v-.36.36l.3603-.36h-.3603.3603-.3603-.3602v-.36h.3602.3603v-.361l.3602-.36v-.36h.3602-.3602l.3602.36v-.36h.3602l.3603-.36v-.361h-.3603v-.36h.3603v-.36l-.3603-.36h-.3602l-.3602-.361-.3602-.36v-.36l-.3603-.36v-.36-.361-.36-.36l.3603-.36v-.361h.3602v-.36h.3602l.3602-.36v-.36h.3603.3602.3602.3602.3603l.3602-.36h.3602.3602.3603.3602.3602.3602.3603v-.361-.36h.3602v-.36h.3602v-.36h.3602.3603v-.361-.36l.3602-.36v-.36-.36h-.3602v-.721h-.3603v-.36-.36h.3603v-.361h.3602l.3602-.36.3602-.36h.3603.3602-.3602.3602.3602.3602l.3603-.36h.3602l.3602-.36.7205-.361h.3602.3602-.3602.3602l.7205-.36h.3602.3602.3602-.3602v.36h-.3602l.3602.361v.36h.3602v.36h.3603v-.36.36l.3602.36v-.36h-.3602.3602.3602l.3602-.72.3603-.361v-.36-.36l-.3603-.36v-.361h-.3602v-.36l-.3602-.36v-.36l-.3602-.361v-.36-.36l.3602-.36.3602-.36-.3602.36h.3602v-.36-.361h.3602v-.36.36-.36l-.3602-.36h-.3602-.3602-.3603v.36h-.3602-.3602v.36-.36h-.3602v.36-.36h-.3603-.3602v-.36l-.3602-.721-.3602-1.08v-.36-.361-.36l.3602-.36.3602-.721v-.36h.3602.3603.3602.3602.3602.3603.3602v.36h.3602.3602l.3603.361h.3602l.3602-.361h.3602v-.36h-.3602l-1.4409-.36 1.4409.36h.7205l.3602-.36.3602-.36.3602-.36.3603-.361.3602-.72h.3602v-.36l.3602-.361.3602-.36v-.36h.3603v-.36-.36l.3602-.361.3602-.36v.36h-.3602v.361h.3602v-.361l.3603-.36h.3602v-.36l.3602-.36v-.361h.3602l.3603-.36v-.36h.3602v-.36h.3602v-.36-.361.361h.3602v.36l.3603-.36h-.3603l.3603-.361-.3603.361v-.361h-.3602.3602l.3603-.36.3602-.36v-.36h.3602l.3602-.3606.3602-.3602.3603-.3603.3602-.7204.3602-.3602.3602-.3603.3603-.3602.3602-.7204.3602-.3603.3602-.3602.3603-.7204v-.3603-.3602l.3602-.3602.3602-.3602v.3602-.3602l.3602-.3603v-.3602l.3603-.3602v-.3602l.3602-.3603v-.3602l.3602-.3602v-.3602l.3602-.3603.3603-.3602v-.3602l.3602-.7205.3602-.7204v-.3602l.3602-.3603.3603-.7204v-.7205l.3602-.3602.3602-.7204v-.3603l.3602-.3602v-.7204l.3603-.3603v-.7204h.3602v-.3602l.3602-.3603v-.7204l.3602-.3602v-.3603l.3603-.3602v-.3602-.3602-.3603-.3602l.3602-.3602v-.3602l-.3602-.3603v-.3602-.3602h-.7205-.3602v-.3602l.3602.3602h.7205.3602v-.3602h-.3602l-.3603-.3603.3603.3603h.3602v-.3603l.3602-.3602.3602-.3602v-.3602-.3603l.3603-.3602v-.7204l.3602-.7205v-.3602-.3602-.3603-.3602l.3602-.7204v-.3603-.3602-.3602-.3602l.3602-.7205v-.3602-.3602-.3603-.3602-.3602-.3602-.3603l.3603-.7204v-.3602-.7205-.3602-.3602-.3603l.3602-.7204v-.3602-.3603-.3602-.3602-.3602-.3603l.3602-.3602h-.3602l.3602-.3602h-.3602v-.3602-.3603-.3602l.3602-.3602v-1.0807l.3602-1.0806v-.3603l.3603-.3602v-.3602l.3602-.3603v-.3602l.3602-.3602v-.3602-.3602-.3603h.3602v-.3602-.3602-.3602-.3603l.3603-.3602v-.3602-.3602-.3603h.3602v-.3602-.7204l.3602-.7205v-.3602-.7205-.3602-.3602-.3602-.3603-.3602-.3602-.3602l.3602-.3603v-.7204-.3602l.3603-.3603v-.3602l.7204-.3602h.3602.3603.3602.3602.3602v.3602l-.3602-.3602v.3602l.3602.3602h.3603-.3603.3603v-.3602h-.3603l.3603-.3602h.3602v.3602.3602.3603l-.3602.3602v.3602.3602.3603l.3602.3602h-.3602l.3602.3602.3602.3602v.3603h.3602l.3603.3602h.3602l.3602.3602.3602.3602.3603.3603h.3602.3602.3602v-.3603h.3603.3602l.3602-.3602.7205-.3602h.3602v-.3602l.3602-.3603.3602-.3602v-.3602l.3603-.3602h.3602.3602v-.3603h.3602.3603.3602.3602.3602v-.3602-.3602.3602-.3602l.3603.3602-.3603-.3602v.3602h.3603-.3603l.3603.3602v-.3602.3602h.3602l-.3602-.3602.3602.3602.3602-.3602h-.3602.3602l1.8011-1.8011.3603-.3602 1.0806-.7205.3603-.3602 1.0806-1.0807 1.0806-1.0807h.36v-.3602h.361-.361l.361.3602v-.3602l2.161-1.8011.36-.3602.36-.3603.361-.3602.36-.3602h.36l.72-.3602h.361l-.361-.3603h.361-.361l.361.3603h.36l-.36-.3603h.36-.36l.36.3603v.3602-.3602-.3603.3603h.36v-.3603h.36l1.081-1.0806v-.3603-.3602-.3602l.36-.3602h.361l.36-.3603v-.3602-.3602l.36-.3602v-.7205-.3602-.3602-.3603-.3602-.3602h-.36v-.3602.3602h.36l-.36-.3602.36.3602v-.3602h.36-.36l.36-.3603.36-.3602h.361v-.3602-.3602l-.361.3602v.3602h-.36v.3602h-.36v.3603h-.36.36v-.3603h.36v-.3602l.36-.3602v-.3602-.3603l.361-.3602v-.3602l.36-.3602.36-.3603.36-.3602.361-.3602.36-.3602.36-.3603.36-.3602h.36l.361-.3602h.36l.36-.3602v-.3603h.36v-.3602h.361v-.3602h.36v-.3602-.3603l.72-.7204.36-.3602h.361v-.3603h.36.36v-.3602h.36.361l.36-.3602h.36v-.3602h.36.36.361v-.3603h.36.36v-.3602h.36.361l.36-.3602h.36l.36-.3602.36-.3603v.3603l.361-.3603h.36v-.3602h.36l.36-.3602h.361.36l.36-.3602h.36.361v-.3603h.36l.36-.3602h.36v-.3602h.36.361l.36-.3602.36-.3603h.36l-.36-.3602h.36v.3602h.361.36.36.36.36.361l.36-.3602h.36.36.361v-.3602h.36.36.36.36v-.3602h.361.36.36.36l1.081-.3603.36.3603.36-.3603v.3603l.361-.3603v.3603-.3603h.36-.36.36.72v.3603h.361.36.36l.36-.3603 1.081-.3602h.36l.36.3602v-.3602.3602h.361.36v-.3602l-.36.3602.36-.3602v.3602l1.441-.3602h.36.36l.36.3602.721.3603.36.3602h.36v.3602-.3602h.361v-.3602l.36.3602v-.3602h.36v-.3603h.36l-.36-.3602.36.3602h.36v-.3602h.361.36.36l.36-.3602v.3602h.361l.36-.3602h.36.36.36v-.36023h.361.36.36.36.361l.36-.36022h.36.36.361.36.36l.36-.36023.36.36023 1.081-.36023v-.36022h.36.361.36l.36-.36023h.36l.36-.36022h.361l.72-.36023h.36l.361-.36022h.36.36.36l.36-.36022h1.081.721.36.36.36.36v.36022h.361.36l.36.36022.36-.36022.361-.36022.72.36022v.36022-.36022h-.36-.36l.72.36022v.36023l-.72-.36023v.36023h.72v.36022l-.36-.36022v.36022h.36.36.36l.361.36023v-.36023h-.721v-.36022-.72045.36022h.721l.36.36023.72.72045v.36022l-.36.72045v.36023.7204l.36.3603v.3602h.361l-.361.3602h.361v.3602.3603.3602.3602.3602.3603h.36v.3602.3602.3602h.36l.36.3603h.361v.3602h.36v.3602h.36v.3602h.36.36l.361.3603h.36l.36.3602h.36.361-.361-.36-.36l-.36-.3602h-.721l-.36-.3603-.36-.3602h-.36v.3602h.36.36v.3603h.36.36.361l.36.3602h.36l.36.3602h.361l.36-.3602v.3602.3602h.36l.36.3603.36-.3603v.3603h.361.72.36.361v-.3603.3603-.3603h.36.36v-.3602.3602l-.36.3603v.3602h-.36v.3602l.36.3602-.36.3603v.3602.3602.3602.3603l.36-.3603v.3603.3602h.36.36v.3602h.36v-.3602.3602h.361.36.36v.3602h.36.361.36l.36.3603v.3602h-.36.36v-.3602-.3603.3603.3602-.3602h.36.36.361l.36.3602v-.3602h-.36.36zm-95.0994 123.917v.361zm0 0h-.3602v-.36h.3602-.3602v.36h-.3603v-.36-.36.36l-.3602-.36v.36h.3602l-.3602.36h.3602-.3602.3602-.3602v.361h.3602l.3603.36v-.36.36l.3602-.36h-.3602zm-.7205 2.162h.3603v-.36.36zm-1.4409-1.081v-.36zm1.4409-1.801h.3603zm.7205.36h.3602zm-.3602-.36v.36zm0 0h.3602v.36-.36h.3602-.3602.3602v-.36.36h-.3602z" fill="#fdfbf5" fill-rule="evenodd"/><path d="m184.83 22.474v.7205m0-.7205v.3603m0 .3602v.3602m0-.3602-.36-.3602m.36.3602v-.3602m0 .7204v.3602l.36.3603v.3602.3602m0 0v.7205m0 0v.3602h-.36v.3602l.72.3602m0 0-.36.3603h-.36m0 0h-.36l-.361 1.0806m0 0v.3603m0 0v.7204m0 0h-.36v.3602m0 0v.3603h-.36l.36.3602v.3602m0 0v.3602l.721.3603v2.5215l.36 3.6023v1.0807l.36.3602m0 0-.36.3602v.7205m0 0h-.36m0 0v.3602m0 0v.3602m0 0v.3602m0 0-.361.3603m0 0v.7204m0 0v.3602m0 0-.36.3603m0 0v.7204l-.72.7205m0 0v.3602m0 0-1.801 2.8818-.721 1.4409-.72.7204m0 0v.3603m0 0v.7204l-.36.7205m0 0v.7204m0 0h-.361m0 0v.3602.7205m0 0v1.4409m0 0-.36 2.8818m0 0v.3602.7204m0 0-.36 3.2421m0 0v1.4409m0 0v.7204m0 0-.721.7205m0 0h-.36l-.36-.3603h-.36-.36m0 0v-.3602h-.361m0 0h-.36-.36m0 0v-.3602m0 .3602h-.36m0 0h-.361l-.36.3602m0 0h-.36m0 0h-.36-.36m0 0h-.361v-.3602m0 0v-.3602m0 0h-.36m0 0h-.36m0 0v-.3602h-.36l-.361.3602-.36-.3602m0 0-.36.3602h-.36-.361m0 0-.36-.3602m0 0h-.36v.3602m0 0h-.36-.36m0 0h-.361m0 0v-.3602m0 0-.36.3602m0 0-.36-.3602m0 0h-.36m0 0-.361.3602m0 0h-.36-.36m0 0v.3602m0-.3602h-.36v.3602h-.36v.3602h-.361v.3603h-.36m0 0-.36.3602m0 0 .36.3602m0 0 .36.3602m0 0v.3603.3602m0 0-.36.3602v.3602m0 0v.3603.3602l1.801 1.4409v.3602m0 0h-.36m0 0h-.72m0 0-.361-.3602v.3602l-.36.3602m0 0v.3603m0 0-1.801-.3603 1.081 2.1614v.3602 1.4409l-.361.7205 1.081.7204m0 0 .721.3602m0 0 .72.3603.72.3602h1.441m0 0h.721m0 0h.36.72m0 0h.361l-.361.7204h.361m0 0h.36.72m0 0 .361.3603.72.3602 1.441.3602m0 0 .72-.7204m0 0 .361-.3603v-.3602l.36-.3602v-.3602l.36-.3603.36.3603m0 0v.3602l.361.3602v.7205l.36.3602v.7204l.36.3603.36.7204v.3602m0 0 .36.3603m0 0h.361m0 0 .36.3602m0 0v-.3602m0 .3602.36.3602.36 1.4409v.3602m0 0v.7205.3602l-.72.7205v.3602m0 0v.3602m0 0-.36.3602m0 0v.3603m0 0v.3602m0 0h-.361v.3602m0 0v.3602l-.36.7205v.3602.3602m0 0v.3603m0 0v.3602m0 0 .36.7204m0 0 .361.3603.72 1.0806v.3603l-.36.3602h-.721l-.36.3602h-.36m0 0h-.36v-.3602h-.36-.361m0 0v.3602m0-.3602-.36.3602m0 0-.36.3602m0 0v.3603m0 0v.3602.3602h-.36m0 0v.3602l-.361.3603m0 0v.3602m0 0-.36.3602m0 0-.72.3602m0 0h-.36-.361-.36m0 0v.3603m0 0-.36.3602m0 0-.36.3602-.361.3602m0 0-.36.7205v.7204m0 0v.3603m0 0h-.36m0 0v.3602l-.36.3606m0 0h-.361m0 0h-.36-.36m0 0h-.36-1.801m0 0h-.721m0 0v.36.36m0 0-.36.36v.36m0 0v.361m0-.361-.36.361m0 0 .36.36m0 0-.36.36m0 0-.36.36m0 0-1.081.361h-.36m0 0h-.361v.36m0 0-.36.72m0 0v.361m0 0v.72h1.081m0 0h.36m0 0 1.441.72.36.361v.36h.36m0 0 .721.72m0 0 1.081.721h-.361l.721.36h.36v.36.36.361m0 0v.36m0 0v.36h-.36-.36v.36h-.721v1.081m0 0v.72l-.36.361m0 0-.721.72m0 0h-.36v.36m0 0h-.36m0 0v.361m0 0h-.36-.36v.36l-.361.36h-.36l-.72-.72m0 0h-.361v-.721.36m0 0h-.36m0 0v-.36m0 0h-.36l-.36.36h-.36l-.361.361-.72.36m0 0h-.36m0 0-.721.36h-.72l-.36.36-.361.36h-.36m0 0h-.36m0 0v.361m0-.361h-.36m0 0v.361m0-.361-.361.361m0 0h-.36v.36m0 0h-.36m0 0h-.36v.36m0 0h-.361v.36m0 0-.36.361h-.36l-.36.36m0 0h-.36m0 0h-.361v-.36h-.36v-.361m0 0h-.36m0 0v.361m0 0h-.36m0 0h-.361m0 0v-.361m0 0h-.36m0 0-.36-.36m0 0h-.36m0 0h-.36m0 0v-.36m0 .36-.361.36m0 0v.361m0 0h.361m0 0 .36.36m0 0h.36m0 0-.36.36m0 0v.36m0 0v.361m0 0h.36m-.36 0 .36.36m-.36-.36v.36l.36.36m0-.72v.36m0 .36h-.36m0 0h-.36m0 0v-.36m0 0h-.361m0 0h-.36m0 0h-.36-.36l.36-.36m0 0-.36-.361m0 0v-.36h-.361m0 0h-.36m0 0h-.36-.36m0 0h-.36m0 0h-.361m0 0v-.36m0 0h-.36m0 0v-.36m0 0v-.361m0 0v-.36m0 0h-.36m0 0h-.36v-.36h-.361m0 0-.36.36m0 0h-.36-.36m0 0h-.36m0 0h-.361m0 0h-.36m0 0-.36.36-.36-.36m0 0-.361-.36m0 0-.36-.36m0 0-.36-.361h.36m0 0v-.36m0 0h-.36m0 0v-.36m0 0-.36-.36m0 0-.36.36v-.36m0 0v-.36h-.361v.36m0 0h-1.08v.36l-.361-.36m0 0v.36h-.36m0 0-.36.36h.36m0 0h.36m0 0h.361v.36m0 0h.36m0 0v.361m0 0h.36v.36m0 0v.36m0 0 .36.36m0 0h.361l.36.361m0 0h-.36v.36m0 0v.36l.36.721-.36-.361h-.721l-.36-.36h-.36-.361-.36m0 0h-.36m0 0h-.36v-.36h-.361l-.36-.36m0 0-.36-.361-.36.361m0 0-.36.36h.36m0 0-.36.36m0 0h-.361v.36h-.36m0 0h-.36m0 0h-.36v.361m0 0-.361.36m0 0h-.36m0 0h-.36m0 0h-.36-.36m0 0h-.361v-.36m0 0-.72.72v.36m0 0 .36.36m0 0h-.36m0 0v.361m0 0h.36m0 0 .36.36m0 0 .361.36m0 0 .36.36m0 0h-.36m.36 0-.36.361m0 0v.36h.36m0 0h.36m0 0v.36m0 0h-.36m0 0v.36m0 0h.36v.36m0 0v.361l-.36.36h-.36l-.721.36m0 0v.36m0 0v.361m0 0v.36m0 0h.36m0 0h.361m0 0h.36m0 0h.72m0 0 .36.36h.361v.36h.36.36v.36m0 0v.361h.36m0 0v-.361m0 .361v.36h-.36m0 0h-.36v.36m0 0v.36m0 0h.36m0 0v.361m0 0v.36m0 0v.36m0 0v.36m0 0v.36m0 0 1.801.721m0 0h.36m0 0v.36m0 0h.361.36v-.36l.36.36m0 0h.36m0 0v.36m0 0-.36.361m0 0v.36l-.36.72v.361m0 0v.36h-.36v.36m0 0v.72m0 0 1.08.721m0 0 .361.72.72.721m0 0 .36.36 1.081 1.801.36.36.36.361.361.72.36.36v.36.361.36.36m0 0v.36m0 0h.36m0 0v.361m0 0v.36.36m0 0v.36m0 0v.36.361.36m0 0v.36l-.36-.36v.36.721l-.36 2.161h.36.72m0 0-.36.36v.36h-.36m0 0v.361l.72 1.801-1.801 1.08.36.361m0 0h-.36l-.36.36h-.36m0 0-.36.36v.36m0 0v.361l-.361.36m0 0-.36.72v.36m0 0-.72.721v.36.36l-1.081.721-.721 1.08-.36.361.36.72v.36m0 0h-.36-.36v.361.36m0 0v.36m0 0 .36.72v1.081.36l.36.361h.361m0 0h.36m0 0h.36v-.361m0 0h.36m0 0v-.36h.361v-.36h.36.36l.36-.36h.361v-.361l.72.721h-.36v.36l-1.441.36.72.361m0 0v.36l1.081.36-.36.36m0 0h-.36m0 0v.361m0 0h-.361m0 0h-.36m0 0h-.36m0 0v.36h-.36m0 0h-.361m0 0v.36h-.36m0 0h-.36m0 0-.36.36m0 0v-.36m0 .36-.361.36m0 0h.361m-.361 0v.361h-.36m0 0v.36m0 0h-.36-.36m0 0v.36m0 0-.36.36m0 0-.361.361m0 0v.36h-.36m0 0h-.36m0 0h-.36m0 0v.36h-.361m0 0-.36.36m0 0-.36.36v.361h-.36m0 0v.36m0 0-.36.36m0 0v.36m0 0v.361m0 0v.36m0 0h-.361m0 0v.36m0 0h-.36m0 0v.36m0 0h-.36m0 0h-.36m0 0v-.36l-.361-.36m0 0-.36-.36v-.721m0 0-.36-.36m0 0-.36.36-.36.36v.361h-.361-.36m0 0h-.36m0 0v.36m0 0v.36h.36v.36m0 0v.36m0 0v.361m0 0v.36m0 0 .36.36m0 0h.361m0 0v.36m0 0v.361h.36v.36m0 0v.72m0 0-.36.36m0 0v.361m0 0h.36.36m0 0h.36v-.361h.36l.361-.36h.36m0 0h.36m0 0 .36.36m0 0h.361m0 0h.36m0 0h.72.721m0 0h.36m0 0v.361.36h-.36v.36m0 0v.36h-.361m0 0v.361h.361m0 0v.36 1.081h1.08m0 0v.36h.361m0 0v-.36l.36.36v.36m0 0h.36m0 0h.36m0 0h.36m0 0 .361.36m0 0v-.36m0 .36h-.361v.36m0 0-.36.361h.36l-.36.36v.36m0 0v.36m0 0v.361m0 0h.36m0 0v.36m0 0v.36m0 0v.36m0 0v.36m0 0h-.36v1.081h-.36v-.36h-.36m0 0v-.36m0 0h-.36m0 0v.36m0 0h-.361m0 0h-.36m0 0-.36.36m0 0h-.36v.36.361m0 0v.36m0 0h.36v.36m0 0v.36m0 0v.36m0 0-.36.361m0 0-.361.36m0 0h-.36l-.36-.36m0 0v-.361l-.36.361m0 0v.36m0-.36-.36.36v.36h.36m0 0 .36.36m0 0h.36m0 0v.361m0 0h.36m0 0v.36h.361m0 0 .36.36m0 0v.36m0 0v.36h-.36m0 0v.361l.36.36h-.36m0 0h-.361m0 0h-.36m0 0h-.36m0 0h-.36m0 0h-.36m0 0v-.36m0 0h-.361m0 0v-.361h-.36v.361m0 0h-.36m0 0h-.36m0 0h-.361m0 0-.36.36m0 0-.36.36m0 0v-.36m0 0h-.36m0 0h-.36m0 0-.361-.36m0 0v-.361m0 0v-.36l-.36.36h-.36m0 0h-.36m0 0-.361.361v.36m0 0-.36-.36v-.361m0 0h-.36v.361m0 0h-.36m0 0h-.36m0 0-.361.36v-.36l-.36-.361m0 0-.36-.36m0 0h-.36m0 0v-.36l-.361-.36m0 0h-.36m0 0h-.36m0 0v.36m0 0h-.36m0 0v.36m0 0h-.361v.36m0 0v.361m0 0h-.36m0 0h-.36m0 0v-.361m0 0-.36.361m0 0h-.36m0 0-.361.36m0 0h-.36m0 0v-.36m0 0h-.36m0 0 .36-.361v-.36l.36-.36m0 0v-.36m0 0v-.36-.361-.36-.36-.721h-.36m0 0h-.36m0 0v-.36m0 0h-.36m0 0h-.361m0 0h-.36m0 0v-.36m0 0v-.36m0 0-.36.36v-.36m.36 0h-.36m.36 0-.36-.36m0 0v-.361m0 0h-.36m0 0 .36-.36h-.36m0 0v-.36m0 0h.36m-.36 0 .36-.36m0 0v-.361m0 0v-.36m0 0v-.36m0 0h.36m0 0v-.36m0 0h.36m0 0h.361m0 0v-.36m0 0 .36.36m0 0v-.36-.361h.36m0 0v-.36l.36-.36m0 0v-.36m0 0v-.361m0 0h.361m0 0h.36m0 0v.361l.36-.361m0 0v-.36-.36m0 0 .36-.36m0 0v-.36h.36m0 0v-.361m0 0v-.36m0 0h.361m0 0v-.36m0 0h.36m0 0v-.36m0 0v-.361h-.36m0 0h-.361m0 0-.36.361m0 0h-.36v-.361m0 0v-.36m0 0 .36-.36m0 0v-.36h.36v-.361m0 0h.361m0 0v-.36m0 0h.36v-.36m0 0 .36-.36m0 0v-.36-.361m0 0v-.36m0 0 .36-.36m0 0v-.36m0 0v-.361h-.36m0 0h-.36m0 0v-.36m0 0 .36-.36m0 0 .36-.72m0 0v-.361m0 0v-.36m0 0h.361.36v.36m0 0 .36-.36m0 0v-.36m0 0v-.36m0 0v-.361h.36m0 0-.36-.36m0 0-.36-.36m0 0 .36-.36m0 0h.36m0 0h.361.36m0 0h.36v-.36m0 0v-.361m0 0h-.36m0 0v-.36l-.36.36h-.361v-.36m0 0v-.36m0 0v-.36h.361m0 0v-.361m0 0h.36v-.36h.36.36m0 0v-.36m0 0v-.36h.36m0 0v-.36h-.36m0 0v-.361h-.36m0 0v-.36m0 0-.36-.36m0 0v-.36m0 .36h-.36v.36m0 0h-.361m0 0v-.36m0 0-.36.36m0 0h-.36m0 0v.36m0 0h-.36m0 0h-.361m0 0v-.36m0 0h.361v-.36h-.361m0 0h-.36v-.36m0 0h.36m0 0h.361m0 0-.361-.361m0 0v-.36l-.36-.36h-.36m0 0h-.36v-.36l-.361.36m0 0h-.36m0 0h-.36m0 0-.36.36h-.36m0 0h-.361m0 0v-.36m0 .36-.36-.36m0 0h-.36m0 0v.36m0-.36h-.36m0 0h-.361m0 0h-.36l-.36-.36h.36v-.361l-.36-.36h-.36l-2.522-1.08h-.36l-.36-.361m0 0v-.36l-.36-1.081m0 0 .36-.36m0 0v-.36m0 0v-.36m0 0v-.36h-.36l-.361-.361m0 0-.72-.72-.36-.36v-.361l-.721-.36h-.36-.36m0 0-.36.36m0 0v.361l-.361.36h-1.08v.36m0 0h-.361l-.36.721-.36.36-.72-.36-2.162-.721m0 0v.36m0 0v.361m0 0h-.36v.36h-.36m0 0h-.361m0 0h-1.08l-1.441-.36-.721.36-.72-.36.36-.721.36-1.441v-.36l-1.08-.72-.36-.361h-.361m0 0h-.36l-.7203.361m0 0-.3603.36-.7204-.36h-.7205v-1.081-1.081l-.3602-.36v-.36l-.3602-.36-.7205-.721m0 0-1.0806-1.441 1.0806-1.441v-.36l.3603-.72-.3603-1.081-.7204-1.081v-.36m0 0h-.3602-1.0807m0 0v-.36h-.3602v-.36m0 0 .3602-.361h-.3602m0 0h-.3603v.361m0 0h-.3602m0 0v.36m0 0-.3602.36v.36m0 0v.36m0 0v.361m0 0v.36m0 0h-.3602m0 0v.36m0 0v.36h-.3603m0 0-.3602.361m0 0h-.3602m0 0-.3602.36m0 0v.36m0 0-1.0807 1.081-.3602.72m0 0-.3603-.36m0 0v.36m0-.36-.3602.36m.3602 0h-.3602m0 0v-.36m0 0h-.3602m0 0v-.36m0 0v-.36m0 0h-.3602m.3602 0-.3602-.361v.361m0 0-.3603-.361m0 0h-.3602m0 0v.361m0-.361h-.3602m0 0v.361m0 0h-.3602m0 0v.36m0-.36h-.3603m0 0h-.3602m0 0-.3602-.361m0 0-.3602.361h-1.0807-.3602m1.8011-.361h-.3602m.3602 0v-.36m-1.8011.721-.3603.36v-.36m0 0h-.3602m0 0h-.3602v-.361m0 0v-.36m0 0v-.36m0 0v-.36m0 .36.3602-.36m0 0h.3602m0 0v.36h.3603m0 0h.3602m0 0h.3602m0 0v.36m0-.36.3602.36m0 0h.3603m0 0v.36m0-.36h.3602m-.3602 0-.3603-.72m0 0 .3603-.361-.3603-.72h.3603m0 0v-.36m0 0v-.361h.3602m0 0v.361m0-.361h.3602l-.3602.361m0-.361v-.72m0 0v-.36-.36m0 0h-.3602-.3603m0 0v-.361m0 0v-.36h-.3602v-.36m0 0h-.3602m0 0h-.3602m0 0h-.3603m0 0v-.36h-.3602m0 0h-.3602-.3602m0 0v.36m0 0-.3603-.36v.36m0 0v.36h-.3602m0 0-.7204.36v.361l-.3603.36v.36m0 0-.7204.36m0 0v.36m0 0-.3602.361m0 0v.36h-.3603m0 0-.7204.36m0 0v.36m0 0v.721m0 0h-.3602m0 0v.36m0-.36h-.3603m0 0v.36m0 0h-.3602m0 0h-.3602v-.36h-1.0807m0 0-.7204-.36m0 0h-.3603m0 0h-.3602-.3602l-1.0807.72v-.36m0 0v-.36m0 0h-.3602m0 0v-.361m0 0v-.72-.36m0 0 .3602-.361m0 0 .3602-.72-.3602-.72h-1.0807-.3602m0 0-.7204.36h-.3603m0 0h-.3602v.36m0 0h-.3602-.7205l-1.0806.72m0 0-.7205.361-.7204.36m0 0v.36h.3602m0 0h.3602v.36h-.3602m0 0v.361m0 0h.3602m-.3602 0v.36m0 0v.36m0 0h-.3602l.3602 1.081.7204.72.3603.721.7204.72-.3602.36m0 0 .3602.361m0 0h-.3602-.3602l-.7205.36m0 0h-.3602v.36h-.3602m0 0-.7205-.36m0 0h-.7204m0 0h-.3603m0 0v-.36l-.3602-1.081h-.7204-.3603l-1.0806.36m0 0h-2.5216v.36.361l.3602.36.7205.36-2.1614 2.522-1.0806 1.44-.3603.361-.7204.36-2.1614 1.441m0 0-.3602.36v.36h-.3602m0 0-.3602.36m0 0h-.3603m0 0-.7204.361m0 0v-.361m0 0h-.3602v.361m0 0h-.3603m0 0v-.361m0 0h-.3602m0 0-.3602.361h-.3602m0 0v.36h-.3603m0 0-.3602.36m0 0v.36m0 0h-.3602-.3602m0 0v.361m0 0v.36m0 0-.3603-.36v.36h-.3602m0 0h-.3602m0 0-.3602-.36m0 0h-.3603v.36m0 0v.36m0 0h-.3602m0 0-.3602.36m0 0h-.3602m0 0h-.3603m0 0-.3602-.36m0 0h.3602l.3603-.36m0 0v-.36m0 0-.3603-.361v.361h-.3602m0 0h-.3602v.36m0 0h-.3602m0 0h-.3603m0 0h-.3602m0 0h-.3602m0 0-.3602.36m0 0-.7205-.36m0 0v.36l-.3602-.36m0 0h-.3602m0 0v-.36m0 0v-.361-1.441l.3602-.72h-.7205v-.36m0 0h-.3602m0 0h-.3602l-.3602-.36m0 0v-.361m0 .361-1.0807-.361m0 0h-.3602m0 0h-.3603m0 0h-.3602l-.3602-.36m0 0-.3602-.36h-.3603m0 0-.7204-.36m0 0h-.7205m0 0-.7204-.361h-.3602m0 0-.3603-.36-.7204-.36m0 0-.3602.36m0 0v.36m0 0v.361m0 0h-.3603m0 0v-.361h-.3602m0 0h-.3602m0 0v.361m0 0h-.3602m0 0-.3603-.361v.361.36m0 0h-.3602v-.36h-.7204m0 0v.36l.3602 1.441v.36.72m0 0h-.3602-.3603l-1.4409.361h-.3602-.7204m0 0-.3603-.361h-.3602m0 0-.3602-.72m0 0v-.36h-.3602v.36m0 0h-.3603v-.36m0 0h-.3602v-.36l-.3602-.361m0 0h-.3602v-.36m0 0v-.36m0 0v-.36m0 0h-.3603v-.361m0 0v-.36m0 0 .3603-.36m0 0-.7205-.72 1.0807-1.441v-.361l-.3602-.36v-.36-.36l-.3603-.721m0 0v-.36h.3603v-.36m0 0h.3602m0 0h.3602m0 0 .3602-.36h.3603v-.361h.3602.3602.3602m0 0v.361m0-.361h.3603m0 0 .3602-.36m0 0h.3602m0 0h.3602m0 0h.3603m0 0 .3602-.36h.3602v-.36m0 0h.3602.3603.3602m0 0h.3602m0 0h.3602.3603m0 0v.36m0 0h.3602.3602m0 0v.36m0-.36.3602.36m-.3602 0h.3602m0 0v.36l.3603.361h.3602.3602m0 0h.3602m0 0h.3603v.36h.3602l.7204.36h.3603.3602m0 0h.3602m0 0 .7205.36m0 0v.361h.3602m0 0 .3602.36m0 0h.3602m0 0v.36m0 0h.3603m0 0v.36h.3602.3602m0 0h.3602.3603m0 0v.36m0 0v.361h.3602.3602v-.721m0 0v-.36l.3602.36m0 0h.3603m0 0h.3602m0 0v.36h.3602m0 0v.361l.3602.36m0 0v-.36m0 0v-.361m0 .361h.3603m0 0v-.361m0 0h.3602v.361m0 0h.3602m0 0h.3602.3603m0 0h.3602m0 0v-.361h.3602v-.36m0 0h.7205m0 0v-.36m0 0h.3602v-.36l.7204-.36h.3603.3602m0 0 .3602-.361m0 0h.3602m0 0v.361h.3603v-.361m0 0v-.36m0 0v-.36l.3602-.36m0 0-.3602-.361m0 0v-.36-.36m0 0 .3602.36m-.3602-.36h.3602m0 0v-.36m0 0h.3602.3602.3603m0 0 .3602.36h.7204m0 0h-.3602v.36m.3602-.36v.36m-.3602 0h.3602m0 0v.36.361m0-.721.3603.36m-.3603-.36h.3603m-.3603.721.3603-.361m0 0v-.36m0 .36v.361m0 0v.36m0 0h.3602m0 0 .3602.72m0 0 .3602.361m0 0h.7205.3602.3602m0 0v.36h.3603m0 0h.3602m0 0 .3602-.36m0 0h.3602m0 0h.3603m0 0h.3602l.3602-.361m0 0h.3602m0 0h.3603m0 0h.3602m0 0h.3602v-.36m0 0h.3602m0 0h.3603m0 0v-1.441l.3602-.36-.3602-.36m0 0h-.3603m0 0h-.3602m0 0v.36h-.3602-.3602m0 0-.3603.36m0 0h-.3602m0 0h-.3602-.3602v-.36m0 0h-.3603-.3602m0 0h-.3602m0 0h-.3602v-.36h-.3603m0 0h-.3602m0 0-.3602-.36m0 0h-.3602m0 0-.3603-.361-.3602-.36m0 0v-.36m0 0-.3602-.36h-.3602m0 0v-.361m0 .361-.3603-.361h-.3602m0 0v-.36m0 .36h-.3602m.3602-.36v-.36m0 0v-.36m-.3602 1.08v-.36m0 0-.3602-.36m0 0-.3603-.36m0 0-.3602-.361m0 0h-.3602l-.3602.361h-.3603m0 0-.7204.36m0 0h-.3602m0 0h-.3603m.3603 0v.36m0 0h-.3603m0 0v.36h.3603m0 0v.361m0 0-.3603.36m0 0v.36m0 0v.36m0-.36-.3602.36m0 0v.361m0 0v.36h-.3602v.36m0 0v.36h-.3602m0 0h-.3603m0 0h-.3602m0 0h-.3602m0 0h-.3602v.36m0 0h-.3603m0 0h-.3602-.3602v.361h-.3602m0 0h-.3603m0 0-.7204-.361v-.36h-.3602v-.36h-.3603l-.3602-.36m0 0h.3602v-.36h-.3602-.3602-.3602v-.361l-.3603.361m0 0h-.3602-.3602l-.3602-.361m0 0v-.72m0 0h-.3603m0 0v-.36m0 0-.3602-.361-.3602-.36-.3602-.36h-.3603m0 0 .3603-.36m0 0h.3602l.3602.36m0 0v.36m0 0h.3602m0 0h.3603m0 0-.3603-.36m0 0 .7205-.36-.3602-.361-.3603.361m0 0h-.3602l-.3602-.361m0 0 .3602-.36m0 0h.3602m-.3602 0v-.36m0 .36-.7204.36m1.0806-.36.3603-.36m0 0h-.3603m.3603 0v-.36m-.3603.36.3603-.36m-.3603.36-.3602-.36m0 0v.36m-.7204.72h-.3603m0 0h-.3602m.3602 0-.3602.361v-.361m0 0h-.3602m0 0v.361m0 0h-.3602m.3602 0v.36m-.3602-.36.3602.36m-.3602-.36v.36m.3602 0h.3602m-.7204 0h-.3603m0 0v.36m0 0h-.3602-.3602m0 0v.36l-.3602-.36-.3603.36-.3602-.36m0 0h-.3602m0 0 .3602.36m-.3602-.36v.36m0-.36-.3602.36m.7204 0h-.3602m-.3602 0h-.3603m0 0h-.3602v-.36m0 0-.3602-.36m0 0h-.3602m0 0-.3603-.36m0 0-.3602-.361m0 0h-.3602v-.36-.36h-.3602v-.72h-.3603v-.361m0 0-.3602-.36-.3602-.36m0 0h-.3602v-.36h-.3603v-.361h-.3602m0 0-.3602-.36-.3602-.36m0 0-.3603-.36m0 0-.3602-.36.3602-.361v-.36m0 0v-.36h.3603l.3602-.36h.3602m0 0v-.361h.7205v-.36m0 0 .3602-.36h.3602m0 0h.3602l.3603-.72h.3602m0 0h.3602v-.361h.3602l.3603-.36m0 0h.3602m0 0 .7204-.36m0 0h.3603.3602m0 0h.3602.3602.3603v.36m0 0h.3602m0 0h.3602.3602.3603v-.36m0 0h.3602.3602v-.36m0 0h.3602m0 0v-.361l.3603-.72h-.3603m0 0v-.36m0 .36.3603-.36h-.3603m0 0h-.3602m0 0v-.36h.3602.3603m0 0v-.361m0 0 .3602-.36m0 0v-.36m0 0h.3602m-.3602 0 .3602.36m0-.36v.36m0-.36h.3602m0 0 .3603-.36v-.361h-.3603m0 0v-.36h.3603m0 0v-.36m0 0-.3603-.36m0 0h-.3602l-.3602-.361-.3602-.36m0 0v-.36l-.3603-.36v-.36-.361-.36-.36l.3603-.36v-.361h.3602v-.36h.3602l.3602-.36v-.36h.3603m0 0h.3602m0 0h.3602m0 0h.3602.3603l.3602-.36m0 0h.3602.3602.3603m0 0h.3602.3602.3602m0 0h.3603m0 0v-.361m0 0v-.36m0 0h.3602v-.36h.3602m0 0v-.36m0 0h.3602.3603v-.361m0 0v-.36l.3602-.36m0 0v-.36-.36h-.3602v-.721h-.3603v-.36m0 0v-.36h.3603v-.361h.3602m0 0 .3602-.36.3602-.36h.3603m0 0h.3602m0 0h.3602.3602l.3603-.36m0 0h.3602l.3602-.36m0 0 .7205-.361m0 0h.3602m0 0h.3602m0 0 .7205-.36m0 0h.3602.3602m0 0h.3602m-.3602 0v.36h-.3602m0 0 .3602.361m0 0v.36m0 0h.3602v.36h.3603m0 0v-.36m0 .36.3602.36m-.3602-.36h.3602m0 .36v-.36m0 0h.3602m0 0 .3602-.72m0 0 .3603-.361m0 0v-.36m0 0v-.36m0 0-.3603-.36v-.361h-.3602v-.36l-.3602-.36m0 0v-.36l-.3602-.361m0 0v-.36-.36m0 0 .3602-.36m0 0 .3602-.36m-.3602.36h.3602v-.36m0 0v-.361m0 0h.3602m0 0v-.36m0 0-.3602-.36h-.3602m0 0h-.3602m0 0h-.3603m0 0v.36m0 0h-.3602m0 0h-.3602m0 0v.36m0-.36h-.3602m0 0v.36m0-.36h-.3603m0 0h-.3602v-.36l-.3602-.721-.3602-1.08v-.36-.361m0 0v-.36m0 0 .3602-.36.3602-.721m0 0v-.36h.3602m0 0h.3603.3602.3602.3602.3603m0 0h.3602m0 0v.36h.3602m0 0h.3602l.3603.361h.3602m0 0 .3602-.361m0 0h.3602v-.36h-.3602m0 0-1.4409-.36m1.4409.36h.7205m0 0 .3602-.36m0 0 .3602-.36.3602-.36.3603-.361m0 0 .3602-.72h.3602v-.36m0 0 .3602-.361m0 0 .3603-.36m0 0v-.36h.3602v-.36-.36l.3602-.361m0 0 .3602-.36m-.3602.36h.3602m-.3602 0v.361h.3602v-.361m0-.36v.36m0 0 .3603-.36m0 0h.3602v-.36l.3602-.36v-.361h.3602l.3602-.36v-.36h.3603v-.36h.3602v-.361m0 0v-.36m0 .36h.3602m-.3602-.36h.3602m0 .36v.361m0-.361h.3603m-.3603 0 .3603-.36m-.3603.36v-.36m0 .721.3603-.361m-.3603-.36.3603-.36.3602-.36v-.36h.3602m0 0 .3602-.3606m0 0 .3602-.3602m0 0 .3603-.3603.3602-.7204.3602-.3602m0 0 .3602-.3603.3603-.3602m0 0 .3602-.7204m0 0 .3602-.3603.3602-.3602.3603-.7204v-.3603-.3602l.3602-.3602m0 0 .3602-.3602m0 0v.3602m0-.3602.3602-.3603m0 0v-.3602l.3603-.3602m0 0v-.3602l.3602-.3603m0 0v-.3602m0 0 .3602-.3602v-.3602l.3602-.3603.3603-.3602v-.3602l.3602-.7205m0 0 .3602-.7204v-.3602l.3602-.3603.3603-.7204v-.7205l.3602-.3602m0 0 .3602-.7204v-.3603l.3602-.3602v-.7204l.3603-.3603v-.7204h.3602v-.3602m0 0 .3602-.3603v-.7204l.3602-.3602v-.3603m0 0 .3603-.3602v-.3602-.3602m0 0v-.3603-.3602l.3602-.3602v-.3602l-.3602-.3603m0 0v-.3602-.3602m0 0h-.7205m.7205 0h.3602m-1.0807 0h-.3602v-.3602zm1.0807 0v-.3602m0 0h-.3602l-.3603-.3603m.7205.3603v-.3603l.3602-.3602m0 0 .3602-.3602v-.3602m0 0v-.3603l.3603-.3602v-.7204m0 0 .3602-.7205m0 0v-.3602-.3602-.3603m0 0v-.3602l.3602-.7204m0 0v-.3603m0 0v-.3602m0 0v-.3602-.3602m0 0 .3602-.7205m0 0v-.3602m0 0v-.3602-.3603m0 0v-.3602-.3602m0 0v-.3602m0 0v-.3603m0 0 .3603-.7204v-.3602-.7205m0 0v-.3602m0 0v-.3602m0 0v-.3603l.3602-.7204m0 0v-.3602-.3603m0 0v-.3602-.3602-.3602m0 0v-.3603m0 0 .3602-.3602h-.3602l.3602-.3602h-.3602v-.3602m0 0v-.3603m0 0v-.3602l.3602-.3602m0 0v-1.0807l.3602-1.0806v-.3603l.3603-.3602v-.3602l.3602-.3602m0 0v-.3603l.3602-.3602m0 0v-.3602-.3602m0 0v-.3603h.3602v-.3602-.3602-.3602-.3603m0 0 .3603-.3602v-.3602m0 0v-.3602-.3603h.3602v-.3602m0 0v-.7204m0 0 .3602-.7205v-.3602m0 0v-.7205-.3602-.3602-.3602-.3603-.3602-.3602-.3602l.3602-.3603m0 0v-.7204m0 0v-.3602m0 0 .3603-.3603v-.3602m0 0 .7204-.3602h.3602m0 0h.3603.3602.3602m0 0h.3602m-.3602 0 .3602.3602m-.3602-.3602v.3602m.3602-.3602v.3602m0 0h.3603m-.3603 0 .3603-.3602h.3602v.3602.3602.3603l-.3602.3602m-.7205-1.0807.3602.3602m0 0h.3603m0 0v-.3602m0 1.0807v.3602m0 0v.3602m0 0v.3603l.3602.3602h-.3602l.3602.3602m0 0 .3602.3602m0 0v.3603h.3602l.3603.3602m0 0h.3602l.3602.3602m0 0 .3602.3602.3603.3603h.3602m0 0h.3602m0 0h.3602v-.3603h.3603.3602m0 0 .3602-.3602m0 0 .7205-.3602m0 0h.3602v-.3602l.3602-.3603.3602-.3602v-.3602m0 0 .3603-.3602m0 0h.3602m0 0h.3602v-.3603h.3602.3603m0 0h.3602m0 0h.3602.3602v-.3602m0 0v-.3602m0 .3602h.3603m-.3603 0 .3603.3602m-.3603-.7204.3603.3602m0 0v.3602m0-.3602.3602.3602m-.3602 0h.3602m0 0 .3602-.3602m0 0h-.3602m.3602 0 1.8011-1.8011.3603-.3602 1.0806-.7205.3603-.3602 1.0806-1.0807m0 0 1.0806-1.0807h.36v-.3602m0 0h.361m-.361 0 .361.3602v-.3602m0 0 2.161-1.8011.36-.3602.36-.3603.361-.3602.36-.3602m0 0h.36m0 0 .72-.3602m0 0h.361m0 0-.361-.3603m.361.3603h.36m-.721-.3603h.361m0 0 .36.3603m-.36-.3603h.36m0 .3603v.3602m0-.3602v-.3603m0 .3603h.36v-.3603h.36l1.081-1.0806m0 0v-.3603m0 0v-.3602m0 0v-.3602l.36-.3602h.361m0 0 .36-.3603v-.3602-.3602l.36-.3602v-.7205-.3602-.3602-.3603-.3602m0 0v-.3602m0 0h-.36m.36 0-.36-.3602m.36.3602v-.3602m-.36.3602v-.3602m0 0h.36m0 0h.36m-.36 0 .36-.3603m-.36.3603v-.3603m.36 0 .36-.3602m-.36.3602v-.3602m0 .3602h-.36m.72-.3602h.361v-.3602m-.361.3602v-.3602m0 .3602h-.36m.721-.3602v-.3602l-.361.3602m0 0-.36.3602m.36-.3602v-.3602-.3603l.361-.3602v-.3602m0 0 .36-.3602m0 0 .36-.3603.36-.3602.361-.3602m0 0 .36-.3602m0 0 .36-.3603m0 0 .36-.3602m0 0h.36l.361-.3602m0 0h.36l.36-.3602v-.3603m0 0h.36v-.3602m0 0h.361v-.3602h.36v-.3602-.3603l.72-.7204.36-.3602h.361v-.3603h.36m0 0h.36v-.3602h.36m0 0h.361m0 0 .36-.3602m0 0h.36v-.3602h.36m0 0h.36m0 0h.361v-.3603m0 0h.36m0 0h.36m0 0v-.3602h.36m0 0h.361m0 0 .36-.3602m0 0h.36m0 0 .36-.3602m0 0 .36-.3603v.3603l.361-.3603m0 0h.36v-.3602h.36m0 0 .36-.3602h.361m0 0h.36m0 0 .36-.3602m0 0h.36m0 0h.361v-.3603h.36m0 0 .36-.3602m0 0h.36v-.3602h.36m0 0h.361l.36-.3602m0 0 .36-.3603m0 0h.36m0 0-.36-.3602m.36.3602v-.3602m0 .3602h.361m-.721-.3602h.36m.361.3602h.36m0 0h.36m0 0h.36m0 0h.36m0 0h.361l.36-.3602h.36.36.361v-.3602m0 0h.36.36m0 0h.36.36v-.3602h.361m0 0h.36m0 0h.36m0 0h.36m0 0 1.081-.3603m0 0 .36.3603.36-.3603v.3603l.361-.3603m0 0v.3603m0-.3603h.36m0 0h.72v.3603h.361m0 0h.36m0 0h.36l.36-.3603 1.081-.3602m0 0h.36m0 0 .36.3602m0 0v-.3602m0 .3602h.361m0 0h.36m-.36 0 .36-.3602m0 .3602v-.3602m0 .3602 1.441-.3602m0 0h.36m0 0h.36l.36.3602.721.3603.36.3602m0 0h.36m0 0v.3602m0-.3602h.361m0 0v-.3602l.36.3602v-.3602m0 0h.36v-.3603h.36m0 0-.36-.3602m.36.3602h.36v-.3602m0 0h.361m0 0h.36m0 0h.36l.36-.3602m0 0v.3602h.361l.36-.3602h.36m0 0h.36.36v-.36023h.361m0 0h.36.36.36.361m0 0 .36-.36022h.36.36m0 0h.36m0 0h.361m0 0h.36m0 0 .36-.36023.36.36023 1.081-.36023v-.36022h.36m0 0h.361.36m0 0 .36-.36023h.36m0 0 .36-.36022m0 0h.361m0 0 .72-.36023h.36m0 0 .361-.36022m0 0h.36.36.36m0 0 .36-.36022h1.081.721.36m0 0h.36.36m0 0h.36v.36022h.361.36l.36.36022m0 0 .36-.36022.361-.36022m0 0 .72.36022m0 0v.36022m0-.36022h-.36m.36.36022-.72-.36022m.72.36022v.36023m-.36-.72045h-.36m.72.72045-.72-.36023m.72.36023h-.72m.72 0v.36022m-.72-.72045v.36023m.72.36022-.36-.36022v.36022m.36 0h-.36m.36 0h.36m0 0h.36m-.36 0h.721v.36023l-.361-.36023m-.36 0v-.36022-.72045m0 0v.36022h.721l.36.36023m0 0 .72.72045m0 0v.36022l-.36.72045v.36023.7204l.36.3603m0 0v.3602h.361l-.361.3602m0 0h.361m0 0v.3602.3603m0 0v.3602.3602m0 0v.3602m0 0v.3603h.36v.3602m0 0v.3602m0 0v.3602h.36m0 0 .36.3603h.361v.3602m0 0h.36m0 0v.3602m0 0h.36v.3602m-.36-.3602.36.3602m-.36-.3602h-.36m.72.3602h.36.36l.361.3603m-1.081-.3603.36.3603m-.36-.3603h-.36m.36 0v.3603m1.081 0h.36l.36.3602m-.72-.3602.36.3602m-.36-.3602h-.721m.721 0h-.361m1.081.3602h.36m-.36 0h-.36m.36 0 .36.3602m0-.3602h.361m-2.162-.3602h-.36m.36 0h.36m-1.44-.7205v.3602h.36m2.521 1.0807h.361l.36-.3602m0 0v.3602m0 0v.3602m0 0h.36l.36.3603m0 0 .36-.3603m0 0v.3603h.361m0 0h.72.36m0 0h.361m0 0v-.3603h.36m0 0h.36m0 0v-.3602m0 .3602-.36.3603m0 0v.3602h-.36m0 0v.3602m0 0 .36.3602-.36.3603m0 0v.3602m0 0v.3602m0 0v.3602m0 0v.3603l.36-.3603v.3603m0 0v.3602h.36m0 0h.36m0 0v.3602h.36m0 0v-.3602m0 .3602h.361m0 0h.36m0 0h.36m0 0v.3602h.36m0 0h.361m0 0h.36m0 0 .36.3603m0 0v.3602h-.36m.36-.3602v-.3603m0 .3603h.36m0 0h.36m0 0h.361m0 0h.36m-95.0994 123.5567v.361m0-.361h-.3602m.3602 0-.3602.361m.3602 0-.3602.36m.3602-.36h-.3602m0-.361v-.36m0 .36h-.3603m.3603-.36h.3602m-.3602 0v-.36m.3602.36h.3602m-.3602 0v-.36m-.7205.72v-.36m0 .36h-.3602m.3602-.36v-.36m0 .36-.3602-.36v.36m.3602 0h-.3602m.3602 0-.3602.36m.3602-.72h.3603m-.7205.72v.361m0 0h.3602m0 0 .3603.36m0 0v-.36m-.3603 1.801h.3603m0 0v-.36m-1.8012-.721v-.36m2.5216-1.801v.36m-.7204 0h.3602m0 0h.3602" stroke="#1e1d3d"/><path d="m14.304 230.828h7.872v3.936h-1.2v14.736h-6.744l-7.032-10.824v6.888h1.152v3.936h-7.872v-3.936h1.2v-10.8h-1.2v-3.936h8.664l6.312 9.624v-5.688h-1.152zm8.7932 18.672v-3.936h1.2v-10.8h-1.2v-3.936h16.2v7.248h-5.376v-3.312h-2.904v3.792h2.112v2.736h-2.112v4.272h2.904v-3.792h5.376v7.728zm35.0134-12.864h-4.128v-1.872h-1.536v10.8h1.68v3.936h-10.08v-3.936h1.68v-10.8h-1.536v1.872h-4.128v-5.808h18.048zm20.0225-1.872h-1.2v10.8h1.2v3.936h-9.072v-3.936h1.152v-3.96h-3.36v3.96h1.152v3.936h-9.072v-3.936h1.2v-10.8h-1.2v-3.936h9.072v3.936h-1.152v3.648h3.36v-3.648h-1.152v-3.936h9.072zm.9563 14.736v-3.936h1.2v-10.8h-1.2v-3.936h16.2v7.248h-5.376v-3.312h-2.904v3.792h2.112v2.736h-2.112v4.272h2.904v-3.792h5.376v7.728zm17.1094-3.936h1.2v-10.8h-1.2v-3.936h11.0162c2.064 0 3.64.424 4.728 1.272s1.632 2.224 1.632 4.128c0 1.072-.216 2-.648 2.784s-1.048 1.328-1.848 1.632l.024.24c1.536.24 2.304 1.184 2.304 2.832v1.848h1.128v3.936h-7.608v-5.64c0-.624-.096-1.096-.288-1.416-.176-.32-.464-.536-.864-.648-.384-.112-.936-.168-1.656-.168v3.936h1.584v3.936h-9.5042zm9.2162-6.864c.464 0 .808-.12 1.032-.36.24-.256.36-.648.36-1.176v-.864c0-.528-.12-.912-.36-1.152-.224-.256-.568-.384-1.032-.384h-1.296v3.936zm9.979 10.8v-3.936h1.2v-10.8h-1.2v-3.936h10.128v3.936h-2.208v10.8h2.16v-2.208h4.776v6.144zm33.296-3.936h.96v3.936h-9.408v-3.936h1.44l-.384-1.92h-3.264l-.384 1.92h1.44v3.936h-8.208v-3.936h.96l4.056-14.736h8.736zm-10.128-4.464h2.208l-.984-4.776h-.24zm25.672-10.272h7.872v3.936h-1.2v14.736h-6.744l-7.032-10.824v6.888h1.152v3.936h-7.872v-3.936h1.2v-10.8h-1.2v-3.936h8.664l6.312 9.624v-5.688h-1.152zm8.793 14.736h1.2v-10.776h-1.2v-3.96h9.744c2.672 0 4.792.736 6.36 2.208 1.584 1.456 2.376 3.832 2.376 7.128s-.792 5.68-2.376 7.152c-1.568 1.456-3.688 2.184-6.36 2.184h-9.744zm9.312 0c.544 0 .952-.144 1.224-.432s.408-.736.408-1.344v-7.248c0-1.184-.544-1.776-1.632-1.776h-1.392v10.8zm17.417 4.272c-1.536 0-2.992-.128-4.368-.384-1.36-.272-2.408-.576-3.144-.912v-4.752h5.28c0 .496.112.856.336 1.08s.632.336 1.224.336c.496 0 .848-.072 1.056-.216.224-.16.336-.392.336-.696 0-.256-.104-.472-.312-.648-.208-.192-.568-.384-1.08-.576l-2.064-.72c-1.776-.672-3.056-1.464-3.84-2.376-.768-.912-1.152-2.144-1.152-3.696 0-1.888.616-3.32 1.848-4.296 1.248-.992 3.32-1.488 6.216-1.488 1.392 0 2.696.144 3.912.432 1.232.272 2.224.64 2.976 1.104v4.296h-4.8c0-.8-.496-1.2-1.488-1.2-.48 0-.824.064-1.032.192-.192.112-.288.32-.288.624 0 .272.112.488.336.648.24.16.624.328 1.152.504l2.088.72c1.696.576 2.928 1.328 3.696 2.256.784.912 1.176 2.112 1.176 3.6 0 2.032-.688 3.568-2.064 4.608-1.36 1.04-3.36 1.56-6 1.56z" fill="#ff0068"/><path d="m18.096 282.564h.96v3.936h-9.408v-3.936h1.44l-.384-1.92h-3.264l-.384 1.92h1.44v3.936h-8.208v-3.936h.96l4.056-14.736h8.736zm-10.128-4.464h2.208l-.984-4.776h-.24zm38.3199-6.336h-1.2v10.8h1.2v3.936h-9.072v-3.936h1.152v-8.4l-4.08 12.336h-3.552l-4.2-12.216v8.28h1.152v3.936h-7.872v-3.936h1.2v-10.8h-1.2v-3.936h10.992l2.496 7.488 2.4-7.488h10.584zm8.3899 15.072c-1.536 0-2.992-.128-4.368-.384-1.36-.272-2.408-.576-3.144-.912v-4.752h5.28c0 .496.112.856.336 1.08s.632.336 1.224.336c.496 0 .848-.072 1.056-.216.224-.16.336-.392.336-.696 0-.256-.104-.472-.312-.648-.208-.192-.568-.384-1.08-.576l-2.064-.72c-1.776-.672-3.056-1.464-3.84-2.376-.768-.912-1.152-2.144-1.152-3.696 0-1.888.616-3.32 1.848-4.296 1.248-.992 3.32-1.488 6.216-1.488 1.392 0 2.696.144 3.912.432 1.232.272 2.224.64 2.976 1.104v4.296h-4.8c0-.8-.496-1.2-1.488-1.2-.48 0-.824.064-1.032.192-.192.112-.288.32-.288.624 0 .272.112.488.336.648.24.16.624.328 1.152.504l2.088.72c1.696.576 2.928 1.328 3.696 2.256.784.912 1.176 2.112 1.176 3.6 0 2.032-.688 3.568-2.064 4.608-1.36 1.04-3.36 1.56-6 1.56zm26.6359-13.2h-4.128v-1.872h-1.536v10.8h1.68v3.936h-10.08v-3.936h1.68v-10.8h-1.536v1.872h-4.128v-5.808h18.048zm.8226 12.864v-3.936h1.2v-10.8h-1.2v-3.936h16.2v7.248h-5.376v-3.312h-2.904v3.792h2.112v2.736h-2.112v4.272h2.904v-3.792h5.376v7.728zm17.1093-3.936h1.2004v-10.8h-1.2004v-3.936h11.0164c2.064 0 3.64.424 4.728 1.272s1.632 2.224 1.632 4.128c0 1.072-.216 2-.648 2.784s-1.048 1.328-1.848 1.632l.024.24c1.536.24 2.304 1.184 2.304 2.832v1.848h1.128v3.936h-7.608v-5.64c0-.624-.096-1.096-.288-1.416-.176-.32-.464-.536-.864-.648-.384-.112-.936-.168-1.656-.168v3.936h1.584v3.936h-9.5044zm9.2164-6.864c.464 0 .808-.12 1.032-.36.24-.256.36-.648.36-1.176v-.864c0-.528-.12-.912-.36-1.152-.224-.256-.568-.384-1.032-.384h-1.296v3.936zm9.979 6.864h1.2v-10.776h-1.2v-3.96h9.744c2.672 0 4.792.736 6.36 2.208 1.584 1.456 2.376 3.832 2.376 7.128s-.792 5.68-2.376 7.152c-1.568 1.456-3.688 2.184-6.36 2.184h-9.744zm9.312 0c.544 0 .952-.144 1.224-.432s.408-.736.408-1.344v-7.248c0-1.184-.544-1.776-1.632-1.776h-1.392v10.8zm26.866 0h.96v3.936h-9.408v-3.936h1.44l-.384-1.92h-3.264l-.384 1.92h1.44v3.936h-8.208v-3.936h.96l4.056-14.736h8.736zm-10.128-4.464h2.208l-.984-4.776h-.24zm38.32-6.336h-1.2v10.8h1.2v3.936h-9.072v-3.936h1.152v-8.4l-4.08 12.336h-3.552l-4.2-12.216v8.28h1.152v3.936h-7.872v-3.936h1.2v-10.8h-1.2v-3.936h10.992l2.496 7.488 2.4-7.488h10.584z" fill="#f895b3"/></svg>