<svg fill="none" height="318" viewBox="0 0 282 318" width="282" xmlns="http://www.w3.org/2000/svg"><path d="m11.92 280.44h6.56v3.28h-1v12.28h-5.62l-5.86-9.02v5.74h.96v3.28h-6.56v-3.28h1v-9h-1v-3.28h7.22l5.26 8.02v-4.74h-.96zm7.3277 15.56v-3.28h1v-9h-1v-3.28h13.5v6.04h-4.48v-2.76h-2.42v3.16h1.76v2.28h-1.76v3.56h2.42v-3.16h4.48v6.44zm29.1778-10.72h-3.44v-1.56h-1.28v9h1.4v3.28h-8.4v-3.28h1.4v-9h-1.28v1.56h-3.44v-4.84h15.04zm16.6854-1.56h-1v9h1v3.28h-7.56v-3.28h.96v-3.3h-2.8v3.3h.96v3.28h-7.56v-3.28h1v-9h-1v-3.28h7.56v3.28h-.96v3.04h2.8v-3.04h-.96v-3.28h7.56zm.7969 12.28v-3.28h1v-9h-1v-3.28h13.5v6.04h-4.48v-2.76h-2.42v3.16h1.76v2.28h-1.76v3.56h2.42v-3.16h4.48v6.44zm14.2578-3.28h1v-9h-1v-3.28h9.18c1.72 0 3.0334.353 3.94 1.06.9067.707 1.36 1.853 1.36 3.44 0 .893-.18 1.667-.54 2.32s-.8733 1.107-1.54 1.36l.02.2c1.28.2 1.92.987 1.92 2.36v1.54h.94v3.28h-6.34v-4.7c0-.52-.08-.913-.24-1.18-.1466-.267-.3866-.447-.72-.54-.32-.093-.78-.14-1.38-.14v3.28h1.32v3.28h-7.92zm7.68-5.72c.3867 0 .6734-.1.86-.3.2-.213.3-.54.3-.98v-.72c0-.44-.1-.76-.3-.96-.1866-.213-.4733-.32-.86-.32h-1.08v3.28zm8.3161 9v-3.28h1v-9h-1v-3.28h8.4403v3.28h-1.84v9h1.8v-1.84h3.98v5.12zm27.7463-3.28h.8v3.28h-7.84v-3.28h1.2l-.32-1.6h-2.72l-.32 1.6h1.2v3.28h-6.84v-3.28h.8l3.38-12.28h7.28zm-8.44-3.72h1.84l-.82-3.98h-.2zm21.393-8.56h6.56v3.28h-1v12.28h-5.62l-5.86-9.02v5.74h.96v3.28h-6.56v-3.28h1v-9h-1v-3.28h7.22l5.26 8.02v-4.74h-.96zm7.328 12.28h1v-8.98h-1v-3.3h8.12c2.227 0 3.993.613 5.3 1.84 1.32 1.213 1.98 3.193 1.98 5.94s-.66 4.733-1.98 5.96c-1.307 1.213-3.073 1.82-5.3 1.82h-8.12zm7.76 0c.453 0 .793-.12 1.02-.36s.34-.613.34-1.12v-6.04c0-.987-.453-1.48-1.36-1.48h-1.16v9zm14.514 3.56c-1.28 0-2.493-.107-3.64-.32-1.133-.227-2.006-.48-2.62-.76v-3.96h4.4c0 .413.094.713.28.9.187.187.527.28 1.02.28.414 0 .707-.06.88-.18.187-.133.28-.327.28-.58 0-.213-.086-.393-.26-.54-.173-.16-.473-.32-.9-.48l-1.72-.6c-1.48-.56-2.546-1.22-3.2-1.98-.64-.76-.96-1.787-.96-3.08 0-1.573.514-2.767 1.54-3.58 1.04-.827 2.767-1.24 5.18-1.24 1.16 0 2.247.12 3.26.36 1.027.227 1.854.533 2.48.92v3.58h-4c0-.667-.413-1-1.24-1-.4 0-.686.053-.86.16-.16.093-.24.267-.24.52 0 .227.094.407.28.54.2.133.52.273.96.42l1.74.6c1.414.48 2.44 1.107 3.08 1.88.654.76.98 1.76.98 3 0 1.693-.573 2.973-1.72 3.84-1.133.867-2.8 1.3-5 1.3z" fill="#e55933"/><g fill="#171619"><path d="m15.08 313.72h.8v3.28h-7.84v-3.28h1.2l-.32-1.6h-2.72l-.32 1.6h1.2v3.28h-6.84v-3.28h.8l3.38-12.28h7.28zm-8.44-3.72h1.84l-.82-3.98h-.2zm31.9333-5.28h-1v9h1v3.28h-7.56v-3.28h.96v-7l-3.4 10.28h-2.96l-3.5-10.18v6.9h.96v3.28h-6.56v-3.28h1v-9h-1v-3.28h9.16l2.08 6.24 2-6.24h8.82zm6.9915 12.56c-1.28 0-2.4933-.107-3.64-.32-1.1333-.227-2.0066-.48-2.62-.76v-3.96h4.4c0 .413.0934.713.28.9.1867.187.5267.28 1.02.28.4134 0 .7067-.06.88-.18.1867-.133.28-.327.28-.58 0-.213-.0866-.393-.26-.54-.1733-.16-.4733-.32-.9-.48l-1.72-.6c-1.48-.56-2.5466-1.22-3.2-1.98-.64-.76-.96-1.787-.96-3.08 0-1.573.5134-2.767 1.54-3.58 1.04-.827 2.7667-1.24 5.18-1.24 1.16 0 2.2467.12 3.26.36 1.0267.227 1.8534.533 2.48.92v3.58h-4c0-.667-.4133-1-1.24-1-.4 0-.6866.053-.86.16-.16.093-.24.267-.24.52 0 .227.0934.407.28.54.2.133.52.273.96.42l1.74.6c1.4134.48 2.44 1.107 3.08 1.88.6534.76.98 1.76.98 3 0 1.693-.5733 2.973-1.72 3.84-1.1333.867-2.8 1.3-5 1.3zm22.1966-11h-3.44v-1.56h-1.28v9h1.4v3.28h-8.4v-3.28h1.4v-9h-1.28v1.56h-3.44v-4.84h15.04zm.6855 10.72v-3.28h1v-9h-1v-3.28h13.5v6.04h-4.48v-2.76h-2.42v3.16h1.76v2.28h-1.76v3.56h2.42v-3.16h4.48v6.44zm14.2578-3.28h1v-9h-1v-3.28h9.18c1.72 0 3.0333.353 3.94 1.06s1.36 1.853 1.36 3.44c0 .893-.18 1.667-.54 2.32s-.8733 1.107-1.54 1.36l.02.2c1.28.2 1.92.987 1.92 2.36v1.54h.94v3.28h-6.34v-4.7c0-.52-.08-.913-.24-1.18-.1467-.267-.3867-.447-.72-.54-.32-.093-.78-.14-1.38-.14v3.28h1.32v3.28h-7.92zm7.68-5.72c.3867 0 .6733-.1.86-.3.2-.213.3-.54.3-.98v-.72c0-.44-.1-.76-.3-.96-.1867-.213-.4733-.32-.86-.32h-1.08v3.28zm8.3161 5.72h1v-8.98h-1v-3.3h8.1202c2.226 0 3.993.613 5.3 1.84 1.32 1.213 1.98 3.193 1.98 5.94s-.66 4.733-1.98 5.96c-1.307 1.213-3.074 1.82-5.3 1.82h-8.1202zm7.7602 0c.453 0 .793-.12 1.02-.36.226-.24.34-.613.34-1.12v-6.04c0-.987-.454-1.48-1.36-1.48h-1.16v9zm22.389 0h.8v3.28h-7.84v-3.28h1.2l-.32-1.6h-2.72l-.32 1.6h1.2v3.28h-6.84v-3.28h.8l3.38-12.28h7.28zm-8.44-3.72h1.84l-.82-3.98h-.2zm31.933-5.28h-1v9h1v3.28h-7.56v-3.28h.96v-7l-3.4 10.28h-2.96l-3.5-10.18v6.9h.96v3.28h-6.56v-3.28h1v-9h-1v-3.28h9.16l2.08 6.24 2-6.24h8.82z"/><g stroke="#fff" stroke-width=".5"><path d="m220.714 52.9483 1.821.6728.845-2.2243.492-.1514.156-1.4169 1.017-2.6994.114-.7526.412-.4079.45-.7442.26-.0883.299-.3111.092-.8494.114-.2228.652-.2775.92-.6181.072-.1346.471-.1219.588-.5634.038-.3911 1.127-.2186 1.123-.3658.597.0084.559-.143 1.804.7863.467.0252.445.862-.025.2228.252.0084.984 1.7198.48 1.337.845-.3658.159.0253.291.4961v.4205l.206.8073h.555l.857.7526.332.4415.299.1135.446 1.2278.294.2312.151.5214.286.1429.017.7611 2.746-1.2488 1.143-.3111 2.763.1471.525.3532.333.4751 2.863 2.9391 1.316 1.5137 1.051.9838 3.793 4.3266 3.166 3.1871 1.896 2.6153 3.448 5.2096.08-.021.563.5802 1.405.3742-1.888 4.5873 1.581.1682.206.7778.248-.021.984 1.4422.172.0631.261.3742.181.0546.269-.1513.075.042-.168.5172-.059.6265 1.337-.0673-1.391 3.1535.008 1.2404-1.177 16.7974.054.252-.925 1.094-.407-.253-.492.021-1.077-.26-.336-.232-.177-.26-.807.054-.618-.416-.517-.164-.459.484-.525-.055-.442.446-.504-.063-.618.172-.522-.227-.13-.156-.589.013-.189-.669-.719-.206-.176.03-.337-.248-1.051.109-.475-.395-.711.437-.534-.021-.223.097-.988-.37-.269.063-.685.416-1.001-.164-.21-.239-.685.075-.223-.197-.358-.021-.5.1-.378.207-.219.349-.606-.219-.365.273-.139-.197-.589.252-.904.963-.265.403-.626.307-.252.45-.766-.046.24-.677-.134-.227.428-.471-.096-.219-.139-.046.34-.774-2.27-.79-4.049-1.9257-4.247.9547-.546.307-1.989 1.639-.046.206.147 1.27.206.614.185 1.833-.097.19h-.156l-.033-.232-.152-.012-.113-.274-.299-.021-.18-.336h-.421l-.399-.177-.425-.021-.139.118-.504-.055-.076-.172-.277-.109.012-.274-.294-.155-.257.811-.214.227-.732.219-.391-.063-.399-.252-.223-.286.021-.425-.181-.176-.071-.249-.185.337-.4.294-.046.252-.193.156-.602-.307-.21.383-.635-.021-.164.281-.601.32-.093-.025-.058-.303h-.169l-.243-.328-.034-.353-.198-.337.063-.449-.286-.404-.109-.534-.42-.526.067-.143-.294-.218-.206.021-.135-.143-.038-.227-.605-.362-.168-.218-.518-.185-.492-.442-.021-.492.181-.2185-.227-.3911-.399.021-.824.3911-.509.0335-.24.353-.223.03-.193-.11-.408-.5546-.244-.0336-.294.3702-.181.033-.336-.2182-.227-.307-.475-.0336-.392-.2943-.353-.5929-.365.0337-.505-.2523-.072-.1514-.189.0673-.597-.3406-.071-.2859-.53.1976-.357.0126-.358.492-.853-.1009-.16-.185-.513.2102-.32-.6601-.218-.2061-.084.0547-.227-.143-.413-.5466-.34-1.1815-.753-1.644-1.345-3.4646.302-.5256.143-.1009 1.531-.37 1.291-.6475.08-.5298 2.169-2.4009-.433-.4373-1.261-1.7365-.475-.2649-2.359-2.7456-.332-.4373-.147-.4289-.509-.6601 2.804-2.1654 2.792-1.7954 1.77-2.4639.845-.6685.307-.5971.484-.3069.42-.0337 2.733.2649 2.09 2.1444 3.94-2.8171 2.321-4.3939-4.352-6.761.29-3.7548-3.969-1.501z"/><path d="m161.53 115.051-.265-.097-.021-.219.134-.142.169-.875.866-2.065.517-.512 1.097-.534.139-.253-.013-.218-.765-2.359-3.691-5.946.151-.109 3.721 5.945.786 2.544-.168.534-1.253.589-.391.437-.883 2.149zm18.938-33.8518.664.1304.525.5172.455-.185-.413-1.2404 1.333.4078 2.41 2.4387.412 1.5936.248-.143.593 1.0554.899.7905.013.2102h1.219l.139.0967.786.143.585.2859 1.303.8998.391.5466.677.5802.4.2523.239.0126 1.283 1.2194.239.3742.471 1.2151.673 2.3252.467.2396.227.3953v.3826l.134-.0126.219.1766.286.6349.013.3826-.173.2859-.214.0337-.379.4499-.618.4288-.752.8536.025.3742.16.185.286.0336.008-.1513.887.349.458.0336.644.2184 1.059.929 1.085.295.791.786.168.273.012.164-.344.404-1.497.996-2.203.48-.101.239-1.531.862-.984.122-.332-.361-.534-.206-3.919.862-.344.143-.181.294-3.944-.013-.025 2.885 1.568-.021.614.109 2.834 3.023.206.622.525 3.003-.458 2.039-.412.601-.172 1.047-.421 1.156.009.206-.127.131-.466-.152-.185.089-.93 1.774-.021.122.379.555-.732 1.068-.139.425-1.295 1.274-.525.315-1.417 1.308-.24.067-.08.151-1.038.837-.173-.013-.252-.227-.139.034-.037.151.113.206-.341.274-.159.273-.48.349-.731.294-.559.543-.627.185-.618-.013-1.816 1.556-.32-.337-.24-.075-1.648.782-.454.37-.307-.379-.227-.033-.963.206-.168.164-.778 1.206-2.203 6.808-.446 1.215-.244.349-7.391 2.115-.984.378-1.291-1.106-3.381-3.342-1.602-1.585-1.955-1.291-4.091-1.03-4.625.79-.454-.261-.488-.609.093-.089-.114-.206.454-.412-.593-.563-.172-.013-.072.089-.054-.097.206-.227.071-.294-.113-2.107-.686-1.303.013-.644 2.275-1.37.34-.783 3.019-1.782.787-.021.306-.164.206-.143.408-.719 1.346-.829 8.594-6.054.673-.097.412-.24 2.573-2.312.126-.416-.214-.37-.038-.513-.172.096-.24-.012.059-.581.252-.067.059.164.08-.176.307-.089.311-.281.593-1.375.433-.568 2.022-.122.282-.122 2.254-2.153.071-.109-.273-.294.231-.232.24.219-.101.076.08.067 1.883-1.934 4.453-1.291.627-.559h.193l.66-.656-2.102-3.389-1.19-.875-.025-.096.244-.089-.312-.403-.42.075.114-11.2301 4.444-7.232.412-.2523 2.628-.328.193-.0336z"/><path d="m170.978 81.935.042.143-.139.0126-.593-.2313.092-.1009h.387zm-2.721-.4919-.294-.1304.071-.0546.219.0756v.1094zm-8.09-13.047-.092-.1094.067-.2186.114.1303zm-.58-4.4107-.126-.3658.055-.0757.126.3742zm-1.888-9.1283.173.3196.248.1009.298-.0757.353.3658.148.6517.433.8409-1.283-.0883-.138-.3994-.438-.6307-.147-.9839.038-.0883zm-2.337.0673.088.3195-.059.143-.231-.0757-.274.164-.185-.0547-1.724.4962-5.461 4.8143-.034.2859-.311.2523-.152-.1093-.231.1892.307.1219.24-.1892.046.0547-.252.2102-.412-.1219-2.363 2.0518-.274-.3658 2.317-2.0308-.038-.2439.307-.164-.248.2103.042.1429 6.219-5.487.282-.1556 1.69-.4625.042-.0757.214.1303.253-.0672.059-.101zm-17.446-25.8586 1.762.3322.093.0546.08.5004-.307.1892-.206.2901-.299-.1345.126.2312-.277-.1093-.526-.021-.992.2775-.513.5214-.82.5676-1.106.5088-2.455.8661-1.19.5887-.118.2649.433 1.0427-.126.1556-.379.0673-.113.1429-.034.5887.181.0756-.126.4121-1.623.6643-.904.9755-.408.1976-.9-.0757-.563.101-1.219.6643-.333.021-.218-.1766-.328-.6223.008-.3195 3.768-2.3841.571-.5087 1.409-1.6524 1.013-.8199 3.911-2.6658.904-.2565 1.324-.555zm4.68 1.9341-.214.3112-.278.0462-.353.4541-.151.0547-.299-.143-.374.0673.008-.2228.24-.021.139-.1682-.173-.3112-.286-.0883.631-.6223.067-.1682.614-.4456.387-.5004.227-.143.4-.021.197.3995-.046.3321-.366.7232zm3.192-11.4492-.043-.0883.152-.1766zm66.626-1.8921-1.551 2.2621.054 1.4128.341 1.0007.227.3574.479.3994 2.195.6013.286.1555.248.3785.185.7021.295.3574.466-.0546.778-.5466 1.106.2649 1.219.534-.353 3.0778.025.1009.627.1429.172.2649-.391.4541-.58.2103-.206.3321-.034.3868-.197.2313-.08.4667-.101.0799-.517-.1556-.492.2902-.118 1.2782.227.6559-.034.3868h-.185l-.159.1682-.173-.2228-.126.0126-.172.3532-.286.2564.033.3112-.113.2312-.404.1556.194.2775-.042.1682-.299.2439.093.3111-.026.5424-1.152.1892.185.698.547.4331.105.534.286.3868-.105.4961-.215.2439-.1.4121-.312.5213-.433.3532-.239.3784-.4.0463-.197.1346-.093.5886-.437.4205-.105.3532-.854 1.5725-.185 1.1647-.105 2.8003 1.19 1.4842.837.74 2.19.3322 1.838-.0757.971.5214.488.4751.391.6181 1.597.6391-.538 1.48 3.965 1.5011-.286 3.7547 4.352 6.7611-2.321 4.3939-3.94 2.8171-2.089-2.1444-2.733-.2649-.421.0337-.487.3069-.307.5928-.846.6728-1.77 2.4639-2.796 1.7912-2.8 2.1654-.82.6937-.807.5172-.358.0337-.332.185-.252.2648-.299.0547-.866-.1009-.752.3069.218 1.0974-.134.2397-1.005.6139-.564.2312-.298-.6054-.757.1009-.551.185-.206.1766-.219.0126-.285-.0547-.341-.3069-.252-.0547-.311-.8451-.387-.5718-.206-.8452-.9.1977-.294.1976-.08.164.071.4162-.618-.2523-.319.1304-.694.0883-.025.2312-.274.1304.101.185-.08.1219-.012.5508-.597.3953-.341.5171-.58.3616-.253.3953-1.391.6601-.32-.0336-.614-.328-.311.0126-.239-.1429-.627.021-.357-.185-.261.2396h-.16l-.147-.4499-.811-.4625-.101-.1639-1.59 1.11-.248.1429-.412-1.5935-2.409-2.4387-1.333-.4079.412 1.2404-.454.185-.526-.5172-.664-.1303.046-.4709-.168.185h-.126l-.114-.143-.206.1976-.159-.1639.025-.328-.16-.1303-.87-.1304-.808.0421.135-.3827-.088-.0336-.148.4415-.227.042-.012.2313-.215-.1766-.492.0547-.037-.143-.265-.2102.159-.1304-.033-.7484-.744-.5508-.433.1093-1.346.925-.929-.1303-1.19.2733-.16.2985-.139.7148-.147.1556-.79.4625-.95.1976-.328-.042-1.476-.5719-2.754-1.274-1.691-.5045-.437-.0337-.206.1009-.046.2523-.639.0547-.95.3195-.593-.2102-1.237-.7148-1.017-1.0974-.858-.6265-.34-.3952.105-.2103-.047-.1093-.311-.0547-.458-.7568.311-.2733.198-.3952.66-.7611.946-.4288.273-.2733.686-.1892.365-.5172.068-1.1227-.135-.2312-.218-1.5095-.366-.4415.353-.3069.227.0673.172-.122-.033-.1009-.244.021.025-.1009.261-.021.101.1304.092-.101-.008-.7694.059-.0757.134.143-.008-.122-.206-.3069-.025-.2733-.215.0757-.105-.0673.492-.1219.067-.5088-.357-1.3329-.139-.1555-.126-.4752.034-.2312-.135-.0757-.093-.5845.026-1.0805-.173-.1977.581-.9796-.139-.2187.16-.9166-.169.0547-.42-.2187.08-.4961-.185-.1093.067-.122h.24l.046-.4625.088.1556.093-.021-.206-.6055.118-1.047-.198.74-.034.862-.252.1766-.172-.1892-.026-.3742-.252-.5298-.185-.2985-.467-.4205-.105-.6517.093-.0883h.42l.08.2859.265.0126v-.2859l.282-.021.206.3321.307-.042-.311-.74-.24-.2775-.194-.4289-.126-.4962.093-.3742-.093-.4415-.605-1.316-.114-.0547-.248.0547-1.669 1.5683-.467.2229-.113.2102-.198-.021-.185-.6181.088-.1009.139.0883.387-.122.261-.1766 1.858-1.7995.126-.1766.185-.8956-.138-.2439.037-.1345 1.077-.6518.567-.74.379-1.3623.185-2.4807.206-.9293-.021-.4667-.358-.1976-.088-.2439.24-.2438.08-.2313.479-.2649.08-.2775-.101-.0673.534-1.6272.311-.576.265-.7989.677-1.0848.996-.8871 1.312-1.4843.547-.2228.786-.6097.799-.4541.151-.1892.719-.3995.652-.7988 1.203-1.1101.403-1.131 1.85-1.8669 1.876-.967.824-.1766 2.502-.9461.618-.1219.597-.2986.445-.021.719-.5214 4.159-2.4344 1.539-.6013.626-.3658.282-.0547.181-.1892.971-.2565.765-.534 1.438-.7988 1.013-.3322.379-.4121.71-.2018.299-.1892-.719-1.0343.046-.1009.185.2564.147-.1555.127.2775-.093.1429.378.534.539.0883.412-.2354.963.1345 1.917-.5676.79-.3574.812-.1093.101-.2103.181.1892.992-.1766 1.77-.5676 1.791-.1429 1.724-.3112 1.072.2901.118-.2901.135.2901.281-.433.135.2018.614.021 2.174.391 2.64-1.2487.446-.0337zm-44.258-3.9692-.773.0673-.072.1345.114.1346 1.774-.2439.265.0337.151.3027-.197.7695-1.026.5886-.311.0883-.467.1009-.126-.0547.059-.0882-.072-.0547-.113.0883-.152-.0463-.778.6013-1.164.6013-.618-.0883-.354-.3238-.046.2775.173.3028-.009.3658-.647-.1556-.534-.391-.366-.0673-.046.1429.079.0883.82.5803 1.03.391-.126.1556-.197-.143-.181.0547-.147.1682.126.1093-.185.1219-.627.143-2.749-.0883-.879.0546-1.039.2691-.546.2439-1.253 1.2782-.778.5214-.454.1766-.332.021-.598.4331-.786-.2901-.16.3111-.424.2102h-.332l-.194.2691-.059.2649-.597-.0672-.618-.2355-.664.2355-.58-.1766-1.039.9124-.046-.1093-.265-.122-1.098.1346-.277.3784.034.534-.093.0799.101.1892-.231.0336-.253-.2018h-.273l-.105.1682-.328.1766-.378.5129-.345.1682-.294.3658-.787-.1892-1.026-.6559-.092-.1556-.185-.925v-.4541l.374-.4667 1.06-.9334.66-.9797.26-.656h.08l-.071.3322.113-.0126.072-.4247.286-.3321-.034-.0799-.256.0294.193-.1345 7.081-1.3245 1.278-.3111.181.1555.345-.0462 6.475-2.1066.311-.3111 1.299-.3658 4.02-1.6146 1.312-.2439.698.0127.327.0672.114.143-.013.2439-.126.1555zm35.618-1.4127.113.8914-.168-.2902-.198.2565-.5.2439-.214.2775-.366-.1766-.139-.6223.387-.5676.517.0462.517-.1219zm-22.516-.0253 3.561-.1429 4.491-.513.95.1682 4.726-.2439 2.468.1009.454.0799.282.2775-.135.2691-.248.1346-.672.1429-1.564-.0546-.581.0883-1.408-.122-.934.4331-.311.2565-1.059.2691-.206-.021-.551.2691-1.842.3994-.105.1135-1.842.513-1.232-.0673-.651.1136-.068-.0547-.037.391-.135.143-.147-.0799.118-.0883.021-.5466-1.316-.0799-1.237-.3111-.672.0462-.244.1682-.215.513-.929.7148-1.005.3027-.559.3027-.837.0463-.012.3658-.194.1556-.387-.1136-.962-.6475-.938-.4331-.492-.5592-.597-.9586-.021-.6686.286-1.4043.286-.4794.319-.2564.4-.143.639-.0126 1.417.5676 2.333.5466zm28.436-5.48702.597.11352.652.61388.904.15557.992.04625 4.869-.66853 2.708-.25649 2.43-.10091.122.18921-.105.27751-1.06.5466-.63.2691-.698.12193-1.506.7232-.811.14716-.446.55922-1.665.7821-.437.1009-1.316.0336-1.531.3448.341.412-.025.1136-.328-.2018-.147-.2691h-1.779l.008.433-.138.0126-.068-.4246-.454.0883-.126.2901-.172.0799.172.2354-.568-.0798-.18.1429.18.2565-.126.1009-.025.1892.215.3028-.4.0798-.597-.2228-.353.0336-.471.6349-.219.0337-.265-.1136-.021-.0883.169-.4793.113-.925.219-.7568.479-.93768.597-.87036 1.299-1.16048.333-.13455-.101-.15557-2.502-.58024-.492 1.24878-.294.02102-.139-.0883.046-.40364.458-1.05957h.82z"/><path d="m190.605 115.9.904-.336 1.034.917.883 1.101.467.795.694 1.471.21.677.504-.231.261.24.845-.631.391-.097.576.829 2.897-2.998.719-.252.282-.227.185-.328.412.227.261.033 1.278 1.005.425 1.034.34.513.53.434 1.005.449.567.686.181.534.08 1.185-.067 1.026.256.337.526.391.988 1.459.378 1.089.038.403-.37 1.434-.294.589-.021 1.022-.143.302-.177.198-1.215.467-1.32.252-.265.366-.013.391.122.252.152.13.53.118.21.177.092.227-.366.303-.672.206-.168.286.088 1.097-.093 1.064-.109.769-.265.328-.008.215.66.088.227.5.038 1.182.445.143.694.008.139.252.189.606.345.488.055 1.051.634.782.19.824.37.328-.383.551v.424l.757.173.374.269.824-.076.034.219-.114.378-.466.303-.139.357.181.694.45.328.567.139.177.315-.017.345.143.13.122-.13.013-.193-.24-.282-.126-.358.26.11.051-.101-.139-.105.156-.282.302.324.063-.639.093-.379.092-.046.299.034.273-.118.433.13.732-.033.971.727 1.026.139.459.172.458-.008.181.138.878-.075.644.185.033-.316.438.152.155-.215.77-.206.054.173.202.042.046.185.206.185 1.375.012.534-.151.585-.025.038-.921.441-.29.265-.046.135-.29 1.257-.076.74-.316.378.185.858-.054 1.085.13-.021.543.466.66.274.782 1.341 1.404.547 1.106.395.151.437.021.135.131.029.597.366.824.223.29.643.315.219.215.227.075 1.27-.454 2.644.433 2.393-.487.046-.11.202.122.021.173.412.172.13.261.295.206-.215.441.046.177.56.517.559-.42.281-.097.114-.349.16-.13.353.109.324.454.328-.572.277.021 1.371.723.185.173.122.357-.013.261-.214.315.185.097-.013.593.088.302-.088.694-.706 1.135.979.455 1.451.269 1.14.529 2.997-.021-.285 2.237-.232.366-.059-.151-.168-.063-.387.365.059.282.316.303.012.303-.824 1.026-2.83.475.148.281-.038.324-.421.875-.227.096-.025.421.101.118-.009 1.261h1.817l2.586 1.24.647.572.219.446.454.181 2.262 1.854.004.399.122.139 1.203.185.214.69-.067.752.219.862-.127.467-.193.341-.883.033-.328.311-.698.248-.185 1.38.013.916-.698.711.151.172-1.055 1.291-1.22.505-.012.378-.135.139-.984.345-.319.588-.627.303-1.101-.87-.215-.236-.046-.42-.164.084-.135-.055-.235-.58-.332-.009-.32-.193-.323.097-2.649 1.257-.425.441-.236.021-.332-.117-3.077 1.03-.799.551-.492.471-.194.012-.294-.399-.505.206-.492.525-.66.429-.757.316-.626.437-.193.185-.013.311-.282.399-1.349.362-.572.336-.358-.13-.672-.904-.295-.248-.357.294-.82.408-.21-.172-.122-.601-.719-.24-.173-.257-1.097-.096-.341-.312-.147.064.055.281-.261.732.046.147 1.022.82.492.126.034.172-.509.711-.004.408.298.622-.033.076-.253-.067.219.744-.059.172-.214.072-1.119-.74-1.034-.03-.42-.193.092-.29-.252-.635-.48-.429-1.984-.261-1.228.118-.34-1.535-.173-.109.08-.32-.715-.344-.332-.042-.231-.227-.505-.076-.294.118-.29.386-.534.164-1.081-.021-.29-.096-1.219.147-.32-.076-.824-.483-.929-.955-.046-.429.508-.096-.164-.194.021-.227-1.425-1.085-.088.202-.791-.496-1.518.261-.45.344-.491-.386-.24.471-.215-.127-.134.127.029.281-.332.269 1.03.021.707.505.462.214.366 1.022.042.593 1.295 1.043-.025.643.147 1.48-1.425-.513-.997-.214-1.144.042-.857-.194-.547-.269-1.047-.933-.757-.475-.365.677-.434.185.156.353-.063.235-.791.442-.559.517-.218-.227-.787.29-.34.677-.782.395-.967.109-.623-.235-.508-.042-.551-.345-1.077 1.333.883.685-.214.278-.097-.076-.092.097-.156-.118-.08.067-.105-.096-.122.139.042.214 1.131.61.244.433.686.534.029.151-.24.151.152.16-.253.492.215.442.416-.013.303.206.197-.067.072.109-.437.442-.072.567.458.526-.033.311-2.031 1.509-.227.068-.139.18-.004.534h-.252l-.068.207-.147.075-.765.051-.273-.286-.013-.194-.282-.248-.471-.235h-.285l-.219-1.203-1.257-1.606-.421-.076-1.379.181-.025.248.362 1.321-.375.395-.996-.181-3.002.332-1.611.416-.971-.008-.458-.097-.547-.269-.391-.332-.349-.559.076-.063-.181-.311-.505-.513-.298-.173-1.278-.214-.32-.311-.475-.816-.505-.484-1.244-.214-.711-.45-.458-.677-.395-1.169-.438-.483-.34-.097-.833.021-.378-.151-1.114-.728-.845-.206-.808.164-1.177.084-.299.257-.491.815-.429.131-1.384-.345-1.021-1.017-.412-.215h-.249l-.647.278-.24.462-.096.61-.286.408-.366.26-.833.202-.433.063-.925-.084-.664-.277-.614-.871-.21-.139-.547.009-.206.172-.332.602-.786 1.009-1.157 1.963-.412 1.371-.063 1.409-.256.449-.337.244-2.102.967-1.337.921-.311.021-.891-.319-.74-.068-.471.164-.513.429-.425.139-.488-.185-.689-.618-.48-.206-.378-.042-1.564.34-1.32-.319-.862.033-2.351.598-.025-.783.769-.643.295-.437-.311-.269-.122-.278.029-.429.198-.567-.047-.311-1.517-.74-.673-.698-.332-.173-.404-.063-.387.168-.647.69-.471.063-.24-.097-.584-.643-.295-.622-.332-.227.009-.299-.156-.16-1.783-.815-.513-.45-.357-.871-.391-.281.996.021.433-2.094-1.429-.194-.4-.664.143-.593-.244-.782.173-.181.757.665 1.686-.042.643.256.219-.248.752-.299.248-.235-.458-.282-.168-.366.105-.365.547-.269.807-.009.462-.261.442-.655.071-.526.19-.151.395.122.433-.11.715.173.151-.29.122-.917.921-1.707.315.147-.042-.677.854-1.236-.055-.269.193-.042 1.922-3.663.912.593.854.185.357-.088.475-.42.585-1.131.286-.354.504-.13.526.311.778.807.74.4.845.227 1.076.139 1.03.689.568.034.812-.412.66-.85.525-.365.564-.089.967.206.635-.042 2.089-.799.875-.74.437-.239 1.817.357 1.173-.13.382.097.909.55.437.4 2.148.794.48.766.479.378.517.223 1.724.441 1.127.757.669-.593.382.215-.029-.551.395-.097.004-.643-.29-.702-.013-.29.173-.269.071-.454-.672-.795-.148-.883-.286-.446-.416-.084-.534-.496-.273-.29-.059-.69-.113-.185-.206-.227-.16.173-.652-.711.366-.008.088-1.888-1.265-.475.088-.745-.509-.218.236-.635.164-1.59-.072-.147.193-.799-.109-.845-.185-.008-.219-.261-.054-.778-.252-.172.126-.303-.114-.618-.45.067.034.206-.143.03-.172-.202-.593.151.046.278.202.067.004.152.168.138-.185.433.358.097-.034.282-.046.214-.539-.16-.214.379.442.181-.64.681-.555-.118-.588.042-.173.585-.782.008-.563.198-1.144-.681-.042-.207-.265-.063-.126-.143.719-.916.959-.606-.089-1.122.581-.564.033-.206-.466-.302 1.375.143v-.152l-.278-.151.013-.37-.324-.105-.307-.379.151.03.093-.606.727-.105.324-.626-.896-.446-.046-.16.126-.631-.685-.021-.538-.235.092-.727-.189-.064.042-.227-.433-.185-.034-.164-2.539-.344-1.06-.379.055-.391-.109-.647-.219-.219.286-.227.5.151.273-.227.173-.832-.021-.639-2.721-2.22.766-3.293.984-.378 7.391-2.115.248-.349.446-1.215 2.203-6.807.778-1.207.164-.16.967-.21.227.033.303.383.454-.37 1.648-.782.24.076.32.336 1.816-1.556.618.013.627-.185.559-.547.731-.29.48-.349.159-.273.341-.269-.113-.21.037-.152.143-.033.253.231.172.008 1.039-.836.079-.152.24-.067 1.417-1.304.526-.315 1.295-1.274.138-.425.736-1.068-.382-.555.021-.121.933-1.775.185-.088.467.155.126-.13-.008-.21.42-1.152.172-1.047.412-.601z"/><path d="m252.262 12.5081.273.1766.311-.0336.854-.7905.218-.0799 1.157.4667.138.3911-.025.3111-.139.2355-1.156-.2355-.046.2102 1.038.2565-.071.3027-.538-.1009-.068.1766.879.2103.454-.0547.501.1346.046-.2229-.538-.1009-.105-.1219.281-1.068 1.304.412 1.471 1.4044-.033.5256-.526 1.48-.071 1.5599.374.3784.593 1.0134-.181.2901.24.1009.088.2018-.088 1.1689.378 1.1353-.021.534.374 1.6566.139.2354h.42l1.211 1.0764.282.3658.332.0463v.1892l-.248.0547-.147.5339.694.2229.181.2565.227-.0337.811.2986.219.1682.366-.0127.353.1094 1.059.5129.354.0799.458.4205.471.2775 1.089.4205.87-.0337.425.143.16.1766 1.967-.0463.278-.3994.757-.143.248-.2775h.181l.012.2901-.181.0547-.403.5424-.391.2985-.139.9881.118.7863-.534 1.4758.033.4205.24.1219.034.3112.193.2228.479.2313.169.1976.264.0336.122.2313.858.0336.311-.1093.009.1766.08.021 1.042.0463.677.5003.787.2102.458-.1766.618.4668.786.1429.181.1556 1.203.2985.105.1009.126-.1093-.093-.2565.198-.4877.227 1.5641-.025.5004.277.8409.088 1.9846-.1.3322-.421.4877-.105.2775 1.224.8956.021.2565-1.039.4667-.551.021-.71 1.3497-.021.2775-.173.3448-.025 1.0638-.42.7736-.232.1556.265 1.8458 1.199.883-.139 3.6791.866 7.2992.34.8704-.538.6727-1.648 5.7646-.101.6517-5.104 8.464-1.106 1.4169-.147.3196.332 1.2404-1.337.0672.059-.6265.168-.5171-.072-.0421-.273.1556-.181-.0547-.26-.3742-.173-.0672-.984-1.438-.248.021-.206-.7821-1.585-.164 1.888-4.5872-1.404-.3742-.564-.5845-.08.021-3.448-5.2095-1.896-2.6111-3.166-3.1871-3.793-4.3266-1.051-.9839-1.316-1.5137-2.859-2.939-.332-.4751-.526-.3532-2.762-.143-1.144.3112-2.75 1.2487-.012-.761-.286-.143-.151-.5213-.295-.2313-.445-1.2277-.299-.1094-.332-.4415-.858-.7526h-.551l-.206-.8073v-.4204l-.294-.4962-.16-.021-.845.3658-.479-1.3413-.984-1.7155-.252-.0126.025-.2228-.446-.8662-.467-.021-1.803-.7863-.56.143-.597-.0126-1.122.3658-1.123.2228-.038.3868-.584.5635-.471.1219-.072.1345-.916.6223-.652.2775-.114.2229-.092.8535-.299.3112-.26.0883-.454.74-.412.4078-.114.7527-1.017 2.6993-.152 1.417-.492.1556-.845 2.22-1.825-.6727-1.598-.6391-.391-.6181-.487-.4751-.972-.5214-1.837.0757-2.191-.3322-.836-.74-1.19-1.4842.105-2.8003.185-1.1647.853-1.5726.106-.3531.437-.4205.092-.5887.198-.1345.399-.0463.24-.3784.433-.3532.311-.5213.101-.4121.215-.2439.092-.5003-.286-.3868-.105-.534-.547-.4331-.185-.698 1.153-.1892.025-.5424-.093-.3111.299-.2439.042-.1682-.194-.2775.404-.1556.114-.2312-.034-.3112.286-.2565.172-.3531.126-.0127.173.2229.16-.1682h.185l.033-.3868-.227-.656.118-1.2782.492-.2901.517.1556.101-.0799.08-.4667.197-.2313.034-.3868.206-.3322.58-.2102.391-.4541-.172-.2649-.627-.143-.025-.1009.353-3.0778-1.219-.534-1.106-.2648-.778.5466-.466.0546-.295-.3574-.185-.7022-.248-.3784-.286-.1555-2.194-.6013-.48-.3994-.227-.3574-.34-1.0007-.055-1.4128 1.551-2.2621.24-.1346.345-.0336.113.1093-.126.143.034.1682.265.0126 2.527-.7442.647-.0463.56.1682 2.182 1.2235.332.2229.559.8367h.101l.963-.6012.757-.6812 2.022-.925 1.884-.7232 2.796-.4667 8.27-.9461 1.998-.5802 1.177-.4667 1.013-.5593 1.876-.7484 3.145-1.0259 2.993-.37h.724l1.681.5466zm-25.51-7.04697.311.05466-.033.2775-.904-.12193-.711.04625-.092-.17659.117-.18921.374-.03364zm11.878-.64752h.391l.072.07989-.034.12194-.227.10091.055.22284-.072.07989-.916-.33637-.152-.23546.059-.1766.446-.05466zm1.976-1.9005.034.13455-.08.0883-.605-.20182-.332.07988-.038.23546.391.33638-.021.24387-1.363-.64752-.273-.05466-.803.15557-.16-.21023.025-.1766.391-.47092.425-.12193 1.438.15557zm-8.19-.26909.605.04625.471.20182 1.14.95025-.013.15557-.227.03364-.858-.27751-.265.04625-.344-.42467-.08.01262-.139.18921.126.44569-.126.23546-.664.01261-.333-.13034-.357.24387.252.29012-.046.24387-.328.22284-.584-.16818-.299-.24387-.147-.88298-.786-.55921-.274-.41206-.042-.8157.366-1.05957.252.03364.286.97127z"/><path d="m190.739 198.32.375-.396-.362-1.32.025-.248 1.379-.181.421.076 1.257 1.606.219 1.203h.286l.471.235.281.248.013.194.273.286.765-.051.148-.076.067-.206h.252l.118.602 2.535.063.745.546 1.425.614.387.395.21.505.134.097.148-.131.319.248.034.169-.122.311-.526-.063-.151.063-.332.206-.08.307.118.71.26.307.047.332.021.375-.32.386.16.652-.046.442.159.395.53.34.913.257 1.564.622.092.194.4-.139.151.118v.18h.58l1.371.341-.013.656-.206.332-.147.072-.387 1.551-.117.021-.387 1.186-.253-.118.005.782-.185.908 1.03.728.967.832.416.799.719.791 1.081.95.412.504.63 1.577.526 1.039.673.445.752.673.951 1.665-.013 2.224.332.749.345 1.333-.311 2.258.021.412-.269.025-.08.126-.025 1.926-.501 2.926 1.321-.063-.009.189-.778 1.279.787 2.712-2.363 2.178-.026.147.19.479-1.611.349-.017.37-.365.416-.215.459-.025.487-.307.488-.034.404-.731 1.114-.925 1.177-.375.879-.046.353-2.527 2.788-.883.542.942 2.01-.084.16-.748-.042-.345.168-.021.151.189 1.153.231 2.724.593 1.152.425.139.706.029.194-.189.252-.042.437-.286.635-.668 2.847-1.375.424.244.681.613-2.737 1.27-.08.126 2.292 1.43.05.168-.815.564-.034.441-.261-.008-.181.105-.542-.055-1.081.404-.21-.105-.303.168-.193.286-.929.475-1.013.181-.257.719-.156.084.043.328-.156.029-.189-.231-.076.404-.227.092-.21.265-.765.244-.274.189-.088.538-.824.955-.77.588-.74.223-.294-.181-.101.257-.298.042-.265.399-.787.606-.399.799-.618.223.109.34-.353.559-.366.316.034.273-.156.286.093.231-.118.215.013.706-.425.273-.32.072.127.593-.253.084-.189-.189-.538-.013-.505.181-.105-.559-.647-.909-.433-1.412-.354-.413-1.48 1.371-1.757.244.118.656.794.971-.109.526-.227.021-.038.189.425 1.076.395.497.702.328-.017.622.618.273-.159.74.067.757-.685.761.311.61.479.029 1.072-.429.862-.685 1.312-.294.101.021.126.281.505.349.159.286.408-.096.152-.16.407-.156 2.885-.097.088.202-.752 1.951-.148.24-.513.412.766.475-.026.471.219 1.467 1.505.429.253.202.357-.126.29.273-.076.517.867.093.298-.21.194.021.584.189.362.399.172-.323.219-.105-.093.42-.408.273-.084.324-.273.265-.454 1.724.113.589.492.706.32.778-.173.244-.105.525-.172.084-.063.198-.286.328-.198 1.417-.315-.042-.77-.505-.134-.441-1.854.937-.446.156-.147-.029-.046 1.459.227.344.185.084-.009.202.273.631-.231.198-.122-.009.114.324-.618.601-.358.576-.155.093-.32.084-.252-.231-.45-.211-.273-.302-.269-.042-.32.243-.336.522-.055.63.854.253.517.391.273.605 1.85 1.136.013.168-.446.87-.227.189.286.681-.311-.012-.997.231-1.333-.042-.239-.092-.055-.4-.277-.315-.711-.168-1.926.618-.542.462-.496.16-.038-.421-.147-.042-.572.063-.294.358-.812-.589.008-.597-.252-.702-1.585.816-.698.723-.118-.03-.286-1.017-.878.568h-.652l-.429.227-.462.096-1.085-1.53-.488.273-.092-.034-.564-1.488-.668.114-1.359 1.564-.357.66h-.757l-.559-.387-.353.441-.74.127-.379.353-.437-.072-.227-.189-.328-.008.055-.4.845-1.156.319-.997-.029-.273-.576-1.186.013-.218.437-.622-.013-.198-.378-.597-.892-.076-.105-.42h-.378l-.168-.177-.379.042-.538-.252-.088-.139.088-.147-.055-.198-.264-.307-.16.063.126-.555-.467-.588.114-.168-.215-.105-.012-.337-.152-.218.059-.337.118-.126-.118-.378.16-.274-.067-.496.059-.113-.127-.181.48-.408-.253-.315.173-.232.328-.054 1.177-.745h.559l.24-.706.597-.538.219-.324.147-1.211.206-.307.504-.105.694.4.345-.177.206-.391v-.778l.193-.58.799-1.009.375-1.178.723-.361-.017-.442-.181-.378-.219-.202-.466-.084-.534.467-.505.126-.454-.244-.059-.538.879-1.043.231-.589.719-.403.639-1.072.391-.349.156-.286.067-.261-.063-1.013.614-1.14.042-.265-.269-.462-.858-.358-.08-.307.446-.727.446-1.076.054-1.039.101-.168h.37l.799.425.4-.084.168-.215.017-.282-.24-.908.16-.277.349-.274.046-.189-.168-.403-.425-.526-.025-.32.378-.37.518-.134.979.391.446-.391.08-.181.092-.601-.273-.404-.265-.113-.727-.013-.324-.189-.093-.412.106-.383.946-1.16.239-.118.871-.105.307-.963.651-.454-1.24-.963.088-.37-.282-.236-.037-.336-.307-.231-.24-.383-.542.509-.131.412h-.159l-.358-.349-.126-.013-.261.375-.311.176-.298.021-.568.48-.357.092-.16-.391.067-.231.198-.215v-.315l-.198-.042-.021-.244-.307.063-.071-.315.004-.181.433-.126.055-.109-.328-.072.168-.572-.618-.635-.833-.159-.58-.349-.265.21-.059.16-.248-.127-.277.169-.282-.105-.093.126-.559.012-.517.4-.526-.189-.109-.127-.252-.033-.059.126-.168-.009-.223-.231-.82.24-.105-.198-.24-.117-.525-.043-.366.093-.421-.677-.021-.177.16-.117-.151-.37-.778-.404-5.067-2.064 1.943-.593-.013.231 1.691-.849.306-1.821.101-2.598 2.96-4.214 13.514-4.217 3.906-3.347-4.032-6.874-.782-4.445-.509-1.299-.979-6.752 3.531.693 1.119.887 2.19-.227 2.044-.66 2.334-.958.811.647.824 1.026.387-.374.126-.021.194.16.193-.181.172-.021.026-.118-.307-.353-.198-.446-.008-1.795-.698-1.026-.198-.492-.093-.723.038-.997-.21-.727-1.673-1.636-1.464-.895-.193-.215-.105-.534.504-1.017.013-.492-.425-.194h-.723l-.239-.244-.03-.365.526-.812-.463-1.841-.143-1.295-.256-.236-.959-.408-1.842-.248-.399-.097-.715-.353-.462-.588-.143-1.115-.307-1.265z"/><path d="m133.283 191.517.391.277.357.87.513.45 1.783.816.151.16-.008.298.332.227.294.623.585.643.24.097.47-.063.648-.686.387-.172.408.063.332.172.673.698 1.517.74.047.312-.198.567-.025.429.122.278.311.269-.294.437-.774.643.025.782 2.351-.601.866-.034 1.316.32 1.564-.345.378.042.48.202.693.622.488.181.425-.139.513-.429.471-.159.74.063.891.319.311-.021 1.337-.921 2.103-.962.332-.248.26-.45.059-1.405.412-1.37 1.157-1.964.786-1.009.332-.601.206-.173.547-.012.214.138.614.871.664.277.925.084.434-.063.832-.206.366-.256.286-.408.101-.614.239-.462.648-.278h.248l.412.214 1.026 1.022 1.383.345.425-.13.492-.816.298-.257 1.178-.084.807-.159.845.201 1.119.732.378.151.832-.021.341.097.437.484.391 1.168.459.677.71.45 1.245.215.504.483.471.816.32.311 1.278.215.299.172.504.513.181.311-.072.063.345.559.391.333.547.269.458.096.971.013 1.611-.421 3.002-.332.996.181.854.803.307 1.266.139 1.114.466.589.711.353.399.097 1.842.248.959.408.26.235.139 1.295.467 1.842-.526.811.026.366.239.244h.723l.425.193-.013.492-.504 1.018.105.534.193.214 1.464.9 1.669 1.636.214.727-.038.992.093.728.202.492.698 1.026.008 1.795.198.45.307.353-.025.118-.173.021-.193.181-.194-.16-.126.021-.387.374-.824-1.026-.811-.652-2.334.963-2.043.66-2.191.223-1.118-.887-3.532-.694.979 6.753.513 1.299.778 4.444 4.033 6.875-3.907 3.347-13.513 4.217-2.96 4.213-.101 2.599-.307 1.825-1.691.849.013-.231-1.942.592-.253-.222-.298-2.069.092-.828-.088-.404.092-.118-.033-.286.092-.277-.101-.522-.777-.55-1.165-1.262-.492-.677-.244-.614-1.703-.479-.399-.034-.034.139-.298.278-.181.542-.694.635-1.619.307-.206.626-.374.042-1.093 1.455-2.3-.551-2.456-.719-.092.085.012.306-.239.614-.341.286-1.476-.021-1.349.168-2.01-.508-1.59.542-.264-.118-.606-.584.992-3.734-.092-.265-2.603-1.686-1.736.572-.745.585-1.875-.572-.172-3.473-.488-.417-.286-.382-.218-.606-.265-.37-2.75-3.073 1.408-2.851.757-1.287-1.745-4.133-1.871-.054-.328-.085-.471-.811.034-.702-.299-.126-.193.054-.753.618-.319.585-.412.361-.24.661.172 1.223-.353.521.042.492-2.615 2.216-.412.416-1.922 2.523-.025-.361-.197.012-.047.223.173.194-.425.193-.479-.139.673-.181-.152-.193-.252.076-.08-.202-.412-.299-.101-.458-.425-.404-.134-.328-.215-.012-.18.244-.148-.286-.391-.076.08-.256-.206.054-.046.147-.58-.147-.047.147-.479.404v.257l-.067.012-.467-.16.009-.298-.4-.034-.202-.139-.34.286-.492-.222-3.141.626-.698-.299-.467-.34-.181-.458.013-.459-.118-.492.173-.328.218-.063.724-.063.172.341.341.139.676.075.799.299.358.244.471.096.513.265.008.202.538-.013-.012-.126-.198-.105.42-.361-.058-.055-.446.181-.58-.042-.055-.084-.294-1.237.033-.458-.172-.82.008-.16.295-.222.344-.522.059-.319.118.202.231.075.366-.332-.66-.5.252-.925.105-.972-.248-.138-1.076-.181-.122-.278-.072-.693-.168-.236-1.202-.492-.513.055-.387-.084-.252-.383-.551-.063-.803.181-.16.265-.366.054-.248.333.009.277-.232.458-1.072.564-.525 1.055-.366.257-.025.307-.812.193-.286.883-.399.736-.581.126-1.143.66.16 1.863-.686.223-.492-.181-.799.416-.731-.374-3.541-.66-2.653.988-.357-2.767 1.144-2.502-.707-1.034-3.3257.521-.5466-.084-.3742.063-.6643.694-1.438.257-3.6581 2.022-.2396.042-.307.383.3574.126.5929-.013.2943.467-.0715.479.1976.181-.1177.236h-.2649l.1472.508h-.2397l-.0799.244-.4204.467.5676 1.392 2.6069 3.435-.3658.437.3447.723-.6054-.117-1.8375.925-.7652.138-.3742-.033-1.0974-.278-1.2362-.042-.3658-1.766-.1472-.235-3.864.117-.2271-.668-.4204-.055-.2187-.479.1346-.126-.0253-.627.1724-.202-.021-.555-.3195-1.53.2606-.521.5382-.488-.3279-.534-2.5228-5.975-.8704-1.833-.0126-.82.4331-1.299-.0463-.105.7401-1.985.0798-.458-.042-.61-.0715-.286-.5172-.887-2.1948-2.691-.2649-.673-.0462-.416.0883-.963.4793-1.038.7568-.749 1.8291-.803.7063-1.324 1.8038.214 1.5978-.374.9124-.408 1.3119-.278 1.3833-.643.5844-.34.5845-.61.4541-.749.1598-.693.8325-.824.1934-.429.3742-.013.185-.483.4373-.278.9124-.858 4.9951 1.67 1.4628.151 4.991-1.371 1.052-.845 4.192-1.198 2.014-1.426 1.471-1.307.845-.934.299-.471.643-1.942 1.03-1.224.997-.538.925-.298.9-.055 1.698.256.732-.159.391-.16 1.03-.74 1.203-1.245 1.568-.782.744-.172h1.098l1.934.429zm-4.974 39.553.008.202.332-.021-.117.084.067.117.252-.021-.277.425-.185.055.037.286-.138.063-.114-.375.088-.117-.033-.202-.215.181-.058-.118.105-.118-.047-.16-.365.223.248.299-.148.235.08.105-.046.307-.134-.021-.249.215.774.16.173.403.391-.097.172.194.231-.328v-.278l-.16.009.148-.223.122.063.147-.126-.139-.042.059-.147-.265-.055.008.139-.126.021-.054-.147-.08.075-.08-.34.408.042-.026-.286-.117-.063-.139.075.025-.193.118-.076.113.097.253-.298.147-.042.092.222.055-.147.286-.084-.038-.16.114-.096-.148-.244-.071.193-.24.118-.845.105zm1.118.639.025.118.446-.055-.298-.244-.034.126zm-3.33 2.275.059-.085-.072-.096-.168.223zm-1.757 1.084.008-.126-.126.021.012.118zm4.637.833-.067-.543-.32.16-.353.034.248.244-.277.235z"/><path d="m140.309 135.006-.408-.294-.055-.143.425.219.105.151zm-5.185-.664-.071-.055.092-.151.24.013zm2.628-1.577-.092-.021-.009-.13.118.013zm-3.658-.769-.101.021-.008-.13.181-.055zm3.234-28.676-.072-.021.042-.218zm15.914-6.3572 3.625 1.6104 2.981 3.1538-.152.109-2.947-3.1199-3.461-1.5094-.87.0883-.298-.0883.113-.1514zm-39.687-30.5299-.253.1303-1.177-.1009-.631.0547-1.404.3405-.711.3869.009.1555.332.1892-.231.2313-.585-.0421-.298-.2312-.068-.3322.072-.3868.307-.3196.66-.3658.618-.5508.458-.1093h.48l.937.1976 1.438.5172zm23.298 3.5823-.068.2313-.172-.0337-.66.5298-.122.2733-.038.7695.618-.1093 1.716 3.267.168.0883.248.7904 2.224 4.3645-.639 7.686.513.0337.282.4919.365 1.5263.984.8998.227.349.652.6475.492.164.744.0126.593-.3952.24-.2103.82-1.3497.866-.021 1.013.1304.286.1639.421.0757.231.2733.483.2313.375.0126.168-.143.151.0757.799-.2396.181.2102-.631.1429-.021.0883.904-.0546.446.3826.332.1304.261.9334-.194.2523.147.3069-.138.2943.092.6475.168.1094-.046.4583.858.6559.403.0336.042.1094-.079.1093-.425-.1514-.147.143.054.4372-.34.1977-.152.2396-.47.0211-.059.0672.126.1093-.341.0673-.021.1093.332.2733-.101.164-.105-.0967-.185.0126-.492.4289-.883.143-.121.0967-.181-.0673-.467.1093-.168.4583-.046.8746-.48 1.7407-.332.492-1.551.866-.425.416-.206.492-.559.013-.614.143-.48.273-.979 1.039-.98.096-1.144.274-.218-.341.126-.458-.4-.601-.904.067-.752-.677-.353-.492-.925.273-.492.505-.173-.143.089-.143-.194.122-.378-.034-.055.261.101.143-.206-.067.059-.383-.307-.37-.391.013-.488.525-.471.076-.239.231-.446.219-.185.424-.034.677.24 1.346-.055.315.126.177-.059.231.122.286-.18.425.185.534.319.534-.033.218.34.972-.105.698.803.752.072.479.731 1.312-.046.644.307.328.399.849.059.492.286.5.294.013-.071.425.454.369.278.926-.665 1.143-.206.122-.113.219-.227.067-.24-.097-.198.261-.046.601.08.547.488.568.046.163-.088.307-.686.076-.458-.13-.803.403-.294-.172.231.555.248.097-.034.143.105.075.333-.445.277-.013.172.122-.34.698-.038.664.16.438-.114.445.114.143h.403l.286.131.433-.089.774.198.585-.034.105-.143.126-1.37.147-.349.261-.282.151-.034.055-.143-.101-.567.101-.24-.614-2.334.08-.109.126.013.639 2.203.517.479.055.219.786.021.454-.088.286.054.055.131-.665.252-.344.349-.568.076-.458.479h-.492l-.198 1.35-.454.698-.105.143h-.185l-.038-.143.093-.185-.089-.055-.193.282-.294.151-.169.437-.088.631-.24.303-.138.458-.648-.13-.227.088-.151.097-.358.651-.572.227-.353.392-.513 1.433-.307.11-.172.26h-.341l-.08.11.181.281-.113.295.033.172-.185.315-.151.055-.399-.248-.215-.336-.471.088-.719.412-.584-.652-.147.034-.379-.379-.298.349.197.522.48.067.592.488-.071.109-.277.034.058.218-.218.228-.009-.375-.193-.075h-.198l-.159.302.294.295.446.13.248.357.399.11.114.315.357.227.198.349.344.336.375.152.613.042.375-.37.546-.067.471.458-.059.391-.353.185v.219l.185.185.311-.034-.122-.248.055-.042.597.227 1.005-.206.685.118.539-.391.958.143.673.424.584.522.711.109.5.248.32-.088.214.172.488.61.454.26 4.625-.79 4.091 1.03 1.956 1.291 1.602 1.585-1.989 1.421-1.943-.349-.631.576-.391-.172-1.063 2.191-1.459 1.299-.042 2.472-.169.866-.525 1.236-1.312 2.435h-1.173l-3.381-.248-.117-.475.752-.391.48-.433.353-.627-.837-1.669-.799-.446-.206.4-2.855.075-.853-.239-1.35-.661.008-.618-.273-.302 1.392-.627-.917-.9.021-.378-.26-.824-.354.315-.218-.075-.105-.228.021-.466-.232-.24-.008-.399-.307-.639h.471l.214-.295.505-.206.513-.012.071-.48.539-.281.193-.043.092.089v.239l.219.11-.088-.509-.231-.324-.24-.021-.32.227-.147-.151-.517.618-.631-.53-.298.088-.185.501-.215-.185-.168.467-.248.063-.088.281h-.295l-.571-1.345-.412-.173-.694-.021-.341.097-.534.379-.374.618-.198.109-1.084-.172-.253.075-.534-.294-.504.219.088.941-.332.118-.219.194-.08.315-.344.088-.215.391.009.316-.286.239-1.779-.088-.227.097-.845.042-.273.109-.513.425-.169.164-.319.672-1.06.846-1.253.576-.332-.063-.706.063-.694-.152-.652.282-.387.563-.58.454-.614.139-.811.522-.517.651-.387-.294.08-.193-.034-.391-.24-.53.093-1.236-1.299-.206-.631.26-.488.509-.088-.063-.168.109-1.266.076-2.157 1.257-1.362.097-.946-.118-.992-.391-.707.24-.979-.227-.455-.37-.067-.551.038-.206.547-.681.525-2.754-.122-.858 1.316-1.333.618-1.345.009-.274.437-1.152.538-.782-1.631-.694-.181.013-.9.248-.42.782-4.516-2.039 3.692-9.36.752-2.186.265-1.144.093-1.396.34-.466-.252-.719.526-1.131.765-2.136.811-3.97.892-5.525.42-4.183.517-3.414.026-.787.365-2.4719.627-5.5754.597-2.8171.387-1.0091.572-1.11 1.122-3.8094 1.543-6.164.345-1.5936.294-5.9454.227-.9586.48-.9251.366-.4499.231-.1009.963-.1766.374.1094.517-.2523 1.077.0546-.055.2439.24-.1303.18.1093-.046.1219-.151-.0883-.135.2439.072.3069.168.1892.139.0127.046.2649h.071l.488-.1304-.055-.3195.286-.2187-.088-.1892-.202.143-.118-.3196.648-.1303.193.4415-.025.4204-.647 1.3875-.185.9125.105.1009.025.2522h.172l.047.3196.74 1.6608.185.2523 4.351 2.4976 2.162-.5719.752-.4961 1.337-.5592-.067-.1976.24-.0211.845-1.068.181-.3952.105-.5844.63-.5635.854-.2102.437.0126.993-.4625.773.2187.559-.1094.48-.2312.172.164.118-.0421.265.2733.752-.5634-.088-.1303.101-.1304 7.606-6.5887.274.3658zm-11.609-24.0463.306-.101.232.2103.513.7064.765 1.4842-.059.3868-.185.021-.092.2986-.135-.3658-.172 3.452.134 1.0175-.012.7737-.261.7946-.294.1094-.799.6727-.089.3742-.437.2649-.059 1.1395-.525.719-.185.5634-.232.2186-.101-.1639-.374.3069.042.1976-.294.4289-.286.164-.517.2102-.938.042-.172.143-1.791 2.3294.008.1976.294.1766-.193.2775h-.534l-.219-.2523-.18.1304-.446-.2776h-.353l-.984-.4625-.173.143.181.0883.072.3322.773.3069.101.2313.438.2775.067.1429-.194.0126-.445-.2102.059.0883-.778.3322.008.1219.194.0336-.021.0883-.665.2187-.551-.0883-.407.2312.159.0547-.185.2102-.248-.0336-.546-.5088-.585-1.1815-.231-1.2025.105-2.0519.425-2.1738.34-1.1478.631-1.5473 1.27-2.3883 1.968-3.1493.71-.9502 2.161-3.5319.904-1.1058.803-.7106.614-.2313h.168l.253.1766.42.719.286.1892.341.74-.034.6181.072.3995z"/><path d="m207.697 79.2778.509.6602.147.4288.332.4373 2.359 2.7456.475.2649 1.261 1.7366.433.4372-2.169 2.4009-.08.5298-1.291.6475-1.531.37-.142.1009-.303.5256 1.345 3.4646.753 1.644.34 1.1815.413.5466.227.143.084-.0547.218.2061.32.6601.513-.2102.16.185.853.1009.358-.492.357-.0126.53-.1976.071.2859.597.3406.189-.0673.072.1514.505.2523.365-.0337.354.5929.391.2943.475.0337.227.3069.336.2182.181-.033.294-.3702.244.0336.408.5546.193.11.223-.03.24-.353.509-.0335.824-.391.399-.0211.227.3911-.181.2185.021.492.492.442.518.185.168.218.605.362.038.227.135.143.206-.021.294.218-.067.143.42.526.109.534.286.404-.063.449.198.337.034.353.243.328h.169l.059.303.092.025.601-.32.164-.281.635.021.21-.383.602.307.193-.156.046-.252.4-.294.185-.336.071.248.181.176-.021.425.223.286.399.252.391.063.732-.219.214-.227.257-.811.294.155-.012.274.277.109.076.173.504.054.139-.118.425.021.399.177h.421l.18.336.299.021.114.274.151.012.034.232h.155l.097-.19-.185-1.833-.206-.614-.147-1.269.046-.207 1.989-1.639.546-.307 4.247-.9547 4.049 1.9257 2.271.79-.341.774.139.046.096.219-.428.471.134.227-.24.677.766.046.122.021.277.45.181.097.345.668-.181 1.279-.231.786-.042.862 3.153 2.783-.908.341-.383.021-.45-.185-.365.021-.648-.164-.336 1.127-.341.273-.025.164-2.317-.471 1.657 3.461-.471 3.758 1.068.82.408.24.399.076 1.758 1.349.55.227 1.098.328 3.927-.143.757.177.403-.042-.004 1.022.686-.143 2.939.849 2.258.841.449-.164.938-.917.248-.378.732-1.69.74-.522.332.425.038.282.546 1.307.547 2.275.744.677.959 2.174-.021.198.378-.022.681.27.274-.16.193.084.004.336.341.526.652 1.976-.047 2.317-1.118 1.564-.118.74-.475.702.046.534-.159.53-.484.967-.214.198-.534 1.194-.047.323.021.488.148.467-.013.273-.088.063.033.488.379.404.685 1.568 1.333 1.488-.294.682-1.443.933-1.11.076-.201.159-.173-.172-.832-.227-.585.13-.168-.067-.458.231-.051.236-.319.273.046.702-.307.803-.362.476-.588 1.265-.681 1.043-.131.097-1.148.227-1.61.235-.13.206-.059.509-1.493 1.387-.631 2.822-1.118 1.08-2.388.248h-3.927l-2.998.021-1.14-.529-1.45-.269-.98-.455.706-1.135.089-.694-.089-.302.013-.593-.185-.097.214-.315.013-.261-.122-.357-.185-.173-1.371-.723-.277-.021-.328.572-.324-.454-.353-.11-.16.131-.113.349-.282.097-.559.42-.56-.517-.046-.177.215-.441-.295-.206-.13-.261-.412-.172-.021-.173-.202-.122-.046.11-2.393.487-2.644-.433-1.27.454-.227-.075-.219-.215-.643-.315-.223-.29-.366-.824-.029-.597-.135-.131-.437-.021-.395-.151-.547-1.106-1.341-1.404-.273-.782-.467-.66.021-.543-1.085-.13-.858.054-.378-.185-.74.316-1.257.075-.135.291-.265.046-.441.29-.038.921-.585.025-.533.151-1.375-.012-.206-.185-.047-.185-.202-.042-.054-.173-.77.206-.155.215-.437-.152-.034.316-.643-.185-.879.075-.181-.138-.458.008-.459-.172-1.026-.139-.971-.727-.731.033-.434-.13-.273.118-.298-.034-.093.046-.092.379-.063.639-.303-.324-.156.282.139.105-.05.101-.261-.11.126.358.24.281-.013.194-.122.13-.143-.13.017-.345-.177-.315-.567-.139-.45-.328-.181-.694.139-.357.467-.303.113-.378-.034-.219-.824.076-.374-.269-.757-.173v-.424l.383-.551-.37-.328-.189-.824-.635-.782-.055-1.051-.345-.488-.189-.606-.139-.252-.693-.008-.446-.143-.038-1.182-.227-.5-.66-.089.008-.214.265-.328.11-.769.092-1.064-.088-1.098.168-.285.673-.206.365-.303-.092-.227-.21-.177-.53-.118-.151-.13-.122-.252.012-.391.265-.366 1.32-.252 1.216-.467.176-.198.143-.302.021-1.022.294-.589.37-1.434-.037-.403-.379-1.089-.988-1.459-.525-.391-.257-.337.067-1.026-.08-1.185-.18-.534-.568-.686-1.005-.45-.53-.433-.34-.513-.425-1.034-1.278-1.005-.261-.033-.412-.227-.185.327-.282.228-.719.252-2.897 2.998-.576-.829-.391.097-.845.631-.26-.24-.505.231-.21-.677-.694-1.471-.467-.795-.883-1.101-1.034-.917-.904.336-.526-2.998-.206-.622-2.834-3.027-.609-.11-1.573.026.025-2.885 3.949.009.18-.295.345-.143 3.919-.862.53.206.336.362.984-.122 1.53-.862.097-.239 2.203-.484 1.497-.992.349-.404-.017-.168-.164-.273-.794-.787-1.081-.294-1.059-.929-.648-.2189-.458-.0337-.883-.3489-.009.1513-.286-.0336-.159-.185-.026-.3742.753-.8536.618-.4246.379-.4499.214-.0337.172-.2859-.012-.3826-.286-.6349-.223-.1724-.13.0084v-.3826l-.227-.3953-.467-.2396-.673-2.3252-.471-1.2151-.239-.3742-1.283-1.2152-.24-.0126-.399-.2523-.681-.5802-.391-.5508-1.304-.8998-.584-.2817-.786-.143-.139-.1009h-1.219l-.013-.206-.9-.7905-.593-1.0554 1.594-1.11.097.1682.811.4583.147.4499h.16l.261-.2397.357.185.627-.021.239.143.311-.0126.614.3321.32.0295 1.392-.656.252-.3952.576-.3616.34-.5172.602-.3952.012-.5508.08-.122-.101-.185.274-.1303.025-.2313.694-.0883.319-.1303.618.2523-.075-.4205.084-.164.29-.1976.9-.1976.206.8451.386.5719.312.8451.252.0547.34.3111.286.0547.219-.0127.206-.1765.551-.1851.761-.1009.298.6055.564-.2312 1.005-.6139.134-.2439-.218-1.0974.752-.3069.862.0967.303-.0547.252-.2607.332-.1892.358-.0336.807-.513z"/><path d="m119.53 147.288.706-.067.332.067 1.249-.576 1.06-.845.319-.673.164-.164.513-.42.273-.11.845-.042.228-.096 1.774.084.286-.24-.004-.311.21-.391.349-.088.08-.316.218-.193.332-.118-.088-.946.509-.214.53.29.252-.076 1.085.173.202-.106.37-.618.534-.382.34-.097.69.021.412.177.572 1.341h.294l.088-.282.244-.063.168-.467.211.185.189-.5.298-.084.631.53.521-.618.143.151.32-.227.24.021.235.324.084.513-.219-.11v-.239l-.092-.089-.193.047-.539.281-.075.476-.509.012-.509.206-.21.294h-.475l.307.64.008.399.231.24-.021.466.11.227.218.076.354-.315.256.824-.017.378.917.9-1.392.631.273.303-.004.618 1.35.66.849.239 2.855-.075.206-.404.799.446.841 1.669-.353.627-.48.433-.752.391.118.475 3.38.248h1.173l1.312-2.435.526-1.236.164-.866.042-2.472 1.454-1.3 1.064-2.19.395.172.631-.572 1.943.345 1.989-1.421 3.38 3.343 1.291 1.106-.765 3.292 2.72 2.22.021.639-.172.832-.274.227-.5-.151-.286.227.219.219.109.647-.055.391 1.06.379 2.54.345.033.164.433.185-.042.227.189.063-.092.727.538.236.685.021-.126.63.047.16.895.446-.324.626-.727.105-.092.606-.152-.03.307.379.324.105-.013.37.278.151v.152l-1.375-.143.467.302-.034.206-.58.564.088 1.123-.959.605-.719.917.126.143.265.063.042.206 1.144.681.563-.198.783-.008.172-.585.589-.042.555.118.639-.681-.442-.181.215-.378.538.159.046-.214.034-.282-.358-.096.185-.434-.168-.138-.004-.152-.202-.067-.046-.277.593-.152.172.202.143-.029-.034-.206.45-.068.114.618-.126.303.252.173.055.777.218.261.185.008.11.846-.194.798.072.148-.164 1.589-.236.635.509.219-.088.744 1.265.475-.088 1.888-.366.008.652.711.16-.173.206.227.113.185.059.69.273.29.534.496.417.084.286.446.147.883.673.795-.072.454-.172.269.012.29.29.702-.004.644-.395.096.029.551-.382-.214-.669.592-1.127-.756-1.724-.442-.517-.223-.479-.378-.479-.765-2.149-.795-.437-.4-.908-.55-.383-.097-1.173.13-1.817-.357-.437.24-.874.74-2.09.798-.635.043-.967-.206-.563.088-.526.366-.66.849-.812.412-.567-.034-1.03-.689-1.077-.139-.845-.227-.74-.399-.778-.808-.525-.311-.505.13-.286.354-.584 1.131-.475.42-.358.088-.853-.185-.913-.592-.429-.282-1.185-.202-.48-.282-.332-.698-.147-1.11-.172-.323-.867-.509-.664-.248-.505-.16-.761-.042-.702.202-1.274.626-.231.345-1.177.925-.433.475-.173.517-.345.475-.672.076-1.026-.807-.505-.097-.265.051-.605.357-.866 1.228-.379.26-.508-.033-1.005-.4h-.37l-.455.476-.445 1.063-.505.635-1.299.337-.618.054-.69.236-.542-2.124-.463-.374-.168-.584-.5-.311-.782-.896-.694-.98.261-.117-.425-.581-.509-.172-.588-.786 2.665-.661.059-.138-.542-1.047-.429.227-1.102-.042-.407.29-.745.076-.185-.606v-.387l.585-.42-.114-.812.48-.353.857-1.337 1.098-.832 1.391-.509.337-.69-2.069.021-.656.164.025-.576-.374-.45-.117-.529-.114-1.644.038-.98-2.275-1.636.109-.441.816-.366.135-.866.378-.551.534-.227.622-.122.387-.202.156.635.37.294 1.299.173.479-.076.034-.118.299-.143-.249-1.698 1.367-.53.017-.151-2.229-1.548-1.005-.357-1.9-2.098-.135-.337-.45.021-.109-.571.013-1.064-.471-.778z"/><path d="m75.6583 240.45.1808.013.0126-.16.0672.042.307.66-.1177.084-.6518.063-.8199-.361-.206-.236.5004-.328.597.084zm-39.1957-4.188 1.2361.396-.0883.256.0799.055.1682-.076.0673.084.3868.013.6601.778.3995.138.6937.021.3785.105.1051.202.3994.105.0883.202 1.6566.48 3.0148.479.3279.382.0463.194.1514.063.0462.193 1.0722.703.513.723.6391.063.5171-.168 1.6314.328.0673.21-.2649.214-.0378.391.6979.37.2523.013.0253-.118-.1262-1.148.0547-.147 1.2824.034.2397.298.4877.265.6391.097-.1934.21-.0126.194.4877.946.1388-.076-.185-.606.227-.096-.1598-.522.1977.021-.0589.148.1135.349.1976-.106.1472-.391.1472.013-.101.147.1262.147.513.076.5129.32 1.6987-.042.4457-.564.1472-.404.9922-.298.286-.37 1.1899-.82.719-.307 1.0932-.235.0378-.097.5004-.16.2186.034.1388-.126.3279.256.0883-.437-.0714-.168.227-.446.0463-.648.3658-.395-.1556-.361-.0673-.938.6938-.98 1.0848.097.1598.223 1.6566.256-.1346.223.1598.16.1724-.076.2607.438.2312.084.2733.979-.1135.076.0799.265h.2733l.5046 1.085.391.479 1.8879.118.8703.147 1.5558 1.358 1.1647 1.383.6853.391-.7316-.954-.3532-.774.719-.277.4205-.021.206.147.206.425h.3784l.2944.21.3574.509-.0337.201.1262.021.1724-.264-.2944-.257-.1387-.32 1.0427.055-.1597-.168-.9167-.168-.1597-.16 1.5052-.076.513.118-.2775-.277-1.2824-.009-.5803-.181-.5508-.946.0337-.487.4372-.139.2733.096.4121-.348.2481-.055.1808 1.295.9586.563.4709.084-.7568-.395-.4078-.361-.1262-.299.0126-.542.1262-.118.1808.139.0715.445.0714-.912.2649-.299h.5592l.4541.194.1935-.013.4709.362.2733.904.4078.681.7106.786-.9502 1.447-3.4016 4.393-4.5158 3.415-1.2235.794-.2649.265-.8578.446-.227.404-1.2236.285-.185-.084-.2144-.361-.2733.223-.5004.201-.2396-.403-.4373.012-.8367.467-.3112.349-.3195.126-.328.307-.1261-.16-.5929.984-.9502.169-.0253.306-.2733.509-.7274.055-.3321.105-.0085.139-.4456.138-.1977-.466-.3195-.362-.2018.341-.3869.021-.206.349.0883.466-.1976.034-.2481.341-.7232.328-.3742-.139-.1345.168-.3532.181-.1346-.328-.3868-.446.7736-.593.1935-.382-.3911-.656-.5802.298-1.3497.963-.4667-.286-.1682.126-.1472-.063-.3111.169-.3868-.16-.4668.361-.4541.105-.8535-.382-.3406-.055-.0715.084.0925.349-.0588.055-.3322-.278-.1345-.285-.3785-.097-.1009-.202-.0714-1.198.0672-1.791.4079-1.123-.0925-.147-.5004-.126-.6139-.551-.2985-.126-.1135.243-.2859.148-.3322-.223-.3658-.711-.2607-.16-.2607.139-1.6482-.391-.4247.168-1.4716-.424-.1598-.097-.2312-.454-.7064-.013-.1724-.286-1.232-.723h-.8451l-.3069.21-.9503-.563-.3069.034-.1934-.328-1.8417-.976-.6601.786.3196.572-.2523.181.1135.286-.1177.202-.206-.202-.2187.055-.2985-.257-.021-.147-.5719-.286-.2186.084-.0883.278-.206.147-.7527-.097-.3405.723-.3659.055-.5003-.5-.6517.126.8073 4.36-3.019.362-1.9972.138-.3994-.042-.9503-.361-.2649.021-.185-.984-.1135-.147-.4793-.454-.4793.306-.2733-.563-.7064-.446-.3869-.765-.5844-.147-.2397-.299.3995-.328-.0126-.605-.1178-.189-.5844-.404-.2607-.66.5971-.32-1.1227-1.328-.0168-.189 1.6777-1.901-.122-.954-.5718-.745-.0547-.328.0925-.786-.5508-1.064.3322-.479.5718-.404.0084.169.1178-.013.0378-.214 1.2025-.438 1.5431-.778.5508-.084.0799.328.2986.097.0588-.214.8241-.257.3196-.256.9797-.139.9712-.32.3869-.18.0546-.181.3658-.021.6644-.585.7442-.075.2985.126 1.11.105.4205.147zm10.5494-11.941.0715.084-.2481-.063-.1261-.151h.1934zm-.782-1.043-.1262-.042.1472-.042zm-.143-.458-.0547.063-.0546-.105.0715-.202zm1.8458-.013-.0336.097-.0715-.042-.0546-.16.2144-.403zm.2649-.479v.151l-.0925-.332.1514-.172.0673.118zm-2.1485-.286h-.0925l.1723-.105.1472-.319.0589.277zm4.7764-1.089.3196.034.1177-.084.328.223-.513.117-1.0722-.021.0084-.265.1051-.138.2313-.021zm7.4969-.256-.1514-.013v-.076l.2061-.214.1051.151zm-6.513.008-.4247-.235.0337-.055.1808-.042.3069.126zm-.576-.298.0715.353-.7274-.076-.1808-.181.6054-.181h.1724zm-5.6216-.097.2859.126.2607.256.1345.299.0253.404-.1851-.055-.1723.534-.1262-.097-.1219-.597-.2775-.618.0126-.319zm-.6391-.32-.0547.063-.1598-.382.2313.033zm-.3406-.723.1345.021.0421.202-.1724-.105-.2481.033.0252-.126zm33.0401-4.873-.2313-.063.1472-.055zm-21.8978-16.129.5508.538 1.9047.601.677-.13 1.3496-1.715 1.026-.61 1.2782-.332 1.232.172.946.858 2.5396.567.185.278.2649 1.148 1.0974 1.556.1009 2.077.2145.845.5844 1.026.4793.193 2.9265.236 1.2572.449 1.2529-.033.9797.105 3.0484 2.313 2.1696 1.496 1.2446.408-.7064 1.325-1.829.803-.7569.748-.4793 1.039-.0883.963.0462.416.2649.673 2.1949 2.691.5171.887.0715.286.0421.609-.0799.459-.74 1.984.0462.105-.4331 1.3.0126.82.8704 1.833 2.5228 5.975.328.534-.5382.487-.2607.522.3195 1.53.021.555-.1723.202.0252.626-.1346.127.2187.479.4204.055.2271.668-2.3967.105.1346-.235.0336-.576-.8199-1.363-1.2109-.555-.4373.085-.1472-.417-.2859-.265-.597.063-.5382.349-.3742.139h-.307l-1.0259.627h-.4373l-.7568-.147-.5382-.32-1.602-.286-1.5978-.597-.1681-.042-.0883.076-.3995-.459-.7274-.214-.6938-.702.0127-.16-.3406-.479.2312-.362-1.0721-.332-.0673-.458-.1051-.043-.122.19-.9797-.467-.3279-.362-.3658-.012-.1135-.202-.2397-.118-.1009-.235-.698-.48-.3784-.639-.3784-.235-.8662.605-.7736.063-1.0932.757-.5256-.256-.0925.054.0714.543-.2985.063.2775.66.0126.374-.3784.702-.1598.703-.1597.185-.0253.307-.1723.172-.7569 2.127-.4667.223-1.4842-.445-.5677.298-.3321.349-.5004-.034-.3195.278-.5382.076-.328.172-1.131.076-.0547.126-.2859-.097-.7064-.862-.6601-.458-.0799-.168-.9629-.627.1135-.458-.8199-.055-.719-.466-.6264.349h-.6434l-.1976-.097-.3868-.32-.3532-1.236-.3322.034-.3069-.66-.698-.694-1.0175-.82-.4709-.257-2.0435-.084-.3742.354-.0336.319-.3995.236-.1808.075-.4246-.063-.307.118-.3405-.084-.5046.126-.4919-.395-.0337-.82-.2312.033-.0421.883-.3322-.096v-.349l-.1387.286-.0799-.034.0378-.307-.1009-.034-.0883.265-.021.084.7064.341v.084l-.5845-.139-.391.084-.021.181-.1472-.096-.3195.172-.3448-.172-.1682-.396-.5844-.563-.3911.034-.1135-.194-.9502-.66-.6181-.584-.3112-.404-.9502-1.812-.6391-.917-.677-.652-.412-.105-1.7912-1.312-.698-.937-.3279-.181-.1178-.341-.2607-.151.0925-.862.2986-.82 1.4296-.832 1.4295-1.144 1.0638-.685 1.644-.984.534-.181.8788-.673 1.808-.929.6181-.118.7862.181.5929-.042.7232.151.7568.513.2859-.012 2.0477-.778.904-.202.3111-.193.2523-1.304.0379-.803.1135-.063-.0673-.244-.1598-.034-.1345-.159.4793-.084.2523-.396 1.3371-1.379-.1009-.202.3279-.084.4037-.887-.2145-.269.0673-.084.2607-.013.0126-1.211-.9839-.311-.7652-.63-.719-1.115-.2145-.651-.1009-.652.0253-.727.5129-1.199.5508-.984.3785-.416.391-.172 1.3287-.438.7189-.042 2.0898-.857 1.7155-.013 1.7575.353.2859-1.329.2859-.407zm-2.3252 6.879.2271.054v.105l-.3406-.096-.0715-.32-.3069.055-.2985.214-.2397.555.1009.181-1.9678 1.337-.391.236-1.9215.672-.021 1.186.3321.042-.1261.45-.3658.013-.5508 1.337.1345.033.2187-.256.0252.151-.6055.665.6139.319-.0925.063-.5718-.256-.2145.193.1051.458-.1513.278-.0589-.105.0715-.215-.3868-.319-.6139.534-.0126.084.1135.055-.1514.084-.0462.311-.1051.055.0126.151-.1388.223-.1808 1.581.1388-.042-.0421.244.3532-.257.0126.214.6602-.138.7526.513h.1976l.1598.29.7736.012.6139-.382.4793.075.2944-.256.7904-.021.1808-.223.7989.173.4247-.404 1.2446-.118.2649-.244.5255-.012.7064.244.7737-.257h.3111l.2607.332 1.2824.236.7106.756 1.0974 1.914.2187-.194.0378.202-.2481.097.0463.151h.1261l.0925.383.2733.5.1514.042-.0799.332-.4373.278-1.1394.319-.7443 1.005-.5339.173-.2481-.105-.4878-.513-.1009-.299-.6265-.425-1.1562.265-.7863.639-1.0974-.256-.0589.063-.8914-.521-.6769-.085-.1051.106-.0925-.076-1.7786 1.034-.4079.492-.9712.66-.4541.778-.2061.126-.3321-.748.185-.639.1934.096.227.703.0673-.021-.0462-.265-.1598-.223-.0126-.244-.1934-.139-.2397-.82-.6391-.895.7989-1.047-.0673-.042-.1598.193-.5129.749-.2733.063-.4794-.299-.4457-.513-.6517-.319-.0925-.215-.227.097-.2944-.181-.5255-1.333-.0463-.311.1135-.055.0547-.193-.513.126-.7652.404.1177.992.1346.244.5802.555-.0336.214.3784.375.0462.193.5677.244.7652.618.2397.063.5928 1.236.3995 1.186.8914 1.312.2606.223v.244l.1052-.194.227.416-.1472-.382.2145.126-.0463-.118.8998-.181-.1934-.084-.5928.063-.1935-.256.6181-.265.3658-.383.5172-.105.0336-.075-.2144-.16-.0463-.202.4247-.791.0799-.491.7442-.48.3196.021-.1808.429.206-.013.0799-.298 1.5978-.034 1.3581.181.5382-.181.1513-.256.1724-.076.6265-.097.1051-.138.7989-.034.3532.063.4877.278.1388.214-.021.16.2312.202.7905.159.206-.096-.0588-.299.248-.151.1262.012.1219.341 1.0512-.29.5928.202.1514-.152.185.126.1051-.256.3658-.013.3322-.214.4078.181.5382-.021.1934.265.0715.534.1472.311.5844.841 1.0302-.45.7736.139 1.4843.534.6601.332.1345-.042-.042.479.1051.383h.206l-.0715-.854.4794.299.3448.042.2775.563.2186.034.0463.126.8115.563.3658.383.4919-.151.2271.353-.1346.445.1514.492.1387.084.1598.32v.172l-.1976.341.0588.063-.1135.139.1472.147.1387.446.1724.084.4667.672.101-.033.0798.126-.0798.055.5466.853.3447.013.5971 1.299.6307.147 1.5641.988.0337-.075.1387.033.2481.383.3784.055 1.0175-.173.3406-.319 1.0764-.564.3195-.021.1472-.193 1.2824.223.1976.105.1262.201.3279.097.7317-.054-.2019-2.057.1514-.512-.3868-2.91-2.8592-1.291-.2397-.404-.0252-.256.3742-.77-.5129-.424-.1262-.311-.7652-.055-.2397-.118-.185.236-.3069.075-.1051-.012-.4121-.459-.5592.215-1.6104-.063-.0715-.097-.5844.034-.0547-.194-1.1436-.084-.1935-.223.1178-.18-.185-.055.0462-.084-.1009-.105-.2523.021-.3405-.908.1009-.173-.4205-.374-.1598.063-.1135-.126-.0378-.5-1.1101-.202-.4372-.244.1808-.5-.4247-.631-.7064-.299-.2649-.34-.412-.236-.9125-.138-.3658-.492.0253-.555.4246-.652.8031-.084-.0084-.084.4457-.173.2144.097.4247-.278.2775.106 1.0386-.77.5171-.034.4794-.512.3658-.097.1682.063.0672-.151.8662-.27.5256.173.3532-.055.8241.173.206.222.206.568.1724-.084.1346.063.4204.429-.0883-.299.719.013 1.1563-.236.2271.181.5508-.042.0799.076.1135-.311.7736-.118.0337-.235h-.307l-.0084-.085.4373-.243-.0252-.387-.3112-.021-.3111.202-.206-.118-.3406.223-1.9678-.055-.6433-1.295-.5592-.45-.2313-.012-.2523-.202-.0546-1.11.0925-.16.2943.118v-.341l.9965-.879.677.021 1.2109.353.4709.236.3406.298.9292.408 1.1395.694-.0463-.555-.2859-.504-.7106-.417-.0546.131-.1976.054-1.0638-.664-.0925-.139.1976-.374-.0378-.076-.1472-.012-.3069.429-.8914-.312.0588-.13-.1345-.105.0252-.076.1808.118 1.2025-.084.0253-.215-.2271-.033.0126-.105-.1387-.084-.7106.075-.3448.202-.042-.063.3069-.181.6517-.063.0799-.172h.0883l.0126.13.1976.021.0463-.172.1514-.097-.2986-.79-.1976-.152-.1387-.269-.4079.257-2.3336.353-.9124.63.0799.215.6391.652-.1135.319h-.3112l-.1513.332.1808.084-.0084.127-.1051.13-.1388-.013-.0252.311-.9124.568-.1388.353-.6475.686-.7905.386-.6265-.277-.6727.353-.1177.202-.8998.332-.9629.526-1.0932.021-.3742.319-1.1185.072-.4919-.269-.8367-.875h-.185l-.4121-.845-.1598-.151-.1051.012-.3406.534-.4078.131.0084-.131-.3532-.033-.2396.096-1.2783-.395-.0798-.151 1.5094-1.337.492-.194-.5508.139-1.4969 1.345-.3406.106.0337-1.018-.328-.597.0715-.151-.1724-.665-.2523-.16-.3322-.555.0337-.47-1.1647-1.102-.1808-.084-.5382.172-1.644-.845.0883-.29-.0379-.353-.3447-.513-.2986-.16-.4204-.063-.4247.055z"/><path d="m89.5084 202.104.4457.387.1262-.063.1934.054.0715.202.4667.248.021.16-1.2193.055-.4542-.118-.4583-.505.6434-.407zm-4.9783-3.343.534.013 1.6987.42 2.2074.997 1.0596.345.3658.193.0337.345-1.5389.601-1.0933-.042-.8115-.202-1.0427-.61-2.0939-1.438-.1472-.18.0589-.311.2733-.16zm14.9391-62.115 4.5158 2.039.42-.782.9-.248.181-.013 1.631.694-.538.782-.437 1.152-.008.274-.618 1.345-1.317 1.333.122.858-.525 2.754-.547.681-.038.206.068.551.454.37.979.227.707-.24.992.391.946.118 1.362-.097 2.157-1.257 1.266-.076.168-.109.089.063.487-.509.631-.26 1.299.206-.092 1.236.239.53.034.391-.08.193.387.294.517-.651.812-.522.613-.138.581-.454.387-.564.651-.282.694.152.025.715.471.777-.012 1.06.105.576.454-.021.134.336 1.905 2.098 1.005.358 2.228 1.547-.021.152-1.362.529.248 1.699-.298.139-.034.117-.479.076-1.3-.172-.374-.29-.151-.639-.387.206-.626.117-.534.227-.379.551-.134.866-.82.366-.105.442 2.274 1.631-.038.984.114 1.64.118.53.374.454-.025.571.66-.159 2.068-.021-.34.689-1.392.509-1.097.832-.858 1.338-.479.357.113.807-.584.421v.387l.185.605.744-.076.408-.29 1.106.042.424-.227.547 1.047-.059.139-2.67.656.593.786.505.172.424.581-.261.117.694.98.787.896.5.311.168.58.467.379.538 2.119.694-.236.618-.054 1.299-.333.505-.635.445-1.067.454-.476h.375l1.005.4.504.033.379-.26.866-1.228.605-.357.265-.055.505.097 1.026.807.672-.076.345-.475.172-.517.434-.475 1.177-.925.231-.345 1.27-.626.706-.206.757.042.505.159.664.248.866.505.173.324.147 1.11.332.702.479.282 1.186.206.433.281-1.922 3.663-.193.042.055.269-.854 1.236.042.677-.311-.151-.925 1.711-.118.912-.151.29-.711-.172-.433.109-.399-.117-.185.151-.072.525-.437.656-.467.257-.803.013-.546.269-.105.365.168.366.458.282-.248.235-.753.303-.218.248-.644-.256-1.681.042-.757-.665-.173.181.248.786-.147.593.4.665 1.429.193-.433 2.094-.996-.021-2.25-.332-1.934-.429h-1.097l-.745.172-1.568.782-1.202 1.245-1.031.74-.391.16-.731.16-1.699-.257-.9.055-.925.298-.996.538-1.03 1.224-.644 1.943-.298.47-.845.934-1.472 1.308-2.014 1.425-4.192 1.198-1.051.845-4.991 1.371-1.4633-.151-4.9951-1.67-.9124.858-.4373.278-.185.483-.3742.013-.1935.429-.8325.824-.1598.694-.4541.748-.5844.61-.5845.34-1.3833.644-1.3118.277-.9124.408-1.5978.374-1.8038-.214-1.2446-.408-2.1696-1.497-3.0483-2.313-.9797-.105-1.253.034-1.2572-.45-2.9264-.235-.4793-.194-.5845-1.026-.2144-.845-.1009-2.077-1.0975-1.556-.2648-1.148-.185-.277-2.5397-.568-.946-.857-1.232-.173-1.2782.332-1.0259.61-1.3497 1.716-.6769.13-1.9047-.601-.5509-.539.8704-.449.3448-.333.6055-1.576.1808-.526-.0463-.256-.6769-1.653-.0211-.664.513-.795.5929-.462.6264-.131.9503-.366.7652-.021.5719-.151 1.9425-.912 1.9972-.761.7527-.194 1.3707.021.6643.311.2859.269-.597-.117-.0925.471.8661.525.4247.505.3279.139.0925-.097-.227-.269.0084-.194.2943.076.2145-.16.1177.089.6643-.774-.1051-.118.0673-.118.513-.407.5045-.227.0337-.375-.2986-.71-1.9762-2.935-.1681-.4.1051-.815.3195-.463.7653-1.635.2186-.16-.0462-.332-.5046-.442-.3742-.16-.2481.408.0126.463-.1724-.173h-.0714l-.0253.194-.0883-.034-.1682-.29-.433-.139-.2944.236-.1345-.055-.3532.215-.4457.042-.2312-.11-.1262-.227.0715-.58.9502-3.36.0211-.883-.0925-.075-.2397.118v-.581l.4079-.946.2859-.214.4709.076.4709-.703.1808-.063.6181.282.1177-.088.492-.013.4541.29.8325.332.3994.333 1.4044-1.241.9586-.647.5635-.484.3069-.42.4121-.29.74-1.249.8451-1.165 5.1297-5.945 1.438-1.838.0126-.164.1597-.042.286.24.3111-.463-.0883-.054-.2607.323-.1387-.117-.0211-.194 1.3708-1.404.4583-.336 1.0848-1.178 2.96-3.796 1.9972-2.935 2.5691-4.474 1.8626-3.469zm-29.1676 53.26-.6517.795.1135.109-.1261.374.042.227-.2186-.042.0715.181-.1051.118.0925.084-.0421.105.1051.034.3112-.324.4667.248.6265.568 2.4219 1.085.8241.613 1.9425.967 1.2656.85 1.8416.61-.0462.084.1135.084.1682-.042 1.4506 1.585.8914.773.7863.534.1597.345 1.1437 1.413.3195.29 1.4633.921.6265.13 1.0848.77 1.1646.45.8788.159 2.4345.131.4667-.055.1976-.181.1388-.235.0084-.374.185-.013.4205-1.404-.513-.29-.021-.139-.1388.075-2.6153-1.53-2.3167-1.072v-.097l-.1724-.042-.0084.097-2.7793-.837-1.602-.601-.4919-.374-.7316-1.031-.0799-.201.1009-.106.0084-.677-1.0133-1.126-.9503-.526-.597-.042-.3322.139-.2523-.11-1.3496-1.644-.2649-.138-.1808-.236-.534.076-.4121-.076-.1387.042-.1009.194-.1682.021-.6644-.042-.2859-.215.0463-.353-.2187-.055-.1345.442-.2523-.324-1.5852-.559-.5003-.471-.5004-.786-.9502.45-.206.269z"/></g></g></svg>