<svg fill="none" height="253" viewBox="0 0 303 253" width="303" xmlns="http://www.w3.org/2000/svg" xmlns:xlink="http://www.w3.org/1999/xlink"><clipPath id="a"><path d="m0 0h303v253h-303z"/></clipPath><g clip-path="url(#a)" fill="#000"><path d="m181.925 63.136s-2.568-1.5406-4.964 1.1983c0 0-4.28-6.0809-22.426-.815 0 0 2.397 4.5811 4.109 4.5811s-3.253 7.8744-7.875 7.5321c0 0-7.874 11.4693-1.883 22.5962 5.906 10.9673 10.148 14.4503 16.005 7.3373.18-.221.38-.424.599-.606 1.684-1.389 9.142-7.1652 11.785-2.858.563.956.724 2.097.448 3.172-1.207 5.053-6.848 23.663-23.188 16.236 0 0-19.041-7.141-14.55-24.0572.48-1.7206 1.177-3.3733 2.073-4.9186.864-1.5786 1.396-3.3171 1.564-5.1087.169-1.7917-.031-3.5988-.586-5.3107-.688-2.4405-2.241-4.5472-4.368-5.9269-2.063-1.2866-4.782-1.8618-6.842 1.7359-.852 1.4966-1.301 3.1889-1.304 4.9114-.004 1.5765.289 3.51 1.588 4.4378l-1.588 3.0813c-.864-1.7576-1.968-3.3861-3.282-4.8386-2.199-2.2278-3.612-5.1122-4.024-8.2156-.582-4.9232.118-12.2739 5.984-20.8402 0 0 7.875-15.7489 22.597-15.4065 14.721.3423 27.389 4.2795 30.128 22.0826z"/><path d="m157.273 83.6785c2.558-.5848 5.185-.8013 7.803-.6429 1.319.0656 2.628.2641 3.907.5926 1.305.2801 2.518.8864 3.526 1.7622-1.163-.5401-2.405-.89-3.679-1.0361-1.259-.1809-2.529-.3126-3.809-.3699-2.56-.1588-5.133-.171-7.748-.3059zm24.651-.2444c-.936.2846-1.803.762-2.544 1.4015-.351.2898-.637.6503-.839 1.0581-.203.4078-.317.8537-.335 1.3086.069.9332.313 1.845.721 2.6875l1.119 2.7521c.835 1.862 1.32 3.8619 1.432 5.8995-.002.5369-.101 1.0691-.291 1.5706-.205.508-.54.954-.972 1.291-.876.552-1.91.798-2.941.699.966-.082 1.887-.45 2.643-1.057.311-.331.545-.727.686-1.1582.142-.4314.187-.8886.132-1.3394-.073-.9532-.267-1.8932-.575-2.7981-.288-.9267-.632-1.8451-.999-2.76-.351-.9217-.732-1.8382-1.074-2.782-.164-.4765-.331-.9517-.459-1.4542-.16-.5194-.214-1.0656-.16-1.6064.058-.5378.233-1.0563.514-1.5185.28-.4623.66-.8569 1.11-1.1558.848-.5668 1.819-.9228 2.832-1.0383z"/><path d="m181.923 63.1367c.321 1.9188.559 3.8478.716 5.7872.178 1.9364.288 3.8784.33 5.8262.031 1.9477.002 3.8989-.151 5.8515-.089 1.9903-.533 3.9486-1.312 5.7823-.012.0228-.026.0439-.043.0626-.601.6468-1.165 1.327-1.689 2.0372-.261.3558-.492.7317-.693 1.1242-.223.3822-.312.8278-.254 1.2664-.137-.4413-.112-.9172.07-1.3417.158-.4283.349-.8432.573-1.2409.447-.7927.964-1.544 1.544-2.245l-.042.0622c.331-.8759.552-1.7897.657-2.7202.149-.9389.209-1.8975.279-2.8529.113-1.9176.133-3.8468.144-5.7771 0-3.8635-.085-7.7341-.129-11.622zm-10.271 33.552c-.18.3716-.326.759-.436 1.1574-.111.368-.136.7569-.071 1.136.053.3757.217.7269.471 1.0085.269.3114.568.5954.892.8474-.207-.061-.411-.134-.61-.218-.194-.107-.377-.233-.545-.376-.354-.306-.592-.7232-.676-1.1829-.06-.4552.008-.9182.196-1.3369.176-.4009.443-.7554.779-1.0355zm-39.543-9.4151c.592.7437 1.065 1.5753 1.401 2.4648.18.4541.31.9263.388 1.4085.042.2528.059.5091.05.7651l-.005.1971.012.107c-.004.0696.011.139.044.2003.147.3132.406.5596.726.6902.381.1944.781.3461 1.195.4524.879.237 1.783.3682 2.694.3908-.899.3525-1.874.4691-2.831.3387-.5-.0509-.989-.1762-1.451-.3718-.272-.1056-.521-.2639-.731-.4659-.211-.202-.379-.4436-.496-.711-.061-.1507-.091-.3122-.088-.4749l-.004-.2402.008-.1501c.01-.207.006-.4146-.014-.621-.038-.4386-.107-.874-.205-1.3031-.194-.8795-.45-1.7638-.693-2.6769zm-1.588 3.0813c-.382 1.3846-.921 2.7211-1.606 3.9836-.67 1.2812-1.479 2.4847-2.413 3.5889-.934 1.1251-2.042 2.0936-3.281 2.8686-1.243.771-2.666 1.204-4.127 1.256 1.337-.402 2.594-1.036 3.713-1.872 1.094-.8417 2.091-1.8041 2.971-2.8686.904-1.0632 1.74-2.1826 2.502-3.3513.768-1.1743 1.53-2.365 2.241-3.6052zm12.544 40.0571c1.081-.474 2.104-1.073 3.047-1.784.937-.699 1.824-1.46 2.658-2.278.86-.794 1.631-1.682 2.432-2.55l1.165-1.346c.38-.459.758-.922 1.176-1.365-.239.555-.516 1.091-.792 1.631-.313.515-.621 1.038-.965 1.537-.694 1-1.484 1.93-2.357 2.778-.877.855-1.856 1.598-2.915 2.214-1.05.637-2.228 1.034-3.449 1.163z"/><path d="m125.94 97.618c-.851-1.2624-1.905-2.376-3.118-3.2963-.253-.2232-.559-.3772-.889-.4471-.329-.07-.672-.0534-.993.048-.568.3857-.975.9654-1.146 1.6302-.234.7089-.402 1.4377-.503 2.1774-.051.3678-.097.7506-.13 1.1045.002.3368.032.7326.066 1.1008.147 1.5095.427 3.0035.836 4.4635.753 2.972 1.924 5.822 3.476 8.466 1.573 2.643 3.455 5.089 5.606 7.287 1.078 1.091 2.2 2.141 3.337 3.164 1.182.975 2.31 2.022 3.54 2.917.594.479 1.248.868 1.867 1.307.656.377 1.286.805 1.969 1.125 1.32.718 2.725 1.268 4.181 1.639 2.908.771 5.998.447 8.682-.912 2.698-1.439 4.964-3.571 6.565-6.176.006-.011.016-.02.028-.024.012-.003.025-.002.036.004s.019.016.022.028c.004.011.004.024-.001.035-1.393 2.829-3.582 5.188-6.299 6.789-1.391.789-2.922 1.302-4.507 1.511-1.591.188-3.203.086-4.757-.302-1.543-.367-3.028-.944-4.413-1.716-.708-.351-1.35-.806-2.021-1.212-.63-.464-1.297-.882-1.894-1.385-1.253-.941-2.35-2.04-3.509-3.072-.591-.504-1.092-1.104-1.635-1.657-.523-.574-1.089-1.105-1.575-1.711-2.026-2.343-3.867-4.84-5.504-7.47-1.667-2.629-2.995-5.458-3.952-8.421-.467-1.499-.773-3.043-.91-4.607-.026-.4009-.05-.7747-.041-1.2094.045-.4119.101-.795.164-1.189.126-.7863.324-1.5594.592-2.3093.121-.4139.323-.7996.594-1.1346.271-.3351.606-.6128.986-.8169.427-.1674.9-.177 1.333-.027.394.1349.762.3363 1.088.5955 1.196 1.0193 2.184 2.2598 2.911 3.6534.003.0054.005.0114.006.0176 0 .0062 0 .0124-.002.0185-.001.006-.004.0116-.008.0165-.004.005-.009.0091-.014.0122-.011.0054-.023.0068-.035.004-.011-.0029-.022-.0098-.029-.0195zm-44.0689 12.936c1.2467.353 2.378 1.03 3.2797 1.961.9291.916 1.6722 2.003 2.1883 3.201.5172 1.192.808 2.469.8575 3.767.0248.639-.008 1.279-.0978 1.912-.1088.628-.2749 1.245-.4962 1.843-.2218-.619-.3219-1.216-.4849-1.799-.175-.58-.2798-1.157-.4743-1.709-.3101-1.096-.6904-2.171-1.1384-3.218-.4494-1.041-.9749-2.047-1.5721-3.011-.6256-1.024-1.3142-2.008-2.0618-2.947zm4.3621 23.966c.3853 4.439.5732 8.877.6917 13.314.131 4.438.145 8.874.1365 13.311-.046 4.436-.1171 8.873-.3047 13.308-.175 4.436-.4211 8.871-.8659 13.305-.3877-4.44-.5768-8.877-.6947-13.315-.1305-4.437-.1446-8.874-.1335-13.311.0485-4.436.1196-8.872.3076-13.308.1756-4.435.4206-8.871.863-13.304zm91.5488-29.327c3.662 2.292 7.257 4.678 10.785 7.16 1.766 1.24 3.517 2.501 5.254 3.785l2.585 1.975c.453.34.88.713 1.277 1.118l.615.641.517.655c1.339 1.728 2.562 3.544 3.658 5.435 1.104 1.864 2.179 3.74 3.225 5.629 2.066 3.793 4.193 7.545 6.382 11.254 1.095 1.856 2.211 3.699 3.348 5.531l1.701 2.746c.504.897 1.103 1.739 1.786 2.509.725.71 1.588 1.414 2.338 2.299.889.926 1.425 2.135 1.513 3.416-.067 1.314-.639 2.55-1.597 3.452-.409.413-.839.805-1.289 1.174-.402.325-.793.665-1.176 1.017-.77.706-1.478 1.449-2.198 2.248-.733.81-1.492 1.596-2.262 2.372-1.555 1.553-3.206 3.007-4.944 4.352-1.771 1.372-3.699 2.528-5.744 3.443-1.072.454-2.199.766-3.352.928-1.211.18-2.447.072-3.609-.314-.185-.056-.343-.178-.443-.344l-.007-.01c-.75-1.244-1.572-2.484-2.403-3.698-.831-1.219-1.7-2.408-2.609-3.569-.913-1.151-1.888-2.252-2.922-3.296-.995-1.075-2.213-1.918-3.57-2.47l-.007-.002c-.024-.009-.044-.026-.056-.048-.011-.023-.014-.049-.007-.073.006-.024.022-.045.044-.059.021-.013.047-.018.071-.013 1.483.383 2.853 1.111 3.999 2.125 1.175.951 2.277 1.99 3.295 3.108 2.046 2.215 3.926 4.578 5.624 7.07l-.449-.354c1.904.388 3.885.1 5.599-.815 1.872-.892 3.632-2.003 5.243-3.31 1.668-1.295 3.264-2.682 4.779-4.155.767-.733 1.525-1.477 2.259-2.245.743-.782 1.545-1.58 2.383-2.308.421-.366.852-.722 1.298-1.062.404-.337.787-.625 1.125-.968.655-.564 1.083-1.347 1.204-2.203-.052-.888-.406-1.732-1.004-2.391-.613-.788-1.386-1.502-2.137-2.36-.198-.224-.383-.459-.555-.703l-.433-.734-.78-1.431-1.525-2.855c-1.006-1.908-2.034-3.802-3.083-5.683-2.104-3.758-4.322-7.454-6.724-11.029-2.382-3.57-4.798-7.184-7.378-10.482l-.488-.609-.509-.52c-.349-.374-.727-.718-1.131-1.03l-2.514-1.998-5.076-3.985c-3.392-2.654-6.74-5.372-10.044-8.154-.019-.016-.032-.039-.035-.065-.003-.025.004-.05.018-.071.015-.02.038-.034.062-.039.025-.005.051 0 .073.013z"/><path d="m191.168 137.487c-1.751 6.579-3.404 13.174-4.784 19.794-.711 3.282-1.207 6.606-1.485 9.952-.095 1.609-.104 3.386-.246 5.108-.137 1.755-.431 3.495-.878 5.199-1.05 3.368-2.734 6.504-4.961 9.24-1.029 1.372-2.119 2.699-3.139 4.032-.491.662-.989 1.319-1.43 2.027-.473.683-.9 1.402-1.326 2.123-1.675 2.927-3.172 5.952-4.484 9.058-1.384 3.094-2.577 6.274-3.744 9.473 1.485-6.688 3.791-13.166 6.864-19.289.793-1.548 1.702-3.033 2.719-4.445 1.008-1.394 2.041-2.725 3.014-4.101 2.048-2.574 3.595-5.51 4.562-8.654.429-1.583.716-3.201.859-4.835.159-1.667.154-3.294.307-5.076.357-3.427.976-6.821 1.851-10.154 1.679-6.613 3.783-13.11 6.301-19.452zm75.444 89.084c-.398 0-.779-.158-1.061-.439-.281-.281-.44-.663-.44-1.06 0-.398.158-.78.439-1.061.281-.282.662-.44 1.06-.44l34.918-.046h.002c.197 0 .392.038.574.113.182.076.348.186.487.325s.25.305.326.487c.075.182.114.377.114.574s-.038.392-.114.574c-.075.182-.185.347-.325.487-.139.139-.304.25-.486.325-.182.076-.377.115-.574.115l-34.918.046z"/><path d="m44.4821 225.575-44.027022.416.028326 3 44.026996-.416z"/><path d="m166.517 90.0689c.37-.0128.72-.1687.977-.4348s.401-.6217.401-.9918c0-.37-.144-.7256-.401-.9917s-.607-.422-.977-.4348c-.37.0128-.72.1687-.978.4348-.257.2661-.4.6217-.4.9917 0 .3701.143.7257.4.9918.258.2661.608.422.978.4348zm37.754 147.8831c5.042 3.437 10.715 5.839 16.691 7.068 2.968.572 5.993.789 9.011.646 3.012-.163 5.995-.67 8.892-1.509 5.785-1.762 11.244-4.458 16.158-7.984 1.234-.832 2.4-1.761 3.487-2.777 1.086-1.029 2.108-2.123 3.062-3.275 1.908-2.305 3.558-4.811 4.922-7.474l-.096.404.001-.01v-.021c.002-.133.034-.263.094-.381 1.179-2.315 2.142-4.733 2.878-7.224.73-2.503 1.202-5.074 1.408-7.673l.004-.054.006-.035c.015-.052-.003-.027.014.066l-.008-.158c.411-5.26-.329-10.547-2.168-15.493-1.878-4.938-4.786-9.42-8.53-13.146-3.701-3.663-8.098-6.547-12.932-8.482s-10.007-2.881-15.213-2.783-10.34 1.238-15.098 3.354c-4.757 2.115-9.043 5.163-12.603 8.963-3.57 3.814-6.349 8.297-8.176 13.192-1.82 4.958-2.665 10.221-2.49 15.499 0 .014-.002.027-.007.04-.005.012-.012.024-.021.034-.01.01-.021.018-.033.023-.012.006-.026.009-.039.009-.026 0-.051-.009-.071-.027-.019-.017-.032-.041-.035-.067-.637-5.353-.125-10.781 1.501-15.922 1.639-5.194 4.359-9.983 7.981-14.05 3.633-4.099 8.086-7.39 13.071-9.658 4.995-2.263 10.416-3.435 15.9-3.436 5.448-.054 10.847 1.04 15.845 3.209 4.998 2.17 9.483 5.367 13.164 9.385 3.646 3.964 6.488 8.598 8.371 13.644 1.88 5.055 2.788 10.42 2.677 15.812l-.008-.157c.022.121.02.245-.006.366l.01-.09c-.073 2.703-.428 5.39-1.058 8.02-.621 2.64-1.532 5.203-2.716 7.644l.094-.403v.01c.002.134-.027.267-.087.388l-.008.017c-1.385 2.814-3.116 5.444-5.154 7.829-1.013 1.194-2.098 2.325-3.248 3.388-1.17 1.05-2.417 2.013-3.73 2.879-5.092 3.576-10.758 6.254-16.754 7.918-6.023 1.636-12.353 1.791-18.449.451-6.016-1.435-11.673-4.089-16.621-7.8-.021-.015-.036-.039-.041-.065-.004-.027.002-.054.017-.076s.039-.038.065-.043.054 0 .076.015z"/><path d="m213.092 171.881c-.274.736-.505 1.481-.737 2.223-.228.744-.451 1.487-.651 2.236-.222.74-.402 1.494-.579 2.249l-.579 2.243.029-.188c-.002.085-.018.169-.048.249-.037.097-.092.186-.163.261-.072.075-.158.135-.254.177-.095.041-.198.063-.302.064l.729-.554c-.421 2.172-.941 4.309-1.384 6.467-.406 2.166-.815 4.333-1.158 6.515-.356 2.18-.71 4.362-1.008 6.561-.341 2.194-.662 4.398-1.045 6.608-.199-2.233-.265-4.475-.197-6.715.038-2.242.191-4.48.46-6.707.279-2.224.616-4.447 1.106-6.64.223-1.101.522-2.187.829-3.268.309-1.082.594-2.168.928-3.24l.729-.554c-.101.001-.202.023-.294.063-.093.04-.177.099-.247.172-.07.074-.124.16-.159.255-.029.077-.045.159-.047.241l.029-.188c.553-1.48 1.063-2.965 1.718-4.403.637-1.443 1.406-2.824 2.295-4.127zm38.815 0c1.363 2.346 2.489 4.822 3.361 7.392.484 1.271.827 2.583 1.245 3.877.371 1.306.679 2.628 1.019 3.945 1.186 5.3 1.948 10.687 2.279 16.109.342 5.41.346 10.837.013 16.248-.166 2.701-.469 5.392-.727 8.081-.415 2.675-.775 5.351-1.251 8.009.044-2.707.216-5.393.312-8.082l.168-8.061c-.014-1.343-.021-2.684-.011-4.025l.007-2.011-.072-2.009-.106-4.016-.248-4.008c-.318-5.342-.928-10.662-1.827-15.937l-.772-3.939c-.309-1.299-.558-2.62-.925-3.907-.62-2.616-1.444-5.179-2.465-7.666zm-20.285 52.83c.619-.621 1.144-1.328 1.56-2.1-.01.9-.03 1.79-.05 2.69-.13 6.5-.38 13-.75 19.5-.37-6.5-.62-13-.75-19.5 0-.2-.01-.39-.01-.59zm.27-6.43s.66-.79 1.38-1.83c-.01 1.01-.02 2.03-.04 3.04-.346-.502-.805-.916-1.34-1.21zm1.45-13.45v1.92l-.03 4.71c-.632.052-1.256.176-1.86.37-.01-1.7-.02-3.39-.03-5.08v-1.92c.04-12.69.22-25.37.96-38.06.73 12.69.92 25.37.96 38.06z"/><path d="m196.917 189.537c5.556-2.469 11.37-4.308 17.336-5.483 5.973-1.221 12.05-1.866 18.146-1.927 3.051-.091 6.096.154 9.14.324 1.515.169 3.026.389 4.538.581.754.107 1.513.184 2.263.314l2.237.48c5.965 1.198 11.762 3.115 17.264 5.711-1.46-.417-2.909-.849-4.347-1.297l-2.158-.663c-.722-.21-1.469-.337-2.2-.509l-4.388-1.021c-1.473-.282-2.96-.495-4.436-.745l-2.217-.363c-.741-.098-1.489-.157-2.233-.237-1.491-.145-2.978-.317-4.468-.438-2.992-.111-5.978-.339-8.973-.217-5.996.052-11.98.545-17.903 1.477l-4.44.769c-1.469.31-2.949.587-4.415.926-2.947.626-5.853 1.426-8.746 2.318zm34.576 38.415 9.198-1.187c3.042-.429 6.078-.885 9.095-1.432 3.02-.518 6.029-1.131 9.032-1.775 1.487-.375 2.988-.713 4.497-1.045l1.138-.233 1.118-.291c.749-.191 1.506-.368 2.272-.537-.688.356-1.386.702-2.092 1.038-.699.346-1.417.654-2.149.922-1.457.548-2.921 1.089-4.399 1.595-2.977.933-6.011 1.674-9.084 2.217-6.142 1.133-12.414 1.378-18.626.728zm-38.12-22.16c1.97-.12 3.94-.22 5.91-.3-.537.143-1.065.32-1.58.53-1.45-.07-2.89-.15-4.33-.23zm78.02 0c-6.5.37-13 .62-19.5.75-6.19.14-12.37.19-18.55.21h-1.92c-.78 0-1.55-.01-2.33-.01.08-.83-.33-1.38-1.49-1.44-1.021-.028-2.02.305-2.82.94-.18.14-.38.29-.61.46-6.07-.04-12.137-.157-18.2-.35-.025-.216-.092-.424-.199-.613-.106-.189-.249-.354-.421-.487 8.69-.3 17.38-.39 26.07-.42h1.92c6.18.02 12.36.07 18.55.21 6.5.12 13 .37 19.5.75z"/><path d="m209.813 180.621v.004c-.001.001-.002.002-.003.003 0 .001-.002.002-.003.002-.001.001-.002.001-.004.001-.925 1.748-1.647 3.597-2.15 5.51-.01.02-.01.05-.02.07-.75 2.89-.38 3.42-1.37 6.27-.56 1.61-1.06 2.54-.78 3.87.267.838.605 1.651 1.01 2.43.12.25.24.52.38.82.69 1.52.86 1.88.71 2.34-.19.56-.63.63-1.44 1.12-.285.167-.556.358-.81.57-.48.361-.922.77-1.32 1.22-2.997-.031-5.949.739-8.55 2.23-.62.35-1.29.7-2.01 1.07h-.01c-.03-.43-.04-.86-.06-1.29-.01-.36-.01-.71-.01-1.07-.007-5.612 1.201-11.159 3.54-16.26l.01-.01h.01c.941-2.067 2.065-4.045 3.36-5.91 4.35-4.24 9.04-6.44 10.6-6.43.169-.015.338.035.47.14.35.35-.49 1.31-1.55 3.3zm61.58 25.17c0 .33 0 .66-.02.99 0 .28-.02.55-.03.83 0 .05-.01.1-.01.15-.001.291-.018.581-.05.87-.352 4.997-1.673 9.878-3.89 14.37-.028.018-.058.031-.09.04v.01c-.262.125-.542.206-.83.24-.336.034-.676-.003-.996-.11-.321-.107-.615-.281-.864-.51-.01-.01-.02-.03-.04-.04-.81-.89-.16-2.13-.42-3.99-.22-1.54-1.03-2.63-2.64-4.8-.701-.996-1.483-1.933-2.34-2.8-.59-.57-1.14-.92-1.53-.76-.49.22-.64 1.26-.46 2.02.27 1.14 1.19 1.24 1.39 2.16.27 1.21-.96 2.61-2.01 3.25-.586.395-1.264.631-1.969.685-.704.054-1.411-.075-2.051-.375-1.44-.84-1.4-2.63-2.17-2.63-.61.01-1.15 1.13-1.24 2.01-.071.551.024 1.11.271 1.606.248.497.637.909 1.119 1.184.99.42 1.63-.45 2.79 0 .347.114.658.317.902.589s.413.604.488.961c.05.95-1.25 1.69-2.94 2.63-1.93 1.07-2.53 1.02-4.8 2.17-.22.11-.42.21-.61.31-.887.409-1.72.926-2.48 1.54-1.56 1.28-1.41 1.85-2.94 3.1-.999.927-2.228 1.57-3.56 1.86-1.21.2-1.46-.17-3.56-.31-.476-.034-.953-.044-1.43-.03-.919.012-1.837.073-2.75.18-1.068.106-2.128.29-3.17.55 5.36-2.73 6.07-6.86 3.84-7.84 0 0 6.34-4.81 1.59-7.62 0 0 7.68-9.14-.99-6.28-.721.247-1.406.587-2.04 1.01-.27.17-.58.38-.93.6l-1.03-2.62v-.01c2.03-2.76 3.39-5.55.7-5.68-1.021-.028-2.019.305-2.82.94-.62.47-1.51 1.13-2.63 1.89l-2.27-2.34c-.518-.843-.836-1.794-.93-2.78-.041-1.087.144-2.171.543-3.183s1.005-1.931 1.777-2.697c1.425-1.509 3.249-2.584 5.26-3.1 1.578-.61 3.281-.823 4.96-.62.28.05.58.11.89.19.98.23 1.99.57 2.51.74.885.401 1.826.665 2.79.78 1.26.06 1.61-.32 2.16 0 .69.38.58 1.18 1.09 3.09.51 1.89.93 3.49 2.01 3.87.81.28 1.25-.38 2.17 0 .6.25.6.61 1.54 1.55.83.82 1.25 1.23 1.86 1.39.582.133 1.19.085 1.744-.136.554-.222 1.027-.607 1.356-1.104.12-.21.34-.65.15-2.47-.23-2.3-.34-3.45-1.08-4.18-.9-.89-1.6-.24-3.72-.93-2.43-.79-2.25-1.89-4.95-2.94-1.81-.7-2.29-.37-3.71-1.24-1.15-.7-2.61-2-2.33-2.79.31-.84 2.31-.19 3.1-1.39.62-.93-.24-1.84.46-3.1.41-.72 1.26-1.41 1.86-1.23.66.19.41 1.26 1.24 2.63.769 1.172 1.916 2.043 3.25 2.47 1.01.37 2.26.83 3.25.16.88-.59 1.37-1.94.93-2.63-.57-.89-2.3-.13-2.79-.93-.08-.191-.121-.398-.119-.606.001-.208.045-.413.129-.604.129-.443.366-.847.688-1.176.323-.33.722-.575 1.162-.714.51-.08 1.03.11 4.03 2.63.16.14.32.27.46.39l.01.01c1.59 1.35 1.88 1.65 2.47 1.62.196-.012.388-.056.57-.13.316-.132.607-.318.86-.55.708-.689 1.272-1.512 1.66-2.42.51-1.18.31-1.66.62-1.86.72-.46 3.29 1.08 5.99 3.85.757 1.252 1.438 2.547 2.04 3.88 1.963 4.26 3.135 8.841 3.46 13.52.03.45.05.91.07 1.37.01.45.02.91.02 1.37zm-114.119-205.8593594c.56 2.2747594.99 4.5793694 1.289 6.9027894.33 2.30826.544 4.62517.735 6.94367.154 2.3213.283 4.6444.295 6.9761.046 2.3423-.042 4.6853-.265 7.0174-.562-2.2743-.993-4.5789-1.291-6.9025-.33-2.3083-.544-4.6252-.732-6.9439-.152-2.3215-.28-4.64462-.292-6.97636-.046-2.34213.042-4.68495.261-7.0171994zm14.419 29.7599594c.534-2.3712 1.196-4.7114 1.985-7.0104.754-2.2996 1.617-4.5555 2.501-6.8029.918-2.2335 1.859-4.4576 2.909-6.63817 1.024-2.20434 2.169-4.35044 3.43-6.4285-.531 2.37188-1.193 4.71262-1.982 7.01152-.755 2.29935-1.617 4.55525-2.503 6.80185-.921 2.2325-1.862 4.4566-2.913 6.637-1.024 2.204-2.168 4.3504-3.427 6.4296zm-36.33-24.47996c1.237 1.86852 2.364 3.80863 3.372 5.81016 1.033 1.9764 1.959 3.9995 2.863 6.0315.871 2.047 1.718 4.104 2.459 6.2073.776 2.103 1.425 4.2505 1.944 6.431-1.24-1.8673-2.367-3.8071-3.375-5.809-1.033-1.9766-1.958-3.9996-2.861-6.0327-.868-2.0479-1.715-4.1049-2.456-6.2085-.775-2.10298-1.425-4.24998-1.946-6.42976zm-93.1342 162.57336c-.8946-.228-1.8052-.387-2.724-.477-.4348-.055-.8765-.011-1.2918.13-.3932.142-.2692.574-.0516.95.5078.75 1.1157 1.427 1.8069 2.013.6741.62 1.3887 1.211 2.1147 1.765.0653.049.1082.123.1191.205.0109.081-.0109.163-.0607.229-.0337.043-.0777.076-.128.097-.0502.021-.105.028-.159.022-1.8919-.21-3.6744-.993-5.1084-2.245-.7269-.628-1.3302-1.386-1.779-2.235-.2369-.44-.406-.914-.5016-1.405-.0554-.286-.0496-.58.0171-.863.0492-.181.1388-.349.2622-.491.0381-.07.0739-.093.1308-.201.8346-1.518 1.5466-3.236 2.2712-4.883l2.1278-5.012c.7135-1.674 1.4362-3.328 2.048-5.024.6294-1.694 1.1405-3.411 1.7322-5.144l1.7352-5.181c.5901-1.722 1.313-3.398 1.9624-5.098 2.599-6.811 5.927-13.321 9.926-19.417 2.0192-3.058 4.4027-5.86 7.098-8.343.3403-.309.6719-.628 1.02-.928l1.0907-.849c.7233-.575 1.481-1.105 2.269-1.588 1.5819-1.034 3.3305-1.786 5.1686-2.225l-.1024.024c3.1251-.93 6.3487-1.491 9.6046-1.669 3.2203-.2619 6.4457-.3454 9.6654-.3485 3.22.0013 6.4375.0639 9.6528.1879 3.214.1519 6.421.3446 9.633.6076l-.338.114c1.243-1.2727 2.389-2.6365 3.428-4.0799l1.605-2.1773c.513-.7962 1.187-1.4766 1.978-1.9979 1.644-.9361 3.577-1.2283 5.423-.8199 1.805.3237 3.523 1.0136 5.05 2.0272.006.004.012.0092.016.0152s.007.0128.008.02c.002.0071.002.0145 0 .0216-.001.0072-.004.014-.008.0201-.009.0118-.022.0198-.036.0226s-.029.0001-.042-.0074c-1.544-.921-3.259-1.5166-5.041-1.7502-1.739-.2954-3.527.0398-5.041.9453-.708.5015-1.303 1.1469-1.745 1.894l-1.542 2.2432c-1.024 1.5288-2.177 2.9672-3.447 4.2994-.04.04-.088.071-.141.091s-.11.029-.166.026l-.03-.002c-3.194-.195-6.401-.323-9.604-.409-3.2029-.101-6.4065-.154-9.6078-.139-3.2018.009-6.3982.141-9.5821.34-3.1648.136-6.3029.641-9.3506 1.505l-.0675.017-.0353.007c-1.701.413-3.3268 1.091-4.8182 2.007-.7732.448-1.5182.942-2.2308 1.481l-1.081.799c-.3464.284-.6779.588-1.0178.881-.6928.574-1.3517 1.188-1.9734 1.838-.6184.654-1.2777 1.272-1.8645 1.957-1.1484 1.392-2.3501 2.746-3.3588 4.251-4.1563 5.953-7.5008 12.433-9.9454 19.27-.5919 1.715-1.256 3.404-1.7875 5.138l-1.5621 5.211c-.5327 1.723-.9848 3.514-1.6209 5.229-.6053 1.731-1.3217 3.416-2.0157 5.092-.6916 1.682-1.4343 3.343-2.1703 5.008-.7613 1.667-1.4545 3.311-2.3916 4.967-.0768.126-.1638.245-.2602.357.0064.055-.0408.018-.0419.109-.0328.161-.0338.326-.003.487.0764.403.2117.792.4017 1.155.3978.764.9243 1.455 1.5565 2.041 1.2904 1.194 2.9147 1.965 4.6553 2.21l-.2285.554c-.7322-.595-1.4317-1.21-2.1044-1.868-.6983-.649-1.3005-1.395-1.7881-2.214-.1258-.231-.2003-.486-.2183-.748.0004-.149.0469-.296.1331-.418.0862-.123.208-.216.3489-.267.4708-.144.969-.173 1.4535-.087.9244.138 1.8369.346 2.7296.622.007.002.0136.006.0193.01.0057.005.0105.011.014.017s.0057.013.0066.021c.0008.007.0001.014-.0019.021-.0042.014-.0134.026-.0259.033-.0124.007-.0272.009-.0412.006z"/><path d="m233.19 216.395c.44-.652.833-1.335 1.176-2.043.169-.348.303-.712.402-1.086.115-.345.121-.717.018-1.066-.071-.151-.183-.279-.324-.37-.14-.09-.303-.139-.471-.141-.372-.043-.749-.031-1.118.036-.763.138-1.511.35-2.234.633-.715.303-1.393.685-2.023 1.14-.659.443-1.333.868-2.014 1.282-.684.411-1.375.812-2.094 1.176-.726.398-1.502.699-2.307.894-.074.015-.152.006-.221-.026-.069-.031-.126-.084-.164-.151-.037-.066-.052-.143-.043-.218.01-.076.043-.146.095-.202l.016-.018c1.668-1.736 3.222-3.578 4.654-5.513l-.089.269-.001-.01c-.001-.092.027-.183.081-.258l.007-.01c.444-.624.867-1.261 1.24-1.914.378-.609.65-1.278.803-1.979.094-.682-.126-.889-.818-.987-.678-.058-1.358.081-1.959.399-.314.166-.611.363-.885.59-.312.245-.629.475-.948.702-.64.452-1.261.927-1.917 1.36-1.302.878-2.632 1.712-4.002 2.484-2.741 1.582-5.663 2.829-8.701 3.716-1.548.426-3.135.695-4.736.802-1.634.086-3.271-.077-4.856-.482-.119-.032-.229-.093-.318-.177-.09-.084-.157-.19-.196-.307s-.048-.241-.027-.363c.021-.121.072-.235.149-.332l.012-.014 3.796-4.756 1.865-2.341c.081-.114.134-.246.157-.384.022-.138.013-.28-.027-.414-.036-.127-.101-.243-.189-.34-.054-.056-.112-.106-.174-.152-.052-.038-.108-.07-.167-.095-.147-.06-.305-.087-.463-.079-.197-.009-.478-.005-.707 0-.483.011-.965.046-1.444.101-.961.109-1.909.318-2.827.623-.459.161-.909.3-1.376.475-.445.177-.882.377-1.31.598l-2.679 1.443c-.11.059-.233.091-.358.092h-.022-.01l.376-.09c-5.043 2.519-10.131 4.742-14.929 7.516l-1.805 1.052c-1.897 1.107-3.966 1.888-6.121 2.308-1.43.288-2.884.429-4.342.421-1.48-.01-2.86-.186-4.249-.287l-16.7-1.398-16.695-1.466c-11.13-.962-22.261-1.943-33.3964-2.796l-4.175-.274c-.6987-.047-1.3862-.07-2.072-.089-.414.007-.8233-.088-1.1914-.278-.3492-.2-.65-.475-.8811-.805-.7661-1.24-1.2657-2.625-1.467-4.068-.247-1.388-.4151-2.79-.5035-4.198-.2842-5.598-.1855-11.21.2955-16.795l.219.321c-3.8445-1.182-7.6857-2.396-11.4202-3.905-3.7499-1.47-7.4225-3.129-11.0036-4.972-3.5793-1.845-7.0668-3.865-10.5272-5.892-3.4616-2.007-6.9544-4.017-10.7475-5.051l.6578-.499c.0075 11.064.2414 22.127.7017 33.189.2403 5.526.5469 11.049.9995 16.554.0979 1.378.2356 2.751.3645 4.125.1209 1.376.2641 2.747.4297 4.115.1582 1.372.2808 2.751.534 4.045.2456 1.309.6094 2.594 1.0869 3.838 1.979 5 5.5675 9.198 10.1986 11.932 2.2959 1.382 4.7767 2.432 7.368 3.116 1.2958.345 2.6128.604 3.9426.777 1.3388.165 2.7351.274 4.0998.414l4.1164.395 4.1266.267c2.749.215 5.5056.274 8.2598.386 2.754.126 5.512.075 8.268.122 2.7555-.068 5.5135-.059 8.2665-.206 11.024-.45 22.001-1.687 32.848-3.702 5.414-1.005 10.86-2.151 16.339-3.062 5.478-.928 10.968-1.706 16.461-2.451 10.984-1.504 21.988-2.781 32.975-4.152 5.488-.703 10.987-1.391 16.413-2.365l2.019-.408c.674-.133 1.301-.353 1.956-.523.626-.246 1.247-.518 1.861-.799.602-.305 1.183-.651 1.738-1.035 1.112-.742 2.025-1.744 2.66-2.919.304-.565.441-1.206.393-1.846-.028-.301-.133-.59-.306-.839-.173-.248-.408-.447-.681-.576-.038-.018-.07-.044-.095-.076-.025-.033-.041-.071-.048-.111-.006-.04-.003-.082.01-.121.013-.038.035-.073.065-.101l.016-.015c.599-.495 1.171-1.022 1.712-1.579.527-.566.964-1.209 1.296-1.907.172-.334.276-.697.307-1.071s-.013-.75-.128-1.106c-.304-.704-.836-1.285-1.511-1.65-.014-.008-.027-.02-.037-.034-.011-.013-.018-.029-.022-.045-.004-.017-.005-.034-.002-.051.002-.017.008-.033.017-.048l.011-.015 1.396-1.805.005-.006c.016-.021.04-.034.066-.038.026-.003.052.004.073.019.021.016.035.04.039.066s-.003.052-.018.073l-1.364 1.856-.033-.194c.74.38 1.331.999 1.676 1.757.14.395.201.815.179 1.234s-.127.829-.308 1.207c-.331.745-.774 1.434-1.313 2.045-.547.594-1.128 1.156-1.738 1.685l-.052-.424c.358.16.669.409.903.724.233.315.381.685.429 1.075.079.746-.057 1.5-.393 2.171-.65 1.291-1.608 2.402-2.789 3.235-.573.418-1.174.797-1.799 1.134-.634.311-1.279.613-1.932.888-.678.199-1.359.451-2.039.603l-2.043.464c-5.46 1.077-10.945 1.859-16.429 2.659l-32.902 4.616c-5.474.801-10.944 1.636-16.377 2.616-2.722.458-5.425 1.045-8.133 1.57-2.706.559-5.425 1.138-8.157 1.646-10.937 2.057-22.007 3.33-33.126 3.809-11.1196.502-22.2611.165-33.33-1.007-1.3889-.152-2.7539-.265-4.1621-.447-1.4159-.192-2.8177-.477-4.1963-.853-2.7677-.749-5.4149-1.888-7.862-3.382-4.9747-2.981-8.8144-7.534-10.9123-12.941-.5072-1.346-.8918-2.735-1.1491-4.15-.2669-1.427-.3816-2.812-.5285-4.191-.1507-1.384-.2773-2.768-.3798-4.153-.112-1.384-.2327-2.768-.3132-4.154-.3838-5.54-.6198-11.082-.7894-16.624-.334-11.086-.4247-22.171-.272-33.256l.0001-.01c.0009-.068.015-.135.0417-.197s.0654-.118.1138-.166c.0485-.047.1057-.084.1686-.109.0628-.025.13-.038.1976-.037.0461.001.0918.008.1362.02 3.972 1.146 7.4819 3.249 10.9224 5.302 3.4443 2.07 6.8657 4.151 10.42 5.997 3.5505 1.85 7.1929 3.518 10.9132 4.997 3.706 1.52 7.5231 2.747 11.3456 3.944.0673.021.1256.064.1654.122.0397.059.0587.129.0537.199-.4781 5.551-.5504 11.129-.2162 16.691.0959 1.38.2698 2.754.521 4.114.1931 1.329.6545 2.605 1.3561 3.75.1691.243.3898.446.6464.594.2554.129.5396.19.8254.178.7105.014 1.419.034 2.1142.076l4.1893.235c11.1592.665 22.3042 1.45 33.4522 2.233l16.718 1.2 16.709 1.311c1.396.096 2.796.261 4.111.26 1.338 0 2.672-.136 3.982-.407 1.306-.271 2.581-.676 3.804-1.21.61-.267 1.206-.567 1.784-.898l1.821-1.045c4.902-2.791 10.086-5.017 15.051-7.459l.012-.006c.113-.055.237-.084.364-.084h.009l-.379.092 2.691-1.427c.475-.24.962-.461 1.462-.655.484-.179 1.004-.34 1.504-.509 1.012-.326 2.055-.548 3.112-.661.53-.058 1.061-.093 1.592-.102.278-.003.505-.007.815.006.35.003.697.075 1.02.213.173.076.337.172.489.287.141.106.272.224.392.355.252.281.435.618.534.983.098.356.117.729.054 1.093s-.206.709-.418 1.011l-1.941 2.41-3.831 4.735-.38-1.193c1.429.373 2.904.537 4.38.489 1.502-.079 2.993-.308 4.45-.685 2.949-.812 5.79-1.974 8.462-3.462 1.35-.732 2.669-1.529 3.957-2.369.648-.414 1.269-.873 1.906-1.308.318-.219.633-.44.936-.67.331-.262.688-.489 1.065-.68.79-.399 1.678-.562 2.557-.468.524.036 1.013.271 1.368.658.158.213.268.459.323.719.054.26.052.529-.007.788-.181.82-.505 1.602-.958 2.31-.41.68-.857 1.337-1.338 1.968l.087-.268v.01.014c-.001.093-.032.183-.089.256-1.503 1.931-3.128 3.764-4.866 5.486l-.317-.614c1.484-.425 2.901-1.057 4.209-1.878.683-.392 1.36-.796 2.028-1.221.669-.457 1.387-.837 2.14-1.134.762-.277 1.549-.479 2.35-.603.414-.061.835-.059 1.248.004.23.019.451.101.638.238.187.136.332.321.421.535.119.418.103.864-.045 1.273-.116.389-.269.766-.457 1.126-.372.708-.793 1.388-1.261 2.035-.016.021-.039.036-.065.04-.025.005-.052-.001-.074-.016-.021-.015-.036-.037-.041-.063s0-.053.015-.074z"/><path d="m222.457 216.95c-1.508.885-3.03 1.7-4.596 2.449-1.549.775-3.171 1.394-4.842 1.847 1.599-.624 3.132-1.407 4.576-2.336 1.455-.899 2.878-1.872 4.241-2.882l.008-.006c.119-.088.267-.125.413-.103s.278.101.366.22c.087.118.125.267.103.413-.021.146-.1.277-.219.365-.016.012-.032.023-.05.033zm9.767 1.784c-2.585 1.758-5.202 3.444-7.886 5.036-1.344.789-2.697 1.565-4.097 2.256-.695.356-1.407.677-2.134.96-.36.152-.731.276-1.11.371-.374.109-.761.169-1.151.178.386-.032.767-.114 1.132-.245.369-.116.728-.261 1.075-.432.703-.324 1.39-.683 2.057-1.077 1.345-.768 2.644-1.618 3.931-2.482 2.567-1.736 5.076-3.573 7.525-5.462l.005-.004c.117-.09.265-.13.411-.111s.279.095.369.212.131.265.112.411c-.019.147-.096.28-.212.37zm-1.563 7.598c-1.008.738-2.067 1.404-3.168 1.994-1.084.592-2.202 1.121-3.347 1.584-2.274.934-4.652 1.588-7.084 1.948 2.376-.537 4.678-1.361 6.855-2.455 1.084-.536 2.135-1.135 3.15-1.794 1.008-.643 1.97-1.355 2.881-2.13l.017-.015c.055-.048.12-.085.189-.109.07-.023.143-.032.216-.027s.145.024.21.057c.066.033.124.078.172.134.048.055.085.119.108.189s.032.143.027.216c-.006.073-.025.145-.058.21s-.079.124-.135.172c-.01.009-.022.018-.033.026zm-27.048-41.8c-.083-.001-.164-.021-.237-.06s-.135-.095-.18-.164l-4.318-6.522c-.036-.054-.061-.116-.074-.18-.012-.065-.012-.131.001-.195.013-.065.039-.126.075-.18.037-.055.084-.102.139-.138s.116-.061.18-.074c.065-.013.131-.012.196.001.064.013.125.038.18.075.054.037.101.084.137.139l4.318 6.521c.073.111.099.246.073.376-.027.13-.104.244-.214.318-.082.054-.178.083-.276.083zm22.229-16.3c-.082 0-.164-.021-.236-.06-.073-.039-.135-.095-.181-.164l-4.318-6.521c-.037-.055-.062-.117-.074-.181-.013-.064-.013-.131 0-.195.014-.065.039-.126.076-.18.037-.055.084-.101.138-.138.055-.036.117-.061.181-.074.064-.012.131-.012.195.001.065.013.126.039.18.075.055.037.101.084.138.139l4.318 6.521c.05.076.079.163.083.254.004.09-.016.18-.059.259-.043.08-.106.147-.184.193s-.166.071-.257.071z"/></g></svg>