<svg width="303" height="253" viewBox="0 0 303 253" fill="none" xmlns="http://www.w3.org/2000/svg">
<g clip-path="url(#clip0_32_1513)">
<path d="M181.925 63.136C181.925 63.136 179.357 61.5954 176.961 64.3343C176.961 64.3343 172.681 58.2534 154.535 63.5193C154.535 63.5193 156.932 68.1004 158.644 68.1004C160.356 68.1004 155.391 75.9748 150.769 75.6325C150.769 75.6325 142.895 87.1018 148.886 98.2287C154.792 109.196 159.034 112.679 164.891 105.566C165.071 105.345 165.271 105.142 165.49 104.96C167.174 103.571 174.632 97.7948 177.275 102.102C177.838 103.058 177.999 104.199 177.723 105.274C176.516 110.327 170.875 128.937 154.535 121.51C154.535 121.51 135.494 114.369 139.985 97.4528C140.465 95.7322 141.162 94.0795 142.058 92.5342C142.922 90.9556 143.454 89.2171 143.622 87.4255C143.791 85.6338 143.591 83.8267 143.036 82.1148C142.348 79.6743 140.795 77.5676 138.668 76.1879C136.605 74.9013 133.886 74.3261 131.826 77.9238C130.974 79.4204 130.525 81.1127 130.522 82.8352C130.518 84.4117 130.811 86.3452 132.11 87.273L130.522 90.3543C129.658 88.5967 128.554 86.9682 127.24 85.5157C125.041 83.2879 123.628 80.4035 123.216 77.3001C122.634 72.3769 123.334 65.0262 129.2 56.4599C129.2 56.4599 137.075 40.711 151.797 41.0534C166.518 41.3957 179.186 45.3329 181.925 63.136Z" fill="black"/>
<path d="M157.273 83.6785C159.831 83.0937 162.458 82.8772 165.076 83.0356C166.395 83.1012 167.704 83.2997 168.983 83.6282C170.288 83.9083 171.501 84.5146 172.509 85.3904C171.346 84.8503 170.104 84.5004 168.83 84.3543C167.571 84.1734 166.301 84.0417 165.021 83.9844C162.461 83.8256 159.888 83.8134 157.273 83.6785ZM181.924 83.4341C180.988 83.7187 180.121 84.1961 179.38 84.8356C179.029 85.1254 178.743 85.4859 178.541 85.8937C178.338 86.3015 178.224 86.7474 178.206 87.2023C178.275 88.1355 178.519 89.0473 178.927 89.8898L180.046 92.6419C180.881 94.5039 181.366 96.5038 181.478 98.5414C181.476 99.0783 181.377 99.6105 181.187 100.112C180.982 100.62 180.647 101.066 180.215 101.403C179.339 101.955 178.305 102.201 177.274 102.102C178.24 102.02 179.161 101.652 179.917 101.045C180.228 100.714 180.462 100.318 180.603 99.8868C180.745 99.4554 180.79 98.9982 180.735 98.5474C180.662 97.5942 180.468 96.6542 180.16 95.7493C179.872 94.8226 179.528 93.9042 179.161 92.9893C178.81 92.0676 178.429 91.1511 178.087 90.2073C177.923 89.7308 177.756 89.2556 177.628 88.7531C177.468 88.2337 177.414 87.6875 177.468 87.1467C177.526 86.6089 177.701 86.0904 177.982 85.6282C178.262 85.1659 178.642 84.7713 179.092 84.4724C179.94 83.9056 180.911 83.5496 181.924 83.4341V83.4341Z" fill="black"/>
<path d="M181.923 63.1367C182.244 65.0555 182.482 66.9845 182.639 68.9239C182.817 70.8603 182.927 72.8023 182.969 74.7501C183 76.6978 182.971 78.649 182.818 80.6016C182.729 82.5919 182.285 84.5502 181.506 86.3839C181.494 86.4067 181.48 86.4278 181.463 86.4465C180.862 87.0933 180.298 87.7735 179.774 88.4837C179.513 88.8395 179.282 89.2154 179.081 89.6079C178.858 89.9901 178.769 90.4357 178.827 90.8743C178.69 90.433 178.715 89.9571 178.897 89.5326C179.055 89.1043 179.246 88.6894 179.47 88.2917C179.917 87.499 180.434 86.7477 181.014 86.0467L180.972 86.1089C181.303 85.233 181.524 84.3192 181.629 83.3887C181.778 82.4498 181.838 81.4912 181.908 80.5358C182.021 78.6182 182.041 76.689 182.052 74.7587C182.052 70.8952 181.967 67.0246 181.923 63.1367ZM171.652 96.6887C171.472 97.0603 171.326 97.4477 171.216 97.8461C171.105 98.2141 171.08 98.603 171.145 98.9821C171.198 99.3578 171.362 99.709 171.616 99.9906C171.885 100.302 172.184 100.586 172.508 100.838C172.301 100.777 172.097 100.704 171.898 100.62C171.704 100.513 171.521 100.387 171.353 100.244C170.999 99.938 170.761 99.5208 170.677 99.0611C170.617 98.6059 170.685 98.1429 170.873 97.7242C171.049 97.3233 171.316 96.9688 171.652 96.6887V96.6887ZM132.109 87.2736C132.701 88.0173 133.174 88.8489 133.51 89.7384C133.69 90.1925 133.82 90.6647 133.898 91.1469C133.94 91.3997 133.957 91.656 133.948 91.912L133.943 92.1091L133.955 92.2161C133.951 92.2857 133.966 92.3551 133.999 92.4164C134.146 92.7296 134.405 92.976 134.725 93.1066C135.106 93.301 135.506 93.4527 135.92 93.559C136.799 93.796 137.703 93.9272 138.614 93.9498C137.715 94.3023 136.74 94.4189 135.783 94.2885C135.283 94.2376 134.794 94.1123 134.332 93.9167C134.06 93.8111 133.811 93.6528 133.601 93.4508C133.39 93.2488 133.222 93.0072 133.105 92.7398C133.044 92.5891 133.014 92.4276 133.017 92.2649L133.013 92.0247L133.021 91.8746C133.031 91.6676 133.027 91.46 133.007 91.2536C132.969 90.815 132.9 90.3796 132.802 89.9505C132.608 89.071 132.352 88.1867 132.109 87.2736ZM130.521 90.3549C130.139 91.7395 129.6 93.076 128.915 94.3385C128.245 95.6197 127.436 96.8232 126.502 97.9274C125.568 99.0525 124.46 100.021 123.221 100.796C121.978 101.567 120.555 102 119.094 102.052C120.431 101.65 121.688 101.016 122.807 100.18C123.901 99.3383 124.898 98.3759 125.778 97.3114C126.682 96.2482 127.518 95.1288 128.28 93.9601C129.048 92.7858 129.81 91.5951 130.521 90.3549ZM143.065 130.412C144.146 129.938 145.169 129.339 146.112 128.628C147.049 127.929 147.936 127.168 148.77 126.35C149.63 125.556 150.401 124.668 151.202 123.8L152.367 122.454C152.747 121.995 153.125 121.532 153.543 121.089C153.304 121.644 153.027 122.18 152.751 122.72C152.438 123.235 152.13 123.758 151.786 124.257C151.092 125.257 150.302 126.187 149.429 127.035C148.552 127.89 147.573 128.633 146.514 129.249C145.464 129.886 144.286 130.283 143.065 130.412V130.412Z" fill="black"/>
<path d="M125.94 97.618C125.089 96.3556 124.035 95.242 122.822 94.3217C122.569 94.0985 122.263 93.9445 121.933 93.8746C121.604 93.8046 121.261 93.8212 120.94 93.9226C120.372 94.3083 119.965 94.888 119.794 95.5528C119.56 96.2617 119.392 96.9905 119.291 97.7302C119.24 98.098 119.194 98.4808 119.161 98.8347C119.163 99.1715 119.193 99.5673 119.227 99.9355C119.374 101.445 119.654 102.939 120.063 104.399C120.816 107.371 121.987 110.221 123.539 112.865C125.112 115.508 126.994 117.954 129.145 120.152C130.223 121.243 131.345 122.293 132.482 123.316C133.664 124.291 134.792 125.338 136.022 126.233C136.616 126.712 137.27 127.101 137.889 127.54C138.545 127.917 139.175 128.345 139.858 128.665C141.178 129.383 142.583 129.933 144.039 130.304C146.947 131.075 150.037 130.751 152.721 129.392C155.419 127.953 157.685 125.821 159.286 123.216C159.292 123.205 159.302 123.196 159.314 123.192C159.326 123.189 159.339 123.19 159.35 123.196C159.361 123.202 159.369 123.212 159.372 123.224C159.376 123.235 159.376 123.248 159.371 123.259C157.978 126.088 155.789 128.447 153.072 130.048C151.681 130.837 150.15 131.35 148.565 131.559C146.974 131.747 145.362 131.645 143.808 131.257C142.265 130.89 140.78 130.313 139.395 129.541C138.687 129.19 138.045 128.735 137.374 128.329C136.744 127.865 136.077 127.447 135.48 126.944C134.227 126.003 133.13 124.904 131.971 123.872C131.38 123.368 130.879 122.768 130.336 122.215C129.813 121.641 129.247 121.11 128.761 120.504C126.735 118.161 124.894 115.664 123.257 113.034C121.59 110.405 120.262 107.576 119.305 104.613C118.838 103.114 118.532 101.57 118.395 100.006C118.369 99.6051 118.345 99.2313 118.354 98.7966C118.399 98.3847 118.455 98.0016 118.518 97.6076C118.644 96.8213 118.842 96.0482 119.11 95.2983C119.231 94.8844 119.433 94.4987 119.704 94.1637C119.975 93.8286 120.31 93.5509 120.69 93.3468C121.117 93.1794 121.59 93.1698 122.023 93.3198C122.417 93.4547 122.785 93.6561 123.111 93.9153C124.307 94.9346 125.295 96.1751 126.022 97.5687C126.025 97.5741 126.027 97.5801 126.028 97.5863C126.028 97.5925 126.028 97.5987 126.026 97.6048C126.025 97.6108 126.022 97.6164 126.018 97.6213C126.014 97.6263 126.009 97.6304 126.004 97.6335C125.993 97.6389 125.981 97.6403 125.969 97.6375C125.958 97.6346 125.947 97.6277 125.94 97.618V97.618ZM81.8711 110.554C83.1178 110.907 84.2491 111.584 85.1508 112.515C86.0799 113.431 86.823 114.518 87.3391 115.716C87.8563 116.908 88.1471 118.185 88.1966 119.483C88.2214 120.122 88.1886 120.762 88.0988 121.395C87.99 122.023 87.8239 122.64 87.6026 123.238C87.3808 122.619 87.2807 122.022 87.1177 121.439C86.9427 120.859 86.8379 120.282 86.6434 119.73C86.3333 118.634 85.953 117.559 85.505 116.512C85.0556 115.471 84.5301 114.465 83.9329 113.501C83.3073 112.477 82.6187 111.493 81.8711 110.554V110.554ZM86.2332 134.52C86.6185 138.959 86.8064 143.397 86.9249 147.834C87.0559 152.272 87.0699 156.708 87.0614 161.145C87.0154 165.581 86.9443 170.018 86.7567 174.453C86.5817 178.889 86.3356 183.324 85.8908 187.758C85.5031 183.318 85.314 178.881 85.1961 174.443C85.0656 170.006 85.0515 165.569 85.0626 161.132C85.1111 156.696 85.1822 152.26 85.3702 147.824C85.5458 143.389 85.7908 138.953 86.2332 134.52ZM177.782 105.193C181.444 107.485 185.039 109.871 188.567 112.353C190.333 113.593 192.084 114.854 193.821 116.138L196.406 118.113C196.859 118.453 197.286 118.826 197.683 119.231L198.298 119.872L198.815 120.527C200.154 122.255 201.377 124.071 202.473 125.962C203.577 127.826 204.652 129.702 205.698 131.591C207.764 135.384 209.891 139.136 212.08 142.845C213.175 144.701 214.291 146.544 215.428 148.376L217.129 151.122C217.633 152.019 218.232 152.861 218.915 153.631C219.64 154.341 220.503 155.045 221.253 155.93C222.142 156.856 222.678 158.065 222.766 159.346C222.699 160.66 222.127 161.896 221.169 162.798C220.76 163.211 220.33 163.603 219.88 163.972C219.478 164.297 219.087 164.637 218.704 164.989C217.934 165.695 217.226 166.438 216.506 167.237C215.773 168.047 215.014 168.833 214.244 169.609C212.689 171.162 211.038 172.616 209.3 173.961C207.529 175.333 205.601 176.489 203.556 177.404C202.484 177.858 201.357 178.17 200.204 178.332C198.993 178.512 197.757 178.404 196.595 178.018C196.41 177.962 196.252 177.84 196.152 177.674L196.145 177.664C195.395 176.42 194.573 175.18 193.742 173.966C192.911 172.747 192.042 171.558 191.133 170.397C190.22 169.246 189.245 168.145 188.211 167.101C187.216 166.026 185.998 165.183 184.641 164.631L184.634 164.629C184.61 164.62 184.59 164.603 184.578 164.581C184.567 164.558 184.564 164.532 184.571 164.508C184.577 164.484 184.593 164.463 184.615 164.449C184.636 164.436 184.662 164.431 184.686 164.436C186.169 164.819 187.539 165.547 188.685 166.561C189.86 167.512 190.962 168.551 191.98 169.669C194.026 171.884 195.906 174.247 197.604 176.739L197.155 176.385C199.059 176.773 201.04 176.485 202.754 175.57C204.626 174.678 206.386 173.567 207.997 172.26C209.665 170.965 211.261 169.578 212.776 168.105C213.543 167.372 214.301 166.628 215.035 165.86C215.778 165.078 216.58 164.28 217.418 163.552C217.839 163.186 218.27 162.83 218.716 162.49C219.12 162.153 219.503 161.865 219.841 161.522C220.496 160.958 220.924 160.175 221.045 159.319C220.993 158.431 220.639 157.587 220.041 156.928C219.428 156.14 218.655 155.426 217.904 154.568C217.706 154.344 217.521 154.109 217.349 153.865L216.916 153.131L216.136 151.7L214.611 148.845C213.605 146.937 212.577 145.043 211.528 143.162C209.424 139.404 207.206 135.708 204.804 132.133C202.422 128.563 200.006 124.949 197.426 121.651L196.938 121.042L196.429 120.522C196.08 120.148 195.702 119.804 195.298 119.492L192.784 117.494L187.708 113.509C184.316 110.855 180.968 108.137 177.664 105.355C177.645 105.339 177.632 105.316 177.629 105.29C177.626 105.265 177.633 105.24 177.647 105.219C177.662 105.199 177.685 105.185 177.709 105.18C177.734 105.175 177.76 105.18 177.782 105.193V105.193Z" fill="black"/>
<path d="M191.168 137.487C189.417 144.066 187.764 150.661 186.384 157.281C185.673 160.563 185.177 163.887 184.899 167.233C184.804 168.842 184.795 170.619 184.653 172.341C184.516 174.096 184.222 175.836 183.775 177.54C182.725 180.908 181.041 184.044 178.814 186.78C177.785 188.152 176.695 189.479 175.675 190.812C175.184 191.474 174.686 192.131 174.245 192.839C173.772 193.522 173.345 194.241 172.919 194.962C171.244 197.889 169.747 200.914 168.435 204.02C167.051 207.114 165.858 210.294 164.691 213.493C166.176 206.805 168.482 200.327 171.555 194.204C172.348 192.656 173.257 191.171 174.274 189.759C175.282 188.365 176.315 187.034 177.288 185.658C179.336 183.084 180.883 180.148 181.85 177.004C182.279 175.421 182.566 173.803 182.709 172.169C182.868 170.502 182.863 168.875 183.016 167.093C183.373 163.666 183.992 160.272 184.867 156.939C186.546 150.326 188.65 143.829 191.168 137.487V137.487ZM266.612 226.571C266.214 226.571 265.833 226.413 265.551 226.132C265.27 225.851 265.111 225.469 265.111 225.072C265.111 224.674 265.269 224.292 265.55 224.011C265.831 223.729 266.212 223.571 266.61 223.571L301.528 223.525H301.53C301.727 223.525 301.922 223.563 302.104 223.638C302.286 223.714 302.452 223.824 302.591 223.963C302.73 224.102 302.841 224.268 302.917 224.45C302.992 224.632 303.031 224.827 303.031 225.024C303.031 225.221 302.993 225.416 302.917 225.598C302.842 225.78 302.732 225.945 302.592 226.085C302.453 226.224 302.288 226.335 302.106 226.41C301.924 226.486 301.729 226.525 301.532 226.525L266.614 226.571H266.612Z" fill="black"/>
<path d="M44.4821 225.575L0.455078 225.991L0.483404 228.991L44.5104 228.575L44.4821 225.575Z" fill="black"/>
<path d="M166.517 90.0689C166.887 90.0561 167.237 89.9002 167.494 89.6341C167.751 89.368 167.895 89.0124 167.895 88.6423C167.895 88.2723 167.751 87.9167 167.494 87.6506C167.237 87.3845 166.887 87.2286 166.517 87.2158C166.147 87.2286 165.797 87.3845 165.539 87.6506C165.282 87.9167 165.139 88.2723 165.139 88.6423C165.139 89.0124 165.282 89.368 165.539 89.6341C165.797 89.9002 166.147 90.0561 166.517 90.0689V90.0689ZM204.271 237.952C209.313 241.389 214.986 243.791 220.962 245.02C223.93 245.592 226.955 245.809 229.973 245.666C232.985 245.503 235.968 244.996 238.865 244.157C244.65 242.395 250.109 239.699 255.023 236.173C256.257 235.341 257.423 234.412 258.51 233.396C259.596 232.367 260.618 231.273 261.572 230.121C263.48 227.816 265.13 225.31 266.494 222.647L266.398 223.051L266.399 223.041L266.399 223.02C266.401 222.887 266.433 222.757 266.493 222.639C267.672 220.324 268.635 217.906 269.371 215.415C270.101 212.912 270.573 210.341 270.779 207.742L270.783 207.688L270.789 207.653C270.804 207.601 270.786 207.626 270.803 207.719L270.795 207.561C271.206 202.301 270.466 197.014 268.627 192.068C266.749 187.13 263.841 182.648 260.097 178.922C256.396 175.259 251.999 172.375 247.165 170.44C242.331 168.505 237.158 167.559 231.952 167.657C226.746 167.755 221.612 168.895 216.854 171.011C212.097 173.126 207.811 176.174 204.251 179.974C200.681 183.788 197.902 188.271 196.075 193.166C194.255 198.124 193.41 203.387 193.585 208.665C193.585 208.679 193.583 208.692 193.578 208.705C193.573 208.717 193.566 208.729 193.557 208.739C193.547 208.749 193.536 208.757 193.524 208.762C193.512 208.768 193.498 208.771 193.485 208.771C193.459 208.771 193.434 208.762 193.414 208.744C193.395 208.727 193.382 208.703 193.379 208.677C192.742 203.324 193.254 197.896 194.88 192.755C196.519 187.561 199.239 182.772 202.861 178.705C206.494 174.606 210.947 171.315 215.932 169.047C220.927 166.784 226.348 165.612 231.832 165.611C237.28 165.557 242.679 166.651 247.677 168.82C252.675 170.99 257.16 174.187 260.841 178.205C264.487 182.169 267.329 186.803 269.212 191.849C271.092 196.904 272 202.269 271.889 207.661L271.881 207.504C271.903 207.625 271.901 207.749 271.875 207.87L271.885 207.78C271.812 210.483 271.457 213.17 270.827 215.8C270.206 218.44 269.295 221.003 268.111 223.444L268.205 223.041L268.205 223.051C268.207 223.185 268.178 223.318 268.118 223.439L268.11 223.456C266.725 226.27 264.994 228.9 262.956 231.285C261.943 232.479 260.858 233.61 259.708 234.673C258.538 235.723 257.291 236.686 255.978 237.552C250.886 241.128 245.22 243.806 239.224 245.47C233.201 247.106 226.871 247.261 220.775 245.921C214.759 244.486 209.102 241.832 204.154 238.121C204.133 238.106 204.118 238.082 204.113 238.056C204.109 238.029 204.115 238.002 204.13 237.98C204.145 237.958 204.169 237.942 204.195 237.937C204.221 237.932 204.249 237.937 204.271 237.952L204.271 237.952Z" fill="black"/>
<path d="M213.092 171.881C212.818 172.617 212.587 173.362 212.355 174.104C212.127 174.848 211.904 175.591 211.704 176.34C211.482 177.08 211.302 177.834 211.125 178.589L210.546 180.832L210.575 180.644C210.573 180.729 210.557 180.813 210.527 180.893C210.49 180.99 210.435 181.079 210.364 181.154C210.292 181.229 210.206 181.289 210.11 181.331C210.015 181.372 209.912 181.394 209.808 181.395L210.537 180.841C210.116 183.013 209.596 185.15 209.153 187.308C208.747 189.474 208.338 191.641 207.995 193.823C207.639 196.003 207.285 198.185 206.987 200.384C206.646 202.578 206.325 204.782 205.942 206.992C205.743 204.759 205.677 202.517 205.745 200.277C205.783 198.035 205.936 195.797 206.205 193.57C206.484 191.346 206.821 189.123 207.311 186.93C207.534 185.829 207.833 184.743 208.14 183.662C208.449 182.58 208.734 181.494 209.068 180.422L209.797 179.868C209.696 179.869 209.595 179.891 209.503 179.931C209.41 179.971 209.326 180.03 209.256 180.103C209.186 180.177 209.132 180.263 209.097 180.358C209.068 180.435 209.052 180.517 209.05 180.599L209.079 180.411C209.632 178.931 210.142 177.446 210.797 176.008C211.434 174.565 212.203 173.184 213.092 171.881V171.881ZM251.907 171.881C253.27 174.227 254.396 176.703 255.268 179.273C255.752 180.544 256.095 181.856 256.513 183.15C256.884 184.456 257.192 185.778 257.532 187.095C258.718 192.395 259.48 197.782 259.811 203.204C260.153 208.614 260.157 214.041 259.824 219.452C259.658 222.153 259.355 224.844 259.097 227.533C258.682 230.208 258.322 232.884 257.846 235.542C257.89 232.835 258.062 230.149 258.158 227.46L258.326 219.399C258.312 218.056 258.305 216.715 258.315 215.374L258.322 213.363L258.25 211.354L258.144 207.338L257.896 203.33C257.578 197.988 256.968 192.668 256.069 187.393L255.297 183.454C254.988 182.155 254.739 180.834 254.372 179.547C253.752 176.931 252.928 174.368 251.907 171.881V171.881ZM231.622 224.711C232.241 224.09 232.766 223.383 233.182 222.611C233.172 223.511 233.152 224.401 233.132 225.301C233.002 231.801 232.752 238.301 232.382 244.801C232.012 238.301 231.762 231.801 231.632 225.301C231.632 225.101 231.622 224.911 231.622 224.711ZM231.892 218.281C231.892 218.281 232.552 217.491 233.272 216.451C233.262 217.461 233.252 218.481 233.232 219.491C232.886 218.989 232.427 218.575 231.892 218.281V218.281ZM233.342 204.831V206.751L233.312 211.461C232.68 211.513 232.056 211.637 231.452 211.831C231.442 210.131 231.432 208.441 231.422 206.751V204.831C231.462 192.141 231.642 179.461 232.382 166.771C233.112 179.461 233.302 192.141 233.342 204.831Z" fill="black"/>
<path d="M196.917 189.537C202.473 187.068 208.287 185.229 214.253 184.054C220.226 182.833 226.303 182.188 232.399 182.127C235.45 182.036 238.495 182.281 241.539 182.451C243.054 182.62 244.565 182.84 246.077 183.032C246.831 183.139 247.59 183.216 248.34 183.346L250.577 183.826C256.542 185.024 262.339 186.941 267.841 189.537C266.381 189.12 264.932 188.688 263.494 188.24L261.336 187.577C260.614 187.367 259.867 187.24 259.136 187.068L254.748 186.047C253.275 185.765 251.788 185.552 250.312 185.302L248.095 184.939C247.354 184.841 246.606 184.782 245.862 184.702C244.371 184.557 242.884 184.385 241.394 184.264C238.402 184.153 235.416 183.925 232.421 184.047C226.425 184.099 220.441 184.592 214.518 185.524L210.078 186.293C208.609 186.603 207.129 186.88 205.663 187.219C202.716 187.845 199.81 188.645 196.917 189.537ZM231.493 227.952L240.691 226.765C243.733 226.336 246.769 225.88 249.786 225.333C252.806 224.815 255.815 224.202 258.818 223.558C260.305 223.183 261.806 222.845 263.315 222.513L264.453 222.28L265.571 221.989C266.32 221.798 267.077 221.621 267.843 221.452C267.155 221.808 266.457 222.154 265.751 222.49C265.052 222.836 264.334 223.144 263.602 223.412C262.145 223.96 260.681 224.501 259.203 225.007C256.226 225.94 253.192 226.681 250.119 227.224C243.977 228.357 237.705 228.602 231.493 227.952ZM193.373 205.792C195.343 205.672 197.313 205.572 199.283 205.492C198.746 205.635 198.218 205.812 197.703 206.022C196.253 205.952 194.813 205.872 193.373 205.792ZM271.393 205.792C264.893 206.162 258.393 206.412 251.893 206.542C245.703 206.682 239.523 206.732 233.343 206.752H231.423C230.643 206.752 229.873 206.742 229.093 206.742C229.173 205.912 228.763 205.362 227.603 205.302C226.582 205.274 225.583 205.607 224.783 206.242C224.603 206.382 224.403 206.532 224.173 206.702C218.103 206.662 212.036 206.545 205.973 206.352C205.948 206.136 205.881 205.928 205.774 205.739C205.668 205.55 205.525 205.385 205.353 205.252C214.043 204.952 222.733 204.862 231.423 204.832H233.343C239.523 204.852 245.703 204.902 251.893 205.042C258.393 205.162 264.893 205.412 271.393 205.792Z" fill="black"/>
<path d="M209.813 180.621C209.813 180.622 209.813 180.624 209.813 180.625C209.812 180.626 209.811 180.627 209.81 180.628C209.81 180.629 209.808 180.63 209.807 180.63C209.806 180.631 209.805 180.631 209.803 180.631C208.878 182.379 208.156 184.228 207.653 186.141C207.643 186.161 207.643 186.191 207.633 186.211C206.883 189.101 207.253 189.631 206.263 192.481C205.703 194.091 205.203 195.021 205.483 196.351C205.75 197.189 206.088 198.002 206.493 198.781C206.613 199.031 206.733 199.301 206.873 199.601C207.563 201.121 207.733 201.481 207.583 201.941C207.393 202.501 206.953 202.571 206.143 203.061C205.858 203.228 205.587 203.419 205.333 203.631C204.853 203.992 204.411 204.401 204.013 204.851C201.016 204.82 198.064 205.59 195.463 207.081C194.843 207.431 194.173 207.781 193.453 208.151H193.443C193.413 207.721 193.403 207.291 193.383 206.861C193.373 206.501 193.373 206.151 193.373 205.791C193.366 200.179 194.574 194.632 196.913 189.531L196.923 189.521H196.933C197.874 187.454 198.998 185.476 200.293 183.611C204.643 179.371 209.333 177.171 210.893 177.181C211.062 177.166 211.231 177.216 211.363 177.321C211.713 177.671 210.873 178.631 209.813 180.621ZM271.393 205.791C271.393 206.121 271.393 206.451 271.373 206.781C271.373 207.061 271.353 207.331 271.343 207.611C271.343 207.661 271.333 207.711 271.333 207.761C271.332 208.052 271.315 208.342 271.283 208.631C270.931 213.628 269.61 218.509 267.393 223.001C267.365 223.019 267.335 223.032 267.303 223.041V223.051C267.041 223.176 266.761 223.257 266.473 223.291C266.137 223.325 265.797 223.288 265.477 223.181C265.156 223.074 264.862 222.9 264.613 222.671C264.603 222.661 264.593 222.641 264.573 222.631C263.763 221.741 264.413 220.501 264.153 218.641C263.933 217.101 263.123 216.011 261.513 213.841C260.812 212.845 260.03 211.908 259.173 211.041C258.583 210.471 258.033 210.121 257.643 210.281C257.153 210.501 257.003 211.541 257.183 212.301C257.453 213.441 258.373 213.541 258.573 214.461C258.843 215.671 257.613 217.071 256.563 217.711C255.977 218.106 255.299 218.342 254.594 218.396C253.89 218.45 253.183 218.321 252.543 218.021C251.103 217.181 251.143 215.391 250.373 215.391C249.763 215.401 249.223 216.521 249.133 217.401C249.062 217.952 249.157 218.511 249.404 219.007C249.652 219.504 250.041 219.916 250.523 220.191C251.513 220.611 252.153 219.741 253.313 220.191C253.66 220.305 253.971 220.508 254.215 220.78C254.459 221.052 254.628 221.384 254.703 221.741C254.753 222.691 253.453 223.431 251.763 224.371C249.833 225.441 249.233 225.391 246.963 226.541C246.743 226.651 246.543 226.751 246.353 226.851C245.466 227.26 244.633 227.777 243.873 228.391C242.313 229.671 242.463 230.241 240.933 231.491C239.934 232.418 238.705 233.061 237.373 233.351C236.163 233.551 235.913 233.181 233.813 233.041C233.337 233.007 232.86 232.997 232.383 233.011C231.464 233.023 230.546 233.084 229.633 233.191C228.565 233.297 227.505 233.481 226.463 233.741C231.823 231.011 232.533 226.881 230.303 225.901C230.303 225.901 236.643 221.091 231.893 218.281C231.893 218.281 239.573 209.141 230.903 212.001C230.182 212.248 229.497 212.588 228.863 213.011C228.593 213.181 228.283 213.391 227.933 213.611L226.903 210.991V210.981C228.933 208.221 230.293 205.431 227.603 205.301C226.582 205.273 225.584 205.606 224.783 206.241C224.163 206.711 223.273 207.371 222.153 208.131L219.883 205.791C219.365 204.948 219.047 203.997 218.953 203.011C218.912 201.924 219.097 200.84 219.496 199.828C219.895 198.816 220.501 197.897 221.273 197.131C222.698 195.622 224.522 194.547 226.533 194.031C228.111 193.421 229.814 193.208 231.493 193.411C231.773 193.461 232.073 193.521 232.383 193.601C233.363 193.831 234.373 194.171 234.893 194.341C235.778 194.742 236.719 195.006 237.683 195.121C238.943 195.181 239.293 194.801 239.843 195.121C240.533 195.501 240.423 196.301 240.933 198.211C241.443 200.101 241.863 201.701 242.943 202.081C243.753 202.361 244.193 201.701 245.113 202.081C245.713 202.331 245.713 202.691 246.653 203.631C247.483 204.451 247.903 204.861 248.513 205.021C249.095 205.154 249.703 205.106 250.257 204.885C250.811 204.663 251.284 204.278 251.613 203.781C251.733 203.571 251.953 203.131 251.763 201.311C251.533 199.011 251.423 197.861 250.683 197.131C249.783 196.241 249.083 196.891 246.963 196.201C244.533 195.411 244.713 194.311 242.013 193.261C240.203 192.561 239.723 192.891 238.303 192.021C237.153 191.321 235.693 190.021 235.973 189.231C236.283 188.391 238.283 189.041 239.073 187.841C239.693 186.911 238.833 186.001 239.533 184.741C239.943 184.021 240.793 183.331 241.393 183.511C242.053 183.701 241.803 184.771 242.633 186.141C243.402 187.313 244.549 188.184 245.883 188.611C246.893 188.981 248.143 189.441 249.133 188.771C250.013 188.181 250.503 186.831 250.063 186.141C249.493 185.251 247.763 186.011 247.273 185.211C247.193 185.02 247.152 184.813 247.154 184.605C247.155 184.397 247.199 184.192 247.283 184.001C247.412 183.558 247.649 183.154 247.971 182.825C248.294 182.495 248.693 182.25 249.133 182.111C249.643 182.031 250.163 182.221 253.163 184.741C253.323 184.881 253.483 185.011 253.623 185.131L253.633 185.141C255.223 186.491 255.513 186.791 256.103 186.761C256.299 186.749 256.491 186.705 256.673 186.631C256.989 186.499 257.28 186.313 257.533 186.081C258.241 185.392 258.805 184.569 259.193 183.661C259.703 182.481 259.503 182.001 259.813 181.801C260.533 181.341 263.103 182.881 265.803 185.651C266.56 186.903 267.241 188.198 267.843 189.531C269.806 193.791 270.978 198.372 271.303 203.051C271.333 203.501 271.353 203.961 271.373 204.421C271.383 204.871 271.393 205.331 271.393 205.791ZM157.274 -0.0683594C157.834 2.2064 158.264 4.51101 158.563 6.83443C158.893 9.14269 159.107 11.4596 159.298 13.7781C159.452 16.0994 159.581 18.4225 159.593 20.7542C159.639 23.0965 159.551 25.4395 159.328 27.7716C158.766 25.4973 158.335 23.1927 158.037 20.8691C157.707 18.5608 157.493 16.2439 157.305 13.9252C157.153 11.6037 157.025 9.28058 157.013 6.94884C156.967 4.60671 157.055 2.26389 157.274 -0.0683594V-0.0683594ZM171.693 29.6916C172.227 27.3204 172.889 24.9802 173.678 22.6812C174.432 20.3816 175.295 18.1257 176.179 15.8783C177.097 13.6448 178.038 11.4207 179.088 9.24013C180.112 7.03579 181.257 4.88969 182.518 2.81163C181.987 5.18351 181.325 7.52425 180.536 9.82315C179.781 12.1225 178.919 14.3784 178.033 16.625C177.112 18.8575 176.171 21.0816 175.12 23.262C174.096 25.466 172.952 27.6124 171.693 29.6916ZM135.363 5.21164C136.6 7.08016 137.727 9.02027 138.735 11.0218C139.768 12.9982 140.694 15.0213 141.598 17.0533C142.469 19.1003 143.316 21.1573 144.057 23.2606C144.833 25.3636 145.482 27.5111 146.001 29.6916C144.761 27.8243 143.634 25.8845 142.626 23.8826C141.593 21.906 140.668 19.883 139.765 17.8499C138.897 15.802 138.05 13.745 137.309 11.6414C136.534 9.53842 135.884 7.39142 135.363 5.21164V5.21164ZM42.2288 167.785C41.3342 167.557 40.4236 167.398 39.5048 167.308C39.07 167.253 38.6283 167.297 38.213 167.438C37.8198 167.58 37.9438 168.012 38.1614 168.388C38.6692 169.138 39.2771 169.815 39.9683 170.401C40.6424 171.021 41.357 171.612 42.083 172.166C42.1483 172.215 42.1912 172.289 42.2021 172.371C42.213 172.452 42.1912 172.534 42.1414 172.6C42.1077 172.643 42.0637 172.676 42.0134 172.697C41.9632 172.718 41.9084 172.725 41.8544 172.719C39.9625 172.509 38.18 171.726 36.746 170.474C36.0191 169.846 35.4158 169.088 34.967 168.239C34.7301 167.799 34.561 167.325 34.4654 166.834C34.41 166.548 34.4158 166.254 34.4825 165.971C34.5317 165.79 34.6213 165.622 34.7447 165.48C34.7828 165.41 34.8186 165.387 34.8755 165.279C35.7101 163.761 36.4221 162.043 37.1467 160.396L39.2745 155.384C39.988 153.71 40.7107 152.056 41.3225 150.36C41.9519 148.666 42.463 146.949 43.0547 145.216L44.7899 140.035C45.38 138.313 46.1029 136.637 46.7523 134.937C49.3513 128.126 52.6793 121.616 56.6783 115.52C58.6975 112.462 61.081 109.66 63.7763 107.177C64.1166 106.868 64.4482 106.549 64.7963 106.249L65.887 105.4C66.6103 104.825 67.368 104.295 68.156 103.812C69.7379 102.778 71.4865 102.026 73.3246 101.587L73.2222 101.611C76.3473 100.681 79.5709 100.12 82.8268 99.942C86.0471 99.6801 89.2725 99.5966 92.4922 99.5935C95.7122 99.5948 98.9297 99.6574 102.145 99.7814C105.359 99.9333 108.566 100.126 111.778 100.389L111.44 100.503C112.683 99.2303 113.829 97.8665 114.868 96.4231L116.473 94.2458C116.986 93.4496 117.66 92.7692 118.451 92.2479C120.095 91.3118 122.028 91.0196 123.874 91.428C125.679 91.7517 127.397 92.4416 128.924 93.4552C128.93 93.4592 128.936 93.4644 128.94 93.4704C128.944 93.4764 128.947 93.4832 128.948 93.4904C128.95 93.4975 128.95 93.5049 128.948 93.512C128.947 93.5192 128.944 93.526 128.94 93.5321C128.931 93.5439 128.918 93.5519 128.904 93.5547C128.89 93.5575 128.875 93.5548 128.862 93.5473C127.318 92.6263 125.603 92.0307 123.821 91.7971C122.082 91.5017 120.294 91.8369 118.78 92.7424C118.072 93.2439 117.477 93.8893 117.035 94.6364L115.493 96.8796C114.469 98.4084 113.316 99.8468 112.046 101.179C112.006 101.219 111.958 101.25 111.905 101.27C111.852 101.29 111.795 101.299 111.739 101.296L111.709 101.294C108.515 101.099 105.308 100.971 102.105 100.885C98.9021 100.784 95.6985 100.731 92.4972 100.746C89.2954 100.755 86.099 100.887 82.9151 101.086C79.7503 101.222 76.6122 101.727 73.5645 102.591L73.497 102.608L73.4617 102.615C71.7607 103.028 70.1349 103.706 68.6435 104.622C67.8703 105.07 67.1253 105.564 66.4127 106.103L65.3317 106.902C64.9853 107.186 64.6538 107.49 64.3139 107.783C63.6211 108.357 62.9622 108.971 62.3405 109.621C61.7221 110.275 61.0628 110.893 60.476 111.578C59.3276 112.97 58.1259 114.324 57.1172 115.829C52.9609 121.782 49.6164 128.262 47.1718 135.099C46.5799 136.814 45.9158 138.503 45.3843 140.237L43.8222 145.448C43.2895 147.171 42.8374 148.962 42.2013 150.677C41.596 152.408 40.8796 154.093 40.1856 155.769C39.494 157.451 38.7513 159.112 38.0153 160.777C37.254 162.444 36.5608 164.088 35.6237 165.744C35.5469 165.87 35.4599 165.989 35.3635 166.101C35.3699 166.156 35.3227 166.119 35.3216 166.21C35.2888 166.371 35.2878 166.536 35.3186 166.697C35.395 167.1 35.5303 167.489 35.7203 167.852C36.1181 168.616 36.6446 169.307 37.2768 169.893C38.5672 171.087 40.1915 171.858 41.9321 172.103L41.7036 172.657C40.9714 172.062 40.2719 171.447 39.5992 170.789C38.9009 170.14 38.2987 169.394 37.8111 168.575C37.6853 168.344 37.6108 168.089 37.5928 167.827C37.5932 167.678 37.6397 167.531 37.7259 167.409C37.8121 167.286 37.9339 167.193 38.0748 167.142C38.5456 166.998 39.0438 166.969 39.5283 167.055C40.4527 167.193 41.3652 167.401 42.2579 167.677C42.2649 167.679 42.2715 167.683 42.2772 167.687C42.2829 167.692 42.2877 167.698 42.2912 167.704C42.2947 167.71 42.2969 167.717 42.2978 167.725C42.2986 167.732 42.2979 167.739 42.2959 167.746C42.2917 167.76 42.2825 167.772 42.27 167.779C42.2576 167.786 42.2428 167.788 42.2288 167.785Z" fill="black"/>
<path d="M233.19 216.395C233.63 215.743 234.023 215.06 234.366 214.352C234.535 214.004 234.669 213.64 234.768 213.266C234.883 212.921 234.889 212.549 234.786 212.2C234.715 212.049 234.603 211.921 234.462 211.83C234.322 211.74 234.159 211.691 233.991 211.689C233.619 211.646 233.242 211.658 232.873 211.725C232.11 211.863 231.362 212.075 230.639 212.358C229.924 212.661 229.246 213.043 228.616 213.498C227.957 213.941 227.283 214.366 226.602 214.78C225.918 215.191 225.227 215.592 224.508 215.956C223.782 216.354 223.006 216.655 222.201 216.85C222.127 216.865 222.049 216.856 221.98 216.824C221.911 216.793 221.854 216.74 221.816 216.673C221.779 216.607 221.764 216.53 221.773 216.455C221.783 216.379 221.816 216.309 221.868 216.253L221.884 216.235C223.552 214.499 225.106 212.657 226.538 210.722L226.449 210.991L226.448 210.981C226.447 210.889 226.475 210.798 226.529 210.723L226.536 210.713C226.98 210.089 227.403 209.452 227.776 208.799C228.154 208.19 228.426 207.521 228.579 206.82C228.673 206.138 228.453 205.931 227.761 205.833C227.083 205.775 226.403 205.914 225.802 206.232C225.488 206.398 225.191 206.595 224.917 206.822C224.605 207.067 224.288 207.297 223.969 207.524C223.329 207.976 222.708 208.451 222.052 208.884C220.75 209.762 219.42 210.596 218.05 211.368C215.309 212.95 212.387 214.197 209.349 215.084C207.801 215.51 206.214 215.779 204.613 215.886C202.979 215.972 201.342 215.809 199.757 215.404C199.638 215.372 199.528 215.311 199.439 215.227C199.349 215.143 199.282 215.037 199.243 214.92C199.204 214.803 199.195 214.679 199.216 214.557C199.237 214.436 199.288 214.322 199.365 214.225L199.377 214.211L203.173 209.455L205.038 207.114C205.119 207 205.172 206.868 205.195 206.73C205.217 206.592 205.208 206.45 205.168 206.316C205.132 206.189 205.067 206.073 204.979 205.976C204.925 205.92 204.867 205.87 204.805 205.824C204.753 205.786 204.697 205.754 204.638 205.729C204.491 205.669 204.333 205.642 204.175 205.65C203.978 205.641 203.697 205.645 203.468 205.65C202.985 205.661 202.503 205.696 202.024 205.751C201.063 205.86 200.115 206.069 199.197 206.374C198.738 206.535 198.288 206.674 197.821 206.849C197.376 207.026 196.939 207.226 196.511 207.447L193.832 208.89C193.722 208.949 193.599 208.981 193.474 208.982L193.452 208.982H193.442L193.818 208.892C188.775 211.411 183.687 213.634 178.889 216.408L177.084 217.46C175.187 218.567 173.118 219.348 170.963 219.768C169.533 220.056 168.079 220.197 166.621 220.189C165.141 220.179 163.761 220.003 162.372 219.902L145.672 218.504L128.977 217.038C117.847 216.076 106.716 215.095 95.5806 214.242L91.4056 213.968C90.7069 213.921 90.0194 213.898 89.3336 213.879C88.9196 213.886 88.5103 213.791 88.1422 213.601C87.793 213.401 87.4922 213.126 87.2611 212.796C86.495 211.556 85.9954 210.171 85.7941 208.728C85.5471 207.34 85.379 205.938 85.2906 204.53C85.0064 198.932 85.1051 193.32 85.5861 187.735L85.8051 188.056C81.9606 186.874 78.1194 185.66 74.3849 184.151C70.635 182.681 66.9624 181.022 63.3813 179.179C59.802 177.334 56.3145 175.314 52.8541 173.287C49.3925 171.28 45.8997 169.27 42.1066 168.236L42.7644 167.737C42.7719 178.801 43.0058 189.864 43.4661 200.926C43.7064 206.452 44.013 211.975 44.4656 217.48C44.5635 218.858 44.7012 220.231 44.8301 221.605C44.951 222.981 45.0942 224.352 45.2598 225.72C45.418 227.092 45.5406 228.471 45.7938 229.765C46.0394 231.074 46.4032 232.359 46.8807 233.603C48.8597 238.603 52.4482 242.801 57.0793 245.535C59.3752 246.917 61.856 247.967 64.4473 248.651C65.7431 248.996 67.0601 249.255 68.3899 249.428C69.7287 249.593 71.125 249.702 72.4897 249.842L76.6061 250.237L80.7327 250.504C83.4817 250.719 86.2383 250.778 88.9925 250.89C91.7465 251.016 94.5045 250.965 97.2605 251.012C100.016 250.944 102.774 250.953 105.527 250.806C116.551 250.356 127.528 249.119 138.375 247.104C143.789 246.099 149.235 244.953 154.714 244.042C160.192 243.114 165.682 242.336 171.175 241.591C182.159 240.087 193.163 238.81 204.15 237.439C209.638 236.736 215.137 236.048 220.563 235.074L222.582 234.666C223.256 234.533 223.883 234.313 224.538 234.143C225.164 233.897 225.785 233.625 226.399 233.344C227.001 233.039 227.582 232.693 228.137 232.309C229.249 231.567 230.162 230.565 230.797 229.39C231.101 228.825 231.238 228.184 231.19 227.544C231.162 227.243 231.057 226.954 230.884 226.705C230.711 226.457 230.476 226.258 230.203 226.129C230.165 226.111 230.133 226.085 230.108 226.053C230.083 226.02 230.067 225.982 230.06 225.942C230.054 225.902 230.057 225.86 230.07 225.821C230.083 225.783 230.105 225.748 230.135 225.72L230.151 225.705C230.75 225.21 231.322 224.683 231.863 224.126C232.39 223.56 232.827 222.917 233.159 222.219C233.331 221.885 233.435 221.522 233.466 221.148C233.497 220.774 233.453 220.398 233.338 220.042C233.034 219.338 232.502 218.757 231.827 218.392C231.813 218.384 231.8 218.372 231.79 218.358C231.779 218.345 231.772 218.329 231.768 218.313C231.764 218.296 231.763 218.279 231.766 218.262C231.768 218.245 231.774 218.229 231.783 218.214L231.794 218.199L233.19 216.394L233.195 216.388C233.211 216.367 233.235 216.354 233.261 216.35C233.287 216.347 233.313 216.354 233.334 216.369C233.355 216.385 233.369 216.409 233.373 216.435C233.377 216.461 233.37 216.487 233.355 216.508L231.991 218.364L231.958 218.17C232.698 218.55 233.289 219.169 233.634 219.927C233.774 220.322 233.835 220.742 233.813 221.161C233.791 221.58 233.686 221.99 233.505 222.368C233.174 223.113 232.731 223.802 232.192 224.413C231.645 225.007 231.064 225.569 230.454 226.098L230.402 225.674C230.76 225.834 231.071 226.083 231.305 226.398C231.538 226.713 231.686 227.083 231.734 227.473C231.813 228.219 231.677 228.973 231.341 229.644C230.691 230.935 229.733 232.046 228.552 232.879C227.979 233.297 227.378 233.676 226.753 234.013C226.119 234.324 225.474 234.626 224.821 234.901C224.143 235.1 223.462 235.352 222.782 235.504L220.739 235.968C215.279 237.045 209.794 237.827 204.31 238.627L171.408 243.243C165.934 244.044 160.464 244.879 155.031 245.859C152.309 246.317 149.606 246.904 146.898 247.429C144.192 247.988 141.473 248.567 138.741 249.075C127.804 251.132 116.734 252.405 105.615 252.884C94.4954 253.386 83.3539 253.049 72.285 251.877C70.8961 251.725 69.5311 251.612 68.1229 251.43C66.707 251.238 65.3052 250.953 63.9266 250.577C61.1589 249.828 58.5117 248.689 56.0646 247.195C51.0899 244.214 47.2502 239.661 45.1523 234.254C44.6451 232.908 44.2605 231.519 44.0032 230.104C43.7363 228.677 43.6216 227.292 43.4747 225.913C43.324 224.529 43.1974 223.145 43.0949 221.76C42.9829 220.376 42.8622 218.992 42.7817 217.606C42.3979 212.066 42.1619 206.524 41.9923 200.982C41.6583 189.896 41.5676 178.811 41.7203 167.726L41.7204 167.716C41.7213 167.648 41.7354 167.581 41.7621 167.519C41.7888 167.457 41.8275 167.401 41.8759 167.353C41.9244 167.306 41.9816 167.269 42.0445 167.244C42.1073 167.219 42.1745 167.206 42.2421 167.207C42.2882 167.208 42.3339 167.215 42.3783 167.227C46.3503 168.373 49.8602 170.476 53.3007 172.529C56.745 174.599 60.1664 176.68 63.7207 178.526C67.2712 180.376 70.9136 182.044 74.6339 183.523C78.3399 185.043 82.157 186.27 85.9795 187.467C86.0468 187.488 86.1051 187.531 86.1449 187.589C86.1846 187.648 86.2036 187.718 86.1986 187.788C85.7205 193.339 85.6482 198.917 85.9824 204.479C86.0783 205.859 86.2522 207.233 86.5034 208.593C86.6965 209.922 87.1579 211.198 87.8595 212.343C88.0286 212.586 88.2493 212.789 88.5059 212.937C88.7613 213.066 89.0455 213.127 89.3313 213.115C90.0418 213.129 90.7503 213.149 91.4455 213.191L95.6348 213.426C106.794 214.091 117.939 214.876 129.087 215.659L145.805 216.859L162.514 218.17C163.91 218.266 165.31 218.431 166.625 218.43C167.963 218.43 169.297 218.294 170.607 218.023C171.913 217.752 173.188 217.347 174.411 216.813C175.021 216.546 175.617 216.246 176.195 215.915L178.016 214.87C182.918 212.079 188.102 209.853 193.067 207.411L193.079 207.405C193.192 207.35 193.316 207.321 193.443 207.321H193.452L193.073 207.413L195.764 205.986C196.239 205.746 196.726 205.525 197.226 205.331C197.71 205.152 198.23 204.991 198.73 204.822C199.742 204.496 200.785 204.274 201.842 204.161C202.372 204.103 202.903 204.068 203.434 204.059C203.712 204.056 203.939 204.052 204.249 204.065C204.599 204.068 204.946 204.14 205.269 204.278C205.442 204.354 205.606 204.45 205.758 204.565C205.899 204.671 206.03 204.789 206.15 204.92C206.402 205.201 206.585 205.538 206.684 205.903C206.782 206.259 206.801 206.632 206.738 206.996C206.675 207.36 206.532 207.705 206.32 208.007L204.379 210.417L200.548 215.152L200.168 213.959C201.597 214.332 203.072 214.496 204.548 214.448C206.05 214.369 207.541 214.14 208.998 213.763C211.947 212.951 214.788 211.789 217.46 210.301C218.81 209.569 220.129 208.772 221.417 207.932C222.065 207.518 222.686 207.059 223.323 206.624C223.641 206.405 223.956 206.184 224.259 205.954C224.59 205.692 224.947 205.465 225.324 205.274C226.114 204.875 227.002 204.712 227.881 204.806C228.405 204.842 228.894 205.077 229.249 205.464C229.407 205.677 229.517 205.923 229.572 206.183C229.626 206.443 229.624 206.712 229.565 206.971C229.384 207.791 229.06 208.573 228.607 209.281C228.197 209.961 227.75 210.618 227.269 211.249L227.356 210.981L227.356 210.991L227.356 211.005C227.355 211.098 227.324 211.188 227.267 211.261C225.764 213.192 224.139 215.025 222.401 216.747L222.084 216.133C223.568 215.708 224.985 215.076 226.293 214.255C226.976 213.863 227.653 213.459 228.321 213.034C228.99 212.577 229.708 212.197 230.461 211.9C231.223 211.623 232.01 211.421 232.811 211.297C233.225 211.236 233.646 211.238 234.059 211.301C234.289 211.32 234.51 211.402 234.697 211.539C234.884 211.675 235.029 211.86 235.118 212.074C235.237 212.492 235.221 212.938 235.073 213.347C234.957 213.736 234.804 214.113 234.616 214.473C234.244 215.181 233.823 215.861 233.355 216.508C233.339 216.529 233.316 216.544 233.29 216.548C233.265 216.553 233.238 216.547 233.216 216.532C233.195 216.517 233.18 216.495 233.175 216.469C233.17 216.443 233.175 216.416 233.19 216.395V216.395Z" fill="black"/>
<path d="M222.457 216.95C220.949 217.835 219.427 218.65 217.861 219.399C216.312 220.174 214.69 220.793 213.019 221.246C214.618 220.622 216.151 219.839 217.595 218.91C219.05 218.011 220.473 217.038 221.836 216.028L221.844 216.022C221.963 215.934 222.111 215.897 222.257 215.919C222.403 215.941 222.535 216.02 222.623 216.139C222.71 216.257 222.748 216.406 222.726 216.552C222.705 216.698 222.626 216.829 222.507 216.917C222.491 216.929 222.475 216.94 222.457 216.95V216.95ZM232.224 218.734C229.639 220.492 227.022 222.178 224.338 223.77C222.994 224.559 221.641 225.335 220.241 226.026C219.546 226.382 218.834 226.703 218.107 226.986C217.747 227.138 217.376 227.262 216.997 227.357C216.623 227.466 216.236 227.526 215.846 227.535C216.232 227.503 216.613 227.421 216.978 227.29C217.347 227.174 217.706 227.029 218.053 226.858C218.756 226.534 219.443 226.175 220.11 225.781C221.455 225.013 222.754 224.163 224.041 223.299C226.608 221.563 229.117 219.726 231.566 217.837L231.571 217.833C231.688 217.743 231.836 217.703 231.982 217.722C232.128 217.741 232.261 217.817 232.351 217.934C232.441 218.051 232.482 218.199 232.463 218.345C232.444 218.492 232.367 218.625 232.251 218.715L232.224 218.734ZM230.661 226.332C229.653 227.07 228.594 227.736 227.493 228.326C226.409 228.918 225.291 229.447 224.146 229.91C221.872 230.844 219.494 231.498 217.062 231.858C219.438 231.321 221.74 230.497 223.917 229.403C225.001 228.867 226.052 228.268 227.067 227.609C228.075 226.966 229.037 226.254 229.948 225.479L229.965 225.464C230.02 225.416 230.085 225.379 230.154 225.355C230.224 225.332 230.297 225.323 230.37 225.328C230.443 225.333 230.515 225.352 230.58 225.385C230.646 225.418 230.704 225.463 230.752 225.519C230.8 225.574 230.837 225.638 230.86 225.708C230.883 225.778 230.892 225.851 230.887 225.924C230.881 225.997 230.862 226.069 230.829 226.134C230.796 226.199 230.75 226.258 230.694 226.306C230.684 226.315 230.672 226.324 230.661 226.332ZM203.613 184.532C203.53 184.531 203.449 184.511 203.376 184.472C203.303 184.433 203.241 184.377 203.196 184.308L198.878 177.786C198.842 177.732 198.817 177.67 198.804 177.606C198.792 177.541 198.792 177.475 198.805 177.411C198.818 177.346 198.844 177.285 198.88 177.231C198.917 177.176 198.964 177.129 199.019 177.093C199.074 177.057 199.135 177.032 199.199 177.019C199.264 177.006 199.33 177.007 199.395 177.02C199.459 177.033 199.52 177.058 199.575 177.095C199.629 177.132 199.676 177.179 199.712 177.234L204.03 183.755C204.103 183.866 204.129 184.001 204.103 184.131C204.076 184.261 203.999 184.375 203.889 184.449C203.807 184.503 203.711 184.532 203.613 184.532V184.532ZM225.842 168.232C225.76 168.232 225.678 168.211 225.606 168.172C225.533 168.133 225.471 168.077 225.425 168.008L221.107 161.487C221.07 161.432 221.045 161.37 221.033 161.306C221.02 161.242 221.02 161.175 221.033 161.111C221.047 161.046 221.072 160.985 221.109 160.931C221.146 160.876 221.193 160.83 221.247 160.793C221.302 160.757 221.364 160.732 221.428 160.719C221.492 160.707 221.559 160.707 221.623 160.72C221.688 160.733 221.749 160.759 221.803 160.795C221.858 160.832 221.904 160.879 221.941 160.934L226.259 167.455C226.309 167.531 226.338 167.618 226.342 167.709C226.346 167.799 226.326 167.889 226.283 167.968C226.24 168.048 226.177 168.115 226.099 168.161C226.021 168.207 225.933 168.232 225.842 168.232V168.232Z" fill="black"/>
</g>
<defs>
<clipPath id="clip0_32_1513">
<rect width="303" height="253" fill="white"/>
</clipPath>
</defs>
</svg>
