<svg fill="none" height="406" viewBox="0 0 378 406" width="378" xmlns="http://www.w3.org/2000/svg" xmlns:xlink="http://www.w3.org/1999/xlink"><clipPath id="a"><path d="m0 0h378v406h-378z"/></clipPath><g clip-path="url(#a)"><path d="m183.812 188.406c.344 5.955.496 11.91.635 17.865.047 5.955.198 11.91.102 17.865l-.834-.834c6.061.101 12.121.358 18.182.483 3.03.058 6.061.069 9.091.035 3.03-.02 6.061-.051 9.091-.142l9.091-.242 9.091-.173c6.061-.049 12.121-.157 18.182-.159l-1.032 1.032c-.024-6.95.095-13.9.236-20.851.048-3.475.17-6.95.275-10.425.095-3.475.252-6.95.424-10.425.002-.025.012-.048.03-.066.018-.017.042-.026.067-.026s.049.009.067.026c.018.018.029.041.03.066.172 3.475.329 6.95.424 10.425.105 3.475.227 6.95.275 10.425.141 6.951.26 13.901.237 20.851-.001.274-.109.536-.303.73s-.456.303-.73.303c-6.061-.002-12.121-.11-18.182-.16l-9.091-.173-9.091-.242c-3.03-.091-6.061-.122-9.091-.141-3.03-.038-6.061-.026-9.091.035-6.061.125-12.121.381-18.182.482-.218.004-.428-.079-.584-.23s-.246-.359-.25-.576v-.001-.027c-.096-5.955.055-11.91.102-17.865.139-5.955.291-11.91.635-17.865.002-.025.012-.048.03-.065s.042-.026.067-.026.048.009.066.026.029.04.031.065zm72.534-27.34c-.167-1.608-.243-3.216-.366-4.824-.09-1.608-.168-3.216-.223-4.824l.686.686c-6.061.214-12.122.301-18.182-.087-6.054-.374-12.125-.403-18.182-.089-6.061.329-12.121.401-18.182.502-6.061.082-12.122-.059-18.182-.285l.727-.727-.262 5.327c-.039.888-.114 1.776-.169 2.664-.057.888-.12 1.776-.2 2.664-.002.024-.013.047-.031.063s-.041.025-.065.025c-.025 0-.048-.009-.066-.025s-.029-.039-.031-.063c-.079-.888-.142-1.776-.199-2.664-.056-.888-.13-1.776-.17-2.664l-.262-5.327c-.009-.183.055-.363.178-.499.124-.136.296-.217.479-.226h.005l.066-.003c6.06-.226 12.121-.366 18.182-.285 6.06.101 12.121.173 18.182.503 6.057.314 12.128.284 18.182-.089 6.06-.388 12.121-.302 18.182-.088l.048.002c.086.003.172.023.251.059s.15.088.21.151c.059.064.105.138.136.22.03.081.044.168.041.255-.055 1.608-.134 3.216-.223 4.824-.123 1.608-.199 3.216-.366 4.824-.003.024-.014.047-.032.063s-.041.025-.065.025-.047-.009-.065-.025-.029-.039-.032-.063z" fill="#fdfbf5"/><path d="m220.082 151.417v72.72" stroke="#fdfbf5" stroke-miterlimit="10" stroke-width="2.903"/><path d="m256.446 187.777h-54.415" stroke="#fdfbf5" stroke-miterlimit="10" stroke-width="2.903"/><path d="m220.986 151.687c-.049.035-.107.057-.168.062l-.084.01-.138.019-.275.037-.552.063c-.367.031-.736.067-1.104.086-.736.037-1.474.068-2.21.056-1.477-.004-2.952-.092-4.419-.265-1.478-.164-2.943-.423-4.388-.774-1.471-.334-2.901-.827-4.265-1.471-1.392-.656-2.685-1.505-3.841-2.521-1.192-1.012-2.128-2.291-2.734-3.733-.555-1.458-.644-3.053-.256-4.565.312-1.497.851-2.938 1.598-4.272.796-1.429 1.971-2.61 3.396-3.413 1.513-.8 3.24-1.103 4.936-.864 1.642.231 3.213.818 4.605 1.72 1.33.864 2.529 1.917 3.558 3.125 1.934 2.36 3.436 5.043 4.438 7.925.505 1.399.923 2.828 1.249 4.279.154.73.283 1.441.418 2.188.14.855.165 1.667.236 2.308zm-.22-.176c-.313-.759-.671-1.348-.915-1.893l-.886-1.967-.928-1.94c-.335-.632-.644-1.273-.982-1.894-1.28-2.459-2.848-4.757-4.673-6.844-1.614-2.025-3.822-3.493-6.313-4.198-1.234-.231-2.507-.118-3.681.327-1.173.445-2.201 1.206-2.97 2.198-.889 1.066-1.55 2.304-1.94 3.636-.454 1.295-.394 2.714.168 3.966.633 1.206 1.615 2.194 2.818 2.834 1.211.66 2.485 1.196 3.804 1.6 1.315.441 2.659.823 4.009 1.228 1.357.382 2.739.71 4.129 1.037l4.208.926 2.126.453 1.068.235.536.122.268.061.134.03c.016.005.061.01.052.016-.012.006-.021.016-.027.028s-.007.025-.005.039z" fill="#fdfbf5"/><path d="m219.414 151.511c.002-.014 0-.027-.005-.039-.006-.012-.016-.022-.028-.029-.008-.005.037-.01.052-.015l.134-.03.269-.061.535-.123 1.069-.234 2.126-.453 4.208-.926c1.39-.327 2.772-.656 4.129-1.037 1.35-.405 2.693-.787 4.009-1.228 1.319-.404 2.593-.94 3.804-1.6 1.203-.64 2.185-1.628 2.818-2.834.562-1.252.622-2.671.168-3.966-.391-1.333-1.051-2.57-1.94-3.636-.77-.992-1.797-1.753-2.971-2.198-1.173-.445-2.446-.559-3.68-.327-2.491.705-4.699 2.173-6.313 4.198-1.825 2.087-3.394 4.385-4.673 6.844-.338.621-.648 1.262-.982 1.894l-.928 1.94-.886 1.967c-.244.545-.603 1.134-.915 1.893zm-.221.176c.071-.641.097-1.453.237-2.308.135-.747.264-1.458.418-2.188.326-1.451.743-2.88 1.249-4.279 1.002-2.882 2.504-5.565 4.437-7.925 1.03-1.208 2.228-2.261 3.559-3.125 1.391-.902 2.963-1.489 4.605-1.72 1.695-.239 3.423.064 4.936.864 1.424.803 2.599 1.984 3.396 3.413.747 1.334 1.286 2.775 1.598 4.272.388 1.512.298 3.107-.257 4.565-.605 1.442-1.542 2.721-2.733 3.733-1.156 1.016-2.449 1.865-3.842 2.521-1.363.644-2.794 1.137-4.265 1.471-1.444.351-2.91.61-4.387.774-1.467.173-2.942.261-4.419.265-.736.012-1.475-.019-2.21-.056-.368-.019-.737-.055-1.104-.086l-.552-.063-.276-.037-.137-.019-.084-.01c-.061-.005-.119-.027-.169-.062z" fill="#fdfbf5"/><path d="m229.23 150.376 6.004-1.711c1.987-.567 3.943-1.188 5.925-1.744 2.016-.473 3.991-1.108 5.905-1.899 1.883-.873 3.642-1.99 5.232-3.323 3.428-2.787 7.777-4.186 12.187-3.92 2.206.149 4.355.764 6.306 1.804.978.52 1.869 1.189 2.641 1.983.775.799 1.295 1.81 1.495 2.905l-.188.047c-1.031-1.719-2.671-2.987-4.594-3.554-1.855-.68-3.806-1.059-5.781-1.124-.984-.051-1.97-.035-2.952.047l-1.475.163-1.454.311c-.492.086-.948.295-1.43.426l-.716.221-.692.289c-.458.202-.947.35-1.396.581l-1.355.697c-1.844 1.012-3.682 2.061-5.551 3.01-1.836 1.051-3.726 2.006-5.662 2.86-1.973.769-4.02 1.333-6.109 1.682-2.084.387-4.204.536-6.321.442z" fill="#fdfbf5"/><path d="m230.785 151.304 5.089-3.617c1.684-1.197 3.321-2.435 5.003-3.62 1.744-1.118 3.394-2.376 4.935-3.76 1.483-1.451 2.769-3.091 3.824-4.878 2.301-3.771 5.934-6.54 10.181-7.76 2.129-.596 4.36-.733 6.546-.403 1.095.164 2.159.498 3.152.988.997.496 1.824 1.275 2.378 2.241l-.161.106c-1.546-1.276-3.515-1.925-5.517-1.818-1.976-.022-3.942.271-5.825.869-.944.28-1.869.624-2.767 1.029l-1.336.646-1.268.778c-.435.245-.795.594-1.205.878l-.602.448-.556.503c-.364.343-.775.646-1.121 1.013l-1.045 1.11c-1.402 1.569-2.784 3.17-4.23 4.689-1.38 1.603-2.843 3.134-4.383 4.584-1.604 1.384-3.346 2.598-5.199 3.624-1.835 1.06-3.784 1.907-5.811 2.525z" fill="#fdfbf5"/><path d="m317.006 131.047v-.252c.077-.068.155-.145.232-.213zm21.542 22.771c.03-.068.049-.126.078-.193.058-.049.126-.087.184-.136z" fill="#fdfbf5"/><path d="m367.843 88.2997c-9.194-43.7723-27.233-45.0595-27.233-45.0595.648 1.2582 1.277 2.5356 1.877 3.813.032.0769.036.1628.01.242l-.02.0387c-.909 2.4729-2.253 4.7637-3.968 6.7647-1.692 1.9904-3.59 3.7972-5.661 5.3905-2.042 1.6064-4.196 3.065-6.445 4.3647-2.239 1.3047-4.56 2.462-6.949 3.4646l-.048.0193c-.1.0415-.209.0572-.316.0457-.108-.0115-.21-.0499-.299-.1116s-.16-.1448-.209-.2415c-.048-.0967-.071-.204-.067-.312.116-2.942.262-5.8839.552-8.826-1.026.4839-1.626.7452-1.626.7452l-.9 10.6164-8.023 69.5631c1.413-1.413 2.875-2.777 4.326-4.151 1.365-1.317 2.768-2.584 4.162-3.871-.029-4.239.058-8.468.222-12.698.194-4.316.436-8.632.823-12.939.397-4.306.861-8.6032 1.577-12.8807.155-1.0646.397-2.1291.591-3.1937.183-1.0646.445-2.1194.725-3.1743.136-.5226.252-1.0549.407-1.5775l.493-1.5484c.337-1.0311.761-2.0316 1.268-2.9904-.346 1.0175-.63 2.0549-.851 3.1066l-.32 1.5677c-.097.5323-.155 1.0646-.232 1.5968-.319 2.1194-.552 4.2583-.765 6.3874-.445 4.2775-.716 8.5645-1.035 12.8515-.155 2.149-.294 4.297-.416 6.446l-.407 6.436-.803 12.89-.01.058c-.005.081-.028.16-.066.232-.039.072-.092.135-.156.184-1.568 1.23-3.136 2.468-4.733 3.668-1.596 1.21-3.174 2.429-4.8 3.6-5.274 7.501-42.282 26.769-42.282 26.769s3.697 12.697 6.755 12.426c25.791-2.245 32.295-5.806 32.295-5.806v17.729c2.429 20.981 68.092-3.842 68.092-3.842zm-39.031-19.2877c1.521-1.2773 3.291-2.2233 5.197-2.7775 1.953-.5649 4.028-.5481 5.971.0484 1.883.568 3.574 1.6427 4.888 3.1065-1.656-.7822-3.411-1.3326-5.217-1.6355-1.714-.2516-3.462-.1361-5.129.3388-1.699.5033-3.326 1.2255-4.839 2.1484-1.578.9679-3.094 2.0346-4.538 3.1936.918-1.7022 2.164-3.2054 3.667-4.4227zm9.93 74.006c-.164 1.606-.568 3.178-1.2 4.664-.604 1.51-1.401 2.934-2.371 4.239-.968 1.34-2.159 2.502-3.523 3.436-1.36.948-2.96 1.494-4.616 1.577 1.332-.769 2.566-1.695 3.677-2.758 1.053-1.063 2.027-2.202 2.913-3.407 1.82-2.419 3.349-5.061 5.12-7.751zm13.258-28.327c-.571 3.426-1.045 6.881-1.897 10.249-.396 1.693-.716 3.406-1.19 5.08l-1.432 5.013c-.252.833-.475 1.675-.755 2.497l-.861 2.458-1.742 4.917c-.571 1.635-1.317 3.213-1.975 4.819l-2.032 4.791c-.057.13-.147.244-.261.329-2.658 1.931-5.413 3.724-8.255 5.371-.62.367-1.249.726-1.878 1.074 2.874 2.042 5.623 4.065 8.536 5.778 1.556.914 3.169 1.729 4.829 2.438 1.713.664 3.485 1.16 5.294 1.481-1.894.432-3.861.419-5.749-.039-1.885-.474-3.691-1.221-5.361-2.216-1.648-.979-3.177-2.145-4.558-3.474-1.224-1.146-2.312-2.428-3.243-3.823-2.138 1.21-4.309 2.349-6.513 3.416-2.932 1.433-5.922 2.768-8.961 3.949-3.02 1.229-6.117 2.274-9.223 3.232 3.019-1.219 6.039-2.429 8.971-3.813 2.952-1.355 5.836-2.845 8.691-4.374 2.855-1.539 5.652-3.184 8.39-4.897 2.662-1.684 5.313-3.445 7.801-5.323 1.258-3.126 2.555-6.242 3.755-9.377l1.683-4.868.842-2.429c.271-.813.484-1.646.726-2.478l1.433-4.945c.484-1.646.793-3.329 1.209-4.994.842-3.329 1.355-6.726 1.994-10.104 1.032-6.789 1.543-13.648 1.529-20.5163.041-6.8945-.742-13.7693-2.332-20.478 1.108 3.2864 1.924 6.6641 2.438 10.0938l.397 2.5743.291 2.5839c.212 1.7227.29 3.455.387 5.197.289 6.9513-.039 13.9143-.978 20.8073zm-10.287-67.5506-1.103-3.9002c-5.875 6.8035-17.314 12.6391-21.543 14.6521.319 2.5839.532 5.1776.706 7.7615.813-.4452 1.636-.9193 2.439-1.4032 1.094-.6291 2.187-1.2775 3.242-1.9646 2.149-1.3452 4.226-2.7775 6.233-4.2969 2.002-1.5081 3.888-3.1644 5.642-4.955 1.725-1.7537 3.2-3.7369 4.384-5.8937-.397-1.2872-.755-2.584-1.103-3.9002zm-30.098 321.2516c-.832-1.2-1.664-2.4-2.574-3.552 9.581-2.729 13.8-5.555 15.658-7.606.77-.025 1.531.166 2.197.551.645.378 1.218.866 1.694 1.442.502.568.946 1.184 1.326 1.839.236.365.453.743.648 1.132-1.413.378-2.826.765-4.229 1.191-1.694.503-3.387 1.016-5.062 1.568-1.683.522-3.348 1.122-5.022 1.693-1.558.561-3.097 1.132-4.636 1.742z" fill="#fdfbf5"/><path d="m338.305 377.093c-.361-.639-.755-1.259-1.18-1.858-.413-.608-.89-1.169-1.423-1.675-.409-.397-.875-.73-1.384-.987-.039.029-.068.068-.106.097-1.114.951-2.343 1.757-3.658 2.4-1.295.651-2.641 1.192-4.026 1.616-1.379.429-2.79.743-4.22.939-2.976 1.886-6.095 3.537-9.329 4.936.774 1.161 1.5 2.332 2.206 3.522 1.926-.764 3.871-1.49 5.817-2.196 2.051-.726 4.113-1.452 6.184-2.11 2.071-.697 4.151-1.316 6.242-1.965 1.829-.532 3.648-1.064 5.487-1.558-.193-.387-.406-.784-.61-1.161zm39.331 7.916s-4.259-4.771-3.407-8.69c.246-.994.354-2.016.319-3.039-.203-3.126-1.2-8.71-5.7-7.791h-.009c-5.536 4.868-12.969 5.1-19.23 4.016 1.313 1.842 2.895 3.477 4.694 4.849.852.623 1.805 1.098 2.816 1.403.244.08.493.144.745.194l.745.106c.252.02.503-.009.755 0 .254.008.508-.018.755-.077 1.012-.151 1.977-.526 2.824-1.099.848-.573 1.556-1.328 2.073-2.211 1.171-1.937 2.057-4.033 2.632-6.223.164 2.401-.293 4.804-1.326 6.978-.555 1.149-1.358 2.16-2.351 2.961-1.033.822-2.272 1.344-3.581 1.51-1.294.186-2.614.049-3.842-.397-1.184-.442-2.269-1.113-3.194-1.974-1.754-1.644-3.045-3.72-3.745-6.02-2.927-.523-5.801-1.314-8.584-2.361-1.374.745-2.778 1.452-4.191 2.12-.571 1.221-1.388 2.311-2.4 3.203.558.149 1.087.387 1.568.706.66.424 1.264.928 1.8 1.5.539.554 1.037 1.146 1.491 1.771.473.625.903 1.281 1.287 1.965.044.078.072.164.082.253.011.089.004.179-.021.266-.024.086-.065.167-.12.237-.056.07-.124.129-.203.173-.029.019-.062.032-.096.039l-.068.029c-2.042.764-4.104 1.471-6.165 2.177-2.071.678-4.142 1.374-6.232 1.994-2.081.658-4.171 1.248-6.271 1.839-2.11.58-4.22 1.132-6.349 1.635l-.058.01c-.093.022-.19.01-.274-.032-.085-.043-.153-.113-.191-.2-.571-1.413-1.132-2.826-1.635-4.268h-.01c-3.106 1.372-6.337 2.442-9.649 3.193-1.838.35-3.508 1.303-4.744 2.709s-1.967 3.184-2.078 5.053c-.099 1.55.404 3.078 1.403 4.268.534.587 1.181 1.061 1.903 1.392s1.503.512 2.297.534c4.471.212 17.081.261 27.707-4.975 3.432-1.253 7.127-1.602 10.733-1.016 5.884 1.016 40.946-.406 37.095-8.71zm-10.965.542c-1.345.397-2.7.765-4.065 1.084-2.729.629-5.477 1.158-8.245 1.587-2.78.449-5.58.756-8.391.92-1.452.058-2.768.038-4.142.145-1.364.087-2.729.242-4.074.445-2.706.396-5.376 1.008-7.984 1.829-2.673.902-5.41 1.6-8.188 2.09-5.515.969-11.103 1.468-16.703 1.491 5.516-.794 11.013-1.733 16.403-2.962 1.336-.319 2.681-.667 3.997-1.054 1.336-.368 2.555-.823 3.92-1.297 2.693-.903 5.458-1.576 8.264-2.013 1.413-.203 2.826-.339 4.249-.416.435-.029.89-.049 1.336-.059-1.849-1.461-1.259-5.235 1.751-5.235 2.991 0 3.581 3.697 1.81 5.187 2.506-.077 5.032-.329 7.558-.571 2.758-.29 5.517-.619 8.265-1.016 1.384-.184 2.748-.406 4.113-.648.677-.146 1.374-.262 2.032-.446.341-.071.677-.161 1.007-.271.336-.092.658-.229.958-.406-1.199.735-2.505 1.281-3.871 1.616zm-29.372-20.004v-8.361l-2.845-.755h-.01l-8.313-2.187v.01c.019.135.097 1.287-1.433 2.98.79-.247 1.637-.236 2.42.029.796.273 1.532.697 2.168 1.249.632.538 1.209 1.138 1.722 1.79.513.656.972 1.352 1.375 2.081.047.085.077.178.088.275s.003.195-.024.289c-.027.093-.072.18-.133.256s-.136.14-.222.186c-.032.022-.068.038-.106.049l-.078.029c-1.664.59-3.329 1.18-5.013 1.713-1.684.551-3.367 1.084-5.061 1.577-1.694.523-3.397.968-5.1 1.452-1.713.435-3.426.871-5.158 1.268l-.078.019c-.1.022-.204.008-.296-.037-.091-.046-.164-.122-.207-.215-.678-1.451-1.355-2.903-1.955-4.403-2.719.774-5.874 1.548-9.523 2.284-.872.17-1.688.554-2.374 1.119-.686.564-1.22 1.29-1.555 2.113-.01.039-.029.078-.039.116-.286.814-.372 1.685-.25 2.54.121.854.447 1.666.95 2.368.502.702 1.166 1.272 1.935 1.663.77.39 1.622.59 2.485.581h21.639c1.355-.474 2.69-.997 3.997-1.548 1.302-.54 2.575-1.147 3.813-1.82 1.234-.651 2.401-1.423 3.484-2.303 1.075-.856 1.975-1.911 2.652-3.106l.019-.029c.037-.066.095-.117.165-.146 1.519-.551 3.038-1.074 4.587-1.538-1.269-.465-2.512-.995-3.726-1.588zm-5.468 6.959c-3.745 0-3.736-5.807 0-5.807 3.745 0 3.736 5.807 0 5.807zm-43.574-348.8556c-.164 2.542.148 5.0922.918 7.5203.462 1.1813 1.005 2.3295 1.624 3.4365.574 1.2202.96 2.5203 1.144 3.8561.18 1.3632.116 2.7475-.191 4.0881-.15.6604-.347 1.3091-.59 1.9413-.123.3166-.256.6295-.4.9388l-.222.4559-.165.3844c-.213.3883-.293.8357-.229 1.274.029.127.1.1662.193.2539.085.0213.138.0678.233.0935.107.0137.193.0544.312.0603.513.0419 1.03-.0154 1.522-.1689.456-.1188.878-.3409 1.235-.6492.172-.184.41-.292.662-.3004.252-.0083.497.0838.681.256.066.0625.123.1338.17.2119.854 1.449 1.802 2.8937 2.792 4.2707.958 1.3844 2.023 2.6921 3.184 3.9111.555.582 1.164 1.1092 1.82 1.5744.306.2015.629.376.965.5216.357.1403.725.2491 1.101.3253 1.543.3633 3.156.2893 4.659-.2137 1.504-.5407 2.813-1.518 3.758-2.8067 1.004-1.3289 1.775-2.8183 2.281-4.4049.986-3.2985 1.566-6.705 1.727-10.144.115 1.7389.121 3.4832.018 5.2227-.073 1.7611-.321 3.5105-.741 5.2222l-.388 1.2805-.196.6421c-.083.2084-.185.4109-.277.6171l-.569 1.2346c-.226.3988-.474.7846-.743 1.1556-1.05 1.5766-2.548 2.8025-4.301 3.5197-1.787.663-3.723.8139-5.591.4356-.477-.0831-.945-.2077-1.4-.3722-.467-.1808-.914-.4107-1.332-.6857-.767-.528-1.481-1.1295-2.131-1.796-2.438-2.5886-4.544-5.4707-6.27-8.5799l1.512.1675c-.59.5672-1.317.9712-2.11 1.1724-.74.2238-1.519.2869-2.286.1851-.449-.0645-.88-.218-1.268-.4515-.214-.1554-.406-.3388-.571-.5453-.158-.2155-.275-.4588-.343-.7173-.176-.8322-.05-1.6998.355-2.4479 1.276-2.1001 1.893-4.5343 1.771-6.9884-.103-1.2204-.378-2.4201-.815-3.5642-.218-.5872-.486-1.1099-.758-1.7487-.257-.6141-.462-1.2484-.614-1.8964-.581-2.5454-.627-5.1837-.136-7.7479z" fill="#fdfbf5"/><path d="m302.775 12.2332s-9.84 12.8256-16.409 10.809c0 0-11.214-1.3511 2.702-10.809 13.917-9.45788 14.728-7.97161 14.728-7.97161s4.323-.27022 5.539-1.75646 16.754-6.35026 21.618 7.02583c.139 2.56524.139 5.13614 0 7.70144 2.446 5.9388 3.374 12.3931 2.702 18.7805 0 0-9.052 2.7023-15.267-3.1076 0 0-2.702-11.4845-7.972-2.9724 0 0-5.555 4.1885-7.641-17.6997z" fill="#fdfbf5"/><path d="m316.631 37.3639c.291-.2756.513-.6154.648-.9923.139-.3531.257-.714.352-1.081l.317-1.1575c.108-.4221.255-.8332.44-1.2278.358.8358.42 1.7693.175 2.6451-.124.4561-.349.8787-.657 1.2374-.148.1945-.342.3491-.564.4497-.223.1006-.467.1441-.711.1264zm1.757 21.2728c-.142-.4708-.347-.9197-.611-1.3343-.264-.379-.565-.7312-.898-1.0513-.659-.6762-1.432-1.264-2.198-2.0323.54.0314 1.069.1734 1.552.4173.494.232.944.5471 1.331.9315.404.397.711.8826.895 1.4186.184.5397.158 1.1286-.071 1.6505zm15.267-22.6239c.466.7724.974 1.5192 1.52 2.2371.511.6843 1.046 1.3243 1.593 1.9646.55.6381 1.131 1.2593 1.719 1.9146.294.3273.599.6553.894 1.0092.323.3512.622.7242.895 1.1163-.484-.065-.961-.1746-1.425-.3271-.449-.1717-.887-.374-1.309-.6054-.843-.4854-1.6-1.1081-2.238-1.8424-.648-.7458-1.149-1.6068-1.479-2.5381-.354-.936-.413-1.9581-.17-2.9288zm-66.74 131.1062c-.11-.784-.407-1.531-.868-2.175-.46-.645-1.07-1.168-1.777-1.525-1.393-.776-2.92-1.285-4.501-1.499-3.165-.425-6.37-.476-9.548-.152-1.593.129-3.196.233-4.712.505-.366.06-.729.14-1.086.238-.256.062-.5.166-.721.308.018-.03.033-.061.046-.094.022-.072.023-.149.001-.221-.033-.07.009.031.103.114.252.221.528.411.824.568 1.347.738 2.802 1.262 4.31 1.553 1.563.258 3.146.367 4.729.326l.059.001c.063.001.125.02.177.055.536.28.96.735 1.203 1.288.059.183.071.378.032.566-.038.188-.125.362-.251.507-.2.22-.442.399-.71.526-.474.237-.987.385-1.513.437-.501.068-.994.088-1.485.116-1.964.09-3.914.061-5.865.044-3.902-.055-7.798-.108-11.703-.233l.101-.001c-.356.064-.694.203-.993.407-.12.082-.224.187-.303.309s-.134.258-.159.402c-.016.748.219 1.479.668 2.078.099.157.136.344.106.527-.031.183-.129.348-.274.463l-.068.054c-.232.184-.408.43-.509.709-.032.119-.039.244-.019.366.019.121.063.238.13.341.459.625 1.061 1.129 1.756 1.47l.236 1.348c-.031.066-.058.134-.08.204-.018.075-.023.153-.014.23.047.197.156.374.311.505.502.425 1.083.749 1.708.953l.594 1.093c.009-.03 0 .141.021.221.018.104.049.205.093.301.099.212.244.4.423.55.212.181.447.332.699.451.288.125.584.231.886.316l-.241-.038 4.952.158c1.651.048 3.301.138 4.951.212l2.446.13c.783-.009 1.566-.059 2.344-.152.797-.088 1.596-.205 2.381-.351.741-.119 1.469-.309 2.174-.567l.083-.034.034-.012c2.262-.653 4.531-1.282 6.808-1.889l6.816-1.866-.152.466c-.549-.815-1.043-1.648-1.535-2.488-.492-.838-.956-1.693-1.375-2.57-.431-.872-.809-1.77-1.133-2.687-.336-.921-.542-1.884-.61-2.862zm.193.001c.084.953.3 1.889.642 2.782.326.905.721 1.783 1.181 2.628.904 1.698 1.949 3.317 3.124 4.839.029.037.048.08.057.126.008.045.006.092-.007.137-.012.044-.035.085-.067.12-.031.034-.07.06-.114.076l-.02.008-6.629 2.445c-2.206.829-4.418 1.637-6.637 2.423l.116-.046c-.832.349-1.698.609-2.585.776-.834.179-1.667.324-2.509.44-.86.127-1.726.198-2.595.211-.247.001-.494-.013-.74-.041l-.524-.011-1.239-.032c-1.651-.044-3.303-.073-4.953-.144l-4.951-.198-.029-.001c-.072-.003-.143-.016-.212-.037-.415-.127-.82-.285-1.211-.473-.42-.21-.808-.479-1.154-.796-.38-.349-.68-.775-.879-1.251-.102-.248-.172-.509-.209-.775-.043-.297-.037-.6.017-.896l.594 1.093c-.879-.317-1.682-.813-2.359-1.457-.425-.422-.7-.971-.782-1.564-.068-.649.123-1.298.531-1.807l.236 1.348c-.979-.514-1.796-1.288-2.362-2.238-.16-.307-.255-.643-.281-.987-.026-.345.019-.692.131-1.019.229-.604.64-1.121 1.175-1.482l-.235 1.043c-.26-.454-.47-.934-.626-1.433-.185-.567-.215-1.174-.087-1.757.163-.625.564-1.163 1.117-1.498.489-.295 1.039-.474 1.608-.526h.009c.031-.004.062-.004.093-.001 3.865.381 7.748.727 11.632.848 1.941.059 3.888.07 5.813-.06.925-.008 1.838-.209 2.68-.591.17-.086.32-.208.439-.357.036-.039.059-.088.066-.141s-.003-.106-.028-.154c-.206-.315-.499-.563-.844-.714l.235.055c-1.646.166-3.305.173-4.952.02-1.697-.183-3.348-.663-4.879-1.417-.428-.206-.828-.465-1.193-.769-.273-.227-.48-.523-.6-.857-.083-.266-.082-.551.004-.816.075-.225.204-.43.376-.594.415-.357.908-.612 1.439-.744.421-.121.848-.219 1.279-.295 1.637-.244 3.289-.368 4.944-.372 3.287-.085 6.571.262 9.767 1.035 1.601.394 3.128 1.044 4.523 1.923.721.412 1.336.986 1.798 1.675.463.69.759 1.477.866 2.3z" fill="#fdfbf5"/><path d="m251.641 172.603c-3.197.655-6.453.977-9.716.96-1.636.006-3.271-.098-4.893-.312-1.636-.172-3.233-.607-4.731-1.287 1.582.314 3.188.493 4.801.535 1.605.07 3.213.108 4.825.097 3.225.018 6.452-.067 9.714.007zm-17.993 3.668c2.829-.048 5.619.15 8.406.346l4.172.334c.695.056 1.39.108 2.084.14.693.068 1.393.048 2.082-.059-1.34.487-2.76.716-4.185.674-1.414.043-2.822-.026-4.225-.124-2.811-.197-5.599-.636-8.334-1.311zm2.268 3.359c2.344-.238 4.703-.295 7.055-.169 2.347.082 4.684.348 6.99.797-4.689.435-9.414.224-14.045-.628z" fill="#fdfbf5"/><path d="m317.238 130.582-.232.465v-.252c.077-.068.155-.145.232-.213zm21.572 22.907-.262.329c.03-.068.049-.126.078-.193.058-.049.126-.087.184-.136z" fill="#fff"/><g fill="#fdfbf5"><path d="m367.947 188.042 1.232 7.042c.407 2.349.686 4.718 1.035 7.078.18 1.18.32 2.364.439 3.552l.378 3.56c.248 2.375.343 4.764.522 7.147.239 4.788.178 9.585-.183 14.365-.208 2.406-.583 4.795-1.123 7.15-.266 1.192-.609 2.365-1.027 3.513-.207.586-.447 1.159-.72 1.717-.132.29-.28.571-.445.843-.169.307-.366.597-.587.868l.202-.568c.557 9.592 1.22 19.179 1.689 28.776l.755 14.392.651 14.399c.454 9.598.814 19.201 1.344 28.794l.75 14.393.86 14.387c.002.059-.01.118-.036.172-1.123 2.323-2.679 4.41-4.586 6.149-.066.06-.152.093-.241.094h-.008-.009l.248-.094c-1.07.935-2.24 1.748-3.488 2.427-1.264.648-2.591 1.165-3.961 1.543-2.747.695-5.588.944-8.414.735-2.81-.188-5.593-.663-8.307-1.416-2.724-.732-5.379-1.697-7.938-2.883-.114-.054-.211-.139-.28-.245-.068-.107-.105-.231-.106-.357v-.028l-.074-9.726 1.038.736c-.98.351-2 .576-3.036.671l-.055.003h-.012-.01l.063-.002c-3.099.175-6.176-.605-8.817-2.236-.127-.074-.232-.18-.306-.308-.074-.127-.113-.271-.115-.419v-.013-.009l.42.739c-.332-.196-.658-.403-.977-.62l-.475-.339c-.16-.121-.303-.23-.48-.379-.17-.143-.276-.348-.296-.569l-.002-.019-3.377-38.976-3.163-38.994-2.92-39.015-1.382-19.513-1.283-19.522c-.001-.025.007-.05.023-.07.017-.019.04-.031.066-.033.025-.002.05.006.07.022.019.016.032.04.034.065l1.942 19.467 1.844 19.476 3.529 38.964 3.288 38.983 3.073 39.002-.298-.588.381.304.417.305c.283.198.573.389.87.57l.012.007c.125.076.229.184.3.312.072.129.109.274.108.421v.009l-.421-.74c2.326 1.488 5.051 2.228 7.81 2.119h.012l.05-.002h.01l-.067.003c.904-.071 1.796-.255 2.654-.548l.012-.004c.096-.033.198-.047.3-.04.101.006.201.033.292.077.092.045.174.108.241.184.067.077.119.166.152.262.028.083.042.17.041.257l-.073 9.726-.387-.63c2.456 1.2 5.01 2.188 7.634 2.953 2.622.789 5.318 1.308 8.046 1.549 2.716.252 5.455.065 8.111-.555 1.314-.337 2.59-.806 3.808-1.402 1.203-.627 2.334-1.383 3.372-2.255l.011-.009c.067-.056.151-.086.238-.085h.009l-.248.094c1.862-1.651 3.382-3.653 4.472-5.89l-.035.171-.762-14.392-.871-14.386c-.55-9.592-1.271-19.175-1.898-28.763l-.97-14.381-.865-14.386c-.612-9.589-1.03-19.189-1.553-28.783-.01-.182.044-.361.154-.506l.048-.062c.311-.421.579-.871.801-1.345.254-.509.479-1.034.672-1.569.407-1.087.742-2.199 1.003-3.33.535-2.287.928-4.604 1.176-6.94.456-4.713.617-9.449.482-14.182-.177-4.743-.497-9.482-.959-14.218-.27-2.362-.469-4.735-.797-7.092l-.942-7.079c-.002-.013-.001-.026.002-.038s.008-.024.015-.034c.008-.011.017-.019.028-.026s.023-.011.035-.013c.026-.004.051.003.071.017.021.015.035.037.04.062z"/><path d="m322.313 198.335c.841 6.542 1.56 13.095 2.343 19.642l2.142 19.66c1.408 13.109 2.642 26.234 3.972 39.351 1.174 13.131 2.431 26.254 3.527 39.393l1.605 19.711c.464 6.578.995 13.149 1.401 19.731-.843-6.541-1.561-13.094-2.346-19.641l-2.143-19.66c-1.402-13.109-2.644-26.234-3.968-39.351-1.169-13.132-2.433-26.254-3.523-39.393l-1.606-19.712c-.466-6.577-.997-13.148-1.404-19.731zm37.375-7.623c.469 1.623.849 3.257 1.185 4.896.341 1.639.649 3.282.907 4.931.281 1.646.495 3.3.721 4.953.193 1.657.404 3.312.543 4.976l-.382-.624c.716.533 1.447 1.043 2.149 1.596.705.549 1.423 1.078 2.114 1.647 1.399 1.113 2.769 2.269 4.086 3.503-1.632-.77-3.212-1.618-4.761-2.509-.784-.433-1.541-.905-2.31-1.359-.773-.449-1.516-.941-2.275-1.41-.097-.06-.18-.14-.244-.235-.063-.094-.106-.201-.125-.313l-.013-.076c-.273-1.648-.475-3.304-.694-4.957-.186-1.658-.385-3.315-.517-4.98-.154-1.661-.259-3.33-.33-5.002-.077-1.672-.109-3.349-.054-5.037zm-17.284 4.688c.817 7.257 1.511 14.524 2.271 21.785l2.069 21.802c1.359 14.536 2.545 29.087 3.826 43.63 1.125 14.555 2.333 29.104 3.379 43.666l1.532 21.846c.44 7.288.946 14.57 1.328 21.863-.819-7.257-1.513-14.523-2.274-21.785l-2.069-21.802c-1.355-14.536-2.547-29.086-3.823-43.63-1.12-14.556-2.335-29.104-3.376-43.666l-1.533-21.846c-.441-7.288-.947-14.57-1.33-21.863zm-52.714-166.1343c.54-.3788 1.139-.6653 1.773-.8478.63-.1944 1.281-.3103 1.94-.3452.668-.0291 1.338.0426 1.985.2126.652.1734 1.249.5109 1.734.9804-.615-.1148-1.236-.1936-1.861-.236-.607-.0202-1.208-.0212-1.815.0093-1.22.0484-2.436.1942-3.756.2267zm4.985 5.0916c.376-.0131.733-.1717.995-.4425.261-.2708.407-.6327.407-1.0092s-.146-.7383-.407-1.0092c-.262-.2708-.619-.4294-.995-.4424-.376.013-.733.1716-.994.4424-.262.2709-.408.6327-.408 1.0092s.146.7384.408 1.0092c.261.2708.618.4294.994.4425zm11.608 15.7387c-.003.9527-.366 1.8691-1.017 2.5647-.651.6957-1.541 1.119-2.492 1.1848-.752.0502-1.502-.1271-2.153-.5088-.65-.3818-1.171-.9504-1.494-1.6319s-.433-1.4444-.317-2.1896c.116-.7451.454-1.4381.969-1.9888.516-.5506 1.185-.9336 1.92-1.099.736-.1654 1.505-.1057 2.206.1714.702.2772 1.303.7589 1.728 1.3825.424.6237.65 1.3605.65 2.1147zm0 0c.002-.4502-.09-.8958-.269-1.3089s-.442-.7846-.771-1.0914c-.33-.3067-.719-.5419-1.144-.6908s-.876-.2083-1.325-.1744c-.52.0381-1.023.1998-1.468.4717s-.818.646-1.09 1.0913c-.271.4453-.432.9489-.469 1.469-.037.52.05 1.0415.255 1.521.204.4795.521.9032.922 1.2358.402.3327.877.5647 1.386.6768s1.038.101 1.542-.0323c.504-.1334.969-.3851 1.356-.7343.337-.3098.606-.6859.791-1.1046s.282-.8711.284-1.3289zm-169.36 32.9491c-.12-.0036-.24-.0133-.359-.029.03-.0661.056-.134.078-.2033zm13.142-11.6713c.032-1.1525-.105-2.3035-.407-3.4162l.494.3774c.039 1.0137.01 2.0289-.087 3.0388zm-1.636 24.6008c.155 1.6258.291 3.2517.397 4.8774l-.842-9.3873c.184 1.5001.3 3.0002.445 4.5099z"/><path d="m156.888 76.1255c-.261-1.5581-.774-3.242-6.678-7.7518.195 1.404.26 2.8229.194 4.2388-.068 1.5581-.232 3.1065-.445 4.655-.194 1.5484-.513 3.0775-.833 4.6066-.3 1.4033-.677 2.7872-1.045 4.1808-.019.0581-.029.1064-.048.1645.044.1099.08.2231.106.3387.01 0 .01.0097.01.0194.019.0387.029.0871.048.1355.049.2129.107.4161.145.629.088.4065.155.813.213 1.2291.126.813.223 1.6355.31 2.4484.145 1.6355.271 3.2711.329 4.9066.058 1.6356.097 3.2711.116 4.9069 0 1.626 0 3.261-.058 4.897 7.771 1.742 14.333-3.62 14.333-3.62zm-5.042 28.5975c-.376-.013-.732-.172-.994-.443-.261-.271-.407-.632-.407-1.008 0-.377.146-.738.407-1.009.262-.271.618-.43.994-.443.376.013.732.172.993.443s.407.632.407 1.009c0 .376-.146.737-.407 1.008s-.617.43-.993.443zm4.761-.929c-.376-.013-.732-.172-.993-.443-.262-.271-.408-.632-.408-1.009 0-.376.146-.737.408-1.008.261-.271.617-.43.993-.443.376.013.732.172.994.443.261.271.407.632.407 1.008 0 .377-.146.738-.407 1.009-.262.271-.618.43-.994.443zm4.878-1.626c-.376-.013-.732-.172-.994-.443-.261-.271-.407-.632-.407-1.008 0-.377.146-.7383.407-1.0091.262-.2707.618-.4295.994-.443.376.0135.732.1723.993.443.262.2708.408.6321.408 1.0091 0 .376-.146.737-.408 1.008-.261.271-.617.43-.993.443zm-21.346-53.5067c.343 1.4435.497 2.8471.703 4.2344.097.6925.217 1.3742.36 2.045.118.6859.397 1.3343.812 1.8926-.352-.1574-.668-.3843-.93-.6669s-.465-.6152-.595-.9779c-.295-.6883-.498-1.4125-.604-2.1539-.218-1.4597-.132-2.9487.254-4.3733zm19.559 1.1837c.376-.013.733-.1716.995-.4424.261-.2708.407-.6327.407-1.0092 0-.3766-.146-.7384-.407-1.0092-.262-.2709-.619-.4295-.995-.4425-.376.013-.733.1716-.994.4425-.262.2708-.408.6326-.408 1.0092 0 .3765.146.7384.408 1.0092.261.2708.618.4294.994.4424zm-17.684-7.053c.377-.013.733-.1717.995-.4425.261-.2708.408-.6326.408-1.0092 0-.3765-.147-.7383-.408-1.0091-.262-.2708-.618-.4295-.995-.4425-.376.013-.733.1717-.994.4425-.262.2708-.408.6326-.408 1.0091 0 .3766.146.7384.408 1.0092.261.2708.618.4295.994.4425zm20.261 12.8451c.282-.0097.549-.1287.745-.3318.197-.2031.306-.4745.306-.7569s-.109-.5538-.306-.7569c-.196-.2031-.463-.3221-.745-.3318-.283.0097-.55.1287-.746.3318-.197.2031-.306.4745-.306.7569s.109.5538.306.7569c.196.2031.463.3221.746.3318zm-6.596 1.1963c.746.6063 1.316 1.2077 1.935 1.7445.303.2717.619.5093.948.7511.367.2372.746.4543 1.136.6504-.465.1693-.973.1824-1.447.0375-.469-.1472-.903-.3896-1.275-.712-.355-.32-.654-.6978-.883-1.1174-.238-.4144-.38-.8773-.414-1.3541zm1.206-13.1289c.612-.0872 1.235-.0695 1.841.0525.609.1081 1.201.2967 1.76.5608.574.2666 1.096.6323 1.542 1.0801.46.4465.77 1.0253.885 1.6558-.417-.4031-.874-.7624-1.364-1.0723-.477-.2932-.971-.5573-1.479-.7908-1.018-.5002-2.088-.9048-3.185-1.4861zm-31.606 67.8585c.355 6.315 1.273 12.585 2.744 18.736.387 1.508.892 2.983 1.51 4.412.531 1.392 1.429 2.613 2.6 3.534 2.544 1.877 5.124 3.715 7.705 5.546 5.179 3.638 10.453 7.145 15.887 10.355 2.724 1.592 5.457 3.163 8.275 4.542 2.749 1.433 5.669 2.509 8.69 3.202l-.131-.011c1.34.011 2.702-.008 4.037-.086.666-.042 1.334-.095 1.968-.192.291-.04.579-.105.859-.196l.09-.028.148-.057c.097-.041.197-.074.298-.102.199-.056.401-.098.606-.124.748-.062 1.501-.012 2.234.15.695.131 1.362.293 2.027.448 1.328.32 2.632.594 3.979.832 1.341.246 2.689.484 4.036.772 1.394.239 2.75.66 4.034 1.252.189.107.36.243.507.402.095.11.167.239.209.379.026.094.046.19.061.287.068.354.109.714.123 1.075.05.772-.162 1.539-.601 2.177-.468.598-1.101 1.046-1.82 1.291-.673.236-1.373.388-2.084.453-1.373.113-2.751.157-4.129.131-.683-.004-1.368-.026-2.027.004-.66.037-1.312.131-1.369.65-.026.143-.035.289-.027.434.006.126.041.25.103.36.157.262.36.493.6.682.519.41 1.079.768 1.67 1.067 1.204.613 2.446 1.151 3.718 1.609 1.256.496 2.55.889 3.869 1.178 1.316.305 2.647.535 3.989.687.324.033.65.046.976.038.371-.029.745-.006 1.11.069.771.147 1.461.57 1.942 1.189.25.345.387.758.394 1.183-.008.41-.115.813-.313 1.172-.377.642-.878 1.201-1.475 1.646l.082-.617c.312.422.565.884.752 1.374.205.512.292 1.064.253 1.615-.054.591-.312 1.145-.729 1.568-.396.383-.866.681-1.381.876l.309-.61c.126.498.163 1.015.109 1.525-.051.545-.249 1.065-.575 1.504-.345.438-.813.763-1.344.933-.483.158-.988.239-1.496.237-.03.001-.059-.001-.088-.006l-.019-.004-3.626-.619.564-1.072c.269.267.501.57.69.899.111.195.193.405.242.624.07.305.029.625-.115.903-.139.219-.326.404-.548.54-.221.136-.47.22-.728.246-.36.058-.724.08-1.089.067-.049 0-.098-.008-.146-.021l-.021-.006c-1.92-.551-3.788-1.179-5.655-1.85-1.862-.676-3.713-1.387-5.536-2.176-3.718-1.51-7.237-3.473-10.474-5.845l.176.109c-8.407-3.869-16.862-7.762-25.394-11.198-.533-.219-1.062-.395-1.593-.595-.269-.104-.514-.16-.771-.244l-.85-.257c-1.197-.386-2.261-.825-3.347-1.281-2.158-.909-4.277-1.87-6.389-2.847-4.215-1.97-8.398-3.997-12.529-6.136-2.063-1.075-4.112-2.176-6.149-3.305-2.122-1.092-4.098-2.445-5.883-4.028-3.586-3.201-6.206-7.341-7.562-11.953-2.3896-9.003-3.9371-18.208-4.6222-27.498-.0012-.012.0002-.025.0039-.037.0038-.012.0099-.024.018-.033.0082-.01.0181-.018.0294-.024.0112-.006.0235-.01.0362-.011.025-.002.0498.006.0693.022.0195.015.0323.038.0357.063.6342 4.592 1.4291 9.162 2.3546 13.696.8701 4.533 1.9921 9.014 3.3621 13.422 1.398 4.307 3.945 8.15 7.366 11.115 1.718 1.466 3.614 2.709 5.643 3.7 2.039 1.084 4.095 2.139 6.168 3.166 4.13 2.079 8.293 4.104 12.492 6.037 2.101.962 4.211 1.908 6.331 2.791 1.053.439 2.14.874 3.151 1.195l.816.244c.295.092.615.173.888.277.555.206 1.128.395 1.668.615 4.372 1.698 8.572 3.661 12.807 5.576 4.221 1.938 8.427 3.906 12.616 5.904.06.028.116.063.168.103l.008.007c3.101 2.306 6.46 4.242 10.009 5.77 3.564 1.591 7.212 2.989 10.928 4.186l-.168-.028c.27.018.54.011.808-.022.247-.02.397-.146.339-.086-.01.104.019-.071-.104-.281-.123-.224-.273-.431-.447-.618l-.023-.024c-.09-.098-.148-.222-.164-.355-.015-.132.011-.266.077-.383.065-.116.165-.209.286-.265.122-.056.257-.072.388-.046l3.608.721-.106-.01c.36.041.725.001 1.068-.116s.655-.31.915-.563c.214-.277.347-.608.385-.956.048-.377.031-.76-.048-1.132l-.008-.034c-.026-.118-.008-.242.051-.348.058-.106.153-.187.267-.228.381-.089.728-.287.999-.569.272-.282.456-.636.531-1.02.02-.849-.248-1.679-.76-2.356l-.014-.02c-.063-.093-.089-.207-.071-.317.018-.111.078-.211.167-.279.511-.36.947-.816 1.281-1.344.152-.222.234-.484.236-.753s-.077-.533-.226-.757c-.362-.473-.88-.8-1.462-.922-.303-.071-.615-.093-.924-.067-.357.007-.714-.01-1.068-.05-1.37-.166-2.729-.412-4.07-.737-.679-.142-1.348-.323-2.006-.542-.651-.22-1.297-.452-1.939-.696-1.292-.479-2.553-1.039-3.776-1.676-.625-.324-1.215-.709-1.763-1.151-.299-.233-.552-.519-.747-.844-.106-.188-.167-.398-.18-.614-.013-.195-.001-.392.033-.584.04-.22.138-.425.284-.593.145-.169.334-.296.545-.368.354-.118.723-.184 1.096-.196.704-.04 1.385-.025 2.066-.029 1.357-.002 2.721-.041 4.05-.176.632-.012 1.256-.15 1.834-.405s1.1-.622 1.536-1.08c.336-.502.487-1.104.428-1.704-.023-.321-.07-.64-.14-.953-.013-.072-.029-.143-.051-.212 0 0-.02-.03-.043-.061-.091-.085-.194-.158-.305-.216-1.218-.502-2.495-.849-3.799-1.034-1.332-.242-2.678-.439-4.029-.644-1.349-.197-2.725-.441-4.06-.723-1.244-.339-2.531-.495-3.821-.461-.133.021-.264.053-.393.093-.063.018-.124.041-.183.069l-.241.095c-.364.136-.74.237-1.123.301-.712.13-1.405.204-2.099.268-1.387.122-2.756.181-4.145.21-.036.001-.072-.001-.108-.007l-.023-.004c-1.613-.293-3.194-.742-4.721-1.34-1.52-.559-2.986-1.221-4.436-1.908-2.885-1.4-5.705-2.911-8.424-4.579-5.455-3.309-10.715-6.895-15.876-10.61-2.584-1.854-5.126-3.765-7.625-5.734-.347-.258-.669-.548-.962-.866-.285-.322-.543-.666-.775-1.028-.447-.699-.829-1.438-1.141-2.206-.601-1.502-1.083-3.048-1.441-4.625-.704-3.115-1.189-6.275-1.453-9.458-.294-3.169-.472-6.344-.488-9.523 0-.025.01-.05.028-.068s.042-.029.068-.029c.025 0 .049.01.066.027.018.017.029.04.031.065z"/><path d="m160.638 103.959c1.897 4.152 3.908 8.219 5.974 12.257 2.091 4.023 4.203 8.03 6.461 11.957 1.112 1.972 2.239 3.938 3.407 5.878l1.736 2.923 1.782 2.896c2.359 3.878 4.861 7.663 7.273 11.548-3.062-3.393-5.912-6.972-8.533-10.715-2.641-3.734-5.094-7.598-7.349-11.577-2.253-3.982-4.301-8.076-6.136-12.266-1.875-4.172-3.418-8.486-4.615-12.901zm-17.169 14.498c2.622 3.359 5.186 6.749 7.694 10.172 2.524 3.413 5.001 6.855 7.491 10.283 2.494 3.426 4.981 6.854 7.525 10.23 1.277 1.684 2.555 3.365 3.898 4.987.662.819 1.348 1.613 2.057 2.384.681.777 1.441 1.481 2.268 2.099l.036.024c.038.026.068.063.086.105.524 1.265 1.041 2.533 1.525 3.818-.713-1.173-1.39-2.364-2.061-3.557l.121.129c-1.856-1.132-3.536-2.53-4.988-4.148-1.48-1.552-2.905-3.148-4.259-4.797-2.723-3.289-5.288-6.692-7.756-10.16-2.469-3.467-4.846-6.995-7.13-10.585-2.286-3.586-4.467-7.243-6.507-10.984zm42.754 60.421c2.656.669 5.243 1.407 7.859 2.038 1.306.318 2.617.597 3.936.857 1.323.229 2.648.445 4.014.588-2.732.384-5.514.212-8.178-.505-2.669-.635-5.237-1.637-7.631-2.978zm-1.395 3.501c1.334.531 2.667 1.021 3.992 1.515 1.331.478 2.662.941 4.008 1.348 1.341.43 2.705.763 4.074 1.086 1.376.301 2.765.529 4.192.722-1.432.191-2.883.199-4.317.023-1.434-.178-2.85-.481-4.232-.906-2.763-.829-5.371-2.109-7.717-3.788zm-1.105 2.337c1.884.738 3.728 1.573 5.525 2.502l2.681 1.356c.898.445 1.784.899 2.734 1.289-1.033-.032-2.054-.232-3.023-.591-.968-.33-1.912-.727-2.825-1.189-1.834-.901-3.545-2.033-5.092-3.367zm-46.442-50.506c.215 1.356.249 2.735.101 4.101-.106 1.369-.396 2.718-.861 4.01-.217-1.356-.251-2.735-.102-4.1.109-1.369.398-2.718.862-4.011zm-3.117-83.9522c-3.353 1.9514-6.824 3.693-10.393 5.2149-3.532 1.5807-7.107 3.0534-10.696 4.4857-7.205 2.43-13.1756 7.4908-18.1941 13.3214-4.9788 5.8896-8.8101 12.6453-12.3526 19.4602-1.7771 3.4116-3.4846 6.857-5.1226 10.336-.8124 1.743-1.6015 3.495-2.3672 5.258-.7816 1.75-1.5499 3.524-2.2602 5.283l.0628-.53c-.0209-.111-.0088-.051-.0099-.057 0 0 .0141.035.0205.053.0191.052.0433.103.0723.151.0652.121.1376.238.2169.351.1843.254.3862.495.6043.721.4724.482.9724.936 1.4975 1.36 1.1013.877 2.2614 1.678 3.4719 2.398 1.2262.722 2.4513 1.476 3.7265 2.146l3.8253 2.06c.0229.011.0402.032.048.056.0079.025.0056.052-.0062.075-.0106.019-.0275.035-.0481.044-.0205.009-.0434.01-.065.004-1.3996-.4-2.7982-.822-4.1631-1.341-1.3632-.519-2.7319-1.053-4.0505-1.709-1.3384-.654-2.6303-1.399-3.8667-2.23-.6385-.436-1.2377-.927-1.7908-1.468-.2947-.284-.569-.589-.8207-.913-.1361-.178-.261-.364-.374-.558-.0656-.107-.1234-.218-.1729-.333-.0311-.064-.0585-.13-.0819-.198-.0386-.102-.0672-.209-.0856-.317-.0308-.168-.0134-.342.0504-.501l.0124-.03c1.4683-3.624 3.0947-7.131 4.8341-10.604 1.7242-3.4743 3.5447-6.9012 5.5117-10.2446 3.9648-6.6633 8.3735-13.0522 13.1962-19.1235 2.3757-3.0912 5.0202-5.9662 7.9023-8.5914 1.47-1.3233 3.065-2.4995 4.764-3.5117 1.719-.9699 3.524-1.7775 5.392-2.4125l10.827-4.0908 5.417-2.0345c1.803-.6741 3.622-1.3586 5.36-2.1414l.018-.0081c.023-.01.048-.0111.071-.0032s.042.0243.053.0458c.012.0216.015.0467.008.0702-.006.0235-.021.0436-.042.0564zm-66.0278 74.2932c-1.4435 1.766-2.7546 3.636-3.9226 5.595l-1.7232 2.958-1.5939 3.029c-.5485 1-.9867 2.058-1.4852 3.084-.4695 1.04-1.0013 2.05-1.4192 3.113l-1.3103 3.161c-.4466 1.05-.8719 2.107-1.2523 3.184l-1.1856 3.209c-.3996 1.069-.798 2.137-1.1273 3.23-.6891 2.175-1.4063 4.341-2.0721 6.522l-1.8055 6.602c-.3173 1.096-.587 2.204-.8296 3.32l-.764 3.336c-1.0886 4.432-1.8708 8.931-2.7428 13.41l-.3218 1.68-.2559 1.693-.5117 3.385-1.0197 6.77c-.4973 4.538-1.0504 9.072-1.5024 13.612l-1.0609 13.635c-.1752 4.591-.448 9.171-.8185 13.74-.3577 4.574-.8374 9.142-1.5102 13.69-.6292 4.562-1.5786 9.075-2.841 13.505-1.2172 4.407-2.3997 8.824-3.515 13.257-1.11 4.435-2.1699 8.882-3.1104 13.355l-2.7062 13.456-2.6913 13.463-2.6119 13.477-.1704-.355c8.8249 4.135 18.0854 7.267 27.6081 9.339 9.4947 2.16 19.174 3.41 28.9061 3.731 4.8594.174 9.7224.034 14.5687-.267 4.8466-.334 9.6668-.948 14.4528-1.751 9.566-1.669 18.935-4.316 27.96-7.899l-.607.894-.066-21.884.026-21.884c.024-14.589.008-29.178.116-43.767l.291-43.768c.107-14.589.305-29.178.498-43.767.001-.026.011-.05.029-.068s.043-.028.068-.028c.026 0 .05.01.068.028s.029.042.029.068c.194 14.589.391 29.178.498 43.767l.291 43.768c.108 14.589.093 29.178.116 43.767l.026 21.884-.066 21.884v.009c-.001.192-.059.378-.167.536s-.261.279-.44.349c-9.167 3.575-18.677 6.2-28.381 7.831-4.856.755-9.7417 1.307-14.6452 1.58-4.9033.239-9.8161.314-14.7176.073-9.8014-.45-19.537-1.841-29.0728-4.151-4.7599-1.156-9.4726-2.509-14.0956-4.124-4.6461-1.565-9.1881-3.425-13.5984-5.566-.0631-.033-.1139-.085-.1447-.149-.0308-.065-.0399-.137-.0258-.207 1.7993-8.973 3.5637-17.954 5.293-26.942 1.7454-8.979 3.3948-17.996 5.5069-26.916 1.0399-4.461 2.1361-8.909 3.2885-13.342 1.1734-4.396 2.0353-8.87 2.5793-13.387 1.1189-9.042 1.7663-18.17 2.0817-27.285.9681-18.344 3.5658-36.566 7.7623-54.45l.8234-3.342c.2623-1.116.5518-2.226.8891-3.324l1.9249-6.61c.7058-2.184 1.4632-4.351 2.1921-6.527.349-1.093.7676-2.162 1.1874-3.23l1.2457-3.21c.3951-1.077.8576-2.128 1.3356-3.172l1.4058-3.143c.4492-1.055 1.0132-2.059 1.514-3.091.5301-1.018.9988-2.066 1.5788-3.058l1.6863-3 1.8143-2.924c1.2304-1.94 2.6028-3.786 4.1059-5.524.017-.018.0408-.03.0663-.031.0254-.002.0504.007.0695.024.0191.016.0308.04.0325.066.0018.025-.0066.05-.0232.069z"/><path d="m70.6641 124.487c.2951-1.68.7691-3.324 1.4137-4.903.605-1.595 1.3807-3.12 2.3136-4.548-.2932 1.68-.7672 3.324-1.4138 4.903-.6069 1.594-1.3825 3.119-2.3135 4.548zm56.8319-30.2463c1.726-2.3016 3.43-4.5627 5.042-6.8802 1.598-2.3248 3.136-4.6785 4.539-7.1124 1.439-2.4131 2.736-4.9075 3.988-7.4355 1.238-2.5371 2.379-5.1279 3.551-7.756-.417 2.8529-1.142 5.6522-2.162 8.3493-2.013 5.4314-4.967 10.4661-8.725 14.874-1.858 2.2052-3.947 4.2037-6.233 5.9608z"/><path d="m68.0632 124.487c2.622.03 5.2428-.129 7.8418-.477 2.5555-.336 5.0754-.903 7.5289-1.693 2.459-.752 4.8325-1.759 7.0817-3.005 2.2904-1.273 4.4904-2.701 6.5845-4.276-1.6082 2.163-3.566 4.043-5.7929 5.562-1.1136.777-2.2831 1.47-3.4988 2.075-1.2325.573-2.4988 1.07-3.792 1.489-2.5869.824-5.2774 1.278-7.9915 1.348-2.6926.11-5.3844-.235-7.9617-1.023zm66.0428 41.157v159.847l-3.465-3.697c-.02-.022-.048-.036-.077-.038-.017-.004-.034-.005-.051-.002-.017.004-.033.011-.047.021s-.025.023-.033.038c-.009.015-.013.032-.015.049l-1.442 7.346-4.684-5.304c-.034-.038-.078-.066-.128-.081-.049-.014-.102-.014-.151 0-.05.014-.094.042-.129.08-.034.039-.057.086-.066.137l-1.51 7.558-4.461-6c-.041-.057-.098-.101-.164-.126-.047-.02-.098-.03-.149-.03s-.101.01-.148.03-.09.049-.125.085c-.036.037-.063.08-.082.128l-3.377 8.226-4.326-7.065c-.064-.093-.156-.164-.261-.203-.124-.041-.258-.031-.374.027s-.204.16-.246.283l-2.758 8.274-4.471-7.394c-.054-.097-.139-.172-.242-.213-.126-.051-.267-.05-.392.003-.125.052-.224.152-.276.278l-3.4354 8.323-4.8679-8.362c-.0438-.076-.1087-.138-.1869-.179-.0782-.04-.1664-.058-.2541-.049-.0877.008-.1712.041-.2406.095-.0693.055-.1216.128-.1506.211l-3.1066 8.535-4.2679-8.7c-.038-.078-.1034-.14-.1838-.174-.0432-.018-.0895-.028-.1364-.028s-.0933.009-.1366.027-.0825.045-.1154.078-.0588.073-.0762.117l-3.5033 8.68-3.9098-9.058c-.0257-.05-.0663-.09-.1161-.116-.0278-.015-.0584-.024-.0897-.026-.0314-.003-.063.001-.0929.011s-.0574.026-.0809.046c-.0236.021-.0426.047-.0559.075l-4.2292 8.507-3.6001-9.068c-.0058-.015-.0149-.029-.0266-.041s-.0257-.021-.0411-.027c-.0163-.009-.0345-.016-.0534-.018-.0189-.003-.038-.001-.0563.004-.0182.006-.0351.015-.0496.028-.0144.012-.0261.027-.0343.045l-4.2388 7.897-2.9614-8.614c-.0183-.056-.056-.104-.1064-.135-.0553-.029-.1198-.036-.1797-.018-.0598.019-.1101.06-.1397.115l-3.9292 6.958-2.942-7.829c-.0321-.081-.0899-.149-.1645-.194-.0432-.026-.091-.042-.1407-.05-.0497-.007-.1003-.004-.1489.009-.0486.012-.0942.035-.1342.065s-.0736.068-.0988.112l-3.5421 5.874-2.1-7.481c-.0291-.106-.0986-.196-.1936-.252-.099-.059-.2175-.077-.3298-.05s-.2094.097-.2702.196l-3.4453 5.845-1.7903-7.152c-.0253-.079-.0722-.149-.1355-.203-.0386-.032-.083-.055-.1308-.07-.0478-.014-.098-.018-.1476-.013s-.0976.021-.1412.045-.0819.057-.1127.096l-4.5098 5.449-1.5871-7.007c-.0091-.063-.0399-.122-.0871-.165-.0579-.05-.1331-.074-.2093-.069-.0761.005-.147.041-.1972.098l-4.5195 5.188-1.8775-6.881c-.0027-.03-.0166-.058-.0387-.078-.014-.011-.0301-.02-.0474-.025s-.0354-.007-.0534-.005-.0355.007-.0514.015c-.0159.009-.03.021-.0414.035l-3.8711 5.013 4.868-24.775c2.042-10.384 4.6162-20.652 7.3744-30.872 3.6678-13.52 4.4033-39.195 4.4033-39.195.7187-12.295 2.0786-24.544 4.0744-36.698l.3677-2.148s48.0305-2.294 68.9541-35.043z"/><path d="m34.6479 327.601c-1.8774-.542-3.755-1.132-5.6131-1.752l4.2582-4.742zm1.8485.542c-.2226-.068-.4452-.126-.6678-.194l4.1033-4.897 1.5872 6.494c-1.6742-.445-3.3581-.91-5.0227-1.403zm11.2938 3c-1.6451-.397-3.2839-.807-4.9162-1.229l3.0968-5.158zm2.7002.639c-.3969-.088-.7936-.184-1.1904-.281l3.1356-5.294 2.5936 6.552c-1.5194-.31-3.0291-.639-4.5388-.977zm12.039 2.38c-2.0226-.338-4.0388-.709-6.0485-1.113l3.4162-6.29zm2.1388.339c-.3193-.048-.6387-.097-.9581-.155l3.755-7.094 3.1356 8.091c-1.984-.252-3.9615-.532-5.9325-.842zm14.3134 1.684c-2.371-.155-4.7421-.397-7.1132-.678l3.7744-7.442 3.4065 8.12zm8.3518.406c-2.2743-.048-4.5485-.145-6.8228-.309l3.1356-7.481zm6.0389-.009c-1.4323.038-2.8646.048-4.2969.029l2.7678-7.433 4.2002 7.307c-.8904.039-1.7807.077-2.6711.097zm11.6037-.852c-2.303.281-4.616.494-6.939.639l2.981-7.152zm2.729-.358c-.3.039-.61.087-.91.126l2.4-7.249 3.842 6.146c-1.771.367-3.548.693-5.332.977zm14.033-3.223c-2.313.716-4.652 1.339-7.017 1.868l2.923-7.413 4.21 5.507c-.039.009-.078.029-.116.038zm6.958-2.584c-1.887.804-3.803 1.539-5.749 2.188l1.317-7.065zm-100.416-3.958c-1.8485-.609-3.6872-1.258-5.5163-1.926l3.8904-4.761zm105.826.078v1.393c-1.549.774-3.107 1.5-4.694 2.178l1.22-7.104z"/><path d="m129.307 329.817c-.022.032-.051.058-.084.076-.034.019-.071.029-.11.031h-.009c-2.294 1.151-4.665 2.187-7.065 3.126-4.585 1.639-9.294 2.911-14.081 3.803-4.803.838-9.6553 1.359-14.5264 1.558-4.8664.155-9.7376.058-14.594-.29-9.6921-.785-19.2969-2.417-28.7041-4.878-7.3173-1.876-14.5039-4.23-21.5136-7.045h-.0097c-.054-.001-.1059-.021-.1451-.058l-.0097-.01c-1.9162-.774-3.813-1.59-5.6905-2.448l-.0097.009c-.0017.005-.0044.009-.0078.012-.0035.004-.0076.007-.0121.008-.0046.002-.0095.003-.0144.003-.0048 0-.0097-.001-.0141-.003l-2.6033 13.248s53.3243 27.863 114.0035 3.755v-13.539c-1.558.949-3.165 1.829-4.8 2.642zm-104.684 6.416c-.3761-.013-.7322-.172-.9935-.443-.2613-.27-.4073-.632-.4073-1.008s.146-.738.4073-1.009.6174-.429.9935-.443c.376.014.7322.172.9934.443.2613.271.4073.633.4073 1.009s-.146.738-.4073 1.008c-.2612.271-.6174.43-.9934.443zm7.4906 2.962c-.3761-.014-.7323-.172-.9937-.443-.2613-.271-.4073-.632-.4073-1.009 0-.376.146-.738.4073-1.009.2614-.27.6176-.429.9937-.442.3761.013.7323.172.9936.442.2614.271.4074.633.4074 1.009 0 .377-.146.738-.4074 1.009-.2613.271-.6175.429-.9936.443zm8.0131 2.961c-.3761-.013-.7322-.172-.9936-.443-.2613-.27-.4073-.632-.4073-1.008 0-.377.146-.738.4073-1.009.2614-.271.6175-.43.9936-.443.3761.013.7322.172.9936.443.2613.271.4073.632.4073 1.009 0 .376-.146.738-.4073 1.008-.2614.271-.6175.43-.9936.443zm8.3616 2.613c-.3761-.013-.7323-.172-.9936-.443s-.4073-.632-.4073-1.008c0-.377.146-.738.4073-1.009s.6175-.43.9936-.443c.376.013.7322.172.9935.443s.4073.632.4073 1.009c0 .376-.146.737-.4073 1.008s-.6175.43-.9935.443zm8.8841 1.742c-.376-.013-.7322-.172-.9935-.443-.2612-.271-.4073-.632-.4073-1.008 0-.377.1461-.738.4073-1.009.2613-.271.6175-.43.9935-.443.3761.013.7324.172.9937.443.2614.271.4075.632.4075 1.009 0 .376-.1461.738-.4075 1.008-.2613.271-.6176.43-.9937.443zm9.0584 1.045c-.3761-.013-.7322-.172-.9935-.443-.2613-.27-.4073-.632-.4073-1.008 0-.377.146-.738.4073-1.009s.6174-.429.9935-.443c.376.014.7322.172.9934.443.2613.271.4073.632.4073 1.009 0 .376-.146.738-.4073 1.008-.2612.271-.6174.43-.9934.443zm9.2325.523c-.376-.013-.7322-.172-.9935-.443s-.4073-.632-.4073-1.009c0-.376.146-.738.4073-1.008.2613-.271.6175-.43.9935-.443.3762.013.7325.172.9939.443.2614.27.4074.632.4074 1.008 0 .377-.1461.738-.4075 1.009s-.6177.43-.9938.443zm9.9293 0c-.376-.013-.7322-.172-.9935-.443s-.4074-.632-.4074-1.009c0-.376.1461-.738.4074-1.008.2613-.271.6175-.43.9935-.443.3762.013.7325.172.9939.443.2613.27.4074.632.4074 1.008 0 .377-.1461.738-.4075 1.009s-.6177.43-.9938.443zm10.8004 0c-.376-.013-.7322-.172-.9935-.443s-.4074-.632-.4074-1.009c0-.376.1461-.738.4074-1.008.2613-.271.6175-.43.9935-.443.3762.013.7324.172.9938.443.2614.27.4075.632.4075 1.008 0 .377-.1461.738-.4075 1.009s-.6177.43-.9938.443zm9.581-1.045c-.376-.014-.732-.172-.994-.443-.261-.271-.407-.633-.407-1.009s.146-.738.407-1.009c.262-.27.618-.429.994-.443.376.014.732.173.994.443.261.271.407.633.407 1.009 0 .377-.146.738-.407 1.009-.262.271-.618.43-.994.443zm10.103-2.265c-.376-.013-.732-.172-.993-.443s-.407-.632-.407-1.008c0-.377.146-.738.407-1.009s.617-.43.993-.443c.377.013.733.172.994.443.262.271.408.632.408 1.009 0 .376-.146.738-.408 1.008-.261.271-.617.43-.994.443zm8.014-2.264c-.376-.014-.733-.173-.994-.443-.261-.271-.407-.633-.407-1.009s.146-.738.407-1.009c.261-.27.618-.429.994-.443.376.014.732.172.993.443.262.271.408.633.408 1.009s-.146.738-.408 1.009c-.261.271-.617.429-.993.443zm8.187-2.439c-.376-.014-.732-.172-.994-.443-.261-.271-.407-.633-.407-1.009s.146-.738.407-1.009c.262-.27.618-.429.994-.442.376.013.732.172.994.442.261.271.407.633.407 1.009 0 .377-.146.738-.407 1.009-.262.271-.618.43-.994.443zm15.504-256.0918c-.014-.088-.027-.1762-.039-.2517zm1.258 19.3168-.213-2.439c-.107-1.6257-.242-3.2516-.397-4.8774-.145-1.5097-.261-3.0098-.445-4.5099-.01-.1161-.02-.2322-.039-.3484-.087-.8032-.203-1.6065-.329-2.4-.068-.3968-.126-.7936-.222-1.171-.039-.2033-.088-.3871-.136-.571l-.077-.271c-.024-.049-.04-.1012-.049-.1548l-.029-.1646c-5.865 20.2551-18.929 46.5401-18.929 46.5401 2.38 1.742 13.306 1.21 13.306 1.21-.89-2.574-.116-8.391.504-12.02.291-1.722 1.07-3.324 2.245-4.616 1.716-1.979 3.081-4.238 4.035-6.678.487-2.192.769-4.424.842-6.668v-.029c-.029-.28-.048-.551-.067-.832zm-15.891 28.956c-.376-.014-.732-.173-.994-.443-.261-.271-.407-.633-.407-1.009s.146-.738.407-1.009c.262-.27.618-.429.994-.443.376.014.732.173.993.443.262.271.408.633.408 1.009s-.146.738-.408 1.009c-.261.27-.617.429-.993.443zm4.878 0c-.377-.014-.733-.173-.994-.443-.261-.271-.408-.633-.408-1.009s.147-.738.408-1.009.617-.429.994-.443c.376.014.732.172.993.443s.408.633.408 1.009-.147.738-.408 1.009c-.261.27-.617.429-.993.443zm4.364-12.717c-.417.295-.873.529-1.355.697-.494.174-1.015.256-1.539.242-.534 0-1.052-.181-1.471-.513.926-.089 1.835-.307 2.701-.648.898-.33 1.812-.614 2.738-.852-.284.425-.649.79-1.074 1.074zm5.691-33.4751c-.02.0581-.029.1064-.049.1645.045.1099.08.2231.107.3387-.02-.1742-.039-.3484-.058-.5032zm1.099 40.9461c-.015 2.012-.136 3.981-.28 5.942l-.439 5.85c-.145 1.942-.295 3.879-.349 5.815-.092 1.956-.04 3.917.156 5.865-.942-1.801-1.509-3.775-1.665-5.803-.218-2-.242-4.017-.071-6.022.151-1.992.444-3.971.879-5.922.406-1.96.999-3.877 1.769-5.725zm-1.865 43.919c.674 7.603 1.314 15.206 1.919 22.808l1.807 22.804c.594 7.599 1.242 15.191 1.946 22.776.377 3.788.753 7.576 1.217 11.345.242 1.883.495 3.764.815 5.623.147.935.322 1.857.524 2.766.18.873.44 1.728.776 2.554l.037.087c.063.146.07.31.019.46-.398 1.159-.926 2.27-1.575 3.31-.633 1.05-1.42 2-2.333 2.819-.901.855-1.979 1.502-3.157 1.895-1.179.393-2.429.523-3.663.38-.606-.087-1.214-.175-1.755-.277l-.84-.144-.848-.063c-1.134-.083-2.274.022-3.374.312-2.251.576-4.211 1.96-5.508 3.888 1.167-2.085 3.09-3.643 5.371-4.354 1.139-.371 2.331-.552 3.529-.535l.897.015.89.099c.61.079 1.159.121 1.71.169.274.038.552.039.826.002l.821-.055.796-.184.396-.094.377-.157c1.019-.394 1.942-1.001 2.707-1.78.791-.776 1.465-1.661 2.003-2.629.557-.956 1.005-1.971 1.337-3.027l.056.547c-.424-.924-.756-1.887-.991-2.875-.24-.946-.45-1.892-.628-2.837-.367-1.893-.653-3.788-.933-5.684-.545-3.791-.988-7.588-1.372-11.39-.799-7.599-1.376-15.213-1.913-22.827l-.696-11.427-.551-11.434c-.314-7.625-.545-15.253-.639-22.886zm-46.197-104.7209c1.51-2.673 3.278-5.1919 5.278-7.5206 1.982-2.36 4.163-4.5457 6.519-6.5329 1.2-.9747 2.438-1.909 3.731-2.77 1.302-.8546 2.667-1.6103 4.082-2.2608 2.805-1.3922 5.936-1.9923 9.056-1.7356-2.958.4925-5.797 1.5375-8.368 3.0806-2.565 1.5133-4.995 3.2439-7.264 5.1726-2.304 1.9044-4.494 3.9625-6.653 6.0689-2.149 2.1182-4.258 4.2894-6.381 6.4978z"/><path d="m95.2165 349.977c.0254 2.992-.4382 5.968-1.3727 8.81-.4473 1.439-1.0714 2.809-1.5339 4.156-.4711 1.355-.8202 2.749-1.0429 4.166-.4254 2.773-.2245 5.739 1.4164 7.846.8822 1.031 1.9609 1.876 3.1732 2.485 1.2122.61 2.5338.972 3.8874 1.065 1.396.119 2.802.031 4.172-.262 1.48-.268 2.976-.445 4.478-.53 2.991-.162 5.991.035 8.935.587 2.93.562 5.778 1.487 8.48 2.754 1.348.634 2.634 1.42 3.931 2.02 1.328.585 2.713 1.03 4.133 1.328 2.843.588 5.756.757 8.648.503 2.852-.179 5.65-.863 8.263-2.021 1.183-.462 2.176-1.308 2.82-2.403.418-.92-.094-1.985-1.081-2.886-1.038-.911-2.2-1.671-3.451-2.256-1.28-.636-2.593-1.161-3.97-1.709-2.749-1.072-5.497-2.147-8.229-3.283-2.74-1.117-5.471-2.272-8.145-3.628-2.785-1.263-5.297-3.056-7.396-5.28-1.857-2.383-3.327-5.043-4.356-7.883l-.011-.027c-.009-.024-.016-.048-.019-.073-.286-2.326-.6-4.647-.858-6.977-.003-.025.004-.05.019-.069.014-.02.036-.033.061-.038.024-.004.049.002.07.015.02.014.035.035.04.059.522 2.286.988 4.582 1.482 6.872l-.03-.099c1.161 2.65 2.721 5.107 4.625 7.286.999 1.002 2.108 1.886 3.307 2.636 1.236.742 2.513 1.412 3.826 2.006 5.316 2.374 10.903 4.35 16.369 6.565 1.412.534 2.793 1.15 4.135 1.842 1.41.699 2.713 1.598 3.867 2.669.294.301.571.618.83.95.257.37.473.767.645 1.184.181.454.269.94.259 1.429s-.118.971-.317 1.418c-.827 1.492-2.161 2.64-3.761 3.234-2.833 1.158-5.857 1.777-8.918 1.825-3.01.088-6.017-.248-8.933-.998-1.452-.389-2.864-.912-4.219-1.562-1.361-.68-2.577-1.482-3.898-2.105-2.632-1.282-5.443-2.157-8.337-2.595-2.888-.406-5.817-.434-8.712-.084-1.44.166-2.867.42-4.275.761-1.499.42-3.059.585-4.6124.487-1.6003-.071-3.1671-.482-4.5959-1.206s-2.6867-1.745-3.6898-2.994c-.9608-1.31-1.5551-2.852-1.722-4.468-.1637-1.549-.0916-3.113.2139-4.641.2941-1.491.731-2.95 1.3048-4.357.5589-1.422 1.2642-2.698 1.7798-4.052 1.1047-2.712 1.8191-5.567 2.1217-8.479.0022-.026.0145-.049.0342-.066.0196-.016.0451-.024.0707-.022.0237.002.0457.013.062.031.0163.017.0257.04.0265.064z"/><path d="m154.69 380.479s-2.415 6.413-19.806 4.602c-.723-6.478 8.334-14.747 8.334-14.747-1.561-3.345-12.933-5.58-12.933-5.58-6.912-.451-12.09 14.068-12.09 14.068s-.227.106-1.394-.245c-8.144-2.446-20.6724 4.367-24.9998-3.387 0 0-2.209 3.059 2.362 6.738l-2.4075 5.24h15.7863l5.518-2.341v-4.348s14.912 5.205 22.577 7.526c9.114 2.759 22.492-.837 19.053-7.526zm-125.1105-39.512c.5729 5.155.0298 10.374-1.5926 15.301-.8459 2.507-2.1376 4.842-3.813 6.89-.8429 1.058-1.6874 1.898-2.4971 2.9l-2.4261 2.926c-3.1978 3.943-6.4308 7.885-9.59221 11.884-3.19056 3.978-6.23402 8.068-9.130375 12.268l.052215-.226c.296303 1.415.98915 2.717 1.99759 3.753 1.01366.993 2.34338 1.599 3.75787 1.713.35106.044.70522.058 1.05866.042l1.06646-.097c.70901-.127 1.4105-.294 2.10129-.498.6794-.27 1.3717-.486 2.0348-.794l1.971-.974-.1997.151c3.282-3.648 6.6252-7.237 10.0299-10.765 3.4019-3.539 6.8223-7.053 10.5042-10.356.9151-.828 1.8714-1.628 2.8506-2.417l.781-.572c.2688-.214.5573-.402.8615-.561l.5002-.264.2495-.127.1845-.077c.2555-.092.5043-.201.7445-.328 2.0487-1.111 3.8473-2.63 5.2842-4.465 1.4868-1.842 2.6482-3.925 3.4342-6.158.7571-2.271 1.1037-4.659 1.0235-7.052l-.0009-.036.0013-.025c.1223-.948.2229-1.908.2966-2.865.0976-.951.1091-1.908.0344-2.86l-.001-.008c-.003-.025.0034-.05.0181-.07s.0364-.033.0607-.037c.0244-.005.0494 0 .0701.014.0207.013.0354.034.041.058.1896.961.2773 1.939.2615 2.918.01.973-.0064 1.941-.0463 2.916l.0005-.06c.577 5.079-.8276 10.185-3.9213 14.254-.7584 1.026-1.6116 1.979-2.5483 2.846-.9425.897-1.9929 1.674-3.1271 2.312-.2958.169-.6025.319-.9182.447l-.2383.102-.1534.094-.3045.178c-.2359.129-.4581.282-.6634.456l-.6917.525c-.9132.764-1.822 1.552-2.7081 2.383-1.7816 1.642-3.5509 3.323-5.2898 5.035-1.7484 1.703-3.5 3.407-5.227 5.137l-10.3171 10.435-.0449.045c-.0445.045-.0972.081-.1551.106l-2.1281.918c-.7185.284-1.4809.478-2.2161.718-.7628.18-1.53533.316-2.31368.407l-1.1864.043c-.39839-.003-.79587-.038-1.18837-.107-1.60021-.213-3.07579-.979-4.1725-2.163-1.062888-1.172-1.778431-2.617-2.0664673-4.173-.0075762-.038-.0073036-.077.0008087-.114.0081122-.038.02388959-.073.0463409-.104l.0051575-.008c2.9894102-4.138 5.9282802-8.311 8.8166202-12.519 2.92699-4.184 5.83639-8.39 9.06719-12.369 1.5606-2.005 3.3688-3.933 5.0109-5.809 1.6036-1.872 2.8764-4.004 3.7637-6.304.915-2.336 1.5826-4.762 1.992-7.237.445-2.497.683-5.026.7116-7.561l.0001-.007c.0003-.025.0101-.048.0274-.066.0172-.018.0405-.028.0652-.029s.0488.007.0674.024c.0187.016.0304.038.0329.063z"/><path d="m.275427 392.958s-2.947287 13.397 13.396773 12.593c0 0 9.4671-.892 18.2197-19.916 0 0 4.1083-8.388 5.8945-8.794v6.382l8.3954-.178 7.5021-7.503-2.4477-20.532c-.2475 3.51-1.3606 6.904-3.2401 9.88-1.8794 2.975-4.4666 5.438-7.5303 7.169-10.7175 6.341-17.1035 16.645-25.5606 24.65 0 0-12.12901 7.056-14.629773-3.751z"/><path d="m7.20898 383.33s8.97692-2.584 14.06122 6.693l6.8837-7.024s-5.9726-11.468-16.1217-6.158c0 0-3.78419.702-4.82322 6.489z"/><path d="m127.495 94.2402c.757 2.6082 1.356 5.2594 1.796 7.9388l.687 3.95c.111.652.239 1.301.382 1.927.063.315.138.622.221.909.061.207.136.409.225.606l.144.606c.031.128.019.262-.033.383s-.142.222-.256.288c-2.812 1.601-5.773 2.923-8.842 3.948-3.049 1.045-6.201 1.758-9.403 2.127-3.2.377-6.439.28-9.611-.287-3.1521-.581-6.1712-1.734-8.9085-3.402 2.8173 1.447 5.864 2.393 9.0045 2.799 3.118.392 6.276.341 9.379-.153 3.099-.487 6.14-1.289 9.076-2.393 2.932-1.073 5.756-2.423 8.433-4.031l-.145 1.277c-.309-.345-.547-.747-.702-1.183-.14-.35-.258-.693-.361-1.032-.199-.683-.34-1.36-.482-2.035-.261-1.344-.453-2.7-.577-4.063-.279-2.7188-.288-5.4588-.027-8.1798z"/><path d="m136.564 83.0153c-1.093-.1065-1.074-.5227-2.168-1.2485-8.381-5.5743-10.335-26.8072-10.335-26.8072l-.107-.2614c-3.281 1.3453-7.607 3.0775-13.287 5.2841-20.9043 8.1002-38.8565 53.2567-38.8565 53.2567s.5227 3.61 14.4199 9.116c0 0 4.9453-2.913 11.739-7.258.0013 0 .0026 0 .0038-.001.0012 0 .0022-.001.0031-.002s.0017-.002.0021-.003c.0005-.001.0008-.003.0007-.004 15.4939 5.536 32.2459-4.935 32.2459-4.935-1.064-1.065-2.071-9.03-2.729-15.9106 0 0-.145-.4258-.145-.4452-.281-1.6549-.542-3.3195-.765-4.9937l-.667-4.9356c-.741-3.12-2.143-6.0443-4.113-8.5744-1.852-2.5508-4.513-4.3996-7.549-5.2454-.377-.0774-.755-.1936-1.142-.2517l-1.171-.0967c-.79-.0547-1.583-.0418-2.371.0387-.402.0113-.801.0665-1.19.1646l-1.181.2128c-.784.1742-1.519.4936-2.294.7452-2.994 1.4016-5.3164 3.9255-6.4644 7.026-1.0814 3.1305-1.6532 6.4144-1.6936 9.7261-.1161 1.6549-.1936 3.3098-.3291 4.9937-.1167 1.7167-.3987 3.4182-.842 5.0808-.8741 3.3044-2.3648 6.4144-4.3936 9.1644-.0066.012-.0157.022-.0266.029s-.0234.012-.0364.014c-.0131.002-.0264.001-.039-.003-.0125-.004-.024-.011-.0335-.02-.0179-.013-.0306-.032-.0359-.053s-.0029-.044.0069-.063c1.3966-3.004 2.436-6.161 3.0968-9.4071.3127-1.6032.51-3.2268.5904-4.8582.0871-1.6645.2032-3.3582.4354-5.042.2428-1.6827.5821-3.35 1.0163-4.9938.2516-.8225.4451-1.6452.7742-2.4388.1451-.3967.2709-.8032.4258-1.2l.5129-1.171c1.3034-3.2132 3.6034-5.9235 6.5614-7.7325 3.112-1.7306 6.733-2.3097 10.229-1.6355.884.1697 1.747.4325 2.575.7839.414.1799.818.3834 1.209.6097.404.1951.789.425 1.152.6871l1.094.7839c.338.2903.648.6097.977.9097l.484.4645.435.5033c.281.3387.591.658.852 1.0161 2.111 2.8271 3.482 6.1373 3.987 9.6294.029.4742.058.9194.058 1.3258l.029 1.2485.049 2.5065c.019 1.6549.019 3.3001-.02 4.9646 4.549-4.0163 7.946-7.7615 9.02-10.6938zm-33.204 30.2427c-.376-.013-.732-.172-.994-.443-.261-.271-.407-.632-.407-1.009 0-.376.146-.737.407-1.008.262-.271.618-.43.994-.443.376.013.732.172.994.443.261.271.407.632.407 1.008 0 .377-.146.738-.407 1.009-.262.271-.618.43-.994.443zm7.142.174c-.376-.013-.732-.172-.993-.443-.262-.27-.408-.632-.408-1.008 0-.377.146-.738.408-1.009.261-.271.617-.43.993-.443.376.013.732.172.994.443.261.271.407.632.407 1.009 0 .376-.146.738-.407 1.008-.262.271-.618.43-.994.443zm7.316-1.393c-.376-.014-.732-.172-.993-.443s-.407-.633-.407-1.009.146-.738.407-1.009c.261-.27.617-.429.993-.443.377.014.733.173.994.443.261.271.407.633.407 1.009s-.146.738-.407 1.009-.617.429-.994.443zm6.62-2.439c-.376-.014-.732-.172-.993-.443-.262-.271-.408-.632-.408-1.009 0-.376.146-.738.408-1.008.261-.271.617-.43.993-.443.376.013.732.172.993.443.262.27.408.632.408 1.008 0 .377-.146.738-.408 1.009-.261.271-.617.429-.993.443zm-24.223-5.168c1.209.155 2.419.281 3.619.368 2.407.209 4.824.283 7.239.222 2.401-.031 4.79-.333 7.123-.9 1.159-.292 2.28-.721 3.339-1.277 1.08-.542 2.062-1.261 2.903-2.129-.716 1.008-1.62 1.869-2.661 2.535-1.054.664-2.185 1.197-3.368 1.588-2.369.729-4.829 1.117-7.307 1.151-2.457.057-4.914-.095-7.345-.455-2.427-.325-4.8227-.853-7.1618-1.577 1.2097.174 2.4098.358 3.6198.474zm-3.3004 4.703c.376.014.7322.173.9935.443.2613.271.4073.633.4073 1.009s-.146.738-.4073 1.009-.6175.429-.9935.443c-.3761-.014-.7323-.172-.9936-.443s-.4073-.633-.4073-1.009.146-.738.4073-1.009c.2613-.27.6175-.429.9936-.443zm-21.7749 5.168c-.3761-.013-.7323-.172-.9936-.443-.2613-.27-.4073-.632-.4073-1.008 0-.377.146-.738.4073-1.009s.6175-.43.9936-.443c.3761.013.7322.172.9935.443s.4074.632.4074 1.009c0 .376-.1461.738-.4074 1.008-.2613.271-.6174.43-.9935.443zm5.4002 3.484c-.3761-.013-.7322-.172-.9935-.443s-.4073-.632-.4073-1.008c0-.377.146-.738.4073-1.009s.6174-.43.9935-.443c.376.013.7322.172.9934.443.2613.271.4073.632.4073 1.009 0 .376-.146.737-.4073 1.008-.2612.271-.6174.43-.9934.443zm5.9227 2.439c-.376-.013-.7322-.172-.9934-.443-.2613-.271-.4073-.632-.4073-1.009 0-.376.146-.737.4073-1.008.2612-.271.6174-.43.9934-.443.3761.013.7322.172.9935.443s.4073.632.4073 1.008c0 .377-.146.738-.4073 1.009s-.6174.43-.9935.443z"/><path d="m149.65 67.9521c.568 2.8531.642 5.7823.22 8.6605-.369 2.878-.915 5.7306-1.634 8.5417-1.456 5.5973-3.232 11.1064-5.32 16.4997-2.079 5.387-4.343 10.692-6.792 15.915-2.435 5.225-5.084 10.345-7.946 15.358l6.563-15.966c2.168-5.32 4.335-10.635 6.368-15.997 2.058-5.351 3.991-10.7463 5.677-16.211.816-2.7384 1.585-5.4931 2.153-8.2894.665-2.7849.905-5.6546.711-8.5115z"/></g><path d="m150.21 68.3731c-.017-.0162-.036-.0293-.058-.0387 0-.1258 0-.2613-.009-.3871.029.1452.048.2806.067.4258z" fill="#fff"/><path d="m168.185 34.237c-1.393-2.5225-3.08-4.8711-5.026-6.9969-.976-1.038-2.04-1.9899-3.18-2.8451-.547-.4537-1.165-.8049-1.747-1.2045-.622-.335-1.221-.7101-1.871-.9829-2.548-1.1729-5.329-1.7512-8.133-1.691-2.804.0601-5.557.7571-8.052 2.0381-2.48 1.288-4.656 3.0894-6.385 5.2843-1.737 2.1917-3.106 4.6517-4.053 7.2834-.905 2.5854-.93 5.3974-.072 7.9988.907 2.601 2.58 4.8667 4.798 6.4998l-.393-.1025c1.529-.2256 2.945-.934 4.041-2.0217 1.219-1.083 2.304-2.3077 3.232-3.648l.422.7334c-.547.0135-1.083-.1526-1.527-.4728-.419-.3156-.74-.7444-.924-1.236-.319-.9073-.391-1.8833-.207-2.8272.143-.9245.485-1.8068 1.004-2.5856.518-.7788 1.199-1.4355 1.997-1.9243.792-.5102 1.703-.806 2.643-.8584.484-.0138.966.0706 1.416.2482.451.1777.86.4448 1.204.7852.357.3594.594.8201.679 1.3193.011.1313.016.2631.014.3949l-.004.2919c.014.1983.05.3946.106.5853.268.7904.711 1.5095 1.298 2.1025l-.115-.0726c1.642.5303 3.367.7531 5.09.6572 1.723-.1442 3.414-.5506 5.015-1.2052 1.591-.6929 3.104-1.5522 4.514-2.5635 1.411-.9994 2.721-2.1337 3.912-3.3868.097-.103.23-.1635.371-.1683.14-.0048.277.0465.38.1427.094.0892.153.2091.167.338.322 2.4689.075 4.9787-.723 7.3374-.44 1.1456-.959 2.2593-1.553 3.3332-.586.9675-1.067 1.9946-1.434 3.064-.23 1.0448-.179 2.1316.146 3.1506.331 1.094.771 2.1521 1.313 3.1583l.406.8393c.068.1499.134.3218.199.5033.032.1181.061.2383.085.3585.033.2289.003.4625-.087.6755-.146.3094-.391.5608-.696.7139-.185.0988-.379.1787-.58.2385-.33.0957-.667.1661-1.008.2106-1.241.1462-2.492.1912-3.741.1345l.882-.5698c-.906 2.2729-2.133 4.4043-3.643 6.3293-.792 1.006-1.742 1.8773-2.812 2.58-1.185.7105-2.562 1.0333-3.94.9232-2.493-.2776-4.893-1.1115-7.022-2.4401l-.776-.454-.379-.2272-.188-.113c-.056-.0314-.082-.0356-.123-.0567-.352-.1533-.742-.1977-1.12-.1273-.985.1925-1.915.5989-2.726 1.1905l-.823-1.8451c.56-.0881 1.128-.1155 1.694-.0818.524.0236 1.046.0816 1.562.1735 1.012.186 2.004.4659 2.964.8359 1.871.7507 3.637 1.7424 5.251 2.9499 1.589 1.1564 3.106 2.4072 4.545 3.7456.748.6952 1.43 1.4573 2.04 2.2769.665.8861 1.096 1.9264 1.25 3.0238l-.016-.0756 3.2 13.0334 3.11 13.0563.008.031c.02.087.015.177-.016.261-.03.084-.085.157-.156.209-1.053.774-2.181 1.437-3.369 1.982-1.174.543-2.398.974-3.653 1.287-1.252.319-2.537.489-3.828.506-1.285.015-2.568-.133-3.815-.442-.025-.005-.046-.02-.06-.041s-.02-.046-.015-.071c.004-.025.018-.047.038-.061.021-.015.046-.021.071-.017l.008.001c1.239.221 2.5.289 3.756.203 1.249-.08 2.484-.309 3.679-.681 1.194-.364 2.351-.839 3.456-1.42 1.097-.571 2.139-1.242 3.113-2.004l-.165.501-3.587-12.9331-3.499-12.9561-.015-.0672-.001-.0089c-.126-.8168-.467-1.5856-.987-2.228-.558-.7109-1.18-1.3699-1.856-1.969-1.403-1.2585-2.873-2.4389-4.405-3.5359-1.482-1.0853-3.098-1.9734-4.809-2.6418-.84-.3115-1.707-.5481-2.589-.7069-.43-.0778-.866-.1271-1.303-.1477-.395-.0232-.791-.0101-1.184.0391l-.087.0138c-.23.0364-.465-.0066-.667-.1219-.203-.1153-.36-.2961-.445-.5125-.086-.2165-.096-.4557-.027-.6783.068-.2226.21-.4153.403-.5463 1.088-.8001 2.347-1.3379 3.677-1.5714.785-.1257 1.59-.0129 2.31.3238l.271.1382.189.114.374.225.742.4355c1.851 1.1842 3.938 1.9524 6.115 2.2517.977.1018 1.961-.1062 2.813-.5946.898-.5808 1.698-1.3018 2.368-2.1356 1.409-1.7564 2.562-3.7031 3.425-5.7822l.009-.0214c.073-.169.196-.312.351-.41.156-.0979.338-.1463.522-.1386 1.139.0659 2.282.0409 3.417-.0747.252-.0301.502-.0772.748-.141.086-.0232.17-.0539.251-.0917.056-.0184.035-.0526-.053.1145-.032.0751-.045.1567-.038.238-.01-.0248-.016-.0509-.018-.0775-.036-.0989-.072-.2085-.125-.3315l-.358-.782c-.565-1.1136-1.016-2.2811-1.348-3.4849-.367-1.2813-.392-2.6367-.071-3.9305.077-.331.191-.6523.34-.9575.125-.2922.268-.5768.427-.8521l.885-1.5715c.599-.9978 1.128-2.0355 1.584-3.106.81-2.1635 1.113-4.4837.887-6.7827l.917.3123c-1.278 1.2713-2.678 2.414-4.179 3.4117-1.49 1.0029-3.083 1.845-4.75 2.5124-1.683.6519-3.452 1.0519-5.251 1.1872-1.809.0819-3.618-.1719-5.335-.7487-.044-.014-.084-.0391-.116-.0729-.653-.6713-1.142-1.4851-1.427-2.3774-.065-.2334-.106-.4729-.122-.7147l.002-.3692c-.008-.0886-.001-.1761-.013-.2649-.071-.376-.255-.7214-.528-.9895-.288-.2775-.63-.494-1.003-.6366-.374-.1425-.773-.2082-1.173-.1931-.828.0537-1.628.326-2.317.789-.702.4511-1.297 1.0501-1.744 1.755s-.734 1.4988-.842 2.3264c-.135.7996-.051 1.6205.24 2.377.118.3312.34.6157.632.8115.291.1958.639.2926.99.276.087-.0048.173.0144.25.0556s.141.1028.185.178c.044.0751.066.161.065.2481-.002.0871-.027.1721-.074.2456l-.004.0063c-.465.723-.971 1.4185-1.515 2.0833-.54.6719-1.127 1.305-1.756 1.8948-.634.6135-1.339 1.1506-2.099 1.6004-.801.486-1.698.7912-2.629.8945-.139.0117-.278-.0245-.394-.1025-1.268-.8563-2.398-1.9024-3.349-3.1018-.245-.292-.471-.5988-.678-.9188-.228-.3073-.433-.6306-.614-.9673l-.547-1.0128c-.15-.3536-.282-.7165-.422-1.0754-1.046-2.9262-1.065-6.1214-.053-9.0596.994-2.8409 2.484-5.4829 4.401-7.8034 1.903-2.3481 4.285-4.2636 6.986-5.619 2.702-1.3621 5.689-2.0637 8.714-2.0469 3.005.0218 5.963.7402 8.644 2.0988 2.639 1.3586 4.973 3.2426 6.858 5.5363 1.869 2.2482 3.436 4.7304 4.663 7.3839.011.0232.013.0498.004.074s-.026.044-.05.055c-.022.0102-.047.0118-.071.0044-.023-.0075-.043-.0234-.055-.0446z" fill="#fdfbf5"/><path d="m43.7904 189.832 4.2776-5.176c.0077-.009.0173-.017.028-.023.0108-.005.0226-.009.0347-.01.0122-.001.0244 0 .0361.004.0116.003.0225.009.0319.017l.0028.002 4.6665 4.072-.1986.022 4.6083-6.47c.0292-.04.0729-.067.1217-.076.0488-.008.0989.004.1394.032l6.0318 4.206-.3413.073 3.7186-6.381c.0182-.031.0422-.058.0709-.08s.0613-.038.0962-.047c.0348-.009.0711-.012.1068-.007.0356.005.07.017.1011.035l.008.005 5.7313 3.522-.4436.133 3.0787-6.703c.0387-.082.108-.146.1931-.178.0851-.031.1793-.029.2624.008l6.4398 2.838-.5295.272 1.3148-6.595c.0108-.054.0321-.106.0629-.152.0307-.046.0702-.085.1162-.116s.0975-.052.1517-.063c.0543-.011.1101-.011.1643 0l.0649.019.0071.002 6.4899 2.464-.6298.362 1.0612-6.688c.0098-.062.0319-.122.0648-.176.033-.053.0762-.1.1272-.137s.1088-.064.1701-.078c.0612-.015.1248-.018.1871-.008l.048.01 6.4048 1.686-.6059.467c-.0083-2.15.0075-4.299.0316-6.449l.0001-.009c.0006-.059.0128-.117.0359-.171s.0566-.103.0987-.144c.042-.041.0917-.074.1463-.096.0545-.022.1128-.033.1716-.032l.035.002 6.7954.609-.418.422-.463-6.128-.001-.01c-.003-.039.002-.079.014-.116.013-.037.032-.072.058-.102s.057-.054.092-.072.073-.028.113-.031l.027-.001 5.934.102-.202.213-.19-6.463c-.001-.012.004-.025.013-.034.008-.009.02-.015.033-.015.012-.001.025.003.034.012.01.008.015.02.016.032l.498 6.446c.004.053-.012.105-.047.144-.034.04-.082.065-.135.069l-.011.001h-.009l-5.934.102.304-.332.63 6.114c.006.056-.001.112-.019.165s-.048.101-.087.141c-.038.04-.085.072-.138.092-.052.02-.108.029-.163.025l-.011-.001-6.8058-.484.4874-.45c.024 2.15.0398 4.299.0316 6.449 0 .128-.0508.251-.1413.342-.0906.09-.2133.141-.3414.141-.0416 0-.0831-.005-.1234-.016l-6.4037-1.69.597-.388-1.0877 6.683c-.0093.06-.0304.118-.0621.17-.0317.053-.0734.098-.1226.134s-.1051.062-.1644.077c-.0593.014-.1209.017-.1813.008-.034-.006-.0674-.015-.0996-.027l-6.458-2.546.5669-.31-1.3958 6.578c-.0198.099-.0781.186-.162.242-.084.056-.1867.076-.2856.056-.0282-.006-.0556-.015-.0821-.026l-6.411-2.903.4552-.17-3.1459 6.672c-.0341.074-.0962.132-.1729.16-.0766.028-.1613.025-.2356-.009-.0121-.006-.0239-.012-.0353-.019l-5.6957-3.58.3826-.094-3.7845 6.342c-.0155.027-.0362.05-.0608.069-.0247.019-.0528.033-.0827.041-.03.008-.0612.01-.0919.006-.0307-.005-.0603-.015-.0871-.03l-.019-.013-5.9749-4.286.2609-.043-4.6945 6.408c-.0206.029-.0519.049-.087.055-.035.006-.071-.002-.1-.023l-.0117-.01-4.6115-4.134.1333-.01-4.3465 5.118c-.0083.01-.0201.016-.0328.017s-.0254-.003-.0352-.011-.0159-.02-.0171-.033c-.0012-.012.0028-.025.0109-.035z" fill="#fdfbf5"/><path d="m127.049 128.248 3.035.694-.086.098-1.547-3.958c-.005-.014-.008-.028-.007-.042 0-.014.003-.028.009-.041.005-.013.014-.025.024-.035s.022-.018.035-.023l.023-.006 3.285-.583-.103.187-1.65-3.872c-.009-.021-.013-.043-.014-.065 0-.023.004-.045.013-.066.008-.02.02-.039.036-.055s.034-.029.055-.037l.021-.008 3.352-.986-.132.264-1.424-3.647c-.011-.028-.016-.058-.016-.088.001-.031.008-.061.02-.088.012-.028.029-.053.051-.074s.048-.038.076-.049c.013-.004.027-.008.041-.011l3.044-.631-.194.319-1.154-3.912c-.018-.066-.012-.137.018-.199.029-.061.081-.11.144-.137l3.162-1.326-.181.333-.784-4.065c-.013-.071-.002-.145.032-.21s.089-.116.155-.147l3.151-1.437-.169.468-1.676-3.386c-.044-.088-.05-.189-.019-.282.031-.092.098-.169.186-.212.023-.011.048-.02.074-.027l3.217-.846-.275.502-1.337-3.955c-.018-.0525-.025-.1079-.022-.1631.004-.0552.019-.1092.043-.1588.025-.0496.059-.0939.1-.1303.042-.0364.09-.0643.143-.082l.02-.0063.008-.0021 3.518-.9857-.307.5907-1.376-3.7352c-.044-.1192-.039-.2509.014-.3661.054-.1153.15-.2047.269-.2486l.004-.0012.007-.0028 2.491-.8824-.299.6416-1.539-4.0565c-.024-.0608-.035-.1256-.033-.1907s.016-.1291.043-.1886c.027-.0594.065-.113.112-.1578.047-.0447.103-.0798.164-.103l.042-.0141 3.487-.9828-.308.6682-1.903-4.288-.003-.0087c-.023-.0519-.036-.1078-.037-.1645-.002-.0568.008-.1133.028-.1663.021-.0529.051-.1014.091-.1425.039-.0411.086-.0742.138-.0972.022-.0099.046-.018.07-.0242l3.664-.9167-.274.5044c-.485-1.4958-1.007-2.9957-1.62-4.4294l-.007-.0171c-.016-.0377-.025-.0781-.025-.1191-.001-.0409.007-.0816.022-.1196s.038-.0727.066-.102c.029-.0293.063-.0526.101-.0687l.004-.0019 2.64-1.0808-.14.3356-1.552-4.3096-.002-.0075c-.011-.0294-.011-.0614-.002-.0911.01-.0297.029-.0554.055-.073l2.764-1.899c.011-.0072.023-.01.036-.0079.012.0021.023.009.031.0191.007.0102.01.0229.009.0354-.002.0125-.009.0238-.019.0315l-2.648 2.0576.05-.1713 1.767 4.2257c.025.0612.026.1299.002.1916s-.071.1117-.131.1393l-.011.005-2.596 1.1836.161-.4282c.684 1.4488 1.282 2.9361 1.792 4.4544.017.0484.024.0996.021.1507s-.017.101-.039.147c-.023.046-.054.0871-.092.121-.039.0338-.083.0598-.132.0764l-.022.0068-.01.0026-3.642.9994.287-.6032 1.991 4.2473c.029.0628.045.1312.045.2006.001.0693-.014.1379-.042.2011s-.07.1196-.122.1652c-.053.0456-.114.0794-.181.0991l-.009.0025-3.48 1.0051.328-.654 1.535 4.0586c.023.0603.034.1246.032.1892-.001.0646-.016.1283-.042.1873-.026.0591-.064.1124-.111.1569s-.102.0793-.162.1025l-.017.006-2.499.8594.295-.6184 1.322 3.7549.002.0065c.019.0557.028.1147.025.1737-.004.059-.018.1168-.044.1701-.025.0533-.061.101-.105.1404-.044.0395-.095.0699-.151.0895l-.035.0107-3.534.9304.292-.5423 1.275 3.9757.002.005c.016.049.022.1.017.151-.004.051-.018.101-.041.146-.024.046-.056.086-.095.119-.039.034-.084.059-.133.074l-.025.007-3.228.804.241-.521 1.634 3.407c.02.041.032.085.035.13.003.046-.003.091-.017.134-.015.043-.037.082-.067.117-.03.034-.066.062-.107.082l-.014.006-3.168 1.399.186-.357.734 4.074c.013.067.001.137-.031.198-.033.06-.086.108-.149.134l-3.179 1.287.162-.335 1.105 3.926c.01.032.013.065.009.098-.003.033-.013.065-.029.094s-.037.055-.063.076-.055.036-.087.046l-.024.005-3.053.589.172-.31 1.363 3.669c.019.049.018.104-.003.152s-.06.086-.109.105l-.02.007-3.367.93.111-.23 1.585 3.899c.007.017.011.034.011.052s-.003.036-.01.052c-.006.017-.016.032-.028.044-.013.013-.028.023-.044.03l-.032.009-3.294.529.084-.146 1.482 3.983c.003.009.005.019.005.029-.001.009-.003.019-.007.028-.003.009-.009.017-.016.023-.007.007-.015.012-.024.016-.014.005-.03.006-.045.003l-3.023-.744c-.012-.003-.023-.011-.03-.022-.006-.011-.008-.024-.005-.036.002-.012.01-.023.021-.03s.024-.009.036-.006z" fill="#fdfbf5"/><path d="m137.156 268.64c.376-.013.733-.171.995-.442.261-.271.407-.633.407-1.009 0-.377-.146-.739-.407-1.009-.262-.271-.619-.43-.995-.443-.376.013-.733.172-.994.443-.262.27-.408.632-.408 1.009 0 .376.146.738.408 1.009.261.271.618.429.994.442zm6.271-1.045c.377-.013.733-.171.995-.442.261-.271.408-.633.408-1.009 0-.377-.147-.739-.408-1.01-.262-.27-.618-.429-.995-.442-.376.013-.733.172-.994.442-.262.271-.408.633-.408 1.01 0 .376.146.738.408 1.009.261.271.618.429.994.442zm5.749-.697c.376-.013.733-.171.994-.442.262-.271.408-.633.408-1.009 0-.377-.146-.739-.408-1.009-.261-.271-.618-.43-.994-.443-.376.013-.733.172-.995.443-.261.27-.408.632-.408 1.009 0 .376.147.738.408 1.009.262.271.619.429.995.442zm2.787-5.051c.376-.013.733-.172.995-.443.261-.271.407-.632.407-1.009s-.146-.738-.407-1.009c-.262-.271-.619-.43-.995-.443-.376.013-.733.172-.994.443-.262.271-.408.632-.408 1.009s.146.738.408 1.009c.261.271.618.43.994.443zm-3.096-135.268-5.078.562.1-.224 4.466 5.852c.026.034.043.074.05.116.007.043.003.087-.01.127-.014.041-.037.078-.069.108-.031.029-.069.051-.11.062l-.009.003-6.519 1.785.167-.596 5.81 5.795c.059.059.102.132.124.212.022.081.023.166.003.247-.02.08-.061.155-.119.215-.057.061-.129.105-.209.129l-.017.005c-2.158.64-4.334 1.213-6.517 1.758l.222-.678c1.697 2.259 3.339 4.562 4.926 6.907.006.011.009.023.007.035s-.008.023-.018.031c-.009.007-.022.011-.034.01s-.023-.007-.032-.016c-1.901-2.1-3.742-4.245-5.525-6.438-.043-.053-.073-.117-.087-.185-.013-.068-.01-.138.01-.204.02-.067.056-.127.104-.176.049-.05.109-.086.175-.107l.021-.006c2.151-.664 4.309-1.3 6.486-1.869l-.218.808-5.626-5.974-.007-.007c-.032-.034-.057-.074-.074-.118-.016-.044-.024-.09-.023-.137.002-.046.012-.092.032-.135.019-.043.046-.081.08-.113.045-.042.1-.072.159-.087l6.565-1.607-.148.416-4.263-6.001c-.011-.014-.019-.031-.024-.049s-.006-.036-.003-.054c.002-.019.008-.036.017-.052s.022-.03.036-.041c.022-.016.048-.025.075-.028l5.095-.377c.012-.001.025.003.035.011.009.008.016.02.017.032.001.013-.003.026-.011.035-.008.01-.02.017-.032.018z" fill="#fdfbf5"/><path d="m146.148 170.509-7.505 3.333.011-.157 9.184 5.626c.016.01.03.023.041.038s.019.032.024.05c.004.019.005.038.002.056s-.01.036-.019.052c-.012.018-.027.034-.045.045l-8.085 5.324-.007-.324 8.732 5.104c.028.016.051.037.071.062.019.025.033.054.041.084.008.031.009.062.005.094-.004.031-.014.061-.03.088-.013.021-.028.04-.046.056l-6.94 6.453-.021-.424 7.745 5.782c.033.024.061.055.082.09s.035.074.04.114c.006.041.004.082-.006.122s-.028.077-.052.11c-.01.012-.02.024-.032.036l-6.538 6.524-.033-.522 7.417 5.657c.081.061.133.152.147.252.013.1-.014.201-.075.282-.015.018-.031.036-.048.052l-7.018 6.425-.013-.641 8.091 6.693c.095.08.156.194.168.318s-.025.248-.103.345l-6.458 8.021-.103-.699 7.677 5.249c.106.071.179.181.204.306.024.125-.002.255-.073.361-.014.019-.029.038-.045.056l-6.846 7.467-.073-.6 8.345 5.735.004.003c.034.023.062.052.084.086s.037.072.045.112c.007.04.007.081-.002.12-.008.04-.024.077-.047.111-.025.036-.058.066-.095.089l-7.632 4.608.045-.356 7.216 7.733c.009.009.014.022.013.035 0 .012-.005.024-.014.033-.01.009-.022.014-.035.014-.012 0-.025-.006-.034-.015l-7.477-7.48c-.021-.021-.038-.046-.049-.074-.012-.027-.018-.057-.018-.086 0-.03.006-.06.018-.087.011-.028.028-.053.049-.074l.039-.031.006-.004 7.548-4.744-.011.521-8.446-5.585c-.088-.058-.149-.148-.17-.252-.021-.103 0-.21.058-.298l.032-.043.006-.007 6.723-7.579.086.723-7.675-5.253c-.052-.036-.096-.081-.131-.134s-.058-.112-.07-.174-.011-.126.002-.188.038-.121.074-.173l.022-.03 6.469-8.013.065.662-8.028-6.77c-.042-.035-.078-.079-.104-.128s-.042-.103-.047-.158c-.006-.056 0-.111.017-.165.016-.053.043-.102.078-.145.014-.016.028-.031.043-.045l7.077-6.361.024.585-7.375-5.712c-.073-.055-.121-.138-.133-.229s.012-.183.068-.256c.01-.013.021-.025.032-.037l6.588-6.475.032.472-7.703-5.839c-.029-.022-.054-.049-.072-.08-.019-.031-.031-.065-.036-.101s-.003-.073.006-.108.024-.068.046-.097c.01-.014.022-.026.035-.038l6.988-6.401.041.385-8.681-5.191c-.043-.025-.075-.067-.088-.116-.013-.048-.006-.1.02-.144.015-.026.036-.047.061-.064l8.137-5.243.003.241-9.128-5.718c-.01-.006-.019-.014-.025-.023-.007-.01-.012-.021-.015-.032s-.003-.023-.001-.035c.002-.011.006-.022.012-.032.009-.016.024-.028.04-.035l7.538-3.259c.012-.005.025-.005.037-.001.012.005.021.014.027.026.005.012.005.025 0 .037-.004.012-.013.021-.025.026z" fill="#fdfbf5"/><path d="m22.7441 323.556-.0387.155c-.0097 0-.0097-.001-.0194-.01-.0084-.009-.0138-.02-.0155-.032-.0017-.013.0003-.025.0059-.036z" fill="#fcfcfc"/></g></svg>