<svg width="263" height="272" viewBox="0 0 263 272" fill="none" xmlns="http://www.w3.org/2000/svg">
<path d="M45.4 250.72H46.4V241.72H45.4V238.44H54.58C56.2467 238.44 57.5467 238.78 58.48 239.46C59.4133 240.14 59.88 241.113 59.88 242.38C59.88 243.167 59.6933 243.833 59.32 244.38C58.9467 244.913 58.5067 245.32 58 245.6C57.5067 245.867 57.0267 246.047 56.56 246.14V246.34C57.5067 246.433 58.36 246.733 59.12 247.24C59.88 247.747 60.26 248.653 60.26 249.96C60.26 251.36 59.7333 252.387 58.68 253.04C57.6267 253.68 56.26 254 54.58 254H45.4V250.72ZM53.08 245C53.4667 245 53.7533 244.9 53.94 244.7C54.14 244.487 54.24 244.16 54.24 243.72V243C54.24 242.56 54.14 242.24 53.94 242.04C53.7533 241.827 53.4667 241.72 53.08 241.72H52V245H53.08ZM53.22 250.72C53.6067 250.72 53.8933 250.62 54.08 250.42C54.28 250.207 54.38 249.88 54.38 249.44V248.56C54.38 248.12 54.28 247.8 54.08 247.6C53.8933 247.387 53.6067 247.28 53.22 247.28H52V250.72H53.22ZM75.5878 250.72H76.3878V254H68.5478V250.72H69.7478L69.4278 249.12H66.7078L66.3878 250.72H67.5878V254H60.7478V250.72H61.5478L64.9278 238.44H72.2078L75.5878 250.72ZM67.1478 247H68.9878L68.1678 243.02H67.9678L67.1478 247ZM77.0211 250.72H78.0211V241.72H77.0211V238.44H86.2011C87.9211 238.44 89.2344 238.793 90.1411 239.5C91.0478 240.207 91.5011 241.353 91.5011 242.94C91.5011 243.833 91.3211 244.607 90.9611 245.26C90.6011 245.913 90.0878 246.367 89.4211 246.62L89.4411 246.82C90.7211 247.02 91.3611 247.807 91.3611 249.18V250.72H92.3011V254H85.9611V249.3C85.9611 248.78 85.8811 248.387 85.7211 248.12C85.5744 247.853 85.3344 247.673 85.0011 247.58C84.6811 247.487 84.2211 247.44 83.6211 247.44V250.72H84.9411V254H77.0211V250.72ZM84.7011 245C85.0878 245 85.3744 244.9 85.5611 244.7C85.7611 244.487 85.8611 244.16 85.8611 243.72V243C85.8611 242.56 85.7611 242.24 85.5611 242.04C85.3744 241.827 85.0878 241.72 84.7011 241.72H83.6211V245H84.7011ZM100.777 254.28C98.2572 254.28 96.3105 253.64 94.9372 252.36C93.5772 251.08 92.8972 249.033 92.8972 246.22C92.8972 240.847 95.5105 238.16 100.737 238.16C102.004 238.16 103.177 238.313 104.257 238.62C105.351 238.927 106.164 239.267 106.697 239.64V244.64H101.897V243.2C101.897 242.693 101.784 242.32 101.557 242.08C101.331 241.84 100.991 241.72 100.537 241.72C100.084 241.72 99.7439 241.84 99.5172 242.08C99.2905 242.32 99.1772 242.693 99.1772 243.2V249.24C99.1772 249.747 99.2905 250.12 99.5172 250.36C99.7439 250.6 100.084 250.72 100.537 250.72C100.991 250.72 101.331 250.6 101.557 250.36C101.784 250.12 101.897 249.747 101.897 249.24V247.62H106.697V252.8C106.151 253.173 105.337 253.513 104.257 253.82C103.191 254.127 102.031 254.28 100.777 254.28ZM107.451 254V250.72H108.451V241.72H107.451V238.44H120.951V244.48H116.471V241.72H114.051V244.88H115.811V247.16H114.051V250.72H116.471V247.56H120.951V254H107.451ZM121.709 254V250.72H122.709V241.72H121.709V238.44H130.149V241.72H128.309V250.72H130.109V248.88H134.089V254H121.709ZM142.295 254.28C139.855 254.28 137.968 253.64 136.635 252.36C135.315 251.08 134.655 249.033 134.655 246.22C134.655 243.407 135.315 241.36 136.635 240.08C137.968 238.8 139.855 238.16 142.295 238.16C144.735 238.16 146.615 238.8 147.935 240.08C149.268 241.36 149.935 243.407 149.935 246.22C149.935 249.033 149.268 251.08 147.935 252.36C146.615 253.64 144.735 254.28 142.295 254.28ZM142.295 250.72C142.748 250.72 143.088 250.6 143.315 250.36C143.542 250.12 143.655 249.747 143.655 249.24V243.2C143.655 242.693 143.542 242.32 143.315 242.08C143.088 241.84 142.748 241.72 142.295 241.72C141.842 241.72 141.502 241.84 141.275 242.08C141.048 242.32 140.935 242.693 140.935 243.2V249.24C140.935 249.76 141.048 250.14 141.275 250.38C141.502 250.607 141.842 250.72 142.295 250.72ZM162.135 238.44H168.695V241.72H167.695V254H162.075L156.215 244.98V250.72H157.175V254H150.615V250.72H151.615V241.72H150.615V238.44H157.835L163.095 246.46V241.72H162.135V238.44ZM184.143 250.72H184.943V254H177.103V250.72H178.303L177.983 249.12H175.263L174.942 250.72H176.143V254H169.303V250.72H170.103L173.483 238.44H180.763L184.143 250.72ZM175.703 247H177.543L176.723 243.02H176.523L175.703 247Z" fill="#EA346C"/>
<path d="M139.68 167.065L139.673 167.491L138.808 167.832L138.498 168.505L137.288 168.812L135.747 167.011L134.705 166.231L133.769 166.071L132.622 166.764L131.672 166.164L131.919 166.404L131.609 166.191L130.026 166.624L128.843 168.779L128.365 169.265L127.352 169.646L126.008 169.686L125.184 169.145L124.516 169.379L123.102 168.085L122.081 168.405L116.811 168.038L115.192 168.392L114.686 168.932L113.63 169.392L112.476 169.319L111.589 168.685L111.667 168.839L111.033 168.919L110.147 168.258L109.091 168.198L108.704 168.585L107.98 168.512L107.712 168.819L107.325 168.405L106.987 168.585L105.7 168.025L103.363 168.659L101.217 168.158L100.521 168.705L99.0358 168.912L96.2493 168.985L94.9686 168.732L94.5604 169.085L94.5886 168.825L92.7027 171.5L92.2805 171.907L90.9295 172.367L90.2962 173.581L88.2977 174.094L86.2078 173.607L85.0749 173.621L83.2735 174.674L81.838 174.868L80.4166 175.662L79.9873 175.642L79.1781 176.529L78.6363 178.023L77.3345 179.783L76.8982 181.457L76.4056 181.431L75.9975 180.944L75.2375 181.017L74.8153 181.791L75.139 183.378L74.4916 183.838L74.0765 183.752L71.7543 184.812L71.0577 183.872L70.2414 183.458L69.5448 183.598L68.4752 182.978L68.1093 183.198L66.899 181.697L65.8153 180.83L63.5354 180.884L62.2266 178.576L61.4947 178.316L60.784 176.742L60.0804 176.135L58.6941 173.234L58.1453 173.127L58.8771 172.787L58.6519 173.007L58.8982 173.074L58.9404 172.86L58.856 173.14L59.2219 173.807L59.3134 173.547L59.3697 173.714L59.8904 172.847L60.0522 172.233L59.8763 171.927L59.1726 171.96L58.5252 171.113L58.096 171.233L58.293 171.113L57.9412 170.96L58.0045 171.28L57.6527 170.926L57.3923 171.166L56.6957 170.739L55.7598 168.392L57.3923 167.158L56.6112 166.724L55.7035 164.644L54.1273 162.863L49.6449 160.042L47.6886 159.188L46.3587 158.194L46.7809 158.834L48.336 160.042L46.2109 158.301L45.7535 158.247L46.028 158.528L45.7887 158.514L43.8958 157.694L38.7098 158.074L38.0131 158.601L37.3306 158.347L37.1195 157.24L36.7676 156.793L36.9928 156.26L36.5987 155.426L36.6199 153.619L36.1836 153.179L36.5354 152.965L36.071 151.811L36.1906 151.418L35.7895 151.164L35.6417 150.604L35.2617 150.564L35.0295 149.864L35.3251 149.73L35.3954 148.697L36.3525 147.703L36.9998 145.208L37.5276 145.055L39.3149 143.334L39.6879 142.054L40.1875 141.38L40.1241 140.113L41.2149 139.646L42.6011 139.639L42.6785 139.046L43.15 138.726L43.924 139.286L44.9584 139.199L45.3595 137.338L46.0209 136.191L45.7535 136.051L45.7747 135.711L46.422 134.944L48.0546 135.638L49.0256 135.611L48.716 137.132L49.4549 137.118L49.476 137.405L49.9193 137.585L50.426 137.378L51.7911 137.612L52.1851 137.432L52.6707 137.919L52.9733 138.265L53.0577 139.153L53.5221 139.019H53.7473L55.1124 139.519L55.3306 139.379L55.218 138.972L55.7316 138.586L55.5557 138.372L56.2805 138.306L57.1531 138.519L57.3501 139.286L57.8708 139.706L57.9623 139.739L58.3986 140.16L59.3837 140.326L59.6441 140.6L60.3689 140.533L60.7629 141.027L62.0084 140.02L63.261 139.713L65.1398 139.773L65.4846 138.586L65.9842 138.105L65.5831 137.619L65.6394 137.232L66.512 136.611L66.5683 136.085L67.0679 135.711L68.06 135.644L68.4048 135.391L68.8904 135.504L69.4392 135.131L70.2344 135.484L70.2626 135.971L70.0796 135.731L69.8615 135.844L70.0444 136.205L69.1718 136.732L69.3055 137.659L69.8474 137.812L71.2055 136.525L72.2047 136.671L72.3384 136.245L73.0632 135.951L72.9576 135.438L73.2039 134.997L73.2743 134.964L73.3024 133.63L72.3876 132.11L72.6973 131.256L72.1765 130.782L72.1977 130.415L72.9084 129.308L73.415 129.002H74.0905L74.182 128.521L75.4838 127.688L75.4064 127.514L75.6808 127.067L76.0116 127.241L75.8568 126.907L76.293 126.22L77.4893 126.334L77.426 125.994L77.7919 125.567L78.4744 125.233L79.0937 124.5L79.2696 124.673L79.3751 124.253L79.5299 124.506L79.6003 124.273L79.8325 124.453L79.8255 124.099L80.1562 124.059L80.1844 124.006L79.8607 123.112L81.5143 123.352L82.4994 122.839L83.1961 123.126L83.3439 123.646L84.4486 123.933L85.7715 123.879L86.1304 125.513L89.0155 126.454L89.0999 126.901L89.8177 127.014L90.648 127.608L91.1969 128.455L91.3517 128.268L91.7176 128.388L91.8583 128.721L92.1961 128.601L93.8779 130.475L97.0374 131.809L97.3822 131.723L97.2063 130.969L97.4666 130.509L100.028 130.989L104.159 131.242L105.291 131.109L105.763 130.689L105.897 130.162L106.368 130.029L106.72 129.922L107.522 130.182L107.712 129.949L109.908 130.656L110.421 130.402L110.534 129.402L110.801 129.355L111.399 129.562L111.547 130.309L112.701 130.562L113.546 130.362L114.467 129.575L114.439 129.122L114.517 128.915L115.438 128.635L115.544 128.681L116.395 129.175L119.069 129.602L120.428 128.715L121.652 130.309L121.814 129.322L122.342 128.901L123.51 128.908L123.953 129.288L124.333 128.755L124.776 128.528L124.924 128.701V128.475L125.67 128.134L125.747 127.848L125.888 127.961L126.092 127.448L127.908 128.295L129.167 127.881H129.343L129.948 128.401L129.871 130.162L131.588 130.576L131.546 132.763L132.383 133.13L132.496 133.61L132.144 134.731L132.284 135.451L130.237 137.805L130.765 138.099H131.011L132.763 138.979L134.325 139.113L135.106 139.633L135.986 141.12L137.527 142.254L138.449 141.98L139.202 142.607L139.624 142.374L140.405 142.714L140.714 142.454L141.059 142.594L141.179 142.587L141.32 142.761L140.919 143.288L140.658 144.815L140.919 145.915L140.588 146.529L140.799 147.623L140.926 147.75L143.797 152.151L144.486 152.632L144.458 152.218L145.901 152.465L147.983 154.012L147.041 154.479L146.421 155.573L144.669 157.374L143.726 160.929L142.741 162.736L142.833 163.65L142.628 163.93H141.988L141.481 164.77L141.038 164.857L140.792 165.17L140.869 166.097L140.116 166.438L139.68 167.065Z" fill="#FDFBF5" stroke="#171619" stroke-width="0.5"/>
<path d="M143.769 45.0522L143.966 45.419L145.282 45.399L146.288 46.3261L147.484 46.1193L149.328 47.3399L149.792 47.4266L150.158 47.3199L150.383 47.1198L152.149 47.2198L152.684 46.6196L152.621 46.2928L153.458 44.8255L154.113 44.2052L154 43.4715L153.803 43.4915L153.212 43.4782L152.938 42.6645L152.318 42.1777L152.452 40.8504L151.974 39.89L152.466 38.5761L152.325 38.1359L153.655 36.6086L153.557 36.2084L153.092 36.0283L153.437 34.9079L154.676 33.6607L154.443 32.4735L154.894 31.6465L155.569 31.9999L155.97 31.8332H156.069L156.097 31.1196L156.927 30.5927L156.533 30.2859L156.956 30.2992L157.04 29.3922L159.193 29.4188L159.2 28.3384L159.468 28.1049L160.551 28.0316L161.438 27.0445L161.867 27.0512L161.874 26.6243L162.557 26.5709L162.88 25.9774L162.648 25.6772L162.726 24.5034L163.429 23.9765L163.486 23.1361L164.147 22.6626L165.252 22.7093L165.09 23.2762L165.766 23.7097L166.117 23.563L166.511 24.1566L167.56 24.8769L167.588 25.4971L168.221 25.4905L168.242 26.0974L168.538 26.2041L168.7 25.8306L169.002 25.8173L169.045 25.3838L169.474 24.9769L170.656 25.7839L171.261 25.4771L171.754 25.6305L172.457 24.7435L172.873 24.8169L173.112 24.4434L174.16 25.1503L174.449 25.097L174.54 25.4505L175.511 25.984L176.032 25.7106L177.074 27.6181L177.784 27.6914L177.918 28.245L178.805 28.4918L179.262 28.3851L179.382 28.0916L180.064 28.2183L180.585 27.7648L181.275 27.8648L182.203 27.558L182.478 27.2112L184.075 27.7314L184.153 28.285L184.737 28.7719L185.243 28.5318L185.328 28.0049L185.996 27.5247L187.192 28.345L188.276 28.1183L189.008 28.325L189.212 28.0449L190.345 28.2383L190.542 27.9782L191.766 28.3317L191.844 28.5051L191.999 28.5985L192.428 29.1454L192.618 30.0391L193.8 30.3192L193.314 31.9533L193.49 32.2067L193.188 32.08L192.934 32.3801L192.906 32.7269L193.279 32.9137L192.801 33.3539L192.561 33.1805L192.35 33.3939L193.392 35.8616L192.956 36.3218L193.856 36.6686L193.286 37.0354L193.744 37.4023L192.561 40.657L192.477 41.0572L192.801 41.2706L192.4 41.5907L192.569 42.4111L191.956 44.1385L191.682 44.2986V45.3057L191.45 45.7192L191.365 45.4591L190.985 45.5791L190.739 46.2394L190.394 46.0993L189.923 46.7996L190.774 47.2398L190.556 47.2865L190.493 48.0468L190.774 48.387L190.267 48.5937L190.253 48.8739L189.789 48.8539L189.557 49.6208L188.987 49.6075L188.403 50.1144L188.107 50.9748L186.791 51.1415L186.728 51.7618L186.51 51.5684L185.398 53.0423L185.37 53.4958L185.982 54.1961L185.834 54.9698L186.834 55.1299L187.333 54.9098L187.706 56.3371L186.749 57.5976L185.687 57.7377L185.926 58.5447L185.264 59.8853L186.278 60.8924L185.785 61.4859L186.186 61.7727L186.109 62.1196L186.524 62.7465L186.376 63.7536L186.102 63.7202L186.067 64.0337L185.264 64.0737L184.758 65.6544L183.97 65.8345L183.85 66.3014L183.217 66.1279L182.977 66.3947L182.984 67.3485L183.343 67.4085L183.554 68.0554L183.315 68.3622L183.576 68.2422L183.569 68.5423L183.829 68.4023L184.455 68.8825L184.11 69.0092L184.533 69.8162L184.497 70.0029L184.737 70.1497L183.97 71.3635L183.991 71.4969L183.716 72.2106L184.448 73.6979L183.611 74.5049L183.512 74.9717L182.506 75.2652L182.471 75.5853L182.196 75.3786L182.372 75.7587L181.936 76.1056L181.19 75.9121L179.895 76.7592L179.67 76.6858L179.445 76.0122L179.438 75.9388L179.058 75.8254L178.678 75.8455L177.911 75.9055L177.045 75.5186L176.363 74.9451L176.349 74.5316L175.357 74.5649L174.695 75.592L174.583 76.7725L173.224 77.5062L172.795 77.046L171.859 77.3794L172.042 78.6266L172.915 78.8734L173.506 78.7067L173.372 80.981L173.83 81.3545L173.914 81.888L172.732 82.3416L172.486 82.7017L173.633 84.0023L173.738 84.5292L172.619 85.1361L172.099 85.9565L171.655 85.9365L171.444 86.2099L171.775 86.9302L170.945 87.4104L169.678 87.7772L168.7 87.217L168.031 89.9182L167.447 90.1783L167.095 90.7252L167.349 91.4988L167.039 91.4121L166.075 92.1191L164.689 92.0791L164.175 93.3063L163.141 93.6998L163.106 94.9603L163.894 95.9608L162.465 96.7611L161.656 96.1809L161.867 95.7607L161.628 95.1071L161.797 94.6002L161.487 94.0066L161.262 94.1933L160.199 93.6264L158.602 93.6798L158.215 93.9332L157.758 93.8399L157.603 94.0866L157.272 93.8665L156.829 92.8994L158.391 92.2925L158.623 91.9791L158.504 91.5189L157.16 90.4917L155.295 90.405V89.7248L154.725 89.3913L154.415 88.691L154.296 88.4042L154.275 88.1908L153.895 88.4976L153.902 89.6847L153.585 89.8181L153.24 90.1049L152.804 89.9048L152.459 90.0382L152.248 89.9182L151.347 89.7981L151.551 88.5309L150.876 88.8044L150.207 88.3775L149.595 88.6776L146.759 85.8297L146.189 86.6034L146.02 86.0232L146.196 85.643L146.626 85.6097L146.161 85.1028L146.049 85.0427L145.113 83.9223L144.599 83.7288L144.62 83.4754L144.775 83.262L144.944 83.4087L145.711 82.1282L146.703 81.6013L146.527 80.4808L146.696 79.5204L147.069 79.1469L148.504 79.8472L149.504 79.0335L149.166 78.6133L149.694 76.8926L149.229 75.6654L149.609 75.1652L149.658 74.3248L149.321 73.4978L149.004 73.4378L148.089 72.3039L148.328 71.1568L148.153 70.7699L147.547 70.263L147.329 69.9362L144.613 67.2684L143.628 66.955L142.727 66.1413L142.488 66.208L141.552 65.2809L139.765 65.8478L139.244 65.2476L137.999 64.9541L137.443 62.433L137.83 61.3859L137.71 60.8924L138.449 60.4855L138.899 58.6914L140.138 59.1249L139.983 59.8853L140.264 60.1721L141.988 59.6185L142.009 59.2917L141.686 59.205L141.721 58.3046L141.193 57.711L141.468 56.277L140.933 55.4433L140.968 54.9631L142.277 54.9832L142.798 54.1361L142.966 54.0427L143.227 54.0294L143.529 53.4692L144.5 53.4158L144.437 52.8489L145.141 51.9352L144.5 51.6417L144.585 51.2282L143.621 50.3678L144.268 49.4541L144.296 48.8138L143.593 47.5733L143.558 46.0393L143.769 45.0522Z" fill="#FDFBF5" stroke="#171619" stroke-width="0.5"/>
<path d="M67.2509 4.37476L67.4831 4.79494L68.433 5.0884L68.2712 5.44188L68.6864 5.68198L68.8975 6.2689L70.4033 6.55569L70.1078 6.80247L69.953 6.6424L70.0445 7.06258L70.2837 6.8825L70.0585 7.23599L70.5089 7.28934L70.6707 7.06925L71.0015 7.26266L71.5433 6.86916L72.0288 7.1226L73.4714 7.00255L73.9006 7.20931L75.5824 6.94253L75.9412 7.56279L76.2509 7.33603L77.7356 7.44274L79.2556 8.97673L81.0148 8.71662L83.1258 9.37024L84.8005 9.27019L85.7927 9.7504L86.4682 9.67036L86.5386 9.98383L86.9608 9.8371L89.1985 10.6241L90.6621 10.9309L92.7028 10.9643L92.7239 11.2911L92.1961 11.8913L92.6113 12.9785L92.5128 13.8255L92.0132 14.0656L91.9287 13.6254L90.9154 13.2919L90.4158 14.0923L88.5722 14.3524L88.7622 14.9126L88.4245 16.0731L87.6504 15.9464L87.0241 16.1998L86.9256 16.1532L86.4964 16.2065L85.9123 15.1127L85.1031 14.8526L84.0898 15.4995L83.4776 16.4266L83.0061 16.1532L81.9788 16.2399L81.4721 18.1874L80.7403 18.1607L80.5925 17.8806L79.4596 18.4075L79.4033 18.5275L77.1938 18.7676L76.8279 18.3808L76.3494 18.3674L76.0538 18.5742L75.9201 19.4879L74.2243 19.3545L73.9569 20.1882L71.2477 19.8614L70.1852 19.2878L69.4674 19.668L68.7145 21.0419L68.7708 21.4421L67.9546 21.6088L67.2579 21.6288L66.8779 21.1953L66.3431 21.2087L66.3994 20.8752L65.8928 20.9019L65.0624 20.2282L64.7317 19.1011L63.8451 19.3479L62.6911 18.8476L62.3603 19.9348L61.6004 20.2282L60.8404 19.5479L60.1156 19.5613L59.8693 20.475L59.1586 20.3016L58.7716 19.8281L58.5605 20.0548L57.9624 19.9348L57.885 19.588L57.3642 19.2545L57.0898 19.6947L56.6394 19.7747L56.7169 20.2082L56.365 20.2816L56.1328 21.0152L55.8654 20.9085L55.6965 21.1886L55.2039 20.9419L55.0773 20.9485L55.1688 21.5688L55.9006 21.6555L55.8936 22.2291L55.0843 22.3892L54.838 22.7293L54.4229 22.5292L53.8036 22.896L52.4948 22.6026L51.0312 22.6693L50.3627 22.8027L49.6449 23.6697L49.3916 23.643L49.4268 23.2429L48.4487 22.856L48.125 22.5492L48.2235 21.7756L47.562 21.0219L46.8443 21.0019L45.9506 19.8547L45.9154 20.8418L45.6269 20.8552L45.1484 20.2349L45.451 19.7214L45.7606 19.8814L45.7395 19.2278L46.2602 18.6009L46.7317 18.901L47.1117 18.4808H47.548L48.3361 17.7072L48.4698 17.1936L47.8294 16.4866L47.2735 16.6133L47.3087 16.8468L46.2743 17.4604L45.9225 17.407L45.4721 16.6467L45.7677 16.0865L45.6621 15.6996L45.0851 15.5929L44.9092 15.2127L44.6981 15.4328L43.917 14.6859L43.734 14.0923L43.924 13.1985L43.1641 13.2386L42.5871 12.5649L42.6293 11.5445L42.4604 11.2044L42.0452 11.4245L41.7004 11.2244L41.7849 10.7708L41.7567 10.6841L41.7638 10.0572L43.0937 10.1239L43.3611 9.42359L44.0155 8.99007L44.4518 8.35647L44.2548 8.10969L44.4729 7.56946L44.9655 7.60948L44.487 7.24265L44.5292 6.86916L45.5636 6.95587L45.9858 6.58904L46.0984 6.7291L46.1336 6.4223L47.1821 6.55569L47.4283 6.84248L47.8998 6.51568L48.7231 6.92252L49.9686 6.62906L50.3767 7.07592L50.6441 6.71576L51.3197 6.80247L52.2415 6.49567L52.3963 6.74911L52.6848 6.65574L52.7552 6.93586L53.8388 6.91585L54.0077 7.16929L55.1688 7.08926L55.2251 6.54902L56.0343 6.99588L56.6676 6.81581L57.4557 7.04257L59.3486 6.36895L59.5738 5.94877L60.0171 6.3356L60.2423 6.16886L60.3548 6.48233L60.6363 6.32226L60.6293 6.69575L61.157 6.58237L62.0226 6.93586L63.8732 6.10883L64.3236 6.49567L65.0554 6.32893L65.4143 5.95544L65.2313 5.86206L65.8505 5.6353V5.20178L66.505 5.18844L66.9272 4.87497L66.9483 4.40143L67.2509 4.37476Z" fill="#FDFBF5" stroke="#171619" stroke-width="0.5"/>
<path d="M116.248 15.7729L115.826 14.4257L116.593 14.0855L116.923 14.2589L116.543 14.9592L116.564 15.6595L116.248 15.7729ZM110.464 7.96289L110.478 8.24301L111.167 8.06293L111.385 8.47644L111.808 8.40308L112.082 8.92997L113.433 9.16341L113.567 9.68363L113.004 9.79701L113.532 10.4773L113.869 10.2705L114.728 10.4706L115.544 10.2839L115.509 10.7641L115.924 10.5307L117.36 10.8508L118.014 11.6712L118.781 11.9379L118.704 13.2318L118.063 13.3119L117.711 13.6787L117.416 13.0584L116.389 13.5253L116.086 13.2652L115.558 13.4586L115.382 13.2585L115.242 13.8187L114.404 14.0122L114.109 14.6057L113.131 14.8592L113.285 15.3327L113.412 15.5195L113.736 17.3869L112.321 17.3936L110.759 16.9201L110.182 16.9801L110.02 16.5266L109.288 16.2331L108.648 17.1602L108.634 17.2736L108.233 17.8338L107.304 18.214L107.072 18.7142H105.812L105.313 18.4807L105.425 19.6946L104.616 19.6879L104.109 20.3415L103.434 20.6817L102.737 22.3691L103.054 22.9227L103.877 22.836L103.828 23.2161L105.081 21.8422L105.784 22.5025L105.102 23.2295L104.25 22.9093L104.574 23.4696L103.99 23.4629L104.482 23.663L104.194 24.0298L104.166 24.1699L104.94 24.39L105.102 23.4896L105.629 23.7297L106.038 24.8235L105.925 25.6772L105.137 25.984L104.56 25.5438L104.222 26.4442L103.835 26.3041L102.934 26.6776L102.85 26.4242H102.526L102.414 24.8902L102.118 25.1836L102.217 25.4838L101.893 25.6372L101.984 25.9173L101.59 26.104L101.647 26.4975L100.971 26.6042L100.633 25.8773L99.6763 25.9239L99.0359 25.4171L99.0078 25.1369L99.4793 24.7301L99.9085 24.8568L100.106 24.2566L99.6763 23.9164L98.7193 24.57L98.2478 24.2699L98.2971 22.9493L98.0156 22.8026L97.9734 21.8088L95.8976 21.3753L94.8702 19.8613L93.674 19.1877L93.3854 19.7346L92.5692 19.5612L91.8444 20.2348L90.9437 19.828L90.3245 20.2949L89.473 20.0681L88.4597 20.2015L88.3612 19.3478L87.9179 19.3344L87.9109 18.8609L86.6513 18.194L86.2924 17.607L86.602 16.82L86.2783 16.4132L86.5176 16.2064L86.9468 16.1531L87.0453 16.1998L87.6716 15.9463L88.4457 16.073L88.7834 14.9125L88.5934 14.3523L90.437 14.0922L90.9367 13.2918L91.9499 13.6253L92.0344 14.0655L92.534 13.8254L92.6325 12.9784L92.2173 11.8912L92.7451 11.291L92.724 10.9642L93.5121 11.0776L94.5113 10.8441L95.2009 11.0309L96.0735 10.6641L96.3831 11.0642L97.1994 11.0909L99.2119 10.7641L100.415 10.3239L100.992 9.83703L101.513 9.95708L101.661 9.66362L101.9 9.95041L102.167 9.55691L103.209 9.82369L102.955 9.73699L103.61 9.00334L105.658 8.79658L106.164 8.39641L106.685 8.47644L106.643 8.82326L107.086 9.08337L106.34 9.24344L105.707 9.71698L105.7 9.98376L106.157 10.1372L106.08 10.7041L106.256 10.3439L106.34 10.524L106.783 10.2572L106.537 9.98376L106.797 9.95708L106.896 9.56358L107.41 9.51689L106.938 9.28346L107.649 9.31014L107.888 8.94331L108.536 8.9033L109.352 8.32305L109.95 8.36306L110.464 7.96289ZM100.436 25.0369L100.464 25.0035H100.478L100.732 25.1236L100.809 25.6438L100.57 25.8039L100.38 25.257L100.436 25.0369ZM99.3456 25.1169L99.4511 25.2236L99.43 25.337L99.2189 25.4171L99.0852 25.2436L99.0571 25.177L99.0711 25.1169L99.1415 25.0903L99.3456 25.1169Z" fill="#FDFBF5" stroke="#171619" stroke-width="0.5"/>
<path d="M122.848 30.3728L123.08 30.6462L122.722 30.5128L122.848 30.3728ZM121.856 30.4661L121.722 30.5328L121.743 30.4195L121.793 30.3461L121.779 30.2594L121.772 30.2327L121.962 30.2127L121.948 30.3461L121.856 30.4661ZM124.994 26.0509L125.051 26.0176L126.81 25.8241L128.492 26.5244L129.266 26.3977L129.533 26.8846L130.117 26.5845L129.822 27.5382L129.54 27.8517L129.329 27.7583L129.16 28.2185L129.772 28.9121L130.814 28.532L130.919 29.459L130.328 29.6391L130.209 29.379L128.654 29.4257L128.21 28.8188L127.345 28.7787L127.077 29.0722L126.134 28.9722L125.797 28.1852L125.044 27.9317L124.185 27.1714L124.762 26.1443L124.875 25.8308L124.945 25.9442L124.994 26.0509ZM99.1977 25.1105L99.3455 25.1238L99.4088 25.1505L99.451 25.2239L99.4299 25.3373L99.2188 25.4173L99.0851 25.2439L99.057 25.1772L99.0711 25.1172L99.1414 25.0905L99.1977 25.1105ZM100.619 25.0705L100.739 25.1238L100.816 25.6441L100.577 25.8041L100.387 25.2572L100.471 25.0038H100.485L100.619 25.0705ZM48.4627 22.8162L49.4409 23.203L49.4057 23.6032L49.659 23.6299L50.3767 22.7628L51.0452 22.6294L52.5089 22.5627L53.8177 22.8562L54.4369 22.4894L54.8521 22.6895L55.0984 22.3493L55.9076 22.1892L55.9147 21.6157L55.1828 21.529L55.0914 20.9087L55.218 20.902L55.7106 21.1488L55.8795 20.8687L56.1469 20.9754L56.3791 20.2417L56.7309 20.1684L56.6535 19.7349L57.1039 19.6548L57.3783 19.2146L57.899 19.5481L57.9764 19.8949L58.5745 20.015L58.7857 19.7882L59.1727 20.2618L59.8834 20.4352L60.1297 19.5214L60.8545 19.5081L61.6144 20.1884L62.3744 19.8949L62.7051 18.8078L63.8592 19.308L64.7458 19.0612L65.0765 20.1884L65.9068 20.862L66.4135 20.8353L66.3572 21.1688L66.892 21.1555L67.272 21.589L67.9686 21.569L68.7849 21.4022L68.7286 21.0021L69.4815 19.6281L70.1993 19.248L71.2618 19.8216L73.971 20.1484L74.2384 19.3147L75.9342 19.4481L76.0679 18.5343L76.3634 18.3276L76.8419 18.3409L77.2079 18.7278L79.4174 18.4877L79.4737 18.3676L80.6066 17.8407L80.7544 18.1208L81.4862 18.1475L81.9928 16.2L83.0202 16.1133L83.4917 16.3868L84.1039 15.4597L85.1172 14.8127L85.9264 15.0729L86.5104 16.1667L86.2712 16.3734L86.5949 16.7803L86.2853 17.5673L86.6441 18.1542L87.9037 18.8211L87.9108 19.2947L88.3541 19.308L88.4526 20.1617L89.4659 20.0283L90.3173 20.2551L90.9366 19.7882L91.8373 20.1951L92.5621 19.5214L93.3783 19.6948L93.6668 19.1479L94.8631 19.8216L95.8904 21.3355L97.9663 21.7691L98.0085 22.7628L98.29 22.9096L98.2407 24.2301L98.7122 24.5303L99.6692 23.8766L100.098 24.2168L99.9014 24.817L99.4721 24.6903L99.0007 25.0972L99.0288 25.3773L99.6692 25.8842L100.626 25.8375L100.964 26.5645L101.639 26.4577L101.583 26.0642L101.977 25.8775L101.886 25.5974L102.209 25.444L102.111 25.1439L102.406 24.8504L102.519 26.3844H102.843L102.927 26.6378L103.828 26.2643L104.215 26.4044L104.553 25.504L105.13 25.9442L105.918 25.6374L106.037 24.777L105.629 23.6832L105.102 23.4431L104.94 24.3435L104.166 24.1234L104.194 23.9834L104.482 23.6165L103.99 23.4164L104.574 23.4231L104.25 22.8629L105.102 23.183L105.784 22.456L105.08 21.7957L103.828 23.1697L103.877 22.7895L103.054 22.8762L102.737 22.3226L103.434 20.6352L104.109 20.2951L104.574 19.6415L105.383 19.6482L105.27 18.4343L105.77 18.6677H107.03L107.262 18.1675L108.191 17.7874L108.592 17.2271L108.606 17.1137L109.246 16.1867L109.978 16.4801L110.14 16.9337L110.717 16.8736L112.279 17.3472L113.693 17.3405L116.832 15.7465L117.43 16.4001L118.471 16.2534L118.929 16.5335L118.183 17.7473L118.732 18.1008L118.936 17.9674L119.077 18.2742L118.64 18.8478L118.957 19.0212L118.943 19.955L118.274 20.1484L118.872 20.5152L120.47 20.6152L120.941 21.1488L120.85 21.4156L122.032 22.2026L121.279 22.9429L119.893 23.163L118.809 22.7028L118.851 22.3026L117.338 21.9225L116.177 23.5965L117.528 24.9638L117.711 24.9304L117.416 24.657L117.993 23.91L118.647 24.2168L119.386 23.3497L119.583 23.8633L118.626 25.5307L119.274 25.9108L118.83 26.6912L120.709 26.4978L120.836 27.138L121.321 27.1047V27.1914L122.018 28.0118L122.975 27.9184L123.51 28.2652L123.608 28.8454L123.559 28.8921L123.763 29.359L124.354 29.6124L123.876 30.0393L123.615 29.8726L123.348 30.0726L122.693 29.5924L121.99 29.6791L121.56 29.4457L121.3 29.7525L120.048 29.5391L120.491 30.813L120.202 30.8796L119.654 31.6733L119.091 31.9601L119.274 32.1802L119.942 32.0535L120.252 32.2869L120.174 32.9205L119.808 33.294L120.744 34.3211L120.428 34.848L120.554 36.1753L120.069 35.5417L120.146 35.0614L119.717 35.0481L119.639 35.7951L120.034 35.8018L120.442 36.4087L119.555 36.6288L119.71 37.1957L119.822 37.2757L119.604 37.5759L119.935 39.2232L119.661 40.0169L119.182 40.4037L121.012 43.1049L122.855 43.0515L123.27 44.2387V44.4321L123.883 44.9924L124.467 44.4722L125.311 44.3121L125.607 42.7314L125.656 42.5647L125.994 42.1912L126.416 42.3446L126.725 42.1712L127.267 42.6914L127.218 43.1783L126.317 44.4255L126.528 44.9924L127.324 44.8457L127.901 45.2858L128.836 45.0524L129.667 45.3125L130.293 43.9386L130.919 43.5117L130.955 42.4246L131.489 42.598L132.024 42.3913L132.348 41.8844L134.649 41.6843L135.388 42.0178L135.655 43.0515L136.288 42.7114L138.343 42.8181L138.322 43.2783L137.71 43.6118L138.723 45.0991L138.47 45.3059L138.632 46.1329L140.51 46.5664L140.623 46.6731L141.144 47.1533L141.496 47.1333L143.543 45.9728L143.571 47.5001L144.282 48.7407L144.247 49.3876L143.607 50.2947L144.564 51.155L144.479 51.5685L145.12 51.862L144.416 52.7757L144.479 53.3426L143.515 53.396L143.213 53.9629L142.952 53.9762L142.79 54.0696L142.27 54.9166L140.954 54.8966L140.919 55.3768L141.446 56.2105L141.179 57.6445L141.707 58.2447L141.672 59.1451L141.995 59.2318L141.974 59.5653L140.25 60.1122L139.969 59.8254L140.123 59.0651L138.878 58.6316L138.428 60.4257L137.689 60.8392L137.815 61.3261L137.428 62.3732L137.984 64.9009L139.23 65.1944L139.751 65.7947L139.539 66.595L139.849 67.4487L139.673 67.6688L138.209 66.4683L137.393 67.282L136.394 66.9552L135.81 67.6355L135.24 67.5554L134.649 67.8889L134.009 67.1953L132.826 67.8689L132.573 67.5154L131.855 67.3953L131.588 66.5016L131.074 66.3949L130.919 65.7146L130.532 65.4078L129.815 65.9481L129.414 65.6946L129.709 65.0077L128.9 64.8543L129.442 64.5274L129.512 63.9205L128.752 64.1273L128.435 63.5604L127.239 63.2869L127.07 62.76L126.233 62.78L125.923 63.2336L125.135 63.1602L124.234 62.7533L124.157 61.7129L123.432 61.4595L122.792 61.7729L122.588 62.2865L121.286 62.3732L120.463 62.7333L118.063 62.0197L117.17 62.2798L116.761 63.1535L116.417 62.7333L116.072 63.1669L115.446 63.0868L115.213 63.3069L114.102 63.1935L113.729 62.8334L114.024 63.507L113.94 64.274L113.173 64.234L112.758 64.981L111.983 65.3011L111.808 65.4545L111.765 65.4879L111.547 65.4212H111.329L110.372 65.5412L109.563 66.0881L108.697 67.3487L107.494 68.049L106.72 69.3028L104.567 70.1232L104.011 71.0436L103.701 71.1036L102.913 74.4384L101.97 74.5784L101.161 74.2983L100.647 75.3588L99.4229 76.786L98.9796 76.5793L98.6911 76.6527L97.6778 76.8061L97.2556 77.1129L96.96 77.0128L96.4112 77.353L96.376 77.7531L96.1086 78.0066L96.9389 78.22L97.1711 78.8069L96.96 79.7206L96.3478 80.0541L96.2352 80.4143L96.4604 82.0616L95.9819 82.7486L96.3408 83.3689L94.4268 83.4689L94.0327 83.9558L94.1031 84.8295L93.6809 85.0496L93.8005 85.5565L92.9139 85.7032L92.4354 85.0163L92.0554 85.0763L92.3932 86.2368L91.6332 87.0571L91.8021 87.8775L91.4362 88.0576L90.2188 88.5044L89.48 88.2643L89.3533 87.2706L89.0507 87.0104L89.1633 86.5036L88.3822 86.7103L87.9882 86.9704L87.1367 86.6369L86.8764 87.1505L87.0664 87.624L85.8068 88.4577L85.7505 88.5778L84.8498 89.1647L84.7442 89.9851L83.4213 90.5453L83.2384 90.592L83.0202 89.4315L82.0773 89.6249L81.6762 90.2452L81.4721 90.1718L80.684 91.0055L80.1211 91.1456L79.523 91.2256L79.333 90.6653L78.3689 90.5853L78.2423 90.5586L77.5104 90.632L77.0882 90.512L76.9545 90.4586L76.3353 89.3248L76.3001 88.0509L76.8138 86.9571L75.1883 87.1972L74.365 88.2176L73.8725 88.4444H72.8592L72.7043 88.3977L72.4721 88.2576L72.1836 88.1176L71.6277 88.0042L71.487 87.3372L70.9381 87.2372L70.7904 86.7637L70.157 86.2501L69.2634 86.2034L68.7497 86.5236L68.229 86.3835L68.0249 86.1301L68.3697 85.5298L67.8842 84.6428L66.2728 85.5832L65.7872 86.5569L64.6895 86.2234L64.4925 86.0967L63.9717 85.7432L63.8803 85.6232L63.9225 85.1296L62.2477 84.7361L62.6699 84.5427L62.5996 84.2226L62.8459 84.0358L62.6277 83.9358L62.9725 83.8157L62.5996 83.569L62.5081 83.5356L61.7903 83.2155L62.0225 82.7419L61.4737 82.882L61.2204 82.3551L59.8271 81.6615L57.5753 82.902L57.3079 83.1621L57.1813 83.6357L56.2454 83.729L55.8091 84.3826L55.3447 84.356L53.7825 85.103L53.4588 85.6165L53.5714 86.3101L52.9944 86.797L51.5237 86.9371L51.003 87.444L50.5034 86.8037L49.7645 87.504L49.2227 87.2772H48.8849L48.8146 87.4506L48.2798 87.3306L47.6676 86.837L47.745 86.1034L49.0749 85.3297L49.279 84.5227L48.2305 83.4556L48.0124 82.5152L48.9905 81.0212L48.892 80.1075L48.0968 79.6673L49.0186 77.493L48.3431 75.2854L48.6175 74.0249L48.4276 73.1378L48.9131 73.0511V72.7043L48.7583 72.1707L48.0194 71.7172L47.8083 70.5567L46.6121 69.3095L46.408 68.6892L46.7247 68.4691L47.7731 68.7426L48.7583 68.5092L49.7575 66.9618L49.4971 66.2082L50.8412 65.021L50.9889 64.3674L51.7982 63.4603L52.7341 63.5337L52.917 63.2736L53.2407 63.6604L54.2329 62.78L54.4299 63.0401L54.7888 62.9534L55.0562 62.7533L54.8803 62.4065L55.6684 62.1864L56.2735 61.0393L56.9983 60.7658L56.6957 60.5257L56.752 60.1522L57.1672 59.9455L57.4839 60.299L58.1453 60.0989L57.8427 59.5253L58.5464 58.9717L58.3705 58.5716L60.5589 55.5769L60.2986 55.0234L59.7426 54.8033L58.5464 53.5227L55.7317 52.9024L55.4643 53.296L54.6621 53.5627L53.7121 52.8558L53.7403 51.9287L53.3674 51.4285L54.3736 48.4139L53.3181 48.0537L53.7966 46.8932L53.0015 46.0662L52.3892 46.6931L50.8834 46.8732L49.8912 46.6531L49.4409 45.6193L48.9131 45.4793L48.3361 46.6197L46.1547 46.5997L45.8802 46.0395L45.4229 45.9061L45.3173 45.3859L45.831 44.6055L45.5706 43.9319L44.9233 43.992L44.4659 43.4117L45.0288 43.1516L45.3314 42.2379L46.0139 42.0578L46.1758 41.004L47.0061 40.5838L47.2946 39.9836L48.0968 39.6901L48.9835 40.1636L49.0257 39.7901L48.9272 39.5901L50.0671 38.0094L50.1727 36.4887L49.5394 36.302L49.2649 35.9352L48.512 35.8218L48.1039 35.3883L48.1179 35.3349L48.5824 34.828L48.4487 34.2144L48.7372 33.8676L48.4416 33.2273L47.8435 33.3874L46.408 32.5604L45.824 32.6404L45.5425 33.2273L44.3392 32.9139L43.9874 32.8872L43.6003 32.8672L43.917 32.3403L43.7974 31.7534L44.3885 30.9997L44.1211 30.6929L44.1492 29.8859L44.9584 29.5124L44.2266 28.2385L44.867 27.5382L45.5988 27.4915L45.8451 26.7779L46.3165 27.1047L47.6254 25.9575L47.5902 25.604L48.1109 25.0772L47.555 23.8366L48.2587 23.6432L48.132 23.0363L48.4627 22.8162Z" fill="#FDFBF5" stroke="#171619" stroke-width="0.5"/>
<path d="M97.2768 77.1527L97.699 76.8459L98.7123 76.6925L99.0008 76.6191L99.4441 76.8259L99.1767 77.3461L99.4301 78.3799L98.1212 78.8467L97.8046 78.8734L97.4879 78.7867L97.3331 78.2598L96.9672 78.2665L96.1369 78.053L96.4043 77.7996L97.5935 77.7329L97.2768 77.1527ZM111.357 65.461H111.575L111.794 65.5277L111.836 65.4943L112.012 65.3409L112.786 65.0208L113.201 64.2738L113.968 64.3138L114.052 63.5468L113.757 62.8732L114.13 63.2333L115.242 63.3467L115.474 63.1266L116.1 63.2067L116.445 62.7732L116.79 63.1933L117.198 62.3196L118.092 62.0595L120.491 62.7732L121.314 62.413L122.616 62.3263L122.82 61.8127L123.461 61.4993L124.185 61.7527L124.263 62.7932L125.163 63.2L125.952 63.2734L126.261 62.8198L127.099 62.7998L127.267 63.3267L128.464 63.6002L128.78 64.1671L129.54 63.9603L129.47 64.5673L128.928 64.8941L129.737 65.0475L129.442 65.7344L129.843 65.9879L130.561 65.4476L130.948 65.7544L131.102 66.4347L131.616 66.5414L131.884 67.4352L132.601 67.5552L132.855 67.9087L134.037 67.2351L134.677 67.9287L135.268 67.5952L135.838 67.6753L136.422 66.995L137.421 67.3218L138.238 66.5081L139.701 67.7086L139.877 67.4885L139.568 66.6348L139.779 65.8345L141.566 65.2742L142.502 66.2013L142.741 66.1346L143.642 66.9483L144.627 67.2617L147.343 69.9362L147.561 70.2564L148.174 70.7632L148.35 71.1568L148.11 72.2972L149.025 73.4377L149.342 73.4978L149.679 74.3248L149.63 75.1651L149.25 75.6654L149.715 76.8992L149.187 78.6133L149.525 79.0401L148.525 79.8472L147.09 79.1468L146.717 79.5203L146.541 80.4808L146.717 81.5946L145.725 82.1215L144.958 83.402L144.796 83.2553L144.634 83.4687L144.613 83.7155L145.127 83.9089L146.063 85.0294L146.182 85.0961L146.647 85.603L146.217 85.6363L146.042 86.0165L146.21 86.59L146.787 85.8164L149.623 88.6643L150.235 88.3641L150.904 88.791L151.579 88.5175L151.368 89.7848L151.361 90.2449L152.199 90.8185L152.002 90.9986L152.86 92.8127L154.732 93.0395L154.767 93.1062L155.274 93.2596L156.857 92.8794L157.3 93.8465L156.09 94.3467L155.963 94.7335L156.238 95.2004L156.174 95.4872L155.851 97.7215L154.725 99.3355L154.971 100.269L154.662 100.723L153.986 100.916L153.472 100.683L152.923 100.489L152.269 101.016L151.15 103.11L150.045 103.744L150.383 103.804L150.454 104.898L150.207 105.005L150.376 105.425L150.186 105.892L149.898 105.992L150.059 106.532L150.503 106.592L150.362 106.752H150.784L150.658 107.186H151.087L150.904 107.399L151.171 107.259L151.221 107.219L151.354 107.626L151.08 107.632L151.432 107.752L151.396 108.073L151.312 108.113L151.783 107.786L151.826 107.893L151.868 108.113L151.903 107.679L152.389 107.786L152.185 107.993L152.656 108.026V108.319L152.987 108.293L153.578 108.806L153.74 108.613L153.866 108.646L154.528 108.88H154.64L155.041 108.926L155.154 108.98L155.794 109.213L156.02 108.993L156.892 109.447L156.526 111.681L155.119 114.095L154.971 115.502L155.682 116.003L157.251 118.23L159.369 118.104L159.988 117.743L160.776 117.877L160.988 118.67L161.452 119.064L161.227 119.931L161.473 120.671L161.375 121.578L160.741 121.859L161.621 123.626L160.713 124.54L159.489 124.56L157.772 123.286L157.701 122.652L156.421 122.279L155.457 122.566L155.224 122.672L153.437 124.059L152.98 123.446L152.621 123.566L151.418 124.693L151.34 126.247L150.672 126.694L150.482 127.321L150.812 128.528L150.848 131.009L148.723 132.516L147.203 132.503L146.766 131.836L146.759 131.743L146.942 131.389L146.583 131.056L146.267 131.309L145.76 130.909L145.274 130.949L145.253 131.256L144.782 131.163L144.993 131.469L142.601 132.817L141.2 133.19L139.955 132.623L139.603 132.87L139.35 133.31L138.681 134.204L136.795 134.984L135.754 137.178L134.55 138.126L134.36 139.066L132.798 138.933L131.046 138.052H130.8L130.272 137.759L132.32 135.404L132.179 134.684L132.531 133.564L132.418 133.083L131.581 132.717L131.623 130.529L129.906 130.115L129.984 128.355L129.378 127.834H129.203L127.943 128.248L126.127 127.401L125.923 127.914L125.783 127.801L125.705 128.088L124.959 128.428V128.655L124.812 128.481L124.368 128.708L123.988 129.242L123.545 128.862L122.377 128.855L121.849 129.275L121.687 130.262L120.463 128.668L119.105 129.555L116.431 129.128L115.579 128.635L115.474 128.588L114.552 128.868L114.475 129.075L114.503 129.528L113.581 130.315L112.737 130.516L111.583 130.262L111.435 129.515L110.837 129.308L110.569 129.355L110.457 130.356L109.943 130.609L107.747 129.902L107.558 130.135L106.755 129.875L106.403 129.982L105.932 130.115L105.798 130.642L105.327 131.062L104.194 131.196L100.063 130.942L97.502 130.462L97.2416 130.922L97.4176 131.676L97.0727 131.763L93.9132 130.429L92.2315 128.555L91.8937 128.675L91.7178 128.388L91.3519 128.315L91.1971 128.501L90.6482 127.654L89.8179 127.061L89.1001 126.947L89.0157 126.501L86.1306 125.56L85.7717 123.926L84.4488 123.979L83.3441 123.693L83.1963 123.172L82.4996 122.886L83.6044 122.599L84.6529 119.751L85.0258 119.231L86.2925 119.324L86.6021 118.077L85.2088 117.477L84.8851 117.557L84.104 115.269L85.7154 115.863L86.5106 115.576L86.5739 115.542L86.6935 115.176L86.3628 114.956L86.1658 114.882L85.7999 114.229L86.4543 112.815H86.588L87.0595 112.008L88.3894 112.141L90.1204 112.788L88.9946 111.748L88.882 110.947L88.5301 110.754L87.9883 109.153L89.0086 108.96L89.0508 108.113L89.7264 106.725L89.3394 106.112L88.4035 106.765L88.2557 106.825L87.6857 107.352L86.595 107.552L86.5458 107.599L85.8632 108.039L84.3222 107.479L82.2674 105.291L81.7045 105.171L80.3253 103.564L80.0016 103.291L79.4316 102.65L80.3112 101.61L80.3042 101.39L80.7123 99.9158L80.0509 98.9887L80.3253 98.8353L80.1775 97.8749L79.4175 97.9549L78.5239 99.0154L77.4895 98.8487L77.4121 97.2413L77.9257 96.4276L77.1376 95.7273L75.5825 96.0608L76.3777 93.573L76.3073 90.8452L76.9477 90.4717L77.0814 90.5251L77.5035 90.6451L78.2354 90.5718L78.362 90.5984L79.3261 90.6785L79.5161 91.2387L80.1142 91.1587L80.6771 91.0186L81.4652 90.1849L81.6693 90.2583L82.0704 89.638L83.0133 89.4446L83.2315 90.6051L83.4144 90.5584L84.7373 89.9982L84.8429 89.1778L85.7436 88.5909L85.7999 88.4709L87.0595 87.6372L86.8695 87.1636L87.1298 86.6501L87.9813 86.9835L88.3753 86.7234L89.1564 86.5167L89.0438 87.0236L89.3464 87.2837L89.4731 88.2774L90.2119 88.5175L91.4293 88.0707L92.3652 88.4709L92.6677 88.0707L94.1595 87.5771L94.2088 87.0703L95.1939 86.37L95.2924 85.6697L95.7147 85.9164L95.8413 87.5838L96.158 87.5638L96.3761 87.8706L96.6365 87.6772L96.8194 88.0107L97.2979 87.6705L97.7342 86.7368L98.839 86.2032L99.7608 86.9369L99.7327 87.3704L100.549 87.4571L101.126 86.9035L102.055 87.297L102.02 87.6172L102.674 88.2374L103.406 88.1507L103.483 88.711L103.842 88.3708L104.152 88.6709H104.898L105.658 89.3712L106.199 88.9911L106.889 89.8981L107.424 90.0449L107.853 89.7047L108.472 90.0582L108.88 89.8114L108.972 90.1182L110.02 90.6318L109.746 91.899L108.515 92.8594L108.205 92.7594L107.952 93.5064L107.522 93.6998L107.621 93.8999L107.776 93.9465L107.698 94.1066L107.255 93.9199L107.36 94.2533L107.128 94.4267L107.163 93.9866L106.678 94.4334L106.228 94.24L105.763 94.8269L105.622 94.5535L105.256 94.6202L104.877 94.9003L105.017 95.087L105.003 95.1804L105.151 95.4939L106.319 95.9141L107.121 95.1471L107.248 95.0737L107.494 94.6068L108.163 94.2667L108.402 94.4134L109.753 93.9532L109.535 93.4597L109.823 93.393L110.365 92.8594L111.674 92.6793L111.948 92.0257L112.645 92.2058L113.053 92.0057L113.088 92.2858L113.511 92.0657L114.059 92.3258L114.475 91.859L114.439 91.3854L115.284 91.2387L115.861 91.9057L116.389 92.0324L116.565 91.8123L117.761 91.7456L118.028 91.2187H118.077L118.436 91.0053L118.556 91.6255L119.316 91.6989L119.991 91.4588L120.611 90.6585L119.801 89.8181L119.928 89.3112L120.315 89.4513L119.984 88.7043L120.125 87.8039L119.731 86.6434L119.478 86.3833L118.746 86.8968L118.324 87.5971L117.887 87.2837L118.169 85.7697L118.929 84.856L118.711 84.4358L119.133 83.5621L118.662 82.7484L117.838 82.6817L117.789 80.9676L117.184 80.3674L116.55 80.4274L116.438 80.4741L115.959 80.4474L116.199 79.6337L115.305 79.0268L115.481 78.64L115.171 78.3265L115.432 78.1931L115.46 77.9263L115.572 77.6862L115.122 78.053L114.658 77.833L114.524 77.0726L114.123 76.7458L113.898 77.266L113.56 76.9926L113.208 77.1393L113.187 77.066L112.737 76.7925L113.356 75.8454L113.046 75.652L113.117 75.0317V74.9584L112.779 74.5249L111.885 74.4248L112.701 73.1243L112.589 72.5907L113.201 72.2172L112.835 71.6036L113.166 71.5969L113.687 69.6694L114.067 69.3426L113.236 68.3622L113.489 67.4218L112.272 67.1417L111.871 66.1479L111.301 65.8278L111.357 65.461Z" fill="#FDFBF5" stroke="#171619" stroke-width="0.5"/>
<path d="M217.485 34.2076L216.416 34.0475L217.035 33.1805L217.134 33.8674L217.485 34.2076ZM238.94 41.9242L239.229 42.4244L239.94 42.5245L239.799 42.6712L240.622 43.5649L240.334 44.1385L240.341 45.0856L240.151 45.0589L240.594 45.8859L240.995 45.986L241.051 46.4595L240.756 46.6529L240.601 47.64L240.102 47.9735L240.003 48.4537L239.51 48.5937L239.138 49.094L238.568 49.0139L237.456 50.628L236.161 51.1548L235.359 52.1686L233.093 52.8356L232.593 53.1957L232.326 53.816L227.661 55.7168L224.818 57.4976L222.735 58.3313L221.299 60.1187L220.765 61.3592L221.032 60.2921L220.645 61.0991L220.335 61.1325L220.307 61.3192L220.631 61.2258L220.124 62.0729L219.533 62.5197L217.753 63.0533L216.078 63.1333L214.889 63.7336L213.883 63.7469L212.496 64.1671L212.229 64.4806L212.349 64.2405L208.056 65.1275L205.861 66.2547L204.003 66.3747L202.983 66.9883L202.807 67.0417L202.962 66.7949L202.279 67.035L201.575 68.1088L200.717 67.6286L199.253 67.8754L198.015 68.4423L195.615 70.6966L194.285 72.6241L193.518 73.1043L193.321 73.6579L192.54 74.1114L193.124 74.9584L194.109 74.9918L193.349 74.4515L193.884 74.4248L195.08 75.8255L196.34 76.1256L195.376 77.0993L193.666 77.953L192.09 79.8672L191.14 80.0073L190.64 79.4403L190.957 79.6071L190.929 79.2269L191.689 79.7071L191.921 79.5537L191.562 79.327L192.801 79.1469L193.406 78.1131L192.421 77.9797L191.829 78.3399L190.647 78.4466L190.711 78.72L190.485 78.58L189.444 79.7405L188.973 80.8076L187.523 80.2207L187.614 79.4937L186.826 78.9134L185.63 78.7734L184.511 78.2798L184.223 77.9063L184.61 76.8192L184.469 76.7659L184.413 76.7058L184.223 76.5258L183.779 76.5791H183.674L183.456 75.8255L182.914 76.0255L182.386 75.7921L182.21 75.4053L182.485 75.612L182.52 75.2919L183.519 75.0051L183.625 74.5382L184.462 73.7312L183.73 72.2439L184.005 71.5236L183.983 71.3902L184.75 70.1764L184.518 70.0296L184.546 69.8496L184.124 69.0425L184.476 68.9158L183.85 68.4356L183.582 68.569L183.589 68.2689L183.329 68.3956L183.561 68.0821L183.35 67.4419L182.991 67.3752V66.4214L183.231 66.1546L183.864 66.328L183.983 65.8612L184.772 65.6811L185.278 64.1004L186.08 64.0604L186.123 63.7469L186.397 63.7803L186.545 62.7732L186.13 62.1462L186.207 61.7994L185.806 61.5126L186.299 60.9124L185.278 59.9119L185.947 58.5714L185.707 57.771L186.763 57.6243L187.72 56.3704L187.347 54.9365L186.84 55.1566L185.841 54.9965L185.989 54.2228L185.377 53.5225L185.405 53.069L186.517 51.595L186.728 51.7951L186.791 51.1749L188.107 51.0081L188.403 50.1544L188.987 49.6409L189.564 49.6609L189.796 48.8939L190.26 48.9139L190.274 48.6338L190.781 48.427L190.507 48.0802L190.57 47.3199L190.788 47.2732L189.937 46.833L190.408 46.1327L190.753 46.2661L190.999 45.6058L191.379 45.4857L191.471 45.7459L191.703 45.3323V44.3252L191.97 44.1652L192.582 42.4378L192.413 41.6241L192.815 41.304L192.491 41.0905L192.575 40.6904L193.758 37.429L193.307 37.0621L193.877 36.6953L192.976 36.3485L193.413 35.8883L192.371 33.4206L192.575 33.2071L192.815 33.3805L193.3 32.9404L192.927 32.7536L192.955 32.4001L193.209 32.1L193.511 32.2267L193.328 31.9733L193.821 30.3392L192.639 30.0591L192.449 29.1654L192.019 28.6185L191.872 28.5251L191.794 28.3584H192.069L192.188 27.9315L191.829 26.9244L191.428 26.791L191.9 26.2908L191.485 26.1041L191.97 25.5639L191.745 24.7435L192.702 24.1699L193.997 24.7835L194.496 24.6968L195.51 25.0103L196.854 25.9307L197.508 25.5238L197.958 25.9974L199.148 26.1374L199.781 25.9507L200.731 26.7844L200.822 27.4313L201.505 27.9182L202.68 27.4447L203.116 27.7581L205.087 27.6514L204.981 28.0449L205.678 28.3851L205.692 28.8853L206.177 29.2321L206.29 29.9591L206.754 30.4993L206.445 31.0129L206.775 31.393L206.206 32.1267L206.895 32.04L207.24 32.7603L206.311 33.4272L206.726 33.634L206.867 34.5611L208.823 34.6878L209.048 34.0875L209.386 34.2876L209.752 33.8407L210.878 33.8474L211.145 32.9404L211.772 33.2738L212.18 32.9937L212.926 33.3539L213.672 33.2538L214.354 33.4739L215.156 34.2809L216.184 34.1876L216.268 34.7478L216.613 34.9412L216.747 35.9216L217.76 36.7553L219.083 36.4085L219.231 36.035L219.681 35.875L219.843 35.2413L220.427 34.9079L221.306 35.1013L222.369 34.5544L223.073 34.9345L223.516 34.8478L224.198 35.3614L225.74 35.6482L225.768 36.0817L226.675 36.9487L227.808 37.1155L228.055 36.6219L228.491 36.5086L230.313 36.9421L230.363 36.4885L229.94 35.7882L230.285 35.8016L230.335 35.3947L231.172 34.9879L231.918 34.8612L232.354 35.1947L233.29 34.5277L233.529 34.0475L233.909 34.1609L234.148 33.8407L235.021 34.1075L235.584 33.4739L235.964 33.8808L237.357 33.6873L238.244 34.8612L238.898 34.5677L239.94 34.6344L239.63 34.8012L239.82 35.0746L239.482 35.6615L239.743 35.7416L239.525 35.9617L239.672 36.4485L240.13 36.662L240.27 37.0555L240.918 36.6753L241.361 37.1888L241.678 36.9421L242.051 37.3022L242.74 37.4423L242.065 37.8291L242.304 38.2893L241.875 38.2426L242.079 38.7495L241.91 39.0496L241.424 39.0563L241.607 39.4298L240.932 39.103L240.749 39.5765L240.017 39.2297L239.813 38.7695L239.187 39.1764L238.75 40.2168L238.94 41.9242Z" fill="#FDFBF5" stroke="#171619" stroke-width="0.5"/>
<path d="M47.6534 86.8437L48.2656 87.3439L48.8004 87.4573L48.8708 87.2905L49.2156 87.2839L49.7574 87.5106L50.4963 86.8103L50.9959 87.4506L51.5096 86.9371L52.9873 86.797L53.5643 86.3101L53.4517 85.6165L53.7824 85.1029L55.3376 84.3559L55.809 84.3826L56.2453 83.729L57.1812 83.6356L57.3079 83.1621L57.5753 82.902L59.82 81.6548L61.2133 82.3484L61.4666 82.882L62.0155 82.7419L61.7832 83.2155L62.501 83.5356L62.5854 83.5689L62.9654 83.8157L62.6136 83.9358L62.8387 84.0425L62.5854 84.2292L62.6628 84.5494L62.2406 84.7361L63.9154 85.1363L63.8731 85.6298L63.9576 85.7499L64.4783 86.1034L64.6753 86.2301L65.7731 86.5636L66.2586 85.5965L67.8771 84.6561L68.3626 85.5431L68.0178 86.1434L68.2219 86.3968L68.7355 86.5369L69.2492 86.2167L70.1429 86.2634L70.7762 86.777L70.924 87.2505L71.4728 87.3506L71.6136 88.0175L72.1695 88.1309L72.458 88.271L72.6902 88.411L72.838 88.4577L73.8583 88.451L74.3509 88.2243L75.1742 87.2038L76.7997 86.9637L76.286 88.0575L76.3212 89.3314L76.9404 90.4652L76.3 90.8387L76.3775 93.5666L75.5823 96.0476L77.1374 95.7142L77.9326 96.4078L77.4189 97.2281L77.4963 98.8355L78.5307 99.0022L79.4244 97.9418L80.1773 97.8617L80.3251 98.8155L80.0506 98.9689L80.7121 99.896L80.304 101.37L80.311 101.597L79.4314 102.637L80.0014 103.277L80.3251 103.551L81.7043 105.158L82.2602 105.278L84.3149 107.466L85.863 108.026L86.5456 107.593L86.5878 107.546L87.6855 107.346L88.2485 106.819L88.4033 106.759L89.3321 106.105L89.7262 106.719L89.0506 108.106L89.0084 108.953L87.9881 109.153L88.5299 110.747L88.8818 110.941L88.9944 111.748L90.1202 112.788L88.3892 112.141L87.0592 112.008L86.5808 112.808H86.4541L85.7997 114.222L86.1656 114.882L86.3626 114.956L86.6933 115.176L86.5737 115.543L86.5104 115.576L85.7152 115.863L84.1038 115.269L84.8778 117.55L85.2015 117.47L86.5948 118.07L86.2852 119.318L85.0186 119.231L84.6527 119.744L83.6042 122.592L82.4994 122.879L81.5143 123.393L79.8606 123.153L80.1914 124.046L80.1632 124.1L79.8325 124.14L79.8395 124.493L79.6073 124.313L79.5299 124.547L79.3751 124.293L79.2696 124.713L79.1007 124.54L78.4814 125.28L77.7989 125.607L77.433 126.034L77.4963 126.374L76.3 126.254L75.8708 126.941L76.0256 127.274L75.6949 127.101L75.4205 127.548L75.4979 127.721L74.1961 128.555L74.1046 129.035H73.4291L72.9224 129.342L72.2117 130.442L72.1906 130.816L72.7113 131.289L72.4017 132.143L73.3165 133.657L73.2883 134.991L73.2179 135.031L72.9717 135.465L73.0772 135.978L72.3524 136.272L72.2187 136.698L71.2266 136.545L69.8614 137.839L69.3196 137.686L69.1859 136.758L70.0585 136.232L69.8685 135.871L70.0866 135.765L70.2695 136.005L70.2414 135.518L69.4463 135.164L68.8904 135.538L68.4048 135.425L68.06 135.678L67.0678 135.745L66.5682 136.118L66.5119 136.645L65.6394 137.265L65.5831 137.652L65.9842 138.132L65.4846 138.619L65.1398 139.806L63.268 139.746L62.0155 140.053L60.7629 141.06L60.3689 140.567L59.6441 140.633L59.3907 140.36L58.4056 140.193L57.9693 139.773L57.8708 139.74L57.3571 139.32L57.1601 138.553L56.2875 138.339L55.5698 138.406L55.7387 138.613L55.225 139.006L55.3376 139.406L55.1124 139.546L53.7473 139.046H53.5221L53.0577 139.179L52.9732 138.286L52.6707 137.939L52.1851 137.452L51.7911 137.632L50.4259 137.405L49.9122 137.605L49.476 137.425L49.4549 137.139L48.716 137.145L49.0186 135.625L48.0545 135.651L46.422 134.958L46.3165 134.638L45.9224 134.678L45.6198 134.991L45.4509 134.824L44.8387 134.984L44.5151 135.451L43.7903 135.385L43.4736 135.725L42.4463 134.391L42.1437 133.297L41.82 133.21L39.8849 130.629L39.7441 129.989L39.0475 129.535L38.6957 129.622L39.4134 128.748L38.9138 128.675L39.2797 127.188L40.4197 125.334L39.8849 124.993L40.1171 123.019L41.0741 122.506L42.6151 120.938L43.2555 120.858L43.8606 120.011L44.4025 119.771L44.5221 119.411L44.1773 118.751L46.0139 116.03L45.838 115.349L45.3243 114.429L44.4728 113.895L43.0444 114.302L42.4603 114.095L42.2844 113.782L42.5307 112.648L40.9685 112.115L40.476 111.654L40.3211 110.747L40.6308 110.114L39.2023 108.786L38.8927 107.733L39.343 106.926L39.4345 105.845L38.4283 105.198L38.1116 105.345L37.802 105.132L37.619 104.204L36.8731 104.098L36.1624 103.097L35.5573 102.824L35.0295 101.257L34.748 101.07L36.3594 101.123L38.6745 101.623L40.286 101.01L42.2633 101.33L42.6996 101.09L43.8184 101.217L44.8035 100.91L45.5706 98.522L45.3947 97.5883L46.0139 97.3149L46.8512 96.3878L46.9076 94.9605L47.2242 94.7004L47.3157 93.6466L47.7168 92.8929L46.2602 90.6053L45.1061 90.3852L44.5221 88.7712L44.881 87.8241L45.7535 87.564L45.9998 87.0905L46.809 87.1705L47.6534 86.8437Z" fill="#FDFBF5" stroke="#171619" stroke-width="0.5"/>
<path d="M8.55043 40.1635L8.90227 40.557L8.45895 40.4436L8.55043 40.1635ZM8.38155 39.123L8.78264 39.67L8.46599 40.0568L8.63487 39.7433L8.38155 39.123ZM8.31822 35.6282L7.8538 36.6153L7.83972 35.9684L8.09305 35.5482L8.31822 35.6282ZM6.53089 33.4406L6.80532 33.7808L6.60829 33.9475L6.53089 33.4406ZM9.19781 31.2597L9.28929 31.4931L9.54965 31.4264L9.63409 31.92L9.33151 31.9733L9.40891 32.4202L9.21892 32.4468L9.07115 32.2268L9.27521 32.2734L9.10634 32.06L9.3104 31.6465L8.87412 31.3864L9.19781 31.2597ZM27.3526 2.27388L27.7959 1.55357L28.0352 1.70697L28.4785 1.43352L28.6544 1.68696L28.4222 2.40727L28.8233 3.03421L28.3519 2.74075L28.3237 3.57444L28.0633 3.65447L28.4292 3.96127L27.7889 3.98795L28.2674 4.24806L28.8303 3.90125L28.5207 3.28765L29.147 3.17427L29.3229 3.52108L29.6607 3.4077L29.2244 3.03421L29.5762 2.87414L29.5411 2.64071L31.2439 2.02711L31.9406 1.37349L31.9054 1L32.4121 1.42018L31.6802 2.38059L32.0602 2.52732L32.2221 2.11381L32.9187 1.95374L33.0806 2.72741L33.4957 2.83412L33.355 3.79453L33.5942 4.34811L33.7139 3.68782L34.0727 3.45439L33.9179 2.98752L34.4316 3.02754L34.4597 2.52065L35.0931 2.36058L35.283 2.69406L36.1626 2.67405L35.9938 3.07422L38.3018 3.99462L38.6748 4.98171L39.477 5.80206L39.2236 6.02216L39.5614 5.92212L40.3988 6.38898L40.1947 6.76248L39.9273 6.7358L40.2932 6.88253L40.1173 7.02926L40.5676 6.56239L41.982 6.95589L42.9531 6.75581L44.276 6.90254L44.3956 7.39608L44.086 7.82293L44.0227 8.99677L43.3683 9.43029L43.1009 10.1306L41.7709 10.0639L41.7569 10.6842L41.792 10.7709L41.7076 11.2244L42.0524 11.4245L42.4605 11.2044L42.6364 11.5045L42.5942 12.525L43.1712 13.1986L43.9312 13.1586L43.7412 14.0523L43.9242 14.6459L44.7053 15.3929L44.9163 15.1728L45.0923 15.5529L45.6693 15.6596L45.7748 16.0465L45.4793 16.6067L45.9296 17.367L46.2815 17.4204L47.3159 16.8068L47.2807 16.5734L47.8366 16.4466L48.4769 17.1536L48.3432 17.6672L47.5551 18.4408H47.1189L46.7389 18.861L46.2674 18.5609L45.7467 19.1878L45.7678 19.8414L45.4582 19.6814L45.1556 20.1949L45.6341 20.8152L45.9226 20.8018L45.9578 19.8148L46.8515 20.9619L47.5692 20.9819L48.2307 21.7356L48.1321 22.5092L48.4558 22.816L48.1321 23.0228L48.2588 23.6297L47.5551 23.8231L48.111 25.0637L47.5903 25.5906L47.6255 25.9441L46.3167 27.0912L45.8452 26.7644L45.5989 27.478L44.8671 27.5247L44.2268 28.225L44.9586 29.4989L44.1493 29.8724L44.1212 30.6794L44.3886 30.9862L43.7975 31.7399L43.9171 32.3268L43.6005 32.8537L43.9875 32.8737L44.3393 32.9004L45.5426 33.2138L45.8241 32.6269L46.4081 32.5469L47.8436 33.3739L48.4418 33.2138L48.7373 33.8541L48.4488 34.2009L48.5825 34.8145L48.1181 35.3214L48.104 35.3748L48.5121 35.8083L49.2651 35.9217L49.5395 36.2885L50.1728 36.4752L50.0673 37.9959L48.9273 39.5766L49.0258 39.7767L48.9836 40.1502L48.097 39.6766L47.2948 39.9701L47.0063 40.5703L46.1759 40.9905L46.0141 42.0443L45.3315 42.2244L45.0289 43.1381L44.466 43.3982L44.9234 43.9785L45.5708 43.9184L45.8311 44.5921L45.3174 45.3724L45.423 45.8926L44.9304 46.4529L43.7553 46.4862L43.3894 45.886L42.7983 45.5725L41.6583 45.7192L41.4543 46.6529L41.7006 47.2199L41.2995 48.1469L39.0688 49.034L38.2737 49.0873L38.0837 48.8339L36.9789 49.8743L36.4863 48.6005L35.656 48.3737L34.9945 49.114L33.369 49.3741L33.5802 48.4537L33.9038 48.1736L32.4754 48.0802L31.6662 47.4933L30.9625 47.8535L30.5614 47.7067L29.9633 48.0802L29.0977 48.1736L28.2674 48.8672L28.0281 48.6071L28.1407 47.1398L27.803 47.0198L27.4441 48.2003L26.3604 48.327L25.6709 49.3408L24.8757 49.6876L23.4965 49.8743L22.7858 49.6409L22.6732 48.2736L22.0751 48.347L21.7866 47.4333L22.821 45.7125L23.4543 45.1323L24.2424 44.8855L24.3198 44.0985L23.7569 43.3182L22.4269 43.5983L22.1384 41.4974L21.6458 42.0043L21.2025 41.8576L20.9914 42.2711L19.8303 42.7313L19.57 43.1981L18.9578 43.0581L18.606 43.3916L17.8038 43.4983L17.4378 43.2515L15.9601 43.3115L15.8616 43.7117L15.4816 43.9118L13.828 44.0452L13.3565 44.5254L13.1947 45.199L11.6536 46.1127L11.4496 46.8264L10.2111 47.3866L9.26115 48.5204L9.06411 48.1936L8.90931 45.8459L9.14856 45.179L8.6771 42.4778L9.08523 42.4912L9.63409 42.0643L9.95075 42.4511L10.1478 42.3578L10.2463 41.7775L9.6552 41.3774L10.183 41.3707L10.3237 40.617L11.0344 40.1835L11.337 39.5299L11.7592 39.5099L11.5059 39.5632L11.7381 39.6833L13.2791 38.256L14.222 38.196L13.9335 37.6624L14.2361 36.8287L13.828 36.5886L13.7506 37.2489L13.2932 37.529L13.3213 38.1093L12.3081 38.4828L12.2025 38.1626L11.9421 38.2093L11.8225 38.5828L11.2948 38.9096L10.95 38.7829L10.767 39.1897L10.3659 38.8763L10.0352 39.0697L9.55669 38.8296L9.40891 39.1897L9.22596 39.1097L9.55669 37.6691L10.0352 38.4227L10.3096 38.4161L10.2533 37.5824L9.90148 36.9688H10.577L10.8796 37.2356L11.4918 36.9421L12.0547 35.8483L13.455 34.8145L12.878 34.9813L12.7092 34.5211L11.1188 35.795L10.3518 35.4748L9.88742 35.8817L9.07819 35.128L9.24707 34.6278L8.9867 34.0942L8.48007 33.9675L8.20564 34.2476L7.87491 33.9342L7.99453 33.534L8.91634 33.5006L8.87412 33.1938L9.26115 33.0071L9.56372 33.7141L9.24707 33.9808L9.30337 34.321L9.83112 33.9608L10.2955 34.2876L10.0211 33.4806L10.4644 33.1938L10.2252 32.8804L10.3941 32.3268L10.0915 32.5736L9.89445 31.8066L10.2815 31.5931L9.99297 31.5331L10.0633 31.1996L10.7248 31.0996L11.2877 30.566L11.0485 30.2392L11.4918 29.4322L11.2174 29.2922L10.5559 29.699L10.2181 29.4722L10.3941 28.9854L9.85927 28.4585L9.8663 29.0987L9.64816 28.992L9.45113 29.4589L9.89445 29.8057L9.50039 29.9591L9.5215 30.446L8.93745 30.3459L9.19781 29.8057L8.69116 29.6523L7.98045 30.4193L8.31822 30.9395L7.71305 30.9862L7.50899 31.353L7.01642 31.4531L6.99531 32.2001L5.96091 32.6403L6.14386 31.6465L5.72165 31.193L5.37686 31.4331L5.05316 31.1863L6.00313 29.7457L6.35497 27.8916H6.62237L7.07975 27.1312L7.67788 27.0045L8.30415 26.0241L8.59265 25.9107L9.05708 26.3909L8.78968 25.9174L8.86005 25.3505L9.51446 25.0103L9.21892 24.9903L9.03597 25.2971L8.69821 24.8436L8.62783 25.6439L8.31118 25.7706L8.18452 25.5372L7.61454 26.2175L7.25567 25.864L7.23456 26.2308L6.58718 26.1575L6.51681 25.6373L6.08757 26.0174L5.65832 25.9907L5.94683 26.4643L5.15872 27.2179L4.95465 26.8311L4.60986 26.8511L4.27208 25.9174L3.96247 25.7573L4.78577 25.1437L4.7154 24.6635L4.3143 24.6035L3.93432 23.8898L4.34949 23.0295L3.71619 22.9228L3.06176 21.7956L3.27287 22.816L2.75919 22.7827L2.53401 22.1824L2.27365 22.1958L2.25957 22.5493L1.66146 22.7894L1.59108 23.6898L1.35887 23.4496L1.44332 22.9694L1 22.6826L1.08444 22.2358L1.64738 21.4154V20.6685L1.90774 20.7885L2.0344 20.5751L1.47849 20.4283L1.06333 19.2945L1.50665 19.5613L1.84441 19.4079L1.86552 18.4008L2.54808 18.5075L2.58327 17.8339L3.27287 18.4542L3.69508 17.6472L4.42689 17.3804L3.65286 17.5338L3.63878 16.9202L3.28694 17.6271L2.89289 17.5004L2.69586 16.6867L2.98436 16.8601L3.34324 16.5734L3.45583 15.9264L3.80767 16.1532L3.94136 15.8264L4.22987 15.9531L4.32838 15.773L5.2713 16.1865L6.01721 15.8931L6.58014 14.906L6.87568 15.3128L7.19234 15.006L7.86786 15.046L7.82565 15.3595L8.18452 15.1928L8.40266 14.6926H8.71227L8.39562 14.6325L7.88897 15.2194L8.01564 14.8993L7.73416 14.1657L7.26975 14.1923L6.98124 13.8522L7.63565 13.3787L8.18452 13.6788L8.24081 13.3853L8.57858 13.4053L8.52229 12.6917L9.21189 12.9251L9.28226 12.6717L9.76778 12.7517L9.88037 12.1114L10.9218 13.1319L12.4277 13.4587L14.3276 12.6717L15.3057 12.9585L15.7349 12.8384L16.1924 12.5383L16.4738 11.758L16.8257 11.9114L17.2268 11.7246L17.6138 11.151L18.1486 11.4845L18.2893 10.9843L18.6271 11.5312L18.2471 11.6579L18.613 11.878L18.6622 12.4449L18.606 12.1781L19.2744 12.0514L19.4926 11.2711L19.1689 11.2044L19.2674 10.8176L20.0907 10.5841L20.3229 11.1043L20.921 11.1644L21.2306 11.6046L21.1533 11.958L21.9625 12.5516L21.8991 12.1981L22.1243 12.3115L21.7514 11.8913L21.9554 11.6379L21.7373 10.9043L22.0258 10.4907L22.645 10.4507L22.6661 10.244L22.2088 10.1039L21.8147 10.3373L21.5473 10.0639L20.9914 10.3307L20.5903 9.89049L19.8796 9.67039L20.1329 9.62371L19.9781 9.41028L20.7451 9.19019L20.8366 9.39694L21.0688 9.11682L21.5684 9.37693L22.0891 9.28356L22.4762 8.97009L22.4128 8.69664L22.6661 8.8367L22.828 8.36983L21.491 8.99677L21.5121 8.75667L21.1884 8.83003L21.2236 8.4432L20.8225 9.09681L20.2666 9.26355L19.8796 9.01678L19.4574 9.31024L19.2955 9.15017L19.8514 8.33649L19.6826 7.78291L20.2948 7.38941L19.7389 6.7358L19.9851 6.52904L20.3299 6.86252L20.9844 6.82917L22.3002 5.7287L22.3847 5.22848L23.0391 5.32186L23.018 5.80873L23.2924 4.88167L23.8694 4.74161L24.2142 4.08799L24.3409 4.81497L24.6365 4.66157L24.9883 4.92835L24.5872 4.52818H24.946L24.9249 4.24806L24.5309 4.25473L24.7913 3.13425L25.3542 2.90082L25.9805 3.12091L26.9023 2.52732L26.9304 2.20719L27.3526 2.27388Z" fill="#FDFBF5" stroke="#171619" stroke-width="0.5"/>
<path d="M143.557 46.0394L141.51 47.1999L141.158 47.2199L140.637 46.7397L140.525 46.633L138.646 46.1994L138.484 45.3724L138.737 45.1657L137.724 43.6784L138.336 43.3449L138.357 42.8847L136.303 42.778L135.669 43.1181L135.402 42.0843L134.663 41.7509L132.362 41.951L132.038 42.4578L131.504 42.6646L130.969 42.4912L130.934 43.5783L130.307 44.0052L129.681 45.3791L128.851 45.119L127.915 45.3524L127.338 44.9122L126.543 45.059L126.332 44.492L127.232 43.2448L127.281 42.758L126.74 42.2377L126.43 42.4111L126.008 42.2578L125.67 42.6312L125.621 42.798L125.332 44.352L124.488 44.5121L123.904 45.0323L123.292 44.472V44.2786L122.876 43.0914L121.033 43.1448L119.203 40.4436L119.682 40.0568L119.956 39.2631L119.626 37.6158L119.844 37.3156L119.731 37.2356L119.576 36.6687L120.463 36.4486L120.055 35.8417L119.661 35.835L119.738 35.088L120.167 35.1013L120.09 35.5815L120.575 36.2152L120.449 34.8879L120.765 34.361L119.83 33.3339L120.195 32.9604L120.273 32.3268L119.963 32.0934L119.295 32.2201L119.112 32L119.675 31.7132L120.224 30.9195L120.512 30.8528L120.069 29.579L121.321 29.7924L121.582 29.4856L122.011 29.719L122.715 29.6323L123.369 30.1125L123.636 29.9124L123.897 30.0792L124.375 29.6523L124.664 29.8724L124.678 30.3793L125.121 30.2993L125.093 30.8128L124.699 31.0463L124.755 31.313L125.121 31.6665L125.199 31.3464L125.431 31.4398L125.874 31.0663L126.163 30.0325L126.627 30.0392L127.732 30.6995L127.542 32.04L127.289 32.6203L127.83 32.4002L127.809 32.8004L128.231 32.9604L128.421 33.454L129.217 32.9671L129.414 33.7208L129.892 33.1939L130.631 33.4473L130.504 33.1538L131.039 32.5669L130.948 33.2872L131.665 33.3873L132.207 33.1338L132.728 33.3072L133.15 33.7141L134.051 33.9208L134.185 34.2476L134.445 34.1876L134.375 33.9075L134.536 33.8341L135.099 34.1076L135.113 33.8541L135.31 33.9075L135.444 34.1476L135.564 34.4077L136.225 34.5211L136.183 34.7745L136.711 34.9413L136.683 35.128L137.246 35.0747L137.541 35.3348L137.865 35.0747L138.688 35.0346L138.568 35.5349L139.279 36.2885L139.11 36.8221L139.483 36.9021L140.454 36.2752L140.884 36.4219L141.376 36.6754L141.468 37.1155L141.904 37.1089L142.108 37.429L142.354 37.2889L142.432 37.9492L143.304 38.2427L143.262 39.1297L143.607 39.1898L143.67 38.963L144.247 39.2231L144.36 39.71L146.217 40.0968L146.499 40.597L146.921 40.5904L146.534 41.0639L146.907 41.5841L146.506 41.8509L146.189 42.0243L145.408 41.5908L144.93 41.8976L144.142 41.5441L142.84 43.1982L142.579 43.8451L142.713 44.5321L143.579 45.1857L143.747 45.0723L143.557 46.0394ZM121.701 30.5127L121.737 30.4193L121.786 30.346L121.772 30.2593L121.765 30.2326L121.955 30.2126L121.941 30.346L121.849 30.4527L121.715 30.5194L121.701 30.5127ZM122.729 30.486L122.848 30.3793L123.081 30.6528L122.722 30.5194V30.486H122.729Z" fill="#FDFBF5" stroke="#171619" stroke-width="0.5"/>
<path d="M97.2769 77.1526L97.5936 77.7262L96.4044 77.7929L96.4395 77.3927L96.9884 77.0526L97.2769 77.1526ZM111.357 65.4609L111.329 65.8478L111.899 66.1679L112.3 67.1617L113.518 67.4418L113.264 68.3822L114.095 69.3626L113.715 69.6894L113.194 71.6169L112.863 71.6236L113.229 72.2372L112.617 72.6107L112.73 73.1442L111.913 74.4448L112.807 74.5448L113.145 74.9784V75.0517L113.074 75.672L113.384 75.8654L112.765 76.8125L113.215 77.0859L113.236 77.1593L113.588 77.0126L113.926 77.286L114.151 76.7658L114.552 77.0926L114.686 77.8529L115.15 78.073L115.601 77.7062L115.488 77.9463L115.46 78.2131L115.2 78.3465L115.509 78.6599L115.333 79.0468L116.227 79.6537L115.988 80.4674L116.466 80.4941L116.579 80.4474L117.212 80.3873L117.817 80.9876L117.866 82.7017L118.69 82.7684L119.161 83.5821L118.739 84.4558L118.957 84.8759L118.197 85.7897L117.916 87.3036L118.352 87.6171L118.774 86.9168L119.506 86.4033L119.759 86.6634L120.153 87.8239L120.013 88.7243L120.343 89.4712L119.956 89.3312L119.83 89.8381L120.639 90.6784L120.02 91.4788L119.344 91.7189L118.584 91.6455L118.465 91.0253L118.106 91.2387H118.056L117.789 91.7656L116.593 91.8323L116.417 92.0524L115.889 91.9256L115.312 91.2587L114.468 91.4054L114.503 91.8789L114.088 92.3458L113.539 92.0857L113.117 92.3058L113.081 92.0257L112.673 92.2258L111.977 92.0457L111.702 92.6993L110.393 92.8794L109.852 93.4129L109.563 93.4796L109.781 93.9732L108.43 94.4334L108.191 94.2867L107.522 94.6268L107.276 95.0937L107.149 95.167L106.347 95.934L105.179 95.5139L105.031 95.2004L105.045 95.107L104.905 94.9203L105.285 94.6401L105.651 94.5734L105.791 94.8469L106.256 94.26L106.706 94.4534L107.192 94.0065L107.157 94.4467L107.389 94.2733L107.283 93.9398L107.726 94.1266L107.804 93.9665L107.649 93.9198L107.551 93.7197L107.98 93.5263L108.233 92.7793L108.543 92.8794L109.774 91.919L110.049 90.6518L109 90.1382L108.909 89.8314L108.501 90.0782L107.881 89.7247L107.452 90.0648L106.917 89.9181L106.228 89.0111L105.686 89.3912L104.926 88.6909H104.18L103.87 88.3908L103.511 88.7309L103.434 88.1707L102.702 88.2574L102.048 87.6371L102.083 87.317L101.154 86.9235L100.577 87.4771L99.7609 87.3904L99.789 86.9568L98.8672 86.2232L97.7624 86.7568L97.3262 87.6905L96.8477 88.0306L96.6647 87.6972L96.4044 87.8906L96.1862 87.5838L95.8696 87.6038L95.7429 85.9364L95.3207 85.6896L95.2222 86.3899L94.237 87.0902L94.1878 87.5971L92.696 88.0907L92.3934 88.4908L91.4575 88.0907L91.8234 87.9106L91.6545 87.0902L92.4145 86.2699L92.0768 85.1094L92.4567 85.0493L92.9352 85.7363L93.843 85.6363L93.7234 85.1294L94.1456 84.9093L94.0752 84.0356L94.4692 83.5487L96.3832 83.4487L96.0244 82.8284L96.5029 82.1414L96.2777 80.4941L96.3903 80.1339L97.0025 79.8004L97.2136 78.8867L96.9814 78.2998L97.3473 78.2931L97.5021 78.82L97.8187 78.9067L98.1354 78.88L99.4442 78.4132L99.1909 77.3794L99.4583 76.8592L100.683 75.4319L101.196 74.3714L102.006 74.6516L102.949 74.5115L103.737 71.1767L104.046 71.1167L104.602 70.1963L106.755 69.3759L107.529 68.1221L108.733 67.4218L109.598 66.1612L110.407 65.6143L111.357 65.4609Z" fill="#FDFBF5" stroke="#171619" stroke-width="0.5"/>
<path d="M165.048 145.522L164.907 146.309L165.308 147.676L164.816 146.389L165.048 145.522ZM164.886 144.808L164.844 145.209L165.21 145.515L164.83 145.242L164.682 144.842L164.886 144.808ZM134.318 139.099L134.508 138.159L135.712 137.212L136.753 135.017L138.639 134.237L139.307 133.343L139.561 132.903L139.913 132.656L141.158 133.223L142.558 132.85L144.951 131.503L144.74 131.196L145.211 131.289L145.232 130.982L145.718 130.942L146.225 131.343L146.541 131.089L146.9 131.423L146.717 131.776L146.724 131.869L147.16 132.536L148.68 132.55L150.805 131.042L150.77 128.561L150.44 127.354L150.63 126.727L151.298 126.28L151.375 124.726L152.579 123.599L152.938 123.479L153.395 124.093L155.182 122.706L155.415 122.599L156.379 122.312L157.659 122.686L157.73 123.319L159.447 124.593L159.932 126.494L159.475 127.661L159.7 128.275L158.187 129.628L158.468 129.769L158.335 131.723L160.375 131.943L160.798 132.957L160.375 134.857L159.433 136.325L159.552 137.358L161.797 141.407L163.183 142.801L164.098 143.241L164.499 143.188L164.766 144.488L164.077 143.841L163.704 144.782L162.923 145.422L162.613 146.076L163.781 147.543L164.977 148.15L165.393 147.623L165.688 148.09L165.97 148.063L165.336 148.79L164.168 149.057L163.45 149.517L162.972 149.29L162.36 149.444L161.551 150.004L160.727 149.851L160.643 149.67L161.044 149.617L160.481 149.49L160.298 149.21L160.481 148.997L160.115 148.923L160.214 149.377L159.827 149.284L159.538 149.577L158.574 149.324L157.877 149.684L157.554 150.064L157.863 150.471L156.801 150.311L156.695 149.891L156.076 149.457L155.274 149.397L155.056 149.83L153.712 149.717L152.29 150.984L151.164 151.451L150.644 152.912L150.017 152.718L149.201 153.332L148.554 153.432L147.941 154.019L145.859 152.472L144.416 152.225L144.444 152.638L143.755 152.158L140.884 147.756L140.757 147.63L140.546 146.536L140.877 145.922L140.616 144.822L140.877 143.294L141.278 142.767L141.137 142.594L141.017 142.601L140.673 142.461L140.363 142.721L139.582 142.381L139.16 142.614L138.407 141.987L137.485 142.261L135.944 141.127L135.064 139.639L134.318 139.099Z" fill="#FDFBF5" stroke="#171619" stroke-width="0.5"/>
<path d="M147.449 12.9919L148.019 13.112L147.892 13.7056L148.321 14.4792L148.933 14.5326L149.313 13.8123L149.194 13.5789L150.13 13.4388L151.122 13.999L152.079 13.9657L152.649 14.4792V16.0332L152.276 16.32L152.03 17.5606L150.904 18.5343L151.537 19.5748L153.191 20.0149L153.374 18.3742L153.845 17.914L154.781 17.7873L154.035 19.0012L154.922 19.6348L155.858 19.4214L157.188 20.115L157.237 20.5152L157.772 20.1217L158.412 20.7086L159.735 20.9087L160.03 21.3422L161.044 21.8691L161.769 21.6156L161.959 21.8357L163.626 21.9291L164.668 21.5089L165.132 22.0692L165.005 22.3359L165.252 22.7094L164.147 22.6628L163.485 23.1363L163.429 23.9767L162.726 24.5035L162.648 25.6774L162.88 25.9775L162.557 26.5711L161.874 26.6245L161.867 27.0513L161.438 27.0446L160.551 28.0317L159.467 28.1051L159.2 28.3385L159.193 29.419L157.04 29.3923L156.955 30.2994L156.533 30.286L156.927 30.5928L156.097 31.1197L156.069 31.8334H155.97L155.569 32.0001L154.894 31.6466L154.443 32.4736L154.675 33.6608L153.437 34.908L153.092 36.0285L153.557 36.2086L153.655 36.6087L152.325 38.1361L152.466 38.5763L151.973 39.8902L152.452 40.8506L152.318 42.1778L152.937 42.6647L153.212 43.4784L153.803 43.4917L154 43.4717L154.113 44.2053L153.458 44.8256L152.621 46.2929L152.684 46.6197L152.149 47.22L150.383 47.1199L150.158 47.32L149.792 47.4267L149.328 47.34L147.484 46.1195L146.288 46.3263L145.281 45.3992L143.966 45.4192L143.769 45.0524L143.6 45.1724L142.734 44.5121L142.6 43.8318L142.854 43.1782L144.163 41.5309L144.944 41.8843L145.422 41.5775L146.203 42.0111L146.52 41.8377L146.921 41.5709L146.548 41.0507L146.935 40.5771H146.513L146.224 40.0769L144.367 39.6901L144.254 39.2032L143.677 38.9431L143.614 39.1632L143.269 39.1032L143.311 38.2228L142.439 37.9293L142.368 37.269L142.122 37.4091L141.918 37.0956L141.489 37.1023L141.39 36.6554L140.898 36.402L140.475 36.2553L139.504 36.8822L139.131 36.8022L139.307 36.2686L138.589 35.5149L138.709 35.0147L137.886 35.0547L137.562 35.3149L137.267 35.0547L136.704 35.1148L136.725 34.928L136.204 34.7546L136.246 34.5012L135.578 34.3878L135.458 34.1343L135.331 33.8942L135.127 33.8409L135.113 34.0943L134.55 33.8209L134.381 33.8942L134.459 34.1744L134.199 34.2344L134.065 33.9143L133.164 33.7075L132.742 33.3007L132.728 32.7871L133.312 32.6137L133.234 30.6328L132.735 30.4394L132.172 31.3732L131.968 30.893L131.44 30.913L131.271 30.1927L131.595 30.2727L132.186 29.4457L132.876 29.0588L133.488 29.2056L133.699 29.5324L133.523 29.7525L135.226 29.3189L135.289 28.9254L135.205 28.6853L134.874 28.8187L134.628 27.5582L134.761 27.1714L135.81 26.9379L135.465 25.9909L136.373 24.6569L136.19 23.5365L136.035 23.323L136.26 23.3297L136.288 22.6161L136.809 21.9825L137.372 22.3359L138.392 22.2159L138.836 22.0158L139.082 21.3822L140.074 21.2155L140.285 20.7819L140.025 19.9616L140.412 19.5548L140.461 19.328L140.567 18.9211L141.812 18.3142L142.671 17.3738L142.333 16.9403L142.453 15.1662L143.065 15.5797L143.177 14.9995L143.459 15.4863L143.684 15.1995L143.846 15.1662L144.747 14.646L144.782 13.8856L144.993 13.6589L145.035 13.6122L145.324 13.6389L145.957 13.3054L146.675 12.9719L147.449 12.9919Z" fill="#FDFBF5" stroke="#171619" stroke-width="0.5"/>
<path d="M206.705 122.425L207.043 122.952L207.346 122.886L207.458 123.479L208.183 124.053L208.443 124.166L209.189 123.726L209.499 124.26L209.274 124.66L208.338 124.626L207.627 124.053L206.874 123.886L205.664 124.907L205.572 123.092L205.882 122.726L206.058 122.886L206.466 122.679L206.593 121.865L206.705 122.425ZM206.382 121.278L206.579 121.792L206.283 121.558L206.382 121.278ZM208.549 113.835L208.971 114.389L209.865 114.455L209.745 114.635L209.97 114.722L209.619 114.816L209.555 115.109L210.188 115.929L209.492 116.216L209.414 116.816L208.521 116.956L208.457 117.597L208.246 117.663L208.415 117.844L208.063 117.804L207.423 118.591L207.043 118.484L207.036 118.811L206.712 118.51L206.684 118.817L206.346 118.804L206.03 119.431L206.086 120.471L205.671 120.225L205.411 120.498L204.897 119.578L204.432 119.911L204.397 119.671L204.017 119.778V119.464L203.511 119.378L203.053 119.918L202.596 119.558L202.385 118.831L202.821 117.97L202.42 117.523L202.687 117.15L202.99 117.343L204.165 117.197L203.743 116.73L204.01 116.343L203.919 115.823L204.841 115.316L205.171 114.836L205.495 115.102L205.741 114.702L206.29 114.742L206.431 114.409L206.733 114.669L207.627 113.989L207.831 114.262L208.021 113.908L208.549 113.835ZM235.704 112.748L236.133 112.888L235.76 113.142L235.781 113.622L235.077 113.608L234.993 112.808L235.275 113.235L235.232 112.961L235.626 113.101L235.704 112.748ZM223.776 102.857L223.249 103.211L223.91 102.59L223.776 102.857ZM240.651 94.1133L240.461 94.4802L239.553 94.967L239.103 94.8803L238.708 95.5406L238.35 95.2538L238.117 95.5006L238.181 96.0542L238.589 96.4943L240.475 95.754L240.193 95.9608L240.341 96.441L239.989 96.9212L238.934 97.0613L238.92 97.7749L239.285 98.3952L239.82 98.862L241.439 99.5157L242.881 98.7953L243.247 98.1017L244.894 99.1488L245.4 99.1088L245.281 99.6891L245.78 99.8625L245.337 100.096L245.323 101.243L245.049 101.23L244.957 101.743L244.401 101.69L244.134 102.043L243.979 102.79L244.324 103.037L243.838 103.131L243.634 103.697L242.945 103.998L243.099 104.091L242.086 105.225L241.84 106.905L241.601 106.672L241.72 106.892L241.129 107.979H240.911L241.052 108.113L240.179 108.386L239.863 108.966L239.391 108.886L237.963 110.314L237.533 110.394L236.83 109.36L236.302 109.22L236.365 108.7L235.774 108.133L235.225 108.093L234.916 108.386L234.346 108.066L233.431 108.019L233.304 108.279L232.882 108.026L232.509 108.126L231.622 107.092L231.721 106.272L231.242 105.465L231.749 104.651L230.243 103.457L229.561 103.491L229.737 103.344L229.533 103.317L229.357 103.751L229.673 103.651L229.526 103.851L229.026 103.697L228.723 104.184L227.745 104.351L227.893 104.645L227.633 104.791L227.429 105.905L226.809 105.558L226.535 105.712L226.591 105.125L226.155 104.791L226.605 104.511L226.077 104.064L225.451 104.391L225.515 104.058H225.191L224.846 104.451L224.853 104.138L224.368 104.178L224.881 103.838L224.543 103.891L224.051 103.411L224.241 102.464L226.267 101.343L227.548 100.176L228.069 100.203L228.66 99.8158L229.3 98.882L230.131 98.4952L230.243 98.035L230.483 97.8816L230.708 98.0817L230.827 97.6148L232.277 96.9345L232.333 96.5677L233.621 96.441L233.79 96.1209L235.352 95.4406L235.633 95.0471L236.26 95.3205L237.407 94.6402L237.329 94.8203L237.766 94.7536L237.744 95.0604L238.371 94.6936L238.877 94.7803L239.75 94.1267L240.038 94.1L239.912 94.3267L240.651 94.1133ZM258.953 96.7078L256.427 95.1338L254.977 94.6069L253.83 94.9804L252.381 94.9937L252.571 93.1262L251.895 93.1996L251.762 92.686L252.36 91.9524L253.211 91.799L253.809 91.759L254.253 92.0858L254.485 91.6856L255.343 91.9657L256.357 91.6256L256.765 91.9457L257.44 91.5522L257.3 91.072L257.63 91.1454L257.511 91.7656L257.722 92.1191L258.292 91.679L258.172 92.5527L258.432 92.3526L258.362 91.5989L259.045 91.7456L258.819 92.3592L259.221 92.6527L259.474 92.4126L259.671 93.333L259.706 92.8661L259.945 93.2463H260.902L260.628 93.3397L260.846 93.5931L260.621 94.0133L260.902 94.1267L260.818 94.4335L261.106 94.3201L261.205 95.2338L261.634 95.5606L261.676 95.9875L262 96.0808L261.676 96.2276L261.402 95.7407L260.663 95.6206L261.409 95.9675L261.62 96.3476L261.55 97.128L260.952 97.6749L259.72 97.3014L258.953 96.7078Z" fill="#FDFBF5" stroke="#171619" stroke-width="0.5"/>
<path d="M125.825 9.61713L126.458 9.37036L126.683 10.0373L127.591 10.6176L128.457 10.3708L129.006 10.9777L129.322 10.9044L129.653 11.2178L130.068 11.0044L130.314 11.4246L131.074 11.3445L131.996 12.3583L134.023 13.2787L135.402 13.3654L136.45 12.9652L136.873 13.1386L136.936 12.9452L137.182 13.4188L137.816 13.6055L140.236 12.7451L140.989 12.8785L140.954 12.6318L141.559 12.3183L142.432 12.3583L143.726 11.2912L144.838 10.891L145 11.7114L144.515 11.9915L145.45 12.1782L145.851 12.5117L145.964 13.2854L145.331 13.6189L145.042 13.5922L145 13.6322L144.789 13.859L144.754 14.626L143.853 15.1462L143.691 15.1795L143.466 15.4596L143.185 14.9794L143.072 15.553L142.46 15.1462L142.34 16.9203L142.678 17.3538L141.819 18.2875L140.574 18.8945L140.475 19.3013L140.426 19.5281L140.039 19.9282L140.3 20.7486L140.095 21.1821L139.096 21.3488L138.85 21.9758L138.407 22.1759L137.386 22.2959L136.823 21.9424L136.296 22.576L136.267 23.2897L136.035 23.283L136.19 23.4964L136.373 24.6169L135.465 25.9508L135.81 26.8979L134.762 27.1313L134.628 27.5182L134.867 28.7854L135.198 28.6453L135.289 28.8854L135.226 29.2789L133.523 29.7124L133.706 29.4923L133.488 29.1655L132.883 29.0188L132.193 29.4056L131.602 30.2393L131.278 30.1526L131.447 30.8796L131.975 30.8596L132.179 31.3398L132.742 30.4061L133.242 30.5928L133.319 32.5803L132.735 32.7537L132.749 33.2606L132.228 33.0872L131.687 33.3407L130.969 33.2406L131.06 32.5203L130.525 33.1072L130.652 33.4007L129.913 33.1472L129.435 33.6741L129.238 32.9205L128.443 33.4074L128.253 32.9138L127.83 32.7537L127.852 32.3536L127.31 32.5737L127.563 31.9934L127.753 30.6528L126.648 29.9926L126.184 29.9859L125.895 31.0197L125.452 31.3932L125.22 31.2998L125.142 31.6199L124.776 31.2664L124.72 30.9997L125.114 30.7662L125.142 30.2527L124.699 30.3327L124.685 29.8258L124.396 29.6057L123.805 29.3523L123.601 28.8854L123.651 28.8387L123.552 28.2585L123.017 27.9117L122.06 28.005L121.364 27.1847V27.098L120.878 27.1313L120.751 26.4911L118.873 26.6845L119.316 25.9041L118.669 25.524L119.626 23.8566L119.429 23.343L118.69 24.2101L118.035 23.9033L117.458 24.6503L117.754 24.9237L117.571 24.9571L116.22 23.5898L117.381 21.9158L118.894 22.2959L118.851 22.6961L119.935 23.1563L121.321 22.9362L122.074 22.1959L120.892 21.4089L120.984 21.1421L120.512 20.6085L118.915 20.5085L118.317 20.1417L118.985 19.9482L118.999 19.0145L118.683 18.8411L119.119 18.2675L118.978 17.9607L118.774 18.0941L118.225 17.7406L118.971 16.5268L118.514 16.2466L117.472 16.3934L116.874 15.7398L113.736 17.3338L113.412 15.4663L113.285 15.2796L113.131 14.806L114.109 14.5526L114.404 13.959L115.242 13.7656L115.382 13.2053L115.558 13.4054L116.086 13.212L116.389 13.4721L117.416 13.0053L117.712 13.6255L118.063 13.2587L118.704 13.1787L118.781 11.8848L119.274 11.8448L119.499 12.1315L119.633 11.638H119.858L120.829 12.2449L121.103 12.0582L120.892 12.2383L121.343 12.5717L121.462 12.0048L121.026 11.3712L121.645 11.1511L122.299 10.4041L122.75 10.4108L122.743 9.83056L125.375 9.97062L125.825 9.61713ZM116.248 15.7731L115.826 14.4259L116.593 14.0857L116.923 14.2591L116.543 14.9594L116.565 15.6597L116.248 15.7731ZM124.819 25.7974L124.868 25.8108L124.938 25.9241L125.051 26.0175L126.81 25.8241L128.492 26.5244L129.266 26.3977L129.533 26.8846L130.117 26.5844L129.822 27.5382L129.54 27.8516L129.329 27.7583L129.16 28.2185L129.773 28.9121L130.814 28.5319L130.92 29.459L130.328 29.6391L130.209 29.379L128.654 29.4256L128.21 28.8187L127.345 28.7787L127.077 29.0722L126.135 28.9721L125.797 28.1851L125.044 27.9317L124.185 27.1713L124.762 26.1442L124.819 25.7974Z" fill="#FDFBF5" stroke="#171619" stroke-width="0.5"/>
<path d="M151.347 89.7981L152.248 89.9182L152.466 90.0382L152.804 89.9048L153.24 90.1049L153.585 89.8181L153.901 89.6848L153.894 88.4976L154.274 88.1908L154.295 88.4042L154.415 88.691L154.718 89.3913L155.288 89.7248L155.295 90.4051L157.152 90.4918L158.503 91.5189L158.623 91.9791L158.391 92.2925L156.829 92.8995L155.245 93.2796L154.739 93.1262L154.704 93.0595L152.832 92.8328L151.973 91.0187L152.17 90.8386L151.333 90.265L151.347 89.7981ZM157.272 93.8666L157.61 94.0866L157.758 93.8399L158.215 93.9399L158.602 93.6798L160.199 93.6331L161.262 94.2L161.487 94.0133L161.797 94.6069L161.628 95.1138L161.867 95.7674L161.656 96.1875L162.465 96.7678L163.894 95.9675L163.098 94.9604L163.141 93.7065L164.168 93.313L164.682 92.0791L166.061 92.1258L167.025 91.4188L167.335 91.5055L167.081 90.7319L167.433 90.185L168.017 89.9249L168.693 87.217L169.664 87.7773L170.937 87.4104L171.768 86.9369L171.437 86.2166L171.648 85.9431L172.091 85.9632L172.612 85.1361L173.724 84.5292L173.618 84.0023L172.471 82.6951L172.718 82.3349L173.9 81.8881L173.815 81.3478L173.358 80.9743L173.492 78.7L172.908 78.8668L172.035 78.6133L171.852 77.3661L172.788 77.0326L173.217 77.4928L174.575 76.7659L174.688 75.5854L175.342 74.5583L176.335 74.5249L176.356 74.9384L177.038 75.512L177.904 75.8988L178.671 75.8388L179.051 75.8188L179.431 75.9388L179.438 76.0122L179.663 76.6792L179.888 76.7592L181.183 75.9122L181.929 76.0989L182.365 75.7521L182.893 75.9855L183.435 75.7854L183.653 76.5391H183.758L184.202 76.4857L184.392 76.6658L184.448 76.7259L184.589 76.7792L184.202 77.8663L184.49 78.2398L185.609 78.7334L186.805 78.8734L187.593 79.4537L187.502 80.1807L188.951 80.7676L188.241 82.2949L188.206 82.1148L187.122 83.6888L186.946 84.7026L185.363 86.6368L184.617 87.177L184.216 88.2308L182.83 89.0712L181.901 91.2721L180.036 92.4326L178.987 95.1938L177.855 96.4943L177.51 96.521L175.638 99.4556L175.061 101.33L174.076 102.377L172.978 104.658L173.013 106.085L172.746 105.892L172.985 106.279L172.668 106.419L173.26 108.866L174.969 112.254L174.533 112.541L174.575 113.268L176.053 116.73L178.706 119.491L181.493 120.078L181.19 120.171L181.324 120.371L181.422 120.178V120.438L182.886 121.138L182.604 121.398L182.759 121.852L183.125 122.172L183.392 122.072L183.582 122.719L182.597 123.086L181.971 124.006L181.577 123.866L180.979 124.186L180.507 124.813L180.683 125.147L180.029 124.907L179.656 125.28L179.037 125.167L178.53 125.453L177.869 126.374L178.115 126.747L177.221 127.634L176.187 127.374L175.772 127.828L173.59 128.481L171.894 129.535L171.346 130.429L171.353 131.623L170.536 131.396L169.699 132.223L169.882 131.836L169.453 132.03L169.157 133.23L169.361 135.024L169.08 135.344L167.736 135.371L167.321 135.771L166.793 137.412L166.708 139.68L166.321 140.273L165.695 140.473L165.28 141.747L164.689 142.061L164.471 143.208L164.07 143.261L163.155 142.821L161.769 141.427L159.524 137.379L159.404 136.345L160.347 134.878L160.769 132.977L160.347 131.963L158.306 131.743L158.44 129.789L158.159 129.649L159.672 128.295L159.446 127.681L159.904 126.514L159.418 124.613L160.643 124.593L161.55 123.679L160.671 121.912L161.304 121.632L161.403 120.725L161.156 119.984L161.382 119.117L160.917 118.724L160.706 117.93L159.918 117.797L159.299 118.157L157.181 118.284L155.611 116.056L154.901 115.556L155.048 114.149L156.456 111.734L156.822 109.5L155.949 109.046L155.724 109.267L155.084 109.033L154.971 108.98L154.57 108.933H154.457L153.796 108.7L153.669 108.666L153.507 108.86L152.916 108.346L152.586 108.373V108.079L152.114 108.046L152.318 107.839L151.833 107.733L151.797 108.166L151.755 107.946L151.713 107.839L151.242 108.166L151.326 108.126L151.361 107.806L151.009 107.686L151.284 107.679L151.15 107.272L151.101 107.312L150.833 107.452L151.016 107.239H150.587L150.714 106.805H150.292L150.432 106.645L149.989 106.585L149.827 106.045L150.116 105.945L150.306 105.478L150.137 105.058L150.383 104.951L150.313 103.858L149.975 103.797L151.08 103.164L152.199 101.07L152.853 100.543L153.402 100.736L153.916 100.97L154.591 100.776L154.901 100.323L154.654 99.3889L155.78 97.7749L156.104 95.5406L156.167 95.2538L155.893 94.7869L156.02 94.4001L157.272 93.8666Z" fill="#FDFBF5" stroke="#171619" stroke-width="0.5"/>
<path d="M49.6 228.28C48.32 228.28 47.1067 228.173 45.96 227.96C44.8267 227.733 43.9533 227.48 43.34 227.2V223.24H47.74C47.74 223.653 47.8333 223.953 48.02 224.14C48.2067 224.327 48.5467 224.42 49.04 224.42C49.4533 224.42 49.7467 224.36 49.92 224.24C50.1067 224.107 50.2 223.913 50.2 223.66C50.2 223.447 50.1133 223.267 49.94 223.12C49.7667 222.96 49.4667 222.8 49.04 222.64L47.32 222.04C45.84 221.48 44.7733 220.82 44.12 220.06C43.48 219.3 43.16 218.273 43.16 216.98C43.16 215.407 43.6733 214.213 44.7 213.4C45.74 212.573 47.4667 212.16 49.88 212.16C51.04 212.16 52.1267 212.28 53.14 212.52C54.1667 212.747 54.9933 213.053 55.62 213.44V217.02H51.62C51.62 216.353 51.2067 216.02 50.38 216.02C49.98 216.02 49.6933 216.073 49.52 216.18C49.36 216.273 49.28 216.447 49.28 216.7C49.28 216.927 49.3733 217.107 49.56 217.24C49.76 217.373 50.08 217.513 50.52 217.66L52.26 218.26C53.6733 218.74 54.7 219.367 55.34 220.14C55.9933 220.9 56.32 221.9 56.32 223.14C56.32 224.833 55.7467 226.113 54.6 226.98C53.4667 227.847 51.8 228.28 49.6 228.28ZM56.8766 224.72H57.8766V215.72H56.8766V212.44H65.6566C67.3766 212.44 68.6899 212.813 69.5966 213.56C70.5032 214.293 70.9566 215.487 70.9566 217.14C70.9566 218.793 70.5032 219.993 69.5966 220.74C68.6899 221.473 67.3766 221.84 65.6566 221.84H63.4766V224.72H65.3966V228H56.8766V224.72ZM64.1566 219C64.9299 219 65.3166 218.573 65.3166 217.72V217C65.3166 216.56 65.2166 216.24 65.0166 216.04C64.8299 215.827 64.5432 215.72 64.1566 215.72H63.4766V219H64.1566ZM84.33 224.72H85.13V228H77.29V224.72H78.49L78.17 223.12H75.45L75.13 224.72H76.33V228H69.49V224.72H70.29L73.67 212.44H80.95L84.33 224.72ZM75.89 221H77.73L76.91 217.02H76.71L75.89 221ZM85.7633 228V224.72H86.7633V215.72H85.7633V212.44H93.3633V215.72H92.3633V224.72H93.3633V228H85.7633ZM105.682 212.44H112.242V215.72H111.242V228H105.622L99.7617 218.98V224.72H100.722V228H94.1617V224.72H95.1617V215.72H94.1617V212.44H101.382L106.642 220.46V215.72H105.682V212.44Z" fill="#FDFBF5"/>
</svg>
