<svg fill="none" height="272" viewBox="0 0 263 272" width="263" xmlns="http://www.w3.org/2000/svg"><path d="m45.4 250.72h1v-9h-1v-3.28h9.18c1.6667 0 2.9667.34 3.9 1.02s1.4 1.653 1.4 2.92c0 .787-.1867 1.453-.56 2-.3733.533-.8133.94-1.32 1.22-.4933.267-.9733.447-1.44.54v.2c.9467.093 1.8.393 2.56.9s1.14 1.413 1.14 2.72c0 1.4-.5267 2.427-1.58 3.08-1.0533.64-2.42.96-4.1.96h-9.18zm7.68-5.72c.3867 0 .6733-.1.86-.3.2-.213.3-.54.3-.98v-.72c0-.44-.1-.76-.3-.96-.1867-.213-.4733-.32-.86-.32h-1.08v3.28zm.14 5.72c.3867 0 .6733-.1.86-.3.2-.213.3-.54.3-.98v-.88c0-.44-.1-.76-.3-.96-.1867-.213-.4733-.32-.86-.32h-1.22v3.44zm22.3678 0h.8v3.28h-7.84v-3.28h1.2l-.32-1.6h-2.72l-.32 1.6h1.2v3.28h-6.84v-3.28h.8l3.38-12.28h7.28zm-8.44-3.72h1.84l-.82-3.98h-.2zm9.8733 3.72h1v-9h-1v-3.28h9.18c1.72 0 3.0333.353 3.94 1.06s1.36 1.853 1.36 3.44c0 .893-.18 1.667-.54 2.32s-.8733 1.107-1.54 1.36l.02.2c1.28.2 1.92.987 1.92 2.36v1.54h.94v3.28h-6.34v-4.7c0-.52-.08-.913-.24-1.18-.1467-.267-.3867-.447-.72-.54-.32-.093-.78-.14-1.38-.14v3.28h1.32v3.28h-7.92zm7.68-5.72c.3867 0 .6733-.1.86-.3.2-.213.3-.54.3-.98v-.72c0-.44-.1-.76-.3-.96-.1867-.213-.4733-.32-.86-.32h-1.08v3.28zm16.0759 9.28c-2.5198 0-4.4665-.64-5.8398-1.92-1.36-1.28-2.04-3.327-2.04-6.14 0-5.373 2.6133-8.06 7.8398-8.06 1.267 0 2.44.153 3.52.46 1.094.307 1.907.647 2.44 1.02v5h-4.8v-1.44c0-.507-.113-.88-.34-1.12-.226-.24-.566-.36-1.02-.36-.453 0-.7931.12-1.0198.36s-.34.613-.34 1.12v6.04c0 .507.1133.88.34 1.12s.5668.36 1.0198.36c.454 0 .794-.12 1.02-.36.227-.24.34-.613.34-1.12v-1.62h4.8v5.18c-.546.373-1.36.713-2.44 1.02-1.066.307-2.226.46-3.48.46zm6.674-.28v-3.28h1v-9h-1v-3.28h13.5v6.04h-4.48v-2.76h-2.42v3.16h1.76v2.28h-1.76v3.56h2.42v-3.16h4.48v6.44zm14.258 0v-3.28h1v-9h-1v-3.28h8.44v3.28h-1.84v9h1.8v-1.84h3.98v5.12zm20.586.28c-2.44 0-4.327-.64-5.66-1.92-1.32-1.28-1.98-3.327-1.98-6.14s.66-4.86 1.98-6.14c1.333-1.28 3.22-1.92 5.66-1.92s4.32.64 5.64 1.92c1.333 1.28 2 3.327 2 6.14s-.667 4.86-2 6.14c-1.32 1.28-3.2 1.92-5.64 1.92zm0-3.56c.453 0 .793-.12 1.02-.36s.34-.613.34-1.12v-6.04c0-.507-.113-.88-.34-1.12s-.567-.36-1.02-.36-.793.12-1.02.36-.34.613-.34 1.12v6.04c0 .52.113.9.34 1.14.227.227.567.34 1.02.34zm19.84-12.28h6.56v3.28h-1v12.28h-5.62l-5.86-9.02v5.74h.96v3.28h-6.56v-3.28h1v-9h-1v-3.28h7.22l5.26 8.02v-4.74h-.96zm22.008 12.28h.8v3.28h-7.84v-3.28h1.2l-.32-1.6h-2.72l-.321 1.6h1.201v3.28h-6.84v-3.28h.8l3.38-12.28h7.28zm-8.44-3.72h1.84l-.82-3.98h-.2z" fill="#ea346c"/><g fill="#fdfbf5"><path d="m139.68 167.065-.007.426-.865.341-.31.673-1.21.307-1.541-1.801-1.042-.78-.936-.16-1.147.693-.95-.6.247.24-.31-.213-1.583.433-1.183 2.155-.478.486-1.013.381-1.344.04-.824-.541-.668.234-1.414-1.294-1.021.32-5.27-.367-1.619.354-.506.54-1.056.46-1.154-.073-.887-.634.078.154-.634.08-.886-.661-1.056-.06-.387.387-.724-.073-.268.307-.387-.414-.338.18-1.287-.56-2.337.634-2.146-.501-.696.547-1.4852.207-2.7865.073-1.2807-.253-.4082.353.0282-.26-1.8859 2.675-.4222.407-1.351.46-.6333 1.214-1.9985.513-2.0899-.487-1.1329.014-1.8014 1.053-1.4355.194-1.4214.794-.4293-.02-.8092.887-.5418 1.494-1.3018 1.76-.4363 1.674-.4926-.026-.4081-.487-.76.073-.4222.774.3237 1.587-.6474.46-.4151-.086-2.3222 1.06-.6966-.94-.8163-.414-.6966.14-1.0696-.62-.3659.22-1.2103-1.501-1.0837-.867-2.2799.054-1.3088-2.308-.7319-.26-.7107-1.574-.7036-.607-1.3863-2.901-.5488-.107.7318-.34-.2252.22.2463.067.0422-.214-.0844.28.3659.667.0915-.26.0563.167.5207-.867.1618-.614-.1759-.306-.7037.033-.6474-.847-.4292.12.197-.12-.3518-.153.0633.32-.3518-.354-.2604.24-.6966-.427-.9359-2.347 1.6325-1.234-.7811-.434-.9077-2.08-1.5762-1.781-4.4824-2.821-1.9563-.854-1.3299-.994.4222.64 1.5551 1.208-2.1251-1.741-.4574-.054.2745.281-.2393-.014-1.8929-.82-5.186.38-.6967.527-.6825-.254-.2111-1.107-.3519-.447.2252-.533-.3941-.834.0212-1.807-.4363-.44.3518-.214-.4644-1.154.1196-.393-.4011-.254-.1478-.56-.38-.04-.2322-.7.2956-.134.0703-1.033.9571-.994.6473-2.495.5278-.153 1.7873-1.721.373-1.28.4996-.674-.0634-1.267 1.0908-.467 1.3862-.007.0774-.593.4715-.32.774.56 1.0344-.087.4011-1.861.6614-1.147-.2674-.14.0212-.34.6473-.767 1.6326.694.971-.027-.3096 1.521.7389-.014.0211.287.4433.18.5067-.207 1.3651.234.394-.18.4856.487.3026.346.0844.888.4644-.134h.2252l1.3651.5.2182-.14-.1126-.407.5136-.386-.1759-.214.7248-.066.8726.213.197.767.5207.42.0915.033.4363.421.9851.166.2604.274.7248-.067.394.494 1.2455-1.007 1.2526-.307 1.8788.06.3448-1.187.4996-.481-.4011-.486.0563-.387.8726-.621.0563-.526.4996-.374.9921-.067.3448-.253.4856.113.5488-.373.7952.353.0282.487-.183-.24-.2181.113.1829.361-.8726.527.1337.927.5419.153 1.3581-1.287.9992.146.1337-.426.7248-.294-.1056-.513.2463-.441.0704-.033.0281-1.334-.9148-1.52.3097-.854-.5208-.474.0212-.367.7107-1.107.5066-.306h.6755l.0915-.481 1.3018-.833-.0774-.174.2744-.447.3308.174-.1548-.334.4362-.687 1.1963.114-.0633-.34.3659-.427.6825-.334.6193-.733.1759.173.1055-.42.1548.253.0704-.233.2322.18-.007-.354.3307-.04.0282-.053-.3237-.894 1.6536.24.9851-.513.6967.287.1478.52 1.1047.287 1.3229-.054.3589 1.634 2.8851.941.0844.447.7178.113.8303.594.5489.847.1548-.187.3659.12.1407.333.3378-.12 1.6818 1.874 3.1595 1.334.3448-.086-.1759-.754.2603-.46 2.5614.48 4.131.253 1.132-.133.472-.42.134-.527.471-.133.352-.107.802.26.19-.233 2.196.707.513-.254.113-1 .267-.047.598.207.148.747 1.154.253.845-.2.921-.787-.028-.453.078-.207.921-.28.106.046.851.494 2.674.427 1.359-.887 1.224 1.594.162-.987.528-.421 1.168.007.443.38.38-.533.443-.227.148.173v-.226l.746-.341.077-.286.141.113.204-.513 1.816.847 1.259-.414h.176l.605.52-.077 1.761 1.717.414-.042 2.187.837.367.113.48-.352 1.121.14.72-2.047 2.354.528.294h.246l1.752.88 1.562.134.781.52.88 1.487 1.541 1.134.922-.274.753.627.422-.233.781.34.309-.26.345.14.12-.007.141.174-.401.527-.261 1.527.261 1.1-.331.614.211 1.094.127.127 2.871 4.401.689.481-.028-.414 1.443.247 2.082 1.547-.942.467-.62 1.094-1.752 1.801-.943 3.555-.985 1.807.092.914-.205.28h-.64l-.507.84-.443.087-.246.313.077.927-.753.341z" stroke="#171619" stroke-width=".5"/><path d="m143.769 45.0522.197.3668 1.316-.02 1.006.9271 1.196-.2068 1.844 1.2206.464.0867.366-.1067.225-.2001 1.766.1.535-.6002-.063-.3268.837-1.4673.655-.6203-.113-.7337-.197.02-.591-.0133-.274-.8137-.62-.4868.134-1.3273-.478-.9604.492-1.3139-.141-.4402 1.33-1.5273-.098-.4002-.465-.1801.345-1.1204 1.239-1.2472-.233-1.1872.451-.827.675.3534.401-.1667h.099l.028-.7136.83-.5269-.394-.3068.423.0133.084-.907 2.153.0266.007-1.0804.268-.2335 1.083-.0733.887-.9871.429.0067.007-.4269.683-.0534.323-.5935-.232-.3002.078-1.1738.703-.5269.057-.8404.661-.4735 1.105.0467-.162.5669.676.4335.351-.1467.394.5936 1.049.7203.028.6202.633-.0066.021.6069.296.1067.162-.3735.302-.0133.043-.4335.429-.4069 1.182.807.605-.3068.493.1534.703-.887.416.0734.239-.3735 1.048.7069.289-.0533.091.3535.971.5335.521-.2734 1.042 1.9075.71.0733.134.5536.887.2468.457-.1067.12-.2935.682.1267.521-.4535.69.1.928-.3068.275-.3468 1.597.5202.078.5536.584.4869.506-.2401.085-.5269.668-.4802 1.196.8203 1.084-.2267.732.2067.204-.2801 1.133.1934.197-.2601 1.224.3535.078.1734.155.0934.429.5469.19.8937 1.182.2801-.486 1.6341.176.2534-.302-.1267-.254.3001-.028.3468.373.1868-.478.4402-.24-.1734-.211.2134 1.042 2.4677-.436.4602.9.3468-.57.3668.458.3669-1.183 3.2547-.084.4002.324.2134-.401.3201.169.8204-.613 1.7274-.274.1601v1.0071l-.232.4135-.085-.2601-.38.12-.246.6603-.345-.1401-.471.7003.851.4402-.218.0467-.063.7603.281.3402-.507.2067-.014.2802-.464-.02-.232.7669-.57-.0133-.584.5069-.296.8604-1.316.1667-.063.6203-.218-.1934-1.112 1.4739-.028.4535.612.7003-.148.7737 1 .1601.499-.2201.373 1.4273-.957 1.2605-1.062.1401.239.807-.662 1.3406 1.014 1.0071-.493.5935.401.2868-.077.3469.415.6269-.148 1.0071-.274-.0334-.035.3135-.803.04-.506 1.5807-.788.1801-.12.4669-.633-.1735-.24.2668.007.9538.359.06.211.6469-.239.3068.261-.12-.007.3001.26-.14.626.4802-.345.1267.423.807-.036.1867.24.1468-.767 1.2138.021.1334-.275.7137.732 1.4873-.837.807-.099.4668-1.006.2935-.035.3201-.275-.2067.176.3801-.436.3469-.746-.1935-1.295.8471-.225-.0734-.225-.6736-.007-.0734-.38-.1134-.38.0201-.767.06-.866-.3869-.682-.5735-.014-.4135-.992.0333-.662 1.0271-.112 1.1805-1.359.7337-.429-.4602-.936.3334.183 1.2472.873.2468.591-.1667-.134 2.2743.458.3735.084.5335-1.182.4536-.246.3601 1.147 1.3006.105.5269-1.119.6069-.52.8204-.444-.02-.211.2734.331.7203-.83.4802-1.267.3668-.978-.5602-.669 2.7012-.584.2601-.352.5469.254.7736-.31-.0867-.964.707-1.386-.04-.514 1.2272-1.034.3935-.035 1.2605.788 1.0005-1.429.8003-.809-.5802.211-.4202-.239-.6536.169-.5069-.31-.5936-.225.1867-1.063-.5669-1.597.0534-.387.2534-.457-.0933-.155.2467-.331-.2201-.443-.9671 1.562-.6069.232-.3134-.119-.4602-1.344-1.0272-1.865-.0867v-.6802l-.57-.3335-.31-.7003-.119-.2868-.021-.2134-.38.3068.007 1.1871-.317.1334-.345.2868-.436-.2001-.345.1334-.211-.12-.901-.1201.204-1.2672-.675.2735-.669-.4269-.612.3001-2.836-2.8479-.57.7737-.169-.5802.176-.3802.43-.0333-.465-.5069-.112-.0601-.936-1.1204-.514-.1935.021-.2534.155-.2134.169.1467.767-1.2805.992-.5269-.176-1.1205.169-.9604.373-.3735 1.435.7003 1-.8137-.338-.4202.528-1.7207-.465-1.2272.38-.5002.049-.8404-.337-.827-.317-.06-.915-1.1339.239-1.1471-.175-.3869-.606-.5069-.218-.3268-2.716-2.6678-.985-.3134-.901-.8137-.239.0667-.936-.9271-1.787.5669-.521-.6002-1.245-.2935-.556-2.5211.387-1.0471-.12-.4935.739-.4069.45-1.7941 1.239.4335-.155.7604.281.2868 1.724-.5536.021-.3268-.323-.0867.035-.9004-.528-.5936.275-1.434-.535-.8337.035-.4802 1.309.0201.521-.8471.168-.0934.261-.0133.302-.5602.971-.0534-.063-.5669.704-.9137-.641-.2935.085-.4135-.964-.8604.647-.9137.028-.6403-.703-1.2405-.035-1.534z" stroke="#171619" stroke-width=".5"/><path d="m67.2509 4.37476.2322.42018.9499.29346-.1618.35348.4152.2401.2111.58692 1.5058.28679-.2955.24678-.1548-.16007.0915.42018.2392-.18008-.2252.35349.4504.05335.1618-.22009.3308.19341.5418-.3935.4855.25344 1.4426-.12005.4292.20676 1.6818-.26678.3588.62026.3097-.22676 1.4847.10671 1.52 1.53399 1.7592-.26011 2.111.65362 1.6747-.10005.9922.48021.6755-.08004.0704.31347.4222-.14673 2.2377.787 1.4636.3068 2.0407.0334.0211.3268-.5278.6002.4152 1.0872-.0985.847-.4996.2401-.0845-.4402-1.0133-.3335-.4996.8004-1.8436.2601.19.5602-.3377 1.1605-.7741-.1267-.6263.2534-.0985-.0466-.4292.0533-.5841-1.0938-.8092-.2601-1.0133.6469-.6122.9271-.4715-.2734-1.0273.0867-.5067 1.9475-.7318-.0267-.1478-.2801-1.1329.5269-.0563.12-2.2095.2401-.3659-.3868-.4785-.0134-.2956.2068-.1337.9137-1.6958-.1334-.2674.8337-2.7092-.3268-1.0625-.5736-.7178.3802-.7529 1.3739.0563.4002-.8162.1667-.6967.02-.38-.4335-.5348.0134.0563-.3335-.5066.0267-.8304-.6737-.3307-1.1271-.8866.2468-1.154-.5003-.3308 1.0872-.7599.2934-.76-.6803-.7248.0134-.2463.9137-.7107-.1734-.387-.4735-.2111.2267-.5981-.12-.0774-.3468-.5208-.3335-.2744.4402-.4504.08.0775.4335-.3519.0734-.2322.7336-.2674-.1067-.1689.2801-.4926-.2467-.1266.0066.0915.6203.7318.0867-.007.5736-.8093.1601-.2463.3401-.4151-.2001-.6193.3668-1.3088-.2934-1.4636.0667-.6685.1334-.7178.867-.2533-.0267.0352-.4001-.9781-.3869-.3237-.3068.0985-.7736-.6615-.7537-.7177-.02-.8937-1.1472-.0352.9871-.2885.0134-.4785-.6203.3026-.5135.3096.16-.0211-.6536.5207-.6269.4715.3001.38-.4202h.4363l.7881-.7736.1337-.5136-.6404-.707-.5559.1267.0352.2335-1.0344.6136-.3518-.0534-.4504-.7603.2956-.5602-.1056-.3869-.577-.1067-.1759-.3802-.2111.2201-.7811-.7469-.183-.5936.19-.8938-.7599.0401-.577-.6737.0422-1.0204-.1689-.3401-.4152.2201-.3448-.2001.0845-.4536-.0282-.0867.0071-.6269 1.3299.0667.2674-.70031.6544-.43352.4363-.6336-.197-.24678.2181-.54023.4926.04002-.4785-.36683.0422-.37349 1.0344.08671.4222-.36683.1126.14006.0352-.3068 1.0485.13339.2462.28679.4715-.3268.8233.40684 1.2455-.29346.4081.44686.2674-.36016.6756.08671.9218-.3068.1548.25344.2885-.09337.0704.28012 1.0836-.02001.1689.25344 1.1611-.08003.0563-.54024.8092.44686.6333-.18007.7881.22676 1.8929-.67362.2252-.42018.4433.38683.2252-.16674.1125.31347.2815-.16007-.007.37349.5277-.11338.8656.35349 1.8506-.82703.4504.38684.7318-.16674.3589-.37349-.183-.09338.6192-.22676v-.43352l.6545-.01334.4222-.31347.0211-.47354z" stroke="#171619" stroke-width=".5"/><path d="m116.248 15.7729-.422-1.3472.767-.3402.33.1734-.38.7003.021.7003zm-5.784-7.81001.014.28012.689-.18008.218.41351.423-.07336.274.52689 1.351.23344.134.52022-.563.11338.528.68029.337-.2068.859.2001.816-.1867-.035.4802.415-.2334 1.436.3201.654.8204.767.2667-.077 1.2939-.641.0801-.352.3668-.295-.6203-1.027.4669-.303-.2601-.528.1934-.176-.2001-.14.5602-.838.1935-.295.5935-.978.2535.154.4735.127.1868.324 1.8674-1.415.0067-1.562-.4735-.577.06-.162-.4535-.732-.2935-.64.9271-.014.1134-.401.5602-.929.3802-.232.5002h-1.26l-.499-.2335.112 1.2139-.809-.0067-.507.6536-.675.3402-.697 1.6874.317.5536.823-.0867-.049.3801 1.253-1.3739.703.6603-.682.727-.852-.3202.324.5603-.584-.0067.492.2001-.288.3668-.028.1401.774.2201.162-.9004.527.2401.409 1.0938-.113.8537-.788.3068-.577-.4402-.338.9004-.387-.1401-.901.3735-.084-.2534h-.324l-.112-1.534-.296.2934.099.3002-.324.1534.091.2801-.394.1867.057.3935-.676.1067-.338-.7269-.9567.0466-.6404-.5068-.0281-.2802.4715-.4068.4292.1267.1975-.6002-.4297-.3402-.957.6536-.4715-.3001.0493-1.3206-.2815-.1467-.0422-.9938-2.0758-.4335-1.0274-1.514-1.1962-.6736-.2886.5469-.8162-.1734-.7248.6736-.9007-.4068-.6192.4669-.8515-.2268-1.0133.1334-.0985-.8537-.4433-.0134-.007-.4735-1.2596-.6669-.3589-.587.3096-.787-.3237-.4068.2393-.2068.4292-.0533.0985.0467.6263-.2535.7741.1267.3377-1.1605-.19-.5602 1.8436-.2601.4997-.8004 1.0132.3335.0845.4402.4996-.2401.0985-.847-.4152-1.0872.5278-.6002-.0211-.3268.7881.1134.9992-.2335.6896.1868.8726-.3668.3096.4001.8163.0267 2.0125-.3268 1.2031-.4402.577-.48687.521.12005.148-.29346.239.28679.267-.3935 1.042.26678-.254-.0867.655-.73365 2.048-.20676.506-.40017.521.08003-.042.34682.443.26011-.746.16007-.633.47354-.007.26678.457.15344-.077.5669.176-.3602.084.1801.443-.2668-.246-.27344.26-.02668.099-.3935.514-.04669-.472-.23343.711.02668.239-.36683.648-.04001.816-.58025.598.04001zm-10.028 17.07401.028-.0334h.014l.254.1201.077.5202-.239.1601-.19-.5469zm-1.0904.08.1055.1067-.0211.1134-.2111.0801-.1337-.1735-.0281-.0666.014-.0601.0704-.0266z" stroke="#171619" stroke-width=".5"/><path d="m122.848 30.3728.232.2734-.358-.1334zm-.992.0933-.134.0667.021-.1133.05-.0734-.014-.0867-.007-.0267.19-.02-.014.1334zm3.138-4.4152.057-.0333 1.759-.1935 1.682.7003.774-.1267.267.4869.584-.3001-.295.9537-.282.3135-.211-.0934-.169.4602.612.6936 1.042-.3801.105.927-.591.1801-.119-.2601-1.555.0467-.444-.6069-.865-.0401-.268.2935-.943-.1-.337-.787-.753-.2535-.859-.7603.577-1.0271.113-.3135.07.1134zm-25.7963-.9404.1478.0133.0633.0267.0422.0734-.0211.1134-.2111.08-.1337-.1734-.0281-.0667.0141-.06.0703-.0267zm1.4213-.04.12.0533.077.5203-.239.16-.19-.5469.084-.2534h.014zm-52.1563-2.2543.9782.3868-.0352.4002.2533.0267.7177-.8671.6685-.1334 1.4637-.0667 1.3088.2935.6192-.3668.4152.2001.2463-.3402.8092-.1601.0071-.5735-.7319-.0867-.0914-.6203.1266-.0067.4926.2468.1689-.2801.2674.1067.2322-.7337.3518-.0733-.0774-.4335.4504-.0801.2744-.4402.5207.3335.0774.3468.5981.1201.2112-.2268.387.4736.7107.1734.2463-.9138.7248-.0133.7599.6803.76-.2935.3307-1.0871 1.1541.5002.8866-.2468.3307 1.1272.8303.6736.5067-.0267-.0563.3335.5348-.0133.38.4335.6966-.02.8163-.1668-.0563-.4001.7529-1.374.7178-.3801 1.0625.5736 2.7092.3268.2674-.8337 1.6958.1334.1337-.9138.2955-.2067.4785.0133.366.3869 2.2095-.2401.0563-.1201 1.1329-.5269.1478.2801.7318.0267.5066-1.9475 1.0274-.0867.4715.2735.6122-.9271 1.0133-.647.8092.2602.584 1.0938-.2392.2067.3237.4069-.3096.787.3588.5869 1.2596.6669.0071.4736.4433.0133.0985.8537 1.0133-.1334.8514.2268.6193-.4669.9007.4069.7248-.6737.8162.1734.2885-.5469 1.1963.6737 1.0273 1.5139 2.0759.4336.0422.9937.2815.1468-.0493 1.3205.4715.3002.957-.6537.4288.3402-.1966.6002-.4293-.1267-.4714.4069.0281.2801.6404.5069.9568-.0467.338.727.675-.1068-.056-.3935.394-.1867-.091-.2801.323-.1534-.098-.3001.295-.2935.113 1.534h.324l.084.2534.901-.3735.387.1401.338-.9004.577.4402.788-.3068.119-.8604-.408-1.0938-.527-.2401-.162.9004-.774-.2201.028-.14.288-.3669-.492-.2001.584.0067-.324-.5602.852.3201.682-.727-.704-.6603-1.252 1.374.049-.3802-.823.0867-.317-.5536.697-1.6874.675-.3401.465-.6536.809.0067-.113-1.2139.5.2334h1.26l.232-.5002.929-.3801.401-.5603.014-.1134.64-.927.732.2934.162.4536.577-.0601 1.562.4736 1.414-.0067 3.139-1.594.598.6536 1.041-.1467.458.2801-.746 1.2138.549.3535.204-.1334.141.3068-.437.5736.317.1734-.014.9338-.669.1934.598.3668 1.598.1.471.5336-.091.2668 1.182.787-.753.7403-1.386.2201-1.084-.4602.042-.4002-1.513-.3801-1.161 1.674 1.351 1.3673.183-.0334-.295-.2734.577-.747.654.3068.739-.8671.197.5136-.957 1.6674.648.3801-.444.7804 1.879-.1934.127.6402.485-.0333v.0867l.697.8204.957-.0934.535.3468.098.5802-.049.0467.204.4669.591.2534-.478.4269-.261-.1667-.267.2-.655-.4802-.703.0867-.43-.2334-.26.3068-1.252-.2134.443 1.2739-.289.0666-.548.7937-.563.2868.183.2201.668-.1267.31.2334-.078.6336-.366.3735.936 1.0271-.316.5269.126 1.3273-.485-.6336.077-.4803-.429-.0133-.078.747.395.0067.408.6069-.887.2201.155.5669.112.08-.218.3002.331 1.6473-.274.7937-.479.3868 1.83 2.7012 1.843-.0534.415 1.1872v.1934l.613.5603.584-.5202.844-.1601.296-1.5807.049-.1667.338-.3735.422.1534.309-.1734.542.5202-.049.4869-.901 1.2472.211.5669.796-.1467.577.4401.935-.2334.831.2601.626-1.3739.626-.4269.036-1.0871.534.1734.535-.2067.324-.5069 2.301-.2001.739.3335.267 1.0337.633-.3401 2.055.1067-.021.4602-.612.3335 1.013 1.4873-.253.2068.162.827 1.878.4335.113.1067.521.4802.352-.02 2.047-1.1605.028 1.5273.711 1.2406-.035.6469-.64.9071.957.8603-.085.4135.641.2935-.704.9137.063.5669-.964.0534-.302.5669-.261.0133-.162.0934-.52.847-1.316-.02-.035.4802.527.8337-.267 1.434.528.6002-.035.9004.323.0867-.021.3335-1.724.5469-.281-.2868.154-.7603-1.245-.4335-.45 1.7941-.739.4135.126.4869-.387 1.0471.556 2.5277 1.246.2935.521.6003-.212.8003.31.8537-.176.2201-1.464-1.2005-.816.8137-.999-.3268-.584.6803-.57-.0801-.591.3335-.64-.6936-1.183.6736-.253-.3535-.718-.1201-.267-.8937-.514-.1067-.155-.6803-.387-.3068-.717.5403-.401-.2535.295-.6869-.809-.1534.542-.3269.07-.6069-.76.2068-.317-.5669-1.196-.2735-.169-.5269-.837.02-.31.4536-.788-.0734-.901-.4069-.077-1.0404-.725-.2534-.64.3134-.204.5136-1.302.0867-.823.3601-2.4-.7136-.893.2601-.409.8737-.344-.4202-.345.4336-.626-.0801-.233.2201-1.111-.1134-.373-.3601.295.6736-.084.767-.767-.04-.415.747-.775.3201-.175.1534-.043.0334-.218-.0667h-.218l-.957.12-.809.5469-.866 1.2606-1.203.7003-.774 1.2538-2.153.8204-.556.9204-.31.06-.788 3.3348-.943.14-.809-.2801-.514 1.0605-1.2241 1.4272-.4433-.2067-.2885.0734-1.0133.1534-.4222.3068-.2956-.1001-.5488.3402-.0352.4001-.2674.2535.8303.2134.2322.5869-.2111.9137-.6122.3335-.1126.3602.2252 1.6473-.4785.687.3589.6203-1.914.1-.3941.4869.0704.8737-.4222.2201.1196.5069-.8866.1467-.4785-.6869-.38.06.3378 1.1605-.76.8203.1689.8204-.3659.1801-1.2174.4468-.7388-.2401-.1267-.9937-.3026-.2602.1126-.5068-.7811.2067-.394.2601-.8515-.3335-.2603.5136.19.4735-1.2596.8337-.0563.1201-.9007.5869-.1056.8204-1.3229.5602-.1829.0467-.2182-1.1605-.9429.1934-.4011.6203-.2041-.0734-.7881.8337-.5629.1401-.5981.08-.19-.5603-.9641-.08-.1266-.0267-.7319.0734-.4222-.12-.1337-.0534-.6192-1.1338-.0352-1.2739.5137-1.0938-1.6255.2401-.8233 1.0204-.4925.2268h-1.0133l-.1549-.0467-.2322-.1401-.2885-.14-.5559-.1134-.1407-.667-.5489-.1-.1477-.4735-.6334-.5136-.8936-.0467-.5137.3202-.5207-.1401-.2041-.2534.3448-.6003-.4855-.887-1.6114.9404-.4856.9737-1.0977-.3335-.197-.1267-.5208-.3535-.0914-.12.0422-.4936-1.6748-.3935.4222-.1934-.0703-.3201.2463-.1868-.2182-.1.3448-.1201-.3729-.2467-.0915-.0334-.7178-.3201.2322-.4736-.5488.1401-.2533-.5269-1.3933-.6936-2.2518 1.2405-.2674.2601-.1266.4736-.9359.0933-.4363.6536-.4644-.0266-1.5622.747-.3237.5135.1126.6936-.577.4869-1.4707.1401-.5207.5069-.4996-.6403-.7389.7003-.5418-.2268h-.3378l-.0703.1734-.5348-.12-.6122-.4936.0774-.7336 1.3299-.7737.2041-.807-1.0485-1.0671-.2181-.9404.9781-1.494-.0985-.9137-.7952-.4402.9218-2.1743-.6755-2.2076.2744-1.2605-.1899-.8871.4855-.0867v-.3468l-.1548-.5336-.7389-.4535-.2111-1.1605-1.1962-1.2472-.2041-.6203.3167-.2201 1.0484.2735.9852-.2334.9992-1.5474-.2604-.7536 1.3441-1.1872.1477-.6536.8093-.9071.9359.0734.1829-.2601.3237.3868.9922-.8804.197.2601.3589-.0867.2674-.2001-.1759-.3468.7881-.2201.6051-1.1471.7248-.2735-.3026-.2401.0563-.3735.4152-.2067.3167.3535.6614-.2001-.3026-.5736.7037-.5536-.1759-.4001 2.1884-2.9947-.2603-.5535-.556-.2201-1.1962-1.2806-2.8147-.6203-.2674.3936-.8022.2667-.95-.7069.0282-.9271-.3729-.5002 1.0062-3.0146-1.0555-.3602.4785-1.1605-.7951-.827-.6123.6269-1.5058.1801-.9922-.2201-.4503-1.0338-.5278-.14-.577 1.1404-2.1814-.02-.2745-.5602-.4573-.1334-.1056-.5202.5137-.7804-.2604-.6736-.6473.0601-.4574-.5803.5629-.2601.3026-.9137.6825-.1801.1619-1.0538.8303-.4202.2885-.6002.8022-.2935.8867.4735.0422-.3735-.0985-.2 1.1399-1.5807.1056-1.5207-.6333-.1867-.2745-.3668-.7529-.1134-.4081-.4335.014-.0534.4645-.5069-.1337-.6136.2885-.3468-.2956-.6403-.5981.1601-1.4355-.827-.584.08-.2815.5869-1.2033-.3134-.3518-.0267-.3871-.02.3167-.5269-.1196-.5869.5911-.7537-.2674-.3068.0281-.807.8092-.3735-.7318-1.2739.6404-.7003.7318-.0467.2463-.7136.4714.3268 1.3089-1.1472-.0352-.3535.5207-.5268-.5559-1.2406.7037-.1934-.1267-.6069z" stroke="#171619" stroke-width=".5"/><path d="m97.2768 77.1527.4222-.3068 1.0133-.1534.2885-.0734.4433.2068-.2674.5202.2534 1.0338-1.3089.4668-.3166.0267-.3167-.0867-.1548-.5269-.3659.0067-.8303-.2135.2674-.2534 1.1892-.0667zm14.0802-11.6917h.218l.219.0667.042-.0334.176-.1534.774-.3201.415-.747.767.04.084-.767-.295-.6736.373.3601 1.112.1134.232-.2201.626.0801.345-.4335.345.4201.408-.8737.894-.2601 2.399.7137.823-.3602 1.302-.0867.204-.5136.641-.3134.724.2534.078 1.0405.9.4068.789.0734.309-.4536.838-.02.168.5269 1.197.2735.316.5669.76-.2068-.07.607-.542.3268.809.1534-.295.6869.401.2535.718-.5403.387.3068.154.6803.514.1067.268.8938.717.12.254.3535 1.182-.6736.64.6936.591-.3335.57.0801.584-.6803.999.3268.817-.8137 1.463 1.2005.176-.2201-.309-.8537.211-.8003 1.787-.5603.936.9271.239-.0667.901.8137.985.3134 2.716 2.6745.218.3202.613.5068.176.3936-.24 1.1404.915 1.1405.317.0601.337.827-.049.8403-.38.5003.465 1.2338-.528 1.7141.338.4268-1 .8071-1.435-.7004-.373.3735-.176.9605.176 1.1138-.992.5269-.767 1.2805-.162-.1467-.162.2134-.021.2468.514.1934.936 1.1205.119.0667.465.5069-.43.0333-.175.3802.168.5735.577-.7736 2.836 2.8479.612-.3002.669.4269.675-.2735-.211 1.2673-.007.4601.838.5736-.197.1801.858 1.8141 1.872.2268.035.0667.507.1534 1.583-.3802.443.9671-1.21.5002-.127.3868.275.4669-.064.2868-.323 2.2343-1.126 1.614.246.9335-.309.454-.676.193-.514-.233-.549-.194-.654.527-1.119 2.094-1.105.634.338.06.071 1.094-.247.107.169.42-.19.467-.288.1.161.54.444.06-.141.16h.422l-.126.434h.429l-.183.213.267-.14.05-.04.133.407-.274.006.352.12-.036.321-.084.04.471-.327.043.107.042.22.035-.434.486.107-.204.207.471.033v.293l.331-.026.591.513.162-.193.126.033.662.234h.112l.401.046.113.054.64.233.226-.22.872.454-.366 2.234-1.407 2.414-.148 1.407.711.501 1.569 2.227 2.118-.126.619-.361.788.134.212.793.464.394-.225.867.246.74-.098.907-.634.281.88 1.767-.908.914-1.224.02-1.717-1.274-.071-.634-1.28-.373-.964.287-.233.106-1.787 1.387-.457-.613-.359.12-1.203 1.127-.078 1.554-.668.447-.19.627.33 1.207.036 2.481-2.125 1.507-1.52-.013-.437-.667-.007-.093.183-.354-.359-.333-.316.253-.507-.4-.486.04-.021.307-.471-.093.211.306-2.392 1.348-1.401.373-1.245-.567-.352.247-.253.44-.669.894-1.886.78-1.041 2.194-1.204.948-.19.94-1.562-.133-1.752-.881h-.246l-.528-.293 2.048-2.355-.141-.72.352-1.12-.113-.481-.837-.366.042-2.188-1.717-.414.078-1.76-.606-.521h-.175l-1.26.414-1.816-.847-.204.513-.14-.113-.078.287-.746.34v.227l-.147-.174-.444.227-.38.534-.443-.38-1.168-.007-.528.42-.162.987-1.224-1.594-1.358.887-2.674-.427-.852-.493-.105-.047-.922.28-.077.207.028.453-.922.787-.844.201-1.154-.254-.148-.747-.598-.207-.268.047-.112 1.001-.514.253-2.196-.707-.189.233-.803-.26-.352.107-.471.133-.134.527-.471.42-1.133.134-4.131-.254-2.561-.48-.2604.46.176.754-.3449.087-3.1595-1.334-1.6817-1.874-.3378.12-.1759-.287-.3659-.073-.1548.186-.5489-.847-.8303-.593-.7178-.114-.0844-.446-2.8851-.941-.3589-1.634-1.3229.053-1.1047-.286-.1478-.521-.6967-.286 1.1048-.287 1.0485-2.848.3729-.52 1.2667.093.3096-1.247-1.3933-.6-.3237.08-.7811-2.288 1.6114.594.7952-.287.0633-.034.1196-.366-.3307-.22-.197-.074-.3659-.653.6544-1.414h.1337l.4715-.807 1.3299.133 1.731.647-1.1258-1.04-.1126-.801-.3519-.193-.5418-1.601 1.0203-.193.0422-.847.6756-1.388-.387-.613-.9359.653-.1478.06-.57.527-1.0907.2-.0492.047-.6826.44-1.541-.56-2.0548-2.188-.5629-.12-1.3792-1.607-.3237-.273-.57-.641.8796-1.04-.007-.22.4081-1.4742-.6614-.9271.2744-.1534-.1478-.9604-.76.08-.8936 1.0605-1.0344-.1667-.0774-1.6074.5136-.8137-.7881-.7003-1.5551.3335.7952-2.4878-.0704-2.7278.6404-.3735.1337.0534.4221.12.7319-.0733.1266.0266.9641.0801.19.5602.5981-.08.5629-.1401.7881-.8337.2041.0734.4011-.6203.9429-.1934.2182 1.1605.1829-.0467 1.3229-.5602.1056-.8204.9007-.5869.0563-.12 1.2596-.8337-.19-.4736.2603-.5135.8515.3334.394-.2601.7811-.2067-.1126.5069.3026.2601.1267.9937.7388.2401 1.2174-.4468.9359.4002.3025-.4002 1.4918-.4936.0493-.5068.9851-.7003.0985-.7003.4223.2467.1266 1.6674.3167-.02.2181.3068.2604-.1934.1829.3335.4785-.3402.4363-.9337 1.1048-.5336.9218.7337-.0281.4335.8163.0867.577-.5536.929.3935-.035.3202.654.6202.732-.0867.077.5603.359-.3402.31.3001h.746l.76.7003.541-.3801.69.907.535.1468.429-.3402.619.3535.408-.2468.092.3068 1.048.5136-.274 1.2672-1.231.9604-.31-.1-.253.747-.43.1934.099.2001.155.0466-.078.1601-.443-.1867.105.3334-.232.1734.035-.4401-.485.4468-.45-.1934-.465.5869-.141-.2734-.366.0667-.379.2801.14.1867-.014.0934.148.3135 1.168.4202.802-.767.127-.0734.246-.4669.669-.3401.239.1467 1.351-.4602-.218-.4935.288-.0667.542-.5336 1.309-.1801.274-.6536.697.1801.408-.2001.035.2801.423-.2201.548.2601.416-.4668-.036-.4736.845-.1467.577.667.528.1267.176-.2201 1.196-.0667.267-.5269h.049l.359-.2134.12.6202.76.0734.675-.2401.62-.8003-.81-.8404.127-.5069.387.1401-.331-.747.141-.9004-.394-1.1605-.253-.2601-.732.5135-.422.7003-.437-.3134.282-1.514.76-.9137-.218-.4202.422-.8737-.471-.8137-.824-.0667-.049-1.7141-.605-.6002-.634.06-.112.0467-.479-.0267.24-.8137-.894-.6069.176-.3868-.31-.3135.261-.1334.028-.2668.112-.2401-.45.3668-.464-.22-.134-.7604-.401-.3268-.225.5202-.338-.2734-.352.1467-.021-.0733-.45-.2735.619-.9471-.31-.1934.071-.6203v-.0733l-.338-.4335-.894-.1001.816-1.3005-.112-.5336.612-.3735-.366-.6136.331-.0067.521-1.9275.38-.3268-.831-.9804.253-.9404-1.217-.2801-.401-.9938-.57-.3201z" stroke="#171619" stroke-width=".5"/><path d="m217.485 34.2076-1.069-.1601.619-.867.099.6869zm21.455 7.7166.289.5002.711.1001-.141.1467.823.8937-.288.5736.007.9471-.19-.0267.443.827.401.1001.056.4735-.295.1934-.155.9871-.499.3335-.099.4802-.493.14-.372.5003-.57-.0801-1.112 1.6141-1.295.5268-.802 1.0138-2.266.667-.5.3601-.267.6203-4.665 1.9008-2.843 1.7808-2.083.8337-1.436 1.7874-.534 1.2405.267-1.0671-.387.807-.31.0334-.028.1867.324-.0934-.507.8471-.591.4468-1.78.5336-1.675.08-1.189.6003-1.006.0133-1.387.4202-.267.3135.12-.2401-4.293.887-2.195 1.1272-1.858.12-1.02.6136-.176.0534.155-.2468-.683.2401-.704 1.0738-.858-.4802-1.464.2468-1.238.5669-2.4 2.2543-1.33 1.9275-.767.4802-.197.5536-.781.4535.584.847.985.0334-.76-.5403.535-.0267 1.196 1.4007 1.26.3001-.964.9737-1.71.8537-1.576 1.9142-.95.1401-.5-.567.317.1668-.028-.3802.76.4802.232-.1534-.359-.2267 1.239-.1801.605-1.0338-.985-.1334-.592.3602-1.182.1067.064.2734-.226-.14-1.041 1.1605-.471 1.0671-1.45-.5869.091-.727-.788-.5803-1.196-.14-1.119-.4936-.288-.3735.387-1.0871-.141-.0533-.056-.0601-.19-.18-.444.0533h-.105l-.218-.7536-.542.2-.528-.2334-.176-.3868.275.2067.035-.3201.999-.2868.106-.4669.837-.807-.732-1.4873.275-.7203-.022-.1334.767-1.2138-.232-.1468.028-.18-.422-.8071.352-.1267-.626-.4802-.268.1334.007-.3001-.26.1267.232-.3135-.211-.6402-.359-.0667v-.9538l.24-.2668.633.1734.119-.4668.789-.1801.506-1.5807.802-.04.043-.3135.274.0334.148-1.0071-.415-.627.077-.3468-.401-.2868.493-.6002-1.021-1.0005.669-1.3405-.24-.8004 1.056-.1467.957-1.2539-.373-1.4339-.507.2201-.999-.1601.148-.7737-.612-.7003.028-.4535 1.112-1.474.211.2001.063-.6202 1.316-.1668.296-.8537.584-.5135.577.02.232-.767.464.02.014-.2801.507-.2068-.274-.3468.063-.7603.218-.0467-.851-.4402.471-.7003.345.1334.246-.6603.38-.1201.092.2602.232-.4136v-1.0071l.267-.16.612-1.7274-.169-.8137.402-.3201-.324-.2135.084-.4001 1.183-3.2614-.451-.3669.57-.3668-.901-.3468.437-.4602-1.042-2.4677.204-.2135.24.1734.485-.4401-.373-.1868.028-.3535.254-.3001.302.1267-.183-.2534.493-1.6341-1.182-.2801-.19-.8937-.43-.5469-.147-.0934-.078-.1667h.275l.119-.4269-.359-1.0071-.401-.1334.472-.5002-.415-.1867.485-.5402-.225-.8204.957-.5736 1.295.6136.499-.0867 1.014.3135 1.344.9204.654-.4069.45.4736 1.19.14.633-.1867.95.8337.091.6469.683.4869 1.175-.4735.436.3134 1.971-.1067-.106.3935.697.3402.014.5002.485.3468.113.727.464.5402-.309.5136.33.3801-.569.7337.689-.0867.345.7203-.929.6669.415.2068.141.9271 1.956.1267.225-.6003.338.2001.366-.4469 1.126.0067.267-.907.627.3334.408-.2801.746.3602.746-.1001.682.2201.802.807 1.028-.0933.084.5602.345.1934.134.9804 1.013.8337 1.323-.3468.148-.3735.45-.16.162-.6337.584-.3334.879.1934 1.063-.5469.704.3801.443-.0867.682.5136 1.542.2868.028.4335.907.867 1.133.1668.247-.4936.436-.1133 1.822.4335.05-.4536-.423-.7003.345.0134.05-.4069.837-.4068.746-.1267.436.3335.936-.667.239-.4802.38.1134.239-.3202.873.2668.563-.6336.38.4069 1.393-.1935.887 1.1739.654-.2935 1.042.0667-.31.1668.19.2734-.338.5869.261.0801-.218.2201.147.4868.458.2135.14.3935.648-.3802.443.5135.317-.2467.373.3601.689.1401-.675.3868.239.4602-.429-.0467.204.5069-.169.3001-.486.0067.183.3735-.675-.3268-.183.4735-.732-.3468-.204-.4602-.626.4069-.437 1.0404z" stroke="#171619" stroke-width=".5"/><path d="m47.6534 86.8437.6122.5002.5348.1134.0704-.1668.3448-.0066.5418.2267.7389-.7003.4996.6403.5137-.5135 1.4777-.1401.577-.4869-.1126-.6936.3307-.5136 1.5552-.747.4714.0267.4363-.6536.9359-.0934.1267-.4735.2674-.2601 2.2447-1.2472 1.3933.6936.2533.5336.5489-.1401-.2323.4736.7178.3201.0844.0333.38.2468-.3518.1201.2251.1067-.2533.1867.0774.3202-.4222.1867 1.6748.4002-.0423.4935.0845.1201.5207.3535.197.1267 1.0978.3335.4855-.9671 1.6185-.9404.4855.887-.3448.6003.2041.2534.5136.1401.5137-.3202.8937.0467.6333.5136.1478.4735.5488.1001.1408.6669.5559.1134.2885.1401.2322.14.1478.0467 1.0203-.0067.4926-.2267.8233-1.0205 1.6255-.2401-.5137 1.0938.0352 1.2739.6192 1.1338-.6404.3735.0775 2.7279-.7952 2.481 1.5551-.3334.7952.6936-.5137.8203.0774 1.6074 1.0344.1667.8937-1.0604.7529-.0801.1478.9538-.2745.1534.6615.9271-.4081 1.474.007.227-.8796 1.04.57.64.3237.274 1.3792 1.607.5559.12 2.0547 2.188 1.5481.56.6826-.433.0422-.047 1.0977-.2.563-.527.1548-.06.9288-.654.3941.614-.6756 1.387-.0422.847-1.0203.2.5418 1.594.3519.194.1126.807 1.1258 1.04-1.731-.647-1.33-.133-.4784.8h-.1267l-.6544 1.414.3659.66.197.074.3307.22-.1196.367-.0633.033-.7952.287-1.6114-.594.774 2.281.3237-.08 1.3933.6-.3096 1.248-1.2666-.087-.3659.513-1.0485 2.848-1.1048.287-.9851.514-1.6537-.24.3308.893-.0282.054-.3307.04.007.353-.2322-.18-.0774.234-.1548-.254-.1055.42-.1689-.173-.6193.74-.6825.327-.3659.427.0633.34-1.1963-.12-.4292.687.1548.333-.3307-.173-.2744.447.0774.173-1.3018.834-.0915.48h-.6755l-.5067.307-.7107 1.1-.0211.374.5207.473-.3096.854.9148 1.514-.0282 1.334-.0704.04-.2462.434.1055.513-.7248.294-.1337.426-.9921-.153-1.3652 1.294-.5418-.153-.1337-.928.8726-.526-.19-.361.2181-.106.1829.24-.0281-.487-.7951-.354-.5559.374-.4856-.113-.3448.253-.9922.067-.4996.373-.0563.527-.8725.62-.0563.387.4011.48-.4996.487-.3448 1.187-1.8718-.06-1.2525.307-1.2526 1.007-.394-.493-.7248.066-.2534-.273-.9851-.167-.4363-.42-.0985-.033-.5137-.42-.197-.767-.8726-.214-.7177.067.1689.207-.5137.393.1126.4-.2252.14-1.3651-.5h-.2252l-.4644.133-.0845-.893-.3025-.347-.4856-.487-.394.18-1.3652-.227-.5137.2-.4362-.18-.0211-.286-.7389.006.3026-1.52-.9641.026-1.6325-.693-.1055-.32-.3941.04-.3026.313-.1689-.167-.6122.16-.3236.467-.7248-.066-.3167.34-1.0273-1.334-.3026-1.094-.3237-.087-1.9351-2.581-.1408-.64-.6966-.454-.3518.087.7177-.874-.4996-.073.3659-1.487 1.14-1.854-.5348-.341.2322-1.974.957-.513 1.541-1.568.6404-.08.6051-.847.5419-.24.1196-.36-.3448-.66 1.8366-2.721-.1759-.681-.5137-.92-.8515-.534-1.4284.407-.5841-.207-.1759-.313.2463-1.134-1.5622-.533-.4925-.461-.1549-.907.3097-.633-1.4285-1.328-.3096-1.053.4503-.807.0915-1.081-1.0062-.647-.3167.147-.3096-.213-.183-.928-.7459-.106-.7107-1.001-.6051-.273-.5278-1.567-.2815-.187 1.6114.053 2.3151.5 1.6115-.613 1.9773.32.4363-.24 1.1188.127.9851-.307.7671-2.388-.1759-.9337.6192-.2734.8373-.9271.0564-1.4273.3166-.2601.0915-1.0538.4011-.7537-1.4566-2.2876-1.1541-.2201-.584-1.614.3589-.9471.8725-.2601.2463-.4735.8092.08z" stroke="#171619" stroke-width=".5"/><path d="m8.55043 40.1635.35184.3935-.44332-.1134zm-.16888-1.0405.40109.547-.31665.3868.16888-.3135zm-.06333-3.4948-.46442.9871-.01408-.6469.25333-.4202zm-1.78733-2.1876.27443.3402-.19703.1667zm2.66692-2.1809.09148.2334.26036-.0667.08444.4936-.30258.0533.0774.4469-.18999.0266-.14777-.22.20406.0466-.16887-.2134.20406-.4135-.43628-.2601zm18.15479-28.98582.4433-.72031.2393.1534.4433-.27345.1759.25344-.2322.72031.4011.62694-.4714-.29346-.0282.83369-.2604.08003.3659.3068-.6403.02668.4785.26011.5629-.34681-.3096-.6136.6263-.11338.1759.34681.3378-.11338-.4363-.37349.3518-.16007-.0351-.23343 1.7028-.6136.6967-.65362-.0352-.37349.5067.42018-.7319.96041.38.14673.1619-.41351.6966-.16007.1619.77367.4151.10671-.1407.96041.2392.55358.1197-.66029.3588-.23343-.1548-.46687.5137.04002.0281-.50689.6334-.16007.1899.33348.8796-.02001-.1688.40017 2.308.9204.373.98709.8022.82035-.2534.2201.3378-.10004.8374.46686-.2041.3735-.2674-.02668.3659.14673-.1759.14673.4503-.46687 1.4144.3935.9711-.20008 1.3229.14673.1196.49354-.3096.42685-.0633 1.17384-.6544.43352-.2674.70031-1.33-.0667-.014.6203.0351.0867-.0844.4535.3448.2001.4081-.2201.1759.3001-.0422 1.0205.577.6736.76-.04-.19.8937.183.5936.7811.747.211-.2201.176.3801.577.1067.1055.3869-.2955.5602.4503.7603.3519.0534 1.0344-.6136-.0352-.2334.5559-.1268.6403.707-.1337.5136-.7881.7736h-.4362l-.38.4202-.4715-.3001-.5207.6269.0211.6536-.3096-.16-.3026.5135.4785.6203.2885-.0134.0352-.987.8937 1.1471.7177.02.6615.7537-.0986.7736.3237.3068-.3237.2068.1267.6069-.7037.1934.5559 1.2406-.5207.5269.0352.3535-1.3088 1.1471-.4715-.3268-.2463.7136-.7318.0467-.6403.7003.7318 1.2739-.8093.3735-.0281.807.2674.3068-.5911.7537.1196.5869-.3166.5269.387.02.3518.0267 1.2033.3134.2815-.5869.584-.08 1.4355.827.5982-.1601.2955.6403-.2885.3468.1337.6136-.4644.5069-.0141.0534.4081.4335.753.1134.2744.3668.6333.1867-.1055 1.5207-1.14 1.5807.0985.2001-.0422.3735-.8866-.4736-.8022.2935-.2885.6002-.8304.4202-.1618 1.0538-.6826.1801-.3026.9137-.5629.2601.4574.5803.6474-.0601.2603.6737-.5137.7803.1056.5202-.4926.5603-1.1751.0333-.3659-.6002-.5911-.3135-1.14.1467-.204.9337.2463.567-.4011.927-2.2307.8871-.7951.0533-.19-.2534-1.1048 1.0404-.4926-1.2738-.8303-.2268-.6615.7403-1.6255.2601.2112-.9204.3236-.2801-1.4284-.0934-.8092-.5869-.7037.3602-.4011-.1468-.5981.3735-.8656.0934-.8303.6936-.2393-.2601.1126-1.4673-.3377-.12-.3589 1.1805-1.0837.1267-.6895 1.0138-.7952.3468-1.3792.1867-.7107-.2334-.1126-1.3673-.5981.0734-.2885-.9137 1.0344-1.7208.6333-.5802.7881-.2468.0774-.787-.5629-.7803-1.33.2801-.2885-2.1009-.4926.5069-.4433-.1467-.2111.4135-1.1611.4602-.2603.4668-.6122-.14-.3518.3335-.8022.1067-.366-.2468-1.4777.06-.0985.4002-.38.2001-1.6536.1334-.4715.4802-.1618.6736-1.5411.9137-.204.7137-1.2385.5602-.94995 1.1338-.19704-.3268-.1548-2.3477.23925-.6669-.47146-2.7012.40813.0134.54886-.4269.31666.3868.19705-.0933.0985-.5803-.5911-.4001.5278-.0067.1407-.7537.7107-.4335.3026-.6536.4222-.02-.2533.0533.2322.1201 1.541-1.4273.9429-.06-.2885-.5336.3026-.8337-.4081-.2401-.0774.6603-.4574.2801.0281.5803-1.0132.3735-.1056-.3202-.2604.0467-.1196.3735-.5277.3268-.3448-.1267-.183.4068-.4011-.3134-.3307.1934-.47851-.2401-.14778.3601-.18295-.08.33073-1.4406.47851.7536.2744-.0066-.0563-.8337-.35182-.6136h.67552l.3026.2668.6122-.2935.5629-1.0938 1.4003-1.0338-.577.1668-.1688-.4602-1.5904 1.2739-.767-.3202-.46438.4069-.80923-.7537.16888-.5002-.26037-.5336-.50663-.1267-.27443.2801-.33073-.3134.11962-.4002.92181-.0334-.04222-.3068.38703-.1867.30257.707-.31665.2667.0563.3402.52775-.3602.46438.3268-.2744-.807.4433-.2868-.2392-.3134.1689-.5536-.3026.2468-.19705-.767.38705-.2135-.28853-.06.07033-.3335.6615-.1.5629-.5336-.2392-.3268.4433-.807-.2744-.14-.6615.4068-.3378-.2268.176-.4868-.53483-.5269.00703.6402-.21814-.1067-.19703.4669.44332.3468-.39406.1534.02111.4869-.58405-.1001.26036-.5402-.50665-.1534-.71071.767.33777.5202-.60517.0467-.20406.3668-.49257.1001-.02111.747-1.0344.4402.18295-.9938-.42221-.4535-.34479.2401-.3237-.2468.94997-1.4406.35184-1.8541h.2674l.45738-.7604.59813-.1267.62627-.9804.2885-.1134.46443.4802-.2674-.4735.07037-.5669.65441-.3402-.29554-.02-.18295.3068-.33776-.4535-.07038.8003-.31665.1267-.12666-.2334-.56998.6803-.35887-.3535-.02111.3668-.64738-.0733-.07037-.5202-.42924.3801-.42925-.0267.28851.4736-.78811.7536-.20407-.3868-.34479.02-.33778-.9337-.30961-.1601.8233-.6136-.07037-.4802-.4011-.06-.37998-.7137.41517-.8603-.6333-.1067-.65443-1.1272.21111 1.0204-.51368-.0333-.22518-.6003-.26036.0134-.01408.3535-.59811.2401-.07038.9004-.23221-.2402.08445-.4802-.44332-.2868.08444-.4468.56294-.8204v-.7469l.26036.12.12666-.2134-.55591-.1468-.41516-1.1338.44332.2668.33776-.1534.02111-1.0071.68256.1067.03519-.6736.6896.6203.42221-.807.73181-.2668-.77403.1534-.01408-.6136-.35184.7069-.39405-.1267-.19703-.8137.2885.1734.35888-.2867.11259-.647.35184.2268.13369-.3268.28851.1267.09851-.1801.94292.4135.74591-.2934.56293-.9871.29554.4068.31666-.3068.67552.04-.04221.3135.35887-.1667.21814-.5002h.30961l-.31665-.0601-.50665.5869.12667-.3201-.28148-.7336-.46441.0266-.28851-.3401.65441-.4735.54887.3001.05629-.2935.33777.02-.05629-.7136.6896.2334.07037-.2534.48552.08.11259-.6403 1.04143 1.0205 1.5059.3268 1.8999-.787.9781.2868.4292-.1201.4575-.3001.2814-.7803.3519.1534.4011-.1868.387-.5736.5348.3335.1407-.5002.3378.5469-.38.1267.3659.2201.0492.5669-.0562-.2668.6684-.1267.2182-.7803-.3237-.0667.0985-.3868.8233-.2335.2322.5202.5981.0601.3096.4402-.0773.3534.8092.5936-.0634-.3535.2252.1134-.3729-.4202.204-.2534-.2181-.7336.2885-.4136.6192-.04.0211-.2067-.4573-.1401-.3941.2334-.2674-.2734-.5559.2668-.4011-.44021-.7107-.2201.2533-.04668-.1548-.21343.767-.22009.0915.20675.2322-.28012.4996.26011.5207-.09337.3871-.31347-.0634-.27345.2533.14006.1619-.46687-1.337.62694.0211-.2401-.3237.07336.0352-.38683-.4011.65361-.5559.16674-.387-.24677-.4222.29346-.1619-.16007.5559-.81368-.1688-.55358.6122-.3935-.5559-.65361.2462-.20676.3448.33348.6545-.03335 1.3158-1.10047.0845-.50022.6544.09338-.0211.48687.2744-.92706.577-.14006.3448-.65362.1267.72698.2956-.1534.3518.26678-.4011-.40017h.3588l-.0211-.28012-.394.00667.2604-1.12048.5629-.23343.6263.22009.9218-.59359.0281-.32013z" stroke="#171619" stroke-width=".5"/><path d="m143.557 46.0394-2.047 1.1605-.352.02-.521-.4802-.112-.1067-1.879-.4336-.162-.827.253-.2067-1.013-1.4873.612-.3335.021-.4602-2.054-.1067-.634.3401-.267-1.0338-.739-.3334-2.301.2001-.324.5068-.534.2068-.535-.1734-.035 1.0871-.627.4269-.626 1.3739-.83-.2601-.936.2334-.577-.4402-.795.1468-.211-.567.9-1.2472.049-.4868-.541-.5203-.31.1734-.422-.1533-.338.3734-.049.1668-.289 1.554-.844.1601-.584.5202-.612-.5603v-.1934l-.416-1.1872-1.843.0534-1.83-2.7012.479-.3868.274-.7937-.33-1.6473.218-.3002-.113-.08-.155-.5669.887-.2201-.408-.6069-.394-.0067.077-.747.429.0133-.077.4802.485.6337-.126-1.3273.316-.5269-.935-1.0271.365-.3735.078-.6336-.31-.2334-.668.1267-.183-.2201.563-.2868.549-.7937.288-.0667-.443-1.2738 1.252.2134.261-.3068.429.2334.704-.0867.654.4802.267-.2001.261.1668.478-.4269.289.2201.014.5069.443-.08-.028.5135-.394.2335.056.2667.366.3535.078-.3201.232.0934.443-.3735.289-1.0338.464.0067 1.105.6603-.19 1.3405-.253.5803.541-.2201-.021.4002.422.16.19.4936.796-.4869.197.7537.478-.5269.739.2534-.127-.2935.535-.5869-.091.7203.717.1001.542-.2535.521.1734.422.4069.901.2067.134.3268.26-.06-.07-.2801.161-.0734.563.2735.014-.2535.197.0534.134.2401.12.2601.661.1134-.042.2534.528.1668-.028.1867.563-.0533.295.2601.324-.2601.823-.0401-.12.5003.711.7536-.169.5336.373.08.971-.6269.43.1467.492.2535.092.4401.436-.0066.204.3201.246-.1401.078.6603.872.2935-.042.887.345.0601.063-.2268.577.2601.113.4869 1.857.3868.282.5002.422-.0066-.387.4735.373.5202-.401.2668-.317.1734-.781-.4335-.478.3068-.788-.3535-1.302 1.6541-.261.6469.134.687.866.6536.168-.1134zm-21.856-15.5267.036-.0934.049-.0733-.014-.0867-.007-.0267.19-.02-.014.1334-.092.1067-.134.0667zm1.028-.0267.119-.1067.233.2735-.359-.1334v-.0334z" stroke="#171619" stroke-width=".5"/><path d="m97.2769 77.1526.3167.5736-1.1892.0667.0351-.4002.5489-.3401zm14.0801-11.6917-.028.3869.57.3201.401.9938 1.218.2801-.254.9404.831.9804-.38.3268-.521 1.9275-.331.0067.366.6136-.612.3735.113.5335-.817 1.3006.894.1.338.4336v.0733l-.071.6203.31.1934-.619.9471.45.2734.021.0734.352-.1467.338.2734.225-.5202.401.3268.134.7603.464.2201.451-.3668-.113.2401-.028.2668-.26.1334.309.3134-.176.3869.894.6069-.239.8137.478.0267.113-.0467.633-.0601.605.6003.049 1.7141.824.0667.471.8137-.422.8737.218.4201-.76.9138-.281 1.5139.436.3135.422-.7003.732-.5135.253.2601.394 1.1605-.14.9004.33.7469-.387-.14-.126.5069.809.8403-.619.8004-.676.2401-.76-.0734-.119-.6202-.359.2134h-.05l-.267.5269-1.196.0667-.176.2201-.528-.1268-.577-.6669-.844.1467.035.4735-.415.4669-.549-.2601-.422.2201-.036-.2801-.408.2001-.696-.1801-.275.6536-1.309.1801-.541.5335-.289.0667.218.4936-1.351.4602-.239-.1467-.669.3401-.246.4669-.127.0733-.802.767-1.168-.4201-.148-.3135.014-.0934-.14-.1867.38-.2802.366-.0667.14.2735.465-.5869.45.1934.486-.4469-.035.4402.232-.1734-.106-.3335.443.1868.078-.1601-.155-.0467-.098-.2001.429-.1934.253-.747.31.1001 1.231-.9604.275-1.2672-1.049-.5136-.091-.3068-.408.2468-.62-.3535-.429.3401-.535-.1467-.689-.907-.542.3801-.76-.7003h-.746l-.31-.3001-.359.3401-.077-.5602-.732.0867-.654-.6203.035-.3201-.929-.3935-.577.5536-.8161-.0867.0281-.4336-.9218-.7336-1.1048.5336-.4362.9337-.4785.3401-.183-.3334-.2603.1934-.2182-.3068-.3166.02-.1267-1.6674-.4222-.2468-.0985.7003-.9852.7003-.0492.5069-1.4918.4936-.3026.4001-.9359-.4001.3659-.1801-.1689-.8204.76-.8203-.3377-1.1605.3799-.0601.4785.687.9078-.1-.1196-.5069.4222-.2201-.0704-.8737.394-.4869 1.914-.1-.3588-.6203.4785-.687-.2252-1.6473.1126-.3602.6122-.3335.2111-.9137-.2322-.5869.3659-.0067.1548.5269.3166.0867.3167-.0267 1.3088-.4668-.2533-1.0338.2674-.5202 1.2247-1.4273.513-1.0605.81.2802.943-.1401.788-3.3348.309-.06.556-.9204 2.153-.8204.774-1.2538 1.204-.7003.865-1.2606.809-.5469z" stroke="#171619" stroke-width=".5"/><path d="m165.048 145.522-.141.787.401 1.367-.492-1.287zm-.162-.714-.042.401.366.306-.38-.273-.148-.4zm-30.568-5.709.19-.94 1.204-.947 1.041-2.195 1.886-.78.668-.894.254-.44.352-.247 1.245.567 1.4-.373 2.393-1.347-.211-.307.471.093.021-.307.486-.04.507.401.316-.254.359.334-.183.353.007.093.436.667 1.52.014 2.125-1.508-.035-2.481-.33-1.207.19-.627.668-.447.077-1.554 1.204-1.127.359-.12.457.614 1.787-1.387.233-.107.964-.287 1.28.374.071.633 1.717 1.274.485 1.901-.457 1.167.225.614-1.513 1.353.281.141-.133 1.954 2.04.22.423 1.014-.423 1.9-.942 1.468.119 1.033 2.245 4.049 1.386 1.394.915.44.401-.053.267 1.3-.689-.647-.373.941-.781.64-.31.654 1.168 1.467 1.196.607.416-.527.295.467.282-.027-.634.727-1.168.267-.718.46-.478-.227-.612.154-.809.56-.824-.153-.084-.181.401-.053-.563-.127-.183-.28.183-.213-.366-.074.099.454-.387-.093-.289.293-.964-.253-.697.36-.323.38.309.407-1.062-.16-.106-.42-.619-.434-.802-.06-.218.433-1.344-.113-1.422 1.267-1.126.467-.52 1.461-.627-.194-.816.614-.647.1-.613.587-2.082-1.547-1.443-.247.028.413-.689-.48-2.871-4.402-.127-.126-.211-1.094.331-.614-.261-1.1.261-1.528.401-.527-.141-.173-.12.007-.344-.14-.31.26-.781-.34-.422.233-.753-.627-.922.274-1.541-1.134-.88-1.488z" stroke="#171619" stroke-width=".5"/><path d="m147.449 12.9919.57.1201-.127.5936.429.7736.612.0534.38-.7203-.119-.2334.936-.1401.992.5602.957-.0333.57.5135v1.554l-.373.2868-.246 1.2406-1.126.9737.633 1.0405 1.654.4401.183-1.6407.471-.4602.936-.1267-.746 1.2139.887.6336.936-.2134 1.33.6936.049.4002.535-.3935.64.5869 1.323.2001.295.4335 1.014.5269.725-.2535.19.2201 1.667.0934 1.042-.4202.464.5603-.127.2667.247.3735-1.105-.0466-.662.4735-.056.8404-.703.5268-.078 1.1739.232.3001-.323.5936-.683.0534-.007.4268-.429-.0067-.887.9871-1.084.0734-.267.2334-.007 1.0805-2.153-.0267-.085.9071-.422-.0134.394.3068-.83.5269-.028.7137h-.099l-.401.1667-.675-.3535-.451.827.232 1.1872-1.238 1.2472-.345 1.1205.465.1801.098.4001-1.33 1.5274.141.4402-.493 1.3139.479.9604-.134 1.3272.619.4869.275.8137.591.0133.197-.02.113.7336-.655.6203-.837 1.4673.063.3268-.535.6003-1.766-.1001-.225.2001-.366.1067-.464-.0867-1.844-1.2205-1.196.2068-1.007-.9271-1.315.02-.197-.3668-.169.12-.866-.6603-.134-.6803.254-.6536 1.309-1.6473.781.3534.478-.3068.781.4336.317-.1734.401-.2668-.373-.5202.387-.4736h-.422l-.289-.5002-1.857-.3868-.113-.4869-.577-.2601-.063.2201-.345-.06.042-.8804-.872-.2935-.071-.6603-.246.1401-.204-.3135-.429.0067-.099-.4469-.492-.2534-.423-.1467-.971.6269-.373-.08.176-.5336-.718-.7537.12-.5002-.823.04-.324.2602-.295-.2602-.563.0601.021-.1868-.521-.1734.042-.2534-.668-.1134-.12-.2535-.127-.2401-.204-.0533-.014.2534-.563-.2734-.169.0733.078.2802-.26.06-.134-.3201-.901-.2068-.422-.4068-.014-.5136.584-.1734-.078-1.9809-.499-.1934-.563.9338-.204-.4802-.528.02-.169-.7203.324.08.591-.827.69-.3869.612.1468.211.3268-.176.2201 1.703-.4336.063-.3935-.084-.2401-.331.1334-.246-1.2605.133-.3868 1.049-.2335-.345-.947.908-1.334-.183-1.1204-.155-.2135.225.0067.028-.7136.521-.6336.563.3534 1.02-.12.444-.2001.246-.6336.992-.1667.211-.4336-.26-.8203.387-.4068.049-.2268.106-.4069 1.245-.6069.859-.9404-.338-.4335.12-1.7741.612.4135.112-.5802.282.4868.225-.2868.162-.0333.901-.5202.035-.7604.211-.2267.042-.0467.289.0267.633-.3335.718-.3335z" stroke="#171619" stroke-width=".5"/><path d="m206.705 122.425.338.527.303-.066.112.593.725.574.26.113.746-.44.31.534-.225.4-.936-.034-.711-.573-.753-.167-1.21 1.021-.092-1.815.31-.366.176.16.408-.207.127-.814zm-.323-1.147.197.514-.296-.234zm2.167-7.443.422.554.894.066-.12.18.225.087-.351.094-.064.293.633.82-.696.287-.078.6-.893.14-.064.641-.211.066.169.181-.352-.04-.64.787-.38-.107-.007.327-.324-.301-.028.307-.338-.013-.316.627.056 1.04-.415-.246-.26.273-.514-.92-.465.333-.035-.24-.38.107v-.314l-.506-.086-.458.54-.457-.36-.211-.727.436-.861-.401-.447.267-.373.303.193 1.175-.146-.422-.467.267-.387-.091-.52.922-.507.33-.48.324.266.246-.4.549.04.141-.333.302.26.894-.68.204.273.19-.354zm27.155-1.087.429.14-.373.254.021.48-.704-.014-.084-.8.282.427-.043-.274.394.14zm-11.928-9.891-.527.354.661-.621zm16.875-8.7437-.19.3669-.908.4868-.45-.0867-.395.6603-.358-.2868-.233.2468.064.5536.408.4401 1.886-.7403-.282.2068.148.4802-.352.4802-1.055.1401-.014.7136.365.6203.535.4668 1.619.6537 1.442-.7204.366-.6936 1.647 1.0471.506-.04-.119.5803.499.1734-.443.2335-.014 1.147-.274-.013-.092.513-.556-.053-.267.353-.155.747.345.247-.486.094-.204.566-.689.301.154.093-1.013 1.134-.246 1.68-.239-.233.119.22-.591 1.087h-.218l.141.134-.873.273-.316.58-.472-.08-1.428 1.428-.43.08-.703-1.034-.528-.14.063-.52-.591-.567-.549-.04-.309.293-.57-.32-.915-.047-.127.26-.422-.253-.373.1-.887-1.034.099-.82-.479-.807.507-.814-1.506-1.194-.682.034.176-.147-.204-.027-.176.434.316-.1-.147.2-.5-.154-.303.487-.978.167.148.294-.26.146-.204 1.114-.62-.347-.274.154.056-.587-.436-.334.45-.28-.528-.447-.626.327.064-.333h-.324l-.345.393.007-.313-.485.04.513-.34-.338.053-.492-.48.19-.947 2.026-1.121 1.281-1.167.521.027.591-.3872.64-.9338.831-.3868.112-.4602.24-.1534.225.2001.119-.4669 1.45-.6803.056-.3668 1.288-.1267.169-.3201 1.562-.6803.281-.3935.627.2734 1.147-.6803-.078.1801.437-.0667-.022.3068.627-.3668.506.0867.873-.6536.288-.0267-.126.2267zm18.302 2.5945-2.526-1.574-1.45-.5269-1.147.3735-1.449.0133.19-1.8675-.676.0734-.133-.5136.598-.7336.851-.1534.598-.04.444.3268.232-.4002.858.2801 1.014-.3401.408.3201.675-.3935-.14-.4802.33.0734-.119.6202.211.3535.57-.4401-.12.8737.26-.2001-.07-.7537.683.1467-.226.6136.402.2935.253-.2401.197.9204.035-.4669.239.3802h.957l-.274.0934.218.2534-.225.4202.281.1134-.084.3068.288-.1134.099.9137.429.3268.042.4269.324.0933-.324.1468-.274-.4869-.739-.1201.746.3469.211.3801-.07.7804-.598.5469-1.232-.3735z" stroke="#171619" stroke-width=".5"/><path d="m125.825 9.61713.633-.24677.225.66694.908.5803.866-.2468.549.6069.316-.0733.331.3134.415-.2134.246.4202.76-.0801.922 1.0138 2.027.9204 1.379.0867 1.048-.4002.423.1734.063-.1934.246.4736.634.1867 2.42-.8604.753.1334-.035-.2467.605-.3135.873.04 1.294-1.0671 1.112-.4002.162.8204-.485.2801.935.1867.401.3335.113.7737-.633.3335-.289-.0267-.042.04-.211.2268-.035.767-.901.5202-.162.0333-.225.2801-.281-.4802-.113.5736-.612-.4068-.12 1.7741.338.4335-.859.9337-1.245.607-.099.4068-.049.2268-.387.4001.261.8204-.205.4335-.999.1667-.246.627-.443.2001-1.021.12-.563-.3535-.527.6336-.029.7137-.232-.0067.155.2134.183 1.1205-.908 1.3339.345.9471-1.048.2334-.134.3869.239 1.2672.331-.1401.091.2401-.063.3935-1.703.4335.183-.2201-.218-.3268-.605-.1467-.69.3868-.591.8337-.324-.0867.169.727.528-.02.204.4802.563-.9337.5.1867.077 1.9875-.584.1734.014.5069-.521-.1734-.541.2535-.718-.1001.091-.7203-.535.5869.127.2935-.739-.2535-.478.5269-.197-.7536-.795.4869-.19-.4936-.423-.1601.022-.4001-.542.2201.253-.5803.19-1.3406-1.105-.6602-.464-.0067-.289 1.0338-.443.3735-.232-.0934-.078.3201-.366-.3535-.056-.2667.394-.2335.028-.5135-.443.08-.014-.5069-.289-.2201-.591-.2534-.204-.4669.05-.0467-.099-.5802-.535-.3468-.957.0933-.696-.8203v-.0867l-.486.0333-.127-.6402-1.878.1934.443-.7804-.647-.3801.957-1.6674-.197-.5136-.739.8671-.655-.3068-.577.747.296.2734-.183.0334-1.351-1.3673 1.161-1.674 1.513.3801-.043.4002 1.084.4602 1.386-.2201.753-.7403-1.182-.787.092-.2668-.472-.5336-1.597-.1-.598-.3668.668-.1935.014-.9337-.316-.1734.436-.5736-.141-.3068-.204.1334-.549-.3535.746-1.2138-.457-.2802-1.042.1468-.598-.6536-3.138 1.594-.324-1.8675-.127-.1867-.154-.4736.978-.2534.295-.5936.838-.1934.14-.5603.176.2001.528-.1934.303.2601 1.027-.4668.296.6202.351-.3668.641-.08.077-1.2939.493-.04.225.2867.134-.4935h.225l.971.6069.274-.1867-.211.1801.451.3334.119-.5669-.436-.6336.619-.2201.654-.747.451.0067-.007-.58024 2.632.14006zm-9.577 6.15597-.422-1.3472.767-.3402.33.1734-.38.7003.022.7003zm8.571 10.0243.049.0134.07.1133.113.0934 1.759-.1934 1.682.7003.774-.1267.267.4869.584-.3002-.295.9538-.282.3134-.211-.0933-.169.4602.613.6936 1.041-.3802.106.9271-.592.1801-.119-.2601-1.555.0466-.444-.6069-.865-.04-.268.2935-.942-.1001-.338-.787-.753-.2534-.859-.7604.577-1.0271z" stroke="#171619" stroke-width=".5"/><path d="m151.347 89.7981.901.1201.218.12.338-.1334.436.2001.345-.2868.316-.1333-.007-1.1872.38-.3068.021.2134.12.2868.303.7003.57.3335.007.6803 1.857.0867 1.351 1.0271.12.4602-.232.3134-1.562.607-1.584.3801-.506-.1534-.035-.0667-1.872-.2267-.859-1.8141.197-.1801-.837-.5736zm5.925 4.0685.338.22.148-.2467.457.1.387-.2601 1.597-.0467 1.063.5669.225-.1867.31.5936-.169.5069.239.6536-.211.4201.809.5803 1.429-.8003-.796-1.0071.043-1.2539 1.027-.3935.514-1.2339 1.379.0467.964-.707.31.0867-.254-.7736.352-.5469.584-.2601.676-2.7079.971.5603 1.273-.3669.831-.4735-.331-.7203.211-.2735.443.0201.521-.8271 1.112-.6069-.106-.5269-1.147-1.3072.247-.3602 1.182-.4468-.085-.5403-.457-.3735.134-2.2743-.584.1668-.873-.2535-.183-1.2472.936-.3335.429.4602 1.358-.7269.113-1.1805.654-1.0271.993-.0334.021.4135.682.5736.866.3868.767-.06.38-.02.38.12.007.0734.225.667.225.08 1.295-.847.746.1867.436-.3468.528.2334.542-.2001.218.7537h.105l.444-.0534.19.1801.056.0601.141.0533-.387 1.0871.288.3735 1.119.4936 1.196.14.788.5803-.091.727 1.449.5869-.71 1.5273-.035-.1801-1.084 1.574-.176 1.0138-1.583 1.9342-.746.5402-.401 1.0538-1.386.8404-.929 2.2009-1.865 1.1605-1.049 2.7612-1.132 1.3005-.345.0267-1.872 2.9346-.577 1.8744-.985 1.047-1.098 2.281.035 1.427-.267-.193.239.387-.317.14.592 2.447 1.709 3.388-.436.287.042.727 1.478 3.462 2.653 2.761 2.787.587-.303.093.134.2.098-.193v.26l1.464.7-.282.26.155.454.366.32.267-.1.19.647-.985.367-.626.92-.394-.14-.598.32-.472.627.176.334-.654-.24-.373.373-.619-.113-.507.286-.661.921.246.373-.894.887-1.034-.26-.415.454-2.182.653-1.696 1.054-.548.894.007 1.194-.817-.227-.837.827.183-.387-.429.194-.296 1.2.204 1.794-.281.32-1.344.027-.415.4-.528 1.641-.085 2.268-.387.593-.626.2-.415 1.274-.591.314-.218 1.147-.401.053-.915-.44-1.386-1.394-2.245-4.048-.12-1.034.943-1.467.422-1.901-.422-1.014-2.041-.22.134-1.954-.281-.14 1.513-1.354-.226-.614.458-1.167-.486-1.901 1.225-.02.907-.914-.879-1.767.633-.28.099-.907-.247-.741.226-.867-.465-.393-.211-.794-.788-.133-.619.36-2.118.127-1.57-2.228-.71-.5.147-1.407 1.408-2.415.366-2.234-.873-.454-.225.221-.64-.234-.113-.053-.401-.047h-.113l-.661-.233-.127-.034-.162.194-.591-.514-.33.027v-.294l-.472-.033.204-.207-.485-.106-.036.433-.042-.22-.042-.107-.471.327.084-.04.035-.32-.352-.12.275-.007-.134-.407-.049.04-.268.14.183-.213h-.429l.127-.434h-.422l.14-.16-.443-.06-.162-.54.289-.1.19-.467-.169-.42.246-.107-.07-1.093-.338-.061 1.105-.633 1.119-2.094.654-.527.549.193.514.234.675-.194.31-.453-.247-.9341 1.126-1.614.324-2.2343.063-.2868-.274-.4669.127-.3868z" stroke="#171619" stroke-width=".5"/><path d="m49.6 228.28c-1.28 0-2.4933-.107-3.64-.32-1.1333-.227-2.0067-.48-2.62-.76v-3.96h4.4c0 .413.0933.713.28.9s.5267.28 1.02.28c.4133 0 .7067-.06.88-.18.1867-.133.28-.327.28-.58 0-.213-.0867-.393-.26-.54-.1733-.16-.4733-.32-.9-.48l-1.72-.6c-1.48-.56-2.5467-1.22-3.2-1.98-.64-.76-.96-1.787-.96-3.08 0-1.573.5133-2.767 1.54-3.58 1.04-.827 2.7667-1.24 5.18-1.24 1.16 0 2.2467.12 3.26.36 1.0267.227 1.8533.533 2.48.92v3.58h-4c0-.667-.4133-1-1.24-1-.4 0-.6867.053-.86.16-.16.093-.24.267-.24.52 0 .227.0933.407.28.54.2.133.52.273.96.42l1.74.6c1.4133.48 2.44 1.107 3.08 1.88.6533.76.98 1.76.98 3 0 1.693-.5733 2.973-1.72 3.84-1.1333.867-2.8 1.3-5 1.3zm7.2766-3.56h1v-9h-1v-3.28h8.78c1.72 0 3.0333.373 3.94 1.12.9066.733 1.36 1.927 1.36 3.58s-.4534 2.853-1.36 3.6c-.9067.733-2.22 1.1-3.94 1.1h-2.18v2.88h1.92v3.28h-8.52zm7.28-5.72c.7733 0 1.16-.427 1.16-1.28v-.72c0-.44-.1-.76-.3-.96-.1867-.213-.4734-.32-.86-.32h-.68v3.28zm20.1734 5.72h.8v3.28h-7.84v-3.28h1.2l-.32-1.6h-2.72l-.32 1.6h1.2v3.28h-6.84v-3.28h.8l3.38-12.28h7.28zm-8.44-3.72h1.84l-.82-3.98h-.2zm9.8733 7v-3.28h1v-9h-1v-3.28h7.6v3.28h-1v9h1v3.28zm19.9187-15.56h6.56v3.28h-1v12.28h-5.62l-5.8603-9.02v5.74h.9603v3.28h-6.5603v-3.28h1v-9h-1v-3.28h7.2203l5.26 8.02v-4.74h-.96z"/></g></svg>