<svg fill="none" height="606" viewBox="0 0 500 606" width="500" xmlns="http://www.w3.org/2000/svg" xmlns:xlink="http://www.w3.org/1999/xlink"><clipPath id="a"><path d="m0 0h500v606h-500z" transform="matrix(-1 0 0 1 500 0)"/></clipPath><g clip-path="url(#a)"><g fill="#000"><path d="m375.579 513.219 4.477-86.129c1.39-7.622 2.636-15.243 3.955-22.865l3.723-22.895c2.477-15.272 4.766-30.559 7.07-45.861 2.246-15.301 4.477-30.603 6.548-45.919l3.101-22.995c.898-7.318 1.869-14.621 2.709-21.938.739-.218 1.463-.435 2.188-.681l.029.231.188 2.145c.13 1.42.174 2.854.232 4.289.159 2.854.203 5.723.29 8.593.101 5.723.144 11.461.159 17.199.072 11.462.058 22.934-.044 34.414-.13 22.938-.246 45.876-.507 68.814l-.478 68.842-.174 34.414v34.414c-27.352-2.449-33.466-4.072-33.466-4.072zm-47.447-241.39c1.836-2.528 3.304-5.304 4.36-8.245 1.131-2.898 2.101-5.854 2.985-8.839 1.767-5.955 3.173-11.998 4.448-18.054 1.246-6.086 2.361-12.172 3.259-18.301.942-6.13 1.671-12.283 2.188-18.461 0 0 10.75-6.332 13.734-9.317 2.101-2.101 5.94-2.333 8.041-2.275.625.034 1.251-.068 1.833-.298.583-.23 1.109-.583 1.543-1.035.256-.215.454-.49.576-.801s.163-.648.122-.98c-.042-.331-.166-.647-.362-.918-.195-.271-.455-.489-.757-.634-.805-.568-1.783-.84-2.767-.768-2.564.145-8.243.638-10.923 2.391.911-.735 1.875-1.404 2.883-1.999 30.859-7.637 81.58-1.942 81.58-1.942s.913 6.68 2.289 18.895c-1.391-2.568-2.935-5.05-4.622-7.433-.826-1.174-1.651-2.348-2.506-3.507-.867-1.202-1.795-2.358-2.782-3.463.198 1.503.618 2.968 1.246 4.347.593 1.373 1.321 2.684 2.173 3.912.849 1.23 1.815 2.375 2.883 3.42 1.064 1.079 2.279 1.997 3.608 2.724 5.201 45.731 17.168 169.041 13.618 308.885-14.932 6.824-31.386 9.635-47.737 8.158.449-11.462.739-22.938 1.101-34.399l.797-34.414c.493-22.938.739-45.89 1.014-68.828.102-22.953.218-45.905 0-68.857-.13-11.476-.304-22.938-.608-34.414-.174-5.738-.396-11.476-.666-17.214-.174-2.855-.29-5.724-.537-8.593-.115-1.435-.217-2.855-.42-4.289l-.26-2.13-.044-.246c.652-.217 1.304-.435 1.956-.667 1.941-.739 3.868-1.507 5.751-2.405 1.911-.871 3.755-1.878 5.52-3.014-2.075.317-4.127.772-6.142 1.362-2 .565-3.956 1.246-5.912 1.927-1.926.739-3.853 1.493-5.751 2.347-1.898.841-3.752 1.768-5.607 2.797 2.101-.162 4.179-.541 6.201-1.13.565-.145 1.116-.319 1.666-.478-1.304 7.23-2.492 14.49-3.752 21.735l-3.724 22.894c-2.477 15.273-4.766 30.56-7.07 45.861-2.231 15.302-4.476 30.603-6.548 45.934l-3.086 22.996c-.956 7.665-1.985 15.33-2.868 23.024l-14.285 85.303s-46.115 10.216-76.727.406c0 0 26.281-146.002 39.088-240.97zm82.638-64.162c.173 3.318.376 6.622.724 9.926.319 3.303.724 6.607 1.347 9.882.319-3.333.406-6.651.42-9.969.015-3.318-.101-6.637-.231-9.941-.189-3.318-.391-6.621-.725-9.925-.333-3.304-.739-6.593-1.362-9.882-.304 3.332-.391 6.65-.405 9.969-.015 3.318.087 6.636.232 9.94zm.173-21.75c.441-.016.858-.202 1.164-.52.306-.317.477-.741.477-1.182s-.171-.865-.477-1.183c-.306-.317-.723-.504-1.164-.52-.44.016-.858.203-1.164.52-.306.318-.477.742-.477 1.183s.171.865.477 1.182c.306.318.724.504 1.164.52zm-59.964 27.024c1.586-.304 3.154-.7 4.694-1.188 3.117-1.037 6.029-2.611 8.605-4.651 2.538-2.129 4.597-4.771 6.042-7.752 1.467-2.914 2.151-6.16 1.985-9.419-.7 3.039-1.894 5.942-3.535 8.593-1.608 2.578-3.613 4.886-5.94 6.839-1.18.956-2.43 1.823-3.738 2.594-1.302.806-2.657 1.522-4.057 2.144-.696.342-1.412.642-2.144.899l-2.187.855c-1.493.478-2.999.913-4.521 1.478 1.594-.073 3.188-.203 4.796-.392zm-16.009-9.592c.029-2.217-.015-4.13-.145-5.723l2.26 1.463c2.592 1.194 5.508 1.489 8.287.84-1.376 6.042-2.68 12.09-3.912 18.142l-3.752 18.156c-1.231 6.042-2.545 12.065-3.941 18.069-.724 2.985-1.463 5.984-2.318 8.94-.764 2.985-1.878 5.869-3.317 8.593 4.042-29.98 6.737-54.874 6.838-68.48zm4.187-24.532c.17-4.597 2.105-8.951 5.404-12.157 5.418-3.043 1.709 5.622 1.506 6.115.073-.073.377-.391.884-.84.319-1.58.609-3.246.884-4.956l.043-.261c.783-4.926 1.449-10.317 1.985-15.954-.002-.053.003-.107.015-.159.484-10.698-.763-21.404-3.695-31.704-2.144-8.288-6.939-8.564-6.939-8.564l-28.976 32.24 27.759 32.661c.733 1.05 1.127 2.299 1.13 3.579z"/><path d="m.101978 349.51s22.846922 60.018 65.295922 51.86c4.3152-.811 8.7139-1.089 13.0968-.825 8.6203-4.782 17.139-9.694 25.6723-14.577 8.519-4.927 16.965-9.926 25.281-15.157 8.359-5.159 16.545-10.578 24.455-16.345 1.985-1.449 3.999-2.854 5.882-4.419 1.898-1.536 3.883-2.985 5.723-4.594l5.534-4.868c1.681-1.768 3.4-3.526 5.158-5.275-5.738 8.086-13.228 14.766-20.921 20.953-1.926 1.55-3.853 3.115-5.881 4.535l-6.013 4.347c-4.1 2.768-8.2 5.521-12.401 8.129-8.403 5.202-16.965 10.129-25.731 14.664-8.75 4.579-17.6455 8.825-26.7583 12.607 39.1453 2.187 80.4503 42.644 84.8543 51.439 4.897 9.795 102.037-94.692 124.29-160.564 6.592-19.504 23.847-53.44 47.042-87.578.11-.156.207-.321.289-.493.493-.87 1.261-2.449 2.115-4.26l-2.26-1.464c-1.387-1.128-2.51-2.548-3.288-4.158-.753.855-1.261 1.362-1.261 1.362s-40-29.386-48.983-40.007c-8.982-10.607 0-21.228 0-21.228s26.527-41.2247 40.001-54.686c4.331-4.0671 9.666-6.9078 15.458-8.2303-30.83 5.9988-103.384 31.1683-179.937 136.9463-101.2108 139.872-156.713022 141.886-156.713022 141.886zm467.315022 250.317c-1.043-.044-2.086-.073-3.115-.16 13.358 1.362 29.7-.449 34.596-15.765-1.134-1.97-2.633-3.707-4.418-5.115-.347-.323-.757-.569-1.205-.722s-.923-.211-1.394-.168c-.472.042-.929.183-1.343.414-.413.231-.773.546-1.057.925-1.364 1.723-2.494 3.618-3.36 5.637-1.029 2.058-2.072 4.158-3.275 6.245-1.248 2.177-2.894 4.099-4.853 5.666-2.052 1.49-4.451 2.433-6.969 2.738-1.194.18-2.399.282-3.607.305z"/><path d="m392.601 558.849c1.304-1.71 2.477-4.782 2.752-10.317.696-13.81 10.75-6.072 10.75-6.072 17.11 9.057 21.804-4.97 23.079-7.187 1.275-2.202 11.952-3.449 16.197 3.159 1.542 2.119 3.451 3.944 5.636 5.39-1.925.234-3.804.752-5.578 1.536-1.785.745-3.481 1.688-5.056 2.811-1.625 1.126-3.055 2.511-4.23 4.101-1.322 1.56-1.995 3.566-1.884 5.607.921-1.573 2.124-2.963 3.55-4.1 1.347-1.145 2.782-2.217 4.259-3.26l4.462-3.188c1.507-1.087 2.999-2.203 4.477-3.492 3.287 2.291 6.74 4.335 10.33 6.115-1.897-.01-3.776.37-5.52 1.115-1.76.718-3.398 1.705-4.853 2.927-1.483 1.219-2.726 2.703-3.666 4.376-.971 1.647-1.541 3.498-1.666 5.405 1.275-1.435 2.26-2.84 3.506-4.072 1.156-1.241 2.39-2.407 3.695-3.492 2.593-2.217 5.432-4.1 8.504-6.259 2.724 1.376 4.679 2.231 4.679 2.231 2.217.696 4.289 1.42 6.215 2.145-1.906.45-3.73 1.198-5.403 2.216-1.7.986-3.268 2.184-4.665 3.565-1.448 1.393-2.644 3.025-3.535 4.825-.946 1.802-1.306 3.853-1.029 5.869.805-1.662 1.797-3.227 2.955-4.666 1.132-1.399 2.352-2.725 3.651-3.97 2.536-2.594 5.346-4.956 8.041-7.839 31.018 11.664 27.527 26.111 27.527 26.111-.218 1.171-.508 2.328-.869 3.463-.655-2.322-1.863-4.45-3.521-6.202-.957-1.001-2.255-1.606-3.637-1.695-1.429.035-2.793.603-3.824 1.594-.948.849-1.764 1.836-2.42 2.927-.666 1.043-1.217 2.043-1.811 3.071-1.13 2.059-2.173 4.116-3.346 6.028-1.031 1.896-2.401 3.585-4.042 4.985-.421.29-.812.637-1.261.913l-1.391.753c-1.001.421-2.032.765-3.085 1.03-4.49.872-9.063 1.237-13.634 1.086-6.761-1.784-13.139-4.79-18.819-8.868-14.734-10.331-31.192-9.781-42.232-15.678-.231-.131-.463-.261-.695-.377-1.216-.715-2.264-1.685-3.069-2.844s-1.35-2.479-1.597-3.868c-.246-1.39-.189-2.816.169-4.182.358-1.365 1.007-2.636 1.904-3.726zm20.688 1.811c1.782 1.362 3.622 2.651 5.52 3.84 1.898 1.188 3.854 2.289 5.853 3.289 2.018 1.046 4.122 1.918 6.287 2.608-1.568-1.644-3.269-3.156-5.085-4.521-1.782-1.362-3.622-2.651-5.519-3.84-1.884-1.188-3.84-2.275-5.853-3.289-2.018-1.048-4.121-1.921-6.288-2.608 1.564 1.648 3.266 3.16 5.085 4.521z"/></g><path d="m464.301 599.667c-.348-.029-.696-.073-1.043-.101.202.014.391.043.594.072.145.014.304.029.449.029zm-4.506-.638c.174.043.363.072.551.116.376.073.753.13 1.13.174-.565-.087-1.13-.174-1.681-.29z" fill="#fff"/><g fill="#000"><path d="m429.18 535.28c-.123-2.989-.347-5.911-.42-8.839-.122-2.933.019-5.871.42-8.778-1.2 2.774-1.731 5.791-1.552 8.808.068 2.998.592 5.968 1.552 8.809zm-30.582 5.466c.531-2.054.91-4.133 1.255-6.217.355-2.083.608-4.179.83-6.28.192-2.104.368-4.211.405-6.327.074-2.117.016-4.236-.174-6.346l-.696 6.287-.663 6.274c-.192 2.094-.415 4.186-.564 6.288-.164 2.1-.325 4.202-.393 6.321zm15.082-523.3212c.084 3.3582.485 6.701 1.199 9.9835.409 1.5857.67 3.2056.781 4.8391.101 1.6557.092 3.3163-.028 4.9707.558-1.6047.865-3.2856.912-4.9838.05-1.7066-.138-3.4119-.557-5.0669-.713-3.2419-1.37-6.5078-2.307-9.7426z"/><path d="m416.715 27.977s-8.375-2.4753-11.664 2.7708c0 0-3.685-.7358-5.414 1.0426-1.81-1.2795-3.981-1.9475-6.197-1.9067s-4.361.7883-6.123 2.1336c0 0-.527 8.7838 6.427 9.0927 0 0 7.084-1.4048 6.032-7.9259 0 0 1.262-2.4369 5.414-1.0452 0 0 3 7.9297 8.057 5.3171s3.468-9.479 3.468-9.479zm-10.932 46.7292c-2.678.2639-5.339.682-7.969 1.2521-2.723.5234-5.409 1.2281-8.039 2.1094l-1.438.5139 1.037.9197c1.805 1.6002 3.7 3.1119 5.396 4.8175 1.698 1.7087 3.308 3.5023 4.824 5.3739l.288.3453.499-.2361c1.4-.6626 2.805-1.317 4.175-2.0317l4.091-2.1785c1.364-.724 2.723-1.4595 4.055-2.2389 1.338-.7718 2.65-1.587 3.96-2.405l1.791-1.1177-1.848-.8301c-3.531-1.6161-7.143-3.0493-10.822-4.2938zm-.024.2255c3.37 2.2889 6.596 4.2311 9.857 6.0469l-.058-1.9475c-1.365.724-2.728 1.4508-4.066 2.221-1.343.7627-2.66 1.5692-3.97 2.3873l-3.936 2.4474c-1.305.8274-2.576 1.715-3.851 2.5944l.786.1092c-1.83-1.5661-3.58-3.2238-5.243-4.9667-1.659-1.7413-3.12-3.6764-4.671-5.5231l-.401 1.4333c2.623-.4773 5.21-1.1364 7.742-1.9724 2.568-.8078 5.142-1.6923 7.811-2.8298z"/><path d="m389.991 78.9014 10.068 10.34-7.544 8.4364-16.352-12.3491z"/><path d="m410.295 50.5508c-1.072 1.8338-1.963 3.767-2.661 5.7727-.725 2.0002-1.296 4.0531-1.707 6.1406-.427 2.0866-.675 4.2061-.741 6.3351-.088 2.1239.044 4.2511.393 6.3479.104-1.0616.057-2.1094.191-3.1569.058-1.0468.144-2.089.285-3.1259.255-2.073.553-4.1372.983-6.1788.394-2.0483.889-4.0771 1.423-6.1009.545-2.0222 1.165-4.0252 1.834-6.0338zm-27.896.3968c-.114 1.7522-.319 3.4768-.554 5.1829-.227 1.6966-.584 3.3731-1.069 5.0146-.444 1.6305-1.123 3.1878-2.014 4.6233-.929 1.4368-2.159 2.6551-3.604 3.5709 1.715-.5631 3.221-1.628 4.324-3.0568 1.093-1.4388 1.901-3.0733 2.38-4.8155.5-1.7088.789-3.4724.861-5.2515.1-1.7626-.009-3.5308-.324-5.2679zm33.682 29.1507c2.668 1.0142 5.316 2.0482 7.879 3.2701 2.583 1.16 5.105 2.452 7.555 3.8709 4.92 2.7479 9.514 6.044 13.693 9.8254 8.475 7.5723 15.955 16.1893 22.261 25.6453 1.556 2.372 2.968 4.835 4.228 7.376.299.613.545 1.251.736 1.905.164.67.283 1.35.356 2.036.149 1.365.111 2.744-.113 4.099-.111.673-.266 1.337-.465 1.989-.099.333-.205.634-.321.944l-.45.972-1.746 3.91c-1.175 2.601-2.272 5.233-3.409 7.849-4.566 10.455-8.652 21.092-12.423 31.875l.442-.296c-1.087.081-2.168.237-3.233.468l-3.132.661-3.119.66c-1.032.231-2.078.391-3.131.48v.227c1.073-.019 2.143-.111 3.204-.275l3.16-.49 3.149-.489c1.026-.166 2.063-.262 3.102-.287l.3.001.142-.297c4.914-10.319 9.512-20.784 13.631-31.43 1.034-2.66 2.108-5.304 3.104-7.978l1.511-4.004.364-1.006c.113-.366.222-.744.306-1.101.524-2.173.612-4.428.257-6.634-.115-.729-.279-1.449-.492-2.155-.24-.706-.543-1.389-.903-2.041-1.364-2.55-2.873-4.975-4.457-7.36-3.178-4.754-6.447-9.445-9.937-13.995-3.456-4.601-7.326-8.8767-11.562-12.7725-2.152-1.9381-4.432-3.7294-6.825-5.3616-2.402-1.5978-4.899-3.0493-7.476-4.3467-2.57-1.292-5.205-2.4511-7.893-3.4725-2.692-.9882-5.439-1.8196-8.228-2.4898z"/><path d="m425.252 93.2105c1.048 7.4045 2.293 14.7665 3.605 22.1145 1.335 7.343 2.691 14.68 4.374 21.956 1.622 7.287 3.267 14.575 4.387 21.955.614 3.679 1.125 7.377 1.563 11.078.218 1.85.417 3.702.575 5.55.191 1.795.262 3.602.213 5.406l.927-.82c-6.822-.314-13.642-.475-20.465-.64-6.823-.175-13.65-.208-20.477-.134-6.828.074-13.655.285-20.482.632-3.412.209-6.823.45-10.23.796-1.702.181-3.402.402-5.095.687-1.724.193-3.403.679-4.962 1.439l.126.188c.762-.341 1.572-.563 2.403-.656.834-.132 1.674-.233 2.52-.304 1.689-.156 3.388-.225 5.086-.297 3.396-.15 6.8-.195 10.205-.209 6.807-.087 13.62-.004 20.433.045l40.889.266.907.006.021-.827c.003-1.929-.164-3.855-.499-5.755-.272-1.86-.597-3.703-.915-5.547l-2-11.031c-1.391-7.338-2.448-14.733-3.583-22.119-1.079-7.396-2.561-14.717-4.108-22.023-1.576-7.3-3.256-14.578-5.196-21.802zm21.656 144.5535c1.823-1.399 3.325-3.172 4.406-5.2.555-1.005 1.056-2.039 1.501-3.098l.652-1.598.523-1.636c1.314-4.38 2.07-8.909 2.25-13.479.096-2.272.049-4.542.014-6.807-.204-2.255-.266-4.521-.595-6.757-.326-2.235-.638-4.47-1.092-6.676-.51-2.2-1.011-4.395-1.641-6.559-.006 2.267.116 4.502.229 6.732l.25 6.676.106 6.644c-.05 2.205-.023 4.415-.163 6.609l-.179 3.292c-.06 1.097-.249 2.176-.336 3.269-.076 1.099-.25 2.176-.433 3.254-.164 1.083-.338 2.162-.587 3.224-.721 4.349-2.396 8.485-4.905 12.11z"/><path d="m445.946 223.477c1.401-.036 2.737-.599 3.741-1.578.938-.93 1.597-2.106 1.901-3.392.465-2.421.541-4.9.223-7.345l-.898-14.421.128 14.443c.18 2.349.001 4.711-.529 7.006-.294 1.062-.881 2.02-1.695 2.763-.771.686-1.765 1.068-2.796 1.077zm-83.449 381.58c1.204.111 2.415.136 3.622.073 2.538-.046 5.021-.739 7.215-2.014 2.105-1.36 3.933-3.105 5.39-5.144 1.42-1.957 2.665-3.942 3.911-5.883 1.06-1.927 2.376-3.701 3.912-5.275.657-.648 1.527-1.034 2.448-1.087.968.049 1.883.457 2.565 1.145 1.627 1.593 2.944 3.475 3.882 5.55-6.432 14.678-22.76 14.866-35.871 12.2.956.16 1.941.291 2.926.435zm-70.265-48.339c1.463-1.579 2.941-4.521 3.782-9.983 2.1-13.664 11.314-4.97 11.314-4.97 16.096 10.751 22.195-2.725 23.688-4.797 1.477-2.072 12.242-2.217 15.791 4.782 1.319 2.257 3.026 4.263 5.042 5.926-1.931.041-3.845.369-5.679.971-1.85.562-3.633 1.325-5.317 2.275-1.732.959-3.298 2.192-4.636 3.652-1.467 1.423-2.341 3.349-2.449 5.39 1.085-1.464 2.425-2.721 3.956-3.709 1.463-1 2.984-1.927 4.563-2.811l4.767-2.725c1.608-.927 3.201-1.883 4.81-3.028 3.033 2.608 6.253 4.991 9.634 7.129-1.878-.196-3.775-.008-5.578.551-1.824.543-3.554 1.364-5.129 2.434-1.594 1.066-2.983 2.411-4.099 3.971-1.128 1.543-1.877 3.33-2.188 5.215 1.405-1.304 2.535-2.607 3.897-3.694 1.275-1.119 2.62-2.155 4.028-3.101 2.81-1.942 5.809-3.536 9.083-5.361 2.579 1.651 4.434 2.695 4.434 2.695 2.129.927 4.129 1.84 5.983 2.768-1.949.253-3.845.81-5.621 1.651-1.788.811-3.468 1.843-4.998 3.072-1.585 1.235-2.939 2.741-3.999 4.448-1.127 1.691-1.695 3.693-1.623 5.724.971-1.575 2.118-3.033 3.419-4.347 1.267-1.271 2.613-2.461 4.028-3.564 2.796-2.319 5.824-4.391 8.794-6.984 29.671 14.736 24.731 28.763 24.731 28.763-.329 1.147-.736 2.27-1.218 3.361-.415-2.378-1.399-4.62-2.868-6.535-.846-1.093-2.071-1.828-3.434-2.058-1.431-.105-2.85.324-3.984 1.203-1.023.753-1.93 1.651-2.694 2.666-.768.971-1.406 1.913-2.101 2.869-1.347 1.927-2.593 3.883-3.955 5.666-1.215 1.781-2.747 3.324-4.52 4.55-.45.246-.884.55-1.348.782l-1.463.609c-1.041.306-2.101.543-3.173.71-4.566.405-9.163.298-13.705-.319-6.532-2.465-12.561-6.098-17.791-10.722-13.619-11.767-30.048-12.897-40.421-19.881-.232-.145-.449-.304-.652-.449-1.139-.832-2.085-1.902-2.77-3.135-.686-1.233-1.095-2.601-1.2-4.008-.104-1.407.098-2.82.593-4.141.496-1.322 1.272-2.519 2.276-3.511zm20.399 3.898c1.637 1.536 3.337 2.995 5.1 4.376 1.767 1.377 3.593 2.652 5.49 3.869 1.901 1.242 3.903 2.322 5.984 3.231-1.394-1.792-2.929-3.469-4.593-5.014-1.637-1.536-3.337-2.994-5.099-4.376-1.768-1.376-3.598-2.665-5.491-3.868-1.901-1.255-3.908-2.341-5.998-3.246 1.394 1.801 2.935 3.482 4.607 5.028z"/></g><path d="m358.307 604.362c.217.044.449.102.667.16.159.029.304.058.463.072-.377-.072-.753-.145-1.13-.232zm3.187-49.542.015.015c0-.002 0-.004.001-.006.001-.001.002-.003.003-.004.001-.002.003-.003.005-.004.002 0 .003-.001.005-.001zm-9.648-7.143.014.014c0-.002 0-.004.001-.005.001-.002.002-.004.003-.005.002-.001.003-.003.005-.003.002-.001.004-.001.006-.001z" fill="#fff"/><g fill="#000"><path d="m333.773 540.746-.682-5.898c-.212-1.96-.441-3.913-.604-5.868-.197-1.953-.281-3.908-.317-5.86-.074-1.962.136-3.924.624-5.825-.911 1.799-1.421 3.775-1.495 5.79-.153 1.996-.133 4.001.06 5.994.178 1.984.47 3.956.875 5.906.384 1.953.899 3.877 1.539 5.761zm-33.744 3.071c.688-2.252 1.237-4.534 1.758-6.822.533-2.286.968-4.591 1.383-6.9.389-2.314.764-4.631 1.017-6.967.293-2.333.464-4.68.513-7.032-.489 2.303-.931 4.6-1.374 6.899-.455 2.297-.859 4.601-1.272 6.905-.386 2.309-.792 4.614-1.12 6.935-.343 2.318-.675 4.639-.905 6.982zm116.779-525.9852s-2.901 3.0998-5.324-5.0883c0 0-1.415-3.62201-5.787-.6764 0 0-3.12 1.9173-4.63-1.1433-.346-.3935-.77-.7112-1.245-.93329-.475-.22206-.991-.3437-1.515-.35729-.524-.0136-1.045.08113-1.531.27827-.486.19711-.926.49241-1.292.86741 0 0-1.004 1.0035-3.318-.07-2.315-1.07343-6.085-3.65744-7.65-1.74487s.601 3.00087-1.237 5.19167c-1.839 2.1907-4.004 1.6042-3.404 4.1033.601 2.499-1.346 4.0986-1.054 6.5281.293 2.4295 1.195 16.4898 3.132 17.8017 1.962 1.6752 3.705 3.5918 5.186 5.7043.804 1.0235 6.497 1.7596 8.097-.307 1.155-1.3701 2.58-2.4863 4.188-3.2785 0 0 3.259-2.5334 5.673-.968 0 0 4.948-2.7021 7.997 1.2083 0 0 2.359.0153 2.618-1.9174.125-1.9367.099-3.8802-.079-5.8128 0 0 1.202-.5215 1.241 6.901.039 7.4226-3.788 19.8477-4.478 20.4687-.691.6209-6.538 4.3662-18.762.5191-12.225-3.847-14.146-11.0314-14.732-12.8797-.629-3.7801-1.01-7.5973-1.141-11.4271-.04-1.4011.418-7.8697-3.655-11.4772 0 0-2.672-2.6435-4.033-1.2028 0 0-2.851-5.1423-2.046-14.325.077-.8777.339-1.7291.767-2.4989.429-.7697 1.015-1.44044 1.72-1.96841.129-.09639.259-.19252.389-.28707 1.2-.90465 2.005-2.23695 2.249-3.72007.067-.49173.23-.96542.48-1.39387.25-.42846.583-.80322.978-1.10276.396-.29953.847-.51793 1.327-.64265s.98-.1533 1.472-.0841c5.424.06035 8.764-1.665252 10.427-1.08519 1.663.58006 9.095-3.37368 15.811 1.5756 3.035 2.46197 6.487 4.36045 10.192 5.60556 1.272.67595 7.292 4.69106 2.969 9.63896z"/><path d="m370.073 28.1201c-.727.5122-1.224 1.2892-1.384 2.164-.139.9005-.014 1.8222.361 2.6528.598 1.5479 1.111 3.1274 1.536 4.7315.53 1.6623 1.382 3.2037 2.508 4.5363.601.6848 1.387 1.1807 2.264 1.4278.87.1857 1.777.0291 2.534-.4373-.775.2422-1.61.2097-2.364-.092-.701-.3324-1.307-.8383-1.759-1.4698-.914-1.3339-1.626-2.7955-2.113-4.3375-.292-.7783-.488-1.5371-.76-2.3787-.279-.8161-.63-1.6056-1.05-2.3589-.432-.6703-.642-1.4593-.602-2.2557.041-.7963.331-1.5598.829-2.1825zm39.501 3.9265c-.324-.0112-.63-.1477-.855-.3805-.225-.2329-.351-.544-.351-.8678s.126-.6349.351-.8678c.225-.2328.531-.3693.855-.3805.323.0112.63.1477.855.3805.225.2329.35.544.35.8678s-.125.6349-.35.8678c-.225.2328-.532.3693-.855.3805zm-15.449 2.0448c-.324-.0112-.63-.1476-.855-.3805-.225-.2328-.351-.544-.351-.8677 0-.3238.126-.6349.351-.8678s.531-.3693.855-.3805c.323.0112.63.1476.855.3805s.35.544.35.8678c0 .3237-.125.6349-.35.8677-.225.2329-.532.3693-.855.3805zm20.778-9.4159c-1.784-.4379-3.645-.4561-5.438-.0534-.903.1991-1.778.5083-2.606.9208-.829.4203-1.563 1.0086-2.153 1.7275 1.612-.6773 3.286-1.1935 5-1.541 1.695-.374 3.412-.6414 5.197-1.0539zm-15.661 3.1404c-1.927-.645-3.964-.8903-5.988-.721-2.05.0893-4.035.7441-5.736 1.8919 1.923-.3717 3.867-.6262 5.821-.762 1.94-.1518 3.883-.213 5.903-.4089zm8.132 11.0968c-.269.3801-.583.7255-.937 1.028-.319.2708-.662.5113-1.025.7181-.722.4415-1.541.7621-2.45 1.304.494.1672 1.018.2238 1.535.1659.527-.0609 1.036-.2296 1.494-.4956.474-.2786.868-.6756 1.142-1.1522.285-.4705.371-1.0343.241-1.5682zm-34.848-10.7717c2.344 1.0289 4.77 1.8605 7.253 2.4862 2.47.6747 4.992 1.1398 7.54 1.3903-2.343-1.0314-4.769-1.8631-7.253-2.4862-2.47-.6725-4.992-1.1375-7.54-1.3903zm19.99 69.5368s22.144 44.9012 22.394 55.9222l-7.465 10.536-14.229-8.904s-3.754-48.166-.7-57.5542zm-46.396 75.1182c.942-1.351 1.567-2.896 1.829-4.522.065-.442.05-.892-.043-1.329-.045-.264-.159-.511-.33-.716-.172-.205-.396-.36-.647-.449-.458-.088-.932-.021-1.347.19-.39.157-.745.352-1.107.538l-.013.007-.012.01c-.889.75-1.711 1.577-2.456 2.471-.715.927-1.323 1.931-1.812 2.994-.923 2.148-1.301 4.492-1.099 6.822l.007-.028-.004.12h.113l.024-.054.007-.027c.171-.554.3-1.104.444-1.647.179-.537.297-1.08.478-1.606.32-1.064.745-2.08 1.137-3.104.407-1.025.887-2.019 1.437-2.975.498-.998 1.155-1.909 1.945-2.696l-.025.017c.638-.371 1.533-.701 2.053-.42.426.236.307 1.049.241 1.757-.189 1.487-.638 3.011-.925 4.604z"/><path d="m354.134 179.884c1.818-1.636 3.601-3.313 5.47-4.818.45-.372.93-.707 1.433-1.004.219-.131.459-.225.71-.277l.88-.169c1.174-.218 2.36-.363 3.552-.434 1.197-.073 2.43-.03 3.67-.157.338.003.671-.074.973-.224.302-.151.564-.371.764-.643.191-.279.305-.603.33-.94.026-.337-.038-.675-.184-.979-.585-1.152-1.6-2.028-2.825-2.438-1.17-.45-2.392-.748-3.638-.888l.375.552c.17-.554.207-1.14.107-1.711-.05-.309-.162-.605-.329-.87-.166-.266-.384-.495-.64-.675-.992-.563-2.148-.763-3.27-.568-2.043.298-4.027.909-5.883 1.812-1.835.879-3.577 1.94-5.201 3.166-1.612 1.218-3.093 2.602-4.416 4.13l.08.08c1.526-1.279 3.135-2.454 4.818-3.518 1.655-1.07 3.395-2.003 5.202-2.79 1.775-.792 3.633-1.38 5.54-1.753.855-.187 1.748-.086 2.54.287.314.252.543.594.656.981.113.386.104.798-.025 1.179l-.121.53.496.023c1.193.025 2.377.206 3.523.539.568.135 1.101.39 1.564.747.462.358.843.81 1.117 1.326.119.248.168.524.143.799-.024.274-.123.537-.285.76-.161.223-.38.398-.633.507s-.531.148-.804.112c-1.199.005-2.407-.159-3.651-.202-1.248-.059-2.5.028-3.728.26-.309.046-.61.126-.914.195-.345.086-.673.226-.974.416-.537.342-1.047.726-1.523 1.149-1.83 1.647-3.499 3.466-4.982 5.431z"/><path d="m354.12 179.9.016-.013-.01.009c2.982-1.335 6.075-2.405 9.245-3.196 1.567-.465 3.182-.754 4.813-.859.815-.049 1.633-.008 2.439.123.374.02.74.115 1.077.278.337.162.639.39.887.67.292.516-.18 1.259-.678 1.728-.541.475-1.221.761-1.938.815-1.687.028-3.362.276-4.984.737-3.239.96-6.194 2.696-8.61 5.058l.071.088c2.737-1.77 5.727-3.112 8.868-3.982 1.558-.436 3.156-.717 4.77-.84.941-.112 1.812-.551 2.462-1.241.325-.344.572-.755.721-1.205.094-.243.128-.506.101-.765-.028-.26-.116-.509-.259-.727-.65-.638-1.521-1-2.432-1.01-.831-.083-1.667-.114-2.502-.094-1.674-.044-3.348.058-5.004.305-3.307.617-6.425 1.991-9.11 4.016l-.01.008-.001.001-.012.016z"/><path d="m331.485 193.488c1.066 2.648 3.064 4.814 5.616 6.091 1.297.617 2.693.998 4.123 1.126 1.421.112 2.851 0 4.237-.333l.092-.022.049-.032 9.814-6.543c.813-.554 1.634-1.099 2.433-1.685.804-.564 1.553-1.324 2.284-1.804 1.653-.909 3.509-1.387 5.396-1.388.476-.022.952-.021 1.43-.006.538.032 1.077-.009 1.604-.123 1.12-.224 2.11-.873 2.762-1.811.384-.52.561-1.163.499-1.806-.116-.623-.445-1.186-.931-1.592-.832-.761-1.915-1.189-3.043-1.202-1.996.098-3.981.354-5.937.765-1.967.331-3.849 1.052-5.533 2.122l-.026.049c-.004-.018.028-.049.044-.043v.114c.031.007.077-.037.073-.071l-.027.048c1.769-.806 3.659-1.31 5.594-1.493 1.911-.249 3.836-.385 5.763-.407 1.649.07 3.608 1.594 2.525 2.835-.487.688-1.209 1.173-2.03 1.362-.43.106-.874.152-1.317.136-.503-.002-1.008.012-1.511.05-2.058.059-4.061.681-5.79 1.799-.856.674-1.423 1.395-2.191 2.01-.751.618-1.507 1.241-2.306 1.806-3.199 2.265-6.553 4.304-10.037 6.1l.14-.054c-2.619.526-5.334.281-7.816-.706-1.221-.541-2.344-1.279-3.325-2.185-1.004-.917-1.865-1.979-2.554-3.151zm33.664-26.707c-1.397.292-2.772.678-4.117 1.156-1.34.463-2.644 1.026-3.9 1.686-2.566 1.224-4.716 3.175-6.182 5.61 1.596-2.295 3.833-4.069 6.431-5.101 1.265-.559 2.571-1.021 3.906-1.384 1.324-.372 2.671-.654 4.032-.846z"/><path d="m347.872 167.369.083-.36.002-.01c.585-2.686 1.109-5.4 1.504-8.131.202-1.365.38-2.735.533-4.108l.209-2.063.159-1.971.014-.097c.48-7.326.098-14.684-1.139-21.921-.617-3.63-1.443-7.169-2.401-10.744-.5-1.867-1.324-3.633-2.434-5.215-.588-.868-1.342-1.612-2.217-2.189-.876-.577-1.857-.975-2.887-1.172l-.417-.065-.345.379c-4.864 5.341-9.725 10.686-14.509 16.1l-7.207 8.093-7.132 8.161-.456.522.442.505 14.112 16.132 13.98 16.244-.018-.024c.481.753.808 1.594.961 2.475.153.88.128 1.782-.071 2.654-.376 1.799-1.036 3.527-1.955 5.118-1.841 3.228-4.105 6.194-6.733 8.821l.598-.046c-11.459-8.71-22.835-17.557-33.836-26.811-2.738-2.325-5.457-4.673-8.105-7.078-1.338-1.193-2.629-2.422-3.886-3.676-.656-.61-1.221-1.272-1.817-1.916-.288-.326-.607-.639-.871-.976l-.755-1.027c-.993-1.357-1.76-2.865-2.271-4.467-.447-1.603-.623-3.269-.519-4.93.352-3.358 1.641-6.548 3.722-9.206l.068-.087.025-.039c3.863-5.97 7.798-11.901 11.806-17.795 3.994-5.894 8.112-11.7 12.251-17.4842 4.173-5.7533 8.423-11.4722 13.08-16.791 1.208-1.2704 2.359-2.6447 3.637-3.7782 1.287-1.1612 2.683-2.1951 4.169-3.0872 3.018-1.7852 6.268-3.1468 9.657-4.0464l-.151.0191.028-.0003.085-.0011.067-.0184c3.983-1.0511 8.058-1.7129 12.169-1.976 4.129-.2876 8.275-.2253 12.394.186l.032-.2242c-4.126-.5906-8.295-.8308-12.461-.7182-4.19.0716-8.36.5962-12.437 1.5647l.151-.0191-.028-.0003-.069-.0011-.083.0205c-3.538.8302-6.944 2.1434-10.124 3.9027-1.599.8978-3.108 1.9484-4.505 3.1371-1.423 1.1993-2.581 2.5588-3.854 3.8454-4.836 5.3266-9.203 10.9931-13.503 16.7018-4.304 5.7074-8.374 11.5774-12.428 17.4534-4.036 5.892-8.003 11.828-11.904 17.809l.093-.125c-2.378 3.056-3.827 6.732-4.175 10.589-.106 1.941.118 3.886.664 5.752.6 1.829 1.491 3.549 2.641 5.092l.859 1.139c.295.367.624.685.935 1.03.634.672 1.249 1.372 1.92 1.983 1.305 1.277 2.638 2.513 3.998 3.709 2.696 2.423 5.496 4.706 8.295 6.986 11.251 9.047 22.81 17.654 34.491 26.102l.329.238.269-.284c1.298-1.38 2.522-2.828 3.666-4.339 1.153-1.506 2.189-3.098 3.1-4.761.945-1.671 1.617-3.482 1.99-5.365.209-.964.223-1.96.042-2.93-.18-.969-.552-1.893-1.094-2.718l-.009-.013-.01-.011-13.778-16.416-13.646-16.529-.014 1.027 7.356-7.959 7.281-8.027c4.873-5.334 9.671-10.735 14.465-16.14l-.761.314c.724.135 1.409.431 2.003.867.659.479 1.244 1.052 1.737 1.702.995 1.397 1.738 2.957 2.197 4.61.979 3.444 1.799 7.007 2.523 10.534 1.397 7.104 1.978 14.344 1.729 21.58l.014-.096c-.023.205-.035.411-.037.617l-.018.506-.045 1.026-.121 2.053c-.093 1.368-.213 2.734-.357 4.099-.292 2.731-.673 5.449-1.101 8.173l.002-.009-.063.364z"/><path d="m375.124 69.4476c2.348 1.9961 4.696 3.7952 7.079 5.4824 2.345 1.7082 4.781 3.2884 7.297 4.7338l.109-1.5862c-2.235 1.2206-4.425 2.5387-6.69 3.6969-2.273 1.1413-4.605 2.1625-6.986 3.0592l.632.126-3.395-4.238c-1.143-1.4023-2.339-2.756-3.534-4.1111-2.371-2.7267-4.799-5.4011-7.284-8.023l-.835 1.9001zm.064-.2176-13.673-1.0101-2.7-.1994 1.865 2.0998c2.4 2.7007 4.854 5.3512 7.363 7.9514 1.247 1.3073 2.492 2.616 3.79 3.8761l3.928 3.7493.317.3024.315-.1764c2.22-1.2417 4.504-2.366 6.842-3.3683 2.345-.9844 4.765-1.8088 7.139-2.7307l1.476-.5731-1.367-1.0134c-2.426-1.7402-4.943-3.3518-7.539-4.8281-2.562-1.5002-5.159-2.8883-7.756-4.0795zm58.026 63.994c1.238 1.082 2.535 2.097 3.883 3.039 1.3.875 2.475 1.923 3.494 3.113 1.098 1.156 1.937 2.533 2.461 4.039.487 1.536.575 3.171.256 4.75-.783 3.066-1.791 6.271-2.489 9.443-.709 3.206-1.229 6.45-1.558 9.717l.142.033c1.157-3.072 2.132-6.21 2.92-9.397.392-1.589.706-3.195 1.031-4.8.372-1.616.621-3.258.743-4.912.039-1.675-.16-3.346-.593-4.964-.367-1.656-1.032-3.232-1.962-4.651-1.004-1.392-2.32-2.529-3.844-3.319-1.427-.817-2.899-1.556-4.407-2.214z"/></g></g></svg>