<svg width="500" height="606" viewBox="0 0 500 606" fill="none" xmlns="http://www.w3.org/2000/svg">
<g clip-path="url(#clip0_32_3090)">
<path d="M375.579 513.219L380.056 427.09C381.446 419.468 382.692 411.847 384.011 404.225L387.734 381.33C390.211 366.058 392.5 350.771 394.804 335.469C397.05 320.168 399.281 304.866 401.352 289.55L404.453 266.555C405.351 259.237 406.322 251.934 407.162 244.617C407.901 244.399 408.625 244.182 409.35 243.936L409.379 244.167L409.567 246.312C409.697 247.732 409.741 249.166 409.799 250.601C409.958 253.455 410.002 256.324 410.089 259.194C410.19 264.917 410.233 270.655 410.248 276.393C410.32 287.855 410.306 299.327 410.204 310.807C410.074 333.745 409.958 356.683 409.697 379.621L409.219 448.463L409.045 482.877V517.291C381.693 514.842 375.579 513.219 375.579 513.219ZM328.132 271.829C329.968 269.301 331.436 266.525 332.492 263.584C333.623 260.686 334.593 257.73 335.477 254.745C337.244 248.79 338.65 242.747 339.925 236.691C341.171 230.605 342.286 224.519 343.184 218.39C344.126 212.26 344.855 206.107 345.372 199.929C345.372 199.929 356.122 193.597 359.106 190.612C361.207 188.511 365.046 188.279 367.147 188.337C367.772 188.371 368.398 188.269 368.98 188.039C369.563 187.809 370.089 187.456 370.523 187.004C370.779 186.789 370.977 186.514 371.099 186.203C371.221 185.892 371.262 185.555 371.221 185.223C371.179 184.892 371.055 184.576 370.859 184.305C370.664 184.034 370.404 183.816 370.102 183.671C369.297 183.103 368.319 182.831 367.335 182.903C364.771 183.048 359.092 183.541 356.412 185.294C357.323 184.559 358.287 183.89 359.295 183.295C390.154 175.658 440.875 181.353 440.875 181.353C440.875 181.353 441.788 188.033 443.164 200.248C441.773 197.68 440.229 195.198 438.542 192.815C437.716 191.641 436.891 190.467 436.036 189.308C435.169 188.106 434.241 186.95 433.254 185.845C433.452 187.348 433.872 188.813 434.5 190.192C435.093 191.565 435.821 192.876 436.673 194.104C437.522 195.334 438.488 196.479 439.556 197.524C440.62 198.603 441.835 199.521 443.164 200.248C448.365 245.979 460.332 369.289 456.782 509.133C441.85 515.957 425.396 518.768 409.045 517.291C409.494 505.829 409.784 494.353 410.146 482.892L410.943 448.478C411.436 425.54 411.682 402.588 411.957 379.65C412.059 356.697 412.175 333.745 411.957 310.793C411.827 299.317 411.653 287.855 411.349 276.379C411.175 270.641 410.953 264.903 410.683 259.165C410.509 256.31 410.393 253.441 410.146 250.572C410.031 249.137 409.929 247.717 409.726 246.283L409.466 244.153L409.422 243.907C410.074 243.69 410.726 243.472 411.378 243.24C413.319 242.501 415.246 241.733 417.129 240.835C419.04 239.964 420.884 238.957 422.649 237.821C420.574 238.138 418.522 238.593 416.507 239.183C414.507 239.748 412.551 240.429 410.595 241.11C408.669 241.849 406.742 242.603 404.844 243.457C402.946 244.298 401.092 245.225 399.237 246.254C401.338 246.092 403.416 245.713 405.438 245.124C406.003 244.979 406.554 244.805 407.104 244.646C405.8 251.876 404.612 259.136 403.352 266.381L399.628 289.275C397.151 304.548 394.862 319.835 392.558 335.136C390.327 350.438 388.082 365.739 386.01 381.07L382.924 404.066C381.968 411.731 380.939 419.396 380.056 427.09L365.771 512.393C365.771 512.393 319.656 522.609 289.044 512.799C289.044 512.799 315.325 366.797 328.132 271.829ZM410.77 207.667C410.943 210.985 411.146 214.289 411.494 217.593C411.813 220.896 412.218 224.2 412.841 227.475C413.16 224.142 413.247 220.824 413.261 217.506C413.276 214.188 413.16 210.869 413.03 207.565C412.841 204.247 412.639 200.944 412.305 197.64C411.972 194.336 411.566 191.047 410.943 187.758C410.639 191.09 410.552 194.408 410.538 197.727C410.523 201.045 410.625 204.363 410.77 207.667V207.667ZM410.943 185.917C411.384 185.901 411.801 185.715 412.107 185.397C412.413 185.08 412.584 184.656 412.584 184.215C412.584 183.774 412.413 183.35 412.107 183.032C411.801 182.715 411.384 182.528 410.943 182.512C410.503 182.528 410.085 182.715 409.779 183.032C409.473 183.35 409.302 183.774 409.302 184.215C409.302 184.656 409.473 185.08 409.779 185.397C410.085 185.715 410.503 185.901 410.943 185.917ZM350.979 212.941C352.565 212.637 354.133 212.241 355.673 211.753C358.79 210.716 361.702 209.142 364.278 207.102C366.816 204.973 368.875 202.331 370.32 199.35C371.787 196.436 372.471 193.19 372.305 189.931C371.605 192.97 370.411 195.873 368.77 198.524C367.162 201.102 365.157 203.41 362.83 205.363C361.65 206.319 360.4 207.186 359.092 207.957C357.79 208.763 356.435 209.479 355.035 210.101C354.339 210.443 353.623 210.743 352.891 211L350.704 211.855C349.211 212.333 347.705 212.768 346.183 213.333C347.777 213.26 349.371 213.13 350.979 212.941V212.941ZM334.97 203.349C334.999 201.132 334.955 199.219 334.825 197.626L337.085 199.089C339.677 200.283 342.593 200.578 345.372 199.929C343.996 205.971 342.692 212.019 341.46 218.071L337.708 236.227C336.477 242.269 335.163 248.292 333.767 254.296C333.043 257.281 332.304 260.28 331.449 263.236C330.685 266.221 329.571 269.105 328.132 271.829C332.174 241.849 334.869 216.955 334.97 203.349H334.97ZM339.157 178.817C339.327 174.22 341.262 169.866 344.561 166.66C349.979 163.617 346.27 172.282 346.067 172.775C346.14 172.702 346.444 172.384 346.951 171.935C347.27 170.355 347.56 168.689 347.835 166.979L347.878 166.718C348.661 161.792 349.327 156.401 349.863 150.764C349.861 150.711 349.866 150.657 349.878 150.605C350.362 139.907 349.115 129.201 346.183 118.901C344.039 110.613 339.244 110.337 339.244 110.337L310.268 142.577L338.027 175.238C338.76 176.288 339.154 177.537 339.157 178.817V178.817Z" fill="black"/>
<path d="M0.101978 349.51C0.101978 349.51 22.9489 409.528 65.3979 401.37C69.7131 400.559 74.1118 400.281 78.4947 400.545C87.115 395.763 95.6337 390.851 104.167 385.968C112.686 381.041 121.132 376.042 129.448 370.811C137.807 365.652 145.993 360.233 153.903 354.466C155.888 353.017 157.902 351.612 159.785 350.047C161.683 348.511 163.668 347.062 165.508 345.453L171.042 340.585C172.723 338.817 174.442 337.059 176.2 335.31C170.462 343.396 162.972 350.076 155.279 356.263C153.353 357.813 151.426 359.378 149.398 360.798L143.385 365.145C139.285 367.913 135.185 370.666 130.984 373.274C122.581 378.476 114.019 383.403 105.253 387.938C96.503 392.517 87.6075 396.763 78.4947 400.545C117.64 402.732 158.945 443.189 163.349 451.984C168.246 461.779 265.386 357.292 287.639 291.42C294.231 271.916 311.486 237.98 334.681 203.842C334.791 203.686 334.888 203.521 334.97 203.349C335.463 202.479 336.231 200.9 337.085 199.089L334.825 197.625C333.438 196.497 332.315 195.077 331.537 193.467C330.784 194.322 330.276 194.829 330.276 194.829C330.276 194.829 290.276 165.443 281.293 154.822C272.311 144.215 281.293 133.594 281.293 133.594C281.293 133.594 307.82 92.3693 321.294 78.908C325.625 74.8409 330.96 72.0002 336.752 70.6777C305.922 76.6765 233.368 101.846 156.815 207.624C55.6042 347.496 0.101978 349.51 0.101978 349.51ZM467.417 599.827C466.374 599.783 465.331 599.754 464.302 599.667C477.66 601.029 494.002 599.218 498.898 583.902C497.764 581.932 496.265 580.195 494.48 578.787C494.133 578.464 493.723 578.218 493.275 578.065C492.827 577.912 492.352 577.854 491.881 577.897C491.409 577.939 490.952 578.08 490.538 578.311C490.125 578.542 489.765 578.857 489.481 579.236C488.117 580.959 486.987 582.854 486.121 584.873C485.092 586.931 484.049 589.031 482.846 591.118C481.598 593.295 479.952 595.217 477.993 596.784C475.941 598.274 473.542 599.217 471.024 599.522C469.83 599.702 468.625 599.804 467.417 599.827V599.827Z" fill="black"/>
<path d="M392.601 558.849C393.905 557.139 395.078 554.067 395.353 548.532C396.049 534.722 406.103 542.46 406.103 542.46C423.213 551.517 427.907 537.49 429.182 535.273C430.457 533.071 441.134 531.824 445.379 538.432C446.921 540.551 448.83 542.376 451.015 543.822C449.09 544.056 447.211 544.574 445.437 545.358C443.652 546.103 441.956 547.046 440.381 548.169C438.756 549.295 437.326 550.68 436.151 552.27C434.829 553.83 434.156 555.836 434.267 557.877C435.188 556.304 436.391 554.914 437.817 553.777C439.164 552.632 440.599 551.56 442.076 550.517L446.538 547.329C448.045 546.242 449.537 545.126 451.015 543.837C454.302 546.128 457.755 548.172 461.345 549.952C459.448 549.942 457.569 550.322 455.825 551.067C454.065 551.785 452.427 552.772 450.972 553.994C449.489 555.213 448.246 556.697 447.306 558.37C446.335 560.017 445.765 561.868 445.64 563.775C446.915 562.34 447.9 560.935 449.146 559.703C450.302 558.462 451.536 557.296 452.841 556.211C455.434 553.994 458.273 552.111 461.345 549.952C464.069 551.328 466.024 552.183 466.024 552.183C468.241 552.879 470.313 553.603 472.239 554.328C470.333 554.778 468.509 555.526 466.836 556.544C465.136 557.53 463.568 558.728 462.171 560.109C460.723 561.502 459.527 563.134 458.636 564.934C457.69 566.736 457.33 568.787 457.607 570.803C458.412 569.141 459.404 567.576 460.562 566.137C461.694 564.738 462.914 563.412 464.213 562.167C466.749 559.573 469.559 557.211 472.254 554.328C503.272 565.992 499.781 580.439 499.781 580.439C499.563 581.61 499.273 582.767 498.912 583.902C498.257 581.58 497.049 579.452 495.391 577.7C494.434 576.699 493.136 576.094 491.754 576.005C490.325 576.04 488.961 576.608 487.93 577.599C486.982 578.448 486.166 579.435 485.51 580.526C484.844 581.569 484.293 582.569 483.699 583.597C482.569 585.656 481.526 587.713 480.353 589.625C479.322 591.521 477.952 593.21 476.311 594.61C475.89 594.9 475.499 595.247 475.05 595.523L473.659 596.276C472.658 596.697 471.627 597.041 470.574 597.306C466.084 598.178 461.511 598.543 456.94 598.392C450.179 596.608 443.801 593.602 438.121 589.524C423.387 579.193 406.929 579.743 395.889 573.846C395.658 573.715 395.426 573.585 395.194 573.469C393.978 572.754 392.93 571.784 392.125 570.625C391.32 569.466 390.775 568.146 390.528 566.757C390.282 565.367 390.339 563.941 390.697 562.575C391.055 561.21 391.704 559.939 392.601 558.849V558.849ZM413.289 560.66C415.071 562.022 416.911 563.311 418.809 564.5C420.707 565.688 422.663 566.789 424.662 567.789C426.68 568.835 428.784 569.707 430.949 570.397C429.381 568.753 427.68 567.241 425.864 565.876C424.082 564.514 422.242 563.225 420.345 562.036C418.461 560.848 416.505 559.761 414.492 558.747C412.474 557.699 410.371 556.826 408.204 556.139C409.768 557.787 411.47 559.299 413.289 560.66V560.66Z" fill="black"/>
<path d="M464.301 599.667C463.953 599.638 463.605 599.594 463.258 599.566C463.46 599.58 463.649 599.609 463.852 599.638C463.997 599.652 464.156 599.667 464.301 599.667ZM459.795 599.029C459.969 599.072 460.158 599.101 460.346 599.145C460.722 599.218 461.099 599.275 461.476 599.319C460.911 599.232 460.346 599.145 459.795 599.029Z" fill="white"/>
<path d="M429.18 535.28C429.057 532.291 428.833 529.369 428.76 526.441C428.638 523.508 428.779 520.57 429.18 517.663C427.98 520.437 427.449 523.454 427.628 526.471C427.696 529.469 428.22 532.439 429.18 535.28V535.28ZM398.598 540.746C399.129 538.692 399.508 536.613 399.853 534.529C400.208 532.446 400.461 530.35 400.683 528.249C400.875 526.145 401.051 524.038 401.088 521.922C401.162 519.805 401.104 517.686 400.914 515.576L400.218 521.863L399.555 528.137C399.363 530.231 399.14 532.323 398.991 534.425C398.827 536.525 398.666 538.627 398.598 540.746ZM413.68 17.4248C413.764 20.783 414.165 24.1258 414.879 27.4083C415.288 28.994 415.549 30.6139 415.66 32.2474C415.761 33.9031 415.752 35.5637 415.632 37.2181C416.19 35.6134 416.497 33.9325 416.544 32.2343C416.594 30.5277 416.406 28.8224 415.987 27.1674C415.274 23.9255 414.617 20.6596 413.68 17.4248Z" fill="black"/>
<path d="M416.715 27.977C416.715 27.977 408.34 25.5017 405.051 30.7478C405.051 30.7478 401.366 30.012 399.637 31.7904C397.827 30.5109 395.656 29.8429 393.44 29.8837C391.224 29.9245 389.079 30.672 387.317 32.0173C387.317 32.0173 386.79 40.8011 393.744 41.11C393.744 41.11 400.828 39.7052 399.776 33.1841C399.776 33.1841 401.038 30.7472 405.19 32.1389C405.19 32.1389 408.19 40.0686 413.247 37.456C418.304 34.8434 416.715 27.977 416.715 27.977ZM405.783 74.7062C403.105 74.9701 400.444 75.3882 397.814 75.9583C395.091 76.4817 392.405 77.1864 389.775 78.0677L388.337 78.5816L389.374 79.5013C391.179 81.1015 393.074 82.6132 394.77 84.3188C396.468 86.0275 398.078 87.8211 399.594 89.6927L399.882 90.038L400.381 89.8019C401.781 89.1393 403.186 88.4849 404.556 87.7702L408.647 85.5917C410.011 84.8677 411.37 84.1322 412.702 83.3528C414.04 82.581 415.352 81.7658 416.662 80.9478L418.453 79.8301L416.605 79C413.074 77.3839 409.462 75.9507 405.783 74.7062ZM405.759 74.9317C409.129 77.2206 412.355 79.1628 415.616 80.9786L415.558 79.0311C414.193 79.7551 412.83 80.4819 411.492 81.2521C410.149 82.0148 408.832 82.8213 407.522 83.6394L403.586 86.0868C402.281 86.9142 401.01 87.8018 399.735 88.6812L400.521 88.7904C398.691 87.2243 396.941 85.5666 395.278 83.8237C393.619 82.0824 392.158 80.1473 390.607 78.3006L390.206 79.7339C392.829 79.2566 395.416 78.5975 397.948 77.7615C400.516 76.9537 403.09 76.0692 405.759 74.9317V74.9317Z" fill="black"/>
<path d="M389.991 78.9014L400.059 89.2414L392.515 97.6778L376.163 85.3287L389.991 78.9014Z" fill="black"/>
<path d="M410.295 50.5508C409.223 52.3846 408.332 54.3178 407.634 56.3235C406.909 58.3237 406.338 60.3766 405.927 62.4641C405.5 64.5507 405.252 66.6702 405.186 68.7992C405.098 70.9231 405.23 73.0503 405.579 75.1471C405.683 74.0855 405.636 73.0377 405.77 71.9902C405.828 70.9434 405.914 69.9012 406.055 68.8643C406.31 66.7913 406.608 64.7271 407.038 62.6855C407.432 60.6372 407.927 58.6084 408.461 56.5846C409.006 54.5624 409.626 52.5594 410.295 50.5508ZM382.399 50.9476C382.285 52.6998 382.08 54.4244 381.845 56.1305C381.618 57.8271 381.261 59.5036 380.776 61.1451C380.332 62.7756 379.653 64.3329 378.762 65.7684C377.833 67.2052 376.603 68.4235 375.158 69.3393C376.873 68.7762 378.379 67.7113 379.482 66.2825C380.575 64.8437 381.383 63.2092 381.862 61.467C382.362 59.7582 382.651 57.9946 382.723 56.2155C382.823 54.4529 382.714 52.6847 382.399 50.9476V50.9476ZM416.081 80.0983C418.749 81.1125 421.397 82.1465 423.96 83.3684C426.543 84.5284 429.065 85.8204 431.515 87.2393C436.435 89.9872 441.029 93.2833 445.208 97.0647C453.683 104.637 461.163 113.254 467.469 122.71C469.025 125.082 470.437 127.545 471.697 130.086C471.996 130.699 472.242 131.337 472.433 131.991C472.597 132.661 472.716 133.341 472.789 134.027C472.938 135.392 472.9 136.771 472.676 138.126C472.565 138.799 472.41 139.463 472.211 140.115C472.112 140.448 472.006 140.749 471.89 141.059L471.44 142.031L469.694 145.941C468.519 148.542 467.422 151.174 466.285 153.79C461.719 164.245 457.633 174.882 453.862 185.665L454.304 185.369C453.217 185.45 452.136 185.606 451.071 185.837L447.939 186.498L444.82 187.158C443.788 187.389 442.742 187.549 441.689 187.638V187.865C442.762 187.846 443.832 187.754 444.893 187.59L448.053 187.1L451.202 186.611C452.228 186.445 453.265 186.349 454.304 186.324L454.604 186.325L454.746 186.028C459.66 175.709 464.258 165.244 468.377 154.598C469.411 151.938 470.485 149.294 471.481 146.62L472.992 142.616L473.356 141.61C473.469 141.244 473.578 140.866 473.662 140.509C474.186 138.336 474.274 136.081 473.919 133.875C473.804 133.146 473.64 132.426 473.427 131.72C473.187 131.014 472.884 130.331 472.524 129.679C471.16 127.129 469.651 124.704 468.067 122.319C464.889 117.565 461.62 112.874 458.13 108.324C454.674 103.723 450.804 99.4473 446.568 95.5515C444.416 93.6134 442.136 91.8221 439.743 90.1899C437.341 88.5921 434.844 87.1406 432.267 85.8432C429.697 84.5512 427.062 83.3921 424.374 82.3707C421.682 81.3825 418.935 80.5511 416.146 79.8809L416.081 80.0983Z" fill="black"/>
<path d="M425.252 93.2105C426.3 100.615 427.545 107.977 428.857 115.325C430.192 122.668 431.548 130.005 433.231 137.281C434.853 144.568 436.498 151.856 437.618 159.236C438.232 162.915 438.743 166.613 439.181 170.314C439.399 172.164 439.598 174.016 439.756 175.864C439.947 177.659 440.018 179.466 439.969 181.27L440.896 180.45C434.074 180.136 427.254 179.975 420.431 179.81C413.608 179.635 406.781 179.602 399.954 179.676C393.126 179.75 386.299 179.961 379.472 180.308C376.06 180.517 372.649 180.758 369.242 181.104C367.54 181.285 365.84 181.506 364.147 181.791C362.423 181.984 360.744 182.47 359.185 183.23L359.311 183.418C360.073 183.077 360.883 182.855 361.714 182.762C362.548 182.63 363.388 182.529 364.234 182.458C365.923 182.302 367.622 182.233 369.32 182.161C372.716 182.011 376.12 181.966 379.525 181.952C386.332 181.865 393.145 181.948 399.958 181.997L440.847 182.263L441.754 182.269L441.775 181.442C441.778 179.513 441.611 177.587 441.276 175.687C441.004 173.827 440.679 171.984 440.361 170.14L438.361 159.109C436.97 151.771 435.913 144.376 434.778 136.99C433.699 129.594 432.217 122.273 430.67 114.967C429.094 107.667 427.414 100.389 425.474 93.165L425.252 93.2105ZM446.908 237.764C448.731 236.365 450.233 234.592 451.314 232.564C451.869 231.559 452.37 230.525 452.815 229.466L453.467 227.868L453.99 226.232C455.304 221.852 456.06 217.323 456.24 212.753C456.336 210.481 456.289 208.211 456.254 205.946C456.05 203.691 455.988 201.425 455.659 199.189C455.333 196.954 455.021 194.719 454.567 192.513C454.057 190.313 453.556 188.118 452.926 185.954C452.92 188.221 453.042 190.456 453.155 192.686L453.405 199.362L453.511 206.006C453.461 208.211 453.488 210.421 453.348 212.615L453.169 215.907C453.109 217.004 452.92 218.083 452.833 219.176C452.757 220.275 452.583 221.352 452.4 222.43C452.236 223.513 452.062 224.592 451.813 225.654C451.092 230.003 449.417 234.139 446.908 237.764V237.764Z" fill="black"/>
<path d="M445.946 223.477C447.347 223.441 448.683 222.878 449.687 221.899C450.625 220.969 451.284 219.793 451.588 218.507C452.053 216.086 452.129 213.607 451.811 211.162L450.913 196.741L451.041 211.184C451.221 213.533 451.042 215.895 450.512 218.19C450.218 219.252 449.631 220.21 448.817 220.953C448.046 221.639 447.052 222.021 446.021 222.03L445.946 223.477ZM362.497 605.057C363.701 605.168 364.912 605.193 366.119 605.13C368.657 605.084 371.14 604.391 373.334 603.116C375.439 601.756 377.267 600.011 378.724 597.972C380.144 596.015 381.389 594.03 382.635 592.089C383.695 590.162 385.011 588.388 386.547 586.814C387.204 586.166 388.074 585.78 388.995 585.727C389.963 585.776 390.878 586.184 391.56 586.872C393.187 588.465 394.504 590.347 395.442 592.422C389.01 607.1 372.682 607.288 359.571 604.622C360.527 604.782 361.512 604.913 362.497 605.057ZM292.232 556.718C293.695 555.139 295.173 552.197 296.014 546.735C298.114 533.071 307.328 541.765 307.328 541.765C323.424 552.516 329.523 539.04 331.016 536.968C332.493 534.896 343.258 534.751 346.807 541.75C348.126 544.007 349.833 546.013 351.849 547.676C349.918 547.717 348.004 548.045 346.17 548.647C344.32 549.209 342.537 549.972 340.853 550.922C339.121 551.881 337.555 553.114 336.217 554.574C334.75 555.997 333.876 557.923 333.768 559.964C334.853 558.5 336.193 557.243 337.724 556.255C339.187 555.255 340.708 554.328 342.287 553.444L347.054 550.719C348.662 549.792 350.255 548.836 351.864 547.691C354.897 550.299 358.117 552.682 361.498 554.82C359.62 554.624 357.723 554.812 355.92 555.371C354.096 555.914 352.366 556.735 350.791 557.805C349.197 558.871 347.808 560.216 346.692 561.776C345.564 563.319 344.815 565.106 344.504 566.991C345.909 565.687 347.039 564.384 348.401 563.297C349.676 562.178 351.021 561.142 352.429 560.196C355.239 558.254 358.238 556.66 361.512 554.835C364.091 556.486 365.946 557.53 365.946 557.53C368.075 558.457 370.075 559.37 371.929 560.298C369.98 560.551 368.084 561.108 366.308 561.949C364.52 562.76 362.84 563.792 361.31 565.021C359.725 566.256 358.371 567.762 357.311 569.469C356.184 571.16 355.616 573.162 355.688 575.193C356.659 573.618 357.806 572.16 359.107 570.846C360.374 569.575 361.72 568.385 363.135 567.282C365.931 564.963 368.959 562.891 371.929 560.298C401.6 575.034 396.66 589.061 396.66 589.061C396.331 590.208 395.924 591.331 395.442 592.422C395.027 590.044 394.043 587.802 392.574 585.887C391.728 584.794 390.503 584.059 389.14 583.829C387.709 583.724 386.29 584.153 385.156 585.032C384.133 585.785 383.226 586.683 382.462 587.698C381.694 588.669 381.056 589.611 380.361 590.567C379.014 592.494 377.768 594.45 376.406 596.233C375.191 598.014 373.659 599.557 371.886 600.783C371.436 601.029 371.002 601.333 370.538 601.565L369.075 602.174C368.034 602.48 366.974 602.717 365.902 602.884C361.336 603.289 356.739 603.182 352.197 602.565C345.665 600.1 339.636 596.467 334.406 591.843C320.787 580.076 304.358 578.946 293.985 571.962C293.753 571.817 293.536 571.658 293.333 571.513C292.194 570.681 291.248 569.611 290.563 568.378C289.877 567.145 289.468 565.777 289.363 564.37C289.259 562.963 289.461 561.55 289.956 560.229C290.452 558.907 291.228 557.71 292.232 556.718ZM312.631 560.616C314.268 562.152 315.968 563.611 317.731 564.992C319.498 566.369 321.324 567.644 323.221 568.861C325.122 570.103 327.124 571.183 329.205 572.092C327.811 570.3 326.276 568.623 324.612 567.078C322.975 565.542 321.275 564.084 319.513 562.702C317.745 561.326 315.915 560.037 314.022 558.834C312.121 557.579 310.114 556.493 308.024 555.588C309.418 557.389 310.959 559.07 312.631 560.616V560.616Z" fill="black"/>
<path d="M358.307 604.362C358.524 604.406 358.756 604.464 358.974 604.522C359.133 604.551 359.278 604.58 359.437 604.594C359.06 604.522 358.684 604.449 358.307 604.362ZM361.494 554.82L361.509 554.835C361.509 554.833 361.509 554.831 361.51 554.829C361.511 554.828 361.512 554.826 361.513 554.825C361.514 554.823 361.516 554.822 361.518 554.821C361.52 554.821 361.521 554.82 361.523 554.82H361.494ZM351.846 547.677L351.86 547.691C351.86 547.689 351.86 547.687 351.861 547.686C351.862 547.684 351.863 547.682 351.864 547.681C351.866 547.68 351.867 547.678 351.869 547.678C351.871 547.677 351.873 547.677 351.875 547.677H351.846Z" fill="white"/>
<path d="M333.773 540.746L333.091 534.848C332.879 532.888 332.65 530.935 332.487 528.98C332.29 527.027 332.206 525.072 332.17 523.12C332.096 521.158 332.306 519.196 332.794 517.295C331.883 519.094 331.373 521.07 331.299 523.085C331.146 525.081 331.166 527.086 331.359 529.079C331.537 531.063 331.829 533.035 332.234 534.985C332.618 536.938 333.133 538.862 333.773 540.746ZM300.029 543.817C300.717 541.565 301.266 539.283 301.787 536.995C302.32 534.709 302.755 532.404 303.17 530.095C303.559 527.781 303.934 525.464 304.187 523.128C304.48 520.795 304.651 518.448 304.7 516.096C304.211 518.399 303.769 520.696 303.326 522.995C302.871 525.292 302.467 527.596 302.054 529.9C301.668 532.209 301.262 534.514 300.934 536.835C300.591 539.153 300.259 541.474 300.029 543.817ZM416.808 17.8318C416.808 17.8318 413.907 20.9316 411.484 12.7435C411.484 12.7435 410.069 9.12149 405.697 12.0671C405.697 12.0671 402.577 13.9844 401.067 10.9238C400.721 10.5303 400.297 10.2126 399.822 9.99051C399.347 9.76845 398.831 9.64681 398.307 9.63322C397.783 9.61962 397.262 9.71435 396.776 9.91149C396.29 10.1086 395.85 10.4039 395.484 10.7789C395.484 10.7789 394.48 11.7824 392.166 10.7089C389.851 9.63547 386.081 7.05146 384.516 8.96403C382.951 10.8766 385.117 11.9649 383.279 14.1557C381.44 16.3464 379.275 15.7599 379.875 18.259C380.476 20.758 378.529 22.3576 378.821 24.7871C379.114 27.2166 380.016 41.2769 381.953 42.5888C383.915 44.264 385.658 46.1806 387.139 48.2931C387.943 49.3166 393.636 50.0527 395.236 47.9861C396.391 46.616 397.816 45.4998 399.424 44.7076C399.424 44.7076 402.683 42.1742 405.097 43.7396C405.097 43.7396 410.045 41.0375 413.094 44.9479C413.094 44.9479 415.453 44.9632 415.712 43.0305C415.837 41.0938 415.811 39.1503 415.633 37.2177C415.633 37.2177 416.835 36.6962 416.874 44.1187C416.913 51.5413 413.086 63.9664 412.396 64.5874C411.705 65.2083 405.858 68.9536 393.634 65.1065C381.409 61.2595 379.488 54.0751 378.902 52.2268C378.273 48.4467 377.892 44.6295 377.761 40.7997C377.721 39.3986 378.179 32.93 374.106 29.3225C374.106 29.3225 371.434 26.679 370.073 28.1197C370.073 28.1197 367.222 22.9774 368.027 13.7947C368.104 12.917 368.366 12.0656 368.794 11.2958C369.223 10.5261 369.809 9.85536 370.514 9.32739C370.643 9.231 370.773 9.13487 370.903 9.04032C372.103 8.13567 372.908 6.80337 373.152 5.32025C373.219 4.82852 373.382 4.35483 373.632 3.92638C373.882 3.49792 374.215 3.12316 374.61 2.82362C375.006 2.52409 375.457 2.30569 375.937 2.18097C376.417 2.05625 376.917 2.02767 377.409 2.09687C382.833 2.15722 386.173 0.431618 387.836 1.01168C389.499 1.59174 396.931 -2.362 403.647 2.58728C406.682 5.04925 410.134 6.94773 413.839 8.19284C415.111 8.86879 421.131 12.8839 416.808 17.8318Z" fill="black"/>
<path d="M370.073 28.1201C369.346 28.6323 368.849 29.4093 368.689 30.2841C368.55 31.1846 368.675 32.1063 369.05 32.9369C369.648 34.4848 370.161 36.0643 370.586 37.6684C371.116 39.3307 371.968 40.8721 373.094 42.2047C373.695 42.8895 374.481 43.3854 375.358 43.6325C376.228 43.8182 377.135 43.6616 377.892 43.1952C377.117 43.4374 376.282 43.4049 375.528 43.1032C374.827 42.7708 374.221 42.2649 373.769 41.6334C372.855 40.2995 372.143 38.8379 371.656 37.2959C371.364 36.5176 371.168 35.7588 370.896 34.9172C370.617 34.1011 370.266 33.3116 369.846 32.5583C369.414 31.888 369.204 31.099 369.244 30.3026C369.285 29.5063 369.575 28.7428 370.073 28.1201V28.1201ZM409.574 32.0466C409.25 32.0354 408.944 31.8989 408.719 31.6661C408.494 31.4332 408.368 31.1221 408.368 30.7983C408.368 30.4745 408.494 30.1634 408.719 29.9305C408.944 29.6977 409.25 29.5612 409.574 29.55C409.897 29.5612 410.204 29.6977 410.429 29.9305C410.654 30.1634 410.779 30.4745 410.779 30.7983C410.779 31.1221 410.654 31.4332 410.429 31.6661C410.204 31.8989 409.897 32.0354 409.574 32.0466V32.0466ZM394.125 34.0914C393.801 34.0802 393.495 33.9438 393.27 33.7109C393.045 33.4781 392.919 33.1669 392.919 32.8432C392.919 32.5194 393.045 32.2083 393.27 31.9754C393.495 31.7425 393.801 31.6061 394.125 31.5949C394.448 31.6061 394.755 31.7425 394.98 31.9754C395.205 32.2083 395.33 32.5194 395.33 32.8432C395.33 33.1669 395.205 33.4781 394.98 33.7109C394.755 33.9438 394.448 34.0802 394.125 34.0914ZM414.903 24.6755C413.119 24.2376 411.258 24.2194 409.465 24.6221C408.562 24.8212 407.687 25.1304 406.859 25.5429C406.03 25.9632 405.296 26.5515 404.706 27.2704C406.318 26.5931 407.992 26.0769 409.706 25.7294C411.401 25.3554 413.118 25.088 414.903 24.6755ZM399.242 27.8159C397.315 27.1709 395.278 26.9256 393.254 27.0949C391.204 27.1842 389.219 27.839 387.518 28.9868C389.441 28.6151 391.385 28.3606 393.339 28.2248C395.279 28.073 397.222 28.0118 399.242 27.8159ZM407.374 38.9127C407.105 39.2928 406.791 39.6382 406.437 39.9407C406.118 40.2115 405.775 40.452 405.412 40.6588C404.69 41.1003 403.871 41.4209 402.962 41.9628C403.456 42.13 403.98 42.1866 404.497 42.1287C405.024 42.0678 405.533 41.8991 405.991 41.6331C406.465 41.3545 406.859 40.9575 407.133 40.4809C407.418 40.0104 407.504 39.4466 407.374 38.9127V38.9127ZM372.526 28.141C374.87 29.1699 377.296 30.0015 379.779 30.6272C382.249 31.3019 384.771 31.767 387.319 32.0175C384.976 30.9861 382.55 30.1544 380.066 29.5313C377.596 28.8588 375.074 28.3938 372.526 28.141V28.141ZM392.516 97.6778C392.516 97.6778 414.66 142.579 414.91 153.6L407.445 164.136L393.216 155.232C393.216 155.232 389.462 107.066 392.516 97.6778ZM346.12 172.796C347.062 171.445 347.687 169.9 347.949 168.274C348.014 167.832 347.999 167.382 347.906 166.945C347.861 166.681 347.747 166.434 347.576 166.229C347.404 166.024 347.18 165.869 346.929 165.78C346.471 165.692 345.997 165.759 345.582 165.97C345.192 166.127 344.837 166.322 344.475 166.508L344.462 166.515L344.45 166.525C343.561 167.275 342.739 168.102 341.994 168.996C341.279 169.923 340.671 170.927 340.182 171.99C339.259 174.138 338.881 176.482 339.083 178.812L339.09 178.784L339.086 178.904H339.199L339.223 178.85L339.23 178.823C339.401 178.269 339.53 177.719 339.674 177.176C339.853 176.639 339.971 176.096 340.152 175.57C340.472 174.506 340.897 173.49 341.289 172.466C341.696 171.441 342.176 170.447 342.726 169.491C343.224 168.493 343.881 167.582 344.671 166.795L344.646 166.812C345.284 166.441 346.179 166.111 346.699 166.392C347.125 166.628 347.006 167.441 346.94 168.149C346.751 169.636 346.302 171.16 346.015 172.753L346.12 172.796Z" fill="black"/>
<path d="M354.134 179.884C355.952 178.248 357.735 176.571 359.604 175.066C360.054 174.694 360.534 174.359 361.037 174.062C361.256 173.931 361.496 173.837 361.747 173.785L362.627 173.616C363.801 173.398 364.987 173.253 366.179 173.182C367.376 173.109 368.609 173.152 369.849 173.025C370.187 173.028 370.52 172.951 370.822 172.801C371.124 172.65 371.386 172.43 371.586 172.158C371.777 171.879 371.891 171.555 371.916 171.218C371.942 170.881 371.878 170.543 371.732 170.239C371.147 169.087 370.132 168.211 368.907 167.801C367.737 167.351 366.515 167.053 365.269 166.913L365.644 167.465C365.814 166.911 365.851 166.325 365.751 165.754C365.701 165.445 365.589 165.149 365.422 164.884C365.256 164.618 365.038 164.389 364.782 164.209C363.79 163.646 362.634 163.446 361.512 163.641C359.469 163.939 357.485 164.55 355.629 165.453C353.794 166.332 352.052 167.393 350.428 168.619C348.816 169.837 347.335 171.221 346.012 172.749L346.092 172.829C347.618 171.55 349.227 170.375 350.91 169.311C352.565 168.241 354.305 167.308 356.112 166.521C357.887 165.729 359.745 165.141 361.652 164.768C362.507 164.581 363.4 164.682 364.192 165.055C364.506 165.307 364.735 165.649 364.848 166.036C364.961 166.422 364.952 166.834 364.823 167.215L364.702 167.745L365.198 167.768C366.391 167.793 367.575 167.974 368.721 168.307C369.289 168.442 369.822 168.697 370.285 169.054C370.747 169.412 371.128 169.864 371.402 170.38C371.521 170.628 371.57 170.904 371.545 171.179C371.521 171.453 371.422 171.716 371.26 171.939C371.099 172.162 370.88 172.337 370.627 172.446C370.374 172.555 370.096 172.594 369.823 172.558C368.624 172.563 367.416 172.399 366.172 172.356C364.924 172.297 363.672 172.384 362.444 172.616C362.135 172.662 361.834 172.742 361.53 172.811C361.185 172.897 360.857 173.037 360.556 173.227C360.019 173.569 359.509 173.953 359.033 174.376C357.203 176.023 355.534 177.842 354.051 179.807L354.134 179.884Z" fill="black"/>
<path d="M354.12 179.9L354.136 179.887L354.126 179.896C357.108 178.561 360.201 177.491 363.371 176.7C364.938 176.235 366.553 175.946 368.184 175.841C368.999 175.792 369.817 175.833 370.623 175.964C370.997 175.984 371.363 176.079 371.7 176.242C372.037 176.404 372.339 176.632 372.587 176.912C372.879 177.428 372.407 178.171 371.909 178.64C371.368 179.115 370.688 179.401 369.971 179.455C368.284 179.483 366.609 179.731 364.987 180.192C361.748 181.152 358.793 182.888 356.377 185.25L356.448 185.338C359.185 183.568 362.175 182.226 365.316 181.356C366.874 180.92 368.472 180.639 370.086 180.516C371.027 180.404 371.898 179.965 372.548 179.275C372.873 178.931 373.12 178.52 373.269 178.07C373.363 177.827 373.397 177.564 373.37 177.305C373.342 177.045 373.254 176.796 373.111 176.578C372.461 175.94 371.59 175.578 370.679 175.568C369.848 175.485 369.012 175.454 368.177 175.474C366.503 175.43 364.829 175.532 363.173 175.779C359.866 176.396 356.748 177.77 354.063 179.795L354.053 179.803L354.052 179.804L354.04 179.82L354.12 179.9Z" fill="black"/>
<path d="M331.485 193.488C332.551 196.136 334.549 198.302 337.101 199.579C338.398 200.196 339.794 200.577 341.224 200.705C342.645 200.817 344.075 200.705 345.461 200.372L345.553 200.35L345.602 200.318L355.416 193.775C356.229 193.221 357.05 192.676 357.849 192.09C358.653 191.526 359.402 190.766 360.133 190.286C361.786 189.377 363.642 188.899 365.529 188.898C366.005 188.876 366.481 188.877 366.959 188.892C367.497 188.924 368.036 188.883 368.563 188.769C369.683 188.545 370.673 187.896 371.325 186.958C371.709 186.438 371.886 185.795 371.824 185.152C371.708 184.529 371.379 183.966 370.893 183.56C370.061 182.799 368.978 182.371 367.85 182.358C365.854 182.456 363.869 182.712 361.913 183.123C359.946 183.454 358.064 184.175 356.38 185.245L356.354 185.294C356.35 185.276 356.382 185.245 356.398 185.251V185.365C356.429 185.372 356.475 185.328 356.471 185.294L356.444 185.342C358.213 184.536 360.103 184.032 362.038 183.849C363.949 183.6 365.874 183.464 367.801 183.442C369.45 183.512 371.409 185.036 370.326 186.277C369.839 186.965 369.117 187.45 368.296 187.639C367.866 187.745 367.422 187.791 366.979 187.775C366.476 187.773 365.971 187.787 365.468 187.825C363.41 187.884 361.407 188.506 359.678 189.624C358.822 190.298 358.255 191.019 357.487 191.634C356.736 192.252 355.98 192.875 355.181 193.44C351.982 195.705 348.628 197.744 345.144 199.54L345.284 199.486C342.665 200.012 339.95 199.767 337.468 198.78C336.247 198.239 335.124 197.501 334.143 196.595C333.139 195.678 332.278 194.616 331.589 193.444L331.485 193.488ZM365.149 166.781C363.752 167.073 362.377 167.459 361.032 167.937C359.692 168.4 358.388 168.963 357.132 169.623C354.566 170.847 352.416 172.798 350.95 175.233C352.546 172.938 354.783 171.164 357.381 170.132C358.646 169.573 359.952 169.111 361.287 168.748C362.611 168.376 363.958 168.094 365.319 167.902L365.149 166.781Z" fill="black"/>
<path d="M347.872 167.369L347.955 167.009L347.957 166.999C348.542 164.313 349.066 161.599 349.461 158.868C349.663 157.503 349.841 156.133 349.994 154.76L350.203 152.697L350.362 150.726L350.376 150.629C350.856 143.303 350.474 135.945 349.237 128.708C348.62 125.078 347.794 121.539 346.836 117.964C346.336 116.097 345.512 114.331 344.402 112.749C343.814 111.881 343.06 111.137 342.185 110.56C341.309 109.983 340.328 109.585 339.298 109.388L338.881 109.323L338.536 109.702C333.672 115.043 328.811 120.388 324.027 125.802L316.82 133.895L309.688 142.056L309.232 142.578L309.674 143.083L323.786 159.215L337.766 175.459L337.748 175.435C338.229 176.188 338.556 177.029 338.709 177.91C338.862 178.79 338.837 179.692 338.638 180.564C338.262 182.363 337.602 184.091 336.683 185.682C334.842 188.91 332.578 191.876 329.95 194.503L330.548 194.457C319.089 185.747 307.713 176.9 296.712 167.646C293.974 165.321 291.255 162.973 288.607 160.568C287.269 159.375 285.978 158.146 284.721 156.892C284.065 156.282 283.5 155.62 282.904 154.976C282.616 154.65 282.297 154.337 282.033 154L281.278 152.973C280.285 151.616 279.518 150.108 279.007 148.506C278.56 146.903 278.384 145.237 278.488 143.576C278.84 140.218 280.129 137.028 282.21 134.37L282.278 134.283L282.303 134.244C286.166 128.274 290.101 122.343 294.109 116.449C298.103 110.555 302.221 104.749 306.36 98.9648C310.533 93.2115 314.783 87.4926 319.44 82.1738C320.648 80.9034 321.799 79.5291 323.077 78.3956C324.364 77.2344 325.76 76.2005 327.246 75.3084C330.264 73.5232 333.514 72.1616 336.903 71.262L336.752 71.2811L336.78 71.2808L336.865 71.2797L336.932 71.2613C340.915 70.2102 344.99 69.5484 349.101 69.2853C353.23 68.9977 357.376 69.06 361.495 69.4713L361.527 69.2471C357.401 68.6565 353.232 68.4163 349.066 68.5289C344.876 68.6005 340.706 69.1251 336.629 70.0936L336.78 70.0745L336.752 70.0742L336.683 70.0731L336.6 70.0936C333.062 70.9238 329.656 72.237 326.476 73.9963C324.877 74.8941 323.368 75.9447 321.971 77.1334C320.548 78.3327 319.39 79.6922 318.117 80.9788C313.281 86.3054 308.914 91.9719 304.614 97.6806C300.31 103.388 296.24 109.258 292.186 115.134C288.15 121.026 284.183 126.962 280.282 132.943L280.375 132.818C277.997 135.874 276.548 139.55 276.2 143.407C276.094 145.348 276.318 147.293 276.864 149.159C277.464 150.988 278.355 152.708 279.505 154.251L280.364 155.39C280.659 155.757 280.988 156.075 281.299 156.42C281.933 157.092 282.548 157.792 283.219 158.403C284.524 159.68 285.857 160.916 287.217 162.112C289.913 164.535 292.713 166.818 295.512 169.098C306.763 178.145 318.322 186.752 330.003 195.2L330.332 195.438L330.601 195.154C331.899 193.774 333.123 192.326 334.267 190.815C335.42 189.309 336.456 187.717 337.367 186.054C338.312 184.383 338.984 182.572 339.357 180.689C339.566 179.725 339.58 178.729 339.399 177.759C339.219 176.79 338.847 175.866 338.305 175.041L338.296 175.028L338.286 175.017L324.508 158.601L310.862 142.072L310.848 143.099L318.204 135.14L325.485 127.113C330.358 121.779 335.156 116.378 339.95 110.973L339.189 111.287C339.913 111.422 340.598 111.718 341.192 112.154C341.851 112.633 342.436 113.206 342.929 113.856C343.924 115.253 344.667 116.813 345.126 118.466C346.105 121.91 346.925 125.473 347.649 129C349.046 136.104 349.627 143.344 349.378 150.58L349.392 150.484C349.369 150.689 349.357 150.895 349.355 151.101L349.337 151.607L349.292 152.633L349.171 154.686C349.078 156.054 348.958 157.42 348.814 158.785C348.522 161.516 348.141 164.234 347.713 166.958L347.715 166.949L347.652 167.313L347.872 167.369Z" fill="black"/>
<path d="M375.124 69.4476C377.472 71.4437 379.82 73.2428 382.203 74.93C384.548 76.6382 386.984 78.2184 389.5 79.6638L389.609 78.0776C387.374 79.2982 385.184 80.6163 382.919 81.7745C380.646 82.9158 378.314 83.937 375.933 84.8337L376.565 84.9597L373.17 80.7217C372.027 79.3194 370.831 77.9657 369.636 76.6106C367.265 73.8839 364.837 71.2095 362.352 68.5876L361.517 70.4877L375.124 69.4476ZM375.188 69.23L361.515 68.2199L358.815 68.0205L360.68 70.1203C363.08 72.821 365.534 75.4715 368.043 78.0717C369.29 79.379 370.535 80.6877 371.833 81.9478L375.761 85.6971L376.078 85.9995L376.393 85.8231C378.613 84.5814 380.897 83.4571 383.235 82.4548C385.58 81.4704 388 80.646 390.374 79.7241L391.85 79.151L390.483 78.1376C388.057 76.3974 385.54 74.7858 382.944 73.3095C380.382 71.8093 377.785 70.4212 375.188 69.23L375.188 69.23ZM433.214 133.224C434.452 134.306 435.749 135.321 437.097 136.263C438.397 137.138 439.572 138.186 440.591 139.376C441.689 140.532 442.528 141.909 443.052 143.415C443.539 144.951 443.627 146.586 443.308 148.165C442.525 151.231 441.517 154.436 440.819 157.608C440.11 160.814 439.59 164.058 439.261 167.325L439.403 167.358C440.56 164.286 441.535 161.148 442.323 157.961C442.715 156.372 443.029 154.766 443.354 153.161C443.726 151.545 443.975 149.903 444.097 148.249C444.136 146.574 443.937 144.903 443.504 143.285C443.137 141.629 442.472 140.053 441.542 138.634C440.538 137.242 439.222 136.105 437.698 135.315C436.271 134.498 434.799 133.759 433.291 133.101L433.214 133.224Z" fill="black"/>
</g>
<defs>
<clipPath id="clip0_32_3090">
<rect width="500" height="606" fill="white" transform="matrix(-1 0 0 1 500 0)"/>
</clipPath>
</defs>
</svg>
